<svg xmlns="http://www.w3.org/2000/svg" width="148.481" height="59.18" viewBox="0 0 148.481 59.18">
  <g id="Group_2234" data-name="Group 2234" transform="translate(-283.432 -748.469)">
    <g id="Group_1715" data-name="Group 1715" transform="translate(285.583 748.469)">
      <path id="Path_1429" data-name="Path 1429" d="M290.449,751.539c2.592,0,4.523,1.9,4.523,4.869s-1.931,4.905-4.523,4.905a4.059,4.059,0,0,1-3.775-2.226v6.575h-1.2V751.678h1.2v2.088A4.029,4.029,0,0,1,290.449,751.539Zm-.243,1.062a3.839,3.839,0,0,0,0,7.653,3.506,3.506,0,0,0,3.531-3.845A3.466,3.466,0,0,0,290.205,752.6Z" transform="translate(-285.474 -748.305)" fill="#f02a4c"/>
      <path id="Path_1430" data-name="Path 1430" d="M300.8,761.314a4.889,4.889,0,1,1,4.783-4.886A4.63,4.63,0,0,1,300.8,761.314Zm0-1.06a3.84,3.84,0,0,0,.017-7.653c-1.809,0-3.5,1.216-3.5,3.827S298.991,760.254,300.8,760.254Z" transform="translate(-284.906 -748.305)" fill="#f02a4c"/>
      <path id="Path_1431" data-name="Path 1431" d="M306.136,751.671h1.235l2.365,8.261,2.661-8.261h1.218l2.627,8.279,2.348-8.279h1.2l-2.974,9.5H315.6l-2.626-7.966-2.626,7.966H309.11Z" transform="translate(-284.368 -748.297)" fill="#f02a4c"/>
      <path id="Path_1432" data-name="Path 1432" d="M324.792,761.314a4.527,4.527,0,0,1-4.662-4.886c0-3.028,1.931-4.888,4.662-4.888a4.269,4.269,0,0,1,4.488,4.4,8.33,8.33,0,0,1-.035.957h-7.879a3.319,3.319,0,0,0,3.426,3.39,2.941,2.941,0,0,0,3.062-2.12h1.286A4.174,4.174,0,0,1,324.792,761.314Zm-3.426-5.41h6.678a3.105,3.105,0,0,0-3.3-3.321A3.279,3.279,0,0,0,321.366,755.9Z" transform="translate(-283.618 -748.305)" fill="#f02a4c"/>
      <path id="Path_1433" data-name="Path 1433" d="M332.142,761.176h-1.218v-9.5h1.218v1.689a3.27,3.27,0,0,1,3.252-1.863v1.269h-.33c-1.583,0-2.923.713-2.923,3.1Z" transform="translate(-283.041 -748.306)" fill="#f02a4c"/>
      <path id="Path_1434" data-name="Path 1434" d="M341.031,761.314a4.527,4.527,0,0,1-4.661-4.886c0-3.028,1.93-4.888,4.661-4.888a4.269,4.269,0,0,1,4.488,4.4,8.33,8.33,0,0,1-.035.957H337.6a3.319,3.319,0,0,0,3.426,3.39,2.94,2.94,0,0,0,3.062-2.12h1.287A4.176,4.176,0,0,1,341.031,761.314ZM337.6,755.9h6.678a3.105,3.105,0,0,0-3.3-3.321A3.279,3.279,0,0,0,337.6,755.9Z" transform="translate(-282.749 -748.305)" fill="#f02a4c"/>
      <path id="Path_1435" data-name="Path 1435" d="M351.193,751.7a4.127,4.127,0,0,1,3.739,2.192v-5.427h1.218v12.87h-1.218v-2.122a3.96,3.96,0,0,1-3.757,2.261c-2.609,0-4.54-1.931-4.54-4.905S348.566,751.7,351.193,751.7Zm.209,1.062a3.467,3.467,0,0,0-3.531,3.807,3.542,3.542,0,1,0,3.531-3.807Z" transform="translate(-282.199 -748.469)" fill="#f02a4c"/>
      <path id="Path_1436" data-name="Path 1436" d="M367.8,751.7c2.61,0,4.523,1.9,4.523,4.869s-1.931,4.905-4.523,4.905a3.989,3.989,0,0,1-3.774-2.226v2.087h-1.2v-12.87h1.2v5.479A4.03,4.03,0,0,1,367.8,751.7Zm-.243,1.062a3.839,3.839,0,0,0,0,7.653,3.507,3.507,0,0,0,3.531-3.845A3.467,3.467,0,0,0,367.555,752.765Z" transform="translate(-281.332 -748.469)" fill="#f02a4c"/>
      <path id="Path_1437" data-name="Path 1437" d="M380.6,751.671h1.253l-5.635,13.966h-1.27l1.844-4.522-3.9-9.444h1.339l3.235,8.1Z" transform="translate(-280.793 -748.297)" fill="#f02a4c"/>
    </g>
    <path id="Path_1438" data-name="Path 1438" d="M343.225,777.9a2.615,2.615,0,1,0-2.74-2.613,2.636,2.636,0,0,0,2.74,2.613" transform="translate(3.055 1.296)" fill="#f02a4c"/>
    <g id="Group_1716" data-name="Group 1716" transform="translate(283.432 775.379)">
      <path id="Path_1439" data-name="Path 1439" d="M333.239,788.474c0,3.345-2.23,5.193-4.683,5.193-2.391,0-4.651-1.911-4.651-5.257s2.261-5.129,4.651-5.129c2.453,0,4.683,1.847,4.683,5.193m4.491,8.952V779.649h-4.491v2.517a6.907,6.907,0,0,0-5.831-2.8c-4.491,0-8.06,3.536-8.06,9.048s3.568,9.175,8.06,9.175a6.963,6.963,0,0,0,5.831-2.9v2.74c0,3.282-1.911,4.683-4.364,4.683-2.23,0-3.888-1.051-4.334-2.645h-4.428C320.56,803.511,324.032,806,329,806c5.8,0,8.729-3.791,8.729-8.57" transform="translate(-281.509 -773.725)" fill="#f02a4c"/>
      <rect id="Rectangle_917" data-name="Rectangle 917" width="4.461" height="17.65" transform="translate(60.587 5.925)" fill="#f02a4c"/>
      <path id="Path_1440" data-name="Path 1440" d="M363.093,792.265c-.126-6.468-9.907-4.461-9.907-7.677,0-1.019.86-1.689,2.517-1.689,1.752,0,2.836.924,2.963,2.295h4.269c-.254-3.505-2.836-5.831-7.105-5.831-4.364,0-6.977,2.357-6.977,5.289,0,6.467,9.973,4.461,9.973,7.614,0,1.019-.956,1.815-2.71,1.815a2.93,2.93,0,0,1-3.186-2.357h-4.491c.191,3.282,3.282,5.862,7.71,5.862,4.3,0,6.945-2.293,6.945-5.32" transform="translate(-279.951 -773.725)" fill="#f02a4c"/>
      <path id="Path_1441" data-name="Path 1441" d="M366.6,792.026c0,4.046,2.261,5.479,5.639,5.479h2.8v-3.759h-2.07c-1.4,0-1.881-.51-1.881-1.688V783.52h3.951v-3.664h-3.951v-4.365H366.6v4.365h-2.1v3.664h2.1Z" transform="translate(-279.092 -773.932)" fill="#f02a4c"/>
      <path id="Path_1442" data-name="Path 1442" d="M403.943,797.287h2.2V787.093c0-5.1-3.057-7.52-6.912-7.52a6.337,6.337,0,0,0-6.276,4.27,6.429,6.429,0,0,0-6.436-4.27,6.214,6.214,0,0,0-5.766,3.314v-3h-2.229v17.4h2.229v-9.432c0-4.235,2.2-6.339,5.385-6.339,3.09,0,5.129,1.975,5.129,5.83v9.94h2.2v-9.432c0-4.235,2.23-6.339,5.384-6.339,3.09,0,5.1,1.975,5.1,5.83Z" transform="translate(-278.341 -773.713)" fill="#f02a4c"/>
      <path id="Path_1443" data-name="Path 1443" d="M423.022,788.888c0,4.332-2.9,7.008-6.466,7.008-3.664,0-6.468-2.643-6.468-7.041,0-4.428,2.8-6.977,6.468-6.977,3.566,0,6.466,2.676,6.466,7.009m2.23,8.7V774.011h-2.23v9.938a7.56,7.56,0,0,0-6.848-4.014c-4.81,0-8.348,3.474-8.348,8.92s3.538,8.984,8.316,8.984a7.251,7.251,0,0,0,6.881-4.141v3.887Z" transform="translate(-276.771 -774.011)" fill="#f02a4c"/>
      <path id="Path_1444" data-name="Path 1444" d="M311.666,789.885a4.834,4.834,0,0,0-2.786-4.086l-18.514-10.668a3.559,3.559,0,0,0-5.7,3.3v4.328a2.746,2.746,0,0,0-1.231,2.326,2.487,2.487,0,1,0,4.954,0,2.75,2.75,0,0,0-1.228-2.326v-4.328a1.148,1.148,0,0,1,1.963-1.134l18.515,10.668c.977.563,1.535,1.264,1.535,1.924s-.558,1.36-1.535,1.923L290.5,801.68a2.607,2.607,0,0,1-2.484.382,2.4,2.4,0,0,1-.856-2.162v-2.794a2.752,2.752,0,0,0,1.228-2.326,2.487,2.487,0,1,0-4.954,0,2.748,2.748,0,0,0,1.231,2.326V799.9a4.7,4.7,0,0,0,2.1,4.322,3.911,3.911,0,0,0,1.983.518,6.061,6.061,0,0,0,3-.9l17.136-9.874a4.833,4.833,0,0,0,2.786-4.085" transform="translate(-283.432 -773.988)" fill="#f02a4c"/>
    </g>
  </g>
</svg>
