<svg xmlns="http://www.w3.org/2000/svg" xmlns:xlink="http://www.w3.org/1999/xlink" width="160.571" height="44.452" viewBox="0 0 160.571 44.452">
  <defs>
    <clipPath id="clip-path">
      <rect id="Rectangle_4405" data-name="Rectangle 4405" width="160.571" height="44.452" fill="#fff"/>
    </clipPath>
  </defs>
  <g id="Group_68653" data-name="Group 68653" transform="translate(4 0)">
    <g id="Group_68591" data-name="Group 68591" transform="translate(-4 0)" clip-path="url(#clip-path)">
      <path id="Path_35757" data-name="Path 35757" d="M57.211,10.409s.39,2.252-.8,8.033L54.121,29.6H61.94l2.3-11.154a29.579,29.579,0,0,0,.794-8.033Z" transform="translate(-20.09 -3.864)" fill="#fff"/>
      <path id="Path_35758" data-name="Path 35758" d="M143.333,10.409l-1.64,7.964h6.4c2.73,0,4.354,1.4,2.852,8.7-1.337,6.506-3.459,8.7-6.353,8.7h-6.478l-1.642,7.967h9.9c5.58,0,10.152-5.176,12.514-16.664,2.571-12.48-1.008-16.66-5.652-16.66Z" transform="translate(-50.659 -3.864)" fill="#fff"/>
      <path id="Path_35759" data-name="Path 35759" d="M76.906.613A18.311,18.311,0,0,1,76.76,3.02c-.257,1.526-.639,3.787-.639,3.787-.644,4.763.411,7.965,5.36,7.965h2.373c4.246-.33,2.366,2.623.958,6.24L77.7,40.133h8.148l7.932-21.511c2.958-8.052.067-11.682-2.9-11.682-2.316,0-3.24-.065-5.138-.065-2.014,0-1.706-1.846-1.382-3.615.182-1.019.128-2.064.192-2.648Z" transform="translate(-28.194 -0.227)" fill="#fff"/>
      <path id="Path_35760" data-name="Path 35760" d="M7.686,32.437c-1.475,6.636-4.349,5.042-6.311,4.7C.813,39.629,0,43.395,0,43.395A35.876,35.876,0,0,0,6.386,44c4.2-.094,7.081-2.015,9.166-12.087l2.789-13.545h2.812c3.463,0,3.433,1.525,2.488,6.107L19.68,43.733h7.825L31.774,22.8c2.457-11.313-1.144-12.362-6.434-12.362l-13.184-.025Z" transform="translate(0 -3.864)" fill="#fff"/>
      <path id="Path_35761" data-name="Path 35761" d="M110.916.613a18.319,18.319,0,0,1-.147,2.407c-.259,1.526-.636,3.787-.636,3.787-.644,4.763.411,7.965,5.359,7.965h2.373c4.244-.33,2.365,2.623.956,6.24l-7.113,19.121h8.148l7.93-21.511c2.963-8.052.072-11.682-2.9-11.682-2.321,0-3.243-.065-5.138-.065-2.014,0-1.706-1.846-1.382-3.615.184-1.019.127-2.064.192-2.648Z" transform="translate(-40.82 -0.227)" fill="#fff"/>
      <path id="Path_35762" data-name="Path 35762" d="M205.659,1.19,195.491,9.722a2.331,2.331,0,0,1-1.559.571l-6.787,0a1.229,1.229,0,0,0-1.126.91l-1.331,6.353a.716.716,0,0,0,.741.878h12.112a3.065,3.065,0,0,0,2.119-.735l7.317-6.116a1.134,1.134,0,0,1,.8-.29,1.207,1.207,0,0,1,.89.387l4.831,5.769a2.877,2.877,0,0,0,2.335,1h10.842a1.15,1.15,0,0,0,1.072-.9l1.355-6.383a.7.7,0,0,0-.708-.884l-9.139-.011a1.093,1.093,0,0,1-.89-.416l-7.246-8.642A3.207,3.207,0,0,0,208.529,0a4.109,4.109,0,0,0-2.87,1.19" transform="translate(-68.552 0)" fill="#fff"/>
      <path id="Path_35763" data-name="Path 35763" d="M181.857,41.356a1.146,1.146,0,0,0-1.07.888l-1.353,6.382a.7.7,0,0,0,.7.89l9.144.006a1.082,1.082,0,0,1,.887.419l7.248,8.641A3.2,3.2,0,0,0,200,59.8a4.155,4.155,0,0,0,2.88-1.184l10.16-8.53a2.327,2.327,0,0,1,1.563-.578h6.788a1.242,1.242,0,0,0,1.129-.907l1.329-6.359a.716.716,0,0,0-.741-.875H211a3.06,3.06,0,0,0-2.122.733l-7.322,6.112a1.113,1.113,0,0,1-.8.3,1.18,1.18,0,0,1-.885-.387l-4.84-5.77a2.873,2.873,0,0,0-2.335-1Z" transform="translate(-66.602 -15.351)" fill="#fff"/>
    </g>
  </g>
</svg>
