<svg xmlns="http://www.w3.org/2000/svg" width="107.806" height="28.953" viewBox="0 0 107.806 28.953">
  <g id="Group_17038" data-name="Group 17038" transform="translate(-234.36 -255.329)">
    <g id="Group_16552" data-name="Group 16552" transform="translate(234.36 256.411)">
      <path id="Path_19364" data-name="Path 19364" d="M237.547,260.937c0-.929-.472-1.441-1.328-1.441h-1.772v.762h1.589c.4,0,.583.216.583.679v2.433h-2.26v.762H238.1v-.762h-.55Z" transform="translate(-234.36 -259.496)" fill="#002575"/>
      <path id="Path_19365" data-name="Path 19365" d="M251.035,259.5h-1.389v.779h.646V262.2l.928-.127v-2.408a.184.184,0,0,0-.185-.167" transform="translate(-245.677 -259.496)" fill="#002575"/>
      <path id="Path_19366" data-name="Path 19366" d="M261.83,260.937c0-.929-.472-1.441-1.327-1.441H258.73v.762h1.589c.4,0,.583.216.583.679v2.433h-2.26v.762h3.737v-.762h-.55Z" transform="translate(-252.337 -259.496)" fill="#002575"/>
    </g>
    <path id="Path_19367" data-name="Path 19367" d="M279.668,259.654h.385v-.762h-1.086l-.814,2.139-1.727-2.351-.663.577.718.951-1.05,3.311h.945l.779-2.565.683,1.023,1.688,1.715.638-.637-1.371-1.345Z" transform="translate(-30.406 -2.481)" fill="#002575"/>
    <rect id="Rectangle_2319" data-name="Rectangle 2319" width="1.73" height="0.762" transform="translate(250.108 258.357)" fill="#002575"/>
    <g id="Group_16553" data-name="Group 16553" transform="translate(251.885 255.329)">
      <path id="Path_19368" data-name="Path 19368" d="M305.589,256.674a.249.249,0,0,0-.263-.263h-2.555v-1.082h-.919v1.844h2.729l-1.8,3.874h.987l1.81-3.859Z" transform="translate(-301.852 -255.329)" fill="#002575"/>
      <path id="Path_19369" data-name="Path 19369" d="M318.761,259.5H316.4v3.874h-.681v.762h1.406a.2.2,0,0,0,.2-.193v-3.681h1.255c.4,0,.583.216.583.679v3.194h.928v-3.194c0-.929-.472-1.441-1.328-1.441" transform="translate(-312.115 -258.414)" fill="#002575"/>
      <path id="Path_19370" data-name="Path 19370" d="M345.347,259.5h-1.388v.779h.646V262.2l.928-.127v-2.408a.184.184,0,0,0-.185-.167" transform="translate(-333.025 -258.414)" fill="#002575"/>
    </g>
    <path id="Path_19371" data-name="Path 19371" d="M356.617,259.654H357v-.762h-1.086l-.814,2.139-1.727-2.351-.663.577.718.951-1.05,3.311h.945l.78-2.565.683,1.023,1.688,1.715.638-.637-1.371-1.345Z" transform="translate(-87.375 -2.481)" fill="#002575"/>
    <g id="Group_16554" data-name="Group 16554" transform="translate(270.288 256.411)">
      <path id="Path_19372" data-name="Path 19372" d="M374.042,259.5h-1.319v.762h.576v3.874h.928v-4.468a.171.171,0,0,0-.185-.167" transform="translate(-372.723 -259.496)" fill="#002575"/>
      <path id="Path_19373" data-name="Path 19373" d="M385.339,259.5h-3.2l-.385,2.5a.362.362,0,0,0,.081.292.321.321,0,0,0,.242.115H383.4v-.727h-.721l.2-1.419h1.718v2.267c0,.592-.258.845-.863.845h-1.973v.762h2.3a1.406,1.406,0,0,0,1.449-1.458v-3a.178.178,0,0,0-.184-.176" transform="translate(-379.405 -259.496)" fill="#002575"/>
      <path id="Path_19374" data-name="Path 19374" d="M401.939,259.5h-2.872v.762h2.155v3.874h.928v-4.442a.2.2,0,0,0-.211-.193" transform="translate(-392.226 -259.496)" fill="#002575"/>
      <path id="Path_19375" data-name="Path 19375" d="M417.241,259.5h-2.313v.762h2.13c.4,0,.583.216.583.679v3.194h.919v-3.194c0-.929-.468-1.441-1.319-1.441" transform="translate(-403.969 -259.496)" fill="#002575"/>
    </g>
    <path id="Path_19376" data-name="Path 19376" d="M414.928,269.7h.928v-2.683l-.928.116Z" transform="translate(-133.68 -8.652)" fill="#002575"/>
    <path id="Path_19377" data-name="Path 19377" d="M436.277,260.258h.585l.445,3.874h.957l-.523-3.874h.73V259.5h-2.193Z" transform="translate(-149.486 -3.085)" fill="#002575"/>
    <g id="Group_16555" data-name="Group 16555" transform="translate(289.496 256.411)">
      <path id="Path_19378" data-name="Path 19378" d="M449.67,259.5h-2.976v.762h2.251v2.267c0,.592-.258.845-.862.845h-1.388v.762h1.711a1.411,1.411,0,0,0,1.459-1.458v-3a.186.186,0,0,0-.193-.176" transform="translate(-446.694 -259.496)" fill="#002575"/>
      <path id="Path_19379" data-name="Path 19379" d="M464.552,259.5H461.68v.762h2.155v3.874h.928v-4.442a.2.2,0,0,0-.211-.193" transform="translate(-457.789 -259.496)" fill="#002575"/>
      <path id="Path_19380" data-name="Path 19380" d="M478.7,259.5h-2.34v.762h.644l-.48,3.874h.948l.419-3.874h.815a.634.634,0,0,1,.5.171,1.025,1.025,0,0,1,.3.735v2.206h-1.1v.762h1.8l.211-.594,0-2.373a1.621,1.621,0,0,0-1.72-1.668" transform="translate(-468.66 -259.496)" fill="#002575"/>
      <path id="Path_19381" data-name="Path 19381" d="M497.864,259.5h-2.313v.762h2.13c.4,0,.583.216.583.679v3.194h.919v-3.194c0-.929-.469-1.441-1.319-1.441" transform="translate(-482.864 -259.496)" fill="#002575"/>
    </g>
    <path id="Path_19382" data-name="Path 19382" d="M495.551,269.7h.928v-2.683l-.928.116Z" transform="translate(-193.368 -8.652)" fill="#002575"/>
    <g id="Group_16556" data-name="Group 16556" transform="translate(234.386 264.145)">
      <path id="Path_19383" data-name="Path 19383" d="M284.857,296.63v-6h-.7v-1.044h1.833a.172.172,0,0,1,.182.166v6.125a7.422,7.422,0,0,0,2.212.469v-6.76h1.318v6.775c1.455-.166,2.333-1.089,2.333-1.981v-4.794h1.333v4.779c0,1.845-1.879,3.1-4.288,3.1a12.07,12.07,0,0,1-4.227-.832m-5.62-2.269v-2.435c0-.847-.455-1.3-1.379-1.3h-2.3v3.735a1.967,1.967,0,0,0,1.924,2.057c1.47,0,1.758-1.24,1.758-2.057m-5-.015v-4.764h4.152a2.132,2.132,0,0,1,2.182,2.374v2.389a2.882,2.882,0,0,1-3.091,3.116,3.023,3.023,0,0,1-3.242-3.116m-3.334,2.994v-6.715h-1v-1.044h2.152c.106,0,.182.061.182.151v7.607Zm-3.788,0v-6.715h-3.743v-1.044h4.849a.209.209,0,0,1,.227.2v7.562Zm-5.41.227-2.833-2.873-1.333-2-1.409,4.628h-1.348l1.788-5.626-1.212-1.6.939-.817,3.061,4.159,1.47-3.857h1.651v1.044h-.621l-1.591,3.735,2.348,2.3Zm-9.485-3.206v-2.435c0-.847-.455-1.3-1.379-1.3h-2.3v3.735a1.967,1.967,0,0,0,1.924,2.057c1.47,0,1.758-1.24,1.758-2.057m-5-.015v-4.764h4.152a2.132,2.132,0,0,1,2.182,2.374v2.389a2.882,2.882,0,0,1-3.091,3.116,3.023,3.023,0,0,1-3.242-3.116m-8.243-1.709h1.333v7.123h-1.333Zm2.667,4.7v-.575l2.773-6.14h-5.651v-1.044h6.773a.236.236,0,0,1,.243.227v.953l-2.985,6.579Zm-6.061-3.373v-3.312h-1.121v-1.074h2.273a.181.181,0,0,1,.182.151v4.053Z" transform="translate(-234.461 -289.28)" fill="#002575"/>
    </g>
    <path id="Path_19384" data-name="Path 19384" d="M469.709,290.067l-.424-.166.348-1.981v-1.376h1.379v1.27Zm-2.182,0-.409-.166.364-1.981v-1.376h1.364v1.27Z" transform="translate(-172.318 -23.109)" fill="#002575"/>
    <g id="Group_16557" data-name="Group 16557" transform="translate(265.291 264.447)">
      <path id="Path_19385" data-name="Path 19385" d="M485.28,299.02l-.364-1.149,2.137-.666-1.8-6.76H486.6l1.621,6.443c.894-.287,1.758-.65,1.758-1.86v-3.539h-.849v-1.044h1.985a.2.2,0,0,1,.2.182v4.386a2.814,2.814,0,0,1-2.015,2.631Z" transform="translate(-450.785 -290.445)" fill="#002575"/>
      <path id="Path_19386" data-name="Path 19386" d="M358.932,336.71c0-1.634-.8-2.534-2.267-2.534h-3.038v1.283h2.72c.7,0,1.045.409,1.045,1.251v4.382h-3.917v1.283h6.409v-1.283h-.953Z" transform="translate(-353.476 -322.82)" fill="#0083bf"/>
      <path id="Path_19387" data-name="Path 19387" d="M382.113,334.176h-2.252v1.283h1v6.916H382.4v-7.939a.264.264,0,0,0-.285-.26" transform="translate(-373.01 -322.82)" fill="#0083bf"/>
      <path id="Path_19388" data-name="Path 19388" d="M400.468,328.669H396v-1.931h-1.523v3.214h4.752l-3.1,6.882-.015.034h1.634L400.88,330l.009-.9a.4.4,0,0,0-.421-.431" transform="translate(-383.833 -317.314)" fill="#0083bf"/>
      <path id="Path_19389" data-name="Path 19389" d="M424.752,334.176H422.38v1.314H423.5v3.427l1.518-.213.021,0v-4.265a.288.288,0,0,0-.286-.26" transform="translate(-404.488 -322.82)" fill="#0083bf"/>
      <path id="Path_19390" data-name="Path 19390" d="M442.532,334.176h-5.125v1.283h3.9v4.086c0,1.07-.472,1.547-1.529,1.547h-2.373v1.283h2.932a2.447,2.447,0,0,0,2.493-2.565v-5.359a.293.293,0,0,0-.3-.275" transform="translate(-415.613 -322.82)" fill="#0083bf"/>
      <path id="Path_19391" data-name="Path 19391" d="M466.047,334.176h-2.372v1.314h1.119v3.427l1.518-.213.021,0v-4.265a.288.288,0,0,0-.286-.26" transform="translate(-435.06 -322.82)" fill="#0083bf"/>
    </g>
    <path id="Path_19392" data-name="Path 19392" d="M484.065,338.144l1.535-3.719h.654v-1.283H484.43L483.006,337l-2.993-4.2-.016-.022-1.078.967-.016.014,1.235,1.685-1.8,5.848-.01.031h1.564l1.365-4.624,1.22,1.882,2.885,3.019.018.018,1.036-1.069.017-.017Z" transform="translate(-180.617 -57.339)" fill="#0083bf"/>
    <path id="Path_19393" data-name="Path 19393" d="M610.389,281.005h-7.815l6.391-6.39-2.183-2.182-7.934,7.934-.006-.006-2.181,2.183,0,.006,0,0,2.181,2.182.006-.005,7.934,7.934,2.183-2.183-6.391-6.39h7.815Z" transform="translate(-268.223 -12.662)" fill="#0083bf"/>
    <path id="Path_19394" data-name="Path 19394" d="M548.191,282.543l-2.183-2.183-.006.006-7.934-7.934-2.181,2.182,6.39,6.39h-7.815v3.086h7.815l-6.39,6.39,2.181,2.183L546,284.731l.006.005,2.183-2.182-.007,0Z" transform="translate(-222.175 -12.662)" fill="#3dbee3"/>
    <path id="Path_19395" data-name="Path 19395" d="M573.729,324.079l-7.934-7.934.006-.005-2.182-2.182-.006.006-.005-.006-2.182,2.182,0,.005-7.933,7.934,2.181,2.183,6.391-6.391v7.815h3.087v-7.815l6.39,6.391Z" transform="translate(-236.268 -43.405)" fill="#009fd0"/>
    <g id="Group_16558" data-name="Group 16558" transform="translate(317.239 256.242)">
      <path id="Path_19396" data-name="Path 19396" d="M563.6,271.718l10.063-10.2s-6.169-6.391-10.064.609c-3.655-7-10.063-.609-10.063-.609l10.063,10.2" transform="translate(-553.532 -258.847)" fill="#002575"/>
    </g>
  </g>
</svg>
