<svg id="Group_17280" data-name="Group 17280" xmlns="http://www.w3.org/2000/svg" xmlns:xlink="http://www.w3.org/1999/xlink" width="279.669" height="63.656" viewBox="0 0 279.669 63.656">
  <defs>
    <clipPath id="clip-path">
      <rect id="Rectangle_2406" data-name="Rectangle 2406" width="279.67" height="63.656" fill="none"/>
    </clipPath>
  </defs>
  <path id="Path_19570" data-name="Path 19570" d="M80.447,30.158H62.792L77.23,15.722,72.3,10.8,54.368,28.715l-.014-.014-4.929,4.931v.014h0l4.942,4.94.014-.011L72.3,56.5l4.931-4.931L62.792,37.129H80.447Z" transform="translate(-12.946 -2.822)" fill="#fff"/>
  <path id="Path_19571" data-name="Path 19571" d="M3.219,15.722,17.656,30.158H0v6.973H17.656L3.219,51.567,8.146,56.5,26.07,38.572l.014.011,4.933-4.931H31l.016-.014-4.933-4.931-.014.014L8.146,10.8Z" transform="translate(0 -2.822)" fill="#fff"/>
  <path id="Path_19572" data-name="Path 19572" d="M37.979,43.808v-.014l-4.929,4.931v.014L15.129,66.663,20.065,71.6,34.5,57.157V74.813h6.973V57.16L55.912,71.6l4.929-4.931L42.908,48.741l.014-.014-4.929-4.92Z" transform="translate(-3.96 -11.47)" fill="#fff"/>
  <g id="Group_17279" data-name="Group 17279">
    <g id="Group_17278" data-name="Group 17278" clip-path="url(#clip-path)">
      <path id="Path_19573" data-name="Path 19573" d="M37.888,29.081,60.623,6.033S46.687-8.405,37.888,7.4C29.631-8.417,15.154,6.033,15.154,6.033L37.888,29.081" transform="translate(-3.969 -0.004)" fill="#fff"/>
      <path id="Path_19574" data-name="Path 19574" d="M304.811,16.03V10.421L309.472.557h-3.367L304.63,4.262c-.418,1.123-.887,2.219-1.33,3.41h-.1c-.471-1.2-.887-2.3-1.3-3.41L300.4.557h-3.433l4.645,9.864V16.03Zm-17.221,0V11.751l1.957-2.53,3.913,6.82h3.549L291.478,6.7l4.7-6.138h-3.549l-4.979,6.573h-.052V.557H284.36V16.03Zm-10.49.286c3.638,0,5.74-2.192,5.74-4.724a4.276,4.276,0,0,0-3.078-4.2l-2.046-.834c-1.33-.523-2.376-.909-2.376-1.957,0-.991.809-1.539,2.139-1.539a5.054,5.054,0,0,1,3.26,1.253l1.619-2.046A7.07,7.07,0,0,0,277.48.256a4.888,4.888,0,0,0-5.4,4.513,4.47,4.47,0,0,0,3.106,4.174l2.062.887c1.364.575,2.273.909,2.273,2.01,0,1.019-.782,1.669-2.348,1.669a6.188,6.188,0,0,1-3.888-1.669l-1.853,2.219a8.269,8.269,0,0,0,5.663,2.244M262.925,8.032c.455-1.591.887-3.367,1.278-5.036h.077c.455,1.671.862,3.444,1.33,5.036l.455,1.591h-3.574Zm-2.167,7.984,1.069-3.865h4.854l1.069,3.865h3.41L266.245.557h-3.833L257.478,16.03ZM248.476,3.126h1.93c1.93,0,3,.548,3,2.167s-1.069,2.426-3,2.426h-1.93Zm0,12.915V10.289h2.087l3.105,5.74h3.6l-3.6-6.311a4.36,4.36,0,0,0,2.9-4.435c0-3.6-2.61-4.724-5.87-4.724h-5.427V16.03Zm-11.69.286c3.835,0,6-2.167,6-7.307V.557h-3.131V9.3c0,3.158-1.071,4.226-2.871,4.226s-2.869-1.069-2.869-4.226V.557h-3.235V9.011c0,5.14,2.244,7.307,6.106,7.307m-14.98-2.794c-2.219,0-3.653-2.062-3.653-5.3s1.435-5.165,3.653-5.165,3.653,1.93,3.653,5.165-1.437,5.3-3.653,5.3m0,2.792c4.122,0,6.966-3.053,6.966-8.089S225.93.27,221.808.27s-6.968,2.9-6.968,7.957,2.844,8.084,6.968,8.084m-13.641,0c3.638,0,5.74-2.192,5.74-4.724a4.276,4.276,0,0,0-3.078-4.2l-2.046-.834c-1.33-.523-2.374-.909-2.374-1.957,0-.991.809-1.539,2.139-1.539a5.056,5.056,0,0,1,3.262,1.253l1.619-2.046a7.073,7.073,0,0,0-4.881-2.01,4.888,4.888,0,0,0-5.4,4.513,4.47,4.47,0,0,0,3.11,4.194l2.062.887c1.364.575,2.273.909,2.273,2.01,0,1.019-.782,1.669-2.348,1.669a6.186,6.186,0,0,1-3.888-1.669L202.5,14.074a8.266,8.266,0,0,0,5.663,2.244m-14.457-.286L198.428.557h-3.31l-1.93,7.411c-.468,1.721-.809,3.262-1.3,5h-.077c-.5-1.748-.809-3.287-1.3-5L188.514.557h-3.4l4.722,15.473ZM183.946.557h-3.235V16.03h3.235ZM174.839,16.03,179.563.557h-3.315l-1.93,7.411c-.468,1.721-.809,3.262-1.3,5h-.077c-.5-1.748-.809-3.287-1.3-5L169.655.557h-3.41l4.722,15.473ZM158.061,8.045c.455-1.591.887-3.367,1.28-5.036h.077c.455,1.671.862,3.444,1.33,5.036l.443,1.591h-3.574Zm-2.167,7.984,1.071-3.865h4.854l1.068,3.865h3.41L161.375.557H157.54L152.6,16.03Zm-7.384,0V13.317h-6.236V.557h-3.235V16.03Zm-11.351,0V13.317h-6.575V9.4h5.4V6.688h-5.4V3.244H136.9V.557h-9.528V16.03Zm-15.734,0V3.244h4.331V.557h-11.9V3.244h4.358V16.03Z" transform="translate(-29.814 -0.091)" fill="#fff"/>
      <path id="Path_19575" data-name="Path 19575" d="M271.327,35.578h1.93c1.93,0,3,.548,3,2.167s-1.071,2.426-3,2.426h-1.93Zm0,12.915v-5.74h2.087l3.106,5.74h3.594l-3.6-6.316a4.361,4.361,0,0,0,2.9-4.435c0-3.6-2.61-4.724-5.872-4.724H268.11V48.491Zm-5.088,0V45.781h-6.586V41.866h5.4V39.152h-5.4V35.707h6.313V33.02h-9.523V48.493Zm-15.735,0V35.707h4.331V33.02h-11.9v2.687h4.358V48.493Zm-18.058,0v-5.95a52.871,52.871,0,0,0-.418-5.479h.077L233.7,40.4l4.331,8.089h3.315V33.02h-3.078v5.925c0,1.8.261,3.888.391,5.479h-.1l-1.539-3.34-4.306-8.064h-3.312V48.493Zm-4.958,0V45.781h-6.575V41.866h5.4V39.152h-5.4V35.707h6.313V33.02H217.7V48.493ZM211.1,48.78a6.263,6.263,0,0,0,4.906-2.273l-1.776-1.957a3.942,3.942,0,0,1-3.078,1.435c-2.376,0-3.913-1.957-3.913-5.245s1.721-5.229,4.019-5.229a3.6,3.6,0,0,1,2.687,1.2l1.773-2.01a6.286,6.286,0,0,0-4.488-1.982,7.384,7.384,0,0,0-7.307,8.089c0,5.193,3.21,7.957,7.175,7.957m-11.924-.286v-2.7h-6.236V33.02h-3.235V48.493Zm-18.945-7.984c.455-1.591.887-3.367,1.278-5.036h.077c.455,1.671.862,3.444,1.33,5.036l.455,1.591H179.8Zm-2.167,7.984,1.069-3.865h4.854l1.071,3.865h3.41L183.536,33H179.7l-4.931,15.473Zm-8.61.286a6.266,6.266,0,0,0,4.906-2.273l-1.776-1.957a3.944,3.944,0,0,1-3.081,1.435c-2.373,0-3.913-1.957-3.913-5.245s1.721-5.229,4.019-5.229a3.6,3.6,0,0,1,2.687,1.2l1.776-2.01a6.291,6.291,0,0,0-4.488-1.982,7.384,7.384,0,0,0-7.307,8.089c0,5.193,3.21,7.957,7.177,7.957m-9-15.762h-3.235V48.459h3.235ZM146.469,35.6h.862c2.819,0,4.567,1.33,4.567,5.063s-1.748,5.229-4.567,5.229h-.862Zm1.253,12.865c4.547,0,7.489-2.558,7.489-7.8a6.886,6.886,0,0,0-7.671-7.671h-4.306V48.461Zm-6.138,0v-2.68h-6.575V41.866h5.4V39.152h-5.4V35.707h6.313V33.02H131.8V48.493Zm-23.485,0V42.278c0-1.487-.286-3.653-.455-5.14h.1l1.228,3.549,2.5,6.393h1.364l2.478-6.393,1.278-3.549h.077c-.157,1.487-.416,3.653-.416,5.14v6.184h3V33.02h-3.512l-2.583,7.2L122.3,42.91h-.1l-.909-2.687-2.635-7.2H115.13V48.493Z" transform="translate(-30.147 -8.585)" fill="#fff"/>
      <path id="Path_19576" data-name="Path 19576" d="M200.587,79.7l5.522-16.912h-3.865l-2.258,8.1c-.55,1.882-.946,3.565-1.526,5.477h-.091c-.58-1.912-.946-3.594-1.525-5.477l-2.319-8.1h-3.967L196.081,79.7Zm-18.949-2.728c-2.594,0-4.272-2.253-4.272-5.79s1.678-5.647,4.272-5.647,4.272,2.11,4.272,5.647-1.678,5.79-4.272,5.79m0,3.051c4.822,0,8.148-3.337,8.148-8.841s-3.326-8.7-8.148-8.7-8.148,3.165-8.148,8.7,3.326,8.841,8.148,8.841m-9.276-.314V76.758h-7.293V62.793h-3.783V79.7ZM158.429,62.793h-3.783V79.7h3.783ZM141.378,79.7V72.459h6.593V79.7h3.783V62.793h-3.783v6.616h-6.62V62.793h-3.815V79.7Zm-11.535.314a7.546,7.546,0,0,0,5.736-2.48L133.5,75.4a4.747,4.747,0,0,1-3.6,1.569c-2.776,0-4.576-2.139-4.576-5.734s2.014-5.7,4.7-5.7a4.34,4.34,0,0,1,3.142,1.312l2.076-2.2a7.589,7.589,0,0,0-5.249-2.167,8.321,8.321,0,0,0-8.544,8.839,8.041,8.041,0,0,0,8.391,8.7M119.314,62.79h-3.783V79.7h3.783Z" transform="translate(-30.241 -16.362)" fill="#fff"/>
    </g>
  </g>
</svg>
