<svg id="Group_118461" data-name="Group 118461" xmlns="http://www.w3.org/2000/svg" xmlns:xlink="http://www.w3.org/1999/xlink" width="270" height="49.995" viewBox="0 0 270 49.995">
  <defs>
    <clipPath id="clip-path">
      <rect id="Rectangle_10344" data-name="Rectangle 10344" width="270" height="49.995" fill="none"/>
    </clipPath>
  </defs>
  <g id="Group_118460" data-name="Group 118460" clip-path="url(#clip-path)">
    <path id="Path_77463" data-name="Path 77463" d="M1205.958,61.812q0,3.486,0,6.973c0,.339.088.724-.485.7-2.994-.1-6.008.273-8.984-.2A8.8,8.8,0,0,1,1189.3,61.3c-.142-4.644-.068-9.295-.088-13.942,0-.327-.025-.653.468-.637,3.025.1,6.072-.29,9.075.212a8.88,8.88,0,0,1,7.2,8.577c.01,2.1,0,4.2,0,6.3" transform="translate(-961.275 -37.723)" fill="#c7d31a"/>
    <path id="Path_77464" data-name="Path 77464" d="M1206.9,187.082c-1.339,0-2.678-.024-4.016.011-.6.016-.854-.127-.83-.784.056-1.524-.031-3.055.069-4.576a5.551,5.551,0,0,1,5.33-5.147c2.739-.076,5.483-.005,8.223-.035.582-.006.678.228.669.73-.026,1.4,0,2.8-.011,4.2a5.691,5.691,0,0,1-5.513,5.6c-1.306.032-2.614.005-3.921.006" transform="translate(-971.648 -142.71)" fill="#f1852d"/>
    <path id="Path_77465" data-name="Path 77465" d="M7.906,152.6c.861,0,1.724-.036,2.583.008a1.969,1.969,0,0,1,2.118,2.169,13.02,13.02,0,0,1-.461,3.2c-.443,2.3-.962,4.593-1.409,6.9-.084.434-.223.593-.662.569-.762-.042-1.783.251-2.22-.134-.487-.43.126-1.379.259-2.1.364-1.963.8-3.913,1.2-5.87.289-1.42-.632-2.219-2.007-1.776-.424.136-.355.494-.418.773-.469,2.071-.859,4.162-1.389,6.216-.344,1.331-.877,2.611-2.474,2.96A8.723,8.723,0,0,1,.269,165.4c-.256-.025-.3-.177-.251-.4q.174-.788.335-1.579c.054-.264.207-.322.473-.343,1.431-.113,1.71-.327,2.03-1.73.4-1.762.74-3.538,1.107-5.308.193-.93.441-1.853.563-2.792.08-.615.38-.7.894-.679.828.029,1.658.008,2.488.008v.023" transform="translate(0 -123.321)" fill="#159641"/>
    <path id="Path_77466" data-name="Path 77466" d="M793.745,177.263c-.059-1.462-.017-2.927-.017-4.391,0-1.432.017-2.864,0-4.3a2.648,2.648,0,0,0-2.452-2.887,37.728,37.728,0,0,0-8.016.033c-.679.031-.631.6-.629,1.077,0,.418-.044.9.606.817s.539.337.539.711c0,2.99.017,5.982-.013,8.972-.008.736.207,1.012.977,1,2.649-.04,5.3-.031,7.943-.006.753.008,1.1-.2,1.066-1.033m-2.672-.885c-1.531-.015-3.065-.025-4.6,0-.542.01-.625-.238-.617-.694.021-1.275.008-2.547.008-3.822,0-1.24.023-2.484-.012-3.724-.015-.541.157-.738.7-.717a23.845,23.845,0,0,1,3.912.144,1.215,1.215,0,0,1,1.144,1.28c.01,2.323,0,4.648.019,6.971,0,.414-.148.562-.558.558" transform="translate(-632.619 -133.755)" fill="#015232"/>
    <path id="Path_77467" data-name="Path 77467" d="M1034.079,172.863c0,1.529-.012,3.058.005,4.587.007.627-.192.937-.886.9-.988-.046-1.98-.033-2.969-.005-.738.021-.711-.445-.7-.951.008-.487-.076-.987.687-.96.566.021,1.332.174,1.655-.119.443-.4.145-1.2.152-1.823.024-2.006-.013-4.013.022-6.019.011-.616-.073-.966-.8-.868-.648.087-.709-.38-.707-.863,0-.455-.029-.942.617-.981a35.782,35.782,0,0,1,7.547-.023,2.627,2.627,0,0,1,2.513,2.745c.082,3.055.051,6.113.073,9.17.007.909-.668.635-1.161.688-.583.062-.867-.111-.858-.78.032-2.643.019-5.287.012-7.931,0-1.6-.4-2.045-2.016-2.121-1.013-.048-2.278-.414-2.974.136-.63.5-.157,1.791-.2,2.732-.037.826-.008,1.656-.008,2.484" transform="translate(-832.194 -133.812)" fill="#015232"/>
    <path id="Path_77468" data-name="Path 77468" d="M237.669,198.783a1.369,1.369,0,0,1-1.061-.617c-.776-.927-1.588-1.827-2.335-2.777a1.4,1.4,0,0,0-1.305-.581c-.86.041-1.724-.012-2.585.019-.582.021-.748-.223-.615-.749.008-.03.025-.059.031-.09.525-2.336.525-2.336,2.955-2.336a.549.549,0,0,0,.1,0,3.882,3.882,0,0,1,4.249,1.96c.721,1.1.935,1.14,1.817.2a7.116,7.116,0,0,1,6.269-2.2c2.138.186,1.887-.27,1.489,2.013-.165.943-.555,1.348-1.516,1.192a4.032,4.032,0,0,0-3.759,1.329,32.75,32.75,0,0,1-2.622,2.218,1.6,1.6,0,0,1-1.107.414" transform="translate(-185.693 -154.852)" fill="#159641"/>
    <path id="Path_77469" data-name="Path 77469" d="M521.165,167.874a3.56,3.56,0,0,0-2.837-2.977,9.142,9.142,0,0,0-3.789-.077,3.831,3.831,0,0,0-3.462,3.5,18.625,18.625,0,0,0-.006,5.7,3.866,3.866,0,0,0,3.023,3.6,9.292,9.292,0,0,0,2.655.236,4.24,4.24,0,0,0,4.272-3.266,13.35,13.35,0,0,0,.4-3.509,19.946,19.946,0,0,0-.257-3.2m-2,6.128a2.4,2.4,0,0,1-2.5,1.938c-.19.006-.381,0-.573,0-2.175,0-3.005-.763-3.143-2.927-.038-.6-.006-1.209-.006-2.055a9.253,9.253,0,0,1,.167-2.511,3.687,3.687,0,0,1,.213-.728c.889-1.587,2.43-1.1,3.776-1.106a1.851,1.851,0,0,1,2.032,1.533,12.963,12.963,0,0,1,.035,5.856" transform="translate(-412.939 -133.097)" fill="#015232"/>
    <path id="Path_77470" data-name="Path 77470" d="M251.269,146.389a3.855,3.855,0,0,1-4.239-1.994c-.711-1.09-.939-1.134-1.823-.2a7,7,0,0,1-6.182,2.181c-1.949-.183-1.9-.026-1.559-2,.16-.937.541-1.295,1.438-1.149a4.22,4.22,0,0,0,3.856-1.379,30.7,30.7,0,0,1,2.634-2.21,1.37,1.37,0,0,1,2.093.175c.821.932,1.638,1.87,2.4,2.85a1.347,1.347,0,0,0,1.222.567c.862-.022,1.724.014,2.586-.012.626-.019.794.241.634.817-.783,2.829.092,2.3-3.059,2.358" transform="translate(-191.804 -112.544)" fill="#1c9cd8"/>
    <path id="Path_77471" data-name="Path 77471" d="M944.551,172c0-1.782.013-3.563-.008-5.345-.006-.523.133-.805.7-.921a18.487,18.487,0,0,1,7.115-.114,2.579,2.579,0,0,1,2.117,2.794c.059,3.021.013,6.045.032,9.067.005.832-.567.652-1.058.7-.65.057-1.028-.107-1.022-.861.021-2.64.009-5.281.008-7.922,0-1.636-.3-1.943-1.973-2.121-1.054-.112-2.1.029-3.151.02-.682-.006-.672.358-.67.845.012,2.991-.025,5.982.025,8.972.014.847-.243,1.085-1.078,1.089-.883,0-1.077-.345-1.054-1.14.048-1.685.015-3.372.015-5.058" transform="translate(-763.494 -133.64)" fill="#015232"/>
    <path id="Path_77472" data-name="Path 77472" d="M177.29,165.457c-.765-.1-1.836.384-2.237-.18-.3-.425.254-1.422.348-2.174.067-.541.31-.689.809-.642.379.036.765.008,1.147.007,1.677,0,2.246-.425,2.813-2a10.82,10.82,0,0,0,.586-3.169c.059-1.233-.38-1.668-1.621-1.712a14.761,14.761,0,0,0-1.53,0c-.554.038-.67-.209-.538-.681.009-.031.024-.06.03-.09.463-2.205.463-2.205,2.778-2.205h.956c1.986,0,2.788.579,2.981,2.53a13.416,13.416,0,0,1-2.109,8.713c-1.019,1.595-2.663,1.814-4.414,1.6" transform="translate(-141.429 -123.363)" fill="#159641"/>
    <path id="Path_77473" data-name="Path 77473" d="M99.174,154.867c-1.714,0-1.727-.005-1.213-1.391.882-2.378,1.783-4.75,2.678-7.123.407-1.079.2-1.37-.981-1.345-.223,0-.447.011-.67,0-1.737-.06-2.554-1.01-2.29-2.726a13.262,13.262,0,0,0,.352-2.35c-.011-.437.289-.459.578-.413.78.125,1.669-.365,2.317.265.186.181-.022.79-.087,1.2-.109.688.142,1.034.863,1.016.414-.011.829.009,1.244.012,1.464.013,2.088.6,2.116,2.072a6.147,6.147,0,0,1-.387,2.241c-.895,2.441-1.831,4.867-2.658,7.331-.36,1.074-.96,1.459-1.862,1.211" transform="translate(-78.124 -112.728)" fill="#159641"/>
    <path id="Path_77474" data-name="Path 77474" d="M142.893,154.723c-1.714,0-1.7,0-1.145-1.476q1.327-3.511,2.63-7.032c.409-1.105.219-1.349-.967-1.352a12.189,12.189,0,0,1-1.426-.093,1.613,1.613,0,0,1-1.474-1.6,7.647,7.647,0,0,1,.44-3.463c.286-.824,1.4-.172,2.135-.318.223-.045.634-.178.665.284a4.064,4.064,0,0,1-.089.849c-.163,1.111,0,1.312,1.093,1.333l.382.008c2.438.048,3.333,1.194,2.554,3.555-.983,2.978-2.113,5.908-3.206,8.848-.323.869-1.125.263-1.594.457" transform="translate(-113.539 -112.584)" fill="#159641"/>
    <path id="Path_77475" data-name="Path 77475" d="M1122.786,178c-1.372,0-2.745-.034-4.116.012-.853.029-.788-.5-.813-1.061-.026-.575.11-.876.787-.86,1.754.04,3.51-.011,5.264.026.612.013.824-.142.812-.787-.04-2.164-.009-4.329-.018-6.493,0-1.072-.452-1.617-1.515-1.678a18.99,18.99,0,0,0-4.1.093c-.421.068-.828.109-.866-.417-.036-.492-.309-1.223.454-1.359a13.584,13.584,0,0,1,6.069-.02c1.344.373,1.985,1.605,2,3.441.013,2.164.006,4.329,0,6.493,0,.4-.036.753.57.725.954-.043.556.718.624,1.175.08.542-.223.721-.74.715-1.468-.017-2.935-.006-4.4-.006" transform="translate(-903.593 -133.469)" fill="#015332"/>
    <path id="Path_77476" data-name="Path 77476" d="M704.417,178.006c-1.4,0-2.81-.033-4.213.012-.908.03-.7-.569-.748-1.085-.056-.6.107-.852.772-.837,1.786.042,3.575-.007,5.362.026.586.011.772-.166.763-.755-.031-2.133,0-4.266-.018-6.4-.011-1.158-.532-1.753-1.64-1.808a20.321,20.321,0,0,0-4.013.089c-.4.06-.84.18-.837-.4,0-.481-.352-1.23.429-1.369a13.678,13.678,0,0,1,5.978-.03c1.336.356,2.02,1.535,2.034,3.216.019,2.229.009,4.458,0,6.686,0,.434-.051.816.61.775.924-.058.487.687.562,1.1.084.464-.038.8-.639.789-1.468-.023-2.937-.007-4.4-.007" transform="translate(-565.382 -133.476)" fill="#015232"/>
    <path id="Path_77477" data-name="Path 77477" d="M872.6,148.717c.894,0,1.788-.006,2.681,0,.982.008,1.2.272.9,1.224-.33,1.057-.724,2.094-1.087,3.141-.862,2.483-1.718,4.968-2.588,7.448a1.507,1.507,0,0,1-2.032.9c-.481-.2-.244-.528-.152-.79.92-2.628,1.858-5.25,2.789-7.874.106-.3.193-.6.292-.9.41-1.237.411-1.237-.936-1.237-1.564,0-3.129-.023-4.692.011-.61.013-.867-.168-.854-.8.028-1.432.033-2.866,0-4.3-.021-.863.5-.845,1.123-.867.7-.025.988.211.95.928-.044.825.017,1.656-.02,2.482-.023.513.169.659.66.643.989-.03,1.979-.009,2.968-.009" transform="translate(-700.755 -116.941)" fill="#015232"/>
    <path id="Path_77478" data-name="Path 77478" d="M630.386,150.645c-.862,0-1.726-.028-2.586.01-.564.025-.812-.132-.8-.739.032-1.465.042-2.932,0-4.4-.024-.813.427-.827,1.033-.83.634,0,1.057.085,1.01.871s.027,1.595-.023,2.388c-.038.607.127.816.775.8,1.851-.046,3.7-.021,5.557-.014.967,0,1.218.319.906,1.225-.96,2.784-1.948,5.558-2.925,8.336-.262.746-.532,1.49-.789,2.238a1.491,1.491,0,0,1-2.011.916c-.537-.263-.2-.693-.094-.993.682-2.009,1.407-4,2.117-6,.371-1.045.711-2.1,1.121-3.13.235-.59.052-.707-.511-.687-.925.032-1.852.009-2.778.009" transform="translate(-506.82 -116.958)" fill="#015232"/>
    <path id="Path_77479" data-name="Path 77479" d="M577,172.8c0,1.767-.025,3.264.012,4.76.016.669-.226.9-.889.885-1.244-.036-2.491-.051-3.734,0-.779.035-.866-.33-.878-.976-.013-.694.181-1,.914-.945.667.049,1.341-.009,2.01.018.408.016.561-.109.558-.535-.016-2.452.014-4.9-.02-7.356-.013-.946-.618-1.254-2-1.132-1,.089-1.279-.236-1.056-1.187a.543.543,0,0,1,.413-.466,4.9,4.9,0,0,1,3.192.1,2.448,2.448,0,0,1,1.389,2.134c.17,1.652.046,3.309.087,4.694" transform="translate(-461.967 -133.9)" fill="#025233"/>
    <path id="Path_77480" data-name="Path 77480" d="M469.283,174.666c0-2.675.027-5.35-.017-8.024-.013-.8.31-.957,1.02-.96s1.008.17,1,.964q-.051,8.071,0,16.143c.006.826-.336.916-1.02.919s-1.024-.1-1.008-.924c.054-2.705.02-5.413.02-8.119" transform="translate(-379.318 -133.926)" fill="#015232"/>
    <path id="Path_77481" data-name="Path 77481" d="M1123.027,78.666c0-.732-.025-1.466.008-2.2a1.918,1.918,0,0,0-.585-1.718c-.392-.332-.262-.6.1-.925.389-.355.662-.316.944.057.373.494.625.545,1.262.172a4.388,4.388,0,0,1,4.3.008A2.04,2.04,0,0,1,1130.058,76c.022,1.209.058,2.422,0,3.628a2.8,2.8,0,0,1-3.98,2.511c-.362-.14-.356-.389-.351-.684.008-.431.28-.409.594-.386a6.429,6.429,0,0,0,1.049,0c1.056-.1,1.4-.462,1.42-1.513.016-1.082-.008-2.165.006-3.247a1.276,1.276,0,0,0-1.113-1.425,5.06,5.06,0,0,0-.844-.132c-2.4-.082-2.516.03-2.516,2.393,0,1.433-.012,2.865.008,4.3.007.493-.092.748-.677.764-.639.017-.637-.316-.628-.77.018-.923.005-1.846.005-2.769" transform="translate(-907.114 -59.408)" fill="#025333"/>
    <path id="Path_77482" data-name="Path 77482" d="M816.754,78.005c0,.637.029,1.275-.006,1.91a2.415,2.415,0,0,1-2.133,2.43,14.5,14.5,0,0,1-4.1-.118c-.445-.076-.481-.284-.482-.635,0-.477.325-.369.6-.368,1.145.006,2.293.062,3.435.008,1.072-.05,1.352-.387,1.361-1.413.01-1.178.016-2.356,0-3.534-.015-.929-.4-1.319-1.343-1.357-.733-.029-1.468.014-2.2-.011-.437-.015-.675.106-.622.584a4.258,4.258,0,0,1,0,.477c0,1.568,0,1.572,1.589,1.621.358.011.683-.051.686.508s-.3.53-.671.52c-.891-.024-2.034.285-2.6-.152-.612-.469-.177-1.665-.2-2.542-.037-1.785-.016-1.816,1.725-2.07a7.719,7.719,0,0,1,3.039.068,2.248,2.248,0,0,1,1.924,2.354c.024.572,0,1.146,0,1.719Z" transform="translate(-654.692 -59.612)" fill="#015232"/>
    <path id="Path_77483" data-name="Path 77483" d="M490.549,172.081c0-1.812.041-3.625-.018-5.436-.028-.866.435-.9,1.068-.9.609,0,1.02.067,1.012.868q-.052,5.531,0,11.063c.008.913-.553.815-1.136.839s-.958-.054-.94-.805c.046-1.875.015-3.751.015-5.626" transform="translate(-396.509 -133.975)" fill="#035333"/>
    <path id="Path_77484" data-name="Path 77484" d="M727.372,82.522a1.593,1.593,0,0,1-2.075-.7c-.757-1.1-1.615-2.126-2.429-3.184-.563-.732-.754-.734-1.046.161-.342,1.052-.565,2.142-.833,3.218-.069.278-.1.546-.462.632-.754.178-.986-.039-.807-.793.358-1.508.566-3.082,1.873-4.165.312-.259.155-.476-.042-.727-.568-.725-1.114-1.468-1.669-2.2-.111-.148-.293-.275-.208-.494.093-.236.318-.151.5-.17a1.113,1.113,0,0,1,1.135.515c.75,1.065,1.581,2.074,2.336,3.137.388.546.626.479.921-.057a9.368,9.368,0,0,0,.851-2.9c.131-.708.563-.787,1.1-.677.672.136.244.638.2.922a5.035,5.035,0,0,1-1.733,3.387c-.388.3-.352.575-.059.941.812,1.011,1.59,2.049,2.448,3.162" transform="translate(-581.715 -59.872)" fill="#025332"/>
    <path id="Path_77485" data-name="Path 77485" d="M923.41,172.032c0-1.814.029-3.629-.015-5.443-.017-.709.283-.888.908-.852.578.034,1.141-.066,1.132.849q-.054,5.538,0,11.077c.008.911-.552.811-1.138.842-.626.034-.92-.12-.9-.84.05-1.877.017-3.756.017-5.634" transform="translate(-746.404 -133.967)" fill="#015232"/>
    <path id="Path_77486" data-name="Path 77486" d="M529.8,82.348c-.956,0-1.912-.022-2.867.009-.514.017-.544-.253-.557-.649-.014-.446.2-.522.579-.517,1.21.017,2.422-.016,3.632.017.493.013.656-.124.644-.632-.034-1.429-.009-2.86-.013-4.29,0-1.009-.313-1.354-1.361-1.383-.89-.025-1.782.025-2.672.058-.245.009-.548.163-.557-.254-.006-.285-.163-.671.324-.761a9.563,9.563,0,0,1,3.88-.083,1.878,1.878,0,0,1,1.689,2.083c.064,1.459.023,2.923.041,4.384.005.4-.195.9.573.906.383,0,.177.462.211.715.048.366-.206.4-.487.4-1.02,0-2.039,0-3.059,0" transform="translate(-425.483 -59.571)" fill="#015232"/>
    <path id="Path_77487" data-name="Path 77487" d="M72.187,152.526c1.449,0,1.529.012,1.319,1.432-.273,1.847-.686,3.673-1.041,5.508-.051.264-.144.47-.486.461-.7-.017-1.4-.007-2.1-.005-.529,0-.428-.356-.368-.663.188-.963.352-1.934.6-2.883a13.675,13.675,0,0,0,.462-3c.026-.849.41-.914,1.046-.851.189.019.382,0,.573,0" transform="translate(-56.144 -123.274)" fill="#169741"/>
    <path id="Path_77488" data-name="Path 77488" d="M1021.851,78.1c.072-2.288.3-3.309-3.2-3.154-.35.015-.7.037-1.046.085-.26.036-.534.128-.616-.228-.078-.337-.017-.674.373-.764a6.959,6.959,0,0,1,4.5.184,1.945,1.945,0,0,1,1.053,1.407,9.327,9.327,0,0,1-.034,4.884,2.347,2.347,0,0,1-1.81,1.772,9,9,0,0,1-3.605-.032c-.415-.076-.51-.312-.5-.666.017-.529.393-.366.693-.361.766.011,1.532.029,2.3.02,1.4-.016,1.882-.505,1.89-1.9,0-.414,0-.828,0-1.241" transform="translate(-822.039 -59.619)" fill="#015232"/>
    <path id="Path_77489" data-name="Path 77489" d="M1075.552,78.945c0,.921-.025,1.843.011,2.762.021.536-.148.718-.7.714s-.623-.244-.619-.7c.017-1.746.01-3.493.005-5.239,0-1.075-.379-1.493-1.478-1.53-.92-.031-1.844.01-2.765.052-.258.012-.522.15-.554-.257-.025-.321-.054-.652.389-.737a7.938,7.938,0,0,1,4.323.1,2.058,2.058,0,0,1,1.383,2.067c.019.92,0,1.842,0,2.762" transform="translate(-864.458 -59.625)" fill="#035333"/>
    <path id="Path_77490" data-name="Path 77490" d="M585.856,79.059c0-.858.011-1.716,0-2.573-.017-1.053-.429-1.5-1.5-1.539-.921-.031-1.845.013-2.767.051-.258.011-.535.125-.6-.238-.063-.334-.013-.656.4-.741a7.787,7.787,0,0,1,4.415.111,1.86,1.86,0,0,1,1.259,1.642c.225,2.027.044,4.061.1,6.09.015.5-.3.525-.693.544-.444.021-.633-.11-.619-.582.027-.921.008-1.842.008-2.764" transform="translate(-469.608 -59.617)" fill="#035333"/>
    <path id="Path_77491" data-name="Path 77491" d="M684.555,169.464c0,.952-.034,1.906.011,2.856.038.793-.4.867-1.021.85-.574-.015-1.057.03-1.036-.813q.073-2.9,0-5.807c-.022-.872.529-.774,1.064-.791s1.03-.04.993.754c-.045.982-.011,1.967-.011,2.951" transform="translate(-551.69 -133.983)" fill="#045434"/>
    <path id="Path_77492" data-name="Path 77492" d="M872.1,78.868c0,.984-.019,1.969.008,2.953.013.471-.175.59-.616.587s-.631-.113-.626-.586c.019-1.715.013-3.429.005-5.144-.006-1.318-.378-1.716-1.688-1.739-.858-.016-1.717.022-2.574.062-.262.012-.526.115-.569-.271-.036-.333-.019-.645.411-.727a7.8,7.8,0,0,1,4.319.112A1.9,1.9,0,0,1,872.1,76.01c0,.953,0,1.905,0,2.858Z" transform="translate(-700.036 -59.618)" fill="#025232"/>
    <path id="Path_77493" data-name="Path 77493" d="M610.357,169.393c0-.955.031-1.911-.009-2.864-.034-.8.5-.753,1.012-.76s1.052-.091,1.043.717c-.021,1.973-.015,3.947,0,5.92,0,.927-.658.722-1.209.768-.623.051-.861-.2-.841-.821.032-.986.008-1.973.009-2.96" transform="translate(-493.36 -133.991)" fill="#015232"/>
    <path id="Path_77494" data-name="Path 77494" d="M852.516,169.369c0,1.016-.023,2.034.007,3.049.025.881-.583.715-1.111.742-.552.028-.909-.063-.9-.757q.048-2.953,0-5.908c-.015-.819.523-.717,1.022-.739.536-.024,1.029-.039.991.754-.046.951-.011,1.905-.011,2.858" transform="translate(-687.495 -133.98)" fill="#015232"/>
    <path id="Path_77495" data-name="Path 77495" d="M1103.221,169.461c0,.984-.033,1.969.01,2.951.035.805-.477.736-1,.743-.544.007-1,.029-.988-.759q.056-2.95,0-5.9c-.015-.9.606-.7,1.11-.743.549-.045.916.062.881.76-.049.982-.012,1.967-.012,2.951" transform="translate(-890.163 -133.973)" fill="#015232"/>
    <path id="Path_77496" data-name="Path 77496" d="M976.517,74.188c.573,0,1.146.005,1.719,0,.293,0,.5.076.512.41a.53.53,0,0,1-.419.627c-1.623.521-2.023,1.262-1.691,2.932.265,1.332.5,2.671.729,4.009.039.224.178.578-.244.559-.33-.016-.854.278-.959-.292a22.43,22.43,0,0,1-.728-5.347c.007-.122.09-.24.1-.363.035-.482.641-.929.4-1.295s-.878-.109-1.339-.126c-.376-.014-.388-.221-.392-.5,0-.352.034-.63.5-.617.6.018,1.209,0,1.814,0" transform="translate(-787.478 -59.965)" fill="#025333"/>
    <path id="Path_77497" data-name="Path 77497" d="M469.551,80.276q0,2.625,0,5.249c0,.406.1.811-.582.811-.611,0-.656-.278-.655-.754q.017-5.344,0-10.689c0-.466.036-.776.651-.779.679,0,.584.408.584.818q0,2.672,0,5.345" transform="translate(-378.552 -59.908)" fill="#015232"/>
    <path id="Path_77498" data-name="Path 77498" d="M190.159,95.708c-.593-.165-.733.219-.814.716-.133.812-.275,1.624-.454,2.426a1.126,1.126,0,0,1-1.2.889c-.267.01-.591-.039-.6-.328-.007-.262-.111-.7.343-.765.49-.067.483-.422.544-.763a13.947,13.947,0,0,0,.345-1.963c.034-1.023.554-1.179,1.455-1.161,2.735.054,2.805.1,2.292,2.841a11.99,11.99,0,0,0-.258,1.4c-.042.647-.477.6-.88.534-.529-.083-.243-.48-.209-.744.094-.723.2-1.445.34-2.161.142-.739-.165-1.014-.907-.922" transform="translate(-151.221 -76.596)" fill="#179743"/>
    <path id="Path_77499" data-name="Path 77499" d="M779.93,78.466c0-1.207.017-2.414-.008-3.621-.011-.513.125-.745.694-.738s.6.288.6.722c-.012,2.382-.017,4.764,0,7.146,0,.517-.119.73-.686.725s-.612-.274-.607-.71c.014-1.175.005-2.35,0-3.525" transform="translate(-630.432 -59.903)" fill="#075637"/>
    <path id="Path_77500" data-name="Path 77500" d="M219.516,98.559a24.858,24.858,0,0,1-1.88-3.724c1.386-.589,1.284.841,1.877,1.34.686-.365.506-1.829,1.848-1.371a6.744,6.744,0,0,1-.95,1.783,1.151,1.151,0,0,0-.035,1.366c.688,1.176.434,1.545-.925,1.545-.7,0-1.4.01-2.1-.006-.217,0-.561.13-.546-.3.012-.336.077-.638.525-.633.688.008,1.377,0,2.187,0" transform="translate(-175.248 -76.544)" fill="#189743"/>
    <path id="Path_77501" data-name="Path 77501" d="M258.975,98.306c.235.02.361.024.484.043.225.036.568-.076.487.367-.057.31-.067.6-.548.586-1.02-.04-2.043-.007-3.064-.016-.194,0-.5.09-.445-.289.039-.266,0-.61.418-.637.223-.014.447-.01.67-.012a1.786,1.786,0,0,0,1.719-2.326c-.273-.854-1.045-.508-1.635-.588-.2-.027-.5.116-.567-.184a1.055,1.055,0,0,1,.12-.54.384.384,0,0,1,.205-.168,3.684,3.684,0,0,1,2.887.54,2.63,2.63,0,0,1-.449,2.9c-.062.068-.121.139-.282.324" transform="translate(-206.837 -76.336)" fill="#189743"/>
    <path id="Path_77502" data-name="Path 77502" d="M288.973,94.583c-.176,1.047-.313,2.019-.509,2.98a2.1,2.1,0,0,1-1.859,1.875c-.2-.006-.5.034-.552-.239s.025-.717.286-.725c1-.029.934-.777,1.058-1.4.317-1.611.311-1.576-1.277-1.637-.415-.016-1.186.435-1.237-.333-.063-.931.793-.461,1.229-.495.943-.072,1.9-.022,2.861-.022" transform="translate(-230.276 -76.4)" fill="#199744"/>
    <path id="Path_77503" data-name="Path 77503" d="M318.3,94.885c.36.125.494-.21.72-.355a1.619,1.619,0,0,1,1.631-.16c.571.265.523.8.532,1.314a6.4,6.4,0,0,1-.59,2.571,1.691,1.691,0,0,1-1.194,1.009c-.309.08-.684.048-.733-.365-.029-.249-.107-.536.4-.655.732-.172,1.326-2.387.844-2.936-.377-.43-.816-.128-1.222.032-.281-.024-.687.058-.386-.456" transform="translate(-257.207 -76.159)" fill="#189744"/>
    <path id="Path_77504" data-name="Path 77504" d="M692.994,76.532c0,.571-.022,1.143.007,1.713.025.483-.044.773-.649.756-.55-.016-.708-.216-.693-.741.032-1.141.031-2.285,0-3.426-.014-.55.21-.7.732-.715.551-.011.628.252.608.7-.025.57-.006,1.142-.006,1.713" transform="translate(-559.086 -59.912)" fill="#065536"/>
    <path id="Path_77505" data-name="Path 77505" d="M498.589,76.48c0-.541.027-1.083-.008-1.621-.034-.518.121-.742.685-.743.582,0,.681.26.669.76q-.041,1.716,0,3.433c.012.485-.133.68-.641.685-.524,0-.757-.141-.716-.7.044-.6.01-1.208.01-1.811" transform="translate(-403.012 -59.91)" fill="#045435"/>
    <path id="Path_77506" data-name="Path 77506" d="M311.812,95.368c-.119.361.317.254.386.456a7.5,7.5,0,0,0-.813,2.905c-.048.356.046.876-.61.875-.445,0-.7-.016-.578-.61.251-1.21.423-2.436.6-3.66.048-.332.126-.515.512-.518.416,0,.608.12.5.552" transform="translate(-250.717 -76.642)" fill="#189743"/>
    <path id="Path_77507" data-name="Path 77507" d="M245.533,95.66c-.2,1.143-.44,2.321-.616,3.508-.087.589-.5.353-.794.382-.485.048-.38-.293-.332-.57.206-1.182.425-2.363.621-3.547.066-.4.1-.708.664-.66.685.059.342.537.456.887" transform="translate(-197.028 -76.603)" fill="#199744"/>
    <path id="Path_77508" data-name="Path 77508" d="M280.52,110.3c.186-1.044.4-2.168.583-3.3.1-.583.531-.31.827-.345.421-.05.348.273.308.516-.186,1.128-.383,2.253-.578,3.38-.083.477-.44.465-.806.452-.481-.017-.334-.356-.334-.707" transform="translate(-226.735 -86.187)" fill="#1a9845"/>
    <path id="Path_77509" data-name="Path 77509" d="M388.905,125.393V100.65h.1v24.743h-.1" transform="translate(-314.363 -81.358)" fill="#b0b0b0"/>
    <path id="Path_77510" data-name="Path 77510" d="M1311.469,22.408c-3.776,10.858-12.722,9.43-22.147,9.4-.626.006-.882-.1-.878-.813.032-6.15-.015-12.3.035-18.45-.021-6.691,5.225-11.464,11.492-12.525,3.609,0,7.219.016,10.827-.017.572-.005.689.116.687.687-.025,7.24-.016,14.481-.016,21.722" transform="translate(-1041.486 0)" fill="#13993a"/>
    <path id="Path_77511" data-name="Path 77511" d="M1310.267,192.834l-13.854-.02a8.792,8.792,0,0,1-7.575-6.244,7.032,7.032,0,0,1-.344-2.154c-.024-2.324.008-4.649-.032-6.973-.01-.608.183-.736.756-.733,4.209.023,8.418-.023,12.627.023a8.656,8.656,0,0,1,8.5,8.57c0,2.51.124,5.023-.078,7.532" transform="translate(-1041.5 -142.839)" fill="#db2d34"/>
  </g>
</svg>
