<svg id="Group_118461" data-name="Group 118461" xmlns="http://www.w3.org/2000/svg" xmlns:xlink="http://www.w3.org/1999/xlink" width="173" height="32" viewBox="0 0 173 32">
  <defs>
    <clipPath id="clip-path">
      <rect id="Rectangle_10344" data-name="Rectangle 10344" width="173" height="32" fill="none"/>
    </clipPath>
  </defs>
  <g id="Group_118460" data-name="Group 118460" clip-path="url(#clip-path)">
    <path id="Path_77463" data-name="Path 77463" d="M1199.942,56.361q0,2.231,0,4.463c0,.217.056.463-.311.451a46.527,46.527,0,0,1-5.756-.128,5.633,5.633,0,0,1-4.6-5.115c-.091-2.972-.043-5.949-.056-8.924,0-.21-.016-.418.3-.408a43.674,43.674,0,0,1,5.815.135,5.686,5.686,0,0,1,4.612,5.49c.007,1.345,0,2.69,0,4.035" transform="translate(-1043.164 -40.942)" fill="#c7d31a"/>
    <path id="Path_77464" data-name="Path 77464" d="M1205.153,183.291c-.858,0-1.716-.015-2.573.007-.382.01-.547-.081-.532-.5.036-.976-.02-1.956.044-2.929a3.555,3.555,0,0,1,3.415-3.295c1.755-.048,3.513,0,5.269-.022.373,0,.435.146.428.467-.017.9,0,1.791-.007,2.687a3.644,3.644,0,0,1-3.533,3.583c-.837.021-1.675,0-2.512,0" transform="translate(-1054.421 -154.89)" fill="#f1852d"/>
    <path id="Path_77465" data-name="Path 77465" d="M5.066,152.584c.552,0,1.1-.023,1.655.005a1.261,1.261,0,0,1,1.357,1.388,8.326,8.326,0,0,1-.3,2.046c-.284,1.475-.616,2.94-.9,4.414-.054.278-.143.38-.424.364-.488-.027-1.143.161-1.422-.086-.312-.275.081-.883.166-1.342.233-1.256.511-2.5.766-3.757.185-.909-.4-1.42-1.286-1.137-.272.087-.227.316-.268.495-.3,1.326-.55,2.664-.89,3.979-.22.852-.562,1.671-1.585,1.895a5.594,5.594,0,0,1-1.764-.071c-.164-.016-.193-.113-.161-.256q.111-.5.215-1.011c.035-.169.133-.206.3-.219.917-.072,1.1-.209,1.3-1.107.257-1.128.474-2.265.709-3.4.123-.6.283-1.186.361-1.787.051-.394.244-.446.573-.435.531.019,1.063.005,1.594.005v.014" transform="translate(0 -133.846)" fill="#159641"/>
    <path id="Path_77466" data-name="Path 77466" d="M789.751,173.019c-.038-.936-.011-1.873-.011-2.811,0-.916.011-1.833,0-2.749a1.7,1.7,0,0,0-1.571-1.848,24.2,24.2,0,0,0-5.136.021c-.435.02-.4.382-.4.689,0,.267-.028.577.388.523s.345.216.345.455c0,1.914.011,3.829-.009,5.743,0,.471.133.648.626.642,1.7-.026,3.393-.02,5.089,0,.483,0,.7-.13.683-.661m-1.712-.567c-.981-.01-1.964-.016-2.945,0-.348.006-.4-.152-.4-.444.013-.816,0-1.63,0-2.446,0-.794.015-1.59-.007-2.384-.01-.346.1-.472.448-.459a15.292,15.292,0,0,1,2.507.092.778.778,0,0,1,.733.82c.006,1.487,0,2.975.012,4.462,0,.265-.095.359-.357.357" transform="translate(-686.511 -145.171)" fill="#015232"/>
    <path id="Path_77467" data-name="Path 77467" d="M1032.443,170.228c0,.979-.008,1.957,0,2.936,0,.4-.123.6-.568.579-.633-.03-1.268-.021-1.9,0-.473.013-.455-.285-.45-.609s-.048-.632.44-.614c.363.013.853.111,1.06-.076.284-.258.093-.767.1-1.167.015-1.284-.009-2.569.014-3.853.007-.394-.046-.618-.514-.556-.415.056-.455-.243-.453-.552,0-.291-.018-.6.4-.628a22.951,22.951,0,0,1,4.836-.015,1.682,1.682,0,0,1,1.61,1.757c.053,1.955.033,3.913.047,5.869,0,.582-.428.407-.744.44-.374.04-.555-.071-.55-.5.021-1.692.012-3.384.007-5.076,0-1.026-.256-1.309-1.292-1.358-.649-.031-1.459-.265-1.906.087-.4.319-.1,1.146-.128,1.748-.024.529-.005,1.06-.005,1.59" transform="translate(-903.087 -145.232)" fill="#015232"/>
    <path id="Path_77468" data-name="Path 77468" d="M234.815,196.187a.877.877,0,0,1-.68-.4c-.5-.594-1.018-1.169-1.5-1.778a.9.9,0,0,0-.836-.372c-.551.027-1.1-.008-1.656.012-.373.013-.48-.143-.394-.48,0-.02.016-.038.02-.057.337-1.5.337-1.5,1.893-1.5a.354.354,0,0,0,.061,0,2.488,2.488,0,0,1,2.722,1.255c.462.707.6.73,1.164.129a4.562,4.562,0,0,1,4.017-1.406c1.37.119,1.209-.173.954,1.289-.106.6-.356.863-.971.763a2.585,2.585,0,0,0-2.409.851,20.98,20.98,0,0,1-1.68,1.419,1.027,1.027,0,0,1-.71.265" transform="translate(-201.511 -168.068)" fill="#159641"/>
    <path id="Path_77469" data-name="Path 77469" d="M517.461,166.717a2.28,2.28,0,0,0-1.818-1.905,5.864,5.864,0,0,0-2.428-.049A2.454,2.454,0,0,0,511,167a11.909,11.909,0,0,0,0,3.647,2.475,2.475,0,0,0,1.937,2.3,5.959,5.959,0,0,0,1.7.151,2.716,2.716,0,0,0,2.737-2.091,8.53,8.53,0,0,0,.257-2.246,12.755,12.755,0,0,0-.165-2.05m-1.283,3.922a1.54,1.54,0,0,1-1.6,1.24c-.122,0-.244,0-.367,0-1.394,0-1.926-.488-2.014-1.873-.025-.386,0-.774,0-1.315a5.918,5.918,0,0,1,.107-1.607,2.36,2.36,0,0,1,.136-.466c.57-1.016,1.557-.7,2.419-.708a1.186,1.186,0,0,1,1.3.981,8.288,8.288,0,0,1,.022,3.748" transform="translate(-448.116 -144.457)" fill="#015232"/>
    <path id="Path_77470" data-name="Path 77470" d="M246.245,143.813a2.471,2.471,0,0,1-2.716-1.276c-.456-.7-.6-.726-1.168-.128a4.487,4.487,0,0,1-3.961,1.4c-1.249-.117-1.215-.016-1-1.283.1-.6.347-.829.922-.735a2.706,2.706,0,0,0,2.471-.883,19.664,19.664,0,0,1,1.688-1.414.878.878,0,0,1,1.341.112c.526.6,1.049,1.2,1.537,1.824a.863.863,0,0,0,.783.363c.552-.014,1.1.009,1.657-.008.4-.012.509.154.407.523-.5,1.811.059,1.471-1.96,1.509" transform="translate(-208.143 -122.149)" fill="#1c9cd8"/>
    <path id="Path_77471" data-name="Path 77471" d="M944.545,169.6c0-1.14.008-2.281,0-3.421,0-.335.085-.515.449-.589a11.857,11.857,0,0,1,4.559-.073A1.651,1.651,0,0,1,950.9,167.3c.038,1.934.008,3.869.021,5.8,0,.533-.363.418-.678.445-.417.037-.659-.068-.655-.551.014-1.69.006-3.38.005-5.071,0-1.047-.193-1.244-1.264-1.358-.675-.072-1.347.019-2.019.013-.437,0-.431.229-.429.541.008,1.914-.016,3.829.016,5.742.009.542-.156.694-.691.7-.566,0-.69-.221-.676-.729.031-1.078.009-2.158.009-3.238" transform="translate(-828.534 -145.046)" fill="#015232"/>
    <path id="Path_77472" data-name="Path 77472" d="M176.455,160.835c-.49-.063-1.176.246-1.433-.115-.194-.272.163-.91.223-1.391.043-.346.2-.441.518-.411.243.023.49.005.735,0a1.553,1.553,0,0,0,1.8-1.28,6.918,6.918,0,0,0,.375-2.028c.038-.789-.243-1.068-1.039-1.1a9.462,9.462,0,0,0-.98,0c-.355.025-.43-.134-.345-.436.006-.02.015-.038.019-.058.3-1.411.3-1.411,1.78-1.411h.613c1.273,0,1.787.37,1.91,1.619a8.58,8.58,0,0,1-1.351,5.577,2.648,2.648,0,0,1-2.828,1.024" transform="translate(-153.477 -133.891)" fill="#159641"/>
    <path id="Path_77473" data-name="Path 77473" d="M98.267,149.321c-1.1,0-1.107,0-.778-.89.565-1.522,1.142-3.04,1.716-4.56.261-.691.125-.877-.628-.861-.143,0-.286.007-.429,0a1.353,1.353,0,0,1-1.467-1.745,8.479,8.479,0,0,0,.226-1.5c-.007-.28.185-.294.371-.264.5.08,1.07-.234,1.485.17.119.116-.014.506-.056.766-.07.44.091.662.553.65.265-.007.531.006.8.008.938.008,1.338.386,1.356,1.326a3.931,3.931,0,0,1-.248,1.434c-.573,1.562-1.173,3.115-1.7,4.692-.231.687-.615.934-1.193.775" transform="translate(-84.78 -122.349)" fill="#159641"/>
    <path id="Path_77474" data-name="Path 77474" d="M142.02,149.165c-1.1,0-1.092,0-.733-.945q.851-2.248,1.685-4.5c.262-.708.14-.863-.62-.865a7.822,7.822,0,0,1-.914-.059,1.033,1.033,0,0,1-.945-1.025,4.89,4.89,0,0,1,.282-2.217c.183-.528.9-.11,1.368-.2.143-.029.406-.114.426.182a2.6,2.6,0,0,1-.057.544c-.1.711,0,.84.7.853l.245,0c1.562.031,2.136.764,1.636,2.276-.63,1.906-1.354,3.781-2.054,5.664-.207.556-.721.169-1.021.293" transform="translate(-123.211 -122.193)" fill="#159641"/>
    <path id="Path_77475" data-name="Path 77475" d="M1121.014,173.364c-.879,0-1.759-.022-2.637.008-.547.018-.505-.321-.521-.679s.071-.561.5-.551c1.124.026,2.249-.007,3.373.017.392.008.528-.091.52-.5-.026-1.385-.006-2.771-.011-4.156,0-.686-.29-1.035-.971-1.074a12.179,12.179,0,0,0-2.63.059c-.27.043-.531.07-.555-.267-.023-.315-.2-.783.291-.87a8.713,8.713,0,0,1,3.889-.012c.861.239,1.272,1.028,1.279,2.2.009,1.385,0,2.771,0,4.156,0,.256-.023.482.365.464.611-.028.356.46.4.752.051.347-.143.462-.474.458-.94-.011-1.881,0-2.821,0" transform="translate(-980.568 -144.861)" fill="#015332"/>
    <path id="Path_77476" data-name="Path 77476" d="M702.631,173.37c-.9,0-1.8-.021-2.7.008-.582.019-.448-.364-.479-.695-.036-.382.068-.546.495-.536,1.145.027,2.291,0,3.436.017.375.007.494-.106.489-.483-.02-1.365,0-2.731-.012-4.1-.007-.741-.341-1.122-1.051-1.157a13.032,13.032,0,0,0-2.571.057c-.258.038-.538.115-.536-.258,0-.308-.225-.787.275-.876a8.773,8.773,0,0,1,3.831-.019,1.9,1.9,0,0,1,1.3,2.059c.012,1.426.006,2.853,0,4.28,0,.278-.033.522.391.5.592-.037.312.439.36.7.054.3-.024.511-.409.505-.941-.015-1.882,0-2.822,0" transform="translate(-613.546 -144.867)" fill="#015232"/>
    <path id="Path_77477" data-name="Path 77477" d="M870.559,147.26c.573,0,1.145,0,1.718,0,.629,0,.767.174.577.783-.212.676-.464,1.34-.7,2.01-.553,1.589-1.1,3.18-1.658,4.767a.966.966,0,0,1-1.3.578c-.308-.126-.156-.338-.1-.506.59-1.682,1.191-3.36,1.787-5.04.068-.191.124-.387.187-.579.263-.792.263-.792-.6-.792-1,0-2-.015-3.006.007-.391.008-.556-.108-.547-.514.018-.917.021-1.834,0-2.751-.014-.553.318-.541.72-.555.451-.016.633.135.609.594-.028.528.011,1.06-.013,1.589-.015.329.108.422.423.412.633-.019,1.268-.006,1.9-.006" transform="translate(-760.451 -126.921)" fill="#015232"/>
    <path id="Path_77478" data-name="Path 77478" d="M629.169,148.5c-.552,0-1.106-.018-1.657.006-.361.016-.52-.084-.512-.473.02-.938.027-1.876,0-2.814-.015-.52.273-.529.662-.531.406,0,.677.054.647.558s.017,1.021-.014,1.528c-.024.389.081.522.5.512,1.186-.03,2.374-.013,3.56-.009.62,0,.781.2.58.784-.615,1.782-1.248,3.557-1.874,5.335-.168.478-.341.954-.505,1.432a.956.956,0,0,1-1.288.586c-.344-.169-.126-.443-.06-.636.437-1.286.9-2.562,1.357-3.842.238-.669.456-1.345.718-2,.15-.378.034-.452-.327-.44-.593.021-1.187.006-1.78.006" transform="translate(-549.995 -126.94)" fill="#015232"/>
    <path id="Path_77479" data-name="Path 77479" d="M575.028,170.225c0,1.131-.016,2.089.007,3.047.01.428-.145.579-.57.566-.8-.023-1.6-.033-2.393,0-.5.022-.555-.211-.563-.625-.009-.444.116-.639.585-.6.427.031.859-.006,1.288.011.261.01.359-.07.357-.343-.01-1.569.009-3.139-.013-4.708-.008-.605-.4-.8-1.279-.724-.639.057-.819-.151-.677-.76a.348.348,0,0,1,.264-.3,3.141,3.141,0,0,1,2.045.065,1.567,1.567,0,0,1,.89,1.366c.109,1.058.029,2.118.056,3" transform="translate(-501.322 -145.328)" fill="#025233"/>
    <path id="Path_77480" data-name="Path 77480" d="M469.275,171.433c0-1.712.017-3.424-.011-5.136-.008-.511.2-.612.653-.614s.646.109.643.617q-.033,5.166,0,10.333c0,.529-.215.586-.653.588s-.656-.065-.646-.591c.035-1.732.013-3.464.013-5.2" transform="translate(-411.631 -145.356)" fill="#015232"/>
    <path id="Path_77481" data-name="Path 77481" d="M1122.734,76.8c0-.469-.016-.938,0-1.406a1.227,1.227,0,0,0-.375-1.1c-.251-.213-.168-.383.061-.592.249-.227.424-.2.6.036.239.316.4.349.808.11a2.814,2.814,0,0,1,2.756,0,1.305,1.305,0,0,1,.644,1.24c.014.774.037,1.55,0,2.322a1.792,1.792,0,0,1-2.55,1.607c-.232-.09-.228-.249-.225-.438.005-.276.179-.262.38-.247a4.126,4.126,0,0,0,.672,0c.677-.062.9-.3.909-.968.01-.693,0-1.386,0-2.078a.817.817,0,0,0-.713-.912,3.246,3.246,0,0,0-.541-.085c-1.539-.053-1.612.019-1.612,1.531,0,.917-.008,1.834.005,2.751,0,.316-.059.479-.434.489-.41.011-.408-.2-.4-.493.011-.591,0-1.182,0-1.773" transform="translate(-984.389 -64.479)" fill="#025333"/>
    <path id="Path_77482" data-name="Path 77482" d="M814.3,76.472c0,.407.018.816,0,1.222a1.546,1.546,0,0,1-1.367,1.555,9.3,9.3,0,0,1-2.625-.076c-.285-.049-.308-.182-.309-.407,0-.305.208-.236.382-.235.734,0,1.469.039,2.2.005.687-.032.867-.248.872-.9.006-.754.01-1.508,0-2.262-.009-.595-.255-.844-.86-.868-.469-.019-.941.009-1.41-.007-.28-.01-.432.068-.4.374a2.738,2.738,0,0,1,0,.305c0,1,0,1.006,1.018,1.038.229.007.438-.033.439.325s-.193.339-.43.333c-.571-.016-1.3.183-1.669-.1-.392-.3-.113-1.066-.125-1.627-.024-1.143-.01-1.163,1.105-1.325a4.95,4.95,0,0,1,1.947.044,1.439,1.439,0,0,1,1.233,1.507c.015.366,0,.733,0,1.1Z" transform="translate(-710.464 -64.699)" fill="#015232"/>
    <path id="Path_77483" data-name="Path 77483" d="M490.542,169.8c0-1.16.026-2.321-.012-3.479-.018-.554.279-.578.685-.577.39,0,.653.043.649.555q-.034,3.54,0,7.081c.005.585-.354.522-.728.537s-.614-.035-.6-.516c.029-1.2.01-2.4.01-3.6" transform="translate(-430.287 -145.409)" fill="#035333"/>
    <path id="Path_77484" data-name="Path 77484" d="M724.6,79.48a1.021,1.021,0,0,1-1.329-.449c-.485-.7-1.035-1.361-1.556-2.038-.361-.469-.483-.47-.67.1-.219.673-.362,1.371-.534,2.059-.044.178-.063.35-.3.4-.483.114-.632-.025-.517-.507a4.4,4.4,0,0,1,1.2-2.666c.2-.166.1-.3-.027-.465-.364-.464-.714-.939-1.07-1.41-.071-.094-.188-.176-.134-.316s.2-.1.318-.109a.713.713,0,0,1,.727.33c.481.682,1.013,1.328,1.5,2.008.249.35.4.307.59-.037a5.992,5.992,0,0,0,.545-1.859c.084-.453.361-.5.707-.434.43.087.156.408.127.59a3.222,3.222,0,0,1-1.11,2.168c-.249.194-.226.368-.038.6.52.647,1.019,1.311,1.568,2.024" transform="translate(-631.271 -64.982)" fill="#025332"/>
    <path id="Path_77485" data-name="Path 77485" d="M923.4,169.765c0-1.161.019-2.323-.009-3.484-.011-.454.182-.569.582-.545.37.021.731-.042.726.544q-.035,3.545,0,7.09c0,.583-.353.519-.729.539-.4.021-.59-.077-.577-.538.032-1.2.011-2.4.011-3.606" transform="translate(-809.989 -145.4)" fill="#015232"/>
    <path id="Path_77486" data-name="Path 77486" d="M528.569,79.234c-.612,0-1.225-.014-1.837.006-.329.011-.349-.162-.357-.416-.009-.286.125-.334.371-.331.776.011,1.552-.01,2.327.011.316.008.42-.079.413-.4-.022-.915-.006-1.831-.008-2.746,0-.646-.2-.867-.872-.885-.57-.016-1.142.016-1.712.037-.157.006-.351.1-.357-.162,0-.182-.1-.43.208-.487a6.134,6.134,0,0,1,2.486-.053,1.2,1.2,0,0,1,1.082,1.333c.041.934.015,1.871.026,2.806,0,.256-.125.576.367.58.245,0,.114.3.135.458.031.234-.132.255-.312.254-.653,0-1.306,0-1.96,0" transform="translate(-461.729 -64.655)" fill="#015232"/>
    <path id="Path_77487" data-name="Path 77487" d="M71.206,152.519c.929,0,.98.007.845.916-.175,1.182-.44,2.351-.667,3.526-.033.169-.092.3-.312.3-.449-.011-.9,0-1.348,0-.339,0-.274-.228-.236-.425.12-.617.226-1.238.384-1.845a8.744,8.744,0,0,0,.3-1.921c.017-.543.262-.585.67-.544.121.012.245,0,.367,0" transform="translate(-60.927 -133.796)" fill="#169741"/>
    <path id="Path_77488" data-name="Path 77488" d="M1020.094,76.535c.046-1.464.191-2.118-2.048-2.019-.224.01-.449.024-.67.055-.166.023-.342.082-.395-.146s-.011-.431.239-.489a4.463,4.463,0,0,1,2.883.118,1.245,1.245,0,0,1,.675.9,5.963,5.963,0,0,1-.022,3.126,1.5,1.5,0,0,1-1.159,1.134,5.772,5.772,0,0,1-2.31-.021c-.266-.049-.327-.2-.319-.426.011-.339.252-.234.444-.231.491.007.981.018,1.472.013.9-.01,1.206-.323,1.211-1.219,0-.265,0-.53,0-.795" transform="translate(-892.067 -64.707)" fill="#015232"/>
    <path id="Path_77489" data-name="Path 77489" d="M1073.355,77.08c0,.589-.016,1.179.007,1.768.013.343-.095.46-.448.457s-.4-.156-.4-.447c.011-1.118.007-2.236,0-3.353,0-.688-.243-.956-.947-.979-.59-.02-1.182.006-1.772.033-.165.008-.335.1-.355-.164-.016-.205-.035-.417.249-.472a5.091,5.091,0,0,1,2.77.066,1.317,1.317,0,0,1,.886,1.323c.012.589,0,1.179,0,1.768" transform="translate(-938.099 -64.714)" fill="#035333"/>
    <path id="Path_77490" data-name="Path 77490" d="M584.1,77.149c0-.549.007-1.1,0-1.647-.011-.674-.275-.962-.96-.985-.59-.02-1.182.008-1.773.032-.165.007-.343.08-.387-.152-.041-.213-.008-.42.256-.474a5,5,0,0,1,2.829.071,1.191,1.191,0,0,1,.807,1.051c.144,1.3.028,2.6.066,3.9.009.322-.2.336-.444.348-.285.013-.406-.071-.4-.373.018-.589.005-1.179.005-1.769" transform="translate(-509.613 -64.705)" fill="#035333"/>
    <path id="Path_77491" data-name="Path 77491" d="M683.819,168.129c0,.609-.022,1.22.007,1.828.024.507-.257.555-.654.544-.368-.01-.678.02-.664-.521q.047-1.858,0-3.717c-.014-.558.339-.5.682-.506s.66-.026.636.483c-.029.628-.007,1.259-.007,1.889" transform="translate(-598.688 -145.418)" fill="#045434"/>
    <path id="Path_77492" data-name="Path 77492" d="M869.92,77.028c0,.63-.012,1.26.005,1.89.008.3-.112.377-.395.376s-.4-.073-.4-.375c.012-1.1.008-2.195,0-3.292,0-.844-.242-1.1-1.082-1.113-.549-.01-1.1.014-1.649.04-.168.008-.337.074-.364-.173-.023-.213-.012-.413.263-.465a5.006,5.006,0,0,1,2.767.072,1.219,1.219,0,0,1,.849,1.213c0,.61,0,1.219,0,1.829Z" transform="translate(-759.671 -64.706)" fill="#025232"/>
    <path id="Path_77493" data-name="Path 77493" d="M610.353,168.086c0-.611.02-1.223-.006-1.833-.022-.512.317-.482.649-.487s.674-.058.668.459c-.014,1.263-.01,2.526,0,3.789,0,.594-.422.462-.775.491-.4.033-.552-.127-.539-.525.02-.631.005-1.263.006-1.894" transform="translate(-535.388 -145.426)" fill="#015232"/>
    <path id="Path_77494" data-name="Path 77494" d="M851.8,168.066c0,.651-.015,1.3,0,1.952.016.564-.373.458-.712.475-.354.018-.582-.04-.575-.485q.031-1.89,0-3.781c-.009-.524.335-.459.655-.473.344-.015.66-.025.635.483-.029.609-.007,1.22-.007,1.83" transform="translate(-746.061 -145.414)" fill="#015232"/>
    <path id="Path_77495" data-name="Path 77495" d="M1102.509,168.122c0,.63-.021,1.26.006,1.889.022.516-.306.471-.643.476s-.643.018-.633-.486q.036-1.888,0-3.778c-.01-.576.388-.449.711-.476.352-.029.587.04.565.486-.031.628-.008,1.259-.008,1.889" transform="translate(-965.994 -145.407)" fill="#015232"/>
    <path id="Path_77496" data-name="Path 77496" d="M975.687,74.186c.367,0,.734,0,1.1,0,.188,0,.318.048.328.262a.339.339,0,0,1-.269.4c-1.04.333-1.3.808-1.083,1.877.169.853.318,1.71.467,2.566.025.143.114.37-.157.357-.212-.01-.547.178-.614-.187a14.34,14.34,0,0,1-.466-3.423c0-.078.058-.154.063-.232.022-.308.411-.594.257-.829s-.562-.07-.858-.08c-.241-.009-.249-.142-.251-.318,0-.225.022-.4.319-.395.387.011.775,0,1.162,0" transform="translate(-854.561 -65.082)" fill="#025333"/>
    <path id="Path_77497" data-name="Path 77497" d="M469.107,78.058q0,1.68,0,3.36c0,.26.064.519-.373.519-.392,0-.42-.178-.419-.483q.011-3.421,0-6.842c0-.3.023-.5.417-.5.435,0,.374.261.374.524q0,1.711,0,3.421" transform="translate(-410.8 -65.02)" fill="#015232"/>
    <path id="Path_77498" data-name="Path 77498" d="M189.052,95.366c-.38-.106-.47.14-.522.458-.085.52-.176,1.039-.291,1.553a.721.721,0,0,1-.767.569c-.171.006-.379-.025-.384-.21,0-.168-.071-.45.22-.49.314-.043.309-.27.349-.488a8.918,8.918,0,0,0,.221-1.256c.022-.655.355-.755.932-.743,1.752.035,1.8.067,1.469,1.818a7.668,7.668,0,0,0-.165.9c-.027.414-.306.382-.564.342-.339-.053-.156-.307-.134-.476.06-.463.129-.925.218-1.383s-.105-.649-.581-.59" transform="translate(-164.103 -83.133)" fill="#179743"/>
    <path id="Path_77499" data-name="Path 77499" d="M779.927,76.9c0-.773.011-1.545-.005-2.317-.007-.328.08-.477.445-.473s.384.184.383.462c-.007,1.525-.011,3.05,0,4.574,0,.331-.076.467-.44.464s-.392-.175-.389-.454c.009-.752,0-1.5,0-2.257" transform="translate(-684.137 -65.016)" fill="#075637"/>
    <path id="Path_77500" data-name="Path 77500" d="M218.541,97.168a15.9,15.9,0,0,1-1.2-2.384c.888-.377.823.538,1.2.858.439-.234.324-1.17,1.184-.877a4.315,4.315,0,0,1-.608,1.141.736.736,0,0,0-.023.875c.441.753.278.989-.593.989-.449,0-.9.007-1.347,0-.139,0-.36.083-.35-.194.007-.215.049-.408.337-.4.441.005.882,0,1.4,0" transform="translate(-190.177 -83.077)" fill="#189743"/>
    <path id="Path_77501" data-name="Path 77501" d="M257.864,96.913c.151.013.231.015.31.028.144.023.364-.048.312.235-.036.2-.043.387-.351.375-.654-.026-1.309,0-1.964-.01-.125,0-.321.058-.285-.185.025-.17,0-.391.268-.408.143-.009.286-.006.429-.007a1.143,1.143,0,0,0,1.1-1.489c-.175-.547-.669-.325-1.048-.376-.129-.017-.318.074-.363-.118a.675.675,0,0,1,.077-.346.246.246,0,0,1,.131-.108,2.362,2.362,0,0,1,1.85.345,1.682,1.682,0,0,1-.288,1.857c-.04.044-.078.089-.181.207" transform="translate(-224.457 -82.851)" fill="#189743"/>
    <path id="Path_77502" data-name="Path 77502" d="M287.5,94.559c-.113.67-.2,1.292-.326,1.907a1.342,1.342,0,0,1-1.191,1.2c-.131,0-.319.022-.354-.153s.016-.459.183-.464c.641-.018.6-.5.678-.9.2-1.031.2-1.009-.818-1.048-.266-.01-.76.279-.793-.213-.04-.6.508-.3.788-.317.6-.046,1.215-.014,1.833-.014" transform="translate(-249.892 -82.92)" fill="#199744"/>
    <path id="Path_77503" data-name="Path 77503" d="M318.264,94.645c.231.08.316-.134.461-.227a1.038,1.038,0,0,1,1.045-.1c.366.17.335.512.341.841a4.09,4.09,0,0,1-.378,1.646,1.083,1.083,0,0,1-.765.646c-.2.051-.439.031-.47-.234-.019-.16-.069-.343.255-.419.469-.11.849-1.528.541-1.88-.242-.275-.523-.082-.783.02-.18-.015-.44.037-.248-.292" transform="translate(-279.117 -82.659)" fill="#189744"/>
    <path id="Path_77504" data-name="Path 77504" d="M692.513,75.663c0,.365-.014.732,0,1.1.016.309-.028.5-.416.484-.352-.01-.454-.138-.444-.475.021-.73.02-1.462,0-2.193-.009-.352.135-.451.469-.458.353-.007.4.161.39.448-.016.365,0,.731,0,1.1" transform="translate(-606.713 -65.025)" fill="#065536"/>
    <path id="Path_77505" data-name="Path 77505" d="M498.584,75.629c0-.346.017-.693,0-1.038s.077-.475.439-.476.437.167.429.487q-.026,1.1,0,2.2c.008.31-.085.435-.411.438s-.485-.091-.459-.45c.028-.385.006-.773.006-1.159" transform="translate(-437.343 -65.023)" fill="#045435"/>
    <path id="Path_77506" data-name="Path 77506" d="M311.221,95.169c-.076.231.2.163.248.292a4.793,4.793,0,0,0-.521,1.86c-.03.228.029.561-.391.56-.285,0-.449-.01-.37-.391.161-.774.271-1.559.385-2.343.031-.213.081-.329.328-.331.267,0,.389.077.322.353" transform="translate(-272.075 -83.183)" fill="#189743"/>
    <path id="Path_77507" data-name="Path 77507" d="M244.892,95.338c-.131.732-.282,1.486-.395,2.245-.056.377-.318.226-.508.244-.31.03-.243-.187-.212-.365.132-.757.272-1.512.4-2.27.042-.253.066-.453.425-.422.439.038.219.344.292.568" transform="translate(-213.813 -83.141)" fill="#199744"/>
    <path id="Path_77508" data-name="Path 77508" d="M280.512,108.975c.119-.668.255-1.388.374-2.11.061-.373.341-.2.53-.221.27-.032.223.174.2.33-.119.722-.245,1.442-.37,2.163-.053.305-.282.3-.516.289-.308-.011-.214-.228-.214-.452" transform="translate(-246.05 -93.542)" fill="#1a9845"/>
    <path id="Path_77509" data-name="Path 77509" d="M388.905,116.487V100.65h.064v15.837h-.064" transform="translate(-341.143 -88.302)" fill="#b0b0b0"/>
    <path id="Path_77510" data-name="Path 77510" d="M1303.2,14.343c-2.419,6.95-8.152,6.036-14.191,6.015-.4,0-.565-.063-.563-.52.021-3.936-.01-7.873.022-11.809-.013-4.283,3.348-7.338,7.364-8.017,2.313,0,4.625.01,6.938-.011.367,0,.441.074.44.439-.016,4.634-.01,9.269-.01,13.9" transform="translate(-1130.208 0)" fill="#13993a"/>
    <path id="Path_77511" data-name="Path 77511" d="M1302.433,187.03l-8.877-.013a5.632,5.632,0,0,1-4.854-4,4.5,4.5,0,0,1-.22-1.379c-.016-1.488.005-2.976-.021-4.463-.007-.389.117-.471.484-.469,2.7.015,5.394-.015,8.091.014a5.543,5.543,0,0,1,5.446,5.486c0,1.607.079,3.215-.05,4.821" transform="translate(-1130.224 -155.03)" fill="#db2d34"/>
  </g>
</svg>
