<svg xmlns="http://www.w3.org/2000/svg" width="212.239" height="56.999" viewBox="0 0 212.239 56.999">
  <g id="Group_16575" data-name="Group 16575" transform="translate(-234.36 -255.329)">
    <g id="Group_16552" data-name="Group 16552" transform="translate(234.36 257.459)">
      <path id="Path_19364" data-name="Path 19364" d="M240.635,262.333c0-1.83-.928-2.837-2.614-2.837h-3.49V261h3.129c.783,0,1.148.425,1.148,1.337v4.79H234.36v1.5h7.357v-1.5h-1.082Z" transform="translate(-234.36 -259.496)" fill="#002575"/>
      <path id="Path_19365" data-name="Path 19365" d="M252.38,259.5h-2.734v1.534h1.271v3.785l1.826-.249v-4.74a.362.362,0,0,0-.363-.329" transform="translate(-241.832 -259.496)" fill="#002575"/>
      <path id="Path_19366" data-name="Path 19366" d="M264.918,262.333c0-1.83-.928-2.837-2.613-2.837h-3.49V261h3.129c.784,0,1.148.425,1.148,1.337v4.79h-4.449v1.5H266v-1.5h-1.082Z" transform="translate(-246.229 -259.496)" fill="#002575"/>
    </g>
    <path id="Path_19367" data-name="Path 19367" d="M283.772,260.6h.757v-1.5h-2.138l-1.6,4.212-3.4-4.629-1.3,1.136,1.413,1.873-2.067,6.517h1.861l1.534-5.05,1.346,2.014,3.323,3.377,1.256-1.255-2.7-2.647Z" transform="translate(-20.075 -1.638)" fill="#002575"/>
    <rect id="Rectangle_2319" data-name="Rectangle 2319" width="3.406" height="1.5" transform="translate(265.362 261.29)" fill="#002575"/>
    <g id="Group_16553" data-name="Group 16553" transform="translate(268.863 255.329)">
      <path id="Path_19368" data-name="Path 19368" d="M309.209,257.977a.49.49,0,0,0-.518-.518h-5.03v-2.13h-1.809v3.63h5.373l-3.538,7.626h1.943l3.564-7.6Z" transform="translate(-301.852 -255.329)" fill="#002575"/>
      <path id="Path_19369" data-name="Path 19369" d="M321.713,259.5h-4.658v7.627h-1.34v1.5h2.768a.39.39,0,0,0,.4-.38V261h2.47c.784,0,1.148.425,1.148,1.337v6.289h1.827v-6.289c0-1.83-.928-2.837-2.614-2.837" transform="translate(-308.628 -257.366)" fill="#002575"/>
      <path id="Path_19370" data-name="Path 19370" d="M346.692,259.5h-2.733v1.534h1.271v3.785l1.826-.249v-4.74a.361.361,0,0,0-.363-.329" transform="translate(-322.434 -257.366)" fill="#002575"/>
    </g>
    <path id="Path_19371" data-name="Path 19371" d="M360.722,260.6h.757v-1.5h-2.137l-1.6,4.212-3.4-4.629-1.3,1.136,1.414,1.873-2.068,6.517h1.861l1.535-5.05,1.345,2.014,3.323,3.377,1.256-1.255-2.7-2.647Z" transform="translate(-57.687 -1.638)" fill="#002575"/>
    <g id="Group_16554" data-name="Group 16554" transform="translate(305.093 257.459)">
      <path id="Path_19372" data-name="Path 19372" d="M375.319,259.5h-2.6V261h1.133v7.626h1.827v-8.8a.336.336,0,0,0-.363-.329" transform="translate(-372.723 -259.496)" fill="#002575"/>
      <path id="Path_19373" data-name="Path 19373" d="M388.818,259.5h-6.3l-.759,4.925a.713.713,0,0,0,.159.574.631.631,0,0,0,.476.226h2.614V263.79h-1.419l.4-2.794h3.382v4.463c0,1.166-.508,1.663-1.7,1.663H381.79v1.5h4.537a2.768,2.768,0,0,0,2.854-2.871v-5.909a.351.351,0,0,0-.363-.347" transform="translate(-377.135 -259.496)" fill="#002575"/>
      <path id="Path_19374" data-name="Path 19374" d="M404.721,259.5h-5.654V261h4.242v7.626h1.826v-8.745a.394.394,0,0,0-.415-.381" transform="translate(-385.6 -259.496)" fill="#002575"/>
      <path id="Path_19375" data-name="Path 19375" d="M419.482,259.5h-4.554V261h4.193c.783,0,1.148.425,1.148,1.337v6.289h1.809v-6.289c0-1.83-.922-2.837-2.6-2.837" transform="translate(-393.352 -259.496)" fill="#002575"/>
    </g>
    <path id="Path_19376" data-name="Path 19376" d="M414.928,272.3h1.826v-5.282l-1.826.228Z" transform="translate(-88.26 -5.712)" fill="#002575"/>
    <path id="Path_19377" data-name="Path 19377" d="M436.277,261h1.151l.876,7.626h1.883L439.157,261h1.437v-1.5h-4.317Z" transform="translate(-98.695 -2.037)" fill="#002575"/>
    <g id="Group_16555" data-name="Group 16555" transform="translate(342.907 257.459)">
      <path id="Path_19378" data-name="Path 19378" d="M452.554,259.5h-5.859V261h4.431v4.463c0,1.166-.507,1.663-1.7,1.663h-2.733v1.5h3.369a2.777,2.777,0,0,0,2.871-2.871v-5.909a.365.365,0,0,0-.381-.347" transform="translate(-446.694 -259.496)" fill="#002575"/>
      <path id="Path_19379" data-name="Path 19379" d="M467.334,259.5H461.68V261h4.243v7.626h1.826v-8.745a.394.394,0,0,0-.415-.381" transform="translate(-454.019 -259.496)" fill="#002575"/>
      <path id="Path_19380" data-name="Path 19380" d="M480.971,259.5h-4.606V261h1.268l-.945,7.626h1.865l.825-7.626h1.605a1.247,1.247,0,0,1,.984.337,2.019,2.019,0,0,1,.582,1.447v4.343h-2.164v1.5h3.549l.415-1.17.009-4.672a3.192,3.192,0,0,0-3.386-3.284" transform="translate(-461.197 -259.496)" fill="#002575"/>
      <path id="Path_19381" data-name="Path 19381" d="M500.105,259.5h-4.554V261h4.193c.784,0,1.149.425,1.149,1.337v6.289H502.7v-6.289c0-1.83-.923-2.837-2.6-2.837" transform="translate(-470.575 -259.496)" fill="#002575"/>
    </g>
    <path id="Path_19382" data-name="Path 19382" d="M495.551,272.3h1.826v-5.282l-1.826.228Z" transform="translate(-127.668 -5.712)" fill="#002575"/>
    <g id="Group_16556" data-name="Group 16556" transform="translate(234.412 272.685)">
      <path id="Path_19383" data-name="Path 19383" d="M333.676,303.75V291.93H332.3v-2.055h3.61a.338.338,0,0,1,.358.328v12.058a14.617,14.617,0,0,0,4.355.923V289.876h2.595v13.339c2.864-.327,4.594-2.143,4.594-3.9v-9.439h2.625v9.408c0,3.633-3.7,6.1-8.442,6.1a23.762,23.762,0,0,1-8.323-1.637m-11.065-4.466V294.49c0-1.667-.9-2.56-2.715-2.56h-4.534v7.354a3.872,3.872,0,0,0,3.789,4.049c2.893,0,3.46-2.442,3.46-4.049m-9.844-.03v-9.379h8.173c2.476,0,4.3,1.667,4.3,4.675v4.7c0,3.067-1.671,6.133-6.085,6.133-4.355,0-6.383-3.067-6.383-6.133m-6.563,5.9V291.93h-1.969v-2.055h4.236c.209,0,.358.119.358.3V305.15Zm-7.458,0V291.93h-7.368v-2.055h9.546a.411.411,0,0,1,.447.387V305.15Zm-10.65.447-5.578-5.657-2.625-3.93-2.774,9.111h-2.655l3.52-11.076-2.386-3.156,1.85-1.608,6.026,8.188,2.893-7.593h3.251v2.055H288.4l-3.132,7.354,4.623,4.526Zm-18.674-6.312V294.49c0-1.667-.9-2.56-2.715-2.56h-4.534v7.354a3.872,3.872,0,0,0,3.788,4.049c2.893,0,3.46-2.442,3.46-4.049m-9.844-.03v-9.379h8.173c2.476,0,4.3,1.667,4.3,4.675v4.7c0,3.067-1.671,6.133-6.086,6.133-4.355,0-6.383-3.067-6.383-6.133M243.35,295.89h2.625v14.024H243.35Zm5.25,9.259v-1.131l5.459-12.088H242.933v-2.055h13.333a.465.465,0,0,1,.477.447V292.2l-5.876,12.951Zm-11.932-6.64v-6.521h-2.207v-2.114h4.475a.357.357,0,0,1,.358.3v7.979Z" transform="translate(-234.461 -289.28)" fill="#002575"/>
    </g>
    <path id="Path_19384" data-name="Path 19384" d="M472.219,293.48l-.835-.328.686-3.9v-2.709h2.715v2.5Zm-4.3,0-.806-.328.716-3.9v-2.709h2.684v2.5Z" transform="translate(-113.77 -15.257)" fill="#002575"/>
    <g id="Group_16557" data-name="Group 16557" transform="translate(295.253 273.281)">
      <path id="Path_19385" data-name="Path 19385" d="M485.632,307.327l-.716-2.263,4.206-1.31-3.55-13.309h2.655l3.192,12.684c1.76-.566,3.46-1.28,3.46-3.662V292.5h-1.671v-2.055h3.908a.389.389,0,0,1,.388.357v8.634a5.54,5.54,0,0,1-3.968,5.181Z" transform="translate(-417.723 -290.445)" fill="#002575"/>
      <path id="Path_19386" data-name="Path 19386" d="M364.217,339.165c0-3.217-1.585-4.989-4.462-4.989h-5.981V336.7h5.355c1.385,0,2.058.806,2.058,2.464v8.627h-7.712v2.525h12.617v-2.525h-1.876Z" transform="translate(-353.476 -311.82)" fill="#0083bf"/>
      <path id="Path_19387" data-name="Path 19387" d="M384.294,334.176h-4.433V336.7h1.965v13.616h3.029v-15.63a.521.521,0,0,0-.562-.511" transform="translate(-366.373 -311.82)" fill="#0083bf"/>
      <path id="Path_19388" data-name="Path 19388" d="M406.268,330.54H397.48v-3.8h-3v6.328h9.356l-6.1,13.549-.03.067h3.217l6.158-13.521.018-1.771a.786.786,0,0,0-.83-.849" transform="translate(-373.519 -308.185)" fill="#0083bf"/>
      <path id="Path_19389" data-name="Path 19389" d="M427.05,334.176h-4.67v2.587h2.2v6.746l2.989-.419.04-.005v-8.4a.568.568,0,0,0-.562-.511" transform="translate(-387.156 -311.82)" fill="#0083bf"/>
      <path id="Path_19390" data-name="Path 19390" d="M447.5,334.176H437.407V336.7h7.682v8.045c0,2.107-.929,3.046-3.011,3.046h-4.671v2.525h5.773a4.818,4.818,0,0,0,4.909-5.05V334.718a.576.576,0,0,0-.592-.542" transform="translate(-394.501 -311.82)" fill="#0083bf"/>
      <path id="Path_19391" data-name="Path 19391" d="M468.345,334.176h-4.67v2.587h2.2v6.746l2.989-.419.04-.005v-8.4a.568.568,0,0,0-.562-.511" transform="translate(-407.34 -311.82)" fill="#0083bf"/>
    </g>
    <path id="Path_19392" data-name="Path 19392" d="M489.623,343.341l3.023-7.323h1.288v-2.526h-3.592l-2.8,7.591-5.892-8.262-.031-.043-2.122,1.9-.032.028,2.431,3.318-3.545,11.513-.019.061h3.079l2.687-9.1,2.4,3.705,5.681,5.944.035.036,2.04-2.1.033-.033Z" transform="translate(-119.249 -37.857)" fill="#0083bf"/>
    <path id="Path_19393" data-name="Path 19393" d="M623.688,289.31H608.3l12.583-12.581-4.3-4.3-15.621,15.62-.011-.012-4.294,4.3.01.011-.01.009,4.294,4.3.011-.01,15.621,15.621,4.3-4.3L608.3,295.386h15.386Z" transform="translate(-177.089 -8.36)" fill="#0083bf"/>
    <path id="Path_19394" data-name="Path 19394" d="M561.49,292.338l-4.3-4.3-.011.011-15.621-15.62-4.295,4.3,12.581,12.581H534.462v6.076h15.386l-12.581,12.581,4.295,4.3,15.621-15.621.011.01,4.3-4.3-.013-.01Z" transform="translate(-146.687 -8.36)" fill="#3dbee3"/>
    <path id="Path_19395" data-name="Path 19395" d="M593.328,333.884l-15.619-15.619.011-.011-4.3-4.3-.012.011-.01-.011-4.3,4.3.01.011L553.5,333.884l4.295,4.3L570.374,325.6v15.385h6.077V325.6l12.58,12.581Z" transform="translate(-155.991 -28.657)" fill="#009fd0"/>
    <g id="Group_16558" data-name="Group 16558" transform="translate(397.524 257.127)">
      <path id="Path_19396" data-name="Path 19396" d="M573.344,284.186,593.155,264.1s-12.145-12.582-19.812,1.2c-7.2-13.781-19.811-1.2-19.811-1.2l19.811,20.086" transform="translate(-553.532 -258.847)" fill="#002575"/>
    </g>
  </g>
</svg>
