<svg baseProfile="basic" width="375" height="335" xmlns="http://www.w3.org/2000/svg"><g transform="translate(52.85 309.5) scale(.311)"><animateTransform attributeName="transform" additive="replace" type="translate" repeatCount="indefinite" dur="2.167s" keyTimes="0;.25;.5;.75;.981;1" values="61.402,343.708;61.416,343.706;61.402,343.708;61.466,343.75;61.396,343.764;61.396,343.764"/><animateTransform attributeName="transform" additive="sum" type="rotate" repeatCount="indefinite" dur="2.167s" keyTimes="0;.25;.5;.75;.981;1" values="0,0,0;-7.98,0,0;0,0,0;8.453,0,0;.769,0,0;.769,0,0"/><animateTransform attributeName="transform" additive="sum" type="scale" repeatCount="indefinite" dur="2.167s" keyTimes="0;1" values=".311,.311;.311,.311"/><animateTransform attributeName="transform" additive="sum" type="translate" repeatCount="indefinite" dur="2.167s" keyTimes="0;.25;.5;.75;.981;1" values="-28.9,-109.5;-28.8,-109.5;-28.9,-109.5;-29.05,-109.7;-29.05,-109.8;-29.05,-109.8"/><path fill="#FFF" d="M-64.05 154.7l-8.55-10.9-31.95 55q-5.85 10.05-5.05 21.55.85 11.5 7.95 20.7 9.55 12.5 25.1 14.3 15.75 1.95 28.05-7.8 9.25-7.1 12.8-18.15 3.55-11.15.35-22.2l-17.8-61-10.9 8.5m12.8 57.2q2.6 8.6-2.1 16.55-4.55 7.6-12.95 9.85-8.6 2.3-16.2-2.1-7.65-4.5-9.9-13.1-2.45-8.6 2.1-16.05l25.1-42.95 13.95 47.8M-62.1-209.75q-21.75-14.35-49.6-17.75-47.65-5.85-85.55 23.65Q-235-174.2-241-126.55q-5.8 47.6 23.85 85.55l65.55 83.9-.9-1.1-36.8-4.55q-13.6-1.65-24.45 6.95-10.7 8.6-12.35 22.2-1.6 13.45 6.8 24.15 8.45 10.85 21.9 12.45l102.7 12.65L88.1-27.25l-122.5-156.7q-12.3-15.65-27.7-25.8z" fill-opacity=".3"/><path fill="#FBC1BA" d="M110.45 49.95v-.05L61.2 56.85l-78.5 61.35 48.3-6.85 1.05-.2 78.4-61.2z" fill-opacity=".3"/><path fill="#F7DAD7" d="M179.8 90.4l-6.95-49.25-62.4 8.8-78.4 61.2-1.05.2L179.8 90.4M108.5-1.15l-20.4-26.1-182.8 142.9 22.1 28.15 8.55 10.9 10.9-8.5 35.85-28 78.5-61.35 44.4-34.7q5.5-4.2 6.3-11 .8-6.8-3.4-12.3z" fill-opacity=".3"/><path fill="#ECECEC" d="M88.1-27.25l20.4 26.1q4.2 5.5 3.4 12.3-.8 6.8-6.3 11l-44.4 34.7 49.25-6.95 31.75-24.95q5.5-4.1 6.35-11.05.8-6.8-3.4-12.15L2.2-181q-21.7-27.9-55.55-38.9-2.1 2.15-4.1 4.4l-4.65 5.75q15.4 10.15 27.7 25.8L88.1-27.25z" fill-opacity=".3"/><path fill="#FEFEFE" d="M100.1-232.2q-38.4-28.85-86.05-22.2-43.65 6.1-71.5 38.9 2-2.25 4.1-4.4 33.85 11 55.55 38.9L145.15 1.75q4.2 5.35 3.4 12.15-.85 6.95-6.35 11.05L110.45 49.9v.05l62.4-8.8L235.4-42q8.1-11 6.15-24.6-2.1-13.65-13.15-21.75-11-8.1-24.6-6.15-13.65 2.1-21.75 13.15L159.8-51.8l-14.65-103.95q-6.65-47.65-45.05-76.45z" fill-opacity=".3"/></g><g transform="translate(296.3 170.65) scale(.311)"><animateTransform attributeName="transform" additive="replace" type="translate" repeatCount="indefinite" dur="2.167s" keyTimes="0;.25;.5;.75;.981;1" values="292.856,215.77;292.902,215.757;292.856,215.77;292.908,215.75;292.911,215.806;292.911,215.806"/><animateTransform attributeName="transform" additive="sum" type="rotate" repeatCount="indefinite" dur="2.167s" keyTimes="0;.25;.5;.75;.981;1" values="0,0,0;8.987,0,0;0,0,0;-5.74,0,0;-.522,0,0;-.522,0,0"/><animateTransform attributeName="transform" additive="sum" type="scale" repeatCount="indefinite" dur="2.167s" keyTimes="0;1" values=".311,.311;.311,.311"/><animateTransform attributeName="transform" additive="sum" type="translate" repeatCount="indefinite" dur="2.167s" keyTimes="0;.25;.5;.75;.981;1" values="12.5,-144.85;12.5,-144.65;12.5,-144.85;12.3,-144.8;12,-145.05;12,-145.05"/><path fill="#FFF" d="M-102.9 100.7h-10.7V90.3l-44.85 17.9q-8.1 3.2-13.15 10.5-4.85 7.3-4.85 16.05 0 12 8.45 20.6 8.4 8.4 20.25 8.4 8.9 0 16.2-4.85 7.45-5.05 10.7-13.3l17.95-44.9m-38.7 49.3q-6.35 2.4-12.5-.2-6.15-2.75-8.75-8.9-2.4-6.15.15-12.45 2.8-6.2 8.95-8.6l35.15-14.1-14.1 35.15q-2.45 6.5-8.9 9.1M58.25-116.65q-6.25-18.7-21.3-33.8-25.75-25.9-62.4-25.9-36.45 0-62.2 25.9-25.95 25.8-25.95 62.25v79.9l-19.9-19.95q-7.45-7.45-17.85-7.3-10.5 0-17.8 7.45-7.3 7.45-7.3 17.85 0 10.2 7.3 17.65l55.55 55.55H62.7V-88.2q0-15.15-4.45-28.45z" fill-opacity=".3"/><path fill="#FBC1BA" d="M40 119.7l-32.9-19h-75.5l32.75 19H40z" fill-opacity=".3"/><path fill="#F7DAD7" d="M40.05 119.7h-75.5l98 56.7 18.95-32.75-41.45-23.95M59.15 97q3.55-3.75 3.55-8.9V62.95h-176.3v37.75H50.25q5.15 0 8.9-3.7z" fill-opacity=".3"/><path fill="#FEFEFE" d="M65.65-118.3l2.55-.35q15.25 22.5 15.25 49.4v176.3q0 5.2-3.75 8.9-3.7 3.75-8.9 3.75H40.05l41.45 23.95L158 123.1q10.05-2.75 15.2-11.85 5.05-9.25 2.3-19.3-2.75-10-11.85-15.05-9.25-5.2-19.3-2.25l-27.2 7.3L157 12.75q18.3-31.6 8.9-66.95-9.55-35.3-41.15-53.6-28.084-16.253-59.1-10.5z" fill-opacity=".3"/><path fill="#ECECEC" d="M68.2-118.65l-2.55.35q-1.219.243-2.45.5l-4.95 1.15q4.45 13.3 4.45 28.45V88.1q0 5.15-3.55 8.9-3.75 3.7-8.9 3.7H7.1l32.9 19h30.8q5.2 0 8.9-3.75 3.75-3.7 3.75-8.9v-176.3q0-26.9-15.25-49.4z" fill-opacity=".3"/></g><g transform="translate(61.3 169.15) scale(.311)"><animateTransform attributeName="transform" additive="replace" type="translate" repeatCount="indefinite" dur="2.167s" keyTimes="0;.25;.5;.75;.981;1" values="69.652,201.068;69.718,201.121;69.652,201.068;69.667,201.053;69.7,201.102;69.7,201.102"/><animateTransform attributeName="transform" additive="sum" type="rotate" repeatCount="indefinite" dur="2.167s" keyTimes="0;.25;.5;.75;.981;1" values="0,0,0;14.998,0,0;0,0,0;-7.994,0,0;-.724,0,0;-.724,0,0"/><animateTransform attributeName="transform" additive="sum" type="scale" repeatCount="indefinite" dur="2.167s" keyTimes="0;1" values=".311,.311;.311,.311"/><animateTransform attributeName="transform" additive="sum" type="translate" repeatCount="indefinite" dur="2.167s" keyTimes="0;.25;.5;.75;.981;1" values="-25.85,-102.95;-26.2,-103.15;-25.85,-102.95;-25.65,-102.9;-25.65,-103;-25.65,-103"/><path fill="#E6E6E6" d="M-62.2-65.25l-1.3.15q-3.45.5-6.7 1.35-3.35.85-6.5 2.1-3.15 1.35-6.25 3.05.65 5.05 2.6 10.85 2.9 8.45 11.5 6.15 8.45-2.25 7.15-11l-.2-.5q-.8-6.45-.3-12.15M93.7 71.55l.1.4-7.1-50q-8.45 5.65-19.1 7.9l6.2 44.1 19.85-2.75.05.35M31.75-76.75l.65.5q7-3.1 14.3-4.2-2.8-7.6-7.5-13.9-1.6-2.1-3.4-4.1h-.15q-5 1.8-7.3 6.5-2.1 4.7-.45 9.7 1.3 3.4 3.85 5.5z" fill-opacity=".3"/><path fill="#AECFE1" d="M77.95 97.7l.45-.1-1.25.15L73.75 74-65.6 93.55l3.4 23.8L77.95 97.7M93.7 71.55l.15.8-.05-.4-.1-.4z" fill-opacity=".3"/><path fill="#F7F5F5" d="M78.4 97.6l-.45.1.9-.15-.45.05M47.95-80.8l-1.25.35q-7.3 1.1-14.3 4.2l-.65-.5q-2.55-2.1-3.85-5.5-1.65-5 .45-9.7 2.3-4.7 7.3-6.5h.15q1.8 2 3.4 4.1-4.75-6.55-11.5-11.55-13.1-9.9-29.65-11.2-23.15-1.75-40.8 13.45Q-60.4-88.4-62.2-65.25q-.5 5.7.3 12.15l.2.5q1.3 8.75-7.15 11-8.6 2.3-11.5-6.15-1.95-5.8-2.6-10.85 3.1-1.7 6.25-3.05-14.1 5.5-23.9 18.45-13.95 18.45-10.85 41.65 2.25 16.2 12.8 28.5 10.5 12.5 26.05 17.35l7 49.25L73.75 74v-.05h.05l-6.2-44.1q10.65-2.25 19.1-7.9 13.6-9.1 20.4-23.85 6.65-14.9 4.4-31.1-3.25-23-21.9-36.95Q71-84.05 47.95-80.8z" fill-opacity=".3"/><path fill="#84B0C8" d="M93.85 72.35l-.15-.8-.05-.35-19.85 2.75h-.05V74l3.4 23.75 1.25-.15.45-.05L97.05 95l-3.2-22.65z" fill-opacity=".3"/></g><g transform="translate(317.3 274) scale(.311)"><animateTransform attributeName="transform" additive="replace" type="translate" repeatCount="indefinite" dur="2.167s" keyTimes="0;.25;.5;.75;.981;1" values="303.007,302.859;303.069,302.921;303.007,302.859;303.019,302.849;303.058,302.907;303.058,302.907"/><animateTransform attributeName="transform" additive="sum" type="rotate" repeatCount="indefinite" dur="2.167s" keyTimes="0;.25;.5;.75;.981;1" values="0,0,0;-14.998,0,0;0,0,0;7.713,0,0;.699,0,0;.699,0,0"/><animateTransform attributeName="transform" additive="sum" type="scale" repeatCount="indefinite" dur="2.167s" keyTimes="0;1" values=".311,.311;.311,.311"/><animateTransform attributeName="transform" additive="sum" type="translate" repeatCount="indefinite" dur="2.167s" keyTimes="0;.25;.5;.75;.981;1" values="44.6,-93.45;44.5,-93.65;44.6,-93.45;44.75,-93.25;44.35,-93.4;44.35,-93.4"/><path fill="#E6E6E6" d="M67.15 52.9q-10.85 1.6-21.85-.85l-13.75 44.9 20.2 6.15-.4 1.55 15.8-51.75M-41.75-84.7l.2-.45q1.6-5.35 5-11.85-11.2-3.75-22.7-2.75-1.6 5.5-2.4 11.5-1 9.4 8.25 11 9.05 1.65 11.65-7.45m114.7 2.4l-.8-2.7h-.3q-5.5-.65-9.7 2.9-4.25 3.4-4.7 8.9-.5 3.4 1.1 7.15l.5.8q7.45 0 15.55 2.3.75-9.95-1.65-19.35z" fill-opacity=".3"/><path fill="#84B0C8" d="M31.55 96.95h-.05l-7.4 24.25-.05.05 20.4 6.15 6.9-22.75.4-1.55-20.2-6.15z" fill-opacity=".3"/><path fill="#AECFE1" d="M-110.6 53.55l-7.45 24.3L24.1 121.2l7.4-24.25h.05l-142.15-43.4z" fill-opacity=".3"/><path fill="#F7F5F5" d="M72.95-82.3q-1.75-6.9-5.15-13.4-8.1-15.55-23.35-24-21.55-11.95-45.2-5.35-23.8 6.65-35.8 28.05-3.4 6.5-5 11.85l-.2.45q-2.6 9.1-11.65 7.45-9.25-1.6-8.25-11 .8-6 2.4-11.5 11.5-1 22.7 2.75l-1.3-.5q-23.5-7.1-45.2 4.4-21.7 11.65-29 35.15-5.05 16.35-.5 33.05Q-108-8.35-95.2 3.3l-15.4 50.25 142.15 43.4 13.75-44.9q11 2.45 21.85.85 17-2.6 30.15-13.8 12.95-11.15 17.95-27.7 7.3-23.5-4.35-45.2-11.5-21.7-35-28.85l-1.3-.3q-8.1-2.3-15.55-2.3l-.5-.8q-1.6-3.75-1.1-7.15.45-5.5 4.7-8.9 4.2-3.55 9.7-2.9h.3l.8 2.7z" fill-opacity=".3"/></g></svg>