<svg baseProfile="basic" width="375" height="335" xmlns="http://www.w3.org/2000/svg" xmlns:xlink="http://www.w3.org/1999/xlink"><defs><filter id="d" filterUnits="objectBoundingBox" width="100%" height="100%" x="0%" y="0%"><feColorMatrix in="SourceGraphic" result="colorTrans" values="1 0 0 0 0 0 1 0 0 0 0 0 1 0 0 0 0 0 .1 0"/></filter><filter id="c" filterUnits="objectBoundingBox" width="100%" height="100%" x="0%" y="0%"><feColorMatrix in="SourceGraphic" result="colorTrans" values="1 0 0 0 0 0 1 0 0 0 0 0 1 0 0 0 0 0 .25 0"/></filter><filter id="b" filterUnits="objectBoundingBox" width="100%" height="100%" x="0%" y="0%"><feColorMatrix in="SourceGraphic" result="colorTrans" values="1 0 0 0 0 0 1 0 0 0 0 0 1 0 0 0 0 0 .3 0"/></filter><path fill="#FFF" d="M12.05-46.1l-1 .7L-.1-35.95l-11.2-9.45-1-.7q-6.1-3.85-13.15-3.8-7.65 0-15.25 4.55-7.65 4.55-13.95 12.85-3.65 4.75-6.4 10.35L-74.6-27.6q-3.35-1.35-6.75.1-3.35 1.45-4.7 4.8-1.35 3.4.1 6.75 1.45 3.35 4.8 4.7l14.8 5.95q-.75 5.25 0 10.6l-14.75 5.8q-3.4 1.35-4.85 4.7-1.45 3.35-.1 6.75 1.3 3.35 4.65 4.8 3.35 1.45 6.75.15l13.55-5.35q2.75 5.6 6.45 10.45 6.3 8.3 13.95 12.85 7.6 4.5 15.25 4.5 7.1.1 13.15-3.75l1-.7 11.2-9.4 11.15 9.45 1 .65q6.05 3.85 13.15 3.75 7.65 0 15.25-4.5 7.65-4.55 13.95-12.8 3.75-4.95 6.4-10.35l13.55 5.45q3.35 1.45 6.75.15 3.4-1.35 4.85-4.7 1.45-3.35.15-6.75-1.35-3.4-4.7-4.85l-.5-.2h.05L66.1 5.5q.8-5.5.05-10.65l14.75-5.8q3.35-1.35 4.8-4.7 1.45-3.3.15-6.7-1.35-3.4-4.7-4.85-3.35-1.45-6.75-.15L60.9-22q-2.65-5.5-6.45-10.5-6.3-8.3-13.95-12.85-7.65-4.55-15.3-4.55-7.05-.05-13.15 3.8m1.5 21.65l8.3-7q1.55-.85 3.35-.85 3.35 0 7.45 2.8 4.05 2.8 7.75 7.65 2.35 3.05 4.05 6.35L30.6-10.05l-17.05-14.4M40.4 22v-.05q-3.65 4.85-7.75 7.6-4.05 2.8-7.45 2.8-1.7.05-3.35-.8l-8.3-7L30.6 10.2l13.8 5.55q-1.7 3.2-4 6.25m-85.05-37.6q1.95-3.6 4-6.25Q-37-26.7-32.9-29.5q4.1-2.8 7.45-2.8 1.8 0 3.4.85l8.3 7-17.05 14.4-13.85-5.55M-.1 13.1L-15.5.1l15.4-13L15.3.1l-15.4 13m-13.65 11.5l-8.3 7q-1.55.9-3.35.9-3.4 0-7.45-2.8-4.15-2.8-7.8-7.65-2.35-3.2-4.05-6.4l13.9-5.45 17.05 14.4z" id="a"/></defs><use xlink:href="#a" transform="translate(116.35 169.35)" filter="url(#b)"><animateTransform attributeName="transform" additive="replace" type="translate" repeatCount="indefinite" dur="3.083s" keyTimes="0;.432;.987;1" values="116.35,169.35;106.35,159.35;116.35,169;116.35,169"/></use><use xlink:href="#a" transform="translate(292.75 227.4)" filter="url(#c)"><animateTransform attributeName="transform" additive="replace" type="translate" repeatCount="indefinite" dur="3.083s" keyTimes="0;.5;.987;1" values="292.75,227.4;302.75,217.4;292.75,226.95;292.75,226.95"/></use><use xlink:href="#a" transform="matrix(.798 0 0 .798 59.4 277.5)" filter="url(#d)"><animateTransform attributeName="transform" additive="replace" type="translate" repeatCount="indefinite" dur="3.083s" keyTimes="0;.46;.987;1" values="59.35,277.45;69.35,267.45;59.3,277.05;59.3,277.05"/><animateTransform attributeName="transform" additive="sum" type="scale" repeatCount="indefinite" dur="3.083s" keyTimes="0;1" values=".798,.798;.798,.798"/></use></svg>