<?xml version="1.0" encoding="utf-8"?><svg id="icecreams_anim" image-rendering="auto" baseProfile="basic" version="1.1" x="0px" y="0px" width="375" height="335" xmlns="http://www.w3.org/2000/svg" xmlns:xlink="http://www.w3.org/1999/xlink"><defs><filter id="filter" filterUnits="objectBoundingBox" width="100%" height="100%" x="0%" y="0%"><feColorMatrix type="matrix" in="SourceGraphic" result="colorTrans" values="1 0 0 0 0 0 1 0 0 0 0 0 1 0 0 0 0 0 .3 0"/></filter><filter id="filter1" filterUnits="objectBoundingBox" width="100%" height="100%" x="0%" y="0%"><feColorMatrix type="matrix" in="SourceGraphic" result="colorTrans" values="1 0 0 0 0 0 1 0 0 0 0 0 1 0 0 0 0 0 .3 0"/></filter><filter id="filter2" filterUnits="objectBoundingBox" width="100%" height="100%" x="0%" y="0%"><feColorMatrix type="matrix" in="SourceGraphic" result="colorTrans" values="1 0 0 0 0 0 1 0 0 0 0 0 1 0 0 0 0 0 .3 0"/></filter><filter id="filter3" filterUnits="objectBoundingBox" width="100%" height="100%" x="0%" y="0%"><feColorMatrix type="matrix" in="SourceGraphic" result="colorTrans" values="1 0 0 0 0 0 1 0 0 0 0 0 1 0 0 0 0 0 .3 0"/></filter><filter id="filter4" filterUnits="objectBoundingBox" width="100%" height="100%" x="0%" y="0%"><feColorMatrix type="matrix" in="SourceGraphic" result="colorTrans" values="1 0 0 0 0 0 1 0 0 0 0 0 1 0 0 0 0 0 .3 0"/></filter><filter id="filter5" filterUnits="objectBoundingBox" width="100%" height="100%" x="0%" y="0%"><feColorMatrix type="matrix" in="SourceGraphic" result="colorTrans" values="1 0 0 0 0 0 1 0 0 0 0 0 1 0 0 0 0 0 .3 0"/></filter><filter id="filter6" filterUnits="objectBoundingBox" width="100%" height="100%" x="0%" y="0%"><feColorMatrix type="matrix" in="SourceGraphic" result="colorTrans" values="1 0 0 0 0 0 1 0 0 0 0 0 1 0 0 0 0 0 .3 0"/></filter><filter id="filter7" filterUnits="objectBoundingBox" width="100%" height="100%" x="0%" y="0%"><feColorMatrix type="matrix" in="SourceGraphic" result="colorTrans" values="1 0 0 0 0 0 1 0 0 0 0 0 1 0 0 0 0 0 .3 0"/></filter><filter id="filter8" filterUnits="objectBoundingBox" width="100%" height="100%" x="0%" y="0%"><feColorMatrix type="matrix" in="SourceGraphic" result="colorTrans" values="1 0 0 0 0 0 1 0 0 0 0 0 1 0 0 0 0 0 .3 0"/></filter><filter id="filter9" filterUnits="objectBoundingBox" width="100%" height="100%" x="0%" y="0%"><feColorMatrix type="matrix" in="SourceGraphic" result="colorTrans" values="1 0 0 0 0 0 1 0 0 0 0 0 1 0 0 0 0 0 .3 0"/></filter><g id="Symbol-1" overflow="visible"><path fill="#F9F3DE" stroke="none" d="M25.4 28.9L25.35 29 -22.4 29.65 -22.55 29.05 -22.55 29.3 -15.15 75Q-14.9 76.4 -13.85 77.3 -12.75 78.25 -11.35 78.3L13.35 78.3Q14.75 78.25 15.8 77.3 16.9 76.4 17.15 75L25.35 29.3Q25.4 29.1 25.4 28.9M30.9 18.95L31.35 16.85 31.2 17.35 -30.5 17.35 -30.2 18.95Q-30.25 22.45 -28.1 25.15 -26.05 27.8 -22.7 28.55L-22.75 28.35 25.7 27.7 25.7 27.75Q28 26.55 29.4 24.3 30.95 21.85 30.9 18.95M39.6 4.55Q38.25 5.45 37.65 5.4 36.6 5.3 33.15 6.75 29.05 8.5 28 8.75 26.65 9.1 23.45 9.05 20.05 8.95 18.05 9.35 15.45 9.9 13.5 8.9 12.6 8.45 10.4 6.55 9.45 5.75 5.25 5.3 1.85 4.95 .65 4.25 -1.45 5.6 -2.05 5.9 -3.3 6.5 -6.45 7.05 -9.7 7.6 -11.65 8.45 -14.1 9.45 -16.25 8.85 -17.05 8.6 -19.7 7.15 -20.8 6.55 -25 6.95 -29.15 7.3 -30.2 6.55 -31.45 5.6 -33.2 5.65 -35.2 5.85 -36.25 5.8 -37.25 5.8 -38.4 5L-36.15 12.95Q-35.7 14.3 -34.6 15.15 -33.45 16 -32.05 16.05L-30.85 16.05 31.55 16.05 33.35 16.05Q34.8 16 35.9 15.1 37.05 14.25 37.4 12.85L39.6 4.55Z" test="Symbol 1"/><path fill="#FFF" stroke="none" d="M25.4 28.9L25.7 27.75 25.7 27.7 -22.75 28.35 -22.7 28.55 -22.55 29.05 -22.4 29.65 25.35 29 25.4 28.9M31.35 16.85L31.55 16.05 -30.85 16.05 -30.55 17.35 -30.5 17.35 31.2 17.35 31.35 16.85M22.95 -67.65Q14.5 -78.3 1 -78.3 -11.9 -78.3 -20.65 -67.65 -28.05 -58.7 -28.7 -47.55 -36.5 -44.3 -41.95 -36.3 -49.55 -25.2 -48.45 -11.95 -47.9 -6.35 -45.5 -1.7L-45.55 -1.65Q-43.95 .65 -41.9 2.15 -41.4 2.45 -39 4.5 -38.7 4.75 -38.4 5 -37.25 5.8 -36.25 5.8 -35.2 5.85 -33.2 5.65 -31.45 5.6 -30.2 6.55 -29.15 7.3 -25 6.95 -20.8 6.55 -19.7 7.15 -17.05 8.6 -16.25 8.85 -14.1 9.45 -11.65 8.45 -9.7 7.6 -6.45 7.05 -3.3 6.5 -2.05 5.9 -1.45 5.6 .65 4.25 1.85 4.95 5.25 5.3 9.45 5.75 10.4 6.55 12.6 8.45 13.5 8.9 15.45 9.9 18.05 9.35 20.05 8.95 23.45 9.05 26.65 9.1 28 8.75 29.05 8.5 33.15 6.75 36.6 5.3 37.65 5.4 38.25 5.45 39.6 4.55 40.1 4.2 40.65 3.7 42.9 1.8 43.85 1.65 47.7 -4.25 48.4 -11.1 49.85 -24.55 42.95 -35.5 38.05 -43.25 30.55 -46.65 30.15 -58.6 22.95 -67.65Z" test="Symbol 1"/></g><g id="icecram" overflow="visible"><path fill="#F9F3DE" stroke="none" d="M25.4 28.9L25.35 29 -22.4 29.65 -22.55 29.05 -22.55 29.3 -15.15 75Q-14.9 76.4 -13.85 77.3 -12.75 78.25 -11.35 78.3L13.35 78.3Q14.75 78.25 15.8 77.3 16.9 76.4 17.15 75L25.35 29.3Q25.4 29.1 25.4 28.9M30.9 18.95L31.35 16.85 31.2 17.35 -30.5 17.35 -30.2 18.95Q-30.25 22.45 -28.1 25.15 -26.05 27.8 -22.7 28.55L-22.75 28.35 25.7 27.7 25.7 27.75Q28 26.55 29.4 24.3 30.95 21.85 30.9 18.95M39.6 4.55Q38.25 5.45 37.65 5.4 36.6 5.3 33.15 6.75 29.05 8.5 28 8.75 26.65 9.1 23.45 9.05 20.05 8.95 18.05 9.35 15.45 9.9 13.5 8.9 12.6 8.45 10.4 6.55 9.45 5.75 5.25 5.3 1.85 4.95 .65 4.25 -1.45 5.6 -2.05 5.9 -3.3 6.5 -6.45 7.05 -9.7 7.6 -11.65 8.45 -14.1 9.45 -16.25 8.85 -17.05 8.6 -19.7 7.15 -20.8 6.55 -25 6.95 -29.15 7.3 -30.2 6.55 -31.45 5.6 -33.2 5.65 -35.2 5.85 -36.25 5.8 -37.25 5.8 -38.4 5L-36.15 12.95Q-35.7 14.3 -34.6 15.15 -33.45 16 -32.05 16.05L-30.85 16.05 31.55 16.05 33.35 16.05Q34.8 16 35.9 15.1 37.05 14.25 37.4 12.85L39.6 4.55Z" test="icecram"/><path fill="#FFF" stroke="none" d="M25.4 28.9L25.7 27.75 25.7 27.7 -22.75 28.35 -22.7 28.55 -22.55 29.05 -22.4 29.65 25.35 29 25.4 28.9M31.35 16.85L31.55 16.05 -30.85 16.05 -30.55 17.35 -30.5 17.35 31.2 17.35 31.35 16.85M22.95 -67.65Q14.5 -78.3 1 -78.3 -11.9 -78.3 -20.65 -67.65 -28.05 -58.7 -28.7 -47.55 -36.5 -44.3 -41.95 -36.3 -49.55 -25.2 -48.45 -11.95 -47.9 -6.35 -45.5 -1.7L-45.55 -1.65Q-43.95 .65 -41.9 2.15 -41.4 2.45 -39 4.5 -38.7 4.75 -38.4 5 -37.25 5.8 -36.25 5.8 -35.2 5.85 -33.2 5.65 -31.45 5.6 -30.2 6.55 -29.15 7.3 -25 6.95 -20.8 6.55 -19.7 7.15 -17.05 8.6 -16.25 8.85 -14.1 9.45 -11.65 8.45 -9.7 7.6 -6.45 7.05 -3.3 6.5 -2.05 5.9 -1.45 5.6 .65 4.25 1.85 4.95 5.25 5.3 9.45 5.75 10.4 6.55 12.6 8.45 13.5 8.9 15.45 9.9 18.05 9.35 20.05 8.95 23.45 9.05 26.65 9.1 28 8.75 29.05 8.5 33.15 6.75 36.6 5.3 37.65 5.4 38.25 5.45 39.6 4.55 40.1 4.2 40.65 3.7 42.9 1.8 43.85 1.65 47.7 -4.25 48.4 -11.1 49.85 -24.55 42.95 -35.5 38.05 -43.25 30.55 -46.65 30.15 -58.6 22.95 -67.65Z" test="icecram"/></g></defs><g id="Scene-1" overflow="visible"><use xlink:href="#icecram" transform="translate(320.9 -86.8)" filter="url(#filter9)"><animateTransform attributeName="transform" additive="replace" type="translate" repeatCount="indefinite" dur="8.292s" keyTimes="0;.995;1" values="319.65,269.2;320.9,-86.8;320.9,-86.8"/></use><use xlink:href="#Symbol-1" transform="matrix(-1.032 0 0 1.032 83.5 -79.8)" filter="url(#filter8)"><animateTransform attributeName="transform" additive="replace" type="translate" repeatCount="indefinite" dur="8.292s" keyTimes="0;.995;1" values="82.25,276.2;83.5,-79.8;83.5,-79.8"/><animateTransform attributeName="transform" additive="sum" type="skewY" repeatCount="indefinite" dur="8.292s" keyTimes="0;1" values="180;180"/><animateTransform attributeName="transform" additive="sum" type="scale" repeatCount="indefinite" dur="8.292s" keyTimes="0;1" values="1.032,1.032;1.032,1.032"/><animateTransform attributeName="transform" additive="sum" type="scale" repeatCount="indefinite" dur="8.292s" keyTimes="0;1" values="-1,1;-1,1"/></use><use xlink:href="#Symbol-1" transform="matrix(-.536 0 0 .536 83.9 -263.7)" filter="url(#filter7)"><animateTransform attributeName="transform" additive="replace" type="translate" repeatCount="indefinite" dur="8.292s" keyTimes="0;.995;1" values="82.65,142.3;83.9,-263.7;83.9,-263.7"/><animateTransform attributeName="transform" additive="sum" type="skewY" repeatCount="indefinite" dur="8.292s" keyTimes="0;1" values="180;180"/><animateTransform attributeName="transform" additive="sum" type="scale" repeatCount="indefinite" dur="8.292s" keyTimes="0;1" values=".536,.536;.536,.536"/><animateTransform attributeName="transform" additive="sum" type="scale" repeatCount="indefinite" dur="8.292s" keyTimes="0;1" values="-1,1;-1,1"/></use><use xlink:href="#Symbol-1" transform="matrix(-.807 0 0 .807 39.25 -173.1)" filter="url(#filter6)"><animateTransform attributeName="transform" additive="replace" type="translate" repeatCount="indefinite" dur="8.292s" keyTimes="0;.995;1" values="38,232.9;39.25,-173.1;39.25,-173.1"/><animateTransform attributeName="transform" additive="sum" type="skewY" repeatCount="indefinite" dur="8.292s" keyTimes="0;1" values="180;180"/><animateTransform attributeName="transform" additive="sum" type="scale" repeatCount="indefinite" dur="8.292s" keyTimes="0;1" values=".807,.807;.807,.807"/><animateTransform attributeName="transform" additive="sum" type="scale" repeatCount="indefinite" dur="8.292s" keyTimes="0;1" values="-1,1;-1,1"/></use><use xlink:href="#Symbol-1" transform="matrix(-.711 0 0 .711 305.3 -210.8)" filter="url(#filter5)"><animateTransform attributeName="transform" additive="replace" type="translate" repeatCount="indefinite" dur="8.292s" keyTimes="0;.995;1" values="304.05,175.2;305.3,-210.8;305.3,-210.8"/><animateTransform attributeName="transform" additive="sum" type="skewY" repeatCount="indefinite" dur="8.292s" keyTimes="0;1" values="180;180"/><animateTransform attributeName="transform" additive="sum" type="scale" repeatCount="indefinite" dur="8.292s" keyTimes="0;1" values=".711,.711;.711,.711"/><animateTransform attributeName="transform" additive="sum" type="scale" repeatCount="indefinite" dur="8.292s" keyTimes="0;1" values="-1,1;-1,1"/></use><use xlink:href="#icecram" transform="translate(319.65 269.2)" filter="url(#filter4)"><animateTransform attributeName="transform" additive="replace" type="translate" repeatCount="indefinite" dur="8.292s" keyTimes="0;.995;1" values="319.65,504.2;319.65,269.2;319.65,269.2"/></use><use xlink:href="#Symbol-1" transform="matrix(-1.032 0 0 1.032 82.25 276.2)" filter="url(#filter3)"><animateTransform attributeName="transform" additive="replace" type="translate" repeatCount="indefinite" dur="8.292s" keyTimes="0;.995;1" values="82.25,511.2;82.25,276.2;82.25,276.2"/><animateTransform attributeName="transform" additive="sum" type="skewY" repeatCount="indefinite" dur="8.292s" keyTimes="0;1" values="180;180"/><animateTransform attributeName="transform" additive="sum" type="scale" repeatCount="indefinite" dur="8.292s" keyTimes="0;1" values="1.032,1.032;1.032,1.032"/><animateTransform attributeName="transform" additive="sum" type="scale" repeatCount="indefinite" dur="8.292s" keyTimes="0;1" values="-1,1;-1,1"/></use><use xlink:href="#Symbol-1" transform="matrix(-.536 0 0 .536 82.65 142.3)" filter="url(#filter2)"><animateTransform attributeName="transform" additive="replace" type="translate" repeatCount="indefinite" dur="8.292s" keyTimes="0;.995;1" values="82.65,417.3;82.65,142.3;82.65,142.3"/><animateTransform attributeName="transform" additive="sum" type="skewY" repeatCount="indefinite" dur="8.292s" keyTimes="0;1" values="180;180"/><animateTransform attributeName="transform" additive="sum" type="scale" repeatCount="indefinite" dur="8.292s" keyTimes="0;1" values=".536,.536;.536,.536"/><animateTransform attributeName="transform" additive="sum" type="scale" repeatCount="indefinite" dur="8.292s" keyTimes="0;1" values="-1,1;-1,1"/></use><use xlink:href="#Symbol-1" transform="matrix(-.807 0 0 .807 38 232.9)" filter="url(#filter1)"><animateTransform attributeName="transform" additive="replace" type="translate" repeatCount="indefinite" dur="8.292s" keyTimes="0;.995;1" values="38,477.9;38,232.9;38,232.9"/><animateTransform attributeName="transform" additive="sum" type="skewY" repeatCount="indefinite" dur="8.292s" keyTimes="0;1" values="180;180"/><animateTransform attributeName="transform" additive="sum" type="scale" repeatCount="indefinite" dur="8.292s" keyTimes="0;1" values=".807,.807;.807,.807"/><animateTransform attributeName="transform" additive="sum" type="scale" repeatCount="indefinite" dur="8.292s" keyTimes="0;1" values="-1,1;-1,1"/></use><use xlink:href="#Symbol-1" transform="matrix(-.711 0 0 .711 304.05 175.2)" filter="url(#filter)"><animateTransform attributeName="transform" additive="replace" type="translate" repeatCount="indefinite" dur="8.292s" keyTimes="0;.995;1" values="304.05,430.2;304.05,175.2;304.05,175.2"/><animateTransform attributeName="transform" additive="sum" type="skewY" repeatCount="indefinite" dur="8.292s" keyTimes="0;1" values="180;180"/><animateTransform attributeName="transform" additive="sum" type="scale" repeatCount="indefinite" dur="8.292s" keyTimes="0;1" values=".711,.711;.711,.711"/><animateTransform attributeName="transform" additive="sum" type="scale" repeatCount="indefinite" dur="8.292s" keyTimes="0;1" values="-1,1;-1,1"/></use></g></svg>