<?xml version="1.0" encoding="utf-8"?><svg id="sheep_up" image-rendering="auto" baseProfile="basic" version="1.1" x="0px" y="0px" width="375" height="335" xmlns="http://www.w3.org/2000/svg" xmlns:xlink="http://www.w3.org/1999/xlink"><defs><filter id="filter" filterUnits="objectBoundingBox" width="100%" height="100%" x="0%" y="0%"><feColorMatrix type="matrix" in="SourceGraphic" result="colorTrans" values="1 0 0 0 0 0 1 0 0 0 0 0 1 0 0 0 0 0 .26 0"/></filter><filter id="filter1" filterUnits="objectBoundingBox" width="100%" height="100%" x="0%" y="0%"><feColorMatrix type="matrix" in="SourceGraphic" result="colorTrans" values="1 0 0 0 0 0 1 0 0 0 0 0 1 0 0 0 0 0 .4 0"/></filter><filter id="filter2" filterUnits="objectBoundingBox" width="100%" height="100%" x="0%" y="0%"><feColorMatrix type="matrix" in="SourceGraphic" result="colorTrans" values="1 0 0 0 0 0 1 0 0 0 0 0 1 0 0 0 0 0 .4 0"/></filter><filter id="filter3" filterUnits="objectBoundingBox" width="100%" height="100%" x="0%" y="0%"><feColorMatrix type="matrix" in="SourceGraphic" result="colorTrans" values="1 0 0 0 0 0 1 0 0 0 0 0 1 0 0 0 0 0 .26 0"/></filter><filter id="filter4" filterUnits="objectBoundingBox" width="100%" height="100%" x="0%" y="0%"><feColorMatrix type="matrix" in="SourceGraphic" result="colorTrans" values="1 0 0 0 0 0 1 0 0 0 0 0 1 0 0 0 0 0 .26 0"/></filter><filter id="filter5" filterUnits="objectBoundingBox" width="100%" height="100%" x="0%" y="0%"><feColorMatrix type="matrix" in="SourceGraphic" result="colorTrans" values="1 0 0 0 0 0 1 0 0 0 0 0 1 0 0 0 0 0 .4 0"/></filter><filter id="filter6" filterUnits="objectBoundingBox" width="100%" height="100%" x="0%" y="0%"><feColorMatrix type="matrix" in="SourceGraphic" result="colorTrans" values="1 0 0 0 0 0 1 0 0 0 0 0 1 0 0 0 0 0 .4 0"/></filter><filter id="filter7" filterUnits="objectBoundingBox" width="100%" height="100%" x="0%" y="0%"><feColorMatrix type="matrix" in="SourceGraphic" result="colorTrans" values="1 0 0 0 0 0 1 0 0 0 0 0 1 0 0 0 0 0 .26 0"/></filter><g id="FlashAICB_Layer-1_Group-1343" overflow="visible"><path fill="#DCDCDB" stroke="none" d="M24.6 122.95L23.9 120.55Q23.675 119.4 23.65 118.25 4.35 118.85 2.7 123.45 1.2 127.8 10.65 133.35 20.5 139.2 30.6 138.5 30.323 137.507 30.1 136.45L29.7 134.35Q29.45 132.65 29.35 130.95L29.3 128.7Q27.35 127.45 26 125.55L25.75 125.2 24.85 123.55 24.6 122.95M19.3 95.75Q12.95 95.9 7.3 97.05 1.05 98.3 .1 99.95 -.95 101.8 7.05 105.55 14.95 109.25 21.4 110.15L21.3 109.85 21.15 109.55 20.9 108.8 20.9 108.7 20.7 107.8 20.65 107.25 20.6 107.05 20.6 105.4 20.7 104.75 20.7 104.7Q20.901 103.025 21.55 101.4 22.031 100.212 22.75 99.05 20.9 97.55 19.3 95.75M163.85 153.75Q163.15 154.85 162.35 155.65 161.65 156.25 160.75 156.85 165.75 159.65 168.4 160.7 172.4 162.3 174.05 161.4 176.996 159.752 170.85 150.2 170.635 150.315 170.4 150.4 168.5 151.1 166.5 151.3L164.9 151.4Q164.55 152.45 164 153.55L163.85 153.75M262.3 83.45Q261.3 72.5 255.1 62.45 247.25 49.6 230.35 45.15 217.1 41.7 200.6 43.75 203.05 41.4 208.45 38.15 214.65 34.4 217.2 32.35 224.2 26.8 222.35 21.55 220.3 15.75 207.6 16.65 200.35 17.2 193.55 24.4 188.9 29.35 184.7 37.15 181.85 42.45 179.55 48.3 173.95 48.3 168.8 45.85L169.8 47.3Q170.8 49.1 171.1 50.85 171.126 51.023 171.15 51.2 171.168 51.365 171.15 51.5 171.185 51.683 171.2 51.85 171.201 51.925 171.2 52 171.2 52.073 171.2 52.15 171.199 52.185 171.2 52.2 171.197 52.296 171.2 52.35 171.198 52.409 171.2 52.45L166.3 58.7Q165.652 59.079 164.9 59.4L165.8 61.7Q166.7 64.55 166.75 67.35 166.797 69.450 166.35 71.3L159.7 80.6Q159.616 80.674 159.5 80.75 159.370 80.823 159.25 80.9 159.124 80.973 159 81.05 158.878 81.123 158.75 81.2L162.7 83.7Q166.2 86.95 164 90.75L168.2 92.45Q169.467 93.247 170.25 94.2L171.55 97.75Q171.587 98.436 171.45 99.15 167.05 100.8 164.2 105.05 159.85 111.5 160.5 122.6 160.528 123.060 160.55 123.5 160.591 123.718 160.6 123.9L166.95 139.85Q167.772 140.470 168.65 140.9 169.094 141.126 169.55 141.3L172.35 141.8 173.75 141.7Q174.235 141.623 174.7 141.5 175.381 141.315 176 141.05L179.4 138.65Q179.418 138.633 179.45 138.6 179.511 138.521 179.55 138.45 179.635 138.375 179.7 138.3 181.75 135.9 181.25 128.6L181.25 128.55Q180.500 117.945 180.65 115.95 187.35 122.5 196.15 125.75 207.7 130 221.55 128.25 235.6 126.5 245.5 119.75 254.7 113.45 259.1 103.7 263.35 94.25 262.3 83.45M199.8 62.9Q198.5 64.2 196.7 64.2 194.9 64.2 193.65 62.9 192.35 61.65 192.35 59.8 192.35 58 193.65 56.75 194.9 55.45 196.7 55.45 198.5 55.45 199.8 56.75 201.05 58 201.05 59.8 201.05 61.65 199.8 62.9M196.3 76.4Q197.55 77.65 197.55 79.45 197.55 81.25 196.3 82.55 195 83.8 193.2 83.8 191.4 83.8 190.15 82.55 188.85 81.25 188.85 79.45 188.85 77.65 190.15 76.4 191.4 75.1 193.2 75.1 195 75.1 196.3 76.4Z" test="Group 1343"/><path fill="#F6F6F6" stroke="none" d="M171.55 97.75L170.25 94.2Q169.457 93.276 168.2 92.5L164 90.8Q164.778 98.962 157.6 103.2 155.35 104.5 152.6 105.3L150.25 105.8Q150.154 105.921 150.05 106.05 149.862 106.284 149.65 106.5 149.583 106.609 149.5 106.7 149.409 106.831 149.3 106.9 149.280 106.976 149.2 107 149.181 107.075 149.1 107.1L140.45 112.85Q138.977 113.202 137.45 113.1 135.35 112.95 133.45 111.95L131.95 111.05Q130.124 112.776 128.45 113.85L119.7 115.2Q118.15 114.35 117.05 112.6L116.25 111.05Q114.937 112.313 113.6 113.3L95.85 115.85Q92.75 114.15 90.15 111.1L88.15 108.4Q79.15 117.4 70 113.8 67.15 112.7 64.6 110.45L62.65 108.4Q52.05 115.8 43.85 112.5 41.3 111.5 39.3 109.5L37.8 107.75Q28.8 110.2 24.55 105.95 23.2 104.65 22.55 102.8L22.1 101.2 21.55 101.4Q20.901 103.025 20.7 104.7L20.7 104.75 20.6 105.4 20.7 107.8 20.9 108.7 20.9 108.8 21.15 109.55 21.3 109.85 21.95 111.3 22 111.35 22.5 112.1 24.05 113.9 23.75 115.7 23.75 115.95Q23.487 118.281 23.9 120.55L24.6 122.95 24.85 123.55 25.75 125.2 26 125.55Q27.35 127.45 29.3 128.7L29.35 130.95Q29.45 132.65 29.7 134.35L30.1 136.45Q30.323 137.507 30.6 138.5 32.105 143.940 35.15 147.45 40.05 153.1 48.5 153.1L49.45 154.75Q50.7 156.7 52.25 158.1 57.15 162.7 62.85 160.5L64.15 162.6Q65.85 165 67.95 166.75 74.6 172.25 82.55 168.55L83.8 167.95 86.6 169.9Q90 171.9 93 172L93.6 172 95.4 171.7 96.6 171.25 97.75 170.55Q98.55 171.3 99.3 171.75L101.65 173Q104.9 174.35 108 173.75 112.15 173 115.65 168.8L118.45 169.3Q121.9 169.8 125.05 169.6 135.2 169.05 138.75 162.25L140.2 162.9Q142 163.6 143.75 163.7 149.4 163.9 152.7 157.9L156.1 158.15Q158.794 157.977 160.75 156.85 161.65 156.25 162.35 155.65 163.15 154.85 163.85 153.75L164 153.55Q164.55 152.45 164.9 151.4L166.5 151.3Q168.5 151.1 170.4 150.4 170.635 150.315 170.85 150.2 176.500 148.021 178.95 142.45L179.7 140.5 180.35 140.4 180.6 140.4 181.55 140.25 183.2 139.8Q187.95 138.35 189.3 134.8L189.5 134.1 189.75 132.65Q191.25 131.65 192.3 130.6 192.75 130.2 193.7 129.15 195.15 127.45 196.15 125.75 187.35 122.5 180.65 115.95 180.500 117.945 181.25 128.55L181.25 128.6Q181.75 135.9 179.7 138.3 179.635 138.375 179.55 138.45 179.511 138.521 179.45 138.6 179.418 138.633 179.4 138.65L176 141.05Q175.381 141.315 174.7 141.5 174.235 141.623 173.75 141.7L172.35 141.8 169.55 141.3Q169.068 141.134 168.6 140.9 167.741 140.476 166.95 139.85L160.6 123.9Q160.591 123.718 160.55 123.5 160.528 123.060 160.5 122.6 159.85 111.5 164.2 105.05 167.05 100.8 171.45 99.15 171.587 98.436 171.55 97.75Z" test="Group 1343"/><path fill="#FFF" stroke="none" d="M181 19.7Q179.5 14.7 175.85 10.75 168.55 2.9 157.9 8.35 156.7 6.05 154.7 4.45 150.65 1.15 146.55 4.45 143.05 2.05 139 1.35 130.8 -.1 127.8 8.35 125.1 4.2 120.85 1.75 112.35 -3.15 104.7 5.3 101.45 3.45 97.15 3.35 88.55 3.15 83.35 11.85 78.55 11.2 73.35 12.55 63 15.3 61.1 25.4 59.35 23.75 57.25 23.5 53 22.95 51.1 29.75 47.85 27.9 44.25 27.95 37.05 28.05 35.4 37.6 32.05 37.6 29.25 39.55 23.7 43.45 26.7 53.25L23.7 55.4Q20.25 58.1 17.85 60.95 10.25 70 16.2 76.8L15.5 78.45Q14.8 80.5 14.65 82.7 14.1 89.8 19.3 95.75 20.9 97.55 22.75 99.05 22.031 100.212 21.55 101.4L22.1 101.2 22.55 102.8Q23.2 104.65 24.55 105.95 28.8 110.2 37.8 107.75L39.3 109.5Q41.3 111.5 43.85 112.5 52.05 115.8 62.65 108.4L64.6 110.45Q67.15 112.7 70 113.8 79.15 117.4 88.15 108.4L90.15 111.1Q92.75 114.15 95.85 115.85L113.6 113.3Q114.925 112.275 116.25 111L117.05 112.55Q118.15 114.3 119.7 115.2L128.45 113.85Q130.112 112.737 131.95 111L133.45 111.95Q135.35 112.9 137.45 113.05 138.973 113.163 140.45 112.85L149.1 107.1Q149.181 107.075 149.2 107 149.280 106.976 149.3 106.9 149.409 106.831 149.5 106.7 149.583 106.609 149.65 106.5 149.862 106.284 150.05 106.05 150.154 105.921 150.25 105.8L152.6 105.3Q155.35 104.5 157.6 103.2 164.778 98.962 164 90.8L164 90.75Q166.2 86.95 162.7 83.7L158.75 81.2Q158.878 81.123 159 81.05 159.124 80.973 159.25 80.9 159.370 80.823 159.5 80.75 159.616 80.674 159.7 80.6L166.35 71.3Q166.758 69.447 166.7 67.35 166.65 64.55 165.75 61.7L164.85 59.4Q165.625 59.072 166.3 58.7L171.2 52.45Q171.198 52.409 171.2 52.35 171.197 52.296 171.2 52.2 171.199 52.185 171.2 52.15 171.2 52.073 171.2 52 171.201 51.925 171.2 51.85 171.185 51.683 171.15 51.5 171.168 51.365 171.15 51.2 171.126 51.023 171.1 50.85 170.8 49.1 169.8 47.3L168.8 45.85Q173.95 48.3 179.55 48.3 181.85 42.45 184.7 37.15 188.9 29.35 193.55 24.4 191 17.25 181 19.7Z" test="Group 1343"/></g></defs><g id="Scene-1" overflow="visible"><use xlink:href="#FlashAICB_Layer-1_Group-1343" transform="translate(522.45 142.05)" filter="url(#filter7)"><animateTransform attributeName="transform" additive="replace" type="translate" repeatCount="indefinite" dur="9.625s" keyTimes="0;.996;1" values="131.45,142.05;522.45,142.05;522.45,142.05"/></use><use xlink:href="#FlashAICB_Layer-1_Group-1343" transform="matrix(.434 0 0 .434 637 70.3)" filter="url(#filter6)"><animateTransform attributeName="transform" additive="replace" type="translate" repeatCount="indefinite" dur="9.625s" keyTimes="0;.996;1" values="245.948,70.249;636.948,70.249;636.948,70.249"/><animateTransform attributeName="transform" additive="sum" type="scale" repeatCount="indefinite" dur="9.625s" keyTimes="0;1" values=".434,.434;.434,.434"/></use><use xlink:href="#FlashAICB_Layer-1_Group-1343" transform="matrix(.506 0 0 .506 425.45 184.55)" filter="url(#filter5)"><animateTransform attributeName="transform" additive="replace" type="translate" repeatCount="indefinite" dur="9.625s" keyTimes="0;.996;1" values="-15.502,184.498;425.398,184.498;425.398,184.498"/><animateTransform attributeName="transform" additive="sum" type="scale" repeatCount="indefinite" dur="9.625s" keyTimes="0;1" values=".506,.506;.506,.506"/></use><use xlink:href="#FlashAICB_Layer-1_Group-1343" transform="matrix(.613 0 0 .613 406.4 93.6)" filter="url(#filter4)"><animateTransform attributeName="transform" additive="replace" type="translate" repeatCount="indefinite" dur="9.625s" keyTimes="0;.996;1" values="15.348,93.549;406.348,93.549;406.348,93.549"/><animateTransform attributeName="transform" additive="sum" type="scale" repeatCount="indefinite" dur="9.625s" keyTimes="0;1" values=".613,.613;.613,.613"/></use><use xlink:href="#FlashAICB_Layer-1_Group-1343" transform="translate(131.45 142.05)" filter="url(#filter3)"><animateTransform attributeName="transform" additive="replace" type="translate" repeatCount="indefinite" dur="9.625s" keyTimes="0;.996;1" values="-345.5,142.05;131.45,142.05;131.45,142.05"/></use><use xlink:href="#FlashAICB_Layer-1_Group-1343" transform="matrix(.434 0 0 .434 246 70.3)" filter="url(#filter2)"><animateTransform attributeName="transform" additive="replace" type="translate" repeatCount="indefinite" dur="9.625s" keyTimes="0;.996;1" values="-190.902,70.249;245.948,70.249;245.948,70.249"/><animateTransform attributeName="transform" additive="sum" type="scale" repeatCount="indefinite" dur="9.625s" keyTimes="0;1" values=".434,.434;.434,.434"/></use><use xlink:href="#FlashAICB_Layer-1_Group-1343" transform="matrix(.506 0 0 .506 -15.55 184.55)" filter="url(#filter1)"><animateTransform attributeName="transform" additive="replace" type="translate" repeatCount="indefinite" dur="9.625s" keyTimes="0;.996;1" values="-452.452,184.498;-15.502,184.498;-15.502,184.498"/><animateTransform attributeName="transform" additive="sum" type="scale" repeatCount="indefinite" dur="9.625s" keyTimes="0;1" values=".506,.506;.506,.506"/></use><use xlink:href="#FlashAICB_Layer-1_Group-1343" transform="matrix(.613 0 0 .613 15.4 93.6)" filter="url(#filter)"><animateTransform attributeName="transform" additive="replace" type="translate" repeatCount="indefinite" dur="9.625s" keyTimes="0;.996;1" values="-421.502,93.549;15.348,93.549;15.348,93.549"/><animateTransform attributeName="transform" additive="sum" type="scale" repeatCount="indefinite" dur="9.625s" keyTimes="0;1" values=".613,.613;.613,.613"/></use></g></svg>