<?xml version="1.0" encoding="utf-8"?><svg id="wheels" image-rendering="auto" baseProfile="basic" version="1.1" x="0px" y="0px" width="375" height="335" xmlns="http://www.w3.org/2000/svg" xmlns:xlink="http://www.w3.org/1999/xlink"><defs><filter id="filter" filterUnits="objectBoundingBox" width="100%" height="100%" x="0%" y="0%"><feColorMatrix type="matrix" in="SourceGraphic" result="colorTrans" values="1 0 0 0 0 0 1 0 0 0 0 0 1 0 0 0 0 0 .22 0"/></filter><filter id="filter1" filterUnits="objectBoundingBox" width="100%" height="100%" x="0%" y="0%"><feColorMatrix type="matrix" in="SourceGraphic" result="colorTrans" values="1 0 0 0 0 0 1 0 0 0 0 0 1 0 0 0 0 0 .3 0"/></filter><filter id="filter2" filterUnits="objectBoundingBox" width="100%" height="100%" x="0%" y="0%"><feColorMatrix type="matrix" in="SourceGraphic" result="colorTrans" values="1 0 0 0 0 0 1 0 0 0 0 0 1 0 0 0 0 0 .22 0"/></filter><filter id="filter3" filterUnits="objectBoundingBox" width="100%" height="100%" x="0%" y="0%"><feColorMatrix type="matrix" in="SourceGraphic" result="colorTrans" values="1 0 0 0 0 0 1 0 0 0 0 0 1 0 0 0 0 0 .22 0"/></filter><g id="wheel2" overflow="visible"><path fill="#FFF" stroke="none" d="M26.1 -28.8L22.1 -25.6Q20.85 -26.65 19.05 -27.95L21.1 -32.6 18.2 -34.3 14.9 -30.4Q13.55 -31.1 11 -32.05L11.45 -37.1 8.2 -37.95 6.35 -33.3Q4.6 -33.65 2.35 -33.8L1.4 -38.8 -1.95 -38.8 -2.5 -33.85Q-4.7 -33.7 -6.35 -33.35L-8.2 -37.95 -11.4 -37.1 -11 -32.15Q-12.9 -31.5 -15 -30.55L-18.2 -34.3 -21.1 -32.6 -19.15 -28.15Q-20.55 -27.2 -22.25 -25.75L-26.1 -28.8 -28.45 -26.4 -25.65 -22.4Q-26.8 -21.1 -28.35 -18.95L-32.9 -20.6 -34.6 -17.7 -30.7 -14.85Q-31.55 -13.15 -32.25 -11.2L-37 -11.9 -37.85 -8.65 -33.5 -6.55Q-33.85 -4.8 -34.05 -2.25L-38.8 -1.4 -38.8 1.95 -34.05 2.5Q-33.9 4.7 -33.55 6.45L-38 8.2 -37.15 11.45 -32.3 11.05Q-31.6 13.15 -30.65 15.1L-34.35 18.2 -32.65 21.1 -28.2 19.2Q-27.1 20.95 -25.8 22.3L-28.8 26.1 -26.45 28.5 -22.4 25.7Q-20.8 27.15 -19 28.35L-20.65 32.95 -17.75 34.6 -14.8 30.7Q-13.05 31.55 -11.2 32.2L-11.9 37.05 -8.65 37.9 -6.55 33.4Q-4.3 33.8 -2.5 33.95L-1.95 38.85 1.4 38.85 2.35 33.95Q4.45 33.8 6.55 33.35L8.7 37.9 11.9 37.05 11.2 32.1Q13.1 31.4 14.75 30.6L17.75 34.65 20.65 32.95 18.95 28.15Q20.7 26.95 22.25 25.6L26.45 28.5 28.8 26.15 25.65 22.1Q26.85 20.8 27.95 19.1L32.65 21.15 34.35 18.25 30.4 14.9Q31.4 12.8 31.95 11.05L37.15 11.45 38 8.25 33.2 6.35Q33.55 4.65 33.7 2.55L38.8 1.95 38.8 -1.4 33.7 -2.3Q33.55 -4.6 33.2 -6.4L37.85 -8.65 37 -11.9 31.9 -11.15Q31.4 -12.7 30.45 -14.65L34.6 -17.7 32.9 -20.6 28.05 -18.85Q26.6 -20.95 25.5 -22.15L28.45 -26.4 26.1 -28.8M17.55 -13.8Q18.7 -14.45 19.95 -14.1 21.2 -13.75 21.85 -12.65 22.5 -11.5 22.15 -10.3 21.8 -9.05 20.7 -8.4 19.6 -7.75 18.3 -8.05 17.05 -8.4 16.4 -9.55 15.75 -10.7 16.1 -11.9 16.45 -13.15 17.55 -13.8M12.5 -21.95Q13.65 -21.3 14 -20.05 14.3 -18.8 13.65 -17.7 13 -16.6 11.75 -16.25 10.55 -15.9 9.4 -16.55 8.25 -17.2 7.95 -18.45 7.6 -19.75 8.25 -20.85 8.9 -21.95 10.15 -22.3 11.35 -22.65 12.5 -22L12.5 -21.95M2.9 -22.25Q2.9 -20.95 2 -20 1.1 -19.1 -.2 -19.1 -1.5 -19.1 -2.45 -20 -3.35 -20.95 -3.35 -22.25 -3.35 -23.55 -2.45 -24.5 -1.5 -25.4 -.2 -25.4 1.1 -25.4 2 -24.5 2.9 -23.55 2.9 -22.25M22.1 -3.05Q23.4 -3.05 24.35 -2.15 25.25 -1.25 25.25 .05 25.25 1.35 24.35 2.3 23.4 3.2 22.1 3.2 20.8 3.2 19.9 2.3 19 1.35 19 .05 18.95 -1.2 19.9 -2.15 20.8 -3.05 22.1 -3.05M20.7 8.5Q21.8 9.15 22.15 10.4 22.5 11.65 21.85 12.8 21.2 13.9 19.95 14.25 18.7 14.6 17.55 13.95 16.45 13.3 16.1 12.05 15.75 10.8 16.4 9.65 17.05 8.55 18.3 8.2 19.55 7.85 20.7 8.5M2 20.15Q2.9 21.1 2.9 22.35 2.9 23.65 2 24.6 1.1 25.5 -.2 25.5 -1.5 25.5 -2.45 24.6 -3.35 23.65 -3.35 22.35 -3.35 21.05 -2.45 20.15 -1.5 19.25 -.2 19.25 1.1 19.25 2 20.15M8.25 20.95Q7.6 19.85 7.95 18.6 8.25 17.35 9.4 16.65 10.55 16 11.75 16.35 13 16.7 13.65 17.8 14.3 18.9 14 20.2 13.65 21.4 12.5 22.1 11.35 22.75 10.15 22.4 8.9 22.05 8.25 20.95M11.1 .05Q11.1 4.75 7.8 8.05 4.5 11.35 -.2 11.35 -4.85 11.3 -8.15 8 -11.45 4.7 -11.45 .05 -11.45 -4.65 -8.15 -7.9 -4.85 -11.2 -.15 -11.2 4.5 -11.2 7.8 -7.9 11.1 -4.6 11.1 .05M-22.25 -12.65Q-21.6 -13.75 -20.35 -14.1 -19.1 -14.45 -17.95 -13.8 -16.85 -13.15 -16.5 -11.9 -16.15 -10.7 -16.8 -9.55 -17.5 -8.4 -18.7 -8.05 -20 -7.75 -21.1 -8.4 -22.2 -9.05 -22.55 -10.3 -22.9 -11.5 -22.25 -12.65M-22.5 -3.05Q-21.2 -3.05 -20.3 -2.15 -19.4 -1.2 -19.4 .05 -19.4 1.35 -20.3 2.3 -21.2 3.2 -22.5 3.2 -23.8 3.2 -24.75 2.3 -25.65 1.35 -25.65 .05 -25.65 -1.25 -24.75 -2.15 -23.8 -3.05 -22.5 -3.05M-8.65 -20.85Q-8 -19.7 -8.35 -18.45 -8.7 -17.2 -9.8 -16.55 -10.95 -15.9 -12.15 -16.25 -13.4 -16.6 -14.1 -17.7 -14.75 -18.85 -14.4 -20.05 -14.05 -21.3 -12.95 -21.95 -11.8 -22.6 -10.55 -22.3 -9.3 -21.95 -8.65 -20.85M-18.7 8.2Q-17.45 8.55 -16.8 9.65 -16.15 10.8 -16.5 12 -16.85 13.25 -17.95 13.9L-17.95 13.95Q-19.1 14.6 -20.35 14.25 -21.6 13.9 -22.25 12.8 -22.9 11.65 -22.55 10.4 -22.2 9.15 -21.1 8.5 -19.95 7.85 -18.7 8.2M-10.55 22.4Q-11.8 22.75 -12.95 22.1 -14.05 21.45 -14.4 20.2 -14.75 18.95 -14.1 17.8 -13.4 16.7 -12.15 16.35 -10.95 16 -9.8 16.65 -8.7 17.35 -8.35 18.6 -8 19.8 -8.65 20.95 -9.3 22.05 -10.55 22.4Z" test="wheel2"/></g><g id="wheel3" overflow="visible"><path fill="#FFF" stroke="none" d="M15.6 -67.95L12.35 -61.9Q8.4 -62.7 4.05 -63L2.5 -69.7 -2.85 -69.7 -4.2 -63.05Q-8.9 -62.7 -12.45 -62L-15.6 -67.95 -20.8 -66.55 -20.4 -59.9Q-24.2 -58.65 -28 -56.8L-32.4 -61.75 -37.05 -59.05 -35.1 -52.7Q-38.35 -50.6 -41.9 -47.55L-47.5 -51.05 -51.35 -47.25 -47.7 -41.8Q-50.45 -38.65 -52.8 -35.2L-58.95 -37.3 -61.65 -32.65 -56.9 -28.2Q-58.85 -24.25 -60.2 -20.2L-66.7 -20.45 -68.1 -15.25 -62.3 -12.4Q-63.1 -8.45 -63.4 -4.1L-69.7 -2.85 -69.7 2.55 -63.4 4Q-63.2 7.95 -62.3 12.6L-68 15.65 -66.6 20.85 -60.15 20.4Q-58.7 24.6 -56.95 28.15L-61.8 32.4 -59.1 37.1 -52.9 35.2Q-50.5 38.7 -47.6 42L-51.1 47.55 -47.3 51.35 -41.8 47.7Q-39 50.2 -35.25 52.75L-37.35 59 -32.7 61.65 -28.15 56.8Q-24.2 58.75 -20.25 60.05L-20.5 66.7 -15.3 68.1 -12.35 62.1Q-8.85 62.8 -4.2 63.15L-2.9 69.75 2.5 69.75 4.05 63.1Q8.4 62.8 12.25 62L15.25 68.15 20.45 66.75 20.2 59.85Q24.45 58.35 27.9 56.6L32.65 61.7 37.3 59 35.1 52.4Q38.25 50.25 41.4 47.5L47.25 51.35 51.05 47.55 47.3 41.55Q50.05 38.4 52.3 35.05L59.1 37.1 61.8 32.45 56.5 27.75Q58.15 24.4 59.5 20.4L66.6 20.85 67.95 15.65 61.65 12.3Q62.45 8.45 62.75 4.2L69.7 2.55 69.7 -2.8 62.7 -4.2Q62.5 -8 61.7 -12.1L68.05 -15.25 66.65 -20.45 59.55 -20.2Q58.25 -23.9 56.4 -27.8L61.6 -32.65 58.95 -37.3 52.25 -35.05Q49.9 -38.5 47.4 -41.35L51.3 -47.25 47.5 -51.05 41.5 -47.3Q38.6 -49.95 35 -52.4L37.05 -59.05 32.35 -61.75 27.8 -56.55Q24.25 -58.3 20.35 -59.7L20.8 -66.55 15.6 -67.95M21.65 -18.7Q27.7 -11.5 28.45 -2.3L9.7 -2.3Q9.35 -3.9 8.4 -5.45L21.65 -18.7M5 -8.8Q3.45 -9.7 1.9 -10.05L1.9 -28.75Q11.15 -28.05 18.25 -22.05L5 -8.8M21.6 18.8L8.35 5.6Q9.25 4.1 9.7 2.45L28.45 2.45Q27.7 11.7 21.6 18.8M1.9 28.85L1.9 10.15Q3.4 9.8 4.95 8.9L18.2 22.15Q11.1 28.15 1.9 28.85M-2.9 -9.95Q-4.4 -9.6 -5.9 -8.65L-19.1 -21.9Q-12.05 -27.95 -2.9 -28.7L-2.9 -9.95M-22.45 -18.5L-9.2 -5.25Q-10 -3.9 -10.4 -2.3L-29.1 -2.3Q-28.4 -11.45 -22.45 -18.5M-22.4 18.65Q-28.3 11.75 -29.1 2.45L-10.35 2.45Q-9.95 4.05 -9.15 5.4L-22.4 18.65M-19.05 22L-5.85 8.8Q-4.3 9.7 -2.9 10.05L-2.9 28.8Q-12 28.05 -19.05 22Z" test="wheel1"/></g></defs><g id="Scene-1" overflow="visible"><use xlink:href="#wheel3" transform="translate(51.55 237.75)" filter="url(#filter3)"><animateTransform attributeName="transform" additive="replace" type="translate" repeatCount="indefinite" dur="14.042s" keyTimes="0;1" values="51.55,237.75;51.55,237.75"/><animateTransform attributeName="transform" additive="sum" type="rotate" repeatCount="indefinite" dur="14.042s" keyTimes="0;.997;1" values="0,0,0;360,0,0;360,0,0"/></use><use xlink:href="#wheel3" transform="translate(335 186.9)" filter="url(#filter2)"><animateTransform attributeName="transform" additive="replace" type="translate" repeatCount="indefinite" dur="14.042s" keyTimes="0;1" values="335,186.9;335,186.9"/><animateTransform attributeName="transform" additive="sum" type="rotate" repeatCount="indefinite" dur="14.042s" keyTimes="0;.997;1" values="0,0,0;-360,0,0;-360,0,0"/></use><use xlink:href="#wheel2" transform="translate(76 156)" filter="url(#filter1)"><animateTransform attributeName="transform" additive="replace" type="translate" repeatCount="indefinite" dur="14.042s" keyTimes="0;1" values="76,156;76,156"/><animateTransform attributeName="transform" additive="sum" type="rotate" repeatCount="indefinite" dur="14.042s" keyTimes="0;.997;1" values="0,0,0;-360,0,0;-360,0,0"/></use><use xlink:href="#wheel2" transform="translate(284 275.95)" filter="url(#filter)"><animateTransform attributeName="transform" additive="replace" type="translate" repeatCount="indefinite" dur="14.042s" keyTimes="0;1" values="284,275.95;284,275.95"/><animateTransform attributeName="transform" additive="sum" type="rotate" repeatCount="indefinite" dur="14.042s" keyTimes="0;.997;1" values="0,0,0;360,0,0;360,0,0"/></use></g></svg>