<svg baseProfile="basic" width="375" height="335" xmlns="http://www.w3.org/2000/svg" xmlns:xlink="http://www.w3.org/1999/xlink"><defs><filter id="o" filterUnits="objectBoundingBox" width="100%" height="100%" x="0%" y="0%"><feColorMatrix in="SourceGraphic" result="colorTrans" values="1 0 0 0 0 0 1 0 0 0 0 0 1 0 0 0 0 0 .2 0"/></filter><filter id="n" filterUnits="objectBoundingBox" width="100%" height="100%" x="0%" y="0%"><feColorMatrix in="SourceGraphic" result="colorTrans" values="1 0 0 0 0 0 1 0 0 0 0 0 1 0 0 0 0 0 .2 0"/></filter><filter id="m" filterUnits="objectBoundingBox" width="100%" height="100%" x="0%" y="0%"><feColorMatrix in="SourceGraphic" result="colorTrans" values="1 0 0 0 0 0 1 0 0 0 0 0 1 0 0 0 0 0 .4 0"/></filter><filter id="l" filterUnits="objectBoundingBox" width="100%" height="100%" x="0%" y="0%"><feColorMatrix in="SourceGraphic" result="colorTrans" values="1 0 0 0 0 0 1 0 0 0 0 0 1 0 0 0 0 0 .3 0"/></filter><filter id="k" filterUnits="objectBoundingBox" width="100%" height="100%" x="0%" y="0%"><feColorMatrix in="SourceGraphic" result="colorTrans" values="1 0 0 0 0 0 1 0 0 0 0 0 1 0 0 0 0 0 .3 0"/></filter><filter id="j" filterUnits="objectBoundingBox" width="100%" height="100%" x="0%" y="0%"><feColorMatrix in="SourceGraphic" result="colorTrans" values="1 0 0 0 0 0 1 0 0 0 0 0 1 0 0 0 0 0 .2 0"/></filter><filter id="h" filterUnits="objectBoundingBox" width="100%" height="100%" x="0%" y="0%"><feColorMatrix in="SourceGraphic" result="colorTrans" values="1 0 0 0 0 0 1 0 0 0 0 0 1 0 0 0 0 0 .2 0"/></filter><filter id="f" filterUnits="objectBoundingBox" width="100%" height="100%" x="0%" y="0%"><feColorMatrix in="SourceGraphic" result="colorTrans" values="1 0 0 0 0 0 1 0 0 0 0 0 1 0 0 0 0 0 .4 0"/></filter><filter id="d" filterUnits="objectBoundingBox" width="100%" height="100%" x="0%" y="0%"><feColorMatrix in="SourceGraphic" result="colorTrans" values="1 0 0 0 0 0 1 0 0 0 0 0 1 0 0 0 0 0 .3 0"/></filter><filter id="b" filterUnits="objectBoundingBox" width="100%" height="100%" x="0%" y="0%"><feColorMatrix in="SourceGraphic" result="colorTrans" values="1 0 0 0 0 0 1 0 0 0 0 0 1 0 0 0 0 0 .3 0"/></filter><path fill="#FFF" d="M7.5-17.05q-3.85 0-7.15 2-4.2-3.9-9.9-3.65-5.75.2-9.65 4.4-3.65 3.95-3.65 9.4 0 1.3.1 1.95-4.9.9-8.1 4.75-3.2 3.85-3.2 8.85v.1q.05 3.35 2.45 5.7 2.35 2.35 5.7 2.3h51.7q3.35.05 5.75-2.3 2.4-2.35 2.45-5.7v-.1q0-5.35-3.65-9.35-3.65-3.95-9-4.45v-.05q0-5.75-4.05-9.8-4.05-4.05-9.8-4.05z" id="i"/><path fill="#FFF" d="M5.75-12.95q-3 0-5.4 1.5-3.2-2.95-7.6-2.75-4.35.15-7.3 3.35-2.8 3.05-2.8 7.15l.1 1.45q-3.7.7-6.15 3.65-2.45 2.9-2.45 6.7v.05q.05 2.55 1.85 4.35 1.85 1.8 4.35 1.75H19.7q2.5.05 4.35-1.75 1.8-1.8 1.85-4.35V8.1q0-4.1-2.75-7.1-2.8-3-6.85-3.4 0-4.4-3.1-7.45-3.1-3.1-7.45-3.1z" id="g"/><path fill="#FFF" d="M9-20.45q-4.5 0-8.55 2.4-5-4.7-11.9-4.4-6.9.25-11.55 5.3-4.4 4.8-4.4 11.3 0 1.2.15 2.3-5.9 1.1-9.7 5.7Q-40.8 6.8-40.8 12.8v.1q.05 4 2.9 6.85 2.85 2.8 6.85 2.75H31q4 .05 6.9-2.75 2.85-2.85 2.9-6.85v-.1q0-6.45-4.35-11.2-4.4-4.8-10.8-5.35v-.1q0-6.85-4.85-11.75-4.9-4.85-11.8-4.85z" id="e"/><path fill="#FFF" d="M19.65-44.4q-10.05 0-18.6 5.15-11-10.15-25.9-9.55-14.95.55-25.1 11.55-4.6 5-7.1 11.35-2.45 6.3-2.45 13.15 0 2.65.35 5.05-12.8 2.35-21.15 12.4-8.35 10.05-8.35 23.05V28q.1 8.7 6.35 14.8 6.2 6.15 14.9 6.1H67.4q8.75.05 14.95-6.1 6.2-6.1 6.35-14.8v-.25Q88.65 13.7 79.2 3.4 69.75-6.95 55.75-8.2v-.15q0-14.95-10.55-25.5Q34.6-44.4 19.65-44.4z" id="c"/><path fill="#FFF" d="M13.15-29.85q-6.7 0-12.45 3.45-7.4-6.8-17.4-6.4-10 .4-16.85 7.75-3.7 4-5.35 9.25-1.6 5.2-.85 10.6-8.55 1.6-14.15 8.35-5.55 6.7-5.6 15.45v.15q.1 5.85 4.3 9.95 4.15 4.1 10 4.1h90.4q5.85 0 10-4.1 4.2-4.1 4.3-9.95v-.15q0-9.4-6.35-16.35Q46.8-4.65 37.4-5.5v-.1q0-10.05-7.1-17.15-7.1-7.1-17.15-7.1z" id="a"/></defs><use xlink:href="#a" transform="translate(-366.6 199.3)" filter="url(#b)"><animateTransform attributeName="transform" additive="replace" type="translate" repeatCount="indefinite" dur="11.333s" keyTimes="0;.996;1" values="49.5,199.3;-366.6,199.3;-366.6,199.3"/></use><use xlink:href="#c" transform="translate(-141.3 206.6)" filter="url(#d)"><animateTransform attributeName="transform" additive="replace" type="translate" repeatCount="indefinite" dur="11.333s" keyTimes="0;.996;1" values="294.8,206.6;-141.3,206.6;-141.3,206.6"/></use><use xlink:href="#e" transform="translate(-65.4 158.05)" filter="url(#f)"><animateTransform attributeName="transform" additive="replace" type="translate" repeatCount="indefinite" dur="11.333s" keyTimes="0;.996;1" values="320.7,158.05;-65.4,158.05;-65.4,158.05"/></use><use xlink:href="#g" transform="translate(-91.4 291.3)" filter="url(#h)"><animateTransform attributeName="transform" additive="replace" type="translate" repeatCount="indefinite" dur="11.333s" keyTimes="0;.996;1" values="294.7,291.3;-91.4,291.3;-91.4,291.3"/></use><use xlink:href="#i" transform="translate(-314.5 266.8)" filter="url(#j)"><animateTransform attributeName="transform" additive="replace" type="translate" repeatCount="indefinite" dur="11.333s" keyTimes="0;.996;1" values="71.6,266.8;-314.5,266.8;-314.5,266.8"/></use><g><use xlink:href="#a" transform="translate(49.5 199.3)" filter="url(#k)"><animateTransform attributeName="transform" additive="replace" type="translate" repeatCount="indefinite" dur="11.333s" keyTimes="0;.044;.996;1" values="437.6,199.3;437.6,199.3;49.5,199.3;49.5,199.3"/></use><animate attributeName="display" repeatCount="indefinite" dur="11.333s" keyTimes="0;.044;1" values="none;inline;inline"/></g><g><use xlink:href="#c" transform="translate(294.8 206.6)" filter="url(#l)"><animateTransform attributeName="transform" additive="replace" type="translate" repeatCount="indefinite" dur="11.333s" keyTimes="0;.044;.996;1" values="602.9,206.6;602.9,206.6;294.8,206.6;294.8,206.6"/></use><animate attributeName="display" repeatCount="indefinite" dur="11.333s" keyTimes="0;.044;1" values="none;inline;inline"/></g><g><use xlink:href="#e" transform="translate(320.7 158.05)" filter="url(#m)"><animateTransform attributeName="transform" additive="replace" type="translate" repeatCount="indefinite" dur="11.333s" keyTimes="0;.044;.996;1" values="628.8,158.05;628.8,158.05;320.7,158.05;320.7,158.05"/></use><animate attributeName="display" repeatCount="indefinite" dur="11.333s" keyTimes="0;.044;1" values="none;inline;inline"/></g><g><use xlink:href="#g" transform="translate(294.7 291.3)" filter="url(#n)"><animateTransform attributeName="transform" additive="replace" type="translate" repeatCount="indefinite" dur="11.333s" keyTimes="0;.044;.996;1" values="602.8,291.3;602.8,291.3;294.7,291.3;294.7,291.3"/></use><animate attributeName="display" repeatCount="indefinite" dur="11.333s" keyTimes="0;.044;1" values="none;inline;inline"/></g><g><use xlink:href="#i" transform="translate(71.6 266.8)" filter="url(#o)"><animateTransform attributeName="transform" additive="replace" type="translate" repeatCount="indefinite" dur="11.333s" keyTimes="0;.044;.996;1" values="459.7,266.8;459.7,266.8;71.6,266.8;71.6,266.8"/></use><animate attributeName="display" repeatCount="indefinite" dur="11.333s" keyTimes="0;.044;1" values="none;inline;inline"/></g></svg>