<svg baseProfile="basic" width="375" height="335" xmlns="http://www.w3.org/2000/svg"><g transform="translate(174.7 277.15)"><animateTransform attributeName="transform" additive="replace" type="translate" repeatCount="indefinite" dur="1.917s" keyTimes="0;.478;.978;1" values="174.7,277.15;174.743,277.162;174.7,277.15;174.7,277.15"/><animateTransform attributeName="transform" additive="sum" type="rotate" repeatCount="indefinite" dur="1.917s" keyTimes="0;.478;.978;1" values="0,0,0;7.468,0,0;0,0,0;0,0,0"/><animateTransform attributeName="transform" additive="sum" type="translate" repeatCount="indefinite" dur="1.917s" keyTimes="0;.478;.978;1" values="0,0;-.1,-.05;0,0;0,0"/><path fill="#FFF" d="M-105.25 34.2q-1.8-2.35-4.7-2.7-2.95-.35-5.25 1.5-2.3 1.8-2.7 4.7-.35 2.9 1.45 5.25 1.85 2.35 4.75 2.7 2.95.35 5.25-1.5 2.3-1.8 2.65-4.7.35-2.9-1.45-5.25m175.7 41.65q-2.55-1.4-5.4-.65-2.85.8-4.3 3.35-1.45 2.55-.65 5.4.8 2.85 3.35 4.25 2.55 1.45 5.4.7 2.85-.8 4.3-3.35 1.45-2.6.65-5.4-.8-2.85-3.35-4.3m19.4-11.7q-.1-2.85-4.45-6.85-4.5-4.15-10.35-6.6-6.75-2.75-12.35-1.85-6.6 1.1-10.4 7.3-2.5 4.05-3.1 12.9-.75 10.2 2.7 16.1-.9-4.3.6-8.45 1.5-4.1 4.95-6.8Q62.5 66 68.8 66.75q6.35.8 10.25 5.8 2.6 3.3 3.15 7.45.55 4.2-1.1 8.05 2.4-1 4.5-3 4.9-5.45 4.25-20.9m65.65-85.3q-9.1-5.15-33.15-7.15-32.45-1.95-53.25-4.15-37.6-3.9-70.9-12.85-31.35-8.45-68.1-21.4-46.3-16.4-48.25-17Q-139-90.25-149-88.95q-11.45 1.5-15.85 13.7-1.35 3.75-1 7.6-3.9 39.7 65.95 66.55Q-77 7.7-43.85 15.85q17.5 4.3 41.4 9.75 38 10.15 72.75 14.95 48.6 6.65 67-1.7 17.45-7.9 24.85-23.7 2.8-5.9 3.6-10.95.25-1.6.3-3.25.7-15.65-10.55-22.1m-7.65 43.6q-4.15 3.7-9.65 6.9-19.4 11.4-42.45 8.5Q67.7 34.35.8 18.45-73.8.75-111.25-13.25q-34.1-12.8-44.45-34-1.1-2.25-1.9-4.4.85.9 1.8 1.85 12.25 12.05 38.3 24.05Q-68.75-3.4 4.2 10.65q80.05 15.4 112.85 15.7 19.1.15 30.8-3.9z" fill-opacity=".3"/><path fill="#E8E8E8" d="M-87.9 20.65q-.15-2.85-4.5-6.85-4.5-4.15-10.35-6.55-6.75-2.75-12.35-1.85-6.6 1.1-10.4 7.3-2.5 4.1-3.1 12.9-.7 10.2 2.7 16.05-.9-4.25.65-8.4 1.5-4.1 4.95-6.8 5-3.95 11.35-3.15 6.3.75 10.25 5.8 2.6 3.3 3.15 7.45.5 4.2-1.1 8.05 2.6-1.2 4.5-3 4.9-5.5 4.25-20.95z" fill-opacity=".3"/></g><g transform="translate(359.45 197.8)"><animateTransform attributeName="transform" additive="replace" type="translate" repeatCount="indefinite" dur="1.917s" keyTimes="0;.478;.978;1" values="359.45,197.8;359.571,197.884;359.45,197.8;359.45,197.8"/><animateTransform attributeName="transform" additive="sum" type="rotate" repeatCount="indefinite" dur="1.917s" keyTimes="0;.478;.978;1" values="0,0,0;-8.476,0,0;0,0,0;0,0,0"/><animateTransform attributeName="transform" additive="sum" type="translate" repeatCount="indefinite" dur="1.917s" keyTimes="0;.478;.978;1" values="0,0;-.1,-.15;0,0;0,0"/><path fill="#FFF" d="M-68 7.9q-.65-1.55-2.2-2.25-1.5-.65-3.1 0-1.55.65-2.2 2.2-.65 1.5-.05 3.05.65 1.6 2.2 2.25 1.55.65 3.1 0t2.2-2.15q.65-1.55.05-3.1m89.7 56.2q1.2-1.15 1.2-2.85 0-1.7-1.15-2.9-1.2-1.2-2.85-1.2-1.7 0-2.9 1.15-1.2 1.2-1.2 2.9 0 1.65 1.15 2.85 1.2 1.2 2.9 1.2 1.65 0 2.85-1.15m6.5-18.8q-7.45-5.9-13.3-.6-2 1.85-3.75 6.6-2 5.5-1.05 9.25.2-2.5 1.65-4.55 1.5-2 3.8-2.95 3.4-1.35 6.7.05 3.35 1.45 4.75 4.8.9 2.2.55 4.6-.4 2.35-1.9 4.2 1.6-.15 2.95-.9 3.5-2.2 5.65-10.8.35-1.6-1.4-4.45-1.8-3-4.65-5.25m9.85-46.55q-20-8.05-36.85-18.2Q-14.65-29-32.75-41.9q-22.75-16.2-23.8-16.9-10.4-6.9-16.05-7.7-6.55-1-10.85 5-1.35 1.9-1.8 4.05-8.35 21.1 25.75 46.8 11.15 8.45 28.05 18.1 8.9 5.15 21.15 11.9Q9.05 30.9 27.2 38.95q25.6 11.35 37 9.65Q75 47 81.55 39.5q2.5-2.75 3.7-5.4.4-.85.7-1.75 2.85-8.45-2.3-13.75-4.2-4.3-17.05-9.2Q49.1 3.25 38.05-1.25m28.15 44.8q-12.45 3.2-24.6-2.05-14.8-6.3-49-25.55Q-45.5-5.5-63.85-19.1q-16.7-12.35-19-25.6-.2-1.2-.3-2.3 4.5 8.65 17.85 20.1Q-42.1-7-4.3 12.2q41.45 21.05 59.4 26.35 10.45 3.1 17.45 2.75-2.85 1.35-6.35 2.25z" fill-opacity=".2"/><path fill="#E8E8E8" d="M-75.75-7.1q-2 1.85-3.7 6.6-2 5.5-1.05 9.25.2-2.5 1.65-4.55 1.5-2 3.8-2.95 3.4-1.35 6.7.05 3.35 1.45 4.7 4.8.9 2.2.55 4.6-.35 2.35-1.85 4.2 1.55-.15 2.95-.9 3.6-2.3 5.6-10.8.4-1.55-1.35-4.45-1.85-3-4.65-5.25-7.5-5.95-13.35-.6z" fill-opacity=".2"/></g><g transform="translate(159.4 178.2)"><animateTransform attributeName="transform" additive="replace" type="translate" repeatCount="indefinite" dur="1.917s" keyTimes="0;.478;.978;1" values="159.4,178.2;159.414,178.299;159.4,178.2;159.4,178.2"/><animateTransform attributeName="transform" additive="sum" type="rotate" repeatCount="indefinite" dur="1.917s" keyTimes="0;.478;.978;1" values="0,0,0;-8.281,0,0;0,0,0;0,0,0"/><animateTransform attributeName="transform" additive="sum" type="translate" repeatCount="indefinite" dur="1.917s" keyTimes="0;.478;.978;1" values="0,0;0,-.1;0,0;0,0"/><path fill="#E8E8E8" d="M84.25 18.55q2.45 1.9 3.5 4.8 1.05 2.85.4 5.85 2.4-4.1 1.9-11.25-.4-6.15-2.15-9.05Q82.85.65 72 5.1q-4.15 1.7-7.25 4.6-3.05 2.8-3.15 4.8-.55 10.8 2.95 14.65 1.3 1.3 3.15 2.1-1.15-2.7-.75-5.6.4-2.95 2.2-5.25 2.75-3.5 7.15-4.05 4.45-.55 7.95 2.2z" fill-opacity=".2"/><path fill="#FFF" d="M81.55 30.1q1.25-1.6 1-3.65t-1.85-3.3q-1.65-1.3-3.7-1.05-2.05.25-3.3 1.9-1.25 1.6-1 3.65t1.85 3.3q1.6 1.3 3.65 1.05 2.1-.25 3.35-1.9m-126 31.7q1.8-1 2.35-3 .55-1.95-.45-3.75t-3-2.35q-2-.55-3.75.45-1.8 1-2.35 3t.45 3.8q1 1.8 3 2.35 2 .5 3.75-.5m10-13.4q-.4-6.15-2.15-9.05-5.05-8.25-15.9-3.8-4.15 1.7-7.25 4.6-3.05 2.8-3.15 4.8-.55 10.7 2.95 14.65 1.3 1.3 3.15 2.1-1.1-2.7-.75-5.6.4-2.9 2.2-5.25 2.75-3.5 7.15-4.05 4.4-.55 7.95 2.2 2.45 1.85 3.5 4.75 1.05 2.9.4 5.9 2.4-4.1 1.9-11.25m83.4-95.1q-25.7 9.1-47.7 15-23.3 6.3-49.6 9-27.1 2.05-37.3 2.9-16.85 1.4-23.2 5-7.9 4.5-7.4 15.5.1 2.2.7 4.15.75 2.95 2.05 5.8 5.15 11.05 17.35 16.6 12.9 5.85 46.95 1.15 24.35-3.35 50.9-10.45 6.2-1.65 29-6.85Q53.9 5.4 69.95-.75q48.75-18.7 46.25-46.35.25-2.8-.75-5.55-3.05-8.55-11.1-9.6-7-.95-21.6 3.65-1.35.45-33.8 11.9M82.3-18q19.65-9 27.95-17.7-.55 1.3-1.2 2.65Q101.8-18.2 77.9-9.25 51.7.55-.55 12.95q-46.75 11.1-66.5 13.6-16.15 2.05-29.7-5.95-3.85-2.25-6.7-4.8 8.1 2.8 21.45 2.7 23.05-.2 79.05-11Q48.15-2.3 82.3-18z" fill-opacity=".2"/></g></svg>