<?xml version="1.0" encoding="utf-8"?><svg id="lights_glow" image-rendering="auto" baseProfile="basic" version="1.1" x="0px" y="0px" width="375" height="335" xmlns="http://www.w3.org/2000/svg" xmlns:xlink="http://www.w3.org/1999/xlink"><defs><g id="RAYSf0" overflow="visible"><path fill="#FFF" stroke="none" d="M54.25 49.4L50.65 45.6Q45.15 39.7 39.2 45.3 33.25 50.9 38.75 56.8L42.35 60.6Q45 63.45 48.35 63.3 51.35 63.2 53.8 60.9 56.25 58.6 56.55 55.6 56.9 52.25 54.25 49.4M-49.6 45.6L-53.2 49.4Q-55.85 52.25 -55.5 55.6 -55.2 58.6 -52.75 60.9 -50.3 63.2 -47.3 63.3 -43.95 63.45 -41.3 60.6L-37.7 56.8Q-32.2 50.9 -38.15 45.3 -44.1 39.7 -49.6 45.6M-60.95 -.25L-66.25 -.25Q-70.1 -.25 -72.3 2.3 -74.3 4.55 -74.3 7.9 -74.3 11.25 -72.3 13.5 -70.1 16.05 -66.25 16.05L-60.95 16.05Q-52.9 16.05 -52.9 7.9 -52.9 -.25 -60.95 -.25M-41.3 -44.8Q-43.95 -47.65 -47.3 -47.5 -50.3 -47.4 -52.75 -45.1 -55.2 -42.8 -55.5 -39.8 -55.85 -36.45 -53.2 -33.6L-49.6 -29.8Q-44.1 -23.9 -38.15 -29.5 -32.2 -35.1 -37.7 -41L-41.3 -44.8M66.3 -.25L61 -.25Q52.95 -.25 52.95 7.9 52.95 16.05 61 16.05L66.3 16.05Q70.15 16.05 72.35 13.5 74.35 11.25 74.35 7.9 74.35 4.55 72.35 2.3 70.15 -.25 66.3 -.25M38.75 -41Q33.25 -35.1 39.2 -29.5 45.15 -23.9 50.65 -29.8L54.25 -33.6Q56.9 -36.45 56.55 -39.8 56.25 -42.8 53.8 -45.1 51.35 -47.4 48.35 -47.5 45 -47.65 42.35 -44.8L38.75 -41M7.95 -53.2L7.95 -58.5Q7.95 -62.35 5.4 -64.55 3.15 -66.55 -.2 -66.55 -3.55 -66.55 -5.8 -64.55 -8.35 -62.35 -8.35 -58.5L-8.35 -53.2Q-8.35 -45.15 -.2 -45.15 7.95 -45.15 7.95 -53.2Z" test="RAYS"/></g></defs><g id="Scene-1" overflow="visible"><g id="light-copyf0" transform="matrix(1.799 0 0 1.799 184.05 200.55)" opacity=".21"><animate attributeName="opacity" repeatCount="indefinite" dur="3s" keyTimes="0;.486;.986;1" values=".21;.61;.21;.21"/><path fill="#FFF" stroke="none" d="M-10.55 42.3Q-9.8 45.1 -7.75 47.15 -5.7 49.2 -2.9 49.9 1.35 51.05 5.25 48.8 9.1 46.6 10.2 42.3L-10.55 42.3M-13.8 37.3Q-14.3 37.8 -14.3 38.5 -14.3 39.2 -13.8 39.7 -13.3 40.2 -12.6 40.2L12.3 40.2Q13 40.2 13.5 39.7 14 39.2 14 38.5 14 37.8 13.5 37.3 13 36.8 12.3 36.8L-12.6 36.8Q-13.3 36.8 -13.8 37.3M-12.6 31.65Q-13.3 31.65 -13.8 32.15 -14.3 32.6 -14.3 33.3 -14.3 34 -13.8 34.45 -13.3 34.95 -12.6 34.95L12.3 34.95Q13 34.95 13.5 34.45 14 33.95 14 33.3 14 32.65 13.5 32.15 13 31.65 12.3 31.65L-12.6 31.65M25.9 -7.05Q25.9 -17.85 18.3 -25.5 10.65 -33.15 -.15 -33.15 -6.85 -33.15 -12.65 -29.95 -18.5 -26.75 -22.1 -21.15 -27.95 -12.05 -25.65 -1.5 -23.35 9.05 -14.3 14.85L-14.3 29.55 13.95 29.55 13.95 14.85Q19.55 11.25 22.7 5.4 25.9 -.4 25.9 -7.05Z" test="light copy"/></g><use xlink:href="#RAYSf0" transform="matrix(.724 0 0 .724 73 269.45)" opacity=".3"><animate attributeName="opacity" repeatCount="indefinite" dur="3s" keyTimes="0;.486;.986;1" values=".3;.61;.3;.3"/></use><g id="light-copy-3f0" transform="matrix(1.086 0 0 1.086 88.2 158.7)" opacity=".25"><animate attributeName="opacity" repeatCount="indefinite" dur="3s" keyTimes="0;.486;.986;1" values=".25;.61;.25;.25"/><path fill="#FFF" stroke="none" d="M-10.55 42.3Q-9.8 45.1 -7.75 47.15 -5.7 49.2 -2.9 49.9 1.35 51.05 5.25 48.8 9.1 46.6 10.2 42.3L-10.55 42.3M-13.8 37.3Q-14.3 37.8 -14.3 38.5 -14.3 39.2 -13.8 39.7 -13.3 40.2 -12.6 40.2L12.3 40.2Q13 40.2 13.5 39.7 14 39.2 14 38.5 14 37.8 13.5 37.3 13 36.8 12.3 36.8L-12.6 36.8Q-13.3 36.8 -13.8 37.3M-12.6 31.65Q-13.3 31.65 -13.8 32.15 -14.3 32.6 -14.3 33.3 -14.3 34 -13.8 34.45 -13.3 34.95 -12.6 34.95L12.3 34.95Q13 34.95 13.5 34.45 14 33.95 14 33.3 14 32.65 13.5 32.15 13 31.65 12.3 31.65L-12.6 31.65M25.9 -7.05Q25.9 -17.85 18.3 -25.5 10.65 -33.15 -.15 -33.15 -6.85 -33.15 -12.65 -29.95 -18.5 -26.75 -22.1 -21.15 -27.95 -12.05 -25.65 -1.5 -23.35 9.05 -14.3 14.85L-14.3 29.55 13.95 29.55 13.95 14.85Q19.55 11.25 22.7 5.4 25.9 -.4 25.9 -7.05Z" test="light copy 3"/></g><use xlink:href="#RAYSf0" transform="matrix(.596 0 0 .596 87.55 146)" opacity=".25"><animate attributeName="opacity" repeatCount="indefinite" dur="3s" keyTimes="0;.486;.986;1" values=".25;.61;.25;.25"/></use><g id="light-copy-2f0" transform="matrix(-.733 0 0 -.733 325.75 158.15)" opacity=".4"><animate attributeName="opacity" repeatCount="indefinite" dur="3s" keyTimes="0;.486;.986;1" values=".4;.61;.4;.4"/><path fill="#FFF" stroke="none" d="M-10.55 42.3Q-9.8 45.1 -7.75 47.15 -5.7 49.2 -2.9 49.9 1.35 51.05 5.25 48.8 9.1 46.6 10.2 42.3L-10.55 42.3M-13.8 37.3Q-14.3 37.8 -14.3 38.5 -14.3 39.2 -13.8 39.7 -13.3 40.2 -12.6 40.2L12.3 40.2Q13 40.2 13.5 39.7 14 39.2 14 38.5 14 37.8 13.5 37.3 13 36.8 12.3 36.8L-12.6 36.8Q-13.3 36.8 -13.8 37.3M-12.6 31.65Q-13.3 31.65 -13.8 32.15 -14.3 32.6 -14.3 33.3 -14.3 34 -13.8 34.45 -13.3 34.95 -12.6 34.95L12.3 34.95Q13 34.95 13.5 34.45 14 33.95 14 33.3 14 32.65 13.5 32.15 13 31.65 12.3 31.65L-12.6 31.65M25.9 -7.05Q25.9 -17.85 18.3 -25.5 10.65 -33.15 -.15 -33.15 -6.85 -33.15 -12.65 -29.95 -18.5 -26.75 -22.1 -21.15 -27.95 -12.05 -25.65 -1.5 -23.35 9.05 -14.3 14.85L-14.3 29.55 13.95 29.55 13.95 14.85Q19.55 11.25 22.7 5.4 25.9 -.4 25.9 -7.05Z" test="light copy 2"/></g><use xlink:href="#RAYSf0" transform="matrix(-.428 0 0 -.428 326 166.9)" opacity=".21"><animate attributeName="opacity" repeatCount="indefinite" dur="3s" keyTimes="0;.486;.986;1" values=".21;.61;.21;.21"/></use><g id="light-copy-4f0" transform="matrix(1.311 0 0 1.311 73.05 284.65)" opacity=".3"><animate attributeName="opacity" repeatCount="indefinite" dur="3s" keyTimes="0;.486;.986;1" values=".3;.61;.3;.3"/><path fill="#FFF" stroke="none" d="M-10.55 42.3Q-9.8 45.1 -7.75 47.15 -5.7 49.2 -2.9 49.9 1.35 51.05 5.25 48.8 9.1 46.6 10.2 42.3L-10.55 42.3M-13.8 37.3Q-14.3 37.8 -14.3 38.5 -14.3 39.2 -13.8 39.7 -13.3 40.2 -12.6 40.2L12.3 40.2Q13 40.2 13.5 39.7 14 39.2 14 38.5 14 37.8 13.5 37.3 13 36.8 12.3 36.8L-12.6 36.8Q-13.3 36.8 -13.8 37.3M-12.6 31.65Q-13.3 31.65 -13.8 32.15 -14.3 32.6 -14.3 33.3 -14.3 34 -13.8 34.45 -13.3 34.95 -12.6 34.95L12.3 34.95Q13 34.95 13.5 34.45 14 33.95 14 33.3 14 32.65 13.5 32.15 13 31.65 12.3 31.65L-12.6 31.65M25.9 -7.05Q25.9 -17.85 18.3 -25.5 10.65 -33.15 -.15 -33.15 -6.85 -33.15 -12.65 -29.95 -18.5 -26.75 -22.1 -21.15 -27.95 -12.05 -25.65 -1.5 -23.35 9.05 -14.3 14.85L-14.3 29.55 13.95 29.55 13.95 14.85Q19.55 11.25 22.7 5.4 25.9 -.4 25.9 -7.05Z" test="light copy 4"/></g><use xlink:href="#RAYSf0" transform="translate(183.65 180.5)" opacity=".21"><animate attributeName="opacity" repeatCount="indefinite" dur="3s" keyTimes="0;.486;.986;1" values=".21;.61;.21;.21"/></use></g></svg>