<svg xmlns="http://www.w3.org/2000/svg" xmlns:xlink="http://www.w3.org/1999/xlink" width="334.121" height="252.508" viewBox="0 0 334.121 252.508">
  <defs>
    <linearGradient id="linear-gradient" x1="0.542" y1="-0.093" x2="0.491" y2="0.787" gradientUnits="objectBoundingBox">
      <stop offset="0.173" stop-color="#9b122a"/>
      <stop offset="0.714" stop-color="#f12a4d"/>
      <stop offset="1" stop-color="#f84262"/>
    </linearGradient>
    <linearGradient id="linear-gradient-2" x1="0.834" y1="0.439" x2="0.24" y2="0.802" gradientUnits="objectBoundingBox">
      <stop offset="0" stop-color="#fff" stop-opacity="0.8"/>
      <stop offset="1" stop-color="#fff" stop-opacity="0"/>
    </linearGradient>
    <linearGradient id="linear-gradient-3" x1="13.265" y1="8.57" x2="13.221" y2="8.591" xlink:href="#linear-gradient-2"/>
  </defs>
  <g id="Q2" transform="translate(-20.542 -171.089)">
    <g id="Group_17728" data-name="Group 17728" transform="translate(52.42 182.69)">
      <path id="Path_2" data-name="Path 2" d="M2121.109,2144.3q-2.382-1.55-4.635-3.3c-12.152-9.47-18.369-24.351-28.815-35.456-10.223-10.866-21.966-21.4-34.519-29.479-26.312-16.926-57.238-23.019-85.765-15.03-30.476,8.537-56.691,31.281-69.95,60.067a114.588,114.588,0,0,0-1.089,91.921c11.356,26.444,34.252,51.475,61.88,60.8,21.021,7.1,43.255,4.7,64.133.572,28.9-5.72,56.214-11.679,86.615-8.19,18.758,2.153,36.082,6.159,54.079.991,16.725-4.8,30.8-18.46,38.926-33.515a68.973,68.973,0,0,0,6.206-49.519c-3.3-12.862-11.924-26.063-24.727-29.646-8.481-2.373-17.094-.138-25.67.22A63.3,63.3,0,0,1,2121.109,2144.3Z" transform="translate(-1797.304 -2165.113) rotate(3)" fill="#84a4fc" opacity="0.12"/>
      <path id="Path_3" data-name="Path 3" d="M1953.947,2122.454q1.782-1.159,3.467-2.47c9.091-7.085,13.742-18.217,21.557-26.525a141.836,141.836,0,0,1,25.823-22.053c19.685-12.663,42.82-17.22,64.161-11.244,22.8,6.387,42.411,23.4,52.331,44.936a85.727,85.727,0,0,1,.814,68.767c-8.5,19.783-25.625,38.508-46.292,45.488-15.726,5.31-32.36,3.519-47.978.428-21.617-4.278-42.054-8.737-64.8-6.126-14.033,1.611-26.993,4.607-40.456.742-12.512-3.594-23.039-13.81-29.121-25.073a51.6,51.6,0,0,1-4.643-37.045c2.468-9.622,8.92-19.5,18.5-22.178,6.345-1.775,12.788-.1,19.2.165A47.35,47.35,0,0,0,1953.947,2122.454Z" transform="translate(-1895.438 -1981.831)" fill="#fff" opacity="0.4"/>
      <path id="Path_35799" data-name="Path 35799" d="M1957.442,2125.854q1.875-1.22,3.649-2.6c9.567-7.456,14.462-19.172,22.686-27.915a149.25,149.25,0,0,1,27.177-23.208c20.716-13.326,45.063-18.123,67.523-11.833,23.993,6.722,44.633,24.628,55.073,47.291a90.22,90.22,0,0,1,.857,72.371c-8.941,20.819-26.967,40.526-48.718,47.871-16.55,5.588-34.055,3.7-50.492.45-22.75-4.5-44.258-9.195-68.192-6.447-14.768,1.7-28.408,4.849-42.576.78-13.168-3.782-24.246-14.533-30.647-26.386a54.3,54.3,0,0,1-4.886-38.987c2.6-10.126,9.388-20.52,19.468-23.34,6.677-1.869,13.458-.108,20.21.173A49.829,49.829,0,0,0,1957.442,2125.854Z" transform="translate(-1457.678 -2346.061) rotate(10)" fill="#e6edfe" opacity="0.304" style="mix-blend-mode: multiply;isolation: isolate"/>
    </g>
    <g id="Group_14353" data-name="Group 14353" transform="translate(8.954 91.69)">
      <g id="Group_1919" data-name="Group 1919" transform="translate(57.77 158.452)" opacity="0.999" style="isolation: isolate">
        <g id="Group_1918" data-name="Group 1918" transform="translate(0 0)" opacity="0.373" style="mix-blend-mode: multiply;isolation: isolate">
          <path id="Path_1451" data-name="Path 1451" d="M369.288,278.8V211.455q0-19.506-19.43-19.506H294.63q-19.43,0-19.43,19.506V278.8q0,19.506,19.43,19.506h55.229Q369.288,298.305,369.288,278.8Z" transform="translate(-275.2 -191.949)" fill="#fff"/>
        </g>
      </g>
      <g id="Group_1921" data-name="Group 1921" transform="translate(68.044 128.87)">
        <g id="Group_1920" data-name="Group 1920" transform="translate(-6)">
          <path id="Path_1452" data-name="Path 1452" d="M504.974,196.338a14.394,14.394,0,0,0-10.589-4.389H439.01a15.068,15.068,0,0,0,0,30.137h55.375a15.122,15.122,0,0,0,15.009-15.068A14.587,14.587,0,0,0,504.974,196.338Z" transform="translate(-424 -191.949)" fill="#fff"/>
        </g>
      </g>
      <g id="Group_1923" data-name="Group 1923" transform="translate(71.953 178.383)" opacity="0.885">
        <g id="Group_1922" data-name="Group 1922">
          <path id="Path_1453" data-name="Path 1453" d="M362.035,231.418q0-9.753-9.715-9.753H306.515q-9.715,0-9.715,9.753V277.4q0,9.753,9.715,9.753H352.32q9.715,0,9.715-9.753Z" transform="translate(-296.8 -221.665)" fill="#fdfdfd"/>
        </g>
      </g>
      <path id="Union_1" data-name="Union 1" d="M15.518,42.5q-3.662,0-3.661-3.678V30.957H3.724Q0,30.957,0,27.217V17.342Q0,13.6,3.724,13.6h8.133V3.676Q11.858,0,15.518,0H25.48q3.662,0,3.66,3.676V13.6h9.454q3.724,0,3.724,3.74v9.875q0,3.74-3.724,3.74H29.14v7.861q0,3.677-3.66,3.678Z" transform="translate(83.662 189.935)" fill="#00a8ff" opacity="0.3"/>
      <g id="Group_11956" data-name="Group 11956" transform="translate(248.202 157.209)" style="isolation: isolate">
        <g id="Group_11913" data-name="Group 11913" transform="translate(50.242 0) rotate(40)" opacity="0.664">
          <path id="Path_16294" data-name="Path 16294" d="M15.081,0A15.1,15.1,0,0,0,0,15.08v48a15.079,15.079,0,1,0,30.158,0v-48A15.1,15.1,0,0,0,15.081,0Zm0,5.8a9.289,9.289,0,0,1,9.278,9.281V35.925a36.185,36.185,0,0,1-18.559,0V15.08A9.29,9.29,0,0,1,15.081,5.8Zm0,66.565A9.291,9.291,0,0,1,5.8,63.082V41.9a41.98,41.98,0,0,0,9.281,1.061A41.95,41.95,0,0,0,24.359,41.9V63.082A9.29,9.29,0,0,1,15.081,72.364Z" transform="translate(0 0)" fill="#fff" stroke="rgba(0,0,0,0)" stroke-miterlimit="10" stroke-width="1"/>
        </g>
        <path id="Subtraction_1" data-name="Subtraction 1" d="M9.281,66.565A9.292,9.292,0,0,1,0,57.283V36.1a42.084,42.084,0,0,0,9.281,1.06A42.054,42.054,0,0,0,18.56,36.1V57.283A9.291,9.291,0,0,1,9.281,66.565ZM9.224,33.419A38.145,38.145,0,0,1,.459,32.374C.476,32.249.3,30.2,0,30.126V9.281a9.28,9.28,0,1,1,18.56,0l-.143,22.94A36.027,36.027,0,0,1,9.224,33.419Z" transform="translate(49.857 5.299) rotate(40)" fill="#fff" stroke="rgba(0,0,0,0)" stroke-miterlimit="10" stroke-width="1" opacity="0.628"/>
      </g>
      <g id="Group_11957" data-name="Group 11957" transform="translate(203.53 143.582)" style="isolation: isolate">
        <g id="Group_11913-2" data-name="Group 11913" transform="translate(50.242 0) rotate(40)" opacity="0.664">
          <path id="Path_16294-2" data-name="Path 16294" d="M15.081,0A15.1,15.1,0,0,0,0,15.08v48a15.079,15.079,0,1,0,30.158,0v-48A15.1,15.1,0,0,0,15.081,0Zm0,5.8a9.289,9.289,0,0,1,9.278,9.281V35.925a36.185,36.185,0,0,1-18.559,0V15.08A9.29,9.29,0,0,1,15.081,5.8Zm0,66.565A9.291,9.291,0,0,1,5.8,63.082V41.9a41.98,41.98,0,0,0,9.281,1.061A41.95,41.95,0,0,0,24.359,41.9V63.082A9.29,9.29,0,0,1,15.081,72.364Z" transform="translate(0 0)" fill="#fff" stroke="rgba(0,0,0,0)" stroke-miterlimit="10" stroke-width="1"/>
        </g>
        <path id="Subtraction_1-2" data-name="Subtraction 1" d="M9.281,66.565A9.292,9.292,0,0,1,0,57.283V36.1a42.084,42.084,0,0,0,9.281,1.06A42.054,42.054,0,0,0,18.56,36.1V57.283A9.291,9.291,0,0,1,9.281,66.565ZM9.224,33.419A38.145,38.145,0,0,1,.459,32.374C.476,32.249.3,30.2,0,30.126V9.281a9.28,9.28,0,1,1,18.56,0l-.143,22.94A36.027,36.027,0,0,1,9.224,33.419Z" transform="translate(49.857 5.299) rotate(40)" fill="#fff" stroke="rgba(0,0,0,0)" stroke-miterlimit="10" stroke-width="1" opacity="0.628"/>
      </g>
    </g>
    <g id="Group_11979" data-name="Group 11979" transform="translate(-6.887 142.647)">
      <g id="Group_11978" data-name="Group 11978" transform="translate(144 102.353)">
        <g id="Group_11961" data-name="Group 11961" transform="translate(0 44.849)">
          <g id="Group_11952" data-name="Group 11952" transform="translate(0 0)">
            <path id="Path_16379" data-name="Path 16379" d="M-412.584,132.02a46.386,46.386,0,0,1-46.386,46.386,46.387,46.387,0,0,1-46.387-46.386c0-22.558,35.965-66.885,44.559-77.155a2.38,2.38,0,0,1,3.656,0C-448.548,65.135-412.584,109.462-412.584,132.02Z" transform="translate(505.357 -54.009)" fill="url(#linear-gradient)"/>
            <g id="pericarditis" transform="translate(12.434 20.797)">
              <g id="Group_2054" data-name="Group 2054" transform="translate(0 0)">
                <g id="Group_2047" data-name="Group 2047" transform="translate(35.184)">
                  <g id="Group_2046" data-name="Group 2046">
                    <g id="Group_2045" data-name="Group 2045">
                      <path id="Path_1591" data-name="Path 1591" d="M-445.35,83.149a13.6,13.6,0,0,1,1.269,1.021,1.722,1.722,0,0,0,1.35.412,1.787,1.787,0,0,0,1.214-.662,1.58,1.58,0,0,0,.421-1.3,1.792,1.792,0,0,0-.66-1.215,15.97,15.97,0,0,0-1.374-1.094,1.786,1.786,0,0,0-1.342-.368,1.645,1.645,0,0,0-1.17.655,1.907,1.907,0,0,0-.368,1.342,1.708,1.708,0,0,0,.662,1.214m24.432,40.5a1.726,1.726,0,0,0,.468-1.313q-.64-21.656-17.657-37.716a1.886,1.886,0,0,0-1.32-.51,1.721,1.721,0,0,0-1.229.572,1.869,1.869,0,0,0-.517,1.276,1.788,1.788,0,0,0,.58,1.274q15.92,14.966,16.545,35.207a1.794,1.794,0,0,0,.581,1.275,1.692,1.692,0,0,0,1.269.472A1.652,1.652,0,0,0-420.916,123.655Z" transform="translate(446.021 -79.923)" fill="url(#linear-gradient-2)"/>
                    </g>
                  </g>
                </g>
                <g id="Group_2053" data-name="Group 2053" transform="translate(0 46.069)">
                  <g id="Group_2052" data-name="Group 2052">
                    <g id="Group_2051" data-name="Group 2051">
                      <path id="Path_1593" data-name="Path 1593" d="M-472.63,173.627a1.632,1.632,0,0,1-1.266-.387q-15.424-12.519-15.966-34.047a1.822,1.822,0,0,1,.5-1.26,1.907,1.907,0,0,1,1.229-.591,1.791,1.791,0,0,1,1.276.327,1.468,1.468,0,0,1,.55,1.138q.461,20.106,14.857,31.83a1.466,1.466,0,0,1,.549,1.138,1.64,1.64,0,0,1-.49,1.2A1.829,1.829,0,0,1-472.63,173.627Z" transform="translate(489.863 -137.328)" fill="url(#linear-gradient-3)"/>
                    </g>
                  </g>
                </g>
              </g>
            </g>
          </g>
        </g>
        <g id="Group_11965" data-name="Group 11965" transform="translate(61.226 -8.178)">
          <g id="Group_11952-2" data-name="Group 11952">
            <path id="Path_16379-2" data-name="Path 16379" d="M-465.81,87.263a19.773,19.773,0,0,1-19.773,19.773,19.774,19.774,0,0,1-19.774-19.773c0-9.616,15.331-28.511,18.994-32.889a1.015,1.015,0,0,1,1.559,0C-481.141,58.752-465.81,77.647-465.81,87.263Z" transform="translate(505.357 -54.009)" fill="url(#linear-gradient)"/>
            <g id="pericarditis-2" data-name="pericarditis" transform="translate(5.3 8.865)">
              <g id="Group_2054-2" data-name="Group 2054" transform="translate(0 0)">
                <g id="Group_2047-2" data-name="Group 2047" transform="translate(14.998)">
                  <g id="Group_2046-2" data-name="Group 2046">
                    <g id="Group_2045-2" data-name="Group 2045">
                      <path id="Path_1591-2" data-name="Path 1591" d="M-445.735,81.3a5.8,5.8,0,0,1,.541.435.734.734,0,0,0,.575.176.762.762,0,0,0,.518-.282.673.673,0,0,0,.179-.556.764.764,0,0,0-.282-.518,6.8,6.8,0,0,0-.586-.466.761.761,0,0,0-.572-.157.7.7,0,0,0-.5.279.813.813,0,0,0-.157.572.728.728,0,0,0,.282.518m10.415,17.266a.736.736,0,0,0,.2-.56,22.391,22.391,0,0,0-7.527-16.077.8.8,0,0,0-.563-.217.733.733,0,0,0-.524.244.8.8,0,0,0-.22.544.762.762,0,0,0,.247.543,20.9,20.9,0,0,1,7.053,15.008.765.765,0,0,0,.248.544.721.721,0,0,0,.541.2A.7.7,0,0,0-435.32,98.565Z" transform="translate(446.021 -79.923)" fill="url(#linear-gradient-2)"/>
                    </g>
                  </g>
                </g>
                <g id="Group_2053-2" data-name="Group 2053" transform="translate(0 19.638)">
                  <g id="Group_2052-2" data-name="Group 2052">
                    <g id="Group_2051-2" data-name="Group 2051">
                      <path id="Path_1593-2" data-name="Path 1593" d="M-482.517,152.8a.7.7,0,0,1-.54-.165q-6.575-5.337-6.806-14.513a.777.777,0,0,1,.212-.537.813.813,0,0,1,.524-.252.763.763,0,0,1,.544.14.626.626,0,0,1,.234.485q.2,8.571,6.333,13.568a.625.625,0,0,1,.234.485.7.7,0,0,1-.209.512A.78.78,0,0,1-482.517,152.8Z" transform="translate(489.863 -137.328)" fill="url(#linear-gradient-3)"/>
                    </g>
                  </g>
                </g>
              </g>
            </g>
          </g>
        </g>
      </g>
    </g>
  </g>
</svg>
