<svg xmlns="http://www.w3.org/2000/svg" xmlns:xlink="http://www.w3.org/1999/xlink" width="336.212" height="247.513" viewBox="0 0 336.212 247.513">
  <defs>
    <clipPath id="clip-path">
      <path id="Path_29117" data-name="Path 29117" d="M-7881.828-16116.987c11.352-20.66-27.155-40.758-31.321-65.137s123.749,38.575,123.749,38.575l14.644,12.264-2.451,9.324s-51.333-1.235-77.6,0S-7881.828-16116.987-7881.828-16116.987Z" fill="none" stroke="#707070" stroke-width="1"/>
    </clipPath>
    <clipPath id="clip-path-2">
      <path id="Path_29118" data-name="Path 29118" d="M-7699.28-16243.013s39.444-9.605,64.148-5.977,35.53,9.368,46.213,30.457-10.928,66.382-10.928,66.382l-45.134.994-19.323-43.389,11.024-14.9-44.015-9.089Z" fill="none" stroke="#707070" stroke-width="1"/>
    </clipPath>
    <linearGradient id="linear-gradient" x1="1.006" y1="-0.258" x2="0.368" y2="0.787" gradientUnits="objectBoundingBox">
      <stop offset="0.173" stop-color="#97152d"/>
      <stop offset="0.714" stop-color="#ec2e51"/>
      <stop offset="1" stop-color="#f34565"/>
    </linearGradient>
    <linearGradient id="linear-gradient-2" x1="0.046" y1="0.235" x2="0.945" y2="0.831" xlink:href="#linear-gradient"/>
    <linearGradient id="linear-gradient-3" x1="0.834" y1="0.439" x2="0.24" y2="0.802" gradientUnits="objectBoundingBox">
      <stop offset="0" stop-color="#fff" stop-opacity="0.8"/>
      <stop offset="1" stop-color="#fff" stop-opacity="0"/>
    </linearGradient>
  </defs>
  <g id="Group_117384" data-name="Group 117384" transform="translate(-18.583 -166.736)">
    <path id="Path_29046" data-name="Path 29046" d="M0,45.427s97.093.436,100.838-.1c7.539-1.071,18.25-3.643,21.073-17.754C125.83,7.983,110.154,1.017,103.188.147c-7.457-.932-23.511,2.176-23.511,20.9" transform="translate(179.6 369.596) rotate(180)" fill="none" stroke="#fff" stroke-linecap="round" stroke-miterlimit="10" stroke-width="8" opacity="0.552"/>
    <path id="Path_29047" data-name="Path 29047" d="M-34.98.264S67.051-.267,70.8.264c7.539,1.071,18.25,3.643,21.073,17.754,3.919,19.594-11.755,26.56-18.721,27.43-7.459.932-23.513-2.177-23.513-20.9" transform="translate(115.1 309.822) rotate(180)" fill="none" stroke="#fff" stroke-linecap="round" stroke-miterlimit="10" stroke-width="8" opacity="0.552"/>
    <line id="Line_645" data-name="Line 645" x2="40.802" transform="translate(187.5 359.631) rotate(180)" fill="none" stroke="#fff" stroke-linecap="round" stroke-miterlimit="10" stroke-width="8"/>
    <g id="Group_25859" data-name="Group 25859">
      <g id="Group_25857" data-name="Group 25857" transform="translate(7935.206 16439)">
        <path id="Path_357" data-name="Path 357" d="M31.133,130.21c-14.268,14.989-23.887,57.232.691,84.479S57.078,250.283,42.1,268.663s-20.622,54.622,15.241,69.991,71.388-10.353,96.475-24.3c24.074-13.383,76.2-13.486,110.709-3.1s65.3,2.726,80.8-27.142-4.555-51.737,0-97.885c6.256-50.968-26.157-69.6-86.417-61.906-43.438,5.545-60.318,18.5-85.537,7.494S90.188,68.172,31.133,130.21Z" transform="translate(-7931.725 -16372.765)" fill="#84a4fc" opacity="0.2"/>
        <path id="Path_29116" data-name="Path 29116" d="M0,45.427s97.093.436,100.838-.1c7.539-1.071,18.25-3.643,21.073-17.754C125.83,7.983,110.154,1.017,103.188.147c-7.457-.932-23.511,2.176-23.511,20.9" transform="translate(-7755.4 -16069.115) rotate(180)" fill="none" stroke="#fff" stroke-linecap="round" stroke-miterlimit="10" stroke-width="8" opacity="0.552"/>
        <line id="Line_647" data-name="Line 647" x2="40.802" transform="translate(-7809.544 -16144.483) rotate(180)" fill="none" stroke="#fff" stroke-linecap="round" stroke-miterlimit="10" stroke-width="8" opacity="0.553"/>
        <g id="Mask_Group_16229" data-name="Mask Group 16229" clip-path="url(#clip-path)">
          <path id="Path_29115" data-name="Path 29115" d="M-34.98.264S67.051-.267,70.8.264c7.539,1.071,18.25,3.643,21.073,17.754,3.919,19.594-11.755,26.56-18.721,27.43-7.459.932-23.513-2.177-23.513-20.9" transform="translate(-7819.901 -16128.889) rotate(180)" fill="none" stroke="#fff" stroke-linecap="round" stroke-miterlimit="10" stroke-width="8" opacity="0.552"/>
        </g>
        <g id="Mask_Group_16230" data-name="Mask Group 16230" clip-path="url(#clip-path-2)">
          <path id="Path_29113" data-name="Path 29113" d="M0,45.427s97.093.436,100.838-.1c7.539-1.071,18.25-3.643,21.073-17.754C125.83,7.983,110.154,1.017,103.188.147c-7.457-.932-23.511,2.176-23.511,20.9" transform="translate(-7523.975 -16160.115) rotate(180)" fill="none" stroke="#fff" stroke-linecap="round" stroke-miterlimit="10" stroke-width="8" opacity="0.551"/>
          <path id="Path_29114" data-name="Path 29114" d="M-34.98.264S67.051-.267,70.8.264c7.539,1.071,18.25,3.643,21.073,17.754,3.919,19.594-11.755,26.56-18.721,27.43-7.459.932-23.513-2.177-23.513-20.9" transform="translate(-7594.98 -16219.889) rotate(180)" fill="none" stroke="#fff" stroke-linecap="round" stroke-miterlimit="10" stroke-width="8" opacity="0.551"/>
        </g>
      </g>
      <g id="Group_25804" data-name="Group 25804" transform="translate(8776.643 15238.863)">
        <path id="Path_29049" data-name="Path 29049" d="M47.329,47.51,35.534,55.576c-7.076,4.84-17.148,2.292-22.383-5.662L3.121,32.312C-2.114,24.359-.606,13.891,6.469,9.052l9.651-6.6C23.2-2.387,33.269.161,38.5,8.114L50.679,24.251C55.912,32.2,54.406,42.67,47.329,47.51Z" transform="translate(-8670.885 -15022.447) rotate(-9)" fill="#fff" opacity="0.467"/>
        <path id="Path_29039" data-name="Path 29039" d="M580.719-1067.422s2.484-41.314,41.2-39.785c35.529,1.4,27.971,45.49,71.327,45.856,37.78.32,59.242-73.132-13.386-85.138s-104.2,52.756-138.607,16.328" transform="translate(-9163.483 -13846.646)" fill="none" stroke="#fc98b3" stroke-miterlimit="10" stroke-width="5" opacity="0.399"/>
        <path id="Path_29040" data-name="Path 29040" d="M629-994.622H522.423c-6.833,0-12.423-6.493-12.423-14.428l11.363-62.521c0-7.936,5.591-14.428,12.423-14.428H618.67c6.833,0,12.423,6.493,12.423,14.428l10.327,62.521C641.42-1001.115,635.829-994.622,629-994.622Z" transform="translate(-9159.179 -13829.991)" fill="url(#linear-gradient)"/>
        <path id="Path_29041" data-name="Path 29041" d="M624.885-998.649H526.321c-6.776,0-12.321-6.2-12.321-13.78l8.214-59.712c0-7.1,4.873-13,11.066-13.708A320,320,0,0,1,575.6-1089c25.668,0,42.672,3.091,42.957,3.114,6.379.5,11.459,6.491,11.459,13.746l7.187,59.712C637.206-1004.849,631.662-998.649,624.885-998.649Z" transform="translate(-9159.071 -13830.071)" fill="url(#linear-gradient-2)"/>
        <path id="Path_29042" data-name="Path 29042" d="M604.79-1030.824s-19.508-.961-28.235-.961-28.235.961-28.235.961c-6.776,0-12.321-5.19-12.321-11.534l1.027-20.185A11.68,11.68,0,0,1,545.5-1073.5c.448-.14,9.987-2.5,31.059-2.5,21.048,0,29.17,2.068,29.4,2.107,5.738.977,10.125,5.707,10.125,11.349l1.027,20.185C617.111-1036.015,611.566-1030.824,604.79-1030.824Z" transform="translate(-9158.484 -13829.724)" fill="#ffa5bf" opacity="0.902"/>
        <circle id="Ellipse_802" data-name="Ellipse 802" cx="7.7" cy="7.7" r="7.7" transform="translate(-8591.169 -14855.44)" fill="#f5f7ff" opacity="0.9"/>
        <path id="Path_29044" data-name="Path 29044" d="M40.085,40.239,30.1,47.071c-5.993,4.1-14.523,1.941-18.957-4.8l-8.5-14.908c-4.434-6.736-3.157-15.6,2.836-19.7l8.174-5.589c5.993-4.1,14.523-1.941,18.957,4.8L42.923,20.54C47.355,27.276,46.08,36.14,40.085,40.239Z" transform="translate(-8666.396 -15020.091) rotate(-9)" fill="#fb98b3" opacity="0.401"/>
        <path id="Path_29045" data-name="Path 29045" d="M44.1,43.424,33.106,50.8c-6.592,4.424-15.977,2.1-20.853-5.174L2.908,29.532C-1.97,22.263-.565,12.7,6.028,8.273l8.991-6.031C21.611-2.182,31,.146,35.872,7.416L47.216,22.166C52.093,29.434,50.689,39,44.1,43.424Z" transform="translate(-8669.374 -15019.267) rotate(-9)" fill="none" stroke="#fc98b4" stroke-miterlimit="10" stroke-width="5" opacity="0.396"/>
        <g id="Group_2047" data-name="Group 2047" transform="matrix(0.755, 0.656, -0.656, 0.755, -8531.448, -14865.958)">
          <g id="Group_2046" data-name="Group 2046" transform="translate(0 0)">
            <g id="Group_2045" data-name="Group 2045">
              <path id="Path_1591" data-name="Path 1591" d="M.405,1.949a8.216,8.216,0,0,1,.767.617,1.04,1.04,0,0,0,.816.249,1.08,1.08,0,0,0,.734-.4.955.955,0,0,0,.254-.788,1.083,1.083,0,0,0-.4-.734,9.652,9.652,0,0,0-.83-.661A1.079,1.079,0,0,0,.935.01a.994.994,0,0,0-.707.4,1.152,1.152,0,0,0-.222.811,1.032,1.032,0,0,0,.4.734M15.168,26.421a1.043,1.043,0,0,0,.283-.793Q15.064,12.544,4.782,2.841a1.139,1.139,0,0,0-.8-.308,1.039,1.039,0,0,0-.743.346,1.129,1.129,0,0,0-.312.771,1.08,1.08,0,0,0,.351.769q9.618,9.042,10,21.271a1.084,1.084,0,0,0,.351.77,1.022,1.022,0,0,0,.767.285A1,1,0,0,0,15.168,26.421Z" fill="url(#linear-gradient-3)"/>
            </g>
          </g>
        </g>
      </g>
    </g>
    <line id="Line_646" data-name="Line 646" x2="40.802" transform="translate(125.456 294.228) rotate(180)" fill="none" stroke="#fff" stroke-linecap="round" stroke-miterlimit="10" stroke-width="8" opacity="0.553"/>
  </g>
</svg>
