<svg xmlns="http://www.w3.org/2000/svg" xmlns:xlink="http://www.w3.org/1999/xlink" width="334.589" height="248.124" viewBox="0 0 334.589 248.124">
  <defs>
    <linearGradient id="linear-gradient" x1="0.131" y1="0.839" x2="0.761" y2="0.273" gradientUnits="objectBoundingBox">
      <stop offset="0.173" stop-color="#9b122a"/>
      <stop offset="0.714" stop-color="#f12a4d"/>
      <stop offset="1" stop-color="#f84262"/>
    </linearGradient>
    <linearGradient id="linear-gradient-2" x1="0.15" y1="0.819" x2="0.73" y2="0.292" gradientUnits="objectBoundingBox">
      <stop offset="0" stop-color="#fff" stop-opacity="0.8"/>
      <stop offset="1" stop-color="#fff" stop-opacity="0"/>
    </linearGradient>
    <linearGradient id="linear-gradient-3" x1="0.143" y1="0.835" x2="0.592" y2="0.406" xlink:href="#linear-gradient"/>
    <linearGradient id="linear-gradient-4" x1="0" y1="0.5" x2="1" y2="0.5" xlink:href="#linear-gradient"/>
    <linearGradient id="linear-gradient-5" x1="-0.202" y1="1.433" x2="0.921" y2="-0.085" xlink:href="#linear-gradient"/>
    <linearGradient id="linear-gradient-6" x1="0.683" y1="-7.04" x2="0.341" y2="-6.411" xlink:href="#linear-gradient-2"/>
    <linearGradient id="linear-gradient-7" x1="0.751" y1="0.888" x2="-0.066" y2="0.025" xlink:href="#linear-gradient-2"/>
  </defs>
  <g id="Group_117382" data-name="Group 117382" transform="translate(-20 -166.448)">
    <g id="Group_14353" data-name="Group 14353" transform="translate(5.464 90)">
      <path id="Path_357" data-name="Path 357" d="M31.133,130.21c-14.268,14.989-23.887,57.232.691,84.479S57.078,250.283,42.1,268.663s-20.622,54.622,15.241,69.991,71.388-10.353,96.475-24.3c24.074-13.383,76.2-13.486,110.709-3.1s65.3,2.726,80.8-27.142-4.555-51.737,0-97.885c6.256-50.968-26.157-69.6-86.417-61.906-43.438,5.545-60.318,18.5-85.537,7.494S90.188,68.172,31.133,130.21Z" transform="translate(-2.188 -24.053)" fill="#84a4fc" opacity="0.2"/>
      <g id="Group_1919" data-name="Group 1919" transform="translate(63.77 141.582)" opacity="0.999" style="isolation: isolate">
        <g id="Group_1918" data-name="Group 1918" transform="translate(0 0)" opacity="0.373" style="mix-blend-mode: multiply;isolation: isolate">
          <path id="Path_1451" data-name="Path 1451" d="M369.288,278.8V211.455q0-19.506-19.43-19.506H294.63q-19.43,0-19.43,19.506V278.8q0,19.506,19.43,19.506h55.229Q369.288,298.305,369.288,278.8Z" transform="translate(-275.2 -191.949)" fill="#fff"/>
        </g>
      </g>
      <g id="Group_1921" data-name="Group 1921" transform="translate(68.044 112)">
        <g id="Group_1920" data-name="Group 1920" transform="translate(0)">
          <path id="Path_1452" data-name="Path 1452" d="M504.974,196.338a14.394,14.394,0,0,0-10.589-4.389H439.01a15.068,15.068,0,0,0,0,30.137h55.375a15.122,15.122,0,0,0,15.009-15.068A14.587,14.587,0,0,0,504.974,196.338Z" transform="translate(-424 -191.949)" fill="#fff"/>
        </g>
      </g>
      <g id="Group_1923" data-name="Group 1923" transform="translate(77.953 161.513)" opacity="0.885">
        <g id="Group_1922" data-name="Group 1922">
          <path id="Path_1453" data-name="Path 1453" d="M362.035,231.418q0-9.753-9.715-9.753H306.515q-9.715,0-9.715,9.753V277.4q0,9.753,9.715,9.753H352.32q9.715,0,9.715-9.753Z" transform="translate(-296.8 -221.665)" fill="#fdfdfd"/>
        </g>
      </g>
      <path id="Union_1" data-name="Union 1" d="M15.518,42.5q-3.662,0-3.661-3.678V30.957H3.724Q0,30.957,0,27.217V17.342Q0,13.6,3.724,13.6h8.133V3.676Q11.858,0,15.518,0H25.48q3.662,0,3.66,3.676V13.6h9.454q3.724,0,3.724,3.74v9.875q0,3.74-3.724,3.74H29.14v7.861q0,3.677-3.66,3.678Z" transform="translate(89.662 173.065)" fill="#00a8ff" opacity="0.3"/>
      <g id="Group_11956" data-name="Group 11956" transform="translate(262.202 171.891)" style="isolation: isolate">
        <g id="Group_11913" data-name="Group 11913" transform="translate(50.242 0) rotate(40)" opacity="0.664">
          <path id="Path_16294" data-name="Path 16294" d="M15.081,0A15.1,15.1,0,0,0,0,15.08v48a15.079,15.079,0,1,0,30.158,0v-48A15.1,15.1,0,0,0,15.081,0Zm0,5.8a9.289,9.289,0,0,1,9.278,9.281V35.925a36.185,36.185,0,0,1-18.559,0V15.08A9.29,9.29,0,0,1,15.081,5.8Zm0,66.565A9.291,9.291,0,0,1,5.8,63.082V41.9a41.98,41.98,0,0,0,9.281,1.061A41.95,41.95,0,0,0,24.359,41.9V63.082A9.29,9.29,0,0,1,15.081,72.364Z" transform="translate(0 0)" fill="#fff" stroke="rgba(0,0,0,0)" stroke-miterlimit="10" stroke-width="1"/>
        </g>
        <path id="Subtraction_1" data-name="Subtraction 1" d="M9.281,66.565A9.292,9.292,0,0,1,0,57.283V36.1a42.084,42.084,0,0,0,9.281,1.06A42.054,42.054,0,0,0,18.56,36.1V57.283A9.291,9.291,0,0,1,9.281,66.565ZM9.224,33.419A38.145,38.145,0,0,1,.459,32.374C.476,32.249.3,30.2,0,30.126V9.281a9.28,9.28,0,1,1,18.56,0l-.143,22.94A36.027,36.027,0,0,1,9.224,33.419Z" transform="translate(49.857 5.299) rotate(40)" fill="#fff" stroke="rgba(0,0,0,0)" stroke-miterlimit="10" stroke-width="1" opacity="0.628"/>
      </g>
      <g id="Group_11957" data-name="Group 11957" transform="translate(217.53 158.264)" style="isolation: isolate">
        <g id="Group_11913-2" data-name="Group 11913" transform="translate(50.242 0) rotate(40)" opacity="0.664">
          <path id="Path_16294-2" data-name="Path 16294" d="M15.081,0A15.1,15.1,0,0,0,0,15.08v48a15.079,15.079,0,1,0,30.158,0v-48A15.1,15.1,0,0,0,15.081,0Zm0,5.8a9.289,9.289,0,0,1,9.278,9.281V35.925a36.185,36.185,0,0,1-18.559,0V15.08A9.29,9.29,0,0,1,15.081,5.8Zm0,66.565A9.291,9.291,0,0,1,5.8,63.082V41.9a41.98,41.98,0,0,0,9.281,1.061A41.95,41.95,0,0,0,24.359,41.9V63.082A9.29,9.29,0,0,1,15.081,72.364Z" transform="translate(0 0)" fill="#fff" stroke="rgba(0,0,0,0)" stroke-miterlimit="10" stroke-width="1"/>
        </g>
        <path id="Subtraction_1-2" data-name="Subtraction 1" d="M9.281,66.565A9.292,9.292,0,0,1,0,57.283V36.1a42.084,42.084,0,0,0,9.281,1.06A42.054,42.054,0,0,0,18.56,36.1V57.283A9.291,9.291,0,0,1,9.281,66.565ZM9.224,33.419A38.145,38.145,0,0,1,.459,32.374C.476,32.249.3,30.2,0,30.126V9.281a9.28,9.28,0,1,1,18.56,0l-.143,22.94A36.027,36.027,0,0,1,9.224,33.419Z" transform="translate(49.857 5.299) rotate(40)" fill="#fff" stroke="rgba(0,0,0,0)" stroke-miterlimit="10" stroke-width="1" opacity="0.628"/>
      </g>
    </g>
    <g id="Group_11964" data-name="Group 11964" transform="translate(6.484 97.205)">
      <g id="Group_11963" data-name="Group 11963" transform="translate(118.78 174.339)">
        <g id="Group_11962" data-name="Group 11962" transform="translate(0 0)">
          <path id="Path_16384" data-name="Path 16384" d="M-604.2,403.915l29.577,37.1a2.874,2.874,0,0,0,3.519.785l7.833-3.869a2.873,2.873,0,0,0,1.019-4.308l-27.1-35.85Z" transform="translate(693.797 -299.07)" fill="url(#linear-gradient)"/>
          <path id="Path_16385" data-name="Path 16385" d="M-604.2,404.027l29.577,37.1a2.874,2.874,0,0,0,3.519.785l7.729-3.818a2.873,2.873,0,0,0,.962-4.38l-28.44-35.207Z" transform="translate(693.797 -299.182)" opacity="0.41" fill="url(#linear-gradient-2)"/>
          <path id="Path_16386" data-name="Path 16386" d="M-639.575,397.177s-49.567-15.722-70.275-77.989a1.546,1.546,0,0,1-.06-.719l1.936-12.415c.144-1.081.843,1.973,1.37,2.929,6.411,11.617,29.615,53.137,37.221,59.445,8.86,7.347,29.647,22.465,39.35,21.962l9.7-.5,4.643,5.43S-622.432,400.586-639.575,397.177Z" transform="translate(709.928 -285.041)" fill="url(#linear-gradient-3)"/>
          <path id="Path_16387" data-name="Path 16387" d="M-707.556,303.024a1.123,1.123,0,0,1,.333-1.35c.119-.092.253-.2.4-.31,5.8-4.43,34.112-24.248,69.985-19.267a4.745,4.745,0,0,1,3.4,2.206l25.093,40.874s21.566,32.252,7.025,51.752c0,0-12.389,13.539-29,10.545S-674.351,368.6-692.2,335.688C-696.137,328.422-705.6,307.388-707.556,303.024Z" transform="translate(709.581 -281.3)" fill="url(#linear-gradient-4)"/>
          <path id="Path_16388" data-name="Path 16388" d="M-614.663,370.1l-9.924-16.449a1.355,1.355,0,0,0-1.634-.569l-18.354,6.839a1.355,1.355,0,0,0-.453,2.259,37.221,37.221,0,0,0,29.353,9.972A1.359,1.359,0,0,0-614.663,370.1Z" transform="translate(700.092 -292.239)" fill="#906a7d"/>
          <path id="Path_16389" data-name="Path 16389" d="M-608.425,367.557l-9.348-15.4a1.463,1.463,0,0,1,.836-2.034l17.619-6.471a1.532,1.532,0,0,1,1.953.952c1.494,4.406,4.685,17.793-9.066,23.682A1.549,1.549,0,0,1-608.425,367.557Z" transform="translate(695.892 -290.8)" fill="#906a7d"/>
          <path id="Path_16390" data-name="Path 16390" d="M-662.255,340.163-677.6,317.247a4.732,4.732,0,0,1,1.513-6.7c6.947-4.163,21.91-11.573,39.767-11.122,0,0,3.439-.829,9.673,9.152s10,15.227,10,15.227.56,5.217-2.707,5.8c-2.661.475-28.12,9.179-37.468,12.389A4.7,4.7,0,0,1-662.255,340.163Z" transform="translate(705.118 -284.063)" fill="url(#linear-gradient-5)"/>
          <path id="Path_16391" data-name="Path 16391" d="M-660.977,341.044l-16.425-23.22a4.732,4.732,0,0,1,1.081-6.779c6.667-4.6,18.389-10.652,37.569-11.7,0,0,5.243-1.738,11.428,7.627,6.487,9.82,9.294,14.825,9.294,14.825s2.266,4.374-.807,5.963c-2.4,1.241-27.475,10.962-36.6,14.766A4.7,4.7,0,0,1-660.977,341.044Z" transform="translate(705.115 -284.034)" fill="#f293ae"/>
        </g>
        <g id="Group_2047" data-name="Group 2047" transform="translate(46.592 79.885)" opacity="0.69">
          <g id="Group_2046" data-name="Group 2046" transform="translate(0 0)">
            <g id="Group_2045" data-name="Group 2045">
              <path id="Path_1591" data-name="Path 1591" d="M-616.13,395.478a12.436,12.436,0,0,1-1.474-.141,1.569,1.569,0,0,0-1.232.361,1.631,1.631,0,0,0-.592,1.109,1.438,1.438,0,0,0,.333,1.2,1.625,1.625,0,0,0,1.109.592,14.289,14.289,0,0,0,1.59.145,1.627,1.627,0,0,0,1.2-.391,1.5,1.5,0,0,0,.562-1.082,1.739,1.739,0,0,0-.392-1.2,1.556,1.556,0,0,0-1.109-.592m-38.792-18.562a1.571,1.571,0,0,0,.3,1.231q11.3,16.13,32.253,19.828a1.721,1.721,0,0,0,1.258-.272,1.561,1.561,0,0,0,.648-1.049,1.7,1.7,0,0,0-.244-1.228,1.633,1.633,0,0,0-1.077-.678q-19.569-3.414-30.155-18.477a1.63,1.63,0,0,0-1.078-.678,1.538,1.538,0,0,0-1.2.275A1.505,1.505,0,0,0-654.924,376.916Z" transform="translate(654.948 -375.566)" fill="url(#linear-gradient-6)"/>
            </g>
          </g>
        </g>
      </g>
      <g id="Group_2046-2" data-name="Group 2046" transform="translate(161.747 245.579) rotate(-43)">
        <g id="Group_2045-2" data-name="Group 2045" transform="translate(0 0)">
          <path id="Path_1591-2" data-name="Path 1591" d="M19.122,43.743a13.663,13.663,0,0,1-1.115-1.2,1.8,1.8,0,0,0-1.3-.623,1.9,1.9,0,0,0-1.348.445,1.54,1.54,0,0,0-.651,1.2,1.719,1.719,0,0,0,.465,1.29,15.91,15.91,0,0,0,1.208,1.29,1.879,1.879,0,0,0,1.3.578,1.744,1.744,0,0,0,1.3-.445,1.848,1.848,0,0,0,.6-1.245,1.641,1.641,0,0,0-.465-1.29M1.231.342a1.685,1.685,0,0,0-.7,1.2Q-2.533,22.709,12.012,41.119a1.968,1.968,0,0,0,1.255.711,1.911,1.911,0,0,0,2.091-1.512,1.712,1.712,0,0,0-.372-1.334Q1.371,21.82,4.205,2.032A1.712,1.712,0,0,0,3.833.7,1.762,1.762,0,0,0,2.625.031,1.762,1.762,0,0,0,1.231.342Z" fill="url(#linear-gradient-7)"/>
        </g>
      </g>
    </g>
  </g>
</svg>
