<svg xmlns="http://www.w3.org/2000/svg" xmlns:xlink="http://www.w3.org/1999/xlink" width="335" height="248" viewBox="0 0 335 248">
  <defs>
    <clipPath id="clip-path">
      <rect id="Rectangle_4503" data-name="Rectangle 4503" width="335" height="248" transform="translate(20 167)" fill="#fff" stroke="#707070" stroke-width="1"/>
    </clipPath>
    <linearGradient id="linear-gradient" x1="0.5" x2="0.5" y2="0.742" gradientUnits="objectBoundingBox">
      <stop offset="0" stop-color="#c9203d"/>
      <stop offset="1" stop-color="#f02a4c"/>
    </linearGradient>
    <clipPath id="clip-path-2">
      <path id="Path_18935" data-name="Path 18935" d="M244.15,304.714c5.827,12.15,38.323,16.924,76.419,16.924,49.667,0,77.465-8.118,77.65-21.606.3-22.066,15.129-79.44-77.5-80.4C276.359,219.167,222.274,259.1,244.15,304.714Z" transform="translate(-239.132 -219.624)" fill="none"/>
    </clipPath>
    <clipPath id="clip-path-3">
      <path id="Path_18934" data-name="Path 18934" d="M859.905,771.561c-1.014.52-2.76,1.918-3.737.606-.761-1.022.058-3.366-1.827-3.45-.825-.037-1.584.565-2.4.464-.8-.1-1.2-1.169-2.1-.879-.634.2-1,.913-1.382,1.405a2.483,2.483,0,0,1-.921.84,1.518,1.518,0,0,1-1.742-.743c-1.072-1.454-.422-4.169-2.323-5.04a2.113,2.113,0,0,0-2.2.334,3.033,3.033,0,0,0-.742,2.5c.014.889-.119,3.273-1.65,2.757-.995-.336-1.187-1.712-2.086-2.248a1.088,1.088,0,0,0-1.568.236c-.651,1.06-.033,2.5-.894,3.534-1.7,2.03-2.781-1.565-4.044-2.138-1.59-.722-1.924,1.41-2.164,2.421a2.25,2.25,0,0,1-.687,1.34,4.144,4.144,0,0,1-1.507.461,2.013,2.013,0,0,0-1.433,1.622,4.509,4.509,0,0,1-.557,1.646c-.4.516-1.053.551-1.619.769a1.745,1.745,0,0,0-1.133,1.737c0,1.166.814,2.118.931,3.26a10.163,10.163,0,0,1-.328,2.765,4.335,4.335,0,0,0,.023,2.2,2.906,2.906,0,0,0,1.722,1.57,4.208,4.208,0,0,1,1.485.858,1.756,1.756,0,0,1,.085,2,4.529,4.529,0,0,0-.695,2.576,2.7,2.7,0,0,0,1.2,1.768c.994.63,1.966.07,3.011.336,1.608.409,1.2,3.015,2.076,4.111a3.148,3.148,0,0,0,2.311.863,2.053,2.053,0,0,1,1.738,1.01,1.676,1.676,0,0,1-.459,2.119c-.961.746-2.1-.027-3.092.5a1.623,1.623,0,0,0-.7,1.817,3.6,3.6,0,0,0,1.713,2.161,8.606,8.606,0,0,1,1.332,1.066c.453.484.788,1.065,1.218,1.568a2.153,2.153,0,0,0,2.05.925c.842-.168,1.431-.879,2.237-1.124,1.829-.555,2.437,2.166,3.58,3.021a1.428,1.428,0,0,0,1.561.133c.849-.446,1.448-2.021,2.605-1.486,1.31.6,1.8,4.335,3.836,3.444.816-.356.96-1.346,1.512-1.953.96-1.057,2.821.435,3.648,1.081a4.824,4.824,0,0,1,1.791,3.076,5.577,5.577,0,0,0,.752,2.264c.925,1.237,2.359.573,3.429-.044.788-.455,1.675-1.01,2.588-.554.6.3,1.271,1.176,2.03.916A1.117,1.117,0,0,0,867,821.3a2.693,2.693,0,0,1,.988-1.436,11.037,11.037,0,0,0,2.265-1.343,3.678,3.678,0,0,0,.663-2.435,3.276,3.276,0,0,1,.3-1.443c.447-.785,1.444-.712,2.205-.56,2.648.53,4.568,2.768,6.206,4.759a.188.188,0,0,0,.207.19,1.566,1.566,0,0,0,1.457-1.3.2.2,0,0,0-.11-.215,7.511,7.511,0,0,1-3.526-5.492,7.406,7.406,0,0,1,.271-3.257c.309-.954.912-1.751,1.3-2.666a2.453,2.453,0,0,0,.174-2c-.461-.958-1.956-.872-2.03-2.07a7.71,7.71,0,0,1,.747-2.629,4.255,4.255,0,0,0-.046-2.728,4.608,4.608,0,0,0-1.793-2.205c-.96-.678-2.158-1.271-2.466-2.508-.449-1.8.846-3.589.356-5.408-.455-1.692-2.211-2.384-3.671-3a8,8,0,0,1-2.477-1.392c-.853-.812-.7-1.905-1.249-2.854a6.8,6.8,0,0,0-2.226-1.816,2.955,2.955,0,0,1-1.283-2.551c-.043-1.248.274-3.114-1.189-3.7A2.66,2.66,0,0,0,859.905,771.561Z" transform="translate(-821.18 -764.591)" fill="#5fb427"/>
    </clipPath>
    <linearGradient id="linear-gradient-2" x1="0.834" y1="0.439" x2="0.24" y2="0.802" gradientUnits="objectBoundingBox">
      <stop offset="0" stop-color="#fff" stop-opacity="0.8"/>
      <stop offset="1" stop-color="#fff" stop-opacity="0"/>
    </linearGradient>
    <linearGradient id="linear-gradient-3" x1="0.957" y1="0.009" x2="-0.084" y2="0.972" xlink:href="#linear-gradient-2"/>
  </defs>
  <g id="Group_117387" data-name="Group 117387" transform="translate(-20 -167)">
    <g id="Mask_Group_66541" data-name="Mask Group 66541" clip-path="url(#clip-path)">
      <g id="Group_117385" data-name="Group 117385">
        <path id="Path_2" data-name="Path 2" d="M2121.109,2144.3q-2.382-1.55-4.635-3.3c-12.152-9.47-18.369-24.351-28.815-35.456-10.223-10.866-21.966-21.4-34.519-29.479-26.312-16.926-57.238-23.019-85.765-15.03-30.476,8.537-56.691,31.281-69.95,60.067a114.588,114.588,0,0,0-1.089,91.921c11.356,26.444,34.252,51.475,61.88,60.8,21.021,7.1,43.255,4.7,64.133.572,28.9-5.72,56.214-11.679,86.615-8.19,18.758,2.153,36.082,6.159,54.079.991,16.725-4.8,30.8-18.46,38.926-33.515a68.973,68.973,0,0,0,6.206-49.519c-3.3-12.862-11.924-26.063-24.727-29.646-8.481-2.373-17.094-.138-25.67.22A63.3,63.3,0,0,1,2121.109,2144.3Z" transform="translate(-2237.178 -1447.417) rotate(-11)" fill="#84a4fc" opacity="0.12"/>
        <path id="Path_3" data-name="Path 3" d="M1953.947,2122.454q1.782-1.159,3.467-2.47c9.091-7.085,13.742-18.217,21.557-26.525a141.836,141.836,0,0,1,25.823-22.053c19.685-12.663,42.82-17.22,64.161-11.244,22.8,6.387,42.411,23.4,52.331,44.936a85.727,85.727,0,0,1,.814,68.767c-8.5,19.783-25.625,38.508-46.292,45.488-15.726,5.31-32.36,3.519-47.978.428-21.617-4.278-42.054-8.737-64.8-6.126-14.033,1.611-26.993,4.607-40.456.742-12.512-3.594-23.039-13.81-29.121-25.073a51.6,51.6,0,0,1-4.643-37.045c2.468-9.622,8.92-19.5,18.5-22.178,6.345-1.775,12.788-.1,19.2.165A47.35,47.35,0,0,0,1953.947,2122.454Z" transform="translate(-1843.018 -1799.141)" fill="#fff" opacity="0.4"/>
        <path id="Path_35799" data-name="Path 35799" d="M1957.442,2125.854q1.875-1.22,3.649-2.6c9.567-7.456,14.462-19.172,22.686-27.915a149.25,149.25,0,0,1,27.177-23.208c20.716-13.326,45.063-18.123,67.523-11.833,23.993,6.722,44.633,24.628,55.073,47.291a90.22,90.22,0,0,1,.857,72.371c-8.941,20.819-26.967,40.526-48.718,47.871-16.55,5.588-34.055,3.7-50.492.45-22.75-4.5-44.258-9.195-68.192-6.447-14.768,1.7-28.408,4.849-42.576.78-13.168-3.782-24.246-14.533-30.647-26.386a54.3,54.3,0,0,1-4.886-38.987c2.6-10.126,9.388-20.52,19.468-23.34,6.677-1.869,13.458-.108,20.21.173A49.829,49.829,0,0,0,1957.442,2125.854Z" transform="translate(-1405.258 -2163.371) rotate(10)" fill="#e6edfe" opacity="0.304" style="mix-blend-mode: multiply;isolation: isolate"/>
      </g>
    </g>
    <g id="Group_14340" data-name="Group 14340" transform="translate(-4 -24.533)">
      <g id="Capa_1" data-name="Capa 1" transform="translate(-122.579 31.909)">
        <path id="Path_18894" data-name="Path 18894" d="M278.3,1112.626h155s7.306,47.105-49.936,71.886c0,0-4.975,3.874-24.549,4.818v.2c-1.053-.014-2.025-.047-3.013-.078-.987.031-1.96.063-3.015.078v-.2c-19.571-.945-24.549-4.818-24.549-4.818C270.992,1159.731,278.3,1112.626,278.3,1112.626Z" transform="translate(-35.075 -805.971)" fill="url(#linear-gradient)"/>
        <path id="Path_18895" data-name="Path 18895" d="M278.012,950.077c0,9.7,34.765,17.553,77.648,17.553s77.649-7.855,77.649-17.553-34.765-17.553-77.649-17.553S278.012,940.384,278.012,950.077Z" transform="translate(-35.091 -643.421)" fill="#ed6a81"/>
        <path id="Path_18896" data-name="Path 18896" d="M321.583,973.9c0,8.275,32.863,14.983,73.4,14.983s73.4-6.708,73.4-14.983-32.861-14.98-73.4-14.98S321.583,965.627,321.583,973.9Z" transform="translate(-74.416 -667.244)" fill="#c70526"/>
        <g id="Group_14339" data-name="Group 14339" transform="translate(239.132 219.624)">
          <g id="Group_14338" data-name="Group 14338" transform="translate(0 0)" clip-path="url(#clip-path-2)">
            <path id="Path_18897" data-name="Path 18897" d="M378.327,529c11.373,9.306,21.132,16.893,20.549,32.6-1.115,30.2-40.506,38.2-60.891,21.269-13.9-11.545-10.365-29.942-13.028-45.49-2.343-13.649-1.322-32.13,15.446-36.551C358.7,496.008,367.047,519.761,378.327,529Z" transform="translate(-315.748 -472.846)" fill="#4d9f3e"/>
            <path id="Path_18898" data-name="Path 18898" d="M378.327,529c11.373,9.306,21.132,16.893,20.549,32.6-1.115,30.2-40.506,38.2-60.891,21.269-13.9-11.545-10.365-29.942-13.028-45.49-2.343-13.649-1.322-32.13,15.446-36.551C358.7,496.008,367.047,519.761,378.327,529Z" transform="translate(-315.748 -472.846)" fill="#4d9f3e"/>
            <path id="Path_18899" data-name="Path 18899" d="M400.983,553.893c-1.5-6.362-4.2-13.057-2.368-19.385,2.455-8.5,14.668-9.853,21.488-5.985a32.3,32.3,0,0,1,9.363,7.652c2.827,3.5,5.1,7.393,7.807,10.978a55.464,55.464,0,0,0,7.307,7.419c5.611,5.043,11.95,10.023,15.462,16.866,3.459,6.741,4.146,15.046.756,21.974-4.964,10.154-16.48,16.26-27.655,15.8-10.931-.449-20.3-7.075-25.659-16.44a39.968,39.968,0,0,1-5.383-18.5c-.229-5.611.335-11.3-.44-16.883C401.5,556.238,401.263,555.072,400.983,553.893Z" transform="translate(-382.517 -496.56)" fill="#b1dd63"/>
            <path id="Path_18900" data-name="Path 18900" d="M599.053,801.325c.045-1.321.078-2.656.078-4,0-4.688-.11-11.3,6.516-9.971,3.422.687,5.509,3.4,8.192,5.39,2.132,1.584,4.41,2.966,6.545,4.547,4.057,3,7.927,6.586,9.366,11.591,4.161,14.463-12.927,26.2-24.441,15.516C598.16,817.759,598.759,809.815,599.053,801.325Z" transform="translate(-563.837 -731.868)" fill="#8acc65"/>
            <path id="Path_18901" data-name="Path 18901" d="M615.376,867.671c-.052-7.663-.547-10.427,4.483-13.294,7.741-4.414,21.208,7.3,23.357,14.161,4.06,12.957-11.1,23.9-21.709,14.514C618.452,880.35,615.415,873.2,615.376,867.671Z" transform="translate(-578.674 -791.641)" fill="#4a1c0f"/>
            <path id="Path_18902" data-name="Path 18902" d="M631.458,878.616c4.051,3.65,9.409,3.112,12.89-1.051,6.564-7.847-1.919-20.1-9.891-23.991,7.822-.982,18.688,8.951,20.6,15.052,4.06,12.957-11.1,23.9-21.709,14.514-1.861-1.649-3.717-4.953-4.889-8.534A14,14,0,0,0,631.458,878.616Z" transform="translate(-590.516 -791.73)" fill="#3d170d"/>
            <path id="Path_18903" data-name="Path 18903" d="M650.411,898.11c-.239,2.666-1.5,7.765-4.758,3.777-2.063-2.528-1.875-9.705.586-11.98,1.626-1.5,4.13-1.467,5.241.654C652.691,892.872,650.622,895.752,650.411,898.11Z" transform="translate(-604.756 -823.639)" fill="#642615"/>
            <path id="Path_18904" data-name="Path 18904" d="M450.773,570.94c-3.659,3.941-2.869,8.6-2.868,13.482,0,4.434-4.06,11.3-6.481,3.852-1.625-5,.265-10.019-1.822-15.266-2.412-6.061-1.209-15.53,7.37-15.211a8.749,8.749,0,0,1,7.144,5.185C455.852,567.048,453.24,568.286,450.773,570.94Z" transform="translate(-419.077 -524.833)" fill="#d1ec74"/>
            <path id="Path_18905" data-name="Path 18905" d="M688.392,1251.835c-9.267-6.017,14.135-7.94,17.478-7.629,7.924.735,3.247,5.513-1.565,7.708C699.645,1254.039,692.882,1254.751,688.392,1251.835Z" transform="translate(-642.661 -1144.322)" fill="#d1ec74"/>
            <path id="Path_18906" data-name="Path 18906" d="M975.274,787.212c1.388-.674,2.773-1.354,4.185-1.972,1.448,5.483,3.2,15.333,6.963,17.7,4.063-4.991,2.524-15.268,7.65-20.527,3.028.665,3.042.593,5.412,2.659-3.008,3.354-10.41,20.92-3.274,22.631,3.015-5.27,8.048-9.018,11.832-13.721a21.733,21.733,0,0,1,3.606,2.659c-3.068,5.972-8.771,8.3-10.5,13.551,6.325-.771,15.763-10.647,18.733-2.361l-.213.5c-9.367,3.545-20.253,9.477-24.195,18.649-3.614,8.409-.173,19.132-10.73,14.785-23-9.47,2.075-17.065-3.058-33.05C979.445,801.734,974.094,792.791,975.274,787.212Z" transform="translate(-903.162 -727.562)" fill="#b1dd63"/>
            <path id="Path_18907" data-name="Path 18907" d="M1143.528,806.044a16.07,16.07,0,0,0-4.377,6.114,6.737,6.737,0,0,1-2.009,3.064,18.081,18.081,0,0,1-3.4,1.846,7.931,7.931,0,0,0-3.689,2.844c.35-2.354,1.322-4.71.929-7.076a4.591,4.591,0,0,0-1.31-2.54c-1.6-1.83.029-3.741.777-5.528,2.193-5.239,3.291-10.872,5.175-16.207a8.741,8.741,0,0,1,2.964,2.06c-3.007,3.354-10.409,20.92-3.274,22.631,3.015-5.27,8.048-9.018,11.832-13.721.286.174.969.612,1.672,1.1C1147.447,802.775,1145.412,804.334,1143.528,806.044Z" transform="translate(-1042.262 -733.114)" fill="#92c35b"/>
            <path id="Path_18908" data-name="Path 18908" d="M976.318,891.016c1.12,1.829,2.544,3.555,3.513,5.466a28.557,28.557,0,0,1,1.99,6.344c.544,2.248,2.12,3.884,2.911,6.008a9.225,9.225,0,0,1-.13,6.656,27.9,27.9,0,0,1-3.009,5.643,23.126,23.126,0,0,0-2.823,4.4c-.713,1.925-.419,5.546,1.855,6.351,2.337.827,4.261-2.275,5.333-3.776.294-.411,1.162-1.721,1.847-.731a7.868,7.868,0,0,1,.405.692,1.21,1.21,0,0,0,.513.509c.581.322,1.518-.454,1.839-.86a12.714,12.714,0,0,0,1.72-3.543,27.4,27.4,0,0,0,1.418-4.517,19.3,19.3,0,0,0,.5-3.2,3.516,3.516,0,0,1,.687-2.663c1.143-1.241.918-.356,1.873-.3a5.619,5.619,0,0,0,1.636-.222,10.986,10.986,0,0,0,3.371-1.571,20.222,20.222,0,0,1,5.195-2.455,34.961,34.961,0,0,0,7.849-3.094,11.764,11.764,0,0,0,3.926-3.323,6.137,6.137,0,0,1,1.142,2.03l-.213.5c-9.367,3.545-20.253,9.477-24.195,18.649-3.614,8.409-.173,19.132-10.73,14.785-23-9.47,2.075-17.065-3.058-33.05-1.58-4.921-4.7-10.817-6-15.823C975.89,890.295,976.1,890.657,976.318,891.016Z" transform="translate(-903.162 -824.603)" fill="#92c35b"/>
            <path id="Path_18909" data-name="Path 18909" d="M1287.575,721.072c1.615-5.019-2.659-8.36-6.487-9.237a6.648,6.648,0,0,0-7.725,5.166c-6.405-12.819-19.386,4.262-10.664,6.183-3.162,1.812-4.566,3.147-4.341,6.742.164,2.63,3.689,6.508,6.718,5.329-6.787,4.785.559,15.436,7.754,12.093.554,3.456,2.585,6.664,6.391,7.043,3.495.347,7.735-2.372,7.778-6.022,6.774,7.936,15.016-7.619,7.848-9.457,2.061.527,4.4-2.243,5.25-3.746,2.126-3.772,1-8.808-1.4-12.18A7.668,7.668,0,0,0,1287.575,721.072Z" transform="translate(-1159.004 -663.729)" fill="#4d9f3e"/>
            <path id="Path_18910" data-name="Path 18910" d="M1273.363,717a6.648,6.648,0,0,1,7.725-5.166,10.532,10.532,0,0,1,4.271,2.082,8.29,8.29,0,0,0-3.048.286c-3.352.982-4.981,3.813-5.077,7.1a6.5,6.5,0,0,0-6.4-2,9.116,9.116,0,0,0-5.651,5.256c-1.123,2.78-1.3,6.2.461,8.78,1.133,1.654,3.052,3.792,5.239,3.583-1.665,3.049,1.548,6.679,4.227,8a5.8,5.8,0,0,0,5.556-.115c1.425-.79,2.631-1.983,2.656-3.576,2.088,2.175,5.324,3.1,7.5.308a6.314,6.314,0,0,0-.455-8.23c6.3.972,8.484-5.745,7.567-11.252a9.294,9.294,0,0,1,.762.924c2.4,3.372,3.527,8.408,1.4,12.18-.847,1.5-3.189,4.273-5.25,3.746,7.168,1.838-1.074,17.393-7.848,9.457-.044,3.65-4.284,6.369-7.778,6.022-3.806-.378-5.837-3.586-6.391-7.043-7.2,3.343-14.541-7.307-7.754-12.093-3.029,1.179-6.553-2.7-6.718-5.329-.225-3.595,1.179-4.93,4.341-6.742C1253.976,721.263,1266.958,704.182,1273.363,717Z" transform="translate(-1159.004 -663.729)" fill="#369541"/>
            <path id="Path_18911" data-name="Path 18911" d="M1050.893,526.271a7.9,7.9,0,0,0-2.432-6.177,5.9,5.9,0,0,0-5.789-2.018c-2.382.51-3.267,2.023-4.6,3.783-1.791-3.556-3.809-5.964-8.044-5.661-3.93.281-5.365,3.4-5.458,6.853-2.992-2.86-7.309-2.374-9.182,1.425-1.091,2.213-1.961,9.3,1.915,9.409-3.406.248-5.21,7.121-3.6,9.858a10.921,10.921,0,0,0,4.205,3.672c1.648.835,2.627.524,4.146.611.4,3.13,2.1,6.9,5.5,7.626a9.027,9.027,0,0,0,8.14-1.783c1.047,1.386,1.735,3.046,3.32,4.013a7.724,7.724,0,0,0,7.158.1c2.81-1.582,5.81-5.082,5.163-8.452a6.41,6.41,0,0,0,7.868-4.027c.69-2.1,1.478-5.55-2.419-8.147,0,0,4.768-3.262,2.849-7.773C1058.124,526.034,1055.007,523.976,1050.893,526.271Z" transform="translate(-937.679 -487.271)" fill="#2e7f38"/>
            <path id="Path_18912" data-name="Path 18912" d="M1015.389,543.611a5.365,5.365,0,0,1,6.765-2.936c-3.5,2.519-4.945,8.541-.582,10.729a5.943,5.943,0,0,0-2.366,6.9,4.215,4.215,0,0,0,5.4,2.91,5.643,5.643,0,0,0,2.035,8.031c2.651,1.626,5.978,1.131,7.369-1.644a6.6,6.6,0,0,0,8.209,3.369c2.833-.966,4.519-3.393,3.836-6.146a4.289,4.289,0,0,0,3.72,1.338,4.392,4.392,0,0,0,2.837-2.9c.779-2.056.982-6-1.565-6.742,5.315-3.279.516-12.741-5.505-11.173.943-2.507,1.5-5.808.182-7.97a6.369,6.369,0,0,1,2.736,1.855,7.9,7.9,0,0,1,2.432,6.177c4.114-2.3,7.231-.237,8.741,3.314,1.919,4.511-2.849,7.773-2.849,7.773,3.9,2.6,3.11,6.047,2.42,8.147a6.41,6.41,0,0,1-7.869,4.027c.647,3.371-2.353,6.871-5.163,8.452a7.724,7.724,0,0,1-7.158-.1c-1.585-.967-2.273-2.627-3.321-4.013a9.027,9.027,0,0,1-8.14,1.783c-3.4-.729-5.093-4.5-5.5-7.626-1.519-.087-2.5.224-4.146-.611a10.921,10.921,0,0,1-4.205-3.671c-1.613-2.737.191-9.61,3.6-9.858C1013.428,552.916,1014.3,545.824,1015.389,543.611Z" transform="translate(-937.679 -506.406)" fill="#2a7332"/>
            <path id="Path_18913" data-name="Path 18913" d="M826.115,554.122c-3.006.59-5.725,3.452-5.566,6.625-3.439-2.2-5.63-1.743-8.436,1.12-1.529,1.559-2.12,2.526-1.551,4.846.353,1.441,1.293,3.437,2.743,4.12-5.737.165-4.856,5.973-4.306,7.669.638,1.966,4.174,6.617,8.257,4.229,1.278,6.841,8.8,8.687,14.19,5.01,2.364,2.185,3.874,3.847,7.355,2.408a7.076,7.076,0,0,0,4.249-6.8c4.191-.026,8.749-8.675,2-12.241,0,0,4.511-4.579-.98-10.646,0,0-4.922-4.86-9.431-1.176C834.633,559.285,831.882,552.991,826.115,554.122Z" transform="translate(-753.096 -521.4)" fill="#4d9f3e"/>
            <path id="Path_18914" data-name="Path 18914" d="M812.113,598.2c1.942-1.981,3.591-2.808,5.562-2.4-2.228,1.076-3.495,3.827-3.747,6.264s.341,5.866,3.125,6.306c-1.81,2.087-.434,5.161,1.528,6.791,2.43,2.018,5.535,2.13,7.471-.36.891,3.51,3.964,8.024,8.1,6.438,2.334-.894,4.342-3.737,2.612-5.794,3.451.266,6.036-2.069,6.358-5.672.2-2.212-.437-5.917-3.022-6.344,3.161-2.8.885-7.675-2.706-9.107,3.547-.6,6.667,2.473,6.667,2.473,5.491,6.067.98,10.646.98,10.646,6.754,3.566,2.2,12.216-2,12.241a7.076,7.076,0,0,1-4.249,6.8c-3.481,1.439-4.99-.223-7.354-2.408-5.389,3.676-12.912,1.831-14.19-5.01-4.083,2.388-7.618-2.263-8.257-4.229-.551-1.7-1.431-7.5,4.306-7.669-1.45-.683-2.389-2.68-2.743-4.12C809.993,600.724,810.584,599.757,812.113,598.2Z" transform="translate(-753.096 -557.73)" fill="#3b9740"/>
            <path id="Path_18915" data-name="Path 18915" d="M929.35,604.963c-1.692.064-2.253-.31-3.837.685-1.384.87-1.656,2.207-3.307.61-2.8-2.7,1.068-4.463,2.43-6.147,1.932-2.389,3.644-6.949,7.332-3.025C934.438,599.714,933.24,604.817,929.35,604.963Z" transform="translate(-854.739 -558.914)" fill="#6eac3a"/>
            <path id="Path_18916" data-name="Path 18916" d="M1187.784,556.169c2.849,1.1.794,5.863,4.567,5.155,1.192-.224,1.683-1.408,2.866-1.1,1.4.364.96,1.688,1.171,2.714.446,2.17,2.965,3.277,2.275,5.844-.751,2.794-4.195,2.692-6.136,1.227-1.5-1.133-1.8-3.21-3.363-4.243-1.448-.955-3.081-.814-4.206-2.264a6.924,6.924,0,0,1-1.232-4.479,4.588,4.588,0,0,1,1.416-2.731C1186.206,555.319,1186.593,555.711,1187.784,556.169Z" transform="translate(-1091.655 -522.937)" fill="#34903f"/>
            <path id="Path_18917" data-name="Path 18917" d="M1507.754,820.46c-.934.166-2.206.31-2.675,1.407-.44,1.03.524,2.284.547,3.336.067,3.125-2.367,4.185-4.557,2.01-1.46-1.45-3.314-4.4-2.143-6.49.68-1.214,1.991-1.2,3.129-1.806,2.544-1.355,3.928-7.689,7.938-4.887C1513.287,816.333,1510.813,819.915,1507.754,820.46Z" transform="translate(-1375.814 -755.462)" fill="#6eac3a"/>
            <path id="Path_18918" data-name="Path 18918" d="M1315.084,924.178c9.679,3.817,28.567-1.428,33-11.776,3.392-7.916.6-18.708-4.67-24.924-7.616-8.982-26.266-5.917-34.212,1.635C1298.4,899.382,1301.075,918.653,1315.084,924.178Z" transform="translate(-1198.923 -817.421)" fill="#fd1d13"/>
            <path id="Path_18919" data-name="Path 18919" d="M1343.416,906.419a13.721,13.721,0,0,0-3.9-3.145,12.312,12.312,0,0,1,1.848,1.679,22.513,22.513,0,0,1,4.976,9.585c2.961,13.607-13.423,25.672-25.608,18.942-10.913-6.027-11.428-22.644-2.886-30.521a25.221,25.221,0,0,0-8.643,5.1c-10.806,10.269-8.129,29.54,5.88,35.065,9.679,3.817,28.567-1.428,33-11.776C1351.479,923.427,1348.687,912.635,1343.416,906.419Z" transform="translate(-1198.923 -836.362)" fill="#dc1410"/>
            <path id="Path_18920" data-name="Path 18920" d="M1504.779,927.094c2.026.118,4.06-.393,6.059.107,1.9.475,2.874,2.169,4.368,2.82,4.332,1.886,3.86-3.087,2.97-5.63-1.47-4.2-5.247-6.713-9.408-7.708-3.512-.84-8.912-.951-10.547,3.184C1496.667,923.8,1501.2,926.885,1504.779,927.094Z" transform="translate(-1375.228 -848.326)" fill="#fb4135"/>
            <path id="Path_18921" data-name="Path 18921" d="M1335.221,781.009c1.522-6.843,7.932-12.964,13.485-16.5-4.264-.294-8.4,4.183-11.468,6.473a47.451,47.451,0,0,1,5.157-13.039,10.236,10.236,0,0,0-4.8,4.1c-.855,1.187-2.148,5.83-3.3,6.025-.718.122-3.655-2.751-4.417-3.146a15.868,15.868,0,0,0-5.859-1.76,30.446,30.446,0,0,1,5.424,8.337c-4.711-1.825-10.152.376-13.418,5.736C1316.025,777.237,1327.856,770.91,1335.221,781.009Z" transform="translate(-1211.072 -705.479)" fill="#2a6c24"/>
            <path id="Path_18922" data-name="Path 18922" d="M1672.461,1086.731c-1.879,1.833,2.784,4.3,3.337.8.494-3.115-2.982-2.464-3.691-.065" transform="translate(-1532.37 -1001.049)" fill="#fb4135"/>
            <g id="lettuce" transform="translate(56.726 53.112)">
              <path id="Path_18923" data-name="Path 18923" d="M859.905,771.561c-1.014.52-2.76,1.918-3.737.606-.761-1.022.058-3.366-1.827-3.45-.825-.037-1.584.565-2.4.464-.8-.1-1.2-1.169-2.1-.879-.634.2-1,.913-1.382,1.405a2.483,2.483,0,0,1-.921.84,1.518,1.518,0,0,1-1.742-.743c-1.072-1.454-.422-4.169-2.323-5.04a2.113,2.113,0,0,0-2.2.334,3.033,3.033,0,0,0-.742,2.5c.014.889-.119,3.273-1.65,2.757-.995-.336-1.187-1.712-2.086-2.248a1.088,1.088,0,0,0-1.568.236c-.651,1.06-.033,2.5-.894,3.534-1.7,2.03-2.781-1.565-4.044-2.138-1.59-.722-1.924,1.41-2.164,2.421a2.25,2.25,0,0,1-.687,1.34,4.144,4.144,0,0,1-1.507.461,2.013,2.013,0,0,0-1.433,1.622,4.509,4.509,0,0,1-.557,1.646c-.4.516-1.053.551-1.619.769a1.745,1.745,0,0,0-1.133,1.737c0,1.166.814,2.118.931,3.26a10.163,10.163,0,0,1-.328,2.765,4.335,4.335,0,0,0,.023,2.2,2.906,2.906,0,0,0,1.722,1.57,4.208,4.208,0,0,1,1.485.858,1.756,1.756,0,0,1,.085,2,4.529,4.529,0,0,0-.695,2.576,2.7,2.7,0,0,0,1.2,1.768c.994.63,1.966.07,3.011.336,1.608.409,1.2,3.015,2.076,4.111a3.148,3.148,0,0,0,2.311.863,2.053,2.053,0,0,1,1.738,1.01,1.676,1.676,0,0,1-.459,2.119c-.961.746-2.1-.027-3.092.5a1.623,1.623,0,0,0-.7,1.817,3.6,3.6,0,0,0,1.713,2.161,8.606,8.606,0,0,1,1.332,1.066c.453.484.788,1.065,1.218,1.568a2.153,2.153,0,0,0,2.05.925c.842-.168,1.431-.879,2.237-1.124,1.829-.555,2.437,2.166,3.58,3.021a1.428,1.428,0,0,0,1.561.133c.849-.446,1.448-2.021,2.605-1.486,1.31.6,1.8,4.335,3.836,3.444.816-.356.96-1.346,1.512-1.953.96-1.057,2.821.435,3.648,1.081a4.824,4.824,0,0,1,1.791,3.076,5.577,5.577,0,0,0,.752,2.264c.925,1.237,2.359.573,3.429-.044.788-.455,1.675-1.01,2.588-.554.6.3,1.271,1.176,2.03.916A1.117,1.117,0,0,0,867,821.3a2.693,2.693,0,0,1,.988-1.436,11.037,11.037,0,0,0,2.265-1.343,3.678,3.678,0,0,0,.663-2.435,3.276,3.276,0,0,1,.3-1.443c.447-.785,1.444-.712,2.205-.56,2.648.53,4.568,2.768,6.206,4.759a.188.188,0,0,0,.207.19,1.566,1.566,0,0,0,1.457-1.3.2.2,0,0,0-.11-.215,7.511,7.511,0,0,1-3.526-5.492,7.406,7.406,0,0,1,.271-3.257c.309-.954.912-1.751,1.3-2.666a2.453,2.453,0,0,0,.174-2c-.461-.958-1.956-.872-2.03-2.07a7.71,7.71,0,0,1,.747-2.629,4.255,4.255,0,0,0-.046-2.728,4.608,4.608,0,0,0-1.793-2.205c-.96-.678-2.158-1.271-2.466-2.508-.449-1.8.846-3.589.356-5.408-.455-1.692-2.211-2.384-3.671-3a8,8,0,0,1-2.477-1.392c-.853-.812-.7-1.905-1.249-2.854a6.8,6.8,0,0,0-2.226-1.816,2.955,2.955,0,0,1-1.283-2.551c-.043-1.248.274-3.114-1.189-3.7A2.66,2.66,0,0,0,859.905,771.561Z" transform="translate(-821.18 -764.591)" fill="#5fb427"/>
              <g id="Group_14337" data-name="Group 14337" clip-path="url(#clip-path-3)">
                <g id="Group_14336" data-name="Group 14336" transform="translate(-2.766 -3.259)">
                  <path id="Path_18924" data-name="Path 18924" d="M831.272,795.043c-.664-.168-2.248,1.335-2.346,1.99-.089.6,1.637.788,1.9,1.343.246.52-1.03,1.988-.656,2.461.387.489,1.758.193,2.093.623.387.5,1.091.712,1.494,1.2s.481,1.484.9,1.956c-.4-.121-1.228.707-1.645.658-.656-.078-1.182-1.117-1.74-1a5.412,5.412,0,0,0-1.693.768c-.49.305-.57,1.1-1.025,1.561a2.543,2.543,0,0,1-2.484.587c-.794-.141-1.811-.349-2.181-1.063-.311-.6-.634-1.205-1.137-.939s-.324.988-.089,1.592c.3.778.021,2.1.643,2.6s1.83.1,2.657.237c.864.142,1.411-.508,2.215-.851a10.29,10.29,0,0,0,2.3-1.494,4.02,4.02,0,0,1,2.138-.857,7.342,7.342,0,0,1,2.147.366c.564.254.52,1.8,1.036,2.118.59.364,1.684-.2,2.13.058.594.348.916,1.159,1.51,1.508s.826,1.314,1.42,1.661,1.009,1.005,1.6,1.352,1.918-.558,2.514-.213c.708.411.4.07.787-.519s1.192-.924.518-1.409c-.6-.431-.862-1.282-1.438-1.738s-.975-1.086-1.531-1.568-1.46-.55-2-1.054-.638-1.427-1.157-1.951-1.972-.141-2.473-.681c-.424-.457-1.1-.711-1.513-1.181s-.083-1.575-.476-2.057-1.415-.484-1.792-.98c-.327-.431.777-1.912.456-2.4s-1.4-.507-1.786-.9C832.165,796.421,831.843,795.187,831.272,795.043Z" transform="translate(-819.545 -788.804)" fill="#4d741c" opacity="0.33"/>
                  <path id="Path_18925" data-name="Path 18925" d="M891.069,1062.329c-.737-.3-1.041-1.651-1.78-1.963s-2.17,1.408-2.943,1.2c-.594-.16-.937-2.771-1.554-2.765s-1.382,1.141-1.961,1.373c-.679.271-.25,1.785-.707,2.348-.345.426-1.009,1.5-1.492,1.736a4.117,4.117,0,0,1-2.318-.415c-.575-.274-.245-2.286-.581-2.48-.662-.381-2.434,1.529-3.18,1.253s-1.058-1.858-1.852-1.779c-.735.074-.557,1.347-1.044,1.907a7.251,7.251,0,0,0-1.026,1.279c-.289-.143-1.968.084-2.137,0-.838-.429-.843-2.344-1.592-2.914a2.2,2.2,0,0,0-2-.33,2.771,2.771,0,0,0-1.555,1.475c-.148.573.684.932,1.31,1.424.42.33.7,1.01,1.264,1.41.492.348.306,1.971.86,2.278s1.86-.838,2.436-.661c.629.193.992-.937,1.584-1.016s.466.193.964-.282c.254-.243,1.493.5,1.66.188.049-.092.321,0,.4-.214.1.089-.242.293-.092.359.359.159.535.49.874.687.624.363,1.086,1.192,1.724,1.5s1.824-.169,2.554-.06c.661.1,1.153-1.74,1.8-1.866s.972.2,1.52-.2c.427-.315,1.049-.2,1.339-.657.328-.514.893-.283,1.456-.287.614,0,.779.686,1.416.971.569.255,1.741-.679,2.318-.346s.7,1.559,1.272,1.826c.627.292,1.6-.87,2.218-.83s.721-.067,1.321-.484c.41-.285.978-.1.911-.606-.124-.947-.121-2.054-.794-2.521S891.837,1062.645,891.069,1062.329Z" transform="translate(-856.453 -1026.868)" fill="#4d741c" opacity="0.33"/>
                  <path id="Path_18926" data-name="Path 18926" d="M1065.133,1028.406c-.78-.212-2.289-.809-2.562-.026-.225.645,1.082,1.418,1.161,2.064s-1.149,1.668-.868,2.283c.267.583,1.839.467,2.213,1.017s-.319,1.892.086,2.391c.437.539,1.143.832,1.53,1.3.5.594.447,1.8,1.011,2.372s2.23.246,2.779.811c-.576.031-1.379.11-1.953.171s-1.35-1.154-1.922-1.062-.948,1.385-1.514,1.509c-.8.174-1.859-.508-2.647-.28s-1.264,1.511-2.033,1.8-1.239,1.153-1.974,1.518-1.976-.5-2.746-.248a4.415,4.415,0,0,0-2.136,1.41,5.075,5.075,0,0,0,0,2.552,4.407,4.407,0,0,0,1.7,2.016c.592.252,1.713-1.331,2.313-1.243.616.09,1.179,2,1.8,1.964s.983-2.358,1.6-2.462,1.458,1.145,2.067,1.02c.585-.119.941-1.247,1.523-1.383s1.568,1.337,2.144,1.182.808-1.546,1.378-1.721,1.29.121,1.854-.076.693-1.452,1.238-1.666,1.084-.387,1.626-.613c.765-.32,2.331-1.009,3.079-.661.511.238.66,1.514,1.139,1.912s1.485.076,1.931.416c.592.452-.408,2.99.184,3.442s1.577.388,2.169.84c.7.535,1.869-.253,2.511-.5.7-.274,2.414-.43,2.59-1.133.166-.662-1.712-.9-2.424-1.48-.53-.435.238-2.436-.288-2.878s-.871-1.1-1.4-1.54-1.276-.635-1.807-1.069-.848-1.187-1.389-1.608c-.744-.578-2.029-.3-2.778-.485-.344-.542-1.542-.208-1.947-.718s-1.224-.613-1.647-1.1-.249-1.506-.659-2-1.105-.853-1.47-1.378c-.427-.616.4-2.06,0-2.7s-1.416-.883-1.793-1.531a12.137,12.137,0,0,0-1.462-1.967C1066.82,1028.265,1066.026,1028.65,1065.133,1028.406Z" transform="translate(-1027.996 -999.059)" fill="#4d741c" opacity="0.33"/>
                  <path id="Path_18927" data-name="Path 18927" d="M1143.233,821.85c-.35-.632-3.016.132-3.411-.441-.414-.6-1.18-.136-1.753-.547-.544-.39.052-3.028-.734-3.133-.578-.077-1.588-.756-2.144-.632s-.5,2.976-1.047,3.1-1.456-.427-2.026-.5c-.628-.08-1.12-.878-1.574-1.329-.424-.421-1.992-.247-2.31-.785-.339-.572.974-2.1.7-2.568a2.4,2.4,0,0,0-2.49-.753c-.724.249-.858,1.171-.706,2.02.13.727.939,1.1,1.209,1.761.281.683-1.612,2.645-1.2,3.224a11.643,11.643,0,0,0,1.844,1.8c.563.461,2.842-2.046,3.515-1.77.658.27.732,1.186,1.476,1.246.691.056,1.459,1.61,2.209,1.457.506-.1,1.445-1.235,1.9-.983a15.35,15.35,0,0,0-.085,1.758c.259.472,1.359.482,1.619.954.3.543,1.784.566,2.086,1.18.286.58.281,1.258.6,1.835s-1.08,2.233-.7,2.749c.4.542,2.236-.406,2.741-.012.474.369-.129,2.872.441,3.051s1.312-3,1.917-3.073c.3-.039.29,3.1.655,2.992.046.337-.058-.44-.049-.291.04.622,1.877,1.174,1.888,1.8.009.543-2.214,1.149-2.195,1.693s2.62.883,2.686,1.423a10.576,10.576,0,0,0,.347,2.052c.23.738-.546,1.758-.16,2.424s1.559.525,2.113,1.086a5.914,5.914,0,0,0,1.579,1.178c.691.376.909,1.553,1.649,1.6.762.052.748-1,1.4-1.512.508-.4,2.368.012,2.436-.624s.068-2.612-.511-3.057c-.789-.606-2.7.66-3.5.159-.558-.349-.367-1.374-.646-1.955s-1.905-.758-2-1.4,1.912-1.409,1.9-2.045-1.111-1.276-1.126-1.887c-.017-.691.861-1.548.785-2.308-.074-.742.453-2.01.2-2.685-.264-.693-1.859-1.226-2.45-1.707-.435-.354-.89-1.9-1.412-2.034s-1.386,2.794-1.936,2.871c-.429.061-.526.516-.936.647-.134.05-1.427-.286-1.563-.241-.343-.351-1.541-.993-1.79-1.456s.771-1.6.537-2.025c-.457-.824-1.952-.954-1.919-1.9C1141.342,822.959,1143.69,822.675,1143.233,821.85Z" transform="translate(-1093.24 -806.084)" fill="#4d741c" opacity="0.33"/>
                  <path id="Path_18928" data-name="Path 18928" d="M1052.6,1034.289c-.883-.159-2.868-.964-3.492-.5s-.752,2.463-.973,3.277c-.186.687,1.127,1.852.88,2.509s-.977,1.151-1.233,1.805-2.669.614-2.881,1.286.7,1.818.588,2.521c-.108.68-1.058,1.587-1.021,2.317.029.581,3.426.634,3.573,1.19s-2.33,2.008-2.091,2.534a15.963,15.963,0,0,0,.812,1.7c.013.021,1.086-1.775,1.1-1.753-.184-.022-.335.689-.522.674-.727-.058-.377,1.85-.9,2.382-.543.549-2.446-.089-2.148.655-.708.008-.97-1.68-1.678-1.672-.515.005.316,2.524-.156,2.587.676-.55-1.316-2-1.242-2.821s1.068-1.723.331-2.33c-.493-.406-1.03-1.244-1.7-1.463-.634-.208-1.54.135-2.211.115a6.042,6.042,0,0,0-2.027.442c-.739.248-1.748-.481-2.17.032-.569-.141-.949,2.01-1.518,1.869-.631-.156-.885-1.973-1.524-2.1a7.969,7.969,0,0,0-2.127-.291c-.848.083-2.524-.087-3.168.423s-.668,1.468-.937,2.272c-.82-.26-1.176.465-2.015.281-.75-.165-2.613-1.613-3.321-1.169s-1.176,2.3-1.3,3.1c-.264.063.526,1.488.278,1.535-.834.158-1.817-.362-2.345.222s1.18,1.243,1.255,2.15c.065.783-1.272,1.546-.648,2.107s1.418,1.949,2.255,1.8c.859-.158,2.186.553,2.919.273.8-.308,1.007-1.972,1.627-2.494.484.171.167,1.566.646,1.74.64.233,1.715-.549,2.378-.344s1.455-1.329,2.157-1.405c.875-.095.543-.83,1.162-1.4s1.793-.1,1.988-.948c0-.005.759-1.107.761-1.112.51.114.823,1.184,1.339,1.294s1.065-.449,1.585-.4,1.093,1.688,1.593,1.591.156-.414.6-.674c-.158.59-.316,1.445.051,1.882.135.161,2.287-.049,2.743.435-.52.059-1.941-1-2.459-.927a18.874,18.874,0,0,0-2.017.852,5.82,5.82,0,0,0-2.193.932c-.676.675.508,1.731.625,2.311.125.619-.885,2.236-.252,2.726.537.416,2.045-.453,2.675-.143a18.271,18.271,0,0,0,1.986.662c.636.254.889.478,1.322.16.475-.348-.266-.75-.269-1.315,0-.534.343-1.6-.3-1.905a9.538,9.538,0,0,0,3.33-.488c.61-.3,2.029-.053,2.309-.625s-1.695-1.2-1.906-1.879a18.158,18.158,0,0,0-.555-2.5,25.253,25.253,0,0,1,2.391,1.352c.633.011,1.292.036,1.956.067s1.522,1.252,2.153,1.172c1.042-.132,2.078-1.51,2.4-2.452.705.438.993-1.255,1.689-1.661.755.128,2.349,2.237,3.028,1.9.7-.347.346-2.274.64-2.964.275-.646-.49-.761-.857-1.576-.24-.534-.106-1.051-.43-1.519s-.286-1.157-.655-1.6.852-2.157.49-2.609-2.512.41-2.75-.053-1.7-1.331-1.667-1.954a11,11,0,0,1,.271-2.057c.158-.521.5-1.156.694-1.648.22-.548,2.837-.138,3.051-.685s.337-1.159.528-1.715-.144-1.3.007-1.868c.214-.81-.64-1.271-1.126-1.935S1053.373,1034.429,1052.6,1034.289Z" transform="translate(-993.664 -1004.164)" fill="#638d1d" opacity="0.34"/>
                  <path id="Path_18929" data-name="Path 18929" d="M822.039,734.97c-.256.684-1.376,1.168-1.517,1.88-.145.73,1.033,1.507,1.131,2.227.095.7.639.855,1.077,1.508.487.726-.852,3.541-.158,3.979s.7.164,1.488.467c-.376.407,2.8,1.208,2.44,1.631s-3.733-1.278-3.993-.775a9.959,9.959,0,0,0-1.056,2.469c-.088.7,2.162,1.519,2.329,2.208a5.252,5.252,0,0,0,.881,1.713,10.834,10.834,0,0,0,1.13,1.266c-.011.028-.415.516-.431.546-.184.362,2.034,1.214,1.97,1.62-.039.25-2.765-.361-2.78-.112-.126-.157.666-.4.52-.556a11.7,11.7,0,0,0-2.023-1.142c-.594-.4-1.286-.616-1.842-1.064-1.024-.825-3.159-.86-3.286-2.26-.057-.625,1.819-1.451,1.714-2.082s-1.726-.6-1.99-1.174a1.712,1.712,0,0,0-.732-.956c-.577-.471-.161-2.361-.779-2.424-.654-.066-.847,1.825-1.483,2.073-.609.238-1.759-.884-2.292-.488-.042-.208-1.335-.054-1.353-.168-.091-.6,3.6-1.824,3.5-2.431s-3.194-.573-3.46-1.115,1.058-3.053.493-3.424c-.986-.647-2.641-.64-3.706-.853-.774-.155-.22-.012-.742-.575s-2.765.706-3.541.785-1.848.047-2.325.6c-.567.654,1.764,1.394,1.843,2.108s-1.522,1.433-.991,2.024c.6.667-.09,3.373.6,3.746.724.391,2.765-1.51,3.581-1.291.093.743.219,1.718.367,2.363.171.743-.278,1.795.1,2.458s1.44.858,2.043,1.343c.648.52.967,2.152,1.738,2.36s2.293.93,3.115.746c.142-.032.845-2.4.984-2.447.039.37-2,1.538-1.91,1.888a10.763,10.763,0,0,0,.828,2.78c.438.688,2.721.161,3.333.722-.135.1-1.206,1.538-1.329,1.652-.5-.408,0-2.451-.493-2.868s-2.769,1.5-3.268,1.121-1.029-.354-1.56-.687-.445-1.268-1.017-1.531-.465-1.355-1.065-1.27-2.309-1.472-2.788-1.106.274,2.594.089,3.182c-.55-.419-1.87.01-2.479-.33s-.578-3.307-1.292-3.321c-1.1-.022-1.968,1.389-2.527,1.943-.482-.4-.972-1.226-1.568-1.246a5.685,5.685,0,0,0-2.309.594c-.528.313-2.255,1.084-2.445,1.662-.169.512,1.818,1.668,2.091,2.325.291.7-.411,1.878-.078,2.556s1.1,1.188,1.476,1.844,2.933-.11,3.357.518-.908,4.066-.2,4.183.893-3.418,1.5-3.8,1.756.473,1.845-.337c.034-.3.681-.128.7-.492.21.162-.7.7-.494.865.541.416,2.3-1.032,2.872-.71s.662,1.454,1.357,1.549c.68.093,1.861,1.293,2.5,1.038s.913-.268,1.329-.817c.493.444.327-.15.839.259s.462,2.147,1.036,2.463,2.294-1.577,2.953-1.424c.769.178.82,2.213,1.484,2.075.478.53,2.476-1.889,3.016-1.459.562.448.093,2.42.737,2.677s1.463-2.431,2.077-2.6c-.137.156-1.541,1.019-1.649,1.2-.077-.019,1.056,1.948.979,1.929-.528-.128-1.025-.48-1.573-.613s-1.056-1.307-1.607-1.287c-.873.032-1.121,1.575-1.646,2.029-.573.494-3.356.3-3.508,1.067-.142.714,2.936,2.619,3.163,3.377-.918.234-2.906-.373-3.828-.155-.7.166-1.549-.3-2.248-.137s-1.179,1.26-1.878,1.425-1.588-.47-2.287-.3-1.048,1.163-1.3,1.695a2.85,2.85,0,0,0,.123,1.78c.13.619-.706,2.31-.248,2.7a5.131,5.131,0,0,0,2.852.471c.651-.133,1.282-.37,1.933-.5s1.441.416,2.092.282.683-3.31,1.334-3.442,1.3-.333,1.948-.462,1.3-.332,1.953-.456c.806-.153,2.971,3.174,3.63,2.811s-.262-3.079.114-3.877c.182-.385-1.3-1.993-1.26-2.348.17.058,2.607.416,2.747.458.551.163.646,1.883,1.172,2s.942-1.9,1.526-1.979c.986-.133,1.27.3,1.831-.479.07.028.066,3.041.124,3.063.659.249,1.772-.2,2.432-.031s1.462-3.528,2.182-3.622c.67-.087-.131.043.326-.407.473-.465,1.9.57,1.981-.074.078-.615-.417-.509-.846-1.1s-1.281.1-1.918-.308c-.612-.4.277-3.593-.438-3.848s-2.255,2.911-2.979,2.768c-.76-.151-1.071-2.339-1.772-2.405a6.373,6.373,0,0,0-2.162-.043c.537-.671,2.772-2.236,2.4-3.227-.24-.634-1.8-.376-2.178-.94.782-.232.628-1.279.841-2.092.139.266.988.625,1.147.88.386.619,1.514.556,2.021,1.123s1.151.314,1.775.715-.065,4.467.69,4.591a9.111,9.111,0,0,0,3.685-.5c.636-.376-2.378-3.81-2.125-4.524.237-.667.259-.059.078-.817-.137-.576,1.327-1.183,1.021-1.623s.391-1.656.019-2.091c.157.179-.537-.487-.522-.468-.2-.272-1.548.111-1.715-.189a1.958,1.958,0,0,0-.089-.782c.044-.016.575-.629.51-.391.089-.324-.682-1.536-.608-2.174.08-.686,3.1-1.573,2.976-2.221a10.55,10.55,0,0,0-.735-2.57,7.063,7.063,0,0,0-1-1.291c.1-.117-1.968.505-1.864.39.538-.595,1.994-.537,2.442-1.21a8.2,8.2,0,0,0,1.315-2.43c.129-.626-3.164-1.091-3.269-1.724s2.458-1.877,2.149-2.436-1.149-.84-1.638-1.251c-.637-.536-.847-2.355-1.6-2.624s-2.229,1.627-3.013,1.427c-.01,0-2.118-.151-2.285-.2.1-.211.452-1.713.556-2.071.224-.766,2.907-1.689,2.535-2.233s-2.269.338-2.945.122-2.059-3.073-2.7-2.842C821.749,731.386,822.318,734.224,822.039,734.97Z" transform="translate(-792.795 -731.148)" fill="#638d1d" opacity="0.34"/>
                  <path id="Path_18930" data-name="Path 18930" d="M913.03,1073.646c-.008,0,.054.633.046.631.229-.047.4.9.173.939-.02,0-.083-.98-.1-.979-.129-.028-.056-.269-.056-.261-.25-.1-.68.327-.929.227a47.4,47.4,0,0,1-7.215-3.958,4.744,4.744,0,0,0-4.69.281c-.39.358-.1.345-.318.811-.97-.583-2.511.405-3.4-.317-1.279-1.045-2.043-1.075-3.432-.134-1.161.786-2.515,1.135-2.466,2.414-.281-.022-.158-.783-.426-.794-1.531-.062-3.114,1.155-4.645,1.093-1.743-.07-2.369,1.353-2.42,2.931-.051,1.6.31,3.589,2.1,3.7,1.44.093,2.895-.052,4.334.041a39.852,39.852,0,0,0,4.859-.461c1.146-.069,2.251.708,3.047-.015a14.6,14.6,0,0,0,4.78,1.388c1.7.269,3.485.211,4.572-1,.724.338,1.578-.109,2.32.191,2.638,1.064,4.791,1.771,6.965-.7.836-.949,1.493-1.579,1.056-2.769C916.443,1074.88,914.923,1073.37,913.03,1073.646Z" transform="translate(-874.346 -1036.757)" fill="#b2d838" opacity="0.19"/>
                  <path id="Path_18931" data-name="Path 18931" d="M893.1,863.369c-2.117.47-4.26,1.2-5.013,3.213-.145.388,1.111,1.567,1.032,1.967-.179.037-2.089-2.052-2.259-1.994-1.929.654-3.125,3.643-3.421,5.641-.021.142,1.163-.183,1.154-.041a9.991,9.991,0,0,0-4.537-3.571c-.917-.319-1.93,1.637-2.906,1.737-.212.022-1.086-.611-1.643-.483-.014-.02-1.617-.012-1.636-.035-.049-.136.772-.678.722-.814-.149-.407,1.081-1.322.928-1.728-.361-.964-2.466-.507-3.2-1.216-1.111-1.067-3.75-2.221-4.362-.85-.3.682.623,1.052.354.45-.492-1.1-1.084-2.146-1.549-3.257-.671-1.6-1.292-2.435-2.975-1.72-.707.3-.635-.662-1.487-1.2a3.692,3.692,0,0,1-1.317-1.812c-.627-1.313-2.694-1.385-4.2-1.616-.7-.107-1.469-1.216-2.11-.953-.591.243-.356,2.632-.943,2.841-1.4.5-4.662-2.553-4.47-3.815.314-2.069-1.21-2.405-1.549-.324a5.549,5.549,0,0,0,2.616,5.721c.963.533,2.268,1.89,3.368,1.794.544-.047,1.165-1,1.676-1.184.212-.1-.076-1.865.139-1.962.034.03.681,1.085.758,1.131.627.742-.515,2.745-.083,3.621.523,1.058,2.686.608,3.767,1.131.97.468,1.5.1,2.57-.012.41-.044.585,1.739.974,1.6.131.582,1.634.349,1.81.83.469,1.282-.7,4.207.461,4.953a7.831,7.831,0,0,0,5.266.521c.023.082.86-1.659.888-1.587a3.692,3.692,0,0,0,1.173,1.821,2.192,2.192,0,0,0,1.922.776c.631.017.953,2.068,1.443,2.208s.371-.073.828.317c.368.315,2.148-.527,2.52.03.911,1.361,1.791,3.3,3.373,2.171a9.736,9.736,0,0,0,2.151-3.351c.464,1.072.93,3.462,1.628,4.449-.523,1.153-2.191,2.969-1.722,4.146.275.691,1.237.944,1.671,1.492-.4.392-.065,2.124-.241,2.656a6.848,6.848,0,0,0-2.816.088c-1.875.195-2.191.549-3.245,1.922-.966,1.258-3.224,1.524-4.19,2.782-1.221,1.591.357,2.8,1.938,4.169,1.446,1.254,3.268,2.934,4.494,1.333.7-.909-.177-3.021.52-3.93.373-.487,1.942.777,2.353.322.1.035.4-1.969.484-1.934.727.307.768,2.236,1.508,2.51,1.759.652,3.574,1.273,5.428.587.815-.3,1.946-.45,2.389-1.1.013,0-.466-.168-.454-.167,2.229.142,4.52-1.919,3.627-4.317-.75-2.015-3.282-2.072-5-3.176.11-.315-.774-1.513-.79-1.839-.043-.839,1.207-1.868.879-2.65.918-1.237,1.786-2.932.854-4.331-.4-.6-.691-.606-1.08-1.235,2.259-.787,3.344-3.872,2.435-6.209-.041-.106-.677-.693-.8-.915,1.954-.439,2.5-2.331,1.891-4.057C896.358,862.827,895.064,862.932,893.1,863.369Z" transform="translate(-842.288 -840.57)" fill="#b2d838" opacity="0.19"/>
                  <path id="Path_18932" data-name="Path 18932" d="M977.506,753.869c-.056.114-.3-.158-.356-.038-.2-.171-.608.057-.808-.177a13.179,13.179,0,0,0-1.631-2.13,6.662,6.662,0,0,0-6.043-.771c-.171-.27-1.02-.466-1.263-.677-1.546-1.34-2.657-1.241-4.035.056-2.908,2.738-5.079,8.849-.7,11.137,1.885.985,3.985-.148,5.615-1.439a6.68,6.68,0,0,0,1.654-2.279c.016.015.656.426.672.442s.237-.119.255-.1c.064.077-.228.454-.164.531,1.256,1.5,2.609,3.3,4.5,3.943a7.1,7.1,0,0,0,6.143-1.049c.144-.106-.126-.309.006-.425.319.423,1.333.2,1.652.627,1.4,1.858,1.629,5.06,3.712,6.212,1.142.632,3.694.074,4.613-.769,1.07-.981.86-2.82.541-4.192-.5-2.139-2.665-3.821-3.965-5.543a27.264,27.264,0,0,0-4.1-4.931C981.5,750.425,978.76,751.332,977.506,753.869Z" transform="translate(-943.872 -747.362)" fill="#b2d838" opacity="0.19"/>
                </g>
                <path id="Path_18933" data-name="Path 18933" d="M831.359,753.077a20.353,20.353,0,0,1-.456,4.94c-.353,1.583-1.1,3.109-1.188,4.742a14.426,14.426,0,0,0,1.354,6.98,15.436,15.436,0,0,0-.163,2.064,25.243,25.243,0,0,0,2.335,10.175,25.241,25.241,0,0,1-2.387-3.381,30.555,30.555,0,0,1-2.41-5.472c.276-3.6.435-7.219.718-10.822.028-.358-.527-.461-.554-.1-.239,3.1-.51,6.219-.655,9.333a80.716,80.716,0,0,1-2.3-14.312.365.365,0,0,0-.727.06,101.383,101.383,0,0,0,1.644,11.731c-.3-.477-.655-.936-.976-1.426a18.576,18.576,0,0,1-2.082-5.268c-.088-.313-.563-.144-.476.168a24.322,24.322,0,0,0,1.43,4.141c.734,1.508,2.109,2.746,2.4,4.441a.256.256,0,0,0,.27.216c.111.4.226.806.349,1.206s.253.8.391,1.2c0,.133-.009.266-.011.4a.229.229,0,0,0,.23.226,24.65,24.65,0,0,0,4.958,8.677c-.62-.429-1.242-.852-1.86-1.26l-.114-.074c-.644-2.7-3.442-4.561-4.98-6.751-1.149-1.637-2.3-3.3-3.418-4.981a58.708,58.708,0,0,0-1.242-13.092c-.065-.342-.61-.3-.545.045a83.94,83.94,0,0,1,1.17,12.111c-.833-1.273-1.645-2.557-2.419-3.849a8.316,8.316,0,0,1-.966-5.745,9.528,9.528,0,0,0-.191-3.872c-.773-2.635-2.863-5.041-2.342-7.925a.244.244,0,0,0-.481-.086c-.508,2.552.919,4.743,1.833,7.018a9.9,9.9,0,0,1,.5,5.219,10.489,10.489,0,0,0-.025,2.986q-.443-1.474-.887-2.948c-.087-.286-.522-.131-.437.154a61.255,61.255,0,0,0,2.329,7.516,7.442,7.442,0,0,0,3.151,3.188c0,.081.007.162.01.244.011.263.436.3.478.044l.093.053,1.451,2.194c.772,1.167,1.535,2.347,2.412,3.439a37.911,37.911,0,0,0-4.062-3.284c-1.227-1.87-2.709-3.573-3.9-5.465-1.245-1.976-1.066-4.171-1.641-6.349-1.019-3.855-3.716-6.963-5.237-10.6-.139-.333-.665-.152-.531.187,1.513,3.833,4.406,7.14,5.256,11.223.422,2.025.354,3.913,1.472,5.732a49.764,49.764,0,0,0,2.841,4.1q-1.035-.67-2.107-1.308a7.407,7.407,0,0,1-3.324-3.32c-.563-1.315-.773-2.8-1.2-4.162a41.452,41.452,0,0,0-3.446-7.907.3.3,0,0,0-.264-.168.349.349,0,0,0-.03-.034,36.682,36.682,0,0,0-3.517-3.272c-.232-.167-.615.1-.405.36a37.178,37.178,0,0,0,3.515,3.382.342.342,0,0,0,.06.045.4.4,0,0,0,.038.1,40.416,40.416,0,0,1,3.575,8.442c.759,2.6,1.154,4.785,3.476,6.429,1.615,1.143,3.345,2.062,4.991,3.135l.114.14a.3.3,0,0,0,.268.113c.546.368,1.081.756,1.6,1.18a31.869,31.869,0,0,1,4.8,4.957c-1.061-.674-2.126-1.343-3.182-2.025-2.076-1.34-4-2.916-6.083-4.235a8.259,8.259,0,0,0-2.6-1.007c-.649-.7-1.31-1.4-2.013-2.049a.236.236,0,0,0-.008-.187,26.6,26.6,0,0,0-2.265-4.444,41.253,41.253,0,0,0-3.541-4.146A30.283,30.283,0,0,0,805,758.363c-1.658-1.23-3.4-2.555-3.678-4.746-.058-.454-.77-.4-.711.059.46,3.549,4.139,5.117,6.485,7.327a48.625,48.625,0,0,1,4.5,4.931,26.933,26.933,0,0,1,2.277,4.025c-.338-.263-.686-.514-1.05-.745-.723-.461-1.5-.81-2.259-1.2a27.318,27.318,0,0,1-3.038-2.063c-1.627-1.119-3.62-1.522-5.229-2.672a19.906,19.906,0,0,1-4.281-4.709c-.238-.327-.754.02-.521.353a23.354,23.354,0,0,0,3.532,4.315c1.542,1.358,3.423,1.865,5.2,2.805,1.01.534,1.823,1.306,2.776,1.92.871.562,1.837.934,2.751,1.414a16.606,16.606,0,0,1,4.18,3.374,10.773,10.773,0,0,1-2.794-.9c-2.024-1.055-4.086-1.039-6.243-1.618-4.3-1.157-7.611-4.771-12.255-4.8-.373,0-.323.575.048.578,4.548.032,7.87,3.68,12.1,4.8,1.025.271,2.079.351,3.122.523a11.863,11.863,0,0,1,3.43,1.324,9.654,9.654,0,0,0,2.851.759c.152.025.3.054.445.085l.422.457c.2.218.471.031.509-.2a8.933,8.933,0,0,1,2.328,1.2c3.3,2.307,6.753,4.44,10.081,6.725.181.251.362.5.538.758a.35.35,0,0,0,.572.014,65.333,65.333,0,0,1,5.369,4.168,33.023,33.023,0,0,0-4-2.312,29.418,29.418,0,0,0-6.009-2.284.2.2,0,0,0-.11-.114,16.768,16.768,0,0,0-1.662-.606,37.784,37.784,0,0,0-12.2-7.856,48.887,48.887,0,0,0-14.533-3.634,20.37,20.37,0,0,1-4.629-2.057c-.325-.2-.581.337-.257.538a17.246,17.246,0,0,0,4.758,2.12,6.066,6.066,0,0,1-5.245-.644c-.249-.164-.561.185-.309.356,1.777,1.205,4.457,1.719,6.38.519a.229.229,0,0,0,.049-.042c.035.006.071.015.106.021a.232.232,0,0,0,.278-.162,43.317,43.317,0,0,1,13.117,3.581q.44.2.876.41a87.083,87.083,0,0,0-9.093-.19,4.564,4.564,0,0,0-2.821,1.075,5.826,5.826,0,0,1-4.29,1.4c-.389,0-.338.6.05.6a7.57,7.57,0,0,0,3.22-.474,4.563,4.563,0,0,0,1.09-.773,4.269,4.269,0,0,1,2.8-1.248c3.347-.243,6.831.129,10.186.2a.245.245,0,0,0,.05-.009q1.035.522,2.047,1.087c-1.305.383-2.389,1.276-3.681,1.733a17.57,17.57,0,0,1-5.34.681c-2.931.093-6.026.369-8.155,2.619a.336.336,0,0,0-.063.095,5.9,5.9,0,0,1-1.355-.37c-.353-.144-.612.387-.257.538a9.612,9.612,0,0,0,5.848.15,38.215,38.215,0,0,1,7.257-.746c2.668-.022,5.349-.046,8.011.145a35.122,35.122,0,0,1,4.657.679c-2.132.105-4.183,1-6.25,1.473a76.44,76.44,0,0,1-9.5,1.347.262.262,0,0,0-.224.342,12.107,12.107,0,0,1-3.5-.006,18.329,18.329,0,0,1-3.784-1.368c-.3-.132-.515.323-.218.455,2.486,1.1,4.879,1.895,7.592,1.362a8.161,8.161,0,0,1-4,2.557c-.359.093-.163.623.19.539a7.444,7.444,0,0,0,4.806-3.315.285.285,0,0,0,.034-.116c2.417-.246,4.835-.512,7.221-.971,2.544-.489,5.123-1.708,7.712-1.795,2.938-.1,6.095,1.258,8.692,2.5a34.761,34.761,0,0,1,6.614,4.249,10.462,10.462,0,0,0-2.8-.476,16.824,16.824,0,0,0-4.9-2.149,10.037,10.037,0,0,0-9.238-.849c-2.166.919-3.94,2.547-6.263,3.128a20.874,20.874,0,0,1-7.59-.011c-.3-.037-.392.435-.085.473,4.044.5,7.668.6,11.27-1.544,2.029-1.21,3.936-2.292,6.368-2.314a9.534,9.534,0,0,1,4.022.852,8.461,8.461,0,0,0-5.057.93c-1.272.7-2.417,1.587-3.742,2.192a15.346,15.346,0,0,1-4.129,1.169,40.758,40.758,0,0,1-8.64.068.335.335,0,0,0-.243.079c-1.123-.68-2.266-1.329-3.4-1.994-.317-.186-.562.331-.247.516,1.308.768,2.6,1.561,3.93,2.3a.251.251,0,0,0,.378-.219c4.521.285,9.324.464,13.429-1.735,2.618-1.4,4.644-3.162,7.813-2.683a10.223,10.223,0,0,1,1.4.317,10.356,10.356,0,0,0-3.233,1.261c-1.735.9-3.641,1.032-5.383,1.842-3.116,1.449-4.755,4.8-7.507,6.737-.235.166.015.535.25.37,2.682-1.879,4.3-5.1,7.266-6.575,1.548-.772,3.323-.826,4.891-1.576,1.462-.7,2.789-1.619,4.458-1.6l0,0a.243.243,0,0,0,.368-.068c.836.334,1.64.738,2.444,1.154a8.556,8.556,0,0,0-1.417.305,7.24,7.24,0,0,0-1.273.53c-1.881.565-3.689,1.333-5.6,1.814-1.6.4-3.547.387-5,1.255-1.5.892-2.3,2.6-3.645,3.681a10.005,10.005,0,0,1-5.279,2.133.319.319,0,0,0,.053.636,10.8,10.8,0,0,0,4.361-1.4,15.677,15.677,0,0,0,3.632-3.428c1.531-1.689,3.529-1.669,5.607-2.156a38.011,38.011,0,0,0,3.948-1.145,20.257,20.257,0,0,0-2.447,2.828c-1.958,2.627-3.854,5.271-6.58,7.166a.323.323,0,0,0,.363.535,23.83,23.83,0,0,0,5.274-5.346c1.564-2.064,3.011-4.523,5.318-5.846a7.566,7.566,0,0,1,3.841-.968c.3.152.6.3.909.444a.24.24,0,0,0,.106.021.26.26,0,0,0,.112.325,26.828,26.828,0,0,0,4.487,2.1c.012.013.022.027.034.04a18.523,18.523,0,0,0-8.57-.459,6.857,6.857,0,0,0-4.536,3.724c-1.469,2.536-2.827,4.909-5.294,6.618a.261.261,0,0,0,.293.432,14.807,14.807,0,0,0,4.088-4.359c1.339-2.112,2.208-4.739,4.768-5.656a11.36,11.36,0,0,1,4.761-.42,7.326,7.326,0,0,0-4.111,2.755c-1.589,2-4.131,3.5-5.04,5.938-.68.364-1.388.7-2.133,1.026-.286.125-.128.585.162.46.63-.27,1.265-.542,1.888-.839a.323.323,0,0,0,.533-.137c.015-.052.035-.1.052-.153a12.773,12.773,0,0,0,2.351-1.506c1.356-1.123,2.323-2.6,3.846-3.534a11.844,11.844,0,0,1,6.317-1.586,8.6,8.6,0,0,0-3.793,2.354c-2.655,2.843-2.18,6.927-4.271,10.089-.183.276.208.621.394.342a12.425,12.425,0,0,0,1.675-3.528c.444-1.584.524-3.214,1.317-4.692a8.388,8.388,0,0,1,6.937-4.388c-4.2,1.766-2.85,8.528-3.706,11.975-.077.31.41.4.489.088.9-3.495-.647-10.651,4.205-11.746a4.8,4.8,0,0,1,3.443.669l.022.091a.2.2,0,0,0,.32.113,13.33,13.33,0,0,1,2.827,2.531,39.648,39.648,0,0,1,3.722,5.656c.182.3.6,0,.446-.3a26.312,26.312,0,0,0-4.718-6.779,12.026,12.026,0,0,0-2.247-1.732c-.924-3.922-1.221-8.631,2.461-11.257.239-.17-.016-.547-.255-.377-3.719,2.649-3.625,7.309-2.743,11.344l-.068-.035a.263.263,0,0,0-.035-.055,25.384,25.384,0,0,0-3.321-3.044,11.127,11.127,0,0,1,1.071-7.648c1.559-2.754,4.342-4.33,7.025-5.81.384-.212,0-.771-.381-.563-2.875,1.578-5.774,3.279-7.378,6.261a11,11,0,0,0-1.162,7.163,18.046,18.046,0,0,0-2.229-1.316c-.137-.174-.279-.343-.421-.512-.226-.493-.431-1-.627-1.516a9.985,9.985,0,0,1-.685-6.029,9.8,9.8,0,0,1,3.456-6.1c1.758-1.288,3.6-2.47,5.4-3.7a.307.307,0,0,0-.344-.508l-3.651,2.474a17.8,17.8,0,0,0-3.131,2.33,12.28,12.28,0,0,0-2.61,6.777,10.737,10.737,0,0,0,.871,4.827q-.421-.426-.861-.834c-1.526-2.834-1.044-6.59-.384-9.611a24.492,24.492,0,0,1,4.707-9.895c.243-.31-.219-.713-.463-.4a25.214,25.214,0,0,0-4.989,10.906,21.574,21.574,0,0,0-.439,6.154c-.063-.149-.124-.3-.182-.451a8.629,8.629,0,0,1-.371-3.933.235.235,0,0,0,.06-.173c0-.085-.015-.169-.021-.254.027-.279.057-.559.085-.84q.528-5.237,1.312-10.444c.046-.31-.434-.4-.481-.086q-.715,4.757-1.224,9.542c-.226-.93-.522-1.846-.748-2.78a34.411,34.411,0,0,1-.89-6.175.248.248,0,0,0-.495.041,35.013,35.013,0,0,0,.738,5.53,39.469,39.469,0,0,1,1.2,5.224,10.52,10.52,0,0,0,.081,3.673,21.092,21.092,0,0,0,1.026,2.688c-.472-.392-.951-.777-1.441-1.148-2.082-4.313-3.9-8.9-3.542-13.783.011-.147.024-.294.04-.44a.245.245,0,0,0,.159-.331c-.032-.072-.062-.146-.093-.219.317-2.262,1.1-4.417,1.612-6.644a41.542,41.542,0,0,0,.789-7.863c.013-.357-.538-.306-.553.046a39.344,39.344,0,0,1-1.11,8.758c-.417,1.532-.874,3.035-1.182,4.569a12.89,12.89,0,0,1-.654-7.512,26.532,26.532,0,0,0,1.291-8.051C831.894,752.679,831.35,752.726,831.359,753.077Zm-12.4,12.9c-.18-.574-.353-1.15-.528-1.725a26.284,26.284,0,0,0,2.3,3.756l1.294,1.956A7.149,7.149,0,0,1,818.963,765.972Zm-6.629,14.213a42.894,42.894,0,0,0-7.3.391,26.786,26.786,0,0,1-5.117.75c2.393-2.235,5.9-2.019,8.97-2.183a14.014,14.014,0,0,0,3.953-.663c1.446-.514,2.64-1.506,4.143-1.88a.253.253,0,0,0,.077-.038c.471.275.939.556,1.4.85a55.947,55.947,0,0,1,4.716,3.5A50.632,50.632,0,0,0,812.334,780.185Zm31.411,13.736a15.221,15.221,0,0,0-8.624.941,11.345,11.345,0,0,0-3.639,2.806,13.6,13.6,0,0,1-3.008,2.426c1.008-1.836,3.062-3.081,4.35-4.69a7.915,7.915,0,0,1,2.6-2.437,9.865,9.865,0,0,1,3.612-.71.311.311,0,0,0,.1-.027l.285.052a21.752,21.752,0,0,1,3.555,1.005c.122.053.246.1.374.142.594.228,1.182.472,1.77.729-.1-.01-.2-.019-.3-.023l-.011-.005c-.105-.024-.212-.046-.318-.068a.231.231,0,0,0-.186-.107C844.117,793.939,843.931,793.928,843.745,793.921Zm.588-.837a.315.315,0,0,0-.094-.043c-.086-.021-.165-.049-.248-.073-.284-.12-.573-.236-.866-.345-.079-.041-.156-.084-.231-.128q.5.131,1.008.236C844.045,792.848,844.189,792.965,844.333,793.084Zm-1.554-1.234q-.557-.168-1.1-.351c-.115-.127-.227-.258-.332-.395a.293.293,0,0,0,.1-.178C841.906,791.215,842.347,791.527,842.779,791.851Zm-2.26-.764a25.459,25.459,0,0,1-3.574-1.672.248.248,0,0,0-.082-.027.239.239,0,0,0,.015-.2,10.967,10.967,0,0,1,2.638.73c.147.061.289.128.431.2A10.333,10.333,0,0,0,840.519,791.087Z" transform="translate(-794.995 -749.004)" fill="#efefef" opacity="0.34"/>
              </g>
            </g>
          </g>
        </g>
      </g>
      <g id="Group_2047" data-name="Group 2047" transform="translate(159.945 395.094) rotate(171)">
        <g id="Group_2046" data-name="Group 2046">
          <g id="Group_2045" data-name="Group 2045">
            <path id="Path_1591" data-name="Path 1591" d="M-445.4,82.919a12.633,12.633,0,0,1,1.178.948,1.6,1.6,0,0,0,1.254.383,1.659,1.659,0,0,0,1.128-.615,1.467,1.467,0,0,0,.391-1.212,1.664,1.664,0,0,0-.613-1.128,14.832,14.832,0,0,0-1.276-1.016,1.658,1.658,0,0,0-1.246-.341,1.528,1.528,0,0,0-1.087.608,1.771,1.771,0,0,0-.341,1.246,1.586,1.586,0,0,0,.615,1.128m22.688,37.613a1.6,1.6,0,0,0,.434-1.219q-.595-20.11-16.4-35.024a1.751,1.751,0,0,0-1.226-.473,1.6,1.6,0,0,0-1.142.531,1.736,1.736,0,0,0-.48,1.185,1.661,1.661,0,0,0,.539,1.183q14.784,13.9,15.364,32.694a1.666,1.666,0,0,0,.54,1.184,1.571,1.571,0,0,0,1.178.438A1.534,1.534,0,0,0-422.708,120.533Z" transform="translate(446.021 -79.923)" fill="url(#linear-gradient-2)"/>
          </g>
        </g>
      </g>
      <g id="Group_14335" data-name="Group 14335" transform="translate(259.251 349.98) rotate(14)">
        <g id="Group_2052" data-name="Group 2052" transform="translate(0 0)">
          <g id="Group_2051" data-name="Group 2051" transform="translate(0 0)">
            <path id="Path_1593" data-name="Path 1593" d="M1.66,30.056a1.36,1.36,0,0,0,.97-.464Q13.378,17.911,10.885,1.209A1.421,1.421,0,0,0,10.312.3,1.613,1.613,0,0,0,9.24,0a1.5,1.5,0,0,0-.983.419,1.116,1.116,0,0,0-.289.951Q10.33,16.967.3,27.9a1.116,1.116,0,0,0-.289.951,1.278,1.278,0,0,0,.559.864A1.545,1.545,0,0,0,1.66,30.056Z" transform="translate(0 0)" fill="url(#linear-gradient-3)"/>
          </g>
        </g>
      </g>
    </g>
  </g>
</svg>
