<svg xmlns="http://www.w3.org/2000/svg" xmlns:xlink="http://www.w3.org/1999/xlink" width="133.002" height="132.002" viewBox="0 0 133.002 132.002">
  <defs>
    <clipPath id="clip-path">
      <circle id="Ellipse_698" data-name="Ellipse 698" cx="66.001" cy="66.001" r="66.001" transform="translate(1)" fill="#fff"/>
    </clipPath>
    <clipPath id="clip-path-2">
      <rect id="Rectangle_4404" data-name="Rectangle 4404" width="68.615" height="63.866" fill="none"/>
    </clipPath>
  </defs>
  <g id="Group_117298" data-name="Group 117298" transform="translate(-1662 -123)">
    <g id="Group_17376" data-name="Group 17376" transform="translate(-24)">
      <path id="Path_19872" data-name="Path 19872" d="M66,0A66,66,0,1,1,0,66,66,66,0,0,1,66,0Z" transform="translate(1686 123)" fill="#e8eaed"/>
    </g>
    <g id="Group_68589" data-name="Group 68589" transform="translate(1694 159.827)" clip-path="url(#clip-path-2)">
      <path id="Path_35755" data-name="Path 35755" d="M35.409,1.709,20.8,13.969a3.35,3.35,0,0,1-2.24.82l-9.751,0A1.766,1.766,0,0,0,7.191,16.1L5.279,25.228a1.028,1.028,0,0,0,1.064,1.261h17.4a4.4,4.4,0,0,0,3.045-1.056L37.3,16.646a1.63,1.63,0,0,1,1.154-.417,1.734,1.734,0,0,1,1.279.556l6.941,8.289a4.133,4.133,0,0,0,3.354,1.441H65.61a1.652,1.652,0,0,0,1.54-1.286L69.1,16.057a1.012,1.012,0,0,0-1.017-1.27l-13.131-.016a1.571,1.571,0,0,1-1.278-.6L43.26,1.756A4.607,4.607,0,0,0,39.533,0a5.9,5.9,0,0,0-4.124,1.709" transform="translate(-0.508 0)" fill="#0090df"/>
      <path id="Path_35756" data-name="Path 35756" d="M3.507,41.357a1.646,1.646,0,0,0-1.538,1.276L.026,51.8a1.012,1.012,0,0,0,1.01,1.279l13.138.009a1.555,1.555,0,0,1,1.275.6L25.863,66.108a4.6,4.6,0,0,0,3.716,1.753,5.969,5.969,0,0,0,4.139-1.7L48.315,53.9a3.343,3.343,0,0,1,2.245-.831h9.752a1.785,1.785,0,0,0,1.623-1.3l1.909-9.136a1.028,1.028,0,0,0-1.065-1.257H45.38a4.4,4.4,0,0,0-3.048,1.052L31.813,51.21a1.6,1.6,0,0,1-1.147.426,1.7,1.7,0,0,1-1.272-.557l-6.955-8.29a4.129,4.129,0,0,0-3.355-1.436Z" transform="translate(0 -3.994)" fill="#00862f"/>
    </g>
  </g>
</svg>
