<svg xmlns="http://www.w3.org/2000/svg" xmlns:xlink="http://www.w3.org/1999/xlink" width="375" height="270" viewBox="0 0 375 270">
  <defs>
    <clipPath id="clip-path">
      <rect id="Rectangle_3976" data-name="Rectangle 3976" width="375" height="270" transform="translate(8039 -9311)" fill="#fff" stroke="#707070" stroke-width="1" opacity="0.59"/>
    </clipPath>
  </defs>
  <g id="Mask_Group_16418" data-name="Mask Group 16418" transform="translate(-8039 9311)" clip-path="url(#clip-path)">
    <g id="todller_girl_DS_1" data-name="todller girl DS 1" transform="matrix(0.999, 0.035, -0.035, 0.999, 8115.758, -9214.895)">
      <g id="Group_57181" data-name="Group 57181" transform="matrix(0.966, -0.259, 0.259, 0.966, 33.106, 60.049)">
        <g id="Group_57177" data-name="Group 57177" transform="translate(0.924 0)">
          <g id="Group_57176" data-name="Group 57176" transform="translate(0)">
            <path id="Path_47577" data-name="Path 47577" d="M2.423,34.753A5.573,5.573,0,0,0,.837,37.5a5.485,5.485,0,0,0,.014,1.268,5.91,5.91,0,0,0,.785,2.552.981.981,0,0,1-.058.11A15.635,15.635,0,0,0,.1,46.274,12.055,12.055,0,0,0,.5,51.3a7.737,7.737,0,0,0,.8,1.878,8.029,8.029,0,0,0,1.7,1.911q.476.385.964.711-.047.359-.075.708-.014.136-.015.29a5.333,5.333,0,0,0-.341.787,11.991,11.991,0,0,0-.489,3.375q-.088,2.17-.011,3.529a15.588,15.588,0,0,0,.594,3.481,7.127,7.127,0,0,0,1.183,2.4,10.122,10.122,0,0,0,2.027,1.8,14.248,14.248,0,0,0,1.85,1.111,8.97,8.97,0,0,0,1.753.658l-.077.2A9.909,9.909,0,0,0,9.983,78.9a3.694,3.694,0,0,0,.356,1.067,7.629,7.629,0,0,0,.46.751,2,2,0,0,0-.584.47,4.711,4.711,0,0,0-.89,1.7A5.029,5.029,0,0,0,9.5,85.9c.336.96,71.432,11.658,72.93,9.435L72.607,78.191,83.029,94.777a28.247,28.247,0,0,0,6.73-.626q2.445-.667,3.665-1.1a10.118,10.118,0,0,0,1.943-.934,3.228,3.228,0,0,0,1.258-1.2,7.65,7.65,0,0,0,.275-1.233l.332-1.267a4.308,4.308,0,0,0,.1-1.258,5.029,5.029,0,0,0-.691-1.714,4.031,4.031,0,0,0-.286-.5.8.8,0,0,1,.145.017,10.083,10.083,0,0,0,1.7,0,7.4,7.4,0,0,0,1.724-.4,5.778,5.778,0,0,0,.646,1.1,4,4,0,0,0,4.676,1.471,4.5,4.5,0,0,0,1.576-.77,1.981,1.981,0,0,0,1.033.85,2.607,2.607,0,0,0,1.523.2,3.189,3.189,0,0,0,1.4-.564,1.935,1.935,0,0,0,.777-.966,1.565,1.565,0,0,0,.021-.982,2.32,2.32,0,0,0-.491-.836,2.541,2.541,0,0,0-1.361-.785,3.041,3.041,0,0,0-1.659.181l-.215.075q-.03-.161-.085-.358a4.352,4.352,0,0,0-1.492-2.419,4.046,4.046,0,0,0-1.822-.719,4.094,4.094,0,0,0-1.645.045,6.507,6.507,0,0,0-.208-.695,4.115,4.115,0,0,0-1.386-2.3q-.413-.371-.707-.607a4.911,4.911,0,0,0,.489-.491q.446-.516.784-1a6.8,6.8,0,0,0,2.6,1.542,7.536,7.536,0,0,0,2.77.393,3.261,3.261,0,0,0,.118.952,3.938,3.938,0,0,0,.625,1.344,2.366,2.366,0,0,0,1.172.819,3.078,3.078,0,0,0,2.107-.265,6.741,6.741,0,0,0,.665-.39q.2-.093.411-.216a1.934,1.934,0,0,0,.779-1.2,1.752,1.752,0,0,0-.061-.985,2.593,2.593,0,0,0-.388-1.075,2.8,2.8,0,0,0-1.094-1.018,2.615,2.615,0,0,0-.779-.284,2.288,2.288,0,0,0,.173-1.071,5.477,5.477,0,0,0,.563-.228,6.515,6.515,0,0,0,1.756-1.208,4.813,4.813,0,0,0,1.256-1.706,9.064,9.064,0,0,0,.3-1.86q.133-.818.162-1.244a5.96,5.96,0,0,0,.029-1.243,3.569,3.569,0,0,0-.765-1.977l.962.279a11.3,11.3,0,0,0,1.755.427,6.811,6.811,0,0,0,1.261-.024,3.662,3.662,0,0,0,.919,1.657,3.178,3.178,0,0,0,1.19.885,2.271,2.271,0,0,0,.616.2,1.52,1.52,0,0,0,.233,1.548,2.245,2.245,0,0,0,1.485.967,1.964,1.964,0,0,0,1.661-.412,1.715,1.715,0,0,0,.582-1.719,1.94,1.94,0,0,0-1.13-1.3,1.769,1.769,0,0,0,.473-.788,4.139,4.139,0,0,0,.195-1.39,2.98,2.98,0,0,0-.165-1.333,2.689,2.689,0,0,0-1.891-1.444,7.639,7.639,0,0,0,.6-1.731,6.04,6.04,0,0,0-.083-2.81,4.313,4.313,0,0,0-1.606-2.352,6.921,6.921,0,0,0-1.33-.7q-.949-.337-1.376-.5l-.063-.014a4,4,0,0,0-.193-1.8,10.276,10.276,0,0,0-.843-1.7,15.181,15.181,0,0,0-2.056-2.777.381.381,0,0,0,.113.01q.233-.009.435-.025a8.094,8.094,0,0,0,1.426,2.049,4.194,4.194,0,0,0,1.681.9,4.124,4.124,0,0,0,1.909.107,1.773,1.773,0,0,0,.309-.054,1.893,1.893,0,0,0-.1.594,1.852,1.852,0,0,0,.318,1.167,2.287,2.287,0,0,0,.957.894,3.018,3.018,0,0,0,2.519.183A2.765,2.765,0,0,0,126,52.438a1.663,1.663,0,0,0,.532-1.052,2.485,2.485,0,0,0-.342-1.28,3.166,3.166,0,0,0-1.143-1.168,2.562,2.562,0,0,0-1.6-.362.2.2,0,0,0-.088.026,3.1,3.1,0,0,0,.233-.672,3.4,3.4,0,0,0-.684-2.56,5.3,5.3,0,0,0-3.125-2.278,1.6,1.6,0,0,0-.29-.034,5.6,5.6,0,0,0-.528-1.707,7.167,7.167,0,0,0-1.387-2.148,6.278,6.278,0,0,0-2.507-1.645,16.248,16.248,0,0,0-.417-2.053,7.284,7.284,0,0,0-1.559-2.711,5.951,5.951,0,0,0-2.67-1.728,6.119,6.119,0,0,0-2.034-.212,2.28,2.28,0,0,0-.739.2q-.236-.423-.448-.733a4.024,4.024,0,0,0-.8-.859,12.229,12.229,0,0,0-4.588-2.238.851.851,0,0,1-.22-.05,7.192,7.192,0,0,0,.329-1.7,11.621,11.621,0,0,0-.039-2.045,8.764,8.764,0,0,0-.59-2.539A7.38,7.38,0,0,0,99.718,18.7a18.322,18.322,0,0,0-2.867-2.328q-1.216-.768-3.255-1.845a14.465,14.465,0,0,0-3.366-1.422,5.58,5.58,0,0,0-.906-.158,1.5,1.5,0,0,0-.27-.123q-.339-.184-.684-.339a8.9,8.9,0,0,0-.148-1.113,7.525,7.525,0,0,0-.843-2.365A8.315,8.315,0,0,0,86.069,7.4a13.948,13.948,0,0,0-4.418-3,18.869,18.869,0,0,0-5.219-1.409.723.723,0,0,0-.113-.01A6.636,6.636,0,0,0,74.383,1,6.236,6.236,0,0,0,73.229.327a6.623,6.623,0,0,0-3.37-.22,5.782,5.782,0,0,0-1.244.321,9.583,9.583,0,0,0-1.1.723q-.33.219-1.076.605L66.4,1.749a9.136,9.136,0,0,0-1.282-.474A16.421,16.421,0,0,0,58.556.5a19.71,19.71,0,0,0-4.035.91,42.269,42.269,0,0,0-12.76,6.483q-.374.27-2.284,1.8-1.383,1.091-2.315,1.714a11.843,11.843,0,0,0-1.281.929q-.089.1-3.451,1.92l.075.109q-.729.348-.791.361a13.527,13.527,0,0,0-1.529.488q-1.081.4-2.812.908-2.4.692-2.862.835a42.67,42.67,0,0,0-12.748,6.5,18.821,18.821,0,0,0-2.972,2.661,13.745,13.745,0,0,0-2.776,5.558,8.467,8.467,0,0,0-.25,1.27l-.019.011q-.728.376-1.107.521a8.884,8.884,0,0,0-1.265.486A4.868,4.868,0,0,0,2.423,34.753Z"/>
          </g>
        </g>
        <g id="Group_57180" data-name="Group 57180" transform="translate(0 3.268)">
          <g id="Group_57179" data-name="Group 57179" transform="translate(0 0)">
            <g id="Group_57178" data-name="Group 57178">
              <path id="Path_47578" data-name="Path 47578" d="M9.59,56.289a10.719,10.719,0,0,1,1.775-5,19.817,19.817,0,0,1-7.029-5.657,9.163,9.163,0,0,1-2.125-6.54A26.29,26.29,0,0,0,.028,43.845q-.358,5.086,3.924,9.136a20.078,20.078,0,0,0-1.513,4.563q-.461,2.287.355,7.884t8.342,6.138a5.591,5.591,0,0,0-.145.723A15.553,15.553,0,0,0,11,76.749q.079.311-1.569.664-1.61.331-1.523.535a6.437,6.437,0,0,0-.654,2.783q-.084,1.045-.05,2.965.008,1.3,2.312,2.3,1.249.544,3.686,1.541c1.3,3.274,16.831-5.508,16.406-6.909a5.36,5.36,0,0,1,.016-3.4,7.114,7.114,0,0,1-3.7,1.757,7.35,7.35,0,0,1-6.555-2.08q-1.138-1.043-1.246-3.89a9.17,9.17,0,0,1,2.756-6.873q-6.025-.017-8.581-2.553a10.83,10.83,0,0,1-2.082-4.14m74.5-45.806A12.941,12.941,0,0,1,90.273,14.9a11.185,11.185,0,0,1,2.54,2.162,11.45,11.45,0,0,1,2.715,3.82q.955,3.346-2.23,8.072a11.1,11.1,0,0,1,7.777,1.492q2.551,1.593,2.924,3.035a6.116,6.116,0,0,1-1.591,6.242,6.949,6.949,0,0,1-3.552,1.928,6.517,6.517,0,0,1,3.129,1.816,5.292,5.292,0,0,1,1.658,3.674,3.717,3.717,0,0,1-1.32,2.586,4.412,4.412,0,0,1-2.59,1.467,13.542,13.542,0,0,1,4.945,1.008q3.348,1.357,3.483,3.932a4.623,4.623,0,0,1-1.836,4.012,25.055,25.055,0,0,1-3.522,2.166,6.8,6.8,0,0,1,4.235,2.266q2.022,2.338.361,5.711a5.162,5.162,0,0,1,3.922,1.964,8.116,8.116,0,0,1,1.976,4.024,16.509,16.509,0,0,0,3.206-6.525,24.927,24.927,0,0,1,.292-3.234,4.5,4.5,0,0,0-.018-1.546,8.885,8.885,0,0,1-.188-1.6,7.869,7.869,0,0,1,1.313,1.222,7.955,7.955,0,0,0,1.289,1.108,4.313,4.313,0,0,1,1.425,1.386,2.411,2.411,0,0,0,3.262,1,2.46,2.46,0,0,0,1.545-3.152,10.829,10.829,0,0,1-.208-2.916q2.455.323,2.745-1.941a7.743,7.743,0,0,0-.869-4.545q-1.153-2.234-2.363-4.512,3.466.011,3.455-3.2a5.581,5.581,0,0,0-2.48-4.8q-.62-.479-1.177-.944a81.56,81.56,0,0,1-7.472-7.746q.367-2.462.529-3.705.291-2.34-.875-3.035-1.749-1.042-2.76-1.548a8.081,8.081,0,0,0-2.891-.961q-.143-.171-1.312.922-1.188,1.1-1.432.865a18.654,18.654,0,0,0-4.1-2.373,4.154,4.154,0,0,0-.748-.277q3.493-6.183-1.2-9.787a31.146,31.146,0,0,0-7.065-4.462,25.117,25.117,0,0,0-4.993-1.234A11.756,11.756,0,0,0,83.889.8a33.305,33.305,0,0,0-5.52-.8,10.018,10.018,0,0,1,4.9,5.116A17.621,17.621,0,0,1,84.725,13.633Z" fill="#130605"/>
            </g>
          </g>
        </g>
      </g>
      <g id="Group_57183" data-name="Group 57183" transform="translate(75.666 106.477)">
        <g id="Group_57182" data-name="Group 57182" transform="translate(0 0)">
          <path id="Path_47579" data-name="Path 47579" d="M-99.028-168.972q-4.26.385-11.841,1.4-3.562.457-22.19,3.032-4.308.6-6.474.939-3.61.578-6.426,1.276-1.252.289-5.584,1.492-3.442.915-5.608,1.324a15.366,15.366,0,0,0-4.332,2.07,34.746,34.746,0,0,0-5.559,4.332q-6.474,6.354-1.227,9.579c1.813,1.123,94.062-2.278,96.292-3.61q3.321-1.949,3.8-1.877.481.1.818-.722a7.247,7.247,0,0,0,.409-2.575,18.186,18.186,0,0,0-2.142-8.64,14.82,14.82,0,0,0-6.041-6.306,17.25,17.25,0,0,0-5.8-1.877,38.587,38.587,0,0,0-6.185-.457A116.677,116.677,0,0,0-99.028-168.972Z" transform="translate(170.617 169.599)" fill="#fc6"/>
        </g>
      </g>
      <g id="Group_57193" data-name="Group 57193" transform="matrix(0.633, 0.774, -0.774, 0.633, 82.146, 90.149)">
        <g id="Group_57185" data-name="Group 57185" transform="translate(0 33.893)">
          <g id="Group_57184" data-name="Group 57184" transform="translate(0 0)">
            <path id="Path_47580" data-name="Path 47580" d="M6.479,0Q5.8,1.4,5.373,2.406q-1.5,3.377-2.43,6.183A65.405,65.405,0,0,0,.2,18.574a17.863,17.863,0,0,0-.168,3.657,8.945,8.945,0,0,0,3.2,6.713A10.76,10.76,0,0,0,7.779,31.23a6.976,6.976,0,0,0,5.317-1.2A17.547,17.547,0,0,0,16.7,26.562q2.085-2.691,2.959-3.85H19.64q.037-.033.072-.072,1.613-3.434,3.176-6.977a9.141,9.141,0,0,0,.577-1.684,3.61,3.61,0,0,0-.024-1.829,17.5,17.5,0,0,1-4.162-1.66Q17.9,9.739,15.406,8.108q-1.915-1.245-2.863-1.949A32.2,32.2,0,0,1,6.479,0Z" transform="translate(0 11.027)" fill="#a56b4e"/>
            <path id="Path_47581" data-name="Path 47581" d="M1.78,7.226q-.719,1.49-1.3,2.743L.1,10.763q-.043.121-.1.265a32.2,32.2,0,0,0,6.063,6.159q.948.7,2.863,1.949,2.49,1.631,3.874,2.382a17.5,17.5,0,0,0,4.162,1.66,3.61,3.61,0,0,1,.024,1.829,9.141,9.141,0,0,1-.577,1.684q-1.563,3.544-3.176,6.977a.336.336,0,0,1,.048-.048L14.6,31.767q.431-.639.842-1.251,1.481-2.193,2.5-3.826a1.4,1.4,0,0,0,.1-.144,37.1,37.1,0,0,0,2-3.441A100.484,100.484,0,0,0,23.723,12.76q.531-1.618-2.045-4.5a29.648,29.648,0,0,0-6.111-5.053A21.852,21.852,0,0,0,8.782.177Q5.468-.506,4.547,1.452Z" transform="translate(6.479 0)" fill="#84553e"/>
          </g>
        </g>
        <g id="Group_57187" data-name="Group 57187" transform="translate(4.53 0)">
          <g id="Group_57186" data-name="Group 57186" transform="translate(0)">
            <path id="Path_47582" data-name="Path 47582" d="M21.775.506q1.589,4.165-2.382,4.186A10.528,10.528,0,0,0,12.32,7.531a14.049,14.049,0,0,0-4.186,6.52,81.5,81.5,0,0,0-1.949,9.359A47.845,47.845,0,0,1,4.26,31.976,20.8,20.8,0,0,1,.53,38.689,1.706,1.706,0,0,0,0,39.747a1.984,1.984,0,0,0,.481,1.035,27.17,27.17,0,0,0,2.454,2.695l1.155,1.107q1.043.962,2,1.829h.024a54.758,54.758,0,0,0,5.871,4.644,23.33,23.33,0,0,0,9.311,3.874q2.467.365,3.537-.529a2.893,2.893,0,0,0,.842-1.275,9.034,9.034,0,0,0,.433-1.588q.135-.679,4.764-10.851A94.067,94.067,0,0,0,36.4,25.359q3.007-11.669.529-17.973A10.7,10.7,0,0,0,28.1.193a15.282,15.282,0,0,0-6.328.313M10.323,11.742Q9.078,19.56,7.82,25.167,5.539,35.445,2.19,39.916a27.866,27.866,0,0,0,3.3,4.235L8.35,47.47Q1.321,41.9.723,39.723a23.979,23.979,0,0,1,1.588-2.5,17.323,17.323,0,0,0,2.5-4.74q.332-1.019,2.406-9.263Q9.385,14.763,10.323,11.742Z" fill="#fc6"/>
            <path id="Path_47583" data-name="Path 47583" d="M7.1,13.425Q8.355,7.818,9.6,0,8.662,3.022,6.5,11.477,4.422,19.72,4.09,20.74a17.323,17.323,0,0,1-2.5,4.74A23.98,23.98,0,0,0,0,27.982q.6,2.175,7.627,7.747l-2.863-3.32a27.866,27.866,0,0,1-3.3-4.235Q4.816,23.7,7.1,13.425Z" transform="translate(0.723 11.742)" fill="#ffde9d"/>
          </g>
        </g>
        <g id="Group_57192" data-name="Group 57192" transform="translate(25.92 6.039)">
          <g id="Group_57191" data-name="Group 57191" transform="translate(0 0)">
            <path id="Path_47585" data-name="Path 47585" d="M2.887,2.165v.722h.722m-.722,0v.722m2.887-.722L2.887,5.774,0,2.887,2.887,0Zm-3.609,0h.722" fill="none" stroke="rgba(0,0,0,0)" stroke-linecap="round" stroke-linejoin="round" stroke-width="0.075"/>
          </g>
        </g>
      </g>
      <g id="Group_57203" data-name="Group 57203" transform="translate(210.564 127.676) rotate(132.66)">
        <g id="Group_57195" data-name="Group 57195" transform="translate(0 0)">
          <g id="Group_57194" data-name="Group 57194">
            <path id="Path_47586" data-name="Path 47586" d="M6.479,31.345q-.681-1.4-1.107-2.406-1.5-3.376-2.43-6.183A65.4,65.4,0,0,1,.2,12.773,17.861,17.861,0,0,1,.031,9.116,8.944,8.944,0,0,1,3.231,2.4,10.759,10.759,0,0,1,7.778.119a6.975,6.975,0,0,1,5.317,1.2A17.545,17.545,0,0,1,16.7,4.786q2.084,2.691,2.959,3.849h-.024q.037.033.072.072,1.613,3.433,3.176,6.977a9.14,9.14,0,0,1,.577,1.684,3.61,3.61,0,0,1-.024,1.828,17.5,17.5,0,0,0-4.162,1.66q-1.383.751-3.873,2.382-1.915,1.245-2.863,1.949A32.192,32.192,0,0,0,6.479,31.345Z" fill="#a56b4e"/>
            <path id="Path_47587" data-name="Path 47587" d="M1.78,26.439q-.719-1.49-1.3-2.743L.1,22.9q-.043-.121-.1-.265a32.192,32.192,0,0,1,6.062-6.159q.948-.7,2.863-1.949,2.49-1.63,3.873-2.382a17.5,17.5,0,0,1,4.162-1.66,3.61,3.61,0,0,0,.024-1.828,9.14,9.14,0,0,0-.577-1.684Q14.845,3.433,13.231,0a.335.335,0,0,0,.048.048L14.6,1.9q.431.639.842,1.251,1.48,2.193,2.5,3.825a1.4,1.4,0,0,1,.1.144,37.094,37.094,0,0,1,2,3.44A100.472,100.472,0,0,1,23.72,20.906q.531,1.617-2.045,4.5a29.645,29.645,0,0,1-6.111,5.052,21.85,21.85,0,0,1-6.784,3.031q-3.314.683-4.234-1.275Z" transform="translate(6.479 8.707)" fill="#84553e"/>
          </g>
        </g>
        <g id="Group_57197" data-name="Group 57197" transform="translate(4.529 21.232)">
          <g id="Group_57196" data-name="Group 57196" transform="translate(0 0)">
            <path id="Path_47588" data-name="Path 47588" d="M21.773,54.523q1.589-4.165-2.382-4.186A10.527,10.527,0,0,1,12.318,47.5a14.048,14.048,0,0,1-4.186-6.52,81.488,81.488,0,0,1-1.949-9.358,47.84,47.84,0,0,0-1.925-8.564A20.794,20.794,0,0,0,.53,16.344,1.706,1.706,0,0,1,0,15.286a1.984,1.984,0,0,1,.481-1.034,27.168,27.168,0,0,1,2.454-2.694L4.091,10.45q1.043-.962,2-1.828h.024a54.753,54.753,0,0,1,5.87-4.643A23.327,23.327,0,0,1,21.292.106q2.467-.365,3.536.529A2.892,2.892,0,0,1,25.67,1.91,9.032,9.032,0,0,1,26.1,3.5q.135.679,4.763,10.85A94.056,94.056,0,0,1,36.4,29.672q3.007,11.668.529,17.971A10.7,10.7,0,0,1,28.1,54.836a15.281,15.281,0,0,1-6.327-.313M10.322,43.288q-1.245-7.817-2.5-13.424Q5.538,19.587,2.19,15.117a27.863,27.863,0,0,1,3.3-4.234l2.863-3.32Q1.321,13.135.723,15.31a23.976,23.976,0,0,0,1.588,2.5,17.321,17.321,0,0,1,2.5,4.739q.332,1.019,2.406,9.262Q9.384,40.267,10.322,43.288Z" fill="#fc6"/>
            <path id="Path_47589" data-name="Path 47589" d="M7.1,22.3q1.257,5.607,2.5,13.424Q8.661,32.7,6.5,24.25,4.422,16.007,4.09,14.988a17.321,17.321,0,0,0-2.5-4.739A23.976,23.976,0,0,1,0,7.746Q.6,5.572,7.626,0L4.763,3.32a27.863,27.863,0,0,0-3.3,4.234Q4.816,12.024,7.1,22.3Z" transform="translate(0.723 7.563)" fill="#ffde9d"/>
          </g>
        </g>
        <g id="Group_57200" data-name="Group 57200" transform="translate(20.215 19.365)">
          <g id="Group_57199" data-name="Group 57199" transform="translate(0 0)">
            <g id="Group_57198" data-name="Group 57198">
              <path id="Path_47590" data-name="Path 47590" d="M25.645,31.467a28.076,28.076,0,0,1-.433,9.31q-1.131,6.159-3.248,8.492,4.282-10.705-4.186-27.281Q15.445,17.441,11.4,11.163q-3.224-4.956-3.3-5.605a3.087,3.087,0,0,0-.842-1.612,3.17,3.17,0,0,0-1.492-1.01Q4.048,2.48,0,3.488,1.161,3.155,8.372,0a16.054,16.054,0,0,1,7.313,10.874q.409,2.117,4.908,9.7Q25.068,28.1,25.645,31.467Z" fill="#d4a548"/>
            </g>
          </g>
        </g>
        <g id="Group_57202" data-name="Group 57202" transform="translate(25.917 64.448)">
          <g id="Group_57201" data-name="Group 57201" transform="translate(0 0)">
            <path id="Path_47591" data-name="Path 47591" d="M2.887,3.609V2.887h.722m-.722,0V2.165m2.887.722L2.887,0,0,2.887,2.887,5.774Zm-3.609,0h.722" fill="none" stroke="rgba(0,0,0,0)" stroke-linecap="round" stroke-linejoin="round" stroke-width="0.075"/>
          </g>
        </g>
      </g>
      <g id="Group_57236" data-name="Group 57236" transform="matrix(0.959, -0.283, 0.283, 0.959, 71.963, 110.72)">
        <g id="Group_57207" data-name="Group 57207" transform="translate(24.189 1.493)">
          <g id="Group_57206" data-name="Group 57206" transform="translate(0 0)">
            <path id="Path_47593" data-name="Path 47593" d="M17.061,5.354a29.435,29.435,0,0,0,4.187-.53A18.131,18.131,0,0,0,29.887.865,44.889,44.889,0,0,0,24.593.174Q21.056-.079,15.906.036,12.08.151,8.254.312L0,.658A12.9,12.9,0,0,0,1.275,1.763q4.909,3.8,14.053,3.615Z" transform="translate(4.424 0)" fill="#a56b4e"/>
            <path id="Path_47594" data-name="Path 47594" d="M37.536.967a28.9,28.9,0,0,0-3.225-.76,18.131,18.131,0,0,1-8.639,3.96,29.435,29.435,0,0,1-4.187.53l-1.733.023Q10.608,4.9,5.7,1.105A12.9,12.9,0,0,1,4.424,0l-1.3.046a6.906,6.906,0,0,0-1.877.3A1.707,1.707,0,0,0,.02,1.658q-.168.9,1.059,2.072A23.791,23.791,0,0,0,7.48,8.2a29.369,29.369,0,0,0,5.39,1.8q1.973.46,5.607,1.036,2.069.322,3.1.437a20.472,20.472,0,0,0,8.976-.967,13.987,13.987,0,0,0,7.075-5.249q.409-.576,1.155-1.75a2.637,2.637,0,0,0,.481-.99,1.1,1.1,0,0,0-.578-1.036A3.307,3.307,0,0,0,37.536.967Z" transform="translate(0 0.658)" fill="#84553e"/>
          </g>
        </g>
        <g id="Group_57210" data-name="Group 57210" transform="translate(0 1.713)">
          <g id="Group_57208" data-name="Group 57208" transform="translate(0 0)">
            <path id="Path_47595" data-name="Path 47595" d="M6.257,12.2Q7.6,4.167,11.287,2.371,3.442,4.029,1.011,5.94q-2.069,2.878.1,23.23c.417,1.78,4.2-11.335,5.15-16.968M77.486,3.384q-2.428,5.479-3.2,14.573t-.722,12.616q-.12,2.694-.144,3.983-.024,2.3.529,2.74a5.493,5.493,0,0,1,1.3,1.681,8.14,8.14,0,0,1,.794,1.957c.273,1.09,4.612,8.173,5.8.806q.89-5.525,1.612-9.278l.505-5.249.457-9.831q.289-10.153-.626-11.442a18.925,18.925,0,0,0-6.3-2.625v.069M61.989.414Q59.607.092,57.946,0q-.77,2.026-4.524,3.868A25.081,25.081,0,0,1,42.69,6.17h-.578a25.189,25.189,0,0,1-10.733-2.3Q27.626,2.026,26.856,0q-1.925.092-4.861.506A83.411,83.411,0,0,0,21.8,23.782c.947,6.508,4.092,7.078,5.793,7.784-6.48-.43.154.532,14.565,4.3q12.154-.491,13.5-1.75t1.275-4.259q-.067-2.974.866-13.284Q58.757,6.287,61.989.414M29.719,6.032A27.6,27.6,0,0,0,35.567,8.38,25.139,25.139,0,0,0,54.626,5.986,25.139,25.139,0,0,1,35.567,8.38a27.6,27.6,0,0,1-5.848-2.348A22.158,22.158,0,0,1,27.361,4.6,22.158,22.158,0,0,0,29.719,6.032Z" transform="translate(0 0)" fill="#fc6"/>
          </g>
          <g id="Group_57209" data-name="Group 57209" transform="translate(27.337 4.552)">
            <path id="Path_47597" data-name="Path 47597" d="M27.313,1.411h-.048L23.727,2.677l-.12.023-.1.046-.963.276-.12.023-.144.046-.241.046-.144.046-.938.207a17.9,17.9,0,0,1-2.334.414L18,3.9h-.168l-.144.023-.938.069-.144.023-2.286.046-4.043-.437h-.1L10.107,3.6,9.024,3.391,8.88,3.345l-.168-.023L7.676,3.046l-.144-.023-1.4-.414q-.938-.3-2.021-.737L.337.191.072.03Q0-.039,0,.053V.1L.072.145l1.42,1.128,2.7,1.612.746.345.12.069.144.046.794.368L9.674,4.864,11.7,5.21l.072.023h.1l1.2.138,2.96.023.072-.023.6-.023,2.142-.322a21.123,21.123,0,0,0,2.406-.6l3.2-1.266,2.84-1.681q.024,0,.024-.023A.028.028,0,0,0,27.313,1.411Z" transform="translate(0 0)" fill="#ffde9d"/>
          </g>
        </g>
        <g id="Group_57221" data-name="Group 57221" transform="translate(6.134 0)">
          <g id="Group_57214" data-name="Group 57214" transform="translate(0 0)">
            <g id="Group_57213" data-name="Group 57213">
              <path id="Path_47600" data-name="Path 47600" d="M11.144,0q-.633.169-1.372.368L9.291.506,7.872.921q-1.014.289-1.9.53-2.919.834-4.476,1.243Q-.385,7.261.1,19.063q.136,3.324.457,7.206.013.162.024.322A145.484,145.484,0,0,1,2.361,6.423,5.467,5.467,0,0,1,2.89,4.581,5.247,5.247,0,0,1,4.5,3.085,25.807,25.807,0,0,1,8.473,1.151Q10.1.481,11.144,0Z" transform="translate(0 0.608)" fill="#424d80"/>
              <path id="Path_47601" data-name="Path 47601" d="M16.267,1.092A5.2,5.2,0,0,0,14.823.1q-.732-.35-4.259.506-1.048.481-2.671,1.151A25.807,25.807,0,0,0,3.922,3.693,5.247,5.247,0,0,0,2.31,5.19a5.467,5.467,0,0,0-.529,1.842A145.484,145.484,0,0,0,0,27.2c.4,4.746,15.04,5.548,14.511,1.727q-.231-1.671-.409-3.269.016.178.024.345A39.493,39.493,0,0,1,13.019,21.7a31.568,31.568,0,0,1-.433-6.078A56.98,56.98,0,0,1,14.655,1.138a.482.482,0,0,1,.168-.253A.169.169,0,0,1,15.04.861a.109.109,0,0,1-.024.046.568.568,0,0,1,.265.023,2.184,2.184,0,0,1,.505.3l.313.184a2.219,2.219,0,0,0,.289.253.854.854,0,0,0,.313.046A1.914,1.914,0,0,0,16.267,1.092Z" transform="translate(0.58 0)" fill="#2c3664"/>
              <path id="Path_47602" data-name="Path 47602" d="M4.191,1.227A.616.616,0,0,0,4.119.881.854.854,0,0,1,3.806.835,2.219,2.219,0,0,1,3.518.582L3.2.4A2.184,2.184,0,0,0,2.7.1.568.568,0,0,0,2.435.076.109.109,0,0,0,2.459.03a.169.169,0,0,0-.217.023.482.482,0,0,0-.168.253A56.98,56.98,0,0,0,0,14.787a31.568,31.568,0,0,0,.433,6.078A39.493,39.493,0,0,0,1.544,25.17Q1.537,25,1.52,24.825l-.337-3.568q-.022-.392-.048-.806a.248.248,0,0,0-.024-.046Q.347,8.664,2.94,1.434q1.091-.2,1.227-.207Z" transform="translate(13.161 0.832)" fill="#1c2449"/>
            </g>
          </g>
        </g>
        <g id="Group_57228" data-name="Group 57228" transform="translate(76.981 46.423) rotate(180)">
          <g id="Group_57223" data-name="Group 57223" transform="translate(0 0)">
            <g id="Group_57222" data-name="Group 57222" transform="translate(0)">
              <path id="Path_47609" data-name="Path 47609" d="M.722,33.866a5.234,5.234,0,0,1-.674-.3Q.017,33.355,0,33.129q3.249-2.786,4.38-21.25.389-6.3.337-11.88,1.451,16.119-.77,26.061Q2.623,32.07.722,33.866Z" transform="translate(0 8.288)" fill="#1c2449"/>
              <path id="Path_47610" data-name="Path 47610" d="M12.152,44.848a8.589,8.589,0,0,1-2.31.138q-.265,0-4.043-.184-.045,0-.1,0A23.472,23.472,0,0,1,.77,43.19,2.078,2.078,0,0,1,0,41.855a5.234,5.234,0,0,0,.674.3q1.9-1.8,3.225-7.8,2.221-9.942.77-26.061-.012-.637-.024-1.266Q4.524,1.036,3.971,0,5.535,0,9.722.46c3.545.368,9.08,13.405,8.639,21.365A93.229,93.229,0,0,1,14.92,39.069Q13.163,44.525,12.152,44.848Z" transform="translate(0.048 0)" fill="#2c3664"/>
              <path id="Path_47611" data-name="Path 47611" d="M4.139,23.161a8.589,8.589,0,0,0,2.31-.138Q7.46,22.7,9.216,17.244A93.229,93.229,0,0,0,12.658,0q-.125,2.389-.361,4.927-1.324,14.435-4.38,19.339-.409.645-6.377-.9L0,22.976q.052,0,.1,0Q3.874,23.161,4.139,23.161Z" transform="translate(5.751 21.825)" fill="#424d80"/>
            </g>
          </g>
          <g id="Group_57225" data-name="Group 57225" transform="translate(7.383 1.499)">
            <g id="Group_57224" data-name="Group 57224" transform="translate(0 0)">
              <path id="Path_47612" data-name="Path 47612" d="M.678,4.878A5.647,5.647,0,0,1,.75,3.819a2.766,2.766,0,0,1,.722-1.381A3.51,3.51,0,0,1,2.8,1.54,4.51,4.51,0,0,1,6,1.563a3.344,3.344,0,0,1,1.324.783,3.267,3.267,0,0,1,.938,2.74,3.067,3.067,0,0,1-.722,2.026,1.7,1.7,0,0,1-1.059.6,1.123,1.123,0,0,1-1.131-.391.865.865,0,0,1-.1-.99.65.65,0,0,1,.361-.345.5.5,0,0,1,.505.046,1.757,1.757,0,0,0,.241-1.75A2.472,2.472,0,0,0,6.093,3.8,1.339,1.339,0,0,0,5.371,3.4,3.264,3.264,0,0,0,4.336,3.2a1.833,1.833,0,0,0-1.3.414,1.342,1.342,0,0,0-.505,1.2,2.181,2.181,0,0,0,.963,1.427,1.511,1.511,0,0,1,.578.668A.683.683,0,0,1,4,7.433a.815.815,0,0,1-.433.391,1.341,1.341,0,0,1-1.107-.069,3.568,3.568,0,0,1-.89-.714A3.126,3.126,0,0,1,.8,5.8a4.485,4.485,0,0,1-.12-.921m.168-2.74Q0,3.22.077,3.566-.188,3.5.462,2.184A3.584,3.584,0,0,1,2.531.273,3.893,3.893,0,0,1,5.9.5q1.227.737,1.131,1.082A2.661,2.661,0,0,0,5.948.734,4.833,4.833,0,0,0,2.8.665,3.849,3.849,0,0,0,.847,2.138Z" fill="#1c2449"/>
            </g>
          </g>
          <g id="Group_57227" data-name="Group 57227" transform="translate(8.254 3.338)">
            <g id="Group_57226" data-name="Group 57226" transform="translate(0 0)">
              <path id="Path_47613" data-name="Path 47613" d="M6.714,5.226q-.505.391-.6.46a4.138,4.138,0,0,1-2.118.668,4.663,4.663,0,0,1-2.5-.622A6.983,6.983,0,0,1,.337,4.95a.089.089,0,0,0,0-.046v.023A3.224,3.224,0,0,1,0,3.453a3.256,3.256,0,0,1,1.059-2.44A3.557,3.557,0,0,1,3.61,0,3.557,3.557,0,0,1,6.16,1.013a3.256,3.256,0,0,1,1.059,2.44,3.247,3.247,0,0,1-.578,1.888q.04-.06.072-.115M5.438,5.2a2.294,2.294,0,0,0,.77-1.75,2.341,2.341,0,0,0-.77-1.75A2.6,2.6,0,0,0,3.61.99,2.6,2.6,0,0,0,1.781,1.7a2.341,2.341,0,0,0-.77,1.75,2.294,2.294,0,0,0,.77,1.75A2.555,2.555,0,0,0,3.61,5.94,2.555,2.555,0,0,0,5.438,5.2M4.957.622A.634.634,0,0,0,4.644.483L3.946.3A3.551,3.551,0,0,0,2.6.391,1.98,1.98,0,0,0,1.8.714a.216.216,0,0,0-.072.161q0,.092.144.092A.329.329,0,0,0,2.069.9,3.24,3.24,0,0,1,4.139.622l.385.092.241.115a7.476,7.476,0,0,1,1.348.9q.072.069.072-.069l-.048-.115L5.318.9V.829L4.957.622M6.208,3.453a2.294,2.294,0,0,1-.77,1.75A2.555,2.555,0,0,1,3.61,5.94,2.555,2.555,0,0,1,1.781,5.2a2.294,2.294,0,0,1-.77-1.75,2.341,2.341,0,0,1,.77-1.75A2.6,2.6,0,0,1,3.61.99,2.6,2.6,0,0,1,5.438,1.7a2.341,2.341,0,0,1,.77,1.75M5.1,4.167a.713.713,0,0,0,.241-.53A.644.644,0,0,0,5.1,3.131l-.12-.115a.782.782,0,0,0-.963.115.674.674,0,0,0-.217.506.75.75,0,0,0,.217.53.824.824,0,0,0,.553.207.715.715,0,0,0,.313-.069A.644.644,0,0,0,5.1,4.167m-2.527.645a.074.074,0,0,0-.048.069.25.25,0,0,0,.1.161q.12.092.12.138l.217.092a.923.923,0,0,0,.626.023A.232.232,0,0,0,3.778,5.2.153.153,0,0,0,3.8,5.019q-.072,0-.072-.046H3.1l-.433-.161q-.024-.046-.1,0M1.853,3.2a.75.75,0,0,0,.217.53.824.824,0,0,0,.553.207.737.737,0,0,0,.529-.207.713.713,0,0,0,.241-.53.644.644,0,0,0-.241-.506.7.7,0,0,0-.529-.23.777.777,0,0,0-.553.23A.674.674,0,0,0,1.853,3.2Z" fill="#6a78b7"/>
              <path id="Path_47614" data-name="Path 47614" d="M4.307.215A.634.634,0,0,1,4.62.353L4.981.56V.629l.818.645.048.115q0,.138-.072.069A7.476,7.476,0,0,0,4.428.56L4.187.445,3.8.353A3.24,3.24,0,0,0,1.733.629.329.329,0,0,1,1.54.7Q1.4.7,1.4.606A.216.216,0,0,1,1.468.445,1.98,1.98,0,0,1,2.262.123,3.551,3.551,0,0,1,3.61.031l.7.184M2.19,4.612a.074.074,0,0,1,.048-.069q.072-.046.1,0l.433.161h.626q0,.046.072.046a.153.153,0,0,1-.024.184.232.232,0,0,1-.193.092A.923.923,0,0,1,2.623,5l-.217-.092q0-.046-.12-.138a.25.25,0,0,1-.1-.161M5.9,5.556l-.072.069A3.557,3.557,0,0,1,3.273,6.638,3.557,3.557,0,0,1,.722,5.625L.144,4.911A2.566,2.566,0,0,1,0,4.681a6.983,6.983,0,0,0,1.155.783,4.663,4.663,0,0,0,2.5.622,4.138,4.138,0,0,0,2.118-.668q.1-.069.6-.46-.032.055-.072.115a1.978,1.978,0,0,1-.193.253Z" transform="translate(0.337 0.269)" fill="#929fd9"/>
              <path id="Path_47615" data-name="Path 47615" d="M.217,1.266A.75.75,0,0,1,0,.737.674.674,0,0,1,.217.23.777.777,0,0,1,.77,0,.7.7,0,0,1,1.3.23.644.644,0,0,1,1.54.737a.713.713,0,0,1-.241.53.737.737,0,0,1-.529.207.824.824,0,0,1-.553-.207m3.273-.092a.713.713,0,0,1-.241.53.644.644,0,0,1-.217.138.715.715,0,0,1-.313.069A.824.824,0,0,1,2.166,1.7a.75.75,0,0,1-.217-.53A.674.674,0,0,1,2.166.668.782.782,0,0,1,3.128.553l.12.115A.644.644,0,0,1,3.489,1.174Z" transform="translate(1.853 2.463)" fill="#1c2449"/>
            </g>
            <path id="Path_47616" data-name="Path 47616" d="M5.2,2.463a2.341,2.341,0,0,0-.77-1.75A2.6,2.6,0,0,0,2.6,0,2.6,2.6,0,0,0,.77.714,2.341,2.341,0,0,0,0,2.463a2.294,2.294,0,0,0,.77,1.75A2.555,2.555,0,0,0,2.6,4.95a2.555,2.555,0,0,0,1.829-.737A2.294,2.294,0,0,0,5.2,2.463Z" transform="translate(1.011 0.99)" fill="none" stroke="#4d5b9c" stroke-linecap="round" stroke-linejoin="round" stroke-width="1.47"/>
          </g>
        </g>
      </g>
      <g id="Group_57241" data-name="Group 57241" transform="matrix(-0.071, -0.997, 0.997, -0.071, 146.348, 142.198)">
        <g id="Group_57238" data-name="Group 57238" transform="translate(0 0)">
          <g id="Group_57237" data-name="Group 57237">
            <path id="Path_47627" data-name="Path 47627" d="M2.19,14.389A55.975,55.975,0,0,1,6.978,0,56.069,56.069,0,0,0,4.115,9.89Q.89,24.423,0,30.03A128.076,128.076,0,0,1,2.19,14.389M13.836,55.007a26.842,26.842,0,0,0,3.874-6.834,56.579,56.579,0,0,0,2.671-11.141q.048-.313.289-2.454-.048,3.9-.241,5.8Q19.226,51.83,13.836,55.007Z" transform="translate(0.378 1.992)" fill="#84553e"/>
            <path id="Path_47628" data-name="Path 47628" d="M8.992,58.082q-4.861-.168-7.147-5.992-2.5-6.3-1.612-18.456.072-.842.144-1.612.89-5.607,4.115-20.14a56.07,56.07,0,0,1,2.863-9.89L7.6,1.511A3.184,3.184,0,0,1,10.147.019a7.706,7.706,0,0,1,1.347.024,4.824,4.824,0,0,1,3.97,2.166q2.695,4.62,4.4,17.277A119.091,119.091,0,0,1,21.048,36.57q-.241,2.142-.289,2.454a56.579,56.579,0,0,1-2.671,11.141A26.842,26.842,0,0,1,14.214,57a9.767,9.767,0,0,1-2,.7A12.2,12.2,0,0,1,8.992,58.082Z" fill="#a56b4e"/>
          </g>
        </g>
        <g id="Group_57240" data-name="Group 57240" transform="translate(9.209 44.424)">
          <g id="Group_57239" data-name="Group 57239" transform="translate(0 0)">
            <path id="Path_47629" data-name="Path 47629" d="M2.887,3.627V2.9h.722m-.722,0V2.176M5.775,2.9,2.887,0,0,2.9,2.887,5.8Zm-3.609,0h.722" transform="translate(0 0)" fill="none" stroke="rgba(0,0,0,0)" stroke-linecap="round" stroke-linejoin="round" stroke-width="0.075"/>
          </g>
        </g>
      </g>
      <g id="Group_57250" data-name="Group 57250" transform="matrix(0.574, -0.819, 0.819, 0.574, -10.34, 109.66)">
        <g id="Group_57243" data-name="Group 57243" transform="translate(0.006 0.014)">
          <g id="Group_57242" data-name="Group 57242" transform="translate(0 0)">
            <path id="Path_47630" data-name="Path 47630" d="M17.611,9.076q-.118,0-.241,0a17.242,17.242,0,0,0-2,1.685l2.238-1.685m.914-.578q.1-.128.193-.265l-.457.337a.943.943,0,0,0,.265-.072m0,0a2.06,2.06,0,0,0,.481-.217,2.358,2.358,0,0,0,.722-.626l-.794.409,5.535-4.139A13.2,13.2,0,0,0,18.79,8.162q-.38.219-.746.457a.981.981,0,0,0,.217-.048l.457-.337q-.092.137-.193.265M6.156,10.3a1.614,1.614,0,0,0-.794.77A1.464,1.464,0,0,0,5,11.82a1.55,1.55,0,0,0,.289,1.372.824.824,0,0,0,.361.385.555.555,0,0,0,.168.048,1.627,1.627,0,0,0,.939.193h0a3.7,3.7,0,0,0,.409.1,1.064,1.064,0,0,0,.12.024,2.188,2.188,0,0,0,.674.024,2.451,2.451,0,0,0,.65.939,1.988,1.988,0,0,0,1.757.505,1.826,1.826,0,0,0,1.035-.578,1.127,1.127,0,0,0,.168-.217,2.237,2.237,0,0,0,.409.241,2.317,2.317,0,0,0,1.155.193,2.4,2.4,0,0,0,.529-.12,5.65,5.65,0,0,0,.818,1.877q-.633.082-1.8.168a7.058,7.058,0,0,0-1.4.385,2.808,2.808,0,0,0-.409-.722A2.849,2.849,0,0,0,9.429,15.6a2.443,2.443,0,0,0-1.757.072,2.4,2.4,0,0,0-1.227,1.251,3.194,3.194,0,0,0-.289,1.107,1.8,1.8,0,0,0-1.059.048,1.662,1.662,0,0,0-1.131,1.781A1.616,1.616,0,0,0,4.4,20.868a1.788,1.788,0,0,0,.963.529,1.734,1.734,0,0,0,1.107-.168,1.532,1.532,0,0,0,.7-.674,3.071,3.071,0,0,0,.553.385,6.071,6.071,0,0,0-.289.842A8.285,8.285,0,0,0,7.239,24.5a6,6,0,0,0,.217,1.372,3.414,3.414,0,0,0,.289.626q-.118.182-.241.361A4.188,4.188,0,0,0,6.878,28.3a4.979,4.979,0,0,0,.072,1.372l-.553.1a3.172,3.172,0,0,0-.89.313,3.677,3.677,0,0,0-1.588,1.733q-.105.245-.193.433a9.126,9.126,0,0,0-.939.144,3.675,3.675,0,0,0-.914.265A2.774,2.774,0,0,0,.862,33.935a2.587,2.587,0,0,0-.289.77,3.04,3.04,0,0,0,0,1.083,2.305,2.305,0,0,0,.1.553,1.827,1.827,0,0,0,.072.217,2.4,2.4,0,0,0-.313.265,1.457,1.457,0,0,0-.385.746.878.878,0,0,0-.024.457,1.707,1.707,0,0,0,.361.866,1.449,1.449,0,0,0,.77.505,1.467,1.467,0,0,0,.939-.072,1.461,1.461,0,0,0,.746-.553,1.385,1.385,0,0,0,.241-.674,2.371,2.371,0,0,0,.963-.193A3.964,3.964,0,0,0,5.314,36.9a3.535,3.535,0,0,0,1.564.313,4.511,4.511,0,0,0,1.251-.1,4.143,4.143,0,0,0-.722.914,6.175,6.175,0,0,0-.7,2.671v.12A6.13,6.13,0,0,0,5.025,42.31a6.039,6.039,0,0,0-.674,1.468,7.44,7.44,0,0,0-.337,1.829,8.181,8.181,0,0,0,.241,1.925,6.842,6.842,0,0,0,.7,2.094,6.555,6.555,0,0,0,.818.963q.078.072.144.144a2.967,2.967,0,0,0-.481.481A2.584,2.584,0,0,0,4.9,52.489a1.951,1.951,0,0,0,.265,1.324q.022.035.048.072-.13.162-.265.361a5.862,5.862,0,0,0-.385.794,3.237,3.237,0,0,0-.048.65,3.8,3.8,0,0,0,.505,2.07,3.415,3.415,0,0,0,1.588,1.227,2.652,2.652,0,0,0,1.011.313,2.467,2.467,0,0,0,.193,1.155,2.175,2.175,0,0,0,.457.674l-.072.048a1.2,1.2,0,0,0-.505.842.937.937,0,0,0-.024.481,1.42,1.42,0,0,0,1.107,1.083,1.338,1.338,0,0,0,.818-.12,1.287,1.287,0,0,0,.578-.553,1.335,1.335,0,0,0,.144-.794,1.359,1.359,0,0,0-.072-.313,2.482,2.482,0,0,0,.7-.168,2.124,2.124,0,0,0,.963-.746,2.3,2.3,0,0,0,.433-1.757,2.572,2.572,0,0,0-.6-1.348,3.633,3.633,0,0,0-.385-.409,3.946,3.946,0,0,0,.385-1.059,2.483,2.483,0,0,0,0-1.372,3.722,3.722,0,0,0-.385-.794,1.242,1.242,0,0,0-.12-.144,3.767,3.767,0,0,0,1.083-.168,6.475,6.475,0,0,0,.289,1.083,3.585,3.585,0,0,0,.433.866,3.053,3.053,0,0,0,.866.89,5.761,5.761,0,0,0,.674.481,3.432,3.432,0,0,0-.241.385,2.742,2.742,0,0,0-.361,1.4,2.825,2.825,0,0,0,.794,1.877,4.275,4.275,0,0,0-.1.529l-.024.217a1.459,1.459,0,0,0,.241.842.7.7,0,0,1-.072.1,2.361,2.361,0,0,0-.6,1.757,2.79,2.79,0,0,0,.1.578,2.483,2.483,0,0,0-.65.1,2.093,2.093,0,0,0-.987.65,1.974,1.974,0,0,0-.433,1.107,1.927,1.927,0,0,0,.265,1.155,2.349,2.349,0,0,0,1.131.939,1.618,1.618,0,0,0,1.083.12.833.833,0,0,0,.168.385.7.7,0,0,0,.794.289.706.706,0,0,0,.6-.626.685.685,0,0,0-.265-.746.863.863,0,0,0-.144-.1,1.945,1.945,0,0,0,.337-1.588,2.7,2.7,0,0,0,.89.024,2.576,2.576,0,0,0,1.588-.77,2.367,2.367,0,0,0,.6-1.348A2.592,2.592,0,0,0,19.1,63.15a2.137,2.137,0,0,0,.144-.265,4.569,4.569,0,0,0,.193-.674q.011-.078.024-.168a3.471,3.471,0,0,0,1.348-.65,4.818,4.818,0,0,0,1.083-1.227,3.862,3.862,0,0,0-.265.746,2.993,2.993,0,0,0,.048,1.757,3.689,3.689,0,0,0,.963,1.54,2.707,2.707,0,0,0,.842.578,2.315,2.315,0,0,0-.674.7,2,2,0,0,0-.361,1.42,2.281,2.281,0,0,0,2,1.949,2.2,2.2,0,0,0,1.4-.385,2.146,2.146,0,0,0,.89-1.179,2.171,2.171,0,0,0-.12-1.516,2.312,2.312,0,0,0-.866-.987,4.557,4.557,0,0,0,.6-.265A3.559,3.559,0,0,0,28.223,62.5q.024-.072.144-.529a4.626,4.626,0,0,0,.144-1.9,3.329,3.329,0,0,0-.6-1.155q-.131-.168-.265-.313.109-.044.217-.1a5.027,5.027,0,0,0,1.949-1.54,9.245,9.245,0,0,0,.794-1.251,9.383,9.383,0,0,0,1.2-2.888,10.3,10.3,0,0,0-.12-2.6,4.879,4.879,0,0,0-.385-1.492,3.115,3.115,0,0,0-.794-.963,5.235,5.235,0,0,0-1.251-.818q.2-.094.409-.217a8.172,8.172,0,0,0,3.778-4.38,8.271,8.271,0,0,0,.337-1.925,6.724,6.724,0,0,0-.072-1.4,5.845,5.845,0,0,0,1.8.313,7.176,7.176,0,0,0,3.754-.939q1.275-.818,1.925-1.227.914-.505,1.348-.77a7.552,7.552,0,0,0,1.251-.866q.048-.044.1-.1a16.165,16.165,0,0,1-2.864.1A33.758,33.758,0,0,1,30.2,33.333a33.642,33.642,0,0,1-9.217-5.511A14.212,14.212,0,0,1,16.022,19.3,13.461,13.461,0,0,1,18.116,9.1q-.258-.022-.505-.024l-2.238,1.685a17.242,17.242,0,0,1,2-1.685,3.726,3.726,0,0,0-.794.12,4.243,4.243,0,0,0-1.444.77l-.048.048a2.278,2.278,0,0,0-.914-.433,2.968,2.968,0,0,0-1.66.144,3.558,3.558,0,0,0-1.372.963q-.2.221-.361.433a2.17,2.17,0,0,0-.914-.193,2.326,2.326,0,0,0-.842.12,2.156,2.156,0,0,0-.722-.626,2.276,2.276,0,0,0-1.035-.313,2.02,2.02,0,0,0-1.107.193m45.362,9.024a6.459,6.459,0,0,0-.217-1.155,4.661,4.661,0,0,0,.289-2.262,5.308,5.308,0,0,0-1.059-2.888,6.7,6.7,0,0,0-.1-.866,8.979,8.979,0,0,0-.674-2.094,7.512,7.512,0,0,0-.024-.89q-.008-.122-.024-.241a13,13,0,0,0-3.056-2.046A20.346,20.346,0,0,0,36.381,4.769,96.236,96.236,0,0,0,24.9,5.972a19.552,19.552,0,0,0-4.885,1.54A2.334,2.334,0,0,0,21,8.378,6.29,6.29,0,0,0,20.474,9q-.167.24-.337.505a8,8,0,0,0-1.66-.361q-.187-.028-.361-.048a13.461,13.461,0,0,0-2.094,10.2,14.212,14.212,0,0,0,4.957,8.519A33.642,33.642,0,0,0,30.2,33.333a33.758,33.758,0,0,0,10.829,2.214,16.165,16.165,0,0,0,2.864-.1,7.9,7.9,0,0,0,1.42-1.9,5.612,5.612,0,0,0,.794-2.382,6.311,6.311,0,0,0-.12-1.42A5.582,5.582,0,0,0,47.692,28.3a21.8,21.8,0,0,0,1.251-1.9l1.011-1.781a13.642,13.642,0,0,0,1.2-2.358,7.261,7.261,0,0,0,.361-2.936M48.39,5.827a8.565,8.565,0,0,0-1.685-1.853A9.39,9.39,0,0,0,44.66,2.916a11.308,11.308,0,0,0-2.647-.722,5.224,5.224,0,0,0-2.7.337,3.542,3.542,0,0,0-1.733,1.54,10.282,10.282,0,0,0-1.011-1.179A10.165,10.165,0,0,0,33.614.533,5.675,5.675,0,0,0,30.967,0a6.516,6.516,0,0,0-2.647.6,6.969,6.969,0,0,0-1.877,1.348,2.9,2.9,0,0,0-1.468-.7,5.661,5.661,0,0,0-1.925.048,6.2,6.2,0,0,0-1.227.337A3.933,3.933,0,0,0,20.4,2.675q-.11.116-.217.241a2.6,2.6,0,0,0-1.3.265,1.763,1.763,0,0,0-.505.289,1.373,1.373,0,0,0-.024-.337l-.072-.241a.217.217,0,0,0,0-.024,1.775,1.775,0,0,0-.337-1.083,1.937,1.937,0,0,0-.939-.7A4.088,4.088,0,0,0,15.854.846a2.109,2.109,0,0,0-.481,0,2.289,2.289,0,0,0-.987.217,2.866,2.866,0,0,0-.6.337,2.1,2.1,0,0,0-.481.433l-.168.241a1.62,1.62,0,0,0-.241,1.083,1.536,1.536,0,0,0,.1.481,3.121,3.121,0,0,0,.193.553,1.741,1.741,0,0,0,.7.77,2.1,2.1,0,0,0,.7.241,1.818,1.818,0,0,0,.6.072,1.344,1.344,0,0,0,.361-.048q-.023.076-.048.144a2.42,2.42,0,0,0-.024,1.612,2.274,2.274,0,0,0,.818,1.131,2.387,2.387,0,0,0,1.3.505,2.351,2.351,0,0,0,.457,0q.366-.238.746-.457a13.2,13.2,0,0,1,5.679-4.235L18.934,8.065l.794-.409a1.543,1.543,0,0,0,.193-.313,1.351,1.351,0,0,1,.1.168A19.552,19.552,0,0,1,24.9,5.972a96.236,96.236,0,0,1,11.479-1.2A20.346,20.346,0,0,1,46.657,6.886a13,13,0,0,1,3.056,2.046A5.976,5.976,0,0,0,49.5,7.8,7.329,7.329,0,0,0,48.39,5.827Z" fill="#130605"/>
          </g>
        </g>
        <g id="Group_57245" data-name="Group 57245" transform="translate(20.746 7.433)">
          <g id="Group_57244" data-name="Group 57244" transform="translate(0 0)">
            <path id="Path_47631" data-name="Path 47631" d="M30.345,8.251a4.92,4.92,0,0,0-.313-5.174A6.056,6.056,0,0,0,25.941.165,7.061,7.061,0,0,0,18.12,3.63L18,3.967H16.917a7.434,7.434,0,0,0-6.594,6.5,12.555,12.555,0,0,0-2.647,1.829Q3.3,16.409,6.184,21.246q-.217.337-.409.674a7.792,7.792,0,0,0-.987,3.923,5.382,5.382,0,0,0-3.8,3.128A8.858,8.858,0,0,0,2.261,38.981q2.455,2.96,5.174,1.275a1.959,1.959,0,0,0,2.094-.433,10.891,10.891,0,0,0,3.9-7.917,7.971,7.971,0,0,0,5.03-.65,10.265,10.265,0,0,0,4.067-3.2q2.5-3.369,4.885-6.81A17.116,17.116,0,0,0,30.345,8.251Z"/>
          </g>
        </g>
        <g id="Group_57247" data-name="Group 57247" transform="translate(0 0)">
          <g id="Group_57246" data-name="Group 57246">
            <path id="Path_47632" data-name="Path 47632" d="M12.3,52.936a4.415,4.415,0,0,0,.6,2.743A3.911,3.911,0,0,0,14.632,57.2a2.287,2.287,0,0,0-.409,2.864,2.4,2.4,0,0,0,2.864,1.2q-2.84-1.3-1.9-2.743A5.048,5.048,0,0,1,17.279,57a4.991,4.991,0,0,1-4.043-2.094,5.276,5.276,0,0,1-.939-1.973M9.482,36.211a5.824,5.824,0,0,0-2.238,1.853,4.31,4.31,0,0,0-.529,2.792A5.382,5.382,0,0,0,4,46.078a6.144,6.144,0,0,0,1.9,4.645,2.461,2.461,0,0,0-.77,3.225,3.2,3.2,0,0,0-.746,2.431,4.029,4.029,0,0,0,1.372,2.214,2.333,2.333,0,0,0,2.286.722A2.645,2.645,0,0,0,9.8,57.677a2.207,2.207,0,0,1-3.08.361q-1.757-1.348-.289-4.091-1.035-1.3-.024-2.214a2.522,2.522,0,0,1,2.021-.7,8.208,8.208,0,0,1-2.238-4.717,3.957,3.957,0,0,1,2.527-4.5,2.438,2.438,0,0,1-.553-1.4,6.153,6.153,0,0,1,1.324-4.211m3.3-6.329a24.816,24.816,0,0,0-5.631-.313,3.554,3.554,0,0,0-3.393,2.7,3.017,3.017,0,0,0-2.455.89,3.61,3.61,0,0,0-.6,3.393A1.477,1.477,0,0,0,0,37.9a1.611,1.611,0,0,0,.963,1.42,1.622,1.622,0,0,1,.6-2.623,2.49,2.49,0,0,1-.289-2.046q.433-1.4,3.273-1.227.413-3.526,8.23-3.538M11.335,17.441a2.912,2.912,0,0,0-2.623-1.973q-2.046-.144-2.551,2.647a3.259,3.259,0,0,1,1.444-1.492q1.8-.89,3.634,2.214a7.8,7.8,0,0,1,2.719-1.42,3.679,3.679,0,0,1,2.238.168,3.179,3.179,0,0,0-2.5-.77,4.3,4.3,0,0,0-2.358.626m14.487-9.65a2.744,2.744,0,0,0-2.07.674A2.291,2.291,0,0,0,21.37,8.2a1.913,1.913,0,0,0-1.155,1.372,4.652,4.652,0,0,0-5.1.481L14.7,9.788A3.067,3.067,0,0,0,13.477,9.5a2.491,2.491,0,0,0-1.54.553,3.533,3.533,0,0,0-1.107,1.131,1.928,1.928,0,0,0-1.781-.12A3.01,3.01,0,0,0,7.1,10.053a1.834,1.834,0,0,0-1.66.89q1.813-1,3.3,1.083,1.472-1.049,2.238-.241a3.525,3.525,0,0,1,2.118-1.155,1.77,1.77,0,0,1,2.166.77A2.652,2.652,0,0,1,17.52,9.957a3.558,3.558,0,0,1,2.912,1.011,3.79,3.79,0,0,1,1.131-2.021,1.533,1.533,0,0,1,2.214.12,1.958,1.958,0,0,1,.866-.578,2.8,2.8,0,0,1,2.5.385,1.975,1.975,0,0,0-1.324-1.083m-8.062-4.4.072.914q2-1.131,2.864-.505a3.56,3.56,0,0,1,2.984-1.685A3.426,3.426,0,0,1,26.5,3.339Q29.841.451,33.234,1.871A10.379,10.379,0,0,1,37.59,5.625a5.44,5.44,0,0,1,4.139-3.441,3.5,3.5,0,0,0-1.468.024,4.22,4.22,0,0,0-2.7,1.829,11.142,11.142,0,0,0-2-2.094A7.465,7.465,0,0,0,32.753.162a6.833,6.833,0,0,0-3.489.144,5.4,5.4,0,0,0-2.792,1.612,4.29,4.29,0,0,0-3.273-.65,4.079,4.079,0,0,0-2.984,1.709,1.758,1.758,0,0,0-1.275.168,2.586,2.586,0,0,0-.578.385A2.722,2.722,0,0,0,17.953,1.7a2.2,2.2,0,0,0-2.19-.939,4,4,0,0,0-1.949.6,1.606,1.606,0,0,0-.794,1.083,5.751,5.751,0,0,1,1.324-.818,2.277,2.277,0,0,1,2.527.193A2.67,2.67,0,0,1,17.761,3.387Z" fill="#42372d"/>
          </g>
        </g>
        <g id="Group_57249" data-name="Group 57249" transform="translate(42.956 17.922)">
          <g id="Group_57248" data-name="Group 57248" transform="translate(0 0)">
            <path id="Path_47633" data-name="Path 47633" d="M5.776,2.888,2.888,5.776,0,2.888,2.888,0Zm-2.166,0H2.888V3.61m-.722-.722h.722V2.166" fill="none" stroke="rgba(0,0,0,0)" stroke-linecap="round" stroke-linejoin="round" stroke-width="0.075"/>
          </g>
        </g>
      </g>
      <g id="Group_57259" data-name="Group 57259" transform="translate(138.126 35.954) rotate(141)">
        <g id="Group_57252" data-name="Group 57252" transform="translate(0.006 0)">
          <g id="Group_57251" data-name="Group 57251" transform="translate(0 0)">
            <path id="Path_47634" data-name="Path 47634" d="M17.61,60.525q-.118,0-.241,0a17.242,17.242,0,0,1-2-1.684l2.238,1.684m.914.578q.1.128.193.265l-.457-.337a.944.944,0,0,1,.265.072m0,0a2.059,2.059,0,0,1,.481.217,2.357,2.357,0,0,1,.722.626l-.794-.409,5.535,4.139a13.2,13.2,0,0,1-5.679-4.235q-.38-.219-.746-.457a.981.981,0,0,1,.217.048l.457.337q-.092-.137-.193-.265M6.156,59.3a1.614,1.614,0,0,1-.794-.77A1.464,1.464,0,0,1,5,57.781a1.55,1.55,0,0,1,.289-1.372.824.824,0,0,1,.361-.385.555.555,0,0,1,.168-.048,1.627,1.627,0,0,1,.939-.193h0a3.7,3.7,0,0,1,.409-.1,1.065,1.065,0,0,1,.12-.024,2.187,2.187,0,0,1,.674-.024,2.451,2.451,0,0,1,.65-.939,1.988,1.988,0,0,1,1.757-.505,1.826,1.826,0,0,1,1.035.578,1.127,1.127,0,0,1,.168.217,2.236,2.236,0,0,1,.409-.241,2.317,2.317,0,0,1,1.155-.193,2.4,2.4,0,0,1,.529.12,5.65,5.65,0,0,1,.818-1.877q-.633-.082-1.8-.168a7.058,7.058,0,0,1-1.4-.385,2.808,2.808,0,0,1-.409.722A2.849,2.849,0,0,1,9.428,54a2.443,2.443,0,0,1-1.757-.072A2.4,2.4,0,0,1,6.444,52.68a3.194,3.194,0,0,1-.289-1.107A1.8,1.8,0,0,1,5.1,51.525a1.662,1.662,0,0,1-1.131-1.781A1.616,1.616,0,0,1,4.4,48.733a1.788,1.788,0,0,1,.963-.529,1.734,1.734,0,0,1,1.107.168,1.532,1.532,0,0,1,.7.674,3.071,3.071,0,0,1,.553-.385,6.071,6.071,0,0,1-.289-.842A8.285,8.285,0,0,1,7.239,45.1a6,6,0,0,1,.217-1.372,3.414,3.414,0,0,1,.289-.626q-.118-.182-.241-.361A4.188,4.188,0,0,1,6.878,41.3a4.979,4.979,0,0,1,.072-1.372l-.553-.1a3.172,3.172,0,0,1-.89-.313,3.677,3.677,0,0,1-1.588-1.733q-.105-.245-.193-.433a9.126,9.126,0,0,1-.939-.144,3.675,3.675,0,0,1-.914-.265A2.774,2.774,0,0,1,.861,35.666a2.587,2.587,0,0,1-.289-.77,3.04,3.04,0,0,1,0-1.083,2.305,2.305,0,0,1,.1-.553,1.827,1.827,0,0,1,.072-.217,2.4,2.4,0,0,1-.313-.265,1.457,1.457,0,0,1-.385-.746.878.878,0,0,1-.024-.457,1.707,1.707,0,0,1,.361-.866,1.449,1.449,0,0,1,.77-.505,1.467,1.467,0,0,1,.939.072,1.461,1.461,0,0,1,.746.553,1.385,1.385,0,0,1,.241.674,2.371,2.371,0,0,1,.963.193,3.964,3.964,0,0,1,1.275,1.011,3.534,3.534,0,0,1,1.564-.313,4.51,4.51,0,0,1,1.251.1,4.143,4.143,0,0,1-.722-.914,6.175,6.175,0,0,1-.7-2.671v-.12a6.13,6.13,0,0,1-1.684-1.492,6.039,6.039,0,0,1-.674-1.468A7.439,7.439,0,0,1,4.014,24a8.181,8.181,0,0,1,.241-1.925,6.842,6.842,0,0,1,.7-2.094,6.555,6.555,0,0,1,.818-.963q.078-.072.144-.144a2.967,2.967,0,0,1-.481-.481A2.584,2.584,0,0,1,4.9,17.113a1.951,1.951,0,0,1,.265-1.324q.022-.035.048-.072-.13-.162-.265-.361a5.862,5.862,0,0,1-.385-.794,3.237,3.237,0,0,1-.048-.65,3.8,3.8,0,0,1,.505-2.07,3.415,3.415,0,0,1,1.588-1.227A2.652,2.652,0,0,1,7.624,10.3a2.467,2.467,0,0,1,.193-1.155,2.175,2.175,0,0,1,.457-.674L8.2,8.426A1.2,1.2,0,0,1,7.7,7.584.937.937,0,0,1,7.672,7.1,1.42,1.42,0,0,1,8.779,6.019a1.338,1.338,0,0,1,.818.12,1.287,1.287,0,0,1,.578.553,1.335,1.335,0,0,1,.144.794,1.358,1.358,0,0,1-.072.313,2.482,2.482,0,0,1,.7.168,2.123,2.123,0,0,1,.963.746,2.3,2.3,0,0,1,.433,1.757,2.572,2.572,0,0,1-.6,1.348,3.632,3.632,0,0,1-.385.409,3.946,3.946,0,0,1,.385,1.059,2.483,2.483,0,0,1,0,1.372,3.722,3.722,0,0,1-.385.794,1.243,1.243,0,0,1-.12.144,3.767,3.767,0,0,1,1.083.168,6.475,6.475,0,0,1,.289-1.083,3.585,3.585,0,0,1,.433-.866,3.053,3.053,0,0,1,.866-.89,5.762,5.762,0,0,1,.674-.481,3.433,3.433,0,0,1-.241-.385,2.742,2.742,0,0,1-.361-1.4,2.825,2.825,0,0,1,.794-1.877,4.274,4.274,0,0,1-.1-.529l-.024-.217a1.459,1.459,0,0,1,.241-.842.7.7,0,0,0-.072-.1,2.361,2.361,0,0,1-.6-1.757,2.791,2.791,0,0,1,.1-.578,2.483,2.483,0,0,1-.65-.1,2.093,2.093,0,0,1-.987-.65,1.974,1.974,0,0,1-.433-1.107,1.927,1.927,0,0,1,.265-1.155A2.349,2.349,0,0,1,13.64.821,1.618,1.618,0,0,1,14.722.7a.833.833,0,0,1,.168-.385.7.7,0,0,1,.794-.289.706.706,0,0,1,.6.626.685.685,0,0,1-.265.746.863.863,0,0,1-.144.1,1.945,1.945,0,0,1,.337,1.588,2.7,2.7,0,0,1,.89-.024,2.576,2.576,0,0,1,1.588.77,2.367,2.367,0,0,1,.6,1.348A2.592,2.592,0,0,1,19.1,6.452a2.137,2.137,0,0,1,.144.265,4.569,4.569,0,0,1,.193.674q.011.078.024.168a3.47,3.47,0,0,1,1.348.65,4.818,4.818,0,0,1,1.083,1.227,3.862,3.862,0,0,1-.265-.746,2.993,2.993,0,0,1,.048-1.757,3.689,3.689,0,0,1,.963-1.54,2.707,2.707,0,0,1,.842-.578,2.315,2.315,0,0,1-.674-.7,2,2,0,0,1-.361-1.42,2.158,2.158,0,0,1,.674-1.324A2.176,2.176,0,0,1,24.444.749a2.2,2.2,0,0,1,1.4.385,2.146,2.146,0,0,1,.89,1.179,2.171,2.171,0,0,1-.12,1.516,2.312,2.312,0,0,1-.866.987,4.558,4.558,0,0,1,.6.265A3.559,3.559,0,0,1,28.223,7.1q.024.072.144.529a4.626,4.626,0,0,1,.144,1.9,3.329,3.329,0,0,1-.6,1.155q-.131.168-.265.313.109.044.217.1a5.027,5.027,0,0,1,1.949,1.54,9.244,9.244,0,0,1,.794,1.251,9.382,9.382,0,0,1,1.2,2.888,10.3,10.3,0,0,1-.12,2.6,4.879,4.879,0,0,1-.385,1.492,3.115,3.115,0,0,1-.794.963,5.235,5.235,0,0,1-1.251.818q.2.094.409.217a8.172,8.172,0,0,1,3.778,4.38,8.27,8.27,0,0,1,.337,1.925,6.723,6.723,0,0,1-.072,1.4,5.845,5.845,0,0,1,1.8-.313,7.176,7.176,0,0,1,3.754.939q1.275.818,1.925,1.227.914.505,1.348.77a7.554,7.554,0,0,1,1.251.866q.048.044.1.1a16.164,16.164,0,0,0-2.864-.1,32.464,32.464,0,0,0-20.045,7.725A14.212,14.212,0,0,0,16.022,50.3a13.461,13.461,0,0,0,2.094,10.2q-.258.022-.505.024L15.372,58.84a17.242,17.242,0,0,0,2,1.684,3.726,3.726,0,0,1-.794-.12,4.243,4.243,0,0,1-1.444-.77l-.048-.048a2.278,2.278,0,0,1-.914.433,2.968,2.968,0,0,1-1.66-.144,3.558,3.558,0,0,1-1.372-.963q-.2-.221-.361-.433a2.17,2.17,0,0,1-.914.193,2.326,2.326,0,0,1-.842-.12,2.156,2.156,0,0,1-.722.626,2.276,2.276,0,0,1-1.035.313A2.02,2.02,0,0,1,6.156,59.3m45.361-9.024a6.459,6.459,0,0,1-.217,1.155,4.661,4.661,0,0,1,.289,2.262,5.308,5.308,0,0,1-1.059,2.888,6.7,6.7,0,0,1-.1.866,8.979,8.979,0,0,1-.674,2.094,7.513,7.513,0,0,1-.024.89q-.008.122-.024.241a13,13,0,0,1-3.056,2.045A20.346,20.346,0,0,1,36.38,64.832a96.231,96.231,0,0,1-11.479-1.2,19.552,19.552,0,0,1-4.885-1.54A2.334,2.334,0,0,1,21,61.223a6.29,6.29,0,0,1-.529-.626q-.167-.24-.337-.505a8,8,0,0,1-1.66.361q-.187.028-.361.048a13.461,13.461,0,0,1-2.094-10.2,14.212,14.212,0,0,1,4.957-8.519,32.464,32.464,0,0,1,20.045-7.725,16.164,16.164,0,0,1,2.864.1,7.9,7.9,0,0,1,1.42,1.9,5.612,5.612,0,0,1,.794,2.382,6.311,6.311,0,0,1-.12,1.42A5.582,5.582,0,0,1,47.69,41.3a21.807,21.807,0,0,1,1.251,1.9l1.011,1.781a13.641,13.641,0,0,1,1.2,2.358,7.261,7.261,0,0,1,.361,2.936m-3.128,13.5A8.564,8.564,0,0,1,46.7,65.626a9.39,9.39,0,0,1-2.045,1.059,11.307,11.307,0,0,1-2.647.722,5.224,5.224,0,0,1-2.7-.337,3.542,3.542,0,0,1-1.733-1.54,10.282,10.282,0,0,1-1.011,1.179,10.165,10.165,0,0,1-2.96,2.358,5.675,5.675,0,0,1-2.647.529,6.516,6.516,0,0,1-2.647-.6,6.969,6.969,0,0,1-1.877-1.348,2.9,2.9,0,0,1-1.468.7,5.661,5.661,0,0,1-1.925-.048,6.2,6.2,0,0,1-1.227-.337,3.933,3.933,0,0,1-1.42-1.035q-.11-.116-.217-.241a2.6,2.6,0,0,1-1.3-.265,1.764,1.764,0,0,1-.505-.289,1.373,1.373,0,0,1-.024.337l-.072.241a.215.215,0,0,1,0,.024,1.775,1.775,0,0,1-.337,1.083,1.937,1.937,0,0,1-.939.7,4.088,4.088,0,0,1-1.155.241,2.108,2.108,0,0,1-.481,0,2.289,2.289,0,0,1-.987-.217,2.865,2.865,0,0,1-.6-.337,2.1,2.1,0,0,1-.481-.433l-.168-.241a1.62,1.62,0,0,1-.241-1.083,1.536,1.536,0,0,1,.1-.481,3.121,3.121,0,0,1,.193-.553,1.741,1.741,0,0,1,.7-.77,2.1,2.1,0,0,1,.7-.241,1.819,1.819,0,0,1,.6-.072,1.344,1.344,0,0,1,.361.048q-.023-.076-.048-.144a2.42,2.42,0,0,1-.024-1.612,2.274,2.274,0,0,1,.818-1.131,2.387,2.387,0,0,1,1.3-.505,2.351,2.351,0,0,1,.457,0q.366.238.746.457a13.2,13.2,0,0,0,5.679,4.235l-5.535-4.139.794.409a1.544,1.544,0,0,1,.193.313,1.351,1.351,0,0,0,.1-.168,19.552,19.552,0,0,0,4.885,1.54,96.231,96.231,0,0,0,11.479,1.2,20.346,20.346,0,0,0,10.275-2.118,13,13,0,0,0,3.056-2.045A5.975,5.975,0,0,1,49.5,61.8,7.329,7.329,0,0,1,48.388,63.773Z" fill="#130605"/>
          </g>
        </g>
        <g id="Group_57254" data-name="Group 57254" transform="translate(20.745 21.315)">
          <g id="Group_57253" data-name="Group 57253" transform="translate(0 0)">
            <path id="Path_47635" data-name="Path 47635" d="M30.344,32.616a4.92,4.92,0,0,1-.313,5.174A6.056,6.056,0,0,1,25.94,40.7a7.06,7.06,0,0,1-7.821-3.465L18,36.9H16.916a7.434,7.434,0,0,1-6.594-6.5,12.555,12.555,0,0,1-2.647-1.829Q3.3,24.459,6.184,19.622q-.217-.337-.409-.674a7.792,7.792,0,0,1-.987-3.922A5.382,5.382,0,0,1,.986,11.9,8.857,8.857,0,0,1,2.261,1.886Q4.716-1.074,7.435.611a1.959,1.959,0,0,1,2.094.433,10.891,10.891,0,0,1,3.9,7.917,7.97,7.97,0,0,1,5.029.65,10.264,10.264,0,0,1,4.067,3.2q2.5,3.369,4.885,6.81A17.116,17.116,0,0,1,30.344,32.616Z"/>
          </g>
        </g>
        <g id="Group_57256" data-name="Group 57256" transform="translate(0 8.278)">
          <g id="Group_57255" data-name="Group 57255" transform="translate(0 0)">
            <path id="Path_47636" data-name="Path 47636" d="M12.3,8.4a4.415,4.415,0,0,1,.6-2.743,3.911,3.911,0,0,1,1.733-1.516,2.286,2.286,0,0,1-.409-2.864,2.4,2.4,0,0,1,2.864-1.2q-2.84,1.3-1.9,2.743a5.048,5.048,0,0,0,2.094,1.516,4.991,4.991,0,0,0-4.043,2.094A5.275,5.275,0,0,0,12.3,8.4M9.482,25.126a5.824,5.824,0,0,1-2.238-1.853,4.309,4.309,0,0,1-.529-2.791A5.382,5.382,0,0,1,4,15.26a6.144,6.144,0,0,1,1.9-4.644,2.461,2.461,0,0,1-.77-3.225A3.2,3.2,0,0,1,4.38,4.96,4.029,4.029,0,0,1,5.752,2.746a2.333,2.333,0,0,1,2.286-.722A2.644,2.644,0,0,1,9.795,3.661,2.207,2.207,0,0,0,6.715,3.3Q4.958,4.647,6.426,7.391,5.391,8.69,6.4,9.6a2.522,2.522,0,0,0,2.021.7,8.207,8.207,0,0,0-2.238,4.717,3.956,3.956,0,0,0,2.527,4.5,2.438,2.438,0,0,0-.553,1.4,6.153,6.153,0,0,0,1.324,4.211m3.3,6.329a24.814,24.814,0,0,1-5.631.313,3.554,3.554,0,0,1-3.393-2.7,3.017,3.017,0,0,1-2.455-.89,3.61,3.61,0,0,1-.6-3.393A1.477,1.477,0,0,1,0,23.441a1.611,1.611,0,0,1,.963-1.42,1.622,1.622,0,0,0,.6,2.623,2.49,2.49,0,0,0-.289,2.045q.433,1.4,3.273,1.227.413,3.526,8.23,3.537M11.335,43.9a2.912,2.912,0,0,1-2.623,1.973q-2.045.144-2.551-2.647a3.259,3.259,0,0,0,1.444,1.492q1.8.89,3.634-2.214a7.8,7.8,0,0,0,2.719,1.42,3.679,3.679,0,0,0,2.238-.168,3.179,3.179,0,0,1-2.5.77,4.3,4.3,0,0,1-2.358-.626m14.487,9.65a2.744,2.744,0,0,1-2.07-.674,2.291,2.291,0,0,1-2.382.265,1.913,1.913,0,0,1-1.155-1.372,4.652,4.652,0,0,1-5.1-.481l-.409.265a3.067,3.067,0,0,1-1.227.289,2.491,2.491,0,0,1-1.54-.553,3.533,3.533,0,0,1-1.107-1.131,1.928,1.928,0,0,1-1.781.12A3.01,3.01,0,0,1,7.1,51.284a1.834,1.834,0,0,1-1.66-.89q1.813,1,3.3-1.083,1.471,1.049,2.238.241a3.525,3.525,0,0,0,2.118,1.155,1.77,1.77,0,0,0,2.166-.77A2.652,2.652,0,0,0,17.52,51.38a3.558,3.558,0,0,0,2.912-1.011,3.79,3.79,0,0,0,1.131,2.021,1.533,1.533,0,0,0,2.214-.12,1.958,1.958,0,0,0,.866.578,2.8,2.8,0,0,0,2.5-.385,1.975,1.975,0,0,1-1.324,1.083m-8.062,4.4.072-.914q2,1.131,2.864.505a3.559,3.559,0,0,0,2.984,1.684A3.426,3.426,0,0,0,26.5,58q3.345,2.888,6.738,1.468a10.378,10.378,0,0,0,4.356-3.754,5.44,5.44,0,0,0,4.139,3.441,3.5,3.5,0,0,1-1.468-.024,4.22,4.22,0,0,1-2.7-1.829,11.141,11.141,0,0,1-2,2.094,7.465,7.465,0,0,1-2.816,1.781,6.833,6.833,0,0,1-3.489-.144,5.4,5.4,0,0,1-2.791-1.612,4.29,4.29,0,0,1-3.273.65,4.078,4.078,0,0,1-2.984-1.709,1.758,1.758,0,0,1-1.275-.168,2.586,2.586,0,0,1-.578-.385,2.722,2.722,0,0,1-.409,1.829,2.2,2.2,0,0,1-2.19.939,4,4,0,0,1-1.949-.6,1.606,1.606,0,0,1-.794-1.083,5.751,5.751,0,0,0,1.324.818,2.277,2.277,0,0,0,2.527-.193A2.67,2.67,0,0,0,17.76,57.95Z" fill="#42372d"/>
          </g>
        </g>
        <g id="Group_57258" data-name="Group 57258" transform="translate(42.955 45.918)">
          <g id="Group_57257" data-name="Group 57257" transform="translate(0 0)">
            <path id="Path_47637" data-name="Path 47637" d="M5.775,2.888,2.888,0,0,2.888,2.888,5.775Zm-2.166,0H2.888V2.166m-.722.722h.722V3.61" fill="none" stroke="rgba(0,0,0,0)" stroke-linecap="round" stroke-linejoin="round" stroke-width="0.075"/>
          </g>
        </g>
      </g>
      <g id="Group_57314" data-name="Group 57314" transform="translate(7.337 90.893) rotate(-56)">
        <g id="Group_57262" data-name="Group 57262" transform="matrix(0.999, -0.043, 0.043, 0.999, 5.507, 63.887)">
          <g id="Group_57261" data-name="Group 57261" transform="translate(0 0)">
            <g id="Group_57260" data-name="Group 57260">
              <path id="Path_47638" data-name="Path 47638" d="M10.783,3.658q-.529-.7-.626-.794a7.99,7.99,0,0,0,.385,3.152,9.982,9.982,0,0,1,.241-2.358m-6.377-2.6a8.349,8.349,0,0,0-1.8,1.2A6.492,6.492,0,0,0,1.4,4.019Q1.11,4.644.6,6.064A9.522,9.522,0,0,0,0,8.639a9.558,9.558,0,0,0,.168,1.8q.193,1.2.337,2.021A26.852,26.852,0,0,0,5.08,19.876a8.658,8.658,0,0,0,1.42.938,3.511,3.511,0,0,0,1.492.457,1.6,1.6,0,0,0,1.42-.553,2.714,2.714,0,0,0,.553-1.492q.048-.337.1-.65a16.541,16.541,0,0,0-.337-2.238,9.118,9.118,0,0,0-.337-1.131,13.187,13.187,0,0,0-2.238-4.043,3.169,3.169,0,0,0-.842-.794q-.144-.1-.409-.265A.466.466,0,0,1,5.73,9.89a3.655,3.655,0,0,0-1.684-.433.911.911,0,0,1-.361-.048q-.241-.1-.144-.313a.582.582,0,0,1,.265-.12,4.926,4.926,0,0,1,1.877.193q.265.1.481.193a2.535,2.535,0,0,1,2.214.938,12.376,12.376,0,0,1,1.733,2.094q-.1-1.011-.265-2.021Q9.6,8.952,9,6.088a15.12,15.12,0,0,1-.217-4.307l.048-.193-.289-.241a9.136,9.136,0,0,0-1.9-1.3A.934.934,0,0,1,6.524,0a.607.607,0,0,0-.144.072Q5.754.433,4.406,1.059Z" transform="translate(1.049 0.217)" fill="#a56b4e"/>
              <path id="Path_47639" data-name="Path 47639" d="M3.65,2.479a8.349,8.349,0,0,1,1.8-1.2Q6.8.65,7.428.289A.607.607,0,0,1,7.572.217,3.732,3.732,0,0,0,4.348.6,8.382,8.382,0,0,0,.642,4.957,5.8,5.8,0,0,0,.137,8.711a38.414,38.414,0,0,0,1.42,3.97q-.144-.818-.337-2.021a9.558,9.558,0,0,1-.168-1.8,9.522,9.522,0,0,1,.6-2.575q.505-1.42.794-2.045A6.492,6.492,0,0,1,3.65,2.479Z" fill="#b78871"/>
              <path id="Path_47640" data-name="Path 47640" d="M11.867,11.069,10.567,7.6a17.956,17.956,0,0,0-1.083-2.43q-.144-.241-.746-1.131Q8.45,3.634,8.065,3.1L7.271,2.069A9.982,9.982,0,0,0,7.03,4.428a7.99,7.99,0,0,1-.385-3.152l-.024-.024A12.778,12.778,0,0,0,5.321,0L5.273.193A15.12,15.12,0,0,0,5.49,4.5q.6,2.864.842,4.283Q6.5,9.794,6.6,10.8A12.376,12.376,0,0,0,4.864,8.711,2.535,2.535,0,0,0,2.65,7.772q-.217-.1-.481-.193A4.926,4.926,0,0,0,.292,7.387a.582.582,0,0,0-.265.12q-.1.217.144.313a.911.911,0,0,0,.361.048A3.655,3.655,0,0,1,2.217,8.3a.466.466,0,0,0,.168.217q.265.168.409.265a3.169,3.169,0,0,1,.842.794A13.187,13.187,0,0,1,5.875,13.62a9.118,9.118,0,0,1,.337,1.131,16.541,16.541,0,0,1,.337,2.238q-.048.313-.1.65A2.714,2.714,0,0,1,5.9,19.13a1.6,1.6,0,0,1-1.42.553,3.511,3.511,0,0,1-1.492-.457,8.657,8.657,0,0,1-1.42-.938,20.9,20.9,0,0,0,1.564,1.588.28.28,0,0,0,.072.048L5.682,21.9a3.964,3.964,0,0,1,.337.217,5.925,5.925,0,0,0,3.513,1.035,6.554,6.554,0,0,0,2.069-.481,2.643,2.643,0,0,0,1.492-1.444,4.564,4.564,0,0,0,.241-1.444,21.092,21.092,0,0,0-.457-5.7A24.147,24.147,0,0,0,11.867,11.069Z" transform="translate(4.561 1.805)" fill="#84553e"/>
            </g>
          </g>
        </g>
        <g id="Group_57265" data-name="Group 57265" transform="translate(105.461 88.994) rotate(-176.773)">
          <g id="Group_57264" data-name="Group 57264" transform="translate(0 0)">
            <g id="Group_57263" data-name="Group 57263">
              <path id="Path_47641" data-name="Path 47641" d="M10.783,17.618q-.529.7-.626.794a7.99,7.99,0,0,1,.385-3.152,9.982,9.982,0,0,0,.241,2.358m-6.377,2.6a8.349,8.349,0,0,1-1.8-1.2,6.492,6.492,0,0,1-1.2-1.757Q1.11,16.631.6,15.211A9.522,9.522,0,0,1,0,12.637a9.558,9.558,0,0,1,.168-1.8q.193-1.2.337-2.021A26.852,26.852,0,0,1,5.08,1.4,8.658,8.658,0,0,1,6.5.461,3.51,3.51,0,0,1,7.992,0a1.6,1.6,0,0,1,1.42.553,2.714,2.714,0,0,1,.553,1.492q.048.337.1.65a16.541,16.541,0,0,1-.337,2.238,9.118,9.118,0,0,1-.337,1.131A13.187,13.187,0,0,1,7.149,10.11a3.169,3.169,0,0,1-.842.794q-.144.1-.409.265a.466.466,0,0,0-.168.217,3.655,3.655,0,0,1-1.684.433.911.911,0,0,0-.361.048q-.241.1-.144.313a.582.582,0,0,0,.265.12,4.926,4.926,0,0,0,1.877-.193q.265-.1.481-.193a2.535,2.535,0,0,0,2.214-.938,12.376,12.376,0,0,0,1.733-2.093q-.1,1.011-.265,2.021Q9.6,12.324,9,15.187a15.12,15.12,0,0,0-.217,4.307l.048.193-.289.241a9.136,9.136,0,0,1-1.9,1.3.933.933,0,0,0-.12.048.607.607,0,0,1-.144-.072Q5.754,20.842,4.406,20.217Z" transform="translate(1.049 3.477)" fill="#a56b4e"/>
              <path id="Path_47642" data-name="Path 47642" d="M3.65,10.2a8.349,8.349,0,0,0,1.8,1.2q1.348.626,1.973.987a.607.607,0,0,0,.144.072,3.732,3.732,0,0,1-3.224-.385A8.382,8.382,0,0,1,.642,7.724,5.8,5.8,0,0,1,.137,3.97,38.414,38.414,0,0,1,1.557,0Q1.412.818,1.22,2.021a9.558,9.558,0,0,0-.168,1.8,9.522,9.522,0,0,0,.6,2.575q.505,1.42.794,2.045A6.492,6.492,0,0,0,3.65,10.2Z" transform="translate(0 12.288)" fill="#b78871"/>
              <path id="Path_47643" data-name="Path 47643" d="M11.867,12.1l-1.3,3.465a17.956,17.956,0,0,1-1.083,2.43q-.144.241-.746,1.131-.289.409-.674.938L7.271,21.1a9.982,9.982,0,0,1-.241-2.358,7.99,7.99,0,0,0-.385,3.152l-.024.024a12.778,12.778,0,0,1-1.3,1.251l-.048-.193a15.12,15.12,0,0,1,.217-4.307q.6-2.864.842-4.283Q6.5,13.371,6.6,12.36a12.376,12.376,0,0,1-1.733,2.093,2.535,2.535,0,0,1-2.214.938q-.217.1-.481.193a4.926,4.926,0,0,1-1.877.193.582.582,0,0,1-.265-.12q-.1-.217.144-.313A.911.911,0,0,1,.533,15.3a3.654,3.654,0,0,0,1.684-.433.466.466,0,0,1,.168-.217q.265-.168.409-.265a3.169,3.169,0,0,0,.842-.794A13.187,13.187,0,0,0,5.875,9.545a9.118,9.118,0,0,0,.337-1.131,16.541,16.541,0,0,0,.337-2.238q-.048-.313-.1-.65A2.714,2.714,0,0,0,5.9,4.034a1.6,1.6,0,0,0-1.42-.553,3.51,3.51,0,0,0-1.492.457,8.658,8.658,0,0,0-1.42.938A20.9,20.9,0,0,1,3.132,3.288.28.28,0,0,1,3.2,3.24L5.682,1.267a3.964,3.964,0,0,0,.337-.217A5.925,5.925,0,0,1,9.532.016,6.554,6.554,0,0,1,11.6.5a2.643,2.643,0,0,1,1.492,1.444,4.564,4.564,0,0,1,.241,1.444,21.092,21.092,0,0,1-.457,5.7A24.147,24.147,0,0,1,11.867,12.1Z" transform="translate(4.561 0)" fill="#84553e"/>
            </g>
          </g>
        </g>
        <g id="Group_57267" data-name="Group 57267" transform="translate(4.599 42.915)">
          <g id="Group_57266" data-name="Group 57266" transform="translate(0 0)">
            <path id="Path_47644" data-name="Path 47644" d="M.241.006Q-.264,1.186.289,9.391A66.3,66.3,0,0,0,2.046,22.072q.578,1.973,1.083,3.609v-.024a.571.571,0,0,1,.024.072,1.137,1.137,0,0,1,.048.144l1.131,3.345a44.8,44.8,0,0,0,3.1,6.786,16.061,16.061,0,0,0,1.9,2.719l.072.072a.085.085,0,0,0,.072.072q.168.12.289.217a.865.865,0,0,0,.746.12q.626-.265.337-1.492l-3.1-12.152Q6.738,21.206,3.49,10.306.337-.258.241.006M95.195,9.391q.553-8.206.048-9.385-.1-.265-3.249,10.3-3.249,10.9-4.259,15.256l-3.1,12.152q-.289,1.227.337,1.492a.866.866,0,0,0,.746-.12q.12-.1.289-.217a.085.085,0,0,0,.072-.072l.072-.072a16.061,16.061,0,0,0,1.9-2.719,44.8,44.8,0,0,0,3.1-6.786l1.131-3.345.072-.217-.024.024q.529-1.633,1.107-3.609A66.3,66.3,0,0,0,95.195,9.391Z" fill="#130605"/>
          </g>
        </g>
        <g id="Group_57273" data-name="Group 57273" transform="translate(0.37 7.849)">
          <g id="Group_57269" data-name="Group 57269" transform="translate(11.661 9.686)">
            <g id="Group_57268" data-name="Group 57268" transform="translate(0 0)">
              <path id="Path_47645" data-name="Path 47645" d="M11.675,19.684Q3.229,16.441,0,12.056A21.669,21.669,0,0,0,7.659,19.3q10.974,5.774,20.665,5.9,1.144.012,2.265-.048,10.052-.575,19.638-7.484,6.952-5,11.955-17.662-6.609,12.716-14.36,17.35a57.5,57.5,0,0,1-7.986,4.067,28.8,28.8,0,0,1-8.967,1.564A48.831,48.831,0,0,1,11.675,19.684Z" transform="translate(12.818 73.104)" fill="#b78871"/>
              <path id="Path_47646" data-name="Path 47646" d="M80.464,15.858a21.5,21.5,0,0,0-7.355-7.893A41.653,41.653,0,0,0,63.3,3.513,65.266,65.266,0,0,0,43.384,0L40.652.1A67.726,67.726,0,0,0,20.617,4.644,45.144,45.144,0,0,0,10.67,9.673,23.46,23.46,0,0,0,3.081,18.1,25.939,25.939,0,0,0,.723,25.266a50.563,50.563,0,0,0-.7,7.676,86.051,86.051,0,0,0,.7,11.791q.234,1.943.514,3.874a.466.466,0,0,0,.023.193q.193,1.6.467,3.224.344,2,.7,3.995.631,3.421,1.448,6.714,3.363,13.843,8.546,21.849l.14.241a1.631,1.631,0,0,0,.257.337q3.229,4.386,11.675,7.628a48.831,48.831,0,0,0,19.194,3.3,28.8,28.8,0,0,0,8.967-1.564,57.5,57.5,0,0,0,7.986-4.067Q68.391,85.82,75,73.1a109.2,109.2,0,0,0,4.25-13.524q.672-2.8,1.284-5.655a.215.215,0,0,1,.023-.1q.333-1.63.677-3.224.151-1.167.374-2.334.532-3.158.957-6.353a80.756,80.756,0,0,0,.864-11.5,50.919,50.919,0,0,0-.677-7.556A24.549,24.549,0,0,0,80.464,15.858Z" fill="#a56b4e"/>
            </g>
          </g>
          <g id="Group_57272" data-name="Group 57272" transform="translate(0 0)">
            <g id="Group_57271" data-name="Group 57271">
              <g id="Group_57270" data-name="Group 57270">
                <path id="Path_47647" data-name="Path 47647" d="M25.764,4.537a4.232,4.232,0,0,0-.654,1.179h-.234a9.1,9.1,0,0,0-3.736.674A4.745,4.745,0,0,0,18.5,9.109a3.751,3.751,0,0,0-.14.6,6.72,6.72,0,0,0-1.8.7,2.178,2.178,0,0,0-.841.217,5.411,5.411,0,0,0-1.238.65,6.02,6.02,0,0,0-.747.553,5.071,5.071,0,0,0-.514.77,4.065,4.065,0,0,0-.444.914,7.115,7.115,0,0,0-.187,1.179,6.307,6.307,0,0,0-.07,1.083,3.38,3.38,0,0,0,.747,1.877A5.471,5.471,0,0,0,11.8,18.9a4.374,4.374,0,0,0-.841,2.5,4.285,4.285,0,0,0,.187,1.42,4.571,4.571,0,0,0-.677.168,8.784,8.784,0,0,0-4.553,3.345,11.286,11.286,0,0,0-2.008,5.438,8.2,8.2,0,0,0,.7,4.62q.14.313.28.578-.4.289-.677.529a4.222,4.222,0,0,0-.537.7A6.842,6.842,0,0,0,1.9,40.993a5.082,5.082,0,0,0-.257,2,4.438,4.438,0,0,0,.537,1.877A7.176,7.176,0,0,0,2.9,45.9a2.9,2.9,0,0,1,.21.241A.642.642,0,0,0,3,46.311a7.125,7.125,0,0,0-1.378,1.035,4,4,0,0,0-.771.77,4.226,4.226,0,0,0-.537,1.059A4.844,4.844,0,0,0,.428,52.88a3.96,3.96,0,0,0,1.1,1.516,3.882,3.882,0,0,0,1.238.722,4.547,4.547,0,0,0-.771.866l-.42.746a6,6,0,0,0-.35.77,4.4,4.4,0,0,0-.163.866,5,5,0,0,0-.07.794,3.217,3.217,0,0,0,.327,1.372,4.2,4.2,0,0,0,1.027,1.444,7.97,7.97,0,0,0,.7.505.292.292,0,0,0-.117.072,2.486,2.486,0,0,0-.42.505A3.537,3.537,0,0,0,2.2,64.5a3.164,3.164,0,0,0,.14,1.083,3.282,3.282,0,0,0,.374.626,6.005,6.005,0,0,0,.63.746,2.348,2.348,0,0,0,.584.385,1.152,1.152,0,0,0-.467.674,1.347,1.347,0,0,0,.023.746,1.439,1.439,0,0,0,.374.674,2,2,0,0,0,1.378.6,2.12,2.12,0,0,0,1.354-.385,1.452,1.452,0,0,0,.677-1.227,1.284,1.284,0,0,0-.257-.842,2.192,2.192,0,0,1-.163-.241,3.618,3.618,0,0,0,1.214-.722,3.49,3.49,0,0,0,.63-.722,3.222,3.222,0,0,0,.327-1.323,3.255,3.255,0,0,0,.023-.674.271.271,0,0,1,.07-.048,4.5,4.5,0,0,0,.981-.77,4.056,4.056,0,0,0,.444-.7,3.3,3.3,0,0,0,.49-1.492,4.02,4.02,0,0,0-.187-1.059,4.287,4.287,0,0,0-.374-.963,2.724,2.724,0,0,0-.49-.578q-.163-.144-.28-.241.28-.144.537-.289a5.731,5.731,0,0,0,2.148-2.575,7.9,7.9,0,0,0,.677-3.585,7.763,7.763,0,0,0,1.845-.024,8.165,8.165,0,0,0,2.078-.553,6.381,6.381,0,0,0,1.868-1.107,4.877,4.877,0,0,0,1.284-2.069q.093-.289.187-.505a2.737,2.737,0,0,0,1.821.457,2.294,2.294,0,0,0,1.868-1.372,2.249,2.249,0,0,0,.023-1.323,2.317,2.317,0,0,0-.584-.938,12.826,12.826,0,0,0,3.036-1.8,6.934,6.934,0,0,0,1.308-1.323,3.573,3.573,0,0,0,.607-1.251.271.271,0,0,1,.07.048,7.484,7.484,0,0,0,2.312.578q.3.024.537.048a.07.07,0,0,1,.023.048,6.357,6.357,0,0,0-1.144.337,4.382,4.382,0,0,0-2.288,2.021,3.483,3.483,0,0,0-.4,1.516,2.9,2.9,0,0,0,.35,1.516,3.011,3.011,0,0,0,.56.77,2.094,2.094,0,0,0-.257.193,3.011,3.011,0,0,0-.864.866,1.826,1.826,0,0,0-.21.7,2.569,2.569,0,0,0-.07.553,2.838,2.838,0,0,0,.327,1.42,2.584,2.584,0,0,0-.42.168,1.888,1.888,0,0,0-.957,1.083,1.925,1.925,0,0,0-.07.914,2.318,2.318,0,0,0,.607,1.179,1.981,1.981,0,0,0,1.121.626,2.242,2.242,0,0,0,1.284-.193,1.776,1.776,0,0,0,.911-.914,1.527,1.527,0,0,0,.187-.529,1.806,1.806,0,0,1,.023-.289,3.816,3.816,0,0,0,1.471-.048,4.022,4.022,0,0,0,1.4-.6,2.4,2.4,0,0,0,.584-.553,2.573,2.573,0,0,0,.514-1.035,2.692,2.692,0,0,0,.093-.722,2.159,2.159,0,0,0-.093-.457,2.573,2.573,0,0,0-.187-.553,1.653,1.653,0,0,0,.28-.024,4,4,0,0,0,2.825-1.829,3.41,3.41,0,0,0,.234-.481,3.837,3.837,0,0,0,.327-.963,11.1,11.1,0,0,0,1.7.12,9.138,9.138,0,0,0,3.152-.626,6.321,6.321,0,0,0,2.592-1.829,6.777,6.777,0,0,0,1.284-2.5,3.088,3.088,0,0,0,.747.6h.023a3.5,3.5,0,0,0-.28.866V42a2.345,2.345,0,0,0-.444.072,4.117,4.117,0,0,0-.864.505,2.061,2.061,0,0,0-.49.481,1.224,1.224,0,0,0-.257.457,3.589,3.589,0,0,0-.233.626,1.9,1.9,0,0,0-.023.674,2.435,2.435,0,0,0,.093.7,2.493,2.493,0,0,0,.654.914,2.047,2.047,0,0,1,.21.193.6.6,0,0,0-.163.217,1.48,1.48,0,0,0-.163.914,1.444,1.444,0,0,0,.747,1.059,1.7,1.7,0,0,0,1.261.193,1.749,1.749,0,0,0,1.1-.746,1.322,1.322,0,0,0,.187-1.107,3.345,3.345,0,0,0,.514-.193,2.006,2.006,0,0,0,.654-.505,1.778,1.778,0,0,0,.327-.553,2.165,2.165,0,0,0,.234-.794,4.54,4.54,0,0,0,1.915-.168A4.337,4.337,0,0,0,54.2,43.423a2.658,2.658,0,0,0,.514-1.179,2.522,2.522,0,0,0-.093-1.179q.14-.024.3-.048A4.376,4.376,0,0,0,57.8,39.549a3.782,3.782,0,0,0,.771-1.492,3.009,3.009,0,0,0-.047-1.66,4.382,4.382,0,0,0-.444-.963,11.214,11.214,0,0,0,1.354-1.516,9.629,9.629,0,0,0,1.448-2.743,4.9,4.9,0,0,0,.444.361q-.07.168-.14.361a2.36,2.36,0,0,0-.163.674,3.15,3.15,0,0,0,.14,1.011,3.919,3.919,0,0,0,.864,1.588,3.2,3.2,0,0,0,1.471.963,1.21,1.21,0,0,0,.257.072,3.157,3.157,0,0,0-.467.842,4.519,4.519,0,0,0-.21,1.275l-.047.794a5.379,5.379,0,0,0,.047,1.323A3.733,3.733,0,0,0,64.1,42.124a8.12,8.12,0,0,0,3.829,2.358,6.578,6.578,0,0,0,2.242.192q.327-.024.654-.072.093.265.257.626l.257.433a2.688,2.688,0,0,0,1.354.818.1.1,0,0,0-.023.072,3.47,3.47,0,0,0-.187,1.516,2.636,2.636,0,0,0,.187,1.083,2.281,2.281,0,0,0,.444.626,3.987,3.987,0,0,0,2.709,1.468,8.225,8.225,0,0,0,.981-.072,4.536,4.536,0,0,0,.467,1.42q.28.529.374.7a2.87,2.87,0,0,0,.747.7,4.216,4.216,0,0,0,2.569.626h.093a1.52,1.52,0,0,0,.467,1.011,1.636,1.636,0,0,0-.327.481,1.116,1.116,0,0,0,.093.77,1.024,1.024,0,0,0,.537.553,1.053,1.053,0,0,0,.794.168,1.232,1.232,0,0,0,.957-.553,1.132,1.132,0,0,0,.117-1.011.367.367,0,0,1,.093-.072,1.48,1.48,0,0,0,.514-2.334,1.318,1.318,0,0,0-.444-.337,3.214,3.214,0,0,0,1.027-1.973,2.454,2.454,0,0,0-.3-1.444,2.372,2.372,0,0,0,.724-.914,2.715,2.715,0,0,0,.3-1.155,6.031,6.031,0,0,0,.7.241,4.862,4.862,0,0,0-.117.674,6.508,6.508,0,0,0-.047,1.877,5.544,5.544,0,0,0,.444,1.227,6.648,6.648,0,0,0,3.176,3.056,3.824,3.824,0,0,0,.817.289,2.9,2.9,0,0,0-.21.241,3.374,3.374,0,0,0-.42,3.032,5.318,5.318,0,0,0,.35.963,2.52,2.52,0,0,0-1.354.433A2.22,2.22,0,0,0,87.9,61.711a2.178,2.178,0,0,0,.654,1.564A2.107,2.107,0,0,0,90.07,64a2.193,2.193,0,0,0,1.564-.553,2.6,2.6,0,0,0,.981-1.42,2.74,2.74,0,0,0,.117-.746,9.529,9.529,0,0,0,1.214.072,5.013,5.013,0,0,0,2.755-.89A3.219,3.219,0,0,0,98.2,58.005a3.358,3.358,0,0,0-.584-2.238,1,1,0,0,0-.14-.193,3.346,3.346,0,0,0,.911-.6,4.7,4.7,0,0,0,.56-.578,2.828,2.828,0,0,0,.3-.626,1.384,1.384,0,0,0,.093-.505,2.615,2.615,0,0,0-.28-1.251,1.725,1.725,0,0,0-.3-.529,5.9,5.9,0,0,0,2.195-1.8,3.514,3.514,0,0,0,.607-2.118,3.2,3.2,0,0,0-.724-2.045q-.163-.193-.35-.385.3-.144.607-.313A6.815,6.815,0,0,0,103.4,42.8a3.8,3.8,0,0,0-.42-5.077,5.034,5.034,0,0,0-.584-.433,8.117,8.117,0,0,0,1.868-1.949,6.482,6.482,0,0,0,1.1-3.489A6.993,6.993,0,0,0,104.5,28.5a4.931,4.931,0,0,0-.957-1.3,6.282,6.282,0,0,0-1.635-1.083,9.764,9.764,0,0,0-2.242-.77.07.07,0,0,0,.023-.048,4.07,4.07,0,0,0,.3-1.275,3.5,3.5,0,0,0-.42-2.118,4.965,4.965,0,0,0-1-.938,7.667,7.667,0,0,0-.654-.433,1.589,1.589,0,0,0,.093-.168,2.629,2.629,0,0,0,.187-.529,2.03,2.03,0,0,0,.023-.818,3.591,3.591,0,0,0-.21-.674,3.164,3.164,0,0,0-.42-.866,3.07,3.07,0,0,0-.607-.505,4.229,4.229,0,0,0-2.031-.746q-.257-.024-.537-.024a7.492,7.492,0,0,0,.023-1.323,6.679,6.679,0,0,0-.817-2.7A6.564,6.564,0,0,0,91.8,10.071a7.884,7.884,0,0,0-4.366-1.444,9.192,9.192,0,0,0-2.919.409.093.093,0,0,1-.07.024,6.482,6.482,0,0,0-.233-.722,4.1,4.1,0,0,0-1.027-1.564,3.638,3.638,0,0,0-2.1-1.227A2.29,2.29,0,0,0,80.4,5.5a2.388,2.388,0,0,0-.327-.072,5.727,5.727,0,0,0-2.662.265A3.384,3.384,0,0,0,75.733,6.7a.784.784,0,0,0-.093.12A5.814,5.814,0,0,0,73.235,6.1q-.4-.024-.747-.024a8.378,8.378,0,0,0-4.063.89,7.072,7.072,0,0,0-1.051.578,6.517,6.517,0,0,0-.607-.818,10.279,10.279,0,0,0-2.288-2.142A8.425,8.425,0,0,0,62.05,3.478,6.355,6.355,0,0,0,59.6,3.334a6.853,6.853,0,0,0-1.564.457A2.688,2.688,0,0,0,56.609,2.66a4.155,4.155,0,0,0-1.845-.168,3.866,3.866,0,0,0-1.144.337.95.95,0,0,0-.117-.217,4.567,4.567,0,0,0-1.588-1.564A4.614,4.614,0,0,0,49.884.3,8.552,8.552,0,0,0,44.7,1.769a3.834,3.834,0,0,1-.327.217,3.239,3.239,0,0,0-.724-.963A3.8,3.8,0,0,0,41.362.061a5.385,5.385,0,0,0-2.9.337,3.492,3.492,0,0,0-1.985,2.166,1.3,1.3,0,0,0-.07.289,3.569,3.569,0,0,0-1.168-.193,3.778,3.778,0,0,0-2.031.433q-.093-.048-.21-.12a3.879,3.879,0,0,0-1.845-.65,6.086,6.086,0,0,0-3.759.818A6.155,6.155,0,0,0,25.764,4.537Z" fill="#84553e"/>
              </g>
            </g>
          </g>
        </g>
        <g id="Group_57278" data-name="Group 57278" transform="translate(41.2 97.184)">
          <g id="Group_57275" data-name="Group 57275" transform="translate(0 0.655)">
            <g id="Group_57274" data-name="Group 57274" transform="translate(0 0)">
              <path id="Path_47648" data-name="Path 47648" d="M19.756.164h-.048L17.037,1.511q-.217.1-.337.144l-.1.024-.072.048-.361.144-.193.048-.746.289q-1.011.313-1.66.457l-1.011.217h-.12l-.337.048-.1.024-1.4.1L8.855,2.979l-.12-.024-.241-.024h-.12L7.58,2.787l-.241-.024-.12-.024-.048-.024H7.123L6.449,2.57l-.12-.048H6.281L6.232,2.5l-.866-.217-.409-.144L4.74,2.089l-.1-.048-.1-.024L.265.091.048.019Q0-.029,0,.043V.067L.144.26,1.372,1.535l.048.024v.024l.024.024h.024l.168.168.144.1.12.12,1.66,1.155,1.925.914.241.072.048.024.024.024h.048l.217.1.12.024.505.168h.048l.193.072,1.155.241.072.024H8.23l1.348.144h.265l.144.024H10.4l.12-.024,1.757-.168.529-.1.048-.024.072-.024.12-.024.505-.144a.39.39,0,0,0,.241-.072l.241-.072a11.044,11.044,0,0,0,1.781-.77l.409-.217.529-.361.193-.1.168-.12.072-.072.072-.048,1.468-1.2.265-.313.1-.072.072-.1L19.3.813,19.78.236Z" fill="#231915"/>
            </g>
          </g>
          <g id="Group_57277" data-name="Group 57277" transform="translate(17.927 0)">
            <g id="Group_57276" data-name="Group 57276" transform="translate(0 0)">
              <path id="Path_47649" data-name="Path 47649" d="M.12.1l-.1.048L0,.193.1.241h.12L.289.265h.1L.626.313.77.361.89.385l.361.144H1.3l.024.024.048.024L1.4.6l.072.024.241.168.168.217.024.048v.024l.048.072L2,1.3l.048.289v.048l.024.072v.746a.043.043,0,0,0,.048.048l.024-.024.024-.048.072-.1.024-.1.1-.217V1.949l.024-.072.024-.144L2.43,1.66l-.024-.553-.024-.1-.1-.217L2.045.481,1.612.168H1.564L1.468.12H1.42l-.1-.048L.818,0H.578L.529.024H.385L.193.072.168.1Z" transform="translate(0)" fill="#231915"/>
            </g>
          </g>
        </g>
        <g id="Group_57283" data-name="Group 57283" transform="translate(45.43 79.223)">
          <g id="Group_57280" data-name="Group 57280" transform="translate(0.823 1.235)">
            <g id="Group_57279" data-name="Group 57279" transform="translate(0 0)">
              <path id="Path_47650" data-name="Path 47650" d="M3.774.892H3.706L3.637.926H3.568L3.5.961H2.916V1H2.745L2.3,1.132a2.217,2.217,0,0,0-.652.274l-.309.206a1.008,1.008,0,0,0-.274.24L.926,1.99.686,2.3l-.309.515-.206.549-.1.515L0,5.524l.034.1v.1L.069,5.8V5.97L.1,6.142l.069.172.069.343.412.926.583.755.412.412L2.3,9.2l.618.274.926.24h.343a.061.061,0,0,0,.069-.069L3.4,8.749l-.1-.137-.137-.137-.1-.172-.069-.069-.034-.069-.137-.172-.034-.1-.069-.1L2.676,7.72l-.069-.1-.034-.1L2.5,7.446,2.23,6.622l-.1-.48-.034-.1v-.1L2.059,5.8V5.387l-.034-.069.034-1.132.034-.1v-.1l.1-.309v-.1l.1-.274.034-.069L2.4,3.157l.034-.1.1-.137.069-.069.034-.069.274-.24.172-.1.1-.034.069-.034V2.333h.034L3.363,2.3H3.4l.343-.172.1-.069L3.98,1.99l.1-.069.206-.206.069-.034.034-.069L4.6,1.3,4.666,1.1,4.7,1.064V1.029L4.769.823V.686L4.8.515l-.034-.1V.206L4.7.069,4.632,0,4.6.034,4.529.172l-.24.343a.839.839,0,0,1-.377.309Z" fill="#b78871"/>
            </g>
          </g>
          <g id="Group_57282" data-name="Group 57282" transform="translate(0 0)">
            <g id="Group_57281" data-name="Group 57281">
              <path id="Path_47651" data-name="Path 47651" d="M5.524.274,5.387.034,5.318,0,5.284.034,5.25.309V.446L5.215.583v.446L5.181,1.1l-.069.069V1.2l-.206.206-.069.034L4.8,1.475l-.069.034H4.7l-.034.034-.137.069-.1.034-.172.034-.1.034h-.1l-.172.034H3.706l-.034.034H3.294l-.069.034a2.862,2.862,0,0,0-1.132.343l-.48.343L1.2,2.882l-.172.206-.069.137-.1.1v.034H.823q.034,0,0,.034v.034l-.069.1-.069.137-.034.034-.1.206-.069.1-.206.515-.24.926v.137L0,5.833v.892L.034,6.9V7l.034.137v.137l.137.652.309.755.069.137.069.1a3.363,3.363,0,0,0,.652.858l.1.1.1.069.206.172.069.034.034.034.1.069.48.24.1.069.069.034h.069l.823.274h.1l.721.1h.48l.24-.034.069-.069-.034-.034-1.029-.515-.1-.069-.1-.034-.069-.069-.1-.034-.1-.069-.069-.069-.1-.069-.069-.034-.172-.137L3.054,9.71l-.412-.377-.034-.069L2.333,8.99l-.034-.1-.206-.309-.034-.069-.1-.274a3.011,3.011,0,0,1-.206-.686l-.1-.583L1.681,5.8l.034-.1V5.627l.034-.069V5.421l.034-.069.274-.789.034-.034V4.495l.034-.069.069-.1.034-.069.206-.309.48-.515.137-.1h.034l.034-.034L3.4,3.157h.034l.034-.034h.069l.034-.034.377-.1H3.98l.069-.034.24-.069.137-.069.1-.069.137-.034.24-.137L5.353,2.2l.1-.1.069-.137.069-.1.034-.034V1.784l.034-.069A1.287,1.287,0,0,0,5.8,1.132v-.1L5.627.515,5.558.377Z" fill="#84553e"/>
            </g>
          </g>
        </g>
        <g id="Group_57300" data-name="Group 57300" transform="translate(22.613 67.296) rotate(1.949)">
          <g id="Group_57291" data-name="Group 57291" transform="translate(38.138 7.232)">
            <g id="Group_57290" data-name="Group 57290" transform="translate(0 0)">
              <path id="Path_47654" data-name="Path 47654" d="M20.47,0h-.05L16.441,1.927l-.1.025-.375.175L12.838,3h-.125l-.125.025-2.1.15a3.534,3.534,0,0,1-.475-.025H9.785L9.66,3.128h-.1l-.475-.05h-.05l-.025-.025h-.15l-.125-.025L8.659,3H8.634L5.055,2.052l-3.253-1-.15-.025L1.527.976.8.826.3.776.2.751H.05Q0,.7,0,.776l.025.05.05.05L.15.9l.1.05.4.275.2.1.425.275.125.05,3.078,1.8a17.182,17.182,0,0,0,1.752.8l1.476.526.526.125h.025l.025.025h.1l.25.05L8.659,5h.1l.576.1h.15l.125.025.275.025,1.7-.025,1.627-.25,1.527-.5a11.7,11.7,0,0,0,1.777-.851l.1-.05.1-.075.2-.1,2.6-2.1L20.5.075Z" transform="translate(0 0)" fill="#231915"/>
            </g>
          </g>
          <g id="Group_57299" data-name="Group 57299" transform="translate(0 7.375)">
            <g id="Group_57298" data-name="Group 57298" transform="translate(0 0)">
              <path id="Path_47657" data-name="Path 47657" d="M20.745,1.158l-1.6.075L11.136,2.56h-.1l-.25.025h-.075l-.05.025h-.35l-.225.025-2.152-.05-1.126-.15H6.682L2.8,1.308l-.15-.075-.15-.05-1-.45L1.376.658l-.25-.1L.075.032Q0-.043,0,.057v.05L.651.833a7.1,7.1,0,0,0,.8.776l.526.45,1.326.9,1.226.626,2.4.776.776.15.275.025a11.426,11.426,0,0,0,2.177.1l.275-.025h.125l.15-.025h.2l.075-.025.25-.025h.15l2.553-.551.1-.05.25-.05q1.126-.375,1.777-.626l3.128-1.276.125-.075,1.451-.676.025-.05Z" fill="#231915"/>
            </g>
          </g>
        </g>
        <g id="Group_57303" data-name="Group 57303" transform="translate(62.391 56.256) rotate(11.459)">
          <g id="Group_57302" data-name="Group 57302" transform="translate(0 0)">
            <g id="Group_57301" data-name="Group 57301">
              <path id="Path_47658" data-name="Path 47658" d="M12.653.08q-5-.6-12.212,3.3-1.126,1.7.626,2.553l1.927-.851a33.144,33.144,0,0,1,4.9-1.5Q15.856,1.832,21.411,4.86,16.982.606,12.653.08Z" fill="#130605"/>
            </g>
          </g>
        </g>
        <g id="Group_57306" data-name="Group 57306" transform="translate(42.264 62.407) rotate(169.798)">
          <g id="Group_57305" data-name="Group 57305" transform="translate(0 0)">
            <g id="Group_57304" data-name="Group 57304" transform="translate(0 0)">
              <path id="Path_47659" data-name="Path 47659" d="M12.653,5.856q-5,.6-12.212-3.3Q-.685.851,1.066,0L2.993.851a33.144,33.144,0,0,0,4.9,1.5Q15.856,4.1,21.411,1.076,16.982,5.33,12.653,5.856Z" fill="#130605"/>
            </g>
          </g>
        </g>
        <g id="Group_57311" data-name="Group 57311" transform="translate(0 0)">
          <g id="Group_57308" data-name="Group 57308" transform="translate(0.037 0)">
            <g id="Group_57307" data-name="Group 57307" transform="translate(0)">
              <path id="Path_47660" data-name="Path 47660" d="M41.636.065A4.833,4.833,0,0,0,38.7.474,3.871,3.871,0,0,0,36.693,2.88q-.04.133-.084.289a4,4,0,0,0-1.152-.193,3.537,3.537,0,0,0-2.053.505,1.8,1.8,0,0,0-.189-.144,3.911,3.911,0,0,0-1.843-.722,5.572,5.572,0,0,0-3.791.938,5.76,5.76,0,0,0-1.655,1.564,4.581,4.581,0,0,0-.691,1.3h-.209a8.245,8.245,0,0,0-3.77.77,5.119,5.119,0,0,0-2.639,3.056,5.364,5.364,0,0,0-.168.65,6.5,6.5,0,0,0-1.78.794,3.36,3.36,0,0,0-.859.241,5.4,5.4,0,0,0-1.215.722,4.563,4.563,0,0,0-.775.65,5.317,5.317,0,0,0-.5.842,5.181,5.181,0,0,0-.461,1.035,10.742,10.742,0,0,0-.189,1.323,8.57,8.57,0,0,0-.063,1.2A3.831,3.831,0,0,0,13.36,19.8a5.435,5.435,0,0,0-1.466,1.42,5.1,5.1,0,0,0-.859,2.791A5.968,5.968,0,0,0,11.2,25.62a5.013,5.013,0,0,0-.649.168,9.089,9.089,0,0,0-4.608,3.778,13.306,13.306,0,0,0-2.011,6.112,10.426,10.426,0,0,0,.691,5.174,6.871,6.871,0,0,0,.293.626,5.173,5.173,0,0,0-.691.626,4.316,4.316,0,0,0-.524.77A7.815,7.815,0,0,0,1.9,46a6.579,6.579,0,0,0-.251,2.214A5.37,5.37,0,0,0,2.2,50.357a9.582,9.582,0,0,0,.733,1.155q.1.138.189.265l-.126.193A9.631,9.631,0,0,0,1.63,53.1a5.486,5.486,0,0,0-.775.89A4.647,4.647,0,0,0,.311,55.17a6.164,6.164,0,0,0,.1,4.163,4.789,4.789,0,0,0,1.11,1.684,3.888,3.888,0,0,0,1.257.818,5.18,5.18,0,0,0-.775.987l-.419.818a6.44,6.44,0,0,0-.356.89,6.964,6.964,0,0,0-.168.963,6.91,6.91,0,0,0-.063.89,4.174,4.174,0,0,0,.314,1.54,4.681,4.681,0,0,0,1.047,1.612,3.883,3.883,0,0,0,.67.529.637.637,0,0,1-.084.12,1.973,1.973,0,0,0-.419.578,4.335,4.335,0,0,0-.293,1.612,4.2,4.2,0,0,0,.126,1.2,3.539,3.539,0,0,0,.377.722,6.065,6.065,0,0,0,.607.818,2.187,2.187,0,0,0,.607.409,1.714,1.714,0,0,0-.461.794,1.573,1.573,0,0,0,.021.842,1.739,1.739,0,0,0,.377.746,1.893,1.893,0,0,0,1.382.65,1.9,1.9,0,0,0,1.361-.409,1.692,1.692,0,0,0,.67-1.4,1.558,1.558,0,0,0-.251-.914,1.925,1.925,0,0,0-.189-.289,4,4,0,0,0,1.257-.794,3.753,3.753,0,0,0,.628-.818,3.751,3.751,0,0,0,.335-1.468,4.146,4.146,0,0,0,0-.77l.084-.048a4.994,4.994,0,0,0,.984-.866,4.365,4.365,0,0,0,.461-.794,4,4,0,0,0,.482-1.66,5.17,5.17,0,0,0-.189-1.2,4.282,4.282,0,0,0-.356-1.059,2.819,2.819,0,0,0-.524-.674q-.142-.14-.293-.265a3.819,3.819,0,0,0,.545-.313,6.354,6.354,0,0,0,2.178-2.888,9,9,0,0,0,.649-4.043,7.186,7.186,0,0,0,1.906-.024,8.067,8.067,0,0,0,2.074-.626,6.36,6.36,0,0,0,1.885-1.227,5.8,5.8,0,0,0,1.3-2.31q.1-.306.189-.626a2.46,2.46,0,0,0,1.822.578,2,2,0,0,0,1.131-.481,2.106,2.106,0,0,0,.733-1.083,2.5,2.5,0,0,0,.021-1.468,2.842,2.842,0,0,0-.566-1.083,11.981,11.981,0,0,0,3.058-2,6.65,6.65,0,0,0,1.32-1.492,5.44,5.44,0,0,0,.607-1.4l.084.048a6.02,6.02,0,0,0,2.3.65q.287.03.545.048a.389.389,0,0,1,.021.072,5.4,5.4,0,0,0-1.152.361,4.6,4.6,0,0,0-2.3,2.262,4.282,4.282,0,0,0-.4,1.708,3.643,3.643,0,0,0,.356,1.708,3.6,3.6,0,0,0,.566.842l-.272.217a3.01,3.01,0,0,0-.859.987,2.682,2.682,0,0,0-.209.77,3.543,3.543,0,0,0-.063.65,3.931,3.931,0,0,0,.293,1.588,2.1,2.1,0,0,0-.4.193,1.956,1.956,0,0,0-.963,1.2,2.615,2.615,0,0,0-.063,1.011,2.509,2.509,0,0,0,.607,1.323,1.908,1.908,0,0,0,1.131.7,1.8,1.8,0,0,0,1.3-.217,2.03,2.03,0,0,0,.922-1.011,2.429,2.429,0,0,0,.168-.6,1.523,1.523,0,0,0,.021-.313,3.861,3.861,0,0,0,1.487-.072,3.3,3.3,0,0,0,1.382-.65A2.97,2.97,0,0,0,33.7,57.5a3.071,3.071,0,0,0,.545-1.155,3.027,3.027,0,0,0,.063-.818,2.393,2.393,0,0,0-.063-.505,5.213,5.213,0,0,0-.251-.65,2.531,2.531,0,0,0,.335-.024,3.47,3.47,0,0,0,1.822-.818,4.048,4.048,0,0,0,1.005-1.251,2.94,2.94,0,0,0,.251-.505,4.824,4.824,0,0,0,.314-1.107,7.3,7.3,0,0,0,1.717.144,8.655,8.655,0,0,0,3.184-.674,6.557,6.557,0,0,0,2.6-2.069,7.847,7.847,0,0,0,1.257-2.791,3.278,3.278,0,0,0,.8.65h.021a4.215,4.215,0,0,0-.272.987,1.992,1.992,0,0,0-.021.217,1.7,1.7,0,0,0-.461.1,3.455,3.455,0,0,0-.838.553,2.66,2.66,0,0,0-.524.529,2.276,2.276,0,0,0-.251.529,4.3,4.3,0,0,0-.23.674,2.768,2.768,0,0,0-.021.77,2.594,2.594,0,0,0,.1.77,2.3,2.3,0,0,0,.649,1.035q.105.105.209.193-.077.125-.147.265a1.909,1.909,0,0,0-.168,1.035,1.765,1.765,0,0,0,.733,1.2A1.693,1.693,0,0,0,47.333,55a1.764,1.764,0,0,0,1.11-.866,1.679,1.679,0,0,0,.189-1.227,4.08,4.08,0,0,0,.5-.217,2.013,2.013,0,0,0,.67-.553,2.073,2.073,0,0,0,.335-.65,3.912,3.912,0,0,0,.23-.866,4.412,4.412,0,0,0,1.927-.192,4.3,4.3,0,0,0,2.241-1.708,3.212,3.212,0,0,0,.545-1.323,3.063,3.063,0,0,0-.147-1.348,2.291,2.291,0,0,0,.356-.024,4.187,4.187,0,0,0,2.869-1.66,4.1,4.1,0,0,0,.775-1.66,3.772,3.772,0,0,0-.042-1.853,5.971,5.971,0,0,0-.461-1.107,9.777,9.777,0,0,0,1.382-1.684,10.632,10.632,0,0,0,1.424-3.08q.224.206.461.385-.062.21-.126.433a2.739,2.739,0,0,0-.168.746,4.365,4.365,0,0,0,.126,1.131,4.654,4.654,0,0,0,.88,1.781A3.26,3.26,0,0,0,63.9,40.564q.114.042.23.072a4.166,4.166,0,0,0-.44.914,5.856,5.856,0,0,0-.209,1.444l-.042.914a7.494,7.494,0,0,0,.042,1.468,4.432,4.432,0,0,0,1.026,1.9A7.961,7.961,0,0,0,68.362,49.9a6,6,0,0,0,2.262.241q.331-.034.649-.1a3.692,3.692,0,0,0,.251.7l.272.481a2.494,2.494,0,0,0,1.361.914q-.024.052-.042.1a4.4,4.4,0,0,0-.189,1.708,2.917,2.917,0,0,0,.209,1.2,3.168,3.168,0,0,0,.44.7A3.886,3.886,0,0,0,76.3,57.48a3.666,3.666,0,0,0,.963-.1,6.123,6.123,0,0,0,.5,1.612,7.986,7.986,0,0,0,.377.794,2.658,2.658,0,0,0,.754.77,3.669,3.669,0,0,0,2.555.722.559.559,0,0,0,.126-.024,1.8,1.8,0,0,0,.461,1.155,1.35,1.35,0,0,0-.314.553,1.273,1.273,0,0,0,.084.842,1.149,1.149,0,0,0,.524.626,1.044,1.044,0,0,0,.817.193A1.155,1.155,0,0,0,84.091,64a1.351,1.351,0,0,0,.126-1.155.61.61,0,0,0,.1-.048,1.526,1.526,0,0,0,.817-1.035,1.663,1.663,0,0,0-.293-1.588,1.618,1.618,0,0,0-.461-.385,3.581,3.581,0,0,0,1.026-2.214,3.091,3.091,0,0,0-.314-1.66,2.378,2.378,0,0,0,.754-.963,3.771,3.771,0,0,0,.293-1.323,5.06,5.06,0,0,0,.691.265q-.06.308-.1.746a8.018,8.018,0,0,0-.042,2.142,5.786,5.786,0,0,0,.461,1.372,7.024,7.024,0,0,0,3.184,3.417,5.117,5.117,0,0,0,.817.337,2.9,2.9,0,0,0-.209.265,4.2,4.2,0,0,0-.419,3.393,8.177,8.177,0,0,0,.335,1.083,2.475,2.475,0,0,0-1.361.481,2.678,2.678,0,0,0-1.047,2.118A2.6,2.6,0,0,0,89.118,71a2.008,2.008,0,0,0,1.508.794,2.161,2.161,0,0,0,1.592-.6,3.047,3.047,0,0,0,.984-1.588,3.713,3.713,0,0,0,.1-.89,4.379,4.379,0,0,0,1.236.1,4.749,4.749,0,0,0,2.765-.963,3.8,3.8,0,0,0,1.508-2.767,4.019,4.019,0,0,0-.607-2.527q-.066-.116-.147-.241A2.622,2.622,0,0,0,99,61.691a4.355,4.355,0,0,0,.545-.674,4.294,4.294,0,0,0,.335-.674,1.905,1.905,0,0,0,.084-.578,3.224,3.224,0,0,0-.272-1.4,2.748,2.748,0,0,0-.356-.6,6.164,6.164,0,0,0,2.241-2.021,4.316,4.316,0,0,0,.607-2.358,3.893,3.893,0,0,0-.712-2.31,3.7,3.7,0,0,0-.377-.433,5.072,5.072,0,0,0,.628-.361,7.027,7.027,0,0,0,2.325-2.262,4.861,4.861,0,0,0,.733-3.321,4.415,4.415,0,0,0-1.173-2.358,3.716,3.716,0,0,0-.586-.505,8.079,8.079,0,0,0,3-6.088,8.518,8.518,0,0,0-.88-3.778,6.067,6.067,0,0,0-.943-1.444,6.561,6.561,0,0,0-1.634-1.2,8.158,8.158,0,0,0-2.262-.89.438.438,0,0,0,.021-.048,4.8,4.8,0,0,0,.293-1.42,4.333,4.333,0,0,0-.419-2.358,4.179,4.179,0,0,0-1.005-1.083,5.473,5.473,0,0,0-.649-.457q.044-.1.084-.193a2.968,2.968,0,0,0,.189-.6,2.824,2.824,0,0,0,.021-.914,3.786,3.786,0,0,0-.209-.77,3.62,3.62,0,0,0-.44-.963,2.881,2.881,0,0,0-.586-.578,4.053,4.053,0,0,0-2.053-.818,4.476,4.476,0,0,0-.566-.024,7.992,7.992,0,0,0-.775-4.524A7.158,7.158,0,0,0,92.365,11.3,7.253,7.253,0,0,0,87.987,9.69a7.76,7.76,0,0,0-2.932.457.447.447,0,0,1-.1.024,4.665,4.665,0,0,0-.209-.818A4.464,4.464,0,0,0,83.673,7.6,3.409,3.409,0,0,0,81.6,6.225a4.2,4.2,0,0,0-.712-.072L80.594,6.1a5.243,5.243,0,0,0-2.681.289,3.448,3.448,0,0,0-1.7,1.131q-.044.056-.1.12a5.26,5.26,0,0,0-2.409-.77,5.429,5.429,0,0,0-.8-.024,7.792,7.792,0,0,0-4.063.963q-.623.344-1.068.65a5.272,5.272,0,0,0-.586-.914,10.075,10.075,0,0,0-2.3-2.382,7.512,7.512,0,0,0-2.43-1.251,5.976,5.976,0,0,0-2.492-.144,6.357,6.357,0,0,0-1.592.481,2.68,2.68,0,0,0-1.4-1.275,4.089,4.089,0,0,0-3,.168q-.057-.1-.126-.217a5.451,5.451,0,0,0-1.592-1.757A4.6,4.6,0,0,0,50.2.354q-2.241-.313-5.215,1.66-.171.116-.335.217a3.545,3.545,0,0,0-.712-1.083A3.884,3.884,0,0,0,41.636.065Z" fill="#130605"/>
            </g>
          </g>
          <g id="Group_57310" data-name="Group 57310" transform="translate(0 2.562)">
            <g id="Group_57309" data-name="Group 57309" transform="translate(0 0)">
              <path id="Path_47661" data-name="Path 47661" d="M27.451,40.36a3.078,3.078,0,0,0,1.361,1.8,8.744,8.744,0,0,0,3.728.746Q29.44,41.9,28.854,40.5q-.607-1.444,1.215-3.874-3.928-3.654-.607-5.655a3.485,3.485,0,0,0-2.241,1.66q-1.071,1.52,1.257,4.211a5,5,0,0,0-1.068,1.492,2.841,2.841,0,0,0,.042,2.021M23.241,6.382a9.533,9.533,0,0,1,3.309-.361,4.4,4.4,0,0,1,.084-.77A8.384,8.384,0,0,1,27.2,3.471,5.706,5.706,0,0,1,31.325.1,4.01,4.01,0,0,0,28.9.343,5.963,5.963,0,0,0,25.272,3.9a6.341,6.341,0,0,0-4.252.866A4.673,4.673,0,0,0,18.486,8.38,9.543,9.543,0,0,0,15.24,9.655a4.565,4.565,0,0,0-1.864,1.66,6.436,6.436,0,0,0,0,6.016A5.544,5.544,0,0,0,11.721,18.9a3.567,3.567,0,0,0-.649,1.733,5.636,5.636,0,0,0,.168,2.358,8.119,8.119,0,0,0-2.178.89,9.9,9.9,0,0,0-2.639,2.358,9.052,9.052,0,0,0-1.11,1.8,21.142,21.142,0,0,0-.88,2.479,14.051,14.051,0,0,0-.545,4.115,7.2,7.2,0,0,0,1.131,4.331A6.81,6.81,0,0,0,1.96,43.151a5.65,5.65,0,0,0,1.131,6.112q-2.451.963-3,4.211a5.583,5.583,0,0,0,2.618,5.847,7.7,7.7,0,0,0-.838,1.155,6.151,6.151,0,0,0-.8,3.2A4.265,4.265,0,0,0,3.05,67.551a1.2,1.2,0,0,0-.44.6,4.751,4.751,0,0,0-.356,1.083,3.244,3.244,0,0,0,.44,2.358,4.135,4.135,0,0,0,1.32,1.468q-.335.072-.482.674a1.549,1.549,0,0,0,.084,1.179,1.93,1.93,0,0,0,1.257,1.035,1.868,1.868,0,0,0,1.55-.193,2.123,2.123,0,0,1-1.3-.361q-1.131-.746-.209-2.743a3.538,3.538,0,0,1-1.822-2.936A4.02,4.02,0,0,1,4.39,67q-.084.024-.922.289A12.046,12.046,0,0,1,2.4,63.6a3.754,3.754,0,0,1,.733-2.7A4.2,4.2,0,0,1,6.359,59.2a7.9,7.9,0,0,0,3.058-.65,2.709,2.709,0,0,0,1.11-1.3,5.383,5.383,0,0,1-3.561,1.3,5.313,5.313,0,0,1-1.718-.289,7.379,7.379,0,0,1-3.226-2.43q-2.241-3.1,2.786-6.353A7.108,7.108,0,0,1,3.468,45.8q-.335-4.139,4.713-6.4-3.414-5.005-.922-9.89a11.131,11.131,0,0,1,2.367-3.08A5.476,5.476,0,0,1,11.7,25.08a4.534,4.534,0,0,1,2.6-.1Q11.951,22.24,13.627,20a4.582,4.582,0,0,1,1.508-1.3,1.992,1.992,0,0,1,1.173-.385Q14,14.01,17.02,11.58A7.712,7.712,0,0,1,20.5,10.016a5.109,5.109,0,0,1,2.744-3.634M64.754,41.924a6.171,6.171,0,0,1,1.005-4.331,4.09,4.09,0,0,1-2.932-1.42,4.239,4.239,0,0,1-1.068-3.3,3.752,3.752,0,0,0,.272,3.489A3.017,3.017,0,0,0,64.147,38.1a5.13,5.13,0,0,0-.943,2.912,6.016,6.016,0,0,0,.817,3.3q2.178,3.826,8,3.176-6.472-2.142-7.268-5.559M47.328,36.606a21.418,21.418,0,0,1-1.655,6.136A9.533,9.533,0,0,1,44,45.582a5.849,5.849,0,0,1-2.22,1.323,7.514,7.514,0,0,1-2.178.505q-.335.024-2.451-.1a3.188,3.188,0,0,1-1.131,2.166A7.3,7.3,0,0,1,32.9,50.924q1.345,4.513-3.644,5.222a4.238,4.238,0,0,0,4.084-.746,2.933,2.933,0,0,0,1.005-1.684,2.992,2.992,0,0,0-.314-1.9,3.209,3.209,0,0,0,2.241-.866,4.146,4.146,0,0,0,1.466-2.839,7.372,7.372,0,0,0,6.786-1.8q2.65-2.516,2.807-9.7M46.762,7.2q.021-.144-.88-.578A8.434,8.434,0,0,0,43.7,5.9a5.108,5.108,0,0,0-5.341,1.66A13.776,13.776,0,0,0,33.169,7.2q-5.341.626-6.032,5.535a4.475,4.475,0,0,0-3.226,1.011q-3.079,2.382-2.325,9.216Q22.989,13.529,28.5,15q.733-4.789,4.755-5.751A7.107,7.107,0,0,1,36.436,9.2,5.14,5.14,0,0,1,38.8,10.257a5.008,5.008,0,0,1,3.414-3.224,7.043,7.043,0,0,1,4.545.168M63.141,17.572A8.087,8.087,0,0,0,64.88,15.5,4.838,4.838,0,0,0,64.733,9.9q.946,3.348-3.435,7.941,3.789,6.685-.9,9.529a17.8,17.8,0,0,1-3.016,10.612q3.98-2.166,4.629-9.6v-.289a1,1,0,0,0,.189-.168q4.692-4.765.943-10.347m24.988,24.3q-3.121-.337-3.959-1.636-.984-1.516.042-5.679a8.3,8.3,0,0,0-1.529,5.1,4.034,4.034,0,0,0,3,3.585,8.394,8.394,0,0,0-1.215,4.837,3.473,3.473,0,0,0,2.388,3.224,6.363,6.363,0,0,0,.984,5.486Q89.574,59.37,92,59.249A5.707,5.707,0,0,1,89.2,56.675q-1.466-2.647.272-5.968-2.7-.7-3.226-2.43-.691-2.19,1.885-6.4m3.812-31.619q2.2,2.118,1.717,6.112,2.89.048,3.6,1.949a3.078,3.078,0,0,1-.147,2.647l.545.241a4.006,4.006,0,0,1,1.089.866,3.8,3.8,0,0,1,.44,4.187,15.69,15.69,0,0,1,3.016,2.527,6.319,6.319,0,0,1,1.655,4.524A7.483,7.483,0,0,1,102.5,37.3l-1.8,2.021a6.35,6.35,0,0,0,.733.746,5.367,5.367,0,0,1,1.068,1.853q.9,3.008-3.435,5.751a3.818,3.818,0,0,1,1.487,1.54,3.062,3.062,0,0,1,.691,2.118A5.153,5.153,0,0,1,99.628,54.1l-1.236.842A3.157,3.157,0,0,1,98.413,58,17.782,17.782,0,0,0,97.03,59.61a3.726,3.726,0,0,1,.314,3.249Q96.507,65,92.737,65.53a3.193,3.193,0,0,1-.775,2.238,4.068,4.068,0,0,1-2.555.987,2.06,2.06,0,0,0,2.66.072,2.944,2.944,0,0,0,1.3-2.551q3.456.361,4.88-1.973a4.063,4.063,0,0,0-.084-4.5,3.267,3.267,0,0,0,1.8-2.238,3.007,3.007,0,0,0-.545-2.334,6.091,6.091,0,0,0,2.325-2.166,12.552,12.552,0,0,0,.419-1.275,4.212,4.212,0,0,0-.922-3.73q3.33-1.564,3.665-4.548a4.367,4.367,0,0,0-1.822-4.259,7.062,7.062,0,0,0,3-5.077,8.9,8.9,0,0,0-.482-3.946,6.208,6.208,0,0,0-1.822-2.623,8.51,8.51,0,0,0-3.414-1.733q.335-1.468.356-1.684a3.37,3.37,0,0,0-.23-1.684,3.854,3.854,0,0,0-.859-1.275,2.58,2.58,0,0,0-.984-.722,2.074,2.074,0,0,0,.335-1.179,4.485,4.485,0,0,0-.189-1.251,3.342,3.342,0,0,0-1.676-1.949,4.119,4.119,0,0,0-2.074-.505,5.192,5.192,0,0,0-.063-2,12.47,12.47,0,0,0-.524-2.166,6.472,6.472,0,0,0-3.2-3.513,6.85,6.85,0,0,0-6.242-.313q-.482-3.778-4.419-4.115a6,6,0,0,0-2.89.409,2.869,2.869,0,0,0-1.718,1.54l.984-.433A5.95,5.95,0,0,1,79.227,4.6q3.435.072,4.252,4.74Q89.26,7.658,91.941,10.257Z" fill="#42372d"/>
            </g>
          </g>
        </g>
        <g id="Group_57313" data-name="Group 57313" transform="translate(52.173 107.05)">
          <g id="Group_57312" data-name="Group 57312" transform="translate(0 0)">
            <path id="Path_47662" data-name="Path 47662" d="M2.888,2.166v.722h.722m-.722,0v.722m2.888-.722L2.888,5.775,0,2.888,2.888,0Zm-3.609,0h.722" fill="none" stroke="rgba(0,0,0,0)" stroke-linecap="round" stroke-linejoin="round" stroke-width="0.075"/>
          </g>
        </g>
      </g>
      <g id="Group_57319" data-name="Group 57319" transform="translate(31.924 149.589) rotate(-92.46)">
        <g id="Group_57316" data-name="Group 57316" transform="translate(0 0)">
          <g id="Group_57315" data-name="Group 57315">
            <path id="Path_47663" data-name="Path 47663" d="M2.19,40.615A55.973,55.973,0,0,0,6.978,55a56.067,56.067,0,0,1-2.863-9.889Q.89,30.582,0,24.976a128.07,128.07,0,0,0,2.19,15.64M13.835,0a26.84,26.84,0,0,1,3.874,6.833,56.576,56.576,0,0,1,2.671,11.14q.048.313.289,2.454-.048-3.9-.241-5.8Q19.225,3.176,13.835,0Z" transform="translate(0.378 1.088)" fill="#84553e"/>
            <path id="Path_47664" data-name="Path 47664" d="M8.992,0Q4.132.173,1.846,6-.657,12.3.234,24.451q.072.842.144,1.612.89,5.606,4.114,20.139a56.067,56.067,0,0,0,2.863,9.889l.241.481a3.184,3.184,0,0,0,2.55,1.492,7.707,7.707,0,0,0,1.347-.024,4.824,4.824,0,0,0,3.97-2.166q2.695-4.62,4.4-17.276a119.085,119.085,0,0,0,1.179-17.083q-.241-2.141-.289-2.454a56.577,56.577,0,0,0-2.671-11.14,26.841,26.841,0,0,0-3.874-6.833,9.766,9.766,0,0,0-2-.7A12.2,12.2,0,0,0,8.992,0Z" fill="#a56b4e"/>
          </g>
        </g>
        <g id="Group_57318" data-name="Group 57318" transform="translate(9.208 7.858)">
          <g id="Group_57317" data-name="Group 57317" transform="translate(0 0)">
            <path id="Path_47665" data-name="Path 47665" d="M2.887,2.176V2.9h.722m-.722,0v.725M5.775,2.9,2.887,5.8,0,2.9,2.887,0Zm-3.609,0h.722" fill="none" stroke="rgba(0,0,0,0)" stroke-linecap="round" stroke-linejoin="round" stroke-width="0.075"/>
          </g>
        </g>
      </g>
      <g id="Group_57324" data-name="Group 57324" transform="translate(83.42 141.252) rotate(-90.891)">
        <g id="Group_57321" data-name="Group 57321" transform="matrix(1, 0.01, -0.01, 1, 0.323, 0)">
          <g id="Group_57320" data-name="Group 57320" transform="translate(0 0)">
            <path id="Path_47666" data-name="Path 47666" d="M0,14.041a3.685,3.685,0,0,0,1.274,0Q6.874,4.089,6.628,0A85.524,85.524,0,0,1,0,14.041m6.227.882a2.866,2.866,0,0,0,1.264,1.185L11.067,1.645,6.227,14.924M15.321,4.135a20.308,20.308,0,0,1-.719,2.2,36.073,36.073,0,0,1-2.178,4.714q-.609,1.12-1.315,2.233-.093.158-.2.312a2.423,2.423,0,0,0,.236-.064q.2-.065.432-.156l.144-.055.678-1.048.658-1.176q.037-.064.072-.129.475-.819.894-1.654.463-.928.709-1.406a8.172,8.172,0,0,0,.524-1.342A5.86,5.86,0,0,0,15.321,4.135Z" transform="translate(3.162 15.838)" fill="#84553e"/>
            <path id="Path_47667" data-name="Path 47667" d="M18.606,16.205a34.688,34.688,0,0,0-1.326-4.7,21.785,21.785,0,0,0-5.2-8.123Q8.208-.693,4.611.142-4.575,2.32,4.539,16.977a95.022,95.022,0,0,0-2.6,9.382q-.658,3.115,1.223,3.52A85.523,85.523,0,0,0,9.79,15.838q.247,4.089-5.354,14.041A3.056,3.056,0,0,0,6.06,32.893q1.706.974,3.329-2.132l4.84-13.279L10.653,31.947q1.675.581,3.381-2.435l.041-.074v-.009q.1-.155.2-.312.706-1.113,1.315-2.233a36.073,36.073,0,0,0,2.178-4.714,20.308,20.308,0,0,0,.719-2.2,5.86,5.86,0,0,1-.062,2.426,8.172,8.172,0,0,1-.524,1.342q-.246.478-.709,1.406-.419.835-.894,1.654-.035.065-.072.129l-.658,1.176-.678,1.048-.031.046a5.413,5.413,0,0,0,.6-.432,4.183,4.183,0,0,0,.678-.607q.355-.31.658-.606a8.339,8.339,0,0,0,1.48-1.755q.7-1.195,1.284-2.408A4.533,4.533,0,0,0,20,21.544a5.951,5.951,0,0,0-.432-2.38q-.274-.67-.956-2.895A.3.3,0,0,0,18.606,16.205Z" fill="#a56b4e"/>
          </g>
        </g>
        <g id="Group_57323" data-name="Group 57323" transform="matrix(1, 0.01, -0.01, 1, 4.655, 2.91)">
          <g id="Group_57322" data-name="Group 57322" transform="translate(0 0)">
            <path id="Path_47668" data-name="Path 47668" d="M1.233.827V1.1h.308m-.308,0v.276M2.466,1.1l-1.233,1.1L0,1.1,1.233,0ZM.925,1.1h.308" transform="translate(0 0)" fill="none" stroke="rgba(0,0,0,0)" stroke-linecap="round" stroke-linejoin="round" stroke-width="0.03"/>
          </g>
        </g>
      </g>
      <g id="Group_57329" data-name="Group 57329" transform="matrix(-0.192, -0.981, 0.981, -0.192, 120.073, 143.492)">
        <g id="Group_57326" data-name="Group 57326" transform="matrix(1, -0.01, 0.01, 1, 0, 0.197)">
          <g id="Group_57325" data-name="Group 57325" transform="translate(0 0)">
            <path id="Path_47669" data-name="Path 47669" d="M2.993,5l-.078.049.078-.058V5m7.848,13.036a14.048,14.048,0,0,0-.078-2.017A14.243,14.243,0,0,0,8.662,9.9q-.22-.365-.467-.721-.2-.283-.411-.555-.195-.289-.4-.546l-.011-.01A13.049,13.049,0,0,0,4.182,5.45a3.993,3.993,0,0,0-1.156-.468l-.033.01-.056-.068a3.019,3.019,0,0,1,2.1-2.445q.1-.029.211-.058a9.632,9.632,0,0,1,2.679,1.4q.378.3.767.6a11.355,11.355,0,0,1,2.412,2.962q1.011,1.743,2.29,4.277a19.9,19.9,0,0,1,1.734,4.482q.444,1.939.545,2.367a5.466,5.466,0,0,0,.089-2.894v.107a16.264,16.264,0,0,0-2.5-7.94A18.188,18.188,0,0,0,9.1,3.043a1.622,1.622,0,0,0-.156-.117L7.517,2.049a1.637,1.637,0,0,0-1.123-.234l-.2.068L4.838,2.42l.089-.692Q5.247.078,6.261.033a6.791,6.791,0,0,1,1.423,0A18.157,18.157,0,0,1,13.1,4.787a17.449,17.449,0,0,1,3.746,6.537,27.293,27.293,0,0,1,.8,3.274,18.321,18.321,0,0,0-1.89-7.278,10.064,10.064,0,0,1-1.49-3.663q-.025-1.031,1.945-1.471l.078-.029a22.456,22.456,0,0,1,2.668,6.761,25.58,25.58,0,0,1,.489,7.58q-.111,1.276-.278,2.562a38.816,38.816,0,0,1-2.357,7.687q-1.8,7.59-9.593,9.5a3.507,3.507,0,0,1-2.579-.37q-7.259-3.985-3.157-11.009a33.137,33.137,0,0,0,1.49-3.322,13.012,13.012,0,0,0,.978-4.355,6.317,6.317,0,0,0-.356-2.056l-1.056-2.2q-.063-.211-.122-.4l-.278-.857A10.065,10.065,0,0,1,.959,8.82a1.875,1.875,0,0,1,.056-.955.1.1,0,0,0,0-.039,2.64,2.64,0,0,1,.222-.507,1.726,1.726,0,0,1,.622-.731,1.3,1.3,0,0,1,.211-.117A8.336,8.336,0,0,1,4.238,7.69a11.468,11.468,0,0,1,2.09,1.89,12.251,12.251,0,0,1,1.7,2.338,15.909,15.909,0,0,1,1.1,2.28q.378.993.589,1.7.308.978.556,2.075Q10.768,18.52,10.841,18.037Z" transform="translate(1.025 0)" fill="#a56b4e"/>
            <path id="Path_47670" data-name="Path 47670" d="M1.061,14.929,0,14.12A3.31,3.31,0,0,1,.183,12.8a3.1,3.1,0,0,1,2.935-1.647q.222,0,.445-.01l1.056,2.2a6.317,6.317,0,0,1,.356,2.056A13.012,13.012,0,0,1,4,19.761a6.317,6.317,0,0,0-.522-1.822,7.9,7.9,0,0,0-.945-1.53,9.991,9.991,0,0,0-1.467-1.481m17.608-2.114a27.294,27.294,0,0,0-.8-3.274A17.449,17.449,0,0,0,14.122,3Q14.113.808,15.5.636T17.234.4q-1.97.441-1.945,1.471a10.064,10.064,0,0,0,1.49,3.663,18.321,18.321,0,0,1,1.89,7.278M16.7,16.731q-.1-.429-.545-2.367a19.9,19.9,0,0,0-1.734-4.482Q13.143,7.348,12.132,5.6A11.355,11.355,0,0,0,9.72,2.643q-.389-.3-.767-.6A9.632,9.632,0,0,0,6.274.636H5.863L7.219.1l.2-.068A1.637,1.637,0,0,1,8.542.266l1.423.877a1.622,1.622,0,0,1,.156.117A18.189,18.189,0,0,1,14.289,6a16.264,16.264,0,0,1,2.5,7.94v-.107a5.466,5.466,0,0,1-.089,2.894m-4.913-2.494a14.048,14.048,0,0,1,.078,2.017q-.072.483-.567-.068-.248-1.1-.556-2.075-.211-.7-.589-1.7a15.909,15.909,0,0,0-1.1-2.28A12.251,12.251,0,0,0,7.352,7.8a11.468,11.468,0,0,0-2.09-1.89A8.336,8.336,0,0,0,3.095,4.689a1.3,1.3,0,0,0-.211.117,1.726,1.726,0,0,0-.622.731,2.64,2.64,0,0,0-.222.507,4.692,4.692,0,0,1,.156-.516A6.627,6.627,0,0,1,3.851,3.2a.289.289,0,0,1,.111-.058l.056.068-.078.058.078-.049q.056.088.089.058a.715.715,0,0,1,.167,0L4.051,3.2a3.993,3.993,0,0,1,1.156.468A13.049,13.049,0,0,1,8.4,6.287l.011.01q.206.256.4.546.211.273.411.555.247.356.467.721A14.243,14.243,0,0,1,11.788,14.237Z" transform="translate(0 1.783)" fill="#84553e"/>
          </g>
        </g>
        <g id="Group_57328" data-name="Group 57328" transform="matrix(1, -0.01, 0.01, 1, 5.632, 31.085)">
          <g id="Group_57327" data-name="Group 57327" transform="translate(0 0)">
            <path id="Path_47671" data-name="Path 47671" d="M1.334,1.461V1.169h.333m-.333,0V.877m1.334.292L1.334,0,0,1.169,1.334,2.338ZM1,1.169h.333" transform="translate(0 0)" fill="none" stroke="rgba(0,0,0,0)" stroke-linecap="round" stroke-linejoin="round" stroke-width="0.033"/>
          </g>
        </g>
      </g>
    </g>
  </g>
</svg>
