<svg xmlns="http://www.w3.org/2000/svg" xmlns:xlink="http://www.w3.org/1999/xlink" width="375" height="270" viewBox="0 0 375 270">
  <defs>
    <clipPath id="clip-path">
      <rect id="Rectangle_3840" data-name="Rectangle 3840" width="375" height="270" transform="translate(7297 -12545.02)" fill="#fff" stroke="#707070" stroke-width="1" opacity="0.7"/>
    </clipPath>
  </defs>
  <g id="Mask_Group_16307" data-name="Mask Group 16307" transform="translate(-7297 12545.02)" clip-path="url(#clip-path)">
    <g id="baby_GIRL_laying_ds" data-name="baby GIRL laying ds" transform="translate(7248.104 -12610.52)">
      <g id="Group_18747" transform="translate(80.104 215.85)">
        <g id="Group_69283" data-name="Group 69283" transform="translate(164.585 68.551)">
          <g id="Group_69282" data-name="Group 69282" transform="translate(0)">
            <g id="Group_69281" data-name="Group 69281">
              <path id="Path_54489" data-name="Path 54489" d="M934.529,409.036q3.056-.982-.928-11.734-5.185-12.389-6.058-15.992a19.171,19.171,0,0,0-1.31,3.22,10.71,10.71,0,0,1-1.474,3.22,69.259,69.259,0,0,0-7.641,7.7,11.816,11.816,0,0,0-2.62,9.988q.6.164,3.875,1.2,3.166,1.037,3.875,1.2a45.152,45.152,0,0,0,6.386.982,3.959,3.959,0,0,0,2.838-.982q.273-.218,1.419.6Q934.092,409.309,934.529,409.036Z" transform="translate(-914.251 -381.31)" fill="#ee7a09"/>
            </g>
          </g>
        </g>
        <g id="Group_69286" data-name="Group 69286" transform="translate(179.099 39.733)">
          <g id="Group_69285" data-name="Group 69285" transform="translate(0 0)">
            <g id="Group_69284" data-name="Group 69284">
              <path id="Path_54490" data-name="Path 54490" d="M1018.541,226.745a71.764,71.764,0,0,1,8.569-5.731l-10.643,2.62a38.108,38.108,0,0,1-7.914,1.092,12.757,12.757,0,0,1-7.586-2.183q-5.676,18.393-5.84,26.907a40.943,40.943,0,0,0,1.692,15.5,75.224,75.224,0,0,0,2.565,9.988q.819,3.111,2.893.982,1.037-1.146,2.51-3.056a57.089,57.089,0,0,1-2.128-17.356,38.566,38.566,0,0,1,3.93-15.719Q1009.481,233.731,1018.541,226.745Z" transform="translate(-994.984 -221.014)" fill="#83523b"/>
            </g>
          </g>
        </g>
        <g id="Group_69289" data-name="Group 69289" transform="translate(186.746 36.731)">
          <g id="Group_69288" data-name="Group 69288" transform="translate(0)">
            <g id="Group_69287" data-name="Group 69287">
              <path id="Path_54491" data-name="Path 54491" d="M1069.039,218.18q1.746-13.863,1.419-13.863a1.454,1.454,0,0,0-.655.164q-3.766,1.583-7.8,2.838a71.729,71.729,0,0,0-8.569,5.731q-9.06,6.986-11.953,13.044a38.572,38.572,0,0,0-3.93,15.719,57.073,57.073,0,0,0,2.129,17.356,7.066,7.066,0,0,1,2.783-.328,50.388,50.388,0,0,1,11.3,3q.437.164,4.8-7.423a66.325,66.325,0,0,0,6.986-15.664Q1067.128,233.134,1069.039,218.18Z" transform="translate(-1037.519 -204.317)" fill="#68412f"/>
            </g>
          </g>
        </g>
        <g id="Layer_1" transform="translate(183.749 66.895)">
          <g id="Layer_3">
            <g id="Group_69291" data-name="Group 69291">
              <g id="Group_69290" data-name="Group 69290">
                <path id="Path_54492" data-name="Path 54492" d="M0,.873.928.928.982,0M.873,1.856.928.928l.928.055" fill="none" stroke="#000" stroke-linecap="round" stroke-linejoin="round" stroke-width="0.304"/>
              </g>
            </g>
          </g>
        </g>
        <g id="Group_69294" data-name="Group 69294" transform="translate(80.723 10.956)">
          <g id="Group_69293" data-name="Group 69293">
            <g id="Group_69292" data-name="Group 69292">
              <path id="Path_54493" data-name="Path 54493" d="M749.636,345.749q.162-.054-.656-.71-4.369-4.692-12.773-9.115-9.762-4.692-14.346-7.146-21.286-9.663-29.636-10.858-7.371-1.312-12.288-2.076-9.223-1.42-12.333-.926a21.11,21.11,0,0,0-6.112,2.292q-4.477,2.4-5.9,3.11-5.618,3.164-12.171,12.827-6.768,11.074-9.771,15.227a16.336,16.336,0,0,0-3.272,8.234,37.388,37.388,0,0,0,.818,8.953q.926,5.735-1.2,16.98-2.184,11.515-2.076,12.656,1.088,1.636,10.7,3.5,11.137,2.184,17.681-.44a20.688,20.688,0,0,1,9.987-.98q5.187.548,5.843,1.636.27.494-3.82-12.989l1.312-.378q6.059-10.319,11.892-14.634,3.551-2.616,7.919-.108a21.526,21.526,0,0,1,6.93,7.263,24.844,24.844,0,0,1,3.712,8.782q.71,4.369-1.969,4.692-1.034.171-1.034.494a68.126,68.126,0,0,1,7.587,4.153q5.241,3.11,7.038,2.014.98-.485,3.82-6.22,2.894-5.9,2.841-7.694,0-.386,1.636-1.034,1.744-.773,1.744-1.1.171-1.582,1.1-1.8,1.034-.225,1.42-1.753,2.508-5.348,2.616-5.618a26.018,26.018,0,0,0,.656-3.326,12.059,12.059,0,0,1,.872-3.227,5.089,5.089,0,0,0-.378-2.175,6.624,6.624,0,0,1-.44-2.13,44.994,44.994,0,0,1,5.951-7.533,75.347,75.347,0,0,1,6.823-5.294l.656-.494.764-.378A46.9,46.9,0,0,1,749.636,345.749Z" transform="translate(-627.922 -314.79)" fill="#ee7a09"/>
            </g>
          </g>
        </g>
        <g id="Group_69297" data-name="Group 69297" transform="translate(159.866 21.286)">
          <g id="Group_69296" data-name="Group 69296" transform="translate(0 0)">
            <g id="Group_69295" data-name="Group 69295">
              <path id="Path_54494" data-name="Path 54494" d="M923.371,136.848l-.164-.982L910,128.17a121.885,121.885,0,0,0-17.956-8.46q-3.329-1.092-4.039-1.31a26.945,26.945,0,0,1,2.674,1.364,92.13,92.13,0,0,1,14.573,6.659q2.456,1.364,13.754,8.3.655,0-.382.546a12.2,12.2,0,0,1-4.967.819,33.033,33.033,0,0,0,4.748.109q3.711-.109,4.748.491Z" transform="translate(-888.004 -118.4)" fill="#f49a42"/>
            </g>
          </g>
        </g>
        <g id="Group_69300" data-name="Group 69300" transform="translate(0.208 47.335)">
          <g id="Group_69299" data-name="Group 69299" transform="translate(0 0)">
            <g id="Group_69298" data-name="Group 69298">
              <path id="Path_54495" data-name="Path 54495" d="M200.984,520.788q-1.861,2.292-5.411,7.146a76.586,76.586,0,0,0-5.07,6.993q-2.4,3.982-6.5,12.548a40.1,40.1,0,0,0-3.272,7.973,15.747,15.747,0,0,0-.162,8.512,4.184,4.184,0,0,0,2.724,3.056q1.143.359,3.515,1.061.274-.162.431.162l1.735.414a16.535,16.535,0,0,0,3.982.656,58.782,58.782,0,0,0,6.112.108q.162,0,.6-.656.378-.6.548-.485a3.984,3.984,0,0,0,2.508.593q1.249-.054,1.582-.593l.27-3.766.225.593v.054q2.831,5.735,7.128,7.56a63.507,63.507,0,0,0,8.126,2.876,25.715,25.715,0,0,1,5.654,2.1,13.351,13.351,0,0,0,4.252,1.492,45.032,45.032,0,0,0,17.519.494,16.7,16.7,0,0,0,8.243-4.045,19.587,19.587,0,0,0,5.456-7.425l.324-.764q-.162-1.141,1.861-8.836,1.96-7.479,1.636-8.737-1.151,0-9.825,7.973-8.458,7.8-9.717,7.425l-2.454.539q-3.389.44-8.512-2.238-7.425-3.82-8.351-4.144a17.863,17.863,0,0,1-3.6-.872q-.71-.332-.872-3.164a17.7,17.7,0,0,1,2.238-.225,9,9,0,0,0,2.238-.27q-4.7-6.382-5.465-8.458-1.69-4.476,1.861-8.189.27-.324-.872-2.841-1.151-2.454-.764-2.67a33.531,33.531,0,0,0-5.079-10.7,12.027,12.027,0,0,0-6-4.53Q204.858,515.988,200.984,520.788Z" transform="translate(-180.06 -517.147)" fill="#83523b"/>
            </g>
          </g>
        </g>
        <g id="Group_69303" data-name="Group 69303" transform="translate(39.684 86.998)">
          <g id="Group_69302" data-name="Group 69302">
            <g id="Group_69301" data-name="Group 69301">
              <path id="Path_54496" data-name="Path 54496" d="M219.5,483.924l.546.873a22.258,22.258,0,0,0,9.224,7.859,35.678,35.678,0,0,0,14.19,3.275,33.011,33.011,0,0,0,18.83-5.785Z" transform="translate(-219.496 -483.924)" fill="#68412f"/>
            </g>
          </g>
        </g>
        <g id="Group_69306" data-name="Group 69306" transform="translate(47.871 86.07)">
          <g id="Group_69305" data-name="Group 69305" transform="translate(0)">
            <g id="Group_69304" data-name="Group 69304">
              <path id="Path_54497" data-name="Path 54497" d="M265.035,478.763q1.419.819,6.386,2.893a30.888,30.888,0,0,1,6.058,3.111,16.565,16.565,0,0,0,3.875,2.893l1.419.491q.6-.164,5.458-1.692a44.752,44.752,0,0,1,5.567-1.419,16.526,16.526,0,0,0,6.768-2.347,1.173,1.173,0,0,0-.655-1.146v-.055Q298.11,480.51,265.035,478.763Z" transform="translate(-265.035 -478.763)" fill="#f8c8bc"/>
            </g>
          </g>
        </g>
        <g id="Group_69309" data-name="Group 69309" transform="translate(36.418)">
          <g id="Group_69308" data-name="Group 69308">
            <g id="Group_69307" data-name="Group 69307">
              <path id="Path_54498" data-name="Path 54498" d="M494,268.619a10.048,10.048,0,0,1-3.317-1.888q-2.454-1.915-3.326-2.454a39.072,39.072,0,0,0-12.989-5.456H474.2l-.333-.063-.324-.108-.387-.054h-.108q-8.836-1.744-14.733-.872h-2.787q-1.906-.27-5.9-1.258-3.874-.926-5.618-1.2a116,116,0,0,0-16.486-1.42,46.193,46.193,0,0,0-18.5,3.5A41.061,41.061,0,0,0,394.077,268.7a56.442,56.442,0,0,0-9.438,15.659,42.858,42.858,0,0,0-3.11,17.906l1.636,31.982a14.4,14.4,0,0,0,1.249,6.059q1.537,2.778,6.337,4.962a45.637,45.637,0,0,0,18.715,4.863,66.987,66.987,0,0,0,7.1-.656,35.544,35.544,0,0,0,6.876-1.528,54.746,54.746,0,0,1,5.447-2.04,10.22,10.22,0,0,0,3.326-1.951,11.033,11.033,0,0,0,3.236-4.252,8.995,8.995,0,0,0,.593-5.079,25.979,25.979,0,0,0-1.852-13.969,46.231,46.231,0,0,1-1.915-11.407q-.054-2.077.117-4.8a36.243,36.243,0,0,1,.485-5.9,13.672,13.672,0,0,1,2.4-5.4,44.216,44.216,0,0,1,17.8-20.252,31.5,31.5,0,0,1,14.193-6.166,52.639,52.639,0,0,1,13.42-.162Q485.749,267.053,494,268.619Z" transform="translate(-381.48 -253.85)" fill="#2b66ad"/>
            </g>
          </g>
        </g>
        <g id="Group_69312" data-name="Group 69312" transform="translate(136.67 95.513)">
          <g id="Group_69311" data-name="Group 69311">
            <g id="Group_69310" data-name="Group 69310">
              <path id="Path_54499" data-name="Path 54499" d="M763.78,532.048a24.607,24.607,0,0,0-4.8-.764q3.493,1.856,2.729,3.329.109,1.31,2.183,1.091,2.074-.164,2.4-1.255Q766.728,532.922,763.78,532.048Z" transform="translate(-758.978 -531.284)" fill="#bf6017"/>
            </g>
          </g>
        </g>
        <g id="Group_69315" data-name="Group 69315" transform="translate(83.559 83.938)">
          <g id="Group_69314" data-name="Group 69314" transform="translate(0)">
            <g id="Group_69313" data-name="Group 69313">
              <path id="Path_54500" data-name="Path 54500" d="M671.817,724.516l-3.991-3.766,3.281,4.7q3.164,3.434,6.22,3.218a54.171,54.171,0,0,1-5.51-4.153m12.225,7.425a31.507,31.507,0,0,0,7.856,1.2q-4.638-.818-7.856-1.2m7.856,1.2,1.312.216q9.115,1.582,14.679.494-4.09-.935-13.591-.71h-2.4M649,730.521q-2.787-.926-3.551-2.121l-.018-.027h-.584a11.307,11.307,0,0,1-1.151,1.546q6.445,3.443,17.25,2.625,2.948-.216,8.953-.872a44.09,44.09,0,0,1,8.737-.108,38.445,38.445,0,0,1,5.4.377,28.77,28.77,0,0,1-2.894-1.088,34.285,34.285,0,0,1-3.658-2.076q-6,1.582-14.571-1.969l-8.458-4.53,6.661,4.315q6.931,4.207,8.566,3.928Q656.752,733.254,649,730.521Z" transform="translate(-643.7 -720.75)" fill="#be6228"/>
            </g>
          </g>
        </g>
        <g id="Group_69318" data-name="Group 69318" transform="translate(117.623 91.201)">
          <g id="Group_69317" data-name="Group 69317" transform="translate(0)">
            <g id="Group_69316" data-name="Group 69316">
              <path id="Path_54501" data-name="Path 54501" d="M654.17,507.573l-.6-.273-.546.109Z" transform="translate(-653.024 -507.301)" fill="#bf6017"/>
            </g>
          </g>
        </g>
        <g id="Group_69321" data-name="Group 69321" transform="translate(158.338 77.611)">
          <g id="Group_69320" data-name="Group 69320">
            <g id="Group_69319" data-name="Group 69319">
              <path id="Path_54502" data-name="Path 54502" d="M880.267,433.4l-.164-.655-.6-1.037v.327Z" transform="translate(-879.503 -431.706)" fill="#d59d87"/>
            </g>
          </g>
        </g>
        <g id="Group_69324" data-name="Group 69324" transform="translate(158.338 77.611)">
          <g id="Group_69323" data-name="Group 69323">
            <g id="Group_69322" data-name="Group 69322">
              <path id="Path_54503" data-name="Path 54503" d="M880.267,433.4l-.164-.655-.6-1.037v.327Z" transform="translate(-879.503 -431.706)" fill="#d59d87"/>
            </g>
          </g>
        </g>
        <g id="Group_69327" data-name="Group 69327" transform="translate(177.222 70.406)">
          <g id="Group_69326" data-name="Group 69326" transform="translate(0)">
            <g id="Group_69325" data-name="Group 69325">
              <path id="Path_54504" data-name="Path 54504" d="M990.6,415.483a1.827,1.827,0,0,1,1.255-.218,68.007,68.007,0,0,1-4.039-9.988q-2.775-8.853-1.419-13.645-.158.417-.382.928a24.711,24.711,0,0,1-1.474,2.947,25.421,25.421,0,0,0,1.31,8.3Q986.238,405,990.6,415.483Z" transform="translate(-984.546 -391.632)" fill="#bf6017"/>
            </g>
          </g>
        </g>
        <g id="Group_69330" data-name="Group 69330" transform="translate(153.699 41.043)">
          <g id="Group_69329" data-name="Group 69329">
            <g id="Group_69328" data-name="Group 69328">
              <path id="Path_54505" data-name="Path 54505" d="M881.206,256.354q2.565-9.551-.6-16.7-3.712-8.187-14.409-10.807a21.98,21.98,0,0,0-3.438-.546l1.419.273q11.68,2.838,15.009,12.28,2.838,8.132-1.037,18.557-.819,2.238-5.24,6.931-4.366,4.585-6.6,5.785L853.7,276.384a10.149,10.149,0,0,0,2.838.71q2.893-.382,9.824-4.639,3.439-2.129,6.331-4.2A20.21,20.21,0,0,0,881.206,256.354Z" transform="translate(-853.698 -228.3)" fill="#bf6017"/>
            </g>
          </g>
        </g>
        <g id="Group_69333" data-name="Group 69333" transform="translate(123.462 42.517)">
          <g id="Group_69332" data-name="Group 69332" transform="translate(0 0)">
            <g id="Group_69331" data-name="Group 69331">
              <path id="Path_54506" data-name="Path 54506" d="M714.6,236.934q-9.224,2.456-18.011,10.1-9.551,8.3-11.079,16.756a14.184,14.184,0,0,0,2.183-3.657,9.356,9.356,0,0,1,2.347-3.384,62.35,62.35,0,0,1,6.058-7.041q5.949-5.949,21.177-13.208A12.411,12.411,0,0,0,714.6,236.934Z" transform="translate(-685.508 -236.497)" fill="#f49a42"/>
            </g>
          </g>
        </g>
        <g id="Group_69336" data-name="Group 69336" transform="translate(180.006 41.043)">
          <g id="Group_69335" data-name="Group 69335" transform="translate(0)">
            <g id="Group_69334" data-name="Group 69334">
              <path id="Path_54507" data-name="Path 54507" d="M1021.806,228.41q.218-.109-.109-.109-7.641.764-15.391,7.15l-6.277,6.222.6,1.856a57.846,57.846,0,0,1,3.711-4.8,46.679,46.679,0,0,1,3.6-3.548,33.612,33.612,0,0,1,3.438-2.565q1.638-.928,3.166-1.637a34.939,34.939,0,0,1,3.329-1.31Z" transform="translate(-1000.029 -228.3)" fill="#bf6017"/>
            </g>
          </g>
        </g>
        <g id="Group_69339" data-name="Group 69339" transform="translate(91.941 13.317)">
          <g id="Group_69338" data-name="Group 69338" transform="translate(0)">
            <g id="Group_69337" data-name="Group 69337">
              <path id="Path_54508" data-name="Path 54508" d="M546.224,74.241l-8.405,1.528Q526.9,79.263,518.88,89.905a47.588,47.588,0,0,0-4.421,6.931l-1.419,2.947q-5.894,18.066.327,1.364,3.875-10.425,14.136-18.393a48.226,48.226,0,0,1,9.551-5.84,72.831,72.831,0,0,1,20.576-2.4,57.761,57.761,0,0,0-11.407-.273m14.736.6q-1.612-.21-3.329-.327a67.593,67.593,0,0,1,10.588,2.292A20.4,20.4,0,0,0,560.96,74.842Z" transform="translate(-510.172 -74.078)" fill="#f49a42"/>
            </g>
          </g>
        </g>
        <g id="Group_69342" data-name="Group 69342" transform="translate(86.676 49.97)">
          <g id="Group_69341" data-name="Group 69341" transform="translate(0 0)">
            <g id="Group_69340" data-name="Group 69340">
              <path id="Path_54509" data-name="Path 54509" d="M481.543,278.469q.491-1.255-.655.546v.6Z" transform="translate(-480.888 -277.954)" fill="#134d94"/>
            </g>
          </g>
        </g>
        <g id="Group_69345" data-name="Group 69345" transform="translate(89.897 78.593)">
          <g id="Group_69344" data-name="Group 69344">
            <g id="Group_69343" data-name="Group 69343">
              <path id="Path_54510" data-name="Path 54510" d="M499.018,440.391q0-1.583-.164-3.22l-.055,1.747Q498.909,442.3,499.018,440.391Z" transform="translate(-498.8 -437.171)" fill="#134d94"/>
            </g>
          </g>
        </g>
        <g id="Group_69348" data-name="Group 69348" transform="translate(41.07 2.032)">
          <g id="Group_69347" data-name="Group 69347" transform="translate(0 0)">
            <g id="Group_69346" data-name="Group 69346">
              <path id="Path_54511" data-name="Path 54511" d="M282.414,13.091q3.821.218,6.877.437a165.6,165.6,0,0,0-16.974-2.019,59.07,59.07,0,0,0-9.169-.055,37.627,37.627,0,0,0-11.025,3.22,50.488,50.488,0,0,0-12.717,7.859q-14.736,12.444-11.68,29.418-.055-3,.164-5.949a35.135,35.135,0,0,1,1.583-7.2q1.637-5.512,7.1-11.352a40.22,40.22,0,0,1,12.007-9.06q.928-.437,4.039-2.183a29.777,29.777,0,0,1,4.148-1.965q3.493-1.2,12.335-1.474A124.935,124.935,0,0,1,282.414,13.091Z" transform="translate(-227.202 -11.303)" fill="#7898cc"/>
            </g>
          </g>
        </g>
        <g id="Group_69351" data-name="Group 69351" transform="translate(116.367 13.956)">
          <g id="Group_69350" data-name="Group 69350" transform="translate(0 0)">
            <g id="Group_69349" data-name="Group 69349">
              <path id="Path_54512" data-name="Path 54512" d="M665.581,78.467q6.495-1.255,15.118,1.583a41.241,41.241,0,0,1,7.314,3.111q-.164-.928-2.838-2.074l-2.62-.982a36.377,36.377,0,0,0-25.652-.273,44.431,44.431,0,0,0-7.914,3.548l-2.947,1.91q1.8-.709,7.259-3.22A65.8,65.8,0,0,1,665.581,78.467Z" transform="translate(-646.042 -77.632)" fill="#f49a42"/>
            </g>
          </g>
        </g>
        <g id="Group_69354" data-name="Group 69354" transform="translate(114.293 27.222)">
          <g id="Group_69353" data-name="Group 69353">
            <g id="Group_69352" data-name="Group 69352">
              <path id="Path_54513" data-name="Path 54513" d="M655.3,154.162q3.111-1.637,5.458-2.729a6.175,6.175,0,0,0-2.292.71l-1.91.873q-9.606,4.366-14.19,7.914a33.865,33.865,0,0,0-6.167,6.113l-1.692,2.62a58.612,58.612,0,0,1,7.423-7.041,13.572,13.572,0,0,1,1.583-.982,11.494,11.494,0,0,0,1.692-1.092A69.282,69.282,0,0,1,655.3,154.162Z" transform="translate(-634.505 -151.42)" fill="#f49a42"/>
            </g>
          </g>
        </g>
        <g id="Group_69357" data-name="Group 69357" transform="translate(1.752 91.363)">
          <g id="Group_69356" data-name="Group 69356" transform="translate(0)">
            <g id="Group_69355" data-name="Group 69355">
              <path id="Path_54514" data-name="Path 54514" d="M194.493,765.547q-.387-2.624-1.7-3.5l.989,2.948a1.9,1.9,0,0,1,.054,1.474,2.035,2.035,0,0,1-.926,1.151,12.056,12.056,0,0,1-4.261-.548,11.279,11.279,0,0,0,3.928,1.69,1.853,1.853,0,0,0,.953-.072l-.045-.009Q194.964,768.189,194.493,765.547Z" transform="translate(-188.65 -762.05)" fill="#68412f"/>
            </g>
          </g>
        </g>
        <g id="Group_69360" data-name="Group 69360" transform="translate(6.282 92.784)">
          <g id="Group_69359" data-name="Group 69359" transform="translate(0)">
            <g id="Group_69358" data-name="Group 69358">
              <path id="Path_54515" data-name="Path 54515" d="M38.392,519.052a2.267,2.267,0,0,1,.055,1.474,2.378,2.378,0,0,1-.928,1.146,11.64,11.64,0,0,1-3.548-.327l-.273.055a11.779,11.779,0,0,0,3.493,1.419,1.721,1.721,0,0,0,1.092-.164,9.726,9.726,0,0,0,3.22,1.255,1.419,1.419,0,0,0,1.747-.819,7.837,7.837,0,0,0,2.511.873l.327.055a1.46,1.46,0,0,0,1.146-.491,1.633,1.633,0,0,0,.491-1.2l-.273-.109.055-.437h.273a5.758,5.758,0,0,0-1.8-4.475,20,20,0,0,1,.982,2.947,1.929,1.929,0,0,1,.109,1.419,2.378,2.378,0,0,1-.928,1.146,9.68,9.68,0,0,1-2.729-.164,5.432,5.432,0,0,0-.273-3.056,4.326,4.326,0,0,0-1.419-2.347A27.775,27.775,0,0,1,42.7,520.2a1.868,1.868,0,0,1-.437,2.238l-.055.055-.382.273a11.014,11.014,0,0,1-3.384-.273q1.092-.764.6-3.22A5.006,5.006,0,0,0,37.41,516.1Z" transform="translate(-33.699 -516.105)" fill="#68412f"/>
            </g>
          </g>
        </g>
        <g id="Group_69363" data-name="Group 69363" transform="translate(20.307 91.684)">
          <g id="Group_69362" data-name="Group 69362" transform="translate(0 0)">
            <g id="Group_69361" data-name="Group 69361">
              <path id="Path_54516" data-name="Path 54516" d="M116.35,514.352q-.709-3.329-2.51-4.366l1.528,3.329a2.517,2.517,0,0,1,.273,1.692,2.291,2.291,0,0,1-.873,1.473,12.457,12.457,0,0,1-3,.273l-.055.546a7.39,7.39,0,0,0,2.783.6Q117.114,517.844,116.35,514.352Z" transform="translate(-111.711 -509.986)" fill="#68412f"/>
            </g>
          </g>
        </g>
        <g id="Group_69366" data-name="Group 69366" transform="translate(20.034 98.451)">
          <g id="Group_69365" data-name="Group 69365" transform="translate(0)">
            <g id="Group_69364" data-name="Group 69364">
              <path id="Path_54517" data-name="Path 54517" d="M110.521,547.628h-.273l-.055.437.273.109Z" transform="translate(-110.193 -547.628)" fill="#68412f"/>
            </g>
          </g>
        </g>
        <g id="Group_69369" data-name="Group 69369" transform="translate(22.104 62.387)">
          <g id="Group_69368" data-name="Group 69368">
            <g id="Group_69367" data-name="Group 69367">
              <path id="Path_54518" data-name="Path 54518" d="M123.185,353.081q.109-2.238.109-3.984.055-3.493-.546-1.092-1.583,7.2-.764,22.7a20.853,20.853,0,0,0,4.039,11.9,12.718,12.718,0,0,0,3.657,3.548q-3.657-2.838-5.458-18.229Z" transform="translate(-121.705 -347.027)" fill="#9b7458"/>
            </g>
          </g>
        </g>
        <g id="Group_69372" data-name="Group 69372" transform="translate(0 47.095)">
          <g id="Group_69371" data-name="Group 69371">
            <g id="Group_69370" data-name="Group 69370">
              <path id="Path_54519" data-name="Path 54519" d="M201.016,519.372a18.47,18.47,0,0,1,2.454-2.023,6.64,6.64,0,0,1,5.4-.926,6.409,6.409,0,0,0-3.982-.494q-4.207.656-7.973,6.5l-5.564,8.072a167.974,167.974,0,0,0-9.061,15.065l-1.8,4.153q-1.69,4.413-1.33,5.96l-.207,1.681q-.324,5.726,1.321,7.533.764.764,3.38.485a2.374,2.374,0,0,1-1.088-.872,3.643,3.643,0,0,1-.279-3.38,6.307,6.307,0,0,1-1.142-1.1,2.211,2.211,0,0,1-.494-2.346,92.054,92.054,0,0,1,3.551-10.912q4.692-12.063,10.364-17.96,1.312-2.238,2.787-4.53Q200.252,519.7,201.016,519.372Z" transform="translate(-178.904 -515.815)" fill="#9b7458"/>
            </g>
          </g>
        </g>
        <g id="Group_69375" data-name="Group 69375" transform="translate(28.008 91.515)">
          <g id="Group_69374" data-name="Group 69374" transform="translate(0 0)">
            <g id="Group_69373" data-name="Group 69373">
              <path id="Path_54520" data-name="Path 54520" d="M389.927,763.565a3.426,3.426,0,0,1-1.3.764,23.884,23.884,0,0,1-4.045,8.243,24.428,24.428,0,0,1-6.876,6.059l-1.249.6h-.117q-4.476,1.312-5.07,1.42a29.165,29.165,0,0,1-8.027.548,17.214,17.214,0,0,1-6.059-1.807l-2.67-1.366h-.054a65.334,65.334,0,0,1-7.811-6.652l.656,1.636a12.7,12.7,0,0,0,3.218,3.659,7.262,7.262,0,0,1-4.692,0q-4.584-1.1-11.128-5.465l3.434,3.281a20.642,20.642,0,0,0,11.245,3.6l8.018,2.786q9.34,2.4,15.829.71l2.022-.44q1.969-.647,3.5-1.3a18.958,18.958,0,0,0,6.049-5.025,34.543,34.543,0,0,0,3.883-5.843q1.088-2.121,2.957-6.068Z" transform="translate(-334.7 -762.9)" fill="#68412f"/>
            </g>
          </g>
        </g>
        <g id="Group_69378" data-name="Group 69378" transform="translate(71.613 37.223)">
          <g id="Group_69377" data-name="Group 69377" transform="translate(0 0)">
            <g id="Group_69376" data-name="Group 69376">
              <path id="Path_54521" data-name="Path 54521" d="M397.1,220.093a7.428,7.428,0,0,0,2.183-.273l1.528-.491-.327.164a36.18,36.18,0,0,0,6.331-2.838,30.888,30.888,0,0,0,5.949-4.257,30.443,30.443,0,0,1-1.8,2.893,42.365,42.365,0,0,1-3.438,4.475q5.13-3.711,8.514-12.717a15.609,15.609,0,0,1-2.292,3.548q-2.129,1.8-4.421,3.438A35,35,0,0,1,397.1,220.093Z" transform="translate(-397.097 -207.049)" fill="#104e93"/>
            </g>
          </g>
        </g>
        <g id="Group_69381" data-name="Group 69381" transform="translate(66.919 47.647)">
          <g id="Group_69380" data-name="Group 69380">
            <g id="Group_69379" data-name="Group 69379">
              <path id="Path_54522" data-name="Path 54522" d="M382.668,267.928q.273.109-.546.873a17.313,17.313,0,0,1-4.039,2.674l-7.1,3.711a50.793,50.793,0,0,0,9.879-4.312,15.889,15.889,0,0,0,5.24-5.84q-2.674,1.747-5.076,3.056l-3.93,1.8Z" transform="translate(-370.988 -265.035)" fill="#104e93"/>
            </g>
          </g>
        </g>
        <g id="Group_69384" data-name="Group 69384" transform="translate(122.371 18.389)">
          <g id="Group_69383" data-name="Group 69383" transform="translate(0)">
            <g id="Group_69382" data-name="Group 69382">
              <path id="Path_54523" data-name="Path 54523" d="M708.363,104.7q-4.148-1.146-6.768-1.692a33.021,33.021,0,0,0-7.1-.71q-6.331.273-15.064,5.458a45.87,45.87,0,0,1,9.988-2.947A42.669,42.669,0,0,1,708.363,104.7Z" transform="translate(-679.437 -102.29)" fill="#bf6017"/>
            </g>
          </g>
        </g>
        <g id="Group_69387" data-name="Group 69387" transform="translate(40.285 11.655)">
          <g id="Group_69386" data-name="Group 69386">
            <g id="Group_69385" data-name="Group 69385">
              <path id="Path_54524" data-name="Path 54524" d="M324.407,65.621a9.681,9.681,0,0,1-2.565,0,50.864,50.864,0,0,0-10.425-.764,49.225,49.225,0,0,0-9.442,1.092,60.749,60.749,0,0,0-10.1,3.548,19.927,19.927,0,0,0-4.912,2.019,50.1,50.1,0,0,0-9.333,9.278,31.616,31.616,0,0,0-6.549,12.28q-.382,1.474-.655,2.947l-.273,2.4a5.324,5.324,0,0,1-.055,2.019,9.4,9.4,0,0,1-2.129,3.984q-2.4,2.674-5.949,5.949l3.22-1.91a18.016,18.016,0,0,0,3.82-2.565l1.092-1.91q1.419-2.183.655-.546a3.165,3.165,0,0,1-.6,1.146,5.705,5.705,0,0,1-1.146,1.31l-2.292,3.984a1.226,1.226,0,0,1-.764,1.092,10.108,10.108,0,0,0-1.8,1.146l1.856-.327a3.457,3.457,0,0,0,2.456-1.637q.491-1.037,2.183,6.331,1.637,7.1,2.511,13.317l-.218-4.748a52.961,52.961,0,0,1,.437,6.549,13.219,13.219,0,0,1,.164,3.166q-.055,1.037-.218-1.419l-.055.546q-.546,6.877-4.312,9.77-1.474,1.146-8.187,3.438a38.681,38.681,0,0,1-21.613.71,42.421,42.421,0,0,1-8.46-3.548q-1.583-.928-7.914-4.857a9.945,9.945,0,0,0,2.729,3.657,22.176,22.176,0,0,0,4.093,2.238A41.594,41.594,0,0,0,260,148.034,26.758,26.758,0,0,0,268.627,144a15.3,15.3,0,0,0,5.949-7.314,10.618,10.618,0,0,0,.437-3.329,96.313,96.313,0,0,0-.819-12.771q-.109-1.146-1.419-9.879a58.123,58.123,0,0,1-.819-10.042q.218-8.187,7.2-17.356a50.326,50.326,0,0,1,14.19-12.662,26.842,26.842,0,0,1,7.859-3.056,69.043,69.043,0,0,1,8.351-1.31q7.613-.707,21.886,1.037a8.963,8.963,0,0,1-2.183-.655q-1.856-.764-2.347-.928A6.64,6.64,0,0,0,324.407,65.621Z" transform="translate(-222.836 -64.832)" fill="#134e91"/>
            </g>
          </g>
        </g>
        <g id="Group_69390" data-name="Group 69390" transform="translate(86.513 49.565)">
          <g id="Group_69389" data-name="Group 69389" transform="translate(0 0)">
            <g id="Group_69388" data-name="Group 69388">
              <path id="Path_54525" data-name="Path 54525" d="M481.779,276.406h-.055q.764-1.637-.655.546l-1.092,1.91a5.7,5.7,0,0,0,1.146-1.31A3.252,3.252,0,0,0,481.779,276.406Z" transform="translate(-479.977 -275.704)" fill="#134e91"/>
            </g>
          </g>
        </g>
        <g id="Group_69393" data-name="Group 69393" transform="translate(90.661 76.628)">
          <g id="Group_69392" data-name="Group 69392" transform="translate(0)">
            <g id="Group_69391" data-name="Group 69391">
              <path id="Path_54526" data-name="Path 54526" d="M503.432,431.208a13.021,13.021,0,0,0-.164-3.165l-.218-1.8.164,3.548Q503.378,432.245,503.432,431.208Z" transform="translate(-503.05 -426.242)" fill="#134e91"/>
            </g>
          </g>
        </g>
      </g>
      <g id="Layer_2" transform="translate(267.506 221.041)">
        <g id="face" transform="translate(99.756 26.171) rotate(92.649)">
          <g id="Group_69396" data-name="Group 69396" transform="translate(0 0)">
            <g id="Group_69395" data-name="Group 69395">
              <g id="Group_69394" data-name="Group 69394">
                <path id="Path_54527" data-name="Path 54527" d="M10.2,71.458A6.009,6.009,0,0,1,10.719,69l.464-.782Q10.255,67.865,7.1,63.4a35.732,35.732,0,0,0-4.229-5.359q3.853,15.527,12.2,25.232l-.782-1.217q-4.229-6.141-4.085-10.6M32.242,19.893q3.071-.608,13.557-.579a105.425,105.425,0,0,1,22.1,2,11.852,11.852,0,0,1,8.43,8.372A38.363,38.363,0,0,1,78.39,41.793Q79.546,29.706,76.3,21.6A31.915,31.915,0,0,0,68.193,9.58q-6-5.417-15.672-7.793Q47.228.738,42.758.31A52.061,52.061,0,0,0,33.025.165a30.431,30.431,0,0,0-8.517,2.057,27.536,27.536,0,0,0-5.1,2.752,47.956,47.956,0,0,0-11.5,11.819A48.66,48.66,0,0,0,.116,34.957a43.376,43.376,0,0,0,0,6.344A116.478,116.478,0,0,0,2.2,55.177q8.789,3.174,9.1,10.081,3.708-5.012,6-13.963A65.52,65.52,0,0,0,19.38,33.537q-.116-5.5,4.9-9.647A18.4,18.4,0,0,1,32.242,19.893Z" fill="#68412f"/>
                <path id="Path_54528" data-name="Path 54528" d="M24.392,1.912A32.351,32.351,0,0,0,5.823,16.107,39.483,39.483,0,0,0,.7,29.519,41.217,41.217,0,0,0,0,34.647,48.66,48.66,0,0,1,7.793,16.483a47.956,47.956,0,0,1,11.5-11.819,27.536,27.536,0,0,1,5.1-2.752M76.275,77.231a25.321,25.321,0,0,0,2.839-10.95,18.527,18.527,0,0,0-.9-5.736q-.29-.869-.608-1.8-.84-2.086-1.217-3.129,0,.029.9,3.245.174.84.29,1.68a27.925,27.925,0,0,1,.145,6.344q-1.188,12.8-13.876,20.655a50.1,50.1,0,0,1-10.805,5.417q-5.475,1.709-15.064,1.854a23.892,23.892,0,0,1-6.808-1.072l-1.8-.608,1.535.55a48.272,48.272,0,0,0,5.359,1.362,40.812,40.812,0,0,0,16.773-.058,35.81,35.81,0,0,0,13.992-7.126,32.86,32.86,0,0,0,9.241-10.632M52.4,1.477A49.045,49.045,0,0,0,42.642,0Q47.113.428,52.4,1.477Z" transform="translate(0.116 0.31)" fill="#9b7458"/>
                <path id="Path_54529" data-name="Path 54529" d="M43.6,0Q33.112-.028,30.041.581a18.4,18.4,0,0,0-7.966,4q-5.012,4.143-4.9,9.647a65.52,65.52,0,0,1-2.086,17.758q-2.289,8.951-6,13.963Q8.789,39.039,0,35.865q.317,1.467.666,2.868A35.731,35.731,0,0,1,4.9,44.092Q8.053,48.553,8.98,48.9l-.464.782A6.009,6.009,0,0,0,8,52.145q-.145,4.461,4.085,10.6l.782,1.217q.637.753,1.333,1.477a34.924,34.924,0,0,0,9.1,7.068,17.243,17.243,0,0,0,4,1.622l1.8.608a23.894,23.894,0,0,0,6.808,1.072q9.589-.145,15.064-1.854a50.1,50.1,0,0,0,10.805-5.417Q74.45,60.691,75.638,47.887a27.926,27.926,0,0,0-.145-6.344q-.116-.84-.29-1.68-.9-3.216-.9-3.245a3.938,3.938,0,0,1-.348-1.014,94.886,94.886,0,0,0,2.231-13.123,38.363,38.363,0,0,0-2.057-12.109A11.853,11.853,0,0,0,65.7,2,105.425,105.425,0,0,0,43.6,0Z" transform="translate(2.202 19.312)" fill="#83523b"/>
              </g>
            </g>
          </g>
        </g>
        <g id="hair_top" transform="translate(101.325 24.023) rotate(92.649)">
          <g id="color" transform="translate(0.14 0)">
            <g id="Group_69399" data-name="Group 69399" transform="translate(0 0)">
              <g id="Group_69398" data-name="Group 69398">
                <g id="Group_69397" data-name="Group 69397">
                  <path id="Path_54530" data-name="Path 54530" d="M59,1.893a3.68,3.68,0,0,0-1.419-.811A15.967,15.967,0,0,0,53.557.1,14.337,14.337,0,0,0,48.168.5Q46.717.356,44.2.213a4.544,4.544,0,0,0-3.882,1.448,46.88,46.88,0,0,1,8,7.01,52.867,52.867,0,0,1,7.329,9.936,2.423,2.423,0,0,0,.464.55,1.564,1.564,0,0,0,.869.377q3.418.174,3.534.174a49.665,49.665,0,0,1,5.649.9,57.285,57.285,0,0,1,8.053,2.144q4.722,1.97,5.939,11.472a44.269,44.269,0,0,1,.261,9.125q.55-3.071,1.014-6.866a50.831,50.831,0,0,0,.464-11.327,18.947,18.947,0,0,0-1.941-5.881,53.664,53.664,0,0,0-3.187-5.417,20.284,20.284,0,0,0-4.085-4.2,7.782,7.782,0,0,0-.985-1.8,13.74,13.74,0,0,0-2.26-2.491,9.649,9.649,0,0,0-3.216-1.593,18.641,18.641,0,0,0-4.114-.9A4.563,4.563,0,0,0,59,1.893M37.189,1.024a7.122,7.122,0,0,0-2.173.521,20.544,20.544,0,0,0-5.1-.319,23.246,23.246,0,0,0-4.664.927q-6.315,1.854-9.386,4.983a11.876,11.876,0,0,0-4.2,2.723,9.209,9.209,0,0,0-2.636,4.258,3.251,3.251,0,0,0-1.159,1.188A4.355,4.355,0,0,0,7.148,16.9a12.386,12.386,0,0,0-3.216,4.9A10.779,10.779,0,0,0,3.266,24.4q-1.3,1.883-1.333,1.912a14.073,14.073,0,0,0-1.68,4.2,12.024,12.024,0,0,0-.029,4.78,7.419,7.419,0,0,0,.608,2.346,6.884,6.884,0,0,0-.666,2.984,5.656,5.656,0,0,0,.406,2.549,7.017,7.017,0,0,0,.261,3.476A9.711,9.711,0,0,0,2.31,49.576,38.473,38.473,0,0,0,12.826,63.134a.837.837,0,0,0,.956.145,2.683,2.683,0,0,0,.782-.666,13.863,13.863,0,0,0,2.694-5.272q.377-1.217,1.275-5.968A52.176,52.176,0,0,0,19.46,41.9a50.287,50.287,0,0,1,.492-6.6q.84-6.17,2.665-8.43.724-.927,1.1-1.391a11,11,0,0,1,1.159-1.333,14.364,14.364,0,0,1,6.055-3.274A40.218,40.218,0,0,1,37.595,19.8a5.478,5.478,0,0,0,.145.7,3,3,0,0,0-.55.087A2.841,2.841,0,0,0,35.8,21.3a3.2,3.2,0,0,0-.84,1.333,3.092,3.092,0,0,0-.116,1.564,2.968,2.968,0,0,0,.84,1.564,2.658,2.658,0,0,0,.406.348l-.319.319-.2.348a2.532,2.532,0,0,0-.058.637v.232l.087.261a1.389,1.389,0,0,0,.9.869,1.422,1.422,0,0,0,1.246-.058,1.5,1.5,0,0,0,.782-1.014l.029-.261a1.564,1.564,0,0,0-.029-.492l-.116-.29a2.615,2.615,0,0,0,.406-.087,3.2,3.2,0,0,0,1.333-.84,2.865,2.865,0,0,0,.753-1.362,2.831,2.831,0,0,0,.087-.666,4.9,4.9,0,0,0,2.52.174,5.011,5.011,0,0,0,2.4-1.217,5.379,5.379,0,0,0,1.419-2.289,5.451,5.451,0,0,0,.145-.666,57.594,57.594,0,0,0,6.837-.2,1.234,1.234,0,0,0,.261-1.362q-.608-1.477-5.388-7.213a75.074,75.074,0,0,0-7.474-8.024A13.346,13.346,0,0,0,39.478,1.43,4.514,4.514,0,0,0,37.189,1.024Z" fill="#24110f"/>
                </g>
              </g>
            </g>
          </g>
          <g id="shade" transform="translate(0 2.241)">
            <g id="Group_69402" data-name="Group 69402" transform="translate(0 0)">
              <g id="Group_69401" data-name="Group 69401">
                <g id="Group_69400" data-name="Group 69400">
                  <path id="Path_54531" data-name="Path 54531" d="M37.271,15.18q-.9.761-4.722,1.333a34.145,34.145,0,0,0-5.591,1.246,9.636,9.636,0,0,0-4.229,2.81Q19.513,24.479,18.5,32.1q-.348,2.52-.521,9.444a40.446,40.446,0,0,1-1.1,8.227,34.668,34.668,0,0,1-3.042,7.5,37.031,37.031,0,0,1-5.3-5.62L5.26,45.945q-.087-.232-.377-1.043-.261-.811-.319-.927a3.548,3.548,0,0,0-.521-1.709,4.458,4.458,0,0,1-.7-2.781q.29-.84.406-1.275a4.811,4.811,0,0,0-.087-2q-.406-1.709-.435-2.028A2.275,2.275,0,0,1,3.754,33a4.206,4.206,0,0,0,.666-1.97,17.087,17.087,0,0,0-.174-2.2,3.58,3.58,0,0,1,.29-2.086,4.838,4.838,0,0,1,.753-1.072,3.393,3.393,0,0,0,.406-.464,2.875,2.875,0,0,0,.348-.464,1.482,1.482,0,0,0,.029-1.246,1.344,1.344,0,0,0-.579-.637A5.935,5.935,0,0,0,6.941,20.8a3.671,3.671,0,0,0,.116-1.767A12.137,12.137,0,0,1,8.418,17.9a5.512,5.512,0,0,0,1.217-1.246,5.322,5.322,0,0,0,1.97-2.115,3.738,3.738,0,0,0,.116-2.115q.666-.145,2.781-3.853Q16.587,4.838,16.124,4.9a10.306,10.306,0,0,0-5.33,3.737A17.284,17.284,0,0,0,9.229,11.79a4.3,4.3,0,0,0-1.941,2.781,11.237,11.237,0,0,0-3.1,4.751,8.415,8.415,0,0,0-.84,3.013A10.488,10.488,0,0,0,.683,27.144,11.428,11.428,0,0,0,.857,35.4a7.391,7.391,0,0,0-.608,2.955,7.7,7.7,0,0,0,.377,2.694A5.22,5.22,0,0,0,.8,43.859q.492,2.2,1.217,2.636.261,1.883,3.708,6.489a43.857,43.857,0,0,0,4.4,5.272q.377.377,1.622,1.448,1.362,1.159,1.68,1.362.377.2,1.159-.608a7.015,7.015,0,0,0,1.043-1.3,24.524,24.524,0,0,0,2.52-6.895,51.412,51.412,0,0,0,1.362-8.314q.087-4.954.261-7.966a30.366,30.366,0,0,1,1.912-9.473,13.245,13.245,0,0,1,3.042-4.172,16.978,16.978,0,0,1,2.955-2.491q2.752-1.593,10.11-2.289a4.775,4.775,0,0,1-.521-2.375m17.468,2.028q.406-.985-.7-2.636l-1.217-1.477a4.315,4.315,0,0,0,.29,1.217,1.593,1.593,0,0,1,.087.956,1.386,1.386,0,0,1-.782.869,7.689,7.689,0,0,1-1.564.377,6.862,6.862,0,0,1-2.868-.319l-1.477-.55q-.045,5.024-4.751,4.838L40.4,20.133a3.436,3.436,0,0,1-2.781,3.94q.929,1.832-.579,2.607,2.2-.237,1.593-2.2a4.338,4.338,0,0,0,1.362-.7,2.477,2.477,0,0,0,1.275-2.26,4.273,4.273,0,0,0,2.346.116,5.1,5.1,0,0,0,1.941-.753A4.767,4.767,0,0,0,47.671,17.5q1.441.054,1.97.058,4.925.058,5.1-.348M69.6,19.12a18.823,18.823,0,0,1,6.141,2.346,9.825,9.825,0,0,1,3.592,5.881A76.725,76.725,0,0,1,80.9,37.254q.55-.7.261-4.287-.116-1.188-.608-5.012a16.2,16.2,0,0,0-.492-2.433A12.186,12.186,0,0,0,75.6,19.148a15.084,15.084,0,0,0-7.271-2.9l-3.65-.261q-1.97-.029-3.042-.087a12.008,12.008,0,0,1-3.389-.579A118.8,118.8,0,0,0,47.758,4.983,75.225,75.225,0,0,0,41.5,0q6.663,6.2,7.735,7.5,4.345,5.417,5.3,6.808a18.456,18.456,0,0,1,1.014,1.854q.666,1.188,1.13,1.188a54.055,54.055,0,0,1,5.939.608Q67.573,18.627,69.6,19.12Z"/>
                </g>
              </g>
            </g>
          </g>
          <g id="light" transform="translate(32.346 1.314)">
            <g id="Group_69405" data-name="Group 69405" transform="translate(0 0)">
              <g id="Group_69404" data-name="Group 69404">
                <g id="Group_69403" data-name="Group 69403">
                  <path id="Path_54532" data-name="Path 54532" d="M6.576,20.018a6.244,6.244,0,0,1,.956-.087,6.613,6.613,0,0,1-1.883-5.968,5.462,5.462,0,0,0-.087,5.185,2.96,2.96,0,0,0-2.926,2.4,2.866,2.866,0,0,0,1.1,3.245q-.831,1.169-.348,1.941t.985.7a1.347,1.347,0,0,1-.666-.84,2.228,2.228,0,0,1,.116-1.072q.235-.51.579-.579Q2.41,21.836,4.722,20.6a5.821,5.821,0,0,1,1.854-.579m20.771-8.749a8.618,8.618,0,0,0-3.447.637l-1.246.666,2.752-.7a17.131,17.131,0,0,1,7.648,1.1,9.845,9.845,0,0,0-5.707-1.709M26.42,5.678a5.059,5.059,0,0,0-1.941-.29,10.311,10.311,0,0,0-3.621.319,9.019,9.019,0,0,0-2.665,1.3l-.811.724,2.4-1.072a18.6,18.6,0,0,1,6.634-.985m2.115,5.214q-.087-.2-1.1-.464a4.42,4.42,0,0,0-2.346-.174,7.542,7.542,0,0,0-2.173.84l-.753.579,1.883-.666a9.332,9.332,0,0,1,4.49-.116M27.086,9.386a3.821,3.821,0,0,0-2.144-1.767,9.382,9.382,0,0,1,3.505.521q1.014.406,2.752,1.246a21.961,21.961,0,0,0-2.26-1.593,5.682,5.682,0,0,0-2.9-.927,14.272,14.272,0,0,0-2.752.261A9.2,9.2,0,0,0,19.554,9.3q0,.029,2-.927a7.7,7.7,0,0,1,5.533,1.014m4.548,4.954a24.641,24.641,0,0,1,5.736,1.1q-5.214-2.289-8.691-2.144A9.627,9.627,0,0,0,24.3,14.629q-.029.029,1.738-.348a11.1,11.1,0,0,1,3.013-.261,3.92,3.92,0,0,0-1.941,1.13l-.55.782a9.822,9.822,0,0,1,5.07-1.593m3.505-11.79a17.66,17.66,0,0,0-3.563-.84l-1.912-.2,1.3.319a18.725,18.725,0,0,1,3.013,1.159q4.577,2.26,5.707,6.083,2.926,1.651,9.3,11.906a40.3,40.3,0,0,0-3.824-7.561q-2.52-3.882-4.606-5.1-2.926-4.838-5.417-5.765M14.687,4.143a12.313,12.313,0,0,1,2.2-.116,3.056,3.056,0,0,0-1.362.927q-.55.724-.232.521a8.932,8.932,0,0,1,3.447-1.246,18.907,18.907,0,0,1,5.041.29,13.952,13.952,0,0,0-10.313-.261,9.7,9.7,0,0,0,1.217-.116M8.43,4.114a5.149,5.149,0,0,0-1.391-.087,6.631,6.631,0,0,0-2.115.521,6.328,6.328,0,0,0-1.912,1.13,14.1,14.1,0,0,1,7.793-.319,2.385,2.385,0,0,1,1.651,1.593,13.066,13.066,0,0,0-5.823.811A8.018,8.018,0,0,0,3.795,9.357Q4.22,9.179,6.6,8.6A21.506,21.506,0,0,1,10.4,8a10.607,10.607,0,0,1,4.519.7,6.326,6.326,0,0,0-1.68-.029,16.928,16.928,0,0,0-2,.2,11.667,11.667,0,0,0-5.156,2.52q1.738-.84,2.752-1.246a9.382,9.382,0,0,1,3.505-.521A3.821,3.821,0,0,0,10.2,11.385a11.632,11.632,0,0,1,3.071-1.13,7.561,7.561,0,0,1,2.375-.2,2.37,2.37,0,0,1,1.246.608,2.253,2.253,0,0,1,.521.637h0a18.158,18.158,0,0,0-8.082,2.868,19.109,19.109,0,0,1,4.9-1.3,8.679,8.679,0,0,1,3.621.492q.348.145-.348-.464a2.8,2.8,0,0,0-1.506-.608,9.92,9.92,0,0,1,2.086-.348q1.077.864,1.97,1.651A54.778,54.778,0,0,0,14.079,6Q9.3.7,7.039,0q1.8,1.912.84,2.318a21.015,21.015,0,0,0-3.766-.2A7.593,7.593,0,0,0,0,3.418,22,22,0,0,1,9.212,3.1q1.318.666,1.217,1.333-1.477-.261-2-.319m3.36-1.3a13.039,13.039,0,0,1,5.562-.985,7.814,7.814,0,0,1,3.331,1.1,2.55,2.55,0,0,0-.869-.811,7.184,7.184,0,0,0-3.563-.956,7.491,7.491,0,0,1,4.143-.2,21.29,21.29,0,0,1,2.462.492A6.925,6.925,0,0,0,18.164.29,10.2,10.2,0,0,0,11.79,2.81Z" fill="#4f403f"/>
                </g>
              </g>
            </g>
          </g>
        </g>
        <g id="mouth" transform="translate(22.912 68.871) rotate(92.649)">
          <g id="Layer_1-2" data-name="Layer_1" transform="translate(0 0)">
            <g id="Group_69407" data-name="Group 69407" transform="translate(0 0)">
              <g id="Group_69406" data-name="Group 69406">
                <path id="Path_54533" data-name="Path 54533" d="M14.4,0H14.34l-.29.261-.232.116-.145.116-.319.2-.029.029-.058.029-.724.406-.869.377-.116.029-.579.2-.145.029-.145.058-.174.029-.145.058-.637.116-.174.058-1.535.2H7.851l-.2.029H7.474l-.087.029L5.736,2.4l-.174-.029-.811-.029L2.9,2.028,2.752,1.97l-.521-.145-.116-.058H2.057L2,1.738l-.232-.087-.116-.058-.116-.029-.2-.087-.087-.058L.956,1.3.9,1.246.84,1.217H.811L.087.782Q.058.753,0,.811V.869l.579.637.058.029.348.319.087.058a5.781,5.781,0,0,0,.869.55l.55.29.9.348.174.029.174.058.174.029.174.058.348.058.174.058.869.116h.2l.174.029H7.416l.029-.029h.319l.348-.058h.2l.579-.087L9.067,3.3h.087l.087-.029.55-.116L9.965,3.1l.174-.029.7-.232,1.217-.55.377-.261.145-.058.55-.435.087-.087.29-.232.435-.464.087-.145a.7.7,0,0,0,.174-.232L14.34.232l.087-.145Q14.456.058,14.4,0Z" fill="#003"/>
              </g>
            </g>
          </g>
        </g>
        <g id="nose" transform="translate(37.064 72.629) rotate(92.649)">
          <g id="Layer_2-2" data-name="Layer_2" transform="translate(0.22 0.199)">
            <g id="Group_69410" data-name="Group 69410" transform="translate(0 0)">
              <g id="Group_69409" data-name="Group 69409">
                <g id="Group_69408" data-name="Group 69408">
                  <path id="Path_54534" data-name="Path 54534" d="M3.053.293a7.616,7.616,0,0,0-2.086.956,2.292,2.292,0,0,0-.956,2A2.177,2.177,0,0,0,1.431,4.986a5.956,5.956,0,0,0,2.318.348L4.5,5.3a5.1,5.1,0,0,0,2.115-.927A3.169,3.169,0,0,0,7.34,3.77a1.765,1.765,0,0,0,.319-1.854,2.54,2.54,0,0,0-1.13-1.3A3.374,3.374,0,0,0,4.183.033,4.774,4.774,0,0,0,3.053.293Z" fill="#83523b"/>
                </g>
              </g>
            </g>
          </g>
          <g id="Layer_1-3" data-name="Layer_1" transform="translate(0 0)">
            <g id="Group_69412" data-name="Group 69412" transform="translate(0 0)">
              <g id="Group_69411" data-name="Group 69411">
                <path id="Path_54535" data-name="Path 54535" d="M5.794.029H5.678L5.475,0H4.954L4.432.087a.051.051,0,0,0-.058.058L4.4.174l.2.058L5.07.319q.579.174.724.232l.492.232L6.373.84,6.489.9l.087.087a1.09,1.09,0,0,1,.348.319l.087.116.087.087.319.724.058.29v.2l.029.058L7.474,2.9v.174l-.029.058v.087l-.029.058-.029.087-.058.116-.145.2a3.093,3.093,0,0,1-.956.666l-.637.232-.174.029-.058.029H5.33l-.058.029-.666.145H4.519l-.058.029L4.114,4.9H4l-.174.029h-.9L2.752,4.9H2.607l-.55-.116-.116-.058H1.883l-.058-.029L1.68,4.664l-.029-.029H1.622l-.174-.087-.116-.029-.087-.058L1.13,4.4l-.087-.058L.869,4.2.811,4.172.782,4.143.7,4.085l-.232-.29V3.766L.435,3.737.406,3.65.348,3.592.261,3.273V3.216L.232,3.158V3.071L.2,2.9.145,2.839l-.029.029-.029.058-.058.232v.116L0,3.331v.174l.029.087v.116l.029.058v.116l.029.029v.058l.058.116.029.087L.29,4.4l.087.116H.406v.029l.232.261L.753,4.9l.116.116.232.174.058.029.058.058.116.058h.029l.29.174.782.29H2.52l.087.029.9.145,1.1-.029.087-.029H4.78l.753-.145h.058l.029-.029h.029l.087-.029.174-.029.753-.29a4.526,4.526,0,0,0,.753-.377l.029-.058L7.5,4.925l.087-.058.174-.145a1.376,1.376,0,0,0,.29-.348,2.04,2.04,0,0,0,.435-.811V3.447l.058-.232V2.9l-.029-.2V2.607l-.058-.2V2.289L8.43,2.2,8.4,2.173V2.115l-.087-.174a3.092,3.092,0,0,0-.348-.666A1.808,1.808,0,0,0,7.5.724L6.808.29,6.692.232,6.547.2,6.4.145A1.559,1.559,0,0,0,5.91.058Z" fill="#68412f"/>
              </g>
            </g>
          </g>
        </g>
        <g id="ear" transform="translate(52.094 20.372) rotate(92.649)">
          <g id="Layer_1-4" data-name="Layer_1" transform="translate(0 0)">
            <g id="Group_69416" data-name="Group 69416" transform="translate(0 0)">
              <g id="Group_69414" data-name="Group 69414">
                <g id="Group_69413" data-name="Group 69413">
                  <path id="Path_54536" data-name="Path 54536" d="M10.519,3.867A7.524,7.524,0,0,0,6.61.266,5.032,5.032,0,0,0,2.417.725Q.086,2,0,6.727a11.107,11.107,0,0,1,1.549-3.46A3.771,3.771,0,0,1,3.673,1.573,5.655,5.655,0,0,1,7.2,1.82q2.825,1.271,5.357,6.143A40.28,40.28,0,0,0,10.519,3.867Z" transform="translate(0.017 0)" fill="#9b7458"/>
                  <path id="Path_54537" data-name="Path 54537" d="M14.448,12.626a33.735,33.735,0,0,0-1.876-6.072Q10.04,1.682,7.215.411A5.655,5.655,0,0,0,3.69.164,3.771,3.771,0,0,0,1.566,1.859,11.107,11.107,0,0,0,.017,5.318.453.453,0,0,0,0,5.495,24,24,0,0,0,1.85,14.85q.432,1.059.911,1.977a14.771,14.771,0,0,0,2.42,3.46A6.569,6.569,0,0,0,8.4,22.44a5.754,5.754,0,0,0,3.715-.635,5.424,5.424,0,0,0,1.79-1.165q1.758-2.295.548-8.014M2.573,6.13A4.2,4.2,0,0,1,3.635,4.188a2.082,2.082,0,0,1,2.084-.741q3.011.706,5.052,10.661Q8.731,4.153,5.719,3.447a2.082,2.082,0,0,0-2.084.741A4.2,4.2,0,0,0,2.573,6.13Z" transform="translate(0 1.409)" fill="#83523b"/>
                </g>
              </g>
              <g id="Group_69415" data-name="Group 69415" transform="translate(2.493 4.185)">
                <path id="Path_54538" data-name="Path 54538" d="M3.292.035H3.118L3,0H2.622L2.28.071,1.39.53,1.071.883,1.016.918l-.288.388-.253.459L.4,1.871l-.049.106-.216.565-.044.177-.074.53.006.071q-.052.071.035.071l.055-.035.026-.035.047-.141.052-.071L.284,3l.154-.247.741-.883.163-.141H1.37l0-.035H1.4l.11-.071.026-.035.3-.212.226-.071.11-.071L2.4,1.2a.778.778,0,0,1,.464,0h.116l.061.035H3.1l.032.035h.116l.061.035h.029l0,.035h.029l.061.035h.029l.032.035h.058l.061.035.341.282.061.035.159.177.124.106a7.91,7.91,0,0,1,.791,1.2l.2.318.245.53.1.177.317.706,2.013,5.613.083.318.1.212.075.212.061.035L8.3,11.3l.012-.212L8.172,9.638l-.84-3.989-.109-.282L7.214,5.26,6.038,2.506l-.494-.741a.419.419,0,0,0-.13-.177l-.2-.282-.093-.071L5,1.059,4.747.847,4.683.777,4.313.494,3.949.282,3.769.212,3.708.177H3.679L3.561.141,3.5.106H3.471L3.381.071H3.294Z" transform="translate(0 0)" fill="#68412f"/>
              </g>
            </g>
          </g>
        </g>
        <g id="eyes" transform="translate(41.467 55.404) rotate(92.649)">
          <g id="eyelid" transform="translate(0 0.647)">
            <g id="Group_69418" data-name="Group 69418" transform="translate(0 0)">
              <g id="Group_69417" data-name="Group 69417" transform="translate(0)">
                <path id="Path_54539" data-name="Path 54539" d="M8.227.029l-.666.29L7.445.348,7.329.406l-.9.29L6.257.724,6.083.782,5.388.9H5.272L5.185.927H4.809L4.635.956H4.316L4.258.927,2.926.782H2.81L2.723.753,2.549.724,2.375.666,2.028.608,1.391.435,1.246.377,1.1.348.348.116.29.087.058.029Q0-.029,0,.058L.029.116.087.2.174.261.232.319,1.477,1.1l.174.058.145.087a7.15,7.15,0,0,0,.753.261l.377.116.232.029.319.087h.087L4,1.8h.869l.2-.029h.116L5.3,1.738h.087L6.75,1.3l.406-.232L7.271.985,7.416.927,7.474.869,7.532.84,8.111.377,8.4.087V0H8.314Z" fill="#03012e"/>
              </g>
            </g>
          </g>
          <g id="eyelid_copy" transform="translate(27.897 0)">
            <g id="Group_69420" data-name="Group 69420" transform="translate(0 0)">
              <g id="Group_69419" data-name="Group 69419" transform="translate(0)">
                <path id="Path_54540" data-name="Path 54540" d="M7.909.937,7.938.879,8.082.734,8.169.676,8.227.618,8.285.531,8.372.444V.357H8.285L8.2.386,8.082.444,8.024.5,7.938.531l-.29.145L7.532.7,7.155.879,7.01.908l-.377.145-.058.029L6.4,1.11l-.174.058L6.055,1.2H5.968l-.174.058H5.707q-.029,0-.753.087H4.548l-.2-.029h-.29l-.087-.029h-.2l-.2-.029-.087-.029H3.36l-.753-.145L2.318.995H2.231L1.912.879,1.738.85,1.651.821,1.593.792,1.275.676.406.241.348.183.261.155.174.068.087.01Q.058-.019,0,.039V.1L.058.183.116.3.232.415A1.936,1.936,0,0,0,.55.763L.637.879.9,1.053l.116.116.377.232.087.029.174.087a5.012,5.012,0,0,0,.753.319l.608.174.2.029.2.058.232.029h.058l.058.029h.116l.087.029H5.012l.435-.058.406-.116h.116l.579-.2.087-.058.174-.087.087-.029.058-.058.464-.261.348-.261L7.851.966Z" fill="#03012e"/>
              </g>
            </g>
          </g>
        </g>
        <g id="brow_l" transform="translate(56.941 49.798) rotate(92.649)">
          <g id="Layer_1-5" data-name="Layer_1" transform="translate(0 0)">
            <g id="Group_69422" data-name="Group 69422" transform="translate(0 0)">
              <g id="Group_69421" data-name="Group 69421" transform="translate(0 0)">
                <path id="Path_54541" data-name="Path 54541" d="M4.751.232,4.722.261H4.664L4.577.29,4.432.319,3.447.666l-.637.348-.087.029L2.665,1.1l-.174.087-.869.753-.058.087L1.217,2.4l-.579.927-.319.811L.29,4.2l-.029.087-.087.406v.145l-.087.377L0,5.939v.869l.029.145v.116l.058.348a.051.051,0,0,0,.058.058l.029-.029.087-.464.058-.145.058-.29L.782,5.272.84,5.185.9,5.07l.029-.116.7-1.3L1.8,3.418l.087-.087.029-.058.058-.058L2.057,3.1l.406-.406.232-.174L2.781,2.4l.377-.261.116-.058.058-.058.2-.087.116-.087.261-.116L4,1.68l.464-.2.29-.087.116-.058h.087L4.983,1.3h.029l.145-.058h.116V1.217H5.3l.29-.087L7.706.782h.116L7.938.753h.435l.2-.029L9.849.753q.058.058.058-.029L9.878.666,9.734.579,9.56.521,9.444.464,9.3.435,8.836.261H8.72L8.43.174,7.966.087H7.851L7.706.058,6.895,0,5.07.174H5.041L5.012.2H4.9Z" fill="#03012e"/>
              </g>
            </g>
          </g>
        </g>
        <g id="color-2" data-name="color" transform="translate(84.584 113.189) rotate(-83.019)">
          <g id="Group_69426" data-name="Group 69426" transform="translate(0 0)">
            <g id="Group_69425" data-name="Group 69425">
              <g id="Group_69424" data-name="Group 69424">
                <path id="Path_54542" data-name="Path 54542" d="M38.4,27.752a4.312,4.312,0,0,1-2,2.9,2.926,2.926,0,0,1-3.467-.094,3.7,3.7,0,0,1-.531.593,5.679,5.679,0,0,1-2.28,1.468A2.985,2.985,0,0,1,26.6,31.468a9.176,9.176,0,0,1-2.9,3.716,4.165,4.165,0,0,1-3.4,1.093,5.171,5.171,0,0,1-2.467-1.187,6.318,6.318,0,0,1-1.5-2.686q-.718,1.53-2.03,1.093A3.224,3.224,0,0,1,12.575,32a3.579,3.579,0,0,1-1.343,1.593,2.111,2.111,0,0,1-1.967.094A4.25,4.25,0,0,1,8.2,32.811a3.294,3.294,0,0,1-.656-1.187,3.66,3.66,0,0,1,.75-3.9.6.6,0,0,1-.906-.344.979.979,0,0,1,.344-1.187q-1.843.906-3.591-.906A3.977,3.977,0,0,1,3.3,20.756a3.26,3.26,0,0,1-2.373-.75l-.281-.281a1.7,1.7,0,0,1-.437-.781,2.7,2.7,0,0,1-.156-1.53q.593-2.748,3.029-2.5a.986.986,0,0,1,.75.344,1.514,1.514,0,0,0,.219.187.428.428,0,0,0,.25.156.587.587,0,0,1-.156-.344.9.9,0,0,1,.094-.687,1.344,1.344,0,0,1,.812-.593,3.226,3.226,0,0,1-2.53-3.092,3.773,3.773,0,0,1,2.03-3.373A8.743,8.743,0,0,1,4.143,6.2,1.5,1.5,0,0,1,4.174,5.3a.858.858,0,0,1,.375-.562,1.585,1.585,0,0,1,2.186,0,1.388,1.388,0,0,1,.187.437,3.779,3.779,0,0,1,.031,1.749.406.406,0,0,0,.312,0A5.673,5.673,0,0,1,8.328,7.2,2.166,2.166,0,0,1,9.733,8.389q-.125-.656-.156-1a1.735,1.735,0,0,1,.344-.781.836.836,0,0,1,.781-.344l.344.156a2.023,2.023,0,0,1-.531-2,1.377,1.377,0,0,1,.656-1,2.8,2.8,0,0,1,.625-.25,3.017,3.017,0,0,1,1.593.562.788.788,0,0,0,.094.187,1.355,1.355,0,0,1,.219.5,2.818,2.818,0,0,1-.094,1.624,3.918,3.918,0,0,1,1.561-.125q.781.219,1.593.5a2.2,2.2,0,0,0,.531-.125,2.005,2.005,0,0,1,1.468.531,4.245,4.245,0,0,1,4.56-.156l2.249.187.344.25A8.207,8.207,0,0,1,26,5.891a2.085,2.085,0,0,1,.375-1,2.556,2.556,0,0,1,1.312-1.249,1.594,1.594,0,0,1,.968-.187,1.386,1.386,0,0,1,.25-.125A2.347,2.347,0,0,1,29.1,1.05a2.041,2.041,0,0,1,2.28-1,2.035,2.035,0,0,1,1.655,1.561,2.251,2.251,0,0,1-.344,2,1.91,1.91,0,0,1-1.218.937,7.148,7.148,0,0,1,1.811,2.561,3.344,3.344,0,0,1,.375,1.53,3.826,3.826,0,0,1-1.156,2.53q1-.344.625.75.468-.75,1.031-.562.531.156.75,1.062a3.292,3.292,0,0,1,.219-1.374,2.645,2.645,0,0,1,1.53-1.437A2.789,2.789,0,0,1,39.4,9.95a2.719,2.719,0,0,1,.812.687q.281.437.562.968a3.161,3.161,0,0,1,.094,3.123,1.985,1.985,0,0,1-.468.531,3.776,3.776,0,0,1-3.061.874,6.979,6.979,0,0,1-.219,2.373,4.443,4.443,0,0,1-.718,1.624,2.592,2.592,0,0,1-1.655,1.218q.843.781-.031,1.468,2-.468,3.435,2.373a3.7,3.7,0,0,1,.25,2.561M13.294,20.943a.427.427,0,0,1,.031-.031.728.728,0,0,0-.094-.062A.268.268,0,0,1,13.294,20.943Z" fill="#24110f"/>
              </g>
            </g>
          </g>
        </g>
        <g id="scrunchy_shade" transform="translate(86.497 97.765) rotate(-83.019)">
          <g id="Group_69429" data-name="Group 69429" transform="translate(0 0)">
            <g id="Group_69428" data-name="Group 69428" transform="translate(0 0)">
              <g id="Group_69427" data-name="Group 69427">
                <path id="Path_54543" data-name="Path 54543" d="M4.56,3.212q-.375-.094-1.156-.25a6.654,6.654,0,0,0-1.156-.125H1.312a1.768,1.768,0,0,1-.906-.219A1.143,1.143,0,0,1,0,1.962a1.2,1.2,0,0,1,.25-.718,3.024,3.024,0,0,1,1.905-1A11.337,11.337,0,0,1,6.371.151a7.645,7.645,0,0,1,2.28.5,4.61,4.61,0,0,1,1.561,1.156q.375.5.25.75-.156.406-.937.656a8.4,8.4,0,0,1-2.249.219A21.8,21.8,0,0,1,4.56,3.212Z" fill="rgba(0,0,0,0.5)"/>
              </g>
            </g>
          </g>
        </g>
        <g id="scrunchy" transform="translate(87.174 97.187) rotate(-83.019)">
          <g id="Group_69432" data-name="Group 69432" transform="translate(0 0)">
            <g id="Group_69431" data-name="Group 69431" transform="translate(0)">
              <g id="Group_69430" data-name="Group 69430">
                <path id="Path_54544" data-name="Path 54544" d="M.125,2.655V2.623H.094V2.592L.062,2.436,0,2.061a1.96,1.96,0,0,1,.344-.843A2.507,2.507,0,0,1,1.843.156L2.155.062Q2.249.031,2.373,0L2.4.031A.511.511,0,0,0,2.53,0h.094l-1,.437-.5.281a2.427,2.427,0,0,0-.593.75l-.062.187.062.187.125.219.094.094.125.094.219.094H1.5l-.718.125a2.742,2.742,0,0,0-.468.187.93.93,0,0,1-.094.125.2.2,0,0,1-.094-.125M1.718,5.215a.952.952,0,0,0-.312.219l-.281.375v.062L1.062,5.9a.24.24,0,0,0-.094-.031H.937a.552.552,0,0,1-.25-.156L.375,5.372A.028.028,0,0,0,.344,5.34a.363.363,0,0,0-.062-.094,1.429,1.429,0,0,1-.219-.968,1.6,1.6,0,0,1,.125-.593,2.6,2.6,0,0,1,.5-.375.028.028,0,0,0,.031-.031l.219-.125a.336.336,0,0,1,.187-.062.486.486,0,0,0-.25.25.385.385,0,0,0-.187.281l-.062.312v.406l.031.125L.874,5a.3.3,0,0,0,.344-.031l.219-.187.219-.094q.125.031.281.062l.25.094-.468.375m7.214-1.5H8.869a2.345,2.345,0,0,1-.25-.219l-.5-.344a6.146,6.146,0,0,0-1.218-.5,7.51,7.51,0,0,0-1.249-.593q-.031,0-.062-.062L4.5,1.686a.694.694,0,0,1-.219-.094l.219.031a9.356,9.356,0,0,1,3.5.937q.625.344.843-.031a.493.493,0,0,0,.031-.562l-.25-.5a4.781,4.781,0,0,1,.718.75v.031a.589.589,0,0,1-.031.187v.156L9.244,3a.589.589,0,0,1-.031.187L9.119,3.4l-.187.312M7.964,6.777a1.222,1.222,0,0,1-.281-.156H7.651a5.144,5.144,0,0,1-.437-.281l-.375-.219a.028.028,0,0,1-.031-.031H6.777a.028.028,0,0,1-.031-.031A12.147,12.147,0,0,0,3.966,4.622L3.185,4.4a4.9,4.9,0,0,0-1.124-.125.392.392,0,0,1,.094-.156h.219l1.312.125a4.693,4.693,0,0,1,.75.125A9.086,9.086,0,0,1,6.277,5a4.1,4.1,0,0,1,1.062.531q.656.312.874.094A.42.42,0,0,0,8.37,5.34l.25.625a.09.09,0,0,0-.031.062L8.619,6A1.259,1.259,0,0,1,7.964,6.777Z" transform="translate(0.094 0.549)" fill="#fff099"/>
                <path id="Path_54545" data-name="Path 54545" d="M0,0A.24.24,0,0,1,.094.031H.031A.028.028,0,0,1,0,0M6.714.75A1.222,1.222,0,0,0,7,.906a.514.514,0,0,0-.156.031A.3.3,0,0,1,6.714.75Z" transform="translate(1.062 6.42)" fill="#6e199a"/>
                <path id="Path_54546" data-name="Path 54546" d="M1.187,4.747l-.219.094L.75,5.028a.3.3,0,0,1-.344.031L.187,4.528l.125.094.874.125M8.37,2.592q-.219.375-.843.031a9.356,9.356,0,0,0-3.5-.937L3.81,1.655a7.945,7.945,0,0,0-2.717.031q-.219.125-.187.219a.455.455,0,0,1,.187-.062,7.474,7.474,0,0,1,2.655.437A5.514,5.514,0,0,0,2,2.249L.968,2.4H.625L.406,2.311.281,2.217.187,2.124.062,1.905,0,1.718.062,1.53A2.427,2.427,0,0,1,.656.781L1.156.5l1-.437H2.061Q2.592.031,3.279,0A9,9,0,0,1,6.527.531a4.87,4.87,0,0,1,1.624,1l.25.5a.493.493,0,0,1-.031.562m-.656,2.5L7.9,5.4a.42.42,0,0,1-.156.281q-.219.219-.874-.094a4.1,4.1,0,0,0-1.062-.531,9.086,9.086,0,0,0-1.843-.625,4.693,4.693,0,0,0-.75-.125L1.905,4.185H1.686a.392.392,0,0,0-.094.156,6.052,6.052,0,0,0-1.249.125.212.212,0,0,0-.156.062L.156,4.4V4l.062-.312A.385.385,0,0,1,.406,3.4a.486.486,0,0,1,.25-.25,5.011,5.011,0,0,1,1.156-.375A6.909,6.909,0,0,1,2.9,2.623,7.33,7.33,0,0,1,4.06,2.592,17.48,17.48,0,0,1,6.277,3.841,5.59,5.59,0,0,1,7.714,5.09Z" transform="translate(0.562 0.486)" fill="#ffe032"/>
                <path id="Path_54547" data-name="Path 54547" d="M9.431,2.766a4.781,4.781,0,0,0-.718-.75,4.87,4.87,0,0,0-1.624-1A9,9,0,0,0,3.841.486Q3.154.518,2.623.549A.511.511,0,0,1,2.5.58L2.467.549Q2.342.58,2.249.611L1.936.7a2.507,2.507,0,0,0-1.5,1.062,1.96,1.96,0,0,0-.344.843l.062.375A3.457,3.457,0,0,1,0,2.11,6.073,6.073,0,0,1,.187,1.33,1.652,1.652,0,0,1,1.062.486,4.285,4.285,0,0,1,2.249.143,11.168,11.168,0,0,1,5.34.08a12.271,12.271,0,0,1,3.435,1.28,2.485,2.485,0,0,1,.656,1.405M6.839,6.607q-.125-.062-.281-.125L5.434,6.108a20.758,20.758,0,0,0-2.217-.531l-.187.094q-1.5.625-1.811.75V6.358L1.5,5.983a.952.952,0,0,1,.312-.219l.468-.375L2.03,5.3q-.156-.031-.281-.062L.874,5.108.75,5.015a.212.212,0,0,1,.156-.062,6.052,6.052,0,0,1,1.249-.125,4.9,4.9,0,0,1,1.124.125l.781.219A12.147,12.147,0,0,1,6.839,6.607m1.905-.375a1.161,1.161,0,0,1-.031.281l-.25-.625-.187-.312A5.59,5.59,0,0,0,6.839,4.328,17.48,17.48,0,0,0,4.622,3.078a7.33,7.33,0,0,0-1.156.031,6.909,6.909,0,0,0-1.093.156,5.011,5.011,0,0,0-1.156.375.336.336,0,0,0-.187.062l-.219.125a.028.028,0,0,1-.031.031,2.6,2.6,0,0,0-.5.375,4.309,4.309,0,0,1,.312-.625H.562a.662.662,0,0,1-.25-.281A.93.93,0,0,0,.406,3.2a2.742,2.742,0,0,1,.468-.187l.718-.125H1.53l1.031-.156a5.515,5.515,0,0,1,1.749.031,7.474,7.474,0,0,0-2.655-.437.455.455,0,0,0-.187.062q-.031-.094.187-.219a7.945,7.945,0,0,1,2.717-.031.694.694,0,0,0,.219.094l1.093.312q.031.062.062.062A7.51,7.51,0,0,1,7,3.2a6.146,6.146,0,0,1,1.218.5l.5.344a2.346,2.346,0,0,0,.25.219h.031a.643.643,0,0,1-.25.312,4.378,4.378,0,0,1,.062,1.28v.094Z" fill="#947e00"/>
              </g>
            </g>
          </g>
        </g>
        <g id="extra_hair" transform="translate(87.965 103.703) rotate(-83.019)">
          <g id="Group_69435" data-name="Group 69435" transform="translate(0 0)">
            <g id="Group_69434" data-name="Group 69434" transform="translate(0 0)">
              <g id="Group_69433" data-name="Group 69433">
                <path id="Path_54548" data-name="Path 54548" d="M14.147,7.217A1.819,1.819,0,0,1,14.3,6.5L12.4,6.405l-.406-.718-.718.062a.409.409,0,0,1-.187-.187,4.534,4.534,0,0,0-.687-.968.193.193,0,0,0-.219-.062,1.755,1.755,0,0,1-.031.344q0,.906-.843.874l-.344.468q-.156.062-.281.125a2.135,2.135,0,0,1-1.624-.874l-.437-.156-.874-.125a.638.638,0,0,0,0,.281,5.105,5.105,0,0,0,.437,1.156,2.322,2.322,0,0,1,.156.656,1.763,1.763,0,0,1,0,.468A.474.474,0,0,1,6.059,8a.969.969,0,0,1-.906.219Q4.778,8,4.372,7.779A2.317,2.317,0,0,0,1.53,8q-.071.044-.156.094L0,6.842A12.492,12.492,0,0,1,1.593,5.187a2.55,2.55,0,0,1,2.061-.5Q3,1.846,5.528,1.221a2.507,2.507,0,0,1,1.718.156A1.1,1.1,0,0,1,7.87,2.5,3.147,3.147,0,0,1,8.744.6a2.251,2.251,0,0,1,2.03-.562,2.18,2.18,0,0,1,1.843,1.343A1.847,1.847,0,0,1,12.773,3q1.28-1.964,2.873-1.624A3.307,3.307,0,0,1,18.02,3.095Z" fill="#24110f"/>
              </g>
            </g>
          </g>
        </g>
        <g id="shading" transform="translate(84.821 113.212) rotate(-83.019)">
          <g id="Group_69438" data-name="Group 69438" transform="translate(0 0)">
            <g id="Group_69437" data-name="Group 69437" transform="translate(0)">
              <g id="Group_69436" data-name="Group 69436">
                <path id="Path_54549" data-name="Path 54549" d="M5.73,6.964a3.228,3.228,0,0,1,1.811-.187,4.383,4.383,0,0,1,3.31,2.655A3.171,3.171,0,0,1,14.1,11.586a6.037,6.037,0,0,1,.468,2.28,6.191,6.191,0,0,0-1.936-2.686,2.831,2.831,0,0,0-2.561-.562q.441-1.2-1.187-2.436A5.144,5.144,0,0,0,5.73,6.964M.89,16.427a1.731,1.731,0,0,0-.5.687q-.031.125-.312.874a2.758,2.758,0,0,1,1.062-2.936,2.051,2.051,0,0,1,2.936.25q-.031-2.28,2.842-1.405a4.652,4.652,0,0,1,3.467,2.967q-1.624-2.186-3.529-2.092a2.788,2.788,0,0,0-2.561,1.967Q2.2,15.209.89,16.427m7.5,1.843a2.511,2.511,0,0,1,2.873.125q.5-.219,1-.468a2,2,0,0,1,2.249.25,2.513,2.513,0,0,1,.937,2.373,4.789,4.789,0,0,0-1.062-1.53q-1.374-1.249-3.029.375a2.263,2.263,0,0,0-3.029-.156A3.547,3.547,0,0,0,7.26,20.581Q4.575,20.393,3.981,22.2a3.787,3.787,0,0,0,.344,3,2.658,2.658,0,0,1-.75-.718,3.939,3.939,0,0,1-.656-2.53q.156-3.092,4.06-2.249A3.032,3.032,0,0,1,8.385,18.27m14.4-13.741a3.069,3.069,0,0,1,2-1.249,2.475,2.475,0,0,1,2.061.562,3.25,3.25,0,0,1,1.936-.812,1.86,1.86,0,0,1-.187-1.374,1.374,1.374,0,0,1,.25-.562A3.814,3.814,0,0,1,29.808,0a4.92,4.92,0,0,0-.625,1.405A3.761,3.761,0,0,0,29.59,3.5a2.256,2.256,0,0,0-1.624.687q-.718.625-.656,1.062a3.058,3.058,0,0,0-2.5-.625A5.671,5.671,0,0,0,22.22,5.809a2.854,2.854,0,0,0-1.593-2.686q-1.6-.951-2.842,2.655L17.754,4.4q.344-2.561,2.4-2.53t2.623,2.655m10.462,8.057q-.437.75-1.343,2.717a4.144,4.144,0,0,0-1.374-1.343q-1.155-.406-2.217,1.749a4.237,4.237,0,0,0-1.967.031q-.75.406-.843,2.28a2.407,2.407,0,0,1,.437-2.717,2.144,2.144,0,0,1,1.936-.656q1.249-1.811,2.436-1.593a3.773,3.773,0,0,1,1.562,1.062,14.827,14.827,0,0,1,1.124-2.28q.968-1.374,1.811-.187a2.589,2.589,0,0,1,1.343-2,2.7,2.7,0,0,1,1.936-.437,4.956,4.956,0,0,0-1.218.593,4.113,4.113,0,0,0-1,1.062,3.184,3.184,0,0,0-.531,1.936q-1.343-1.53-2.092-.219m4.091,11.055a2.331,2.331,0,0,1,.531,1.031,3.555,3.555,0,0,0-3.56-1.156,6.192,6.192,0,0,0-2.561.874,5.771,5.771,0,0,1,1.312-1.218,3.126,3.126,0,0,1,1.843-.687A3.054,3.054,0,0,1,37.335,23.641Z"/>
              </g>
            </g>
          </g>
        </g>
        <g id="light-2" data-name="light" transform="translate(84.904 110.698) rotate(-83.019)">
          <g id="Group_69441" data-name="Group 69441" transform="translate(0 0)">
            <g id="Group_69440" data-name="Group 69440">
              <g id="Group_69439" data-name="Group 69439">
                <path id="Path_54550" data-name="Path 54550" d="M9.408,5.969a10.238,10.238,0,0,0,1.374,1.312A4.974,4.974,0,0,1,8.158,5.907,1.938,1.938,0,0,1,7.784,4.47,1.807,1.807,0,0,1,10.22,3.1a2.878,2.878,0,0,1,1.062,1.031,3.124,3.124,0,0,1,1.749-.812,2.5,2.5,0,0,1,1.5.187,1.379,1.379,0,0,1,.718,1.374,2.858,2.858,0,0,1,1.468,2.311,4.406,4.406,0,0,1-1.655,3.435A4.981,4.981,0,0,0,16,7.656a2.71,2.71,0,0,0-1.343-2.092q-.2-1.423-1.5-1.343A2.859,2.859,0,0,0,11,5.345a4.038,4.038,0,0,0-1-1.53.879.879,0,0,0-1.312.125q-.562.593.718,2.03m-8.338,5.4A2.26,2.26,0,0,0,2.381,12.9a7.309,7.309,0,0,0,3.029.281q-.187,1.156.687,1.5a1.891,1.891,0,0,0,1.031.094,1.872,1.872,0,0,1-1.187.406q-.562-.031-1.031-.812l-2.5-.5A2.975,2.975,0,0,1,.039,11.31Q-.274,9.249,1.944,7.468A2.342,2.342,0,0,1,1.756,5,1.72,1.72,0,0,1,3.6,4.345,1.45,1.45,0,0,0,2.287,5.438a2,2,0,0,0,0,1,2.125,2.125,0,0,0,.75.937q-2.523,1.8-1.967,4m6.9,15.022q2.092,1.343,5.34.25A5.765,5.765,0,0,1,9.5,28.08a4.62,4.62,0,0,1-3.529-2.249,3.746,3.746,0,0,1-1.718.687,2.348,2.348,0,0,1-2.342-1.093,2.919,2.919,0,0,0,2.03.375A3.724,3.724,0,0,0,6.222,24.4a4.3,4.3,0,0,0,1.749,2m9.4,9.869q-2.5-.531-3.591-3.748a1.458,1.458,0,0,1-1.124,1,1.9,1.9,0,0,1-1.561-.25q-2-1.187-.437-4.435-.187,2.561.874,3.154t2.655-1.437q2.061,6.714,7.245,4.372a4.107,4.107,0,0,1-4.06,1.343M33.829,14.839a1.768,1.768,0,0,0,1.5.281,2.432,2.432,0,0,0,1.468-.906q1.5-1.843-.687-4.591a3.838,3.838,0,0,1,1.78,1.156,3.49,3.49,0,0,1,.906,2.467,2.852,2.852,0,0,1-1.343,2.311,3.187,3.187,0,0,1-2.655.625A4.814,4.814,0,0,1,33.767,20.3q-1.593,1.749-4.809,1.468a6.563,6.563,0,0,0,3.092-1.124q2.873-1.874,1.78-5.809M27.9,4.6q2.03-1.249,1.718-2.811A2.239,2.239,0,0,0,28.052,0a2.269,2.269,0,0,1,2.655,1.78,1.99,1.99,0,0,1-.344,1.593,2.762,2.762,0,0,1-1.374,1.156,7.784,7.784,0,0,1,2.03,3.154q.812,2.842-2.717,4.56a3.372,3.372,0,0,0,1.405-1.811q.843-2.5-1.811-5.84M33.7,29.985a4.107,4.107,0,0,0,2.217-2.592,4.619,4.619,0,0,1-1.343,2.842,3.381,3.381,0,0,1-4.06.468,5.777,5.777,0,0,1-3.873,2.155q-2,.031-3.217-2.342a4.022,4.022,0,0,0,3.279,1.374q2.092-.156,3.154-2.748Q31.893,30.828,33.7,29.985Z" fill="#4f403f"/>
              </g>
            </g>
          </g>
        </g>
        <g id="color-3" data-name="color" transform="translate(98.128 0) rotate(45.476)">
          <g id="Group_69444" data-name="Group 69444" transform="translate(0 0)">
            <g id="Group_69443" data-name="Group 69443">
              <g id="Group_69442" data-name="Group 69442">
                <path id="Path_54551" data-name="Path 54551" d="M38.4,8.592a4.312,4.312,0,0,0-2-2.9,2.926,2.926,0,0,0-3.467.094,3.7,3.7,0,0,0-.531-.593,5.679,5.679,0,0,0-2.28-1.468A2.985,2.985,0,0,0,26.6,4.876a9.176,9.176,0,0,0-2.9-3.716A4.165,4.165,0,0,0,20.29.066a5.171,5.171,0,0,0-2.467,1.187,6.319,6.319,0,0,0-1.5,2.686q-.718-1.53-2.03-1.093a3.224,3.224,0,0,0-1.718,1.5,3.579,3.579,0,0,0-1.343-1.593,2.111,2.111,0,0,0-1.968-.094A4.25,4.25,0,0,0,8.2,3.533,3.294,3.294,0,0,0,7.547,4.72a3.661,3.661,0,0,0,.75,3.9.6.6,0,0,0-.906.344.979.979,0,0,0,.344,1.187q-1.843-.906-3.592.906A3.977,3.977,0,0,0,3.3,15.588a3.26,3.26,0,0,0-2.374.75l-.281.281a1.7,1.7,0,0,0-.437.781,2.7,2.7,0,0,0-.156,1.53q.593,2.748,3.029,2.5a.986.986,0,0,0,.75-.344A1.514,1.514,0,0,1,4.05,20.9a.428.428,0,0,1,.25-.156.587.587,0,0,0-.156.344.9.9,0,0,0,.094.687,1.344,1.344,0,0,0,.812.593,3.226,3.226,0,0,0-2.53,3.092,3.773,3.773,0,0,0,2.03,3.373,8.744,8.744,0,0,0-.406,1.312,1.5,1.5,0,0,0,.031.906.858.858,0,0,0,.375.562,1.585,1.585,0,0,0,2.186,0,1.388,1.388,0,0,0,.187-.437,3.779,3.779,0,0,0,.031-1.749.406.406,0,0,1,.312,0,5.673,5.673,0,0,0,1.062-.281,2.166,2.166,0,0,0,1.405-1.187q-.125.656-.156,1a1.735,1.735,0,0,0,.344.781.836.836,0,0,0,.781.344l.344-.156a2.023,2.023,0,0,0-.531,2,1.377,1.377,0,0,0,.656,1,2.8,2.8,0,0,0,.625.25,3.017,3.017,0,0,0,1.593-.562.788.788,0,0,1,.094-.187,1.355,1.355,0,0,0,.219-.5,2.819,2.819,0,0,0-.094-1.624,3.918,3.918,0,0,0,1.562.125q.781-.219,1.593-.5a2.2,2.2,0,0,1,.531.125,2.006,2.006,0,0,0,1.468-.531,4.245,4.245,0,0,0,4.56.156l2.249-.187.344-.25A8.207,8.207,0,0,0,26,30.454a2.085,2.085,0,0,0,.375,1A2.556,2.556,0,0,0,27.691,32.7a1.594,1.594,0,0,0,.968.187,1.386,1.386,0,0,0,.25.125,2.347,2.347,0,0,0,.187,2.28,2.159,2.159,0,0,0,3.935-.562,2.251,2.251,0,0,0-.344-2A1.91,1.91,0,0,0,31.47,31.8a7.148,7.148,0,0,0,1.811-2.561,3.344,3.344,0,0,0,.375-1.53,3.826,3.826,0,0,0-1.156-2.53q1,.344.625-.75.468.75,1.031.562.531-.156.75-1.062a3.292,3.292,0,0,0,.219,1.374,2.645,2.645,0,0,0,1.53,1.437,2.789,2.789,0,0,0,2.748-.344,2.719,2.719,0,0,0,.812-.687q.281-.437.562-.968a3.161,3.161,0,0,0,.094-3.123,1.985,1.985,0,0,0-.468-.531,3.776,3.776,0,0,0-3.061-.874,6.979,6.979,0,0,0-.219-2.374,4.443,4.443,0,0,0-.718-1.624,2.592,2.592,0,0,0-1.655-1.218q.843-.781-.031-1.468,2,.468,3.435-2.374a3.7,3.7,0,0,0,.25-2.561M13.294,15.4a.427.427,0,0,0,.031.031.727.727,0,0,1-.094.062A.268.268,0,0,0,13.294,15.4Z" fill="#24110f"/>
              </g>
            </g>
          </g>
        </g>
        <g id="scrunchy_shade-2" data-name="scrunchy_shade" transform="translate(85.578 34.144) rotate(45.476)">
          <g id="Group_69447" data-name="Group 69447" transform="translate(0 0)">
            <g id="Group_69446" data-name="Group 69446">
              <g id="Group_69445" data-name="Group 69445">
                <path id="Path_54552" data-name="Path 54552" d="M4.56.219Q4.185.312,3.4.468A6.654,6.654,0,0,1,2.249.593H1.312A1.768,1.768,0,0,0,.406.812,1.143,1.143,0,0,0,0,1.468a1.2,1.2,0,0,0,.25.718,3.024,3.024,0,0,0,1.905,1,11.337,11.337,0,0,0,4.216.094,7.645,7.645,0,0,0,2.28-.5,4.61,4.61,0,0,0,1.562-1.156q.375-.5.25-.75Q10.306.468,9.525.219A8.4,8.4,0,0,0,7.277,0,21.8,21.8,0,0,0,4.56.219Z" fill="rgba(0,0,0,0.5)"/>
              </g>
            </g>
          </g>
        </g>
        <g id="scrunchy-2" data-name="scrunchy" transform="translate(89.266 31.436) rotate(45.476)">
          <g id="Group_69450" data-name="Group 69450" transform="translate(0 0)">
            <g id="Group_69449" data-name="Group 69449" transform="translate(0 0)">
              <g id="Group_69448" data-name="Group 69448">
                <path id="Path_54553" data-name="Path 54553" d="M.125,4.122v.031H.094v.031l-.031.156L0,4.716a1.96,1.96,0,0,0,.344.843,2.507,2.507,0,0,0,1.5,1.062l.312.094q.094.031.219.062L2.4,6.746a.511.511,0,0,1,.125.031h.094l-1-.437-.5-.281a2.427,2.427,0,0,1-.593-.75L.468,5.122l.062-.187.125-.219L.75,4.622l.125-.094.219-.094H1.5L.781,4.31a2.742,2.742,0,0,1-.468-.187A.93.93,0,0,0,.219,4a.2.2,0,0,0-.094.125M1.718,1.562a.952.952,0,0,1-.312-.219L1.124.968V.906L1.062.874A.24.24,0,0,1,.968.906H.937a.552.552,0,0,0-.25.156l-.312.344a.028.028,0,0,1-.031.031.363.363,0,0,1-.062.094A1.429,1.429,0,0,0,.062,2.5a1.6,1.6,0,0,0,.125.593,2.6,2.6,0,0,0,.5.375A.028.028,0,0,1,.718,3.5l.219.125a.336.336,0,0,0,.187.062.486.486,0,0,1-.25-.25.385.385,0,0,1-.187-.281L.625,2.842V2.436l.031-.125L.874,1.78a.3.3,0,0,1,.344.031L1.437,2l.219.094q.125-.031.281-.062l.25-.094-.468-.375m7.214,1.5H8.87a2.345,2.345,0,0,0-.25.219l-.5.344a6.146,6.146,0,0,1-1.218.5,7.51,7.51,0,0,1-1.249.593q-.031,0-.062.062L4.5,5.091a.694.694,0,0,0-.219.094L4.5,5.153A9.356,9.356,0,0,0,8,4.216q.625-.344.843.031a.493.493,0,0,1,.031.562l-.25.5a4.781,4.781,0,0,0,.718-.75V4.528a.589.589,0,0,0-.031-.187V4.185l-.062-.406a.59.59,0,0,0-.031-.187l-.094-.219-.187-.312M7.964,0a1.222,1.222,0,0,0-.281.156H7.652a5.144,5.144,0,0,0-.437.281L6.84.656a.028.028,0,0,0-.031.031H6.777a.028.028,0,0,0-.031.031,12.147,12.147,0,0,1-2.78,1.437l-.781.219A4.9,4.9,0,0,1,2.061,2.5a.392.392,0,0,0,.094.156h.219L3.685,2.53a4.693,4.693,0,0,0,.75-.125A9.086,9.086,0,0,0,6.277,1.78a4.1,4.1,0,0,0,1.062-.531Q8,.937,8.214,1.156a.42.42,0,0,1,.156.281L8.62.812A.09.09,0,0,1,8.588.75L8.62.781A1.259,1.259,0,0,0,7.964,0Z" transform="translate(0.094 0.031)" fill="#fff099"/>
                <path id="Path_54554" data-name="Path 54554" d="M0,.937A.24.24,0,0,0,.094.906H.031A.028.028,0,0,0,0,.937M6.715.187A1.222,1.222,0,0,1,7,.031.514.514,0,0,1,6.84,0,.3.3,0,0,0,6.715.187Z" transform="translate(1.062 0)" fill="#6e199a"/>
                <path id="Path_54555" data-name="Path 54555" d="M1.187,1.027.968.933.75.746A.3.3,0,0,0,.406.715l-.219.531.125-.094.874-.125M8.37,3.182q-.219-.375-.843-.031a9.356,9.356,0,0,1-3.5.937l-.219.031a7.945,7.945,0,0,1-2.717-.031Q.874,3.963.906,3.869a.455.455,0,0,0,.187.062,7.474,7.474,0,0,0,2.655-.437A5.515,5.515,0,0,1,2,3.525L.968,3.369H.625l-.219.094-.125.094L.187,3.65l-.125.219L0,4.056l.062.187a2.427,2.427,0,0,0,.593.75l.5.281,1,.437H2.061q.531.031,1.218.062a9,9,0,0,0,3.248-.531,4.87,4.87,0,0,0,1.624-1l.25-.5a.493.493,0,0,0-.031-.562M7.714.683,7.9.371A.42.42,0,0,0,7.745.09q-.219-.219-.874.094A4.1,4.1,0,0,1,5.809.715a9.086,9.086,0,0,1-1.843.625,4.693,4.693,0,0,1-.75.125l-1.312.125H1.686a.392.392,0,0,1-.094-.156A6.052,6.052,0,0,1,.344,1.308a.212.212,0,0,1-.156-.062L.156,1.37v.406l.062.312a.385.385,0,0,0,.187.281.486.486,0,0,0,.25.25,5.011,5.011,0,0,0,1.156.375A6.909,6.909,0,0,0,2.9,3.151a7.33,7.33,0,0,0,1.156.031A17.48,17.48,0,0,0,6.277,1.933,5.59,5.59,0,0,0,7.714.683Z" transform="translate(0.562 1.097)" fill="#ffe032"/>
                <path id="Path_54556" data-name="Path 54556" d="M9.432,3.841a4.781,4.781,0,0,1-.718.75,4.87,4.87,0,0,1-1.624,1,9,9,0,0,1-3.248.531q-.687-.031-1.218-.062A.511.511,0,0,0,2.5,6.028l-.031.031Q2.342,6.028,2.249,6L1.936,5.9a2.507,2.507,0,0,1-1.5-1.062A1.96,1.96,0,0,1,.094,4l.062-.375A3.457,3.457,0,0,0,0,4.5a6.073,6.073,0,0,0,.187.781,1.652,1.652,0,0,0,.874.843,4.286,4.286,0,0,0,1.187.344,11.168,11.168,0,0,0,3.092.062,12.271,12.271,0,0,0,3.435-1.28,2.485,2.485,0,0,0,.656-1.405M6.84,0q-.125.062-.281.125L5.434.5a20.758,20.758,0,0,1-2.217.531L3.029.937Q1.53.312,1.218.187V.25L1.5.625a.952.952,0,0,0,.312.219l.468.375-.25.094q-.156.031-.281.062L.874,1.5.75,1.593a.212.212,0,0,0,.156.062,6.052,6.052,0,0,0,1.249.125,4.9,4.9,0,0,0,1.124-.125l.781-.219A12.147,12.147,0,0,0,6.84,0M8.745.375A1.161,1.161,0,0,0,8.713.094l-.25.625-.187.312A5.59,5.59,0,0,1,6.84,2.28,17.48,17.48,0,0,1,4.622,3.529,7.331,7.331,0,0,1,3.467,3.5a6.909,6.909,0,0,1-1.093-.156,5.011,5.011,0,0,1-1.156-.375A.336.336,0,0,1,1.031,2.9L.812,2.78a.028.028,0,0,0-.031-.031,2.6,2.6,0,0,1-.5-.375A4.309,4.309,0,0,0,.593,3H.562a.662.662,0,0,0-.25.281A.931.931,0,0,1,.406,3.4a2.742,2.742,0,0,0,.468.187l.718.125H1.53l1.031.156A5.515,5.515,0,0,0,4.31,3.841a7.474,7.474,0,0,1-2.655.437.455.455,0,0,1-.187-.062q-.031.094.187.219a7.945,7.945,0,0,0,2.717.031.694.694,0,0,1,.219-.094L5.684,4.06Q5.715,4,5.746,4A7.51,7.51,0,0,0,7,3.4a6.146,6.146,0,0,0,1.218-.5l.5-.344a2.345,2.345,0,0,1,.25-.219h.031a.643.643,0,0,0-.25-.312A4.378,4.378,0,0,0,8.807.75V.656Z" transform="translate(0 0.75)" fill="#947e00"/>
              </g>
            </g>
          </g>
        </g>
        <g id="extra_hair-2" data-name="extra_hair" transform="translate(86.559 25.162) rotate(45.476)">
          <g id="Group_69453" data-name="Group 69453" transform="translate(0 0)">
            <g id="Group_69452" data-name="Group 69452" transform="translate(0 0)">
              <g id="Group_69451" data-name="Group 69451">
                <path id="Path_54557" data-name="Path 54557" d="M14.148,1.033a1.819,1.819,0,0,0,.156.718L12.4,1.845l-.406.718L11.274,2.5a.409.409,0,0,0-.187.187,4.534,4.534,0,0,1-.687.968.193.193,0,0,1-.219.062,1.755,1.755,0,0,0-.031-.344q0-.906-.843-.874l-.344-.468q-.156-.062-.281-.125a2.135,2.135,0,0,0-1.624.874l-.437.156-.874.125a.638.638,0,0,1,0-.281,5.105,5.105,0,0,1,.437-1.156A2.322,2.322,0,0,0,6.34.97,1.763,1.763,0,0,0,6.34.5a.474.474,0,0,0-.281-.25A.969.969,0,0,0,5.153.033q-.375.219-.781.437A2.317,2.317,0,0,1,1.53.252Q1.459.208,1.374.158L0,1.407A12.493,12.493,0,0,0,1.593,3.063a2.55,2.55,0,0,0,2.061.5Q3,6.4,5.528,7.029a2.507,2.507,0,0,0,1.718-.156A1.1,1.1,0,0,0,7.87,5.749a3.147,3.147,0,0,0,.874,1.905,2.251,2.251,0,0,0,2.03.562,2.18,2.18,0,0,0,1.843-1.343,1.848,1.848,0,0,0,.156-1.624q1.28,1.964,2.873,1.624A3.307,3.307,0,0,0,18.02,5.155Z" fill="#24110f"/>
              </g>
            </g>
          </g>
        </g>
        <g id="shading-2" data-name="shading" transform="translate(90.359 7.65) rotate(45.476)">
          <g id="Group_69456" data-name="Group 69456" transform="translate(0 0)">
            <g id="Group_69455" data-name="Group 69455" transform="translate(0)">
              <g id="Group_69454" data-name="Group 69454">
                <path id="Path_54558" data-name="Path 54558" d="M5.73,18.239a3.228,3.228,0,0,0,1.811.187,4.384,4.384,0,0,0,3.31-2.655A3.171,3.171,0,0,0,14.1,13.617a6.037,6.037,0,0,0,.468-2.28,6.191,6.191,0,0,1-1.936,2.686,2.831,2.831,0,0,1-2.561.562q.441,1.2-1.187,2.436A5.145,5.145,0,0,1,5.73,18.239M.89,8.776a1.731,1.731,0,0,1-.5-.687Q.359,7.964.078,7.214A2.758,2.758,0,0,0,1.139,10.15,2.051,2.051,0,0,0,4.075,9.9q-.031,2.28,2.842,1.405a4.652,4.652,0,0,0,3.467-2.967Q8.76,10.525,6.855,10.431A2.788,2.788,0,0,1,4.294,8.464Q2.2,9.994.89,8.776m7.5-1.843a2.511,2.511,0,0,0,2.873-.125q.5.219,1,.468a2,2,0,0,0,2.249-.25,2.513,2.513,0,0,0,.937-2.374,4.789,4.789,0,0,1-1.062,1.53q-1.374,1.249-3.029-.375a2.263,2.263,0,0,1-3.029.156A3.547,3.547,0,0,1,7.261,4.622Q4.575,4.81,3.981,3a3.787,3.787,0,0,1,.344-3,2.658,2.658,0,0,0-.75.718,3.939,3.939,0,0,0-.656,2.53Q3.076,6.34,6.98,5.5A3.032,3.032,0,0,0,8.385,6.933m14.4,13.742a3.07,3.07,0,0,0,2,1.249,2.475,2.475,0,0,0,2.061-.562,3.25,3.25,0,0,0,1.936.812,1.86,1.86,0,0,0-.187,1.374,1.374,1.374,0,0,0,.25.562,3.814,3.814,0,0,0,.968,1.093,4.92,4.92,0,0,1-.625-1.405,3.761,3.761,0,0,1,.406-2.092,2.256,2.256,0,0,1-1.624-.687q-.718-.625-.656-1.062a3.058,3.058,0,0,1-2.5.625,5.671,5.671,0,0,1-2.592-1.187,2.854,2.854,0,0,1-1.593,2.686q-1.6.951-2.842-2.655L17.754,20.8q.344,2.561,2.4,2.53t2.623-2.655m10.462-8.058q-.437-.75-1.343-2.717a4.144,4.144,0,0,1-1.374,1.343q-1.156.406-2.217-1.749a4.237,4.237,0,0,1-1.968-.031q-.75-.406-.843-2.28A2.407,2.407,0,0,0,25.937,9.9a2.144,2.144,0,0,0,1.936.656q1.249,1.811,2.436,1.593a3.773,3.773,0,0,0,1.562-1.062,14.827,14.827,0,0,0,1.124,2.28q.968,1.374,1.811.187a2.589,2.589,0,0,0,1.343,2,2.7,2.7,0,0,0,1.936.437,4.957,4.957,0,0,1-1.218-.593,4.113,4.113,0,0,1-1-1.062,3.184,3.184,0,0,1-.531-1.936q-1.343,1.53-2.092.219M37.336,1.562A2.331,2.331,0,0,0,37.867.531a3.555,3.555,0,0,1-3.56,1.156A6.193,6.193,0,0,1,31.745.812,5.771,5.771,0,0,0,33.057,2.03a3.126,3.126,0,0,0,1.843.687A3.054,3.054,0,0,0,37.336,1.562Z"/>
              </g>
            </g>
          </g>
        </g>
        <g id="light-3" data-name="light" transform="translate(99.918 1.763) rotate(45.476)">
          <g id="Group_69459" data-name="Group 69459" transform="translate(0 0)">
            <g id="Group_69458" data-name="Group 69458">
              <g id="Group_69457" data-name="Group 69457">
                <path id="Path_54559" data-name="Path 54559" d="M9.408,30.4a10.238,10.238,0,0,1,1.374-1.312,4.974,4.974,0,0,0-2.623,1.374A1.938,1.938,0,0,0,7.784,31.9a1.807,1.807,0,0,0,2.436,1.374,2.878,2.878,0,0,0,1.062-1.031,3.124,3.124,0,0,0,1.749.812,2.5,2.5,0,0,0,1.5-.187,1.379,1.379,0,0,0,.718-1.374,2.858,2.858,0,0,0,1.468-2.311,4.406,4.406,0,0,0-1.655-3.435A4.981,4.981,0,0,1,16,28.714a2.71,2.71,0,0,1-1.343,2.092q-.2,1.423-1.5,1.343A2.859,2.859,0,0,1,11,31.025a4.038,4.038,0,0,1-1,1.53.879.879,0,0,1-1.312-.125q-.562-.593.718-2.03M1.069,25a2.26,2.26,0,0,1,1.312-1.53,7.309,7.309,0,0,1,3.029-.281q-.187-1.156.687-1.5a1.891,1.891,0,0,1,1.031-.094,1.872,1.872,0,0,0-1.187-.406q-.562.031-1.031.812l-2.5.5A2.975,2.975,0,0,0,.039,25.06Q-.274,27.121,1.944,28.9a2.342,2.342,0,0,0-.187,2.467,1.721,1.721,0,0,0,1.843.656,1.451,1.451,0,0,1-1.312-1.093,2,2,0,0,1,0-1A2.125,2.125,0,0,1,3.037,29Q.513,27.2,1.069,25m6.9-15.022q2.092-1.343,5.34-.25A5.766,5.766,0,0,0,9.5,8.289a4.62,4.62,0,0,0-3.529,2.249,3.746,3.746,0,0,0-1.718-.687,2.348,2.348,0,0,0-2.342,1.093,2.919,2.919,0,0,1,2.03-.375,3.724,3.724,0,0,1,2.28,1.405,4.3,4.3,0,0,1,1.749-2m9.4-9.869q-2.5.531-3.592,3.748a1.458,1.458,0,0,0-1.124-1,1.9,1.9,0,0,0-1.562.25q-2,1.187-.437,4.435-.187-2.561.874-3.154t2.655,1.437Q16.247-.893,21.432,1.45A4.107,4.107,0,0,0,17.372.107M33.83,21.531a1.768,1.768,0,0,1,1.5-.281,2.432,2.432,0,0,1,1.468.906Q38.3,24,36.11,26.746a3.838,3.838,0,0,0,1.78-1.156,3.491,3.491,0,0,0,.906-2.467,2.852,2.852,0,0,0-1.343-2.311,3.187,3.187,0,0,0-2.655-.625,4.814,4.814,0,0,0-1.031-4.122q-1.593-1.749-4.81-1.468a6.563,6.563,0,0,1,3.092,1.124q2.873,1.874,1.78,5.809M27.9,31.775q2.03,1.249,1.718,2.811a2.239,2.239,0,0,1-1.562,1.78,2.269,2.269,0,0,0,2.655-1.78,1.99,1.99,0,0,0-.344-1.593,2.762,2.762,0,0,0-1.374-1.156,7.784,7.784,0,0,0,2.03-3.154q.812-2.842-2.717-4.56a3.372,3.372,0,0,1,1.405,1.811q.843,2.5-1.811,5.84M33.705,6.384a4.107,4.107,0,0,1,2.217,2.592A4.619,4.619,0,0,0,34.58,6.134a3.382,3.382,0,0,0-4.06-.468,5.777,5.777,0,0,0-3.873-2.155q-2-.031-3.217,2.342A4.022,4.022,0,0,1,26.71,4.479q2.092.156,3.154,2.748Q31.894,5.541,33.705,6.384Z" fill="#4f403f"/>
              </g>
            </g>
          </g>
        </g>
      </g>
      <g id="Layer_3-2" data-name="Layer_3" transform="translate(191.82 276.858)">
        <g id="Group_69462" data-name="Group 69462" transform="translate(0.44 0.975)">
          <g id="Group_69461" data-name="Group 69461">
            <g id="Group_69460" data-name="Group 69460">
              <path id="Path_54560" data-name="Path 54560" d="M896.975,629.816l-3.434-4.584a10.962,10.962,0,0,0-5.348-1.645,14.684,14.684,0,0,0-5.348,1.366,18.287,18.287,0,0,0-3.443,2.184q-2.841,2.13-3.326,2.454a11.509,11.509,0,0,1-2.625,1.753,14.083,14.083,0,0,1-5.294.926,9.836,9.836,0,0,1-3.766-.764q-9.492-3-15.5-4.53-1.69-.494-2.616-.71a7.335,7.335,0,0,0-2.625-.324l.656-.171a2.254,2.254,0,0,0,.98-.6A10.867,10.867,0,0,0,849,616.44a9.832,9.832,0,0,0-1.582-5.025,33.378,33.378,0,0,0-3.326-4.252,26.889,26.889,0,0,0-8.243-6.391,16.871,16.871,0,0,0-10.041-2.014,15.068,15.068,0,0,0-7.317,3.542,56.7,56.7,0,0,0-5.843,5.789,29.069,29.069,0,0,0-6.328,11.677l-1.088,4.638q-.117.656-.333,2.355a7.862,7.862,0,0,1-.638,2.193l1.4-2.472q-.323.71-2.238,5.789l-.054.108a1.335,1.335,0,0,0-.216.926,7.423,7.423,0,0,0,.512,5.978,7.2,7.2,0,0,0,4.225,3.56q1.321-1.51,1.267-1.951a2.427,2.427,0,0,1,.261-.98q.306-.773.4-.656.647.818-.225,3.056-.872,2.076-.054,2.733,1.69,1.474,6.769,2.292.818.162,7.317.872.216.054,13.366.485,13.978.441,18.175.387l7.425-.108a71.678,71.678,0,0,1,9.223.162,7.8,7.8,0,0,0,1.366.108,3.686,3.686,0,0,1,1.258.764q1.852,1.474,6.706,1.312a11.646,11.646,0,0,0,3.335-.44,8.6,8.6,0,0,0,2.508-1.357,8.472,8.472,0,0,1,2.4-1.42q-.872.324,1.582.216a43.7,43.7,0,0,0,6.5-.71,3.932,3.932,0,0,0,2.786-1.528,2.41,2.41,0,0,0,0-2.022,12.962,12.962,0,0,1-.548-2.121,3.8,3.8,0,0,0,2.058-3.766A56.832,56.832,0,0,0,896.975,629.816Z" transform="translate(-802.766 -598.63)" fill="#83523b"/>
            </g>
          </g>
        </g>
        <g id="Group_69465" data-name="Group 69465" transform="translate(78.714 37.616)">
          <g id="Group_69464" data-name="Group 69464" transform="translate(0)">
            <g id="Group_69463" data-name="Group 69463">
              <path id="Path_54561" data-name="Path 54561" d="M1061.835,553.829q-2.456-3.548-3.82-5.24a62.645,62.645,0,0,1,5.949,11.352,2.209,2.209,0,0,1-.273,1.2,4.838,4.838,0,0,1-2.838,2.128l-.928.382a7.047,7.047,0,0,0,4.312-1.419h.055a3.141,3.141,0,0,0,.982-2.292Q1065.273,558.85,1061.835,553.829Z" transform="translate(-1058.015 -548.589)" fill="#68412f"/>
            </g>
          </g>
        </g>
        <g id="Group_69468" data-name="Group 69468" transform="translate(92.741 29.538)">
          <g id="Group_69467" data-name="Group 69467" transform="translate(0 0)">
            <g id="Group_69466" data-name="Group 69466">
              <path id="Path_54562" data-name="Path 54562" d="M1141.714,516.211a4.84,4.84,0,0,1-2.838,2.129q-.164.054.109.164.219.109.055.218a4.179,4.179,0,0,0,3.22-1.365,2.734,2.734,0,0,0,.982-2.347q.055-1.092-3.439-6.113-2.4-3.493-3.766-5.24a65.137,65.137,0,0,1,5.949,11.352A2.208,2.208,0,0,1,1141.714,516.211Z" transform="translate(-1136.037 -503.658)" fill="#68412f"/>
            </g>
          </g>
        </g>
        <g id="Group_69471" data-name="Group 69471" transform="translate(89.139 32.649)">
          <g id="Group_69470" data-name="Group 69470" transform="translate(0 0)">
            <g id="Group_69469" data-name="Group 69469">
              <path id="Path_54563" data-name="Path 54563" d="M1122.222,534.607a2.673,2.673,0,0,0,.982-2.292q.055-1.091-3.438-6.113-2.4-3.493-3.766-5.24a67.334,67.334,0,0,1,5.949,11.352,2.207,2.207,0,0,1-.273,1.2,4.839,4.839,0,0,1-2.838,2.129l-.928.382A7.049,7.049,0,0,0,1122.222,534.607Z" transform="translate(-1116.001 -520.962)" fill="#68412f"/>
            </g>
          </g>
        </g>
        <g id="Group_69474" data-name="Group 69474" transform="translate(84.281 35.269)">
          <g id="Group_69473" data-name="Group 69473" transform="translate(0 0)">
            <g id="Group_69472" data-name="Group 69472">
              <path id="Path_54564" data-name="Path 54564" d="M1096.185,546.887q.055-1.091-3.438-6.113-3.548-4.912-3.766-5.24a65.16,65.16,0,0,1,5.949,11.352,2.208,2.208,0,0,1-.273,1.2,4.839,4.839,0,0,1-2.838,2.129l-.928.437a7.05,7.05,0,0,0,4.312-1.419A2.734,2.734,0,0,0,1096.185,546.887Z" transform="translate(-1088.981 -535.535)" fill="#68412f"/>
            </g>
          </g>
        </g>
        <g id="Group_69477" data-name="Group 69477" transform="translate(0 28.828)">
          <g id="Group_69476" data-name="Group 69476" transform="translate(0)">
            <g id="Group_69475" data-name="Group 69475">
              <path id="Path_54565" data-name="Path 54565" d="M693.1,522.361q1.092-.328-6.386-.437-7.532-.164-6.386-.6-15.337-.109-22.923-.6l-14.136-1.255a24.3,24.3,0,0,1-8.3-1.692,9.941,9.941,0,0,1-5.4-6.167q-.546-1.528-.655-1.747-.6-1.037-1.419-.873a1.993,1.993,0,0,0-1.419.873,2.208,2.208,0,0,0-.382,1.583l.055.273,1.037,1.8q.546.928-.491,1.2a3.531,3.531,0,0,1-1.747,0,4.136,4.136,0,0,1-2.511-1.583,8.025,8.025,0,0,1-1.037-6.6l.055-.382.164-.546.055-.109,2.238-5.785-1.419,2.565a17.854,17.854,0,0,0-1.91,6.877,10.419,10.419,0,0,0,1.91,6.713,13.09,13.09,0,0,0,6.659,4.748,53.009,53.009,0,0,0,8.951,1.8q.437.055,9.06.928a176.693,176.693,0,0,0,20.085.491Q669.084,523.78,693.1,522.361Z" transform="translate(-620.17 -499.711)" fill="#68412f"/>
            </g>
          </g>
        </g>
        <g id="Group_69480" data-name="Group 69480" transform="translate(0.922 0.179)">
          <g id="Group_69479" data-name="Group 69479" transform="translate(0 0)">
            <g id="Group_69478" data-name="Group 69478">
              <path id="Path_54566" data-name="Path 54566" d="M827.41,594.254l-.054-.054a11.174,11.174,0,0,1-2.948.872q-14.032,7.533-17.672,27.236a33.6,33.6,0,0,0-1.285,5.636,9.249,9.249,0,0,0,1.24-2.463q.583-1.6,1.384-3.488l1.591-3.677a47.224,47.224,0,0,1,3.6-9.061,33.97,33.97,0,0,1,6.391-8.126q2.184-2.184,7.856-6.823Z" transform="translate(-805.45 -594.2)" fill="#9b7458"/>
            </g>
          </g>
        </g>
        <g id="Group_69483" data-name="Group 69483" transform="translate(16.058 0)">
          <g id="Group_69482" data-name="Group 69482">
            <g id="Group_69481" data-name="Group 69481">
              <path id="Path_54567" data-name="Path 54567" d="M740.656,361.2a8.772,8.772,0,0,0-.164-4.857,28.182,28.182,0,0,0-5.458-9.66,20.426,20.426,0,0,0-9.278-6.277,21.992,21.992,0,0,0-8.3-.982,11.932,11.932,0,0,0-7.969,3.493,15.075,15.075,0,0,1,9.879-2.129q6.877.382,13.044,5.895,7.914,7.1,6.44,16.264a6.243,6.243,0,0,1-.928,2.4A6.8,6.8,0,0,0,740.656,361.2Z" transform="translate(-709.492 -339.354)" fill="#68412f"/>
            </g>
          </g>
        </g>
        <g id="Group_69485" data-name="Group 69485" transform="translate(65.076 25.829)">
          <g id="Group_69484" data-name="Group 69484">
            <path id="Path_54568" data-name="Path 54568" d="M1188.215,738.237l-.027-.009-.279-.153-.027-.009-.027-.018-.332-.144-.027-.009-.027-.018-1.654-.512-.5-.108-.054-.018h-.027l-.027-.009-1.4-.243h-.054l-.575-.063-.027-.009-.9-.036a1.511,1.511,0,0,0-.234,0l-.719.027-.054.009h-.063l-.477.063-.036.009h-.027l-.063.018-.431.09h-.036l-.009.009h-.018l-.207.054-.009.009h-.027l-.018.009-.036.009-.072.027h-.009l-.009.009h-.018l-.027.018-.072.018-.117.054-.036.009-.027.018-.054.027q-.054.018-.441.216l-.359.189-.045.036-6.049,4.009-.018.009-2.472,1.474-1.151.584-.09.054-.782.35-.045.027-1.546.6-1.447.4q-.557.126-.845.171l-.324.045h-.054l-.485.054q-.432.027-.872.027a.016.016,0,0,0-.018.018l.009.009a7.433,7.433,0,0,0,.872.171l.449.045h.054l.054.009.845.018.054-.009,1.681-.171.441-.081.054-.018.827-.2q.288-.072.863-.252l.845-.3,2.463-1.079,1.33-.71.027-.018.027-.009,6.157-3.874.045-.018.4-.225.027-.009.126-.063.018-.018.206-.09.036-.009.018-.009.009-.009h.009l.036-.009.018-.009.216-.063h.018l.153-.045h.018l.027-.009.189-.036.027-.009h.018l.4-.063h.045l.449-.045a1.548,1.548,0,0,1,.2-.009l1.546.027.054.009h.054l.944.108h.045l.27.045h.054l2.04.422.027.009.018.009.288.1.018.009h.027l.234.108.027.009.126.063,2.966,3.272,1.933,1.915c.012.012.021.012.027,0V744.5l-4.081-5.924a.414.414,0,0,0-.126-.126l-.018-.018Z" transform="translate(-1162.3 -736.875)" fill="#9b7458"/>
          </g>
        </g>
      </g>
    </g>
  </g>
</svg>
