<svg xmlns="http://www.w3.org/2000/svg" xmlns:xlink="http://www.w3.org/1999/xlink" width="375" height="270" viewBox="0 0 375 270">
  <defs>
    <clipPath id="clip-path">
      <rect id="Rectangle_3836" data-name="Rectangle 3836" width="375" height="270" transform="translate(5239 -12640)" fill="#fff" stroke="#707070" stroke-width="1" opacity="0.7"/>
    </clipPath>
  </defs>
  <g id="Mask_Group_16304" data-name="Mask Group 16304" transform="translate(-5239 12640)" clip-path="url(#clip-path)">
    <g id="baby_GIRL_crawl_ds" data-name="baby GIRL crawl ds" transform="translate(4813.881 -12624.128)">
      <g id="Group_18839" transform="translate(515.119 80.224)">
        <g id="Group_68784" data-name="Group 68784" transform="translate(53.089 95.885)">
          <g id="Group_68783" data-name="Group 68783" transform="translate(0)">
            <g id="Group_68782" data-name="Group 68782">
              <path id="Path_54232" data-name="Path 54232" d="M224.651,540.572l-6.995-11.658h-.051q.507,1.014,3.751,7.451a35.344,35.344,0,0,1,1.622,3.5q.2.507.76,2.332a4.9,4.9,0,0,0,.507,1.47q3.852-.051,14.7-7.4,5.424-3.649,10.087-7.3l-4.511-3.345q1.216,4.46-9.225,10.137A68.172,68.172,0,0,1,224.651,540.572Z" transform="translate(-217.605 -525.62)" fill="#104e93"/>
            </g>
          </g>
        </g>
        <g id="Group_68787" data-name="Group 68787" transform="translate(24.502 91.323)">
          <g id="Group_68786" data-name="Group 68786" transform="translate(0 0)">
            <g id="Group_68785" data-name="Group 68785">
              <path id="Path_54233" data-name="Path 54233" d="M115.743,506.914l-9.326,19.971q-4.866,15.257-5.069,16.119-.152.507-.558,5.271-.2,2.382-.405,4.663l2.636,2.028a31.771,31.771,0,0,1,1.014-6.589A9.331,9.331,0,0,1,105.2,546.3a8.334,8.334,0,0,0,1.216-2.23q.912-4,1.47-5.93a19.041,19.041,0,0,1,2.18-5.424Q112.449,519.181,115.743,506.914Z" transform="translate(-100.385 -506.914)" fill="#d49c88"/>
            </g>
          </g>
        </g>
        <g id="Group_68790" data-name="Group 68790" transform="translate(7.158 66.354)">
          <g id="Group_68789" data-name="Group 68789" transform="translate(0)">
            <g id="Group_68788" data-name="Group 68788">
              <path id="Path_54234" data-name="Path 54234" d="M68.359,409.175q-.507-.3-2.788-1.267a17.112,17.112,0,0,1-2.788-1.318q-4-2.889-11-1.723a63.125,63.125,0,0,1-11.759,2.027,1.708,1.708,0,0,0-.862.405q-.71.456-.811.507a11.74,11.74,0,0,0-3.751.912A7.558,7.558,0,0,0,31.61,411q1.571,2.585,3.649,5.424a5.029,5.029,0,0,1,.558,3.649q-.2,1.369-.558,3.7a1.21,1.21,0,0,0,0,.862,1.549,1.549,0,0,1,0,.811,1.936,1.936,0,0,1-.456.406.775.775,0,0,0-.253.558l-1.825,7.248q-1.977,8.566-3.041,15.409a60.221,60.221,0,0,0,.608,18.1l1.369,5.677a29.1,29.1,0,0,1,.76,5.018l.3,1.267-.1.355q-.3,3.7.253,4.866a11.352,11.352,0,0,0,1.419,2.078,4.677,4.677,0,0,1,.456,3.092,1.15,1.15,0,0,0-1.419.71,16.672,16.672,0,0,0-1.369,4.359,21.166,21.166,0,0,1,.558,4.207l.405,1.318q.659,1.217,2.129.406,4.258,1.47,4.663.3a2.413,2.413,0,0,0,1.825.558,2.351,2.351,0,0,0,1.622-.912l.152-.2,1.521.76a2.6,2.6,0,0,0,2.94-.963l2.636,1.014q2.94.355,4.46-2.839a21.751,21.751,0,0,0,.608-2.534,6.55,6.55,0,0,0-.152-3.345q-1.977-4.562-3.041-7.4-2.027-5.271-1.47-7.755.355-1.673,5.474-21.846,3.5-4.41,4.917-11.911l.355-.71q.608-2.585,1.115-6.032.2-.659,1.267-3.7a20.086,20.086,0,0,0,.963-3.852q.608-.558.862-.811a.777.777,0,0,0,.3-.862l1.47-3.8a5.157,5.157,0,0,0,.862-2.129,14.311,14.311,0,0,0-.051-2.636l-.253-1.318q1.318-1.926,1.318-1.977-.152-.71-.456-3.244A21.5,21.5,0,0,0,68.359,409.175Z" transform="translate(-29.27 -404.531)" fill="#83523b"/>
            </g>
          </g>
        </g>
        <g id="Group_68793" data-name="Group 68793" transform="translate(23.011 122.651)">
          <g id="Group_68792" data-name="Group 68792" transform="translate(0)">
            <g id="Group_68791" data-name="Group 68791">
              <path id="Path_54235" data-name="Path 54235" d="M107.067,635.725a6.427,6.427,0,0,0-1.723.3q-1.014,0-6.235,4.917-5.424,5.119-4.765,6.488a34.3,34.3,0,0,0,4.359,2.382,2.913,2.913,0,0,1,.963.051,3.353,3.353,0,0,0,.963.152q9.479,0,15.46,3.244a31.408,31.408,0,0,1,3.954.507q1.216-.1,1.774-.1.659,0,1.977.1a17.273,17.273,0,0,0,1.673-1.064,2.263,2.263,0,0,0,.76-2.027q.659.1,1.369,2.23,1.47,1.723,6.184-.1,2.332-1.014-1.369-4.156a40.1,40.1,0,0,1-4.46-3.4,12.249,12.249,0,0,0-3.345-2.636,40.319,40.319,0,0,0-4.308-2.585,43.387,43.387,0,0,0-4.46-1.977q-4.055-1.571-4.562-1.774a12.052,12.052,0,0,0-1.216-.659,1.364,1.364,0,0,0-1.267-.152A9.215,9.215,0,0,1,107.067,635.725Z" transform="translate(-94.273 -635.374)" fill="#83523b"/>
            </g>
          </g>
        </g>
        <g id="Group_68796" data-name="Group 68796" transform="translate(9.543 142.973)">
          <g id="Group_68795" data-name="Group 68795" transform="translate(0)">
            <g id="Group_68794" data-name="Group 68794">
              <path id="Path_54236" data-name="Path 54236" d="M42.147,727.114a4.793,4.793,0,0,0-.456-3.143A19.738,19.738,0,0,1,40.17,718.7a26.705,26.705,0,0,1-.963,6.488,22.41,22.41,0,0,0,.405,7.7q.507-2.788,1.115-5.069A1.121,1.121,0,0,1,42.147,727.114Z" transform="translate(-39.049 -718.7)" fill="#68412f"/>
            </g>
          </g>
        </g>
        <g id="Group_68799" data-name="Group 68799" transform="translate(6.47 72.112)">
          <g id="Group_68798" data-name="Group 68798" transform="translate(0)">
            <g id="Group_68797" data-name="Group 68797">
              <path id="Path_54237" data-name="Path 54237" d="M31.961,436.66a35.423,35.423,0,0,1-.608,9.985,55.493,55.493,0,0,1-2.23,6.234q-4.308,11.861-1.673,28.385a79.823,79.823,0,0,1,.355-13.686,62.514,62.514,0,0,1,1.875-9.681,91.364,91.364,0,0,1,3.345-8.87l.862-1.673q4-5.373,4.562-7.806-4.308,5.829-6.235,7.2a11.543,11.543,0,0,1,.456-1.723q.2-.608.456-1.723a35.049,35.049,0,0,0,.862-8.515q-.507-2.94-4.207-6.64a8.261,8.261,0,0,1,1.774,4A24.843,24.843,0,0,1,31.961,436.66Z" transform="translate(-26.45 -428.144)" fill="#68412f"/>
            </g>
          </g>
        </g>
        <g id="Group_68802" data-name="Group 68802" transform="translate(4.6 38.439)">
          <g id="Group_68801" data-name="Group 68801" transform="translate(0 0)">
            <g id="Group_68800" data-name="Group 68800">
              <path id="Path_54238" data-name="Path 54238" d="M19.218,293.788a3.676,3.676,0,0,0-.405,2.23,89.038,89.038,0,0,0,5.424,28.993q-.152-.355,2.737-2.028a13.234,13.234,0,0,1,3.447-1.723l-4.106,5.271.355.405,7.147-3.092q1.521-.608,4.359-1.926a19.959,19.959,0,0,1,4.562-1.521,23.6,23.6,0,0,1,7.857-.1,27.317,27.317,0,0,1,6.235,1.419q3.447,1.419,3.7,4.613.2,3.345-1.977,11.861-2.281,9.022-3.8,3.6a11.364,11.364,0,0,0-1.875-4.967l.405,7.552q.152,8.363-1.216,12.52-.1.406-.3,1.166-.76,2.129-4.613,11.151a73.719,73.719,0,0,0-3.954,11.4q-.051.2-.558,3.9a14.662,14.662,0,0,1-1.064,3.9,7.65,7.65,0,0,0-.862,5.018l.2,1.267q.608-5.221,1.926-.912.71,2.433,2.23,7.958.1.2,1.014,1.774a4.854,4.854,0,0,1,.76,1.875,15.736,15.736,0,0,1,.2,6.133,9.579,9.579,0,0,0,.558-6.488,11.314,11.314,0,0,0-1.267-2.788q-1.166-1.977-1.47-2.636a16.792,16.792,0,0,1-1.014-4.714,40.77,40.77,0,0,0-.659-4.815q5.576.253,5.981.3a53.587,53.587,0,0,1,10.036,1.926q4.765,1.267,7.755,0a4.071,4.071,0,0,1,2.484-.608,4.8,4.8,0,0,1,1.216.71,6.117,6.117,0,0,0,3.9.558,3.845,3.845,0,0,0,2.94-1.977,13.305,13.305,0,0,1-6.032,1.014,2.208,2.208,0,0,1-.862-.355,1.427,1.427,0,0,1-.456-.862l-.152-1.47h-.1l-.963-.1h-.1l-.76-.051a11.933,11.933,0,0,1-1.166,1.723,4.02,4.02,0,0,1-3.295.963,22.5,22.5,0,0,1-7.958-1.774,32.051,32.051,0,0,0-3.751-1.267,8.524,8.524,0,0,0-3.954-.253q-.811.253-1.216.355a2.342,2.342,0,0,1-1.267.051q-1.419-.3-1.521-2.382a18.279,18.279,0,0,1,.862-7.451,6.9,6.9,0,0,1,4.258-3.7,11.986,11.986,0,0,1,2.686-.912,2.3,2.3,0,0,1,1.216.3,8.765,8.765,0,0,0,1.166.456q-.278-.08.1-.507a3.822,3.822,0,0,1,.659-.558,3.267,3.267,0,0,1,1.571-.051,8.525,8.525,0,0,0,1.673.1,10.328,10.328,0,0,0,3.447-1.419,55.427,55.427,0,0,0,9.174-7.654q1.926-1.926,2.534-2.636a9.627,9.627,0,0,0,1.825-3.092,55.677,55.677,0,0,0,1.166-6.792q.811-6.032.405-6.082a52.5,52.5,0,0,1-6.032-1.622,7.94,7.94,0,0,1-2.737-1.318,9.568,9.568,0,0,0-2.737-1.419,15.315,15.315,0,0,1-2.23-.862q-1.673-.76-1.723-1.267a6.1,6.1,0,0,0-.3-1.064,2.553,2.553,0,0,1-.152-1.115q.051-.71,1.571-6.235,1.166-4.359.507-6.082-2.027-5.576-2.027-5.778l-.1-.253q-1.014-2.281-5.119-5.018-4.359-2.889-5.525-4.815-6.235-10.442-12.165-15.612a14.782,14.782,0,0,0-6.995-3.954,12.179,12.179,0,0,0-4.967.355,35.732,35.732,0,0,0-4.765,1.825A3.875,3.875,0,0,0,19.218,293.788Z" transform="translate(-18.78 -290.071)" fill="#68412f"/>
            </g>
          </g>
        </g>
        <g id="Group_68805" data-name="Group 68805" transform="translate(0.836 2.57)">
          <g id="Group_68804" data-name="Group 68804" transform="translate(0)">
            <g id="Group_68803" data-name="Group 68803">
              <path id="Path_54239" data-name="Path 54239" d="M57.273,143.5l-1.723.051.3-.558q-.152.3-4.663.456-5.069.152-5.322.2a66.656,66.656,0,0,0-31.426,13.432A31.045,31.045,0,0,0,4.863,169.2v.051L4,171.427v.051q-1.774,6.893,1.267,22.911.405,2.281,4.765,20.731l.1.253a1.522,1.522,0,0,0,.912.963,1.757,1.757,0,0,0,1.369.051l.2-.152a132.023,132.023,0,0,1,14.091-7.147q9.884-4,14.5-1.723,2.027,1.014,5.17,2.281a5.928,5.928,0,0,1,3.041,2.889q1.622,3.954-2.737,19.869a9.433,9.433,0,0,0,1.673.811,19.414,19.414,0,0,1,4.46,2.636q6.944,5.322,8.566,15.916,3.5,3.041,11.253-1.723a97.756,97.756,0,0,0,12.824-10.137,37.64,37.64,0,0,1-13.99-7.35,27.714,27.714,0,0,1-8.972-12.52,32.606,32.606,0,0,1-4.359-15.156v-.152a33.2,33.2,0,0,1-2.23-7.4l-.1.3.051-.608a30.471,30.471,0,0,1-.405-4.055,20.779,20.779,0,0,1,.051-3.295,97.778,97.778,0,0,1-1.216-11.81l-.051-.253-.152-1.774a78.236,78.236,0,0,1-.811-8.11,44.421,44.421,0,0,1,.507-8.566A48.229,48.229,0,0,1,57.273,143.5Z" transform="translate(-3.347 -142.992)" fill="#2b66ad"/>
            </g>
          </g>
        </g>
        <g id="Group_68808" data-name="Group 68808" transform="translate(38.694 2.772)">
          <g id="Group_68807" data-name="Group 68807" transform="translate(0 0)">
            <g id="Group_68806" data-name="Group 68806">
              <path id="Path_54240" data-name="Path 54240" d="M171.86,154.721,175,144.431a1.732,1.732,0,0,0-1.318-.608q-1.622,0-2.838,3.193a79.089,79.089,0,0,0-4,22.1,48.681,48.681,0,0,0,.406,7.907,41.151,41.151,0,0,0-5.88-4.917,23.4,23.4,0,0,1,5.626,7.907q.862,2.18,1.977,5.88a58.953,58.953,0,0,0-6.082-7.806l-4.308-4.815,2.838,5.069q4.866,7.552,5.373,8.465a32.11,32.11,0,0,1,3.7,9.276,12.891,12.891,0,0,1-.558,6.336,27.331,27.331,0,0,0-1.419,6.285,102.243,102.243,0,0,1-1.977,14.6q-1.825,9.783-2.23,9.073L163.344,234a4.268,4.268,0,0,1,2.078.406,20.53,20.53,0,0,0,2.686.862,1.066,1.066,0,0,0,.862-.051q.1-.1-1.267-1.926a20.631,20.631,0,0,1-1.419-2.027q2.18-10.036,3.5-15.308,2.484-9.732,3.954-7.248,2.23,6.792,4.663,12.773,3.4,8.363,6.032,12.013a24.961,24.961,0,0,0,6.741,6.64,16.663,16.663,0,0,0,8.82,2.484q1.875,0,2.18-1.014l.253-.76a.923.923,0,0,1,.406-.3,9.039,9.039,0,0,1,1.267-.1q.76-.051.811-.507a59.044,59.044,0,0,0-12.418-5.119,7.312,7.312,0,0,1-1.571-.659,5.078,5.078,0,0,1-1.267-1.521l-5.88-9.276a45.23,45.23,0,0,1-2.534-4.46,49.3,49.3,0,0,1-3.143-9.428q-1.47-6.64-2.332-9.783l-3.5-13.027Z" transform="translate(-158.58 -143.823)" fill="#104e93"/>
            </g>
          </g>
        </g>
        <g id="Group_68811" data-name="Group 68811" transform="translate(122.835 102.423)">
          <g id="Group_68810" data-name="Group 68810" transform="translate(0)">
            <g id="Group_68809" data-name="Group 68809">
              <path id="Path_54241" data-name="Path 54241" d="M516.413,559.172l-2.484-6.589-10.34-.152v.659q0,4.562.253,7.5a17.044,17.044,0,0,0,9.174,1.014,6.4,6.4,0,0,1,.71-.963A8.408,8.408,0,0,0,516.413,559.172Z" transform="translate(-503.589 -552.431)" fill="#68412f"/>
            </g>
          </g>
        </g>
        <g id="Group_68814" data-name="Group 68814" transform="translate(123.285 107.239)">
          <g id="Group_68813" data-name="Group 68813" transform="translate(0)">
            <g id="Group_68812" data-name="Group 68812">
              <path id="Path_54242" data-name="Path 54242" d="M515.579,578.866q-.152.1-.2-1.622t-.253-1.673q-.2.2-.557-.507-.405-.659-.152-.76,7.552-2.129,2.23-2.129a45.421,45.421,0,0,0-11.1,1.47q-.3.051.253,5.424.253,2.737.608,5.981a43.142,43.142,0,0,0,1.723,6.691,30.014,30.014,0,0,1,1.571,6.133l.608,4.511q1.064,4.613,3.447,5.424l3.295,2.332q3.8,2.078,6.285,1.014a.664.664,0,0,0,.456-.71q.051-1.064-2.129-3.041l4.866,1.115a6.293,6.293,0,0,0-1.369-1.673,5.659,5.659,0,0,1-1.419-1.723Q523.08,603.3,521,596.3a73.161,73.161,0,0,0-3.092-8.667,21.524,21.524,0,0,1-1.267-4.308A40.2,40.2,0,0,0,515.579,578.866Z" transform="translate(-505.435 -572.175)" fill="#83523b"/>
            </g>
          </g>
        </g>
        <g id="Group_68817" data-name="Group 68817" transform="translate(48.629)">
          <g id="Group_68816" data-name="Group 68816">
            <g id="Group_68815" data-name="Group 68815">
              <path id="Path_54243" data-name="Path 54243" d="M789.029,294.327q-9.072-1.171-11.657-1.719a64.064,64.064,0,0,1-9.28-2.89q-6.134-2.39-9.121-3.5l-15.913-5.524a149.724,149.724,0,0,1-14.352-6.085,14.614,14.614,0,0,0-3.5-1.171,6.243,6.243,0,0,0-3.853.415,5.971,5.971,0,0,0-2.829,2.585q-2.341,3.439-3.353,10.084a77.91,77.91,0,0,0-.4,16.316,210.392,210.392,0,0,0,2.841,21.9q-.61-3.756,2.683,11.353,5.378,19.462,12.974,30.509,3.963,5.731,12.572,6.646.512.049,7.255.451a29.666,29.666,0,0,1,6.792.963q3.134,1.622,14.243,3.8,8.609,1.671,14.852,2.488a31.791,31.791,0,0,0,17.181-11.462q.244-.3,4.451-6.134,2.134-2.939,3.5-3.487a2.575,2.575,0,0,1,1.073,0,1.909,1.909,0,0,0,1.061,0q2.683-1.171,6.39.756,3.439,1.829,6.134.256.244-.415,3.9-6.341a28.018,28.018,0,0,0,3.6-12.877,3.973,3.973,0,0,0-1.122-2.122,14.316,14.316,0,0,1-1.463-1.975,15.794,15.794,0,0,0-2.439-2.646q-3.085-3.39-9.828-6.633-6.6-3.244-9.682-6.841-1.573-1.829-.963-6.243.659-5.524.354-6.987-.1-.512,2.134-.976-2.532-3.585-.756-4.231l-4.756-3.219q-3.67-1.768-7.268-3.085A63.017,63.017,0,0,0,789.029,294.327Z" transform="translate(-714.516 -273.306)" fill="#eb7a23"/>
            </g>
          </g>
        </g>
        <g id="Group_68820" data-name="Group 68820" transform="translate(160.952 67.246)">
          <g id="Group_68819" data-name="Group 68819" transform="translate(0 0)">
            <g id="Group_68818" data-name="Group 68818">
              <path id="Path_54244" data-name="Path 54244" d="M659.883,412.3h.051l.051,2.281a21.781,21.781,0,0,1,.355,2.889v.608a18.873,18.873,0,0,1,.2,2.23v.355a109.3,109.3,0,0,0,8.262-12.469Q667.334,410.169,659.883,412.3Z" transform="translate(-659.883 -408.192)" fill="#be6228"/>
            </g>
          </g>
        </g>
        <g id="Group_68823" data-name="Group 68823" transform="translate(60.844 64.813)">
          <g id="Group_68822" data-name="Group 68822" transform="translate(0)">
            <g id="Group_68821" data-name="Group 68821">
              <path id="Path_54245" data-name="Path 54245" d="M257.16,414.385q3.5,5.525,11.455,12.57,8.617,7.755,23.519,11.861,16.473,4.613,28.993.659l.355-.1a20.139,20.139,0,0,1-2.23-8.617,7.28,7.28,0,0,1,.051-1.926l-1.216-.912q.051,2.636.558,7.552-.152,3.7-3.143,3.9a76.308,76.308,0,0,1-13.077,0q-2.534-.253-9.681-1.571-18.2-3.345-32.592-21.8a87.342,87.342,0,0,1-8.059-12.368l-2.686-5.424Q256.3,413.016,257.16,414.385Z" transform="translate(-249.404 -398.216)" fill="#be6228"/>
            </g>
          </g>
        </g>
        <g id="Group_68826" data-name="Group 68826" transform="translate(73.263 58.731)">
          <g id="Group_68825" data-name="Group 68825" transform="translate(0 0)">
            <g id="Group_68824" data-name="Group 68824">
              <path id="Path_54246" data-name="Path 54246" d="M315.074,395.121q-3.244-4.308-5.271-7.4l-9.478-14.446q3.9,8.11,8.009,14.851a99.725,99.725,0,0,0,8.009,11.455,41.25,41.25,0,0,0,4.866,4.866q.355.253,2.838,1.723A12.733,12.733,0,0,1,326.479,408q-3.8-4.11-5.728-6.234Q317.355,398.061,315.074,395.121Z" transform="translate(-300.324 -373.275)" fill="#be6228"/>
            </g>
          </g>
        </g>
        <g id="Group_68829" data-name="Group 68829" transform="translate(24.857 155.537)">
          <g id="Group_68828" data-name="Group 68828" transform="translate(0 0)">
            <g id="Group_68827" data-name="Group 68827">
              <path id="Path_54247" data-name="Path 54247" d="M102.7,776.053l.811-4a.537.537,0,0,0,0-.456,1.449,1.449,0,0,0-.558-1.064,1.65,1.65,0,0,0-1.115-.3q1.166.608,1.115,3.548A14.352,14.352,0,0,1,102.7,776.053Z" transform="translate(-101.84 -770.218)" fill="#68412f"/>
            </g>
          </g>
        </g>
        <g id="Group_68832" data-name="Group 68832" transform="translate(20.802 156.05)">
          <g id="Group_68831" data-name="Group 68831" transform="translate(0 0)">
            <g id="Group_68830" data-name="Group 68830">
              <path id="Path_54248" data-name="Path 54248" d="M85.467,778.151a16.561,16.561,0,0,0,1.166-4.207v-.2a1.375,1.375,0,0,0-.406-1.014,1.49,1.49,0,0,0-1.014-.406q1.166.558.811,3.244A12.527,12.527,0,0,1,85.467,778.151Z" transform="translate(-85.213 -772.322)" fill="#68412f"/>
            </g>
          </g>
        </g>
        <g id="Group_68835" data-name="Group 68835" transform="translate(16.949 156.702)">
          <g id="Group_68834" data-name="Group 68834" transform="translate(0 0)">
            <g id="Group_68833" data-name="Group 68833">
              <path id="Path_54249" data-name="Path 54249" d="M70.431,778.144q-.053.669-.152,1.318l.608-2.889a.537.537,0,0,0,0-.456,1.223,1.223,0,0,0-.507-.862,1.346,1.346,0,0,0-.963-.253Q70.583,775.559,70.431,778.144Z" transform="translate(-69.418 -774.995)" fill="#68412f"/>
            </g>
          </g>
        </g>
        <g id="Group_68838" data-name="Group 68838" transform="translate(13.199 157.318)">
          <g id="Group_68837" data-name="Group 68837" transform="translate(0)">
            <g id="Group_68836" data-name="Group 68836">
              <path id="Path_54250" data-name="Path 54250" d="M54.038,782.384l1.723-3.852a.79.79,0,0,0,0-.558.663.663,0,0,0-.912-.406.64.64,0,0,0-.405.912A5.393,5.393,0,0,1,54.038,782.384Z" transform="translate(-54.038 -777.518)" fill="#68412f"/>
            </g>
          </g>
        </g>
        <g id="Group_68841" data-name="Group 68841" transform="translate(139.299 43.531)">
          <g id="Group_68840" data-name="Group 68840">
            <g id="Group_68839" data-name="Group 68839">
              <path id="Path_54251" data-name="Path 54251" d="M1111.907,461.8q-5.146-3.024-11.828-6.694l-5.658-3.073V451.8H1086.3a13.212,13.212,0,0,0,3.4,6.426,50.567,50.567,0,0,0,5.731,5.28q2.939,2.329,2.792,2.829-1.122,3.548-6.743,0-2.743-1.719-2.841-1.768-.817-.3.354,1.768a36.06,36.06,0,0,0,6.841,8.572q6.39,5.878,9.231,5.829a9.783,9.783,0,0,1,2.731.963,25.777,25.777,0,0,0,3.146-1.524,57.845,57.845,0,0,1,11-5.121,43.873,43.873,0,0,1-12.218-5.621,43.231,43.231,0,0,1-9.877-9.121,21.9,21.9,0,0,0,4.865,4.207,46.8,46.8,0,0,0,18.5,6.329Q1128.369,471.444,1111.907,461.8Z" transform="translate(-1086.3 -451.8)" fill="#83523b"/>
            </g>
          </g>
        </g>
        <g id="Group_68844" data-name="Group 68844" transform="translate(151.068 49.151)">
          <g id="Group_68843" data-name="Group 68843" transform="translate(0 0)">
            <g id="Group_68842" data-name="Group 68842">
              <path id="Path_54252" data-name="Path 54252" d="M642.011,352.039l8.87-2.382.051-.051-1.166-.1a27.565,27.565,0,0,1-17.436-4.359,51.379,51.379,0,0,1-6.741-4.562l-6.234-6.589q3.6,7.654,12.57,13.584A30.706,30.706,0,0,0,642.011,352.039Z" transform="translate(-619.354 -333.994)" fill="#68412f"/>
            </g>
          </g>
        </g>
        <g id="Group_68847" data-name="Group 68847" transform="translate(130.228 95.074)">
          <g id="Group_68846" data-name="Group 68846" transform="translate(0 0)">
            <g id="Group_68845" data-name="Group 68845">
              <path id="Path_54253" data-name="Path 54253" d="M582.773,584.893q-.608-.76-6.64-3.143-5.626-2.23-5.88-3.4-1.318-5.981-1.622-8.414-.2-1.977-.507-8.566a118.684,118.684,0,0,0-2.332-16.676q0-.1-1.267-3.6-.963-2.737-.71-3.7a29.321,29.321,0,0,0-1.166-14.192v-.1q-4.663.152-14.344-.3-11.151-.507-14.345-.507a42.1,42.1,0,0,0,2.027,15.409q.1.3,2.382,7.907a70.6,70.6,0,0,0,2.585,7.755q1.571,3.7,2.737,7.248,2.332,7.1,2.433,7.35a2.891,2.891,0,0,0,.456.912,3.843,3.843,0,0,1,.456.912q5.271,16.727,8.211,19.008,1.47,1.166,1.875-1.064.862,1.318,4.308.76,1.825-.3,4.765-1.064,9.681-1.673,11.4-2.027Z" transform="translate(-533.904 -522.294)" fill="#83523b"/>
            </g>
          </g>
        </g>
        <g id="Group_68850" data-name="Group 68850" transform="translate(127.95 68.811)">
          <g id="Group_68849" data-name="Group 68849" transform="translate(0 0)">
            <g id="Group_68848" data-name="Group 68848">
              <path id="Path_54254" data-name="Path 54254" d="M555.132,431.646a66.394,66.394,0,0,0-9.985-9.985q-11.354-9.377-18.349-6.285l-1.521,7.7q-1.318,8.414-.2,11.81a16.512,16.512,0,0,1,1.521,6.741l.152.253q.2,10.948,4.765,25.7,2.636,8.414,8.515,25.039a87.413,87.413,0,0,0,3.954,10.543,9.792,9.792,0,0,0,2.433,3.4q3.8,2.94,5.17,2.23-4.106-1.875-6.741-7.4a65.418,65.418,0,0,1-3.852-12.013q-9.124-21.289-12.418-35.329a71.985,71.985,0,0,1-1.47-7.755q-.152-2.534-.152-2.737-.507-1.115,1.521-1.115.557,0,6.032.456a65.6,65.6,0,0,0,21.086-1.216Z" transform="translate(-524.563 -414.609)" fill="#68412f"/>
            </g>
          </g>
        </g>
        <g id="Group_68853" data-name="Group 68853" transform="translate(174.941 157.064)">
          <g id="Group_68852" data-name="Group 68852" transform="translate(0 0)">
            <g id="Group_68851" data-name="Group 68851">
              <path id="Path_54255" data-name="Path 54255" d="M733.77,791.989a1.759,1.759,0,0,0,.355-1.014q-11.506-7.6-16.879-8.566a134.312,134.312,0,0,1,16.524,9.58m2.991-4.866a3.972,3.972,0,0,0,1.926-.659l-17.994-7.2,16.068,7.857m-8.87-9.428a61.918,61.918,0,0,1,5.576,3.193l2.94,2.028-.1-.659-.051-.1-7.856-4.917a11.246,11.246,0,0,0-3.143-.76Z" transform="translate(-717.246 -776.479)" fill="#68412f"/>
            </g>
          </g>
        </g>
        <g id="Group_68856" data-name="Group 68856" transform="translate(152.74 159.345)">
          <g id="Group_68855" data-name="Group 68855">
            <g id="Group_68854" data-name="Group 68854">
              <path id="Path_54256" data-name="Path 54256" d="M628.8,791.407q-.862-.963-.405-5.576a3.73,3.73,0,0,0-2.18,3.295q.152,6.336,13.331,5.88Q630.471,793.283,628.8,791.407Z" transform="translate(-626.213 -785.832)" fill="#68412f"/>
            </g>
          </g>
        </g>
        <g id="Group_68859" data-name="Group 68859" transform="translate(154.055 152.545)">
          <g id="Group_68858" data-name="Group 68858" transform="translate(0 0)">
            <g id="Group_68857" data-name="Group 68857">
              <path id="Path_54257" data-name="Path 54257" d="M659.687,761.3l-4.156-1.064q-11.2-3.7-14.75-1.419a8.319,8.319,0,0,0-2.027,2.281,4.237,4.237,0,0,1-2.028,1.774,16.883,16.883,0,0,0-4.258,1.875q-2.433,5.322,1.977,7.1a50.693,50.693,0,0,0,9.124,2.078,76.315,76.315,0,0,0,8.87-.862q6.234,2.889,11.557,4.917,3.9,1.368,5.018.051a135.659,135.659,0,0,0-16.524-9.631q5.373.963,16.879,8.566a5.536,5.536,0,0,0,4.46-.456q1.723-1.115-1.825-3.4l-16.068-7.857,17.994,7.2q1.267-1.216-2.18-3.5l-.1-.051-2.94-2.027a61.9,61.9,0,0,0-5.576-3.193,26.567,26.567,0,0,0-2.686-1.217,11.306,11.306,0,0,1,3.193.76l1.622.811,6.234,4.106.051.051-.406-.659-1.166-1.419a11.741,11.741,0,0,0-1.875-1.774q-.912-.608-2.838-1.723a7.025,7.025,0,0,0-2.281-.912,13.478,13.478,0,0,0-2.636-.355Q661.375,761.343,659.687,761.3Z" transform="translate(-631.603 -757.948)" fill="#83523b"/>
            </g>
          </g>
        </g>
        <g id="Group_68862" data-name="Group 68862" transform="translate(132.313 93.905)">
          <g id="Group_68861" data-name="Group 68861" transform="translate(0)">
            <g id="Group_68860" data-name="Group 68860">
              <path id="Path_54258" data-name="Path 54258" d="M543.57,517.556q-1.014-.3-1.115,1.115Z" transform="translate(-542.455 -517.502)" fill="#68412f"/>
            </g>
          </g>
        </g>
        <g id="Group_68865" data-name="Group 68865" transform="translate(133.429 92.705)">
          <g id="Group_68864" data-name="Group 68864">
            <g id="Group_68863" data-name="Group 68863">
              <path id="Path_54259" data-name="Path 54259" d="M547.027,513.837a13.213,13.213,0,0,1,1.318.558q.659,0,.507-1.47-.051-.558-.608-.2A11.2,11.2,0,0,0,547.027,513.837Z" transform="translate(-547.027 -512.584)" fill="#68412f"/>
            </g>
          </g>
        </g>
        <g id="Group_68868" data-name="Group 68868" transform="translate(0 31.056)">
          <g id="Group_68867" data-name="Group 68867" transform="translate(0 0)">
            <g id="Group_68866" data-name="Group 68866">
              <path id="Path_54260" data-name="Path 54260" d="M2.676,282.707Q-.366,266.69,1.408,259.8A32.439,32.439,0,0,0,.8,277.03a20.593,20.593,0,0,0,.71,3.143l4.967,22.809q1.064,2.686,3.345,1.723l-.253.051a1.647,1.647,0,0,1-1.369-.2,1.73,1.73,0,0,1-.76-1.115Q3.081,284.988,2.676,282.707Z" transform="translate(0.081 -259.796)" fill="#2b66ad"/>
            </g>
          </g>
        </g>
        <g id="Group_68871" data-name="Group 68871" transform="translate(133.378 138.794)">
          <g id="Group_68870" data-name="Group 68870">
            <g id="Group_68869" data-name="Group 68869">
              <path id="Path_54261" data-name="Path 54261" d="M553.814,706.505q2.585,2.078-2.078-2.433-1.166-.76-2.382-1.419-2.433-1.369-2.534-1.014Z" transform="translate(-546.819 -701.566)" fill="#68412f"/>
            </g>
          </g>
        </g>
        <g id="Group_68874" data-name="Group 68874" transform="translate(31.446 94.829)">
          <g id="Group_68873" data-name="Group 68873" transform="translate(0)">
            <g id="Group_68872" data-name="Group 68872">
              <path id="Path_54262" data-name="Path 54262" d="M147.816,524.982l-2.382-1.622q-5.069-3.548-5.626-1.014a100.554,100.554,0,0,1-10.948,28.588,30.957,30.957,0,0,1,12.317-2.23q1.369,0,4.967-3.041,3.649-3.295,4.46-3.852,3.7-2.534,3.954-4.765.2-1.622-1.825-6.488A13.315,13.315,0,0,0,147.816,524.982Z" transform="translate(-128.859 -521.29)" fill="#83523b"/>
            </g>
          </g>
        </g>
        <g id="Group_68877" data-name="Group 68877" transform="translate(98.15 64.459)">
          <g id="Group_68876" data-name="Group 68876" transform="translate(0)">
            <g id="Group_68875" data-name="Group 68875">
              <path id="Path_54263" data-name="Path 54263" d="M433.444,421.6l.1.76a1.484,1.484,0,0,0,.558.051q.507-.1-.659-.811m-5.93,5.373a37.722,37.722,0,0,0,6.691,1.166l-.659-5.778a62.893,62.893,0,0,1-8.667-2.838q-8.211-3.092-16.169-13.229l-6.336-9.529q5.576,9.529,5.626,9.631a44.471,44.471,0,0,0,6.995,8.617,31.749,31.749,0,0,0,3.9,2.788,17.21,17.21,0,0,1,3.649,2.94q-1.419.811-4.258-.405-3.092-1.571-4.156-2.027l-5.322-2.18a64.382,64.382,0,0,1,6.995,4.765Q420.012,424.943,427.513,426.97Z" transform="translate(-402.372 -396.761)" fill="#be6228"/>
            </g>
          </g>
        </g>
        <g id="Group_68880" data-name="Group 68880" transform="translate(53.85 60.961)">
          <g id="Group_68879" data-name="Group 68879" transform="translate(0 0)">
            <g id="Group_68878" data-name="Group 68878">
              <path id="Path_54264" data-name="Path 54264" d="M221.128,382.42h-.405a101.741,101.741,0,0,0,7.248,21.137q5.271,10.492,13.077,15.612a17.192,17.192,0,0,0,7.755,2.686,94.774,94.774,0,0,0,9.631-.1,44.425,44.425,0,0,0-4.511-.76,39.416,39.416,0,0,1-4.511-.811l-3.649-.76a8.881,8.881,0,0,1-3.447-1.369q-3.649-2.382-5.271-3.6a16.875,16.875,0,0,1-4.359-4.815Q226.349,398.843,221.128,382.42Z" transform="translate(-220.723 -382.42)" fill="#be6228"/>
            </g>
          </g>
        </g>
        <g id="Group_68883" data-name="Group 68883" transform="translate(51.59 1.471)">
          <g id="Group_68882" data-name="Group 68882" transform="translate(0 0)">
            <g id="Group_68881" data-name="Group 68881">
              <path id="Path_54265" data-name="Path 54265" d="M226.084,143.185q-1.369-1.673-6.235-4.511-1.318-.659-2.788,1.014-2.991,3.4-3.852,15.358a45.483,45.483,0,0,0-1.673,15.257q.051,1.571.152,1.318.051-.2.2-2.078.608-6.336,1.216-10.239,2.737-17.436,8.566-15.814a22.728,22.728,0,0,0-3.6,7.451,23.168,23.168,0,0,0-.862,8.211,34.533,34.533,0,0,1,1.825-7.654q2.737-7.552,7.451-7.2Q226.793,144.046,226.084,143.185Z" transform="translate(-211.456 -138.487)" fill="#f39941"/>
            </g>
          </g>
        </g>
        <g id="Group_68886" data-name="Group 68886" transform="translate(71.742 8.906)">
          <g id="Group_68885" data-name="Group 68885" transform="translate(0)">
            <g id="Group_68884" data-name="Group 68884">
              <path id="Path_54266" data-name="Path 54266" d="M312.692,177.994q9.935,3.852,12.57,4.055,3.548.3,9.073,1.064-9.631-1.723-13.128-3.548-2.23-1.166-15.409-6.184l-11.709-4.41a32.459,32.459,0,0,1,6.691,3.6Q302.808,174.142,312.692,177.994Z" transform="translate(-294.089 -168.971)" fill="#f39941"/>
            </g>
          </g>
        </g>
        <g id="Group_68889" data-name="Group 68889" transform="translate(108.896 55.893)">
          <g id="Group_68888" data-name="Group 68888" transform="translate(0 0)">
            <g id="Group_68887" data-name="Group 68887">
              <path id="Path_54267" data-name="Path 54267" d="M447.8,361.636a30.247,30.247,0,0,0,2.078,8.566q.608,1.673,2.281,5.373l-5.728-6.488,5.474,8.009a68.52,68.52,0,0,1,7.958,16.625,31.188,31.188,0,0,1,.912,4.359q.355-3.4-2.889-12.824-1.622-4.917-3.649-9.478h.051a66.163,66.163,0,0,1-3.7-10.948l.1,1.166q.355,2.484.811,4.511l.3,1.318-1.419-2.433A36.054,36.054,0,0,1,447.8,361.636Z" transform="translate(-446.434 -361.636)" fill="#bf5f01"/>
            </g>
          </g>
        </g>
        <g id="Group_68892" data-name="Group 68892" transform="translate(45.588 49.607)">
          <g id="Group_68891" data-name="Group 68891" transform="translate(0 0)">
            <g id="Group_68890" data-name="Group 68890">
              <path id="Path_54268" data-name="Path 54268" d="M188.772,338.754q.1-.152.659.557A10.871,10.871,0,0,1,191,342.606l1.977,5.626a28.723,28.723,0,0,0-1.977-7.7,12.46,12.46,0,0,0-4.156-4.663,32.165,32.165,0,0,1,1.723,4.106l.862,3.092Z" transform="translate(-186.845 -335.865)" fill="#104e93"/>
            </g>
          </g>
        </g>
        <g id="Group_68895" data-name="Group 68895" transform="translate(51.924 137.48)">
          <g id="Group_68894" data-name="Group 68894" transform="translate(0)">
            <g id="Group_68893" data-name="Group 68893">
              <path id="Path_54269" data-name="Path 54269" d="M216.069,696.3a2.834,2.834,0,0,0-3.244,1.115l1.166-.507a8.334,8.334,0,0,1,3.9.253A6.484,6.484,0,0,0,216.069,696.3Z" transform="translate(-212.825 -696.175)" fill="#68412f"/>
            </g>
          </g>
        </g>
        <g id="Group_68898" data-name="Group 68898" transform="translate(6.406 72.163)">
          <g id="Group_68897" data-name="Group 68897" transform="translate(0 0)">
            <g id="Group_68896" data-name="Group 68896">
              <path id="Path_54270" data-name="Path 54270" d="M26.187,431.191a9.323,9.323,0,0,0,3.548,2.686,3.436,3.436,0,0,0,1.47.3l-.507-2.991,5.88-2.838q-2.484.912-5.373,1.723Z" transform="translate(-26.187 -428.352)" fill="#104e93"/>
            </g>
          </g>
        </g>
        <g id="Group_68901" data-name="Group 68901" transform="translate(3.459 13.228)">
          <g id="Group_68900" data-name="Group 68900" transform="translate(0 0)">
            <g id="Group_68899" data-name="Group 68899">
              <path id="Path_54271" data-name="Path 54271" d="M29.366,190.33q4.258-3.244,7.907-2.433a8.85,8.85,0,0,1,1.825-.406,9.6,9.6,0,0,0-2.484-.71,7.133,7.133,0,0,0-5.018,1.064A34.138,34.138,0,0,0,17.3,201.531q-5.221,9.529-1.926,18.957a37.337,37.337,0,0,1-.507-4.917,27.8,27.8,0,0,1,.71-6.133q1.064-5.271,6.285-11.455l1.369-1.622A48.338,48.338,0,0,1,29.366,190.33Z" transform="translate(-14.102 -186.694)" fill="#7898cc"/>
            </g>
          </g>
        </g>
        <g id="Group_68904" data-name="Group 68904" transform="translate(163.26 151.134)">
          <g id="Group_68903" data-name="Group 68903" transform="translate(0)">
            <g id="Group_68902" data-name="Group 68902">
              <path id="Path_54272" data-name="Path 54272" d="M670.943,757.383q2.433-2.839,1.723-5.221l-.608,2.332a9.222,9.222,0,0,1-2.18,3.751q-.912.862-.253.406A8.764,8.764,0,0,0,670.943,757.383Z" transform="translate(-669.349 -752.162)" fill="#68412f"/>
            </g>
          </g>
        </g>
        <g id="Group_68907" data-name="Group 68907" transform="translate(156.947 106.991)">
          <g id="Group_68906" data-name="Group 68906">
            <g id="Group_68905" data-name="Group 68905">
              <path id="Path_54273" data-name="Path 54273" d="M643.463,579.871q2.484-1.673,3.244-6.184a10.989,10.989,0,0,0,.152-2.18q-.051-.912-.152.557a13.967,13.967,0,0,1-1.723,5.119A21.145,21.145,0,0,1,643.463,579.871Z" transform="translate(-643.463 -571.158)" fill="#68412f"/>
            </g>
          </g>
        </g>
        <g id="Group_68910" data-name="Group 68910" transform="translate(127.674 128.578)">
          <g id="Group_68909" data-name="Group 68909" transform="translate(0)">
            <g id="Group_68908" data-name="Group 68908">
              <path id="Path_54274" data-name="Path 54274" d="M524.879,659.675q-1.875,2.281-1.318,6.843a12.034,12.034,0,0,0,.406,2.18q.3.862,0-.608a13.755,13.755,0,0,1,.2-5.424Z" transform="translate(-523.433 -659.675)" fill="#68412f"/>
            </g>
          </g>
        </g>
        <g id="Group_68913" data-name="Group 68913" transform="translate(9.99 138.715)">
          <g id="Group_68912" data-name="Group 68912" transform="translate(0)">
            <g id="Group_68911" data-name="Group 68911">
              <path id="Path_54275" data-name="Path 54275" d="M41.658,701.242q-1.47,2.585-.152,6.995a12.494,12.494,0,0,0,.862,2.028q.456.76-.1-.558a14.249,14.249,0,0,1-.811-5.373Z" transform="translate(-40.883 -701.242)" fill="#68412f"/>
            </g>
          </g>
        </g>
        <g id="Group_68916" data-name="Group 68916" transform="translate(66.319 59.035)">
          <g id="Group_68915" data-name="Group 68915" transform="translate(0 0)">
            <g id="Group_68914" data-name="Group 68914">
              <path id="Path_54276" data-name="Path 54276" d="M271.851,374.522l.811,2.636q.355.507,8.465,12.57,8.262,12.064,9.783,13.179l-.406-.811q-1.014-.76-6.133-8.566-6.133-9.631-8.668-13.584a22.928,22.928,0,0,1-1.825-3.5Z" transform="translate(-271.851 -374.522)" fill="#ff9d3c"/>
            </g>
          </g>
        </g>
        <g id="Group_68919" data-name="Group 68919" transform="translate(123.071 107.644)">
          <g id="Group_68918" data-name="Group 68918">
            <g id="Group_68917" data-name="Group 68917">
              <path id="Path_54277" data-name="Path 54277" d="M505.588,587.676a36.955,36.955,0,0,0,2.281,8.667q.2.456.811,2.23.558,1.571.76,1.622.355.1,0-2.839-2.332-3.092-3.8-13.584l-1.064-9.935A71.981,71.981,0,0,0,505.588,587.676Z" transform="translate(-504.556 -573.838)" fill="#68412f"/>
            </g>
          </g>
        </g>
      </g>
      <g id="Layer_2" transform="translate(641.699 17.948)">
        <g id="face" transform="translate(44.022 22.207) rotate(28.576)">
          <g id="Group_68922" data-name="Group 68922" transform="translate(0 0)">
            <g id="Group_68921" data-name="Group 68921">
              <g id="Group_68920" data-name="Group 68920">
                <path id="Path_54278" data-name="Path 54278" d="M9.756,68.366a5.749,5.749,0,0,1,.5-2.356l.443-.748q-.887-.333-3.908-4.6a34.185,34.185,0,0,0-4.046-5.127Q6.43,70.389,14.412,79.674l-.748-1.164Q9.617,72.634,9.756,68.366M40.908.3A49.807,49.807,0,0,0,31.6.158a29.113,29.113,0,0,0-8.148,1.968,26.344,26.344,0,0,0-4.878,2.633,45.881,45.881,0,0,0-11,11.308A46.554,46.554,0,0,0,.111,33.444a41.5,41.5,0,0,0,0,6.07,111.439,111.439,0,0,0,2,13.276q8.408,3.036,8.7,9.645,3.548-4.795,5.737-13.359a62.685,62.685,0,0,0,2-16.99q-.111-5.266,4.684-9.229a17.6,17.6,0,0,1,7.622-3.825q2.938-.582,12.971-.554A100.864,100.864,0,0,1,64.965,20.39,11.34,11.34,0,0,1,73.03,28.4,36.7,36.7,0,0,1,75,39.985Q76.1,28.421,73,20.667a30.534,30.534,0,0,0-7.76-11.5A34.02,34.02,0,0,0,50.248,1.71Q45.185.706,40.908.3Z" fill="#68412f"/>
                <path id="Path_54279" data-name="Path 54279" d="M18.459,4.462a26.344,26.344,0,0,1,4.878-2.633A30.951,30.951,0,0,0,5.571,15.41,37.775,37.775,0,0,0,.665,28.242,39.434,39.434,0,0,0,0,33.148,46.554,46.554,0,0,1,7.455,15.77a45.881,45.881,0,0,1,11-11.308M73.086,53.214q0,.028.859,3.1.166.8.277,1.607A26.717,26.717,0,0,1,74.361,64q-1.136,12.25-13.276,19.761a47.935,47.935,0,0,1-10.338,5.183q-5.238,1.635-14.412,1.774a22.859,22.859,0,0,1-6.513-1.025L28.1,89.105l1.469.527a46.181,46.181,0,0,0,5.127,1.3,39.046,39.046,0,0,0,16.047-.055,34.26,34.26,0,0,0,13.387-6.818A31.438,31.438,0,0,0,72.975,73.89a24.225,24.225,0,0,0,2.716-10.476,17.725,17.725,0,0,0-.859-5.488q-.277-.831-.582-1.718-.8-2-1.164-2.993M40.8,0q4.277.409,9.34,1.413A46.922,46.922,0,0,0,40.8,0Z" transform="translate(0.111 0.296)" fill="#9b7458"/>
                <path id="Path_54280" data-name="Path 54280" d="M41.712,0Q31.679-.026,28.741.556A17.6,17.6,0,0,0,21.119,4.38q-4.795,3.963-4.684,9.229a62.685,62.685,0,0,1-2,16.99Q12.25,39.163,8.7,43.958,8.408,37.35,0,34.313q.3,1.4.637,2.744a34.185,34.185,0,0,1,4.046,5.127q3.021,4.268,3.908,4.6l-.443.748a5.749,5.749,0,0,0-.5,2.356q-.139,4.268,3.908,10.144l.748,1.164q.61.721,1.275,1.413a33.413,33.413,0,0,0,8.7,6.763,16.5,16.5,0,0,0,3.825,1.552l1.718.582a22.859,22.859,0,0,0,6.513,1.025q9.174-.139,14.412-1.774a47.934,47.934,0,0,0,10.338-5.183q12.139-7.511,13.276-19.761a26.717,26.717,0,0,0-.139-6.07q-.111-.8-.277-1.607-.859-3.076-.859-3.1a3.767,3.767,0,0,1-.333-.97,90.782,90.782,0,0,0,2.134-12.555A36.7,36.7,0,0,0,70.924,9.923a11.34,11.34,0,0,0-8.065-8.01A100.864,100.864,0,0,0,41.712,0Z" transform="translate(2.106 18.477)" fill="#83523b"/>
              </g>
            </g>
          </g>
        </g>
        <g id="hair_top" transform="translate(42.83 19.958) rotate(28.576)">
          <g id="color" transform="translate(0.134 0)">
            <g id="Group_68925" data-name="Group 68925" transform="translate(0)">
              <g id="Group_68924" data-name="Group 68924">
                <g id="Group_68923" data-name="Group 68923">
                  <path id="Path_54281" data-name="Path 54281" d="M56.45,1.812a3.521,3.521,0,0,0-1.358-.776A15.276,15.276,0,0,0,51.239.093a13.717,13.717,0,0,0-5.155.388Q44.7.34,42.287.2A4.347,4.347,0,0,0,38.573,1.59,44.851,44.851,0,0,1,46.223,8.3,50.579,50.579,0,0,1,53.235,17.8a2.318,2.318,0,0,0,.443.527,1.5,1.5,0,0,0,.831.36q3.27.166,3.381.166a47.516,47.516,0,0,1,5.4.859A54.807,54.807,0,0,1,71,21.767q4.518,1.885,5.682,10.975a42.354,42.354,0,0,1,.249,8.73q.527-2.938.97-6.569a48.631,48.631,0,0,0,.443-10.837,18.127,18.127,0,0,0-1.857-5.626,51.345,51.345,0,0,0-3.049-5.183,19.405,19.405,0,0,0-3.908-4.019,7.446,7.446,0,0,0-.942-1.718,13.145,13.145,0,0,0-2.162-2.384,9.232,9.232,0,0,0-3.076-1.524,17.835,17.835,0,0,0-3.936-.859,4.366,4.366,0,0,0-2.966-.942M35.58.98a6.814,6.814,0,0,0-2.079.5,19.655,19.655,0,0,0-4.878-.3,22.24,22.24,0,0,0-4.462.887q-6.042,1.774-8.98,4.767a11.362,11.362,0,0,0-4.019,2.605,8.811,8.811,0,0,0-2.522,4.074,3.11,3.11,0,0,0-1.109,1.136,4.166,4.166,0,0,0-.693,1.524,11.85,11.85,0,0,0-3.076,4.684,10.313,10.313,0,0,0-.637,2.494q-1.247,1.8-1.275,1.829A13.464,13.464,0,0,0,.243,29.194a11.5,11.5,0,0,0-.028,4.573A7.1,7.1,0,0,0,.8,36.012,6.586,6.586,0,0,0,.16,38.867a5.411,5.411,0,0,0,.388,2.439A6.713,6.713,0,0,0,.8,44.632a9.291,9.291,0,0,0,1.413,2.8A36.809,36.809,0,0,0,12.271,60.4a.8.8,0,0,0,.915.139,2.567,2.567,0,0,0,.748-.637,13.263,13.263,0,0,0,2.578-5.044q.36-1.164,1.219-5.709a49.918,49.918,0,0,0,.887-9.063,48.111,48.111,0,0,1,.471-6.319q.8-5.9,2.55-8.065.693-.887,1.053-1.33A10.524,10.524,0,0,1,23.8,23.1a13.743,13.743,0,0,1,5.793-3.132,38.478,38.478,0,0,1,6.375-1.025,5.24,5.24,0,0,0,.139.665,2.872,2.872,0,0,0-.527.083,2.718,2.718,0,0,0-1.33.693,3.066,3.066,0,0,0-.8,1.275,2.958,2.958,0,0,0-.111,1.5,2.84,2.84,0,0,0,.8,1.5,2.544,2.544,0,0,0,.388.333l-.3.3-.194.333a2.423,2.423,0,0,0-.055.61v.222l.083.249a1.329,1.329,0,0,0,.859.831,1.361,1.361,0,0,0,1.192-.055,1.435,1.435,0,0,0,.748-.97l.028-.249a1.5,1.5,0,0,0-.028-.471l-.111-.277a2.5,2.5,0,0,0,.388-.083,3.066,3.066,0,0,0,1.275-.8,2.742,2.742,0,0,0,.721-1.3,2.709,2.709,0,0,0,.083-.637,4.688,4.688,0,0,0,2.411.166,4.794,4.794,0,0,0,2.3-1.164,5.147,5.147,0,0,0,1.358-2.19,5.215,5.215,0,0,0,.139-.637,55.1,55.1,0,0,0,6.541-.194,1.18,1.18,0,0,0,.249-1.3q-.582-1.413-5.155-6.9A71.826,71.826,0,0,0,39.9,2.782,12.769,12.769,0,0,0,37.77,1.368,4.318,4.318,0,0,0,35.58.98Z" fill="#24110f"/>
                </g>
              </g>
            </g>
          </g>
          <g id="shade" transform="translate(0 2.144)">
            <g id="Group_68928" data-name="Group 68928" transform="translate(0 0)">
              <g id="Group_68927" data-name="Group 68927">
                <g id="Group_68926" data-name="Group 68926">
                  <path id="Path_54282" data-name="Path 54282" d="M35.658,14.523q-.866.728-4.518,1.275a32.668,32.668,0,0,0-5.349,1.192,9.219,9.219,0,0,0-4.046,2.688Q18.669,23.42,17.7,30.709q-.333,2.411-.5,9.035a38.7,38.7,0,0,1-1.053,7.871,33.168,33.168,0,0,1-2.91,7.178,35.429,35.429,0,0,1-5.072-5.377l-3.132-5.46q-.083-.222-.36-1-.249-.776-.3-.887a3.4,3.4,0,0,0-.5-1.635A4.265,4.265,0,0,1,3.2,37.776q.277-.8.388-1.219a4.6,4.6,0,0,0-.083-1.912q-.388-1.635-.416-1.94a2.176,2.176,0,0,1,.5-1.136,4.024,4.024,0,0,0,.637-1.885,16.347,16.347,0,0,0-.166-2.106,3.425,3.425,0,0,1,.277-2,4.63,4.63,0,0,1,.721-1.025,3.247,3.247,0,0,0,.388-.443,2.751,2.751,0,0,0,.333-.443,1.418,1.418,0,0,0,.028-1.192,1.286,1.286,0,0,0-.554-.61A5.678,5.678,0,0,0,6.64,19.9a3.513,3.513,0,0,0,.111-1.691,11.611,11.611,0,0,1,1.3-1.081,5.273,5.273,0,0,0,1.164-1.192A5.092,5.092,0,0,0,11.1,13.913a3.576,3.576,0,0,0,.111-2.023q.637-.139,2.661-3.686,2-3.575,1.552-3.52a9.86,9.86,0,0,0-5.1,3.575,16.536,16.536,0,0,0-1.5,3.021,4.116,4.116,0,0,0-1.857,2.661,10.75,10.75,0,0,0-2.966,4.545,8.051,8.051,0,0,0-.8,2.882,10.035,10.035,0,0,0-2.55,4.6,10.933,10.933,0,0,0,.166,7.9A7.071,7.071,0,0,0,.238,36.7,7.371,7.371,0,0,0,.6,39.273a4.994,4.994,0,0,0,.166,2.688q.471,2.106,1.164,2.522.249,1.8,3.548,6.208a41.961,41.961,0,0,0,4.213,5.044q.36.36,1.552,1.386,1.3,1.109,1.607,1.3.36.194,1.109-.582a6.712,6.712,0,0,0,1-1.247A23.462,23.462,0,0,0,17.366,50a49.186,49.186,0,0,0,1.3-7.954q.083-4.739.249-7.622a29.052,29.052,0,0,1,1.829-9.063,12.671,12.671,0,0,1,2.91-3.991,16.244,16.244,0,0,1,2.827-2.384q2.633-1.524,9.673-2.19a4.568,4.568,0,0,1-.5-2.273m16.712,1.94q.388-.942-.665-2.522l-1.164-1.413a4.128,4.128,0,0,0,.277,1.164,1.524,1.524,0,0,1,.083.915,1.326,1.326,0,0,1-.748.831,7.357,7.357,0,0,1-1.5.36,6.565,6.565,0,0,1-2.744-.3L44.5,14.966q-.043,4.806-4.545,4.628l-1.3-.333a3.287,3.287,0,0,1-2.661,3.769q.888,1.752-.554,2.494,2.106-.226,1.524-2.106a4.15,4.15,0,0,0,1.3-.665,2.37,2.37,0,0,0,1.219-2.162,4.088,4.088,0,0,0,2.245.111,4.879,4.879,0,0,0,1.857-.721,4.561,4.561,0,0,0,2.023-3.243q1.378.052,1.885.055,4.712.055,4.878-.333m14.218,1.829a18.008,18.008,0,0,1,5.876,2.245A9.4,9.4,0,0,1,75.9,26.163a73.406,73.406,0,0,1,1.5,9.479q.527-.665.249-4.1-.111-1.136-.582-4.795a15.5,15.5,0,0,0-.471-2.328,11.659,11.659,0,0,0-4.268-6.1,14.431,14.431,0,0,0-6.957-2.772L61.877,15.3q-1.885-.028-2.91-.083a11.489,11.489,0,0,1-3.243-.554A113.657,113.657,0,0,0,45.691,4.767,71.971,71.971,0,0,0,39.7,0q6.375,5.931,7.4,7.178,4.157,5.183,5.072,6.513a17.658,17.658,0,0,1,.97,1.774q.637,1.136,1.081,1.136a51.717,51.717,0,0,1,5.682.582Q64.649,17.821,66.589,18.292Z"/>
                </g>
              </g>
            </g>
          </g>
          <g id="light" transform="translate(30.947 1.257)">
            <g id="Group_68931" data-name="Group 68931" transform="translate(0 0)">
              <g id="Group_68930" data-name="Group 68930" transform="translate(0 0)">
                <g id="Group_68929" data-name="Group 68929">
                  <path id="Path_54283" data-name="Path 54283" d="M6.291,19.151a5.973,5.973,0,0,1,.915-.083,6.327,6.327,0,0,1-1.8-5.709,5.225,5.225,0,0,0-.083,4.961,2.832,2.832,0,0,0-2.8,2.3,2.742,2.742,0,0,0,1.053,3.1q-.8,1.118-.333,1.857t.942.665a1.289,1.289,0,0,1-.637-.8,2.132,2.132,0,0,1,.111-1.025q.225-.488.554-.554-1.907-2.972.3-4.157a5.569,5.569,0,0,1,1.774-.554m19.872-8.37a8.245,8.245,0,0,0-3.3.61l-1.192.637,2.633-.665a16.389,16.389,0,0,1,7.317,1.053,9.419,9.419,0,0,0-5.46-1.635m-.887-5.349a4.84,4.84,0,0,0-1.857-.277,9.865,9.865,0,0,0-3.464.3,8.629,8.629,0,0,0-2.55,1.247l-.776.693,2.3-1.025a17.794,17.794,0,0,1,6.347-.942M27.3,10.421q-.083-.194-1.053-.443A4.229,4.229,0,0,0,24,9.811a7.216,7.216,0,0,0-2.079.8l-.721.554,1.8-.637a8.928,8.928,0,0,1,4.3-.111M25.914,8.98a3.655,3.655,0,0,0-2.051-1.691,8.976,8.976,0,0,1,3.354.5q.97.388,2.633,1.192a21.011,21.011,0,0,0-2.162-1.524,5.436,5.436,0,0,0-2.772-.887,13.654,13.654,0,0,0-2.633.249A8.8,8.8,0,0,0,18.708,8.9q0,.028,1.912-.887a7.371,7.371,0,0,1,5.294.97m4.351,4.739a23.575,23.575,0,0,1,5.488,1.053,19.616,19.616,0,0,0-8.315-2.051A9.211,9.211,0,0,0,23.253,14q-.028.028,1.663-.333a10.619,10.619,0,0,1,2.882-.249A3.75,3.75,0,0,0,25.942,14.5l-.527.748a9.4,9.4,0,0,1,4.85-1.524m3.354-11.28a16.9,16.9,0,0,0-3.409-.8l-1.829-.194,1.247.3A17.915,17.915,0,0,1,32.51,2.855q4.379,2.162,5.46,5.82,2.8,1.58,8.9,11.391a38.551,38.551,0,0,0-3.658-7.234A15.189,15.189,0,0,0,38.8,7.954Q36,3.326,33.619,2.439M14.052,3.963a11.78,11.78,0,0,1,2.106-.111,2.924,2.924,0,0,0-1.3.887q-.527.693-.222.5a8.545,8.545,0,0,1,3.3-1.192,18.089,18.089,0,0,1,4.823.277,13.349,13.349,0,0,0-9.867-.249,9.275,9.275,0,0,0,1.164-.111M8.065,3.936a4.926,4.926,0,0,0-1.33-.083,6.344,6.344,0,0,0-2.023.5A6.054,6.054,0,0,0,2.882,5.432a13.485,13.485,0,0,1,7.455-.3,2.282,2.282,0,0,1,1.58,1.524,12.5,12.5,0,0,0-5.571.776A7.671,7.671,0,0,0,3.631,8.952q.407-.171,2.688-.721A20.576,20.576,0,0,1,9.95,7.649a10.148,10.148,0,0,1,4.324.665,6.052,6.052,0,0,0-1.608-.028,16.2,16.2,0,0,0-1.912.194A11.162,11.162,0,0,0,5.82,10.892q1.663-.8,2.633-1.192a8.976,8.976,0,0,1,3.354-.5,3.655,3.655,0,0,0-2.051,1.691,11.128,11.128,0,0,1,2.938-1.081,7.233,7.233,0,0,1,2.273-.194,2.268,2.268,0,0,1,1.192.582,2.156,2.156,0,0,1,.5.61h0a17.373,17.373,0,0,0-7.733,2.744,18.282,18.282,0,0,1,4.684-1.247,8.3,8.3,0,0,1,3.464.471q.333.139-.333-.443a2.683,2.683,0,0,0-1.441-.582,9.491,9.491,0,0,1,2-.333q1.03.827,1.885,1.58A52.407,52.407,0,0,0,13.47,5.737Q8.9.665,6.735,0q1.718,1.829.8,2.217a20.106,20.106,0,0,0-3.6-.194A7.264,7.264,0,0,0,0,3.27a21.052,21.052,0,0,1,8.814-.3Q10.074,3.6,9.978,4.24q-1.413-.249-1.912-.3M11.28,2.688A12.475,12.475,0,0,1,16.6,1.746,7.476,7.476,0,0,1,19.789,2.8a2.44,2.44,0,0,0-.831-.776,6.873,6.873,0,0,0-3.409-.915A7.167,7.167,0,0,1,19.512.915a20.368,20.368,0,0,1,2.356.471A6.626,6.626,0,0,0,17.378.277,9.754,9.754,0,0,0,11.28,2.688Z" fill="#4f403f"/>
                </g>
              </g>
            </g>
          </g>
        </g>
        <g id="mouth" transform="translate(46.04 103.332) rotate(28.576)">
          <g id="Layer_1" transform="translate(0 0)">
            <g id="Group_68933" data-name="Group 68933" transform="translate(0 0)">
              <g id="Group_68932" data-name="Group 68932">
                <path id="Path_54284" data-name="Path 54284" d="M11.086.859,10.67.97h-.055L10.587,1l-4.379,1.5-.194.028-.166.055-.36.055-.055.028H5.294l-.111.028H5.1l-.166.028-.942.055L2.716,2.633l-.194-.055-.665-.249a2.805,2.805,0,0,1-.582-.416l-.083-.055L1.136,1.8l-.083-.055L1,1.663.97,1.635H.942L.887,1.552.721,1.386V1.358H.693L.665,1.275.554,1.109.222.416.111.028.055,0,.028.055,0,.139.028.249V.443L.083.859l.111.416.083.194.055.083v.055l.055.055.083.166.055.083.028.055L.582,2l.139.194.028.028.028.055.055.083a3.955,3.955,0,0,0,.665.582,3.037,3.037,0,0,0,.776.388L3.1,3.6l1.663.139h.222l.222-.028h.3l.055-.028h.055l.416-.055.194-.055.222-.028.388-.111.222-.028.194-.055,3.714-1.469-.055.028L11,1.885h-.028l.139-.028.194-.028.36-.111.554-.083h1.3l.388.055.166.055.194.028,1.247.5,1,.637.166.139h.083V2.966l-.388-.471L15.6,1.8l-.721-.443-.111-.028-.083-.055-.61-.249L13.442.859,12.8.776a2.512,2.512,0,0,0-.443-.028h-.194l-.222.028A2.512,2.512,0,0,0,11.5.8Z" fill="#003"/>
              </g>
            </g>
          </g>
        </g>
        <g id="nose" transform="translate(57.771 95.583) rotate(28.576)">
          <g id="Layer_2-2" data-name="Layer_2" transform="translate(0.211 0.191)">
            <g id="Group_68936" data-name="Group 68936" transform="translate(0 0)">
              <g id="Group_68935" data-name="Group 68935">
                <g id="Group_68934" data-name="Group 68934">
                  <path id="Path_54285" data-name="Path 54285" d="M2.921.281a7.287,7.287,0,0,0-2,.915A2.193,2.193,0,0,0,.011,3.108,2.083,2.083,0,0,0,1.369,4.771,5.7,5.7,0,0,0,3.586,5.1l.721-.028A4.882,4.882,0,0,0,6.33,4.189a3.031,3.031,0,0,0,.693-.582,1.689,1.689,0,0,0,.3-1.774A2.43,2.43,0,0,0,6.247.585,3.228,3.228,0,0,0,4,.031,4.568,4.568,0,0,0,2.921.281Z" fill="#83523b"/>
                </g>
              </g>
            </g>
          </g>
          <g id="Layer_1-2" data-name="Layer_1" transform="translate(0 0)">
            <g id="Group_68938" data-name="Group 68938" transform="translate(0 0)">
              <g id="Group_68937" data-name="Group 68937">
                <path id="Path_54286" data-name="Path 54286" d="M5.543.028H5.432L5.238,0h-.5l-.5.083a.049.049,0,0,0-.055.055l.028.028.194.055L4.85.3q.554.166.693.222l.471.222L6.1.8l.111.055.083.083a1.043,1.043,0,0,1,.333.3l.083.111.083.083.3.693.055.277v.194l.028.055-.028.111v.166l-.028.055v.083L7.1,3.132l-.028.083-.055.111-.139.194a2.959,2.959,0,0,1-.915.637l-.61.222-.166.028-.055.028H5.1l-.055.028L4.407,4.6H4.324l-.055.028-.333.055H3.825l-.166.028H2.8l-.166-.028H2.494l-.527-.111-.111-.055H1.8L1.746,4.49l-.139-.028L1.58,4.434H1.552l-.166-.083-.111-.028-.083-.055-.111-.055L1,4.157.831,4.019.776,3.991.748,3.963.665,3.908.443,3.631V3.6L.416,3.575.388,3.492.333,3.437l-.083-.3V3.076L.222,3.021V2.938L.194,2.772.139,2.716l-.028.028L.083,2.8l-.055.222v.111L0,3.187v.166l.028.083v.111L.055,3.6v.111l.028.028V3.8l.055.111.028.083.111.222.083.111H.388v.028L.61,4.6l.111.083.111.111.222.166.055.028.055.055.111.055H1.3l.277.166.748.277h.083l.083.028.859.139,1.053-.028.083-.028h.083l.721-.139h.055l.028-.028H5.4l.083-.028.166-.028.721-.277a4.33,4.33,0,0,0,.721-.36l.028-.055.055-.028.083-.055.166-.139A1.317,1.317,0,0,0,7.7,4.185a1.952,1.952,0,0,0,.416-.776V3.3l.055-.222v-.3l-.028-.194V2.494L8.093,2.3V2.19l-.028-.083-.028-.028V2.023l-.083-.166a2.958,2.958,0,0,0-.333-.637A1.73,1.73,0,0,0,7.178.693L6.513.277,6.4.222,6.264.194,6.125.139A1.492,1.492,0,0,0,5.654.055Z" fill="#68412f"/>
              </g>
            </g>
          </g>
        </g>
        <g id="ear" transform="translate(19.095 60.792) rotate(28.576)">
          <g id="Layer_1-3" data-name="Layer_1" transform="translate(0 0)">
            <g id="Group_68942" data-name="Group 68942" transform="translate(0 0)">
              <g id="Group_68940" data-name="Group 68940">
                <g id="Group_68939" data-name="Group 68939">
                  <path id="Path_54287" data-name="Path 54287" d="M10.064,3.7A7.2,7.2,0,0,0,6.324.255,4.814,4.814,0,0,0,2.313.694Q.082,1.91,0,6.436a10.627,10.627,0,0,1,1.482-3.31A3.607,3.607,0,0,1,3.514,1.5a5.41,5.41,0,0,1,3.372.236q2.7,1.216,5.126,5.877A38.538,38.538,0,0,0,10.064,3.7Z" transform="translate(0.016 0)" fill="#9b7458"/>
                  <path id="Path_54288" data-name="Path 54288" d="M13.823,12.079A32.276,32.276,0,0,0,12.029,6.27Q9.605,1.609,6.9.393A5.41,5.41,0,0,0,3.53.157,3.607,3.607,0,0,0,1.5,1.778,10.627,10.627,0,0,0,.016,5.088.434.434,0,0,0,0,5.257a22.959,22.959,0,0,0,1.768,8.95q.414,1.013.872,1.891a14.132,14.132,0,0,0,2.315,3.31,6.285,6.285,0,0,0,3.075,2.06,5.505,5.505,0,0,0,3.554-.608A5.19,5.19,0,0,0,13.3,19.746q1.682-2.2.524-7.667M2.462,5.865A4.018,4.018,0,0,1,3.478,4.007,1.992,1.992,0,0,1,5.472,3.3q2.881.676,4.834,10.2Q8.353,3.973,5.472,3.3a1.992,1.992,0,0,0-1.994.709A4.018,4.018,0,0,0,2.462,5.865Z" transform="translate(0 1.348)" fill="#83523b"/>
                </g>
              </g>
              <g id="Group_68941" data-name="Group 68941" transform="translate(2.385 4.004)">
                <path id="Path_54289" data-name="Path 54289" d="M3.149.034H2.983L2.869,0h-.36L2.182.068,1.33.507,1.024.844.972.878.7,1.25l-.242.439-.075.1-.047.1-.206.54L.084,2.6l-.07.507.005.068q-.05.068.033.068L.1,3.209.13,3.175.174,3.04l.05-.068.047-.1.147-.236.709-.844.156-.135h.028l0-.034h.028l.105-.068.025-.034.289-.2.216-.068.105-.068L2.3,1.148a.745.745,0,0,1,.443,0H2.85l.058.034h.055l.03.034h.111l.058.034h.028l0,.034h.028l.058.034h.028l.03.034h.055l.058.034.326.27.058.034.152.169.119.1a7.568,7.568,0,0,1,.757,1.148l.191.3.234.507.1.169.3.675,1.926,5.37.08.3.1.2.072.2.058.034.022-.068.012-.2L7.819,9.221,7.015,5.4l-.1-.27-.008-.1L5.777,2.4,5.3,1.689A.4.4,0,0,0,5.18,1.52l-.188-.27L4.9,1.182l-.124-.169-.238-.2L4.481.743,4.127.473,3.778.27,3.606.2,3.548.169H3.52L3.407.135,3.349.1H3.321L3.235.068H3.152Z" transform="translate(0 0)" fill="#68412f"/>
              </g>
            </g>
          </g>
        </g>
        <g id="eyes" transform="translate(47.022 80.726) rotate(28.576)">
          <g id="pupil" transform="translate(0.665 0.007)">
            <g id="Layer_1-4" data-name="Layer_1" transform="translate(0 0)">
              <g id="Group_68945" data-name="Group 68945">
                <g id="Group_68944" data-name="Group 68944">
                  <g id="Group_68943" data-name="Group 68943">
                    <path id="Path_54290" data-name="Path 54290" d="M5.709,1.109A3.019,3.019,0,0,0,3.354,0,3.1,3.1,0,0,0,.97,1.109,4.008,4.008,0,0,0,0,3.8,3.9,3.9,0,0,0,.97,6.458,3.1,3.1,0,0,0,3.354,7.566,3.019,3.019,0,0,0,5.709,6.458a3.84,3.84,0,0,0,1-2.661A3.942,3.942,0,0,0,5.709,1.109Z" fill="#03012e"/>
                  </g>
                </g>
              </g>
            </g>
            <g id="Layer_2-3" data-name="Layer_2" transform="translate(4.185 1.802)">
              <g id="Group_68948" data-name="Group 68948" transform="translate(0 0)">
                <g id="Group_68947" data-name="Group 68947">
                  <g id="Group_68946" data-name="Group 68946">
                    <path id="Path_54291" data-name="Path 54291" d="M1.053.582A.564.564,0,0,0,.887.166.447.447,0,0,0,.527,0a.447.447,0,0,0-.36.166A.564.564,0,0,0,0,.582.564.564,0,0,0,.166,1a.447.447,0,0,0,.36.166A.447.447,0,0,0,.887,1,.564.564,0,0,0,1.053.582Z" fill="#fff"/>
                  </g>
                </g>
              </g>
            </g>
          </g>
          <g id="eyelid" transform="translate(0 6.659)">
            <g id="Group_68950" data-name="Group 68950" transform="translate(0 0)">
              <g id="Group_68949" data-name="Group 68949" transform="translate(0)">
                <path id="Path_54292" data-name="Path 54292" d="M4.24.249,4.019.166,3.16,0H2.245L2.106.028H1.94L1.8.055H1.746L1.663.083.721.333.194.582.166.61.083.665.028.721,0,.776.055.8,2.273.776,2.411.8H2.8l.831.083L4.019.97H4.1L5.4,1.3a.425.425,0,0,1,.166.055l.139.028.111.055H5.9l.055.028q.083.055.083-.028V1.386l-.166-.166-.028-.055L5.432.831,5.266.721,5.155.665,5.044.582,4.823.471,4.3.277Z" fill="#03012e"/>
              </g>
            </g>
          </g>
          <g id="pupil_copy" transform="translate(27.078 0)">
            <g id="Layer_1-5" data-name="Layer_1" transform="translate(0 0)">
              <g id="Group_68953" data-name="Group 68953" transform="translate(0 0)">
                <g id="Group_68952" data-name="Group 68952">
                  <g id="Group_68951" data-name="Group 68951">
                    <path id="Path_54293" data-name="Path 54293" d="M5.426,1.054A2.869,2.869,0,0,0,3.187,0,2.947,2.947,0,0,0,.922,1.054,3.809,3.809,0,0,0,0,3.609,3.71,3.71,0,0,0,.922,6.137,2.947,2.947,0,0,0,3.187,7.191,2.869,2.869,0,0,0,5.426,6.137a3.65,3.65,0,0,0,.948-2.529A3.746,3.746,0,0,0,5.426,1.054Z" fill="#03012e"/>
                  </g>
                </g>
              </g>
            </g>
            <g id="Layer_2-4" data-name="Layer_2" transform="translate(3.978 1.712)">
              <g id="Group_68956" data-name="Group 68956" transform="translate(0 0)">
                <g id="Group_68955" data-name="Group 68955" transform="translate(0 0)">
                  <g id="Group_68954" data-name="Group 68954">
                    <path id="Path_54294" data-name="Path 54294" d="M1,.553a.536.536,0,0,0-.158-.4A.425.425,0,0,0,.5,0,.425.425,0,0,0,.158.158.536.536,0,0,0,0,.553a.536.536,0,0,0,.158.4A.425.425,0,0,0,.5,1.106.425.425,0,0,0,.843.948.536.536,0,0,0,1,.553Z" fill="#fff"/>
                  </g>
                </g>
              </g>
            </g>
          </g>
          <g id="eyelid_copy" transform="translate(28.824 6.271)">
            <g id="Group_68958" data-name="Group 68958" transform="translate(0 0)">
              <g id="Group_68957" data-name="Group 68957">
                <path id="Path_54295" data-name="Path 54295" d="M4.046.194,3.381.028,3.132,0H2.605L1.829.111,1.718.139,1.469.249,1.358.277,1.025.443.942.5.831.554.748.61.665.693.5.8.443.859.333,1l-.222.222-.028.055L.028,1.33,0,1.386l.028.083H.083l.055-.028H.194L.3,1.386l1-.333h.083l.055-.028H1.5L1.58,1A1.886,1.886,0,0,1,2.023.915L2.661.8h.333L3.1.776h1.33l.5.028A.049.049,0,0,0,4.989.748L4.961.721,4.933.665,4.85.61,4.823.582,4.767.554,4.407.333Z" fill="#03012e"/>
              </g>
            </g>
          </g>
        </g>
        <g id="brow_l" transform="translate(46.441 68.929) rotate(28.576)">
          <g id="Layer_1-6" data-name="Layer_1" transform="translate(0 0)">
            <g id="Group_68960" data-name="Group 68960" transform="translate(0 0)">
              <g id="Group_68959" data-name="Group 68959">
                <path id="Path_54296" data-name="Path 54296" d="M4.545.222,4.518.249H4.462L4.379.277,4.24.3,3.3.637,2.688.97,2.605,1l-.055.055-.166.083-.831.721L1.5,1.94l-.333.36L.61,3.187l-.3.776-.028.055L.249,4.1.166,4.49v.139l-.083.36L0,5.682v.831l.028.139v.111L.083,7.1a.049.049,0,0,0,.055.055l.028-.028.083-.443L.3,6.541.36,6.264.748,5.044.8,4.961.859,4.85l.028-.111.665-1.247.166-.222L1.8,3.187l.028-.055.055-.055.083-.111.388-.388.222-.166L2.661,2.3l.36-.249L3.132,2l.055-.055.194-.083.111-.083.249-.111.083-.055.443-.194.277-.083.111-.055h.083l.028-.028h.028l.139-.055h.111V1.164h.028l.277-.083L7.372.748h.111L7.594.721H8.01L8.2.693,9.423.721q.055.055.055-.028L9.451.637,9.312.554,9.146.5,9.035.443,8.9.416,8.453.249H8.342L8.065.166,7.622.083H7.511L7.372.055,6.6,0,4.85.166H4.823L4.795.194H4.684Z" fill="#03012e"/>
              </g>
            </g>
          </g>
        </g>
        <g id="color-2" data-name="color" transform="translate(103.934 78.473) rotate(-115.152)">
          <g id="Group_68964" data-name="Group 68964" transform="translate(0 0)">
            <g id="Group_68963" data-name="Group 68963">
              <g id="Group_68962" data-name="Group 68962">
                <path id="Path_54297" data-name="Path 54297" d="M36.741,26.551a4.126,4.126,0,0,1-1.912,2.779,2.8,2.8,0,0,1-3.317-.09,3.544,3.544,0,0,1-.508.568,5.433,5.433,0,0,1-2.181,1.4,2.856,2.856,0,0,1-3.376-1.106,8.779,8.779,0,0,1-2.779,3.556,3.985,3.985,0,0,1-3.257,1.046,4.947,4.947,0,0,1-2.36-1.135A6.045,6.045,0,0,1,15.617,31q-.687,1.464-1.942,1.046a3.084,3.084,0,0,1-1.643-1.434,3.424,3.424,0,0,1-1.285,1.524,2.02,2.02,0,0,1-1.882.09,4.066,4.066,0,0,1-1.016-.837,3.151,3.151,0,0,1-.627-1.135,3.5,3.5,0,0,1,.717-3.735.571.571,0,0,1-.866-.329A.937.937,0,0,1,7.4,25.057q-1.763.866-3.436-.866a3.805,3.805,0,0,1-.807-4.332,3.119,3.119,0,0,1-2.271-.717l-.269-.269A1.625,1.625,0,0,1,.2,18.125,2.585,2.585,0,0,1,.05,16.661q.568-2.629,2.9-2.39a.944.944,0,0,1,.717.329,1.448,1.448,0,0,0,.209.179.409.409,0,0,0,.239.149.562.562,0,0,1-.149-.329.859.859,0,0,1,.09-.657,1.286,1.286,0,0,1,.777-.568,3.087,3.087,0,0,1-2.42-2.958A3.61,3.61,0,0,1,4.352,7.19a8.364,8.364,0,0,1-.388-1.255,1.437,1.437,0,0,1,.03-.866.82.82,0,0,1,.359-.538,1.516,1.516,0,0,1,2.092,0,1.328,1.328,0,0,1,.179.418,3.616,3.616,0,0,1,.03,1.673.388.388,0,0,0,.3,0,5.428,5.428,0,0,1,1.016.269A2.072,2.072,0,0,1,9.312,8.026q-.12-.627-.149-.956a1.66,1.66,0,0,1,.329-.747.8.8,0,0,1,.747-.329l.329.149a1.936,1.936,0,0,1-.508-1.912,1.318,1.318,0,0,1,.627-.956,2.674,2.674,0,0,1,.6-.239,2.887,2.887,0,0,1,1.524.538.754.754,0,0,0,.09.179,1.3,1.3,0,0,1,.209.478,2.7,2.7,0,0,1-.09,1.554,3.749,3.749,0,0,1,1.494-.12q.747.209,1.524.478a2.1,2.1,0,0,0,.508-.12,1.919,1.919,0,0,1,1.4.508,4.062,4.062,0,0,1,4.362-.149l2.151.179.329.239a7.852,7.852,0,0,1,.09-1.165,2,2,0,0,1,.359-.956,2.445,2.445,0,0,1,1.255-1.2,1.525,1.525,0,0,1,.926-.179,1.326,1.326,0,0,1,.239-.12A2.245,2.245,0,0,1,27.837,1,1.953,1.953,0,0,1,30.019.048,1.947,1.947,0,0,1,31.6,1.542a2.154,2.154,0,0,1-.329,1.912,1.827,1.827,0,0,1-1.165.9A6.839,6.839,0,0,1,31.841,6.8,3.2,3.2,0,0,1,32.2,8.265a3.661,3.661,0,0,1-1.106,2.42q.956-.329.6.717.448-.717.986-.538.508.149.717,1.016a3.149,3.149,0,0,1,.209-1.315,2.531,2.531,0,0,1,1.464-1.374A2.669,2.669,0,0,1,37.7,9.52a2.6,2.6,0,0,1,.777.657q.269.418.538.926a3.025,3.025,0,0,1,.09,2.988,1.9,1.9,0,0,1-.448.508,3.612,3.612,0,0,1-2.928.837,6.677,6.677,0,0,1-.209,2.271,4.251,4.251,0,0,1-.687,1.554,2.48,2.48,0,0,1-1.584,1.165q.807.747-.03,1.4,1.912-.448,3.287,2.271a3.536,3.536,0,0,1,.239,2.45M12.719,20.038a.41.41,0,0,1,.03-.03.7.7,0,0,0-.09-.06A.257.257,0,0,1,12.719,20.038Z" fill="#24110f"/>
              </g>
            </g>
          </g>
        </g>
        <g id="scrunchy_shade" transform="translate(97.635 65.003) rotate(-115.152)">
          <g id="Group_68967" data-name="Group 68967" transform="translate(0 0)">
            <g id="Group_68966" data-name="Group 68966">
              <g id="Group_68965" data-name="Group 68965">
                <path id="Path_54298" data-name="Path 54298" d="M4.362,3.073Q4,2.983,3.257,2.834a6.366,6.366,0,0,0-1.106-.12h-.9a1.692,1.692,0,0,1-.866-.209A1.094,1.094,0,0,1,0,1.878,1.152,1.152,0,0,1,.239,1.19,2.893,2.893,0,0,1,2.062.234,10.847,10.847,0,0,1,6.1.145,7.314,7.314,0,0,1,8.277.623,4.41,4.41,0,0,1,9.771,1.728q.359.478.239.717-.149.388-.9.627a8.032,8.032,0,0,1-2.151.209A20.852,20.852,0,0,1,4.362,3.073Z" fill="rgba(0,0,0,0.5)"/>
              </g>
            </g>
          </g>
        </g>
        <g id="scrunchy" transform="translate(97.89 64.19) rotate(-115.152)">
          <g id="Group_68970" data-name="Group 68970" transform="translate(0 0)">
            <g id="Group_68969" data-name="Group 68969" transform="translate(0)">
              <g id="Group_68968" data-name="Group 68968">
                <path id="Path_54299" data-name="Path 54299" d="M.12,2.54V2.51H.09V2.48L.06,2.331,0,1.972a1.875,1.875,0,0,1,.329-.807A2.4,2.4,0,0,1,1.763.149l.3-.09q.09-.03.209-.06L2.3.03A.489.489,0,0,0,2.42,0h.09L1.554.418,1.076.687A2.322,2.322,0,0,0,.508,1.4l-.06.179.06.179.12.209.09.09.12.09.209.09h.388l-.687.12A2.623,2.623,0,0,0,.3,2.54a.89.89,0,0,1-.09.12.192.192,0,0,1-.09-.12M1.643,4.99a.91.91,0,0,0-.3.209l-.269.359v.06l-.06.03a.229.229,0,0,0-.09-.03H.9a.529.529,0,0,1-.239-.149l-.3-.329a.026.026,0,0,0-.03-.03.348.348,0,0,0-.06-.09A1.367,1.367,0,0,1,.06,4.093a1.53,1.53,0,0,1,.12-.568,2.483,2.483,0,0,1,.478-.359.026.026,0,0,0,.03-.03L.9,3.018a.321.321,0,0,1,.179-.06A.465.465,0,0,0,.837,3.2a.369.369,0,0,0-.179.269l-.06.3v.388l.03.12.209.508a.289.289,0,0,0,.329-.03l.209-.179.209-.09q.12.03.269.06l.239.09-.448.359m6.9-1.434h-.06a2.244,2.244,0,0,1-.239-.209l-.478-.329A5.88,5.88,0,0,0,6.6,2.54a7.185,7.185,0,0,0-1.2-.568q-.03,0-.06-.06L4.3,1.613a.664.664,0,0,1-.209-.09l.209.03a8.951,8.951,0,0,1,3.346.9q.6.329.807-.03a.472.472,0,0,0,.03-.538L8.247,1.4a4.574,4.574,0,0,1,.687.717v.03a.564.564,0,0,1-.03.179V2.48l-.06.388a.564.564,0,0,1-.03.179l-.09.209-.179.3M7.619,6.484a1.169,1.169,0,0,1-.269-.149H7.32A4.922,4.922,0,0,1,6.9,6.065l-.359-.209a.026.026,0,0,1-.03-.03h-.03a.026.026,0,0,1-.03-.03A11.622,11.622,0,0,0,3.795,4.422l-.747-.209a4.684,4.684,0,0,0-1.076-.12.375.375,0,0,1,.09-.149h.209l1.255.12a4.49,4.49,0,0,1,.717.12,8.693,8.693,0,0,1,1.763.6,3.927,3.927,0,0,1,1.016.508q.627.3.837.09a.4.4,0,0,0,.149-.269l.239.6a.086.086,0,0,0-.03.06l.03-.03A1.2,1.2,0,0,1,7.619,6.484Z" transform="translate(0.09 0.525)" fill="#fff099"/>
                <path id="Path_54300" data-name="Path 54300" d="M0,0A.229.229,0,0,1,.09.03H.03A.026.026,0,0,1,0,0M6.424.717a1.169,1.169,0,0,0,.269.149A.492.492,0,0,0,6.544.9.29.29,0,0,1,6.424.717Z" transform="translate(1.016 6.142)" fill="#6e199a"/>
                <path id="Path_54301" data-name="Path 54301" d="M1.135,4.542l-.209.09-.209.179a.289.289,0,0,1-.329.03L.179,4.332l.12.09.837.12M8.008,2.48q-.209.359-.807.03a8.951,8.951,0,0,0-3.346-.9l-.209-.03a7.6,7.6,0,0,0-2.6.03q-.209.12-.179.209a.436.436,0,0,1,.179-.06,7.151,7.151,0,0,1,2.54.418,5.276,5.276,0,0,0-1.673-.03L.926,2.3H.6l-.209-.09-.12-.09-.09-.09L.06,1.823,0,1.643l.06-.179A2.322,2.322,0,0,1,.627.747L1.106.478,2.062.06h-.09Q2.48.03,3.137,0A8.61,8.61,0,0,1,6.245.508,4.66,4.66,0,0,1,7.8,1.464l.239.478a.472.472,0,0,1-.03.538M7.38,4.87l.179.3a.4.4,0,0,1-.149.269q-.209.209-.837-.09A3.927,3.927,0,0,0,5.558,4.84a8.693,8.693,0,0,0-1.763-.6,4.49,4.49,0,0,0-.717-.12L1.823,4H1.613a.375.375,0,0,0-.09.149,5.79,5.79,0,0,0-1.2.12.2.2,0,0,0-.149.06l-.03-.12V3.825l.06-.3a.369.369,0,0,1,.179-.269.465.465,0,0,1,.239-.239,4.794,4.794,0,0,1,1.106-.359A6.61,6.61,0,0,1,2.779,2.51a7.013,7.013,0,0,1,1.106-.03,16.723,16.723,0,0,1,2.121,1.2A5.348,5.348,0,0,1,7.38,4.87Z" transform="translate(0.538 0.465)" fill="#ffe032"/>
                <path id="Path_54302" data-name="Path 54302" d="M9.024,2.646a4.574,4.574,0,0,0-.687-.717A4.66,4.66,0,0,0,6.783.973,8.61,8.61,0,0,0,3.675.465Q3.018.5,2.51.525a.489.489,0,0,1-.12.03L2.36.525q-.12.03-.209.06l-.3.09A2.4,2.4,0,0,0,.418,1.69,1.875,1.875,0,0,0,.09,2.5l.06.359A3.307,3.307,0,0,1,0,2.019a5.81,5.81,0,0,1,.179-.747A1.58,1.58,0,0,1,1.016.465,4.1,4.1,0,0,1,2.151.137,10.685,10.685,0,0,1,5.109.077,11.74,11.74,0,0,1,8.4,1.3a2.378,2.378,0,0,1,.627,1.345M6.544,6.322q-.12-.06-.269-.12L5.2,5.844a19.86,19.86,0,0,0-2.121-.508l-.179.09q-1.434.6-1.733.717v-.06l.269-.359a.91.91,0,0,1,.3-.209l.448-.359-.239-.09q-.149-.03-.269-.06l-.837-.12L.717,4.8a.2.2,0,0,1,.149-.06,5.79,5.79,0,0,1,1.2-.12,4.684,4.684,0,0,1,1.076.12l.747.209A11.622,11.622,0,0,1,6.544,6.322m1.823-.359a1.111,1.111,0,0,1-.03.269l-.239-.6-.179-.3a5.348,5.348,0,0,0-1.374-1.2,16.724,16.724,0,0,0-2.121-1.2,7.013,7.013,0,0,0-1.106.03,6.61,6.61,0,0,0-1.046.149,4.794,4.794,0,0,0-1.106.359.321.321,0,0,0-.179.06l-.209.12a.026.026,0,0,1-.03.03,2.483,2.483,0,0,0-.478.359,4.123,4.123,0,0,1,.3-.6H.538A.633.633,0,0,1,.3,3.184a.89.89,0,0,0,.09-.12,2.623,2.623,0,0,1,.448-.179l.687-.12h-.06l.986-.149a5.276,5.276,0,0,1,1.673.03,7.151,7.151,0,0,0-2.54-.418.436.436,0,0,0-.179.06q-.03-.09.179-.209a7.6,7.6,0,0,1,2.6-.03.664.664,0,0,0,.209.09l1.046.3q.03.06.06.06a7.185,7.185,0,0,1,1.2.568,5.88,5.88,0,0,1,1.165.478l.478.329a2.244,2.244,0,0,0,.239.209h.03a.615.615,0,0,1-.239.3A4.189,4.189,0,0,1,8.426,5.6v.09Z" fill="#947e00"/>
              </g>
            </g>
          </g>
        </g>
        <g id="extra_hair" transform="translate(101.845 69.067) rotate(-115.152)">
          <g id="Group_68973" data-name="Group 68973" transform="translate(0 0)">
            <g id="Group_68972" data-name="Group 68972">
              <g id="Group_68971" data-name="Group 68971">
                <path id="Path_54303" data-name="Path 54303" d="M13.535,6.9a1.74,1.74,0,0,1,.149-.687l-1.823-.09-.388-.687-.687.06a.391.391,0,0,1-.179-.179A4.338,4.338,0,0,0,9.95,4.4a.185.185,0,0,0-.209-.06,1.679,1.679,0,0,1-.03.329q0,.866-.807.837l-.329.448q-.149.06-.269.12a2.043,2.043,0,0,1-1.554-.837l-.418-.149L5.5,4.963a.611.611,0,0,0,0,.269,4.884,4.884,0,0,0,.418,1.106,2.222,2.222,0,0,1,.149.627,1.686,1.686,0,0,1,0,.448.453.453,0,0,1-.269.239.927.927,0,0,1-.866.209q-.359-.209-.747-.418a2.216,2.216,0,0,0-2.719.209q-.068.042-.149.09L0,6.546A11.952,11.952,0,0,1,1.524,4.963,2.44,2.44,0,0,1,3.5,4.485Q2.868,1.766,5.289,1.168a2.4,2.4,0,0,1,1.643.149,1.048,1.048,0,0,1,.6,1.076A3.011,3.011,0,0,1,8.366.571,2.154,2.154,0,0,1,10.308.033a2.085,2.085,0,0,1,1.763,1.285,1.768,1.768,0,0,1,.149,1.554Q13.445.992,14.969,1.317A3.164,3.164,0,0,1,17.24,2.961Z" fill="#24110f"/>
              </g>
            </g>
          </g>
        </g>
        <g id="shading" transform="translate(104.138 78.371) rotate(-115.152)">
          <g id="Group_68976" data-name="Group 68976" transform="translate(0 0)">
            <g id="Group_68975" data-name="Group 68975">
              <g id="Group_68974" data-name="Group 68974">
                <path id="Path_54304" data-name="Path 54304" d="M5.482,6.663a3.089,3.089,0,0,1,1.733-.179,4.194,4.194,0,0,1,3.167,2.54,3.034,3.034,0,0,1,3.107,2.062,5.776,5.776,0,0,1,.448,2.181,5.923,5.923,0,0,0-1.853-2.57,2.708,2.708,0,0,0-2.45-.538Q10.057,9.012,8.5,7.828A4.922,4.922,0,0,0,5.482,6.663M.851,15.716a1.656,1.656,0,0,0-.478.657q-.03.12-.3.837A2.638,2.638,0,0,1,1.09,14.4a1.962,1.962,0,0,1,2.809.239Q3.869,12.46,6.618,13.3a4.451,4.451,0,0,1,3.317,2.839q-1.554-2.092-3.376-2a2.667,2.667,0,0,0-2.45,1.882q-2-1.464-3.257-.3m7.171,1.763a2.4,2.4,0,0,1,2.749.12q.478-.209.956-.448a1.914,1.914,0,0,1,2.151.239,2.4,2.4,0,0,1,.9,2.271A4.582,4.582,0,0,0,13.759,18.2q-1.315-1.2-2.9.359a2.165,2.165,0,0,0-2.9-.149A3.394,3.394,0,0,0,6.946,19.69q-2.57-.179-3.137,1.554a3.623,3.623,0,0,0,.329,2.868,2.543,2.543,0,0,1-.717-.687,3.768,3.768,0,0,1-.627-2.42q.149-2.958,3.884-2.151a2.9,2.9,0,0,1,1.345-1.374M21.8,4.332a2.937,2.937,0,0,1,1.912-1.2,2.368,2.368,0,0,1,1.972.538A3.11,3.11,0,0,1,27.533,2.9a1.78,1.78,0,0,1-.179-1.315,1.314,1.314,0,0,1,.239-.538A3.649,3.649,0,0,1,28.519,0a4.707,4.707,0,0,0-.6,1.345,3.6,3.6,0,0,0,.388,2A2.158,2.158,0,0,0,26.756,4q-.687.6-.627,1.016a2.926,2.926,0,0,0-2.39-.6,5.426,5.426,0,0,0-2.48,1.135,2.731,2.731,0,0,0-1.524-2.57q-1.526-.91-2.719,2.54l-.03-1.315q.329-2.45,2.3-2.42t2.51,2.54m10.01,7.709q-.418.717-1.285,2.6a3.965,3.965,0,0,0-1.315-1.285q-1.106-.388-2.121,1.673a4.054,4.054,0,0,0-1.882.03q-.717.388-.807,2.181a2.3,2.3,0,0,1,.418-2.6,2.051,2.051,0,0,1,1.853-.627Q27.862,12.28,29,12.49a3.61,3.61,0,0,1,1.494,1.016,14.186,14.186,0,0,1,1.076-2.181q.926-1.315,1.733-.179a2.477,2.477,0,0,1,1.285-1.912,2.581,2.581,0,0,1,1.853-.418,4.742,4.742,0,0,0-1.165.568,3.935,3.935,0,0,0-.956,1.016,3.047,3.047,0,0,0-.508,1.853q-1.285-1.464-2-.209M35.72,22.619a2.23,2.23,0,0,1,.508.986A3.4,3.4,0,0,0,32.822,22.5a5.925,5.925,0,0,0-2.45.837,5.521,5.521,0,0,1,1.255-1.165,2.991,2.991,0,0,1,1.763-.657A2.922,2.922,0,0,1,35.72,22.619Z"/>
              </g>
            </g>
          </g>
        </g>
        <g id="light-2" data-name="light" transform="translate(102.925 76.291) rotate(-115.152)">
          <g id="Group_68979" data-name="Group 68979" transform="translate(0 0)">
            <g id="Group_68978" data-name="Group 68978">
              <g id="Group_68977" data-name="Group 68977">
                <path id="Path_54305" data-name="Path 54305" d="M9,5.711a9.8,9.8,0,0,0,1.315,1.255,4.759,4.759,0,0,1-2.51-1.315,1.854,1.854,0,0,1-.359-1.374A1.729,1.729,0,0,1,9.778,2.962a2.753,2.753,0,0,1,1.016.986,2.989,2.989,0,0,1,1.673-.777,2.4,2.4,0,0,1,1.434.179,1.32,1.32,0,0,1,.687,1.315,2.734,2.734,0,0,1,1.4,2.211,4.215,4.215,0,0,1-1.584,3.287,4.765,4.765,0,0,0,.9-2.839,2.593,2.593,0,0,0-1.285-2q-.194-1.361-1.434-1.285a2.736,2.736,0,0,0-2.062,1.076A3.863,3.863,0,0,0,9.568,3.65a.841.841,0,0,0-1.255.12Q7.776,4.337,9,5.711M1.023,10.88a2.162,2.162,0,0,0,1.255,1.464,6.993,6.993,0,0,0,2.9.269Q5,13.719,5.833,14.048a1.809,1.809,0,0,0,.986.09,1.791,1.791,0,0,1-1.135.388q-.538-.03-.986-.777l-2.39-.478a2.846,2.846,0,0,1-2.271-2.45q-.3-1.972,1.823-3.675a2.241,2.241,0,0,1-.179-2.36,1.646,1.646,0,0,1,1.763-.627A1.388,1.388,0,0,0,2.188,5.2a1.913,1.913,0,0,0,0,.956,2.033,2.033,0,0,0,.717.9Q.491,8.777,1.023,10.88m6.6,14.372q2,1.285,5.109.239A5.516,5.516,0,0,1,9.09,26.866a4.42,4.42,0,0,1-3.376-2.151,3.584,3.584,0,0,1-1.643.657A2.246,2.246,0,0,1,1.83,24.326a2.793,2.793,0,0,0,1.942.359A3.563,3.563,0,0,0,5.953,23.34a4.116,4.116,0,0,0,1.673,1.912m8.994,9.442q-2.39-.508-3.436-3.586a1.4,1.4,0,0,1-1.076.956,1.82,1.82,0,0,1-1.494-.239Q8.7,30.69,10.2,27.583q-.179,2.45.837,3.018t2.54-1.374q1.972,6.424,6.932,4.183a3.93,3.93,0,0,1-3.884,1.285M32.366,14.2a1.691,1.691,0,0,0,1.434.269,2.326,2.326,0,0,0,1.4-.866q1.434-1.763-.657-4.392a3.672,3.672,0,0,1,1.7,1.106,3.34,3.34,0,0,1,.866,2.36,2.729,2.729,0,0,1-1.285,2.211,3.049,3.049,0,0,1-2.54.6,4.606,4.606,0,0,1-.986,3.944,5.256,5.256,0,0,1-4.6,1.4,6.279,6.279,0,0,0,2.958-1.076q2.749-1.793,1.7-5.558M26.689,4.4q1.942-1.2,1.643-2.689A2.142,2.142,0,0,0,26.839,0a2.171,2.171,0,0,1,2.54,1.7,1.9,1.9,0,0,1-.329,1.524,2.643,2.643,0,0,1-1.315,1.106,7.447,7.447,0,0,1,1.942,3.018q.777,2.719-2.6,4.362a3.226,3.226,0,0,0,1.345-1.733q.807-2.39-1.733-5.587m5.558,24.292a3.93,3.93,0,0,0,2.121-2.48,4.42,4.42,0,0,1-1.285,2.719,3.235,3.235,0,0,1-3.884.448,5.527,5.527,0,0,1-3.705,2.062q-1.912.03-3.078-2.241a3.848,3.848,0,0,0,3.137,1.315q2-.149,3.018-2.629Q30.514,29.5,32.247,28.688Z" fill="#4f403f"/>
              </g>
            </g>
          </g>
        </g>
        <g id="color-3" data-name="color" transform="translate(20.835 12.64) rotate(-18.596)">
          <g id="Group_68982" data-name="Group 68982" transform="translate(0 0)">
            <g id="Group_68981" data-name="Group 68981">
              <g id="Group_68980" data-name="Group 68980">
                <path id="Path_54306" data-name="Path 54306" d="M36.742,8.221A4.126,4.126,0,0,0,34.83,5.442a2.8,2.8,0,0,0-3.317.09,3.544,3.544,0,0,0-.508-.568,5.434,5.434,0,0,0-2.181-1.4,2.856,2.856,0,0,0-3.376,1.106,8.779,8.779,0,0,0-2.779-3.556A3.985,3.985,0,0,0,19.412.063,4.947,4.947,0,0,0,17.052,1.2a6.045,6.045,0,0,0-1.434,2.57Q14.93,2.3,13.675,2.723a3.084,3.084,0,0,0-1.643,1.434,3.424,3.424,0,0,0-1.285-1.524,2.02,2.02,0,0,0-1.882-.09,4.066,4.066,0,0,0-1.016.837,3.151,3.151,0,0,0-.627,1.135,3.5,3.5,0,0,0,.717,3.735.571.571,0,0,0-.867.329A.937.937,0,0,0,7.4,9.715q-1.763-.867-3.436.867a3.805,3.805,0,0,0-.807,4.333,3.119,3.119,0,0,0-2.271.717L.618,15.9a1.625,1.625,0,0,0-.418.747A2.585,2.585,0,0,0,.05,18.111q.568,2.629,2.9,2.39a.944.944,0,0,0,.717-.329,1.448,1.448,0,0,1,.209-.179.409.409,0,0,1,.239-.149.562.562,0,0,0-.149.329.859.859,0,0,0,.09.657,1.286,1.286,0,0,0,.777.568,3.087,3.087,0,0,0-2.42,2.958,3.61,3.61,0,0,0,1.942,3.227,8.365,8.365,0,0,0-.388,1.255,1.437,1.437,0,0,0,.03.867.82.82,0,0,0,.359.538,1.516,1.516,0,0,0,2.092,0,1.328,1.328,0,0,0,.179-.418,3.616,3.616,0,0,0,.03-1.673.388.388,0,0,1,.3,0,5.428,5.428,0,0,0,1.016-.269,2.072,2.072,0,0,0,1.345-1.135q-.12.627-.149.956a1.66,1.66,0,0,0,.329.747.8.8,0,0,0,.747.329l.329-.149a1.936,1.936,0,0,0-.508,1.912,1.318,1.318,0,0,0,.627.956,2.674,2.674,0,0,0,.6.239,2.887,2.887,0,0,0,1.524-.538.754.754,0,0,1,.09-.179,1.3,1.3,0,0,0,.209-.478,2.7,2.7,0,0,0-.09-1.554,3.749,3.749,0,0,0,1.494.12q.747-.209,1.524-.478a2.1,2.1,0,0,1,.508.12,1.919,1.919,0,0,0,1.4-.508,4.062,4.062,0,0,0,4.362.149l2.151-.179.329-.239a7.852,7.852,0,0,0,.09,1.165,2,2,0,0,0,.359.956,2.445,2.445,0,0,0,1.255,1.2,1.525,1.525,0,0,0,.926.179,1.326,1.326,0,0,0,.239.12,2.245,2.245,0,0,0,.179,2.181A2.066,2.066,0,0,0,31.6,33.23a2.154,2.154,0,0,0-.329-1.912,1.827,1.827,0,0,0-1.165-.9,6.839,6.839,0,0,0,1.733-2.45,3.2,3.2,0,0,0,.359-1.464,3.661,3.661,0,0,0-1.106-2.42q.956.329.6-.717.448.717.986.538.508-.149.717-1.016a3.149,3.149,0,0,0,.209,1.315,2.531,2.531,0,0,0,1.464,1.374,2.669,2.669,0,0,0,2.629-.329,2.6,2.6,0,0,0,.777-.657q.269-.418.538-.926a3.025,3.025,0,0,0,.09-2.988,1.9,1.9,0,0,0-.448-.508,3.612,3.612,0,0,0-2.928-.837,6.678,6.678,0,0,0-.209-2.271,4.251,4.251,0,0,0-.687-1.554,2.48,2.48,0,0,0-1.584-1.165q.807-.747-.03-1.4,1.912.448,3.287-2.271a3.536,3.536,0,0,0,.239-2.45M12.719,14.734a.41.41,0,0,0,.03.03.7.7,0,0,1-.09.06A.257.257,0,0,0,12.719,14.734Z" fill="#24110f"/>
              </g>
            </g>
          </g>
        </g>
        <g id="scrunchy_shade-2" data-name="scrunchy_shade" transform="translate(44.964 37.722) rotate(-18.596)">
          <g id="Group_68985" data-name="Group 68985" transform="translate(0 0)">
            <g id="Group_68984" data-name="Group 68984" transform="translate(0)">
              <g id="Group_68983" data-name="Group 68983">
                <path id="Path_54307" data-name="Path 54307" d="M4.362.209Q4,.3,3.257.448a6.366,6.366,0,0,1-1.106.12h-.9A1.692,1.692,0,0,0,.388.777,1.094,1.094,0,0,0,0,1.4a1.152,1.152,0,0,0,.239.687,2.893,2.893,0,0,0,1.823.956,10.847,10.847,0,0,0,4.034.09,7.314,7.314,0,0,0,2.181-.478A4.41,4.41,0,0,0,9.771,1.554q.359-.478.239-.717Q9.86.448,9.113.209A8.032,8.032,0,0,0,6.962,0,20.853,20.853,0,0,0,4.362.209Z" fill="rgba(0,0,0,0.5)"/>
              </g>
            </g>
          </g>
        </g>
        <g id="scrunchy-2" data-name="scrunchy" transform="translate(44.177 33.416) rotate(-18.596)">
          <g id="Group_68988" data-name="Group 68988" transform="translate(0 0)">
            <g id="Group_68987" data-name="Group 68987" transform="translate(0 0)">
              <g id="Group_68986" data-name="Group 68986">
                <path id="Path_54308" data-name="Path 54308" d="M.12,3.944v.03H.09V4l-.03.149L0,4.512a1.875,1.875,0,0,0,.329.807A2.4,2.4,0,0,0,1.763,6.335l.3.09q.09.03.209.06l.03-.03a.489.489,0,0,1,.12.03h.09l-.956-.418L1.076,5.8A2.322,2.322,0,0,1,.508,5.08L.448,4.9l.06-.179.12-.209.09-.09.12-.09.209-.09h.388l-.687-.12A2.623,2.623,0,0,1,.3,3.944a.89.89,0,0,0-.09-.12.192.192,0,0,0-.09.12m1.524-2.45a.911.911,0,0,1-.3-.209L1.076.926V.867l-.06-.03a.229.229,0,0,1-.09.03H.9a.529.529,0,0,0-.239.149l-.3.329a.026.026,0,0,1-.03.03.348.348,0,0,1-.06.09A1.367,1.367,0,0,0,.06,2.39a1.53,1.53,0,0,0,.12.568,2.483,2.483,0,0,0,.478.359.026.026,0,0,1,.03.03l.209.12a.321.321,0,0,0,.179.06.465.465,0,0,1-.239-.239.369.369,0,0,1-.179-.269l-.06-.3V2.331l.03-.12L.837,1.7a.289.289,0,0,1,.329.03l.209.179L1.584,2q.12-.03.269-.06l.239-.09-.448-.359m6.9,1.434h-.06a2.244,2.244,0,0,0-.239.209l-.478.329A5.88,5.88,0,0,1,6.6,3.944a7.185,7.185,0,0,1-1.2.568q-.03,0-.06.06L4.3,4.87a.664.664,0,0,0-.209.09L4.3,4.93a8.952,8.952,0,0,0,3.347-.9q.6-.329.807.03a.472.472,0,0,1,.03.538l-.239.478a4.574,4.574,0,0,0,.687-.717v-.03a.564.564,0,0,0-.03-.179V4l-.06-.388a.564.564,0,0,0-.03-.179l-.09-.209-.179-.3M7.619,0A1.169,1.169,0,0,0,7.35.149h-.03A4.921,4.921,0,0,0,6.9.418L6.544.627a.026.026,0,0,0-.03.03h-.03a.026.026,0,0,0-.03.03A11.622,11.622,0,0,1,3.795,2.062l-.747.209a4.685,4.685,0,0,1-1.076.12.375.375,0,0,0,.09.149h.209l1.255-.12a4.49,4.49,0,0,0,.717-.12,8.693,8.693,0,0,0,1.763-.6A3.927,3.927,0,0,0,7.022,1.2q.627-.3.837-.09a.4.4,0,0,1,.149.269l.239-.6a.086.086,0,0,1-.03-.06l.03.03A1.2,1.2,0,0,0,7.619,0Z" transform="translate(0.09 0.03)" fill="#fff099"/>
                <path id="Path_54309" data-name="Path 54309" d="M0,.9A.229.229,0,0,0,.09.867H.03A.026.026,0,0,0,0,.9M6.424.179A1.169,1.169,0,0,1,6.693.03.492.492,0,0,1,6.544,0,.29.29,0,0,0,6.424.179Z" transform="translate(1.016 0)" fill="#6e199a"/>
                <path id="Path_54310" data-name="Path 54310" d="M1.135.983.926.893.717.714A.289.289,0,0,0,.388.684l-.209.508L.3,1.1l.837-.12M8.008,3.044Q7.8,2.686,7.2,3.014a8.952,8.952,0,0,1-3.347.9l-.209.03a7.6,7.6,0,0,1-2.6-.03Q.837,3.791.867,3.7a.436.436,0,0,0,.179.06,7.151,7.151,0,0,0,2.54-.418,5.276,5.276,0,0,1-1.673.03L.926,3.224H.6l-.209.09-.12.09-.09.09L.06,3.7,0,3.881l.06.179a2.322,2.322,0,0,0,.568.717l.478.269.956.418h-.09q.508.03,1.165.06a8.61,8.61,0,0,0,3.108-.508A4.66,4.66,0,0,0,7.8,4.06l.239-.478a.472.472,0,0,0-.03-.538M7.38.654l.179-.3A.4.4,0,0,0,7.41.086Q7.2-.123,6.574.176A3.927,3.927,0,0,1,5.558.684a8.693,8.693,0,0,1-1.763.6,4.49,4.49,0,0,1-.717.12l-1.255.12H1.614a.375.375,0,0,1-.09-.149,5.79,5.79,0,0,1-1.2-.12.2.2,0,0,1-.149-.06l-.03.12V1.7l.06.3a.369.369,0,0,0,.179.269.465.465,0,0,0,.239.239,4.794,4.794,0,0,0,1.106.359,6.611,6.611,0,0,0,1.046.149,7.014,7.014,0,0,0,1.106.03,16.724,16.724,0,0,0,2.121-1.2A5.348,5.348,0,0,0,7.38.654Z" transform="translate(0.538 1.049)" fill="#ffe032"/>
                <path id="Path_54311" data-name="Path 54311" d="M9.024,3.675a4.574,4.574,0,0,1-.687.717,4.66,4.66,0,0,1-1.554.956,8.61,8.61,0,0,1-3.108.508q-.657-.03-1.165-.06a.489.489,0,0,0-.12-.03l-.03.03q-.12-.03-.209-.06l-.3-.09A2.4,2.4,0,0,1,.418,4.631,1.875,1.875,0,0,1,.09,3.825l.06-.359A3.307,3.307,0,0,0,0,4.3a5.81,5.81,0,0,0,.179.747,1.58,1.58,0,0,0,.837.807,4.1,4.1,0,0,0,1.135.329,10.685,10.685,0,0,0,2.958.06A11.741,11.741,0,0,0,8.4,5.02a2.378,2.378,0,0,0,.627-1.345M6.544,0q-.12.06-.269.12L5.2.478A19.86,19.86,0,0,1,3.078.986L2.9.9Q1.464.3,1.165.179v.06L1.434.6a.911.911,0,0,0,.3.209l.448.359-.239.09q-.149.03-.269.06l-.837.12-.12.09a.2.2,0,0,0,.149.06,5.79,5.79,0,0,0,1.2.12,4.685,4.685,0,0,0,1.076-.12l.747-.209A11.622,11.622,0,0,0,6.544,0M8.366.359A1.111,1.111,0,0,0,8.337.09L8.1.687l-.179.3a5.348,5.348,0,0,1-1.374,1.2,16.724,16.724,0,0,1-2.121,1.2,7.014,7.014,0,0,1-1.106-.03A6.611,6.611,0,0,1,2.271,3.2a4.794,4.794,0,0,1-1.106-.359.321.321,0,0,1-.179-.06l-.209-.12a.026.026,0,0,0-.03-.03,2.483,2.483,0,0,1-.478-.359,4.123,4.123,0,0,0,.3.6H.538A.633.633,0,0,0,.3,3.137a.89.89,0,0,1,.09.12,2.623,2.623,0,0,0,.448.179l.687.12h-.06l.986.149a5.276,5.276,0,0,0,1.673-.03,7.151,7.151,0,0,1-2.54.418.436.436,0,0,1-.179-.06q-.03.09.179.209a7.6,7.6,0,0,0,2.6.03.664.664,0,0,1,.209-.09l1.046-.3q.03-.06.06-.06a7.185,7.185,0,0,0,1.2-.568,5.88,5.88,0,0,0,1.165-.478l.478-.329a2.244,2.244,0,0,1,.239-.209h.03a.616.616,0,0,0-.239-.3A4.189,4.189,0,0,0,8.426.717V.627Z" transform="translate(0 0.717)" fill="#947e00"/>
              </g>
            </g>
          </g>
        </g>
        <g id="extra_hair-2" data-name="extra_hair" transform="translate(37.646 33.121) rotate(-18.596)">
          <g id="Group_68991" data-name="Group 68991" transform="translate(0 0)">
            <g id="Group_68990" data-name="Group 68990">
              <g id="Group_68989" data-name="Group 68989">
                <path id="Path_54312" data-name="Path 54312" d="M13.536.988a1.74,1.74,0,0,0,.149.687l-1.823.09-.388.687-.687-.06a.391.391,0,0,0-.179.179A4.338,4.338,0,0,1,9.95,3.5a.185.185,0,0,1-.209.06,1.679,1.679,0,0,0-.03-.329q0-.867-.807-.837l-.329-.448q-.149-.06-.269-.12a2.043,2.043,0,0,0-1.554.837l-.418.149L5.5,2.93a.611.611,0,0,1,0-.269,4.885,4.885,0,0,1,.418-1.106A2.222,2.222,0,0,0,6.066.928a1.686,1.686,0,0,0,0-.448A.453.453,0,0,0,5.8.241.927.927,0,0,0,4.93.032Q4.572.241,4.183.45A2.216,2.216,0,0,1,1.464.241Q1.4.2,1.315.151L0,1.347A11.952,11.952,0,0,0,1.524,2.93,2.44,2.44,0,0,0,3.5,3.408Q2.868,6.127,5.289,6.725a2.4,2.4,0,0,0,1.643-.149A1.048,1.048,0,0,0,7.53,5.5a3.011,3.011,0,0,0,.837,1.823,2.154,2.154,0,0,0,1.942.538,2.085,2.085,0,0,0,1.763-1.285,1.768,1.768,0,0,0,.149-1.554Q13.445,6.9,14.97,6.576a3.164,3.164,0,0,0,2.271-1.643Z" fill="#24110f"/>
              </g>
            </g>
          </g>
        </g>
        <g id="shading-2" data-name="shading" transform="translate(24.167 22.526) rotate(-18.596)">
          <g id="Group_68994" data-name="Group 68994" transform="translate(0 0)">
            <g id="Group_68993" data-name="Group 68993">
              <g id="Group_68992" data-name="Group 68992">
                <path id="Path_54313" data-name="Path 54313" d="M5.482,17.45a3.089,3.089,0,0,0,1.733.179,4.194,4.194,0,0,0,3.167-2.54,3.034,3.034,0,0,0,3.108-2.062,5.776,5.776,0,0,0,.448-2.181,5.923,5.923,0,0,1-1.853,2.57,2.708,2.708,0,0,1-2.45.538Q10.057,15.1,8.5,16.285A4.922,4.922,0,0,1,5.482,17.45M.851,8.4a1.656,1.656,0,0,1-.478-.657q-.03-.12-.3-.837A2.638,2.638,0,0,0,1.09,9.711,1.962,1.962,0,0,0,3.9,9.472q-.03,2.181,2.719,1.345A4.451,4.451,0,0,0,9.935,7.978q-1.554,2.092-3.376,2A2.667,2.667,0,0,1,4.108,8.1q-2,1.464-3.257.3M8.022,6.633a2.4,2.4,0,0,0,2.749-.12q.478.209.956.448a1.914,1.914,0,0,0,2.151-.239,2.4,2.4,0,0,0,.9-2.271,4.582,4.582,0,0,1-1.016,1.464q-1.315,1.2-2.9-.359a2.165,2.165,0,0,1-2.9.149A3.394,3.394,0,0,1,6.947,4.422Q4.377,4.6,3.809,2.868A3.623,3.623,0,0,1,4.138,0a2.543,2.543,0,0,0-.717.687,3.768,3.768,0,0,0-.627,2.42q.149,2.958,3.884,2.151A2.9,2.9,0,0,0,8.022,6.633M21.8,19.781a2.937,2.937,0,0,0,1.912,1.2,2.368,2.368,0,0,0,1.972-.538,3.11,3.11,0,0,0,1.853.777,1.78,1.78,0,0,0-.179,1.315,1.314,1.314,0,0,0,.239.538,3.649,3.649,0,0,0,.926,1.046,4.707,4.707,0,0,1-.6-1.345,3.6,3.6,0,0,1,.388-2,2.158,2.158,0,0,1-1.554-.657q-.687-.6-.627-1.016a2.926,2.926,0,0,1-2.39.6,5.426,5.426,0,0,1-2.48-1.135,2.731,2.731,0,0,1-1.524,2.57q-1.526.91-2.719-2.54l-.03,1.315q.329,2.45,2.3,2.42t2.51-2.54m10.01-7.709q-.418-.717-1.285-2.6a3.965,3.965,0,0,1-1.315,1.285q-1.106.388-2.121-1.673a4.054,4.054,0,0,1-1.882-.03q-.717-.388-.807-2.181a2.3,2.3,0,0,0,.418,2.6,2.051,2.051,0,0,0,1.853.627q1.2,1.733,2.331,1.524a3.61,3.61,0,0,0,1.494-1.016,14.186,14.186,0,0,0,1.076,2.181q.926,1.315,1.733.179a2.477,2.477,0,0,0,1.285,1.912,2.581,2.581,0,0,0,1.853.418,4.742,4.742,0,0,1-1.165-.568,3.935,3.935,0,0,1-.956-1.016,3.047,3.047,0,0,1-.508-1.853q-1.285,1.464-2,.209M35.721,1.494a2.23,2.23,0,0,0,.508-.986,3.4,3.4,0,0,1-3.406,1.106,5.925,5.925,0,0,1-2.45-.837,5.522,5.522,0,0,0,1.255,1.165A2.991,2.991,0,0,0,33.39,2.6,2.922,2.922,0,0,0,35.721,1.494Z"/>
              </g>
            </g>
          </g>
        </g>
        <g id="light-3" data-name="light" transform="translate(23.1 11.837) rotate(-18.596)">
          <g id="Group_68997" data-name="Group 68997" transform="translate(0 0)">
            <g id="Group_68996" data-name="Group 68996">
              <g id="Group_68995" data-name="Group 68995">
                <path id="Path_54314" data-name="Path 54314" d="M9,29.086a9.8,9.8,0,0,1,1.315-1.255,4.759,4.759,0,0,0-2.51,1.315,1.854,1.854,0,0,0-.359,1.374,1.729,1.729,0,0,0,2.331,1.315,2.754,2.754,0,0,0,1.016-.986,2.989,2.989,0,0,0,1.673.777,2.4,2.4,0,0,0,1.434-.179,1.32,1.32,0,0,0,.687-1.315,2.734,2.734,0,0,0,1.4-2.211,4.215,4.215,0,0,0-1.584-3.287,4.765,4.765,0,0,1,.9,2.839,2.593,2.593,0,0,1-1.285,2q-.194,1.361-1.434,1.285a2.736,2.736,0,0,1-2.062-1.076,3.863,3.863,0,0,1-.956,1.464.841.841,0,0,1-1.255-.12Q7.776,30.46,9,29.086M1.023,23.916a2.162,2.162,0,0,1,1.255-1.464,6.993,6.993,0,0,1,2.9-.269Q5,21.078,5.834,20.749a1.809,1.809,0,0,1,.986-.09,1.791,1.791,0,0,0-1.135-.388q-.538.03-.986.777l-2.39.478a2.846,2.846,0,0,0-2.271,2.45q-.3,1.972,1.823,3.675a2.241,2.241,0,0,0-.179,2.361,1.646,1.646,0,0,0,1.763.627,1.388,1.388,0,0,1-1.255-1.046,1.913,1.913,0,0,1,0-.956,2.033,2.033,0,0,1,.717-.9Q.491,26.02,1.023,23.916m6.6-14.372q2-1.285,5.109-.239A5.516,5.516,0,0,0,9.091,7.931a4.42,4.42,0,0,0-3.376,2.151,3.584,3.584,0,0,0-1.643-.657A2.246,2.246,0,0,0,1.83,10.47a2.793,2.793,0,0,1,1.942-.359,3.563,3.563,0,0,1,2.181,1.345A4.116,4.116,0,0,1,7.626,9.544M16.62.1Q14.23.61,13.184,3.688a1.4,1.4,0,0,0-1.076-.956,1.82,1.82,0,0,0-1.494.239Q8.7,4.106,10.2,7.213q-.179-2.45.837-3.018t2.54,1.374Q15.545-.854,20.5,1.387A3.93,3.93,0,0,0,16.62.1M32.367,20.6a1.691,1.691,0,0,1,1.434-.269,2.327,2.327,0,0,1,1.4.867q1.434,1.763-.657,4.392a3.672,3.672,0,0,0,1.7-1.106,3.34,3.34,0,0,0,.867-2.361,2.729,2.729,0,0,0-1.285-2.211,3.049,3.049,0,0,0-2.54-.6,4.606,4.606,0,0,0-.986-3.944,5.256,5.256,0,0,0-4.6-1.4,6.279,6.279,0,0,1,2.958,1.076q2.749,1.793,1.7,5.558M26.69,30.4q1.942,1.2,1.643,2.689a2.142,2.142,0,0,1-1.494,1.7,2.171,2.171,0,0,0,2.54-1.7,1.9,1.9,0,0,0-.329-1.524,2.643,2.643,0,0,0-1.315-1.106,7.447,7.447,0,0,0,1.942-3.018q.777-2.719-2.6-4.362a3.226,3.226,0,0,1,1.345,1.733Q29.23,27.2,26.69,30.4M32.248,6.108a3.93,3.93,0,0,1,2.121,2.48,4.42,4.42,0,0,0-1.285-2.719A3.235,3.235,0,0,0,29.2,5.421a5.527,5.527,0,0,0-3.705-2.062q-1.912-.03-3.078,2.241a3.848,3.848,0,0,1,3.137-1.315q2,.149,3.018,2.629Q30.514,5.3,32.248,6.108Z" fill="#4f403f"/>
              </g>
            </g>
          </g>
        </g>
      </g>
      <g id="Layer_3" transform="translate(631.084 114.98)">
        <g id="Group_69000" data-name="Group 69000" transform="translate(0 0)">
          <g id="Group_68999" data-name="Group 68999">
            <g id="Group_68998" data-name="Group 68998">
              <path id="Path_54315" data-name="Path 54315" d="M520.358,290.479a23.236,23.236,0,0,0-.811-2.889,16.351,16.351,0,0,0-4.46-6.133,36.176,36.176,0,0,0-6.64-4.46,15.2,15.2,0,0,0-5.423-1.875l-2.281-.152q-.558,0-1.673.1-5.88.659-10.8,6.032a45.033,45.033,0,0,0-6.995,10.695q-7.7,15.51-5.271,35.734a5.255,5.255,0,0,0,1.622,3.5,8.663,8.663,0,0,0,3.751,1.47,143.03,143.03,0,0,0,16.22,2.382q5.474.507,16.423,1.267a8.941,8.941,0,0,0,4-.3q1.774-.76,2.18-3.548.1-.912.051-4.511-.1-4.511-.1-6.741-.051-3.9.152-6.741.659-7.958.76-11.911A53.832,53.832,0,0,0,520.358,290.479Z" transform="translate(-475.423 -274.968)" fill="#eb7a23"/>
            </g>
          </g>
        </g>
        <g id="Group_69003" data-name="Group 69003" transform="translate(6.883 2.332)">
          <g id="Group_69002" data-name="Group 69002">
            <g id="Group_69001" data-name="Group 69001">
              <path id="Path_54316" data-name="Path 54316" d="M513.365,289.344q-.355-1.166,6.488-4.815a17.924,17.924,0,0,0-8.82,3.7q-8.566,6.437-7.2,19.971.542,5.381.659,7.552-.034-1.288.051-3.447.507-13.483,5.474-17.741Q513.923,291.22,513.365,289.344Z" transform="translate(-503.647 -284.529)" fill="#f39941"/>
            </g>
          </g>
        </g>
      </g>
    </g>
  </g>
</svg>
