<svg id="Moviprep" xmlns="http://www.w3.org/2000/svg" xmlns:xlink="http://www.w3.org/1999/xlink" width="102.001" height="104" viewBox="0 0 102.001 104">
  <defs>
    <clipPath id="clip-path">
      <rect id="System_Background_Primary_Dark_Base" data-name="System Background Primary Dark Base" width="102" height="104" transform="translate(0.04 0)" fill="#84a4fc"/>
    </clipPath>
    <linearGradient id="linear-gradient" x1="0.5" x2="0.5" y2="1" gradientUnits="objectBoundingBox">
      <stop offset="0" stop-color="#3b5db7"/>
      <stop offset="1" stop-color="#84a4fc" stop-opacity="0.38"/>
    </linearGradient>
  </defs>
  <rect id="System_Background_Primary_Dark_Base-2" data-name="System Background Primary Dark Base" width="102" height="104" transform="translate(0.001)" fill="#84a4fc"/>
  <g id="Mask_Group_66525" data-name="Mask Group 66525" transform="translate(-0.04)" clip-path="url(#clip-path)">
    <path id="Path_35764" data-name="Path 35764" d="M234.972,40.332,150.1,39.638c-13.394,0-8.487-5.815-8.487,13.484V106.39c37.5,25.559,53.381-24.605,103.322-25.029V51.253C244.935,33.17,246.492,40.332,234.972,40.332Z" transform="translate(-141.742 -42.134)" opacity="0.95" fill="url(#linear-gradient)"/>
  </g>
  <g id="Group_117058" data-name="Group 117058" transform="translate(16.397 21.801)">
    <g id="Group_117053" data-name="Group 117053" transform="translate(34.598 17.543)">
      <path id="Path_29112" data-name="Path 29112" d="M18.985,0s-5.32,2.791-4.857,12.74S9.074,22.948,9.241,23.026,0,10.486,0,10.486L13.454,0Z" transform="translate(32.738 27.576) rotate(-179)" fill="#c71836"/>
      <g id="Group_25843" data-name="Group 25843" transform="translate(0 0)">
        <path id="Path_29067" data-name="Path 29067" d="M30.487,17.176,23.7.588a.924.924,0,0,0-.456-.54A.935.935,0,0,0,22.541.1L.6,9.081a.784.784,0,0,0-.49,1.193l.7,1.716q1.963,4.8,3.918,9.6a1.14,1.14,0,0,0,.82.722q2.927.812,5.849,1.639l2.03.572c.166.047.334.092.5.137l.314.084.156-.04a1.756,1.756,0,0,0,.235-.069c.249-.1.5-.2.744-.3L30,18.353A.779.779,0,0,0,30.487,17.176Zm-2.984.591-4.908-12c-.177-.433-.454-.631-.821-.588a.743.743,0,0,0-.559.354.782.782,0,0,0-.037.7q.362.9.732,1.793l4.216,10.3L23.6,19.367q-4.621,1.89-9.245,3.774a.438.438,0,0,1-.255.018c-.737-.2-1.473-.408-2.21-.614q-1.051-.294-2.1-.585c-.054-.015-.07-.023-.12-.148L7.119,15.591,6,12.862A.785.785,0,0,0,5.3,12.33a.745.745,0,0,0-.278.056.712.712,0,0,0-.406.38.856.856,0,0,0,.02.668c.147.367.3.732.447,1.1L7.9,21.42l-.474-.133c-.414-.117-.829-.233-1.246-.342a.2.2,0,0,1-.165-.154Q4.662,17.463,3.3,14.139l-1.6-3.9L3.09,9.673l.059.145c.113.279.224.551.339.822A.742.742,0,0,0,4.873,10.1c-.015-.045-.033-.088-.051-.131l-.353-.865L19.787,2.84l.419,1.023a.742.742,0,0,0,.583.506A.733.733,0,0,0,21.6,3.362c-.095-.252-.2-.5-.3-.75l-.138-.333,1.389-.569L28.89,17.2Z" transform="matrix(0.966, -0.259, 0.259, 0.966, 0, 7.918)" fill="#fff"/>
        <path id="Path_29068" data-name="Path 29068" d="M3539.078,1088.347a1.071,1.071,0,0,0,1.053-1.073,1.052,1.052,0,0,0-.314-.754,1.073,1.073,0,0,0-.762-.307h-.013a1.039,1.039,0,0,0-1.043,1.07,1.047,1.047,0,0,0,1.061,1.064Z" transform="translate(-3521.333 -1044.125)" fill="#c71836"/>
        <path id="Path_29069" data-name="Path 29069" d="M3534.418,1069.881h-.005a1.037,1.037,0,0,0-1.07,1.036,1.087,1.087,0,0,0,.314.789,1.05,1.05,0,0,0,.751.308h.011a1.073,1.073,0,0,0,1.057-1.072A1.052,1.052,0,0,0,3534.418,1069.881Z" transform="translate(-3519.551 -1037.875)" fill="#c71836"/>
        <path id="Path_29070" data-name="Path 29070" d="M3539.715,1091.214h-.008a1.057,1.057,0,0,0-1.061,1.062,1.072,1.072,0,0,0,.322.772,1.048,1.048,0,0,0,.74.3h.017a1.07,1.07,0,0,0-.01-2.139Z" transform="translate(-3521.58 -1046.039)" fill="#c71836"/>
        <path id="Path_29071" data-name="Path 29071" d="M3536.4,1075.494h-.007a1.07,1.07,0,0,0-1.061,1.058,1.052,1.052,0,0,0,.3.759,1.077,1.077,0,0,0,.771.317h.007a1.05,1.05,0,0,0,1.061-1.049,1.07,1.07,0,0,0-1.068-1.084Z" transform="translate(-3520.312 -1040.023)" fill="#c71836"/>
        <path id="Path_29072" data-name="Path 29072" d="M3527.927,1079.926a1.043,1.043,0,0,0,.294.762,1.087,1.087,0,0,0,.768.338H3529a1.071,1.071,0,0,0,.758-.314,1.063,1.063,0,0,0-.745-1.82A1.086,1.086,0,0,0,3527.927,1079.926Z" transform="translate(-3517.479 -1041.323)" fill="#c71836"/>
        <path id="Path_29073" data-name="Path 29073" d="M3533.091,1081.541a1.071,1.071,0,0,0-.04,2.142h.031a1.046,1.046,0,0,0,.72-.29,1.079,1.079,0,0,0,.042-1.529A1.055,1.055,0,0,0,3533.091,1081.541Z" transform="translate(-3519.039 -1042.337)" fill="#c71836"/>
        <path id="Path_29074" data-name="Path 29074" d="M3536.965,1080.524a1.074,1.074,0,0,0-.316.763,1.058,1.058,0,0,0,1.067,1.052h0a1.073,1.073,0,0,0,.767-.309,1.076,1.076,0,0,0-.756-1.823h-.009A1.077,1.077,0,0,0,3536.965,1080.524Z" transform="translate(-3520.816 -1041.827)" fill="#c71836"/>
        <path id="Path_29075" data-name="Path 29075" d="M3527.656,1084.435a1.059,1.059,0,0,0-.763-.317h0a1.069,1.069,0,1,0,0,2.137h0a1.072,1.072,0,0,0,.763-1.821Z" transform="translate(-3516.673 -1043.323)" fill="#c71836"/>
        <path id="Path_29076" data-name="Path 29076" d="M3530.924,1086.778h0a1.076,1.076,0,0,0-1.078,1.042,1.085,1.085,0,0,0,1.061,1.1h.017a1.05,1.05,0,0,0,.741-.3,1.075,1.075,0,0,0,.322-.772A1.053,1.053,0,0,0,3530.924,1086.778Z" transform="translate(-3518.211 -1044.342)" fill="#c71836"/>
        <path id="Path_29077" data-name="Path 29077" d="M3534.656,1092.009a1.081,1.081,0,0,0,.768-.312,1.066,1.066,0,0,0,.312-.755,1.087,1.087,0,0,0-1.069-1.066,1.066,1.066,0,1,0-.016,2.133Z" transform="translate(-3519.643 -1045.527)" fill="#c71836"/>
        <path id="Path_29078" data-name="Path 29078" d="M3535.356,1095.439a1.159,1.159,0,0,0-.774.308,1.053,1.053,0,0,0-.308.756,1.071,1.071,0,0,0,.322.767,1.056,1.056,0,0,0,.743.306h.018a1.068,1.068,0,0,0,0-2.135Z" transform="translate(-3519.908 -1047.656)" fill="#c71836"/>
        <path id="Path_29079" data-name="Path 29079" d="M3524.891,1090.309a1.078,1.078,0,0,0-1.052,1.075,1.061,1.061,0,0,0,1.07,1.067h.014a1.051,1.051,0,0,0,1.051-1.071,1.08,1.08,0,0,0-.326-.771A1.033,1.033,0,0,0,3524.891,1090.309Z" transform="translate(-3515.915 -1045.692)" fill="#c71836"/>
        <path id="Path_29080" data-name="Path 29080" d="M3530.333,1093.76h0a1.061,1.061,0,0,0-.754.311,1.072,1.072,0,0,0-.314.769,1.038,1.038,0,0,0,1.059,1.057h0a1.074,1.074,0,0,0,.767-.307,1.077,1.077,0,0,0-.754-1.829Z" transform="translate(-3517.988 -1047.013)" fill="#c71836"/>
        <path id="Path_29081" data-name="Path 29081" d="M3531.343,1074.179a1.066,1.066,0,0,0,.015,2.133h.017a1.077,1.077,0,0,0,.739-1.831A1.125,1.125,0,0,0,3531.343,1074.179Z" transform="translate(-3518.382 -1039.52)" fill="#c71836"/>
      </g>
    </g>
    <g id="Group_117054" data-name="Group 117054" transform="translate(0 0)">
      <path id="Path_29112-2" data-name="Path 29112" d="M18.985,23.026s-5.32-2.791-4.857-12.74S9.074.078,9.241,0,0,12.54,0,12.54L13.454,23.026Z" transform="matrix(1, -0.017, 0.017, 1, 2.816, 4.553)" fill="#c71836"/>
      <g id="Group_25843-2" data-name="Group 25843" transform="translate(0 0)">
        <path id="Path_29067-2" data-name="Path 29067" d="M30.487,7.57,23.7,24.158a.923.923,0,0,1-.456.54.935.935,0,0,1-.706-.056L.6,15.665a.784.784,0,0,1-.49-1.193l.7-1.716q1.963-4.8,3.918-9.6a1.14,1.14,0,0,1,.82-.722Q8.48,1.62,11.4.793l2.03-.572c.166-.047.333-.092.5-.137L14.248,0,14.4.04a1.76,1.76,0,0,1,.235.069c.249.1.5.2.744.3L30,6.393A.779.779,0,0,1,30.487,7.57ZM27.5,6.979l-4.908,12c-.177.433-.453.631-.821.588a.743.743,0,0,1-.559-.354.782.782,0,0,1-.037-.7c.241-.6.487-1.2.732-1.793l4.216-10.3L23.6,5.379q-4.621-1.89-9.245-3.774a.438.438,0,0,0-.255-.018c-.737.2-1.473.408-2.21.614q-1.051.294-2.1.585c-.054.015-.07.023-.12.148L7.119,9.155,6,11.884a.785.785,0,0,1-.707.532.747.747,0,0,1-.279-.056.712.712,0,0,1-.406-.38.856.856,0,0,1,.02-.668c.147-.367.3-.732.447-1.1L7.9,3.326l-.474.133c-.414.117-.829.233-1.246.342a.2.2,0,0,0-.165.154Q4.662,7.283,3.3,10.607l-1.6,3.9,1.387.568.059-.145c.113-.279.224-.551.339-.822a.742.742,0,0,1,1.385.536c-.015.045-.033.088-.051.131l-.353.865,15.318,6.268.419-1.023a.741.741,0,0,1,.583-.506.733.733,0,0,1,.815,1.007c-.095.252-.2.5-.3.75l-.138.333,1.389.569L28.89,7.547Z" transform="matrix(-0.966, -0.259, 0.259, -0.966, 29.552, 31.821)" fill="#fff"/>
        <path id="Path_29068-2" data-name="Path 29068" d="M3539.053,1088.347a1.072,1.072,0,0,1-1.054-1.073,1.052,1.052,0,0,1,.314-.754,1.074,1.074,0,0,1,.762-.307h.012a1.039,1.039,0,0,1,1.043,1.07,1.047,1.047,0,0,1-1.061,1.064Z" transform="translate(-3520.842 -1044.125)" fill="#c71836"/>
        <path id="Path_29069-2" data-name="Path 29069" d="M3534.4,1069.881h.005a1.037,1.037,0,0,1,1.071,1.036,1.087,1.087,0,0,1-.314.789,1.051,1.051,0,0,1-.752.308h-.01a1.073,1.073,0,0,1-1.057-1.072A1.052,1.052,0,0,1,3534.4,1069.881Z" transform="translate(-3513.311 -1037.875)" fill="#c71836"/>
        <path id="Path_29070-2" data-name="Path 29070" d="M3539.714,1091.214h.008a1.057,1.057,0,0,1,1.061,1.062,1.072,1.072,0,0,1-.322.772,1.048,1.048,0,0,1-.74.3h-.017a1.07,1.07,0,0,1,.01-2.139Z" transform="translate(-3521.893 -1046.039)" fill="#c71836"/>
        <path id="Path_29071-2" data-name="Path 29071" d="M3536.4,1075.494h.007a1.07,1.07,0,0,1,1.061,1.058,1.052,1.052,0,0,1-.3.759,1.076,1.076,0,0,1-.771.317h-.008a1.051,1.051,0,0,1-1.061-1.049,1.07,1.07,0,0,1,1.068-1.084Z" transform="translate(-3516.529 -1040.023)" fill="#c71836"/>
        <path id="Path_29072-2" data-name="Path 29072" d="M3530.075,1079.926a1.043,1.043,0,0,1-.294.762,1.087,1.087,0,0,1-.768.338H3529a1.071,1.071,0,0,1-.758-.314,1.064,1.064,0,0,1,.744-1.82A1.086,1.086,0,0,1,3530.075,1079.926Z" transform="translate(-3504.567 -1041.323)" fill="#c71836"/>
        <path id="Path_29073-2" data-name="Path 29073" d="M3533.054,1081.541a1.071,1.071,0,0,1,.04,2.142h-.031a1.047,1.047,0,0,1-.72-.29,1.079,1.079,0,0,1-.042-1.529A1.056,1.056,0,0,1,3533.054,1081.541Z" transform="translate(-3511.15 -1042.337)" fill="#c71836"/>
        <path id="Path_29074-2" data-name="Path 29074" d="M3538.473,1080.524a1.074,1.074,0,0,1,.316.763,1.058,1.058,0,0,1-1.067,1.052h0a1.073,1.073,0,0,1-.767-.309,1.076,1.076,0,0,1,.756-1.823h.009A1.077,1.077,0,0,1,3538.473,1080.524Z" transform="translate(-3518.666 -1041.827)" fill="#c71836"/>
        <path id="Path_29075-2" data-name="Path 29075" d="M3526.127,1084.435a1.06,1.06,0,0,1,.763-.317h0a1.069,1.069,0,1,1,0,2.137h0a1.072,1.072,0,0,1-.763-1.821Z" transform="translate(-3501.154 -1043.323)" fill="#c71836"/>
        <path id="Path_29076-2" data-name="Path 29076" d="M3530.9,1086.778h0a1.07,1.07,0,0,1,.017,2.14h-.016a1.051,1.051,0,0,1-.741-.3,1.075,1.075,0,0,1-.322-.772A1.053,1.053,0,0,1,3530.9,1086.778Z" transform="translate(-3507.657 -1044.342)" fill="#c71836"/>
        <path id="Path_29077-2" data-name="Path 29077" d="M3534.663,1092.009a1.082,1.082,0,0,1-.768-.312,1.066,1.066,0,0,1-.312-.755,1.087,1.087,0,0,1,1.069-1.066,1.066,1.066,0,1,1,.016,2.133Z" transform="translate(-3513.719 -1045.527)" fill="#c71836"/>
        <path id="Path_29078-2" data-name="Path 29078" d="M3535.33,1095.439a1.159,1.159,0,0,1,.774.308,1.054,1.054,0,0,1,.308.756,1.07,1.07,0,0,1-.323.767,1.055,1.055,0,0,1-.743.306h-.018a1.068,1.068,0,0,1,0-2.135Z" transform="translate(-3514.823 -1047.656)" fill="#c71836"/>
        <path id="Path_29079-2" data-name="Path 29079" d="M3524.921,1090.309a1.078,1.078,0,0,1,1.052,1.075,1.061,1.061,0,0,1-1.069,1.067h-.014a1.052,1.052,0,0,1-1.051-1.071,1.082,1.082,0,0,1,.326-.771A1.034,1.034,0,0,1,3524.921,1090.309Z" transform="translate(-3497.942 -1045.692)" fill="#c71836"/>
        <path id="Path_29080-2" data-name="Path 29080" d="M3530.32,1093.76h.005a1.067,1.067,0,0,1,1.068,1.079,1.038,1.038,0,0,1-1.059,1.057h0a1.076,1.076,0,0,1-.767-.307,1.077,1.077,0,0,1,.754-1.829Z" transform="translate(-3506.708 -1047.013)" fill="#c71836"/>
        <path id="Path_29081-2" data-name="Path 29081" d="M3531.365,1074.179a1.066,1.066,0,0,1-.015,2.133h-.017a1.077,1.077,0,0,1-.739-1.831A1.125,1.125,0,0,1,3531.365,1074.179Z" transform="translate(-3508.37 -1039.52)" fill="#c71836"/>
      </g>
    </g>
  </g>
</svg>
