<svg xmlns="http://www.w3.org/2000/svg" xmlns:xlink="http://www.w3.org/1999/xlink" width="53.623" height="53.629" viewBox="0 0 53.623 53.629">
  <defs>
    <linearGradient id="linear-gradient" x1="0.2" y1="0.298" x2="0.822" y2="0.678" gradientUnits="objectBoundingBox">
      <stop offset="0" stop-color="#906a7d"/>
      <stop offset="0.714" stop-color="#ef8aa7"/>
      <stop offset="1" stop-color="#faadc3"/>
    </linearGradient>
    <linearGradient id="linear-gradient-2" x1="0.5" y1="1" x2="0.5" y2="-0.101" xlink:href="#linear-gradient"/>
    <linearGradient id="linear-gradient-3" x1="0.82" y1="0.289" x2="0.132" y2="0.673" xlink:href="#linear-gradient"/>
  </defs>
  <g id="Mitral_Valve_Regurgitation" data-name="Mitral Valve Regurgitation" transform="translate(0)">
    <g id="Group_1947" data-name="Group 1947" transform="translate(0 0)">
      <g id="Group_1946" data-name="Group 1946">
        <path id="Path_1481" data-name="Path 1481" d="M-35.506-60.229a.227.227,0,0,0,.018-.054q.022-.107.036-.217.084-.357.163-.724a25.52,25.52,0,0,0-16.582,6.408,25.863,25.863,0,0,0-9.3,18.284,26.653,26.653,0,0,0,1.5,11.441q.411-.356.833-.706a49.154,49.154,0,0,1,12.256-7.277q7.513-3.168,7.73-7.857Q-38.645-45.468-35.506-60.229Z" transform="translate(61.266 61.234)" fill="url(#linear-gradient)"/>
        <path id="Path_1482" data-name="Path 1482" d="M-8.627,18.3q-.523-.177-1.032-.362a.224.224,0,0,1-.091-.036,88.045,88.045,0,0,1-16.727-7.35A14.06,14.06,0,0,0-39.51,9.318Q-46,11.812-55.64,14.875q-.427.149-.869.29a27.256,27.256,0,0,0,4.363,6.9A25.776,25.776,0,0,0-33.88,31.385a25.865,25.865,0,0,0,19.515-6.372A26.763,26.763,0,0,0-8.627,18.3Z" transform="translate(58.591 22.154)" fill="url(#linear-gradient-2)"/>
        <path id="Path_1483" data-name="Path 1483" d="M1.2-61.225q.117.424.217.833,2.518,9.653.471,16.419Q-.267-36.931,7.174-33.292A94.533,94.533,0,0,1,23.484-22.575q.474.369.941.742a26.622,26.622,0,0,0,2.969-10.518A25.835,25.835,0,0,0,21.04-51.866a25.84,25.84,0,0,0-18.3-9.269Q1.978-61.207,1.2-61.225Z" transform="translate(26.136 61.234)" fill="url(#linear-gradient-3)"/>
        <path id="Path_1484" data-name="Path 1484" d="M-31.666-60.4q-.1-.409-.217-.833-.688-.018-1.358,0-.079.367-.163.724-.014.111-.036.217a.226.226,0,0,1-.018.054q-3.139,14.761-3.349,19.3-.217,4.689-7.73,7.857a49.155,49.155,0,0,0-12.256,7.277q-.422.35-.833.706.217.579.489,1.177.442-.14.869-.29,9.635-3.064,16.13-5.558A14.06,14.06,0,0,1-27.1-28.543a88.045,88.045,0,0,0,16.727,7.35.224.224,0,0,0,.091.036q.509.185,1.032.362.308-.525.6-1.05-.468-.373-.941-.742A94.532,94.532,0,0,0-25.91-33.3q-7.44-3.639-5.286-10.681Q-29.148-50.751-31.666-60.4Z" transform="translate(59.219 61.245)" fill="#7c5b6b"/>
      </g>
    </g>
    <g id="Group_1949" data-name="Group 1949" transform="translate(1.593 0)">
      <g id="Group_1948" data-name="Group 1948">
        <path id="Path_1485" data-name="Path 1485" d="M-33.241-61.236q-.079.367-.163.724-.014.111-.036.217a.226.226,0,0,1-.018.054q-3.139,14.761-3.349,19.3-.217,4.689-7.73,7.857a49.155,49.155,0,0,0-12.256,7.277q-.422.35-.833.706.217.579.489,1.177.442-.14.869-.29,9.635-3.064,16.13-5.558A14.06,14.06,0,0,1-27.1-28.543a88.045,88.045,0,0,0,16.727,7.35.224.224,0,0,0,.091.036q.509.185,1.032.362.308-.525.6-1.05-.468-.373-.941-.742A94.532,94.532,0,0,0-25.91-33.3q-7.44-3.639-5.286-10.681,2.047-6.767-.471-16.419-.1-.409-.217-.833-.688-.018-1.358,0m-1.792,21.868q.024-4.586,2.39-17.415a28.2,28.2,0,0,1-.778,14.663q-2.307,6.877,4.58,9.7a73.367,73.367,0,0,1,14.229,7.965,74.684,74.684,0,0,1-13.541-6.589q-5.77-3.651-11.477-1.068a128.5,128.5,0,0,1-12.835,4.942,46.032,46.032,0,0,1,10.807-5.25Q-35.043-34.762-35.033-39.368Z" transform="translate(57.626 61.245)" fill="rgba(0,0,0,0.12)"/>
      </g>
    </g>
  </g>
</svg>
