<svg id="Group_17276" data-name="Group 17276" xmlns="http://www.w3.org/2000/svg" width="47" height="47" viewBox="0 0 47 47">
  <g id="Group_15928" data-name="Group 15928">
    <circle id="Ellipse_228" data-name="Ellipse 228" cx="23.5" cy="23.5" r="23.5" fill="#fff"/>
  </g>
  <path id="Path_19545" data-name="Path 19545" d="M189.83,200.942l-5.93-5.219a2.5,2.5,0,0,0-3.063-.158l-2.391-2.162a7.793,7.793,0,1,0-.54.523l2.387,2.159a2.3,2.3,0,0,0,.266,3.088l5.729,5.4a2.493,2.493,0,0,0,3.366.034l.2-.181a2.318,2.318,0,0,0-.024-3.484Z" transform="translate(-154.995 -168.578)" fill="#6c8ec9" opacity="0.35"/>
  <circle id="Ellipse_732" data-name="Ellipse 732" cx="7.404" cy="7.404" r="7.404" transform="translate(11.158 10.557)" fill="none" stroke="#161615" stroke-miterlimit="10" stroke-width="0.75"/>
  <line id="Line_554" data-name="Line 554" x2="2.695" y2="2.438" transform="translate(23.869 23.46)" fill="none" stroke="#161615" stroke-miterlimit="10" stroke-width="0.75"/>
  <path id="Path_19546" data-name="Path 19546" d="M181.7,194.4h0a1.951,1.951,0,0,0-.111,2.956l5.73,5.4a2.128,2.128,0,0,0,2.866.028l.2-.18a1.951,1.951,0,0,0-.02-2.935l-5.93-5.219A2.129,2.129,0,0,0,181.7,194.4Z" transform="translate(-154.995 -168.578)" fill="none" stroke="#161615" stroke-miterlimit="10" stroke-width="0.736"/>
  <line id="Line_555" data-name="Line 555" y1="3.066" x2="2.849" transform="translate(27.447 26.691)" fill="none" stroke="#161615" stroke-miterlimit="10" stroke-width="0.75"/>
  <path id="Path_19547" data-name="Path 19547" d="M164.394,187.634h4.38l1.721-4.119,1.877,6.048,1.616-3.545,1.356,1.564h3.7" transform="translate(-154.995 -168.578)" fill="none" stroke="#dc0030" stroke-linecap="round" stroke-linejoin="round" stroke-width="0.583"/>
</svg>
