<svg xmlns="http://www.w3.org/2000/svg" xmlns:xlink="http://www.w3.org/1999/xlink" width="375" height="270" viewBox="0 0 375 270">
  <defs>
    <clipPath id="clip-path">
      <rect id="Rectangle_3841" data-name="Rectangle 3841" width="375" height="270" transform="translate(7287 -7716)" fill="#fff" stroke="#707070" stroke-width="1" opacity="0.7"/>
    </clipPath>
  </defs>
  <g id="Mask_Group_16308" data-name="Mask Group 16308" transform="translate(-7287 7716)" clip-path="url(#clip-path)">
    <g id="baby_BOY_laying_ds" data-name="baby BOY laying ds" transform="translate(7249.896 -7754.38)">
      <g id="Layer_4" transform="translate(254.3 203.414)">
        <g id="Layer_1" transform="translate(33.664 0) rotate(87.426)">
          <g id="Group_67943" data-name="Group 67943" transform="translate(0 0)">
            <g id="Group_67942" data-name="Group 67942" transform="translate(0 0)">
              <g id="Group_67941" data-name="Group 67941">
                <path id="Path_53850" data-name="Path 53850" d="M20.214,1.947a2.979,2.979,0,0,0-.124-.715A3.122,3.122,0,0,0,19.25.019q-.187-.187-2.581,1.431A10.062,10.062,0,0,1,13.994,3a2.7,2.7,0,0,0-1.524-.28l-.84.249a8.356,8.356,0,0,1-.9.311,4.54,4.54,0,0,0-.84.4,4.07,4.07,0,0,0-.777.809,3.759,3.759,0,0,0-.591,1,2,2,0,0,0-.124.466,7.386,7.386,0,0,0-1.462.871,4.31,4.31,0,0,0-.622.622,2.524,2.524,0,0,0-.342.684q-.148-.065-.311-.124a5.127,5.127,0,0,0-2.768-.062,3.059,3.059,0,0,0-.653.187A4.37,4.37,0,0,0,1.9,7.763a1.485,1.485,0,0,0-.746-.4A.767.767,0,0,0,.4,7.576,1.442,1.442,0,0,0,.093,8.2L0,8.665a1.156,1.156,0,0,0,.5.84,1.247,1.247,0,0,0,.9.249,3,3,0,0,0,.622,2.021,2.264,2.264,0,0,0,1,.746,2.008,2.008,0,0,0,1.244.155,5.72,5.72,0,0,0,1-.4,7.62,7.62,0,0,0,.871-.4.415.415,0,0,0,.031.093,1.834,1.834,0,0,0,.435.591,1.942,1.942,0,0,0,1.213.622q.5-.031.715-.031a2.046,2.046,0,0,1,.622.124,2.725,2.725,0,0,0,1.835-.342,3.883,3.883,0,0,0,.622-.4q.025.283.062.56a7.482,7.482,0,0,0,.373,1.306l.062.124a2.476,2.476,0,0,0-.4.155,3.416,3.416,0,0,0-.746.591,2.015,2.015,0,0,0-.5.56l-.591,1.12a2.207,2.207,0,0,0-.155.622l-.031.5a3.52,3.52,0,0,0,.466,1.213,4.893,4.893,0,0,0,.435.684,1.659,1.659,0,0,0-.28.653,2.886,2.886,0,0,0,.031.933,2.076,2.076,0,0,0,.155.56,1.266,1.266,0,0,0,.777.529,1.458,1.458,0,0,0,1-.031,2.357,2.357,0,0,0,.684-.809,5.153,5.153,0,0,0,.311-.84,1.079,1.079,0,0,0-.031-.466l.435-.093a4.282,4.282,0,0,0,.84-.529,3.406,3.406,0,0,0,.84-.809l.529-1.088a1.561,1.561,0,0,0,.249-.715,1.8,1.8,0,0,0-.031-.871l-.062-.218a1.423,1.423,0,0,0,.249-.031q.082.268.187.529a2.57,2.57,0,0,0,.311.529q-.134.226-.249.435a7.816,7.816,0,0,0-.56,1.182,5.465,5.465,0,0,0-.187,2.954,6.388,6.388,0,0,0,1.275,2.706,5.365,5.365,0,0,0,.529.622,4.428,4.428,0,0,0-.56.5,4.2,4.2,0,0,0-.5.684,6.3,6.3,0,0,0-.342.746,4.86,4.86,0,0,0-.155,1.431,7.118,7.118,0,0,0,.062,1.088A3.054,3.054,0,0,0,17.6,31.646a2.158,2.158,0,0,0,1.026.342h.093A2.621,2.621,0,0,0,19,32.7a1.365,1.365,0,0,0,.373.466,1.227,1.227,0,0,0,.622.249,1.923,1.923,0,0,0,.964-.093.914.914,0,0,0,.591-.746,1.487,1.487,0,0,0-.155-.715,2.049,2.049,0,0,0-.373-.653,4.726,4.726,0,0,0,.622-.466,4.8,4.8,0,0,0,.964-1.12,2.967,2.967,0,0,0,.373-1.8,3.068,3.068,0,0,0-.684-1.71l-.218-.218a1.835,1.835,0,0,0,.9-1.151.411.411,0,0,0,0-.124,2.788,2.788,0,0,0,.56-.4,5.241,5.241,0,0,0,.9-1.213,10.1,10.1,0,0,1,1.9-1.368q1.617-1.026,1.71-1.462a7.9,7.9,0,0,0,0-2.457q0-.155.435-.622.4-.435.342-.591a3.715,3.715,0,0,0-.435-.809,4.117,4.117,0,0,0,.591-1.617,7.966,7.966,0,0,0,.093-1.431,6.521,6.521,0,0,0-.124-1.337,7.462,7.462,0,0,0-.4-1,7.751,7.751,0,0,0-.529-.964A3.516,3.516,0,0,0,26.06,7.887a4.6,4.6,0,0,0-1.648-.155q-.56.031-1.493-1.213-.84-1.182-1.368-.9a3.08,3.08,0,0,0-1.835-.777l.155-.28a2.978,2.978,0,0,0,.311-.684,4.746,4.746,0,0,0,.093-.933l-.062-1M70.5,21.228A3.465,3.465,0,0,0,71.215,23a5.025,5.025,0,0,0-1.057,1.275,4.044,4.044,0,0,0-.435,1,7.266,7.266,0,0,0-.187,1.026l-.093,1.088a2.9,2.9,0,0,0,.218.933,2.523,2.523,0,0,0,.342.746,2.091,2.091,0,0,0,1.244.871l1.337.311a1,1,0,0,0-.062.373,1.786,1.786,0,0,0,.342,1.026,1.655,1.655,0,0,0,1.244.622,2.167,2.167,0,0,0,.622-.031,2.727,2.727,0,0,0,.062.4,1.5,1.5,0,0,0,.466.684,1.569,1.569,0,0,0,1.057.373,1.539,1.539,0,0,0,1.057-.435,1.636,1.636,0,0,0,.155-2.115,1.416,1.416,0,0,0-.777-.529,1.048,1.048,0,0,0-.062-.746,3.908,3.908,0,0,0,.5-.093,3.765,3.765,0,0,0,1.306-.591l.591-.4a3.782,3.782,0,0,0,1.12-1.648,2.809,2.809,0,0,0,.218-1.057,7.856,7.856,0,0,0,1.835.155h.311a5.614,5.614,0,0,0,.155.56,3.052,3.052,0,0,0,.84,1.275,2.275,2.275,0,0,0,.591.4,1.76,1.76,0,0,0,.591,1.648,1.838,1.838,0,0,0,1.648.529,1.817,1.817,0,0,0,1.026-.684,1.289,1.289,0,0,0,.249-.777,1.547,1.547,0,0,0-.435-1.244,2.548,2.548,0,0,0,1-1.4l-.031-1.928a2.267,2.267,0,0,0-.777-1.337,3.092,3.092,0,0,0-.342-.28h0a3.292,3.292,0,0,0-.093-2.954q-.112-.2-.84-1.151.026.018.031,0a2.5,2.5,0,0,0,.249-.218,4.556,4.556,0,0,0,.435-.529,4.064,4.064,0,0,0,.435.249,4.81,4.81,0,0,0,1.99.4,2.922,2.922,0,0,0,1.151-.093,2.465,2.465,0,0,0,.529-.249,1.1,1.1,0,0,0,.093.435,1.974,1.974,0,0,0,1.368,1.337A1.808,1.808,0,0,0,93.7,20.2a1.845,1.845,0,0,0,.809-.684,1.9,1.9,0,0,0,.28-1,1.636,1.636,0,0,0-.715-1.431,2,2,0,0,0-1.182-.373,1.289,1.289,0,0,0-.5.031,2.577,2.577,0,0,0,.218-2.27,3.047,3.047,0,0,0-.28-.622q-.4-.56-.466-.653a3.476,3.476,0,0,0-2.55-1.026,6.5,6.5,0,0,0-1.182.093,5.935,5.935,0,0,0-1.151-1.8A5.2,5.2,0,0,0,83.592,8.7a6.24,6.24,0,0,0-1.741.062,9.271,9.271,0,0,0-4.167,1.99,4.711,4.711,0,0,0-1.213,1.4,3.8,3.8,0,0,0-.4,2.985,5.375,5.375,0,0,0-3.017.187,3.685,3.685,0,0,0-1.151.933,6.02,6.02,0,0,0-1.43,3.825Z" fill="#24110f"/>
              </g>
            </g>
          </g>
        </g>
        <g id="CenterMarker" transform="translate(76.797 46.529) rotate(87.426)">
          <g id="Layer_1-2" data-name="Layer_1" transform="translate(0 0)">
            <g id="Group_67945" data-name="Group 67945" transform="translate(0 0)">
              <g id="Group_67944" data-name="Group 67944">
                <path id="Path_53851" data-name="Path 53851" d="M7.464,3.732,3.732,7.464,0,3.732,3.732,0Zm-2.8,0H3.732v.933M2.8,3.732h.933V2.8" fill="none" stroke="rgba(0,0,0,0)" stroke-linecap="round" stroke-linejoin="round" stroke-width="0.184"/>
              </g>
            </g>
          </g>
        </g>
      </g>
      <g id="Group_18747" transform="translate(80.104 189.16)">
        <g id="Group_67948" data-name="Group 67948" transform="translate(154.745 64.452)">
          <g id="Group_67947" data-name="Group 67947" transform="translate(0 0)">
            <g id="Group_67946" data-name="Group 67946">
              <path id="Path_53852" data-name="Path 53852" d="M933.317,407.379q2.874-.924-.872-11.033-4.875-11.649-5.7-15.035a18.027,18.027,0,0,0-1.232,3.028,10.07,10.07,0,0,1-1.386,3.028,65.108,65.108,0,0,0-7.184,7.236,11.109,11.109,0,0,0-2.463,9.391q.564.154,3.643,1.129,2.976.975,3.643,1.129a42.447,42.447,0,0,0,6,.924,3.722,3.722,0,0,0,2.668-.924q.257-.205,1.334.564Q932.906,407.635,933.317,407.379Z" transform="translate(-914.251 -381.31)" fill="#ee7a09"/>
            </g>
          </g>
        </g>
        <g id="Group_67951" data-name="Group 67951" transform="translate(168.391 37.358)">
          <g id="Group_67950" data-name="Group 67950">
            <g id="Group_67949" data-name="Group 67949">
              <path id="Path_53853" data-name="Path 53853" d="M1017.133,226.4a67.466,67.466,0,0,1,8.056-5.388l-10.007,2.463a35.824,35.824,0,0,1-7.441,1.026,11.994,11.994,0,0,1-7.133-2.053q-5.337,17.293-5.491,25.3a38.5,38.5,0,0,0,1.591,14.574,70.71,70.71,0,0,0,2.412,9.391q.77,2.925,2.72.924.975-1.078,2.36-2.874a53.665,53.665,0,0,1-2-16.318,36.262,36.262,0,0,1,3.695-14.779Q1008.614,232.971,1017.133,226.4Z" transform="translate(-994.984 -221.014)" fill="#83523b"/>
            </g>
          </g>
        </g>
        <g id="Group_67954" data-name="Group 67954" transform="translate(175.581 34.535)">
          <g id="Group_67953" data-name="Group 67953" transform="translate(0 0)">
            <g id="Group_67952" data-name="Group 67952">
              <path id="Path_53854" data-name="Path 53854" d="M1067.155,217.351q1.642-13.034,1.334-13.034a1.364,1.364,0,0,0-.616.154q-3.541,1.488-7.338,2.668a67.424,67.424,0,0,0-8.057,5.388q-8.519,6.568-11.238,12.264a36.261,36.261,0,0,0-3.695,14.779,53.656,53.656,0,0,0,2,16.318,6.645,6.645,0,0,1,2.617-.308,47.371,47.371,0,0,1,10.622,2.822q.411.154,4.516-6.979a62.334,62.334,0,0,0,6.568-14.728Q1065.359,231.411,1067.155,217.351Z" transform="translate(-1037.519 -204.317)" fill="#68412f"/>
            </g>
          </g>
        </g>
        <g id="Layer_1-3" data-name="Layer_1" transform="translate(172.764 62.896)">
          <g id="Layer_3">
            <g id="Group_67956" data-name="Group 67956">
              <g id="Group_67955" data-name="Group 67955">
                <path id="Path_53855" data-name="Path 53855" d="M0,.821.872.872.924,0m-.1,1.745L.872.872l.872.051" fill="none" stroke="#000" stroke-linecap="round" stroke-linejoin="round" stroke-width="0.304"/>
              </g>
            </g>
          </g>
        </g>
        <g id="Group_67959" data-name="Group 67959" transform="translate(75.897 10.301)">
          <g id="Group_67958" data-name="Group 67958" transform="translate(0 0)">
            <g id="Group_67957" data-name="Group 67957">
              <path id="Path_53856" data-name="Path 53856" d="M742.359,343.9q.152-.051-.617-.668a45.011,45.011,0,0,0-12.01-8.57q-9.178-4.412-13.488-6.719-20.013-9.085-27.865-10.209-6.93-1.234-11.553-1.952-8.671-1.335-11.6-.871a19.846,19.846,0,0,0-5.747,2.155q-4.209,2.256-5.544,2.924-5.282,2.975-11.443,12.06-6.364,10.412-9.187,14.317a15.357,15.357,0,0,0-3.076,7.742,35.148,35.148,0,0,0,.769,8.418q.871,5.392-1.124,15.965-2.054,10.826-1.952,11.9,1.023,1.538,10.057,3.288,10.472,2.054,16.624-.414a19.45,19.45,0,0,1,9.389-.921q4.877.516,5.493,1.538.254.465-3.592-12.212l1.234-.355q5.7-9.7,11.181-13.759,3.338-2.459,7.446-.1a20.242,20.242,0,0,1,6.516,6.829,23.358,23.358,0,0,1,3.49,8.257q.668,4.107-1.851,4.412-.972.161-.972.465a64.054,64.054,0,0,1,7.133,3.9q4.927,2.924,6.618,1.893.921-.456,3.592-5.848,2.721-5.544,2.671-7.234,0-.363,1.538-.972,1.64-.727,1.64-1.031.16-1.487,1.031-1.69.972-.211,1.335-1.648,2.358-5.029,2.459-5.282a24.46,24.46,0,0,0,.617-3.127,11.333,11.333,0,0,1,.82-3.034,4.785,4.785,0,0,0-.355-2.045,6.227,6.227,0,0,1-.414-2,42.309,42.309,0,0,1,5.595-7.082,70.862,70.862,0,0,1,6.415-4.978l.617-.465.718-.355A44.107,44.107,0,0,1,742.359,343.9Z" transform="translate(-627.922 -314.79)" fill="#ee7a09"/>
            </g>
          </g>
        </g>
        <g id="Group_67962" data-name="Group 67962" transform="translate(150.309 20.013)">
          <g id="Group_67961" data-name="Group 67961">
            <g id="Group_67960" data-name="Group 67960">
              <path id="Path_53857" data-name="Path 53857" d="M921.256,135.745l-.154-.924-12.418-7.235a114.6,114.6,0,0,0-16.883-7.954q-3.13-1.026-3.8-1.232a25.344,25.344,0,0,1,2.515,1.283,86.639,86.639,0,0,1,13.7,6.26q2.309,1.283,12.931,7.8.616,0-.359.513a11.47,11.47,0,0,1-4.67.77,31.064,31.064,0,0,0,4.464.1q3.489-.1,4.464.462Z" transform="translate(-888.004 -118.4)" fill="#f49a42"/>
            </g>
          </g>
        </g>
        <g id="Group_67965" data-name="Group 67965" transform="translate(0.195 44.505)">
          <g id="Group_67964" data-name="Group 67964" transform="translate(0 0)">
            <g id="Group_67963" data-name="Group 67963">
              <path id="Path_53858" data-name="Path 53858" d="M199.733,520.571q-1.749,2.155-5.088,6.719a72.041,72.041,0,0,0-4.767,6.575q-2.257,3.744-6.11,11.8a37.7,37.7,0,0,0-3.076,7.5,14.8,14.8,0,0,0-.152,8,3.934,3.934,0,0,0,2.561,2.873q1.075.338,3.3,1,.258-.152.406.152l1.631.389a15.56,15.56,0,0,0,3.744.617,55.261,55.261,0,0,0,5.747.1q.152,0,.566-.617.355-.566.516-.456a3.747,3.747,0,0,0,2.358.558q1.175-.051,1.487-.558l.254-3.541.211.558v.051q2.661,5.392,6.7,7.108a59.7,59.7,0,0,0,7.64,2.7,24.182,24.182,0,0,1,5.316,1.978,12.548,12.548,0,0,0,4,1.4,42.347,42.347,0,0,0,16.472.465,15.7,15.7,0,0,0,7.75-3.8,18.414,18.414,0,0,0,5.13-6.981l.3-.718q-.152-1.073,1.749-8.308,1.842-7.032,1.538-8.215-1.082,0-9.237,7.5-7.953,7.336-9.136,6.981l-2.307.507q-3.186.414-8-2.1-6.981-3.592-7.851-3.9a16.8,16.8,0,0,1-3.389-.82q-.668-.313-.82-2.975a16.682,16.682,0,0,1,2.1-.211,8.462,8.462,0,0,0,2.1-.254q-4.42-6-5.138-7.953a6.9,6.9,0,0,1,1.749-7.7q.254-.3-.82-2.671-1.082-2.307-.718-2.51a31.528,31.528,0,0,0-4.775-10.057,11.309,11.309,0,0,0-5.646-4.26Q203.375,516.058,199.733,520.571Z" transform="translate(-180.06 -517.147)" fill="#83523b"/>
            </g>
          </g>
        </g>
        <g id="Group_67968" data-name="Group 67968" transform="translate(37.312 81.797)">
          <g id="Group_67967" data-name="Group 67967">
            <g id="Group_67966" data-name="Group 67966">
              <path id="Path_53859" data-name="Path 53859" d="M219.5,483.924l.513.821a20.927,20.927,0,0,0,8.672,7.389,33.547,33.547,0,0,0,13.342,3.079,31.037,31.037,0,0,0,17.7-5.439Z" transform="translate(-219.496 -483.924)" fill="#68412f"/>
            </g>
          </g>
        </g>
        <g id="Group_67971" data-name="Group 67971" transform="translate(45.009 80.925)">
          <g id="Group_67970" data-name="Group 67970" transform="translate(0 0)">
            <g id="Group_67969" data-name="Group 67969">
              <path id="Path_53860" data-name="Path 53860" d="M265.035,478.763q1.334.77,6,2.72a29.053,29.053,0,0,1,5.7,2.925,15.571,15.571,0,0,0,3.643,2.72l1.334.462q.564-.154,5.132-1.591a42.048,42.048,0,0,1,5.234-1.334,15.538,15.538,0,0,0,6.363-2.207,1.1,1.1,0,0,0-.616-1.078v-.051Q296.132,480.405,265.035,478.763Z" transform="translate(-265.035 -478.763)" fill="#f8c8bc"/>
            </g>
          </g>
        </g>
        <g id="Group_67974" data-name="Group 67974" transform="translate(34.241 0)">
          <g id="Group_67973" data-name="Group 67973">
            <g id="Group_67972" data-name="Group 67972">
              <path id="Path_53861" data-name="Path 53861" d="M487.27,267.736a9.443,9.443,0,0,1-3.119-1.775q-2.307-1.8-3.127-2.307a36.735,36.735,0,0,0-12.212-5.13h-.152l-.313-.059-.3-.1-.363-.051h-.1a41.84,41.84,0,0,0-13.852-.82h-2.62q-1.792-.254-5.544-1.183-3.643-.871-5.282-1.124a109.061,109.061,0,0,0-15.5-1.335,43.432,43.432,0,0,0-17.393,3.288,38.6,38.6,0,0,0-14.063,10.674,53.066,53.066,0,0,0-8.874,14.722,40.3,40.3,0,0,0-2.924,16.835l1.538,30.07a13.539,13.539,0,0,0,1.175,5.7q1.445,2.612,5.958,4.665a42.907,42.907,0,0,0,17.6,4.572,62.979,62.979,0,0,0,6.677-.617,33.422,33.422,0,0,0,6.465-1.437,51.467,51.467,0,0,1,5.122-1.918,9.606,9.606,0,0,0,3.127-1.834,10.374,10.374,0,0,0,3.043-4,8.456,8.456,0,0,0,.558-4.775,24.427,24.427,0,0,0-1.741-13.134,43.467,43.467,0,0,1-1.8-10.725q-.051-1.952.11-4.513a34.06,34.06,0,0,1,.456-5.544,12.853,12.853,0,0,1,2.256-5.079A41.573,41.573,0,0,1,448.8,271.759a29.613,29.613,0,0,1,13.345-5.8,49.491,49.491,0,0,1,12.618-.152Q479.516,266.263,487.27,267.736Z" transform="translate(-381.48 -253.85)" fill="#2b66ad"/>
            </g>
          </g>
        </g>
        <g id="Group_67977" data-name="Group 67977" transform="translate(128.5 89.802)">
          <g id="Group_67976" data-name="Group 67976" transform="translate(0 0)">
            <g id="Group_67975" data-name="Group 67975">
              <path id="Path_53862" data-name="Path 53862" d="M763.493,532a23.112,23.112,0,0,0-4.516-.718q3.284,1.745,2.566,3.13.1,1.232,2.053,1.026,1.95-.154,2.258-1.18Q766.264,532.824,763.493,532Z" transform="translate(-758.977 -531.284)" fill="#bf6017"/>
            </g>
          </g>
        </g>
        <g id="Group_67980" data-name="Group 67980" transform="translate(78.564 78.92)">
          <g id="Group_67979" data-name="Group 67979" transform="translate(0)">
            <g id="Group_67978" data-name="Group 67978">
              <path id="Path_53863" data-name="Path 53863" d="M670.136,724.291l-3.752-3.541,3.085,4.42q2.975,3.228,5.848,3.026a50.919,50.919,0,0,1-5.181-3.9m11.494,6.981a29.629,29.629,0,0,0,7.386,1.132q-4.361-.769-7.386-1.132m7.386,1.132,1.234.2q8.57,1.488,13.8.465-3.845-.879-12.779-.668h-2.256m-40.33-2.468a6.261,6.261,0,0,1-3.338-1.994l-.017-.026h-.549a10.627,10.627,0,0,1-1.082,1.454q6.06,3.237,16.219,2.468,2.772-.2,8.417-.82a41.457,41.457,0,0,1,8.215-.1,36.114,36.114,0,0,1,5.079.355,27.083,27.083,0,0,1-2.721-1.023,32.236,32.236,0,0,1-3.44-1.952q-5.646,1.487-13.7-1.851l-7.953-4.259,6.263,4.057q6.516,3.955,8.054,3.693Q655.971,732.506,648.686,729.937Z" transform="translate(-643.7 -720.75)" fill="#be6228"/>
            </g>
          </g>
        </g>
        <g id="Group_67983" data-name="Group 67983" transform="translate(110.591 85.748)">
          <g id="Group_67982" data-name="Group 67982" transform="translate(0 0)">
            <g id="Group_67981" data-name="Group 67981">
              <path id="Path_53864" data-name="Path 53864" d="M654.1,507.557l-.564-.257-.513.1Z" transform="translate(-653.024 -507.301)" fill="#bf6017"/>
            </g>
          </g>
        </g>
        <g id="Group_67986" data-name="Group 67986" transform="translate(148.872 72.971)">
          <g id="Group_67985" data-name="Group 67985" transform="translate(0 0)">
            <g id="Group_67984" data-name="Group 67984">
              <path id="Path_53865" data-name="Path 53865" d="M880.222,433.3l-.154-.616-.564-.975v.308Z" transform="translate(-879.503 -431.706)" fill="#d59d87"/>
            </g>
          </g>
        </g>
        <g id="Group_67989" data-name="Group 67989" transform="translate(148.872 72.971)">
          <g id="Group_67988" data-name="Group 67988" transform="translate(0 0)">
            <g id="Group_67987" data-name="Group 67987">
              <path id="Path_53866" data-name="Path 53866" d="M880.222,433.3l-.154-.616-.564-.975v.308Z" transform="translate(-879.503 -431.706)" fill="#d59d87"/>
            </g>
          </g>
        </g>
        <g id="Group_67992" data-name="Group 67992" transform="translate(166.627 66.197)">
          <g id="Group_67991" data-name="Group 67991" transform="translate(0 0)">
            <g id="Group_67990" data-name="Group 67990">
              <path id="Path_53867" data-name="Path 53867" d="M990.242,414.057a1.718,1.718,0,0,1,1.18-.205,63.925,63.925,0,0,1-3.8-9.391q-2.609-8.324-1.334-12.829-.149.392-.359.872a23.2,23.2,0,0,1-1.386,2.771,23.9,23.9,0,0,0,1.232,7.8Q986.136,404.2,990.242,414.057Z" transform="translate(-984.546 -391.632)" fill="#bf6017"/>
            </g>
          </g>
        </g>
        <g id="Group_67995" data-name="Group 67995" transform="translate(144.51 38.589)">
          <g id="Group_67994" data-name="Group 67994" transform="translate(0 0)">
            <g id="Group_67993" data-name="Group 67993">
              <path id="Path_53868" data-name="Path 53868" d="M879.561,254.677q2.412-8.98-.565-15.7-3.489-7.7-13.547-10.16a20.657,20.657,0,0,0-3.233-.513l1.334.257q10.981,2.668,14.112,11.546,2.669,7.646-.975,17.447-.77,2.1-4.926,6.517-4.105,4.31-6.209,5.439l-11.854,4a9.539,9.539,0,0,0,2.668.667q2.72-.359,9.237-4.362,3.233-2,5.952-3.951A19,19,0,0,0,879.561,254.677Z" transform="translate(-853.698 -228.3)" fill="#bf6017"/>
            </g>
          </g>
        </g>
        <g id="Group_67998" data-name="Group 67998" transform="translate(116.081 39.975)">
          <g id="Group_67997" data-name="Group 67997" transform="translate(0)">
            <g id="Group_67996" data-name="Group 67996">
              <path id="Path_53869" data-name="Path 53869" d="M712.86,236.908a42.762,42.762,0,0,0-16.934,9.493q-8.98,7.8-10.417,15.754a13.335,13.335,0,0,0,2.053-3.438,8.8,8.8,0,0,1,2.206-3.181,58.652,58.652,0,0,1,5.7-6.62q5.594-5.593,19.911-12.418A11.672,11.672,0,0,0,712.86,236.908Z" transform="translate(-685.509 -236.497)" fill="#f49a42"/>
            </g>
          </g>
        </g>
        <g id="Group_68001" data-name="Group 68001" transform="translate(169.244 38.589)">
          <g id="Group_68000" data-name="Group 68000" transform="translate(0 0)">
            <g id="Group_67999" data-name="Group 67999">
              <path id="Path_53870" data-name="Path 53870" d="M1020.5,228.4q.2-.1-.1-.1-7.184.718-14.471,6.722l-5.9,5.85.565,1.745a54.311,54.311,0,0,1,3.49-4.516,43.852,43.852,0,0,1,3.387-3.336,31.575,31.575,0,0,1,3.233-2.412q1.539-.872,2.976-1.539a32.9,32.9,0,0,1,3.13-1.232Z" transform="translate(-1000.029 -228.3)" fill="#bf6017"/>
            </g>
          </g>
        </g>
        <g id="Group_68004" data-name="Group 68004" transform="translate(86.444 12.521)">
          <g id="Group_68003" data-name="Group 68003" transform="translate(0 0)">
            <g id="Group_68002" data-name="Group 68002">
              <path id="Path_53871" data-name="Path 53871" d="M544.068,74.232l-7.9,1.437Q525.9,78.953,518.359,88.959a44.721,44.721,0,0,0-4.157,6.517l-1.334,2.771q-5.542,16.985.308,1.283,3.643-9.8,13.291-17.293a45.351,45.351,0,0,1,8.98-5.491,68.478,68.478,0,0,1,19.346-2.258,54.308,54.308,0,0,0-10.725-.257m13.855.564q-1.515-.2-3.13-.308a63.551,63.551,0,0,1,9.955,2.155A19.178,19.178,0,0,0,557.924,74.8Z" transform="translate(-510.172 -74.078)" fill="#f49a42"/>
            </g>
          </g>
        </g>
        <g id="Group_68007" data-name="Group 68007" transform="translate(81.495 46.982)">
          <g id="Group_68006" data-name="Group 68006">
            <g id="Group_68005" data-name="Group 68005">
              <path id="Path_53872" data-name="Path 53872" d="M481.5,278.439q.462-1.18-.616.513v.565Z" transform="translate(-480.888 -277.954)" fill="#134d94"/>
            </g>
          </g>
        </g>
        <g id="Group_68010" data-name="Group 68010" transform="translate(84.522 73.895)">
          <g id="Group_68009" data-name="Group 68009" transform="translate(0)">
            <g id="Group_68008" data-name="Group 68008">
              <path id="Path_53873" data-name="Path 53873" d="M499.005,440.2q0-1.488-.154-3.028l-.051,1.642Q498.9,441.995,499.005,440.2Z" transform="translate(-498.8 -437.171)" fill="#134d94"/>
            </g>
          </g>
        </g>
        <g id="Group_68013" data-name="Group 68013" transform="translate(38.614 1.911)">
          <g id="Group_68012" data-name="Group 68012" transform="translate(0 0)">
            <g id="Group_68011" data-name="Group 68011">
              <path id="Path_53874" data-name="Path 53874" d="M279.113,12.985q3.592.205,6.466.411a155.692,155.692,0,0,0-15.959-1.9A55.537,55.537,0,0,0,261,11.445a35.377,35.377,0,0,0-10.366,3.028,47.469,47.469,0,0,0-11.957,7.389q-13.855,11.7-10.982,27.659-.051-2.822.154-5.593a33.034,33.034,0,0,1,1.488-6.774q1.54-5.183,6.671-10.674A37.816,37.816,0,0,1,247.3,17.962q.872-.411,3.8-2.053a28,28,0,0,1,3.9-1.847q3.284-1.129,11.6-1.386A117.466,117.466,0,0,1,279.113,12.985Z" transform="translate(-227.202 -11.303)" fill="#7898cc"/>
            </g>
          </g>
        </g>
        <g id="Group_68016" data-name="Group 68016" transform="translate(109.41 13.122)">
          <g id="Group_68015" data-name="Group 68015" transform="translate(0 0)">
            <g id="Group_68014" data-name="Group 68014">
              <path id="Path_53875" data-name="Path 53875" d="M664.413,78.417q6.106-1.18,14.214,1.488A38.781,38.781,0,0,1,685.5,82.83q-.154-.872-2.668-1.95l-2.463-.924a34.2,34.2,0,0,0-24.118-.257,41.78,41.78,0,0,0-7.441,3.336l-2.771,1.8q1.694-.667,6.825-3.028A61.87,61.87,0,0,1,664.413,78.417Z" transform="translate(-646.042 -77.632)" fill="#f49a42"/>
            </g>
          </g>
        </g>
        <g id="Group_68019" data-name="Group 68019" transform="translate(107.46 25.594)">
          <g id="Group_68018" data-name="Group 68018" transform="translate(0 0)">
            <g id="Group_68017" data-name="Group 68017">
              <path id="Path_53876" data-name="Path 53876" d="M654.057,154q2.925-1.539,5.132-2.566a5.806,5.806,0,0,0-2.155.667l-1.8.821a70.366,70.366,0,0,0-13.342,7.441,31.833,31.833,0,0,0-5.8,5.747l-1.591,2.463a55.11,55.11,0,0,1,6.979-6.62,12.779,12.779,0,0,1,1.488-.924A10.8,10.8,0,0,0,644.563,160,65.125,65.125,0,0,1,654.057,154Z" transform="translate(-634.505 -151.421)" fill="#f49a42"/>
            </g>
          </g>
        </g>
        <g id="Group_68022" data-name="Group 68022" transform="translate(1.647 85.9)">
          <g id="Group_68021" data-name="Group 68021">
            <g id="Group_68020" data-name="Group 68020">
              <path id="Path_53877" data-name="Path 53877" d="M194.143,765.338a4.539,4.539,0,0,0-1.6-3.288l.93,2.772a1.79,1.79,0,0,1,.051,1.386,1.913,1.913,0,0,1-.871,1.082,11.331,11.331,0,0,1-4.006-.516,10.605,10.605,0,0,0,3.693,1.589,1.74,1.74,0,0,0,.9-.068l-.042-.008Q194.586,767.822,194.143,765.338Z" transform="translate(-188.65 -762.05)" fill="#68412f"/>
            </g>
          </g>
        </g>
        <g id="Group_68025" data-name="Group 68025" transform="translate(5.907 87.237)">
          <g id="Group_68024" data-name="Group 68024" transform="translate(0 0)">
            <g id="Group_68023" data-name="Group 68023">
              <path id="Path_53878" data-name="Path 53878" d="M38.112,518.876a2.132,2.132,0,0,1,.051,1.385,2.235,2.235,0,0,1-.872,1.078,10.94,10.94,0,0,1-3.336-.308l-.257.051a11.068,11.068,0,0,0,3.284,1.334,1.619,1.619,0,0,0,1.026-.154,9.145,9.145,0,0,0,3.028,1.18,1.334,1.334,0,0,0,1.642-.77,7.366,7.366,0,0,0,2.361.821l.308.051a1.373,1.373,0,0,0,1.078-.462,1.536,1.536,0,0,0,.462-1.129l-.257-.1.051-.411h.257a5.414,5.414,0,0,0-1.693-4.208A18.8,18.8,0,0,1,46.168,520a1.813,1.813,0,0,1,.1,1.334,2.235,2.235,0,0,1-.872,1.078,9.1,9.1,0,0,1-2.566-.154,5.108,5.108,0,0,0-.257-2.874,4.067,4.067,0,0,0-1.334-2.207,26.113,26.113,0,0,1,.924,2.771,1.757,1.757,0,0,1-.411,2.1l-.051.051-.359.257a10.356,10.356,0,0,1-3.182-.257q1.026-.718.564-3.028a4.707,4.707,0,0,0-1.539-2.976Z" transform="translate(-33.699 -516.105)" fill="#68412f"/>
            </g>
          </g>
        </g>
        <g id="Group_68028" data-name="Group 68028" transform="translate(19.093 86.202)">
          <g id="Group_68027" data-name="Group 68027" transform="translate(0 0)">
            <g id="Group_68026" data-name="Group 68026">
              <path id="Path_53879" data-name="Path 53879" d="M116.073,514.091q-.667-3.13-2.36-4.105l1.437,3.13a2.366,2.366,0,0,1,.257,1.591,2.154,2.154,0,0,1-.821,1.385,11.707,11.707,0,0,1-2.822.256l-.051.513a6.948,6.948,0,0,0,2.617.564Q116.791,517.375,116.073,514.091Z" transform="translate(-111.711 -509.986)" fill="#68412f"/>
            </g>
          </g>
        </g>
        <g id="Group_68031" data-name="Group 68031" transform="translate(18.836 92.565)">
          <g id="Group_68030" data-name="Group 68030" transform="translate(0 0)">
            <g id="Group_68029" data-name="Group 68029">
              <path id="Path_53880" data-name="Path 53880" d="M110.5,547.628h-.257l-.051.411.257.1Z" transform="translate(-110.193 -547.628)" fill="#68412f"/>
            </g>
          </g>
        </g>
        <g id="Group_68034" data-name="Group 68034" transform="translate(20.782 58.658)">
          <g id="Group_68033" data-name="Group 68033">
            <g id="Group_68032" data-name="Group 68032">
              <path id="Path_53881" data-name="Path 53881" d="M123.1,352.719q.1-2.1.1-3.746.051-3.284-.513-1.026-1.488,6.774-.718,21.347a19.606,19.606,0,0,0,3.8,11.187,11.96,11.96,0,0,0,3.438,3.336q-3.438-2.668-5.132-17.139Z" transform="translate(-121.705 -347.027)" fill="#9b7458"/>
            </g>
          </g>
        </g>
        <g id="Group_68037" data-name="Group 68037" transform="translate(0 44.28)">
          <g id="Group_68036" data-name="Group 68036" transform="translate(0 0)">
            <g id="Group_68035" data-name="Group 68035">
              <path id="Path_53882" data-name="Path 53882" d="M199.694,519.16a17.376,17.376,0,0,1,2.307-1.9,6.244,6.244,0,0,1,5.079-.87,6.026,6.026,0,0,0-3.744-.465q-3.955.617-7.5,6.11l-5.231,7.589a157.92,157.92,0,0,0-8.519,14.165l-1.69,3.9q-1.589,4.15-1.251,5.6l-.194,1.581q-.3,5.383,1.242,7.082.718.718,3.178.456a2.231,2.231,0,0,1-1.023-.82,3.425,3.425,0,0,1-.262-3.178,5.925,5.925,0,0,1-1.073-1.031,2.079,2.079,0,0,1-.465-2.206,86.545,86.545,0,0,1,3.338-10.26q4.412-11.342,9.745-16.886,1.234-2.1,2.62-4.26Q198.976,519.464,199.694,519.16Z" transform="translate(-178.904 -515.816)" fill="#9b7458"/>
            </g>
          </g>
        </g>
        <g id="Group_68040" data-name="Group 68040" transform="translate(26.334 86.044)">
          <g id="Group_68039" data-name="Group 68039" transform="translate(0)">
            <g id="Group_68038" data-name="Group 68038">
              <path id="Path_53883" data-name="Path 53883" d="M386.626,763.526a3.22,3.22,0,0,1-1.225.718,22.458,22.458,0,0,1-3.8,7.75,22.971,22.971,0,0,1-6.465,5.7l-1.175.566h-.11q-4.209,1.234-4.767,1.335a27.417,27.417,0,0,1-7.547.516,16.181,16.181,0,0,1-5.7-1.7l-2.51-1.285h-.051a61.424,61.424,0,0,1-7.344-6.254l.617,1.538a11.934,11.934,0,0,0,3.026,3.44,6.829,6.829,0,0,1-4.412,0q-4.31-1.031-10.463-5.138l3.228,3.085a19.407,19.407,0,0,0,10.573,3.381l7.539,2.62q8.781,2.257,14.883.668l1.9-.414q1.851-.609,3.288-1.226A17.826,17.826,0,0,0,381.8,774.1a32.491,32.491,0,0,0,3.651-5.494q1.023-1.995,2.781-5.7Z" transform="translate(-334.7 -762.9)" fill="#68412f"/>
            </g>
          </g>
        </g>
        <g id="Group_68043" data-name="Group 68043" transform="translate(67.331 34.997)">
          <g id="Group_68042" data-name="Group 68042" transform="translate(0 0)">
            <g id="Group_68041" data-name="Group 68041">
              <path id="Path_53884" data-name="Path 53884" d="M397.1,219.313a6.985,6.985,0,0,0,2.053-.257l1.437-.462-.308.154a34.01,34.01,0,0,0,5.953-2.668,29.043,29.043,0,0,0,5.593-4,28.618,28.618,0,0,1-1.694,2.72,39.835,39.835,0,0,1-3.233,4.208q4.824-3.489,8.005-11.957a14.671,14.671,0,0,1-2.155,3.335q-2,1.693-4.157,3.233A32.906,32.906,0,0,1,397.1,219.313Z" transform="translate(-397.097 -207.049)" fill="#104e93"/>
            </g>
          </g>
        </g>
        <g id="Group_68046" data-name="Group 68046" transform="translate(62.918 44.799)">
          <g id="Group_68045" data-name="Group 68045">
            <g id="Group_68044" data-name="Group 68044">
              <path id="Path_53885" data-name="Path 53885" d="M381.97,267.755q.257.1-.513.821a16.283,16.283,0,0,1-3.8,2.514l-6.671,3.489a47.756,47.756,0,0,0,9.288-4.054,14.939,14.939,0,0,0,4.926-5.491q-2.514,1.642-4.772,2.874l-3.695,1.693Z" transform="translate(-370.988 -265.035)" fill="#104e93"/>
            </g>
          </g>
        </g>
        <g id="Group_68049" data-name="Group 68049" transform="translate(115.055 17.29)">
          <g id="Group_68048" data-name="Group 68048">
            <g id="Group_68047" data-name="Group 68047">
              <path id="Path_53886" data-name="Path 53886" d="M706.634,104.551q-3.9-1.078-6.363-1.591a31.046,31.046,0,0,0-6.671-.667q-5.952.257-14.163,5.132a43.121,43.121,0,0,1,9.391-2.771A40.118,40.118,0,0,1,706.634,104.551Z" transform="translate(-679.437 -102.29)" fill="#bf6017"/>
            </g>
          </g>
        </g>
        <g id="Group_68052" data-name="Group 68052" transform="translate(37.876 10.958)">
          <g id="Group_68051" data-name="Group 68051">
            <g id="Group_68050" data-name="Group 68050">
              <path id="Path_53887" data-name="Path 53887" d="M318.334,65.573a9.1,9.1,0,0,1-2.412,0,47.824,47.824,0,0,0-9.8-.718,46.284,46.284,0,0,0-8.878,1.026,57.126,57.126,0,0,0-9.493,3.336,18.737,18.737,0,0,0-4.618,1.9,47.1,47.1,0,0,0-8.775,8.724A29.725,29.725,0,0,0,268.2,91.385q-.359,1.386-.616,2.771l-.257,2.258a5,5,0,0,1-.051,1.9,8.839,8.839,0,0,1-2,3.746q-2.258,2.514-5.593,5.593l3.028-1.8a16.937,16.937,0,0,0,3.592-2.412l1.026-1.8q1.334-2.053.616-.513a2.977,2.977,0,0,1-.565,1.078,5.365,5.365,0,0,1-1.078,1.232l-2.155,3.746a1.153,1.153,0,0,1-.718,1.026,9.5,9.5,0,0,0-1.693,1.078l1.745-.308a3.251,3.251,0,0,0,2.309-1.539q.462-.975,2.053,5.953,1.539,6.671,2.361,12.521l-.205-4.464a49.8,49.8,0,0,1,.411,6.158,12.427,12.427,0,0,1,.154,2.976q-.051.975-.205-1.334l-.051.513q-.513,6.466-4.054,9.186-1.386,1.078-7.7,3.233a36.369,36.369,0,0,1-20.321.667,39.892,39.892,0,0,1-7.954-3.336q-1.488-.872-7.441-4.567a9.351,9.351,0,0,0,2.566,3.438,20.851,20.851,0,0,0,3.849,2.1,39.107,39.107,0,0,0,28.532,2.566,25.16,25.16,0,0,0,8.108-3.8,14.381,14.381,0,0,0,5.593-6.876,9.986,9.986,0,0,0,.41-3.13,90.566,90.566,0,0,0-.77-12.008q-.1-1.078-1.334-9.288a54.647,54.647,0,0,1-.77-9.442q.205-7.7,6.774-16.318a47.317,47.317,0,0,1,13.342-11.905,25.237,25.237,0,0,1,7.389-2.874,64.924,64.924,0,0,1,7.851-1.232q7.158-.665,20.578.975a8.43,8.43,0,0,1-2.053-.616q-1.745-.718-2.206-.872A6.244,6.244,0,0,0,318.334,65.573Z" transform="translate(-222.836 -64.832)" fill="#134e91"/>
            </g>
          </g>
        </g>
        <g id="Group_68055" data-name="Group 68055" transform="translate(81.341 46.602)">
          <g id="Group_68054" data-name="Group 68054" transform="translate(0 0)">
            <g id="Group_68053" data-name="Group 68053">
              <path id="Path_53888" data-name="Path 53888" d="M481.671,276.364h-.051q.719-1.539-.616.513l-1.026,1.8a5.366,5.366,0,0,0,1.078-1.232A3.056,3.056,0,0,0,481.671,276.364Z" transform="translate(-479.977 -275.704)" fill="#134e91"/>
            </g>
          </g>
        </g>
        <g id="Group_68058" data-name="Group 68058" transform="translate(85.241 72.047)">
          <g id="Group_68057" data-name="Group 68057" transform="translate(0 0)">
            <g id="Group_68056" data-name="Group 68056">
              <path id="Path_53889" data-name="Path 53889" d="M503.409,430.912a12.248,12.248,0,0,0-.154-2.976l-.205-1.693.154,3.335Q503.358,431.887,503.409,430.912Z" transform="translate(-503.05 -426.242)" fill="#134e91"/>
            </g>
          </g>
        </g>
      </g>
      <g id="Layer_2" transform="translate(256.05 183.731)">
        <g id="face" transform="translate(94.267 30.128) rotate(92.649)">
          <g id="Group_68061" data-name="Group 68061" transform="translate(0 0)">
            <g id="Group_68060" data-name="Group 68060" transform="translate(0 0)">
              <g id="Group_68059" data-name="Group 68059">
                <path id="Path_53890" data-name="Path 53890" d="M45.05,3.051q.163.79.272,1.58a26.256,26.256,0,0,1,.136,5.965q-1.117,12.039-13.047,19.42a47.108,47.108,0,0,1-10.159,5.093Q17.1,36.716,8.089,36.852a22.465,22.465,0,0,1-6.4-1.008L0,35.272l1.444.518a45.384,45.384,0,0,0,5.039,1.28,38.372,38.372,0,0,0,15.77-.054,33.669,33.669,0,0,0,13.156-6.7,30.9,30.9,0,0,0,8.689-10,23.807,23.807,0,0,0,2.669-10.3,17.418,17.418,0,0,0-.844-5.393q-.272-.817-.572-1.689Q44.56.981,44.206,0,44.206.027,45.05,3.051Z" transform="translate(32.521 52.586)" fill="#9b7458"/>
                <path id="Path_53891" data-name="Path 53891" d="M27.836,2.089A30.491,30.491,0,0,0,11.576,13.61H0V48.338a46.748,46.748,0,0,1,4.766-.572q.694-.052,1.28-.082.375,2.16.817,4.195.3,1.379.626,2.7a63.175,63.175,0,0,0,7.191,17.868l4.14,5.693a.522.522,0,0,1,.054.082.838.838,0,0,1,.082.082q.6.708,1.253,1.389a32.837,32.837,0,0,0,8.552,6.646,16.213,16.213,0,0,0,3.759,1.525l1.689.572a22.465,22.465,0,0,0,6.4,1.008Q49.626,89.3,54.774,87.7A47.108,47.108,0,0,0,64.933,82.6q11.93-7.381,13.047-19.42a26.254,26.254,0,0,0-.136-5.965q-.109-.79-.272-1.58-.844-3.023-.844-3.051a3.7,3.7,0,0,1-.327-.953,89.216,89.216,0,0,0,2.1-12.338q.14-1.336.191-2.615.746,3.4.872,4.549a32.472,32.472,0,0,1-.981,11.031q1.511,3.855,2.124,6.047V49.291h4.058V27.229l-1.58.082-.654-13.7H72.941a26.1,26.1,0,0,0-4.031-4.6A33.433,33.433,0,0,0,54.175,1.68,46.113,46.113,0,0,0,45,.291,48.948,48.948,0,0,0,35.844.155,28.611,28.611,0,0,0,27.836,2.089Z" fill="#83523b"/>
              </g>
            </g>
          </g>
        </g>
        <g id="Layer_2-2" data-name="Layer_2" transform="translate(83.3 21.004) rotate(92.649)">
          <g id="Group_68064" data-name="Group 68064" transform="translate(0 0)">
            <g id="Group_68063" data-name="Group 68063" transform="translate(0 0)">
              <g id="Group_68062" data-name="Group 68062">
                <path id="Path_53892" data-name="Path 53892" d="M20.319,49.817l-1.988.082a2.047,2.047,0,0,1,.136.354q2.805,7.572,4.058,10.541,1.661,3.922,7.708,9.342l-.953-1.089q-5.039-5.475-5.72-9.669a5.694,5.694,0,0,1,.054-2.37l.272-.763A9.022,9.022,0,0,1,21.354,54.2a3.675,3.675,0,0,0-.681-1.553,2.961,2.961,0,0,1-.626-1.661,4.567,4.567,0,0,1,.272-1.171M85.252,9.342,88.6,9.07,86.832,0,0,6.864,6.755,41.591a43.087,43.087,0,0,1,4.6-.953q4.63-.708,4.9.49.227.872,1.471,4.331l1.634,4.385,1.961-.109q.268-.81.763-1.988a16.657,16.657,0,0,0,.872-2.533,6.006,6.006,0,0,0,.191-1.035,1.311,1.311,0,0,0,.354.136,4.655,4.655,0,0,0,.6.191,1.039,1.039,0,0,0,.681-.381,4.164,4.164,0,0,0-.518-2.533q.354-.463.681-.981a3.67,3.67,0,0,0,.436-2.56,3.838,3.838,0,0,0-1.716-2.56l.463-3.949a6.569,6.569,0,0,0,1.471-.054h.027a5.537,5.537,0,0,0,1.471-.545,5.868,5.868,0,0,0,.735-.545,9.4,9.4,0,0,0,3.023-4.222,5.177,5.177,0,0,0,.3-2.424,4.212,4.212,0,0,0-.327-1.389,4.425,4.425,0,0,0-2.179-2.315l.245-.49a9.91,9.91,0,0,0,3.214-.191,9.44,9.44,0,0,0,2.724-1.171,4.109,4.109,0,0,0,.9.327,8.834,8.834,0,0,0,6.673-.163l.272,1.089a3.927,3.927,0,0,0,1.335,2.07,5.272,5.272,0,0,0,1.389.735,8.586,8.586,0,0,0,5.72,0A3.7,3.7,0,0,0,53,25.712a1.983,1.983,0,0,0,.626.272,4.852,4.852,0,0,0,4.494-.953A2.439,2.439,0,0,0,59,23.4a2.86,2.86,0,0,0-.381-1.934,2.076,2.076,0,0,0-.517-.6,5.3,5.3,0,0,0-3.6-1.471q.109-.272.218-.6a3.766,3.766,0,0,0,.163-1.8,4.432,4.432,0,0,0-.191-.817q-.082-.327-.191-.654a2.482,2.482,0,0,0-.245-.436,1.194,1.194,0,0,1-.109-.218,3.834,3.834,0,0,0-.735-.79,7.417,7.417,0,0,0-1.389-.872A3.019,3.019,0,0,1,50.715,12.2l.517-1.335q.654.272,1.307.518a4.29,4.29,0,0,0,2.016.381A6.5,6.5,0,0,0,57.5,10.622q.654-.49,1.58-1.307a7.541,7.541,0,0,0,2.7,3.486,8.486,8.486,0,0,0,2.7,1.253,5.97,5.97,0,0,0,3.568-.245,25.835,25.835,0,0,0,2.914-1.335,13.5,13.5,0,0,0,1.743-.981,8.724,8.724,0,0,0,1.444-.926,2.075,2.075,0,0,1,1.444,0,2.689,2.689,0,0,1,1.389.6q1.743,1.77,3.377,6.755,1.362,5.012,1.661,5.856,1.362,3.377,1.743,4.521A33.125,33.125,0,0,1,84.9,39.385q2.261,3.759,3.3,5.883l-1.77-9.015,4-.3Z" fill="#68412f"/>
              </g>
            </g>
          </g>
        </g>
        <g id="hair_top" transform="translate(122.788 4.95) rotate(92.649)">
          <g id="color" transform="translate(0 0)">
            <g id="Group_68067" data-name="Group 68067" transform="translate(0 0)">
              <g id="Group_68066" data-name="Group 68066">
                <g id="Group_68065" data-name="Group 68065">
                  <path id="Path_53893" data-name="Path 53893" d="M20.231,17.677a4.84,4.84,0,0,0-2.37-.381,5.1,5.1,0,0,0-4.086,2.37,4.436,4.436,0,0,0-.572,2.642,3.43,3.43,0,0,0,1.988,3.241,4.931,4.931,0,0,0,3.568.49l.409.518a2.14,2.14,0,0,0-.381.3A4.936,4.936,0,0,0,17.262,29.5a4.016,4.016,0,0,0,1.008,3.786,5.256,5.256,0,0,0-1.062.926,4.231,4.231,0,0,0-2.342-.3,7.146,7.146,0,0,0-3.023.981A8.56,8.56,0,0,0,9.2,37.179,6.831,6.831,0,0,0,7.866,42.6a11.771,11.771,0,0,0,.49,1.716,3.135,3.135,0,0,0,1.471,1.934.971.971,0,0,1,.6.981l-.354.545a3.889,3.889,0,0,0-.245,3.7,4.249,4.249,0,0,0-.708.572,8.886,8.886,0,0,0-2.642,4.658,10.832,10.832,0,0,0-3.514.735A4.379,4.379,0,0,0,.021,62.291a3.864,3.864,0,0,0,.79,2.043A4.188,4.188,0,0,0,2.827,65.75a5,5,0,0,0,2.588.027,4.989,4.989,0,0,0,3.731-3.323l1.553.626q-.49.409-.926.817A5.759,5.759,0,0,0,8.22,66.676,5.1,5.1,0,0,0,8,68.392a4.935,4.935,0,0,0,2.778,4.086,6.021,6.021,0,0,0,3.132.354l1.307,1.2a5.846,5.846,0,0,0-2.451,2.233,4.8,4.8,0,0,0-.626,3.268,9.426,9.426,0,0,0,.79,2.506A4.474,4.474,0,0,0,15.111,84.3q1.144.572,2.261,1.144a5.575,5.575,0,0,0,1.553.518A9.043,9.043,0,0,0,15.9,87.213a3.818,3.818,0,0,0-1.035.981,5.322,5.322,0,0,0-1.253,2.588,7.6,7.6,0,0,0,.49,3.432,7.372,7.372,0,0,0,1.389,2.261,5.281,5.281,0,0,0,2.37,1.634,6,6,0,0,0,3.868-.082,1.432,1.432,0,0,1,.136.218,5.14,5.14,0,0,0,3.6,2.805,6,6,0,0,0,1.5,4.276,5.907,5.907,0,0,0,1.117,1.008,4.531,4.531,0,0,0,3.868.436,4.871,4.871,0,0,0,1.444-.953,8.884,8.884,0,0,0,2.1-3.377,2.18,2.18,0,0,0,.136-.872q-.082-1.934,2.7-19.529a2.05,2.05,0,0,0,.354.136,5.277,5.277,0,0,0,.572.191,1.28,1.28,0,0,0,.763-.381,4.279,4.279,0,0,0-.327-2.588q.381-.518.735-1.035a3.937,3.937,0,0,0,.654-2.615,3.445,3.445,0,0,0-1.525-2.588l.79-4.086A5.09,5.09,0,0,0,44.145,67.9a10.889,10.889,0,0,0,3.377-4.358,5.12,5.12,0,0,0,.49-2.451,4.021,4.021,0,0,0-2.261-3.759l.3-.517a9.862,9.862,0,0,0,6.128-1.471,7.06,7.06,0,0,0,.844.381,8.982,8.982,0,0,0,6.755-.245q.082.572.191,1.089a3.575,3.575,0,0,0,1.2,2.124,5.009,5.009,0,0,0,1.307.735,8.6,8.6,0,0,0,5.8-.054,3.391,3.391,0,0,0,1.634,3.514,1.539,1.539,0,0,0,.6.3,5.08,5.08,0,0,0,4.63-1.035,2.728,2.728,0,0,0,1.008-1.689,2.947,2.947,0,0,0-.245-1.961,2.872,2.872,0,0,0-.463-.626A4.933,4.933,0,0,0,71.9,56.435l.272-.6a4.414,4.414,0,0,0,.191-2.7q-.082-.354-.163-.654a3.2,3.2,0,0,0-.981-1.471,6.377,6.377,0,0,0-1.335-.9,3.332,3.332,0,0,1-1.253-1.008l.654-1.389a14.087,14.087,0,0,0,1.307.545,4.187,4.187,0,0,0,1.988.381,7.427,7.427,0,0,0,3.35-1.062,14.938,14.938,0,0,0,1.689-1.307A22.029,22.029,0,0,1,80.4,44.369a5.8,5.8,0,0,0,.654,2.669,5.238,5.238,0,0,0,2.588,2.288,6.172,6.172,0,0,0,5.42-.109q.953-.49,1.852-1.035a9.077,9.077,0,0,0,1.5-.926,4,4,0,0,1,1.825-.708,5.407,5.407,0,0,1,2.451.109,6.669,6.669,0,0,1,2.261,1.117q4.167,11.93,2.1,28.871,2.043,3.949,2.914,6.156a15.341,15.341,0,0,1,1.253,4.712q.163,2.451.191,2.533a33.731,33.731,0,0,1-.381,4.222,5.6,5.6,0,0,0,1.743.463,2.483,2.483,0,0,0,1.607-.708q.3-.354.572-.681a7.135,7.135,0,0,0,.49-.79,8.9,8.9,0,0,0,.9-4.549,3.174,3.174,0,0,0,3.105.6,2,2,0,0,1,.654.054,3.475,3.475,0,0,0,1.416-.191,1.158,1.158,0,0,0,.654-.654,4.177,4.177,0,0,0,.327-2.56A1.909,1.909,0,0,0,115.561,84a7.562,7.562,0,0,0-2.424-1.008q-.436-.109-.817-.218a1.025,1.025,0,0,1-.926-.218,1.365,1.365,0,0,1,.136-.463,4.644,4.644,0,0,0,.054-2.724.176.176,0,0,1,0-.136.024.024,0,0,1,.027-.027,5.781,5.781,0,0,0,3.623-2.56,4.239,4.239,0,0,0,2.778,1.2,4.932,4.932,0,0,0,4-2.07,3.158,3.158,0,0,0,.436-.9q.191-.572.327-1.117a3.011,3.011,0,0,0-.518-2.424,4.083,4.083,0,0,0-2.152-1.661,4.705,4.705,0,0,0,.572-2.315,5.019,5.019,0,0,0-.409-2.179,4.806,4.806,0,0,0-2.206-2.4,5.813,5.813,0,0,0-4.984-.354,7.914,7.914,0,0,0-2.206-2.315,5.021,5.021,0,0,0,6.346-.9,11.756,11.756,0,0,0,1.117-1.988,4.73,4.73,0,0,0,.354-1.907,4.675,4.675,0,0,0-1.552-3.432q-.3-.3-.545-.572a2.042,2.042,0,0,0-.981-.626,6.669,6.669,0,0,0-3.268-.354,3.931,3.931,0,0,0-.054-1.444,4.482,4.482,0,0,0-.3-.872,4.568,4.568,0,0,0,1.117-3.078v-.463a4.425,4.425,0,0,0,3.105.436,3.82,3.82,0,0,0,2.043.9,2.283,2.283,0,0,0,2.016-.463,2.765,2.765,0,0,0,.354-.49,2.376,2.376,0,0,0,0-2.451,4.331,4.331,0,0,0-.735-.981,5.307,5.307,0,0,1-.844-.872,4.593,4.593,0,0,0-.082-.49,5.867,5.867,0,0,0-1.362-2.724,3.861,3.861,0,0,0-1.389-.953,4.839,4.839,0,0,0-4.385.245,7.263,7.263,0,0,0-1.961-6.1,1.585,1.585,0,0,0,1.307.054,1.729,1.729,0,0,0,1.117-.926,2.636,2.636,0,0,0,.136-1.825,2.429,2.429,0,0,0-1.5-1.689,3.3,3.3,0,0,0-2.1-.218l.245-.545q.6.027,1.226.082a7.645,7.645,0,0,0,1.28-.272,5.525,5.525,0,0,0,2.805-1.77,5.663,5.663,0,0,0,.817-1.171,2.725,2.725,0,0,0,.354-1.144,3.29,3.29,0,0,0-.844-2.724,7.764,7.764,0,0,0-1.852-1.58,3.044,3.044,0,0,0-2.56-.381,10.522,10.522,0,0,0-3.459,1.743,10.808,10.808,0,0,0-6.918-1.716,2.049,2.049,0,0,0-1.852-1.634,2.576,2.576,0,0,0-2.206.626,3.8,3.8,0,0,0-.735-3.3,9.034,9.034,0,0,0-1.689-1.634A5.351,5.351,0,0,0,90.666,9.4a7.613,7.613,0,0,0-5.012,1.689,4.945,4.945,0,0,0-1.416-2.642,3.915,3.915,0,0,0-1.8-1.335,6.854,6.854,0,0,0-1.77-.681,4.237,4.237,0,0,0-3.132.654,3.39,3.39,0,0,0-.817.6,8.387,8.387,0,0,0-1.307,1.035,11.311,11.311,0,0,0-1.089,1.226l-1.035-.953a3.234,3.234,0,0,0,1.335-1.444A3.589,3.589,0,0,0,75,5.257a2.238,2.238,0,0,0-.6-1.226,5.426,5.426,0,0,0-5.093-1.525,7.088,7.088,0,0,0-2.125,1.008,3.329,3.329,0,0,0-1.444,2.315,2.552,2.552,0,0,0,.872,2.479,1.506,1.506,0,0,0-.409.109,4.477,4.477,0,0,0-.953.545,1.188,1.188,0,0,1-1.089.409,27.466,27.466,0,0,0-3.677-.953,13.026,13.026,0,0,0-4.249-.136,13.256,13.256,0,0,0-1.934.436,4.692,4.692,0,0,0-.49-1.389A4.58,4.58,0,0,0,55.53,6.292a2.507,2.507,0,0,0,.817-2.07,2,2,0,0,0-.463-1.253,3.7,3.7,0,0,0-4.031-1.362,1.063,1.063,0,0,0-.327-.844A2.211,2.211,0,0,0,49.865,0a1.9,1.9,0,0,0-.272.136,1.614,1.614,0,0,0-.518.3A.52.52,0,0,0,48.8.872,1.43,1.43,0,0,0,50.219,2.7a4.023,4.023,0,0,0-.354.545,3.146,3.146,0,0,0-.327.926,4.663,4.663,0,0,0-1.226-.054,14.575,14.575,0,0,0-4.249,1.035A8.152,8.152,0,0,0,41.8,6.455a8,8,0,0,0-2.152,3.432,15.574,15.574,0,0,1-.572,2.07q-.953-.136-1.825-.245a2.243,2.243,0,0,0-.763-.027q-3.3.518-4.3,2.942a4.3,4.3,0,0,0-.327,2.288,3.993,3.993,0,0,0-.981-1.089,4.734,4.734,0,0,0-2.016-.844,13.2,13.2,0,0,0-4.086.109A8.3,8.3,0,0,0,20.231,17.677Z" fill="#24110f"/>
                </g>
              </g>
            </g>
          </g>
          <g id="shade" transform="translate(0.13 29.634)">
            <g id="Group_68070" data-name="Group 68070" transform="translate(0 0)">
              <g id="Group_68069" data-name="Group 68069" transform="translate(0)">
                <g id="Group_68068" data-name="Group 68068">
                  <path id="Path_53894" data-name="Path 53894" d="M15.607,44.4a5.849,5.849,0,0,0-3,2.4,5.063,5.063,0,0,0-.626,3.459q.654,4.385,6.373,6.156a5.6,5.6,0,0,0-4.14,2.642,5.9,5.9,0,0,0-.654,4.467,6.108,6.108,0,0,0,2.506,3.922,7.321,7.321,0,0,0,5.475,1.2,6.319,6.319,0,0,0,1.634,1.879,2.735,2.735,0,0,0,1.852.844q.245.654.79,2.7a4.368,4.368,0,0,0,1.171,2.233,4.868,4.868,0,0,0,5.039.817,9.2,9.2,0,0,0,3.977-4.031q-2.533,3.16-5.747,1.607A5.05,5.05,0,0,1,28.027,72.4a10.943,10.943,0,0,1-.844-3.051q-2.016.872-3.023-.191a3.346,3.346,0,0,1-.6-3.051,6.262,6.262,0,0,1-4.222-.844,3.06,3.06,0,0,1-1.28-2.724,5.947,5.947,0,0,1,1.416-3.459,10.491,10.491,0,0,1,3.813-3.023Q17.9,53.9,16.043,52.132q-3.35-3.214-.436-7.735M5.911,32.9Q2.833,35.681.409,30.7a4.364,4.364,0,0,0-.054,3.568,3.455,3.455,0,0,0,2.4,1.77,5.09,5.09,0,0,0,3.377-.3,6.214,6.214,0,0,0,3-2.724,9.288,9.288,0,0,0,5.529.245q4.576-1.525,3.105-10.214-.953,5.311-2.479,6.864-2.233,2.233-6.755-.763a11.621,11.621,0,0,0-.79,1.307A11.588,11.588,0,0,1,5.911,32.9M17.95,16.887q-5.938.681-7.681-3.323a9.727,9.727,0,0,1,.136-7.381L8.771,7.9A5.665,5.665,0,0,0,7.6,12.366q.763,4.412,4.195,5.529a6.775,6.775,0,0,0,6.156-1.008M37.261,36.661a9.328,9.328,0,0,1-3.514-5.992q-.136-.027-.109.981a12.619,12.619,0,0,0,.245,2.424q.763,3.623,3.16,4.685,3.268,1.444,5.257.681a9.643,9.643,0,0,0,3.486-3.051q-5.175,2.615-8.525.272M27.782,2.342l-1.171.572a10.072,10.072,0,0,1-2.887.872Q19.257,4.358,17.051,0a4.363,4.363,0,0,0,.926,3.3,5.191,5.191,0,0,0,2.86,1.8q4.249,1.062,6.945-2.751m40.2,27.564q.409,3.187,2.724,3.977,2.342.844,4.549-1.607-3.323,1.144-4.984-.735a4.979,4.979,0,0,1-1.035-4.14q-5.393,3-7.027-.572a7.318,7.318,0,0,1-.572-2.778l.027-1.416q-4.63,3.214-7.654,2.56-2.724-.626-3.977-4.358.245,4.3,2.942,5.447,2.261.926,6.646-.218a4.382,4.382,0,0,0,2.533,3.84,6.334,6.334,0,0,0,5.829,0m-.027-12.12q3.84,1.471,6.019.981,2.179-.436,5.066-3.4-6.237,2.588-11.085-.272A19.05,19.05,0,0,1,64.5,12.284q-2.233-2.124-2.724-2.479,1.008,1.8,2.288,3.7,2.533,3.731,3.895,4.276M80.3,9.451a8.7,8.7,0,0,0-.545,4.058q.054,3.323,1.362,4.467,2.778,2.424,3.813,2.56,1.471.218,5.856-2.179Q81,19.039,80.3,9.451Z"/>
                </g>
              </g>
            </g>
          </g>
          <g id="light" transform="translate(36.41 16.225)">
            <g id="Group_68073" data-name="Group 68073" transform="translate(0 0)">
              <g id="Group_68072" data-name="Group 68072" transform="translate(0 0)">
                <g id="Group_68071" data-name="Group 68071">
                  <path id="Path_53895" data-name="Path 53895" d="M.681,53.474A7.013,7.013,0,0,1,1.77,55.217a3.121,3.121,0,0,1-1.035,2.7q2.751.272,2.424,2.588A4.6,4.6,0,0,1,.926,63.8a4.613,4.613,0,0,0,2.805-1.089A3.506,3.506,0,0,0,4.739,59.63a3.409,3.409,0,0,0-1.607-2.724q.218-.681-.763-1.988A3.444,3.444,0,0,0,.681,53.474m6.21-14.027A44.681,44.681,0,0,0,0,37.214Q10.377,41.435,10.786,48a5.362,5.362,0,0,0,.817-1.553,4.712,4.712,0,0,0,0-3.159q-.763-2.124-4.712-3.84M30.4,35.089Q33.229,34,34.319,36.206a6.168,6.168,0,0,1,.136,4.63,9.216,9.216,0,0,1,2.942.708,4.279,4.279,0,0,1,2.043,3.7q.9-2.179-.082-3.459a6.319,6.319,0,0,0-3.731-1.743q1.28-1.335.163-3.868a5.094,5.094,0,0,0-3.323-3.132A8.787,8.787,0,0,0,27.7,29.07q-3.7-1.307-8.253,1.062a16.809,16.809,0,0,1,7.3.3q3.977,1.2,3.65,4.658M73.4,67.42a6.307,6.307,0,0,1,2.288.272,7.035,7.035,0,0,1,2.451,1.062q2.342,1.879-2.506,3.813a6.967,6.967,0,0,0,3.3-.109q1.389-.708,1.28-3.214-.082-1.226-2.179-2.179a7.325,7.325,0,0,0-2.969-.79,9.144,9.144,0,0,0-.463-5.311q-1.307-3.949-4.576-4.821l.681.735a11.239,11.239,0,0,1,1.416,2.179A13.65,13.65,0,0,1,73.4,67.42m9.152-15.28a1.91,1.91,0,0,1-.517,1.743q3.731,2.887,2.043,5.311a7.334,7.334,0,0,1-1.607,1.553q-.953.681-.953.872,4.494-.463,4.9-3.868a4.239,4.239,0,0,0-.545-2.642,3.919,3.919,0,0,0-1.961-1.8q1.226-3.977-1.171-6.019-2.152-1.825-5.938-1.28a8.249,8.249,0,0,0-2.669-2.642,3.735,3.735,0,0,0-5.039.49l.763-.027a6.012,6.012,0,0,1,1.879.245,6.3,6.3,0,0,1,4.195,4.249q3.786-1.28,5.774,1.553a4.331,4.331,0,0,1,.844,2.261m-.3-14.245a4.317,4.317,0,0,0-2.179-2.914,6.755,6.755,0,0,0-3.895-.872,6.422,6.422,0,0,0-3.84,1.525,7.981,7.981,0,0,1,5.338.163q4.276,1.444,3.4,6.755a6.188,6.188,0,0,0,1.171-4.658M68.447,11.91a12.086,12.086,0,0,0,1.743,1.008q1.661.872,2.7,3.786a14.772,14.772,0,0,1,.463,6.891q4.086-2.506,6.482-1.362,2.424,1.117,2.805,2.751a4.964,4.964,0,0,0-2.37-4.658,4.678,4.678,0,0,0-4.766.109,11.067,11.067,0,0,0-.572-4.113q-1.553-3.514-6.482-4.412M70.381,1.833A10.014,10.014,0,0,0,65.968.253a9.086,9.086,0,0,0-6.183,1.253q7.572-.79,10.3,2.615,3-3.432,6.346-1.553a7.578,7.578,0,0,1,2.724,2.588,2.529,2.529,0,0,0-.082-1.743,5.122,5.122,0,0,0-1.307-2.288q-2.642-2.56-7.381.708M48.073,12.183q-.545-5.883-4.9-7.708a9.634,9.634,0,0,0-8.226.463,10.377,10.377,0,0,1,7.79.381q3.895,1.743,2.588,9.152,9.315-2.751,5.257,6.728,7.163.518,6.728,4.14a13.943,13.943,0,0,1-1.77,5.747q2.7-.49,3.432-4.794.681-4.3-5.366-6.591Q54.42,15.342,52,13.572A7.881,7.881,0,0,0,48.073,12.183Z" fill="#4f403f"/>
                </g>
              </g>
            </g>
          </g>
        </g>
        <g id="mouth" transform="translate(21.795 75.064) rotate(92.649)">
          <g id="Layer_1-4" data-name="Layer_1" transform="translate(0 0)">
            <g id="Group_68075" data-name="Group 68075" transform="translate(0 0)">
              <g id="Group_68074" data-name="Group 68074" transform="translate(0)">
                <path id="Path_53896" data-name="Path 53896" d="M13.537,0h-.054L13.21.245l-.218.109-.136.109-.3.191-.027.027-.054.027-.681.381-.817.354-.109.027-.545.191-.136.027-.136.054-.163.027-.136.054-.6.109-.163.054-1.444.191H7.381l-.191.027H7.027l-.082.027-1.553.027L5.23,2.233l-.763-.027-1.743-.3-.136-.054L2.1,1.716l-.109-.054H1.934l-.054-.027-.218-.082L1.553,1.5l-.109-.027-.191-.082-.082-.054L.9,1.226.844,1.171.79,1.144H.763L.082.735Q.054.708,0,.763V.817l.545.6L.6,1.444l.327.3.082.054a5.435,5.435,0,0,0,.817.518l.518.272.844.327.163.027L3.514,3l.163.027.163.054.327.054.163.054.817.109h.191l.163.027H6.973L7,3.3h.3l.327-.054h.191l.545-.082.163-.054h.082l.082-.027.518-.109.163-.054.163-.027.654-.218,1.144-.518.354-.245.136-.054.518-.409.082-.082.272-.218L13.1.708l.082-.136a.661.661,0,0,0,.163-.218l.136-.136.082-.136Q13.591.054,13.537,0Z" fill="#003"/>
              </g>
            </g>
          </g>
        </g>
        <g id="nose" transform="translate(35.101 78.597) rotate(92.649)">
          <g id="Layer_2-3" data-name="Layer_2" transform="translate(0.207 0.187)">
            <g id="Group_68078" data-name="Group 68078" transform="translate(0 0)">
              <g id="Group_68077" data-name="Group 68077">
                <g id="Group_68076" data-name="Group 68076">
                  <path id="Path_53897" data-name="Path 53897" d="M2.871.276a7.161,7.161,0,0,0-1.961.9,2.155,2.155,0,0,0-.9,1.879A2.047,2.047,0,0,0,1.345,4.688a5.6,5.6,0,0,0,2.179.327l.708-.027a4.8,4.8,0,0,0,1.988-.872A2.979,2.979,0,0,0,6.9,3.544,1.66,1.66,0,0,0,7.2,1.8,2.389,2.389,0,0,0,6.139.575,3.172,3.172,0,0,0,3.933.031,4.489,4.489,0,0,0,2.871.276Z" fill="#83523b"/>
                </g>
              </g>
            </g>
          </g>
          <g id="Layer_1-5" data-name="Layer_1" transform="translate(0 0)">
            <g id="Group_68080" data-name="Group 68080" transform="translate(0 0)">
              <g id="Group_68079" data-name="Group 68079" transform="translate(0)">
                <path id="Path_53898" data-name="Path 53898" d="M5.447.027H5.338L5.148,0h-.49l-.49.082a.048.048,0,0,0-.054.054L4.14.163l.191.054L4.766.3q.545.163.681.218L5.91.735,5.992.79,6.1.844l.082.082a1.025,1.025,0,0,1,.327.3l.082.109.082.082.3.681.054.272V2.56l.027.054-.027.109v.163L7,2.942v.082l-.027.054-.027.082-.054.109-.136.191a2.908,2.908,0,0,1-.9.626l-.6.218-.163.027-.054.027H5.012l-.054.027-.626.136H4.249l-.054.027L3.868,4.6H3.759L3.6,4.63H2.751L2.588,4.6H2.451l-.518-.109L1.825,4.44H1.77l-.054-.027L1.58,4.385l-.027-.027H1.525l-.163-.082-.109-.027-.082-.054L1.062,4.14.981,4.086.817,3.949.763,3.922.735,3.895.654,3.84.436,3.568V3.541L.409,3.514.381,3.432.327,3.377l-.082-.3V3.023L.218,2.969V2.887L.191,2.724.136,2.669.109,2.7l-.027.054-.054.218v.109L0,3.132V3.3l.027.082v.109l.027.054V3.65l.027.027v.054l.054.109.027.082.109.218.082.109H.381v.027L.6,4.521.708,4.6l.109.109.218.163.054.027.054.054.109.054H1.28l.272.163.735.272H2.37l.082.027.844.136,1.035-.027.082-.027h.082L5.2,5.42h.054l.027-.027h.027l.082-.027.163-.027.708-.272a4.255,4.255,0,0,0,.708-.354L7,4.658l.054-.027.082-.054L7.3,4.44a1.294,1.294,0,0,0,.272-.327A1.918,1.918,0,0,0,7.98,3.35V3.241l.054-.218v-.3l-.027-.191V2.451l-.054-.191V2.152L7.926,2.07,7.9,2.043V1.988l-.082-.163A2.907,2.907,0,0,0,7.49,1.2,1.7,1.7,0,0,0,7.054.681L6.4.272,6.292.218,6.156.191,6.019.136A1.466,1.466,0,0,0,5.556.054Z" fill="#68412f"/>
              </g>
            </g>
          </g>
        </g>
        <g id="ear" transform="translate(49.232 29.464) rotate(92.649)">
          <g id="Layer_1-6" data-name="Layer_1" transform="translate(0 0)">
            <g id="Group_68084" data-name="Group 68084" transform="translate(0 0)">
              <g id="Group_68082" data-name="Group 68082">
                <g id="Group_68081" data-name="Group 68081">
                  <path id="Path_53899" data-name="Path 53899" d="M9.89,3.636A7.074,7.074,0,0,0,6.215.251,4.731,4.731,0,0,0,2.273.682Q.08,1.877,0,6.325A10.443,10.443,0,0,1,1.456,3.072a3.545,3.545,0,0,1,2-1.593,5.317,5.317,0,0,1,3.314.232Q9.423,2.906,11.8,7.486A37.872,37.872,0,0,0,9.89,3.636Z" transform="translate(0.016 0)" fill="#9b7458"/>
                  <path id="Path_53900" data-name="Path 53900" d="M13.584,11.871a31.719,31.719,0,0,0-1.763-5.709Q9.439,1.581,6.784.387A5.317,5.317,0,0,0,3.469.154a3.545,3.545,0,0,0-2,1.593A10.443,10.443,0,0,0,.016,5,.426.426,0,0,0,0,5.166a22.562,22.562,0,0,0,1.738,8.8q.406,1,.857,1.859a13.888,13.888,0,0,0,2.275,3.253A6.176,6.176,0,0,0,7.894,21.1a5.41,5.41,0,0,0,3.493-.6,5.1,5.1,0,0,0,1.683-1.1q1.653-2.157.515-7.535M2.42,5.764a3.949,3.949,0,0,1,1-1.826,1.958,1.958,0,0,1,1.96-.7q2.831.664,4.75,10.024Q8.209,3.9,5.378,3.241a1.958,1.958,0,0,0-1.96.7A3.949,3.949,0,0,0,2.42,5.764Z" transform="translate(0 1.324)" fill="#83523b"/>
                </g>
              </g>
              <g id="Group_68083" data-name="Group 68083" transform="translate(2.344 3.935)">
                <path id="Path_53901" data-name="Path 53901" d="M3.095.033H2.931L2.82,0H2.466L2.144.066,1.307.5l-.3.332L.955.863l-.27.365L.447,1.66l-.074.1-.047.1-.2.531-.041.166-.069.5.005.066q-.049.066.033.066L.1,3.153.127,3.12l.044-.133L.22,2.921l.047-.1.145-.232.7-.83.153-.133h.027l0-.033h.027l.1-.066.025-.033.284-.2.213-.066.1-.066.215-.033a.732.732,0,0,1,.436,0H2.8l.057.033h.054l.03.033h.109l.057.033h.027l0,.033h.027l.057.033H3.25l.03.033h.054l.057.033.321.266.057.033.149.166.117.1A7.437,7.437,0,0,1,4.78,3.054l.187.3.23.5.095.166.3.664L7.483,9.958l.078.3.1.2.07.2.057.033.022-.066.011-.2L7.684,9.061l-.79-3.751-.1-.266-.008-.1L5.677,2.357l-.464-.7a.394.394,0,0,0-.122-.166l-.185-.266-.087-.066L4.7,1,4.463.8,4.4.73,4.055.465l-.343-.2L3.544.2,3.487.166H3.459L3.348.133,3.291.1H3.264L3.179.066H3.1Z" transform="translate(0 0)" fill="#68412f"/>
              </g>
            </g>
          </g>
        </g>
        <g id="eyes" transform="translate(39.24 62.401) rotate(92.649)">
          <g id="eyelid" transform="translate(0 0.608)">
            <g id="Group_68086" data-name="Group 68086" transform="translate(0 0)">
              <g id="Group_68085" data-name="Group 68085">
                <path id="Path_53902" data-name="Path 53902" d="M7.735.027,7.109.3,7,.327,6.891.381,6.047.654,5.883.681,5.72.735,5.066.844H4.957L4.875.872H4.521L4.358.9h-.3L4,.872,2.751.735H2.642L2.56.708,2.4.681,2.233.626,1.907.572l-.6-.163L1.171.354,1.035.327.327.109.272.082.054.027Q0-.027,0,.054L.027.109.082.191.163.245.218.3l1.171.735.163.054.136.082a6.723,6.723,0,0,0,.708.245l.354.109.218.027.3.082H3.35l.409.054h.817l.191-.027h.109l.109-.027h.082l1.28-.409.381-.218L6.837.926,6.973.872,7.027.817,7.082.79,7.626.354,7.9.082V0H7.817Z" fill="#03012e"/>
              </g>
            </g>
          </g>
          <g id="eyelid_copy" transform="translate(26.229 0)">
            <g id="Group_68088" data-name="Group 68088" transform="translate(0 0)">
              <g id="Group_68087" data-name="Group 68087" transform="translate(0)">
                <path id="Path_53903" data-name="Path 53903" d="M7.436.881,7.463.826,7.6.69,7.681.636,7.735.581,7.79.5,7.872.418V.336H7.79L7.708.363,7.6.418,7.545.472,7.463.5,7.191.636,7.082.663,6.728.826,6.591.853,6.237.99l-.054.027-.163.027L5.856,1.1l-.163.027H5.611l-.163.054H5.366q-.027,0-.708.082H4.276l-.191-.027H3.813l-.082-.027H3.541L3.35,1.18l-.082-.027H3.16l-.708-.136L2.179.935H2.1L1.8.826,1.634.8,1.553.772,1.5.744,1.2.636.381.227.327.173.245.145.163.064.082.009Q.054-.018,0,.036V.091L.054.173.109.281.218.39a1.82,1.82,0,0,0,.3.327L.6.826.844.99.953,1.1l.354.218.082.027.163.082a4.712,4.712,0,0,0,.708.3l.572.163.191.027.191.054L3.432,2h.054l.054.027H3.65l.082.027h.981L5.121,2,5.5,1.888h.109L6.156,1.7l.082-.054L6.4,1.562l.082-.027.054-.054.436-.245L7.3.99,7.381.908Z" fill="#03012e"/>
              </g>
            </g>
          </g>
        </g>
        <g id="brow_l" transform="translate(53.79 57.13) rotate(92.649)">
          <g id="Layer_1-7" data-name="Layer_1" transform="translate(0 0)">
            <g id="Group_68090" data-name="Group 68090" transform="translate(0 0)">
              <g id="Group_68089" data-name="Group 68089">
                <path id="Path_53904" data-name="Path 53904" d="M4.467.218,4.44.245H4.385L4.3.272,4.167.3,3.241.626l-.6.327L2.56.981l-.054.054-.163.082-.817.708-.054.082-.327.354L.6,3.132l-.3.763-.027.054-.027.082-.082.381v.136L.082,4.9,0,5.584V6.4l.027.136v.109l.054.327a.048.048,0,0,0,.054.054L.163,7l.082-.436L.3,6.428l.054-.272.381-1.2L.79,4.875l.054-.109.027-.109.654-1.226.163-.218.082-.082L1.8,3.078l.054-.054.082-.109.381-.381.218-.163.082-.109.354-.245.109-.054.054-.054.191-.082.109-.082.245-.109.082-.054.436-.191.272-.082.109-.054h.082l.027-.027h.027l.136-.054h.109V1.144h.027l.272-.082L7.245.735h.109L7.463.708h.409L8.062.681l1.2.027q.054.054.054-.027L9.288.626,9.152.545,8.988.49,8.879.436,8.743.409,8.307.245H8.2L7.926.163,7.49.082H7.381L7.245.054,6.482,0,4.766.163H4.739L4.712.191H4.6Z" fill="#03012e"/>
              </g>
            </g>
          </g>
        </g>
      </g>
      <g id="Layer_3-2" data-name="Layer_3" transform="translate(185.141 246.52)">
        <g id="Group_68094" data-name="Group 68094" transform="translate(0.414 0.917)">
          <g id="Group_68093" data-name="Group 68093" transform="translate(0)">
            <g id="Group_68092" data-name="Group 68092">
              <path id="Path_53905" data-name="Path 53905" d="M891.343,627.951l-3.228-4.31a10.307,10.307,0,0,0-5.029-1.547,13.8,13.8,0,0,0-5.029,1.285,17.2,17.2,0,0,0-3.237,2.054q-2.671,2-3.127,2.307a10.818,10.818,0,0,1-2.468,1.648,13.242,13.242,0,0,1-4.978.87,9.25,9.25,0,0,1-3.541-.718q-8.925-2.823-14.57-4.26-1.589-.465-2.459-.668a6.894,6.894,0,0,0-2.468-.3l.617-.161a2.114,2.114,0,0,0,.921-.566,10.217,10.217,0,0,0,3.49-8.206,9.244,9.244,0,0,0-1.487-4.724,31.371,31.371,0,0,0-3.127-4,25.284,25.284,0,0,0-7.75-6.009,15.862,15.862,0,0,0-9.44-1.893,14.168,14.168,0,0,0-6.879,3.33,53.3,53.3,0,0,0-5.493,5.443,27.326,27.326,0,0,0-5.95,10.978l-1.023,4.361q-.11.617-.313,2.214a7.4,7.4,0,0,1-.6,2.062l1.318-2.324q-.3.668-2.1,5.443l-.051.1a1.254,1.254,0,0,0-.2.87,6.979,6.979,0,0,0,.482,5.62,6.764,6.764,0,0,0,3.972,3.347q1.242-1.42,1.192-1.834a2.286,2.286,0,0,1,.245-.921q.287-.727.372-.617.608.769-.211,2.873-.82,1.953-.051,2.569,1.589,1.386,6.364,2.155.769.152,6.879.82.2.051,12.567.456,13.142.414,17.089.363l6.981-.1a67.376,67.376,0,0,1,8.671.152,7.339,7.339,0,0,0,1.285.1,3.463,3.463,0,0,1,1.183.718q1.741,1.386,6.3,1.234a10.946,10.946,0,0,0,3.136-.414,8.084,8.084,0,0,0,2.358-1.276,7.966,7.966,0,0,1,2.256-1.335q-.819.3,1.488.2a41.087,41.087,0,0,0,6.11-.668,3.7,3.7,0,0,0,2.62-1.437,2.267,2.267,0,0,0,0-1.9,12.2,12.2,0,0,1-.516-1.994,3.573,3.573,0,0,0,1.935-3.541A53.458,53.458,0,0,0,891.343,627.951Z" transform="translate(-802.766 -598.63)" fill="#83523b"/>
            </g>
          </g>
        </g>
        <g id="Group_68097" data-name="Group 68097" transform="translate(74.008 35.367)">
          <g id="Group_68096" data-name="Group 68096" transform="translate(0 0)">
            <g id="Group_68095" data-name="Group 68095">
              <path id="Path_53906" data-name="Path 53906" d="M1061.607,553.515q-2.309-3.335-3.592-4.926a58.9,58.9,0,0,1,5.594,10.674,2.08,2.08,0,0,1-.257,1.129,4.55,4.55,0,0,1-2.669,2l-.872.359a6.629,6.629,0,0,0,4.054-1.334h.051a2.954,2.954,0,0,0,.924-2.155Q1064.84,558.236,1061.607,553.515Z" transform="translate(-1058.015 -548.589)" fill="#68412f"/>
            </g>
          </g>
        </g>
        <g id="Group_68100" data-name="Group 68100" transform="translate(87.197 27.772)">
          <g id="Group_68099" data-name="Group 68099" transform="translate(0 0)">
            <g id="Group_68098" data-name="Group 68098">
              <path id="Path_53907" data-name="Path 53907" d="M1141.375,515.46a4.551,4.551,0,0,1-2.668,2q-.154.051.1.154.205.1.051.205a3.929,3.929,0,0,0,3.027-1.283,2.57,2.57,0,0,0,.924-2.207q.051-1.026-3.233-5.747-2.258-3.284-3.541-4.926a61.257,61.257,0,0,1,5.594,10.674A2.076,2.076,0,0,1,1141.375,515.46Z" transform="translate(-1136.037 -503.657)" fill="#68412f"/>
            </g>
          </g>
        </g>
        <g id="Group_68103" data-name="Group 68103" transform="translate(83.81 30.697)">
          <g id="Group_68102" data-name="Group 68102" transform="translate(0 0)">
            <g id="Group_68101" data-name="Group 68101">
              <path id="Path_53908" data-name="Path 53908" d="M1121.851,533.791a2.514,2.514,0,0,0,.923-2.155q.052-1.026-3.233-5.747-2.258-3.284-3.541-4.926a63.337,63.337,0,0,1,5.594,10.674,2.076,2.076,0,0,1-.257,1.129,4.549,4.549,0,0,1-2.669,2l-.872.359A6.627,6.627,0,0,0,1121.851,533.791Z" transform="translate(-1116.001 -520.962)" fill="#68412f"/>
            </g>
          </g>
        </g>
        <g id="Group_68106" data-name="Group 68106" transform="translate(79.243 33.16)">
          <g id="Group_68105" data-name="Group 68105" transform="translate(0 0)">
            <g id="Group_68104" data-name="Group 68104">
              <path id="Path_53909" data-name="Path 53909" d="M1095.755,546.208q.052-1.026-3.233-5.747-3.335-4.618-3.541-4.926a61.255,61.255,0,0,1,5.593,10.674,2.08,2.08,0,0,1-.257,1.129,4.548,4.548,0,0,1-2.669,2l-.872.411a6.628,6.628,0,0,0,4.054-1.334A2.57,2.57,0,0,0,1095.755,546.208Z" transform="translate(-1088.981 -535.534)" fill="#68412f"/>
            </g>
          </g>
        </g>
        <g id="Group_68109" data-name="Group 68109" transform="translate(0 27.105)">
          <g id="Group_68108" data-name="Group 68108" transform="translate(0)">
            <g id="Group_68107" data-name="Group 68107">
              <path id="Path_53910" data-name="Path 53910" d="M688.739,521.007q1.026-.308-6-.411-7.082-.154-6-.564-14.42-.1-21.552-.565l-13.291-1.18a22.847,22.847,0,0,1-7.8-1.591,9.347,9.347,0,0,1-5.08-5.8q-.513-1.437-.616-1.642-.564-.975-1.334-.821a1.874,1.874,0,0,0-1.334.821,2.077,2.077,0,0,0-.359,1.488l.051.257.975,1.694q.513.872-.462,1.129a3.326,3.326,0,0,1-1.642,0,3.889,3.889,0,0,1-2.361-1.488,7.544,7.544,0,0,1-.975-6.209l.051-.359.154-.513.051-.1,2.1-5.439-1.334,2.412a16.787,16.787,0,0,0-1.8,6.466,9.8,9.8,0,0,0,1.8,6.312,12.308,12.308,0,0,0,6.261,4.464,49.843,49.843,0,0,0,8.416,1.693q.411.051,8.519.872a166.107,166.107,0,0,0,18.884.462Q666.16,522.341,688.739,521.007Z" transform="translate(-620.17 -499.711)" fill="#68412f"/>
            </g>
          </g>
        </g>
        <g id="Group_68112" data-name="Group 68112" transform="translate(0.867 0.168)">
          <g id="Group_68111" data-name="Group 68111">
            <g id="Group_68110" data-name="Group 68110">
              <path id="Path_53911" data-name="Path 53911" d="M826.1,594.251l-.051-.051a10.5,10.5,0,0,1-2.772.82q-13.193,7.082-16.616,25.608a31.592,31.592,0,0,0-1.208,5.3,8.689,8.689,0,0,0,1.166-2.316q.548-1.508,1.3-3.279l1.5-3.457a44.39,44.39,0,0,1,3.389-8.519,31.943,31.943,0,0,1,6.009-7.64q2.054-2.054,7.387-6.414Z" transform="translate(-805.45 -594.2)" fill="#9b7458"/>
            </g>
          </g>
        </g>
        <g id="Group_68115" data-name="Group 68115" transform="translate(15.098 0)">
          <g id="Group_68114" data-name="Group 68114" transform="translate(0)">
            <g id="Group_68113" data-name="Group 68113">
              <path id="Path_53912" data-name="Path 53912" d="M738.793,359.891a8.246,8.246,0,0,0-.154-4.567,26.5,26.5,0,0,0-5.132-9.083,19.2,19.2,0,0,0-8.724-5.9,20.676,20.676,0,0,0-7.8-.924,11.218,11.218,0,0,0-7.492,3.284,14.174,14.174,0,0,1,9.288-2q6.466.359,12.264,5.542,7.44,6.671,6.055,15.292a5.862,5.862,0,0,1-.872,2.258A6.391,6.391,0,0,0,738.793,359.891Z" transform="translate(-709.492 -339.354)" fill="#68412f"/>
            </g>
          </g>
        </g>
        <g id="Group_68117" data-name="Group 68117" transform="translate(61.185 24.285)">
          <g id="Group_68116" data-name="Group 68116" transform="translate(0)">
            <path id="Path_53913" data-name="Path 53913" d="M1186.666,738.156l-.025-.009-.262-.144-.026-.008-.025-.017-.313-.135-.025-.008-.025-.017-1.555-.482-.473-.1-.051-.017h-.026l-.025-.008-1.319-.228h-.05l-.541-.059-.025-.009-.845-.034a1.435,1.435,0,0,0-.22,0l-.676.025-.051.008h-.059l-.448.059-.034.009h-.025l-.059.017-.406.085h-.034l-.009.008h-.017l-.195.05-.008.009h-.025l-.017.008-.034.008-.068.026h-.008l-.009.008h-.017l-.025.017-.068.017-.11.051-.034.009-.025.017-.051.025q-.05.017-.414.2l-.338.178-.042.034-5.688,3.769-.017.009-2.324,1.386-1.082.549-.084.051-.735.33-.042.025-1.453.566-1.361.38q-.524.118-.795.16l-.3.042h-.051l-.456.051q-.406.025-.82.025a.015.015,0,0,0-.017.017l.009.008a6.969,6.969,0,0,0,.819.161l.423.042h.051l.051.008.795.017.051-.008,1.58-.161.414-.076.051-.017.777-.186q.271-.067.812-.236l.794-.279,2.316-1.014,1.251-.668.025-.017.026-.008,5.789-3.643.042-.017.372-.211.025-.008.119-.059.017-.017.194-.084.034-.008.017-.008.009-.009h.008l.034-.008.017-.008.2-.059h.017l.144-.042h.017l.025-.008.178-.034.026-.008h.016l.372-.059h.042l.423-.042a1.428,1.428,0,0,1,.186-.009l1.453.025.051.009h.051l.887.1h.042l.254.042h.051l1.918.4.025.008.017.008.27.093.017.008h.026l.219.1.026.009.118.059,2.789,3.076,1.817,1.8c.011.011.02.011.025,0v-.025l-3.837-5.57a.39.39,0,0,0-.118-.118l-.017-.017Z" transform="translate(-1162.3 -736.875)" fill="#9b7458"/>
          </g>
        </g>
      </g>
    </g>
  </g>
</svg>
