<svg xmlns="http://www.w3.org/2000/svg" xmlns:xlink="http://www.w3.org/1999/xlink" width="375" height="270" viewBox="0 0 375 270">
  <defs>
    <clipPath id="clip-path">
      <rect id="Rectangle_8662" data-name="Rectangle 8662" width="375" height="270" transform="translate(16804.434 -12428)" fill="#fff" stroke="#707070" stroke-width="1" opacity="0.59"/>
    </clipPath>
    <clipPath id="clip-path-2">
      <path id="Path_75459" data-name="Path 75459" d="M0,0H257V209H92.767l-.191,34.522H34.586L23.393,209H0Z" transform="translate(45 125)" fill="#fff"/>
    </clipPath>
  </defs>
  <g id="Mask_Group_16610" data-name="Mask Group 16610" transform="translate(-16804.434 12428)" clip-path="url(#clip-path)">
    <g id="Mask_Group_16600" data-name="Mask Group 16600" transform="translate(16804.434 -12528)" clip-path="url(#clip-path-2)">
      <g id="male_teen_6" data-name="male teen 6" transform="translate(448.5 1700.41)">
        <g id="Group_103841" data-name="Group 103841" transform="matrix(-0.129, 0.992, -0.992, -0.129, -157.44, -1458.125)">
          <g id="Group_103830" data-name="Group 103830" transform="translate(0.027 0)">
            <g id="Group_103829" data-name="Group 103829" transform="translate(0 0)">
              <path id="Path_75366" data-name="Path 75366" d="M30.129,43.947,9.23,48.578Q.968,28.783.514,13.218H.541a10.8,10.8,0,0,1-.5-3.285,9.625,9.625,0,0,1,2.778-7A9.107,9.107,0,0,1,9.641.038a9.167,9.167,0,0,1,6.82,2.945,9.785,9.785,0,0,1,2.274,3.572A194.638,194.638,0,0,1,30.129,43.947Z" transform="translate(0)" fill="#e2ad98"/>
            </g>
          </g>
          <g id="Group_103833" data-name="Group 103833" transform="translate(5.339 35.351)">
            <g id="Group_103832" data-name="Group 103832" transform="translate(0 0)">
              <g id="Group_103831" data-name="Group 103831" transform="translate(0 0)">
                <path id="Path_75367" data-name="Path 75367" d="M3.535,12.72.011,2.858q13.641-4.545,23.28-1.7l2,8.874Z" fill="#c18770"/>
              </g>
            </g>
          </g>
          <g id="Group_103835" data-name="Group 103835" transform="translate(0.144 37.12)">
            <g id="Group_103834" data-name="Group 103834" transform="translate(0 0)">
              <path id="Path_75368" data-name="Path 75368" d="M20.92,57.184a16.17,16.17,0,0,1-4.528-8.913h-.027Q12.627,30.11.034,8.672,11.746-5.058,36.29,3.149A116.462,116.462,0,0,1,47.936,42.814a17.941,17.941,0,0,1,.229,2.835,15.988,15.988,0,0,1-4.639,11.626,15.058,15.058,0,0,1-11.284,4.781A15.3,15.3,0,0,1,20.92,57.184Z" transform="translate(0 0)" fill="#7a2230"/>
            </g>
          </g>
          <g id="Group_103838" data-name="Group 103838" transform="translate(0.879 37.106)">
            <g id="Group_103837" data-name="Group 103837" transform="translate(0 0)">
              <g id="Group_103836" data-name="Group 103836" transform="translate(0 0)">
                <path id="Path_75369" data-name="Path 75369" d="M35.446,3.247q7.927,15.98,10.106,28.492t1.461,18.637Q42.384,15.536,32.571,6.49,22.786-2.584.031,7.932,11.5-4.917,35.446,3.247Z" fill="#4b0f18"/>
              </g>
            </g>
          </g>
          <g id="Group_103840" data-name="Group 103840" transform="translate(29.04 79.325)">
            <g id="Group_103839" data-name="Group 103839" transform="translate(0 0)">
              <path id="Path_75370" data-name="Path 75370" d="M3.285,4.222l0-.842.817,0m-.817,0,0-.842m3.272.855L3.268.013.013,3.367l3.281,3.38ZM2.464,3.377l.817,0" transform="translate(0 0)" fill="none" stroke="rgba(0,0,0,0)" stroke-linecap="round" stroke-linejoin="round" stroke-width="0.083"/>
            </g>
          </g>
        </g>
        <g id="Group_103850" data-name="Group 103850" transform="translate(-183.088 -1523.772) rotate(7.349)">
          <g id="Group_103843" data-name="Group 103843" transform="matrix(0.978, -0.208, 0.208, 0.978, -0.033, 8.322)">
            <g id="Group_103842" data-name="Group 103842" transform="translate(0 0)">
              <path id="Path_75371" data-name="Path 75371" d="M22.285,63.084a38.733,38.733,0,0,1-3.151,8L.176,65.943Q.143,63.874.194,61.8A374.776,374.776,0,0,1,3.951,16.073,126.428,126.428,0,0,0,5.258.067L18.7.046a128.665,128.665,0,0,0,.839,20.885q1.234,9.119,2.725,23.122T22.285,63.084Z" transform="translate(0)" fill="#e2ad98"/>
            </g>
          </g>
          <g id="Group_103845" data-name="Group 103845" transform="translate(5.081 -0.02)">
            <g id="Group_103844" data-name="Group 103844" transform="translate(0 0)">
              <path id="Path_75372" data-name="Path 75372" d="M13.45,6.488a6.258,6.258,0,0,1-1.994,4.63,6.641,6.641,0,0,1-4.77,1.936,6.54,6.54,0,0,1-4.755-1.9A6.159,6.159,0,0,1-.026,6.54,6.258,6.258,0,0,1,1.968,1.91,6.641,6.641,0,0,1,6.738-.026a6.54,6.54,0,0,1,4.755,1.9A6.159,6.159,0,0,1,13.45,6.488Z" transform="translate(0)" fill="#e2ad98"/>
            </g>
          </g>
          <g id="Group_103847" data-name="Group 103847" transform="translate(6.047 12.63)">
            <g id="Group_103846" data-name="Group 103846" transform="translate(0 0)">
              <path id="Path_75373" data-name="Path 75373" d="M6.74,53.6l.327,2.4q.056.054-.028.055-.056.055-.056-.027L4.125,40.836,2.408,28.151.022.054Q-.034,0,.051,0L.107.027,6.658,53Q6.713,53.409,6.74,53.6Z" transform="translate(0 0)" fill="#c18770"/>
            </g>
          </g>
          <g id="Group_103849" data-name="Group 103849" transform="translate(20.354 68.379)">
            <g id="Group_103848" data-name="Group 103848" transform="translate(0 0)">
              <path id="Path_75374" data-name="Path 75374" d="M3.351,4.072l0-.817.842,0m-.842,0,0-.817m3.364.8L3.367-.013-.013,3.268,3.341,6.523Zm-4.209.016.842,0" transform="translate(0 0)" fill="none" stroke="rgba(0,0,0,0)" stroke-linecap="round" stroke-linejoin="round" stroke-width="0.083"/>
            </g>
          </g>
        </g>
        <g id="Group_103855" data-name="Group 103855" transform="matrix(0.305, -0.952, 0.952, 0.305, -203.275, -1511.728)">
          <g id="Group_103852" data-name="Group 103852" transform="translate(0 0)">
            <g id="Group_103851" data-name="Group 103851">
              <path id="Path_75375" data-name="Path 75375" d="M20.835.86q.3.227.522.4a6.3,6.3,0,0,0,.824.623q5.286,1.979,4.68,7.628-.026.168-.051.363l-2.156,6.222a38.783,38.783,0,0,0,.891-4.19,16.477,16.477,0,0,0,.513-3.718q.116-2.35-.874-3.2a9.229,9.229,0,0,1-1.267-1.271L23.49,4.8l-.219-.114a3.246,3.246,0,0,0-.507-1.74q-.387-.535-.773-1.015-.055-.056-.44-.424-.275-.254-.715-.65m-5.921.254L16.461.149q.193.254.386.479A3.726,3.726,0,0,1,17.371,4.3V4.272a1.542,1.542,0,0,1-.551-.621,4.6,4.6,0,0,0-1.906-2.536m-7.773.713L9.557.394a4.119,4.119,0,0,1-.01,5.038q-.06-.56-.174-1.121A2.821,2.821,0,0,0,7.141,1.828M2.232,17.85H2.15a16.062,16.062,0,0,0-1.365-6.17L1.371,10,.079,8.957q2.516.5,2.7-3.754,1.858.241-.006,5.458a7.763,7.763,0,0,1-.334,2.32A18.852,18.852,0,0,0,2.232,17.85Z" transform="translate(2.218 0.387)" fill="#c18770"/>
              <path id="Path_75376" data-name="Path 75376" d="M4.45,18.237a18.852,18.852,0,0,1,.2-4.868,7.763,7.763,0,0,0,.334-2.32q1.865-5.217.006-5.458Q4.812,9.843,2.3,9.344l1.292,1.047L3,12.066a16.062,16.062,0,0,1,1.365,6.17Q.917,16.917.62,14.227q-.269-2.689-.5-3.951A5.57,5.57,0,0,1,.912,7.065a4.517,4.517,0,0,1,.242-.39A7.3,7.3,0,0,1,3.372,4.428q.135-.167.27-.305A5.5,5.5,0,0,1,8.865,2.071a4.921,4.921,0,0,1,.493.144A2.821,2.821,0,0,1,11.591,4.7q.114.561.174,1.121a4.119,4.119,0,0,0,.01-5.038L13.383.572a4.354,4.354,0,0,1,3.748.93,4.6,4.6,0,0,1,1.906,2.536,1.542,1.542,0,0,0,.551.621v.028a3.726,3.726,0,0,0-.524-3.671Q18.872.79,18.679.536a4.2,4.2,0,0,1,4.9,1.108q-.22-.17-.522-.4.44.4.715.65.385.367.44.424.386.479.773,1.015a3.246,3.246,0,0,1,.507,1.74l.219.114L26.135,4.1A9.229,9.229,0,0,0,27.4,5.373q.99.849.874,3.2a16.477,16.477,0,0,1-.513,3.718,38.783,38.783,0,0,1-.891,4.19l2.156-6.222a3.709,3.709,0,0,1,2.417,1.673,1.927,1.927,0,0,1,.3.395,1.545,1.545,0,0,1,.118,1.037l-2.74,8.148Q22.194,33.9,15.56,33.815,6.229,31.156,4.719,20.9A24.094,24.094,0,0,1,4.45,18.237Z" fill="#e2ad98"/>
            </g>
          </g>
          <g id="Group_103854" data-name="Group 103854" transform="translate(12.988 23.828)">
            <g id="Group_103853" data-name="Group 103853" transform="translate(0 0)">
              <path id="Path_75377" data-name="Path 75377" d="M3.313,4.228l-.007-.84.819.007m-.819-.007L3.3,2.549m3.283.869L3.276.03.03,3.359,3.335,6.748ZM2.487,3.381l.819.007" transform="translate(0 0)" fill="none" stroke="rgba(0,0,0,0)" stroke-linecap="round" stroke-linejoin="round" stroke-width="0.083"/>
            </g>
          </g>
        </g>
        <g id="Group_103865" data-name="Group 103865" transform="translate(-297.24 -1415.717) rotate(5.091)">
          <g id="Group_103857" data-name="Group 103857" transform="translate(-0.095 34.201)">
            <g id="Group_103856" data-name="Group 103856" transform="translate(0 0)">
              <path id="Path_75378" data-name="Path 75378" d="M85.616,57.716A340.757,340.757,0,0,0,81.958-.22L8.973,3.026A377.089,377.089,0,0,1-.162,58.6Q40.126,73.514,85.616,57.716Z" fill="#ede6de"/>
            </g>
          </g>
          <g id="Group_103859" data-name="Group 103859" transform="translate(8.745 2.162)">
            <g id="Group_103858" data-name="Group 103858" transform="translate(0 0)">
              <path id="Path_75379" data-name="Path 75379" d="M-.1,35.8a33.8,33.8,0,0,0,10.73,25.291A35.923,35.923,0,0,0,36.7,71.495,36.31,36.31,0,0,0,62.829,60.948,34.175,34.175,0,0,0,73.7,35.6a33.8,33.8,0,0,0-10.73-25.291A35.923,35.923,0,0,0,36.9-.1,36.31,36.31,0,0,0,10.771,10.448,34.175,34.175,0,0,0-.1,35.8Z" transform="translate(0)" fill="#ede6de"/>
            </g>
          </g>
          <g id="Group_103862" data-name="Group 103862" transform="translate(0.056 0)">
            <g id="Group_103861" data-name="Group 103861" transform="translate(0 0)">
              <g id="Group_103860" data-name="Group 103860">
                <path id="Path_75380" data-name="Path 75380" d="M44.125,9.358q.87-.03,1.768-.032.9.107,1.8.24a4.984,4.984,0,0,1,.533-.029,37.527,37.527,0,0,1-.485-7.378A8.794,8.794,0,0,1,47.881.934a9.765,9.765,0,0,1,.227-1.063L47.6,1.425A39.123,39.123,0,0,0,24.85,6.686L17.5,14.113A58.874,58.874,0,0,0,11.018,24.94,49.363,49.363,0,0,0,8.771,35.484,432.606,432.606,0,0,1-.257,92.991a48.619,48.619,0,0,0,7.516,2.349q4.618,1.1,7.264,1.859a39.616,39.616,0,0,0,6.593,1.235q3.949.487,8.164,1.231a42.467,42.467,0,0,0,8.531.685q4.351-.089,6.175-.153t7.467-.428a74.645,74.645,0,0,0,10.3-1.307q4.534-.775,7.779-1.6,3.277-.826,4.045-1.046.761-.193,1.517-.413.759-.247,1.517-.467-.59.11-1.151.248-4.606.884-9.379,1.414-3.4.39-6.851.726-6.289.534-12.548.442a68.936,68.936,0,0,1-7.773-.578,64.9,64.9,0,0,1-10.94-2.394A24.673,24.673,0,0,1,20.323,90.7a14.179,14.179,0,0,1-5.031-7.638,37.146,37.146,0,0,1-1.078-6.178,89.867,89.867,0,0,1-.334-11.218q.152-4.221.444-8.5.176-2.914.493-5.829.377-3.269.667-7.79a99.07,99.07,0,0,1,1.234-9.888,32.04,32.04,0,0,1,3.536-10.03A22.251,22.251,0,0,1,27.49,15.91a46.863,46.863,0,0,1,6.691-3.776A31.232,31.232,0,0,1,44.125,9.358Z" fill="#dad0c5"/>
              </g>
            </g>
          </g>
          <g id="Group_103864" data-name="Group 103864" transform="translate(39.252 96.942)">
            <g id="Group_103863" data-name="Group 103863" transform="translate(0 0)">
              <path id="Path_75381" data-name="Path 75381" d="M3.361,2.442l0,.817.842,0m-.842,0,0,.817m3.37-.826L3.35,6.526-.009,3.268,3.368-.009Zm-4.21.011.842,0" transform="translate(0)" fill="none" stroke="rgba(0,0,0,0)" stroke-linecap="round" stroke-linejoin="round" stroke-width="0.083"/>
            </g>
          </g>
        </g>
        <g id="Group_103890" data-name="Group 103890" transform="translate(-316.559 -1454.268) rotate(-5.564)">
          <g id="Group_103867" data-name="Group 103867" transform="translate(31.856 0.093)">
            <g id="Group_103866" data-name="Group 103866" transform="translate(0 0)">
              <path id="Path_75382" data-name="Path 75382" d="M34.02,19.653l2.74-12.9a32.22,32.22,0,0,0-9.165-5.119A29.758,29.758,0,0,0,18.356.056,31.5,31.5,0,0,0,.661,5.178l-.6,14.376Z" fill="#e2ad98"/>
            </g>
          </g>
          <g id="Group_103869" data-name="Group 103869" transform="translate(8.851 3.214)">
            <g id="Group_103868" data-name="Group 103868" transform="translate(0 0)">
              <path id="Path_75383" data-name="Path 75383" d="M78.652,21.77a18.66,18.66,0,0,0-3-9.54Q72.928,8.065,66.366,5.5a58.305,58.305,0,0,1-8.994-4.111q-2.272,5.9-9.737,10.1Q40.2,15.721,34.581,10.15q-5.6-5.544-7.009-6.719A11.769,11.769,0,0,1,24.951.073a47.556,47.556,0,0,0-5.889,1.562q-4.934,1.491-9.87,3.048A59.176,59.176,0,0,0,.026,8.5L7.661,83.459q2.907-3.858,6.1-7.471,2.853-3.232,5.987-6.273l1.175-1.14L22.1,67.489q2.267-2.008,4.7-3.826a47.271,47.271,0,0,1,9.386-5.337,30.468,30.468,0,0,1,9.227-2.26,29.133,29.133,0,0,1,9.124.816A35.172,35.172,0,0,1,63.5,60.721a41.9,41.9,0,0,1,5.6,3.992,59.438,59.438,0,0,1,4.954,4.644,73.141,73.141,0,0,1,6.93,8.326Z" fill="#ede6de"/>
            </g>
          </g>
          <g id="Group_103871" data-name="Group 103871" transform="translate(0.31 9.697)">
            <g id="Group_103870" data-name="Group 103870" transform="translate(0 0)">
              <path id="Path_75384" data-name="Path 75384" d="M33,16.081A15.266,15.266,0,0,0,28.137,4.766,16.216,16.216,0,0,0,16.475.048,16.027,16.027,0,0,0,4.842,4.7,15.082,15.082,0,0,0,.048,15.985,15.266,15.266,0,0,0,4.91,27.3a16.216,16.216,0,0,0,11.662,4.718,16.027,16.027,0,0,0,11.634-4.65A15.082,15.082,0,0,0,33,16.081Z" transform="translate(0 0)" fill="#ede6de"/>
            </g>
          </g>
          <g id="Group_103874" data-name="Group 103874" transform="translate(11.708 38.677)">
            <g id="Group_103873" data-name="Group 103873" transform="translate(0 0)">
              <g id="Group_103872" data-name="Group 103872" transform="translate(0)">
                <path id="Path_75385" data-name="Path 75385" d="M14.651.043Q.035,2.315.007,2.287l4.742,45.98,9.816-11.735Z" fill="#dad0c5"/>
              </g>
            </g>
          </g>
          <g id="Group_103879" data-name="Group 103879" transform="translate(0.011 3.596)">
            <g id="Group_103876" data-name="Group 103876" transform="translate(0 0)">
              <g id="Group_103875" data-name="Group 103875">
                <path id="Path_75386" data-name="Path 75386" d="M33.748,22.428a76.226,76.226,0,0,1,5.17-16.6L32.333.095A146.988,146.988,0,0,0,11.247,6.813Q.577,11,.069,23.038,1.591,32.19,8.7,36.052l.534.274q.358.194.7.356.077.032.14.055l.478.192a15.644,15.644,0,0,0,4.634,1.1q.834.084,1.684.087A16.027,16.027,0,0,0,28.5,33.469a15.059,15.059,0,0,0,1.175-1.276Q32.626,29.093,33.748,22.428Z" fill="#7a2230"/>
              </g>
            </g>
            <g id="Group_103878" data-name="Group 103878" transform="translate(64.501 1.278)">
              <g id="Group_103877" data-name="Group 103877" transform="translate(0 0)">
                <path id="Path_75387" data-name="Path 75387" d="M11.313,10.054q5.383,4.152,9.1,12.689,1.735,3.948,3.026,7.5a71.2,71.2,0,0,1-.138-8.605,21.24,21.24,0,0,0-.495-5.883q-.238-2.719-3.33-5.919a21.176,21.176,0,0,0-7.061-5.249A58.19,58.19,0,0,1,2.638.008L.012,4.139A34.248,34.248,0,0,1,11.313,10.054Z" transform="translate(0 0)" fill="#7a2230"/>
              </g>
            </g>
          </g>
          <g id="Group_103881" data-name="Group 103881" transform="translate(48.681 4.447)">
            <g id="Group_103880" data-name="Group 103880" transform="translate(0 0)">
              <path id="Path_75388" data-name="Path 75388" d="M11.015,4.117l-.168.081-.532.325L7.876,5.687,4.258,6.766l-.168.027-.168.054L.079,7.434H.05l-.028.054.028.027.225.055,1.516.113.14.028,1.936-.049.365-.053h.2L6,7.343l1.655-.458a13.277,13.277,0,0,0,1.654-.621l.813-.406,2.493-1.627L14.8,2.086l.95-1.3L15.86.646l.2-.353.112-.163Q16.195.1,16.138.047h-.056l-.14.163L14.767,1.3l-.112.081-.336.3-.112.081-.224.217Z" fill="#c18770"/>
            </g>
          </g>
          <g id="Group_103883" data-name="Group 103883" transform="translate(39.949 12.645)">
            <g id="Group_103882" data-name="Group 103882" transform="translate(0 0)">
              <path id="Path_75389" data-name="Path 75389" d="M17.94,1.768l-.617.243-.224.054a19.256,19.256,0,0,1-1.879.566q-.841.215-.982.242l-1.515.3h-.14l-.112.027-2.385.156-.14.027-.112-.028-.786,0L7.5,3.208,4.892,2.656,2.054,1.64l-1.04-.493L.789,1.064.62.955.086.708Q0,.626,0,.735V.79L1.719,2.238l.141.082.619.438,2.5,1.26h.056L6.16,4.4l.14.028.112.055.281.055a12.114,12.114,0,0,0,2.218.388,14.859,14.859,0,0,0,2.358.034l.87-.079,2.5-.51.28-.081.112-.054.14-.027.533-.189a18.8,18.8,0,0,0,1.906-.784l1.6-.867a13.744,13.744,0,0,0,1.289-.84L22.229.147V.065h-.084l-1.626.7L20.435.8l-.617.271-.168.054-.168.081-1.318.514Z" transform="translate(0 0)" fill="#dad0c5"/>
            </g>
          </g>
          <g id="Group_103885" data-name="Group 103885" transform="translate(30.767 2.052)">
            <g id="Group_103884" data-name="Group 103884" transform="translate(0 0)">
              <path id="Path_75390" data-name="Path 75390" d="M23.646,13.795a20.526,20.526,0,0,0,8.857-4,17.381,17.381,0,0,0,2.882-2.96A9.254,9.254,0,0,0,37,3.377Q36.773,1.988,35.65,1.9a2.344,2.344,0,0,0-2.129,1.274,18.867,18.867,0,0,1-3.553,3.639,11.678,11.678,0,0,1-3.727,1.95,26.052,26.052,0,0,1-4.207.914,16.875,16.875,0,0,1-9.686-1.145,16.167,16.167,0,0,1-7.2-5.958A5.531,5.531,0,0,0,3.9.748,2.616,2.616,0,0,0,1.993.007Q.87,0,0,1.553A26.8,26.8,0,0,0,4.46,8.592a15.525,15.525,0,0,0,9.39,5.256A24.378,24.378,0,0,0,23.646,13.795Z" transform="translate(0 0)" fill="#7a2230"/>
            </g>
          </g>
          <g id="Group_103887" data-name="Group 103887" transform="translate(30.862 3.719)">
            <g id="Group_103886" data-name="Group 103886" transform="translate(0 0)">
              <path id="Path_75391" data-name="Path 75391" d="M20.746,12.609q1.066-.106,2.553-.347l2.973-.754,1.682-.7.336-.19q.084,0,.028-.054,0-.082-.056-.027l-.112.027-.449.162-.224.054-.14.054-.449.108q-.336.108-1.6.377l-5.949.473-3.256-.2-2.612-.5-1.461-.44A21.271,21.271,0,0,1,9.229,9.444L7.963,8.7q-.7-.465-1.181-.848l-.169-.082L6.5,7.666,6.22,7.447,3.6,4.934.107.049q0-.082-.056-.027-.084,0-.028.054L.588,1.385q.48.982.762,1.445L2.478,4.658A20.736,20.736,0,0,0,4.056,6.651l.985,1.01a12.6,12.6,0,0,0,1.1.956,13.789,13.789,0,0,0,1.238.929l1.322.821,2.951,1.316a26.48,26.48,0,0,0,3.146.772l.758.111,3.789.147Z" fill="#4b0f18"/>
            </g>
          </g>
          <g id="Group_103889" data-name="Group 103889" transform="translate(49.899 82.577)">
            <g id="Group_103888" data-name="Group 103888" transform="translate(0 0)">
              <path id="Path_75392" data-name="Path 75392" d="M3.375,2.461l0,.817.842,0m-.842,0,0,.817m3.366-.807L3.388,6.545.01,3.268,3.368.01Zm-4.21-.012.842,0" transform="translate(0 0)" fill="none" stroke="rgba(0,0,0,0)" stroke-linecap="round" stroke-linejoin="round" stroke-width="0.083"/>
            </g>
          </g>
        </g>
        <g id="Group_103903" data-name="Group 103903" transform="translate(-303.052 -1466.746) rotate(55.09)">
          <g id="Group_103892" data-name="Group 103892" transform="translate(-0.692 50.03)">
            <g id="Group_103891" data-name="Group 103891" transform="translate(0 0)">
              <path id="Path_75393" data-name="Path 75393" d="M30.184,4.23,9.13-.133Q4.359,20.306-.035,34.987h.027A10.618,10.618,0,0,0-.55,38.245a9.245,9.245,0,0,0,2.733,6.907,9.089,9.089,0,0,0,6.861,2.79,9.544,9.544,0,0,0,6.917-2.991,9.949,9.949,0,0,0,2.333-3.563A193.566,193.566,0,0,0,30.184,4.23Z" transform="translate(0)" fill="#e2ad98"/>
            </g>
          </g>
          <g id="Group_103895" data-name="Group 103895" transform="translate(6.005 50.849)">
            <g id="Group_103894" data-name="Group 103894" transform="translate(0 0)">
              <g id="Group_103893" data-name="Group 103893" transform="translate(0 0)">
                <path id="Path_75394" data-name="Path 75394" d="M2.53-.037-.141,9.839q12.249,3.877,22.01.959l2.106-8.812Z" fill="#c18770"/>
              </g>
            </g>
          </g>
          <g id="Group_103897" data-name="Group 103897" transform="translate(0 0)">
            <g id="Group_103896" data-name="Group 103896" transform="translate(0 0)">
              <path id="Path_75395" data-name="Path 75395" d="M20.832,4.477a16.312,16.312,0,0,0-4.664,8.877H16.14q-3.961,18.03-16.9,39.4,11.684,13.475,36.55,5.082A115.729,115.729,0,0,0,47.962,18.422a17.537,17.537,0,0,0,.26-2.81A15.358,15.358,0,0,0,43.658,4.145,15.029,15.029,0,0,0,32.313-.469,15.932,15.932,0,0,0,20.832,4.477Z" fill="#7a2230"/>
            </g>
          </g>
          <g id="Group_103900" data-name="Group 103900" transform="translate(0.575 11.635)">
            <g id="Group_103899" data-name="Group 103899" transform="translate(0 0)">
              <g id="Group_103898" data-name="Group 103898">
                <path id="Path_75396" data-name="Path 75396" d="M35.108,46.119q8.169-15.914,10.5-28.33T47.274-.687Q42.241,33.872,32.239,42.938,22.266,52.03-.6,41.859,10.846,54.463,35.108,46.119Z" fill="#4b0f18"/>
              </g>
            </g>
          </g>
          <g id="Group_103902" data-name="Group 103902" transform="translate(28.827 12.559)">
            <g id="Group_103901" data-name="Group 103901" transform="translate(0 0)">
              <path id="Path_75397" data-name="Path 75397" d="M3.264,2.454l-.012.834.825-.012m-.825.012-.012.834m3.312-.882L3.2,6.623-.048,3.335,3.3-.048ZM2.427,3.3l.825-.012" fill="none" stroke="rgba(0,0,0,0)" stroke-linecap="round" stroke-linejoin="round" stroke-width="0.083"/>
            </g>
          </g>
        </g>
        <g id="Group_103912" data-name="Group 103912" transform="translate(-394.059 -1402.63) rotate(-28.136)">
          <g id="Group_103905" data-name="Group 103905" transform="matrix(0.978, 0.208, -0.208, 0.978, 15.124, 0.192)">
            <g id="Group_103904" data-name="Group 103904" transform="translate(0 0)">
              <path id="Path_75398" data-name="Path 75398" d="M22.146,8.2A39.789,39.789,0,0,0,18.915.153L.052,5.1Q.041,7.177.114,9.251A379.312,379.312,0,0,0,4.361,55.126,127.955,127.955,0,0,1,5.839,71.182l13.416.163a129.209,129.209,0,0,1,.61-20.924Q21,41.3,22.333,27.276T22.146,8.2Z" fill="#e2ad98"/>
            </g>
          </g>
          <g id="Group_103907" data-name="Group 103907" transform="translate(5.891 65.229)">
            <g id="Group_103906" data-name="Group 103906" transform="translate(0 0)">
              <path id="Path_75399" data-name="Path 75399" d="M13.477,6.753a6.454,6.454,0,0,0-2.024-4.677A6.675,6.675,0,0,0,6.7.085a6.344,6.344,0,0,0-4.708,1.87,6.127,6.127,0,0,0-1.9,4.627A6.454,6.454,0,0,0,2.109,11.26a6.675,6.675,0,0,0,4.757,1.99,6.344,6.344,0,0,0,4.708-1.87A6.127,6.127,0,0,0,13.477,6.753Z" fill="#e2ad98"/>
            </g>
          </g>
          <g id="Group_103909" data-name="Group 103909" transform="translate(6.177 9.209)">
            <g id="Group_103908" data-name="Group 103908" transform="translate(0 0)">
              <path id="Path_75400" data-name="Path 75400" d="M6.942,2.577l.3-2.408Q7.3.115,7.217.114,7.16.058,7.161.14L4.459,15.4,2.867,28.151.751,56.408q-.055.054.029.055l.055-.027L6.866,3.179Q6.916,2.768,6.942,2.577Z" fill="#c18770"/>
            </g>
          </g>
          <g id="Group_103911" data-name="Group 103911" transform="translate(20.535 3.11)">
            <g id="Group_103910" data-name="Group 103910" transform="translate(0 0)">
              <path id="Path_75401" data-name="Path 75401" d="M3.378,2.51l.011.822.837.011m-.837-.011.011.822m3.335-.78-3.3,3.247L.042,3.289,3.346.042ZM2.552,3.321l.837.011" fill="none" stroke="rgba(0,0,0,0)" stroke-linecap="round" stroke-linejoin="round" stroke-width="0.083"/>
            </g>
          </g>
        </g>
        <g id="Group_103917" data-name="Group 103917" transform="translate(-347.299 -1327.663) rotate(-116.889)">
          <g id="Group_103914" data-name="Group 103914" transform="translate(0 0)">
            <g id="Group_103913" data-name="Group 103913" transform="translate(0 0)">
              <path id="Path_75402" data-name="Path 75402" d="M3.236,17.852l-.024-.024H3.188l.048.024m11.59-8.907-.042,3.4Q5.431,14.305-.149,12.136q2.389,4.228,14.6,1.712.372,3.121,1.331,3.774a36.97,36.97,0,0,1-12.329.253Q14.083,20.119,17,18.837q.48.24,2.3-.447.85-.331,1.529-.536a8.23,8.23,0,0,1-3.5-.547q-.986-.381-1.476-3.772.014-1.132.081-2.635A11.457,11.457,0,0,0,15.4,7.289,15.294,15.294,0,0,0,10.249-.128a25.51,25.51,0,0,1,2.108,3.493l-3.239.041a10.567,10.567,0,0,1,5.193,4.168Q14.545,8.186,14.826,8.945Z" transform="translate(0.294 11.421)" fill="#c18770"/>
              <path id="Path_75403" data-name="Path 75403" d="M16.077,29.042q-.959-.653-1.331-3.774Q2.534,27.784.145,23.556-.085,24.617-.316,25.7a5.124,5.124,0,0,0,3.8,3.546h.024l.024.024A28.94,28.94,0,0,0,12.8,32.061a11.041,11.041,0,0,0,8.324-2.787q-.679.205-1.529.536-1.821.687-2.3.447-2.917,1.282-13.547-.962a36.969,36.969,0,0,0,12.329-.253m6.1-20.6q1.041-4.074-1.033-6.362-2.027-2.19-6.5-2.257Q5.709-.387.145,23.556q5.58,2.17,14.934.207l.042-3.4q-.281-.759-.515-1.372a10.567,10.567,0,0,0-5.193-4.168l3.239-.041a25.51,25.51,0,0,0-2.108-3.493A15.294,15.294,0,0,1,15.7,18.71a11.457,11.457,0,0,1,.536,3.611q-.067,1.5-.081,2.635.49,3.39,1.476,3.772a8.23,8.23,0,0,0,3.5.547l.727-.157L22,29.042a6.089,6.089,0,0,0,.609-.377.863.863,0,0,0,.418-.621,11.75,11.75,0,0,0-.372-3.121L21.764,20.6A28.836,28.836,0,0,1,22.179,8.439Z" fill="#e2ad98"/>
            </g>
          </g>
          <g id="Group_103916" data-name="Group 103916" transform="translate(13.224 3.065)">
            <g id="Group_103915" data-name="Group 103915" transform="translate(0 0)">
              <path id="Path_75404" data-name="Path 75404" d="M3.257,2.47l-.01.837.822-.01m-.822.01-.01.837m3.3-.878L3.205,6.655-.041,3.348,3.288-.041Zm-4.11.052.822-.01" transform="translate(0 0)" fill="none" stroke="rgba(0,0,0,0)" stroke-linecap="round" stroke-linejoin="round" stroke-width="0.083"/>
            </g>
          </g>
        </g>
        <g id="Group_103922" data-name="Group 103922" transform="translate(-277.866 -1503.651)">
          <g id="Group_103919" data-name="Group 103919" transform="translate(0 0)">
            <g id="Group_103918" data-name="Group 103918">
              <path id="Path_75405" data-name="Path 75405" d="M-7.954-89.369A16.511,16.511,0,0,1-10.593-90.4a38.345,38.345,0,0,1-5.25-3.24,45.631,45.631,0,0,1-4.745-4,24.921,24.921,0,0,1-3.9-4.9q-1.713-2.777-3-5.363a47.181,47.181,0,0,1-2.358-5.554l-.73,30.6,22.545.327Z" transform="translate(30.583 131.865)" fill="#e2ad98"/>
              <path id="Path_75406" data-name="Path 75406" d="M-6.725-159.824h-.14a9.851,9.851,0,0,0-3.116-6.615,10.5,10.5,0,0,0-7.58-3.049,10.625,10.625,0,0,0-7.637,3.049,9.942,9.942,0,0,0-3.116,7.378q0,.3.028.6l-.14,7.378a47.182,47.182,0,0,0,2.358,5.554q1.291,2.586,3,5.363a24.92,24.92,0,0,0,3.9,4.9,45.622,45.622,0,0,0,4.745,4,38.342,38.342,0,0,0,5.25,3.24,16.511,16.511,0,0,0,2.639,1.035Z" transform="translate(29.158 169.489)" fill="#c18770"/>
            </g>
          </g>
          <g id="Group_103921" data-name="Group 103921" transform="translate(6.991 52.406)">
            <g id="Group_103920" data-name="Group 103920" transform="translate(0 0)">
              <path id="Path_75407" data-name="Path 75407" d="M-6.576-7.5v.817h.842m-.842,0v.817m3.369-.817L-6.576-3.412-9.946-6.679l3.369-3.267Zm-4.211,0h.842" transform="translate(9.946 9.946)" fill="none" stroke="rgba(0,0,0,0)" stroke-linecap="round" stroke-linejoin="round" stroke-width="0.083"/>
            </g>
          </g>
        </g>
        <g id="Group_104032" data-name="Group 104032" transform="matrix(0.995, 0.102, -0.102, 0.995, -300.415, -1575.434)">
          <g id="Group_103923" data-name="Group 103923" transform="translate(31.628 67.931)">
            <path id="Path_75408" data-name="Path 75408" d="M21.453,10.358a9.913,9.913,0,0,1-3.178,7.372,10.526,10.526,0,0,1-7.6,3.084,10.466,10.466,0,0,1-7.6-3.038A9.818,9.818,0,0,1-.033,10.424,10.008,10.008,0,0,1,3.125,3.031,10.632,10.632,0,0,1,10.743-.033a10.433,10.433,0,0,1,7.578,3.018A9.851,9.851,0,0,1,21.453,10.358Z" transform="translate(0 0)" fill="none" stroke="red" stroke-linecap="round" stroke-linejoin="round" stroke-width="0.083"/>
          </g>
          <g id="Group_103937" data-name="Group 103937" transform="translate(19.113 17.86)">
            <g id="Group_103925" data-name="Group 103925" transform="translate(0 0)">
              <g id="Group_103924" data-name="Group 103924" transform="translate(0 0)">
                <path id="Path_75409" data-name="Path 75409" d="M56.131,9.168A32,32,0,0,0,32.894-.1,32.393,32.393,0,0,0,9.6,9.311,30.5,30.5,0,0,0-.1,31.917a29.9,29.9,0,0,0,4.97,17.06l.028.136Q16.665,65.12,33.466,67.189q19.868,1.833,31.055-13.167l.784-17.132-.171.681a31.466,31.466,0,0,0,.552-5.857A30.112,30.112,0,0,0,56.131,9.168Z" transform="translate(0)" fill="#e2ad98"/>
              </g>
            </g>
            <g id="Group_103936" data-name="Group 103936" transform="translate(7.124 13.695)">
              <g id="Group_103927" data-name="Group 103927" transform="matrix(0.566, 0.824, -0.824, 0.566, 19.636, 0.178)">
                <g id="Group_103926" data-name="Group 103926" transform="translate(0 0)">
                  <path id="Path_75410" data-name="Path 75410" d="M3.494,1.209,0,0-.033,21.743l2.608,1.889Q10.347,11.646,3.494,1.209Z" fill="#c18770"/>
                </g>
              </g>
              <g id="Group_103929" data-name="Group 103929" transform="translate(17.948 1.233)">
                <g id="Group_103928" data-name="Group 103928" transform="translate(0 0)">
                  <path id="Path_75411" data-name="Path 75411" d="M9.766.378,1.915,6.884-.036,11.492q14.587-.858,12.386-11.53Z" transform="translate(0 0)" fill="#c18770"/>
                </g>
              </g>
              <g id="Group_103931" data-name="Group 103931" transform="translate(28.304 1.065)">
                <g id="Group_103930" data-name="Group 103930" transform="translate(0 0)">
                  <path id="Path_75412" data-name="Path 75412" d="M10.761,14.1l.214-5.583L5.164-.016-.005,1.58Q.41,10.786,10.761,14.1Z" transform="translate(0 0)" fill="#c18770"/>
                </g>
              </g>
              <g id="Group_103933" data-name="Group 103933" transform="translate(39.881 -0.123) rotate(25.988)">
                <g id="Group_103932" data-name="Group 103932" transform="translate(0 0)">
                  <path id="Path_75413" data-name="Path 75413" d="M24.744,7.9,22.406,3.948,0,0-.087,6.288Q9.691,9.969,24.744,7.9Z" transform="translate(0 0)" fill="#c18770"/>
                </g>
              </g>
              <g id="Group_103935" data-name="Group 103935" transform="translate(0 14.332)">
                <g id="Group_103934" data-name="Group 103934" transform="translate(0 0)">
                  <path id="Path_75414" data-name="Path 75414" d="M.786,0-.047,14.678l4.727,4.969A95.428,95.428,0,0,0,5.922-.018Z" transform="translate(0 0)" fill="#c18770"/>
                </g>
              </g>
            </g>
          </g>
          <g id="Group_103942" data-name="Group 103942" transform="translate(29.46 64.941)">
            <g id="Group_103939" data-name="Group 103939" transform="translate(0 0)">
              <g id="Group_103938" data-name="Group 103938" transform="translate(0 0)">
                <path id="Path_75415" data-name="Path 75415" d="M8.167,26.717q8.87,11.02,17.611,13.453T37.9,40.16q7.191-11.455,13.735-21.066Q58.182,9.515,53.382-.164L0,1.171Q1.17,19.463,8.167,26.717Z" fill="#e2ad98"/>
              </g>
            </g>
            <g id="Group_103941" data-name="Group 103941" transform="translate(13.495 32.542)">
              <g id="Group_103940" data-name="Group 103940" transform="translate(0 0)">
                <path id="Path_75416" data-name="Path 75416" d="M28.723.851Q28.807.769,28.7.769h-.056l-3.1,4.067-.028.082-.028.055-.085.109q-.564.737-.733.928l-.788.765-.141.109-.056.055-.056.027-.394.3-.562.3-.59.192a3.159,3.159,0,0,1-.646.111h-.084l-.056.027-.561,0-5.948-.526L14.7,7.348h-.112L11.5,6.623,11.472,6.6h-.056l-.841-.27a13.828,13.828,0,0,1-1.43-.486l-.7-.27-.168-.081-.084-.027-.084-.054-1.6-.785Q5.5,4.082,4.27,3.323L2.449,2.1.154.095.1.013Q.07-.014.014.014-.014.068.014.1L.07.177,1.58,1.724,4.044,3.65Q5.36,4.545,6.257,5.06a14.013,14.013,0,0,0,1.261.7l.308.19.084.027,2.438,1.027.757.243.084.054h.056l.056.027,3.113.835h.056l.028.027h.028l.084.027,3.647.588q.561.053,1.627.158l1.628.049a4.734,4.734,0,0,0,1.657-.441l.7-.411.507-.437.084-.055.986-1.038a8.407,8.407,0,0,0,.705-1.119l.169-.273L26.437,5Z" fill="#f0cbbc"/>
              </g>
            </g>
          </g>
          <g id="Group_103985" data-name="Group 103985" transform="translate(0 0)">
            <g id="Group_103944" data-name="Group 103944" transform="translate(0.026 0.226)">
              <g id="Group_103943" data-name="Group 103943" transform="translate(0 0)">
                <path id="Path_75417" data-name="Path 75417" d="M88.85,20.252Q79.085,11.05,71.341,10.2a18.543,18.543,0,0,0,.532-8.525q-.3-2.641-2.324-1.6Q48.537,14.548,29.606,19.208a43.274,43.274,0,0,0-16,9.5q-1,.932-1.943,1.939-.659-4.628-3.8-6.306Q2.513,22.015,3.82,25.769q2.036,4.133,3.292,6.2a9.538,9.538,0,0,0-4.912.179q-4.157,1.129-.824,3.27A29.256,29.256,0,0,0,6.73,37.688q.032.15.055.3a102.333,102.333,0,0,0,9.01,26.17l15.038,1.806a53.723,53.723,0,0,0-.522-21.294A20.188,20.188,0,0,0,33.793,44q7.331-1.711,11.263-11.418a18.8,18.8,0,0,1-.813,8.635q-1.5,4.525,2.407,2.144a28.265,28.265,0,0,0,8.785-8.932,54.2,54.2,0,0,0,5.443,9.324q5.259,5.485,5.053-.451l.28-8.77.168.217a20.726,20.726,0,0,0,3.441,3.639A34.608,34.608,0,0,0,74.189,41.4a27.5,27.5,0,0,0,4.2,1.975q2.775.972,4.907,1.564a24.549,24.549,0,0,0,3.45.752q1.319.132,1.52-1.285a11.276,11.276,0,0,0-.1-3.322q-.385-2.4-.911-4.763a31.348,31.348,0,0,0-1.445-4.652l-.167-.435q3.608,3.829,6.5,3.793Q96.01,28.127,88.85,20.252Z" fill="#540e00"/>
              </g>
            </g>
            <g id="Group_103946" data-name="Group 103946" transform="translate(66.429 23.175)">
              <g id="Group_103945" data-name="Group 103945" transform="translate(0 0)">
                <path id="Path_75418" data-name="Path 75418" d="M.014.014Q-.014.068.014.1L5.5,4.653q.364.3,1.931,1.764l3.945,3.991,5.172,6.3,2.877,4.512.335.653.056.054.363.734a.855.855,0,0,0,.5.407.985.985,0,0,0,.646-.056.752.752,0,0,0,.394-.491A.806.806,0,0,0,21.7,21.9l-.028-.027-.447-.761-2.542-3.75L15.017,12.9a4.584,4.584,0,0,0-.475-.516l-2.49-2.579q-1.4-1.357-2.1-1.982L5.838,4.3.1.013Q.07-.014.014.014Z" fill="#2b0700"/>
              </g>
            </g>
            <g id="Group_103948" data-name="Group 103948" transform="translate(34.546 26.696)">
              <g id="Group_103947" data-name="Group 103947" transform="translate(0 0)">
                <path id="Path_75419" data-name="Path 75419" d="M8,0q-.056-.054-.056.027l-1.788,6.3L3.643,11.557l-.226.327-.085.164-1.494,2.1L.177,16.007a.689.689,0,0,0-.226.573A.714.714,0,0,0,.2,17.15a.848.848,0,0,0,.617.243.94.94,0,0,0,.59-.274l.028-.055.282-.355.113-.109.394-.491,2.087-3.3.085-.191.113-.164L6.689,6.918,8.029.242V.052Q8.086,0,8,0Z" fill="#2b0700"/>
              </g>
            </g>
            <g id="Group_103950" data-name="Group 103950" transform="translate(25.378 35.52)">
              <g id="Group_103949" data-name="Group 103949" transform="translate(0 0)">
                <path id="Path_75420" data-name="Path 75420" d="M10.013-.009q-.056-.054-.056.027L7.192,4.6,5.98,6.24,3.249,9.026l-.872.656-.112.055-.084.082-.478.3-.084.027-.253.164-.084.027-.2.11L1,10.476.69,10.64l-.084.027-.141.082H.437a.756.756,0,0,0-.422.464.806.806,0,0,0,.026.626.751.751,0,0,0,.476.407.88.88,0,0,0,.646-.029l.225-.11.084-.055.028-.027L1.555,12l.253-.164.084-.027.591-.41.084-.082.084-.055.422-.328.084-.082.113-.082a7.653,7.653,0,0,0,.873-.82l.9-.956L6.511,7.028,6.6,6.864l.113-.137L8.091,4.354,10.041.045Q10.1-.009,10.013-.009Z" fill="#2b0700"/>
              </g>
            </g>
            <g id="Group_103952" data-name="Group 103952" transform="translate(55.312 34.515)">
              <g id="Group_103951" data-name="Group 103951" transform="translate(0 0)">
                <path id="Path_75421" data-name="Path 75421" d="M.15.036A.093.093,0,0,0,.037.009Q-.019.091.009.118L1.6,3.681,4.836,9.2,5.9,10.339l.252.217.14.081.252.217.728.488.14.054.112.081L8,11.694l.112.027.308.135.2.054H8.7l.533.107h.309a.074.074,0,0,0,.084-.082L9.6,11.88H9.57l-.112-.136-.5-.434-.112-.136-.14-.108-.084-.081L8.563,10.9,8.171,10.5,5.515,7.372a11.41,11.41,0,0,1-.923-1.059Z" fill="#2b0700"/>
              </g>
            </g>
            <g id="Group_103954" data-name="Group 103954" transform="translate(30.068 32.61)">
              <g id="Group_103953" data-name="Group 103953" transform="translate(0 0)">
                <path id="Path_75422" data-name="Path 75422" d="M14.648.666,14.564.83l-.17.436a2.873,2.873,0,0,0-.226.491l-.085.109-.2.436-.085.136-.057.136-.254.464-.113.164-.169.327-.451.655a11.931,11.931,0,0,1-.987,1.337L10.531,6.834q-.788.71-1.407,1.175a14.64,14.64,0,0,1-1.575.958l-.815.411-.028.027-.056.027-.112.028-6.3,2.661-.225.11q-.056,0-.056.109l.084.027.365.053H.578l.168.027,1.291,0,2.134-.306.815-.22A9.734,9.734,0,0,0,6.7,11.284l1.293-.739L9.963,9.014A15.226,15.226,0,0,0,11.4,7.593a15.459,15.459,0,0,0,1.155-1.5l.592-.955.056-.109.056-.082.367-.764.113-.164.226-.545.085-.164.057-.191.368-.927.029-.163.057-.136L14.9.72l.029-.163.085-.245.029-.245q.084-.082-.056-.082Q14.9-.1,14.9.039Z" transform="translate(0 0)" fill="#2b0700"/>
              </g>
            </g>
            <g id="Group_103956" data-name="Group 103956" transform="translate(84.853 30.049)">
              <g id="Group_103955" data-name="Group 103955" transform="translate(0 0)">
                <path id="Path_75423" data-name="Path 75423" d="M7.429,5.1V5.042l-.251-.353-.084-.081-.028-.054V4.526H7.038V4.5l-.587-.6L5.107,2.98,3.789,2.439,1.828,1.356.848.678.316.19.288.135.232.108.176.027a.071.071,0,0,0-.112,0q-.112,0-.028.082L.064.19.091.245.119.326.426.87l.783,1.005,2.519,2.2a4.956,4.956,0,0,0,.7.488l.168.081L4.68,4.7l.084.027.364.162.757.216H5.97l.7.107.674-.029Q7.485,5.178,7.429,5.1Z" fill="#2b0700"/>
              </g>
            </g>
            <g id="Group_103958" data-name="Group 103958" transform="translate(43.639 32.251)">
              <g id="Group_103957" data-name="Group 103957" transform="translate(0 0)">
                <path id="Path_75424" data-name="Path 75424" d="M2.2,1.213l-.028-.082L1.725.343,1.7.262,1.558.044q0-.082-.112-.027L1.417.072,1.389.1,1.3.4,1.186,2.17l.136,1.225v.054l.028.027V3.64l.028.027v.191l.028.109V4.13l.028.082V4.32l.027.49.028.136v.136a5.136,5.136,0,0,1-.116,1.09q-.057.3-.284,1.09l-.142.382L.916,7.78l-.226.6-.028.027v.027l-.17.382-.454,1.5-.058.463a1.492,1.492,0,0,0,0,.408l.055.381.167.326.224.163.112.054H.621v.027H.789q.084.054.084-.055Q.874,12,.818,12L.79,11.974H.734l-.028-.027H.678V11.92H.622l-.056-.054L.454,11.7A.47.47,0,0,1,.4,11.485a.661.661,0,0,1,0-.272l.227-.736.9-1.637V8.813h.028V8.786l.056-.055.565-1.064q.113-.218.509-1.173l.2-.627.028-.136.057-.164.057-.327.057-.164.057-.327.03-.735-.028-.082V3.77l-.083-.463-.083-.245V3.008L2.506,1.866l-.028-.109-.056-.082-.167-.381Z" fill="#2b0700"/>
              </g>
            </g>
            <g id="Group_103960" data-name="Group 103960" transform="translate(12.657 44.35)">
              <g id="Group_103959" data-name="Group 103959" transform="translate(0 0)">
                <path id="Path_75425" data-name="Path 75425" d="M.224.027.168,0,.112.109.084.19V.327L.055.463V.626L.025.817V.926L0,1.008l0,.735.028.082.027.463.028.136v.163L.63,4.764l.2.435.056.082.028.109.112.163.167.326.028.027.056.082.056.054.056.027.028-.055V5.742l-.055-.49V5.143l-.028-.109-.082-.708-.055-.245-.027-.272L.752,1.768.724,1.713V1.659L.363.435.336.3.308.244V.19L.252.108Z" transform="translate(0 0)" fill="#2b0700"/>
              </g>
            </g>
            <g id="Group_103962" data-name="Group 103962" transform="translate(17.034 45.072)">
              <g id="Group_103961" data-name="Group 103961" transform="translate(0 0)">
                <path id="Path_75426" data-name="Path 75426" d="M3.619.4l-.086.627.131,3.05L4.1,6.659,2.958,5.437l-.084-.054-.14-.163-.336-.3L2.342,4.84l-.084-.054L.859,3.565.775,3.511l-.7-.542q-.019-.018-.056,0H-.009V3.05L.1,3.295.13,3.4l.056.082L.742,5.09l.084.19L1.6,8.437v.054l.028.054.028.136.027.272.055.245.22,1.5.055.245.357,2.613v.109l.028.082.055.3.056.027.028-.055.057-.273v-.109l.028-.109.118-1.716-.3-3.4V8.326l-.028-.054-.5-1.959L1.861,6.2,1.61,5.5l-.418-.843.5.625.084.081.056.082.448.489.056.082,2.21,2.2.618-.329L5,7.392l-.028-.109-.056-.109L4,3.528,3.756,1.541l0-1.5q.056-.055-.028-.054L3.677.016,3.62.261Z" transform="translate(0 0)" fill="#2b0700"/>
              </g>
            </g>
            <g id="Group_103964" data-name="Group 103964" transform="translate(65.838 34.129)">
              <g id="Group_103963" data-name="Group 103963" transform="translate(0 0)">
                <path id="Path_75427" data-name="Path 75427" d="M.12.363.2.5.232.58,1.1,1.994l.447.6.14.136L1.8,2.89l.084.081.056.082.308.326q.867.9,1.4,1.357L5.351,6.093A21.119,21.119,0,0,0,7.311,7.367l4.259,2.22.14.081,3.055,1.216,1.29.377,5.049.883h.168l.168.027h.309a.074.074,0,0,0,.084-.082l-.056-.054-3.251-1.461q-.14-.054-.2-.081l-.2-.108-1.57-.594-.224-.108-3.869-1.4-.14-.027-2.327-.892-.252-.135-2.13-.974L4.15,4.136A16.739,16.739,0,0,1,2.666,2.969l-.392-.353L1.1,1.367.15.036A.093.093,0,0,0,.037.009Q-.019.091.009.118Z" fill="#300"/>
              </g>
            </g>
            <g id="Group_103966" data-name="Group 103966" transform="translate(23.548 45.896)">
              <g id="Group_103965" data-name="Group 103965" transform="translate(0 0)">
                <path id="Path_75428" data-name="Path 75428" d="M4.793.121Q4.85.067,4.766.04L4.681.013,3.839-.012,3.615.016,3.531.044H3.418L3.194.1H3.081L2.548.264,2.435.319H2.379L2.323.347,2.1.429,1.761.594,1.676.648l-.225.11L1.17.95,1.114.977l-.281.246-.084.055-.141.137-.084.055-.366.437-.028.027L.1,1.988l-.056.055-.028.082q-.056.055.028.082l.168.054H.268l.056.027.449.053h.2l.225-.028h.2l.225-.028.056-.027h.056l.59-.138.169-.082h.056l.787-.384.084-.082.2-.11.113-.082.028-.027.056-.027.169-.164L4.06,1.1,4.286.885,4.342.8,4.4.749,4.68.367,4.765.2Z" transform="translate(0)" fill="#2b0700"/>
              </g>
            </g>
            <g id="Group_103968" data-name="Group 103968" transform="translate(-0.107 33.769)">
              <g id="Group_103967" data-name="Group 103967" transform="translate(0 0)">
                <path id="Path_75429" data-name="Path 75429" d="M1.151.051.674,0,.056.027,0,.109V.163L.223.6.279.653V.68l.391.462.56.516.14.108.14.081.056.054.224.135,5.017,2.19q.056.054.112-.055l-.028-.082-.252-.244-.112-.136L6.36,3.575,6,3.222,3.253,1A3.638,3.638,0,0,0,2.664.564L2.44.428,1.431.1H1.375L1.291.078Z" transform="translate(0 0)" fill="#2b0700"/>
              </g>
            </g>
            <g id="Group_103970" data-name="Group 103970" transform="translate(3.571 24.368)">
              <g id="Group_103969" data-name="Group 103969" transform="translate(0 0)">
                <path id="Path_75430" data-name="Path 75430" d="M1.2.917.728.428H.7V.4H.672L.644.347.532.292.2.021Q.14-.033.056.049L.026.512,0,.621l.026.654.028.136v.163l.166.653.027.191.083.245.056.109.056.163L3.176,7.392l.112.218.335.489q.084.081.112.027a.088.088,0,0,0,.028-.109L2.07,2.248l-.084-.163L1.93,2,1.9,1.922l-.112-.163L1.707,1.6l-.391-.543L1.26,1Z" transform="translate(0 0)" fill="#2b0700"/>
              </g>
            </g>
            <g id="Group_103972" data-name="Group 103972" transform="translate(6.756 37.969)">
              <g id="Group_103971" data-name="Group 103971" transform="translate(0 0)">
                <path id="Path_75431" data-name="Path 75431" d="M.028,0,0,.082.3,2.668l.056.19L1.1,6.478q.194.844.638,2.258L4.328,16q.334,1.007.891,2.366l3.2,7.234.5.788q.084.081.112.027.084-.055.028-.109l-.139-.272-.641-1.55L8.2,24.321l-.139-.354L3.759,9.438,1.59,3.181.308.326.14.054Q.14,0,.028,0Z" transform="translate(0 0)" fill="#2b0700"/>
              </g>
            </g>
            <g id="Group_103974" data-name="Group 103974" transform="translate(68.871 9.924)">
              <g id="Group_103973" data-name="Group 103973" transform="translate(0 0)">
                <path id="Path_75432" data-name="Path 75432" d="M22.3,12.317l-.28-.353-.056-.109-.084-.081-.559-.734-.28-.3-.028-.054-1.707-1.6q-.448-.407-1.4-1.167L14.941,5.749a.548.548,0,0,1-.2-.136L11.888,3.879q-1.681-.948-2.97-1.516L7.152,1.606l-.2-.054-.028-.027H6.871l-.084-.054L3.675.555Q2.749.367,1.739.207L.056.022Q0-.033,0,.049L.028.1,4.542,1.642l1.485.676.168.054.168.081.084.054h.028l.028.027,1.821.948q1.009.542,2.773,1.653l7.448,5.451,1.539,1.466.531.625.084.081.279.408.14.163L22.4,15.557l.056.19.39.87.111.354.056.082v.027l.028.054.139.435.028.027v.054l.5,1.986v.136l.11.762V20.7l.027.272.028.082,0,.763a8.535,8.535,0,0,1-.2,1.825L23.441,24.7l-.056.109-.114.409q-.056.055.028.054.056.054.056-.027l.226-.382.028-.027.424-.9.255-.818.056-.109L24.63,21.6l.03-.463.028-.082V20.67l.029-.163-.051-1.525-.192-1.252-.056-.19-.027-.191v-.054l-.028-.054-.028-.082-.083-.381-.028-.027V16.7l-.5-1.551-.056-.109-.056-.19Z" transform="translate(0 0)" fill="#812511"/>
              </g>
            </g>
            <g id="Group_103976" data-name="Group 103976" transform="translate(68.491 14.65)">
              <g id="Group_103975" data-name="Group 103975" transform="translate(0 0)">
                <path id="Path_75433" data-name="Path 75433" d="M4.118,2.555.084.035Q0-.047,0,.062V.117L6.6,6.06Q8.115,7.526,8.871,8.314l3.8,4.4.643.869q.671.9,1.006,1.44l1.592,2.555.084.19.056.082L17.782,21.6q.083.245.25.707l.417,1.224.028.163.278.98.028.163.056.163.713,5.145.026.654a.049.049,0,0,0,.056.054l.028-.027.086-.436a11.239,11.239,0,0,0,.144-1.2l.057-.409.035-2.342-.355-3.022-.056-.163-.027-.191L18.824,20.4l-1.309-3.155-.056-.082-.028-.109-.753-1.387L13.3,10.833,12.094,9.5l-.14-.19L10.248,7.6l-.14-.163L9.94,7.3Q8.765,6.163,7.477,5.132Z" fill="#812511"/>
              </g>
            </g>
            <g id="Group_103978" data-name="Group 103978" transform="translate(56.284 23.034)">
              <g id="Group_103977" data-name="Group 103977" transform="translate(0 0)">
                <path id="Path_75434" data-name="Path 75434" d="M0,.049.028.1l.84.6L.98.754,1.2.944l.14.081.252.217.14.081.14.136.448.353.224.217.084.054L4.226,3.767,5.232,5.153l.2.353.084.109.028.054.056.054.223.381v.027l.028.027L6.6,7.627l.084.136.975,2.366.028.054,1,3.646.028.054v.082L8.8,14.4v.054h.028v.082l.055.272.327,2.94v.245l.028.136.024,1.28.027.218-.067,3.459q-.056.055.028.054l.056-.027.539-1.69.057-.354.057-.164.4-2.643v-.136l.028-.109.031-1.062q.031-.98-.049-2.315l-.027-.3v-.136l-.028-.027v-.136l-.055-.3v-.163L9.7,10.939,8.563,7.92,7.14,5.392l-.056-.054-.251-.38L6.8,4.9l-.056-.054-.084-.136-.559-.706L4.343,2.269l-.224-.163-.084-.081L3.923,1.97l-.756-.542-.112-.054L2.439.995Q2.158.832,1.178.4L1.065.345.953.318.729.237.617.183.056.022Q0-.033,0,.049Z" transform="translate(0 0)" fill="#812511"/>
              </g>
            </g>
            <g id="Group_103980" data-name="Group 103980" transform="translate(45.214 26.685)">
              <g id="Group_103979" data-name="Group 103979" transform="translate(0 0)">
                <path id="Path_75435" data-name="Path 75435" d="M10.02.024,9.963.269,9.819,1.44l-.029.136v.136L9.132,5.636,8.45,8.117l-.17.436L8.224,8.8l-.056.109-.028.109-.113.218-.085.245-.848,1.745-.564.9-.056.109L5.458,13.518q-.507.573-1.239,1.257l-.647.547L3.4,15.43l-.141.137-.337.219-.056.055-.675.465-2.221,1.26-.028.055q0,.082.056.027l.562-.083H.646l.843-.193.141-.055.14-.028.955-.33.534-.247.112-.028.084-.055A14.043,14.043,0,0,0,5,15.779a14.507,14.507,0,0,0,1.548-1.257l.366-.382.113-.082.93-1.147a10.664,10.664,0,0,0,1.1-1.855L9.737,9.42l.028-.136.369-1.254L10.507,5.6l.03-.681.029-.218-.159-3V1.575L10.1,0l-.056-.027Z" transform="translate(0 0)" fill="#812511"/>
              </g>
            </g>
            <g id="Group_103982" data-name="Group 103982" transform="translate(69.324 -0.213)">
              <g id="Group_103981" data-name="Group 103981" transform="translate(0 0)">
                <path id="Path_75436" data-name="Path 75436" d="M1.852-.006H1.488L1.431.023H1.319L1.207.051.673.243.223.517.167.571.026.681a.067.067,0,0,0,0,.109L.082.817H.11L.25.843H.418L.531.87h.14L.783.9H.867L.923.923l.309.054L1.288,1l.084.027.028.027h.028l.084.027.056.027.084.081H1.68l.056.054.279.435.111.326v.109l.331,1.8V4.05l.028.136-.609,6.265v.136q-.084.082.056.082.084,0,.084-.055l.226-.491L3.6,5.735,4,2.711,3.812,1.622l-.084-.163L3.673,1.3,3.589,1.16l-.028-.082L3.393.861A3.235,3.235,0,0,0,2.918.345Q2.862.318,2.3.075Z" transform="translate(0)" fill="#812511"/>
              </g>
            </g>
            <g id="Group_103984" data-name="Group 103984" transform="translate(4.443 23.842)">
              <g id="Group_103983" data-name="Group 103983" transform="translate(0 0)">
                <path id="Path_75437" data-name="Path 75437" d="M.337,0,.056.054,0,.109.028.136.28.3.364.326,1.2.813,1.232.84l.112.054L1.512,1l.168.081.308.217.056.027.028.027.084.054,1.176.922.084.081.084.054.727.733.056.082.168.163.28.353.028.054.028.027.14.19.084.081.112.19.14.163.587.9.084.163.307.462.084.163.112.136.614,1.006.056.027L7.134,7.3l.028-.136V7.031l.028-.109L7.166,5.915,6.778,4.282l-.056-.136L6.7,4.037,6.081,2.9a9.017,9.017,0,0,0-.671-.869l-.392-.407L3.9.8,3.674.7,3.562.615,3.31.507,3.2.48,2.918.345H2.862L2.75.291,2.637.264,2.581.237H2.525L2.3.156,2.076.13,1.88.076,1.487.023Z" transform="translate(0 0)" fill="#812511"/>
              </g>
            </g>
          </g>
          <g id="Group_103992" data-name="Group 103992" transform="translate(11.427 54.337)">
            <g id="Group_103987" data-name="Group 103987" transform="translate(-0.014 4.402) rotate(-15.965)">
              <g id="Group_103986" data-name="Group 103986" transform="translate(0 0)">
                <path id="Path_75438" data-name="Path 75438" d="M13.562,3.486A7.48,7.48,0,0,0,8.326.107Q5.029-.418,2.4,3.155A13.583,13.583,0,0,0,.089,12.107a17.406,17.406,0,0,0,2.938,9.117,17.875,17.875,0,0,0,5.836,5.535,40.882,40.882,0,0,0,5.088,2.016q.273-1.4,1.708-5.713a23.442,23.442,0,0,0,.617-10.488Q15.479,6.364,13.562,3.486Z" fill="#e2ad98"/>
              </g>
            </g>
            <g id="Group_103989" data-name="Group 103989" transform="translate(6.089 6.637)">
              <g id="Group_103988" data-name="Group 103988" transform="translate(0 0)">
                <path id="Path_75439" data-name="Path 75439" d="M.08,1.225l.337-.11L.53,1.06l.14-.028L.979.923h.084L1.373.84l.2-.028L1.681.785h.112L2.243.728l.505.026.5.107a4.687,4.687,0,0,1,1.009.405l.5.352.224.19.056.027.392.38,1.034,1.25L7.729,5.477l.056.136L9.124,8.169l.056.082.2.408.084.109.084.19.084.136q0,.082.056.027.084,0,.028-.055L9.628,8.44,9.3,7.106,8.266,4.332,6.981,2.266,5.974,1.207a.3.3,0,0,1-.14-.108L5.386.773,4.6.34,4.434.286,4.265.2,4.1.151,3.424.017H3.256L3.087-.01H2.779L1.768.158,1.6.24H1.543L1.43.3,1.206.378.306.9,0,1.144v.082Z" transform="translate(0 0)" fill="#c18770"/>
              </g>
            </g>
            <g id="Group_103991" data-name="Group 103991" transform="translate(3.963 1.987)">
              <g id="Group_103990" data-name="Group 103990" transform="translate(0 0)">
                <path id="Path_75440" data-name="Path 75440" d="M4.667-.014,3.572.18,3.038.345,2.954.4,2.785.454,2.7.509,2.532.564,2.448.619,2.364.646l-.478.3L1.829.975l-.084.082-.056.027-.028.027-.506.383-.592.683-.085.136L.365,2.45l-.339.6q-.084.082.028.082H.11l.647-.574L.9,2.475l.113-.109.141-.082.141-.109.815-.465h.028l.084-.055h.028l.028-.027.534-.192.056-.027.169-.055.056-.027h.084l.169-.055H3.4l.084-.027h.084l.084-.027h.056l.084-.027.168-.028H4.1L4.439,1.1h.309q.306,0,.842.052l1.318.241.308.081h.056L7.3,1.5h.028l.813.3.813.433a1.38,1.38,0,0,1,.364.244l.112.054.084.054.084.081.112.054.084.081.084.054.532.434,1.007,1.032.056.109.084.081,1.4,1.984v.027l.028.027.028.054.2.272,1.87,3.208q0,.082.056.027.084,0,.028-.055L13.4,6.3l-.028-.027V6.25l-1.2-2.012-.14-.19-.056-.109-1.37-1.548-.28-.244-.056-.027-.028-.027-.112-.081L10.05,1.93l-.112-.081-.084-.081L9.462,1.5A6.065,6.065,0,0,0,8.593.981L7.7.548,7.668.521H7.64L7.472.44,6.743.224A7.171,7.171,0,0,0,5.733.037a6.87,6.87,0,0,0-1.01-.051Z" transform="translate(0)" fill="#f0cbbc"/>
              </g>
            </g>
          </g>
          <g id="Group_103999" data-name="Group 103999" transform="translate(59.052 52.882)">
            <g id="Group_103994" data-name="Group 103994" transform="translate(0 0)">
              <g id="Group_103993" data-name="Group 103993" transform="translate(0 0)">
                <path id="Path_75441" data-name="Path 75441" d="M2.03,23.508q8.155,4.965,10.45-2.892l.117-1.634L9.325,15.588A37.793,37.793,0,0,1,8.388,1.049Q5.778-1.663,4.427,2.5L-.068,21.391A3.864,3.864,0,0,0,2.03,23.508Z" fill="#e2ad98"/>
              </g>
            </g>
            <g id="Group_103996" data-name="Group 103996" transform="translate(6.972 1.108)">
              <g id="Group_103995" data-name="Group 103995" transform="translate(0 0)">
                <path id="Path_75442" data-name="Path 75442" d="M-.017,9.531a32.669,32.669,0,0,0,.465,3.947q.367,1.876.415,1.959,1.708,1.384,2.883,2.333a2.929,2.929,0,0,1,1.114,2.72,2.775,2.775,0,0,1-1.129,1.964A3.33,3.33,0,0,0,6.069,19.67a2.788,2.788,0,0,0-1.591-2.909q-1.794-1-2.773-1.625l.311-.573-.168-.245-.674.029.73-.057L.8,8.63.9,4.518,1.416,0A22.682,22.682,0,0,0,.336,4.356,29.342,29.342,0,0,0-.017,9.531Z" transform="translate(0)" fill="#f0cbbc"/>
              </g>
            </g>
            <g id="Group_103998" data-name="Group 103998" transform="translate(0.024 1.129)">
              <g id="Group_103997" data-name="Group 103997" transform="translate(0 0)">
                <path id="Path_75443" data-name="Path 75443" d="M8.42-.026,8.364,0,7.816,4.66,7.782,6.539l-.028.109.028.109.075,2.832L8.4,14l.194.9a.492.492,0,0,0,.223.353l.672.406,1.484,1.194.7.842.084.163.112.136.139.3.056.082.195.571.028.163v.082l.028.082.027.272q.011-.037.028-.082l-.029.163v-.082q-.285.714-.311.791a3.424,3.424,0,0,1-.424.818,4.636,4.636,0,0,1-.536.737,7.878,7.878,0,0,1-.676.628,4.687,4.687,0,0,1-.787.493,5.323,5.323,0,0,1-.871.357,6.279,6.279,0,0,1-.927.221l-.477.083H7.222l-.14.028H6.969l-.112.028-.73,0L5.875,23.7a3.663,3.663,0,0,1-.954-.133,6.115,6.115,0,0,1-.953-.242l-.9-.378L1.446,21.836l-.728-.679a4.584,4.584,0,0,1-.7-.733q-.028-.027-.084,0v.082l.587.815a5.668,5.668,0,0,0,.671.76,8.806,8.806,0,0,0,.756.706l.84.6.953.514.981.351,1.066.215.533.053,1.095,0,.533-.056a10.426,10.426,0,0,0,1.067-.221,4.3,4.3,0,0,0,1.04-.384,4.533,4.533,0,0,0,.956-.548,4,4,0,0,0,.816-.738l.7-.874a7.142,7.142,0,0,0,.508-.927,8.529,8.529,0,0,0,.368-1.009l.029-.163-.026-.572-.194-.762-.139-.3-.028-.109L12.6,17.09l-.839-1.005-1.036-.9-.28-.163-.168-.136-.7-.434L8.592,7.653V7.544l-.028-.109-.026-.681-.028-.136-.026-.79-.028-.136L8.435,4.2l-.027-.218L8.448.028Q8.5-.026,8.42-.026Z" transform="translate(0 0)" fill="#a97059"/>
              </g>
            </g>
          </g>
          <g id="Group_104018" data-name="Group 104018" transform="translate(40.416 54.341)">
            <g id="Group_104004" data-name="Group 104004" transform="translate(29.06 3.832)">
              <g id="Group_104001" data-name="Group 104001" transform="translate(0 0)">
                <g id="Group_104000" data-name="Group 104000" transform="translate(0 0)">
                  <path id="Path_75444" data-name="Path 75444" d="M6.825,4.31a4.768,4.768,0,0,0-1-3.07,2.957,2.957,0,0,0-2.4-1.251A3.045,3.045,0,0,0,.99,1.255a4.873,4.873,0,0,0-1,3.076A4.754,4.754,0,0,0,.97,7.384,2.99,2.99,0,0,0,3.392,8.652,2.988,2.988,0,0,0,5.8,7.37,4.753,4.753,0,0,0,6.825,4.31Z" fill="#231915"/>
                </g>
              </g>
              <g id="Group_104003" data-name="Group 104003" transform="translate(4.029 3.942)">
                <g id="Group_104002" data-name="Group 104002" transform="translate(0 0)">
                  <path id="Path_75445" data-name="Path 75445" d="M1.649,1.009A1.2,1.2,0,0,0,1.381.274.678.678,0,0,0,.793,0,.732.732,0,0,0,.219.311,1.241,1.241,0,0,0,0,1.08,1.086,1.086,0,0,0,.265,1.8.708.708,0,0,0,.87,2.09a.675.675,0,0,0,.557-.329A1.138,1.138,0,0,0,1.649,1.009Z" fill="#fff"/>
                </g>
              </g>
            </g>
            <g id="Group_104006" data-name="Group 104006" transform="translate(27.742 1.529)">
              <g id="Group_104005" data-name="Group 104005" transform="translate(0 0)">
                <path id="Path_75446" data-name="Path 75446" d="M13.021,6.617a5.617,5.617,0,0,0-1.215-2.435,17.284,17.284,0,0,0-7.357-4.2A33.348,33.348,0,0,0-.022,6.854a8.254,8.254,0,0,1,5.673-.512A23.883,23.883,0,0,0,13.021,6.617Z" transform="translate(0 0)" fill="#e2ad98"/>
              </g>
            </g>
            <g id="Group_104008" data-name="Group 104008" transform="translate(27.657 7.099)">
              <g id="Group_104007" data-name="Group 104007" transform="translate(0 0)">
                <path id="Path_75447" data-name="Path 75447" d="M12.463.225,12.77.093,12.8.026l-.068-.033L12.6-.039l-2.581.008L9.781,0,6.419-.02a3.855,3.855,0,0,1-.577.035L2.785.024,2.547.058l-.883,0-.1.033H1.256L.611.163.475.2h-.1L.067.263,0,.33.033.362.168.428l1.018.26.2.032h.068V.753l.1.033,1.935.357H3.63l.136.033L7.332,1.3,7.6,1.262h.306l1.155-.135H9.2l.136-.033,3.025-.8Z" transform="translate(0 0)" fill="#231915"/>
              </g>
            </g>
            <g id="Group_104013" data-name="Group 104013" transform="translate(2.739 3.913)">
              <g id="Group_104010" data-name="Group 104010" transform="translate(0 0)">
                <g id="Group_104009" data-name="Group 104009" transform="translate(0 0)">
                  <path id="Path_75448" data-name="Path 75448" d="M6.825,4.31a4.768,4.768,0,0,0-1-3.07,2.957,2.957,0,0,0-2.4-1.251A3.045,3.045,0,0,0,.99,1.255a4.873,4.873,0,0,0-1,3.076A4.754,4.754,0,0,0,.97,7.384,2.99,2.99,0,0,0,3.392,8.652,2.988,2.988,0,0,0,5.8,7.37,4.753,4.753,0,0,0,6.825,4.31Z" fill="#231915"/>
                </g>
              </g>
              <g id="Group_104012" data-name="Group 104012" transform="translate(4.029 3.942)">
                <g id="Group_104011" data-name="Group 104011" transform="translate(0 0)">
                  <path id="Path_75449" data-name="Path 75449" d="M1.649,1.009A1.2,1.2,0,0,0,1.381.274.678.678,0,0,0,.793,0,.732.732,0,0,0,.219.311,1.241,1.241,0,0,0,0,1.08,1.086,1.086,0,0,0,.265,1.8.708.708,0,0,0,.87,2.09a.675.675,0,0,0,.557-.329A1.138,1.138,0,0,0,1.649,1.009Z" fill="#fff"/>
                </g>
              </g>
            </g>
            <g id="Group_104015" data-name="Group 104015" transform="translate(0 0)">
              <g id="Group_104014" data-name="Group 104014" transform="translate(0 0)">
                <path id="Path_75450" data-name="Path 75450" d="M8.049-.025A18.274,18.274,0,0,0,6.11,1.069,17.972,17.972,0,0,0-.024,7.546a12.176,12.176,0,0,1,2.886.321,26.022,26.022,0,0,0,6.147.146q3.891-.237,7.609-.353A4.634,4.634,0,0,0,15,4.6,73.765,73.765,0,0,0,8.049-.025Z" fill="#e2ad98"/>
              </g>
            </g>
            <g id="Group_104017" data-name="Group 104017" transform="translate(0.045 7.151)">
              <g id="Group_104016" data-name="Group 104016" transform="translate(0 0)">
                <path id="Path_75451" data-name="Path 75451" d="M16.234.049l-.17-.032L13.687-.009A3.453,3.453,0,0,0,13.11-.04L4.823-.015l-.17.033h-.2A4.492,4.492,0,0,0,3.8.054l-.645,0a3.855,3.855,0,0,1-.577.035,3.174,3.174,0,0,0-.544.035l-.713,0-.2.034-.543,0L.441.2H.2L.067.23,0,.3.033.329,1.967.818l4.278.415,4.178-.079a5.66,5.66,0,0,0,.713-.035l.374-.034h.17l.17-.033.985-.1,2.889-.6L15.86.281l.408-.133L16.3.082Z" transform="translate(0 0)" fill="#231915"/>
              </g>
            </g>
          </g>
          <g id="Group_104023" data-name="Group 104023" transform="translate(49.911 83.277)">
            <g id="Group_104020" data-name="Group 104020" transform="translate(0.423 1.77)">
              <g id="Group_104019" data-name="Group 104019" transform="translate(0 0)">
                <path id="Path_75452" data-name="Path 75452" d="M19.689,2.723q0-.119-.082-.039l-3.88.606h-.2l-.163.04-2.98.049-.245-.039-1.592-.114-.122-.039H10.3l-.2-.039-.939-.076L7.809,2.8,7.4,2.682l-.245-.039-.2-.079L3,1.349,2.833,1.27,2.67,1.231l-.285-.158L1.325.641l-.2-.118L.917.444.143.05Q.021-.068.02.09A.049.049,0,0,0,.02.17L.427.525.549.6.712.762l.815.592.856.473.122.118,1.59.748a16.59,16.59,0,0,0,1.631.629h.041l.163.079,1.142.353,3.06.624h.245l.735.077,1.919.034.245-.04h.449l3.554-.684.613-.24.286-.08,1.022-.4.45-.239Q19.77,2.8,19.689,2.723Z" fill="#231915"/>
              </g>
            </g>
            <g id="Group_104022" data-name="Group 104022" transform="translate(0 0)">
              <g id="Group_104021" data-name="Group 104021" transform="translate(0 0)">
                <path id="Path_75453" data-name="Path 75453" d="M2.123-.007H1.8l-.245.12-.163.04-.082.04L1.224.274.9.512.733.671H.692v.04L.569.83l-.123.238-.164.2L.035,1.98l-.042.238.038.951.161.673.122.237v.04l.041.039.041.079.041.039.082.039.041-.079L.6,4.2V3.8l.041-.159V3.206l.041-.079v-.2l.041-.2v-.2l.041-.079V2.335l.083-.278.041-.079V1.859l.123-.278.041-.04V1.5l.123-.238.041-.119L1.3,1.065,1.385.907l.287-.4.409-.4Z" fill="#c18770"/>
              </g>
            </g>
          </g>
          <g id="Group_104026" data-name="Group 104026" transform="matrix(0.906, -0.424, 0.424, 0.906, 33.507, 51.617)">
            <g id="Group_104025" data-name="Group 104025" transform="translate(0 0)">
              <g id="Group_104024" data-name="Group 104024" transform="translate(0 0)">
                <path id="Path_75454" data-name="Path 75454" d="M3.732.718a10.737,10.737,0,0,0-1.906.774A14.376,14.376,0,0,0,.036,3.715,26.914,26.914,0,0,1,6.97,2.333a19.679,19.679,0,0,1,7.022.749,19.771,19.771,0,0,0,2.692.736,1.626,1.626,0,0,0,.872-.074,1.3,1.3,0,0,0,.464-.651l.033-.082-.034-.082A2.443,2.443,0,0,0,16.7,1.66a18.589,18.589,0,0,0-4.812-1.3A18.716,18.716,0,0,0,3.732.718Z" transform="translate(2.45 0.023)" fill="#540e00"/>
                <path id="Path_75455" data-name="Path 75455" d="M2.311,3.026a17.961,17.961,0,0,1,7.772-1.483,25.7,25.7,0,0,1,7.091.968q2.389.678,2.856.382a1.034,1.034,0,0,0,.457-1.334l-.033.082a1.3,1.3,0,0,1-.464.651,1.626,1.626,0,0,1-.872.074,19.771,19.771,0,0,1-2.692-.736A19.679,19.679,0,0,0,9.406.881,26.914,26.914,0,0,0,2.472,2.263,14.376,14.376,0,0,1,4.263.04,10.488,10.488,0,0,0,2.23,1.578a10.893,10.893,0,0,0-.764.812L.044,4.507Z" transform="translate(0.014 1.475)" fill="#2b0700"/>
              </g>
            </g>
          </g>
          <g id="Group_104029" data-name="Group 104029" transform="matrix(-1, -0.01, 0.01, -1, 84.397, 59.909)">
            <g id="Group_104028" data-name="Group 104028" transform="translate(0 0)">
              <g id="Group_104027" data-name="Group 104027">
                <path id="Path_75456" data-name="Path 75456" d="M2.783,2.709A7.467,7.467,0,0,1,1.352,2,12.982,12.982,0,0,1,0,0,17.454,17.454,0,0,0,5.2,1.281a12.407,12.407,0,0,0,5.26-.63A12.79,12.79,0,0,1,12.478.007a1.038,1.038,0,0,1,.654.071,1.191,1.191,0,0,1,.35.587l.025.073-.025.074a2,2,0,0,1-.985,1.13A12.067,12.067,0,0,1,8.9,3.081,11.83,11.83,0,0,1,2.783,2.709Z" transform="translate(1.829 2.027)" fill="#540e00"/>
                <path id="Path_75457" data-name="Path 75457" d="M1.706,1.341A11.674,11.674,0,0,0,7.538,2.718a16.232,16.232,0,0,0,5.311-.826q1.788-.594,2.14-.326a1.03,1.03,0,0,1,.348,1.2l-.025-.073a1.191,1.191,0,0,0-.35-.587,1.038,1.038,0,0,0-.654-.071,12.79,12.79,0,0,0-2.015.644,12.407,12.407,0,0,1-5.26.63,17.454,17.454,0,0,1-5.2-1.281,12.982,12.982,0,0,0,1.352,2A8.331,8.331,0,0,1,1.651,2.64q-.3-.343-.576-.733L0,0Z" fill="#2b0700"/>
              </g>
            </g>
          </g>
          <g id="Group_104031" data-name="Group 104031" transform="translate(38.97 75.069)">
            <g id="Group_104030" data-name="Group 104030" transform="translate(0 0)">
              <path id="Path_75458" data-name="Path 75458" d="M3.36,2.441l0,.817.842,0m-.842,0,0,.817m3.371-.827L3.347,6.526-.01,3.268,3.368-.01Zm-4.21.013.842,0" transform="translate(0 0)" fill="none" stroke="rgba(0,0,0,0)" stroke-linecap="round" stroke-linejoin="round" stroke-width="0.083"/>
            </g>
          </g>
        </g>
      </g>
    </g>
  </g>
</svg>
