<svg xmlns="http://www.w3.org/2000/svg" xmlns:xlink="http://www.w3.org/1999/xlink" width="375" height="270" viewBox="0 0 375 270">
  <defs>
    <clipPath id="clip-path">
      <rect id="Rectangle_8667" data-name="Rectangle 8667" width="375" height="270" transform="translate(15280.434 -12428)" fill="#fff" stroke="#707070" stroke-width="1" opacity="0.59"/>
    </clipPath>
    <clipPath id="clip-path-2">
      <rect id="Rectangle_8666" data-name="Rectangle 8666" width="254" height="204" transform="translate(76 130)" fill="#fff"/>
    </clipPath>
  </defs>
  <g id="Mask_Group_16613" data-name="Mask Group 16613" transform="translate(-15280.434 12428)" clip-path="url(#clip-path)">
    <g id="Mask_Group_16603" data-name="Mask Group 16603" transform="translate(15280.434 -12528)" clip-path="url(#clip-path-2)">
      <g id="male_teen_3" data-name="male teen 3" transform="translate(416.378 1866.238)">
        <g id="Group_104519" data-name="Group 104519" transform="matrix(-0.824, 0.566, -0.566, -0.824, -146.888, -1562.364)">
          <g id="Group_104502" data-name="Group 104502" transform="translate(1.192 6.556)">
            <g id="Group_104501" data-name="Group 104501" transform="translate(0 0)">
              <path id="Path_75674" data-name="Path 75674" d="M17.258,0a207.669,207.669,0,0,1,6.456,31.611l-18.8,3.774Q1.927,18.951,0,2.781Z" fill="#e2ad98"/>
            </g>
          </g>
          <g id="Group_104504" data-name="Group 104504" transform="translate(1.167 0)">
            <g id="Group_104503" data-name="Group 104503" transform="translate(0 0)">
              <path id="Path_75675" data-name="Path 75675" d="M17.581,8.791A8.493,8.493,0,0,1,15,15.023a8.453,8.453,0,0,1-6.208,2.558,8.535,8.535,0,0,1-6.233-2.558A8.535,8.535,0,0,1,0,8.791,8.453,8.453,0,0,1,2.558,2.583,8.493,8.493,0,0,1,8.791,0,8.412,8.412,0,0,1,15,2.583,8.412,8.412,0,0,1,17.581,8.791Z" fill="#e2ad98"/>
            </g>
          </g>
          <g id="Group_104507" data-name="Group 104507" transform="translate(4.768 30.908)">
            <g id="Group_104506" data-name="Group 104506" transform="translate(0 0)">
              <g id="Group_104505" data-name="Group 104505" transform="translate(0 0)">
                <path id="Path_75676" data-name="Path 75676" d="M1.564,14.138,0,3.932A29.156,29.156,0,0,1,19.2.331l1.664,9.436Z" fill="#c18770"/>
              </g>
            </g>
          </g>
          <g id="Group_104509" data-name="Group 104509" transform="translate(15.744 58.505)">
            <g id="Group_104508" data-name="Group 104508" transform="translate(0 0)">
              <path id="Path_75677" data-name="Path 75677" d="M29.153,14.576a14.043,14.043,0,0,1-4.271,10.305,14.043,14.043,0,0,1-10.305,4.271A14.043,14.043,0,0,1,4.271,24.882,14.043,14.043,0,0,1,0,14.576,14.043,14.043,0,0,1,4.271,4.271,14.043,14.043,0,0,1,14.576,0,14.043,14.043,0,0,1,24.882,4.271,14.043,14.043,0,0,1,29.153,14.576Z" transform="translate(0)" fill="#7a2230"/>
            </g>
          </g>
          <g id="Group_104511" data-name="Group 104511" transform="translate(0.05 32.937)">
            <g id="Group_104510" data-name="Group 104510" transform="translate(0 0)">
              <path id="Path_75678" data-name="Path 75678" d="M34.169,2.573,44.45,36.717,20.263,50.748Q11.721,43.223,0,8.235,11.82-4.6,34.169,2.573Z" transform="translate(0 0)" fill="#7a2230"/>
            </g>
          </g>
          <g id="Group_104514" data-name="Group 104514" transform="translate(0 32.968)">
            <g id="Group_104513" data-name="Group 104513" transform="translate(0 0)">
              <g id="Group_104512" data-name="Group 104512" transform="translate(0 0)">
                <path id="Path_75679" data-name="Path 75679" d="M10.777,36.14A244.134,244.134,0,0,1,0,8.154Q11.361-4.371,33.374,2.343,8.592.928,5.339,9.917q-1.987,5.463,11.994,37.5A63.854,63.854,0,0,1,10.777,36.14Z" fill="#4b0f18"/>
              </g>
            </g>
          </g>
          <g id="Group_104516" data-name="Group 104516" transform="translate(37.154 45.567)">
            <g id="Group_104515" data-name="Group 104515" transform="translate(0 0)">
              <path id="Path_75680" data-name="Path 75680" d="M6.7,22.423,3.521,14.576.119.819.02.05Q-.03,0,.045,0l.05.025L.641,1.614,6.774,22.4q.05.05-.025.05Q6.7,22.5,6.7,22.423Z" fill="#4b0f18"/>
            </g>
          </g>
          <g id="Group_104518" data-name="Group 104518" transform="translate(27.34 70.101)">
            <g id="Group_104517" data-name="Group 104517" transform="translate(0 0)">
              <path id="Path_75681" data-name="Path 75681" d="M2.98,3.725V2.98h.745m-.745,0V2.235m2.98.745L2.98,0,0,2.98,2.98,5.96Zm-3.725,0H2.98" transform="translate(0 0)" fill="none" stroke="rgba(0,0,0,0)" stroke-linecap="round" stroke-linejoin="round" stroke-width="0.091"/>
            </g>
          </g>
        </g>
        <g id="Group_104528" data-name="Group 104528" transform="translate(-125.267 -1623.952) rotate(49.717)">
          <g id="Group_104521" data-name="Group 104521" transform="matrix(0.978, -0.208, 0.208, 0.978, 0, 7.998)">
            <g id="Group_104520" data-name="Group 104520" transform="translate(0 0)">
              <path id="Path_75682" data-name="Path 75682" d="M19.536,61.733,2.253,63.372A92.838,92.838,0,0,1,.092,49.392q-.617-7.551,2.881-24.758T6.623.05L18.518,0q-.646,10.638-.422,18.525t.7,17.383q.46,9.511.745,16.489A65.93,65.93,0,0,1,19.536,61.733Z" transform="translate(0)" fill="#e2ad98"/>
            </g>
          </g>
          <g id="Group_104523" data-name="Group 104523" transform="translate(6.425 0)">
            <g id="Group_104522" data-name="Group 104522" transform="translate(0 0)">
              <path id="Path_75683" data-name="Path 75683" d="M11.926,5.963a5.744,5.744,0,0,1-1.749,4.215,5.744,5.744,0,0,1-4.215,1.749,5.744,5.744,0,0,1-4.215-1.749A5.744,5.744,0,0,1,0,5.963,5.744,5.744,0,0,1,1.749,1.749,5.744,5.744,0,0,1,5.963,0a5.744,5.744,0,0,1,4.215,1.749A5.744,5.744,0,0,1,11.926,5.963Z" fill="#e2ad98"/>
            </g>
          </g>
          <g id="Group_104525" data-name="Group 104525" transform="translate(7.225 11.965)">
            <g id="Group_104524" data-name="Group 104524" transform="translate(0 0)">
              <path id="Path_75684" data-name="Path 75684" d="M4.539,48.518l-.149-.273-.67-1.664a20.24,20.24,0,0,1-.745-2.309l-1.291-6.73q-.372-3.4-.447-4.122L.815,27.311.79,22.593l-.025-.149L.219,2.155.02.194V.07Q-.03.02.045.02q.05-.05.05.025l.05.149L.492,2.106l.844,9.213q.2,2.558.248,4.122l.223,11.845.844,12.069L3.2,43.1l.05.174v.1l.149.795,1.217,4.321q.05.05-.025.05Q4.539,48.592,4.539,48.518Z" fill="#c18770"/>
            </g>
          </g>
          <g id="Group_104527" data-name="Group 104527" transform="translate(20.183 62.419)">
            <g id="Group_104526" data-name="Group 104526" transform="translate(0 0)">
              <path id="Path_75685" data-name="Path 75685" d="M2.98,3.725V2.98h.745m-.745,0V2.235m2.98.745L2.98,0,0,2.98,2.98,5.96Zm-3.725,0H2.98" transform="translate(0)" fill="none" stroke="rgba(0,0,0,0)" stroke-linecap="round" stroke-linejoin="round" stroke-width="0.091"/>
            </g>
          </g>
        </g>
        <g id="Group_104531" data-name="Group 104531" transform="translate(-147.842 -1594.224)">
          <g id="Group_104530" data-name="Group 104530" transform="translate(0 0)">
            <g id="Group_104529" data-name="Group 104529">
              <path id="Path_75686" data-name="Path 75686" d="M311.979-1187.535a4.794,4.794,0,0,0,2.5.026q1.657-.4,1.719-1.025-.609-.541-2.569-6.561-1.152-6.661-.743-7.156-.36-.358-2.032-.079a4.84,4.84,0,0,0-2.214,1.059q-1,.818.1,7.2,2.018,6.421,3.244,6.539m.137-10.207a21.585,21.585,0,0,1,1.208,5.123,7,7,0,0,1-2.9.656,11.244,11.244,0,0,1-1.218-5.161A4.556,4.556,0,0,1,312.115-1197.742Z" transform="translate(-308.161 1202.453)" fill="#f5d8d1"/>
              <path id="Path_75687" data-name="Path 75687" d="M316.105-1180.207a21.582,21.582,0,0,0-1.208-5.123,4.556,4.556,0,0,0-2.908.617,11.242,11.242,0,0,0,1.217,5.161A7,7,0,0,0,316.105-1180.207Z" transform="translate(-310.943 1190.041)" fill="#fff"/>
            </g>
          </g>
        </g>
        <g id="Group_104536" data-name="Group 104536" transform="matrix(0.019, 1, -1, 0.019, -86.923, -1629.691)">
          <g id="Group_104533" data-name="Group 104533" transform="translate(0 0)">
            <g id="Group_104532" data-name="Group 104532" transform="translate(0)">
              <path id="Path_75688" data-name="Path 75688" d="M1.341,16.713l.7,2.881a8.927,8.927,0,0,0,.72,6.208A6.622,6.622,0,0,0,.372,22.748a13.592,13.592,0,0,0,.968-6.034m12.094-3.278L11.82,11.076A17.858,17.858,0,0,1,10.9,8.643a9.426,9.426,0,0,1-.745-3.5A7.812,7.812,0,0,1,10.6,3.254a5.527,5.527,0,0,0,.372-1.366.95.95,0,0,0-.074-.546l1.242,1.117.05.2.223.074.4,1.117-.05-.025a1.487,1.487,0,0,0-1.167.546,4.33,4.33,0,0,0-.223,2.558q.223,2.334,2.732,6.059l-.472,6.755a9.256,9.256,0,0,1-.2-6.308m-2.707,5.438a4.044,4.044,0,0,1,.944.546q.521.4-1.142.422Q.894,19.4,3.874,18.973q.819-.075,1.639-.124.223-5.016-.124-5.339Q3,5.29,0,2.732,1.391,2.459,3.1,4.3a62.064,62.064,0,0,0,3.551,8.567v5.96q1.664-.025,3.328.074a7.56,7.56,0,0,1,.223-5.885A54.644,54.644,0,0,1,6.755,6.259a15.222,15.222,0,0,1-.869-2.682q-.3-1.391-.4-1.862v-.2a4.726,4.726,0,0,1,.5-1.49,4.024,4.024,0,0,1-.7.05h.025A1.981,1.981,0,0,1,7.053.4l.1.174.422-.5L7.5.224,7.375.448A3.675,3.675,0,0,0,6.8,1.714a1.721,1.721,0,0,0-.074.5q-.05-.174-.124-.4a3.352,3.352,0,0,0,.149.546,1.847,1.847,0,0,0,.124.521.072.072,0,0,1,.025.05,34.242,34.242,0,0,0,2.508,7.152,12.881,12.881,0,0,0,2.309,3.03A6.008,6.008,0,0,0,10.7,15.645a11.126,11.126,0,0,0-.447,2.434.823.823,0,0,0,.472.795M5.265,36.555q-2.831-7.226,7.922-16.116Q5.513,29.974,5.265,36.555Z" transform="translate(13.087 0)" fill="#c18770"/>
              <path id="Path_75689" data-name="Path 75689" d="M23.07,18.873q-1.664-.1-3.328-.075v-5.96a62.063,62.063,0,0,1-3.551-8.567Q16.315.546,17.557.124L18.376.05a4.024,4.024,0,0,0,.7-.05,4.726,4.726,0,0,0-.5,1.49v.2q.1.472.4,1.862a15.222,15.222,0,0,0,.869,2.682,54.644,54.644,0,0,0,3.452,6.755,7.56,7.56,0,0,0-.223,5.885m1.689.521a4.044,4.044,0,0,0-.944-.546.823.823,0,0,1-.472-.795,11.126,11.126,0,0,1,.447-2.434,6.008,6.008,0,0,1,1.018-2.533,12.881,12.881,0,0,1-2.309-3.03A34.242,34.242,0,0,1,19.99,2.905a.072.072,0,0,0-.025-.05,1.846,1.846,0,0,1-.124-.521,3.352,3.352,0,0,1-.149-.546q.075.223.124.4a1.721,1.721,0,0,1,.074-.5A3.675,3.675,0,0,1,20.462.422L20.586.2l.422-.05a3.436,3.436,0,0,1,2.98,1.167.95.95,0,0,1,.074.546,5.527,5.527,0,0,1-.372,1.366,7.812,7.812,0,0,0-.447,1.887,9.426,9.426,0,0,0,.745,3.5,17.858,17.858,0,0,0,.919,2.434l1.614,2.359a9.256,9.256,0,0,0,.2,6.308l.472-6.755Q24.684,9.238,24.46,6.9a4.33,4.33,0,0,1,.223-2.558A1.487,1.487,0,0,1,25.851,3.8l.05.025a1.951,1.951,0,0,1,1.515.348Q28.657,6.481,29.9,8.94q.1.372.223.745a13.935,13.935,0,0,1,.869,4.1v7.053Q26.348,39.807,18.848,41.1,10.4,40.2,8.294,31.091a21.269,21.269,0,0,0-3.2-7.5,13.3,13.3,0,0,0-2.285-2.508A11.785,11.785,0,0,0,0,19.27a6.889,6.889,0,0,1,1.689-2.384,4.188,4.188,0,0,1,1.117-.7,4.478,4.478,0,0,1,.944-.3,3.131,3.131,0,0,1,2.111.3,9.569,9.569,0,0,1,2.111,1.465,5.023,5.023,0,0,1,1.366,1.738A5.537,5.537,0,0,0,10.8,21.182a7.525,7.525,0,0,1,2.657,1.54,6.622,6.622,0,0,1,2.384,3.054,8.927,8.927,0,0,1-.72-6.208l-.7-2.881q-.05-.571-.124-1.167V12.243q-4.569-5.91-2.732-8.418a2.621,2.621,0,0,1,1.515-1.117q3,2.558,5.389,10.777.348.323.124,5.339-.819.05-1.639.124-2.98.422,6.655.869,1.664-.025,1.142-.422m1.515,1.018Q15.52,29.3,18.351,36.529,18.6,29.948,26.273,20.413Z" transform="translate(0 0.026)" fill="#e2ad98"/>
            </g>
          </g>
          <g id="Group_104535" data-name="Group 104535" transform="translate(15.471 32.308)">
            <g id="Group_104534" data-name="Group 104534" transform="translate(0 0)">
              <path id="Path_75690" data-name="Path 75690" d="M2.98,3.725V2.98h.745m-.745,0V2.235m2.98.745L2.98,0,0,2.98,2.98,5.96Zm-3.725,0H2.98" transform="translate(0 0)" fill="none" stroke="rgba(0,0,0,0)" stroke-linecap="round" stroke-linejoin="round" stroke-width="0.091"/>
            </g>
          </g>
        </g>
        <g id="Group_104546" data-name="Group 104546" transform="translate(-285.363 -1582.604) rotate(-8.147)">
          <g id="Group_104538" data-name="Group 104538" transform="translate(0 31.192)">
            <g id="Group_104537" data-name="Group 104537" transform="translate(0 0)">
              <path id="Path_75691" data-name="Path 75691" d="M75.894,52.847A320.518,320.518,0,0,0,72.516,0L7.947,2.781A352.74,352.74,0,0,1,0,53.443Q35.683,67.144,75.894,52.847Z" transform="translate(0 0)" fill="#ede6de"/>
            </g>
          </g>
          <g id="Group_104540" data-name="Group 104540" transform="translate(7.743 1.993)">
            <g id="Group_104539" data-name="Group 104539" transform="translate(0 0)">
              <path id="Path_75692" data-name="Path 75692" d="M0,32.647A31.461,31.461,0,0,0,9.555,55.739a31.461,31.461,0,0,0,23.092,9.555A31.461,31.461,0,0,0,55.74,55.739a31.461,31.461,0,0,0,9.555-23.092A31.461,31.461,0,0,0,55.74,9.555,31.461,31.461,0,0,0,32.647,0,31.461,31.461,0,0,0,9.555,9.555,31.461,31.461,0,0,0,0,32.647Z" fill="#ede6de"/>
            </g>
          </g>
          <g id="Group_104543" data-name="Group 104543" transform="translate(0.05 0)">
            <g id="Group_104542" data-name="Group 104542" transform="translate(0 0)">
              <g id="Group_104541" data-name="Group 104541">
                <path id="Path_75693" data-name="Path 75693" d="M39.064,8.642q.77-.025,1.565-.025.795.1,1.589.224a4.276,4.276,0,0,1,.472-.025,35.3,35.3,0,0,1-.447-6.73A8.242,8.242,0,0,1,42.367.969a9.115,9.115,0,0,1,.2-.969l-.447,1.416A33.663,33.663,0,0,0,22,6.159l-6.482,6.755A53.668,53.668,0,0,0,9.81,22.773a46.076,46.076,0,0,0-1.962,9.611A404.81,404.81,0,0,1,0,84.809,42.3,42.3,0,0,0,6.656,86.97q4.089,1.018,6.432,1.714a34.223,34.223,0,0,0,5.836,1.142q3.495.454,7.227,1.142a36.529,36.529,0,0,0,7.55.646q3.849-.07,5.464-.124t6.606-.373a64.041,64.041,0,0,0,9.114-1.167q4.009-.7,6.879-1.44,2.9-.745,3.576-.944.673-.174,1.341-.373.671-.224,1.341-.422-.522.1-1.018.224-4.073.795-8.295,1.267-3,.348-6.06.646a108.279,108.279,0,0,1-11.1.373,59.28,59.28,0,0,1-6.879-.546,56.148,56.148,0,0,1-9.685-2.21,21.776,21.776,0,0,1-6.78-3.75,13.06,13.06,0,0,1-4.47-6.978,34.921,34.921,0,0,1-.969-5.637,84.513,84.513,0,0,1-.323-10.232q.124-3.849.373-7.748.149-2.657.422-5.315.325-2.981.571-7.1.265-4.122,1.068-9.015a29.67,29.67,0,0,1,3.1-9.139,19.9,19.9,0,0,1,6.382-7.028,40.852,40.852,0,0,1,5.911-3.427A26.885,26.885,0,0,1,39.064,8.642Z" fill="#dad0c5"/>
              </g>
            </g>
          </g>
          <g id="Group_104545" data-name="Group 104545" transform="translate(34.967 88.509)">
            <g id="Group_104544" data-name="Group 104544" transform="translate(0 0)">
              <path id="Path_75694" data-name="Path 75694" d="M2.98,2.235V2.98h.745m-.745,0v.745M5.96,2.98,2.98,5.96,0,2.98,2.98,0Zm-3.725,0H2.98" transform="translate(0 0)" fill="none" stroke="rgba(0,0,0,0)" stroke-linecap="round" stroke-linejoin="round" stroke-width="0.091"/>
            </g>
          </g>
        </g>
        <g id="Group_104571" data-name="Group 104571" transform="translate(-269.815 -1640.353) rotate(12.178)">
          <g id="Group_104548" data-name="Group 104548" transform="translate(28.186 0)">
            <g id="Group_104547" data-name="Group 104547" transform="translate(0 0)">
              <path id="Path_75695" data-name="Path 75695" d="M30.049,17.832,32.507,6.061a28.064,28.064,0,0,0-8.1-4.644A25.547,25.547,0,0,0,16.241,0,27.394,27.394,0,0,0,.571,4.72L0,17.832Z" fill="#e2ad98"/>
            </g>
          </g>
          <g id="Group_104550" data-name="Group 104550" transform="translate(7.823 2.907)">
            <g id="Group_104549" data-name="Group 104549" transform="translate(0 0)">
              <path id="Path_75696" data-name="Path 75696" d="M69.534,19.643A17.3,17.3,0,0,0,66.9,10.952q-2.4-3.791-8.2-6.109A50.539,50.539,0,0,1,50.76,1.118q-2.026,5.389-8.642,9.238Q35.529,14.23,30.57,9.164q-4.939-5.041-6.184-6.109A10.6,10.6,0,0,1,22.077,0a41.249,41.249,0,0,0-5.215,1.44q-4.37,1.373-8.741,2.806A51.843,51.843,0,0,0,0,7.748L6.556,76.09q2.583-3.526,5.414-6.829,2.533-2.955,5.314-5.737l1.043-1.043,1.043-.993q2.012-1.838,4.172-3.5a41.838,41.838,0,0,1,8.319-4.892,26.413,26.413,0,0,1,8.17-2.086,25,25,0,0,1,8.071.72A30.439,30.439,0,0,1,56.024,55.2a36.8,36.8,0,0,1,4.942,3.626,52.8,52.8,0,0,1,4.371,4.222,65.709,65.709,0,0,1,6.109,7.574Z" transform="translate(0 0)" fill="#ede6de"/>
            </g>
          </g>
          <g id="Group_104552" data-name="Group 104552" transform="translate(0.248 8.842)">
            <g id="Group_104551" data-name="Group 104551" transform="translate(0 0)">
              <path id="Path_75697" data-name="Path 75697" d="M29.155,14.577A14.044,14.044,0,0,0,24.883,4.271,14.044,14.044,0,0,0,14.577,0,14.044,14.044,0,0,0,4.271,4.271,14.044,14.044,0,0,0,0,14.577,14.044,14.044,0,0,0,4.271,24.883a14.044,14.044,0,0,0,10.306,4.271,14.044,14.044,0,0,0,10.306-4.271A14.044,14.044,0,0,0,29.155,14.577Z" transform="translate(0 0)" fill="#ede6de"/>
            </g>
          </g>
          <g id="Group_104555" data-name="Group 104555" transform="translate(10.256 35.24)">
            <g id="Group_104554" data-name="Group 104554" transform="translate(0 0)">
              <g id="Group_104553" data-name="Group 104553" transform="translate(0 0)">
                <path id="Path_75698" data-name="Path 75698" d="M12.963,0Q.025,2.111,0,2.086L4.073,44l8.717-10.728Z" fill="#dad0c5"/>
              </g>
            </g>
          </g>
          <g id="Group_104560" data-name="Group 104560" transform="translate(0 3.28)">
            <g id="Group_104557" data-name="Group 104557" transform="translate(0 0)">
              <g id="Group_104556" data-name="Group 104556" transform="translate(0 0)">
                <path id="Path_75699" data-name="Path 75699" d="M29.8,20.363A71.437,71.437,0,0,1,34.419,5.215L28.608,0A127.983,127.983,0,0,0,9.933,6.184Q.482,10.029,0,21.009q1.322,8.342,7.6,11.846l.472.248q.316.176.621.323.068.029.124.05l.422.174a13.446,13.446,0,0,0,4.1.993,14.823,14.823,0,0,0,1.49.075,14.044,14.044,0,0,0,10.306-4.271,13.706,13.706,0,0,0,1.043-1.167Q28.79,26.444,29.8,20.363Z" fill="#7a2230"/>
              </g>
            </g>
            <g id="Group_104559" data-name="Group 104559" transform="translate(57.067 0.993)">
              <g id="Group_104558" data-name="Group 104558" transform="translate(0 0)">
                <path id="Path_75700" data-name="Path 75700" d="M9.983,9.139Q14.735,12.911,18,20.686q1.525,3.6,2.657,6.829a66.9,66.9,0,0,1-.1-7.847A19.921,19.921,0,0,0,20.14,14.3q-.2-2.479-2.93-5.389a18.634,18.634,0,0,0-6.233-4.768A50.464,50.464,0,0,1,2.334,0L0,3.775A29.78,29.78,0,0,1,9.983,9.139Z" transform="translate(0 0)" fill="#7a2230"/>
              </g>
            </g>
          </g>
          <g id="Group_104562" data-name="Group 104562" transform="translate(43.061 3.925)">
            <g id="Group_104561" data-name="Group 104561" transform="translate(0 0)">
              <path id="Path_75701" data-name="Path 75701" d="M9.735,3.725,9.586,3.8l-.472.3L6.953,5.165l-3.2.993L3.6,6.184l-.149.05L.05,6.78H.025L0,6.829l.025.025.2.05L1.565,7l.124.025L3.4,6.978l.323-.05H3.9L5.29,6.68l1.465-.422A11.6,11.6,0,0,0,8.22,5.687l.72-.373,2.21-1.49,1.937-1.962L13.932.671l.1-.124L14.2.223l.1-.149Q14.329.05,14.279,0h-.05l-.124.149-1.043.993-.1.074-.3.273-.1.074-.2.2Z" transform="translate(0 0)" fill="#c18770"/>
            </g>
          </g>
          <g id="Group_104564" data-name="Group 104564" transform="translate(35.313 11.425)">
            <g id="Group_104563" data-name="Group 104563" transform="translate(0 0)">
              <path id="Path_75702" data-name="Path 75702" d="M15.869,1.565l-.546.224-.2.05a16.742,16.742,0,0,1-1.664.522q-.745.2-.869.224l-1.341.273h-.124l-.1.025L8.915,3.03l-.124.025-.1-.025H8L6.631,2.906l-2.31-.5L1.813,1.49.894,1.043.7.969.546.869.074.646Q0,.571,0,.671V.72L1.515,2.036l.124.074.546.4L4.4,3.651h.05L5.439,4l.124.025.1.05.248.05a10.4,10.4,0,0,0,1.962.348,12.755,12.755,0,0,0,2.086.025l.77-.074,2.21-.472.248-.074.1-.05L13.41,3.8l.472-.174a16.469,16.469,0,0,0,1.689-.72l1.416-.795a12.233,12.233,0,0,0,1.142-.77L19.668.075V0h-.075l-1.44.646-.075.025-.546.248-.149.05-.149.074-1.167.472Z" transform="translate(0 0)" fill="#dad0c5"/>
            </g>
          </g>
          <g id="Group_104566" data-name="Group 104566" transform="translate(27.218 1.789)">
            <g id="Group_104565" data-name="Group 104565" transform="translate(0 0)">
              <path id="Path_75703" data-name="Path 75703" d="M20.885,12.517a18.04,18.04,0,0,0,7.847-3.675A15.786,15.786,0,0,0,31.29,6.135a8.614,8.614,0,0,0,1.44-3.154q-.2-1.266-1.192-1.341a2.078,2.078,0,0,0-1.887,1.167A17.136,17.136,0,0,1,26.5,6.135a10.308,10.308,0,0,1-3.3,1.788,22.551,22.551,0,0,1-3.725.844A14.494,14.494,0,0,1,10.9,7.749,14.29,14.29,0,0,1,4.545,2.335,5.013,5.013,0,0,0,3.452.671,2.264,2.264,0,0,0,1.763,0Q.77,0,0,1.416A24.362,24.362,0,0,0,3.924,7.823a13.539,13.539,0,0,0,8.294,4.768A20.944,20.944,0,0,0,20.885,12.517Z" transform="translate(0 0)" fill="#7a2230"/>
            </g>
          </g>
          <g id="Group_104568" data-name="Group 104568" transform="translate(27.297 3.309)">
            <g id="Group_104567" data-name="Group 104567" transform="translate(0 0)">
              <path id="Path_75704" data-name="Path 75704" d="M18.322,11.443q.944-.1,2.26-.323l2.632-.7,1.49-.646.3-.174q.075,0,.025-.05,0-.075-.05-.025l-.1.025-.4.149-.2.05-.124.05-.4.1q-.3.1-1.416.348L17.08,10.7,14.2,10.524l-2.31-.447L10.6,9.68A18.408,18.408,0,0,1,8.14,8.587L7.023,7.917Q6.4,7.495,5.98,7.147l-.149-.074-.1-.1-.248-.2L3.174,4.49.094.045Q.094-.03.045.02-.03.02.02.07l.5,1.192q.422.894.671,1.316L2.18,4.242A18.668,18.668,0,0,0,3.571,6.054l.869.919a11.159,11.159,0,0,0,.969.869A12.134,12.134,0,0,0,6.5,8.687l1.167.745,2.608,1.192a22.759,22.759,0,0,0,2.781.7l.671.1,3.353.124Z" fill="#4b0f18"/>
            </g>
          </g>
          <g id="Group_104570" data-name="Group 104570" transform="translate(43.93 75.173)">
            <g id="Group_104569" data-name="Group 104569" transform="translate(0 0)">
              <path id="Path_75705" data-name="Path 75705" d="M2.98,2.235V2.98h.745m-.745,0v.745M5.96,2.98,2.98,5.96,0,2.98,2.98,0Zm-3.725,0H2.98" transform="translate(0 0)" fill="none" stroke="rgba(0,0,0,0)" stroke-linecap="round" stroke-linejoin="round" stroke-width="0.091"/>
            </g>
          </g>
        </g>
        <g id="Group_104590" data-name="Group 104590" transform="matrix(0.962, 0.275, -0.275, 0.962, -285.364, -1636.633)">
          <g id="Group_104573" data-name="Group 104573" transform="translate(1.192 45.718)">
            <g id="Group_104572" data-name="Group 104572" transform="translate(0 0)">
              <path id="Path_75706" data-name="Path 75706" d="M17.259,35.387A207.678,207.678,0,0,0,23.716,3.775L4.917,0Q1.927,16.436,0,32.606Z" transform="translate(0 0)" fill="#e2ad98"/>
            </g>
          </g>
          <g id="Group_104575" data-name="Group 104575" transform="translate(1.167 70.079)">
            <g id="Group_104574" data-name="Group 104574" transform="translate(0 0)">
              <path id="Path_75707" data-name="Path 75707" d="M17.582,8.791A8.494,8.494,0,0,0,15,2.558,8.453,8.453,0,0,0,8.791,0,8.535,8.535,0,0,0,2.558,2.558,8.535,8.535,0,0,0,0,8.791,8.453,8.453,0,0,0,2.558,15a8.494,8.494,0,0,0,6.233,2.583A8.412,8.412,0,0,0,15,15,8.412,8.412,0,0,0,17.582,8.791Z" transform="translate(0 0)" fill="#e2ad98"/>
            </g>
          </g>
          <g id="Group_104578" data-name="Group 104578" transform="translate(4.768 42.614)">
            <g id="Group_104577" data-name="Group 104577" transform="translate(0 0)">
              <g id="Group_104576" data-name="Group 104576" transform="translate(0 0)">
                <path id="Path_75708" data-name="Path 75708" d="M1.564,0,0,10.206a29.157,29.157,0,0,0,19.2,3.6L20.86,4.371Z" fill="#c18770"/>
              </g>
            </g>
          </g>
          <g id="Group_104580" data-name="Group 104580" transform="translate(15.744 0)">
            <g id="Group_104579" data-name="Group 104579" transform="translate(0 0)">
              <path id="Path_75709" data-name="Path 75709" d="M29.154,14.577A14.044,14.044,0,0,0,24.883,4.271,14.044,14.044,0,0,0,14.577,0,14.044,14.044,0,0,0,4.271,4.271,14.044,14.044,0,0,0,0,14.577,14.044,14.044,0,0,0,4.271,24.883a14.044,14.044,0,0,0,10.306,4.271,14.044,14.044,0,0,0,10.306-4.271A14.044,14.044,0,0,0,29.154,14.577Z" fill="#7a2230"/>
            </g>
          </g>
          <g id="Group_104582" data-name="Group 104582" transform="translate(0.05 3.973)">
            <g id="Group_104581" data-name="Group 104581" transform="translate(0 0)">
              <path id="Path_75710" data-name="Path 75710" d="M34.17,48.176,44.451,14.031,20.264,0Q11.721,7.524,0,42.514,11.821,55.353,34.17,48.176Z" transform="translate(0 0)" fill="#7a2230"/>
            </g>
          </g>
          <g id="Group_104585" data-name="Group 104585" transform="translate(0 7.276)">
            <g id="Group_104584" data-name="Group 104584" transform="translate(0 0)">
              <g id="Group_104583" data-name="Group 104583" transform="translate(0 0)">
                <path id="Path_75711" data-name="Path 75711" d="M10.778,11.274A244.145,244.145,0,0,0,0,39.261q11.362,12.526,33.376,5.811Q8.592,46.488,5.339,37.5,3.352,32.035,17.334,0A63.857,63.857,0,0,0,10.778,11.274Z" fill="#4b0f18"/>
              </g>
            </g>
          </g>
          <g id="Group_104587" data-name="Group 104587" transform="translate(37.155 19.623)">
            <g id="Group_104586" data-name="Group 104586" transform="translate(0 0)">
              <path id="Path_75712" data-name="Path 75712" d="M6.7.045,3.521,7.892.119,21.65l-.1.77q-.05.05.025.05l.05-.025.546-1.589L6.774.07Q6.824.02,6.75.02,6.7-.03,6.7.045Z" fill="#4b0f18"/>
            </g>
          </g>
          <g id="Group_104589" data-name="Group 104589" transform="translate(27.341 11.597)">
            <g id="Group_104588" data-name="Group 104588" transform="translate(0 0)">
              <path id="Path_75713" data-name="Path 75713" d="M2.98,2.235V2.98h.745m-.745,0v.745M5.96,2.98,2.98,5.96,0,2.98,2.98,0Zm-3.725,0H2.98" transform="translate(0 0)" fill="none" stroke="rgba(0,0,0,0)" stroke-linecap="round" stroke-linejoin="round" stroke-width="0.091"/>
            </g>
          </g>
        </g>
        <g id="Group_104599" data-name="Group 104599" transform="matrix(0.976, -0.218, 0.218, 0.976, -319.378, -1558.881)">
          <g id="Group_104592" data-name="Group 104592" transform="matrix(0.978, 0.208, -0.208, 0.978, 13.469, 0)">
            <g id="Group_104591" data-name="Group 104591" transform="translate(0 0)">
              <path id="Path_75714" data-name="Path 75714" d="M19.577,7.3A36.154,36.154,0,0,0,16.771,0L.008,4.644Q-.017,6.531.033,8.418A352.573,352.573,0,0,0,3.46,50.138a118.938,118.938,0,0,1,1.192,14.6l11.9.05a120.875,120.875,0,0,1,.7-19.047q1.072-8.315,2.359-21.083T19.577,7.3Z" transform="translate(0)" fill="#e2ad98"/>
            </g>
          </g>
          <g id="Group_104594" data-name="Group 104594" transform="translate(4.497 59.036)">
            <g id="Group_104593" data-name="Group 104593" transform="translate(0 0)">
              <path id="Path_75715" data-name="Path 75715" d="M11.927,5.963a5.744,5.744,0,0,0-1.749-4.215A5.744,5.744,0,0,0,5.963,0,5.745,5.745,0,0,0,1.749,1.749,5.744,5.744,0,0,0,0,5.963a5.744,5.744,0,0,0,1.749,4.215,5.745,5.745,0,0,0,4.215,1.749,5.745,5.745,0,0,0,4.215-1.749A5.744,5.744,0,0,0,11.927,5.963Z" transform="translate(0 0)" fill="#e2ad98"/>
            </g>
          </g>
          <g id="Group_104596" data-name="Group 104596" transform="translate(5.396 8.273)">
            <g id="Group_104595" data-name="Group 104595" transform="translate(0 0)">
              <path id="Path_75716" data-name="Path 75716" d="M6.154,2.255,6.452.07Q6.5.02,6.427.02q-.05-.05-.05.025L3.795,13.9,2.23,25.474.02,51.1q-.05.05.025.05l.05-.025L6.079,2.8Q6.129,2.429,6.154,2.255Z" fill="#c18770"/>
            </g>
          </g>
          <g id="Group_104598" data-name="Group 104598" transform="translate(18.255 2.581)">
            <g id="Group_104597" data-name="Group 104597" transform="translate(0 0)">
              <path id="Path_75717" data-name="Path 75717" d="M2.98,2.235V2.98h.745m-.745,0v.745M5.96,2.98,2.98,5.96,0,2.98,2.98,0Zm-3.725,0H2.98" transform="translate(0)" fill="none" stroke="rgba(0,0,0,0)" stroke-linecap="round" stroke-linejoin="round" stroke-width="0.091"/>
            </g>
          </g>
        </g>
        <g id="Group_104604" data-name="Group 104604" transform="translate(-311.61 -1505.017) rotate(4.796)">
          <g id="Group_104601" data-name="Group 104601" transform="translate(0 0)">
            <g id="Group_104600" data-name="Group 104600" transform="translate(0 0)">
              <path id="Path_75718" data-name="Path 75718" d="M5.191,20.041a4.463,4.463,0,0,0,.919-2.334q-.621-7.649-.522-15.869A56.567,56.567,0,0,0,4.446,18.873q-.025.075.2,1.689l.546-.522M11.325.621q-.149.72-.3,1.416a59.964,59.964,0,0,0-.348,16.787q.2,1.763.546,3.551A4.345,4.345,0,0,0,12.79,19.42a4.14,4.14,0,0,0-.124-.6A80.968,80.968,0,0,1,11.276,2.235q0-.82.05-1.614M.9,11.5Q.87,10.207.87,7A25.628,25.628,0,0,1,2.062,0,16.332,16.332,0,0,0,.92,3.353,14.142,14.142,0,0,1,.473,4.867,18.885,18.885,0,0,0,0,9.71,16.009,16.009,0,0,1,.9,11.5Z" transform="translate(0.963 18.253)" fill="#c18770"/>
              <path id="Path_75719" data-name="Path 75719" d="M16.41,0q-.4,0-.795.025l-.075.124q-.05.025-.05.05A9.156,9.156,0,0,0,8.985,5.538Q7.346,8.1,5.31,12.019q-.447.72-.944,1.416a6.736,6.736,0,0,0-.422.72q-.72,1.068-1.267,2.012A19.781,19.781,0,0,0,.095,21.779q-.4,1.763.869,6.184a18.885,18.885,0,0,1,.472-4.843,14.142,14.142,0,0,0,.447-1.515,16.332,16.332,0,0,1,1.142-3.353,25.628,25.628,0,0,0-1.192,7q0,3.2.025,4.495l.025,1.937q.1.67.273,1.391.422,1.987.745,4.023l.075.1q1.416,2.682,2.632,1.614-.224-1.614-.2-1.689A56.567,56.567,0,0,1,6.552,20.09q-.1,8.22.522,15.869.025.6.074,1.167.224,2.086.7,4.669,2.93,2.012,4.346-1.167-.348-1.788-.546-3.551a59.964,59.964,0,0,1,.348-16.787q.149-.7.3-1.416-.05.795-.05,1.614a80.968,80.968,0,0,0,1.391,16.589,4.139,4.139,0,0,1,.124.6q.273,1.068.795,2.781,4.222-.571,5.19-3.477a8.878,8.878,0,0,0-.149-4.619q-1.689-9.511-.025-13.609,1.614-.4,1.416,4.1-.348,5.016,1.614,6.432a4.18,4.18,0,0,0,5.141.1q-1.813-8.394-.993-12.591.795-4.2.82-4.3-.4-1.018-.869-1.987A49.69,49.69,0,0,0,23.96,5.389q-.546-.894-1.068-1.589A8.794,8.794,0,0,0,19.415.869a2.225,2.225,0,0,0-.4-.2A5.319,5.319,0,0,0,16.41,0Z" fill="#e2ad98"/>
            </g>
          </g>
          <g id="Group_104603" data-name="Group 104603" transform="translate(14.225 2.906)">
            <g id="Group_104602" data-name="Group 104602" transform="translate(0 0)">
              <path id="Path_75720" data-name="Path 75720" d="M2.98,2.235V2.98h.745m-.745,0v.745M5.96,2.98,2.98,5.96,0,2.98,2.98,0Zm-3.725,0H2.98" transform="translate(0 0)" fill="none" stroke="rgba(0,0,0,0)" stroke-linecap="round" stroke-linejoin="round" stroke-width="0.091"/>
            </g>
          </g>
        </g>
        <g id="Group_104609" data-name="Group 104609" transform="translate(-224.803 -1672.995) rotate(16.386)">
          <g id="Group_104606" data-name="Group 104606" transform="translate(0 0)">
            <g id="Group_104605" data-name="Group 104605" transform="translate(0 0)">
              <path id="Path_75721" data-name="Path 75721" d="M19.941,28.211l.074-6.233a14.344,14.344,0,0,1-2.334-.944,33.757,33.757,0,0,1-4.644-2.955,40.7,40.7,0,0,1-4.2-3.651,22.631,22.631,0,0,1-3.452-4.47Q3.874,7.425,2.732,5.066A43.775,43.775,0,0,1,.646,0L0,27.913Z" transform="translate(0 16.788)" fill="#e2ad98"/>
              <path id="Path_75722" data-name="Path 75722" d="M19.2,8.816h-.124a9.1,9.1,0,0,0-2.757-6.035A9.138,9.138,0,0,0,9.611,0,9.249,9.249,0,0,0,2.856,2.781,9.209,9.209,0,0,0,.1,9.511q0,.273.025.546L0,16.788a43.775,43.775,0,0,0,2.086,5.066q1.142,2.359,2.657,4.892A22.631,22.631,0,0,0,8.2,31.216a40.7,40.7,0,0,0,4.2,3.651,33.757,33.757,0,0,0,4.644,2.955,14.344,14.344,0,0,0,2.334.944Z" transform="translate(0.646 0)" fill="#c18770"/>
            </g>
          </g>
          <g id="Group_104608" data-name="Group 104608" transform="translate(6.184 47.805)">
            <g id="Group_104607" data-name="Group 104607" transform="translate(0 0)">
              <path id="Path_75723" data-name="Path 75723" d="M2.98,2.235V2.98h.745m-.745,0v.745M5.96,2.98,2.98,5.96,0,2.98,2.98,0Zm-3.725,0H2.98" transform="translate(0 0)" fill="none" stroke="rgba(0,0,0,0)" stroke-linecap="round" stroke-linejoin="round" stroke-width="0.091"/>
            </g>
          </g>
        </g>
        <g id="Group_104719" data-name="Group 104719" transform="translate(-223.156 -1741.599) rotate(23.88)">
          <g id="Group_104610" data-name="Group 104610" transform="translate(28.176 62.036)">
            <path id="Path_75724" data-name="Path 75724" d="M19.011,9.506A9.115,9.115,0,0,1,16.22,16.22a9.115,9.115,0,0,1-6.714,2.791A9.175,9.175,0,0,1,2.773,16.22,9.145,9.145,0,0,1,0,9.506,9.205,9.205,0,0,1,2.773,2.773,9.205,9.205,0,0,1,9.506,0,9.145,9.145,0,0,1,16.22,2.773,9.175,9.175,0,0,1,19.011,9.506Z" transform="translate(0 0)" fill="none" stroke="red" stroke-linecap="round" stroke-linejoin="round" stroke-width="0.091"/>
          </g>
          <g id="Group_104624" data-name="Group 104624" transform="translate(16.962 16.341)">
            <g id="Group_104612" data-name="Group 104612" transform="translate(0 0)">
              <g id="Group_104611" data-name="Group 104611" transform="translate(0 0)">
                <path id="Path_75725" data-name="Path 75725" d="M49.693,8.518A28.048,28.048,0,0,0,29.105,0,28.048,28.048,0,0,0,8.518,8.518,28.048,28.048,0,0,0,0,29.105,28.006,28.006,0,0,0,4.445,44.676l.025.124Q14.928,59.431,29.8,61.364q17.585,1.728,27.441-11.92l.646-15.62-.149.621a29.5,29.5,0,0,0,.472-5.339A28.048,28.048,0,0,0,49.693,8.518Z" fill="#e2ad98"/>
              </g>
            </g>
            <g id="Group_104623" data-name="Group 104623" transform="translate(6.342 12.509)">
              <g id="Group_104614" data-name="Group 104614" transform="matrix(0.566, 0.824, -0.824, 0.566, 17.375, 0.217)">
                <g id="Group_104613" data-name="Group 104613" transform="translate(0 0)">
                  <path id="Path_75726" data-name="Path 75726" d="M3.179,1.118,0,0,.224,19.37l2.384,1.714Q9.508,10.5,3.179,1.118Z" fill="#c18770"/>
                </g>
              </g>
              <g id="Group_104616" data-name="Group 104616" transform="translate(15.884 1.175)">
                <g id="Group_104615" data-name="Group 104615" transform="translate(0 0)">
                  <path id="Path_75727" data-name="Path 75727" d="M8.642.373,1.714,6.283,0,10.48Q12.9,9.738,10.927,0Z" transform="translate(0 0)" fill="#c18770"/>
                </g>
              </g>
              <g id="Group_104618" data-name="Group 104618" transform="translate(25.048 1.05)">
                <g id="Group_104617" data-name="Group 104617" transform="translate(0 0)">
                  <path id="Path_75728" data-name="Path 75728" d="M9.561,12.889,9.735,7.8,4.569,0,0,1.44Q.393,9.837,9.561,12.889Z" transform="translate(0 0)" fill="#c18770"/>
                </g>
              </g>
              <g id="Group_104620" data-name="Group 104620" transform="translate(35.288 0) rotate(25.988)">
                <g id="Group_104619" data-name="Group 104619" transform="translate(0 0)">
                  <path id="Path_75729" data-name="Path 75729" d="M22.176,7.45l-2.136-3.6L0,0V5.687Q8.77,9.138,22.176,7.45Z" fill="#c18770"/>
                </g>
              </g>
              <g id="Group_104622" data-name="Group 104622" transform="translate(0.04 13.07)">
                <g id="Group_104621" data-name="Group 104621" transform="translate(0 0)">
                  <path id="Path_75730" data-name="Path 75730" d="M.7,0,0,13.385,4.2,17.93A89.536,89.536,0,0,0,5.24,0Z" transform="translate(0 0)" fill="#c18770"/>
                </g>
              </g>
            </g>
          </g>
          <g id="Group_104629" data-name="Group 104629" transform="translate(26.249 59.303)">
            <g id="Group_104626" data-name="Group 104626" transform="translate(0 0)">
              <g id="Group_104625" data-name="Group 104625" transform="translate(0 0)">
                <path id="Path_75731" data-name="Path 75731" d="M7.3,24.387q7.88,10.074,15.62,12.318t10.728.025Q39.981,26.3,45.744,17.558,51.508,8.84,47.234,0L0,1.068Q1.089,17.752,7.3,24.387Z" fill="#e2ad98"/>
              </g>
            </g>
            <g id="Group_104628" data-name="Group 104628" transform="translate(12.032 29.714)">
              <g id="Group_104627" data-name="Group 104627" transform="translate(0 0)">
                <path id="Path_75732" data-name="Path 75732" d="M25.417.857q.075-.075-.025-.075h-.05l-2.732,3.7-.025.075-.025.05-.075.1q-.5.671-.646.844l-.7.7-.124.1-.05.05-.05.025-.348.273-.5.273-.522.174a2.711,2.711,0,0,1-.571.1h-.074l-.05.025h-.5l-5.265-.5-.075-.025h-.1l-2.732-.671-.025-.025h-.05L9.375,5.8a12.06,12.06,0,0,1-1.267-.447L7.487,5.1l-.149-.074L7.264,5l-.074-.05-1.416-.72q-.894-.5-1.987-1.192L2.173,1.925.137.087.087.012Q.062-.012.012.012q-.025.05,0,.074l.05.075L1.4,1.577,3.588,3.34q1.167.82,1.962,1.291a12.4,12.4,0,0,0,1.118.646l.273.174.075.025,2.161.944.671.224.075.05h.05l.05.025,2.757.77h.05l.025.025h.025l.075.025,3.228.546q.5.05,1.44.149l1.44.05a4.072,4.072,0,0,0,1.465-.4l.621-.373.447-.4.075-.05.869-.944A7.641,7.641,0,0,0,23.158,5.1l.149-.248.1-.224Z" fill="#f0cbbc"/>
              </g>
            </g>
          </g>
          <g id="Group_104672" data-name="Group 104672" transform="translate(0 0)">
            <g id="Group_104631" data-name="Group 104631" transform="translate(0.024 0.206)">
              <g id="Group_104630" data-name="Group 104630" transform="translate(0 0)">
                <path id="Path_75733" data-name="Path 75733" d="M78.675,18.717Q70.008,10.3,63.153,9.5A17.39,17.39,0,0,0,63.6,1.731Q63.327-.678,61.539.266,42.988,13.4,26.25,17.6a37.762,37.762,0,0,0-14.13,8.617q-.88.847-1.714,1.763-.6-4.222-3.377-5.761Q2.286,20.083,3.453,23.51q1.813,3.775,2.93,5.662a8.194,8.194,0,0,0-4.346.149q-3.675,1.018-.72,2.98A25.654,25.654,0,0,0,6.06,34.387q.028.137.05.273a95.788,95.788,0,0,0,8.046,23.89l13.311,1.689a50.48,50.48,0,0,0-.522-19.42,17.328,17.328,0,0,0,3.079-.6q6.482-1.54,9.934-10.381a17.608,17.608,0,0,1-.7,7.872q-1.316,4.122,2.136,1.962a25.2,25.2,0,0,0,7.748-8.121,50.207,50.207,0,0,0,4.843,8.518q4.669,5.016,4.47-.4l.223-8,.149.2a18.852,18.852,0,0,0,3.055,3.328,30.882,30.882,0,0,0,3.874,2.757,24.184,24.184,0,0,0,3.725,1.813q2.459.894,4.346,1.44a21.248,21.248,0,0,0,3.055.7q1.167.124,1.341-1.167a10.6,10.6,0,0,0-.1-3.03q-.348-2.185-.82-4.346a29.384,29.384,0,0,0-1.291-4.247l-.149-.4q3.2,3.5,5.761,3.477Q85.032,25.919,78.675,18.717Z" fill="#540e00"/>
              </g>
            </g>
            <g id="Group_104633" data-name="Group 104633" transform="translate(58.844 21.32)">
              <g id="Group_104632" data-name="Group 104632" transform="translate(0 0)">
                <path id="Path_75734" data-name="Path 75734" d="M.012.012q-.025.05,0,.075L4.88,4.259q.323.273,1.714,1.614l3.5,3.651,4.594,5.761,2.558,4.122.3.6.05.05.323.671a.768.768,0,0,0,.447.373.847.847,0,0,0,.571-.05.677.677,0,0,0,.348-.447.756.756,0,0,0-.025-.571L19.234,20l-.4-.7-2.26-3.427-3.253-4.073a4.177,4.177,0,0,0-.422-.472l-2.21-2.359Q9.449,7.736,8.828,7.165L5.178,3.936.087.012Q.062-.012.012.012Z" fill="#2b0700"/>
              </g>
            </g>
            <g id="Group_104635" data-name="Group 104635" transform="translate(30.642 24.441)">
              <g id="Group_104634" data-name="Group 104634" transform="translate(0 0)">
                <path id="Path_75735" data-name="Path 75735" d="M7.08.02q-.05-.05-.05.025L5.466,5.781l-2.21,4.768-.2.3L2.983,11,1.666,12.909.2,14.6a.634.634,0,0,0-.2.522.664.664,0,0,0,.224.522.743.743,0,0,0,.546.224.815.815,0,0,0,.522-.248l.025-.05.248-.323.1-.1.348-.447,1.838-3,.075-.174.1-.149L5.938,6.328,7.1.243V.07Q7.155.02,7.08.02Z" fill="#2b0700"/>
              </g>
            </g>
            <g id="Group_104637" data-name="Group 104637" transform="translate(22.555 32.463)">
              <g id="Group_104636" data-name="Group 104636" transform="translate(0 0)">
                <path id="Path_75736" data-name="Path 75736" d="M8.86.02q-.05-.05-.05.025L6.377,4.217,5.309,5.707,2.9,8.24l-.77.6-.1.05-.075.075-.422.273-.075.025-.224.149-.075.025-.174.1-.075.025L.64,9.705.566,9.73.441,9.8H.417a.677.677,0,0,0-.373.422.756.756,0,0,0,.025.571.677.677,0,0,0,.422.373.756.756,0,0,0,.571-.025l.2-.1L1.336,11l.025-.025.05-.025.224-.149.075-.025L2.23,10.4l.075-.075.074-.05.373-.3L2.826,9.9l.1-.075a6.8,6.8,0,0,0,.77-.745l.795-.869L5.781,6.427l.075-.149.1-.124L7.171,3.993,8.885.07Q8.935.02,8.86.02Z" fill="#2b0700"/>
              </g>
            </g>
            <g id="Group_104639" data-name="Group 104639" transform="translate(49.039 31.63)">
              <g id="Group_104638" data-name="Group 104638" transform="translate(0 0)">
                <path id="Path_75737" data-name="Path 75737" d="M.132.033a.081.081,0,0,0-.1-.025q-.05.075-.025.1L1.424,3.361,4.3,8.4l.944,1.043.223.2.124.075.224.2.646.447.124.05.1.075.422.2.1.025.273.124.174.05h.075l.472.1h.273a.066.066,0,0,0,.075-.075l-.025-.05H8.5l-.1-.124-.447-.4-.1-.124-.124-.1-.075-.075-.05-.075L7.26,9.594,4.9,6.738a10.411,10.411,0,0,1-.82-.969Z" fill="#2b0700"/>
              </g>
            </g>
            <g id="Group_104641" data-name="Group 104641" transform="translate(26.696 29.822)">
              <g id="Group_104640" data-name="Group 104640" transform="translate(0 0)">
                <path id="Path_75738" data-name="Path 75738" d="M12.963.649,12.889.8l-.149.4a2.641,2.641,0,0,0-.2.447l-.074.1-.174.4-.074.124-.05.124-.223.422-.1.149-.149.3-.4.6a10.771,10.771,0,0,1-.869,1.217L9.338,6.261q-.7.646-1.242,1.068A12.78,12.78,0,0,1,6.705,8.2l-.72.373L5.96,8.6l-.05.025-.1.025L.248,11.054l-.2.1q-.05,0-.05.1l.074.025.323.05H.546l.149.025H1.838l1.887-.273.72-.2a8.4,8.4,0,0,0,1.515-.571L7.1,9.639,8.841,8.248a13.552,13.552,0,0,0,1.267-1.291,13.932,13.932,0,0,0,1.018-1.366l.522-.869.05-.1.05-.074.323-.7.1-.149.2-.5.075-.149.05-.174.323-.844.025-.149.05-.124L13.187.7l.025-.149.075-.224L13.311.1q.074-.075-.05-.075-.075-.075-.075.05Z" fill="#2b0700"/>
              </g>
            </g>
            <g id="Group_104643" data-name="Group 104643" transform="translate(75.165 27.64)">
              <g id="Group_104642" data-name="Group 104642" transform="translate(0 0)">
                <path id="Path_75739" data-name="Path 75739" d="M6.588,4.669v-.05L6.365,4.3,6.29,4.222l-.025-.05V4.147H6.24V4.122l-.522-.546L4.527,2.732l-1.167-.5L1.621,1.242.752.621.28.174.255.124.206.1.156.025a.062.062,0,0,0-.1,0q-.1,0-.025.075L.057.174l.025.05L.106.3l.273.5.7.919L3.31,3.725a4.424,4.424,0,0,0,.621.447l.149.075.074.05.075.025.323.149.671.2H5.3l.621.1.6-.025Q6.638,4.743,6.588,4.669Z" fill="#2b0700"/>
              </g>
            </g>
            <g id="Group_104645" data-name="Group 104645" transform="translate(38.704 29.532)">
              <g id="Group_104644" data-name="Group 104644" transform="translate(0 0)">
                <path id="Path_75740" data-name="Path 75740" d="M1.949,1.113l-.025-.074-.4-.72L1.5.243l-.124-.2q0-.075-.1-.025L1.254.07,1.229.094,1.155.368l-.1,1.614L1.18,3.1v.05l.025.025v.149l.025.025v.174l.025.1V3.77l.025.075v.1l.025.447.025.124v.124a4.812,4.812,0,0,1-.1.993q-.05.273-.248.993l-.124.348L.832,7.1l-.2.546-.025.025v.025l-.149.348-.4,1.366-.05.422a1.4,1.4,0,0,0,0,.373l.05.348.149.3L.41,11l.1.05H.584v.025H.733q.074.05.075-.05,0-.074-.05-.075l-.025-.025H.683L.658,10.9H.633v-.025H.584l-.05-.05-.1-.149a.441.441,0,0,1-.05-.2.621.621,0,0,1,0-.248l.2-.671.795-1.49V8.041H1.4V8.016l.05-.05L1.949,7q.1-.2.447-1.068l.174-.571L2.6,5.235l.05-.149.05-.3.05-.149.05-.3.025-.671L2.794,3.6V3.447l-.075-.422L2.645,2.8v-.05L2.223,1.709l-.025-.1-.05-.075L2,1.187Z" fill="#2b0700"/>
              </g>
            </g>
            <g id="Group_104647" data-name="Group 104647" transform="translate(11.324 40.479)">
              <g id="Group_104646" data-name="Group 104646" transform="translate(0 0)">
                <path id="Path_75741" data-name="Path 75741" d="M.2.025.149,0,.1.1.075.174V.3L.05.422V.571L.025.745v.1L0,.919v.671l.025.074.025.422.025.124v.149l.5,1.987.174.4.05.075.025.1.1.149.149.3.025.025.05.074.05.05.05.025.025-.05V5.24l-.05-.447v-.1l-.025-.1-.075-.646-.05-.224-.025-.248L.671,1.614l-.025-.05v-.05L.323.4.3.273.273.224V.174L.224.1Z" transform="translate(0 0)" fill="#2b0700"/>
              </g>
            </g>
            <g id="Group_104649" data-name="Group 104649" transform="translate(15.198 41.15)">
              <g id="Group_104648" data-name="Group 104648" transform="translate(0 0)">
                <path id="Path_75742" data-name="Path 75742" d="M3.2.373,3.129.944l.124,2.781.4,2.359L2.632,4.967l-.074-.05-.124-.149-.3-.273-.05-.075-.075-.05L.77,3.253.7,3.2l-.621-.5q-.016-.016-.05,0H0v.075L.1,3l.025.1.05.074.5,1.465.075.174L1.44,7.7v.05l.025.05.025.124.025.248.05.224.2,1.366.05.224.323,2.384v.1l.025.074.05.273.05.025.025-.05.05-.248v-.1l.025-.1.1-1.565-.273-3.1V7.6l-.025-.05L1.714,5.761l-.05-.1L1.44,5.016l-.373-.77.447.571.075.075.05.074.4.447.05.074L4.048,7.5l.546-.3-.149-.447-.025-.1-.05-.1-.82-3.328L3.328,1.416V.05Q3.377,0,3.3,0l-.05.025L3.2.248Z" transform="translate(0 0)" fill="#2b0700"/>
              </g>
            </g>
            <g id="Group_104651" data-name="Group 104651" transform="translate(58.351 31.307)">
              <g id="Group_104650" data-name="Group 104650" transform="translate(0 0)">
                <path id="Path_75743" data-name="Path 75743" d="M.108.331.182.455.207.53l.77,1.291.4.546.124.124.1.149.075.075.05.075.273.3q.77.82,1.242,1.242L4.752,5.571A18.8,18.8,0,0,0,6.49,6.738l3.775,2.036.124.074L13.1,9.967l1.142.348,4.47.82h.149l.149.025h.273a.066.066,0,0,0,.074-.075l-.05-.05L16.423,9.693q-.124-.05-.174-.075l-.174-.1-1.391-.546-.2-.1L11.059,7.583l-.124-.025-2.061-.82L8.65,6.614,6.763,5.72,3.684,3.783A15.019,15.019,0,0,1,2.367,2.715L2.02,2.392.977,1.25.132.033a.081.081,0,0,0-.1-.025q-.05.075-.025.1Z" fill="#300"/>
              </g>
            </g>
            <g id="Group_104653" data-name="Group 104653" transform="translate(20.965 41.92)">
              <g id="Group_104652" data-name="Group 104652" transform="translate(0 0)">
                <path id="Path_75744" data-name="Path 75744" d="M4.242.124q.05-.05-.025-.074L4.142.025,3.4,0,3.2.025,3.124.05h-.1l-.2.05h-.1L2.255.248l-.1.05h-.05l-.05.025L1.858.4l-.3.149L1.485.6l-.2.1L1.038.869.988.894.74,1.118l-.075.05-.124.124-.075.05-.323.4-.025.025-.025.05-.05.05L.02,1.937q-.05.05.025.075l.149.05h.05l.05.025.4.05H.864l.2-.025h.174l.2-.025.05-.025h.05l.522-.124.149-.075h.05l.7-.348.075-.075.174-.1.1-.074.025-.025.05-.025.149-.149.075-.05.2-.2.05-.075L3.894.7,4.142.348,4.217.2Z" transform="translate(0)" fill="#2b0700"/>
              </g>
            </g>
            <g id="Group_104655" data-name="Group 104655" transform="translate(0 30.794)">
              <g id="Group_104654" data-name="Group 104654" transform="translate(0 0)">
                <path id="Path_75745" data-name="Path 75745" d="M1.018.05.6,0,.05.025,0,.1v.05l.2.4L.248.6V.621L.6,1.043l.5.472.124.1.124.075.05.05.2.124L6.035,3.874q.05.05.1-.05L6.109,3.75l-.224-.224-.1-.124-.149-.124-.323-.323L2.881.919a3.254,3.254,0,0,0-.522-.4L2.161.4,1.267.1h-.05L1.142.075Z" transform="translate(0 0)" fill="#2b0700"/>
              </g>
            </g>
            <g id="Group_104657" data-name="Group 104657" transform="translate(3.228 22.231)">
              <g id="Group_104656" data-name="Group 104656" transform="translate(0 0)">
                <path id="Path_75746" data-name="Path 75746" d="M1.068.839.646.392H.621V.368H.6L.571.318l-.1-.05L.174.02Q.124-.03.05.045L.025.467,0,.566l.025.6.025.124v.149l.149.6.025.174L.3,2.429l.05.1.05.149L2.831,6.75l.1.2.3.447q.075.075.1.025a.081.081,0,0,0,.025-.1L1.838,2.056l-.075-.149-.05-.075-.025-.075-.1-.149L1.515,1.46l-.348-.5-.05-.05Z" transform="translate(0 0)" fill="#2b0700"/>
              </g>
            </g>
            <g id="Group_104659" data-name="Group 104659" transform="translate(6.084 34.643)">
              <g id="Group_104658" data-name="Group 104658" transform="translate(0 0)">
                <path id="Path_75747" data-name="Path 75747" d="M.025,0,0,.075.273,2.434l.05.174.671,3.3q.174.77.571,2.061L3.874,14.6q.3.919.795,2.161l2.856,6.606.447.72q.075.074.1.025.075-.05.025-.1l-.124-.248L7.4,22.35,7.326,22.2,7.2,21.879,3.353,8.617,1.416,2.906.273.3.124.05Q.124,0,.025,0Z" transform="translate(0 0)" fill="#2b0700"/>
              </g>
            </g>
            <g id="Group_104661" data-name="Group 104661" transform="translate(60.967 9.243)">
              <g id="Group_104660" data-name="Group 104660" transform="translate(0 0)">
                <path id="Path_75748" data-name="Path 75748" d="M19.768,11.294l-.248-.323-.05-.1L19.4,10.8l-.5-.671-.248-.273-.025-.05L17.111,8.339q-.4-.373-1.242-1.068L13.236,5.285a.489.489,0,0,1-.174-.124L10.53,3.571Q9.04,2.7,7.9,2.18l-1.565-.7-.174-.05-.025-.025h-.05l-.074-.05L3.253.517Q2.434.343,1.54.194L.05.02Q0-.03,0,.045l.025.05,4,1.416,1.316.621.149.05.149.075.074.05h.025l.025.025L7.376,3.2q.894.5,2.459,1.515L16.44,9.705l1.366,1.341.472.571.074.075.248.373.124.149,1.142,2.036.05.174.348.795.1.323.05.075v.025l.025.05.124.4.025.025v.05l.447,1.813V18.1l.1.7v.149l.025.248.025.075v.7a8,8,0,0,1-.174,1.664l-.2.969-.05.1-.1.373q-.05.05.025.05.05.05.05-.025l.2-.348.025-.025.373-.82.224-.745.05-.1.248-1.291.025-.422.025-.075v-.348l.025-.149-.05-1.391L21.7,16.236l-.05-.174-.025-.174v-.05l-.025-.05-.025-.075-.074-.348-.025-.025v-.05l-.447-1.416-.05-.1-.05-.174Z" fill="#812511"/>
              </g>
            </g>
            <g id="Group_104663" data-name="Group 104663" transform="translate(60.644 13.552)">
              <g id="Group_104662" data-name="Group 104662" transform="translate(0 0)">
                <path id="Path_75749" data-name="Path 75749" d="M3.651,2.341.074.032Q0-.043,0,.057v.05L5.861,5.545Q7.2,6.886,7.872,7.606l3.377,4.023.571.795q.6.82.894,1.316l1.416,2.334.074.174.05.075,1.54,3.427q.074.224.224.646l.373,1.118.025.149.248.894.025.149.05.149.646,4.694.025.6a.044.044,0,0,0,.05.05l.025-.025.074-.4a10.521,10.521,0,0,0,.124-1.093l.05-.373.025-2.136-.323-2.757-.05-.149-.025-.174-.646-2.434-1.167-2.881L15.5,15.7l-.025-.1L14.8,14.336l-3-4.42L10.728,8.7,10.6,8.525,9.089,6.961l-.124-.149-.149-.124Q7.773,5.644,6.631,4.7Z" transform="translate(0 0)" fill="#812511"/>
              </g>
            </g>
            <g id="Group_104665" data-name="Group 104665" transform="translate(49.866 21.163)">
              <g id="Group_104664" data-name="Group 104664" transform="translate(0 0)">
                <path id="Path_75750" data-name="Path 75750" d="M0,.045l.025.05L.77.641l.1.05.2.174.124.075.223.2.124.075.124.124.4.323.2.2.074.05L3.75,3.447l.894,1.267.174.323.074.1.025.05.05.05.2.348v.025l.025.025.671,1.341.075.124L6.8,9.258l.025.05.894,3.328.025.05v.075l.075.4v.05h.025v.074l.05.248.3,2.682v.224l.025.124.025,1.167.025.2-.05,3.154q-.05.05.025.05l.05-.025.472-1.54.05-.323.05-.149.348-2.409v-.124l.025-.1.025-.969q.025-.894-.05-2.111l-.025-.273v-.124l-.025-.025v-.124l-.05-.273v-.149L8.617,10,7.6,7.247,6.333,4.937l-.05-.05L6.059,4.54l-.025-.05-.05-.05L5.91,4.316l-.5-.646L3.849,2.081l-.2-.149-.074-.075-.1-.05-.671-.5-.1-.05L2.161.914Q1.912.765,1.043.368l-.1-.05L.844.293.646.219l-.1-.05L.05.02Q0-.03,0,.045Z" transform="translate(0 0)" fill="#812511"/>
              </g>
            </g>
            <g id="Group_104667" data-name="Group 104667" transform="translate(40.082 24.461)">
              <g id="Group_104666" data-name="Group 104666" transform="translate(0 0)">
                <path id="Path_75751" data-name="Path 75751" d="M8.866.05l-.05.224L8.692,1.341l-.025.124v.124L8.1,5.165l-.6,2.26-.149.4-.05.224-.05.1-.025.1-.1.2-.075.224-.745,1.589-.5.82-.05.1-.894,1.167q-.447.522-1.093,1.142l-.571.5-.149.1L2.93,14.2l-.3.2-.05.05-.6.422L.025,16.018,0,16.067q0,.075.05.025l.5-.075H.621l.745-.174.124-.05.124-.025.844-.3.472-.224.1-.025.074-.05A12.215,12.215,0,0,0,4.47,14.4a12.8,12.8,0,0,0,1.366-1.142l.323-.348.1-.075.82-1.043a9.712,9.712,0,0,0,.969-1.689l.6-1.49.025-.124L8.99,7.351l.323-2.21.025-.621.025-.2L9.213,1.589V1.465L8.94.025,8.891,0Z" transform="translate(0 0)" fill="#812511"/>
              </g>
            </g>
            <g id="Group_104669" data-name="Group 104669" transform="translate(61.34 0)">
              <g id="Group_104668" data-name="Group 104668" transform="translate(0 0)">
                <path id="Path_75752" data-name="Path 75752" d="M1.639,0H1.316l-.05.025h-.1l-.1.025L.6.224.2.472l-.05.05-.124.1a.062.062,0,0,0,0,.1l.05.025H.1L.224.77H.373l.1.025H.6L.7.82H.77L.82.844l.273.05.05.025.074.025.025.025h.025l.074.025.05.025.074.075H1.49l.05.05.248.4.1.3v.1l.3,1.639V3.7l.025.124L1.689,9.536V9.66q-.075.075.05.075.074,0,.075-.05l.2-.447,1.192-4,.348-2.757L3.377,1.49,3.3,1.341l-.05-.149-.074-.124L3.154.993,3,.795A2.945,2.945,0,0,0,2.583.323Q2.533.3,2.036.075Z" fill="#812511"/>
              </g>
            </g>
            <g id="Group_104671" data-name="Group 104671" transform="translate(3.998 21.754)">
              <g id="Group_104670" data-name="Group 104670" transform="translate(0 0)">
                <path id="Path_75753" data-name="Path 75753" d="M.3,0,.05.05,0,.1.025.124.248.273.323.3l.745.447L1.093.77l.1.05.149.1L1.49.993l.273.2.05.025.025.025.075.05,1.043.844.075.075.075.05.646.671L3.8,3l.149.149.248.323.025.05.025.025.124.174.075.075.1.174.124.149.522.82.075.149.273.422.075.149.1.124.546.919.05.025.025-.05.025-.124V6.432l.025-.1-.025-.919L6.01,3.924,5.96,3.8l-.025-.1L5.389,2.657a8.272,8.272,0,0,0-.6-.795L4.445,1.49,3.452.745l-.2-.1-.1-.075L2.93.472l-.1-.025L2.583.323h-.05l-.1-.05-.1-.025L2.285.224h-.05l-.2-.074-.2-.025L1.664.074,1.316.025Z" transform="translate(0 0)" fill="#812511"/>
              </g>
            </g>
          </g>
          <g id="Group_104679" data-name="Group 104679" transform="translate(10.264 49.583)">
            <g id="Group_104674" data-name="Group 104674" transform="translate(0 4.014) rotate(-15.965)">
              <g id="Group_104673" data-name="Group 104673" transform="translate(0 0)">
                <path id="Path_75754" data-name="Path 75754" d="M11.991,3.112A6.519,6.519,0,0,0,7.372.057Q4.455-.405,2.107,2.864a12.748,12.748,0,0,0-2.086,8.17,16.037,16.037,0,0,0,2.558,8.294,15.775,15.775,0,0,0,5.141,5.016,35.208,35.208,0,0,0,4.495,1.813q.248-1.274,1.54-5.215a22.012,22.012,0,0,0,.6-9.561Q13.674,5.726,11.991,3.112Z" fill="#e2ad98"/>
              </g>
            </g>
            <g id="Group_104676" data-name="Group 104676" transform="translate(5.406 6.07)">
              <g id="Group_104675" data-name="Group 104675" transform="translate(0 0)">
                <path id="Path_75755" data-name="Path 75755" d="M.075,1.118l.3-.1.1-.05L.6.944l.273-.1H.944L1.217.77,1.391.745,1.49.72h.1l.4-.05L2.434.7l.447.1a4.1,4.1,0,0,1,.894.373l.447.323.2.174.05.025.348.348.919,1.142L6.854,5.016l.05.124L8.1,7.475l.05.075.174.373.075.1.075.174.075.124q0,.075.05.025.075,0,.025-.05l-.075-.571-.3-1.217L7.326,3.973,6.184,2.086,5.29,1.118a.269.269,0,0,1-.124-.1l-.4-.3-.7-.4L3.924.273,3.775.2,3.626.149,3.03.025H2.881L2.732,0H2.459L1.565.149,1.416.224h-.05l-.1.05-.2.075L.273.82,0,1.043v.075Z" transform="translate(0 0)" fill="#c18770"/>
              </g>
            </g>
            <g id="Group_104678" data-name="Group 104678" transform="translate(3.512 1.823)">
              <g id="Group_104677" data-name="Group 104677" transform="translate(0 0)">
                <path id="Path_75756" data-name="Path 75756" d="M4.13,0,3.161.174,2.689.323l-.075.05-.149.05-.075.05-.149.05-.075.05L2.093.6,1.671.869l-.05.025L1.547.969,1.5.993l-.025.025-.447.348L.5,1.987l-.075.124-.1.124-.3.546q-.075.075.025.075h.05l.571-.522L.8,2.26l.1-.1.124-.075.124-.1.72-.422h.025l.075-.05h.025l.025-.025.472-.174.05-.025.149-.05.05-.025h.075l.149-.05h.05l.075-.025h.075l.075-.025h.05l.075-.025.149-.025h.124l.3-.05H4.2q.27,0,.745.05l1.167.224.273.075h.05l.025.025h.025l.72.273.72.4a1.231,1.231,0,0,1,.323.224l.1.05.075.05.075.075.1.05.075.075.075.05.472.4.894.944.05.1.075.075L11.48,5.96v.025l.025.025.025.05.174.248,1.664,2.93q0,.074.05.025.075,0,.025-.05L11.878,5.786l-.025-.025V5.737L10.785,3.9l-.124-.174-.05-.1L9.394,2.21l-.248-.224L9.1,1.962l-.025-.025-.1-.075L8.9,1.788l-.1-.075-.075-.075-.348-.248a5.376,5.376,0,0,0-.77-.472l-.795-.4L6.787.5H6.762L6.613.422l-.646-.2A6.2,6.2,0,0,0,5.073.05,5.907,5.907,0,0,0,4.179,0Z" transform="translate(0)" fill="#f0cbbc"/>
              </g>
            </g>
          </g>
          <g id="Group_104686" data-name="Group 104686" transform="translate(52.399 48.389)">
            <g id="Group_104681" data-name="Group 104681" transform="translate(0 0)">
              <g id="Group_104680" data-name="Group 104680" transform="translate(0 0)">
                <path id="Path_75757" data-name="Path 75757" d="M1.863,21.443q7.23,4.551,9.238-2.608l.1-1.49-2.906-3.1A35.529,35.529,0,0,1,7.425.98Q5.108-1.5,3.924,2.3L0,19.506A3.511,3.511,0,0,0,1.863,21.443Z" fill="#e2ad98"/>
              </g>
            </g>
            <g id="Group_104683" data-name="Group 104683" transform="translate(6.172 1.03)">
              <g id="Group_104682" data-name="Group 104682" transform="translate(0 0)">
                <path id="Path_75758" data-name="Path 75758" d="M.011,8.692a30.73,30.73,0,0,0,.422,3.6Q.764,14,.806,14.081q1.515,1.267,2.558,2.136A2.727,2.727,0,0,1,4.357,18.7a2.53,2.53,0,0,1-.993,1.788,2.992,2.992,0,0,0,2.061-2.533A2.577,2.577,0,0,0,4.01,15.3q-1.591-.921-2.459-1.49l.273-.522-.149-.224-.6.025.646-.05L.732,7.872l.075-3.75L1.253,0A21.117,21.117,0,0,0,.309,3.973,27.53,27.53,0,0,0,.011,8.692Z" transform="translate(0)" fill="#f0cbbc"/>
              </g>
            </g>
            <g id="Group_104685" data-name="Group 104685" transform="translate(0.025 1.03)">
              <g id="Group_104684" data-name="Group 104684" transform="translate(0 0)">
                <path id="Path_75759" data-name="Path 75759" d="M7.45,0,7.4.025,6.929,4.271,6.9,5.985l-.025.1.025.1.075,2.583.5,4.023.174.82a.454.454,0,0,0,.2.323l.6.373L9.76,15.4l.621.77.075.149.1.124.124.273.05.074.174.522.025.149v.075l.025.074.025.248q.009-.034.025-.075l-.025.149v-.075q-.25.65-.273.72a3.134,3.134,0,0,1-.373.745,4.187,4.187,0,0,1-.472.671,7,7,0,0,1-.6.571,4.1,4.1,0,0,1-.7.447,4.6,4.6,0,0,1-.77.323,5.4,5.4,0,0,1-.82.2l-.422.075h-.1l-.124.025h-.1l-.1.025H5.488l-.224-.025a3.159,3.159,0,0,1-.844-.124,5.3,5.3,0,0,1-.844-.224l-.795-.348-1.44-1.018L.7,19.3a4.166,4.166,0,0,1-.621-.671Q.05,18.6,0,18.625V18.7l.522.745a5.172,5.172,0,0,0,.6.7,7.964,7.964,0,0,0,.671.646l.745.546.844.472.869.323.944.2.472.05h.969l.472-.05a8.951,8.951,0,0,0,.944-.2,3.707,3.707,0,0,0,.919-.348,3.949,3.949,0,0,0,.844-.5,3.549,3.549,0,0,0,.72-.671l.621-.795a6.525,6.525,0,0,0,.447-.844,7.888,7.888,0,0,0,.323-.919l.025-.149-.025-.522-.174-.7-.124-.273-.025-.1-.4-.7-.745-.919-.919-.82-.248-.149-.149-.124-.621-.4L7.624,7V6.9L7.6,6.8l-.025-.621-.025-.124-.025-.72L7.5,5.215,7.475,3.849l-.025-.2L7.475.05Q7.525,0,7.45,0Z" fill="#a97059"/>
              </g>
            </g>
          </g>
          <g id="Group_104705" data-name="Group 104705" transform="translate(35.914 49.668)">
            <g id="Group_104691" data-name="Group 104691" transform="translate(29.42 4.808)">
              <g id="Group_104688" data-name="Group 104688" transform="translate(0 0)">
                <g id="Group_104687" data-name="Group 104687">
                  <path id="Path_75760" data-name="Path 75760" d="M6.051,3.95a4.459,4.459,0,0,0-.894-2.8A2.612,2.612,0,0,0,3.026,0,2.651,2.651,0,0,0,.879,1.148,4.51,4.51,0,0,0,0,3.95,4.447,4.447,0,0,0,.879,6.737,2.642,2.642,0,0,0,3.026,7.9,2.6,2.6,0,0,0,5.157,6.737,4.4,4.4,0,0,0,6.051,3.95Z" fill="#231915"/>
                </g>
              </g>
              <g id="Group_104690" data-name="Group 104690" transform="translate(3.248 5.246)">
                <g id="Group_104689" data-name="Group 104689" transform="translate(0 0)">
                  <path id="Path_75761" data-name="Path 75761" d="M1.462.925A1.123,1.123,0,0,0,1.223.254.6.6,0,0,0,.7,0,.638.638,0,0,0,.195.284,1.152,1.152,0,0,0,0,.984a1.014,1.014,0,0,0,.238.656.624.624,0,0,0,.537.268.59.59,0,0,0,.492-.3A1.055,1.055,0,0,0,1.462.925Z" fill="#fff"/>
                </g>
              </g>
            </g>
            <g id="Group_104693" data-name="Group 104693" transform="translate(24.552 1.472)">
              <g id="Group_104692" data-name="Group 104692" transform="translate(0 0)">
                <path id="Path_75762" data-name="Path 75762" d="M11.54,6.07a5.218,5.218,0,0,0-1.082-2.224A15.31,15.31,0,0,0,3.937,0,30.261,30.261,0,0,0,0,6.251q2-.109,5.019.03A39.913,39.913,0,0,0,11.54,6.07Z" transform="translate(0 0)" fill="#e2ad98"/>
              </g>
            </g>
            <g id="Group_104695" data-name="Group 104695" transform="translate(24.582 7.453)">
              <g id="Group_104694" data-name="Group 104694" transform="translate(0 0)">
                <path id="Path_75763" data-name="Path 75763" d="M8.865,0l-.21.03L5.68,0a3.307,3.307,0,0,1-.511.03h-2.7l-.21.03H1.472l-.09.03h-.27L.541.15.421.18H.331L.06.24,0,.3l.03.03.12.06L.3.421l.751.21.18.03h.06v.03l.09.03L3.1,1.052h.12l.12.03,3.155.12.24-.03H7l1.022-.12h.12L10.939.3l.09-.06L11.3.12l.03-.06-.06-.03L11.149,0Z" transform="translate(0 0)" fill="#231915"/>
              </g>
            </g>
            <g id="Group_104700" data-name="Group 104700" transform="translate(6.13 4.808)">
              <g id="Group_104697" data-name="Group 104697" transform="translate(0 0)">
                <g id="Group_104696" data-name="Group 104696">
                  <path id="Path_75764" data-name="Path 75764" d="M6.051,3.95a4.459,4.459,0,0,0-.894-2.8A2.612,2.612,0,0,0,3.026,0,2.651,2.651,0,0,0,.879,1.148,4.51,4.51,0,0,0,0,3.95,4.447,4.447,0,0,0,.879,6.737,2.642,2.642,0,0,0,3.026,7.9,2.6,2.6,0,0,0,5.157,6.737,4.4,4.4,0,0,0,6.051,3.95Z" fill="#231915"/>
                </g>
              </g>
              <g id="Group_104699" data-name="Group 104699" transform="translate(3.248 5.246)">
                <g id="Group_104698" data-name="Group 104698" transform="translate(0 0)">
                  <path id="Path_75765" data-name="Path 75765" d="M1.462.925A1.123,1.123,0,0,0,1.223.254.6.6,0,0,0,.7,0,.638.638,0,0,0,.195.284,1.152,1.152,0,0,0,0,.984a1.014,1.014,0,0,0,.238.656.624.624,0,0,0,.537.268.59.59,0,0,0,.492-.3A1.055,1.055,0,0,0,1.462.925Z" fill="#fff"/>
                </g>
              </g>
            </g>
            <g id="Group_104702" data-name="Group 104702" transform="translate(0 0)">
              <g id="Group_104701" data-name="Group 104701" transform="translate(0 0)">
                <path id="Path_75766" data-name="Path 75766" d="M7.122,0A15.914,15.914,0,0,0,5.409.992,16.043,16.043,0,0,0,0,6.882a11.905,11.905,0,0,1,2.464.361A16.408,16.408,0,0,0,7.9,7.212a34.812,34.812,0,0,1,6.822-.18,4.294,4.294,0,0,0-1.442-2.795A65.726,65.726,0,0,0,7.122,0Z" fill="#e2ad98"/>
              </g>
            </g>
            <g id="Group_104704" data-name="Group 104704" transform="translate(0.09 6.822)">
              <g id="Group_104703" data-name="Group 104703" transform="translate(0 0)">
                <path id="Path_75767" data-name="Path 75767" d="M13.914.391l.12-.06.361-.12.03-.06-.06-.03-.15-.03-2.1-.03A2.97,2.97,0,0,0,11.6.03H10.458A4.856,4.856,0,0,0,9.827,0L4.267.03l-.15.03h-.18a3.854,3.854,0,0,0-.571.03H2.795a3.307,3.307,0,0,1-.511.03A2.723,2.723,0,0,0,1.8.15H1.172L.992.18H.511L.391.21H.18L.03.24,0,.3l.03.03.9.27.18.03.21.06,3.215.421H9.226a4.856,4.856,0,0,0,.631-.03l.331-.03h.15l.15-.03.871-.09Z" transform="translate(0 0)" fill="#231915"/>
              </g>
            </g>
          </g>
          <g id="Group_104710" data-name="Group 104710" transform="translate(43.999 76.985)">
            <g id="Group_104707" data-name="Group 104707" transform="translate(0.452 0)">
              <g id="Group_104706" data-name="Group 104706" transform="translate(0 0)">
                <path id="Path_75768" data-name="Path 75768" d="M10.168,1.156l.217.036H10.6l1.77.325.217.072.722.181q.108.036.361.108L17.1,3.106l.144.036.217.108.217.072q.072.072.072-.036.072-.072-.036-.072l-.144-.144-.831-.578-2.131-1.12-.144-.108L12.841.65,12.624.614,12.444.542,12.01.433,11.83.361,9.879.036H9.41L9.3,0H7.929L7.82.036H7.6L7.387.072H7.206L3.955.686Q3.739.759,3.269.9l-.65.217a8.643,8.643,0,0,0-1.12.506l-.108.036-.722.4-.65.506q-.036.072,0,.108H.126L.668,2.42l.181-.036,1.084-.4,2.781-.578h.181l.181-.036,2.6-.253.217-.036Z" fill="#231915"/>
              </g>
            </g>
            <g id="Group_104709" data-name="Group 104709" transform="translate(0 1.084)">
              <g id="Group_104708" data-name="Group 104708" transform="translate(0 0)">
                <path id="Path_75769" data-name="Path 75769" d="M.4.108V.144L.289.289.217.361V.433L.181.47.144.578.072.722,0,1.011v.361l.072.361.144.325.072.108.181.181a.4.4,0,0,0,.253.144l.4.144h.108l.181.036h.108l.108-.108-.072-.072-.072-.036L1.264,2.24H1.228L.939,1.914.9,1.842.867,1.806V1.77L.686,1.3V1.156L.65,1.048V.181L.614.108V.072L.542,0,.433.108Z" transform="translate(0 0)" fill="#c18770"/>
              </g>
            </g>
          </g>
          <g id="Group_104713" data-name="Group 104713" transform="matrix(0.906, -0.424, 0.424, 0.906, 29.793, 47.165)">
            <g id="Group_104712" data-name="Group 104712" transform="translate(0 0)">
              <g id="Group_104711" data-name="Group 104711" transform="translate(0 0)">
                <path id="Path_75770" data-name="Path 75770" d="M8.34.72A23.654,23.654,0,0,0,2.174,2.036,13.385,13.385,0,0,1,3.783,0,9.594,9.594,0,0,0,1.966,1.415a10.1,10.1,0,0,0-.685.745L0,4.1,2.026,2.732A15.786,15.786,0,0,1,8.936,1.316a22.131,22.131,0,0,1,6.285.819q2.115.6,2.532.323a.965.965,0,0,0,.417-1.217l-.03.074a1.208,1.208,0,0,1-.417.6,1.419,1.419,0,0,1-.774.074,16.969,16.969,0,0,1-2.383-.646A16.969,16.969,0,0,0,8.34.72Z" transform="translate(0 1.341)" fill="#2b0700"/>
                <path id="Path_75771" data-name="Path 75771" d="M0,3.377A23.654,23.654,0,0,1,6.166,2.061a16.969,16.969,0,0,1,6.225.621,16.969,16.969,0,0,0,2.383.646,1.419,1.419,0,0,0,.774-.074,1.208,1.208,0,0,0,.417-.6L16,2.583l-.03-.074A2.135,2.135,0,0,0,14.8,1.366,15.955,15.955,0,0,0,10.545.223a16.276,16.276,0,0,0-7.238.4,9.594,9.594,0,0,0-1.7.72A13.385,13.385,0,0,0,0,3.377Z" transform="translate(2.174 0)" fill="#540e00"/>
              </g>
            </g>
          </g>
          <g id="Group_104716" data-name="Group 104716" transform="matrix(-0.996, 0.085, -0.085, -0.996, 74.853, 54.782)">
            <g id="Group_104715" data-name="Group 104715" transform="translate(0 0)">
              <g id="Group_104714" data-name="Group 104714">
                <path id="Path_75772" data-name="Path 75772" d="M6.234,3.038A15.146,15.146,0,0,1,1.625,1.854a11.978,11.978,0,0,0,1.2,1.832A7.533,7.533,0,0,1,1.469,2.412Q1.2,2.1.957,1.742L0,0,1.514,1.228A10.133,10.133,0,0,0,6.679,2.5a13.932,13.932,0,0,0,4.7-.737q1.581-.536,1.892-.29a.961.961,0,0,1,.312,1.094L13.558,2.5a1.1,1.1,0,0,0-.312-.536.9.9,0,0,0-.579-.067,11.01,11.01,0,0,0-1.781.581A10.651,10.651,0,0,1,6.234,3.038Z" fill="#2b0700"/>
                <path id="Path_75773" data-name="Path 75773" d="M0,0A15.146,15.146,0,0,0,4.608,1.184,10.651,10.651,0,0,0,9.261.625,11.01,11.01,0,0,1,11.043.045a.9.9,0,0,1,.579.067,1.1,1.1,0,0,1,.312.536l.022.067-.022.067a1.789,1.789,0,0,1-.868,1.027A10.393,10.393,0,0,1,7.881,2.837a10.188,10.188,0,0,1-5.41-.357A6.584,6.584,0,0,1,1.2,1.832,11.978,11.978,0,0,1,0,0Z" transform="translate(1.625 1.854)" fill="#540e00"/>
              </g>
            </g>
          </g>
          <g id="Group_104718" data-name="Group 104718" transform="translate(34.693 68.566)">
            <g id="Group_104717" data-name="Group 104717" transform="translate(0 0)">
              <path id="Path_75774" data-name="Path 75774" d="M2.98,2.235V2.98h.745m-.745,0v.745M5.96,2.98,2.98,5.96,0,2.98,2.98,0Zm-3.725,0H2.98" transform="translate(0 0)" fill="none" stroke="rgba(0,0,0,0)" stroke-linecap="round" stroke-linejoin="round" stroke-width="0.091"/>
            </g>
          </g>
        </g>
      </g>
    </g>
  </g>
</svg>
