<svg xmlns="http://www.w3.org/2000/svg" xmlns:xlink="http://www.w3.org/1999/xlink" width="375" height="270" viewBox="0 0 375 270">
  <defs>
    <clipPath id="clip-path">
      <rect id="Rectangle_8659" data-name="Rectangle 8659" width="375" height="270" transform="translate(18328.434 -12428)" fill="#fff" stroke="#707070" stroke-width="1" opacity="0.59"/>
    </clipPath>
  </defs>
  <g id="Mask_Group_16607" data-name="Mask Group 16607" transform="translate(-18328.434 12428)" clip-path="url(#clip-path)">
    <g id="male_teen_10" data-name="male teen 10" transform="translate(18311.865 -12169.806) rotate(180)">
      <g id="Group_43531" data-name="Group 43531" transform="translate(-160.726 111.306) rotate(-172.207)">
        <g id="Group_43514" data-name="Group 43514" transform="translate(1.32 50.609)">
          <g id="Group_43513" data-name="Group 43513" transform="translate(0 0)">
            <path id="Path_40191" data-name="Path 40191" d="M19.105,39.173A229.9,229.9,0,0,0,26.253,4.178L5.443,0Q2.133,18.194,0,36.094Z" transform="translate(0)" fill="#e2ad98"/>
          </g>
        </g>
        <g id="Group_43516" data-name="Group 43516" transform="translate(1.292 77.576)">
          <g id="Group_43515" data-name="Group 43515" transform="translate(0 0)">
            <path id="Path_40192" data-name="Path 40192" d="M19.463,9.731a9.4,9.4,0,0,0-2.859-6.9A9.357,9.357,0,0,0,9.731,0a9.449,9.449,0,0,0-6.9,2.831A9.448,9.448,0,0,0,0,9.731,9.357,9.357,0,0,0,2.831,16.6a9.4,9.4,0,0,0,6.9,2.859A9.312,9.312,0,0,0,16.6,16.6,9.312,9.312,0,0,0,19.463,9.731Z" transform="translate(0 0)" fill="#e2ad98"/>
          </g>
        </g>
        <g id="Group_43519" data-name="Group 43519" transform="translate(5.278 47.173)">
          <g id="Group_43518" data-name="Group 43518" transform="translate(0 0)">
            <g id="Group_43517" data-name="Group 43517" transform="translate(0 0)">
              <path id="Path_40193" data-name="Path 40193" d="M1.732,0,0,11.3a32.277,32.277,0,0,0,21.25,3.986L23.091,4.838Z" fill="#c18770"/>
            </g>
          </g>
        </g>
        <g id="Group_43521" data-name="Group 43521" transform="translate(17.428 0)">
          <g id="Group_43520" data-name="Group 43520" transform="translate(0 0)">
            <path id="Path_40194" data-name="Path 40194" d="M32.273,16.137A15.546,15.546,0,0,0,27.545,4.728,15.546,15.546,0,0,0,16.137,0,15.546,15.546,0,0,0,4.728,4.728,15.546,15.546,0,0,0,0,16.137,15.546,15.546,0,0,0,4.728,27.545a15.546,15.546,0,0,0,11.408,4.728,15.546,15.546,0,0,0,11.408-4.728A15.546,15.546,0,0,0,32.273,16.137Z" fill="#7a2230"/>
          </g>
        </g>
        <g id="Group_43523" data-name="Group 43523" transform="translate(0.055 4.398)">
          <g id="Group_43522" data-name="Group 43522" transform="translate(0 0)">
            <path id="Path_40195" data-name="Path 40195" d="M37.826,53.33l11.381-37.8L22.432,0Q12.975,8.329,0,47.063,13.085,61.275,37.826,53.33Z" fill="#7a2230"/>
          </g>
        </g>
        <g id="Group_43526" data-name="Group 43526" transform="translate(0 8.055)">
          <g id="Group_43525" data-name="Group 43525" transform="translate(0 0)">
            <g id="Group_43524" data-name="Group 43524">
              <path id="Path_40196" data-name="Path 40196" d="M11.931,12.48A270.263,270.263,0,0,0,0,43.461q12.577,13.866,36.946,6.433Q9.511,51.461,5.91,41.51,3.711,35.462,19.188,0A70.688,70.688,0,0,0,11.931,12.48Z" fill="#4b0f18"/>
            </g>
          </g>
        </g>
        <g id="Group_43528" data-name="Group 43528" transform="translate(41.13 21.722)">
          <g id="Group_43527" data-name="Group 43527" transform="translate(0 0)">
            <path id="Path_40197" data-name="Path 40197" d="M7.417.049,3.9,8.736.132,23.966l-.11.852q-.055.055.027.055L.1,24.845l.6-1.759L7.5.077Q7.554.022,7.472.022,7.417-.033,7.417.049Z" fill="#4b0f18"/>
          </g>
        </g>
        <g id="Group_43530" data-name="Group 43530" transform="translate(30.266 12.838)">
          <g id="Group_43529" data-name="Group 43529" transform="translate(0 0)">
            <path id="Path_40198" data-name="Path 40198" d="M3.3,2.474V3.3h.825M3.3,3.3v.825M6.6,3.3,3.3,6.6,0,3.3,3.3,0Zm-4.123,0H3.3" fill="none" stroke="rgba(0,0,0,0)" stroke-linecap="round" stroke-linejoin="round" stroke-width="0.093"/>
          </g>
        </g>
      </g>
      <g id="Group_43541" data-name="Group 43541" transform="translate(-242.996 -39.055) rotate(-0.107)">
        <g id="Group_43535" data-name="Group 43535" transform="translate(3.24 46.368)">
          <g id="Group_43534" data-name="Group 43534" transform="translate(0 0)">
            <path id="Path_40200" data-name="Path 40200" d="M0,19.869C0,9.878,3.608,8.616,10.66,1.564S31.49,13.6,41.481,13.6s13.235-7.015,20.288.038,10.52-3.761,10.52,6.23A34.83,34.83,0,0,1,61.709,45.434,34.83,34.83,0,0,1,36.144,56.012,34.83,34.83,0,0,1,10.579,45.434,34.83,34.83,0,0,1,0,19.869Z" fill="#ede6de"/>
          </g>
        </g>
        <g id="Group_43538" data-name="Group 43538" transform="translate(0 40.451)">
          <g id="Group_43537" data-name="Group 43537" transform="translate(0 0)">
            <g id="Group_43536" data-name="Group 43536">
              <path id="Path_40201" data-name="Path 40201" d="M37.971,54.568q.852.027,1.732.027.88-.11,1.76-.247a4.732,4.732,0,0,0,.522.028,39.076,39.076,0,0,0-.495,7.451,9.124,9.124,0,0,0,.137,1.237,10.1,10.1,0,0,0,.22,1.072l-.495-1.567a37.268,37.268,0,0,1-22.27-5.251l-7.176-7.478A59.415,59.415,0,0,1,5.583,38.924a51.011,51.011,0,0,1-2.172-10.64C1.605,7.568,3.986,18.759,0,.781,1.916-.063,10.915-1.054,11.025,2.722c.092,2.841-2.3.771-2.115,3.649q.165,2.942.467,5.884.36,3.3.632,7.863.294,4.563,1.182,9.98a32.847,32.847,0,0,0,3.437,10.118A22.034,22.034,0,0,0,21.695,48a45.226,45.226,0,0,0,6.544,3.794A29.764,29.764,0,0,0,37.971,54.568Z" fill="#dad0c5"/>
            </g>
          </g>
        </g>
        <g id="Group_43540" data-name="Group 43540" transform="translate(33.38 0)">
          <g id="Group_43539" data-name="Group 43539" transform="translate(0 0)">
            <path id="Path_40202" data-name="Path 40202" d="M3.3,4.124V3.3h.825M3.3,3.3V2.474M6.6,3.3,3.3,0,0,3.3,3.3,6.6Zm-4.124,0H3.3" fill="none" stroke="rgba(0,0,0,0)" stroke-linecap="round" stroke-linejoin="round" stroke-width="0.093"/>
          </g>
        </g>
      </g>
      <g id="Group_43566" data-name="Group 43566" transform="translate(-255.04 19.528) rotate(4.963)">
        <g id="Group_43543" data-name="Group 43543" transform="translate(31.203 70.076)">
          <g id="Group_43542" data-name="Group 43542" transform="translate(0 0)">
            <path id="Path_40203" data-name="Path 40203" d="M33.265,0l2.722,13.031a31.067,31.067,0,0,1-8.962,5.141,28.281,28.281,0,0,1-9.045,1.567A30.326,30.326,0,0,1,.632,14.516L0,0Z" fill="#e2ad98"/>
          </g>
        </g>
        <g id="Group_43545" data-name="Group 43545" transform="translate(8.66 2.364)">
          <g id="Group_43544" data-name="Group 43544" transform="translate(0 0)">
            <path id="Path_40204" data-name="Path 40204" d="M76.976,62.488a19.15,19.15,0,0,1-2.914,9.622q-2.652,4.2-9.072,6.763A55.947,55.947,0,0,0,56.193,83Q53.95,77.032,46.626,72.77q-7.294-4.289-12.784,1.32Q28.374,79.671,27,80.853a11.734,11.734,0,0,0-2.557,3.381,45.664,45.664,0,0,1-5.773-1.595q-4.837-1.52-9.677-3.107A57.392,57.392,0,0,1,0,75.657L7.258,0q2.859,3.9,5.993,7.56,2.8,3.271,5.883,6.351l1.155,1.155,1.155,1.1q2.227,2.034,4.619,3.876a46.316,46.316,0,0,0,9.21,5.416,29.24,29.24,0,0,0,9.045,2.309,27.674,27.674,0,0,0,8.935-.8,33.7,33.7,0,0,0,8.77-3.849,40.738,40.738,0,0,0,5.471-4.014,58.458,58.458,0,0,0,4.839-4.674,72.745,72.745,0,0,0,6.763-8.385Z" fill="#ede6de"/>
          </g>
        </g>
        <g id="Group_43547" data-name="Group 43547" transform="translate(0.275 47.753)">
          <g id="Group_43546" data-name="Group 43546" transform="translate(0 0)">
            <path id="Path_40205" data-name="Path 40205" d="M32.275,16.138a15.547,15.547,0,0,1-4.729,11.409,15.547,15.547,0,0,1-11.409,4.729A15.547,15.547,0,0,1,4.729,27.547,15.547,15.547,0,0,1,0,16.138,15.547,15.547,0,0,1,4.729,4.729,15.547,15.547,0,0,1,16.138,0,15.547,15.547,0,0,1,27.547,4.729,15.547,15.547,0,0,1,32.275,16.138Z" fill="#ede6de"/>
          </g>
        </g>
        <g id="Group_43550" data-name="Group 43550" transform="translate(11.354 2.089)">
          <g id="Group_43549" data-name="Group 43549" transform="translate(0 0)">
            <g id="Group_43548" data-name="Group 43548">
              <path id="Path_40206" data-name="Path 40206" d="M14.351,48.715Q.027,46.378,0,46.406L4.509,0l9.65,11.876Z" fill="#dad0c5"/>
            </g>
          </g>
        </g>
        <g id="Group_43555" data-name="Group 43555" transform="translate(0 47.753)">
          <g id="Group_43552" data-name="Group 43552" transform="translate(0 0)">
            <g id="Group_43551" data-name="Group 43551">
              <path id="Path_40207" data-name="Path 40207" d="M32.99,15.89A79.084,79.084,0,0,0,38.1,32.66L31.67,38.433A141.682,141.682,0,0,1,11,31.588Q.533,27.331,0,15.175,1.463,5.941,8.412,2.062l.522-.275q.35-.195.687-.357Q9.7,1.4,9.76,1.375l.467-.192a14.885,14.885,0,0,1,4.536-1.1A16.411,16.411,0,0,1,16.412,0,15.547,15.547,0,0,1,27.821,4.729a15.174,15.174,0,0,1,1.155,1.292Q31.871,9.159,32.99,15.89Z" fill="#7a2230"/>
            </g>
          </g>
          <g id="Group_43554" data-name="Group 43554" transform="translate(63.176 6.873)">
            <g id="Group_43553" data-name="Group 43553" transform="translate(0 0)">
              <path id="Path_40208" data-name="Path 40208" d="M11.052,20.344q5.26-4.176,8.88-12.784Q21.619,3.579,22.873,0a74.061,74.061,0,0,0-.11,8.687,22.052,22.052,0,0,1-.467,5.938q-.225,2.744-3.244,5.966a20.629,20.629,0,0,1-6.9,5.278,55.866,55.866,0,0,0-9.567,4.591L0,26.282A32.968,32.968,0,0,0,11.052,20.344Z" fill="#7a2230"/>
            </g>
          </g>
        </g>
        <g id="Group_43557" data-name="Group 43557" transform="translate(47.67 77.691)">
          <g id="Group_43556" data-name="Group 43556" transform="translate(0 0)">
            <path id="Path_40209" data-name="Path 40209" d="M10.777,3.656l-.165-.082-.522-.33L7.7,2.062,4.151.962,3.986.935,3.821.88.055.275H.027L0,.22.027.192.247.137,1.732.027,1.869,0l1.9.055L4.124.11h.192l1.54.275L7.478.852A12.841,12.841,0,0,1,9.1,1.485l.8.412,2.447,1.649,2.144,2.172.935,1.32.11.137.192.357.11.165q.027.027-.027.082h-.055l-.137-.165-1.155-1.1-.11-.082-.33-.3-.11-.082-.22-.22Z" fill="#c18770"/>
          </g>
        </g>
        <g id="Group_43559" data-name="Group 43559" transform="translate(39.093 72.158)">
          <g id="Group_43558" data-name="Group 43558" transform="translate(0 0)">
            <path id="Path_40210" data-name="Path 40210" d="M17.567,3.279l-.6-.247-.22-.055A18.537,18.537,0,0,0,14.9,2.4q-.825-.22-.962-.247l-1.485-.3h-.137l-.11-.027L9.869,1.657,9.732,1.63l-.11.027h-.77L7.34,1.795l-2.557.55L2.007,3.362.99,3.857l-.22.082L.6,4.049.082,4.3Q0,4.379,0,4.269V4.214L1.677,2.757l.137-.082.6-.44L4.866.97h.055l1.1-.385L6.158.558,6.268.5,6.543.448A11.511,11.511,0,0,1,8.715.063,14.121,14.121,0,0,1,11.024.035l.852.082L14.323.64,14.6.723l.11.055.137.027L15.368,1a18.231,18.231,0,0,1,1.869.8l1.567.88a13.541,13.541,0,0,1,1.265.852l1.7,1.4v.082h-.082L20.1,4.3l-.082-.027-.6-.275-.165-.055-.165-.082-1.292-.522Z" fill="#dad0c5"/>
          </g>
        </g>
        <g id="Group_43561" data-name="Group 43561" transform="translate(30.131 73.436)">
          <g id="Group_43560" data-name="Group 43560" transform="translate(0 0)">
            <path id="Path_40211" data-name="Path 40211" d="M23.12.544a19.971,19.971,0,0,1,8.687,4.069,17.475,17.475,0,0,1,2.832,3A9.536,9.536,0,0,1,36.234,11.1q-.22,1.4-1.32,1.485a2.3,2.3,0,0,1-2.089-1.292,18.97,18.97,0,0,0-3.491-3.684A11.411,11.411,0,0,0,25.677,5.63,24.964,24.964,0,0,0,21.553,4.7a16.046,16.046,0,0,0-9.485,1.127,15.82,15.82,0,0,0-7.038,5.993,5.55,5.55,0,0,1-1.21,1.842,2.506,2.506,0,0,1-1.869.742Q.852,14.4,0,12.833A26.97,26.97,0,0,1,4.344,5.74,14.988,14.988,0,0,1,13.526.461,23.186,23.186,0,0,1,23.12.544Z" fill="#7a2230"/>
          </g>
        </g>
        <g id="Group_43563" data-name="Group 43563" transform="translate(30.219 73.375)">
          <g id="Group_43562" data-name="Group 43562" transform="translate(0 0)">
            <path id="Path_40212" data-name="Path 40212" d="M20.283.11q1.045.11,2.5.357l2.914.77,1.649.715.33.192q.082,0,.027.055,0,.082-.055.027l-.11-.027-.44-.165-.22-.055-.137-.055-.44-.11q-.33-.11-1.567-.385L18.909.935l-3.189.192-2.557.495-1.43.44a20.379,20.379,0,0,0-2.722,1.21l-1.237.742q-.687.467-1.155.852l-.165.082-.11.11-.275.22L3.513,7.808.1,12.729q0,.082-.055.027-.082,0-.027-.055l.55-1.32q.467-.99.742-1.457l1.1-1.842a20.666,20.666,0,0,1,1.54-2.007l.962-1.017A12.352,12.352,0,0,1,5.988,4.1,13.432,13.432,0,0,1,7.2,3.162l1.292-.825,2.887-1.32a25.2,25.2,0,0,1,3.079-.77L15.2.137,18.909,0Z" fill="#4b0f18"/>
          </g>
        </g>
        <g id="Group_43565" data-name="Group 43565" transform="translate(48.633 0)">
          <g id="Group_43564" data-name="Group 43564" transform="translate(0 0)">
            <path id="Path_40213" data-name="Path 40213" d="M3.3,4.124V3.3h.825M3.3,3.3V2.474M6.6,3.3,3.3,0,0,3.3,3.3,6.6Zm-4.124,0H3.3" fill="none" stroke="rgba(0,0,0,0)" stroke-linecap="round" stroke-linejoin="round" stroke-width="0.093"/>
          </g>
        </g>
      </g>
      <g id="Group_43585" data-name="Group 43585" transform="matrix(0.937, 0.35, -0.35, 0.937, -247.607, -2.82)">
        <g id="Group_43568" data-name="Group 43568" transform="translate(1.32 7.258)">
          <g id="Group_43567" data-name="Group 43567" transform="translate(0 0)">
            <path id="Path_40214" data-name="Path 40214" d="M19.107,0a229.91,229.91,0,0,1,7.148,35L5.443,39.175Q2.133,20.98,0,3.079Z" fill="#e2ad98"/>
          </g>
        </g>
        <g id="Group_43570" data-name="Group 43570" transform="translate(1.292 0)">
          <g id="Group_43569" data-name="Group 43569" transform="translate(0 0)">
            <path id="Path_40215" data-name="Path 40215" d="M19.464,9.732a9.4,9.4,0,0,1-2.859,6.9,9.358,9.358,0,0,1-6.873,2.832,9.449,9.449,0,0,1-6.9-2.832A9.449,9.449,0,0,1,0,9.732,9.358,9.358,0,0,1,2.832,2.859,9.4,9.4,0,0,1,9.732,0,9.313,9.313,0,0,1,16.6,2.859,9.312,9.312,0,0,1,19.464,9.732Z" fill="#e2ad98"/>
          </g>
        </g>
        <g id="Group_43573" data-name="Group 43573" transform="translate(5.278 34.218)">
          <g id="Group_43572" data-name="Group 43572" transform="translate(0 0)">
            <g id="Group_43571" data-name="Group 43571">
              <path id="Path_40216" data-name="Path 40216" d="M1.732,15.652,0,4.353A32.279,32.279,0,0,1,21.251.366l1.842,10.447Z" fill="#c18770"/>
            </g>
          </g>
        </g>
        <g id="Group_43575" data-name="Group 43575" transform="translate(17.43 64.77)">
          <g id="Group_43574" data-name="Group 43574" transform="translate(0 0)">
            <path id="Path_40217" data-name="Path 40217" d="M32.275,16.138a15.547,15.547,0,0,1-4.729,11.409,15.547,15.547,0,0,1-11.409,4.729A15.547,15.547,0,0,1,4.729,27.547,15.547,15.547,0,0,1,0,16.138,15.547,15.547,0,0,1,4.729,4.729,15.547,15.547,0,0,1,16.138,0,15.547,15.547,0,0,1,27.547,4.729,15.547,15.547,0,0,1,32.275,16.138Z" fill="#7a2230"/>
          </g>
        </g>
        <g id="Group_43577" data-name="Group 43577" transform="translate(0.055 36.464)">
          <g id="Group_43576" data-name="Group 43576" transform="translate(0 0)">
            <path id="Path_40218" data-name="Path 40218" d="M37.828,2.849,49.21,40.65,22.433,56.182Q12.976,47.852,0,9.117,13.086-5.1,37.828,2.849Z" transform="translate(0 0)" fill="#7a2230"/>
          </g>
        </g>
        <g id="Group_43580" data-name="Group 43580" transform="translate(0 36.499)">
          <g id="Group_43579" data-name="Group 43579" transform="translate(0 0)">
            <g id="Group_43578" data-name="Group 43578" transform="translate(0 0)">
              <path id="Path_40219" data-name="Path 40219" d="M11.931,40.01A270.28,270.28,0,0,1,0,9.027Q12.578-4.839,36.949,2.594,9.512,1.027,5.911,10.979q-2.2,6.048,13.278,41.512A70.692,70.692,0,0,1,11.931,40.01Z" fill="#4b0f18"/>
            </g>
          </g>
        </g>
        <g id="Group_43582" data-name="Group 43582" transform="translate(41.133 50.447)">
          <g id="Group_43581" data-name="Group 43581" transform="translate(0 0)">
            <path id="Path_40220" data-name="Path 40220" d="M7.417,24.825,3.9,16.138.132.907.022.055Q-.033,0,.049,0L.1.027l.6,1.759L7.5,24.8q.055.055-.027.055Q7.417,24.907,7.417,24.825Z" fill="#4b0f18"/>
          </g>
        </g>
        <g id="Group_43584" data-name="Group 43584" transform="translate(30.268 77.609)">
          <g id="Group_43583" data-name="Group 43583" transform="translate(0 0)">
            <path id="Path_40221" data-name="Path 40221" d="M3.3,4.124V3.3h.825M3.3,3.3V2.474M6.6,3.3,3.3,0,0,3.3,3.3,6.6Zm-4.124,0H3.3" transform="translate(0 0)" fill="none" stroke="rgba(0,0,0,0)" stroke-linecap="round" stroke-linejoin="round" stroke-width="0.093"/>
          </g>
        </g>
      </g>
      <g id="Group_43594" data-name="Group 43594" transform="matrix(-0.509, 0.86, -0.86, -0.509, -165.559, 25.052)">
        <g id="Group_43587" data-name="Group 43587" transform="matrix(0.978, -0.208, 0.208, 0.978, 0, 8.855)">
          <g id="Group_43586" data-name="Group 43586" transform="translate(0 0)">
            <path id="Path_40222" data-name="Path 40222" d="M21.629,68.347,2.494,70.162A102.784,102.784,0,0,1,.1,54.683q-.683-8.36,3.189-27.41T7.333.055L20.5,0q-.715,11.778-.467,20.51t.77,19.245q.51,10.53.825,18.255A72.994,72.994,0,0,1,21.629,68.347Z" fill="#e2ad98"/>
          </g>
        </g>
        <g id="Group_43589" data-name="Group 43589" transform="translate(7.113 0)">
          <g id="Group_43588" data-name="Group 43588" transform="translate(0 0)">
            <path id="Path_40223" data-name="Path 40223" d="M13.2,6.6a6.359,6.359,0,0,1-1.936,4.666A6.36,6.36,0,0,1,6.6,13.2a6.36,6.36,0,0,1-4.666-1.936A6.36,6.36,0,0,1,0,6.6,6.36,6.36,0,0,1,1.936,1.936,6.36,6.36,0,0,1,6.6,0a6.36,6.36,0,0,1,4.666,1.936A6.36,6.36,0,0,1,13.2,6.6Z" transform="translate(0)" fill="#e2ad98"/>
          </g>
        </g>
        <g id="Group_43591" data-name="Group 43591" transform="translate(21.196 12.312)">
          <g id="Group_43590" data-name="Group 43590" transform="translate(0 0)">
            <path id="Path_40224" data-name="Path 40224" d="M14.126,58.939q0,.055-.055.027l-.027-.027v-.027l-.027-.165v-.192l-.137-.88L3.486,18.937.709,5.191.022.077Q-.033.022.049.022.1-.033.1.049l2.529,11.41,7.533,28.7q.6,2.227,1.265,4.976l1.54,6.433,1.182,7.176Z" fill="#f0cbbc"/>
          </g>
        </g>
        <g id="Group_43593" data-name="Group 43593" transform="translate(6.79 6.318)">
          <g id="Group_43592" data-name="Group 43592" transform="translate(0 0)">
            <path id="Path_40225" data-name="Path 40225" d="M6.235,60.644,5.218,58.225a28.331,28.331,0,0,1-.852-2.914L3.211,49.234l-.8-7.533q-.165-1.76-.192-2.722L1.424,11.6,1.4,11.459v-.275L.022.077Q-.033.022.049.022.1-.033.1.049l.55,2.584q.522,2.557.577,2.942Q1.7,8.05,1.919,9.452L2.166,11.4v.137l.027.082v.22l.027.055v.082l.522,7.231q.137,1.787.3,5.526l.137,11.41.8,13L4.833,55.2q.275,1.457.687,2.914l.8,2.5q.055.055-.027.055Q6.235,60.726,6.235,60.644Z" fill="#c18770"/>
          </g>
        </g>
      </g>
      <g id="Group_43601" data-name="Group 43601" transform="matrix(-0.879, 0.476, -0.476, -0.879, -148.004, 63.345)">
        <g id="Group_43596" data-name="Group 43596" transform="translate(0 0)">
          <g id="Group_43595" data-name="Group 43595">
            <path id="Path_40226" data-name="Path 40226" d="M11.052,22.985a56.706,56.706,0,0,0-3.272-5.609Q6.324,15.149,4.729,13.06q-.55-.715-1.127-1.43A21.2,21.2,0,0,0,0,8.056q.907-1.375,2.584.192A6.724,6.724,0,0,1,3.6,9.348a32.375,32.375,0,0,1,3.657,5.691q1.457,2.832,2.749,5.664.522,1.155,1.045,2.282m7.726-3.244q-.357-1.457-.742-2.887a56.554,56.554,0,0,0-2.117-6.681,33.242,33.242,0,0,0-1.347-3.079l-1.7-3.547a.64.64,0,0,1,.11-.165A1.256,1.256,0,0,1,14.1,3h-.137q.247.495.825,1.4a21.982,21.982,0,0,1,1.375,2.694,34.3,34.3,0,0,1,1.76,5.279,28.34,28.34,0,0,1,.852,7.368m-2.8,2.337q-1.457-3.162-3-6.214Q11.41,12.785,9.76,9.76q-.77-1.347-1.54-2.667L5.664,2.5q-.66-.88-.99-.77a7.486,7.486,0,0,0-1.43,1.045A5.184,5.184,0,0,0,2.227,5.664q-.22-3.134,1.237-4.591l.027-.027A3.9,3.9,0,0,1,5.361,0l.715,1.045L8.3,4.564,9.788,7.093q1.1,2.035,2.117,4.124,1.375,2.887,2.529,5.911,1.155,3.052,2.09,6.241Q16.221,22.737,15.974,22.077Z" transform="translate(0.797)" fill="#c18770"/>
            <path id="Path_40227" data-name="Path 40227" d="M20.317,30.765l-.137,2.227a30.93,30.93,0,0,1-.687,4.536Q18.2,42.863,15.836,44.54a9.423,9.423,0,0,1-6.241,1.43Q3.161,45.5,2.336,40.2,1.567,35.3,4.4,23.974a8.157,8.157,0,0,0,.247-3.932q-.11-.66-.247-1.292a16.964,16.964,0,0,0-.852-2.777Q.6,13.664.137,11.382A5.151,5.151,0,0,1,.8,7.368a21.2,21.2,0,0,1,3.6,3.574q.577.715,1.127,1.43,1.595,2.09,3.052,4.317A56.706,56.706,0,0,1,11.849,22.3q-.522-1.127-1.045-2.282-1.292-2.832-2.749-5.664A32.375,32.375,0,0,0,4.4,8.661a6.724,6.724,0,0,0-1.017-1.1,21.177,21.177,0,0,1-.357-2.584A5.184,5.184,0,0,1,4.041,2.09a7.486,7.486,0,0,1,1.43-1.045q.33-.11.99.77L9.017,6.406q.77,1.32,1.54,2.667,1.65,3.024,3.217,6.1,1.54,3.052,3,6.214.247.66.55,1.292-.935-3.189-2.09-6.241Q14.076,13.417,12.7,10.53q-1.017-2.09-2.117-4.124L9.1,3.877A4.593,4.593,0,0,1,10.227.715a2.01,2.01,0,0,1,.33-.357A.491.491,0,0,1,10.695.22a1.221,1.221,0,0,1,.22-.11A1.52,1.52,0,0,1,11.327,0a.431.431,0,0,1,.082.11l2.254,2.749,1.7,3.547a33.242,33.242,0,0,1,1.347,3.079,56.554,56.554,0,0,1,2.117,6.681q.385,1.43.742,2.887a28.34,28.34,0,0,0-.852-7.368,34.3,34.3,0,0,0-1.76-5.279,21.982,21.982,0,0,0-1.375-2.694q-.577-.907-.825-1.4h.247l.22-.027.825.192a2.4,2.4,0,0,1,.385.357,7.466,7.466,0,0,1,2.227,3.574,23.194,23.194,0,0,1,.852,2.557,61.587,61.587,0,0,1,1.32,6.983,33.27,33.27,0,0,1,.22,7.808l-.22,2.09Q20.592,28.291,20.317,30.765Z" transform="translate(0 0.687)" fill="#e2ad98"/>
          </g>
        </g>
        <g id="Group_43598" data-name="Group 43598" transform="translate(0.679 13.486)">
          <g id="Group_43597" data-name="Group 43597" transform="translate(0)">
            <path id="Path_40228" data-name="Path 40228" d="M2.125,29.1q.055.055-.027.055-.055.055-.055-.027l-.082-.137-.027-.082v-.055L1.9,28.827l-.027-.165-.11-.3-.22-1.155v-.082l-.027-.055V26.9l-.027-.137V26.6a10.63,10.63,0,0,1-.082-1.32l.275-5.251L3.747,8.592l.027.082V8.509l-.027.082L3.417,7l-.77-2.062L2.62,4.88,2.592,4.8l-.66-1.32L1.822,3.2.035.1Q-.047.014.063.014q0-.027.055,0L1.08,1.2l.165.247.385.467,1.4,2.172.055.137.165.247.027.082.33.6L4.627,7.9l.11.632.027.082L4.737,8.7l-.99,5.086L1.932,26.573l.11,2.062.027.137v.055l.027.027v.082Z" fill="#c18770"/>
          </g>
        </g>
        <g id="Group_43600" data-name="Group 43600" transform="translate(9.182 37.254)">
          <g id="Group_43599" data-name="Group 43599" transform="translate(0 0)">
            <path id="Path_40229" data-name="Path 40229" d="M3.3,4.124V3.3h.825M3.3,3.3V2.474M6.6,3.3,3.3,0,0,3.3,3.3,6.6Zm-4.124,0H3.3" fill="none" stroke="rgba(0,0,0,0)" stroke-linecap="round" stroke-linejoin="round" stroke-width="0.093"/>
          </g>
        </g>
      </g>
      <g id="Group_43610" data-name="Group 43610" transform="matrix(0.246, 0.969, -0.969, 0.246, -161.375, -2.48)">
        <g id="Group_43603" data-name="Group 43603" transform="matrix(0.978, 0.208, -0.208, 0.978, 14.585, 0)">
          <g id="Group_43602" data-name="Group 43602" transform="translate(0 0)">
            <path id="Path_40230" data-name="Path 40230" d="M21.627,1.814,2.494,0A102.776,102.776,0,0,0,.1,15.477Q-.58,23.836,3.291,42.885T7.332,70.1l13.168.055q-.715-11.777-.467-20.508T20.8,30.4q.51-10.529.825-18.254A72.985,72.985,0,0,0,21.627,1.814Z" fill="#e2ad98"/>
          </g>
        </g>
        <g id="Group_43605" data-name="Group 43605" transform="translate(7.113 64.274)">
          <g id="Group_43604" data-name="Group 43604" transform="translate(0 0)">
            <path id="Path_40231" data-name="Path 40231" d="M13.2,6.6a6.359,6.359,0,0,0-1.936-4.666A6.359,6.359,0,0,0,6.6,0,6.359,6.359,0,0,0,1.936,1.936,6.359,6.359,0,0,0,0,6.6a6.359,6.359,0,0,0,1.936,4.666A6.359,6.359,0,0,0,6.6,13.2a6.359,6.359,0,0,0,4.666-1.936A6.359,6.359,0,0,0,13.2,6.6Z" transform="translate(0 0)" fill="#e2ad98"/>
          </g>
        </g>
        <g id="Group_43607" data-name="Group 43607" transform="translate(21.194 6.195)">
          <g id="Group_43606" data-name="Group 43606" transform="translate(0 0)">
            <path id="Path_40232" data-name="Path 40232" d="M14.125.037q0-.055-.055-.027l-.027.027V.064l-.027.165V.422l-.137.88L3.486,40.035.709,53.781.022,58.894q-.055.055.027.055Q.1,59,.1,58.921L2.634,47.513l7.532-28.7q.6-2.227,1.265-4.976L12.97,7.4,14.152.229Z" fill="#f0cbbc"/>
          </g>
        </g>
        <g id="Group_43609" data-name="Group 43609" transform="translate(6.789 10.471)">
          <g id="Group_43608" data-name="Group 43608" transform="translate(0 0)">
            <path id="Path_40233" data-name="Path 40233" d="M6.235.049,5.218,2.469a28.328,28.328,0,0,0-.852,2.914L3.211,11.458l-.8,7.532q-.165,1.759-.192,2.722l-.8,27.381L1.4,49.23V49.5L.022,60.611q-.055.055.027.055.055.055.055-.027l.55-2.584q.522-2.557.577-2.941.467-2.474.687-3.876l.247-1.952v-.137l.027-.082v-.22l.027-.055v-.082l.522-7.23q.137-1.787.3-5.526l.137-11.409.8-13,.852-6.048q.275-1.457.687-2.914l.8-2.5Q6.372.022,6.29.022,6.235-.033,6.235.049Z" fill="#c18770"/>
          </g>
        </g>
      </g>
      <g id="Group_43617" data-name="Group 43617" transform="matrix(0.855, 0.519, -0.519, 0.855, -229.38, 19.022)">
        <g id="Group_43612" data-name="Group 43612" transform="translate(0.082 0)">
          <g id="Group_43611" data-name="Group 43611" transform="translate(0)">
            <path id="Path_40234" data-name="Path 40234" d="M0,19.023a4.311,4.311,0,0,0,1.539,0Q8.33,5.526,8.027,0A121.7,121.7,0,0,1,0,19.023m7.532,1.182A3.542,3.542,0,0,0,9.072,21.8L13.388,2.227,7.532,20.205m10.309-9.512a13.642,13.642,0,0,0,.632-1.787,9.512,9.512,0,0,0,.055-3.3A26.8,26.8,0,0,1,17.7,8.577a52.869,52.869,0,0,1-2.667,6.378q-.742,1.512-1.594,3.024-.11.22-.247.44l.33-.11a5.233,5.233,0,0,0,.495-.22q.082-.027.192-.055l.825-1.429.77-1.594a.694.694,0,0,0,.082-.165q.577-1.127,1.1-2.254Q17.539,11.353,17.841,10.694Z" transform="translate(3.835 21.441)" fill="#c18770"/>
            <path id="Path_40235" data-name="Path 40235" d="M22.556,21.963a59.646,59.646,0,0,0-1.622-6.378,30.005,30.005,0,0,0-6.3-11Q9.938-.936,5.594.191-5.539,3.16,5.484,23.008,3.4,30.265,2.378,35.681q-.825,4.206,1.457,4.783a121.7,121.7,0,0,0,8.027-19.023q.3,5.526-6.488,19.023a4.3,4.3,0,0,0,1.952,4.069q2.062,1.32,4.041-2.886l5.855-17.979L12.907,43.241q2.034.77,4.1-3.3a.112.112,0,0,1,.027-.082q.137-.22.247-.44.852-1.512,1.594-3.024a52.869,52.869,0,0,0,2.667-6.378,26.8,26.8,0,0,0,.825-2.969,9.512,9.512,0,0,1-.055,3.3,13.642,13.642,0,0,1-.632,1.787q-.3.66-.852,1.9-.522,1.127-1.1,2.254a.694.694,0,0,1-.082.165l-.77,1.594-.825,1.429-.055.055a4.866,4.866,0,0,0,.715-.577,5.652,5.652,0,0,0,.825-.825q.44-.44.8-.825a11.4,11.4,0,0,0,1.787-2.364q.852-1.622,1.567-3.271a6.461,6.461,0,0,0,.55-2.5,9.178,9.178,0,0,0-.522-3.216q-.33-.907-1.155-3.931Z" fill="#e2ad98"/>
          </g>
        </g>
        <g id="Group_43614" data-name="Group 43614" transform="translate(0 0.26)">
          <g id="Group_43613" data-name="Group 43613" transform="translate(0 0)">
            <path id="Path_40236" data-name="Path 40236" d="M1.058,2.845l-.027.082L.866,3.2A8.1,8.1,0,0,0,.289,4.742,15.9,15.9,0,0,0,.014,6.336q-.027.825,0,1.649Q.069,9.058.151,9.608L.206,9.8l.082.6.055.192.027.192.055.192.027.192,1.484,4.591,2.007,4.343,1.567,2.749-.055-.082v.055l-.082.55L3.89,28.8q-.055.055.027.055.055.055.055-.027L6.2,23.161l.055-.357v-.22l-.027-.027-3-6.46L1.443,10.762l-.027-.192-.055-.192-.027-.192-.055-.192L1.251,9.8,1.2,9.635l-.027-.192Q1,8.4.976,7.9L.948,7.821V7.739L.921,7.546l-.027-.77.165-1.842.412-1.457A4.929,4.929,0,0,1,1.8,2.79l.082-.165L2.3,1.993l.77-.852L4.467.1A.024.024,0,0,0,4.495.069a.034.034,0,0,0,0-.055.034.034,0,0,0-.055,0L3.7.344,3.615.4,3.532.426l-1.155.825-.3.275-.8.962Z" fill="#c18770"/>
          </g>
        </g>
        <g id="Group_43616" data-name="Group 43616" transform="translate(3.807 3.27)">
          <g id="Group_43615" data-name="Group 43615" transform="translate(0 0)">
            <path id="Path_40237" data-name="Path 40237" d="M3.3,2.474V3.3h.825M3.3,3.3v.825M6.6,3.3,3.3,6.6,0,3.3,3.3,0Zm-4.124,0H3.3" fill="none" stroke="rgba(0,0,0,0)" stroke-linecap="round" stroke-linejoin="round" stroke-width="0.093"/>
          </g>
        </g>
      </g>
      <g id="Group_43622" data-name="Group 43622" transform="translate(-223.68 99.549) rotate(-2.982)">
        <g id="Group_43619" data-name="Group 43619" transform="translate(0 9.705)">
          <g id="Group_43618" data-name="Group 43618" transform="translate(0 0)">
            <path id="Path_40238" data-name="Path 40238" d="M22.078,0l.082,6.9a15.88,15.88,0,0,0-2.584,1.045,37.374,37.374,0,0,0-5.141,3.272,45.061,45.061,0,0,0-4.647,4.042,25.055,25.055,0,0,0-3.822,4.949q-1.677,2.8-2.942,5.416a48.464,48.464,0,0,0-2.31,5.609L0,.33Z" fill="#e2ad98"/>
            <path id="Path_40239" data-name="Path 40239" d="M21.253,33.158h-.137a10.08,10.08,0,0,1-3.052,6.681,10.117,10.117,0,0,1-7.423,3.079,10.24,10.24,0,0,1-7.478-3.079A10.2,10.2,0,0,1,.11,32.388q0-.3.027-.6L0,24.332a48.464,48.464,0,0,1,2.31-5.609q1.265-2.612,2.942-5.416A25.055,25.055,0,0,1,9.073,8.358,45.061,45.061,0,0,1,13.72,4.317a37.374,37.374,0,0,1,5.141-3.272A15.88,15.88,0,0,1,21.445,0Z" transform="translate(0.715 6.901)" fill="#c18770"/>
          </g>
        </g>
        <g id="Group_43621" data-name="Group 43621" transform="translate(6.846 0)">
          <g id="Group_43620" data-name="Group 43620" transform="translate(0 0)">
            <path id="Path_40240" data-name="Path 40240" d="M3.3,4.124V3.3h.825M3.3,3.3V2.474M6.6,3.3,3.3,0,0,3.3,3.3,6.6Zm-4.124,0H3.3" fill="none" stroke="rgba(0,0,0,0)" stroke-linecap="round" stroke-linejoin="round" stroke-width="0.093"/>
          </g>
        </g>
      </g>
      <g id="Group_43732" data-name="Group 43732" transform="translate(-254.654 124.512) rotate(-6.811)">
        <g id="Group_43623" data-name="Group 43623" transform="translate(31.195 17.993)">
          <path id="Path_40241" data-name="Path 40241" d="M21.048,10.524a10.091,10.091,0,0,0-3.091-7.433A10.091,10.091,0,0,0,10.524,0,10.158,10.158,0,0,0,3.07,3.091,10.125,10.125,0,0,0,0,10.524a10.192,10.192,0,0,0,3.07,7.454,10.192,10.192,0,0,0,7.454,3.07,10.125,10.125,0,0,0,7.433-3.07A10.158,10.158,0,0,0,21.048,10.524Z" transform="translate(0 0)" fill="none" stroke="red" stroke-linecap="round" stroke-linejoin="round" stroke-width="0.093"/>
        </g>
        <g id="Group_43637" data-name="Group 43637" transform="translate(18.779 21.478)">
          <g id="Group_43625" data-name="Group 43625" transform="translate(0 0)">
            <g id="Group_43624" data-name="Group 43624" transform="translate(0)">
              <path id="Path_40242" data-name="Path 40242" d="M55.017,58.723a31.053,31.053,0,0,1-22.793,9.431A31.053,31.053,0,0,1,9.431,58.723,31.053,31.053,0,0,1,0,35.93,31.007,31.007,0,0,1,4.922,18.691l.027-.137Q16.528,2.356,32.993.215,52.463-1.7,63.375,13.412l.715,17.294-.165-.687a32.657,32.657,0,0,1,.522,5.911A31.053,31.053,0,0,1,55.017,58.723Z" fill="#e2ad98"/>
            </g>
          </g>
          <g id="Group_43636" data-name="Group 43636" transform="translate(7.022 19.984)">
            <g id="Group_43627" data-name="Group 43627" transform="matrix(0.566, -0.824, 0.824, 0.566, 0, 20.858)">
              <g id="Group_43626" data-name="Group 43626" transform="translate(0 0)">
                <path id="Path_40243" data-name="Path 40243" d="M3.519,22.106,0,23.343.247,1.9,2.887,0Q10.527,11.722,3.519,22.106Z" fill="#c18770"/>
              </g>
            </g>
            <g id="Group_43629" data-name="Group 43629" transform="translate(17.586 21.418)">
              <g id="Group_43628" data-name="Group 43628" transform="translate(0 0)">
                <path id="Path_40244" data-name="Path 40244" d="M9.568,11.19,1.9,4.647,0,0Q14.287.821,12.1,11.6Z" fill="#c18770"/>
              </g>
            </g>
            <g id="Group_43631" data-name="Group 43631" transform="translate(27.731 18.889)">
              <g id="Group_43630" data-name="Group 43630" transform="translate(0 0)">
                <path id="Path_40245" data-name="Path 40245" d="M10.585,0l.192,5.636L5.059,14.27,0,12.675Q.436,3.378,10.585,0Z" transform="translate(0 0)" fill="#c18770"/>
              </g>
            </g>
            <g id="Group_43633" data-name="Group 43633" transform="translate(35.186 26.356) rotate(-25.988)">
              <g id="Group_43632" data-name="Group 43632" transform="translate(0 0)">
                <path id="Path_40246" data-name="Path 40246" d="M24.552.614,22.187,4.6,0,8.862v-6.3Q9.71-1.255,24.552.614Z" fill="#c18770"/>
              </g>
            </g>
            <g id="Group_43635" data-name="Group 43635" transform="translate(0.044 0)">
              <g id="Group_43634" data-name="Group 43634" transform="translate(0)">
                <path id="Path_40247" data-name="Path 40247" d="M.77,19.851,0,5.032,4.647,0A99.129,99.129,0,0,1,5.8,19.851Z" transform="translate(0)" fill="#c18770"/>
              </g>
            </g>
          </g>
        </g>
        <g id="Group_43642" data-name="Group 43642" transform="translate(29.062 0)">
          <g id="Group_43639" data-name="Group 43639" transform="translate(0 0.181)">
            <g id="Group_43638" data-name="Group 43638" transform="translate(0 0)">
              <path id="Path_40248" data-name="Path 40248" d="M8.083,14.886Q16.807,3.732,25.377,1.248t11.878-.027q7.009,11.543,13.39,21.226,6.381,9.651,1.65,19.439L0,40.7Q1.206,22.231,8.083,14.886Z" fill="#e2ad98"/>
            </g>
          </g>
          <g id="Group_43641" data-name="Group 43641" transform="translate(13.321 0)">
            <g id="Group_43640" data-name="Group 43640" transform="translate(0 0)">
              <path id="Path_40249" data-name="Path 40249" d="M28.141,8.221q.082.082-.027.082h-.055l-3.024-4.1-.027-.082-.027-.055-.082-.11q-.55-.742-.715-.935l-.77-.77-.137-.11-.055-.055-.055-.027-.385-.3-.55-.3-.577-.192a3,3,0,0,0-.632-.11h-.082l-.055-.027h-.55l-5.829.55-.082.027h-.11l-3.024.742-.027.027H11.2l-.825.275a13.351,13.351,0,0,0-1.4.495l-.687.275L8.125,3.6l-.082.027-.082.055-1.567.8q-.99.55-2.2,1.32L2.406,7.039.151,9.073.1,9.156q-.027.027-.082,0-.027-.055,0-.082l.055-.082L1.553,7.424l2.42-1.952q1.292-.907,2.172-1.43a13.724,13.724,0,0,1,1.237-.715l.3-.192.082-.027,2.392-1.045.742-.247.082-.055h.055l.055-.027L14.146.88H14.2l.027-.027h.027l.082-.027,3.574-.6q.55-.055,1.595-.165L21.1,0a4.508,4.508,0,0,1,1.622.44l.687.412.495.44.082.055.962,1.045a8.46,8.46,0,0,1,.687,1.127l.165.275.11.247Z" transform="translate(0)" fill="#f0cbbc"/>
            </g>
          </g>
        </g>
        <g id="Group_43685" data-name="Group 43685" transform="translate(0 40.802)">
          <g id="Group_43644" data-name="Group 43644" transform="translate(0.026 0)">
            <g id="Group_43643" data-name="Group 43643" transform="translate(0 0)">
              <path id="Path_40250" data-name="Path 40250" d="M87.1,45.971q-9.6,9.321-17.184,10.2a19.253,19.253,0,0,1,.495,8.606q-.3,2.667-2.282,1.622Q47.594,51.855,29.063,47.208a41.808,41.808,0,0,1-15.644-9.541q-.974-.938-1.9-1.952-.66,4.674-3.739,6.379-5.251,2.365-3.959-1.43Q5.83,36.485,7.067,34.4a9.072,9.072,0,0,1-4.812-.165q-4.069-1.127-.8-3.3a28.4,28.4,0,0,1,5.251-2.31q.031-.151.055-.3A106.051,106.051,0,0,1,15.673,1.87L30.41,0a55.889,55.889,0,0,1-.577,21.5,19.185,19.185,0,0,1,3.409.66q7.176,1.7,11,11.493a19.5,19.5,0,0,0-.77-8.716q-1.457-4.564,2.365-2.172a27.9,27.9,0,0,1,8.578,8.991,55.585,55.585,0,0,1,5.361-9.431q5.169-5.554,4.949.44l.247,8.853.165-.22a20.872,20.872,0,0,1,3.382-3.684,34.191,34.191,0,0,1,4.289-3.052,26.775,26.775,0,0,1,4.124-2.007q2.722-.99,4.812-1.595a23.526,23.526,0,0,1,3.382-.77q1.292-.137,1.485,1.292a11.734,11.734,0,0,1-.11,3.354q-.385,2.42-.907,4.812a32.533,32.533,0,0,1-1.43,4.7l-.165.44q3.547-3.877,6.379-3.849Q94.142,38,87.1,45.971Z" transform="translate(0)" fill="#540e00"/>
            </g>
          </g>
          <g id="Group_43646" data-name="Group 43646" transform="translate(65.148 19.93)">
            <g id="Group_43645" data-name="Group 43645" transform="translate(0 0)">
              <path id="Path_40251" data-name="Path 40251" d="M.014,23.374q-.027-.055,0-.082L5.4,18.672q.357-.3,1.9-1.787l3.877-4.042,5.086-6.379L19.095,1.9l.33-.66.055-.055.357-.742a.85.85,0,0,1,.495-.412.937.937,0,0,1,.632.055.749.749,0,0,1,.385.495.837.837,0,0,1-.027.632l-.027.027-.44.77L18.353,5.8l-3.6,4.509a4.624,4.624,0,0,1-.467.522l-2.447,2.612q-1.375,1.375-2.062,2.007L5.733,19.03.1,23.374Q.069,23.4.014,23.374Z" fill="#2b0700"/>
            </g>
          </g>
          <g id="Group_43648" data-name="Group 43648" transform="translate(33.926 22.298)">
            <g id="Group_43647" data-name="Group 43647" transform="translate(0 0)">
              <path id="Path_40252" data-name="Path 40252" d="M7.839,17.542q-.055.055-.055-.027L6.052,11.163,3.6,5.884l-.22-.33L3.3,5.389,1.845,3.272.223,1.4A.7.7,0,0,1,0,.825.736.736,0,0,1,.25.247.823.823,0,0,1,.855,0a.9.9,0,0,1,.577.275L1.46.33l.275.357.11.11.385.495L4.264,4.619l.082.192.11.165,2.117,5.581,1.292,6.736v.192Q7.921,17.542,7.839,17.542Z" fill="#2b0700"/>
            </g>
          </g>
          <g id="Group_43650" data-name="Group 43650" transform="translate(24.971 18.565)">
            <g id="Group_43649" data-name="Group 43649" transform="translate(0 0)">
              <path id="Path_40253" data-name="Path 40253" d="M9.809,12.394q-.055.055-.055-.027L7.06,7.747,5.878,6.1l-2.667-2.8-.852-.66-.11-.055L2.166,2.5l-.467-.3-.082-.027L1.369,2l-.082-.027-.192-.11-.082-.027-.3-.165L.626,1.644.489,1.561H.461a.749.749,0,0,1-.412-.467A.837.837,0,0,1,.076.461.749.749,0,0,1,.544.049a.837.837,0,0,1,.632.027l.22.11.082.055.027.027L1.561.3l.247.165.082.027L2.468.9l.082.082.082.055.412.33.082.082.11.082a7.526,7.526,0,0,1,.852.825l.88.962L6.4,5.3l.082.165.11.137L7.94,7.995l1.9,4.344Q9.892,12.394,9.809,12.394Z" fill="#2b0700"/>
            </g>
          </g>
          <g id="Group_43652" data-name="Group 43652" transform="translate(54.293 19.741)">
            <g id="Group_43651" data-name="Group 43651" transform="translate(0 0)">
              <path id="Path_40254" data-name="Path 40254" d="M.147,12.125a.09.09,0,0,1-.11.027q-.055-.082-.028-.11l1.567-3.6L4.766,2.859,5.811,1.7l.247-.22L6.2,1.4l.247-.22L7.158.687,7.3.632,7.405.55,7.873.33,7.983.3l.3-.137L8.477.11H8.56L9.082,0h.3a.073.073,0,0,1,.082.082L9.44.137H9.412L9.3.275l-.495.44L8.7.852,8.56.962l-.082.082-.055.082-.385.412L5.426,4.7a11.527,11.527,0,0,0-.907,1.072Z" transform="translate(0)" fill="#2b0700"/>
            </g>
          </g>
          <g id="Group_43654" data-name="Group 43654" transform="translate(29.557 21.336)">
            <g id="Group_43653" data-name="Group 43653" transform="translate(0 0)">
              <path id="Path_40255" data-name="Path 40255" d="M14.352,11.85l-.082-.165-.165-.44a2.924,2.924,0,0,1-.22-.495l-.082-.11-.192-.44-.082-.137-.055-.137-.247-.467-.11-.165-.165-.33-.44-.66a11.925,11.925,0,0,0-.962-1.347l-1.21-1.32q-.77-.715-1.375-1.182a14.149,14.149,0,0,0-1.54-.962l-.8-.412L6.6,3.052l-.055-.027L6.434,3,.275.33.055.22Q0,.22,0,.11L.082.082.44.027H.6L.77,0H2.035l2.09.3.8.22A9.3,9.3,0,0,1,6.6,1.155L7.863,1.9l1.925,1.54a15,15,0,0,1,1.4,1.43,15.424,15.424,0,0,1,1.127,1.512l.577.962.055.11L13,7.534l.357.77.11.165.22.55.082.165.055.192.357.935.027.165.055.137L14.6,11.8l.027.165.082.247.027.247q.082.082-.055.082-.082.082-.082-.055Z" fill="#2b0700"/>
            </g>
          </g>
          <g id="Group_43656" data-name="Group 43656" transform="translate(83.218 31.041)">
            <g id="Group_43655" data-name="Group 43655" transform="translate(0 0)">
              <path id="Path_40256" data-name="Path 40256" d="M7.294.11V.165L7.046.522,6.964.6,6.936.66V.687H6.909V.715l-.577.6-1.32.935L3.72,2.8,1.795,3.9l-.962.687L.31,5.086l-.027.055-.055.027-.055.082a.069.069,0,0,1-.11,0q-.11,0-.027-.082l.027-.082L.09,5.032l.027-.082.3-.55.77-1.017L3.665,1.155A4.9,4.9,0,0,1,4.352.66L4.517.577,4.6.522,4.682.495,5.039.33,5.782.11h.082L6.552,0l.66.027Q7.349.027,7.294.11Z" fill="#2b0700"/>
            </g>
          </g>
          <g id="Group_43658" data-name="Group 43658" transform="translate(42.85 21.95)">
            <g id="Group_43657" data-name="Group 43657" transform="translate(0 0)">
              <path id="Path_40257" data-name="Path 40257" d="M2.158,11.044l-.027.082-.44.8-.027.082-.137.22q0,.082-.11.027L1.388,12.2l-.027-.027-.082-.3-.11-1.787.137-1.237V8.789l.027-.027V8.6l.027-.027V8.377l.027-.11V8.1l.027-.082v-.11l.027-.495.027-.137V7.139a5.328,5.328,0,0,0-.11-1.1q-.055-.3-.275-1.1L.949,4.555.921,4.417l-.22-.6L.674,3.785V3.758L.509,3.373.069,1.86.014,1.393a1.552,1.552,0,0,1,0-.412L.069.6.234.266.454.1.564.046H.646V.018H.811Q.894-.037.894.073q0,.082-.055.082L.811.183H.756L.729.211H.7V.238H.646L.591.293.481.458a.488.488,0,0,0-.055.22.688.688,0,0,0,0,.275l.22.742.88,1.65v.027h.027V3.4l.055.055.55,1.072q.11.22.495,1.182l.192.632.027.137.055.165.055.33.055.165.055.33.027.742-.027.082v.165l-.082.467-.082.247v.055l-.467,1.155-.027.11-.055.082-.165.385Z" fill="#2b0700"/>
            </g>
          </g>
          <g id="Group_43660" data-name="Group 43660" transform="translate(12.538 15.974)">
            <g id="Group_43659" data-name="Group 43659" transform="translate(0 0)">
              <path id="Path_40258" data-name="Path 40258" d="M.22,6.1l-.055.027L.11,6.021.082,5.939V5.8L.055,5.664V5.5L.027,5.306V5.2L0,5.114V4.372l.027-.082.027-.467.027-.137V3.519l.55-2.2L.825.88.88.8.907.687l.11-.165.165-.33L1.21.165,1.265.082,1.32.027,1.375,0,1.4.055V.33L1.347.825v.11l-.027.11-.082.715-.055.247-.027.275L.742,4.344.715,4.4v.055L.357,5.691.33,5.829.3,5.884v.055l-.055.082Z" transform="translate(0 0)" fill="#2b0700"/>
            </g>
          </g>
          <g id="Group_43662" data-name="Group 43662" transform="translate(16.827 7.149)">
            <g id="Group_43661" data-name="Group 43661" transform="translate(0 0)">
              <path id="Path_40259" data-name="Path 40259" d="M3.547,13.8l-.082-.632L3.6,10.09l.44-2.612L2.914,8.716l-.082.055-.137.165-.33.3-.055.082-.082.055L.852,10.613l-.082.055-.687.55q-.018.018-.055,0H0v-.082l.11-.247.027-.11L.192,10.7l.55-1.622.082-.192.77-3.189V5.636l.027-.055.027-.137.027-.275.055-.247.22-1.512.055-.247L2.365.522V.412L2.392.33l.055-.3L2.5,0l.027.055L2.584.33V.44l.027.11.11,1.732-.3,3.437V5.8l-.027.055L1.9,7.836l-.055.11-.247.715-.412.852.495-.632L1.76,8.8l.055-.082.44-.495.055-.082L4.482,5.911l.6.33-.165.495-.027.11-.055.11L3.932,10.64l-.247,2.007V14.16q.055.055-.027.055L3.6,14.187l-.055-.247Z" transform="translate(0 0)" fill="#2b0700"/>
            </g>
          </g>
          <g id="Group_43664" data-name="Group 43664" transform="translate(64.603 19.906)">
            <g id="Group_43663" data-name="Group 43663" transform="translate(0 0)">
              <path id="Path_40260" data-name="Path 40260" d="M.119,11.988.2,11.85l.027-.082.852-1.43.44-.6L1.659,9.6l.11-.165.082-.082.055-.082.3-.33q.852-.907,1.375-1.375L5.261,6.186A20.809,20.809,0,0,1,7.185,4.894l4.179-2.255.137-.082,3-1.237L15.764.935,20.713.027h.165L21.042,0h.3a.073.073,0,0,1,.082.082l-.055.055L18.183,1.622q-.137.055-.192.082l-.192.11-1.54.6-.22.11-3.794,1.43-.137.027-2.282.907-.247.137-2.09.99L4.078,8.166A16.628,16.628,0,0,0,2.621,9.348l-.385.357L1.081,10.97.147,12.318a.09.09,0,0,1-.11.027q-.055-.082-.027-.11Z" fill="#300"/>
            </g>
          </g>
          <g id="Group_43666" data-name="Group 43666" transform="translate(23.211 18.146)">
            <g id="Group_43665" data-name="Group 43665" transform="translate(0 0)">
              <path id="Path_40261" data-name="Path 40261" d="M4.7,2.227q.055.055-.027.082l-.082.027-.825.027-.22-.027L3.459,2.31h-.11l-.22-.055h-.11L2.5,2.09l-.11-.055H2.332l-.055-.027-.22-.082-.33-.165L1.644,1.7l-.22-.11L1.149,1.4l-.055-.027L.819,1.127.737,1.072.6.935.517.88.159.44.132.412.1.357.049.3.022.22Q-.033.165.049.137L.214.082H.269L.324.055.764,0H.957l.22.027h.192l.22.027.055.027H1.7L2.277.22,2.442.3H2.5l.77.385L3.349.77l.192.11.11.082L3.679.99l.055.027.165.165.082.055.22.22.055.082.055.055.275.385.082.165Z" transform="translate(0)" fill="#2b0700"/>
            </g>
          </g>
          <g id="Group_43668" data-name="Group 43668" transform="translate(0 28.521)">
            <g id="Group_43667" data-name="Group 43667" transform="translate(0 0)">
              <path id="Path_40262" data-name="Path 40262" d="M1.127,4.252.66,4.307l-.6-.027L0,4.2V4.143L.22,3.7l.055-.055V3.62L.66,3.153l.55-.522.137-.11.137-.082.055-.055.22-.137L6.681.018q.055-.055.11.055L6.764.156,6.516.4l-.11.137L6.241.678l-.357.357L3.189,3.29a3.6,3.6,0,0,1-.577.44l-.22.137L1.4,4.2H1.347l-.082.027Z" transform="translate(0 0)" fill="#2b0700"/>
            </g>
          </g>
          <g id="Group_43670" data-name="Group 43670" transform="translate(3.574 34.071)">
            <g id="Group_43669" data-name="Group 43669" transform="translate(0 0)">
              <path id="Path_40263" data-name="Path 40263" d="M1.182,7.308.715,7.8H.687V7.83H.66l-.027.055-.11.055-.33.275Q.137,8.27.055,8.188L.027,7.72,0,7.61l.027-.66.027-.137V6.648l.165-.66L.247,5.8.33,5.548l.055-.11L.44,5.273,3.134.764l.11-.22.33-.495q.082-.082.11-.027a.09.09,0,0,1,.027.11L2.035,5.961l-.082.165L1.9,6.208l-.027.082-.11.165-.082.165-.385.55-.055.055Z" fill="#2b0700"/>
            </g>
          </g>
          <g id="Group_43672" data-name="Group 43672" transform="translate(6.736 1.848)">
            <g id="Group_43671" data-name="Group 43671" transform="translate(0 0)">
              <path id="Path_40264" data-name="Path 40264" d="M.027,26.719,0,26.637l.3-2.612.055-.192L1.1,20.175q.192-.852.632-2.282l2.557-7.341q.33-1.017.88-2.392L8.331.847l.495-.8q.082-.082.11-.027.082.055.027.11L8.826.407,8.193,1.974l-.082.165L7.973,2.5,3.712,17.179,1.567,23.5.3,26.389l-.165.275Q.137,26.719.027,26.719Z" fill="#2b0700"/>
            </g>
          </g>
          <g id="Group_43674" data-name="Group 43674" transform="translate(67.499 31.074)">
            <g id="Group_43673" data-name="Group 43673" transform="translate(0 0)">
              <path id="Path_40265" data-name="Path 40265" d="M21.886,13.109l-.275.357-.055.11-.082.082-.55.742-.275.3-.027.055-1.677,1.622q-.44.412-1.375,1.182l-2.914,2.2a.541.541,0,0,0-.192.137l-2.8,1.76q-1.65.962-2.914,1.54l-1.732.77-.192.055-.027.027H6.736l-.082.055L3.6,25.042q-.907.192-1.9.357l-1.65.192Q0,25.647,0,25.564l.027-.055,4.427-1.567,1.457-.687.165-.055.165-.082.082-.055h.027l.027-.027,1.787-.962q.99-.55,2.722-1.677L18.2,14.869l1.512-1.485.522-.632.082-.082.275-.412.137-.165L22,9.838l.055-.192.385-.88.11-.357.055-.082V8.3l.027-.055.137-.44.027-.027V7.72l.495-2.007V5.576l.11-.77V4.641l.027-.275.028-.082v-.77a8.853,8.853,0,0,0-.192-1.842L23.04.6l-.055-.11-.11-.412Q22.82.022,22.9.022q.055-.055.055.027l.22.385.027.027.412.907.247.825.055.11.275,1.43.028.467.027.082v.385l.028.165-.055,1.54L24.03,7.638l-.055.192-.027.192v.055l-.027.055-.027.082L23.81,8.6l-.027.027v.055l-.495,1.567-.055.11-.055.192Z" fill="#812511"/>
            </g>
          </g>
          <g id="Group_43676" data-name="Group 43676" transform="translate(67.142 20.703)">
            <g id="Group_43675" data-name="Group 43675" transform="translate(0 0)">
              <path id="Path_40266" data-name="Path 40266" d="M4.042,28.622.082,31.179Q0,31.261,0,31.151V31.1l6.489-6.021q1.485-1.485,2.227-2.282l3.739-4.454.632-.88q.66-.907.99-1.457l1.567-2.584.082-.192.055-.082,1.7-3.794q.082-.247.247-.715L18.146,7.4l.027-.165.275-.99.027-.165.055-.165.715-5.2.027-.66A.049.049,0,0,1,19.329,0l.027.027.082.44a11.648,11.648,0,0,1,.137,1.21l.055.412.027,2.365L19.3,7.506l-.055.165-.027.192L18.5,10.558l-1.292,3.189-.055.082-.027.11-.742,1.4L13.06,20.236l-1.182,1.347-.137.192-1.677,1.732-.137.165-.165.137q-1.155,1.155-2.42,2.2Z" fill="#812511"/>
            </g>
          </g>
          <g id="Group_43678" data-name="Group 43678" transform="translate(55.209 20.099)">
            <g id="Group_43677" data-name="Group 43677" transform="translate(0 0)">
              <path id="Path_40267" data-name="Path 40267" d="M0,23.343l.027-.055.825-.6.11-.055.22-.192.137-.082.247-.22.137-.082.137-.137.44-.357.22-.22.082-.055,1.567-1.7.99-1.4.192-.357.082-.11.027-.055L5.5,17.6l.22-.385v-.027l.027-.027.742-1.485.082-.137.962-2.392.027-.055L8.551,9.4l.027-.055V9.266l.082-.44V8.771h.027V8.688l.055-.275.33-2.969V5.2L9.1,5.059l.027-1.292.027-.22L9.1.055Q9.046,0,9.128,0l.055.027.522,1.7.055.357.055.165L10.2,4.922v.137l.027.11.027,1.072q.027.99-.055,2.337l-.027.3v.137l-.027.027v.137l-.055.3v.165l-.55,2.667L8.413,15.369l-1.4,2.557-.055.055-.247.385-.027.055-.055.055-.082.137-.55.715-1.732,1.76-.22.165-.082.082-.11.055-.742.55L3,22l-.6.385q-.275.165-1.237.6l-.11.055-.11.027-.22.082-.11.055-.55.165Q0,23.425,0,23.343Z" fill="#812511"/>
            </g>
          </g>
          <g id="Group_43680" data-name="Group 43680" transform="translate(44.376 22.001)">
            <g id="Group_43679" data-name="Group 43679" transform="translate(0 0)">
              <path id="Path_40268" data-name="Path 40268" d="M9.816,17.783l-.055-.247-.137-1.182L9.6,16.216v-.137L8.963,12.12l-.66-2.5-.165-.44L8.083,8.93l-.055-.11L8,8.71l-.11-.22-.082-.247-.825-1.76-.55-.907-.055-.11-.99-1.292Q4.894,3.6,4.179,2.909l-.632-.55-.165-.11-.137-.137-.33-.22-.055-.055L2.2,1.369.027.1,0,.049Q0-.033.055.022L.6.1H.687L1.512.3,1.65.352l.137.027.935.33.522.247.11.027.082.055a13.524,13.524,0,0,1,1.512.852A14.171,14.171,0,0,1,6.461,3.156l.357.385.11.082.907,1.155a10.753,10.753,0,0,1,1.072,1.87l.66,1.65.027.137L9.953,9.7l.357,2.447.027.687.027.22L10.2,16.079v.137l-.3,1.595-.055.027Z" fill="#812511"/>
            </g>
          </g>
          <g id="Group_43682" data-name="Group 43682" transform="translate(67.912 56.144)">
            <g id="Group_43681" data-name="Group 43681" transform="translate(0 0)">
              <path id="Path_40269" data-name="Path 40269" d="M1.815,10.778H1.457L1.4,10.75h-.11l-.11-.027L.66,10.53l-.44-.275L.165,10.2l-.137-.11a.069.069,0,0,1,0-.11l.055-.027H.11l.137-.027H.412L.522,9.9H.66l.11-.027H.852l.055-.027.3-.055.055-.027.082-.027.027-.027H1.4l.082-.027.055-.027.082-.082H1.65L1.7,9.513l.275-.44.11-.33v-.11l.33-1.815V6.681l.027-.137L1.87.22V.082Q1.787,0,1.925,0q.082,0,.082.055l.22.495,1.32,4.427.385,3.052-.192,1.1-.082.165L3.6,9.458,3.519,9.6l-.027.082-.165.22a3.261,3.261,0,0,1-.467.522q-.055.027-.6.275Z" transform="translate(0 0)" fill="#812511"/>
            </g>
          </g>
          <g id="Group_43684" data-name="Group 43684" transform="translate(4.427 35.385)">
            <g id="Group_43683" data-name="Group 43683" transform="translate(0 0)">
              <path id="Path_40270" data-name="Path 40270" d="M.33,7.451.055,7.4,0,7.341l.027-.027.247-.165.082-.027.825-.495L1.21,6.6l.11-.055.165-.11.165-.082.3-.22L2.007,6.1l.027-.027.082-.055,1.155-.935L3.354,5l.082-.055.715-.742.055-.082.165-.165L4.647,3.6l.027-.055L4.7,3.519l.137-.192.082-.082.11-.192.137-.165.577-.907.082-.165.3-.467.082-.165.11-.137.6-1.017L6.984,0l.027.055.027.137V.33l.027.11L7.039,1.457l-.385,1.65L6.6,3.244l-.027.11-.6,1.155a9.158,9.158,0,0,1-.66.88L4.922,5.8l-1.1.825-.22.11-.11.082-.247.11-.11.027-.275.137H2.8l-.11.055-.11.027L2.529,7.2H2.475l-.22.082-.22.027-.192.055-.385.055Z" transform="translate(0)" fill="#812511"/>
            </g>
          </g>
        </g>
        <g id="Group_43692" data-name="Group 43692" transform="translate(11.363 20.542)">
          <g id="Group_43687" data-name="Group 43687" transform="translate(7.966 0) rotate(15.965)">
            <g id="Group_43686" data-name="Group 43686" transform="translate(0 0)">
              <path id="Path_40271" data-name="Path 40271" d="M13.275,25.514A7.218,7.218,0,0,1,8.162,28.9q-3.229.512-5.829-3.107A14.114,14.114,0,0,1,.023,16.744,17.755,17.755,0,0,1,2.855,7.561,17.465,17.465,0,0,1,8.546,2.007,38.981,38.981,0,0,1,13.523,0q.275,1.41,1.7,5.774a24.37,24.37,0,0,1,.66,10.585Q15.14,22.62,13.275,25.514Z" fill="#e2ad98"/>
            </g>
          </g>
          <g id="Group_43689" data-name="Group 43689" transform="translate(5.986 16.307)">
            <g id="Group_43688" data-name="Group 43688" transform="translate(0 0)">
              <path id="Path_40272" data-name="Path 40272" d="M.082,8.023l.33.11.11.055.137.027.3.11h.082l.3.082.192.027.11.027h.11l.44.055.495-.027.495-.11a4.544,4.544,0,0,0,.99-.412l.495-.357.22-.192.055-.027.385-.385L6.351,5.741,7.588,3.706l.055-.137L8.963.984,9.018.9,9.211.489l.082-.11L9.376.187,9.458.049q0-.082.055-.027.082,0,.027.055L9.458.709l-.33,1.347-1.017,2.8L6.846,6.951l-.99,1.072a.3.3,0,0,0-.137.11l-.44.33-.77.44-.165.055-.165.082L4.014,9.1l-.66.137H3.189l-.165.027h-.3L1.732,9.1l-.165-.082H1.512L1.4,8.958l-.22-.082L.3,8.353,0,8.105V8.023Z" fill="#c18770"/>
            </g>
          </g>
          <g id="Group_43691" data-name="Group 43691" transform="translate(3.888 19.991)">
            <g id="Group_43690" data-name="Group 43690" transform="translate(0 0)">
              <path id="Path_40273" data-name="Path 40273" d="M4.572,10.277,3.5,10.085,2.977,9.92l-.082-.055L2.73,9.81l-.082-.055L2.482,9.7,2.4,9.645l-.082-.027-.467-.3L1.8,9.288l-.082-.082-.055-.027L1.63,9.15l-.495-.385L.558,8.078.475,7.94.365,7.8l-.33-.6q-.082-.082.027-.082H.118l.632.577.137.082.11.11.137.082.137.11.8.467H2.1L2.18,8.6h.027l.027.027.522.192.055.027.165.055.055.027h.082l.165.055h.055l.082.027H3.5l.082.027h.055l.082.027.165.027h.137l.33.055h.3q.3,0,.825-.055l1.292-.247.3-.082h.055l.027-.027h.027l.8-.3.8-.44a1.362,1.362,0,0,0,.357-.247l.11-.055.082-.055.082-.082.11-.055L9.6,7.418l.082-.055.522-.44.99-1.045.055-.11.082-.082L12.71,3.679V3.651l.027-.027.027-.055.192-.275L14.8.049q0-.082.055-.027.082,0,.027.055L13.15,3.871l-.027.027v.027L11.94,5.961l-.137.192-.055.11L10.4,7.83l-.275.247-.055.027-.027.027-.11.082L9.851,8.3l-.11.082-.082.082-.385.275a5.952,5.952,0,0,1-.852.522l-.88.44-.027.027H7.486l-.165.082-.715.22a6.861,6.861,0,0,1-.99.192,6.54,6.54,0,0,1-.99.055Z" fill="#f0cbbc"/>
            </g>
          </g>
        </g>
        <g id="Group_43699" data-name="Group 43699" transform="translate(58.013 28.237)">
          <g id="Group_43694" data-name="Group 43694" transform="translate(0 0.214)">
            <g id="Group_43693" data-name="Group 43693" transform="translate(0 0)">
              <path id="Path_40274" data-name="Path 40274" d="M2.062,1.958q8-5.038,10.228,2.887l.11,1.65L9.183,9.931a39.335,39.335,0,0,0-.962,14.682Q5.655,27.36,4.344,23.156L0,4.1A3.888,3.888,0,0,1,2.062,1.958Z" fill="#e2ad98"/>
            </g>
          </g>
          <g id="Group_43696" data-name="Group 43696" transform="translate(6.834 2.09)">
            <g id="Group_43695" data-name="Group 43695" transform="translate(0 0)">
              <path id="Path_40275" data-name="Path 40275" d="M.013,13.06A34.023,34.023,0,0,1,.48,9.073q.365-1.895.412-1.98,1.677-1.4,2.832-2.365a3.019,3.019,0,0,0,1.1-2.749A2.8,2.8,0,0,0,3.724,0,3.312,3.312,0,0,1,6.006,2.8,2.853,2.853,0,0,1,4.439,5.746Q2.678,6.767,1.717,7.4l.3.577-.165.247-.66-.027.715.055L.81,13.967l.082,4.152.495,4.564a23.379,23.379,0,0,1-1.045-4.4A30.48,30.48,0,0,1,.013,13.06Z" fill="#f0cbbc"/>
            </g>
          </g>
          <g id="Group_43698" data-name="Group 43698" transform="translate(0.027 0)">
            <g id="Group_43697" data-name="Group 43697" transform="translate(0 0)">
              <path id="Path_40276" data-name="Path 40276" d="M8.248,24.773l-.055-.027-.522-4.7-.027-1.9-.027-.11.027-.11.082-2.859.55-4.454.192-.907a.5.5,0,0,1,.22-.357l.66-.412,1.457-1.21.687-.852.082-.165.11-.137.137-.3.055-.082.192-.577.027-.165V5.361l.027-.082L12.153,5q.01.037.027.082l-.027-.165V5q-.277-.72-.3-.8a3.47,3.47,0,0,0-.412-.825,4.636,4.636,0,0,0-.522-.742,7.745,7.745,0,0,0-.66-.632,4.534,4.534,0,0,0-.77-.495,5.092,5.092,0,0,0-.852-.357,5.974,5.974,0,0,0-.907-.22L7.259.852h-.11L7.011.825H6.9L6.791.8H6.076L5.829.825a3.5,3.5,0,0,0-.935.137,5.873,5.873,0,0,0-.935.247l-.88.385L1.485,2.722.77,3.409a4.613,4.613,0,0,0-.687.742q-.027.027-.082,0V4.069l.577-.825a5.726,5.726,0,0,1,.66-.77A8.818,8.818,0,0,1,1.98,1.76l.825-.6L3.739.632,4.7.275,5.746.055,6.269,0H7.341l.522.055a9.911,9.911,0,0,1,1.045.22A4.1,4.1,0,0,1,9.926.66a4.372,4.372,0,0,1,.935.55,3.93,3.93,0,0,1,.8.742l.687.88a7.223,7.223,0,0,1,.495.935A8.732,8.732,0,0,1,13.2,4.784l.027.165-.027.577L13,6.3l-.137.3-.027.11-.44.77L11.575,8.5,10.558,9.4l-.275.165-.165.137-.687.44-.99,6.874v.11l-.027.11-.027.687-.027.137-.027.8L8.3,19l-.027,1.512-.027.22.027,3.987Q8.331,24.773,8.248,24.773Z" transform="translate(0)" fill="#a97059"/>
            </g>
          </g>
        </g>
        <g id="Group_43718" data-name="Group 43718" transform="translate(39.85 40.03)">
          <g id="Group_43704" data-name="Group 43704" transform="translate(28.391 0)">
            <g id="Group_43701" data-name="Group 43701" transform="translate(0 0)">
              <g id="Group_43700" data-name="Group 43700" transform="translate(0)">
                <path id="Path_40277" data-name="Path 40277" d="M6.7,4.373a4.937,4.937,0,0,1-.99,3.1A2.892,2.892,0,0,1,3.35,8.746,2.935,2.935,0,0,1,.974,7.475,4.994,4.994,0,0,1,0,4.373,4.923,4.923,0,0,1,.974,1.287,2.925,2.925,0,0,1,3.35,0a2.882,2.882,0,0,1,2.36,1.287A4.868,4.868,0,0,1,6.7,4.373Z" fill="#231915"/>
              </g>
            </g>
            <g id="Group_43703" data-name="Group 43703" transform="translate(3.695 4.554)">
              <g id="Group_43702" data-name="Group 43702" transform="translate(0 0)">
                <path id="Path_40278" data-name="Path 40278" d="M1.618,1.09a1.243,1.243,0,0,1-.264.743.661.661,0,0,1-.578.281A.706.706,0,0,1,.216,1.8,1.275,1.275,0,0,1,0,1.024,1.123,1.123,0,0,1,.265.3.691.691,0,0,1,.859,0,.654.654,0,0,1,1.4.331,1.168,1.168,0,0,1,1.618,1.09Z" fill="#fff"/>
              </g>
            </g>
          </g>
          <g id="Group_43706" data-name="Group 43706" transform="translate(27.626 5.053)">
            <g id="Group_43705" data-name="Group 43705" transform="translate(0 0)">
              <path id="Path_40279" data-name="Path 40279" d="M11.811.067a2.541,2.541,0,0,1-.765,1.7,16.95,16.95,0,0,1-7.22,4.259A26.369,26.369,0,0,1,0,0,7.883,7.883,0,0,0,4.791,2.3,8.774,8.774,0,0,0,11.811.067Z" fill="#e2ad98"/>
            </g>
          </g>
          <g id="Group_43708" data-name="Group 43708" transform="translate(27.249 4.321)">
            <g id="Group_43707" data-name="Group 43707" transform="translate(0 0)">
              <path id="Path_40280" data-name="Path 40280" d="M10.624,1.431l.133-.133.166-.1.566-.433L12.321,0h.1V.1l-.133.333-.067.1L12.088.8l-.665.932-.732.8-.9.665-.166.1-.1.033-.266.166-.2.067-.166.1-.8.266H8l-.233.067h-.1L7.5,4.026H7.364l-.1.033h-.4l-.2.033h-.4l-.2-.033h-.4l-1.2-.233-1.131-.4L1.974,2.6l-.3-.266L1.608,2.3l-.4-.5L1.142,1.73l-.033-.067-.1-.133L.776,1.3l-.1-.133L.643,1.1.577,1.031.011.233Q-.022.2.044.133H.111L.943.7l.133.067.5.4.067.033.067.067.5.4,1.564.665.166.033.166.067,1.53.3h.333l.166.033H7l.166-.033h.166l.2-.033h.133l.1-.033H7.83l.5-.1L8.462,2.5l.166-.033.8-.333.9-.5.233-.166Z" fill="#231915"/>
            </g>
          </g>
          <g id="Group_43713" data-name="Group 43713" transform="translate(2.606 0)">
            <g id="Group_43710" data-name="Group 43710" transform="translate(0 0)">
              <g id="Group_43709" data-name="Group 43709">
                <path id="Path_40281" data-name="Path 40281" d="M6.7,4.373a4.937,4.937,0,0,1-.99,3.1A2.892,2.892,0,0,1,3.35,8.746,2.935,2.935,0,0,1,.974,7.475,4.994,4.994,0,0,1,0,4.373,4.923,4.923,0,0,1,.974,1.287,2.925,2.925,0,0,1,3.35,0a2.882,2.882,0,0,1,2.36,1.287A4.868,4.868,0,0,1,6.7,4.373Z" fill="#231915"/>
              </g>
            </g>
            <g id="Group_43712" data-name="Group 43712" transform="translate(3.695 4.554)">
              <g id="Group_43711" data-name="Group 43711" transform="translate(0 0)">
                <path id="Path_40282" data-name="Path 40282" d="M1.618,1.09a1.243,1.243,0,0,1-.264.743.661.661,0,0,1-.578.281A.706.706,0,0,1,.216,1.8,1.275,1.275,0,0,1,0,1.024,1.123,1.123,0,0,1,.265.3.691.691,0,0,1,.859,0,.654.654,0,0,1,1.4.331,1.168,1.168,0,0,1,1.618,1.09Z" fill="#fff"/>
              </g>
            </g>
          </g>
          <g id="Group_43715" data-name="Group 43715" transform="translate(0.377 5.518)">
            <g id="Group_43714" data-name="Group 43714">
              <path id="Path_40283" data-name="Path 40283" d="M7.419,7.186a17.619,17.619,0,0,1-1.9-1.1A15.027,15.027,0,0,1,0,0Q.932.765,1.9,1.5a7.341,7.341,0,0,0,6.687,1.4A34.471,34.471,0,0,0,15.87.233,4.464,4.464,0,0,1,14.24,2.5,72.768,72.768,0,0,1,7.419,7.186Z" fill="#e2ad98"/>
            </g>
          </g>
          <g id="Group_43717" data-name="Group 43717" transform="translate(0 4.786)">
            <g id="Group_43716" data-name="Group 43716" transform="translate(0 0)">
              <path id="Path_40284" data-name="Path 40284" d="M5.667,4.458,4.4,4.092,4.27,4.026l-.133-.033a7.784,7.784,0,0,1-.932-.433l-.033-.033-.067-.033-.1-.067L2.872,3.36,2.34,2.994l-.765-.665L1.542,2.3V2.262l-.2-.233L.244.532.177.366.011.1Q-.022.067.044,0H.078L.344.2.477.333l1.4,1.2.233.233L2.074,1.7l.8.5.4.2.1.067L3.5,2.5l.1.067h.033l.266.133H3.97L4,2.728l.233.067.033.033h.067l.333.133h.1l.566.166h.1l1.1.166.8.033.133-.033h.7l.433-.067h.133l.1-.033h.233l.233-.033.233-.067.433-.067.466-.133h.033l.067-.033.1-.033.233-.033.865-.3.433-.2.233-.067.1-.067.1-.033.865-.433.2-.133.2-.1L15.881.133q.033-.033.1.033V.233l-.3.4L14.65,1.73l-1.164.965-.4.266-.133.067-.3.2-1.4.7-.965.266-.266.1L8.5,4.558H8.262l-.133.033h-.9a6.385,6.385,0,0,1-1.065-.067Z" fill="#231915"/>
            </g>
          </g>
        </g>
        <g id="Group_43723" data-name="Group 43723" transform="translate(49.153 17.132)">
          <g id="Group_43720" data-name="Group 43720" transform="translate(0.42 0)">
            <g id="Group_43719" data-name="Group 43719" transform="translate(0 0)">
              <path id="Path_40285" data-name="Path 40285" d="M19.3,1.76q0,.12-.08.04l-3.8-.6h-.2l-.16-.04-2.919-.04-.24.04-1.56.12-.12.04H10.1l-.2.04-.92.08-1.32.28-.4.12-.24.04-.2.08L2.939,3.2l-.16.08-.16.04-.28.16-1.04.44-.2.12-.2.08-.76.4q-.12.12-.12-.04a.05.05,0,0,1,0-.08l.4-.36.12-.08L.7,3.8l.8-.6.84-.48.12-.12,1.56-.76a16.067,16.067,0,0,1,1.6-.64h.04l.16-.08L6.939.76l3-.64h.24L10.9.04,12.777,0l.24.04h.44l3.479.68.6.24.28.08,1,.4.44.24Q19.376,1.68,19.3,1.76Z" fill="#231915"/>
            </g>
          </g>
          <g id="Group_43722" data-name="Group 43722" transform="translate(0 2)">
            <g id="Group_43721" data-name="Group 43721" transform="translate(0 0)">
              <path id="Path_40286" data-name="Path 40286" d="M2.08,4.359H1.76l-.24-.12L1.36,4.2l-.08-.04-.08-.08-.32-.24-.16-.16H.68v-.04l-.12-.12-.12-.24-.16-.2L.04,2.36,0,2.12l.04-.96L.2.48.32.24V.2L.36.16.4.08.44.04.52,0,.56.08.6.12v.4L.64.68v.44l.04.08v.2l.04.2v.2l.04.08V2l.08.28.04.08v.12l.12.28.04.04v.04l.12.24.04.12.08.08.08.16.28.4.4.4Z" fill="#c18770"/>
            </g>
          </g>
        </g>
        <g id="Group_43726" data-name="Group 43726" transform="matrix(0.959, 0.282, -0.282, 0.959, 35.376, 50.141)">
          <g id="Group_43725" data-name="Group 43725" transform="translate(0 0)">
            <g id="Group_43724" data-name="Group 43724">
              <path id="Path_40287" data-name="Path 40287" d="M9.234,3.739A26.189,26.189,0,0,1,2.407,2.282,14.82,14.82,0,0,0,4.188,4.536,10.623,10.623,0,0,1,2.177,2.969a11.176,11.176,0,0,1-.759-.825L0,0,2.243,1.512A17.478,17.478,0,0,0,9.894,3.079a24.5,24.5,0,0,0,6.959-.907q2.342-.66,2.8-.357a1.069,1.069,0,0,1,.462,1.347l-.033-.082a1.337,1.337,0,0,0-.462-.66,1.572,1.572,0,0,0-.857-.082,18.787,18.787,0,0,0-2.638.715A18.787,18.787,0,0,1,9.234,3.739Z" fill="#2b0700"/>
              <path id="Path_40288" data-name="Path 40288" d="M0,0A26.189,26.189,0,0,0,6.827,1.457,18.787,18.787,0,0,0,13.719.77,18.787,18.787,0,0,1,16.358.055a1.572,1.572,0,0,1,.857.082,1.337,1.337,0,0,1,.462.66L17.71.88l-.033.082a2.363,2.363,0,0,1-1.286,1.265,17.665,17.665,0,0,1-4.716,1.265,18.02,18.02,0,0,1-8.014-.44,10.622,10.622,0,0,1-1.88-.8A14.82,14.82,0,0,1,0,0Z" transform="translate(2.407 2.282)" fill="#540e00"/>
            </g>
          </g>
        </g>
        <g id="Group_43729" data-name="Group 43729" transform="matrix(-0.959, 0.282, -0.282, -0.959, 84.422, 56.962)">
          <g id="Group_43728" data-name="Group 43728" transform="translate(0 0)">
            <g id="Group_43727" data-name="Group 43727">
              <path id="Path_40289" data-name="Path 40289" d="M6.9.717A16.77,16.77,0,0,0,1.8,2.028,13.262,13.262,0,0,1,3.13,0a8.34,8.34,0,0,0-1.5,1.41q-.294.347-.567.742L0,4.08,1.676,2.72a11.219,11.219,0,0,1,5.719-1.41,15.425,15.425,0,0,1,5.2.816q1.75.594,2.1.321a1.064,1.064,0,0,0,.345-1.212l-.025.074a1.219,1.219,0,0,1-.345.594.993.993,0,0,1-.641.074,12.189,12.189,0,0,1-1.972-.643A11.792,11.792,0,0,0,6.9.717Z" transform="translate(0 1.335)" fill="#2b0700"/>
              <path id="Path_40290" data-name="Path 40290" d="M0,3.363A16.77,16.77,0,0,1,5.1,2.053a11.792,11.792,0,0,1,5.152.618,12.189,12.189,0,0,0,1.972.643.993.993,0,0,0,.641-.074,1.219,1.219,0,0,0,.345-.594l.025-.074L13.212,2.5a1.981,1.981,0,0,0-.961-1.138A11.507,11.507,0,0,0,8.726.223a11.28,11.28,0,0,0-5.99.4,7.289,7.289,0,0,0-1.405.717A13.262,13.262,0,0,0,0,3.363Z" transform="translate(1.799 0)" fill="#540e00"/>
            </g>
          </g>
        </g>
        <g id="Group_43731" data-name="Group 43731" transform="translate(38.41 25.212)">
          <g id="Group_43730" data-name="Group 43730" transform="translate(0 0)">
            <path id="Path_40291" data-name="Path 40291" d="M3.3,4.124V3.3h.825M3.3,3.3V2.475M6.6,3.3,3.3,0,0,3.3,3.3,6.6Zm-4.124,0H3.3" transform="translate(0 0)" fill="none" stroke="rgba(0,0,0,0)" stroke-linecap="round" stroke-linejoin="round" stroke-width="0.093"/>
          </g>
        </g>
      </g>
    </g>
  </g>
</svg>
