<svg xmlns="http://www.w3.org/2000/svg" xmlns:xlink="http://www.w3.org/1999/xlink" width="375" height="270" viewBox="0 0 375 270">
  <defs>
    <clipPath id="clip-path">
      <rect id="Rectangle_8700" data-name="Rectangle 8700" width="375" height="270" transform="translate(14284 -12380)" fill="#fff" stroke="#707070" stroke-width="1" opacity="0.59"/>
    </clipPath>
    <clipPath id="clip-path-2">
      <path id="Path_77506" data-name="Path 77506" d="M3285.62-5455.868s5.4.2,17.3-.484,23.659-1.015,23.659-1.015a9.53,9.53,0,0,0,9.18,2.913,21.219,21.219,0,0,0,5.282-2.119,36.6,36.6,0,0,1,4.156-1.763,10.373,10.373,0,0,1,4.646,1.56,16.887,16.887,0,0,1,3.684,3.143,6.143,6.143,0,0,0,1.515-.16,3.063,3.063,0,0,0,1.1-.554,5.193,5.193,0,0,0,2.62,1.382,6.074,6.074,0,0,0,3.3-.828s.655,3.189,3.275,2.5,14.225-10.677,14.225-10.677a63.589,63.589,0,0,0,9.295,0,53.7,53.7,0,0,0,9.479-1.893s8.454,1.159,38.241,5.522c7.273,1.065,58.731,7.151,59.211-4.759,1.015-44.236-50.1-35.6-52.489-49.468-6.144-35.739-18.356-76.266-18.356-76.266l-139.172-5.135-33.973,33.83-5.512,44.883-8.609,36.568,5.765,24.309Z" transform="translate(10677 -4470.906)" fill="#fff"/>
    </clipPath>
  </defs>
  <g id="Mask_Group_16672" data-name="Mask Group 16672" transform="translate(-14284 12380)" clip-path="url(#clip-path)">
    <g id="Mask_Group_16671" data-name="Mask Group 16671" transform="translate(441 -2211)" clip-path="url(#clip-path-2)">
      <g id="male_teen_1" data-name="male teen 1" transform="translate(13884.693 -8810.896) rotate(178)">
        <g id="Group_108408" data-name="Group 108408" transform="matrix(-0.284, -0.959, 0.959, -0.284, -177.961, 1163.974)">
          <g id="Group_108397" data-name="Group 108397" transform="translate(0.031 55.729)">
            <g id="Group_108396" data-name="Group 108396" transform="translate(0 0)">
              <path id="Path_77415" data-name="Path 77415" d="M34.057,5.2,10.279,0Q5.238,22.695.526,38.979H.557A11.558,11.558,0,0,0,0,42.6a10.539,10.539,0,0,0,3.189,7.74,10.589,10.589,0,0,0,7.771,3.22,10.488,10.488,0,0,0,7.74-3.22,10.648,10.648,0,0,0,2.57-3.932A208.736,208.736,0,0,0,34.057,5.2Z" transform="translate(0)" fill="#e2ad98"/>
            </g>
          </g>
          <g id="Group_108400" data-name="Group 108400" transform="translate(7.585 56.751)">
            <g id="Group_108399" data-name="Group 108399" transform="translate(0 0)">
              <g id="Group_108398" data-name="Group 108398" transform="translate(0 0)">
                <path id="Path_77416" data-name="Path 77416" d="M2.848,0,0,10.96q13.855,4.518,24.8,1.424L27.029,2.6Z" fill="#c18770"/>
              </g>
            </g>
          </g>
          <g id="Group_108402" data-name="Group 108402" transform="translate(0 0)">
            <g id="Group_108401" data-name="Group 108401" transform="translate(0 0)">
              <path id="Path_77417" data-name="Path 77417" d="M23.53,5.325a17.5,17.5,0,0,0-5.109,9.815h-.031Q14.222,35.163,0,58.763q13.375,15.2,41.24,6.254A124.9,124.9,0,0,0,54.3,21.3a19.194,19.194,0,0,0,.248-3.127A17.509,17.509,0,0,0,49.227,5.325,17.509,17.509,0,0,0,36.379,0,17.509,17.509,0,0,0,23.53,5.325Z" fill="#7a2230"/>
            </g>
          </g>
          <g id="Group_108405" data-name="Group 108405" transform="translate(0.836 12.973)">
            <g id="Group_108404" data-name="Group 108404" transform="translate(0 0)">
              <g id="Group_108403" data-name="Group 108403" transform="translate(0)">
                <path id="Path_77418" data-name="Path 77418" d="M40.28,51.952q8.941-17.6,11.363-31.394T53.221,0Q48.113,38.422,37,48.361,25.914,58.33,0,46.627,13.094,60.855,40.28,51.952Z" fill="#4b0f18"/>
              </g>
            </g>
          </g>
          <g id="Group_108407" data-name="Group 108407" transform="translate(32.663 14.459)">
            <g id="Group_108406" data-name="Group 108406" transform="translate(0 0)">
              <path id="Path_77419" data-name="Path 77419" d="M3.715,2.786v.929h.929m-.929,0v.929m3.715-.929L3.715,7.431,0,3.715,3.715,0Zm-4.644,0h.929" transform="translate(0)" fill="none" stroke="rgba(0,0,0,0)" stroke-linecap="round" stroke-linejoin="round" stroke-width="0.108"/>
            </g>
          </g>
        </g>
        <g id="Group_108411" data-name="Group 108411" transform="matrix(1, 0.014, -0.014, 1, -277.293, 991.511)">
          <g id="Group_108410" data-name="Group 108410" transform="translate(43.595 0)">
            <g id="Group_108409" data-name="Group 108409" transform="translate(0 0)">
              <path id="Path_77420" data-name="Path 77420" d="M3.715,4.644V3.715h.929m-.929,0V2.787m3.715.929L3.715,0,0,3.715,3.715,7.431Zm-4.644,0h.929" transform="translate(0)" fill="none" stroke="rgba(0,0,0,0)" stroke-linecap="round" stroke-linejoin="round" stroke-width="0.108"/>
            </g>
          </g>
        </g>
        <g id="Group_108416" data-name="Group 108416" transform="matrix(0.543, -0.84, 0.84, 0.543, -229.172, 1143.463)">
          <g id="Group_108413" data-name="Group 108413" transform="translate(0 10.929)">
            <g id="Group_108412" data-name="Group 108412" transform="translate(0 0)">
              <path id="Path_77421" data-name="Path 77421" d="M24.861,0l.093,7.771a17.882,17.882,0,0,0-2.91,1.176,42.085,42.085,0,0,0-5.789,3.684,50.741,50.741,0,0,0-5.232,4.551,28.213,28.213,0,0,0-4.3,5.573q-1.889,3.158-3.313,6.1A54.573,54.573,0,0,0,.8,35.17L0,.372Z" fill="#e2ad98"/>
              <path id="Path_77422" data-name="Path 77422" d="M23.932,37.337h-.155a11.35,11.35,0,0,1-3.437,7.523,11.393,11.393,0,0,1-8.359,3.467A11.531,11.531,0,0,1,3.56,44.861a11.481,11.481,0,0,1-3.437-8.39q0-.341.031-.681L0,27.4a54.573,54.573,0,0,1,2.6-6.316q1.424-2.941,3.313-6.1a28.213,28.213,0,0,1,4.3-5.573,50.741,50.741,0,0,1,5.232-4.551,42.085,42.085,0,0,1,5.789-3.684A17.882,17.882,0,0,1,24.149,0Z" transform="translate(0.805 7.771)" fill="#c18770"/>
            </g>
          </g>
          <g id="Group_108415" data-name="Group 108415" transform="translate(7.709 0)">
            <g id="Group_108414" data-name="Group 108414" transform="translate(0 0)">
              <path id="Path_77423" data-name="Path 77423" d="M3.715,4.644V3.715h.929m-.929,0V2.786m3.715.929L3.715,0,0,3.715,3.715,7.43Zm-4.644,0h.929" fill="none" stroke="rgba(0,0,0,0)" stroke-linecap="round" stroke-linejoin="round" stroke-width="0.108"/>
            </g>
          </g>
        </g>
        <g id="Group_108439" data-name="Group 108439" transform="translate(-281.893 1089.777) rotate(-26.681)">
          <g id="Group_108418" data-name="Group 108418" transform="translate(9.753 2.663)">
            <g id="Group_108417" data-name="Group 108417" transform="translate(0 0)">
              <path id="Path_77424" data-name="Path 77424" d="M86.694,70.377a21.567,21.567,0,0,1-3.282,10.837Q80.425,85.94,73.194,88.83a63.009,63.009,0,0,0-9.908,4.644Q60.76,86.756,52.512,81.957q-8.215-4.83-14.4,1.486-6.158,6.285-7.71,7.617a13.215,13.215,0,0,0-2.879,3.808,51.427,51.427,0,0,1-6.5-1.8q-5.448-1.712-10.9-3.5A64.637,64.637,0,0,1,0,85.208L8.174,0q3.22,4.4,6.75,8.515,3.158,3.684,6.626,7.152l1.3,1.3,1.3,1.238q2.508,2.291,5.2,4.366a52.162,52.162,0,0,0,10.372,6.1,32.932,32.932,0,0,0,10.187,2.6,31.167,31.167,0,0,0,10.063-.9C63.462,29.4,86.766,10.156,86.694,70.377Z" transform="translate(0 0)" fill="#ede6de"/>
            </g>
          </g>
          <g id="Group_108420" data-name="Group 108420" transform="translate(0.31 53.781)">
            <g id="Group_108419" data-name="Group 108419" transform="translate(0 0)">
              <path id="Path_77425" data-name="Path 77425" d="M36.349,18.175a17.51,17.51,0,0,1-5.326,12.849,17.51,17.51,0,0,1-12.849,5.325A17.51,17.51,0,0,1,5.325,31.024,17.51,17.51,0,0,1,0,18.175,17.51,17.51,0,0,1,5.325,5.325,17.51,17.51,0,0,1,18.175,0,17.51,17.51,0,0,1,31.024,5.325,17.51,17.51,0,0,1,36.349,18.175Z" transform="translate(0)" fill="#ede6de"/>
            </g>
          </g>
          <g id="Group_108423" data-name="Group 108423" transform="translate(12.787 2.353)">
            <g id="Group_108422" data-name="Group 108422" transform="translate(0 0)">
              <g id="Group_108421" data-name="Group 108421" transform="translate(0 0)">
                <path id="Path_77426" data-name="Path 77426" d="M16.162,54.865Q.031,52.233,0,52.264L5.078,0,15.945,13.376Z" fill="#dad0c5"/>
              </g>
            </g>
          </g>
          <g id="Group_108428" data-name="Group 108428" transform="translate(0 53.781)">
            <g id="Group_108425" data-name="Group 108425" transform="translate(0 0)">
              <g id="Group_108424" data-name="Group 108424" transform="translate(0 0)">
                <path id="Path_77427" data-name="Path 77427" d="M37.154,17.9a89.067,89.067,0,0,0,5.759,18.887l-7.245,6.5a159.566,159.566,0,0,1-23.283-7.71Q.6,30.782,0,17.091,1.648,6.69,9.474,2.322l.588-.31q.394-.219.774-.4.085-.037.155-.062l.526-.217A16.764,16.764,0,0,1,16.627.093,18.481,18.481,0,0,1,18.484,0,17.51,17.51,0,0,1,31.334,5.325a17.089,17.089,0,0,1,1.3,1.455Q35.895,10.315,37.154,17.9Z" fill="#7a2230"/>
              </g>
            </g>
            <g id="Group_108427" data-name="Group 108427" transform="translate(71.151 7.741)">
              <g id="Group_108426" data-name="Group 108426" transform="translate(0 0)">
                <path id="Path_77428" data-name="Path 77428" d="M12.447,22.912q5.924-4.7,10-14.4Q24.348,4.031,25.76,0a83.41,83.41,0,0,0-.124,9.784,24.837,24.837,0,0,1-.526,6.688q-.253,3.091-3.654,6.719a23.233,23.233,0,0,1-7.771,5.945A62.918,62.918,0,0,0,2.91,34.306L0,29.6A37.13,37.13,0,0,0,12.447,22.912Z" transform="translate(0 0)" fill="#7a2230"/>
              </g>
            </g>
          </g>
          <g id="Group_108430" data-name="Group 108430" transform="translate(53.688 87.499)">
            <g id="Group_108429" data-name="Group 108429" transform="translate(0 0)">
              <path id="Path_77429" data-name="Path 77429" d="M12.137,4.118l-.186-.093-.588-.372L8.669,2.322,4.675,1.084,4.49,1.053,4.3.991.062.31H.031L0,.248.031.217.279.155,1.951.031,2.105,0,4.242.062l.4.062h.217l1.734.31L8.422.96a14.462,14.462,0,0,1,1.827.712l.9.464L13.9,3.994,16.317,6.44,17.37,7.926l.124.155.217.4.124.186q.031.031-.031.093h-.062l-.155-.186-1.3-1.238-.124-.093L15.791,6.9l-.124-.093-.248-.248Z" transform="translate(0 0)" fill="#c18770"/>
            </g>
          </g>
          <g id="Group_108432" data-name="Group 108432" transform="translate(44.028 81.267)">
            <g id="Group_108431" data-name="Group 108431" transform="translate(0 0)">
              <path id="Path_77430" data-name="Path 77430" d="M19.785,3.693,19.1,3.415l-.248-.062a20.873,20.873,0,0,0-2.074-.65q-.929-.248-1.084-.279l-1.672-.341h-.155l-.124-.031-2.632-.186-.155-.031-.124.031H9.97l-1.7.155-2.879.619L2.26,3.786l-1.146.557-.248.093L.681,4.56l-.588.279Q0,4.932,0,4.808V4.746L1.889,3.105l.155-.093.681-.5L5.48,1.093h.062L6.781.659,6.936.628,7.059.566,7.369.5A12.965,12.965,0,0,1,9.815.071a15.9,15.9,0,0,1,2.6-.031l.96.093,2.756.588.31.093.124.062.155.031.588.217a20.528,20.528,0,0,1,2.105.9l1.765.991a15.25,15.25,0,0,1,1.424.96l1.92,1.579v.093h-.093l-1.8-.805-.093-.031-.681-.31-.186-.062-.186-.093-1.455-.588Z" transform="translate(0 0)" fill="#dad0c5"/>
            </g>
          </g>
          <g id="Group_108434" data-name="Group 108434" transform="translate(33.934 82.706)">
            <g id="Group_108433" data-name="Group 108433" transform="translate(0 0)">
              <path id="Path_77431" data-name="Path 77431" d="M26.039.612a22.492,22.492,0,0,1,9.784,4.582A19.681,19.681,0,0,1,39.012,8.57a10.74,10.74,0,0,1,1.8,3.932q-.248,1.579-1.486,1.672a2.59,2.59,0,0,1-2.353-1.455A21.365,21.365,0,0,0,33.037,8.57,12.852,12.852,0,0,0,28.919,6.34a28.116,28.116,0,0,0-4.644-1.053A18.071,18.071,0,0,0,13.592,6.557a17.816,17.816,0,0,0-7.926,6.75A6.251,6.251,0,0,1,4.3,15.381a2.823,2.823,0,0,1-2.105.836q-1.238,0-2.2-1.765A30.374,30.374,0,0,1,4.892,6.464,16.88,16.88,0,0,1,15.233.52,26.113,26.113,0,0,1,26.039.612Z" transform="translate(0 0)" fill="#7a2230"/>
            </g>
          </g>
          <g id="Group_108436" data-name="Group 108436" transform="translate(34.034 82.638)">
            <g id="Group_108435" data-name="Group 108435" transform="translate(0 0)">
              <path id="Path_77432" data-name="Path 77432" d="M22.844.124q1.177.124,2.818.4l3.282.867L30.8,2.2l.372.217q.093,0,.031.062,0,.093-.062.031l-.124-.031-.5-.186-.248-.062-.155-.062-.5-.124q-.372-.124-1.765-.433L21.3,1.053,17.7,1.269l-2.879.557-1.61.5a22.951,22.951,0,0,0-3.065,1.362L8.756,4.52q-.774.526-1.3.96l-.186.093L7.146,5.7l-.31.248L3.957,8.793.118,14.335q0,.093-.062.031-.093,0-.031-.062l.619-1.486q.526-1.115.836-1.641L2.718,9.1a23.276,23.276,0,0,1,1.734-2.26L5.536,5.7A13.912,13.912,0,0,1,6.744,4.613,15.128,15.128,0,0,1,8.106,3.561l1.455-.929,3.251-1.486A28.374,28.374,0,0,1,16.28.279l.836-.124L21.3,0Z" transform="translate(0)" fill="#4b0f18"/>
            </g>
          </g>
          <g id="Group_108438" data-name="Group 108438" transform="translate(54.772 0)">
            <g id="Group_108437" data-name="Group 108437" transform="translate(0 0)">
              <path id="Path_77433" data-name="Path 77433" d="M3.715,4.644V3.715h.929m-.929,0V2.787m3.715.929L3.715,0,0,3.715,3.715,7.431Zm-4.644,0h.929" transform="translate(0)" fill="none" stroke="rgba(0,0,0,0)" stroke-linecap="round" stroke-linejoin="round" stroke-width="0.108"/>
            </g>
          </g>
        </g>
        <g id="Group_108452" data-name="Group 108452" transform="translate(-317.884 1118.155) rotate(-49.083)">
          <g id="Group_108441" data-name="Group 108441" transform="translate(0.031 0)">
            <g id="Group_108440" data-name="Group 108440" transform="translate(0 0)">
              <path id="Path_77434" data-name="Path 77434" d="M34.055,48.358l-23.776,5.2Q5.237,30.865.526,14.582H.557A11.557,11.557,0,0,1,0,10.959,10.538,10.538,0,0,1,3.189,3.22,10.589,10.589,0,0,1,10.959,0,10.487,10.487,0,0,1,18.7,3.22a10.648,10.648,0,0,1,2.57,3.932A208.724,208.724,0,0,1,34.055,48.358Z" fill="#e2ad98"/>
            </g>
          </g>
          <g id="Group_108444" data-name="Group 108444" transform="translate(7.585 38.896)">
            <g id="Group_108443" data-name="Group 108443" transform="translate(0 0)">
              <g id="Group_108442" data-name="Group 108442">
                <path id="Path_77435" data-name="Path 77435" d="M2.848,13.641,0,2.682Q13.854-1.836,24.8,1.258l2.229,9.783Z" fill="#c18770"/>
              </g>
            </g>
          </g>
          <g id="Group_108446" data-name="Group 108446" transform="translate(0 40.956)">
            <g id="Group_108445" data-name="Group 108445" transform="translate(0 0)">
              <path id="Path_77436" data-name="Path 77436" d="M23.529,63A17.5,17.5,0,0,1,18.42,53.19H18.39Q14.221,33.167,0,9.569q13.374-15.2,41.237-6.254A124.894,124.894,0,0,1,54.3,47.029a19.192,19.192,0,0,1,.248,3.127A17.508,17.508,0,0,1,49.225,63a17.508,17.508,0,0,1-12.848,5.325A17.508,17.508,0,0,1,23.529,63Z" fill="#7a2230"/>
            </g>
          </g>
          <g id="Group_108449" data-name="Group 108449" transform="translate(0.836 40.937)">
            <g id="Group_108448" data-name="Group 108448" transform="translate(0 0)">
              <g id="Group_108447" data-name="Group 108447">
                <path id="Path_77437" data-name="Path 77437" d="M40.277,3.427q8.94,17.6,11.362,31.392t1.579,20.557Q48.11,16.956,37,7.018,25.913-2.951,0,8.751,13.094-5.476,40.277,3.427Z" fill="#4b0f18"/>
              </g>
            </g>
          </g>
          <g id="Group_108451" data-name="Group 108451" transform="translate(32.662 87.397)">
            <g id="Group_108450" data-name="Group 108450" transform="translate(0 0)">
              <path id="Path_77438" data-name="Path 77438" d="M3.715,4.644V3.715h.929m-.929,0V2.786m3.715.929L3.715,0,0,3.715,3.715,7.43Zm-4.644,0h.929" transform="translate(0 0)" fill="none" stroke="rgba(0,0,0,0)" stroke-linecap="round" stroke-linejoin="round" stroke-width="0.108"/>
            </g>
          </g>
        </g>
        <g id="Group_108461" data-name="Group 108461" transform="translate(-216.719 1113.38) rotate(105.509)">
          <g id="Group_108454" data-name="Group 108454" transform="matrix(0.978, -0.208, 0.208, 0.978, 0, 9.461)">
            <g id="Group_108453" data-name="Group 108453" transform="translate(0 0)">
              <path id="Path_77439" data-name="Path 77439" d="M24.408,71.675a45.075,45.075,0,0,1-3.5,9.1L.01,74.988q-.031-2.353.031-4.706A439.578,439.578,0,0,1,4.314,18.267,148.29,148.29,0,0,0,5.8.062L20.63,0A150.7,150.7,0,0,0,21.5,23.747q1.336,10.367,2.941,26.286T24.408,71.675Z" transform="translate(0 0)" fill="#e2ad98"/>
            </g>
          </g>
          <g id="Group_108456" data-name="Group 108456" transform="translate(5.606 0)">
            <g id="Group_108455" data-name="Group 108455" transform="translate(0 0)">
              <path id="Path_77440" data-name="Path 77440" d="M14.87,7.435a7.162,7.162,0,0,1-2.18,5.255,7.162,7.162,0,0,1-5.255,2.18A7.162,7.162,0,0,1,2.18,12.69,7.162,7.162,0,0,1,0,7.435,7.162,7.162,0,0,1,2.18,2.18,7.162,7.162,0,0,1,7.435,0,7.162,7.162,0,0,1,12.69,2.18,7.162,7.162,0,0,1,14.87,7.435Z" fill="#e2ad98"/>
            </g>
          </g>
          <g id="Group_108458" data-name="Group 108458" transform="translate(6.728 14.385)">
            <g id="Group_108457" data-name="Group 108457" transform="translate(0 0)">
              <path id="Path_77441" data-name="Path 77441" d="M7.672,60.963l.372,2.725q.062.062-.031.062-.062.062-.062-.031L4.731,46.442,2.78,32.014.025.062Q-.037,0,.056,0L.118.031,7.579,60.282Q7.641,60.746,7.672,60.963Z" fill="#c18770"/>
            </g>
          </g>
          <g id="Group_108460" data-name="Group 108460" transform="translate(22.76 77.825)">
            <g id="Group_108459" data-name="Group 108459" transform="translate(0 0)">
              <path id="Path_77442" data-name="Path 77442" d="M3.715,4.644V3.715h.929m-.929,0V2.787m3.715.929L3.715,0,0,3.715,3.715,7.431Zm-4.644,0h.929" fill="none" stroke="rgba(0,0,0,0)" stroke-linecap="round" stroke-linejoin="round" stroke-width="0.108"/>
            </g>
          </g>
        </g>
        <g id="Group_108466" data-name="Group 108466" transform="translate(-190.768 1099.917) rotate(67.033)">
          <g id="Group_108463" data-name="Group 108463" transform="translate(0 0)">
            <g id="Group_108462" data-name="Group 108462">
              <path id="Path_77443" data-name="Path 77443" d="M0,3.127a4.855,4.855,0,0,1,1.734,0q7.648,15.2,7.307,21.426A137.073,137.073,0,0,0,0,3.127M8.484,1.8A3.989,3.989,0,0,1,10.217,0l4.861,22.045L8.484,1.8M20.094,12.509a15.365,15.365,0,0,1,.712,2.013,10.713,10.713,0,0,1,.062,3.715,30.183,30.183,0,0,0-.929-3.344,59.546,59.546,0,0,0-3-7.183q-.836-1.7-1.8-3.406-.124-.248-.279-.5l.372.124a5.893,5.893,0,0,1,.557.248q.093.031.217.062l.929,1.61.867,1.8a.782.782,0,0,1,.093.186q.65,1.269,1.238,2.539Q19.754,11.766,20.094,12.509Z" transform="translate(4.319 1.81)" fill="#c18770"/>
              <path id="Path_77444" data-name="Path 77444" d="M25.126,16.331a15.366,15.366,0,0,0-.712-2.013q-.341-.743-.96-2.136-.588-1.269-1.238-2.539a.781.781,0,0,0-.093-.186l-.867-1.8-.929-1.61-.062-.062a5.48,5.48,0,0,1,.805.65A6.365,6.365,0,0,1,22,7.569q.5.5.9.929a12.836,12.836,0,0,1,2.013,2.663q.96,1.827,1.765,3.684a7.276,7.276,0,0,1,.619,2.818,10.337,10.337,0,0,1-.588,3.623q-.372,1.022-1.3,4.428v.062a67.179,67.179,0,0,1-1.827,7.183,33.794,33.794,0,0,1-7.09,12.385Q11.193,51.566,6.3,50.3q-12.54-3.344-.124-25.7-2.353-8.174-3.5-14.273Q1.75,5.587,4.319,4.937A137.073,137.073,0,0,1,13.36,26.363Q13.7,20.14,6.053,4.937A4.847,4.847,0,0,1,8.252.355Q10.574-1.131,12.8,3.606L19.4,23.855,14.537,1.81Q16.828.943,19.15,5.526a.126.126,0,0,0,.031.093q.155.248.279.5.96,1.7,1.8,3.406a59.546,59.546,0,0,1,3,7.183,30.182,30.182,0,0,1,.929,3.344A10.713,10.713,0,0,0,25.126,16.331Z" fill="#e2ad98"/>
            </g>
          </g>
          <g id="Group_108465" data-name="Group 108465" transform="translate(4.196 39.398)">
            <g id="Group_108464" data-name="Group 108464" transform="translate(0 0)">
              <path id="Path_77445" data-name="Path 77445" d="M3.715,4.644V3.715h.929m-.929,0V2.787m3.715.929L3.715,0,0,3.715,3.715,7.431Zm-4.644,0h.929" fill="none" stroke="rgba(0,0,0,0)" stroke-linecap="round" stroke-linejoin="round" stroke-width="0.108"/>
            </g>
          </g>
        </g>
        <g id="Group_108580" data-name="Group 108580" transform="translate(-232.799 1176.494) rotate(-48.583)">
          <g id="Group_108467" data-name="Group 108467" transform="translate(35.129 20.261)">
            <path id="Path_77446" data-name="Path 77446" d="M23.7,11.851a11.364,11.364,0,0,0-3.48-8.371A11.364,11.364,0,0,0,11.851,0,11.439,11.439,0,0,0,3.458,3.48,11.4,11.4,0,0,0,0,11.851a11.477,11.477,0,0,0,3.458,8.394A11.477,11.477,0,0,0,11.851,23.7a11.4,11.4,0,0,0,8.371-3.458A11.439,11.439,0,0,0,23.7,11.851Z" transform="translate(0 0)" fill="none" stroke="red" stroke-linecap="round" stroke-linejoin="round" stroke-width="0.108"/>
          </g>
          <g id="Group_108481" data-name="Group 108481" transform="translate(21.147 24.187)">
            <g id="Group_108469" data-name="Group 108469" transform="translate(0 0)">
              <g id="Group_108468" data-name="Group 108468" transform="translate(0 0)">
                <path id="Path_77447" data-name="Path 77447" d="M61.954,66.128a34.969,34.969,0,0,1-25.667,10.62A34.969,34.969,0,0,1,10.62,66.128,34.969,34.969,0,0,1,0,40.461,34.917,34.917,0,0,1,5.542,21.048l.031-.155Q18.612,2.653,37.154.242,59.078-1.912,71.366,15.1l.805,19.475-.186-.774a36.774,36.774,0,0,1,.588,6.657A34.969,34.969,0,0,1,61.954,66.128Z" fill="#e2ad98"/>
              </g>
            </g>
            <g id="Group_108480" data-name="Group 108480" transform="translate(7.907 22.503)">
              <g id="Group_108471" data-name="Group 108471" transform="matrix(0.566, -0.824, 0.824, 0.566, 0, 23.488)">
                <g id="Group_108470" data-name="Group 108470" transform="translate(0 0)">
                  <path id="Path_77448" data-name="Path 77448" d="M3.963,24.893,0,26.286.279,2.136,3.251,0Q11.855,13.2,3.963,24.893Z" transform="translate(0)" fill="#c18770"/>
                </g>
              </g>
              <g id="Group_108473" data-name="Group 108473" transform="translate(19.803 24.119)">
                <g id="Group_108472" data-name="Group 108472" transform="translate(0 0)">
                  <path id="Path_77449" data-name="Path 77449" d="M10.775,12.6,2.136,5.233,0,0Q16.089.925,13.623,13.066Z" fill="#c18770"/>
                </g>
              </g>
              <g id="Group_108475" data-name="Group 108475" transform="translate(31.228 21.271)">
                <g id="Group_108474" data-name="Group 108474" transform="translate(0 0)">
                  <path id="Path_77450" data-name="Path 77450" d="M11.92,0l.217,6.347L5.7,16.069,0,14.273Q.49,3.8,11.92,0Z" transform="translate(0 0)" fill="#c18770"/>
                </g>
              </g>
              <g id="Group_108477" data-name="Group 108477" transform="translate(39.622 29.679) rotate(-25.988)">
                <g id="Group_108476" data-name="Group 108476" transform="translate(0 0)">
                  <path id="Path_77451" data-name="Path 77451" d="M27.648.691,24.985,5.18,0,9.979V2.889Q10.934-1.413,27.648.691Z" fill="#c18770"/>
                </g>
              </g>
              <g id="Group_108479" data-name="Group 108479" transform="translate(0.05 0)">
                <g id="Group_108478" data-name="Group 108478" transform="translate(0 0)">
                  <path id="Path_77452" data-name="Path 77452" d="M.867,22.354,0,5.666,5.233,0a111.629,111.629,0,0,1,1.3,22.354Z" fill="#c18770"/>
                </g>
              </g>
            </g>
          </g>
          <g id="Group_108486" data-name="Group 108486" transform="translate(32.726 0)">
            <g id="Group_108483" data-name="Group 108483" transform="translate(0 0.204)">
              <g id="Group_108482" data-name="Group 108482" transform="translate(0 0)">
                <path id="Path_77453" data-name="Path 77453" d="M9.1,16.763Q18.927,4.2,28.578,1.406t13.375-.031q7.893,13,15.078,23.9,7.186,10.868,1.858,21.89L0,45.836Q1.358,25.034,9.1,16.763Z" fill="#e2ad98"/>
              </g>
            </g>
            <g id="Group_108485" data-name="Group 108485" transform="translate(15.001)">
              <g id="Group_108484" data-name="Group 108484" transform="translate(0)">
                <path id="Path_77454" data-name="Path 77454" d="M31.689,9.258q.093.093-.031.093H31.6L28.191,4.737l-.031-.093-.031-.062-.093-.124q-.619-.836-.805-1.053l-.867-.867-.155-.124-.062-.062-.062-.031-.433-.341-.619-.341-.65-.217A3.38,3.38,0,0,0,23.67,1.3h-.093l-.062-.031H22.9l-6.564.619-.093.031h-.124l-3.406.836-.031.031h-.062l-.929.31a15.035,15.035,0,0,0-1.579.557l-.774.31-.186.093-.093.031-.093.062-1.765.9q-1.115.619-2.477,1.486L2.709,7.926.17,10.217l-.062.093q-.031.031-.093,0-.031-.062,0-.093l.062-.093L1.749,8.36l2.725-2.2Q5.929,5.14,6.92,4.551a15.455,15.455,0,0,1,1.393-.805l.341-.217L8.747,3.5,11.44,2.322l.836-.279.093-.062h.062l.062-.031L15.93.991h.062L16.023.96h.031l.093-.031L20.171.248q.619-.062,1.8-.186L23.763,0A5.077,5.077,0,0,1,25.59.5l.774.464.557.5.093.062L28.1,2.694a9.527,9.527,0,0,1,.774,1.269l.186.31.124.279Z" transform="translate(0)" fill="#f0cbbc"/>
              </g>
            </g>
          </g>
          <g id="Group_108529" data-name="Group 108529" transform="translate(0 45.947)">
            <g id="Group_108488" data-name="Group 108488" transform="translate(0.03 0)">
              <g id="Group_108487" data-name="Group 108487" transform="translate(0 0)">
                <path id="Path_77455" data-name="Path 77455" d="M98.087,51.768q-10.806,10.5-19.351,11.487a21.681,21.681,0,0,1,.557,9.691q-.341,3-2.57,1.827-23.128-16.379-44-21.611A47.08,47.08,0,0,1,15.11,42.417q-1.1-1.056-2.136-2.2-.743,5.263-4.211,7.183Q2.85,50.065,4.3,45.792q2.26-4.706,3.653-7.059a10.215,10.215,0,0,1-5.418-.186q-4.582-1.269-.9-3.715a31.985,31.985,0,0,1,5.914-2.6q.035-.171.062-.341A119.424,119.424,0,0,1,17.649,2.105L34.245,0a62.936,62.936,0,0,1-.65,24.212,21.6,21.6,0,0,1,3.839.743q8.081,1.92,12.385,12.942a21.953,21.953,0,0,0-.867-9.815q-1.641-5.14,2.663-2.446a31.415,31.415,0,0,1,9.66,10.124,62.594,62.594,0,0,1,6.038-10.62q5.821-6.254,5.573.5l.279,9.97.186-.248a23.5,23.5,0,0,1,3.808-4.149,38.5,38.5,0,0,1,4.83-3.437,30.152,30.152,0,0,1,4.644-2.26q3.065-1.115,5.418-1.8a26.492,26.492,0,0,1,3.808-.867q1.455-.155,1.672,1.455a13.214,13.214,0,0,1-.124,3.777q-.433,2.725-1.022,5.418a36.638,36.638,0,0,1-1.61,5.294l-.186.5q3.994-4.366,7.183-4.335Q106.014,42.789,98.087,51.768Z" fill="#540e00"/>
              </g>
            </g>
            <g id="Group_108490" data-name="Group 108490" transform="translate(73.363 22.443)">
              <g id="Group_108489" data-name="Group 108489" transform="translate(0 0)">
                <path id="Path_77456" data-name="Path 77456" d="M.015,26.321q-.031-.062,0-.093l6.068-5.2q.4-.341,2.136-2.013l4.366-4.551L18.314,7.28,21.5,2.14l.372-.743.062-.062.4-.836A.958.958,0,0,1,22.9.035,1.055,1.055,0,0,1,23.608.1a.844.844,0,0,1,.433.557.943.943,0,0,1-.031.712L23.98,1.4l-.5.867L20.667,6.537l-4.056,5.078a5.207,5.207,0,0,1-.526.588l-2.756,2.941q-1.548,1.548-2.322,2.26L6.455,21.429.108,26.321Q.077,26.352.015,26.321Z" fill="#2b0700"/>
              </g>
            </g>
            <g id="Group_108492" data-name="Group 108492" transform="translate(38.203 25.11)">
              <g id="Group_108491" data-name="Group 108491" transform="translate(0 0)">
                <path id="Path_77457" data-name="Path 77457" d="M8.827,19.753q-.062.062-.062-.031L6.815,12.57,4.059,6.626l-.248-.372-.093-.186L2.078,3.684.251,1.579A.791.791,0,0,1,0,.929.828.828,0,0,1,.282.279.927.927,0,0,1,.963,0a1.017,1.017,0,0,1,.65.31l.031.062.31.4L2.078.9l.433.557L4.8,5.2l.093.217.124.186L7.4,11.889l1.455,7.586v.217Q8.92,19.753,8.827,19.753Z" transform="translate(0 0)" fill="#2b0700"/>
              </g>
            </g>
            <g id="Group_108494" data-name="Group 108494" transform="translate(28.12 20.906)">
              <g id="Group_108493" data-name="Group 108493" transform="translate(0 0)">
                <path id="Path_77458" data-name="Path 77458" d="M11.046,13.957q-.062.062-.062-.031L7.95,8.724,6.619,6.867l-3-3.158-.96-.743L2.532,2.9l-.093-.093L1.913,2.47,1.82,2.439l-.279-.186-.093-.031L1.232,2.1l-.093-.031L.8,1.882.705,1.851.55,1.758H.519a.843.843,0,0,1-.464-.526A.943.943,0,0,1,.086.519.843.843,0,0,1,.612.055a.943.943,0,0,1,.712.031L1.572.21l.093.062L1.7.3l.062.031.279.186L2.129.55l.65.464.093.093.093.062.464.372.093.093.124.093a8.475,8.475,0,0,1,.96.929L5.6,3.739l1.61,2.229.093.186.124.155L8.941,9l2.136,4.892Q11.139,13.957,11.046,13.957Z" fill="#2b0700"/>
              </g>
            </g>
            <g id="Group_108496" data-name="Group 108496" transform="translate(61.139 22.23)">
              <g id="Group_108495" data-name="Group 108495" transform="translate(0 0)">
                <path id="Path_77459" data-name="Path 77459" d="M.165,13.654a.1.1,0,0,1-.124.031q-.062-.093-.031-.124L1.775,9.505,5.367,3.22l1.177-1.3.279-.248.155-.093.279-.248.8-.557L8.215.712,8.339.619,8.865.372,8.989.341,9.33.186,9.546.124h.093L10.228,0h.341a.082.082,0,0,1,.093.093L10.63.155H10.6L10.475.31l-.557.5L9.794.96l-.155.124-.093.093-.062.093-.433.464L6.11,5.294A12.98,12.98,0,0,0,5.088,6.5Z" transform="translate(0 0)" fill="#2b0700"/>
              </g>
            </g>
            <g id="Group_108498" data-name="Group 108498" transform="translate(33.284 24.026)">
              <g id="Group_108497" data-name="Group 108497" transform="translate(0 0)">
                <path id="Path_77460" data-name="Path 77460" d="M16.162,13.344l-.093-.186-.186-.5a3.293,3.293,0,0,1-.248-.557l-.093-.124-.217-.5-.093-.155-.062-.155-.279-.526-.124-.186-.186-.372-.5-.743A13.429,13.429,0,0,0,13,7.833L11.642,6.347q-.867-.805-1.548-1.331A15.933,15.933,0,0,0,8.36,3.932l-.9-.464-.031-.031-.062-.031-.124-.031L.31.372.062.248Q0,.248,0,.124L.093.093.5.031H.681L.867,0H2.291L4.644.341l.9.248A10.473,10.473,0,0,1,7.431,1.3l1.424.836L11.022,3.87A16.9,16.9,0,0,1,12.6,5.48a17.37,17.37,0,0,1,1.269,1.7l.65,1.084.062.124.062.093.4.867.124.186.248.619.093.186.062.217.4,1.053.031.186.062.155.372,1.331.031.186.093.279.031.279q.093.093-.062.093-.093.093-.093-.062Z" fill="#2b0700"/>
              </g>
            </g>
            <g id="Group_108500" data-name="Group 108500" transform="translate(93.712 34.956)">
              <g id="Group_108499" data-name="Group 108499" transform="translate(0 0)">
                <path id="Path_77461" data-name="Path 77461" d="M8.214.124V.186l-.279.4L7.842.681,7.811.743V.774H7.78V.805l-.65.681L5.644,2.539l-1.455.619L2.021,4.4.938,5.171l-.588.557L.318,5.79l-.062.031-.062.093a.077.077,0,0,1-.124,0q-.124,0-.031-.093l.031-.093L.1,5.666l.031-.093.341-.619L1.34,3.808,4.127,1.3A5.515,5.515,0,0,1,4.9.743L5.087.65,5.179.588,5.272.557l.4-.186L6.511.124H6.6L7.378,0l.743.031Q8.276.031,8.214.124Z" fill="#2b0700"/>
              </g>
            </g>
            <g id="Group_108502" data-name="Group 108502" transform="translate(48.254 24.718)">
              <g id="Group_108501" data-name="Group 108501" transform="translate(0 0)">
                <path id="Path_77462" data-name="Path 77462" d="M2.43,12.436l-.031.093-.5.9-.031.093-.155.248q0,.093-.124.031l-.031-.062-.031-.031-.093-.341-.124-2.013.155-1.393V9.9L1.5,9.866V9.681l.031-.031V9.433l.031-.124V9.123l.031-.093V8.907l.031-.557.031-.155V8.04A6,6,0,0,0,1.533,6.8q-.062-.341-.31-1.238l-.155-.433-.031-.155L.79,4.293.759,4.262V4.231L.573,3.8l-.5-1.7L.015,1.569a1.748,1.748,0,0,1,0-.464L.077.671.263.3.511.114.635.052H.728V.021H.913q.093-.062.093.062,0,.093-.062.093L.913.206H.851L.82.237H.79V.268H.728L.666.33.542.516A.55.55,0,0,0,.48.764a.774.774,0,0,0,0,.31l.248.836.991,1.858V3.8h.031v.031l.062.062L2.43,5.1q.124.248.557,1.331l.217.712.031.155.062.186.062.372.062.186.062.372.031.836-.031.093v.186l-.093.526-.093.279v.062l-.526,1.3-.031.124-.062.093-.186.433Z" fill="#2b0700"/>
              </g>
            </g>
            <g id="Group_108504" data-name="Group 108504" transform="translate(14.118 17.989)">
              <g id="Group_108503" data-name="Group 108503" transform="translate(0 0)">
                <path id="Path_77463" data-name="Path 77463" d="M.248,6.873.186,6.9.124,6.781.093,6.688V6.533L.062,6.378V6.192L.031,5.976V5.852L0,5.759V4.923L.031,4.83.062,4.3l.031-.155V3.963L.712,1.486l.217-.5L.991.9,1.022.774,1.146.588,1.331.217,1.362.186,1.424.093,1.486.031,1.548,0l.031.062v.31L1.517.929v.124l-.031.124-.093.8-.062.279L1.3,2.57.836,4.892l-.031.062v.062L.4,6.409l-.031.155-.031.062v.062l-.062.093Z" transform="translate(0)" fill="#2b0700"/>
              </g>
            </g>
            <g id="Group_108506" data-name="Group 108506" transform="translate(18.948 8.05)">
              <g id="Group_108505" data-name="Group 108505" transform="translate(0 0)">
                <path id="Path_77464" data-name="Path 77464" d="M3.994,15.543,3.9,14.831l.155-3.468.5-2.941L3.282,9.815l-.093.062-.155.186-.372.341L2.6,10.5l-.093.062L.96,11.951l-.093.062-.774.619q-.021.021-.062,0H0v-.093l.124-.279.031-.124.062-.093.619-1.827L.929,10,1.8,6.409V6.347l.031-.062.031-.155.031-.31.062-.279.248-1.7.062-.279.4-2.972V.464L2.694.372,2.756.031,2.818,0l.031.062.062.31V.5l.031.124L3.065,2.57,2.725,6.44v.093l-.031.062L2.136,8.824l-.062.124-.279.8-.464.96L1.889,10l.093-.093.062-.093.5-.557L2.6,9.165,5.047,6.657l.681.372-.186.557-.031.124-.062.124L4.428,11.982l-.279,2.26v1.7q.062.062-.031.062l-.062-.031L3.994,15.7Z" fill="#2b0700"/>
              </g>
            </g>
            <g id="Group_108508" data-name="Group 108508" transform="translate(72.749 22.416)">
              <g id="Group_108507" data-name="Group 108507" transform="translate(0 0)">
                <path id="Path_77465" data-name="Path 77465" d="M.134,13.5l.093-.155.031-.093.96-1.61.5-.681.155-.155.124-.186.093-.093.062-.093.341-.372q.96-1.022,1.548-1.548L5.924,6.966A23.434,23.434,0,0,1,8.091,5.511L12.8,2.972l.155-.093,3.375-1.393,1.424-.433L23.324.031h.186L23.7,0h.341a.082.082,0,0,1,.093.093l-.062.062L20.476,1.827q-.155.062-.217.093l-.217.124-1.734.681-.248.124-4.273,1.61-.155.031-2.57,1.022-.279.155L8.432,6.781,4.593,9.2a18.726,18.726,0,0,0-1.641,1.331l-.433.4-1.3,1.424L.165,13.871a.1.1,0,0,1-.124.031q-.062-.093-.031-.124Z" transform="translate(0 0)" fill="#300"/>
              </g>
            </g>
            <g id="Group_108510" data-name="Group 108510" transform="translate(26.138 20.435)">
              <g id="Group_108509" data-name="Group 108509" transform="translate(0 0)">
                <path id="Path_77466" data-name="Path 77466" d="M5.288,2.508q.062.062-.031.093l-.093.031-.929.031-.248-.031L3.895,2.6H3.771l-.248-.062H3.4l-.588-.186-.124-.062H2.626L2.564,2.26l-.248-.093-.372-.186L1.852,1.92,1.6,1.8l-.31-.217-.062-.031-.31-.279L.83,1.208.675,1.053.582.991.18.5.149.464.118.4.056.341.025.248Q-.037.186.056.155L.242.093H.3L.365.062.861,0h.217l.248.031h.217L1.79.062l.062.031h.062l.65.155.186.093h.062l.867.433.093.093.217.124.124.093.031.031.062.031.186.186.093.062.248.248.062.093.062.062.31.433.093.186Z" transform="translate(0)" fill="#2b0700"/>
              </g>
            </g>
            <g id="Group_108512" data-name="Group 108512" transform="translate(0 32.117)">
              <g id="Group_108511" data-name="Group 108511" transform="translate(0 0)">
                <path id="Path_77467" data-name="Path 77467" d="M1.269,4.789l-.526.062L.062,4.82,0,4.727V4.665l.248-.5L.31,4.108V4.077L.743,3.55l.619-.588.155-.124.155-.093.062-.062.248-.155L7.524.021q.062-.062.124.062L7.617.175,7.338.454,7.214.609,7.028.764l-.4.4L3.592,3.705a4.056,4.056,0,0,1-.65.5l-.248.155-1.115.372H1.517l-.093.031Z" fill="#2b0700"/>
              </g>
            </g>
            <g id="Group_108514" data-name="Group 108514" transform="translate(4.025 38.368)">
              <g id="Group_108513" data-name="Group 108513" transform="translate(0 0)">
                <path id="Path_77468" data-name="Path 77468" d="M1.331,8.23l-.526.557H.774v.031H.743L.712,8.88l-.124.062-.372.31Q.155,9.313.062,9.22L.031,8.694,0,8.57l.031-.743.031-.155V7.487l.186-.743.031-.217.093-.279.062-.124L.5,5.938,3.53.861,3.653.613,4.025.056q.093-.093.124-.031A.1.1,0,0,1,4.18.149L2.291,6.712,2.2,6.9l-.062.093-.031.093-.124.186-.093.186-.433.619-.062.062Z" fill="#2b0700"/>
              </g>
            </g>
            <g id="Group_108516" data-name="Group 108516" transform="translate(7.586 2.081)">
              <g id="Group_108515" data-name="Group 108515" transform="translate(0 0)">
                <path id="Path_77469" data-name="Path 77469" d="M.031,30.088,0,30l.341-2.941L.4,26.837l.836-4.118q.217-.96.712-2.57L4.83,11.883q.372-1.146.991-2.694L9.381.954l.557-.9q.093-.093.124-.031.093.062.031.124l-.155.31L9.227,2.223l-.093.186-.155.4L4.18,19.345,1.765,26.466.341,29.717l-.186.31Q.155,30.088.031,30.088Z" transform="translate(0 0)" fill="#2b0700"/>
              </g>
            </g>
            <g id="Group_108518" data-name="Group 108518" transform="translate(76.011 34.993)">
              <g id="Group_108517" data-name="Group 108517" transform="translate(0 0)">
                <path id="Path_77470" data-name="Path 77470" d="M24.645,14.762l-.31.4-.062.124-.093.093-.619.836-.31.341-.031.062-1.889,1.827q-.5.464-1.548,1.331L16.5,22.255a.61.61,0,0,0-.217.155l-3.158,1.982q-1.858,1.084-3.282,1.734L7.9,26.992l-.217.062-.031.031H7.586l-.093.062L4.056,28.2q-1.022.217-2.136.4l-1.858.217Q0,28.881,0,28.788l.031-.062,4.985-1.765,1.641-.774.186-.062.186-.093.093-.062h.031l.031-.031L9.2,24.856q1.115-.619,3.065-1.889L20.5,16.744l1.7-1.672.588-.712.093-.093.31-.464.155-.186,1.424-2.539.062-.217.433-.991.124-.4.062-.093V9.344l.031-.062.155-.5.031-.031V8.694l.557-2.26V6.279l.124-.867V5.226l.031-.31.031-.093V3.957a9.97,9.97,0,0,0-.217-2.074L25.946.675,25.884.551,25.76.087Q25.7.025,25.791.025q.062-.062.062.031L26.1.489l.031.031L26.6,1.542l.279.929.062.124.31,1.61.031.526.031.093v.433l.031.186-.062,1.734L27.06,8.6,27,8.818l-.031.217V9.1l-.031.062-.031.093-.093.433-.031.031v.062l-.557,1.765-.062.124-.062.217Z" fill="#812511"/>
              </g>
            </g>
            <g id="Group_108520" data-name="Group 108520" transform="translate(75.608 23.314)">
              <g id="Group_108519" data-name="Group 108519" transform="translate(0 0)">
                <path id="Path_77471" data-name="Path 77471" d="M4.551,32.231.093,35.11Q0,35.2,0,35.079v-.062l7.307-6.781q1.672-1.672,2.508-2.57l4.211-5.016.712-.991q.743-1.022,1.115-1.641l1.765-2.91.093-.217.062-.093,1.92-4.273q.093-.279.279-.8l.464-1.393.031-.186.31-1.115.031-.186.062-.186L21.673.805,21.7.062A.055.055,0,0,1,21.766,0L21.8.031l.093.5a13.118,13.118,0,0,1,.155,1.362l.062.464.031,2.663-.4,3.437-.062.186-.031.217-.8,3.034-1.455,3.592-.062.093-.031.124-.836,1.579-3.746,5.511L13.375,24.3l-.155.217-1.889,1.951-.155.186-.186.155q-1.3,1.3-2.725,2.477Z" fill="#812511"/>
              </g>
            </g>
            <g id="Group_108522" data-name="Group 108522" transform="translate(62.171 22.633)">
              <g id="Group_108521" data-name="Group 108521" transform="translate(0 0)">
                <path id="Path_77472" data-name="Path 77472" d="M0,26.286l.031-.062.929-.681.124-.062.248-.217.155-.093.279-.248.155-.093.155-.155.5-.4.248-.248.093-.062,1.765-1.92L5.79,20.466l.217-.4.093-.124.031-.062.062-.062.248-.433v-.031l.031-.031.836-1.672.093-.155L8.483,14.8l.031-.062,1.115-4.149.031-.062v-.093l.093-.5V9.877h.031V9.784l.062-.31.372-3.344V5.852l.031-.155.031-1.455.031-.248L10.248.062Q10.186,0,10.279,0l.062.031.588,1.92.062.4.062.186.433,3V5.7l.031.124.031,1.207q.031,1.115-.062,2.632L11.456,10v.155l-.031.031v.155l-.062.341v.186l-.619,3L9.474,17.308,7.9,20.187l-.062.062-.279.433-.031.062-.062.062-.093.155-.619.805L4.8,23.748l-.248.186-.093.093-.124.062-.836.619-.124.062-.681.433q-.31.186-1.393.681l-.124.062-.124.031-.248.093-.124.062-.619.186Q0,26.379,0,26.286Z" transform="translate(0)" fill="#812511"/>
              </g>
            </g>
            <g id="Group_108524" data-name="Group 108524" transform="translate(49.972 24.775)">
              <g id="Group_108523" data-name="Group 108523" transform="translate(0 0)">
                <path id="Path_77473" data-name="Path 77473" d="M11.053,20.026l-.062-.279-.155-1.331-.031-.155v-.155l-.712-4.458L9.35,10.83l-.186-.5L9.1,10.056l-.062-.124L9.01,9.809l-.124-.248-.093-.279L7.864,7.3,7.245,6.279l-.062-.124L6.068,4.7q-.557-.65-1.362-1.424l-.712-.619-.186-.124-.155-.155L3.282,2.13,3.22,2.068l-.743-.526L.031.118,0,.056Q0-.037.062.025L.681.118H.774L1.7.334,1.858.4l.155.031L3.065.8l.588.279.124.031.093.062a15.231,15.231,0,0,1,1.7.96,15.96,15.96,0,0,1,1.7,1.424l.4.433.124.093,1.022,1.3a12.109,12.109,0,0,1,1.208,2.105l.743,1.858.031.155.4,1.424.4,2.756.031.774.031.248-.186,3.406v.155l-.341,1.8-.062.031Z" transform="translate(0)" fill="#812511"/>
              </g>
            </g>
            <g id="Group_108526" data-name="Group 108526" transform="translate(76.475 63.224)">
              <g id="Group_108525" data-name="Group 108525" transform="translate(0 0)">
                <path id="Path_77474" data-name="Path 77474" d="M2.043,12.137h-.4l-.062-.031H1.455l-.124-.031-.588-.217-.5-.31-.062-.062-.155-.124a.077.077,0,0,1,0-.124l.062-.031H.124l.155-.031H.464l.124-.031H.743l.124-.031H.96l.062-.031.341-.062.062-.031.093-.031.031-.031h.031l.093-.031.062-.031.093-.093h.031l.062-.062.31-.5.124-.372V9.722l.372-2.043V7.524l.031-.155L2.105.248V.093Q2.013,0,2.167,0,2.26,0,2.26.062l.248.557L3.994,5.6l.433,3.437-.217,1.238-.093.186-.062.186-.093.155-.031.093-.186.248a3.672,3.672,0,0,1-.526.588q-.062.031-.681.31Z" transform="translate(0 0)" fill="#812511"/>
              </g>
            </g>
            <g id="Group_108528" data-name="Group 108528" transform="translate(4.985 39.848)">
              <g id="Group_108527" data-name="Group 108527" transform="translate(0 0)">
                <path id="Path_77475" data-name="Path 77475" d="M.372,8.391l-.31-.062L0,8.267l.031-.031L.31,8.05.4,8.019l.929-.557.031-.031.124-.062.186-.124.186-.093L2.2,6.9l.062-.031.031-.031.093-.062,1.3-1.053.093-.093.093-.062.805-.836.062-.093.186-.186.31-.4.031-.062.031-.031.155-.217.093-.093.124-.217.155-.186.65-1.022.093-.186L6.9,1.517,7,1.331l.124-.155L7.8.031,7.864,0,7.9.062l.031.155V.372L7.957.5,7.926,1.641,7.493,3.5l-.062.155L7.4,3.777l-.681,1.3a10.313,10.313,0,0,1-.743.991l-.433.464L4.3,7.462l-.248.124-.124.093L3.653,7.8l-.124.031-.31.155H3.158l-.124.062-.124.031-.062.031H2.787L2.539,8.2l-.248.031L2.074,8.3l-.433.062Z" transform="translate(0)" fill="#812511"/>
              </g>
            </g>
          </g>
          <g id="Group_108536" data-name="Group 108536" transform="translate(12.796 23.132)">
            <g id="Group_108531" data-name="Group 108531" transform="translate(8.97 0) rotate(15.965)">
              <g id="Group_108530" data-name="Group 108530" transform="translate(0 0)">
                <path id="Path_77476" data-name="Path 77476" d="M14.949,28.732A8.128,8.128,0,0,1,9.191,32.54q-3.636.577-6.564-3.5a15.893,15.893,0,0,1-2.6-10.186A19.994,19.994,0,0,1,3.215,8.514,19.668,19.668,0,0,1,9.624,2.26,43.9,43.9,0,0,1,15.228,0q.309,1.588,1.92,6.5a27.443,27.443,0,0,1,.743,11.92Q17.049,25.473,14.949,28.732Z" fill="#e2ad98"/>
              </g>
            </g>
            <g id="Group_108533" data-name="Group 108533" transform="translate(6.74 18.363)">
              <g id="Group_108532" data-name="Group 108532" transform="translate(0 0)">
                <path id="Path_77477" data-name="Path 77477" d="M.093,9.035l.372.124.124.062.155.031.341.124h.093l.341.093.217.031.124.031h.124l.5.062.557-.031.557-.124a5.116,5.116,0,0,0,1.115-.464l.557-.4.248-.217.062-.031.433-.433L7.152,6.465,8.545,4.174l.062-.155,1.486-2.91.062-.093.217-.464.093-.124.093-.217.093-.155q0-.093.062-.031.093,0,.031.062L10.651.8l-.372,1.517L9.134,5.474,7.709,7.827,6.595,9.035a.335.335,0,0,0-.155.124l-.5.372-.867.5-.186.062-.186.093-.186.062-.743.155H3.592l-.186.031H3.065l-1.115-.186-.186-.093H1.7l-.124-.062-.248-.093L.341,9.406,0,9.127V9.035Z" fill="#c18770"/>
              </g>
            </g>
            <g id="Group_108535" data-name="Group 108535" transform="translate(4.379 22.512)">
              <g id="Group_108534" data-name="Group 108534" transform="translate(0 0)">
                <path id="Path_77478" data-name="Path 77478" d="M5.148,11.573l-1.208-.217-.588-.186-.093-.062-.186-.062-.093-.062L2.8,10.923,2.7,10.861,2.61,10.83l-.526-.341-.062-.031-.093-.093-.062-.031L1.836,10.3l-.557-.433L.628,9.1.535,8.942.411,8.787.04,8.106q-.093-.093.031-.093H.133l.712.65L1,8.756l.124.124.155.093.155.124.9.526h.031l.093.062h.031l.031.031.588.217.062.031.186.062.062.031h.093l.186.062h.062l.093.031h.093l.093.031H4.1l.093.031.186.031h.155L4.9,10.3h.341q.337,0,.929-.062l1.455-.279.341-.093h.062l.031-.031H8.09l.9-.341.9-.5a1.534,1.534,0,0,0,.4-.279l.124-.062L10.5,8.6l.093-.093.124-.062.093-.093.093-.062.588-.5L12.61,6.62l.062-.124.093-.093,1.548-2.26V4.112l.031-.031.031-.062.217-.31L16.666.056q0-.093.062-.031.093,0,.031.062L14.808,4.359l-.031.031v.031L13.446,6.712l-.155.217-.062.124L11.712,8.818,11.4,9.1l-.062.031-.031.031-.124.093-.093.093-.124.093-.093.093-.433.31a6.7,6.7,0,0,1-.96.588l-.991.5-.031.031H8.43l-.186.093-.805.248a7.725,7.725,0,0,1-1.115.217,7.365,7.365,0,0,1-1.115.062Z" fill="#f0cbbc"/>
              </g>
            </g>
          </g>
          <g id="Group_108543" data-name="Group 108543" transform="translate(65.329 31.798)">
            <g id="Group_108538" data-name="Group 108538" transform="translate(0 0.241)">
              <g id="Group_108537" data-name="Group 108537" transform="translate(0 0)">
                <path id="Path_77479" data-name="Path 77479" d="M2.322,2.2Q11.336-3.468,13.84,5.456l.124,1.858-3.623,3.87A44.3,44.3,0,0,0,9.258,27.717Q6.368,30.81,4.892,26.076L0,4.62A4.378,4.378,0,0,1,2.322,2.2Z" fill="#e2ad98"/>
              </g>
            </g>
            <g id="Group_108540" data-name="Group 108540" transform="translate(7.695 2.353)">
              <g id="Group_108539" data-name="Group 108539" transform="translate(0 0)">
                <path id="Path_77480" data-name="Path 77480" d="M.014,14.707a38.313,38.313,0,0,1,.526-4.489Q.952,8.083,1,7.988,2.894,6.409,4.194,5.325a3.4,3.4,0,0,0,1.238-3.1A3.154,3.154,0,0,0,4.194,0a3.73,3.73,0,0,1,2.57,3.158A3.213,3.213,0,0,1,5,6.471Q3.016,7.62,1.934,8.329l.341.65-.186.279-.743-.031.805.062L.912,15.728,1,20.4l.557,5.14A26.327,26.327,0,0,1,.386,20.589,34.323,34.323,0,0,1,.014,14.707Z" transform="translate(0 0)" fill="#f0cbbc"/>
              </g>
            </g>
            <g id="Group_108542" data-name="Group 108542" transform="translate(0.031 0)">
              <g id="Group_108541" data-name="Group 108541" transform="translate(0 0)">
                <path id="Path_77481" data-name="Path 77481" d="M9.288,27.9l-.062-.031-.588-5.294-.031-2.136-.031-.124.031-.124.093-3.22.619-5.016.217-1.022a.565.565,0,0,1,.248-.4l.743-.464L12.168,8.7l.774-.96.093-.186.124-.155.155-.341.062-.093.217-.65.031-.186V6.038l.031-.093.031-.31q.012.042.031.093l-.031-.186v.093q-.311-.81-.341-.9a3.907,3.907,0,0,0-.464-.929,5.221,5.221,0,0,0-.588-.836,8.721,8.721,0,0,0-.743-.712,5.106,5.106,0,0,0-.867-.557,5.735,5.735,0,0,0-.96-.4A6.727,6.727,0,0,0,8.7,1.053L8.174.96H8.05L7.9.929H7.771L7.648.9H6.843L6.564.929a3.939,3.939,0,0,0-1.053.155,6.614,6.614,0,0,0-1.053.279L3.468,1.8l-1.8,1.269-.805.774a5.2,5.2,0,0,0-.774.836q-.031.031-.093,0V4.582l.65-.929a6.448,6.448,0,0,1,.743-.867,9.929,9.929,0,0,1,.836-.805L3.158,1.3,4.211.712,5.294.31,6.471.062,7.059,0H8.267l.588.062A11.16,11.16,0,0,1,10.032.31a4.621,4.621,0,0,1,1.146.433,4.924,4.924,0,0,1,1.053.619,4.425,4.425,0,0,1,.9.836l.774.991a8.134,8.134,0,0,1,.557,1.053,9.834,9.834,0,0,1,.4,1.146l.031.186-.031.65-.217.867-.155.341-.031.124-.5.867-.929,1.146-1.146,1.022-.31.186-.186.155-.774.5-1.115,7.74v.124l-.031.124-.031.774-.031.155-.031.9-.031.155-.031,1.7-.031.248.031,4.489Q9.381,27.9,9.288,27.9Z" transform="translate(0)" fill="#a97059"/>
              </g>
            </g>
          </g>
          <g id="Group_108566" data-name="Group 108566" transform="translate(44.775 42.847)">
            <g id="Group_108548" data-name="Group 108548" transform="translate(32.071 2.23)">
              <g id="Group_108545" data-name="Group 108545" transform="translate(0 0)">
                <g id="Group_108544" data-name="Group 108544" transform="translate(0 0)">
                  <path id="Path_77482" data-name="Path 77482" d="M7.544,4.924A5.56,5.56,0,0,1,6.429,8.418,3.257,3.257,0,0,1,3.772,9.848,3.305,3.305,0,0,1,1.1,8.418,5.623,5.623,0,0,1,0,4.924,5.544,5.544,0,0,1,1.1,1.449,3.293,3.293,0,0,1,3.772,0,3.245,3.245,0,0,1,6.429,1.449,5.482,5.482,0,0,1,7.544,4.924Z" fill="#231915"/>
                </g>
              </g>
              <g id="Group_108547" data-name="Group 108547" transform="translate(4.161 5.128)">
                <g id="Group_108546" data-name="Group 108546" transform="translate(0 0)">
                  <path id="Path_77483" data-name="Path 77483" d="M1.822,1.227a1.4,1.4,0,0,1-.3.836.745.745,0,0,1-.65.316.8.8,0,0,1-.632-.353A1.436,1.436,0,0,1,0,1.153,1.264,1.264,0,0,1,.3.335.778.778,0,0,1,.968,0a.736.736,0,0,1,.613.372A1.315,1.315,0,0,1,1.822,1.227Z" fill="#fff"/>
                </g>
              </g>
            </g>
            <g id="Group_108550" data-name="Group 108550" transform="translate(30.61 4.542)">
              <g id="Group_108549" data-name="Group 108549" transform="translate(0 0)">
                <path id="Path_77484" data-name="Path 77484" d="M14.387,2.591a6.506,6.506,0,0,1-1.349,2.772,19.087,19.087,0,0,1-8.13,4.8A37.728,37.728,0,0,1,0,2.367,10.588,10.588,0,0,1,6.069.044Q9.852-.336,14.387,2.591Z" transform="translate(0)" fill="#e2ad98"/>
              </g>
            </g>
            <g id="Group_108552" data-name="Group 108552" transform="translate(32.221 0)">
              <g id="Group_108551" data-name="Group 108551" transform="translate(0)">
                <path id="Path_77485" data-name="Path 77485" d="M0,5.41.45,1.138a11.883,11.883,0,0,1,10.453.15l1.012,4.8Z" fill="#e2ad98"/>
              </g>
            </g>
            <g id="Group_108554" data-name="Group 108554" transform="translate(30.647 3.311)">
              <g id="Group_108553" data-name="Group 108553" transform="translate(0 0)">
                <path id="Path_77486" data-name="Path 77486" d="M10.341,1.986l-.112-.037L7.568,1.5H6.107l-1.236.15-.187.037-.112.037H4.5L4.271,1.8l-.187.037-.112.037H3.9L2.51,2.4l-1.124.637-.037.037L.6,3.447l-.187.037-.3.15Q0,3.747,0,3.6V3.522l.375-.375L.487,3l.487-.45.15-.187,1.049-.937L2.4,1.311l.187-.15.225-.112L2.885.974,3,.937l.45-.225L3.559.674,3.672.6,3.859.525,5.02.187,5.507.112,5.62.075h.112L5.995.037h.112L6.219,0,7.905.037l.45.075H8.5L8.617.15l.937.187.9.3.225.112.112.037.525.262.037.037h.037v.037h.037l.112.037.112.112h.075l1.649,1.311.637.9.037.112.037.037v.075l.037.112q.075.075-.037.075h-.075V3.859l-.15-.15-.112-.075L13.675,3.6l-.15-.15L12.214,2.7l-.974-.412h-.075l-.037-.037L10.9,2.173l-.037-.037h-.037l-.187-.075-.225-.037Z" transform="translate(0)" fill="#231915"/>
              </g>
            </g>
            <g id="Group_108559" data-name="Group 108559" transform="translate(3.035 2.23)">
              <g id="Group_108556" data-name="Group 108556" transform="translate(0 0)">
                <g id="Group_108555" data-name="Group 108555" transform="translate(0 0)">
                  <path id="Path_77487" data-name="Path 77487" d="M7.544,4.924A5.56,5.56,0,0,1,6.429,8.418,3.257,3.257,0,0,1,3.772,9.848,3.305,3.305,0,0,1,1.1,8.418,5.623,5.623,0,0,1,0,4.924,5.544,5.544,0,0,1,1.1,1.449,3.293,3.293,0,0,1,3.772,0,3.245,3.245,0,0,1,6.429,1.449,5.482,5.482,0,0,1,7.544,4.924Z" fill="#231915"/>
                </g>
              </g>
              <g id="Group_108558" data-name="Group 108558" transform="translate(4.161 5.128)">
                <g id="Group_108557" data-name="Group 108557" transform="translate(0 0)">
                  <path id="Path_77488" data-name="Path 77488" d="M1.822,1.227a1.4,1.4,0,0,1-.3.836.745.745,0,0,1-.65.316.8.8,0,0,1-.632-.353A1.436,1.436,0,0,1,0,1.153,1.264,1.264,0,0,1,.3.335.778.778,0,0,1,.968,0a.736.736,0,0,1,.613.372A1.315,1.315,0,0,1,1.822,1.227Z" fill="#fff"/>
                </g>
              </g>
            </g>
            <g id="Group_108561" data-name="Group 108561" transform="translate(0 4.873)">
              <g id="Group_108560" data-name="Group 108560" transform="translate(0 0)">
                <path id="Path_77489" data-name="Path 77489" d="M8.879,11.664a19.841,19.841,0,0,1-2.136-1.236A20,20,0,0,1,0,3.084q.364-.307,2.922-1.873Q5.482-.387,9.854.124a21.89,21.89,0,0,1,8.5,2.772,5.354,5.354,0,0,1-1.8,3.484A81.945,81.945,0,0,1,8.879,11.664Z" fill="#e2ad98"/>
              </g>
            </g>
            <g id="Group_108563" data-name="Group 108563" transform="translate(1.012 0.095)">
              <g id="Group_108562" data-name="Group 108562" transform="translate(0 0)">
                <path id="Path_77490" data-name="Path 77490" d="M0,6.513,1.236.931a22.273,22.273,0,0,1,13.225.15l1.461,5.582Z" fill="#e2ad98"/>
              </g>
            </g>
            <g id="Group_108565" data-name="Group 108565" transform="translate(0.112 3.761)">
              <g id="Group_108564" data-name="Group 108564" transform="translate(0 0)">
                <path id="Path_77491" data-name="Path 77491" d="M17.984,4.121h-.112L13.75,2.248l-.112-.037H13.6l-.037-.037h-.037l-.375-.15h-.075L13,1.986l-.225-.075L10.64,1.574h-.262L9.554,1.5l-2.847.037-.15.037H6.294l-.787.112-.262.075-.525.075-.787.225-1.5.6-.112.075-.375.187-.337.225L.075,3.971Q0,4.046,0,3.934V3.859L1.5,2.323l1.2-.9.525-.3.3-.112L4.046.749,4.2.712l.15-.075.3-.075L4.908.45l.6-.15h.15l.45-.112.3-.037.15-.037h.15L7.268.037h.45L7.868,0H9.329l.3.037a6.493,6.493,0,0,1,1.2.112l2.323.525,1.012.487L16.223,2.51l1.761,1.5Z" transform="translate(0 0)" fill="#231915"/>
              </g>
            </g>
          </g>
          <g id="Group_108571" data-name="Group 108571" transform="translate(55.351 19.292)">
            <g id="Group_108568" data-name="Group 108568" transform="translate(0.473 0)">
              <g id="Group_108567" data-name="Group 108567" transform="translate(0)">
                <path id="Path_77492" data-name="Path 77492" d="M21.729,1.982q0,.135-.09.045l-4.278-.676h-.225l-.18-.045-3.288-.045-.27.045-1.756.135-.135.045h-.135l-.225.045-1.036.09-1.486.315-.45.135-.27.045-.225.09L3.31,3.6l-.18.09-.18.045-.315.18-1.171.5-.225.135-.225.09-.856.45q-.135.135-.135-.045a.056.056,0,0,1,0-.09l.45-.405.135-.09.18-.18.9-.676.946-.54.135-.135,1.756-.856a18.094,18.094,0,0,1,1.8-.721h.045l.18-.09L7.813.856,11.191.135h.27l.811-.09L14.389,0l.27.045h.5l3.918.766.676.27.315.09,1.126.45.5.27Q21.819,1.891,21.729,1.982Z" transform="translate(0)" fill="#231915"/>
              </g>
            </g>
            <g id="Group_108570" data-name="Group 108570" transform="translate(0 2.252)">
              <g id="Group_108569" data-name="Group 108569" transform="translate(0 0)">
                <path id="Path_77493" data-name="Path 77493" d="M2.342,4.909h-.36l-.27-.135-.18-.045-.09-.045-.09-.09-.36-.27-.18-.18H.766V4.1L.63,3.963.5,3.693l-.18-.225-.27-.811L0,2.387.045,1.306.225.54.36.27V.225L.405.18.45.09.5.045.585,0,.63.09.676.135v.45l.045.18v.5l.045.09v.225L.811,1.8v.225l.045.09v.135l.09.315.045.09v.135l.135.315.045.045V3.2l.135.27.045.135.09.09.09.18.315.45.45.45Z" transform="translate(0 0)" fill="#c18770"/>
              </g>
            </g>
          </g>
          <g id="Group_108574" data-name="Group 108574" transform="matrix(0.959, 0.282, -0.282, 0.959, 39.837, 56.464)">
            <g id="Group_108573" data-name="Group 108573" transform="translate(0 0)">
              <g id="Group_108572" data-name="Group 108572">
                <path id="Path_77494" data-name="Path 77494" d="M10.4,4.211A29.491,29.491,0,0,1,2.711,2.57,16.689,16.689,0,0,0,4.716,5.109,11.962,11.962,0,0,1,2.451,3.344,12.586,12.586,0,0,1,1.6,2.415L0,0,2.525,1.7a19.682,19.682,0,0,0,8.616,1.765,27.592,27.592,0,0,0,7.836-1.022q2.637-.743,3.157-.4a1.2,1.2,0,0,1,.52,1.517l-.037-.093a1.506,1.506,0,0,0-.52-.743,1.77,1.77,0,0,0-.966-.093,21.156,21.156,0,0,0-2.971.8A21.156,21.156,0,0,1,10.4,4.211Z" fill="#2b0700"/>
                <path id="Path_77495" data-name="Path 77495" d="M0,0A29.491,29.491,0,0,0,7.687,1.641,21.156,21.156,0,0,0,15.449.867a21.155,21.155,0,0,1,2.971-.8,1.77,1.77,0,0,1,.966.093,1.506,1.506,0,0,1,.52.743l.037.093q-.018.046-.037.093a2.661,2.661,0,0,1-1.448,1.424,19.892,19.892,0,0,1-5.311,1.424,20.292,20.292,0,0,1-9.024-.5,11.962,11.962,0,0,1-2.117-.9A16.689,16.689,0,0,1,0,0Z" transform="translate(2.711 2.57)" fill="#540e00"/>
              </g>
            </g>
          </g>
          <g id="Group_108577" data-name="Group 108577" transform="matrix(-0.959, 0.282, -0.282, -0.959, 95.067, 64.145)">
            <g id="Group_108576" data-name="Group 108576" transform="translate(0 0)">
              <g id="Group_108575" data-name="Group 108575" transform="translate(0)">
                <path id="Path_77496" data-name="Path 77496" d="M7.772.808A18.884,18.884,0,0,0,2.026,2.284,14.935,14.935,0,0,1,3.525,0,9.392,9.392,0,0,0,1.832,1.587q-.331.391-.638.835L0,4.595,1.888,3.063a12.634,12.634,0,0,1,6.44-1.587,17.371,17.371,0,0,1,5.857.919q1.971.668,2.359.362a1.2,1.2,0,0,0,.389-1.365l-.028.084a1.373,1.373,0,0,1-.389.668,1.118,1.118,0,0,1-.722.084A13.727,13.727,0,0,1,13.573,1.5,13.279,13.279,0,0,0,7.772.808Z" transform="translate(0 1.504)" fill="#2b0700"/>
                <path id="Path_77497" data-name="Path 77497" d="M0,3.787A18.884,18.884,0,0,1,5.746,2.311a13.279,13.279,0,0,1,5.8.7,13.727,13.727,0,0,0,2.221.724,1.118,1.118,0,0,0,.722-.084,1.373,1.373,0,0,0,.389-.668l.028-.084-.028-.084A2.23,2.23,0,0,0,13.8,1.532,12.958,12.958,0,0,0,9.826.251,12.7,12.7,0,0,0,3.081.7,8.208,8.208,0,0,0,1.5,1.5,14.934,14.934,0,0,0,0,3.787Z" transform="translate(2.026 0)" fill="#540e00"/>
              </g>
            </g>
          </g>
          <g id="Group_108579" data-name="Group 108579" transform="translate(43.253 28.392)">
            <g id="Group_108578" data-name="Group 108578" transform="translate(0 0)">
              <path id="Path_77498" data-name="Path 77498" d="M3.715,4.644V3.715h.929m-.929,0V2.787m3.715.929L3.715,0,0,3.715,3.715,7.431Zm-4.644,0h.929" fill="none" stroke="rgba(0,0,0,0)" stroke-linecap="round" stroke-linejoin="round" stroke-width="0.108"/>
            </g>
          </g>
        </g>
        <g id="Group_108589" data-name="Group 108589" transform="matrix(0.1, 0.995, -0.995, 0.1, -82.621, 1098.474)">
          <g id="Group_108582" data-name="Group 108582" transform="matrix(0.978, 0.208, -0.208, 0.978, 16.792, 0)">
            <g id="Group_108581" data-name="Group 108581" transform="translate(0 0)">
              <path id="Path_77499" data-name="Path 77499" d="M24.407,9.1a45.073,45.073,0,0,0-3.5-9.1L.01,5.79Q-.021,8.142.041,10.5A439.559,439.559,0,0,0,4.314,62.508,148.282,148.282,0,0,1,5.8,80.713l14.83.062A150.7,150.7,0,0,1,21.5,57.028q1.336-10.366,2.941-26.285T24.407,9.1Z" transform="translate(0)" fill="#e2ad98"/>
            </g>
          </g>
          <g id="Group_108584" data-name="Group 108584" transform="translate(5.606 73.601)">
            <g id="Group_108583" data-name="Group 108583" transform="translate(0 0)">
              <path id="Path_77500" data-name="Path 77500" d="M14.869,7.435a7.162,7.162,0,0,0-2.18-5.255A7.162,7.162,0,0,0,7.435,0,7.162,7.162,0,0,0,2.18,2.18,7.162,7.162,0,0,0,0,7.435a7.162,7.162,0,0,0,2.18,5.255,7.162,7.162,0,0,0,5.255,2.18,7.162,7.162,0,0,0,5.255-2.18A7.162,7.162,0,0,0,14.869,7.435Z" fill="#e2ad98"/>
            </g>
          </g>
          <g id="Group_108586" data-name="Group 108586" transform="translate(6.728 10.314)">
            <g id="Group_108585" data-name="Group 108585" transform="translate(0 0)">
              <path id="Path_77501" data-name="Path 77501" d="M7.672,2.811,8.043.087Q8.105.025,8.012.025q-.062-.062-.062.031L4.731,17.331,2.78,31.759.025,63.71q-.062.062.031.062l.062-.031L7.579,3.492Q7.641,3.028,7.672,2.811Z" fill="#c18770"/>
            </g>
          </g>
          <g id="Group_108588" data-name="Group 108588" transform="translate(22.759 3.218)">
            <g id="Group_108587" data-name="Group 108587" transform="translate(0 0)">
              <path id="Path_77502" data-name="Path 77502" d="M3.715,2.786v.929h.929m-.929,0v.929M7.43,3.715,3.715,7.43,0,3.715,3.715,0Zm-4.644,0h.929" fill="none" stroke="rgba(0,0,0,0)" stroke-linecap="round" stroke-linejoin="round" stroke-width="0.108"/>
            </g>
          </g>
        </g>
        <g id="Group_108594" data-name="Group 108594" transform="translate(-155.135 1107.787) rotate(90.152)">
          <g id="Group_108591" data-name="Group 108591" transform="translate(0 0)">
            <g id="Group_108590" data-name="Group 108590" transform="translate(0 0)">
              <path id="Path_77503" data-name="Path 77503" d="M3.654,45l.109.109.027-.027L3.654,45M21.191,13.834Q18.9,2.908,9.09.149A3.954,3.954,0,0,0,5.839.668Q-3.312,6.4,1.878,16.511q1.12,2.6,1.858,4.78a20.475,20.475,0,0,1,1.229,6.283A9.883,9.883,0,0,1,4.528,30.5L3.19,33.666l-.164.6L2.7,35.5a14.779,14.779,0,0,0-1.475,4.1,2.805,2.805,0,0,0,.055,1.366v.082a3.523,3.523,0,0,0,.3.71,2.223,2.223,0,0,0,.765,1.038.686.686,0,0,0,.273.164,10.294,10.294,0,0,0,2.732-1.721A16.958,16.958,0,0,0,7.97,38.5a17,17,0,0,0,2.131-3.36,27.928,27.928,0,0,0,1.42-3.278q.464-1.448.738-2.431.382-1.42.683-2.977.628-.819.738-.109a25.653,25.653,0,0,1-.109,2.9,22.946,22.946,0,0,1-2.65,8.8l-.6,1.038q-.246.382-.492.792-.273.41-.519.792H9.281a16.818,16.818,0,0,1-4.016,3.77,5.011,5.011,0,0,1-1.448.683H3.763l-.055.082a4.145,4.145,0,0,0,2.622,3.5L6.6,48.8a12.66,12.66,0,0,0,3.387-2.021q.464-.437.956-.874a16.364,16.364,0,0,0,3.059-4.261q1.257-2.513,2.9-6.146A30.694,30.694,0,0,0,19.06,29.05q.574-2.786.683-3.415a8.98,8.98,0,0,1,.109,4.179v-.164a25.675,25.675,0,0,1-3.141,11.418A25.789,25.789,0,0,1,11.466,47.9l-.219.164L9.472,49.346q-.956.492-1.393.3a1.557,1.557,0,0,1-.273-.082L6.085,48.8l.137.983q.382,2.377,1.666,2.458a6.536,6.536,0,0,0,1.776-.027,23.917,23.917,0,0,0,6.829-6.829,26,26,0,0,0,4.726-9.4,45.371,45.371,0,0,0,1.011-4.726,29.573,29.573,0,0,1-2.377,10.489Q17.995,45.521,17.968,47,17.94,48.49,20.4,49.1l.027.027a.21.21,0,0,1,.082.027,34.023,34.023,0,0,0,3.36-9.725,41.278,41.278,0,0,0,.628-10.9q-.137-1.83-.355-3.66A62.642,62.642,0,0,0,21.191,13.834Z" transform="translate(1.299 0)" fill="#e2ad98"/>
              <path id="Path_77504" data-name="Path 77504" d="M5.827,9.206a9.883,9.883,0,0,0,.437-2.923A20.475,20.475,0,0,0,5.035,0,10.647,10.647,0,0,1,4.38,2.622a11.736,11.736,0,0,1-1.2,2.185,14.215,14.215,0,0,1-1.83,2.158L.009,8.113A5.116,5.116,0,0,0,.228,10a3.9,3.9,0,0,0,3.715,2.377h.546L5.827,9.206m17.7.765A45.372,45.372,0,0,1,22.518,14.7a26,26,0,0,1-4.726,9.4q0,3.141,1.748,3.415,1.694.212,2.158.3-2.458-.61-2.431-2.1.027-1.475,1.885-5.245A29.573,29.573,0,0,0,23.528,9.97M21.152,8.359v.164a8.98,8.98,0,0,0-.109-4.179q-.109.628-.683,3.415A30.7,30.7,0,0,1,18.2,14.2q-1.639,3.633-2.9,6.146a16.364,16.364,0,0,1-3.059,4.261q-.492.437-.956.874A12.661,12.661,0,0,1,7.9,27.508H7.385l1.721.765a1.557,1.557,0,0,0,.273.082q.437.191,1.393-.3l1.776-1.284.219-.164a25.788,25.788,0,0,0,5.245-6.829A25.675,25.675,0,0,0,21.152,8.359M14.978,5.054q-.109-.71-.738.109-.3,1.557-.683,2.977-.273.983-.738,2.431a27.927,27.927,0,0,1-1.42,3.278,17,17,0,0,1-2.131,3.36,16.958,16.958,0,0,1-2.622,2.732,10.294,10.294,0,0,1-2.732,1.721.686.686,0,0,1-.273-.164,2.223,2.223,0,0,1-.765-1.038,3.523,3.523,0,0,1-.3-.71q.089.379.191.738A9.886,9.886,0,0,0,4.844,23.82a.346.346,0,0,0,.164.082l.055-.082-.109-.109.137.082q.055-.137.082-.082H5.39l-.273.109a5.011,5.011,0,0,0,1.448-.683,16.818,16.818,0,0,0,4.016-3.77h.027q.246-.382.519-.792.246-.41.492-.792l.6-1.038a22.945,22.945,0,0,0,2.65-8.8A25.652,25.652,0,0,0,14.978,5.054Z" transform="translate(0 21.292)" fill="#c18770"/>
            </g>
          </g>
          <g id="Group_108593" data-name="Group 108593" transform="translate(8.142 3.101)">
            <g id="Group_108592" data-name="Group 108592" transform="translate(0 0)">
              <path id="Path_77505" data-name="Path 77505" d="M3.715,2.786v.929h.929m-.929,0v.929m3.715-.929L3.715,7.431,0,3.715,3.715,0Zm-4.644,0h.929" transform="translate(0 0)" fill="none" stroke="rgba(0,0,0,0)" stroke-linecap="round" stroke-linejoin="round" stroke-width="0.108"/>
            </g>
          </g>
        </g>
      </g>
    </g>
  </g>
</svg>
