<svg xmlns="http://www.w3.org/2000/svg" xmlns:xlink="http://www.w3.org/1999/xlink" width="375" height="270" viewBox="0 0 375 270">
  <defs>
    <clipPath id="clip-path">
      <rect id="Rectangle_8663" data-name="Rectangle 8663" width="375" height="270" transform="translate(16296.434 -12428)" fill="#fff" stroke="#707070" stroke-width="1" opacity="0.59"/>
    </clipPath>
    <clipPath id="clip-path-2">
      <path id="Path_75570" data-name="Path 75570" d="M0,202.83H131V0H0Z" transform="translate(128 131.17)" fill="#fff"/>
    </clipPath>
    <linearGradient id="linear-gradient" x1="0.119" y1="0.51" x2="1.54" y2="0.389" gradientUnits="objectBoundingBox">
      <stop offset="0" stop-color="#bec0c2"/>
      <stop offset="0.341" stop-color="#fff"/>
      <stop offset="1" stop-color="#bec0c2"/>
    </linearGradient>
    <linearGradient id="linear-gradient-2" x1="0.417" y1="0.502" x2="0.708" y2="0.495" gradientUnits="objectBoundingBox">
      <stop offset="0" stop-color="#d2d4d5"/>
      <stop offset="1" stop-color="#fff"/>
    </linearGradient>
  </defs>
  <g id="Mask_Group_16611" data-name="Mask Group 16611" transform="translate(-16296.434 12428)" clip-path="url(#clip-path)">
    <g id="Mask_Group_16601" data-name="Mask Group 16601" transform="translate(16296.434 -12528)" clip-path="url(#clip-path-2)">
      <g id="male_teen_5" data-name="male teen 5" transform="translate(324.279 854.028)">
        <g id="Group_104051" data-name="Group 104051" transform="translate(-100.945 -497.186) rotate(-170.868)">
          <g id="Group_104034" data-name="Group 104034" transform="translate(1.335 7.341)">
            <g id="Group_104033" data-name="Group 104033" transform="translate(0 0)">
              <path id="Path_75460" data-name="Path 75460" d="M19.325,0a232.533,232.533,0,0,1,7.229,35.4L5.505,39.623Q2.158,21.22,0,3.114Z" fill="#e2ad98"/>
            </g>
          </g>
          <g id="Group_104036" data-name="Group 104036" transform="translate(1.307 0)">
            <g id="Group_104035" data-name="Group 104035" transform="translate(0 0)">
              <path id="Path_75461" data-name="Path 75461" d="M19.686,9.843a9.51,9.51,0,0,1-2.892,6.979,9.465,9.465,0,0,1-6.951,2.864,9.557,9.557,0,0,1-6.979-2.864A9.557,9.557,0,0,1,0,9.843,9.465,9.465,0,0,1,2.864,2.892,9.51,9.51,0,0,1,9.843,0a9.419,9.419,0,0,1,6.951,2.892A9.419,9.419,0,0,1,19.686,9.843Z" fill="#e2ad98"/>
            </g>
          </g>
          <g id="Group_104039" data-name="Group 104039" transform="translate(5.339 34.608)">
            <g id="Group_104038" data-name="Group 104038" transform="translate(0 0)">
              <g id="Group_104037" data-name="Group 104037" transform="translate(0 0)">
                <path id="Path_75462" data-name="Path 75462" d="M1.752,15.83,0,4.4A32.647,32.647,0,0,1,21.493.371l1.863,10.566Z" fill="#c18770"/>
              </g>
            </g>
          </g>
          <g id="Group_104041" data-name="Group 104041" transform="translate(17.629 65.509)">
            <g id="Group_104040" data-name="Group 104040" transform="translate(0 0)">
              <path id="Path_75463" data-name="Path 75463" d="M32.643,16.322a15.725,15.725,0,0,1-4.782,11.539,15.725,15.725,0,0,1-11.539,4.783A15.725,15.725,0,0,1,4.782,27.861,15.725,15.725,0,0,1,0,16.322,15.725,15.725,0,0,1,4.782,4.783,15.725,15.725,0,0,1,16.322,0,15.725,15.725,0,0,1,27.861,4.783,15.725,15.725,0,0,1,32.643,16.322Z" transform="translate(0)" fill="#7a2230"/>
            </g>
          </g>
          <g id="Group_104043" data-name="Group 104043" transform="translate(0.056 36.88)">
            <g id="Group_104042" data-name="Group 104042" transform="translate(0 0)">
              <path id="Path_75464" data-name="Path 75464" d="M38.26,2.881,49.771,41.114,22.689,56.824Q13.124,48.4,0,9.221,13.235-5.154,38.26,2.881Z" transform="translate(0 0)" fill="#7a2230"/>
            </g>
          </g>
          <g id="Group_104046" data-name="Group 104046" transform="translate(0 36.915)">
            <g id="Group_104045" data-name="Group 104045" transform="translate(0 0)">
              <g id="Group_104044" data-name="Group 104044">
                <path id="Path_75465" data-name="Path 75465" d="M12.068,40.467A273.364,273.364,0,0,1,0,9.13Q12.722-4.895,37.37,2.624,9.621,1.039,5.978,11.1q-2.224,6.117,13.43,41.986A71.5,71.5,0,0,1,12.068,40.467Z" fill="#4b0f18"/>
              </g>
            </g>
          </g>
          <g id="Group_104048" data-name="Group 104048" transform="translate(41.602 51.023)">
            <g id="Group_104047" data-name="Group 104047" transform="translate(0 0)">
              <path id="Path_75466" data-name="Path 75466" d="M7.5,25.108,3.943,16.322.133.918.022.056Q-.033,0,.05,0L.106.028l.612,1.78L7.585,25.08q.056.056-.028.056Q7.5,25.192,7.5,25.108Z" transform="translate(0)" fill="#4b0f18"/>
            </g>
          </g>
          <g id="Group_104050" data-name="Group 104050" transform="translate(30.614 78.494)">
            <g id="Group_104049" data-name="Group 104049" transform="translate(0 0)">
              <path id="Path_75467" data-name="Path 75467" d="M3.337,4.171V3.337h.834m-.834,0V2.5m3.337.834L3.337,0,0,3.337,3.337,6.673Zm-4.171,0h.834" fill="none" stroke="rgba(0,0,0,0)" stroke-linecap="round" stroke-linejoin="round" stroke-width="0.075"/>
            </g>
          </g>
        </g>
        <g id="Group_104060" data-name="Group 104060" transform="translate(-91.982 -434.012) rotate(-175.881)">
          <g id="Group_104053" data-name="Group 104053" transform="matrix(0.978, -0.208, 0.208, 0.978, 0, 8.497)">
            <g id="Group_104052" data-name="Group 104052" transform="translate(0 0)">
              <path id="Path_75468" data-name="Path 75468" d="M21.92,64.37a40.481,40.481,0,0,1-3.142,8.175L.009,67.345q-.028-2.113.028-4.226A394.773,394.773,0,0,1,3.874,16.405,133.175,133.175,0,0,0,5.209.056L18.528,0a135.343,135.343,0,0,0,.779,21.327q1.2,9.31,2.642,23.607T21.92,64.37Z" fill="#e2ad98"/>
            </g>
          </g>
          <g id="Group_104055" data-name="Group 104055" transform="translate(5.035 0)">
            <g id="Group_104054" data-name="Group 104054" transform="translate(0 0)">
              <path id="Path_75469" data-name="Path 75469" d="M13.354,6.677A6.432,6.432,0,0,1,11.4,11.4a6.432,6.432,0,0,1-4.719,1.958A6.432,6.432,0,0,1,1.958,11.4,6.432,6.432,0,0,1,0,6.677,6.432,6.432,0,0,1,1.958,1.958,6.432,6.432,0,0,1,6.677,0,6.432,6.432,0,0,1,11.4,1.958,6.432,6.432,0,0,1,13.354,6.677Z" fill="#e2ad98"/>
            </g>
          </g>
          <g id="Group_104057" data-name="Group 104057" transform="translate(6.042 12.919)">
            <g id="Group_104056" data-name="Group 104056" transform="translate(0 0)">
              <path id="Path_75470" data-name="Path 75470" d="M6.89,54.749,7.224,57.2q.056.056-.028.056-.056.056-.056-.028L4.249,41.708,2.5,28.751.022.056Q-.033,0,.05,0L.106.028l6.7,54.11Q6.862,54.555,6.89,54.749Z" fill="#c18770"/>
            </g>
          </g>
          <g id="Group_104059" data-name="Group 104059" transform="translate(20.44 69.892)">
            <g id="Group_104058" data-name="Group 104058" transform="translate(0 0)">
              <path id="Path_75471" data-name="Path 75471" d="M3.337,4.171V3.337h.834m-.834,0V2.5m3.337.834L3.337,0,0,3.337,3.337,6.673Zm-4.171,0h.834" fill="none" stroke="rgba(0,0,0,0)" stroke-linecap="round" stroke-linejoin="round" stroke-width="0.075"/>
            </g>
          </g>
        </g>
        <g id="Group_104065" data-name="Group 104065" transform="translate(-82.381 -401.363) rotate(177.84)">
          <g id="Group_104062" data-name="Group 104062" transform="translate(0 0)">
            <g id="Group_104061" data-name="Group 104061">
              <path id="Path_75472" data-name="Path 75472" d="M4.979,3.921Q4.951,3.837,5.2,2.03l.612.584A5,5,0,0,1,6.841,5.227Q6.146,13.792,6.258,23A63.337,63.337,0,0,1,4.979,3.921m7.7,20.437q-.167-.806-.334-1.585a67.141,67.141,0,0,1-.389-18.8Q12.18,2,12.569,0a4.865,4.865,0,0,1,1.752,3.309,4.635,4.635,0,0,1-.139.667A90.658,90.658,0,0,0,12.625,22.55q0,.918.056,1.807M0,14.181a17.926,17.926,0,0,0,1-2Q.975,13.625.975,17.212a28.7,28.7,0,0,0,1.335,7.841A18.287,18.287,0,0,1,1.03,21.3a15.834,15.834,0,0,0-.5-1.7A21.145,21.145,0,0,1,0,14.181Z" transform="translate(1.078 2.18)" fill="#c18770"/>
              <path id="Path_75473" data-name="Path 75473" d="M18.374,47.67q-.445,0-.89-.028L17.4,47.5q-.056-.028-.056-.056a10.252,10.252,0,0,1-7.285-5.978Q8.225,38.6,5.945,34.212q-.5-.806-1.057-1.585a7.542,7.542,0,0,1-.473-.806Q3.61,30.625,3,29.568A22.149,22.149,0,0,1,.106,23.284q-.445-1.974.973-6.924a21.145,21.145,0,0,0,.528,5.422,15.834,15.834,0,0,1,.5,1.7,18.287,18.287,0,0,0,1.279,3.754,28.7,28.7,0,0,1-1.335-7.841q0-3.587.028-5.033l.028-2.169q.111-.751.306-1.557.473-2.224.834-4.5l.083-.111q1.585-3,2.947-1.807Q6.029,6.017,6.057,6.1A63.337,63.337,0,0,0,7.336,25.175q-.111-9.2.584-17.768Q7.947,6.74,8,6.1q.25-2.336.779-5.227,3.281-2.252,4.866,1.307-.389,2-.612,3.976a67.141,67.141,0,0,0,.389,18.8q.167.779.334,1.585-.056-.89-.056-1.807A90.658,90.658,0,0,1,15.26,6.156a4.635,4.635,0,0,0,.139-.667q.306-1.2.89-3.114,4.727.64,5.811,3.893a9.941,9.941,0,0,1-.167,5.172q-1.891,10.65-.028,15.237,1.807.445,1.585-4.588-.389-5.617,1.807-7.2a4.681,4.681,0,0,1,5.756-.111q-2.03,9.4-1.112,14.1.89,4.7.918,4.81-.445,1.14-.973,2.224a55.637,55.637,0,0,1-3.059,5.728q-.612,1-1.2,1.78A9.847,9.847,0,0,1,21.739,46.7a2.491,2.491,0,0,1-.445.222A5.956,5.956,0,0,1,18.374,47.67Z" fill="#e2ad98"/>
            </g>
          </g>
          <g id="Group_104064" data-name="Group 104064" transform="translate(15.928 37.743)">
            <g id="Group_104063" data-name="Group 104063" transform="translate(0 0)">
              <path id="Path_75474" data-name="Path 75474" d="M3.337,4.171V3.337h.834m-.834,0V2.5m3.337.834L3.337,0,0,3.337,3.337,6.673Zm-4.171,0h.834" fill="none" stroke="rgba(0,0,0,0)" stroke-linecap="round" stroke-linejoin="round" stroke-width="0.075"/>
            </g>
          </g>
        </g>
        <g id="Group_104075" data-name="Group 104075" transform="translate(-194.477 -554.207) rotate(-8.256)">
          <g id="Group_104067" data-name="Group 104067" transform="translate(0 34.926)">
            <g id="Group_104066" data-name="Group 104066" transform="translate(0 0)">
              <path id="Path_75475" data-name="Path 75475" d="M84.979,59.174A358.889,358.889,0,0,0,81.2,0L8.9,3.114A394.968,394.968,0,0,1,0,59.841Q39.955,75.182,84.979,59.174Z" transform="translate(0 0)" fill="#ede6de"/>
            </g>
          </g>
          <g id="Group_104069" data-name="Group 104069" transform="translate(8.67 2.232)">
            <g id="Group_104068" data-name="Group 104068" transform="translate(0 0)">
              <path id="Path_75476" data-name="Path 75476" d="M0,36.556A35.227,35.227,0,0,0,10.7,62.412a35.227,35.227,0,0,0,25.857,10.7,35.227,35.227,0,0,0,25.857-10.7,35.227,35.227,0,0,0,10.7-25.857A35.227,35.227,0,0,0,62.412,10.7,35.227,35.227,0,0,0,36.556,0,35.227,35.227,0,0,0,10.7,10.7,35.227,35.227,0,0,0,0,36.556Z" fill="#ede6de"/>
            </g>
          </g>
          <g id="Group_104072" data-name="Group 104072" transform="translate(0.056 0)">
            <g id="Group_104071" data-name="Group 104071" transform="translate(0 0)">
              <g id="Group_104070" data-name="Group 104070">
                <path id="Path_75477" data-name="Path 75477" d="M43.741,9.677q.862-.028,1.752-.028.89.111,1.78.25a4.788,4.788,0,0,1,.528-.028,39.523,39.523,0,0,1-.5-7.536,9.23,9.23,0,0,1,.139-1.251A10.209,10.209,0,0,1,47.662,0l-.5,1.585A37.693,37.693,0,0,0,24.637,6.9L17.38,14.46a60.093,60.093,0,0,0-6.4,11.039,51.593,51.593,0,0,0-2.2,10.761A453.271,453.271,0,0,1,0,94.962a47.363,47.363,0,0,0,7.452,2.419q4.578,1.14,7.2,1.919a38.32,38.32,0,0,0,6.535,1.279q3.913.508,8.092,1.279a40.9,40.9,0,0,0,8.453.723q4.31-.079,6.118-.139t7.4-.417a71.71,71.71,0,0,0,10.205-1.307q4.489-.779,7.7-1.613,3.244-.834,4-1.057.754-.195,1.5-.417.751-.25,1.5-.473-.584.111-1.14.25-4.56.89-9.288,1.418-3.365.389-6.785.723a121.249,121.249,0,0,1-12.43.417,66.373,66.373,0,0,1-7.7-.612,62.868,62.868,0,0,1-10.845-2.475,24.383,24.383,0,0,1-7.591-4.2,14.623,14.623,0,0,1-5.005-7.814,39.1,39.1,0,0,1-1.084-6.312A94.63,94.63,0,0,1,13.931,67.1q.139-4.31.417-8.676.167-2.975.473-5.951.364-3.337.64-7.953.3-4.615,1.2-10.094a33.222,33.222,0,0,1,3.476-10.233,22.285,22.285,0,0,1,7.146-7.869A45.743,45.743,0,0,1,33.9,12.485,30.1,30.1,0,0,1,43.741,9.677Z" fill="#dad0c5"/>
              </g>
            </g>
          </g>
          <g id="Group_104074" data-name="Group 104074" transform="translate(39.153 99.105)">
            <g id="Group_104073" data-name="Group 104073" transform="translate(0 0)">
              <path id="Path_75478" data-name="Path 75478" d="M3.337,2.5v.834h.834m-.834,0v.834m3.337-.834L3.337,6.674,0,3.337,3.337,0Zm-4.171,0h.834" fill="none" stroke="rgba(0,0,0,0)" stroke-linecap="round" stroke-linejoin="round" stroke-width="0.075"/>
            </g>
          </g>
        </g>
        <g id="Group_104100" data-name="Group 104100" transform="matrix(0.997, 0.08, -0.08, 0.997, -189.462, -613.782)">
          <g id="Group_104077" data-name="Group 104077" transform="translate(31.561 0)">
            <g id="Group_104076" data-name="Group 104076" transform="translate(0 0)">
              <path id="Path_75479" data-name="Path 75479" d="M33.647,19.968,36.4,6.787a31.424,31.424,0,0,0-9.065-5.2A28.606,28.606,0,0,0,18.186,0,30.675,30.675,0,0,0,.64,5.285L0,19.968Z" fill="#e2ad98"/>
            </g>
          </g>
          <g id="Group_104079" data-name="Group 104079" transform="translate(8.759 3.255)">
            <g id="Group_104078" data-name="Group 104078" transform="translate(0 0)">
              <path id="Path_75480" data-name="Path 75480" d="M77.861,22a19.369,19.369,0,0,0-2.948-9.733Q72.23,8.018,65.737,5.422a56.59,56.59,0,0,1-8.9-4.171Q54.57,7.285,47.161,11.6q-7.378,4.338-12.93-1.335Q28.7,4.616,27.307,3.42A11.869,11.869,0,0,1,24.721,0a46.191,46.191,0,0,0-5.84,1.613Q13.988,3.15,9.093,4.755A58.051,58.051,0,0,0,0,8.676L7.341,85.2q2.892-3.949,6.062-7.647,2.836-3.309,5.951-6.424l1.168-1.168,1.168-1.112q2.252-2.058,4.672-3.921a46.848,46.848,0,0,1,9.315-5.478,29.576,29.576,0,0,1,9.149-2.336,27.992,27.992,0,0,1,9.037.806,34.085,34.085,0,0,1,8.871,3.893,41.206,41.206,0,0,1,5.534,4.06A59.124,59.124,0,0,1,73.161,70.6,73.583,73.583,0,0,1,80,79.084Z" transform="translate(0 0)" fill="#ede6de"/>
            </g>
          </g>
          <g id="Group_104081" data-name="Group 104081" transform="translate(0.278 9.901)">
            <g id="Group_104080" data-name="Group 104080" transform="translate(0 0)">
              <path id="Path_75481" data-name="Path 75481" d="M32.646,16.323a15.726,15.726,0,0,0-4.783-11.54A15.726,15.726,0,0,0,16.323,0,15.726,15.726,0,0,0,4.783,4.783,15.726,15.726,0,0,0,0,16.323a15.726,15.726,0,0,0,4.783,11.54,15.726,15.726,0,0,0,11.54,4.783,15.726,15.726,0,0,0,11.54-4.783A15.726,15.726,0,0,0,32.646,16.323Z" fill="#ede6de"/>
            </g>
          </g>
          <g id="Group_104084" data-name="Group 104084" transform="translate(11.484 39.461)">
            <g id="Group_104083" data-name="Group 104083" transform="translate(0 0)">
              <g id="Group_104082" data-name="Group 104082">
                <path id="Path_75482" data-name="Path 75482" d="M14.515,0Q.028,2.364,0,2.336L4.56,49.275l9.76-12.013Z" fill="#dad0c5"/>
              </g>
            </g>
          </g>
          <g id="Group_104089" data-name="Group 104089" transform="translate(0 3.672)">
            <g id="Group_104086" data-name="Group 104086" transform="translate(0 0)">
              <g id="Group_104085" data-name="Group 104085">
                <path id="Path_75483" data-name="Path 75483" d="M33.369,22.8A79.992,79.992,0,0,1,38.541,5.84L32.034,0A143.31,143.31,0,0,0,11.123,6.924Q.539,11.23,0,23.525q1.48,9.341,8.509,13.264l.528.278q.354.2.7.361.076.033.139.056l.473.195a15.056,15.056,0,0,0,4.588,1.112,16.6,16.6,0,0,0,1.668.083,15.726,15.726,0,0,0,11.54-4.783,15.349,15.349,0,0,0,1.168-1.307Q32.238,29.611,33.369,22.8Z" fill="#7a2230"/>
              </g>
            </g>
            <g id="Group_104088" data-name="Group 104088" transform="translate(63.901 1.112)">
              <g id="Group_104087" data-name="Group 104087" transform="translate(0 0)">
                <path id="Path_75484" data-name="Path 75484" d="M11.179,10.233q5.321,4.224,8.982,12.93,1.707,4.027,2.975,7.647a74.912,74.912,0,0,1-.111-8.787,22.306,22.306,0,0,0-.473-6.006q-.228-2.776-3.281-6.034a20.866,20.866,0,0,0-6.98-5.339A56.507,56.507,0,0,1,2.614,0L0,4.227A33.347,33.347,0,0,1,11.179,10.233Z" transform="translate(0)" fill="#7a2230"/>
              </g>
            </g>
          </g>
          <g id="Group_104091" data-name="Group 104091" transform="translate(48.218 4.395)">
            <g id="Group_104090" data-name="Group 104090" transform="translate(0 0)">
              <path id="Path_75485" data-name="Path 75485" d="M10.9,4.171l-.167.083-.528.334-2.419,1.2L4.2,6.9l-.167.028-.167.056-3.81.612H.028L0,7.647l.028.028L.25,7.73l1.5.111.139.028L3.81,7.814l.361-.056h.195L5.923,7.48l1.641-.473A12.988,12.988,0,0,0,9.2,6.368l.806-.417,2.475-1.668,2.169-2.2L15.6.751l.111-.139L15.906.25l.111-.167Q16.045.056,15.989,0h-.056l-.139.167L14.627,1.279l-.111.083-.334.306-.111.083-.222.222Z" fill="#c18770"/>
            </g>
          </g>
          <g id="Group_104093" data-name="Group 104093" transform="translate(39.542 12.793)">
            <g id="Group_104092" data-name="Group 104092" transform="translate(0 0)">
              <path id="Path_75486" data-name="Path 75486" d="M17.769,1.752,17.157,2l-.222.056a18.751,18.751,0,0,1-1.863.584q-.834.222-.973.25L12.6,3.2h-.139l-.111.028-2.364.167-.139.028-.111-.028H8.954L7.425,3.253,4.838,2.7,2.03,1.668,1,1.168.779,1.084.612.973.083.723Q0,.64,0,.751V.806L1.7,2.28l.139.083.612.445L4.922,4.088h.056l1.112.389.139.028.111.056.278.056a11.644,11.644,0,0,0,2.2.389,14.285,14.285,0,0,0,2.336.028l.862-.083,2.475-.528.278-.083.111-.056.139-.028.528-.195a18.441,18.441,0,0,0,1.891-.806l1.585-.89A13.7,13.7,0,0,0,20.3,1.5L22.023.083V0H21.94L20.327.723l-.083.028-.612.278-.167.056-.167.083L17.991,1.7Z" fill="#dad0c5"/>
            </g>
          </g>
          <g id="Group_104095" data-name="Group 104095" transform="translate(30.477 2.003)">
            <g id="Group_104094" data-name="Group 104094" transform="translate(0 0)">
              <path id="Path_75487" data-name="Path 75487" d="M23.386,14.016A20.2,20.2,0,0,0,32.173,9.9a17.676,17.676,0,0,0,2.864-3.031A9.646,9.646,0,0,0,36.65,3.338q-.222-1.418-1.335-1.5A2.326,2.326,0,0,0,33.2,3.143,19.188,19.188,0,0,1,29.67,6.869a11.542,11.542,0,0,1-3.7,2,25.252,25.252,0,0,1-4.171.945,16.23,16.23,0,0,1-9.594-1.14A16,16,0,0,1,5.089,2.615,5.614,5.614,0,0,0,3.865.752,2.535,2.535,0,0,0,1.974,0Q.862,0,0,1.586A27.279,27.279,0,0,0,4.394,8.76,15.16,15.16,0,0,0,13.681,14.1,23.452,23.452,0,0,0,23.386,14.016Z" transform="translate(0 0)" fill="#7a2230"/>
            </g>
          </g>
          <g id="Group_104097" data-name="Group 104097" transform="translate(30.566 3.706)">
            <g id="Group_104096" data-name="Group 104096" transform="translate(0 0)">
              <path id="Path_75488" data-name="Path 75488" d="M20.516,12.814q1.057-.111,2.53-.361l2.948-.779,1.668-.723L28,10.756q.083,0,.028-.056,0-.083-.056-.028l-.111.028-.445.167-.222.056-.139.056-.445.111q-.334.111-1.585.389l-5.9.5L15.9,11.785l-2.586-.5-1.446-.445A20.613,20.613,0,0,1,9.115,9.616L7.864,8.865Q7.169,8.392,6.7,8L6.529,7.92l-.111-.111L6.14,7.586,3.554,5.028.106.05Q.106-.033.05.022q-.083,0-.028.056L.578,1.413q.473,1,.751,1.474L2.441,4.75A20.9,20.9,0,0,0,4,6.779l.973,1.029a12.5,12.5,0,0,0,1.084.973,13.589,13.589,0,0,0,1.224.945l1.307.834,2.92,1.335a25.485,25.485,0,0,0,3.114.779l.751.111,3.754.139Z" fill="#4b0f18"/>
            </g>
          </g>
          <g id="Group_104099" data-name="Group 104099" transform="translate(49.191 84.175)">
            <g id="Group_104098" data-name="Group 104098" transform="translate(0 0)">
              <path id="Path_75489" data-name="Path 75489" d="M3.337,2.5v.834h.834m-.834,0v.834m3.337-.834L3.337,6.674,0,3.337,3.337,0Zm-4.171,0h.834" fill="none" stroke="rgba(0,0,0,0)" stroke-linecap="round" stroke-linejoin="round" stroke-width="0.075"/>
            </g>
          </g>
        </g>
        <g id="Group_104119" data-name="Group 104119" transform="matrix(0.805, -0.593, 0.593, 0.805, -210.717, -577.503)">
          <g id="Group_104102" data-name="Group 104102" transform="translate(1.335 44.281)">
            <g id="Group_104101" data-name="Group 104101" transform="translate(0 0)">
              <path id="Path_75490" data-name="Path 75490" d="M19.324,34.275A177.629,177.629,0,0,0,26.553,3.656L5.505,0Q2.158,15.919,0,31.581Z" fill="#e2ad98"/>
            </g>
          </g>
          <g id="Group_104104" data-name="Group 104104" transform="translate(1.307 67.877)">
            <g id="Group_104103" data-name="Group 104103" transform="translate(0 0)">
              <path id="Path_75491" data-name="Path 75491" d="M19.685,8.515a7.713,7.713,0,0,0-2.892-6.037A10.26,10.26,0,0,0,9.843,0,10.365,10.365,0,0,0,2.864,2.477a7.77,7.77,0,0,0,0,12.05,10.3,10.3,0,0,0,6.979,2.5,10.2,10.2,0,0,0,6.951-2.5A7.643,7.643,0,0,0,19.685,8.515Z" fill="#e2ad98"/>
            </g>
          </g>
          <g id="Group_104107" data-name="Group 104107" transform="translate(5.338 41.274)">
            <g id="Group_104106" data-name="Group 104106" transform="translate(0 0)">
              <g id="Group_104105" data-name="Group 104105" transform="translate(0 0)">
                <path id="Path_75492" data-name="Path 75492" d="M1.752,0,0,9.886a36.99,36.99,0,0,0,21.493,3.488l1.863-9.14Z" fill="#c18770"/>
              </g>
            </g>
          </g>
          <g id="Group_104109" data-name="Group 104109" transform="translate(17.628 0)">
            <g id="Group_104108" data-name="Group 104108" transform="translate(0 0)">
              <path id="Path_75493" data-name="Path 75493" d="M32.642,14.119A12.753,12.753,0,0,0,27.86,4.137,17.038,17.038,0,0,0,16.321,0,17.038,17.038,0,0,0,4.782,4.137a12.808,12.808,0,0,0,0,19.964,17.038,17.038,0,0,0,11.539,4.137A17.038,17.038,0,0,0,27.86,24.1,12.753,12.753,0,0,0,32.642,14.119Z" transform="translate(0 0)" fill="#7a2230"/>
            </g>
          </g>
          <g id="Group_104111" data-name="Group 104111" transform="translate(0.056 3.848)">
            <g id="Group_104110" data-name="Group 104110" transform="translate(0 0)">
              <path id="Path_75494" data-name="Path 75494" d="M38.258,46.662,49.769,13.59,22.688,0Q13.124,7.288,0,41.178,13.235,53.613,38.258,46.662Z" fill="#7a2230"/>
            </g>
          </g>
          <g id="Group_104114" data-name="Group 104114" transform="translate(0 7.047)">
            <g id="Group_104113" data-name="Group 104113" transform="translate(0 0)">
              <g id="Group_104112" data-name="Group 104112">
                <path id="Path_75495" data-name="Path 75495" d="M12.067,10.92A218.078,218.078,0,0,0,0,38.027q12.721,12.132,37.369,5.628Q9.62,45.027,5.978,36.319,3.754,31.028,19.407,0A60.527,60.527,0,0,0,12.067,10.92Z" fill="#4b0f18"/>
              </g>
            </g>
          </g>
          <g id="Group_104116" data-name="Group 104116" transform="translate(41.601 19.006)">
            <g id="Group_104115" data-name="Group 104115" transform="translate(0 0)">
              <path id="Path_75496" data-name="Path 75496" d="M7.5.043l-3.559,7.6L.133,20.969l-.111.746q-.056.048.028.048l.056-.024L.717,20.2,7.585.067Q7.641.019,7.557.019,7.5-.029,7.5.043Z" fill="#4b0f18"/>
            </g>
          </g>
          <g id="Group_104118" data-name="Group 104118" transform="translate(30.612 11.233)">
            <g id="Group_104117" data-name="Group 104117" transform="translate(0 0)">
              <path id="Path_75497" data-name="Path 75497" d="M3.336,2.165v.722h.834m-.834,0v.722m3.336-.722L3.336,5.773,0,2.886,3.336,0Zm-4.171,0h.834" fill="none" stroke="rgba(0,0,0,0)" stroke-linecap="round" stroke-linejoin="round" stroke-width="0.07"/>
            </g>
          </g>
        </g>
        <g id="Group_104128" data-name="Group 104128" transform="matrix(-0.925, -0.381, 0.381, -0.925, -137.987, -508.214)">
          <g id="Group_104121" data-name="Group 104121" transform="matrix(0.978, 0.208, -0.208, 0.978, 15.081, 0)">
            <g id="Group_104120" data-name="Group 104120" transform="translate(0 0)">
              <path id="Path_75498" data-name="Path 75498" d="M21.919,8.174A40.479,40.479,0,0,0,18.777,0L.009,5.2Q-.019,7.313.037,9.426A394.756,394.756,0,0,0,3.874,56.137,133.167,133.167,0,0,1,5.209,72.486l13.318.056a135.337,135.337,0,0,1,.779-21.326q1.2-9.31,2.641-23.606T21.919,8.174Z" fill="#e2ad98"/>
            </g>
          </g>
          <g id="Group_104123" data-name="Group 104123" transform="translate(5.035 66.099)">
            <g id="Group_104122" data-name="Group 104122" transform="translate(0 0)">
              <path id="Path_75499" data-name="Path 75499" d="M13.354,6.677A6.432,6.432,0,0,0,11.4,1.958,6.431,6.431,0,0,0,6.677,0,6.432,6.432,0,0,0,1.958,1.958,6.432,6.432,0,0,0,0,6.677,6.432,6.432,0,0,0,1.958,11.4a6.432,6.432,0,0,0,4.719,1.958A6.432,6.432,0,0,0,11.4,11.4,6.432,6.432,0,0,0,13.354,6.677Z" transform="translate(0 0)" fill="#e2ad98"/>
            </g>
          </g>
          <g id="Group_104125" data-name="Group 104125" transform="translate(6.042 9.263)">
            <g id="Group_104124" data-name="Group 104124" transform="translate(0 0)">
              <path id="Path_75500" data-name="Path 75500" d="M6.89,2.525,7.224.078Q7.279.022,7.2.022,7.14-.033,7.14.05L4.249,15.565,2.5,28.522.022,57.216q-.056.056.028.056l.056-.028,6.7-54.107Q6.862,2.719,6.89,2.525Z" fill="#c18770"/>
            </g>
          </g>
          <g id="Group_104127" data-name="Group 104127" transform="translate(20.439 2.89)">
            <g id="Group_104126" data-name="Group 104126" transform="translate(0 0)">
              <path id="Path_75501" data-name="Path 75501" d="M3.337,2.5v.834h.834m-.834,0v.834m3.337-.834L3.337,6.673,0,3.337,3.337,0Zm-4.171,0h.834" fill="none" stroke="rgba(0,0,0,0)" stroke-linecap="round" stroke-linejoin="round" stroke-width="0.075"/>
            </g>
          </g>
        </g>
        <g id="Group_104157" data-name="Group 104157" transform="translate(-113.208 -550.622) rotate(-117.089)">
          <g id="Group_104134" data-name="Group 104134" transform="translate(23.129 17.73)">
            <g id="Group_104130" data-name="Group 104130" transform="translate(5.638 0.695)">
              <g id="Group_104129" data-name="Group 104129" transform="translate(0 0)">
                <path id="Path_75502" data-name="Path 75502" d="M10.518,3.17,2.537,0a16.639,16.639,0,0,1-.973,8.425Q-.1,13.069.007,13.625q.806,4.282,2.864,4.393,2.03.111,2.614-3.5A23.041,23.041,0,0,1,7.376,8.592,43.158,43.158,0,0,1,10.518,3.17Z" fill="#e2ad98"/>
              </g>
            </g>
            <g id="Group_104133" data-name="Group 104133" transform="translate(0 0)">
              <g id="Group_104132" data-name="Group 104132">
                <g id="Group_104131" data-name="Group 104131">
                  <path id="Path_75503" data-name="Path 75503" d="M11.206,0,6.451.111,0,14.042,8.175,18.88a5.171,5.171,0,0,1-1.057-2.03,4.7,4.7,0,0,1-.139-2.058Q8.036,9.482,8.759,6.7,10.066,1.585,11.206,0Z" fill="#c18770"/>
                </g>
              </g>
            </g>
          </g>
          <g id="Group_104154" data-name="Group 104154" transform="matrix(-0.452, 0.892, -0.892, -0.452, 53.049, 26.401)">
            <g id="Group_104137" data-name="Group 104137" transform="translate(0 0)">
              <g id="Group_104136" data-name="Group 104136" transform="translate(0 0)">
                <g id="Group_104135" data-name="Group 104135">
                  <path id="Path_75504" data-name="Path 75504" d="M30.816,1.333q-.025-.567-4.755-.94Q21.736.043,15.617.006,9.363-.042,5.062.272.221.609,0,1.272q1.081,6.342,2.777,19T5.554,39.263a59.516,59.516,0,0,0,9.817.7A35.283,35.283,0,0,0,25.3,39.07Z" fill="#c3dbf3"/>
                </g>
              </g>
            </g>
            <g id="Group_104139" data-name="Group 104139" transform="translate(2.9 10.518)">
              <g id="Group_104138" data-name="Group 104138" transform="translate(0 0)">
                <path id="Path_75505" data-name="Path 75505" d="M21.293,25.958,25.09,0A62.224,62.224,0,0,1,0,0Q.51,3.612,1.094,7.969,2.677,19.776,3.723,26.078a68.775,68.775,0,0,0,8.773.53A38.571,38.571,0,0,0,21.293,25.958Z" transform="translate(0 1.629)" fill="rgba(102,204,255,0.5)"/>
                <path id="Path_75506" data-name="Path 75506" d="M25.09,1.629q-1.359-.363-2.74-.651A48.827,48.827,0,0,0,3.7.821q-1.84.338-3.7.808A62.224,62.224,0,0,0,25.09,1.629Z" transform="translate(0)" fill="rgba(65,174,228,0.5)"/>
              </g>
            </g>
            <g id="Group_104142" data-name="Group 104142" transform="translate(5.701 39.962)">
              <g id="Group_104141" data-name="Group 104141" transform="translate(0 0)">
                <g id="Group_104140" data-name="Group 104140">
                  <path id="Path_75507" data-name="Path 75507" d="M13.663,3.677a8.08,8.08,0,0,0,3.453-.88q1.339-1.049,1.45-1.169A4.051,4.051,0,0,0,19.376,0Q16.612.88,9.682.928,7.237.916,5.124.772A23.571,23.571,0,0,1,0,0Q.762,2.556,3.993,3.436a19.251,19.251,0,0,0,5.689.422A25.977,25.977,0,0,0,13.663,3.677Z" fill="url(#linear-gradient)"/>
                </g>
              </g>
            </g>
            <g id="Group_104145" data-name="Group 104145" transform="translate(5.443 38.551)">
              <g id="Group_104144" data-name="Group 104144" transform="translate(0 0)">
                <g id="Group_104143" data-name="Group 104143">
                  <path id="Path_75508" data-name="Path 75508" d="M18.516,1.833a3.662,3.662,0,0,0,1.167-.41,4.537,4.537,0,0,0,.172-.856q.061-.53.074-.567a6.826,6.826,0,0,1-3.5,1.121,50.482,50.482,0,0,1-6.045.277q-4.313,0-6.365-.2A7.8,7.8,0,0,1,0,.012a11.086,11.086,0,0,0,.258,1.4q1.241.9,8.036,1.061A43.14,43.14,0,0,0,18.516,1.833Z" fill="#d2d4d5"/>
                </g>
              </g>
            </g>
            <g id="Group_104148" data-name="Group 104148" transform="translate(0 1.212)">
              <g id="Group_104147" data-name="Group 104147" transform="translate(0 0)">
                <g id="Group_104146" data-name="Group 104146" transform="translate(0 0)">
                  <path id="Path_75509" data-name="Path 75509" d="M30.816,0h-.27a.024.024,0,0,1-.012.012q-.248.4-4.1.748-4.5.4-11,.4t-11-.4Q.581.4.319.012L.344,0H.012L0,.06Q0,.313.577.494a21.142,21.142,0,0,0,4.03.579q4.558.362,10.8.362T26.22,1.073A21.077,21.077,0,0,0,30.238.494q.577-.181.577-.434Z" fill="#fff"/>
                </g>
              </g>
            </g>
            <g id="Group_104151" data-name="Group 104151" transform="translate(0.012 1.333)">
              <g id="Group_104150" data-name="Group 104150">
                <g id="Group_104149" data-name="Group 104149">
                  <path id="Path_75510" data-name="Path 75510" d="M1.057.482A2.344,2.344,0,0,1,0,0L5.517,37.737l.971.3Z" fill="url(#linear-gradient-2)"/>
                </g>
              </g>
            </g>
            <g id="Group_104153" data-name="Group 104153" transform="translate(2.801 3.322)">
              <g id="Group_104152" data-name="Group 104152" transform="translate(0 0)">
                <path id="Path_75511" data-name="Path 75511" d="M6.7.7Q1.3.682,0,0A291.263,291.263,0,0,0,4.6,34.59l3.625.157Q3.8,16.329,6.7.7Z" fill="rgba(255,255,255,0.3)"/>
              </g>
            </g>
          </g>
          <g id="Group_104156" data-name="Group 104156" transform="translate(4.61 0)">
            <g id="Group_104155" data-name="Group 104155" transform="translate(0 0)">
              <path id="Path_75512" data-name="Path 75512" d="M34.452,4.18q.028-.361.028-.723l-.056.723h.028M10.705,1.761q-1.39,3.587-2.892,8.9a26.1,26.1,0,0,1-3.559,8.258,5.052,5.052,0,0,0,2.7-1.39L10.705,1.761m5.839,3.2a4.88,4.88,0,0,1,.111-.751A133.129,133.129,0,0,1,8.536,24.339a5.823,5.823,0,0,0,2.28-1.307A82.41,82.41,0,0,0,16.378,5.626l.167-.667M2.975,13.689q.139-.445.306-.918L6.979,2.65q-1.863,3.17-2.7,4.894A46.947,46.947,0,0,0,2.53,12.522l-.222.334a1.239,1.239,0,0,1-1.474.195,5.182,5.182,0,0,1-.64-.361H.139L0,12.6a4.079,4.079,0,0,0,1.474,1.279,2.305,2.305,0,0,0,1.5-.195M27.5.009a2.6,2.6,0,0,0-2.475,1.168,33,33,0,0,0-2.836,5.367,21.2,21.2,0,0,0-1.613,5.589q-.334,2.7-.612,5.394-.278,2.781-.806,5.506a9.209,9.209,0,0,0,2.058-5.394,21.106,21.106,0,0,1,.806-5.144q.89-2.975,2.03-5.839,1.084-2.586,2.364-5.144L34.4,4.152q-.751-.834-1.474-1.613A8.143,8.143,0,0,0,27.5.009Z" transform="translate(0.306 17.498)" fill="#c18770"/>
              <path id="Path_75513" data-name="Path 75513" d="M34.785,19.037a36.677,36.677,0,0,0-.195-3.865,25.291,25.291,0,0,0-2.085-8.7A11.641,11.641,0,0,0,25.748.184q-1.223-.667-7.285,1.084Q14.709,2.3,11.206,7q-.139.167-.306.389Q7.563,12.28,4.393,17.479A31.686,31.686,0,0,0,0,29.1a3.471,3.471,0,0,0,.222.862q.028,0,.083.083a.5.5,0,0,0,.139.139H.5a5.182,5.182,0,0,0,.64.361,1.239,1.239,0,0,0,1.474-.195l.222-.334a46.947,46.947,0,0,1,1.752-4.977q.834-1.724,2.7-4.894L3.587,30.27q-.167.473-.306.918Q2.725,32.8,2.364,34q.7,2.53,2.2,2.419a26.1,26.1,0,0,0,3.559-8.258q1.5-5.311,2.892-8.9L7.257,35.025q-1.668,4.282-.779,6.034a1.817,1.817,0,0,0,.111.195,2.055,2.055,0,0,0,2.252.584,133.129,133.129,0,0,0,8.119-20.131,4.881,4.881,0,0,0-.111.751l-.167.667q-1.919,10.511-1.279,17.3,1.029,1.7,4.06.111.528-2.725.806-5.506.278-2.7.612-5.394a21.2,21.2,0,0,1,1.613-5.589,33,33,0,0,1,2.836-5.367,2.6,2.6,0,0,1,2.475-1.168,8.143,8.143,0,0,1,5.422,2.53q.723.779,1.474,1.613A20.271,20.271,0,0,0,34.785,19.037Z" fill="#e2ad98"/>
            </g>
          </g>
        </g>
        <g id="Group_104162" data-name="Group 104162" transform="translate(-143.602 -656.482) rotate(7.922)">
          <g id="Group_104159" data-name="Group 104159" transform="translate(0 0)">
            <g id="Group_104158" data-name="Group 104158" transform="translate(0 0)">
              <path id="Path_75514" data-name="Path 75514" d="M22.412,24.609A16.061,16.061,0,0,1,19.8,23.552a37.8,37.8,0,0,1-5.2-3.309,45.574,45.574,0,0,1-4.7-4.088A25.34,25.34,0,0,1,6.034,11.15q-1.7-2.836-2.975-5.478A49.015,49.015,0,0,1,.723,0L0,31.255l22.329.334Z" transform="translate(0 18.797)" fill="#e2ad98"/>
              <path id="Path_75515" data-name="Path 75515" d="M21.495,9.871h-.139a10.194,10.194,0,0,0-3.087-6.757A10.232,10.232,0,0,0,10.761,0,10.357,10.357,0,0,0,3.2,3.114,10.312,10.312,0,0,0,.111,10.65q0,.306.028.612L0,18.8A49.015,49.015,0,0,0,2.336,24.47q1.279,2.642,2.975,5.478a25.34,25.34,0,0,0,3.865,5.005,45.574,45.574,0,0,0,4.7,4.088,37.8,37.8,0,0,0,5.2,3.309,16.061,16.061,0,0,0,2.614,1.057Z" transform="translate(0.723 0)" fill="#c18770"/>
            </g>
          </g>
          <g id="Group_104161" data-name="Group 104161" transform="translate(6.924 53.528)">
            <g id="Group_104160" data-name="Group 104160" transform="translate(0 0)">
              <path id="Path_75516" data-name="Path 75516" d="M3.337,2.5v.834h.834m-.834,0v.834m3.337-.834L3.337,6.674,0,3.337,3.337,0Zm-4.171,0h.834" fill="none" stroke="rgba(0,0,0,0)" stroke-linecap="round" stroke-linejoin="round" stroke-width="0.075"/>
            </g>
          </g>
        </g>
        <g id="Group_104276" data-name="Group 104276" transform="translate(-151.196 -733.139) rotate(16.671)">
          <g id="Group_104163" data-name="Group 104163" transform="translate(31.549 69.462)">
            <path id="Path_75517" data-name="Path 75517" d="M21.287,10.643a10.206,10.206,0,0,1-3.126,7.518,10.206,10.206,0,0,1-7.518,3.126,10.273,10.273,0,0,1-7.538-3.126A10.24,10.24,0,0,1,0,10.643,10.307,10.307,0,0,1,3.105,3.105,10.307,10.307,0,0,1,10.643,0a10.24,10.24,0,0,1,7.518,3.105A10.273,10.273,0,0,1,21.287,10.643Z" transform="translate(0 0)" fill="none" stroke="red" stroke-linecap="round" stroke-linejoin="round" stroke-width="0.075"/>
          </g>
          <g id="Group_104177" data-name="Group 104177" transform="translate(18.992 18.297)">
            <g id="Group_104165" data-name="Group 104165" transform="translate(0 0)">
              <g id="Group_104164" data-name="Group 104164" transform="translate(0 0)">
                <path id="Path_75518" data-name="Path 75518" d="M55.641,9.538A31.4,31.4,0,0,0,32.589,0,31.405,31.405,0,0,0,9.538,9.538,31.405,31.405,0,0,0,0,32.589,31.358,31.358,0,0,0,4.977,50.024l.028.139Q16.715,66.545,33.368,68.71q19.69,1.935,30.726-13.347l.723-17.49-.167.7a33.027,33.027,0,0,0,.528-5.978A31.4,31.4,0,0,0,55.641,9.538Z" fill="#e2ad98"/>
              </g>
            </g>
            <g id="Group_104176" data-name="Group 104176" transform="translate(7.101 14.006)">
              <g id="Group_104167" data-name="Group 104167" transform="matrix(0.566, 0.824, -0.824, 0.566, 19.455, 0.243)">
                <g id="Group_104166" data-name="Group 104166" transform="translate(0 0)">
                  <path id="Path_75519" data-name="Path 75519" d="M3.559,1.251,0,0,.25,21.689,2.92,23.608Q10.646,11.752,3.559,1.251Z" fill="#c18770"/>
                </g>
              </g>
              <g id="Group_104169" data-name="Group 104169" transform="translate(17.785 1.315)">
                <g id="Group_104168" data-name="Group 104168" transform="translate(0 0)">
                  <path id="Path_75520" data-name="Path 75520" d="M9.677.417,1.919,7.035,0,11.734Q14.449,10.9,12.235,0Z" transform="translate(0 0)" fill="#c18770"/>
                </g>
              </g>
              <g id="Group_104171" data-name="Group 104171" transform="translate(28.046 1.176)">
                <g id="Group_104170" data-name="Group 104170" transform="translate(0 0)">
                  <path id="Path_75521" data-name="Path 75521" d="M10.705,14.432l.195-5.7L5.116,0,0,1.613Q.44,11.015,10.705,14.432Z" fill="#c18770"/>
                </g>
              </g>
              <g id="Group_104173" data-name="Group 104173" transform="translate(39.512 0) rotate(25.988)">
                <g id="Group_104172" data-name="Group 104172" transform="translate(0 0)">
                  <path id="Path_75522" data-name="Path 75522" d="M24.83,8.342,22.439,4.31,0,0V6.367Q9.82,10.231,24.83,8.342Z" transform="translate(0 0)" fill="#c18770"/>
                </g>
              </g>
              <g id="Group_104175" data-name="Group 104175" transform="translate(0.045 14.634)">
                <g id="Group_104174" data-name="Group 104174" transform="translate(0 0)">
                  <path id="Path_75523" data-name="Path 75523" d="M.779,0,0,14.988l4.7,5.089A100.254,100.254,0,0,0,5.867,0Z" transform="translate(0 0)" fill="#c18770"/>
                </g>
              </g>
            </g>
          </g>
          <g id="Group_104182" data-name="Group 104182" transform="translate(29.391 66.402)">
            <g id="Group_104179" data-name="Group 104179" transform="translate(0 0)">
              <g id="Group_104178" data-name="Group 104178" transform="translate(0 0)">
                <path id="Path_75524" data-name="Path 75524" d="M8.175,27.306Q17,38.586,25.665,41.1t12.012.028q7.089-11.674,13.542-21.467Q57.673,9.9,52.888,0L0,1.2Q1.22,19.877,8.175,27.306Z" fill="#e2ad98"/>
              </g>
            </g>
            <g id="Group_104181" data-name="Group 104181" transform="translate(13.472 33.27)">
              <g id="Group_104180" data-name="Group 104180" transform="translate(0 0)">
                <path id="Path_75525" data-name="Path 75525" d="M28.46.959q.083-.083-.028-.083h-.056L25.318,5.019,25.29,5.1l-.028.056-.083.111q-.556.751-.723.945l-.779.779-.139.111-.056.056-.056.028-.389.306-.556.306-.584.195a3.036,3.036,0,0,1-.64.111h-.083l-.056.028h-.556l-5.895-.556-.083-.028h-.111L11.415,6.8l-.028-.028h-.056L10.5,6.493a13.5,13.5,0,0,1-1.418-.5l-.7-.278-.167-.083L8.133,5.6,8.05,5.547,6.465,4.741q-1-.556-2.225-1.335L2.433,2.155.153.1.1.014Q.07-.014.014.014-.014.07.014.1L.07.181l1.5,1.585L4.018,3.74q1.307.918,2.2,1.446a13.881,13.881,0,0,0,1.251.723l.306.195.083.028,2.419,1.057.751.25.083.056h.056l.056.028,3.087.862h.056l.028.028h.028l.083.028,3.615.612q.556.056,1.613.167l1.613.056a4.559,4.559,0,0,0,1.641-.445l.7-.417.5-.445.083-.056.973-1.057a8.555,8.555,0,0,0,.7-1.14l.167-.278.111-.25Z" fill="#f0cbbc"/>
              </g>
            </g>
          </g>
          <g id="Group_104225" data-name="Group 104225" transform="translate(0 0)">
            <g id="Group_104184" data-name="Group 104184" transform="translate(0.027 0.231)">
              <g id="Group_104183" data-name="Group 104183" transform="translate(0 0)">
                <path id="Path_75526" data-name="Path 75526" d="M88.092,20.958q-9.7-9.426-17.379-10.316a19.472,19.472,0,0,0,.5-8.7Q70.907-.759,68.905.3,48.134,15.007,29.392,19.706a42.283,42.283,0,0,0-15.822,9.649q-.985.948-1.919,1.974Q10.985,26.6,7.87,24.878q-5.311-2.391-4,1.446,2.03,4.227,3.281,6.34a9.174,9.174,0,0,0-4.866.167q-4.115,1.14-.806,3.337A28.725,28.725,0,0,0,6.786,38.5q.032.153.056.306a107.254,107.254,0,0,0,9.009,26.75l14.9,1.891a56.523,56.523,0,0,0-.584-21.745,19.4,19.4,0,0,0,3.448-.667q7.257-1.724,11.123-11.623a19.716,19.716,0,0,1-.779,8.815q-1.474,4.616,2.391,2.2a28.214,28.214,0,0,0,8.676-9.093,56.216,56.216,0,0,0,5.422,9.538q5.228,5.617,5.005-.445l.25-8.954.167.222a21.109,21.109,0,0,0,3.42,3.726,34.579,34.579,0,0,0,4.338,3.087,27.079,27.079,0,0,0,4.171,2.03q2.753,1,4.866,1.613a23.791,23.791,0,0,0,3.42.779q1.307.139,1.5-1.307a11.867,11.867,0,0,0-.111-3.392q-.389-2.447-.918-4.866a32.9,32.9,0,0,0-1.446-4.755l-.167-.445q3.587,3.921,6.451,3.893Q95.21,29.021,88.092,20.958Z" transform="translate(0)" fill="#540e00"/>
              </g>
            </g>
            <g id="Group_104186" data-name="Group 104186" transform="translate(65.887 23.872)">
              <g id="Group_104185" data-name="Group 104185" transform="translate(0 0)">
                <path id="Path_75527" data-name="Path 75527" d="M.014.014Q-.014.07.014.1l5.45,4.671q.361.306,1.919,1.807L11.3,10.664l5.144,6.451,2.864,4.616.334.667.056.056.361.751a.86.86,0,0,0,.5.417.948.948,0,0,0,.64-.056.758.758,0,0,0,.389-.5.847.847,0,0,0-.028-.64l-.028-.028-.445-.779-2.53-3.837-3.643-4.56a4.676,4.676,0,0,0-.473-.528l-2.475-2.642q-1.39-1.39-2.085-2.03L5.8,4.407.1.014Q.07-.014.014.014Z" fill="#2b0700"/>
              </g>
            </g>
            <g id="Group_104188" data-name="Group 104188" transform="translate(34.31 27.367)">
              <g id="Group_104187" data-name="Group 104187" transform="translate(0 0)">
                <path id="Path_75528" data-name="Path 75528" d="M7.928.022Q7.872-.033,7.872.05L6.12,6.473,3.645,11.812l-.222.334-.083.167L1.866,14.454.225,16.345A.71.71,0,0,0,0,16.929a.744.744,0,0,0,.25.584.832.832,0,0,0,.612.25.913.913,0,0,0,.584-.278l.028-.056.278-.361.111-.111.389-.5,2.058-3.365L4.4,12.9l.111-.167L6.649,7.085,7.955.273V.078Q8.011.022,7.928.022Z" fill="#2b0700"/>
              </g>
            </g>
            <g id="Group_104190" data-name="Group 104190" transform="translate(25.254 36.349)">
              <g id="Group_104189" data-name="Group 104189" transform="translate(0 0)">
                <path id="Path_75529" data-name="Path 75529" d="M9.921.022Q9.865-.033,9.865.05L7.14,4.722,5.944,6.39l-2.7,2.836-.862.667-.111.056-.083.083-.473.306-.083.028-.25.167-.083.028-.195.111-.083.028-.306.167-.083.028-.139.083H.467a.758.758,0,0,0-.417.473.847.847,0,0,0,.028.64.757.757,0,0,0,.473.417.847.847,0,0,0,.64-.028l.222-.111.083-.056.028-.028.056-.028.25-.167.083-.028.584-.417.083-.083.083-.056.417-.334.083-.083.111-.083a7.611,7.611,0,0,0,.862-.834l.89-.973,1.446-2,.083-.167.111-.139L8.03,4.471,9.949.078Q10,.022,9.921.022Z" fill="#2b0700"/>
              </g>
            </g>
            <g id="Group_104192" data-name="Group 104192" transform="translate(54.908 35.416)">
              <g id="Group_104191" data-name="Group 104191" transform="translate(0 0)">
                <path id="Path_75530" data-name="Path 75530" d="M.148.037A.091.091,0,0,0,.037.009Q-.019.093.009.12L1.594,3.763,4.82,9.408l1.057,1.168.25.222.139.083.25.222.723.5.139.056.111.083.473.222.111.028.306.139.195.056h.083l.528.111h.306a.074.074,0,0,0,.083-.083l-.028-.056H9.519l-.111-.139-.5-.445L8.8,11.438l-.139-.111-.083-.083-.056-.083-.389-.417-2.642-3.2A11.658,11.658,0,0,1,4.57,6.46Z" fill="#2b0700"/>
              </g>
            </g>
            <g id="Group_104194" data-name="Group 104194" transform="translate(29.892 33.392)">
              <g id="Group_104193" data-name="Group 104193" transform="translate(0 0)">
                <path id="Path_75531" data-name="Path 75531" d="M14.515.726l-.083.167-.167.445a2.957,2.957,0,0,0-.222.5l-.083.111-.195.445-.083.139-.056.139-.25.473-.111.167-.167.334-.445.667a12.06,12.06,0,0,1-.973,1.363L10.455,7.011q-.779.723-1.39,1.2a14.31,14.31,0,0,1-1.557.973L6.7,9.6l-.028.028-.056.028-.111.028-6.229,2.7-.222.111Q0,12.489,0,12.6l.083.028.361.056H.612l.167.028H2.058l2.113-.306.806-.222a9.406,9.406,0,0,0,1.7-.64l1.279-.751L9.9,9.235a15.173,15.173,0,0,0,1.418-1.446,15.6,15.6,0,0,0,1.14-1.529l.584-.973.056-.111.056-.083.361-.779.111-.167.222-.556.083-.167.056-.195.361-.945.028-.167.056-.139.334-1.2.028-.167.083-.25L14.9.115q.083-.083-.056-.083-.083-.083-.083.056Z" transform="translate(0 0)" fill="#2b0700"/>
              </g>
            </g>
            <g id="Group_104196" data-name="Group 104196" transform="translate(84.162 30.949)">
              <g id="Group_104195" data-name="Group 104195" transform="translate(0 0)">
                <path id="Path_75532" data-name="Path 75532" d="M7.377,5.228V5.172l-.25-.361-.083-.083-.028-.056V4.644H6.987V4.616L6.4,4,5.069,3.059,3.762,2.5,1.815,1.39.842.7.314.195.286.139.23.111.175.028a.07.07,0,0,0-.111,0q-.111,0-.028.083L.064.195.091.25.119.334.425.89,1.2,1.919l2.5,2.252a4.953,4.953,0,0,0,.7.5l.167.083.083.056.083.028.361.167.751.222h.083l.7.111.667-.028Q7.432,5.311,7.377,5.228Z" fill="#2b0700"/>
              </g>
            </g>
            <g id="Group_104198" data-name="Group 104198" transform="translate(43.336 33.067)">
              <g id="Group_104197" data-name="Group 104197" transform="translate(0 0)">
                <path id="Path_75533" data-name="Path 75533" d="M2.183,1.246l-.028-.083L1.71.356,1.682.273,1.543.05q0-.083-.111-.028L1.4.078,1.376.106,1.293.412,1.182,2.219,1.321,3.47v.056l.028.028V3.72l.028.028v.195l.028.111v.167l.028.083v.111l.028.5.028.139v.139a5.388,5.388,0,0,1-.111,1.112q-.056.306-.278,1.112l-.139.389-.028.139-.222.612-.028.028v.028L.514,9,.07,10.533l-.056.473a1.569,1.569,0,0,0,0,.417l.056.389.167.334.222.167.111.056H.653V12.4H.82Q.9,12.452.9,12.34q0-.083-.056-.083L.82,12.229H.765L.737,12.2H.709v-.028H.653L.6,12.118l-.111-.167a.494.494,0,0,1-.056-.222.7.7,0,0,1,0-.278L.653,10.7l.89-1.668V9h.028V8.976l.056-.056.556-1.084q.111-.222.5-1.2L2.878,6l.028-.139.056-.167.056-.334.056-.167.056-.334.028-.751-.028-.083V3.86l-.083-.473-.083-.25V3.081L2.489,1.913,2.461,1.8l-.056-.083-.167-.389Z" fill="#2b0700"/>
              </g>
            </g>
            <g id="Group_104200" data-name="Group 104200" transform="translate(12.68 45.324)">
              <g id="Group_104199" data-name="Group 104199" transform="translate(0 0)">
                <path id="Path_75534" data-name="Path 75534" d="M.222.028.167,0,.111.111.083.195V.334L.056.473V.64L.028.834V.945L0,1.029V1.78l.028.083.028.473.028.139v.167L.64,4.866l.195.445.056.083.028.111.111.167.167.334.028.028.056.083.056.056L1.39,6.2l.028-.056V5.867l-.056-.5V5.255l-.028-.111-.083-.723L1.2,4.171l-.028-.278L.751,1.807.723,1.752V1.7L.361.445.334.306.306.25V.195L.25.111Z" fill="#2b0700"/>
              </g>
            </g>
            <g id="Group_104202" data-name="Group 104202" transform="translate(17.018 46.075)">
              <g id="Group_104201" data-name="Group 104201" transform="translate(0 0)">
                <path id="Path_75535" data-name="Path 75535" d="M3.587.417l-.083.64.139,3.114.445,2.642L2.947,5.561l-.083-.056-.139-.167-.334-.306L2.336,4.95l-.083-.056L.862,3.643.779,3.587l-.7-.556q-.018-.018-.056,0H0v.083l.111.25.028.111.056.083L.751,5.2l.083.195L1.613,8.62v.056l.028.056.028.139.028.278.056.25.222,1.529.056.25.361,2.669v.111l.028.083.056.306.056.028.028-.056.056-.278v-.111l.028-.111.111-1.752L2.447,8.592V8.509l-.028-.056-.5-2L1.863,6.34l-.25-.723L1.2,4.755l.5.64.083.083.056.083.445.5.056.083L4.532,8.4l.612-.334-.167-.5L4.95,7.452l-.056-.111L3.976,3.615l-.25-2.03V.056Q3.782,0,3.7,0L3.643.028l-.056.25Z" transform="translate(0 0)" fill="#2b0700"/>
              </g>
            </g>
            <g id="Group_104204" data-name="Group 104204" transform="translate(65.336 35.055)">
              <g id="Group_104203" data-name="Group 104203" transform="translate(0 0)">
                <path id="Path_75536" data-name="Path 75536" d="M.12.371.2.51.232.593l.862,1.446.445.612.139.139.111.167.083.083.056.083.306.334q.862.918,1.39,1.39l1.7,1.39A21.045,21.045,0,0,0,7.267,7.545l4.227,2.28.139.083,3.031,1.251,1.279.389,5.005.918h.167l.167.028h.306a.074.074,0,0,0,.083-.083l-.056-.056-3.226-1.5q-.139-.056-.195-.083L18,10.659l-1.557-.612-.222-.111L12.383,8.49l-.139-.028L9.936,7.545l-.25-.139-2.113-1L4.125,4.236a16.816,16.816,0,0,1-1.474-1.2l-.389-.361L1.094,1.4.148.037A.091.091,0,0,0,.037.009Q-.019.093.009.12Z" fill="#300"/>
              </g>
            </g>
            <g id="Group_104206" data-name="Group 104206" transform="translate(23.474 46.937)">
              <g id="Group_104205" data-name="Group 104205" transform="translate(0 0)">
                <path id="Path_75537" data-name="Path 75537" d="M4.749.139Q4.8.083,4.722.056L4.638.028,3.8,0,3.581.028,3.5.056H3.387L3.164.111H3.053L2.525.278,2.414.334H2.358L2.3.361,2.08.445,1.746.612,1.663.667,1.44.779,1.162.973,1.107,1l-.278.25-.083.056-.139.139L.523,1.5l-.361.445-.028.028L.106,2.03.05,2.085l-.028.083q-.056.056.028.083l.167.056H.273l.056.028.445.056H.968l.222-.028h.195l.222-.028.056-.028h.056L2.3,2.169l.167-.083h.056L3.3,1.7l.083-.083L3.581,1.5l.111-.083L3.72,1.39l.056-.028L3.943,1.2l.083-.056L4.249.918,4.3.834,4.36.779,4.638.389,4.722.222Z" fill="#2b0700"/>
              </g>
            </g>
            <g id="Group_104208" data-name="Group 104208" transform="translate(0 34.48)">
              <g id="Group_104207" data-name="Group 104207" transform="translate(0 0)">
                <path id="Path_75538" data-name="Path 75538" d="M1.14.056.667,0,.056.028,0,.111V.167L.222.612.278.667V.7l.389.473.556.528.139.111.139.083.056.056.222.139L6.757,4.338q.056.056.111-.056L6.84,4.2l-.25-.25-.111-.139L6.312,3.67l-.361-.361L3.226,1.029A3.643,3.643,0,0,0,2.642.584L2.419.445l-1-.334H1.363L1.279.083Z" fill="#2b0700"/>
              </g>
            </g>
            <g id="Group_104210" data-name="Group 104210" transform="translate(3.615 24.892)">
              <g id="Group_104209" data-name="Group 104209" transform="translate(0 0)">
                <path id="Path_75539" data-name="Path 75539" d="M1.2.94.723.439H.7V.412H.667L.64.356.528.3.195.022Q.139-.033.056.05L.028.523,0,.634.028,1.3l.028.139v.167l.167.667.028.195.083.25.056.111L.445,3,3.17,7.558l.111.222.334.5q.083.083.111.028A.091.091,0,0,0,3.754,8.2L2.058,2.3l-.083-.167-.056-.083-.028-.083L1.78,1.8,1.7,1.635l-.389-.556-.056-.056Z" transform="translate(0 0)" fill="#2b0700"/>
              </g>
            </g>
            <g id="Group_104212" data-name="Group 104212" transform="translate(6.813 38.79)">
              <g id="Group_104211" data-name="Group 104211" transform="translate(0 0)">
                <path id="Path_75540" data-name="Path 75540" d="M.028,0,0,.083.306,2.725l.056.195.751,3.7q.195.862.64,2.308L4.338,16.35q.334,1.029.89,2.419l3.2,7.4.5.806q.083.083.111.028.083-.056.028-.111l-.139-.278-.64-1.585L8.2,24.859,8.064,24.5,3.754,9.649l-2.169-6.4L.306.334.139.056Q.139,0,.028,0Z" fill="#2b0700"/>
              </g>
            </g>
            <g id="Group_104214" data-name="Group 104214" transform="translate(68.265 10.35)">
              <g id="Group_104213" data-name="Group 104213" transform="translate(0 0)">
                <path id="Path_75541" data-name="Path 75541" d="M22.134,12.646l-.278-.361-.056-.111-.083-.083-.556-.751-.278-.306-.028-.056-1.7-1.641q-.445-.417-1.39-1.2L14.821,5.917a.548.548,0,0,1-.195-.139L11.79,4q-1.668-.973-2.947-1.557L7.091,1.663,6.9,1.607l-.028-.028H6.813l-.083-.056L3.643.578Q2.725.384,1.724.217L.056.022Q0-.033,0,.05L.028.106,4.5,1.691l1.474.7.167.056.167.083L6.4,2.58h.028l.028.028,1.807.973q1,.556,2.753,1.7l7.4,5.589,1.529,1.5.528.64.083.083.278.417.139.167,1.279,2.28.056.195.389.89.111.361.056.083v.028l.028.056.139.445.028.028V18.1l.5,2.03v.139l.111.779v.167l.028.278.028.083v.779a8.954,8.954,0,0,1-.195,1.863L23.3,25.3l-.056.111-.111.417q-.056.056.028.056.056.056.056-.028l.222-.389.028-.028.417-.918.25-.834.056-.111.278-1.446.028-.473.028-.083v-.389l.028-.167L24.5,19.459,24.3,18.18l-.056-.195-.028-.195v-.056l-.028-.056-.028-.083-.083-.389-.028-.028v-.056l-.5-1.585-.056-.111-.056-.195Z" fill="#812511"/>
              </g>
            </g>
            <g id="Group_104216" data-name="Group 104216" transform="translate(67.903 15.174)">
              <g id="Group_104215" data-name="Group 104215" transform="translate(0 0)">
                <path id="Path_75542" data-name="Path 75542" d="M4.088,2.622.083.036Q0-.048,0,.064V.119l6.562,6.09q1.5,1.5,2.252,2.308l3.782,4.5.64.89q.667.918,1,1.474L15.822,18l.083.195.056.083,1.724,3.837q.083.25.25.723l.417,1.251.028.167.278,1,.028.167.056.167.723,5.255.028.667a.049.049,0,0,0,.056.056l.028-.028.083-.445a11.782,11.782,0,0,0,.139-1.223l.056-.417.028-2.391-.361-3.087-.056-.167-.028-.195-.723-2.725-1.307-3.226-.056-.083-.028-.111-.751-1.418L13.208,11.1l-1.2-1.363-.139-.195-1.7-1.752-.139-.167-.167-.139Q8.7,6.32,7.424,5.263Z" fill="#812511"/>
              </g>
            </g>
            <g id="Group_104218" data-name="Group 104218" transform="translate(55.835 23.697)">
              <g id="Group_104217" data-name="Group 104217" transform="translate(0 0)">
                <path id="Path_75543" data-name="Path 75543" d="M0,.05.028.106.862.717.973.773,1.2.968l.139.083.25.222.139.083.139.139.445.361.222.222.083.056L4.2,3.86l1,1.418.195.361.083.111.028.056.056.056.222.389v.028l.028.028.751,1.5.083.139.973,2.419.028.056,1,3.726.028.056v.083l.083.445v.056h.028v.083l.056.278.334,3v.25l.028.139.028,1.307.028.222L9.2,23.6q-.056.056.028.056l.056-.028.528-1.724.056-.361.056-.167.389-2.7v-.139l.028-.111.028-1.084q.028-1-.056-2.364l-.028-.306v-.139l-.028-.028V14.37l-.056-.306V13.9l-.556-2.7L8.509,8.114,7.091,5.528l-.056-.056-.25-.389-.028-.056L6.7,4.972l-.083-.139L6.062,4.11,4.31,2.33l-.222-.167L4,2.08l-.111-.056-.751-.556-.111-.056-.612-.389Q2.141.856,1.168.412L1.057.356.945.328.723.245.612.189.056.022Q0-.033,0,.05Z" transform="translate(0)" fill="#812511"/>
              </g>
            </g>
            <g id="Group_104220" data-name="Group 104220" transform="translate(44.88 27.389)">
              <g id="Group_104219" data-name="Group 104219" transform="translate(0 0)">
                <path id="Path_75544" data-name="Path 75544" d="M9.927.056l-.056.25L9.732,1.5,9.7,1.641V1.78l-.64,4L8.4,8.314l-.167.445-.056.25-.056.111-.028.111-.111.222L7.9,9.7l-.834,1.78-.556.918-.056.111-1,1.307q-.5.584-1.223,1.279l-.64.556-.167.111-.139.139-.334.222-.056.056-.667.473-2.2,1.279L0,17.991q0,.083.056.028l.556-.083H.7l.834-.195.139-.056.139-.028.945-.334.528-.25.111-.028.083-.056a13.678,13.678,0,0,0,1.529-.862,14.333,14.333,0,0,0,1.529-1.279l.361-.389.111-.083.918-1.168a10.875,10.875,0,0,0,1.084-1.891l.667-1.668L9.7,9.51l.361-1.279.361-2.475.028-.7.028-.222L10.316,1.78V1.641L10.01.028,9.955,0Z" transform="translate(0 0)" fill="#812511"/>
              </g>
            </g>
            <g id="Group_104222" data-name="Group 104222" transform="translate(68.682 0)">
              <g id="Group_104221" data-name="Group 104221" transform="translate(0 0)">
                <path id="Path_75545" data-name="Path 75545" d="M1.835,0H1.474L1.418.028H1.307L1.2.056.667.25.222.528.167.584.028.7a.07.07,0,0,0,0,.111L.083.834H.111L.25.862H.417L.528.89H.667L.779.918H.862L.918.945,1.223,1l.056.028.083.028.028.028h.028l.083.028.056.028.083.083h.028l.056.056L2,1.724l.111.334v.111L2.447,4v.139l.028.139-.584,6.4v.139q-.083.083.056.083.083,0,.083-.056l.222-.5L3.587,5.867l.389-3.087L3.782,1.668,3.7,1.5l-.056-.167L3.559,1.2l-.028-.083L3.365.89A3.3,3.3,0,0,0,2.892.361Q2.836.334,2.28.083Z" transform="translate(0)" fill="#812511"/>
              </g>
            </g>
            <g id="Group_104224" data-name="Group 104224" transform="translate(4.477 24.358)">
              <g id="Group_104223" data-name="Group 104223" transform="translate(0 0)">
                <path id="Path_75546" data-name="Path 75546" d="M.334,0,.056.056,0,.111.028.139l.25.167L.361.334l.834.5.028.028.111.056.167.111.167.083.306.222.056.028.028.028.083.056,1.168.945.083.083.083.056.723.751.056.083.167.167.278.361.028.056.028.028.139.195.083.083.111.195.139.167.584.918.083.167.306.473.083.167.111.139.612,1.029.056.028.028-.056.028-.139V7.2l.028-.111L7.118,6.062,6.729,4.393l-.056-.139-.028-.111L6.034,2.975a9.262,9.262,0,0,0-.667-.89l-.389-.417L3.865.834,3.643.723,3.531.64,3.281.528,3.17.5,2.892.361H2.836L2.725.306,2.614.278,2.558.25H2.5L2.28.167,2.058.139,1.863.083,1.474.028Z" fill="#812511"/>
              </g>
            </g>
          </g>
          <g id="Group_104232" data-name="Group 104232" transform="translate(11.492 55.518)">
            <g id="Group_104227" data-name="Group 104227" transform="translate(0 4.495) rotate(-15.965)">
              <g id="Group_104226" data-name="Group 104226" transform="translate(0 0)">
                <path id="Path_75547" data-name="Path 75547" d="M13.426,3.484A7.3,7.3,0,0,0,8.254.064Q4.988-.454,2.359,3.206A14.274,14.274,0,0,0,.024,12.354a17.956,17.956,0,0,0,2.864,9.287,17.663,17.663,0,0,0,5.756,5.617,39.423,39.423,0,0,0,5.033,2.03q.278-1.426,1.724-5.839a24.646,24.646,0,0,0,.667-10.705Q15.311,6.411,13.426,3.484Z" fill="#e2ad98"/>
              </g>
            </g>
            <g id="Group_104229" data-name="Group 104229" transform="translate(6.054 6.796)">
              <g id="Group_104228" data-name="Group 104228" transform="translate(0 0)">
                <path id="Path_75548" data-name="Path 75548" d="M.083,1.251.417,1.14l.111-.056.139-.028L.973.945h.083L1.363.862,1.557.834,1.668.806H1.78L2.225.751l.5.028.5.111a4.6,4.6,0,0,1,1,.417l.5.361.222.195.056.028.389.389L6.423,3.559,7.675,5.617l.056.139L9.065,8.37l.056.083.195.417.083.111.083.195.083.139q0,.083.056.028.083,0,.028-.056l-.083-.64L9.232,7.285,8.2,4.449,6.924,2.336l-1-1.084a.3.3,0,0,1-.139-.111L5.339.806,4.56.361,4.393.306,4.227.222,4.06.167,3.392.028H3.226L3.059,0H2.753l-1,.167L1.585.25H1.529L1.418.306,1.2.389.306.918,0,1.168v.083Z" fill="#c18770"/>
              </g>
            </g>
            <g id="Group_104231" data-name="Group 104231" transform="translate(3.932 2.042)">
              <g id="Group_104230" data-name="Group 104230" transform="translate(0 0)">
                <path id="Path_75549" data-name="Path 75549" d="M4.624,0,3.539.195,3.011.361,2.928.417,2.761.473,2.677.528,2.511.584,2.427.64,2.344.667,1.871.973,1.815,1l-.083.083-.056.028-.028.028-.5.389-.584.7-.083.139L.369,2.5l-.334.612Q-.048,3.2.064,3.2H.119l.64-.584L.9,2.53l.111-.111.139-.083.139-.111.806-.473h.028L2.2,1.7h.028l.028-.028.528-.195.056-.028.167-.056.056-.028H3.15l.167-.056h.056l.083-.028h.083l.083-.028h.056l.083-.028L3.929,1.2h.139L4.4,1.14h.306q.3,0,.834.056l1.307.25.306.083H7.21l.028.028h.028l.806.306.806.445a1.378,1.378,0,0,1,.361.25l.111.056.083.056.083.083.111.056.083.083.083.056.528.445,1,1.057.056.111.083.083,1.39,2.03V6.7l.028.028.028.056.195.278,1.863,3.281q0,.083.056.028.083,0,.028-.056L13.3,6.479l-.028-.028V6.423l-1.2-2.058-.139-.195-.056-.111L10.519,2.475l-.278-.25L10.185,2.2l-.028-.028-.111-.083L9.963,2l-.111-.083-.083-.083-.389-.278a6.02,6.02,0,0,0-.862-.528L7.627.584,7.6.556H7.571L7.4.473,6.681.25a6.938,6.938,0,0,0-1-.195,6.614,6.614,0,0,0-1-.056Z" fill="#f0cbbc"/>
              </g>
            </g>
          </g>
          <g id="Group_104239" data-name="Group 104239" transform="translate(58.672 54.182)">
            <g id="Group_104234" data-name="Group 104234" transform="translate(0 0)">
              <g id="Group_104233" data-name="Group 104233" transform="translate(0 0)">
                <path id="Path_75550" data-name="Path 75550" d="M2.085,24.01q8.095,5.1,10.344-2.92l.111-1.668L9.287,15.946A39.782,39.782,0,0,1,8.314,1.1Q5.719-1.68,4.393,2.571L0,21.841A3.932,3.932,0,0,0,2.085,24.01Z" fill="#e2ad98"/>
              </g>
            </g>
            <g id="Group_104236" data-name="Group 104236" transform="translate(6.911 1.153)">
              <g id="Group_104235" data-name="Group 104235" transform="translate(0 0)">
                <path id="Path_75551" data-name="Path 75551" d="M.013,9.732a34.409,34.409,0,0,0,.473,4.032q.37,1.916.417,2,1.7,1.418,2.864,2.391a3.053,3.053,0,0,1,1.112,2.781,2.832,2.832,0,0,1-1.112,2A3.35,3.35,0,0,0,6.075,20.1,2.886,2.886,0,0,0,4.49,17.129Q2.709,16.1,1.737,15.46l.306-.584-.167-.25-.667.028.723-.056L.819,8.815.9,4.616,1.4,0A23.644,23.644,0,0,0,.346,4.449,30.826,30.826,0,0,0,.013,9.732Z" fill="#f0cbbc"/>
              </g>
            </g>
            <g id="Group_104238" data-name="Group 104238" transform="translate(0.028 1.153)">
              <g id="Group_104237" data-name="Group 104237" transform="translate(0 0)">
                <path id="Path_75552" data-name="Path 75552" d="M8.342,0,8.286.028,7.758,4.783,7.73,6.7,7.7,6.813l.028.111.083,2.892.556,4.5.195.918a.508.508,0,0,0,.222.361l.667.417,1.474,1.223.7.862.083.167.111.139.139.306.056.083.195.584.028.167v.083l.028.083.028.278q.01-.038.028-.083l-.028.167v-.083q-.28.728-.306.806a3.509,3.509,0,0,1-.417.834,4.689,4.689,0,0,1-.528.751,7.832,7.832,0,0,1-.667.64,4.585,4.585,0,0,1-.779.5,5.15,5.15,0,0,1-.862.361,6.042,6.042,0,0,1-.918.222l-.473.083H7.23l-.139.028H6.979l-.111.028H6.145l-.25-.028a3.537,3.537,0,0,1-.945-.139A5.939,5.939,0,0,1,4,23.83l-.89-.389L1.5,22.3l-.723-.7a4.665,4.665,0,0,1-.7-.751q-.028-.028-.083,0v.083l.584.834a5.791,5.791,0,0,0,.667.779A8.918,8.918,0,0,0,2,23.274l.834.612.945.528.973.361L5.812,25l.528.056H7.424L7.953,25a10.022,10.022,0,0,0,1.057-.222,4.15,4.15,0,0,0,1.029-.389,4.422,4.422,0,0,0,.945-.556,3.974,3.974,0,0,0,.806-.751l.7-.89a7.305,7.305,0,0,0,.5-.945,8.833,8.833,0,0,0,.361-1.029l.028-.167-.028-.584-.195-.779-.139-.306-.028-.111-.445-.779-.834-1.029-1.029-.918-.278-.167-.167-.139-.7-.445-1-6.952V7.73l-.028-.111-.028-.7-.028-.139-.028-.806L8.4,5.839,8.37,4.31l-.028-.222L8.37.056Q8.425,0,8.342,0Z" fill="#a97059"/>
              </g>
            </g>
          </g>
          <g id="Group_104262" data-name="Group 104262" transform="translate(40.213 55.613)">
            <g id="Group_104244" data-name="Group 104244" transform="translate(28.803 4.004)">
              <g id="Group_104241" data-name="Group 104241" transform="translate(0 0)">
                <g id="Group_104240" data-name="Group 104240">
                  <path id="Path_75553" data-name="Path 75553" d="M6.775,4.422a4.993,4.993,0,0,0-1-3.137A2.925,2.925,0,0,0,3.388,0a2.969,2.969,0,0,0-2.4,1.285A5.05,5.05,0,0,0,0,4.422,4.979,4.979,0,0,0,.985,7.543a2.958,2.958,0,0,0,2.4,1.3,2.914,2.914,0,0,0,2.386-1.3A4.923,4.923,0,0,0,6.775,4.422Z" fill="#231915"/>
                </g>
              </g>
              <g id="Group_104243" data-name="Group 104243" transform="translate(3.737 2.102)">
                <g id="Group_104242" data-name="Group 104242" transform="translate(0 0)">
                  <path id="Path_75554" data-name="Path 75554" d="M1.637,1.036A1.257,1.257,0,0,0,1.37.285.669.669,0,0,0,.785,0,.714.714,0,0,0,.218.318,1.289,1.289,0,0,0,0,1.1a1.136,1.136,0,0,0,.267.734.7.7,0,0,0,.6.3A.661.661,0,0,0,1.42,1.8,1.181,1.181,0,0,0,1.637,1.036Z" fill="#fff"/>
                </g>
              </g>
            </g>
            <g id="Group_104246" data-name="Group 104246" transform="translate(27.49 1.649)">
              <g id="Group_104245" data-name="Group 104245" transform="translate(0 0)">
                <path id="Path_75555" data-name="Path 75555" d="M12.921,6.8a5.843,5.843,0,0,0-1.211-2.49A17.142,17.142,0,0,0,4.408,0,33.883,33.883,0,0,0,0,7,9.509,9.509,0,0,0,5.451,9.085Q8.848,9.426,12.921,6.8Z" fill="#e2ad98"/>
              </g>
            </g>
            <g id="Group_104248" data-name="Group 104248" transform="translate(28.937 9.388)">
              <g id="Group_104247" data-name="Group 104247" transform="translate(0 0)">
                <path id="Path_75556" data-name="Path 75556" d="M0,.606.4,4.442a10.672,10.672,0,0,0,9.388-.135L10.7,0Z" transform="translate(0)" fill="#e2ad98"/>
              </g>
            </g>
            <g id="Group_104250" data-name="Group 104250" transform="translate(27.524 8.378)">
              <g id="Group_104249" data-name="Group 104249" transform="translate(0 0)">
                <path id="Path_75557" data-name="Path 75557" d="M9.287,1.716l-.1.034-2.389.4H5.485l-1.11-.135-.168-.034-.1-.034H4.038l-.2-.067-.168-.034-.1-.034H3.5L2.254,1.346,1.245.774,1.211.74.538.4.37.37.1.236Q0,.135,0,.269V.336L.336.673l.1.135.437.4.135.168.942.841.2.1.168.135.2.1.067.067.1.034.4.2.1.034.1.067.168.067,1.043.3.437.067.1.034h.1l.236.034h.1l.1.034L7.1,3.466,7.5,3.4h.135l.1-.034L8.58,3.2l.808-.269.2-.1.1-.034.471-.236.034-.034h.034V2.49h.034l.1-.034.1-.1h.067l1.481-1.178L12.584.37l.034-.1.034-.034V.168l.034-.1Q12.753,0,12.652,0h-.067V.034L12.45.168l-.1.067-.067.034L12.147.4l-1.178.673-.875.37h-.067l-.034.034-.2.067-.034.034H9.724l-.168.067-.2.034Z" fill="#231915"/>
              </g>
            </g>
            <g id="Group_104255" data-name="Group 104255" transform="translate(2.725 4.004)">
              <g id="Group_104252" data-name="Group 104252" transform="translate(0 0)">
                <g id="Group_104251" data-name="Group 104251">
                  <path id="Path_75558" data-name="Path 75558" d="M6.775,4.422a4.993,4.993,0,0,0-1-3.137A2.925,2.925,0,0,0,3.388,0a2.969,2.969,0,0,0-2.4,1.285A5.05,5.05,0,0,0,0,4.422,4.979,4.979,0,0,0,.985,7.543a2.958,2.958,0,0,0,2.4,1.3,2.914,2.914,0,0,0,2.386-1.3A4.923,4.923,0,0,0,6.775,4.422Z" fill="#231915"/>
                </g>
              </g>
              <g id="Group_104254" data-name="Group 104254" transform="translate(3.737 2.102)">
                <g id="Group_104253" data-name="Group 104253" transform="translate(0 0)">
                  <path id="Path_75559" data-name="Path 75559" d="M1.637,1.036A1.257,1.257,0,0,0,1.37.285.669.669,0,0,0,.785,0,.714.714,0,0,0,.218.318,1.289,1.289,0,0,0,0,1.1a1.136,1.136,0,0,0,.267.734.7.7,0,0,0,.6.3A.661.661,0,0,0,1.42,1.8,1.181,1.181,0,0,0,1.637,1.036Z" fill="#fff"/>
                </g>
              </g>
            </g>
            <g id="Group_104257" data-name="Group 104257" transform="translate(0 0)">
              <g id="Group_104256" data-name="Group 104256" transform="translate(0 0)">
                <path id="Path_75560" data-name="Path 75560" d="M7.975,0A17.819,17.819,0,0,0,6.057,1.11,17.964,17.964,0,0,0,0,7.705q.326.276,2.625,1.682a9.517,9.517,0,0,0,6.225.976,19.66,19.66,0,0,0,7.638-2.49,4.808,4.808,0,0,0-1.615-3.129A73.594,73.594,0,0,0,7.975,0Z" fill="#e2ad98"/>
              </g>
            </g>
            <g id="Group_104259" data-name="Group 104259" transform="translate(0.908 8.782)">
              <g id="Group_104258" data-name="Group 104258" transform="translate(0 0)">
                <path id="Path_75561" data-name="Path 75561" d="M0,.135,1.11,5.148a20,20,0,0,0,11.878-.135L14.3,0Z" transform="translate(0 0)" fill="#e2ad98"/>
              </g>
            </g>
            <g id="Group_104261" data-name="Group 104261" transform="translate(0.101 7.773)">
              <g id="Group_104260" data-name="Group 104260" transform="translate(0 0)">
                <path id="Path_75562" data-name="Path 75562" d="M16.151,0h-.1l-3.7,1.682-.1.034h-.034l-.034.034h-.034l-.336.135h-.067l-.067.034-.2.067-1.918.3H9.32l-.74.067L6.023,2.322l-.135-.034H5.653l-.707-.1L4.711,2.12,4.24,2.053l-.707-.2L2.187,1.312l-.1-.067L1.75,1.077l-.3-.2L.067.135Q0,.067,0,.168V.236l1.346,1.38,1.077.808.471.269.269.1.471.236.135.034.135.067.269.067.236.1.538.135h.135l.4.1.269.034.135.034h.135l.5.067h.4l.135.034H8.378l.269-.034a5.831,5.831,0,0,0,1.077-.1L11.81,3.1l.908-.437L14.57,1.447,16.151.1Z" transform="translate(0 0)" fill="#231915"/>
              </g>
            </g>
          </g>
          <g id="Group_104267" data-name="Group 104267" transform="translate(49.71 85.189)">
            <g id="Group_104264" data-name="Group 104264" transform="translate(0.425 1.808)">
              <g id="Group_104263" data-name="Group 104263" transform="translate(0 0)">
                <path id="Path_75563" data-name="Path 75563" d="M19.515,2.843q0-.121-.081-.04l-3.842.607h-.2l-.162.04-2.953.04-.243-.04-1.577-.121-.121-.04h-.121l-.2-.04-.93-.081L7.745,2.883l-.4-.121L7.1,2.721,6.9,2.64,2.973,1.387l-.162-.081-.162-.04L2.366,1.1,1.314.659l-.2-.121L.91.456.142.052Q.02-.069.02.092a.051.051,0,0,0,0,.081l.4.364L.546.618.708.78l.809.607.849.485.121.121,1.577.768a16.25,16.25,0,0,0,1.618.647h.04l.162.081,1.132.364,3.033.647h.243l.728.081,1.9.04.243-.04h.445l3.519-.688.607-.243.283-.081,1.011-.4.445-.243Q19.6,2.924,19.515,2.843Z" fill="#231915"/>
              </g>
            </g>
            <g id="Group_104266" data-name="Group 104266" transform="translate(0 0)">
              <g id="Group_104265" data-name="Group 104265">
                <path id="Path_75564" data-name="Path 75564" d="M2.1,0H1.78L1.537.121l-.162.04L1.294.2,1.213.283.89.526.728.688H.688v.04L.566.849l-.121.243-.162.2L.04,2.022,0,2.265l.04.971L.2,3.923l.121.243v.04l.04.04.04.081.04.04.081.04.04-.081.04-.04v-.4l.04-.162V3.276L.688,3.2v-.2l.04-.2v-.2l.04-.081V2.386L.849,2.1l.04-.081V1.9l.121-.283.04-.04v-.04l.121-.243.04-.121.081-.081L1.375.93l.283-.4.4-.4Z" fill="#c18770"/>
              </g>
            </g>
          </g>
          <g id="Group_104270" data-name="Group 104270" transform="matrix(0.959, -0.282, 0.282, 0.959, 34.062, 52.393)">
            <g id="Group_104269" data-name="Group 104269" transform="translate(0 0)">
              <g id="Group_104268" data-name="Group 104268" transform="translate(0)">
                <path id="Path_75565" data-name="Path 75565" d="M3.7.7A10.743,10.743,0,0,0,1.8,1.5,14.988,14.988,0,0,0,0,3.782,26.486,26.486,0,0,1,6.9,2.308a19,19,0,0,1,6.971.7,19,19,0,0,0,2.668.723,1.589,1.589,0,0,0,.867-.083,1.353,1.353,0,0,0,.467-.667l.033-.083-.033-.083a2.39,2.39,0,0,0-1.3-1.279A17.865,17.865,0,0,0,11.807.25,18.224,18.224,0,0,0,3.7.7Z" transform="translate(2.435 0)" fill="#540e00"/>
                <path id="Path_75566" data-name="Path 75566" d="M2.268,3.059a17.676,17.676,0,0,1,7.738-1.585,24.78,24.78,0,0,1,7.037.918q2.368.667,2.835.361a1.081,1.081,0,0,0,.467-1.362l-.033.083a1.353,1.353,0,0,1-.467.667,1.589,1.589,0,0,1-.867.083A19,19,0,0,1,16.31,1.5a19,19,0,0,0-6.971-.7,26.486,26.486,0,0,0-6.9,1.474A14.988,14.988,0,0,1,4.236,0,10.743,10.743,0,0,0,2.2,1.585a11.3,11.3,0,0,0-.767.834L0,4.588Z" transform="translate(0 1.502)" fill="#2b0700"/>
              </g>
            </g>
          </g>
          <g id="Group_104273" data-name="Group 104273" transform="matrix(-0.959, -0.282, 0.282, -0.959, 83.836, 56.593)">
            <g id="Group_104272" data-name="Group 104272" transform="translate(0 0)">
              <g id="Group_104271" data-name="Group 104271">
                <path id="Path_75567" data-name="Path 75567" d="M2.767,2.776a7.372,7.372,0,0,1-1.421-.725A13.413,13.413,0,0,1,0,0,16.96,16.96,0,0,0,5.16,1.326,11.926,11.926,0,0,0,10.37.7,12.328,12.328,0,0,1,12.365.05a1,1,0,0,1,.648.075,1.233,1.233,0,0,1,.349.6L13.387.8l-.025.075a2,2,0,0,1-.972,1.15,11.638,11.638,0,0,1-3.565,1.15A11.408,11.408,0,0,1,2.767,2.776Z" transform="translate(1.82 2.076)" fill="#540e00"/>
                <path id="Path_75568" data-name="Path 75568" d="M1.7,1.376A11.347,11.347,0,0,0,7.479,2.8a15.6,15.6,0,0,0,5.26-.825q1.77-.6,2.119-.325a1.076,1.076,0,0,1,.349,1.226L15.182,2.8a1.233,1.233,0,0,0-.349-.6,1,1,0,0,0-.648-.075,12.328,12.328,0,0,0-1.994.65A11.926,11.926,0,0,1,6.98,3.4,16.96,16.96,0,0,1,1.82,2.076,13.413,13.413,0,0,0,3.166,4.127,8.435,8.435,0,0,1,1.645,2.7q-.3-.351-.573-.75L0,0Z" fill="#2b0700"/>
              </g>
            </g>
          </g>
          <g id="Group_104275" data-name="Group 104275" transform="translate(38.846 76.773)">
            <g id="Group_104274" data-name="Group 104274" transform="translate(0 0)">
              <path id="Path_75569" data-name="Path 75569" d="M3.337,2.5v.834h.834m-.834,0v.834m3.337-.834L3.337,6.674,0,3.337,3.337,0Zm-4.171,0h.834" fill="none" stroke="rgba(0,0,0,0)" stroke-linecap="round" stroke-linejoin="round" stroke-width="0.075"/>
            </g>
          </g>
        </g>
      </g>
    </g>
  </g>
</svg>
