<svg xmlns="http://www.w3.org/2000/svg" xmlns:xlink="http://www.w3.org/1999/xlink" width="375" height="270" viewBox="0 0 375 270">
  <defs>
    <clipPath id="clip-path">
      <rect id="Rectangle_8669" data-name="Rectangle 8669" width="375" height="270" transform="translate(14772.434 -12428)" fill="#fff" stroke="#707070" stroke-width="1" opacity="0.59"/>
    </clipPath>
    <clipPath id="clip-path-2">
      <rect id="Rectangle_8668" data-name="Rectangle 8668" width="189" height="214" transform="translate(87 121)" fill="#fff"/>
    </clipPath>
  </defs>
  <g id="Mask_Group_16614" data-name="Mask Group 16614" transform="translate(-14772.434 12428)" clip-path="url(#clip-path)">
    <g id="Mask_Group_16604" data-name="Mask Group 16604" transform="translate(14772.434 -12528.75)" clip-path="url(#clip-path-2)">
      <g id="male_teen_2" data-name="male teen 2" transform="translate(422.823 911.212)">
        <g id="Group_104732" data-name="Group 104732" transform="matrix(-0.83, 0.558, -0.558, -0.83, -158.829, -601.655)">
          <g id="Group_104721" data-name="Group 104721" transform="translate(0.027 0)">
            <g id="Group_104720" data-name="Group 104720" transform="translate(0 0)">
              <path id="Path_75775" data-name="Path 75775" d="M29.455,41.826,8.89,46.324Q4.53,26.7.455,12.612H.482A10,10,0,0,1,0,9.479,9.115,9.115,0,0,1,2.758,2.785,9.158,9.158,0,0,1,9.479,0a9.071,9.071,0,0,1,6.694,2.785,9.21,9.21,0,0,1,2.222,3.4A180.529,180.529,0,0,1,29.455,41.826Z" transform="translate(0)" fill="#e2ad98"/>
            </g>
          </g>
          <g id="Group_104724" data-name="Group 104724" transform="translate(6.56 33.642)">
            <g id="Group_104723" data-name="Group 104723" transform="translate(0 0)">
              <g id="Group_104722" data-name="Group 104722" transform="translate(0 0)">
                <path id="Path_75776" data-name="Path 75776" d="M2.463,11.8,0,2.319Q11.983-1.588,21.448,1.088l1.928,8.461Z" fill="#c18770"/>
              </g>
            </g>
          </g>
          <g id="Group_104726" data-name="Group 104726" transform="translate(0 35.424)">
            <g id="Group_104725" data-name="Group 104725" transform="translate(0 0)">
              <path id="Path_75777" data-name="Path 75777" d="M20.35,54.493A15.133,15.133,0,0,1,15.932,46h-.027Q12.3,28.687,0,8.276,11.568-4.871,35.667,2.867a108.023,108.023,0,0,1,11.3,37.809,16.6,16.6,0,0,1,.214,2.7,15.143,15.143,0,0,1-4.606,11.112A15.143,15.143,0,0,1,31.463,59.1,15.143,15.143,0,0,1,20.35,54.493Z" transform="translate(0 0)" fill="#7a2230"/>
            </g>
          </g>
          <g id="Group_104729" data-name="Group 104729" transform="translate(0.723 35.408)">
            <g id="Group_104728" data-name="Group 104728" transform="translate(0 0)">
              <g id="Group_104727" data-name="Group 104727" transform="translate(0 0)">
                <path id="Path_75778" data-name="Path 75778" d="M34.837,2.964q7.733,15.22,9.827,27.152T46.029,47.9Q41.611,14.665,32,6.07q-9.586-8.622-32,1.5Q11.325-4.736,34.837,2.964Z" fill="#4b0f18"/>
              </g>
            </g>
          </g>
          <g id="Group_104731" data-name="Group 104731" transform="translate(28.25 75.591)">
            <g id="Group_104730" data-name="Group 104730" transform="translate(0 0)">
              <path id="Path_75779" data-name="Path 75779" d="M3.213,4.017v-.8h.8m-.8,0v-.8m3.213.8L3.213,0,0,3.213,3.213,6.426Zm-4.017,0h.8" transform="translate(0 0)" fill="none" stroke="rgba(0,0,0,0)" stroke-linecap="round" stroke-linejoin="round" stroke-width="0.083"/>
            </g>
          </g>
        </g>
        <g id="Group_104741" data-name="Group 104741" transform="matrix(1, -0.031, 0.031, 1, -197.324, -674.143)">
          <g id="Group_104734" data-name="Group 104734" transform="matrix(0.978, -0.208, 0.208, 0.978, 0, 8.183)">
            <g id="Group_104733" data-name="Group 104733" transform="translate(0 0)">
              <path id="Path_75780" data-name="Path 75780" d="M21.11,61.992a38.985,38.985,0,0,1-3.026,7.873L.009,64.857q-.027-2.035.027-4.07A380.189,380.189,0,0,1,3.731,15.8,128.253,128.253,0,0,0,5.016.054L17.843,0a130.341,130.341,0,0,0,.75,20.539q1.156,8.966,2.544,22.735T21.11,61.992Z" transform="translate(0)" fill="#e2ad98"/>
            </g>
          </g>
          <g id="Group_104736" data-name="Group 104736" transform="translate(4.849 0)">
            <g id="Group_104735" data-name="Group 104735" transform="translate(0 0)">
              <path id="Path_75781" data-name="Path 75781" d="M12.861,6.43a6.194,6.194,0,0,1-1.886,4.545A6.194,6.194,0,0,1,6.43,12.861a6.194,6.194,0,0,1-4.545-1.886A6.194,6.194,0,0,1,0,6.43,6.194,6.194,0,0,1,1.886,1.886,6.2,6.2,0,0,1,6.43,0a6.194,6.194,0,0,1,4.545,1.886A6.194,6.194,0,0,1,12.861,6.43Z" fill="#e2ad98"/>
            </g>
          </g>
          <g id="Group_104738" data-name="Group 104738" transform="translate(5.819 12.442)">
            <g id="Group_104737" data-name="Group 104737" transform="translate(0 0)">
              <path id="Path_75782" data-name="Path 75782" d="M6.636,52.726l.321,2.356q.054.054-.027.054-.054.054-.054-.027L4.092,40.167,2.4,27.689.021.054Q-.032,0,.048,0L.1.027,6.555,52.137Q6.609,52.539,6.636,52.726Z" transform="translate(0)" fill="#c18770"/>
            </g>
          </g>
          <g id="Group_104740" data-name="Group 104740" transform="translate(19.685 67.31)">
            <g id="Group_104739" data-name="Group 104739" transform="translate(0 0)">
              <path id="Path_75783" data-name="Path 75783" d="M3.213,4.017v-.8h.8m-.8,0v-.8m3.213.8L3.213,0,0,3.213,3.213,6.427Zm-4.017,0h.8" transform="translate(0 0)" fill="none" stroke="rgba(0,0,0,0)" stroke-linecap="round" stroke-linejoin="round" stroke-width="0.083"/>
            </g>
          </g>
        </g>
        <g id="Group_104746" data-name="Group 104746" transform="translate(-198.338 -705.914) rotate(-2.104)">
          <g id="Group_104743" data-name="Group 104743" transform="translate(0 0)">
            <g id="Group_104742" data-name="Group 104742" transform="translate(0 0)">
              <path id="Path_75784" data-name="Path 75784" d="M6.969,1.677q.118.992.236,2.032L0,7.182Q.071,5.93.047,5.056A14.073,14.073,0,0,0,6.969,1.677m13.892,15.64-.78-.213a3.656,3.656,0,0,1-.614-.284,4.008,4.008,0,0,1-1.488-1.583l.189-.118-.473.118q-2.859.213-4.914-3.5A11.978,11.978,0,0,1,8.789,9.616q4.725,4.253,1.441,14.317,1.961-6.686-4.205-16.939,9.592,6.615,10.3,1.087A14.286,14.286,0,0,0,10.49,2.126L7.206,3.709A7.51,7.51,0,0,1,10.537,0,16.261,16.261,0,0,1,17.6,7.395q1.252-1.087,1.063-3.9,1.347,4.442-.827,5.481l-.354.142-.26.851a3.078,3.078,0,0,1-2.953,1.914,7.629,7.629,0,0,0,2.953,1.748,4.659,4.659,0,0,0,1.37.165,5.4,5.4,0,0,0,.851-.165,2.988,2.988,0,0,0,.874-.284,4.454,4.454,0,0,0,.732-.52,7.576,7.576,0,0,0,.662-.756,11.925,11.925,0,0,0,.709-1.158,6.514,6.514,0,0,0,.638-1.937,3.949,3.949,0,0,0-.047-1.725q.378.26.378.307a2.6,2.6,0,0,0,.047.307,5.364,5.364,0,0,1,.118,1.11,4.567,4.567,0,0,1-.024.8,2.872,2.872,0,0,1-.142.732,5.506,5.506,0,0,1-1.134,1.89,13.5,13.5,0,0,1-1.583,1.441q-.118.094-.26.213a6.162,6.162,0,0,1-1.158.591,1.653,1.653,0,0,0-.236.118q-.307.118-.614.26a.35.35,0,0,0,.095.165.749.749,0,0,0,.284.213,11.61,11.61,0,0,0,1.559.449q.284,0,.591.024a2.7,2.7,0,0,0,1.11-.354,6.045,6.045,0,0,0,1.725-1.559,12.32,12.32,0,0,0,1.11-1.772,12.03,12.03,0,0,1-.449,1.725,4.633,4.633,0,0,1-1.11,1.843A5.765,5.765,0,0,1,20.861,17.317Z" transform="translate(0.677 15.148)" fill="#c18770"/>
              <path id="Path_75785" data-name="Path 75785" d="M6.89,12.55q.189,1.347.756,4.276A14.073,14.073,0,0,1,.724,20.2Q.606,13.873.677,12.077q.047-.8.095-1.559L.866,9.195a10.408,10.408,0,0,1,.685-3.142A38.138,38.138,0,0,1,4.15.973,1.682,1.682,0,0,1,5.8,0,2.539,2.539,0,0,1,7.623,1.162a5.126,5.126,0,0,1,.874,3A10.371,10.371,0,0,1,7.339,8.746a4.912,4.912,0,0,0-.5,1.772A7.419,7.419,0,0,0,6.89,12.55m11.151,4.205a3.065,3.065,0,0,1,1.3,1.89q.189,2.811-1.063,3.9a16.261,16.261,0,0,0-7.064-7.395q3.213-1.488,6.828,1.607m2.717,15.5-.236,1.016Q17.545,44.656,8.639,43.286-2.418,43.192.677,22.33l7.206-3.473,3.284-1.583A14.286,14.286,0,0,1,17,23.228q-.709,5.528-10.3-1.087,6.166,10.253,4.205,16.939,3.284-10.064-1.441-14.317a11.978,11.978,0,0,0,3.993,2.126q2.055,3.709,4.914,3.5l.473-.118-.189.118a4.008,4.008,0,0,0,1.488,1.583,3.656,3.656,0,0,0,.614.284m4.82-5.079a.524.524,0,0,1-.024.165,12.32,12.32,0,0,1-1.11,1.772,6.045,6.045,0,0,1-1.725,1.559,2.7,2.7,0,0,1-1.11.354Q21.3,31,21.018,31a11.61,11.61,0,0,1-1.559-.449.749.749,0,0,1-.284-.213.351.351,0,0,1-.095-.165q.307-.142.614-.26a1.652,1.652,0,0,1,.236-.118,6.162,6.162,0,0,0,1.158-.591q.142-.118.26-.213a13.5,13.5,0,0,0,1.583-1.441,5.506,5.506,0,0,0,1.134-1.89,2.873,2.873,0,0,0,.142-.732,4.567,4.567,0,0,0,.024-.8,5.365,5.365,0,0,0-.118-1.11,2.594,2.594,0,0,1-.047-.307q0-.047-.378-.307a3.949,3.949,0,0,1,.047,1.725,6.514,6.514,0,0,1-.638,1.937,11.925,11.925,0,0,1-.709,1.158,7.576,7.576,0,0,1-.662.756,4.454,4.454,0,0,1-.732.52,2.988,2.988,0,0,1-.874.284,5.4,5.4,0,0,1-.851.165,4.659,4.659,0,0,1-1.37-.165,7.629,7.629,0,0,1-2.953-1.748A3.078,3.078,0,0,0,17.9,25.118l.26-.851.354-.142q2.174-1.04.827-5.481,3.709,1.323,4.347,3.686.591.307.732.378a2.32,2.32,0,0,1,.4.284,2.434,2.434,0,0,0,.26.307q.165.331.284.638a.923.923,0,0,1,.071.189,4.608,4.608,0,0,1,.284,1.961Z" fill="#e2ad98"/>
            </g>
          </g>
          <g id="Group_104745" data-name="Group 104745" transform="translate(8.562 33.857)">
            <g id="Group_104744" data-name="Group 104744" transform="translate(0 0)">
              <path id="Path_75786" data-name="Path 75786" d="M3.213,4.017v-.8h.8m-.8,0v-.8m3.213.8L3.213,0,0,3.213,3.213,6.427Zm-4.017,0h.8" transform="translate(0 0)" fill="none" stroke="rgba(0,0,0,0)" stroke-linecap="round" stroke-linejoin="round" stroke-width="0.083"/>
            </g>
          </g>
        </g>
        <g id="Group_104756" data-name="Group 104756" transform="matrix(0.999, -0.045, 0.045, 0.999, -281.159, -622.213)">
          <g id="Group_104748" data-name="Group 104748" transform="translate(0 33.635)">
            <g id="Group_104747" data-name="Group 104747" transform="translate(0 0)">
              <path id="Path_75787" data-name="Path 75787" d="M81.837,56.986A345.621,345.621,0,0,0,78.2,0L8.569,3A380.365,380.365,0,0,1,0,57.629Q38.478,72.4,81.837,56.986Z" transform="translate(0)" fill="#ede6de"/>
            </g>
          </g>
          <g id="Group_104750" data-name="Group 104750" transform="translate(8.349 2.149)">
            <g id="Group_104749" data-name="Group 104749" transform="translate(0 0)">
              <path id="Path_75788" data-name="Path 75788" d="M0,35.2A33.925,33.925,0,0,0,10.3,60.1a33.925,33.925,0,0,0,24.9,10.3A33.925,33.925,0,0,0,60.1,60.1a33.925,33.925,0,0,0,10.3-24.9A33.925,33.925,0,0,0,60.1,10.3,33.925,33.925,0,0,0,35.2,0,33.925,33.925,0,0,0,10.3,10.3,33.925,33.925,0,0,0,0,35.2Z" transform="translate(0)" fill="#ede6de"/>
            </g>
          </g>
          <g id="Group_104753" data-name="Group 104753" transform="translate(0.054 0)">
            <g id="Group_104752" data-name="Group 104752" transform="translate(0)">
              <g id="Group_104751" data-name="Group 104751">
                <path id="Path_75789" data-name="Path 75789" d="M42.124,9.319q.83-.027,1.687-.027.857.107,1.714.241a4.61,4.61,0,0,1,.509-.027,38.063,38.063,0,0,1-.482-7.257,8.887,8.887,0,0,1,.134-1.205A9.831,9.831,0,0,1,45.9,0l-.482,1.526A36.3,36.3,0,0,0,23.726,6.641l-6.989,7.284a57.871,57.871,0,0,0-6.159,10.631A49.685,49.685,0,0,0,8.462,34.92,436.513,436.513,0,0,1,0,91.451a45.61,45.61,0,0,0,7.177,2.33q4.409,1.1,6.936,1.848a36.905,36.905,0,0,0,6.293,1.232q3.769.489,7.793,1.232a39.391,39.391,0,0,0,8.141.7q4.151-.076,5.891-.134t7.123-.4a69.056,69.056,0,0,0,9.828-1.259q4.323-.75,7.418-1.553,3.124-.8,3.856-1.018.726-.188,1.446-.4.723-.241,1.446-.455-.562.107-1.1.241-4.392.857-8.944,1.366-3.24.375-6.534.7a116.761,116.761,0,0,1-11.97.4,63.925,63.925,0,0,1-7.418-.589A60.547,60.547,0,0,1,26.94,93.3a23.481,23.481,0,0,1-7.311-4.044,14.083,14.083,0,0,1-4.82-7.525,37.656,37.656,0,0,1-1.044-6.079,91.131,91.131,0,0,1-.348-11.033q.134-4.151.4-8.355.161-2.865.455-5.731.351-3.214.616-7.659.286-4.445,1.152-9.721A31.993,31.993,0,0,1,19.388,23.3a21.461,21.461,0,0,1,6.882-7.579,44.051,44.051,0,0,1,6.373-3.7A28.991,28.991,0,0,1,42.124,9.319Z" fill="#dad0c5"/>
              </g>
            </g>
          </g>
          <g id="Group_104755" data-name="Group 104755" transform="translate(37.705 95.441)">
            <g id="Group_104754" data-name="Group 104754" transform="translate(0 0)">
              <path id="Path_75790" data-name="Path 75790" d="M3.214,2.41v.8h.8m-.8,0v.8m3.214-.8L3.214,6.427,0,3.214,3.214,0Zm-4.017,0h.8" transform="translate(0 0)" fill="none" stroke="rgba(0,0,0,0)" stroke-linecap="round" stroke-linejoin="round" stroke-width="0.083"/>
            </g>
          </g>
        </g>
        <g id="Group_104781" data-name="Group 104781" transform="translate(-299.215 -662.348) rotate(-9)">
          <g id="Group_104758" data-name="Group 104758" transform="translate(30.393 0)">
            <g id="Group_104757" data-name="Group 104757" transform="translate(0 0)">
              <path id="Path_75791" data-name="Path 75791" d="M32.4,19.229,35.053,6.536a30.261,30.261,0,0,0-8.73-5.008A27.548,27.548,0,0,0,17.513,0,29.54,29.54,0,0,0,.616,5.09L0,19.229Z" fill="#e2ad98"/>
            </g>
          </g>
          <g id="Group_104760" data-name="Group 104760" transform="translate(8.435 3.135)">
            <g id="Group_104759" data-name="Group 104759" transform="translate(0 0)">
              <path id="Path_75792" data-name="Path 75792" d="M74.979,21.182a18.653,18.653,0,0,0-2.838-9.372Q69.557,7.721,63.3,5.222a54.5,54.5,0,0,1-8.569-4.017q-2.185,5.811-9.319,9.962-7.1,4.178-12.452-1.285Q27.638,4.445,26.3,3.294A11.429,11.429,0,0,1,23.806,0a44.482,44.482,0,0,0-5.623,1.553q-4.712,1.48-9.426,3.026A55.9,55.9,0,0,0,0,8.355L7.069,82.049q2.785-3.8,5.838-7.364Q15.639,71.5,18.638,68.5l1.125-1.125L20.887,66.3q2.169-1.982,4.5-3.776a45.114,45.114,0,0,1,8.971-5.275A28.482,28.482,0,0,1,43.167,55a26.956,26.956,0,0,1,8.7.777,32.823,32.823,0,0,1,8.542,3.749,39.681,39.681,0,0,1,5.329,3.91,56.94,56.94,0,0,1,4.713,4.552,70.858,70.858,0,0,1,6.587,8.167Z" fill="#ede6de"/>
            </g>
          </g>
          <g id="Group_104762" data-name="Group 104762" transform="translate(0.268 9.535)">
            <g id="Group_104761" data-name="Group 104761" transform="translate(0 0)">
              <path id="Path_75793" data-name="Path 75793" d="M31.438,15.719A15.144,15.144,0,0,0,26.832,4.606,15.144,15.144,0,0,0,15.719,0,15.144,15.144,0,0,0,4.606,4.606,15.144,15.144,0,0,0,0,15.719,15.144,15.144,0,0,0,4.606,26.832a15.144,15.144,0,0,0,11.113,4.606,15.144,15.144,0,0,0,11.113-4.606A15.144,15.144,0,0,0,31.438,15.719Z" fill="#ede6de"/>
            </g>
          </g>
          <g id="Group_104765" data-name="Group 104765" transform="translate(11.059 38)">
            <g id="Group_104764" data-name="Group 104764" transform="translate(0 0)">
              <g id="Group_104763" data-name="Group 104763">
                <path id="Path_75794" data-name="Path 75794" d="M13.978,0Q.027,2.276,0,2.249l4.392,45.2,9.4-11.568Z" fill="#dad0c5"/>
              </g>
            </g>
          </g>
          <g id="Group_104770" data-name="Group 104770" transform="translate(0 3.536)">
            <g id="Group_104767" data-name="Group 104767" transform="translate(0 0)">
              <g id="Group_104766" data-name="Group 104766">
                <path id="Path_75795" data-name="Path 75795" d="M32.134,21.958A77.031,77.031,0,0,1,37.115,5.623L30.849,0A138.006,138.006,0,0,0,10.711,6.668Q.519,10.814,0,22.654q1.425,9,8.194,12.773L8.7,35.7q.341.19.669.348.073.032.134.054l.455.187a14.5,14.5,0,0,0,4.418,1.071,15.987,15.987,0,0,0,1.607.08A15.144,15.144,0,0,0,27.1,32.83a14.781,14.781,0,0,0,1.125-1.259Q31.045,28.515,32.134,21.958Z" fill="#7a2230"/>
              </g>
            </g>
            <g id="Group_104769" data-name="Group 104769" transform="translate(61.537 1.071)">
              <g id="Group_104768" data-name="Group 104768" transform="translate(0 0)">
                <path id="Path_75796" data-name="Path 75796" d="M10.765,9.854q5.124,4.068,8.649,12.452,1.644,3.878,2.865,7.364a72.14,72.14,0,0,1-.107-8.462,21.48,21.48,0,0,0-.455-5.784q-.219-2.673-3.16-5.811a20.093,20.093,0,0,0-6.721-5.141A54.416,54.416,0,0,1,2.517,0L0,4.07A32.112,32.112,0,0,1,10.765,9.854Z" fill="#7a2230"/>
              </g>
            </g>
          </g>
          <g id="Group_104772" data-name="Group 104772" transform="translate(46.434 4.233)">
            <g id="Group_104771" data-name="Group 104771" transform="translate(0 0)">
              <path id="Path_75797" data-name="Path 75797" d="M10.5,4.017l-.161.08-.509.321L7.5,5.57,4.044,6.641l-.161.027-.161.054L.054,7.31H.027L0,7.364l.027.027.214.054,1.446.107.134.027,1.848-.054.348-.054H4.2L5.7,7.2l1.58-.455a12.508,12.508,0,0,0,1.58-.616l.777-.4,2.383-1.607,2.089-2.115.91-1.285L15.13.589l.187-.348L15.424.08Q15.451.054,15.4,0h-.054L15.21.161,14.085,1.232l-.107.08-.321.295-.107.08-.214.214Z" transform="translate(0)" fill="#c18770"/>
            </g>
          </g>
          <g id="Group_104774" data-name="Group 104774" transform="translate(38.079 12.32)">
            <g id="Group_104773" data-name="Group 104773" transform="translate(0 0)">
              <path id="Path_75798" data-name="Path 75798" d="M17.111,1.687l-.589.241-.214.054a18.054,18.054,0,0,1-1.794.562q-.8.214-.937.241l-1.446.295H12l-.107.027-2.276.161-.134.027-.107-.027h-.75L7.15,3.133,4.659,2.6l-2.7-.991L.964,1.125.75,1.044.589.937.08.7Q0,.616,0,.723V.777L1.633,2.2l.134.08.589.428L4.74,3.936h.054l1.071.375L6,4.338l.107.054.268.054a11.212,11.212,0,0,0,2.115.375,13.755,13.755,0,0,0,2.249.027l.83-.08,2.383-.509.268-.08.107-.054L14.46,4.1l.509-.187a17.757,17.757,0,0,0,1.821-.777l1.526-.857a13.19,13.19,0,0,0,1.232-.83L21.208.08V0h-.08L19.575.7l-.08.027-.589.268-.161.054-.161.08-1.259.509Z" transform="translate(0)" fill="#dad0c5"/>
            </g>
          </g>
          <g id="Group_104776" data-name="Group 104776" transform="translate(29.349 1.929)">
            <g id="Group_104775" data-name="Group 104775" transform="translate(0 0)">
              <path id="Path_75799" data-name="Path 75799" d="M22.521,13.5a19.452,19.452,0,0,0,8.462-3.963,17.021,17.021,0,0,0,2.758-2.919,9.289,9.289,0,0,0,1.553-3.4q-.214-1.366-1.285-1.446a2.24,2.24,0,0,0-2.035,1.259,18.478,18.478,0,0,1-3.4,3.588,11.115,11.115,0,0,1-3.562,1.928,24.317,24.317,0,0,1-4.017.91,15.63,15.63,0,0,1-9.239-1.1A15.409,15.409,0,0,1,4.9,2.518,5.406,5.406,0,0,0,3.722.724,2.441,2.441,0,0,0,1.9,0Q.83,0,0,1.527A26.27,26.27,0,0,0,4.231,8.436a14.6,14.6,0,0,0,8.944,5.141A22.584,22.584,0,0,0,22.521,13.5Z" transform="translate(0 0)" fill="#7a2230"/>
            </g>
          </g>
          <g id="Group_104778" data-name="Group 104778" transform="translate(29.435 3.569)">
            <g id="Group_104777" data-name="Group 104777" transform="translate(0 0)">
              <path id="Path_75800" data-name="Path 75800" d="M19.757,12.339q1.018-.107,2.437-.348l2.838-.75,1.607-.7.321-.187q.08,0,.027-.054,0-.08-.054-.027l-.107.027-.428.161-.214.054-.134.054-.428.107q-.321.107-1.526.375l-5.677.482-3.106-.187-2.49-.482-1.392-.428A19.85,19.85,0,0,1,8.778,9.26L7.573,8.537q-.669-.455-1.125-.83l-.161-.08L6.18,7.519l-.268-.214L3.422,4.842.1.048Q.1-.032.048.021q-.08,0-.027.054L.557,1.36q.455.964.723,1.419L2.351,4.574a20.13,20.13,0,0,0,1.5,1.955l.937.991a12.034,12.034,0,0,0,1.044.937,13.084,13.084,0,0,0,1.178.91l1.259.8,2.812,1.285a24.542,24.542,0,0,0,3,.75l.723.107,3.615.134Z" fill="#4b0f18"/>
            </g>
          </g>
          <g id="Group_104780" data-name="Group 104780" transform="translate(47.371 81.06)">
            <g id="Group_104779" data-name="Group 104779" transform="translate(0 0)">
              <path id="Path_75801" data-name="Path 75801" d="M3.213,2.41v.8h.8m-.8,0v.8m3.213-.8L3.213,6.427,0,3.213,3.213,0Zm-4.017,0h.8" transform="translate(0 0)" fill="none" stroke="rgba(0,0,0,0)" stroke-linecap="round" stroke-linejoin="round" stroke-width="0.083"/>
            </g>
          </g>
        </g>
        <g id="Group_104800" data-name="Group 104800" transform="translate(-312.273 -655.994) rotate(0.528)">
          <g id="Group_104783" data-name="Group 104783" transform="translate(1.285 49.297)">
            <g id="Group_104782" data-name="Group 104782" transform="translate(0 0)">
              <path id="Path_75802" data-name="Path 75802" d="M18.61,38.158A223.938,223.938,0,0,0,25.573,4.07L5.3,0Q2.078,17.723,0,35.159Z" transform="translate(0 0)" fill="#e2ad98"/>
            </g>
          </g>
          <g id="Group_104785" data-name="Group 104785" transform="translate(1.259 75.566)">
            <g id="Group_104784" data-name="Group 104784" transform="translate(0 0)">
              <path id="Path_75803" data-name="Path 75803" d="M18.959,9.479a9.159,9.159,0,0,0-2.785-6.721A9.115,9.115,0,0,0,9.479,0,9.2,9.2,0,0,0,2.758,2.758,9.2,9.2,0,0,0,0,9.479a9.115,9.115,0,0,0,2.758,6.694,9.159,9.159,0,0,0,6.721,2.785,9.071,9.071,0,0,0,6.694-2.785A9.071,9.071,0,0,0,18.959,9.479Z" transform="translate(0 0)" fill="#e2ad98"/>
            </g>
          </g>
          <g id="Group_104788" data-name="Group 104788" transform="translate(5.141 45.95)">
            <g id="Group_104787" data-name="Group 104787" transform="translate(0 0)">
              <g id="Group_104786" data-name="Group 104786" transform="translate(0 0)">
                <path id="Path_75804" data-name="Path 75804" d="M1.687,0,0,11.006a31.44,31.44,0,0,0,20.7,3.883L22.493,4.713Z" fill="#c18770"/>
              </g>
            </g>
          </g>
          <g id="Group_104790" data-name="Group 104790" transform="translate(16.977 0)">
            <g id="Group_104789" data-name="Group 104789" transform="translate(0 0)">
              <path id="Path_75805" data-name="Path 75805" d="M31.437,15.718A15.143,15.143,0,0,0,26.831,4.606,15.144,15.144,0,0,0,15.718,0,15.144,15.144,0,0,0,4.606,4.606,15.143,15.143,0,0,0,0,15.718,15.143,15.143,0,0,0,4.606,26.831a15.143,15.143,0,0,0,11.113,4.606,15.143,15.143,0,0,0,11.113-4.606A15.143,15.143,0,0,0,31.437,15.718Z" transform="translate(0)" fill="#7a2230"/>
            </g>
          </g>
          <g id="Group_104792" data-name="Group 104792" transform="translate(0.054 4.284)">
            <g id="Group_104791" data-name="Group 104791" transform="translate(0 0)">
              <path id="Path_75806" data-name="Path 75806" d="M36.846,51.948,47.932,15.129,21.85,0Q12.639,8.114,0,45.843,12.746,59.687,36.846,51.948Z" transform="translate(0 0)" fill="#7a2230"/>
            </g>
          </g>
          <g id="Group_104795" data-name="Group 104795" transform="translate(0 7.846)">
            <g id="Group_104794" data-name="Group 104794" transform="translate(0 0)">
              <g id="Group_104793" data-name="Group 104793" transform="translate(0 0)">
                <path id="Path_75807" data-name="Path 75807" d="M11.621,12.157A263.26,263.26,0,0,0,0,42.335Q12.251,55.842,35.989,48.6,9.265,50.128,5.757,40.434,3.615,34.543,18.691,0A68.857,68.857,0,0,0,11.621,12.157Z" fill="#4b0f18"/>
              </g>
            </g>
          </g>
          <g id="Group_104797" data-name="Group 104797" transform="translate(40.065 21.16)">
            <g id="Group_104796" data-name="Group 104796" transform="translate(0 0)">
              <path id="Path_75808" data-name="Path 75808" d="M7.225.048,3.8,8.51.129,23.345l-.107.83q-.054.054.027.054L.1,24.2l.589-1.714L7.3.075Q7.358.021,7.278.021,7.225-.032,7.225.048Z" fill="#4b0f18"/>
            </g>
          </g>
          <g id="Group_104799" data-name="Group 104799" transform="translate(29.482 12.505)">
            <g id="Group_104798" data-name="Group 104798" transform="translate(0 0)">
              <path id="Path_75809" data-name="Path 75809" d="M3.213,2.41v.8h.8m-.8,0v.8m3.213-.8L3.213,6.427,0,3.213,3.213,0Zm-4.017,0h.8" transform="translate(0 0)" fill="none" stroke="rgba(0,0,0,0)" stroke-linecap="round" stroke-linejoin="round" stroke-width="0.083"/>
            </g>
          </g>
        </g>
        <g id="Group_104809" data-name="Group 104809" transform="translate(-326.022 -572.881) rotate(-9.82)">
          <g id="Group_104802" data-name="Group 104802" transform="matrix(0.978, 0.208, -0.208, 0.978, 14.525, 0)">
            <g id="Group_104801" data-name="Group 104801" transform="translate(0 0)">
              <path id="Path_75810" data-name="Path 75810" d="M21.111,7.873A38.987,38.987,0,0,0,18.085,0L.009,5.008q-.027,2.035.027,4.07a380.206,380.206,0,0,0,3.7,44.99A128.26,128.26,0,0,1,5.017,69.814l12.827.054a130.349,130.349,0,0,1,.75-20.54q1.156-8.967,2.544-22.736T21.111,7.873Z" fill="#e2ad98"/>
            </g>
          </g>
          <g id="Group_104804" data-name="Group 104804" transform="translate(4.849 63.663)">
            <g id="Group_104803" data-name="Group 104803" transform="translate(0 0)">
              <path id="Path_75811" data-name="Path 75811" d="M12.862,6.431a6.194,6.194,0,0,0-1.886-4.545A6.2,6.2,0,0,0,6.431,0,6.2,6.2,0,0,0,1.886,1.886,6.2,6.2,0,0,0,0,6.431a6.2,6.2,0,0,0,1.886,4.545,6.2,6.2,0,0,0,4.545,1.886,6.2,6.2,0,0,0,4.545-1.886A6.194,6.194,0,0,0,12.862,6.431Z" transform="translate(0 0)" fill="#e2ad98"/>
            </g>
          </g>
          <g id="Group_104806" data-name="Group 104806" transform="translate(5.819 8.922)">
            <g id="Group_104805" data-name="Group 104805" transform="translate(0 0)">
              <path id="Path_75812" data-name="Path 75812" d="M6.636,2.432,6.957.075Q7.011.021,6.931.021q-.054-.054-.054.027L4.092,14.991,2.4,27.471.021,55.107q-.054.054.027.054L.1,55.134,6.556,3.021Q6.609,2.619,6.636,2.432Z" fill="#c18770"/>
            </g>
          </g>
          <g id="Group_104808" data-name="Group 104808" transform="translate(19.686 2.784)">
            <g id="Group_104807" data-name="Group 104807" transform="translate(0 0)">
              <path id="Path_75813" data-name="Path 75813" d="M3.214,2.41v.8h.8m-.8,0v.8m3.214-.8L3.214,6.427,0,3.214,3.214,0Zm-4.017,0h.8" fill="none" stroke="rgba(0,0,0,0)" stroke-linecap="round" stroke-linejoin="round" stroke-width="0.083"/>
            </g>
          </g>
        </g>
        <g id="Group_104814" data-name="Group 104814" transform="matrix(0.95, 0.311, -0.311, 0.95, -318.52, -517.793)">
          <g id="Group_104811" data-name="Group 104811" transform="translate(0 0)">
            <g id="Group_104810" data-name="Group 104810">
              <path id="Path_75814" data-name="Path 75814" d="M5.6,21.613A4.814,4.814,0,0,0,6.59,19.1q-.67-8.249-.562-17.113A61,61,0,0,0,4.8,20.354q-.027.08.214,1.821l.589-.562M12.214.67q-.161.777-.321,1.527a64.668,64.668,0,0,0-.375,18.1q.214,1.9.589,3.83a4.686,4.686,0,0,0,1.687-3.187,4.465,4.465,0,0,0-.134-.643,87.319,87.319,0,0,1-1.5-17.89q0-.884.054-1.741M.965,12.4Q.939,11.007.939,7.552A27.638,27.638,0,0,1,2.224,0,17.613,17.613,0,0,0,.992,3.615,15.251,15.251,0,0,1,.51,5.249,20.366,20.366,0,0,0,0,10.472,17.265,17.265,0,0,1,.965,12.4Z" transform="translate(1.038 19.684)" fill="#c18770"/>
              <path id="Path_75815" data-name="Path 75815" d="M17.7,0q-.428,0-.857.027l-.08.134q-.054.027-.054.054A9.874,9.874,0,0,0,9.69,5.972q-1.768,2.758-3.964,6.99-.482.777-1.018,1.527a7.265,7.265,0,0,0-.455.777q-.777,1.152-1.366,2.169A21.333,21.333,0,0,0,.1,23.487q-.429,1.9.937,6.669a20.366,20.366,0,0,1,.509-5.222A15.252,15.252,0,0,0,2.031,23.3a17.613,17.613,0,0,1,1.232-3.616,27.638,27.638,0,0,0-1.286,7.552q0,3.455.027,4.847l.027,2.089q.107.723.295,1.5.455,2.143.8,4.339l.08.107q1.527,2.892,2.839,1.741-.241-1.741-.214-1.821A61,61,0,0,1,7.066,21.666q-.107,8.865.562,17.113.027.643.08,1.259.241,2.25.75,5.035,3.16,2.169,4.687-1.259-.375-1.928-.589-3.83a64.668,64.668,0,0,1,.375-18.1q.161-.75.321-1.527-.054.857-.054,1.741a87.319,87.319,0,0,0,1.5,17.89,4.464,4.464,0,0,1,.134.643q.295,1.152.857,3,4.553-.616,5.6-3.749a9.575,9.575,0,0,0-.161-4.981Q19.3,24.639,21.1,20.22q1.741-.428,1.527,4.419-.375,5.41,1.741,6.936a4.508,4.508,0,0,0,5.544.107Q27.955,22.63,28.839,18.1q.857-4.526.884-4.633-.429-1.1-.937-2.143a53.586,53.586,0,0,0-2.946-5.517Q25.25,4.847,24.688,4.1A9.484,9.484,0,0,0,20.938.937,2.4,2.4,0,0,0,20.51.723,5.736,5.736,0,0,0,17.7,0Z" fill="#e2ad98"/>
            </g>
          </g>
          <g id="Group_104813" data-name="Group 104813" transform="translate(15.341 3.133)">
            <g id="Group_104812" data-name="Group 104812" transform="translate(0 0)">
              <path id="Path_75816" data-name="Path 75816" d="M3.214,2.41v.8h.8m-.8,0v.8m3.214-.8L3.214,6.428,0,3.214,3.214,0Zm-4.017,0h.8" transform="translate(0)" fill="none" stroke="rgba(0,0,0,0)" stroke-linecap="round" stroke-linejoin="round" stroke-width="0.083"/>
            </g>
          </g>
        </g>
        <g id="Group_104819" data-name="Group 104819" transform="translate(-262.119 -713.673) rotate(-1.593)">
          <g id="Group_104816" data-name="Group 104816" transform="translate(0 0)">
            <g id="Group_104815" data-name="Group 104815" transform="translate(0 0)">
              <path id="Path_75817" data-name="Path 75817" d="M21.5,30.422l.08-6.722a15.468,15.468,0,0,1-2.517-1.018A36.4,36.4,0,0,1,14.06,19.5a43.891,43.891,0,0,1-4.526-3.937,24.4,24.4,0,0,1-3.722-4.82Q4.178,8.007,2.946,5.463A47.206,47.206,0,0,1,.7,0L0,30.1Z" transform="translate(0 18.103)" fill="#e2ad98"/>
              <path id="Path_75818" data-name="Path 75818" d="M20.7,9.507h-.134A9.818,9.818,0,0,0,17.594,3a9.855,9.855,0,0,0-7.231-3A9.974,9.974,0,0,0,3.08,3,9.931,9.931,0,0,0,.107,10.257q0,.295.027.589L0,18.1a47.205,47.205,0,0,0,2.25,5.463q1.232,2.544,2.865,5.276a24.4,24.4,0,0,0,3.722,4.82A43.891,43.891,0,0,0,13.363,37.6a36.4,36.4,0,0,0,5.008,3.187A15.469,15.469,0,0,0,20.888,41.8Z" transform="translate(0.696 0)" fill="#c18770"/>
            </g>
          </g>
          <g id="Group_104818" data-name="Group 104818" transform="translate(6.668 51.552)">
            <g id="Group_104817" data-name="Group 104817" transform="translate(0 0)">
              <path id="Path_75819" data-name="Path 75819" d="M3.214,2.41v.8h.8m-.8,0v.8m3.214-.8L3.214,6.427,0,3.214,3.214,0Zm-4.017,0h.8" transform="translate(0 0)" fill="none" stroke="rgba(0,0,0,0)" stroke-linecap="round" stroke-linejoin="round" stroke-width="0.083"/>
            </g>
          </g>
        </g>
        <g id="Group_104931" data-name="Group 104931" transform="translate(-309.629 -768.102) rotate(-14.636)">
          <g id="Group_104820" data-name="Group 104820" transform="translate(30.385 66.9)">
            <path id="Path_75820" data-name="Path 75820" d="M20.5,10.251a9.829,9.829,0,0,1-3.01,7.24,9.829,9.829,0,0,1-7.24,3.01,9.894,9.894,0,0,1-7.26-3.01A9.862,9.862,0,0,1,0,10.251a9.927,9.927,0,0,1,2.991-7.26A9.927,9.927,0,0,1,10.251,0a9.862,9.862,0,0,1,7.24,2.991A9.894,9.894,0,0,1,20.5,10.251Z" transform="translate(0 0)" fill="none" stroke="red" stroke-linecap="round" stroke-linejoin="round" stroke-width="0.083"/>
          </g>
          <g id="Group_104834" data-name="Group 104834" transform="translate(17.916 17.863)">
            <g id="Group_104822" data-name="Group 104822" transform="translate(0 0)">
              <g id="Group_104821" data-name="Group 104821" transform="translate(0 0)">
                <path id="Path_75821" data-name="Path 75821" d="M53.588,9.186A30.246,30.246,0,0,0,31.387,0a30.246,30.246,0,0,0-22.2,9.186A30.246,30.246,0,0,0,0,31.387,30.2,30.2,0,0,0,4.794,48.178l.027.134Q16.1,64.09,32.137,66.175,51.1,68.038,61.729,53.32l.7-16.845-.161.67a31.808,31.808,0,0,0,.509-5.758A30.246,30.246,0,0,0,53.588,9.186Z" fill="#e2ad98"/>
              </g>
            </g>
            <g id="Group_104833" data-name="Group 104833" transform="translate(6.839 13.49)">
              <g id="Group_104824" data-name="Group 104824" transform="matrix(0.566, 0.824, -0.824, 0.566, 18.737, 0.234)">
                <g id="Group_104823" data-name="Group 104823" transform="translate(0 0)">
                  <path id="Path_75822" data-name="Path 75822" d="M3.428,1.205,0,0,.241,20.889l2.571,1.848Q10.254,11.319,3.428,1.205Z" fill="#c18770"/>
                </g>
              </g>
              <g id="Group_104826" data-name="Group 104826" transform="translate(17.129 1.267)">
                <g id="Group_104825" data-name="Group 104825" transform="translate(0 0)">
                  <path id="Path_75823" data-name="Path 75823" d="M9.32.4,1.848,6.775,0,11.3Q13.916,10.5,11.783,0Z" fill="#c18770"/>
                </g>
              </g>
              <g id="Group_104828" data-name="Group 104828" transform="translate(27.011 1.133)">
                <g id="Group_104827" data-name="Group 104827" transform="translate(0 0)">
                  <path id="Path_75824" data-name="Path 75824" d="M10.311,13.9l.187-5.49L4.928,0,0,1.553Q.424,10.608,10.311,13.9Z" fill="#c18770"/>
                </g>
              </g>
              <g id="Group_104830" data-name="Group 104830" transform="translate(38.054 0) rotate(25.988)">
                <g id="Group_104829" data-name="Group 104829" transform="translate(0 0)">
                  <path id="Path_75825" data-name="Path 75825" d="M23.914,8.034l-2.3-3.883L0,0V6.133Q9.458,9.854,23.914,8.034Z" transform="translate(0 0)" fill="#c18770"/>
                </g>
              </g>
              <g id="Group_104832" data-name="Group 104832" transform="translate(0.043 14.095)">
                <g id="Group_104831" data-name="Group 104831" transform="translate(0 0)">
                  <path id="Path_75826" data-name="Path 75826" d="M.75,0,0,14.435l4.526,4.9A96.555,96.555,0,0,0,5.651,0Z" fill="#c18770"/>
                </g>
              </g>
            </g>
          </g>
          <g id="Group_104839" data-name="Group 104839" transform="translate(28.307 63.952)">
            <g id="Group_104836" data-name="Group 104836" transform="translate(0 0)">
              <g id="Group_104835" data-name="Group 104835">
                <path id="Path_75827" data-name="Path 75827" d="M7.873,26.3q8.5,10.864,16.845,13.283t11.569.027Q43.115,28.365,49.33,18.934,55.546,9.533,50.937,0L0,1.152Q1.175,19.144,7.873,26.3Z" fill="#e2ad98"/>
              </g>
            </g>
            <g id="Group_104838" data-name="Group 104838" transform="translate(12.975 32.043)">
              <g id="Group_104837" data-name="Group 104837" transform="translate(0 0)">
                <path id="Path_75828" data-name="Path 75828" d="M27.41.924q.08-.08-.027-.08H27.33l-2.946,3.99-.027.08-.027.054-.08.107q-.536.723-.7.911l-.75.75-.134.107-.054.054-.054.027-.375.295-.536.295L21.09,7.7a2.924,2.924,0,0,1-.616.107h-.08l-.054.027H19.8L14.127,7.3l-.08-.027h-.107l-2.946-.723-.027-.027h-.054l-.8-.268a13,13,0,0,1-1.366-.482L8.074,5.5l-.161-.08L7.833,5.4l-.08-.054L6.226,4.566Q5.262,4.03,4.084,3.281L2.343,2.075.147.094.094.013q-.027-.027-.08,0-.027.054,0,.08l.054.08L1.513,1.7,3.87,3.6q1.259.884,2.116,1.393a13.369,13.369,0,0,0,1.205.7l.295.187.08.027L9.9,6.923l.723.241.08.054h.054l.054.027,2.973.83h.054l.027.027h.027l.08.027,3.481.589q.536.054,1.553.161l1.553.054a4.391,4.391,0,0,0,1.58-.428l.67-.4.482-.428.08-.054L24.3,6.6a8.24,8.24,0,0,0,.67-1.1l.161-.268.107-.241Z" fill="#f0cbbc"/>
              </g>
            </g>
          </g>
          <g id="Group_104882" data-name="Group 104882" transform="translate(0 0)">
            <g id="Group_104841" data-name="Group 104841" transform="translate(0.026 0.222)">
              <g id="Group_104840" data-name="Group 104840" transform="translate(0 0)">
                <path id="Path_75829" data-name="Path 75829" d="M84.842,20.184Q75.5,11.106,68.1,10.249a18.754,18.754,0,0,0,.482-8.382q-.295-2.6-2.223-1.58Q46.358,14.453,28.308,18.979A40.723,40.723,0,0,0,13.07,28.272q-.949.913-1.848,1.9-.643-4.553-3.642-6.213-5.115-2.3-3.856,1.393,1.955,4.071,3.16,6.106A8.836,8.836,0,0,0,2.2,31.62q-3.964,1.1-.777,3.214a27.666,27.666,0,0,0,5.115,2.25q.031.148.054.295a103.3,103.3,0,0,0,8.677,25.763L29.62,64.962a54.438,54.438,0,0,0-.562-20.942,18.687,18.687,0,0,0,3.321-.643q6.99-1.66,10.712-11.194a18.989,18.989,0,0,1-.75,8.489q-1.419,4.446,2.3,2.116A27.173,27.173,0,0,0,53,34.03a54.141,54.141,0,0,0,5.222,9.186q5.035,5.41,4.821-.428l.241-8.623.161.214a20.329,20.329,0,0,0,3.294,3.589,33.3,33.3,0,0,0,4.178,2.973,26.08,26.08,0,0,0,4.017,1.955q2.651.964,4.687,1.553a22.914,22.914,0,0,0,3.294.75q1.259.134,1.446-1.259a11.429,11.429,0,0,0-.107-3.267q-.375-2.357-.884-4.687a31.685,31.685,0,0,0-1.393-4.579l-.161-.428q3.455,3.776,6.213,3.749Q91.7,27.951,84.842,20.184Z" fill="#540e00"/>
              </g>
            </g>
            <g id="Group_104843" data-name="Group 104843" transform="translate(63.457 22.991)">
              <g id="Group_104842" data-name="Group 104842" transform="translate(0 0)">
                <path id="Path_75830" data-name="Path 75830" d="M.013.013q-.027.054,0,.08l5.249,4.5q.348.295,1.848,1.741l3.776,3.937,4.954,6.213L18.6,20.929l.321.643.054.054.348.723a.828.828,0,0,0,.482.4.913.913,0,0,0,.616-.054.73.73,0,0,0,.375-.482.816.816,0,0,0-.027-.616l-.027-.027-.428-.75-2.437-3.7-3.508-4.392a4.5,4.5,0,0,0-.455-.509L11.529,9.681Q10.19,8.342,9.521,7.726L5.584,4.245.094.013Q.067-.013.013.013Z" fill="#2b0700"/>
              </g>
            </g>
            <g id="Group_104845" data-name="Group 104845" transform="translate(33.045 26.357)">
              <g id="Group_104844" data-name="Group 104844" transform="translate(0 0)">
                <path id="Path_75831" data-name="Path 75831" d="M7.635.021q-.054-.054-.054.027L5.894,6.235,3.511,11.376,3.3,11.7l-.08.161L1.8,13.921.217,15.742A.684.684,0,0,0,0,16.3a.716.716,0,0,0,.241.562.8.8,0,0,0,.589.241A.879.879,0,0,0,1.4,16.84l.027-.054.268-.348.107-.107.375-.482,1.982-3.24.08-.187.107-.161L6.4,6.824,7.662.262V.075Q7.715.021,7.635.021Z" fill="#2b0700"/>
              </g>
            </g>
            <g id="Group_104847" data-name="Group 104847" transform="translate(24.323 35.008)">
              <g id="Group_104846" data-name="Group 104846" transform="translate(0 0)">
                <path id="Path_75832" data-name="Path 75832" d="M9.555.021Q9.5-.032,9.5.048l-2.624,4.5L5.725,6.154l-2.6,2.732-.83.643-.107.054-.08.08-.455.295-.08.027-.241.161-.08.027-.187.107-.08.027-.295.161-.08.027-.134.08H.449a.73.73,0,0,0-.4.455.816.816,0,0,0,.027.616.73.73,0,0,0,.455.4.816.816,0,0,0,.616-.027l.214-.107.08-.054.027-.027.054-.027.241-.161.08-.027.562-.4.08-.08.08-.054.4-.321.08-.08.107-.08a7.33,7.33,0,0,0,.83-.8l.857-.937L6.234,6.931l.08-.161.107-.134,1.312-2.33L9.582.075Q9.635.021,9.555.021Z" fill="#2b0700"/>
              </g>
            </g>
            <g id="Group_104849" data-name="Group 104849" transform="translate(52.883 34.11)">
              <g id="Group_104848" data-name="Group 104848" transform="translate(0 0)">
                <path id="Path_75833" data-name="Path 75833" d="M.143.036A.087.087,0,0,0,.036.009Q-.018.089.009.116L1.535,3.624,4.642,9.061,5.66,10.186,5.9,10.4l.134.08.241.214.7.482.134.054.107.08.455.214.107.027.295.134.187.054h.08l.509.107h.295a.071.071,0,0,0,.08-.08l-.027-.054H9.168l-.107-.134-.482-.428-.107-.134-.134-.107-.08-.08-.054-.08-.375-.4L5.285,7.266A11.228,11.228,0,0,1,4.4,6.222Z" fill="#2b0700"/>
              </g>
            </g>
            <g id="Group_104851" data-name="Group 104851" transform="translate(28.789 32.16)">
              <g id="Group_104850" data-name="Group 104850" transform="translate(0 0)">
                <path id="Path_75834" data-name="Path 75834" d="M13.979.7,13.9.86l-.161.428a2.848,2.848,0,0,0-.214.482l-.08.107-.187.428-.08.134-.054.134-.241.455-.107.161-.161.321-.428.643a11.615,11.615,0,0,1-.937,1.312L10.07,6.752q-.75.7-1.339,1.152a13.782,13.782,0,0,1-1.5.937l-.777.4-.027.027L6.374,9.3l-.107.027-6,2.6-.214.107q-.054,0-.054.107l.08.027.348.054H.589l.161.027H1.982l2.035-.295.777-.214a9.058,9.058,0,0,0,1.634-.616l1.232-.723,1.875-1.5A14.613,14.613,0,0,0,10.9,7.5,15.024,15.024,0,0,0,12,6.029l.562-.937.054-.107.054-.08.348-.75.107-.161.214-.536.08-.161.054-.187.348-.911.027-.161L13.9,1.9,14.22.753l.027-.161.08-.241L14.354.11q.08-.08-.054-.08-.08-.08-.08.054Z" fill="#2b0700"/>
              </g>
            </g>
            <g id="Group_104853" data-name="Group 104853" transform="translate(81.057 29.807)">
              <g id="Group_104852" data-name="Group 104852" transform="translate(0 0)">
                <path id="Path_75835" data-name="Path 75835" d="M7.1,5.035V4.981l-.241-.348-.08-.08L6.756,4.5V4.472H6.73V4.446l-.562-.589L4.882,2.946,3.623,2.41,1.748,1.339.811.67.3.187.275.134.222.107.168.027a.067.067,0,0,0-.107,0q-.107,0-.027.08l.027.08L.088.241l.027.08L.409.857l.75.991,2.41,2.169a4.771,4.771,0,0,0,.67.482l.161.08.08.054.08.027.348.161.723.214h.08l.67.107.643-.027Q7.158,5.115,7.1,5.035Z" fill="#2b0700"/>
              </g>
            </g>
            <g id="Group_104855" data-name="Group 104855" transform="translate(41.738 31.847)">
              <g id="Group_104854" data-name="Group 104854" transform="translate(0 0)">
                <path id="Path_75836" data-name="Path 75836" d="M2.1,1.2l-.027-.08L1.647.343,1.62.262,1.486.048q0-.08-.107-.027L1.352.075,1.326.1,1.245.4,1.138,2.137l.134,1.205V3.4l.027.027v.161l.027.027V3.8l.027.107v.161l.027.08v.107l.027.482.027.134V5a5.19,5.19,0,0,1-.107,1.071q-.054.295-.268,1.071L.924,7.52.9,7.654l-.214.589L.656,8.27V8.3L.5,8.672.067,10.144.013,10.6a1.512,1.512,0,0,0,0,.4l.054.375.161.321.214.161.107.054h.08v.027H.79q.08.054.08-.054,0-.08-.054-.08L.79,11.778H.736L.71,11.751H.683v-.027H.629l-.054-.054L.469,11.51A.475.475,0,0,1,.415,11.3a.67.67,0,0,1,0-.268l.214-.723L1.486,8.7V8.672h.027V8.645l.054-.054L2.1,7.547q.107-.214.482-1.152l.187-.616L2.8,5.645l.054-.161.054-.321L2.959,5l.054-.321.027-.723-.027-.08V3.717l-.08-.455-.08-.241V2.967L2.4,1.843,2.37,1.735l-.054-.08L2.156,1.28Z" fill="#2b0700"/>
              </g>
            </g>
            <g id="Group_104857" data-name="Group 104857" transform="translate(12.212 43.652)">
              <g id="Group_104856" data-name="Group 104856" transform="translate(0 0)">
                <path id="Path_75837" data-name="Path 75837" d="M.214.027.161,0,.107.107.08.187V.321L.054.455V.616L.027.8V.911L0,.991v.723l.027.08.027.455.027.134v.161L.616,4.687.8,5.115l.054.08L.884,5.3l.107.161.161.321.027.027.054.08.054.054.054.027.027-.054V5.651l-.054-.482V5.062l-.027-.107-.08-.7-.054-.241-.027-.268-.4-2.009L.7,1.687V1.634L.348.428.321.295.295.241V.187L.241.107Z" transform="translate(0 0)" fill="#2b0700"/>
              </g>
            </g>
            <g id="Group_104859" data-name="Group 104859" transform="translate(16.39 44.375)">
              <g id="Group_104858" data-name="Group 104858" transform="translate(0 0)">
                <path id="Path_75838" data-name="Path 75838" d="M3.455.4l-.08.616.134,3,.428,2.544-1.1-1.205L2.758,5.3l-.134-.161L2.3,4.847l-.054-.08-.08-.054L.83,3.508.75,3.455.08,2.919q-.018-.018-.054,0H0V3l.107.241.027.107.054.08.536,1.58L.8,5.2,1.553,8.3v.054l.027.054.027.134.027.268.054.241L1.9,10.525l.054.241L2.3,13.337v.107l.027.08.054.295.054.027.027-.054.054-.268v-.107l.027-.107.107-1.687L2.357,8.275v-.08L2.33,8.141,1.848,6.213l-.054-.107-.241-.7-.4-.83.482.616.08.08.054.08.428.482.054.08L4.365,8.088l.589-.321-.161-.482-.027-.107L4.713,7.07,3.83,3.481,3.589,1.526V.054Q3.642,0,3.562,0L3.508.027,3.455.268Z" fill="#2b0700"/>
              </g>
            </g>
            <g id="Group_104861" data-name="Group 104861" transform="translate(62.925 33.761)">
              <g id="Group_104860" data-name="Group 104860" transform="translate(0 0)">
                <path id="Path_75839" data-name="Path 75839" d="M.116.357.2.491l.027.08.83,1.393.428.589.134.134.107.161.08.08.054.08.295.321q.83.884,1.339,1.339L5.124,6.008A20.27,20.27,0,0,0,7,7.266l4.071,2.2.134.08,2.919,1.205,1.232.375,4.821.884h.161l.161.027h.295a.071.071,0,0,0,.08-.08l-.054-.054-3.107-1.446q-.134-.054-.187-.08l-.187-.107-1.5-.589-.214-.107-3.7-1.393-.134-.027L9.57,7.266l-.241-.134L7.293,6.168,3.972,4.08A16.2,16.2,0,0,1,2.553,2.928L2.178,2.58,1.053,1.348.143.036A.087.087,0,0,0,.036.009Q-.018.089.009.116Z" fill="#300"/>
              </g>
            </g>
            <g id="Group_104863" data-name="Group 104863" transform="translate(22.608 45.206)">
              <g id="Group_104862" data-name="Group 104862" transform="translate(0 0)">
                <path id="Path_75840" data-name="Path 75840" d="M4.574.134Q4.628.08,4.547.054L4.467.027,3.664,0,3.449.027l-.08.027H3.262L3.048.107H2.941L2.432.268,2.325.321H2.271L2.217.348,2,.428,1.682.589,1.6.643,1.387.75,1.119.937,1.066.964.8,1.205l-.08.054-.134.134L.5,1.446l-.348.428L.129,1.9.1,1.955l-.054.054-.027.08q-.054.054.027.08l.161.054H.262l.054.027L.745,2.3H.932l.214-.027h.187l.214-.027L1.6,2.223h.054l.562-.134.161-.08h.054l.75-.375.08-.08.187-.107.107-.08.027-.027.054-.027L3.8,1.152l.08-.054L4.092.884,4.146.8,4.2.75,4.467.375l.08-.161Z" transform="translate(0)" fill="#2b0700"/>
              </g>
            </g>
            <g id="Group_104865" data-name="Group 104865" transform="translate(0 33.208)">
              <g id="Group_104864" data-name="Group 104864" transform="translate(0 0)">
                <path id="Path_75841" data-name="Path 75841" d="M1.1.054.643,0,.054.027,0,.107V.161L.214.589.268.643V.67l.375.455.536.509.134.107.134.08.054.054.214.134L6.508,4.178q.054.054.107-.054l-.027-.08L6.347,3.8,6.24,3.669l-.161-.134-.348-.348L3.107.991A3.509,3.509,0,0,0,2.544.562L2.33.428,1.366.107H1.312L1.232.08Z" transform="translate(0 0)" fill="#2b0700"/>
              </g>
            </g>
            <g id="Group_104867" data-name="Group 104867" transform="translate(3.481 23.974)">
              <g id="Group_104866" data-name="Group 104866" transform="translate(0 0)">
                <path id="Path_75842" data-name="Path 75842" d="M1.152.905.7.423H.67V.4H.643L.616.343.509.289.187.021Q.134-.032.054.048L.027.5,0,.611l.027.643.027.134v.161l.161.643.027.187.08.241.054.107.054.161L3.053,7.279l.107.214.321.482q.08.08.107.027a.087.087,0,0,0,.027-.107L1.982,2.217,1.9,2.057l-.054-.08L1.821,1.9l-.107-.161-.08-.161-.375-.536L1.205.986Z" transform="translate(0 0)" fill="#2b0700"/>
              </g>
            </g>
            <g id="Group_104869" data-name="Group 104869" transform="translate(6.561 37.359)">
              <g id="Group_104868" data-name="Group 104868" transform="translate(0 0)">
                <path id="Path_75843" data-name="Path 75843" d="M.027,0,0,.08.295,2.624l.054.187.723,3.562q.187.83.616,2.223l2.491,7.15q.321.991.857,2.33L8.115,25.2l.482.777q.08.08.107.027.08-.054.027-.107L8.6,25.629,7.981,24.1l-.08-.161-.134-.348L3.615,9.293,1.526,3.133.295.321.134.054Q.134,0,.027,0Z" transform="translate(0 0)" fill="#2b0700"/>
              </g>
            </g>
            <g id="Group_104871" data-name="Group 104871" transform="translate(65.746 9.968)">
              <g id="Group_104870" data-name="Group 104870" transform="translate(0 0)">
                <path id="Path_75844" data-name="Path 75844" d="M21.317,12.18l-.268-.348L21,11.725l-.08-.08-.536-.723-.268-.295-.027-.054-1.634-1.58q-.428-.4-1.339-1.152L14.274,5.7a.527.527,0,0,1-.187-.134L11.355,3.851q-1.607-.937-2.839-1.5L6.829,1.6l-.187-.054-.027-.027H6.561l-.08-.054L3.508.557Q2.624.37,1.66.209L.054.021Q0-.032,0,.048L.027.1,4.338,1.628l1.419.67.161.054.161.08.08.054h.027l.027.027,1.741.937q.964.536,2.651,1.634l7.124,5.383L19.2,11.912l.509.616.08.08.268.4.134.161,1.232,2.2.054.187.375.857.107.348.054.08v.027l.027.054.134.428.027.027v.054l.482,1.955v.134l.107.75v.161l.027.268.027.08v.75a8.624,8.624,0,0,1-.187,1.794l-.214,1.044-.054.107-.107.4q-.054.054.027.054.054.054.054-.027l.214-.375L22.6,24.5l.4-.884.241-.8L23.3,22.7l.268-1.393.027-.455.027-.08V20.4l.027-.161-.054-1.5-.187-1.232-.054-.187-.027-.187v-.054l-.027-.054-.027-.08-.08-.375-.027-.027v-.054l-.482-1.526-.054-.107-.054-.187Z" fill="#812511"/>
              </g>
            </g>
            <g id="Group_104873" data-name="Group 104873" transform="translate(65.398 14.615)">
              <g id="Group_104872" data-name="Group 104872" transform="translate(0 0)">
                <path id="Path_75845" data-name="Path 75845" d="M3.937,2.525.08.034Q0-.046,0,.061V.115L6.32,5.98Q7.766,7.426,8.489,8.2l3.642,4.338.616.857q.643.884.964,1.419l1.526,2.517.08.187.054.08,1.66,3.7q.08.241.241.7l.4,1.205.027.161.268.964.027.161.054.161.7,5.062.027.643a.047.047,0,0,0,.054.054l.027-.027.08-.428a11.35,11.35,0,0,0,.134-1.178l.054-.4.027-2.3L18.8,23.093l-.054-.161-.027-.187-.7-2.625-1.259-3.107-.054-.08-.027-.107-.723-1.366-3.24-4.767L11.569,9.381l-.134-.187L9.8,7.506l-.134-.161-.161-.134Q8.382,6.087,7.15,5.069Z" transform="translate(0 0)" fill="#812511"/>
              </g>
            </g>
            <g id="Group_104875" data-name="Group 104875" transform="translate(53.775 22.822)">
              <g id="Group_104874" data-name="Group 104874" transform="translate(0 0)">
                <path id="Path_75846" data-name="Path 75846" d="M0,.048.027.1l.8.589L.937.744l.214.187.134.08.241.214.134.08.134.134.428.348L2.437,2l.08.054,1.526,1.66.964,1.366.187.348.08.107.027.054.054.054.214.375v.027l.027.027L6.32,7.52l.08.134.937,2.33.027.054.964,3.589.027.054v.08l.08.428v.054h.027v.08l.054.268.321,2.892v.241l.027.134.027,1.259.027.214-.054,3.4q-.054.054.027.054l.054-.027.509-1.66.054-.348.054-.161.375-2.6v-.134l.027-.107.027-1.044q.027-.964-.054-2.276l-.027-.295V14l-.027-.027V13.84l-.054-.295v-.161l-.536-2.6-1.1-2.973L6.829,5.324,6.775,5.27,6.534,4.9l-.027-.054-.054-.054-.08-.134-.536-.7L4.151,2.244l-.214-.161L3.856,2,3.749,1.95l-.723-.536L2.919,1.36,2.33.986Q2.062.825,1.125.4L1.018.343.911.316.7.236.589.182.054.021Q0-.032,0,.048Z" transform="translate(0 0)" fill="#812511"/>
              </g>
            </g>
            <g id="Group_104877" data-name="Group 104877" transform="translate(43.224 26.379)">
              <g id="Group_104876" data-name="Group 104876" transform="translate(0 0)">
                <path id="Path_75847" data-name="Path 75847" d="M9.561.054,9.507.295,9.373,1.446l-.027.134v.134L8.73,5.57,8.088,8.007l-.161.428-.054.241-.054.107-.027.107-.107.214-.08.241L6.8,11.06l-.536.884-.054.107L5.249,13.31q-.482.562-1.178,1.232l-.616.536-.161.107-.134.134-.321.214-.054.054-.643.455L.027,17.273,0,17.327q0,.08.054.027l.536-.08H.67l.8-.187.134-.054.134-.027.911-.321.509-.241.107-.027.08-.054a13.175,13.175,0,0,0,1.473-.83A13.8,13.8,0,0,0,6.293,14.3l.348-.375.107-.08.884-1.125A10.474,10.474,0,0,0,8.677,10.9L9.32,9.293l.027-.134.348-1.232.348-2.383.027-.67L10.1,4.66,9.936,1.714V1.58L9.641.027,9.587,0Z" fill="#812511"/>
              </g>
            </g>
            <g id="Group_104879" data-name="Group 104879" transform="translate(66.148 0)">
              <g id="Group_104878" data-name="Group 104878" transform="translate(0 0)">
                <path id="Path_75848" data-name="Path 75848" d="M1.768,0H1.419L1.366.027H1.259L1.152.054.643.241.214.509.161.562.027.67a.067.067,0,0,0,0,.107L.08.8H.107L.241.83H.4L.509.857H.643L.75.884H.83L.884.911l.295.054.054.027.08.027.027.027h.027l.08.027L1.5,1.1l.08.08h.027l.054.054.268.428.107.321v.107l.321,1.768V3.99l.027.134-.562,6.16v.134q-.08.08.054.08.08,0,.08-.054l.214-.482L3.455,5.651,3.83,2.678,3.642,1.607l-.08-.161-.054-.161-.08-.134L3.4,1.071,3.24.857A3.176,3.176,0,0,0,2.785.348Q2.732.321,2.2.08Z" transform="translate(0)" fill="#812511"/>
              </g>
            </g>
            <g id="Group_104881" data-name="Group 104881" transform="translate(4.312 23.46)">
              <g id="Group_104880" data-name="Group 104880" transform="translate(0 0)">
                <path id="Path_75849" data-name="Path 75849" d="M.321,0,.054.054,0,.107.027.134.268.295l.08.027.8.482L1.178.83l.107.054.161.107.161.08.295.214.054.027.027.027.08.054L3.187,2.3l.08.08.08.054.7.723.054.08.161.161.268.348.027.054.027.027.134.187.08.08.107.187.134.161.562.884.08.161.295.455.08.161.107.134.589.991.054.027L6.829,7.2l.027-.134V6.936l.027-.107-.027-.991L6.481,4.231,6.427,4.1,6.4,3.99,5.811,2.866a8.92,8.92,0,0,0-.643-.857l-.375-.4L3.723.8,3.508.7,3.4.616,3.16.509,3.053.482,2.785.348H2.732L2.624.295,2.517.268,2.464.241H2.41L2.2.161,1.982.134,1.794.08,1.419.027Z" transform="translate(0 0)" fill="#812511"/>
              </g>
            </g>
          </g>
          <g id="Group_104889" data-name="Group 104889" transform="translate(11.068 53.47)">
            <g id="Group_104884" data-name="Group 104884" transform="translate(0 4.329) rotate(-15.965)">
              <g id="Group_104883" data-name="Group 104883" transform="translate(0 0)">
                <path id="Path_75850" data-name="Path 75850" d="M12.931,3.356A7.031,7.031,0,0,0,7.95.062Q4.8-.437,2.272,3.088A13.747,13.747,0,0,0,.023,11.9a17.294,17.294,0,0,0,2.758,8.945,17.012,17.012,0,0,0,5.543,5.41,37.968,37.968,0,0,0,4.847,1.955q.267-1.373,1.66-5.624a23.737,23.737,0,0,0,.643-10.31Q14.746,6.175,12.931,3.356Z" fill="#e2ad98"/>
              </g>
            </g>
            <g id="Group_104886" data-name="Group 104886" transform="translate(5.83 6.546)">
              <g id="Group_104885" data-name="Group 104885" transform="translate(0 0)">
                <path id="Path_75851" data-name="Path 75851" d="M.08,1.205.4,1.1l.107-.054.134-.027L.937.911h.08L1.312.83,1.5.8,1.607.777h.107L2.142.723,2.624.75l.482.107a4.426,4.426,0,0,1,.964.4l.482.348.214.187.054.027L5.2,2.2l.991,1.232L7.391,5.41l.054.134L8.73,8.061l.054.08.187.4.08.107.08.187.08.134q0,.08.054.027.08,0,.027-.054l-.08-.616L8.891,7.017,7.9,4.285,6.668,2.25,5.7,1.205A.29.29,0,0,1,5.57,1.1L5.142.777,4.392.348,4.231.295,4.071.214,3.91.161,3.267.027H3.107L2.946,0H2.651L1.687.161l-.161.08H1.473L1.366.295l-.214.08L.295.884,0,1.125v.08Z" transform="translate(0)" fill="#c18770"/>
              </g>
            </g>
            <g id="Group_104888" data-name="Group 104888" transform="translate(3.787 1.966)">
              <g id="Group_104887" data-name="Group 104887" transform="translate(0 0)">
                <path id="Path_75852" data-name="Path 75852" d="M4.453,0,3.409.187,2.9.348,2.82.4,2.659.455l-.08.054L2.418.562l-.08.054-.08.027L1.8.937,1.748.964l-.08.08-.054.027L1.588,1.1l-.482.375-.562.67-.08.134L.356,2.41.034,3q-.08.08.027.08H.115l.616-.562.134-.08L.972,2.33l.134-.08.134-.107.777-.455h.027l.08-.054H2.15l.027-.027.509-.187.054-.027L2.9,1.339l.054-.027h.08l.161-.054h.054l.08-.027h.08l.08-.027h.054l.08-.027.161-.027h.134L4.239,1.1h.295q.292,0,.8.054L6.6,1.393l.295.08h.054l.027.027H7l.777.295.777.428a1.327,1.327,0,0,1,.348.241l.107.054.08.054.08.08.107.054.08.08.08.054.509.428.964,1.018.054.107.08.08L12.38,6.427v.027l.027.027.027.054.187.268,1.794,3.16q0,.08.054.027.08,0,.027-.054l-1.687-3.7-.027-.027V6.186L11.63,4.2,11.5,4.017l-.054-.107L10.131,2.383l-.268-.241-.054-.027-.027-.027-.107-.08-.08-.08-.107-.08-.08-.08L9.033,1.5A5.8,5.8,0,0,0,8.2.991L7.346.562,7.319.536H7.292L7.131.455l-.7-.214A6.682,6.682,0,0,0,5.471.054,6.37,6.37,0,0,0,4.507,0Z" fill="#f0cbbc"/>
              </g>
            </g>
          </g>
          <g id="Group_104896" data-name="Group 104896" transform="translate(56.507 52.183)">
            <g id="Group_104891" data-name="Group 104891" transform="translate(0 0)">
              <g id="Group_104890" data-name="Group 104890" transform="translate(0 0)">
                <path id="Path_75853" data-name="Path 75853" d="M2.009,23.124q7.8,4.907,9.962-2.812l.107-1.607L8.945,15.358a38.314,38.314,0,0,1-.937-14.3q-2.5-2.675-3.776,1.419L0,21.035A3.787,3.787,0,0,0,2.009,23.124Z" fill="#e2ad98"/>
              </g>
            </g>
            <g id="Group_104893" data-name="Group 104893" transform="translate(6.656 1.111)">
              <g id="Group_104892" data-name="Group 104892" transform="translate(0 0)">
                <path id="Path_75854" data-name="Path 75854" d="M.012,9.373a33.139,33.139,0,0,0,.455,3.883q.356,1.846.4,1.928,1.634,1.366,2.758,2.3A2.94,2.94,0,0,1,4.7,20.166a2.728,2.728,0,0,1-1.071,1.928A3.226,3.226,0,0,0,5.85,19.362,2.779,2.779,0,0,0,4.324,16.5Q2.609,15.5,1.673,14.89l.295-.562-.161-.241-.643.027.7-.054L.789,8.489l.08-4.044L1.351,0A22.772,22.772,0,0,0,.334,4.285,29.688,29.688,0,0,0,.012,9.373Z" transform="translate(0)" fill="#f0cbbc"/>
              </g>
            </g>
            <g id="Group_104895" data-name="Group 104895" transform="translate(0.027 1.111)">
              <g id="Group_104894" data-name="Group 104894" transform="translate(0 0)">
                <path id="Path_75855" data-name="Path 75855" d="M8.034,0,7.981.027,7.472,4.606,7.445,6.454l-.027.107.027.107.08,2.785.536,4.338.187.884a.489.489,0,0,0,.214.348l.643.4L10.525,16.6l.67.83.08.161.107.134.134.295.054.08.187.562.027.161v.08l.027.08.027.268q.01-.036.027-.08l-.027.161v-.08q-.269.7-.295.777a3.38,3.38,0,0,1-.4.8,4.515,4.515,0,0,1-.509.723,7.544,7.544,0,0,1-.643.616,4.416,4.416,0,0,1-.75.482,4.961,4.961,0,0,1-.83.348,5.819,5.819,0,0,1-.884.214l-.455.08H6.963l-.134.027H6.722l-.107.027h-.7l-.241-.027a3.407,3.407,0,0,1-.911-.134,5.72,5.72,0,0,1-.911-.241L3,22.576l-1.553-1.1-.7-.67a4.493,4.493,0,0,1-.67-.723q-.027-.027-.08,0v.08l.562.8a5.577,5.577,0,0,0,.643.75,8.589,8.589,0,0,0,.723.7l.8.589.911.509.937.348,1.018.214.509.054H7.15l.509-.054a9.654,9.654,0,0,0,1.018-.214,4,4,0,0,0,.991-.375,4.259,4.259,0,0,0,.911-.536,3.828,3.828,0,0,0,.777-.723l.67-.857a7.036,7.036,0,0,0,.482-.911,8.506,8.506,0,0,0,.348-.991l.027-.161-.027-.562L12.667,18l-.134-.295-.027-.107-.428-.75-.8-.991-.991-.884-.268-.161-.161-.134-.67-.428-.964-6.7V7.445l-.027-.107-.027-.67-.027-.134-.027-.777-.027-.134L8.061,4.151l-.027-.214L8.061.054Q8.115,0,8.034,0Z" transform="translate(0 0)" fill="#a97059"/>
              </g>
            </g>
          </g>
          <g id="Group_104915" data-name="Group 104915" transform="translate(38.815 53.561)">
            <g id="Group_104901" data-name="Group 104901" transform="translate(31.478 2.884)">
              <g id="Group_104898" data-name="Group 104898" transform="translate(0 0)">
                <g id="Group_104897" data-name="Group 104897" transform="translate(0 0)">
                  <path id="Path_75856" data-name="Path 75856" d="M6.526,4.259a4.809,4.809,0,0,0-.964-3.022A2.817,2.817,0,0,0,3.263,0,2.859,2.859,0,0,0,.948,1.238,4.864,4.864,0,0,0,0,4.259,4.8,4.8,0,0,0,.948,7.265,2.849,2.849,0,0,0,3.263,8.519a2.807,2.807,0,0,0,2.3-1.254A4.742,4.742,0,0,0,6.526,4.259Z" fill="#231915"/>
                </g>
              </g>
              <g id="Group_104900" data-name="Group 104900" transform="translate(1.172 3.407)">
                <g id="Group_104899" data-name="Group 104899" transform="translate(0 0)">
                  <path id="Path_75857" data-name="Path 75857" d="M1.576,1A1.211,1.211,0,0,0,1.319.274.644.644,0,0,0,.756,0,.688.688,0,0,0,.21.306,1.242,1.242,0,0,0,0,1.062a1.094,1.094,0,0,0,.257.707.673.673,0,0,0,.579.289.637.637,0,0,0,.53-.321A1.137,1.137,0,0,0,1.576,1Z" fill="#fff"/>
                </g>
              </g>
            </g>
            <g id="Group_104903" data-name="Group 104903" transform="translate(25.875 1.588)">
              <g id="Group_104902" data-name="Group 104902" transform="translate(0 0)">
                <path id="Path_75858" data-name="Path 75858" d="M13.315,2.2Q12.357.075,4.76,0-1.751,1.994.644,6.417A8.2,8.2,0,0,1,5.7,3.63,8.547,8.547,0,0,1,12.537,5.8,2.789,2.789,0,0,0,13.315,2.2Z" transform="translate(0)" fill="#e2ad98"/>
              </g>
            </g>
            <g id="Group_104905" data-name="Group 104905" transform="translate(26.541 4.18)">
              <g id="Group_104904" data-name="Group 104904" transform="translate(0 0)">
                <path id="Path_75859" data-name="Path 75859" d="M10.349,2.593l.13.13.162.1.551.421.81.745h.1v-.1l-.13-.324-.065-.1-.13-.259L11.126,2.3l-.713-.778L9.538.875l-.162-.1-.1-.032L9.02.583,8.825.519l-.162-.1L7.886.162h-.1L7.562.1h-.1L7.3.065h-.13l-.1-.032H6.687L6.492,0H6.1L5.909.032H5.52L4.353.259l-1.1.389-1.329.81-.292.259-.065.032-.389.486L1.113,2.3l-.032.065-.1.13-.227.227-.1.13-.032.065-.065.065-.551.778q-.032.032.032.1H.108l.81-.551.13-.065.486-.389L1.6,2.819l.065-.065.486-.389,1.523-.648.162-.032L4,1.62l1.491-.292h.324L5.974,1.3h.843l.162.032H7.14l.194.032h.13l.1.032h.065l.486.1.13.065.162.032.778.324.875.486.227.162Z" transform="translate(0)" fill="#231915"/>
              </g>
            </g>
            <g id="Group_104910" data-name="Group 104910" transform="translate(7.562 2.722)">
              <g id="Group_104907" data-name="Group 104907" transform="translate(0 0)">
                <g id="Group_104906" data-name="Group 104906" transform="translate(0 0)">
                  <path id="Path_75860" data-name="Path 75860" d="M6.526,4.259a4.809,4.809,0,0,0-.964-3.022A2.817,2.817,0,0,0,3.263,0,2.859,2.859,0,0,0,.948,1.238,4.864,4.864,0,0,0,0,4.259,4.8,4.8,0,0,0,.948,7.265,2.849,2.849,0,0,0,3.263,8.519a2.807,2.807,0,0,0,2.3-1.254A4.742,4.742,0,0,0,6.526,4.259Z" fill="#231915"/>
                </g>
              </g>
              <g id="Group_104909" data-name="Group 104909" transform="translate(1.172 3.407)">
                <g id="Group_104908" data-name="Group 104908" transform="translate(0 0)">
                  <path id="Path_75861" data-name="Path 75861" d="M1.576,1A1.211,1.211,0,0,0,1.319.274.644.644,0,0,0,.756,0,.688.688,0,0,0,.21.306,1.242,1.242,0,0,0,0,1.062a1.094,1.094,0,0,0,.257.707.673.673,0,0,0,.579.289.637.637,0,0,0,.53-.321A1.137,1.137,0,0,0,1.576,1Z" fill="#fff"/>
                </g>
              </g>
            </g>
            <g id="Group_104912" data-name="Group 104912" transform="translate(0.367 0)">
              <g id="Group_104911" data-name="Group 104911" transform="translate(0 0)">
                <path id="Path_75862" data-name="Path 75862" d="M7.227,0A17.162,17.162,0,0,0,5.38,1.069,14.637,14.637,0,0,0,0,7q.907-.745,1.847-1.458A7.15,7.15,0,0,1,8.361,4.18a33.575,33.575,0,0,1,7.1,2.593,4.348,4.348,0,0,0-1.588-2.2A70.879,70.879,0,0,0,7.227,0Z" fill="#e2ad98"/>
              </g>
            </g>
            <g id="Group_104914" data-name="Group 104914" transform="translate(0 3.241)">
              <g id="Group_104913" data-name="Group 104913" transform="translate(0 0)">
                <path id="Path_75863" data-name="Path 75863" d="M5.52.13,4.288.486l-.13.065-.13.032A7.582,7.582,0,0,0,3.122,1l-.032.032-.065.032-.1.065L2.8,1.2l-.519.356L1.534,2.2,1.5,2.236v.032L1.307,2.5.238,3.954l-.065.162-.162.259q-.032.032.032.1H.076l.259-.194.13-.13L1.826,2.981l.227-.227-.032.065L2.8,2.333l.389-.194.1-.065.13-.032.1-.065h.032l.259-.13h.065L3.9,1.815l.227-.065.032-.032h.065l.324-.13h.1L5.2,1.426h.1l1.069-.162.778-.032.13.032H7.95l.421.065H8.5l.1.032h.227l.227.032.227.065.421.065.454.13h.032l.065.032.1.032.227.032.843.292.421.194.227.065.1.065.1.032.843.421.194.13.194.1,1.977,1.3q.032.032.1-.032V4.245l-.292-.389-1-1.069-1.134-.94-.389-.259-.13-.065-.292-.194L10.964.648l-.94-.259-.259-.1L8.275.032H8.048L7.918,0H7.043A6.219,6.219,0,0,0,6.006.065Z" fill="#231915"/>
              </g>
            </g>
          </g>
          <g id="Group_104922" data-name="Group 104922" transform="translate(58.068 84.442)">
            <g id="Group_104917" data-name="Group 104917" transform="translate(0.702 0.331)">
              <g id="Group_104916" data-name="Group 104916" transform="translate(0 0)">
                <path id="Path_75864" data-name="Path 75864" d="M5.595,1.97Q3.761-1.471.267,1.1q-1.315,5.977,3.851,4.59A5.175,5.175,0,0,1,5.595,1.97Z" fill="#712024"/>
              </g>
            </g>
            <g id="Group_104919" data-name="Group 104919" transform="translate(0.514 4.115)">
              <g id="Group_104918" data-name="Group 104918" transform="translate(0 0)">
                <path id="Path_75865" data-name="Path 75865" d="M3.681,1.969q.192-.212-.029-.754Q3.441.7,2.283.292A3.8,3.8,0,0,0,.549.025Q-.029.167,0,.5a1.524,1.524,0,0,0,.558.783,6.12,6.12,0,0,0,1.035.733,1.991,1.991,0,0,0,1.247.262Q3.537,2.21,3.681,1.969Z" fill="#fdb4b8"/>
              </g>
            </g>
            <g id="Group_104921" data-name="Group 104921" transform="translate(0 0)">
              <g id="Group_104920" data-name="Group 104920" transform="translate(0 0)">
                <path id="Path_75866" data-name="Path 75866" d="M2.259.195,2.181.234,2.065.273,1.831.39,1.792.428H1.753L1.675.506H1.636L1.6.545,1.441.623H1.4V.662L1.363.7,1.285.74.974.974.74,1.208.7,1.285l-.156.156-.117.195-.078.195-.078.078-.039.078L.195,2.1l-.039.078L.078,2.61l-.039.039L0,3.35l.039.195V3.74l.156.74.078.156.039.156V4.83l.039.039v.078l.312.662.117.156.545.545.623.312.545.078a2.832,2.832,0,0,0,1.013-.117l.974-.312.156-.117.156-.078L4.83,6q0-.117-.078-.039H4.6L4.4,6H4.285l-.156.039-.9.039-.195-.039H2.8L2.61,6l-.39-.156L1.87,5.57A2.213,2.213,0,0,1,1.4,4.791V4.635l-.039-.078V4.48l-.039-.156-.039-.078V4.168L1.208,3.9l-.039-.273V3.038l.039-.117V2.766l.039-.117.039-.078V2.493l.039-.039.039-.078V2.337L1.519,2.1,1.6,2.026l.039-.078.312-.312L2.026,1.6l.039-.039L2.3,1.4l.039-.039h.039V1.324l.117-.078.156-.039.117-.078A2.709,2.709,0,0,1,3.74.935h.234L4.09.974h.156v.039H4.4l.078.039h.078l.117.039.039.039h.078l.273.117.156.117L5.3,1.4l.078.078a1.943,1.943,0,0,1,.467.467l.078.117.039.078.117.156.078.156q0,.117.078.039.117,0,.039-.078V2.259l-.117-.467a1.87,1.87,0,0,0-.39-.7l-.078-.078L5.609.9,4.986.428,4.83.351,4.713.273H4.635L4.558.234,4.519.195H4.441L3.817.039A4.633,4.633,0,0,0,3.116,0a2.505,2.505,0,0,0-.74.156Z" fill="#231915"/>
              </g>
            </g>
          </g>
          <g id="Group_104925" data-name="Group 104925" transform="matrix(0.896, -0.444, 0.444, 0.896, 32.301, 50.02)">
            <g id="Group_104924" data-name="Group 104924" transform="translate(0 0)">
              <g id="Group_104923" data-name="Group 104923">
                <path id="Path_75867" data-name="Path 75867" d="M8.994.777A25.509,25.509,0,0,0,2.345,2.2,14.435,14.435,0,0,1,4.08,0,10.347,10.347,0,0,0,2.12,1.526a10.886,10.886,0,0,0-.739.8L0,4.419,2.184,2.946A17.024,17.024,0,0,1,9.637,1.419a23.866,23.866,0,0,1,6.778.884q2.281.643,2.73.348a1.041,1.041,0,0,0,.45-1.312l-.032.08a1.3,1.3,0,0,1-.45.643,1.531,1.531,0,0,1-.835.08,18.3,18.3,0,0,1-2.57-.7A18.3,18.3,0,0,0,8.994.777Z" transform="translate(0 1.446)" fill="#2b0700"/>
                <path id="Path_75868" data-name="Path 75868" d="M0,3.642A25.509,25.509,0,0,1,6.649,2.223a18.3,18.3,0,0,1,6.714.669,18.3,18.3,0,0,0,2.57.7,1.531,1.531,0,0,0,.835-.08,1.3,1.3,0,0,0,.45-.643l.032-.08-.032-.08a2.3,2.3,0,0,0-1.253-1.232A17.206,17.206,0,0,0,11.371.241,17.552,17.552,0,0,0,3.566.669a10.347,10.347,0,0,0-1.831.777A14.435,14.435,0,0,0,0,3.642Z" transform="translate(2.345 0)" fill="#540e00"/>
              </g>
            </g>
          </g>
          <g id="Group_104928" data-name="Group 104928" transform="matrix(-0.833, -0.553, 0.553, -0.833, 80.422, 54.575)">
            <g id="Group_104927" data-name="Group 104927" transform="translate(0 0)">
              <g id="Group_104926" data-name="Group 104926">
                <path id="Path_75869" data-name="Path 75869" d="M6.722,3.276A16.334,16.334,0,0,1,1.753,2a12.917,12.917,0,0,0,1.3,1.975A8.123,8.123,0,0,1,1.585,2.6q-.286-.338-.552-.723L0,0,1.633,1.325A10.928,10.928,0,0,0,7.2,2.7,15.025,15.025,0,0,0,12.268,1.9q1.7-.578,2.041-.313a1.037,1.037,0,0,1,.336,1.18L14.621,2.7a1.187,1.187,0,0,0-.336-.578.967.967,0,0,0-.624-.072,11.873,11.873,0,0,0-1.921.626A11.486,11.486,0,0,1,6.722,3.276Z" fill="#2b0700"/>
                <path id="Path_75870" data-name="Path 75870" d="M0,0A16.334,16.334,0,0,0,4.97,1.277a11.486,11.486,0,0,0,5.018-.6A11.873,11.873,0,0,1,11.908.048a.967.967,0,0,1,.624.072A1.187,1.187,0,0,1,12.868.7l.024.072-.024.072a1.929,1.929,0,0,1-.936,1.108A11.208,11.208,0,0,1,8.5,3.059a10.987,10.987,0,0,1-5.834-.385,7.1,7.1,0,0,1-1.368-.7A12.917,12.917,0,0,1,0,0Z" transform="translate(1.753 1.999)" fill="#540e00"/>
              </g>
            </g>
          </g>
          <g id="Group_104930" data-name="Group 104930" transform="translate(37.412 73.941)">
            <g id="Group_104929" data-name="Group 104929" transform="translate(0 0)">
              <path id="Path_75871" data-name="Path 75871" d="M3.214,2.41v.8h.8m-.8,0v.8m3.214-.8L3.214,6.427,0,3.214,3.214,0Zm-4.017,0h.8" transform="translate(0 0)" fill="none" stroke="rgba(0,0,0,0)" stroke-linecap="round" stroke-linejoin="round" stroke-width="0.083"/>
            </g>
          </g>
        </g>
      </g>
    </g>
  </g>
</svg>
