<svg xmlns="http://www.w3.org/2000/svg" xmlns:xlink="http://www.w3.org/1999/xlink" width="375" height="270" viewBox="0 0 375 270">
  <defs>
    <clipPath id="clip-path">
      <rect id="Rectangle_8665" data-name="Rectangle 8665" width="375" height="270" transform="translate(15788.434 -12428)" fill="#fff" stroke="#707070" stroke-width="1" opacity="0.59"/>
    </clipPath>
    <clipPath id="clip-path-2">
      <rect id="Rectangle_8664" data-name="Rectangle 8664" width="189" height="209" transform="translate(88 125)" fill="#fff"/>
    </clipPath>
  </defs>
  <g id="Mask_Group_16612" data-name="Mask Group 16612" transform="translate(-15788.434 12428)" clip-path="url(#clip-path)">
    <g id="Mask_Group_16602" data-name="Mask Group 16602" transform="translate(15788.434 -12528)" clip-path="url(#clip-path-2)">
      <g id="male_teen_4" data-name="male teen 4" transform="translate(292.116 1615.861)">
        <g id="Group_104285" data-name="Group 104285" transform="translate(-45.029 -1225.153) rotate(165.86)">
          <g id="Group_104278" data-name="Group 104278" transform="matrix(0.978, -0.208, 0.208, 0.978, 0, 7.908)">
            <g id="Group_104277" data-name="Group 104277" transform="translate(0 0)">
              <path id="Path_75571" data-name="Path 75571" d="M20.4,59.911a37.677,37.677,0,0,1-2.924,7.609L.009,62.68q-.026-1.967.026-3.934A367.426,367.426,0,0,1,3.606,15.269,123.949,123.949,0,0,0,4.848.052L17.244,0a125.967,125.967,0,0,0,.725,19.849q1.117,8.665,2.459,21.972T20.4,59.911Z" transform="translate(0)" fill="#e2ad98"/>
            </g>
          </g>
          <g id="Group_104280" data-name="Group 104280" transform="translate(4.686 0)">
            <g id="Group_104279" data-name="Group 104279" transform="translate(0 0)">
              <path id="Path_75572" data-name="Path 75572" d="M12.429,6.215a5.986,5.986,0,0,1-1.822,4.392,5.986,5.986,0,0,1-4.392,1.822,5.986,5.986,0,0,1-4.392-1.822A5.986,5.986,0,0,1,0,6.215,5.986,5.986,0,0,1,1.822,1.822,5.987,5.987,0,0,1,6.215,0a5.986,5.986,0,0,1,4.392,1.822A5.986,5.986,0,0,1,12.429,6.215Z" fill="#e2ad98"/>
            </g>
          </g>
          <g id="Group_104282" data-name="Group 104282" transform="translate(5.624 12.024)">
            <g id="Group_104281" data-name="Group 104281" transform="translate(0 0)">
              <path id="Path_75573" data-name="Path 75573" d="M6.413,50.956l.311,2.277q.052.052-.026.052-.052.052-.052-.026L3.954,38.819l-1.63-12.06L.021.052Q-.031,0,.047,0L.1.026,6.335,50.387Q6.387,50.775,6.413,50.956Z" transform="translate(0)" fill="#c18770"/>
            </g>
          </g>
          <g id="Group_104284" data-name="Group 104284" transform="translate(19.024 65.051)">
            <g id="Group_104283" data-name="Group 104283" transform="translate(0 0)">
              <path id="Path_75574" data-name="Path 75574" d="M3.106,3.882V3.106h.776m-.776,0V2.329m3.106.776L3.106,0,0,3.106,3.106,6.211Zm-3.882,0h.776" fill="none" stroke="rgba(0,0,0,0)" stroke-linecap="round" stroke-linejoin="round" stroke-width="0.079"/>
            </g>
          </g>
        </g>
        <g id="Group_104304" data-name="Group 104304" transform="matrix(-0.989, -0.15, 0.15, -0.989, -74.178, -1275.116)">
          <g id="Group_104287" data-name="Group 104287" transform="translate(1.242 6.833)">
            <g id="Group_104286" data-name="Group 104286" transform="translate(0 0)">
              <path id="Path_75575" data-name="Path 75575" d="M17.988,0a216.445,216.445,0,0,1,6.729,32.947L5.125,36.881Q2.009,19.752,0,2.9Z" fill="#e2ad98"/>
            </g>
          </g>
          <g id="Group_104289" data-name="Group 104289" transform="translate(1.216 0)">
            <g id="Group_104288" data-name="Group 104288" transform="translate(0 0)">
              <path id="Path_75576" data-name="Path 75576" d="M18.324,9.162a8.852,8.852,0,0,1-2.692,6.5,8.81,8.81,0,0,1-6.47,2.666,8.9,8.9,0,0,1-6.5-2.666A8.9,8.9,0,0,1,0,9.162a8.81,8.81,0,0,1,2.666-6.47A8.852,8.852,0,0,1,9.162,0a8.767,8.767,0,0,1,6.47,2.692A8.767,8.767,0,0,1,18.324,9.162Z" fill="#e2ad98"/>
            </g>
          </g>
          <g id="Group_104292" data-name="Group 104292" transform="translate(4.969 32.214)">
            <g id="Group_104291" data-name="Group 104291" transform="translate(0 0)">
              <g id="Group_104290" data-name="Group 104290" transform="translate(0 0)">
                <path id="Path_75577" data-name="Path 75577" d="M1.631,14.735,0,4.1A30.388,30.388,0,0,1,20.006.345l1.734,9.835Z" fill="#c18770"/>
              </g>
            </g>
          </g>
          <g id="Group_104294" data-name="Group 104294" transform="translate(16.409 60.977)">
            <g id="Group_104293" data-name="Group 104293" transform="translate(0 0)">
              <path id="Path_75578" data-name="Path 75578" d="M30.385,15.192a14.637,14.637,0,0,1-4.452,10.741,14.637,14.637,0,0,1-10.741,4.452A14.637,14.637,0,0,1,4.452,25.933,14.637,14.637,0,0,1,0,15.192,14.637,14.637,0,0,1,4.452,4.452,14.637,14.637,0,0,1,15.192,0,14.637,14.637,0,0,1,25.933,4.452,14.637,14.637,0,0,1,30.385,15.192Z" transform="translate(0 0)" fill="#7a2230"/>
            </g>
          </g>
          <g id="Group_104296" data-name="Group 104296" transform="translate(0.052 34.329)">
            <g id="Group_104295" data-name="Group 104295" transform="translate(0 0)">
              <path id="Path_75579" data-name="Path 75579" d="M35.613,2.682,46.328,38.269,21.119,52.892Q12.216,45.05,0,8.583,12.32-4.8,35.613,2.682Z" transform="translate(0 0)" fill="#7a2230"/>
            </g>
          </g>
          <g id="Group_104299" data-name="Group 104299" transform="translate(0 34.361)">
            <g id="Group_104298" data-name="Group 104298" transform="translate(0 0)">
              <g id="Group_104297" data-name="Group 104297" transform="translate(0 0)">
                <path id="Path_75580" data-name="Path 75580" d="M11.233,37.667A254.452,254.452,0,0,1,0,8.5Q11.842-4.556,34.785,2.442,8.955.967,5.565,10.336q-2.071,5.694,12.5,39.081A66.553,66.553,0,0,1,11.233,37.667Z" fill="#4b0f18"/>
              </g>
            </g>
          </g>
          <g id="Group_104301" data-name="Group 104301" transform="translate(38.724 47.493)">
            <g id="Group_104300" data-name="Group 104300" transform="translate(0 0)">
              <path id="Path_75581" data-name="Path 75581" d="M6.983,23.371,3.67,15.192.124.854l-.1-.8Q-.031,0,.047,0L.1.026.668,1.682,7.06,23.345q.052.052-.026.052Q6.983,23.449,6.983,23.371Z" transform="translate(0 0)" fill="#4b0f18"/>
            </g>
          </g>
          <g id="Group_104303" data-name="Group 104303" transform="translate(28.496 73.064)">
            <g id="Group_104302" data-name="Group 104302" transform="translate(0 0)">
              <path id="Path_75582" data-name="Path 75582" d="M3.106,3.882V3.106h.776m-.776,0V2.329m3.106.776L3.106,0,0,3.106,3.106,6.212Zm-3.882,0h.776" transform="translate(0)" fill="none" stroke="rgba(0,0,0,0)" stroke-linecap="round" stroke-linejoin="round" stroke-width="0.079"/>
            </g>
          </g>
        </g>
        <g id="Group_104314" data-name="Group 104314" transform="matrix(0.99, -0.141, 0.141, 0.99, -174.421, -1334.526)">
          <g id="Group_104306" data-name="Group 104306" transform="translate(0 32.509)">
            <g id="Group_104305" data-name="Group 104305" transform="translate(0 0)">
              <path id="Path_75583" data-name="Path 75583" d="M79.1,55.08A334.059,334.059,0,0,0,75.579,0L8.283,2.9A367.64,367.64,0,0,1,0,55.7Q37.191,69.981,79.1,55.08Z" fill="#ede6de"/>
            </g>
          </g>
          <g id="Group_104308" data-name="Group 104308" transform="translate(8.07 2.077)">
            <g id="Group_104307" data-name="Group 104307" transform="translate(0 0)">
              <path id="Path_75584" data-name="Path 75584" d="M0,34.027A32.79,32.79,0,0,0,9.959,58.094a32.79,32.79,0,0,0,24.068,9.959,32.79,32.79,0,0,0,24.068-9.959,32.79,32.79,0,0,0,9.959-24.068A32.79,32.79,0,0,0,58.094,9.959,32.79,32.79,0,0,0,34.027,0,32.79,32.79,0,0,0,9.959,9.959,32.79,32.79,0,0,0,0,34.027Z" transform="translate(0 0)" fill="#ede6de"/>
            </g>
          </g>
          <g id="Group_104311" data-name="Group 104311" transform="translate(0.052 0)">
            <g id="Group_104310" data-name="Group 104310" transform="translate(0)">
              <g id="Group_104309" data-name="Group 104309" transform="translate(0)">
                <path id="Path_75585" data-name="Path 75585" d="M40.715,9.007q.8-.026,1.631-.026.828.1,1.657.233a4.453,4.453,0,0,1,.492-.026,36.789,36.789,0,0,1-.466-7.014,8.591,8.591,0,0,1,.129-1.165A9.5,9.5,0,0,1,44.364,0L43.9,1.475A35.085,35.085,0,0,0,22.933,6.419l-6.756,7.04a55.935,55.935,0,0,0-5.953,10.276A48.023,48.023,0,0,0,8.179,33.752,421.91,421.91,0,0,1,0,88.392a44.081,44.081,0,0,0,6.937,2.252q4.261,1.061,6.7,1.786a35.672,35.672,0,0,0,6.083,1.191q3.643.473,7.532,1.191a38.074,38.074,0,0,0,7.869.673q4.012-.073,5.694-.129t6.885-.388a66.748,66.748,0,0,0,9.5-1.217q4.179-.725,7.17-1.5,3.02-.777,3.727-.984.7-.181,1.4-.388.7-.233,1.4-.44-.544.1-1.061.233-4.245.828-8.645,1.32-3.132.362-6.316.673a112.861,112.861,0,0,1-11.57.388,61.782,61.782,0,0,1-7.17-.569,58.522,58.522,0,0,1-10.095-2.3,22.7,22.7,0,0,1-7.066-3.908A13.611,13.611,0,0,1,14.313,79,36.4,36.4,0,0,1,13.3,73.12a88.083,88.083,0,0,1-.336-10.664q.129-4.012.388-8.076.155-2.77.44-5.539.339-3.106.6-7.4.276-4.3,1.113-9.4a30.923,30.923,0,0,1,3.235-9.525,20.743,20.743,0,0,1,6.652-7.325,42.577,42.577,0,0,1,6.16-3.572A28.021,28.021,0,0,1,40.715,9.007Z" fill="#dad0c5"/>
              </g>
            </g>
          </g>
          <g id="Group_104313" data-name="Group 104313" transform="translate(36.444 92.248)">
            <g id="Group_104312" data-name="Group 104312" transform="translate(0 0)">
              <path id="Path_75586" data-name="Path 75586" d="M3.106,2.33v.777h.777m-.777,0v.777m3.106-.777L3.106,6.212,0,3.106,3.106,0Zm-3.883,0h.777" transform="translate(0 0)" fill="none" stroke="rgba(0,0,0,0)" stroke-linecap="round" stroke-linejoin="round" stroke-width="0.079"/>
            </g>
          </g>
        </g>
        <g id="Group_104339" data-name="Group 104339" transform="matrix(0.951, 0.308, -0.308, 0.951, -149.039, -1397.292)">
          <g id="Group_104316" data-name="Group 104316" transform="translate(29.377 0)">
            <g id="Group_104315" data-name="Group 104315" transform="translate(0)">
              <path id="Path_75587" data-name="Path 75587" d="M31.318,18.586,33.881,6.317a29.25,29.25,0,0,0-8.438-4.84A26.627,26.627,0,0,0,16.927,0,28.552,28.552,0,0,0,.6,4.919L0,18.586Z" fill="#e2ad98"/>
            </g>
          </g>
          <g id="Group_104318" data-name="Group 104318" transform="translate(8.153 3.03)">
            <g id="Group_104317" data-name="Group 104317" transform="translate(0 0)">
              <path id="Path_75588" data-name="Path 75588" d="M72.472,20.473a18.029,18.029,0,0,0-2.744-9.059q-2.5-3.951-8.541-6.367A52.674,52.674,0,0,1,52.9,1.165Q50.793,6.781,43.9,10.793,37.03,14.831,31.862,9.551,26.714,4.3,25.417,3.184A11.047,11.047,0,0,1,23.01,0a42.993,42.993,0,0,0-5.435,1.5Q13.02,2.932,8.464,4.426A54.033,54.033,0,0,0,0,8.075l6.833,71.23q2.692-3.675,5.642-7.118,2.64-3.08,5.539-5.979L19.1,65.121l1.087-1.035q2.1-1.915,4.348-3.649a43.605,43.605,0,0,1,8.671-5.1,27.529,27.529,0,0,1,8.515-2.174,26.054,26.054,0,0,1,8.412.751,31.726,31.726,0,0,1,8.257,3.624,38.353,38.353,0,0,1,5.151,3.779,55.032,55.032,0,0,1,4.555,4.4,68.489,68.489,0,0,1,6.367,7.894Z" fill="#ede6de"/>
            </g>
          </g>
          <g id="Group_104320" data-name="Group 104320" transform="translate(0.259 9.216)">
            <g id="Group_104319" data-name="Group 104319" transform="translate(0 0)">
              <path id="Path_75589" data-name="Path 75589" d="M30.387,15.193A14.637,14.637,0,0,0,25.935,4.452,14.638,14.638,0,0,0,15.193,0,14.638,14.638,0,0,0,4.452,4.452,14.638,14.638,0,0,0,0,15.193,14.638,14.638,0,0,0,4.452,25.935a14.638,14.638,0,0,0,10.741,4.452,14.638,14.638,0,0,0,10.741-4.452A14.637,14.637,0,0,0,30.387,15.193Z" transform="translate(0 0)" fill="#ede6de"/>
            </g>
          </g>
          <g id="Group_104323" data-name="Group 104323" transform="translate(10.69 36.73)">
            <g id="Group_104322" data-name="Group 104322" transform="translate(0 0)">
              <g id="Group_104321" data-name="Group 104321">
                <path id="Path_75590" data-name="Path 75590" d="M13.511,0Q.026,2.2,0,2.174l4.245,43.69L13.33,34.683Z" fill="#dad0c5"/>
              </g>
            </g>
          </g>
          <g id="Group_104328" data-name="Group 104328" transform="translate(0 3.418)">
            <g id="Group_104325" data-name="Group 104325" transform="translate(0 0)">
              <g id="Group_104324" data-name="Group 104324" transform="translate(0 0)">
                <path id="Path_75591" data-name="Path 75591" d="M31.06,21.224A74.456,74.456,0,0,1,35.874,5.435L29.817,0A133.391,133.391,0,0,0,10.353,6.445Q.5,10.452,0,21.9q1.377,8.694,7.92,12.346l.492.259q.329.183.647.336.071.031.129.052l.44.181A14.014,14.014,0,0,0,13.9,36.107a15.449,15.449,0,0,0,1.553.078,14.638,14.638,0,0,0,10.741-4.452,14.282,14.282,0,0,0,1.087-1.217Q30.007,27.561,31.06,21.224Z" fill="#7a2230"/>
              </g>
            </g>
            <g id="Group_104327" data-name="Group 104327" transform="translate(59.479 1.035)">
              <g id="Group_104326" data-name="Group 104326" transform="translate(0 0)">
                <path id="Path_75592" data-name="Path 75592" d="M10.4,9.525q4.953,3.932,8.36,12.036,1.589,3.748,2.769,7.118a69.727,69.727,0,0,1-.1-8.179,20.762,20.762,0,0,0-.44-5.591q-.212-2.584-3.054-5.617a19.422,19.422,0,0,0-6.5-4.97A52.6,52.6,0,0,1,2.433,0L0,3.934A31.039,31.039,0,0,1,10.4,9.525Z" fill="#7a2230"/>
              </g>
            </g>
          </g>
          <g id="Group_104330" data-name="Group 104330" transform="translate(44.881 4.091)">
            <g id="Group_104329" data-name="Group 104329" transform="translate(0 0)">
              <path id="Path_75593" data-name="Path 75593" d="M10.146,3.882l-.155.078L9.5,4.271,7.247,5.384,3.908,6.419l-.155.026L3.6,6.5.052,7.066H.026L0,7.118l.026.026L.233,7.2l1.4.1.129.026,1.786-.052.336-.052h.181l1.449-.259,1.527-.44a12.089,12.089,0,0,0,1.527-.6l.751-.388,2.3-1.553L13.64,1.941,14.52.7l.1-.129.181-.336.1-.155Q14.934.052,14.883,0h-.052L14.7.155,13.614,1.191l-.1.078-.311.285-.1.078-.207.207Z" fill="#c18770"/>
            </g>
          </g>
          <g id="Group_104332" data-name="Group 104332" transform="translate(36.806 11.908)">
            <g id="Group_104331" data-name="Group 104331" transform="translate(0 0)">
              <path id="Path_75594" data-name="Path 75594" d="M16.539,1.631l-.569.233-.207.052a17.451,17.451,0,0,1-1.734.544q-.776.207-.906.233l-1.4.285H11.6l-.1.026-2.2.155-.129.026-.1-.026H8.334L6.911,3.028,4.5,2.511,1.889,1.553.932,1.087.725,1.009.569.906.078.673Q0,.6,0,.7V.751L1.579,2.122l.129.078.569.414L4.581,3.8h.052l1.035.362.129.026.1.052L6.16,4.3A10.837,10.837,0,0,0,8.2,4.659a13.3,13.3,0,0,0,2.174.026l.8-.078,2.3-.492.259-.078.1-.052.129-.026.492-.181a17.164,17.164,0,0,0,1.76-.751L17.7,2.2a12.75,12.75,0,0,0,1.191-.8L20.5.078V0h-.078l-1.5.673L18.843.7l-.569.259-.155.052-.155.078-1.216.492Z" transform="translate(0)" fill="#dad0c5"/>
            </g>
          </g>
          <g id="Group_104334" data-name="Group 104334" transform="translate(28.368 1.864)">
            <g id="Group_104333" data-name="Group 104333" transform="translate(0 0)">
              <path id="Path_75595" data-name="Path 75595" d="M21.768,13.046a18.8,18.8,0,0,0,8.179-3.831,16.452,16.452,0,0,0,2.666-2.821,8.979,8.979,0,0,0,1.5-3.287q-.207-1.32-1.242-1.4A2.165,2.165,0,0,0,30.9,2.926a17.86,17.86,0,0,1-3.287,3.468,10.743,10.743,0,0,1-3.442,1.864,23.5,23.5,0,0,1-3.882.88,15.107,15.107,0,0,1-8.93-1.061A14.894,14.894,0,0,1,4.737,2.434,5.225,5.225,0,0,0,3.6.7,2.36,2.36,0,0,0,1.838,0Q.8,0,0,1.476A25.392,25.392,0,0,0,4.09,8.154a14.111,14.111,0,0,0,8.645,4.97A21.829,21.829,0,0,0,21.768,13.046Z" transform="translate(0 0)" fill="#7a2230"/>
            </g>
          </g>
          <g id="Group_104336" data-name="Group 104336" transform="translate(28.451 3.449)">
            <g id="Group_104335" data-name="Group 104335" transform="translate(0 0)">
              <path id="Path_75596" data-name="Path 75596" d="M19.1,11.927q.984-.1,2.355-.336l2.744-.725,1.553-.673.311-.181q.078,0,.026-.052,0-.078-.052-.026l-.1.026-.414.155-.207.052-.129.052-.414.1q-.311.1-1.475.362L17.8,11.15l-3-.181L12.393,10.5l-1.346-.414A19.186,19.186,0,0,1,8.484,8.95l-1.165-.7q-.647-.44-1.087-.8l-.155-.078-.1-.1-.259-.207L3.308,4.68.1.047Q.1-.031.047.021q-.078,0-.026.052L.538,1.315q.44.932.7,1.372L2.273,4.421A19.457,19.457,0,0,0,3.722,6.31l.906.958a11.631,11.631,0,0,0,1.009.906,12.646,12.646,0,0,0,1.139.88l1.216.776,2.718,1.242a23.721,23.721,0,0,0,2.9.725l.7.1,3.494.129Z" fill="#4b0f18"/>
            </g>
          </g>
          <g id="Group_104338" data-name="Group 104338" transform="translate(45.787 78.349)">
            <g id="Group_104337" data-name="Group 104337" transform="translate(0 0)">
              <path id="Path_75597" data-name="Path 75597" d="M3.106,2.329v.776h.776m-.776,0v.776m3.106-.776L3.106,6.212,0,3.106,3.106,0Zm-3.882,0h.776" transform="translate(0 0)" fill="none" stroke="rgba(0,0,0,0)" stroke-linecap="round" stroke-linejoin="round" stroke-width="0.079"/>
            </g>
          </g>
        </g>
        <g id="Group_104344" data-name="Group 104344" transform="matrix(0.947, 0.32, -0.32, 0.947, -103.891, -1420.37)">
          <g id="Group_104341" data-name="Group 104341" transform="translate(0 0)">
            <g id="Group_104340" data-name="Group 104340" transform="translate(0 0)">
              <path id="Path_75598" data-name="Path 75598" d="M20.783,23.889l.1-5.1a62.572,62.572,0,0,1-6.626-3.339A45.71,45.71,0,0,1,2.692,5.073,9.588,9.588,0,0,1,1.424,2.743Q1.242,2.3.44,0L0,23.579Z" transform="translate(0 17.496)" fill="#e2ad98"/>
              <path id="Path_75599" data-name="Path 75599" d="M20.007,9.188h-.129A9.489,9.489,0,0,0,17,2.9,9.524,9.524,0,0,0,10.016,0a9.64,9.64,0,0,0-7.04,2.9A9.6,9.6,0,0,0,.1,9.913q0,.285.026.569L0,17.5q.8,2.3.984,2.743a9.589,9.589,0,0,0,1.268,2.329A45.71,45.71,0,0,0,13.821,32.948a62.574,62.574,0,0,0,6.626,3.339Z" transform="translate(0.44 0)" fill="#c18770"/>
            </g>
          </g>
          <g id="Group_104343" data-name="Group 104343" transform="translate(6.212 49.823)">
            <g id="Group_104342" data-name="Group 104342" transform="translate(0 0)">
              <path id="Path_75600" data-name="Path 75600" d="M3.106,2.329v.776h.776m-.776,0v.776m3.106-.776L3.106,6.212,0,3.106,3.106,0Zm-3.882,0h.776" transform="translate(0 0)" fill="none" stroke="rgba(0,0,0,0)" stroke-linecap="round" stroke-linejoin="round" stroke-width="0.079"/>
            </g>
          </g>
        </g>
        <g id="Group_104363" data-name="Group 104363" transform="translate(-176.588 -1374.188) rotate(-17.641)">
          <g id="Group_104346" data-name="Group 104346" transform="translate(1.242 47.649)">
            <g id="Group_104345" data-name="Group 104345" transform="translate(0 0)">
              <path id="Path_75601" data-name="Path 75601" d="M17.988,36.882A216.449,216.449,0,0,0,24.717,3.934L5.125,0Q2.009,17.13,0,33.983Z" transform="translate(0)" fill="#e2ad98"/>
            </g>
          </g>
          <g id="Group_104348" data-name="Group 104348" transform="translate(1.216 73.039)">
            <g id="Group_104347" data-name="Group 104347" transform="translate(0 0)">
              <path id="Path_75602" data-name="Path 75602" d="M18.324,9.162a8.853,8.853,0,0,0-2.692-6.5A8.81,8.81,0,0,0,9.162,0a8.9,8.9,0,0,0-6.5,2.666A8.9,8.9,0,0,0,0,9.162a8.81,8.81,0,0,0,2.666,6.47,8.852,8.852,0,0,0,6.5,2.692,8.768,8.768,0,0,0,6.471-2.692A8.767,8.767,0,0,0,18.324,9.162Z" fill="#e2ad98"/>
            </g>
          </g>
          <g id="Group_104351" data-name="Group 104351" transform="translate(4.969 44.413)">
            <g id="Group_104350" data-name="Group 104350" transform="translate(0 0)">
              <g id="Group_104349" data-name="Group 104349" transform="translate(0)">
                <path id="Path_75603" data-name="Path 75603" d="M1.631,0,0,10.637A30.389,30.389,0,0,0,20.007,14.39l1.734-9.835Z" fill="#c18770"/>
              </g>
            </g>
          </g>
          <g id="Group_104353" data-name="Group 104353" transform="translate(16.409 0)">
            <g id="Group_104352" data-name="Group 104352" transform="translate(0 0)">
              <path id="Path_75604" data-name="Path 75604" d="M30.385,15.193A14.637,14.637,0,0,0,25.934,4.452,14.637,14.637,0,0,0,15.193,0,14.637,14.637,0,0,0,4.452,4.452,14.637,14.637,0,0,0,0,15.193,14.637,14.637,0,0,0,4.452,25.934a14.637,14.637,0,0,0,10.741,4.452,14.637,14.637,0,0,0,10.741-4.452A14.637,14.637,0,0,0,30.385,15.193Z" fill="#7a2230"/>
            </g>
          </g>
          <g id="Group_104355" data-name="Group 104355" transform="translate(0.052 4.141)">
            <g id="Group_104354" data-name="Group 104354" transform="translate(0 0)">
              <path id="Path_75605" data-name="Path 75605" d="M35.614,50.211,46.329,14.623,21.12,0Q12.216,7.842,0,44.31,12.32,57.691,35.614,50.211Z" transform="translate(0)" fill="#7a2230"/>
            </g>
          </g>
          <g id="Group_104358" data-name="Group 104358" transform="translate(0 7.583)">
            <g id="Group_104357" data-name="Group 104357" transform="translate(0 0)">
              <g id="Group_104356" data-name="Group 104356">
                <path id="Path_75606" data-name="Path 75606" d="M11.233,11.75A254.455,254.455,0,0,0,0,40.919q11.842,13.055,34.785,6.056Q8.955,48.451,5.565,39.082,3.494,33.388,18.066,0A66.554,66.554,0,0,0,11.233,11.75Z" fill="#4b0f18"/>
              </g>
            </g>
          </g>
          <g id="Group_104360" data-name="Group 104360" transform="translate(38.725 20.452)">
            <g id="Group_104359" data-name="Group 104359" transform="translate(0 0)">
              <path id="Path_75607" data-name="Path 75607" d="M6.983.047,3.67,8.225.124,22.564l-.1.8q-.052.052.026.052L.1,23.392l.569-1.656L7.061.072Q7.112.021,7.035.021,6.983-.031,6.983.047Z" fill="#4b0f18"/>
            </g>
          </g>
          <g id="Group_104362" data-name="Group 104362" transform="translate(28.496 12.087)">
            <g id="Group_104361" data-name="Group 104361" transform="translate(0 0)">
              <path id="Path_75608" data-name="Path 75608" d="M3.106,2.329v.776h.776m-.776,0v.776m3.106-.776L3.106,6.212,0,3.106,3.106,0Zm-3.882,0h.776" fill="none" stroke="rgba(0,0,0,0)" stroke-linecap="round" stroke-linejoin="round" stroke-width="0.079"/>
            </g>
          </g>
        </g>
        <g id="Group_104372" data-name="Group 104372" transform="translate(-120.202 -1291.439) rotate(-175.345)">
          <g id="Group_104365" data-name="Group 104365" transform="matrix(0.978, 0.208, -0.208, 0.978, 14.038, 0)">
            <g id="Group_104364" data-name="Group 104364" transform="translate(0 0)">
              <path id="Path_75609" data-name="Path 75609" d="M20.4,7.609A37.681,37.681,0,0,0,17.479,0L.009,4.84Q-.017,6.807.035,8.774A367.464,367.464,0,0,0,3.606,52.256,123.961,123.961,0,0,1,4.849,67.474l12.4.052a125.98,125.98,0,0,1,.725-19.851Q19.088,39.009,20.43,25.7T20.4,7.609Z" transform="translate(0)" fill="#e2ad98"/>
            </g>
          </g>
          <g id="Group_104367" data-name="Group 104367" transform="translate(4.687 61.529)">
            <g id="Group_104366" data-name="Group 104366" transform="translate(0 0)">
              <path id="Path_75610" data-name="Path 75610" d="M12.43,6.215a5.987,5.987,0,0,0-1.822-4.393A5.987,5.987,0,0,0,6.215,0,5.987,5.987,0,0,0,1.822,1.823,5.987,5.987,0,0,0,0,6.215a5.987,5.987,0,0,0,1.822,4.393A5.987,5.987,0,0,0,6.215,12.43a5.987,5.987,0,0,0,4.393-1.823A5.987,5.987,0,0,0,12.43,6.215Z" fill="#e2ad98"/>
            </g>
          </g>
          <g id="Group_104369" data-name="Group 104369" transform="translate(5.624 8.623)">
            <g id="Group_104368" data-name="Group 104368" transform="translate(0 0)">
              <path id="Path_75611" data-name="Path 75611" d="M6.414,2.35,6.724.072Q6.776.021,6.7.021q-.052-.052-.052.026L3.955,14.489,2.324,26.55.021,53.26q-.052.052.026.052L.1,53.286,6.336,2.919Q6.388,2.531,6.414,2.35Z" fill="#c18770"/>
            </g>
          </g>
          <g id="Group_104371" data-name="Group 104371" transform="translate(19.026 2.69)">
            <g id="Group_104370" data-name="Group 104370" transform="translate(0 0)">
              <path id="Path_75612" data-name="Path 75612" d="M3.106,2.329v.776h.776m-.776,0v.776m3.106-.776L3.106,6.212,0,3.106,3.106,0Zm-3.882,0h.776" transform="translate(0)" fill="none" stroke="rgba(0,0,0,0)" stroke-linecap="round" stroke-linejoin="round" stroke-width="0.079"/>
            </g>
          </g>
        </g>
        <g id="Group_104377" data-name="Group 104377" transform="matrix(-0.994, 0.113, -0.113, -0.994, -110.79, -1357.646)">
          <g id="Group_104374" data-name="Group 104374" transform="translate(0 0)">
            <g id="Group_104373" data-name="Group 104373" transform="translate(0 0)">
              <path id="Path_75613" data-name="Path 75613" d="M3.791,34.461a.175.175,0,0,0,.023-.069H3.768l.023.069M17.356,21.08l.206-1.1-.206,3.151a10.6,10.6,0,0,1-1.644,4.247,1.643,1.643,0,0,1-.206.251A6.293,6.293,0,0,1,13.7,29.3a19.691,19.691,0,0,1-5.138,2.284,2.094,2.094,0,0,0-.274.114,14.907,14.907,0,0,0-4.476,2.809,2.973,2.973,0,0,0,3.106.913q.822-.183,1.644-.388a14.443,14.443,0,0,0,4.544-1.918,14.577,14.577,0,0,0,3.357-1.941,10.464,10.464,0,0,0,2.284-2.626l.16-.251q.091-.183.183-.343a2.987,2.987,0,0,0,.183-.32l.228-.457a11.566,11.566,0,0,0,.639-7.833l.183-.114a13.579,13.579,0,0,1,.845,8.929q-.434,1.873-4.544,5.366t-1.85,5.732l.091.114a1.715,1.715,0,0,1,.183-.16,19.46,19.46,0,0,0,3.882-2.558q1.3-1.256,2.512-2.626a23.322,23.322,0,0,0,2.877-4.27q.228-.434.457-.891l.639-1.553a11.99,11.99,0,0,0,.822-4.978L24.8,16.1l-1.781-5.5Q17.63-1.847,11.9.322,3.86,2.7,8.587,19.344a.892.892,0,0,0,.069.183l-1.6-.114a26.254,26.254,0,0,0-2.832-.251Q.96,18.773.366,19.915a2.406,2.406,0,0,0-.251,1.964q1.7.581,2.763,1.05l.731.3.183.046q.685.16-.023.023l.457.183,2.329.708a4.84,4.84,0,0,0,1.987,0l-.091.046a1.058,1.058,0,0,0,.206-.023,3.353,3.353,0,0,0,1.941-.183,3.207,3.207,0,0,0,.571-.411,8.509,8.509,0,0,1,.708-.639,8.851,8.851,0,0,0,1.53-2.786,20.914,20.914,0,0,1,1.21-2.717l.023.137a19.683,19.683,0,0,1-1.324,5.435,6.439,6.439,0,0,1-.959,1.416.02.02,0,0,0-.023.023l-.251.3q-2.969.662-5.914,1.553Q3.494,27.177.891,28.25q-.388.16-.776.3,0,.228-.023.594a2.347,2.347,0,0,0,.16.891,1.485,1.485,0,0,0,.731.8,8.328,8.328,0,0,0,2.306.046A22.291,22.291,0,0,1,6.3,30.785q1.142-.274,2.261-.571a3.466,3.466,0,0,1,.776-.137,10.281,10.281,0,0,0,5.092-2.443,6.753,6.753,0,0,0,1.279-1.827A17.6,17.6,0,0,0,17.356,21.08Z" fill="#e2ad98"/>
              <path id="Path_75614" data-name="Path 75614" d="M20.21,1.758l-.183.114a11.566,11.566,0,0,1-.639,7.833l-.228.457a2.986,2.986,0,0,1-.183.32q-.091.16-.183.343l-.16.251q-.217.371-.457.731a26.322,26.322,0,0,1-3.448,4.316q-3.357,3.4-.069,5.663-2.261-2.238,1.85-5.732t4.544-5.366a13.579,13.579,0,0,0-.845-8.929M14.523.137,14.5,0a20.913,20.913,0,0,0-1.21,2.717A8.851,8.851,0,0,1,11.76,5.5a8.509,8.509,0,0,0-.708.639,3.207,3.207,0,0,1-.571.411,3.353,3.353,0,0,1-1.941.183l-.16.046Q5.5,7.33,4.316,7.6.868,8.655,0,10.961v.114q.388-.137.776-.3Q3.38,9.705,6.051,8.86,9,7.97,11.966,7.307l.251-.3a.02.02,0,0,1,.023-.023A6.439,6.439,0,0,0,13.2,5.572,19.683,19.683,0,0,0,14.523.137m2.923,2.375-.206,1.1A17.6,17.6,0,0,1,15.6,8.335a6.753,6.753,0,0,1-1.279,1.827,10.281,10.281,0,0,1-5.092,2.443,3.466,3.466,0,0,0-.776.137q-1.119.3-2.261.571A4.142,4.142,0,0,0,3.54,16.83l.114.091H3.7a.175.175,0,0,1-.023.069l.023.046a14.907,14.907,0,0,1,4.476-2.809,2.094,2.094,0,0,1,.274-.114,19.691,19.691,0,0,0,5.138-2.284,6.293,6.293,0,0,0,1.8-1.667,1.643,1.643,0,0,0,.206-.251,10.6,10.6,0,0,0,1.644-4.247Z" transform="translate(0.115 17.472)" fill="#c18770"/>
            </g>
          </g>
          <g id="Group_104376" data-name="Group 104376" transform="translate(12.189 2.744)">
            <g id="Group_104375" data-name="Group 104375" transform="translate(0 0)">
              <path id="Path_75615" data-name="Path 75615" d="M3.106,2.329v.776h.776m-.776,0v.776m3.106-.776L3.106,6.212,0,3.106,3.106,0Zm-3.882,0h.776" fill="none" stroke="rgba(0,0,0,0)" stroke-linecap="round" stroke-linejoin="round" stroke-width="0.079"/>
            </g>
          </g>
        </g>
        <g id="Group_104495" data-name="Group 104495" transform="translate(-112.612 -1490.382) rotate(17.28)">
          <g id="Group_104378" data-name="Group 104378" transform="translate(29.366 64.656)">
            <path id="Path_75616" data-name="Path 75616" d="M19.814,9.907a9.5,9.5,0,0,1-2.909,7,9.5,9.5,0,0,1-7,2.909A9.562,9.562,0,0,1,2.89,16.9a9.531,9.531,0,0,1-2.89-7A9.594,9.594,0,0,1,2.89,2.89,9.594,9.594,0,0,1,9.907,0a9.531,9.531,0,0,1,7,2.89A9.562,9.562,0,0,1,19.814,9.907Z" transform="translate(0 0)" fill="none" stroke="red" stroke-linecap="round" stroke-linejoin="round" stroke-width="0.079"/>
          </g>
          <g id="Group_104392" data-name="Group 104392" transform="translate(17.678 17.031)">
            <g id="Group_104380" data-name="Group 104380" transform="translate(0 0)">
              <g id="Group_104379" data-name="Group 104379">
                <path id="Path_75617" data-name="Path 75617" d="M51.791,8.878A29.232,29.232,0,0,0,30.334,0,29.232,29.232,0,0,0,8.878,8.878,29.232,29.232,0,0,0,0,30.334,29.189,29.189,0,0,0,4.633,46.563l.026.129q10.9,15.248,26.4,17.264,18.328,1.8,28.6-12.424l.673-16.28-.155.647a30.741,30.741,0,0,0,.492-5.565A29.232,29.232,0,0,0,51.791,8.878Z" fill="#e2ad98"/>
              </g>
            </g>
            <g id="Group_104391" data-name="Group 104391" transform="translate(6.61 13.037)">
              <g id="Group_104382" data-name="Group 104382" transform="matrix(0.566, 0.824, -0.824, 0.566, 18.108, 0.226)">
                <g id="Group_104381" data-name="Group 104381" transform="translate(0 0)">
                  <path id="Path_75618" data-name="Path 75618" d="M3.313,1.165,0,0,.233,20.188l2.485,1.786Q9.91,10.939,3.313,1.165Z" fill="#c18770"/>
                </g>
              </g>
              <g id="Group_104384" data-name="Group 104384" transform="translate(16.555 1.224)">
                <g id="Group_104383" data-name="Group 104383" transform="translate(0 0)">
                  <path id="Path_75619" data-name="Path 75619" d="M9.007.388,1.786,6.548,0,10.922Q13.45,10.149,11.388,0Z" fill="#c18770"/>
                </g>
              </g>
              <g id="Group_104386" data-name="Group 104386" transform="translate(26.105 1.095)">
                <g id="Group_104385" data-name="Group 104385" transform="translate(0 0)">
                  <path id="Path_75620" data-name="Path 75620" d="M9.965,13.433l.181-5.306L4.762,0,0,1.5Q.41,10.253,9.965,13.433Z" transform="translate(0)" fill="#c18770"/>
                </g>
              </g>
              <g id="Group_104388" data-name="Group 104388" transform="translate(36.778 0) rotate(25.988)">
                <g id="Group_104387" data-name="Group 104387" transform="translate(0 0)">
                  <path id="Path_75621" data-name="Path 75621" d="M23.112,7.765,20.887,4.012,0,0V5.927Q9.141,9.523,23.112,7.765Z" transform="translate(0 0)" fill="#c18770"/>
                </g>
              </g>
              <g id="Group_104390" data-name="Group 104390" transform="translate(0.042 13.622)">
                <g id="Group_104389" data-name="Group 104389" transform="translate(0 0)">
                  <path id="Path_75622" data-name="Path 75622" d="M.725,0,0,13.951l4.374,4.736A93.317,93.317,0,0,0,5.461,0Z" fill="#c18770"/>
                </g>
              </g>
            </g>
          </g>
          <g id="Group_104397" data-name="Group 104397" transform="translate(27.358 61.807)">
            <g id="Group_104394" data-name="Group 104394" transform="translate(0 0)">
              <g id="Group_104393" data-name="Group 104393" transform="translate(0)">
                <path id="Path_75623" data-name="Path 75623" d="M7.609,25.417q8.213,10.5,16.28,12.838t11.181.026q6.6-10.866,12.6-19.981Q53.683,9.214,49.228,0L0,1.113Q1.135,18.5,7.609,25.417Z" fill="#e2ad98"/>
              </g>
            </g>
            <g id="Group_104396" data-name="Group 104396" transform="translate(12.54 30.968)">
              <g id="Group_104395" data-name="Group 104395" transform="translate(0 0)">
                <path id="Path_75624" data-name="Path 75624" d="M26.491.893q.078-.078-.026-.078h-.052L23.566,4.672l-.026.078-.026.052-.078.1q-.518.7-.673.88l-.725.725-.129.1-.052.052-.052.026-.362.285-.518.285-.544.181a2.826,2.826,0,0,1-.6.1h-.078l-.052.026H19.14l-5.487-.518-.078-.026h-.1l-2.847-.7L10.6,6.3h-.052l-.776-.259a12.568,12.568,0,0,1-1.32-.466L7.8,5.319l-.155-.078-.078-.026-.078-.052L6.018,4.413Q5.086,3.9,3.947,3.171L2.265,2.006.142.091.091.013Q.065-.013.013.013q-.026.052,0,.078L.065.168l1.4,1.475L3.74,3.481q1.216.854,2.045,1.346A12.921,12.921,0,0,0,6.949,5.5l.285.181.078.026,2.252.984.7.233.078.052h.052L10.444,7l2.873.8h.052l.026.026h.026l.078.026,3.365.569q.518.052,1.5.155l1.5.052a4.244,4.244,0,0,0,1.527-.414l.647-.388.466-.414.078-.052.906-.984a7.963,7.963,0,0,0,.647-1.061l.155-.259.1-.233Z" fill="#f0cbbc"/>
              </g>
            </g>
          </g>
          <g id="Group_104440" data-name="Group 104440" transform="translate(0 0)">
            <g id="Group_104399" data-name="Group 104399" transform="translate(0.025 0.215)">
              <g id="Group_104398" data-name="Group 104398" transform="translate(0 0)">
                <path id="Path_75625" data-name="Path 75625" d="M82,19.508q-9.033-8.774-16.177-9.6a18.125,18.125,0,0,0,.466-8.1Q66-.707,64.138.277,44.8,13.969,27.359,18.343a39.357,39.357,0,0,0-14.727,8.981q-.917.883-1.786,1.838-.621-4.4-3.52-6Q2.382,20.931,3.6,24.5q1.889,3.934,3.054,5.9a8.54,8.54,0,0,0-4.529.155q-3.831,1.061-.751,3.106a26.738,26.738,0,0,0,4.944,2.174q.03.143.052.285a99.833,99.833,0,0,0,8.386,24.9l13.873,1.76a52.612,52.612,0,0,0-.544-20.24,18.061,18.061,0,0,0,3.209-.621q6.755-1.6,10.353-10.819a18.352,18.352,0,0,1-.725,8.2q-1.372,4.3,2.226,2.045a26.262,26.262,0,0,0,8.075-8.464,52.327,52.327,0,0,0,5.047,8.878q4.866,5.228,4.659-.414l.233-8.334.155.207A19.648,19.648,0,0,0,64.5,36.693a32.186,32.186,0,0,0,4.038,2.873,25.206,25.206,0,0,0,3.882,1.889q2.562.932,4.529,1.5a22.146,22.146,0,0,0,3.184.725q1.216.129,1.4-1.216a11.046,11.046,0,0,0-.1-3.158q-.362-2.278-.854-4.529a30.623,30.623,0,0,0-1.346-4.426l-.155-.414q3.339,3.649,6,3.624Q88.622,27.013,82,19.508Z" fill="#540e00"/>
              </g>
            </g>
            <g id="Group_104401" data-name="Group 104401" transform="translate(61.328 22.22)">
              <g id="Group_104400" data-name="Group 104400" transform="translate(0 0)">
                <path id="Path_75626" data-name="Path 75626" d="M.013.013q-.026.052,0,.078L5.086,4.439q.336.285,1.786,1.682l3.649,3.8,4.788,6,2.666,4.3.311.621.052.052.336.7a.8.8,0,0,0,.466.388.882.882,0,0,0,.6-.052.705.705,0,0,0,.362-.466.788.788,0,0,0-.026-.6l-.026-.026-.414-.725-2.355-3.572-3.391-4.245a4.353,4.353,0,0,0-.44-.492l-2.3-2.459Q9.848,8.062,9.2,7.467L5.4,4.1.091.013Q.065-.013.013.013Z" fill="#2b0700"/>
              </g>
            </g>
            <g id="Group_104403" data-name="Group 104403" transform="translate(31.936 25.474)">
              <g id="Group_104402" data-name="Group 104402" transform="translate(0 0)">
                <path id="Path_75627" data-name="Path 75627" d="M7.379.021q-.052-.052-.052.026L5.7,6.025l-2.3,4.969-.207.311-.078.155L1.737,13.454.21,15.214A.661.661,0,0,0,0,15.757a.692.692,0,0,0,.233.544.775.775,0,0,0,.569.233.85.85,0,0,0,.544-.259l.026-.052.259-.336.1-.1.362-.466,1.915-3.132L4.092,12l.1-.155L6.188,6.595,7.4.254V.072Q7.457.021,7.379.021Z" fill="#2b0700"/>
              </g>
            </g>
            <g id="Group_104405" data-name="Group 104405" transform="translate(23.507 33.834)">
              <g id="Group_104404" data-name="Group 104404" transform="translate(0 0)">
                <path id="Path_75628" data-name="Path 75628" d="M9.234.021q-.052-.052-.052.026L6.646,4.395,5.533,5.948,3.022,8.588l-.8.621-.1.052-.078.078-.44.285-.078.026L1.288,9.8l-.078.026-.181.1L.952,9.96l-.285.155-.078.026-.129.078H.434a.705.705,0,0,0-.388.44.788.788,0,0,0,.026.6.705.705,0,0,0,.44.388.788.788,0,0,0,.6-.026l.207-.1.078-.052.026-.026.052-.026.233-.155.078-.026.544-.388.078-.078.078-.052.388-.311.078-.078.1-.078a7.084,7.084,0,0,0,.8-.776l.828-.906L6.025,6.7,6.1,6.543l.1-.129L7.474,4.162,9.26.072Q9.312.021,9.234.021Z" fill="#2b0700"/>
              </g>
            </g>
            <g id="Group_104407" data-name="Group 104407" transform="translate(51.109 32.966)">
              <g id="Group_104406" data-name="Group 104406" transform="translate(0 0)">
                <path id="Path_75629" data-name="Path 75629" d="M.138.035a.085.085,0,0,0-.1-.026q-.052.078-.026.1L1.484,3.5l3,5.254L5.47,9.844l.233.207.129.078.233.207.673.466.129.052.1.078.44.207.1.026.285.129.181.052h.078l.492.1h.285a.069.069,0,0,0,.078-.078l-.026-.052H8.86l-.1-.129-.466-.414-.1-.129-.129-.1-.078-.078-.052-.078L7.566,10,5.107,7.023a10.852,10.852,0,0,1-.854-1.009Z" fill="#2b0700"/>
              </g>
            </g>
            <g id="Group_104409" data-name="Group 104409" transform="translate(27.824 31.082)">
              <g id="Group_104408" data-name="Group 104408" transform="translate(0 0)">
                <path id="Path_75630" data-name="Path 75630" d="M13.511.676l-.078.155-.155.414a2.752,2.752,0,0,0-.207.466l-.078.1-.181.414-.078.129-.052.129-.233.44-.1.155-.155.311-.414.621a11.226,11.226,0,0,1-.906,1.268L9.732,6.526Q9.007,7.2,8.438,7.639a13.319,13.319,0,0,1-1.449.906l-.751.388-.026.026-.052.026-.1.026-5.8,2.511-.207.1q-.052,0-.052.1l.078.026.336.052H.569l.155.026H1.915l1.967-.285.751-.207a8.755,8.755,0,0,0,1.579-.6l1.191-.7L9.214,8.6a14.123,14.123,0,0,0,1.32-1.346A14.519,14.519,0,0,0,11.6,5.827l.544-.906.052-.1.052-.078.336-.725.1-.155.207-.518.078-.155.052-.181.336-.88.026-.155.052-.129L13.744.728l.026-.155L13.847.34l.026-.233q.078-.078-.052-.078-.078-.078-.078.052Z" transform="translate(0 0)" fill="#2b0700"/>
              </g>
            </g>
            <g id="Group_104411" data-name="Group 104411" transform="translate(78.339 28.807)">
              <g id="Group_104410" data-name="Group 104410" transform="translate(0 0)">
                <path id="Path_75631" data-name="Path 75631" d="M6.866,4.866V4.814l-.233-.336L6.556,4.4,6.53,4.348V4.322H6.5V4.3L5.96,3.727l-1.242-.88L3.5,2.329,1.69,1.294.784.647.292.181.266.129.214.1.163.026a.065.065,0,0,0-.1,0q-.1,0-.026.078L.059.181.085.233.111.311.4.828l.725.958,2.329,2.1a4.611,4.611,0,0,0,.647.466l.155.078.078.052.078.026.336.155.7.207H5.52l.647.1.621-.026Q6.918,4.944,6.866,4.866Z" fill="#2b0700"/>
              </g>
            </g>
            <g id="Group_104413" data-name="Group 104413" transform="translate(40.338 30.779)">
              <g id="Group_104412" data-name="Group 104412" transform="translate(0 0)">
                <path id="Path_75632" data-name="Path 75632" d="M2.032,1.16l-.026-.078L1.592.331,1.566.254,1.436.047q0-.078-.1-.026L1.307.072,1.281.1,1.2.383,1.1,2.065,1.229,3.23v.052l.026.026v.155l.026.026V3.67l.026.1v.155l.026.078v.1l.026.466.026.129v.129a5.015,5.015,0,0,1-.1,1.035q-.052.285-.259,1.035l-.129.362L.867,7.4.66,7.967l-.026.026v.026l-.155.362L.065,9.8l-.052.44a1.461,1.461,0,0,0,0,.388l.052.362.155.311.207.155.1.052H.608v.026H.764q.078.052.078-.052,0-.078-.052-.078l-.026-.026H.712l-.026-.026H.66v-.026H.608L.556,11.28l-.1-.155A.459.459,0,0,1,.4,10.917a.647.647,0,0,1,0-.259l.207-.7.828-1.553V8.381h.026V8.355L1.514,8.3l.518-1.009q.1-.207.466-1.113l.181-.6L2.7,5.456,2.756,5.3l.052-.311.052-.155.052-.311.026-.7-.026-.078V3.592l-.078-.44L2.756,2.92V2.868l-.44-1.087-.026-.1L2.239,1.6l-.155-.362Z" fill="#2b0700"/>
              </g>
            </g>
            <g id="Group_104415" data-name="Group 104415" transform="translate(11.802 42.188)">
              <g id="Group_104414" data-name="Group 104414" transform="translate(0 0)">
                <path id="Path_75633" data-name="Path 75633" d="M.207.026.155,0,.1.1.078.181V.311L.052.44V.6L.026.776v.1L0,.958v.7l.026.078.026.44L.078,2.3v.155L.6,4.529l.181.414.052.078.026.1.1.155.155.311.026.026.052.078.052.052.052.026L1.32,5.72V5.461L1.268,5v-.1l-.026-.1-.078-.673-.052-.233-.026-.259L.7,1.682.673,1.631V1.579L.336.414.311.285.285.233V.181L.233.1Z" transform="translate(0 0)" fill="#2b0700"/>
              </g>
            </g>
            <g id="Group_104417" data-name="Group 104417" transform="translate(15.84 42.887)">
              <g id="Group_104416" data-name="Group 104416" transform="translate(0 0)">
                <path id="Path_75634" data-name="Path 75634" d="M3.339.388l-.078.6.129,2.9L3.8,6.341,2.744,5.176l-.078-.052-.129-.155-.311-.285-.052-.078L2.1,4.555.8,3.391.725,3.339.078,2.821Q.06,2.8.026,2.821H0V2.9l.1.233.026.1.052.078L.7,4.84l.078.181.725,3v.052l.026.052.026.129.026.259.052.233.207,1.424.052.233.336,2.485v.1l.026.078.052.285.052.026.026-.052.052-.259v-.1l.026-.1.1-1.631L2.278,8V7.92l-.026-.052L1.786,6l-.052-.1L1.5,5.228l-.388-.8.466.6.078.078.052.078.414.466.052.078,2.045,2.1.569-.311L4.633,7.04l-.026-.1-.052-.1L3.7,3.365,3.468,1.475V.052Q3.52,0,3.442,0L3.391.026,3.339.259Z" fill="#2b0700"/>
              </g>
            </g>
            <g id="Group_104419" data-name="Group 104419" transform="translate(60.815 32.629)">
              <g id="Group_104418" data-name="Group 104418" transform="translate(0 0)">
                <path id="Path_75635" data-name="Path 75635" d="M.112.345.19.475.216.552l.8,1.346.414.569.129.129.1.155.078.078.052.078.285.311q.8.854,1.294,1.294L4.952,5.806A19.589,19.589,0,0,0,6.764,7.023L10.7,9.145l.129.078,2.821,1.165,1.191.362L19.5,11.6h.155l.155.026h.285a.069.069,0,0,0,.078-.078l-.052-.052-3-1.4q-.129-.052-.181-.078l-.181-.1-1.449-.569-.207-.1L11.526,7.9,11.4,7.877,9.249,7.023l-.233-.129L7.049,5.962,3.839,3.943A15.653,15.653,0,0,1,2.467,2.83l-.362-.336L1.018,1.3.138.035a.085.085,0,0,0-.1-.026q-.052.078-.026.1Z" fill="#300"/>
              </g>
            </g>
            <g id="Group_104421" data-name="Group 104421" transform="translate(21.85 43.69)">
              <g id="Group_104420" data-name="Group 104420" transform="translate(0 0)">
                <path id="Path_75636" data-name="Path 75636" d="M4.421.129Q4.472.078,4.395.052L4.317.026,3.541,0,3.334.026,3.256.052h-.1L2.945.1h-.1L2.35.259l-.1.052H2.195L2.143.336,1.936.414,1.625.569,1.548.621l-.207.1L1.082.906,1.03.932l-.259.233-.078.052-.129.129L.487,1.4.15,1.812l-.026.026L.1,1.889l-.052.052-.026.078q-.052.052.026.078L.2,2.148H.254l.052.026.414.052H.9L1.108,2.2h.181L1.5,2.174l.052-.026H1.6l.544-.129L2.3,1.941H2.35l.725-.362L3.152,1.5l.181-.1.1-.078.026-.026.052-.026.155-.155.078-.052L3.955.854,4.007.776,4.058.725,4.317.362,4.395.207Z" transform="translate(0)" fill="#2b0700"/>
              </g>
            </g>
            <g id="Group_104423" data-name="Group 104423" transform="translate(0 32.094)">
              <g id="Group_104422" data-name="Group 104422" transform="translate(0 0)">
                <path id="Path_75637" data-name="Path 75637" d="M1.061.052.621,0,.052.026,0,.1V.155L.207.569.259.621V.647l.362.44.518.492.129.1L1.4,1.76l.052.052.207.129,4.633,2.1q.052.052.1-.052l-.026-.078-.233-.233-.1-.129-.155-.129L5.539,3.08,3,.958A3.391,3.391,0,0,0,2.459.544L2.252.414,1.32.1H1.268L1.191.078Z" fill="#2b0700"/>
              </g>
            </g>
            <g id="Group_104425" data-name="Group 104425" transform="translate(3.365 23.17)">
              <g id="Group_104424" data-name="Group 104424" transform="translate(0 0)">
                <path id="Path_75638" data-name="Path 75638" d="M1.113.875.673.409H.647V.383H.621L.6.331.492.28.181.021Q.129-.031.052.047L.026.487,0,.59l.026.621.026.129V1.5l.155.621L.233,2.3l.078.233.052.1.052.155L2.951,7.035l.1.207.311.466q.078.078.1.026a.085.085,0,0,0,.026-.1L1.915,2.143l-.078-.155L1.786,1.91,1.76,1.832l-.1-.155-.078-.155L1.216,1,1.165.952Z" transform="translate(0 0)" fill="#2b0700"/>
              </g>
            </g>
            <g id="Group_104427" data-name="Group 104427" transform="translate(6.341 36.106)">
              <g id="Group_104426" data-name="Group 104426" transform="translate(0 0)">
                <path id="Path_75639" data-name="Path 75639" d="M.026,0,0,.078.285,2.536l.052.181.7,3.442q.181.8.6,2.148l2.407,6.911q.311.958.828,2.252l2.976,6.885.466.751q.078.078.1.026.078-.052.026-.1l-.129-.259-.6-1.475-.078-.155L7.506,22.8,3.494,8.981,1.475,3.028.285.311.129.052Q.129,0,.026,0Z" transform="translate(0 0)" fill="#2b0700"/>
              </g>
            </g>
            <g id="Group_104429" data-name="Group 104429" transform="translate(63.541 9.633)">
              <g id="Group_104428" data-name="Group 104428" transform="translate(0 0)">
                <path id="Path_75640" data-name="Path 75640" d="M20.6,11.771l-.259-.336-.052-.1-.078-.078-.518-.7-.259-.285-.026-.052L17.833,8.691q-.414-.388-1.294-1.113L13.8,5.508a.51.51,0,0,1-.181-.129l-2.64-1.656Q9.421,2.816,8.231,2.272L6.6,1.548,6.419,1.5,6.393,1.47H6.341l-.078-.052L3.391.538Q2.536.357,1.6.2L.052.021Q0-.031,0,.047L.026.1,4.193,1.574l1.372.647.155.052.155.078.078.052h.026L6,2.428l1.682.906q.932.518,2.562,1.579l6.885,5.2,1.424,1.4.492.6.078.078.259.388.129.155,1.191,2.122.052.181.362.828.1.336.052.078V16.3l.026.052.129.414.026.026v.052l.466,1.889v.129l.1.725v.155l.026.259.026.078V20.8a8.334,8.334,0,0,1-.181,1.734l-.207,1.009-.052.1-.1.388q-.052.052.026.052.052.052.052-.026l.207-.362.026-.026.388-.854.233-.776.052-.1.259-1.346.026-.44.026-.078v-.362l.026-.155L22.8,18.113l-.181-1.191-.052-.181-.026-.181v-.052l-.026-.052-.026-.078-.078-.362-.026-.026v-.052l-.466-1.475-.052-.1-.052-.181Z" transform="translate(0 0)" fill="#812511"/>
              </g>
            </g>
            <g id="Group_104431" data-name="Group 104431" transform="translate(63.205 14.124)">
              <g id="Group_104430" data-name="Group 104430" transform="translate(0 0)">
                <path id="Path_75641" data-name="Path 75641" d="M3.8,2.44.078.033Q0-.044,0,.059V.111L6.108,5.779q1.4,1.4,2.1,2.148l3.52,4.193.6.828q.621.854.932,1.372l1.475,2.433.078.181.052.078,1.6,3.572q.078.233.233.673l.388,1.165.026.155.259.932.026.155.052.155.673,4.892.026.621a.046.046,0,0,0,.052.052l.026-.026.078-.414a10.966,10.966,0,0,0,.129-1.139l.052-.388.026-2.226-.336-2.873-.052-.155-.026-.181-.673-2.536-1.216-3-.052-.078-.026-.1-.7-1.32-3.132-4.607L11.181,9.066l-.129-.181L9.473,7.254,9.344,7.1,9.188,6.97Q8.1,5.883,6.911,4.9Z" transform="translate(0 0)" fill="#812511"/>
              </g>
            </g>
            <g id="Group_104433" data-name="Group 104433" transform="translate(51.972 22.057)">
              <g id="Group_104432" data-name="Group 104432" transform="translate(0 0)">
                <path id="Path_75642" data-name="Path 75642" d="M0,.047.026.1.8.668l.1.052L1.113.9l.129.078.233.207.129.078.129.129.414.336.207.207.078.052,1.475,1.6.932,1.32.181.336.078.1.026.052.052.052.207.362v.026l.026.026.7,1.4.078.129.906,2.252.026.052.932,3.468.026.052V13.3l.078.414v.052h.026v.078l.052.259.311,2.8v.233l.026.129.026,1.216.026.207-.052,3.287q-.052.052.026.052l.052-.026.492-1.6.052-.336L9.24,19.9,9.6,17.388v-.129l.026-.1.026-1.009q.026-.932-.052-2.2l-.026-.285v-.129l-.026-.026v-.129L9.5,13.091v-.155l-.518-2.511L7.92,7.552,6.6,5.145l-.052-.052-.233-.362L6.289,4.68l-.052-.052L6.16,4.5l-.518-.673L4.012,2.169,3.8,2.014l-.078-.078-.1-.052-.7-.518-.1-.052L2.252.952Q1.993.8,1.087.383L.984.331.88.305.673.228.569.176.052.021Q0-.031,0,.047Z" transform="translate(0 0)" fill="#812511"/>
              </g>
            </g>
            <g id="Group_104435" data-name="Group 104435" transform="translate(41.774 25.494)">
              <g id="Group_104434" data-name="Group 104434" transform="translate(0 0)">
                <path id="Path_75643" data-name="Path 75643" d="M9.24.052,9.188.285,9.059,1.4l-.026.129v.129l-.6,3.727L7.816,7.739l-.155.414-.052.233-.052.1-.026.1-.1.207-.078.233-.776,1.656-.518.854-.052.1-.932,1.216q-.466.544-1.139,1.191l-.6.518-.155.1-.129.129-.311.207-.052.052-.621.44L.026,16.694,0,16.746q0,.078.052.026l.518-.078H.647l.776-.181.129-.052.129-.026.88-.311.492-.233.1-.026.078-.052a12.732,12.732,0,0,0,1.424-.8,13.34,13.34,0,0,0,1.424-1.191l.336-.362.1-.078.854-1.087a10.123,10.123,0,0,0,1.009-1.76l.621-1.553.026-.129.336-1.191.336-2.3.026-.647L9.758,4.5,9.6,1.656V1.527L9.318.026,9.266,0Z" fill="#812511"/>
              </g>
            </g>
            <g id="Group_104437" data-name="Group 104437" transform="translate(63.93 0)">
              <g id="Group_104436" data-name="Group 104436" transform="translate(0 0)">
                <path id="Path_75644" data-name="Path 75644" d="M1.708,0H1.372L1.32.026h-.1l-.1.026L.621.233.207.492.155.544l-.129.1a.065.065,0,0,0,0,.1L.078.776H.1L.233.8H.388l.1.026H.621l.1.026H.8L.854.88l.285.052.052.026.078.026.026.026H1.32l.078.026.052.026.078.078h.026l.052.052.259.414.1.311v.1l.311,1.708v.129l.026.129L1.76,9.939v.129q-.078.078.052.078.078,0,.078-.052L2.1,9.628,3.339,5.461,3.7,2.588,3.52,1.553,3.442,1.4l-.052-.155-.078-.129-.026-.078L3.132.828a3.07,3.07,0,0,0-.44-.492Q2.64.311,2.122.078Z" transform="translate(0)" fill="#812511"/>
              </g>
            </g>
            <g id="Group_104439" data-name="Group 104439" transform="translate(4.167 22.673)">
              <g id="Group_104438" data-name="Group 104438" transform="translate(0 0)">
                <path id="Path_75645" data-name="Path 75645" d="M.311,0,.052.052,0,.1.026.129.259.285.336.311l.776.466L1.139.8l.1.052.155.1.155.078.285.207.052.026.026.026.078.052,1.087.88.078.078.078.052.673.7.052.078.155.155.259.336.026.052.026.026.129.181.078.078.1.181.129.155.544.854.078.155.285.44.078.155.1.129.569.958.052.026L6.6,6.962l.026-.129V6.7l.026-.1-.026-.958L6.264,4.089,6.212,3.96l-.026-.1L5.616,2.769A8.621,8.621,0,0,0,5,1.941l-.362-.388L3.6.776l-.207-.1L3.287.6l-.233-.1-.1-.026L2.692.336H2.64l-.1-.052-.1-.026L2.381.233H2.329L2.122.155,1.915.129,1.734.078,1.372.026Z" transform="translate(0 0)" fill="#812511"/>
              </g>
            </g>
          </g>
          <g id="Group_104447" data-name="Group 104447" transform="translate(10.697 51.676)">
            <g id="Group_104442" data-name="Group 104442" transform="translate(0 4.184) rotate(-15.965)">
              <g id="Group_104441" data-name="Group 104441" transform="translate(0 0)">
                <path id="Path_75646" data-name="Path 75646" d="M12.5,3.243A6.8,6.8,0,0,0,7.683.06Q4.643-.422,2.2,2.984A13.286,13.286,0,0,0,.022,11.5a16.714,16.714,0,0,0,2.666,8.645,16.441,16.441,0,0,0,5.358,5.228,36.7,36.7,0,0,0,4.685,1.889q.258-1.327,1.6-5.435a22.941,22.941,0,0,0,.621-9.965Q14.252,5.968,12.5,3.243Z" fill="#e2ad98"/>
              </g>
            </g>
            <g id="Group_104444" data-name="Group 104444" transform="translate(5.635 6.326)">
              <g id="Group_104443" data-name="Group 104443" transform="translate(0 0)">
                <path id="Path_75647" data-name="Path 75647" d="M.078,1.165l.311-.1.1-.052L.621.984.906.88H.984L1.268.8,1.449.776l.1-.026h.1L2.071.7l.466.026L3,.828a4.277,4.277,0,0,1,.932.388l.466.336.207.181.052.026.362.362.958,1.191L7.144,5.228l.052.129L8.438,7.791l.052.078.181.388.078.1.078.181.078.129q0,.078.052.026.078,0,.026-.052l-.078-.6L8.593,6.781l-.958-2.64L6.445,2.174,5.513,1.165a.28.28,0,0,1-.129-.1L4.969.751,4.245.336,4.089.285,3.934.207,3.779.155,3.158.026H3L2.847,0H2.562L1.631.155,1.475.233H1.424l-.1.052L1.113.362.285.854,0,1.087v.078Z" fill="#c18770"/>
              </g>
            </g>
            <g id="Group_104446" data-name="Group 104446" transform="translate(3.66 1.9)">
              <g id="Group_104445" data-name="Group 104445" transform="translate(0 0)">
                <path id="Path_75648" data-name="Path 75648" d="M4.3,0,3.294.181,2.8.336,2.725.388,2.57.44,2.492.492,2.337.544,2.259.6,2.182.621l-.44.285L1.69.932l-.078.078-.052.026-.026.026-.466.362-.544.647L.447,2.2l-.1.129L.033,2.9q-.078.078.026.078H.111l.6-.544.129-.078.1-.1.129-.078.129-.1.751-.44h.026l.078-.052h.026L2.1,1.553,2.6,1.372l.052-.026L2.8,1.294l.052-.026h.078l.155-.052h.052l.078-.026h.078l.078-.026h.052L3.5,1.139l.155-.026h.129L4.1,1.061h.285q.282,0,.776.052l1.216.233.285.078h.052l.026.026h.026l.751.285.751.414a1.283,1.283,0,0,1,.336.233l.1.052.078.052.078.078.1.052.078.078.078.052.492.414.932.984.052.1.078.078,1.294,1.889v.026l.026.026.026.052.181.259,1.734,3.054q0,.078.052.026.078,0,.026-.052L12.379,6.031,12.353,6V5.979L11.24,4.064l-.129-.181-.052-.1L9.791,2.3l-.259-.233L9.48,2.045l-.026-.026-.1-.078-.078-.078-.1-.078-.078-.078L8.73,1.449a5.6,5.6,0,0,0-.8-.492L7.1.544,7.073.518H7.047L6.892.44,6.219.233A6.458,6.458,0,0,0,5.287.052,6.156,6.156,0,0,0,4.356,0Z" transform="translate(0)" fill="#f0cbbc"/>
              </g>
            </g>
          </g>
          <g id="Group_104474" data-name="Group 104474" transform="translate(38.276 49.886)">
            <g id="Group_104452" data-name="Group 104452" transform="translate(28.658 8.926)">
              <g id="Group_104449" data-name="Group 104449" transform="translate(0 0)">
                <g id="Group_104448" data-name="Group 104448" transform="translate(0)">
                  <path id="Path_75649" data-name="Path 75649" d="M5.538,3.773A4.387,4.387,0,0,0,4.72,1.1,2.364,2.364,0,0,0,2.769,0,2.4,2.4,0,0,0,.8,1.1,4.439,4.439,0,0,0,0,3.773,4.376,4.376,0,0,0,.8,6.436,2.392,2.392,0,0,0,2.769,7.547,2.357,2.357,0,0,0,4.72,6.436,4.325,4.325,0,0,0,5.538,3.773Z" fill="#231915"/>
                </g>
              </g>
              <g id="Group_104451" data-name="Group 104451" transform="translate(3.055 1.793)">
                <g id="Group_104450" data-name="Group 104450" transform="translate(0 0)">
                  <path id="Path_75650" data-name="Path 75650" d="M1.338.884A1.1,1.1,0,0,0,1.12.243.539.539,0,0,0,.642,0,.579.579,0,0,0,.178.271,1.136,1.136,0,0,0,0,.941a.994.994,0,0,0,.218.627.563.563,0,0,0,.491.256.538.538,0,0,0,.45-.285A1.04,1.04,0,0,0,1.338.884Z" fill="#fff"/>
                </g>
              </g>
            </g>
            <g id="Group_104454" data-name="Group 104454" transform="translate(24.236 1.535)">
              <g id="Group_104453" data-name="Group 104453" transform="translate(0 0)">
                <path id="Path_75651" data-name="Path 75651" d="M10.843,4.009A15.956,15.956,0,0,0,4.046,0Q-1.341,2.286.444,8.143a7.868,7.868,0,0,1,4.7-1.973q3.038-.407,6.233,2.161Q11.532,4.729,10.843,4.009Z" transform="translate(0)" fill="#e2ad98"/>
              </g>
            </g>
            <g id="Group_104456" data-name="Group 104456" transform="translate(24.774 12.436)">
              <g id="Group_104455" data-name="Group 104455" transform="translate(0 0)">
                <path id="Path_75652" data-name="Path 75652" d="M0,1.533.376,5.1a9.893,9.893,0,0,0,8.738-.125L9.4,2Q5.5-1.752,0,1.533Z" transform="translate(0 0)" fill="#e2ad98"/>
              </g>
            </g>
            <g id="Group_104458" data-name="Group 104458" transform="translate(24.429 7.078)">
              <g id="Group_104457" data-name="Group 104457" transform="translate(0 0)">
                <path id="Path_75653" data-name="Path 75653" d="M10.273,2.192l-.125-.157L8.895,1.065,8.613.908H8.582L8.55.877,8.425.814,8.331.752,8.081.626,7.924.6,7.673.47,7.548.438,7.391.376,7.266.345,7.11.282,6.264.094l-.6-.063A4.423,4.423,0,0,0,5.074,0h-.6L4.2.031H4.072V.063H3.884l-1.1.251L2.662.376,2.537.407,2.286.5,1.1,1.19l-.313.251-.6.6L0,2.286l.031.094H.094l.251-.125.094-.063.125-.031.5-.251L2.38,1.472,2.6,1.441l.219-.063h.125l.094-.031h.125l.251-.063h.219l.125-.031H4.2l.063-.031.783.031a2.838,2.838,0,0,1,.5.031l1.034.125.251.063h.125l.72.188.125.063.345.094h.031v.031h.063l1.378.6.157.094.157.063.47.313.063.063.219.157.094.094v.031h.094V3.195l-.031-.157-.188-.345A2.6,2.6,0,0,0,10.273,2.192Z" fill="#231915"/>
              </g>
            </g>
            <g id="Group_104463" data-name="Group 104463" transform="translate(6.013 8.049)">
              <g id="Group_104460" data-name="Group 104460" transform="translate(0 0)">
                <g id="Group_104459" data-name="Group 104459" transform="translate(0 0)">
                  <path id="Path_75654" data-name="Path 75654" d="M6.307,4.116A4.648,4.648,0,0,0,5.375,1.2,2.722,2.722,0,0,0,3.153,0,2.763,2.763,0,0,0,.916,1.2,4.7,4.7,0,0,0,0,4.116a4.635,4.635,0,0,0,.916,2.9A2.753,2.753,0,0,0,3.153,8.233,2.713,2.713,0,0,0,5.375,7.021,4.583,4.583,0,0,0,6.307,4.116Z" fill="#231915"/>
                </g>
              </g>
              <g id="Group_104462" data-name="Group 104462" transform="translate(3.479 1.956)">
                <g id="Group_104461" data-name="Group 104461" transform="translate(0 0)">
                  <path id="Path_75655" data-name="Path 75655" d="M1.523.964a1.17,1.17,0,0,0-.249-.7A.622.622,0,0,0,.731,0,.665.665,0,0,0,.2.3a1.2,1.2,0,0,0-.2.73A1.057,1.057,0,0,0,.25,1.71a.651.651,0,0,0,.559.28.615.615,0,0,0,.513-.311A1.1,1.1,0,0,0,1.523.964Z" fill="#fff"/>
                </g>
              </g>
            </g>
            <g id="Group_104465" data-name="Group 104465" transform="translate(0.345 0)">
              <g id="Group_104464" data-name="Group 104464" transform="translate(0 0)">
                <path id="Path_75656" data-name="Path 75656" d="M12.089,4.416A68.5,68.5,0,0,0,5.669,0,16.586,16.586,0,0,0,3.884,1.034Q1.128,2.787,0,9.8A17.514,17.514,0,0,1,1.911,8.456,11.849,11.849,0,0,1,6.859,7.016a8.365,8.365,0,0,1,6.076,1.409Q13.217,5.262,12.089,4.416Z" fill="#e2ad98"/>
              </g>
            </g>
            <g id="Group_104467" data-name="Group 104467" transform="translate(0.157 12.893)">
              <g id="Group_104466" data-name="Group 104466" transform="translate(0 0)">
                <path id="Path_75657" data-name="Path 75657" d="M0,1.952.752,6.243a18.493,18.493,0,0,0,11.056-.125l1.034-4.447Q7.548-1.806,0,1.952Z" fill="#e2ad98"/>
              </g>
            </g>
            <g id="Group_104469" data-name="Group 104469" transform="translate(0 6.358)">
              <g id="Group_104468" data-name="Group 104468" transform="translate(0 0)">
                <path id="Path_75658" data-name="Path 75658" d="M12.935,2.13l.157.125.094.031.6.376.094.094.094.031.125.125q.031.031.094-.031V2.819l-.094-.157L14.031,2.6l-.063-.094-.063-.125-.94-.94L12.152.908l-1.5-.6L10.461.282,10.3.219,9.584.094,9.051.063,8.864.031,7.391,0,7.016.031a9.594,9.594,0,0,0-1.5.219L5.324.282,5.136.345,4.949.376,4.886.407,3.758.846,3.6.94,3.445,1l-.063.063L3.289,1.1l-.125.094-.282.157L.376,3.195,0,3.57v.094H.094L3.351,2.192,3.633,2.1,3.758,2l.094-.031h.063l.438-.188.125-.031.157-.063.157-.031.313-.094.971-.188h.157l.188-.031,2.224-.125.188.031,1.441.063.752.125.125.031.157.063.125.031h.063l.063.031.251.063.5.188.094.063.125.031L12.622,2Z" fill="#231915"/>
              </g>
            </g>
            <g id="Group_104471" data-name="Group 104471" transform="translate(2.167 12.544)">
              <g id="Group_104470" data-name="Group 104470" transform="translate(0 0)">
                <path id="Path_75659" data-name="Path 75659" d="M10.611,1.832q.063.063.063-.031.063-.063-.031-.063l-.313-.219L8.763.736,8.356.611Q7.6.36,7.448.329l-1-.219L5.412.016a8.533,8.533,0,0,0-1.034,0H4L3.877.047l-.5.063A6.233,6.233,0,0,0,2.437.3L2.03.391.683.893l-.219.125L.37,1.049l-.094.063L.15,1.174l-.094.063q-.094,0-.031.063,0,.094.063.031L2.969.7h.219L3.439.673,5.13.611l.251.031a5.427,5.427,0,0,1,1,.094l.94.125.438.125h.125Z" fill="#231915"/>
              </g>
            </g>
            <g id="Group_104473" data-name="Group 104473" transform="translate(26.127 12.34)">
              <g id="Group_104472" data-name="Group 104472" transform="translate(0 0)">
                <path id="Path_75660" data-name="Path 75660" d="M.056.658Q-.038.658.025.72q0,.094.063.031H.182L2.155.564,3.689.626,4.5.752l2.067.626.157.094.877.407.219.157.219.094.5.313q.031.031.094-.031V2.349l-.094-.063-.063-.094-.47-.438-1.065-.72L5.475.345,4.6.125,3.533,0,2.123.063.839.345l-.5.188L.276.564.15.6Z" fill="#231915"/>
              </g>
            </g>
          </g>
          <g id="Group_104481" data-name="Group 104481" transform="translate(54.612 50.433)">
            <g id="Group_104476" data-name="Group 104476" transform="translate(0 0)">
              <g id="Group_104475" data-name="Group 104475" transform="translate(0 0)">
                <path id="Path_75661" data-name="Path 75661" d="M1.941,22.349q7.535,4.743,9.628-2.718l.1-1.553L8.645,14.843A37.029,37.029,0,0,1,7.739,1.022Q5.324-1.564,4.089,2.393L0,20.33A3.66,3.66,0,0,0,1.941,22.349Z" fill="#e2ad98"/>
              </g>
            </g>
            <g id="Group_104478" data-name="Group 104478" transform="translate(6.433 1.073)">
              <g id="Group_104477" data-name="Group 104477" transform="translate(0 0)">
                <path id="Path_75662" data-name="Path 75662" d="M.012,9.059a32.028,32.028,0,0,0,.44,3.753Q.8,14.6.84,14.675,2.419,16,3.506,16.9a2.842,2.842,0,0,1,1.035,2.588,2.636,2.636,0,0,1-1.035,1.864,3.118,3.118,0,0,0,2.148-2.64,2.686,2.686,0,0,0-1.475-2.769q-1.658-.96-2.562-1.553l.285-.544-.155-.233-.621.026.673-.052L.762,8.2.84,4.3,1.306,0A22.008,22.008,0,0,0,.322,4.141,28.693,28.693,0,0,0,.012,9.059Z" transform="translate(0)" fill="#f0cbbc"/>
              </g>
            </g>
            <g id="Group_104480" data-name="Group 104480" transform="translate(0.026 1.073)">
              <g id="Group_104479" data-name="Group 104479" transform="translate(0 0)">
                <path id="Path_75663" data-name="Path 75663" d="M7.765,0,7.713.026,7.221,4.452,7.2,6.238l-.026.1.026.1.078,2.692.518,4.193.181.854a.473.473,0,0,0,.207.336l.621.388,1.372,1.139.647.8L10.9,17l.1.129.129.285.052.078.181.544.026.155v.078l.026.078.026.259q.01-.035.026-.078l-.026.155v-.078q-.26.677-.285.751a3.266,3.266,0,0,1-.388.776,4.364,4.364,0,0,1-.492.7,7.29,7.29,0,0,1-.621.6,4.267,4.267,0,0,1-.725.466,4.794,4.794,0,0,1-.8.336,5.623,5.623,0,0,1-.854.207l-.44.078h-.1l-.129.026H6.5l-.1.026H5.72l-.233-.026a3.293,3.293,0,0,1-.88-.129,5.528,5.528,0,0,1-.88-.233L2.9,21.819,1.4,20.758l-.673-.647a4.342,4.342,0,0,1-.647-.7q-.026-.026-.078,0v.078l.544.776a5.39,5.39,0,0,0,.621.725,8.3,8.3,0,0,0,.7.673l.776.569.88.492.906.336.984.207.492.052H6.911l.492-.052a9.329,9.329,0,0,0,.984-.207,3.863,3.863,0,0,0,.958-.362,4.116,4.116,0,0,0,.88-.518,3.7,3.7,0,0,0,.751-.7l.647-.828a6.8,6.8,0,0,0,.466-.88,8.221,8.221,0,0,0,.336-.958l.026-.155-.026-.544-.181-.725-.129-.285-.026-.1-.414-.725-.776-.958-.958-.854-.259-.155-.155-.129-.647-.414L7.946,7.3V7.2l-.026-.1-.026-.647-.026-.129-.026-.751-.026-.129L7.791,4.012,7.765,3.8,7.791.052Q7.842,0,7.765,0Z" transform="translate(0 0)" fill="#a97059"/>
              </g>
            </g>
          </g>
          <g id="Group_104486" data-name="Group 104486" transform="translate(45.857 80.236)">
            <g id="Group_104483" data-name="Group 104483" transform="translate(0.471 0)">
              <g id="Group_104482" data-name="Group 104482" transform="translate(0)">
                <path id="Path_75664" data-name="Path 75664" d="M10.6,1.2l.226.038h.226l1.845.339.226.075.753.188q.113.038.376.113l3.576,1.28.151.038.226.113.226.075q.075.075.075-.038.075-.075-.038-.075L18.315,3.2l-.866-.6L15.228,1.431l-.151-.113L13.383.678,13.158.64,12.969.565,12.518.452,12.329.376,10.3.038H9.807L9.694,0H8.263L8.151.038H7.925L7.7.075H7.511L4.122.715Q3.9.791,3.407.941l-.678.226a9.008,9.008,0,0,0-1.167.527l-.113.038L.7,2.146l-.678.527q-.038.075,0,.113H.132L.7,2.522l.188-.038,1.129-.414,2.9-.6H5.1l.188-.038L8,1.167l.226-.038Z" fill="#231915"/>
              </g>
            </g>
            <g id="Group_104485" data-name="Group 104485" transform="translate(0 1.129)">
              <g id="Group_104484" data-name="Group 104484" transform="translate(0 0)">
                <path id="Path_75665" data-name="Path 75665" d="M.414.113V.151L.3.3.226.376V.452L.188.489.151.6.075.753,0,1.054v.376l.075.376.151.339L.3,2.259l.188.188A.413.413,0,0,0,.753,2.6l.414.151H1.28l.188.038h.113l.113-.113L1.619,2.6,1.544,2.56l-.226-.226H1.28L.979,2,.941,1.92.9,1.882V1.845L.715,1.355V1.2L.678,1.092v-.9L.64.113V.075L.565,0,.452.113Z" fill="#c18770"/>
              </g>
            </g>
          </g>
          <g id="Group_104489" data-name="Group 104489" transform="matrix(0.93, -0.369, 0.369, 0.93, 34.718, 51.631)">
            <g id="Group_104488" data-name="Group 104488" transform="translate(0 0)">
              <g id="Group_104487" data-name="Group 104487" transform="translate(0)">
                <path id="Path_75666" data-name="Path 75666" d="M3.446.647a10,10,0,0,0-1.77.751A13.95,13.95,0,0,0,0,3.52,24.654,24.654,0,0,1,6.426,2.148a17.686,17.686,0,0,1,6.488.647,17.685,17.685,0,0,0,2.484.673,1.479,1.479,0,0,0,.807-.078,1.259,1.259,0,0,0,.435-.621l.031-.078-.031-.078a2.225,2.225,0,0,0-1.211-1.19A16.629,16.629,0,0,0,10.99.233,16.963,16.963,0,0,0,3.446.647Z" transform="translate(2.266 0)" fill="#540e00"/>
                <path id="Path_75667" data-name="Path 75667" d="M2.111,2.847a16.453,16.453,0,0,1,7.2-1.475,23.066,23.066,0,0,1,6.55.854q2.2.621,2.639.336a1.006,1.006,0,0,0,.435-1.268l-.031.078a1.259,1.259,0,0,1-.435.621,1.479,1.479,0,0,1-.807.078A17.685,17.685,0,0,1,15.181,1.4,17.686,17.686,0,0,0,8.693.751,24.654,24.654,0,0,0,2.266,2.122,13.95,13.95,0,0,1,3.943,0,10,10,0,0,0,2.049,1.475a10.521,10.521,0,0,0-.714.776L0,4.27Z" transform="translate(0 1.398)" fill="#2b0700"/>
              </g>
            </g>
          </g>
          <g id="Group_104492" data-name="Group 104492" transform="matrix(-0.845, -0.535, 0.535, -0.845, 75.907, 57.4)">
            <g id="Group_104491" data-name="Group 104491" transform="translate(0 0)">
              <g id="Group_104490" data-name="Group 104490">
                <path id="Path_75668" data-name="Path 75668" d="M2.576,2.584a6.862,6.862,0,0,1-1.323-.675A12.484,12.484,0,0,1,0,0,15.786,15.786,0,0,0,4.8,1.234,11.1,11.1,0,0,0,9.653.652,11.475,11.475,0,0,1,11.509.047a.935.935,0,0,1,.6.07,1.148,1.148,0,0,1,.325.559l.023.07-.023.07a1.865,1.865,0,0,1-.9,1.071A10.832,10.832,0,0,1,8.214,2.956,10.618,10.618,0,0,1,2.576,2.584Z" transform="translate(1.694 1.932)" fill="#540e00"/>
                <path id="Path_75669" data-name="Path 75669" d="M1.578,1.28A10.562,10.562,0,0,0,6.961,2.607a14.521,14.521,0,0,0,4.9-.768q1.647-.559,1.972-.3a1,1,0,0,1,.325,1.141l-.023-.07a1.148,1.148,0,0,0-.325-.559.935.935,0,0,0-.6-.07,11.475,11.475,0,0,0-1.856.605,11.1,11.1,0,0,1-4.85.582,15.786,15.786,0,0,1-4.8-1.234A12.484,12.484,0,0,0,2.947,3.841,7.851,7.851,0,0,1,1.531,2.514q-.277-.327-.534-.7L0,0Z" fill="#2b0700"/>
              </g>
            </g>
          </g>
          <g id="Group_104494" data-name="Group 104494" transform="translate(36.158 71.461)">
            <g id="Group_104493" data-name="Group 104493" transform="translate(0 0)">
              <path id="Path_75670" data-name="Path 75670" d="M3.106,2.329v.776h.776m-.776,0v.776m3.106-.776L3.106,6.212,0,3.106,3.106,0Zm-3.882,0h.776" fill="none" stroke="rgba(0,0,0,0)" stroke-linecap="round" stroke-linejoin="round" stroke-width="0.079"/>
            </g>
          </g>
        </g>
        <g id="Group_104500" data-name="Group 104500" transform="matrix(-0.993, -0.118, 0.118, -0.993, -44.266, -1186.354)">
          <g id="Group_104497" data-name="Group 104497" transform="translate(0 0)">
            <g id="Group_104496" data-name="Group 104496">
              <path id="Path_75671" data-name="Path 75671" d="M4.634,3.649q-.026-.078.207-1.76l.569.543a4.652,4.652,0,0,1,.958,2.433Q5.721,12.837,5.824,21.4A58.952,58.952,0,0,1,4.634,3.649M11.8,22.671q-.155-.751-.311-1.475A62.492,62.492,0,0,1,11.13,3.7q.207-1.837.569-3.7a4.528,4.528,0,0,1,1.63,3.08A4.314,4.314,0,0,1,13.2,3.7a84.38,84.38,0,0,0-1.449,17.288q0,.854.052,1.682M0,13.2a16.685,16.685,0,0,0,.932-1.863Q.907,12.681.907,16.02a26.708,26.708,0,0,0,1.242,7.3,17.02,17.02,0,0,1-1.19-3.494,14.738,14.738,0,0,0-.466-1.579A19.681,19.681,0,0,1,0,13.2Z" transform="translate(1.003 2.029)" fill="#c18770"/>
              <path id="Path_75672" data-name="Path 75672" d="M17.1,44.369q-.414,0-.828-.026l-.078-.129q-.052-.026-.052-.052A9.542,9.542,0,0,1,9.364,38.6q-1.708-2.666-3.83-6.755-.466-.751-.983-1.475a7.02,7.02,0,0,1-.44-.751q-.751-1.113-1.32-2.1A20.615,20.615,0,0,1,.1,21.672Q-.315,19.834,1,15.228A19.681,19.681,0,0,0,1.5,20.274a14.738,14.738,0,0,1,.466,1.579,17.02,17.02,0,0,0,1.19,3.494,26.708,26.708,0,0,1-1.242-7.3q0-3.339.026-4.684l.026-2.019q.1-.7.285-1.449.44-2.07.776-4.193L3.1,5.6q1.475-2.8,2.743-1.682Q5.611,5.6,5.637,5.678a58.952,58.952,0,0,0,1.19,17.754q-.1-8.566.543-16.537.026-.621.078-1.216Q7.682,3.5,8.174.812q3.054-2.1,4.529,1.216-.362,1.863-.569,3.7a62.492,62.492,0,0,0,.362,17.5q.155.725.311,1.475-.052-.828-.052-1.682A84.38,84.38,0,0,1,14.2,5.73a4.314,4.314,0,0,0,.129-.621q.285-1.113.828-2.9,4.4.6,5.409,3.623a9.253,9.253,0,0,1-.155,4.814q-1.76,9.912-.026,14.182,1.682.414,1.475-4.27-.362-5.228,1.682-6.7a4.356,4.356,0,0,1,5.357-.1Q27.014,22.5,27.868,26.874q.828,4.374.854,4.477-.414,1.061-.906,2.07a51.785,51.785,0,0,1-2.847,5.331q-.569.932-1.113,1.656a9.165,9.165,0,0,1-3.623,3.054,2.319,2.319,0,0,1-.414.207A5.543,5.543,0,0,1,17.1,44.369Z" fill="#e2ad98"/>
            </g>
          </g>
          <g id="Group_104499" data-name="Group 104499" transform="translate(14.825 35.13)">
            <g id="Group_104498" data-name="Group 104498" transform="translate(0 0)">
              <path id="Path_75673" data-name="Path 75673" d="M3.106,3.882V3.106h.776m-.776,0V2.329m3.106.776L3.106,0,0,3.106,3.106,6.211Zm-3.882,0h.776" fill="none" stroke="rgba(0,0,0,0)" stroke-linecap="round" stroke-linejoin="round" stroke-width="0.079"/>
            </g>
          </g>
        </g>
      </g>
    </g>
  </g>
</svg>
