<svg xmlns="http://www.w3.org/2000/svg" xmlns:xlink="http://www.w3.org/1999/xlink" width="375" height="270" viewBox="0 0 375 270">
  <defs>
    <clipPath id="clip-path">
      <rect id="Rectangle_8661" data-name="Rectangle 8661" width="375" height="270" transform="translate(17312.434 -12428)" fill="#fff" stroke="#707070" stroke-width="1" opacity="0.59"/>
    </clipPath>
    <clipPath id="clip-path-2">
      <path id="Path_75365" data-name="Path 75365" d="M0,0H210.57V206.421H140.348l-1.041,8.435H117.666l-5.371-8.435H0Z" transform="translate(107 135)" fill="#fff"/>
    </clipPath>
    <radialGradient id="radial-gradient" cx="0.501" cy="0.501" r="0.508" gradientTransform="translate(-0.111) scale(1.221 1)" gradientUnits="objectBoundingBox">
      <stop offset="0" stop-color="#6face7" stop-opacity="0.498"/>
      <stop offset="1" stop-color="#2281e0" stop-opacity="0.498"/>
    </radialGradient>
    <radialGradient id="radial-gradient-2" cx="0.383" cy="0.477" r="0.476" gradientTransform="matrix(1.234, 0.347, -0.504, 1.034, 0.25, -0.483)" gradientUnits="objectBoundingBox">
      <stop offset="0" stop-color="#fff" stop-opacity="0.498"/>
      <stop offset="1" stop-color="#fff" stop-opacity="0"/>
    </radialGradient>
    <radialGradient id="radial-gradient-3" cx="0.526" cy="0.51" r="0.57" gradientTransform="matrix(1.285, 0.285, -0.448, 1.123, 0.031, 0.046)" gradientUnits="objectBoundingBox">
      <stop offset="0" stop-color="#fff" stop-opacity="0.298"/>
      <stop offset="1" stop-color="#fff" stop-opacity="0"/>
    </radialGradient>
  </defs>
  <g id="Mask_Group_16609" data-name="Mask Group 16609" transform="translate(-17312.434 12428)" clip-path="url(#clip-path)">
    <g id="Mask_Group_16599" data-name="Mask Group 16599" transform="translate(17310.363 -12535.4)" clip-path="url(#clip-path-2)">
      <g id="male_teen_7" data-name="male teen 7" transform="translate(125.67 139.559)">
        <g id="Group_103612" data-name="Group 103612" transform="translate(118.29 207.032) rotate(169.796)">
          <g id="Group_103601" data-name="Group 103601" transform="translate(0.026 0)">
            <g id="Group_103600" data-name="Group 103600" transform="translate(0)">
              <path id="Path_75260" data-name="Path 75260" d="M28.767,40.849,8.682,45.242Q4.424,26.073.445,12.317H.471A9.763,9.763,0,0,1,0,9.258,8.9,8.9,0,0,1,2.694,2.72,8.945,8.945,0,0,1,9.258,0,8.859,8.859,0,0,1,15.8,2.72a8.995,8.995,0,0,1,2.171,3.321A176.312,176.312,0,0,1,28.767,40.849Z" fill="#e2ad98"/>
            </g>
          </g>
          <g id="Group_103604" data-name="Group 103604" transform="translate(6.407 32.856)">
            <g id="Group_103603" data-name="Group 103603" transform="translate(0 0)">
              <g id="Group_103602" data-name="Group 103602" transform="translate(0 0)">
                <path id="Path_75261" data-name="Path 75261" d="M2.406,11.523,0,2.265q11.7-3.816,20.947-1.2L22.83,9.326Z" fill="#c18770"/>
              </g>
            </g>
          </g>
          <g id="Group_103606" data-name="Group 103606" transform="translate(0 34.596)">
            <g id="Group_103605" data-name="Group 103605" transform="translate(0 0)">
              <path id="Path_75262" data-name="Path 75262" d="M19.875,53.22a14.779,14.779,0,0,1-4.315-8.29h-.026Q12.013,28.017,0,8.083,11.3-4.758,34.834,2.8A105.5,105.5,0,0,1,45.87,39.726a16.211,16.211,0,0,1,.209,2.641,14.789,14.789,0,0,1-4.5,10.853,14.789,14.789,0,0,1-10.853,4.5A14.789,14.789,0,0,1,19.875,53.22Z" fill="#7a2230"/>
            </g>
          </g>
          <g id="Group_103609" data-name="Group 103609" transform="translate(0.706 34.581)">
            <g id="Group_103608" data-name="Group 103608" transform="translate(0 0)">
              <g id="Group_103607" data-name="Group 103607">
                <path id="Path_75263" data-name="Path 75263" d="M34.023,2.894q7.552,14.865,9.6,26.518t1.334,17.365q-4.315-32.454-13.7-40.848Q21.889-2.493,0,7.392,11.06-4.626,34.023,2.894Z" fill="#4b0f18"/>
              </g>
            </g>
          </g>
          <g id="Group_103611" data-name="Group 103611" transform="translate(27.59 73.825)">
            <g id="Group_103610" data-name="Group 103610" transform="translate(0 0)">
              <path id="Path_75264" data-name="Path 75264" d="M3.138,3.923V3.138h.785m-.785,0V2.354m3.138.785L3.138,0,0,3.138,3.138,6.276Zm-3.923,0h.785" transform="translate(0 0)" fill="none" stroke="rgba(0,0,0,0)" stroke-linecap="round" stroke-linejoin="round" stroke-width="0.089"/>
            </g>
          </g>
        </g>
        <g id="Group_103621" data-name="Group 103621" transform="matrix(0.86, 0.51, -0.51, 0.86, 123.352, 128.924)">
          <g id="Group_103614" data-name="Group 103614" transform="matrix(0.978, -0.208, 0.208, 0.978, 0, 7.99)">
            <g id="Group_103613" data-name="Group 103613" transform="translate(0 0)">
              <path id="Path_75265" data-name="Path 75265" d="M20.614,60.536a38.069,38.069,0,0,1-2.955,7.688L.009,63.334q-.026-1.987.026-3.975A371.26,371.26,0,0,1,3.643,15.428,125.242,125.242,0,0,0,4.9.052L17.424,0a127.281,127.281,0,0,0,.732,20.057q1.129,8.756,2.484,22.2T20.614,60.536Z" transform="translate(0)" fill="#e2ad98"/>
            </g>
          </g>
          <g id="Group_103616" data-name="Group 103616" transform="translate(4.735 0)">
            <g id="Group_103615" data-name="Group 103615" transform="translate(0 0)">
              <path id="Path_75266" data-name="Path 75266" d="M12.559,6.279a6.049,6.049,0,0,1-1.841,4.438,6.049,6.049,0,0,1-4.438,1.841,6.049,6.049,0,0,1-4.438-1.841A6.049,6.049,0,0,1,0,6.279,6.049,6.049,0,0,1,1.841,1.841,6.049,6.049,0,0,1,6.279,0a6.049,6.049,0,0,1,4.438,1.841A6.049,6.049,0,0,1,12.559,6.279Z" fill="#e2ad98"/>
            </g>
          </g>
          <g id="Group_103618" data-name="Group 103618" transform="translate(5.682 12.149)">
            <g id="Group_103617" data-name="Group 103617" transform="translate(0 0)">
              <path id="Path_75267" data-name="Path 75267" d="M6.48,51.488l.314,2.3q.052.052-.026.052-.052.052-.052-.026L4,39.224,2.348,27.038.021.052Q-.031,0,.047,0L.1.026,6.4,50.913Q6.454,51.305,6.48,51.488Z" fill="#c18770"/>
            </g>
          </g>
          <g id="Group_103620" data-name="Group 103620" transform="translate(19.222 65.73)">
            <g id="Group_103619" data-name="Group 103619" transform="translate(0 0)">
              <path id="Path_75268" data-name="Path 75268" d="M3.138,3.922V3.138h.784m-.784,0V2.353m3.138.784L3.138,0,0,3.138,3.138,6.276Zm-3.922,0h.784" fill="none" stroke="rgba(0,0,0,0)" stroke-linecap="round" stroke-linejoin="round" stroke-width="0.089"/>
            </g>
          </g>
        </g>
        <g id="Group_103631" data-name="Group 103631" transform="translate(0.064 165.767) rotate(-12.071)">
          <g id="Group_103623" data-name="Group 103623" transform="translate(0 32.851)">
            <g id="Group_103622" data-name="Group 103622" transform="translate(0 0)">
              <path id="Path_75269" data-name="Path 75269" d="M79.93,55.658A337.567,337.567,0,0,0,76.373,0l-68,2.929A371.5,371.5,0,0,1,0,56.286Q37.581,70.716,79.93,55.658Z" fill="#ede6de"/>
            </g>
          </g>
          <g id="Group_103625" data-name="Group 103625" transform="translate(8.155 2.099)">
            <g id="Group_103624" data-name="Group 103624" transform="translate(0 0)">
              <path id="Path_75270" data-name="Path 75270" d="M0,34.384A33.134,33.134,0,0,0,10.064,58.7a33.134,33.134,0,0,0,24.32,10.064A33.134,33.134,0,0,0,58.7,58.7a33.134,33.134,0,0,0,10.064-24.32A33.134,33.134,0,0,0,58.7,10.064,33.134,33.134,0,0,0,34.384,0a33.134,33.134,0,0,0-24.32,10.064A33.134,33.134,0,0,0,0,34.384Z" transform="translate(0 0)" fill="#ede6de"/>
            </g>
          </g>
          <g id="Group_103628" data-name="Group 103628" transform="translate(0.052 0)">
            <g id="Group_103627" data-name="Group 103627" transform="translate(0 0)">
              <g id="Group_103626" data-name="Group 103626">
                <path id="Path_75271" data-name="Path 75271" d="M41.142,9.1q.811-.026,1.648-.026.837.1,1.674.235a4.5,4.5,0,0,1,.5-.026A37.174,37.174,0,0,1,44.49,2.2a8.679,8.679,0,0,1,.131-1.177A9.6,9.6,0,0,1,44.83,0l-.471,1.491a35.454,35.454,0,0,0-21.186,5L16.347,13.6a56.523,56.523,0,0,0-6.016,10.384A48.527,48.527,0,0,0,8.265,34.106,426.341,426.341,0,0,1,0,89.32,44.548,44.548,0,0,0,7.01,91.6q4.306,1.072,6.774,1.8a36.046,36.046,0,0,0,6.146,1.2q3.681.478,7.611,1.2a38.473,38.473,0,0,0,7.951.68q4.054-.074,5.754-.131t6.957-.392a67.448,67.448,0,0,0,9.6-1.229q4.223-.732,7.245-1.517,3.051-.785,3.766-.994.709-.183,1.412-.392.706-.235,1.412-.445-.549.1-1.072.235-4.289.837-8.736,1.334-3.165.366-6.382.68a114.042,114.042,0,0,1-11.691.392,62.433,62.433,0,0,1-7.245-.575,59.135,59.135,0,0,1-10.2-2.328,22.934,22.934,0,0,1-7.14-3.949,13.754,13.754,0,0,1-4.708-7.35,36.778,36.778,0,0,1-1.02-5.937,89.008,89.008,0,0,1-.34-10.776q.131-4.054.392-8.16.157-2.8.445-5.6.343-3.139.6-7.48.279-4.341,1.125-9.494a31.248,31.248,0,0,1,3.269-9.625,20.961,20.961,0,0,1,6.722-7.4,43.024,43.024,0,0,1,6.225-3.609A28.315,28.315,0,0,1,41.142,9.1Z" fill="#dad0c5"/>
              </g>
            </g>
          </g>
          <g id="Group_103630" data-name="Group 103630" transform="translate(36.827 93.217)">
            <g id="Group_103629" data-name="Group 103629" transform="translate(0 0)">
              <path id="Path_75272" data-name="Path 75272" d="M3.139,2.354v.785h.785m-.785,0v.785m3.139-.785L3.139,6.277,0,3.139,3.139,0Zm-3.923,0h.785" fill="none" stroke="rgba(0,0,0,0)" stroke-linecap="round" stroke-linejoin="round" stroke-width="0.089"/>
            </g>
          </g>
        </g>
        <g id="Group_103656" data-name="Group 103656" transform="translate(12.638 103.857) rotate(8.505)">
          <g id="Group_103633" data-name="Group 103633" transform="translate(29.687 0)">
            <g id="Group_103632" data-name="Group 103632" transform="translate(0)">
              <path id="Path_75273" data-name="Path 75273" d="M31.649,18.782l2.589-12.4a29.558,29.558,0,0,0-8.527-4.891A26.907,26.907,0,0,0,17.106,0,28.853,28.853,0,0,0,.6,4.971L0,18.782Z" fill="#e2ad98"/>
            </g>
          </g>
          <g id="Group_103635" data-name="Group 103635" transform="translate(8.239 3.062)">
            <g id="Group_103634" data-name="Group 103634" transform="translate(0 0)">
              <path id="Path_75274" data-name="Path 75274" d="M73.237,20.689a18.219,18.219,0,0,0-2.773-9.155Q67.941,7.542,61.833,5.1a53.229,53.229,0,0,1-8.37-3.923q-2.134,5.676-9.1,9.73Q37.421,14.988,32.2,9.652,27,4.342,25.685,3.217A11.164,11.164,0,0,1,23.253,0,43.447,43.447,0,0,0,17.76,1.517q-4.6,1.446-9.207,2.956A54.6,54.6,0,0,0,0,8.161L6.905,80.142q2.72-3.714,5.7-7.193,2.668-3.113,5.6-6.042l1.1-1.1,1.1-1.046q2.119-1.936,4.394-3.688a44.065,44.065,0,0,1,8.762-5.153,27.82,27.82,0,0,1,8.605-2.2,26.329,26.329,0,0,1,8.5.759,32.061,32.061,0,0,1,8.344,3.662,38.758,38.758,0,0,1,5.205,3.819,55.614,55.614,0,0,1,4.6,4.447,69.211,69.211,0,0,1,6.434,7.978Z" transform="translate(0)" fill="#ede6de"/>
            </g>
          </g>
          <g id="Group_103637" data-name="Group 103637" transform="translate(0.262 9.313)">
            <g id="Group_103636" data-name="Group 103636" transform="translate(0 0)">
              <path id="Path_75275" data-name="Path 75275" d="M30.707,15.354A14.792,14.792,0,0,0,26.208,4.5,14.792,14.792,0,0,0,15.354,0,14.792,14.792,0,0,0,4.5,4.5,14.792,14.792,0,0,0,0,15.354,14.792,14.792,0,0,0,4.5,26.208a14.792,14.792,0,0,0,10.855,4.5,14.792,14.792,0,0,0,10.855-4.5A14.792,14.792,0,0,0,30.707,15.354Z" transform="translate(0 0)" fill="#ede6de"/>
            </g>
          </g>
          <g id="Group_103640" data-name="Group 103640" transform="translate(10.802 37.117)">
            <g id="Group_103639" data-name="Group 103639" transform="translate(0 0)">
              <g id="Group_103638" data-name="Group 103638">
                <path id="Path_75276" data-name="Path 75276" d="M13.653,0Q.026,2.223,0,2.2L4.29,46.348l9.181-11.3Z" fill="#dad0c5"/>
              </g>
            </g>
          </g>
          <g id="Group_103645" data-name="Group 103645" transform="translate(0 3.454)">
            <g id="Group_103642" data-name="Group 103642" transform="translate(0 0)">
              <g id="Group_103641" data-name="Group 103641" transform="translate(0 0)">
                <path id="Path_75277" data-name="Path 75277" d="M31.387,21.448A75.241,75.241,0,0,1,36.252,5.493L30.132,0A134.8,134.8,0,0,0,10.462,6.513Q.507,10.563,0,22.128,1.392,30.914,8,34.6l.5.262q.333.185.654.34.072.031.131.052l.445.183a14.162,14.162,0,0,0,4.316,1.046,15.614,15.614,0,0,0,1.569.078,14.792,14.792,0,0,0,10.855-4.5,14.436,14.436,0,0,0,1.1-1.229Q30.323,27.852,31.387,21.448Z" fill="#7a2230"/>
              </g>
            </g>
            <g id="Group_103644" data-name="Group 103644" transform="translate(60.106 1.046)">
              <g id="Group_103643" data-name="Group 103643" transform="translate(0 0)">
                <path id="Path_75278" data-name="Path 75278" d="M10.515,9.625q5,3.973,8.448,12.163,1.606,3.788,2.8,7.193a70.463,70.463,0,0,1-.1-8.265,20.981,20.981,0,0,0-.445-5.65Q21,12.455,18.126,9.39a19.626,19.626,0,0,0-6.565-5.022A53.151,53.151,0,0,1,2.459,0L0,3.976A31.366,31.366,0,0,1,10.515,9.625Z" transform="translate(0)" fill="#7a2230"/>
              </g>
            </g>
          </g>
          <g id="Group_103647" data-name="Group 103647" transform="translate(45.354 4.134)">
            <g id="Group_103646" data-name="Group 103646" transform="translate(0 0)">
              <path id="Path_75279" data-name="Path 75279" d="M10.253,3.923,10.1,4l-.5.314L7.324,5.44,3.95,6.487l-.157.026-.157.052L.052,7.141H.026L0,7.193l.026.026.209.052,1.412.1.131.026,1.8-.052.34-.052h.183l1.465-.262,1.543-.445a12.217,12.217,0,0,0,1.543-.6L9.416,5.6l2.328-1.569,2.04-2.066L14.673.706l.1-.131.183-.34.1-.157Q15.092.052,15.04,0h-.052l-.131.157L13.758,1.2l-.1.078-.314.288-.1.078-.209.209Z" fill="#c18770"/>
            </g>
          </g>
          <g id="Group_103649" data-name="Group 103649" transform="translate(37.194 12.033)">
            <g id="Group_103648" data-name="Group 103648" transform="translate(0 0)">
              <path id="Path_75280" data-name="Path 75280" d="M16.714,1.648l-.575.235-.209.052a17.636,17.636,0,0,1-1.752.549q-.785.209-.915.235l-1.412.288h-.131l-.1.026L9.39,3.191l-.131.026-.1-.026H8.422L6.984,3.06,4.551,2.537,1.909,1.569.942,1.1.732,1.02.575.915.078.68Q0,.6,0,.706V.759L1.6,2.145l.131.078.575.418,2.328,1.2h.052l1.046.366.131.026.1.052.262.052a10.952,10.952,0,0,0,2.066.366,13.435,13.435,0,0,0,2.2.026l.811-.078,2.328-.5.262-.078.1-.052L14.124,4l.5-.183A17.344,17.344,0,0,0,16.4,3.06l1.491-.837a12.885,12.885,0,0,0,1.2-.811L20.715.078V0h-.078L19.12.68l-.078.026-.575.262-.157.052-.157.078-1.229.5Z" fill="#dad0c5"/>
            </g>
          </g>
          <g id="Group_103651" data-name="Group 103651" transform="translate(28.667 1.884)">
            <g id="Group_103650" data-name="Group 103650" transform="translate(0 0)">
              <path id="Path_75281" data-name="Path 75281" d="M22,13.183a19,19,0,0,0,8.265-3.871,16.626,16.626,0,0,0,2.694-2.851A9.073,9.073,0,0,0,34.474,3.14q-.209-1.334-1.255-1.412A2.188,2.188,0,0,0,31.23,2.957a18.048,18.048,0,0,1-3.322,3.5A10.857,10.857,0,0,1,24.43,8.345a23.752,23.752,0,0,1-3.923.889,15.266,15.266,0,0,1-9.024-1.072,15.051,15.051,0,0,1-6.7-5.7A5.28,5.28,0,0,0,3.636.707,2.385,2.385,0,0,0,1.857,0Q.811,0,0,1.492A25.659,25.659,0,0,0,4.133,8.24a14.26,14.26,0,0,0,8.736,5.022A22.059,22.059,0,0,0,22,13.183Z" transform="translate(0 0)" fill="#7a2230"/>
            </g>
          </g>
          <g id="Group_103653" data-name="Group 103653" transform="translate(28.751 3.486)">
            <g id="Group_103652" data-name="Group 103652" transform="translate(0 0)">
              <path id="Path_75282" data-name="Path 75282" d="M19.3,12.053q.994-.1,2.38-.34l2.773-.732,1.569-.68.314-.183q.078,0,.026-.052,0-.078-.052-.026l-.1.026-.418.157-.209.052-.131.052-.418.1q-.314.1-1.491.366l-5.545.471-3.034-.183-2.432-.471-1.36-.418A19.389,19.389,0,0,1,8.574,9.045L7.4,8.339q-.654-.445-1.1-.811l-.157-.078-.1-.1-.262-.209L3.343,4.729.1.047Q.1-.031.047.021q-.078,0-.026.052L.544,1.329q.445.942.706,1.386L2.3,4.467A19.662,19.662,0,0,0,3.761,6.377l.915.968A11.753,11.753,0,0,0,5.7,8.26a12.781,12.781,0,0,0,1.151.889l1.229.785,2.746,1.255a23.971,23.971,0,0,0,2.929.732l.706.1,3.531.131Z" fill="#4b0f18"/>
            </g>
          </g>
          <g id="Group_103655" data-name="Group 103655" transform="translate(46.27 79.176)">
            <g id="Group_103654" data-name="Group 103654" transform="translate(0 0)">
              <path id="Path_75283" data-name="Path 75283" d="M3.139,2.354v.785h.785m-.785,0v.785m3.139-.785L3.139,6.277,0,3.139,3.139,0Zm-3.923,0h.785" fill="none" stroke="rgba(0,0,0,0)" stroke-linecap="round" stroke-linejoin="round" stroke-width="0.089"/>
            </g>
          </g>
        </g>
        <g id="Group_103675" data-name="Group 103675" transform="matrix(0.238, -0.971, 0.971, 0.238, 1.975, 158)">
          <g id="Group_103658" data-name="Group 103658" transform="translate(1.255 48.148)">
            <g id="Group_103657" data-name="Group 103657" transform="translate(0 0)">
              <path id="Path_75284" data-name="Path 75284" d="M18.176,37.268a218.716,218.716,0,0,0,6.8-33.293L5.178,0Q2.03,17.309,0,34.339Z" transform="translate(0 0)" fill="#e2ad98"/>
            </g>
          </g>
          <g id="Group_103660" data-name="Group 103660" transform="translate(1.229 73.804)">
            <g id="Group_103659" data-name="Group 103659" transform="translate(0 0)">
              <path id="Path_75285" data-name="Path 75285" d="M18.516,9.258A8.945,8.945,0,0,0,15.8,2.694,8.9,8.9,0,0,0,9.258,0,8.989,8.989,0,0,0,2.694,2.694,8.989,8.989,0,0,0,0,9.258,8.9,8.9,0,0,0,2.694,15.8a8.945,8.945,0,0,0,6.564,2.72A8.859,8.859,0,0,0,15.8,15.8,8.859,8.859,0,0,0,18.516,9.258Z" transform="translate(0 0)" fill="#e2ad98"/>
            </g>
          </g>
          <g id="Group_103663" data-name="Group 103663" transform="translate(5.021 44.879)">
            <g id="Group_103662" data-name="Group 103662" transform="translate(0 0)">
              <g id="Group_103661" data-name="Group 103661">
                <path id="Path_75286" data-name="Path 75286" d="M1.648,0,0,10.749a30.707,30.707,0,0,0,20.216,3.792L21.969,4.6Z" fill="#c18770"/>
              </g>
            </g>
          </g>
          <g id="Group_103665" data-name="Group 103665" transform="translate(16.581 0)">
            <g id="Group_103664" data-name="Group 103664" transform="translate(0 0)">
              <path id="Path_75287" data-name="Path 75287" d="M30.7,15.352A14.79,14.79,0,0,0,26.205,4.5,14.79,14.79,0,0,0,15.352,0,14.79,14.79,0,0,0,4.5,4.5,14.79,14.79,0,0,0,0,15.352,14.79,14.79,0,0,0,4.5,26.205a14.79,14.79,0,0,0,10.854,4.5,14.79,14.79,0,0,0,10.854-4.5A14.79,14.79,0,0,0,30.7,15.352Z" transform="translate(0 0)" fill="#7a2230"/>
            </g>
          </g>
          <g id="Group_103667" data-name="Group 103667" transform="translate(0.052 4.184)">
            <g id="Group_103666" data-name="Group 103666" transform="translate(0 0)">
              <path id="Path_75288" data-name="Path 75288" d="M35.987,50.737l10.827-35.96L21.341,0Q12.344,7.924,0,44.774,12.449,58.3,35.987,50.737Z" transform="translate(0)" fill="#7a2230"/>
            </g>
          </g>
          <g id="Group_103670" data-name="Group 103670" transform="translate(0 7.663)">
            <g id="Group_103669" data-name="Group 103669" transform="translate(0 0)">
              <g id="Group_103668" data-name="Group 103668" transform="translate(0 0)">
                <path id="Path_75289" data-name="Path 75289" d="M11.35,11.873A257.121,257.121,0,0,0,0,41.348q11.966,13.192,35.15,6.12-26.1,1.491-29.527-7.977Q3.531,33.737,18.255,0A67.251,67.251,0,0,0,11.35,11.873Z" fill="#4b0f18"/>
              </g>
            </g>
          </g>
          <g id="Group_103672" data-name="Group 103672" transform="translate(39.13 20.666)">
            <g id="Group_103671" data-name="Group 103671" transform="translate(0 0)">
              <path id="Path_75290" data-name="Path 75290" d="M7.056.047,3.709,8.311.126,22.8l-.1.811q-.052.052.026.052L.1,23.637l.575-1.674L7.135.073Q7.187.021,7.108.021,7.056-.031,7.056.047Z" fill="#4b0f18"/>
            </g>
          </g>
          <g id="Group_103674" data-name="Group 103674" transform="translate(28.795 12.213)">
            <g id="Group_103673" data-name="Group 103673" transform="translate(0 0)">
              <path id="Path_75291" data-name="Path 75291" d="M3.138,2.354v.785h.785m-.785,0v.785m3.138-.785L3.138,6.277,0,3.138,3.138,0Zm-3.923,0h.785" fill="none" stroke="rgba(0,0,0,0)" stroke-linecap="round" stroke-linejoin="round" stroke-width="0.089"/>
            </g>
          </g>
        </g>
        <g id="Group_103684" data-name="Group 103684" transform="translate(108.118 169.517) rotate(170.162)">
          <g id="Group_103677" data-name="Group 103677" transform="matrix(0.978, 0.208, -0.208, 0.978, 14.183, 0)">
            <g id="Group_103676" data-name="Group 103676" transform="translate(0 0)">
              <path id="Path_75292" data-name="Path 75292" d="M20.615,7.688A38.071,38.071,0,0,0,17.66,0L.009,4.89Q-.017,6.877.035,8.865A371.268,371.268,0,0,0,3.644,52.8,125.244,125.244,0,0,1,4.9,68.173l12.526.052a127.284,127.284,0,0,1,.732-20.057q1.129-8.756,2.484-22.2T20.615,7.688Z" fill="#e2ad98"/>
            </g>
          </g>
          <g id="Group_103679" data-name="Group 103679" transform="translate(4.735 62.166)">
            <g id="Group_103678" data-name="Group 103678" transform="translate(0 0)">
              <path id="Path_75293" data-name="Path 75293" d="M12.559,6.28a6.049,6.049,0,0,0-1.841-4.438A6.049,6.049,0,0,0,6.28,0,6.049,6.049,0,0,0,1.841,1.841,6.049,6.049,0,0,0,0,6.28a6.049,6.049,0,0,0,1.841,4.438A6.049,6.049,0,0,0,6.28,12.559a6.049,6.049,0,0,0,4.438-1.841A6.049,6.049,0,0,0,12.559,6.28Z" fill="#e2ad98"/>
            </g>
          </g>
          <g id="Group_103681" data-name="Group 103681" transform="translate(5.682 8.712)">
            <g id="Group_103680" data-name="Group 103680" transform="translate(0 0)">
              <path id="Path_75294" data-name="Path 75294" d="M6.48,2.374l.314-2.3Q6.846.021,6.768.021q-.052-.052-.052.026L4,14.639,2.348,26.825.021,53.812q-.052.052.026.052L.1,53.838,6.4,2.95Q6.454,2.557,6.48,2.374Z" fill="#c18770"/>
            </g>
          </g>
          <g id="Group_103683" data-name="Group 103683" transform="translate(19.223 2.718)">
            <g id="Group_103682" data-name="Group 103682" transform="translate(0 0)">
              <path id="Path_75295" data-name="Path 75295" d="M3.138,2.354v.785h.785m-.785,0v.785m3.138-.785L3.138,6.276,0,3.138,3.138,0Zm-3.923,0h.785" fill="none" stroke="rgba(0,0,0,0)" stroke-linecap="round" stroke-linejoin="round" stroke-width="0.089"/>
            </g>
          </g>
        </g>
        <g id="Group_103689" data-name="Group 103689" transform="matrix(0.978, 0.207, -0.207, 0.978, 57.12, 66.499)">
          <g id="Group_103686" data-name="Group 103686" transform="translate(0 0)">
            <g id="Group_103685" data-name="Group 103685" transform="translate(0 0)">
              <path id="Path_75296" data-name="Path 75296" d="M21.081,23.147a15.107,15.107,0,0,1-2.459-.994,35.554,35.554,0,0,1-4.891-3.112A42.866,42.866,0,0,1,9.311,15.2a23.835,23.835,0,0,1-3.636-4.708q-1.6-2.668-2.8-5.153A46.1,46.1,0,0,1,.68,0L0,29.4l21,.314Z" transform="translate(0 17.681)" fill="#e2ad98"/>
              <path id="Path_75297" data-name="Path 75297" d="M20.218,9.285h-.131a9.589,9.589,0,0,0-2.9-6.356A9.625,9.625,0,0,0,10.122,0,9.742,9.742,0,0,0,3.008,2.929,9.7,9.7,0,0,0,.1,10.017q0,.288.026.575L0,17.681a46.1,46.1,0,0,0,2.2,5.336Q3.4,25.5,5,28.169a23.835,23.835,0,0,0,3.636,4.708,42.867,42.867,0,0,0,4.42,3.845,35.553,35.553,0,0,0,4.891,3.112,15.107,15.107,0,0,0,2.459.994Z" transform="translate(0.68 0)" fill="#c18770"/>
            </g>
          </g>
          <g id="Group_103688" data-name="Group 103688" transform="translate(6.513 50.348)">
            <g id="Group_103687" data-name="Group 103687" transform="translate(0 0)">
              <path id="Path_75298" data-name="Path 75298" d="M3.139,2.354v.785h.785m-.785,0v.785m3.139-.785L3.139,6.277,0,3.139,3.139,0Zm-3.923,0h.785" fill="none" stroke="rgba(0,0,0,0)" stroke-linecap="round" stroke-linejoin="round" stroke-width="0.089"/>
            </g>
          </g>
        </g>
        <g id="Group_103803" data-name="Group 103803" transform="matrix(0.997, -0.073, 0.073, 0.997, 20.586, 6.334)">
          <g id="Group_103690" data-name="Group 103690" transform="translate(29.675 65.337)">
            <path id="Path_75299" data-name="Path 75299" d="M20.023,10.011a9.6,9.6,0,0,1-2.94,7.071,9.6,9.6,0,0,1-7.071,2.94,9.663,9.663,0,0,1-7.091-2.94A9.631,9.631,0,0,1,0,10.011,9.7,9.7,0,0,1,2.921,2.921,9.7,9.7,0,0,1,10.011,0a9.631,9.631,0,0,1,7.071,2.921A9.663,9.663,0,0,1,20.023,10.011Z" transform="translate(0 0)" fill="none" stroke="red" stroke-linecap="round" stroke-linejoin="round" stroke-width="0.089"/>
          </g>
          <g id="Group_103704" data-name="Group 103704" transform="translate(17.864 17.21)">
            <g id="Group_103692" data-name="Group 103692" transform="translate(0 0)">
              <g id="Group_103691" data-name="Group 103691" transform="translate(0 0)">
                <path id="Path_75300" data-name="Path 75300" d="M52.336,8.971A29.54,29.54,0,0,0,30.654,0,29.54,29.54,0,0,0,8.971,8.971,29.54,29.54,0,0,0,0,30.654a29.5,29.5,0,0,0,4.682,16.4l.026.131Q15.722,62.593,31.386,64.629q18.521,1.82,28.9-12.554l.68-16.452-.157.654a31.065,31.065,0,0,0,.5-5.623A29.54,29.54,0,0,0,52.336,8.971Z" fill="#e2ad98"/>
              </g>
            </g>
            <g id="Group_103703" data-name="Group 103703" transform="translate(6.68 13.174)">
              <g id="Group_103694" data-name="Group 103694" transform="matrix(0.566, 0.824, -0.824, 0.566, 18.299, 0.229)">
                <g id="Group_103693" data-name="Group 103693" transform="translate(0 0)">
                  <path id="Path_75301" data-name="Path 75301" d="M3.348,1.177,0,0,.235,20.4l2.511,1.8Q10.014,11.054,3.348,1.177Z" fill="#c18770"/>
                </g>
              </g>
              <g id="Group_103696" data-name="Group 103696" transform="translate(16.729 1.237)">
                <g id="Group_103695" data-name="Group 103695" transform="translate(0 0)">
                  <path id="Path_75302" data-name="Path 75302" d="M9.1.392,1.8,6.617,0,11.037Q13.591,10.256,11.508,0Z" transform="translate(0)" fill="#c18770"/>
                </g>
              </g>
              <g id="Group_103698" data-name="Group 103698" transform="translate(26.38 1.106)">
                <g id="Group_103697" data-name="Group 103697" transform="translate(0 0)">
                  <path id="Path_75303" data-name="Path 75303" d="M10.07,13.574l.183-5.362L4.813,0,0,1.517Q.414,10.361,10.07,13.574Z" transform="translate(0 0)" fill="#c18770"/>
                </g>
              </g>
              <g id="Group_103700" data-name="Group 103700" transform="translate(37.165 0) rotate(25.988)">
                <g id="Group_103699" data-name="Group 103699" transform="translate(0 0)">
                  <path id="Path_75304" data-name="Path 75304" d="M23.356,7.846,21.107,4.054,0,0V5.989Q9.237,9.624,23.356,7.846Z" fill="#c18770"/>
                </g>
              </g>
              <g id="Group_103702" data-name="Group 103702" transform="translate(0.042 13.765)">
                <g id="Group_103701" data-name="Group 103701" transform="translate(0 0)">
                  <path id="Path_75305" data-name="Path 75305" d="M.732,0,0,14.1l4.42,4.786A94.3,94.3,0,0,0,5.519,0Z" fill="#c18770"/>
                </g>
              </g>
            </g>
          </g>
          <g id="Group_103709" data-name="Group 103709" transform="translate(27.646 62.458)">
            <g id="Group_103706" data-name="Group 103706" transform="translate(0 0)">
              <g id="Group_103705" data-name="Group 103705" transform="translate(0 0)">
                <path id="Path_75306" data-name="Path 75306" d="M7.69,25.684q8.3,10.61,16.452,12.973t11.3.026Q42.108,27.7,48.178,18.492,54.248,9.311,49.747,0L0,1.125Q1.147,18.7,7.69,25.684Z" fill="#e2ad98"/>
              </g>
            </g>
            <g id="Group_103708" data-name="Group 103708" transform="translate(12.672 31.295)">
              <g id="Group_103707" data-name="Group 103707" transform="translate(0 0)">
                <path id="Path_75307" data-name="Path 75307" d="M26.77.9q.078-.078-.026-.078h-.052l-2.877,3.9-.026.078-.026.052-.078.1q-.523.706-.68.889l-.732.732-.131.1-.052.052-.052.026-.366.288-.523.288L20.6,7.52a2.856,2.856,0,0,1-.6.1h-.078l-.052.026h-.523L13.8,7.127,13.718,7.1h-.1l-2.877-.706-.026-.026h-.052l-.785-.262A12.7,12.7,0,0,1,8.54,5.636l-.654-.262L7.729,5.3,7.65,5.27l-.078-.052L6.081,4.459Q5.139,3.936,3.989,3.2l-1.7-1.177L.144.092.092.013Q.065-.013.013.013q-.026.052,0,.078L.065.17,1.478,1.661l2.3,1.857q1.229.863,2.066,1.36a13.056,13.056,0,0,0,1.177.68l.288.183.078.026,2.275.994L10.37,7l.078.052H10.5l.052.026,2.9.811h.052l.026.026h.026l.078.026,3.4.575q.523.052,1.517.157l1.517.052A4.289,4.289,0,0,0,21.617,8.3l.654-.392.471-.418.078-.052.915-.994a8.048,8.048,0,0,0,.654-1.072l.157-.262.1-.235Z" fill="#f0cbbc"/>
              </g>
            </g>
          </g>
          <g id="Group_103752" data-name="Group 103752" transform="translate(0 0)">
            <g id="Group_103711" data-name="Group 103711" transform="translate(0.025 0.217)">
              <g id="Group_103710" data-name="Group 103710" transform="translate(0 0)">
                <path id="Path_75308" data-name="Path 75308" d="M82.86,19.713q-9.128-8.867-16.347-9.7a18.315,18.315,0,0,0,.471-8.187Q66.7-.714,64.813.28,45.275,14.116,27.647,18.536a39.771,39.771,0,0,0-14.882,9.076q-.927.892-1.8,1.857Q10.332,25.022,7.4,23.4q-5-2.249-3.766,1.36,1.909,3.976,3.086,5.963a8.63,8.63,0,0,0-4.577.157q-3.871,1.072-.758,3.139a27.02,27.02,0,0,0,5,2.2q.03.144.052.288a100.885,100.885,0,0,0,8.474,25.161l14.019,1.779a53.166,53.166,0,0,0-.549-20.453,18.251,18.251,0,0,0,3.243-.628q6.826-1.622,10.462-10.933a18.545,18.545,0,0,1-.732,8.291q-1.386,4.342,2.249,2.066a26.538,26.538,0,0,0,8.16-8.553,52.878,52.878,0,0,0,5.1,8.971q4.917,5.283,4.708-.418l.235-8.422.157.209a19.856,19.856,0,0,0,3.217,3.5,32.526,32.526,0,0,0,4.08,2.9,25.471,25.471,0,0,0,3.923,1.909q2.589.942,4.577,1.517a22.38,22.38,0,0,0,3.217.732q1.229.131,1.412-1.229a11.163,11.163,0,0,0-.1-3.191q-.366-2.3-.863-4.577a30.949,30.949,0,0,0-1.36-4.473l-.157-.418q3.374,3.688,6.068,3.662Q89.556,27.3,82.86,19.713Z" fill="#540e00"/>
              </g>
            </g>
            <g id="Group_103713" data-name="Group 103713" transform="translate(61.974 22.454)">
              <g id="Group_103712" data-name="Group 103712" transform="translate(0 0)">
                <path id="Path_75309" data-name="Path 75309" d="M.013.013q-.026.052,0,.078L5.139,4.486q.34.288,1.8,1.7l3.688,3.845L15.471,16.1l2.694,4.342.314.628.052.052.34.706a.809.809,0,0,0,.471.392.892.892,0,0,0,.6-.052.713.713,0,0,0,.366-.471.8.8,0,0,0-.026-.6l-.026-.026-.418-.732-2.38-3.609-3.426-4.289a4.4,4.4,0,0,0-.445-.5L11.26,9.455Q9.952,8.147,9.3,7.546l-3.845-3.4L.092.013Q.065-.013.013.013Z" fill="#2b0700"/>
              </g>
            </g>
            <g id="Group_103715" data-name="Group 103715" transform="translate(32.273 25.742)">
              <g id="Group_103714" data-name="Group 103714" transform="translate(0 0)">
                <path id="Path_75310" data-name="Path 75310" d="M7.457.021Q7.4-.031,7.4.047L5.757,6.089,3.429,11.111l-.209.314-.078.157L1.755,13.6.212,15.374A.668.668,0,0,0,0,15.923a.7.7,0,0,0,.235.549.783.783,0,0,0,.575.235.859.859,0,0,0,.549-.262l.026-.052.262-.34.1-.1.366-.471,1.935-3.165.078-.183.1-.157L6.254,6.664,7.483.256V.073Q7.535.021,7.457.021Z" fill="#2b0700"/>
              </g>
            </g>
            <g id="Group_103717" data-name="Group 103717" transform="translate(23.755 34.19)">
              <g id="Group_103716" data-name="Group 103716" transform="translate(0 0)">
                <path id="Path_75311" data-name="Path 75311" d="M9.332.021q-.052-.052-.052.026L6.716,4.441,5.591,6.01,3.054,8.678l-.811.628-.1.052-.078.078-.445.288-.078.026L1.3,9.908l-.078.026-.183.1-.078.026-.288.157L.6,10.248l-.131.078H.439a.713.713,0,0,0-.392.445.8.8,0,0,0,.026.6.713.713,0,0,0,.445.392.8.8,0,0,0,.6-.026l.209-.1.078-.052.026-.026.052-.026.235-.157.078-.026.549-.392.078-.078.078-.052.392-.314.078-.078.1-.078a7.159,7.159,0,0,0,.811-.785l.837-.915,1.36-1.883.078-.157.1-.131L7.553,4.206,9.358.073Q9.41.021,9.332.021Z" fill="#2b0700"/>
              </g>
            </g>
            <g id="Group_103719" data-name="Group 103719" transform="translate(51.648 33.313)">
              <g id="Group_103718" data-name="Group 103718" transform="translate(0 0)">
                <path id="Path_75312" data-name="Path 75312" d="M.139.035a.085.085,0,0,0-.1-.026q-.052.078-.026.1L1.5,3.54,4.534,8.849l.994,1.1.235.209.131.078.235.209.68.471.131.052.1.078.445.209.1.026.288.131.183.052h.078l.5.1h.288a.069.069,0,0,0,.078-.078l-.026-.052H8.954l-.1-.131-.471-.418-.1-.131-.131-.1-.078-.078L8.012,10.5,7.646,10.1,5.161,7.1A10.965,10.965,0,0,1,4.3,6.077Z" fill="#2b0700"/>
              </g>
            </g>
            <g id="Group_103721" data-name="Group 103721" transform="translate(28.117 31.409)">
              <g id="Group_103720" data-name="Group 103720" transform="translate(0 0)">
                <path id="Path_75313" data-name="Path 75313" d="M13.653.683,13.574.84l-.157.418a2.782,2.782,0,0,0-.209.471l-.078.1-.183.418-.078.131-.052.131-.235.445-.1.157-.157.314-.418.628a11.344,11.344,0,0,1-.915,1.282L9.834,6.594q-.732.68-1.308,1.125a13.459,13.459,0,0,1-1.465.915L6.3,9.027l-.026.026-.052.026-.1.026L.262,11.642l-.209.1q-.052,0-.052.1l.078.026.34.052H.575l.157.026h1.2l1.988-.288.758-.209a8.847,8.847,0,0,0,1.6-.6l1.2-.706L9.311,8.687a14.272,14.272,0,0,0,1.334-1.36,14.673,14.673,0,0,0,1.072-1.439l.549-.915.052-.1.052-.078.34-.732.1-.157.209-.523L13.1,3.22l.052-.183.34-.889.026-.157.052-.131L13.888.736l.026-.157.078-.235.026-.235Q14.1.029,13.967.029q-.078-.078-.078.052Z" fill="#2b0700"/>
              </g>
            </g>
            <g id="Group_103723" data-name="Group 103723" transform="translate(79.164 29.111)">
              <g id="Group_103722" data-name="Group 103722" transform="translate(0 0)">
                <path id="Path_75314" data-name="Path 75314" d="M6.939,4.917V4.865L6.7,4.525l-.078-.078L6.6,4.394V4.368H6.572V4.342l-.549-.575L4.768,2.877,3.538,2.354,1.708,1.308.792.654.3.183.269.131.217.1.164.026a.065.065,0,0,0-.1,0q-.1,0-.026.078L.06.183.086.235.112.314.4.837l.732.968L3.486,3.923a4.659,4.659,0,0,0,.654.471l.157.078.078.052.078.026.34.157.706.209h.078l.654.1L6.86,5Q6.991,5,6.939,4.917Z" fill="#2b0700"/>
              </g>
            </g>
            <g id="Group_103725" data-name="Group 103725" transform="translate(40.763 31.104)">
              <g id="Group_103724" data-name="Group 103724" transform="translate(0 0)">
                <path id="Path_75315" data-name="Path 75315" d="M2.053,1.172l-.026-.078L1.609.335,1.582.256,1.452.047q0-.078-.1-.026L1.321.073,1.295.1,1.216.387l-.1,1.7.131,1.177v.052l.026.026V3.5l.026.026v.183l.026.1V3.97l.026.078v.1l.026.471.026.131v.131a5.068,5.068,0,0,1-.1,1.046q-.052.288-.262,1.046L.9,7.344l-.026.131-.209.575-.026.026V8.1l-.157.366L.065,9.908l-.052.445a1.476,1.476,0,0,0,0,.392l.052.366.157.314.209.157.1.052H.615v.026H.772q.078.052.078-.052,0-.078-.052-.078L.772,11.5H.719l-.026-.026H.667v-.026H.615L.562,11.4l-.1-.157a.464.464,0,0,1-.052-.209.654.654,0,0,1,0-.262l.209-.706L1.452,8.5V8.469h.026V8.443l.052-.052.523-1.02q.1-.209.471-1.125l.183-.6.026-.131.052-.157.052-.314.052-.157.052-.314.026-.706-.026-.078V3.63l-.078-.445L2.786,2.95V2.9L2.341,1.8l-.026-.1-.052-.078L2.105,1.25Z" fill="#2b0700"/>
              </g>
            </g>
            <g id="Group_103727" data-name="Group 103727" transform="translate(11.927 42.633)">
              <g id="Group_103726" data-name="Group 103726" transform="translate(0 0)">
                <path id="Path_75316" data-name="Path 75316" d="M.209.026.157,0,.1.1.078.183V.314L.052.445V.6L.026.785v.1L0,.968v.706l.026.078L.052,2.2l.026.131v.157L.6,4.577.785,5l.052.078.026.1.1.157.157.314.026.026.052.078.052.052.052.026.026-.052V5.519l-.052-.471v-.1l-.026-.1-.078-.68-.052-.235L1.1,3.662.706,1.7.68,1.648V1.6L.34.418.314.288.288.235V.183L.235.1Z" transform="translate(0)" fill="#2b0700"/>
              </g>
            </g>
            <g id="Group_103729" data-name="Group 103729" transform="translate(16.007 43.339)">
              <g id="Group_103728" data-name="Group 103728" transform="translate(0 0)">
                <path id="Path_75317" data-name="Path 75317" d="M3.374.392,3.3.994l.131,2.929.418,2.485L2.772,5.231l-.078-.052-.131-.157-.314-.288L2.2,4.656,2.119,4.6.811,3.426.732,3.374.078,2.851q-.017-.017-.052,0H0v.078l.1.235.026.1.052.078L.706,4.891l.078.183.732,3.034V8.16l.026.052.026.131.026.262.052.235.209,1.439.052.235.34,2.511v.1l.026.078.052.288.052.026.026-.052.052-.262v-.1l.026-.1.1-1.648L2.3,8.082V8l-.026-.052L1.8,6.068l-.052-.1-.235-.68-.392-.811.471.6.078.078.052.078.418.471L2.2,5.78,4.263,7.9l.575-.314-.157-.471-.026-.1L4.6,6.9,3.74,3.4,3.5,1.491V.052Q3.557,0,3.479,0L3.426.026,3.374.262Z" fill="#2b0700"/>
              </g>
            </g>
            <g id="Group_103731" data-name="Group 103731" transform="translate(61.456 32.973)">
              <g id="Group_103730" data-name="Group 103730" transform="translate(0 0)">
                <path id="Path_75318" data-name="Path 75318" d="M.113.349.192.48.218.558l.811,1.36.418.575.131.131.1.157.078.078.052.078.288.314q.811.863,1.308,1.308L5,5.867A19.8,19.8,0,0,0,6.835,7.1l3.976,2.145.131.078L13.792,10.5l1.2.366,4.708.863h.157l.157.026h.288a.069.069,0,0,0,.078-.078l-.052-.052L17.3,10.209q-.131-.052-.183-.078l-.183-.1-1.465-.575-.209-.1-3.609-1.36-.131-.026L9.346,7.1l-.235-.131L7.123,6.024,3.88,3.984A15.818,15.818,0,0,1,2.493,2.86l-.366-.34-1.1-1.2L.139.035a.085.085,0,0,0-.1-.026q-.052.078-.026.1Z" fill="#300"/>
              </g>
            </g>
            <g id="Group_103733" data-name="Group 103733" transform="translate(22.08 44.15)">
              <g id="Group_103732" data-name="Group 103732" transform="translate(0 0)">
                <path id="Path_75319" data-name="Path 75319" d="M4.467.131Q4.52.078,4.441.052L4.363.026,3.578,0,3.369.026,3.29.052h-.1L2.976.1h-.1l-.5.157-.1.052H2.218L2.166.34,1.956.418,1.643.575,1.564.628l-.209.1L1.093.915,1.041.942l-.262.235L.7,1.229.57,1.36l-.078.052-.34.418-.026.026L.1,1.909l-.052.052L.021,2.04q-.052.052.026.078L.2,2.171H.256L.309,2.2l.418.052H.91l.209-.026H1.3L1.512,2.2l.052-.026h.052l.549-.131.157-.078h.052L3.107,1.6l.078-.078.183-.1.1-.078L3.5,1.308l.052-.026.157-.157.078-.052L4,.863,4.049.785,4.1.732,4.363.366,4.441.209Z" fill="#2b0700"/>
              </g>
            </g>
            <g id="Group_103735" data-name="Group 103735" transform="translate(0 32.432)">
              <g id="Group_103734" data-name="Group 103734" transform="translate(0 0)">
                <path id="Path_75320" data-name="Path 75320" d="M1.072.052.628,0,.052.026,0,.1V.157L.209.575.262.628V.654L.628,1.1l.523.5.131.1.131.078.052.052.209.131L6.356,4.08q.052.052.1-.052l-.026-.078L6.2,3.714l-.1-.131-.157-.131-.34-.34L3.034.968A3.427,3.427,0,0,0,2.485.549L2.275.418,1.334.1H1.282L1.2.078Z" fill="#2b0700"/>
              </g>
            </g>
            <g id="Group_103737" data-name="Group 103737" transform="translate(3.4 23.414)">
              <g id="Group_103736" data-name="Group 103736" transform="translate(0 0)">
                <path id="Path_75321" data-name="Path 75321" d="M1.125.884.68.413H.654V.387H.628L.6.335.5.282.183.021Q.131-.031.052.047L.026.492,0,.6l.026.628.026.131v.157l.157.628.026.183.078.235.052.1.052.157L2.982,7.109l.1.209.314.471q.078.078.1.026a.085.085,0,0,0,.026-.1l-1.6-5.545-.078-.157L1.8,1.93l-.026-.078-.1-.157L1.6,1.538l-.366-.523L1.177.963Z" fill="#2b0700"/>
              </g>
            </g>
            <g id="Group_103739" data-name="Group 103739" transform="translate(6.408 36.486)">
              <g id="Group_103738" data-name="Group 103738" transform="translate(0 0)">
                <path id="Path_75322" data-name="Path 75322" d="M.026,0,0,.078.288,2.563l.052.183.706,3.479q.183.811.6,2.171L4.08,15.379q.314.968.837,2.275l3.008,6.957.471.758q.078.078.1.026.078-.052.026-.1L8.4,25.03l-.6-1.491-.078-.157-.131-.34L3.531,9.076,1.491,3.06.288.314.131.052Q.131,0,.026,0Z" fill="#2b0700"/>
              </g>
            </g>
            <g id="Group_103741" data-name="Group 103741" transform="translate(64.211 9.735)">
              <g id="Group_103740" data-name="Group 103740" transform="translate(0 0)">
                <path id="Path_75323" data-name="Path 75323" d="M20.819,11.9l-.262-.34-.052-.1-.078-.078-.523-.706-.262-.288-.026-.052-1.6-1.543q-.418-.392-1.308-1.125L13.941,5.566a.515.515,0,0,1-.183-.131L11.09,3.761Q9.52,2.846,8.317,2.3L6.67,1.564l-.183-.052L6.46,1.486H6.408L6.33,1.433,3.426.544Q2.563.361,1.622.2L.052.021Q0-.031,0,.047L.026.1,4.237,1.59l1.386.654L5.78,2.3l.157.078.078.052h.026l.026.026,1.7.915q.942.523,2.589,1.6l6.957,5.257,1.439,1.412.5.6.078.078.262.392.131.157,1.2,2.145.052.183.366.837.1.34.052.078v.026l.026.052.131.418.026.026v.052l.471,1.909v.131l.1.732v.157l.026.262.026.078v.732a8.422,8.422,0,0,1-.183,1.752l-.209,1.02-.052.1-.1.392q-.052.052.026.052.052.052.052-.026l.209-.366.026-.026.392-.863.235-.785.052-.1.262-1.36.026-.445.026-.078v-.366l.026-.157L23.043,18.3l-.183-1.2-.052-.183-.026-.183v-.052l-.026-.052-.026-.078-.078-.366-.026-.026v-.052l-.471-1.491-.052-.1-.052-.183Z" fill="#812511"/>
              </g>
            </g>
            <g id="Group_103743" data-name="Group 103743" transform="translate(63.871 14.273)">
              <g id="Group_103742" data-name="Group 103742" transform="translate(0 0)">
                <path id="Path_75324" data-name="Path 75324" d="M3.845,2.466.078.034Q0-.045,0,.06V.112L6.173,5.84Q7.585,7.252,8.291,8.011l3.557,4.237.6.837q.628.863.942,1.386l1.491,2.459.078.183.052.078L16.635,20.8q.078.235.235.68l.392,1.177.026.157.262.942.026.157.052.157.68,4.943.026.628a.046.046,0,0,0,.052.052l.026-.026.078-.418a11.083,11.083,0,0,0,.131-1.151l.052-.392.026-2.249-.34-2.9-.052-.157-.026-.183L17.6,19.65l-1.229-3.034-.052-.078-.026-.1L15.588,15.1l-3.165-4.656L11.3,9.162l-.131-.183-1.6-1.648-.131-.157-.157-.131q-1.1-1.1-2.3-2.092Z" transform="translate(0 0)" fill="#812511"/>
              </g>
            </g>
            <g id="Group_103745" data-name="Group 103745" transform="translate(52.519 22.289)">
              <g id="Group_103744" data-name="Group 103744" transform="translate(0 0)">
                <path id="Path_75325" data-name="Path 75325" d="M0,.047.026.1.811.675l.1.052L1.125.91l.131.078.235.209.131.078.131.131.418.34.209.209.078.052L3.949,3.63l.942,1.334.183.34.078.1.026.052.052.052.209.366v.026l.026.026.706,1.412.078.131.915,2.275.026.052.942,3.5.026.052v.078l.078.418v.052h.026v.078l.052.262.314,2.825v.235l.026.131.026,1.229.026.209L8.657,22.2q-.052.052.026.052l.052-.026.5-1.622.052-.34.052-.157L9.7,17.571V17.44l.026-.1.026-1.02q.026-.942-.052-2.223L9.677,13.8v-.131l-.026-.026v-.131L9.6,13.229v-.157l-.523-2.537L8,7.632,6.67,5.2l-.052-.052-.235-.366-.026-.052L6.3,4.677l-.078-.131L5.7,3.866,4.054,2.192l-.209-.157-.078-.078-.1-.052-.706-.523-.1-.052L2.275.963Q2.014.806,1.1.387L.994.335.889.309.68.23.575.178.052.021Q0-.031,0,.047Z" fill="#812511"/>
              </g>
            </g>
            <g id="Group_103747" data-name="Group 103747" transform="translate(42.214 25.763)">
              <g id="Group_103746" data-name="Group 103746" transform="translate(0 0)">
                <path id="Path_75326" data-name="Path 75326" d="M9.337.052,9.285.288,9.154,1.412l-.026.131v.131l-.6,3.766L7.9,7.82l-.157.418-.052.235-.052.1-.026.1-.1.209-.078.235L6.643,10.8l-.523.863-.052.1L5.126,13q-.471.549-1.151,1.2l-.6.523-.157.1-.131.131-.314.209-.052.052-.628.445L.026,16.87,0,16.922q0,.078.052.026l.523-.078H.654l.785-.183.131-.052.131-.026.889-.314.5-.235.1-.026.078-.052a12.867,12.867,0,0,0,1.439-.811,13.481,13.481,0,0,0,1.439-1.2l.34-.366.1-.078.863-1.1a10.23,10.23,0,0,0,1.02-1.779L9.1,9.076l.026-.131.34-1.2.34-2.328.026-.654.026-.209L9.7,1.674V1.543L9.416.026,9.364,0Z" fill="#812511"/>
              </g>
            </g>
            <g id="Group_103749" data-name="Group 103749" transform="translate(64.603 0)">
              <g id="Group_103748" data-name="Group 103748" transform="translate(0 0)">
                <path id="Path_75327" data-name="Path 75327" d="M1.726,0h-.34L1.334.026h-.1l-.1.026-.5.183L.209.5.157.549l-.131.1a.065.065,0,0,0,0,.1L.078.785H.1L.235.811H.392L.5.837H.628l.1.026H.811L.863.889l.288.052L1.2.968l.078.026.026.026h.026l.078.026.052.026.078.078h.026l.052.052.262.418.1.314v.1L2.3,3.766V3.9l.026.131-.549,6.016v.131q-.078.078.052.078.078,0,.078-.052l.209-.471L3.374,5.519l.366-2.9L3.557,1.569l-.078-.157-.052-.157-.078-.131-.026-.078L3.165.837A3.1,3.1,0,0,0,2.72.34Q2.668.314,2.145.078Z" fill="#812511"/>
              </g>
            </g>
            <g id="Group_103751" data-name="Group 103751" transform="translate(4.211 22.912)">
              <g id="Group_103750" data-name="Group 103750" transform="translate(0 0)">
                <path id="Path_75328" data-name="Path 75328" d="M.314,0,.052.052,0,.1.026.131.262.288.34.314l.785.471.026.026.1.052.157.1.157.078.288.209.052.026.026.026.078.052,1.1.889.078.078.078.052.68.706L4,3.165l.157.157.262.34.026.052.026.026.131.183L4.682,4l.1.183.131.157.549.863.078.157.288.445.078.157.1.131.575.968.052.026.026-.052L6.7,6.9V6.774l.026-.1L6.7,5.7,6.33,4.133,6.277,4l-.026-.1L5.676,2.8a8.712,8.712,0,0,0-.628-.837l-.366-.392L3.636.785,3.426.68,3.322.6,3.086.5l-.1-.026L2.72.34H2.668l-.1-.052-.1-.026L2.406.235H2.354L2.145.157,1.935.131,1.752.078,1.386.026Z" transform="translate(0 0)" fill="#812511"/>
              </g>
            </g>
          </g>
          <g id="Group_103759" data-name="Group 103759" transform="translate(10.81 52.221)">
            <g id="Group_103754" data-name="Group 103754" transform="translate(0 4.228) rotate(-15.965)">
              <g id="Group_103753" data-name="Group 103753" transform="translate(0 0)">
                <path id="Path_75329" data-name="Path 75329" d="M12.629,3.277A6.866,6.866,0,0,0,7.764.06Q4.692-.427,2.219,3.016a13.426,13.426,0,0,0-2.2,8.6,16.89,16.89,0,0,0,2.694,8.736A16.614,16.614,0,0,0,8.13,25.64a37.082,37.082,0,0,0,4.734,1.909q.261-1.341,1.622-5.492a23.183,23.183,0,0,0,.628-10.07Q14.4,6.031,12.629,3.277Z" fill="#e2ad98"/>
              </g>
            </g>
            <g id="Group_103756" data-name="Group 103756" transform="translate(5.694 6.393)">
              <g id="Group_103755" data-name="Group 103755" transform="translate(0 0)">
                <path id="Path_75330" data-name="Path 75330" d="M.078,1.177l.314-.1L.5,1.02.628.994l.288-.1H.994L1.282.811,1.465.785l.1-.026h.1L2.092.706l.471.026.471.1a4.322,4.322,0,0,1,.942.392l.471.34.209.183.052.026.366.366.968,1.2L7.219,5.283l.052.131L8.527,7.873l.052.078.183.392.078.1.078.183L9,8.762q0,.078.052.026.078,0,.026-.052L9,8.134,8.683,6.853,7.716,4.185,6.513,2.2l-.942-1.02a.283.283,0,0,1-.131-.1L5.022.758,4.289.34,4.133.288,3.976.209,3.819.157,3.191.026H3.034L2.877,0H2.589L1.648.157,1.491.235H1.439l-.1.052L1.125.366l-.837.5L0,1.1v.078Z" fill="#c18770"/>
              </g>
            </g>
            <g id="Group_103758" data-name="Group 103758" transform="translate(3.699 1.92)">
              <g id="Group_103757" data-name="Group 103757" transform="translate(0 0)">
                <path id="Path_75331" data-name="Path 75331" d="M4.349,0,3.329.183l-.5.157L2.754.392,2.6.445,2.518.5,2.361.549,2.283.6,2.2.628,1.76.915,1.708.942l-.078.078-.052.026-.026.026-.471.366-.549.654-.078.131-.1.131-.314.575q-.078.078.026.078H.112l.6-.549L.844,2.38l.1-.1L1.08,2.2l.131-.1.758-.445H2L2.074,1.6H2.1l.026-.026.5-.183.052-.026.157-.052.052-.026h.078l.157-.052h.052L3.251,1.2h.078l.078-.026H3.46l.078-.026L3.7,1.125h.131l.314-.052h.288q.285,0,.785.052l1.229.235.288.078h.052l.026.026h.026l.758.288.758.418a1.3,1.3,0,0,1,.34.235l.1.052.078.052.078.078.1.052.078.078.078.052.5.418.942.994.052.1.078.078,1.308,1.909V6.3l.026.026.026.052.183.262L14.079,9.73q0,.078.052.026.078,0,.026-.052L12.51,6.094l-.026-.026V6.042L11.359,4.106l-.131-.183-.052-.1L9.894,2.328l-.262-.235L9.58,2.066,9.554,2.04l-.1-.078-.078-.078-.1-.078-.078-.078-.366-.262a5.662,5.662,0,0,0-.811-.5L7.174.549,7.148.523H7.122L6.965.445,6.285.235A6.526,6.526,0,0,0,5.343.052,6.221,6.221,0,0,0,4.4,0Z" fill="#f0cbbc"/>
              </g>
            </g>
          </g>
          <g id="Group_103766" data-name="Group 103766" transform="translate(55.187 50.964)">
            <g id="Group_103761" data-name="Group 103761" transform="translate(0 0)">
              <g id="Group_103760" data-name="Group 103760" transform="translate(0 0)">
                <path id="Path_75332" data-name="Path 75332" d="M1.962,22.584q7.614,4.793,9.73-2.746l.1-1.569L8.736,15A37.419,37.419,0,0,1,7.82,1.032Q5.38-1.58,4.133,2.419L0,20.544A3.7,3.7,0,0,0,1.962,22.584Z" fill="#e2ad98"/>
              </g>
            </g>
            <g id="Group_103763" data-name="Group 103763" transform="translate(6.501 1.085)">
              <g id="Group_103762" data-name="Group 103762" transform="translate(0 0)">
                <path id="Path_75333" data-name="Path 75333" d="M.012,9.154a32.365,32.365,0,0,0,.445,3.792q.348,1.8.392,1.883,1.6,1.334,2.694,2.249a2.872,2.872,0,0,1,1.046,2.616,2.664,2.664,0,0,1-1.046,1.883A3.151,3.151,0,0,0,5.714,18.91a2.714,2.714,0,0,0-1.491-2.8q-1.675-.97-2.589-1.569l.288-.549-.157-.235-.628.026.68-.052L.77,8.291.849,4.342,1.32,0A22.24,22.24,0,0,0,.326,4.185,29,29,0,0,0,.012,9.154Z" transform="translate(0)" fill="#f0cbbc"/>
              </g>
            </g>
            <g id="Group_103765" data-name="Group 103765" transform="translate(0.026 1.085)">
              <g id="Group_103764" data-name="Group 103764" transform="translate(0 0)">
                <path id="Path_75334" data-name="Path 75334" d="M7.847,0,7.794.026,7.3,4.5,7.271,6.3l-.026.1.026.1.078,2.72.523,4.237.183.863a.478.478,0,0,0,.209.34l.628.392,1.386,1.151.654.811.078.157.1.131.131.288.052.078.183.549.026.157v.078l.026.078.026.262q.01-.035.026-.078l-.026.157v-.078q-.263.685-.288.758a3.3,3.3,0,0,1-.392.785,4.41,4.41,0,0,1-.5.706,7.368,7.368,0,0,1-.628.6,4.313,4.313,0,0,1-.732.471,4.844,4.844,0,0,1-.811.34,5.682,5.682,0,0,1-.863.209l-.445.078H6.8l-.131.026h-.1l-.1.026H5.78l-.235-.026a3.327,3.327,0,0,1-.889-.131,5.587,5.587,0,0,1-.889-.235l-.837-.366L1.412,20.976l-.68-.654a4.388,4.388,0,0,1-.654-.706q-.026-.026-.078,0v.078l.549.785a5.447,5.447,0,0,0,.628.732,8.388,8.388,0,0,0,.706.68l.785.575.889.5.915.34.994.209.5.052h1.02l.5-.052a9.427,9.427,0,0,0,.994-.209,3.9,3.9,0,0,0,.968-.366,4.159,4.159,0,0,0,.889-.523,3.738,3.738,0,0,0,.758-.706l.654-.837a6.872,6.872,0,0,0,.471-.889,8.307,8.307,0,0,0,.34-.968l.026-.157-.026-.549-.183-.732-.131-.288-.026-.1-.418-.732-.785-.968-.968-.863-.262-.157-.157-.131-.654-.418L8.03,7.376v-.1L8,7.166l-.026-.654-.026-.131-.026-.758L7.9,5.493,7.873,4.054l-.026-.209L7.873.052Q7.925,0,7.847,0Z" fill="#a97059"/>
              </g>
            </g>
          </g>
          <g id="Group_103789" data-name="Group 103789" transform="translate(37.824 52.31)">
            <g id="Group_103771" data-name="Group 103771" transform="translate(27.092 3.766)">
              <g id="Group_103768" data-name="Group 103768" transform="translate(0 0)">
                <g id="Group_103767" data-name="Group 103767">
                  <path id="Path_75335" data-name="Path 75335" d="M6.373,4.16a4.7,4.7,0,0,0-.942-2.951A2.751,2.751,0,0,0,3.187,0,2.792,2.792,0,0,0,.926,1.209,4.75,4.75,0,0,0,0,4.16,4.684,4.684,0,0,0,.926,7.1,2.782,2.782,0,0,0,3.187,8.32,2.741,2.741,0,0,0,5.431,7.1,4.631,4.631,0,0,0,6.373,4.16Z" fill="#231915"/>
                </g>
              </g>
              <g id="Group_103770" data-name="Group 103770" transform="translate(3.515 1.977)">
                <g id="Group_103769" data-name="Group 103769" transform="translate(0 0)">
                  <path id="Path_75336" data-name="Path 75336" d="M1.539.974A1.182,1.182,0,0,0,1.288.268.629.629,0,0,0,.739,0,.672.672,0,0,0,.205.3a1.213,1.213,0,0,0-.2.738,1.068,1.068,0,0,0,.251.691.657.657,0,0,0,.565.283A.622.622,0,0,0,1.335,1.7,1.111,1.111,0,0,0,1.539.974Z" fill="#fff"/>
                </g>
              </g>
            </g>
            <g id="Group_103773" data-name="Group 103773" transform="translate(25.858 1.551)">
              <g id="Group_103772" data-name="Group 103772" transform="translate(0 0)">
                <path id="Path_75337" data-name="Path 75337" d="M12.154,6.393a5.5,5.5,0,0,0-1.139-2.342A16.124,16.124,0,0,0,4.146,0,31.871,31.871,0,0,0,0,6.583,8.944,8.944,0,0,0,5.127,8.545Q8.322,8.866,12.154,6.393Z" fill="#e2ad98"/>
              </g>
            </g>
            <g id="Group_103775" data-name="Group 103775" transform="translate(27.219 8.83)">
              <g id="Group_103774" data-name="Group 103774" transform="translate(0 0)">
                <path id="Path_75338" data-name="Path 75338" d="M0,.57.38,4.178a10.038,10.038,0,0,0,8.83-.127L10.065,0Z" fill="#e2ad98"/>
              </g>
            </g>
            <g id="Group_103777" data-name="Group 103777" transform="translate(25.89 7.881)">
              <g id="Group_103776" data-name="Group 103776" transform="translate(0 0)">
                <path id="Path_75339" data-name="Path 75339" d="M8.735,1.614l-.095.032-2.247.38H5.159L4.114,1.9l-.158-.032-.095-.032H3.8l-.19-.063L3.45,1.741l-.095-.032H3.292L2.121,1.266,1.171.728,1.139.7.506.38.348.348.095.222Q0,.127,0,.253V.316L.316.633.411.76l.411.38L.949,1.3l.886.791.19.095.158.127.19.095.063.063.095.032.38.19.095.032.095.063.158.063.981.285.411.063.095.032h.095l.222.032h.095l.095.032L6.678,3.26l.38-.063h.127l.095-.032.791-.158.76-.253.19-.095.095-.032.443-.222.032-.032h.032V2.342h.032l.095-.032.095-.095h.063L11.3,1.108l.538-.76.032-.095L11.9.222V.158l.032-.095Q12,0,11.9,0h-.063V.032L11.71.158l-.095.063-.063.032L11.426.38l-1.108.633-.823.348H9.432L9.4,1.393l-.19.063-.032.032H9.147l-.158.063-.19.032Z" transform="translate(0 0)" fill="#231915"/>
              </g>
            </g>
            <g id="Group_103782" data-name="Group 103782" transform="translate(2.564 3.766)">
              <g id="Group_103779" data-name="Group 103779" transform="translate(0 0)">
                <g id="Group_103778" data-name="Group 103778">
                  <path id="Path_75340" data-name="Path 75340" d="M6.373,4.16a4.7,4.7,0,0,0-.942-2.951A2.751,2.751,0,0,0,3.187,0,2.792,2.792,0,0,0,.926,1.209,4.75,4.75,0,0,0,0,4.16,4.684,4.684,0,0,0,.926,7.1,2.782,2.782,0,0,0,3.187,8.32,2.741,2.741,0,0,0,5.431,7.1,4.631,4.631,0,0,0,6.373,4.16Z" fill="#231915"/>
                </g>
              </g>
              <g id="Group_103781" data-name="Group 103781" transform="translate(3.515 1.977)">
                <g id="Group_103780" data-name="Group 103780" transform="translate(0 0)">
                  <path id="Path_75341" data-name="Path 75341" d="M1.539.974A1.182,1.182,0,0,0,1.288.268.629.629,0,0,0,.739,0,.672.672,0,0,0,.205.3a1.213,1.213,0,0,0-.2.738,1.068,1.068,0,0,0,.251.691.657.657,0,0,0,.565.283A.622.622,0,0,0,1.335,1.7,1.111,1.111,0,0,0,1.539.974Z" fill="#fff"/>
                </g>
              </g>
            </g>
            <g id="Group_103784" data-name="Group 103784" transform="translate(0 0)">
              <g id="Group_103783" data-name="Group 103783" transform="translate(0 0)">
                <path id="Path_75342" data-name="Path 75342" d="M7.5,0A16.761,16.761,0,0,0,5.7,1.044,16.9,16.9,0,0,0,0,7.248q.307.259,2.469,1.582a8.951,8.951,0,0,0,5.855.918,18.492,18.492,0,0,0,7.184-2.342,4.523,4.523,0,0,0-1.519-2.943A69.223,69.223,0,0,0,7.5,0Z" fill="#e2ad98"/>
              </g>
            </g>
            <g id="Group_103786" data-name="Group 103786" transform="translate(0.855 8.261)">
              <g id="Group_103785" data-name="Group 103785" transform="translate(0 0)">
                <path id="Path_75343" data-name="Path 75343" d="M0,.127,1.044,4.842a18.815,18.815,0,0,0,11.172-.127L13.451,0Z" fill="#e2ad98"/>
              </g>
            </g>
            <g id="Group_103788" data-name="Group 103788" transform="translate(0.095 7.311)">
              <g id="Group_103787" data-name="Group 103787" transform="translate(0 0)">
                <path id="Path_75344" data-name="Path 75344" d="M15.192,0H15.1L11.615,1.582l-.095.032h-.032l-.032.032h-.032l-.316.127h-.063l-.063.032-.19.063-1.8.285H8.767l-.7.063L5.665,2.184l-.127-.032H5.317l-.665-.095-.222-.063-.443-.063-.665-.19L2.057,1.234l-.095-.063-.316-.158L1.361.823l-1.3-.7Q0,.063,0,.158V.222l1.266,1.3,1.013.76.443.253.253.095.443.222.127.032.127.063.253.063.222.095.506.127h.127l.38.095.253.032.127.032h.127l.475.063h.38l.127.032H7.881l.253-.032a5.485,5.485,0,0,0,1.013-.095l1.962-.443.855-.411L13.7,1.361,15.192.095Z" fill="#231915"/>
              </g>
            </g>
          </g>
          <g id="Group_103794" data-name="Group 103794" transform="translate(43.532 74.165)">
            <g id="Group_103791" data-name="Group 103791" transform="translate(6.308 9.199)">
              <g id="Group_103790" data-name="Group 103790" transform="translate(0 0)">
                <path id="Path_75345" data-name="Path 75345" d="M5.821,1.179l-.8.152H4.793L4.6,1.37H4.185l-.228.038L2.7,1.37q-.228-.038-.723-.114l-.495-.114L1.408,1.1H1.332l-.152-.076L1.027.989.989.951.913.913.8.875.685.8.609.723.495.685.418.609.38.533.3.495.19.418.114.3H0V.418L.038.495.076.647.114.723.152.837.228.913l.038.114.114.114.076.114.114.114.038.076.228.114.152.114.076.076.266.152.19.076.266.152.342.114.418.076.228.076.266.038h.228l.228.038h.951l.228-.038h.228L5.4,2.359l1.255-.38L6.734,1.9l.114-.038.076-.038L7.3,1.6l.342-.152.3-.228.038-.076L8.065,1.1,8.636.495l.152-.3L8.864.114Q8.9.076,8.826,0H8.75L8.37.228,8.217.342,7.989.457,7.837.495,7.723.571l-.951.38-.19.038-.076.038-.114.038H6.315L6.239,1.1l-.228.038-.076.038Z" transform="translate(0)" fill="#231915"/>
              </g>
            </g>
            <g id="Group_103793" data-name="Group 103793" transform="translate(0 0)">
              <g id="Group_103792" data-name="Group 103792">
                <path id="Path_75346" data-name="Path 75346" d="M5.433.943A5.237,5.237,0,0,0,4.6.373L3.8.03q-.076-.076-.076.038-.076.076.038.076L3.911.3l.228.152.076.038.875.837.228.342.114.114.761,1.484.038.19.076.152v.114l.114.266.266,1.37v.418L6.726,6V6.84l-.19,1.293V8.21l-.076.228v.114l-.076.228-.038.19-.533,1.408-.114.19-.038.114-.038.038L4.6,12.242l-.228.228-.038.076-.152.114-.114.152-.076.038-.19.19-.152.114-.152.076-.571.38-.3.152L2.5,13.84l-.152.038-.266.152-2.016.609q-.114,0-.038.076l.076.038.228.038H.6l1.37-.152.761-.19.152-.076.19-.038.837-.38.533-.342.076-.038.114-.076.418-.38.076-.038.761-.837a12.786,12.786,0,0,0,1.027-1.56l.076-.228.076-.114.19-.571.114-.228.038-.114V9.313l.152-.495a13.793,13.793,0,0,0,.266-1.94l-.038-.951L7.449,4.1l-.266-.685V3.378H7.145V3.3l-.114-.19L6.878,2.77l-.114-.19-.076-.19L6.232,1.78,6.193,1.7l-.076-.038-.076-.152L5.889,1.4Z" fill="#c18770"/>
              </g>
            </g>
          </g>
          <g id="Group_103797" data-name="Group 103797" transform="matrix(0.994, 0.114, -0.114, 0.994, 38.039, 48.581)">
            <g id="Group_103796" data-name="Group 103796" transform="translate(0 0)">
              <g id="Group_103795" data-name="Group 103795" transform="translate(0 0)">
                <path id="Path_75347" data-name="Path 75347" d="M3.482.654a10.1,10.1,0,0,0-1.788.758A14.1,14.1,0,0,0,0,3.557,24.913,24.913,0,0,1,6.494,2.171a17.872,17.872,0,0,1,6.557.654,17.871,17.871,0,0,0,2.51.68,1.5,1.5,0,0,0,.816-.078,1.272,1.272,0,0,0,.439-.628l.031-.078-.031-.078a2.248,2.248,0,0,0-1.223-1.2,16.8,16.8,0,0,0-4.486-1.2A17.142,17.142,0,0,0,3.482.654Z" transform="translate(2.29 0)" fill="#540e00"/>
                <path id="Path_75348" data-name="Path 75348" d="M2.133,2.877A16.626,16.626,0,0,1,9.412,1.386a23.309,23.309,0,0,1,6.619.863q2.227.628,2.667.34a1.017,1.017,0,0,0,.439-1.282l-.031.078a1.272,1.272,0,0,1-.439.628,1.5,1.5,0,0,1-.816.078,17.871,17.871,0,0,1-2.51-.68A17.872,17.872,0,0,0,8.784.758,24.913,24.913,0,0,0,2.29,2.145,14.1,14.1,0,0,1,3.984,0,10.1,10.1,0,0,0,2.071,1.491a10.632,10.632,0,0,0-.722.785L0,4.315Z" transform="translate(0 1.412)" fill="#2b0700"/>
              </g>
            </g>
          </g>
          <g id="Group_103800" data-name="Group 103800" transform="matrix(-0.977, 0.215, -0.214, -0.977, 78.882, 53.388)">
            <g id="Group_103799" data-name="Group 103799" transform="translate(0 0)">
              <g id="Group_103798" data-name="Group 103798">
                <path id="Path_75349" data-name="Path 75349" d="M2.6,2.611a6.934,6.934,0,0,1-1.337-.682A12.616,12.616,0,0,1,0,0,15.952,15.952,0,0,0,4.854,1.247a11.217,11.217,0,0,0,4.9-.588A11.6,11.6,0,0,1,11.63.047a.945.945,0,0,1,.61.071,1.16,1.16,0,0,1,.328.565l.023.071-.023.071a1.884,1.884,0,0,1-.914,1.082A10.946,10.946,0,0,1,8.3,2.988,10.73,10.73,0,0,1,2.6,2.611Z" transform="translate(1.712 1.953)" fill="#540e00"/>
                <path id="Path_75350" data-name="Path 75350" d="M1.594,1.294a10.673,10.673,0,0,0,5.44,1.341,14.673,14.673,0,0,0,4.947-.776q1.665-.565,1.993-.306A1.012,1.012,0,0,1,14.3,2.705l-.023-.071a1.16,1.16,0,0,0-.328-.565A.945.945,0,0,0,13.342,2a11.6,11.6,0,0,0-1.876.612,11.217,11.217,0,0,1-4.9.588A15.952,15.952,0,0,1,1.712,1.953,12.616,12.616,0,0,0,2.978,3.882a7.933,7.933,0,0,1-1.43-1.341q-.279-.33-.539-.706L0,0Z" fill="#2b0700"/>
              </g>
            </g>
          </g>
          <g id="Group_103802" data-name="Group 103802" transform="translate(36.539 72.214)">
            <g id="Group_103801" data-name="Group 103801" transform="translate(0 0)">
              <path id="Path_75351" data-name="Path 75351" d="M3.139,2.354v.785h.785m-.785,0v.785m3.139-.785L3.139,6.277,0,3.139,3.139,0Zm-3.923,0h.785" transform="translate(0)" fill="none" stroke="rgba(0,0,0,0)" stroke-linecap="round" stroke-linejoin="round" stroke-width="0.089"/>
            </g>
          </g>
        </g>
        <g id="Group_103808" data-name="Group 103808" transform="translate(146.591 101.684) rotate(51.499)">
          <g id="Group_103805" data-name="Group 103805" transform="translate(0 0)">
            <g id="Group_103804" data-name="Group 103804" transform="translate(0)">
              <path id="Path_75352" data-name="Path 75352" d="M.392,23.956A14.314,14.314,0,0,0,1.412,17.6l.732,3.034A9.4,9.4,0,0,0,2.9,27.173,6.974,6.974,0,0,0,.392,23.956m13.756-9.807-1.7-2.484A18.806,18.806,0,0,1,11.481,9.1,9.927,9.927,0,0,1,10.7,5.414a8.227,8.227,0,0,1,.471-1.988,5.82,5.82,0,0,0,.392-1.438,1,1,0,0,0-.078-.575L12.788,2.59l.052.209.235.078.418,1.177-.052-.026a1.566,1.566,0,0,0-1.229.575A4.56,4.56,0,0,0,11.978,7.3q.235,2.458,2.877,6.381l-.5,7.113a9.748,9.748,0,0,1-.209-6.643M11.3,19.876a4.259,4.259,0,0,1,.994.575q.549.418-1.2.445Q.941,20.425,4.08,19.981q.863-.078,1.726-.131.235-5.283-.131-5.623Q3.164,5.571,0,2.878,1.465,2.59,3.269,4.525a65.361,65.361,0,0,0,3.74,9.022v6.276q1.752-.026,3.5.078a7.962,7.962,0,0,1,.235-6.2A57.547,57.547,0,0,1,7.113,6.591,16.03,16.03,0,0,1,6.2,3.767Q5.884,2.3,5.78,1.805V1.6A4.977,4.977,0,0,1,6.3.027,4.237,4.237,0,0,1,5.57.079H5.6a2.086,2.086,0,0,1,1.831.34l.1.183L7.976.079,7.9.236,7.767.472a3.87,3.87,0,0,0-.6,1.334,1.812,1.812,0,0,0-.078.523q-.052-.183-.131-.418a3.53,3.53,0,0,0,.157.575,1.945,1.945,0,0,0,.131.549.075.075,0,0,1,.026.052,36.061,36.061,0,0,0,2.641,7.532,13.565,13.565,0,0,0,2.432,3.191,6.327,6.327,0,0,0-1.072,2.668,11.717,11.717,0,0,0-.471,2.563.866.866,0,0,0,.5.837M5.544,38.5q-2.981-7.61,8.342-16.973Q5.806,31.566,5.544,38.5Z" transform="translate(13.782 0)" fill="#c18770"/>
              <path id="Path_75353" data-name="Path 75353" d="M24.3,19.875q-1.752-.1-3.5-.078V13.521A65.361,65.361,0,0,1,17.051,4.5Q17.182.575,18.489.131l.863-.078A4.237,4.237,0,0,0,20.085,0a4.977,4.977,0,0,0-.523,1.569v.209q.1.5.418,1.961A16.03,16.03,0,0,0,20.9,6.564a57.546,57.546,0,0,0,3.635,7.113,7.962,7.962,0,0,0-.235,6.2m1.778.549a4.259,4.259,0,0,0-.994-.575.866.866,0,0,1-.5-.837,11.717,11.717,0,0,1,.471-2.563,6.327,6.327,0,0,1,1.072-2.668,13.565,13.565,0,0,1-2.432-3.191A36.061,36.061,0,0,1,21.052,3.06a.075.075,0,0,0-.026-.052,1.945,1.945,0,0,1-.131-.549,3.53,3.53,0,0,1-.157-.575q.078.235.131.418a1.812,1.812,0,0,1,.078-.523,3.87,3.87,0,0,1,.6-1.334L21.68.209q.235-.026.445-.052a3.618,3.618,0,0,1,3.138,1.229,1,1,0,0,1,.078.575A5.82,5.82,0,0,1,24.949,3.4a8.227,8.227,0,0,0-.471,1.988,9.927,9.927,0,0,0,.785,3.687,18.806,18.806,0,0,0,.968,2.563l1.7,2.484a9.748,9.748,0,0,0,.209,6.643l.5-7.113Q26,9.729,25.76,7.27A4.56,4.56,0,0,1,26,4.577,1.566,1.566,0,0,1,27.224,4l.052.026a2.055,2.055,0,0,1,1.6.366q1.308,2.432,2.615,5.021.1.392.235.785a14.676,14.676,0,0,1,.915,4.315v7.427q-4.89,19.98-12.788,21.34Q10.958,42.34,8.735,32.742a22.4,22.4,0,0,0-3.374-7.9A14.005,14.005,0,0,0,2.955,22.2,12.411,12.411,0,0,0,0,20.294a7.255,7.255,0,0,1,1.778-2.511,4.411,4.411,0,0,1,1.177-.732,4.716,4.716,0,0,1,.994-.314,3.3,3.3,0,0,1,2.223.314,10.077,10.077,0,0,1,2.223,1.543,5.29,5.29,0,0,1,1.438,1.831,5.831,5.831,0,0,0,1.543,1.883,7.925,7.925,0,0,1,2.8,1.621,6.974,6.974,0,0,1,2.511,3.217,9.4,9.4,0,0,1-.758-6.538l-.732-3.034q-.052-.6-.131-1.229V12.893q-4.812-6.224-2.877-8.866a2.76,2.76,0,0,1,1.6-1.177q3.164,2.694,5.675,11.35.366.34.131,5.623-.863.052-1.726.131-3.138.445,7.009.915,1.752-.026,1.2-.445m1.6,1.072Q16.345,30.859,19.326,38.47,19.588,31.539,27.669,21.5Z" transform="translate(0 0.027)" fill="#e2ad98"/>
            </g>
          </g>
          <g id="Group_103807" data-name="Group 103807" transform="translate(16.293 34.024)">
            <g id="Group_103806" data-name="Group 103806" transform="translate(0 0)">
              <path id="Path_75354" data-name="Path 75354" d="M3.138,3.923V3.138h.785m-.785,0V2.354m3.138.785L3.138,0,0,3.138,3.138,6.276Zm-3.923,0h.785" fill="none" stroke="rgba(0,0,0,0)" stroke-linecap="round" stroke-linejoin="round" stroke-width="0.089"/>
            </g>
          </g>
        </g>
        <g id="Group_103819" data-name="Group 103819" transform="translate(177.378 88.129) rotate(113.119)">
          <g id="Group_103810" data-name="Group 103810" transform="translate(30.22 74.147)">
            <g id="Group_103809" data-name="Group 103809" transform="translate(0 0)">
              <path id="Path_75355" data-name="Path 75355" d="M.5,7.121a4.134,4.134,0,0,1,2.952-.356q-1.2-2.358-.43-6.519A2.869,2.869,0,0,0,.575.3,11.07,11.07,0,0,0,.5,7.121Z" fill="rgba(34,129,224,0.8)"/>
            </g>
          </g>
          <g id="Group_103812" data-name="Group 103812" transform="translate(0 0)">
            <g id="Group_103811" data-name="Group 103811">
              <path id="Path_75356" data-name="Path 75356" d="M60.6,36.169a28.839,28.839,0,0,0,.779-9.9,31.115,31.115,0,0,0-3.315-12.074A24.347,24.347,0,0,0,48.41,4.063Q41.045-.157,30.18.006,19.6.147,12.477,4.723A25.306,25.306,0,0,0,3.214,15.41,33.834,33.834,0,0,0,.1,27.758a29.485,29.485,0,0,0,.734,9.716A69.66,69.66,0,0,0,6.2,51.068,71.02,71.02,0,0,0,13.99,63.12a43.238,43.238,0,0,0,8.981,8.625q4.813,3.3,8.952,3.323a14.077,14.077,0,0,0,8.21-3.011,35.783,35.783,0,0,0,7.921-8.292,72.87,72.87,0,0,0,7.031-12.371A104.915,104.915,0,0,0,60.6,36.169Z" fill="url(#radial-gradient)"/>
            </g>
          </g>
          <g id="Group_103814" data-name="Group 103814" transform="translate(6.796 10.693)">
            <g id="Group_103813" data-name="Group 103813" transform="translate(0 0)">
              <path id="Path_75357" data-name="Path 75357" d="M.467,22.679,7.839,24.63A53.358,53.358,0,0,1,18.719,4.153Q11.488.215,6.563,0-1.751,11.028.467,22.679Z" fill="url(#radial-gradient-2)"/>
            </g>
          </g>
          <g id="Group_103816" data-name="Group 103816" transform="translate(33.697 38.245)">
            <g id="Group_103815" data-name="Group 103815" transform="translate(0 0)">
              <path id="Path_75358" data-name="Path 75358" d="M6.072,0A90.69,90.69,0,0,1,4.24,11.5,35.61,35.61,0,0,1,.406,21.663a2.245,2.245,0,0,0-.237,2.121A3.044,3.044,0,0,0,1.7,25.246a5.545,5.545,0,0,0,2.388.564,4.272,4.272,0,0,0,2.344-.556,24.048,24.048,0,0,0,9.041-9.523A35.83,35.83,0,0,0,19.251,1.7Z" transform="translate(0)" fill="url(#radial-gradient-3)"/>
            </g>
          </g>
          <g id="Group_103818" data-name="Group 103818" transform="translate(29.824 36.606)">
            <g id="Group_103817" data-name="Group 103817" transform="translate(0 0)">
              <path id="Path_75359" data-name="Path 75359" d="M.89.667V.89h.222M.89.89v.222M1.78.89l-.89.89L0,.89.89,0ZM.667.89H.89" transform="translate(0)" fill="none" stroke="rgba(0,0,0,0)" stroke-linecap="round" stroke-linejoin="round" stroke-width="0.025"/>
            </g>
          </g>
        </g>
        <g id="Group_103828" data-name="Group 103828" transform="matrix(-0.818, -0.576, 0.576, -0.818, 88.945, 113.998)">
          <g id="Group_103821" data-name="Group 103821" transform="translate(0.203 0.23)">
            <g id="Group_103820" data-name="Group 103820" transform="translate(0 0)">
              <path id="Path_75360" data-name="Path 75360" d="M4.785,11.872q-.052-.366-.758-3.478.078,1.386.052,5.1Q4.027,17.18,0,23.011a1.649,1.649,0,0,0,.915-.575,6.427,6.427,0,0,0,.732-.915q.34-.549.732-1.255.6-1.072.968-1.778.445-.863.706-1.464.131-.34.209-.6l.288-.837a9.121,9.121,0,0,0,.235-3.713m2.3,3.19a2.833,2.833,0,0,0,1.046-1.02,5.3,5.3,0,0,0,.5-3.269A11.613,11.613,0,0,1,8.08,13a3.727,3.727,0,0,1-1.2,1.83l.209.235M16.238.575Q16.205.46,16.16.34a3.43,3.43,0,0,0-.1-.34l.5,3.452q.131,2.04.288,4.288a5.185,5.185,0,0,1-.654,3.321,3.473,3.473,0,0,1-1.7,1.36,3.9,3.9,0,0,0-.052-3.713,6.284,6.284,0,0,1-.445,3.53A6.873,6.873,0,0,1,13,13.6a7.735,7.735,0,0,0,2.2-1.046,5.213,5.213,0,0,0,1.857-2.066,6.922,6.922,0,0,0,.523-4q-.026-.157-.052-.34A33.386,33.386,0,0,0,16.238.575Z" transform="translate(6.491 16.265)" fill="#c18770"/>
              <path id="Path_75361" data-name="Path 75361" d="M10.91.288q-.078.026.131-.288Q5,1.935,2.438,4.707a2.7,2.7,0,0,0-.288.34A9.156,9.156,0,0,0,.111,9.78a16.407,16.407,0,0,0,.6,6.511,36.676,36.676,0,0,0,2.615,6.171q.1.183.209.392.575,1.124,1.1,2.092.288.523.549.994l.863,2.746a9.512,9.512,0,0,1,0,5.256q-1.281,3.687-.261,4.994a.757.757,0,0,0,.706.34q4.027-5.831,4.079-9.518.026-3.713-.052-5.1.706,3.112.758,3.478a9.121,9.121,0,0,1-.235,3.713,1.4,1.4,0,0,0,.706.131,3.007,3.007,0,0,0,1.621-.889,3.727,3.727,0,0,0,1.2-1.83,11.613,11.613,0,0,0,.549-2.223,5.3,5.3,0,0,1-.5,3.269,2.833,2.833,0,0,1-1.046,1.02,2.512,2.512,0,0,0,2.85.392,8.284,8.284,0,0,0,3.059-1.857,6.874,6.874,0,0,0,.994-1.36,6.284,6.284,0,0,0,.445-3.53,3.9,3.9,0,0,1,.052,3.713,3.473,3.473,0,0,0,1.7-1.36A5.185,5.185,0,0,0,23.331,24q-.157-2.249-.288-4.288l-.5-3.452a3.431,3.431,0,0,1,.1.34,28.733,28.733,0,0,0-1.255-3.53,24.2,24.2,0,0,0-1.412-2.432A61.246,61.246,0,0,0,15.774,5.1,34.749,34.749,0,0,0,11.9.837,3.2,3.2,0,0,0,10.91.288Z" transform="translate(0)" fill="#e2ad98"/>
            </g>
          </g>
          <g id="Group_103823" data-name="Group 103823" transform="translate(0 0)">
            <g id="Group_103822" data-name="Group 103822">
              <path id="Path_75362" data-name="Path 75362" d="M6.25,28.1l-.157-.288-.026-.078-.052-.052-.078-.131q-.052-.052-.052-.026-.078,0-.026.052l.078.235.026.052.209.575L6.2,28.6l.052.157.183.889.209,2.432v.288L5.7,35.74l-.183,1.2-.026.6.052.628.078.392v.052l.052.157.131.288a.814.814,0,0,0,.209.288l.288.209.209.052h.078l.052-.026h.052l.314-.131.261-.183.314-.314.445-.6v-.078H7.949l-.209.235-.209.183a2.655,2.655,0,0,1-.418.366l-.235.157-.235.078h-.1l-.1-.052a.4.4,0,0,1-.157-.131L6.145,38.9l-.131-.392v-.078l-.026-.052-.026-.261a3.164,3.164,0,0,1,0-.575L6.014,37l1.124-4.628-.052-.628v-.157l-.261-1.7L6.25,28.1M2.275,5.486l.131-.157q.052-.026,0-.078-.026-.026-.078,0l-.209.261-.1.1L1.8,5.878q-.366.5-.523.758L.915,7.29l-.052.157-.157.288L.261,9.121.235,9.33l-.078.288v.1L.1,9.905v.1l-.026.1-.026.209v.209l-.026.1v.314L0,11.16v.889l.026.209v.235L.654,16,2.04,19.842l1.674,3.242q0,.078.052.026.078,0,.026-.052L1.386,16.7l-.6-2.536Q.628,13.3.549,12.442l-.026-.209v-.209L.5,11.814V10.663l.026-.1v-.183l.026-.209V9.984l.026-.209L.6,9.7v-.1l.052-.183.183-.889L1.49,6.767q.418-.706.471-.784l.078-.157a.283.283,0,0,0,.1-.131l.078-.1.052-.1m9.231-4.5.078.078.575.445.078.1.1.078,2.3,2.3L19.4,9.7q.052.052.078,0V9.618L16.474,5.355,13.7,2.322q-.6-.549-.889-.758L12.6,1.381,11.218.465l-.758-.34L10.172.047,10.015.021q-.052-.052-.052.026Q9.91.1,9.989.1l.131.078L10.2.2l.1.052.078.052.131.052.575.34L11.4.936l.1.052m2.118,30.359V31.4l.078.078a.957.957,0,0,0,.183.157l.052.078.366.261.34.183.235.078.052.026.34.1a3.434,3.434,0,0,0,.706.026,2.393,2.393,0,0,0,.758-.131A3.814,3.814,0,0,0,17.467,32l1.255-.837.261-.235,1.229-1.386.026-.078.052-.052.1-.157q.026-.026-.026-.078h-.052l-.078.052-.654.6-.1.078-.183.183-.732.6-.157.078-.706.5-.052.026-.026.026-.078.026-.157.1-.157.078-.811.314-.157.026-.157.052-.784.026-.288-.052h-.052L14.9,31.87l-.052-.026h-.078l-.131-.052h-.026l-.026-.026h-.052l-.392-.183-.078-.052L13.99,31.5l-.078-.052h-.026l-.026-.026-.157-.1Q13.676,31.295,13.623,31.347Z" fill="#c18770"/>
            </g>
          </g>
          <g id="Group_103825" data-name="Group 103825" transform="translate(11.061 30.563)">
            <g id="Group_103824" data-name="Group 103824" transform="translate(0 0)">
              <path id="Path_75363" data-name="Path 75363" d="M3.452,0H3.4L3.321.078H3.295L3.269.1,2.275.863,2.2.889l-.366.235L1.2,1.36l-.288.052h-.5l-.1-.026H.235L.183,1.36H.052Q0,1.307,0,1.386l.026.052.026.026L.235,1.6l.418.183H.68L.758,1.8H.915L1.1,1.83,1.281,1.8h.1l.288-.078a.848.848,0,0,0,.392-.157l.5-.314.131-.131.078-.052L2.824.994,3.059.758,3.138.628,3.295.418,3.4.235,3.425.209V.157L3.452.1,3.478.078Q3.5.052,3.452,0Z" transform="translate(0 0)" fill="#c18770"/>
            </g>
          </g>
          <g id="Group_103827" data-name="Group 103827" transform="translate(5.465 3.054)">
            <g id="Group_103826" data-name="Group 103826" transform="translate(0 0)">
              <path id="Path_75364" data-name="Path 75364" d="M3.138,2.353v.784h.784m-.784,0v.784m3.138-.784L3.138,6.276,0,3.138,3.138,0Zm-3.922,0h.784" fill="none" stroke="rgba(0,0,0,0)" stroke-linecap="round" stroke-linejoin="round" stroke-width="0.089"/>
            </g>
          </g>
        </g>
      </g>
    </g>
  </g>
</svg>
