<svg xmlns="http://www.w3.org/2000/svg" xmlns:xlink="http://www.w3.org/1999/xlink" width="130.5" height="130.5" viewBox="0 0 130.5 130.5">
  <defs>
    <clipPath id="clip-path">
      <rect id="Rectangle_1134" data-name="Rectangle 1134" width="130.5" height="130.5" fill="none"/>
    </clipPath>
  </defs>
  <g id="Group_7911" data-name="Group 7911" transform="translate(-598.919 -470.559)">
    <g id="Group_7910" data-name="Group 7910" transform="translate(598.919 470.559)" clip-path="url(#clip-path)">
      <path id="Path_9295" data-name="Path 9295" d="M664.169,601.059a65.25,65.25,0,1,0-65.25-65.25,65.251,65.251,0,0,0,65.25,65.25" transform="translate(-598.919 -470.559)" fill="#f02a4c"/>
      <g id="Group_7908" data-name="Group 7908" transform="translate(22.178 32.44)">
        <path id="Path_9296" data-name="Path 9296" d="M655.348,568.016c-4.4,0-8.4-2.75-11.277-7.743L615.52,510.725c-2.918-5.062-3.307-9.956-1.1-13.781,2.152-3.724,6.4-5.776,11.965-5.776h16.962v5.982H626.389c-3.339,0-5.749.99-6.786,2.786-1.081,1.87-.68,4.715,1.1,7.8l28.553,49.55c1.738,3.016,3.959,4.746,6.094,4.746s4.355-1.73,6.092-4.746L691.6,504.941c1.314-2.281,1.626-4.356.853-5.69s-2.723-2.1-5.355-2.1H667.516v-5.982H687.1c4.9,0,8.637,1.807,10.534,5.089s1.6,7.427-.849,11.67l-30.165,52.345C663.748,565.266,659.743,568.016,655.348,568.016Z" transform="translate(-613.008 -491.168)" fill="#fff"/>
      </g>
      <path id="Path_9297" data-name="Path 9297" d="M645.7,495.94c0,4.349,3.855,7.875,8.61,7.875s8.61-3.526,8.61-7.875-3.855-7.875-8.61-7.875-8.61,3.526-8.61,7.875" transform="translate(-572.062 -460.509)" fill="#fff"/>
      <path id="Path_9298" data-name="Path 9298" d="M623.006,495.94c0,4.349,3.855,7.875,8.61,7.875s8.61-3.526,8.61-7.875-3.855-7.875-8.61-7.875-8.61,3.526-8.61,7.875" transform="translate(-585.09 -460.509)" fill="#fff"/>
      <path id="Path_9299" data-name="Path 9299" d="M646.894,504.348a22.984,22.984,0,0,0-17.43,8.081,1.921,1.921,0,0,0,.138,2.633,1.737,1.737,0,0,0,2.526-.145,19.358,19.358,0,0,1,29.53,0,1.736,1.736,0,0,0,2.526.145,1.92,1.92,0,0,0,.138-2.633,22.982,22.982,0,0,0-17.43-8.081" transform="translate(-581.645 -451.161)" fill="#fff"/>
      <g id="Group_7909" data-name="Group 7909" transform="translate(45.721 51.539)">
        <path id="Path_9300" data-name="Path 9300" d="M631.389,517.789a3.363,3.363,0,0,1-2.314-.921,3.587,3.587,0,0,1-.263-4.911,24.484,24.484,0,0,1,37.362,0,3.585,3.585,0,0,1-.266,4.911,3.485,3.485,0,0,1-4.9-.279,17.709,17.709,0,0,0-27.028,0,3.394,3.394,0,0,1-2.405,1.192Q631.481,517.789,631.389,517.789Zm16.1-11.192a21.334,21.334,0,0,0-16.18,7.508.274.274,0,0,0,.013.354,21.628,21.628,0,0,1,16.167-7.428,21.106,21.106,0,0,1,16.015,7.414c.242-.071.247-.242.164-.34A21.326,21.326,0,0,0,647.494,506.6Z" transform="translate(-627.964 -503.301)" fill="#fff"/>
      </g>
    </g>
  </g>
</svg>
