<svg xmlns="http://www.w3.org/2000/svg" xmlns:xlink="http://www.w3.org/1999/xlink" width="334.121" height="252.508" viewBox="0 0 334.121 252.508">
  <defs>
    <linearGradient id="linear-gradient" x1="0.401" y1="0.483" x2="0" y2="0.483" gradientUnits="objectBoundingBox">
      <stop offset="0" stop-color="#906a7d"/>
      <stop offset="0.714" stop-color="#ef8aa7"/>
      <stop offset="1" stop-color="#faadc3"/>
    </linearGradient>
    <linearGradient id="linear-gradient-2" x1="0.999" y1="0.5" x2="0.001" y2="0.5" xlink:href="#linear-gradient"/>
    <linearGradient id="linear-gradient-3" x1="0.591" y1="1.189" x2="0.591" y2="-0.192" gradientUnits="objectBoundingBox">
      <stop offset="0" stop-color="#982d4d"/>
      <stop offset="0.714" stop-color="#ba3d62"/>
      <stop offset="1" stop-color="#c64e71"/>
    </linearGradient>
    <linearGradient id="linear-gradient-4" x1="0.624" y1="0.803" x2="0.3" y2="0.038" gradientUnits="objectBoundingBox">
      <stop offset="0" stop-color="#88102d"/>
      <stop offset="1" stop-color="#d32650"/>
    </linearGradient>
    <linearGradient id="linear-gradient-5" x1="0.001" y1="0.5" x2="0.999" y2="0.5" xlink:href="#linear-gradient"/>
    <linearGradient id="linear-gradient-6" x1="0.4" y1="1.289" x2="0.4" y2="-0.289" xlink:href="#linear-gradient-3"/>
    <linearGradient id="linear-gradient-7" x1="0.5" y1="1" x2="0.5" gradientUnits="objectBoundingBox">
      <stop offset="0" stop-color="#9b122a"/>
      <stop offset="0.714" stop-color="#f12a4d"/>
      <stop offset="1" stop-color="#f84262"/>
    </linearGradient>
    <linearGradient id="linear-gradient-8" x1="0.033" y1="0.543" x2="1.032" y2="0.413" xlink:href="#linear-gradient"/>
    <linearGradient id="linear-gradient-9" x1="0.513" y1="0.935" x2="0.443" y2="0.004" xlink:href="#linear-gradient-4"/>
    <linearGradient id="linear-gradient-10" x1="0.376" y1="1.142" x2="0.636" y2="0.042" xlink:href="#linear-gradient-4"/>
    <linearGradient id="linear-gradient-11" x1="0.437" y1="0.828" x2="0.623" y2="0.209" xlink:href="#linear-gradient-4"/>
    <linearGradient id="linear-gradient-12" x1="0.546" y1="1.033" x2="0.442" y2="-0.041" gradientUnits="objectBoundingBox">
      <stop offset="0" stop-color="#b61d42"/>
      <stop offset="1" stop-color="#de2552"/>
    </linearGradient>
    <linearGradient id="linear-gradient-13" x1="0.498" y1="1.273" x2="0.498" y2="-0.215" gradientUnits="objectBoundingBox">
      <stop offset="0" stop-color="#67011a"/>
      <stop offset="1" stop-color="#a1092e"/>
    </linearGradient>
    <linearGradient id="linear-gradient-14" x1="0.751" y1="0.888" x2="-0.066" y2="0.025" gradientUnits="objectBoundingBox">
      <stop offset="0" stop-color="#fff" stop-opacity="0.8"/>
      <stop offset="1" stop-color="#fff" stop-opacity="0"/>
    </linearGradient>
    <linearGradient id="linear-gradient-15" x1="0.016" y1="0.368" x2="1" y2="0.368" xlink:href="#linear-gradient-14"/>
    <linearGradient id="linear-gradient-16" x1="0.957" y1="0.991" x2="-0.084" y2="0.028" xlink:href="#linear-gradient-14"/>
  </defs>
  <g id="Q2" transform="translate(-20.542 -171.089)">
    <g id="Group_17728" data-name="Group 17728" transform="translate(52.42 182.69)">
      <path id="Path_2" data-name="Path 2" d="M2121.109,2144.3q-2.382-1.55-4.635-3.3c-12.152-9.47-18.369-24.351-28.815-35.456-10.223-10.866-21.966-21.4-34.519-29.479-26.312-16.926-57.238-23.019-85.765-15.03-30.476,8.537-56.691,31.281-69.95,60.067a114.588,114.588,0,0,0-1.089,91.921c11.356,26.444,34.252,51.475,61.88,60.8,21.021,7.1,43.255,4.7,64.133.572,28.9-5.72,56.214-11.679,86.615-8.19,18.758,2.153,36.082,6.159,54.079.991,16.725-4.8,30.8-18.46,38.926-33.515a68.973,68.973,0,0,0,6.206-49.519c-3.3-12.862-11.924-26.063-24.727-29.646-8.481-2.373-17.094-.138-25.67.22A63.3,63.3,0,0,1,2121.109,2144.3Z" transform="translate(-1797.304 -2165.113) rotate(3)" fill="#84a4fc" opacity="0.12"/>
      <path id="Path_3" data-name="Path 3" d="M1953.947,2122.454q1.782-1.159,3.467-2.47c9.091-7.085,13.742-18.217,21.557-26.525a141.836,141.836,0,0,1,25.823-22.053c19.685-12.663,42.82-17.22,64.161-11.244,22.8,6.387,42.411,23.4,52.331,44.936a85.727,85.727,0,0,1,.814,68.767c-8.5,19.783-25.625,38.508-46.292,45.488-15.726,5.31-32.36,3.519-47.978.428-21.617-4.278-42.054-8.737-64.8-6.126-14.033,1.611-26.993,4.607-40.456.742-12.512-3.594-23.039-13.81-29.121-25.073a51.6,51.6,0,0,1-4.643-37.045c2.468-9.622,8.92-19.5,18.5-22.178,6.345-1.775,12.788-.1,19.2.165A47.35,47.35,0,0,0,1953.947,2122.454Z" transform="translate(-1895.438 -1981.831)" fill="#fff" opacity="0.4"/>
      <path id="Path_35799" data-name="Path 35799" d="M1957.442,2125.854q1.875-1.22,3.649-2.6c9.567-7.456,14.462-19.172,22.686-27.915a149.25,149.25,0,0,1,27.177-23.208c20.716-13.326,45.063-18.123,67.523-11.833,23.993,6.722,44.633,24.628,55.073,47.291a90.22,90.22,0,0,1,.857,72.371c-8.941,20.819-26.967,40.526-48.718,47.871-16.55,5.588-34.055,3.7-50.492.45-22.75-4.5-44.258-9.195-68.192-6.447-14.768,1.7-28.408,4.849-42.576.78-13.168-3.782-24.246-14.533-30.647-26.386a54.3,54.3,0,0,1-4.886-38.987c2.6-10.126,9.388-20.52,19.468-23.34,6.677-1.869,13.458-.108,20.21.173A49.829,49.829,0,0,0,1957.442,2125.854Z" transform="translate(-1457.678 -2346.061) rotate(10)" fill="#e6edfe" opacity="0.304" style="mix-blend-mode: multiply;isolation: isolate"/>
    </g>
    <g id="Group_64803" data-name="Group 64803">
      <g id="Group_14353" data-name="Group 14353" transform="translate(5.464 90)">
        <g id="Group_1919" data-name="Group 1919" transform="translate(66.77 143.582)" opacity="0.999" style="isolation: isolate">
          <g id="Group_1918" data-name="Group 1918" transform="translate(0 0)" opacity="0.373" style="mix-blend-mode: multiply;isolation: isolate">
            <path id="Path_1451" data-name="Path 1451" d="M369.288,278.8V211.455q0-19.506-19.43-19.506H294.63q-19.43,0-19.43,19.506V278.8q0,19.506,19.43,19.506h55.229Q369.288,298.305,369.288,278.8Z" transform="translate(-275.2 -191.949)" fill="#fff"/>
          </g>
        </g>
        <g id="Group_1921" data-name="Group 1921" transform="translate(77.044 114)">
          <g id="Group_1920" data-name="Group 1920" transform="translate(-6)">
            <path id="Path_1452" data-name="Path 1452" d="M504.974,196.338a14.394,14.394,0,0,0-10.589-4.389H439.01a15.068,15.068,0,0,0,0,30.137h55.375a15.122,15.122,0,0,0,15.009-15.068A14.587,14.587,0,0,0,504.974,196.338Z" transform="translate(-424 -191.949)" fill="#fff"/>
          </g>
        </g>
        <g id="Group_1923" data-name="Group 1923" transform="translate(80.953 163.513)" opacity="0.885">
          <g id="Group_1922" data-name="Group 1922">
            <path id="Path_1453" data-name="Path 1453" d="M362.035,231.418q0-9.753-9.715-9.753H306.515q-9.715,0-9.715,9.753V277.4q0,9.753,9.715,9.753H352.32q9.715,0,9.715-9.753Z" transform="translate(-296.8 -221.665)" fill="#fdfdfd"/>
          </g>
        </g>
        <path id="Union_1" data-name="Union 1" d="M15.518,42.5q-3.662,0-3.661-3.678V30.957H3.724Q0,30.957,0,27.217V17.342Q0,13.6,3.724,13.6h8.133V3.676Q11.858,0,15.518,0H25.48q3.662,0,3.66,3.676V13.6h9.454q3.724,0,3.724,3.74v9.875q0,3.74-3.724,3.74H29.14v7.861q0,3.677-3.66,3.678Z" transform="translate(92.662 175.065)" fill="#00a8ff" opacity="0.3"/>
        <g id="Group_11956" data-name="Group 11956" transform="translate(262.202 171.891)" style="isolation: isolate">
          <g id="Group_11913" data-name="Group 11913" transform="translate(50.242 0) rotate(40)" opacity="0.664">
            <path id="Path_16294" data-name="Path 16294" d="M15.081,0A15.1,15.1,0,0,0,0,15.08v48a15.079,15.079,0,1,0,30.158,0v-48A15.1,15.1,0,0,0,15.081,0Zm0,5.8a9.289,9.289,0,0,1,9.278,9.281V35.925a36.185,36.185,0,0,1-18.559,0V15.08A9.29,9.29,0,0,1,15.081,5.8Zm0,66.565A9.291,9.291,0,0,1,5.8,63.082V41.9a41.98,41.98,0,0,0,9.281,1.061A41.95,41.95,0,0,0,24.359,41.9V63.082A9.29,9.29,0,0,1,15.081,72.364Z" transform="translate(0 0)" fill="#fff" stroke="rgba(0,0,0,0)" stroke-miterlimit="10" stroke-width="1"/>
          </g>
          <path id="Subtraction_1" data-name="Subtraction 1" d="M9.281,66.565A9.292,9.292,0,0,1,0,57.283V36.1a42.084,42.084,0,0,0,9.281,1.06A42.054,42.054,0,0,0,18.56,36.1V57.283A9.291,9.291,0,0,1,9.281,66.565ZM9.224,33.419A38.145,38.145,0,0,1,.459,32.374C.476,32.249.3,30.2,0,30.126V9.281a9.28,9.28,0,1,1,18.56,0l-.143,22.94A36.027,36.027,0,0,1,9.224,33.419Z" transform="translate(49.857 5.299) rotate(40)" fill="#fff" stroke="rgba(0,0,0,0)" stroke-miterlimit="10" stroke-width="1" opacity="0.628"/>
        </g>
        <g id="Group_11957" data-name="Group 11957" transform="translate(217.53 158.264)" style="isolation: isolate">
          <g id="Group_11913-2" data-name="Group 11913" transform="translate(50.242 0) rotate(40)" opacity="0.664">
            <path id="Path_16294-2" data-name="Path 16294" d="M15.081,0A15.1,15.1,0,0,0,0,15.08v48a15.079,15.079,0,1,0,30.158,0v-48A15.1,15.1,0,0,0,15.081,0Zm0,5.8a9.289,9.289,0,0,1,9.278,9.281V35.925a36.185,36.185,0,0,1-18.559,0V15.08A9.29,9.29,0,0,1,15.081,5.8Zm0,66.565A9.291,9.291,0,0,1,5.8,63.082V41.9a41.98,41.98,0,0,0,9.281,1.061A41.95,41.95,0,0,0,24.359,41.9V63.082A9.29,9.29,0,0,1,15.081,72.364Z" transform="translate(0 0)" fill="#fff" stroke="rgba(0,0,0,0)" stroke-miterlimit="10" stroke-width="1"/>
          </g>
          <path id="Subtraction_1-2" data-name="Subtraction 1" d="M9.281,66.565A9.292,9.292,0,0,1,0,57.283V36.1a42.084,42.084,0,0,0,9.281,1.06A42.054,42.054,0,0,0,18.56,36.1V57.283A9.291,9.291,0,0,1,9.281,66.565ZM9.224,33.419A38.145,38.145,0,0,1,.459,32.374C.476,32.249.3,30.2,0,30.126V9.281a9.28,9.28,0,1,1,18.56,0l-.143,22.94A36.027,36.027,0,0,1,9.224,33.419Z" transform="translate(49.857 5.299) rotate(40)" fill="#fff" stroke="rgba(0,0,0,0)" stroke-miterlimit="10" stroke-width="1" opacity="0.628"/>
        </g>
      </g>
      <g id="pericarditis" transform="translate(120.5 258)">
        <g id="Group_2054" data-name="Group 2054" transform="translate(0 0)">
          <g id="Group_2040" data-name="Group 2040">
            <g id="Group_2039" data-name="Group 2039">
              <path id="Path_1576" data-name="Path 1576" d="M-49.354-42.339a14.735,14.735,0,0,1,2.106,6.683,13.83,13.83,0,0,1-1,6.948Q-49.41-25.9-51.46-25.578a47.77,47.77,0,0,1,10.31.053,41.3,41.3,0,0,1,6.541,1.379l.222.106a35.268,35.268,0,0,1,3.714,1.273A33.11,33.11,0,0,1-23.8-41.915q-1.552-.53-3.049-1.008-.5-.159-.942-.265-1.552-.477-3.049-.8a59.259,59.259,0,0,0-22.338-.955q2.106-.106,3.825,2.6m63.744,20q1.441-.212,2.882-.477,1.386-.212,2.716-.53a.232.232,0,0,1,.166-.053,14.442,14.442,0,0,0-1.33-2.864,17,17,0,0,0-1.885-2.387,12.829,12.829,0,0,0-5.6-3.607,13.091,13.091,0,0,0-3.769-.53,12.532,12.532,0,0,0-3.714.53,12.752,12.752,0,0,0-5.709,3.607q-.61.69-1.109,1.379a12.657,12.657,0,0,0-1.885,3.448q1.164.318,2.328.583a4.539,4.539,0,0,1,.665.159q1.053.212,2.217.424,1.774.265,3.547.477A49.385,49.385,0,0,0,14.39-22.343Z" transform="translate(57.737 70.941)" fill="url(#linear-gradient)"/>
              <path id="Path_1577" data-name="Path 1577" d="M-52.5-45.008q-2.273.212-3.547,3.129a14.145,14.145,0,0,0-.942,6.948,14.323,14.323,0,0,0,2.106,6.789q1.663,2.546,3.714,2.546h.222a.439.439,0,0,0,.166-.053q2.051-.318,3.215-3.129a13.83,13.83,0,0,0,1-6.948,14.735,14.735,0,0,0-2.106-6.683q-1.718-2.705-3.825-2.6m-2.55,4.986q.776-2.122,2.217-2.281,1.33-.053,2.383,1.909a12.394,12.394,0,0,1,1.33,4.827,11.384,11.384,0,0,1-.61,5.039q-.776,2.016-2.051,2.228l-.055.053h-.166q-1.275,0-2.328-1.856a11.644,11.644,0,0,1-1.33-4.88A12.4,12.4,0,0,1-55.054-40.022Z" transform="translate(57.063 71.011)" fill="url(#linear-gradient-2)"/>
              <path id="Path_1578" data-name="Path 1578" d="M-53.039-42.6q-1.441.159-2.217,2.281a12.4,12.4,0,0,0-.61,5.039,11.644,11.644,0,0,0,1.33,4.88q1.053,1.856,2.328,1.856h.166l.055-.053q1.275-.212,2.051-2.228a11.384,11.384,0,0,0,.61-5.039,12.394,12.394,0,0,0-1.33-4.827Q-51.709-42.653-53.039-42.6Z" transform="translate(57.266 71.307)" fill="url(#linear-gradient-3)"/>
              <path id="Path_1579" data-name="Path 1579" d="M-24.949-47.326A16.054,16.054,0,0,0-23.286-45.1,37.032,37.032,0,0,1-7.655-53.8a8.085,8.085,0,0,1-1.552-2.122,19.5,19.5,0,0,1-1.829-5.941q-11.03-4.19-17.017,4.4A23.132,23.132,0,0,0-24.949-47.326Z" transform="translate(62.101 68.768)" fill="url(#linear-gradient-4)"/>
              <path id="Path_1580" data-name="Path 1580" d="M54.113-39.813q-2.106-.106-3.825,2.6a14.735,14.735,0,0,0-2.106,6.683,13.83,13.83,0,0,0,1,6.948q1.164,2.811,3.215,3.129a.439.439,0,0,0,.166.053h.222q2.051,0,3.714-2.546A14.323,14.323,0,0,0,58.6-29.735a14.146,14.146,0,0,0-.942-6.948q-1.275-2.917-3.548-3.129m-1.774,5.2q.887-1.7,2-1.644,1.219.106,1.885,1.963a9.942,9.942,0,0,1,.5,4.456,10.143,10.143,0,0,1-1.109,4.3q-.887,1.591-1.94,1.591h-.222q-1.109-.212-1.718-2.016a10.27,10.27,0,0,1-.554-4.4A10.591,10.591,0,0,1,52.34-34.615Z" transform="translate(75.328 71.65)" fill="url(#linear-gradient-5)"/>
              <path id="Path_1581" data-name="Path 1581" d="M53.887-36.649q-1.109-.053-2,1.644a10.591,10.591,0,0,0-1.164,4.243,10.269,10.269,0,0,0,.554,4.4q.61,1.8,1.718,2.016h.222q1.053,0,1.94-1.591a10.143,10.143,0,0,0,1.109-4.3,9.942,9.942,0,0,0-.5-4.456Q55.106-36.543,53.887-36.649Z" transform="translate(75.776 72.04)" fill="url(#linear-gradient-6)"/>
              <path id="Path_1582" data-name="Path 1582" d="M15.973-25.1q-1.441.265-2.882.477a49.385,49.385,0,0,1-10.476.159Q.841-24.675-.933-24.94q-1.164-.212-2.217-.424a4.54,4.54,0,0,0-.665-.159q-1.164-.265-2.328-.583a14.812,14.812,0,0,0-.887,5.2q0,.637.055,1.273a3.43,3.43,0,0,1-.776,3.076.355.355,0,0,0-.166.159,4.114,4.114,0,0,0-.443.371q-9.645,7.267-19.9,4.509a.51.51,0,0,1-.222-.053,3.782,3.782,0,0,1-2.439-2.811,29.182,29.182,0,0,1-1-6.259,30.876,30.876,0,0,0-3.658,3.819,33.1,33.1,0,0,0-2.439,3.236Q-46.939-.276-45.5,17.865a61.113,61.113,0,0,0,8.592,26.627q12.361,20.9,28.491,30.817l.721.477q.887.53,1.829,1.061a27.443,27.443,0,0,0,9.478,2.864A25.053,25.053,0,0,0,21.627,75.1q16.518-10.82,30.209-35.007A52.147,52.147,0,0,0,58.654,18.13Q60.1-.01,51.171-13.324a35.542,35.542,0,0,0-4.379-5.41,24.882,24.882,0,0,0-2-1.91,26.273,26.273,0,0,0-7.483-4.615,26.209,26.209,0,0,0-9.756-1.8,27.685,27.685,0,0,0-5.986.636,17.309,17.309,0,0,0-1.94.53,5.308,5.308,0,0,0-.61.159.439.439,0,0,0-.166.053.232.232,0,0,0-.166.053Q17.359-25.311,15.973-25.1Z" transform="translate(59.036 73.22)" fill="url(#linear-gradient-7)"/>
              <path id="Path_1583" data-name="Path 1583" d="M35.169-38.789q-1.718.371-3.437.9a.51.51,0,0,0-.222.053,28.647,28.647,0,0,0-2.938,1.008,33.873,33.873,0,0,1,1.718,4.3,33.689,33.689,0,0,1,1.441,6.789,37.325,37.325,0,0,1,.222,4.084v1.326Q31.9-19.694,31.9-19a24.883,24.883,0,0,1,2,1.91q.776-.371,1.607-.69a2.207,2.207,0,0,1,.277-.106h.111a40.971,40.971,0,0,1,9.589-2.44,47.77,47.77,0,0,1,10.31-.053q-2.051-.318-3.215-3.129a13.831,13.831,0,0,1-1-6.948,14.735,14.735,0,0,1,2.106-6.683q1.718-2.705,3.825-2.6A59.26,59.26,0,0,0,35.169-38.789Z" transform="translate(71.934 71.581)" fill="url(#linear-gradient-8)"/>
              <path id="Path_1584" data-name="Path 1584" d="M19.161-53.455a36.631,36.631,0,0,0-5.82-1.75,43.075,43.075,0,0,0-8.924-.9,42.284,42.284,0,0,0-8.869.9,21.324,21.324,0,0,0-2.162.53,37.032,37.032,0,0,0-15.631,8.7l-.554.53a40.5,40.5,0,0,0-4.324,4.827A33.11,33.11,0,0,0-34-21.471q-.055.849-.055,1.75,0,1.326.111,2.652a29.182,29.182,0,0,0,1,6.259A3.782,3.782,0,0,0-30.5-8a.51.51,0,0,0,.222.053q10.254,2.758,19.9-4.509a4.114,4.114,0,0,1,.443-.371.355.355,0,0,1,.166-.159A3.43,3.43,0,0,0-9-16.06q-.055-.636-.055-1.273a14.812,14.812,0,0,1,.887-5.2,12.657,12.657,0,0,1,1.885-3.448q.5-.69,1.109-1.379A12.752,12.752,0,0,1,.537-30.965,12.532,12.532,0,0,1,4.25-31.5a13.09,13.09,0,0,1,3.769.53,12.829,12.829,0,0,1,5.6,3.607A17,17,0,0,1,15.5-24.971a14.442,14.442,0,0,1,1.33,2.864A.439.439,0,0,1,17-22.16a5.307,5.307,0,0,1,.61-.159,17.308,17.308,0,0,1,1.94-.53,27.686,27.686,0,0,1,5.986-.636,26.209,26.209,0,0,1,9.756,1.8,26.273,26.273,0,0,1,7.483,4.615q0-.69.055-1.326V-19.72a37.326,37.326,0,0,0-.222-4.084,33.69,33.69,0,0,0-1.441-6.789,33.874,33.874,0,0,0-1.718-4.3,31.554,31.554,0,0,0-1.718-3.076q-.721-1.167-1.552-2.281-.887,1.8-1.94,3.607-.222.371-.443.8A5.359,5.359,0,0,1,30.3-33.458h-.055q-.665.053-1.275.106-7.261.212-13.248-6.736-.5-.583-.942-1.167a3.1,3.1,0,0,1,.055-3.5v-.053l.055-.053L15-45.074A38.8,38.8,0,0,0,19.161-53.455Z" transform="translate(61.059 69.645)" fill="url(#linear-gradient-9)"/>
              <path id="Path_1585" data-name="Path 1585" d="M8.995-53.721a9.384,9.384,0,0,1,0-2.493,21.177,21.177,0,0,1,1.5-6.1q-7.317-8.858-17.017-4.3A22.649,22.649,0,0,0-9.02-56.161a13.619,13.619,0,0,0,.222,2.44,42.284,42.284,0,0,1,8.869-.9A43.075,43.075,0,0,1,8.995-53.721Z" transform="translate(65.405 68.161)" fill="url(#linear-gradient-10)"/>
              <path id="Path_1586" data-name="Path 1586" d="M16.612-58.734q-2.661-1.644-2.55-3.607a42.176,42.176,0,0,1-1.275,7.214l-.776,2.44a38.8,38.8,0,0,1-4.157,8.381l-.111.212-.055.053v.053a3.1,3.1,0,0,0-.055,3.5q.443.583.942,1.167,5.986,6.948,13.248,6.736.61-.053,1.275-.106h.055a5.359,5.359,0,0,0,3.492-2.387q.222-.424.443-.8,1.053-1.8,1.94-3.607A53.882,53.882,0,0,0,32.8-50.035a52.262,52.262,0,0,0,1.441-10.237q-.277,2.016-3.381,3.076a15.375,15.375,0,0,1-7.261.69A15.494,15.494,0,0,1,16.612-58.734Z" transform="translate(68.209 68.877)" fill="url(#linear-gradient-11)"/>
              <path id="Path_1587" data-name="Path 1587" d="M13.036-62.04v.159q-.111,1.963,2.55,3.607a15.494,15.494,0,0,0,6.984,2.228,15.375,15.375,0,0,0,7.261-.69q3.1-1.061,3.381-3.076v-.106q.222-2.069-2.55-3.819a15.99,15.99,0,0,0-6.929-2.228,16.648,16.648,0,0,0-7.317.69q-2.938,1.114-3.326,3.023a.455.455,0,0,0-.055.212m3.326,0q.277-1.273,2.273-2.016a11.414,11.414,0,0,1,4.933-.477,10.383,10.383,0,0,1,4.656,1.538q1.829,1.167,1.718,2.546v.053q-.222,1.379-2.273,2.069a10.428,10.428,0,0,1-4.933.477,9.955,9.955,0,0,1-4.656-1.485q-1.829-1.114-1.718-2.44v-.265Z" transform="translate(69.235 68.417)" fill="url(#linear-gradient-12)"/>
              <path id="Path_1588" data-name="Path 1588" d="M18.142-64.217q-2,.743-2.273,2.016v.265q-.111,1.326,1.718,2.44a9.955,9.955,0,0,0,4.656,1.485,10.428,10.428,0,0,0,4.933-.477q2.051-.69,2.273-2.069v-.053q.111-1.379-1.718-2.546a10.384,10.384,0,0,0-4.656-1.538A11.415,11.415,0,0,0,18.142-64.217Z" transform="translate(69.727 68.579)" fill="url(#linear-gradient-13)"/>
            </g>
          </g>
          <g id="Group_2042" data-name="Group 2042" transform="translate(23.102 27.753)">
            <g id="Group_2041" data-name="Group 2041">
              <path id="Path_1589" data-name="Path 1589" d="M-29.926-9.556a3.782,3.782,0,0,1-2.439-2.811,29.182,29.182,0,0,1-1-6.259,30.876,30.876,0,0,0-3.658,3.819,31.186,31.186,0,0,0,.887,4.562,4.257,4.257,0,0,0,2.716,3.129.51.51,0,0,0,.222.053Q-21.667-3.987-10.8-12.42a.344.344,0,0,1,.166-.212,4.474,4.474,0,0,0,.831-1.379Q-19.45-6.745-29.7-9.5a.51.51,0,0,1-.222-.053m-3.492-13.473a33.11,33.11,0,0,1,6.873-19.148q-2-.743-3.991-1.273-7.261,9.07-6.818,19.042a39.81,39.81,0,0,1,3.935,1.379M42.964-37.456a28.643,28.643,0,0,0-2.938,1.008,33.873,33.873,0,0,1,1.718,4.3,34.756,34.756,0,0,1,1.441,6.789q-10.975-6.047-27.105-1.167A17,17,0,0,0,14.2-28.916a12.379,12.379,0,0,0-9.368-4.137,12.552,12.552,0,0,0-9.423,4.137q-.61.69-1.109,1.379A12.657,12.657,0,0,0-7.588-24.09q1.164.318,2.328.583a4.539,4.539,0,0,1,.665.159,11.089,11.089,0,0,1,1.053-1.8q.443-.53.887-1.114a10.1,10.1,0,0,1,7.538-3.289,9.92,9.92,0,0,1,7.483,3.289q.443.477.831.955A38.73,38.73,0,0,1,2.334-22.976a29.894,29.894,0,0,1-4.712.053q1.774.265,3.547.477a49.8,49.8,0,0,0,13.359-.637q1.386-.212,2.716-.53a.232.232,0,0,1,.166-.053.232.232,0,0,1,.166-.053,5.309,5.309,0,0,1,.61-.159,17.309,17.309,0,0,1,1.94-.53,27.686,27.686,0,0,1,5.986-.636,26.209,26.209,0,0,1,9.756,1.8,26.273,26.273,0,0,1,7.483,4.615,24.883,24.883,0,0,1,2,1.91q1-.424,2-.8a3.7,3.7,0,0,0-.887-3.289Q48.507-29.341,42.964-37.456Z" transform="translate(37.379 43.45)" fill="rgba(0,0,0,0.14)"/>
            </g>
          </g>
          <g id="Group_2044" data-name="Group 2044" transform="translate(57.48 47.591)">
            <g id="Group_2043" data-name="Group 2043" transform="translate(0 0)">
              <path id="Path_1590" data-name="Path 1590" d="M12.158-25.786q-1.33.318-2.716.53-1.441.265-2.882.477a47.155,47.155,0,0,1-8.647.265Q-12.564-15.072-4.748,5.508-4.748-20.672,12.158-25.786Z" transform="translate(8.088 25.786)" fill="rgba(0,0,0,0.14)"/>
            </g>
          </g>
          <g id="Group_2047" data-name="Group 2047" transform="translate(36.625 90.624)">
            <g id="Group_2046" data-name="Group 2046" transform="translate(0 0)">
              <g id="Group_2045" data-name="Group 2045">
                <path id="Path_1591" data-name="Path 1591" d="M12.868,27.4a16.3,16.3,0,0,1-1.33-1.432,2.152,2.152,0,0,0-1.552-.743,2.264,2.264,0,0,0-1.607.53A1.837,1.837,0,0,0,7.6,27.184a2.051,2.051,0,0,0,.554,1.538A18.976,18.976,0,0,0,9.6,30.261a2.241,2.241,0,0,0,1.552.69,2.08,2.08,0,0,0,1.552-.53,2.2,2.2,0,0,0,.721-1.485,1.957,1.957,0,0,0-.554-1.538M-8.473-24.372A2.01,2.01,0,0,0-9.3-22.94Q-12.962,2.308,4.387,24.267a2.348,2.348,0,0,0,1.5.849,2.279,2.279,0,0,0,2.494-1.8,2.043,2.043,0,0,0-.443-1.591Q-8.306,1.247-4.925-22.357a2.043,2.043,0,0,0-.443-1.591,2.1,2.1,0,0,0-1.441-.8A2.1,2.1,0,0,0-8.473-24.372Z" transform="translate(9.941 24.78)" fill="url(#linear-gradient-14)"/>
              </g>
            </g>
          </g>
          <g id="Group_2050" data-name="Group 2050" transform="translate(30.278 15.925)">
            <g id="Group_2049" data-name="Group 2049" transform="translate(0 0)">
              <g id="Group_2048" data-name="Group 2048">
                <path id="Path_1592" data-name="Path 1592" d="M-12.8,13.254a2.056,2.056,0,0,0-1.552.636,1.888,1.888,0,0,0-.665,1.485q0,1.167.055,2.334a18.268,18.268,0,0,0,.277,2.44,1.974,1.974,0,0,0,.831,1.379,2.276,2.276,0,0,0,1.663.424A2.313,2.313,0,0,0-10.75,21.1a1.961,1.961,0,0,0,.443-1.538,20.7,20.7,0,0,1-.222-2.069q-.055-1.061-.055-2.122a1.967,1.967,0,0,0-.61-1.485,2.241,2.241,0,0,0-1.607-.636M19.625-16.98a2.241,2.241,0,0,0-1.607-.636,36.175,36.175,0,0,0-7.428.743h-.055a14.514,14.514,0,0,0-1.885.53h.055A31.336,31.336,0,0,0-4.875-8.387l-.443.424q-.055,0-.055.053A31.172,31.172,0,0,0-14.409,9.17a1.8,1.8,0,0,0,.388,1.538,2.071,2.071,0,0,0,1.441.9,2.322,2.322,0,0,0,1.607-.371A2.127,2.127,0,0,0-10.03,9.86,27.3,27.3,0,0,1-2.159-4.992v.053l.443-.424v-.053a27.414,27.414,0,0,1,11.7-6.842q0-.053.055-.053.721-.212,1.552-.424h-.055a31.69,31.69,0,0,1,6.485-.636,2.354,2.354,0,0,0,1.607-.583,2.143,2.143,0,0,0,.61-1.538A1.967,1.967,0,0,0,19.625-16.98Z" transform="translate(15.019 17.616)" fill="url(#linear-gradient-15)"/>
              </g>
            </g>
          </g>
          <g id="Group_2053" data-name="Group 2053" transform="translate(95.696 53.683)">
            <g id="Group_2052" data-name="Group 2052" transform="translate(0 0)">
              <g id="Group_2051" data-name="Group 2051">
                <path id="Path_1593" data-name="Path 1593" d="M26.967-20.356a2.042,2.042,0,0,1,1.456.7q16.139,17.541,12.4,42.62a2.134,2.134,0,0,1-.86,1.364,2.422,2.422,0,0,1-1.61.445,2.249,2.249,0,0,1-1.477-.629,1.676,1.676,0,0,1-.433-1.428Q39.985-.7,24.93-17.119a1.676,1.676,0,0,1-.433-1.428,1.919,1.919,0,0,1,.839-1.3A2.32,2.32,0,0,1,26.967-20.356Z" transform="translate(-24.474 20.362)" fill="url(#linear-gradient-16)"/>
              </g>
            </g>
          </g>
        </g>
      </g>
    </g>
  </g>
</svg>
