<svg xmlns="http://www.w3.org/2000/svg" xmlns:xlink="http://www.w3.org/1999/xlink" width="46.472" height="55.496" viewBox="0 0 46.472 55.496">
  <defs>
    <linearGradient id="linear-gradient" x1="0.401" y1="0.483" x2="0" y2="0.483" gradientUnits="objectBoundingBox">
      <stop offset="0" stop-color="#906a7d"/>
      <stop offset="0.714" stop-color="#ef8aa7"/>
      <stop offset="1" stop-color="#faadc3"/>
    </linearGradient>
    <linearGradient id="linear-gradient-2" x1="0.999" y1="0.5" x2="0.001" y2="0.5" xlink:href="#linear-gradient"/>
    <linearGradient id="linear-gradient-3" x1="0.591" y1="1.189" x2="0.591" y2="-0.192" gradientUnits="objectBoundingBox">
      <stop offset="0" stop-color="#982d4d"/>
      <stop offset="0.714" stop-color="#ba3d62"/>
      <stop offset="1" stop-color="#c64e71"/>
    </linearGradient>
    <linearGradient id="linear-gradient-4" x1="0.624" y1="0.803" x2="0.3" y2="0.038" gradientUnits="objectBoundingBox">
      <stop offset="0" stop-color="#88102d"/>
      <stop offset="1" stop-color="#d32650"/>
    </linearGradient>
    <linearGradient id="linear-gradient-5" x1="0.001" y1="0.5" x2="0.999" y2="0.5" xlink:href="#linear-gradient"/>
    <linearGradient id="linear-gradient-6" x1="0.4" y1="1.289" x2="0.4" y2="-0.289" xlink:href="#linear-gradient-3"/>
    <linearGradient id="linear-gradient-7" x1="0.5" y1="1" x2="0.5" gradientUnits="objectBoundingBox">
      <stop offset="0" stop-color="#9b122a"/>
      <stop offset="0.714" stop-color="#f12a4d"/>
      <stop offset="1" stop-color="#f84262"/>
    </linearGradient>
    <linearGradient id="linear-gradient-8" x1="0.033" y1="0.543" x2="1.032" y2="0.413" xlink:href="#linear-gradient"/>
    <linearGradient id="linear-gradient-9" x1="0.513" y1="0.935" x2="0.443" y2="0.004" xlink:href="#linear-gradient-4"/>
    <linearGradient id="linear-gradient-10" x1="0.376" y1="1.142" x2="0.636" y2="0.042" xlink:href="#linear-gradient-4"/>
    <linearGradient id="linear-gradient-11" x1="0.437" y1="0.828" x2="0.623" y2="0.209" xlink:href="#linear-gradient-4"/>
    <linearGradient id="linear-gradient-12" x1="0.546" y1="1.033" x2="0.442" y2="-0.041" gradientUnits="objectBoundingBox">
      <stop offset="0" stop-color="#b61d42"/>
      <stop offset="1" stop-color="#de2552"/>
    </linearGradient>
    <linearGradient id="linear-gradient-13" x1="0.498" y1="1.273" x2="0.498" y2="-0.215" gradientUnits="objectBoundingBox">
      <stop offset="0" stop-color="#67011a"/>
      <stop offset="1" stop-color="#a1092e"/>
    </linearGradient>
    <linearGradient id="linear-gradient-14" x1="0.751" y1="0.888" x2="-0.066" y2="0.025" gradientUnits="objectBoundingBox">
      <stop offset="0" stop-color="#fff" stop-opacity="0.8"/>
      <stop offset="1" stop-color="#fff" stop-opacity="0"/>
    </linearGradient>
    <linearGradient id="linear-gradient-15" x1="0.016" y1="0.368" x2="1" y2="0.368" xlink:href="#linear-gradient-14"/>
    <linearGradient id="linear-gradient-16" x1="0.957" y1="0.991" x2="-0.084" y2="0.028" xlink:href="#linear-gradient-14"/>
  </defs>
  <g id="Cardiac_Arrhythmia" data-name="Cardiac Arrhythmia" transform="translate(0)">
    <g id="Group_2040" data-name="Group 2040" transform="translate(0 0)">
      <g id="Group_2039" data-name="Group 2039">
        <path id="Path_1576" data-name="Path 1576" d="M-51.852-44.4a5.509,5.509,0,0,1,.73,2.422,5.217,5.217,0,0,1-.346,2.518q-.4,1.019-1.115,1.134a15.857,15.857,0,0,1,3.576.019,13.787,13.787,0,0,1,2.268.5l.077.038a11.877,11.877,0,0,1,1.288.461,12.339,12.339,0,0,1,2.384-6.94q-.538-.192-1.057-.365-.173-.058-.327-.1-.538-.173-1.057-.288a19.687,19.687,0,0,0-7.747-.346q.73-.038,1.326.942m22.107,7.247q.5-.077,1-.173.481-.077.942-.192a.078.078,0,0,1,.058-.019,5.346,5.346,0,0,0-.461-1.038,6.127,6.127,0,0,0-.654-.865A4.432,4.432,0,0,0-30.8-40.75a4.358,4.358,0,0,0-1.307-.192,4.173,4.173,0,0,0-1.288.192,4.4,4.4,0,0,0-1.98,1.307q-.211.25-.384.5a4.654,4.654,0,0,0-.654,1.25q.4.115.807.211a1.519,1.519,0,0,1,.231.058q.365.077.769.154.615.1,1.23.173A16.393,16.393,0,0,0-29.745-37.156Z" transform="translate(54.76 54.769)" fill="url(#linear-gradient)"/>
        <path id="Path_1577" data-name="Path 1577" d="M-55.482-45.01q-.788.077-1.23,1.134a5.337,5.337,0,0,0-.327,2.518,5.357,5.357,0,0,0,.73,2.461,1.6,1.6,0,0,0,1.288.923h.077a.147.147,0,0,0,.058-.019q.711-.115,1.115-1.134a5.217,5.217,0,0,0,.346-2.518,5.509,5.509,0,0,0-.73-2.422q-.6-.98-1.326-.942m-.884,1.807q.269-.769.769-.827.461-.019.827.692a4.647,4.647,0,0,1,.461,1.749,4.3,4.3,0,0,1-.211,1.826q-.269.73-.711.807l-.019.019h-.058q-.442,0-.807-.673a4.366,4.366,0,0,1-.461-1.769A4.683,4.683,0,0,1-56.366-43.2Z" transform="translate(57.063 54.434)" fill="url(#linear-gradient-2)"/>
        <path id="Path_1578" data-name="Path 1578" d="M-54.905-42.6q-.5.058-.769.827a4.683,4.683,0,0,0-.211,1.826,4.366,4.366,0,0,0,.461,1.769q.365.673.807.673h.058l.019-.019q.442-.077.711-.807a4.3,4.3,0,0,0,.211-1.826,4.647,4.647,0,0,0-.461-1.749Q-54.444-42.62-54.905-42.6Z" transform="translate(56.371 53.005)" fill="url(#linear-gradient-3)"/>
        <path id="Path_1579" data-name="Path 1579" d="M-26.977-57.468a5.807,5.807,0,0,0,.577.807,12.7,12.7,0,0,1,5.421-3.153,2.927,2.927,0,0,1-.538-.769,7.3,7.3,0,0,1-.634-2.153q-3.825-1.519-5.9,1.6A8.655,8.655,0,0,0-26.977-57.468Z" transform="translate(39.861 65.239)" fill="url(#linear-gradient-4)"/>
        <path id="Path_1580" data-name="Path 1580" d="M50.2-39.815q-.73-.038-1.326.942a5.509,5.509,0,0,0-.73,2.422,5.217,5.217,0,0,0,.346,2.518q.4,1.019,1.115,1.134a.148.148,0,0,0,.058.019h.077a1.6,1.6,0,0,0,1.288-.923,5.357,5.357,0,0,0,.73-2.461,5.337,5.337,0,0,0-.327-2.518q-.442-1.057-1.23-1.134m-.615,1.884q.308-.615.692-.6.423.038.654.711A3.755,3.755,0,0,1,51.1-36.2a3.807,3.807,0,0,1-.384,1.557q-.308.577-.673.577h-.077q-.384-.077-.6-.73a3.877,3.877,0,0,1-.192-1.6A3.971,3.971,0,0,1,49.581-37.931Z" transform="translate(-5.305 51.354)" fill="url(#linear-gradient-5)"/>
        <path id="Path_1581" data-name="Path 1581" d="M51.8-36.65q-.384-.019-.692.6a3.972,3.972,0,0,0-.4,1.538,3.877,3.877,0,0,0,.192,1.6q.211.654.6.73h.077q.365,0,.673-.577a3.806,3.806,0,0,0,.384-1.557,3.755,3.755,0,0,0-.173-1.615Q52.226-36.611,51.8-36.65Z" transform="translate(-6.835 49.476)" fill="url(#linear-gradient-6)"/>
        <path id="Path_1582" data-name="Path 1582" d="M-24.31-26.35q-.5.1-1,.173a16.394,16.394,0,0,1-3.633.058q-.615-.077-1.23-.173-.4-.077-.769-.154a1.519,1.519,0,0,0-.231-.058q-.4-.1-.807-.211a5.586,5.586,0,0,0-.308,1.884q0,.231.019.461a1.283,1.283,0,0,1-.269,1.115.126.126,0,0,0-.058.058,1.443,1.443,0,0,0-.154.135,7.452,7.452,0,0,1-6.9,1.634.171.171,0,0,1-.077-.019,1.354,1.354,0,0,1-.846-1.019,11.014,11.014,0,0,1-.346-2.268,10.992,10.992,0,0,0-1.269,1.384,11.965,11.965,0,0,0-.846,1.173,18.015,18.015,0,0,0-2.6,11.4,22.851,22.851,0,0,0,2.98,9.65q4.287,7.574,9.881,11.169l.25.173q.308.192.634.384A9.218,9.218,0,0,0-28.6,11.635,8.409,8.409,0,0,0-22.35,9.963q5.729-3.922,10.477-12.687a19.515,19.515,0,0,0,2.364-7.958,18.015,18.015,0,0,0-2.6-11.4,12.791,12.791,0,0,0-1.519-1.961,8.806,8.806,0,0,0-.692-.692,9.054,9.054,0,0,0-2.6-1.672,8.745,8.745,0,0,0-3.383-.654,9.2,9.2,0,0,0-2.076.231,5.8,5.8,0,0,0-.673.192,1.777,1.777,0,0,0-.211.058.148.148,0,0,0-.058.019.078.078,0,0,0-.058.019Q-23.83-26.427-24.31-26.35Z" transform="translate(50.324 43.79)" fill="url(#linear-gradient-7)"/>
        <path id="Path_1583" data-name="Path 1583" d="M30.861-39.8q-.6.135-1.192.327a.171.171,0,0,0-.077.019,9.645,9.645,0,0,0-1.019.365,12.6,12.6,0,0,1,.6,1.557,12.687,12.687,0,0,1,.5,2.461,14.131,14.131,0,0,1,.077,1.48v.481q-.019.231-.019.481a8.809,8.809,0,0,1,.692.692q.269-.135.557-.25a.744.744,0,0,1,.1-.038h.038a13.716,13.716,0,0,1,3.326-.884,15.858,15.858,0,0,1,3.576-.019q-.711-.115-1.115-1.134a5.217,5.217,0,0,1-.346-2.518,5.509,5.509,0,0,1,.73-2.422q.6-.98,1.326-.942A19.687,19.687,0,0,0,30.861-39.8Z" transform="translate(6.284 51.688)" fill="url(#linear-gradient-8)"/>
        <path id="Path_1584" data-name="Path 1584" d="M-15.6-55.146a12.3,12.3,0,0,0-2.018-.634,14.319,14.319,0,0,0-3.095-.327,14.056,14.056,0,0,0-3.076.327,7.135,7.135,0,0,0-.75.192,12.7,12.7,0,0,0-5.421,3.153l-.192.192a14.483,14.483,0,0,0-1.5,1.749,12.339,12.339,0,0,0-2.384,6.94q-.019.308-.019.634,0,.481.038.961a11.015,11.015,0,0,0,.346,2.268,1.354,1.354,0,0,0,.846,1.019.171.171,0,0,0,.077.019,7.452,7.452,0,0,0,6.9-1.634,1.443,1.443,0,0,1,.154-.135.126.126,0,0,1,.058-.058,1.283,1.283,0,0,0,.269-1.115q-.019-.231-.019-.461a5.586,5.586,0,0,1,.308-1.884,4.654,4.654,0,0,1,.654-1.25q.173-.25.384-.5a4.4,4.4,0,0,1,1.98-1.307,4.173,4.173,0,0,1,1.288-.192,4.358,4.358,0,0,1,1.307.192,4.432,4.432,0,0,1,1.942,1.307,6.128,6.128,0,0,1,.654.865,5.347,5.347,0,0,1,.461,1.038.148.148,0,0,1,.058-.019,1.777,1.777,0,0,1,.211-.058,5.8,5.8,0,0,1,.673-.192,9.2,9.2,0,0,1,2.076-.231A8.745,8.745,0,0,1-10-43.631a9.054,9.054,0,0,1,2.6,1.672q0-.25.019-.481v-.481a14.131,14.131,0,0,0-.077-1.48,12.687,12.687,0,0,0-.5-2.461,12.6,12.6,0,0,0-.6-1.557,11.592,11.592,0,0,0-.6-1.115q-.25-.423-.538-.827-.308.654-.673,1.307-.077.135-.154.288a1.859,1.859,0,0,1-1.211.865h-.019l-.442.038A5.7,5.7,0,0,1-16.789-50.3q-.173-.211-.327-.423a1.165,1.165,0,0,1,.019-1.269v-.019l.019-.019.038-.077A14.326,14.326,0,0,0-15.6-55.146Z" transform="translate(43.418 61.013)" fill="url(#linear-gradient-9)"/>
        <path id="Path_1585" data-name="Path 1585" d="M-2.775-62.928a3.553,3.553,0,0,1,0-.9,7.961,7.961,0,0,1,.519-2.211q-2.537-3.21-5.9-1.557a8.512,8.512,0,0,0-.865,3.787,5.152,5.152,0,0,0,.077.884,14.057,14.057,0,0,1,3.076-.327A14.32,14.32,0,0,1-2.775-62.928Z" transform="translate(28.578 68.161)" fill="url(#linear-gradient-10)"/>
        <path id="Path_1586" data-name="Path 1586" d="M10.411-61.034q-.923-.6-.884-1.307a15.91,15.91,0,0,1-.442,2.614l-.269.884a14.326,14.326,0,0,1-1.442,3.037l-.038.077-.019.019v.019A1.165,1.165,0,0,0,7.3-54.421q.154.211.327.423a5.7,5.7,0,0,0,4.594,2.441l.442-.038h.019a1.859,1.859,0,0,0,1.211-.865q.077-.154.154-.288.365-.654.673-1.307a20.112,20.112,0,0,0,1.307-3.825,19.741,19.741,0,0,0,.5-3.71q-.1.73-1.173,1.115a5.116,5.116,0,0,1-2.518.25A5.215,5.215,0,0,1,10.411-61.034Z" transform="translate(19.005 64.71)" fill="url(#linear-gradient-11)"/>
        <path id="Path_1587" data-name="Path 1587" d="M13.033-64.617v.058q-.038.711.884,1.307a5.215,5.215,0,0,0,2.422.807,5.116,5.116,0,0,0,2.518-.25q1.077-.384,1.173-1.115v-.038q.077-.75-.884-1.384a5.383,5.383,0,0,0-2.4-.807,5.539,5.539,0,0,0-2.537.25q-1.019.4-1.153,1.1a.171.171,0,0,0-.019.077m1.153,0q.1-.461.788-.73a3.8,3.8,0,0,1,1.711-.173,3.5,3.5,0,0,1,1.615.557,1.054,1.054,0,0,1,.6.923v.019q-.077.5-.788.75A3.47,3.47,0,0,1,16.4-63.1a3.351,3.351,0,0,1-1.615-.538q-.634-.4-.6-.884v-.1Z" transform="translate(15.499 66.928)" fill="url(#linear-gradient-12)"/>
        <path id="Path_1588" data-name="Path 1588" d="M16.654-64.566q-.692.269-.788.73v.1q-.038.481.6.884a3.351,3.351,0,0,0,1.615.538,3.47,3.47,0,0,0,1.711-.173q.711-.25.788-.75v-.019a1.054,1.054,0,0,0-.6-.923,3.5,3.5,0,0,0-1.615-.557A3.8,3.8,0,0,0,16.654-64.566Z" transform="translate(13.82 66.147)" fill="url(#linear-gradient-13)"/>
      </g>
    </g>
    <g id="Group_2042" data-name="Group 2042" transform="translate(8.012 10.058)">
      <g id="Group_2041" data-name="Group 2041" transform="translate(0 0)">
        <path id="Path_1589" data-name="Path 1589" d="M-34.794-31.166a1.354,1.354,0,0,1-.846-1.019,11.015,11.015,0,0,1-.346-2.268,10.993,10.993,0,0,0-1.269,1.384,11.755,11.755,0,0,0,.308,1.653,1.524,1.524,0,0,0,.942,1.134.171.171,0,0,0,.077.019q4,1.115,7.766-1.942a.124.124,0,0,1,.058-.077,1.637,1.637,0,0,0,.288-.5,7.452,7.452,0,0,1-6.9,1.634.171.171,0,0,1-.077-.019m-1.211-4.883a12.339,12.339,0,0,1,2.384-6.94q-.692-.269-1.384-.461a10.418,10.418,0,0,0-2.364,6.9,13.411,13.411,0,0,1,1.365.5m26.49-5.229a9.645,9.645,0,0,0-1.019.365,12.6,12.6,0,0,1,.6,1.557,13.089,13.089,0,0,1,.5,2.461q-3.806-2.191-9.4-.423a6.127,6.127,0,0,0-.654-.865,4.212,4.212,0,0,0-3.249-1.5,4.269,4.269,0,0,0-3.268,1.5q-.211.25-.384.5a4.654,4.654,0,0,0-.654,1.25q.4.115.807.211a1.52,1.52,0,0,1,.231.058,4.065,4.065,0,0,1,.365-.654q.154-.192.308-.4a3.433,3.433,0,0,1,2.614-1.192,3.374,3.374,0,0,1,2.6,1.192q.154.173.288.346a12.937,12.937,0,0,1-3.768.846,9.923,9.923,0,0,1-1.634.019q.615.1,1.23.173a16.538,16.538,0,0,0,4.633-.231q.481-.077.942-.192a.078.078,0,0,1,.058-.019.078.078,0,0,1,.058-.019,1.779,1.779,0,0,1,.211-.058,5.8,5.8,0,0,1,.673-.192,9.2,9.2,0,0,1,2.076-.231,8.745,8.745,0,0,1,3.383.654,9.054,9.054,0,0,1,2.6,1.672,8.808,8.808,0,0,1,.692.692q.346-.154.692-.288A1.383,1.383,0,0,0-8.3-35.241,7.575,7.575,0,0,0-9.516-41.278Z" transform="translate(37.379 43.45)" fill="rgba(0,0,0,0.14)"/>
      </g>
    </g>
    <g id="Group_2044" data-name="Group 2044" transform="translate(19.935 17.248)">
      <g id="Group_2043" data-name="Group 2043" transform="translate(0)">
        <path id="Path_1590" data-name="Path 1590" d="M-1.066-25.786q-.461.115-.942.192-.5.1-1,.173a15.654,15.654,0,0,1-3,.1Q-9.64-21.9-6.929-14.445-6.929-23.933-1.066-25.786Z" transform="translate(8.088 25.786)" fill="rgba(0,0,0,0.14)"/>
      </g>
    </g>
    <g id="Group_2047" data-name="Group 2047" transform="translate(12.702 32.844)">
      <g id="Group_2046" data-name="Group 2046" transform="translate(0 0)">
        <g id="Group_2045" data-name="Group 2045">
          <path id="Path_1591" data-name="Path 1591" d="M-2.031-5.87a5.814,5.814,0,0,1-.461-.519.734.734,0,0,0-.538-.269.763.763,0,0,0-.557.192.674.674,0,0,0-.269.519.763.763,0,0,0,.192.557,6.765,6.765,0,0,0,.5.557.763.763,0,0,0,.538.25.7.7,0,0,0,.538-.192.813.813,0,0,0,.25-.538.728.728,0,0,0-.192-.557m-7.4-18.762a.736.736,0,0,0-.288.519A22.385,22.385,0,0,0-4.972-7a.807.807,0,0,0,.519.308A.733.733,0,0,0-3.9-6.851a.8.8,0,0,0,.308-.5.764.764,0,0,0-.154-.577A20.9,20.9,0,0,1-8.2-23.9a.764.764,0,0,0-.154-.577.721.721,0,0,0-.5-.288A.7.7,0,0,0-9.432-24.632Z" transform="translate(9.941 24.78)" fill="url(#linear-gradient-14)"/>
        </g>
      </g>
    </g>
    <g id="Group_2050" data-name="Group 2050" transform="translate(10.501 5.771)">
      <g id="Group_2049" data-name="Group 2049" transform="translate(0 0)">
        <g id="Group_2048" data-name="Group 2048">
          <path id="Path_1592" data-name="Path 1592" d="M-14.25-6.428a.7.7,0,0,0-.538.231.7.7,0,0,0-.231.538q0,.423.019.846a6.907,6.907,0,0,0,.1.884.721.721,0,0,0,.288.5.764.764,0,0,0,.577.154.8.8,0,0,0,.5-.308.733.733,0,0,0,.154-.557q-.058-.384-.077-.75-.019-.384-.019-.769a.729.729,0,0,0-.211-.538.759.759,0,0,0-.557-.231M-3-17.385a.76.76,0,0,0-.557-.231,12.025,12.025,0,0,0-2.576.269h-.019a4.867,4.867,0,0,0-.654.192h.019a10.774,10.774,0,0,0-4.71,2.884l-.154.154a.017.017,0,0,0-.019.019,11.469,11.469,0,0,0-3.133,6.19.673.673,0,0,0,.135.557.715.715,0,0,0,.5.327.778.778,0,0,0,.557-.135.772.772,0,0,0,.327-.5,10.041,10.041,0,0,1,2.73-5.383v.019l.154-.154v-.019a9.425,9.425,0,0,1,4.056-2.48.017.017,0,0,1,.019-.019q.25-.077.538-.154h-.019a10.533,10.533,0,0,1,2.249-.231A.8.8,0,0,0-3-16.29a.8.8,0,0,0,.211-.557A.729.729,0,0,0-3-17.385Z" transform="translate(15.019 17.616)" fill="url(#linear-gradient-15)"/>
        </g>
      </g>
    </g>
    <g id="Group_2053" data-name="Group 2053" transform="translate(33.188 19.456)">
      <g id="Group_2052" data-name="Group 2052">
        <g id="Group_2051" data-name="Group 2051">
          <path id="Path_1593" data-name="Path 1593" d="M25.338-20.36a.7.7,0,0,1,.5.252q5.6,6.357,4.3,15.446a.779.779,0,0,1-.3.495A.814.814,0,0,1,29.285-4a.764.764,0,0,1-.512-.228.626.626,0,0,1-.15-.518q1.23-8.486-3.991-14.436a.626.626,0,0,1-.15-.518.7.7,0,0,1,.291-.47A.782.782,0,0,1,25.338-20.36Z" transform="translate(-24.474 20.362)" fill="url(#linear-gradient-16)"/>
        </g>
      </g>
    </g>
  </g>
</svg>
