<svg id="Group_19133" data-name="Group 19133" xmlns="http://www.w3.org/2000/svg" xmlns:xlink="http://www.w3.org/1999/xlink" width="15.069" height="18.699" viewBox="0 0 15.069 18.699">
  <defs>
    <clipPath id="clip-path">
      <rect id="Rectangle_2572" data-name="Rectangle 2572" width="15.069" height="18.699" fill="#fff"/>
    </clipPath>
  </defs>
  <g id="Group_19130" data-name="Group 19130" clip-path="url(#clip-path)">
    <path id="Path_20915" data-name="Path 20915" d="M115.474,3.533c-.04.189-.072.38-.123.565a3.138,3.138,0,0,1-.813,1.405c-1.608,1.612-3.2,3.236-4.834,4.826a3.124,3.124,0,0,1-3.505.687c-.061-.023-.118-.057-.2-.1.328-.329.642-.648.963-.961a.209.209,0,0,1,.149-.031,2.045,2.045,0,0,0,1.752-.671c1.544-1.564,3.105-3.111,4.657-4.667a1.869,1.869,0,0,0,.038-2.668,1.85,1.85,0,0,0-2.638,0c-.871.86-1.732,1.73-2.6,2.595q-1.1,1.1-2.207,2.21a1.88,1.88,0,0,0-.562,1.645.218.218,0,0,1-.048.16c-.3.315-.614.624-.972.985a8.026,8.026,0,0,1-.269-.937,3.138,3.138,0,0,1,.911-2.837c1.6-1.607,3.19-3.216,4.806-4.8A3.06,3.06,0,0,1,113.27.187a3.121,3.121,0,0,1,2.16,2.532c.015.076.03.153.045.229Z" transform="translate(-100.406 0)" fill="#fff"/>
    <path id="Path_20916" data-name="Path 20916" d="M3.087,214.045a8.023,8.023,0,0,1-1.056-.253,3.19,3.19,0,0,1-2.018-3.283,3.058,3.058,0,0,1,.881-1.934c1.626-1.637,3.244-3.282,4.9-4.891a3.111,3.111,0,0,1,3.445-.671c.068.024.131.06.213.1-.037.044-.063.082-.094.114-.18.182-.374.351-.538.546a.933.933,0,0,1-.878.386,1.564,1.564,0,0,0-1.237.529c-1.62,1.617-3.243,3.231-4.851,4.859A1.784,1.784,0,0,0,1.4,211.4a1.729,1.729,0,0,0,1.4,1.266,1.8,1.8,0,0,0,1.694-.5q2.423-2.406,4.83-4.829a1.831,1.831,0,0,0,.539-1.615.218.218,0,0,1,.042-.161c.322-.331.651-.656.993-1a2.787,2.787,0,0,1,.332,1.118,3.264,3.264,0,0,1-1.021,2.7q-2.3,2.284-4.583,4.586a3.294,3.294,0,0,1-2.141,1.05.52.52,0,0,0-.1.03Z" transform="translate(0 -195.346)" fill="#fff"/>
  </g>
</svg>
