<svg xmlns="http://www.w3.org/2000/svg" xmlns:xlink="http://www.w3.org/1999/xlink" width="334.121" height="252.508" viewBox="0 0 334.121 252.508">
  <defs>
    <linearGradient id="linear-gradient" x1="1.006" y1="-0.258" x2="0.368" y2="0.787" gradientUnits="objectBoundingBox">
      <stop offset="0.173" stop-color="#97152d"/>
      <stop offset="0.714" stop-color="#ec2e51"/>
      <stop offset="1" stop-color="#f34565"/>
    </linearGradient>
    <linearGradient id="linear-gradient-2" x1="0.046" y1="0.235" x2="0.945" y2="0.831" xlink:href="#linear-gradient"/>
    <linearGradient id="linear-gradient-3" x1="0.834" y1="0.439" x2="0.24" y2="0.802" gradientUnits="objectBoundingBox">
      <stop offset="0" stop-color="#fff" stop-opacity="0.8"/>
      <stop offset="1" stop-color="#fff" stop-opacity="0"/>
    </linearGradient>
  </defs>
  <g id="Q3" transform="translate(-21 -171.089)">
    <g id="Q3_" data-name="Q3 ">
      <g id="Group_17728" data-name="Group 17728" transform="translate(52.42 182.69)">
        <path id="Path_2" data-name="Path 2" d="M2121.109,2144.3q-2.382-1.55-4.635-3.3c-12.152-9.47-18.369-24.351-28.815-35.456-10.223-10.866-21.966-21.4-34.519-29.479-26.312-16.926-57.238-23.019-85.765-15.03-30.476,8.537-56.691,31.281-69.95,60.067a114.588,114.588,0,0,0-1.089,91.921c11.356,26.444,34.252,51.475,61.88,60.8,21.021,7.1,43.255,4.7,64.133.572,28.9-5.72,56.214-11.679,86.615-8.19,18.758,2.153,36.082,6.159,54.079.991,16.725-4.8,30.8-18.46,38.926-33.515a68.973,68.973,0,0,0,6.206-49.519c-3.3-12.862-11.924-26.063-24.727-29.646-8.481-2.373-17.094-.138-25.67.22A63.3,63.3,0,0,1,2121.109,2144.3Z" transform="translate(-1796.846 -2165.113) rotate(3)" fill="#84a4fc" opacity="0.12"/>
        <path id="Path_3" data-name="Path 3" d="M1953.947,2122.454q1.782-1.159,3.467-2.47c9.091-7.085,13.742-18.217,21.557-26.525a141.836,141.836,0,0,1,25.823-22.053c19.685-12.663,42.82-17.22,64.161-11.244,22.8,6.387,42.411,23.4,52.331,44.936a85.727,85.727,0,0,1,.814,68.767c-8.5,19.783-25.625,38.508-46.292,45.488-15.726,5.31-32.36,3.519-47.978.428-21.617-4.278-42.054-8.737-64.8-6.126-14.033,1.611-26.993,4.607-40.456.742-12.512-3.594-23.039-13.81-29.121-25.073a51.6,51.6,0,0,1-4.643-37.045c2.468-9.622,8.92-19.5,18.5-22.178,6.345-1.775,12.788-.1,19.2.165A47.35,47.35,0,0,0,1953.947,2122.454Z" transform="translate(-1895.438 -1981.831)" fill="#fff" opacity="0.4"/>
        <path id="Path_35799" data-name="Path 35799" d="M1957.442,2125.854q1.875-1.22,3.649-2.6c9.567-7.456,14.462-19.172,22.686-27.915a149.25,149.25,0,0,1,27.177-23.208c20.716-13.326,45.063-18.123,67.523-11.833,23.993,6.722,44.633,24.628,55.073,47.291a90.22,90.22,0,0,1,.857,72.371c-8.941,20.819-26.967,40.526-48.718,47.871-16.55,5.588-34.055,3.7-50.492.45-22.75-4.5-44.258-9.195-68.192-6.447-14.768,1.7-28.408,4.849-42.576.78-13.168-3.782-24.246-14.533-30.647-26.386a54.3,54.3,0,0,1-4.886-38.987c2.6-10.126,9.388-20.52,19.468-23.34,6.677-1.869,13.458-.108,20.21.173A49.829,49.829,0,0,0,1957.442,2125.854Z" transform="translate(-1457.678 -2346.061) rotate(10)" fill="#e6edfe" opacity="0.304" style="mix-blend-mode: multiply;isolation: isolate"/>
      </g>
    </g>
    <g id="Group_117388" data-name="Group 117388" transform="translate(21.56 -14)">
      <path id="Path_29047" data-name="Path 29047" d="M-34.98.264S67.051-.267,70.8.264c7.539,1.071,18.25,3.643,21.073,17.754,3.919,19.594-11.755,26.56-18.721,27.43-7.459.932-23.513-2.177-23.513-20.9" transform="translate(115.1 309.822) rotate(180)" fill="none" stroke="#fff" stroke-linecap="round" stroke-miterlimit="10" stroke-width="8" opacity="0.552"/>
      <path id="Path_29116" data-name="Path 29116" d="M0,45.427s97.093.436,100.838-.1c7.539-1.071,18.25-3.643,21.073-17.754C125.83,7.983,110.154,1.017,103.188.147c-7.457-.932-23.511,2.176-23.511,20.9" transform="translate(179.807 369.885) rotate(180)" fill="none" stroke="#fff" stroke-linecap="round" stroke-miterlimit="10" stroke-width="8" opacity="0.552"/>
      <line id="Line_646" data-name="Line 646" x2="40.802" transform="translate(125.456 294.228) rotate(180)" fill="none" stroke="#fff" stroke-linecap="round" stroke-miterlimit="10" stroke-width="8" opacity="0.553"/>
    </g>
    <g id="Group_25804" data-name="Group 25804" transform="translate(8771.472 15241.21)">
      <path id="Path_29049" data-name="Path 29049" d="M47.329,47.51,35.534,55.576c-7.076,4.84-17.148,2.292-22.383-5.662L3.121,32.312C-2.114,24.359-.606,13.891,6.469,9.052l9.651-6.6C23.2-2.387,33.269.161,38.5,8.114L50.679,24.251C55.912,32.2,54.406,42.67,47.329,47.51Z" transform="translate(-8670.885 -15022.447) rotate(-9)" fill="#fff" opacity="0.467"/>
      <path id="Path_29039" data-name="Path 29039" d="M580.719-1067.422s2.484-41.314,41.2-39.785c35.529,1.4,27.971,45.49,71.327,45.856,37.78.32,59.242-73.132-13.386-85.138s-104.2,52.756-138.607,16.328" transform="translate(-9163.483 -13846.646)" fill="none" stroke="#fc98b3" stroke-miterlimit="10" stroke-width="5" opacity="0.399"/>
      <path id="Path_29040" data-name="Path 29040" d="M629-994.622H522.423c-6.833,0-12.423-6.493-12.423-14.428l11.363-62.521c0-7.936,5.591-14.428,12.423-14.428H618.67c6.833,0,12.423,6.493,12.423,14.428l10.327,62.521C641.42-1001.115,635.829-994.622,629-994.622Z" transform="translate(-9159.179 -13829.991)" fill="url(#linear-gradient)"/>
      <path id="Path_29041" data-name="Path 29041" d="M624.885-998.649H526.321c-6.776,0-12.321-6.2-12.321-13.78l8.214-59.712c0-7.1,4.873-13,11.066-13.708A320,320,0,0,1,575.6-1089c25.668,0,42.672,3.091,42.957,3.114,6.379.5,11.459,6.491,11.459,13.746l7.187,59.712C637.206-1004.849,631.662-998.649,624.885-998.649Z" transform="translate(-9159.071 -13830.071)" fill="url(#linear-gradient-2)"/>
      <path id="Path_29042" data-name="Path 29042" d="M604.79-1030.824s-19.508-.961-28.235-.961-28.235.961-28.235.961c-6.776,0-12.321-5.19-12.321-11.534l1.027-20.185A11.68,11.68,0,0,1,545.5-1073.5c.448-.14,9.987-2.5,31.059-2.5,21.048,0,29.17,2.068,29.4,2.107,5.738.977,10.125,5.707,10.125,11.349l1.027,20.185C617.111-1036.015,611.566-1030.824,604.79-1030.824Z" transform="translate(-9158.484 -13829.724)" fill="#ffa5bf" opacity="0.902"/>
      <circle id="Ellipse_802" data-name="Ellipse 802" cx="7.7" cy="7.7" r="7.7" transform="translate(-8591.169 -14855.44)" fill="#f5f7ff" opacity="0.9"/>
      <path id="Path_29044" data-name="Path 29044" d="M40.085,40.239,30.1,47.071c-5.993,4.1-14.523,1.941-18.957-4.8l-8.5-14.908c-4.434-6.736-3.157-15.6,2.836-19.7l8.174-5.589c5.993-4.1,14.523-1.941,18.957,4.8L42.923,20.54C47.355,27.276,46.08,36.14,40.085,40.239Z" transform="translate(-8666.396 -15020.091) rotate(-9)" fill="#fb98b3" opacity="0.401"/>
      <path id="Path_29045" data-name="Path 29045" d="M44.1,43.424,33.106,50.8c-6.592,4.424-15.977,2.1-20.853-5.174L2.908,29.532C-1.97,22.263-.565,12.7,6.028,8.273l8.991-6.031C21.611-2.182,31,.146,35.872,7.416L47.216,22.166C52.093,29.434,50.689,39,44.1,43.424Z" transform="translate(-8669.374 -15019.267) rotate(-9)" fill="none" stroke="#fc98b4" stroke-miterlimit="10" stroke-width="5" opacity="0.396"/>
      <g id="Group_2047" data-name="Group 2047" transform="matrix(0.755, 0.656, -0.656, 0.755, -8531.448, -14865.958)">
        <g id="Group_2046" data-name="Group 2046" transform="translate(0 0)">
          <g id="Group_2045" data-name="Group 2045">
            <path id="Path_1591" data-name="Path 1591" d="M.405,1.949a8.216,8.216,0,0,1,.767.617,1.04,1.04,0,0,0,.816.249,1.08,1.08,0,0,0,.734-.4.955.955,0,0,0,.254-.788,1.083,1.083,0,0,0-.4-.734,9.652,9.652,0,0,0-.83-.661A1.079,1.079,0,0,0,.935.01a.994.994,0,0,0-.707.4,1.152,1.152,0,0,0-.222.811,1.032,1.032,0,0,0,.4.734M15.168,26.421a1.043,1.043,0,0,0,.283-.793Q15.064,12.544,4.782,2.841a1.139,1.139,0,0,0-.8-.308,1.039,1.039,0,0,0-.743.346,1.129,1.129,0,0,0-.312.771,1.08,1.08,0,0,0,.351.769q9.618,9.042,10,21.271a1.084,1.084,0,0,0,.351.77,1.022,1.022,0,0,0,.767.285A1,1,0,0,0,15.168,26.421Z" fill="url(#linear-gradient-3)"/>
          </g>
        </g>
      </g>
    </g>
  </g>
</svg>
