<svg xmlns="http://www.w3.org/2000/svg" xmlns:xlink="http://www.w3.org/1999/xlink" width="334.121" height="252.508" viewBox="0 0 334.121 252.508">
  <defs>
    <linearGradient id="linear-gradient" x1="0.131" y1="0.839" x2="0.761" y2="0.273" gradientUnits="objectBoundingBox">
      <stop offset="0.173" stop-color="#9b122a"/>
      <stop offset="0.714" stop-color="#f12a4d"/>
      <stop offset="1" stop-color="#f84262"/>
    </linearGradient>
    <linearGradient id="linear-gradient-2" x1="0.15" y1="0.819" x2="0.73" y2="0.292" gradientUnits="objectBoundingBox">
      <stop offset="0" stop-color="#fff" stop-opacity="0.8"/>
      <stop offset="1" stop-color="#fff" stop-opacity="0"/>
    </linearGradient>
    <linearGradient id="linear-gradient-3" x1="0.143" y1="0.835" x2="0.592" y2="0.406" xlink:href="#linear-gradient"/>
    <linearGradient id="linear-gradient-4" x1="0" y1="0.5" x2="1" y2="0.5" xlink:href="#linear-gradient"/>
    <linearGradient id="linear-gradient-5" x1="-0.202" y1="1.433" x2="0.921" y2="-0.085" xlink:href="#linear-gradient"/>
    <linearGradient id="linear-gradient-6" x1="0.683" y1="-7.04" x2="0.341" y2="-6.411" xlink:href="#linear-gradient-2"/>
    <linearGradient id="linear-gradient-7" x1="0.751" y1="0.888" x2="-0.066" y2="0.025" xlink:href="#linear-gradient-2"/>
  </defs>
  <g id="Q1" transform="translate(-20.542 -171.089)">
    <g id="Group_17728" data-name="Group 17728" transform="translate(52.42 182.69)">
      <path id="Path_2" data-name="Path 2" d="M2121.109,2144.3q-2.382-1.55-4.635-3.3c-12.152-9.47-18.369-24.351-28.815-35.456-10.223-10.866-21.966-21.4-34.519-29.479-26.312-16.926-57.238-23.019-85.765-15.03-30.476,8.537-56.691,31.281-69.95,60.067a114.588,114.588,0,0,0-1.089,91.921c11.356,26.444,34.252,51.475,61.88,60.8,21.021,7.1,43.255,4.7,64.133.572,28.9-5.72,56.214-11.679,86.615-8.19,18.758,2.153,36.082,6.159,54.079.991,16.725-4.8,30.8-18.46,38.926-33.515a68.973,68.973,0,0,0,6.206-49.519c-3.3-12.862-11.924-26.063-24.727-29.646-8.481-2.373-17.094-.138-25.67.22A63.3,63.3,0,0,1,2121.109,2144.3Z" transform="translate(-1797.304 -2165.113) rotate(3)" fill="#84a4fc" opacity="0.12"/>
      <path id="Path_3" data-name="Path 3" d="M1953.947,2122.454q1.782-1.159,3.467-2.47c9.091-7.085,13.742-18.217,21.557-26.525a141.836,141.836,0,0,1,25.823-22.053c19.685-12.663,42.82-17.22,64.161-11.244,22.8,6.387,42.411,23.4,52.331,44.936a85.727,85.727,0,0,1,.814,68.767c-8.5,19.783-25.625,38.508-46.292,45.488-15.726,5.31-32.36,3.519-47.978.428-21.617-4.278-42.054-8.737-64.8-6.126-14.033,1.611-26.993,4.607-40.456.742-12.512-3.594-23.039-13.81-29.121-25.073a51.6,51.6,0,0,1-4.643-37.045c2.468-9.622,8.92-19.5,18.5-22.178,6.345-1.775,12.788-.1,19.2.165A47.35,47.35,0,0,0,1953.947,2122.454Z" transform="translate(-1895.438 -1981.831)" fill="#fff" opacity="0.4"/>
      <path id="Path_35799" data-name="Path 35799" d="M1957.442,2125.854q1.875-1.22,3.649-2.6c9.567-7.456,14.462-19.172,22.686-27.915a149.25,149.25,0,0,1,27.177-23.208c20.716-13.326,45.063-18.123,67.523-11.833,23.993,6.722,44.633,24.628,55.073,47.291a90.22,90.22,0,0,1,.857,72.371c-8.941,20.819-26.967,40.526-48.718,47.871-16.55,5.588-34.055,3.7-50.492.45-22.75-4.5-44.258-9.195-68.192-6.447-14.768,1.7-28.408,4.849-42.576.78-13.168-3.782-24.246-14.533-30.647-26.386a54.3,54.3,0,0,1-4.886-38.987c2.6-10.126,9.388-20.52,19.468-23.34,6.677-1.869,13.458-.108,20.21.173A49.829,49.829,0,0,0,1957.442,2125.854Z" transform="translate(-1457.678 -2346.061) rotate(10)" fill="#e6edfe" opacity="0.304" style="mix-blend-mode: multiply;isolation: isolate"/>
    </g>
    <g id="Group_64802" data-name="Group 64802">
      <g id="Group_14353" data-name="Group 14353" transform="translate(5.464 90)">
        <g id="Group_1919" data-name="Group 1919" transform="translate(66.77 143.582)" opacity="0.999" style="isolation: isolate">
          <g id="Group_1918" data-name="Group 1918" transform="translate(0 0)" opacity="0.373" style="mix-blend-mode: multiply;isolation: isolate">
            <path id="Path_1451" data-name="Path 1451" d="M369.288,278.8V211.455q0-19.506-19.43-19.506H294.63q-19.43,0-19.43,19.506V278.8q0,19.506,19.43,19.506h55.229Q369.288,298.305,369.288,278.8Z" transform="translate(-275.2 -191.949)" fill="#fff"/>
          </g>
        </g>
        <g id="Group_1921" data-name="Group 1921" transform="translate(77.044 114)">
          <g id="Group_1920" data-name="Group 1920" transform="translate(-6)">
            <path id="Path_1452" data-name="Path 1452" d="M504.974,196.338a14.394,14.394,0,0,0-10.589-4.389H439.01a15.068,15.068,0,0,0,0,30.137h55.375a15.122,15.122,0,0,0,15.009-15.068A14.587,14.587,0,0,0,504.974,196.338Z" transform="translate(-424 -191.949)" fill="#fff"/>
          </g>
        </g>
        <g id="Group_1923" data-name="Group 1923" transform="translate(80.953 163.513)" opacity="0.885">
          <g id="Group_1922" data-name="Group 1922">
            <path id="Path_1453" data-name="Path 1453" d="M362.035,231.418q0-9.753-9.715-9.753H306.515q-9.715,0-9.715,9.753V277.4q0,9.753,9.715,9.753H352.32q9.715,0,9.715-9.753Z" transform="translate(-296.8 -221.665)" fill="#fdfdfd"/>
          </g>
        </g>
        <path id="Union_1" data-name="Union 1" d="M15.518,42.5q-3.662,0-3.661-3.678V30.957H3.724Q0,30.957,0,27.217V17.342Q0,13.6,3.724,13.6h8.133V3.676Q11.858,0,15.518,0H25.48q3.662,0,3.66,3.676V13.6h9.454q3.724,0,3.724,3.74v9.875q0,3.74-3.724,3.74H29.14v7.861q0,3.677-3.66,3.678Z" transform="translate(92.662 175.065)" fill="#00a8ff" opacity="0.3"/>
        <g id="Group_11956" data-name="Group 11956" transform="translate(262.202 171.891)" style="isolation: isolate">
          <g id="Group_11913" data-name="Group 11913" transform="translate(50.242 0) rotate(40)" opacity="0.664">
            <path id="Path_16294" data-name="Path 16294" d="M15.081,0A15.1,15.1,0,0,0,0,15.08v48a15.079,15.079,0,1,0,30.158,0v-48A15.1,15.1,0,0,0,15.081,0Zm0,5.8a9.289,9.289,0,0,1,9.278,9.281V35.925a36.185,36.185,0,0,1-18.559,0V15.08A9.29,9.29,0,0,1,15.081,5.8Zm0,66.565A9.291,9.291,0,0,1,5.8,63.082V41.9a41.98,41.98,0,0,0,9.281,1.061A41.95,41.95,0,0,0,24.359,41.9V63.082A9.29,9.29,0,0,1,15.081,72.364Z" transform="translate(0 0)" fill="#fff" stroke="rgba(0,0,0,0)" stroke-miterlimit="10" stroke-width="1"/>
          </g>
          <path id="Subtraction_1" data-name="Subtraction 1" d="M9.281,66.565A9.292,9.292,0,0,1,0,57.283V36.1a42.084,42.084,0,0,0,9.281,1.06A42.054,42.054,0,0,0,18.56,36.1V57.283A9.291,9.291,0,0,1,9.281,66.565ZM9.224,33.419A38.145,38.145,0,0,1,.459,32.374C.476,32.249.3,30.2,0,30.126V9.281a9.28,9.28,0,1,1,18.56,0l-.143,22.94A36.027,36.027,0,0,1,9.224,33.419Z" transform="translate(49.857 5.299) rotate(40)" fill="#fff" stroke="rgba(0,0,0,0)" stroke-miterlimit="10" stroke-width="1" opacity="0.628"/>
        </g>
        <g id="Group_11957" data-name="Group 11957" transform="translate(217.53 158.264)" style="isolation: isolate">
          <g id="Group_11913-2" data-name="Group 11913" transform="translate(50.242 0) rotate(40)" opacity="0.664">
            <path id="Path_16294-2" data-name="Path 16294" d="M15.081,0A15.1,15.1,0,0,0,0,15.08v48a15.079,15.079,0,1,0,30.158,0v-48A15.1,15.1,0,0,0,15.081,0Zm0,5.8a9.289,9.289,0,0,1,9.278,9.281V35.925a36.185,36.185,0,0,1-18.559,0V15.08A9.29,9.29,0,0,1,15.081,5.8Zm0,66.565A9.291,9.291,0,0,1,5.8,63.082V41.9a41.98,41.98,0,0,0,9.281,1.061A41.95,41.95,0,0,0,24.359,41.9V63.082A9.29,9.29,0,0,1,15.081,72.364Z" transform="translate(0 0)" fill="#fff" stroke="rgba(0,0,0,0)" stroke-miterlimit="10" stroke-width="1"/>
          </g>
          <path id="Subtraction_1-2" data-name="Subtraction 1" d="M9.281,66.565A9.292,9.292,0,0,1,0,57.283V36.1a42.084,42.084,0,0,0,9.281,1.06A42.054,42.054,0,0,0,18.56,36.1V57.283A9.291,9.291,0,0,1,9.281,66.565ZM9.224,33.419A38.145,38.145,0,0,1,.459,32.374C.476,32.249.3,30.2,0,30.126V9.281a9.28,9.28,0,1,1,18.56,0l-.143,22.94A36.027,36.027,0,0,1,9.224,33.419Z" transform="translate(49.857 5.299) rotate(40)" fill="#fff" stroke="rgba(0,0,0,0)" stroke-miterlimit="10" stroke-width="1" opacity="0.628"/>
        </g>
      </g>
      <g id="Group_11964" data-name="Group 11964" transform="translate(13.22 106.661)">
        <g id="Group_11963" data-name="Group 11963" transform="translate(118.78 167)">
          <g id="Group_11962" data-name="Group 11962" transform="translate(0 0)">
            <path id="Path_16384" data-name="Path 16384" d="M-604.2,403.509l27.622,34.648a2.684,2.684,0,0,0,3.286.733l7.315-3.614a2.683,2.683,0,0,0,.952-4.023l-25.305-33.48Z" transform="translate(687.874 -305.595)" fill="url(#linear-gradient)"/>
            <path id="Path_16385" data-name="Path 16385" d="M-604.2,403.662l27.622,34.648a2.684,2.684,0,0,0,3.286.733l7.218-3.565a2.683,2.683,0,0,0,.9-4.091l-26.56-32.879Z" transform="translate(687.874 -305.748)" opacity="0.41" fill="url(#linear-gradient-2)"/>
            <path id="Path_16386" data-name="Path 16386" d="M-644.226,391.137s-46.29-14.682-65.629-72.832a1.444,1.444,0,0,1-.056-.672l1.808-11.594c.135-1.01.788,1.842,1.28,2.735,5.987,10.849,27.657,49.624,34.76,55.515,8.274,6.862,27.687,20.979,36.748,20.51l9.062-.469,4.336,5.071S-628.217,394.321-644.226,391.137Z" transform="translate(709.928 -286.416)" fill="url(#linear-gradient-3)"/>
            <path id="Path_16387" data-name="Path 16387" d="M-707.563,301.588a1.049,1.049,0,0,1,.311-1.261c.111-.086.237-.184.376-.29,5.42-4.137,31.857-22.645,65.358-17.993a4.431,4.431,0,0,1,3.176,2.06l23.434,38.172s20.141,30.119,6.561,48.33c0,0-11.57,12.644-27.079,9.848s-41.128-17.63-57.793-48.362C-696.9,325.306-705.735,305.663-707.563,301.588Z" transform="translate(709.454 -281.3)" fill="url(#linear-gradient-4)"/>
            <path id="Path_16388" data-name="Path 16388" d="M-616.7,368.974l-9.267-15.361a1.266,1.266,0,0,0-1.526-.532l-17.14,6.387a1.266,1.266,0,0,0-.423,2.11,34.76,34.76,0,0,0,27.413,9.312A1.269,1.269,0,0,0-616.7,368.974Z" transform="translate(696.48 -296.256)" fill="#906a7d"/>
            <path id="Path_16389" data-name="Path 16389" d="M-609.054,365.971l-8.73-14.378a1.366,1.366,0,0,1,.781-1.9l16.454-6.043a1.431,1.431,0,0,1,1.824.889c1.4,4.115,4.376,16.616-8.466,22.116A1.446,1.446,0,0,1-609.054,365.971Z" transform="translate(690.737 -294.289)" fill="#906a7d"/>
            <path id="Path_16390" data-name="Path 16390" d="M-663.322,337.469l-14.332-21.4a4.419,4.419,0,0,1,1.413-6.253c6.488-3.887,20.461-10.808,37.138-10.386,0,0,3.211-.774,9.034,8.547s9.343,14.22,9.343,14.22.523,4.872-2.528,5.417c-2.485.444-26.261,8.573-34.991,11.57A4.39,4.39,0,0,1-663.322,337.469Z" transform="translate(703.352 -285.077)" fill="url(#linear-gradient-5)"/>
            <path id="Path_16391" data-name="Path 16391" d="M-662.127,338.279l-15.339-21.685a4.419,4.419,0,0,1,1.009-6.331c6.226-4.295,17.174-9.948,35.086-10.925,0,0,4.9-1.623,10.673,7.123,6.058,9.171,8.679,13.845,8.679,13.845s2.116,4.085-.753,5.568c-2.243,1.159-25.658,10.238-34.178,13.789A4.391,4.391,0,0,1-662.127,338.279Z" transform="translate(703.347 -285.038)" fill="#f293ae"/>
          </g>
          <g id="Group_2047" data-name="Group 2047" transform="translate(43.511 74.603)" opacity="0.69">
            <g id="Group_2046" data-name="Group 2046" transform="translate(0 0)">
              <g id="Group_2045" data-name="Group 2045">
                <path id="Path_1591" data-name="Path 1591" d="M-618.7,394.162a11.617,11.617,0,0,1-1.376-.132,1.465,1.465,0,0,0-1.151.337,1.523,1.523,0,0,0-.552,1.036,1.343,1.343,0,0,0,.311,1.122,1.518,1.518,0,0,0,1.035.553,13.342,13.342,0,0,0,1.485.135,1.52,1.52,0,0,0,1.124-.365,1.4,1.4,0,0,0,.525-1.011,1.624,1.624,0,0,0-.366-1.124,1.453,1.453,0,0,0-1.036-.552m-36.227-17.335a1.467,1.467,0,0,0,.281,1.15q10.557,15.063,30.12,18.517a1.607,1.607,0,0,0,1.174-.254,1.458,1.458,0,0,0,.6-.98,1.586,1.586,0,0,0-.228-1.147,1.525,1.525,0,0,0-1.006-.633q-18.276-3.189-28.161-17.256a1.522,1.522,0,0,0-1.007-.633,1.436,1.436,0,0,0-1.121.256A1.405,1.405,0,0,0-654.926,376.827Z" transform="translate(654.948 -375.566)" fill="url(#linear-gradient-6)"/>
              </g>
            </g>
          </g>
        </g>
        <g id="Group_2046-2" data-name="Group 2046" transform="translate(158.906 240.869) rotate(-43)">
          <g id="Group_2045-2" data-name="Group 2045" transform="translate(0 0)">
            <path id="Path_1591-2" data-name="Path 1591" d="M17.858,40.851a12.76,12.76,0,0,1-1.042-1.121,1.685,1.685,0,0,0-1.215-.581,1.772,1.772,0,0,0-1.259.415,1.438,1.438,0,0,0-.608,1.121,1.605,1.605,0,0,0,.434,1.2,14.859,14.859,0,0,0,1.128,1.2,1.754,1.754,0,0,0,1.215.54,1.628,1.628,0,0,0,1.215-.415,1.726,1.726,0,0,0,.564-1.163,1.532,1.532,0,0,0-.434-1.2M1.15.319A1.574,1.574,0,0,0,.5,1.441Q-2.365,21.208,11.218,38.4a1.838,1.838,0,0,0,1.172.664,1.785,1.785,0,0,0,1.953-1.412A1.6,1.6,0,0,0,14,36.407Q1.28,20.378,3.927,1.9A1.6,1.6,0,0,0,3.58.652,1.646,1.646,0,0,0,2.452.029,1.646,1.646,0,0,0,1.15.319Z" fill="url(#linear-gradient-7)"/>
          </g>
        </g>
      </g>
    </g>
  </g>
</svg>
