<svg id="Group_25142" data-name="Group 25142" xmlns="http://www.w3.org/2000/svg" width="60" height="57.515" viewBox="0 0 60 57.515">
  <g id="Group_16618" data-name="Group 16618" transform="translate(0 0)">
    <g id="Group_16617" data-name="Group 16617" transform="translate(0 0)">
      <g id="Group_16616" data-name="Group 16616" transform="translate(0 0)">
        <path id="Path_19488" data-name="Path 19488" d="M-13844.388-1105.14s-10.933-10.44-23.227-7.938-5.037,5.682-8.478,7.938c-13.363,4.794-16.2,11.449-15.371,23.21,1.114,15.916,18.049,25.115,18.049,25.115l-12.493-36.378,9.815-3.183v-4.093l8.478-1.592,1.563-3.08Z" transform="translate(13891.594 1113.466)" fill="#e5ebfb"/>
        <g id="Group_16592" data-name="Group 16592" transform="translate(5.808 7.66)">
          <g id="Group_16591" data-name="Group 16591" transform="translate(25.761 8.239)">
            <path id="Path_19469" data-name="Path 19469" d="M1423.7,122.829h8.386a2.265,2.265,0,0,0,.4-.016.577.577,0,0,0,.069-1.124,1.4,1.4,0,0,0-.4-.037q-8.441,0-16.883,0a1.491,1.491,0,0,0-.4.033.576.576,0,0,0,.071,1.132,2.645,2.645,0,0,0,.4.013Zm-2.345,6.712h-6.08c-.563,0-.841.2-.839.588s.288.588.845.589h.037q6.025,0,12.051,0a1.686,1.686,0,0,0,.435-.033.577.577,0,0,0-.076-1.131,2.616,2.616,0,0,0-.366-.012Zm-.036,4.327h2.967c1.1,0,2.2,0,3.3,0a.588.588,0,0,0,.656-.583c0-.346-.248-.572-.651-.59-.073,0-.146,0-.22,0h-12.051a1.891,1.891,0,0,0-.4.019.578.578,0,0,0-.005,1.137,1.819,1.819,0,0,0,.4.02Zm-1.978,8.68h2.854c.5,0,1,.014,1.5-.011a.585.585,0,0,0,.6-.607.6.6,0,0,0-.6-.567,2.372,2.372,0,0,0-.256-.007h-8.124c-.583,0-.878.2-.875.6s.3.594.88.595Zm4.364-16.568h4.1c.563,0,.84-.2.837-.588s-.293-.591-.845-.591q-4.079,0-8.16,0a1.517,1.517,0,0,0-.467.056.527.527,0,0,0-.378.6.538.538,0,0,0,.489.511,2.546,2.546,0,0,0,.365.015Zm-7.1,18.538c-.5,0-1-.008-1.5,0-.411.009-.663.235-.671.571a.6.6,0,0,0,.646.6q1.517.021,3.035,0a.589.589,0,0,0,.646-.6c0-.344-.243-.569-.658-.578C1417.6,144.509,1417.1,144.518,1416.6,144.518Zm15.423-14.968h0a4.682,4.682,0,0,0-.473,0,.543.543,0,0,0-.525.551.513.513,0,0,0,.443.58,4.037,4.037,0,0,0,1.048,0,.515.515,0,0,0,.451-.606.536.536,0,0,0-.508-.525A3.375,3.375,0,0,0,1432.026,129.55Zm-.022,4.312v0c.133,0,.268.01.4,0a.574.574,0,0,0,.571-.586.567.567,0,0,0-.576-.58,6.079,6.079,0,0,0-.836,0,.577.577,0,0,0-.542.58.588.588,0,0,0,.546.577A4.071,4.071,0,0,0,1432,133.861Z" transform="translate(-1414.432 -121.651)" fill="#fff"/>
            <path id="Path_19470" data-name="Path 19470" d="M1574.663,247.977a8.494,8.494,0,0,1-.516.709q-3.832,5.1-7.663,10.2a1.16,1.16,0,0,1-.948.594c-.019.03-.04.06-.06.089a2.985,2.985,0,0,1-.745-.514c-1.192-1.543-2.358-3.106-3.52-4.671a.972.972,0,0,1,.149-1.374.99.99,0,0,1,1.426.2c.714.927,1.409,1.868,2.112,2.8.449.6.821.6,1.265.009q3.373-4.483,6.74-8.971a1.109,1.109,0,0,1,1-.563A.977.977,0,0,1,1574.663,247.977Z" transform="translate(-1547.571 -235.048)"/>
            <path id="Path_19471" data-name="Path 19471" d="M1664.427,181.632l-.006,0c0-1.776,0-3.436.005-5.059Q1664.43,179.1,1664.427,181.632Z" transform="translate(-1641.522 -171.539)"/>
            <path id="Path_19472" data-name="Path 19472" d="M1677.441,205.7v1.582c0-.076,0-.151,0-.227Q1677.44,206.377,1677.441,205.7Z" transform="translate(-1653.349 -198.001)"/>
            <path id="Path_19473" data-name="Path 19473" d="M1677.4,234.68v.243l-.005,0v0C1677.393,234.838,1677.4,234.759,1677.4,234.68Z" transform="translate(-1653.304 -224.327)"/>
            <path id="Path_19474" data-name="Path 19474" d="M1564.22,235.471c-.014.193-.032.43-.048.622a.283.283,0,0,1-.03.105,8.674,8.674,0,0,1-.7,1.278q-3.9,5.238-7.836,10.445a2.138,2.138,0,0,1-2.7.826,2.506,2.506,0,0,1-.936-.754c-1.176-1.515-2.325-3.051-3.465-4.594a2.155,2.155,0,0,1,2.713-3.242,2.925,2.925,0,0,1,.807.723c.512.639,1,1.3,1.5,1.98a.285.285,0,0,0,.455,0l0,0q1.88-2.5,3.755-5h0l2.782-3.63a.3.3,0,0,1,.035-.038,2.142,2.142,0,0,1,2.755-.2c.03.02.057.04.085.062a1.619,1.619,0,0,1,.148.128l.025.024a1.909,1.909,0,0,1,.2.238c.019.026.038.053.056.08l0,.006c.02.029.038.059.055.088s.036.06.052.092.033.061.048.093.023.046.033.07q.029.06.055.124c.049.12.094.242.136.367Z" transform="translate(-1535.789 -223.327)" fill="#f02a4c"/>
            <path id="Path_19476" data-name="Path 19476" d="M1423.754,122.829h-8.35a2.642,2.642,0,0,1-.4-.013.576.576,0,0,1-.071-1.132,1.491,1.491,0,0,1,.4-.033q8.442,0,16.883,0a1.4,1.4,0,0,1,.4.037.577.577,0,0,1-.069,1.124,2.259,2.259,0,0,1-.4.016Z" transform="translate(-1414.488 -121.651)" fill="#84a4fc"/>
            <path id="Path_19477" data-name="Path 19477" d="M1421.367,207.784h6.007a2.614,2.614,0,0,1,.365.012.577.577,0,0,1,.076,1.132,1.687,1.687,0,0,1-.435.033q-6.026,0-12.051,0h-.036c-.557,0-.843-.2-.845-.589s.276-.588.838-.588Z" transform="translate(-1414.447 -199.894)" fill="#84a4fc"/>
            <path id="Path_19478" data-name="Path 19478" d="M1421.376,243.343h-6.007a1.811,1.811,0,0,1-.4-.02.578.578,0,0,1,.005-1.137,1.9,1.9,0,0,1,.4-.019h12.051c.073,0,.147,0,.22,0,.4.018.653.245.651.59a.587.587,0,0,1-.656.583c-1.1.007-2.2,0-3.3,0Z" transform="translate(-1414.492 -231.126)" fill="#84a4fc"/>
            <path id="Path_19479" data-name="Path 19479" d="M1419.341,337.969h-4.026c-.581,0-.878-.2-.88-.595s.292-.6.875-.6h8.124a2.357,2.357,0,0,1,.256.007.6.6,0,0,1,.6.567.585.585,0,0,1-.6.607c-.5.025-1,.01-1.5.011Z" transform="translate(-1414.435 -317.071)" fill="#84a4fc"/>
            <path id="Path_19480" data-name="Path 19480" d="M1466.851,157.214h-4.061a2.549,2.549,0,0,1-.365-.015.538.538,0,0,1-.489-.511.526.526,0,0,1,.378-.6,1.518,1.518,0,0,1,.467-.056q4.08,0,8.16,0c.552,0,.842.2.845.591s-.274.588-.837.588Z" transform="translate(-1457.581 -152.885)" fill="#84a4fc"/>
            <path id="Path_19481" data-name="Path 19481" d="M1416.6,371.268c.5,0,1-.009,1.5,0,.414.01.655.234.658.578a.589.589,0,0,1-.646.6q-1.517.02-3.035,0a.6.6,0,0,1-.646-.6c.008-.336.26-.562.671-.571C1415.6,371.26,1416.1,371.268,1416.6,371.268Z" transform="translate(-1414.432 -348.4)" fill="#84a4fc"/>
            <path id="Path_19482" data-name="Path 19482" d="M1596.6,207.823a3.379,3.379,0,0,1,.436,0,.536.536,0,0,1,.509.525.516.516,0,0,1-.451.606,4.041,4.041,0,0,1-1.049,0,.513.513,0,0,1-.443-.58.543.543,0,0,1,.525-.551,4.665,4.665,0,0,1,.472,0Z" transform="translate(-1579.006 -199.923)" fill="#84a4fc"/>
            <path id="Path_19483" data-name="Path 19483" d="M1596.523,243.29a4.073,4.073,0,0,1-.436,0,.587.587,0,0,1-.546-.578.577.577,0,0,1,.542-.58,6.076,6.076,0,0,1,.836,0,.568.568,0,0,1,.576.58.574.574,0,0,1-.571.586c-.133.012-.267,0-.4,0Z" transform="translate(-1578.952 -231.08)" fill="#84a4fc"/>
            <path id="Path_19484" data-name="Path 19484" d="M1574.663,247.977a8.494,8.494,0,0,1-.516.709q-3.832,5.1-7.663,10.2a1.16,1.16,0,0,1-.948.594c-.019.03-.04.06-.06.089a2.985,2.985,0,0,1-.745-.514c-1.192-1.543-2.358-3.106-3.52-4.671a.972.972,0,0,1,.149-1.374.99.99,0,0,1,1.426.2c.714.927,1.409,1.868,2.112,2.8.449.6.821.6,1.265.009q3.373-4.483,6.74-8.971a1.109,1.109,0,0,1,1-.563A.977.977,0,0,1,1574.663,247.977Z" transform="translate(-1547.571 -235.048)" fill="#fff"/>
          </g>
          <path id="Path_19485" data-name="Path 19485" d="M1210.572,76.986q0,2.393,0,4.784a2.352,2.352,0,0,1-2.541,2.586h-5.708a20.961,20.961,0,0,0-3.493.969c-7.767,2.871-15.546,5.7-23.32,8.551-1.129.413-1.707.131-2.118-1.032q-2.85-8.073-5.7-16.145c-.283-.805-.192-1.214.319-1.413.49-.19.84.083,1.121.882q2.776,7.853,5.549,15.705c.062.176.125.35.2.576l16.738-6.129c-.005-.028-.012-.054-.019-.082-1.262.217-2.524.43-3.785.651q-5.12.894-10.24,1.792a1.29,1.29,0,0,1-1.568-1.166q-1.025-6-2.032-12.012-1.4-8.332-2.806-16.666c-.263-1.566-.528-3.132-.808-4.792-2.689.937-5.34,1.863-8.037,2.805.069.217.121.392.182.565q2.591,7.342,5.183,14.682a3.017,3.017,0,0,1,.132.392.737.737,0,0,1-.474.917.7.7,0,0,1-.94-.386,3.417,3.417,0,0,1-.186-.482q-2.7-7.632-5.4-15.265c-.029-.079-.073-.151-.11-.227v-.727a2.236,2.236,0,0,1,1.378-1.033c1.608-.542,3.206-1.12,4.809-1.682,1.056-.37,2.112-.737,3.191-1.112-.144-.884-.3-1.731-.413-2.584a1.291,1.291,0,0,1,1.166-1.578c1.22-.216,2.442-.422,3.663-.636l4.808-.842.043.36a3.958,3.958,0,0,1,.409-1.932c.024-.047.048-.094.074-.141a1.545,1.545,0,0,1,.612-.6,2.687,2.687,0,0,1,1.346-.344h26.853c1.555.638,1.915,1.189,1.915,2.935V60.064q0,.726,0,1.453c0,.082,0,.162,0,.244v1.15c0,.084,0,.169-.006.252v0a.651.651,0,0,1-.632.7c-.355,0-.587-.275-.61-.715-.006-.118,0-.236,0-.353v-.166q0-2.714,0-5.428v-.524c0-3.214,0-6.319,0-9.85,0-1-.367-1.367-1.355-1.367H1181.96c-.986,0-1.336.361-1.337,1.374v5.215c0,.105.005.21,0,.314-.032.433-.274.7-.63.7a.629.629,0,0,1-.617-.7c-.013-1.28-.006-2.562-.006-3.842v-.059c-2.688.47-5.5.928-8.154,1.393,2.1,12.446,4.181,24.828,6.275,37.263l14.893-2.6.919-.16h-11.239a2.346,2.346,0,0,1-2.695-2.346,1.947,1.947,0,0,0-.051-.2l.051-1.289v-.546q0-12.274,0-24.546a3.467,3.467,0,0,1,.036-.585.6.6,0,0,1,1.168-.033,2.734,2.734,0,0,1,.05.582q0,13.1,0,26.193c0,.157,0,.314.005.471a1.036,1.036,0,0,0,.968,1.031,3.4,3.4,0,0,0,.346.008q13.023,0,26.047,0a2.179,2.179,0,0,0,.609-.068c.488-.145.723-.543.724-1.2q.006-3.059,0-6.118c0-.117,0-.235,0-.353.023-.44.255-.711.61-.715a.652.652,0,0,1,.632.7C1210.584,75.888,1210.572,76.438,1210.572,76.986Z" transform="translate(-1160.72 -44.2)" fill="#4e3495"/>
          <path id="Path_19486" data-name="Path 19486" d="M1664.471,171.24v.488c0-.163,0-.325,0-.488Z" transform="translate(-1615.806 -158.752)"/>
          <path id="Path_19487" data-name="Path 19487" d="M1677.45,224.043V222.97C1677.452,223.327,1677.457,223.685,1677.45,224.043Z" transform="translate(-1627.597 -205.381)"/>
        </g>
      </g>
    </g>
  </g>
</svg>
