<svg xmlns="http://www.w3.org/2000/svg" width="24.024" height="18.401" viewBox="0 0 29.024 18.401">
  <g id="Group_65152" data-name="Group 65152">
    <path id="Path_34490" data-name="Path 34490" d="M8.213.183a.74.74,0,0,0-.9-.055A.5.5,0,0,0,7.244.9l3.132,3.1H.646A.6.6,0,0,0,0,4.541a.6.6,0,0,0,.646.548h9.731l-3.132,3.1a.5.5,0,0,0,.065.768.753.753,0,0,0,.42.137A.626.626,0,0,0,8.213,8.9l4.068-4a.509.509,0,0,0,0-.713Z" transform="translate(12.427 13.741) rotate(180)"/>
    <path id="Path_34491" data-name="Path 34491" d="M8.915,18.4a8.933,8.933,0,0,0,8.254-5.7.609.609,0,0,0-.316-.772.578.578,0,0,0-.748.326,7.775,7.775,0,0,1-7.19,4.956A7.9,7.9,0,0,1,1.15,9.2,7.9,7.9,0,0,1,8.915,1.187,7.759,7.759,0,0,1,16.1,6.173a.577.577,0,0,0,.748.326.609.609,0,0,0,.316-.772A8.917,8.917,0,0,0,8.915,0,9.069,9.069,0,0,0,0,9.2a9.069,9.069,0,0,0,8.915,9.2Z" transform="translate(24.025 18.401) rotate(180)"/>
  </g>
</svg>
