<?xml version="1.0" encoding="utf-8"?>
<!-- Generator: Adobe Illustrator 27.7.0, SVG Export Plug-In . SVG Version: 6.00 Build 0)  -->
<svg version="1.1" id="Layer_1" xmlns="http://www.w3.org/2000/svg" xmlns:xlink="http://www.w3.org/1999/xlink" x="0px" y="0px"
	 viewBox="0 0 140 140" enable-background="new 0 0 140 140" xml:space="preserve">
<g>
	
		<ellipse id="Ellipse_891_00000114781716241324641020000005731547349837625227_" fill="#F1F1F1" cx="70" cy="70" rx="68.57" ry="68.57"/>
	<g>
		<defs>
			<ellipse id="Ellipse_891_00000020373310241510323040000013191539628809678498_" cx="70" cy="70" rx="68.57" ry="68.57"/>
		</defs>
		<clipPath id="Ellipse_891_00000161628170816446791810000001888165370951295875_">
			<use xlink:href="#Ellipse_891_00000020373310241510323040000013191539628809678498_"  overflow="visible"/>
		</clipPath>
		<g clip-path="url(#Ellipse_891_00000161628170816446791810000001888165370951295875_)">
			<path fill="#6E4438" d="M80.72,110.984c-1.545,0.767-2.854,1.584-4.389,2.125c-1.672,0.589-3.778,1.144-5.615,0.919
				c-0.854,0.14-1.814-0.154-2.689-0.388c-3.878-1.035-7.387-2.882-10.594-5.238c-2.131-1.565-4.626-3.274-6.481-5.153
				c-3.594-3.64-6.513-7.776-8.071-12.724c-0.973-3.09-1.6-6.241-1.596-9.519c0.004-3.617-0.16-7.236-0.277-10.852
				c-0.027-0.828-0.223-1.714-0.268-2.654c-0.007-0.142,0.1-0.266,0.242-0.274c0.114-0.006,0.218-0.027,0.3-0.048
				c0.109-0.028,0.668-0.191,0.997-0.586c0.098-0.117,0.237-0.309,0.323-0.466c0.055-0.099,0.076-0.147,0.109-0.213
				c0.462-0.97-0.032-1.701-0.508-2.404c-0.073-0.107-0.055-0.253,0.042-0.339c2.076-1.84,2.227-2.364,0.74-5.539
				c-0.048-0.103-0.024-0.227,0.06-0.303c0.853-0.768,1.744-1.535,2.064-2.763c0.311-1.194-0.126-2.246-0.574-3.43
				c-0.06-0.159-0.039-1.492,0.13-1.508c3.232-0.31,4.861-0.977,4.961-4.107c0.005-0.167,0.057-2.427,0.218-2.381
				c1.749,0.501,3.227,1.914,4.57,0.825c1.405-1.14,1.849-2.315,1.866-4.135c0.002-0.165,0.269-2.296,0.429-2.259
				c1.533,0.359,2.584,1.617,3.864,0.902c1.325-0.74,2.076-1.449,2.699-2.84c0.075-0.167,0.526-2.506,0.654-2.374
				c1.3,1.339,2.456,2.615,4.193,2.532c1.789-0.085,3.793-0.034,4.735-1.75c1.144-2.084,4.474,2.044,6.518,0.89
				c0.144-0.081,1.284,1.017,2.374,1.594c1.1,0.583,1.75,1.143,2.954,0.953c0.13-0.021,2.185,0.544,2.219,0.672
				c0.366,1.362,4.637,3.91,6.001,4.079c0.162,0.02,0.073,5.284,0.86,5.47c0.399,0.094,1.4,0.346,1.938,0.359
				c0.184,0.004,2.369,2.019,2.297,2.188c-1.057,2.474-0.336,3.136,1.973,4.345c0.118,0.062,1.178,4.527,1.131,4.874
				c-0.058,0.424-1.005,2.774-1.073,3.19c-0.213,1.292-1.216,0.977-0.928,1.131c0.33,0.176,0.132,0.826,0.522,0.899
				c0.063,0.012,1.007,0.672,1.044,0.725c0.484,0.686-0.002,2.663-0.116,3.48c-0.48,3.443-0.439,6.766-0.464,10.238
				c-0.025,3.473-0.687,7.237-1.624,10.586c-1.155,4.129-4.132,8.968-6.8,12.323C88.592,105.918,80.72,110.984,80.72,110.984z
				 M60.437,94.256C60.437,94.256,60.474,94.234,60.437,94.256 M65.388,85.579C65.388,85.579,65.376,85.558,65.388,85.579
				 M56.966,60.609C56.966,60.609,56.988,60.598,56.966,60.609 M83.946,60.609"/>
			<polygon fill="#FAFCFC" points="81.279,68.752 82.511,75.225 78.834,74.012 76.209,72.234 76.73,71.255 			"/>
			<path fill="#FAFCFC" d="M93.324,69.437l-4.705-0.824l0.3,1.381l0.313,2.033l-1.306,2.174l1.663-0.284l2.163-1.778
				c0,0,1.073-1.374,1.334-1.945C93.154,70.049,93.324,69.437,93.324,69.437z"/>
			<polygon fill="#FAFCFC" points="60.614,68.752 59.382,75.225 63.059,74.012 65.684,72.234 65.163,71.255 			"/>
			<polygon fill="#FAFCFC" points="48.598,69.398 53.303,68.574 53.003,69.956 52.691,71.989 53.997,74.163 52.333,73.879 
				50.17,72.101 48.766,70.019 			"/>
			<path fill="#F87360" d="M31.411,166.205c-0.004,0.29-0.054,0.643-0.07,1.445c-0.001,0.055-0.02,0.11-0.057,0.152
				c-0.181,0.207-0.398,0.401-0.405,0.495c-0.245,3.305-0.542,6.609-0.684,9.92c-0.109,2.555-0.022,5.119-0.016,7.678
				c0.001,0.385-0.121,0.89,0.072,1.135c0.63,0.796,0.35,1.49-0.001,2.203c-0.051,0.104-0.169,0.157-0.28,0.126
				c-4.795-1.33-9.43-3.056-13.674-5.702c-2.935-1.83-5.495-4.077-7.435-6.986c-0.68-1.02-0.76-1.836-0.06-3.007
				c4.447-7.431,8.237-15.192,11.224-23.33c1.131-3.082,2.219-6.18,3.294-9.282c1.345-3.877,3.551-7.044,7.238-9.049
				c3.392-1.844,6.713-3.829,10.166-5.55c3.894-1.942,8.011-3.353,12.232-4.432c0.277-0.071,0.563-0.113,0.847-0.144
				c0.062-0.007,0.13,0.036,0.248,0.096c0.076,0.038,0.125,0.114,0.131,0.199c0.013,0.197,0.042,0.423-0.015,0.625
				c-2.311,8.313,3.524,16.896,11.854,18.786c6.039,1.37,11.495,0.232,16.257-3.806c3.297-2.795,5.195-6.364,5.959-10.621
				c0.299-1.667-0.099-3.414-0.373-5.13c-0.023-0.147,0.092-0.28,0.24-0.278c0.294,0.005,0.708,0.159,0.937,0.217
				c4.08,1.037,8.014,2.483,11.872,4.167c4.09,1.786,7.874,4.108,11.641,6.457c3.022,1.885,4.923,4.674,6.13,8.004
				c1.891,5.219,3.747,10.454,5.815,15.603c2.161,5.38,4.83,10.53,7.719,15.56c0.481,0.837,0.956,1.679,1.475,2.492
				c0.388,0.608,0.341,1.151-0.015,1.752c-1.068,1.802-2.369,3.422-3.952,4.78c-4.392,3.77-9.611,6.445-15.232,7.963
				c-0.114,0.031-0.232-0.027-0.282-0.134c-0.354-0.757-0.545-1.645-0.817-2.285c-0.186-0.436-1.627-4.5-1.709-4.772
				c-0.349-1.15-0.65-2.316-1.043-3.45c-0.135-0.39-0.449-0.718-0.699-1.068c-0.036-0.05-0.05-0.112-0.042-0.172
				c0.237-1.735,0.603-3.465,0.666-5.206c0.114-3.125,0.198-6.268-0.013-9.382c-0.168-2.484-0.756-4.943-1.231-7.4
				c-0.173-0.892-0.509-1.764-0.865-2.606c-0.189-0.446-0.525-0.83-0.817-1.233c-0.06-0.082-0.163-0.12-0.261-0.092l0,0
				c-0.099,0.028-0.169,0.117-0.173,0.22c-0.011,0.282-0.039,0.567,0.012,0.836c0.453,2.365,0.977,4.718,1.385,7.091
				c0.534,3.101,0.561,6.208,0.284,9.361c-0.495,5.62-2.112,10.972-3.541,16.375c-1.024,3.873-1.893,7.773-2.366,11.755
				c-0.193,1.625-0.438,3.247-0.554,4.879c-0.354,4.975,0.516,9.803,1.846,14.571c1.313,4.707,3.055,9.259,4.98,13.742
				c1.086,2.528,2.23,5.031,3.341,7.549c0.457,1.035,0.442,1.28-0.644,1.839c-2.228,1.148-4.467,2.295-6.779,3.257
				c-6.217,2.588-12.71,4.279-19.31,5.53c-2.596,0.492-5.244,0.811-7.882,0.955c-3.9,0.213-7.819,0.381-11.717,0.226
				c-3.26-0.13-6.519-0.637-9.745-1.178c-5.866-0.984-11.575-2.613-17.167-4.63c-3.275-1.181-6.466-2.557-9.442-4.39
				c-0.166-0.102-0.318-0.228-0.533-0.393c-0.084-0.065-0.116-0.177-0.078-0.276c0.235-0.616,0.444-1.236,0.722-1.823
				c2.705-5.724,5.158-11.551,7.097-17.583c1.316-4.094,2.252-8.259,2.698-12.559c0.274-2.638-0.077-5.182-0.321-7.767
				c-0.423-4.479-1.365-8.854-2.447-13.208c-1.093-4.398-2.305-8.773-3.191-13.213c-0.638-3.197-0.898-6.451-0.599-9.768
				c0.3-3.332,0.959-6.575,1.612-9.833c0.088-0.437,0.134-0.883,0.202-1.435c0.025-0.202-0.199-0.343-0.369-0.231
				c-0.574,0.38-0.802,0.89-0.935,1.376c-0.66,2.415-1.368,4.828-1.808,7.287c-0.372,2.079-0.579,6.299-0.553,6.633L31.411,166.205z
				"/>
			<path fill="#6E4539" d="M82.246,105.679c0.214,2.281,0.268,14.239,1.521,14.308c3.27,0.128,3.787,0.269,3.87,3.938
				c0.083,3.652-1.19,7.741-3.322,10.577c-2.206,2.934-5.579,5.364-9.088,6.224c-5.996,1.469-12.299,0.188-16.61-4.391
				c-3.301-3.506-4.738-8.51-3.643-13.379c0.43-1.91,1.322-2.985,3.617-3.234c0.572-0.11,1.693-11.488,2.127-13.612
				c1.392,0.266,1.592,0.269,2.741,0.744c1.593,0.658,3.063,1.547,4.753,1.65c2.193,0.134,4.438-0.368,6.542-0.923
				c1.437-0.379,2.851-0.689,4.194-1.286C79.819,105.906,81.311,105.614,82.246,105.679z"/>
			<path fill="#6E4438" d="M100.682,75.683c0.073-0.628,0.146-1.257,0.338-2.057c0.355-0.558-0.036-1.144-0.358-0.964
				c0.109-1.313,0.212-2.626,0.331-3.937c0.027-0.302,0.144-0.597,0.158-0.898c0.072-1.544,0.068-1.549,1.438-1.971
				c2.329-0.717,4.813,0.507,5.763,2.742c0.792,1.864,0.687,3.808,0.53,5.717c-0.186,2.254-1.07,4.331-2.271,6.249
				c-0.21,0.335-0.562,0.582-1.046,0.902c-1.502-0.568-2.58-1.338-2.449-3.126C102.988,76.299,102.579,75.873,100.682,75.683
				 M102.365,71.895"/>
			<path fill="#603B34" d="M104.429,83.274c-0.484-0.264-1.851,0.181-1.371,0.798c-0.698,0.54-1.853,0.478-2.914,0.17
				c-0.083-2.379,0.084-5.951,0.34-8.452c1.026-0.107,1.983,0.274,2.185,1.119c0.052,0.216,0.357,0.372,0.545,0.556
				c-0.123,1.581,1.437,3.41,2.779,3.999C105.808,81.857,104.825,82.871,104.429,83.274z"/>
			<path fill="#42241B" d="M100.601,73.163c0.367-0.225,0.673-0.396,0.979-0.567c0.069,0.056,0.138,0.112,0.207,0.167
				c-0.224,0.366-0.448,0.732-0.743,1.157C100.829,73.726,100.684,73.471,100.601,73.163z"/>
			<path fill="#6E4438" d="M39.836,66.236c0.172,0.094,0.736,0.373,0.867,0.47c0.261,2.01-0.036,3.769,0.177,5.824
				c-0.389-0.078-0.011,1.77,0.331,2.675c-0.834,0.533-0.72,1.977-1.173,2.546c-0.349,0.438-1.428,0.162-1.581,1.014
				c-0.599,1.343-0.746,2.727-2.068,3.349c-1.656-1.29-2.939-2.934-3.563-4.829c-0.787-2.391-1.23-5.188-0.509-7.7
				c0.807-2.809,3.564-4.435,6.414-3.776C38.973,65.864,39.469,66.183,39.836,66.236 M39.28,72.047"/>
			<path fill="#603B34" d="M38.703,84.042c0.228-0.367-0.05-0.711,0.27-1.094c0.204-0.244-0.003-0.294-0.093-0.493
				c-0.108-0.238,0.59-0.444,0.269-0.509c-0.848-0.172-1.209,0.586-1.954,0.989c-0.311-0.114-0.685-0.658-0.944-0.896
				c1.322-0.731,1.475-2.166,2.099-3.428c0.256-0.508,0.456-0.918,0.673-1.319c0.323-0.597,0.84-0.86,1.636-0.881
				c0.448,1.289,0.116,2.624,0.24,3.916c0.125,1.307,0.583,2.607,0.088,3.997C40.249,84.234,39.546,84.15,38.703,84.042z"/>
			<path fill="#57362F" d="M76.102,72.045c-0.177-1.305,0.278-2.492,0.812-3.616c1.513-3.186,4.231-6.322,7.196-5.885
				c2.259,0.458,4.52,0.995,6.384,2.442c1.278,0.992,2.441,2.192,2.83,3.865c-1.328-0.324-2.559-0.73-3.782-1.16
				c-1.466-0.516-2.965-0.814-4.521-0.677c-3.342,0.295-6.241,1.443-8.227,4.33C76.611,71.611,76.335,71.813,76.102,72.045z"/>
			<path fill="#57362F" d="M48.598,69.398c-0.072-1.023,0.56-2.08,1.151-2.776c1.629-1.917,3.925-2.695,6.295-3.34
				c0.648-0.176,1.311-0.292,2.02-0.447c2.388-0.891,5.309,2.444,6.813,5.158c0.703,1.269,1.213,2.597,0.973,4.108
				c-2.456-4.134-8.448-5.741-12.594-4.324C51.751,68.291,50.11,68.904,48.598,69.398z"/>
			<path fill="#0E0B09" d="M95.096,59.533c0.62,0.802,1.548,1.311,1.729,2.467c0.021,0.135-0.123,0.236-0.241,0.168
				c-1.614-0.923-3.065-1.851-4.614-2.567c-1.611-0.745-3.302-1.365-5.014-1.833c-1.761-0.481-3.589-0.811-5.437-0.5
				c-1.666,0.28-3.322,0.623-5.131,0.971c-0.116,0.022-0.216-0.082-0.19-0.197c0.371-1.65,1.3-2.757,2.632-3.569
				c1.963-1.196,4.118-1.329,6.304-0.936c3.076,0.552,5.696,2.061,8.022,4.103C93.809,58.213,94.404,58.851,95.096,59.533
				 M81.715,56.564c1.295,0.053,2.602,0.012,3.882,0.18c2.502,0.33,4.835,1.233,7.087,2.353c0.176,0.087,0.374,0.13,0.572,0.172
				c0.125,0.027,0.233-0.097,0.185-0.215c-0.15-0.372-0.36-0.642-0.623-0.839c-0.962-0.72-1.913-1.47-2.947-2.073
				c-2.625-1.531-5.409-2.505-8.51-1.879c-1.541,0.311-2.847,1.009-3.784,2.586c-0.069,0.117,0.027,0.263,0.162,0.244
				C79.105,56.899,80.292,56.732,81.715,56.564 M94.116,59.612"/>
			<path fill="#0E0B09" d="M49.753,56.99c2.303-1.748,4.7-3.06,7.5-3.472c2.798-0.412,5.412-0.076,7.469,2.116
				c0.611,0.651,1.096,1.397,1.239,2.5c0.015,0.114-0.089,0.208-0.2,0.179c-2.358-0.614-4.607-1.261-6.938-1.118
				c-2.418,0.149-4.808,0.607-7.01,1.638c-2.113,0.989-4.074,2.118-6.186,3.238c-0.094,0.05-0.295-0.044-0.317-0.148
				c-0.104-0.49,0.344-0.856,0.668-1.194C47.179,59.475,48.434,58.273,49.753,56.99 M52.43,56.036
				c-1.22,0.874-2.588,1.574-3.529,2.806c-0.098,0.129,0.035,0.307,0.186,0.248c2.445-0.952,4.83-1.982,7.43-2.357
				c2.667-0.384,5.304-0.228,7.936,0.383c0.143,0.033,0.253-0.125,0.171-0.246c-1.445-2.131-3.549-2.957-5.996-2.812
				c-2.113,0.126-4.156,0.746-6.187,1.97C52.438,56.031,52.434,56.033,52.43,56.036z"/>
			<path fill="#42241B" d="M64.98,84.715c-1.057-1.149-1.086-1.946,0.06-3.085c1.007-1,1.949-2.05,2.431-3.38
				c0.439-1.212,0.851-2.482,0.958-3.754c0.16-1.907,0.312-3.862,0.042-5.647c0.47,0.551,0.841,1.803,0.863,3.252
				c0.019,1.256,0.106,2.522-0.026,3.764c-0.13,1.225-0.495,2.426-0.739,3.553c1.299,0.132,2.6,0.13,3.831,0.422
				c1.668,0.396,2.983,1.336,3.473,3.128c0.149,0.544,0.156,1.023-0.409,1.606c0.153-1.599-0.735-2.372-1.822-2.989
				c-2.276-1.292-4.599-1.279-6.923-0.151c-1.245,0.604-1.952,1.558-1.724,3.148C64.986,84.707,64.98,84.715,64.98,84.715z"/>
			<path fill="#42241B" d="M65.275,84.998c-0.092-0.03-0.167-0.084-0.261-0.222c-0.034-0.061-0.028-0.069-0.024-0.072
				c0.098,0.026,0.172,0.082,0.256,0.229C65.276,84.998,65.275,84.998,65.275,84.998z"/>
			<path fill="#42241B" d="M65.276,84.998c0.033,0.036,0.065,0.073,0.098,0.11c-0.023-0.012-0.047-0.024-0.084-0.073
				C65.275,84.998,65.276,84.998,65.276,84.998z"/>
			<path fill="#272C31" d="M81.578,56.565c-1.321,0.171-2.52,0.34-3.921,0.539c-0.099,0.014-0.175-0.092-0.125-0.179
				c0.939-1.631,2.263-2.346,3.828-2.662c3.1-0.625,5.885,0.348,8.51,1.879c1.034,0.603,1.985,1.354,2.947,2.073
				c0.272,0.203,0.486,0.484,0.637,0.874c0.04,0.104-0.053,0.211-0.161,0.188c-0.211-0.045-0.423-0.087-0.609-0.18
				c-2.252-1.121-4.585-2.023-7.087-2.353C84.317,56.576,83.01,56.617,81.578,56.565z"/>
			<path fill="#823E42" d="M63.53,96.025c-0.035-0.039-0.064-0.084-0.093-0.129c0.027,0.011,0.054,0.022,0.097,0.071
				C63.549,96.005,63.537,96.019,63.53,96.025z"/>
			<path fill="#272C31" d="M52.53,55.983c1.938-1.178,3.982-1.799,6.098-1.924c2.471-0.147,4.59,0.696,6.036,2.871
				c0.067,0.101-0.023,0.231-0.141,0.203c-2.655-0.625-5.315-0.787-8.006-0.399c-2.654,0.382-5.084,1.447-7.582,2.416
				c-0.104,0.04-0.199-0.081-0.134-0.172C49.745,57.658,51.177,56.936,52.53,55.983z"/>
			<path fill="#42241B" d="M58.513,120.623c0.012-0.268,0.038-0.632,0.102-1.113c0.41-3.24,0.755-6.173,1.108-9.156
				c0.002-0.019-0.006-0.037-0.022-0.048c-9.448-6.137-16.521-13.867-18.486-25.394c-0.004-0.026-0.028-0.044-0.055-0.041
				c-1.969,0.226-3.59-0.477-5.196-1.451c-0.002-0.001-0.004-0.003-0.006-0.004c-0.289-0.235-0.537-0.393-0.785-0.55
				c-0.004-0.002-0.007-0.005-0.01-0.008c-3.409-3.621-4.773-7.883-3.866-12.787c0.422-2.282,1.679-3.99,4.159-4.828
				c0.002-0.001,0.005-0.001,0.007-0.002c0.399-0.083,0.612-0.118,0.953-0.143c0.003,0,0.005,0,0.008,0
				c1.241,0.093,2.355,0.176,3.617,0.269c0.033,0.002,0.061-0.028,0.054-0.061c-0.161-0.784-0.332-1.504-0.44-2.233
				c-0.043-0.292,0.065-0.606,0.198-0.958c0-0.001,0.001-0.002,0.001-0.003c0.285-0.632,0.495-1.225,0.72-1.726
				c0.021-0.046,0.089-0.034,0.095,0.016c0.404,3.343,0.896,6.564,1.105,9.804c0.244,3.787,0.215,7.592,0.329,11.388
				c0.119,3.993,1.045,7.812,2.706,11.431c2.706,5.894,6.939,10.538,12.065,14.417c3.008,2.277,6.265,4.108,9.785,5.481
				c2.685,1.048,5.38,1.261,8.115,0.261c1.279-0.468,2.587-0.895,3.797-1.507c6.957-3.517,12.452-8.616,16.433-15.336
				c1.398-2.359,2.401-4.869,3.082-7.632c1.147-3.76,1.198-7.538,1.305-11.446c0.238-3.323,0.376-6.519,0.706-9.695
				c0.213-2.047,0.686-4.068,1.095-6.011c0.01-0.049,0.079-0.053,0.096-0.006c0.266,0.72,0.49,1.37,0.647,2.099
				c0.001,0.006,0.001,0.011,0.001,0.017c-0.074,0.625-0.077,1.163-0.077,1.808c0,0.035,0.035,0.06,0.068,0.048
				c1.486-0.53,2.862-0.468,4.326-0.125c0.001,0,0.002,0.001,0.003,0.001c0.211,0.064,0.868,0.284,1.048,0.384
				c1.955,1.088,2.721,3.044,2.961,5.188c0.452,4.025-0.575,7.69-3.261,10.996c-0.001,0.002-0.003,0.003-0.004,0.004
				c-0.369,0.367-0.6,0.625-0.926,0.923c-1.732,1.456-3.602,2.227-5.824,1.975c-0.025-0.003-0.049,0.014-0.055,0.039
				c-0.143,0.605-0.279,1.105-0.377,1.613c-0.99,5.171-3.174,9.793-6.388,13.945c-2.645,3.418-5.724,6.39-9.33,8.766
				c-1.044,0.688-1.389,1.416-1.282,2.62c0.176,1.987,0.232,3.834,0.339,5.828c0.031,0.576,0.113,1.29,0.106,1.869
				c-0.001,0.128,0.025,0.617,0.039,1.075c0.006,0.802-0.002,1.291-0.002,1.901c0,0.163-0.14,0.071-0.158,0.017
				c-0.719-2.235-0.66-4.541-0.957-6.93c-0.136-1.563-0.283-3.004-0.445-4.588c-0.003-0.034-0.04-0.055-0.071-0.041
				c-0.531,0.226-0.879,0.345-1.195,0.52c-2.138,1.184-4.394,2.083-6.783,2.567c-1.118,0.226-2.307,0.33-3.438,0.223
				c-3.043-0.287-5.815-1.47-8.505-2.859c-0.266-0.137-0.56-0.22-0.961-0.368c-0.03-0.011-0.064,0.008-0.069,0.04
				c-0.256,1.828-0.493,3.521-0.784,5.316c-0.234,1.197-0.356,2.302-0.609,3.376c-0.217,0.922-0.386,2.436-0.798,3.301
				c-0.125,0.327-0.471,0.314-0.421-0.13L58.513,120.623 M101.968,72.61c-0.534,0.877-1.203,1.801-1.122,2.788
				c0.001,0.014,0.014,0.024,0.027,0.03c0.603,0.301,1.492,0.364,1.961,0.963c0.468,0.598,0.622,1.254,0.384,1.912
				c-0.015,0.042-0.074,0.043-0.093,0.002c-0.097-0.217-0.212-1.197-1.008-1.494c-0.316-0.118-0.702-0.168-1.349-0.048
				c-0.023,0.004-0.041,0.024-0.042,0.047c-0.107,2.345-0.215,4.711-0.328,7.209c-0.001,0.029,0.022,0.054,0.051,0.053
				c1.982-0.007,3.52-0.551,4.738-2.08c0.115-0.144,0.937-0.976,1.15-1.289c2.143-3.151,3.037-6.637,2.383-10.39
				c-0.612-3.514-3.483-5.072-6.873-3.729c-0.012,0.005-0.023,0.015-0.028,0.027c-0.886,1.846-0.768,3.978-0.893,5.936
				c-0.002,0.029,0.022,0.054,0.052,0.054c0.175,0,0.537-0.163,0.593-0.193c0.183-0.097,0.486-0.307,0.546-0.292
				C102.216,72.141,102.091,72.438,101.968,72.61 M38.353,78.176c0.089-0.503,0.029-0.894,0.217-1.436
				c0.135-0.39,0.324-0.534,0.459-0.652c0.418-0.367,1.012-0.461,1.514-0.69c0.014-0.006,0.024-0.019,0.028-0.033
				c0.279-0.98-0.025-1.502-0.613-2.137c-0.258-0.278-0.553-0.473-0.679-0.584c-0.073-0.065-0.194-0.126-0.107-0.313
				c0.051-0.109,0.334-0.06,0.478-0.018c0.154,0.046,0.643,0.095,0.966,0.137c0.032,0.004,0.061-0.022,0.058-0.054
				c-0.104-1.505-0.211-2.928-0.296-4.351c-0.077-1.295-0.087-1.32-1.685-1.809c-0.002-0.001-0.004-0.001-0.005-0.001
				c-2.676-0.58-4.833,0.657-5.705,3.228c-0.613,1.808-0.63,3.634-0.216,5.468c0.583,2.587,1.409,5.066,3.582,7.077
				c1.195,1.274,2.653,1.921,4.583,2.033c0.03,0.002,0.056-0.024,0.054-0.054c-0.145-2.549-0.281-4.93-0.416-7.313
				c-0.001-0.025-0.022-0.046-0.048-0.048c-0.834-0.059-1.28,0.249-1.588,0.775c-0.179,0.305-0.326,0.628-0.493,0.816
				C38.407,78.256,38.344,78.226,38.353,78.176z"/>
			<g>
				<path fill="#A8874A" d="M102.322,81.777c0.117,0.101,1.253,0.124,2.505,1.724c0.26,0.333,0.419,0.578,0.58,0.969
					c1,2.419,1.469,4.895,1.31,7.483c-0.11,1.79-0.317,3.565-1.311,5.127c-0.808,1.271-2.192,2.166-3.471,2.207
					c-0.905,0-2.82-0.956-3.5-2.409c-1.001-2.341-0.342-4.616-0.056-5.204c0.237,0.779,0.154,2.141,0.253,2.857
					c0.246,1.778,1.33,2.508,2.773,3.429c0.43,0.274,0.754,0.218,1.185-0.038c1.762-1.047,2.553-2.276,2.989-4.163
					c0.532-2.302,0.339-4.602-0.168-6.877C105.141,85.667,102.653,82.979,102.322,81.777z"/>
				<path fill="#DEB565" d="M104.452,83.874c0.476,0.964,0.927,2.003,1.149,2.998c0.507,2.275,0.511,4.585-0.021,6.887
					c-0.436,1.886-1.227,3.259-2.989,4.307c-0.431,0.256-0.756,0.312-1.185,0.038c-1.444-0.921-2.655-1.76-2.901-3.538
					c-0.095-0.689-0.136-1.02-0.248-2.138c-0.006-0.062-0.003-0.195,0.01-0.255c0.484-2.224,1.369-5.16,1.922-7.228
					c0.009-0.057,0.015-0.083,0.121-0.071c0.161,0.018,0.288,0.032,0.47,0.037c0.133,0.004,0.028,0.394-0.017,0.535
					c-0.682,2.164-1.379,4.615-1.294,6.8c0.07,1.821,0.871,2.993,2.285,3.887c0.123,0.078,0.275,0.096,0.411,0.045
					c0.095-0.036,0.176-0.068,0.236-0.124c0.21-0.195,0.397-0.359,0.557-0.595c2.305-3.397,2.175-6.955,0.661-10.589
					c-0.079-0.189-1.71-2.014-2.08-2.435c-0.176-0.2-0.182-0.574,0.066-0.669C102.659,81.366,104.049,83.057,104.452,83.874z"/>
				<path fill="#A8874A" d="M101.597,84.897c-0.777,2.232-1.463,4.921-1.186,7.311c0.114,0.987,0.305,1.985,1.29,2.601
					c0.096,0.06,0.222,0.055,0.307-0.019c0.925-0.808,1.337-1.877,1.523-2.992c0.124-0.743,0.296-2.318,0.2-3.735
					c-0.06-0.891-0.253-1.713-0.387-2.269c-0.353-1.463-1.579-2.811-1.576-3.096c0.186,0.072,1.321,1.13,1.849,2.173
					c1.514,3.635,1.644,7.192-0.661,10.589c-0.16,0.236-0.446,0.592-0.677,0.705c-0.205,0.1-0.45,0.078-0.641-0.047
					c-1.355-0.889-2.102-2.091-2.171-3.872c-0.091-2.37,0.462-5.046,1.311-7.335C101.055,84.934,101.233,84.907,101.597,84.897z"/>
			</g>
			<g>
				<path fill="#A8874A" d="M36.038,86.882c-0.507,2.275-0.701,4.575-0.168,6.877c0.436,1.886,1.227,3.115,2.989,4.163
					c0.431,0.256,0.756,0.312,1.185,0.038c1.444-0.921,2.527-1.651,2.773-3.429c0.099-0.716-0.02-2.236,0.216-3.015
					c0.286,0.588,1.073,2.86-0.019,5.362c-0.681,1.453-2.595,2.409-3.5,2.409c-1.279-0.04-2.663-0.936-3.471-2.207
					c-0.994-1.562-1.201-3.338-1.311-5.127c-0.159-2.588,0.31-5.064,1.31-7.483c0.161-0.39,0.32-0.636,0.58-0.969
					c1.252-1.6,2.388-1.623,2.505-1.724C38.797,82.979,36.309,85.667,36.038,86.882z"/>
				<path fill="#DEB565" d="M39.845,81.766c0.249,0.094,0.242,0.469,0.066,0.669c-0.37,0.421-2.001,2.245-2.08,2.435
					c-1.514,3.635-1.644,7.192,0.661,10.589c0.16,0.236,0.347,0.4,0.557,0.595c0.06,0.055,0.141,0.088,0.236,0.124
					c0.136,0.051,0.288,0.032,0.411-0.045c1.414-0.894,2.215-2.066,2.285-3.887c0.084-2.184-0.612-4.636-1.294-6.8
					c-0.045-0.141-0.15-0.531-0.017-0.535c0.182-0.005,0.309-0.019,0.47-0.037c0.106-0.012,0.112,0.014,0.121,0.071
					c0.553,2.068,1.438,5.004,1.922,7.228c0.013,0.061,0.017,0.193,0.01,0.255c-0.112,1.118-0.153,1.449-0.248,2.138
					c-0.246,1.778-1.457,2.618-2.901,3.538c-0.43,0.274-0.754,0.218-1.185-0.038c-1.762-1.047-2.553-2.42-2.989-4.307
					c-0.532-2.302-0.528-4.611-0.021-6.887c0.222-0.995,0.672-2.034,1.149-2.998C37.401,83.057,38.791,81.366,39.845,81.766z"/>
				<path fill="#A8874A" d="M40.67,84.911c0.849,2.289,1.403,4.965,1.311,7.335c-0.069,1.781-0.815,2.983-2.171,3.872
					c-0.191,0.125-0.436,0.147-0.641,0.047c-0.231-0.112-0.756-0.484-0.917-0.719c-2.305-3.397-1.936-6.94-0.422-10.575
					c0.527-1.043,1.663-2.101,1.849-2.173c0.002,0.285-1.223,1.634-1.576,3.096c-0.134,0.556-0.327,1.378-0.387,2.269
					c-0.096,1.416,0.076,2.992,0.2,3.735c0.187,1.116,0.598,2.185,1.523,2.992c0.085,0.075,0.211,0.079,0.307,0.019
					c0.985-0.617,1.176-1.614,1.29-2.601c0.277-2.39-0.408-5.079-1.186-7.311C40.217,84.907,40.394,84.934,40.67,84.911z"/>
			</g>
			<g>
				<g>
					<path d="M75.994,72.34c0,0,3.678,4.05,9.289,3.381c5.61-0.669,7.765-4.867,7.951-5.982c0,0-1.412,2.898-4.904,4.273
						s-6.985,1.746-11.889-1.858L75.994,72.34z"/>
					<ellipse cx="84.752" cy="71.19" rx="4.845" ry="4.357"/>
					<ellipse fill="#22211E" cx="84.686" cy="71.232" rx="4.24" ry="3.814"/>
					<path fill="#FAFCFC" d="M81.701,70.034c0.045-0.297,0.23-0.784,0.955-0.929c1.066-0.213,0.966,0.952,0.668,1.506
						c-0.298,0.554-0.739,0.867-1.25,0.455C81.563,70.654,81.68,70.173,81.701,70.034z"/>
					<path d="M97.023,68.661c0,0-1.858,1.635-6.576,0.669c-4.719-0.966-6.836-1.152-10.663,0.632
						c-3.827,1.783-3.344,2.192-3.344,2.192l-0.446,0.186c0,0,0.98-4.331,6.928-5.605c4.954-1.062,7.894,1.554,10.12,1.944
						C94.793,68.986,97.023,68.661,97.023,68.661z"/>
				</g>
				<g>
					<path d="M65.936,72.34c0,0-3.678,4.05-9.289,3.381c-5.61-0.669-7.765-4.867-7.951-5.982c0,0,1.412,2.898,4.904,4.273
						c3.492,1.375,6.985,1.746,11.889-1.858L65.936,72.34z"/>
					<ellipse cx="57.178" cy="71.19" rx="4.845" ry="4.357"/>
					<ellipse fill="#22211E" cx="57.244" cy="71.232" rx="4.24" ry="3.814"/>
					<path fill="#FAFCFC" d="M54.151,70.034c0.045-0.297,0.23-0.784,0.955-0.929c1.066-0.213,0.966,0.952,0.668,1.506
						c-0.298,0.554-0.739,0.867-1.25,0.455C54.012,70.654,54.13,70.173,54.151,70.034z"/>
					<path d="M44.907,68.661c0,0,1.858,1.635,6.576,0.669s6.836-1.152,10.663,0.632c3.827,1.783,3.344,2.192,3.344,2.192
						l0.446,0.186c0,0-0.991-3.99-6.911-5.387c-4.9-1.156-7.238,1.035-10.137,1.726C47.158,69.091,44.907,68.661,44.907,68.661z"/>
				</g>
				<g>
					<g>
						<path fill="#4A2D26" d="M76.071,72.34c0,0-0.518-4.042,2.443-7.276c2.614-2.855,3.641-2.498,6.177-4.653
							c0,0-2.013,2.113-4.971,4.716C76.687,67.798,76.071,72.34,76.071,72.34z"/>
						<path fill="#4A2D26" d="M93.31,68.679c0,0-0.413-3.046-4.624-5.021c-3.688-1.73-6.408-1.388-6.408-1.388l-1.132,0.889
							c0,0,3.428-0.783,7.594,1.247C92.906,66.435,93.31,68.679,93.31,68.679z"/>
					</g>
				</g>
				<path fill="#4A2D26" d="M65.971,72.34c0,0,0.498-4.023-2.443-7.276c-2.074-2.295-3.076-1.661-6.177-4.653
					c0,0,0.264,0.863,1.28,1.772s2.945,2.062,4.04,3.377C64.777,68.087,65.971,72.34,65.971,72.34z"/>
				<path fill="#4A2D26" d="M48.598,68.752c0,0,0.801-3.425,5.054-5.308c3.189-1.412,5.967-1.03,5.967-1.03l0.833,0.542
					c0,0-3.387-0.323-7.05,1.279C49.157,66.092,48.598,68.752,48.598,68.752z"/>
			</g>
			<g>
				<path fill="#854044" d="M60.929,93.841c0,0,2.718,1.607,5.271-0.474c2.433-1.983,3.636-1.574,4.565-1.627
					c0.929-0.053,2.434,0.282,3.823,1.14c1.388,0.857,2.856,2.097,5.053,1.305c0,0-1.047,1.091-1.978,2.447
					c-0.655,0.954-0.967,1.987-2.166,2.874c-1.383,1.023-3.826,1.151-4.555,1.131c-1-0.027-3.908,0.225-5.784-2.102
					C64.371,97.558,61.832,94.451,60.929,93.841z"/>
				<path fill="#321A1A" d="M60.587,93.601c0,0,1.32,0.781,3.211,3.487c2.328,3.332,5.276,3.834,7.101,3.842
					c1.848,0.008,4.113-0.274,5.898-2.653s1.923-3.14,2.743-4.135c0,0-2.462,3.398-3.94,4.374c-1.407,0.93-3.087,1.433-4.701,1.394
					c-2.557-0.061-4.503-0.595-6.387-2.765C62.548,94.884,60.587,93.601,60.587,93.601z"/>
				<path fill="#683034" d="M61.307,93.925c0,0,2.34,1.235,4.893-0.846c2.433-1.983,3.636-1.43,4.565-1.483
					c0.929-0.053,2.434,0.282,3.823,1.14c1.388,0.857,3.017,1.699,5.053,1.594c0,0-4.52,2.142-9.121,2.131
					C65.988,96.449,61.755,94.228,61.307,93.925z"/>
				<path fill="#321A1A" d="M59.025,92.391c0,0,4.559,4.477,11.61,4.359c7.028-0.118,10.313-3.111,12.27-4.755
					c0,0-4.855,3.802-12.286,3.868C63.187,95.928,59.025,92.391,59.025,92.391z"/>
				<path fill="#321A1A" d="M63.318,94.329c0,0,1.366-0.182,3.799-2.024c2.433-1.841,4.925-1.186,5.934-0.673
					c0.695,0.354,3.231,2.077,4.669,2.499c0,0-1.18-0.227-2.605-0.914c-1.42-0.684-3.229-1.19-4.339-1.19
					C67.479,92.027,66.968,93.869,63.318,94.329z"/>
			</g>
			<path fill="#B3443E" d="M113.726,239.757c-0.597,0.328-1.129,0.58-1.826,0.93c-2.162,1.068-4.118,2.133-6.161,2.99
				c-9.546,4.008-19.586,5.805-29.862,6.331c-7.93,0.406-15.815-0.174-23.622-1.682c-7.144-1.38-14.052-3.459-20.506-6.891
				c-0.807-0.429-1.619-0.848-2.429-1.272c-0.409-0.27-0.818-0.54-1.319-0.82c-0.666-0.588-0.356-1.144-0.074-1.724
				c2.452-5.034,4.634-10.183,6.511-15.458c1.555-4.369,2.773-8.827,3.491-13.414c0.543-3.468,0.248-6.914-0.32-10.347
				c-0.306-1.852-0.676-3.694-1.035-5.766c-0.22-1.321-0.22-1.321-1.567-1.406c-1.702-0.222-3.278-0.387-4.844-0.621
				c-6.612-0.989-12.581-3.435-17.702-7.952c-0.495-0.514-0.952-0.941-1.409-1.369c-1.297-1.738-2.59-3.479-3.895-5.212
				c-0.469-0.622-0.404-1.188-0.039-1.862c5.593-10.339,10.155-21.144,14.418-32.082c0.368-0.944,0.658-1.918,1.039-2.856
				c1.236-3.039,3.196-5.544,5.979-7.263c3.611-2.231,7.245-4.456,11.024-6.379c5.923-3.013,12.336-5.005,19.027-6.046
				c-0.047,0.42-0.07,0.664-0.092,1.035c-2.295,0.249-2.616,0.447-3.046,2.357c-1.095,4.869,0.266,9.18,3.568,12.687
				c4.311,4.579,9.812,5.658,15.807,4.189c3.509-0.86,6.472-2.698,8.678-5.632c2.132-2.836,3.609-5.916,3.527-9.568
				c-0.083-3.669-0.476-3.779-3.749-4.15c-0.026-0.448-0.03-0.775-0.035-1.102c6.346,0.97,12.366,2.991,18.204,5.617
				c4.29,1.929,8.267,4.395,12.169,6.99c2.9,1.929,5.109,4.738,6.259,8.026c2.084,5.955,4.542,11.758,7.109,17.515
				c1.825,4.093,3.733,8.148,5.654,12.197c0.708,1.491,1.515,2.931,2.334,4.365c0.439,0.769,0.466,1.43-0.067,2.128
				c-1.287,1.686-2.568,3.378-3.989,5.181c-0.51,0.429-0.881,0.744-1.341,1.098c-3.39,3.064-7.115,5.334-11.426,6.659
				c-3.645,1.12-7.365,1.742-11.258,2.062c-1.206,0.201-1.206,0.201-1.285,1.688c-0.671,3.552-1.39,7.095-1.522,10.726
				c-0.149,4.101,0.606,8.073,1.673,11.996c1.908,7.012,4.661,13.706,7.738,20.274c0.287,0.612,0.571,1.226,0.841,1.845
				C114.8,238.796,114.783,238.838,113.726,239.757 M30.385,189.467c1.869,0.551,3.773,0.863,5.866,0.94
				c-0.651-2.26-1.219-4.394-1.882-6.498c-1.638-5.197-2.796-10.48-3.03-16.173c-0.002-0.31,0.038-1.347,0.008-1.761
				c0.192-2.158,0.234-4.343,0.615-6.467c0.44-2.459,1.148-4.873,1.808-7.287c0.162-0.592,0.465-1.221,1.364-1.604
				c-0.105,0.777-0.151,1.342-0.261,1.894c-0.653,3.259-1.312,6.502-1.612,9.833c-0.299,3.318-0.039,6.572,0.599,9.768
				c0.886,4.44,2.098,8.815,3.191,13.213c1.082,4.354,2.024,8.729,2.447,13.208c0.244,2.585,0.595,5.129,0.321,7.767
				c-0.446,4.3-1.381,8.465-2.698,12.559c-1.939,6.032-4.392,11.858-7.097,17.583c-0.303,0.641-0.524,1.321-0.786,1.991
				c0.295,0.221,0.475,0.378,0.676,0.502c2.975,1.833,6.167,3.209,9.442,4.39c5.593,2.017,11.301,3.646,17.167,4.63
				c3.226,0.541,6.485,1.048,9.745,1.178c3.898,0.155,7.817-0.013,11.717-0.226c2.638-0.144,5.286-0.463,7.882-0.955
				c6.6-1.252,13.092-2.942,19.31-5.53c2.312-0.962,4.55-2.109,6.779-3.257c1.085-0.559,1.1-0.804,0.644-1.839
				c-1.111-2.518-2.255-5.02-3.341-7.549c-1.925-4.484-3.667-9.035-4.98-13.742c-1.33-4.768-2.2-9.596-1.846-14.571
				c0.116-1.631,0.361-3.253,0.554-4.879c0.473-3.982,1.342-7.882,2.366-11.755c1.428-5.402,3.046-10.754,3.541-16.375
				c0.278-3.153,0.25-6.26-0.284-9.361c-0.408-2.373-0.932-4.725-1.385-7.091c-0.062-0.325-0.009-0.671-0.009-1.008l0.332-0.095
				c0.311,0.454,0.705,0.874,0.915,1.371c0.356,0.841,0.692,1.713,0.865,2.606c0.475,2.456,1.064,4.916,1.231,7.4
				c0.21,3.115,0.126,6.257,0.013,9.382c-0.064,1.773-0.442,3.534-0.81,5.46c-1.165,4.158-2.335,8.315-3.488,12.476
				c-0.069,0.249-0.009,0.533-0.009,0.939c1.684-0.297,3.243-0.513,4.772-0.862c1.108-0.253,2.175-0.684,3.487-1.066
				c5.581-1.611,10.763-4.011,15.204-7.823c1.583-1.359,2.884-2.978,3.952-4.78c0.356-0.6,0.403-1.144,0.015-1.752
				c-0.519-0.813-0.994-1.655-1.475-2.492c-2.889-5.03-5.558-10.18-7.719-15.56c-2.068-5.149-3.924-10.384-5.815-15.603
				c-1.206-3.33-3.107-6.12-6.13-8.004c-3.767-2.349-7.551-4.671-11.641-6.457c-3.859-1.685-7.792-3.13-11.872-4.167
				c-0.181-0.046-0.371-0.052-0.587-0.056c-0.243-0.004-0.431,0.213-0.393,0.452c0.261,1.648,0.464,3.184,0.176,4.794
				c-0.764,4.257-2.663,7.826-5.959,10.621c-4.762,4.038-10.218,5.176-16.257,3.806c-8.33-1.89-14.165-10.473-11.854-18.786
				c0.042-0.152,0.037-0.318,0.026-0.474c-0.013-0.188-0.127-0.359-0.301-0.429c-0.033-0.013-0.061-0.02-0.088-0.017
				c-0.284,0.031-0.57,0.073-0.847,0.144c-4.222,1.079-8.338,2.49-12.232,4.432c-3.453,1.722-6.774,3.706-10.166,5.55
				c-3.687,2.005-5.893,5.171-7.238,9.049c-1.076,3.102-2.163,6.2-3.294,9.282c-2.987,8.138-6.777,15.899-11.224,23.33
				c-0.701,1.171-0.621,1.987,0.06,3.007c1.94,2.908,4.499,5.155,7.435,6.986C20.596,186.337,25.299,188.074,30.385,189.467z"/>
			<path fill="#272C31" d="M40.837,40.226l-2.616-0.173l-2.627-1.521l-2.973,1.486l-2.662-0.795l-1.002-2.385l2.143-1.97l1.97-1.313
				l-0.138-1.571l-1.763-2.646l-0.207-1.59l-4.355-1.383l0.622-2.523l3.837-1.244l-0.83-2.385l2.109-2.662l2.42,0.277l3.042,3.56
				l1.728-1.728l-1.625-1.417l-0.207-1.936l2.489-1.936l-1.438-2.281l0.781-1.936l2.005-0.795l2.593,0.795l1.106,2.039l2.696-2.178
				l3.595,0.691l0.484-0.795L51.15,8.147l1.279-1.97l3.353-0.242V4.518L55.54,1.579l1.659-1.694l2.869,0.968l1.694,3.042
				l0.449,1.244l1.867-0.277l-0.864-2.109l0.553-2.869l1.452-1.106l-1.279-1.936l1.452-1.798l1.867-0.207l1.659,0.277l1.072-2.489
				l2.178-1.072l2.42,0.795l1.175,2.489l-0.138,3.146l3.906-0.069l2.316,2.662v2.316l-1.21,3.318l2.973,0.277l2.593,2.278
				l2.696-1.034l3.007,0.38l0.553-2.558l1.348-2.316l2.039-1.59l2.039-0.207l1.763,1.59V5.97l-1.763,3.872l2.281-0.311l2.385,1.798
				v1.832l-0.452,2.213l0.33,0.463l1.458-0.211l3.32-1.862l2.146,1.255l2.2,2.566l2.776,0.34l3.745,3.849l-0.916,2.409l-2.461,1.65
				l-3.666,0.838l-0.079,2.173l-1.021,1.362l2.697,2.357l1.257,3.666l-1.65,2.226l-1.964,0.131l-2.802-2.016l-1.074,1.047
				l0.89,1.807l-0.052,2.409l-1.335,1.885l-1.807-0.34l-1.074,0.209l1.283,4.949l0.419,4.949l-0.288,4.085
				c0,0,0.041,3.099-2.493,6.099c0,0,0.205,1.474-0.27,2.06c-0.235,0.29-1.007,1.446-2.506,0.97
				c-0.941-0.299-1.434-1.318-1.434-1.837c0-0.707,0.445-3.43,0.445-3.43l-0.655-1.466l-0.052-1.885l1.44-2.461l-1.938-1.021
				L96,53.025l0.628-2.776l0.226-1.152l-3.107-0.105l-2.566-1.362l-0.209-2.619l0.524-1.466l-2.959-0.393l-2.035-1.1l-1.027-3.875
				l-2.332,0.314l-2.383-0.943l-1.388-2.619l-1.597,1.021l-2.016,0.236L74.03,34.93l-0.445-1.99l-2.095,3.247l-3.273,0.707
				l-2.488-0.969l-2.042-1.859l-0.759,2.383l-1.807,2.147l-1.623,0.445l-3.483-0.314l0.262,1.99l-0.707,2.304l-2.2,1.885
				l-3.561-0.628L49.2,47.971l-1.67,1.702l-3.483,0.759l1.254,2.278l-0.389,2.278l-2.357,2.357l1.466,2.3l-0.079,1.733l-1.623,1.885
				c0,0,2.324,2.315-0.016,3.632c-2.34,1.317-3.729-4.235-3.951-8.071s-0.51-7.711-0.091-9.728
				C38.68,47.08,40.837,40.226,40.837,40.226z"/>
			<path fill="#0B0909" d="M32.4,34.005c-0.712,0.578-0.942,0.796-1.388,1.331c-0.936,1.122-1.396,2.188-0.936,3.02
				c0.378,0.683,1.436,1.086,1.654,1.111c1.433,0.164,2.212-0.577,3.341-1.376c0.264-0.187,0.533-0.366,0.845-0.58
				c0.205,0.233,0.671,0.822,0.762,0.932c1.362,1.644,3.933,1.701,5.092-0.122c0.927-1.457,1.912-2.887,2.983-4.24
				c0.506-0.64,0.869-1.219,0.825-2.056c-0.02-0.381-0.332-1.302,0.306-2.349c0.262,1.194,0.747,1.739,0.987,1.998
				c1.48-1.108,2.922-2.219,4.401-3.278c0.54-0.387,0.815-0.816,0.597-1.458c-0.357-1.052-0.056-1.931,0.582-2.779
				c0.079-0.105,0.247-0.04,0.23,0.091c-0.052,0.395-0.143,0.811-0.159,1.229c-0.016,0.414-0.102,0.706,0.121,1.312
				c0.087,0.237,0.349,0.361,0.587,0.275c0.166-0.061,0.3-0.113,0.425-0.18c3.983-2.146,8.195-3.613,12.679-4.264
				c0.798-0.116,1.602-0.245,2.408-0.245c0.508,0,0.655,0.136,0.9,0.246c0.064,0.029,0.104,0.094,0.103,0.165l0,0
				c-0.002,0.11-0.077,0.203-0.184,0.23c-0.659,0.162-1.314,0.365-1.983,0.448c-2.93,0.363-5.771,1.058-8.552,2.049
				c-5.283,1.881-9.896,4.801-13.59,9.021c-3.737,4.27-5.939,9.299-6.855,14.906c-0.487,2.978-0.362,5.939-0.208,9.049
				c0.129,2.61,1.329,6.262,1.399,6.858c-0.782-0.858-1.967-6.187-2.015-6.715c-0.161-1.768-0.388-3.552-0.296-5.315
				c0.187-3.601,0.644-7.176,2.067-10.549c0.182-0.432,0.293-0.893,0.469-1.44c-0.562-0.161-1.031-0.254-1.467-0.429
				c-0.609-0.244-1.299-0.433-1.762-0.855c-0.695-0.634-1.301-0.661-2.083-0.251c-0.928,0.487-1.853,0.911-2.934,0.726
				c-0.164-0.028-2.853-0.446-3.084-2.879C28.444,35.291,31.753,34.202,32.4,34.005z"/>
			<path fill="#080706" d="M42.331,20.04c-0.386-0.005-0.774,0.008-1.159-0.017c-0.986-0.065-1.884,0.228-2.419,0.852
				c-0.094,0.109-0.833,1.094-1.005,1.831c0,0,0,0,0,0c-0.334-0.469-0.492-0.849-0.734-1.179c-0.652-0.887-1.283-1.794-2.002-2.624
				c-0.595-0.687-1.336-1.105-2.311-0.663c-0.961,0.436-1.527,1.135-1.635,2.195c-0.158,1.544,0.694,2.619,0.916,3.026c0,0,0,0,0,0
				c-0.517,0.129-0.916,0.109-1.302,0.138c-0.624,0.047-1.237,0.15-1.861,0.2c0,0,0,0,0,0c-1.143,0.203-2.051,1.458-1.142,2.598
				c0.094,0.117,0.233,0.193,0.395,0.263c0.516,0.223,1.066,0.358,1.625,0.42c0.645,0.072,1.285,0.153,2.074,0.153c0,0,0,0,0,0
				c0.011,0.137-0.507,1.764,0.475,3.213c0.398,0.799,1.257,0.996,2.419,0.789c1.13-0.201,2.269-0.401,3.411-0.469
				c0.881-0.053,1.052,0.145,1.529,0.996c0,0,0,0,0,0c-1.065-0.05-2.109-0.186-3.14-0.124c-1.369,0.082-2.694,0.383-3.394,1.918
				c0,0,0,0,0,0c-0.155-0.104-0.32-0.293-0.403-0.513c-0.142-0.376-0.11-0.912-0.365-1.133c-1.096-0.945-1.625-2.117-1.612-3.58
				c0,0,0,0,0,0c-0.917-0.172-1.762-0.306-2.595-0.493c-0.942-0.212-2.046-0.353-2.31-1.787c-0.206-1.111,0.09-2.258,1.127-2.908
				c0.443-0.278,1.221-0.325,1.714-0.488c1.217-0.404,1.309-0.383,1.238-1.553c-0.081-1.33,0.216-2.451,1.098-3.392
				c1.155-1.233,3.286-0.974,4.38,0.103c0.682,0.672,1.133,1.408,1.744,2.15c0.282,0.342,0.675,0.827,1.172,0.435
				c0.515-0.406,0.249-0.827-0.09-1.239c-1.481-1.799-1.151-3.525,0.116-4.475c0.469-0.363,1.002-0.471,1.002-0.471c0,0,0,0,0,0
				c0,0-0.397-0.631-0.586-1.073c-0.808-1.938,0.219-3.754,2.127-4.269c0.855-0.231,2.163-0.055,2.859,0.389
				c0.605,0.387,1.125,0.715,1.554,1.752c0,0,0,0,0,0c1.331-1.924,4.448-2.146,6.545,0.004c0,0,0,0,0,0
				c-0.003,0.324-0.522,0.887-0.577,0.886c0,0,0,0,0,0c-1.324-1.636-4.155-1.618-5.502,0.048c-0.288,0.357-0.567,0.721-0.999,1.269
				c0,0,0,0,0,0c-0.23-0.626-0.346-1.018-0.514-1.387c-0.692-1.514-2.254-2.241-3.518-1.653c-1.275,0.593-1.609,2.102-0.648,3.117
				c0.545,0.576,1.171,1.074,1.879,1.714c0,0,0,0,0,0c-0.788,0.057-1.99,0.32-2.544,0.618c-0.694,0.374-1.122,1.169-1.043,2.015
				c0.092,0.984,0.936,1.686,2.097,1.792c0.668,0.061,1.33,0.181,2.074,0.351c0,0,0,0,0,0C42.489,19.92,42.41,19.98,42.331,20.04z"
				/>
			<path fill="#0E0B09" d="M98.215,66.008c-0.539-0.129-0.598-0.97-0.635-1.377c-0.025-0.273-0.035-0.747,0.063-1.068
				c0.103-0.336,0.277-0.675,0.325-1.024c0.048-0.347,0.066-0.812-0.121-1.06c-1.279-1.689-1.226-3.338-0.281-5.003
				c0.071-0.126,0.165-0.238,0.238-0.364c0.047-0.082,0.074-0.176,0.152-0.368c-2.599-1.256-3.115-3.301-1.822-6.022
				c-0.731-0.039-1.259,0.006-1.749-0.109c-0.786-0.185-1.621-0.351-2.304-0.75c-1.387-0.81-1.853-2.203-1.43-3.757
				c0.098-0.362,0.227-0.716,0.368-1.155c-1.466-0.261-2.951,0.113-4.186-0.986c-1.216-1.081-1.197-2.565-1.625-3.997
				c-1.286,0.219-2.521,0.304-3.69-0.316c-1.181-0.626-1.872-1.622-2.224-3.028c-2.264,1.368-4.286,1.57-5.821-1.159
				c-1.089,1.879-2.68,2.759-4.595,2.85c-1.855,0.089-3.488-0.635-4.841-2.169c-0.693,1.523-1.239,2.978-2.677,3.781
				c-1.367,0.763-2.811,0.904-4.476,0.443c0.02,1.96-0.268,3.646-1.757,4.854c-1.424,1.155-3,1.468-4.891,0.827
				c0.003,3.448-1.636,5.411-5.218,5.632c0.484,1.319,1.034,2.452,0.695,3.753c-0.338,1.297-1.312,2.079-2.206,2.892
				c1.615,3.418,1.561,3.848-0.714,5.846c0.506,0.762,1.016,1.547,0.515,2.613c0.05-1.543-1.044-2.332-2.472-3.112
				c0.451-0.145,0.685-0.255,0.93-0.292c1.704-0.255,2.451-1.65,1.615-3.159c-0.295-0.532-0.784-0.958-1.196-1.422
				c-0.233-0.263-0.489-0.504-0.875-0.898c0.525-0.192,0.822-0.303,1.12-0.408c2.212-0.786,2.952-2.645,1.871-4.755
				c-0.196-0.382-0.496-0.71-0.719-1.08c-0.138-0.229-0.223-0.49-0.428-0.956c0.764-0.036,1.363-0.087,1.961-0.09
				c3.027-0.016,4.575-1.929,3.989-4.927c-0.117-0.601-0.193-1.209-0.282-1.774c0.525-0.397,0.762-0.083,1.022,0.223
				c1.667,1.963,4.606,1.468,5.571-0.954c0.424-1.064,0.446-2.155,0.047-3.253c-0.103-0.284-0.067-0.619-0.095-0.931
				c0.352,0.023,0.714,0,1.053,0.079c0.561,0.13,1.096,0.395,1.661,0.483c2.806,0.434,4.199-1.299,4.845-3.335
				c0.213-0.671,0.33-1.372,0.482-2.017c0.736-0.133,0.788,0.411,1.01,0.742c1.338,1.997,3.593,2.787,5.821,2.063
				c1.289-0.419,2.144-1.249,2.591-2.524c0.179-0.511,0.407-1.006,0.613-1.508c0.107,0.014,0.214,0.027,0.321,0.041
				c0.148,0.527,0.284,1.057,0.445,1.579c0.726,2.342,2.562,2.871,4.466,1.299c0.312-0.257,0.649-0.484,1.161-0.862
				c0.299,1.709,0.511,3.313,2.177,3.832c1.397,0.435,2.838,0.172,4.385-0.594c0.025,0.852,0.05,1.412,0.055,1.972
				c0.025,2.614,1.258,3.799,3.886,3.674c0.75-0.036,1.494-0.186,2.261-0.287c0.223,0.746-0.315,1.074-0.495,1.534
				c-0.274,0.702-0.658,1.446-0.635,2.161c0.042,1.328,1.175,2.259,2.659,2.386c0.72,0.062,1.449,0.01,2.174,0.021
				c0.42,0.006,0.839,0.036,1.522,0.067c-0.322,0.587-0.585,0.966-0.747,1.384c-0.275,0.711-0.659,1.44-0.686,2.173
				c-0.046,1.227,0.907,2.16,2.259,2.45c0.472,0.101,0.993,0.064,1.103,0.825c-0.228,0.215-0.504,0.465-0.768,0.728
				c-0.867,0.862-1.313,1.888-1.224,3.13c0.089,1.234,0.456,1.533,1.647,1.319c0.262-0.047,0.529-0.063,0.859-0.102
				c-0.028,0.771-0.619,0.898-1.001,1.223C98.21,62.836,97.754,64.447,98.215,66.008z"/>
			<path fill="#0B0909" d="M51.412,9.896c-0.564-0.716-0.867-1.584-0.403-2.56c0.408-0.857,0.966-1.454,1.808-1.725
				c0.53-0.171,1.514-0.21,2.201-0.053c0.168,0.038,0.317-0.114,0.275-0.282c-0.177-0.71-0.277-1.404-0.279-2.052
				c-0.009-4.719,2.643-5.694,5.716-2.112c0.414,0.482,0.725,1.015,0.951,1.588c0.141,0.356,0.553,1.455,0.718,1.897
				c0.041,0.109,0.156,0.17,0.269,0.144c0.109-0.025,0.249-0.06,0.387-0.105c0.132-0.042,0.198-0.189,0.143-0.317
				c-1.099-2.54-0.695-4.474,1.221-5.386c0.128-0.061,0.172-0.222,0.092-0.339c-0.123-0.179-0.287-0.397-0.343-0.473
				c-0.5-0.68-0.902-1.413-0.354-2.239c0.715-1.077,1.737-1.819,3.165-1.636c0.251,0.032,0.501,0.081,0.746,0.126
				c0.114,0.021,0.225-0.048,0.262-0.158c0.856-2.588,2.471-3.908,4.883-3.44c3.255,0.631,3.647,3.143,3.283,5.797
				c-0.018,0.132,0.077,0.254,0.21,0.265c1.042,0.084,2.013,0.091,2.94,0.298c1.716,0.382,3.007,2.137,3.095,3.916
				c0.063,1.283-0.12,2.496-0.746,3.635c-0.145,0.263-0.231,0.558-0.35,0.907c-0.045,0.132,0.034,0.275,0.17,0.304
				c0.923,0.193,1.901-0.01,2.655,0.351c0.808,0.387,1.25,1.247,2.014,1.85c0.065,0.051,0.246,0.295,0.583,0.044
				c0.53-0.395,1.01-0.72,1.697-0.883c0.635-0.151,1.198-0.092,2.009,0.129c0.94,0.257,1.001,0.142,1.263-0.87
				c0.475-1.837,1.454-3.35,2.859-4.602c1.048-0.934,2.726-1.305,4.145-0.435c1.172,0.719,1.844,2.323,1.524,3.766
				c-0.135,0.607-0.294,1.21-0.471,1.807c-0.14,0.473-0.308,0.938-0.488,1.463c-0.044,0.127,0.029,0.264,0.158,0.3
				c0.277,0.076,0.483,0.14,0.694,0.17c2.31,0.32,3.641,2.457,2.907,4.684c-0.171,0.519-0.351,1.035-0.591,1.594
				c-0.055,0.127-0.209,0.177-0.329,0.108c-0.556-0.321-1.093-0.625-0.638-1.514c0.65-1.269,0.49-2.322-0.314-3.055
				c-0.936-0.853-2.006-0.826-3.112-0.361c-0.33,0.139-0.659,0.28-0.994,0.424c-0.114,0.049-0.247-0.002-0.302-0.113
				c-0.209-0.418-0.05-0.733,0.203-1.055c0.328-0.417,0.667-0.833,0.932-1.29c0.781-1.344,1.498-2.713,1.35-4.354
				c-0.102-1.124-0.934-1.929-2.048-2.047c-1.586-0.168-2.505,0.805-3.364,1.886c-1.066,1.34-1.404,2.944-1.609,4.652
				c-0.017,0.145-0.163,0.239-0.302,0.194C91.676,8.668,91.48,8.609,91.3,8.516c-1.051-0.54-2.029-0.273-3.06,0.129
				c-1.732,0.677-2.535,2.602-1.046,4.357c0.25,0.295,0.588,0.539,0.753,0.872c0.125,0.252,0.16,0.712,0.01,0.89
				c-0.149,0.177-0.603,0.213-0.879,0.14c-0.309-0.082-0.567-0.354-0.846-0.545c-2.05-1.398-4.165-1.381-6.29-0.22
				c-1.539,0.841-2.074,2.836-1.253,4.391c0.127,0.239,0.228,0.492,0.336,0.755c0.056,0.134-0.025,0.287-0.167,0.316
				c-2.366,0.491-3.062,1.147-2.97,2.76c0.005,0.089,0.063,0.167,0.146,0.2c0.158,0.062,0.329,0.132,0.504,0.183
				c0.23,0.067,0.468,0.118,0.705,0.154c6.23,0.936,11.644,3.663,16.561,7.501c0.589,0.46,2.379,2.073,2.726,2.43
				c2.337,2.406,4.088,5.227,5.87,8.037c0.649,1.023,1.445,1.969,2.807,2.063c0.852,0.059,1.427-0.274,1.496-1.021
				c0.106-1.153,0.261-2.345-0.383-3.398c-0.035-0.057-0.096-0.095-0.162-0.106c-2.537-0.402-3.805-1.349-3.901-2.93
				c-0.015-0.247,0.317-0.337,0.437-0.121c0.001,0.002,0.003,0.005,0.004,0.007c0.533,0.948,1.402,1.469,2.412,1.711
				c0.845,0.203,1.287-0.45,1.735-1.016c0.034-0.043,0.074-0.084,0.118-0.117c0.561-0.42,1.182-0.369,1.434,0.294
				c0.396,1.044,1.211,1.401,2.1,1.616c1.715,0.415,2.845-0.66,2.518-2.394c-0.119-0.634-0.349-1.268-0.665-1.806
				c-1.613-2.751-5.197-4.227-8.374-3.577c-0.089,0.018-0.181,0.02-0.295,0.013c-0.239-0.014-0.306-0.338-0.091-0.441
				c0.04-0.019,0.076-0.034,0.114-0.045c1.563-0.461,3.136-0.413,4.72-0.095c1.509,0.303,2.416-0.659,2.052-2.174
				c-0.065-0.271-0.186-0.528-0.324-0.843c-0.065-0.149,0.039-0.318,0.202-0.326c0.4-0.018,0.737-0.027,1.069-0.073
				c1.946-0.269,3.794-0.755,5.129-2.364c0.615-0.741,0.772-1.482,0.32-2.398c-1.075-2.179-3.737-3.47-6.217-2.951
				c-1.255,0.263-2.398,0.718-3.279,1.71c-0.229,0.258-0.495,0.576-0.927,0.372c-0.128-0.06-0.177-0.22-0.099-0.338
				c0.769-1.153,1.795-1.909,3.063-2.407c0.898-0.353,0.988-0.706,0.511-1.534c-0.658-1.141-1.866-1.662-3.242-1.299
				c-1.282,0.338-2.431,0.921-3.21,2.076c-0.117,0.173-0.284,0.311-0.47,0.461c-0.141,0.113-0.352,0.03-0.377-0.149
				c-0.075-0.542-0.137-0.992-0.197-1.433c-0.014-0.101,0.039-0.2,0.132-0.242c0.41-0.19,0.826-0.37,1.223-0.584
				c0.838-0.451,1.622-1.033,2.501-1.371c2.289-0.879,4.056,0.55,4.864,2.234c0.454,0.946,0.946,1.238,1.94,1.284
				c2.141,0.099,3.769,1.303,4.858,3.023c1.311,2.071,0.567,4.089-1.832,5.393c-1.281,0.696-2.808,0.938-4.352,1.402
				c-0.087,0.026-0.154,0.101-0.164,0.191c-0.049,0.416,0.121,0.924-0.015,1.414c-0.101,0.362-0.593,0.681-0.678,1.061
				c-0.049,0.221,0.141,0.555,0.316,0.752c0.251,0.283,0.587,0.493,0.893,0.725c1.647,1.249,2.537,2.874,2.475,4.971
				c-0.061,2.062-1.887,3.48-3.882,2.974c-1.125-0.285-2.184-0.728-2.905-1.682c-0.065-0.086-0.179-0.119-0.279-0.078
				c-0.491,0.201-0.399,0.556-0.204,0.945c0.488,0.973,0.64,2.001,0.61,3.088c-0.061,2.181-1.086,3.051-3.252,2.686
				c-0.208-0.035-0.416-0.076-0.69-0.129c-0.147-0.028-0.282,0.087-0.277,0.236c0.01,0.273,0.01,0.506,0.07,0.721
				c0.713,2.563,1.023,5.2,1.185,7.832c0.111,1.805-0.178,3.638-0.346,5.453c-0.334,1.918-0.859,3.29-1.182,3.831
				c-0.465,0.779-1.448,1.755-1.501,1.701c-0.037-0.038,0.961-1.272,1.248-1.814c0.321-0.608,0.703-1.804,0.923-3.754
				c0.659-5.827-0.01-11.59-2.673-17.008c-2.671-5.436-6.74-9.588-11.9-12.722c-3.72-2.259-7.731-3.713-11.996-4.493
				c-0.993-0.181-2.007-0.242-3.007-0.388c-0.349-0.051-0.684-0.195-1.025-0.296c-0.138-0.113-0.147-0.246-0.002-0.317
				c0.425-0.124,0.85-0.247,1.245-0.362c0.072-0.021,0.129-0.074,0.154-0.145c0.263-0.745,0.413-1.546,0.849-2.137
				c0.415-0.563,1.14-0.897,1.847-1.396c0.049-0.034,0.083-0.087,0.094-0.145c0.016-0.081,0.033-0.202,0.011-0.314
				c-0.608-3.048,0.909-5.344,3.964-5.89c0.95-0.17,1.923-0.213,2.927-0.305c0.13-0.012,0.224-0.13,0.209-0.26
				c-0.091-0.782-0.26-0.932-0.108-1.743c0.145-0.772,0.815-1.036,0.703-1.222c-0.712-1.189-1.548-2.278-3.101-2.283
				c-0.744-0.003-1.489,0.123-2.312,0.226c-0.179,0.022-0.318-0.159-0.243-0.324c0.106-0.234,0.246-0.473,0.391-0.709
				c1.006-1.637,1.398-3.349,0.795-5.245c-0.407-1.28-1.188-2.178-2.526-2.241c-1.253-0.059-2.508,0.207-3.301,1.387
				c-0.395,0.588-0.772,1.189-1.138,1.759c-0.051,0.08-0.147,0.121-0.241,0.102c-0.564-0.114-0.652-0.494-0.493-0.912
				c0.289-0.761,0.503-1.646,1.04-2.194c0.815-0.833,0.951-1.728,0.867-2.767c-0.084-1.031-0.337-2.004-1.066-2.778
				c-0.958-1.017-2.202-1.102-3.206-0.141c-0.858,0.821-1.521,1.773-1.029,3.083c0.022,0.059,0.013,0.129-0.005,0.223
				c-0.031,0.157-0.209,0.235-0.347,0.154c-0.212-0.126-0.397-0.236-0.581-0.348c-0.958-0.582-1.952-0.767-3.037-0.354
				c-1.136,0.432-1.467,1.174-0.907,2.266c0.185,0.36,0.448,0.679,0.7,1.02c0.072,0.097,0.058,0.232-0.032,0.313
				c-0.769,0.69-1.818,1.341-1.83,2.709c-0.011,1.134,0.198,2.127,0.893,2.971c0.11,0.133,0.034,0.336-0.135,0.371
				c-0.903,0.187-1.757,0.365-2.677,0.556c-0.128,0.027-0.253-0.057-0.277-0.185c-0.103-0.56-0.186-1.218-0.414-1.821
				c-0.285-0.752-0.657-1.508-1.15-2.136c-0.729-0.928-2.09-1.089-2.995-0.396c-0.473,0.349-0.906,1.312-0.792,2.612
				c0.091,1.042,0.107,2.124,0.731,3.047c0.24,0.355,0.498,0.553,0.68,0.658c0.121,0.07,0.157,0.228,0.073,0.339
				C57.67,8.007,57.593,8.109,57.522,8.2c-0.087,0.11-0.252,0.118-0.35,0.017c-0.6-0.618-0.522-0.56-0.769-0.822
				c-1.051-1.115-3.065-1.45-4.11-0.573c-0.937,0.786-0.789,2.215,0.378,2.929c0.505,0.309,1.578,0.73,2.102,0.928
				c0.128,0.048,0.184,0.195,0.125,0.319c-0.015,0.031-0.028,0.067-0.036,0.105c-0.029,0.131-0.171,0.204-0.299,0.161
				c-0.653-0.219-1.082-0.388-1.826-0.289c-0.621,0.083-1.037,0.373-1.216,1.07c-0.237,0.922-0.006,2.347,1.873,3.178
				c0.167,0.074,0.331,0.152,0.495,0.231c-0.035,0.365-0.036,0.373-0.071,0.738c-0.094,0.025-0.189,0.05-0.283,0.074
				c-1.376,0.35-2.452,1.588-2.469,2.843c-0.017,1.283,0.861,2.26,2.382,2.658c0.367,0.096,0.733,0.198,1.209,0.33
				c0.202,0.056,0.233,0.331,0.047,0.429c-0.35,0.186-0.653,0.346-0.971,0.511c-0.125,0.065-0.283,0.006-0.326-0.128
				c-0.077-0.239-0.205-0.428-0.543-0.569c-0.014-0.006-0.029-0.01-0.044-0.013c-2.265-0.465-2.889-1.764-2.834-3.021
				c0.036-0.828,0.442-2.119,1.451-2.849c0.182-0.132,0.087-0.424-0.138-0.419c-0.8,0.015-1.422,0.34-1.929,0.616
				c-0.212,0.116-0.44-0.133-0.304-0.333c0.485-0.714,1.244-0.742,1.989-1.236c0.122-0.081,0.139-0.255,0.035-0.357
				c-0.388-0.383-1.267-0.984-1.21-2.343C49.974,10.09,51.512,10.023,51.412,9.896z"/>
		</g>
	</g>
</g>
<g>
	<g>
		<defs>
			
				<ellipse id="Ellipse_891_00000055688276897010911940000014094123114628349621_" cx="626.142" cy="-1614.416" rx="536.198" ry="536.198"/>
		</defs>
		<clipPath id="Ellipse_891_00000026849311191712589390000014540100219331191950_">
			<use xlink:href="#Ellipse_891_00000055688276897010911940000014094123114628349621_"  overflow="visible"/>
		</clipPath>
		<g clip-path="url(#Ellipse_891_00000026849311191712589390000014540100219331191950_)">
			<path fill="#6E4539" d="M142.296-173.904c0.026-0.79,0.071-1.605,0.746-3.283c0.021-0.052,0.041-0.111,0.055-0.166
				c2.067-8.01,3.631-15.04,4.768-22.139c2.387-14.906,4.431-30.223,12.599-43.018c5.676-8.891,7.93-18.067,9.007-27.94
				c0.651-5.975,0.309-12.052,0.785-18.054c1.819-22.944,4.118-45.855,5.616-68.819c1.718-26.327,2.816-52.696,4.104-79.05
				c0.75-15.35,1.359-30.708,2.007-46.063c0.691-16.359,1.344-32.72,2.03-49.079c0.658-15.689,1.208-31.385,2.034-47.065
				c1.247-23.672,2.304-47.366,4.207-70.988c1.068-13.26,2.946-26.554,5.778-39.546c3.339-15.321,8.858-30.174,12.085-45.513
				c5.77-27.429,10.698-55.039,15.645-82.634c2.535-14.144,4.433-28.402,7.208-42.618c0.182-0.932,1.234-1.405,2.058-0.934
				c7.048,4.03,13.88,7.637,19.704,12.461c20.233,16.76,40.235,33.601,64.254,45.114c18.234,8.74,36.847,15.844,56.602,20.211
				c0.829,0.183,1.299,1.061,0.99,1.852c-1.088,2.791-2.062,5.164-3.228,7.44c-11.601,22.657-23.229,45.3-34.906,67.918
				c-1.994,3.862-4.547,7.453-6.334,11.399c-3.847,8.495-8.627,16.839-10.755,25.785c-4.552,19.13-6.247,39.008-11.64,57.857
				c-13.617,47.596-28.4,94.864-43.161,142.125c-11.97,38.324-23.614,76.715-31.222,116.19c-4.804,24.926-9.309,49.906-9.109,75.46
				c0.028,3.63-0.877,7.271-1.384,10.902c-0.827,5.923,0.148,11.158,4.534,15.736c8.766,9.15,13.973,20.241,17.255,32.426
				c6.381,23.693,5.169,46.928-2.983,70.015c-5.388,15.257-5.417,30.125,4.478,44.026c2.499,3.512,4.306,7.59,5.994,11.593
				c7.352,17.432,0.525,41.362-22.398,48.394c-5.55,1.703-8.861-0.068-9.23-5.598c-1.642-24.577-11.329-46.508-21.313-68.512
				c-5.228-11.523-8.716-23.836-12.991-35.791c-0.085-0.239-0.171-0.477-0.256-0.715c-0.588-1.637-3.096-0.899-2.653,0.783
				c0.004,0.015,0.008,0.029,0.012,0.044c2.356,8.712,5.043,17.342,7.144,26.112c0.721,3.012,1.096,6.819-0.116,9.464
				c-6.905,15.074-6.222,30.339-2.776,46.019c3.705,16.857,11.333,32.144,18.133,47.779c7.797,17.929,14.056,36.155,12.807,56.189
				c-0.412,6.601-2.287,12.439-6.222,17.677c-3.655,4.865-8.226,6.892-14.228,5.384c-0.432-0.109-0.787-0.438-0.948-0.853
				c-1.712-4.418-3.231-8.593-4.965-12.678c-13.462-31.725-26.894-63.462-40.493-95.128c-8.038-18.718-9.827-38.004-6.262-57.948
				c0.413-2.309,0.056-4.756,0.056-7.139c-4.579,13.296-4.84,43.071-0.755,56.522c2.818,9.282,5.874,18.536,9.556,27.502
				c12.073,29.403,24.48,58.668,36.757,87.988c3.675,8.776,7.565,10.686,16.073,6.689c3.127-1.47,9.553-7.823,12.371-9.952
				c1.1-0.831,2.609,0.284,2.135,1.578c-3.715,10.154-11.48,24.241-22.71,29.574c-0.735,0.349-1.617,0.011-1.912-0.747
				c-3.402-8.733-6.228-16.489-9.481-24.062c-10.829-25.209-21.78-50.365-32.811-75.487c-2.654-6.045-5.795-11.876-8.7-17.787
				c-0.02-0.041-0.036-0.077-0.053-0.121c-0.26-0.691-3-7.794-3.019-8.542c-2.316-8.111-1.811-7.653-4.512-14.825
				c-4.45-11.816-5.707-24.034-4.331-36.466c1.977-17.864,5.082-35.609,6.84-53.49c0.758-7.711-0.059-13.216,1.42-23.314
				C142.29-173.808,142.295-173.857,142.296-173.904z"/>
			<path fill="#3F221A" d="M389.559-813.032c8.433,0.41,8.433,0.41,9.804,8.775c-3.889,6.527-8.191,12.035-11.533,18.074
				c-18.8,33.968-37.635,67.923-55.772,102.245c-3.276,6.2-4.281,14.029-4.741,21.208c-1.573,24.509-6.397,48.461-13.403,71.793
				c-14.724,49.035-30.278,97.827-46.071,146.531c-13.115,40.446-25.129,81.176-32.608,123.049
				c-3.337,18.681-4.639,37.727-6.806,56.613c-0.472,4.117,0.503,7.594,3.317,11.085c24.845,30.815,27.768,65.506,17.536,102.394
				c-1.252,4.513-2.649,8.989-3.759,13.536c-2.504,10.257-1.054,19.87,4.697,28.864c2.518,3.938,4.687,8.12,6.764,12.316
				c10.492,21.194,1.069,47.748-20.554,57.273c-3.523,1.552-7.736,2.019-11.647,2.094c-5.258,0.101-8.893-2.895-10.144-8.065
				c-1.018-4.206-1.662-8.515-2.257-12.808c-2.73-19.688-11.018-37.505-18.343-57.946c-4.289,9.704-6.637,17.504-5.473,25.896
				c2.223,16.017,7.265,31.204,14.041,45.866c5.613,12.143,11.528,24.187,16.334,36.652c5.553,14.402,9.56,29.203,6.114,45.053
				c-0.732,3.369,1.492,7.309,1.064,10.83c-1.524,12.557-6.002,24.033-14.976,33.233c-6.924,7.098-11.067,7.151-20.673,3.747
				c-4.007-1.42-8.428-1.67-13.038-2.101c-2.721-0.254-5.043-2.081-5.931-4.666l-0.016-0.046
				c-10.919-31.986-22.151-63.871-32.55-96.026c-5.032-15.557-8.975-31.519-12.428-47.509c-1.453-6.726-1.345-14.156-0.263-21
				c4.582-28.976,9.797-57.851,15.414-87.261c0.268,0.47,2.014-6.179,1.994-5.666c-0.357,9.003-2.078,21.308-2.79,28.554
				c-1.758,17.881-4.864,35.626-6.84,53.49c-1.376,12.432,0.472,24.609,4.921,36.424c2.701,7.172,5.133,18.346,7.872,25.312
				c-0.142-0.204-1.144-0.397-1.283-0.604c-8.553-12.7-11.563-30.354-15.006-46.672c-1.801,12.073,0.53,21.865,3.71,31.332
				c13.854,41.251,28.001,82.403,42.068,123.582c1.526,4.468,4.686,6.185,8.312,4.507c4.171-1.931,3.351-5.049,1.959-8.461
				c-10.235-25.096-20.619-50.134-30.466-75.381c-3.75-9.613-9.912-19.272-10.488-29.986c-0.015-0.288,0.277,0.108,0.269-0.183
				c2.929,5.951,6.083,11.804,8.747,17.871c11.031,25.121,21.982,50.278,32.811,75.487c2.576,5.997,4.884,12.109,7.423,18.73
				c1.457,3.799,6.185,5.244,9.41,2.764c8.528-6.56,11.644-16.592,15.218-26.332c-4.13,2.86-7.97,6.34-12.454,8.447
				c-8.508,3.998-12.398,2.088-16.073-6.689c-12.276-29.319-24.684-58.585-36.757-87.988c-3.681-8.966-6.737-18.22-9.556-27.502
				c-4.085-13.451-3.823-43.226,0.755-56.522c0,2.383,0.357,4.83-0.056,7.139c-3.565,19.944-1.776,39.23,6.262,57.948
				c13.599,31.666,27.031,63.404,40.493,95.128c1.82,4.289,3.404,8.678,5.223,13.344c6.343,1.845,11.124-0.147,14.918-5.197
				c3.935-5.238,5.81-11.076,6.222-17.677c1.25-20.034-5.009-38.261-12.807-56.189c-6.8-15.635-14.428-30.922-18.133-47.779
				c-3.446-15.68-4.13-30.945,2.776-46.019c1.211-2.645,0.837-6.452,0.116-9.464c-2.101-8.771-4.788-17.4-7.144-26.112
				c-0.135-0.499-0.21-1.013-0.193-1.55c0.044-1.375,1.971-1.672,2.438-0.378c0.218,0.605,0.436,1.211,0.653,1.817
				c4.275,11.955,7.763,24.268,12.991,35.791c9.984,22.004,19.671,43.935,21.313,68.512c0.369,5.53,3.681,7.301,9.23,5.598
				c22.923-7.032,29.75-30.963,22.398-48.394c-1.688-4.002-3.495-8.081-5.994-11.593c-9.894-13.901-9.865-28.769-4.478-44.026
				c8.152-23.087,9.364-46.322,2.983-70.015c-3.282-12.185-8.489-23.276-17.255-32.426c-4.386-4.578-5.361-9.813-4.534-15.736
				c0.507-3.631,1.413-7.271,1.384-10.902c-0.2-25.554,4.305-50.534,9.109-75.46c7.608-39.475,19.252-77.866,31.222-116.19
				c14.761-47.261,29.543-94.529,43.161-142.125c5.393-18.849,7.088-38.727,11.64-57.857c2.128-8.946,6.908-17.29,10.755-25.785
				c1.787-3.946,4.34-7.537,6.334-11.399c11.677-22.618,23.305-45.261,34.906-67.918c1.369-2.675,2.476-5.484,4.341-9.387
				C380.739-793.862,385.149-803.447,389.559-813.032z"/>
			<path fill="#6E4438" d="M156.11-6.918c9.848,25.247,20.232,50.286,30.466,75.381c1.392,3.412,2.212,6.53-1.959,8.461
				c-3.625,1.678-6.786-0.039-8.312-4.507C162.24,31.238,148.093-9.914,134.238-51.165c-3.18-9.467-5.511-19.259-3.71-31.332
				c3.498,16.584,8.214,29.616,14.78,45.15C145.589-36.683,152.26-16.79,156.11-6.918z"/>
		</g>
	</g>
</g>
</svg>
