<?xml version="1.0" encoding="utf-8"?>
<!-- Generator: Adobe Illustrator 27.7.0, SVG Export Plug-In . SVG Version: 6.00 Build 0)  -->
<svg version="1.1" id="Layer_1" xmlns="http://www.w3.org/2000/svg" xmlns:xlink="http://www.w3.org/1999/xlink" x="0px" y="0px"
	 viewBox="0 0 140 140" enable-background="new 0 0 140 140" xml:space="preserve">
<g>
	
		<ellipse id="Ellipse_891_00000005964716488048450410000003806494722649672332_" fill="#F1F1F1" cx="70" cy="70" rx="68.57" ry="68.57"/>
	<g>
		<defs>
			<ellipse id="Ellipse_891_00000137125417520389913530000016857608575841459073_" cx="70" cy="70" rx="68.57" ry="68.57"/>
		</defs>
		<clipPath id="Ellipse_891_00000104676307218734561220000015700832410541644991_">
			<use xlink:href="#Ellipse_891_00000137125417520389913530000016857608575841459073_"  overflow="visible"/>
		</clipPath>
		<g clip-path="url(#Ellipse_891_00000104676307218734561220000015700832410541644991_)">
			<path fill="#6E4438" d="M82.41,108.554c-1.571,0.78-3.787,2.129-5.348,2.679c-1.7,0.599-2.281,0.91-4.058,1.201
				c-0.869,0.142-3.789,0.249-4.679,0.011c-3.942-1.052-7.547-2.958-10.808-5.353c-2.166-1.591-4.519-3.731-6.405-5.641
				c-3.653-3.701-6.622-7.905-8.205-12.935c-0.989-3.142-2.464-6.209-2.461-9.541c0.004-3.678-0.689-7.222-0.809-10.899
				c-0.027-0.842-0.238-1.898-0.284-2.855c-0.007-0.145,0.171-15.465,0.496-16.714c0.316-1.213,10.647-11.444,12.012-12.551
				c1.428-1.158,6.682-3.257,7.983-3.983c1.348-0.753,7.878-3.119,9.644-3.203c1.819-0.087,10.231,1.515,11.339,2.102
				c1.118,0.592,4.981,3.568,6.153,4.61c1.167,1.038,3.644,2.644,5.475,3.514c1.339,0.926,1.014,3.256,2.424,4.079
				c0.694,0.405,1.458,2.032,2.257,2.22c0.406,0.096,2.695,7.138,2.646,7.265c-0.024,0.062-0.357,2.296,0.943,4.013
				c0.19,0.251,0.148,4.853,0.656,6.184c0.304,0.798-0.498,2.918-0.614,3.749c-0.488,3.5-0.567,7.016-0.593,10.546
				c-0.025,3.531-0.502,6.977-1.454,10.381c-1.174,4.197-3.417,8.388-6.13,11.799C89.45,103.177,82.41,108.554,82.41,108.554z
				 M60.756,92.308C60.756,92.308,60.794,92.286,60.756,92.308 M65.789,83.486C65.789,83.486,65.777,83.465,65.789,83.486
				 M57.227,58.101C57.227,58.101,57.25,58.089,57.227,58.101 M84.656,58.101"/>
			<polygon fill="#FAFCFC" points="81.329,66.509 82.582,73.089 78.843,71.856 76.175,70.049 76.704,69.053 			"/>
			<path fill="#FAFCFC" d="M93.575,67.205l-4.783-0.837l0.305,1.404l0.318,2.067l-1.328,2.21l1.691-0.288l2.199-1.807
				c0,0,1.091-1.396,1.356-1.977C93.401,67.828,93.575,67.205,93.575,67.205z"/>
			<polygon fill="#FAFCFC" points="60.32,66.509 59.067,73.089 62.806,71.856 65.474,70.049 64.945,69.053 			"/>
			<polygon fill="#FAFCFC" points="48.105,67.165 52.888,66.328 52.583,67.732 52.265,69.799 53.593,72.009 51.902,71.721 
				49.702,69.914 48.275,67.796 			"/>
			<path fill="#F87360" d="M30.631,165.583c-0.004,0.295-0.055,0.654-0.071,1.469c-0.001,0.056-0.021,0.112-0.058,0.154
				c-0.184,0.211-0.405,0.408-0.412,0.503c-0.249,3.36-0.551,6.719-0.695,10.085c-0.111,2.598-0.022,5.204-0.017,7.806
				c0.001,0.392-0.123,0.905,0.073,1.153c0.64,0.809,0.356,1.515-0.001,2.24c-0.052,0.105-0.171,0.159-0.284,0.128
				c-4.875-1.352-9.587-3.107-13.901-5.797c-2.984-1.861-5.586-4.145-7.558-7.102c-0.692-1.037-0.773-1.866-0.061-3.057
				c4.521-7.555,8.374-15.445,11.411-23.718c1.15-3.133,2.255-6.283,3.349-9.436c1.367-3.942,3.611-7.161,7.359-9.199
				c3.449-1.875,6.825-3.892,10.335-5.643c3.959-1.974,8.144-3.409,12.436-4.506c0.282-0.072,0.572-0.115,0.861-0.146
				c0.063-0.007,0.132,0.037,0.252,0.097c0.077,0.039,0.127,0.116,0.133,0.202c0.014,0.2,0.042,0.43-0.015,0.636
				c-2.35,8.451,3.582,17.177,12.051,19.099c6.14,1.393,11.686,0.236,16.528-3.869c3.351-2.842,5.282-6.469,6.058-10.798
				c0.304-1.695,0.071-3.309-0.207-5.054c-0.024-0.149,0.093-0.285,0.244-0.282c0.299,0.005,0.548,0,0.781,0.059
				c4.148,1.055,8.147,2.524,12.07,4.237c4.158,1.816,8.005,4.176,11.834,6.564c3.073,1.916,5.005,4.752,6.232,8.137
				c1.922,5.305,3.809,10.628,5.912,15.862c2.197,5.47,4.91,10.705,7.847,15.819c0.489,0.851,0.972,1.707,1.499,2.534
				c0.394,0.618,0.346,1.171-0.015,1.781c-1.086,1.832-2.408,3.479-4.018,4.86c-4.465,3.832-9.771,6.553-15.485,8.095
				c-0.116,0.031-0.236-0.027-0.287-0.136c-0.36-0.77-0.554-1.672-0.831-2.323c-0.189-0.443-1.654-4.575-1.737-4.851
				c-0.354-1.169-0.661-2.355-1.06-3.508c-0.137-0.396-0.456-0.73-0.71-1.086c-0.036-0.051-0.051-0.114-0.042-0.175
				c0.241-1.763,0.613-3.522,0.677-5.292c0.115-3.177,0.201-6.372-0.013-9.538c-0.17-2.525-0.769-5.026-1.252-7.523
				c-0.175-0.907-0.518-1.793-0.879-2.649c-0.192-0.454-0.534-0.844-0.831-1.253c-0.061-0.084-0.166-0.122-0.265-0.093l0,0
				c-0.101,0.029-0.172,0.119-0.176,0.224c-0.011,0.286-0.04,0.576,0.013,0.85c0.46,2.405,0.993,4.797,1.408,7.209
				c0.542,3.153,0.57,6.311,0.288,9.517c-0.503,5.714-2.148,11.155-3.6,16.647c-1.041,3.937-1.925,7.902-2.405,11.95
				c-0.196,1.652-0.445,3.302-0.563,4.96c-0.36,5.058,0.524,9.966,1.876,14.813c1.335,4.786,3.105,9.413,5.063,13.971
				c1.104,2.57,2.267,5.115,3.397,7.674c0.464,1.052,0.449,1.301-0.654,1.87c-2.265,1.167-4.541,2.333-6.891,3.312
				c-6.321,2.631-12.921,4.35-19.631,5.622c-2.639,0.501-5.331,0.825-8.014,0.971c-3.965,0.216-7.949,0.388-11.912,0.23
				c-3.314-0.132-6.628-0.647-9.907-1.198c-5.964-1.001-11.767-2.657-17.453-4.707c-3.329-1.201-6.574-2.6-9.599-4.463
				c-0.169-0.104-0.324-0.232-0.542-0.4c-0.085-0.066-0.118-0.18-0.079-0.281c0.239-0.626,0.451-1.256,0.734-1.854
				c2.75-5.82,5.244-11.743,7.215-17.875c1.338-4.162,2.289-8.397,2.743-12.768c0.278-2.682-0.078-5.268-0.327-7.896
				c-0.43-4.553-1.388-9.001-2.488-13.427c-1.111-4.471-2.343-8.919-3.244-13.433c-0.649-3.25-0.912-6.558-0.609-9.931
				c0.305-3.387,0.975-6.684,1.639-9.997c0.089-0.445,0.137-0.898,0.206-1.459c0.025-0.206-0.203-0.349-0.376-0.235
				c-0.584,0.386-0.816,0.905-0.951,1.399c-0.671,2.455-1.391,4.909-1.838,7.408c-0.378,2.113-0.589,6.404-0.562,6.743
				L30.631,165.583z"/>
			<path fill="#6E4539" d="M82.492,102.919c0.218,2.318,0.483,16.262,0.467,15.479c3.325,0.13,5.064,0.504,5.148,4.233
				c0.084,3.713-1.185,7.684-3.353,10.567c-2.242,2.983-5.882,5.866-9.449,6.74c-6.095,1.494-12.788,0.455-17.171-4.2
				c-3.356-3.565-5.105-9.207-3.992-14.157c0.437-1.942,1.754-2.713,4.087-2.966c0.581-0.112,1.969-12.594,2.41-14.753
				c1.415,0.271,1.788,0.695,2.957,1.178c1.619,0.669,3.231,0.667,4.949,0.771c2.23,0.136,4.449-0.497,6.587-1.06
				c1.461-0.385,2.94-0.679,4.306-1.285C80.325,103.071,81.54,102.854,82.492,102.919z"/>
			<path fill="#6E4438" d="M101.054,73.555c0.074-0.639,0.149-1.278,0.344-2.092c0.361-0.567-0.036-1.163-0.364-0.98
				c0.111-1.334,0.216-2.669,0.336-4.003c0.028-0.307,0.146-0.607,0.16-0.913c0.073-1.57,0.069-1.575,1.462-2.004
				c2.368-0.729,4.893,0.515,5.858,2.788c0.806,1.895,0.699,3.871,0.538,5.812c-0.19,2.292-1.088,4.403-2.309,6.353
				c-0.213,0.341-0.572,0.591-1.064,0.917c-1.527-0.577-2.623-1.36-2.49-3.178C103.4,74.181,102.983,73.748,101.054,73.555
				 M102.766,69.704"/>
			<path fill="#603B34" d="M104.864,81.272c-0.492-0.268-1.882,0.184-1.393,0.812c-0.71,0.549-1.883,0.486-2.963,0.173
				c-0.084-2.418,0.085-6.05,0.346-8.592c1.043-0.109,2.016,0.279,2.222,1.138c0.053,0.22,0.363,0.378,0.554,0.565
				c-0.125,1.607,1.461,3.466,2.825,4.065C106.266,79.832,105.267,80.863,104.864,81.272z"/>
			<path fill="#42241B" d="M100.972,70.993c0.373-0.229,0.684-0.403,0.995-0.577c0.07,0.057,0.14,0.113,0.21,0.17
				c-0.228,0.372-0.456,0.744-0.755,1.176C101.204,71.565,101.057,71.307,100.972,70.993z"/>
			<path fill="#6E4438" d="M39.197,63.951c0.175,0.096,0.239,0.164,0.372,0.262c0.265,2.044,0.473,4.047,0.689,6.137
				c-0.395-0.08-0.662,0.307-1.023,0.234c0.874,0.901,1.012,1.565,1.36,2.485c-0.848,0.542-1.91,0.936-2.371,1.514
				c-0.355,0.445-0.273,1.239-0.429,2.104c-0.609,1.365-0.758,2.772-2.102,3.405c-1.683-1.312-2.492-3.188-3.127-5.115
				c-0.8-2.43-1.186-4.918-0.452-7.472c0.82-2.856,3.312-4.357,6.209-3.686C38.569,63.876,38.823,63.897,39.197,63.951
				 M38.631,69.858"/>
			<path fill="#603B34" d="M38.045,82.053c0.232-0.373-0.05-0.722,0.274-1.112c0.207-0.248-0.004-0.299-0.095-0.501
				c-0.109-0.242,0.599-0.452,0.273-0.518c-0.862-0.175-1.229,0.596-1.986,1.005c-0.316-0.116-0.696-0.669-0.96-0.911
				c1.344-0.744,1.499-2.202,2.134-3.485c0.26-0.516,0.07-0.912,0.291-1.32c0.328-0.607,1.247-0.896,2.056-0.917
				c0.455,1.311,0.118,2.667,0.244,3.981c0.127,1.329,0.593,2.65,0.09,4.064C39.616,82.248,38.901,82.163,38.045,82.053z"/>
			<path fill="#57362F" d="M76.066,69.857c-0.179-1.327,0.283-2.533,0.826-3.676c1.539-3.239,4.302-6.427,7.316-5.983
				c2.296,0.466,4.596,1.012,6.49,2.483c1.3,1.009,2.481,2.229,2.877,3.929c-1.35-0.33-2.602-0.742-3.845-1.179
				c-1.49-0.525-3.014-0.828-4.597-0.688c-3.398,0.3-6.345,1.467-8.364,4.402C76.583,69.415,76.303,69.621,76.066,69.857z"/>
			<path fill="#57362F" d="M48.105,67.165c-0.073-1.04,0.569-2.115,1.17-2.823c1.656-1.949,3.991-2.74,6.4-3.395
				c0.658-0.179,1.333-0.297,2.053-0.454c2.428-0.906,5.397,2.485,6.926,5.244c0.715,1.29,1.234,2.64,0.989,4.177
				c-2.497-4.203-8.589-5.837-12.804-4.396C51.31,66.04,49.642,66.663,48.105,67.165z"/>
			<path fill="#25262A" d="M95.376,57.137c0.63,0.816,1.574,1.333,1.758,2.508c0.021,0.137-0.125,0.24-0.245,0.171
				c-1.641-0.938-3.116-1.881-4.69-2.61c-1.638-0.758-3.356-1.388-5.097-1.863c-1.791-0.489-3.649-0.824-5.527-0.508
				c-1.694,0.285-3.377,0.633-5.217,0.987c-0.118,0.023-0.219-0.084-0.193-0.201c0.377-1.678,1.321-2.803,2.676-3.628
				c1.995-1.215,4.186-1.351,6.408-0.952c3.127,0.561,5.791,2.096,8.156,4.171C94.067,55.794,94.672,56.443,95.376,57.137
				 M81.772,54.118c1.316,0.054,2.645,0.012,3.946,0.183c2.544,0.335,4.915,1.253,7.205,2.393c0.179,0.089,0.38,0.132,0.581,0.175
				c0.127,0.027,0.237-0.098,0.188-0.219c-0.153-0.378-0.366-0.652-0.634-0.853c-0.978-0.732-1.945-1.495-2.996-2.108
				c-2.668-1.557-5.499-2.546-8.651-1.91c-1.567,0.316-2.895,1.026-3.847,2.629c-0.071,0.119,0.028,0.268,0.165,0.248
				C79.119,54.458,80.326,54.289,81.772,54.118 M94.379,57.217"/>
			<path fill="#25262A" d="M49.279,54.551c2.341-1.777,4.779-3.111,7.625-3.53c2.845-0.418,5.502-0.077,7.593,2.151
				c0.621,0.662,1.114,1.42,1.26,2.542c0.015,0.116-0.091,0.211-0.203,0.182c-2.397-0.625-4.684-1.282-7.054-1.137
				c-2.458,0.151-4.888,0.617-7.127,1.665c-2.149,1.005-4.142,2.153-6.289,3.292c-0.096,0.051-0.3-0.045-0.322-0.151
				c-0.106-0.498,0.35-0.87,0.679-1.213C46.662,57.077,47.938,55.855,49.279,54.551 M52,53.581c-1.24,0.888-2.631,1.601-3.587,2.853
				c-0.1,0.131,0.035,0.312,0.189,0.253c2.486-0.968,4.91-2.015,7.553-2.396c2.711-0.39,5.392-0.232,8.068,0.39
				c0.145,0.034,0.257-0.127,0.174-0.25c-1.469-2.166-3.608-3.006-6.096-2.859c-2.149,0.128-4.225,0.758-6.29,2.003
				C52.008,53.576,52.004,53.578,52,53.581z"/>
			<path fill="#42241B" d="M64.759,82.738c-1.075-1.168-1.104-1.979,0.061-3.136c1.024-1.017,1.981-2.084,2.471-3.436
				c0.446-1.232,0.866-2.524,0.974-3.816c0.162-1.939,0.317-3.927,0.042-5.741c0.478,0.561,0.855,1.833,0.877,3.306
				c0.019,1.276,0.107,2.564-0.026,3.827c-0.132,1.246-0.503,2.466-0.751,3.612c1.321,0.134,2.643,0.132,3.895,0.429
				c1.695,0.402,3.033,1.358,3.531,3.181c0.151,0.554,0.159,1.04-0.416,1.632c0.155-1.625-0.747-2.412-1.853-3.039
				c-2.314-1.313-4.675-1.3-7.039-0.154c-1.266,0.614-1.985,1.584-1.752,3.201C64.765,82.73,64.759,82.738,64.759,82.738z"/>
			<path fill="#42241B" d="M65.059,83.025c-0.093-0.031-0.17-0.085-0.265-0.226c-0.035-0.062-0.028-0.07-0.024-0.074
				c0.1,0.027,0.175,0.084,0.26,0.233C65.059,83.025,65.059,83.025,65.059,83.025z"/>
			<path fill="#42241B" d="M65.06,83.025c0.033,0.037,0.066,0.074,0.1,0.112c-0.024-0.012-0.047-0.025-0.086-0.074
				C65.059,83.025,65.059,83.025,65.06,83.025z"/>
			<path fill="#454C55" d="M81.633,54.119c-1.343,0.173-2.562,0.346-3.987,0.548c-0.101,0.014-0.178-0.094-0.127-0.182
				c0.955-1.658,2.3-2.385,3.892-2.707c3.152-0.636,5.983,0.354,8.651,1.91c1.051,0.613,2.018,1.376,2.996,2.108
				c0.276,0.207,0.494,0.492,0.648,0.889c0.041,0.105-0.054,0.215-0.164,0.191c-0.214-0.046-0.43-0.089-0.62-0.183
				c-2.29-1.139-4.661-2.057-7.205-2.393C84.418,54.13,83.088,54.172,81.633,54.119z"/>
			<path fill="#823E42" d="M63.285,94.236c-0.036-0.039-0.065-0.085-0.094-0.131c0.028,0.011,0.055,0.022,0.098,0.072
				C63.304,94.215,63.292,94.229,63.285,94.236z"/>
			<path fill="#454C55" d="M52.102,53.527c1.971-1.197,4.049-1.828,6.199-1.956c2.512-0.149,4.666,0.708,6.137,2.919
				c0.068,0.102-0.024,0.235-0.144,0.207c-2.699-0.635-5.404-0.8-8.139-0.406c-2.698,0.388-5.168,1.471-7.708,2.456
				c-0.106,0.041-0.203-0.082-0.136-0.175C49.27,55.23,50.726,54.496,52.102,53.527z"/>
			<path fill="#42241B" d="M58.184,119.243c0.013-0.273,0.039-0.643,0.104-1.132c0.417-3.294,0.767-6.276,1.126-9.309
				c0.002-0.019-0.007-0.038-0.023-0.049c-9.605-6.239-16.796-14.098-18.793-25.817c-0.004-0.026-0.029-0.044-0.055-0.041
				c-2.001,0.23-3.65-0.485-5.283-1.476c-0.002-0.001-0.004-0.003-0.006-0.004c-0.294-0.239-0.546-0.399-0.798-0.559
				c-0.004-0.002-0.007-0.005-0.01-0.008c-3.466-3.681-4.853-8.014-3.93-13c0.429-2.32,1.707-4.056,4.228-4.908
				c0.002-0.001,0.005-0.001,0.007-0.002c0.405-0.085,0.622-0.12,0.969-0.145c0.003,0,0.005,0,0.008,0
				c1.262,0.094,2.395,0.179,3.677,0.274c0.034,0.003,0.062-0.029,0.055-0.062c-0.163-0.797-0.338-1.529-0.447-2.27
				c-0.044-0.297,0.066-0.616,0.201-0.974c0-0.001,0.001-0.002,0.001-0.003c0.29-0.642,0.503-1.245,0.732-1.755
				c0.021-0.047,0.09-0.035,0.096,0.016c0.411,3.398,0.911,6.673,1.123,9.967c0.248,3.85,0.219,7.718,0.334,11.577
				c0.121,4.059,1.062,7.942,2.751,11.621c2.751,5.992,7.054,10.713,12.266,14.657c3.058,2.314,6.37,4.176,9.948,5.572
				c2.729,1.065,5.47,1.282,8.25,0.265c1.3-0.476,2.63-0.91,3.86-1.532c7.073-3.575,12.659-8.76,16.706-15.591
				c1.421-2.399,2.441-4.95,3.133-7.758c1.166-3.823,1.218-7.663,1.327-11.637c0.242-3.378,0.382-6.627,0.717-9.856
				c0.216-2.082,0.697-4.136,1.113-6.111c0.011-0.05,0.08-0.054,0.098-0.006c0.27,0.732,0.498,1.393,0.658,2.134
				c0.001,0.006,0.001,0.012,0.001,0.017c-0.076,0.635-0.078,1.183-0.078,1.838c0,0.035,0.035,0.061,0.069,0.049
				c1.511-0.539,2.909-0.476,4.398-0.127c0.001,0,0.002,0.001,0.003,0.001c0.215,0.065,0.883,0.289,1.065,0.391
				c1.988,1.106,2.766,3.094,3.011,5.274c0.459,4.091-0.585,7.818-3.315,11.179c-0.001,0.002-0.003,0.003-0.004,0.005
				c-0.375,0.373-0.61,0.635-0.942,0.938c-1.761,1.48-3.662,2.264-5.921,2.008c-0.026-0.003-0.05,0.014-0.056,0.04
				c-0.146,0.615-0.284,1.124-0.383,1.64c-1.006,5.257-3.227,9.956-6.494,14.177c-2.689,3.475-5.819,6.496-9.486,8.912
				c-1.062,0.7-1.412,1.44-1.303,2.664c0.179,2.02,0.236,3.898,0.344,5.925c0.031,0.585,0.115,1.311,0.108,1.9
				c-0.001,0.13,0.025,0.627,0.04,1.093c0.006,0.816-0.002,1.312-0.002,1.932c0,0.165-0.143,0.072-0.16,0.017
				c-0.731-2.273-0.671-4.617-0.973-7.045c-0.138-1.589-0.288-3.054-0.452-4.664c-0.004-0.034-0.04-0.056-0.072-0.042
				c-0.54,0.23-0.893,0.351-1.215,0.529c-2.174,1.204-4.467,2.118-6.896,2.609c-1.137,0.23-2.345,0.335-3.495,0.226
				c-3.093-0.292-5.912-1.494-8.646-2.907c-0.27-0.14-0.57-0.223-0.977-0.374c-0.031-0.011-0.065,0.008-0.07,0.041
				c-0.26,1.858-0.501,3.58-0.797,5.405c-0.238,1.216-0.361,2.34-0.619,3.433c-0.221,0.937-0.392,2.477-0.811,3.356
				c-0.127,0.333-0.479,0.319-0.428-0.132L58.184,119.243 M102.362,70.431c-0.543,0.891-1.223,1.831-1.141,2.834
				c0.001,0.014,0.015,0.024,0.027,0.031c0.613,0.306,1.517,0.37,1.994,0.979c0.476,0.608,0.632,1.275,0.39,1.943
				c-0.015,0.043-0.076,0.044-0.094,0.002c-0.099-0.221-0.216-1.217-1.025-1.519c-0.321-0.12-0.714-0.171-1.371-0.049
				c-0.023,0.004-0.041,0.024-0.043,0.048c-0.109,2.384-0.218,4.789-0.334,7.329c-0.001,0.029,0.023,0.054,0.052,0.054
				c2.015-0.007,3.578-0.56,4.817-2.114c0.117-0.146,0.953-0.992,1.169-1.31c2.179-3.203,3.087-6.747,2.423-10.563
				c-0.622-3.572-3.541-5.157-6.988-3.791c-0.013,0.005-0.023,0.015-0.029,0.027c-0.901,1.877-0.781,4.044-0.908,6.035
				c-0.002,0.03,0.023,0.055,0.053,0.055c0.177,0,0.546-0.166,0.603-0.196c0.186-0.099,0.494-0.312,0.555-0.297
				C102.614,69.954,102.487,70.256,102.362,70.431 M37.689,76.089c0.09-0.512,0.03-0.909,0.221-1.46
				c0.138-0.397,0.329-0.543,0.466-0.663c0.425-0.373,1.028-0.468,1.539-0.701c0.014-0.006,0.025-0.019,0.029-0.033
				c0.284-0.997-0.025-1.527-0.624-2.172c-0.262-0.282-0.562-0.48-0.69-0.594c-0.074-0.066-0.197-0.128-0.109-0.318
				c0.052-0.111,0.34-0.061,0.485-0.018c0.157,0.047,0.653,0.096,0.982,0.139c0.032,0.004,0.062-0.023,0.059-0.055
				c-0.105-1.531-0.214-2.976-0.301-4.424c-0.079-1.316-0.088-1.342-1.713-1.839c-0.002-0.001-0.004-0.001-0.005-0.001
				c-2.72-0.59-4.913,0.668-5.8,3.282c-0.624,1.838-0.64,3.694-0.22,5.559c0.593,2.63,1.433,5.15,3.642,7.195
				c1.214,1.295,2.697,1.953,4.659,2.067c0.031,0.002,0.057-0.024,0.055-0.055c-0.148-2.591-0.285-5.012-0.423-7.435
				c-0.001-0.026-0.023-0.047-0.048-0.049c-0.847-0.06-1.301,0.253-1.615,0.788c-0.182,0.31-0.332,0.639-0.501,0.829
				C37.744,76.17,37.68,76.141,37.689,76.089z"/>
			<g>
				<path fill="#A8874A" d="M102.722,79.75c0.119,0.103,1.273,0.126,2.546,1.753c0.265,0.338,0.426,0.588,0.59,0.985
					c1.017,2.46,1.493,4.977,1.332,7.608c-0.112,1.819-0.322,3.624-1.333,5.213c-0.822,1.292-2.228,2.202-3.529,2.243
					c-0.92,0-2.867-0.972-3.558-2.449c-1.018-2.38-0.326-4.788-0.035-5.385c0.241,0.792,0.135,2.271,0.236,2.999
					c0.25,1.808,1.352,2.55,2.819,3.486c0.437,0.279,0.767,0.221,1.205-0.039c1.791-1.065,2.595-2.314,3.039-4.232
					c0.541-2.34,0.344-4.678-0.171-6.992C105.588,83.705,103.058,80.972,102.722,79.75z"/>
				<path fill="#DEB565" d="M104.888,81.882c0.484,0.98,0.942,2.036,1.168,3.048c0.515,2.313,0.519,4.661-0.022,7.001
					c-0.444,1.918-1.248,3.314-3.039,4.378c-0.438,0.261-0.768,0.318-1.205,0.039c-1.468-0.936-2.699-1.789-2.949-3.597
					c-0.097-0.7-0.139-1.037-0.252-2.173c-0.006-0.063-0.003-0.198,0.011-0.26c0.492-2.261,1.392-5.246,1.954-7.348
					c0.009-0.058,0.015-0.084,0.123-0.072c0.164,0.018,0.293,0.033,0.478,0.038c0.136,0.004,0.028,0.4-0.017,0.544
					c-0.694,2.2-1.402,4.692-1.316,6.913c0.071,1.851,0.885,3.042,2.323,3.952c0.125,0.079,0.279,0.098,0.418,0.046
					c0.097-0.036,0.179-0.07,0.24-0.126c0.214-0.198,0.404-0.365,0.566-0.605c2.344-3.454,2.211-7.07,0.672-10.766
					c-0.08-0.193-1.738-2.047-2.115-2.475c-0.179-0.203-0.185-0.584,0.067-0.68C103.065,79.332,104.478,81.052,104.888,81.882z"/>
				<path fill="#A8874A" d="M101.985,82.923c-0.79,2.269-1.487,5.003-1.205,7.432c0.116,1.004,0.311,2.018,1.312,2.644
					c0.098,0.061,0.226,0.056,0.312-0.02c0.941-0.821,1.359-1.908,1.549-3.042c0.126-0.755,0.3-2.357,0.203-3.797
					c-0.061-0.906-0.257-1.742-0.394-2.307c-0.359-1.487-1.605-2.858-1.602-3.148c0.189,0.073,1.343,1.149,1.879,2.209
					c1.539,3.695,1.671,7.312-0.672,10.766c-0.163,0.24-0.453,0.602-0.688,0.716c-0.209,0.101-0.458,0.079-0.652-0.048
					c-1.378-0.904-2.137-2.125-2.207-3.936c-0.093-2.41,0.47-5.13,1.333-7.457C101.434,82.96,101.615,82.933,101.985,82.923z"/>
			</g>
			<g>
				<path fill="#A8874A" d="M35.335,84.94c-0.515,2.313-0.712,4.651-0.171,6.992c0.444,1.918,1.248,3.167,3.039,4.232
					c0.438,0.261,0.768,0.318,1.205,0.039c1.468-0.936,2.569-1.678,2.819-3.486c0.101-0.728-0.021-2.274,0.22-3.066
					c0.291,0.598,1.091,2.909-0.019,5.453c-0.692,1.477-2.638,2.449-3.558,2.449c-1.301-0.041-2.707-0.951-3.529-2.243
					c-1.01-1.588-1.221-3.393-1.333-5.213c-0.161-2.631,0.315-5.148,1.332-7.608c0.164-0.397,0.325-0.647,0.59-0.985
					c1.273-1.627,2.428-1.65,2.546-1.753C38.14,80.972,35.611,83.705,35.335,84.94z"/>
				<path fill="#DEB565" d="M39.206,79.74c0.253,0.096,0.246,0.477,0.067,0.68c-0.376,0.428-2.034,2.283-2.115,2.475
					c-1.539,3.695-1.671,7.312,0.672,10.766c0.163,0.24,0.353,0.406,0.566,0.605c0.061,0.056,0.143,0.09,0.24,0.126
					c0.139,0.052,0.293,0.033,0.418-0.046c1.437-0.909,2.251-2.101,2.323-3.952c0.086-2.221-0.622-4.713-1.316-6.913
					c-0.045-0.144-0.153-0.54-0.017-0.544c0.185-0.005,0.314-0.02,0.478-0.038c0.108-0.012,0.114,0.014,0.123,0.072
					c0.562,2.103,1.462,5.087,1.954,7.348c0.013,0.062,0.017,0.197,0.011,0.26c-0.114,1.136-0.156,1.473-0.252,2.173
					c-0.25,1.808-1.482,2.661-2.949,3.597c-0.437,0.279-0.767,0.221-1.205-0.039c-1.791-1.065-2.595-2.46-3.039-4.378
					c-0.541-2.34-0.537-4.688-0.022-7.001c0.225-1.012,0.684-2.068,1.168-3.048C36.721,81.052,38.134,79.332,39.206,79.74z"/>
				<path fill="#A8874A" d="M40.045,82.936c0.863,2.327,1.426,5.047,1.333,7.457c-0.07,1.811-0.829,3.032-2.207,3.936
					c-0.194,0.127-0.443,0.149-0.652,0.048c-0.235-0.114-0.769-0.492-0.932-0.731c-2.344-3.454-1.968-7.056-0.429-10.751
					c0.536-1.061,1.691-2.136,1.879-2.209c0.002,0.29-1.243,1.661-1.602,3.148c-0.137,0.565-0.333,1.401-0.394,2.307
					c-0.097,1.44,0.077,3.042,0.203,3.797c0.19,1.134,0.608,2.221,1.549,3.042c0.087,0.076,0.215,0.081,0.312,0.02
					c1.001-0.627,1.195-1.641,1.312-2.644c0.282-2.43-0.415-5.163-1.205-7.432C39.584,82.933,39.764,82.96,40.045,82.936z"/>
			</g>
			<g>
				<g>
					<path d="M75.956,70.156c0,0,3.739,4.117,9.443,3.437c5.704-0.68,7.894-4.948,8.083-6.081c0,0-1.435,2.946-4.986,4.344
						c-3.551,1.398-7.101,1.775-12.087-1.889L75.956,70.156z"/>
					<ellipse cx="84.859" cy="68.987" rx="4.925" ry="4.43"/>
					<ellipse fill="#22211E" cx="84.793" cy="69.03" rx="4.311" ry="3.877"/>
					<path fill="#FAFCFC" d="M81.758,67.812c0.045-0.301,0.234-0.797,0.971-0.944c1.083-0.217,0.982,0.968,0.679,1.531
						c-0.303,0.563-0.751,0.881-1.271,0.462C81.617,68.442,81.737,67.953,81.758,67.812z"/>
					<path d="M97.335,66.416c0,0-1.889,1.662-6.686,0.68c-4.797-0.982-6.95-1.171-10.841,0.642
						c-3.891,1.813-3.399,2.229-3.399,2.229l-0.453,0.189c0,0,0.996-4.403,7.043-5.698c5.036-1.079,8.025,1.58,10.288,1.976
						C95.068,66.746,97.335,66.416,97.335,66.416z"/>
				</g>
				<g>
					<path d="M65.731,70.156c0,0-3.739,4.117-9.443,3.437c-5.704-0.68-7.894-4.948-8.083-6.081c0,0,1.435,2.946,4.986,4.344
						c3.551,1.398,7.101,1.775,12.087-1.889L65.731,70.156z"/>
					<ellipse cx="56.827" cy="68.987" rx="4.925" ry="4.43"/>
					<ellipse fill="#22211E" cx="56.894" cy="69.03" rx="4.311" ry="3.877"/>
					<path fill="#FAFCFC" d="M53.75,67.812c0.045-0.301,0.234-0.797,0.971-0.944c1.083-0.217,0.982,0.968,0.679,1.531
						c-0.303,0.563-0.751,0.881-1.271,0.462S53.728,67.953,53.75,67.812z"/>
					<path d="M44.352,66.416c0,0,1.889,1.662,6.686,0.68c4.797-0.982,6.95-1.171,10.841,0.642c3.891,1.813,3.399,2.229,3.399,2.229
						l0.453,0.189c0,0-1.007-4.057-7.026-5.477c-4.982-1.176-7.358,1.053-10.305,1.755C46.64,66.853,44.352,66.416,44.352,66.416z"
						/>
				</g>
				<g>
					<g>
						<path fill="#4A2D26" d="M76.034,70.156c0,0-0.527-4.11,2.483-7.397c2.658-2.902,3.702-2.54,6.28-4.73
							c0,0-2.047,2.148-5.053,4.795C76.661,65.539,76.034,70.156,76.034,70.156z"/>
						<path fill="#4A2D26" d="M93.56,66.434c0,0-0.419-3.096-4.701-5.104c-3.749-1.759-6.515-1.411-6.515-1.411l-1.151,0.903
							c0,0,3.485-0.796,7.72,1.268C93.149,64.153,93.56,66.434,93.56,66.434z"/>
					</g>
				</g>
				<path fill="#4A2D26" d="M65.766,70.156c0,0,0.506-4.09-2.483-7.397c-2.109-2.333-3.127-1.689-6.28-4.73
					c0,0,0.268,0.877,1.301,1.802c1.033,0.924,2.994,2.097,4.107,3.433C64.552,65.833,65.766,70.156,65.766,70.156z"/>
				<path fill="#4A2D26" d="M48.105,66.509c0,0,0.814-3.482,5.138-5.396c3.242-1.435,6.066-1.047,6.066-1.047l0.847,0.551
					c0,0-3.443-0.329-7.167,1.3C48.673,63.805,48.105,66.509,48.105,66.509z"/>
			</g>
			<path fill="#542E2A" d="M60.64,92.015c0,0,2.763,1.634,5.359-0.482c2.473-2.016,3.696-1.6,4.641-1.654
				c0.945-0.054,2.475,0.287,3.887,1.159s2.904,2.132,5.137,1.327c0,0-1.064,1.109-2.011,2.488c-0.666,0.97-0.983,2.02-2.202,2.921
				c-1.406,1.04-3.889,1.17-4.631,1.15c-1.017-0.027-3.973,0.228-5.88-2.137C64.14,95.794,61.558,92.635,60.64,92.015z"/>
			<path fill="#321A1A" d="M60.292,91.771c0,0,1.342,0.794,3.264,3.545c2.367,3.388,5.363,3.897,7.219,3.906
				c1.879,0.008,4.182-0.278,5.996-2.697s1.955-3.193,2.789-4.204c0,0-2.503,3.455-4.006,4.447
				c-1.431,0.945-3.138,1.457-4.779,1.418c-2.599-0.062-4.577-0.605-6.493-2.811C62.286,93.075,60.292,91.771,60.292,91.771z"/>
			<path fill="#542E2A" d="M61.025,92.1c0,0,2.378,1.255,4.975-0.86c2.473-2.016,3.696-1.453,4.641-1.507
				c0.945-0.054,2.475,0.287,3.887,1.159c1.412,0.872,3.067,1.727,5.137,1.62c0,0-4.595,2.178-9.273,2.167
				C65.783,94.667,61.48,92.408,61.025,92.1z"/>
			<path fill="#321A1A" d="M58.705,90.541c0,0,4.635,4.552,11.803,4.432c7.145-0.12,10.485-3.163,12.474-4.835
				c0,0-4.935,3.865-12.491,3.932C62.936,94.136,58.705,90.541,58.705,90.541z"/>
			<path fill="#321A1A" d="M63.07,92.511c0,0,1.389-0.185,3.863-2.058c2.474-1.872,5.007-1.206,6.033-0.684
				c0.706,0.36,3.285,2.111,4.747,2.541c0,0-1.199-0.231-2.648-0.929c-1.443-0.695-3.283-1.21-4.411-1.21
				C67.299,90.171,66.78,92.043,63.07,92.511z"/>
			<path fill="#B3443E" d="M114.315,240.359c-0.607,0.334-1.147,0.59-1.857,0.946c-2.198,1.086-4.187,2.168-6.263,3.04
				c-9.705,4.075-19.911,5.902-30.359,6.437c-8.062,0.413-16.078-0.177-24.015-1.71c-7.263-1.403-14.286-3.517-20.847-7.005
				c-0.82-0.436-1.646-0.862-2.469-1.293c-0.416-0.275-0.832-0.549-1.341-0.834c-0.677-0.598-0.362-1.163-0.075-1.753
				c2.493-5.118,4.711-10.352,6.619-15.716c1.58-4.442,2.82-8.974,3.549-13.637c0.552-3.526,0.252-7.029-0.325-10.519
				c-0.311-1.883-0.687-3.755-1.052-5.862c-0.224-1.343-0.224-1.343-1.593-1.429c-1.73-0.226-3.333-0.393-4.924-0.631
				c-6.722-1.005-12.791-3.492-17.996-8.085c-0.503-0.523-0.968-0.957-1.432-1.391c-1.319-1.767-2.633-3.537-3.96-5.298
				c-0.477-0.633-0.411-1.207-0.04-1.893c5.686-10.512,10.324-21.496,14.658-32.615c0.374-0.959,0.669-1.95,1.056-2.903
				c1.257-3.09,3.249-5.637,6.078-7.384c3.672-2.268,7.365-4.53,11.207-6.485c6.022-3.064,12.541-5.089,19.344-6.146
				c-0.047,0.427-0.071,0.675-0.094,1.052c-2.333,0.253-2.66,0.455-3.097,2.396c-1.113,4.95,0.271,9.333,3.627,12.898
				c4.383,4.655,9.975,5.752,16.07,4.258c3.567-0.874,6.58-2.743,8.822-5.726c2.167-2.883,3.669-6.015,3.586-9.727
				c-0.084-3.73-0.484-3.842-3.812-4.219c-0.026-0.455-0.031-0.787-0.035-1.12c6.452,0.986,12.571,3.041,18.506,5.71
				c4.361,1.961,8.405,4.468,12.371,7.107c3.039,2.022,5.181,4.786,6.388,8.23c2.113,6.03,4.603,11.906,7.202,17.736
				c1.798,4.034,3.677,8.033,5.57,12.024c0.778,1.639,1.651,3.237,2.551,4.813c0.446,0.782,0.473,1.453-0.068,2.163
				c-1.308,1.715-2.61,3.434-4.055,5.267c-0.518,0.436-0.896,0.757-1.364,1.117c-3.446,3.115-7.233,5.422-11.616,6.769
				c-3.706,1.139-7.488,1.771-11.445,2.096c-1.226,0.204-1.226,0.204-1.307,1.716c-0.682,3.611-1.413,7.213-1.547,10.905
				c-0.152,4.169,0.616,8.207,1.701,12.195c1.939,7.129,4.738,13.934,7.866,20.611c0.292,0.622,0.581,1.246,0.855,1.876
				C115.407,239.381,115.39,239.424,114.315,240.359 M29.588,189.232c1.9,0.56,3.836,0.877,5.964,0.956
				c-0.662-2.298-1.239-4.467-1.913-6.606c-1.665-5.283-2.842-10.654-3.081-16.442c-0.002-0.315,0.039-1.37,0.008-1.791
				c0.195-2.194,0.238-4.415,0.625-6.575c0.448-2.5,1.167-4.954,1.838-7.408c0.165-0.602,0.473-1.241,1.386-1.631
				c-0.107,0.79-0.153,1.364-0.266,1.926c-0.664,3.313-1.334,6.61-1.639,9.997c-0.304,3.373-0.04,6.681,0.609,9.931
				c0.901,4.514,2.133,8.962,3.244,13.433c1.1,4.426,2.058,8.874,2.488,13.427c0.248,2.628,0.605,5.214,0.327,7.896
				c-0.453,4.371-1.404,8.605-2.743,12.768c-1.972,6.132-4.465,12.055-7.215,17.875c-0.308,0.652-0.533,1.343-0.8,2.024
				c0.3,0.224,0.483,0.384,0.687,0.51c3.025,1.863,6.269,3.262,9.599,4.463c5.686,2.051,11.489,3.707,17.453,4.707
				c3.279,0.55,6.593,1.066,9.907,1.198c3.962,0.158,7.947-0.013,11.912-0.23c2.682-0.146,5.374-0.471,8.014-0.971
				c6.71-1.273,13.31-2.991,19.631-5.622c2.35-0.978,4.626-2.145,6.891-3.312c1.103-0.568,1.119-0.817,0.654-1.87
				c-1.129-2.559-2.293-5.104-3.397-7.674c-1.957-4.558-3.728-9.185-5.063-13.971c-1.352-4.847-2.236-9.755-1.876-14.813
				c0.118-1.658,0.367-3.307,0.563-4.96c0.481-4.048,1.364-8.013,2.405-11.95c1.452-5.492,3.097-10.933,3.6-16.647
				c0.282-3.205,0.254-6.364-0.288-9.517c-0.415-2.412-0.948-4.804-1.408-7.209c-0.063-0.33-0.009-0.683-0.009-1.025l0.338-0.097
				c0.316,0.462,0.717,0.888,0.93,1.394c0.361,0.855,0.704,1.742,0.879,2.649c0.483,2.497,1.081,4.998,1.252,7.523
				c0.214,3.166,0.128,6.361,0.013,9.538c-0.065,1.802-0.45,3.592-0.823,5.55c-1.185,4.227-2.373,8.453-3.546,12.684
				c-0.07,0.253-0.009,0.542-0.009,0.954c1.712-0.302,3.297-0.521,4.851-0.876c1.126-0.257,2.211-0.696,3.545-1.084
				c5.674-1.638,10.942-4.077,15.457-7.953c1.609-1.381,2.932-3.028,4.018-4.86c0.362-0.61,0.41-1.163,0.015-1.781
				c-0.527-0.827-1.011-1.683-1.499-2.534c-2.937-5.114-5.651-10.349-7.847-15.819c-2.102-5.235-3.99-10.557-5.912-15.862
				c-1.227-3.385-3.159-6.221-6.232-8.137c-3.83-2.388-7.677-4.749-11.834-6.564c-3.923-1.713-7.922-3.182-12.07-4.237
				c-0.102-0.026-0.206-0.039-0.317-0.047c-0.39-0.027-0.699,0.324-0.639,0.71c0.245,1.578,0.416,3.062,0.138,4.613
				c-0.776,4.328-2.707,7.956-6.058,10.798c-4.841,4.105-10.388,5.262-16.528,3.869c-8.469-1.922-14.401-10.647-12.051-19.099
				c0.043-0.155,0.037-0.323,0.026-0.482c-0.013-0.191-0.129-0.365-0.306-0.436c-0.033-0.013-0.062-0.02-0.09-0.017
				c-0.289,0.032-0.58,0.074-0.861,0.146c-4.292,1.097-8.477,2.532-12.436,4.506c-3.51,1.75-6.886,3.768-10.335,5.643
				c-3.748,2.038-5.991,5.257-7.359,9.199c-1.094,3.153-2.199,6.303-3.349,9.436c-3.037,8.274-6.889,16.164-11.411,23.718
				c-0.712,1.19-0.631,2.02,0.061,3.057c1.972,2.957,4.574,5.241,7.558,7.102C19.637,186.05,24.417,187.815,29.588,189.232z"/>
			<path fill="#454C55" d="M36.324,38.758l1.407-3.199l4.12-1.126l-0.307-3.634l2.15-1.919l3.403-0.384l0.281-2.098l1.447-0.64
				l0.395-3.813l1.996-1.382l2.61,0.128l2.738,2.329l1.689-2.713l2.457-0.358l1.868,1.126l0.512-3.403l2.559-1.587l2.677-0.68
				l4.641,2.742l0.92,1.805l3.646-2.336l3.08,0.885l1.982,2.69l-0.341,1.595l3.674-2.065l2.36-0.241l2.789,1.689l0.429,1.904
				l-1.204,2.207l1.685-0.498l1.935,0.967l-0.21,2.134l1.979-0.687l2.905-0.111l2.49,3.049l0.633,1.861l-0.418,2.119l3.209,1.507
				l0.94,3.529l-1.119,2.934l2.955,2.269l0.772,4.32l-0.772,1.91l-2.739,0.551l2.073,4.34c0,0-0.647,1.182-2.16,2.823
				c-0.578,0.627,1.654,2.84,0.81,3.561c0,0-2.604,0.135-4.633,0.879c-2,0.733-2.583-0.466-2.583-1.185
				c0-0.719,0.453-3.487,0.453-3.487l-0.666-1.491l-0.053-1.917l1.464-2.502l-1.97-1.038l-0.985-1.597l0.639-2.822l0.23-1.171
				l-3.158-0.106l-2.609-1.384l-0.213-2.662l0.532-1.491l-3.008-0.399l-2.069-1.118l-1.044-3.94l-2.371,0.319l-2.423-0.958
				l-1.411-2.662l-1.624,1.038l-2.05,0.24l-1.757-1.278l-0.453-2.023l-2.13,3.301l-3.328,0.719l-2.529-0.985l-2.076-1.89
				l-0.772,2.423l-1.837,2.183l-1.651,0.453l-3.541-0.319l0.266,2.023l-0.719,2.343l-2.236,1.917l-3.62-0.639l-0.618,3.754
				l-1.698,1.73l-3.541,0.772l1.274,2.316l-0.396,2.316l-2.396,2.396l1.491,2.338l-0.08,1.762l-1.651,1.917
				c0,0,2.363,2.354-0.017,3.692c-1.458,0.82-4.37-0.215-5.051-2.631c-0.431-1.527-2.273-3.37-2.36-4.88
				c-0.035-0.602,0.153-2.154,3.042-3.702c0,0-3.572-3.537-3.416-4.286c0.156-0.749-1.182-3.159,0.589-4.453
				c1.389-1.015,2.824-1.688,3.685-2.789L36.324,38.758z"/>
			<path fill="#25262A" d="M98.443,63.292c0.117,0.362,0.37,0.472,0.304,0.497s-0.281-0.022-0.597-0.388
				c-0.244-0.283-0.223-0.802-0.248-1.081c-0.025-0.277-0.036-0.76,0.064-1.085c0.105-0.342,0.282-0.686,0.331-1.041
				c0.048-0.353,0.067-0.826-0.124-1.077c-1.3-1.717-1.246-3.394-0.285-5.086c0.073-0.128,0.168-0.242,0.242-0.37
				c0.036-0.062,0.06-0.13,0.102-0.24c0.029-0.076-0.005-0.162-0.078-0.199c-2.46-1.248-2.986-3.228-1.821-5.84
				c0.047-0.105-0.026-0.223-0.141-0.227c-0.621-0.021-1.095,0.003-1.538-0.101c-0.799-0.188-1.648-0.357-2.342-0.763
				c-1.41-0.823-1.884-2.24-1.454-3.82c0.086-0.318,0.196-0.63,0.316-0.996c0.031-0.093-0.03-0.194-0.127-0.208
				c-1.43-0.207-2.867,0.098-4.071-0.972c-1.197-1.065-1.217-2.514-1.612-3.927c-0.022-0.078-0.1-0.127-0.18-0.114
				c-1.257,0.205-2.465,0.263-3.61-0.345c-1.143-0.606-1.834-1.552-2.207-2.875c-0.029-0.101-0.143-0.149-0.235-0.096
				c-2.164,1.255-4.103,1.408-5.605-1.059c-0.061-0.099-0.206-0.101-0.268-0.002c-1.102,1.756-2.667,2.584-4.536,2.673
				c-1.812,0.087-3.415-0.589-4.759-2.026c-0.078-0.083-0.215-0.063-0.262,0.041c-0.659,1.467-1.229,2.846-2.622,3.624
				c-1.334,0.745-2.741,0.907-4.35,0.504c-0.101-0.025-0.199,0.05-0.2,0.154c-0.003,1.904-0.326,3.542-1.787,4.727
				c-1.396,1.132-2.935,1.469-4.767,0.907c-0.103-0.031-0.206,0.043-0.208,0.15c-0.064,3.303-1.67,5.212-5.09,5.494
				c-0.106,0.009-0.175,0.115-0.138,0.214c0.472,1.257,0.96,2.36,0.632,3.617c-0.332,1.275-1.27,2.061-2.154,2.859
				c-0.053,0.048-0.068,0.126-0.037,0.191c1.564,3.322,1.513,3.809-0.674,5.741c-0.059,0.052-0.072,0.141-0.028,0.207
				c0.334,0.507,0.649,1.03,0.656,1.641c0.002,0.187-0.258,0.228-0.31,0.049c-0.276-0.942-1.082-1.557-2.1-2.139
				c-0.118-0.068-0.102-0.243,0.026-0.289c0.254-0.09,0.428-0.156,0.607-0.183c1.732-0.259,2.491-1.678,1.641-3.211
				c-0.3-0.541-0.797-0.974-1.215-1.446c-0.2-0.225-0.416-0.435-0.714-0.735c-0.082-0.083-0.05-0.223,0.059-0.263
				c0.394-0.144,0.649-0.239,0.904-0.33c2.249-0.799,3.001-2.689,1.902-4.834c-0.199-0.389-0.504-0.722-0.731-1.098
				c-0.118-0.196-0.218-0.287-0.37-0.632c-0.078-0.177,0.053-0.345,0.163-0.351c0.671-0.035,1.218-0.077,1.766-0.08
				c3.077-0.016,4.651-1.961,4.055-5.009c-0.101-0.518-0.172-1.042-0.246-1.54c-0.008-0.056-0.05-0.307,0.215-0.414
				c0.362-0.145,0.565,0.12,0.783,0.377c1.695,1.996,4.682,1.493,5.663-0.97c0.431-1.082,0.453-2.191,0.048-3.308
				c-0.052-0.143-0.069-0.299-0.077-0.458c-0.005-0.105,0.017-0.46,0.455-0.472c0.202-0.005,0.403,0.019,0.596,0.064
				c0.57,0.133,1.115,0.402,1.689,0.491c2.853,0.441,4.269-1.321,4.925-3.39c0.112-0.352,0.198-0.712,0.276-1.069
				c0.129-0.59,0.908-0.732,1.241-0.227v0c1.36,2.031,3.653,2.834,5.918,2.097c1.311-0.426,2.18-1.269,2.634-2.566
				c0.124-0.355,0.271-0.701,0.419-1.047c0.171-0.373,0.59-0.23,0.665,0.045c0.102,0.374,0.204,0.747,0.318,1.117
				c0.738,2.381,2.605,2.919,4.54,1.321c0.273-0.225,0.565-0.427,0.973-0.725c0.095-0.069,0.231-0.015,0.251,0.101
				c0.285,1.641,0.558,3.141,2.169,3.643c1.248,0.389,2.529,0.229,3.888-0.343c0.275-0.116,0.58,0.084,0.59,0.382
				c0.017,0.531,0.032,0.947,0.036,1.362c0.026,2.657,1.279,3.862,3.951,3.735c0.5-0.024,0.997-0.098,1.5-0.174
				c0.518-0.079,0.892,0.493,0.604,0.931c-0.113,0.172-0.237,0.332-0.307,0.512c-0.278,0.714-0.669,1.47-0.646,2.197
				c0.043,1.35,1.195,2.296,2.704,2.425c0.732,0.063,1.473,0.01,2.21,0.021c0.37,0.006,0.741,0.029,1.287,0.056
				c0.12,0.006,0.192,0.137,0.133,0.241c-0.269,0.472-0.488,0.81-0.631,1.179c-0.28,0.723-0.67,1.464-0.698,2.209
				c-0.047,1.247,0.922,2.196,2.296,2.491c0.463,0.099,0.971,0.068,1.107,0.758c0.01,0.05-0.008,0.102-0.045,0.137
				c-0.219,0.206-0.476,0.44-0.722,0.685c-0.881,0.877-1.335,1.919-1.244,3.182c0.09,1.254,0.464,1.559,1.674,1.341
				c0.212-0.038,0.427-0.056,0.675-0.082c0.108-0.011,0.196,0.087,0.174,0.193c-0.121,0.597-0.643,0.731-0.993,1.029
				C98.638,60.412,97.988,61.89,98.443,63.292z"/>
			<path fill="#4A2D26" d="M78.095,74.245c-0.084-0.022-0.126,0.097-0.046,0.132c1.296,0.567,3.614,3.247,8.357,2.463
				c3.483-0.576,5.365-1.838,6.461-3.03c0.065-0.07-0.018-0.178-0.102-0.134c-1.184,0.624-4.723,2.241-7.041,2.468
				C81.308,76.575,79.719,74.671,78.095,74.245z"/>
			<path fill="#4A2D26" d="M63.489,74.252c0.08-0.036,0.132,0.095,0.055,0.136c-1.044,0.564-3.522,3.429-8.418,2.593
				c-3.672-0.627-5.857-2.639-6.466-3.314c-0.045-0.05,0.01-0.127,0.072-0.1c0.545,0.238,1.854,1.018,3.562,1.653
				C57.398,77.117,59.299,76.119,63.489,74.252z"/>
			<path fill="#3F2119" d="M79.153,85.724c0.076,0.43,0.483,2.098,2.357,3.386c2.169,1.491,3.381,2,4.402,3.491
				c1.021,1.491,1.156,2.203,1.021,3.66c0,0-0.071,0.429,0.176,0.538s0.485-0.396,0.485-0.791c0-0.344,0.017-1.321-0.166-2.047
				c-0.187-0.739-0.781-1.602-1.647-2.484c-0.694-0.707-1.681-1.363-2.776-1.923c-2.41-1.233-3.093-2.318-3.821-3.839
				C79.167,85.683,79.141,85.656,79.153,85.724z"/>
			<path fill="#3F2119" d="M62.445,85.724c-0.076,0.43-0.483,2.098-2.357,3.386c-2.169,1.491-3.381,2-4.402,3.491
				s-1.156,2.203-1.021,3.66c0,0,0.071,0.429-0.176,0.538s-0.485-0.396-0.485-0.791c0-0.344-0.017-1.321,0.166-2.047
				c0.187-0.739,0.781-1.602,1.647-2.484c0.694-0.707,1.681-1.363,2.776-1.923c2.41-1.233,3.093-2.318,3.821-3.839
				C62.43,85.683,62.457,85.656,62.445,85.724z"/>
			<path fill="#25262A" d="M36.465,62.866c0,0-0.636-1.158-0.144-2.024c0,0-2.947-0.838-2.716-3.958
				c0.231-3.12,3.322-3.438,3.322-3.438s-4.536-2.947-4.016-6.413c0.52-3.467,3.265-4.68,4.593-5.2c0,0-2.571-2.311-1.387-5.027
				s3.28-2.721,5.373-2.629c0,0-1.358-2.6,0.491-4.853s4.709-1.358,4.709-1.358s-0.989-2.255,1.906-2.461
				c0,0-1.126-3.924,1.734-5.311c2.86-1.387,5.46,0.982,6.038,2.051c0,0,0.433-1.849,2.571-2.6c2.138-0.751,3.236,0.722,3.236,0.722
				s-0.303-4.969,4.825-5.345c5.128-0.376,6.948,3.669,6.948,4.449c0,0,2.398-3.669,6.24-1.878s2.6,4.738,2.6,4.738
				s3.149-4.073,7.02-1.618s0.751,5.316,0.751,5.316s1.704-1.17,3.005-0.072s0.867,2.109,0.693,2.484c0,0,2.398-2.398,6.038,0.433
				s1.993,5.547,1.387,6.067c0,0,3.409,0.144,4.247,3.525c0.838,3.38-1.213,4.565-1.213,4.565s4.478,2.08,3.987,6.153
				s-3.611,3.265-3.611,3.265s2.571,3.496,1.733,5.431c-0.838,1.936-2.138,1.762-2.138,1.762s1.907,2.051,0.953,3.351l-0.878-0.13
				c0,0,1.197-0.983-0.705-2.672c-1.902-1.689-0.542-1.751-0.051-1.687c0.492,0.064,2.402-0.323,1.654-2.931
				c-0.748-2.608-1.389-2.843-1.389-2.843s-0.756-0.954,0.245-1.141c1.001-0.188,1.802,0.288,2.477-0.863
				c0.676-1.151,1.278-2.798-0.128-4.905c-0.995-1.491-2.144-1.971-2.577-1.99c-0.409-0.017-1.347-0.604-0.202-1.469
				c1.145-0.864,1.125-2.491,0.751-3.716c-0.374-1.225-0.986-2.84-3.572-2.908c0,0-1.276,0.119-0.595-0.952
				c0.68-1.071,0.85-2.568-0.493-4.269c-1.344-1.701-3.078-2.364-4.473-1.939c-1.395,0.425-1.117,0.625-1.488,0.839
				c-0.491,0.283-1.018,0.1-0.791-0.635c0.356-1.152,0.391-1.735-0.272-2.228c-0.663-0.493-1.344-0.612-2.16-0.153
				c-0.816,0.459-1.208,0-0.935-0.561c0.272-0.561,1.701-1.786,0.425-3.436c-1.276-1.65-3.3-2.262-5.664-0.714
				c0,0-0.884,0.442-1.361,1.054c-0.476,0.612-1.003,1.089-1.531,0.544c-0.527-0.544,0.017-0.884,0.034-1.803
				c0.017-0.918-1.02-2.721-2.755-3.01c-1.735-0.289-3.129-0.17-4.49,1.531c0,0-1.02,1.633-1.497-0.085
				c-0.476-1.718-3.027-4.065-5.63-3.725c-2.305,0.301-3.676,0.723-4.456,3.097c-0.1,0.306-0.098,1.274,0.008,1.586
				c0.106,0.313,0.145,0.682-0.128,0.912c-0.326,0.275-0.548-0.06-0.853-0.443c-0.204-0.256-0.798-0.875-1.632-0.935
				c-0.804-0.058-1.875-0.083-2.856,1.282c-0.595,0.828-0.419,1.277-0.661,1.794c-0.11,0.235-0.278,0.398-0.543,0.352
				c-0.503-0.088-0.381-0.476-0.711-1.001c-0.063-0.1-0.416-0.664-0.92-1.03c-0.438-0.319-1.272-0.658-1.754-0.713
				c-0.799-0.092-1.607-0.178-2.374,0.422c-0.653,0.511-0.958,1.004-1.166,1.442c-0.226,0.478-0.233,1.159-0.235,1.443
				c-0.002,0.327,0.071,0.791,0.379,1.5c0.189,0.436,0.294,0.824,0.001,1.075c-0.439,0.377-0.946-0.768-1.66-0.411
				s-0.772,1.109-0.313,2.027s-0.567,0.54-0.567,0.54s-5.105-1.165-5.022,3.397c0.006,0.331,0.064,0.795,0.276,1.601
				c0.179,0.679,0.155,0.994-0.53,0.858c-0.809-0.161-3.761-0.227-4.543,2.045s0.523,3.828,1.078,4.333
				c0.555,0.505,0.84,1.094,0.209,1.321s-4.417,1.363-4.468,4.316c-0.05,2.953,1.54,4.468,3.079,5.679s0.682,1.212-0.076,1.489
				c-0.757,0.278-2.827,1.085-2.549,3.307c0.278,2.221,2.196,2.549,2.196,2.549s1.111-0.025,0.53,0.984
				c-0.581,1.01-0.05,1.888-0.05,1.888L36.465,62.866z"/>
			<g>
				<path fill="#4A2D26" d="M59.661,46.842c0,0,4.998,0.491,7.334,0.573c1.17,0.041,2.485-0.111,4.158-0.158
					c3.962-0.112,9.521-0.49,9.99-0.367c0,0-4.895,0.744-6.795,1.126c-3.239,0.652-7.91,0.077-9.45-0.279
					C63.358,47.382,59.661,46.842,59.661,46.842z"/>
				<path fill="#4A2D26" d="M64.779,43.763c0,0,3.167,0.111,4.09,0.111c1.652,0,5.455-0.074,8.127-0.473c0,0-1.825,0.279-3.663,0.7
					c-1.031,0.236-1.737,0.362-2.93,0.465C67.978,44.775,67.591,44.551,64.779,43.763z"/>
				<path fill="#4A2D26" d="M45.943,69.422c0,0-0.894,0.14-1.733-0.783c-0.839-0.922-1.202-0.699-1.23-0.391
					s1.118,1.189,2.041,1.182C45.943,69.422,45.943,69.422,45.943,69.422z"/>
				<path fill="#4A2D26" d="M46.365,70.363c0,0-1.295-0.225-2.418,0.642c-1.123,0.867-1.241,0.278-1.113,0.064
					C42.963,70.855,44.589,69.871,46.365,70.363z"/>
				<path fill="#4A2D26" d="M95.827,69.343c0,0,0.894,0.14,1.733-0.783c0.839-0.922,1.202-0.699,1.23-0.391
					c0.028,0.307-1.118,1.189-2.041,1.182C95.827,69.343,95.827,69.343,95.827,69.343z"/>
				<path fill="#4A2D26" d="M95.405,70.284c0,0,1.295-0.225,2.418,0.642c1.123,0.867,1.241,0.278,1.113,0.064
					C98.808,70.776,97.181,69.792,95.405,70.284z"/>
			</g>
			<polygon opacity="0.12" fill="#FFFFFF" points="71.732,64.913 72.608,63.794 74.692,62.479 84.859,61.969 97.832,61.515 
				103.131,61.902 103.875,63.615 102.08,67.35 99.666,72.368 96.373,74.901 91.413,75.114 81.122,75.46 75.208,75.347 
				72.921,73.565 72.177,70.185 			"/>
			<polygon opacity="0.12" fill="#FFFFFF" points="69.557,66.841 69.41,64.343 67.054,62.62 58.874,62.327 47.038,61.62 
				39.065,61.055 37.281,62.903 41.338,71.809 44.722,74.772 50.123,75.763 66.226,75.131 68.242,73.561 69.306,71.313 			"/>
			<polygon opacity="0.1" fill="#FFFFFF" points="46.847,62.13 51.671,75.176 62.049,75.867 55.735,62.219 			"/>
			<polygon opacity="0.1" fill="#FFFFFF" points="78.44,62.619 83.071,75.273 92.205,75.441 86.643,62.202 			"/>
			<g>
				<path fill="#702C20" d="M36.569,62.186c-0.008,0-0.016,0-0.024,0c0.011,0.214,0.025,0.427,0.029,0.641
					c0.032-0.016,0.063-0.036,0.092-0.065C36.755,62.55,36.739,62.355,36.569,62.186z"/>
				<path fill="#711A0B" d="M105.14,62.631c0.001-0.037,0.001-0.073,0.002-0.11c-0.001-0.007-0.003-0.014-0.004-0.022
					c-0.342-0.251-0.539-0.09-0.674,0.24c0.001,0.408,0.037,0.804,0.312,1.119C104.919,63.455,105.037,63.047,105.14,62.631z"/>
				<path fill="#510901" d="M38.489,61.382c-0.33-0.173-0.584-0.557-1.042-0.364c-0.029,0-0.057,0.003-0.085,0.006
					c-0.072,0.043-0.143,0.087-0.214,0.132c-0.052,0.037-0.106,0.072-0.161,0.106c-0.017,0.012-0.035,0.022-0.052,0.034
					c-0.019,0.015-0.041,0.026-0.062,0.039c-0.047,0.055-0.097,0.106-0.149,0.156c-0.036,0.084-0.079,0.161-0.127,0.229
					c-0.002,0.005-0.004,0.01-0.007,0.015c-0.007,0.15-0.015,0.3-0.022,0.451c0.015,0.187,0.03,0.373,0.046,0.56
					c0.5,0.656,0.926,1.422,1.948,1.294c0.053-0.037,0.092-0.079,0.123-0.123c-0.007-0.036-0.014-0.073-0.015-0.114
					c-0.02-0.603,0.03-1.253,0.688-1.441c0.016-0.083,0.018-0.168,0.005-0.253C39.216,61.695,38.795,61.606,38.489,61.382z"/>
				<path fill="#AF2921" d="M40.195,60.471c-0.04-0.025-0.08-0.045-0.12-0.065c-0.132,0.003-0.264,0.006-0.396,0.009
					c-0.125,0.02-0.25,0.034-0.376,0.034c-0.056,0-0.11-0.005-0.165-0.008c-0.063,0.009-0.126,0.016-0.19,0.019
					c-0.132,0.027-0.266,0.042-0.4,0.046c-0.029,0.007-0.057,0.014-0.086,0.021c-0.318,0.102-0.629,0.226-0.917,0.39
					c-0.029,0.017-0.058,0.035-0.088,0.052c-0.004,0.017-0.008,0.033-0.011,0.05c0.294,0.205,0.588,0.41,0.882,0.614
					C40.057,61.946,40.208,61.852,40.195,60.471z"/>
				<path fill="#510801" d="M104.975,61.871c-0.173-0.386-0.487-0.714-0.837-0.963c-0.043-0.016-0.084-0.033-0.13-0.045
					c-0.432,0.01-0.722,0.307-1.052,0.522c-0.307,0.223-0.726,0.31-0.869,0.729c-0.017,0.128-0.004,0.251,0.041,0.372
					c0.025,0.034,0.052,0.066,0.079,0.096c0.349,0.139,0.637,0.358,0.76,0.693c0.073,0.123,0.11,0.271,0.082,0.443
					c-0.021,0.131-0.049,0.26-0.079,0.388c0.828-0.076,1.448-0.413,1.615-1.31c0.113-0.231,0.318-0.291,0.552-0.297
					c0.001-0.032,0.001-0.064,0.002-0.097C105.101,62.219,105.051,62.04,104.975,61.871z"/>
				<path fill="#413337" d="M103.925,60.768c-0.017,0.015-0.033,0.045-0.046,0.093c-0.018,0.064,0.023,0.116,0.122,0.157
					c0.303,0.243,0.607,0.486,0.91,0.729C104.69,61.34,104.318,61.004,103.925,60.768z"/>
				<path fill="#951703" d="M39.513,66.286c-0.028-0.045-0.051-0.096-0.069-0.153c-0.119-0.383-0.347-0.724-0.463-1.119
					c-0.078-0.267-0.165-0.536-0.228-0.807c-0.014-0.06-0.026-0.118-0.037-0.177c-0.044-0.021-0.089-0.042-0.133-0.063
					c-0.858-0.082-1.133-1.104-1.97-1.221c-0.014,0.004-0.029,0.007-0.043,0.011c0.001,0.029,0.003,0.057,0.004,0.086
					c0.001,0.04-0.001,0.079-0.005,0.118c0.136,0.505,0.328,1.002,0.43,1.509c0.012,0.059,0.019,0.119,0.023,0.178
					c0.138,0.283,0.248,0.566,0.331,0.857c0.048,0.094,0.091,0.191,0.127,0.292c0.103,0.177,0.203,0.356,0.291,0.542
					c0.645,0.358,1.218,0.896,2.038,0.82c0.007-0.031,0.012-0.061,0.017-0.091C39.707,66.813,39.601,66.553,39.513,66.286z"/>
				<path fill="#510901" d="M42.368,71.849c-1.115-0.874-1.517-2.422-2.893-3.045c-0.233,0.055-0.378,0.203-0.451,0.428
					c-0.001,0.004-0.001,0.007-0.001,0.011c0.02,0.053,0.039,0.106,0.057,0.159c0.115,0.238,0.233,0.475,0.361,0.706
					c0.099,0.179,0.203,0.355,0.316,0.525c0.001,0.001,0.003,0.004,0.003,0.006c0.611,0.674,0.99,1.507,1.487,2.26
					c0.149,0.16,0.279,0.337,0.427,0.499c0.041,0.044,0.077,0.09,0.11,0.136c0.513,0.43,1.027,0.861,1.54,1.291
					C43.935,73.535,42.82,72.797,42.368,71.849z"/>
				<path fill="#522B22" d="M39.678,70.257c-0.107-0.392-0.368-0.644-0.475-1.036c-0.064-0.067-0.139-0.092-0.222-0.086
					c0.036,0.089,0.069,0.179,0.1,0.269c0.115,0.237,0.232,0.473,0.36,0.703c0.089,0.162,0.184,0.321,0.285,0.476
					C39.723,70.483,39.675,70.354,39.678,70.257z"/>
				<path fill="#520801" d="M101.271,71.135c0.202-0.395,0.407-0.788,0.653-1.163c0.179-0.274,0.326-0.593,0.501-0.887
					c-0.141-0.194-0.318-0.326-0.601-0.272c-1.039,0.856-1.712,2.041-2.664,2.974c-0.204,0.363-0.438,0.711-0.701,1.031
					c-0.399,0.576-0.724,1.174-0.332,2.001c0.045-0.031,0.093-0.059,0.144-0.084c0.169-0.113,0.338-0.226,0.506-0.339
					c0.087-0.125,0.199-0.232,0.336-0.314c0.233-0.35,0.512-0.655,0.824-0.926c0.046-0.079,0.103-0.152,0.168-0.218
					c0.132-0.212,0.284-0.408,0.407-0.633c0.177-0.323,0.347-0.639,0.605-0.904C101.157,71.305,101.208,71.216,101.271,71.135z"/>
				<path fill="#623B33" d="M101.274,71.131c0.079-0.153,0.157-0.306,0.238-0.458c-0.203,0.286-0.382,0.585-0.544,0.896
					c0.046-0.059,0.097-0.115,0.15-0.169C101.158,71.304,101.21,71.213,101.274,71.131z"/>
				<path fill="#951703" d="M104.433,64.7c0.175-0.374,0.317-0.749,0.44-1.129c0.011-0.285,0.009-0.567-0.287-0.776
					c-0.533,0.366-0.919,0.946-1.576,1.131c-0.146,0.72-0.435,1.393-0.738,2.063c-0.174,0.383-0.409,0.757-0.628,1.134
					c0.832,0.17,1.368-0.447,2.013-0.773C103.857,65.785,104.164,65.275,104.433,64.7z"/>
				<path fill="#B32A22" d="M103.672,66.31c-0.887-0.211-1.407,0.458-2.031,0.877c-0.004,0.004-0.008,0.009-0.012,0.013
					c-0.006,0.029-0.013,0.058-0.025,0.086c-0.075,0.183-0.159,0.362-0.246,0.539c-0.066,0.448,0.06,0.839,0.588,1.113
					c0.147,0.07,0.294,0.139,0.441,0.209c0.078-0.137,0.163-0.268,0.258-0.39c0.227-0.582,0.584-1.109,0.833-1.681
					C103.515,66.804,103.584,66.552,103.672,66.31z"/>
				<path fill="#553A3B" d="M39.672,60.416c-0.074,0.012-0.148,0.02-0.222,0.025c0.216,0.011,0.432,0.022,0.648,0.032
					c0.312,0.198,0.61,0.232,0.879-0.069c-0.174-0.002-0.349-0.004-0.523-0.004C40.193,60.405,39.932,60.41,39.672,60.416z"/>
				<path fill="#7D1C13" d="M47.474,61.9c-0.679-0.218-1.373-0.39-2.043-0.641c-2.226-0.777-4.251-0.234-6.182,0.933
					c-0.01,0.073-0.019,0.146-0.027,0.219c0.069-0.03,0.145-0.056,0.232-0.073c0.306-0.061,0.653-0.002,0.963,0.006
					c0.246,0.007,0.492,0.025,0.736,0.056c2.078-0.078,4.674-0.188,6.965,0.056C48.505,61.928,47.79,62.001,47.474,61.9z"/>
				<path fill="#971502" d="M45.03,60.534c-0.315-0.01-0.628-0.016-0.938-0.019c-0.193-0.002-0.379-0.026-0.558-0.067
					c-0.871-0.021-1.742-0.038-2.613-0.045c-0.274,0.023-0.549,0.047-0.823,0.07c-0.242,1.12-0.242,1.12-1.769,1.16
					c0.307,0.186,0.614,0.372,0.921,0.559c0.477-0.013,0.996,0.143,1.411-0.171c1.494-1.128,3.102-0.744,4.713-0.404
					c0.104-0.13,0.129-0.274,0.075-0.431C45.335,60.945,45.202,60.721,45.03,60.534z"/>
				<path fill="#7D1C14" d="M93.677,62.483c1.436,0,2.874,0.001,4.307-0.106c1.185-0.088,2.333-0.13,3.515,0.028
					c0.205,0.027,0.412,0.072,0.605,0.138c0.044-0.029,0.088-0.058,0.132-0.091c-0.009-0.087-0.02-0.174-0.031-0.26
					c-1.853-1.129-3.802-1.687-5.958-0.989c-0.724,0.211-1.438,0.457-2.165,0.662c-0.294,0.083-0.836,0.152-0.592,0.644
					C93.548,62.494,93.609,62.483,93.677,62.483z"/>
				<path fill="#971502" d="M101.355,60.473c-1.076-0.018-2.152-0.035-3.228-0.053c-0.108,0-0.216-0.001-0.324-0.002
					c-0.447,0.039-0.895,0.079-1.343,0.119c-0.154,0.194-0.232,0.428-0.258,0.691c0.016,0.146,0.07,0.274,0.17,0.381
					c1.474-0.423,2.937-0.628,4.294,0.338c0.487,0.347,1.017,0.229,1.54,0.244c0.204-0.359,0.719-0.203,0.926-0.557
					C102.59,61.17,101.776,61.121,101.355,60.473z"/>
				<path fill="#AF2921" d="M103.871,60.735c0,0-0.001-0.001-0.001-0.001c-0.348-0.1-0.696-0.2-1.044-0.3
					c-0.491,0.013-0.981,0.026-1.472,0.038c0.243,1.12,0.243,1.12,1.776,1.162c0.29-0.206,0.58-0.411,0.87-0.616
					c-0.013-0.077-0.029-0.154-0.045-0.231C103.928,60.77,103.9,60.751,103.871,60.735z"/>
				<path fill="#B22A22" d="M39.97,67.356c-0.053-0.056-0.106-0.112-0.158-0.168c-0.628-0.424-1.151-1.1-2.051-0.873
					c0.122,0.253,0.225,0.513,0.299,0.78c0.175,0.337,0.315,0.697,0.448,1.05c0.048,0.081,0.09,0.169,0.133,0.252
					c0.136,0.263,0.263,0.533,0.37,0.81c0.064,0.005,0.129,0.01,0.193,0.015c0.102-0.094,0.203-0.187,0.305-0.281
					C40.211,68.572,40.203,67.996,39.97,67.356z"/>
				<path fill="#951703" d="M47.044,74.791c-0.002-0.001-0.004-0.001-0.006-0.002c-0.041-0.007-0.082-0.016-0.124-0.022
					c-0.134-0.018-0.255-0.068-0.363-0.138c-1.152-0.401-2.207-0.949-3.07-1.79c-0.381-0.267-0.74-0.617-1.056-1.016
					c-0.032-0.005-0.148-0.233-0.178-0.237c-0.066,0.027-0.048,0.276-0.114,0.302c0.015,0.35,0.254,0.588,0.416,0.87
					c0.368,0.644,0.824,1.263,0.774,2.066c0.001,0.012,0.002,0.023,0.003,0.035c0.114,0.071,0.22,0.155,0.311,0.243
					c0.013,0.012,0.024,0.026,0.036,0.039c0.087,0.042,0.169,0.097,0.247,0.157c0.024,0.012,0.049,0.025,0.073,0.037
					c0.127,0.062,0.255,0.121,0.382,0.184c0.027,0.013,0.046,0.023,0.062,0.031c0.658,0.235,1.364,0.433,2.054,0.546
					C47.449,76.014,47.469,75.823,47.044,74.791z"/>
				<path fill="#951703" d="M41.569,70.375c-0.016-0.025-0.031-0.051-0.045-0.08c-0.308-0.655-0.665-1.271-0.945-1.913
					c-0.022-0.025-0.043-0.052-0.062-0.083c-0.231-0.365-0.445-0.733-0.63-1.109c-0.028-0.004-0.055-0.007-0.083-0.011
					c0.006,0.605,0.066,1.218-0.296,1.761c0.274,0.125,0.466,0.332,0.585,0.603c0.439,0.993,1.193,1.709,2.041,2.346
					c0,0,0.066-0.052,0.066-0.052c0.036-0.072,0.06-0.141,0.077-0.208C41.994,71.238,41.753,70.81,41.569,70.375z"/>
				<path fill="#951703" d="M97.967,74.954c0.049-0.051,0.103-0.098,0.163-0.139c-0.056-0.541,0.228-0.979,0.418-1.452
					c0.209-0.521,0.728-0.875,0.768-1.478c-0.058-0.024-0.116-0.047-0.174-0.071c-0.736,1.298-1.861,2.418-3.306,2.62
					c-0.078,0.039-0.167,0.064-0.269,0.071c-0.299,0.02-0.591,0.15-0.892,0.221c-0.311,0.213-0.522,0.482-0.354,0.894
					c0.059,0.143,0.131,0.263,0.221,0.349h0.493c0.123-0.041,0.245-0.08,0.367-0.106c0.236-0.05,0.475-0.077,0.715-0.091
					c0.208-0.067,0.419-0.114,0.634-0.151c0.345-0.157,0.677-0.393,0.992-0.555C97.818,75.028,97.893,74.991,97.967,74.954z"/>
				<path fill="#951703" d="M101.649,67.178c-0.007,0.006-0.013,0.012-0.019,0.018c-0.006,0.03-0.013,0.06-0.025,0.09
					c-0.325,0.789-0.79,1.502-1.147,2.274c-0.028,0.061-0.071,0.11-0.119,0.153c-0.193,0.355-0.38,0.716-0.587,1.062
					c-0.076,0.128-0.177,0.25-0.271,0.374c-0.089,0.197-0.186,0.392-0.292,0.584c0.018,0.035,0.038,0.069,0.064,0.103
					c0,0,0.064,0.05,0.064,0.049c1.179-0.713,1.759-1.96,2.63-2.948C101.584,68.396,101.643,67.782,101.649,67.178z"/>
				<path fill="#AF2B22" d="M63.144,74.975c-0.035,0.002-0.069,0.005-0.104,0.007c-0.67,0.029-1.335,0.045-2.002,0.053
					c-0.057,0.015-0.117,0.025-0.184,0.025h-1.376c-0.59,0.172-1.179,0.344-1.44,1.021c0.563,0.017,1.127,0.038,1.694,0.021
					c0.599-0.018,1.234-0.068,1.85-0.021c0.391-0.057,0.786-0.081,1.182-0.096c0.016-0.013,0.032-0.027,0.047-0.043
					C63.086,75.649,63.599,75.402,63.144,74.975z"/>
				<path fill="#AF2B22" d="M81.779,75.005c-0.56-0.004-1.119-0.01-1.679,0.013c-0.234,0.009-0.455,0.001-0.672-0.017
					c-0.027,0.003-0.052,0.008-0.081,0.007c-0.36-0.002-0.72-0.007-1.08-0.001c-0.401,0.584,0.248,0.693,0.52,0.973
					c0.002,0.001,0.003,0.001,0.005,0.001c0.005,0,0.008-0.001,0.013-0.001h4.566C83.059,75.323,82.396,75.198,81.779,75.005z"/>
				<path fill="#951A06" d="M86.607,75.008h-4.251c-0.027,0-0.051-0.005-0.076-0.007c-0.026,0.003-0.051,0.007-0.079,0.007
					c-0.221-0.001-0.441-0.003-0.661-0.004c-0.042,0.038-0.082,0.08-0.118,0.13c0.525,0.384,1.211,0.473,1.742,0.846h3.245
					C86.692,75.713,86.941,75.438,86.607,75.008z"/>
				<path fill="#961A06" d="M59.956,75.06h-3.416c-0.084,0.017-0.172,0.028-0.267,0.029c-0.521,0.009-1.041,0.058-1.562,0.078
					c-0.176,0.34,0.232,0.669,0.413,1.001c0.011,0.007,0.021,0.014,0.031,0.021c0.075,0.001,0.15,0.004,0.225,0.007
					c0.926-0.165,1.849-0.139,2.775-0.111c0.543-0.46,1.293-0.539,1.867-0.943C60.002,75.111,59.98,75.085,59.956,75.06z"/>
				<path fill="#821D12" d="M91.675,75.969h3.363c0.022-0.007,0.043-0.014,0.065-0.022c-0.742-0.36-0.739-0.467-0.192-1.11
					c-0.044-0.052-0.091-0.096-0.138-0.135c-0.105,0.029-0.21,0.053-0.317,0.063c-0.346,0.035-0.694,0.032-1.04,0.06
					c-0.523,0.042-1.022,0.101-1.529,0.107c-0.087,0.046-0.189,0.075-0.312,0.075h-0.162c-0.012,0.009-0.025,0.017-0.037,0.026
					C91.218,75.475,91.424,75.734,91.675,75.969z"/>
				<path fill="#811F14" d="M49.459,75.037c-0.452-0.02-0.9,0.004-1.351-0.045c-0.397-0.043-0.775-0.164-1.17-0.221
					c-0.036,0.024-0.072,0.047-0.108,0.075c0.41,1.043,0.401,1.063-0.861,1.149c0.175,0.039,0.351,0.072,0.525,0.101
					c0.079,0.013,0.155,0.032,0.229,0.054c0.225,0.002,0.442,0.036,0.647,0.093c0.11,0.001,0.218,0.011,0.324,0.025
					c0.588,0,1.176,0.001,1.765,0.001c0.327-0.358,0.888-0.64,0.567-1.205C49.838,75.055,49.649,75.045,49.459,75.037z"/>
				<path fill="#B22922" d="M91.949,75.969c-0.113-0.318-0.409-0.545-0.536-0.856c-0.044-0.039-0.089-0.073-0.134-0.106h-1.921
					c-0.307,0.367-0.296,0.682-0.073,0.962H91.949z"/>
				<path fill="#B22922" d="M50.092,75.067c-0.01,0.009-0.02,0.017-0.029,0.027c-0.172,0.406-0.629,0.666-0.602,1.174
					c0.67,0.014,1.34,0.029,2.01,0.043c0.127-0.022,0.254-0.038,0.382-0.04c0.031-0.001,0.063-0.002,0.095-0.002
					c0.038-0.022,0.076-0.044,0.114-0.067c0.294-0.352,0.375-0.706,0.149-1.062C51.502,75.139,50.797,75.103,50.092,75.067z"/>
				<path fill="#560901" d="M87.991,75.969h0.799c0.045-0.415-0.208-0.704-0.534-0.962h-1.434c-0.043,0.042-0.082,0.089-0.114,0.145
					c-0.155,0.291-0.455,0.505-0.551,0.827h1.671C87.88,75.973,87.934,75.969,87.991,75.969z"/>
				<path fill="#801F14" d="M75.84,75.017c-0.515-0.114-0.98-0.365-1.373-0.705c-0.443-0.011-0.824-0.246-1.208-0.469
					c-0.128-0.019-0.241,0.015-0.338,0.099c0.164,0.234,0.344,0.457,0.549,0.664c0.176,0.178,0.352,0.355,0.523,0.536
					c0.118,0.056,0.22,0.13,0.305,0.217c0.202,0.092,0.402,0.19,0.604,0.285c0.046,0.013,0.091,0.029,0.133,0.047
					c0.083,0.011,0.16,0.029,0.233,0.053c0.078,0.01,0.153,0.026,0.222,0.048c0.165,0.026,0.328,0.063,0.493,0.1
					c0.12,0.002,0.23,0.019,0.332,0.047c0.029-0.002,0.056-0.005,0.086-0.005c0.106,0,0.205,0.011,0.297,0.031
					c0.012-0.003,0.024-0.004,0.036-0.007C76.727,75.397,76.132,75.334,75.84,75.017z"/>
				<path fill="#991602" d="M78.198,75.106c-0.028-0.036-0.058-0.068-0.089-0.097c-0.165,0.005-0.33,0.012-0.495,0.025
					c-0.4,0.032-0.801,0.102-1.201,0.05c-0.006,0-0.011,0.001-0.017,0.001c-0.291-0.007-0.57-0.057-0.835-0.143
					c-0.004,0.425,0.124,0.748,0.676,0.755c0.204,0.002,0.365,0.107,0.495,0.26c0.685,0.008,1.37,0.015,2.055,0.022
					C78.591,75.688,78.395,75.397,78.198,75.106z"/>
				<path fill="#991602" d="M65.797,74.705c-0.464,0.125-0.919,0.19-1.377,0.204c-0.017,0.001-0.032,0.005-0.05,0.005h-0.554
					c-0.138,0.017-0.278,0.033-0.418,0.045c-0.051,0.037-0.1,0.077-0.144,0.129c-0.196,0.297-0.392,0.595-0.587,0.892
					c0.002,0.003,0.005,0.006,0.007,0.009c0.43-0.018,0.863-0.025,1.294-0.055c0.232-0.016,0.463-0.04,0.694-0.066
					c-0.077,0.007,0.506-0.066,0.499-0.065c0.24-0.033,0.481-0.066,0.721-0.098c0.005-0.004,0.01-0.007,0.016-0.012
					c0.22-0.258,0.259-0.538,0.102-0.842C65.94,74.785,65.872,74.738,65.797,74.705z"/>
				<path fill="#941906" d="M89.483,75.969c-0.108-0.259-0.182-0.527-0.148-0.822c-0.054-0.054-0.108-0.1-0.161-0.14h-0.838
					c-0.054,0.04-0.108,0.086-0.162,0.141c0.134,0.274,0.268,0.547,0.402,0.821H89.483z"/>
				<path fill="#6F4539" d="M51.853,76.273c1.098-0.02,2.255-0.111,3.394-0.082c-0.76-0.502-1.619-0.313-2.452-0.299
					c-0.359,0.031-0.666,0.195-0.966,0.379c0,0,0.001,0.002,0.002,0.003C51.838,76.274,51.845,76.273,51.853,76.273z"/>
				<path fill="#821F13" d="M65.16,75.802c0.246-0.034,0.491-0.067,0.737-0.1c0-0.003,0-0.007,0-0.01
					c-0.36,0.026-0.752-0.096-1.063,0.151C64.982,75.824,65.164,75.801,65.16,75.802z"/>
				<path fill="#991501" d="M61.44,61.655c-0.153-0.012-0.307-0.027-0.46-0.045c-0.348-0.042-0.696-0.091-1.044-0.137
					c-0.042-0.006-0.07-0.01-0.092-0.013c-0.007-0.001-0.011-0.001-0.019-0.002c-0.032-0.003-0.064-0.005-0.096-0.008
					c-0.102-0.003-0.205-0.006-0.307-0.007c-0.135-0.001-0.266-0.013-0.394-0.034c-0.446-0.021-0.892-0.042-1.329-0.118
					c-1.386-0.002-2.757-0.052-4.125-0.28c-0.053,0.004-0.106,0.008-0.159,0.008c-0.185,0-0.363-0.021-0.535-0.059
					c-0.4-0.01-0.804-0.034-1.203-0.082c-0.065-0.003-0.129-0.008-0.192-0.016c-0.034,0.002-0.068,0.005-0.102,0.005
					c-0.145,0-0.286-0.015-0.424-0.038c-0.056,0.002-0.111,0.004-0.167,0.005c-0.908,0.024-1.812-0.093-2.719-0.051
					c-0.155,0.007-0.306-0.004-0.453-0.028c-0.759,0.159-1.593,0.043-2.247,0.589c0,0.09,0.001,0.181,0.001,0.271
					c0.813,0.471,1.781,0.456,2.623,0.836c1.081,0.024,2.161,0.047,3.242,0.07c0.063-0.017,0.125-0.034,0.188-0.052
					c0.951-0.663,1.679-0.498,2.483,0.234c0.285,0.059,0.591,0.112,0.816,0.124c1.127,0.086,2.128,0.115,3.352,0.274
					c1.368,0.052,4.098,0.043,5.555-0.027C63.692,62.506,61.812,62.008,61.44,61.655z"/>
				<path fill="#AA2921" d="M45.771,60.617c-0.207,0-0.405-0.028-0.596-0.075c-0.127-0.004-0.254-0.009-0.381-0.013
					c0.02,0.387,0.23,0.647,0.578,0.816c0.893-0.045,1.841,0.146,2.575-0.562c-0.223-0.002-0.437-0.041-0.639-0.105
					C46.798,60.632,46.285,60.618,45.771,60.617z"/>
				<path fill="#991501" d="M90.176,62.618c0.816-0.066,1.632-0.14,2.451-0.142c0.159,0,0.318,0.005,0.476,0.014
					c0.115-0.006,0.231-0.011,0.346-0.017c0.974-0.288,1.949-0.576,2.923-0.864c0-0.094,0.001-0.188,0.001-0.282
					c-0.879-0.628-1.951-0.333-2.904-0.608c-0.052,0.014-0.108,0.024-0.17,0.024c-1.449-0.007-2.864,0.283-4.308,0.278
					c-0.001,0-0.001,0-0.002,0c-0.934,0.12-1.787,0.257-2.735,0.248c-0.993-0.01-1.974,0.029-2.964,0.107
					c-1.089,0.085-2.178,0.186-3.266,0.284c-0.294,0.315-0.597,0.628-0.381,1.063c1.526-0.029,3.052-0.092,4.579-0.096
					c0.048,0,0.093,0.004,0.135,0.012c1.036-0.004,2.073,0.01,3.111,0.037C88.353,62.156,89.242,61.778,90.176,62.618z"/>
				<path fill="#AA2921" d="M93.474,60.718c-0.006,0.002-0.012,0.004-0.019,0.006c0.836,0.852,1.91,0.569,2.918,0.604
					c0.091-0.269,0.181-0.537,0.272-0.806C95.59,60.616,94.533,60.703,93.474,60.718z"/>
				<path fill="#971602" d="M72.533,69.204c-0.072-0.366-0.032-0.748-0.007-1.123c-0.003-0.118-0.006-0.236-0.007-0.355
					c-0.017-0.012-0.034-0.023-0.054-0.03c-0.773-0.278-0.621-1.257-1.143-1.721c0,0.09-0.003,0.181-0.017,0.271
					c-0.005,0.035-0.045,0.053-0.078,0.05c-0.009,0.005-0.02,0.008-0.034,0.008c-0.005,0-0.009-0.002-0.014-0.003
					c-0.01,0.006-0.02,0.011-0.034,0.011c-0.261,0.014-0.522,0-0.784,0c-0.059,0-0.081-0.056-0.066-0.098
					c0-0.001-0.001-0.002-0.001-0.003c-0.008-0.068-0.011-0.136-0.008-0.205c-0.001,0-0.001,0-0.002-0.001
					c-0.007-0.006-0.011-0.016-0.011-0.025v-0.053c0-0.002,0.002-0.003,0.002-0.004c-0.087,0.079-0.158,0.171-0.207,0.28
					c-0.205,0.426,0.009,0.94-0.231,1.363c-0.037,0.065-0.102,0.11-0.175,0.12c-0.018,0.003-0.036,0.005-0.054,0.009
					c-0.096-0.018-0.194-0.034-0.291-0.04c-0.027-0.002-0.054,0.002-0.081,0.009l-0.002,0.001c-0.029,0.024-0.061,0.051-0.094,0.078
					c0.008,0.05,0.012,0.102,0.007,0.16c-0.05,0.606-0.112,1.212-0.2,1.814c0.008,0.014,0.013,0.029,0.022,0.043
					c0.012,0.02,0.027,0.04,0.044,0.056c0.137,0.133,0.301,0.174,0.487,0.144c0.022-0.004,0.044-0.01,0.064-0.019
					c0.108-0.049,0.187-0.122,0.254-0.207c0.026-0.072,0.065-0.178,0.091-0.251c0.014-0.424,0.423-0.705,0.754-0.617
					c0.003,0,0.014-0.004,0.098,0.018c0.049,0.013,0.101,0.01,0.148-0.008c0.168-0.066,0.263-0.036,0.44,0.069
					c0.002,0.001,0.004,0.003,0.006,0.005c0.014-0.001,0.029,0.004,0.042,0.011c0.006,0.001,0.013,0,0.019,0.001
					c0.054,0.008,0.106,0.035,0.143,0.075c0.064,0.07,0.13,0.156,0.16,0.248c0.004,0.014,0.003,0.026-0.002,0.039v0.436
					c0,0.002-0.001,0.003-0.001,0.005c0.004,0.016,0.008,0.031,0.01,0.048c0.082,0.075,0.138,0.127,0.22,0.202
					c0.14,0.004,0.282-0.039,0.426-0.132c0.031-0.02,0.057-0.049,0.076-0.08c0.041-0.069,0.075-0.138,0.106-0.208
					C72.542,69.465,72.535,69.335,72.533,69.204z"/>
				<path fill="#520B04" d="M69.801,69.858c0,0.001-0.113-0.015-0.113-0.015c-0.193,0.001-0.386,0.003-0.58,0.004
					c-0.069,0.008-0.131,0.029-0.189,0.054c-0.07,0.451-0.154,0.899-0.259,1.342c-0.098,0.411-0.195,0.844-0.353,1.24
					c-0.006,0.036-0.014,0.072-0.026,0.11c-0.116,0.351-0.3,0.665-0.528,0.942c0.06,0.243,0.144,0.478,0.245,0.706
					c0.059,0.11,0.139,0.201,0.243,0.271l0.183-0.193c0.399-0.612,0.632-1.334,0.936-1.994c0.357-0.777,0.423-1.5,0.55-2.295
					c0-0.03,0.001-0.177,0.001-0.206C69.88,69.793,69.844,69.88,69.801,69.858z"/>
				<path fill="#530C05" d="M73.443,72.862c-0.012-0.03-0.021-0.06-0.032-0.09c-0.002-0.006-0.004-0.011-0.006-0.017
					c-0.013-0.036-0.025-0.073-0.037-0.11c-0.337-0.658-0.487-1.335-0.64-2.054c-0.035-0.163-0.067-0.322-0.096-0.48
					c-0.041-0.047-0.084-0.093-0.13-0.138c-0.367-0.022-0.628,0.035-0.77,0.18c0.019,0.976,0.281,1.978,0.644,2.924
					c0.026,0.03,0.051,0.065,0.073,0.104c0.149,0.265,0.304,0.522,0.476,0.766c0.093-0.011,0.185-0.022,0.277-0.032
					c0.285-0.092,0.439-0.268,0.52-0.491c-0.075-0.124-0.14-0.254-0.201-0.385C73.488,72.987,73.46,72.929,73.443,72.862z"/>
				<path fill="#821F13" d="M67.837,74.938c0.026-0.021,0.051-0.043,0.078-0.062c0.017-0.017,0.035-0.032,0.053-0.049
					c0.024-0.029,0.05-0.057,0.078-0.083c0.054-0.081,0.117-0.158,0.192-0.223c0.001-0.002,0.002-0.004,0.003-0.007
					c-0.004-0.099-0.009-0.198-0.013-0.297c-0.472-0.138-0.929,0.148-1.397,0.087c-0.276,0.157-0.572,0.278-0.88,0.359
					c-0.025,0.046-0.047,0.096-0.065,0.153c0.003,0.292,0.006,0.584,0.009,0.876c0.015,0.002,0.03,0.002,0.046,0.003
					c0.208-0.028,0.416-0.053,0.625-0.079c0.171-0.054,0.337-0.126,0.503-0.202c0.157-0.097,0.327-0.178,0.491-0.266
					C67.638,75.067,67.731,74.995,67.837,74.938z"/>
				<path fill="#6F1D12" d="M72.577,69.766c-0.062-0.015-0.126-0.002-0.191,0.044c-0.22,0.003-0.441,0.006-0.661,0.009
					c0.003,0.029,0.008,0.057,0.007,0.088c-0.005,0.232,0.005,0.466,0.027,0.701c0.078-0.365,0.33-0.555,0.85-0.48
					c0.009-0.008,0.014-0.018,0.022-0.027C72.609,69.99,72.592,69.878,72.577,69.766z"/>
				<path fill="#941703" d="M71.357,68.951c0.004,0,0.008,0,0.012,0.001c0.041,0.003,0.089,0.006,0.089,0.006
					c-0.485-0.45-0.972-0.442-1.461-0.008c0.147-0.003,0.128-0.003,0.291-0.003c0.226,0.002,0.453,0.004,0.679,0.006
					c0.021-0.002,0.04-0.006,0.062-0.006c0.026,0,0.049,0.005,0.073,0.007l0.065,0.001l0.146-0.005
					C71.312,68.948,71.332,68.949,71.357,68.951z"/>
				<path fill="#752519" d="M69.756,71.011c0.029-0.158,0.054-0.316,0.078-0.477c-0.1,0.134-0.121,0.298-0.102,0.479
					C69.74,71.012,69.748,71.012,69.756,71.011z"/>
				<path fill="#873D31" d="M79.432,75c-0.028,0.003-0.055,0.008-0.085,0.008c-0.577-0.003-1.156-0.02-1.733,0.026
					c-0.098,0.008-0.196,0.018-0.294,0.028c0.004,0.008,0.006,0.016,0.011,0.024c0.289,0.007,0.578,0.013,0.867,0.02
					c0.59-0.008,1.179-0.015,1.769-0.023c-0.023-0.021-0.046-0.042-0.07-0.063C79.738,75.02,79.584,75.012,79.432,75z"/>
				<path fill="#560901" d="M54.766,75.166c-0.161,0.007-0.321,0.011-0.482,0.011c-0.302-0.001-0.599-0.03-0.895-0.07
					c-0.069,0.011-0.141,0.018-0.217,0.018c-0.029,0-0.057-0.002-0.085-0.004c-0.35,0.267-0.536,0.611-0.355,1.125
					c0.857-0.034,1.737-0.079,2.605-0.052C55.326,75.756,54.946,75.514,54.766,75.166z"/>
				<path fill="#951906" d="M52.213,75.142c-0.032,0-0.064-0.001-0.095-0.002c-0.001,0-0.002,0-0.003,0
					c0.051,0.414-0.107,0.775-0.285,1.131c0.062-0.001,0.125-0.001,0.187-0.002c0.239-0.006,0.481-0.014,0.725-0.023
					c0.174-0.371,0.348-0.742,0.522-1.114c-0.328,0.002-0.657,0.005-0.985,0.007C52.256,75.14,52.235,75.142,52.213,75.142z"/>
				<path fill="#A52A22" d="M73.552,73.114c-0.116,0.267-0.233,0.535-0.349,0.802c0.348,0.588,0.721,1.11,1.49,0.575
					C74.209,74.14,73.815,73.659,73.552,73.114z"/>
				<path fill="#801F14" d="M76.396,75.085c-0.038-0.001-0.075-0.006-0.113-0.008c0.159,0.039,0.326,0.036,0.493,0.026
					c-0.12,0.002-0.24-0.004-0.359-0.019C76.41,75.083,76.404,75.085,76.396,75.085z"/>
				<path fill="#821F13" d="M65.248,74.827c-0.274,0.047-0.546,0.072-0.82,0.08c-0.02,0.002-0.038,0.006-0.059,0.006h-0.542
					c-0.007,0.052-0.015,0.104-0.027,0.155c0.604-0.027,1.248,0.241,1.793-0.236C65.478,74.83,65.363,74.829,65.248,74.827z"/>
				<path fill="#6F4539" d="M70.174,64.755c-0.021-0.084-0.077-0.152-0.097-0.236c-0.01-0.019-0.017-0.04-0.028-0.058
					c-0.014-0.023-0.037-0.049-0.05-0.072c-0.014-0.023-0.007-0.057-0.023-0.079c-0.026-0.034-0.021-0.068-0.035-0.111
					c0-0.001,0-0.001,0-0.002c0,0,0,0,0,0c-0.032-0.073-0.084-0.131-0.13-0.196c-0.022-0.032-0.042-0.065-0.064-0.097
					c-0.01-0.014-0.019-0.028-0.028-0.043c-0.002-0.003-0.003-0.006-0.004-0.01c-0.009-0.013-0.017-0.026-0.024-0.04
					c-0.032-0.043-0.063-0.087-0.094-0.134c-0.04-0.06-0.086-0.109-0.123-0.164c-0.249-0.228-0.477-0.478-0.726-0.704
					c-0.024-0.015-0.048-0.031-0.072-0.045c-0.049-0.028-0.088-0.06-0.123-0.094c-0.262-0.115-0.532-0.214-0.824-0.284
					c-0.825-0.197-3.415-0.432-3.856-0.468c0.06,0.1,0.162,0.173,0.283,0.234c0.215,0.08,0.436,0.119,0.665,0.127
					c0.863,0.017,1.732-0.025,2.562,0.285c1.444,0.249,1.886,1.659,2.854,2.46C70.219,64.934,70.197,64.844,70.174,64.755z"/>
				<path fill="#6F4539" d="M77.125,61.902c-0.056,0.004-0.107,0-0.154-0.008c-0.025,0.003-0.05,0.008-0.077,0.008
					c-0.867,0.008-1.727,0.098-2.589,0.169c-0.064,0.038-0.139,0.064-0.226,0.073c-0.287,0.133-0.589,0.24-0.874,0.374
					c-0.065,0.058-0.139,0.108-0.22,0.151c-0.022,0.023-0.045,0.044-0.067,0.066c-0.064,0.063-0.128,0.125-0.192,0.188
					c-0.084,0.082-0.174,0.156-0.265,0.229c-0.06,0.069-0.13,0.13-0.208,0.183c-0.047,0.067-0.099,0.131-0.16,0.188
					c-0.056,0.074-0.115,0.145-0.179,0.212c-0.024,0.025-0.049,0.05-0.072,0.075c-0.028,0.029-0.077,0.087-0.027,0.022
					c-0.021,0.027-0.044,0.052-0.067,0.075c-0.083,0.111-0.164,0.225-0.224,0.323c-0.003,0.005-0.007,0.008-0.01,0.013
					c-0.028,0.048-0.057,0.095-0.086,0.142c0.012,0.015,0.018,0.035,0.014,0.058c-0.03,0.157-0.06,0.313-0.085,0.471
					c0.892-0.808,1.389-2.074,2.732-2.358c0.83-0.297,1.696-0.263,2.556-0.28c0.225-0.013,0.446-0.049,0.658-0.131
					c0.142-0.07,0.261-0.154,0.312-0.282C77.45,61.876,77.287,61.89,77.125,61.902z"/>
				<path fill="#6F4539" d="M61.631,61.669c0.128,0.075,0.257,0.149,0.387,0.22c0.415,0.077,0.826,0.136,1.197-0.038
					c-0.352-0.043-0.701-0.099-1.047-0.167C61.988,61.684,61.809,61.68,61.631,61.669z"/>
				<path fill="#4D2E27" d="M60.98,61.609c-0.348-0.042-0.696-0.091-1.044-0.137c-0.042-0.006-0.07-0.01-0.092-0.013
					c-0.007-0.001-0.011-0.001-0.019-0.002c-0.016-0.002-0.033-0.003-0.049-0.004c0.094,0.041,0.186,0.085,0.269,0.146
					c0.345,0.007,0.69,0.014,1.035,0.021C61.047,61.616,61.014,61.613,60.98,61.609z"/>
				<path fill="#4D2E27" d="M61.221,61.635c0.167,0.121,0.33,0.15,0.485,0.037C61.544,61.664,61.382,61.651,61.221,61.635z"/>
				<path fill="#4D2E27" d="M79.763,61.683c0.147,0.098,0.301,0.071,0.459-0.041C80.069,61.656,79.916,61.669,79.763,61.683z"/>
				<path fill="#4D2E27" d="M80.492,61.618c0.21-0.004,0.42-0.008,0.63-0.013c0.022-0.02,0.045-0.036,0.068-0.05
					C80.957,61.576,80.725,61.597,80.492,61.618z"/>
				<path fill="#570B03" d="M61.208,61.634c0.201,0.381,0.244,0.521,0.445,0.902c0.274,0.362,0.365,0.309,0.511,0.361
					c0.455,0.162,0.885,0.155,1.318,0.041c0.151,0,0.295-0.032,0.432-0.095c0.327-0.243,0.505-0.522,0.244-0.902
					c-0.405-0.027-1.289-0.178-1.99-0.255C61.712,61.634,61.336,61.647,61.208,61.634z"/>
				<path fill="#570B03" d="M77.339,61.885l-0.02,0.018c-0.157,0.369-0.051,0.654,0.184,0.897c0.157-0.012,0.315-0.019,0.474-0.023
					c0.069-0.024,0.145-0.04,0.231-0.04c0.045,0,0.086,0.005,0.127,0.012c0.038-0.007,0.078-0.012,0.121-0.012
					c0.404-0.001,0.808-0.007,1.212-0.015c0.191-0.36,0.381-0.721,0.572-1.081C79.274,61.728,78.307,61.813,77.339,61.885z"/>
				<path fill="#782615" d="M52.88,60.961c-0.4-0.01-0.803-0.034-1.203-0.082c-0.065-0.003-0.129-0.008-0.193-0.016
					c-0.034,0.002-0.068,0.005-0.102,0.005c-0.1,0-0.197-0.007-0.293-0.018c0.695,0.393,1.472,0.082,2.202,0.178
					c0.011,0,0.022-0.005,0.033-0.013C53.172,61.01,53.023,60.992,52.88,60.961z"/>
				<path fill="#5B3831" d="M58.348,61.37c0.352,0.119,0.703,0.154,1.052,0.072c-0.117-0.002-0.23-0.014-0.342-0.031
					C58.821,61.4,58.584,61.389,58.348,61.37z"/>
				<path fill="#5B3831" d="M56.783,61.282c0.01,0.009,0.021,0.017,0.031,0.028c0.396,0.009,0.793,0.018,1.189,0.027
					c-0.101-0.012-0.201-0.028-0.301-0.045C57.395,61.291,57.089,61.288,56.783,61.282z"/>
				<path fill="#B12820" d="M54.044,62.739c-1.083-0.283-2.064-0.224-2.975-0.219C52.029,61.404,53.209,61.618,54.044,62.739z"/>
				<path fill="#8C3326" d="M57.987,62.769c-1.08,0.01-2.159,0.021-3.239,0.031c-0.092-0.01-0.185-0.021-0.277-0.032
					c-0.006-0.085-0.014-0.171-0.023-0.255C55.627,62.608,56.84,62.227,57.987,62.769z"/>
				<path fill="#782615" d="M54.628,61.154c0.693,0.378,1.46,0.08,2.186,0.155c-0.007-0.01-0.014-0.019-0.022-0.028
					C56.068,61.267,55.347,61.23,54.628,61.154z"/>
				<path fill="#7B1E0D" d="M59.844,61.46c-0.007-0.001-0.011-0.001-0.019-0.002c-0.022-0.002-0.043-0.004-0.065-0.005
					c-0.113-0.004-0.225-0.008-0.338-0.009c-0.132-0.001-0.262-0.013-0.388-0.034c-0.247-0.011-0.494-0.023-0.74-0.044
					c0.529,0.455,1.163,0.189,1.751,0.234c-0.05-0.044-0.1-0.089-0.15-0.133C59.876,61.464,59.858,61.462,59.844,61.46z"/>
				<path fill="#5B3832" d="M82.194,61.468c0.272,0.041,0.546,0.014,0.82-0.069C82.74,61.421,82.467,61.444,82.194,61.468z"/>
				<path fill="#5B3832" d="M84.049,61.325c0.197-0.003,0.393-0.007,0.59-0.01c0.007-0.007,0.014-0.013,0.02-0.019
					C84.456,61.304,84.252,61.313,84.049,61.325z"/>
				<path fill="#8F362A" d="M90.455,62.596c0.023-0.024,0.045-0.05,0.065-0.081c-0.097-0.014-0.195-0.028-0.292-0.042
					c-0.889-0.475-1.776-0.509-2.663,0.006c-1.008,0.008-2.017-0.005-3.025,0.034c-0.496,0.019-1.028-0.143-1.491,0.127
					c0.391-0.007,0.781-0.013,1.172-0.014c0.048,0,0.093,0.004,0.135,0.012c1.423-0.005,2.849,0.022,4.273,0.073
					C89.24,62.694,89.848,62.645,90.455,62.596z"/>
				<path fill="#B12820" d="M90.229,62.473c-0.888,0.002-1.775,0.004-2.663,0.007C88.564,61.364,89.318,61.362,90.229,62.473z"/>
				<path fill="#771E0D" d="M86.254,61.269c-0.536-0.005-1.069,0.005-1.601,0.026c-0.005,0.006-0.01,0.012-0.015,0.019
					c0.718-0.064,1.465,0.149,2.169-0.057C86.626,61.266,86.442,61.271,86.254,61.269z"/>
				<path fill="#762010" d="M81.157,61.558c-0.012,0.015-0.024,0.03-0.035,0.047c0.666-0.072,1.379,0.229,1.997-0.215
					C82.465,61.442,81.811,61.499,81.157,61.558z"/>
				<path fill="#7C1C13" d="M70.287,66.122c-0.002-0.038-0.002-0.076,0-0.114c-0.001,0-0.001,0-0.002-0.001
					c-0.007-0.006-0.011-0.016-0.011-0.025v-0.053c0-0.002,0.002-0.004,0.002-0.006v-0.214c0-0.003,0.001-0.005,0.002-0.008
					c-0.001-0.008-0.003-0.015-0.003-0.024c0-0.165,0-0.329-0.015-0.493c-0.014-0.146-0.05-0.288-0.085-0.429
					c-0.02-0.078-0.059-0.167-0.087-0.242c-0.023-0.06-0.083-0.191-0.09-0.207c-0.045-0.096-0.125-0.221-0.189-0.314
					c-0.049-0.072-0.114-0.168-0.148-0.219c-0.069-0.103-0.188-0.27-0.281-0.355c-0.179-0.17-0.354-0.346-0.534-0.516
					c-0.11-0.089-0.189-0.18-0.345-0.254c-0.247-0.106-0.516-0.202-0.79-0.267c-0.063-0.015-0.13-0.01-0.195-0.016
					c-0.267,0.284-0.483,0.529-0.164,0.966c0.773,0.191,1.238,0.729,1.549,1.416c0.399,0.879,0.136,2.248,0.247,3.156
					c0.091,0.104,0.146-0.212,0.263-0.134l-0.001,0c0.091,0.104,0.204,0.188,0.294,0.294l-0.002-0.003
					c0.458,0.089,0.395-0.252,0.432-0.517c0.057-0.412-0.133-0.854,0.152-1.237C70.287,66.245,70.287,66.184,70.287,66.122z"/>
				<path fill="#7C1C13" d="M73.84,62.249c-0.215,0.089-0.431,0.174-0.64,0.272c-0.064,0.057-0.137,0.107-0.217,0.148
					c-0.022,0.023-0.045,0.044-0.067,0.066c-0.064,0.063-0.128,0.125-0.192,0.188c-0.084,0.082-0.174,0.156-0.265,0.229
					c-0.06,0.069-0.13,0.13-0.208,0.183c-0.047,0.067-0.099,0.131-0.16,0.188c-0.056,0.074-0.115,0.145-0.179,0.212
					c-0.024,0.025-0.049,0.05-0.072,0.075c-0.028,0.029-0.077,0.087-0.027,0.022c-0.02,0.026-0.042,0.049-0.064,0.071
					c-0.012,0.016-0.024,0.031-0.035,0.046c-0.099,0.143-0.192,0.294-0.282,0.446c0.007,0.013,0.011,0.028,0.008,0.047
					c-0.059,0.312-0.122,0.625-0.132,0.943c-0.009,0.285,0.041,0.57,0,0.854c0.234,0.51,0.038,1.148,0.296,1.683
					c0.311-0.19,0.506,0.12,0.712-0.006c0.412-0.85-0.07-2.233,0.295-3.088c0.182-0.812,0.729-1.262,1.489-1.501
					C74.452,62.855,74.127,62.557,73.84,62.249z"/>
				<path fill="#864134" d="M72.526,68.082c-0.01-0.389-0.012-0.777-0.012-1.166c0-0.008,0.002-0.015,0.005-0.022
					c-0.026-0.699-0.081-1.38,0.09-2.063v-0.002c-0.539,0.836-0.147,1.772-0.284,2.652c0.02,0.777,0.041,1.553,0.061,2.33
					c0.066,0.004,0.132,0.009,0.199,0.014c-0.031-0.211-0.05-0.42-0.053-0.633C72.462,68.83,72.501,68.452,72.526,68.082z"/>
				<path fill="#941703" d="M69.702,68.061c0.325-0.216,0.288-0.553,0.294-0.876c0.005-0.323-0.029-0.659,0.291-0.878
					c-0.005,0.525,0.023,1.053-0.026,1.573C70.225,68.258,70.008,68.37,69.702,68.061z"/>
				<path fill="#752519" d="M68.899,70.038c0.07-0.063,0.14-0.126,0.21-0.189c-0.007-0.432-0.014-0.865-0.021-1.297
					C69.039,69.048,68.979,69.545,68.899,70.038z"/>
				<path fill="#941703" d="M69.912,69.876c0-0.12-0.001-0.24-0.003-0.357c-0.002-0.122,0.031-0.222,0.084-0.304
					c0.001-0.09,0.002-0.179,0.004-0.269c-0.355,0.213-0.281,0.573-0.308,0.898c0,0,0.007,0.015,0.007,0.015
					C69.773,69.904,69.845,69.91,69.912,69.876z"/>
				<path fill="#941703" d="M69.41,67.77c0.098,0.098,0.196,0.196,0.294,0.294C69.606,67.966,69.508,67.868,69.41,67.77z"/>
				<path fill="#A52B23" d="M67.051,74.169c-0.102,0.104-0.203,0.208-0.305,0.312c0.609,0.559,1.022,0.012,1.483-0.264
					c0.049-0.351-0.144-0.605-0.338-0.857C67.664,73.679,67.377,73.95,67.051,74.169z"/>
				<path fill="#AC2B23" d="M64.679,61.969c-0.247,0.3-0.434,0.661-0.832,0.808c-0.1,0.014-0.199,0.029-0.299,0.043
					c0.003,0.085,0.011,0.169,0.023,0.253c1.26,0.082,2.545-0.189,3.78,0.26c0.087-0.335,0.233-0.622,0.32-0.958
					c-0.859-0.173-1.416-0.214-2.306-0.321C65.068,62.02,64.855,61.976,64.679,61.969z"/>
				<path fill="#AE2A22" d="M75.403,63.049c0.055-0.015,0.113-0.025,0.178-0.025c0.053-0.018,0.11-0.033,0.173-0.039
					c0.475-0.044,0.936-0.108,1.401-0.155c0.004-0.027,0.006-0.054,0.004-0.084c-0.056-0.318-0.172-0.606-0.423-0.824
					c-0.095-0.003-0.189-0.007-0.284-0.01c-0.717,0.027-1.432,0.099-2.147,0.158c-0.065,0.039-0.142,0.064-0.231,0.074
					c-0.083,0.038-0.165,0.076-0.25,0.111c0.091,0.357,0.183,0.714,0.274,1.071c0.294-0.126,0.594-0.19,0.897-0.223
					c0.08-0.035,0.172-0.056,0.279-0.056H75.403z"/>
				<path fill="#834135" d="M77.96,62.774c-0.104-0.004-0.209-0.008-0.313-0.012c-0.217-0.149-0.421-0.13-0.612,0.05
					c-0.001,0.01-0.002,0.02-0.003,0.03C77.339,62.81,77.647,62.784,77.96,62.774z"/>
				<path fill="#991704" d="M77.646,62.763c-0.204,0.016-0.408,0.033-0.612,0.05c-0.344-0.214-0.285-0.565-0.3-0.89
					c0.195-0.007,0.39-0.013,0.585-0.02C77.428,62.189,77.537,62.476,77.646,62.763z"/>
				<path fill="#991703" d="M64.121,61.937c-0.091,0.28-0.182,0.559-0.274,0.839c0.647,0.094,0.908-0.206,0.874-0.806
					C64.521,61.963,64.321,61.951,64.121,61.937z"/>
			</g>
		</g>
	</g>
</g>
<g>
	<g>
		<defs>
			
				<ellipse id="Ellipse_891_00000055688276897010911940000014094123114628349621_" cx="280.267" cy="-1614.416" rx="536.198" ry="536.198"/>
		</defs>
		<clipPath id="Ellipse_891_00000059276612320956814640000011867223337853644728_">
			<use xlink:href="#Ellipse_891_00000055688276897010911940000014094123114628349621_"  overflow="visible"/>
		</clipPath>
		<g clip-path="url(#Ellipse_891_00000059276612320956814640000011867223337853644728_)">
			<path fill="#4C7E9E" d="M225.683-232.777 M280.267-68.856c-1.588,18.109-5.714,36.171-7.581,54.255
				c-2.178,21.106-3.152,42.236-5.55,63.317c-1.98,17.402-4.345,34.763-6.724,52.116c-3.019,22.024-6.225,44.023-9.35,66.033
				c-2.89,20.349-5.653,40.716-8.704,61.041c-3.751,24.99-8.141,50.057-12.785,74.885c-5.624,30.066-4.491,60.281-3.972,90.714
				c0.456,26.696,0.504,53.419-0.147,80.109c-0.526,21.545-2.349,43.058-3.623,64.584c-0.697,11.775-1.402,23.55-2.185,35.32
				c-1.388,20.844-3.332,41.734-5.391,62.512c-2.688,27.137-6.284,54.184-9.48,81.27c-2.881,24.419-5.558,48.864-8.681,73.252
				c-2.908,22.716-7.436,45.353-10.408,68.062c-2.448,18.703-4.477,37.46-6.702,56.192c-2.501,21.064-5.103,42.117-7.48,63.196
				c-1.095,9.707-1.711,19.467-2.633,29.195c-0.636,6.705-0.569,13.649-2.45,20.003c-1.215,4.104-4.638,8.694-8.352,10.73
				c-21.067,11.544-43.045,12.559-65.337,3.489c-3.922-1.596-6.583-4.522-6.998-9.152c-1.322-14.76-2.652-29.52-4.21-44.256
				c-1.593-15.068-3.514-30.101-5.193-45.16c-1.68-15.063-3.241-30.139-4.849-45.21c-1.537-14.403-2.996-28.814-4.622-43.207
				c-1.776-15.724-3.676-31.435-5.572-47.145c-1.735-14.375-3.622-28.732-5.288-43.116c-1.705-14.721-3.216-29.465-4.823-44.197
				c-1.789-16.401-3.629-32.797-5.369-49.203c-0.995-9.379-1.825-18.776-2.744-28.163c-1.148-11.727-2.319-23.451-3.465-35.178
				c-0.819-8.381-1.798-16.751-2.373-25.15c-0.92-13.452-1.411-26.934-2.365-40.383c-1.024-14.442-2.372-28.86-3.579-43.289
				c-0.084-1.01-0.222-2.017-0.257-3.028c-0.747-21.579-1.542-43.156-2.205-64.738c-0.746-24.283-0.455-48.642-2.376-72.828
				c-1.247-15.705-5.732-31.143-8.614-46.729C8.573,261.222-0.785,211.175-9.773,161.062c-6.724-37.489-13.178-75.031-19.29-112.624
				c-4.108-25.269-7.566-50.649-11.024-76.019c-2.82-20.685-5.587-41.39-7.68-62.156c-1.993-19.772-2.78-39.663-4.632-59.451
				c-3.978-42.501-1.51-85.081-1.736-127.619c-0.076-14.399,2.075-28.893,4.151-43.206c6.833-47.121,21.882-91.811,41.04-135.222
				c0.818-1.854,7.582-18.918,9.508-21.25c2.837,0.909,470.322,3.173,576.924,2.47c12.915-0.085,7.712,9.296,8.263,11.517
				c6.803,15.399,12.996,31.11,19.328,46.7c14.943,36.797,23.697,75.328,29.643,114.418c2.878,18.925,5.557,37.993,4.969,57.368
				c-0.634,20.936,0.3,41.92-0.349,62.855c-0.574,18.5-2.28,36.97-3.681,55.439c-1.325,17.464-2.627,34.938-4.447,52.354
				c-1.784,17.08-4.008,34.122-6.4,51.13c-3.002,21.344-6.237,42.658-9.617,63.946c-4.81,30.288-9.582,60.585-14.845,90.796
				c-7,40.179-14.324,80.305-21.762,120.406c-6.211,33.487-12.793,66.905-19.187,100.358c-0.442,2.312-0.926,4.655-0.992,6.995
				c-0.741,26.307-1.131,52.627-2.17,78.922c-0.877,22.214-2.486,44.398-3.763,66.596c-0.755,13.123-1.348,26.257-2.281,39.367
				c-1.051,14.775-2.381,29.53-3.632,44.29c-0.739,8.727-1.499,17.452-2.352,26.168c-2.624,26.805-5.284,53.607-7.956,80.407
				c-2.138,21.448-4.102,42.915-6.536,64.329c-2.205,19.401-5.054,38.727-7.401,58.112c-1.7,14.041-2.976,28.132-4.565,42.187
				c-1.74,15.388-3.711,30.749-5.42,46.14c-1.673,15.062-3.101,30.151-4.711,45.219c-1.788,16.736-3.701,33.459-5.479,50.197
				c-0.961,9.044-2.156,18.091-2.481,27.164c-0.223,6.232-2.586,10.411-8.241,12.582c-21.322,8.185-42.362,7.278-62.744-2.934
				c-6.175-3.094-10.157-7.985-10.728-15.871c-1.456-20.14-3.616-40.235-5.84-60.31c-2.151-19.409-4.712-38.773-7.132-58.152
				c-2.295-18.38-4.581-36.761-6.982-55.127c-2.968-22.708-6.147-45.388-9.055-68.103c-2.522-19.705-4.829-39.437-7.159-59.166
				c-1.58-13.379-2.997-26.777-4.555-40.159c-1.09-9.361-2.479-18.691-3.412-28.067c-2.101-21.107-4.192-42.218-5.915-63.358
				c-1.122-13.769-1.544-27.595-2.358-41.391c-1.211-20.512-2.505-41.019-3.727-61.531c-0.181-3.033-0.224-6.078-0.225-9.118
				c-0.013-38.529-0.34-77.063,0.141-115.587c0.229-18.363-2.445-36.273-5.26-54.271c-4.581-29.29-8.895-58.621-13.303-87.938
				c-3.756-24.983-7.617-49.952-11.181-74.962c-2.565-18.003-4.697-36.067-7.056-54.099c-2.446-18.696-5.088-37.367-7.353-56.085
				c-1.82-15.043-3.23-30.137-4.777-45.212c-1.89-18.418-3.801-36.833-5.571-55.263c-0.934-9.723-1.799-19.461-2.318-29.213
				c-0.913-17.171-5.542-34.358-6.28-51.538c-0.694-16.167-2.439-32.332-3.016-48.502c-0.128-3.602-3.308-9.669-3.075-13.838
				L280.267-68.856 M220.525-235.803"/>
			<path fill="#6E4539" d="M-203.578-173.904c0.026-0.79,0.071-1.605,0.746-3.283c0.021-0.052,0.041-0.111,0.055-0.166
				c2.067-8.01,3.631-15.04,4.768-22.139c2.387-14.906,4.431-30.223,12.599-43.018c5.676-8.891,7.93-18.067,9.007-27.94
				c0.651-5.975,0.309-12.052,0.785-18.054c1.819-22.944,4.118-45.855,5.616-68.819c1.718-26.327,2.816-52.696,4.104-79.05
				c0.75-15.35,1.359-30.708,2.007-46.063c0.691-16.359,1.344-32.72,2.03-49.079c0.658-15.689,1.208-31.385,2.034-47.065
				c1.247-23.672,2.304-47.366,4.207-70.988c1.068-13.26,2.946-26.554,5.778-39.546c3.339-15.321,8.858-30.174,12.085-45.513
				c5.77-27.429,10.698-55.039,15.645-82.634c2.535-14.144,4.433-28.402,7.208-42.618c0.182-0.932,1.234-1.405,2.058-0.934
				c7.048,4.03,13.88,7.637,19.704,12.461c20.233,16.76,40.235,33.601,64.254,45.114c18.234,8.74,36.847,15.844,56.602,20.211
				c0.829,0.183,1.299,1.061,0.99,1.852c-1.088,2.791-2.063,5.164-3.228,7.44c-11.601,22.657-23.229,45.3-34.906,67.918
				c-1.994,3.862-4.547,7.453-6.334,11.399c-3.847,8.495-8.627,16.839-10.755,25.785c-4.552,19.13-6.247,39.008-11.64,57.857
				c-13.617,47.596-28.4,94.864-43.161,142.125c-11.97,38.324-23.614,76.715-31.222,116.19c-4.804,24.926-9.309,49.906-9.109,75.46
				c0.028,3.63-0.877,7.271-1.384,10.902c-0.828,5.923,0.148,11.158,4.534,15.736c8.766,9.15,13.973,20.241,17.255,32.426
				c6.381,23.693,5.169,46.928-2.983,70.015c-5.388,15.257-5.417,30.125,4.478,44.026c2.499,3.512,4.306,7.59,5.994,11.593
				c7.352,17.432,0.525,41.362-22.398,48.394c-5.55,1.703-8.861-0.068-9.23-5.598c-1.642-24.577-11.329-46.508-21.313-68.512
				c-5.228-11.523-8.716-23.836-12.991-35.791c-0.085-0.239-0.171-0.477-0.256-0.715c-0.588-1.637-3.096-0.899-2.653,0.783
				c0.004,0.015,0.008,0.029,0.012,0.044c2.356,8.712,5.043,17.342,7.144,26.112c0.721,3.012,1.096,6.819-0.116,9.464
				c-6.905,15.074-6.222,30.339-2.776,46.019c3.705,16.857,11.333,32.144,18.133,47.779c7.797,17.929,14.056,36.155,12.807,56.189
				c-0.412,6.601-2.287,12.439-6.222,17.677c-3.655,4.865-8.226,6.892-14.228,5.384c-0.432-0.109-0.787-0.438-0.948-0.853
				c-1.712-4.418-3.231-8.593-4.965-12.678c-13.462-31.725-26.894-63.462-40.493-95.128c-8.038-18.718-9.827-38.004-6.262-57.948
				c0.413-2.309,0.056-4.756,0.056-7.139c-4.579,13.296-4.84,43.071-0.755,56.522c2.818,9.282,5.874,18.536,9.556,27.502
				c12.073,29.403,24.48,58.668,36.757,87.988c3.675,8.776,7.565,10.686,16.073,6.689c3.127-1.47,9.553-7.823,12.371-9.952
				c1.1-0.831,2.609,0.284,2.135,1.578c-3.715,10.154-11.48,24.241-22.71,29.574c-0.735,0.349-1.617,0.011-1.912-0.747
				c-3.402-8.733-6.228-16.489-9.481-24.062c-10.829-25.209-21.78-50.365-32.811-75.487c-2.654-6.045-5.795-11.876-8.7-17.787
				c-0.02-0.041-0.036-0.077-0.053-0.121c-0.26-0.691-3-7.794-3.019-8.542c-2.316-8.111-1.811-7.653-4.512-14.825
				c-4.45-11.816-5.707-24.034-4.331-36.466c1.977-17.864,5.082-35.609,6.84-53.49c0.758-7.711-0.059-13.216,1.42-23.314
				C-203.584-173.808-203.58-173.857-203.578-173.904z"/>
			<path fill="#425D72" d="M86.448,1033.058c-0.168-0.088-0.322-0.206-0.448-0.347c-6.63-7.407-4.696-17.015-5.874-25.603
				c-4.448-32.438-8.017-64.995-12.015-97.496c-3.509-28.526-7.078-57.044-10.752-85.549c-3.63-28.17-7.518-56.306-11.114-84.479
				c-2.369-18.561-4.514-37.151-6.595-55.746c-2.712-24.235-5.317-48.483-7.849-72.738c-0.902-8.638-1.627-17.303-2.137-25.972
				c-1.609-27.368-3.261-54.735-4.54-82.119c-0.968-20.717-1.534-41.456-2.017-62.191c-0.648-27.775-0.974-55.557-1.622-83.332
				c-0.1-4.3-0.853-8.654-1.852-12.852C1.581,268.788-13.859,192.404-27.004,115.568c-7.609-44.478-14.84-89.029-21.452-133.665
				c-3.768-25.44-6.204-51.089-8.782-76.69c-3.283-32.6-6.334-65.218-6.304-98.056c0.016-17.718-1.232-35.435-1.336-53.157
				c-0.42-71.363,16.102-139.093,44.5-204.186c3.985-9.133,8.559-18.008,13.682-27.522c0.373-0.693,1.216-0.989,1.946-0.695
				c2.747,1.105,4.997,2.582,7.035,4.457c0.469,0.432,0.597,1.128,0.346,1.714c-1.968,4.599-3.719,8.698-5.742,13.36
				c-15.367,33.233-27.553,66.813-36.004,101.753c-5.823,24.072-11.442,48.396-11.654,73.055
				c-0.377,43.838-2.507,87.742,1.51,131.565c1.859,20.276,2.331,40.687,4.471,60.927c2.629,24.864,6.18,49.636,9.631,74.406
				c4.005,28.747,7.889,57.523,12.63,86.154c6.76,40.823,14.067,81.559,21.483,122.27c7.778,42.698,15.691,85.376,24.083,127.956
				c4.082,20.71,7.425,41.367,6.501,62.537c-0.329,7.54-0.406,15.09-0.013,22.627c1.141,21.881,2.623,43.744,3.768,65.624
				c0.891,17.024,1.481,34.064,2.21,51.097c0.029,0.669,0.104,1.336,0.165,2.003c1.899,20.928,3.896,41.848,5.669,62.786
				c1.549,18.292,2.781,36.611,4.289,54.907c0.63,7.645,1.589,15.264,2.433,22.891c1.797,16.24,3.649,32.474,5.417,48.716
				c1.589,14.594,2.993,29.209,4.67,43.792c1.675,14.574,3.688,29.11,5.367,43.683c1.604,13.921,2.821,27.886,4.472,41.801
				c2.397,20.198,5.267,40.342,7.498,60.557c2.379,21.553,4.165,43.172,6.368,64.745c1.829,17.914,4.107,35.785,5.712,53.717
				c0.482,5.383,2.555,9.005,7.302,10.92c21.751,8.773,43.219,7.777,63.96-3.01c5.693-2.961,9.674-7.711,9.689-15.233
				c0.015-7.974,1.237-15.955,2.096-23.916c1.824-16.908,3.73-33.807,5.65-50.704c1.582-13.92,3.16-27.841,4.874-41.744
				c1.633-13.239,3.445-26.456,5.169-39.684c1.724-13.228,3.452-26.455,5.15-39.686c2.335-18.196,4.643-36.395,6.96-54.593
				c1.685-13.234,3.378-26.466,5.047-39.702c1.668-13.237,3.513-26.456,4.911-39.722c1.678-15.928,2.869-31.907,4.444-47.847
				c1.771-17.919,4.047-35.794,5.536-53.735c1.684-20.292,2.907-40.627,4.013-60.961c0.944-17.356,1.871-34.733,2.04-52.108
				c0.325-33.521-0.084-67.05,0.208-100.572c0.125-14.35,0.477-28.778,2.091-43.015c2.292-20.208,5.835-40.275,8.864-60.4
				c3.03-20.123,6.141-40.234,9.112-60.366c2.338-15.84,4.528-31.702,6.762-47.558c3.118-22.126,6.245-44.252,9.315-66.385
				c1.878-13.541,3.726-27.086,5.461-40.646c1.609-12.575,3.264-25.151,4.513-37.764c1.645-16.603,2.817-33.253,4.368-49.866
				c1.798-19.259,4.211-38.47,5.569-57.758c1.29-18.334,1.559-36.739,2.288-55.113c0.093-2.341,0.28-4.679,0.37-7.02
				c0.549-14.357,1.11-28.713,1.607-43.072c0.149-4.293-1.794-6.553-6.256-7.562c-7.155-1.619-14.407-3.38-21.124-6.242
				c-10.993-4.684-22.533-8.679-31.012-17.842c0.057,0,0.202-0.001,0.547,0.048c0.13,0.018,0.267,0.022,0.394,0.057
				c6.769,1.887,12.696,4.091,18.802,5.548c12.648,3.019,25.271,6.821,38.127,8.148c22.934,2.368,45.415-0.497,66.661-10.428
				c2.764-1.292,5.685-2.246,8.629-3.155c1.577,2.673,1.34,2.271,2.916,4.944c-16.146,15.666-37.629,19.313-60.157,21.779
				c-0.773,0.085-1.36,0.739-1.361,1.517c-0.028,13.843-0.458,27.086,0.119,40.284c0.801,18.329,2.513,36.616,3.679,54.931
				c0.87,13.668,1.387,27.359,2.268,41.027c0.515,7.989,1.329,15.962,2.194,23.922c1.802,16.572,3.753,33.128,5.596,49.695
				c2.212,19.892,4.172,39.815,6.617,59.678c2.24,18.198,4.962,36.337,7.505,54.497c2.497,17.831,5.003,35.66,7.564,53.482
				c2.8,19.484,5.598,38.969,8.526,58.434c3.672,24.409,7.533,48.79,11.199,73.201c1.783,11.873,4.456,23.756,4.753,35.684
				c1.301,52.216-1.775,104.483,2.016,156.692c1.378,18.979,1.544,38.047,2.272,57.074c0.008,0.219,0.023,0.439,0.044,0.657
				c1.256,13.077,2.708,26.137,3.79,39.228c0.935,11.313,1.403,22.665,2.299,33.982c0.605,7.646,1.543,15.267,2.426,22.889
				c1.765,15.235,3.601,30.462,5.396,45.693c1.639,13.912,3.209,27.832,4.908,41.736c1.659,13.57,3.423,27.127,5.177,40.685
				c2.353,18.19,4.75,36.374,7.11,54.563c1.674,12.899,3.342,25.798,4.968,38.703c1.626,12.906,3.187,25.821,4.792,38.73
				c1.728,13.897,3.662,27.771,5.167,41.692c2.151,19.891,4.41,39.788,5.77,59.74c0.565,8.296,4.803,13.146,11.29,16.324
				c19.951,9.774,40.503,10.563,61.298,2.706c5.512-2.083,8.308-5.9,8.441-12.25c0.182-8.656,1.218-17.309,2.176-25.931
				c2.468-22.202,5.228-44.373,7.621-66.583c2.287-21.227,4.039-42.512,6.433-63.726c2.281-20.208,5.289-40.334,7.614-60.538
				c2.974-25.845,5.596-51.731,8.35-77.601c2.683-25.203,5.349-50.408,8.006-75.614c0.805-7.632,1.573-15.268,2.328-22.905
				c1.869-18.914,3.924-37.813,5.51-56.751c1.087-12.977,1.482-26.01,2.244-39.015c0.644-11,1.4-21.992,2.054-32.991
				c1.308-21.996,2.907-43.981,3.782-65.995c1.036-26.069,1.414-52.165,2.148-78.248c0.065-2.315,0.569-4.633,1.018-6.92
				c6.24-31.786,12.806-63.512,18.686-95.364c6.605-35.773,12.59-71.661,18.858-107.496c5.174-29.582,10.866-59.083,15.42-88.759
				c5.362-34.939,9.993-69.996,14.474-105.061c3.635-28.443,7.235-56.919,9.618-85.483c1.805-21.634,1.989-43.426,2.325-65.157
				c0.601-38.8-0.386-77.367-7.496-115.861c-9.243-50.045-23.838-98.018-46.864-144.132c-0.019-0.038-0.04-0.077-0.062-0.113
				c-1.882-3.177-3.694-5.844-5.188-8.753c-0.387-0.752-0.11-1.681,0.639-2.073c3.157-1.655,6.056-3.048,8.921-4.408
				c0.729-0.346,1.606-0.067,2,0.638c11.878,21.287,20.982,43.809,29.09,66.727c14.447,40.836,23.813,82.822,29.198,125.843
				c3.047,24.349,4.535,48.703,3.384,73.083c-1.733,36.698-4.175,73.385-7.381,109.984c-2.74,31.282-6.308,62.527-10.725,93.616
				c-5.547,39.044-11.724,78.022-18.734,116.829c-9.154,50.672-19.124,101.201-29.268,151.687
				c-5.613,27.934-12.323,55.647-18.42,83.486c-0.994,4.539-1.584,9.162-1.712,13.807c-0.23,8.328,0.059,16.669-0.088,25
				c-0.622,35.147-0.773,70.314-2.162,105.431c-1.267,32.049-3.431,64.083-6.073,96.052c-2.751,33.287-6.218,66.525-9.984,99.714
				c-3.314,29.208-7.525,58.314-11.245,87.477c-4.313,33.815-8.478,67.648-12.791,101.463c-3.72,29.163-7.69,58.295-11.299,87.471
				c-2.379,19.233-4.182,38.537-6.563,57.77c-0.458,3.697-2.302,7.222-4.509,11.579c-0.119,0.235-0.306,0.446-0.526,0.592
				c-3.667,2.445-6.454,4.172-9.952,5.989c-0.154,0.08-0.327,0.135-0.499,0.159c-6.305,0.893-11.796,1.906-17.334,2.379
				c-16.553,1.416-32.456-1.252-47.979-8.679c-0.069-0.033-0.139-0.073-0.202-0.116c-2.473-1.667-4.617-2.869-6.747-4.049
				c-0.206-0.114-0.387-0.273-0.522-0.465c-3.324-4.702-3.987-10.082-4.558-15.717c-2.83-27.91-5.657-55.829-9.134-83.663
				c-3.893-31.167-8.381-62.262-12.798-93.361c-4.323-30.431-9.079-60.801-13.278-91.249c-3.287-23.833-6.232-47.718-8.934-71.624
				c-2.925-25.885-5.815-51.788-7.935-77.747c-1.958-23.974-3.497-48.016-4.111-72.058c-1.026-40.146-1.329-80.314-1.586-120.474
				c-0.081-12.685,0.842-25.383,1.513-38.065c0.984-18.603-3.425-36.558-6.486-54.65c-7.695-45.482-16.03-90.858-23.463-136.382
				c-6.299-38.581-11.961-77.272-17.383-115.988c-2.871-20.504-4.904-41.138-6.824-61.76c-2.384-25.611-4.253-51.27-6.393-76.904
				c-0.019-0.231-0.081-0.458-0.174-0.698c-0.502-1.296-2.449-1.351-2.851-0.02c-0.024,0.08-0.04,0.159-0.046,0.239
				c-1.629,20.656-2.788,41.358-4.847,61.97c-2.688,26.911-5.704,53.801-9.261,80.61c-4.484,33.792-9.194,67.567-14.646,101.213
				c-7.271,44.874-15.369,89.614-23.07,134.418c-2.945,17.13-6.119,34.232-8.495,51.442c-0.999,7.236-0.413,14.727-0.173,22.089
				c0.502,15.367,1.721,30.723,1.803,46.088c0.166,30.828,0.404,61.68-0.593,92.483c-0.853,26.352-3.298,52.657-5.213,78.97
				c-1.237,16.99-2.437,33.995-4.281,50.925c-2.892,26.563-6.078,53.099-9.571,79.59c-4.019,30.479-8.482,60.899-12.801,91.338
				c-3.615,25.475-7.442,50.92-10.911,76.414c-3.288,24.166-6.437,48.355-9.263,72.578c-2.322,19.904-3.991,39.884-6.194,59.804
				c-0.304,2.752-1.935,5.357-3.935,8.845c-0.09,0.158-0.215,0.306-0.354,0.422c-3.022,2.515-5.155,4.243-7.946,6.076
				c-0.107,0.071-0.228,0.129-0.349,0.171c-5.996,2.056-11.151,4.454-16.568,5.788c-16.108,3.968-32.28,3.025-48.804-0.795
				c-0.157-0.036-0.312-0.1-0.451-0.183C92.222,1036.095,89.33,1034.571,86.448,1033.058z"/>
			<path fill="#3F221A" d="M43.685-813.032c8.433,0.41,8.433,0.41,9.804,8.775c-3.889,6.527-8.191,12.035-11.533,18.074
				c-18.8,33.968-37.635,67.923-55.772,102.245c-3.276,6.2-4.281,14.029-4.741,21.208c-1.573,24.509-6.397,48.461-13.403,71.793
				c-14.724,49.035-30.278,97.827-46.071,146.531c-13.115,40.446-25.129,81.176-32.608,123.049
				c-3.337,18.681-4.639,37.727-6.806,56.613c-0.472,4.117,0.502,7.594,3.317,11.085c24.845,30.815,27.768,65.506,17.536,102.394
				c-1.252,4.513-2.649,8.989-3.759,13.536c-2.504,10.257-1.054,19.87,4.697,28.864c2.518,3.938,4.687,8.12,6.764,12.316
				c10.492,21.194,1.069,47.748-20.554,57.273c-3.523,1.552-7.736,2.019-11.647,2.094c-5.258,0.101-8.893-2.895-10.144-8.065
				c-1.018-4.206-1.662-8.515-2.257-12.808c-2.73-19.688-11.018-37.505-18.343-57.946c-4.289,9.704-6.637,17.504-5.473,25.896
				c2.223,16.017,7.264,31.204,14.041,45.866c5.613,12.143,11.528,24.187,16.334,36.652c5.553,14.402,9.56,29.203,6.114,45.053
				c-0.732,3.369,1.492,7.309,1.064,10.83c-1.524,12.557-6.002,24.033-14.976,33.233c-6.924,7.098-11.067,7.151-20.673,3.747
				c-4.007-1.42-8.428-1.67-13.038-2.101c-2.721-0.254-5.043-2.081-5.931-4.666l-0.016-0.046
				c-10.919-31.986-22.151-63.871-32.55-96.026c-5.032-15.557-8.975-31.519-12.428-47.509c-1.453-6.726-1.345-14.156-0.263-21
				c4.582-28.976,9.797-57.851,15.414-87.261c0.268,0.47,2.014-6.179,1.994-5.666c-0.357,9.003-2.078,21.308-2.79,28.554
				c-1.758,17.881-4.864,35.626-6.84,53.49c-1.376,12.432,0.472,24.609,4.921,36.424c2.701,7.172,5.133,18.346,7.872,25.312
				c-0.142-0.204-1.144-0.397-1.283-0.604c-8.553-12.7-11.563-30.354-15.006-46.672c-1.801,12.073,0.53,21.865,3.71,31.332
				c13.854,41.251,28.001,82.403,42.068,123.582c1.526,4.468,4.686,6.185,8.312,4.507c4.171-1.931,3.351-5.049,1.959-8.461
				c-10.235-25.096-20.619-50.134-30.466-75.381c-3.75-9.613-9.912-19.272-10.488-29.986c-0.016-0.288,0.277,0.108,0.269-0.183
				c2.929,5.951,6.083,11.804,8.747,17.871c11.031,25.121,21.982,50.278,32.811,75.487c2.576,5.997,4.884,12.109,7.423,18.73
				c1.457,3.799,6.185,5.244,9.41,2.764c8.528-6.56,11.644-16.592,15.218-26.332c-4.13,2.86-7.97,6.34-12.454,8.447
				c-8.508,3.998-12.399,2.088-16.073-6.689c-12.276-29.319-24.684-58.585-36.757-87.988c-3.681-8.966-6.737-18.22-9.556-27.502
				c-4.085-13.451-3.823-43.226,0.755-56.522c0,2.383,0.357,4.83-0.056,7.139c-3.565,19.944-1.776,39.23,6.262,57.948
				c13.599,31.666,27.031,63.404,40.493,95.128c1.82,4.289,3.404,8.678,5.223,13.344c6.343,1.845,11.124-0.147,14.918-5.197
				c3.935-5.238,5.81-11.076,6.222-17.677c1.25-20.034-5.009-38.261-12.807-56.189c-6.8-15.635-14.428-30.922-18.133-47.779
				c-3.446-15.68-4.13-30.945,2.776-46.019c1.211-2.645,0.837-6.452,0.116-9.464c-2.101-8.771-4.788-17.4-7.144-26.112
				c-0.135-0.499-0.21-1.013-0.193-1.55c0.044-1.375,1.971-1.672,2.438-0.378c0.218,0.605,0.436,1.211,0.653,1.817
				c4.275,11.955,7.763,24.268,12.991,35.791c9.984,22.004,19.671,43.935,21.313,68.512c0.369,5.53,3.681,7.301,9.23,5.598
				c22.923-7.032,29.75-30.963,22.398-48.394c-1.688-4.002-3.495-8.081-5.994-11.593c-9.894-13.901-9.865-28.769-4.478-44.026
				c8.152-23.087,9.364-46.322,2.983-70.015c-3.282-12.185-8.489-23.276-17.255-32.426c-4.386-4.578-5.361-9.813-4.534-15.736
				c0.507-3.631,1.413-7.271,1.384-10.902c-0.2-25.554,4.305-50.534,9.109-75.46c7.608-39.475,19.252-77.866,31.222-116.19
				c14.761-47.261,29.543-94.529,43.161-142.125c5.393-18.849,7.088-38.727,11.64-57.857c2.128-8.946,6.908-17.29,10.755-25.785
				c1.787-3.946,4.34-7.537,6.334-11.399c11.677-22.618,23.305-45.261,34.906-67.918c1.369-2.675,2.476-5.484,4.341-9.387
				C34.864-793.862,39.274-803.447,43.685-813.032z"/>
		</g>
	</g>
</g>
</svg>
