<svg xmlns="http://www.w3.org/2000/svg" xmlns:xlink="http://www.w3.org/1999/xlink" width="137.14" height="137.14" viewBox="0 0 137.14 137.14">
  <defs>
    <clipPath id="clip-path">
      <circle id="Ellipse_1117" data-name="Ellipse 1117" cx="68.57" cy="68.57" r="68.57" transform="translate(1.43 1.43)"/>
    </clipPath>
  </defs>
  <g id="Group_117516" data-name="Group 117516" transform="translate(-1.43 -1.43)">
    <circle id="Ellipse_891_00000005964716488048450410000003806494722649672332_" cx="68.57" cy="68.57" r="68.57" transform="translate(1.43 1.43)" fill="#f1f1f1"/>
    <g id="Group_117477" data-name="Group 117477">
      <g id="Group_117476" data-name="Group 117476" clip-path="url(#clip-path)">
        <path id="Path_38703" data-name="Path 38703" d="M82.41,108.554a59.313,59.313,0,0,1-5.348,2.679,18.88,18.88,0,0,1-4.058,1.2,19.273,19.273,0,0,1-4.679.011,32.486,32.486,0,0,1-10.808-5.353,57.287,57.287,0,0,1-6.4-5.641,32.256,32.256,0,0,1-8.205-12.935c-.989-3.142-2.464-6.209-2.461-9.541,0-3.678-.689-7.222-.809-10.9-.027-.842-.238-1.9-.284-2.855-.007-.145.171-15.465.5-16.714.316-1.213,10.647-11.444,12.012-12.551,1.428-1.158,6.682-3.257,7.983-3.983,1.348-.753,7.878-3.119,9.644-3.2a56.022,56.022,0,0,1,11.339,2.1,60.123,60.123,0,0,1,6.153,4.61A28.226,28.226,0,0,0,92.455,39c1.339.926,1.014,3.256,2.424,4.079.694.4,1.458,2.032,2.257,2.22.406.1,2.695,7.138,2.646,7.265a5.684,5.684,0,0,0,.943,4.013c.19.251.148,4.853.656,6.184.3.8-.5,2.918-.614,3.749a80.419,80.419,0,0,0-.593,10.546A39.321,39.321,0,0,1,98.72,87.433a34.427,34.427,0,0,1-6.13,11.8C89.45,103.177,82.41,108.554,82.41,108.554ZM60.756,92.308h0m5.033-8.822h0M57.227,58.1h0m27.429,0" fill="#6e4438"/>
        <path id="Path_38704" data-name="Path 38704" d="M81.329,66.509l1.253,6.58-3.739-1.233-2.668-1.807.529-1Z" fill="#fafcfc"/>
        <path id="Path_38705" data-name="Path 38705" d="M93.575,67.205l-4.783-.837.305,1.4.318,2.067-1.328,2.21,1.691-.288,2.2-1.807a16.75,16.75,0,0,0,1.356-1.977C93.4,67.828,93.575,67.205,93.575,67.205Z" fill="#fafcfc"/>
        <path id="Path_38706" data-name="Path 38706" d="M60.32,66.509l-1.253,6.58,3.739-1.233,2.668-1.807-.529-1Z" fill="#fafcfc"/>
        <path id="Path_38707" data-name="Path 38707" d="M48.1,67.165l4.783-.837-.305,1.4L52.265,69.8l1.328,2.21L51.9,71.721l-2.2-1.807L48.275,67.8Z" fill="#fafcfc"/>
        <path id="Path_38708" data-name="Path 38708" d="M30.631,165.583c0,.295-.055.654-.071,1.469a.241.241,0,0,1-.058.154c-.184.211-.405.408-.412.5-.249,3.36-.551,6.719-.695,10.085-.111,2.6-.022,5.2-.017,7.806,0,.392-.123.9.073,1.153a1.863,1.863,0,0,1,0,2.24.245.245,0,0,1-.284.128,52.389,52.389,0,0,1-13.9-5.8,24.315,24.315,0,0,1-7.558-7.1,2.477,2.477,0,0,1-.061-3.057,140.381,140.381,0,0,0,11.411-23.718c1.15-3.133,2.255-6.283,3.349-9.436a15.745,15.745,0,0,1,7.359-9.2c3.449-1.875,6.825-3.892,10.335-5.643a62.351,62.351,0,0,1,12.436-4.506,6.121,6.121,0,0,1,.861-.146c.063-.007.132.037.252.1a.245.245,0,0,1,.133.2,1.918,1.918,0,0,1-.015.636c-2.35,8.451,3.582,17.177,12.051,19.1a18.061,18.061,0,0,0,16.528-3.869,17.743,17.743,0,0,0,6.058-10.8,14.825,14.825,0,0,0-.207-5.054.243.243,0,0,1,.244-.282,3.475,3.475,0,0,1,.781.059,78.57,78.57,0,0,1,12.07,4.237,92.644,92.644,0,0,1,11.834,6.564,15.287,15.287,0,0,1,6.232,8.137c1.922,5.3,3.809,10.628,5.912,15.862a126.736,126.736,0,0,0,7.847,15.819c.489.851.972,1.707,1.5,2.534a1.542,1.542,0,0,1-.015,1.781,19.305,19.305,0,0,1-4.018,4.86,39.511,39.511,0,0,1-15.485,8.1.247.247,0,0,1-.287-.136c-.36-.77-.554-1.672-.831-2.323-.189-.443-1.654-4.575-1.737-4.851-.354-1.169-.661-2.355-1.06-3.508a4.7,4.7,0,0,0-.71-1.086.243.243,0,0,1-.042-.175c.241-1.763.613-3.522.677-5.292a92.231,92.231,0,0,0-.013-9.538,61.93,61.93,0,0,0-1.252-7.523,13.518,13.518,0,0,0-.879-2.649,6.726,6.726,0,0,0-.831-1.253.243.243,0,0,0-.265-.093h0a.243.243,0,0,0-.176.224,3.765,3.765,0,0,0,.013.85c.46,2.4.993,4.8,1.408,7.209a36.773,36.773,0,0,1,.288,9.517c-.5,5.714-2.148,11.155-3.6,16.647a86.714,86.714,0,0,0-2.4,11.95c-.2,1.652-.445,3.3-.563,4.96a43.406,43.406,0,0,0,1.876,14.813,111.078,111.078,0,0,0,5.063,13.971c1.1,2.57,2.267,5.115,3.4,7.674.464,1.052.449,1.3-.654,1.87-2.265,1.167-4.541,2.333-6.891,3.312a98.592,98.592,0,0,1-19.631,5.622,60.791,60.791,0,0,1-8.014.971c-3.965.216-7.949.388-11.912.23a79.083,79.083,0,0,1-9.907-1.2,100.573,100.573,0,0,1-17.453-4.707,51.414,51.414,0,0,1-9.6-4.463,6.708,6.708,0,0,1-.542-.4.245.245,0,0,1-.079-.281c.239-.626.451-1.256.734-1.854a147.755,147.755,0,0,0,7.215-17.875,62.766,62.766,0,0,0,2.743-12.768,39.468,39.468,0,0,0-.327-7.9,91.279,91.279,0,0,0-2.488-13.427c-1.111-4.471-2.343-8.919-3.244-13.433a34.633,34.633,0,0,1-.609-9.931,93.473,93.473,0,0,1,1.639-10c.089-.445.137-.9.206-1.459a.245.245,0,0,0-.376-.235,2.278,2.278,0,0,0-.951,1.4c-.671,2.455-1.391,4.909-1.838,7.408a57.232,57.232,0,0,0-.562,6.743Z" fill="#f87360"/>
        <path id="Path_38709" data-name="Path 38709" d="M82.492,102.919c.218,2.318.483,16.262.467,15.479,3.325.13,5.064.5,5.148,4.233A17.536,17.536,0,0,1,84.754,133.2c-2.242,2.983-5.882,5.866-9.449,6.74-6.1,1.494-12.788.455-17.171-4.2a16.3,16.3,0,0,1-3.992-14.157c.437-1.942,1.754-2.713,4.087-2.966.581-.112,1.969-12.594,2.41-14.753A11.766,11.766,0,0,1,63.6,105.04a14.689,14.689,0,0,0,4.949.771,21.186,21.186,0,0,0,6.587-1.06,28.214,28.214,0,0,0,4.306-1.285A7,7,0,0,1,82.492,102.919Z" fill="#6e4539"/>
        <path id="Path_38710" data-name="Path 38710" d="M101.054,73.555a16.4,16.4,0,0,1,.344-2.092c.361-.567-.036-1.163-.364-.98.111-1.334.216-2.669.336-4,.028-.307.146-.607.16-.913.073-1.57.069-1.575,1.462-2a4.855,4.855,0,0,1,5.858,2.788,11.923,11.923,0,0,1,.538,5.812,14.23,14.23,0,0,1-2.309,6.353,3.4,3.4,0,0,1-1.064.917c-1.527-.577-2.623-1.36-2.49-3.178-.125-2.074-.542-2.507-2.471-2.7m1.712-3.851" fill="#6e4438"/>
        <path id="Path_38711" data-name="Path 38711" d="M104.864,81.272c-.492-.268-1.882.184-1.393.812a3.475,3.475,0,0,1-2.963.173,72.6,72.6,0,0,1,.346-8.592c1.043-.109,2.016.279,2.222,1.138.053.22.363.378.554.565-.125,1.607,1.461,3.466,2.825,4.065A12.7,12.7,0,0,1,104.864,81.272Z" fill="#603b34"/>
        <path id="Path_38712" data-name="Path 38712" d="M100.972,70.993c.373-.229.684-.4,1-.577l.21.17c-.228.372-.456.744-.755,1.176A1.553,1.553,0,0,1,100.972,70.993Z" fill="#42241b"/>
        <path id="Path_38713" data-name="Path 38713" d="M39.2,63.951a2.67,2.67,0,0,1,.372.262c.265,2.044.473,4.047.689,6.137-.4-.08-.662.307-1.023.234a5.752,5.752,0,0,1,1.36,2.485,11.026,11.026,0,0,0-2.371,1.514c-.355.445-.273,1.239-.429,2.1-.609,1.365-.758,2.772-2.1,3.4a10.089,10.089,0,0,1-3.127-5.115,12.428,12.428,0,0,1-.452-7.472,5.013,5.013,0,0,1,6.209-3.686c.246.057.5.078.874.132m-.566,5.907" fill="#6e4438"/>
        <path id="Path_38714" data-name="Path 38714" d="M38.045,82.053c.232-.373-.05-.722.274-1.112.207-.248,0-.3-.1-.5-.109-.242.6-.452.273-.518-.862-.175-1.229.6-1.986,1-.316-.116-.7-.669-.96-.911,1.344-.744,1.5-2.2,2.134-3.485.26-.516.07-.912.291-1.32a2.439,2.439,0,0,1,2.056-.917c.455,1.311.118,2.667.244,3.981s.593,2.65.09,4.064C39.616,82.248,38.9,82.163,38.045,82.053Z" fill="#603b34"/>
        <path id="Path_38715" data-name="Path 38715" d="M76.066,69.857a6.493,6.493,0,0,1,.826-3.676c1.539-3.239,4.3-6.427,7.316-5.983a15.074,15.074,0,0,1,6.49,2.483,7.162,7.162,0,0,1,2.877,3.929c-1.35-.33-2.6-.742-3.845-1.179a10.852,10.852,0,0,0-4.6-.688c-3.4.3-6.345,1.467-8.364,4.4A5.556,5.556,0,0,1,76.066,69.857Z" fill="#57362f"/>
        <path id="Path_38716" data-name="Path 38716" d="M48.1,67.165a4.292,4.292,0,0,1,1.17-2.823c1.656-1.949,3.991-2.74,6.4-3.4.658-.179,1.333-.3,2.053-.454,2.428-.906,5.4,2.485,6.926,5.244a6.383,6.383,0,0,1,.989,4.177c-2.5-4.2-8.589-5.837-12.8-4.4C51.31,66.04,49.642,66.663,48.1,67.165Z" fill="#57362f"/>
        <path id="Path_38717" data-name="Path 38717" d="M95.376,57.137c.63.816,1.574,1.333,1.758,2.508a.166.166,0,0,1-.245.171c-1.641-.938-3.116-1.881-4.69-2.61a32.653,32.653,0,0,0-5.1-1.863,12.836,12.836,0,0,0-5.527-.508c-1.694.285-3.377.633-5.217.987a.167.167,0,0,1-.193-.2,5.479,5.479,0,0,1,2.676-3.628,8.889,8.889,0,0,1,6.408-.952A16.822,16.822,0,0,1,93.4,55.212c.662.582,1.267,1.231,1.971,1.925m-13.6-3.019c1.316.054,2.645.012,3.946.183a22.921,22.921,0,0,1,7.205,2.393,2.445,2.445,0,0,0,.581.175.164.164,0,0,0,.188-.219,1.935,1.935,0,0,0-.634-.853,32.131,32.131,0,0,0-3-2.108c-2.668-1.557-5.5-2.546-8.651-1.91a5.393,5.393,0,0,0-3.847,2.629.165.165,0,0,0,.165.248c1.39-.2,2.6-.367,4.043-.538m12.607,3.1" fill="#25262a"/>
        <path id="Path_38718" data-name="Path 38718" d="M49.279,54.551a16.561,16.561,0,0,1,7.625-3.53c2.845-.418,5.5-.077,7.593,2.151a4.366,4.366,0,0,1,1.26,2.542.165.165,0,0,1-.2.182A22.649,22.649,0,0,0,58.5,54.759a19.512,19.512,0,0,0-7.127,1.665c-2.149,1.005-4.142,2.153-6.289,3.292a.275.275,0,0,1-.322-.151c-.106-.5.35-.87.679-1.213,1.221-1.275,2.5-2.5,3.838-3.8M52,53.581a15.254,15.254,0,0,0-3.587,2.853.164.164,0,0,0,.189.253,34.594,34.594,0,0,1,7.553-2.4,21.669,21.669,0,0,1,8.068.39.164.164,0,0,0,.174-.25,6.454,6.454,0,0,0-6.1-2.859,13.521,13.521,0,0,0-6.29,2Z" fill="#25262a"/>
        <path id="Path_38719" data-name="Path 38719" d="M64.759,82.738c-1.075-1.168-1.1-1.979.061-3.136a9.608,9.608,0,0,0,2.471-3.436,15.166,15.166,0,0,0,.974-3.816,25.27,25.27,0,0,0,.042-5.741,5.752,5.752,0,0,1,.877,3.306,32.13,32.13,0,0,1-.026,3.827,33.893,33.893,0,0,1-.751,3.612,30.213,30.213,0,0,1,3.895.429,4.4,4.4,0,0,1,3.531,3.181,1.482,1.482,0,0,1-.416,1.632,2.941,2.941,0,0,0-1.853-3.039,7.179,7.179,0,0,0-7.039-.154,2.806,2.806,0,0,0-1.752,3.2A.6.6,0,0,1,64.759,82.738Z" fill="#42241b"/>
        <path id="Path_38720" data-name="Path 38720" d="M65.059,83.025a.5.5,0,0,1-.265-.226c-.035-.062-.028-.07-.024-.074a.413.413,0,0,1,.26.233Z" fill="#42241b"/>
        <path id="Path_38721" data-name="Path 38721" d="M65.06,83.025l.1.112a.226.226,0,0,1-.086-.074C65.059,83.025,65.059,83.025,65.06,83.025Z" fill="#42241b"/>
        <path id="Path_38722" data-name="Path 38722" d="M81.633,54.119c-1.343.173-2.562.346-3.987.548a.124.124,0,0,1-.127-.182,5.4,5.4,0,0,1,3.892-2.707c3.152-.636,5.983.354,8.651,1.91a32.131,32.131,0,0,1,3,2.108,1.95,1.95,0,0,1,.648.889.144.144,0,0,1-.164.191,2.647,2.647,0,0,1-.62-.183A22.973,22.973,0,0,0,85.717,54.3C84.418,54.13,83.088,54.172,81.633,54.119Z" fill="#454c55"/>
        <path id="Path_38723" data-name="Path 38723" d="M63.285,94.236a.889.889,0,0,1-.094-.131.213.213,0,0,1,.1.072C63.3,94.215,63.292,94.229,63.285,94.236Z" fill="#823e42"/>
        <path id="Path_38724" data-name="Path 38724" d="M52.1,53.527a13.32,13.32,0,0,1,6.2-1.956,6.454,6.454,0,0,1,6.137,2.919.136.136,0,0,1-.144.207,21.694,21.694,0,0,0-8.139-.406,35.484,35.484,0,0,0-7.708,2.456.116.116,0,0,1-.136-.175C49.27,55.23,50.726,54.5,52.1,53.527Z" fill="#454c55"/>
        <path id="Path_38725" data-name="Path 38725" d="M58.184,119.243c.013-.273.039-.643.1-1.132.417-3.294.767-6.276,1.126-9.309a.053.053,0,0,0-.023-.049c-9.6-6.239-16.8-14.1-18.793-25.817a.05.05,0,0,0-.055-.041,8.105,8.105,0,0,1-5.283-1.476l-.006,0a7.77,7.77,0,0,0-.8-.559.039.039,0,0,1-.01-.008,14.286,14.286,0,0,1-3.93-13,5.973,5.973,0,0,1,4.228-4.908l.007,0a6.3,6.3,0,0,1,.969-.145h.008l3.677.274A.052.052,0,0,0,39.46,63c-.163-.8-.338-1.529-.447-2.27a2.043,2.043,0,0,1,.2-.974v0c.29-.642.5-1.245.732-1.755a.05.05,0,0,1,.1.016c.411,3.4.911,6.673,1.123,9.967.248,3.85.219,7.718.334,11.577a29.768,29.768,0,0,0,2.751,11.621,38.631,38.631,0,0,0,12.266,14.657,41.274,41.274,0,0,0,9.948,5.572,11.3,11.3,0,0,0,8.25.265,35.622,35.622,0,0,0,3.86-1.532A39.991,39.991,0,0,0,95.281,94.555,28.3,28.3,0,0,0,98.414,86.8c1.166-3.823,1.218-7.663,1.327-11.637.242-3.378.382-6.627.717-9.856a59.6,59.6,0,0,1,1.113-6.111.051.051,0,0,1,.1-.006,15.444,15.444,0,0,1,.658,2.134.1.1,0,0,1,0,.017,14.707,14.707,0,0,0-.078,1.838.052.052,0,0,0,.069.049,7.441,7.441,0,0,1,4.4-.127h0a9.313,9.313,0,0,1,1.065.391c1.988,1.106,2.766,3.094,3.011,5.274a14.491,14.491,0,0,1-3.315,11.179l0,0c-.375.373-.61.635-.942.938a7.561,7.561,0,0,1-5.921,2.008.051.051,0,0,0-.056.04c-.146.615-.284,1.124-.383,1.64a33.056,33.056,0,0,1-6.494,14.177,39.445,39.445,0,0,1-9.486,8.912,2.527,2.527,0,0,0-1.3,2.664c.179,2.02.236,3.9.344,5.925.031.585.115,1.311.108,1.9,0,.13.025.627.04,1.093.006.816,0,1.312,0,1.932,0,.165-.143.072-.16.017-.731-2.273-.671-4.617-.973-7.045-.138-1.589-.288-3.054-.452-4.664a.052.052,0,0,0-.072-.042c-.54.23-.893.351-1.215.529a24.076,24.076,0,0,1-6.9,2.609,12.12,12.12,0,0,1-3.5.226,23.785,23.785,0,0,1-8.646-2.907,9.349,9.349,0,0,0-.977-.374.053.053,0,0,0-.07.041c-.26,1.858-.5,3.58-.8,5.4-.238,1.216-.361,2.34-.619,3.433a19.32,19.32,0,0,1-.811,3.356c-.127.333-.479.319-.428-.132l.413-2.386m44.178-48.812a5.117,5.117,0,0,0-1.141,2.834c0,.014.015.024.027.031.613.306,1.517.37,1.994.979a1.962,1.962,0,0,1,.39,1.943.051.051,0,0,1-.094,0c-.1-.221-.216-1.217-1.025-1.519a2.443,2.443,0,0,0-1.371-.049.053.053,0,0,0-.043.048c-.109,2.384-.218,4.789-.334,7.329a.053.053,0,0,0,.052.054,5.66,5.66,0,0,0,4.817-2.114c.117-.146.953-.992,1.169-1.31A14.007,14.007,0,0,0,109.226,68.1c-.622-3.572-3.541-5.157-6.988-3.791a.055.055,0,0,0-.029.027c-.9,1.877-.781,4.044-.908,6.035a.053.053,0,0,0,.053.055,2.023,2.023,0,0,0,.6-.2,3.067,3.067,0,0,1,.555-.3c.1.025-.025.327-.15.5M37.689,76.089a7.742,7.742,0,0,1,.221-1.46,1.353,1.353,0,0,1,.466-.663,5.876,5.876,0,0,1,1.539-.7.053.053,0,0,0,.029-.033,1.976,1.976,0,0,0-.624-2.172,6.725,6.725,0,0,0-.69-.594c-.074-.066-.2-.128-.109-.318.052-.111.34-.061.485-.018s.653.1.982.139a.053.053,0,0,0,.059-.055c-.1-1.531-.214-2.976-.3-4.424-.079-1.316-.088-1.342-1.713-1.839h-.005a4.7,4.7,0,0,0-5.8,3.282,10.076,10.076,0,0,0-.22,5.559c.593,2.63,1.433,5.15,3.642,7.195a6.516,6.516,0,0,0,4.659,2.067A.052.052,0,0,0,40.364,82c-.148-2.591-.285-5.012-.423-7.435a.053.053,0,0,0-.048-.049,1.535,1.535,0,0,0-1.615.788,6.105,6.105,0,0,1-.5.829A.05.05,0,0,1,37.689,76.089Z" fill="#42241b"/>
        <g id="Group_117467" data-name="Group 117467">
          <path id="Path_38726" data-name="Path 38726" d="M102.722,79.75a4.439,4.439,0,0,1,2.546,1.753,3.779,3.779,0,0,1,.59.985A16.935,16.935,0,0,1,107.19,90.1a10.574,10.574,0,0,1-1.333,5.213,4.677,4.677,0,0,1-3.529,2.243A4.819,4.819,0,0,1,98.77,95.1a7.261,7.261,0,0,1-.035-5.385,22.438,22.438,0,0,1,.236,3c.25,1.808,1.352,2.55,2.819,3.486a1,1,0,0,0,1.205-.039,5.982,5.982,0,0,0,3.039-4.232,15.634,15.634,0,0,0-.171-6.992C105.588,83.705,103.058,80.972,102.722,79.75Z" fill="#a8874a"/>
          <path id="Path_38727" data-name="Path 38727" d="M104.888,81.882a14.117,14.117,0,0,1,1.168,3.048,15.671,15.671,0,0,1-.022,7,6.24,6.24,0,0,1-3.039,4.378,1,1,0,0,1-1.205.039c-1.468-.936-2.7-1.789-2.949-3.6-.1-.7-.139-1.037-.252-2.173a1.131,1.131,0,0,1,.011-.26c.492-2.261,1.392-5.246,1.954-7.348.009-.058.015-.084.123-.072.164.018.293.033.478.038.136,0,.028.4-.017.544a21.574,21.574,0,0,0-1.316,6.913,4.541,4.541,0,0,0,2.323,3.952.472.472,0,0,0,.418.046.715.715,0,0,0,.24-.126,3.444,3.444,0,0,0,.566-.605c2.344-3.454,2.211-7.07.672-10.766-.08-.193-1.738-2.047-2.115-2.475-.179-.2-.185-.584.067-.68C103.065,79.332,104.478,81.052,104.888,81.882Z" fill="#deb565"/>
          <path id="Path_38728" data-name="Path 38728" d="M101.985,82.923a17.638,17.638,0,0,0-1.205,7.432A3.2,3.2,0,0,0,102.092,93a.263.263,0,0,0,.312-.02,4.939,4.939,0,0,0,1.549-3.042,18.314,18.314,0,0,0,.2-3.8,13.676,13.676,0,0,0-.394-2.307c-.359-1.487-1.605-2.858-1.6-3.148a7.075,7.075,0,0,1,1.879,2.209c1.539,3.695,1.671,7.312-.672,10.766a2.385,2.385,0,0,1-.688.716.666.666,0,0,1-.652-.048,4.579,4.579,0,0,1-2.207-3.936,20.193,20.193,0,0,1,1.333-7.457A6.809,6.809,0,0,0,101.985,82.923Z" fill="#a8874a"/>
        </g>
        <g id="Group_117468" data-name="Group 117468">
          <path id="Path_38729" data-name="Path 38729" d="M35.335,84.94a15.634,15.634,0,0,0-.171,6.992A5.982,5.982,0,0,0,38.2,96.164a1,1,0,0,0,1.205.039c1.468-.936,2.569-1.678,2.819-3.486a23.338,23.338,0,0,1,.22-3.066,6.9,6.9,0,0,1-.019,5.453,4.82,4.82,0,0,1-3.558,2.449,4.677,4.677,0,0,1-3.529-2.243A10.579,10.579,0,0,1,34.008,90.1a16.935,16.935,0,0,1,1.332-7.608,3.779,3.779,0,0,1,.59-.985,4.442,4.442,0,0,1,2.546-1.753C38.14,80.972,35.611,83.705,35.335,84.94Z" fill="#a8874a"/>
          <path id="Path_38730" data-name="Path 38730" d="M39.206,79.74c.253.1.246.477.067.68-.376.428-2.034,2.283-2.115,2.475-1.539,3.695-1.671,7.312.672,10.766a3.558,3.558,0,0,0,.566.605.715.715,0,0,0,.24.126.472.472,0,0,0,.418-.046,4.544,4.544,0,0,0,2.323-3.952,21.574,21.574,0,0,0-1.316-6.913c-.045-.144-.153-.54-.017-.544.185,0,.314-.02.478-.038.108-.012.114.014.123.072.562,2.1,1.462,5.087,1.954,7.348a1.19,1.19,0,0,1,.011.26c-.114,1.136-.156,1.473-.252,2.173-.25,1.808-1.482,2.661-2.949,3.6A1,1,0,0,1,38.2,96.31a6.242,6.242,0,0,1-3.039-4.378,15.671,15.671,0,0,1-.022-7,14.065,14.065,0,0,1,1.168-3.048C36.721,81.052,38.134,79.332,39.206,79.74Z" fill="#deb565"/>
          <path id="Path_38731" data-name="Path 38731" d="M40.045,82.936a20.193,20.193,0,0,1,1.333,7.457,4.579,4.579,0,0,1-2.207,3.936.666.666,0,0,1-.652.048,3.3,3.3,0,0,1-.932-.731c-2.344-3.454-1.968-7.056-.429-10.751a7.076,7.076,0,0,1,1.879-2.209c0,.29-1.243,1.661-1.6,3.148a13.676,13.676,0,0,0-.394,2.307,18.314,18.314,0,0,0,.2,3.8,4.939,4.939,0,0,0,1.549,3.042A.263.263,0,0,0,39.1,93a3.207,3.207,0,0,0,1.312-2.644,17.635,17.635,0,0,0-1.205-7.432A7.255,7.255,0,0,0,40.045,82.936Z" fill="#a8874a"/>
        </g>
        <g id="Group_117473" data-name="Group 117473">
          <g id="Group_117469" data-name="Group 117469">
            <path id="Path_38732" data-name="Path 38732" d="M75.956,70.156A11.738,11.738,0,0,0,85.4,73.593c5.7-.68,7.894-4.948,8.083-6.081A9.837,9.837,0,0,1,88.5,71.856c-3.551,1.4-7.1,1.775-12.087-1.889Z"/>
            <ellipse id="Ellipse_1113" data-name="Ellipse 1113" cx="4.925" cy="4.43" rx="4.925" ry="4.43" transform="translate(79.934 64.557)"/>
            <ellipse id="Ellipse_1114" data-name="Ellipse 1114" cx="4.311" cy="3.877" rx="4.311" ry="3.877" transform="translate(80.482 65.153)" fill="#22211e"/>
            <path id="Path_38733" data-name="Path 38733" d="M81.758,67.812a1.1,1.1,0,0,1,.971-.944c1.083-.217.982.968.679,1.531s-.751.881-1.271.462A1,1,0,0,1,81.758,67.812Z" fill="#fafcfc"/>
            <path id="Path_38734" data-name="Path 38734" d="M97.335,66.416s-1.889,1.662-6.686.68-6.95-1.171-10.841.642-3.4,2.229-3.4,2.229l-.453.189s1-4.4,7.043-5.7c5.036-1.079,8.025,1.58,10.288,1.976A15.292,15.292,0,0,0,97.335,66.416Z"/>
          </g>
          <g id="Group_117470" data-name="Group 117470">
            <path id="Path_38735" data-name="Path 38735" d="M65.731,70.156a11.738,11.738,0,0,1-9.443,3.437c-5.7-.68-7.894-4.948-8.083-6.081a9.837,9.837,0,0,0,4.986,4.344c3.551,1.4,7.1,1.775,12.087-1.889Z"/>
            <ellipse id="Ellipse_1115" data-name="Ellipse 1115" cx="4.925" cy="4.43" rx="4.925" ry="4.43" transform="translate(51.902 64.557)"/>
            <ellipse id="Ellipse_1116" data-name="Ellipse 1116" cx="4.311" cy="3.877" rx="4.311" ry="3.877" transform="translate(52.583 65.153)" fill="#22211e"/>
            <path id="Path_38736" data-name="Path 38736" d="M53.75,67.812a1.1,1.1,0,0,1,.971-.944c1.083-.217.982.968.679,1.531s-.751.881-1.271.462A1,1,0,0,1,53.75,67.812Z" fill="#fafcfc"/>
            <path id="Path_38737" data-name="Path 38737" d="M44.352,66.416s1.889,1.662,6.686.68,6.95-1.171,10.841.642,3.4,2.229,3.4,2.229l.453.189s-1.007-4.057-7.026-5.477C53.723,63.5,51.347,65.732,48.4,66.434A11.538,11.538,0,0,1,44.352,66.416Z"/>
          </g>
          <g id="Group_117472" data-name="Group 117472">
            <g id="Group_117471" data-name="Group 117471">
              <path id="Path_38738" data-name="Path 38738" d="M76.034,70.156a9.962,9.962,0,0,1,2.483-7.4c2.658-2.9,3.7-2.54,6.28-4.73,0,0-2.047,2.148-5.053,4.795C76.661,65.539,76.034,70.156,76.034,70.156Z" fill="#4a2d26"/>
              <path id="Path_38739" data-name="Path 38739" d="M93.56,66.434s-.419-3.1-4.7-5.1a12.965,12.965,0,0,0-6.515-1.411l-1.151.9a12.647,12.647,0,0,1,7.72,1.268C93.149,64.153,93.56,66.434,93.56,66.434Z" fill="#4a2d26"/>
            </g>
          </g>
          <path id="Path_38740" data-name="Path 38740" d="M65.766,70.156a10.086,10.086,0,0,0-2.483-7.4c-2.109-2.333-3.127-1.689-6.28-4.73a4.484,4.484,0,0,0,1.3,1.8c1.033.924,2.994,2.1,4.107,3.433A22.178,22.178,0,0,1,65.766,70.156Z" fill="#4a2d26"/>
          <path id="Path_38741" data-name="Path 38741" d="M48.1,66.509a8.735,8.735,0,0,1,5.138-5.4,12.3,12.3,0,0,1,6.066-1.047l.847.551a15.969,15.969,0,0,0-7.167,1.3C48.673,63.805,48.1,66.509,48.1,66.509Z" fill="#4a2d26"/>
        </g>
        <path id="Path_38742" data-name="Path 38742" d="M60.64,92.015A4.842,4.842,0,0,0,66,91.533c2.473-2.016,3.7-1.6,4.641-1.654a7.294,7.294,0,0,1,3.887,1.159c1.412.872,2.9,2.132,5.137,1.327a22.2,22.2,0,0,0-2.011,2.488c-.666.97-.983,2.02-2.2,2.921a8.731,8.731,0,0,1-4.631,1.15c-1.017-.027-3.973.228-5.88-2.137A40.813,40.813,0,0,0,60.64,92.015Z" fill="#542e2a"/>
        <path id="Path_38743" data-name="Path 38743" d="M60.292,91.771a12.753,12.753,0,0,1,3.264,3.545,8.486,8.486,0,0,0,7.219,3.906,6.788,6.788,0,0,0,6-2.7c1.814-2.419,1.955-3.193,2.789-4.2,0,0-2.5,3.455-4.006,4.447a8.445,8.445,0,0,1-4.779,1.418,7.869,7.869,0,0,1-6.493-2.811A21.577,21.577,0,0,0,60.292,91.771Z" fill="#321a1a"/>
        <path id="Path_38744" data-name="Path 38744" d="M61.025,92.1A4.641,4.641,0,0,0,66,91.24a5.439,5.439,0,0,1,4.641-1.507,7.294,7.294,0,0,1,3.887,1.159,8.741,8.741,0,0,0,5.137,1.62,24.759,24.759,0,0,1-9.273,2.167A20.9,20.9,0,0,1,61.025,92.1Z" fill="#542e2a"/>
        <path id="Path_38745" data-name="Path 38745" d="M58.705,90.541a18.225,18.225,0,0,0,24.277-.4A22.064,22.064,0,0,1,70.491,94.07C62.936,94.136,58.705,90.541,58.705,90.541Z" fill="#321a1a"/>
        <path id="Path_38746" data-name="Path 38746" d="M63.07,92.511a9.6,9.6,0,0,0,3.863-2.058,5.75,5.75,0,0,1,6.033-.684,32.5,32.5,0,0,0,4.747,2.541,12.041,12.041,0,0,1-2.648-.929,11.917,11.917,0,0,0-4.411-1.21C67.3,90.171,66.78,92.043,63.07,92.511Z" fill="#321a1a"/>
        <path id="Path_38747" data-name="Path 38747" d="M114.315,240.359c-.607.334-1.147.59-1.857.946-2.2,1.086-4.187,2.168-6.263,3.04a89.432,89.432,0,0,1-30.359,6.437,99.452,99.452,0,0,1-24.015-1.71,73.7,73.7,0,0,1-20.847-7.005c-.82-.436-1.646-.862-2.469-1.293-.416-.275-.832-.549-1.341-.834-.677-.6-.362-1.163-.075-1.753a152.864,152.864,0,0,0,6.619-15.716,75.444,75.444,0,0,0,3.549-13.637,32.9,32.9,0,0,0-.325-10.519c-.311-1.883-.687-3.755-1.052-5.862-.224-1.343-.224-1.343-1.593-1.429-1.73-.226-3.333-.393-4.924-.631a34.043,34.043,0,0,1-18-8.085c-.5-.523-.968-.957-1.432-1.391-1.319-1.767-2.633-3.537-3.96-5.3a1.567,1.567,0,0,1-.04-1.893,287.859,287.859,0,0,0,14.658-32.615c.374-.959.669-1.95,1.056-2.9a15.136,15.136,0,0,1,6.078-7.384c3.672-2.268,7.365-4.53,11.207-6.485a64.293,64.293,0,0,1,19.344-6.146c-.047.427-.071.675-.094,1.052-2.333.253-2.66.455-3.1,2.4a13.67,13.67,0,0,0,3.627,12.9c4.383,4.655,9.975,5.752,16.07,4.258a15.272,15.272,0,0,0,8.822-5.726c2.167-2.883,3.669-6.015,3.586-9.727-.084-3.73-.484-3.842-3.812-4.219-.026-.455-.031-.787-.035-1.12a71.342,71.342,0,0,1,18.506,5.71,86.619,86.619,0,0,1,12.371,7.107,16.036,16.036,0,0,1,6.388,8.23c2.113,6.03,4.6,11.906,7.2,17.736,1.8,4.034,3.677,8.033,5.57,12.024.778,1.639,1.651,3.237,2.551,4.813a1.764,1.764,0,0,1-.068,2.163c-1.308,1.715-2.61,3.434-4.055,5.267-.518.436-.9.757-1.364,1.117a30.51,30.51,0,0,1-11.616,6.769,53.5,53.5,0,0,1-11.445,2.1c-1.226.2-1.226.2-1.307,1.716a73.1,73.1,0,0,0-1.547,10.9,40.66,40.66,0,0,0,1.7,12.2,127.776,127.776,0,0,0,7.866,20.611c.292.622.581,1.246.855,1.876.454,1.041.437,1.084-.638,2.019M29.588,189.232a23.885,23.885,0,0,0,5.964.956c-.662-2.3-1.239-4.467-1.913-6.606a62.682,62.682,0,0,1-3.081-16.442c0-.315.039-1.37.008-1.791.195-2.194.238-4.415.625-6.575.448-2.5,1.167-4.954,1.838-7.408a2.267,2.267,0,0,1,1.386-1.631c-.107.79-.153,1.364-.266,1.926a93.473,93.473,0,0,0-1.639,10,34.6,34.6,0,0,0,.609,9.931c.9,4.514,2.133,8.962,3.244,13.433a91.279,91.279,0,0,1,2.488,13.427,39.543,39.543,0,0,1,.327,7.9,62.647,62.647,0,0,1-2.743,12.768,147.918,147.918,0,0,1-7.215,17.875c-.308.652-.533,1.343-.8,2.024.3.224.483.384.687.51a51.384,51.384,0,0,0,9.6,4.463,100.4,100.4,0,0,0,17.453,4.707,79.268,79.268,0,0,0,9.907,1.2c3.962.158,7.947-.013,11.912-.23a61,61,0,0,0,8.014-.971,98.66,98.66,0,0,0,19.631-5.622c2.35-.978,4.626-2.145,6.891-3.312,1.1-.568,1.119-.817.654-1.87-1.129-2.559-2.293-5.1-3.4-7.674a111.237,111.237,0,0,1-5.063-13.971,43.406,43.406,0,0,1-1.876-14.813c.118-1.658.367-3.307.563-4.96a86.864,86.864,0,0,1,2.4-11.95c1.452-5.492,3.1-10.933,3.6-16.647a36.775,36.775,0,0,0-.288-9.517c-.415-2.412-.948-4.8-1.408-7.209a5.561,5.561,0,0,1-.009-1.025l.338-.1a8.522,8.522,0,0,1,.93,1.394,13.5,13.5,0,0,1,.879,2.649,62.125,62.125,0,0,1,1.252,7.523,92.231,92.231,0,0,1,.013,9.538,37.265,37.265,0,0,1-.823,5.55q-1.777,6.341-3.546,12.684a4.192,4.192,0,0,0-.009.954c1.712-.3,3.3-.521,4.851-.876,1.126-.257,2.211-.7,3.545-1.084a40.437,40.437,0,0,0,15.457-7.953,19.327,19.327,0,0,0,4.018-4.86,1.539,1.539,0,0,0,.015-1.781c-.527-.827-1.011-1.683-1.5-2.534a126.6,126.6,0,0,1-7.847-15.819c-2.1-5.235-3.99-10.557-5.912-15.862a15.287,15.287,0,0,0-6.232-8.137,92.657,92.657,0,0,0-11.834-6.564,78.57,78.57,0,0,0-12.07-4.237,1.793,1.793,0,0,0-.317-.047.612.612,0,0,0-.639.71,13.7,13.7,0,0,1,.138,4.613,17.746,17.746,0,0,1-6.058,10.8,18.061,18.061,0,0,1-16.528,3.869c-8.469-1.922-14.4-10.647-12.051-19.1a1.445,1.445,0,0,0,.026-.482.5.5,0,0,0-.306-.436.191.191,0,0,0-.09-.017,6.241,6.241,0,0,0-.861.146A62.351,62.351,0,0,0,40.1,125.168c-3.51,1.75-6.886,3.768-10.335,5.643a15.749,15.749,0,0,0-7.359,9.2c-1.094,3.153-2.2,6.3-3.349,9.436A140.232,140.232,0,0,1,7.645,173.164a2.477,2.477,0,0,0,.061,3.057,24.315,24.315,0,0,0,7.558,7.1A53.092,53.092,0,0,0,29.588,189.232Z" fill="#b3443e"/>
        <path id="Path_38748" data-name="Path 38748" d="M36.324,38.758l1.407-3.2,4.12-1.126L41.544,30.8l2.15-1.919,3.4-.384.281-2.1,1.447-.64.4-3.813,2-1.382,2.61.128,2.738,2.329,1.689-2.713,2.457-.358,1.868,1.126.512-3.4,2.559-1.587,2.677-.68,4.641,2.742.92,1.805,3.646-2.336,3.08.885,1.982,2.69-.341,1.595,3.674-2.065,2.36-.241,2.789,1.689.429,1.9L90.3,26.28l1.685-.5,1.935.967-.21,2.134,1.979-.687,2.9-.111,2.49,3.049.633,1.861-.418,2.119,3.209,1.507.94,3.529-1.119,2.934,2.955,2.269.772,4.32-.772,1.91-2.739.551,2.073,4.34a16.131,16.131,0,0,1-2.16,2.823c-.578.627,1.654,2.84.81,3.561a18.68,18.68,0,0,0-4.633.879c-2,.733-2.583-.466-2.583-1.185s.453-3.487.453-3.487l-.666-1.491-.053-1.917,1.464-2.5-1.97-1.038-.985-1.6.639-2.822.23-1.171-3.158-.106L91.4,45.037l-.213-2.662.532-1.491-3.008-.4-2.069-1.118L85.6,35.427l-2.371.319L80.8,34.788l-1.411-2.662-1.624,1.038-2.05.24-1.757-1.278L73.508,30.1l-2.13,3.3-3.328.719-2.529-.985-2.076-1.89-.772,2.423-1.837,2.183-1.651.453-3.541-.319.266,2.023-.719,2.343-2.236,1.917-3.62-.639-.618,3.754-1.7,1.73-3.541.772L44.752,50.2l-.4,2.316-2.4,2.4,1.491,2.338-.08,1.762L41.72,60.933s2.363,2.354-.017,3.692c-1.458.82-4.37-.215-5.051-2.631-.431-1.527-2.273-3.37-2.36-4.88-.035-.6.153-2.154,3.042-3.7,0,0-3.572-3.537-3.416-4.286s-1.182-3.159.589-4.453c1.389-1.015,2.824-1.688,3.685-2.789Z" fill="#454c55"/>
        <path id="Path_38749" data-name="Path 38749" d="M98.443,63.292c.117.362.37.472.3.5s-.281-.022-.6-.388A1.966,1.966,0,0,1,97.9,62.32a3.247,3.247,0,0,1,.064-1.085,6.951,6.951,0,0,0,.331-1.041,1.616,1.616,0,0,0-.124-1.077,4.255,4.255,0,0,1-.285-5.086c.073-.128.168-.242.242-.37a1.682,1.682,0,0,0,.1-.24.16.16,0,0,0-.078-.2c-2.46-1.248-2.986-3.228-1.821-5.84a.16.16,0,0,0-.141-.227,8.34,8.34,0,0,1-1.538-.1,8.478,8.478,0,0,1-2.342-.763,3.173,3.173,0,0,1-1.454-3.82c.086-.318.2-.63.316-1a.16.16,0,0,0-.127-.208c-1.43-.207-2.867.1-4.071-.972s-1.217-2.514-1.612-3.927a.16.16,0,0,0-.18-.114,5.5,5.5,0,0,1-3.61-.345,4.375,4.375,0,0,1-2.207-2.875.16.16,0,0,0-.235-.1c-2.164,1.255-4.1,1.408-5.605-1.059a.158.158,0,0,0-.268,0,5.4,5.4,0,0,1-4.536,2.673,5.919,5.919,0,0,1-4.759-2.026.159.159,0,0,0-.262.041c-.659,1.467-1.229,2.846-2.622,3.624a5.671,5.671,0,0,1-4.35.5.161.161,0,0,0-.2.154c0,1.9-.326,3.542-1.787,4.727a4.822,4.822,0,0,1-4.767.907.16.16,0,0,0-.208.15c-.064,3.3-1.67,5.212-5.09,5.494a.16.16,0,0,0-.138.214c.472,1.257.96,2.36.632,3.617a6,6,0,0,1-2.154,2.859.163.163,0,0,0-.037.191c1.564,3.322,1.513,3.809-.674,5.741a.159.159,0,0,0-.028.207,3.106,3.106,0,0,1,.656,1.641.158.158,0,0,1-.31.049,3.963,3.963,0,0,0-2.1-2.139.16.16,0,0,1,.026-.289,3.433,3.433,0,0,1,.607-.183A2.045,2.045,0,0,0,42.8,56.822a8.85,8.85,0,0,0-1.215-1.446c-.2-.225-.416-.435-.714-.735a.16.16,0,0,1,.059-.263c.394-.144.649-.239.9-.33a3.169,3.169,0,0,0,1.9-4.834c-.2-.389-.5-.722-.731-1.1a3.814,3.814,0,0,1-.37-.632.249.249,0,0,1,.163-.351c.671-.035,1.218-.077,1.766-.08,3.077-.016,4.651-1.961,4.055-5.009-.1-.518-.172-1.042-.246-1.54a.353.353,0,0,1,.215-.414c.362-.145.565.12.783.377a3.283,3.283,0,0,0,5.663-.97,4.519,4.519,0,0,0,.048-3.308A1.57,1.57,0,0,1,55,35.731a.427.427,0,0,1,.455-.472,2.373,2.373,0,0,1,.6.064c.57.133,1.115.4,1.689.491,2.853.441,4.269-1.321,4.925-3.39.112-.352.2-.712.276-1.069a.685.685,0,0,1,1.241-.227h0a5.059,5.059,0,0,0,5.918,2.1,3.918,3.918,0,0,0,2.634-2.566c.124-.355.271-.7.419-1.047a.349.349,0,0,1,.665.045c.1.374.2.747.318,1.117.738,2.381,2.605,2.919,4.54,1.321.273-.225.565-.427.973-.725a.16.16,0,0,1,.251.1c.285,1.641.558,3.141,2.169,3.643a5.53,5.53,0,0,0,3.888-.343.427.427,0,0,1,.59.382c.017.531.032.947.036,1.362.026,2.657,1.279,3.862,3.951,3.735a14.823,14.823,0,0,0,1.5-.174.608.608,0,0,1,.6.931,2.9,2.9,0,0,0-.307.512,6.029,6.029,0,0,0-.646,2.2,2.678,2.678,0,0,0,2.7,2.425c.732.063,1.473.01,2.21.021.37.006.741.029,1.287.056a.162.162,0,0,1,.133.241,9.483,9.483,0,0,0-.631,1.179,7.289,7.289,0,0,0-.7,2.209,2.575,2.575,0,0,0,2.3,2.491c.463.1.971.068,1.107.758a.15.15,0,0,1-.045.137c-.219.206-.476.44-.722.685A3.917,3.917,0,0,0,98.086,57.1c.09,1.254.464,1.559,1.674,1.341.212-.038.427-.056.675-.082a.161.161,0,0,1,.174.193c-.121.6-.643.731-.993,1.029A3.569,3.569,0,0,0,98.443,63.292Z" fill="#25262a"/>
        <path id="Path_38750" data-name="Path 38750" d="M78.1,74.245a.07.07,0,0,0-.046.132c1.3.567,3.614,3.247,8.357,2.463,3.483-.576,5.365-1.838,6.461-3.03a.086.086,0,0,0-.1-.134,24.671,24.671,0,0,1-7.041,2.468C81.308,76.575,79.719,74.671,78.1,74.245Z" fill="#4a2d26"/>
        <path id="Path_38751" data-name="Path 38751" d="M63.489,74.252c.08-.036.132.1.055.136-1.044.564-3.522,3.429-8.418,2.593a11.584,11.584,0,0,1-6.466-3.314.063.063,0,0,1,.072-.1,37.572,37.572,0,0,0,3.562,1.653C57.4,77.117,59.3,76.119,63.489,74.252Z" fill="#4a2d26"/>
        <path id="Path_38752" data-name="Path 38752" d="M79.153,85.724A5.411,5.411,0,0,0,81.51,89.11c2.169,1.491,3.381,2,4.4,3.491a4.547,4.547,0,0,1,1.021,3.66s-.071.429.176.538.485-.4.485-.791a9.115,9.115,0,0,0-.166-2.047,6.081,6.081,0,0,0-1.647-2.484,10.92,10.92,0,0,0-2.776-1.923,7.15,7.15,0,0,1-3.821-3.839C79.167,85.683,79.141,85.656,79.153,85.724Z" fill="#3f2119"/>
        <path id="Path_38753" data-name="Path 38753" d="M62.445,85.724a5.411,5.411,0,0,1-2.357,3.386c-2.169,1.491-3.381,2-4.4,3.491a4.547,4.547,0,0,0-1.021,3.66s.071.429-.176.538S54,96.4,54,96.008a9.115,9.115,0,0,1,.166-2.047,6.081,6.081,0,0,1,1.647-2.484,10.92,10.92,0,0,1,2.776-1.923,7.15,7.15,0,0,0,3.821-3.839C62.43,85.683,62.457,85.656,62.445,85.724Z" fill="#3f2119"/>
        <path id="Path_38754" data-name="Path 38754" d="M36.465,62.866a2.376,2.376,0,0,1-.144-2.024A3.833,3.833,0,0,1,33.6,56.884a3.75,3.75,0,0,1,3.322-3.438s-4.536-2.947-4.016-6.413a6.58,6.58,0,0,1,4.593-5.2s-2.571-2.311-1.387-5.027,3.28-2.721,5.373-2.629a4.364,4.364,0,0,1,5.2-6.211S45.7,25.711,48.6,25.505c0,0-1.126-3.924,1.734-5.311s5.46.982,6.038,2.051a3.968,3.968,0,0,1,2.571-2.6,2.8,2.8,0,0,1,3.236.722S61.872,15.4,67,15.022s6.948,3.669,6.948,4.449c0,0,2.4-3.669,6.24-1.878s2.6,4.738,2.6,4.738,3.149-4.073,7.02-1.618.751,5.316.751,5.316,1.7-1.17,3-.072a1.9,1.9,0,0,1,.693,2.484s2.4-2.4,6.038.433,1.993,5.547,1.387,6.067a4.707,4.707,0,0,1,4.247,3.525c.838,3.38-1.213,4.565-1.213,4.565s4.478,2.08,3.987,6.153-3.611,3.265-3.611,3.265,2.571,3.5,1.733,5.431-2.138,1.762-2.138,1.762,1.907,2.051.953,3.351l-.878-.13s1.2-.983-.705-2.672-.542-1.751-.051-1.687,2.4-.323,1.654-2.931-1.389-2.843-1.389-2.843-.756-.954.245-1.141,1.8.288,2.477-.863a4.212,4.212,0,0,0-.128-4.9,4.074,4.074,0,0,0-2.577-1.99c-.409-.017-1.347-.6-.2-1.469s1.125-2.491.751-3.716a3.454,3.454,0,0,0-3.572-2.908s-1.276.119-.6-.952.85-2.568-.493-4.269S97.1,28.153,95.7,28.578s-1.117.625-1.488.839c-.491.283-1.018.1-.791-.635.356-1.152.391-1.735-.272-2.228a1.806,1.806,0,0,0-2.16-.153c-.816.459-1.208,0-.935-.561s1.7-1.786.425-3.436-3.3-2.262-5.664-.714a4.642,4.642,0,0,0-1.361,1.054c-.476.612-1,1.089-1.531.544s.017-.884.034-1.8a3.508,3.508,0,0,0-2.755-3.01,4.112,4.112,0,0,0-4.49,1.531s-1.02,1.633-1.5-.085-3.027-4.065-5.63-3.725c-2.305.3-3.676.723-4.456,3.1a4.11,4.11,0,0,0,.008,1.586.8.8,0,0,1-.128.912c-.326.275-.548-.06-.853-.443a2.458,2.458,0,0,0-1.632-.935A2.824,2.824,0,0,0,57.672,21.7c-.6.828-.419,1.277-.661,1.794a.5.5,0,0,1-.543.352c-.5-.088-.381-.476-.711-1a3.924,3.924,0,0,0-.92-1.03,4.623,4.623,0,0,0-1.754-.713,2.948,2.948,0,0,0-2.374.422,3.807,3.807,0,0,0-1.166,1.442,3.705,3.705,0,0,0,.144,2.943c.189.436.294.824,0,1.075-.439.377-.946-.768-1.66-.411s-.772,1.109-.313,2.027-.567.54-.567.54-5.1-1.165-5.022,3.4a6.831,6.831,0,0,0,.276,1.6c.179.679.155.994-.53.858-.809-.161-3.761-.227-4.543,2.045a4,4,0,0,0,1.078,4.333c.555.505.84,1.094.209,1.321s-4.417,1.363-4.468,4.316,1.54,4.468,3.079,5.679.682,1.212-.076,1.489-2.827,1.085-2.549,3.307a2.839,2.839,0,0,0,2.2,2.549s1.111-.025.53.984a1.933,1.933,0,0,0-.05,1.888Z" fill="#25262a"/>
        <g id="Group_117474" data-name="Group 117474">
          <path id="Path_38755" data-name="Path 38755" d="M59.661,46.842s5,.491,7.334.573c1.17.041,2.485-.111,4.158-.158,3.962-.112,9.521-.49,9.99-.367,0,0-4.895.744-6.795,1.126a27.88,27.88,0,0,1-9.45-.279C63.358,47.382,59.661,46.842,59.661,46.842Z" fill="#4a2d26"/>
          <path id="Path_38756" data-name="Path 38756" d="M64.779,43.763s3.167.111,4.09.111A64.618,64.618,0,0,0,77,43.4s-1.825.279-3.663.7a18.722,18.722,0,0,1-2.93.465C67.978,44.775,67.591,44.551,64.779,43.763Z" fill="#4a2d26"/>
          <path id="Path_38757" data-name="Path 38757" d="M45.943,69.422a2.074,2.074,0,0,1-1.733-.783c-.839-.922-1.2-.7-1.23-.391s1.118,1.189,2.041,1.182Z" fill="#4a2d26"/>
          <path id="Path_38758" data-name="Path 38758" d="M46.365,70.363A3.351,3.351,0,0,0,43.947,71c-1.123.867-1.241.278-1.113.064A4.083,4.083,0,0,1,46.365,70.363Z" fill="#4a2d26"/>
          <path id="Path_38759" data-name="Path 38759" d="M95.827,69.343a2.074,2.074,0,0,0,1.733-.783c.839-.922,1.2-.7,1.23-.391s-1.118,1.189-2.041,1.182Z" fill="#4a2d26"/>
          <path id="Path_38760" data-name="Path 38760" d="M95.4,70.284a3.351,3.351,0,0,1,2.418.642c1.123.867,1.241.278,1.113.064A4.082,4.082,0,0,0,95.4,70.284Z" fill="#4a2d26"/>
        </g>
        <path id="Path_38761" data-name="Path 38761" d="M71.732,64.913l.876-1.119,2.084-1.315,10.167-.51,12.973-.454,5.3.387.744,1.713L102.08,67.35l-2.414,5.018L96.373,74.9l-4.96.213-10.291.346-5.914-.113-2.287-1.782-.744-3.38Z" fill="#fff" opacity="0.12"/>
        <path id="Path_38762" data-name="Path 38762" d="M69.557,66.841l-.147-2.5L67.054,62.62l-8.18-.293L47.038,61.62l-7.973-.565L37.281,62.9l4.057,8.906,3.384,2.963,5.4.991,16.1-.632,2.016-1.57,1.064-2.248Z" fill="#fff" opacity="0.12"/>
        <path id="Path_38763" data-name="Path 38763" d="M46.847,62.13l4.824,13.046,10.378.691L55.735,62.219Z" fill="#fff" opacity="0.1"/>
        <path id="Path_38764" data-name="Path 38764" d="M78.44,62.619l4.631,12.654,9.134.168L86.643,62.2Z" fill="#fff" opacity="0.1"/>
        <g id="Group_117475" data-name="Group 117475">
          <path id="Path_38765" data-name="Path 38765" d="M36.569,62.186h-.024c.011.214.025.427.029.641a.344.344,0,0,0,.092-.065A.482.482,0,0,0,36.569,62.186Z" fill="#702c20"/>
          <path id="Path_38766" data-name="Path 38766" d="M105.14,62.631c0-.037,0-.073,0-.11,0-.007,0-.014,0-.022-.342-.251-.539-.09-.674.24a1.611,1.611,0,0,0,.312,1.119C104.919,63.455,105.037,63.047,105.14,62.631Z" fill="#711a0b"/>
          <path id="Path_38767" data-name="Path 38767" d="M38.489,61.382c-.33-.173-.584-.557-1.042-.364a.79.79,0,0,0-.085.006c-.072.043-.143.087-.214.132-.052.037-.106.072-.161.106l-.052.034a.649.649,0,0,1-.062.039c-.047.055-.1.106-.149.156a1.255,1.255,0,0,1-.127.229.1.1,0,0,1-.007.015c-.007.15-.015.3-.022.451.015.187.03.373.046.56.5.656.926,1.422,1.948,1.294a.5.5,0,0,0,.123-.123.668.668,0,0,1-.015-.114c-.02-.6.03-1.253.688-1.441a.741.741,0,0,0,.005-.253C39.216,61.695,38.795,61.606,38.489,61.382Z" fill="#510901"/>
          <path id="Path_38768" data-name="Path 38768" d="M40.195,60.471c-.04-.025-.08-.045-.12-.065l-.4.009a2.378,2.378,0,0,1-.376.034c-.056,0-.11-.005-.165-.008s-.126.016-.19.019a2.346,2.346,0,0,1-.4.046l-.086.021a4.824,4.824,0,0,0-.917.39l-.088.052c0,.017-.008.033-.011.05l.882.614C40.057,61.946,40.208,61.852,40.195,60.471Z" fill="#af2921"/>
          <path id="Path_38769" data-name="Path 38769" d="M104.975,61.871a2.47,2.47,0,0,0-.837-.963,1.325,1.325,0,0,0-.13-.045,2.051,2.051,0,0,0-1.052.522c-.307.223-.726.31-.869.729a.76.76,0,0,0,.041.372c.025.034.052.066.079.1a1.242,1.242,0,0,1,.76.693.644.644,0,0,1,.082.443c-.021.131-.049.26-.079.388a1.565,1.565,0,0,0,1.615-1.31.561.561,0,0,1,.552-.3c0-.032,0-.064,0-.1A2.553,2.553,0,0,0,104.975,61.871Z" fill="#510801"/>
          <path id="Path_38770" data-name="Path 38770" d="M103.925,60.768a.193.193,0,0,0-.046.093c-.018.064.023.116.122.157l.91.729A2.7,2.7,0,0,0,103.925,60.768Z" fill="#413337"/>
          <path id="Path_38771" data-name="Path 38771" d="M39.513,66.286a.67.67,0,0,1-.069-.153c-.119-.383-.347-.724-.463-1.119-.078-.267-.165-.536-.228-.807-.014-.06-.026-.118-.037-.177l-.133-.063c-.858-.082-1.133-1.1-1.97-1.221l-.043.011c0,.029,0,.057,0,.086a.924.924,0,0,1-.005.118c.136.505.328,1,.43,1.509a1.354,1.354,0,0,1,.023.178,5.2,5.2,0,0,1,.331.857,2.452,2.452,0,0,1,.127.292c.1.177.2.356.291.542.645.358,1.218.9,2.038.82.007-.031.012-.061.017-.091A7.122,7.122,0,0,1,39.513,66.286Z" fill="#951703"/>
          <path id="Path_38772" data-name="Path 38772" d="M42.368,71.849c-1.115-.874-1.517-2.422-2.893-3.045a.6.6,0,0,0-.451.428.041.041,0,0,0,0,.011q.03.08.057.159c.115.238.233.475.361.706.1.179.2.355.316.525a.011.011,0,0,1,0,.006,17.62,17.62,0,0,1,1.487,2.26c.149.16.279.337.427.5a1.364,1.364,0,0,1,.11.136l1.54,1.291C43.935,73.535,42.82,72.8,42.368,71.849Z" fill="#510901"/>
          <path id="Path_38773" data-name="Path 38773" d="M39.678,70.257c-.107-.392-.368-.644-.475-1.036a.266.266,0,0,0-.222-.086c.036.089.069.179.1.269.115.237.232.473.36.7q.134.243.285.476C39.723,70.483,39.675,70.354,39.678,70.257Z" fill="#522b22"/>
          <path id="Path_38774" data-name="Path 38774" d="M101.271,71.135a12.323,12.323,0,0,1,.653-1.163c.179-.274.326-.593.5-.887a.563.563,0,0,0-.6-.272c-1.039.856-1.712,2.041-2.664,2.974a7.115,7.115,0,0,1-.7,1.031,1.821,1.821,0,0,0-.332,2,1.131,1.131,0,0,1,.144-.084l.506-.339a1.088,1.088,0,0,1,.336-.314,4.613,4.613,0,0,1,.824-.926,1.1,1.1,0,0,1,.168-.218c.132-.212.284-.408.407-.633a3.98,3.98,0,0,1,.605-.9A1.154,1.154,0,0,1,101.271,71.135Z" fill="#520801"/>
          <path id="Path_38775" data-name="Path 38775" d="M101.274,71.131c.079-.153.157-.306.238-.458a7.635,7.635,0,0,0-.544.9,1.991,1.991,0,0,1,.15-.169A1.165,1.165,0,0,1,101.274,71.131Z" fill="#623b33"/>
          <path id="Path_38776" data-name="Path 38776" d="M104.433,64.7a9.675,9.675,0,0,0,.44-1.129.784.784,0,0,0-.287-.776c-.533.366-.919.946-1.576,1.131a9.749,9.749,0,0,1-.738,2.063c-.174.383-.409.757-.628,1.134.832.17,1.368-.447,2.013-.773C103.857,65.785,104.164,65.275,104.433,64.7Z" fill="#951703"/>
          <path id="Path_38777" data-name="Path 38777" d="M103.672,66.31c-.887-.211-1.407.458-2.031.877l-.012.013a.443.443,0,0,1-.025.086c-.075.183-.159.362-.246.539a.981.981,0,0,0,.588,1.113l.441.209a3.25,3.25,0,0,1,.258-.39c.227-.582.584-1.109.833-1.681A3.674,3.674,0,0,1,103.672,66.31Z" fill="#b32a22"/>
          <path id="Path_38778" data-name="Path 38778" d="M39.672,60.416c-.074.012-.148.02-.222.025l.648.032a.611.611,0,0,0,.879-.069c-.174,0-.349,0-.523,0Z" fill="#553a3b"/>
          <path id="Path_38779" data-name="Path 38779" d="M47.474,61.9c-.679-.218-1.373-.39-2.043-.641a7,7,0,0,0-6.182.933q-.015.11-.027.219a1.109,1.109,0,0,1,.232-.073,4.5,4.5,0,0,1,.963.006c.246.007.492.025.736.056a50.525,50.525,0,0,1,6.965.056C48.505,61.928,47.79,62,47.474,61.9Z" fill="#7d1c13"/>
          <path id="Path_38780" data-name="Path 38780" d="M45.03,60.534q-.472-.015-.938-.019a2.614,2.614,0,0,1-.558-.067c-.871-.021-1.742-.038-2.613-.045l-.823.07c-.242,1.12-.242,1.12-1.769,1.16l.921.559c.477-.013,1,.143,1.411-.171,1.494-1.128,3.1-.744,4.713-.4a.428.428,0,0,0,.075-.431A2.582,2.582,0,0,0,45.03,60.534Z" fill="#971502"/>
          <path id="Path_38781" data-name="Path 38781" d="M93.677,62.483c1.436,0,2.874,0,4.307-.106a16.787,16.787,0,0,1,3.515.028,3.162,3.162,0,0,1,.605.138c.044-.029.088-.058.132-.091-.009-.087-.02-.174-.031-.26a6.913,6.913,0,0,0-5.958-.989c-.724.211-1.438.457-2.165.662-.294.083-.836.152-.592.644A.734.734,0,0,1,93.677,62.483Z" fill="#7d1c14"/>
          <path id="Path_38782" data-name="Path 38782" d="M101.355,60.473l-3.228-.053-.324,0-1.343.119a1.285,1.285,0,0,0-.258.691.644.644,0,0,0,.17.381c1.474-.423,2.937-.628,4.294.338a2.492,2.492,0,0,0,1.54.244c.2-.359.719-.2.926-.557C102.59,61.17,101.776,61.121,101.355,60.473Z" fill="#971502"/>
          <path id="Path_38783" data-name="Path 38783" d="M103.871,60.735h0l-1.044-.3-1.472.038c.243,1.12.243,1.12,1.776,1.162l.87-.616c-.013-.077-.029-.154-.045-.231C103.928,60.77,103.9,60.751,103.871,60.735Z" fill="#af2921"/>
          <path id="Path_38784" data-name="Path 38784" d="M39.97,67.356l-.158-.168c-.628-.424-1.151-1.1-2.051-.873a4.677,4.677,0,0,1,.3.78,9.681,9.681,0,0,1,.448,1.05c.048.081.09.169.133.252a8.216,8.216,0,0,1,.37.81l.193.015.305-.281C40.211,68.572,40.2,68,39.97,67.356Z" fill="#b22a22"/>
          <path id="Path_38785" data-name="Path 38785" d="M47.044,74.791l-.006,0c-.041-.007-.082-.016-.124-.022a.88.88,0,0,1-.363-.138,8.106,8.106,0,0,1-3.07-1.79,5.129,5.129,0,0,1-1.056-1.016c-.032,0-.148-.233-.178-.237-.066.027-.048.276-.114.3a1.944,1.944,0,0,0,.416.87,3.712,3.712,0,0,1,.774,2.066l0,.035a1.889,1.889,0,0,1,.311.243c.013.012.024.026.036.039a1.43,1.43,0,0,1,.247.157l.073.037c.127.062.255.121.382.184l.062.031a11.961,11.961,0,0,0,2.054.546C47.449,76.014,47.469,75.823,47.044,74.791Z" fill="#951703"/>
          <path id="Path_38786" data-name="Path 38786" d="M41.569,70.375a.759.759,0,0,1-.045-.08c-.308-.655-.665-1.271-.945-1.913a.6.6,0,0,1-.062-.083,11.944,11.944,0,0,1-.63-1.109l-.083-.011a2.918,2.918,0,0,1-.3,1.761,1.145,1.145,0,0,1,.585.6,6.046,6.046,0,0,0,2.041,2.346l.066-.052a1.021,1.021,0,0,0,.077-.208A6.43,6.43,0,0,1,41.569,70.375Z" fill="#951703"/>
          <path id="Path_38787" data-name="Path 38787" d="M97.967,74.954a1.04,1.04,0,0,1,.163-.139,3.03,3.03,0,0,1,.418-1.452c.209-.521.728-.875.768-1.478l-.174-.071a4.807,4.807,0,0,1-3.306,2.62.7.7,0,0,1-.269.071,5.75,5.75,0,0,0-.892.221.691.691,0,0,0-.354.894,1.011,1.011,0,0,0,.221.349h.493a3.444,3.444,0,0,1,.367-.106,4.788,4.788,0,0,1,.715-.091,4.6,4.6,0,0,1,.634-.151c.345-.157.677-.393.992-.555Z" fill="#951703"/>
          <path id="Path_38788" data-name="Path 38788" d="M101.649,67.178l-.019.018a.5.5,0,0,1-.025.09c-.325.789-.79,1.5-1.147,2.274a.472.472,0,0,1-.119.153c-.193.355-.38.716-.587,1.062a4.2,4.2,0,0,1-.271.374q-.133.3-.292.584a.67.67,0,0,0,.064.1l.064.049c1.179-.713,1.759-1.96,2.63-2.948A2.9,2.9,0,0,1,101.649,67.178Z" fill="#951703"/>
          <path id="Path_38789" data-name="Path 38789" d="M63.144,74.975l-.1.007c-.67.029-1.335.045-2,.053a.711.711,0,0,1-.184.025H59.478c-.59.172-1.179.344-1.44,1.021.563.017,1.127.038,1.694.021a17.516,17.516,0,0,1,1.85-.021,11.1,11.1,0,0,1,1.182-.1.469.469,0,0,0,.047-.043C63.086,75.649,63.6,75.4,63.144,74.975Z" fill="#af2b22"/>
          <path id="Path_38790" data-name="Path 38790" d="M81.779,75c-.56,0-1.119-.01-1.679.013A5.5,5.5,0,0,1,79.428,75a.531.531,0,0,1-.081.007c-.36,0-.72-.007-1.08,0-.4.584.248.693.52.973h4.584C83.059,75.323,82.4,75.2,81.779,75Z" fill="#af2b22"/>
          <path id="Path_38791" data-name="Path 38791" d="M86.607,75.008H82.356c-.027,0-.051,0-.076-.007a.663.663,0,0,1-.079.007l-.661,0a.823.823,0,0,0-.118.13c.525.384,1.211.473,1.742.846h3.245C86.692,75.713,86.941,75.438,86.607,75.008Z" fill="#951a06"/>
          <path id="Path_38792" data-name="Path 38792" d="M59.956,75.06H56.54a1.409,1.409,0,0,1-.267.029c-.521.009-1.041.058-1.562.078-.176.34.232.669.413,1l.031.021c.075,0,.15,0,.225.007a13.368,13.368,0,0,1,2.775-.111c.543-.46,1.293-.539,1.867-.943A.538.538,0,0,0,59.956,75.06Z" fill="#961a06"/>
          <path id="Path_38793" data-name="Path 38793" d="M91.675,75.969h3.363l.065-.022c-.742-.36-.739-.467-.192-1.11a1.092,1.092,0,0,0-.138-.135,1.834,1.834,0,0,1-.317.063c-.346.035-.694.032-1.04.06-.523.042-1.022.1-1.529.107a.654.654,0,0,1-.312.075h-.162l-.037.026A.794.794,0,0,0,91.675,75.969Z" fill="#821d12"/>
          <path id="Path_38794" data-name="Path 38794" d="M49.459,75.037c-.452-.02-.9,0-1.351-.045-.4-.043-.775-.164-1.17-.221-.036.024-.072.047-.108.075.41,1.043.4,1.063-.861,1.149.175.039.351.072.525.1a1.864,1.864,0,0,1,.229.054,2.5,2.5,0,0,1,.647.093,2.655,2.655,0,0,1,.324.025h1.765c.327-.358.888-.64.567-1.205C49.838,75.055,49.649,75.045,49.459,75.037Z" fill="#811f14"/>
          <path id="Path_38795" data-name="Path 38795" d="M91.949,75.969c-.113-.318-.409-.545-.536-.856-.044-.039-.089-.073-.134-.106H89.358a.688.688,0,0,0-.073.962h2.664Z" fill="#b22922"/>
          <path id="Path_38796" data-name="Path 38796" d="M50.092,75.067a.371.371,0,0,0-.029.027c-.172.406-.629.666-.6,1.174l2.01.043a2.463,2.463,0,0,1,.382-.04l.1,0,.114-.067a.839.839,0,0,0,.149-1.062C51.5,75.139,50.8,75.1,50.092,75.067Z" fill="#b22922"/>
          <path id="Path_38797" data-name="Path 38797" d="M87.991,75.969h.8a1.082,1.082,0,0,0-.534-.962H86.822a.658.658,0,0,0-.114.145c-.155.291-.455.5-.551.827h1.671A1.412,1.412,0,0,1,87.991,75.969Z" fill="#560901"/>
          <path id="Path_38798" data-name="Path 38798" d="M75.84,75.017a3.141,3.141,0,0,1-1.373-.705,2.6,2.6,0,0,1-1.208-.469.4.4,0,0,0-.338.1,5.079,5.079,0,0,0,.549.664c.176.178.352.355.523.536a1.06,1.06,0,0,1,.305.217c.2.092.4.19.6.285a1.1,1.1,0,0,1,.133.047,1.28,1.28,0,0,1,.233.053,1.264,1.264,0,0,1,.222.048c.165.026.328.063.493.1a1.33,1.33,0,0,1,.332.047c.029,0,.056,0,.086,0a1.4,1.4,0,0,1,.3.031l.036-.007C76.727,75.4,76.132,75.334,75.84,75.017Z" fill="#801f14"/>
          <path id="Path_38799" data-name="Path 38799" d="M78.2,75.106a.833.833,0,0,0-.089-.1c-.165,0-.33.012-.5.025a5.755,5.755,0,0,1-1.2.05H76.4a2.924,2.924,0,0,1-.835-.143c0,.425.124.748.676.755a.651.651,0,0,1,.5.26l2.055.022Z" fill="#991602"/>
          <path id="Path_38800" data-name="Path 38800" d="M65.8,74.705a5.95,5.95,0,0,1-1.377.2c-.017,0-.032,0-.05,0h-.554c-.138.017-.278.033-.418.045a.79.79,0,0,0-.144.129l-.587.892.007.009c.43-.018.863-.025,1.294-.055.232-.016.463-.04.694-.066-.077.007.506-.066.5-.065l.721-.1.016-.012a.7.7,0,0,0,.1-.842A.593.593,0,0,0,65.8,74.705Z" fill="#991602"/>
          <path id="Path_38801" data-name="Path 38801" d="M89.483,75.969a1.619,1.619,0,0,1-.148-.822,1.531,1.531,0,0,0-.161-.14h-.838a1.359,1.359,0,0,0-.162.141l.4.821Z" fill="#941906"/>
          <path id="Path_38802" data-name="Path 38802" d="M51.853,76.273c1.1-.02,2.255-.111,3.394-.082a4,4,0,0,0-2.452-.3,2.22,2.22,0,0,0-.966.379l0,0Z" fill="#6f4539"/>
          <path id="Path_38803" data-name="Path 38803" d="M65.16,75.8l.737-.1v-.01c-.36.026-.752-.1-1.063.151Z" fill="#821f13"/>
          <path id="Path_38804" data-name="Path 38804" d="M61.44,61.655c-.153-.012-.307-.027-.46-.045-.348-.042-.7-.091-1.044-.137l-.092-.013-.019,0-.1-.008c-.1,0-.205-.006-.307-.007a2.543,2.543,0,0,1-.394-.034,10.687,10.687,0,0,1-1.329-.118,25.177,25.177,0,0,1-4.125-.28c-.053,0-.106.008-.159.008a2.471,2.471,0,0,1-.535-.059c-.4-.01-.8-.034-1.2-.082-.065,0-.129-.008-.192-.016-.034,0-.068.005-.1.005a2.571,2.571,0,0,1-.424-.038l-.167.005c-.908.024-1.812-.093-2.719-.051a2.19,2.19,0,0,1-.453-.028c-.759.159-1.593.043-2.247.589,0,.09,0,.181,0,.271A26.468,26.468,0,0,0,48,62.451l3.242.07.188-.052a1.741,1.741,0,0,1,2.483.234,6.049,6.049,0,0,0,.816.124c1.127.086,2.128.115,3.352.274,1.368.052,4.1.043,5.555-.027C63.692,62.506,61.812,62.008,61.44,61.655Z" fill="#991501"/>
          <path id="Path_38805" data-name="Path 38805" d="M45.771,60.617a2.482,2.482,0,0,1-.6-.075l-.381-.013a.92.92,0,0,0,.578.816c.893-.045,1.841.146,2.575-.562a2.176,2.176,0,0,1-.639-.1C46.8,60.632,46.285,60.618,45.771,60.617Z" fill="#aa2921"/>
          <path id="Path_38806" data-name="Path 38806" d="M90.176,62.618c.816-.066,1.632-.14,2.451-.142.159,0,.318.005.476.014l.346-.017,2.923-.864c0-.094,0-.188,0-.282-.879-.628-1.951-.333-2.9-.608a.646.646,0,0,1-.17.024c-1.449-.007-2.864.283-4.308.278h0a19.4,19.4,0,0,1-2.735.248c-.993-.01-1.974.029-2.964.107-1.089.085-2.178.186-3.266.284-.294.315-.6.628-.381,1.063,1.526-.029,3.052-.092,4.579-.1a.721.721,0,0,1,.135.012q1.554-.006,3.111.037C88.353,62.156,89.242,61.778,90.176,62.618Z" fill="#991501"/>
          <path id="Path_38807" data-name="Path 38807" d="M93.474,60.718l-.019.006c.836.852,1.91.569,2.918.6l.272-.806C95.59,60.616,94.533,60.7,93.474,60.718Z" fill="#aa2921"/>
          <path id="Path_38808" data-name="Path 38808" d="M72.533,69.2a4.35,4.35,0,0,1-.007-1.123c0-.118-.006-.236-.007-.355a.219.219,0,0,0-.054-.03c-.773-.278-.621-1.257-1.143-1.721a1.762,1.762,0,0,1-.017.271.07.07,0,0,1-.078.05.068.068,0,0,1-.034.008.07.07,0,0,1-.014,0,.063.063,0,0,1-.034.011c-.261.014-.522,0-.784,0a.071.071,0,0,1-.066-.1v0a1.274,1.274,0,0,1-.008-.205h0a.034.034,0,0,1-.011-.025v-.053s0,0,0,0a.844.844,0,0,0-.207.28c-.205.426.009.94-.231,1.363a.241.241,0,0,1-.175.12c-.018,0-.036,0-.054.009a2.4,2.4,0,0,0-.291-.04.249.249,0,0,0-.081.009h0l-.094.078a.643.643,0,0,1,.007.16c-.05.606-.112,1.212-.2,1.814.008.014.013.029.022.043a.265.265,0,0,0,.044.056.537.537,0,0,0,.487.144.278.278,0,0,0,.064-.019.675.675,0,0,0,.254-.207c.026-.072.065-.178.091-.251a.641.641,0,0,1,.754-.617.288.288,0,0,1,.1.018.242.242,0,0,0,.148-.008.425.425,0,0,1,.44.069l.006,0a.08.08,0,0,1,.042.011h.019a.247.247,0,0,1,.143.075.725.725,0,0,1,.16.248.058.058,0,0,1,0,.039v.436s0,0,0,0a.371.371,0,0,1,.01.048l.22.2a.74.74,0,0,0,.426-.132.252.252,0,0,0,.076-.08,1.943,1.943,0,0,0,.106-.208C72.542,69.465,72.535,69.335,72.533,69.2Z" fill="#971602"/>
          <path id="Path_38809" data-name="Path 38809" d="M69.8,69.858l-.113-.015-.58,0a.668.668,0,0,0-.189.054c-.07.451-.154.9-.259,1.342a8.975,8.975,0,0,1-.353,1.24.792.792,0,0,1-.026.11,2.928,2.928,0,0,1-.528.942,4.272,4.272,0,0,0,.245.706.745.745,0,0,0,.243.271l.183-.193a15.22,15.22,0,0,0,.936-1.994,8.189,8.189,0,0,0,.55-2.295c0-.03,0-.177,0-.206C69.88,69.793,69.844,69.88,69.8,69.858Z" fill="#520b04"/>
          <path id="Path_38810" data-name="Path 38810" d="M73.443,72.862c-.012-.03-.021-.06-.032-.09l-.006-.017c-.013-.036-.025-.073-.037-.11a8,8,0,0,1-.64-2.054c-.035-.163-.067-.322-.1-.48-.041-.047-.084-.093-.13-.138a.988.988,0,0,0-.77.18,8.79,8.79,0,0,0,.644,2.924.638.638,0,0,1,.073.1,8.86,8.86,0,0,0,.476.766l.277-.032a.766.766,0,0,0,.52-.491,4.02,4.02,0,0,1-.2-.385A.606.606,0,0,1,73.443,72.862Z" fill="#530c05"/>
          <path id="Path_38811" data-name="Path 38811" d="M67.837,74.938c.026-.021.051-.043.078-.062s.035-.032.053-.049a.872.872,0,0,1,.078-.083,1.1,1.1,0,0,1,.192-.223l0-.007c0-.1-.009-.2-.013-.3-.472-.138-.929.148-1.4.087a3.667,3.667,0,0,1-.88.359.859.859,0,0,0-.065.153l.009.876c.015,0,.03,0,.046,0,.208-.028.416-.053.625-.079a4.4,4.4,0,0,0,.5-.2c.157-.1.327-.178.491-.266A1.124,1.124,0,0,1,67.837,74.938Z" fill="#821f13"/>
          <path id="Path_38812" data-name="Path 38812" d="M72.577,69.766a.228.228,0,0,0-.191.044l-.661.009a.627.627,0,0,1,.007.088,6.111,6.111,0,0,0,.027.7c.078-.365.33-.555.85-.48a.288.288,0,0,0,.022-.027C72.609,69.99,72.592,69.878,72.577,69.766Z" fill="#6f1d12"/>
          <path id="Path_38813" data-name="Path 38813" d="M71.357,68.951h.012l.089.006A.971.971,0,0,0,70,68.95c.147,0,.128,0,.291,0l.679.006a.621.621,0,0,1,.062-.006c.026,0,.049,0,.073.007h.065l.146,0A.153.153,0,0,1,71.357,68.951Z" fill="#941703"/>
          <path id="Path_38814" data-name="Path 38814" d="M69.756,71.011c.029-.158.054-.316.078-.477a.657.657,0,0,0-.1.479Z" fill="#752519"/>
          <path id="Path_38815" data-name="Path 38815" d="M79.432,75a.766.766,0,0,1-.085.008c-.577,0-1.156-.02-1.733.026-.1.008-.2.018-.294.028a.254.254,0,0,0,.011.024l.867.02,1.769-.023-.07-.063C79.738,75.02,79.584,75.012,79.432,75Z" fill="#873d31"/>
          <path id="Path_38816" data-name="Path 38816" d="M54.766,75.166c-.161.007-.321.011-.482.011a6.834,6.834,0,0,1-.9-.07,1.371,1.371,0,0,1-.217.018c-.029,0-.057,0-.085,0a.906.906,0,0,0-.355,1.125c.857-.034,1.737-.079,2.6-.052C55.326,75.756,54.946,75.514,54.766,75.166Z" fill="#560901"/>
          <path id="Path_38817" data-name="Path 38817" d="M52.213,75.142l-.1,0h0a1.964,1.964,0,0,1-.285,1.131l.187,0q.358-.009.725-.023l.522-1.114-.985.007Z" fill="#951906"/>
          <path id="Path_38818" data-name="Path 38818" d="M73.552,73.114l-.349.8c.348.588.721,1.11,1.49.575A3.682,3.682,0,0,1,73.552,73.114Z" fill="#a52a22"/>
          <path id="Path_38819" data-name="Path 38819" d="M76.4,75.085c-.038,0-.075-.006-.113-.008a1.655,1.655,0,0,0,.493.026,2.533,2.533,0,0,1-.359-.019A.155.155,0,0,0,76.4,75.085Z" fill="#801f14"/>
          <path id="Path_38820" data-name="Path 38820" d="M65.248,74.827a5.837,5.837,0,0,1-.82.08.561.561,0,0,1-.059.006h-.542c-.007.052-.015.1-.027.155.6-.027,1.248.241,1.793-.236Z" fill="#821f13"/>
          <path id="Path_38821" data-name="Path 38821" d="M70.174,64.755c-.021-.084-.077-.152-.1-.236-.01-.019-.017-.04-.028-.058s-.037-.049-.05-.072-.007-.057-.023-.079-.021-.068-.035-.111v0h0a1.149,1.149,0,0,0-.13-.2c-.022-.032-.042-.065-.064-.1-.01-.014-.019-.028-.028-.043a.03.03,0,0,1,0-.01.326.326,0,0,1-.024-.04c-.032-.043-.063-.087-.094-.134s-.086-.109-.123-.164c-.249-.228-.477-.478-.726-.7-.024-.015-.048-.031-.072-.045a.6.6,0,0,1-.123-.094,4.849,4.849,0,0,0-.824-.284c-.825-.2-3.415-.432-3.856-.468a.664.664,0,0,0,.283.234,2.1,2.1,0,0,0,.665.127,7.567,7.567,0,0,1,2.562.285c1.444.249,1.886,1.659,2.854,2.46C70.219,64.934,70.2,64.844,70.174,64.755Z" fill="#6f4539"/>
          <path id="Path_38822" data-name="Path 38822" d="M77.125,61.9a.638.638,0,0,1-.154-.008.627.627,0,0,1-.077.008c-.867.008-1.727.1-2.589.169a.548.548,0,0,1-.226.073c-.287.133-.589.24-.874.374a1.112,1.112,0,0,1-.22.151c-.022.023-.045.044-.067.066l-.192.188c-.084.082-.174.156-.265.229a1.075,1.075,0,0,1-.208.183,1.188,1.188,0,0,1-.16.188,2.416,2.416,0,0,1-.179.212c-.024.025-.049.05-.072.075s-.077.087-.027.022a.812.812,0,0,1-.067.075c-.083.111-.164.225-.224.323,0,0-.007.008-.01.013-.028.048-.057.1-.086.142a.071.071,0,0,1,.014.058c-.03.157-.06.313-.085.471.892-.808,1.389-2.074,2.732-2.358a7.879,7.879,0,0,1,2.556-.28,2.15,2.15,0,0,0,.658-.131.585.585,0,0,0,.312-.282Z" fill="#6f4539"/>
          <path id="Path_38823" data-name="Path 38823" d="M61.631,61.669c.128.075.257.149.387.22a1.942,1.942,0,0,0,1.2-.038q-.528-.064-1.047-.167C61.988,61.684,61.809,61.68,61.631,61.669Z" fill="#6f4539"/>
          <path id="Path_38824" data-name="Path 38824" d="M60.98,61.609c-.348-.042-.7-.091-1.044-.137l-.092-.013-.019,0-.049,0a1.372,1.372,0,0,1,.269.146l1.035.021Z" fill="#4d2e27"/>
          <path id="Path_38825" data-name="Path 38825" d="M61.221,61.635a.382.382,0,0,0,.485.037C61.544,61.664,61.382,61.651,61.221,61.635Z" fill="#4d2e27"/>
          <path id="Path_38826" data-name="Path 38826" d="M79.763,61.683a.378.378,0,0,0,.459-.041Z" fill="#4d2e27"/>
          <path id="Path_38827" data-name="Path 38827" d="M80.492,61.618l.63-.013a.438.438,0,0,1,.068-.05Z" fill="#4d2e27"/>
          <path id="Path_38828" data-name="Path 38828" d="M61.208,61.634c.2.381.244.521.445.9.274.362.365.309.511.361a2.157,2.157,0,0,0,1.318.041,1.023,1.023,0,0,0,.432-.1c.327-.243.5-.522.244-.9-.4-.027-1.289-.178-1.99-.255C61.712,61.634,61.336,61.647,61.208,61.634Z" fill="#570b03"/>
          <path id="Path_38829" data-name="Path 38829" d="M77.339,61.885l-.02.018a.759.759,0,0,0,.184.9c.157-.012.315-.019.474-.023a.694.694,0,0,1,.231-.04.74.74,0,0,1,.127.012.662.662,0,0,1,.121-.012c.4,0,.808-.007,1.212-.015l.572-1.081C79.274,61.728,78.307,61.813,77.339,61.885Z" fill="#570b03"/>
          <path id="Path_38830" data-name="Path 38830" d="M52.88,60.961c-.4-.01-.8-.034-1.2-.082-.065,0-.129-.008-.193-.016-.034,0-.068.005-.1.005a2.561,2.561,0,0,1-.293-.018c.695.393,1.472.082,2.2.178a.058.058,0,0,0,.033-.013A2.484,2.484,0,0,1,52.88,60.961Z" fill="#782615"/>
          <path id="Path_38831" data-name="Path 38831" d="M58.348,61.37a1.887,1.887,0,0,0,1.052.072,2.557,2.557,0,0,1-.342-.031C58.821,61.4,58.584,61.389,58.348,61.37Z" fill="#5b3831"/>
          <path id="Path_38832" data-name="Path 38832" d="M56.783,61.282a.391.391,0,0,1,.031.028L58,61.337c-.1-.012-.2-.028-.3-.045Q57.242,61.29,56.783,61.282Z" fill="#5b3831"/>
          <path id="Path_38833" data-name="Path 38833" d="M54.044,62.739a10.828,10.828,0,0,0-2.975-.219C52.029,61.4,53.209,61.618,54.044,62.739Z" fill="#b12820"/>
          <path id="Path_38834" data-name="Path 38834" d="M57.987,62.769l-3.239.031-.277-.032c-.006-.085-.014-.171-.023-.255C55.627,62.608,56.84,62.227,57.987,62.769Z" fill="#8c3326"/>
          <path id="Path_38835" data-name="Path 38835" d="M54.628,61.154c.693.378,1.46.08,2.186.155a.3.3,0,0,0-.022-.028C56.068,61.267,55.347,61.23,54.628,61.154Z" fill="#782615"/>
          <path id="Path_38836" data-name="Path 38836" d="M59.844,61.46l-.019,0-.065-.005c-.113,0-.225-.008-.338-.009a2.477,2.477,0,0,1-.388-.034c-.247-.011-.494-.023-.74-.044.529.455,1.163.189,1.751.234l-.15-.133Z" fill="#7b1e0d"/>
          <path id="Path_38837" data-name="Path 38837" d="M82.194,61.468a1.852,1.852,0,0,0,.82-.069Q82.6,61.432,82.194,61.468Z" fill="#5b3832"/>
          <path id="Path_38838" data-name="Path 38838" d="M84.049,61.325l.59-.01.02-.019C84.456,61.3,84.252,61.313,84.049,61.325Z" fill="#5b3832"/>
          <path id="Path_38839" data-name="Path 38839" d="M90.455,62.6a.536.536,0,0,0,.065-.081l-.292-.042a2.573,2.573,0,0,0-2.663.006c-1.008.008-2.017-.005-3.025.034-.5.019-1.028-.143-1.491.127.391-.007.781-.013,1.172-.014a.721.721,0,0,1,.135.012c1.423-.005,2.849.022,4.273.073C89.24,62.694,89.848,62.645,90.455,62.6Z" fill="#8f362a"/>
          <path id="Path_38840" data-name="Path 38840" d="M90.229,62.473l-2.663.007C88.564,61.364,89.318,61.362,90.229,62.473Z" fill="#b12820"/>
          <path id="Path_38841" data-name="Path 38841" d="M86.254,61.269c-.536-.005-1.069.005-1.6.026l-.015.019a11.053,11.053,0,0,0,2.169-.057C86.626,61.266,86.442,61.271,86.254,61.269Z" fill="#771e0d"/>
          <path id="Path_38842" data-name="Path 38842" d="M81.157,61.558a.573.573,0,0,0-.035.047c.666-.072,1.379.229,2-.215Q82.138,61.468,81.157,61.558Z" fill="#762010"/>
          <path id="Path_38843" data-name="Path 38843" d="M70.287,66.122a1.084,1.084,0,0,1,0-.114h0a.034.034,0,0,1-.011-.025v-.053s0,0,0-.006v-.214a.024.024,0,0,1,0-.008.175.175,0,0,1,0-.024c0-.165,0-.329-.015-.493a2.96,2.96,0,0,0-.085-.429c-.02-.078-.059-.167-.087-.242s-.083-.191-.09-.207a2.514,2.514,0,0,0-.189-.314l-.148-.219a2.284,2.284,0,0,0-.281-.355c-.179-.17-.354-.346-.534-.516a1.558,1.558,0,0,0-.345-.254,4.89,4.89,0,0,0-.79-.267,1.4,1.4,0,0,0-.195-.016c-.267.284-.483.529-.164.966A2.293,2.293,0,0,1,68.9,64.747c.4.879.136,2.248.247,3.156.091.1.146-.212.263-.134h0c.091.1.2.188.294.294l0,0c.458.089.395-.252.432-.517.057-.412-.133-.854.152-1.237C70.287,66.245,70.287,66.184,70.287,66.122Z" fill="#7c1c13"/>
          <path id="Path_38844" data-name="Path 38844" d="M73.84,62.249c-.215.089-.431.174-.64.272a1.038,1.038,0,0,1-.217.148c-.022.023-.045.044-.067.066l-.192.188c-.084.082-.174.156-.265.229a1.075,1.075,0,0,1-.208.183,1.188,1.188,0,0,1-.16.188,2.416,2.416,0,0,1-.179.212c-.024.025-.049.05-.072.075s-.077.087-.027.022a.731.731,0,0,1-.064.071l-.035.046c-.1.143-.192.294-.282.446a.071.071,0,0,1,.008.047,6.133,6.133,0,0,0-.132.943,7.6,7.6,0,0,1,0,.854c.234.51.038,1.148.3,1.683.311-.19.506.12.712-.006.412-.85-.07-2.233.295-3.088a1.983,1.983,0,0,1,1.489-1.5C74.452,62.855,74.127,62.557,73.84,62.249Z" fill="#7c1c13"/>
          <path id="Path_38845" data-name="Path 38845" d="M72.526,68.082c-.01-.389-.012-.777-.012-1.166a.055.055,0,0,1,0-.022,7.233,7.233,0,0,1,.09-2.063v0c-.539.836-.147,1.772-.284,2.652q.03,1.166.061,2.33l.2.014a4.8,4.8,0,0,1-.053-.633A4.339,4.339,0,0,1,72.526,68.082Z" fill="#864134"/>
          <path id="Path_38846" data-name="Path 38846" d="M69.7,68.061c.325-.216.288-.553.294-.876s-.029-.659.291-.878c0,.525.023,1.053-.026,1.573C70.225,68.258,70.008,68.37,69.7,68.061Z" fill="#941703"/>
          <path id="Path_38847" data-name="Path 38847" d="M68.9,70.038l.21-.189-.021-1.3C69.039,69.048,68.979,69.545,68.9,70.038Z" fill="#752519"/>
          <path id="Path_38848" data-name="Path 38848" d="M69.912,69.876c0-.12,0-.24,0-.357a.531.531,0,0,1,.084-.3c0-.09,0-.179,0-.269-.355.213-.281.573-.308.9l.007.015A.215.215,0,0,0,69.912,69.876Z" fill="#941703"/>
          <path id="Path_38849" data-name="Path 38849" d="M69.41,67.77l.294.294Z" fill="#941703"/>
          <path id="Path_38850" data-name="Path 38850" d="M67.051,74.169l-.305.312c.609.559,1.022.012,1.483-.264a1.127,1.127,0,0,0-.338-.857A3.249,3.249,0,0,1,67.051,74.169Z" fill="#a52b23"/>
          <path id="Path_38851" data-name="Path 38851" d="M64.679,61.969c-.247.3-.434.661-.832.808l-.3.043a2.378,2.378,0,0,0,.023.253c1.26.082,2.545-.189,3.78.26.087-.335.233-.622.32-.958-.859-.173-1.416-.214-2.306-.321C65.068,62.02,64.855,61.976,64.679,61.969Z" fill="#ac2b23"/>
          <path id="Path_38852" data-name="Path 38852" d="M75.4,63.049a.665.665,0,0,1,.178-.025.756.756,0,0,1,.173-.039c.475-.044.936-.108,1.4-.155a.385.385,0,0,0,0-.084,1.346,1.346,0,0,0-.423-.824l-.284-.01c-.717.027-1.432.1-2.147.158a.567.567,0,0,1-.231.074c-.083.038-.165.076-.25.111q.137.535.274,1.071A3.1,3.1,0,0,1,75,63.1a.687.687,0,0,1,.279-.056H75.4Z" fill="#ae2a22"/>
          <path id="Path_38853" data-name="Path 38853" d="M77.96,62.774l-.313-.012a.443.443,0,0,0-.612.05l0,.03C77.339,62.81,77.647,62.784,77.96,62.774Z" fill="#834135"/>
          <path id="Path_38854" data-name="Path 38854" d="M77.646,62.763l-.612.05c-.344-.214-.285-.565-.3-.89l.585-.02Z" fill="#991704"/>
          <path id="Path_38855" data-name="Path 38855" d="M64.121,61.937c-.091.28-.182.559-.274.839.647.094.908-.206.874-.806C64.521,61.963,64.321,61.951,64.121,61.937Z" fill="#991703"/>
        </g>
      </g>
    </g>
  </g>
</svg>
