<?xml version="1.0" encoding="utf-8"?>
<!-- Generator: Adobe Illustrator 27.7.0, SVG Export Plug-In . SVG Version: 6.00 Build 0)  -->
<svg version="1.1" id="Layer_1" xmlns="http://www.w3.org/2000/svg" xmlns:xlink="http://www.w3.org/1999/xlink" x="0px" y="0px"
	 viewBox="0 0 140 140" enable-background="new 0 0 140 140" xml:space="preserve">
<g>
	
		<ellipse id="Ellipse_891_00000077293774676522603610000017373831997722015623_" fill="#F1F1F1" cx="70" cy="70" rx="68.57" ry="68.57"/>
	<g>
		<defs>
			<ellipse id="Ellipse_891_00000023262463521109889790000012826093083761109143_" cx="70" cy="70" rx="68.57" ry="68.57"/>
		</defs>
		<clipPath id="Ellipse_891_00000074439766418840765330000018262719104618392711_">
			<use xlink:href="#Ellipse_891_00000023262463521109889790000012826093083761109143_"  overflow="visible"/>
		</clipPath>
		<g clip-path="url(#Ellipse_891_00000074439766418840765330000018262719104618392711_)">
			<path fill="#6E4438" d="M79.967,100.524c-1.37,0.68-3.303,1.857-4.665,2.337c-1.483,0.522-1.989,0.794-3.54,1.048
				c-0.758,0.124-3.305,0.217-4.082,0.01c-3.439-0.918-6.583-2.58-9.428-4.67c-1.89-1.388-3.941-3.254-5.587-4.921
				c-3.187-3.228-5.776-6.896-7.157-11.283c-0.863-2.741-2.15-5.416-2.146-8.323c0.003-3.208-0.601-6.299-0.706-9.507
				c-0.024-0.734-0.208-1.656-0.248-2.49c-0.006-0.126,0.149-13.49,0.433-14.579c0.276-1.058,9.287-9.982,10.477-10.948
				c1.246-1.011,5.829-2.841,6.963-3.474c1.175-0.656,6.872-2.721,8.412-2.794c1.586-0.076,8.924,1.321,9.891,1.833
				c0.975,0.517,4.345,3.112,5.367,4.021c1.018,0.905,3.179,2.306,4.775,3.065c1.168,0.808,0.884,2.84,2.114,3.558
				c0.606,0.354,1.272,1.772,1.969,1.937c0.354,0.083,2.35,6.227,2.308,6.337c-0.021,0.054-0.311,2.003,0.823,3.5
				c0.166,0.219,0.129,4.233,0.572,5.394c0.265,0.696-0.435,2.546-0.536,3.271c-0.426,3.053-0.495,6.12-0.517,9.199
				c-0.022,3.08-0.438,6.086-1.269,9.055c-1.024,3.661-2.981,7.317-5.347,10.292C86.108,95.834,79.967,100.524,79.967,100.524z
				 M61.078,86.353C61.078,86.353,61.112,86.333,61.078,86.353 M65.468,78.658C65.468,78.658,65.458,78.639,65.468,78.658
				 M58,56.515C58,56.515,58.02,56.505,58,56.515 M81.926,56.515"/>
			<polygon fill="#FAFCFC" points="79.024,63.849 80.117,69.589 76.856,68.513 74.528,66.937 74.99,66.068 			"/>
			<path fill="#FAFCFC" d="M89.705,64.456l-4.172-0.73l0.266,1.225l0.277,1.803l-1.158,1.928l1.475-0.252l1.919-1.576
				c0,0,0.952-1.218,1.183-1.725C89.554,64.999,89.705,64.456,89.705,64.456z"/>
			<polygon fill="#FAFCFC" points="60.698,63.849 59.606,69.589 62.866,68.513 65.194,66.937 64.732,66.068 			"/>
			<polygon fill="#FAFCFC" points="50.043,64.421 54.215,63.691 53.949,64.916 53.672,66.719 54.83,68.647 53.355,68.395 
				51.437,66.819 50.192,64.972 			"/>
			<path fill="#F87360" d="M34.801,150.268c-0.004,0.257-0.048,0.571-0.062,1.281c-0.001,0.049-0.018,0.098-0.05,0.135
				c-0.16,0.184-0.353,0.356-0.359,0.439c-0.217,2.931-0.481,5.861-0.606,8.797c-0.097,2.266-0.019,4.539-0.015,6.809
				c0.001,0.342-0.108,0.789,0.064,1.006c0.558,0.706,0.311,1.321-0.001,1.954c-0.045,0.092-0.15,0.139-0.248,0.112
				c-4.252-1.179-8.363-2.71-12.126-5.056c-2.603-1.623-4.873-3.616-6.593-6.195c-0.603-0.905-0.674-1.628-0.053-2.666
				c3.944-6.59,7.304-13.472,9.953-20.689c1.003-2.733,1.967-5.48,2.921-8.231c1.193-3.438,3.149-6.247,6.419-8.024
				c3.008-1.636,5.953-3.395,9.015-4.922c3.453-1.722,7.104-2.974,10.848-3.931c0.246-0.063,0.499-0.1,0.751-0.128
				c0.055-0.006,0.115,0.032,0.22,0.085c0.067,0.034,0.111,0.101,0.116,0.176c0.012,0.175,0.037,0.375-0.013,0.555
				c-2.05,7.372,3.125,14.983,10.512,16.659c5.356,1.215,10.194,0.206,14.417-3.375c2.923-2.479,4.607-5.643,5.285-9.418
				c0.265-1.478,0.062-2.886-0.181-4.408c-0.021-0.13,0.081-0.249,0.213-0.246c0.26,0.005,0.478,0,0.681,0.052
				c3.618,0.92,7.107,2.201,10.528,3.696c3.627,1.584,6.982,3.643,10.323,5.726c2.68,1.671,4.366,4.145,5.436,7.098
				c1.677,4.628,3.323,9.27,5.157,13.836c1.916,4.771,4.283,9.338,6.845,13.799c0.426,0.742,0.848,1.489,1.308,2.21
				c0.344,0.539,0.302,1.021-0.013,1.553c-0.947,1.598-2.101,3.034-3.505,4.239c-3.894,3.343-8.523,5.716-13.508,7.061
				c-0.101,0.027-0.206-0.024-0.25-0.119c-0.314-0.672-0.483-1.459-0.725-2.026c-0.165-0.387-1.442-3.991-1.515-4.232
				c-0.309-1.02-0.576-2.054-0.925-3.06c-0.12-0.346-0.398-0.637-0.62-0.947c-0.032-0.044-0.044-0.099-0.037-0.153
				c0.21-1.538,0.535-3.072,0.591-4.616c0.101-2.771,0.175-5.558-0.011-8.32c-0.149-2.203-0.671-4.384-1.092-6.562
				c-0.153-0.791-0.451-1.564-0.767-2.311c-0.167-0.396-0.466-0.736-0.725-1.093c-0.053-0.073-0.145-0.106-0.231-0.081l0,0
				c-0.088,0.025-0.15,0.104-0.153,0.195c-0.01,0.25-0.035,0.502,0.011,0.742c0.401,2.098,0.866,4.184,1.228,6.288
				c0.473,2.75,0.498,5.505,0.251,8.301c-0.439,4.984-1.873,9.73-3.14,14.521c-0.908,3.434-1.679,6.893-2.098,10.424
				c-0.171,1.441-0.389,2.88-0.491,4.326c-0.314,4.412,0.457,8.693,1.637,12.921c1.164,4.174,2.709,8.211,4.416,12.187
				c0.963,2.242,1.978,4.462,2.963,6.694c0.405,0.918,0.392,1.135-0.571,1.631c-1.976,1.018-3.961,2.035-6.011,2.889
				c-5.513,2.295-11.271,3.794-17.123,4.904c-2.302,0.437-4.65,0.719-6.99,0.847c-3.458,0.189-6.934,0.338-10.39,0.201
				c-2.891-0.115-5.781-0.565-8.642-1.045c-5.202-0.873-10.264-2.317-15.224-4.106c-2.904-1.047-5.734-2.268-8.373-3.893
				c-0.147-0.091-0.282-0.202-0.473-0.349c-0.074-0.057-0.103-0.157-0.069-0.245c0.208-0.546,0.394-1.096,0.64-1.617
				c2.399-5.076,4.574-10.243,6.294-15.592c1.167-3.631,1.997-7.324,2.392-11.137c0.243-2.339-0.068-4.595-0.285-6.888
				c-0.375-3.972-1.211-7.851-2.17-11.712c-0.969-3.9-2.044-7.78-2.83-11.717c-0.566-2.835-0.796-5.72-0.531-8.662
				c0.266-2.955,0.851-5.831,1.43-8.72c0.078-0.388,0.119-0.783,0.18-1.273c0.022-0.179-0.177-0.304-0.328-0.205
				c-0.509,0.337-0.712,0.789-0.829,1.22c-0.586,2.141-1.213,4.282-1.603,6.462c-0.33,1.843-0.514,5.586-0.49,5.882L34.801,150.268z
				"/>
			<path fill="#6E4539" d="M80.088,104.881c0.19,2.022,0.742,5.505,0.728,4.822c2.9,0.114,3.767-0.031,3.841,3.223
				c0.073,3.238-1.193,6.511-3.083,9.026c-1.956,2.602-4.905,4.871-8.016,5.634c-5.317,1.303-10.78,0.333-14.603-3.728
				c-2.928-3.109-4.306-7.567-3.336-11.885c0.381-1.694,1.02-2.218,3.055-2.439c0.507-0.098,0.708-1.873,1.093-3.756
				c1.234,0.236,2.821,0.532,3.84,0.953c1.412,0.584,2.818,0.581,4.317,0.673c1.945,0.118,3.88-0.433,5.746-0.925
				c1.274-0.336,2.565-0.592,3.756-1.121C78.198,105.014,79.258,104.824,80.088,104.881z"/>
			<path fill="#603B34" d="M79.967,105.683c-0.834,0.046-1.764,0.302-2.537,0.646c-1.191,0.529-2.515,0.766-3.789,1.102
				c-1.866,0.492-3.752,0.793-5.697,0.675c-1.498-0.091-2.953-0.275-4.366-0.859c-1.019-0.421-2.505-0.639-3.673-0.955
				c0.12-1.595,0.47-3.44,0.711-5.156c1.109,0.496,2.366,1.058,3.356,1.516c1.839,0.852,3.776,1.254,5.775,1.505
				c0.698,0.088,1.447-0.067,2.151-0.216c2.362-0.502,4.587-1.245,6.653-2.504c0.066-0.04,0.888-0.343,0.959-0.495
				c0.561-0.067,0.073,0.589,0.112,1.078c0.067,0.84,0.167,1.677,0.258,2.624C79.883,105.028,79.972,105.304,79.967,105.683z"/>
			<path fill="#6E4438" d="M96.23,69.995c0.065-0.557,0.13-1.115,0.3-1.824c0.315-0.494-0.032-1.015-0.317-0.855
				c0.097-1.164,0.188-2.328,0.293-3.492c0.024-0.268,0.127-0.529,0.14-0.797c0.064-1.369,0.061-1.374,1.275-1.748
				c2.065-0.636,4.268,0.45,5.11,2.432c0.703,1.653,0.61,3.377,0.47,5.069c-0.165,1.999-0.949,3.84-2.014,5.542
				c-0.186,0.297-0.499,0.516-0.928,0.8c-1.332-0.504-2.288-1.186-2.172-2.772C98.275,70.541,97.912,70.163,96.23,69.995
				 M97.723,66.636"/>
			<path fill="#603B34" d="M99.553,76.727c-0.429-0.234-1.642,0.161-1.215,0.708c-0.619,0.479-1.643,0.424-2.584,0.151
				c-0.073-2.109,0.074-5.278,0.301-7.495c0.91-0.095,1.759,0.243,1.938,0.992c0.046,0.192,0.316,0.33,0.483,0.493
				c-0.109,1.402,1.275,3.024,2.464,3.546C100.776,75.47,99.904,76.369,99.553,76.727z"/>
			<path fill="#42241B" d="M96.158,67.76c0.325-0.2,0.597-0.352,0.868-0.503c0.061,0.049,0.122,0.099,0.184,0.148
				c-0.199,0.324-0.397,0.649-0.659,1.026C96.36,68.259,96.232,68.034,96.158,67.76z"/>
			<path fill="#6E4438" d="M42.273,61.618c0.153,0.083,0.208,0.143,0.324,0.228c0.231,1.783,0.413,3.53,0.601,5.353
				c-0.345-0.07-0.578,0.267-0.893,0.204c0.762,0.786,0.882,1.365,1.186,2.168c-0.74,0.473-1.666,0.816-2.068,1.321
				c-0.31,0.388-0.238,1.08-0.374,1.836c-0.531,1.191-0.661,2.418-1.834,2.97c-1.468-1.144-2.174-2.78-2.727-4.462
				c-0.698-2.12-1.034-4.29-0.395-6.518c0.715-2.491,2.889-3.8,5.416-3.216C41.725,61.552,41.947,61.57,42.273,61.618 M41.78,66.77"
				/>
			<path fill="#603B34" d="M41.268,77.407c0.202-0.325-0.044-0.63,0.239-0.97c0.181-0.216-0.003-0.261-0.083-0.437
				c-0.095-0.211,0.523-0.394,0.238-0.452c-0.752-0.153-1.072,0.52-1.732,0.877c-0.275-0.101-0.607-0.584-0.837-0.794
				c1.172-0.649,1.308-1.921,1.861-3.04c0.227-0.45,0.061-0.795,0.254-1.151c0.286-0.53,1.088-0.781,1.794-0.8
				c0.397,1.143,0.103,2.327,0.213,3.472c0.111,1.159,0.517,2.312,0.078,3.545C42.639,77.578,42.015,77.503,41.268,77.407z"/>
			<path fill="#57362F" d="M74.433,66.769c-0.157-1.157,0.247-2.209,0.72-3.206c1.342-2.826,3.752-5.606,6.381-5.219
				c2.003,0.406,4.009,0.883,5.661,2.166c1.134,0.88,2.165,1.944,2.51,3.427c-1.178-0.288-2.27-0.647-3.354-1.029
				c-1.3-0.458-2.629-0.722-4.009-0.6c-2.964,0.262-5.535,1.28-7.296,3.84C74.884,66.384,74.64,66.563,74.433,66.769z"/>
			<path fill="#57362F" d="M50.043,64.421c-0.064-0.907,0.496-1.845,1.021-2.462c1.445-1.7,3.481-2.39,5.582-2.962
				c0.574-0.156,1.163-0.259,1.791-0.396c2.118-0.79,4.708,2.168,6.042,4.574c0.624,1.125,1.076,2.303,0.863,3.643
				c-2.178-3.666-7.492-5.091-11.168-3.835C52.839,63.44,51.384,63.983,50.043,64.421z"/>
			<path fill="#25262A" d="M91.277,55.674c0.55,0.711,1.373,1.163,1.533,2.188c0.019,0.12-0.109,0.209-0.214,0.149
				c-1.431-0.819-2.718-1.641-4.091-2.276c-1.429-0.661-2.928-1.21-4.446-1.625c-1.562-0.427-3.183-0.719-4.821-0.443
				c-1.477,0.248-2.945,0.553-4.55,0.861c-0.103,0.02-0.191-0.073-0.168-0.175c0.329-1.464,1.153-2.445,2.334-3.165
				c1.741-1.06,3.652-1.178,5.59-0.83c2.728,0.49,5.051,1.828,7.114,3.638C90.135,54.503,90.663,55.069,91.277,55.674 M79.41,53.04
				c1.148,0.047,2.308,0.01,3.442,0.16c2.219,0.293,4.287,1.093,6.284,2.087c0.156,0.077,0.331,0.115,0.507,0.153
				c0.111,0.024,0.206-0.086,0.164-0.191c-0.133-0.33-0.319-0.569-0.553-0.744c-0.853-0.638-1.696-1.304-2.613-1.839
				c-2.327-1.358-4.797-2.221-7.546-1.666c-1.367,0.276-2.525,0.895-3.355,2.293c-0.062,0.104,0.024,0.233,0.144,0.217
				C77.096,53.337,78.149,53.19,79.41,53.04 M90.407,55.744"/>
			<path fill="#25262A" d="M51.067,53.418c2.042-1.55,4.168-2.714,6.651-3.079c2.482-0.365,4.799-0.067,6.623,1.877
				c0.542,0.577,0.972,1.239,1.099,2.217c0.013,0.101-0.079,0.184-0.178,0.158c-2.091-0.545-4.086-1.118-6.153-0.992
				c-2.144,0.132-4.263,0.538-6.217,1.452c-1.874,0.877-3.613,1.878-5.486,2.871c-0.084,0.044-0.262-0.039-0.281-0.132
				c-0.092-0.434,0.305-0.759,0.592-1.058C48.784,55.622,49.898,54.555,51.067,53.418 M53.441,52.572
				c-1.082,0.775-2.295,1.396-3.129,2.489c-0.087,0.114,0.031,0.273,0.165,0.22c2.168-0.845,4.283-1.758,6.589-2.09
				c2.365-0.34,4.703-0.202,7.038,0.34c0.126,0.029,0.224-0.111,0.152-0.218c-1.282-1.89-3.147-2.622-5.318-2.494
				c-1.874,0.111-3.685,0.661-5.486,1.747C53.448,52.567,53.445,52.57,53.441,52.572z"/>
			<path fill="#42241B" d="M64.57,78.005c-0.938-1.019-0.963-1.726,0.053-2.735c0.893-0.887,1.728-1.818,2.155-2.997
				c0.389-1.075,0.755-2.201,0.849-3.329c0.142-1.691,0.276-3.425,0.037-5.008c0.417,0.489,0.746,1.599,0.765,2.884
				c0.016,1.113,0.094,2.237-0.023,3.338c-0.115,1.087-0.439,2.151-0.655,3.15c1.152,0.117,2.306,0.116,3.397,0.375
				c1.479,0.351,2.646,1.184,3.08,2.774c0.132,0.483,0.138,0.907-0.363,1.424c0.136-1.418-0.652-2.104-1.616-2.651
				c-2.019-1.145-4.078-1.134-6.14-0.134c-1.104,0.536-1.731,1.381-1.529,2.792C64.576,77.998,64.57,78.005,64.57,78.005z"/>
			<path fill="#42241B" d="M64.832,78.256c-0.081-0.027-0.148-0.074-0.231-0.197c-0.03-0.054-0.025-0.061-0.021-0.064
				c0.087,0.023,0.153,0.073,0.227,0.203C64.832,78.255,64.832,78.256,64.832,78.256z"/>
			<path fill="#42241B" d="M64.833,78.255c0.029,0.032,0.058,0.065,0.087,0.097c-0.021-0.011-0.041-0.021-0.075-0.064
				C64.832,78.256,64.832,78.255,64.833,78.255z"/>
			<path fill="#454C55" d="M79.289,53.041c-1.172,0.151-2.235,0.302-3.477,0.478c-0.088,0.013-0.155-0.082-0.111-0.159
				c0.833-1.446,2.007-2.081,3.395-2.361c2.749-0.555,5.219,0.309,7.546,1.666c0.917,0.535,1.76,1.201,2.613,1.839
				c0.241,0.18,0.431,0.429,0.565,0.775c0.036,0.092-0.047,0.187-0.143,0.167c-0.187-0.04-0.375-0.077-0.54-0.16
				c-1.997-0.994-4.066-1.794-6.284-2.087C81.718,53.051,80.559,53.088,79.289,53.041z"/>
			<path fill="#823E42" d="M63.284,88.034C63.253,88,63.227,87.96,63.202,87.92c0.024,0.01,0.048,0.019,0.086,0.063
				C63.301,88.016,63.29,88.028,63.284,88.034z"/>
			<path fill="#454C55" d="M53.53,52.525c1.719-1.044,3.532-1.595,5.407-1.706c2.191-0.13,4.07,0.618,5.353,2.546
				c0.059,0.089-0.021,0.205-0.125,0.18c-2.355-0.554-4.714-0.698-7.099-0.354c-2.354,0.339-4.508,1.284-6.723,2.142
				c-0.093,0.036-0.177-0.072-0.119-0.152C51.06,54.011,52.33,53.37,53.53,52.525z"/>
			<path fill="#42241B" d="M58.835,109.847c0.011-0.238,0.034-0.561,0.091-0.987c0.364-2.873,0.669-5.474,0.982-8.12
				c0.002-0.017-0.006-0.033-0.02-0.042c-8.378-5.442-14.65-12.297-16.393-22.519c-0.004-0.023-0.025-0.039-0.048-0.036
				c-1.746,0.201-3.184-0.423-4.608-1.287c-0.002-0.001-0.003-0.002-0.005-0.003c-0.256-0.209-0.476-0.348-0.696-0.487
				c-0.003-0.002-0.006-0.005-0.009-0.007c-3.023-3.211-4.233-6.99-3.428-11.339c0.374-2.024,1.489-3.538,3.688-4.281
				c0.002-0.001,0.004-0.001,0.006-0.002c0.354-0.074,0.542-0.105,0.845-0.126c0.002,0,0.005,0,0.007,0
				c1.101,0.082,2.089,0.156,3.208,0.239c0.03,0.002,0.054-0.025,0.048-0.054c-0.143-0.695-0.295-1.334-0.39-1.98
				c-0.038-0.259,0.058-0.538,0.176-0.849c0-0.001,0.001-0.002,0.001-0.003c0.253-0.56,0.439-1.086,0.639-1.531
				c0.018-0.041,0.079-0.03,0.084,0.014c0.359,2.964,0.795,5.821,0.98,8.694c0.216,3.358,0.191,6.732,0.292,10.098
				c0.106,3.541,0.926,6.928,2.4,10.137c2.4,5.226,6.153,9.345,10.699,12.785c2.668,2.019,5.556,3.642,8.677,4.86
				c2.381,0.929,4.771,1.118,7.196,0.231c1.134-0.415,2.294-0.793,3.367-1.336c6.169-3.118,11.042-7.641,14.573-13.6
				c1.24-2.092,2.129-4.318,2.733-6.768c1.017-3.335,1.063-6.684,1.157-10.15c0.211-2.947,0.333-5.781,0.626-8.597
				c0.189-1.816,0.608-3.607,0.971-5.331c0.009-0.044,0.07-0.047,0.085-0.005c0.236,0.639,0.435,1.215,0.574,1.862
				c0.001,0.005,0.001,0.01,0.001,0.015c-0.066,0.554-0.068,1.032-0.068,1.603c0,0.031,0.031,0.053,0.06,0.042
				c1.318-0.47,2.538-0.415,3.836-0.11c0.001,0,0.002,0.001,0.003,0.001c0.187,0.056,0.77,0.252,0.929,0.341
				c1.734,0.964,2.413,2.699,2.626,4.601c0.401,3.569-0.51,6.82-2.892,9.751c-0.001,0.001-0.002,0.003-0.004,0.004
				c-0.327,0.325-0.532,0.554-0.821,0.818c-1.536,1.291-3.194,1.975-5.165,1.751c-0.022-0.003-0.044,0.012-0.049,0.035
				c-0.127,0.536-0.248,0.98-0.334,1.43c-0.878,4.586-2.815,8.684-5.665,12.366c-2.346,3.031-5.076,5.667-8.274,7.774
				c-0.926,0.61-1.231,1.256-1.137,2.324c0.156,1.762,0.206,3.4,0.3,5.169c0.027,0.511,0.1,1.144,0.094,1.657
				c-0.001,0.113,0.022,0.547,0.035,0.953c0.006,0.712-0.001,1.145-0.001,1.686c0,0.144-0.125,0.063-0.14,0.015
				c-0.638-1.982-0.586-4.027-0.848-6.145c-0.121-1.386-0.251-2.664-0.394-4.069c-0.003-0.03-0.035-0.048-0.063-0.037
				c-0.471,0.201-0.779,0.306-1.06,0.461c-1.896,1.05-3.896,1.847-6.015,2.276c-0.992,0.201-2.045,0.292-3.049,0.197
				c-2.698-0.255-5.157-1.303-7.542-2.536c-0.236-0.122-0.497-0.195-0.852-0.327c-0.027-0.01-0.057,0.007-0.061,0.036
				c-0.227,1.621-0.437,3.122-0.695,4.714c-0.208,1.061-0.315,2.041-0.54,2.994c-0.193,0.817-0.342,2.16-0.707,2.927
				c-0.111,0.29-0.418,0.278-0.373-0.115L58.835,109.847 M97.37,67.27c-0.473,0.778-1.066,1.597-0.995,2.472
				c0.001,0.012,0.013,0.021,0.024,0.027c0.535,0.267,1.323,0.322,1.739,0.854c0.415,0.53,0.551,1.112,0.34,1.695
				c-0.013,0.037-0.066,0.038-0.082,0.002c-0.086-0.192-0.188-1.061-0.894-1.325c-0.28-0.105-0.623-0.149-1.196-0.043
				c-0.02,0.004-0.036,0.021-0.037,0.042c-0.095,2.079-0.19,4.177-0.291,6.393c-0.001,0.026,0.02,0.047,0.045,0.047
				c1.757-0.006,3.121-0.488,4.202-1.844c0.102-0.128,0.831-0.865,1.02-1.143c1.9-2.794,2.693-5.886,2.113-9.214
				c-0.543-3.116-3.088-4.498-6.095-3.307c-0.011,0.004-0.02,0.013-0.025,0.024c-0.786,1.637-0.681,3.527-0.792,5.264
				c-0.002,0.026,0.02,0.048,0.046,0.048c0.155,0,0.476-0.145,0.526-0.171c0.163-0.086,0.431-0.272,0.484-0.259
				C97.59,66.854,97.479,67.117,97.37,67.27 M40.958,72.206c0.079-0.446,0.026-0.793,0.193-1.273
				c0.12-0.346,0.287-0.474,0.407-0.578c0.371-0.325,0.897-0.409,1.343-0.612c0.012-0.006,0.021-0.016,0.025-0.029
				c0.248-0.869-0.022-1.332-0.544-1.895c-0.229-0.246-0.49-0.419-0.602-0.518c-0.065-0.057-0.172-0.112-0.095-0.277
				c0.045-0.097,0.296-0.053,0.423-0.016c0.137,0.041,0.57,0.084,0.856,0.122c0.028,0.004,0.054-0.02,0.052-0.048
				c-0.092-1.335-0.187-2.596-0.262-3.859c-0.069-1.148-0.077-1.171-1.494-1.604c-0.001,0-0.003-0.001-0.005-0.001
				c-2.373-0.514-4.286,0.582-5.059,2.863c-0.544,1.604-0.559,3.223-0.192,4.849c0.517,2.295,1.25,4.492,3.177,6.276
				c1.059,1.13,2.353,1.703,4.064,1.803c0.027,0.002,0.05-0.021,0.048-0.048c-0.129-2.26-0.249-4.372-0.369-6.485
				c-0.001-0.022-0.02-0.041-0.042-0.042c-0.739-0.052-1.135,0.221-1.409,0.688c-0.158,0.271-0.289,0.557-0.437,0.723
				C41.005,72.276,40.95,72.25,40.958,72.206z"/>
			<g>
				<path fill="#A8874A" d="M97.684,75.399c0.103,0.09,1.111,0.11,2.221,1.529c0.231,0.295,0.372,0.513,0.515,0.859
					c0.887,2.146,1.303,4.341,1.162,6.636c-0.097,1.587-0.281,3.162-1.162,4.547c-0.717,1.127-1.944,1.921-3.078,1.957
					c-0.803,0-2.5-0.848-3.104-2.136c-0.888-2.076-0.285-4.176-0.031-4.698c0.21,0.69,0.118,1.981,0.206,2.616
					c0.218,1.577,1.179,2.224,2.459,3.041c0.381,0.243,0.669,0.193,1.051-0.034c1.562-0.929,2.264-2.018,2.651-3.691
					c0.472-2.041,0.3-4.081-0.149-6.099C100.184,78.848,97.978,76.465,97.684,75.399z"/>
				<path fill="#DEB565" d="M99.574,77.258c0.422,0.855,0.822,1.776,1.019,2.659c0.45,2.018,0.453,4.065-0.019,6.107
					c-0.387,1.673-1.088,2.89-2.651,3.819c-0.382,0.227-0.67,0.277-1.051,0.034c-1.28-0.817-2.355-1.561-2.573-3.138
					c-0.085-0.611-0.121-0.905-0.22-1.896c-0.005-0.055-0.003-0.173,0.009-0.226c0.429-1.972,1.214-4.576,1.704-6.41
					c0.008-0.051,0.013-0.073,0.107-0.063c0.143,0.016,0.255,0.029,0.417,0.033c0.118,0.003,0.025,0.349-0.015,0.475
					c-0.605,1.919-1.223,4.093-1.148,6.03c0.062,1.615,0.772,2.654,2.026,3.447c0.109,0.069,0.244,0.085,0.365,0.04
					c0.085-0.032,0.156-0.061,0.209-0.11c0.186-0.173,0.352-0.318,0.494-0.527c2.044-3.013,1.929-6.167,0.586-9.391
					c-0.07-0.168-1.516-1.786-1.845-2.159c-0.156-0.177-0.162-0.509,0.059-0.593C97.983,75.034,99.216,76.534,99.574,77.258z"/>
				<path fill="#A8874A" d="M97.042,78.166c-0.689,1.979-1.297,4.364-1.051,6.483c0.102,0.875,0.271,1.76,1.144,2.307
					c0.085,0.053,0.197,0.049,0.273-0.017c0.821-0.716,1.185-1.664,1.351-2.654c0.11-0.659,0.262-2.056,0.177-3.312
					c-0.053-0.79-0.224-1.519-0.343-2.012c-0.313-1.297-1.4-2.493-1.398-2.746c0.165,0.064,1.172,1.002,1.639,1.927
					c1.343,3.223,1.458,6.378-0.586,9.391c-0.142,0.209-0.395,0.525-0.6,0.625c-0.182,0.088-0.399,0.069-0.568-0.042
					c-1.202-0.788-1.864-1.854-1.925-3.433c-0.081-2.102,0.41-4.475,1.163-6.504C96.561,78.198,96.718,78.175,97.042,78.166z"/>
			</g>
			<g>
				<path fill="#A8874A" d="M38.905,79.926c-0.45,2.018-0.621,4.057-0.149,6.099c0.387,1.673,1.088,2.762,2.651,3.691
					c0.382,0.227,0.67,0.277,1.051,0.034c1.28-0.817,2.241-1.464,2.459-3.041c0.088-0.635-0.018-1.984,0.192-2.674
					c0.254,0.521,0.952,2.537-0.017,4.756c-0.604,1.288-2.301,2.136-3.104,2.136c-1.134-0.036-2.361-0.83-3.078-1.957
					c-0.881-1.385-1.065-2.96-1.162-4.547c-0.141-2.295,0.275-4.49,1.162-6.636c0.143-0.346,0.284-0.564,0.515-0.859
					c1.11-1.419,2.118-1.439,2.221-1.529C41.352,76.465,39.145,78.848,38.905,79.926z"/>
				<path fill="#DEB565" d="M42.281,75.389c0.221,0.084,0.215,0.416,0.059,0.593c-0.328,0.373-1.775,1.991-1.845,2.159
					c-1.343,3.223-1.458,6.378,0.586,9.391c0.142,0.209,0.308,0.355,0.494,0.527c0.053,0.049,0.125,0.078,0.209,0.11
					c0.121,0.045,0.256,0.029,0.365-0.04c1.254-0.793,1.964-1.832,2.026-3.447c0.075-1.937-0.543-4.111-1.148-6.03
					c-0.04-0.125-0.133-0.471-0.015-0.475c0.161-0.004,0.274-0.017,0.417-0.033c0.094-0.011,0.099,0.012,0.107,0.063
					c0.49,1.834,1.275,4.437,1.704,6.41c0.012,0.054,0.015,0.172,0.009,0.226c-0.099,0.991-0.136,1.285-0.22,1.896
					c-0.218,1.577-1.292,2.321-2.573,3.138c-0.381,0.243-0.669,0.193-1.051-0.034c-1.562-0.929-2.264-2.146-2.651-3.819
					c-0.472-2.041-0.469-4.089-0.019-6.107c0.197-0.883,0.596-1.804,1.019-2.659C40.113,76.534,41.346,75.034,42.281,75.389z"/>
				<path fill="#A8874A" d="M43.013,78.178c0.753,2.029,1.244,4.402,1.163,6.504c-0.061,1.579-0.723,2.645-1.925,3.433
					c-0.169,0.111-0.386,0.13-0.568,0.042c-0.205-0.1-0.671-0.429-0.813-0.638c-2.044-3.013-1.717-6.154-0.374-9.378
					c0.468-0.925,1.475-1.863,1.639-1.927c0.002,0.253-1.084,1.449-1.398,2.746c-0.119,0.493-0.29,1.222-0.343,2.012
					c-0.085,1.256,0.067,2.653,0.177,3.312c0.166,0.99,0.53,1.937,1.351,2.654c0.076,0.066,0.187,0.07,0.273,0.017
					c0.873-0.547,1.043-1.431,1.144-2.307c0.246-2.119-0.362-4.504-1.051-6.483C42.611,78.175,42.768,78.198,43.013,78.178z"/>
			</g>
			<g>
				<g>
					<path d="M74.337,67.03c0,0,3.262,3.591,8.237,2.998c4.975-0.593,6.886-4.316,7.051-5.305c0,0-1.252,2.57-4.349,3.789
						c-3.097,1.219-6.194,1.549-10.543-1.647L74.337,67.03z"/>
					<ellipse cx="82.103" cy="66.011" rx="4.296" ry="3.864"/>
					<ellipse fill="#22211E" cx="82.045" cy="66.048" rx="3.76" ry="3.382"/>
					<path fill="#FAFCFC" d="M79.398,64.985c0.04-0.263,0.204-0.695,0.847-0.823c0.945-0.189,0.857,0.844,0.592,1.336
						c-0.265,0.491-0.655,0.769-1.109,0.403S79.38,65.109,79.398,64.985z"/>
					<path d="M92.985,63.768c0,0-1.647,1.45-5.832,0.593c-4.184-0.857-6.062-1.021-9.456,0.56c-3.394,1.581-2.965,1.944-2.965,1.944
						l-0.395,0.165c0,0,0.869-3.84,6.143-4.97c4.393-0.941,7,1.378,8.974,1.724C91.008,64.056,92.985,63.768,92.985,63.768z"/>
				</g>
				<g>
					<path d="M65.418,67.03c0,0-3.262,3.591-8.237,2.998c-4.975-0.593-6.886-4.316-7.051-5.305c0,0,1.252,2.57,4.349,3.789
						s6.194,1.549,10.543-1.647L65.418,67.03z"/>
					<ellipse cx="57.651" cy="66.011" rx="4.296" ry="3.864"/>
					<ellipse fill="#22211E" cx="57.71" cy="66.048" rx="3.76" ry="3.382"/>
					<path fill="#FAFCFC" d="M54.967,64.985c0.04-0.263,0.204-0.695,0.847-0.823c0.945-0.189,0.857,0.844,0.592,1.336
						c-0.265,0.491-0.655,0.769-1.109,0.403C54.844,65.535,54.949,65.109,54.967,64.985z"/>
					<path d="M46.769,63.768c0,0,1.647,1.45,5.832,0.593c4.184-0.857,6.062-1.021,9.456,0.56c3.394,1.581,2.965,1.944,2.965,1.944
						l0.395,0.165c0,0-0.878-3.539-6.128-4.777c-4.346-1.025-6.418,0.918-8.989,1.531C48.766,64.149,46.769,63.768,46.769,63.768z"
						/>
				</g>
				<g>
					<g>
						<path fill="#4A2D26" d="M74.405,67.03c0,0-0.46-3.585,2.166-6.452c2.318-2.532,3.229-2.215,5.478-4.126
							c0,0-1.785,1.873-4.408,4.183C74.952,63.002,74.405,67.03,74.405,67.03z"/>
						<path fill="#4A2D26" d="M89.693,63.783c0,0-0.366-2.701-4.1-4.452c-3.27-1.534-5.683-1.231-5.683-1.231l-1.004,0.788
							c0,0,3.04-0.694,6.734,1.106C89.334,61.794,89.693,63.783,89.693,63.783z"/>
					</g>
				</g>
				<path fill="#4A2D26" d="M65.449,67.03c0,0,0.441-3.568-2.166-6.452c-1.84-2.035-2.728-1.473-5.478-4.126
					c0,0,0.234,0.765,1.135,1.571c0.901,0.806,2.612,1.829,3.583,2.995C64.39,63.259,65.449,67.03,65.449,67.03z"/>
				<path fill="#4A2D26" d="M50.043,63.849c0,0,0.71-3.037,4.482-4.707c2.828-1.252,5.292-0.913,5.292-0.913l0.739,0.48
					c0,0-3.004-0.287-6.252,1.134C50.539,61.49,50.043,63.849,50.043,63.849z"/>
			</g>
			<path fill="#542E2A" d="M60.978,86.097c0,0,2.41,1.425,4.675-0.42c2.157-1.758,3.224-1.396,4.048-1.443
				c0.824-0.047,2.159,0.25,3.39,1.011s2.533,1.859,4.481,1.158c0,0-0.928,0.967-1.754,2.17c-0.581,0.846-0.857,1.762-1.921,2.548
				c-1.227,0.907-3.393,1.02-4.039,1.003c-0.887-0.024-3.465,0.199-5.129-1.864C64.03,89.393,61.778,86.638,60.978,86.097z"/>
			<path fill="#321A1A" d="M60.674,85.884c0,0,1.171,0.693,2.847,3.092c2.065,2.955,4.678,3.4,6.297,3.407
				c1.639,0.007,3.648-0.243,5.23-2.353c1.583-2.11,1.706-2.785,2.432-3.667c0,0-2.184,3.013-3.494,3.879
				c-1.248,0.824-2.737,1.271-4.168,1.237c-2.267-0.054-3.993-0.528-5.664-2.452C62.413,87.022,60.674,85.884,60.674,85.884z"/>
			<path fill="#542E2A" d="M61.313,86.171c0,0,2.075,1.095,4.339-0.751c2.157-1.758,3.224-1.268,4.048-1.315
				c0.824-0.047,2.159,0.25,3.39,1.011c1.231,0.76,2.676,1.507,4.481,1.413c0,0-4.008,1.9-8.089,1.89
				C65.464,88.41,61.71,86.44,61.313,86.171z"/>
			<path fill="#321A1A" d="M59.289,84.811c0,0,4.043,3.97,10.296,3.866c6.233-0.104,9.146-2.759,10.881-4.217
				c0,0-4.305,3.371-10.895,3.43C62.98,87.947,59.289,84.811,59.289,84.811z"/>
			<path fill="#321A1A" d="M63.097,86.53c0,0,1.211-0.162,3.369-1.795c2.158-1.633,4.368-1.052,5.262-0.596
				c0.616,0.314,2.866,1.841,4.141,2.216c0,0-1.046-0.202-2.31-0.811c-1.259-0.606-2.864-1.056-3.848-1.056
				C66.786,84.489,66.334,86.122,63.097,86.53z"/>
			<path fill="#B3443E" d="M107.797,215.493c-0.53,0.291-1.001,0.514-1.619,0.825c-1.917,0.947-3.652,1.891-5.463,2.652
				c-8.465,3.554-17.368,5.148-26.482,5.614c-7.032,0.36-14.024-0.155-20.948-1.492c-6.335-1.224-12.461-3.068-18.184-6.111
				c-0.716-0.38-1.436-0.752-2.154-1.128c-0.363-0.24-0.726-0.479-1.17-0.727c-0.59-0.521-0.316-1.015-0.065-1.529
				c2.174-4.464,4.109-9.03,5.774-13.708c1.379-3.874,2.459-7.828,3.096-11.895c0.481-3.075,0.22-6.132-0.284-9.175
				c-0.272-1.642-0.599-3.275-0.918-5.113c-0.195-1.171-0.195-1.171-1.39-1.247c-1.509-0.197-2.907-0.343-4.295-0.551
				c-5.864-0.877-11.157-3.046-15.698-7.052c-0.439-0.456-0.844-0.835-1.249-1.214c-1.151-1.541-2.297-3.086-3.454-4.622
				c-0.416-0.552-0.359-1.053-0.035-1.651c4.96-9.169,9.005-18.75,12.786-28.45c0.326-0.837,0.583-1.701,0.922-2.532
				c1.096-2.695,2.834-4.917,5.302-6.441c3.203-1.978,6.424-3.952,9.776-5.657c5.252-2.672,10.939-4.439,16.873-5.361
				c-0.041,0.372-0.062,0.589-0.082,0.918c-2.035,0.221-2.32,0.397-2.701,2.09c-0.971,4.317,0.236,8.141,3.164,11.25
				c3.823,4.06,8.701,5.017,14.018,3.714c3.111-0.762,5.74-2.393,7.696-4.995c1.891-2.515,3.201-5.246,3.128-8.485
				c-0.074-3.253-0.422-3.351-3.325-3.68c-0.023-0.397-0.027-0.687-0.031-0.977c5.628,0.86,10.966,2.652,16.143,4.981
				c3.804,1.711,7.331,3.897,10.791,6.199c2.651,1.764,4.519,4.174,5.572,7.179c1.844,5.26,4.015,10.385,6.282,15.471
				c1.569,3.519,3.207,7.007,4.858,10.488c0.678,1.43,1.44,2.824,2.225,4.199c0.389,0.682,0.413,1.267-0.06,1.887
				c-1.141,1.496-2.277,2.995-3.537,4.595c-0.452,0.381-0.782,0.66-1.189,0.974c-3.006,2.717-6.31,4.73-10.133,5.905
				c-3.232,0.993-6.532,1.545-9.984,1.828c-1.07,0.178-1.07,0.178-1.14,1.497c-0.595,3.15-1.232,6.292-1.349,9.512
				c-0.132,3.637,0.537,7.159,1.484,10.638c1.692,6.218,4.133,12.154,6.862,17.978c0.254,0.543,0.506,1.087,0.745,1.636
				C108.75,214.641,108.734,214.678,107.797,215.493 M33.892,170.897c1.658,0.489,3.346,0.765,5.202,0.834
				c-0.578-2.004-1.081-3.897-1.669-5.762c-1.452-4.609-2.479-9.293-2.687-14.342c-0.001-0.275,0.034-1.195,0.007-1.562
				c0.17-1.914,0.208-3.851,0.545-5.735c0.39-2.18,1.018-4.321,1.603-6.462c0.144-0.525,0.412-1.083,1.209-1.423
				c-0.093,0.689-0.134,1.19-0.232,1.68c-0.579,2.89-1.163,5.766-1.43,8.72c-0.265,2.942-0.035,5.828,0.531,8.662
				c0.786,3.937,1.86,7.817,2.83,11.717c0.96,3.861,1.795,7.741,2.17,11.712c0.217,2.293,0.528,4.548,0.285,6.888
				c-0.396,3.813-1.225,7.506-2.392,11.137c-1.72,5.349-3.895,10.516-6.294,15.592c-0.269,0.568-0.465,1.171-0.697,1.765
				c0.262,0.196,0.421,0.335,0.599,0.445c2.638,1.625,5.469,2.846,8.373,3.893c4.96,1.789,10.022,3.233,15.224,4.106
				c2.861,0.48,5.751,0.93,8.642,1.045c3.456,0.137,6.932-0.012,10.39-0.201c2.34-0.128,4.688-0.41,6.99-0.847
				c5.853-1.11,11.61-2.609,17.123-4.904c2.05-0.853,4.035-1.871,6.011-2.889c0.962-0.496,0.976-0.713,0.571-1.631
				c-0.985-2.233-2-4.452-2.963-6.694c-1.707-3.976-3.252-8.012-4.416-12.187c-1.179-4.228-1.951-8.509-1.637-12.921
				c0.103-1.446,0.32-2.885,0.491-4.326c0.419-3.531,1.19-6.99,2.098-10.424c1.267-4.791,2.701-9.537,3.14-14.521
				c0.246-2.796,0.222-5.551-0.251-8.301c-0.362-2.104-0.827-4.191-1.228-6.288c-0.055-0.288-0.008-0.595-0.008-0.894l0.295-0.084
				c0.276,0.403,0.625,0.775,0.811,1.216c0.315,0.746,0.614,1.519,0.767,2.311c0.421,2.178,0.943,4.359,1.092,6.562
				c0.186,2.762,0.112,5.549,0.011,8.32c-0.057,1.572-0.392,3.134-0.718,4.841c-1.034,3.687-2.07,7.374-3.093,11.064
				c-0.061,0.22-0.008,0.472-0.008,0.832c1.493-0.264,2.876-0.455,4.232-0.764c0.982-0.225,1.929-0.607,3.092-0.945
				c4.949-1.429,9.544-3.557,13.483-6.937c1.404-1.205,2.557-2.641,3.505-4.239c0.316-0.532,0.357-1.014,0.013-1.553
				c-0.46-0.721-0.881-1.468-1.308-2.21c-2.562-4.461-4.929-9.027-6.845-13.799c-1.834-4.566-3.48-9.208-5.157-13.836
				c-1.07-2.953-2.755-5.427-5.436-7.098c-3.341-2.083-6.696-4.142-10.323-5.726c-3.422-1.494-6.91-2.776-10.528-3.696
				c-0.089-0.023-0.18-0.034-0.276-0.041c-0.34-0.023-0.61,0.283-0.557,0.619c0.213,1.377,0.363,2.671,0.12,4.024
				c-0.677,3.775-2.361,6.94-5.285,9.418c-4.223,3.581-9.061,4.59-14.417,3.375c-7.387-1.676-12.562-9.288-10.512-16.659
				c0.038-0.135,0.033-0.282,0.023-0.42c-0.012-0.166-0.112-0.318-0.267-0.38c-0.029-0.012-0.054-0.017-0.078-0.015
				c-0.252,0.028-0.506,0.065-0.751,0.128c-3.744,0.957-7.394,2.208-10.848,3.931c-3.062,1.527-6.007,3.286-9.015,4.922
				c-3.269,1.778-5.226,4.586-6.419,8.024c-0.954,2.75-1.918,5.498-2.921,8.231c-2.649,7.217-6.009,14.099-9.953,20.689
				c-0.621,1.038-0.551,1.762,0.053,2.666c1.72,2.579,3.99,4.572,6.593,6.195C25.212,168.121,29.381,169.661,33.892,170.897z"/>
			<path fill="#454C55" d="M39.767,39.642l1.228-2.79l3.594-0.982l-0.268-3.17l1.875-1.674l2.969-0.335l0.246-1.83l1.262-0.558
				l0.345-3.326l1.741-1.205l2.277,0.112l2.388,2.031l1.473-2.366l2.143-0.312l1.629,0.982l0.446-2.969l2.232-1.384l2.335-0.593
				l4.048,2.392l0.803,1.575l3.18-2.038l2.686,0.772l1.729,2.347l-0.297,1.392l3.204-1.801l2.058-0.211l2.433,1.474l0.374,1.661
				l-1.05,1.925l1.47-0.435l1.687,0.844l-0.183,1.862l1.726-0.6l2.534-0.097l2.172,2.659l0.552,1.624l-0.365,1.849l2.799,1.315
				l0.82,3.078l-0.976,2.559l2.578,1.979l0.673,3.768l-0.673,1.666l-2.39,0.48l1.808,3.786c0,0-0.564,1.031-1.885,2.463
				c-0.504,0.547,1.442,2.478,0.707,3.106c0,0-2.272,0.118-4.042,0.767c-1.745,0.639-2.253-0.407-2.253-1.034
				c0-0.627,0.395-3.042,0.395-3.042l-0.581-1.3l-0.046-1.672l1.277-2.183l-1.718-0.906l-0.859-1.393l0.557-2.461l0.201-1.022
				l-2.755-0.093l-2.276-1.207l-0.186-2.322l0.464-1.3l-2.624-0.348l-1.805-0.975l-0.91-3.437l-2.068,0.279l-2.113-0.836
				l-1.231-2.322l-1.416,0.906l-1.788,0.209l-1.533-1.115l-0.395-1.765l-1.858,2.879l-2.903,0.627l-2.206-0.859l-1.811-1.649
				l-0.673,2.113l-1.602,1.904l-1.44,0.395l-3.088-0.279l0.232,1.765l-0.627,2.043l-1.951,1.672l-3.158-0.557l-0.539,3.274
				l-1.481,1.509l-3.088,0.673l1.112,2.02l-0.345,2.02l-2.09,2.09l1.3,2.039l-0.07,1.537l-1.44,1.672c0,0,2.061,2.053-0.014,3.221
				c-1.272,0.716-3.812-0.188-4.406-2.295c-0.376-1.332-1.983-2.94-2.059-4.257c-0.03-0.525,0.134-1.879,2.653-3.229
				c0,0-3.116-3.085-2.98-3.739c0.136-0.653-1.031-2.755,0.513-3.884c1.212-0.885,2.463-1.472,3.214-2.433L39.767,39.642z"/>
			<path fill="#25262A" d="M93.952,61.042c0.102,0.316,0.323,0.412,0.265,0.433c-0.058,0.021-0.245-0.019-0.521-0.339
				c-0.213-0.247-0.195-0.699-0.216-0.943c-0.022-0.242-0.031-0.663,0.056-0.947c0.092-0.298,0.246-0.599,0.288-0.908
				c0.042-0.308,0.058-0.72-0.108-0.94c-1.134-1.497-1.087-2.96-0.249-4.436c0.063-0.111,0.147-0.211,0.211-0.323
				c0.031-0.054,0.052-0.113,0.089-0.209c0.026-0.067-0.005-0.141-0.068-0.174c-2.146-1.089-2.605-2.816-1.588-5.094
				c0.041-0.091-0.023-0.195-0.123-0.198c-0.542-0.018-0.955,0.003-1.341-0.088c-0.697-0.164-1.437-0.312-2.043-0.665
				c-1.23-0.718-1.643-1.954-1.269-3.332c0.075-0.277,0.171-0.549,0.276-0.869c0.027-0.081-0.026-0.169-0.11-0.181
				C86.253,41.65,85,41.916,83.95,40.982c-1.044-0.929-1.061-2.193-1.406-3.425c-0.019-0.068-0.088-0.11-0.157-0.099
				c-1.096,0.179-2.15,0.229-3.149-0.301c-0.997-0.528-1.6-1.354-1.925-2.508c-0.025-0.088-0.125-0.13-0.205-0.084
				c-1.888,1.095-3.579,1.229-4.889-0.923c-0.053-0.087-0.18-0.088-0.234-0.002c-0.961,1.532-2.327,2.254-3.957,2.332
				c-1.581,0.075-2.979-0.514-4.151-1.767c-0.068-0.073-0.188-0.055-0.229,0.036c-0.575,1.28-1.072,2.482-2.287,3.161
				c-1.164,0.65-2.391,0.791-3.794,0.439c-0.088-0.022-0.174,0.043-0.174,0.135c-0.002,1.661-0.284,3.09-1.559,4.123
				c-1.218,0.988-2.56,1.281-4.158,0.791c-0.089-0.027-0.179,0.037-0.181,0.131c-0.056,2.881-1.457,4.547-4.44,4.792
				c-0.092,0.008-0.153,0.1-0.12,0.187c0.411,1.097,0.837,2.059,0.552,3.155c-0.29,1.112-1.108,1.798-1.878,2.494
				c-0.046,0.042-0.059,0.11-0.033,0.167c1.364,2.898,1.319,3.323-0.587,5.008c-0.052,0.046-0.063,0.123-0.025,0.18
				c0.292,0.443,0.566,0.898,0.572,1.432c0.002,0.163-0.225,0.199-0.271,0.043c-0.241-0.822-0.944-1.358-1.831-1.865
				c-0.103-0.059-0.089-0.212,0.023-0.252c0.222-0.078,0.373-0.136,0.529-0.159c1.511-0.226,2.173-1.464,1.432-2.801
				c-0.261-0.472-0.695-0.849-1.06-1.261c-0.174-0.196-0.363-0.38-0.623-0.642c-0.072-0.072-0.044-0.195,0.051-0.229
				c0.344-0.126,0.566-0.208,0.789-0.287c1.962-0.697,2.618-2.345,1.659-4.216c-0.174-0.339-0.439-0.63-0.638-0.958
				c-0.103-0.171-0.19-0.251-0.323-0.552c-0.068-0.154,0.046-0.301,0.142-0.306c0.585-0.031,1.062-0.067,1.54-0.07
				c2.684-0.014,4.057-1.71,3.537-4.369c-0.088-0.452-0.15-0.909-0.215-1.343c-0.007-0.049-0.043-0.268,0.188-0.361
				c0.316-0.127,0.493,0.104,0.683,0.329c1.478,1.741,4.084,1.302,4.94-0.846c0.376-0.944,0.395-1.911,0.042-2.885
				c-0.045-0.125-0.06-0.261-0.067-0.4c-0.004-0.091,0.015-0.402,0.397-0.412c0.176-0.005,0.351,0.017,0.52,0.056
				c0.498,0.116,0.972,0.351,1.473,0.428c2.488,0.385,3.724-1.152,4.296-2.957c0.097-0.307,0.172-0.621,0.241-0.932
				c0.113-0.515,0.792-0.638,1.082-0.198l0,0c1.187,1.771,3.186,2.472,5.162,1.829c1.143-0.372,1.901-1.107,2.298-2.239
				c0.108-0.309,0.237-0.611,0.365-0.914c0.149-0.325,0.514-0.2,0.58,0.039c0.089,0.326,0.178,0.652,0.278,0.974
				c0.644,2.077,2.272,2.546,3.96,1.152c0.238-0.197,0.493-0.373,0.849-0.632c0.083-0.061,0.202-0.013,0.219,0.088
				c0.248,1.431,0.487,2.74,1.892,3.178c1.088,0.339,2.206,0.2,3.392-0.299c0.24-0.101,0.506,0.073,0.514,0.333
				c0.015,0.463,0.028,0.826,0.032,1.188c0.022,2.318,1.116,3.369,3.446,3.258c0.436-0.021,0.87-0.085,1.308-0.152
				c0.452-0.069,0.778,0.43,0.527,0.812c-0.099,0.15-0.207,0.289-0.268,0.447c-0.243,0.623-0.583,1.282-0.563,1.916
				c0.037,1.178,1.042,2.003,2.358,2.116c0.639,0.055,1.285,0.009,1.928,0.018c0.323,0.005,0.646,0.025,1.123,0.049
				c0.104,0.005,0.168,0.119,0.116,0.21c-0.234,0.411-0.426,0.707-0.551,1.028c-0.244,0.63-0.584,1.277-0.609,1.927
				c-0.041,1.088,0.804,1.916,2.003,2.173c0.404,0.087,0.847,0.059,0.966,0.661c0.009,0.044-0.007,0.089-0.039,0.119
				c-0.191,0.179-0.415,0.384-0.63,0.597c-0.769,0.765-1.164,1.674-1.085,2.775c0.078,1.094,0.405,1.36,1.461,1.169
				c0.185-0.033,0.372-0.049,0.589-0.071c0.094-0.01,0.171,0.076,0.152,0.168c-0.105,0.521-0.561,0.638-0.866,0.897
				C94.122,58.531,93.555,59.82,93.952,61.042z"/>
			<path fill="#4A2D26" d="M76.203,70.596c-0.073-0.019-0.11,0.085-0.04,0.115c1.131,0.495,3.152,2.833,7.29,2.148
				c3.038-0.503,4.68-1.603,5.636-2.643c0.056-0.061-0.015-0.155-0.089-0.116c-1.033,0.544-4.119,1.955-6.141,2.153
				C79.006,72.629,77.619,70.968,76.203,70.596z"/>
			<path fill="#4A2D26" d="M63.462,70.602c0.07-0.031,0.116,0.083,0.048,0.119c-0.91,0.492-3.072,2.991-7.343,2.262
				c-3.203-0.547-5.109-2.302-5.64-2.891c-0.04-0.044,0.008-0.111,0.063-0.087c0.476,0.208,1.617,0.888,3.107,1.442
				C58.149,73.102,59.808,72.231,63.462,70.602z"/>
			<path fill="#3F2119" d="M77.125,80.61c0.066,0.375,0.421,1.83,2.056,2.954c1.892,1.301,2.949,1.744,3.839,3.045
				c0.89,1.301,1.009,1.922,0.89,3.193c0,0-0.062,0.374,0.154,0.469c0.216,0.095,0.423-0.345,0.423-0.69
				c0-0.3,0.015-1.153-0.145-1.785c-0.163-0.644-0.681-1.398-1.437-2.167c-0.605-0.616-1.467-1.189-2.421-1.677
				c-2.102-1.075-2.698-2.022-3.333-3.348C77.138,80.574,77.115,80.55,77.125,80.61z"/>
			<path fill="#3F2119" d="M62.552,80.61c-0.066,0.375-0.421,1.83-2.056,2.954c-1.892,1.301-2.949,1.744-3.839,3.045
				c-0.89,1.301-1.009,1.922-0.89,3.193c0,0,0.062,0.374-0.154,0.469c-0.216,0.095-0.423-0.345-0.423-0.69
				c0-0.3-0.015-1.153,0.145-1.785c0.163-0.644,0.681-1.398,1.437-2.167c0.605-0.616,1.467-1.189,2.421-1.677
				c2.102-1.075,2.698-2.022,3.333-3.348C62.539,80.574,62.562,80.55,62.552,80.61z"/>
			<path fill="#25262A" d="M39.891,60.671c0,0-0.554-1.01-0.126-1.766c0,0-2.57-0.731-2.369-3.452
				c0.202-2.722,2.898-2.999,2.898-2.999s-3.956-2.57-3.503-5.594c0.454-3.024,2.848-4.082,4.007-4.536c0,0-2.243-2.016-1.21-4.385
				c1.033-2.369,2.861-2.373,4.687-2.293c0,0-1.184-2.268,0.428-4.234s4.108-1.184,4.108-1.184s-0.862-1.967,1.663-2.146
				c0,0-0.982-3.423,1.513-4.632s4.763,0.857,5.267,1.789c0,0,0.378-1.613,2.243-2.268s2.822,0.63,2.822,0.63
				s-0.265-4.334,4.208-4.662c4.473-0.328,6.06,3.2,6.06,3.881c0,0,2.092-3.2,5.443-1.638c3.352,1.562,2.268,4.133,2.268,4.133
				s2.747-3.553,6.123-1.411s0.655,4.637,0.655,4.637s1.487-1.021,2.621-0.063s0.756,1.84,0.605,2.167c0,0,2.092-2.092,5.267,0.378
				s1.739,4.838,1.21,5.292c0,0,2.974,0.126,3.704,3.074s-1.058,3.982-1.058,3.982s3.906,1.814,3.478,5.368
				c-0.428,3.553-3.15,2.848-3.15,2.848s2.243,3.049,1.512,4.738c-0.731,1.688-1.865,1.537-1.865,1.537s1.663,1.789,0.832,2.923
				l-0.766-0.114c0,0,1.044-0.858-0.615-2.331c-1.659-1.473-0.473-1.527-0.044-1.471c0.429,0.056,2.095-0.282,1.443-2.556
				c-0.653-2.275-1.212-2.48-1.212-2.48s-0.659-0.832,0.214-0.996c0.873-0.164,1.572,0.251,2.161-0.753
				c0.589-1.004,1.115-2.44-0.112-4.279c-0.868-1.301-1.87-1.72-2.248-1.736c-0.357-0.015-1.175-0.527-0.176-1.281
				c0.999-0.754,0.982-2.173,0.655-3.241c-0.326-1.068-0.86-2.478-3.115-2.537c0,0-1.113,0.104-0.519-0.831
				c0.593-0.935,0.742-2.24-0.43-3.724c-1.172-1.484-2.685-2.062-3.902-1.691c-1.217,0.371-0.974,0.545-1.298,0.732
				c-0.428,0.247-0.888,0.087-0.69-0.554c0.31-1.005,0.341-1.513-0.237-1.943c-0.579-0.43-1.172-0.534-1.884-0.134
				c-0.712,0.401-1.053,0-0.816-0.49c0.237-0.49,1.484-1.558,0.371-2.997c-1.113-1.439-2.878-1.973-4.94-0.623
				c0,0-0.771,0.386-1.187,0.92c-0.415,0.534-0.875,0.949-1.335,0.475c-0.46-0.475,0.015-0.771,0.03-1.573
				c0.015-0.801-0.89-2.374-2.403-2.626c-1.513-0.252-2.73-0.148-3.917,1.335c0,0-0.89,1.424-1.306-0.074
				c-0.415-1.498-2.641-3.546-4.911-3.249c-2.011,0.263-3.207,0.631-3.887,2.702c-0.088,0.267-0.086,1.111,0.007,1.384
				c0.093,0.273,0.126,0.595-0.111,0.796c-0.284,0.24-0.478-0.052-0.744-0.386c-0.178-0.223-0.696-0.763-1.423-0.816
				c-0.701-0.051-1.636-0.073-2.491,1.118c-0.519,0.722-0.366,1.114-0.577,1.565c-0.096,0.205-0.242,0.347-0.474,0.307
				c-0.439-0.076-0.333-0.415-0.62-0.873c-0.055-0.087-0.363-0.579-0.803-0.899c-0.382-0.278-1.11-0.574-1.53-0.622
				c-0.697-0.08-1.402-0.155-2.071,0.368c-0.57,0.446-0.836,0.876-1.017,1.258c-0.197,0.417-0.203,1.011-0.205,1.258
				c-0.002,0.285,0.062,0.69,0.33,1.308c0.165,0.38,0.256,0.719,0.001,0.938c-0.383,0.329-0.825-0.67-1.448-0.359
				c-0.623,0.312-0.673,0.967-0.273,1.768c0.401,0.801-0.495,0.471-0.495,0.471s-4.453-1.016-4.38,2.963
				c0.005,0.289,0.056,0.693,0.241,1.396c0.156,0.592,0.135,0.867-0.462,0.749c-0.706-0.14-3.281-0.198-3.963,1.783
				c-0.683,1.982,0.456,3.339,0.94,3.779c0.484,0.44,0.733,0.954,0.183,1.153c-0.55,0.198-3.853,1.189-3.897,3.765
				c-0.044,2.576,1.343,3.897,2.686,4.954s0.594,1.057-0.066,1.299c-0.661,0.242-2.466,0.947-2.224,2.884
				c0.242,1.938,1.915,2.224,1.915,2.224s0.969-0.022,0.462,0.859c-0.506,0.881-0.044,1.647-0.044,1.647L39.891,60.671z"/>
			<g>
				<path fill="#4A2D26" d="M60.124,46.694c0,0,4.36,0.429,6.397,0.5c1.021,0.036,2.168-0.097,3.627-0.138
					c3.456-0.098,8.305-0.427,8.714-0.32c0,0-4.27,0.649-5.927,0.982c-2.825,0.569-6.9,0.067-8.243-0.243
					C63.348,47.164,60.124,46.694,60.124,46.694z"/>
				<path fill="#4A2D26" d="M64.587,44.008c0,0,2.763,0.097,3.567,0.097c1.441,0,4.758-0.065,7.089-0.412
					c0,0-1.592,0.243-3.195,0.61c-0.9,0.206-1.515,0.316-2.556,0.405C67.378,44.891,67.041,44.695,64.587,44.008z"/>
				<path fill="#4A2D26" d="M48.158,66.39c0,0-0.78,0.122-1.512-0.683c-0.731-0.805-1.048-0.61-1.073-0.341
					c-0.024,0.268,0.975,1.037,1.78,1.031C48.158,66.39,48.158,66.39,48.158,66.39z"/>
				<path fill="#4A2D26" d="M48.526,67.211c0,0-1.129-0.196-2.109,0.56c-0.98,0.756-1.083,0.243-0.971,0.056
					S46.977,66.781,48.526,67.211z"/>
				<path fill="#4A2D26" d="M91.67,66.321c0,0,0.78,0.122,1.512-0.683c0.731-0.805,1.048-0.61,1.073-0.341
					c0.024,0.268-0.975,1.037-1.78,1.031C91.67,66.321,91.67,66.321,91.67,66.321z"/>
				<path fill="#4A2D26" d="M91.302,67.141c0,0,1.129-0.196,2.109,0.56s1.083,0.243,0.971,0.056
					C94.27,67.571,92.852,66.712,91.302,67.141z"/>
			</g>
			<polygon opacity="0.12" fill="#FFFFFF" points="70.653,62.457 71.417,61.48 73.235,60.334 82.103,59.888 93.419,59.492 
				98.041,59.831 98.69,61.324 97.125,64.582 95.019,68.959 92.146,71.169 87.82,71.354 78.843,71.657 73.684,71.558 71.69,70.004 
				71.041,67.055 			"/>
			<polygon opacity="0.12" fill="#FFFFFF" points="68.755,64.139 68.627,61.959 66.572,60.457 59.437,60.201 49.112,59.584 
				42.158,59.092 40.602,60.703 44.141,68.472 47.092,71.056 51.804,71.921 65.85,71.37 67.608,70 68.536,68.039 			"/>
			<polygon opacity="0.1" fill="#FFFFFF" points="48.946,60.03 53.154,71.409 62.206,72.012 56.699,60.107 			"/>
			<polygon opacity="0.1" fill="#FFFFFF" points="76.504,60.455 80.543,71.494 88.51,71.64 83.66,60.092 			"/>
			<g>
				<path fill="#702C20" d="M39.981,60.078c-0.007,0-0.014,0-0.021,0c0.01,0.186,0.022,0.372,0.025,0.559
					c0.028-0.014,0.055-0.031,0.08-0.057C40.144,60.395,40.129,60.226,39.981,60.078z"/>
				<path fill="#711A0B" d="M99.793,60.466c0.001-0.032,0.001-0.064,0.002-0.096c-0.001-0.006-0.002-0.013-0.003-0.019
					c-0.299-0.219-0.47-0.079-0.588,0.209c0.001,0.356,0.032,0.701,0.272,0.976C99.601,61.185,99.704,60.829,99.793,60.466z"/>
				<path fill="#510901" d="M41.655,59.377c-0.287-0.151-0.509-0.486-0.909-0.317c-0.025,0-0.049,0.003-0.074,0.005
					c-0.063,0.037-0.125,0.076-0.187,0.115c-0.046,0.033-0.093,0.063-0.141,0.092c-0.015,0.01-0.031,0.019-0.045,0.03
					c-0.017,0.013-0.036,0.022-0.054,0.034c-0.041,0.048-0.085,0.093-0.13,0.136c-0.031,0.074-0.069,0.14-0.111,0.2
					c-0.002,0.004-0.004,0.009-0.006,0.013c-0.006,0.131-0.013,0.262-0.019,0.393c0.013,0.163,0.027,0.325,0.04,0.488
					c0.436,0.572,0.808,1.24,1.699,1.129c0.046-0.032,0.08-0.069,0.108-0.107c-0.006-0.032-0.012-0.064-0.013-0.099
					c-0.017-0.526,0.027-1.093,0.6-1.257c0.014-0.072,0.016-0.146,0.005-0.221C42.29,59.65,41.923,59.572,41.655,59.377z"/>
				<path fill="#AF2921" d="M43.144,58.582c-0.035-0.022-0.07-0.039-0.105-0.056c-0.115,0.003-0.23,0.005-0.346,0.008
					c-0.109,0.018-0.218,0.029-0.328,0.029c-0.049,0-0.096-0.004-0.144-0.007c-0.055,0.008-0.11,0.014-0.166,0.017
					c-0.115,0.024-0.232,0.036-0.349,0.04c-0.025,0.006-0.05,0.012-0.075,0.018c-0.277,0.089-0.549,0.198-0.799,0.34
					c-0.026,0.015-0.051,0.03-0.076,0.045c-0.003,0.015-0.007,0.029-0.009,0.044c0.256,0.179,0.513,0.357,0.769,0.536
					C43.024,59.869,43.155,59.787,43.144,58.582z"/>
				<path fill="#510801" d="M99.65,59.803c-0.151-0.337-0.425-0.623-0.73-0.84c-0.037-0.014-0.073-0.029-0.113-0.039
					c-0.377,0.008-0.63,0.268-0.918,0.456c-0.268,0.195-0.633,0.271-0.758,0.636c-0.015,0.111-0.003,0.219,0.036,0.324
					c0.021,0.03,0.045,0.057,0.069,0.084c0.304,0.121,0.556,0.313,0.663,0.604c0.064,0.107,0.096,0.237,0.072,0.386
					c-0.018,0.114-0.042,0.227-0.069,0.338c0.722-0.067,1.263-0.36,1.409-1.143c0.098-0.202,0.277-0.254,0.481-0.259
					c0.001-0.028,0.001-0.056,0.002-0.084C99.76,60.107,99.716,59.951,99.65,59.803z"/>
				<path fill="#413337" d="M98.734,58.841c-0.015,0.013-0.029,0.039-0.04,0.081c-0.015,0.056,0.02,0.101,0.106,0.137
					c0.265,0.212,0.529,0.424,0.794,0.636C99.401,59.34,99.077,59.047,98.734,58.841z"/>
				<path fill="#951703" d="M42.549,63.655c-0.024-0.04-0.045-0.084-0.06-0.133c-0.103-0.334-0.303-0.632-0.404-0.976
					c-0.068-0.233-0.144-0.468-0.199-0.704c-0.012-0.052-0.022-0.103-0.032-0.154c-0.039-0.018-0.077-0.036-0.116-0.055
					c-0.748-0.072-0.988-0.963-1.718-1.065c-0.013,0.003-0.025,0.006-0.037,0.009c0.001,0.025,0.003,0.05,0.003,0.075
					c0,0.035-0.001,0.069-0.004,0.103c0.119,0.44,0.287,0.874,0.375,1.316c0.01,0.052,0.016,0.103,0.02,0.155
					c0.121,0.247,0.216,0.494,0.288,0.748c0.042,0.082,0.079,0.167,0.111,0.255c0.09,0.154,0.177,0.311,0.254,0.472
					c0.563,0.312,1.062,0.782,1.778,0.715c0.006-0.027,0.01-0.053,0.015-0.079C42.718,64.114,42.626,63.887,42.549,63.655z"/>
				<path fill="#510901" d="M45.039,68.506c-0.972-0.762-1.323-2.113-2.524-2.656c-0.204,0.048-0.33,0.177-0.393,0.373
					c-0.001,0.003-0.001,0.007-0.001,0.01c0.017,0.046,0.034,0.092,0.05,0.139c0.101,0.208,0.203,0.414,0.315,0.616
					c0.086,0.156,0.177,0.31,0.275,0.458c0.001,0.001,0.002,0.004,0.003,0.005c0.533,0.588,0.863,1.315,1.297,1.971
					c0.13,0.14,0.243,0.294,0.372,0.435c0.035,0.039,0.067,0.078,0.096,0.119c0.448,0.375,0.896,0.751,1.344,1.127
					C46.406,69.977,45.434,69.334,45.039,68.506z"/>
				<path fill="#522B22" d="M42.693,67.118c-0.093-0.342-0.321-0.562-0.414-0.904c-0.056-0.058-0.121-0.08-0.194-0.075
					c0.031,0.078,0.06,0.156,0.087,0.235c0.1,0.207,0.202,0.413,0.314,0.614c0.078,0.141,0.16,0.28,0.248,0.415
					C42.732,67.315,42.69,67.203,42.693,67.118z"/>
				<path fill="#520801" d="M96.418,67.884c0.176-0.344,0.355-0.687,0.569-1.014c0.156-0.239,0.284-0.517,0.437-0.774
					c-0.123-0.169-0.277-0.284-0.524-0.237c-0.906,0.747-1.493,1.781-2.324,2.594c-0.178,0.316-0.382,0.62-0.611,0.899
					c-0.348,0.502-0.632,1.024-0.29,1.745c0.039-0.027,0.081-0.052,0.126-0.073c0.147-0.099,0.294-0.197,0.442-0.296
					c0.076-0.109,0.173-0.203,0.293-0.274c0.203-0.305,0.446-0.571,0.719-0.808c0.041-0.069,0.09-0.132,0.147-0.19
					c0.115-0.185,0.248-0.356,0.355-0.552c0.155-0.281,0.302-0.557,0.528-0.789C96.32,68.032,96.364,67.955,96.418,67.884z"/>
				<path fill="#623B33" d="M96.421,67.881c0.069-0.133,0.137-0.267,0.208-0.399c-0.177,0.249-0.333,0.511-0.474,0.781
					c0.04-0.051,0.084-0.1,0.131-0.148C96.32,68.031,96.365,67.952,96.421,67.881z"/>
				<path fill="#951703" d="M99.177,62.271c0.152-0.326,0.277-0.653,0.384-0.984c0.01-0.249,0.008-0.495-0.25-0.677
					c-0.465,0.319-0.802,0.825-1.374,0.987c-0.127,0.628-0.379,1.215-0.644,1.799c-0.152,0.334-0.357,0.66-0.548,0.989
					c0.726,0.148,1.193-0.39,1.756-0.674C98.674,63.217,98.943,62.772,99.177,62.271z"/>
				<path fill="#B32A22" d="M98.513,63.675c-0.774-0.184-1.227,0.4-1.772,0.765c-0.004,0.004-0.007,0.008-0.011,0.011
					c-0.005,0.025-0.011,0.05-0.022,0.075c-0.066,0.16-0.139,0.316-0.215,0.47c-0.058,0.391,0.053,0.732,0.513,0.971
					c0.128,0.061,0.257,0.121,0.385,0.182c0.068-0.119,0.142-0.234,0.225-0.34c0.198-0.508,0.509-0.967,0.727-1.466
					C98.376,64.106,98.437,63.887,98.513,63.675z"/>
				<path fill="#553A3B" d="M42.687,58.534c-0.064,0.01-0.129,0.018-0.194,0.022c0.188,0.009,0.377,0.019,0.565,0.028
					c0.272,0.173,0.532,0.202,0.767-0.061c-0.152-0.001-0.304-0.003-0.456-0.004C43.142,58.524,42.915,58.529,42.687,58.534z"/>
				<path fill="#7D1C13" d="M49.493,59.828c-0.592-0.19-1.198-0.34-1.782-0.559c-1.941-0.678-3.708-0.204-5.392,0.814
					c-0.009,0.063-0.016,0.127-0.024,0.191c0.06-0.027,0.127-0.048,0.202-0.063c0.267-0.053,0.57-0.002,0.84,0.005
					c0.215,0.006,0.429,0.022,0.642,0.049c1.813-0.068,4.077-0.164,6.076,0.049C50.392,59.853,49.769,59.916,49.493,59.828z"/>
				<path fill="#971502" d="M47.361,58.637c-0.274-0.009-0.548-0.014-0.818-0.016c-0.168-0.001-0.33-0.023-0.486-0.058
					c-0.76-0.018-1.52-0.033-2.279-0.039c-0.239,0.02-0.478,0.041-0.718,0.061c-0.211,0.977-0.211,0.977-1.543,1.012
					c0.268,0.162,0.536,0.325,0.803,0.487c0.416-0.011,0.869,0.125,1.231-0.149c1.303-0.984,2.706-0.649,4.111-0.353
					c0.09-0.114,0.113-0.239,0.065-0.376C47.627,58.995,47.512,58.8,47.361,58.637z"/>
				<path fill="#7D1C14" d="M89.795,60.337c1.253,0,2.507,0.001,3.757-0.092c1.033-0.077,2.035-0.114,3.066,0.024
					c0.179,0.024,0.36,0.062,0.528,0.12c0.038-0.025,0.077-0.051,0.115-0.079c-0.008-0.076-0.017-0.151-0.027-0.227
					c-1.617-0.985-3.316-1.472-5.197-0.862c-0.632,0.184-1.254,0.399-1.889,0.578c-0.256,0.072-0.729,0.132-0.516,0.562
					C89.682,60.347,89.735,60.337,89.795,60.337z"/>
				<path fill="#971502" d="M96.492,58.583c-0.939-0.015-1.877-0.031-2.816-0.046c-0.094,0-0.188-0.001-0.282-0.001
					c-0.39,0.034-0.781,0.069-1.172,0.104c-0.134,0.169-0.202,0.373-0.225,0.603c0.014,0.127,0.061,0.239,0.148,0.332
					c1.286-0.369,2.562-0.547,3.745,0.295c0.425,0.303,0.887,0.2,1.343,0.213c0.178-0.313,0.627-0.177,0.808-0.486
					C97.569,59.192,96.859,59.149,96.492,58.583z"/>
				<path fill="#AF2921" d="M98.687,58.812c0,0-0.001-0.001-0.001-0.001c-0.303-0.087-0.607-0.175-0.91-0.262
					c-0.428,0.011-0.856,0.022-1.284,0.033c0.212,0.977,0.212,0.977,1.549,1.014c0.253-0.179,0.506-0.359,0.759-0.538
					c-0.011-0.068-0.025-0.135-0.039-0.202C98.736,58.843,98.712,58.826,98.687,58.812z"/>
				<path fill="#B22A22" d="M42.947,64.588c-0.046-0.049-0.092-0.098-0.138-0.147c-0.548-0.37-1.004-0.959-1.789-0.762
					c0.107,0.221,0.197,0.448,0.261,0.68c0.153,0.294,0.274,0.608,0.391,0.916c0.042,0.071,0.078,0.147,0.116,0.22
					c0.119,0.229,0.23,0.465,0.323,0.707c0.056,0.004,0.112,0.009,0.168,0.013c0.089-0.082,0.177-0.163,0.266-0.245
					C43.158,65.648,43.15,65.146,42.947,64.588z"/>
				<path fill="#951703" d="M49.118,71.073c-0.002,0-0.003-0.001-0.005-0.002c-0.036-0.006-0.072-0.014-0.108-0.019
					c-0.116-0.016-0.222-0.059-0.317-0.12c-1.005-0.35-1.925-0.828-2.678-1.561c-0.332-0.233-0.645-0.538-0.921-0.886
					c-0.028-0.005-0.129-0.203-0.155-0.207c-0.057,0.023-0.042,0.241-0.099,0.263c0.013,0.306,0.222,0.512,0.363,0.759
					c0.321,0.561,0.719,1.102,0.675,1.802c0.001,0.01,0.002,0.02,0.003,0.031c0.1,0.062,0.192,0.135,0.272,0.212
					c0.011,0.011,0.021,0.022,0.031,0.034c0.076,0.037,0.147,0.085,0.215,0.137c0.021,0.011,0.042,0.022,0.064,0.032
					c0.111,0.054,0.223,0.106,0.334,0.16c0.023,0.011,0.04,0.02,0.054,0.027c0.574,0.205,1.19,0.378,1.791,0.476
					C49.471,72.14,49.489,71.974,49.118,71.073z"/>
				<path fill="#951703" d="M44.342,67.221c-0.014-0.022-0.027-0.045-0.039-0.07c-0.269-0.571-0.58-1.109-0.824-1.668
					c-0.019-0.022-0.037-0.046-0.054-0.072c-0.201-0.319-0.388-0.639-0.55-0.968c-0.024-0.003-0.048-0.006-0.072-0.01
					c0.005,0.527,0.057,1.063-0.258,1.536c0.239,0.109,0.406,0.29,0.51,0.526c0.383,0.866,1.041,1.491,1.78,2.046
					c0,0,0.058-0.046,0.058-0.046c0.031-0.063,0.053-0.123,0.067-0.181C44.713,67.974,44.503,67.601,44.342,67.221z"/>
				<path fill="#951703" d="M93.537,71.215c0.043-0.044,0.09-0.085,0.142-0.121c-0.049-0.472,0.199-0.854,0.365-1.266
					c0.182-0.454,0.635-0.763,0.67-1.289c-0.05-0.021-0.101-0.041-0.151-0.062c-0.642,1.132-1.624,2.109-2.884,2.286
					c-0.068,0.034-0.146,0.056-0.235,0.062c-0.261,0.017-0.515,0.131-0.778,0.193c-0.272,0.186-0.456,0.42-0.308,0.78
					c0.051,0.125,0.115,0.23,0.193,0.304h0.43c0.107-0.036,0.214-0.07,0.321-0.093c0.206-0.044,0.414-0.067,0.624-0.08
					c0.181-0.058,0.366-0.099,0.553-0.132c0.301-0.137,0.59-0.343,0.865-0.484C93.407,71.279,93.472,71.248,93.537,71.215z"/>
				<path fill="#951703" d="M96.748,64.433c-0.006,0.005-0.011,0.01-0.017,0.016c-0.005,0.026-0.011,0.053-0.022,0.078
					c-0.283,0.688-0.689,1.31-1,1.984c-0.024,0.053-0.062,0.096-0.104,0.133c-0.168,0.31-0.331,0.625-0.512,0.927
					c-0.067,0.111-0.154,0.218-0.237,0.327c-0.077,0.171-0.162,0.342-0.255,0.509c0.015,0.03,0.033,0.06,0.056,0.089
					c0,0,0.056,0.043,0.056,0.043c1.029-0.622,1.534-1.71,2.294-2.571C96.691,65.494,96.743,64.96,96.748,64.433z"/>
				<path fill="#AF2B22" d="M63.162,71.233c-0.03,0.002-0.06,0.005-0.09,0.006c-0.585,0.025-1.164,0.039-1.746,0.046
					c-0.049,0.013-0.102,0.022-0.16,0.022h-1.201c-0.515,0.15-1.029,0.3-1.256,0.891c0.491,0.015,0.983,0.033,1.478,0.018
					c0.523-0.016,1.077-0.06,1.614-0.019c0.341-0.049,0.685-0.07,1.031-0.084c0.014-0.011,0.028-0.024,0.041-0.038
					C63.111,71.822,63.558,71.606,63.162,71.233z"/>
				<path fill="#AF2B22" d="M79.416,71.259c-0.488-0.004-0.976-0.008-1.464,0.011c-0.204,0.008-0.397,0.001-0.586-0.015
					c-0.023,0.002-0.045,0.007-0.07,0.006c-0.314-0.001-0.628-0.006-0.942-0.001c-0.349,0.509,0.216,0.605,0.454,0.848
					c0.001,0,0.003,0.001,0.004,0.001c0.004,0,0.007-0.001,0.011-0.001h3.983C80.533,71.537,79.954,71.428,79.416,71.259z"/>
				<path fill="#951A06" d="M83.628,71.262H79.92c-0.023,0-0.044-0.004-0.066-0.006c-0.023,0.002-0.044,0.006-0.069,0.006
					c-0.192-0.001-0.385-0.002-0.577-0.004c-0.037,0.033-0.072,0.07-0.103,0.114c0.458,0.335,1.056,0.413,1.52,0.738h2.83
					C83.702,71.877,83.919,71.638,83.628,71.262z"/>
				<path fill="#961A06" d="M60.381,71.307h-2.979c-0.073,0.015-0.15,0.024-0.233,0.026c-0.455,0.007-0.908,0.05-1.363,0.068
					c-0.154,0.297,0.202,0.583,0.361,0.873c0.009,0.006,0.018,0.012,0.027,0.018c0.066,0.001,0.131,0.004,0.196,0.006
					c0.808-0.143,1.613-0.122,2.421-0.097c0.473-0.401,1.128-0.47,1.628-0.823C60.421,71.352,60.401,71.329,60.381,71.307z"/>
				<path fill="#821D12" d="M88.049,72.101h2.934c0.019-0.006,0.038-0.013,0.057-0.019c-0.648-0.314-0.645-0.407-0.168-0.969
					c-0.039-0.045-0.079-0.084-0.121-0.118c-0.091,0.025-0.183,0.046-0.277,0.055c-0.302,0.031-0.605,0.028-0.908,0.053
					c-0.456,0.037-0.892,0.088-1.334,0.093c-0.076,0.04-0.165,0.065-0.272,0.065H87.82c-0.011,0.008-0.022,0.015-0.032,0.023
					C87.65,71.67,87.829,71.895,88.049,72.101z"/>
				<path fill="#811F14" d="M51.225,71.288c-0.394-0.018-0.785,0.004-1.178-0.039c-0.346-0.038-0.676-0.143-1.02-0.193
					c-0.031,0.021-0.063,0.041-0.094,0.065c0.358,0.909,0.35,0.928-0.751,1.002c0.153,0.034,0.306,0.063,0.458,0.088
					c0.069,0.011,0.135,0.028,0.2,0.047c0.197,0.002,0.385,0.031,0.564,0.081c0.096,0.001,0.19,0.009,0.283,0.022
					c0.513,0,1.026,0.001,1.539,0.001c0.285-0.312,0.774-0.558,0.495-1.051C51.555,71.303,51.39,71.295,51.225,71.288z"/>
				<path fill="#B22922" d="M88.287,72.101c-0.099-0.278-0.357-0.475-0.468-0.746c-0.039-0.034-0.078-0.064-0.117-0.093h-1.676
					c-0.267,0.32-0.258,0.595-0.063,0.839H88.287z"/>
				<path fill="#B22922" d="M51.776,71.314c-0.008,0.008-0.017,0.015-0.026,0.024c-0.15,0.354-0.549,0.581-0.525,1.024
					c0.584,0.013,1.169,0.025,1.753,0.038c0.111-0.019,0.222-0.033,0.333-0.035c0.027,0,0.055-0.001,0.083-0.002
					c0.033-0.019,0.066-0.039,0.099-0.058c0.256-0.307,0.327-0.616,0.13-0.926C53.006,71.376,52.392,71.345,51.776,71.314z"/>
				<path fill="#560901" d="M84.835,72.101h0.697c0.04-0.362-0.181-0.614-0.466-0.839h-1.251c-0.038,0.037-0.072,0.078-0.1,0.126
					c-0.135,0.254-0.397,0.44-0.481,0.721h1.457C84.738,72.104,84.786,72.101,84.835,72.101z"/>
				<path fill="#801F14" d="M74.236,71.27c-0.45-0.099-0.855-0.318-1.198-0.615c-0.386-0.01-0.719-0.214-1.053-0.409
					c-0.112-0.016-0.21,0.013-0.295,0.086c0.143,0.204,0.3,0.399,0.479,0.579c0.154,0.156,0.307,0.31,0.456,0.467
					c0.103,0.049,0.191,0.113,0.266,0.189c0.176,0.081,0.351,0.166,0.527,0.248c0.04,0.012,0.079,0.025,0.116,0.041
					c0.072,0.009,0.139,0.026,0.203,0.046c0.068,0.009,0.133,0.023,0.193,0.042c0.144,0.023,0.286,0.055,0.43,0.087
					c0.105,0.002,0.201,0.016,0.289,0.041c0.025-0.002,0.049-0.005,0.075-0.005c0.093,0,0.179,0.01,0.259,0.027
					c0.01-0.002,0.021-0.004,0.031-0.006C75.01,71.602,74.49,71.547,74.236,71.27z"/>
				<path fill="#991602" d="M76.293,71.348c-0.024-0.032-0.05-0.059-0.077-0.085c-0.144,0.004-0.288,0.01-0.432,0.022
					c-0.349,0.028-0.698,0.089-1.048,0.043c-0.005,0-0.009,0.001-0.015,0.001c-0.254-0.006-0.498-0.05-0.728-0.125
					c-0.003,0.371,0.108,0.653,0.589,0.658c0.178,0.002,0.319,0.093,0.432,0.227c0.598,0.007,1.195,0.013,1.792,0.02
					C76.636,71.855,76.464,71.601,76.293,71.348z"/>
				<path fill="#991602" d="M65.475,70.998c-0.405,0.109-0.802,0.166-1.201,0.178c-0.015,0.001-0.028,0.004-0.044,0.004h-0.483
					c-0.121,0.015-0.242,0.029-0.365,0.039c-0.045,0.032-0.087,0.068-0.126,0.112c-0.171,0.259-0.342,0.519-0.512,0.778
					c0.002,0.003,0.004,0.005,0.006,0.008c0.375-0.016,0.753-0.022,1.129-0.048c0.202-0.014,0.404-0.035,0.605-0.058
					c-0.067,0.006,0.441-0.058,0.435-0.057c0.21-0.029,0.419-0.057,0.629-0.085c0.004-0.004,0.009-0.006,0.014-0.01
					c0.192-0.225,0.226-0.47,0.089-0.735C65.6,71.068,65.541,71.027,65.475,70.998z"/>
				<path fill="#941906" d="M86.136,72.101c-0.094-0.226-0.159-0.46-0.129-0.717c-0.047-0.047-0.094-0.087-0.141-0.122h-0.731
					c-0.047,0.035-0.094,0.075-0.141,0.123c0.117,0.239,0.234,0.477,0.351,0.716H86.136z"/>
				<path fill="#6F4539" d="M53.312,72.365c0.958-0.017,1.967-0.097,2.961-0.072c-0.663-0.438-1.412-0.273-2.139-0.26
					c-0.313,0.027-0.581,0.17-0.842,0.331c0,0,0.001,0.002,0.002,0.003C53.3,72.366,53.306,72.365,53.312,72.365z"/>
				<path fill="#821F13" d="M64.92,71.955c0.214-0.03,0.429-0.059,0.643-0.087c0-0.003,0-0.006,0-0.009
					c-0.314,0.022-0.656-0.083-0.927,0.132C64.765,71.974,64.924,71.954,64.92,71.955z"/>
				<path fill="#991501" d="M61.675,59.614c-0.134-0.011-0.267-0.023-0.401-0.039c-0.304-0.037-0.607-0.079-0.911-0.12
					c-0.037-0.005-0.061-0.008-0.08-0.011c-0.006,0-0.01-0.001-0.016-0.001c-0.028-0.003-0.056-0.005-0.084-0.007
					c-0.089-0.002-0.178-0.005-0.268-0.006c-0.118-0.001-0.232-0.011-0.344-0.03c-0.389-0.018-0.778-0.037-1.159-0.103
					c-1.209-0.001-2.405-0.046-3.598-0.244c-0.046,0.003-0.093,0.007-0.139,0.007c-0.161,0-0.317-0.018-0.467-0.051
					c-0.349-0.009-0.701-0.029-1.05-0.072c-0.057-0.003-0.113-0.007-0.168-0.014c-0.03,0.002-0.059,0.005-0.089,0.005
					c-0.127,0-0.25-0.013-0.37-0.033c-0.048,0.002-0.097,0.003-0.145,0.005c-0.792,0.021-1.581-0.081-2.371-0.045
					c-0.136,0.006-0.267-0.003-0.395-0.024c-0.662,0.139-1.39,0.038-1.96,0.514c0,0.079,0.001,0.158,0.001,0.236
					c0.709,0.411,1.553,0.397,2.288,0.73c0.943,0.021,1.885,0.041,2.828,0.061c0.055-0.015,0.109-0.03,0.164-0.046
					c0.829-0.578,1.464-0.435,2.166,0.204c0.249,0.052,0.516,0.098,0.711,0.108c0.983,0.075,1.856,0.1,2.924,0.239
					c1.194,0.045,3.574,0.038,4.846-0.024C63.64,60.357,62,59.923,61.675,59.614z"/>
				<path fill="#AA2921" d="M48.008,58.709c-0.18,0-0.353-0.024-0.52-0.065c-0.111-0.004-0.222-0.008-0.332-0.011
					c0.017,0.337,0.201,0.565,0.504,0.712c0.779-0.039,1.606,0.127,2.246-0.491c-0.195-0.002-0.381-0.036-0.558-0.092
					C48.903,58.722,48.456,58.71,48.008,58.709z"/>
				<path fill="#991501" d="M86.741,60.455c0.712-0.057,1.423-0.122,2.138-0.124c0.139,0,0.277,0.004,0.415,0.012
					c0.101-0.005,0.201-0.01,0.302-0.015c0.85-0.251,1.7-0.502,2.55-0.753c0-0.082,0.001-0.164,0.001-0.246
					c-0.766-0.548-1.702-0.291-2.533-0.53c-0.046,0.012-0.094,0.021-0.149,0.021c-1.264-0.006-2.498,0.247-3.758,0.242
					c-0.001,0-0.001,0-0.002,0c-0.815,0.105-1.559,0.225-2.386,0.217c-0.866-0.008-1.722,0.025-2.586,0.093
					c-0.95,0.074-1.899,0.162-2.849,0.247c-0.257,0.275-0.521,0.548-0.332,0.927c1.331-0.025,2.662-0.08,3.994-0.084
					c0.042,0,0.081,0.004,0.118,0.01c0.904-0.003,1.809,0.009,2.713,0.033C85.151,60.052,85.926,59.722,86.741,60.455z"/>
				<path fill="#AA2921" d="M89.618,58.797c-0.005,0.002-0.011,0.004-0.016,0.005c0.729,0.743,1.666,0.496,2.545,0.527
					c0.079-0.234,0.158-0.469,0.237-0.703C91.463,58.708,90.542,58.784,89.618,58.797z"/>
				<path fill="#971602" d="M71.351,66.2c-0.063-0.319-0.028-0.653-0.006-0.98c-0.003-0.103-0.005-0.206-0.006-0.309
					c-0.014-0.01-0.03-0.02-0.047-0.026c-0.675-0.242-0.541-1.096-0.997-1.501c0,0.079-0.003,0.158-0.015,0.236
					c-0.005,0.03-0.039,0.046-0.068,0.044c-0.008,0.004-0.018,0.007-0.029,0.007c-0.005,0-0.008-0.002-0.012-0.002
					c-0.008,0.005-0.018,0.009-0.03,0.01c-0.228,0.012-0.456,0-0.684,0c-0.052,0-0.071-0.049-0.057-0.086
					c0-0.001-0.001-0.002-0.001-0.002c-0.007-0.059-0.01-0.119-0.007-0.178c0,0-0.001,0-0.002-0.001
					c-0.006-0.006-0.009-0.014-0.009-0.022v-0.047c0-0.001,0.001-0.002,0.002-0.004c-0.076,0.069-0.138,0.149-0.181,0.244
					c-0.179,0.372,0.008,0.82-0.201,1.189c-0.032,0.057-0.089,0.096-0.153,0.105c-0.016,0.002-0.032,0.005-0.047,0.008
					c-0.084-0.016-0.169-0.029-0.254-0.035c-0.024-0.002-0.047,0.001-0.07,0.008l-0.002,0.001c-0.025,0.021-0.054,0.044-0.082,0.068
					c0.007,0.043,0.01,0.089,0.006,0.14c-0.043,0.528-0.098,1.057-0.175,1.583c0.007,0.013,0.012,0.025,0.019,0.038
					c0.01,0.018,0.023,0.035,0.038,0.049c0.12,0.116,0.263,0.152,0.425,0.126c0.019-0.003,0.039-0.009,0.056-0.017
					c0.094-0.043,0.163-0.107,0.222-0.18c0.023-0.063,0.057-0.156,0.08-0.219c0.013-0.37,0.369-0.615,0.657-0.538
					c0.002,0,0.013-0.003,0.086,0.015c0.042,0.011,0.088,0.009,0.129-0.007c0.146-0.058,0.229-0.031,0.384,0.06
					c0.002,0.001,0.003,0.003,0.005,0.004c0.013-0.001,0.025,0.003,0.036,0.009c0.006,0.001,0.011,0,0.017,0.001
					c0.047,0.007,0.092,0.03,0.125,0.066c0.056,0.061,0.113,0.136,0.139,0.216c0.004,0.012,0.002,0.023-0.001,0.034v0.38
					c0,0.002-0.001,0.003-0.001,0.005c0.003,0.014,0.007,0.027,0.009,0.042c0.071,0.065,0.121,0.11,0.192,0.176
					c0.122,0.004,0.246-0.034,0.371-0.115c0.027-0.017,0.05-0.042,0.066-0.07c0.035-0.06,0.066-0.121,0.093-0.182
					C71.359,66.427,71.353,66.314,71.351,66.2z"/>
				<path fill="#520B04" d="M68.969,66.77c0,0.001-0.098-0.013-0.098-0.013c-0.169,0.001-0.337,0.003-0.506,0.004
					c-0.06,0.007-0.114,0.025-0.165,0.047c-0.061,0.393-0.134,0.784-0.226,1.171c-0.085,0.359-0.17,0.736-0.307,1.082
					c-0.005,0.031-0.012,0.063-0.023,0.096c-0.101,0.306-0.261,0.58-0.461,0.822c0.052,0.212,0.126,0.417,0.214,0.616
					c0.051,0.096,0.121,0.175,0.212,0.236l0.16-0.168c0.348-0.534,0.551-1.163,0.816-1.74c0.311-0.678,0.369-1.308,0.48-2.002
					c0-0.026,0.001-0.154,0.001-0.18C69.037,66.713,69.006,66.789,68.969,66.77z"/>
				<path fill="#530C05" d="M72.145,69.39c-0.01-0.026-0.018-0.052-0.028-0.079c-0.001-0.005-0.004-0.009-0.005-0.014
					c-0.012-0.032-0.022-0.064-0.033-0.096c-0.294-0.574-0.425-1.164-0.558-1.791c-0.03-0.142-0.059-0.281-0.084-0.419
					c-0.036-0.041-0.073-0.081-0.113-0.12c-0.32-0.019-0.548,0.03-0.672,0.157c0.016,0.851,0.245,1.725,0.562,2.551
					c0.023,0.026,0.044,0.056,0.064,0.09c0.13,0.231,0.265,0.455,0.415,0.668c0.081-0.009,0.161-0.019,0.242-0.028
					c0.249-0.08,0.383-0.234,0.454-0.428c-0.065-0.108-0.122-0.221-0.175-0.336C72.184,69.499,72.16,69.449,72.145,69.39z"/>
				<path fill="#821F13" d="M67.255,71.202c0.022-0.019,0.044-0.038,0.068-0.055c0.014-0.015,0.031-0.028,0.046-0.042
					c0.021-0.025,0.044-0.05,0.068-0.073c0.047-0.071,0.102-0.137,0.167-0.195c0.001-0.002,0.002-0.004,0.003-0.006
					c-0.004-0.086-0.008-0.173-0.011-0.259c-0.411-0.12-0.81,0.129-1.219,0.076c-0.24,0.137-0.499,0.242-0.767,0.313
					c-0.022,0.04-0.041,0.084-0.056,0.134c0.003,0.255,0.005,0.51,0.008,0.765c0.013,0.002,0.026,0.001,0.04,0.002
					c0.181-0.024,0.363-0.046,0.545-0.069c0.149-0.047,0.294-0.11,0.439-0.176c0.137-0.085,0.285-0.155,0.428-0.232
					C67.082,71.314,67.163,71.251,67.255,71.202z"/>
				<path fill="#6F1D12" d="M71.389,66.69c-0.055-0.013-0.11-0.001-0.166,0.039c-0.192,0.003-0.384,0.005-0.577,0.008
					c0.003,0.025,0.007,0.05,0.006,0.077c-0.005,0.202,0.004,0.407,0.023,0.612c0.068-0.318,0.288-0.484,0.742-0.418
					c0.008-0.007,0.012-0.016,0.019-0.023C71.418,66.885,71.403,66.787,71.389,66.69z"/>
				<path fill="#941703" d="M70.326,65.979c0.004,0,0.007,0,0.01,0.001c0.036,0.002,0.078,0.005,0.078,0.005
					c-0.423-0.392-0.848-0.385-1.275-0.007c0.129-0.002,0.111-0.002,0.254-0.002c0.197,0.002,0.395,0.003,0.592,0.005
					c0.018-0.001,0.035-0.005,0.054-0.005c0.023,0,0.043,0.004,0.064,0.006l0.057,0l0.127-0.005
					C70.286,65.976,70.304,65.977,70.326,65.979z"/>
				<path fill="#752519" d="M68.929,67.776c0.025-0.138,0.047-0.276,0.068-0.416c-0.087,0.117-0.106,0.26-0.089,0.418
					C68.915,67.777,68.922,67.777,68.929,67.776z"/>
				<path fill="#873D31" d="M77.369,71.255c-0.025,0.003-0.048,0.007-0.074,0.007c-0.504-0.002-1.009-0.017-1.511,0.023
					c-0.085,0.007-0.171,0.016-0.257,0.025c0.003,0.007,0.006,0.014,0.009,0.021c0.252,0.006,0.504,0.011,0.756,0.017
					c0.514-0.007,1.029-0.013,1.543-0.02c-0.02-0.018-0.04-0.037-0.061-0.055C77.636,71.273,77.502,71.266,77.369,71.255z"/>
				<path fill="#560901" d="M55.853,71.4c-0.14,0.006-0.28,0.01-0.421,0.009c-0.263-0.001-0.522-0.027-0.781-0.061
					c-0.06,0.009-0.123,0.015-0.19,0.015c-0.026,0-0.05-0.002-0.075-0.004c-0.305,0.233-0.468,0.533-0.31,0.982
					c0.748-0.029,1.515-0.069,2.272-0.045C56.342,71.915,56.011,71.703,55.853,71.4z"/>
				<path fill="#951906" d="M53.627,71.379c-0.028,0-0.055-0.001-0.083-0.001c-0.001,0-0.002,0-0.003,0
					c0.044,0.361-0.093,0.676-0.249,0.986c0.055-0.001,0.109-0.001,0.164-0.002c0.209-0.005,0.42-0.012,0.632-0.02
					c0.151-0.324,0.303-0.647,0.455-0.971c-0.286,0.002-0.573,0.004-0.86,0.006C53.664,71.377,53.646,71.379,53.627,71.379z"/>
				<path fill="#A52A22" d="M72.24,69.61c-0.102,0.233-0.203,0.466-0.305,0.699c0.304,0.513,0.629,0.968,1.299,0.502
					C72.813,70.505,72.47,70.085,72.24,69.61z"/>
				<path fill="#801F14" d="M74.721,71.329c-0.033-0.001-0.066-0.005-0.098-0.007c0.139,0.034,0.284,0.032,0.43,0.023
					c-0.104,0.002-0.209-0.003-0.314-0.017C74.733,71.328,74.728,71.329,74.721,71.329z"/>
				<path fill="#821F13" d="M64.997,71.105c-0.239,0.041-0.477,0.063-0.715,0.07c-0.017,0.001-0.033,0.005-0.052,0.005h-0.473
					c-0.006,0.045-0.013,0.091-0.024,0.135c0.527-0.024,1.088,0.21,1.564-0.206C65.198,71.107,65.097,71.106,64.997,71.105z"/>
				<path fill="#6F4539" d="M69.294,62.319c-0.019-0.073-0.068-0.133-0.085-0.206c-0.008-0.017-0.015-0.034-0.025-0.051
					c-0.012-0.02-0.032-0.043-0.044-0.063c-0.012-0.02-0.006-0.05-0.02-0.069c-0.023-0.03-0.019-0.059-0.03-0.097
					c0-0.001,0-0.001,0-0.002c0,0,0,0,0,0c-0.028-0.064-0.073-0.114-0.113-0.171c-0.019-0.027-0.036-0.057-0.056-0.084
					c-0.008-0.012-0.017-0.025-0.024-0.038c-0.001-0.003-0.002-0.006-0.004-0.008c-0.008-0.011-0.015-0.023-0.021-0.035
					c-0.028-0.038-0.055-0.076-0.082-0.117c-0.035-0.053-0.075-0.095-0.107-0.143c-0.217-0.199-0.416-0.417-0.633-0.614
					c-0.021-0.013-0.042-0.027-0.063-0.039c-0.042-0.024-0.077-0.052-0.107-0.082c-0.229-0.1-0.464-0.187-0.719-0.248
					c-0.72-0.172-2.979-0.376-3.363-0.408c0.052,0.087,0.142,0.151,0.247,0.204c0.187,0.07,0.381,0.104,0.58,0.111
					c0.753,0.015,1.511-0.022,2.235,0.249c1.259,0.217,1.646,1.447,2.49,2.145C69.333,62.475,69.314,62.397,69.294,62.319z"/>
				<path fill="#6F4539" d="M75.357,59.83c-0.049,0.004-0.093,0-0.135-0.007c-0.022,0.003-0.043,0.007-0.067,0.007
					c-0.756,0.007-1.506,0.086-2.259,0.148c-0.056,0.033-0.121,0.056-0.197,0.064c-0.25,0.116-0.513,0.21-0.763,0.326
					c-0.057,0.051-0.121,0.095-0.192,0.132c-0.019,0.02-0.039,0.039-0.058,0.058c-0.056,0.055-0.112,0.109-0.167,0.164
					c-0.073,0.072-0.151,0.136-0.231,0.2c-0.052,0.06-0.114,0.113-0.182,0.16c-0.041,0.059-0.086,0.115-0.14,0.164
					c-0.049,0.064-0.1,0.127-0.156,0.185c-0.021,0.022-0.042,0.043-0.063,0.065c-0.024,0.026-0.068,0.076-0.024,0.019
					c-0.018,0.024-0.038,0.045-0.058,0.066c-0.073,0.097-0.143,0.197-0.196,0.281c-0.003,0.004-0.006,0.007-0.009,0.011
					c-0.024,0.042-0.05,0.083-0.075,0.124c0.01,0.013,0.016,0.03,0.012,0.05c-0.026,0.137-0.053,0.273-0.074,0.411
					c0.778-0.705,1.211-1.809,2.383-2.057c0.724-0.259,1.479-0.23,2.23-0.244c0.196-0.011,0.389-0.043,0.574-0.114
					c0.123-0.061,0.228-0.135,0.272-0.246C75.64,59.807,75.498,59.82,75.357,59.83z"/>
				<path fill="#6F4539" d="M61.842,59.627c0.112,0.066,0.224,0.13,0.338,0.192c0.362,0.067,0.721,0.119,1.044-0.033
					c-0.307-0.038-0.611-0.086-0.913-0.146C62.154,59.64,61.997,59.636,61.842,59.627z"/>
				<path fill="#4D2E27" d="M61.274,59.575c-0.304-0.037-0.607-0.079-0.911-0.12c-0.037-0.005-0.061-0.008-0.08-0.011
					c-0.006,0-0.01-0.001-0.016-0.001c-0.014-0.001-0.028-0.002-0.043-0.003c0.082,0.035,0.162,0.074,0.235,0.127
					c0.301,0.006,0.602,0.012,0.902,0.018C61.332,59.581,61.303,59.579,61.274,59.575z"/>
				<path fill="#4D2E27" d="M61.484,59.598c0.146,0.106,0.287,0.131,0.423,0.032C61.766,59.622,61.625,59.612,61.484,59.598z"/>
				<path fill="#4D2E27" d="M77.658,59.639c0.128,0.086,0.262,0.062,0.4-0.035C77.925,59.616,77.792,59.627,77.658,59.639z"/>
				<path fill="#4D2E27" d="M78.294,59.582c0.183-0.004,0.366-0.007,0.55-0.011c0.019-0.018,0.039-0.031,0.06-0.044
					C78.7,59.546,78.497,59.564,78.294,59.582z"/>
				<path fill="#570B03" d="M61.473,59.596c0.175,0.332,0.213,0.455,0.388,0.786c0.239,0.316,0.319,0.269,0.446,0.315
					c0.397,0.142,0.772,0.135,1.15,0.036c0.132,0,0.257-0.028,0.377-0.083c0.285-0.212,0.44-0.455,0.213-0.787
					c-0.353-0.024-1.124-0.155-1.736-0.223C61.913,59.596,61.584,59.608,61.473,59.596z"/>
				<path fill="#570B03" d="M75.544,59.815l-0.017,0.015c-0.137,0.322-0.044,0.571,0.161,0.783c0.137-0.01,0.275-0.016,0.413-0.02
					c0.06-0.021,0.126-0.035,0.202-0.035c0.039,0,0.075,0.005,0.111,0.011c0.033-0.006,0.068-0.011,0.106-0.011
					c0.353-0.001,0.705-0.006,1.057-0.013c0.166-0.314,0.332-0.629,0.499-0.943C77.232,59.678,76.388,59.752,75.544,59.815z"/>
				<path fill="#782615" d="M54.209,59.01c-0.348-0.009-0.701-0.029-1.049-0.072c-0.057-0.003-0.113-0.007-0.168-0.014
					c-0.03,0.002-0.059,0.005-0.089,0.005c-0.087,0-0.172-0.006-0.255-0.016c0.606,0.343,1.284,0.072,1.921,0.155
					c0.01,0,0.019-0.004,0.029-0.011C54.463,59.052,54.334,59.037,54.209,59.01z"/>
				<path fill="#5B3831" d="M58.978,59.366c0.307,0.104,0.613,0.134,0.918,0.062c-0.102-0.002-0.201-0.013-0.299-0.027
					C59.391,59.392,59.184,59.383,58.978,59.366z"/>
				<path fill="#5B3831" d="M57.613,59.289c0.009,0.008,0.018,0.015,0.027,0.024c0.346,0.008,0.691,0.016,1.037,0.023
					c-0.088-0.011-0.176-0.024-0.263-0.039C58.147,59.298,57.88,59.295,57.613,59.289z"/>
				<path fill="#B12820" d="M55.224,60.56c-0.945-0.247-1.8-0.195-2.595-0.191C53.466,59.396,54.495,59.583,55.224,60.56z"/>
				<path fill="#8C3326" d="M58.663,60.586c-0.942,0.009-1.883,0.018-2.825,0.027c-0.081-0.009-0.161-0.018-0.242-0.028
					c-0.006-0.075-0.012-0.149-0.02-0.223C56.604,60.446,57.663,60.114,58.663,60.586z"/>
				<path fill="#782615" d="M55.733,59.178c0.604,0.329,1.274,0.069,1.907,0.136c-0.006-0.009-0.013-0.016-0.019-0.024
					C56.989,59.276,56.36,59.244,55.733,59.178z"/>
				<path fill="#7B1E0D" d="M60.283,59.444c-0.006,0-0.01-0.001-0.016-0.001c-0.019-0.002-0.038-0.003-0.057-0.005
					c-0.098-0.003-0.196-0.007-0.295-0.008c-0.116-0.001-0.228-0.012-0.338-0.029c-0.216-0.01-0.431-0.02-0.645-0.038
					c0.461,0.397,1.014,0.164,1.527,0.204c-0.044-0.039-0.087-0.077-0.131-0.116C60.311,59.448,60.295,59.446,60.283,59.444z"/>
				<path fill="#5B3832" d="M79.779,59.451c0.238,0.036,0.476,0.013,0.715-0.06C80.255,59.411,80.017,59.431,79.779,59.451z"/>
				<path fill="#5B3832" d="M81.396,59.327c0.171-0.003,0.343-0.006,0.514-0.009c0.006-0.006,0.012-0.011,0.018-0.017
					C81.751,59.308,81.574,59.316,81.396,59.327z"/>
				<path fill="#8F362A" d="M86.985,60.435c0.02-0.021,0.039-0.044,0.057-0.071c-0.085-0.012-0.17-0.024-0.255-0.037
					c-0.775-0.415-1.549-0.444-2.323,0.006c-0.88,0.007-1.76-0.004-2.638,0.029c-0.433,0.017-0.897-0.125-1.301,0.111
					c0.341-0.006,0.681-0.011,1.022-0.012c0.042,0,0.081,0.004,0.118,0.01c1.242-0.004,2.485,0.019,3.727,0.064
					C85.924,60.521,86.455,60.479,86.985,60.435z"/>
				<path fill="#B12820" d="M86.787,60.328c-0.774,0.002-1.548,0.004-2.323,0.006C85.335,59.361,85.993,59.359,86.787,60.328z"/>
				<path fill="#771E0D" d="M83.32,59.279c-0.468-0.004-0.932,0.004-1.396,0.023c-0.004,0.005-0.009,0.01-0.013,0.016
					c0.627-0.055,1.278,0.13,1.892-0.05C83.644,59.275,83.484,59.28,83.32,59.279z"/>
				<path fill="#762010" d="M78.874,59.53c-0.01,0.013-0.021,0.026-0.031,0.041c0.581-0.062,1.203,0.2,1.742-0.188
					C80.015,59.429,79.444,59.479,78.874,59.53z"/>
				<path fill="#7C1C13" d="M69.393,63.512c-0.002-0.033-0.002-0.067,0-0.1c-0.001,0-0.001,0-0.002-0.001
					c-0.006-0.006-0.009-0.014-0.009-0.022v-0.047c0-0.002,0.002-0.003,0.002-0.005v-0.187c0-0.002,0.001-0.004,0.001-0.007
					c-0.001-0.007-0.003-0.013-0.003-0.021c0-0.143,0-0.287-0.013-0.43c-0.012-0.127-0.043-0.251-0.075-0.375
					c-0.017-0.068-0.051-0.146-0.076-0.211c-0.02-0.053-0.072-0.167-0.078-0.18c-0.039-0.084-0.109-0.193-0.165-0.274
					c-0.043-0.063-0.099-0.146-0.129-0.191c-0.06-0.09-0.164-0.236-0.245-0.31c-0.157-0.149-0.309-0.302-0.466-0.45
					c-0.096-0.078-0.165-0.157-0.301-0.221c-0.215-0.093-0.45-0.176-0.689-0.233c-0.055-0.013-0.113-0.008-0.17-0.014
					c-0.233,0.248-0.421,0.462-0.143,0.843c0.675,0.166,1.08,0.636,1.351,1.235c0.348,0.767,0.119,1.961,0.215,2.753
					c0.079,0.091,0.128-0.185,0.229-0.117l-0.001,0c0.08,0.091,0.178,0.164,0.257,0.256l-0.001-0.002
					c0.399,0.078,0.345-0.22,0.377-0.451c0.05-0.359-0.116-0.745,0.133-1.079C69.392,63.619,69.392,63.565,69.393,63.512z"/>
				<path fill="#7C1C13" d="M72.492,60.133c-0.187,0.078-0.376,0.152-0.559,0.237c-0.056,0.05-0.12,0.093-0.19,0.129
					c-0.019,0.02-0.039,0.039-0.058,0.058c-0.056,0.055-0.112,0.109-0.167,0.164c-0.073,0.072-0.151,0.136-0.231,0.2
					c-0.052,0.06-0.114,0.113-0.182,0.16c-0.041,0.059-0.086,0.115-0.14,0.164c-0.049,0.064-0.1,0.127-0.156,0.185
					c-0.021,0.022-0.042,0.043-0.063,0.065c-0.024,0.026-0.068,0.076-0.024,0.019c-0.017,0.022-0.036,0.043-0.055,0.062
					c-0.01,0.014-0.021,0.027-0.031,0.041c-0.087,0.125-0.167,0.256-0.246,0.389c0.006,0.012,0.01,0.025,0.007,0.041
					c-0.052,0.272-0.106,0.545-0.115,0.823c-0.008,0.249,0.036,0.497,0,0.745c0.204,0.444,0.033,1.002,0.258,1.468
					c0.271-0.165,0.441,0.105,0.621-0.005c0.36-0.741-0.061-1.948,0.257-2.693c0.159-0.708,0.636-1.101,1.298-1.31
					C73.025,60.662,72.742,60.401,72.492,60.133z"/>
				<path fill="#864134" d="M71.345,65.221c-0.009-0.339-0.01-0.678-0.01-1.017c0-0.007,0.002-0.013,0.004-0.019
					c-0.023-0.609-0.07-1.204,0.079-1.799v-0.002c-0.47,0.73-0.128,1.546-0.248,2.313c0.018,0.677,0.035,1.355,0.053,2.032
					c0.058,0.003,0.115,0.008,0.173,0.013c-0.027-0.184-0.044-0.367-0.046-0.552C71.29,65.874,71.323,65.544,71.345,65.221z"/>
				<path fill="#941703" d="M68.882,65.202c0.283-0.188,0.251-0.482,0.256-0.764c0.005-0.282-0.025-0.575,0.254-0.766
					c-0.004,0.458,0.02,0.918-0.023,1.372C69.339,65.374,69.149,65.472,68.882,65.202z"/>
				<path fill="#752519" d="M68.182,66.927c0.061-0.055,0.122-0.11,0.183-0.165c-0.006-0.377-0.012-0.754-0.018-1.131
					C68.304,66.064,68.251,66.497,68.182,66.927z"/>
				<path fill="#941703" d="M69.066,66.785c0-0.105-0.001-0.209-0.002-0.312c-0.002-0.107,0.027-0.194,0.073-0.265
					c0.001-0.078,0.002-0.156,0.003-0.234c-0.31,0.185-0.245,0.5-0.269,0.783c0,0,0.006,0.013,0.006,0.013
					C68.944,66.81,69.007,66.815,69.066,66.785z"/>
				<path fill="#941703" d="M68.627,64.949c0.086,0.085,0.171,0.171,0.257,0.256C68.798,65.119,68.712,65.034,68.627,64.949z"/>
				<path fill="#A52B23" d="M66.569,70.53c-0.089,0.091-0.177,0.181-0.266,0.272c0.532,0.488,0.891,0.01,1.294-0.23
					c0.043-0.306-0.125-0.527-0.295-0.747C67.104,70.103,66.854,70.34,66.569,70.53z"/>
				<path fill="#AC2B23" d="M64.501,59.888c-0.215,0.262-0.379,0.576-0.726,0.704c-0.087,0.013-0.174,0.025-0.26,0.038
					c0.003,0.074,0.009,0.147,0.02,0.221c1.099,0.072,2.22-0.165,3.297,0.227c0.076-0.292,0.203-0.543,0.279-0.835
					c-0.75-0.151-1.235-0.186-2.011-0.28C64.84,59.933,64.654,59.895,64.501,59.888z"/>
				<path fill="#AE2A22" d="M73.855,60.831c0.048-0.013,0.099-0.022,0.155-0.022c0.047-0.016,0.096-0.029,0.151-0.034
					c0.414-0.039,0.817-0.094,1.222-0.135c0.004-0.023,0.005-0.047,0.003-0.073c-0.049-0.278-0.15-0.529-0.369-0.719
					c-0.083-0.003-0.165-0.006-0.248-0.008c-0.626,0.024-1.249,0.086-1.873,0.138c-0.057,0.034-0.124,0.056-0.201,0.064
					c-0.072,0.033-0.144,0.066-0.218,0.097c0.08,0.311,0.159,0.623,0.239,0.935c0.257-0.11,0.518-0.166,0.782-0.194
					c0.069-0.031,0.15-0.048,0.243-0.048H73.855z"/>
				<path fill="#834135" d="M76.085,60.591c-0.091-0.003-0.182-0.007-0.273-0.01c-0.19-0.13-0.368-0.114-0.534,0.043
					c-0.001,0.009-0.002,0.017-0.003,0.026C75.543,60.622,75.812,60.599,76.085,60.591z"/>
				<path fill="#991704" d="M75.812,60.581c-0.178,0.014-0.356,0.029-0.534,0.043c-0.3-0.187-0.249-0.493-0.262-0.776
					c0.17-0.006,0.34-0.012,0.51-0.018C75.621,60.081,75.717,60.331,75.812,60.581z"/>
				<path fill="#991703" d="M64.014,59.861c-0.079,0.244-0.159,0.488-0.239,0.732c0.565,0.082,0.792-0.18,0.762-0.703
					C64.362,59.883,64.188,59.873,64.014,59.861z"/>
			</g>
		</g>
	</g>
</g>
<g>
	<g>
		<defs>
			
				<ellipse id="Ellipse_891_00000055688276897010911940000014094123114628349621_" cx="280.267" cy="-1993.896" rx="536.198" ry="536.198"/>
		</defs>
		<clipPath id="Ellipse_891_00000052815330873085730850000014514917784406070972_">
			<use xlink:href="#Ellipse_891_00000055688276897010911940000014094123114628349621_"  overflow="visible"/>
		</clipPath>
		<g clip-path="url(#Ellipse_891_00000052815330873085730850000014514917784406070972_)">
			<path fill="#4C7E9E" d="M225.683-612.257 M280.267-448.336c-1.588,18.109-5.714,36.171-7.581,54.255
				c-2.178,21.106-3.152,42.236-5.55,63.317c-1.98,17.402-4.345,34.763-6.724,52.116c-3.019,22.024-6.225,44.023-9.35,66.033
				c-2.89,20.349-5.653,40.716-8.704,61.041c-3.751,24.99-8.141,50.057-12.785,74.885c-5.624,30.066-4.491,60.281-3.972,90.714
				c0.456,26.696,0.504,53.419-0.147,80.109c-0.526,21.545-2.349,43.058-3.623,64.584c-0.697,11.775-1.402,23.55-2.185,35.32
				c-1.388,20.844-3.332,41.734-5.391,62.512c-2.688,27.137-6.284,54.184-9.48,81.27c-2.881,24.419-5.558,48.864-8.681,73.252
				c-2.908,22.716-7.436,45.353-10.408,68.062c-2.448,18.703-4.477,37.46-6.702,56.192c-2.501,21.064-5.103,42.117-7.48,63.196
				c-1.095,9.707-1.711,19.467-2.633,29.195c-0.636,6.705-0.569,13.649-2.45,20.003c-1.215,4.104-4.638,8.694-8.352,10.73
				c-21.067,11.544-43.045,12.558-65.337,3.488c-3.922-1.596-6.583-4.522-6.998-9.152c-1.322-14.76-2.652-29.52-4.21-44.256
				c-1.593-15.068-3.514-30.101-5.193-45.16c-1.68-15.063-3.241-30.139-4.849-45.21c-1.537-14.403-2.996-28.814-4.622-43.207
				c-1.776-15.724-3.676-31.435-5.572-47.145c-1.735-14.375-3.622-28.732-5.288-43.116c-1.705-14.721-3.216-29.465-4.823-44.197
				c-1.789-16.401-3.629-32.797-5.369-49.203c-0.995-9.379-1.825-18.776-2.744-28.163c-1.148-11.727-2.319-23.451-3.465-35.178
				c-0.819-8.381-1.798-16.751-2.373-25.15c-0.92-13.452-1.411-26.934-2.365-40.383c-1.024-14.442-2.372-28.86-3.579-43.289
				c-0.084-1.01-0.222-2.017-0.257-3.028c-0.747-21.579-1.542-43.156-2.205-64.738c-0.746-24.283-0.455-48.642-2.376-72.828
				c-1.247-15.705-5.732-31.143-8.614-46.729C8.573-118.258-0.785-168.305-9.773-218.418c-6.724-37.489-13.178-75.031-19.29-112.624
				c-4.108-25.269-7.566-50.649-11.024-76.019c-2.82-20.685-5.587-41.39-7.68-62.156c-1.993-19.772-2.78-39.663-4.632-59.451
				c-3.978-42.5-1.51-85.081-1.736-127.619c-0.076-14.399,2.075-28.893,4.151-43.206c6.833-47.121,21.882-91.811,41.04-135.222
				c0.818-1.854,7.582-18.918,9.508-21.25c2.837,0.909,470.322,3.173,576.924,2.47c12.915-0.085,7.712,9.296,8.263,11.517
				c6.803,15.399,12.996,31.11,19.328,46.7c14.943,36.797,23.697,75.328,29.643,114.418c2.878,18.925,5.557,37.993,4.969,57.368
				c-0.634,20.936,0.3,41.92-0.349,62.855c-0.574,18.5-2.28,36.97-3.681,55.439c-1.325,17.464-2.627,34.938-4.447,52.354
				c-1.784,17.08-4.008,34.122-6.4,51.13c-3.002,21.344-6.237,42.658-9.617,63.946c-4.81,30.288-9.582,60.585-14.845,90.796
				c-7,40.179-14.324,80.305-21.762,120.406c-6.211,33.487-12.793,66.905-19.187,100.358c-0.442,2.312-0.926,4.655-0.992,6.995
				c-0.741,26.307-1.131,52.627-2.17,78.922c-0.877,22.214-2.486,44.398-3.763,66.596c-0.755,13.123-1.348,26.257-2.281,39.367
				c-1.051,14.775-2.381,29.53-3.632,44.29c-0.739,8.727-1.499,17.452-2.352,26.168c-2.624,26.805-5.284,53.607-7.956,80.407
				c-2.138,21.447-4.102,42.915-6.536,64.329c-2.205,19.401-5.054,38.727-7.401,58.112c-1.7,14.041-2.976,28.132-4.565,42.187
				c-1.74,15.388-3.711,30.749-5.42,46.14c-1.673,15.062-3.101,30.15-4.711,45.219c-1.788,16.736-3.701,33.459-5.479,50.197
				c-0.961,9.043-2.156,18.091-2.481,27.164c-0.223,6.232-2.586,10.411-8.241,12.582c-21.322,8.185-42.362,7.278-62.744-2.934
				c-6.175-3.094-10.157-7.985-10.728-15.871c-1.456-20.14-3.616-40.235-5.84-60.31c-2.151-19.409-4.712-38.773-7.132-58.152
				c-2.295-18.38-4.581-36.761-6.982-55.127c-2.968-22.708-6.147-45.388-9.055-68.103c-2.522-19.705-4.829-39.437-7.159-59.166
				c-1.58-13.379-2.997-26.777-4.555-40.159c-1.09-9.361-2.479-18.691-3.412-28.067c-2.101-21.107-4.192-42.218-5.915-63.358
				c-1.122-13.77-1.544-27.595-2.358-41.391c-1.211-20.512-2.505-41.019-3.727-61.531c-0.181-3.033-0.224-6.078-0.225-9.118
				c-0.013-38.529-0.34-77.063,0.141-115.587c0.229-18.363-2.445-36.273-5.26-54.271c-4.581-29.29-8.895-58.621-13.303-87.938
				c-3.756-24.983-7.617-49.952-11.181-74.962c-2.565-18.003-4.697-36.066-7.056-54.099c-2.446-18.696-5.088-37.367-7.353-56.085
				c-1.82-15.043-3.23-30.137-4.777-45.212c-1.89-18.418-3.801-36.833-5.571-55.263c-0.934-9.723-1.799-19.461-2.318-29.213
				c-0.913-17.171-5.542-34.358-6.28-51.538c-0.694-16.167-2.439-32.332-3.016-48.502c-0.128-3.602-3.308-9.669-3.075-13.839
				L280.267-448.336 M220.525-615.283"/>
			<path fill="#425D72" d="M86.448,653.578c-0.168-0.088-0.322-0.206-0.448-0.347c-6.63-7.407-4.696-17.015-5.874-25.603
				c-4.448-32.438-8.017-64.995-12.015-97.496c-3.509-28.526-7.078-57.044-10.752-85.549c-3.63-28.17-7.518-56.306-11.114-84.479
				c-2.369-18.561-4.514-37.151-6.595-55.746c-2.712-24.236-5.317-48.483-7.849-72.738c-0.902-8.638-1.627-17.303-2.137-25.972
				c-1.609-27.368-3.261-54.735-4.54-82.119c-0.968-20.717-1.534-41.456-2.017-62.191c-0.648-27.775-0.974-55.557-1.622-83.332
				c-0.1-4.3-0.853-8.654-1.852-12.852C1.581-110.692-13.859-187.076-27.004-263.912c-7.609-44.478-14.84-89.029-21.452-133.665
				c-3.768-25.44-6.204-51.089-8.782-76.69c-3.283-32.6-6.334-65.218-6.304-98.056c0.016-17.718-1.232-35.435-1.336-53.156
				c-0.42-71.363,16.102-139.093,44.5-204.186c3.985-9.133,8.559-18.008,13.682-27.522c0.373-0.693,1.216-0.989,1.946-0.695
				c2.747,1.105,4.997,2.582,7.035,4.457c0.469,0.432,0.597,1.128,0.346,1.714c-1.968,4.599-3.719,8.698-5.742,13.36
				c-15.367,33.233-27.553,66.813-36.004,101.753c-5.823,24.072-11.442,48.396-11.654,73.055
				c-0.377,43.838-2.507,87.742,1.51,131.565c1.859,20.276,2.331,40.687,4.471,60.927c2.629,24.864,6.18,49.636,9.631,74.406
				c4.005,28.747,7.889,57.523,12.63,86.154c6.76,40.823,14.067,81.559,21.483,122.27c7.778,42.698,15.691,85.376,24.083,127.956
				c4.082,20.71,7.425,41.367,6.501,62.537c-0.329,7.54-0.406,15.09-0.013,22.627c1.141,21.881,2.623,43.744,3.768,65.624
				c0.891,17.024,1.481,34.064,2.21,51.097c0.029,0.669,0.104,1.336,0.165,2.003c1.899,20.928,3.896,41.848,5.669,62.787
				c1.549,18.292,2.781,36.611,4.289,54.907c0.63,7.645,1.589,15.264,2.433,22.891c1.797,16.24,3.649,32.474,5.417,48.716
				c1.589,14.594,2.993,29.209,4.67,43.792c1.675,14.574,3.688,29.11,5.367,43.683c1.604,13.921,2.821,27.886,4.472,41.801
				c2.397,20.198,5.267,40.342,7.498,60.557c2.379,21.553,4.165,43.172,6.368,64.745c1.829,17.914,4.107,35.785,5.712,53.717
				c0.482,5.383,2.555,9.005,7.302,10.92c21.751,8.773,43.219,7.777,63.96-3.01c5.693-2.961,9.674-7.711,9.689-15.233
				c0.015-7.974,1.237-15.955,2.096-23.916c1.824-16.908,3.73-33.807,5.65-50.704c1.582-13.92,3.16-27.841,4.874-41.744
				c1.633-13.239,3.445-26.456,5.169-39.684c1.724-13.228,3.452-26.455,5.15-39.686c2.335-18.196,4.643-36.395,6.96-54.593
				c1.685-13.233,3.378-26.466,5.047-39.702c1.668-13.237,3.513-26.456,4.911-39.722c1.678-15.928,2.869-31.907,4.444-47.847
				c1.771-17.919,4.047-35.794,5.536-53.735c1.684-20.292,2.907-40.627,4.013-60.961c0.944-17.356,1.871-34.733,2.04-52.108
				c0.325-33.521-0.084-67.05,0.208-100.572c0.125-14.35,0.477-28.778,2.091-43.015c2.292-20.208,5.835-40.275,8.864-60.4
				c3.03-20.123,6.141-40.234,9.112-60.366c2.338-15.84,4.528-31.702,6.762-47.558c3.118-22.126,6.245-44.252,9.315-66.385
				c1.878-13.541,3.726-27.086,5.461-40.646c1.609-12.575,3.264-25.151,4.513-37.764c1.645-16.603,2.817-33.253,4.368-49.866
				c1.798-19.259,4.211-38.47,5.569-57.758c1.29-18.334,1.559-36.739,2.288-55.113c0.093-2.341,0.28-4.679,0.37-7.02
				c0.549-14.357,1.11-28.713,1.607-43.072c0.149-4.293-1.794-6.553-6.256-7.562c-7.155-1.619-14.407-3.38-21.124-6.242
				c-10.993-4.684-22.533-8.679-31.012-17.842c0.057,0,0.202-0.001,0.547,0.048c0.13,0.018,0.267,0.022,0.394,0.057
				c6.769,1.887,12.696,4.091,18.802,5.548c12.648,3.019,25.271,6.821,38.127,8.148c22.934,2.368,45.415-0.497,66.661-10.428
				c2.764-1.292,5.685-2.247,8.629-3.155c1.577,2.673,1.34,2.271,2.916,4.944c-16.146,15.666-37.629,19.313-60.157,21.779
				c-0.773,0.085-1.36,0.739-1.361,1.517c-0.028,13.843-0.458,27.086,0.119,40.284c0.801,18.329,2.513,36.616,3.679,54.931
				c0.87,13.668,1.387,27.359,2.268,41.027c0.515,7.989,1.329,15.962,2.194,23.922c1.802,16.572,3.753,33.128,5.596,49.695
				c2.212,19.892,4.172,39.815,6.617,59.678c2.24,18.198,4.962,36.337,7.505,54.497c2.497,17.831,5.003,35.66,7.564,53.482
				c2.8,19.484,5.598,38.969,8.526,58.434c3.672,24.409,7.533,48.79,11.199,73.201c1.783,11.873,4.456,23.756,4.753,35.684
				c1.301,52.216-1.775,104.483,2.016,156.692c1.378,18.979,1.544,38.047,2.272,57.074c0.008,0.219,0.023,0.439,0.044,0.657
				c1.256,13.077,2.708,26.137,3.79,39.228c0.935,11.313,1.403,22.665,2.299,33.982c0.605,7.646,1.543,15.267,2.426,22.889
				c1.765,15.235,3.601,30.462,5.396,45.693c1.639,13.912,3.209,27.832,4.908,41.736c1.659,13.57,3.423,27.127,5.177,40.685
				c2.353,18.19,4.75,36.374,7.11,54.563c1.674,12.899,3.342,25.798,4.968,38.703c1.626,12.906,3.187,25.821,4.792,38.73
				c1.728,13.897,3.662,27.771,5.167,41.692c2.151,19.891,4.41,39.788,5.77,59.74c0.565,8.296,4.803,13.146,11.29,16.324
				c19.951,9.774,40.503,10.563,61.298,2.706c5.512-2.083,8.308-5.9,8.441-12.25c0.182-8.656,1.218-17.309,2.176-25.931
				c2.468-22.202,5.228-44.373,7.621-66.583c2.287-21.227,4.039-42.512,6.433-63.726c2.281-20.208,5.289-40.334,7.614-60.538
				c2.974-25.845,5.596-51.731,8.35-77.601c2.683-25.203,5.349-50.408,8.006-75.614c0.805-7.632,1.573-15.268,2.328-22.905
				c1.869-18.914,3.924-37.813,5.51-56.751c1.087-12.977,1.482-26.01,2.244-39.015c0.644-11,1.4-21.992,2.054-32.991
				c1.308-21.996,2.907-43.981,3.782-65.995c1.036-26.069,1.414-52.165,2.148-78.248c0.065-2.315,0.569-4.633,1.018-6.92
				c6.24-31.786,12.806-63.512,18.686-95.364c6.605-35.773,12.59-71.661,18.858-107.496c5.174-29.582,10.866-59.083,15.42-88.759
				c5.362-34.939,9.993-69.996,14.474-105.061c3.635-28.443,7.235-56.919,9.618-85.483c1.805-21.634,1.989-43.426,2.325-65.157
				c0.601-38.8-0.386-77.367-7.496-115.861c-9.243-50.045-23.838-98.018-46.864-144.132c-0.019-0.038-0.04-0.077-0.062-0.113
				c-1.882-3.177-3.694-5.844-5.188-8.753c-0.387-0.752-0.11-1.681,0.639-2.073c3.157-1.655,6.056-3.049,8.921-4.408
				c0.729-0.346,1.606-0.067,2,0.638c11.878,21.287,20.982,43.809,29.09,66.727c14.447,40.836,23.813,82.822,29.198,125.843
				c3.047,24.349,4.535,48.703,3.384,73.083c-1.733,36.698-4.175,73.385-7.381,109.984c-2.74,31.282-6.308,62.527-10.725,93.616
				c-5.547,39.044-11.724,78.022-18.734,116.829c-9.154,50.672-19.124,101.201-29.268,151.687
				c-5.613,27.934-12.323,55.647-18.42,83.486c-0.994,4.539-1.584,9.162-1.712,13.807c-0.23,8.328,0.059,16.669-0.088,25
				c-0.622,35.147-0.773,70.313-2.162,105.431c-1.267,32.049-3.431,64.083-6.073,96.052c-2.751,33.287-6.218,66.525-9.984,99.714
				c-3.314,29.208-7.525,58.314-11.245,87.477c-4.313,33.815-8.478,67.648-12.791,101.463c-3.72,29.163-7.69,58.295-11.299,87.471
				c-2.379,19.233-4.182,38.537-6.563,57.77c-0.458,3.697-2.302,7.222-4.509,11.579c-0.119,0.235-0.306,0.446-0.526,0.592
				c-3.667,2.445-6.454,4.172-9.952,5.989c-0.154,0.08-0.327,0.135-0.499,0.159c-6.305,0.893-11.796,1.906-17.334,2.379
				c-16.553,1.416-32.456-1.252-47.979-8.679c-0.069-0.033-0.139-0.073-0.202-0.116c-2.473-1.668-4.617-2.869-6.747-4.049
				c-0.206-0.114-0.387-0.273-0.522-0.465c-3.324-4.702-3.987-10.082-4.558-15.717c-2.83-27.91-5.657-55.829-9.134-83.663
				c-3.893-31.167-8.381-62.262-12.798-93.361c-4.323-30.431-9.079-60.801-13.278-91.249c-3.287-23.833-6.232-47.718-8.934-71.624
				c-2.925-25.885-5.815-51.788-7.935-77.747c-1.958-23.974-3.497-48.017-4.111-72.058c-1.026-40.146-1.329-80.314-1.586-120.474
				c-0.081-12.685,0.842-25.383,1.513-38.065c0.984-18.603-3.425-36.558-6.486-54.65c-7.695-45.482-16.03-90.858-23.463-136.382
				c-6.299-38.581-11.961-77.272-17.383-115.988c-2.871-20.504-4.904-41.138-6.824-61.76c-2.384-25.611-4.253-51.27-6.393-76.904
				c-0.019-0.231-0.081-0.458-0.174-0.698c-0.502-1.296-2.449-1.351-2.851-0.02c-0.024,0.08-0.04,0.159-0.046,0.239
				c-1.629,20.656-2.788,41.358-4.847,61.97c-2.688,26.911-5.704,53.801-9.261,80.61c-4.484,33.792-9.194,67.567-14.646,101.213
				c-7.271,44.874-15.369,89.614-23.07,134.418c-2.945,17.13-6.119,34.232-8.495,51.442c-0.999,7.236-0.413,14.727-0.173,22.089
				c0.502,15.367,1.721,30.723,1.803,46.088c0.166,30.828,0.404,61.68-0.593,92.483c-0.853,26.352-3.298,52.657-5.213,78.97
				c-1.237,16.99-2.437,33.995-4.281,50.925c-2.892,26.563-6.078,53.099-9.571,79.59c-4.019,30.479-8.482,60.899-12.801,91.338
				c-3.615,25.475-7.442,50.92-10.911,76.414c-3.288,24.166-6.437,48.355-9.263,72.578c-2.322,19.904-3.991,39.884-6.194,59.804
				c-0.304,2.752-1.935,5.357-3.935,8.845c-0.09,0.158-0.215,0.306-0.354,0.422c-3.022,2.515-5.155,4.243-7.946,6.076
				c-0.107,0.07-0.228,0.129-0.349,0.171c-5.996,2.056-11.151,4.454-16.568,5.788c-16.108,3.968-32.28,3.025-48.804-0.795
				c-0.157-0.036-0.312-0.1-0.451-0.183C92.222,656.615,89.33,655.091,86.448,653.578z"/>
		</g>
	</g>
</g>
</svg>
