<svg xmlns="http://www.w3.org/2000/svg" xmlns:xlink="http://www.w3.org/1999/xlink" width="137.14" height="137.14" viewBox="0 0 137.14 137.14">
  <defs>
    <clipPath id="clip-path">
      <circle id="Ellipse_1105" data-name="Ellipse 1105" cx="68.57" cy="68.57" r="68.57" transform="translate(1.43 1.43)"/>
    </clipPath>
  </defs>
  <g id="Group_117518" data-name="Group 117518" transform="translate(-1.43 -1.43)">
    <circle id="Ellipse_891_00000114781716241324641020000005731547349837625227_" cx="68.57" cy="68.57" r="68.57" transform="translate(1.43 1.43)" fill="#f1f1f1"/>
    <g id="Group_117449" data-name="Group 117449">
      <g id="Group_117448" data-name="Group 117448" clip-path="url(#clip-path)">
        <path id="Path_38593" data-name="Path 38593" d="M80.72,110.984a39.847,39.847,0,0,1-4.389,2.125,13.157,13.157,0,0,1-5.615.919,6.767,6.767,0,0,1-2.689-.388A31.7,31.7,0,0,1,57.433,108.4a54.808,54.808,0,0,1-6.481-5.153,31.728,31.728,0,0,1-8.071-12.724,31.407,31.407,0,0,1-1.6-9.519c0-3.617-.16-7.236-.277-10.852-.027-.828-.223-1.714-.268-2.654a.26.26,0,0,1,.242-.274,1.544,1.544,0,0,0,.3-.048,2.09,2.09,0,0,0,1-.586,3.284,3.284,0,0,0,.323-.466c.055-.1.076-.147.109-.213a2.25,2.25,0,0,0-.508-2.4.259.259,0,0,1,.042-.339c2.076-1.84,2.227-2.364.74-5.539a.261.261,0,0,1,.06-.3,5.776,5.776,0,0,0,2.064-2.763,5.511,5.511,0,0,0-.574-3.43c-.06-.159-.039-1.492.13-1.508,3.232-.31,4.861-.977,4.961-4.107a10.894,10.894,0,0,1,.218-2.381c1.749.5,3.227,1.914,4.57.825a4.73,4.73,0,0,0,1.866-4.135,9.144,9.144,0,0,1,.429-2.259c1.533.359,2.584,1.617,3.864.9a5.524,5.524,0,0,0,2.7-2.84,15.4,15.4,0,0,1,.654-2.374c1.3,1.339,2.456,2.615,4.193,2.532,1.789-.085,3.793-.034,4.735-1.75,1.144-2.084,4.474,2.044,6.518.89.144-.081,1.284,1.017,2.374,1.594s1.75,1.143,2.954.953a10.543,10.543,0,0,1,2.219.672c.366,1.362,4.637,3.91,6,4.079.162.02.073,5.284.86,5.47a12.33,12.33,0,0,0,1.938.359,11.384,11.384,0,0,1,2.3,2.188c-1.057,2.474-.336,3.136,1.973,4.345a37.058,37.058,0,0,1,1.131,4.874c-.058.424-1,2.774-1.073,3.19-.213,1.292-1.216.977-.928,1.131.33.176.132.826.522.9a11.111,11.111,0,0,1,1.044.725c.484.686,0,2.663-.116,3.48a76.887,76.887,0,0,0-.464,10.238A41.719,41.719,0,0,1,98.48,89.713c-1.155,4.129-4.132,8.968-6.8,12.323C88.592,105.918,80.72,110.984,80.72,110.984ZM60.437,94.256h0m4.951-8.677h0m-8.422-24.97h0m26.98,0" fill="#6e4438"/>
        <path id="Path_38594" data-name="Path 38594" d="M81.279,68.752l1.232,6.473-3.677-1.213-2.625-1.778.521-.979Z" fill="#fafcfc"/>
        <path id="Path_38595" data-name="Path 38595" d="M93.324,69.437l-4.705-.824.3,1.381.313,2.033L87.926,74.2l1.663-.284,2.163-1.778a16.569,16.569,0,0,0,1.334-1.945C93.154,70.049,93.324,69.437,93.324,69.437Z" fill="#fafcfc"/>
        <path id="Path_38596" data-name="Path 38596" d="M60.614,68.752l-1.232,6.473,3.677-1.213,2.625-1.778-.521-.979Z" fill="#fafcfc"/>
        <path id="Path_38597" data-name="Path 38597" d="M48.6,69.4l4.705-.824L53,69.956l-.312,2.033L54,74.163l-1.664-.284L50.17,72.1l-1.4-2.082Z" fill="#fafcfc"/>
        <path id="Path_38598" data-name="Path 38598" d="M31.411,166.205c0,.29-.054.643-.07,1.445a.237.237,0,0,1-.057.152c-.181.207-.4.4-.405.495-.245,3.3-.542,6.609-.684,9.92-.109,2.555-.022,5.119-.016,7.678,0,.385-.121.89.072,1.135a1.832,1.832,0,0,1,0,2.2.24.24,0,0,1-.28.126,51.55,51.55,0,0,1-13.674-5.7,23.914,23.914,0,0,1-7.435-6.986,2.438,2.438,0,0,1-.06-3.007,138.035,138.035,0,0,0,11.224-23.33c1.131-3.082,2.219-6.18,3.294-9.282A15.49,15.49,0,0,1,30.557,132c3.392-1.844,6.713-3.829,10.166-5.55a61.316,61.316,0,0,1,12.232-4.432,6.067,6.067,0,0,1,.847-.144c.062-.007.13.036.248.1a.24.24,0,0,1,.131.2,1.878,1.878,0,0,1-.015.625c-2.311,8.313,3.524,16.9,11.854,18.786a17.765,17.765,0,0,0,16.257-3.806,17.454,17.454,0,0,0,5.959-10.621,15.631,15.631,0,0,0-.373-5.13.241.241,0,0,1,.24-.278,4.655,4.655,0,0,1,.937.217,77.276,77.276,0,0,1,11.872,4.167,91.136,91.136,0,0,1,11.641,6.457,15.041,15.041,0,0,1,6.13,8c1.891,5.219,3.747,10.454,5.815,15.6a124.66,124.66,0,0,0,7.719,15.56c.481.837.956,1.679,1.475,2.492a1.515,1.515,0,0,1-.015,1.752,18.988,18.988,0,0,1-3.952,4.78,38.87,38.87,0,0,1-15.232,7.963.242.242,0,0,1-.282-.134c-.354-.757-.545-1.645-.817-2.285-.186-.436-1.627-4.5-1.709-4.772-.349-1.15-.65-2.316-1.043-3.45a4.618,4.618,0,0,0-.7-1.068.24.24,0,0,1-.042-.172c.237-1.735.6-3.465.666-5.206a90.337,90.337,0,0,0-.013-9.382,61.105,61.105,0,0,0-1.231-7.4,13.3,13.3,0,0,0-.865-2.606,6.673,6.673,0,0,0-.817-1.233.241.241,0,0,0-.261-.092h0a.238.238,0,0,0-.173.22,3.758,3.758,0,0,0,.012.836c.453,2.365.977,4.718,1.385,7.091a36.148,36.148,0,0,1,.284,9.361c-.5,5.62-2.112,10.972-3.541,16.375a85.432,85.432,0,0,0-2.366,11.755c-.193,1.625-.438,3.247-.554,4.879a42.7,42.7,0,0,0,1.846,14.571,109.4,109.4,0,0,0,4.98,13.742c1.086,2.528,2.23,5.031,3.341,7.549.457,1.035.442,1.28-.644,1.839-2.228,1.148-4.467,2.295-6.779,3.257a96.959,96.959,0,0,1-19.31,5.53,60.011,60.011,0,0,1-7.882.955c-3.9.213-7.819.381-11.717.226a78.012,78.012,0,0,1-9.745-1.178,98.805,98.805,0,0,1-17.167-4.63,50.521,50.521,0,0,1-9.442-4.39c-.166-.1-.318-.228-.533-.393a.24.24,0,0,1-.078-.276c.235-.616.444-1.236.722-1.823a145.313,145.313,0,0,0,7.1-17.583,61.7,61.7,0,0,0,2.7-12.559,38.853,38.853,0,0,0-.321-7.767,89.8,89.8,0,0,0-2.447-13.208c-1.093-4.4-2.305-8.773-3.191-13.213a34.045,34.045,0,0,1-.6-9.768,91.917,91.917,0,0,1,1.612-9.833c.088-.437.134-.883.2-1.435a.24.24,0,0,0-.369-.231,2.243,2.243,0,0,0-.935,1.376c-.66,2.415-1.368,4.828-1.808,7.287a56.4,56.4,0,0,0-.553,6.633Z" fill="#f87360"/>
        <path id="Path_38599" data-name="Path 38599" d="M82.246,105.679c.214,2.281.268,14.239,1.521,14.308,3.27.128,3.787.269,3.87,3.938A17.818,17.818,0,0,1,84.315,134.5a16.983,16.983,0,0,1-9.088,6.224c-6,1.469-12.3.188-16.61-4.391a14.8,14.8,0,0,1-3.643-13.379,3.623,3.623,0,0,1,3.617-3.234c.572-.11,1.693-11.488,2.127-13.612a10.16,10.16,0,0,1,2.741.744c1.593.658,3.063,1.547,4.753,1.65a21.075,21.075,0,0,0,6.542-.923,27.226,27.226,0,0,0,4.194-1.286A8.277,8.277,0,0,1,82.246,105.679Z" fill="#6e4539"/>
        <path id="Path_38600" data-name="Path 38600" d="M100.682,75.683a16.12,16.12,0,0,1,.338-2.057c.355-.558-.036-1.144-.358-.964.109-1.313.212-2.626.331-3.937.027-.3.144-.6.158-.9.072-1.544.068-1.549,1.438-1.971a4.778,4.778,0,0,1,5.763,2.742,11.755,11.755,0,0,1,.53,5.717,13.988,13.988,0,0,1-2.271,6.249,3.34,3.34,0,0,1-1.046.9c-1.5-.568-2.58-1.338-2.449-3.126-.128-2.041-.537-2.467-2.434-2.657m1.683-3.788" fill="#6e4438"/>
        <path id="Path_38601" data-name="Path 38601" d="M104.429,83.274c-.484-.264-1.851.181-1.371.8a3.417,3.417,0,0,1-2.914.17,71.5,71.5,0,0,1,.34-8.452c1.026-.107,1.983.274,2.185,1.119.052.216.357.372.545.556-.123,1.581,1.437,3.41,2.779,4A12.459,12.459,0,0,1,104.429,83.274Z" fill="#603b34"/>
        <path id="Path_38602" data-name="Path 38602" d="M100.6,73.163c.367-.225.673-.4.979-.567l.207.167c-.224.366-.448.732-.743,1.157A1.526,1.526,0,0,1,100.6,73.163Z" fill="#42241b"/>
        <path id="Path_38603" data-name="Path 38603" d="M39.836,66.236c.172.094.736.373.867.47.261,2.01-.036,3.769.177,5.824-.389-.078-.011,1.77.331,2.675-.834.533-.72,1.977-1.173,2.546-.349.438-1.428.162-1.581,1.014-.6,1.343-.746,2.727-2.068,3.349a10.312,10.312,0,0,1-3.563-4.829,13.406,13.406,0,0,1-.509-7.7,5.342,5.342,0,0,1,6.414-3.776,9.925,9.925,0,0,0,1.1.427m-.556,5.811" fill="#6e4438"/>
        <path id="Path_38604" data-name="Path 38604" d="M38.7,84.042c.228-.367-.05-.711.27-1.094.2-.244,0-.294-.093-.493-.108-.238.59-.444.269-.509-.848-.172-1.209.586-1.954.989-.311-.114-.685-.658-.944-.9,1.322-.731,1.475-2.166,2.1-3.428.256-.508.456-.918.673-1.319a1.706,1.706,0,0,1,1.636-.881c.448,1.289.116,2.624.24,3.916s.583,2.607.088,4C40.249,84.234,39.546,84.15,38.7,84.042Z" fill="#603b34"/>
        <path id="Path_38605" data-name="Path 38605" d="M76.1,72.045a6.38,6.38,0,0,1,.812-3.616c1.513-3.186,4.231-6.322,7.2-5.885a14.824,14.824,0,0,1,6.384,2.442,7.042,7.042,0,0,1,2.83,3.865,39.5,39.5,0,0,1-3.782-1.16,10.692,10.692,0,0,0-4.521-.677c-3.342.295-6.241,1.443-8.227,4.33A5.385,5.385,0,0,1,76.1,72.045Z" fill="#57362f"/>
        <path id="Path_38606" data-name="Path 38606" d="M48.6,69.4a4.219,4.219,0,0,1,1.151-2.776c1.629-1.917,3.925-2.695,6.295-3.34.648-.176,1.311-.292,2.02-.447,2.388-.891,5.309,2.444,6.813,5.158A6.286,6.286,0,0,1,65.85,72.1c-2.456-4.134-8.448-5.741-12.594-4.324C51.751,68.291,50.11,68.9,48.6,69.4Z" fill="#57362f"/>
        <path id="Path_38607" data-name="Path 38607" d="M95.1,59.533c.62.8,1.548,1.311,1.729,2.467a.163.163,0,0,1-.241.168c-1.614-.923-3.065-1.851-4.614-2.567a32.276,32.276,0,0,0-5.014-1.833,12.623,12.623,0,0,0-5.437-.5c-1.666.28-3.322.623-5.131.971a.164.164,0,0,1-.19-.2,5.4,5.4,0,0,1,2.632-3.569,8.739,8.739,0,0,1,6.3-.936,16.536,16.536,0,0,1,8.022,4.1c.653.573,1.248,1.211,1.94,1.893M81.715,56.564c1.295.053,2.6.012,3.882.18A22.59,22.59,0,0,1,92.684,59.1a2.415,2.415,0,0,0,.572.172.161.161,0,0,0,.185-.215,1.9,1.9,0,0,0-.623-.839,31.585,31.585,0,0,0-2.947-2.073c-2.625-1.531-5.409-2.505-8.51-1.879a5.306,5.306,0,0,0-3.784,2.586.163.163,0,0,0,.162.244c1.366-.194,2.553-.361,3.976-.529m12.4,3.048" fill="#0e0b09"/>
        <path id="Path_38608" data-name="Path 38608" d="M49.753,56.99a16.286,16.286,0,0,1,7.5-3.472c2.8-.412,5.412-.076,7.469,2.116a4.29,4.29,0,0,1,1.239,2.5.162.162,0,0,1-.2.179A22.288,22.288,0,0,0,58.823,57.2a19.2,19.2,0,0,0-7.01,1.638c-2.113.989-4.074,2.118-6.186,3.238a.272.272,0,0,1-.317-.148c-.1-.49.344-.856.668-1.194,1.2-1.254,2.456-2.456,3.775-3.739m2.677-.954A15.015,15.015,0,0,0,48.9,58.842a.161.161,0,0,0,.186.248,34.045,34.045,0,0,1,7.43-2.357,21.323,21.323,0,0,1,7.936.383.161.161,0,0,0,.171-.246,6.347,6.347,0,0,0-6-2.812,13.31,13.31,0,0,0-6.187,1.97Z" fill="#0e0b09"/>
        <path id="Path_38609" data-name="Path 38609" d="M64.98,84.715c-1.057-1.149-1.086-1.946.06-3.085a9.452,9.452,0,0,0,2.431-3.38,14.931,14.931,0,0,0,.958-3.754,24.848,24.848,0,0,0,.042-5.647,5.66,5.66,0,0,1,.863,3.252,31.285,31.285,0,0,1-.026,3.764,33.384,33.384,0,0,1-.739,3.553,29.771,29.771,0,0,1,3.831.422,4.331,4.331,0,0,1,3.473,3.128,1.459,1.459,0,0,1-.409,1.606,2.893,2.893,0,0,0-1.822-2.989,7.057,7.057,0,0,0-6.923-.151A2.761,2.761,0,0,0,65,84.582.6.6,0,0,1,64.98,84.715Z" fill="#42241b"/>
        <path id="Path_38610" data-name="Path 38610" d="M65.275,85a.487.487,0,0,1-.261-.222c-.034-.061-.028-.069-.024-.072a.405.405,0,0,1,.256.229C65.276,85,65.275,85,65.275,85Z" fill="#42241b"/>
        <path id="Path_38611" data-name="Path 38611" d="M65.276,85c.033.036.065.073.1.11a.212.212,0,0,1-.084-.073A.239.239,0,0,1,65.276,85Z" fill="#42241b"/>
        <path id="Path_38612" data-name="Path 38612" d="M81.578,56.565c-1.321.171-2.52.34-3.921.539a.122.122,0,0,1-.125-.179,5.306,5.306,0,0,1,3.828-2.662c3.1-.625,5.885.348,8.51,1.879a31.774,31.774,0,0,1,2.947,2.073,1.909,1.909,0,0,1,.637.874.141.141,0,0,1-.161.188,2.54,2.54,0,0,1-.609-.18A22.564,22.564,0,0,0,85.6,56.744C84.317,56.576,83.01,56.617,81.578,56.565Z" fill="#272c31"/>
        <path id="Path_38613" data-name="Path 38613" d="M63.53,96.025a1.008,1.008,0,0,1-.093-.129.22.22,0,0,1,.1.071C63.549,96,63.537,96.019,63.53,96.025Z" fill="#823e42"/>
        <path id="Path_38614" data-name="Path 38614" d="M52.53,55.983a13.079,13.079,0,0,1,6.1-1.924,6.345,6.345,0,0,1,6.036,2.871.133.133,0,0,1-.141.2,21.322,21.322,0,0,0-8.006-.4,34.907,34.907,0,0,0-7.582,2.416.114.114,0,0,1-.134-.172C49.745,57.658,51.177,56.936,52.53,55.983Z" fill="#272c31"/>
        <path id="Path_38615" data-name="Path 38615" d="M58.513,120.623c.012-.268.038-.632.1-1.113.41-3.24.755-6.173,1.108-9.156a.051.051,0,0,0-.022-.048c-9.448-6.137-16.521-13.867-18.486-25.394a.049.049,0,0,0-.055-.041,7.975,7.975,0,0,1-5.2-1.451l-.006,0a7.569,7.569,0,0,0-.785-.55.039.039,0,0,1-.01-.008A14.055,14.055,0,0,1,31.3,70.071a5.876,5.876,0,0,1,4.159-4.828l.007,0a6.342,6.342,0,0,1,.953-.143h.008l3.617.269a.052.052,0,0,0,.054-.061c-.161-.784-.332-1.5-.44-2.233a2.011,2.011,0,0,1,.2-.958v0c.285-.632.495-1.225.72-1.726a.05.05,0,0,1,.1.016c.4,3.343.9,6.564,1.1,9.8.244,3.787.215,7.592.329,11.388a29.287,29.287,0,0,0,2.706,11.431,38,38,0,0,0,12.065,14.417,40.554,40.554,0,0,0,9.785,5.481,11.111,11.111,0,0,0,8.115.261,34.949,34.949,0,0,0,3.8-1.507A39.339,39.339,0,0,0,95,96.341a27.821,27.821,0,0,0,3.082-7.632c1.147-3.76,1.2-7.538,1.305-11.446.238-3.323.376-6.519.706-9.695a58.879,58.879,0,0,1,1.1-6.011.05.05,0,0,1,.1-.006,15.075,15.075,0,0,1,.647,2.1.1.1,0,0,1,0,.017,14.61,14.61,0,0,0-.077,1.808.051.051,0,0,0,.068.048,7.323,7.323,0,0,1,4.326-.125h0a9.345,9.345,0,0,1,1.048.384c1.955,1.088,2.721,3.044,2.961,5.188a14.248,14.248,0,0,1-3.261,11l0,0c-.369.367-.6.625-.926.923a7.435,7.435,0,0,1-5.824,1.975.051.051,0,0,0-.055.039c-.143.605-.279,1.105-.377,1.613a32.516,32.516,0,0,1-6.388,13.945,38.808,38.808,0,0,1-9.33,8.766,2.486,2.486,0,0,0-1.282,2.62c.176,1.987.232,3.834.339,5.828.031.576.113,1.29.106,1.869,0,.128.025.617.039,1.075.006.8,0,1.291,0,1.9,0,.163-.14.071-.158.017-.719-2.235-.66-4.541-.957-6.93-.136-1.563-.283-3-.445-4.588a.051.051,0,0,0-.071-.041c-.531.226-.879.345-1.195.52a23.72,23.72,0,0,1-6.783,2.567,11.939,11.939,0,0,1-3.438.223,23.411,23.411,0,0,1-8.505-2.859,9.21,9.21,0,0,0-.961-.368.052.052,0,0,0-.069.04c-.256,1.828-.493,3.521-.784,5.316-.234,1.2-.356,2.3-.609,3.376a18.983,18.983,0,0,1-.8,3.3c-.125.327-.471.314-.421-.13l.407-2.346M101.968,72.61a5.032,5.032,0,0,0-1.122,2.788.041.041,0,0,0,.027.03c.6.3,1.492.364,1.961.963a1.931,1.931,0,0,1,.384,1.912.05.05,0,0,1-.093,0c-.1-.217-.212-1.2-1.008-1.494a2.4,2.4,0,0,0-1.349-.048.051.051,0,0,0-.042.047c-.107,2.345-.215,4.711-.328,7.209a.05.05,0,0,0,.051.053,5.566,5.566,0,0,0,4.738-2.08c.115-.144.937-.976,1.15-1.289a13.776,13.776,0,0,0,2.383-10.39c-.612-3.514-3.483-5.072-6.873-3.729a.053.053,0,0,0-.028.027c-.886,1.846-.768,3.978-.893,5.936a.051.051,0,0,0,.052.054,1.965,1.965,0,0,0,.593-.193,3.024,3.024,0,0,1,.546-.292c.1.025-.026.322-.149.494M38.353,78.176a7.648,7.648,0,0,1,.217-1.436,1.326,1.326,0,0,1,.459-.652,5.782,5.782,0,0,1,1.514-.69.051.051,0,0,0,.028-.033,1.947,1.947,0,0,0-.613-2.137,6.4,6.4,0,0,0-.679-.584c-.073-.065-.194-.126-.107-.313.051-.109.334-.06.478-.018s.643.1.966.137a.051.051,0,0,0,.058-.054c-.1-1.5-.211-2.928-.3-4.351-.077-1.295-.087-1.32-1.685-1.809h-.005a4.625,4.625,0,0,0-5.705,3.228,9.91,9.91,0,0,0-.216,5.468c.583,2.587,1.409,5.066,3.582,7.077a6.41,6.41,0,0,0,4.583,2.033.051.051,0,0,0,.054-.054c-.145-2.549-.281-4.93-.416-7.313a.052.052,0,0,0-.048-.048,1.508,1.508,0,0,0-1.588.775,6,6,0,0,1-.493.816A.05.05,0,0,1,38.353,78.176Z" fill="#42241b"/>
        <g id="Group_117440" data-name="Group 117440">
          <path id="Path_38616" data-name="Path 38616" d="M102.322,81.777a4.365,4.365,0,0,1,2.5,1.724,3.727,3.727,0,0,1,.58.969,16.65,16.65,0,0,1,1.31,7.483,10.4,10.4,0,0,1-1.311,5.127,4.6,4.6,0,0,1-3.471,2.207,4.74,4.74,0,0,1-3.5-2.409,6.928,6.928,0,0,1-.056-5.2,20.806,20.806,0,0,1,.253,2.857c.246,1.778,1.33,2.508,2.773,3.429a.984.984,0,0,0,1.185-.038,5.88,5.88,0,0,0,2.989-4.163,15.372,15.372,0,0,0-.168-6.877C105.141,85.667,102.653,82.979,102.322,81.777Z" fill="#a8874a"/>
          <path id="Path_38617" data-name="Path 38617" d="M104.452,83.874a13.884,13.884,0,0,1,1.149,3,15.413,15.413,0,0,1-.021,6.887,6.139,6.139,0,0,1-2.989,4.307.984.984,0,0,1-1.185.038c-1.444-.921-2.655-1.76-2.9-3.538-.1-.689-.136-1.02-.248-2.138a1.142,1.142,0,0,1,.01-.255c.484-2.224,1.369-5.16,1.922-7.228.009-.057.015-.083.121-.071.161.018.288.032.47.037.133,0,.028.394-.017.535a21.225,21.225,0,0,0-1.294,6.8,4.465,4.465,0,0,0,2.285,3.887.464.464,0,0,0,.411.045.7.7,0,0,0,.236-.124,3.444,3.444,0,0,0,.557-.6c2.305-3.4,2.175-6.955.661-10.589-.079-.189-1.71-2.014-2.08-2.435-.176-.2-.182-.574.066-.669C102.659,81.366,104.049,83.057,104.452,83.874Z" fill="#deb565"/>
          <path id="Path_38618" data-name="Path 38618" d="M101.6,84.9a17.358,17.358,0,0,0-1.186,7.311,3.15,3.15,0,0,0,1.29,2.6.26.26,0,0,0,.307-.019,4.858,4.858,0,0,0,1.523-2.992,17.965,17.965,0,0,0,.2-3.735,13.539,13.539,0,0,0-.387-2.269c-.353-1.463-1.579-2.811-1.576-3.1a6.967,6.967,0,0,1,1.849,2.173c1.514,3.635,1.644,7.192-.661,10.589a2.358,2.358,0,0,1-.677.705.653.653,0,0,1-.641-.047,4.506,4.506,0,0,1-2.171-3.872,19.872,19.872,0,0,1,1.311-7.335A7.061,7.061,0,0,0,101.6,84.9Z" fill="#a8874a"/>
        </g>
        <g id="Group_117441" data-name="Group 117441">
          <path id="Path_38619" data-name="Path 38619" d="M36.038,86.882a15.357,15.357,0,0,0-.168,6.877,5.884,5.884,0,0,0,2.989,4.163.984.984,0,0,0,1.185.038c1.444-.921,2.527-1.651,2.773-3.429a23.064,23.064,0,0,1,.216-3.015,6.781,6.781,0,0,1-.019,5.362,4.742,4.742,0,0,1-3.5,2.409,4.6,4.6,0,0,1-3.471-2.207,10.4,10.4,0,0,1-1.311-5.127,16.65,16.65,0,0,1,1.31-7.483,3.743,3.743,0,0,1,.58-.969,4.365,4.365,0,0,1,2.505-1.724C38.8,82.979,36.309,85.667,36.038,86.882Z" fill="#a8874a"/>
          <path id="Path_38620" data-name="Path 38620" d="M39.845,81.766c.249.094.242.469.066.669-.37.421-2,2.245-2.08,2.435-1.514,3.635-1.644,7.192.661,10.589a3.444,3.444,0,0,0,.557.6.719.719,0,0,0,.236.124.467.467,0,0,0,.411-.045,4.465,4.465,0,0,0,2.285-3.887,21.258,21.258,0,0,0-1.294-6.8c-.045-.141-.15-.531-.017-.535.182,0,.309-.019.47-.037.106-.012.112.014.121.071.553,2.068,1.438,5,1.922,7.228a1.088,1.088,0,0,1,.01.255c-.112,1.118-.153,1.449-.248,2.138-.246,1.778-1.457,2.618-2.9,3.538a.984.984,0,0,1-1.185-.038,6.135,6.135,0,0,1-2.989-4.307,15.413,15.413,0,0,1-.021-6.887,13.832,13.832,0,0,1,1.149-3C37.4,83.057,38.791,81.366,39.845,81.766Z" fill="#deb565"/>
          <path id="Path_38621" data-name="Path 38621" d="M40.67,84.911a19.851,19.851,0,0,1,1.311,7.335,4.5,4.5,0,0,1-2.171,3.872.653.653,0,0,1-.641.047,3.259,3.259,0,0,1-.917-.719c-2.305-3.4-1.936-6.94-.422-10.575A6.954,6.954,0,0,1,39.679,82.7c0,.285-1.223,1.634-1.576,3.1a13.54,13.54,0,0,0-.387,2.269,17.97,17.97,0,0,0,.2,3.735,4.858,4.858,0,0,0,1.523,2.992.258.258,0,0,0,.307.019,3.151,3.151,0,0,0,1.29-2.6A17.343,17.343,0,0,0,39.85,84.9,7.089,7.089,0,0,0,40.67,84.911Z" fill="#a8874a"/>
        </g>
        <g id="Group_117446" data-name="Group 117446">
          <g id="Group_117442" data-name="Group 117442">
            <path id="Path_38622" data-name="Path 38622" d="M75.994,72.34a11.546,11.546,0,0,0,9.289,3.381c5.61-.669,7.765-4.867,7.951-5.982a9.679,9.679,0,0,1-4.9,4.273c-3.492,1.375-6.985,1.746-11.889-1.858Z"/>
            <ellipse id="Ellipse_1101" data-name="Ellipse 1101" cx="4.845" cy="4.357" rx="4.845" ry="4.357" transform="translate(79.907 66.833)"/>
            <ellipse id="Ellipse_1102" data-name="Ellipse 1102" cx="4.24" cy="3.814" rx="4.24" ry="3.814" transform="translate(80.446 67.418)" fill="#22211e"/>
            <path id="Path_38623" data-name="Path 38623" d="M81.7,70.034a1.087,1.087,0,0,1,.955-.929c1.066-.213.966.952.668,1.506s-.739.867-1.25.455A.987.987,0,0,1,81.7,70.034Z" fill="#fafcfc"/>
            <path id="Path_38624" data-name="Path 38624" d="M97.023,68.661s-1.858,1.635-6.576.669-6.836-1.152-10.663.632-3.344,2.192-3.344,2.192l-.446.186s.98-4.331,6.928-5.605c4.954-1.062,7.894,1.554,10.12,1.944A15.027,15.027,0,0,0,97.023,68.661Z"/>
          </g>
          <g id="Group_117443" data-name="Group 117443">
            <path id="Path_38625" data-name="Path 38625" d="M65.936,72.34a11.546,11.546,0,0,1-9.289,3.381c-5.61-.669-7.765-4.867-7.951-5.982a9.679,9.679,0,0,0,4.9,4.273c3.492,1.375,6.985,1.746,11.889-1.858Z"/>
            <ellipse id="Ellipse_1103" data-name="Ellipse 1103" cx="4.845" cy="4.357" rx="4.845" ry="4.357" transform="translate(52.333 66.833)"/>
            <ellipse id="Ellipse_1104" data-name="Ellipse 1104" cx="4.24" cy="3.814" rx="4.24" ry="3.814" transform="translate(53.004 67.418)" fill="#22211e"/>
            <path id="Path_38626" data-name="Path 38626" d="M54.151,70.034a1.087,1.087,0,0,1,.955-.929c1.066-.213.966.952.668,1.506s-.739.867-1.25.455A.985.985,0,0,1,54.151,70.034Z" fill="#fafcfc"/>
            <path id="Path_38627" data-name="Path 38627" d="M44.907,68.661s1.858,1.635,6.576.669,6.836-1.152,10.663.632,3.344,2.192,3.344,2.192l.446.186s-.991-3.99-6.911-5.387c-4.9-1.156-7.238,1.035-10.137,1.726A11.347,11.347,0,0,1,44.907,68.661Z"/>
          </g>
          <g id="Group_117445" data-name="Group 117445">
            <g id="Group_117444" data-name="Group 117444">
              <path id="Path_38628" data-name="Path 38628" d="M76.071,72.34a9.8,9.8,0,0,1,2.443-7.276c2.614-2.855,3.641-2.5,6.177-4.653,0,0-2.013,2.113-4.971,4.716C76.687,67.8,76.071,72.34,76.071,72.34Z" fill="#4a2d26"/>
              <path id="Path_38629" data-name="Path 38629" d="M93.31,68.679s-.413-3.046-4.624-5.021a12.755,12.755,0,0,0-6.408-1.388l-1.132.889a12.442,12.442,0,0,1,7.594,1.247C92.906,66.435,93.31,68.679,93.31,68.679Z" fill="#4a2d26"/>
            </g>
          </g>
          <path id="Path_38630" data-name="Path 38630" d="M65.971,72.34a9.919,9.919,0,0,0-2.443-7.276c-2.074-2.295-3.076-1.661-6.177-4.653a4.409,4.409,0,0,0,1.28,1.772c1.016.909,2.945,2.062,4.04,3.377A21.814,21.814,0,0,1,65.971,72.34Z" fill="#4a2d26"/>
          <path id="Path_38631" data-name="Path 38631" d="M48.6,68.752a8.594,8.594,0,0,1,5.054-5.308,12.1,12.1,0,0,1,5.967-1.03l.833.542a15.717,15.717,0,0,0-7.05,1.279C49.157,66.092,48.6,68.752,48.6,68.752Z" fill="#4a2d26"/>
        </g>
        <g id="Group_117447" data-name="Group 117447">
          <path id="Path_38632" data-name="Path 38632" d="M60.929,93.841a4.763,4.763,0,0,0,5.271-.474c2.433-1.983,3.636-1.574,4.565-1.627a7.173,7.173,0,0,1,3.823,1.14c1.388.857,2.856,2.1,5.053,1.305a21.808,21.808,0,0,0-1.978,2.447A9.153,9.153,0,0,1,75.5,99.506a8.585,8.585,0,0,1-4.555,1.131c-1-.027-3.908.225-5.784-2.1A40.139,40.139,0,0,0,60.929,93.841Z" fill="#854044"/>
          <path id="Path_38633" data-name="Path 38633" d="M60.587,93.6A12.549,12.549,0,0,1,63.8,97.088a8.347,8.347,0,0,0,7.1,3.842,6.679,6.679,0,0,0,5.9-2.653c1.785-2.379,1.923-3.14,2.743-4.135,0,0-2.462,3.4-3.94,4.374a8.3,8.3,0,0,1-4.7,1.394,7.739,7.739,0,0,1-6.387-2.765A21.274,21.274,0,0,0,60.587,93.6Z" fill="#321a1a"/>
          <path id="Path_38634" data-name="Path 38634" d="M61.307,93.925a4.563,4.563,0,0,0,4.893-.846A5.351,5.351,0,0,1,70.765,91.6a7.173,7.173,0,0,1,3.823,1.14,8.6,8.6,0,0,0,5.053,1.594,24.356,24.356,0,0,1-9.121,2.131A20.567,20.567,0,0,1,61.307,93.925Z" fill="#683034"/>
          <path id="Path_38635" data-name="Path 38635" d="M59.025,92.391A17.93,17.93,0,0,0,82.9,92a21.7,21.7,0,0,1-12.286,3.868C63.187,95.928,59.025,92.391,59.025,92.391Z" fill="#321a1a"/>
          <path id="Path_38636" data-name="Path 38636" d="M63.318,94.329a9.446,9.446,0,0,0,3.8-2.024,5.658,5.658,0,0,1,5.934-.673,31.913,31.913,0,0,0,4.669,2.5,11.818,11.818,0,0,1-2.605-.914,11.716,11.716,0,0,0-4.339-1.19C67.479,92.027,66.968,93.869,63.318,94.329Z" fill="#321a1a"/>
        </g>
        <path id="Path_38637" data-name="Path 38637" d="M113.726,239.757c-.6.328-1.129.58-1.826.93-2.162,1.068-4.118,2.133-6.161,2.99a87.973,87.973,0,0,1-29.862,6.331,97.831,97.831,0,0,1-23.622-1.682,72.462,72.462,0,0,1-20.506-6.891c-.807-.429-1.619-.848-2.429-1.272-.409-.27-.818-.54-1.319-.82-.666-.588-.356-1.144-.074-1.724a150.537,150.537,0,0,0,6.511-15.458,74.2,74.2,0,0,0,3.491-13.414,32.345,32.345,0,0,0-.32-10.347c-.306-1.852-.676-3.694-1.035-5.766-.22-1.321-.22-1.321-1.567-1.406-1.7-.222-3.278-.387-4.844-.621a33.5,33.5,0,0,1-17.7-7.952c-.495-.514-.952-.941-1.409-1.369-1.3-1.738-2.59-3.479-3.895-5.212a1.541,1.541,0,0,1-.039-1.862A282.983,282.983,0,0,0,21.536,142.13c.368-.944.658-1.918,1.039-2.856a14.889,14.889,0,0,1,5.979-7.263c3.611-2.231,7.245-4.456,11.024-6.379A63.3,63.3,0,0,1,58.6,119.586c-.047.42-.07.664-.092,1.035-2.3.249-2.616.447-3.046,2.357a13.444,13.444,0,0,0,3.568,12.687c4.311,4.579,9.812,5.658,15.807,4.189a15.026,15.026,0,0,0,8.678-5.632c2.132-2.836,3.609-5.916,3.527-9.568-.083-3.669-.476-3.779-3.749-4.15-.026-.448-.03-.775-.035-1.1a70.167,70.167,0,0,1,18.2,5.617,85.317,85.317,0,0,1,12.169,6.99,16,16,0,0,1,6.259,8.026c2.084,5.955,4.542,11.758,7.109,17.515,1.825,4.093,3.733,8.148,5.654,12.2.708,1.491,1.515,2.931,2.334,4.365a1.734,1.734,0,0,1-.067,2.128c-1.287,1.686-2.568,3.378-3.989,5.181-.51.429-.881.744-1.341,1.1a30.018,30.018,0,0,1-11.426,6.659,52.661,52.661,0,0,1-11.258,2.062c-1.206.2-1.206.2-1.285,1.688a71.918,71.918,0,0,0-1.522,10.726,40.022,40.022,0,0,0,1.673,12,125.764,125.764,0,0,0,7.738,20.274c.287.612.571,1.226.841,1.845.444,1.027.427,1.069-.63,1.988m-83.341-50.29a23.453,23.453,0,0,0,5.866.94c-.651-2.26-1.219-4.394-1.882-6.5a61.608,61.608,0,0,1-3.03-16.173c0-.31.038-1.347.008-1.761.192-2.158.234-4.343.615-6.467.44-2.459,1.148-4.873,1.808-7.287a2.227,2.227,0,0,1,1.364-1.6c-.1.777-.151,1.342-.261,1.894a92,92,0,0,0-1.612,9.833,34.04,34.04,0,0,0,.6,9.768c.886,4.44,2.1,8.815,3.191,13.213A89.8,89.8,0,0,1,39.5,198.533a38.853,38.853,0,0,1,.321,7.767,61.634,61.634,0,0,1-2.7,12.559,145.378,145.378,0,0,1-7.1,17.583c-.3.641-.524,1.321-.786,1.991.3.221.475.378.676.5a50.492,50.492,0,0,0,9.442,4.39,98.831,98.831,0,0,0,17.167,4.63,78.01,78.01,0,0,0,9.745,1.178c3.9.155,7.817-.013,11.717-.226a60.011,60.011,0,0,0,7.882-.955,97.045,97.045,0,0,0,19.31-5.53c2.312-.962,4.55-2.109,6.779-3.257,1.085-.559,1.1-.8.644-1.839-1.111-2.518-2.255-5.02-3.341-7.549a109.453,109.453,0,0,1-4.98-13.742,42.7,42.7,0,0,1-1.846-14.571c.116-1.631.361-3.253.554-4.879a85.433,85.433,0,0,1,2.366-11.755c1.428-5.4,3.046-10.754,3.541-16.375a36.1,36.1,0,0,0-.284-9.361c-.408-2.373-.932-4.725-1.385-7.091a5.465,5.465,0,0,1-.009-1.008l.332-.1a8.414,8.414,0,0,1,.915,1.371,13.258,13.258,0,0,1,.865,2.606,60.879,60.879,0,0,1,1.231,7.4,90.9,90.9,0,0,1,.013,9.382,36.526,36.526,0,0,1-.81,5.46q-1.748,6.237-3.488,12.476a4.118,4.118,0,0,0-.009.939c1.684-.3,3.243-.513,4.772-.862,1.108-.253,2.175-.684,3.487-1.066a39.781,39.781,0,0,0,15.2-7.823A19.006,19.006,0,0,0,133.68,176a1.515,1.515,0,0,0,.015-1.752c-.519-.813-.994-1.655-1.475-2.492A124.661,124.661,0,0,1,124.5,156.2c-2.068-5.149-3.924-10.384-5.815-15.6a15.028,15.028,0,0,0-6.13-8,91.136,91.136,0,0,0-11.641-6.457,77.207,77.207,0,0,0-11.872-4.167,2.572,2.572,0,0,0-.587-.056.392.392,0,0,0-.393.452,14.12,14.12,0,0,1,.176,4.794,17.458,17.458,0,0,1-5.959,10.621,17.765,17.765,0,0,1-16.257,3.806c-8.33-1.89-14.165-10.473-11.854-18.786a1.424,1.424,0,0,0,.026-.474.5.5,0,0,0-.3-.429.186.186,0,0,0-.088-.017,6.067,6.067,0,0,0-.847.144,61.294,61.294,0,0,0-12.232,4.432c-3.453,1.722-6.774,3.706-10.166,5.55a15.487,15.487,0,0,0-7.238,9.049c-1.076,3.1-2.163,6.2-3.294,9.282A138.035,138.035,0,0,1,8.8,173.666a2.435,2.435,0,0,0,.06,3.007,23.926,23.926,0,0,0,7.435,6.986A52.229,52.229,0,0,0,30.385,189.467Z" fill="#b3443e"/>
        <path id="Path_38638" data-name="Path 38638" d="M40.837,40.226l-2.616-.173-2.627-1.521-2.973,1.486-2.662-.795-1-2.385,2.143-1.97,1.97-1.313-.138-1.571-1.763-2.646-.207-1.59-4.355-1.383.622-2.523L31.066,22.6l-.83-2.385,2.109-2.662,2.42.277,3.042,3.56,1.728-1.728L37.91,18.243,37.7,16.307l2.489-1.936L38.754,12.09l.781-1.936,2.005-.8,2.593.8,1.106,2.039,2.7-2.178,3.6.691.484-.8L51.15,8.147l1.279-1.97,3.353-.242V4.518L55.54,1.579,57.2-.115l2.869.968,1.694,3.042.449,1.244,1.867-.277-.864-2.109.553-2.869,1.452-1.106L63.94-3.158l1.452-1.8,1.867-.207,1.659.277L69.99-7.375l2.178-1.072,2.42.8,1.175,2.489-.138,3.146,3.906-.069L81.847.576V2.892L80.637,6.21l2.973.277L86.2,8.765l2.7-1.034,3.007.38.553-2.558,1.348-2.316,2.039-1.59,2.039-.207,1.763,1.59V5.97L97.885,9.842l2.281-.311,2.385,1.8v1.832l-.452,2.213.33.463,1.458-.211,3.32-1.862,2.146,1.255,2.2,2.566,2.776.34,3.745,3.849-.916,2.409-2.461,1.65-3.666.838-.079,2.173-1.021,1.362,2.7,2.357,1.257,3.666-1.65,2.226-1.964.131-2.8-2.016L106.4,37.617l.89,1.807-.052,2.409L105.9,43.718l-1.807-.34-1.074.209,1.283,4.949.419,4.949-.288,4.085a10.117,10.117,0,0,1-2.493,6.1s.205,1.474-.27,2.06a2.172,2.172,0,0,1-2.506.97,2.2,2.2,0,0,1-1.434-1.837c0-.707.445-3.43.445-3.43l-.655-1.466-.052-1.885,1.44-2.461L96.968,54.6,96,53.025l.628-2.776.226-1.152-3.107-.1L91.181,47.63l-.209-2.619.524-1.466-2.959-.393-2.035-1.1-1.027-3.875-2.332.314-2.383-.943-1.388-2.619-1.6,1.021-2.016.236L74.03,34.93l-.445-1.99-2.1,3.247-3.273.707-2.488-.969-2.042-1.859-.759,2.383L61.121,38.6l-1.623.445-3.483-.314.262,1.99-.707,2.3-2.2,1.885-3.561-.628L49.2,47.971l-1.67,1.7-3.483.759L45.3,52.71l-.389,2.278-2.357,2.357,1.466,2.3-.079,1.733-1.623,1.885s2.324,2.315-.016,3.632-3.729-4.235-3.951-8.071-.51-7.711-.091-9.728S40.837,40.226,40.837,40.226Z" fill="#272c31"/>
        <path id="Path_38639" data-name="Path 38639" d="M32.4,34.005a8.022,8.022,0,0,0-1.388,1.331c-.936,1.122-1.4,2.188-.936,3.02a2.885,2.885,0,0,0,1.654,1.111c1.433.164,2.212-.577,3.341-1.376.264-.187.533-.366.845-.58.205.233.671.822.762.932a3.142,3.142,0,0,0,5.092-.122,50.47,50.47,0,0,1,2.983-4.24,2.912,2.912,0,0,0,.825-2.056,3.236,3.236,0,0,1,.306-2.349,3.942,3.942,0,0,0,.987,2c1.48-1.108,2.922-2.219,4.4-3.278a1.186,1.186,0,0,0,.6-1.458,2.836,2.836,0,0,1,.582-2.779.128.128,0,0,1,.23.091c-.052.4-.143.811-.159,1.229a2.63,2.63,0,0,0,.121,1.312.46.46,0,0,0,.587.275,3.294,3.294,0,0,0,.425-.18,38.125,38.125,0,0,1,12.679-4.264,16.826,16.826,0,0,1,2.408-.245,1.635,1.635,0,0,1,.9.246.177.177,0,0,1,.1.165h0a.241.241,0,0,1-.184.23,17.4,17.4,0,0,1-1.983.448,40.061,40.061,0,0,0-8.552,2.049,31.9,31.9,0,0,0-13.59,9.021,29.329,29.329,0,0,0-6.855,14.906,42.531,42.531,0,0,0-.208,9.049,45.3,45.3,0,0,0,1.4,6.858c-.782-.858-1.967-6.187-2.015-6.715a37.481,37.481,0,0,1-.3-5.315A30.884,30.884,0,0,1,39.528,42.77c.182-.432.293-.893.469-1.44-.562-.161-1.031-.254-1.467-.429a5.75,5.75,0,0,1-1.762-.855,1.6,1.6,0,0,0-2.083-.251,4.548,4.548,0,0,1-2.934.726c-.164-.028-2.853-.446-3.084-2.879C28.444,35.291,31.753,34.2,32.4,34.005Z" fill="#0b0909"/>
        <path id="Path_38640" data-name="Path 38640" d="M42.331,20.04c-.386,0-.774.008-1.159-.017a2.883,2.883,0,0,0-2.419.852,5.991,5.991,0,0,0-1.005,1.831h0c-.334-.469-.492-.849-.734-1.179-.652-.887-1.283-1.794-2-2.624A1.842,1.842,0,0,0,32.7,18.24a2.561,2.561,0,0,0-1.635,2.195,4.693,4.693,0,0,0,.916,3.026h0a6.646,6.646,0,0,1-1.3.138c-.624.047-1.237.15-1.861.2h0a1.613,1.613,0,0,0-1.142,2.6.989.989,0,0,0,.4.263,5.666,5.666,0,0,0,1.625.42,17.468,17.468,0,0,0,2.074.153h0a4.247,4.247,0,0,0,.475,3.213c.4.8,1.257,1,2.419.789a29.649,29.649,0,0,1,3.411-.469c.881-.053,1.052.145,1.529,1h0a29.788,29.788,0,0,0-3.14-.124c-1.369.082-2.694.383-3.394,1.918h0a1.127,1.127,0,0,1-.4-.513c-.142-.376-.11-.912-.365-1.133a4.428,4.428,0,0,1-1.612-3.58h0c-.917-.172-1.762-.306-2.595-.493-.942-.212-2.046-.353-2.31-1.787a2.694,2.694,0,0,1,1.127-2.908,8.54,8.54,0,0,1,1.714-.488c1.217-.4,1.309-.383,1.238-1.553a4.283,4.283,0,0,1,1.1-3.392,3.2,3.2,0,0,1,4.38.1,25.762,25.762,0,0,1,1.744,2.15c.282.342.675.827,1.172.435.515-.406.249-.827-.09-1.239-1.481-1.8-1.151-3.525.116-4.475a2.713,2.713,0,0,1,1-.471h0a9.912,9.912,0,0,1-.586-1.073A3.048,3.048,0,0,1,40.828,8.87a4.149,4.149,0,0,1,2.859.389,3.31,3.31,0,0,1,1.554,1.752h0c1.331-1.924,4.448-2.146,6.545,0h0a1.68,1.68,0,0,1-.577.886h0a3.675,3.675,0,0,0-5.5.048c-.288.357-.567.721-1,1.269h0c-.23-.626-.346-1.018-.514-1.387a2.741,2.741,0,0,0-3.518-1.653,1.912,1.912,0,0,0-.648,3.117c.545.576,1.171,1.074,1.879,1.714h0a7.929,7.929,0,0,0-2.544.618,2.068,2.068,0,0,0-1.043,2.015,2.111,2.111,0,0,0,2.1,1.792,15.56,15.56,0,0,1,2.074.351h0A.306.306,0,0,1,42.331,20.04Z" fill="#080706"/>
        <path id="Path_38641" data-name="Path 38641" d="M98.215,66.008c-.539-.129-.6-.97-.635-1.377a3.2,3.2,0,0,1,.063-1.068,6.837,6.837,0,0,0,.325-1.024,1.593,1.593,0,0,0-.121-1.06,4.186,4.186,0,0,1-.281-5c.071-.126.165-.238.238-.364a3.784,3.784,0,0,0,.152-.368c-2.6-1.256-3.115-3.3-1.822-6.022a11.171,11.171,0,0,1-1.749-.109,8.358,8.358,0,0,1-2.3-.75,3.12,3.12,0,0,1-1.43-3.757c.1-.362.227-.716.368-1.155-1.466-.261-2.951.113-4.186-.986-1.216-1.081-1.2-2.565-1.625-4a5.563,5.563,0,0,1-3.69-.316,4.373,4.373,0,0,1-2.224-3.028c-2.264,1.368-4.286,1.57-5.821-1.159a5.347,5.347,0,0,1-4.6,2.85,5.874,5.874,0,0,1-4.841-2.169c-.693,1.523-1.239,2.978-2.677,3.781a5.636,5.636,0,0,1-4.476.443c.02,1.96-.268,3.646-1.757,4.854a4.781,4.781,0,0,1-4.891.827c0,3.448-1.636,5.411-5.218,5.632.484,1.319,1.034,2.452.695,3.753a6.132,6.132,0,0,1-2.206,2.892c1.615,3.418,1.561,3.848-.714,5.846a2.453,2.453,0,0,1,.515,2.613c.05-1.543-1.044-2.332-2.472-3.112a7.433,7.433,0,0,1,.93-.292,2.012,2.012,0,0,0,1.615-3.159,8.657,8.657,0,0,0-1.2-1.422c-.233-.263-.489-.5-.875-.9.525-.192.822-.3,1.12-.408A3.118,3.118,0,0,0,44.3,51.741c-.2-.382-.5-.71-.719-1.08a9.942,9.942,0,0,1-.428-.956c.764-.036,1.363-.087,1.961-.09,3.027-.016,4.575-1.929,3.989-4.927-.117-.6-.193-1.209-.282-1.774.525-.4.762-.083,1.022.223a3.231,3.231,0,0,0,5.571-.954,4.439,4.439,0,0,0,.047-3.253,3.783,3.783,0,0,1-.1-.931,6.552,6.552,0,0,1,1.053.079c.561.13,1.1.4,1.661.483,2.806.434,4.2-1.3,4.845-3.335.213-.671.33-1.372.482-2.017.736-.133.788.411,1.01.742a4.978,4.978,0,0,0,5.821,2.063A3.857,3.857,0,0,0,72.83,33.49c.179-.511.407-1.006.613-1.508l.321.041c.148.527.284,1.057.445,1.579.726,2.342,2.562,2.871,4.466,1.3.312-.257.649-.484,1.161-.862.3,1.709.511,3.313,2.177,3.832a5.784,5.784,0,0,0,4.385-.594c.025.852.05,1.412.055,1.972.025,2.614,1.258,3.8,3.886,3.674.75-.036,1.494-.186,2.261-.287.223.746-.315,1.074-.5,1.534a5.91,5.91,0,0,0-.635,2.161,2.634,2.634,0,0,0,2.659,2.386c.72.062,1.449.01,2.174.021.42.006.839.036,1.522.067a13.477,13.477,0,0,0-.747,1.384,7.163,7.163,0,0,0-.686,2.173,2.532,2.532,0,0,0,2.259,2.45c.472.1.993.064,1.1.825-.228.215-.5.465-.768.728a3.853,3.853,0,0,0-1.224,3.13c.089,1.234.456,1.533,1.647,1.319.262-.047.529-.063.859-.1-.028.771-.619.9-1,1.223A3.908,3.908,0,0,0,98.215,66.008Z" fill="#0e0b09"/>
        <path id="Path_38642" data-name="Path 38642" d="M51.412,9.9a2.317,2.317,0,0,1-.4-2.56,3.01,3.01,0,0,1,1.808-1.725,4.921,4.921,0,0,1,2.2-.053.231.231,0,0,0,.275-.282,8.684,8.684,0,0,1-.279-2.052c-.009-4.719,2.643-5.694,5.716-2.112A5.528,5.528,0,0,1,61.681,2.7c.141.356.553,1.455.718,1.9a.232.232,0,0,0,.269.144c.109-.025.249-.06.387-.105a.234.234,0,0,0,.143-.317c-1.1-2.54-.695-4.474,1.221-5.386a.231.231,0,0,0,.092-.339c-.123-.179-.287-.4-.343-.473-.5-.68-.9-1.413-.354-2.239a3.2,3.2,0,0,1,3.165-1.636c.251.032.5.081.746.126a.234.234,0,0,0,.262-.158c.856-2.588,2.471-3.908,4.883-3.44,3.255.631,3.647,3.143,3.283,5.8a.233.233,0,0,0,.21.265,21.738,21.738,0,0,1,2.94.3A4.276,4.276,0,0,1,82.4,1.05a6.653,6.653,0,0,1-.746,3.635,5.7,5.7,0,0,0-.35.907.233.233,0,0,0,.17.3,12.684,12.684,0,0,1,2.655.351c.808.387,1.25,1.247,2.014,1.85a.39.39,0,0,0,.583.044,4.435,4.435,0,0,1,1.7-.883,3.8,3.8,0,0,1,2.009.129c.94.257,1,.142,1.263-.87a9.111,9.111,0,0,1,2.859-4.6A3.5,3.5,0,0,1,98.7,1.48a3.634,3.634,0,0,1,1.524,3.766c-.135.607-.294,1.21-.471,1.807-.14.473-.308.938-.488,1.463a.233.233,0,0,0,.158.3,5.842,5.842,0,0,0,.694.17,3.494,3.494,0,0,1,2.907,4.684c-.171.519-.351,1.035-.591,1.594a.232.232,0,0,1-.329.108c-.556-.321-1.093-.625-.638-1.514a2.362,2.362,0,0,0-.314-3.055,2.711,2.711,0,0,0-3.112-.361c-.33.139-.659.28-.994.424a.235.235,0,0,1-.3-.113.9.9,0,0,1,.2-1.055,11.347,11.347,0,0,0,.932-1.29,7.285,7.285,0,0,0,1.35-4.354,2.226,2.226,0,0,0-2.048-2.047c-1.586-.168-2.5.805-3.364,1.886A8.822,8.822,0,0,0,92.2,8.545a.233.233,0,0,1-.3.194,3.731,3.731,0,0,1-.6-.223,3.5,3.5,0,0,0-3.06.129A2.61,2.61,0,0,0,87.194,13a4.977,4.977,0,0,1,.753.872,1.011,1.011,0,0,1,.01.89,1.035,1.035,0,0,1-.879.14,3.148,3.148,0,0,1-.846-.545,5.638,5.638,0,0,0-6.29-.22,3.281,3.281,0,0,0-1.253,4.391c.127.239.228.492.336.755a.232.232,0,0,1-.167.316c-2.366.491-3.062,1.147-2.97,2.76a.231.231,0,0,0,.146.2c.158.062.329.132.5.183a5.468,5.468,0,0,0,.705.154A35.188,35.188,0,0,1,93.8,30.4c.589.46,2.379,2.073,2.726,2.43a48.226,48.226,0,0,1,5.87,8.037,3.674,3.674,0,0,0,2.807,2.063c.852.059,1.427-.274,1.5-1.021a5.294,5.294,0,0,0-.383-3.4.236.236,0,0,0-.162-.106c-2.537-.4-3.805-1.349-3.9-2.93a.233.233,0,0,1,.437-.121l0,.007a3.582,3.582,0,0,0,2.412,1.711c.845.2,1.287-.45,1.735-1.016a.653.653,0,0,1,.118-.117c.561-.42,1.182-.369,1.434.294a2.621,2.621,0,0,0,2.1,1.616,1.913,1.913,0,0,0,2.518-2.394,5.7,5.7,0,0,0-.665-1.806,8.088,8.088,0,0,0-8.374-3.577,1.115,1.115,0,0,1-.295.013.233.233,0,0,1-.091-.441.747.747,0,0,1,.114-.045,9.68,9.68,0,0,1,4.72-.095c1.509.3,2.416-.659,2.052-2.174a5.187,5.187,0,0,0-.324-.843.233.233,0,0,1,.2-.326c.4-.018.737-.027,1.069-.073,1.946-.269,3.794-.755,5.129-2.364a2.008,2.008,0,0,0,.32-2.4,6,6,0,0,0-9.5-1.241c-.229.258-.5.576-.927.372a.233.233,0,0,1-.1-.338,6.3,6.3,0,0,1,3.063-2.407c.9-.353.988-.706.511-1.534a2.756,2.756,0,0,0-3.242-1.3,5.258,5.258,0,0,0-3.21,2.076,2.241,2.241,0,0,1-.47.461.233.233,0,0,1-.377-.149c-.075-.542-.137-.992-.2-1.433a.23.23,0,0,1,.132-.242c.41-.19.826-.37,1.223-.584a22.847,22.847,0,0,1,2.5-1.371c2.289-.879,4.056.55,4.864,2.234a1.917,1.917,0,0,0,1.94,1.284,6.01,6.01,0,0,1,4.858,3.023c1.311,2.071.567,4.089-1.832,5.393a23.152,23.152,0,0,1-4.352,1.4.23.23,0,0,0-.164.191,7.736,7.736,0,0,1-.015,1.414c-.1.362-.593.681-.678,1.061a1.065,1.065,0,0,0,.316.752,5.952,5.952,0,0,0,.893.725,5.745,5.745,0,0,1,2.475,4.971,3.082,3.082,0,0,1-3.882,2.974,4.953,4.953,0,0,1-2.9-1.682.237.237,0,0,0-.279-.078c-.491.2-.4.556-.2.945a6.328,6.328,0,0,1,.61,3.088c-.061,2.181-1.086,3.051-3.252,2.686-.208-.035-.416-.076-.69-.129a.233.233,0,0,0-.277.236,3.16,3.16,0,0,0,.07.721,37.78,37.78,0,0,1,1.185,7.832,35.874,35.874,0,0,1-.346,5.453,12.807,12.807,0,0,1-1.182,3.831,6.513,6.513,0,0,1-1.5,1.7c-.037-.038.961-1.272,1.248-1.814a11.259,11.259,0,0,0,.923-3.754,30.163,30.163,0,0,0-2.673-17.008,30.472,30.472,0,0,0-11.9-12.722,35,35,0,0,0-12-4.493c-.993-.181-2.007-.242-3.007-.388a7.559,7.559,0,0,1-1.025-.3c-.138-.113-.147-.246,0-.317l1.245-.362a.23.23,0,0,0,.154-.145,8.134,8.134,0,0,1,.849-2.137,7.879,7.879,0,0,1,1.847-1.4.23.23,0,0,0,.094-.145.846.846,0,0,0,.011-.314,4.619,4.619,0,0,1,3.964-5.89c.95-.17,1.923-.213,2.927-.305a.233.233,0,0,0,.209-.26,4.206,4.206,0,0,1-.108-1.743c.145-.772.815-1.036.7-1.222-.712-1.189-1.548-2.278-3.1-2.283a18.394,18.394,0,0,0-2.312.226.232.232,0,0,1-.243-.324,6.59,6.59,0,0,1,.391-.709A6.062,6.062,0,0,0,80.929.618,2.772,2.772,0,0,0,78.4-1.623,3.484,3.484,0,0,0,75.1-.236c-.395.588-.772,1.189-1.138,1.759a.232.232,0,0,1-.241.1A.6.6,0,0,1,73.23.713a6.287,6.287,0,0,1,1.04-2.194,3.22,3.22,0,0,0,.867-2.767,4.381,4.381,0,0,0-1.066-2.778,2.106,2.106,0,0,0-3.206-.141c-.858.821-1.521,1.773-1.029,3.083a.424.424,0,0,1,0,.223.233.233,0,0,1-.347.154c-.212-.126-.4-.236-.581-.348a3.3,3.3,0,0,0-3.037-.354,1.432,1.432,0,0,0-.907,2.266,7.741,7.741,0,0,0,.7,1.02.233.233,0,0,1-.032.313C64.858-.12,63.809.531,63.8,1.9A4.365,4.365,0,0,0,64.69,4.87a.231.231,0,0,1-.135.371L61.878,5.8a.233.233,0,0,1-.277-.185,10.359,10.359,0,0,0-.414-1.821,8.154,8.154,0,0,0-1.15-2.136,2.172,2.172,0,0,0-2.995-.4,3.012,3.012,0,0,0-.792,2.612,6.1,6.1,0,0,0,.731,3.047,2.107,2.107,0,0,0,.68.658.231.231,0,0,1,.073.339c-.064.092-.141.194-.212.285a.233.233,0,0,1-.35.017c-.6-.618-.522-.56-.769-.822-1.051-1.115-3.065-1.45-4.11-.573a1.778,1.778,0,0,0,.378,2.929,16.132,16.132,0,0,0,2.1.928A.232.232,0,0,1,54.9,11a.463.463,0,0,0-.036.1.23.23,0,0,1-.3.161,3.531,3.531,0,0,0-1.826-.289,1.3,1.3,0,0,0-1.216,1.07c-.237.922-.006,2.347,1.873,3.178.167.074.331.152.495.231-.035.365-.036.373-.071.738l-.283.074a3.218,3.218,0,0,0-2.469,2.843,2.76,2.76,0,0,0,2.382,2.658c.367.1.733.2,1.209.33a.232.232,0,0,1,.047.429c-.35.186-.653.346-.971.511a.23.23,0,0,1-.326-.128.844.844,0,0,0-.543-.569.223.223,0,0,0-.044-.013c-2.265-.465-2.889-1.764-2.834-3.021a3.886,3.886,0,0,1,1.451-2.849.232.232,0,0,0-.138-.419,4.089,4.089,0,0,0-1.929.616.232.232,0,0,1-.3-.333c.485-.714,1.244-.742,1.989-1.236a.232.232,0,0,0,.035-.357,2.82,2.82,0,0,1-1.21-2.343A2.491,2.491,0,0,1,51.412,9.9Z" fill="#0b0909"/>
      </g>
    </g>
  </g>
</svg>
