<svg xmlns="http://www.w3.org/2000/svg" xmlns:xlink="http://www.w3.org/1999/xlink" width="137.14" height="137.14" viewBox="0 0 137.14 137.14">
  <defs>
    <clipPath id="clip-path">
      <circle id="Ellipse_1111" data-name="Ellipse 1111" cx="68.57" cy="68.57" r="68.57" transform="translate(1.43 1.43)"/>
    </clipPath>
  </defs>
  <g id="Group_117517" data-name="Group 117517" transform="translate(-1.43 -1.43)">
    <circle id="Ellipse_891_00000070076803374586670850000002271869205877975684_" cx="68.57" cy="68.57" r="68.57" transform="translate(1.43 1.43)" fill="#f1f1f1"/>
    <g id="Group_117462" data-name="Group 117462">
      <g id="Group_117461" data-name="Group 117461" clip-path="url(#clip-path)">
        <path id="Path_38646" data-name="Path 38646" d="M82.087,108.948a54.955,54.955,0,0,1-5.277,2.437,31.356,31.356,0,0,1-5.15,1.766,13.087,13.087,0,0,1-3.808-.409c-3.938-1.051-6.878-3.4-10.135-5.8a56.385,56.385,0,0,1-6.374-5.574,31.692,31.692,0,0,1-9.818-22.59c0-3.674-.162-7.349-.281-11.022a10.4,10.4,0,0,0-.272-2.7c-.708-2.383.488-3.476.005-4.19a.263.263,0,0,1,.043-.344c2.108-1.869-.611-8.565-.286-9.812.316-1.212,6.434-13.437,7.8-14.543,1.427-1.157,4.951-12.616,6.251-13.341.849-.474,19.581,5.469,29.433,6.138,5.77.391,11.258,8.766,11.778,9.07a60.988,60.988,0,0,1,4,7.776c1.282,2.964,1.242,11.04,2.365,13.876,1.064,2.689-1.374,6.509-1.41,6.769A80.094,80.094,0,0,0,100.357,77,39.251,39.251,0,0,1,98.9,87.37,34.392,34.392,0,0,1,92.78,99.157,32.413,32.413,0,0,1,83,107.978ZM60.978,92.24h0m5.028-8.813h0m-8.554-25.36h0m27.4,0" fill="#6e4438"/>
        <path id="Path_38647" data-name="Path 38647" d="M81.531,66.466l1.251,6.574-3.735-1.232L76.381,70l.529-.995Z" fill="#fafcfc"/>
        <path id="Path_38648" data-name="Path 38648" d="M93.764,67.161l-4.778-.836.305,1.4.318,2.065L88.283,72l1.689-.288,2.2-1.806a16.794,16.794,0,0,0,1.355-1.975C93.591,67.783,93.764,67.161,93.764,67.161Z" fill="#fafcfc"/>
        <path id="Path_38649" data-name="Path 38649" d="M60.542,66.466,59.291,73.04l3.734-1.232L65.691,70l-.529-.995Z" fill="#fafcfc"/>
        <path id="Path_38650" data-name="Path 38650" d="M48.339,67.122l4.779-.837-.305,1.4-.318,2.065,1.327,2.208-1.69-.288-2.2-1.806-1.426-2.115Z" fill="#fafcfc"/>
        <path id="Path_38651" data-name="Path 38651" d="M30.883,165.442c0,.294-.055.653-.071,1.467a.241.241,0,0,1-.058.154c-.183.211-.4.407-.411.5-.249,3.357-.551,6.713-.695,10.075-.111,2.6-.022,5.2-.017,7.8,0,.391-.123.9.073,1.152a1.86,1.86,0,0,1,0,2.238.245.245,0,0,1-.284.128,52.337,52.337,0,0,1-13.888-5.791,24.292,24.292,0,0,1-7.551-7.1,2.474,2.474,0,0,1-.06-3.054,140.106,140.106,0,0,0,11.4-23.695c1.149-3.13,2.253-6.277,3.346-9.427a15.731,15.731,0,0,1,7.351-9.19c3.445-1.873,6.818-3.889,10.325-5.637a62.294,62.294,0,0,1,12.424-4.5,6.1,6.1,0,0,1,.861-.146c.063-.007.132.037.252.1a.245.245,0,0,1,.133.2,1.911,1.911,0,0,1-.015.635c-2.347,8.443,3.579,17.16,12.039,19.08a18.04,18.04,0,0,0,16.511-3.865A17.724,17.724,0,0,0,88.6,125.782a14.8,14.8,0,0,0-.207-5.049.243.243,0,0,1,.244-.282,3.471,3.471,0,0,1,.78.059,78.416,78.416,0,0,1,12.058,4.233A92.54,92.54,0,0,1,113.3,131.3a15.272,15.272,0,0,1,6.226,8.129c1.92,5.3,3.806,10.617,5.906,15.846a126.5,126.5,0,0,0,7.84,15.8c.488.85.971,1.705,1.5,2.531a1.539,1.539,0,0,1-.015,1.779,19.305,19.305,0,0,1-4.014,4.855,39.461,39.461,0,0,1-15.47,8.087.245.245,0,0,1-.286-.136c-.359-.769-.553-1.67-.83-2.321-.189-.443-1.652-4.571-1.736-4.846-.354-1.168-.66-2.352-1.059-3.5a4.7,4.7,0,0,0-.71-1.085.242.242,0,0,1-.042-.175c.241-1.762.612-3.519.676-5.287a92.057,92.057,0,0,0-.013-9.529,61.768,61.768,0,0,0-1.251-7.515,13.466,13.466,0,0,0-.878-2.646,6.746,6.746,0,0,0-.83-1.252.243.243,0,0,0-.265-.093h0a.243.243,0,0,0-.176.224,3.756,3.756,0,0,0,.013.849c.46,2.4.992,4.792,1.406,7.2a36.7,36.7,0,0,1,.288,9.507c-.5,5.708-2.145,11.144-3.6,16.631a86.705,86.705,0,0,0-2.4,11.939c-.2,1.651-.445,3.3-.563,4.955a43.353,43.353,0,0,0,1.875,14.8,111.012,111.012,0,0,0,5.058,13.957c1.1,2.568,2.265,5.11,3.393,7.667.464,1.051.448,1.3-.654,1.868-2.263,1.166-4.537,2.331-6.884,3.308a98.6,98.6,0,0,1-19.611,5.617,60.859,60.859,0,0,1-8.006.97c-3.961.216-7.942.387-11.9.23a79.3,79.3,0,0,1-9.9-1.2,100.4,100.4,0,0,1-17.436-4.7,51.28,51.28,0,0,1-9.589-4.459c-.169-.1-.323-.232-.542-.4a.244.244,0,0,1-.079-.28c.239-.625.451-1.255.733-1.852a147.786,147.786,0,0,0,7.208-17.857,62.639,62.639,0,0,0,2.74-12.755,39.476,39.476,0,0,0-.326-7.889,91.232,91.232,0,0,0-2.485-13.414c-1.11-4.467-2.341-8.91-3.241-13.42a34.566,34.566,0,0,1-.608-9.921,93.5,93.5,0,0,1,1.637-9.987c.089-.444.137-.9.206-1.458a.244.244,0,0,0-.375-.234,2.279,2.279,0,0,0-.95,1.4c-.671,2.452-1.389,4.9-1.836,7.4a57.351,57.351,0,0,0-.562,6.736Z" fill="#f87360"/>
        <path id="Path_38652" data-name="Path 38652" d="M82.21,105.3c.218,2.316,1.389,14.318,1.373,13.535,3.259-.149,4.43.152,4.514,3.878a17.938,17.938,0,0,1-3.565,10.63,16.315,16.315,0,0,1-8.957,6.162c-6.089,1.492-12.722.337-17.1-4.314A15.269,15.269,0,0,1,54.6,121.525c.436-1.94,1.367-2.542,3.7-2.795.581-.112,1.515-10.565,1.956-12.722a22.767,22.767,0,0,1,4.136,1.149,15.227,15.227,0,0,0,5,.984,20.553,20.553,0,0,0,6.525-.773,28.554,28.554,0,0,0,4.339-1.262C81.14,105.712,81.259,105.235,82.21,105.3Z" fill="#6e4539"/>
        <path id="Path_38653" data-name="Path 38653" d="M101.236,73.5a16.389,16.389,0,0,1,.343-2.09c.36-.566-.036-1.162-.364-.979.111-1.333.215-2.667.336-4,.028-.307.146-.606.16-.912.073-1.568.069-1.573,1.461-2a4.852,4.852,0,0,1,5.853,2.785,11.923,11.923,0,0,1,.538,5.806,14.209,14.209,0,0,1-2.307,6.347,3.377,3.377,0,0,1-1.063.916c-1.526-.577-2.62-1.358-2.488-3.175-.126-2.071-.542-2.5-2.469-2.7m1.71-3.847" fill="#6e4438"/>
        <path id="Path_38654" data-name="Path 38654" d="M105.043,81.215c-.492-.268-1.88.184-1.392.811a3.475,3.475,0,0,1-2.96.173,72.678,72.678,0,0,1,.345-8.584c1.042-.109,2.014.279,2.22,1.136.053.22.362.378.554.564-.125,1.606,1.46,3.463,2.823,4.061A12.755,12.755,0,0,1,105.043,81.215Z" fill="#603b34"/>
        <path id="Path_38655" data-name="Path 38655" d="M101.154,70.946c.373-.229.683-.4.994-.576l.21.17c-.228.372-.455.743-.754,1.175A1.562,1.562,0,0,1,101.154,70.946Z" fill="#42241b"/>
        <path id="Path_38656" data-name="Path 38656" d="M39.44,63.911c.175.095.676.281.809.379.265,2.042,1.034,10.106.574,10.684-.354.445-1.566.746-1.722,1.611a7.238,7.238,0,0,1-3.162,3.45,9.891,9.891,0,0,1-3.681-4.62,16.234,16.234,0,0,1-.309-8.565c.819-2.853,3.723-3.741,6.618-3.072.246.057.5.079.873.133m-.565,5.9" fill="#6e4438"/>
        <path id="Path_38657" data-name="Path 38657" d="M38.289,81.994c.232-.372-.05-.722.274-1.111.207-.248,0-.3-.1-.5-.109-.242.6-.451.273-.517-.862-.175-1.228.6-1.984,1-.315-.116-.7-.669-.959-.91,1.343-.743,1.5-2.2,2.132-3.482.26-.516.463-.932.683-1.34a1.73,1.73,0,0,1,1.661-.894c.455,1.31.118,2.665.244,3.977.127,1.328.592,2.648.09,4.06C39.859,82.19,39.145,82.1,38.289,81.994Z" fill="#603b34"/>
        <path id="Path_38658" data-name="Path 38658" d="M76.273,69.81a6.489,6.489,0,0,1,.825-3.672c1.537-3.236,4.3-6.42,7.308-5.977a15.063,15.063,0,0,1,6.484,2.48,7.152,7.152,0,0,1,2.874,3.925,39.983,39.983,0,0,1-3.841-1.178,10.863,10.863,0,0,0-4.592-.688c-3.394.3-6.339,1.466-8.356,4.4A5.484,5.484,0,0,1,76.273,69.81Z" fill="#57362f"/>
        <path id="Path_38659" data-name="Path 38659" d="M48.339,67.122a4.283,4.283,0,0,1,1.169-2.82c1.654-1.947,3.987-2.737,6.393-3.392.658-.179,1.332-.3,2.051-.454,2.426-.9,5.392,2.482,6.92,5.239a6.383,6.383,0,0,1,.988,4.173c-2.494-4.2-8.58-5.831-12.791-4.392C51.541,66,49.874,66.62,48.339,67.122Z" fill="#57362f"/>
        <path id="Path_38660" data-name="Path 38660" d="M95.563,57.1c.629.815,1.572,1.332,1.756,2.506a.166.166,0,0,1-.245.171c-1.639-.938-3.113-1.879-4.686-2.607A32.689,32.689,0,0,0,87.3,55.312a12.828,12.828,0,0,0-5.522-.508c-1.692.285-3.373.633-5.211.986a.166.166,0,0,1-.193-.2,5.476,5.476,0,0,1,2.673-3.624,8.883,8.883,0,0,1,6.4-.951,16.811,16.811,0,0,1,8.148,4.167c.663.58,1.267,1.228,1.97,1.921m-13.59-3.016c1.315.054,2.643.012,3.942.183a22.921,22.921,0,0,1,7.2,2.39,2.417,2.417,0,0,0,.581.175.164.164,0,0,0,.188-.219,1.924,1.924,0,0,0-.633-.852,32.257,32.257,0,0,0-2.993-2.106c-2.666-1.555-5.494-2.544-8.643-1.909a5.389,5.389,0,0,0-3.843,2.626.165.165,0,0,0,.165.248c1.389-.2,2.594-.365,4.039-.536m12.6,3.1" fill="#0e0b09"/>
        <path id="Path_38661" data-name="Path 38661" d="M49.512,54.52a16.54,16.54,0,0,1,7.618-3.526c2.842-.418,5.5-.077,7.586,2.149a4.359,4.359,0,0,1,1.258,2.539.165.165,0,0,1-.2.182,22.629,22.629,0,0,0-7.047-1.136,19.514,19.514,0,0,0-7.12,1.663c-2.146,1-4.138,2.151-6.283,3.288A.275.275,0,0,1,45,59.528c-.106-.5.349-.869.678-1.212,1.221-1.272,2.5-2.493,3.835-3.8m2.719-.969a15.251,15.251,0,0,0-3.584,2.85.164.164,0,0,0,.189.252,34.568,34.568,0,0,1,7.546-2.394,21.648,21.648,0,0,1,8.06.389.164.164,0,0,0,.174-.25,6.447,6.447,0,0,0-6.09-2.856,13.507,13.507,0,0,0-6.284,2Z" fill="#0e0b09"/>
        <path id="Path_38662" data-name="Path 38662" d="M64.977,82.679c-1.074-1.167-1.1-1.977.061-3.133a9.6,9.6,0,0,0,2.469-3.433A15.135,15.135,0,0,0,68.48,72.3a25.226,25.226,0,0,0,.042-5.736,5.742,5.742,0,0,1,.876,3.3,32.062,32.062,0,0,1-.026,3.823,34.015,34.015,0,0,1-.75,3.608,30.132,30.132,0,0,1,3.891.429,4.4,4.4,0,0,1,3.528,3.177,1.481,1.481,0,0,1-.416,1.631A2.939,2.939,0,0,0,73.774,79.5a7.169,7.169,0,0,0-7.032-.153,2.8,2.8,0,0,0-1.751,3.2A.6.6,0,0,1,64.977,82.679Z" fill="#42241b"/>
        <path id="Path_38663" data-name="Path 38663" d="M65.276,82.966a.5.5,0,0,1-.265-.225c-.035-.062-.028-.07-.024-.074a.413.413,0,0,1,.26.233C65.277,82.966,65.276,82.966,65.276,82.966Z" fill="#42241b"/>
        <path id="Path_38664" data-name="Path 38664" d="M65.277,82.966l.1.111A.226.226,0,0,1,65.29,83,.233.233,0,0,1,65.277,82.966Z" fill="#42241b"/>
        <path id="Path_38665" data-name="Path 38665" d="M81.834,54.088c-1.342.173-2.56.346-3.983.548a.124.124,0,0,1-.127-.182,5.391,5.391,0,0,1,3.888-2.7c3.149-.635,5.977.353,8.643,1.909a32.257,32.257,0,0,1,2.993,2.106,1.944,1.944,0,0,1,.647.888.144.144,0,0,1-.164.191,2.638,2.638,0,0,1-.619-.183,22.921,22.921,0,0,0-7.2-2.39C84.616,54.1,83.288,54.142,81.834,54.088Z" fill="#272c31"/>
        <path id="Path_38666" data-name="Path 38666" d="M63.5,94.165a.889.889,0,0,1-.094-.131.213.213,0,0,1,.1.072C63.524,94.145,63.511,94.159,63.5,94.165Z" fill="#823e42"/>
        <path id="Path_38667" data-name="Path 38667" d="M52.333,53.5a13.294,13.294,0,0,1,6.193-1.954,6.447,6.447,0,0,1,6.131,2.916.135.135,0,0,1-.143.206,21.7,21.7,0,0,0-8.131-.406,35.45,35.45,0,0,0-7.7,2.454.116.116,0,0,1-.136-.175C49.5,55.2,50.958,54.465,52.333,53.5Z" fill="#272c31"/>
        <path id="Path_38668" data-name="Path 38668" d="M58.408,119.148c.013-.273.039-.642.1-1.131.416-3.29.767-6.27,1.125-9.3a.051.051,0,0,0-.023-.048c-9.6-6.233-16.779-14.084-18.774-25.791a.05.05,0,0,0-.055-.041,8.1,8.1,0,0,1-5.277-1.474l-.006,0a7.488,7.488,0,0,0-.8-.558.039.039,0,0,1-.01-.008,14.277,14.277,0,0,1-3.927-12.987,5.967,5.967,0,0,1,4.224-4.9l.007,0a6.287,6.287,0,0,1,.968-.145h.008l3.674.273a.052.052,0,0,0,.055-.062c-.163-.8-.338-1.527-.447-2.268a2.039,2.039,0,0,1,.2-.973v0c.29-.642.5-1.244.731-1.753a.05.05,0,0,1,.1.016c.411,3.4.91,6.667,1.122,9.957.248,3.846.219,7.71.334,11.566a29.726,29.726,0,0,0,2.749,11.609,38.607,38.607,0,0,0,12.254,14.643,41.227,41.227,0,0,0,9.938,5.567,11.285,11.285,0,0,0,8.242.265,35.544,35.544,0,0,0,3.856-1.53,39.958,39.958,0,0,0,16.69-15.576,28.232,28.232,0,0,0,3.13-7.751c1.165-3.819,1.217-7.656,1.326-11.625.242-3.375.382-6.621.717-9.847a59.579,59.579,0,0,1,1.112-6.1.051.051,0,0,1,.1-.006,15.278,15.278,0,0,1,.657,2.132.1.1,0,0,1,0,.017,14.86,14.86,0,0,0-.078,1.836.052.052,0,0,0,.069.049,7.417,7.417,0,0,1,4.393-.126h0a9.487,9.487,0,0,1,1.064.39c1.986,1.105,2.763,3.091,3.008,5.269a14.471,14.471,0,0,1-3.312,11.168l0,0c-.375.372-.61.635-.941.937a7.551,7.551,0,0,1-5.915,2.006.051.051,0,0,0-.056.04c-.146.614-.284,1.123-.382,1.638a33.022,33.022,0,0,1-6.488,14.163,39.421,39.421,0,0,1-9.476,8.9,2.525,2.525,0,0,0-1.3,2.661c.179,2.018.236,3.894.344,5.919.031.585.115,1.31.108,1.9,0,.13.025.626.04,1.091.006.815,0,1.311,0,1.93,0,.165-.143.072-.16.017-.73-2.27-.671-4.612-.972-7.038-.138-1.588-.287-3.051-.452-4.66a.053.053,0,0,0-.072-.042c-.54.23-.892.35-1.214.528a24.047,24.047,0,0,1-6.889,2.607,12.1,12.1,0,0,1-3.492.226,23.785,23.785,0,0,1-8.638-2.9,9.321,9.321,0,0,0-.976-.374.053.053,0,0,0-.07.041c-.26,1.857-.5,3.576-.8,5.4-.238,1.215-.361,2.338-.619,3.429a19.4,19.4,0,0,1-.81,3.353c-.127.332-.479.319-.427-.132l.41-2.382m44.134-48.763a5.115,5.115,0,0,0-1.139,2.831c0,.014.015.024.027.031.612.306,1.515.369,1.992.978a1.963,1.963,0,0,1,.39,1.941.051.051,0,0,1-.094,0c-.1-.22-.215-1.216-1.024-1.518a2.439,2.439,0,0,0-1.37-.049.051.051,0,0,0-.042.048c-.108,2.381-.218,4.784-.333,7.322a.053.053,0,0,0,.052.054,5.652,5.652,0,0,0,4.812-2.112c.117-.146.952-.991,1.168-1.309a13.99,13.99,0,0,0,2.42-10.552c-.621-3.569-3.537-5.152-6.981-3.787a.055.055,0,0,0-.029.027c-.9,1.875-.78,4.04-.907,6.029a.052.052,0,0,0,.052.055,2.033,2.033,0,0,0,.6-.2,2.951,2.951,0,0,1,.555-.3c.1.024-.027.326-.152.5M37.934,76.037a7.722,7.722,0,0,1,.221-1.458,1.347,1.347,0,0,1,.466-.662,5.868,5.868,0,0,1,1.538-.7.056.056,0,0,0,.029-.033,1.974,1.974,0,0,0-.623-2.17,6.679,6.679,0,0,0-.689-.593c-.074-.066-.2-.128-.109-.318.052-.111.339-.061.485-.018s.653.1.981.139a.053.053,0,0,0,.059-.055c-.1-1.529-.214-2.974-.3-4.419-.079-1.315-.088-1.341-1.711-1.837h-.005a4.7,4.7,0,0,0-5.794,3.278,10.064,10.064,0,0,0-.22,5.553c.593,2.628,1.431,5.145,3.638,7.188A6.511,6.511,0,0,0,40.555,82a.052.052,0,0,0,.055-.055c-.147-2.588-.285-5.007-.423-7.428a.053.053,0,0,0-.048-.049,1.533,1.533,0,0,0-1.613.787,5.892,5.892,0,0,1-.5.828A.052.052,0,0,1,37.934,76.037Z" fill="#42241b"/>
        <g id="Group_117454" data-name="Group 117454">
          <path id="Path_38669" data-name="Path 38669" d="M102.9,79.694a4.44,4.44,0,0,1,2.544,1.751,3.8,3.8,0,0,1,.589.984,16.914,16.914,0,0,1,1.331,7.6,10.572,10.572,0,0,1-1.331,5.208,4.672,4.672,0,0,1-3.525,2.241,4.815,4.815,0,0,1-3.555-2.447,5.705,5.705,0,0,1-.191-4.687,14.425,14.425,0,0,1,.392,2.3c.25,1.806,1.35,2.547,2.817,3.483a1,1,0,0,0,1.2-.039,5.976,5.976,0,0,0,3.036-4.228,15.6,15.6,0,0,0-.171-6.985C105.765,83.645,103.238,80.915,102.9,79.694Z" fill="#a8874a"/>
          <path id="Path_38670" data-name="Path 38670" d="M105.066,81.824a14.09,14.09,0,0,1,1.167,3.045,15.64,15.64,0,0,1-.022,6.994,6.232,6.232,0,0,1-3.036,4.374,1,1,0,0,1-1.2.039c-1.466-.935-2.7-1.787-2.947-3.594-.1-.7-.139-1.036-.252-2.171a1.12,1.12,0,0,1,.011-.259c.492-2.259,1.391-5.24,1.952-7.341.009-.058.015-.084.123-.072.164.018.292.033.477.038.136,0,.028.4-.017.543A21.58,21.58,0,0,0,100,90.326a4.539,4.539,0,0,0,2.32,3.948.47.47,0,0,0,.417.046.7.7,0,0,0,.24-.126,3.515,3.515,0,0,0,.566-.6c2.341-3.45,2.209-7.063.672-10.755-.08-.192-1.737-2.045-2.113-2.473-.178-.2-.185-.583.067-.679C103.245,79.277,104.656,81,105.066,81.824Z" fill="#deb565"/>
          <path id="Path_38671" data-name="Path 38671" d="M102.166,82.863a17.605,17.605,0,0,0-1.2,7.425,3.2,3.2,0,0,0,1.31,2.642.263.263,0,0,0,.312-.02,4.934,4.934,0,0,0,1.547-3.039,18.277,18.277,0,0,0,.2-3.793,13.781,13.781,0,0,0-.393-2.305c-.359-1.486-1.6-2.855-1.6-3.145a7.074,7.074,0,0,1,1.878,2.207c1.538,3.692,1.67,7.305-.672,10.755a2.385,2.385,0,0,1-.688.716.665.665,0,0,1-.651-.048A4.573,4.573,0,0,1,100,90.326a20.171,20.171,0,0,1,1.332-7.449A7.062,7.062,0,0,0,102.166,82.863Z" fill="#a8874a"/>
        </g>
        <g id="Group_117455" data-name="Group 117455">
          <path id="Path_38672" data-name="Path 38672" d="M35.583,84.879a15.618,15.618,0,0,0-.171,6.985,5.973,5.973,0,0,0,3.036,4.228,1,1,0,0,0,1.2.039c1.466-.935,2.567-1.676,2.817-3.483A27.569,27.569,0,0,1,42.62,89.3a7.541,7.541,0,0,1,.049,5.733,4.816,4.816,0,0,1-3.555,2.447,4.675,4.675,0,0,1-3.525-2.241,10.561,10.561,0,0,1-1.331-5.208,16.914,16.914,0,0,1,1.331-7.6,3.814,3.814,0,0,1,.589-.984,4.431,4.431,0,0,1,2.544-1.751C38.385,80.915,35.857,83.645,35.583,84.879Z" fill="#a8874a"/>
          <path id="Path_38673" data-name="Path 38673" d="M39.449,79.684c.253.1.246.476.067.679-.376.428-2.032,2.281-2.113,2.473-1.538,3.692-1.67,7.305.672,10.755a3.476,3.476,0,0,0,.566.6.715.715,0,0,0,.24.126.47.47,0,0,0,.417-.046,4.534,4.534,0,0,0,2.32-3.948A21.558,21.558,0,0,0,40.3,83.421c-.045-.143-.153-.54-.017-.543.185,0,.313-.02.477-.038.108-.012.114.014.123.072.561,2.1,1.461,5.082,1.952,7.341a1.184,1.184,0,0,1,.011.259c-.114,1.135-.155,1.471-.252,2.171-.25,1.806-1.48,2.659-2.946,3.594a1,1,0,0,1-1.2-.039,6.235,6.235,0,0,1-3.036-4.374,15.64,15.64,0,0,1-.022-6.994,14.038,14.038,0,0,1,1.167-3.045C36.966,81,38.378,79.277,39.449,79.684Z" fill="#deb565"/>
          <path id="Path_38674" data-name="Path 38674" d="M40.287,82.877a20.191,20.191,0,0,1,1.332,7.449,4.573,4.573,0,0,1-2.2,3.932.665.665,0,0,1-.651.048,3.279,3.279,0,0,1-.931-.731c-2.341-3.45-1.966-7.049-.428-10.74a7.06,7.06,0,0,1,1.878-2.207c0,.29-1.242,1.659-1.6,3.145a13.78,13.78,0,0,0-.393,2.305,18.272,18.272,0,0,0,.2,3.793,4.934,4.934,0,0,0,1.547,3.039.263.263,0,0,0,.312.02,3.2,3.2,0,0,0,1.31-2.642,17.621,17.621,0,0,0-1.2-7.425A7.047,7.047,0,0,0,40.287,82.877Z" fill="#a8874a"/>
        </g>
        <g id="Group_117460" data-name="Group 117460">
          <g id="Group_117456" data-name="Group 117456">
            <path id="Path_38675" data-name="Path 38675" d="M76.163,70.109A11.729,11.729,0,0,0,85.6,73.543c5.7-.679,7.887-4.943,8.075-6.075a9.827,9.827,0,0,1-4.981,4.339c-3.547,1.4-7.094,1.774-12.075-1.887Z"/>
            <ellipse id="Ellipse_1107" data-name="Ellipse 1107" cx="4.92" cy="4.426" rx="4.92" ry="4.426" transform="translate(80.137 64.516)"/>
            <ellipse id="Ellipse_1108" data-name="Ellipse 1108" cx="4.306" cy="3.873" rx="4.306" ry="3.873" transform="translate(80.685 65.112)" fill="#22211e"/>
            <path id="Path_38676" data-name="Path 38676" d="M81.96,67.768a1.1,1.1,0,0,1,.97-.943c1.082-.216.981.967.678,1.53s-.75.88-1.27.462A1,1,0,0,1,81.96,67.768Z" fill="#fafcfc"/>
            <path id="Path_38677" data-name="Path 38677" d="M97.521,66.374s-1.887,1.66-6.679.679-6.943-1.17-10.83.641-3.4,2.226-3.4,2.226l-.453.189s1-4.4,7.036-5.693c5.031-1.078,8.017,1.578,10.278,1.974A15.257,15.257,0,0,0,97.521,66.374Z"/>
          </g>
          <g id="Group_117457" data-name="Group 117457">
            <path id="Path_38678" data-name="Path 38678" d="M65.948,70.109a11.729,11.729,0,0,1-9.434,3.434c-5.7-.679-7.887-4.943-8.075-6.075a9.827,9.827,0,0,0,4.981,4.339c3.547,1.4,7.094,1.774,12.075-1.887Z"/>
            <ellipse id="Ellipse_1109" data-name="Ellipse 1109" cx="4.92" cy="4.426" rx="4.92" ry="4.426" transform="translate(52.133 64.516)"/>
            <ellipse id="Ellipse_1110" data-name="Ellipse 1110" cx="4.306" cy="3.873" rx="4.306" ry="3.873" transform="translate(52.813 65.112)" fill="#22211e"/>
            <path id="Path_38679" data-name="Path 38679" d="M53.979,67.768a1.1,1.1,0,0,1,.97-.943c1.082-.216.981.967.678,1.53s-.75.88-1.27.462A1,1,0,0,1,53.979,67.768Z" fill="#fafcfc"/>
            <path id="Path_38680" data-name="Path 38680" d="M44.59,66.374s1.887,1.66,6.679.679,6.943-1.17,10.83.641,3.4,2.226,3.4,2.226l.453.189s-1.006-4.053-7.019-5.472c-4.977-1.174-7.351,1.052-10.3,1.753A11.512,11.512,0,0,1,44.59,66.374Z"/>
          </g>
          <g id="Group_117459" data-name="Group 117459">
            <g id="Group_117458" data-name="Group 117458">
              <path id="Path_38681" data-name="Path 38681" d="M76.241,70.109a9.947,9.947,0,0,1,2.481-7.389c2.655-2.9,3.7-2.537,6.274-4.726,0,0-2.045,2.146-5.048,4.79C76.867,65.5,76.241,70.109,76.241,70.109Z" fill="#4a2d26"/>
              <path id="Path_38682" data-name="Path 38682" d="M93.75,66.391s-.419-3.093-4.7-5.1a12.952,12.952,0,0,0-6.509-1.409l-1.15.9a12.641,12.641,0,0,1,7.713,1.266C93.339,64.113,93.75,66.391,93.75,66.391Z" fill="#4a2d26"/>
            </g>
          </g>
          <path id="Path_38683" data-name="Path 38683" d="M65.983,70.109A10.076,10.076,0,0,0,63.5,62.72c-2.107-2.331-3.124-1.687-6.274-4.726a4.474,4.474,0,0,0,1.3,1.8c1.032.923,2.991,2.1,4.1,3.43A22.163,22.163,0,0,1,65.983,70.109Z" fill="#4a2d26"/>
          <path id="Path_38684" data-name="Path 38684" d="M48.339,66.466a8.725,8.725,0,0,1,5.133-5.391,12.283,12.283,0,0,1,6.06-1.046l.846.55a15.962,15.962,0,0,0-7.16,1.3C48.907,63.765,48.339,66.466,48.339,66.466Z" fill="#4a2d26"/>
        </g>
        <path id="Path_38685" data-name="Path 38685" d="M60.862,91.947a4.838,4.838,0,0,0,5.354-.482c2.471-2.014,3.693-1.6,4.636-1.652a7.286,7.286,0,0,1,3.883,1.158c1.41.871,2.9,2.129,5.132,1.326a22.206,22.206,0,0,0-2.009,2.485c-.665.969-.982,2.018-2.2,2.919a8.724,8.724,0,0,1-4.626,1.149c-1.016-.027-3.969.228-5.874-2.135A40.832,40.832,0,0,0,60.862,91.947Z" fill="#541422"/>
        <path id="Path_38686" data-name="Path 38686" d="M60.515,91.7a12.734,12.734,0,0,1,3.261,3.541,8.475,8.475,0,0,0,7.212,3.9,6.781,6.781,0,0,0,5.99-2.695c1.813-2.417,1.953-3.189,2.786-4.2,0,0-2.5,3.451-4,4.443a8.435,8.435,0,0,1-4.774,1.416A7.864,7.864,0,0,1,64.5,95.3,21.589,21.589,0,0,0,60.515,91.7Z" fill="#321a1a"/>
        <path id="Path_38687" data-name="Path 38687" d="M61.247,92.032a4.635,4.635,0,0,0,4.97-.86,5.435,5.435,0,0,1,4.636-1.506,7.286,7.286,0,0,1,3.883,1.158,8.732,8.732,0,0,0,5.132,1.619A24.737,24.737,0,0,1,70.6,94.608,20.883,20.883,0,0,1,61.247,92.032Z" fill="#541422"/>
        <path id="Path_38688" data-name="Path 38688" d="M58.929,90.474a18.209,18.209,0,0,0,24.253-.4A22.042,22.042,0,0,1,70.7,94C63.156,94.066,58.929,90.474,58.929,90.474Z" fill="#321a1a"/>
        <path id="Path_38689" data-name="Path 38689" d="M63.289,92.443a9.6,9.6,0,0,0,3.859-2.056,5.744,5.744,0,0,1,6.027-.683,32.535,32.535,0,0,0,4.742,2.538,12.052,12.052,0,0,1-2.646-.928,11.9,11.9,0,0,0-4.407-1.209C67.514,90.105,67,91.975,63.289,92.443Z" fill="#321a1a"/>
        <path id="Path_38690" data-name="Path 38690" d="M114.484,240.144c-.607.333-1.146.589-1.855.945-2.2,1.085-4.182,2.166-6.257,3.037a89.333,89.333,0,0,1-30.329,6.43,99.355,99.355,0,0,1-23.991-1.709,73.59,73.59,0,0,1-20.826-7c-.82-.436-1.645-.862-2.467-1.292-.415-.274-.831-.549-1.34-.833-.676-.6-.362-1.162-.075-1.751a153.1,153.1,0,0,0,6.613-15.7A75.363,75.363,0,0,0,37.5,208.649a32.855,32.855,0,0,0-.325-10.508c-.311-1.881-.687-3.751-1.051-5.856-.224-1.342-.224-1.342-1.592-1.428-1.729-.226-3.329-.393-4.919-.631a34.01,34.01,0,0,1-17.979-8.077c-.5-.522-.967-.956-1.431-1.39-1.318-1.765-2.631-3.534-3.956-5.293a1.565,1.565,0,0,1-.04-1.891,287.749,287.749,0,0,0,14.644-32.583c.374-.958.668-1.948,1.055-2.9a15.12,15.12,0,0,1,6.072-7.376c3.668-2.266,7.358-4.526,11.2-6.479A64.236,64.236,0,0,1,58.5,118.1c-.047.426-.071.675-.094,1.051-2.331.253-2.657.454-3.094,2.394a13.657,13.657,0,0,0,3.623,12.885c4.379,4.65,9.965,5.746,16.054,4.254a15.26,15.26,0,0,0,8.814-5.72c2.165-2.88,3.666-6.009,3.582-9.718-.084-3.726-.484-3.838-3.808-4.215-.026-.455-.031-.787-.035-1.119a71.33,71.33,0,0,1,18.488,5.7,86.505,86.505,0,0,1,12.359,7.1,16.02,16.02,0,0,1,6.382,8.222c2.111,6.024,4.6,11.894,7.195,17.718,1.8,4.03,3.673,8.025,5.564,12.012.777,1.638,1.649,3.234,2.548,4.809a1.761,1.761,0,0,1-.068,2.161c-1.307,1.713-2.608,3.43-4.051,5.262-.518.436-.9.756-1.362,1.115a30.487,30.487,0,0,1-11.6,6.763,53.4,53.4,0,0,1-11.434,2.094c-1.225.2-1.225.2-1.305,1.714a73.1,73.1,0,0,0-1.545,10.894,40.644,40.644,0,0,0,1.7,12.183,127.661,127.661,0,0,0,7.859,20.591c.291.622.58,1.245.854,1.874.453,1.042.436,1.085-.638,2.019M29.841,189.068a23.837,23.837,0,0,0,5.958.955c-.661-2.3-1.238-4.463-1.911-6.6A62.569,62.569,0,0,1,30.81,167c0-.315.039-1.368.008-1.789.195-2.192.238-4.411.624-6.568.447-2.5,1.166-4.949,1.836-7.4a2.261,2.261,0,0,1,1.385-1.629c-.107.789-.153,1.363-.266,1.924a93.286,93.286,0,0,0-1.637,9.987,34.566,34.566,0,0,0,.608,9.921c.9,4.509,2.131,8.953,3.241,13.42a91.1,91.1,0,0,1,2.485,13.414,39.473,39.473,0,0,1,.326,7.889,62.639,62.639,0,0,1-2.74,12.755,147.718,147.718,0,0,1-7.208,17.857c-.308.651-.532,1.341-.8,2.022.3.224.483.384.687.51a51.373,51.373,0,0,0,9.589,4.459,100.38,100.38,0,0,0,17.436,4.7,78.919,78.919,0,0,0,9.9,1.2c3.958.157,7.939-.013,11.9-.23a60.859,60.859,0,0,0,8.006-.97A98.461,98.461,0,0,0,105.8,242.85c2.348-.977,4.621-2.142,6.884-3.308,1.1-.568,1.117-.817.654-1.868-1.128-2.557-2.291-5.1-3.393-7.667a111.07,111.07,0,0,1-5.058-13.957,43.377,43.377,0,0,1-1.875-14.8c.118-1.657.367-3.3.563-4.955a86.735,86.735,0,0,1,2.4-11.939c1.451-5.487,3.094-10.923,3.6-16.631a36.7,36.7,0,0,0-.288-9.507c-.415-2.41-.947-4.8-1.406-7.2a5.551,5.551,0,0,1-.009-1.024l.337-.1a8.542,8.542,0,0,1,.929,1.392,13.487,13.487,0,0,1,.878,2.646,62.026,62.026,0,0,1,1.251,7.515,92.057,92.057,0,0,1,.013,9.529,37.2,37.2,0,0,1-.822,5.545q-1.776,6.335-3.542,12.671a4.181,4.181,0,0,0-.009.953c1.71-.3,3.294-.521,4.847-.876,1.125-.257,2.209-.7,3.542-1.083a40.415,40.415,0,0,0,15.442-7.945,19.3,19.3,0,0,0,4.014-4.855,1.539,1.539,0,0,0,.015-1.779c-.527-.826-1.01-1.681-1.5-2.531a126.635,126.635,0,0,1-7.84-15.8c-2.1-5.229-3.986-10.546-5.906-15.846A15.267,15.267,0,0,0,113.3,131.3a92.539,92.539,0,0,0-11.823-6.558,78.522,78.522,0,0,0-12.058-4.233,2.929,2.929,0,0,0-.666-.058.339.339,0,0,0-.341.392,14.5,14.5,0,0,1,.189,4.936,17.729,17.729,0,0,1-6.052,10.787,18.042,18.042,0,0,1-16.511,3.865c-8.461-1.92-14.387-10.637-12.039-19.08a1.445,1.445,0,0,0,.026-.482.5.5,0,0,0-.306-.435.191.191,0,0,0-.09-.017,6.267,6.267,0,0,0-.861.146,62.232,62.232,0,0,0-12.424,4.5c-3.507,1.749-6.879,3.764-10.325,5.637a15.731,15.731,0,0,0-7.351,9.19c-1.093,3.15-2.2,6.3-3.346,9.427a140.182,140.182,0,0,1-11.4,23.7,2.474,2.474,0,0,0,.06,3.054,24.281,24.281,0,0,0,7.551,7.1A53.016,53.016,0,0,0,29.841,189.068Z" fill="#b3443e"/>
        <path id="Path_38691" data-name="Path 38691" d="M36.57,38.742l1.406-3.2,4.116-1.125-.307-3.63,2.147-1.917,3.4-.383.281-2.1,1.446-.639.4-3.809,1.994-1.38,2.608.128,2.735,2.326,1.687-2.71,2.454-.358L62.8,21.078l.511-3.4,2.556-1.585,2.674-.679,4.636,2.74.919,1.8,3.643-2.334,3.077.884,1.98,2.688-.34,1.594,3.67-2.063,2.357-.241,2.786,1.688.429,1.9-1.2,2.2,1.684-.5,1.933.966-.21,2.132,1.977-.687,2.9-.111,2.487,3.046.632,1.859-.417,2.117,3.206,1.506.939,3.525-1.118,2.931,2.952,2.266.771,4.315-.771,1.908-2.737.55,2.071,4.336a16.1,16.1,0,0,1-2.158,2.821c-.578.626,1.652,2.838.809,3.558a18.675,18.675,0,0,0-4.629.878c-2,.732-2.581-.466-2.581-1.184s.452-3.484.452-3.484l-.665-1.489-.053-1.915,1.463-2.5L97.464,52.09l-.984-1.6.638-2.819.23-1.17L94.193,46.4l-2.606-1.383-.213-2.659.532-1.489-3-.4-2.067-1.117-1.043-3.936-2.369.319L81,34.778l-1.41-2.659L77.97,33.156l-2.048.239-1.755-1.277L73.715,30.1l-2.128,3.3-3.324.718-2.526-.984-2.074-1.888-.771,2.42-1.835,2.181-1.649.452-3.537-.319L56.137,38l-.718,2.34-2.234,1.915-3.617-.638-.618,3.75-1.7,1.729-3.537.771,1.273,2.314-.4,2.314L42.2,54.885l1.489,2.336-.08,1.76L41.96,60.9s2.36,2.351-.017,3.689c-1.456.82-4.366-.215-5.046-2.628-.43-1.525-2.271-3.367-2.358-4.876-.035-.6.153-2.152,3.039-3.7,0,0-3.569-3.533-3.413-4.282s-1.181-3.156.588-4.448c1.388-1.014,2.821-1.686,3.681-2.787Z" fill="#272c31"/>
        <path id="Path_38692" data-name="Path 38692" d="M98.627,63.252c.117.362.37.472.3.5s-.28-.022-.6-.388a1.961,1.961,0,0,1-.248-1.08A3.241,3.241,0,0,1,98.15,61.2a6.858,6.858,0,0,0,.33-1.04,1.619,1.619,0,0,0-.123-1.076A4.251,4.251,0,0,1,98.072,54c.073-.128.168-.242.241-.37a1.807,1.807,0,0,0,.1-.24.16.16,0,0,0-.078-.2c-2.458-1.247-2.983-3.225-1.819-5.834a.161.161,0,0,0-.141-.227,8.311,8.311,0,0,1-1.536-.1,8.507,8.507,0,0,1-2.34-.762,3.17,3.17,0,0,1-1.453-3.816c.086-.318.2-.629.316-.995a.159.159,0,0,0-.127-.207c-1.429-.207-2.864.1-4.067-.971s-1.216-2.511-1.611-3.923a.159.159,0,0,0-.18-.113,5.5,5.5,0,0,1-3.607-.344,4.373,4.373,0,0,1-2.205-2.872.16.16,0,0,0-.234-.1c-2.162,1.254-4.1,1.407-5.6-1.058a.158.158,0,0,0-.268,0,5.4,5.4,0,0,1-4.532,2.671,5.916,5.916,0,0,1-4.754-2.024.159.159,0,0,0-.262.041c-.659,1.466-1.228,2.843-2.619,3.62a5.661,5.661,0,0,1-4.346.5.16.16,0,0,0-.2.154c0,1.9-.326,3.539-1.785,4.722a4.818,4.818,0,0,1-4.762.906.16.16,0,0,0-.207.15c-.064,3.3-1.669,5.207-5.085,5.488a.16.16,0,0,0-.138.214c.471,1.256.959,2.358.632,3.613a6,6,0,0,1-2.151,2.856.163.163,0,0,0-.037.191c1.562,3.319,1.511,3.805-.673,5.736a.159.159,0,0,0-.028.207,3.111,3.111,0,0,1,.656,1.639.158.158,0,0,1-.31.049,3.959,3.959,0,0,0-2.1-2.137.159.159,0,0,1,.026-.288A3.329,3.329,0,0,1,41.4,60a2.043,2.043,0,0,0,1.64-3.208,8.78,8.78,0,0,0-1.214-1.444c-.2-.225-.416-.435-.714-.735a.16.16,0,0,1,.059-.263c.394-.144.648-.239.9-.329a3.166,3.166,0,0,0,1.9-4.829c-.2-.388-.5-.721-.73-1.1a3.814,3.814,0,0,1-.37-.632.247.247,0,0,1,.163-.35c.67-.035,1.217-.077,1.764-.08,3.074-.016,4.647-1.959,4.051-5-.1-.518-.172-1.041-.246-1.539a.352.352,0,0,1,.215-.413c.362-.145.565.12.783.376a3.281,3.281,0,0,0,5.658-.969,4.513,4.513,0,0,0,.048-3.3,1.57,1.57,0,0,1-.077-.458.426.426,0,0,1,.454-.471,2.365,2.365,0,0,1,.6.064c.57.132,1.113.4,1.687.49,2.85.44,4.265-1.319,4.921-3.387.112-.352.2-.712.275-1.068a.685.685,0,0,1,1.24-.227h0a5.054,5.054,0,0,0,5.912,2.095,3.92,3.92,0,0,0,2.632-2.564c.124-.354.271-.7.418-1.046a.349.349,0,0,1,.664.045c.1.373.2.746.318,1.116.737,2.379,2.6,2.916,4.535,1.319.273-.225.564-.427.972-.724a.16.16,0,0,1,.251.1c.284,1.639.558,3.138,2.167,3.639a5.533,5.533,0,0,0,3.885-.342.427.427,0,0,1,.589.381c.017.53.032.946.036,1.361.025,2.654,1.278,3.859,3.947,3.732a14.784,14.784,0,0,0,1.5-.174.607.607,0,0,1,.6.93,2.934,2.934,0,0,0-.307.511A6.017,6.017,0,0,0,91.88,43.7a2.675,2.675,0,0,0,2.7,2.423c.731.063,1.472.01,2.208.021.37.006.74.029,1.286.056a.162.162,0,0,1,.133.241,9.61,9.61,0,0,0-.631,1.177,7.3,7.3,0,0,0-.7,2.206,2.572,2.572,0,0,0,2.294,2.488c.462.1.97.067,1.106.757a.147.147,0,0,1-.045.136c-.219.205-.476.439-.722.684a3.913,3.913,0,0,0-1.243,3.179c.09,1.253.463,1.557,1.673,1.339.211-.038.426-.056.674-.082a.161.161,0,0,1,.174.193c-.121.6-.642.73-.992,1.028A3.576,3.576,0,0,0,98.627,63.252Z" fill="#0e0b09"/>
        <path id="Path_38693" data-name="Path 38693" d="M78.3,74.194a.07.07,0,0,0-.046.132c1.295.567,3.61,3.244,8.349,2.46,3.479-.576,5.36-1.836,6.455-3.027a.085.085,0,0,0-.1-.133,24.663,24.663,0,0,1-7.034,2.466C81.51,76.523,79.922,74.62,78.3,74.194Z" fill="#4a2d26"/>
        <path id="Path_38694" data-name="Path 38694" d="M63.708,74.2c.08-.036.132.1.055.136-1.043.563-3.518,3.426-8.41,2.591a11.574,11.574,0,0,1-6.46-3.311.063.063,0,0,1,.072-.1,37.483,37.483,0,0,0,3.558,1.651C57.623,77.064,59.522,76.066,63.708,74.2Z" fill="#4a2d26"/>
        <path id="Path_38695" data-name="Path 38695" d="M79.356,85.662a5.406,5.406,0,0,0,2.354,3.383c2.167,1.49,3.378,2,4.4,3.487a4.546,4.546,0,0,1,1.02,3.657s-.071.429.176.537.484-.395.484-.79a9.1,9.1,0,0,0-.166-2.045,6.069,6.069,0,0,0-1.645-2.482A10.914,10.914,0,0,0,83.2,89.488a7.148,7.148,0,0,1-3.818-3.835C79.371,85.621,79.344,85.594,79.356,85.662Z" fill="#3f2119"/>
        <path id="Path_38696" data-name="Path 38696" d="M62.665,85.662a5.406,5.406,0,0,1-2.354,3.383c-2.167,1.49-3.378,2-4.4,3.487a4.546,4.546,0,0,0-1.02,3.657s.071.429-.176.537-.484-.395-.484-.79a9.1,9.1,0,0,1,.166-2.045,6.069,6.069,0,0,1,1.645-2.482,10.914,10.914,0,0,1,2.773-1.921,7.148,7.148,0,0,0,3.818-3.835C62.65,85.621,62.677,85.594,62.665,85.662Z" fill="#3f2119"/>
        <path id="Path_38697" data-name="Path 38697" d="M36.711,62.827a2.376,2.376,0,0,1-.144-2.022,3.829,3.829,0,0,1-2.713-3.954,3.745,3.745,0,0,1,3.319-3.434s-4.531-2.944-4.012-6.407a6.573,6.573,0,0,1,4.589-5.195s-2.569-2.309-1.385-5.022,3.277-2.718,5.368-2.626a4.36,4.36,0,0,1,5.195-6.2s-.988-2.253,1.9-2.458c0,0-1.125-3.92,1.732-5.305s5.455.981,6.032,2.049a3.964,3.964,0,0,1,2.569-2.6,2.794,2.794,0,0,1,3.232.722s-.3-4.964,4.82-5.339,6.941,3.665,6.941,4.445c0,0,2.395-3.665,6.234-1.876s2.6,4.733,2.6,4.733S86.135,18.267,90,20.72s.75,5.31.75,5.31,1.7-1.169,3-.072a1.9,1.9,0,0,1,.693,2.482s2.395-2.4,6.032.433,1.991,5.541,1.385,6.061a4.7,4.7,0,0,1,4.243,3.521c.837,3.377-1.212,4.56-1.212,4.56s4.473,2.078,3.983,6.147-3.608,3.261-3.608,3.261,2.569,3.492,1.732,5.426-2.136,1.761-2.136,1.761,1.9,2.049.952,3.348l-.877-.13s1.2-.982-.705-2.669-.542-1.749-.051-1.685,2.4-.322,1.652-2.928-1.388-2.84-1.388-2.84-.755-.953.245-1.14,1.8.287,2.475-.862a4.209,4.209,0,0,0-.128-4.9,4.069,4.069,0,0,0-2.574-1.988c-.409-.017-1.345-.6-.2-1.467s1.124-2.489.751-3.712a3.449,3.449,0,0,0-3.568-2.9s-1.274.119-.6-.951.85-2.566-.493-4.265-3.075-2.362-4.469-1.937-1.115.624-1.486.838c-.491.283-1.017.1-.791-.634.356-1.151.391-1.733-.272-2.226a1.8,1.8,0,0,0-2.158-.153c-.816.459-1.206,0-.935-.561s1.7-1.784.425-3.432-3.3-2.26-5.658-.714a4.626,4.626,0,0,0-1.359,1.053c-.476.612-1,1.087-1.529.544s.017-.884.034-1.8a3.5,3.5,0,0,0-2.753-3.007,4.109,4.109,0,0,0-4.486,1.529s-1.019,1.631-1.5-.085-3.024-4.061-5.624-3.721c-2.3.3-3.673.722-4.451,3.094a4.1,4.1,0,0,0,.008,1.585.8.8,0,0,1-.127.911c-.326.275-.548-.06-.852-.442a2.455,2.455,0,0,0-1.63-.934A2.821,2.821,0,0,0,57.9,21.7c-.594.827-.419,1.276-.661,1.793a.5.5,0,0,1-.543.351c-.5-.087-.381-.476-.71-1a3.935,3.935,0,0,0-.919-1.029,4.616,4.616,0,0,0-1.753-.712,2.944,2.944,0,0,0-2.371.421,3.787,3.787,0,0,0-1.164,1.441,3.707,3.707,0,0,0,.144,2.939c.189.436.293.823,0,1.074-.439.377-.945-.768-1.659-.411s-.771,1.108-.312,2.025-.567.54-.567.54-5.1-1.164-5.017,3.394a6.811,6.811,0,0,0,.276,1.6c.178.678.155.993-.53.857-.809-.161-3.757-.227-4.539,2.042a3.994,3.994,0,0,0,1.077,4.328c.555.5.84,1.093.209,1.32s-4.413,1.362-4.463,4.312,1.538,4.463,3.076,5.674.681,1.21-.076,1.488-2.824,1.084-2.547,3.3A2.836,2.836,0,0,0,37.046,60s1.11-.025.53.983a1.933,1.933,0,0,0-.05,1.886Z" fill="#070604"/>
      </g>
    </g>
  </g>
</svg>
