<svg xmlns="http://www.w3.org/2000/svg" width="102.866" height="41" viewBox="0 0 102.866 41">
  <g id="Group_5166" data-name="Group 5166" transform="translate(-283.432 -748.469)">
    <g id="Group_1715" data-name="Group 1715" transform="translate(284.922 748.469)">
      <path id="Path_1429" data-name="Path 1429" d="M288.921,751.539a3.4,3.4,0,0,1,0,6.772,2.812,2.812,0,0,1-2.615-1.542v4.555h-.831v-9.688h.831v1.447A2.791,2.791,0,0,1,288.921,751.539Zm-.169.736a2.659,2.659,0,0,0,0,5.3,2.429,2.429,0,0,0,2.446-2.664A2.4,2.4,0,0,0,288.752,752.275Z" transform="translate(-285.474 -749.298)" fill="#f02a4c"/>
      <path id="Path_1430" data-name="Path 1430" d="M299.351,758.311a3.387,3.387,0,1,1,3.314-3.385A3.208,3.208,0,0,1,299.351,758.311Zm0-.734a2.66,2.66,0,0,0,.012-5.3,2.662,2.662,0,0,0-.012,5.3Z" transform="translate(-288.34 -749.298)" fill="#f02a4c"/>
      <path id="Path_1431" data-name="Path 1431" d="M306.136,751.671h.855l1.639,5.723,1.844-5.723h.844l1.82,5.735,1.627-5.735h.831l-2.06,6.579h-.844l-1.82-5.519-1.82,5.519H308.2Z" transform="translate(-291.055 -749.334)" fill="#f02a4c"/>
      <path id="Path_1432" data-name="Path 1432" d="M323.36,758.311a3.39,3.39,0,0,1,0-6.772,2.958,2.958,0,0,1,3.109,3.049,5.769,5.769,0,0,1-.024.663h-5.459a2.3,2.3,0,0,0,2.374,2.349,2.037,2.037,0,0,0,2.121-1.469h.891A2.892,2.892,0,0,1,323.36,758.311Zm-2.374-3.748h4.627a2.151,2.151,0,0,0-2.289-2.3A2.271,2.271,0,0,0,320.986,754.563Z" transform="translate(-294.835 -749.298)" fill="#f02a4c"/>
      <path id="Path_1433" data-name="Path 1433" d="M331.768,758.206h-.844v-6.579h.844v1.17a2.265,2.265,0,0,1,2.253-1.29v.879h-.228c-1.1,0-2.025.494-2.025,2.145Z" transform="translate(-297.751 -749.289)" fill="#f02a4c"/>
      <path id="Path_1434" data-name="Path 1434" d="M339.6,758.311a3.39,3.39,0,0,1,0-6.772,2.958,2.958,0,0,1,3.109,3.049,5.769,5.769,0,0,1-.024.663h-5.459A2.3,2.3,0,0,0,339.6,757.6a2.037,2.037,0,0,0,2.121-1.469h.892A2.893,2.893,0,0,1,339.6,758.311Zm-2.374-3.748h4.627a2.151,2.151,0,0,0-2.289-2.3A2.271,2.271,0,0,0,337.225,754.563Z" transform="translate(-299.222 -749.298)" fill="#f02a4c"/>
      <path id="Path_1435" data-name="Path 1435" d="M349.793,750.71a2.859,2.859,0,0,1,2.59,1.519v-3.76h.844v8.916h-.844v-1.47a2.743,2.743,0,0,1-2.6,1.566,3.395,3.395,0,0,1,.012-6.772Zm.144.736a2.4,2.4,0,0,0-2.447,2.638,2.454,2.454,0,1,0,2.447-2.638Z" transform="translate(-301.995 -748.469)" fill="#f02a4c"/>
      <path id="Path_1436" data-name="Path 1436" d="M366.271,750.71a3.4,3.4,0,0,1,0,6.772,2.763,2.763,0,0,1-2.614-1.542v1.446h-.831v-8.916h.831v3.8A2.792,2.792,0,0,1,366.271,750.71Zm-.169.736a2.659,2.659,0,0,0,0,5.3,2.43,2.43,0,0,0,2.447-2.664A2.4,2.4,0,0,0,366.1,751.445Z" transform="translate(-306.368 -748.469)" fill="#f02a4c"/>
      <path id="Path_1437" data-name="Path 1437" d="M378.229,751.671h.868l-3.9,9.675h-.88l1.277-3.133-2.7-6.543h.928l2.241,5.615Z" transform="translate(-309.087 -749.334)" fill="#f02a4c"/>
    </g>
    <path id="Path_1438" data-name="Path 1438" d="M342.383,776.3a1.812,1.812,0,1,0-1.9-1.81,1.826,1.826,0,0,0,1.9,1.81" transform="translate(-15.411 -6.54)" fill="#f02a4c"/>
    <g id="Group_1716" data-name="Group 1716" transform="translate(283.432 767.112)">
      <path id="Path_1439" data-name="Path 1439" d="M328.972,785.675a3.292,3.292,0,0,1-3.244,3.6,3.341,3.341,0,0,1-3.222-3.642,3.25,3.25,0,1,1,6.467.045m3.112,6.2V779.561h-3.112V781.3a4.785,4.785,0,0,0-4.04-1.942c-3.112,0-5.584,2.449-5.584,6.268s2.472,6.357,5.584,6.357a4.824,4.824,0,0,0,4.04-2.009v1.9c0,2.274-1.324,3.244-3.023,3.244a2.876,2.876,0,0,1-3-1.833h-3.068c.31,2.8,2.715,4.525,6.158,4.525,4.017,0,6.047-2.627,6.047-5.937" transform="translate(-293.133 -775.456)" fill="#f02a4c"/>
      <rect id="Rectangle_917" data-name="Rectangle 917" width="3.09" height="12.228" transform="translate(41.974 4.104)" fill="#f02a4c"/>
      <path id="Path_1440" data-name="Path 1440" d="M358.591,788.3c-.088-4.481-6.864-3.09-6.864-5.319,0-.706.6-1.17,1.744-1.17a1.821,1.821,0,0,1,2.052,1.59h2.958c-.176-2.428-1.965-4.04-4.922-4.04-3.023,0-4.833,1.633-4.833,3.664,0,4.48,6.909,3.09,6.909,5.275,0,.706-.662,1.258-1.877,1.258a2.03,2.03,0,0,1-2.207-1.633h-3.111c.132,2.274,2.274,4.061,5.341,4.061,2.98,0,4.811-1.589,4.811-3.686" transform="translate(-300.991 -775.456)" fill="#f02a4c"/>
      <path id="Path_1441" data-name="Path 1441" d="M365.952,786.946c0,2.8,1.566,3.8,3.906,3.8H371.8v-2.6h-1.434c-.972,0-1.3-.353-1.3-1.169v-5.916H371.8v-2.538h-2.737v-3.024h-3.112v3.024h-1.458v2.538h1.458Z" transform="translate(-305.328 -774.411)" fill="#f02a4c"/>
      <path id="Path_1442" data-name="Path 1442" d="M396.133,791.845h1.523v-7.062c0-3.531-2.118-5.21-4.789-5.21a4.39,4.39,0,0,0-4.348,2.958,4.454,4.454,0,0,0-4.459-2.958,4.3,4.3,0,0,0-3.995,2.3v-2.075h-1.544v12.051h1.544v-6.534c0-2.934,1.523-4.392,3.73-4.392,2.141,0,3.553,1.369,3.553,4.039v6.886h1.523v-6.534c0-2.934,1.545-4.392,3.73-4.392,2.141,0,3.531,1.369,3.531,4.039Z" transform="translate(-309.117 -775.513)" fill="#f02a4c"/>
      <path id="Path_1443" data-name="Path 1443" d="M418.354,784.318c0,3-2.009,4.855-4.479,4.855-2.539,0-4.481-1.831-4.481-4.878,0-3.068,1.942-4.833,4.481-4.833,2.471,0,4.479,1.854,4.479,4.856m1.545,6.025V774.011h-1.545V780.9a5.237,5.237,0,0,0-4.744-2.781c-3.333,0-5.784,2.406-5.784,6.18s2.451,6.224,5.761,6.224a5.024,5.024,0,0,0,4.767-2.869v2.693Z" transform="translate(-317.033 -774.011)" fill="#f02a4c"/>
      <path id="Path_1444" data-name="Path 1444" d="M302.992,785.141a3.349,3.349,0,0,0-1.93-2.831l-12.826-7.391a2.466,2.466,0,0,0-3.952,2.283v3a1.9,1.9,0,0,0-.853,1.612,1.723,1.723,0,1,0,3.432,0,1.9,1.9,0,0,0-.851-1.612v-3a.8.8,0,0,1,1.36-.785l12.827,7.391c.677.39,1.063.876,1.063,1.333s-.387.942-1.063,1.332l-11.872,6.84a1.806,1.806,0,0,1-1.721.264,1.664,1.664,0,0,1-.593-1.5v-1.936a1.906,1.906,0,0,0,.851-1.612,1.723,1.723,0,1,0-3.432,0,1.9,1.9,0,0,0,.853,1.612v1.936a3.254,3.254,0,0,0,1.457,2.995,2.709,2.709,0,0,0,1.374.359,4.2,4.2,0,0,0,2.076-.622l11.872-6.841a3.348,3.348,0,0,0,1.93-2.83" transform="translate(-283.432 -774.128)" fill="#f02a4c"/>
    </g>
  </g>
</svg>
