<svg xmlns="http://www.w3.org/2000/svg" width="151.775" height="60.493" viewBox="0 0 151.775 60.493">
  <g id="Group_8206" data-name="Group 8206" transform="translate(-283.432 -748.469)">
    <g id="Group_1715" data-name="Group 1715" transform="translate(285.631 748.469)">
      <path id="Path_1429" data-name="Path 1429" d="M290.559,751.539c2.649,0,4.623,1.939,4.623,4.977s-1.974,5.014-4.623,5.014a4.149,4.149,0,0,1-3.859-2.276v6.721h-1.227v-14.3H286.7v2.134A4.119,4.119,0,0,1,290.559,751.539Zm-.249,1.085a3.924,3.924,0,0,0,0,7.823c2.045,0,3.609-1.477,3.609-3.931A3.543,3.543,0,0,0,290.31,752.624Z" transform="translate(-285.474 -748.233)" fill="#fff"/>
      <path id="Path_1430" data-name="Path 1430" d="M300.9,761.531a5,5,0,1,1,4.889-4.995A4.733,4.733,0,0,1,300.9,761.531Zm0-1.083a3.565,3.565,0,0,0,3.609-3.911c0-2.669-1.742-3.911-3.592-3.911s-3.573,1.243-3.573,3.911S299.055,760.447,300.9,760.447Z" transform="translate(-284.658 -748.233)" fill="#fff"/>
      <path id="Path_1431" data-name="Path 1431" d="M306.136,751.671H307.4l2.418,8.444,2.72-8.444h1.245l2.685,8.462,2.4-8.462h1.227l-3.04,9.707h-1.245l-2.685-8.142-2.685,8.142h-1.262Z" transform="translate(-283.885 -748.223)" fill="#fff"/>
      <path id="Path_1432" data-name="Path 1432" d="M324.9,761.531a4.628,4.628,0,0,1-4.765-4.995c0-3.1,1.974-5,4.765-5a4.364,4.364,0,0,1,4.588,4.5,8.51,8.51,0,0,1-.036.978h-8.054a3.393,3.393,0,0,0,3.5,3.466,3.006,3.006,0,0,0,3.13-2.167h1.315A4.267,4.267,0,0,1,324.9,761.531Zm-3.5-5.53h6.827a3.174,3.174,0,0,0-3.377-3.395A3.351,3.351,0,0,0,321.393,756Z" transform="translate(-282.808 -748.233)" fill="#fff"/>
      <path id="Path_1433" data-name="Path 1433" d="M332.169,761.391h-1.245v-9.707h1.245v1.726a3.342,3.342,0,0,1,3.324-1.9v1.3h-.337c-1.619,0-2.987.729-2.987,3.165Z" transform="translate(-281.978 -748.235)" fill="#fff"/>
      <path id="Path_1434" data-name="Path 1434" d="M341.134,761.531a4.627,4.627,0,0,1-4.764-4.995c0-3.1,1.973-5,4.764-5a4.364,4.364,0,0,1,4.588,4.5,8.517,8.517,0,0,1-.036.978h-8.054a3.393,3.393,0,0,0,3.5,3.466,3.005,3.005,0,0,0,3.13-2.167h1.316A4.269,4.269,0,0,1,341.134,761.531Zm-3.5-5.53h6.827a3.174,3.174,0,0,0-3.377-3.395A3.351,3.351,0,0,0,337.632,756Z" transform="translate(-281.559 -748.233)" fill="#fff"/>
      <path id="Path_1435" data-name="Path 1435" d="M351.294,751.775a4.219,4.219,0,0,1,3.822,2.241v-5.547h1.245v13.156h-1.245v-2.169a4.048,4.048,0,0,1-3.84,2.311c-2.667,0-4.641-1.974-4.641-5.014S348.609,751.775,351.294,751.775Zm.213,1.085a3.544,3.544,0,0,0-3.61,3.892,3.62,3.62,0,1,0,3.61-3.892Z" transform="translate(-280.77 -748.469)" fill="#fff"/>
      <path id="Path_1436" data-name="Path 1436" d="M367.909,751.775c2.668,0,4.623,1.939,4.623,4.977s-1.974,5.014-4.623,5.014a4.077,4.077,0,0,1-3.857-2.276v2.133h-1.227V748.469h1.227v5.6A4.119,4.119,0,0,1,367.909,751.775Zm-.249,1.085a3.924,3.924,0,0,0,0,7.823,3.585,3.585,0,0,0,3.61-3.931A3.544,3.544,0,0,0,367.66,752.861Z" transform="translate(-279.524 -748.469)" fill="#fff"/>
      <path id="Path_1437" data-name="Path 1437" d="M380.766,751.671h1.28l-5.76,14.276h-1.3l1.885-4.622-3.982-9.654h1.369l3.307,8.285Z" transform="translate(-278.75 -748.223)" fill="#fff"/>
    </g>
    <path id="Path_1438" data-name="Path 1438" d="M343.286,778.02a2.673,2.673,0,1,0-2.8-2.671,2.694,2.694,0,0,0,2.8,2.671" transform="translate(4.388 1.862)" fill="#fff"/>
    <g id="Group_1716" data-name="Group 1716" transform="translate(283.432 775.976)">
      <path id="Path_1439" data-name="Path 1439" d="M333.547,788.676c0,3.419-2.28,5.308-4.787,5.308-2.444,0-4.755-1.954-4.755-5.374s2.311-5.243,4.755-5.243c2.507,0,4.787,1.888,4.787,5.308m4.591,9.151V779.655h-4.591v2.573a7.06,7.06,0,0,0-5.961-2.866c-4.591,0-8.239,3.614-8.239,9.249s3.648,9.379,8.239,9.379a7.118,7.118,0,0,0,5.961-2.964v2.8c0,3.354-1.953,4.787-4.461,4.787-2.28,0-3.974-1.075-4.43-2.7H320.13c.457,4.138,4.006,6.677,9.086,6.677,5.927,0,8.922-3.875,8.922-8.76" transform="translate(-280.669 -773.599)" fill="#fff"/>
      <rect id="Rectangle_917" data-name="Rectangle 917" width="4.56" height="18.042" transform="translate(61.931 6.056)" fill="#fff"/>
      <path id="Path_1440" data-name="Path 1440" d="M363.418,792.551c-.129-6.611-10.127-4.56-10.127-7.847,0-1.041.879-1.726,2.573-1.726,1.791,0,2.9.944,3.028,2.345h4.364c-.259-3.583-2.9-5.961-7.263-5.961-4.461,0-7.131,2.409-7.131,5.406,0,6.61,10.194,4.56,10.194,7.783,0,1.041-.977,1.855-2.77,1.855A3,3,0,0,1,353.029,792h-4.591c.195,3.355,3.355,5.992,7.881,5.992,4.4,0,7.1-2.344,7.1-5.438" transform="translate(-278.432 -773.599)" fill="#fff"/>
      <path id="Path_1441" data-name="Path 1441" d="M366.645,792.393c0,4.135,2.311,5.6,5.764,5.6h2.866v-3.842h-2.116c-1.434,0-1.922-.521-1.922-1.725V783.7h4.038v-3.745h-4.038v-4.462h-4.591v4.462h-2.151V783.7h2.151Z" transform="translate(-277.197 -773.897)" fill="#fff"/>
      <path id="Path_1442" data-name="Path 1442" d="M404.507,797.68h2.246V787.26c0-5.21-3.125-7.687-7.066-7.687a6.478,6.478,0,0,0-6.415,4.365,6.571,6.571,0,0,0-6.579-4.365,6.352,6.352,0,0,0-5.894,3.388V779.9h-2.279V797.68H380.8v-9.641c0-4.329,2.248-6.48,5.5-6.48,3.159,0,5.242,2.019,5.242,5.96V797.68h2.248v-9.641c0-4.329,2.28-6.48,5.5-6.48,3.159,0,5.21,2.019,5.21,5.96Z" transform="translate(-276.118 -773.583)" fill="#fff"/>
      <path id="Path_1443" data-name="Path 1443" d="M423.359,789.218c0,4.428-2.964,7.164-6.609,7.164-3.746,0-6.611-2.7-6.611-7.2,0-4.526,2.866-7.131,6.611-7.131,3.645,0,6.609,2.735,6.609,7.164m2.28,8.89v-24.1h-2.28v10.158a7.728,7.728,0,0,0-7-4.1c-4.917,0-8.534,3.551-8.534,9.118s3.616,9.184,8.5,9.184a7.412,7.412,0,0,0,7.033-4.233v3.973Z" transform="translate(-273.864 -774.011)" fill="#fff"/>
      <path id="Path_1444" data-name="Path 1444" d="M312.292,790.227a4.941,4.941,0,0,0-2.847-4.176l-18.925-10.9a3.638,3.638,0,0,0-5.831,3.369v4.424a2.807,2.807,0,0,0-1.258,2.378,2.542,2.542,0,1,0,5.064,0,2.811,2.811,0,0,0-1.256-2.378v-4.424a1.174,1.174,0,0,1,2.006-1.159l18.926,10.9c1,.575,1.569,1.293,1.569,1.967s-.571,1.39-1.569,1.965l-17.517,10.092a2.665,2.665,0,0,1-2.539.39,2.455,2.455,0,0,1-.875-2.21v-2.856a2.813,2.813,0,0,0,1.256-2.378,2.542,2.542,0,1,0-5.064,0,2.809,2.809,0,0,0,1.258,2.378v2.856a4.8,4.8,0,0,0,2.15,4.418,4,4,0,0,0,2.027.53,6.2,6.2,0,0,0,3.063-.917L309.445,794.4a4.94,4.94,0,0,0,2.847-4.175" transform="translate(-283.432 -773.977)" fill="#fff"/>
    </g>
  </g>
</svg>
