<svg xmlns="http://www.w3.org/2000/svg" width="227.799" height="66.133" viewBox="0 0 227.799 66.133">
  <g id="LOGO-BELINSON-WHITE" transform="translate(-397.329 -28.63)">
    <path id="Path_29026" data-name="Path 29026" d="M561.939,76.45c0-.42-.146-.5-.545-.5h-1.162V65.327c0-4.091-2.361-5.275-5.919-5.275a22.727,22.727,0,0,0-5.81.574c-.436.114-.327.343-.327.649v1.262c0,.306.182.421.546.382A42.426,42.426,0,0,1,553,62.612c3.016,0,4.576.306,4.576,2.484V75.953h-9.406c-.4,0-.508.153-.508.535v1.453c0,.345.073.535.508.535h13.291c.363,0,.472-.153.472-.574ZM545.308,69.99V60.854c0-.5-.109-.612-.508-.612h-1.672c-.326,0-.508.114-.508.574V69.99c0,.5.109.651.508.651h1.634C545.2,70.64,545.308,70.449,545.308,69.99Zm-5.3-8.372a1.559,1.559,0,0,0,.073-.649c0-.421-.073-.727-.472-.727h-10.1v-5.2c0-.458-.181-.611-.544-.611h-1.6c-.435,0-.544.114-.544.611v7.073c0,.535.109.649.508.649h9.551l-5.3,15.023c-.109.345-.145.688.327.688H533.8c.328,0,.51-.382.691-.955Zm-15.47,8.372V60.854c0-.5-.109-.612-.508-.612h-1.67c-.327,0-.508.114-.508.574V69.99c0,.5.108.651.508.651h1.634C524.427,70.64,524.536,70.449,524.536,69.99Zm-6.137,7.99V65.288c0-3.67-1.416-5.083-4.394-5.083a10.522,10.522,0,0,0-2.252.3c-.4.153-.435.306-.435.688v1.147c0,.306.218.459.763.345a10.5,10.5,0,0,1,1.344-.114c1.561,0,2.323.535,2.323,2.025V75.953h-4.466c-.363,0-.51.114-.51.574v1.415c0,.421.073.535.51.535h6.608C518.182,78.476,518.4,78.4,518.4,77.979Zm-12.565-6.651c0,2.981-1.452,4.969-4.1,4.969h-1.308c-2.869,0-4.14-1.529-4.14-4.932V67.2c0-3.593,1.308-4.779,3.85-4.779h1.6c2.651,0,4.1,1.033,4.1,4.932Zm2.724-2.256c0-2.562-.29-5.085-1.053-6.422-1.2-1.988-3.087-2.713-6.429-2.713h-.036c-3.3,0-5.23.8-6.465,2.866-.8,1.415-1.053,3.746-1.053,6.612,0,3.172.436,5.505,1.308,6.843,1.307,1.95,3.3,2.484,6.209,2.484h.036c3.014,0,4.721-.725,5.956-2.523C508.013,74.807,508.558,72.513,508.558,69.073ZM490.22,77.826V60.854c0-.5-.145-.612-.508-.612h-1.634c-.363,0-.544.192-.544.574V77.826c0,.421.036.649.508.649h1.634C490,78.476,490.22,78.361,490.22,77.826ZM483.9,85.471V60.93c0-.458-.036-.688-.508-.688h-1.672c-.435,0-.508.267-.508.688V85.471c0,.459.037.651.508.651h1.634C483.792,86.122,483.9,85.892,483.9,85.471Zm-35.079-7.645V68.538c0-.459-.036-.574-.4-.574h-1.017c-.327,0-.435.153-.581.5a7.6,7.6,0,0,0-.689,3.135v6.23c0,.5.109.649.508.649h1.634C448.677,78.476,448.822,78.323,448.822,77.826Zm10.967,0V64.639c0-3.976-2.832-4.587-7.371-4.587a34.96,34.96,0,0,0-5.883.5c-.617.114-.836.306-.836.688v1.3c0,.535.327.459.873.382,1.742-.153,3.521-.343,5.228-.343,4.067,0,5.3.152,5.3,2.446V77.826c0,.459.145.649.544.649h1.634C459.717,78.476,459.789,78.285,459.789,77.826ZM443.049,60.891c.072-.419,0-.649-.4-.649H440.8c-.327,0-.437.114-.508.421l-2.4,12.385c-.473,2.409-1.852,3.211-4.14,3.211h-1.634c-2,0-2.942-.727-3.268-2.713l-.109-.765,2.105-.878a4.714,4.714,0,0,0,3.016-4.091l1.162-6.957c.072-.459-.037-.612-.4-.612h-1.706c-.473,0-.582.153-.654.649l-.981,6.881a3.489,3.489,0,0,1-2.142,3.135l-.653.229-1.453-10.321c-.073-.421-.181-.574-.653-.574h-1.743c-.4,0-.472.23-.4.649L426.162,73.2c.653,4.091,2.615,5.467,6.137,5.467h1.162c3.776,0,6.391-1.147,7.3-5.924ZM421.552,77.9V65.517c0-3.554-2.143-5.428-6.683-5.428a16.656,16.656,0,0,0-5.192.574c-.58.192-.544.345-.544.727v1.07c0,.5.254.5.8.421a30.859,30.859,0,0,1,4.358-.3c3.813,0,4.576.954,4.576,2.9V77.941c0,.459.145.535.544.535h1.6C421.369,78.476,421.552,78.323,421.552,77.9Zm-14.888-.076V60.854c0-.5-.146-.612-.508-.612h-1.634q-.545,0-.546.574V77.826c0,.421.036.649.508.649h1.634C406.445,78.476,406.663,78.361,406.663,77.826Zm-6.32,7.645V60.93c0-.458-.036-.688-.508-.688h-1.67c-.436,0-.508.267-.508.688V85.471c0,.459.036.651.508.651H399.8C400.235,86.122,400.344,85.892,400.344,85.471Z" transform="translate(0.109 8.533)" fill="#003821"/>
    <path id="Path_29027" data-name="Path 29027" d="M561.939,76.45c0-.42-.146-.5-.545-.5h-1.162V65.327c0-4.091-2.361-5.275-5.919-5.275a22.727,22.727,0,0,0-5.81.574c-.436.114-.327.343-.327.649v1.262c0,.306.182.421.546.382A42.426,42.426,0,0,1,553,62.612c3.016,0,4.576.306,4.576,2.484V75.953h-9.406c-.4,0-.508.153-.508.535v1.453c0,.345.073.535.508.535h13.291c.363,0,.472-.153.472-.574ZM545.308,69.99V60.854c0-.5-.109-.612-.508-.612h-1.672c-.326,0-.508.114-.508.574V69.99c0,.5.109.651.508.651h1.634C545.2,70.64,545.308,70.449,545.308,69.99Zm-5.3-8.372a1.559,1.559,0,0,0,.073-.649c0-.421-.073-.727-.472-.727h-10.1v-5.2c0-.458-.181-.611-.544-.611h-1.6c-.435,0-.544.114-.544.611v7.073c0,.535.109.649.508.649h9.551l-5.3,15.023c-.109.345-.145.688.327.688H533.8c.328,0,.51-.382.691-.955Zm-15.47,8.372V60.854c0-.5-.109-.612-.508-.612h-1.67c-.327,0-.508.114-.508.574V69.99c0,.5.108.651.508.651h1.634C524.427,70.64,524.536,70.449,524.536,69.99Zm-6.137,7.99V65.288c0-3.67-1.416-5.083-4.394-5.083a10.522,10.522,0,0,0-2.252.3c-.4.153-.435.306-.435.688v1.147c0,.306.218.459.763.345a10.5,10.5,0,0,1,1.344-.114c1.561,0,2.323.535,2.323,2.025V75.953h-4.466c-.363,0-.51.114-.51.574v1.415c0,.421.073.535.51.535h6.608C518.182,78.476,518.4,78.4,518.4,77.979Zm-12.565-6.651c0,2.981-1.452,4.969-4.1,4.969h-1.308c-2.869,0-4.14-1.529-4.14-4.932V67.2c0-3.593,1.308-4.779,3.85-4.779h1.6c2.651,0,4.1,1.033,4.1,4.932Zm2.724-2.256c0-2.562-.29-5.085-1.053-6.422-1.2-1.988-3.087-2.713-6.429-2.713h-.036c-3.3,0-5.23.8-6.465,2.866-.8,1.415-1.053,3.746-1.053,6.612,0,3.172.436,5.505,1.308,6.843,1.307,1.95,3.3,2.484,6.209,2.484h.036c3.014,0,4.721-.725,5.956-2.523C508.013,74.807,508.558,72.513,508.558,69.073ZM490.22,77.826V60.854c0-.5-.145-.612-.508-.612h-1.634c-.363,0-.544.192-.544.574V77.826c0,.421.036.649.508.649h1.634C490,78.476,490.22,78.361,490.22,77.826ZM483.9,85.471V60.93c0-.458-.036-.688-.508-.688h-1.672c-.435,0-.508.267-.508.688V85.471c0,.459.037.651.508.651h1.634C483.792,86.122,483.9,85.892,483.9,85.471Zm-35.079-7.645V68.538c0-.459-.036-.574-.4-.574h-1.017c-.327,0-.435.153-.581.5a7.6,7.6,0,0,0-.689,3.135v6.23c0,.5.109.649.508.649h1.634C448.677,78.476,448.822,78.323,448.822,77.826Zm10.967,0V64.639c0-3.976-2.832-4.587-7.371-4.587a34.96,34.96,0,0,0-5.883.5c-.617.114-.836.306-.836.688v1.3c0,.535.327.459.873.382,1.742-.153,3.521-.343,5.228-.343,4.067,0,5.3.152,5.3,2.446V77.826c0,.459.145.649.544.649h1.634C459.717,78.476,459.789,78.285,459.789,77.826ZM443.049,60.891c.072-.419,0-.649-.4-.649H440.8c-.327,0-.437.114-.508.421l-2.4,12.385c-.473,2.409-1.852,3.211-4.14,3.211h-1.634c-2,0-2.942-.727-3.268-2.713l-.109-.765,2.105-.878a4.714,4.714,0,0,0,3.016-4.091l1.162-6.957c.072-.459-.037-.612-.4-.612h-1.706c-.473,0-.582.153-.654.649l-.981,6.881a3.489,3.489,0,0,1-2.142,3.135l-.653.229-1.453-10.321c-.073-.421-.181-.574-.653-.574h-1.743c-.4,0-.472.23-.4.649L426.162,73.2c.653,4.091,2.615,5.467,6.137,5.467h1.162c3.776,0,6.391-1.147,7.3-5.924ZM421.552,77.9V65.517c0-3.554-2.143-5.428-6.683-5.428a16.656,16.656,0,0,0-5.192.574c-.58.192-.544.345-.544.727v1.07c0,.5.254.5.8.421a30.859,30.859,0,0,1,4.358-.3c3.813,0,4.576.954,4.576,2.9V77.941c0,.459.145.535.544.535h1.6C421.369,78.476,421.552,78.323,421.552,77.9Zm-14.888-.076V60.854c0-.5-.146-.612-.508-.612h-1.634q-.545,0-.546.574V77.826c0,.421.036.649.508.649h1.634C406.445,78.476,406.663,78.361,406.663,77.826Zm-6.32,7.645V60.93c0-.458-.036-.688-.508-.688h-1.67c-.436,0-.508.267-.508.688V85.471c0,.459.036.651.508.651H399.8C400.235,86.122,400.344,85.892,400.344,85.471Z" transform="translate(0.109 8.533)" fill="#fff" stroke="#003821" stroke-width="0.216"/>
    <path id="Path_29028" data-name="Path 29028" d="M560.273,48.025V43.818c0-3.4-2.117-4.1-4.5-4.1-2.56,0-3,.236-4.181,1.385a12.174,12.174,0,0,0-.836-.889l-.419-.418c-.287-.287-.391-.287-.759.052l-.574.523a.692.692,0,0,0-.314.5c0,.157.157.287.314.444l.548.627a1.044,1.044,0,0,1,.366.837v9.042c0,.262.052.444.366.444h1.176c.339,0,.391-.1.391-.444V42.458a.616.616,0,0,1,.418-.575,4.092,4.092,0,0,1,2.144-.366h1.045c1.8,0,2.9.444,2.9,2.4v4.313c0,1.646-.707,2.4-2.353,2.4-.314,0-1.2,0-1.594-.025-.418-.027-.55.025-.55.339v.759c0,.182-.025.261.314.391a7.96,7.96,0,0,0,2.248.287c2.274,0,3.842-1.568,3.842-4.363m-15.409,3.842V43.4c0-2.43-1.542-3.711-4.809-3.711a12.576,12.576,0,0,0-3.737.393c-.419.13-.393.236-.393.5v.732c0,.339.184.339.575.287a23.481,23.481,0,0,1,3.137-.209c2.745,0,3.293.653,3.293,1.987v8.519c0,.314.1.366.391.366h1.15C544.734,52.258,544.864,52.155,544.864,51.867Zm-12.613-5.829c0-3.451-.471-4.7-1.673-5.566a6.569,6.569,0,0,0-3.476-.785,12.741,12.741,0,0,0-3.345.366c-.418.132-.523.262-.523.5v.81c0,.287.209.314.6.262a20.878,20.878,0,0,1,2.848-.184c1.961,0,3.556.287,3.556,2.4v4.339c0,2.089-1.307,2.4-3.293,2.4a19.145,19.145,0,0,1-3.162-.157c-.418-.052-.55-.025-.55.287v.837c0,.209,0,.339.445.444a15.982,15.982,0,0,0,3.424.366,5.094,5.094,0,0,0,3.842-1.255C531.807,50.193,532.251,48.834,532.251,46.038Zm-12.482-5.175V40.21c0-.339-.131-.418-.393-.418h-5.906c-.341,0-.393.079-.393.418v.862c0,.341.052.419.418.419h2.535a5.537,5.537,0,0,0-1.2,3.449,12.7,12.7,0,0,0,.236,2.039l.862,4.913c.052.287.157.366.444.366h1.253c.262,0,.314-.13.262-.471l-.968-5.2a12.937,12.937,0,0,1-.287-2.116A5.158,5.158,0,0,1,517,42.3a1.993,1.993,0,0,1,1.281-.836l1.123-.184C519.742,41.229,519.769,41.177,519.769,40.863Zm-21.741,11V43.4c0-2.43-1.541-3.711-4.808-3.711a12.592,12.592,0,0,0-3.738.393c-.418.13-.392.236-.392.5v.732c0,.339.183.339.575.287a23.513,23.513,0,0,1,3.137-.209c2.745,0,3.294.653,3.294,1.987v8.519c0,.314.105.366.393.366h1.15C497.9,52.258,498.028,52.155,498.028,51.867Zm-12.743-4.025v-3.92a4.412,4.412,0,0,0-.966-3.085c-.733-.784-1.856-1.15-4.156-1.15a18.148,18.148,0,0,0-4.051.444c-.444.105-.6.209-.6.418V46.2c0,.522.079.653.575.653h4.129c.393,0,.418-.105.418-.366v-.889c0-.287-.1-.366-.443-.366H477.5c-.08,0-.132.027-.132-.079V41.438c.68-.052,2.692-.052,3.424-.052,2.039,0,2.508.627,2.508,2.248v5.018c0,1.2-.443,1.985-2.744,1.985-.784,0-3.057-.077-4.677-.182-.314-.027-.445.105-.445.339v.759c0,.209.078.339.391.391a24.891,24.891,0,0,0,4.6.419C484.162,52.363,485.285,50.637,485.285,47.842Zm-14.546,3.972V40.21c0-.339-.1-.418-.366-.418H469.2a.347.347,0,0,0-.393.393V51.814c0,.287.026.444.366.444h1.176C470.582,52.258,470.738,52.18,470.738,51.814Zm-5.923.444c.184,0,.288-.261.132-.471l-3.9-5.043,1.1-1.1a6,6,0,0,0,1.724-3.11l.523-2.3c.079-.314,0-.444-.287-.444h-1.28a.379.379,0,0,0-.419.287l-.627,2.8a5.756,5.756,0,0,1-1.437,2.954h-.052l-4.313-5.75a.607.607,0,0,0-.575-.287h-1.464c-.182,0-.261.314-.13.47l3.294,4.34-1.019,1.045a6.449,6.449,0,0,0-1.542,3.033l-.758,3.188c-.079.287,0,.391.209.391h1.36c.209,0,.313-.079.366-.314l.732-2.978c.443-1.856.679-2.954,1.384-3.477l4.966,6.482c.209.261.261.287.5.287Zm-14.86-5.8V40.21c0-.339-.078-.418-.365-.418h-1.2c-.236,0-.366.079-.366.393v6.272c0,.339.078.444.366.444h1.176C449.877,46.9,449.955,46.77,449.955,46.456Zm-17.768,5.411V43.4c0-2.43-1.542-3.711-4.809-3.711a12.587,12.587,0,0,0-3.737.393c-.418.13-.392.236-.392.5v.732c0,.339.184.339.575.287a23.5,23.5,0,0,1,3.136-.209c2.744,0,3.294.653,3.294,1.987v8.519c0,.314.1.366.391.366H431.8C432.057,52.258,432.187,52.155,432.187,51.867Zm-12.116-.994c0-.287-.1-.339-.391-.339h-.837V43.268c0-2.8-1.7-3.606-4.26-3.606a17.257,17.257,0,0,0-4.181.391c-.314.079-.235.236-.235.444v.862c0,.21.13.287.392.262.914-.105,2.246-.209,3.083-.209,2.169,0,3.292.209,3.292,1.7v7.423h-6.768c-.288,0-.366.1-.366.366v.993c0,.236.052.366.366.366h9.565c.262,0,.339-.1.339-.391Zm-14.18-4.417V40.21c0-.339-.079-.418-.366-.418h-1.2c-.236,0-.367.079-.367.393v6.272c0,.339.08.444.367.444H405.5C405.812,46.9,405.891,46.77,405.891,46.456Zm-6.627,10.585V40.262c0-.313-.027-.47-.367-.47h-1.2c-.313,0-.366.182-.366.47V57.041c0,.314.027.444.366.444h1.176C399.185,57.485,399.264,57.328,399.264,57.041Z" transform="translate(0 3.622)" fill="#fff"/>
    <path id="Path_29029" data-name="Path 29029" d="M455.277,67.209c0-2.284-.4-2.824-2.4-2.824-1.94,0-2.4.661-2.4,2.824,0,2.284.342,2.7,2.4,2.7,1.942,0,2.4-.54,2.4-2.7" transform="translate(17.579 11.825)" fill="#fff"/>
    <path id="Path_29030" data-name="Path 29030" d="M563.271,59.335a10.607,10.607,0,0,1,10.609,10.607V78.9h-15.99a10.608,10.608,0,0,1-10.607-10.609V59.335Z" transform="translate(49.593 10.155)" fill="#ed171f"/>
    <path id="Path_29031" data-name="Path 29031" d="M547.282,43.949A15.32,15.32,0,0,1,562.6,28.63h12.932V51.719a15.322,15.322,0,0,1-15.321,15.322H547.282Z" transform="translate(49.593 0)" fill="#18964c"/>
    <path id="Path_29032" data-name="Path 29032" d="M550.392,47.725a11.052,11.052,0,0,0-11.05-11.052h-9.329V53.33a11.051,11.051,0,0,0,11.05,11.052h9.328Z" transform="translate(43.882 2.66)" fill="#b3dc1f"/>
    <path id="Path_29033" data-name="Path 29033" d="M542.7,72.149a6.949,6.949,0,0,0,6.948-6.949V59.334H539.18a6.949,6.949,0,0,0-6.948,6.949v5.866Z" transform="translate(44.616 10.155)" fill="#fe7119"/>
    <path id="Path_29034" data-name="Path 29034" d="M550.392,47.725a11.052,11.052,0,0,0-11.05-11.052h-9.329V53.33a11.051,11.051,0,0,0,11.05,11.052h9.328Z" transform="translate(43.882 2.66)" fill="#fff"/>
    <path id="Path_29035" data-name="Path 29035" d="M542.7,72.149a6.949,6.949,0,0,0,6.948-6.949V59.334H539.18a6.949,6.949,0,0,0-6.948,6.949v5.866Z" transform="translate(44.616 10.155)" fill="#fff"/>
    <path id="Path_29036" data-name="Path 29036" d="M563.271,59.335a10.607,10.607,0,0,1,10.609,10.607V78.9h-15.99a10.608,10.608,0,0,1-10.607-10.609V59.335Z" transform="translate(49.593 10.155)" fill="#fff"/>
    <path id="Path_29037" data-name="Path 29037" d="M547.282,43.949A15.32,15.32,0,0,1,562.6,28.63h12.932V51.719a15.322,15.322,0,0,1-15.321,15.322H547.282Z" transform="translate(49.593 0)" fill="#fff"/>
  </g>
</svg>
