<svg xmlns="http://www.w3.org/2000/svg" width="215.79" height="57.953" viewBox="0 0 215.79 57.953">
  <g id="LOGO-ICHILOV-WHITE" transform="translate(-1740.21 -21)">
    <g id="Group_16552" data-name="Group 16552" transform="translate(1740.21 23.166)">
      <path id="Path_19364" data-name="Path 19364" d="M240.74,262.381c0-1.86-.944-2.885-2.658-2.885h-3.548v1.525h3.182c.8,0,1.167.432,1.167,1.36v4.87H234.36v1.525h7.48V267.25h-1.1Z" transform="translate(-234.36 -259.496)" fill="rgba(255,255,255,0.9)"/>
      <path id="Path_19365" data-name="Path 19365" d="M252.426,259.5h-2.78v1.56h1.293V264.9l1.857-.254v-4.82a.368.368,0,0,0-.37-.335" transform="translate(-241.701 -259.496)" fill="rgba(255,255,255,0.9)"/>
      <path id="Path_19366" data-name="Path 19366" d="M265.023,262.381c0-1.86-.944-2.885-2.657-2.885h-3.548v1.525H262c.8,0,1.167.432,1.167,1.36v4.87h-4.523v1.525h7.48V267.25h-1.1Z" transform="translate(-246.022 -259.496)" fill="rgba(255,255,255,0.9)"/>
    </g>
    <path id="Path_19367" data-name="Path 19367" d="M283.912,260.629h.77V259.1h-2.174l-1.629,4.282-3.456-4.706-1.326,1.155,1.437,1.9-2.1,6.626h1.892l1.56-5.134,1.368,2.048,3.379,3.433,1.277-1.276-2.744-2.691Z" transform="translate(1486.125 -235.939)" fill="rgba(255,255,255,0.9)"/>
    <rect id="Rectangle_2319" data-name="Rectangle 2319" width="3.463" height="1.525" transform="translate(1771.73 27.06)" fill="rgba(255,255,255,0.9)"/>
    <g id="Group_16553" data-name="Group 16553" transform="translate(1775.29 21)">
      <path id="Path_19368" data-name="Path 19368" d="M309.332,258.021a.5.5,0,0,0-.526-.526h-5.114v-2.166h-1.84v3.691h5.463l-3.6,7.754h1.976l3.624-7.724Z" transform="translate(-301.852 -255.329)" fill="rgba(255,255,255,0.9)"/>
      <path id="Path_19369" data-name="Path 19369" d="M321.813,259.5h-4.736v7.754h-1.362v1.524h2.815a.4.4,0,0,0,.4-.387v-7.367h2.511c.8,0,1.167.432,1.167,1.36v6.394h1.857v-6.394c0-1.86-.944-2.885-2.658-2.885" transform="translate(-308.509 -257.33)" fill="rgba(255,255,255,0.9)"/>
      <path id="Path_19370" data-name="Path 19370" d="M346.738,259.5h-2.779v1.56h1.292V264.9l1.857-.254v-4.82a.368.368,0,0,0-.37-.335" transform="translate(-322.073 -257.33)" fill="rgba(255,255,255,0.9)"/>
    </g>
    <path id="Path_19371" data-name="Path 19371" d="M360.861,260.629h.77V259.1h-2.173l-1.629,4.282-3.457-4.706-1.326,1.155,1.438,1.9-2.1,6.626h1.892l1.56-5.134,1.368,2.048,3.379,3.433,1.277-1.276-2.744-2.691Z" transform="translate(1449.172 -235.939)" fill="rgba(255,255,255,0.9)"/>
    <g id="Group_16554" data-name="Group 16554" transform="translate(1812.125 23.166)">
      <path id="Path_19372" data-name="Path 19372" d="M375.363,259.5h-2.64v1.525h1.152v7.754h1.857v-8.944a.342.342,0,0,0-.37-.335" transform="translate(-372.723 -259.496)" fill="rgba(255,255,255,0.9)"/>
      <path id="Path_19373" data-name="Path 19373" d="M388.936,259.5h-6.407l-.771,5.007a.725.725,0,0,0,.162.584.642.642,0,0,0,.484.23h2.658v-1.455h-1.442l.408-2.841h3.439v4.538c0,1.186-.516,1.691-1.727,1.691H381.79v1.524H386.4a2.815,2.815,0,0,0,2.9-2.919v-6.007a.357.357,0,0,0-.369-.352" transform="translate(-377.057 -259.496)" fill="rgba(255,255,255,0.9)"/>
      <path id="Path_19374" data-name="Path 19374" d="M404.816,259.5h-5.749v1.525h4.313v7.754h1.857v-8.892a.4.4,0,0,0-.422-.387" transform="translate(-385.374 -259.496)" fill="rgba(255,255,255,0.9)"/>
      <path id="Path_19375" data-name="Path 19375" d="M419.559,259.5h-4.631v1.525h4.264c.8,0,1.167.432,1.167,1.36v6.394H422.2v-6.394c0-1.86-.937-2.885-2.64-2.885" transform="translate(-392.991 -259.496)" fill="rgba(255,255,255,0.9)"/>
    </g>
    <path id="Path_19376" data-name="Path 19376" d="M414.928,272.386h1.857v-5.371l-1.857.232Z" transform="translate(1419.134 -239.942)" fill="rgba(255,255,255,0.9)"/>
    <path id="Path_19377" data-name="Path 19377" d="M436.277,261.021h1.17l.89,7.754h1.915l-1.047-7.754h1.461V259.5h-4.389Z" transform="translate(1408.882 -236.331)" fill="rgba(255,255,255,0.9)"/>
    <g id="Group_16555" data-name="Group 16555" transform="translate(1850.574 23.166)">
      <path id="Path_19378" data-name="Path 19378" d="M452.652,259.5h-5.958v1.525H451.2v4.538c0,1.186-.516,1.691-1.726,1.691h-2.779v1.524h3.425a2.823,2.823,0,0,0,2.919-2.919v-6.007a.371.371,0,0,0-.387-.352" transform="translate(-446.694 -259.496)" fill="rgba(255,255,255,0.9)"/>
      <path id="Path_19379" data-name="Path 19379" d="M467.429,259.5H461.68v1.525h4.314v7.754h1.857v-8.892a.4.4,0,0,0-.422-.387" transform="translate(-453.891 -259.496)" fill="rgba(255,255,255,0.9)"/>
      <path id="Path_19380" data-name="Path 19380" d="M481.048,259.5h-4.683v1.525h1.289l-.961,7.754h1.9l.838-7.754h1.632a1.268,1.268,0,0,1,1,.342,2.053,2.053,0,0,1,.592,1.471v4.415h-2.2v1.524h3.609l.422-1.189.009-4.751a3.245,3.245,0,0,0-3.443-3.339" transform="translate(-460.943 -259.496)" fill="rgba(255,255,255,0.9)"/>
      <path id="Path_19381" data-name="Path 19381" d="M500.182,259.5h-4.631v1.525h4.264c.8,0,1.168.432,1.168,1.36v6.394h1.839v-6.394c0-1.86-.938-2.885-2.64-2.885" transform="translate(-470.157 -259.496)" fill="rgba(255,255,255,0.9)"/>
    </g>
    <path id="Path_19382" data-name="Path 19382" d="M495.551,272.386h1.857v-5.371l-1.857.232Z" transform="translate(1380.416 -239.942)" fill="rgba(255,255,255,0.9)"/>
    <g id="Group_16556" data-name="Group 16556" transform="translate(1740.262 38.646)">
      <path id="Path_19383" data-name="Path 19383" d="M335.337,303.993V291.974h-1.4v-2.089h3.67a.344.344,0,0,1,.364.333v12.26a14.863,14.863,0,0,0,4.428.939V289.885h2.638v13.562c2.912-.333,4.671-2.179,4.671-3.965v-9.6h2.669v9.566c0,3.693-3.76,6.206-8.583,6.206a24.159,24.159,0,0,1-8.462-1.665m-11.25-4.541v-4.874c0-1.695-.91-2.6-2.76-2.6h-4.61v7.477a3.937,3.937,0,0,0,3.852,4.117c2.942,0,3.518-2.482,3.518-4.117m-10.009-.03v-9.536h8.31c2.517,0,4.368,1.7,4.368,4.753v4.783c0,3.118-1.7,6.236-6.187,6.236-4.428,0-6.49-3.118-6.49-6.236m-6.673,5.994V291.974h-2v-2.089h4.307c.212,0,.364.121.364.3v15.227Zm-7.583,0V291.974h-7.491v-2.089h9.706a.418.418,0,0,1,.455.393v15.136Zm-10.828.454-5.671-5.752-2.669-4-2.821,9.263h-2.7l3.579-11.261-2.426-3.209,1.881-1.635,6.126,8.325,2.942-7.72h3.306v2.089H289.3l-3.185,7.477,4.7,4.6Zm-18.987-6.418v-4.874c0-1.695-.91-2.6-2.76-2.6h-4.61v7.477a3.936,3.936,0,0,0,3.852,4.117c2.942,0,3.518-2.482,3.518-4.117M260,299.421v-9.536h8.31c2.517,0,4.368,1.7,4.368,4.753v4.783c0,3.118-1.7,6.236-6.187,6.236-4.428,0-6.49-3.118-6.49-6.236M243.5,296h2.669v14.258H243.5Zm5.338,9.414v-1.15l5.55-12.29H243.075v-2.089h13.557a.473.473,0,0,1,.485.454v1.907l-5.975,13.168Zm-12.132-6.751v-6.63h-2.244v-2.149h4.55a.363.363,0,0,1,.364.3V298.3Z" transform="translate(-234.461 -289.28)" fill="rgba(255,255,255,0.9)"/>
    </g>
    <path id="Path_19384" data-name="Path 19384" d="M472.3,293.6l-.849-.333.7-3.965v-2.755h2.76v2.543Zm-4.367,0-.819-.333.728-3.965v-2.755h2.729v2.543Z" transform="translate(1394.071 -249.319)" fill="rgba(255,255,255,0.9)"/>
    <g id="Group_16557" data-name="Group 16557" transform="translate(1802.122 39.252)">
      <path id="Path_19385" data-name="Path 19385" d="M485.644,307.609l-.728-2.3,4.277-1.332-3.609-13.532h2.7l3.245,12.9c1.79-.575,3.518-1.3,3.518-3.724v-7.083h-1.7v-2.089h3.973a.4.4,0,0,1,.395.363v8.779a5.633,5.633,0,0,1-4.034,5.267Z" transform="translate(-416.598 -290.445)" fill="rgba(255,255,255,0.9)"/>
      <path id="Path_19386" data-name="Path 19386" d="M364.4,339.248c0-3.271-1.611-5.072-4.537-5.072h-6.081v2.568h5.445c1.408,0,2.092.819,2.092,2.5v8.772h-7.841v2.567H366.3V348.02H364.4Z" transform="translate(-353.476 -311.446)" fill="rgba(255,255,255,0.9)"/>
      <path id="Path_19387" data-name="Path 19387" d="M384.368,334.176h-4.507v2.568h2v13.844h3.08V334.7a.529.529,0,0,0-.571-.52" transform="translate(-366.147 -311.446)" fill="rgba(255,255,255,0.9)"/>
      <path id="Path_19388" data-name="Path 19388" d="M406.465,330.6H397.53v-3.866h-3.049v6.434h9.513l-6.206,13.776-.031.068h3.271l6.261-13.748.019-1.8a.8.8,0,0,0-.844-.863" transform="translate(-373.168 -307.874)" fill="rgba(255,255,255,0.9)"/>
      <path id="Path_19389" data-name="Path 19389" d="M427.129,334.176H422.38v2.63h2.24v6.859l3.039-.426.041-.005V334.7a.577.577,0,0,0-.572-.52" transform="translate(-386.566 -311.446)" fill="rgba(255,255,255,0.9)"/>
      <path id="Path_19390" data-name="Path 19390" d="M447.665,334.176H437.407v2.568h7.811v8.18c0,2.142-.944,3.1-3.061,3.1h-4.749v2.568h5.869a4.9,4.9,0,0,0,4.991-5.135V334.727a.586.586,0,0,0-.6-.551" transform="translate(-393.783 -311.446)" fill="rgba(255,255,255,0.9)"/>
      <path id="Path_19391" data-name="Path 19391" d="M468.424,334.176h-4.749v2.63h2.24v6.859l3.039-.426.041-.005V334.7a.577.577,0,0,0-.572-.52" transform="translate(-406.397 -311.446)" fill="rgba(255,255,255,0.9)"/>
    </g>
    <path id="Path_19392" data-name="Path 19392" d="M489.812,343.518l3.073-7.445h1.31V333.5h-3.652l-2.85,7.718-5.991-8.4-.031-.044-2.158,1.936-.033.029,2.472,3.373-3.6,11.706-.02.062h3.131l2.732-9.257,2.442,3.767,5.776,6.044.035.036,2.074-2.139.033-.034Z" transform="translate(1388.688 -271.523)" fill="rgba(255,255,255,0.9)"/>
    <path id="Path_19393" data-name="Path 19393" d="M624.14,289.592H608.5L621.29,276.8l-4.37-4.369-15.882,15.881-.011-.012-4.366,4.369.01.011-.01.009,4.366,4.369.011-.01,15.882,15.882,4.37-4.37L608.5,295.77H624.14Z" transform="translate(1331.86 -242.543)" fill="rgba(255,255,255,0.9)"/>
    <path id="Path_19394" data-name="Path 19394" d="M561.943,292.671l-4.369-4.369-.011.011L541.68,272.432l-4.367,4.369L550.1,289.592H534.461v6.178H550.1l-12.791,12.791,4.367,4.37,15.882-15.882.011.01,4.369-4.369-.013-.01Z" transform="translate(1361.73 -242.543)" fill="rgba(255,255,255,0.9)"/>
    <path id="Path_19395" data-name="Path 19395" d="M593.994,334.217l-15.88-15.88.011-.011-4.368-4.369-.012.011-.01-.011-4.368,4.369.01.011L553.5,334.217l4.367,4.369,12.792-12.792v15.643h6.179V325.795l12.791,12.792Z" transform="translate(1352.589 -262.484)" fill="rgba(255,255,255,0.9)"/>
    <g id="Group_16558" data-name="Group 16558" transform="translate(1906.104 22.828)">
      <path id="Path_19396" data-name="Path 19396" d="M573.676,284.61l20.143-20.422s-12.349-12.793-20.144,1.219c-7.316-14.012-20.143-1.219-20.143-1.219l20.143,20.422" transform="translate(-553.532 -258.847)" fill="rgba(255,255,255,0.9)"/>
    </g>
  </g>
</svg>
