<svg xmlns="http://www.w3.org/2000/svg" xmlns:xlink="http://www.w3.org/1999/xlink" width="115.695" height="32.029" viewBox="0 0 115.695 32.029">
  <defs>
    <clipPath id="clip-path">
      <rect id="Rectangle_4405" data-name="Rectangle 4405" width="115.695" height="32.029" fill="none"/>
    </clipPath>
  </defs>
  <g id="Group_68592" data-name="Group 68592" transform="translate(4 0)">
    <g id="Group_68591" data-name="Group 68591" transform="translate(-4 0)" clip-path="url(#clip-path)">
      <path id="Path_35757" data-name="Path 35757" d="M56.348,10.409s.281,1.623-.573,5.788l-1.654,8.037h5.634L61.412,16.2a21.312,21.312,0,0,0,.572-5.788Z" transform="translate(-29.601 -5.693)" fill="#00862f"/>
      <path id="Path_35758" data-name="Path 35758" d="M141.415,10.409l-1.182,5.738h4.61c1.967,0,3.137,1.005,2.055,6.266-.964,4.688-2.492,6.266-4.578,6.266h-4.667L136.47,34.42h7.136c4.02,0,7.315-3.73,9.017-12.007,1.852-8.992-.726-12-4.072-12Z" transform="translate(-74.642 -5.693)" fill="#00862f"/>
      <path id="Path_35759" data-name="Path 35759" d="M76.639.612a13.193,13.193,0,0,1-.105,1.734c-.185,1.1-.461,2.728-.461,2.728-.464,3.432.3,5.739,3.862,5.739h1.71c3.059-.238,1.7,1.89.69,4.5L77.21,29.088h5.871l5.715-15.5c2.132-5.8.048-8.417-2.091-8.417-1.669,0-2.335-.047-3.7-.047-1.451,0-1.229-1.33-1-2.6.131-.734.092-1.487.139-1.908Z" transform="translate(-41.541 -0.334)" fill="#00862f"/>
      <path id="Path_35760" data-name="Path 35760" d="M5.538,26.28C4.476,31.062,2.4,29.913.991,29.668.586,31.463,0,34.176,0,34.176a25.849,25.849,0,0,0,4.6.439c3.025-.068,5.1-1.452,6.6-8.709l2.009-9.759h2.026c2.5,0,2.473,1.1,1.793,4.4L14.18,34.42h5.638l3.076-15.086c1.771-8.151-.825-8.907-4.636-8.907l-9.5-.018Z" transform="translate(0 -5.693)" fill="#00862f"/>
      <path id="Path_35761" data-name="Path 35761" d="M110.65.612a13.2,13.2,0,0,1-.106,1.734c-.187,1.1-.458,2.728-.458,2.728-.464,3.432.3,5.739,3.861,5.739h1.71c3.058-.238,1.7,1.89.689,4.5l-5.125,13.777h5.871l5.714-15.5c2.135-5.8.052-8.417-2.089-8.417-1.672,0-2.336-.047-3.7-.047-1.451,0-1.229-1.33-1-2.6.132-.734.092-1.487.139-1.908Z" transform="translate(-60.144 -0.334)" fill="#00862f"/>
      <path id="Path_35762" data-name="Path 35762" d="M199.793.857l-7.326,6.148a1.68,1.68,0,0,1-1.124.411l-4.89,0a.886.886,0,0,0-.811.656l-.959,4.578a.516.516,0,0,0,.534.632h8.727a2.208,2.208,0,0,0,1.527-.53l5.272-4.406a.817.817,0,0,1,.579-.209.869.869,0,0,1,.642.279l3.481,4.157a2.073,2.073,0,0,0,1.682.723h7.812a.828.828,0,0,0,.772-.645l.976-4.6a.507.507,0,0,0-.51-.637l-6.585-.008a.788.788,0,0,1-.641-.3L203.73.881A2.311,2.311,0,0,0,201.862,0a2.961,2.961,0,0,0-2.068.857" transform="translate(-101.005 0)" fill="#0090df"/>
      <path id="Path_35763" data-name="Path 35763" d="M181.175,41.355a.826.826,0,0,0-.771.64l-.975,4.6a.507.507,0,0,0,.507.642l6.589,0a.78.78,0,0,1,.639.3l5.222,6.226a2.307,2.307,0,0,0,1.863.879,2.994,2.994,0,0,0,2.075-.853l7.32-6.146a1.676,1.676,0,0,1,1.126-.417h4.891a.9.9,0,0,0,.814-.654L211.433,42a.516.516,0,0,0-.534-.63h-8.725a2.2,2.2,0,0,0-1.529.528l-5.275,4.4a.8.8,0,0,1-.575.213.85.85,0,0,1-.638-.279l-3.488-4.157a2.07,2.07,0,0,0-1.683-.72Z" transform="translate(-98.131 -22.618)" fill="#00862f"/>
    </g>
  </g>
</svg>
