<svg xmlns="http://www.w3.org/2000/svg" width="125.47" height="36.474" viewBox="0 0 125.47 36.474">
  <g id="Group_25351" data-name="Group 25351" transform="translate(-397.329 -28.63)">
    <path id="Path_29026" data-name="Path 29026" d="M488.142,66.559c0-.232-.081-.274-.3-.274h-.64V60.433c0-2.253-1.3-2.905-3.26-2.905a12.516,12.516,0,0,0-3.2.316c-.24.063-.18.189-.18.358V58.9c0,.169.1.232.3.21a23.366,23.366,0,0,1,2.359-.169c1.661,0,2.521.169,2.521,1.368v5.979h-5.181c-.22,0-.28.084-.28.295v.8c0,.19.04.295.28.295h7.321c.2,0,.26-.084.26-.316ZM478.982,63V57.969c0-.274-.06-.337-.28-.337h-.921c-.18,0-.28.063-.28.316V63c0,.274.06.358.28.358h.9C478.921,63.359,478.982,63.254,478.982,63Zm-2.92-4.611a.858.858,0,0,0,.04-.358c0-.232-.04-.4-.26-.4h-5.561V54.768c0-.252-.1-.336-.3-.336h-.88c-.24,0-.3.063-.3.336v3.9c0,.295.06.358.28.358h5.26l-2.92,8.274c-.06.19-.08.379.18.379h1.039c.18,0,.281-.21.38-.526ZM467.541,63V57.969c0-.274-.06-.337-.28-.337h-.92c-.18,0-.28.063-.28.316V63c0,.274.059.358.28.358h.9C467.481,63.359,467.541,63.254,467.541,63Zm-3.38,4.4v-6.99c0-2.021-.78-2.8-2.42-2.8a5.8,5.8,0,0,0-1.24.168c-.22.084-.24.169-.24.379v.632c0,.169.12.253.42.19a5.785,5.785,0,0,1,.74-.063c.86,0,1.28.295,1.28,1.116v6.253h-2.46c-.2,0-.281.063-.281.316v.779c0,.232.04.295.281.295h3.64C464.041,67.675,464.161,67.633,464.161,67.4Zm-6.921-3.663c0,1.642-.8,2.737-2.26,2.737h-.72c-1.58,0-2.28-.842-2.28-2.716V61.464c0-1.979.72-2.632,2.12-2.632h.88c1.46,0,2.26.569,2.26,2.716Zm1.5-1.242a8.153,8.153,0,0,0-.58-3.537c-.66-1.1-1.7-1.494-3.541-1.494h-.02c-1.82,0-2.88.442-3.561,1.579a8.031,8.031,0,0,0-.58,3.642,7.322,7.322,0,0,0,.72,3.769c.72,1.074,1.82,1.368,3.42,1.368h.02c1.66,0,2.6-.4,3.281-1.39A7.018,7.018,0,0,0,458.74,62.5Zm-10.1,4.821V57.969c0-.274-.08-.337-.28-.337h-.9q-.3,0-.3.316v9.369c0,.232.02.358.28.358h.9C448.519,67.675,448.64,67.612,448.64,67.317Zm-3.48,4.211V58.011c0-.252-.02-.379-.28-.379h-.921c-.24,0-.28.147-.28.379V71.528c0,.253.02.358.28.358h.9C445.1,71.886,445.16,71.76,445.16,71.528Zm-19.321-4.211V62.2c0-.253-.02-.316-.22-.316h-.56c-.18,0-.24.084-.32.273a4.186,4.186,0,0,0-.38,1.727v3.432c0,.273.06.358.28.358h.9C425.758,67.675,425.838,67.591,425.838,67.317Zm6.04,0V60.054c0-2.19-1.56-2.526-4.06-2.526a19.255,19.255,0,0,0-3.24.273c-.34.063-.46.169-.46.379V58.9c0,.295.18.253.481.21.959-.084,1.939-.189,2.88-.189,2.24,0,2.92.084,2.92,1.347v7.053c0,.253.08.358.3.358h.9C431.839,67.675,431.878,67.57,431.878,67.317Zm-9.22-9.328c.04-.231,0-.358-.221-.358h-1.02c-.18,0-.24.063-.28.232l-1.32,6.822a1.983,1.983,0,0,1-2.28,1.769h-.9a1.544,1.544,0,0,1-1.8-1.494l-.06-.421,1.16-.484A2.6,2.6,0,0,0,417.6,61.8l.64-3.832c.04-.253-.021-.337-.221-.337h-.94c-.26,0-.32.084-.36.358l-.54,3.79A1.922,1.922,0,0,1,415,63.507l-.36.126-.8-5.685c-.04-.232-.1-.316-.36-.316h-.96c-.22,0-.26.127-.22.358l1.06,6.78c.36,2.253,1.44,3.011,3.38,3.011h.64c2.08,0,3.52-.632,4.02-3.263Zm-11.841,9.369V60.537c0-1.958-1.18-2.99-3.681-2.99a9.174,9.174,0,0,0-2.86.316c-.32.106-.3.19-.3.4v.589c0,.274.14.274.44.232a17,17,0,0,1,2.4-.168c2.1,0,2.521.526,2.521,1.6V67.38c0,.253.08.295.3.295h.88C410.717,67.675,410.818,67.591,410.818,67.359Zm-8.2-.042V57.969c0-.274-.081-.337-.28-.337h-.9q-.3,0-.3.316v9.369c0,.232.02.358.28.358h.9C402.5,67.675,402.618,67.612,402.618,67.317Zm-3.481,4.211V58.011c0-.252-.02-.379-.28-.379h-.92c-.24,0-.28.147-.28.379V71.528c0,.253.02.358.28.358h.9C399.077,71.886,399.137,71.76,399.137,71.528Z" transform="translate(-0.088 -6.89)" fill="#003821"/>
    <path id="Path_29027" data-name="Path 29027" d="M488.142,66.559c0-.232-.081-.274-.3-.274h-.64V60.433c0-2.253-1.3-2.905-3.26-2.905a12.516,12.516,0,0,0-3.2.316c-.24.063-.18.189-.18.358V58.9c0,.169.1.232.3.21a23.366,23.366,0,0,1,2.359-.169c1.661,0,2.521.169,2.521,1.368v5.979h-5.181c-.22,0-.28.084-.28.295v.8c0,.19.04.295.28.295h7.321c.2,0,.26-.084.26-.316ZM478.982,63V57.969c0-.274-.06-.337-.28-.337h-.921c-.18,0-.28.063-.28.316V63c0,.274.06.358.28.358h.9C478.921,63.359,478.982,63.254,478.982,63Zm-2.92-4.611a.858.858,0,0,0,.04-.358c0-.232-.04-.4-.26-.4h-5.561V54.768c0-.252-.1-.336-.3-.336h-.88c-.24,0-.3.063-.3.336v3.9c0,.295.06.358.28.358h5.26l-2.92,8.274c-.06.19-.08.379.18.379h1.039c.18,0,.281-.21.38-.526ZM467.541,63V57.969c0-.274-.06-.337-.28-.337h-.92c-.18,0-.28.063-.28.316V63c0,.274.059.358.28.358h.9C467.481,63.359,467.541,63.254,467.541,63Zm-3.38,4.4v-6.99c0-2.021-.78-2.8-2.42-2.8a5.8,5.8,0,0,0-1.24.168c-.22.084-.24.169-.24.379v.632c0,.169.12.253.42.19a5.785,5.785,0,0,1,.74-.063c.86,0,1.28.295,1.28,1.116v6.253h-2.46c-.2,0-.281.063-.281.316v.779c0,.232.04.295.281.295h3.64C464.041,67.675,464.161,67.633,464.161,67.4Zm-6.921-3.663c0,1.642-.8,2.737-2.26,2.737h-.72c-1.58,0-2.28-.842-2.28-2.716V61.464c0-1.979.72-2.632,2.12-2.632h.88c1.46,0,2.26.569,2.26,2.716Zm1.5-1.242a8.153,8.153,0,0,0-.58-3.537c-.66-1.1-1.7-1.494-3.541-1.494h-.02c-1.82,0-2.88.442-3.561,1.579a8.031,8.031,0,0,0-.58,3.642,7.322,7.322,0,0,0,.72,3.769c.72,1.074,1.82,1.368,3.42,1.368h.02c1.66,0,2.6-.4,3.281-1.39A7.018,7.018,0,0,0,458.74,62.5Zm-10.1,4.821V57.969c0-.274-.08-.337-.28-.337h-.9q-.3,0-.3.316v9.369c0,.232.02.358.28.358h.9C448.519,67.675,448.64,67.612,448.64,67.317Zm-3.48,4.211V58.011c0-.252-.02-.379-.28-.379h-.921c-.24,0-.28.147-.28.379V71.528c0,.253.02.358.28.358h.9C445.1,71.886,445.16,71.76,445.16,71.528Zm-19.321-4.211V62.2c0-.253-.02-.316-.22-.316h-.56c-.18,0-.24.084-.32.273a4.186,4.186,0,0,0-.38,1.727v3.432c0,.273.06.358.28.358h.9C425.758,67.675,425.838,67.591,425.838,67.317Zm6.04,0V60.054c0-2.19-1.56-2.526-4.06-2.526a19.255,19.255,0,0,0-3.24.273c-.34.063-.46.169-.46.379V58.9c0,.295.18.253.481.21.959-.084,1.939-.189,2.88-.189,2.24,0,2.92.084,2.92,1.347v7.053c0,.253.08.358.3.358h.9C431.839,67.675,431.878,67.57,431.878,67.317Zm-9.22-9.328c.04-.231,0-.358-.221-.358h-1.02c-.18,0-.24.063-.28.232l-1.32,6.822a1.983,1.983,0,0,1-2.28,1.769h-.9a1.544,1.544,0,0,1-1.8-1.494l-.06-.421,1.16-.484A2.6,2.6,0,0,0,417.6,61.8l.64-3.832c.04-.253-.021-.337-.221-.337h-.94c-.26,0-.32.084-.36.358l-.54,3.79A1.922,1.922,0,0,1,415,63.507l-.36.126-.8-5.685c-.04-.232-.1-.316-.36-.316h-.96c-.22,0-.26.127-.22.358l1.06,6.78c.36,2.253,1.44,3.011,3.38,3.011h.64c2.08,0,3.52-.632,4.02-3.263Zm-11.841,9.369V60.537c0-1.958-1.18-2.99-3.681-2.99a9.174,9.174,0,0,0-2.86.316c-.32.106-.3.19-.3.4v.589c0,.274.14.274.44.232a17,17,0,0,1,2.4-.168c2.1,0,2.521.526,2.521,1.6V67.38c0,.253.08.295.3.295h.88C410.717,67.675,410.818,67.591,410.818,67.359Zm-8.2-.042V57.969c0-.274-.081-.337-.28-.337h-.9q-.3,0-.3.316v9.369c0,.232.02.358.28.358h.9C402.5,67.675,402.618,67.612,402.618,67.317Zm-3.481,4.211V58.011c0-.252-.02-.379-.28-.379h-.92c-.24,0-.28.147-.28.379V71.528c0,.253.02.358.28.358h.9C399.077,71.886,399.137,71.76,399.137,71.528Z" transform="translate(-0.088 -6.89)" fill="none" stroke="#003821" stroke-width="0.216"/>
    <path id="Path_29028" data-name="Path 29028" d="M487.077,44.233V41.915c0-1.872-1.166-2.26-2.476-2.26-1.41,0-1.655.13-2.3.763a6.719,6.719,0,0,0-.46-.49l-.231-.23c-.158-.158-.215-.158-.418.029l-.316.288a.381.381,0,0,0-.173.273c0,.086.087.158.173.245l.3.345a.575.575,0,0,1,.2.461v4.98c0,.144.029.245.2.245h.648c.187,0,.215-.057.215-.245V41.166a.339.339,0,0,1,.23-.317,2.254,2.254,0,0,1,1.181-.2h.575c.994,0,1.6.245,1.6,1.324v2.375c0,.907-.389,1.324-1.3,1.324-.173,0-.662,0-.878-.014s-.3.014-.3.187v.418c0,.1-.014.144.173.215a4.384,4.384,0,0,0,1.238.158,2.106,2.106,0,0,0,2.116-2.4m-8.487,2.116V41.684c0-1.338-.849-2.044-2.649-2.044a6.927,6.927,0,0,0-2.058.216c-.231.072-.216.13-.216.273v.4c0,.187.1.187.317.158a12.933,12.933,0,0,1,1.728-.115c1.512,0,1.814.36,1.814,1.094v4.692c0,.173.057.2.216.2h.633C478.518,46.564,478.59,46.507,478.59,46.349Zm-6.947-3.21c0-1.9-.259-2.591-.921-3.066a3.618,3.618,0,0,0-1.914-.432,7.018,7.018,0,0,0-1.843.2c-.23.073-.288.144-.288.273v.446c0,.158.115.173.331.144a11.5,11.5,0,0,1,1.568-.1c1.08,0,1.958.158,1.958,1.324v2.39c0,1.151-.72,1.324-1.814,1.324a10.544,10.544,0,0,1-1.742-.086c-.23-.029-.3-.014-.3.158v.461c0,.115,0,.187.245.245a8.8,8.8,0,0,0,1.886.2,2.805,2.805,0,0,0,2.116-.691C471.4,45.427,471.643,44.678,471.643,43.138Zm-6.875-2.85v-.36c0-.187-.072-.23-.216-.23H461.3c-.188,0-.216.043-.216.23V40.4c0,.188.029.231.23.231h1.4a3.049,3.049,0,0,0-.662,1.9,7,7,0,0,0,.13,1.123l.475,2.706c.029.158.087.2.245.2h.69c.144,0,.173-.072.144-.259L463.2,43.44a7.124,7.124,0,0,1-.158-1.165,2.841,2.841,0,0,1,.2-1.2,1.1,1.1,0,0,1,.706-.46l.619-.1C464.753,40.49,464.768,40.461,464.768,40.288Zm-11.975,6.061V41.684c0-1.338-.849-2.044-2.648-2.044a6.935,6.935,0,0,0-2.059.216c-.23.072-.216.13-.216.273v.4c0,.187.1.187.317.158a12.95,12.95,0,0,1,1.728-.115c1.512,0,1.814.36,1.814,1.094v4.692c0,.173.058.2.216.2h.633C452.721,46.564,452.793,46.507,452.793,46.349Zm-7.019-2.217V41.972a2.43,2.43,0,0,0-.532-1.7c-.4-.432-1.022-.633-2.289-.633a10,10,0,0,0-2.231.245c-.245.058-.331.115-.331.23v3.11c0,.287.043.36.317.36h2.274c.216,0,.23-.058.23-.2v-.49c0-.158-.057-.2-.244-.2h-1.483c-.044,0-.073.015-.073-.043V40.6c.375-.029,1.483-.029,1.886-.029,1.123,0,1.382.345,1.382,1.238v2.764c0,.662-.244,1.094-1.511,1.094-.432,0-1.684-.043-2.576-.1-.173-.015-.245.058-.245.187v.418c0,.115.043.187.215.215a13.71,13.71,0,0,0,2.534.231C445.156,46.622,445.774,45.672,445.774,44.132Zm-8.012,2.188V39.928c0-.187-.058-.23-.2-.23h-.648a.191.191,0,0,0-.216.216v6.405c0,.158.015.245.2.245h.648C437.676,46.564,437.762,46.521,437.762,46.319Zm-3.262.245c.1,0,.158-.144.073-.259l-2.145-2.778.6-.6a3.305,3.305,0,0,0,.95-1.713l.288-1.267c.043-.173,0-.245-.158-.245h-.705a.209.209,0,0,0-.231.158l-.345,1.54a3.17,3.17,0,0,1-.792,1.627h-.029l-2.375-3.167a.334.334,0,0,0-.317-.158h-.806c-.1,0-.144.173-.072.259l1.814,2.39-.561.575a3.553,3.553,0,0,0-.849,1.67l-.418,1.756c-.043.158,0,.215.115.215h.749c.115,0,.172-.043.2-.173l.4-1.64c.244-1.022.374-1.627.762-1.915l2.735,3.57c.115.144.144.158.273.158Zm-8.185-3.2v-3.44c0-.187-.043-.23-.2-.23h-.663c-.13,0-.2.043-.2.216v3.454c0,.187.043.245.2.245h.648C426.272,43.613,426.315,43.542,426.315,43.369Zm-9.786,2.98V41.684c0-1.338-.849-2.044-2.649-2.044a6.933,6.933,0,0,0-2.058.216c-.23.072-.216.13-.216.273v.4c0,.187.1.187.317.158a12.94,12.94,0,0,1,1.728-.115c1.511,0,1.814.36,1.814,1.094v4.692c0,.173.057.2.215.2h.634C416.457,46.564,416.529,46.507,416.529,46.349Zm-6.674-.548c0-.158-.057-.187-.215-.187h-.461v-4c0-1.54-.935-1.986-2.346-1.986a9.5,9.5,0,0,0-2.3.215c-.173.043-.13.13-.13.245v.475c0,.116.072.158.216.144.5-.058,1.237-.115,1.7-.115,1.195,0,1.813.115,1.813.935v4.088H404.4c-.158,0-.2.057-.2.2v.547c0,.13.029.2.2.2h5.268c.144,0,.187-.057.187-.215Zm-7.81-2.433v-3.44c0-.187-.043-.23-.2-.23h-.662c-.13,0-.2.043-.2.216v3.454c0,.187.044.245.2.245h.647C402,43.613,402.045,43.542,402.045,43.369Zm-3.65,5.83V39.957c0-.172-.015-.259-.2-.259h-.662c-.172,0-.2.1-.2.259V49.2c0,.173.015.245.2.245h.648C398.351,49.443,398.395,49.357,398.395,49.2Z" transform="translate(0 -2.925)" fill="#003821"/>
    <path id="Path_29029" data-name="Path 29029" d="M453.123,65.94c0-1.258-.221-1.555-1.321-1.555-1.069,0-1.32.364-1.32,1.555,0,1.258.188,1.489,1.32,1.489,1.069,0,1.321-.3,1.321-1.489" transform="translate(-14.194 -9.548)" fill="#33a02c"/>
    <path id="Path_29030" data-name="Path 29030" d="M556.088,59.335a5.842,5.842,0,0,1,5.843,5.842v4.932h-8.807a5.843,5.843,0,0,1-5.842-5.843V59.335Z" transform="translate(-40.045 -8.2)" fill="#ed171f"/>
    <path id="Path_29031" data-name="Path 29031" d="M547.282,37.068a8.438,8.438,0,0,1,8.439-8.438h7.123V41.347a8.439,8.439,0,0,1-8.439,8.439h-7.123Z" transform="translate(-40.045 0)" fill="#18964c"/>
    <path id="Path_29032" data-name="Path 29032" d="M541.237,42.76a6.087,6.087,0,0,0-6.086-6.087h-5.138v9.174a6.087,6.087,0,0,0,6.086,6.087h5.138Z" transform="translate(-35.433 -2.148)" fill="#b3dc1f"/>
    <path id="Path_29033" data-name="Path 29033" d="M538,66.392a3.827,3.827,0,0,0,3.827-3.827V59.334h-5.768a3.827,3.827,0,0,0-3.827,3.827v3.231Z" transform="translate(-36.026 -8.199)" fill="#fe7119"/>
    <path id="Path_29034" data-name="Path 29034" d="M541.237,42.76a6.087,6.087,0,0,0-6.086-6.087h-5.138v9.174a6.087,6.087,0,0,0,6.086,6.087h5.138Z" transform="translate(-35.433 -2.148)" fill="#b3dc1f"/>
    <path id="Path_29035" data-name="Path 29035" d="M538,66.392a3.827,3.827,0,0,0,3.827-3.827V59.334h-5.768a3.827,3.827,0,0,0-3.827,3.827v3.231Z" transform="translate(-36.026 -8.199)" fill="#fe7119"/>
    <path id="Path_29036" data-name="Path 29036" d="M556.088,59.335a5.842,5.842,0,0,1,5.843,5.842v4.932h-8.807a5.843,5.843,0,0,1-5.842-5.843V59.335Z" transform="translate(-40.045 -8.2)" fill="#ed171f"/>
    <path id="Path_29037" data-name="Path 29037" d="M547.282,37.068a8.438,8.438,0,0,1,8.439-8.438h7.123V41.347a8.439,8.439,0,0,1-8.439,8.439h-7.123Z" transform="translate(-40.045 0)" fill="#18964c"/>
  </g>
</svg>
