<svg xmlns="http://www.w3.org/2000/svg" xmlns:xlink="http://www.w3.org/1999/xlink" width="137.14" height="137.14" viewBox="0 0 137.14 137.14">
  <defs>
    <clipPath id="clip-path">
      <circle id="Ellipse_1124" data-name="Ellipse 1124" cx="68.57" cy="68.57" r="68.57" transform="translate(1.43 1.43)"/>
    </clipPath>
  </defs>
  <g id="Group_117514" data-name="Group 117514" transform="translate(3097 478)">
    <circle id="Ellipse_891_00000043447419308030904690000012514964738224083888_" cx="68.57" cy="68.57" r="68.57" transform="translate(-3097 -478)" fill="#f2f2f2"/>
    <g id="Group_117513" data-name="Group 117513" transform="translate(-3098.43 -479.43)">
      <g id="Group_117512" data-name="Group 117512" clip-path="url(#clip-path)">
        <path id="Path_38931" data-name="Path 38931" d="M36.217,48.949l2.956-1.8,6-.183,3.565,10.765-.7,15.3-5.158,1.762L39,71.727l-3.478-7.042-1.043-6.918V50.585Z" fill="#6a4136"/>
        <path id="Path_38932" data-name="Path 38932" d="M104.164,48.949l-2.956-1.8-6-.183L91.645,57.731l.695,15.3L97.5,74.793l3.884-3.066,3.477-7.042,1.044-6.918V50.585Z" fill="#6a4136"/>
        <path id="Path_38933" data-name="Path 38933" d="M89.478,101.658c.093,2.206.086,4.07.251,6.271.232,3.094.616,2.828,2.326,3.709,2.4.309,5.694-.272,8.113.261a33.42,33.42,0,0,1-2.282,8.872,56.508,56.508,0,0,1-3,6.048,27.668,27.668,0,0,1-9.308,8.708,31.853,31.853,0,0,1-11.925,4.161,30.559,30.559,0,0,1-18.788-3.646c-4.285-2.446-8.226-5.536-10.552-9.952a37.359,37.359,0,0,1-3.35-10.358c-.037-.2-.233-2.36-.293-2.656,2.2-.542,4.946-.772,7.148-1.211a2.666,2.666,0,0,0,2.467-2.9c.077-2.561-.289-7.674-.11-10.423.542.3-.033-4.383.423-4.041.169.438,8.89,1.781,10.051,2.463,1.485.873,11.846,1.172,13.446.732,1.756-.483,14.79-.928,15.643-1.731C89.829,95.88,89.315,101.67,89.478,101.658Z" fill="#6f4539"/>
        <path id="Path_38934" data-name="Path 38934" d="M97.078,61.621c-.392,2.473-1.454,4.757-1.18,7.116.246,2.112.128,4.194.257,6.317s.264,4.26.227,6.388c-.074,4.309-1.826,9.327-3.818,13.21a16.255,16.255,0,0,1-8.776,8.04,36.919,36.919,0,0,1-9.4,2.32c-1.178.132-2.348.414-3.526.437a28.336,28.336,0,0,1-4.288-.248,45.13,45.13,0,0,1-9.2-2.1,16.794,16.794,0,0,1-7.2-4.557c-1.63-1.836-3.739-4.172-4.632-6.433a24.8,24.8,0,0,1-1.786-9.856c.051-1.89-.044-3.784.034-5.672.079-1.919-.011-5.975.081-7.894.134-2.78.566-9.7.567-10.957,0-1.763.38-3.915.4-5.677.036-3.366-1.193-6.794-.966-10.15a63.736,63.736,0,0,1,1.776-11.093c.119-.429,2.917-4.409,3.089-4.973,2.587.876,44.474.588,44.76.538.138.884.953,9.435.99,10.307.191,4.469.4,8.939.471,13.41.044,2.953,1.4,3.89,1.309,6.844-.026.818.316,2.954.278,3.877Z" fill="#6e4539"/>
        <g id="Group_117506" data-name="Group 117506">
          <path id="Path_38935" data-name="Path 38935" d="M25.456,280.939c-.759-.215-1.518-.429-2.372-.637a81.272,81.272,0,0,1-10.14-3.557.238.238,0,0,1-.138-.257c.2-1.238.4-2.457.6-3.678.643-4.046,1.352-8.082,1.9-12.14.559-4.1.985-8.21,1.423-12.322.178-1.67.257-3.351.339-5.029.168-3.439.379-6.877.442-10.318.07-3.82.009-7.643-.024-11.464-.01-1.145-.114-2.29-.186-3.664-.038-2.519-.066-4.809-.08-7.205a.162.162,0,0,0,0-.022c-.047-.544-.152-.983-.161-1.423q-.15-7.407-.275-14.814c0-.245-.028-.489-.031-.845-.082-2.317-.176-4.529-.27-6.735a.239.239,0,0,0-.2-.225c-1.857-.275-3.612-.514-5.36-.8a53.276,53.276,0,0,1-14.7-4.614c-.508-.247-1.053-.419-1.63-.691l-.018-.009c-.595-.337-1.14-.61-1.685-.881a.161.161,0,0,1-.028-.017q-3.645-2.5-7.286-5.009c-.39-.27-.745-.593-1.149-.931a.239.239,0,0,1-.063-.286,5.4,5.4,0,0,1,.422-.79C-11.545,167.447-9.137,161.7-7,155.826c2.454-6.748,4.81-13.532,7.3-20.266A41.76,41.76,0,0,1,5,126.231a19.075,19.075,0,0,1,12.276-8.4,13.991,13.991,0,0,1,5.493-.208A4.449,4.449,0,0,0,25.915,117a53.467,53.467,0,0,1,10.491-4.22c1.454-.432,3.154-.848,4.7-1.144a.239.239,0,0,1,.278.183c.16.739.027,1.468.119,2.217l0,.021c.059.29.133.482.169.68a34.176,34.176,0,0,0,3.37,9.856,25.161,25.161,0,0,0,10.041,10.224,29.68,29.68,0,0,0,18.5,3.626,28.564,28.564,0,0,0,11.379-3.656,25.317,25.317,0,0,0,8.873-8.358,32.732,32.732,0,0,0,4.641-12.572c.106-.725.192-1.375.275-2.017.018-.138-.038-.266.1-.236a60.63,60.63,0,0,1,15.541,5.534,4.563,4.563,0,0,0,2.951.477,16.925,16.925,0,0,1,9.578,1.553,21.061,21.061,0,0,1,9.6,9.408,87.5,87.5,0,0,1,5.625,13.115c1.995,5.564,3.886,11.166,5.9,16.722a75.549,75.549,0,0,0,5.544,11.673c.406.711.914,1.364,1.366,2.05.253.384.493.776.756,1.2a.24.24,0,0,1-.051.312,64.309,64.309,0,0,1-8.415,5.852c-.645.331-1.145.592-1.725.885a59.081,59.081,0,0,1-21.638,6.177.238.238,0,0,0-.208.185c-.488,2.284-.192,4.5-.275,6.8-.084,1.831-.19,3.545-.233,5.261-.1,3.971-.168,7.942-.255,12.028-.078,1.626-.154,3.137-.218,4.649-.014.325.031.653.034.98,0,.479-.007.958-.011,1.437a247.122,247.122,0,0,0,4.63,58.531.239.239,0,0,1-.133.262,78.884,78.884,0,0,1-10.1,3.6l-.015,0c-.8.189-1.511.36-2.4.6-.542.125-.913.159-1.27.249a152.863,152.863,0,0,1-24.751,4.12c-4.417.369-8.841.738-13.269.875-4.063.125-8.135-.054-12.2-.113a135.268,135.268,0,0,1-16.693-1.278c-4.428-.616-8.843-1.342-13.246-2.119-2.627-.464-5.218-1.12-7.825-1.69M16.025,166.3c0-.658.011-1.316-.006-1.974-.06-2.379-.147-4.758-.179-7.137a3.327,3.327,0,0,1,.279-1.047.236.236,0,0,1,.212-.158h0a.239.239,0,0,1,.225.133A3.349,3.349,0,0,1,17,157.123c.285,2.11.569,4.222.749,6.343.222,2.613.37,5.234.5,7.854.12,2.5.2,5,.249,7.507.107,5.34.187,10.68.272,16.021.018,1.151-.012,2.3.029,3.454.043,1.187.138,2.373.224,3.558.154,2.121.35,4.24.469,6.364s.17,4.264.242,6.4c.092,2.707.258,5.415.248,8.122-.019,5.546-.117,11.091-.219,16.636-.037,2.007-.164,4.013-.275,6.017q-.083,1.5-.242,2.992c-.3,2.792-.628,5.583-.953,8.373-.261,2.237-.476,4.481-.815,6.706-.555,3.642-1.179,7.274-1.812,10.9-.1.557.03.871.533,1.06.384.144.77.286,1.157.423a100.6,100.6,0,0,0,13.97,3.947c4.016.8,8.041,1.575,12.088,2.183,3.276.492,6.589.756,9.892,1.055,3.1.281,6.205.615,9.312.679,6.532.134,13.068.137,19.6-.217.123-.007.246-.014.369-.026,2.4-.229,4.81-.452,7.213-.691,1.752-.174,3.513-.3,5.252-.568,3.277-.5,6.544-1.072,9.811-1.638a110.832,110.832,0,0,0,17.367-4.521c.679-.235,1.335-.536,2.046-.833a.238.238,0,0,0,.146-.236c-.028-.431-.036-.828-.1-1.215-.2-1.212-.463-2.414-.639-3.629-.608-4.213-1.227-8.426-1.77-12.648q-.673-5.236-1.179-10.494c-.232-2.364-.37-4.739-.493-7.112s-.245-4.757-.243-7.136c0-3.325.108-6.65.195-9.974.059-2.256.165-4.511.243-6.766q.13-3.753.249-7.506c.082-2.5.171-5,.245-7.505q.133-4.556.247-9.111c.087-3.489.115-6.981.262-10.468a65.425,65.425,0,0,1,.388-8.432c.554-3.252.379-6.622.62-9.934.151-2.08.477-4.148.745-6.218.039-.3.1-.636.53-.76a.235.235,0,0,1,.292.191,7.118,7.118,0,0,1,.146,1.138c.012,3.041,0,6.083-.017,9.338v.013c-.341,5.655-.527,11.313-.473,16.945a.241.241,0,0,0,.163.224,4.883,4.883,0,0,0,2.5-.112c1.006-.138,2-.331,3.205-.5a60.425,60.425,0,0,0,8.785-2.364,51.588,51.588,0,0,0,13.446-7.393c.631-.468.621-.591.21-1.327-.922-1.649-1.893-3.273-2.743-4.959a108.189,108.189,0,0,1-5.346-12.974c-2.027-5.772-4.049-11.547-6.189-17.277a42.684,42.684,0,0,0-4.866-9.662,16.664,16.664,0,0,0-13-7.426,4.652,4.652,0,0,0-1.027.1.239.239,0,0,0-.166.36c.836,1.352,2.138,2.22,2.682,3.611a.238.238,0,0,1-.324.3c-1.241-.609-2.185-1.64-3.345-2.342-1.369-.829-2.714-1.7-4.12-2.466a44.546,44.546,0,0,0-4.216-2.022c-1.478-.611-3.007-1.1-4.527-1.606-1.378-.456-2.772-.867-4.055-1.261a.237.237,0,0,0-.3.161c-.77,2.628-1.41,5.136-2.262,7.57a25.336,25.336,0,0,1-5.144,8.767,29.87,29.87,0,0,1-10.094,7.322,32.166,32.166,0,0,1-19.505,1.966,28.834,28.834,0,0,1-13.577-6.607,28.17,28.17,0,0,1-8.88-14.478c-.4-1.5-.749-3.016-1.131-4.58a.238.238,0,0,0-.277-.177,5.756,5.756,0,0,0-.615.141c-1.958.617-3.928,1.2-5.866,1.874a37.587,37.587,0,0,0-8.719,4.271c-1.532,1.031-3.047,2.086-4.57,3.13a1.853,1.853,0,0,1-1.017.478.239.239,0,0,1-.232-.335c.7-1.542,2.241-2.331,3.074-3.641a.232.232,0,0,0-.034-.29c-.425-.409-.938-.249-1.4-.241-.364.006-.724.153-1.09.179a15.262,15.262,0,0,0-9.768,4.72,22.118,22.118,0,0,0-4.1,5.816,109.161,109.161,0,0,0-5.31,12.859c-1.8,5.027-3.5,10.089-5.319,15.106a73.268,73.268,0,0,1-6.484,13.532,7.807,7.807,0,0,0-.375.739.24.24,0,0,0,.076.295c.549.4,1.062.762,1.57,1.135a50.163,50.163,0,0,0,7.458,4.552A48.1,48.1,0,0,0,5.713,182.2c1.618.434,3.27.741,5.1,1.147a22.673,22.673,0,0,0,5.541.634.239.239,0,0,0,.222-.246C16.387,177.909,16.2,172.214,16.025,166.3Z" fill="#b4433d"/>
          <path id="Path_38936" data-name="Path 38936" d="M10.622,183.31c-1.636-.365-3.288-.672-4.906-1.106a48.175,48.175,0,0,1-8.864-3.332,50.2,50.2,0,0,1-7.458-4.552c-.508-.373-1.021-.74-1.57-1.135a.237.237,0,0,1-.076-.295,7.928,7.928,0,0,1,.375-.739,73.3,73.3,0,0,0,6.484-13.532c1.822-5.018,3.521-10.08,5.319-15.106a108.99,108.99,0,0,1,5.31-12.859,22.118,22.118,0,0,1,4.1-5.816,15.272,15.272,0,0,1,9.768-4.72c.366-.026.726-.173,1.09-.179.458-.008.971-.169,1.4.241a.233.233,0,0,1,.034.29c-.833,1.31-2.369,2.1-3.074,3.641a.239.239,0,0,0,.232.335,1.85,1.85,0,0,0,1.017-.478c1.523-1.044,3.038-2.1,4.57-3.13a37.606,37.606,0,0,1,8.719-4.271c1.939-.673,3.908-1.258,5.866-1.874a5.7,5.7,0,0,1,.615-.141.239.239,0,0,1,.277.177c.382,1.565.725,3.081,1.131,4.58a28.176,28.176,0,0,0,8.88,14.478,28.844,28.844,0,0,0,13.577,6.607,32.166,32.166,0,0,0,19.505-1.966,29.9,29.9,0,0,0,10.094-7.322,25.335,25.335,0,0,0,5.144-8.767c.852-2.434,1.492-4.942,2.262-7.57a.237.237,0,0,1,.3-.161c1.282.394,2.676.8,4.055,1.261,1.52.5,3.049,1,4.527,1.606a44.544,44.544,0,0,1,4.216,2.022c1.406.761,2.751,1.636,4.12,2.466,1.159.7,2.1,1.733,3.345,2.342a.238.238,0,0,0,.324-.3c-.544-1.391-1.846-2.259-2.682-3.611a.239.239,0,0,1,.166-.36,4.6,4.6,0,0,1,1.027-.1,16.666,16.666,0,0,1,13,7.426,42.581,42.581,0,0,1,4.866,9.662c2.14,5.73,4.162,11.506,6.189,17.277a108.354,108.354,0,0,0,5.346,12.974c.85,1.685,1.821,3.31,2.743,4.959.412.736.421.859-.21,1.327a51.6,51.6,0,0,1-13.446,7.393c-7.194,2.709-14.042,3.534-14.372,3.011-.062-.1-.252-.044-.264-.16-.271-2.563.044-3.69.035-7.239-.018-3.464.128-4.012.241-6.541-.012-2.7.193-4.064.194-5.2,0-3.3.014-4.4,0-7.415a7.117,7.117,0,0,0-.146-1.138.236.236,0,0,0-.292-.191c-.434.123-.491.46-.53.76-.268,2.07-.594,4.138-.745,6.218-.241,3.312-.065,6.683-.62,9.934a65.435,65.435,0,0,0-.388,8.432c-.147,3.487-.175,6.978-.262,10.468q-.114,4.556-.247,9.111c-.074,2.5-.162,5-.245,7.505s-.162,5-.249,7.506c-.078,2.255-.184,4.51-.243,6.766-.087,3.324-.192,6.649-.195,9.974,0,2.379.119,4.759.243,7.136s.261,4.748.493,7.112q.515,5.255,1.179,10.494c.544,4.222,1.162,8.435,1.77,12.648.175,1.215.439,2.417.639,3.629.064.388.073.784.1,1.215a.24.24,0,0,1-.146.236c-.711.3-1.367.6-2.046.833a110.94,110.94,0,0,1-17.367,4.521c-3.267.566-6.534,1.137-9.811,1.638-1.739.266-3.5.394-5.252.568-2.4.239-4.809.462-7.213.691-.123.012-.246.019-.369.026-6.529.354-13.065.351-19.6.217-3.108-.064-6.213-.4-9.312-.679-3.3-.3-6.615-.562-9.892-1.055-4.048-.608-8.072-1.385-12.088-2.183a100.6,100.6,0,0,1-13.97-3.947c-.387-.137-.772-.279-1.157-.423-.5-.189-.63-.5-.533-1.06.633-3.63,1.257-7.261,1.812-10.9.339-2.225.554-4.469.815-6.706.325-2.79.648-5.58.953-8.373q.162-1.492.242-2.992c.111-2.005.238-4.011.275-6.017.1-5.545.2-11.091.219-16.636.009-2.707-.156-5.415-.248-8.122-.073-2.132-.123-4.266-.242-6.4s-.315-4.242-.469-6.364c-.086-1.185-.181-2.371-.224-3.558-.041-1.15-.011-2.3-.029-3.454-.086-5.34-.165-10.681-.272-16.021-.05-2.5-.128-5.006-.249-7.507-.126-2.62-.274-5.241-.5-7.854-.18-2.12-.464-4.233-.749-6.343a3.349,3.349,0,0,0-.437-1.006.239.239,0,0,0-.225-.133h0a.236.236,0,0,0-.212.158,3.32,3.32,0,0,0-.279,1.047c.032,2.379.119,4.758.179,7.137.017.658.037,5.728.244,9.52.227,4.174.464,8.774.355,9.926a.237.237,0,0,1-.22.214A18.81,18.81,0,0,1,10.622,183.31Z" fill="#f87360"/>
        </g>
        <path id="Path_38937" data-name="Path 38937" d="M75.338,44.394c-.838.244-1.576.467-2.395.714a4.927,4.927,0,0,1-.13-.763c0-1.521.052-3.043.026-4.563a1.162,1.162,0,0,1,.908-1.267,15.406,15.406,0,0,1,12.65.71,8.924,8.924,0,0,1,3.261,2.941,1.6,1.6,0,0,1,.334.651c.124,1.29.207,2.583.325,4.15-4.7-3.318-9.665-3.731-14.979-2.573m12.008-3.585a31.171,31.171,0,0,0-3.221-1.474,15.627,15.627,0,0,0-6.315-.59,18.154,18.154,0,0,0-3.1.7c-.237.064-.58.321-.6.514a14.719,14.719,0,0,0,.026,3.505,25.135,25.135,0,0,1,7.805-.8,19.614,19.614,0,0,1,7.294,2.475c.255-1.441.24-2.61-.956-3.459A12.747,12.747,0,0,1,87.346,40.809Z" fill="#2c2d32"/>
        <path id="Path_38938" data-name="Path 38938" d="M53.486,39.354a13.447,13.447,0,0,1,8.856-1.695c1.372.205,2.722.564,4.076.881a.831.831,0,0,1,.729.853c.046,1.681.132,3.361.19,5.042a3.666,3.666,0,0,1-.119.677c-5.981-1.97-11.737-2-17.116,1.636a5.672,5.672,0,0,1,.879-5.279,27.9,27.9,0,0,1,2.505-2.115m-1.778,2.321a3.313,3.313,0,0,0-.967,3.59c.288-.149.508-.244.708-.369a14.8,14.8,0,0,1,6.7-2.2,19.373,19.373,0,0,1,6.584.509,12.277,12.277,0,0,0,1.406.195c0-.943,0-1.713,0-2.484-.009-1.308-.05-1.346-1.278-1.683a16.551,16.551,0,0,0-7.782-.212A10.448,10.448,0,0,0,51.708,41.675Z" fill="#2c2d32"/>
        <path id="Path_38939" data-name="Path 38939" d="M79.812,92.076c-1.87,2.136-4.04,2.043-6.4,1.165a.086.086,0,0,1-.037-.135c.293-.368.7-.211,1.03-.2A6.482,6.482,0,0,0,80.25,89.68l0,0a.278.278,0,0,1,.5.062C80.917,90.24,80.714,90.6,79.812,92.076Z" fill="#42231b"/>
        <path id="Path_38940" data-name="Path 38940" d="M87.416,40.865a9.757,9.757,0,0,0,.869.821c1.2.848,1.211,2.018.956,3.459a19.614,19.614,0,0,0-7.294-2.475,25.138,25.138,0,0,0-7.805.8,14.667,14.667,0,0,1-.026-3.505c.017-.193.361-.45.6-.514a17.966,17.966,0,0,1,3.1-.7,15.624,15.624,0,0,1,6.315.59A27.973,27.973,0,0,1,87.416,40.865Z" fill="#454c56"/>
        <path id="Path_38941" data-name="Path 38941" d="M51.772,41.611a10.421,10.421,0,0,1,5.309-2.6,16.577,16.577,0,0,1,7.782.212c1.228.338,1.269.375,1.278,1.683,0,.771,0,1.542,0,2.484a12.278,12.278,0,0,1-1.406-.195,19.348,19.348,0,0,0-6.584-.509,14.794,14.794,0,0,0-6.7,2.2c-.2.125-.42.22-.708.369A3.358,3.358,0,0,1,51.772,41.611Z" fill="#454c56"/>
        <path id="Path_38942" data-name="Path 38942" d="M54.136,54.493c-.753-1.177-.6-2.463-.58-3.788a2.075,2.075,0,0,1,.16-.651,6.973,6.973,0,0,1,3.963-2.625c2.724-.72,6.356-.07,7.767,2.727.517,1.472.023,2.782-.288,4.172a5.7,5.7,0,0,1-3.642,2.389,7.352,7.352,0,0,1-6.745-1.688m8.56-4.176a2.666,2.666,0,0,0-2.879-1.446,2.562,2.562,0,0,0-2.223,2.029A2.671,2.671,0,0,0,59.42,54.5a2.086,2.086,0,0,0,1.666.462C63.1,54.518,63.974,53.037,63.331,50.853Z" fill="#f5f7f7"/>
        <g id="Group_117507" data-name="Group 117507">
          <path id="Path_38943" data-name="Path 38943" d="M65.492,53.032a.313.313,0,0,1,0-.1,4.833,4.833,0,0,0-.343-3.069c-1.214-2.544-4.883-3.118-7.469-2.435a6.9,6.9,0,0,0-3.243,1.805,2.9,2.9,0,0,0-.868,2.09,5.586,5.586,0,0,0,.867,3.3c-.013.015-.356.208-.451.134a9.948,9.948,0,0,1-.558-1.362,21.065,21.065,0,0,1-.256-2.34A4.625,4.625,0,0,1,56.048,46.4a7.382,7.382,0,0,1,7.907.518,4.055,4.055,0,0,1,1.831,2.954c.366,2.376-.056,3.071-.116,3.234A.148.148,0,0,1,65.492,53.032Z" fill="#090706"/>
          <path id="Path_38944" data-name="Path 38944" d="M53.983,54.757c.243-.26.315-.357.451-.134a2.13,2.13,0,0,0,.336.406,7.352,7.352,0,0,0,6.745,1.688,5.943,5.943,0,0,0,3.159-1.781,4.6,4.6,0,0,0,.827-2.1c.049-.031.311-.2.289-.051s-.1.515-.144.718a9.646,9.646,0,0,1-.441,1.335,1.964,1.964,0,0,1-.285.5c-2.838,3.64-8.706,2.871-10.682-.2C54.172,55.037,54.1,54.94,53.983,54.757Z" fill="#0f0d0c"/>
        </g>
        <path id="Path_38945" data-name="Path 38945" d="M63.372,50.94c.6,2.1-.269,3.578-2.286,4.023A2.086,2.086,0,0,1,59.42,54.5a2.672,2.672,0,0,1-1.191-3.064,2.564,2.564,0,0,1,2.223-2.029,2.692,2.692,0,0,1,2.92,1.532m-1.14.649c.1-.415.144-.881-.365-.982a1.4,1.4,0,0,0-1.071.236c-.152.134-.094.722.076.959.295.411.762.367,1.172.061C62.076,51.84,62.1,51.808,62.232,51.589Z" fill="#090706"/>
        <path id="Path_38946" data-name="Path 38946" d="M75.069,54.741a20.586,20.586,0,0,1-.661-2.349,4,4,0,0,1,1.75-4.059c2.833-2.057,7.437-1.227,9.52.914a4.288,4.288,0,0,1-.118,5.511c-2.84,2.938-7.915,2.877-10.4-.014-.079-.021-.1.006-.086,0m6.864-2.985a6.609,6.609,0,0,0-.378-1.032,2.739,2.739,0,0,0-5.1,1.474,2.724,2.724,0,0,0,2.188,2.62A2.8,2.8,0,0,0,81.933,51.756Z" fill="#f5f7f7"/>
        <path id="Path_38947" data-name="Path 38947" d="M62.182,51.685a.616.616,0,0,1-.138.178c-.41.305-.877.35-1.172-.061-.17-.237-.228-.825-.076-.959a1.4,1.4,0,0,1,1.071-.236C62.377,50.708,62.333,51.175,62.182,51.685Z" fill="#dde6e6"/>
        <path id="Path_38948" data-name="Path 38948" d="M81.939,51.856a2.783,2.783,0,0,1-3.3,2.963,2.724,2.724,0,0,1-2.188-2.62,2.739,2.739,0,0,1,5.1-1.474,5.5,5.5,0,0,1,.385,1.131m-1.719.325c.066-.047.154-.081.194-.144.394-.624.351-1.054-.125-1.344A.818.818,0,0,0,79.134,51c-.284.48-.092.934.548,1.241C79.78,52.287,79.92,52.246,80.22,52.181Z" fill="#0d0a08"/>
        <path id="Path_38949" data-name="Path 38949" d="M80.131,52.214c-.21.033-.351.073-.449.026-.64-.306-.832-.76-.548-1.241a.818.818,0,0,1,1.155-.306c.476.29.519.72.125,1.344C80.374,52.1,80.286,52.134,80.131,52.214Z" fill="#dde6e6"/>
        <g id="Group_117508" data-name="Group 117508">
          <path id="Path_38950" data-name="Path 38950" d="M74.367,53.07c-.06-.162-.482-.858-.116-3.234a4.055,4.055,0,0,1,1.831-2.954,7.38,7.38,0,0,1,7.907-.518,4.625,4.625,0,0,1,2.878,4.653,20.813,20.813,0,0,1-.256,2.34,9.9,9.9,0,0,1-.558,1.362c-.1.075-.438-.119-.451-.134a5.584,5.584,0,0,0,.867-3.3A2.9,2.9,0,0,0,85.6,49.2a6.9,6.9,0,0,0-3.243-1.805c-2.586-.683-6.254-.109-7.469,2.435a4.833,4.833,0,0,0-.343,3.069.313.313,0,0,1,0,.1A.144.144,0,0,1,74.367,53.07Z" fill="#090706"/>
          <path id="Path_38951" data-name="Path 38951" d="M85.8,55.1c-1.976,3.069-7.844,3.838-10.682.2a1.948,1.948,0,0,1-.285-.5,9.377,9.377,0,0,1-.441-1.335c-.045-.2-.12-.557-.144-.718s.239.019.289.051a4.611,4.611,0,0,0,.827,2.1,5.943,5.943,0,0,0,3.159,1.781,7.352,7.352,0,0,0,6.745-1.688,2.093,2.093,0,0,0,.336-.406c.136-.223.208-.126.451.134C85.941,54.9,85.866,55,85.8,55.1Z" fill="#0f0d0c"/>
        </g>
        <path id="Path_38952" data-name="Path 38952" d="M64.57,59.726c.317-.375.572-.688.845-1.023.479,2.335-3.179,4.96-6.287,4.365a31.864,31.864,0,0,0,2.925-1.416A27.757,27.757,0,0,0,64.57,59.726Z" fill="#42241b"/>
        <path id="Path_38953" data-name="Path 38953" d="M74.485,59.307a2.487,2.487,0,0,1-.146-.558,1.428,1.428,0,0,1,.124-.4A11.6,11.6,0,0,0,80.9,62.9C78.849,63.822,75.862,62.15,74.485,59.307Z" fill="#42241b"/>
        <path id="Path_38954" data-name="Path 38954" d="M78.282,80.283a6.718,6.718,0,0,1-3.619,1.276,30.854,30.854,0,0,1-5.126.491,18.037,18.037,0,0,1-7.265-1.386,3.574,3.574,0,0,1,1.243-.285c4.007-.018,8.013,0,12.02-.02C76.428,80.355,77.321,80.266,78.282,80.283Z" fill="#4e2d24"/>
        <path id="Path_38955" data-name="Path 38955" d="M60.567,79.508a14.647,14.647,0,0,0,4.778,1.713,25.055,25.055,0,0,0,7.568.2c2.082-.146,4.124-.3,5.962-1.553.983-.64,1.935-1.194,2.87-1.776.4-.249.762-.555,1.3-.95a1.809,1.809,0,0,1-.684,1.464A13.891,13.891,0,0,1,74.9,82.646a21.579,21.579,0,0,1-12.461-.866,16.251,16.251,0,0,1-4.856-3.085,1.032,1.032,0,0,1-.431-1.175C58.293,78.2,59.387,78.844,60.567,79.508Z" fill="#090706"/>
        <path id="Path_38956" data-name="Path 38956" d="M97,35.084c-.618-.018-1.54-4.523-3.6-8.312-2.022-3.716-5.183-6.718-5.8-6.512-1.016.337-1.145.248-1.132-.84.014-1.124-5.912-2.49-6.551-1.973-.4.326-.662.236-.881-.18-.134-.256-.273-.511-.385-.777C77.99,14.934,64.946,14,62.821,16c-.407.383-4.383,1.473-8.878,3.8-3.11,1.608-6.357,6.149-8.3,11.011a41.256,41.256,0,0,0-2.627,11.148C42.9,46.272,44.162,48.8,44.3,52.625a1.358,1.358,0,0,0,.1.465.24.24,0,0,0,.46-.077c.065-.89.207-2.309.273-2.768.27-1.877.447-3.765.609-5.649.219-2.541.341-5.1.336-7.658a23.566,23.566,0,0,1,.677-5.493,5.14,5.14,0,0,1,1.923-3.178,3.819,3.819,0,0,1,3-.579c1.919.46,3.869.748,5.808,1.1a66.134,66.134,0,0,0,8.8,1.044,51.122,51.122,0,0,0,7.909-.15,53.3,53.3,0,0,0,7.794-1.045c1.942-.512,3.98-.615,5.865-1.393a3.049,3.049,0,0,1,1.447-.218,3.921,3.921,0,0,1,2.338.968,7.884,7.884,0,0,1,1.774,3.24,8.358,8.358,0,0,1,.174,2.332c0,2.273.347,4.524.308,6.794-.025,1.485.194,2.959.3,4.434.192,2.658.608,5.3.957,7.947a6.456,6.456,0,0,0,.188.861.221.221,0,0,0,.426,0c.307-1.046.5-2.083.726-3.111.5-2.226,1.134-4.414,1.772-6.6C98.1,43.57,97.205,35.09,97,35.084Z" fill="#454c56"/>
        <path id="Path_38957" data-name="Path 38957" d="M56.76,79.292a8.546,8.546,0,0,0-.1,3.751,25.683,25.683,0,0,0,.749,3.065,1.975,1.975,0,0,1,.086.92.225.225,0,0,1-.413.075,12.98,12.98,0,0,1-1.835-4.4c-.627-3.365.884-5.985,2.878-8.416a8.625,8.625,0,0,1,3.8-2.871.65.65,0,0,0,.456-.788,4.829,4.829,0,0,1,.34-1.858,2.3,2.3,0,0,1,1.891-1.678,1.663,1.663,0,0,1,1.824.62.225.225,0,0,1-.225.344h0c-1.921-.42-3.172.782-2.719,2.7.855,3.622,2.646,4.906,6.121,5.446a7.5,7.5,0,0,0,5.618-1.428,4.378,4.378,0,0,0,1.91-3.521A12.206,12.206,0,0,0,75.1,64.193a49.364,49.364,0,0,1-3.046-5.543,15.388,15.388,0,0,1-1.048-6.59.224.224,0,0,1,.436-.068c.315.892.51,1.826.865,2.7.089.22.169.444.253.666a.2.2,0,0,1,.013.068,9.219,9.219,0,0,0,1.012,3.458,28.678,28.678,0,0,0,1.786,3.192,22.88,22.88,0,0,1,2.78,6.2,6.733,6.733,0,0,1,.517,2.578c-.07.533.36.8.768,1.061a13.872,13.872,0,0,1,4.8,5.747,7.4,7.4,0,0,1,.785,4.3,19.02,19.02,0,0,1-1.365,4.31,2.109,2.109,0,0,1-.522.922.223.223,0,0,1-.355-.1,1.439,1.439,0,0,1,.051-.671c.364-1.938,1.057-3.825.912-5.846a6.17,6.17,0,0,0-.2-1.241,17.1,17.1,0,0,0-.935-2.277,10.117,10.117,0,0,0-3.753-4.5c-.478-.311-.773.628-.88.815a9.95,9.95,0,0,1-1.205,1.584,8.483,8.483,0,0,1-8.815,2.155,8.138,8.138,0,0,1-4.505-3.149c-.022-.029-.529-1.25-.569-1.328-.333-.645-.625-.528-1.042-.274a12.027,12.027,0,0,0-2.93,2.74,12.617,12.617,0,0,0-1.347,2.038A12.044,12.044,0,0,0,56.76,79.292Z" fill="#42241c"/>
        <path id="Path_38958" data-name="Path 38958" d="M50.475,49.774l17.875.115s-.123,9.627-8.323,9.873S50.434,52.865,50.475,49.774Z" fill="#fff" opacity="0.15"/>
        <path id="Path_38959" data-name="Path 38959" d="M72.427,49.774l17.875.115s-.123,9.627-8.323,9.873S72.386,52.865,72.427,49.774Z" fill="#fff" opacity="0.15"/>
        <path id="Path_38960" data-name="Path 38960" d="M52.031,56.961,61.5,49.594l4,.18L57.012,59.918Z" fill="#fff" opacity="0.1"/>
        <path id="Path_38961" data-name="Path 38961" d="M75.216,57.589l8.971-7.7h6.532L80.963,60.2Z" fill="#fff" opacity="0.1"/>
        <g id="Group_117510" data-name="Group 117510">
          <path id="Path_38962" data-name="Path 38962" d="M43.439,54.967l5.636-5.078.241,2.1s-3.852,2.7-4.962,3.8c-.181.18-.673.5-1.01.144C42.891,55.452,43.439,54.967,43.439,54.967Z" fill="#292832"/>
          <path id="Path_38963" data-name="Path 38963" d="M97.221,54.967l-5.636-5.078-.241,2.1s3.852,2.7,4.962,3.8c.181.18.673.5,1.01.144C97.768,55.452,97.221,54.967,97.221,54.967Z" fill="#292832"/>
          <g id="Group_117509" data-name="Group 117509">
            <path id="Path_38964" data-name="Path 38964" d="M85.561,58.16a9.074,9.074,0,0,0,3.929-6.111c.516-4.268,1.606-3.761,1.606-3.761s1.045-.139.766,2.577-1.365,6.89-4.527,8.985c-2.805,1.858-4.651,2.2-8.581,1.461s-6.936-5.143-7.358-7.49-1.055-5.2,0-5.433a1.226,1.226,0,0,1,1.53,1.134,11.993,11.993,0,0,0,1.53,5.749c1.477,2.215,2.76,3.591,5.45,3.987A8.007,8.007,0,0,0,85.561,58.16Z" fill="#292832"/>
            <path id="Path_38965" data-name="Path 38965" d="M55.14,58.16a8.8,8.8,0,0,1-3.785-6.111c-.459-4.369-1.75-3.761-1.75-3.761s-1.045-.139-.766,2.577,1.365,6.89,4.527,8.985c2.805,1.858,4.651,2.2,8.581,1.461s6.936-5.143,7.358-7.49,1.055-5.2,0-5.433a1.226,1.226,0,0,0-1.53,1.134,11.993,11.993,0,0,1-1.53,5.749c-1.477,2.215-2.76,3.591-5.45,3.987A8.007,8.007,0,0,1,55.14,58.16Z" fill="#292832"/>
            <path id="Path_38966" data-name="Path 38966" d="M49.9,49.255H68.544v1.038L49.9,50.1Z" fill="#292832"/>
            <path id="Path_38967" data-name="Path 38967" d="M72.7,49.255H91.345v1.038L72.7,50.1Z" fill="#292832"/>
            <path id="Path_38968" data-name="Path 38968" d="M69.087,52.017a2.81,2.81,0,0,1,2.546,0l-.193-1.724a3.427,3.427,0,0,0-2.122,0Z" fill="#292832"/>
          </g>
        </g>
        <g id="Group_117511" data-name="Group 117511">
          <path id="Path_38969" data-name="Path 38969" d="M82,78.229a12.918,12.918,0,0,1,.5,1.985,2.045,2.045,0,0,1-.64,2.054,1.509,1.509,0,0,1-1.825-.032,1.891,1.891,0,0,0-1.28-.6,2.024,2.024,0,0,0-1.125.712,2.2,2.2,0,0,1-2.27.732c-.793-.251-1.346-1.137-1.832-1.58a.143.143,0,0,0-.213.023,26.362,26.362,0,0,1-1.791,2.2,3.077,3.077,0,0,1-.7.475,1.576,1.576,0,0,1-2.032-.655,2.736,2.736,0,0,1-.3-.585c-.447-1.179-1.105-1.259-2.012-.264a4.814,4.814,0,0,1-.967.727,1.83,1.83,0,0,1-2.523-.722c-.256-.363-.466-.862-.795-.988s-.774.122-1.167.183c-1.571.243-2.258-.113-2.8-1.585a3.5,3.5,0,0,1,.019-2.222,10.191,10.191,0,0,1,3.379-4.805,2.792,2.792,0,0,1,1.225-.695s.054.087.079.141c.163.357.247.575.4.945.056.132.088.23.088.23a7.863,7.863,0,0,0-3.794,4.969,1.439,1.439,0,0,0,.082.872c.292.767.669.911,1.336.428a8.209,8.209,0,0,0,1.823-2.091,4.835,4.835,0,0,1,1.006-1.352.145.145,0,0,1,.228.151,15.637,15.637,0,0,0-.185,3.411,2.311,2.311,0,0,0,.177,1.115c.333.686.557.751,1.123.255a9.249,9.249,0,0,0,2.166-2.941c.16-.324.229-.747.615-.979a.147.147,0,0,1,.221.108,14.67,14.67,0,0,0,.311,1.859,5.478,5.478,0,0,0,1.206,2.459c.348.4.642.4,1.058.032a6.725,6.725,0,0,0,1.748-2.753,1.625,1.625,0,0,1,.693-1.06.145.145,0,0,1,.211.1c.238,1.291,1.394,1.837,2.067,2.765a.744.744,0,0,0,1.321-.211,3.22,3.22,0,0,0,.212-1.975,6.131,6.131,0,0,1-.374-2.241.147.147,0,0,1,.2-.118c.206.081.246.265.338.4a30.521,30.521,0,0,0,2.476,3.033c.26.294.551.816,1.02.543s.222-.83.164-1.273c-.016-.122-.1-.235-.128-.357a12.268,12.268,0,0,0-2.82-4.834c-.019-.023-.308-.3-.293-.325.263-.423.325-.544.542-.948.037-.069.071-.046.148-.031a1.122,1.122,0,0,1,.68.474C80.117,74.918,81.841,77.919,82,78.229Z" fill="#313034"/>
          <path id="Path_38970" data-name="Path 38970" d="M77.652,73.864c1.2,1.474,2.9,3.431,3.217,5.549.059.443.316.994-.164,1.273s-.759-.249-1.02-.543a30.381,30.381,0,0,1-2.476-3.033l0,0a.3.3,0,0,0-.554.189,11.288,11.288,0,0,0,.4,1.775,3.219,3.219,0,0,1-.212,1.975.806.806,0,0,1-1.289.352,5.6,5.6,0,0,1-2.031-2.628.343.343,0,0,0-.578-.143,2.361,2.361,0,0,0-.394.825A6.731,6.731,0,0,1,70.8,82.2c-.416.367-.71.369-1.058-.032a4.87,4.87,0,0,1-1.177-2.109,10.581,10.581,0,0,1-.317-1.8.279.279,0,0,0-.5-.145,3.986,3.986,0,0,0-.364.755,8.667,8.667,0,0,1-2.166,2.793c-.566.5-.789.43-1.123-.255a4.07,4.07,0,0,1-.331-1.463,14.171,14.171,0,0,1,.308-2.925.2.2,0,0,0-.326-.182,5.884,5.884,0,0,0-.877,1.244,8.209,8.209,0,0,1-1.823,2.091.875.875,0,0,1-1.489-.38,1.588,1.588,0,0,1,.071-.92,7.651,7.651,0,0,1,3.794-4.969A8.159,8.159,0,0,0,67.962,77.1a8.479,8.479,0,0,0,8.815-2.155A8.338,8.338,0,0,0,77.652,73.864Z" fill="#444b55"/>
        </g>
        <path id="Path_38971" data-name="Path 38971" d="M43.114,58.88c.288.856.554,1.72.859,2.677a.057.057,0,0,0,.1.016c.473-.672,1.192-6.932,1.719-7.539a.057.057,0,0,1,.1.03c.338,3.014-.658,13.364-.791,16.12-.092,1.919-.353,3.83-.432,5.749-.078,1.888.017,3.783-.034,5.672a24.8,24.8,0,0,0,1.786,9.856,20.64,20.64,0,0,0,3.734,6.192,16.8,16.8,0,0,0,7.2,4.557,45.211,45.211,0,0,0,9.2,2.1,28.336,28.336,0,0,0,4.288.248c1.178-.023,2.348-.305,3.526-.437a36.951,36.951,0,0,0,9.4-2.32,16.263,16.263,0,0,0,8.776-8.04,27.593,27.593,0,0,0,2.93-12.321c.037-2.128-.1-4.261-.227-6.388s-.295-4.247-.541-6.359a34.155,34.155,0,0,1,.238-7.017c1.077.272.948-.565,1.312-1.637a12.881,12.881,0,0,1,1.9-3.369,10.782,10.782,0,0,1,.922-.941,9.926,9.926,0,0,1,1.622-1.077,1.3,1.3,0,0,1,1.549.176.057.057,0,0,1-.031.1,5.069,5.069,0,0,0-3.269,2.026,15.9,15.9,0,0,0-2.2,5.394c-.113.392-.172.8-.251,1.2a.058.058,0,0,0,.065.068,2.525,2.525,0,0,0,1.054-.48,2.439,2.439,0,0,1,3.039.1.057.057,0,0,1-.033.1c-.232.02-.43.039-.628.047a3.924,3.924,0,0,0-3.739,4.01c.034,1.118.164,2.236.282,3.35.075.709.209,1.412.323,2.143a.057.057,0,0,0,.048.048,3.37,3.37,0,0,0,2.857-1.113,12.776,12.776,0,0,0,3.633-5.9,27.148,27.148,0,0,0,1.475-11.823,15.407,15.407,0,0,0-.727-3.211,4.038,4.038,0,0,0-3.974-2.81c-.121.005-1.1.015-1.221.03a1.985,1.985,0,0,1-.542-.118c.1-.507.207-1.016.368-1.578a4.033,4.033,0,0,1,.535.009c.093,0,1.04,0,1.131,0,2.879.043,4.633,1.561,5.578,4.328a15.88,15.88,0,0,1,.789,4.326,29.322,29.322,0,0,1-1.448,10.565,23.669,23.669,0,0,1-2.046,4.58c-1.681,2.883-3.08,3.826-6.034,4.394a.058.058,0,0,0-.047.056c0,2.365.023,4.726,0,7.087A26.1,26.1,0,0,1,91.7,98.227a4.727,4.727,0,0,0-1.145,3.562c.194,2.671.323,5.346.476,7.982a.056.056,0,0,0,.045.052c2.591.57,5.254,1.194,7.781,1.786a.059.059,0,0,1,.045.057,8.649,8.649,0,0,1-.394,2.145.059.059,0,0,1-.066.043c-2.4-.433-4.808-1.009-7.166-1.318a.057.057,0,0,0-.064.062c.237,3.178.165,5.723-.219,6.658a.057.057,0,0,1-.106,0c-.129-.313-.247-.566-.326-.831a43.849,43.849,0,0,1-1.457-9.173c-.165-2.2-.2-4.412-.286-6.719-.012-.463-.03-.835-.054-1.32a.058.058,0,0,0-.081-.05c-.366.165-.605.266-.837.381-1.246.62-2.467,1.295-3.739,1.856A41.135,41.135,0,0,1,72.93,106.06a15.854,15.854,0,0,1-2.928.213,43.7,43.7,0,0,1-4.994-.49,35.623,35.623,0,0,1-12.29-3.921c-.431-.237-.793-.438-1.293-.716a.057.057,0,0,0-.085.046c-.178,2.715-.41,5.244-.487,7.776a42.522,42.522,0,0,1-1.044,8.133c-.142.628-.328,1.245-.5,1.866l-.416-.043c-.15-2.076.056-4.177-.1-6.308a.059.059,0,0,0-.064-.053c-.279.025-.465.03-.645.066q-3.273.652-6.545,1.314a.058.058,0,0,1-.068-.048c-.1-.7-.3-1.4-.391-2.195a.059.059,0,0,1,.038-.061,25.52,25.52,0,0,1,3.115-.869c1.078-.236,2.177-.376,3.257-.6a12.64,12.64,0,0,0,1.423-.46.058.058,0,0,0,.034-.033,1.113,1.113,0,0,0,.11-.287c.1-3.072.2-6.144.3-9.216a1.759,1.759,0,0,0-.47-1.337,23.024,23.024,0,0,1-5.2-10.194,23.527,23.527,0,0,1-.786-5.7c.01-1.47-.183-2.94-.193-4.411-.008-1.059.143-2.119.205-3.179a2.255,2.255,0,0,0-.052-.522.055.055,0,0,0-.036-.043A31.058,31.058,0,0,1,39.7,73.539a8.406,8.406,0,0,1-3.167-3.527,25.76,25.76,0,0,1-2.753-7.983,38.166,38.166,0,0,1-.477-7.59,10.213,10.213,0,0,1,1.109-4.616A6.142,6.142,0,0,1,39.723,46.3c.519-.049,2.415-.014,2.712-.005a.058.058,0,0,1,.054.05c.077.569.192.894.267,1.531a.058.058,0,0,1-.058.065c-.286-.005-2.021-.026-2.443.007a4.747,4.747,0,0,0-4.439,3.09,10.474,10.474,0,0,0-.779,4.083q.1,2.208.235,4.416A25.754,25.754,0,0,0,36.8,66.35a12.469,12.469,0,0,0,3.781,5.665c.706.585,1.425,1.215,2.493.846a.059.059,0,0,0,.039-.049c.187-1.7.335-3.357.563-5a3.809,3.809,0,0,0-1.38-3.488,3.187,3.187,0,0,0-2.194-.946,5.867,5.867,0,0,1-.612-.071.057.057,0,0,1-.027-.1c1.23-.92,1.86-.8,4.108.739a.057.057,0,0,0,.088-.06A21.281,21.281,0,0,0,41.634,57.7,4.384,4.384,0,0,0,40.5,56.418a6.333,6.333,0,0,0-2.2-1.443.185.185,0,0,1,.039-.353,2.545,2.545,0,0,1,.821-.008,6.362,6.362,0,0,1,3.044,2A12.782,12.782,0,0,1,43.114,58.88Z" fill="#40221a"/>
        <path id="Path_38972" data-name="Path 38972" d="M95.81,53.436a.269.269,0,0,1-.518-.006,5.7,5.7,0,0,1-.143-.692c-.348-2.646-.765-5.288-.957-7.947-.107-1.475-.326-2.949-.3-4.434.039-2.27-.31-4.52-.308-6.794a8.153,8.153,0,0,0-.19-2.813,5.293,5.293,0,0,0-1.758-2.759,3.918,3.918,0,0,0-2.338-.968,3.046,3.046,0,0,0-1.447.218c-1.885.778-3.923.882-5.865,1.393a53.3,53.3,0,0,1-7.794,1.045,51.124,51.124,0,0,1-7.909.15,66.115,66.115,0,0,1-8.8-1.044c-1.939-.349-3.889-.637-5.808-1.1a4.169,4.169,0,0,0-3.139.6,5.5,5.5,0,0,0-1.782,3.161,23.572,23.572,0,0,0-.677,5.493c.005,2.562-.116,5.117-.336,7.658-.215,2.49-.454,4.988-.9,7.457a3.354,3.354,0,0,0-.045.643.242.242,0,0,1-.482.04c0-.037-.6,8.878-.4,9.608a.139.139,0,0,0,.262.018,7.139,7.139,0,0,0,.37-1.32c.23-.968,1.332-6.629,1.6-8.5.322-2.241.652-4.479.9-6.731.428-3.814.623-7.638.763-11.471A7.428,7.428,0,0,1,49.884,29.8c.53-.614,1.187-.491,1.833-.37,1.335.25,2.659.563,4,.8,2.918.524,5.852.907,8.809,1.174a57.59,57.59,0,0,0,7.667.159,62.641,62.641,0,0,0,12.457-1.764c1.358-.338,2.708-.7,4.071-1.024a1.951,1.951,0,0,1,1.923.826,4.772,4.772,0,0,1,1.228,3.155c.054,2.187.152,4.37.271,6.554.16,2.923.413,5.833.707,8.745.249,2.462.612,4.9,1.04,7.337.185,1.052.44,2.092.686,3.132.219.925.286,3.128.431,3.475l.117.314a.471.471,0,0,0,.906-.126c.077-.786.11-2.94.154-3.267C96.43,57.033,96.09,52.445,95.81,53.436Z" fill="#2c2d32"/>
        <path id="Path_38973" data-name="Path 38973" d="M43.9,60.343S41.935,48.6,42.387,40.175c.364-6.79,2.985-13.661,7.42-18.3,9.364-9.783,22.608-7.21,26.426-6.57S89.766,17.283,96.094,30.5s-.177,31.17-.177,31.17-1.181-4.853-.6-6.609,4.547-15.029-1.762-26.822C86.4,14.883,64.01,15.432,56.4,19.047S44.508,31.334,43.871,41.9c-.24,3.976,0,3.3.207,6.6a49.1,49.1,0,0,1,.245,5.039C44.188,55.146,43.9,60.343,43.9,60.343Z" fill="#2c2d32"/>
      </g>
    </g>
  </g>
</svg>
