<svg xmlns="http://www.w3.org/2000/svg" xmlns:xlink="http://www.w3.org/1999/xlink" width="75.78" height="75.78" viewBox="0 0 75.78 75.78">
  <defs>
    <clipPath id="clip-path">
      <ellipse id="Ellipse_1020" data-name="Ellipse 1020" cx="37.89" cy="37.89" rx="37.89" ry="37.89" transform="translate(431.181 -5982)" fill="#f2f2f2"/>
    </clipPath>
  </defs>
  <g id="Group_68434" data-name="Group 68434" transform="translate(-431.181 5982)">
    <ellipse id="Ellipse_1014" data-name="Ellipse 1014" cx="37.89" cy="37.89" rx="37.89" ry="37.89" transform="translate(431.181 -5982)" fill="#f2f2f2"/>
    <g id="Mask_Group_16413" data-name="Mask Group 16413" clip-path="url(#clip-path)">
      <g id="MiddleM0001-01" transform="translate(424 -5975)">
        <path id="Path_42948" data-name="Path 42948" d="M284.5,1188.055c-.108,3.823-.209,7.647-.326,11.47-.112,3.653-.242,7.305-.364,10.958q-.315,9.493-.632,18.986c-.055,1.614-.143,3.226-.215,4.84-.283,1.2.063,2.423-.187,3.62q-.308,8.928-.619,17.857c-.247,6.759-.522,13.517-.766,20.277-.179,4.974-.361,9.948-.462,14.924-.021,1.044-.264,1.7-1.331,1.909-.69.633-1.631.491-2.429.791a25.161,25.161,0,0,1-8.848.005c-.481-.175-1.034-.172-1.434-.557-1.342-.311-1.6-1.176-1.645-2.49-.251-6.811-.622-13.618-.974-20.425q-.62-12-1.278-23.99-.119-2.233-.247-4.465c-.226-.857.077-1.749-.171-2.6q-.688-13.269-1.375-26.537-.224-4.338-.44-8.676c-.011-.212-.019-.425-.036-.637-.026-.332-.251-.4-.533-.4s-.518.075-.558.389c-.054.422-.09.847-.111,1.272-.286,6.083-.544,12.167-.858,18.249-.413,8-.872,15.988-1.306,23.982q-.516,9.5-1.015,19-.527,10.27-1.018,20.541-.13,2.615-.269,5.23c-.022.411.078.96-.485,1.047-1.025.158-1.119.85-1.093,1.658-.51-.231-.79-1.094-1.577-.569a26.752,26.752,0,0,1-8.881-.03c-.747-.256-1.61-.179-2.241-.773a3.1,3.1,0,0,0-.584-.251c-.566-.118-.718-.46-.725-1.011-.016-1.32-.1-2.638-.147-3.958-.213-6.684-.394-13.37-.638-20.053-.289-7.917-.64-15.832-.946-23.748-.295-7.618-.555-15.238-.854-22.857-.3-7.662-.576-15.324-.732-22.991-.244-1.629.085-3.278-.175-4.906q-.05-2.536-.1-5.072c.756-.344,1.372-.286,1.706.591a80.07,80.07,0,0,0,.115,9.054c.209,3.019.219,6.044.343,9.059.159,3.867.244,7.748.395,11.616.226,5.826.285,11.66.676,17.48.14,2.08.147,4.171.217,6.253.1,2.978.253,5.957.369,8.934.251,6.466.4,12.935.661,19.4.154,3.783.324,7.575.306,11.364-.013,2.773.194,5.532.273,8.3a1.435,1.435,0,0,0,1.336,1.552,24.563,24.563,0,0,0,9.65.168c1.409-.284,1.75-.634,1.751-2.06,0-5.155.338-10.3.58-15.442q.421-8.926.9-17.852c.272-5.186.6-10.37.889-15.554.306-5.439.53-10.883.934-16.317.145-1.952.165-3.915.235-5.869.167-4.68.566-9.35.614-14.036.01-1.013-.276-1.475-1.3-1.59a17.835,17.835,0,0,1-4.347-1.019,6.752,6.752,0,0,1-1.172-.507c-.36-.222-.865-.489-.694-.938s.744-.34,1.147-.233c4.233,1.12,8.556.706,12.85.765a15.41,15.41,0,0,0,3.659-.54,9.889,9.889,0,0,1,.994-.238c.33-.041.75-.163.912.218.175.411-.263.567-.522.742a6.07,6.07,0,0,1-1.4.62,17.232,17.232,0,0,1-4.089,1,1.37,1.37,0,0,0-1.439,1.671c.161,2.038.128,4.094.318,6.12.227,2.422.227,4.85.364,7.27.246,4.333.386,8.676.619,13.01.277,5.142.547,10.285.914,15.423.24,3.354.414,6.713.578,10.072.23,4.719.41,9.439.73,14.153.135,2,.178,4,.233,6,.087,3.15.456,6.291.329,9.447-.057,1.412.3,2.8.279,4.206a1.263,1.263,0,0,0,1.126,1.331,22.235,22.235,0,0,0,10.631-.179,1.146,1.146,0,0,0,.948-1.193c0-.17.026-.34.02-.511-.165-4.774.162-9.542.321-14.306.21-6.295.239-12.6.668-18.888.171-2.5.133-5.021.227-7.532.205-5.53.439-11.062.634-16.592.2-5.57.275-11.148.672-16.713.182-2.546.144-5.107.222-7.658.116-3.786.468-7.569.335-11.364-.094-2.684.405-5.352.249-8.04C283.134,1187.839,283.729,1187.729,284.5,1188.055Z" transform="translate(-214.647 -1045.503)" fill="#445f75"/>
        <path id="Path_42949" data-name="Path 42949" d="M148.4,593.6a5.751,5.751,0,0,0-1.549.446,2.35,2.35,0,0,1-1.587.715,97.225,97.225,0,0,1-14.509,2.067,94.272,94.272,0,0,1-9.816.178,88.143,88.143,0,0,1-17.944-2.241,2.562,2.562,0,0,1-1.6-.7,5.221,5.221,0,0,0-1.617-.457c-1.478-.519-2.962-1.02-4.43-1.565-.95-.352-.936-.38-.754-1.37a139.661,139.661,0,0,0,2.213-18.562q.232-5.127,0-10.253l-.045-.74c-.5-.523-.345-1.18-.363-1.8a34.527,34.527,0,0,0-.145-5.288,13.547,13.547,0,0,1-.118-2.505,32.31,32.31,0,0,0-.157-4.951c-.128-1.014-.61-1.35-1.537-1.477a28.06,28.06,0,0,1-9.32-2.854,2.986,2.986,0,0,1-1.172-1.065,28.15,28.15,0,0,1-3.8-2.569c-.3-.229-.483-.436-.214-.827,2.834-4.123,4.31-8.84,5.912-13.5a73.726,73.726,0,0,1,3.048-7.841,14.841,14.841,0,0,1,2.781-4.249,9.294,9.294,0,0,1,8.1-2.86,2.283,2.283,0,0,0,1.436-.349,31.448,31.448,0,0,1,7.287-2.646c.658-.224,1.013.032,1.111.7a4.245,4.245,0,0,0,.156.96,17.343,17.343,0,0,0,2.313,5.781,14.5,14.5,0,0,0,15.33,5.686,13.483,13.483,0,0,0,10.533-9.7c.221-.69.37-1.4.529-2.107.194-.48.065-1.071.5-1.468a31.46,31.46,0,0,1,6.156,1.944,5.131,5.131,0,0,1,.815.359,5.593,5.593,0,0,0,3.474.782c3.662-.1,6.419,1.653,8.421,4.64a27.619,27.619,0,0,1,2.849,5.969c1.139,3.111,2.214,6.246,3.328,9.366a36.567,36.567,0,0,0,4.06,8.344c.356.524.27.8-.211,1.124-1.3.883-2.574,1.8-3.859,2.7-.193.477-.673.608-1.046.869a27.677,27.677,0,0,1-8.914,2.806c-1.94.28-1.945.264-1.943,2.185,0,.592-.017,1.185.03,1.778-.155,2.811-.323,5.619-.25,8.435-.106,1.407.16,2.868-.6,4.18-.006,2.852-.078,5.706,0,8.556a123.275,123.275,0,0,0,1.632,16.623c.226,1.385.423,2.776.705,4.15a.7.7,0,0,1-.536.949C151.518,592.485,149.959,593.044,148.4,593.6Z" transform="translate(-78.551 -451.048)" fill="#b6443e"/>
        <path id="Path_42950" data-name="Path 42950" d="M88.007,792.435a1.335,1.335,0,0,1,.2.969q.007,3.109.005,6.219a7.365,7.365,0,0,0-1.014,3.884c.311,5.555-.747,10.933-1.9,16.3a102.848,102.848,0,0,0-2.438,18.572,3.688,3.688,0,0,0,.585,2.275,8.5,8.5,0,0,1,.875,7.931,22.888,22.888,0,0,1-1.991,4.137c-1.435,2.358-1.132,4.614.134,6.887.414.743.833,1.485,1.209,2.248a2.359,2.359,0,0,1-.546,3.206c-.1.078-.247.171-.253.265-.085,1.306-1.155,1.907-1.919,2.731a2.146,2.146,0,0,1-3.06.437c-.214-.135-.385-.336-.664-.343a3.171,3.171,0,0,1-2.574-1.854,20.515,20.515,0,0,1-2.683-6.995,30.625,30.625,0,0,1,.463-14.531,13.342,13.342,0,0,1,1.747-3.956,3.17,3.17,0,0,0,.466-2.3c-.383-3.337-.786-6.672-1.369-9.983-.878-4.982-1.806-9.956-2.609-14.95a50.262,50.262,0,0,1-.608-10.435,12.563,12.563,0,0,1,.369-2.391q2.436-9.913,4.894-19.82a2.2,2.2,0,0,0,.077-1.254l1.065.728c.237,1.342-.472,2.518-.661,3.786-1.254,5.133-2.437,10.287-3.858,15.374-1.03,3.685-.75,7.345-.36,11.029.772,7.3,2.5,14.44,3.531,21.7a43.071,43.071,0,0,1,.417,7.261,4.083,4.083,0,0,1-.441,1.844,22.312,22.312,0,0,0-2.369,9.978,30.845,30.845,0,0,0,.563,7.755,22.665,22.665,0,0,0,2.411,6.3,3.316,3.316,0,0,0,.712.9.735.735,0,0,0,.813.215.575.575,0,0,0,.259-.775c-.7-1.757-.781-3.887-3.01-4.716a1.764,1.764,0,0,1-.975-2.467c.978-2.244.7-4.469.39-6.771a9.389,9.389,0,0,1,.419-5.041,2.339,2.339,0,0,1,.588-.973c.361-.3.621-.209.746.239a1.5,1.5,0,0,1-.013.76,16.19,16.19,0,0,0-.084,6.725,7.967,7.967,0,0,1-.476,4.625c-.2.468-.439,1.023.006,1.435.472.437,1.052.2,1.563-.029a2.714,2.714,0,0,0,1.667-3.005,4.952,4.952,0,0,1,1.37-4.677,7.163,7.163,0,0,0,1.821-4.28c.04-.355.008-.894.5-.881.423.012.507.522.587.887a4.855,4.855,0,0,1-.441,2.985,7.9,7.9,0,0,1-1.47,2.234,4.583,4.583,0,0,0-.708,5.031c.712,1.881,1.929,3.539,2.809,5.363A5.063,5.063,0,0,0,82,861.11c-.308-.656-.641-1.3-.958-1.951a6.728,6.728,0,0,1,.018-6.384c.589-1.134,1.168-2.274,1.714-3.43a8.209,8.209,0,0,0-1.79-10.061c-.449-.447-1.438-.846-1.064-1.509.353-.625,1.092.278,1.845.251a39.243,39.243,0,0,1,.345-6.717,126.105,126.105,0,0,1,2.25-13.1,58.061,58.061,0,0,0,1.532-11.635c-.015-2.727-.022-5.465-1.331-7.985-.168-.323-.452-.783-.056-1.038.438-.281.784.14,1.055.469a15.675,15.675,0,0,1,1.054,1.753,18.569,18.569,0,0,0,1-5.415C87.6,793.711,87.418,792.984,88.007,792.435Z" transform="translate(-70.001 -689.552)" fill="#b3836c"/>
        <path id="Path_42951" data-name="Path 42951" d="M650.073,781.953c.259-.321.7-.279,1.008-.513,1.758,7.106,3.554,14.2,5.25,21.325a21.6,21.6,0,0,1,.276,6.489c-.433,6.344-1.743,12.551-2.878,18.787-.762,4.188-1.319,8.407-1.784,12.637a1.757,1.757,0,0,0,.283,1.2,21.6,21.6,0,0,1,3.01,10.435,29.177,29.177,0,0,1-1.566,12.063,15.086,15.086,0,0,1-1.791,3.662,3.007,3.007,0,0,1-2.427,1.648c-.382,0-.579.333-.875.49a2.115,2.115,0,0,1-2.589-.324,9.874,9.874,0,0,0-1.305-1.2c-.2-.144-.46-.38-.467-.583-.044-1.172-1.256-1.668-1.508-2.695a2.491,2.491,0,0,1,.18-1.746c.344-.684.691-1.368,1.069-2.035a10.831,10.831,0,0,0,1.078-2.448,5.467,5.467,0,0,0-.264-3.98c-.74-1.534-1.6-3.006-2.244-4.59a8.587,8.587,0,0,1,.709-8.4,3.534,3.534,0,0,0,.534-2.271c-.147-3.234-.326-6.46-.784-9.671-.571-4.007-1.474-7.949-2.236-11.918a64.917,64.917,0,0,1-1.2-7.946,32.7,32.7,0,0,1,0-5.157,20.777,20.777,0,0,0-.741-3.435c-.089-.343-.272-.207-.45-.081-.04-1.387.348-2.749.238-4.14.626.093.6.655.723,1.07.269.888.455,1.8.721,2.794a12.748,12.748,0,0,1,1.119-1.855c.265-.274.59-.645.971-.383.3.209.137.644-.009.949a13.122,13.122,0,0,0-1.164,3.768c-.633,4.244-.028,8.411.718,12.57.888,4.948,2.06,9.844,2.713,14.834a44.73,44.73,0,0,1,.424,7.133c-.018.618-.186,1.438.949.923a.518.518,0,0,1,.683.186c.168.327-.1.57-.312.756a10.368,10.368,0,0,0-1.859,2.258,7.939,7.939,0,0,0-.459,8.149c.5,1.083,1.021,2.157,1.588,3.207a7.249,7.249,0,0,1,.025,7.207,13.2,13.2,0,0,0-1.5,3.491,38.731,38.731,0,0,0,2.651-5.034c.664-1.831.944-3.748-.787-5.437a5.726,5.726,0,0,1-1.666-4.924c.052-.428.122-.971.624-.985.59-.017.536.593.535.977a6.183,6.183,0,0,0,1.953,4.446,3.829,3.829,0,0,1,1.152,3,15.139,15.139,0,0,0,.024,2.172,2.968,2.968,0,0,0,2.23,2.5c.9.115,1.418-.357,1.059-1.17-1.049-2.374-.626-4.763-.28-7.169a10.046,10.046,0,0,0-.212-3.806,8.859,8.859,0,0,1-.218-1c-.052-.433-.358-1.047.238-1.213.524-.146.768.457.942.876a9.227,9.227,0,0,1,.706,4.871c-.139,1.013-.28,2.027-.374,3.043a7.908,7.908,0,0,0,.556,3.877c.64,1.521.267,2.462-1.25,3.072a3.176,3.176,0,0,0-1.6,1.871,9.608,9.608,0,0,0-.947,2.637c-.05.29-.075.628.243.8s.568-.069.791-.258a5.09,5.09,0,0,0,1.229-1.772,26.134,26.134,0,0,0,2.377-9.208c.347-4.107.225-8.225-1.565-11.892-1.57-3.216-1.3-6.327-.944-9.571.674-6.105,2.085-12.09,3.021-18.153a64.15,64.15,0,0,0,.931-12.339c-.1-2.59-1.064-4.991-1.634-7.475-.9-3.9-1.884-7.786-2.926-11.654C650.668,784.419,650.038,783.249,650.073,781.953Z" transform="translate(-565.625 -691.082)" fill="#b4836c"/>
        <path id="Path_42952" data-name="Path 42952" d="M301.951,96.421l-.1-.526c-.12-.411-.315-.832.163-1.158.8-.177.921.446,1.06.965.617,2.3,1.119,4.624,1.535,6.969-.126-1.3-.506-2.565-.531-3.882a19.084,19.084,0,0,1,.332-3.93c.254-1.337.526-2.67.794-4a12.708,12.708,0,0,0,.117-3.3c-.026-.426-.133-.9-.619-1.018-.46-.116-.652.319-.876.611a6.511,6.511,0,0,0-1.325,3.4,3.032,3.032,0,0,1-.273,1.363c-.546.525-1.01.784-.983-.335a6.24,6.24,0,0,1,.072-1.609,7.916,7.916,0,0,1,2-4.2c.428-.5.635-.881.274-1.544a2.671,2.671,0,0,1,.153-2.458,8.771,8.771,0,0,1,2.194-2.791A13.874,13.874,0,0,1,322.4,77.26a35.288,35.288,0,0,1,3.947,2.811,9.455,9.455,0,0,0,4.877,2.033,8.7,8.7,0,0,0,2.908-.016c.206.015.468,0,.28.329a10.2,10.2,0,0,1-2.1,2.516,5.658,5.658,0,0,1-.686.56c-.431.28-.377.548-.1.928a8.475,8.475,0,0,1,1.537,5.867c-.545.315-.761-.08-.988-.453-.378-1.251-.312-2.628-1.028-3.785-.277-.447-.463-1.1-1.2-.88a1.349,1.349,0,0,0-1.014,1.445,20.065,20.065,0,0,0,.658,4.27,19.887,19.887,0,0,1,.17,9.818c.478-2.2.9-4.4,1.457-6.581a3.192,3.192,0,0,1,.607-1.52c.645-.109.916.191.888.815l-.267,1.2c.252.393.071.793.021,1.191-.336,1.257-.56,2.539-.856,3.806-.156.781-.306,1.564-.389,2.354-.086.825-.478,1.223-1.325,1.113-1.843-.412-2.025-.621-1.646-2.407a20.362,20.362,0,0,0,.055-8.247,20.816,20.816,0,0,1-.613-5.065c.044-.849-.291-1.017-1.083-.77a27.287,27.287,0,0,1-18.885-.689c-.444-.179-.949-.458-.906.421a23.449,23.449,0,0,1-.641,5.954,18.959,18.959,0,0,0,.036,8.361c.4,1.7.085,2.06-1.663,2.451-.644.034-.957-.3-1.157-.9-.231-.681-.173-1.4-.366-2.076-.275-1.258-.545-2.518-.834-3.774A5.566,5.566,0,0,1,301.951,96.421Z" transform="translate(-271.638 -75.32)" fill="#2b2f36"/>
        <path id="Path_42953" data-name="Path 42953" d="M308.571,248.591c.626.1,1.013-.009,1.016-.8a5.948,5.948,0,0,1,.462-2.533c.664.176.9-.561,1.441-.671.389-.08.84-.173,1.055.186.245.41-.256.554-.493.741a5.465,5.465,0,0,0-1.769,2.987c.279.234.537.054.781.087.293.04.667.011.76.341.105.37-.3.449-.527.607a2.749,2.749,0,0,0-1.159,3.627c.174.484.415.461.764.259a3.228,3.228,0,0,0,1.2-1.3,12.576,12.576,0,0,0,1.382-8.609,1.949,1.949,0,0,0-1.774-1.74,1.3,1.3,0,0,1-.819-.306,3.077,3.077,0,0,1,.25-1.07c2.64-.044,3.544,1.658,3.754,3.634a14.843,14.843,0,0,1-1.24,7.836,4.482,4.482,0,0,1-3.249,2.961c-.619.112-.487.56-.447.993a20.218,20.218,0,0,1-.372,6.206,12.161,12.161,0,0,1-2.567,5.345,1.81,1.81,0,0,0-.49,1.378c.09,1.313.173,2.628.216,3.943.018.538.267.712.757.805,1.125.214,2.237.489,3.355.739-.077.5.137,1.035-.218,1.491a9.281,9.281,0,0,1-2.24-.429c-.718-.129-1.045.1-1.037.837a7.319,7.319,0,0,1-.069,1.523c-.049.246-.1.54-.385.6-.361.075-.524-.215-.653-.486a4.22,4.22,0,0,1-.312-1.1,35.929,35.929,0,0,1-.572-6.068c0-.548.082-1.25-.864-.779a20.182,20.182,0,0,1-15.706.585c-.7-.259-1.28-.938-2.139-.714-.368,2.43-.136,4.919-.8,7.309-.129.468-.155,1.223-.725,1.17-.588-.055-.447-.8-.475-1.282-.1-1.7-.589-2-2.208-1.346-.4.164-.664.523-1.058.687a1.213,1.213,0,0,1-.213-1.038c.045-.6-.284-.786-.8-.807a26.052,26.052,0,0,1,3.456-.751c1.224-.243,1.285-.272,1.357-1.543.067-1.188.067-2.379.107-3.569a1.461,1.461,0,0,0-.333-1.058,13.95,13.95,0,0,1-3.052-9.617c.013-.765.015-1.53.041-2.295.014-.394-.109-.654-.525-.731a4.243,4.243,0,0,1-3.038-2.675,14.5,14.5,0,0,1-1.338-8.424c.253-1.739,1.317-3.366,3.377-3.323.1,0,.207-.131.31-.2a5.311,5.311,0,0,1,.4,1.762c-1.98-.29-2.661.141-2.877,2.158a11.97,11.97,0,0,0,1.889,8.41c.314.45.693,1.195,1.355.925.557-.227.314-.984.361-1.519a2.239,2.239,0,0,0-1.015-2.2c-.292-.2-.807-.376-.646-.822.151-.419.641-.311,1.022-.278a.352.352,0,0,0,.394-.123c-.384-1.263-.768-2.562-2.144-3.237-.178-.087-.414-.2-.307-.47.089-.222.325-.263.536-.284,1.038-.1,1.578.689,2.241,1.26.438.678.272,1.478.412,2.215.112.59.413.652.868.635.633.987.334,2.061.254,3.1a52.131,52.131,0,0,0-.4,6.871,13.441,13.441,0,0,0,2.237,7.347,6.915,6.915,0,0,0,2.631,2.364c5.48,2.57,11.01,2.624,16.316-.29,3.081-1.692,4.185-4.84,4.393-8.214a44.442,44.442,0,0,0-.391-8.659A3.021,3.021,0,0,1,308.571,248.591Z" transform="translate(-250.43 -219.109)" fill="#b3836c"/>
        <path id="Path_42954" data-name="Path 42954" d="M496.962,2044.393c1.27.587,2.6,1.042,3.82,1.743a10.551,10.551,0,0,1,4.029,4.15,7.235,7.235,0,0,1,1.024,4.08,24.246,24.246,0,0,0,.073,3.7,1.865,1.865,0,0,1-.989,1.88,16.242,16.242,0,0,1-6.544,2.722,23.753,23.753,0,0,1-13.039-1.179,21.939,21.939,0,0,1-8.538-6.088,2.119,2.119,0,0,1-.611-1.477c.041-4.083.046-8.167.067-12.25a1.6,1.6,0,0,1,.128-.871c.51.4.422.984.427,1.521.018,2.031.011,4.062,0,6.092a2.429,2.429,0,0,0,.43,1.675A11.718,11.718,0,0,0,480,2052.7c1.075.73,1.233.685,1.741-.484a12.655,12.655,0,0,1,5.872-6.623,14.948,14.948,0,0,1,7.563-1.347C495.783,2044.163,496.358,2044.457,496.962,2044.393Z" transform="translate(-424.211 -1789.29)" fill="#6e9393"/>
        <path id="Path_42955" data-name="Path 42955" d="M172.2,2073.125c.025,1.488.039,2.977.082,4.464a1.738,1.738,0,0,1-.55,1.242,21.733,21.733,0,0,1-13.216,7.352,23.336,23.336,0,0,1-10.115-.524,16.338,16.338,0,0,1-5.117-2.543,1.469,1.469,0,0,1-.711-1.378c.1-2,.173-4,.2-6,.008-.543.427-.807.6-1.23a10.7,10.7,0,0,1,6.705-6.048c.478-.174.936-.4,1.4-.6.67.073,1.3-.276,1.972-.183a16.311,16.311,0,0,1,6.411.884,12.086,12.086,0,0,1,6.816,6.892c.609,1.384.729,1.414,2,.555a13.3,13.3,0,0,0,2.489-2.189C171.483,2073.541,171.636,2073.023,172.2,2073.125Z" transform="translate(-133.286 -1812.714)" fill="#6e9393"/>
        <path id="Path_42956" data-name="Path 42956" d="M302.1,163.219a7.637,7.637,0,0,1,1.9-5.5c.464-.571.531-.568,1.085-.073a1.942,1.942,0,0,1,.629,1.454,21.12,21.12,0,0,1-.809,6.4,19.032,19.032,0,0,0,.114,8.913,2.011,2.011,0,0,1,.1.489.408.408,0,0,1-.192.287.3.3,0,0,1-.431-.137,5.035,5.035,0,0,1-.322-1.09c-.34-2.432-1.012-4.791-1.553-7.178a.537.537,0,0,0-.517-.463c.12-.976,1.146-1.16,1.539-1.772-.448.431-1.016.871-1.536,1.366s-.592-.017-.713-.37l-.085-.447c-.316-.623.172-.938.52-1.278.484-.473,1.069-.829,1.541-1.258C302.964,162.741,302.737,163.373,302.1,163.219Z" transform="translate(-271.627 -146.792)" fill="#464c56"/>
        <path id="Path_42957" data-name="Path 42957" d="M517.47,170.713c-.294,1.361-.57,2.726-.887,4.081-.355,1.521-.709,3.041-.913,4.592-.034.261-.068.543-.418.5s-.338-.338-.327-.589a3.126,3.126,0,0,1,.113-.621,20.71,20.71,0,0,0,.563-4.383,17.541,17.541,0,0,0-.528-4,29.128,29.128,0,0,1-.926-5.612,2.275,2.275,0,0,1,1.708-2.022.527.527,0,0,1,.517.3,6.317,6.317,0,0,1,1.349,3.241c.024.6.355,1.142.253,1.753-.669.17-.859-.589-1.355-.689a16.6,16.6,0,0,1,1.87,1.624c.4.307.181.768.072,1.168l-.117.671c-.691.129-.9-.509-1.306-.831a6.81,6.81,0,0,0-1.018-.851C516.642,169.538,517.441,169.8,517.47,170.713Z" transform="translate(-457.313 -151.479)" fill="#454b55"/>
        <path id="Path_42958" data-name="Path 42958" d="M364.317,2023.573l-.755.739a.969.969,0,0,1-.331-.671,90.457,90.457,0,0,1-.22-12.608c.955-.341.955-.341,1.213.912C364.329,2015.819,364.417,2019.7,364.317,2023.573Z" transform="translate(-325.4 -1763.163)" fill="#7e302d"/>
        <path id="Path_42959" data-name="Path 42959" d="M569.923,2016.33a2.639,2.639,0,0,1-1.9.094c-2-.378-3.3-1.844-4.66-3.148a7.852,7.852,0,0,1-2.066-3.027c-.255-.735-.987-.729-1.439-1.138a6.128,6.128,0,0,1,2.264-.492,8.722,8.722,0,0,0,3.1,4.7A21.582,21.582,0,0,0,569.923,2016.33Z" transform="translate(-497.171 -1761.227)" fill="#7f2f2c"/>
        <path id="Path_42960" data-name="Path 42960" d="M214.334,2016.515a3.462,3.462,0,0,1-2.093-.04,22.325,22.325,0,0,0,4.8-3.063,9.287,9.287,0,0,0,3.123-4.676,5.692,5.692,0,0,1,2.109.469,4.3,4.3,0,0,0-1.664,1.831A11.851,11.851,0,0,1,214.334,2016.515Z" transform="translate(-194.039 -1761.329)" fill="#7f302c"/>
        <path id="Path_42961" data-name="Path 42961" d="M478.5,2024.028a2.04,2.04,0,0,1-.8-1.878c.041-2.189.05-4.379.062-6.569,0-.418-.039-.837-.061-1.254q.032-1.938.063-3.877c.443.026.919-.118,1.3.25.286,1.148-.168,2.263-.147,3.407.049,2.709.027,5.421.008,8.131C478.917,2022.857,479.03,2023.525,478.5,2024.028Z" transform="translate(-425.529 -1762.818)" fill="#7c2d29"/>
        <path id="Path_42962" data-name="Path 42962" d="M296.375,191.538c.708-.379,1.171-1.218,2.341-1.215-.9.744-1.646,1.343-2.373,1.96a1.669,1.669,0,0,0-.754,1.129c-.435.09-.509.634-.942.761a9.476,9.476,0,0,0,.8-4.21c0-.072.086-.139.132-.208.126.709-.112,1.433.078,2.151C296.038,192.055,296.145,191.674,296.375,191.538Z" transform="translate(-265.9 -175.112)" fill="#828a96"/>
        <path id="Path_42963" data-name="Path 42963" d="M528.646,197.689a1.565,1.565,0,0,0-.689-1.4c-.728-.558-1.392-1.2-2.247-1.944a4.6,4.6,0,0,1,2.347,1.24c.184.276.384.526.766.5.09.8.926,1.282.947,2.15-.389-.075-.471-.44-.7-.643C528.895,197.434,528.781,197.625,528.646,197.689Z" transform="translate(-467.397 -179.115)" fill="#808995"/>
        <path id="Path_42964" data-name="Path 42964" d="M524.53,210.562c-.544-.881-1.514-1.335-2.287-2.21a2.705,2.705,0,0,1,1.852.935,11.09,11.09,0,0,0,1.41,1.286c.236.455.7.791.8,1.477l-.957-.625A1.677,1.677,0,0,0,524.53,210.562Z" transform="translate(-464.372 -191.328)" fill="#828c98"/>
        <path id="Path_42965" data-name="Path 42965" d="M212.65,941.281a1.006,1.006,0,0,1,.2.72q0,4.343,0,8.686a1.177,1.177,0,0,1-.2.848Q212.651,946.408,212.65,941.281Z" transform="translate(-194.396 -830.469)" fill="#d28d89"/>
        <path id="Path_42966" data-name="Path 42966" d="M298.967,210.12c.2.143.3.58.661.179s.764-.78,1.16-1.155a2.252,2.252,0,0,1,1.378-.743c-.641,1.129-1.867,1.518-2.49,2.5-.422.263-.171.7-.274,1.05-.233-.52-.586-.2-.98-.1C298.558,211.225,299.119,210.771,298.967,210.12Z" transform="translate(-269.192 -191.372)" fill="#858e9a"/>
        <path id="Path_42967" data-name="Path 42967" d="M645.838,967.188q0,2.579,0,5.157A12.329,12.329,0,0,1,645.838,967.188Z" transform="translate(-571.916 -853.061)" fill="#d8c0b5"/>
        <path id="Path_42968" data-name="Path 42968" d="M236.275,1229.037a18.372,18.372,0,0,1,.175,4.906A21.221,21.221,0,0,1,236.275,1229.037Z" transform="translate(-214.949 -1081.403)" fill="#8ea0ad"/>
        <path id="Path_42969" data-name="Path 42969" d="M244.781,1192.832c1.891.276,3.722.838,5.614,1.131,2.475.383,4.951.722,7.442.989a94.019,94.019,0,0,0,12.482.439,92.988,92.988,0,0,0,18.8-2.358c.371-.087.748-.148,1.123-.221a.769.769,0,0,1,.282.678,29.294,29.294,0,0,1-.176,4.581,14.785,14.785,0,0,0-.064,2.8c-.007,1.406.09,2.82-.026,4.217-.214,2.589-.07,5.194-.3,7.766-.2,2.216-.007,4.427-.22,6.621-.255,2.634-.036,5.281-.284,7.9-.211,2.215.009,4.432-.237,6.62-.286,2.552-.016,5.111-.268,7.641-.208,2.086-.025,4.173-.244,6.236-.207,1.955-.028,3.922-.266,5.85-.289,2.342,0,4.687-.242,7-.29,2.764,0,5.539-.273,8.28-.26,2.641.019,5.283-.242,7.9-.3,2.978.015,5.965-.267,8.919-.285,2.981-.112,5.951-.2,8.925-.035,1.15-.024,1.137-1.151,1.441a23.584,23.584,0,0,1-7.825.715,14.775,14.775,0,0,1-3.743-.661,1.014,1.014,0,0,1-.843-1.078c-.02-2.549-.208-5.094-.307-7.639-.089-2.292-.022-4.6-.257-6.871-.159-1.533-.034-3.065-.221-4.575-.3-2.405-.017-4.841-.467-7.231a1.048,1.048,0,0,1-.011-.255,63.967,63.967,0,0,0-.334-8.02,41.974,41.974,0,0,0-.412-6.466.883.883,0,0,1-.02-.254,46.448,46.448,0,0,0-.323-6.359,42.93,42.93,0,0,0-.428-6.209.941.941,0,0,1-.017-.255,69.831,69.831,0,0,0-.3-7c-.073-2.248-.1-4.507-.279-6.743-.133-1.615-.082-3.227-.209-4.832-.288-3.641-.419-7.286-.538-10.935-.034-1.049-.232-2.1-.214-3.168.019-1.084.143-1.325,1.185-1.387a17.755,17.755,0,0,0,3.972-.821,10.784,10.784,0,0,0,2.758-1.184,47.01,47.01,0,0,1-19.76-.035,9.938,9.938,0,0,0,4.07,1.694,16.523,16.523,0,0,0,3.5.56c.6.013.746.282.551.823a1.628,1.628,0,0,0-.1.625c.148,2.6-.277,5.177-.269,7.769.007,2.338-.218,4.669-.332,7a46.481,46.481,0,0,1-.225,5.208c-.367,2.24.081,4.512-.451,6.724a.429.429,0,0,0-.006.127,54.569,54.569,0,0,1-.313,6.871c-.128,2.238-.073,4.49-.421,6.722a29.039,29.039,0,0,0-.228,3.8c-.054,2.381-.251,4.754-.378,7.125a53.062,53.062,0,0,1-.437,6.975,1.054,1.054,0,0,0-.014.255c.16,2.641-.257,5.261-.286,7.9-.026,2.376-.147,4.759-.305,7.126-.12,1.785-.018,3.574-.21,5.342-.258,2.377-.18,4.755-.246,7.132-.032,1.171-.29,1.463-1.456,1.71a21.6,21.6,0,0,1-7.832.328c-1.086-.167-2.173-.31-3.256-.512-.738-.138-.967-.454-1.013-1.178-.228-3.611-.112-7.231-.283-10.837-.152-3.189-.01-6.388-.272-9.557-.2-2.386,0-4.767-.22-7.133-.258-2.8-.043-5.62-.286-8.406-.194-2.214-.009-4.428-.233-6.62-.213-2.082-.042-4.175-.273-6.232-.215-1.917-.018-3.834-.234-5.726-.3-2.677-.013-5.368-.279-8.024-.221-2.215,0-4.431-.238-6.62-.28-2.551-.01-5.113-.27-7.641-.249-2.427.006-4.857-.247-7.258-.251-2.383,0-4.774-.263-7.13-.287-2.555-.114-5.1-.207-7.647a6.82,6.82,0,0,0-.174-1.513A1.716,1.716,0,0,1,244.781,1192.832Z" transform="translate(-221.939 -1049.813)" fill="#4c7e9f"/>
        <path id="Path_42970" data-name="Path 42970" d="M483.931,2025.675c.012-3.511.017-7.023.041-10.534a6.714,6.714,0,0,1,.523-2.795,35.186,35.186,0,0,0,9.152,0,1.513,1.513,0,0,1,1.8,1.142,11.351,11.351,0,0,0,4.12,4.734c.715.527,1.5.961,2.25,1.438-1.346.182-2.7.057-4.058.325-4.62.912-7.474,3.771-9.146,8.012a2.683,2.683,0,0,0-.08.374c-.13.557-.419.666-.925.383A10.379,10.379,0,0,1,483.931,2025.675Z" transform="translate(-430.963 -1764.465)" fill="#b5433d"/>
        <path id="Path_42971" data-name="Path 42971" d="M228.6,2019.618a25.63,25.63,0,0,0,3.957-2.95,9.887,9.887,0,0,0,2.425-3.379,1.358,1.358,0,0,1,1.557-.98c1.317-.021,2.6.3,3.925.308a45.153,45.153,0,0,0,5.452-.314c.334.235.281.592.284.927.007.851.041,1.7.005,2.552-.138,3.274.285,6.531.262,9.8a11.122,11.122,0,0,1-3.874,3.209c-.493.294-.644.028-.785-.417a13.775,13.775,0,0,0-2.259-4.236,11.6,11.6,0,0,0-8.668-4.4C230.122,2019.666,229.359,2019.656,228.6,2019.618Z" transform="translate(-208.304 -1764.432)" fill="#b5433d"/>
        <path id="Path_42972" data-name="Path 42972" d="M108.023,539.607c-.263.073-.215.32-.215.513,0,2.258-.156,4.531.049,6.77.179,1.959.14,3.906.177,5.859.024,1.269,0,1.171-1.253,1.072a26.085,26.085,0,0,1-5.823-1.294,26.5,26.5,0,0,1-7.094-3.714c-.386-.269-.753-.5-.366-1.118,2.328-3.7,3.679-7.83,5.09-11.931a65.976,65.976,0,0,1,3.872-9.7,9.445,9.445,0,0,1,4.51-4.509,8.457,8.457,0,0,1,3.829-.741,10.23,10.23,0,0,0-1.532,2.334c1.344-.763,2.265-1.686,3.406-2.258,1.218-.61,2.431-1.222,3.7-1.719,1.227-.48,2.5-.774,3.814-1.184a20.048,20.048,0,0,0,1.863,5.739,14.657,14.657,0,0,0,11.151,7.793A15.786,15.786,0,0,0,143,530.136a14.92,14.92,0,0,0,8.259-10.847c.044-.207.03-.428.087-.63.13-.461.313-.691.913-.512a27.268,27.268,0,0,1,8.1,3.629,7.327,7.327,0,0,0,2.148,1.278c-.3-1.01-1.229-1.337-1.621-2.211a7.189,7.189,0,0,1,4.049.767,9.635,9.635,0,0,1,4.186,4.163,46.968,46.968,0,0,1,2.95,6.914c1,2.8,1.977,5.61,2.983,8.408a41.259,41.259,0,0,0,2.917,6.227c.52.926.485,1.055-.368,1.666a26.229,26.229,0,0,1-10.313,4.5c-.914.18-1.83.364-2.752.488-.818.11-.959-.038-.979-.881-.062-2.6.354-5.175.26-7.775-.057-1.574,0-3.153,0-4.729a1.619,1.619,0,0,0-.1-.927.345.345,0,0,0-.385.34c-.191,2.026-.436,4.046-.56,6.08-.287,4.719-.07,9.452-.32,14.163-.2,3.82-.294,7.643-.519,11.456q-.3,5.048-.113,10.076a80.61,80.61,0,0,0,.64,8.11c.3,2.138.487,4.293.827,6.427.206,1.3.4,2.6.623,3.888.17.971.182,1.033-.658,1.33a57.373,57.373,0,0,1-10.09,2.6c-2.007.319-4.009.674-6.021.952-.964.133-1.942.193-2.912.279a97.455,97.455,0,0,1-13.137.234,87.244,87.244,0,0,1-9.1-.9,89.509,89.509,0,0,1-9.217-1.839,28.778,28.778,0,0,1-4-1.259c-1-.426-1.106-.533-.946-1.6.169-1.131.38-2.255.563-3.384.284-1.755.5-3.521.731-5.283.3-2.271.337-4.565.688-6.83a15.891,15.891,0,0,0,.045-1.787,32.647,32.647,0,0,1,.2-4.712,4.718,4.718,0,0,0-.075-2.031,3.241,3.241,0,0,1-.1-.883c.111-4.513-.2-9.02-.361-13.523-.143-3.915.044-7.838-.249-11.735-.187-2.487-.3-4.99-.652-7.468a11.746,11.746,0,0,0-.3-2.4C108.261,539.819,108.276,539.627,108.023,539.607Z" transform="translate(-90.348 -461.341)" fill="#f87360"/>
        <path id="Path_42973" data-name="Path 42973" d="M652.524,812.075c1.255,4.449,2.346,8.939,3.38,13.443a15.135,15.135,0,0,0,.468,1.589c1.094,3.139.918,6.4.706,9.609a84.442,84.442,0,0,1-1.359,9.943c-.741,3.956-1.5,7.911-2.111,11.889a59.42,59.42,0,0,0-.8,8.867,2.593,2.593,0,0,0,.28,1.48,17.255,17.255,0,0,1,2.223,6.2,28.193,28.193,0,0,1,.533,6.589,27.211,27.211,0,0,1-2.825,11.533,6.287,6.287,0,0,1-1.346,1.686.893.893,0,0,1-1.059.175c-.367-.175-.378-.53-.382-.88a6.389,6.389,0,0,1,.664-2.314c.225-.6.575-1.142.816-1.732.264-.646.51-1.107,1.38-1.208a1.492,1.492,0,0,0,1.25-2.165c-1.238-2.469-.759-4.982-.375-7.494a8.053,8.053,0,0,0-1.42-5.839c.231,1.136.413,2.061.608,2.982a9.657,9.657,0,0,1,.026,3.421c-.152,1.048-.282,2.1-.382,3.155a6.228,6.228,0,0,0,.567,3.1,6.767,6.767,0,0,1,.31.837.931.931,0,0,1-.883,1.329,3.174,3.174,0,0,1-3.32-2.845c-.036-.85-.021-1.706.023-2.556a2.751,2.751,0,0,0-.927-2.276,7.625,7.625,0,0,1-2.042-3.338c-.239-.75-.02-1.526-.2-2.279-.41-.072-.387.247-.418.464a6.016,6.016,0,0,0,1.777,5.246,3.836,3.836,0,0,1,1.118,3.422,9.723,9.723,0,0,1-1.4,4.018,22.191,22.191,0,0,0-1.783,3.671c-.075.213-.169.439-.409.4-.219-.036-.305-.268-.33-.494a2.5,2.5,0,0,1,.269-1.482c.554-1.056,1.1-2.114,1.623-3.188a6.433,6.433,0,0,0-.041-6.01c-.6-1.176-1.207-2.349-1.771-3.543a8.312,8.312,0,0,1,.435-8.587,10.206,10.206,0,0,1,2.5-2.764c-.875-.176-1.257.457-1.822.736-.327-.256-.174-.62-.174-.922a49.592,49.592,0,0,0-.282-7.134c-.327-2.222-.658-4.445-1.07-6.652-.7-3.748-1.517-7.474-2.179-11.229a35.763,35.763,0,0,1-.536-8.889,12.576,12.576,0,0,1,1.461-5.625.7.7,0,0,0,.146-.7c-1.112.742-1.3,2.041-2.034,3.12-.639-1.61-.739-3.267-1.372-4.76-.1-2.9.09-5.794.23-8.688.276-.551.8-.554,1.312-.614,3.391-.4,6.774-.827,9.761-2.7A.915.915,0,0,1,652.524,812.075Z" transform="translate(-567.068 -717.604)" fill="#efb995"/>
        <path id="Path_42974" data-name="Path 42974" d="M93.522,820.517a21.791,21.791,0,0,1-1.054,7.653c-.062.2-.091.408-.145.61-.005.02-.074.024-.2.062a8.852,8.852,0,0,0-1.849-3.153c-.288.19-.162.356-.089.478a11.115,11.115,0,0,1,1.5,5.713c.013,1.222.066,2.442.06,3.666a48.918,48.918,0,0,1-1.194,9.195c-.834,4.239-1.741,8.466-2.368,12.739a31.462,31.462,0,0,0-.365,3.8c-.032,1.311-.242,2.616-.227,3.939.007.575.309,1.134.1,1.83-.761-.394-1.312-1.043-2.144-1.165-.052.519.508.43.7.709a10.756,10.756,0,0,0,.805.817,9.042,9.042,0,0,1,2.587,6.453,8.692,8.692,0,0,1-.889,3.427c-.581,1.232-1.186,2.454-1.832,3.653a6.441,6.441,0,0,0-.034,6.227c.563,1.146,1.152,2.28,1.73,3.418a1.31,1.31,0,0,1-.267,1.75c-.532-.488-.551-1.172-.848-1.711-.758-1.379-1.463-2.787-2.235-4.159s-.508-2.828-.412-4.246c.044-.64.706-1.134,1.151-1.646a7.187,7.187,0,0,0,1.745-3.35,3.1,3.1,0,0,0-.329-2.33c-.2.7-.055,1.32-.216,1.912a8.225,8.225,0,0,1-2.136,3.86,3.333,3.333,0,0,0-.925,3.5,3.326,3.326,0,0,1-2.041,3.921,3.211,3.211,0,0,1-.731.2c-1.281.137-1.745-.441-1.354-1.666a1.57,1.57,0,0,1,.106-.232,8.083,8.083,0,0,0,.517-5.209,14.49,14.49,0,0,1,.211-6.56,2,2,0,0,0,.066-.5c0-.07-.062-.142-.136-.3a5.236,5.236,0,0,0-1.094,2.936,17.87,17.87,0,0,0,.348,5.324,6.245,6.245,0,0,1-.313,3.5c-.1.28-.227.551-.326.831-.558,1.589-.156,2.331,1.474,2.643.362.07.661.142.793.518.451,1.285,1.249,2.423,1.59,3.754a6.587,6.587,0,0,1,.208.734c.051.383.073.8-.337,1.017a1.046,1.046,0,0,1-1.2-.087,3.676,3.676,0,0,1-.827-.962,22.467,22.467,0,0,1-2.711-7.105,29.331,29.331,0,0,1-.451-9.138,18.894,18.894,0,0,1,2.455-8.614,2.75,2.75,0,0,0,.307-1.471,50.421,50.421,0,0,0-.98-10.627c-.809-4.372-1.632-8.744-2.3-13.14a50.817,50.817,0,0,1-.861-7.833c0-.757-.2-1.507-.23-2.276a23.847,23.847,0,0,1,1.011-7.025c1.254-4.884,2.417-9.792,3.618-14.69a1.15,1.15,0,0,1,1.419.067c2.967,1.737,6.264,2.267,9.6,2.58,1.088.1,1.5.5,1.375,1.583a3.463,3.463,0,0,0,.08,1.63Q93.483,819.243,93.522,820.517Z" transform="translate(-75.517 -717.634)" fill="#efb995"/>
        <path id="Path_42975" data-name="Path 42975" d="M335.038,465.066a2.553,2.553,0,0,1,1.133-.68c.377,1.546.078,3.109.316,4.643a23.054,23.054,0,0,0,.812,4.515h.269c.009-.76.045-1.521.02-2.279-.028-.868.038-1.207,1.052-.886.866.274,1.855.16,2.592.844a14.145,14.145,0,0,1-12.326,12.3,15.133,15.133,0,0,1-12.267-3.362,13.982,13.982,0,0,1-4.3-6.949c-.15-.486-.233-.992-.346-1.489.008-.564.169-.957.835-1.047.581-.079,1.154-.222,1.741-.3,1.015-.13,1.015-.157,1.024.892a16.684,16.684,0,0,0,.107,2.219c1.073-2.808.859-5.78,1.191-8.678.708-.107.935.474,1.237.9,2.59,3.659,8.5,5.513,12.888,2.583C332.474,467.328,333.654,466.087,335.038,465.066Z" transform="translate(-281.025 -414.6)" fill="#efb995"/>
        <path id="Path_42976" data-name="Path 42976" d="M125.083,794.85c-.42-.622-.185-1.323-.212-1.985-.024-.594-.242-.808-.839-.834a36.9,36.9,0,0,1-5.891-.858,16.055,16.055,0,0,1-3.989-1.669,2.518,2.518,0,0,0-1.545-.515l1.01-3.614A34.3,34.3,0,0,0,120.7,787.8q1.743.343,3.5.619c.445.069.666.225.7.712A42.4,42.4,0,0,1,125.083,794.85Z" transform="translate(-107.154 -694.514)" fill="#d5a181"/>
        <path id="Path_42977" data-name="Path 42977" d="M654.245,789.049a1.713,1.713,0,0,0-1.2.358c-2.411,1.588-5.149,2.083-7.941,2.468a12.306,12.306,0,0,0-3.119.486c0-1.018.013-2.035-.006-3.053-.01-.511.157-.744.706-.817a37.54,37.54,0,0,0,5.469-1.054,33.021,33.021,0,0,0,5.079-1.988A10.729,10.729,0,0,1,654.245,789.049Z" transform="translate(-568.789 -694.578)" fill="#d5a181"/>
        <path id="Path_42978" data-name="Path 42978" d="M127.063,1416.008c-.015,1.293-.74,1.878-1.8,1.546-.267-.084-.446-.235-.273-.558a3.688,3.688,0,0,0-.2-3.406c-.395-.89-.838-1.761-1.3-2.621-.278-.522-.2-.829.348-1.108s.669.082.84.423c.629,1.249,1.27,2.493,1.871,3.755A3.891,3.891,0,0,1,127.063,1416.008Z" transform="translate(-116.517 -1239.001)" fill="#edb894"/>
        <path id="Path_42979" data-name="Path 42979" d="M139.457,1407.086a18.507,18.507,0,0,0-2.354-5.64,7.181,7.181,0,0,1-.5-1.166.565.565,0,0,1,.34-.738c.3-.12.473.139.582.366.806,1.68,1.95,3.191,2.435,5.035A1.956,1.956,0,0,1,139.457,1407.086Z" transform="translate(-128.05 -1230.063)" fill="#ecb793"/>
        <path id="Path_42980" data-name="Path 42980" d="M700.97,1417.476a1.1,1.1,0,0,1-1.257-1.125,4.605,4.605,0,0,1,.414-2.48c.615-1.259,1.253-2.507,1.883-3.758.156-.31.32-.659.757-.4.4.23.669.544.422,1.047-.3.61-.611,1.213-.9,1.827a15.513,15.513,0,0,0-.82,1.861,2.946,2.946,0,0,0,.032,2.223C701.8,1417.335,701.671,1417.485,700.97,1417.476Z" transform="translate(-619.113 -1238.879)" fill="#eeb894"/>
        <path id="Path_42981" data-name="Path 42981" d="M688.382,1406.236a2.475,2.475,0,0,1-.446-2.685,42,42,0,0,1,2.434-4.885c.072-.154.181-.3.374-.274s.269.195.342.348c.3.639-.066,1.16-.357,1.653a30.592,30.592,0,0,0-1.82,3.632A10.851,10.851,0,0,0,688.382,1406.236Z" transform="translate(-608.684 -1229.083)" fill="#ecb793"/>
        <path id="Path_42982" data-name="Path 42982" d="M348.126,183.827a49.777,49.777,0,0,0,.382,5.573c.16,3.3.491,6.608-.864,9.8a9.041,9.041,0,0,1-5.124,5.2,19.027,19.027,0,0,1-7.2,1.4,19.512,19.512,0,0,1-6.944-1.4c-3.088-1.216-4.71-3.679-5.535-6.72a21.263,21.263,0,0,1-.414-7.7,36.723,36.723,0,0,0,.362-6.1c.43-.422,1.344-.042,1.5-.739a4.061,4.061,0,0,0-.242-1.62,18.485,18.485,0,0,1-.06-7.849,20.864,20.864,0,0,0,.547-7.729,27.471,27.471,0,0,0,21.491.946c.179.007.233.063.227.17a32.519,32.519,0,0,0,.864,7.461,18.261,18.261,0,0,1-.14,6.6c-.031.167-.079.331-.111.5C346.549,183.322,346.549,183.322,348.126,183.827Z" transform="translate(-289.985 -154.346)" fill="#efb995"/>
        <path id="Path_42983" data-name="Path 42983" d="M325.082,89.387a10.39,10.39,0,0,1,7.143-4.9,12.517,12.517,0,0,1,8.741,1.394c-1.157-1.846-5.814-2.551-8.756-1.914a12.282,12.282,0,0,0-7.616,4.935,2.56,2.56,0,0,1,.719-2.487,12.616,12.616,0,0,1,8.25-4.63,13.122,13.122,0,0,1,8.8,1.894A43.985,43.985,0,0,1,346,86.254a11.206,11.206,0,0,0,6.03,2.12c.646.067,1.233-.3,2.01-.237a9.586,9.586,0,0,1-2.987,2.786,21.125,21.125,0,0,1-8.3,3.043,24.415,24.415,0,0,1-6.354.251,24.171,24.171,0,0,1-9.757-2.591,4.107,4.107,0,0,1-.555-.314c-.307-.236-.334-.486.047-.681a7.8,7.8,0,0,1,3.134-.978,12.813,12.813,0,0,1,5.975.951,10.173,10.173,0,0,0,4.418,1.1,2.339,2.339,0,0,0,1.472-.431c-1.107-.256-2.2.044-3.272-.244a29.341,29.341,0,0,1-3-1.055,10.281,10.281,0,0,0-8.975.243,3.778,3.778,0,0,1-.361.147,2.672,2.672,0,0,1,.976-1.316,10.872,10.872,0,0,1,5.191-2.236,15.016,15.016,0,0,1,5.278.264c.182.032.406.092.56-.111C335.091,85.616,329.392,85.566,325.082,89.387Z" transform="translate(-291.938 -80.858)" fill="#464c56"/>
        <path id="Path_42984" data-name="Path 42984" d="M533.449,250.07c2.108-.058,2.787.527,3.035,2.653a12.774,12.774,0,0,1-1.76,8.508,3.494,3.494,0,0,1-2.2,1.546c-.132-.867-.272-1.68-.375-2.5a2.267,2.267,0,0,1,1.17-2.241,7.057,7.057,0,0,1,.94-.45,2.094,2.094,0,0,0-1.957.341c.448-1.922.963-3.511,2.663-4.466-1.107-.462-1.454.716-2.226,1.044l-.124-.649A25.864,25.864,0,0,1,533.449,250.07Z" transform="translate(-472.991 -227.705)" fill="#ecb693"/>
        <path id="Path_42985" data-name="Path 42985" d="M288.206,254.083c-.078.116-.039.41-.271.289-.166-.087-.243-.334-.376-.495a1.919,1.919,0,0,0-1.985-.76c2.015.82,2.307,2.612,2.839,4.414-.67-.133-1.181-.6-1.779-.274.022.21.209.252.352.322a2.287,2.287,0,0,1,1.466,2.537,8.5,8.5,0,0,1-.2,1.887c-.165.464-.381.5-.748.285a5.392,5.392,0,0,1-2.313-2.79,14.96,14.96,0,0,1-1.069-6.719,4.109,4.109,0,0,1,.771-2.38,1.589,1.589,0,0,1,2.506-.135A25.065,25.065,0,0,1,288.206,254.083Z" transform="translate(-256.682 -227.401)" fill="#ecb693"/>
        <path id="Path_42986" data-name="Path 42986" d="M368.417,465.5a11.79,11.79,0,0,1-6.54,4.682,8.224,8.224,0,0,1-6.371-.533,14.527,14.527,0,0,1-2.419-1.375,7.584,7.584,0,0,1-1.9-2.005,2.283,2.283,0,0,0-.92-1.016c.023-.56.347-.354.6-.214a16.74,16.74,0,0,0,3.523,1.465,18.4,18.4,0,0,0,7.039.758,17.6,17.6,0,0,0,5.78-1.382A9.068,9.068,0,0,1,368.417,465.5Z" transform="translate(-314.404 -415.035)" fill="#d5a282"/>
        <path id="Path_42987" data-name="Path 42987" d="M532.337,2087.66a22.723,22.723,0,0,1-8.7-1.511c-.316-.124-.622-.274-.94-.4a.663.663,0,0,1-.392-1.021,13.926,13.926,0,0,1,.7-1.5,12.118,12.118,0,0,1,9.192-6.338,14.064,14.064,0,0,1,4.942.074,9.858,9.858,0,0,1,7.559,6.352c.187.495-.083.709-.392.944a13.737,13.737,0,0,1-4.179,2.142A23.043,23.043,0,0,1,532.337,2087.66Z" transform="translate(-464.335 -1820.606)" fill="#dee6e6"/>
        <path id="Path_42988" data-name="Path 42988" d="M483.837,2128.61a23.826,23.826,0,0,0,13.487,5.434,19.9,19.9,0,0,0,13.942-3.688,25.579,25.579,0,0,1,.322,4.387c-.011.573-.408.8-.819,1.035a17.848,17.848,0,0,1-4.615,1.806,25.384,25.384,0,0,1-11.86.216,19.5,19.5,0,0,1-9.456-5.52C483.557,2131,483.535,2130.769,483.837,2128.61Z" transform="translate(-430.742 -1865.864)" fill="#dee6e6"/>
        <path id="Path_42989" data-name="Path 42989" d="M166.179,2087.669a23.388,23.388,0,0,1-10.867-2.376,16.28,16.28,0,0,1-1.71-1.107.775.775,0,0,1-.262-1.092,9.888,9.888,0,0,1,7.948-6.219,14.4,14.4,0,0,1,5.938.294,11.9,11.9,0,0,1,8.263,7.165c.088.192.119.409.2.6.185.418,0,.581-.379.759a18.618,18.618,0,0,1-5.725,1.679A17.917,17.917,0,0,1,166.179,2087.669Z" transform="translate(-142.577 -1820.585)" fill="#dee6e6"/>
        <path id="Path_42990" data-name="Path 42990" d="M177.641,2128.019a3.693,3.693,0,0,1-1.143,3.843,19.345,19.345,0,0,1-11.511,5.837,24.67,24.67,0,0,1-13.476-1.954c-.154-.073-.3-.163-.456-.231a1.751,1.751,0,0,1-1.186-1.985c.109-1.168.025-2.355.025-3.884a19.812,19.812,0,0,0,14.178,3.885A23.309,23.309,0,0,0,177.641,2128.019Z" transform="translate(-139.638 -1865.348)" fill="#dee6e6"/>
        <path id="Path_42991" data-name="Path 42991" d="M445.486,210.84a8.893,8.893,0,0,0-5.948-1.555,11.972,11.972,0,0,0-2.248.441c-.719.192-.778.131-.809-.642-.1-2.465.214-2.839,2.666-3.077a7.568,7.568,0,0,1,4.1.691A3.533,3.533,0,0,1,445.486,210.84Z" transform="translate(-389.572 -189.248)" fill="#40454d"/>
        <path id="Path_42992" data-name="Path 42992" d="M344.026,210.735c-.465-1.994.465-3.146,1.985-3.949a7.788,7.788,0,0,1,6.193-.4c.47.147.744.384.7.9-.007.084.008.17,0,.255-.037.716.332,1.632-.132,2.1-.444.443-1.246-.169-1.9-.264a9.927,9.927,0,0,0-5.613.752C344.882,210.3,344.51,210.5,344.026,210.735Z" transform="translate(-308.856 -189.221)" fill="#41464f"/>
        <path id="Path_42993" data-name="Path 42993" d="M363.685,244.514l-.015.007a2.367,2.367,0,0,1,0,1.687l.013-.027c-1.253,2.655-4.263,2.906-6.128.51l.012.018c-.254-.2-.039-.574-.276-.784l.014.026a.958.958,0,0,1,0-1.043l-.012.027c.2-.338.207-.763.467-1.078A3.771,3.771,0,0,1,363.685,244.514Z" transform="translate(-320.401 -221.296)" fill="#f8fafa"/>
        <path id="Path_42994" data-name="Path 42994" d="M401.134,249.613a14.927,14.927,0,0,1-.3,2.226,8.809,8.809,0,0,0,1.5,5.3,11.806,11.806,0,0,1,1.423,2.979,4.581,4.581,0,0,1,0,2.631,3.2,3.2,0,0,1-2.522,2.122,4.324,4.324,0,0,1-4.261-1.01,3.094,3.094,0,0,1-1.015-2.624c.079-1.075.318-1.3,1.789-1.309-.985.4-1.389.944-1.273,1.844a2.559,2.559,0,0,0,1.474,2.1,4.438,4.438,0,0,0,3.936-.016,2.2,2.2,0,0,0,1.293-2.024,6.639,6.639,0,0,0-1.284-4.055,11.719,11.719,0,0,1-1.642-3.83A5.5,5.5,0,0,1,401.134,249.613Z" transform="translate(-354.238 -227.31)" fill="#b7866e"/>
        <path id="Path_42995" data-name="Path 42995" d="M388.736,371.563c-3.2,3.189-9.691,2.973-12.783.049-.04-.235.055-.354.3-.346a8.809,8.809,0,0,0,4.036,1.636,15.96,15.96,0,0,0,3.937.014,7.265,7.265,0,0,0,4.3-1.806c.169-.185.379-.18.477.021S388.954,371.5,388.736,371.563Z" transform="translate(-336.795 -333.142)" fill="#140d0a"/>
        <path id="Path_42996" data-name="Path 42996" d="M365.8,240.776c-2.005-1.876-3.817-1.986-5.922-.359-.235.03-.359-.044-.289-.3a3.649,3.649,0,0,1,5.575-.676A1.989,1.989,0,0,1,365.8,240.776Z" transform="translate(-322.518 -217.559)" fill="#191210"/>
        <path id="Path_42997" data-name="Path 42997" d="M443.94,240.534c.652-2.46,4.838-2.575,5.965-.547.064.251-.079.362-.288.429a2.2,2.2,0,0,1-1.09-.294,4.566,4.566,0,0,0-4.226.553A.528.528,0,0,1,443.94,240.534Z" transform="translate(-396.089 -217.678)" fill="#181312"/>
        <path id="Path_42998" data-name="Path 42998" d="M442.176,253.931l.276.011a1.051,1.051,0,0,1,.1.735,2.126,2.126,0,0,0,1.036,2.38,3.333,3.333,0,0,0,3.381-.111c.395-.235.665-.659,1.146-.767l.184.021c.153.385-.091.654-.3.911a3.711,3.711,0,0,1-5.411.13A3.229,3.229,0,0,1,442.176,253.931Z" transform="translate(-394.325 -231.075)" fill="#5d4d45"/>
        <path id="Path_42999" data-name="Path 42999" d="M369.659,358.8a.318.318,0,0,0-.3.346,1.509,1.509,0,0,0-.112,1.449c.109.445.258.88.408,1.38a2.5,2.5,0,0,1-1.271-2.383,3.219,3.219,0,0,1,1.871-2.911C370,357.393,368.985,357.875,369.659,358.8Z" transform="translate(-330.203 -320.674)" fill="#b8876f"/>
        <path id="Path_43000" data-name="Path 43000" d="M469.766,360.022c.026-.195.3-.5-.208-.452.133-.315.275-.606-.022-.937-.244-.272-.624-.458-.671-.891,1.953.537,2.451,3.16.856,5.437a10.723,10.723,0,0,1,.207-1.86C470.054,360.874,470.207,360.406,469.766,360.022Z" transform="translate(-417.825 -321.602)" fill="#b9886f"/>
        <path id="Path_43001" data-name="Path 43001" d="M360.145,270.3a7.652,7.652,0,0,0,2.036,1.207,3.514,3.514,0,0,0,4.093-1.717,2.105,2.105,0,0,1-1.266,1.892,3.731,3.731,0,0,1-4.538-.612C360.27,270.851,360.046,270.64,360.145,270.3Z" transform="translate(-322.996 -244.901)" fill="#655148"/>
        <path id="Path_43002" data-name="Path 43002" d="M413.815,386.04a7.13,7.13,0,0,1-3.937-.014Z" transform="translate(-366.386 -346.267)" fill="#b16854"/>
        <path id="Path_43003" data-name="Path 43003" d="M487.953,249.993a.561.561,0,0,0,.333-.338,2.624,2.624,0,0,1,.16,2.816h0A5.989,5.989,0,0,1,487.953,249.993Z" transform="translate(-434.47 -227.346)" fill="#5d4d45"/>
        <path id="Path_43004" data-name="Path 43004" d="M408.1,258.5l0-1.687A1.434,1.434,0,0,1,408.1,258.5Z" transform="translate(-364.839 -233.589)" fill="#655148"/>
        <path id="Path_43005" data-name="Path 43005" d="M358.109,251.574l.289.3c-.153.264-.181.6-.477.781C357.9,252.283,357.75,251.884,358.109,251.574Z" transform="translate(-321.034 -229.02)" fill="#655148"/>
        <path id="Path_43006" data-name="Path 43006" d="M356.628,259.846q0,.522,0,1.043A.664.664,0,0,1,356.628,259.846Z" transform="translate(-319.73 -236.233)" fill="#655148"/>
        <path id="Path_43007" data-name="Path 43007" d="M358.172,267.79a.772.772,0,0,1,.276.784C357.98,268.445,358.243,268.059,358.172,267.79Z" transform="translate(-321.287 -243.161)" fill="#655148"/>
        <path id="Path_43008" data-name="Path 43008" d="M378.973,256.875A1.376,1.376,0,0,1,377.6,255.4a1.409,1.409,0,0,1,1.383-1.359,1.458,1.458,0,0,1,1.462,1.428A1.433,1.433,0,0,1,378.973,256.875Z" transform="translate(-338.236 -231.167)" fill="#0d0b0b"/>
        <path id="Path_43009" data-name="Path 43009" d="M449.638,246.068a2.866,2.866,0,0,1,.5,2.478,3.892,3.892,0,0,1-3.26,1.584c-2.331-.065-3.4-1.627-2.593-3.841C445.891,244.852,447.554,244.783,449.638,246.068Z" transform="translate(-396.156 -223.422)" fill="#f7fafa"/>
        <path id="Path_43010" data-name="Path 43010" d="M388.634,258.723a.385.385,0,0,1-.354.408.373.373,0,0,1-.464-.312.4.4,0,0,1,.4-.52C388.43,258.292,388.6,258.441,388.634,258.723Z" transform="translate(-347.138 -234.884)" fill="#c0d3d3"/>
        <path id="Path_43011" data-name="Path 43011" d="M453.174,256.882a1.37,1.37,0,0,1-1.409-1.442,1.4,1.4,0,0,1,1.345-1.393,1.451,1.451,0,0,1,1.495,1.392A1.427,1.427,0,0,1,453.174,256.882Z" transform="translate(-402.913 -231.175)" fill="#0c0a0a"/>
        <path id="Path_43012" data-name="Path 43012" d="M463.009,259.552c-.035.3-.185.455-.414.441a.408.408,0,0,1-.407-.516.417.417,0,0,1,.821.076Z" transform="translate(-411.994 -235.633)" fill="#d2cfcf"/>
      </g>
    </g>
  </g>
</svg>
