<svg xmlns="http://www.w3.org/2000/svg" xmlns:xlink="http://www.w3.org/1999/xlink" width="137.14" height="137.14" viewBox="0 0 137.14 137.14">
  <defs>
    <clipPath id="clip-path">
      <circle id="Ellipse_1122" data-name="Ellipse 1122" cx="68.57" cy="68.57" r="68.57" transform="translate(1.43 1.43)"/>
    </clipPath>
  </defs>
  <g id="Group_117515" data-name="Group 117515" transform="translate(-1.43 -1.43)">
    <circle id="Ellipse_891_00000132770875941024447040000013412340107145561759_" cx="68.57" cy="68.57" r="68.57" transform="translate(1.43 1.43)" fill="#f2f2f2"/>
    <g id="Group_117500" data-name="Group 117500">
      <g id="Group_117499" data-name="Group 117499" clip-path="url(#clip-path)">
        <path id="Path_38895" data-name="Path 38895" d="M97.443,53.428c2.342-.306,5.2.687,5.876,2.568a25.416,25.416,0,0,1,.979,4.033,26.237,26.237,0,0,1-1.383,11.407c-.69,2.169-1.969,5.035-3.71,6.568a8.093,8.093,0,0,1-4.644,1.117c-.11-.718-.33-1.977-.4-2.672-.116-1.1-1.181-1.09-1.21-2.189-.053-1.981.631-8.776,1.786-10.313C95.478,62.959,96.866,56.222,97.443,53.428Z" fill="#6a4136"/>
        <path id="Path_38896" data-name="Path 38896" d="M48.505,53.727H41.671l-3.506.639L35.729,58.1l.238,5.5.594,5.816L38.4,74.169l1.783,2.674,2.555,1.842,4.278.435.773-16.285Z" fill="#6e4539"/>
        <path id="Path_38897" data-name="Path 38897" d="M89.193,102.011c.089,2.123.009,8.969.168,11.087.223,2.977,6.687,3.126,9.015,3.64,4.1,1.525,6.6,4.054,5.55,6.525-.629,1.482-4.975,5.523-5.833,6.886-2.146,3.4-5.311,9.778-8.772,11.8-3.385,1.976-6.62,4.78-10.526,5.219-6.321.711-18.954-.271-24.473-3.421C50.2,141.392,41.9,130.446,41.3,127.123c-2.061-4.824-.3-9.45-.356-9.735,2.115-.521,7.273-2.132,9.392-2.554.185-.037,1.284-10.177,1.456-12.823C52.31,102.3,89.036,102.023,89.193,102.011Z" fill="#6f4539"/>
        <path id="Path_38898" data-name="Path 38898" d="M94.678,73.561c.236,2.032.474,4.426.6,6.469s.035,6,0,8.047c-.071,4.146-1.411,7.353-3.328,11.088A15.643,15.643,0,0,1,83.5,106.9a35.5,35.5,0,0,1-9.04,2.232c-1.133.127-2.259.4-3.392.42a27.244,27.244,0,0,1-4.126-.239,43.555,43.555,0,0,1-8.855-2.021,21.58,21.58,0,0,1-8.063-5.007,19.878,19.878,0,0,1-3.593-5.957,23.862,23.862,0,0,1-1.718-9.483c.049-1.818-.042-3.641.033-5.457.076-1.846.327-3.685.416-5.531a56.928,56.928,0,0,0,.324-8.129,9.5,9.5,0,0,0,.421-4c0-1.7.677-3.393.7-5.088.035-3.238.05-6.483.268-9.712.21-3.1-.141-7.661.7-10.682.115-.412.929-3.343,3.741-4.152,2.489.843,26.014,3.294,37.669-1.265.105-.041,3.364,3.816,3.639,3.767.133.85.9,5.916.932,6.755.184,4.3.388,8.6.453,12.9.043,2.841,1.895,6.508,1.8,9.351-.025.787-.5,1.942-.539,2.83A15.316,15.316,0,0,0,94.678,73.561Z" fill="#6e4539"/>
        <path id="Path_38899" data-name="Path 38899" d="M75.136,50.768c-.806.235-1.517.449-2.3.687a4.731,4.731,0,0,1-.125-.734c0-1.464.05-2.928.025-4.39a1.12,1.12,0,0,1,.873-1.219,14.825,14.825,0,0,1,12.171.683,8.593,8.593,0,0,1,3.138,2.829,1.529,1.529,0,0,1,.321.626c.12,1.241.2,2.486.313,3.993-4.519-3.192-9.3-3.589-14.412-2.475m11.553-3.449a29.752,29.752,0,0,0-3.1-1.418,15.022,15.022,0,0,0-6.076-.567,17.254,17.254,0,0,0-2.979.676c-.228.061-.558.309-.575.494a14.128,14.128,0,0,0,.025,3.372,24.163,24.163,0,0,1,7.509-.767,18.849,18.849,0,0,1,7.017,2.381c.245-1.386.231-2.511-.92-3.328C87.305,47.959,87.077,47.673,86.689,47.319Z" fill="#0d0a08"/>
        <path id="Path_38900" data-name="Path 38900" d="M54.112,45.919a12.938,12.938,0,0,1,8.521-1.631c1.32.2,2.619.543,3.921.847a.8.8,0,0,1,.7.821c.044,1.617.127,3.234.183,4.851a3.574,3.574,0,0,1-.114.651c-5.755-1.9-11.292-1.922-16.467,1.574a5.46,5.46,0,0,1,.846-5.079,26.8,26.8,0,0,1,2.409-2.034M52.4,48.152a3.186,3.186,0,0,0-.93,3.454c.277-.143.489-.234.682-.355A14.245,14.245,0,0,1,58.6,49.13a18.628,18.628,0,0,1,6.335.49,11.785,11.785,0,0,0,1.353.188c0-.907,0-1.649,0-2.39-.008-1.259-.048-1.295-1.23-1.62a15.925,15.925,0,0,0-7.487-.2A10.065,10.065,0,0,0,52.4,48.152Z" fill="#0d0a08"/>
        <path id="Path_38901" data-name="Path 38901" d="M76.455,93.658c-1.8,2.055-3.887,1.965-6.161,1.121a.084.084,0,0,1-.036-.13c.282-.354.676-.2.991-.2a6.235,6.235,0,0,0,5.626-3.1l0,0a.267.267,0,0,1,.481.06C77.518,91.891,77.323,92.236,76.455,93.658Z" fill="#42231b"/>
        <path id="Path_38902" data-name="Path 38902" d="M91.221,29.159c-.1-.028-.2-.06-.3-.092a.624.624,0,0,1,.283.03C91.233,29.144,91.225,29.154,91.221,29.159Z" fill="#090706"/>
        <path id="Path_38903" data-name="Path 38903" d="M86.756,47.372a9.435,9.435,0,0,0,.836.789c1.15.816,1.165,1.942.92,3.328a18.861,18.861,0,0,0-7.017-2.381,24.193,24.193,0,0,0-7.509.767,14.128,14.128,0,0,1-.025-3.372c.017-.186.347-.433.575-.494a17.369,17.369,0,0,1,2.979-.676,15.04,15.04,0,0,1,6.076.567A27.419,27.419,0,0,1,86.756,47.372Z" fill="#262b31"/>
        <path id="Path_38904" data-name="Path 38904" d="M52.463,48.09a10.025,10.025,0,0,1,5.108-2.5,15.938,15.938,0,0,1,7.487.2c1.181.325,1.221.361,1.23,1.62,0,.742,0,1.483,0,2.39a11.786,11.786,0,0,1-1.353-.188,18.626,18.626,0,0,0-6.335-.49,14.233,14.233,0,0,0-6.448,2.121c-.193.12-.4.212-.682.355A3.233,3.233,0,0,1,52.463,48.09Z" fill="#262b31"/>
        <path id="Path_38905" data-name="Path 38905" d="M54.738,60.484c-.725-1.133-.58-2.369-.558-3.644a2.006,2.006,0,0,1,.154-.626,6.706,6.706,0,0,1,3.812-2.525c2.621-.693,6.115-.067,7.473,2.623.5,1.416.022,2.676-.277,4.014a5.485,5.485,0,0,1-3.5,2.3A7.074,7.074,0,0,1,55.348,61m8.236-4.019a2.565,2.565,0,0,0-2.77-1.391,2.466,2.466,0,0,0-2.139,1.952,2.57,2.57,0,0,0,1.145,2.948,2.012,2.012,0,0,0,1.6.445C63.364,60.508,64.2,59.084,63.584,56.982Z" fill="#f5f7f7"/>
        <g id="Group_117496" data-name="Group 117496">
          <path id="Path_38906" data-name="Path 38906" d="M65.663,59.079a.289.289,0,0,1,0-.1,4.645,4.645,0,0,0-.33-2.952c-1.168-2.448-4.7-3-7.186-2.343a6.646,6.646,0,0,0-3.12,1.737,2.793,2.793,0,0,0-.835,2.011,5.368,5.368,0,0,0,.834,3.174c-.013.014-.343.2-.434.129a9.56,9.56,0,0,1-.537-1.311,20.109,20.109,0,0,1-.246-2.251A4.45,4.45,0,0,1,56.577,52.7a7.1,7.1,0,0,1,7.607.5,3.9,3.9,0,0,1,1.762,2.842c.353,2.285-.053,2.955-.111,3.111A.143.143,0,0,1,65.663,59.079Z" fill="#090706"/>
          <path id="Path_38907" data-name="Path 38907" d="M54.591,60.738c.234-.25.3-.343.434-.129a2,2,0,0,0,.324.391,7.074,7.074,0,0,0,6.49,1.624,5.715,5.715,0,0,0,3.039-1.714,4.429,4.429,0,0,0,.8-2.018c.047-.03.3-.195.278-.049s-.1.495-.138.69a9,9,0,0,1-.425,1.285,1.888,1.888,0,0,1-.274.477c-2.73,3.5-8.376,2.762-10.277-.19C54.772,61.007,54.7,60.914,54.591,60.738Z" fill="#0f0d0c"/>
        </g>
        <path id="Path_38908" data-name="Path 38908" d="M63.623,57.065c.58,2.018-.259,3.442-2.2,3.87a2.007,2.007,0,0,1-1.6-.445,2.57,2.57,0,0,1-1.145-2.948,2.465,2.465,0,0,1,2.139-1.952,2.593,2.593,0,0,1,2.808,1.475m-1.1.626c.1-.4.139-.848-.351-.945a1.35,1.35,0,0,0-1.031.227c-.146.129-.09.695.073.923.284.4.733.353,1.128.059C62.376,57.931,62.4,57.9,62.527,57.691Z" fill="#090706"/>
        <path id="Path_38909" data-name="Path 38909" d="M74.876,60.722a19.847,19.847,0,0,1-.636-2.26,3.851,3.851,0,0,1,1.684-3.9c2.726-1.979,7.155-1.181,9.159.879a4.128,4.128,0,0,1-.113,5.3c-2.732,2.826-7.614,2.768-10.01-.014-.077-.019-.1.007-.084,0m6.6-2.871a6.493,6.493,0,0,0-.364-.993,2.635,2.635,0,0,0-4.909,1.418A2.621,2.621,0,0,0,78.312,60.8,2.7,2.7,0,0,0,81.48,57.851Z" fill="#f5f7f7"/>
        <path id="Path_38910" data-name="Path 38910" d="M62.478,57.783a.6.6,0,0,1-.133.172c-.4.294-.844.337-1.128-.059-.163-.228-.219-.794-.073-.923a1.355,1.355,0,0,1,1.031-.227C62.666,56.843,62.623,57.291,62.478,57.783Z" fill="#dde6e6"/>
        <path id="Path_38911" data-name="Path 38911" d="M81.487,57.947a2.677,2.677,0,0,1-3.173,2.85,2.621,2.621,0,0,1-2.105-2.521,2.635,2.635,0,0,1,4.909-1.418,5.463,5.463,0,0,1,.369,1.089m-1.655.313c.063-.046.148-.078.186-.139.379-.6.338-1.014-.12-1.293a.787.787,0,0,0-1.111.295c-.273.462-.088.9.527,1.194C79.409,58.361,79.544,58.323,79.832,58.26Z" fill="#0d0a08"/>
        <path id="Path_38912" data-name="Path 38912" d="M79.747,58.291c-.2.031-.337.07-.432.025-.615-.295-.8-.731-.527-1.194a.787.787,0,0,1,1.111-.295c.458.279.5.693.12,1.293C79.98,58.182,79.9,58.214,79.747,58.291Z" fill="#dde6e6"/>
        <g id="Group_117497" data-name="Group 117497">
          <path id="Path_38913" data-name="Path 38913" d="M74.2,59.115c-.058-.156-.464-.825-.111-3.111a3.9,3.9,0,0,1,1.762-2.842,7.1,7.1,0,0,1,7.607-.5,4.449,4.449,0,0,1,2.769,4.477,20.11,20.11,0,0,1-.246,2.251,9.538,9.538,0,0,1-.537,1.311c-.091.072-.421-.114-.434-.129a5.376,5.376,0,0,0,.834-3.174,2.793,2.793,0,0,0-.835-2.011,6.655,6.655,0,0,0-3.12-1.737c-2.488-.657-6.017-.1-7.186,2.343a4.645,4.645,0,0,0-.33,2.952.356.356,0,0,1,0,.1A.139.139,0,0,1,74.2,59.115Z" fill="#090706"/>
          <path id="Path_38914" data-name="Path 38914" d="M85.2,61.071c-1.9,2.953-7.547,3.692-10.277.19a1.858,1.858,0,0,1-.274-.477,9.091,9.091,0,0,1-.425-1.285c-.043-.195-.115-.536-.138-.69s.23.019.278.049a4.429,4.429,0,0,0,.8,2.018A5.721,5.721,0,0,0,78.2,62.59a7.074,7.074,0,0,0,6.49-1.624,2.043,2.043,0,0,0,.324-.391c.131-.215.2-.121.434.129C85.337,60.878,85.264,60.972,85.2,61.071Z" fill="#0f0d0c"/>
        </g>
        <path id="Path_38915" data-name="Path 38915" d="M82.341,84.1a3.963,3.963,0,0,0-1.116-2.689c-.379-.378-.743-.771-1.206-1.261a.165.165,0,0,1,.142-.276,3.429,3.429,0,0,1,2.46,1.589c1.5,2.1,1.579,6.295-.186,8.4a1.511,1.511,0,0,1-.323.253.164.164,0,0,1-.253-.166c.125-.656.233-1.157.294-1.664A15.8,15.8,0,0,0,82.341,84.1Z" fill="#42241b"/>
        <path id="Path_38916" data-name="Path 38916" d="M57.852,84.323a8.851,8.851,0,0,0-.11,2.076c.163,1.053.522,1.942.756,2.984a3.932,3.932,0,0,1,.068.465.167.167,0,0,1-.273.145,6.025,6.025,0,0,1-1.529-6.479c.483-1.482,1.12-2.955,2.778-3.476a.167.167,0,0,1,.2.236c-.364.667-1.023,1.554-1.415,2.382A5.821,5.821,0,0,0,57.852,84.323Z" fill="#42241b"/>
        <path id="Path_38917" data-name="Path 38917" d="M64.776,63.782c.305-.361.55-.662.813-.984.461,2.246-3.058,4.772-6.049,4.2a30.575,30.575,0,0,0,2.814-1.363A26.737,26.737,0,0,0,64.776,63.782Z" fill="#42241b"/>
        <path id="Path_38918" data-name="Path 38918" d="M74.315,63.436a2.434,2.434,0,0,1-.141-.536,1.41,1.41,0,0,1,.119-.388,11.154,11.154,0,0,0,6.2,4.38C78.513,67.779,75.64,66.172,74.315,63.436Z" fill="#42241b"/>
        <path id="Path_38919" data-name="Path 38919" d="M77.968,85.3a6.463,6.463,0,0,1-3.482,1.228A29.588,29.588,0,0,1,69.554,87a17.364,17.364,0,0,1-6.99-1.333,3.429,3.429,0,0,1,1.2-.275c3.855-.017,7.71,0,11.564-.019C76.184,85.366,77.044,85.28,77.968,85.3Z" fill="#4e2d24"/>
        <path id="Path_38920" data-name="Path 38920" d="M62.591,77.064a5.316,5.316,0,0,1,.345-1.229c.757-1.441,1.508-1.746,2.751-1.391-1.573.413-2.4,1.229-2.328,2.517a3.774,3.774,0,0,0,1.581,3.067,5.427,5.427,0,0,0,2.153.928c4.461.626,8.313-.94,10.488-5.257a2.076,2.076,0,0,0-.187-2.446c-.4-.491-.788-1-1.23-1.45a24.307,24.307,0,0,1-3.648-4.688,11.889,11.889,0,0,1-1.564-5.437,15.08,15.08,0,0,1,.966-6.071c.159-.433.384-.841.57-1.241.677.12.532.462.433.824-.282,1.031-.588,2.06-.8,3.106a11.335,11.335,0,0,0,2.25,9.532c.672.88,1.475,1.66,2.213,2.49.633.712,1.264,1.424,1.886,2.145,1.215,1.409.873,2.894.09,4.314a11.135,11.135,0,0,1-10.88,5.664,6.337,6.337,0,0,1-3.321-1.207A4.383,4.383,0,0,1,62.591,77.064Z" fill="#42241b"/>
        <path id="Path_38921" data-name="Path 38921" d="M60.924,84.551a14.084,14.084,0,0,0,4.6,1.648,24.213,24.213,0,0,0,7.282.474,11.312,11.312,0,0,0,5.736-1.779c.946-.616,1.862-1.149,2.761-1.709.384-.239.734-.534,1.249-.914a1.74,1.74,0,0,1-.658,1.409,13.367,13.367,0,0,1-7.178,3.89,20.765,20.765,0,0,1-11.988-.833,15.639,15.639,0,0,1-4.672-2.968.994.994,0,0,1-.415-1.131C58.737,83.288,59.789,83.912,60.924,84.551Z" fill="#090706"/>
        <path id="Path_38922" data-name="Path 38922" d="M41.326,44.614l4.635,16.56,1.4-8.9.31-7.656.837-8.707,2.812-1.816,11.245,1.928,15.405-.337,11.446-2.035L92,36.018l1.5,18.051s.29,6.464,1.118,6.684c1.575.42,3.719-11.013,3.719-11.013l1.687-6.12L99.4,40.474l-3.257-.867,1.73-7.675-.087-4.925-4.449-2.918-3.785.608-2.366.622-.1-2.307-1.094-2.23H82.185l-2.6,1.794-2.254-3.408-3.143-2.033-5-.5-3.354,1.384-3.653,2.607L58.575,18.63l-4.421.231L50.2,21.168,49.043,25.32l-3.436.077-2.1,2.23.538,2.768-2.718,2.431-.589,3.106v4.957Z" fill="#262b31"/>
        <path id="Path_38923" data-name="Path 38923" d="M96.363,25.206a6.541,6.541,0,0,1,1.42,1.8,9.833,9.833,0,0,1,.751,2.284q.063.347.108.691a19.057,19.057,0,0,1-.622,7.1c-.047.188-.5,1.246-.521,1.3-.25.727-.2.73.5.784a2.555,2.555,0,0,1,1.115.243,3.749,3.749,0,0,1,1.228,1.158A4.671,4.671,0,0,1,100.81,42a6.941,6.941,0,0,1-.267,2.755c-.166.932-1.591,5.987-2.251,8.372-.195.7-.732,3.809-.951,5.091-.32,1.876-1.045,3.495-1.285,5.385a15.529,15.529,0,0,1-.238,1.752,6.278,6.278,0,0,1-.4,2.155c-.17.38-1.538.509-1.677.117-.034-.1-.069-.191-.108-.285a30.951,30.951,0,0,1,.017-3.6,14.455,14.455,0,0,0-.226-3.459c-.415-2.354-.766-4.717-1.007-7.1-.285-2.817-.53-5.634-.684-8.461-.116-2.113-.21-4.226-.262-6.341a4.619,4.619,0,0,0-1.188-3.053,1.888,1.888,0,0,0-1.86-.8c-1.318.309-2.625.664-3.939.991a60.53,60.53,0,0,1-12.053,1.707,55.723,55.723,0,0,1-7.419-.154c-2.861-.259-5.7-.629-8.524-1.136-1.294-.232-2.574-.536-3.867-.778-.625-.117-1.261-.236-1.773.358a7.184,7.184,0,0,0-2,4.387c-.136,3.709-.324,7.409-.738,11.1-.244,2.179-.563,4.344-.875,6.513-.26,1.813-.363,8.151-.585,9.087a9.6,9.6,0,0,1-.259,1.019c-.075.216-.854.115-.808-.109.18-.875-.912-9.346-1.282-11.1a34,34,0,0,0-1.457-5.1h0c-.68-2.144-1.457-4.257-2.172-6.389-.439-1.309-.8-2.6-1.147-3.908a3.459,3.459,0,0,1,.094-2.65c.193-.524.809-.693.811-.863s-.539-.391-.76-.763a3.939,3.939,0,0,1-.028-4.015c1.086-2.221,3.152-1.682,3.5-2.5.208-.483-.042-.693-.181-.916a2.976,2.976,0,0,1-.146-2.667,4.614,4.614,0,0,1,1.558-1.684,3.884,3.884,0,0,1,2.016-.427c.463-.035.94.082,1.4.058a.946.946,0,0,0,.807-.539,4.589,4.589,0,0,0,.109-1.187,3.6,3.6,0,0,1,1.265-3.008A10.1,10.1,0,0,1,54.329,17.6a9.685,9.685,0,0,1,3.8-.22,8.481,8.481,0,0,1,3.523,1.831c.639.55.631.56,1.284-.164h0A15.921,15.921,0,0,1,66.1,16.592a11.71,11.71,0,0,1,3.361-.99,12.6,12.6,0,0,1,3.128.04,13.239,13.239,0,0,1,2.563.878,12.137,12.137,0,0,1,1.823,1.155c.367.306.9.9,1.35,1.354a6.612,6.612,0,0,1,.727.96c.28.383.737,1.187.736,1.187.121.255.253.241.382.063a3.817,3.817,0,0,1,1.154-.937,5.651,5.651,0,0,1,1.136-.412,10,10,0,0,1,1.312-.315A3.632,3.632,0,0,1,85.882,20,4.685,4.685,0,0,1,87.141,21.5a10.591,10.591,0,0,1,.641,2.035q.06.266.14.526c.164.337.324.324.5.213a11.1,11.1,0,0,1,2.351-.79,5.3,5.3,0,0,1,2.772-.122A8.647,8.647,0,0,1,96.363,25.206Zm-50.4,31.84c.434-2.389.665-4.806.873-7.215.212-2.459.33-4.931.325-7.41a22.746,22.746,0,0,1,.656-5.315,8.169,8.169,0,0,1,1.73-2.928,4.486,4.486,0,0,1,3.031-.707c1.857.445,3.743.723,5.619,1.061a64,64,0,0,0,8.515,1.01,49.438,49.438,0,0,0,7.653-.145,51.665,51.665,0,0,0,7.542-1.011c1.879-.495,3.851-.6,5.675-1.348a2.953,2.953,0,0,1,1.4-.211,5.458,5.458,0,0,1,2.874,1.364,7.238,7.238,0,0,1,1.272,4.964c0,2.2.335,4.377.3,6.573-.024,1.436.188,2.863.291,4.29.186,2.572.589,5.129.926,7.689,0,.018,0,.036.007.054a.4.4,0,0,0,.788.035c.189-.76.334-1.514.5-2.264.632-2.84,1.5-5.616,2.3-8.412.348-1.223.665-2.461.9-3.711.3-1.642-.444-2.575-2.1-2.769-.2-.023-.4-.009-.6-.014-1.185-.035-1.185-.035-.837-1.137.024-.076.05-.152.078-.226A21.43,21.43,0,0,0,97.019,30.1c-.245-3.456-2.668-5.166-5.976-4.719a20.441,20.441,0,0,0-3.706.9c-.984.326-1.108.24-1.1-.812a7.523,7.523,0,0,0-.48-3.168,1.545,1.545,0,0,0-1.99-1.053,5.646,5.646,0,0,0-1.957.878c-.644.469-1.293.933-1.912,1.434-.39.316-.641.228-.852-.174-.13-.248-.264-.5-.373-.752a9.592,9.592,0,0,0-2.857-3.794,6.792,6.792,0,0,0-5.789-1.572,14.552,14.552,0,0,0-7.15,4.127c-.941.887-.947.919-1.619-.118a4.9,4.9,0,0,0-4.256-2.237,6.822,6.822,0,0,0-5.419,2.348,4.02,4.02,0,0,0-1.182,4.041,4.511,4.511,0,0,1,.134.74.487.487,0,0,1-.629.524c-.566-.18-1.087-.39-1.621-.547a3.743,3.743,0,0,0-2.631.118h0a2.522,2.522,0,0,0-.981,3.463c.218.423.515.805.775,1.207h0a.506.506,0,0,1-.531.77,2.223,2.223,0,0,0-.992-.12,3.553,3.553,0,0,0-2.474,2.7,2.04,2.04,0,0,0,.966,2.577c.371.216.356.467-.011.731a2.091,2.091,0,0,0-1.031,1.545,7.3,7.3,0,0,0,.11,2.262c.48,1.855,1.06,3.677,1.675,5.489a40.043,40.043,0,0,1,2.1,9.289,3.055,3.055,0,0,0,.149.838C45.569,57.331,45.912,57.351,45.967,57.046Z" fill="#0d0a08"/>
        <path id="Path_38924" data-name="Path 38924" d="M44.487,64.795c.284.845,1.411,2.556,1.952,2.662.35,2.8-.241,5.448-.37,8.122-.089,1.846-.339,3.685-.416,5.531-.075,1.816.016,3.639-.033,5.457a23.883,23.883,0,0,0,1.718,9.483,19.858,19.858,0,0,0,3.593,5.957,16.165,16.165,0,0,0,6.927,4.384,43.524,43.524,0,0,0,8.855,2.021,27.244,27.244,0,0,0,4.126.239c1.133-.022,2.259-.293,3.392-.42A35.545,35.545,0,0,0,83.271,106a15.639,15.639,0,0,0,8.443-7.736,26.524,26.524,0,0,0,2.818-11.854c.035-2.047-.094-4.1-.218-6.146s-.284-4.086-.521-6.118a23.674,23.674,0,0,1-.12-6.807A16,16,0,0,1,98,61.672a9.523,9.523,0,0,1,1.561-1.036,1.261,1.261,0,0,1,1.574.247,4.512,4.512,0,0,0-3.089,1.99,15.53,15.53,0,0,0-2.289,5.165c-.116.4-.172.822-.256,1.233a2.352,2.352,0,0,0,1.091-.473,2.343,2.343,0,0,1,3.018.178c-.3.024-.54.05-.785.058a3.71,3.71,0,0,0-3.545,3.8c.03,1.094.158,2.187.273,3.277.074.695.206,1.384.316,2.1a3.222,3.222,0,0,0,2.788-1.065,12.3,12.3,0,0,0,3.5-5.68A26.13,26.13,0,0,0,103.567,60.1a14.889,14.889,0,0,0-.7-3.089,3.881,3.881,0,0,0-3.888-2.7c-.12.007-.886.024-1.008.041.105-.524.211-1.048.38-1.632.139,0,.92-.007,1.054,0,2.71.075,4.367,1.532,5.265,4.162a15.271,15.271,0,0,1,.759,4.162A28.254,28.254,0,0,1,103.9,71.6a22.124,22.124,0,0,1-1.684,3.742c-1.694,2.994-3.04,3.935-6,4.5,0,2.29.022,4.577,0,6.863A25.109,25.109,0,0,1,90.9,102.558a4.552,4.552,0,0,0-1.1,3.427c.188,2.583-.118,6.911.461,7.72.543.76,5.226,1.185,7.686,1.761a9.868,9.868,0,0,1-.563,2.289c-2.353-.422-4.649-1.142-6.959-1.44a23.033,23.033,0,0,1-.113,6.194.16.16,0,0,1-.3.022,4.906,4.906,0,0,1-.205-.543,42.2,42.2,0,0,1-1.4-8.825c-.159-2.118-.192-4.245-.275-6.465-.012-.471-.03-.844-.056-1.352-.395.179-.641.282-.879.4-1.2.6-2.374,1.246-3.6,1.786a39.6,39.6,0,0,1-10.754,2.561,15.256,15.256,0,0,1-2.817.205,42,42,0,0,1-4.805-.472,34.252,34.252,0,0,1-11.824-3.773c-.436-.24-.8-.441-1.321-.731-.172,2.645-.4,5.1-.474,7.568a40.93,40.93,0,0,1-1.005,7.825c-.173.765-.415,1.515-.616,2.273a.121.121,0,0,1-.225-.016c-.227-2.179.026-4.386-.14-6.628-.3.029-.493.032-.678.069-2.119.422-4.607,1.06-6.725,1.486-.1-.7-.533-1.5-.627-2.3a34.755,34.755,0,0,1,3.647-.976c1.037-.227,2.094-.362,3.133-.581a2.938,2.938,0,0,0,1.392-.45.361.361,0,0,0,.115-.3c.1-2.955.189-5.911.291-8.866a1.7,1.7,0,0,0-.452-1.287,22.153,22.153,0,0,1-5-9.807,22.656,22.656,0,0,1-.757-5.486c.009-1.414-.176-2.829-.186-4.244-.008-1.019.137-2.038.2-3.058a2.514,2.514,0,0,0-.054-.532,30.871,30.871,0,0,1-3.045-1.207,8.083,8.083,0,0,1-3.047-3.393,24.779,24.779,0,0,1-2.649-7.68,36.713,36.713,0,0,1-.459-7.3,9.82,9.82,0,0,1,1.067-4.441A5.632,5.632,0,0,1,40.788,52.6c.185-.008,2.767.027,2.961.033.077.6.2.91.271,1.583-.191,0-2.768-.032-2.946-.018a4.359,4.359,0,0,0-3.946,2.957,10.045,10.045,0,0,0-.749,3.928c.063,1.417.135,2.833.226,4.248a24.731,24.731,0,0,0,1.47,6.558,12,12,0,0,0,3.637,5.45c.687.569,1.386,1.182,2.432.8.182-1.649.325-3.254.545-4.848a3.665,3.665,0,0,0-1.328-3.356,3.175,3.175,0,0,0-2.118-.992c-.178,0-.35.022-.578.009a.053.053,0,0,1-.029-.094c1.205-.9,1.811-.762,4.071.792-.533-2.144-.89-4.282-1.991-6.08a6.677,6.677,0,0,0-.862-1.226,5.894,5.894,0,0,0-2.361-1.413.17.17,0,0,1,.036-.326,2.5,2.5,0,0,1,.813-.012,4.35,4.35,0,0,1,2.929,1.926A19,19,0,0,1,44.487,64.795Z" fill="#40221a"/>
        <g id="Group_117498" data-name="Group 117498">
          <path id="Path_38925" data-name="Path 38925" d="M12.873,184.418c-1.574-.351-3.164-.647-4.72-1.064a46.337,46.337,0,0,1-8.528-3.206,48.315,48.315,0,0,1-7.176-4.38c-.489-.359-.982-.712-1.51-1.092a.23.23,0,0,1-.074-.284,7.456,7.456,0,0,1,.361-.711,70.49,70.49,0,0,0,6.238-13.019c1.753-4.827,3.388-9.7,5.117-14.533A104.754,104.754,0,0,1,7.69,133.758a21.262,21.262,0,0,1,3.944-5.6,14.689,14.689,0,0,1,9.4-4.541c.352-.025.7-.167,1.048-.173.441-.008.934-.162,1.343.232a.224.224,0,0,1,.032.279c-.8,1.26-2.28,2.019-2.957,3.5a.23.23,0,0,0,.223.323,1.779,1.779,0,0,0,.978-.46c1.465-1,2.923-2.02,4.4-3.012a36.182,36.182,0,0,1,8.389-4.109c1.865-.648,3.982-2.089,5.866-2.683a5.283,5.283,0,0,1,.592-.136.229.229,0,0,1,.266.171c.367,1.5,1.383,4.06,1.773,5.5a24.559,24.559,0,0,0,8.207,13.19c3.793,3.243,7.779,4.744,12.715,5.674a36.8,36.8,0,0,0,7.5.659A30.142,30.142,0,0,0,92.575,132.4c2.235-2.456,2.758-4.024,3.85-7.143.82-2.342,1.619-5.04,2.36-7.569a.228.228,0,0,1,.286-.155c1.234.379,3.332.9,4.658,1.339,1.462.484,3.124.807,4.546,1.394a41.892,41.892,0,0,1,3.988,1.924c1.353.732,5.793-.028,6.1,0a16.033,16.033,0,0,1,12.5,7.145,41.005,41.005,0,0,1,4.682,9.295c2.059,5.513,4.331,10.391,6.281,15.944,1.494,4.254,2.785,9.134,4.817,13.161.818,1.621,2.415,4.378,3.3,5.965.4.708.4.827-.2,1.277a56.459,56.459,0,0,1-14.021,7.17c-6.922,2.606-13.51,3.4-13.827,2.9-.06-.1-.243-.043-.254-.154-.26-2.466.043-3.55.034-6.964-.018-3.333.123-3.86.231-6.293-.012-2.6.185-3.91.187-5,0-3.177.013-4.237,0-7.134a6.808,6.808,0,0,0-.14-1.1.226.226,0,0,0-.281-.183c-.418.119-.472.443-.51.731-.258,1.992-.571,3.981-.717,5.982-.232,3.186-.063,6.429-.6,9.558a62.8,62.8,0,0,0-.373,8.112c-.141,3.355-.168,6.714-.252,10.071q-.109,4.383-.238,8.766c-.071,2.407-.156,4.814-.235,7.221s-.156,4.815-.239,7.222c-.075,2.17-.177,4.339-.234,6.51-.083,3.2-.185,6.4-.188,9.6,0,2.289.115,4.579.233,6.865s.252,4.568.474,6.842c.33,3.37.7,6.737,1.135,10.1.523,4.062,1.118,8.115,1.7,12.169.169,1.169.423,2.325.614,3.491.061.373.07.754.1,1.169a.231.231,0,0,1-.14.227c-.684.285-1.315.575-1.968.8A106.685,106.685,0,0,1,103.533,278c-3.143.544-6.286,1.094-9.44,1.576-1.673.255-3.367.379-5.053.547-2.312.23-4.626.444-6.94.664-.118.011-.237.018-.355.025-6.282.34-12.57.337-18.854.209-2.99-.061-5.977-.383-8.959-.653-3.177-.288-6.365-.541-9.517-1.015-3.894-.585-7.766-1.333-11.63-2.1a96.665,96.665,0,0,1-13.44-3.8c-.372-.132-.743-.269-1.113-.407-.484-.182-.607-.484-.513-1.02.609-3.492,1.209-6.986,1.743-10.49.326-2.141.533-4.3.784-6.452.313-2.684.624-5.369.916-8.055q.156-1.436.233-2.878c.107-1.929.229-3.858.265-5.789.1-5.335.192-10.67.211-16.005.009-2.6-.15-5.209-.239-7.814-.07-2.051-.119-4.1-.233-6.153s-.3-4.081-.451-6.122c-.083-1.14-.174-2.281-.215-3.423-.04-1.107-.01-2.216-.028-3.323-.082-5.138-.159-10.276-.262-15.413-.048-2.408-.123-4.816-.239-7.222-.121-2.521-.264-5.042-.477-7.556-.173-2.04-.446-4.072-.72-6.1a3.21,3.21,0,0,0-.421-.968.233.233,0,0,0-.217-.128h0a.228.228,0,0,0-.2.152,3.211,3.211,0,0,0-.269,1.007c.031,2.289.114,4.578.172,6.867.016.633.036,5.511.234,9.159.219,4.015.446,8.441.342,9.549a.228.228,0,0,1-.212.206A18.273,18.273,0,0,1,12.873,184.418Z" fill="#f87360"/>
          <path id="Path_38926" data-name="Path 38926" d="M27.145,278.344c-.73-.206-1.46-.413-2.282-.613a78.254,78.254,0,0,1-9.756-3.422.23.23,0,0,1-.133-.247c.194-1.191.389-2.364.576-3.539.619-3.892,1.3-7.776,1.833-11.68.537-3.941.948-7.9,1.369-11.854.171-1.606.247-3.224.326-4.839.162-3.308.365-6.616.425-9.927.068-3.675.008-7.353-.023-11.03-.009-1.1-.11-2.2-.179-3.525-.037-2.423-.063-4.627-.077-6.932a.148.148,0,0,0,0-.021c-.046-.523-.146-.945-.155-1.369q-.144-7.127-.264-14.252c0-.235-.027-.471-.03-.813-.079-2.229-.169-4.357-.26-6.48a.229.229,0,0,0-.2-.216c-1.786-.264-3.475-.494-5.157-.772A51.259,51.259,0,0,1-.981,182.374c-.489-.238-1.013-.4-1.568-.665l-.017-.009c-.572-.325-1.1-.587-1.622-.848a.239.239,0,0,1-.027-.016c-2.338-1.6-4.679-3.205-7.01-4.82-.376-.26-.717-.57-1.1-.9a.229.229,0,0,1-.06-.275,5.138,5.138,0,0,1,.406-.76c3.529-4.932,5.846-10.462,7.9-16.113,2.361-6.492,4.628-13.019,7.025-19.5a40.152,40.152,0,0,1,4.52-8.975,18.352,18.352,0,0,1,11.81-8.08,13.471,13.471,0,0,1,5.285-.2,4.282,4.282,0,0,0,3.027-.6,51.369,51.369,0,0,1,10.094-4.06,44.313,44.313,0,0,1,4.31-1.044.23.23,0,0,1,.267.176c.154.711.241,1.355.33,2.076l0,.021c.057.279.128.463.162.654a32.872,32.872,0,0,0,3.242,9.482,24.214,24.214,0,0,0,9.66,9.837,28.56,28.56,0,0,0,17.8,3.489A27.477,27.477,0,0,0,84.4,137.74a24.354,24.354,0,0,0,8.536-8.042,30.232,30.232,0,0,0,2.248-4.289A30.623,30.623,0,0,0,97.4,117.6c.1-.7.184-1.323.265-1.941a.229.229,0,0,1,.276-.194,57,57,0,0,1,14.771,5.292,4.393,4.393,0,0,0,2.839.459,16.276,16.276,0,0,1,9.215,1.5,20.257,20.257,0,0,1,9.236,9.052,84.153,84.153,0,0,1,5.412,12.618c1.92,5.353,3.738,10.742,5.678,16.088a72.655,72.655,0,0,0,5.334,11.23c.391.684.88,1.312,1.314,1.972.243.369.474.747.727,1.152a.231.231,0,0,1-.049.3,62.024,62.024,0,0,1-8.1,5.631c-.62.318-1.1.57-1.66.851a56.838,56.838,0,0,1-20.818,5.943.229.229,0,0,0-.2.178c-.469,2.2-.184,4.326-.265,6.543-.081,1.761-.183,3.411-.224,5.062-.1,3.82-.162,7.641-.245,11.572-.075,1.564-.149,3.018-.209,4.473-.013.313.03.628.033.943,0,.461-.007.922-.011,1.382a237.726,237.726,0,0,0,4.455,56.312.231.231,0,0,1-.128.252,75.833,75.833,0,0,1-9.715,3.46l-.014,0c-.769.182-1.454.346-2.308.572-.521.12-.878.153-1.222.24a147.131,147.131,0,0,1-23.812,3.964c-4.25.355-8.506.71-12.766.842-3.909.121-7.827-.052-11.741-.109a130.118,130.118,0,0,1-16.06-1.23c-4.26-.593-8.508-1.291-12.744-2.039-2.526-.447-5.018-1.079-7.526-1.628M18.071,168.052c0-.633.01-1.266-.006-1.9-.058-2.289-.142-4.578-.172-6.867a3.184,3.184,0,0,1,.269-1.007.227.227,0,0,1,.2-.152h0a.231.231,0,0,1,.217.128,3.25,3.25,0,0,1,.421.968c.274,2.03.547,4.062.72,6.1.213,2.514.356,5.036.477,7.556.116,2.406.191,4.814.239,7.222.1,5.137.18,10.275.262,15.413.018,1.108-.012,2.217.028,3.323.041,1.142.133,2.283.215,3.423.148,2.041.337,4.08.451,6.122s.163,4.1.233,6.153c.089,2.6.248,5.21.239,7.814-.019,5.335-.113,10.671-.211,16.005-.035,1.931-.158,3.86-.265,5.789q-.079,1.441-.233,2.878c-.293,2.686-.6,5.371-.916,8.055-.251,2.152-.458,4.311-.784,6.452-.534,3.5-1.134,7-1.743,10.49-.093.536.029.838.513,1.02q.555.209,1.113.407a96.7,96.7,0,0,0,13.44,3.8c3.864.768,7.736,1.515,11.63,2.1,3.152.474,6.339.727,9.517,1.015,2.982.27,5.969.592,8.959.653,6.284.128,12.572.132,18.854-.209.118-.006.237-.013.355-.025,2.313-.22,4.627-.435,6.94-.664,1.686-.167,3.38-.291,5.053-.547,3.153-.482,6.3-1.031,9.44-1.576a106.628,106.628,0,0,0,16.708-4.349c.653-.226,1.284-.516,1.968-.8a.229.229,0,0,0,.14-.227c-.027-.415-.035-.8-.1-1.169-.192-1.166-.446-2.322-.614-3.491-.585-4.054-1.18-8.107-1.7-12.169q-.648-5.037-1.135-10.1c-.223-2.275-.356-4.559-.474-6.842s-.235-4.577-.233-6.865c0-3.2.1-6.4.188-9.6.057-2.17.158-4.34.234-6.51q.125-3.61.239-7.222c.079-2.407.165-4.814.235-7.221q.129-4.383.238-8.766c.084-3.357.111-6.716.252-10.071a62.977,62.977,0,0,1,.373-8.112c.533-3.128.364-6.371.6-9.558.146-2,.459-3.99.717-5.982.037-.288.092-.612.51-.731a.227.227,0,0,1,.281.183,6.808,6.808,0,0,1,.14,1.1c.012,2.926,0,5.852-.016,8.984v.012c-.328,5.441-.507,10.884-.455,16.3a.231.231,0,0,0,.157.216,4.705,4.705,0,0,0,2.407-.108c.968-.133,1.928-.318,3.083-.485a58.061,58.061,0,0,0,8.452-2.275,49.656,49.656,0,0,0,12.937-7.112c.607-.45.6-.568.2-1.277-.887-1.586-1.821-3.149-2.639-4.771a104.239,104.239,0,0,1-5.144-12.483c-1.95-5.553-3.9-11.109-5.955-16.622a40.984,40.984,0,0,0-4.682-9.295,16.033,16.033,0,0,0-12.5-7.145,4.467,4.467,0,0,0-.988.1.229.229,0,0,0-.16.346c.8,1.3,2.057,2.136,2.58,3.474a.229.229,0,0,1-.311.293c-1.194-.586-2.1-1.577-3.218-2.253-1.317-.8-2.611-1.64-3.963-2.372a43.355,43.355,0,0,0-4.056-1.945c-1.422-.587-2.893-1.061-4.355-1.545-1.326-.439-2.667-.834-3.9-1.213a.229.229,0,0,0-.286.155c-.741,2.528-1.357,4.941-2.177,7.283a24.384,24.384,0,0,1-4.949,8.435,28.749,28.749,0,0,1-9.711,7.045,30.943,30.943,0,0,1-18.766,1.891,27.752,27.752,0,0,1-13.062-6.356,27.106,27.106,0,0,1-8.544-13.929c-.39-1.443-.721-2.9-1.088-4.407a.23.23,0,0,0-.266-.171,5.384,5.384,0,0,0-.592.136c-1.884.593-3.779,1.156-5.644,1.8A36.182,36.182,0,0,0,26.1,124.31c-1.474.991-2.931,2.007-4.4,3.012a1.779,1.779,0,0,1-.978.46.23.23,0,0,1-.223-.323c.678-1.484,2.156-2.243,2.957-3.5a.224.224,0,0,0-.032-.279c-.409-.394-.9-.239-1.343-.232-.35.006-.7.147-1.048.173a14.691,14.691,0,0,0-9.4,4.541,21.309,21.309,0,0,0-3.944,5.6,105.094,105.094,0,0,0-5.109,12.371c-1.729,4.836-3.364,9.706-5.117,14.533a70.521,70.521,0,0,1-6.238,13.019,7.456,7.456,0,0,0-.361.711.23.23,0,0,0,.074.284c.528.381,1.021.733,1.51,1.092a48.3,48.3,0,0,0,7.176,4.38,46.337,46.337,0,0,0,8.528,3.206c1.557.417,3.146.713,4.909,1.1a21.776,21.776,0,0,0,5.33.61.229.229,0,0,0,.213-.237C18.419,179.221,18.238,173.742,18.071,168.052Z" fill="#b4433d"/>
        </g>
      </g>
    </g>
  </g>
</svg>
