<?xml version="1.0" encoding="UTF-8"?>
<svg id="Layer_2" data-name="Layer 2" xmlns="http://www.w3.org/2000/svg" xmlns:xlink="http://www.w3.org/1999/xlink" viewBox="0 0 138.892 138.892">
  <defs>
    <clipPath id="clippath">
      <circle id="Ellipse_891-2" data-name="Ellipse 891" cx="69.446" cy="69.446" r="69.446" fill="none"/>
    </clipPath>
  </defs>
  <g id="Layer_1-2" data-name="Layer 1">
    <g>
      <circle id="Ellipse_891" data-name="Ellipse 891" cx="69.446" cy="69.446" r="69.446" fill="#f2f2f2"/>
      <g clip-path="url(#clippath)" fill="none">
        <g>
          <path d="m86.803,100.377c.081,1.93.072,3.62.216,5.545.203,2.706,6.489,1.998,8.161,3.323-.244,2.442-1.029,6.305-1.983,8.552-.572,1.347-1.264,2.661-2.044,3.899-1.951,3.096-5.12,5.429-8.266,7.265-3.078,1.796-6.68,2.974-10.23,3.373-5.747.646-11.588-.249-16.606-3.114-3.748-2.139-7.195-5.701-9.229-9.563-1.434-2.722-2.636-5.578-3.188-8.599-.032-.176-.602-2.561-.655-2.82,1.923-.474,5.151-.125,7.077-.509.168-.033.987.027,1.26,0,.146,1.977.783.306.855-2.101.067-2.24-.01-6.216.146-8.621.474.263,2.735,1.724,3.133,2.023.148.383,1.312.739,1.451.97.294.489,1.725,0,2.033.481.856,1.339,1.977.261,3.353,1.076,1.014.601,1.837-.067,2.853.53,1.299.763,2.654.725,4.25.611.205-.015,3.568-.364,3.779-.326.947.172,2.285-.526,3.219-.578,1.449-.08,1.534-.708,2.934-1.093,1.536-.422,1.773.538,2.9-.749.152-.173.416-.268.645-.351,1.449-.523,1.949-.907,3.059-1.921.284-.26.526-.591.709-.931.516-.961.659.796.267,2.015.081-.076-.243,1.624-.1,1.613Z" fill="#6f4539"/>
          <path d="m91.963,64.045c-.343,2.163-.287,3.85-.047,5.913.215,1.848.122,4.031.235,5.888.113,1.86.502,3.546.47,5.407-.065,3.769-.937,7.653-2.68,11.049-1.7,3.313-4.675,7.115-8.134,8.47-2.648,1.038-5.389,1.712-8.218,2.03-1.03.116-2.054.362-3.084.382-1.249.025-2.512-.051-3.751-.217-2.736-.366-5.436-.908-8.05-1.837-2.406-.856-4.578-2.048-6.298-3.986-1.426-1.606-3.571-4.295-4.352-6.273-1.089-2.761-1.642-5.634-1.562-8.621.045-1.653-.076-4.331-.008-5.983.069-1.679.307-2.777.388-4.455.117-2.432.708-4.955.478-7.508.533-1.161.249-2.346.25-3.443.002-1.542-.119-3.179-.103-4.72.032-2.944-.267-6.023-.068-8.959.191-2.822.708-5.413,1.472-8.159.104-.375.843-1.629.993-2.123,2.263.766,4.592.324,6.47-1.027,2.659,2.991,5.677,3.929,9.526,2.02.212.277.91,1.307,1.227,1.575.752.635.939.331,1.909.519,2.411.467,4.711.253,6.807-1.149.149-.1.342-.185.421-.329.577-1.048,1.68-.454,2.534-.068,1.936.874,3.568,1.325,5.687,1.629,1.895.272,3.719.183,5.487-.59.094-.041.833.237,1.083.192.121.773.233,1.999.265,2.762.167,3.909.667,7.842.726,11.753.039,2.583-.125,5.188-.207,7.772l.134,2.085Z" fill="#6e4539"/>
          <path d="m88.436,39.226c-2.052.476-4.084.259-6.044-.387-1.734-.572-3.409-1.325-5.108-2.001-.293-.116-.578-.25-.913-.396-.375.926-.717,1.795-1.627,2.263-2.29,1.176-4.593,1.3-6.902.094-.756-.395-1.153-1.047-1.122-1.938.025-.716.005-1.433-.174-2.237-.295.452-.609.892-.881,1.357-1.253,2.147-2.557,2.741-4.887,2.084-1.773-.501-3.212-1.437-3.739-3.363-.059-.217-.218-.406-.217-.405-.554.428-1.087.849-1.629,1.258-1.178.889-2.422,1.489-3.979,1.149-.62-.135-.949-.422-1.091-1.011-.06-.249-.179-.484-.323-.859-3.164,7.693-2.538,16.458-2.844,24.469-.831.251-1.418-.472-1.568-1.129-.151-.663-.621-3.028-.721-3.7-.306-2.052-.549-3.393-.752-5.455-.176-1.782-.276-3.569-.314-5.361-.04-1.906.079-3.722.11-5.628.01-.638-.448-1.727-1.05-2.069-1.959-1.112-1.963-3.837-.455-5.502.683-.754.939-1.876,2.038-1.724.121.017.342-1.058.219-1.646-.288-1.382.926-2.855,2.179-3.261.835-.27,1.899-.47,2.681.078.54.379,1.021-.196.815-.752-.368-.992.669-1.863,1.301-2.555,1.647-1.806,4.436-.862,5.644-.141.517.11,1.043.331,1.103.042.243-1.169.852-1.175,1.844-1.783,1.282-.785,3.152-1.421,4.61-1.199,1.253.191,2.103.542,2.428,1.783.098.373.978.514,1.168.246,1.401-1.983,2.673-2.502,5.04-3.043,1.112-.254,2.737-.468,3.872-.154,1.824.505,3.838,2.305,3.749,4.18-.035.74.741,1.264,1.199.799.67-.682,1.403-.889,2.336-1.137,1.992-.531,3.914-.133,5.44,1.26.473.432,1.072.969,1.414,1.506.755,1.188,1.343,2.286,1.045,3.627-.061.275-.042,1.196.293,1.229,1.496.148,2.588.138,3.579,1.383.873,1.097,2.325,2.557,1.905,4.026-.259.907-.107,2.385-1.014,2.653-.263.078-1.19,1.084-1.444,1.158.416,7.491-.828,14.628-2.766,21.821-.898.155-1.192-1.109-1.076-1.936.158-1.116.184-2.292.031-3.407-.127-.919-.029-2.754-.01-3.688.054-2.697-.081-4.727-.517-7.385-.098-.6-.018-1.571-.025-2.174-.004-.327-.442-.802-.786-.867,0,0-.533-.521-2.064-.166Z" fill="#272c32"/>
          <path d="m46.463,60.662c-.256-.13,1.27,4.07.648,9.045-.2,1.449-.483,3.586-.648,5.086-.951.345-2.493-.569-3.117-1.087-1.593-1.32-3.091-3.461-3.766-5.396-.674-1.935-1.149-3.922-1.281-5.978-.083-1.287-.137-3.332-.194-4.62-.055-1.242.509-2.617.932-3.766.566-1.537,2.72-2.479,4.93-2.364.357,1.535,1.048,3.883,1.32,5.237.223,1.114.954,2.636,1.176,3.843Z" fill="#6a4136"/>
          <path d="m95.25,51.582c1.711-.335,4.248,1.271,4.862,2.981.322.898.545,3.303.668,4.252.461,3.552-.52,6.211-1.59,9.573-.627,1.972-2.046,4.374-3.629,5.767-.703.619-2.061.974-3.136.784-.1-.653-.944-2.234-1.011-2.866-.105-.995.303-2.894.276-3.893-.048-1.801,1.839-8.528,1.486-8.225.445-2.423,1.549-5.833,2.074-8.374Z" fill="#6a4136"/>
          <path d="m85.927,100.013c-.22.127-.342.076-.629.31-.723.592-1.587,1.031-2.057,1.907-.183.34-.424.672-.709.931-1.11,1.014-2.134,1.789-3.376,2.7-1.506,1.104-3.668,1.911-5.204,2.333-1.4.385-2.866.623-4.315.704-.935.052-1.892-.297-2.839-.469-3.009.097-3.526-.753-4.825-1.516-1.016-.597-2.032-1.193-3.046-1.794-1.376-.815-2.432-1.948-3.288-3.286-.308-.481-2.27-1.482-2.564-1.97,0,0,.069-.755.075-1.099,3.309,1.836,8.232,3.475,11.95,4.094,1.441.24,2.908.356,4.368.429.849.042,1.714-.069,2.561-.186,3.333-.46,6.664-.954,9.777-2.328,1.112-.491,2.181-1.082,3.271-1.624.216-.108.44-.201.799-.364.023.461.04.801.05,1.229Z" fill="#633b30"/>
          <g>
            <path d="m30.485,256.061c-.664-.188-1.328-.375-2.075-.557-3.014-.897-5.944-1.806-8.869-3.111-.086-.039-.136-.131-.121-.225.177-1.082.354-2.149.524-3.217.563-3.538,1.182-7.069,1.666-10.619.489-3.582.861-7.181,1.244-10.777.156-1.46.224-2.931.296-4.399.147-3.008.331-6.015.387-9.025.061-3.341.007-6.685-.021-10.027-.009-1.002-.1-2.003-.162-3.205-.033-2.203-.058-4.206-.07-6.302,0-.006,0-.013,0-.019-.042-.476-.133-.859-.141-1.245-.087-4.319-.161-8.638-.24-12.957-.004-.214-.025-.428-.027-.739-.072-2.027-.154-3.961-.236-5.891-.004-.099-.079-.182-.178-.197-1.624-.24-3.16-.449-4.688-.702-4.475-.739-8.771-2.05-12.857-4.036-.444-.216-.921-.366-1.426-.604-.005-.002-.01-.005-.015-.008-.52-.295-.997-.533-1.474-.771-.009-.004-.017-.009-.025-.015-2.125-1.459-4.254-2.913-6.373-4.382-.341-.237-.651-.518-1.005-.814-.073-.061-.096-.164-.055-.25.117-.241.22-.482.369-.691,3.209-4.484,5.315-9.511,7.183-14.649,2.146-5.902,4.207-11.836,6.387-17.726,1.06-2.864,2.363-5.634,4.109-8.159,2.636-3.813,6.114-6.44,10.737-7.346,1.583-.31,3.187-.507,4.805-.182.988.198,1.844-.044,2.752-.541,2.906-1.589,6.003-2.749,9.176-3.691,1.272-.378,2.563-.69,3.918-.949.11-.021.219.05.243.16.14.647.219,1.232.3,1.888,0,.006.002.013.003.019.052.254.116.421.148.595.552,3.021,1.514,5.899,2.947,8.62,2.034,3.862,5.034,6.804,8.782,8.943,5.018,2.864,10.438,3.818,16.185,3.172,3.551-.399,6.875-1.401,9.953-3.198,3.146-1.836,5.81-4.215,7.761-7.311.781-1.239,1.472-2.552,2.044-3.899.954-2.247,1.666-4.58,2.015-7.097.093-.634.168-1.203.241-1.764.016-.121.132-.203.251-.177,4.681,1.03,9.196,2.545,13.429,4.811.868.465,1.687.543,2.581.417,2.936-.413,5.716.137,8.378,1.359,3.779,1.735,6.409,4.653,8.397,8.229,2.032,3.657,3.514,7.55,4.92,11.472,1.745,4.867,3.399,9.766,5.162,14.626,1.289,3.553,2.975,6.93,4.849,10.21.355.622.8,1.193,1.195,1.793.221.336.431.679.661,1.048.056.089.037.206-.045.273-2.333,1.898-4.713,3.582-7.36,5.119-.564.289-1.001.518-1.509.774-5.973,3.142-12.326,4.705-18.926,5.403-.089.009-.163.075-.182.162-.427,1.998-.168,3.933-.241,5.948-.074,1.601-.166,3.101-.203,4.602-.087,3.473-.147,6.947-.223,10.52-.068,1.422-.135,2.744-.19,4.066-.012.285.027.571.03.857.003.419-.006.838-.01,1.257-.76,17.213.736,34.248,4.05,51.195.018.094-.03.189-.117.229-2.84,1.314-5.801,2.216-8.832,3.146-.004.001-.009.003-.013.004-.699.165-1.322.315-2.098.52-.474.11-.798.139-1.111.218-7.117,1.797-14.337,2.993-21.649,3.604-3.864.323-7.733.646-11.606.765-3.554.11-7.116-.047-10.674-.099-4.89-.071-9.761-.445-14.601-1.118-3.873-.539-7.735-1.174-11.586-1.854-2.296-.405-4.563-.98-6.843-1.478m-8.249-100.27c0-.576.01-1.151-.005-1.726-.053-2.081-.129-4.162-.157-6.243-.004-.304.141-.61.244-.916.027-.08.101-.134.185-.138h.003c.083-.004.159.042.197.116.149.29.341.575.382.88.249,1.845.498,3.693.655,5.548.194,2.286.323,4.578.434,6.87.105,2.187.174,4.376.218,6.566.094,4.671.163,9.342.238,14.013.016,1.007-.011,2.015.025,3.021.037,1.038.121,2.076.196,3.112.135,1.856.306,3.709.41,5.566.104,1.863.148,3.729.212,5.594.081,2.368.225,4.736.217,7.104-.017,4.851-.103,9.701-.192,14.551-.032,1.755-.143,3.51-.24,5.263-.048.874-.117,1.747-.212,2.617-.266,2.442-.549,4.883-.833,7.323-.228,1.956-.416,3.919-.713,5.866-.485,3.186-1.031,6.362-1.585,9.537-.085.487.026.762.467.927.336.126.673.25,1.012.37,3.998,1.416,8.058,2.625,12.219,3.452,3.513.698,7.033,1.378,10.573,1.91,2.866.431,5.763.661,8.652.923,2.711.246,5.427.538,8.145.594,5.713.117,11.43.12,17.141-.19.108-.006.215-.012.323-.022,2.103-.2,4.207-.395,6.309-.604,1.533-.152,3.072-.265,4.593-.497,2.867-.438,5.724-.938,8.582-1.432,5.173-.896,10.231-2.237,15.19-3.954.594-.206,1.168-.469,1.79-.729.082-.034.133-.117.128-.206-.024-.377-.032-.724-.088-1.063-.174-1.06-.405-2.111-.559-3.174-.532-3.685-1.073-7.37-1.548-11.063-.393-3.053-.731-6.115-1.031-9.178-.203-2.068-.324-4.145-.431-6.221-.108-2.079-.214-4.161-.212-6.242.003-2.908.095-5.817.171-8.724.051-1.973.144-3.945.212-5.918.076-2.188.145-4.377.217-6.566.072-2.188.15-4.376.214-6.565.078-2.656.15-5.313.216-7.969.076-3.052.101-6.106.229-9.156.104-2.455-.083-4.896.339-7.375.485-2.844.331-5.792.542-8.689.132-1.819.417-3.628.652-5.439.034-.262.084-.557.463-.665.116-.033.235.048.255.167.056.331.126.663.128.996.011,2.66,0,5.321-.015,8.167,0,.004,0,.007,0,.011-.298,4.946-.461,9.895-.414,14.821,0,.089.058.167.142.196.812.28,1.5-.004,2.189-.098.88-.121,1.753-.289,2.803-.441,2.611-.503,5.175-1.178,7.684-2.068,4.274-1.516,8.134-3.779,11.761-6.466.552-.409.544-.517.183-1.161-.806-1.442-1.656-2.863-2.399-4.337-1.847-3.662-3.318-7.481-4.676-11.348-1.773-5.049-3.542-10.1-5.413-15.112-1.106-2.962-2.427-5.84-4.256-8.451-2.77-3.953-6.548-6.139-11.367-6.495-.279-.021-.563.036-.898.089-.146.023-.223.189-.145.315.731,1.183,1.87,1.942,2.346,3.158.069.177-.112.35-.283.266-1.086-.533-1.911-1.434-2.926-2.048-1.197-.725-2.373-1.491-3.603-2.157-1.198-.649-2.429-1.249-3.688-1.769-1.293-.534-2.63-.964-3.959-1.405-1.206-.399-2.425-.758-3.546-1.103-.111-.034-.227.03-.26.141-.673,2.298-1.233,4.492-1.979,6.621-.993,2.836-2.467,5.435-4.499,7.668-2.494,2.741-5.417,4.893-8.829,6.405-3.438,1.524-7.038,2.198-10.759,2.329-2.121.074-4.217-.217-6.302-.61-4.488-.845-8.427-2.831-11.875-5.779-3.946-3.374-6.421-7.683-7.767-12.664-.355-1.312-.655-2.638-.989-4.006-.026-.108-.133-.176-.242-.155-.187.036-.366.069-.538.123-1.713.539-3.435,1.051-5.131,1.639-2.691.934-5.256,2.141-7.626,3.735-1.34.901-2.665,1.825-3.997,2.738-.252.173-.485.398-.889.418-.155.008-.267-.152-.202-.293.616-1.349,1.96-2.039,2.688-3.185.051-.08.039-.188-.029-.254-.372-.358-.82-.217-1.221-.211-.318.005-.633.134-.953.157-3.397.243-6.183,1.806-8.544,4.128-1.486,1.462-2.632,3.215-3.585,5.087-1.847,3.627-3.278,7.425-4.644,11.247-1.572,4.397-3.058,8.824-4.652,13.213-1.499,4.128-3.36,8.092-5.671,11.836-.121.196-.214.408-.328.646-.043.09-.014.199.067.258.48.346.929.667,1.373.993,2.061,1.513,4.236,2.851,6.524,3.982,2.482,1.227,5.076,2.197,7.753,2.915,1.415.38,2.86.649,4.463,1.003,1.567.285,3.127.657,4.846.555.112-.007.198-.103.194-.215-.169-5.1-.334-10.081-.486-15.254Z" fill="#b4433d"/>
            <path d="m17.51,170.669c-1.431-.319-2.876-.588-4.291-.967-2.677-.718-5.271-1.688-7.753-2.915-2.288-1.131-4.462-2.469-6.524-3.982-.444-.326-.893-.647-1.373-.993-.081-.059-.11-.168-.067-.258.114-.238.207-.451.328-.646,2.311-3.744,4.172-7.708,5.671-11.836,1.594-4.389,3.08-8.816,4.652-13.213,1.367-3.822,2.798-7.62,4.644-11.247.953-1.872,2.1-3.626,3.585-5.087,2.36-2.322,5.147-3.886,8.544-4.128.32-.023.635-.151.953-.157.401-.007.849-.147,1.221.211.068.066.08.174.029.254-.729,1.146-2.072,1.836-2.688,3.185-.065.141.047.301.202.293.404-.02.638-.245.889-.418,1.332-.913,2.657-1.837,3.997-2.738,2.37-1.594,4.936-2.801,7.626-3.735,1.696-.589,3.418-1.1,5.131-1.639.172-.054.351-.087.538-.123.109-.021.216.047.242.155.334,1.369.635,2.695.989,4.006,1.346,4.981,3.821,9.29,7.767,12.664,3.448,2.948,7.387,4.933,11.875,5.779,2.085.393,4.181.684,6.302.61,3.72-.13,7.32-.805,10.759-2.329,3.412-1.512,6.335-3.664,8.829-6.405,2.032-2.233,3.506-4.832,4.499-7.668.745-2.129,1.305-4.323,1.979-6.621.033-.111.149-.175.26-.141,1.122.345,2.341.703,3.546,1.103,1.329.44,2.667.871,3.959,1.405,1.259.52,2.49,1.12,3.688,1.769,1.23.666,2.406,1.431,3.603,2.157,1.014.614,1.84,1.516,2.926,2.048.171.084.352-.089.283-.266-.476-1.216-1.615-1.976-2.346-3.158-.078-.126-.001-.292.145-.315.335-.052.62-.109.898-.089,4.819.356,8.597,2.542,11.367,6.495,1.83,2.611,3.15,5.489,4.256,8.451,1.872,5.012,3.64,10.063,5.413,15.112,1.358,3.867,2.829,7.687,4.676,11.348.744,1.474,1.593,2.895,2.399,4.337.36.644.369.752-.183,1.161-3.627,2.687-7.487,4.95-11.761,6.466-6.293,2.369-12.282,3.091-12.571,2.634-.054-.086-.221-.039-.231-.14-.237-2.242.039-3.228.031-6.331-.016-3.03.112-3.509.21-5.721-.011-2.36.168-3.555.17-4.544.004-2.888.012-3.852.001-6.486-.001-.333-.072-.665-.128-.996-.02-.119-.139-.2-.255-.167-.38.108-.429.402-.463.665-.235,1.811-.52,3.619-.652,5.439-.211,2.897-.057,5.845-.542,8.689-.423,2.479-.236,4.92-.339,7.375-.129,3.05-.153,6.104-.229,9.156-.066,2.656-.138,5.313-.216,7.969-.064,2.188-.142,4.376-.214,6.565-.072,2.189-.142,4.377-.217,6.566-.068,1.973-.161,3.945-.212,5.918-.076,2.908-.168,5.816-.171,8.724-.002,2.081.104,4.163.212,6.242.108,2.076.229,4.153.431,6.221.3,3.064.638,6.125,1.031,9.178.475,3.693,1.016,7.378,1.548,11.063.153,1.063.384,2.114.559,3.174.056.339.064.686.088,1.063.006.089-.046.172-.128.206-.622.259-1.196.523-1.79.729-4.959,1.717-10.017,3.058-15.19,3.954-2.858.495-5.715.995-8.582,1.432-1.521.232-3.061.345-4.593.497-2.102.209-4.206.404-6.309.604-.107.01-.215.017-.323.022-5.711.309-11.427.307-17.141.19-2.718-.056-5.434-.348-8.145-.594-2.889-.262-5.786-.492-8.652-.923-3.54-.532-7.06-1.212-10.573-1.91-4.161-.827-8.221-2.036-12.219-3.452-.338-.12-.675-.244-1.012-.37-.44-.165-.551-.44-.467-.927.553-3.175,1.1-6.351,1.585-9.537.296-1.946.485-3.909.713-5.866.284-2.44.567-4.881.833-7.323.095-.87.164-1.743.212-2.617.097-1.754.208-3.508.24-5.263.089-4.85.175-9.701.192-14.551.008-2.368-.136-4.736-.217-7.104-.064-1.865-.108-3.731-.212-5.594-.104-1.857-.275-3.711-.41-5.566-.075-1.037-.159-2.074-.196-3.112-.036-1.006-.009-2.014-.025-3.021-.075-4.671-.144-9.342-.238-14.013-.044-2.189-.112-4.379-.218-6.566-.11-2.292-.24-4.584-.434-6.87-.157-1.855-.405-3.702-.655-5.548-.041-.305-.233-.59-.382-.88-.038-.074-.114-.12-.197-.116h-.003c-.084.004-.158.059-.185.138-.103.305-.249.611-.244.916.028,2.081.104,4.162.157,6.243.015.575.032,5.01.213,8.327.199,3.651.406,7.674.311,8.682-.01.102-.091.18-.193.188-.542.038-2.379.095-5.052-.591Z" fill="#f87360"/>
          </g>
          <path d="m61.294,80.467c.13-.099.285-.176.495-.192,1.609-.124,3.105-.498,4.651-.777,2.525-.456,5.022-.582,7.518.217.785.251,1.614.395,2.441.488.632.072,1.074.157,1.26.394-1.571,1.167-3.782,1.648-5.603,1.775-2.215.155-4.445.083-6.62-.431-1.418-.335-2.897-.639-4.142-1.474Z" fill="#4f2e25"/>
          <path d="m72.147,63.332c.479,1.548,1.219,2.811,2.351,3.891,1.47,1.402,2.449,3.098,2.375,5.224-.046,1.327-.577,2.431-1.673,3.222-1.77,1.277-3.724,1.63-5.825,1.077-1.499-.395-2.92-.991-4.205-1.876-.075-.052-.13-.131-.201-.228-.052-.071-.004-.172.084-.178.399-.029.648.231.931.388,1.942,1.077,3.991,1.667,6.193,1.044,1.583-.448,2.92-1.307,3.224-3.091.1-.588-.025-1.241-.166-1.839-.242-1.02-.792-1.934-1.551-2.657-1.921-1.832-2.65-4.176-2.835-6.715-.101-1.395-.126-2.814.014-4.202.157-1.559.535-3.095.829-4.639.018-.097.072-.186.163-.264.073-.062.185.003.175.098-.186,1.745-.408,3.488-.537,5.237-.136,1.839.229,3.638.655,5.508Z" fill="#42231b"/>
          <path d="m61.257,80.443c1.319.849,2.761,1.163,4.179,1.498,2.175.514,4.404.587,6.62.431,1.821-.128,3.607-.525,5.215-1.617.86-.56,1.693-1.045,2.51-1.554.349-.217.667-.485,1.135-.831.011.698-.313.982-.598,1.281-1.795,1.88-4.008,3.026-6.526,3.537-3.691.749-7.344.643-10.899-.758-1.592-.627-2.98-1.568-4.247-2.698-.258-.23-.528-.492-.377-1.028.999.592,1.956,1.159,2.988,1.739Z" fill="#090706"/>
          <path d="m60.164,71.149c.439-.435.924-.782,1.439-1.071.052-.029.164-.088.272-.065.092.019.154.065.191.118s.05.118.038.19c-.022.13-.197.249-.254.291-.563.41-.985.931-1.249,1.585-.31.769-.303,1.39.363,1.872.498.361,1.143.591,1.65.886.116.067.082.241-.051.264-.943.161-1.726.002-2.353-.505-.292-.236-.83-.641-.897-1.329-.096-.979.241-1.631.851-2.235Z" fill="#42231b"/>
          <path d="m75.315,88.156c-1.635,1.869-3.533,1.787-5.601,1.019-.048-.018-.064-.079-.033-.118.257-.322.615-.185.901-.178.877.019,1.712-.128,2.513-.484,1.119-.497,1.963-1.302,2.602-2.334l.002-.004c.109-.176.373-.142.438.054.144.439-.033.752-.822,2.045Z" fill="#42231b"/>
          <path d="m78.163,69.452c.02-.013.069,0,.09.009.988.387,1.527,1.185,1.802,2.15.395,1.385-.524,2.757-1.975,3.091-.072,0-.059-.064-.039-.087,1.149-1.52,1.027-3.087.182-4.685-.048-.09-.091-.162-.107-.353.003-.086.016-.104.047-.125Z" fill="#42231b"/>
          <path d="m88.739,29.518c-.094-.025-.184-.054-.275-.083.077-.005.153-.01.258.027.028.043.021.052.017.056Z" fill="#090706"/>
          <path d="m84.679,46.077c.292.274.5.533.76.718,1.046.742,1.059,1.765.836,3.025-2.072-1.024-4.099-2.01-6.38-2.165-2.258-.153-4.486.121-6.826.698-.157-1.1-.111-2.087-.023-3.066.015-.169.315-.394.523-.449.894-.241,1.794-.536,2.709-.614,1.862-.159,3.736-.08,5.524.516.974.324,1.88.853,2.878,1.338Z" fill="#262b31"/>
          <path d="m53.503,46.729c1.347-1.287,2.951-1.924,4.644-2.27,2.267-.462,4.552-.434,6.807.186,1.074.295,1.11.328,1.118,1.472.004.674,0,1.349,0,2.173-.499-.066-.876-.076-1.23-.171-1.894-.504-3.83-.603-5.759-.446-2.089.17-4.065.806-5.862,1.928-.175.109-.367.192-.62.323-.33-1.27-.088-2.296.902-3.196Z" fill="#262b31"/>
          <g>
            <path d="m55.571,57.997c-.659-1.03-.527-2.154-.507-3.313.058-.244.047-.445.14-.57.877-1.18,2.037-1.918,3.466-2.296,2.383-.63,5.559-.061,6.794,2.385.452,1.288.02,2.433-.252,3.65-.793,1.197-1.915,1.785-3.186,2.09-2.21.53-4.167-.025-5.9-1.477m7.487-3.653c-.563-.972-1.416-1.436-2.518-1.264-1.002.156-1.692.76-1.944,1.774-.281,1.13.092,2.025,1.041,2.68.435.3.906.526,1.458.404,1.764-.389,2.526-1.684,1.964-3.595Z" fill="#f5f7f7"/>
            <g>
              <path d="m65.503,56.719c-.006-.012-.003-.056-.001-.087.021-.284.335-1.353-.3-2.684-1.062-2.225-4.271-2.727-6.533-2.13-1.124.297-2.035.784-2.837,1.579-.488.484-.767,1.141-.759,1.828.011,1.005.082,1.788.758,2.885-.011.013-.312.182-.394.117-.064-.05-.461-1.063-.488-1.192-.15-.71-.224-2.047-.224-2.047-.073-2.041.943-3.331,2.517-4.07,2.356-1.106,4.719-1.127,6.916.453.775.557,1.392,1.221,1.602,2.584.321,2.078-.049,2.686-.101,2.828-.067.024-.128-.014-.156-.065Z" fill="#090706"/>
              <path d="m55.437,58.228c.213-.227.275-.312.394-.117.067.11.209.284.294.355,1.733,1.452,3.69,2.007,5.9,1.477,1.065-.256,1.997-.713,2.763-1.558.147-.163.477-.653.724-1.834.043-.027.272-.177.252-.044-.021.14-.087.45-.126.628-.107.488-.325,1.006-.386,1.168-.054.142-.142.295-.25.434-2.482,3.184-7.614,2.511-9.343-.173-.058-.09-.124-.175-.223-.335Z" fill="#0f0d0c"/>
            </g>
            <path d="m63.649,54.889c.527,1.835-.235,3.13-1.999,3.519-.551.121-1.022-.104-1.458-.404-.95-.655-1.322-1.551-1.041-2.68.252-1.014.943-1.618,1.944-1.774,1.102-.172,1.955.292,2.554,1.34m-.996.568c.088-.363.126-.771-.319-.859-.299-.059-.722.017-.937.206-.133.117-.082.632.066.839.258.36.666.321,1.025.054.028-.021.051-.048.165-.24Z" fill="#090706"/>
            <path d="m73.88,58.214c-.19-.689-.474-1.358-.578-2.054-.219-1.472.314-2.667,1.531-3.551,2.478-1.8,6.505-1.073,8.327.799,1.143,1.175,1.094,3.582-.103,4.82-2.484,2.57-6.923,2.517-9.1-.012-.07-.018-.089.005-.076-.003m6.004-2.61c-.108-.302-.176-.627-.331-.903-.529-.945-1.65-1.394-2.68-1.108-1.117.311-1.812,1.245-1.783,2.397.029,1.15.798,2.028,1.914,2.292,1.186.28,2.967-.594,2.879-2.678Z" fill="#f5f7f7"/>
            <path d="m62.608,55.541c-.069.108-.093.135-.121.156-.359.267-.767.306-1.025-.054-.148-.207-.199-.722-.066-.839.215-.189.638-.265.937-.206.445.088.407.496.275.942Z" fill="#dde6e6"/>
            <path d="m79.889,55.691c.082,1.998-1.699,2.871-2.885,2.591-1.115-.263-1.885-1.142-1.914-2.292-.029-1.152.665-2.086,1.783-2.397,1.03-.286,2.151.163,2.68,1.108.155.276.223.6.337.99m-1.504.284c.057-.041.134-.071.169-.126.345-.546.307-.922-.109-1.176-.358-.218-.791-.103-1.01.268-.249.42-.08.817.479,1.085.086.041.209.006.471-.051Z" fill="#0d0a08"/>
            <path d="m78.307,56.003c-.184.028-.307.064-.393.022-.559-.268-.728-.665-.479-1.085.219-.371.652-.486,1.01-.268.416.254.454.63.109,1.176-.035.056-.112.085-.247.155Z" fill="#dde6e6"/>
            <g>
              <path d="m73.266,56.753c-.052-.142-.422-.75-.101-2.828.21-1.363.827-2.026,1.602-2.584,2.197-1.58,4.56-1.559,6.916-.453,1.575.739,2.591,2.029,2.517,4.07,0,0-.074,1.336-.224,2.047-.027.129-.424,1.141-.488,1.192-.083.065-.383-.104-.394-.117.676-1.097.747-1.88.758-2.885.008-.687-.271-1.344-.759-1.828-.801-.795-1.713-1.282-2.837-1.579-2.261-.597-5.471-.095-6.533,2.13-.635,1.331-.321,2.4-.3,2.684.002.03.005.075-.001.087-.028.052-.089.089-.156.065Z" fill="#090706"/>
              <path d="m83.265,58.53c-1.729,2.684-6.861,3.357-9.343.173-.108-.138-.196-.291-.25-.434-.061-.162-.279-.68-.386-1.168-.039-.177-.105-.487-.126-.628-.02-.133.209.017.252.044.247,1.181.577,1.672.724,1.834.765.845,1.697,1.302,2.763,1.558,2.21.53,4.167-.025,5.9-1.477.086-.072.227-.246.294-.355.119-.195.182-.11.394.117-.099.16-.165.245-.223.335Z" fill="#0f0d0c"/>
            </g>
          </g>
          <path d="m46.172,61.736c.259.768.47,1.155.746,2.018.433,0,.617.356,1.108.452.319,2.547-.219,5.082-.336,7.514-.081,1.678-.308,3.35-.378,5.029-.068,1.651.015,3.308-.03,4.961-.08,2.987.472,5.861,1.562,8.621.781,1.978,1.84,3.809,3.266,5.416,1.72,1.937,3.892,3.13,6.298,3.986,2.614.93,5.314,1.471,8.05,1.837,1.239.166,2.502.242,3.751.217,1.03-.02,2.054-.267,3.084-.382,2.829-.318,5.57-.992,8.218-2.03,3.459-1.356,5.976-3.72,7.676-7.033,1.743-3.396,2.497-7.008,2.562-10.777.032-1.861-.086-3.727-.199-5.587-.113-1.857-.258-3.715-.473-5.562-.24-2.063-.465-4.118-.109-6.188.106.016.214.024.318.051.942.238,1.078.184,1.396-.754.389-1.149.741-2.311,1.232-3.552.409-.357.673-.658.985-.895.452-.344.912-.696,1.419-.942.428-.208.928-.269,1.431.224-1.301.173-2.133.912-2.808,1.809-1.05,1.397-1.602,3.036-2.081,4.696-.106.366-.157.747-.233,1.121.442-.054.714-.246.992-.43.919-.608,1.98-.563,2.744.162-.254.02-.459.042-.664.051-1.8.077-3.32,1.644-3.272,3.445.027.999.143,1.997.249,2.992.067.632.188,1.258.288,1.911,1.075.189,1.832-.349,2.535-.968,1.583-1.394,2.55-3.192,3.178-5.164,1.069-3.362,1.752-6.789,1.29-10.341-.123-.949-.313-1.911-.635-2.808-.614-1.711-2.388-2.768-4.087-2.521.096-.476.192-.953.346-1.484,2.685-.059,4.523,1.375,5.38,3.883.411,1.202.629,2.512.69,3.784.162,3.361-.351,6.658-1.466,9.829-.46,1.31-1.077,2.592-1.804,3.775-1.387,2.257-2.62,3.022-5.105,3.494,0,2.082.02,4.161-.004,6.239-.062,5.321-1.485,10.22-4.832,14.412-.794.995-1.088,1.921-1.002,3.115.171,2.349.284,4.702.419,7.019,2.293.505,4.751,1.077,6.988,1.601-.005.684-.028,1.252-.216,1.962-2.139-.383-4.522-.919-6.622-1.19.222,2.939.145,5.27-.236,5.991-.129-.325-.251-.573-.328-.834-.772-2.619-1.071-5.317-1.275-8.023-.144-1.925-.175-3.859-.25-5.877-.011-.428-.028-.768-.05-1.229-.359.163-.583.256-.799.364-1.09.542-2.158,1.133-3.271,1.624-3.112,1.374-6.444,1.868-9.777,2.328-.847.117-1.712.229-2.561.186-1.46-.073-2.927-.189-4.368-.429-3.718-.619-7.372-1.478-10.749-3.43-.397-.218-.726-.401-1.201-.665-.156,2.405-.363,4.641-.431,6.88-.072,2.407-.383,4.772-.913,7.114-.145.639-.342,1.267-.515,1.9-.089-.009-.178-.018-.267-.027-.175-1.923.037-3.87-.109-5.847-.274.027-.448.029-.616.062-1.926.384-4.139.837-6.065,1.225-.087-.639-.169-1.307-.254-2.035.89-.322,2.054-.62,2.95-.816.943-.206,1.904-.329,2.848-.528.448-.094.877-.281,1.266-.409.056-.141.103-.206.105-.273.09-2.687.172-5.374.264-8.061.015-.451-.092-.815-.411-1.17-2.307-2.565-3.743-5.586-4.548-8.916-.396-1.635-.699-3.285-.688-4.987.008-1.286-.16-2.572-.169-3.858-.007-.926.125-1.853.179-2.781.012-.206-.042-.417-.049-.483-.998-.388-1.928-.658-2.769-1.098-1.286-.672-2.071-1.875-2.77-3.085-1.251-2.164-1.92-4.538-2.408-6.982-.44-2.203-.42-4.417-.418-6.639.002-1.425.334-2.766.97-4.037,1.009-2.016,2.675-3.164,5.078-3.082.07.542.179.828.246,1.439-2.208-.028-3.526,1.166-4.092,2.704-.423,1.149-.736,2.33-.681,3.571.057,1.288.123,2.576.206,3.862.132,2.056.662,4.027,1.336,5.962.674,1.936,1.714,3.635,3.307,4.955.625.518,1.26,1.075,2.211.729.165-1.499.296-2.958.496-4.407.175-1.266-.311-2.208-1.207-3.051-.559-.525-1.166-.809-1.919-.827-.192-.005-.384-.044-.655-.077,1.162-.9,1.684-.808,3.798.646-.484-1.949-.954-3.769-1.954-5.403-.262-.428-.554-.839-.84-1.252-.577-.836-1.504-1.084-2.408-1.452.425-.124.84-.192,1.234-.126.775.129,1.367.593,1.885,1.172.228.254.999.796,1.207,1.071.308.408.426.893.593,1.39Z" fill="#40221a"/>
          <path d="m43.416,50.878c-.126-1.35-.252-2.7-.378-4.05-.017-.178-.045-.356-.05-.535-.075-2.616-.189-5.231-.195-7.847-.002-.898-.182-1.598-.903-2.163-.634-.498-1.044-1.16-1.278-1.948-.47-1.588.028-2.986.887-4.262.407-.605.978-1.175,1.604-1.536.656-.378.801-.826.749-1.485-.076-.97.225-1.823.792-2.618.969-1.358,2.276-1.888,3.893-1.654.584.085.777-.223.909-.672.333-1.126,1.066-1.955,2.032-2.555,1.854-1.153,3.765-1.218,5.692-.153.091.05.192.085.309.136.582-.476,1.189-.917,1.731-1.427.742-.698,1.676-.968,2.603-1.228,1.26-.353,2.552-.396,3.772.142.609.268,1.181.665,1.697,1.091.429.355.723.46,1.2.063.684-.569,1.427-1.074,2.176-1.559,1.357-.877,2.897-1.292,4.476-1.328,2.997-.068,5.768,1.693,6.527,4.709.032.128.143.236.261.423.365-.186.69-.389,1.041-.526,2.96-1.155,5.862-.596,8.173,1.577,1.349,1.269,1.975,2.961,2.138,4.808.077.875.08.858.935,1.131,2.538.812,4.236,2.463,4.611,5.14.237,1.691-.195,3.287-1.745,4.347-.207.142-.406.296-.603.453-.054.043-.085.113-.045.057.031,1.47.125,2.829.072,4.183-.076,1.927-.262,3.849-.4,5.773-.079,1.105-.154,2.211-.289,3.468-.154.628-.249,1.104-.358,1.668-.525,2.541-1.037,4.994-1.605,7.502-.424,1.211-.775,2.372-1.165,3.522-.318.938-.453,1.122-1.396.884-.104-.026-.212-.034-.331-.144.033-.808.1-1.651.123-2.366.082-2.584.241-5.171.202-7.754-.059-3.911-.245-7.821-.412-11.73-.033-.763-.225-1.519-.345-2.292-.25.044-.362.043-.456.084-1.768.772-3.592.862-5.487.59-2.119-.304-4.132-.928-6.068-1.803-.853-.385-1.594-.675-2.171.373-.079.144-.272.229-.421.329-2.096,1.402-4.396,1.617-6.807,1.149-.97-.188-1.856-.588-2.608-1.223-.317-.267-.526-.663-.737-.94-3.85,1.909-6.93,1.032-9.588-1.959-1.879,1.351-3.887,1.892-6.15,1.126-.15.494-.271.864-.376,1.239-.764,2.746-1.035,5.575-1.226,8.397-.198,2.935-.212,5.885-.244,8.829-.017,1.541.146,3.084.145,4.626-.001,1.096.317,2.357-.327,3.422-.469.006-.849-.124-1.282-.124-.276-.863-.514-1.638-.772-2.406-.167-.497-.365-.984-.565-1.538-.091-.162-.165-.262-.241-.355,0,.007.013.005.005-.087-.223-1.208-.431-2.324-.654-3.438-.272-1.354-.557-2.706-.838-4.147-.082-.522-.162-.957-.241-1.391m45.485-21.354c2.038,1.011,3.441,2.595,4.041,4.784.429,1.563.083,3.053-.824,4.414-.185.278-.321.651-.317.978.007.604.116,1.209.214,1.809.436,2.658.681,5.33.627,8.027-.019.934-.076,1.882.051,2.801.154,1.116.162,2.198.004,3.313-.117.827-.023,1.683-.023,2.527,1.938-7.192,2.431-14.512,2.015-22.003.254-.074.518-.15.781-.228.907-.268,1.43-.877,1.688-1.783.419-1.469-.113-2.691-.986-3.787-.991-1.245-2.434-1.573-3.93-1.721-.335-.033-.673-.042-1.1-.068.122-.425.214-.693.275-.968.298-1.34.265-2.659-.49-3.847-.341-.537-.801-1.017-1.274-1.448-1.525-1.393-3.307-1.779-5.299-1.248-.932.249-1.683.765-2.353,1.447-.458.465-.85,1.029-1.668,1.422,0-.921-.029-1.664.006-2.403.088-1.874-1.404-3.862-3.228-4.368-1.136-.315-2.3-.327-3.412-.073-2.368.54-4.22,1.904-5.622,3.887-.19.269-.433.5-.78.895-.166-.602-.273-.973-.371-1.347-.325-1.241-1.126-2.013-2.379-2.205-1.458-.223-2.865.005-4.147.79-.992.608-1.676,1.437-1.919,2.606-.06.289-.228.555-.397.95-.27-.352-.475-.556-.607-.799-1.162-2.137-4.271-2.2-5.918-.394-.632.693-1.002,1.468-.634,2.46.206.557.281,1.162.477,2.014-.759-.498-1.32-.846-1.86-1.225-.781-.548-1.64-.535-2.475-.265-1.253.406-1.94,1.746-1.652,3.127.123.588.332,1.159.515,1.784-.169.05-.304.134-.426.118-1.099-.152-1.832.424-2.515,1.178-1.509,1.665-1.202,4.016.758,5.128.603.342.767.739.757,1.377-.031,1.906-.043,3.813-.003,5.719.037,1.792.073,3.59.249,5.372.204,2.063.549,4.112.855,6.164.1.672.259,1.336.41,1.999.149.657.323,1.308.486,1.961-.505-8.034.137-15.87,3.302-23.563.144.375.264.61.323.859.141.589.471.876,1.091,1.011,1.557.34,2.801-.26,3.979-1.149.542-.409,1.075-.829,1.629-1.258,0-.001.158.188.217.405.527,1.926,1.965,2.862,3.739,3.363,2.33.658,3.634.064,4.887-2.084.271-.465.586-.905.881-1.357.179.804.199,1.521.174,2.237-.031.891.365,1.543,1.122,1.938,2.309,1.206,4.612,1.082,6.902-.094.91-.467,1.252-1.336,1.627-2.263.335.146.62.28.913.396,1.699.677,3.374,1.43,5.108,2.001,1.961.646,3.993.863,6.044.387,1.532-.355,2.698-1.193,3.255-2.697.693-1.87.165-3.535-1.051-5.008-.584-.708-1.267-1.335-1.898-2.007,0,0,.007-.009.158.011Z" fill="#090706"/>
          <path d="m74.116,49.164c-.733.213-1.379.408-2.095.625-.048-.271-.114-.469-.113-.667.003-1.331.046-2.662.023-3.991-.01-.608.247-.922.794-1.108,3.774-1.285,7.473-1.267,11.065.621,1.167.613,2.113,1.483,2.853,2.572.12.177.273.371.292.569.109,1.128.181,2.26.284,3.63-4.109-2.901-8.455-3.263-13.103-2.249m10.503-3.136c-.937-.437-1.843-.965-2.817-1.29-1.788-.595-3.662-.675-5.524-.516-.915.078-1.814.373-2.709.614-.207.056-.507.281-.523.449-.088.979-.134,1.966.023,3.066,2.341-.577,4.568-.851,6.826-.698,2.281.155,4.308,1.14,6.38,2.165.223-1.26.21-2.283-.836-3.025-.26-.185-.467-.444-.821-.766Z" fill="#0d0a08"/>
          <path d="m55.002,44.755c2.463-1.395,5.032-1.887,7.746-1.483,1.2.179,2.381.493,3.565.77.367.086.625.293.637.746.04,1.47.115,2.94.166,4.41.006.167-.057.336-.104.592-5.232-1.723-10.266-1.747-14.971,1.431-.538-1.385-.219-3.585.769-4.618.639-.668,1.411-1.209,2.191-1.849m-1.555,2.03c-.933.844-1.176,1.869-.846,3.14.252-.13.444-.213.62-.323,1.797-1.122,3.773-1.758,5.862-1.928,1.929-.157,3.865-.058,5.759.446.355.094.731.104,1.23.171,0-.824.004-1.499,0-2.173-.008-1.144-.044-1.177-1.118-1.472-2.255-.62-4.54-.648-6.807-.186-1.693.345-3.297.983-4.7,2.326Z" fill="#0d0a08"/>
        </g>
      </g>
    </g>
  </g>
</svg>