<?xml version="1.0" encoding="utf-8"?>
<!-- Generator: Adobe Illustrator 27.7.0, SVG Export Plug-In . SVG Version: 6.00 Build 0)  -->
<svg version="1.1" id="Layer_1" xmlns="http://www.w3.org/2000/svg" xmlns:xlink="http://www.w3.org/1999/xlink" x="0px" y="0px"
	 viewBox="0 0 140 140" enable-background="new 0 0 140 140" xml:space="preserve">
<g>
	<g>
		<defs>
			
				<ellipse id="Ellipse_891_00000111906515897593470950000003860035974219470472_" cx="604.35" cy="-1832.72" rx="536.198" ry="536.198"/>
		</defs>
		<clipPath id="Ellipse_891_00000174592670916402301780000000060516100411146400_">
			<use xlink:href="#Ellipse_891_00000111906515897593470950000003860035974219470472_"  overflow="visible"/>
		</clipPath>
		<g clip-path="url(#Ellipse_891_00000174592670916402301780000000060516100411146400_)">
			<g>
				<path fill="#3F221A" d="M247.839-865.776c0.187,15.488,0.375,30.976,0.522,47.247c-1.091,2.666-2.577,4.431-3.122,6.45
					c-3.033,11.221-5.685,22.547-8.779,33.75c-1.824,6.605-1.433,13.02-0.478,19.707c0.896,6.27,0.594,12.719,0.712,19.091
					c0.349,18.843-1.102,37.555-2.985,56.316c-3.043,30.315-8.808,60.112-14.85,89.899c-6.209,30.607-12.631,61.177-18.299,91.885
					c-4.109,22.264-7.29,44.706-10.609,67.109c-3.361,22.688-6.354,45.417-6.72,68.421c-0.176,11.056-1.03,22.101-1.604,33.15
					c-0.53,10.218-1.03,20.438-1.677,30.648c-0.296,4.669,1.253,8.48,3.783,12.395c8.757,13.551,16,27.745,19.804,43.691
					c5.7,23.892,2.423,46.959-6.746,68.972c-8.413,20.201-18.481,39.756-28.583,59.199c-11.866,22.836-10.668,45.392,0.027,67.886
					c6.189,13.018,13.376,25.558,19.93,38.407c2.006,3.933,3.659,8.094,5.03,12.295c4.725,14.48,0.054,26.79-12.985,34.889
					c-0.448,0.278-0.752,0.786-1.545,1.642c-0.289,6.767-2.441,13.374-6.598,19.595c-3.656,5.472-9.914,7.071-14.139,11.188
					c-4.053,3.95-6.385,9.48-11.596,12.734c-11.697,7.303-22.733,5.635-33.351-1.882c-2.815-1.993-5.369-3.305-8.92-3.641
					c-7.333-0.692-13.622-3.908-19.225-8.931c-11.663-10.456-19.171-23.677-25.5-37.605C49.223,6.472,41.203-16.586,36.672-40.639
					c-2.909-15.439-5.047-31.075-6.522-46.718c-1.323-14.031-1.416-28.189-1.786-42.298c-0.554-21.101,1.828-42.014,5.429-62.728
					c2.317-13.324,5.62-26.519,9.23-39.566c5.272-19.06,12.724-37.388,23.808-53.79c5.58-8.257,5.395-16.615,4.478-25.415
					c-1.315-12.624-3.054-25.204-4.636-37.8c-1.789-14.247-3.391-28.523-5.464-42.729c-2.352-16.117-5.062-32.183-7.754-48.248
					c-2.921-17.438-5.934-34.861-9.025-52.27c-4.781-26.928-9.734-53.825-14.475-80.76c-3.302-18.763-6.666-37.524-9.452-56.367
					c-2.261-15.293-4.003-30.679-5.424-46.075c-1.498-16.232-2.304-32.527-3.499-48.788c-0.323-4.398-1.261-8.763-1.407-13.16
					c-0.945-28.42,3.107-56.168,10.038-83.744c20.848-82.948,41.129-166.039,61.644-249.071c0.398-1.611,0.941-3.186,1.532-5.428
					c3.849,1.21,7.582,3.07,11.331,5.979c-3.749,15.764-7.515,30.48-11.391,45.832c-0.468,1.688-0.907,2.718-1.173,3.792
					c-16.87,68.254-33.617,136.538-50.655,204.75c-4.506,18.039-9.007,35.958-8.233,54.786c0.762,18.543,1.042,37.105,1.737,55.651
					c0.364,9.721,1.108,19.431,1.861,29.131c0.5,6.442,1.188,12.869,2.114,19.264c1.877,12.96,3.883,25.904,5.987,38.83
					c3.638,22.354,7.247,44.714,11.157,67.021c3.865,22.047,8.328,43.99,12.096,66.052c4.837,28.318,9.286,56.702,13.819,85.071
					c3.667,22.952,6.437,45.978,6.481,69.292c0.021,11.056,0.869,22.113,1.412,33.166c0.261,5.322,0.171,10.347-3.442,14.947
					c-2.71,3.45-4.712,7.517-6.674,11.484c-8.761,17.709-15.069,36.315-19.329,55.571c-5.211,23.557-9.002,47.334-8.814,71.595
					c0.071,9.244,0.063,18.489-0.16,27.731c-0.414,17.112,1.381,34.073,3.948,50.909c3.553,23.299,9.411,46.091,18.033,68.082
					c5.868,14.967,11.288,30.222,21.25,43.13c3.695,4.789,7.762,9.568,12.544,13.179c7.904,5.967,17.199,1.132,17.665-8.781
					c0.141-2.993,0.069-6.265-0.976-9c-5.332-13.951-10.937-27.801-16.608-41.62c-2.711-6.606-5.781-13.066-8.752-19.737
					c-2.402,0-4.333,0.041-6.262-0.006C62.996-19.966,53.436-33.852,61.213-51.67C69.975-71.741,74.33-92.02,69.9-113.865
					c-3.749-18.485-5.381-37.207-4.882-56.112c0.456-17.297,5.354-33.269,13.707-48.267c0.79-1.418,2.407-2.375,3.639-3.546
					c0.816,3.071,0.54,5.482-0.063,7.809c-5.623,21.719-11.019,43.401-7.413,66.216c1.981,12.534,2.858,25.24,4.754,37.789
					c2.488,16.465,1.686,32.438-4.896,47.949c-2.486,5.859-4.288,12.01-6.78,17.866c-1.826,4.289-0.377,7.579,2.268,10.664
					c3.718,4.337,8.744,6.209,14.179,5.309c7.66-1.268,15.214-3.314,21.425-8.443c11.334-9.359,19.826-20.317,19.096-36.006
					c-0.282-6.064-0.852-12.159-1.9-18.133c-2.595-14.801,1.552-27.408,12.09-37.804c10.242-10.105,18.281-21.715,23.435-35.008
					c4.908-12.66,8.775-25.749,5.134-39.681c-0.284-1.088,0.332-2.411,0.529-3.625c0.533-0.151,1.067-0.301,1.6-0.452
					c1.277,2.562,3.059,4.996,3.747,7.708c3.358,13.23,3.047,26.292-2.339,39.074c-6.095,14.466-14.4,27.424-25.538,38.528
					c-6.794,6.773-10.754,14.705-10.013,24.553c0.581,7.717,1.879,15.466,1.544,23.143c-0.369,8.461,1.685,15.852,5.893,22.959
					c4.391,7.418,8.78,14.838,12.738,22.496c6.851,13.257,13.537,26.602,20.034,40.035c2.093,4.326,3.289,9.086,4.971,13.864
					c6.843-5.243,9.65-11.486,7.584-18.369c-1.821-6.068-4.243-12.042-7.127-17.685c-5.927-11.6-13.055-22.629-18.399-34.475
					c-10.013-22.193-13.413-45.212-3.616-68.483c4.515-10.723,9.676-21.256,15.479-31.336c9.196-15.974,16.572-32.678,21.45-50.373
					c4.453-16.15,5.412-32.638,1.105-49.069c-3.18-12.131-8.32-23.402-14.634-34.285c-9.907-17.076-21.608-32.174-39.782-41.169
					c-0.471-0.233-0.577-1.205-0.975-2.109c13.526,1.038,22.729,9.795,34.08,17.802c-0.781-5.301-1.852-9.025-1.79-12.729
					c0.407-24.108,0.417-48.249,1.852-72.303c1-16.772,3.75-33.469,6.281-50.114c3.403-22.388,6.957-44.768,11.15-67.018
					c6.552-34.773,13.9-69.396,20.5-104.16c3.347-17.63,6.054-35.393,8.567-53.165c1.971-13.934,3.947-27.94,4.57-41.974
					c0.787-17.739,0.418-35.542,0.116-53.311c-0.13-7.649-0.77-15.283-1.943-22.842c-3.174-20.461-8.484-40.28-19.226-58.27
					c-0.858-1.437-0.958-3.326-1.41-5.006c2.963,0.14,5.242,0.901,6.235,2.474c5.158,8.177,10.295,16.397,14.822,24.931
					c2.873,5.415,4.667,11.401,7.447,18.392c5.497-21.674,10.559-41.793,15.774-61.873
					C245.374-863.067,246.856-864.357,247.839-865.776 M136.994,14.535c-7.819-14.788-15.637-29.575-23.735-44.891
					c-5.452,3.186-9.919,5.797-14.925,8.722c1.447,3.062,2.719,5.776,4.011,8.48c5.965,12.475,12.142,24.854,17.813,37.46
					c2.596,5.772,4.918,11.853,6.092,18.036c1.914,10.074,0.668,19.816-7.853,27.532c7.068,6.348,13.925,6.592,21.362,3.243
					c6.338-2.854,8.718-7.794,8.799-14.595c0.104-8.659-0.438-17.107-3.846-25.198C142.248,27.471,139.927,21.556,136.994,14.535
					 M126.963-23.986c2.239,4.133,4.532,8.238,6.709,12.404c9.722,18.609,20.32,36.855,24.19,57.912
					c0.424,2.306,0.955,4.593,1.571,7.529c6.399-3.586,8.305-8.859,8.855-14.725c0.742-7.912-1.187-15.543-4.523-22.528
					c-7.86-16.459-16.195-32.693-24.506-48.933c-2.862-5.593-6.222-10.931-9.42-16.5c-9.796,9.587-9.966,10.447-4.545,21.486
					C125.66-26.597,126.052-25.864,126.963-23.986z"/>
				<path fill="#6F4539" d="M247.932-866.494c-1.076,2.137-2.558,3.427-2.965,4.995c-5.215,20.079-10.276,40.198-15.774,61.873
					c-2.779-6.991-4.574-12.977-7.447-18.392c-4.527-8.533-9.664-16.754-14.822-24.931c-0.992-1.573-3.272-2.335-6.235-2.474
					c0.452,1.679,0.552,3.569,1.41,5.006c10.743,17.99,16.053,37.809,19.226,58.27c1.173,7.56,1.813,15.193,1.943,22.842
					c0.302,17.768,0.672,35.572-0.116,53.311c-0.623,14.034-2.599,28.04-4.57,41.974c-2.514,17.771-5.22,35.535-8.567,53.165
					c-6.6,34.764-13.948,69.387-20.5,104.16c-4.193,22.251-7.747,44.63-11.15,67.018c-2.53,16.645-5.28,33.342-6.281,50.114
					c-1.435,24.054-1.445,48.195-1.852,72.303c-0.062,3.705,1.009,7.428,1.79,12.729c-10.818-7.632-19.685-15.944-32.203-17.606
					c-0.991-0.132-1.756,1.073-1.063,1.793c0.049,0.051,0.102,0.091,0.161,0.12c18.174,8.994,29.875,24.093,39.782,41.169
					c6.314,10.883,11.453,22.154,14.634,34.285c4.308,16.431,3.348,32.918-1.105,49.069c-4.879,17.695-12.255,34.399-21.45,50.373
					c-5.803,10.081-10.964,20.613-15.479,31.336c-9.797,23.27-6.397,46.289,3.616,68.483c5.344,11.846,12.472,22.875,18.399,34.475
					c2.884,5.644,5.306,11.618,7.127,17.685c2.066,6.883-0.741,13.126-7.584,18.369c-1.683-4.778-2.879-9.538-4.971-13.864
					c-6.498-13.432-13.184-26.778-20.034-40.035c-3.958-7.658-8.347-15.078-12.738-22.496c-4.207-7.107-6.262-14.498-5.893-22.959
					c0.335-7.677-0.963-15.426-1.544-23.143c-0.741-9.848,3.219-17.78,10.013-24.553c11.138-11.104,19.443-24.062,25.538-38.528
					c5.386-12.782,5.697-25.844,2.339-39.074c-0.688-2.712-2.469-5.146-3.747-7.708c-0.533,0.151-1.067,0.301-1.6,0.452
					c-0.198,1.214-0.813,2.537-0.529,3.625c3.64,13.933-0.226,27.021-5.134,39.681c-5.154,13.293-13.193,24.903-23.435,35.008
					c-10.538,10.397-14.685,23.004-12.09,37.804c1.047,5.974,1.618,12.07,1.9,18.133c0.73,15.689-7.763,26.646-19.096,36.006
					c-6.211,5.129-13.764,7.175-21.425,8.443c-5.436,0.899-10.462-0.972-14.179-5.309c-2.644-3.085-4.093-6.374-2.268-10.664
					c2.493-5.856,4.294-12.007,6.78-17.866c6.582-15.51,7.384-31.484,4.896-47.949c-1.897-12.549-2.774-25.256-4.754-37.789
					c-3.605-22.815,1.791-44.497,7.413-66.216c0.603-2.327,0.879-4.739,0.063-7.809c-1.233,1.171-2.85,2.128-3.639,3.546
					c-8.353,14.998-13.25,30.97-13.707,48.267c-0.499,18.905,1.133,37.627,4.882,56.112c4.43,21.845,0.075,42.124-8.687,62.195
					c-7.778,17.818,1.783,31.703,21.139,32.177c1.929,0.047,3.86,0.006,6.262,0.006c2.972,6.671,6.041,13.13,8.752,19.737
					c5.671,13.819,11.276,27.668,16.608,41.62c1.045,2.735,1.117,6.007,0.976,9c-0.466,9.913-9.761,14.748-17.665,8.781
					c-4.783-3.61-8.849-8.39-12.544-13.179c-9.962-12.909-15.382-28.163-21.25-43.13c-8.622-21.991-14.48-44.783-18.033-68.082
					c-2.567-16.836-4.362-33.796-3.948-50.909c0.224-9.242,0.232-18.486,0.16-27.731c-0.188-24.261,3.603-48.038,8.814-71.595
					c4.26-19.257,10.568-37.862,19.329-55.571c1.963-3.967,3.964-8.034,6.674-11.484c3.613-4.6,3.703-9.625,3.442-14.947
					c-0.543-11.053-1.391-22.109-1.412-33.166c-0.044-23.314-2.813-46.341-6.481-69.292c-4.533-28.369-8.982-56.754-13.819-85.071
					c-3.768-22.062-8.231-44.005-12.096-66.052c-3.911-22.307-7.519-44.667-11.157-67.021c-2.104-12.926-4.11-25.869-5.987-38.83
					c-0.926-6.395-1.614-12.822-2.114-19.264c-0.753-9.7-1.497-19.41-1.861-29.131c-0.695-18.546-0.975-37.108-1.737-55.651
					c-0.774-18.828,3.727-36.747,8.233-54.786c17.038-68.212,33.786-136.496,50.655-204.75c0.265-1.073,0.704-2.104,1.788-3.789
					c6.592,2.236,13.073,4.288,18.201,8.141c12.189,9.159,26.767,12.81,40.3,18.832c4.218,1.877,8.841,3.008,13.39,3.939
					c9.418,1.928,18.988,3.153,28.348,5.309c8.373,1.928,16.686,3.576,25.322,3.147c1.915-0.095,4.077-0.301,5.737,0.428
					c9.548,4.192,19.573,2.607,29.454,2.806c0.1,1.652,0.262,3.302,0.292,4.955c0.612,33.348,1.182,66.696,1.856,100.043
					C246.901-873.184,247.615-870.201,247.932-866.494z"/>
				<path fill="#6D4438" d="M137.268,15.101c2.659,6.455,4.98,12.37,7.445,18.224c3.408,8.092,3.95,16.54,3.846,25.198
					c-0.082,6.801-2.461,11.741-8.799,14.595c-7.437,3.349-14.294,3.105-21.362-3.243c8.521-7.716,9.767-17.457,7.853-27.532
					c-1.175-6.183-3.496-12.264-6.092-18.036c-5.671-12.607-11.848-24.986-17.813-37.46c-1.293-2.704-2.564-5.419-4.011-8.48
					c5.006-2.926,9.473-5.536,14.925-8.722C121.357-15.04,129.176-0.253,137.268,15.101z"/>
				<path fill="#6D4438" d="M126.698-24.556c-0.645-1.308-1.038-2.041-1.404-2.786c-5.421-11.039-5.252-11.899,4.545-21.486
					c3.198,5.569,6.558,10.907,9.42,16.5c8.311,16.239,16.646,32.474,24.506,48.933c3.336,6.985,5.264,14.616,4.523,22.528
					c-0.55,5.866-2.456,11.139-8.855,14.725c-0.616-2.936-1.147-5.223-1.571-7.529c-3.871-21.057-14.468-39.303-24.19-57.912
					C131.495-15.749,129.202-19.853,126.698-24.556z"/>
			</g>
		</g>
	</g>
</g>
<g>
	<g>
		<defs>
			<ellipse id="Ellipse_891_00000019648901760696959190000004458894084154580151_" cx="225.36" cy="70" rx="68.57" ry="68.57"/>
		</defs>
		<clipPath id="Ellipse_891_00000148641769223629705850000003307374802318391170_">
			<use xlink:href="#Ellipse_891_00000019648901760696959190000004458894084154580151_"  overflow="visible"/>
		</clipPath>
		<g clip-path="url(#Ellipse_891_00000148641769223629705850000003307374802318391170_)">
			<g>
				<path fill="#B4433D" d="M180.816,280.939c-0.759-0.215-1.518-0.429-2.372-0.637c-3.445-1.025-6.796-2.065-10.14-3.557
					c-0.099-0.044-0.156-0.15-0.138-0.257c0.202-1.238,0.405-2.457,0.599-3.678c0.643-4.046,1.352-8.082,1.905-12.14
					c0.559-4.096,0.985-8.21,1.423-12.322c0.178-1.67,0.257-3.351,0.339-5.029c0.169-3.439,0.379-6.877,0.442-10.318
					c0.07-3.82,0.009-7.643-0.024-11.464c-0.01-1.145-0.114-2.29-0.186-3.664c-0.038-2.519-0.066-4.809-0.08-7.205
					c0-0.007,0-0.015-0.001-0.022c-0.047-0.544-0.152-0.983-0.161-1.423c-0.1-4.938-0.184-9.876-0.275-14.814
					c-0.004-0.245-0.028-0.489-0.031-0.845c-0.082-2.317-0.176-4.529-0.27-6.735c-0.005-0.114-0.091-0.208-0.203-0.225
					c-1.857-0.275-3.612-0.514-5.36-0.802c-5.116-0.845-10.028-2.344-14.699-4.614c-0.508-0.247-1.053-0.419-1.63-0.691
					c-0.006-0.003-0.012-0.006-0.018-0.009c-0.595-0.337-1.14-0.61-1.685-0.881c-0.01-0.005-0.019-0.01-0.028-0.017
					c-2.43-1.668-4.863-3.331-7.286-5.009c-0.39-0.27-0.745-0.593-1.149-0.931c-0.084-0.07-0.11-0.188-0.063-0.286
					c0.133-0.275,0.252-0.551,0.422-0.79c3.668-5.127,6.076-10.874,8.212-16.748c2.454-6.748,4.81-13.532,7.302-20.266
					c1.212-3.274,2.702-6.442,4.698-9.329c3.014-4.359,6.99-7.363,12.276-8.399c1.809-0.355,3.644-0.579,5.493-0.208
					c1.129,0.227,2.108-0.051,3.146-0.619c3.323-1.816,6.863-3.143,10.491-4.22c1.454-0.432,3.154-0.848,4.703-1.144
					c0.126-0.024,0.251,0.057,0.278,0.183c0.16,0.739,0.027,1.468,0.119,2.217c0.001,0.007,0.002,0.014,0.003,0.021
					c0.059,0.29,0.133,0.482,0.169,0.68c0.631,3.454,1.731,6.744,3.37,9.856c2.326,4.416,5.756,7.778,10.041,10.224
					c5.737,3.275,11.934,4.365,18.504,3.626c4.059-0.457,7.86-1.602,11.379-3.656c3.597-2.099,6.643-4.819,8.873-8.358
					c0.892-1.416,1.683-2.918,2.337-4.458c1.09-2.569,1.904-5.236,2.304-8.114c0.106-0.725,0.192-1.375,0.275-2.017
					c0.018-0.138-0.038-0.266,0.099-0.236c5.352,1.177,10.702,2.944,15.541,5.534c0.993,0.531,1.929,0.621,2.951,0.477
					c3.356-0.472,6.535,0.157,9.578,1.553c4.32,1.984,7.327,5.319,9.6,9.408c2.324,4.181,4.017,8.632,5.625,13.115
					c1.995,5.564,3.886,11.166,5.902,16.722c1.474,4.062,3.401,7.923,5.544,11.673c0.406,0.711,0.914,1.364,1.366,2.05
					c0.253,0.384,0.493,0.776,0.756,1.198c0.063,0.102,0.042,0.236-0.051,0.312c-2.667,2.17-5.388,4.096-8.415,5.852
					c-0.645,0.331-1.145,0.592-1.725,0.885c-6.829,3.592-14.093,5.379-21.638,6.177c-0.102,0.011-0.186,0.085-0.208,0.185
					c-0.488,2.284-0.192,4.497-0.275,6.801c-0.084,1.831-0.19,3.545-0.233,5.261c-0.099,3.971-0.168,7.942-0.255,12.028
					c-0.078,1.626-0.154,3.137-0.218,4.649c-0.014,0.325,0.031,0.653,0.034,0.98c0.004,0.479-0.007,0.958-0.012,1.437
					c-0.869,19.679,0.842,39.156,4.63,58.531c0.021,0.107-0.034,0.216-0.133,0.262c-3.247,1.502-6.632,2.533-10.098,3.597
					c-0.005,0.002-0.01,0.003-0.015,0.004c-0.799,0.189-1.511,0.36-2.399,0.595c-0.542,0.125-0.913,0.159-1.27,0.249
					c-8.137,2.055-16.391,3.422-24.751,4.12c-4.417,0.369-8.841,0.738-13.269,0.875c-4.063,0.125-8.135-0.054-12.203-0.113
					c-5.591-0.081-11.159-0.508-16.693-1.278c-4.428-0.616-8.843-1.342-13.246-2.119
					C186.014,282.165,183.423,281.509,180.816,280.939 M171.385,166.3c-0.001-0.658,0.011-1.316-0.006-1.974
					c-0.06-2.379-0.147-4.758-0.179-7.137c-0.005-0.348,0.161-0.697,0.279-1.047c0.031-0.091,0.116-0.153,0.212-0.158
					c0.001,0,0.002,0,0.003,0c0.095-0.005,0.182,0.048,0.225,0.133c0.171,0.332,0.39,0.657,0.437,1.006
					c0.285,2.11,0.569,4.222,0.749,6.343c0.222,2.613,0.37,5.234,0.496,7.854c0.12,2.5,0.198,5.004,0.249,7.507
					c0.107,5.34,0.187,10.68,0.272,16.021c0.018,1.151-0.012,2.304,0.029,3.454c0.043,1.187,0.138,2.373,0.224,3.558
					c0.154,2.121,0.35,4.24,0.469,6.364c0.119,2.13,0.17,4.264,0.242,6.396c0.092,2.707,0.258,5.415,0.248,8.122
					c-0.019,5.546-0.117,11.091-0.219,16.636c-0.037,2.007-0.164,4.013-0.275,6.017c-0.055,0.999-0.134,1.997-0.242,2.992
					c-0.304,2.792-0.628,5.583-0.953,8.373c-0.261,2.237-0.476,4.481-0.815,6.706c-0.555,3.642-1.179,7.274-1.812,10.904
					c-0.097,0.557,0.03,0.871,0.533,1.06c0.384,0.144,0.77,0.286,1.157,0.423c4.571,1.619,9.213,3.002,13.97,3.947
					c4.016,0.798,8.041,1.575,12.088,2.183c3.276,0.492,6.589,0.756,9.892,1.055c3.1,0.281,6.205,0.615,9.312,0.679
					c6.532,0.134,13.068,0.137,19.597-0.217c0.123-0.007,0.246-0.014,0.369-0.026c2.404-0.229,4.81-0.452,7.213-0.691
					c1.752-0.174,3.513-0.303,5.252-0.568c3.277-0.5,6.544-1.072,9.811-1.638c5.914-1.024,11.697-2.558,17.367-4.521
					c0.679-0.235,1.335-0.536,2.046-0.833c0.094-0.039,0.152-0.134,0.146-0.236c-0.028-0.431-0.036-0.828-0.1-1.215
					c-0.199-1.212-0.463-2.414-0.639-3.629c-0.608-4.213-1.227-8.426-1.77-12.648c-0.449-3.491-0.836-6.991-1.179-10.494
					c-0.232-2.364-0.37-4.739-0.493-7.112c-0.123-2.377-0.245-4.757-0.243-7.136c0.003-3.325,0.108-6.65,0.195-9.974
					c0.059-2.256,0.165-4.511,0.243-6.766c0.087-2.502,0.166-5.004,0.249-7.506c0.082-2.502,0.171-5.003,0.245-7.505
					c0.089-3.037,0.171-6.074,0.247-9.111c0.087-3.489,0.115-6.981,0.262-10.468c0.118-2.807-0.095-5.598,0.388-8.432
					c0.554-3.252,0.379-6.622,0.62-9.934c0.151-2.08,0.477-4.148,0.745-6.218c0.039-0.3,0.096-0.636,0.53-0.76
					c0.133-0.038,0.269,0.054,0.292,0.191c0.064,0.378,0.144,0.758,0.146,1.138c0.012,3.041,0,6.083-0.017,9.338
					c0,0.004,0,0.008,0,0.013c-0.341,5.655-0.527,11.313-0.473,16.945c0.001,0.101,0.067,0.191,0.163,0.224
					c0.928,0.321,1.715-0.004,2.502-0.112c1.006-0.138,2.004-0.331,3.205-0.504c2.986-0.575,5.916-1.347,8.785-2.364
					c4.887-1.733,9.299-4.321,13.446-7.393c0.631-0.468,0.621-0.591,0.21-1.327c-0.922-1.649-1.893-3.273-2.743-4.959
					c-2.112-4.186-3.794-8.553-5.346-12.974c-2.027-5.772-4.049-11.547-6.189-17.277c-1.265-3.386-2.775-6.676-4.866-9.662
					c-3.167-4.52-7.486-7.019-12.996-7.426c-0.319-0.024-0.644,0.042-1.027,0.101c-0.167,0.026-0.255,0.216-0.166,0.36
					c0.836,1.352,2.138,2.22,2.682,3.611c0.079,0.203-0.128,0.4-0.324,0.304c-1.241-0.609-2.185-1.64-3.345-2.342
					c-1.369-0.829-2.714-1.704-4.12-2.466c-1.37-0.742-2.777-1.428-4.216-2.022c-1.478-0.611-3.007-1.103-4.527-1.606
					c-1.378-0.456-2.772-0.867-4.055-1.261c-0.127-0.039-0.26,0.034-0.297,0.161c-0.77,2.628-1.41,5.136-2.262,7.57
					c-1.135,3.242-2.821,6.214-5.144,8.767c-2.851,3.134-6.193,5.594-10.094,7.322c-3.931,1.742-8.047,2.513-12.3,2.663
					c-2.425,0.085-4.821-0.248-7.205-0.697c-5.131-0.966-9.634-3.236-13.577-6.607c-4.512-3.857-7.341-8.784-8.88-14.478
					c-0.405-1.5-0.749-3.016-1.131-4.58c-0.03-0.123-0.152-0.202-0.277-0.177c-0.213,0.042-0.418,0.079-0.615,0.141
					c-1.958,0.617-3.928,1.201-5.866,1.874c-3.076,1.068-6.01,2.448-8.719,4.271c-1.532,1.031-3.047,2.086-4.57,3.13
					c-0.288,0.197-0.554,0.455-1.017,0.478c-0.178,0.009-0.305-0.174-0.232-0.335c0.704-1.542,2.241-2.331,3.074-3.641
					c0.058-0.092,0.045-0.215-0.034-0.29c-0.425-0.409-0.938-0.249-1.396-0.241c-0.364,0.006-0.724,0.153-1.09,0.179
					c-3.884,0.277-7.07,2.065-9.768,4.72c-1.699,1.671-3.009,3.676-4.099,5.816c-2.111,4.147-3.747,8.489-5.31,12.859
					c-1.797,5.027-3.497,10.089-5.319,15.106c-1.714,4.719-3.841,9.251-6.484,13.532c-0.138,0.224-0.245,0.466-0.375,0.739
					c-0.049,0.103-0.016,0.228,0.076,0.295c0.549,0.396,1.062,0.762,1.57,1.135c2.357,1.73,4.843,3.26,7.458,4.552
					c2.838,1.402,5.804,2.512,8.864,3.332c1.618,0.434,3.27,0.741,5.102,1.147c1.792,0.325,3.575,0.751,5.54,0.634
					c0.128-0.008,0.226-0.118,0.222-0.246C171.747,177.909,171.559,172.214,171.385,166.3z"/>
			</g>
		</g>
	</g>
</g>
<g>
	
		<ellipse id="Ellipse_891_00000132770875941024447040000013412340107145561759_" fill="#F2F2F2" cx="70" cy="70" rx="68.57" ry="68.57"/>
	<g>
		<defs>
			<ellipse id="Ellipse_891_00000055675795664072550570000005163871146407083650_" cx="70" cy="70" rx="68.57" ry="68.57"/>
		</defs>
		<clipPath id="Ellipse_891_00000030471150807144848990000009427393160975535779_">
			<use xlink:href="#Ellipse_891_00000055675795664072550570000005163871146407083650_"  overflow="visible"/>
		</clipPath>
		<g clip-path="url(#Ellipse_891_00000030471150807144848990000009427393160975535779_)">
			<path fill="#6A4136" d="M97.443,53.428c2.342-0.306,5.201,0.687,5.876,2.568c0.354,0.987,0.844,2.989,0.979,4.033
				c0.508,3.907-0.206,7.71-1.383,11.407c-0.69,2.169-1.969,5.035-3.71,6.568c-0.773,0.681-3.461,1.325-4.644,1.117
				c-0.11-0.718-0.33-1.977-0.403-2.672c-0.116-1.095-1.181-1.09-1.21-2.189c-0.053-1.981,0.631-8.776,1.786-10.313
				C95.478,62.959,96.866,56.222,97.443,53.428z"/>
			<polygon fill="#6E4539" points="48.505,53.727 41.671,53.727 38.165,54.366 35.729,58.101 35.967,63.599 36.561,69.415 
				38.403,74.169 40.186,76.843 42.741,78.685 47.019,79.12 47.792,62.835 			"/>
			<path fill="#6F4539" d="M89.193,102.011c0.089,2.123,0.009,8.969,0.168,11.087c0.223,2.977,6.687,3.126,9.015,3.64
				c4.103,1.525,6.599,4.054,5.55,6.525c-0.629,1.482-4.975,5.523-5.833,6.886c-2.146,3.405-5.311,9.778-8.772,11.798
				c-3.385,1.976-6.62,4.78-10.526,5.219c-6.321,0.711-18.954-0.271-24.473-3.421c-4.123-2.353-12.419-13.299-13.026-16.622
				c-2.061-4.824-0.298-9.45-0.356-9.735c2.115-0.521,7.273-2.132,9.392-2.554c0.185-0.037,1.284-10.177,1.456-12.823
				C52.31,102.3,89.036,102.023,89.193,102.011z"/>
			<path fill="#6E4539" d="M94.678,73.561c0.236,2.032,0.474,4.426,0.598,6.469c0.124,2.046,0.035,6,0,8.047
				c-0.071,4.146-1.411,7.353-3.328,11.088c-1.87,3.644-4.638,6.245-8.443,7.736c-2.913,1.142-5.928,1.883-9.04,2.232
				c-1.133,0.127-2.259,0.398-3.392,0.42c-1.374,0.027-2.763-0.057-4.126-0.239c-3.009-0.403-5.979-0.999-8.855-2.021
				c-2.646-0.941-6.171-2.876-8.063-5.007c-1.568-1.767-2.734-3.782-3.593-5.957c-1.198-3.036-1.807-6.197-1.718-9.483
				c0.049-1.818-0.042-3.641,0.033-5.457c0.076-1.846,0.327-3.685,0.416-5.531c0.129-2.675,0.578-5.321,0.324-8.129
				c0.586-1.277,0.42-2.797,0.421-4.003c0.002-1.696,0.677-3.393,0.696-5.088c0.035-3.238,0.05-6.483,0.268-9.712
				c0.21-3.104-0.141-7.661,0.7-10.682c0.115-0.412,0.929-3.343,3.741-4.152c2.489,0.843,26.014,3.294,37.669-1.265
				c0.105-0.041,3.364,3.816,3.639,3.767c0.133,0.85,0.896,5.916,0.932,6.755c0.184,4.299,0.388,8.6,0.453,12.902
				c0.043,2.841,1.895,6.508,1.804,9.351c-0.025,0.787-0.502,1.942-0.539,2.83C95.276,68.431,94.414,71.291,94.678,73.561z"/>
			<path fill="#0D0A08" d="M75.136,50.768c-0.806,0.235-1.517,0.449-2.304,0.687c-0.053-0.298-0.125-0.516-0.125-0.734
				c0.004-1.464,0.05-2.928,0.025-4.39c-0.011-0.669,0.272-1.014,0.873-1.219c4.151-1.413,8.22-1.394,12.171,0.683
				c1.283,0.674,2.324,1.631,3.138,2.829c0.132,0.194,0.3,0.409,0.321,0.626c0.12,1.241,0.199,2.486,0.313,3.993
				C85.029,50.051,80.248,49.654,75.136,50.768 M86.689,47.319c-1.03-0.48-2.027-1.062-3.099-1.418
				c-1.966-0.655-4.028-0.743-6.076-0.567c-1.006,0.086-1.996,0.41-2.979,0.676c-0.228,0.061-0.558,0.309-0.575,0.494
				c-0.097,1.077-0.148,2.162,0.025,3.372c2.575-0.635,5.025-0.936,7.509-0.767c2.509,0.17,4.739,1.254,7.017,2.381
				c0.245-1.386,0.231-2.511-0.92-3.328C87.305,47.959,87.077,47.673,86.689,47.319z"/>
			<path fill="#0D0A08" d="M54.112,45.919c2.709-1.535,5.535-2.076,8.521-1.631c1.32,0.197,2.619,0.543,3.921,0.847
				c0.403,0.094,0.687,0.322,0.701,0.821c0.044,1.617,0.127,3.234,0.183,4.851c0.006,0.183-0.062,0.37-0.114,0.651
				c-5.755-1.895-11.292-1.922-16.467,1.574c-0.592-1.524-0.241-3.943,0.846-5.079C52.405,47.218,53.255,46.623,54.112,45.919
				 M52.401,48.152c-1.027,0.928-1.293,2.056-0.93,3.454c0.277-0.143,0.489-0.234,0.682-0.355c1.977-1.234,4.15-1.933,6.448-2.121
				c2.122-0.173,4.251-0.064,6.335,0.49c0.39,0.104,0.805,0.115,1.353,0.188c0-0.907,0.004-1.649-0.001-2.39
				c-0.008-1.259-0.048-1.295-1.23-1.62c-2.48-0.682-4.994-0.713-7.487-0.204C55.709,45.974,53.944,46.675,52.401,48.152z"/>
			<path fill="#42231B" d="M76.455,93.658c-1.799,2.055-3.887,1.965-6.161,1.121c-0.053-0.02-0.071-0.086-0.036-0.13
				c0.282-0.354,0.676-0.203,0.991-0.196c0.964,0.021,1.883-0.141,2.764-0.532c1.231-0.547,2.159-1.432,2.862-2.568l0.002-0.004
				c0.12-0.193,0.41-0.156,0.481,0.06C77.518,91.891,77.323,92.236,76.455,93.658z"/>
			<path fill="#090706" d="M91.221,29.159c-0.104-0.028-0.203-0.06-0.302-0.092c0.084-0.006,0.168-0.011,0.283,0.03
				C91.233,29.144,91.225,29.154,91.221,29.159z"/>
			<path fill="#262B31" d="M86.756,47.372c0.322,0.301,0.55,0.586,0.836,0.789c1.15,0.816,1.165,1.942,0.92,3.328
				c-2.279-1.127-4.509-2.211-7.017-2.381c-2.484-0.169-4.934,0.133-7.509,0.767c-0.173-1.21-0.122-2.296-0.025-3.372
				c0.017-0.186,0.347-0.433,0.575-0.494c0.984-0.265,1.973-0.59,2.979-0.676c2.048-0.175,4.11-0.088,6.076,0.567
				C84.662,46.257,85.658,46.839,86.756,47.372z"/>
			<path fill="#262B31" d="M52.463,48.09c1.481-1.415,3.246-2.117,5.108-2.497c2.493-0.508,5.007-0.478,7.487,0.204
				c1.181,0.325,1.221,0.361,1.23,1.62c0.005,0.742,0.001,1.483,0.001,2.39c-0.548-0.073-0.963-0.084-1.353-0.188
				c-2.083-0.554-4.213-0.663-6.335-0.49c-2.298,0.187-4.471,0.887-6.448,2.121c-0.193,0.12-0.404,0.212-0.682,0.355
				C51.108,50.208,51.375,49.08,52.463,48.09z"/>
			<path fill="#F5F7F7" d="M54.738,60.484c-0.725-1.133-0.58-2.369-0.558-3.644c0.064-0.268,0.052-0.489,0.154-0.626
				c0.964-1.298,2.241-2.11,3.812-2.525c2.621-0.693,6.115-0.067,7.473,2.623c0.497,1.416,0.022,2.676-0.277,4.014
				c-0.872,1.317-2.107,1.964-3.504,2.299c-2.431,0.583-4.584-0.027-6.49-1.624 M63.584,56.982c-0.62-1.069-1.558-1.58-2.77-1.391
				c-1.102,0.172-1.861,0.836-2.139,1.952c-0.309,1.243,0.101,2.228,1.145,2.948c0.479,0.33,0.997,0.578,1.603,0.445
				C63.364,60.508,64.203,59.084,63.584,56.982z"/>
			<g>
				<path fill="#090706" d="M65.663,59.079c-0.007-0.013-0.004-0.062-0.001-0.095c0.023-0.312,0.369-1.489-0.33-2.952
					c-1.168-2.448-4.698-3-7.186-2.343c-1.236,0.327-2.239,0.862-3.12,1.737c-0.537,0.532-0.843,1.255-0.835,2.011
					c0.012,1.106,0.09,1.967,0.834,3.174c-0.013,0.014-0.343,0.2-0.434,0.129c-0.07-0.055-0.507-1.169-0.537-1.311
					c-0.165-0.781-0.246-2.251-0.246-2.251c-0.081-2.245,1.037-3.664,2.769-4.477c2.591-1.216,5.191-1.24,7.607,0.498
					c0.852,0.613,1.531,1.343,1.762,2.842c0.353,2.285-0.053,2.955-0.111,3.111C65.761,59.177,65.694,59.136,65.663,59.079z"/>
				<path fill="#0F0D0C" d="M54.591,60.738c0.234-0.25,0.303-0.343,0.434-0.129c0.073,0.12,0.229,0.312,0.324,0.391
					c1.906,1.597,4.059,2.207,6.49,1.624c1.172-0.281,2.197-0.784,3.039-1.714c0.162-0.179,0.525-0.718,0.796-2.018
					c0.047-0.03,0.299-0.195,0.278-0.049c-0.023,0.154-0.095,0.495-0.138,0.69c-0.118,0.537-0.357,1.107-0.425,1.285
					c-0.059,0.157-0.156,0.325-0.274,0.477c-2.73,3.502-8.376,2.762-10.277-0.19C54.772,61.007,54.699,60.914,54.591,60.738z"/>
			</g>
			<path fill="#090706" d="M63.623,57.065c0.58,2.018-0.259,3.442-2.199,3.87c-0.606,0.134-1.125-0.115-1.603-0.445
				c-1.045-0.72-1.454-1.706-1.145-2.948c0.277-1.116,1.037-1.78,2.139-1.952C62.026,55.402,62.964,55.913,63.623,57.065
				 M62.527,57.691c0.097-0.399,0.139-0.848-0.351-0.945c-0.329-0.065-0.794,0.019-1.031,0.227c-0.146,0.129-0.09,0.695,0.073,0.923
				c0.284,0.396,0.733,0.353,1.128,0.059C62.376,57.931,62.402,57.901,62.527,57.691z"/>
			<path fill="#F5F7F7" d="M74.876,60.722c-0.208-0.758-0.522-1.494-0.636-2.26c-0.241-1.619,0.345-2.933,1.684-3.905
				c2.726-1.979,7.155-1.181,9.159,0.879c1.257,1.292,1.203,3.94-0.113,5.302c-2.732,2.826-7.614,2.768-10.01-0.014
				C74.883,60.705,74.862,60.731,74.876,60.722 M81.48,57.851c-0.119-0.332-0.194-0.689-0.364-0.993
				c-0.582-1.039-1.815-1.533-2.948-1.218c-1.229,0.342-1.993,1.369-1.961,2.636c0.032,1.265,0.878,2.231,2.105,2.521
				C79.618,61.106,81.576,60.145,81.48,57.851z"/>
			<path fill="#DDE6E6" d="M62.478,57.783c-0.076,0.119-0.102,0.149-0.133,0.172c-0.395,0.294-0.844,0.337-1.128-0.059
				c-0.163-0.228-0.219-0.794-0.073-0.923c0.237-0.208,0.702-0.291,1.031-0.227C62.666,56.843,62.623,57.291,62.478,57.783z"/>
			<path fill="#0D0A08" d="M81.487,57.947c0.09,2.197-1.868,3.158-3.173,2.85c-1.227-0.29-2.073-1.256-2.105-2.521
				c-0.032-1.267,0.732-2.294,1.961-2.636c1.133-0.315,2.366,0.179,2.948,1.218C81.286,57.162,81.362,57.519,81.487,57.947
				 M79.832,58.26c0.063-0.046,0.148-0.078,0.186-0.139c0.379-0.6,0.338-1.014-0.12-1.293c-0.393-0.24-0.87-0.113-1.111,0.295
				c-0.273,0.462-0.088,0.899,0.527,1.194C79.409,58.361,79.544,58.323,79.832,58.26z"/>
			<path fill="#DDE6E6" d="M79.747,58.291c-0.202,0.031-0.337,0.07-0.432,0.025c-0.615-0.295-0.801-0.731-0.527-1.194
				c0.241-0.408,0.718-0.534,1.111-0.295c0.458,0.279,0.5,0.693,0.12,1.293C79.98,58.182,79.896,58.214,79.747,58.291z"/>
			<g>
				<path fill="#090706" d="M74.201,59.115c-0.058-0.156-0.464-0.825-0.111-3.111c0.231-1.499,0.91-2.229,1.762-2.842
					c2.416-1.738,5.016-1.715,7.607-0.498c1.732,0.813,2.85,2.231,2.769,4.477c0,0-0.081,1.47-0.246,2.251
					c-0.03,0.141-0.466,1.255-0.537,1.311c-0.091,0.072-0.421-0.114-0.434-0.129c0.744-1.207,0.821-2.068,0.834-3.174
					c0.008-0.756-0.298-1.479-0.835-2.011c-0.881-0.874-1.884-1.41-3.12-1.737c-2.488-0.657-6.017-0.105-7.186,2.343
					c-0.699,1.464-0.353,2.64-0.33,2.952c0.002,0.034,0.005,0.083-0.001,0.095C74.343,59.101,74.275,59.142,74.201,59.115z"/>
				<path fill="#0F0D0C" d="M85.2,61.071c-1.901,2.953-7.547,3.692-10.277,0.19c-0.119-0.152-0.215-0.32-0.274-0.477
					c-0.067-0.178-0.307-0.747-0.425-1.285c-0.043-0.195-0.115-0.536-0.138-0.69c-0.022-0.147,0.23,0.019,0.278,0.049
					c0.271,1.3,0.634,1.839,0.796,2.018c0.842,0.929,1.867,1.433,3.039,1.714c2.431,0.583,4.584-0.027,6.49-1.624
					c0.094-0.079,0.25-0.27,0.324-0.391c0.131-0.215,0.2-0.121,0.434,0.129C85.337,60.878,85.264,60.972,85.2,61.071z"/>
			</g>
			<path fill="#42241B" d="M82.341,84.096c-0.045-0.572-0.112-1.656-1.116-2.689c-0.379-0.378-0.743-0.771-1.206-1.261
				c-0.106-0.112-0.011-0.296,0.142-0.276c1.205,0.162,1.9,0.804,2.46,1.589c1.497,2.097,1.579,6.295-0.186,8.404
				c-0.071,0.084-0.166,0.148-0.323,0.253c-0.121,0.081-0.281-0.023-0.253-0.166c0.125-0.656,0.233-1.157,0.294-1.664
				C82.318,86.924,82.508,86.224,82.341,84.096z"/>
			<path fill="#42241B" d="M57.852,84.323c-0.066,0.471-0.201,1.486-0.11,2.076c0.163,1.053,0.522,1.942,0.756,2.984
				c0.033,0.147,0.051,0.298,0.068,0.465c0.015,0.149-0.157,0.239-0.273,0.145c-1.661-1.349-2.339-3.997-1.529-6.479
				c0.483-1.482,1.12-2.955,2.778-3.476c0.143-0.045,0.272,0.104,0.2,0.236c-0.364,0.667-1.023,1.554-1.415,2.382
				C57.971,83.408,57.875,84.159,57.852,84.323z"/>
			<path fill="#42241B" d="M64.776,63.782c0.305-0.361,0.55-0.662,0.813-0.984c0.461,2.246-3.058,4.772-6.049,4.199
				c1.042-0.495,1.977-0.849,2.814-1.363C63.193,65.12,63.933,64.445,64.776,63.782z"/>
			<path fill="#42241B" d="M74.315,63.436c-0.073-0.23-0.131-0.382-0.141-0.536c-0.006-0.098,0.058-0.2,0.119-0.388
				c1.494,2.323,3.705,3.524,6.196,4.38C78.513,67.779,75.64,66.172,74.315,63.436z"/>
			<path fill="#4E2D24" d="M77.968,85.296c-0.971,0.89-2.266,1.013-3.482,1.228c-1.623,0.287-3.285,0.461-4.932,0.472
				c-2.374,0.016-4.711-0.367-6.99-1.333c0.363-0.141,0.779-0.273,1.196-0.275c3.855-0.017,7.71-0.003,11.564-0.019
				C76.184,85.366,77.044,85.28,77.968,85.296z"/>
			<path fill="#42241B" d="M62.591,77.064c0.113-0.48,0.165-0.888,0.345-1.229c0.757-1.441,1.508-1.746,2.751-1.391
				c-1.573,0.413-2.399,1.229-2.328,2.517c0.067,1.224,0.528,2.36,1.581,3.067c0.641,0.431,1.403,0.822,2.153,0.928
				c4.461,0.626,8.313-0.94,10.488-5.257c0.437-0.868,0.441-1.677-0.187-2.446c-0.401-0.491-0.788-0.998-1.23-1.45
				c-1.395-1.425-2.642-2.972-3.648-4.688c-0.977-1.666-1.457-3.502-1.564-5.437c-0.116-2.096,0.249-4.112,0.966-6.071
				c0.159-0.433,0.384-0.841,0.57-1.241c0.677,0.12,0.532,0.462,0.433,0.824c-0.282,1.031-0.588,2.06-0.803,3.106
				c-0.723,3.518,0.087,6.7,2.25,9.532c0.672,0.88,1.475,1.66,2.213,2.49c0.633,0.712,1.264,1.424,1.886,2.145
				c1.215,1.409,0.873,2.894,0.09,4.314c-2.139,3.883-6.412,6.104-10.88,5.664c-1.182-0.117-2.345-0.452-3.321-1.207
				C63.024,80.204,62.42,78.852,62.591,77.064z"/>
			<path fill="#090706" d="M60.924,84.551c1.451,0.934,3.037,1.279,4.597,1.648c2.393,0.565,4.845,0.645,7.282,0.474
				c2.004-0.141,3.967-0.578,5.736-1.779c0.946-0.616,1.862-1.149,2.761-1.709c0.384-0.239,0.734-0.534,1.249-0.914
				c0.012,0.768-0.344,1.081-0.658,1.409c-1.974,2.068-4.409,3.328-7.178,3.89c-4.06,0.824-8.078,0.707-11.988-0.833
				c-1.751-0.69-3.278-1.725-4.672-2.968c-0.283-0.253-0.581-0.542-0.415-1.131C58.737,83.288,59.789,83.912,60.924,84.551z"/>
			<path fill="#262B31" d="M41.326,44.614l4.635,16.56l1.397-8.904l0.31-7.656l0.837-8.707l2.812-1.816l11.245,1.928l15.405-0.337
				l11.446-2.035l2.585,2.371l1.499,18.051c0,0,0.29,6.464,1.118,6.684c1.575,0.42,3.719-11.013,3.719-11.013l1.687-6.12
				l-0.624-3.146l-3.257-0.867l1.73-7.675l-0.087-4.925l-4.449-2.918l-3.785,0.608l-2.366,0.622l-0.095-2.307l-1.094-2.23h-3.809
				l-2.599,1.794l-2.254-3.408l-3.143-2.033l-4.999-0.504l-3.354,1.384l-3.653,2.607l-3.608-1.992l-4.421,0.231l-3.958,2.307
				l-1.153,4.152l-3.436,0.077l-2.1,2.23l0.538,2.768l-2.718,2.431l-0.589,3.106v4.957L41.326,44.614z"/>
			<path fill="#0D0A08" d="M96.363,25.206c0.229,0.204,0.965,0.897,1.42,1.803c0.521,1.035,0.751,2.284,0.751,2.284
				c0.042,0.231,0.078,0.461,0.108,0.691c0.313,2.401-0.04,4.758-0.622,7.101c-0.047,0.188-0.502,1.246-0.521,1.302
				c-0.25,0.727-0.2,0.73,0.5,0.784c0.034,0.011,0.664-0.019,1.115,0.243c0.268,0.156,0.873,0.576,1.228,1.158
				c0.33,0.541,0.456,1.375,0.468,1.424c0.217,0.893-0.114,1.897-0.267,2.755c-0.166,0.932-1.591,5.987-2.251,8.372
				c-0.195,0.704-0.732,3.809-0.951,5.091c-0.32,1.876-1.045,3.495-1.285,5.385c-0.033,0.263-0.105,1.246-0.238,1.752
				c0,0,0,1.268-0.398,2.155c-0.17,0.38-1.538,0.509-1.677,0.117c-0.034-0.096-0.069-0.191-0.108-0.285
				c-0.14-0.335,0.017-2.676,0.017-3.595c0-2.249-0.047-2.441-0.226-3.459c-0.415-2.354-0.766-4.717-1.007-7.099
				c-0.285-2.817-0.53-5.634-0.684-8.461c-0.116-2.113-0.21-4.226-0.262-6.341c-0.028-1.144-0.412-2.194-1.188-3.053
				c-0.485-0.537-1.068-0.984-1.86-0.799c-1.318,0.309-2.625,0.664-3.939,0.991c-3.959,0.986-7.986,1.532-12.053,1.707
				c-2.469,0.106-4.942,0.07-7.419-0.154c-2.861-0.259-5.7-0.629-8.524-1.136c-1.294-0.232-2.574-0.536-3.867-0.778
				c-0.625-0.117-1.261-0.236-1.773,0.358c-1.097,1.272-1.943,2.708-2.004,4.387c-0.136,3.709-0.324,7.409-0.738,11.099
				c-0.244,2.179-0.563,4.344-0.875,6.513c-0.26,1.813-0.363,8.151-0.585,9.087c-0.077,0.323-0.131,0.651-0.259,1.019
				c-0.075,0.216-0.854,0.115-0.808-0.109c0.18-0.875-0.912-9.346-1.282-11.105c-0.454-2.151-1.321-4.977-1.457-5.096
				c0,0,0-0.001-0.001-0.001c-0.68-2.144-1.457-4.257-2.172-6.389c-0.439-1.309-0.802-2.6-1.147-3.908
				c-0.094-0.358-0.478-1.092,0.094-2.65c0.193-0.524,0.809-0.693,0.811-0.863c0.002-0.18-0.539-0.391-0.76-0.763
				c-0.79-1.327-0.704-2.634-0.028-4.015c1.086-2.221,3.152-1.682,3.502-2.497c0.208-0.483-0.042-0.693-0.181-0.916
				c-0.398-0.636-0.572-1.723-0.146-2.667c0.351-0.778,1.159-1.416,1.558-1.684c0.505-0.34,1.346-0.431,2.016-0.427
				c0.463-0.035,0.94,0.082,1.404,0.058c0.353-0.018,0.66-0.229,0.807-0.539c0.03-0.063,0.116-0.542,0.109-1.187
				c-0.11-1.588,0.654-2.347,1.265-3.008c1.102-1.193,3.149-1.915,4.356-2.256c0.66-0.187,2.209-0.468,3.802-0.22
				c0.981,0.153,2.501,0.952,3.523,1.831c0.639,0.55,0.631,0.56,1.284-0.164c0,0,0,0,0.001-0.001
				c0.572-0.512,1.918-1.845,3.159-2.456c0.697-0.343,2.067-0.833,3.361-0.99c0.963-0.117,2.359-0.1,3.128,0.04
				c0.666,0.122,1.955,0.58,2.563,0.878c0.484,0.237,1.408,0.81,1.823,1.155c0.367,0.306,0.9,0.903,1.35,1.354
				c0.352,0.356,0.727,0.959,0.727,0.96c0.28,0.383,0.737,1.187,0.736,1.187c0.121,0.255,0.253,0.241,0.382,0.063
				c0.114-0.157,0.572-0.638,1.154-0.937c0.358-0.184,0.759-0.313,1.136-0.412c0.236-0.062,1.02-0.302,1.312-0.315
				c0.585-0.027,1.473-0.004,2.112,0.423c0.54,0.361,0.951,0.991,1.259,1.507c0.253,0.425,0.561,1.682,0.641,2.035
				c0.04,0.177,0.087,0.352,0.14,0.526c0.164,0.337,0.324,0.324,0.498,0.213c0.624-0.396,2.351-0.79,2.351-0.79
				s1.475-0.5,2.772-0.122C94.845,23.751,96.25,25.105,96.363,25.206z M45.967,57.046c0.434-2.389,0.665-4.806,0.873-7.215
				c0.212-2.459,0.33-4.931,0.325-7.41c-0.004-1.781,0.239-3.566,0.656-5.315c0.077-0.326,0.953-2.34,1.73-2.928
				c0.971-0.734,2.529-0.827,3.031-0.707c1.857,0.445,3.743,0.723,5.619,1.061c2.818,0.507,5.663,0.885,8.515,1.01
				c2.542,0.111,5.095,0.14,7.653-0.145c2.524-0.281,5.066-0.359,7.542-1.011c1.879-0.495,3.851-0.595,5.675-1.348
				c0.427-0.176,0.945-0.263,1.4-0.211c0.417,0.048,1.961,0.408,2.874,1.364c0.623,0.652,1.376,2.405,1.272,4.964
				c-0.001,2.2,0.335,4.377,0.298,6.573c-0.024,1.436,0.188,2.863,0.291,4.29c0.186,2.572,0.589,5.129,0.926,7.689
				c0.002,0.018,0.005,0.036,0.007,0.054c0.063,0.433,0.682,0.46,0.788,0.035c0.189-0.76,0.334-1.514,0.501-2.264
				c0.632-2.84,1.505-5.616,2.301-8.412c0.348-1.223,0.665-2.461,0.896-3.711c0.303-1.642-0.444-2.575-2.104-2.769
				c-0.198-0.023-0.399-0.009-0.599-0.014c-1.185-0.035-1.185-0.035-0.837-1.137c0.024-0.076,0.05-0.152,0.078-0.226
				c1.112-2.956,1.565-6.016,1.341-9.161c-0.245-3.456-2.668-5.166-5.976-4.719c-1.268,0.171-2.494,0.498-3.706,0.9
				c-0.984,0.326-1.108,0.24-1.095-0.812c0.014-1.087-0.039-2.15-0.48-3.168c-0.402-0.928-1.031-1.298-1.99-1.053
				c-0.697,0.178-1.368,0.448-1.957,0.878c-0.644,0.469-1.293,0.933-1.912,1.434c-0.39,0.316-0.641,0.228-0.852-0.174
				c-0.13-0.248-0.264-0.495-0.373-0.752c-0.634-1.506-1.599-2.783-2.857-3.794c-1.681-1.352-3.581-2.006-5.789-1.572
				c-2.864,0.563-5.094,2.19-7.15,4.127c-0.941,0.887-0.947,0.919-1.619-0.118c-1.006-1.553-2.492-2.185-4.256-2.237
				c-2.158-0.064-3.966,0.764-5.419,2.348c-1.05,1.145-1.65,2.432-1.182,4.041c0.068,0.235,0.104,0.48,0.134,0.74
				c0.041,0.351-0.292,0.632-0.629,0.524c-0.566-0.18-1.087-0.39-1.621-0.547c-0.938-0.277-1.848-0.236-2.631,0.118c0,0,0,0,0,0
				c-1.144,0.596-1.699,2.07-0.981,3.463c0.218,0.423,0.515,0.805,0.775,1.207l0,0c0.246,0.378-0.09,0.866-0.531,0.77
				c-0.337-0.073-0.666-0.201-0.992-0.12c-1.399,0.348-2.084,1.448-2.474,2.704c-0.323,1.04-0.067,1.975,0.966,2.577
				c0.371,0.216,0.356,0.467-0.011,0.731c-0.53,0.382-0.995,0.858-1.031,1.545c-0.04,0.752-0.086,1.506,0.11,2.262
				c0.48,1.855,1.06,3.677,1.675,5.489c1.033,3.044,1.806,6.087,2.098,9.289c0.016,0.179,0.049,0.64,0.149,0.838
				C45.569,57.331,45.912,57.351,45.967,57.046z"/>
			<path fill="#40221A" d="M44.487,64.795c0.284,0.845,1.411,2.556,1.952,2.662c0.35,2.802-0.241,5.448-0.37,8.122
				c-0.089,1.846-0.339,3.685-0.416,5.531c-0.075,1.816,0.016,3.639-0.033,5.457c-0.088,3.286,0.52,6.446,1.718,9.483
				c0.859,2.175,2.024,4.19,3.593,5.957c1.892,2.131,4.281,3.443,6.927,4.384c2.875,1.022,5.845,1.618,8.855,2.021
				c1.363,0.182,2.752,0.266,4.126,0.239c1.133-0.022,2.259-0.293,3.392-0.42c3.112-0.349,6.127-1.091,9.04-2.232
				c3.805-1.491,6.573-4.091,8.443-7.736c1.917-3.735,2.747-7.708,2.818-11.854c0.035-2.047-0.094-4.1-0.218-6.146
				c-0.124-2.043-0.284-4.086-0.521-6.118c-0.264-2.27-0.512-4.53-0.12-6.807c1.683-3.555,3.979-5.405,4.323-5.666
				c0.497-0.378,1.004-0.766,1.561-1.036c0.471-0.229,1.02-0.296,1.574,0.247c-1.431,0.191-2.346,1.003-3.089,1.99
				c-1.155,1.537-1.762,3.34-2.289,5.165c-0.116,0.402-0.172,0.822-0.256,1.233c0.486-0.059,0.785-0.271,1.091-0.473
				c1.011-0.669,2.178-0.619,3.018,0.178c-0.302,0.024-0.54,0.05-0.785,0.058c-2.007,0.063-3.6,1.795-3.545,3.802
				c0.03,1.094,0.158,2.187,0.273,3.277c0.074,0.695,0.206,1.384,0.316,2.102c1.183,0.208,2.015-0.384,2.788-1.065
				c1.741-1.533,2.805-3.511,3.495-5.68c1.176-3.698,1.927-7.468,1.419-11.375c-0.136-1.044-0.345-2.102-0.699-3.089
				c-0.631-1.759-2.165-2.795-3.888-2.7c-0.12,0.007-0.886,0.024-1.008,0.041c0.105-0.524,0.211-1.048,0.38-1.632
				c0.139-0.003,0.92-0.007,1.054-0.004c2.71,0.075,4.367,1.532,5.265,4.162c0.452,1.322,0.692,2.763,0.759,4.162
				c0.175,3.611-0.36,7.154-1.528,10.568c-0.443,1.297-1.009,2.549-1.684,3.742c-1.694,2.994-3.04,3.935-6.001,4.497
				c0,2.29,0.022,4.577-0.004,6.863c-0.068,5.853-1.634,11.242-5.315,15.853c-0.873,1.094-1.197,2.113-1.102,3.427
				c0.188,2.583-0.118,6.911,0.461,7.72c0.543,0.76,5.226,1.185,7.686,1.761c-0.006,0.752-0.356,1.508-0.563,2.289
				c-2.353-0.422-4.649-1.142-6.959-1.44c0.213,2.813,0.176,5.119-0.113,6.194c-0.04,0.148-0.243,0.163-0.302,0.022
				c-0.081-0.191-0.153-0.364-0.205-0.543c-0.849-2.88-1.178-5.848-1.402-8.825c-0.159-2.118-0.192-4.245-0.275-6.465
				c-0.012-0.471-0.03-0.844-0.056-1.352c-0.395,0.179-0.641,0.282-0.879,0.4c-1.199,0.596-2.374,1.246-3.597,1.786
				c-3.424,1.511-7.088,2.055-10.754,2.561c-0.932,0.129-1.883,0.251-2.817,0.205c-1.606-0.08-3.22-0.208-4.805-0.472
				c-4.09-0.681-8.109-1.625-11.824-3.773c-0.436-0.24-0.799-0.441-1.321-0.731c-0.172,2.645-0.4,5.104-0.474,7.568
				c-0.08,2.648-0.422,5.249-1.005,7.825c-0.173,0.765-0.415,1.515-0.616,2.273c-0.045,0.1-0.187,0.09-0.225-0.016
				c-0.227-2.179,0.026-4.386-0.14-6.628c-0.301,0.029-0.493,0.032-0.678,0.069c-2.119,0.422-4.607,1.06-6.725,1.486
				c-0.095-0.703-0.533-1.498-0.627-2.299c0.979-0.355,2.662-0.761,3.647-0.976c1.037-0.227,2.094-0.362,3.133-0.581
				c0.493-0.104,1.065-0.141,1.392-0.45c0.122-0.115,0.113-0.227,0.115-0.3c0.099-2.955,0.189-5.911,0.291-8.866
				c0.017-0.496-0.101-0.896-0.452-1.287c-2.537-2.821-4.117-6.145-5.003-9.807c-0.435-1.799-0.769-3.613-0.757-5.486
				c0.009-1.414-0.176-2.829-0.186-4.244c-0.008-1.019,0.137-2.038,0.197-3.058c0.013-0.227-0.046-0.458-0.054-0.532
				c-1.098-0.427-2.12-0.724-3.045-1.207c-1.415-0.739-2.277-2.062-3.047-3.393c-1.376-2.38-2.112-4.991-2.649-7.68
				c-0.484-2.423-0.462-4.859-0.459-7.303c0.002-1.567,0.367-3.042,1.067-4.441c1.029-2.055,2.678-3.29,5.017-3.389
				c0.185-0.008,2.767,0.027,2.961,0.033c0.077,0.596,0.196,0.91,0.271,1.583c-0.191-0.002-2.768-0.032-2.946-0.018
				c-2.097,0.161-3.373,1.399-3.946,2.957c-0.465,1.263-0.81,2.562-0.749,3.928c0.063,1.417,0.135,2.833,0.226,4.248
				c0.145,2.262,0.728,4.429,1.47,6.558c0.742,2.129,1.885,3.998,3.637,5.45c0.687,0.569,1.386,1.182,2.432,0.802
				c0.182-1.649,0.325-3.254,0.545-4.848c0.192-1.393-0.342-2.429-1.328-3.356c-0.614-0.577-1.29-0.972-2.118-0.992
				c-0.178-0.004-0.35,0.022-0.578,0.009c-0.048-0.003-0.067-0.065-0.029-0.094c1.205-0.901,1.811-0.762,4.071,0.792
				c-0.533-2.144-0.89-4.282-1.991-6.08c-0.288-0.471-0.371-0.66-0.862-1.226c-0.804-0.848-1.709-1.155-2.361-1.413
				c-0.161-0.063-0.134-0.298,0.036-0.326c0.278-0.045,0.55-0.056,0.813-0.012c0.852,0.142,2.221,0.713,2.929,1.926
				C43.558,63.013,44.303,64.248,44.487,64.795z"/>
			<g>
				<path fill="#F87360" d="M12.873,184.418c-1.574-0.351-3.164-0.647-4.72-1.064c-2.944-0.79-5.798-1.857-8.528-3.206
					c-2.516-1.244-4.908-2.715-7.176-4.38c-0.489-0.359-0.982-0.712-1.51-1.092c-0.089-0.064-0.121-0.184-0.074-0.284
					c0.125-0.262,0.228-0.496,0.361-0.711c2.542-4.118,4.589-8.478,6.238-13.019c1.753-4.827,3.388-9.697,5.117-14.533
					c1.503-4.204,3.077-8.381,5.109-12.371c1.048-2.059,2.309-3.988,3.944-5.596c2.596-2.554,5.661-4.274,9.398-4.541
					c0.352-0.025,0.698-0.167,1.048-0.173c0.441-0.008,0.934-0.162,1.343,0.232c0.075,0.072,0.088,0.191,0.032,0.279
					c-0.802,1.26-2.28,2.019-2.957,3.503c-0.071,0.156,0.052,0.331,0.223,0.323c0.445-0.022,0.701-0.27,0.978-0.46
					c1.465-1.004,2.923-2.02,4.396-3.012c2.607-1.754,5.429-3.081,8.389-4.109c1.865-0.648,3.982-2.089,5.866-2.683
					c0.189-0.06,0.386-0.096,0.592-0.136c0.12-0.023,0.238,0.052,0.266,0.171c0.367,1.505,1.383,4.06,1.773,5.503
					c1.481,5.478,3.866,9.479,8.207,13.19c3.793,3.243,7.779,4.744,12.715,5.674c2.293,0.432,5.165,0.74,7.497,0.659
					c4.092-0.144,7.616-1.161,11.398-2.837c3.753-1.663,7.034-4.331,9.777-7.345c2.235-2.456,2.758-4.024,3.85-7.143
					c0.82-2.342,1.619-5.04,2.36-7.569c0.036-0.122,0.164-0.193,0.286-0.155c1.234,0.379,3.332,0.9,4.658,1.339
					c1.462,0.484,3.124,0.807,4.546,1.394c1.384,0.572,2.671,1.211,3.988,1.924c1.353,0.732,5.793-0.028,6.1-0.005
					c5.301,0.392,9.456,2.796,12.503,7.145c2.013,2.872,3.465,6.038,4.682,9.295c2.059,5.513,4.331,10.391,6.281,15.944
					c1.494,4.254,2.785,9.134,4.817,13.161c0.818,1.621,2.415,4.378,3.302,5.965c0.396,0.708,0.405,0.827-0.202,1.277
					c-3.99,2.956-9.32,5.503-14.021,7.17c-6.922,2.606-13.51,3.4-13.827,2.897c-0.06-0.095-0.243-0.043-0.254-0.154
					c-0.26-2.466,0.043-3.55,0.034-6.964c-0.018-3.333,0.123-3.86,0.231-6.293c-0.012-2.596,0.185-3.91,0.187-4.998
					c0.005-3.177,0.013-4.237,0.001-7.134c-0.001-0.366-0.079-0.731-0.14-1.095c-0.022-0.131-0.153-0.22-0.281-0.183
					c-0.418,0.119-0.472,0.443-0.51,0.731c-0.258,1.992-0.571,3.981-0.717,5.982c-0.232,3.186-0.063,6.429-0.596,9.558
					c-0.465,2.727-0.26,5.412-0.373,8.112c-0.141,3.355-0.168,6.714-0.252,10.071c-0.073,2.922-0.152,5.844-0.238,8.766
					c-0.071,2.407-0.156,4.814-0.235,7.221c-0.079,2.407-0.156,4.815-0.239,7.222c-0.075,2.17-0.177,4.339-0.234,6.51
					c-0.083,3.198-0.185,6.397-0.188,9.596c-0.002,2.289,0.115,4.579,0.233,6.865c0.118,2.283,0.252,4.568,0.474,6.842
					c0.33,3.37,0.702,6.737,1.135,10.096c0.523,4.062,1.118,8.115,1.703,12.169c0.169,1.169,0.423,2.325,0.614,3.491
					c0.061,0.373,0.07,0.754,0.096,1.169c0.006,0.098-0.05,0.189-0.14,0.227c-0.684,0.285-1.315,0.575-1.968,0.801
					c-5.455,1.888-11.019,3.364-16.708,4.349c-3.143,0.544-6.286,1.094-9.44,1.576c-1.673,0.255-3.367,0.379-5.053,0.547
					c-2.312,0.23-4.626,0.444-6.94,0.664c-0.118,0.011-0.237,0.018-0.355,0.025c-6.282,0.34-12.57,0.337-18.854,0.209
					c-2.99-0.061-5.977-0.383-8.959-0.653c-3.177-0.288-6.365-0.541-9.517-1.015c-3.894-0.585-7.766-1.333-11.63-2.101
					c-4.577-0.909-9.043-2.239-13.44-3.797c-0.372-0.132-0.743-0.269-1.113-0.407c-0.484-0.182-0.607-0.484-0.513-1.02
					c0.609-3.492,1.209-6.986,1.743-10.49c0.326-2.141,0.533-4.3,0.784-6.452c0.313-2.684,0.624-5.369,0.916-8.055
					c0.104-0.957,0.18-1.917,0.233-2.878c0.107-1.929,0.229-3.858,0.265-5.789c0.098-5.335,0.192-10.67,0.211-16.005
					c0.009-2.604-0.15-5.209-0.239-7.814c-0.07-2.051-0.119-4.104-0.233-6.153c-0.114-2.043-0.303-4.081-0.451-6.122
					c-0.083-1.14-0.174-2.281-0.215-3.423c-0.04-1.107-0.01-2.216-0.028-3.323c-0.082-5.138-0.159-10.276-0.262-15.413
					c-0.048-2.408-0.123-4.816-0.239-7.222c-0.121-2.521-0.264-5.042-0.477-7.556c-0.173-2.04-0.446-4.072-0.72-6.102
					c-0.045-0.335-0.256-0.649-0.421-0.968c-0.042-0.081-0.125-0.132-0.217-0.128l-0.003,0c-0.092,0.005-0.174,0.064-0.204,0.152
					c-0.114,0.336-0.273,0.673-0.269,1.007c0.031,2.289,0.114,4.578,0.172,6.867c0.016,0.633,0.036,5.511,0.234,9.159
					c0.219,4.015,0.446,8.441,0.342,9.549c-0.011,0.112-0.1,0.198-0.212,0.206C17.833,185.11,15.813,185.172,12.873,184.418z"/>
				<path fill="#B4433D" d="M27.145,278.344c-0.73-0.206-1.46-0.413-2.282-0.613c-3.315-0.986-6.538-1.987-9.756-3.422
					c-0.095-0.042-0.15-0.145-0.133-0.247c0.194-1.191,0.389-2.364,0.576-3.539c0.619-3.892,1.3-7.776,1.833-11.68
					c0.537-3.941,0.948-7.899,1.369-11.854c0.171-1.606,0.247-3.224,0.326-4.839c0.162-3.308,0.365-6.616,0.425-9.927
					c0.068-3.675,0.008-7.353-0.023-11.03c-0.009-1.102-0.11-2.203-0.179-3.525c-0.037-2.423-0.063-4.627-0.077-6.932
					c0-0.007,0-0.014-0.001-0.021c-0.046-0.523-0.146-0.945-0.155-1.369c-0.096-4.751-0.177-9.501-0.264-14.252
					c-0.004-0.235-0.027-0.471-0.03-0.813c-0.079-2.229-0.169-4.357-0.26-6.48c-0.005-0.109-0.087-0.2-0.196-0.216
					c-1.786-0.264-3.475-0.494-5.157-0.772c-4.922-0.813-9.648-2.255-14.142-4.439c-0.489-0.238-1.013-0.403-1.568-0.665
					c-0.006-0.003-0.011-0.006-0.017-0.009c-0.572-0.325-1.097-0.587-1.622-0.848c-0.009-0.005-0.019-0.01-0.027-0.016
					c-2.338-1.605-4.679-3.205-7.01-4.82c-0.376-0.26-0.717-0.57-1.105-0.895c-0.08-0.067-0.106-0.18-0.06-0.275
					c0.128-0.265,0.242-0.53,0.406-0.76c3.529-4.932,5.846-10.462,7.9-16.113c2.361-6.492,4.628-13.019,7.025-19.497
					c1.166-3.15,2.599-6.197,4.52-8.975c2.9-4.194,6.725-7.083,11.81-8.08c1.741-0.341,3.506-0.557,5.285-0.2
					c1.086,0.218,2.028-0.049,3.027-0.595c3.197-1.748,6.603-3.024,10.094-4.06c1.399-0.415,2.819-0.759,4.31-1.044
					c0.121-0.023,0.241,0.055,0.267,0.176c0.154,0.711,0.241,1.355,0.33,2.076c0.001,0.007,0.002,0.014,0.003,0.021
					c0.057,0.279,0.128,0.463,0.162,0.654c0.607,3.323,1.665,6.488,3.242,9.482c2.238,4.248,5.538,7.484,9.66,9.837
					c5.519,3.15,11.481,4.2,17.803,3.489c3.905-0.439,7.562-1.541,10.948-3.517c3.46-2.02,6.391-4.636,8.536-8.042
					c0.859-1.363,1.619-2.807,2.248-4.289c1.049-2.471,1.832-5.038,2.217-7.806c0.102-0.697,0.184-1.323,0.265-1.941
					c0.017-0.133,0.145-0.223,0.276-0.194c5.149,1.133,10.115,2.799,14.771,5.292c0.955,0.511,1.856,0.597,2.839,0.459
					c3.229-0.454,6.288,0.151,9.215,1.495c4.156,1.908,7.05,5.118,9.236,9.052c2.236,4.022,3.865,8.305,5.412,12.618
					c1.92,5.353,3.738,10.742,5.678,16.088c1.418,3.908,3.272,7.622,5.334,11.23c0.391,0.684,0.88,1.312,1.314,1.972
					c0.243,0.369,0.474,0.747,0.727,1.152c0.061,0.098,0.04,0.227-0.049,0.3c-2.566,2.088-5.184,3.94-8.096,5.631
					c-0.62,0.318-1.101,0.57-1.66,0.851c-6.57,3.456-13.558,5.175-20.818,5.943c-0.098,0.01-0.179,0.082-0.2,0.178
					c-0.469,2.197-0.184,4.326-0.265,6.543c-0.081,1.761-0.183,3.411-0.224,5.062c-0.096,3.82-0.162,7.641-0.245,11.572
					c-0.075,1.564-0.149,3.018-0.209,4.473c-0.013,0.313,0.03,0.628,0.033,0.943c0.003,0.461-0.007,0.922-0.011,1.382
					c-0.836,18.933,0.81,37.671,4.455,56.312c0.02,0.103-0.033,0.207-0.128,0.252c-3.124,1.445-6.381,2.437-9.715,3.46
					c-0.005,0.001-0.01,0.003-0.014,0.004c-0.769,0.182-1.454,0.346-2.308,0.572c-0.521,0.12-0.878,0.153-1.222,0.24
					c-7.829,1.977-15.769,3.292-23.812,3.964c-4.25,0.355-8.506,0.71-12.766,0.842c-3.909,0.121-7.827-0.052-11.741-0.109
					c-5.379-0.078-10.736-0.489-16.06-1.23c-4.26-0.593-8.508-1.291-12.744-2.039C32.145,279.525,29.653,278.893,27.145,278.344
					 M18.071,168.052c-0.001-0.633,0.01-1.266-0.006-1.899c-0.058-2.289-0.142-4.578-0.172-6.867
					c-0.005-0.334,0.155-0.671,0.269-1.007c0.03-0.088,0.111-0.147,0.204-0.152c0.001,0,0.002,0,0.003,0
					c0.091-0.005,0.175,0.046,0.217,0.128c0.164,0.319,0.375,0.632,0.421,0.968c0.274,2.03,0.547,4.062,0.72,6.102
					c0.213,2.514,0.356,5.036,0.477,7.556c0.116,2.406,0.191,4.814,0.239,7.222c0.103,5.137,0.18,10.275,0.262,15.413
					c0.018,1.108-0.012,2.217,0.028,3.323c0.041,1.142,0.133,2.283,0.215,3.423c0.148,2.041,0.337,4.08,0.451,6.122
					c0.115,2.049,0.163,4.102,0.233,6.153c0.089,2.605,0.248,5.21,0.239,7.814c-0.019,5.335-0.113,10.671-0.211,16.005
					c-0.035,1.931-0.158,3.86-0.265,5.789c-0.053,0.961-0.129,1.921-0.233,2.878c-0.293,2.686-0.604,5.371-0.916,8.055
					c-0.251,2.152-0.458,4.311-0.784,6.452c-0.534,3.504-1.134,6.998-1.743,10.49c-0.093,0.536,0.029,0.838,0.513,1.02
					c0.37,0.139,0.741,0.275,1.113,0.407c4.398,1.558,8.863,2.888,13.44,3.797c3.864,0.768,7.736,1.515,11.63,2.101
					c3.152,0.474,6.339,0.727,9.517,1.015c2.982,0.27,5.969,0.592,8.959,0.653c6.284,0.128,12.572,0.132,18.854-0.209
					c0.118-0.006,0.237-0.013,0.355-0.025c2.313-0.22,4.627-0.435,6.94-0.664c1.686-0.167,3.38-0.291,5.053-0.547
					c3.153-0.482,6.296-1.031,9.44-1.576c5.69-0.985,11.254-2.461,16.708-4.349c0.653-0.226,1.284-0.516,1.968-0.801
					c0.09-0.038,0.147-0.129,0.14-0.227c-0.027-0.415-0.035-0.796-0.096-1.169c-0.192-1.166-0.446-2.322-0.614-3.491
					c-0.585-4.054-1.18-8.107-1.703-12.169c-0.432-3.358-0.805-6.726-1.135-10.096c-0.223-2.275-0.356-4.559-0.474-6.842
					c-0.119-2.287-0.235-4.577-0.233-6.865c0.003-3.199,0.104-6.398,0.188-9.596c0.057-2.17,0.158-4.34,0.234-6.51
					c0.083-2.407,0.16-4.815,0.239-7.222c0.079-2.407,0.165-4.814,0.235-7.221c0.086-2.922,0.164-5.844,0.238-8.766
					c0.084-3.357,0.111-6.716,0.252-10.071c0.114-2.7-0.092-5.385,0.373-8.112c0.533-3.128,0.364-6.371,0.596-9.558
					c0.146-2.001,0.459-3.99,0.717-5.982c0.037-0.288,0.092-0.612,0.51-0.731c0.128-0.036,0.258,0.052,0.281,0.183
					c0.061,0.364,0.139,0.729,0.14,1.095c0.012,2.926,0,5.852-0.016,8.984c0,0.004,0,0.008,0,0.012
					c-0.328,5.441-0.507,10.884-0.455,16.303c0.001,0.098,0.064,0.184,0.157,0.216c0.893,0.308,1.65-0.004,2.407-0.108
					c0.968-0.133,1.928-0.318,3.083-0.485c2.872-0.553,5.692-1.296,8.452-2.275c4.701-1.667,8.947-4.157,12.937-7.112
					c0.607-0.45,0.598-0.568,0.202-1.277c-0.887-1.586-1.821-3.149-2.639-4.771c-2.032-4.028-3.65-8.229-5.144-12.483
					c-1.95-5.553-3.895-11.109-5.955-16.622c-1.217-3.258-2.669-6.423-4.682-9.295c-3.047-4.349-7.202-6.753-12.503-7.145
					c-0.307-0.023-0.619,0.04-0.988,0.097c-0.161,0.025-0.246,0.208-0.16,0.346c0.804,1.301,2.057,2.136,2.58,3.474
					c0.076,0.195-0.123,0.385-0.311,0.293c-1.194-0.586-2.103-1.577-3.218-2.253c-1.317-0.798-2.611-1.64-3.963-2.372
					c-1.318-0.713-2.672-1.373-4.056-1.945c-1.422-0.587-2.893-1.061-4.355-1.545c-1.326-0.439-2.667-0.834-3.901-1.213
					c-0.122-0.037-0.25,0.033-0.286,0.155c-0.741,2.528-1.357,4.941-2.177,7.283c-1.092,3.119-2.714,5.978-4.949,8.435
					c-2.743,3.015-5.958,5.382-9.711,7.045c-3.782,1.676-7.742,2.418-11.834,2.562c-2.333,0.082-4.639-0.239-6.932-0.671
					c-4.937-0.93-9.269-3.114-13.062-6.356c-4.341-3.711-7.063-8.451-8.544-13.929c-0.39-1.443-0.721-2.901-1.088-4.407
					c-0.029-0.119-0.147-0.194-0.266-0.171c-0.205,0.04-0.402,0.076-0.592,0.136c-1.884,0.593-3.779,1.156-5.644,1.803
					c-2.96,1.028-5.782,2.355-8.389,4.109c-1.474,0.991-2.931,2.007-4.396,3.012c-0.277,0.19-0.533,0.438-0.978,0.46
					c-0.171,0.008-0.294-0.167-0.223-0.323c0.678-1.484,2.156-2.243,2.957-3.503c0.056-0.088,0.043-0.207-0.032-0.279
					c-0.409-0.394-0.902-0.239-1.343-0.232c-0.35,0.006-0.696,0.147-1.048,0.173c-3.736,0.267-6.802,1.987-9.398,4.541
					c-1.634,1.608-2.895,3.537-3.944,5.596c-2.031,3.99-3.605,8.167-5.109,12.371c-1.729,4.836-3.364,9.706-5.117,14.533
					c-1.649,4.54-3.696,8.901-6.238,13.019c-0.133,0.215-0.236,0.449-0.361,0.711c-0.047,0.099-0.016,0.219,0.074,0.284
					c0.528,0.381,1.021,0.733,1.51,1.092c2.267,1.664,4.659,3.136,7.176,4.38c2.73,1.349,5.584,2.416,8.528,3.206
					c1.557,0.417,3.146,0.713,4.909,1.103c1.724,0.313,3.44,0.723,5.33,0.61c0.123-0.007,0.217-0.114,0.213-0.237
					C18.419,179.221,18.238,173.742,18.071,168.052z"/>
			</g>
		</g>
	</g>
</g>
</svg>
