<svg xmlns="http://www.w3.org/2000/svg" xmlns:xlink="http://www.w3.org/1999/xlink" width="137.14" height="137.14" viewBox="0 0 137.14 137.14">
  <defs>
    <clipPath id="clip-path">
      <circle id="Ellipse_1119" data-name="Ellipse 1119" cx="68.57" cy="68.57" r="68.57" transform="translate(1.43 1.43)"/>
    </clipPath>
  </defs>
  <g id="male_20_50_black" transform="translate(-1.43 -1.43)">
    <circle id="Ellipse_891_00000139996738736721568710000011837935825610864534_" cx="68.57" cy="68.57" r="68.57" transform="translate(1.43 1.43)" fill="#f2f2f2"/>
    <g id="Group_117487" data-name="Group 117487">
      <g id="Group_117486" data-name="Group 117486" clip-path="url(#clip-path)">
        <path id="Path_38860" data-name="Path 38860" d="M88.963,106.25c.089,2.109.078,3.955.236,6.059.222,2.957,7.089,2.183,8.916,3.631a38.284,38.284,0,0,1-2.166,9.343,30.134,30.134,0,0,1-2.233,4.26c-2.131,3.382-5.594,5.931-9.031,7.937a28.941,28.941,0,0,1-11.177,3.685,29.734,29.734,0,0,1-18.142-3.4,26.973,26.973,0,0,1-10.084-10.448,33.12,33.12,0,0,1-3.483-9.4c-.035-.192-.658-2.8-.715-3.081,2.1-.518,5.627-.137,7.732-.556.184-.037,1.078.029,1.377,0,.16,2.16.855.335.934-2.295.074-2.447-.445-12.138-.274-14.765.518.288,4.856,3.018,5.008,3.27.322.534,4.381.811,5.884,1.7,1.107.656,6.017,1.371,7.759,1.247.224-.016,6.624-.931,7.646-.987,1.583-.088,6.829-2.306,7.079-2.4,1.583-.572,2.845-2.773,4.116-3.117,0,0,1.154,6.216.726,7.547C89.16,104.4,88.807,106.262,88.963,106.25Z" fill="#6f4539"/>
        <path id="Path_38861" data-name="Path 38861" d="M94.6,66.555a21.985,21.985,0,0,0-.051,6.46c.235,2.019.134,4.4.257,6.433s.549,3.874.514,5.907a27.747,27.747,0,0,1-2.928,12.072c-1.858,3.62-5.108,7.773-8.887,9.254a35.287,35.287,0,0,1-8.979,2.217c-1.125.126-2.244.395-3.37.418a27,27,0,0,1-4.1-.237,43.232,43.232,0,0,1-8.795-2.007,16.053,16.053,0,0,1-6.881-4.355,28.745,28.745,0,0,1-4.754-6.853,23.729,23.729,0,0,1-1.707-9.419c.049-1.806-.083-4.732-.008-6.536.076-1.834.335-3.034.424-4.868.128-2.657.773-5.414.522-8.2.582-1.269.272-2.564.273-3.761,0-1.685-.13-3.473-.112-5.157.035-3.217-.292-6.581-.075-9.788a43.406,43.406,0,0,1,1.608-8.914c.114-.41.921-1.78,1.085-2.319a7.706,7.706,0,0,0,7.069-1.122c2.9,3.268,6.2,4.293,10.408,2.207A16.5,16.5,0,0,0,67.456,39.7c.822.693,1.026.362,2.086.567a9.541,9.541,0,0,0,7.437-1.256c.163-.109.373-.2.46-.359.63-1.145,1.836-.5,2.768-.075a21.411,21.411,0,0,0,6.213,1.779,10.756,10.756,0,0,0,5.994-.645c.1-.045.91.258,1.184.21.132.844.254,2.184.29,3.018.182,4.27.729,8.568.793,12.841.042,2.822-.136,5.668-.227,8.492Z" fill="#6e4539"/>
        <path id="Path_38862" data-name="Path 38862" d="M90.747,39.44a12.1,12.1,0,0,1-6.6-.423c-1.895-.624-3.724-1.447-5.581-2.187-.32-.127-.632-.274-1-.433a4.166,4.166,0,0,1-1.778,2.472,7.771,7.771,0,0,1-7.541.1,2.152,2.152,0,0,1-1.225-2.117,9.308,9.308,0,0,0-.19-2.444c-.322.493-.666.974-.962,1.482-1.369,2.346-2.794,2.995-5.339,2.276a5.254,5.254,0,0,1-4.085-3.674,1.344,1.344,0,0,0-.237-.442c-.606.468-1.188.928-1.78,1.374a5.12,5.12,0,0,1-4.347,1.255,1.361,1.361,0,0,1-1.192-1.1,8.8,8.8,0,0,0-.353-.938c-3.457,8.4-2.773,17.981-3.108,26.733a1.431,1.431,0,0,1-1.713-1.233c-.165-.725-.678-3.308-.788-4.042-.334-2.242-.6-3.707-.822-5.96-.192-1.947-.3-3.9-.343-5.858-.043-2.082.086-4.066.12-6.149a3.022,3.022,0,0,0-1.148-2.261c-2.141-1.215-2.145-4.192-.5-6.012.746-.824,1.026-2.05,2.227-1.884a3,3,0,0,0,.24-1.8,3.445,3.445,0,0,1,2.381-3.562,3.364,3.364,0,0,1,2.929.086c.59.414,1.116-.214.891-.822-.4-1.084.731-2.035,1.422-2.792,1.8-1.973,4.847-.942,6.166-.154.565.12,1.139.361,1.205.046.266-1.277.93-1.284,2.015-1.947a8.314,8.314,0,0,1,5.037-1.31c1.369.209,2.3.592,2.653,1.947.107.408,1.069.562,1.276.269,1.531-2.167,2.92-2.734,5.507-3.324a9.732,9.732,0,0,1,4.231-.168c1.992.552,4.193,2.519,4.1,4.567-.038.808.81,1.381,1.31.873a4.969,4.969,0,0,1,2.552-1.242,6.14,6.14,0,0,1,5.943,1.377,9.311,9.311,0,0,1,1.545,1.645c.825,1.3,1.467,2.5,1.142,3.962-.067.3-.046,1.307.32,1.343,1.635.162,2.828.151,3.911,1.511.954,1.2,2.54,2.793,2.082,4.4-.283.991-.117,2.606-1.108,2.9-.287.085-1.3,1.184-1.578,1.265.454,8.184-.9,15.982-3.022,23.84-.981.17-1.3-1.212-1.175-2.115a13.654,13.654,0,0,0,.034-3.723,34.052,34.052,0,0,1-.011-4.029,40.661,40.661,0,0,0-.565-8.069,18.83,18.83,0,0,1-.027-2.376,1.254,1.254,0,0,0-.858-.948C93,39.622,92.42,39.052,90.747,39.44Z" fill="#272c32"/>
        <path id="Path_38863" data-name="Path 38863" d="M44.889,62.859c-.28-.142,1.387,4.447.708,9.882-.219,1.583-.528,3.918-.708,5.556-1.039.377-2.723-.622-3.406-1.188a14.493,14.493,0,0,1-4.114-5.9,24.632,24.632,0,0,1-1.4-6.532c-.09-1.406-.15-3.64-.212-5.047a11.37,11.37,0,0,1,1.018-4.114c.618-1.68,2.971-2.709,5.387-2.583.39,1.678,1.145,4.242,1.442,5.721C43.849,59.877,44.646,61.54,44.889,62.859Z" fill="#6a4136"/>
        <path id="Path_38864" data-name="Path 38864" d="M98.192,52.939c1.869-.366,4.641,1.388,5.311,3.257a33.1,33.1,0,0,1,.73,4.646c.5,3.881-.568,6.786-1.737,10.459a15.359,15.359,0,0,1-3.965,6.3,4.525,4.525,0,0,1-3.426.857c-.109-.713-1.031-2.441-1.1-3.131-.115-1.088.331-3.162.3-4.254-.052-1.968,2.009-9.317,1.624-8.986C96.413,59.441,97.619,55.715,98.192,52.939Z" fill="#6a4136"/>
        <path id="Path_38865" data-name="Path 38865" d="M61.094,84.5a.991.991,0,0,1,.541-.21,49.776,49.776,0,0,0,5.082-.849,16.671,16.671,0,0,1,8.214.237,13.91,13.91,0,0,0,2.667.533c.69.078,1.173.172,1.376.431a12.014,12.014,0,0,1-6.122,1.94,24.045,24.045,0,0,1-7.232-.471A13.423,13.423,0,0,1,61.094,84.5Z" fill="#4f2e25"/>
        <path id="Path_38866" data-name="Path 38866" d="M72.95,65.777a9.558,9.558,0,0,0,2.569,4.251,7.386,7.386,0,0,1,2.6,5.707,4.313,4.313,0,0,1-1.828,3.52,7.254,7.254,0,0,1-6.364,1.177,14.534,14.534,0,0,1-4.594-2.05,1.008,1.008,0,0,1-.22-.25.123.123,0,0,1,.091-.195c.436-.031.708.253,1.017.424A8.706,8.706,0,0,0,72.982,79.5c1.73-.489,3.19-1.428,3.522-3.377a5.228,5.228,0,0,0-.182-2.009,5.9,5.9,0,0,0-1.695-2.9,10.7,10.7,0,0,1-3.1-7.336,26.648,26.648,0,0,1,.015-4.59c.172-1.7.585-3.382.906-5.068a.5.5,0,0,1,.178-.289.119.119,0,0,1,.191.107c-.2,1.907-.446,3.81-.587,5.722A20.454,20.454,0,0,0,72.95,65.777Z" fill="#42231b"/>
        <path id="Path_38867" data-name="Path 38867" d="M61.052,84.471a14.019,14.019,0,0,0,4.566,1.637,24.015,24.015,0,0,0,7.232.471,11.232,11.232,0,0,0,5.7-1.767c.94-.612,1.849-1.141,2.742-1.7.382-.238.729-.53,1.24-.908a1.73,1.73,0,0,1-.653,1.4,13.276,13.276,0,0,1-7.13,3.864,20.613,20.613,0,0,1-11.908-.828,15.511,15.511,0,0,1-4.64-2.948.987.987,0,0,1-.412-1.123C58.88,83.218,59.925,83.837,61.052,84.471Z" fill="#090706"/>
        <path id="Path_38868" data-name="Path 38868" d="M59.859,74.318a7.241,7.241,0,0,1,1.573-1.17.452.452,0,0,1,.3-.071.331.331,0,0,1,.209.129.269.269,0,0,1,.041.208c-.024.142-.215.272-.277.318a3.919,3.919,0,0,0-1.365,1.732c-.338.84-.331,1.518.4,2.045.544.394,1.248.646,1.8.968a.156.156,0,0,1-.055.288,3.072,3.072,0,0,1-2.571-.552,2.194,2.194,0,0,1-.98-1.451A2.786,2.786,0,0,1,59.859,74.318Z" fill="#42231b"/>
        <path id="Path_38869" data-name="Path 38869" d="M76.412,92.9c-1.787,2.041-3.86,1.952-6.119,1.114a.084.084,0,0,1-.036-.129c.28-.351.672-.2.984-.195a6.193,6.193,0,0,0,5.588-3.078l0,0a.266.266,0,0,1,.478.059C77.468,91.144,77.274,91.486,76.412,92.9Z" fill="#42231b"/>
        <path id="Path_38870" data-name="Path 38870" d="M79.523,72.463c.022-.015.076,0,.1.01a3.312,3.312,0,0,1,1.969,2.349A2.744,2.744,0,0,1,79.432,78.2c-.078,0-.065-.07-.042-.1a4.42,4.42,0,0,0,.2-5.119.824.824,0,0,1-.117-.386C79.476,72.5,79.489,72.486,79.523,72.463Z" fill="#42231b"/>
        <path id="Path_38871" data-name="Path 38871" d="M91.078,28.834c-.1-.027-.2-.059-.3-.091a.62.62,0,0,1,.282.03C91.09,28.819,91.082,28.829,91.078,28.834Z" fill="#090706"/>
        <path id="Path_38872" data-name="Path 38872" d="M86.643,46.925a9.461,9.461,0,0,0,.83.784c1.143.811,1.157,1.929.914,3.305a18.736,18.736,0,0,0-6.97-2.365,24.044,24.044,0,0,0-7.458.762,14.049,14.049,0,0,1-.025-3.35c.017-.184.345-.43.571-.491a17.135,17.135,0,0,1,2.959-.671,14.946,14.946,0,0,1,6.035.563A27.155,27.155,0,0,1,86.643,46.925Z" fill="#262b31"/>
        <path id="Path_38873" data-name="Path 38873" d="M52.581,47.638a9.949,9.949,0,0,1,5.073-2.48,15.832,15.832,0,0,1,7.437.2c1.174.323,1.213.359,1.221,1.609,0,.737,0,1.473,0,2.374a11.869,11.869,0,0,1-1.344-.186,18.526,18.526,0,0,0-6.292-.487,14.152,14.152,0,0,0-6.4,2.106c-.192.12-.4.21-.677.352A3.211,3.211,0,0,1,52.581,47.638Z" fill="#262b31"/>
        <g id="Group_117484" data-name="Group 117484">
          <path id="Path_38874" data-name="Path 38874" d="M54.84,59.948a6.061,6.061,0,0,1-.554-3.619,1.988,1.988,0,0,1,.153-.622A6.662,6.662,0,0,1,58.226,53.2c2.6-.688,6.074-.067,7.422,2.606.494,1.407.022,2.658-.275,3.987a5.449,5.449,0,0,1-3.48,2.283,7.027,7.027,0,0,1-6.446-1.613m8.18-3.993a2.545,2.545,0,0,0-2.751-1.381,2.448,2.448,0,0,0-2.124,1.939,2.552,2.552,0,0,0,1.138,2.928,2,2,0,0,0,1.592.442C63.409,59.972,64.242,58.557,63.627,56.469Z" fill="#f5f7f7"/>
          <g id="Group_117482" data-name="Group 117482">
            <path id="Path_38875" data-name="Path 38875" d="M65.692,58.552a.288.288,0,0,1,0-.1,4.615,4.615,0,0,0-.328-2.932c-1.16-2.431-4.667-2.98-7.137-2.327a6.593,6.593,0,0,0-3.1,1.725,2.773,2.773,0,0,0-.829,2,5.337,5.337,0,0,0,.828,3.152c-.012.014-.341.2-.431.128a9.482,9.482,0,0,1-.533-1.3,19.923,19.923,0,0,1-.244-2.236,4.422,4.422,0,0,1,2.75-4.447,7.054,7.054,0,0,1,7.556.495,3.876,3.876,0,0,1,1.75,2.823c.35,2.27-.053,2.935-.11,3.09A.142.142,0,0,1,65.692,58.552Z" fill="#090706"/>
            <path id="Path_38876" data-name="Path 38876" d="M54.694,60.2c.232-.248.3-.341.431-.128a2.01,2.01,0,0,0,.321.388,7.027,7.027,0,0,0,6.446,1.613,5.677,5.677,0,0,0,3.018-1.7,4.406,4.406,0,0,0,.791-2c.047-.03.3-.194.276-.048s-.1.492-.137.686a8.965,8.965,0,0,1-.422,1.276,1.9,1.9,0,0,1-.273.474c-2.712,3.478-8.319,2.744-10.208-.189C54.875,60.468,54.8,60.375,54.694,60.2Z" fill="#0f0d0c"/>
          </g>
          <path id="Path_38877" data-name="Path 38877" d="M63.666,56.552c.576,2.005-.257,3.419-2.184,3.844a1.993,1.993,0,0,1-1.592-.442,2.553,2.553,0,0,1-1.138-2.928,2.449,2.449,0,0,1,2.124-1.939,2.577,2.577,0,0,1,2.79,1.465m-1.089.621c.1-.4.138-.842-.349-.938a1.345,1.345,0,0,0-1.024.225c-.145.128-.09.69.072.916.282.393.728.35,1.12.059C62.428,57.412,62.453,57.383,62.577,57.173Z" fill="#090706"/>
          <path id="Path_38878" data-name="Path 38878" d="M74.844,60.185a19.621,19.621,0,0,1-.631-2.244,3.828,3.828,0,0,1,1.672-3.879c2.707-1.966,7.107-1.173,9.1.873a4.1,4.1,0,0,1-.113,5.267c-2.714,2.807-7.563,2.749-9.943-.014-.076-.02-.1.006-.082,0M81.4,57.333a6.505,6.505,0,0,0-.361-.986,2.618,2.618,0,0,0-4.876,1.409,2.6,2.6,0,0,0,2.091,2.5A2.678,2.678,0,0,0,81.4,57.333Z" fill="#f5f7f7"/>
          <path id="Path_38879" data-name="Path 38879" d="M62.529,57.265a.581.581,0,0,1-.132.17c-.392.292-.838.334-1.12-.059-.162-.226-.218-.789-.072-.916a1.345,1.345,0,0,1,1.024-.225C62.715,56.331,62.673,56.777,62.529,57.265Z" fill="#dde6e6"/>
          <path id="Path_38880" data-name="Path 38880" d="M81.409,57.428a2.659,2.659,0,0,1-3.152,2.831,2.6,2.6,0,0,1-2.091-2.5,2.618,2.618,0,0,1,4.876-1.409,5.372,5.372,0,0,1,.367,1.082m-1.643.311c.063-.045.147-.077.185-.138.377-.6.335-1.007-.12-1.285a.782.782,0,0,0-1.1.293c-.272.459-.088.893.524,1.185C79.346,57.84,79.48,57.8,79.766,57.739Z" fill="#0d0a08"/>
          <path id="Path_38881" data-name="Path 38881" d="M79.681,57.77c-.2.031-.335.07-.429.025-.611-.293-.795-.726-.524-1.185a.782.782,0,0,1,1.1-.293c.455.277.5.688.12,1.285C79.913,57.662,79.829,57.693,79.681,57.77Z" fill="#dde6e6"/>
          <g id="Group_117483" data-name="Group 117483">
            <path id="Path_38882" data-name="Path 38882" d="M74.173,58.589c-.057-.155-.461-.82-.11-3.09a3.876,3.876,0,0,1,1.75-2.823,7.054,7.054,0,0,1,7.556-.495,4.419,4.419,0,0,1,2.75,4.447,20.177,20.177,0,0,1-.244,2.236,9.533,9.533,0,0,1-.533,1.3c-.09.071-.418-.114-.431-.128a5.33,5.33,0,0,0,.828-3.152,2.777,2.777,0,0,0-.829-2,6.61,6.61,0,0,0-3.1-1.725c-2.471-.653-5.977-.1-7.137,2.327a4.615,4.615,0,0,0-.328,2.932.359.359,0,0,1,0,.1A.143.143,0,0,1,74.173,58.589Z" fill="#090706"/>
            <path id="Path_38883" data-name="Path 38883" d="M85.1,60.531c-1.889,2.933-7.5,3.668-10.208.189a1.868,1.868,0,0,1-.273-.474,8.964,8.964,0,0,1-.422-1.276c-.043-.194-.114-.532-.137-.686s.229.019.276.048a4.394,4.394,0,0,0,.791,2,5.677,5.677,0,0,0,3.018,1.7,7.027,7.027,0,0,0,6.446-1.613,2.041,2.041,0,0,0,.321-.388c.13-.213.2-.12.431.128C85.234,60.34,85.161,60.433,85.1,60.531Z" fill="#0f0d0c"/>
          </g>
        </g>
        <path id="Path_38884" data-name="Path 38884" d="M44.572,64.033c.282.839.514,1.262.815,2.205.473,0,.674.389,1.211.494.348,2.783-.24,5.552-.367,8.209-.088,1.834-.337,3.66-.413,5.494-.075,1.8.016,3.615-.033,5.421a23.693,23.693,0,0,0,1.707,9.419,19.738,19.738,0,0,0,3.568,5.917,16.053,16.053,0,0,0,6.881,4.355,43.1,43.1,0,0,0,8.8,2.007,27,27,0,0,0,4.1.237c1.125-.022,2.244-.291,3.37-.418a35.329,35.329,0,0,0,8.979-2.217,15.536,15.536,0,0,0,8.386-7.684,26.339,26.339,0,0,0,2.8-11.774c.035-2.033-.094-4.072-.217-6.1s-.282-4.058-.517-6.077a23.569,23.569,0,0,1-.12-6.761c.116.018.234.027.347.055,1.03.26,1.178.2,1.525-.824.425-1.255.809-2.525,1.346-3.881.446-.39.735-.719,1.076-.978a9.5,9.5,0,0,1,1.55-1.029,1.253,1.253,0,0,1,1.563.245,4.476,4.476,0,0,0-3.068,1.977,15.432,15.432,0,0,0-2.274,5.13c-.115.4-.171.816-.254,1.225a2.337,2.337,0,0,0,1.084-.47,2.328,2.328,0,0,1,3,.177c-.278.022-.5.046-.725.055A3.77,3.77,0,0,0,95.107,72.2c.029,1.092.156,2.182.272,3.269.073.69.205,1.375.314,2.088A3.2,3.2,0,0,0,98.462,76.5a12.216,12.216,0,0,0,3.472-5.642,25.962,25.962,0,0,0,1.41-11.3,14.83,14.83,0,0,0-.694-3.068,4.213,4.213,0,0,0-4.465-2.754c.105-.52.209-1.041.378-1.621a5.731,5.731,0,0,1,5.878,4.243A15.188,15.188,0,0,1,105.2,60.5a28.11,28.11,0,0,1-1.6,10.739,21.6,21.6,0,0,1-1.971,4.124,7.086,7.086,0,0,1-5.578,3.817c0,2.275.022,4.546,0,6.817a24.937,24.937,0,0,1-5.28,15.746,4.515,4.515,0,0,0-1.094,3.4c.187,2.566.31,5.137.458,7.668,2.5.551,5.191,1.177,7.634,1.749a7.99,7.99,0,0,1-.236,2.143c-2.337-.419-4.941-1-7.235-1.3.243,3.211.159,5.758-.258,6.546-.141-.355-.274-.626-.359-.912a41.844,41.844,0,0,1-1.392-8.765c-.158-2.1-.191-4.216-.273-6.421-.012-.468-.03-.839-.055-1.343-.393.178-.637.28-.873.4-1.191.592-2.358,1.237-3.573,1.774a39.34,39.34,0,0,1-10.682,2.544,15.057,15.057,0,0,1-2.8.2,41.871,41.871,0,0,1-4.772-.468,34.045,34.045,0,0,1-11.744-3.747c-.433-.238-.794-.438-1.312-.726-.171,2.628-.4,5.07-.471,7.517a40.615,40.615,0,0,1-1,7.772c-.158.7-.374,1.384-.563,2.076l-.291-.03c-.191-2.1.04-4.228-.12-6.388-.3.029-.489.032-.673.068-2.1.419-4.522.915-6.626,1.338-.1-.7-.185-1.428-.277-2.224a27.658,27.658,0,0,1,3.223-.891c1.03-.225,2.08-.36,3.112-.577A12.758,12.758,0,0,0,49.9,112.7a1.316,1.316,0,0,0,.115-.3c.1-2.936.188-5.871.289-8.807a1.685,1.685,0,0,0-.449-1.278,22,22,0,0,1-4.969-9.741,22.456,22.456,0,0,1-.751-5.449c.009-1.4-.174-2.81-.185-4.216-.007-1.012.136-2.025.2-3.038a2.476,2.476,0,0,0-.054-.528,30.567,30.567,0,0,1-3.025-1.2,8.025,8.025,0,0,1-3.026-3.37,24.6,24.6,0,0,1-2.631-7.628,36.516,36.516,0,0,1-.456-7.253,9.754,9.754,0,0,1,1.06-4.411,5.622,5.622,0,0,1,5.548-3.368c.076.592.195.9.269,1.573a4.394,4.394,0,0,0-4.47,2.954,9.989,9.989,0,0,0-.744,3.9c.062,1.407.134,2.814.225,4.22a24.565,24.565,0,0,0,1.46,6.514,11.923,11.923,0,0,0,3.613,5.414c.682.566,1.377,1.174,2.416.8.181-1.638.323-3.232.541-4.815a3.64,3.64,0,0,0-1.319-3.333,3.042,3.042,0,0,0-2.1-.9c-.21,0-.419-.048-.716-.085,1.269-.983,1.84-.883,4.15.706a20.405,20.405,0,0,0-2.135-5.9c-.286-.468-.6-.916-.917-1.368A5.172,5.172,0,0,0,39.2,60.2a3.058,3.058,0,0,1,1.348-.138,3.574,3.574,0,0,1,2.06,1.281c.249.278,1.091.87,1.318,1.17A5.214,5.214,0,0,1,44.572,64.033Z" fill="#40221a"/>
        <path id="Path_38885" data-name="Path 38885" d="M41.56,52.171q-.207-2.212-.413-4.425c-.018-.195-.049-.389-.054-.585-.082-2.858-.206-5.715-.214-8.573a2.692,2.692,0,0,0-.986-2.363A4.1,4.1,0,0,1,38.5,34.1a5.338,5.338,0,0,1,.969-4.657,5.545,5.545,0,0,1,1.752-1.678,1.483,1.483,0,0,0,.819-1.622,4.227,4.227,0,0,1,.865-2.86,4.142,4.142,0,0,1,4.254-1.807c.638.092.848-.244.993-.734a4.891,4.891,0,0,1,2.22-2.792,5.778,5.778,0,0,1,6.219-.167c.1.055.209.093.338.149.636-.52,1.3-1,1.891-1.56a6.444,6.444,0,0,1,2.844-1.342,6,6,0,0,1,4.122.155,8.107,8.107,0,0,1,1.854,1.192c.469.388.79.5,1.311.069a24.514,24.514,0,0,1,2.377-1.7,9.307,9.307,0,0,1,4.89-1.45,6.972,6.972,0,0,1,7.131,5.145,2.105,2.105,0,0,0,.285.462c.4-.2.754-.425,1.137-.574A8.134,8.134,0,0,1,93.7,20.046,7.915,7.915,0,0,1,96.033,25.3c.084.956.087.937,1.021,1.236a6.665,6.665,0,0,1,5.037,5.616,4.608,4.608,0,0,1-1.907,4.749c-.227.155-.444.324-.659.495-.058.046-.092.124-.049.063.034,1.606.137,3.091.078,4.57-.083,2.1-.287,4.2-.437,6.307-.086,1.208-.169,2.416-.316,3.789-.168.686-.272,1.206-.391,1.822-.573,2.776-1.133,5.456-1.753,8.2-.463,1.323-.847,2.592-1.272,3.847-.347,1.025-.5,1.226-1.525.965A.682.682,0,0,1,93.5,66.8c.037-.882.109-1.8.134-2.585.09-2.824.264-5.649.221-8.471-.064-4.273-.268-8.545-.45-12.815a23.137,23.137,0,0,0-.377-2.5,2.857,2.857,0,0,0-.5.092,10.766,10.766,0,0,1-5.994.645,24.507,24.507,0,0,1-6.63-1.969c-.932-.421-1.741-.738-2.371.407-.086.157-.3.25-.46.359a9.545,9.545,0,0,1-7.437,1.256,6.167,6.167,0,0,1-2.849-1.336,5.9,5.9,0,0,1-.806-1.027c-4.206,2.086-7.571,1.127-10.475-2.141a7.054,7.054,0,0,1-6.719,1.23c-.164.539-.3.944-.411,1.354a45.434,45.434,0,0,0-1.339,9.174c-.217,3.207-.232,6.43-.267,9.646-.018,1.684.16,3.369.158,5.054,0,1.2.346,2.575-.357,3.739-.512.006-.928-.135-1.4-.135-.3-.943-.561-1.79-.844-2.629-.183-.543-.4-1.075-.617-1.68a2.512,2.512,0,0,0-.263-.388c0,.008.014.006.006-.1-.243-1.319-.47-2.539-.715-3.756-.3-1.48-.608-2.956-.916-4.53-.089-.572-.176-1.047-.263-1.521m49.695-23.33a8.069,8.069,0,0,1,4.415,5.226,5.715,5.715,0,0,1-.9,4.823,2.016,2.016,0,0,0-.346,1.069,13.363,13.363,0,0,0,.234,1.976,48.159,48.159,0,0,1,.685,8.77,19.631,19.631,0,0,0,.055,3.06,12.874,12.874,0,0,1,0,3.62,19.852,19.852,0,0,0-.025,2.761,75.423,75.423,0,0,0,2.2-24.039c.278-.081.566-.164.853-.249a2.6,2.6,0,0,0,1.845-1.948A4.425,4.425,0,0,0,99.2,29.772a5.8,5.8,0,0,0-4.294-1.88c-.367-.036-.736-.046-1.2-.074.133-.464.233-.757.3-1.058a5.369,5.369,0,0,0-.536-4.2,8.047,8.047,0,0,0-1.392-1.582,5.857,5.857,0,0,0-5.789-1.364,5.6,5.6,0,0,0-2.571,1.581,6.1,6.1,0,0,1-1.823,1.554c0-1.006-.032-1.818.006-2.626a5.05,5.05,0,0,0-3.527-4.772,7.588,7.588,0,0,0-3.728-.08A10.153,10.153,0,0,0,68.5,19.514c-.207.293-.473.546-.853.978-.182-.658-.3-1.064-.406-1.472a3.024,3.024,0,0,0-2.6-2.409,6.552,6.552,0,0,0-4.53.864,4.269,4.269,0,0,0-2.1,2.847,6.4,6.4,0,0,1-.434,1.038,7.941,7.941,0,0,1-.663-.873c-1.27-2.334-4.666-2.4-6.466-.431a2.468,2.468,0,0,0-.693,2.688,19.87,19.87,0,0,1,.521,2.2c-.829-.544-1.443-.925-2.033-1.339a2.922,2.922,0,0,0-2.7-.29,2.877,2.877,0,0,0-1.805,3.417c.134.643.362,1.266.563,1.949a1.4,1.4,0,0,1-.465.129A3.025,3.025,0,0,0,41.087,30.1a3.506,3.506,0,0,0,.828,5.6,1.462,1.462,0,0,1,.827,1.5c-.034,2.082-.047,4.166,0,6.248.041,1.958.08,3.922.272,5.869.222,2.254.6,4.493.934,6.734.109.734.283,1.459.448,2.184s.353,1.429.531,2.143c-.551-8.777.15-17.339,3.607-25.744a8.806,8.806,0,0,1,.353.938,1.361,1.361,0,0,0,1.192,1.1,5.123,5.123,0,0,0,4.347-1.255c.592-.447,1.175-.906,1.78-1.374a1.37,1.37,0,0,1,.237.442,5.252,5.252,0,0,0,4.085,3.674c2.546.719,3.97.07,5.339-2.276.3-.508.64-.989.962-1.482a9.308,9.308,0,0,1,.19,2.444,2.152,2.152,0,0,0,1.225,2.117,7.774,7.774,0,0,0,7.541-.1A4.174,4.174,0,0,0,77.559,36.4c.366.159.678.305,1,.433,1.857.739,3.686,1.562,5.581,2.187a12.1,12.1,0,0,0,6.6.423A4.632,4.632,0,0,0,94.3,36.494a5.29,5.29,0,0,0-1.148-5.472c-.638-.774-1.385-1.459-2.073-2.193A.518.518,0,0,1,91.255,28.841Z" fill="#090706"/>
        <path id="Path_38886" data-name="Path 38886" d="M75.1,50.3c-.8.233-1.506.446-2.288.682a4.785,4.785,0,0,1-.124-.729c0-1.454.05-2.908.025-4.361a1.112,1.112,0,0,1,.867-1.211,14.727,14.727,0,0,1,12.089.678,8.538,8.538,0,0,1,3.117,2.81,1.522,1.522,0,0,1,.319.622c.119,1.233.2,2.469.311,3.966-4.489-3.17-9.238-3.564-14.316-2.457m11.475-3.426A29.964,29.964,0,0,0,83.5,45.463a14.928,14.928,0,0,0-6.035-.563,17.322,17.322,0,0,0-2.959.671c-.226.061-.554.307-.571.491a14.048,14.048,0,0,0,.025,3.35,24.017,24.017,0,0,1,7.458-.762,18.736,18.736,0,0,1,6.97,2.365c.244-1.377.229-2.494-.914-3.305C87.189,47.507,86.962,47.224,86.576,46.872Z" fill="#0d0a08"/>
        <path id="Path_38887" data-name="Path 38887" d="M54.219,45.481a12.855,12.855,0,0,1,8.463-1.62c1.311.195,2.6.539,3.9.841a.794.794,0,0,1,.7.815c.044,1.607.126,3.212.182,4.818a3.613,3.613,0,0,1-.113.647c-5.716-1.882-11.216-1.909-16.357,1.563a5.425,5.425,0,0,1,.84-5.045,26.9,26.9,0,0,1,2.394-2.019M52.52,47.7a3.163,3.163,0,0,0-.924,3.43c.275-.142.485-.233.677-.352a14.144,14.144,0,0,1,6.4-2.106,18.5,18.5,0,0,1,6.292.487,11.646,11.646,0,0,0,1.344.186c0-.9,0-1.637,0-2.374-.008-1.25-.048-1.286-1.221-1.609a15.832,15.832,0,0,0-7.437-.2A9.99,9.99,0,0,0,52.52,47.7Z" fill="#0d0a08"/>
        <g id="Group_117485" data-name="Group 117485">
          <path id="Path_38888" data-name="Path 38888" d="M26.322,121.891a32.706,32.706,0,0,1,7.877-4.032c1.853-.643,4.834-1.38,6.7-1.969a5.494,5.494,0,0,1,.588-.135.229.229,0,0,1,.265.17c.365,1.5,1.175,4.8,1.562,6.237a24.539,24.539,0,0,0,8.2,13.125c3.767,3.221,7.8,4.727,12.7,5.651a26.55,26.55,0,0,0,6.36.369A29.857,29.857,0,0,0,82.089,139a26.243,26.243,0,0,0,9.346-6.556,25.445,25.445,0,0,0,4.812-8.718c.814-2.326,1.5-4.769,2.232-7.28a10.507,10.507,0,0,1,2.232-.01c1.226.377,2.8.46,4.115.9,1.452.481,3.33,1.7,4.743,2.279a45.211,45.211,0,0,1,4.321,1.476,8.327,8.327,0,0,1,2.894.238,4.471,4.471,0,0,1,.982-.1,15.925,15.925,0,0,1,12.419,7.1,40.7,40.7,0,0,1,4.65,9.233c2.045,5.476,3.831,12.24,5.768,17.755a103.63,103.63,0,0,0,5.109,12.4c.813,1.61,1.74,3.163,2.621,4.739.393.7.4.821-.2,1.268a49.27,49.27,0,0,1-12.849,7.064c-6.875,2.588-13.419,3.377-13.734,2.877-.059-.094-.241-.042-.253-.153-.259-2.449.043-3.526.034-6.917-.018-3.31.122-3.834.23-6.251-.012-2.578.184-3.884.186-4.965,0-3.155.013-4.209,0-7.086a6.848,6.848,0,0,0-.139-1.088.225.225,0,0,0-.279-.182c-.415.118-.469.44-.506.726-.256,1.979-.568,3.954-.712,5.942-.23,3.165-.062,6.386-.592,9.493a62.5,62.5,0,0,0-.371,8.058c-.141,3.332-.167,6.669-.25,10q-.109,4.353-.236,8.707c-.07,2.391-.155,4.781-.234,7.172s-.155,4.782-.238,7.173c-.075,2.155-.176,4.31-.232,6.466-.083,3.177-.184,6.354-.186,9.532,0,2.273.114,4.548.232,6.819s.25,4.537.471,6.8c.328,3.347.7,6.692,1.127,10.028.519,4.035,1.11,8.06,1.692,12.087.168,1.161.42,2.31.61,3.468.061.37.069.749.1,1.161a.228.228,0,0,1-.14.225c-.679.283-1.306.571-1.955.8a105.921,105.921,0,0,1-16.6,4.32c-3.122.541-6.244,1.087-9.376,1.565-1.662.254-3.344.377-5.019.543-2.3.228-4.6.441-6.893.66-.117.011-.235.018-.353.024-6.239.338-12.485.335-18.727.207-2.97-.061-5.937-.38-8.9-.648-3.156-.286-6.322-.538-9.453-1.008-3.868-.581-7.714-1.324-11.551-2.086a96.138,96.138,0,0,1-13.35-3.771c-.37-.131-.738-.267-1.1-.4-.481-.18-.6-.481-.51-1.013.6-3.468,1.2-6.939,1.731-10.42.324-2.126.529-4.271.779-6.408.311-2.666.62-5.333.91-8,.1-.951.179-1.9.232-2.859.106-1.916.228-3.832.263-5.75.1-5.3.191-10.6.209-15.9.009-2.587-.149-5.174-.237-7.761-.07-2.038-.118-4.077-.232-6.112s-.3-4.054-.448-6.081c-.082-1.133-.173-2.266-.214-3.4-.04-1.1-.01-2.2-.028-3.3-.082-5.1-.158-10.207-.26-15.309-.048-2.392-.123-4.784-.238-7.173-.121-2.5-.262-5.008-.474-7.506-.172-2.026-.443-4.045-.716-6.061a3.189,3.189,0,0,0-.418-.961.23.23,0,0,0-.215-.127h0a.224.224,0,0,0-.2.151,3.166,3.166,0,0,0-.267,1c.031,2.274.114,4.547.171,6.821.016.628.035,5.474.233,9.1.217,3.988.443,8.384.339,9.485a.227.227,0,0,1-.211.205,17.963,17.963,0,0,1-5.519-.646c-1.564-.348-3.142-.642-4.688-1.057A45.951,45.951,0,0,1,.1,178.808a47.96,47.96,0,0,1-7.127-4.35c-.486-.356-.976-.707-1.5-1.085a.228.228,0,0,1-.073-.282,7.471,7.471,0,0,1,.358-.706,70.017,70.017,0,0,0,6.2-12.931c1.741-4.795,2.564-9.62,4.281-14.424,1.493-4.176,2.673-8.6,4.691-12.566a21.139,21.139,0,0,1,3.917-5.558c2.579-2.537,5.6-4.7,9.315-4.962.35-.025,1.514-.265,1.862-.271.438-.008,1.833-.274,1.777-.186Z" fill="#f87360"/>
          <path id="Path_38889" data-name="Path 38889" d="M18.421,166.792c0-.629.01-1.258,0-1.886-.057-2.274-.141-4.547-.171-6.821a3.193,3.193,0,0,1,.267-1,.226.226,0,0,1,.2-.151h0a.228.228,0,0,1,.215.127,3.215,3.215,0,0,1,.418.961c.273,2.016.544,4.035.716,6.061.212,2.5.353,5,.474,7.506.115,2.389.19,4.781.238,7.173.1,5.1.178,10.206.26,15.309.018,1.1-.012,2.2.028,3.3.041,1.135.132,2.268.214,3.4.147,2.027.335,4.052.448,6.081s.162,4.074.232,6.112c.088,2.587.246,5.175.237,7.761-.019,5.3-.112,10.6-.209,15.9-.035,1.918-.157,3.834-.263,5.75-.053.955-.128,1.908-.232,2.859-.291,2.668-.6,5.335-.91,8-.249,2.138-.455,4.282-.779,6.408-.53,3.48-1.127,6.951-1.731,10.42-.093.532.029.833.51,1.013q.551.207,1.1.4a96.133,96.133,0,0,0,13.35,3.771c3.838.762,7.684,1.505,11.551,2.086,3.131.471,6.3.722,9.453,1.008,2.962.268,5.929.588,8.9.648,6.242.128,12.488.131,18.727-.207.118-.006.235-.013.353-.024,2.3-.219,4.6-.432,6.893-.66,1.675-.166,3.357-.289,5.019-.543,3.132-.478,6.254-1.024,9.376-1.565a105.95,105.95,0,0,0,16.6-4.32c.649-.225,1.276-.513,1.955-.8a.228.228,0,0,0,.14-.225c-.026-.412-.035-.791-.1-1.161-.191-1.158-.443-2.307-.61-3.468-.581-4.026-1.172-8.052-1.692-12.087-.43-3.336-.8-6.68-1.127-10.028-.221-2.259-.354-4.529-.471-6.8s-.234-4.546-.232-6.819c0-3.177.1-6.355.186-9.532.056-2.156.157-4.31.232-6.466q.125-3.587.238-7.173c.079-2.391.163-4.781.234-7.172q.127-4.353.236-8.707c.083-3.334.11-6.671.25-10a62.5,62.5,0,0,1,.371-8.058c.53-3.107.362-6.329.592-9.493.145-1.988.456-3.963.712-5.942.037-.286.091-.608.506-.726a.225.225,0,0,1,.279.182,6.707,6.707,0,0,1,.139,1.088c.012,2.906,0,5.813-.016,8.923v.012c-.325,5.4-.5,10.811-.452,16.193a.229.229,0,0,0,.156.214,4.677,4.677,0,0,0,2.391-.107c.961-.132,1.915-.316,3.063-.481a57.91,57.91,0,0,0,8.395-2.259,49.3,49.3,0,0,0,12.849-7.064c.6-.447.594-.564.2-1.268-.881-1.576-1.809-3.128-2.621-4.739a103.56,103.56,0,0,1-5.109-12.4c-1.937-5.516-3.869-11.034-5.914-16.51a40.745,40.745,0,0,0-4.65-9.233,15.929,15.929,0,0,0-12.419-7.1,4.416,4.416,0,0,0-.982.1.228.228,0,0,0-.159.344c.8,1.292,2.043,2.122,2.563,3.451a.228.228,0,0,1-.309.291c-1.186-.582-2.088-1.567-3.2-2.238-1.308-.792-2.593-1.629-3.937-2.356a42.779,42.779,0,0,0-4.029-1.932c-1.412-.583-2.873-1.054-4.326-1.535-1.317-.436-2.649-.828-3.875-1.205a.228.228,0,0,0-.284.154c-.736,2.511-1.347,4.908-2.162,7.234a24.22,24.22,0,0,1-4.916,8.378,28.556,28.556,0,0,1-9.646,7,30.745,30.745,0,0,1-18.639,1.878,27.561,27.561,0,0,1-12.974-6.313,26.921,26.921,0,0,1-8.486-13.835c-.387-1.433-.716-2.882-1.081-4.377a.229.229,0,0,0-.265-.17,5.549,5.549,0,0,0-.588.135c-1.871.589-3.753,1.148-5.606,1.791a35.931,35.931,0,0,0-8.332,4.081c-1.464.985-2.912,1.994-4.367,2.992a1.774,1.774,0,0,1-.972.457.229.229,0,0,1-.221-.321C21.5,125,22.972,124.246,23.768,123a.221.221,0,0,0-.032-.277c-.406-.391-.9-.238-1.334-.23-.348.006-.692.146-1.041.171a14.591,14.591,0,0,0-9.334,4.51,21.139,21.139,0,0,0-3.917,5.558,104.092,104.092,0,0,0-5.074,12.288c-1.718,4.8-3.342,9.641-5.083,14.436a69.953,69.953,0,0,1-6.2,12.931,7.473,7.473,0,0,0-.358.706.228.228,0,0,0,.073.282c.524.378,1.014.728,1.5,1.085A47.96,47.96,0,0,0,.1,178.805a45.98,45.98,0,0,0,8.47,3.184c1.546.415,3.124.709,4.876,1.1a21.637,21.637,0,0,0,5.3.606.228.228,0,0,0,.212-.235C18.767,177.885,18.587,172.443,18.421,166.792Zm9.012,109.549c-.725-.2-1.451-.41-2.267-.609a77.905,77.905,0,0,1-9.69-3.4.23.23,0,0,1-.132-.246c.193-1.183.387-2.348.572-3.515.615-3.866,1.292-7.724,1.82-11.6.534-3.914.941-7.846,1.359-11.775.17-1.6.245-3.2.324-4.806.161-3.286.362-6.572.422-9.86.067-3.65.008-7.3-.023-10.955-.009-1.094-.109-2.188-.178-3.5-.036-2.407-.063-4.6-.076-6.885a.148.148,0,0,0,0-.021c-.045-.52-.145-.939-.154-1.36q-.142-7.078-.263-14.156c0-.234-.027-.467-.029-.808-.078-2.214-.168-4.328-.258-6.436a.228.228,0,0,0-.194-.215c-1.774-.263-3.452-.491-5.122-.767A50.942,50.942,0,0,1-.5,181.017c-.485-.236-1.006-.4-1.558-.66l-.017-.009c-.568-.322-1.09-.583-1.611-.842l-.027-.016c-2.322-1.594-4.648-3.183-6.963-4.787-.373-.258-.712-.566-1.1-.889a.228.228,0,0,1-.06-.273,5.074,5.074,0,0,1,.4-.755c3.506-4.9,5.806-10.391,7.847-16,2.345-6.449,4.6-12.931,6.978-19.366A39.882,39.882,0,0,1,7.88,128.5a18.227,18.227,0,0,1,11.731-8.026,13.35,13.35,0,0,1,5.25-.2,4.248,4.248,0,0,0,3.007-.591,51.074,51.074,0,0,1,10.026-4.033c1.39-.412,2.8-.754,4.281-1.037a.229.229,0,0,1,.265.175c.153.707.239,1.346.328,2.062l0,.02c.057.277.127.46.161.65a32.661,32.661,0,0,0,3.22,9.418,24.049,24.049,0,0,0,9.6,9.771,28.368,28.368,0,0,0,17.683,3.465A27.278,27.278,0,0,0,84.3,136.684a24.2,24.2,0,0,0,8.479-7.987,30.032,30.032,0,0,0,2.233-4.26,30.4,30.4,0,0,0,2.2-7.754c.1-.693.183-1.314.263-1.928a.227.227,0,0,1,.274-.193,56.638,56.638,0,0,1,14.671,5.256,4.361,4.361,0,0,0,2.82.456,16.167,16.167,0,0,1,9.153,1.485,20.127,20.127,0,0,1,9.174,8.991,83.518,83.518,0,0,1,5.375,12.533c1.907,5.317,3.713,10.67,5.64,15.98a72.184,72.184,0,0,0,5.3,11.155c.388.68.874,1.3,1.306,1.959.242.367.471.742.722,1.145a.229.229,0,0,1-.049.3,61.524,61.524,0,0,1-8.042,5.593c-.616.316-1.094.566-1.649.845a56.416,56.416,0,0,1-20.678,5.9.226.226,0,0,0-.2.177c-.466,2.182-.183,4.3-.263,6.5-.08,1.749-.181,3.388-.222,5.028-.1,3.794-.161,7.59-.244,11.494-.074,1.554-.148,3-.208,4.443-.013.311.03.624.032.936,0,.458-.007.915-.011,1.373a236.167,236.167,0,0,0,4.425,55.933.227.227,0,0,1-.127.25,75.379,75.379,0,0,1-9.649,3.437l-.014,0c-.764.181-1.444.344-2.293.569-.518.12-.872.152-1.214.238a146.162,146.162,0,0,1-23.652,3.938c-4.221.353-8.449.706-12.68.836-3.882.12-7.774-.052-11.662-.108a129.163,129.163,0,0,1-15.952-1.222c-4.232-.589-8.45-1.283-12.658-2.025-2.506-.446-4.982-1.074-7.473-1.619" fill="#b4433d"/>
        </g>
      </g>
    </g>
  </g>
</svg>
