<?xml version="1.0" encoding="utf-8"?>
<!-- Generator: Adobe Illustrator 27.7.0, SVG Export Plug-In . SVG Version: 6.00 Build 0)  -->
<svg version="1.1" id="Layer_1" xmlns="http://www.w3.org/2000/svg" xmlns:xlink="http://www.w3.org/1999/xlink" x="0px" y="0px"
	 viewBox="0 0 140 140" enable-background="new 0 0 140 140" xml:space="preserve">
<g>
	
		<ellipse id="Ellipse_891_00000139996738736721568710000011837935825610864534_" fill="#F2F2F2" cx="70" cy="70" rx="68.57" ry="68.57"/>
	<g>
		<defs>
			<ellipse id="Ellipse_891_00000005261805718689582690000008305177421134684846_" cx="70" cy="70" rx="68.57" ry="68.57"/>
		</defs>
		<clipPath id="Ellipse_891_00000132801598677962336500000009065105622831467956_">
			<use xlink:href="#Ellipse_891_00000005261805718689582690000008305177421134684846_"  overflow="visible"/>
		</clipPath>
		<g clip-path="url(#Ellipse_891_00000132801598677962336500000009065105622831467956_)">
			<path fill="#6F4539" d="M88.963,106.25c0.089,2.109,0.078,3.955,0.236,6.059c0.222,2.957,7.089,2.183,8.916,3.631
				c-0.266,2.668-1.124,6.888-2.166,9.343c-0.625,1.472-1.381,2.907-2.233,4.26c-2.131,3.382-5.594,5.931-9.031,7.937
				c-3.362,1.963-7.298,3.249-11.177,3.685c-6.279,0.706-12.66-0.273-18.142-3.402c-4.095-2.337-7.861-6.228-10.084-10.448
				c-1.566-2.974-2.88-6.095-3.483-9.395c-0.035-0.192-0.658-2.798-0.715-3.081c2.101-0.518,5.627-0.137,7.732-0.556
				c0.184-0.037,1.078,0.029,1.377,0c0.16,2.16,0.855,0.335,0.934-2.295c0.074-2.447-0.445-12.138-0.274-14.765
				c0.518,0.288,4.856,3.018,5.008,3.27c0.322,0.534,4.381,0.811,5.884,1.701c1.107,0.656,6.017,1.371,7.759,1.247
				c0.224-0.016,6.624-0.931,7.646-0.987c1.583-0.088,6.829-2.306,7.079-2.396c1.583-0.572,2.845-2.773,4.116-3.117
				c0,0,1.154,6.216,0.726,7.547C89.16,104.404,88.807,106.262,88.963,106.25z"/>
			<path fill="#6E4539" d="M94.6,66.555c-0.375,2.363-0.313,4.206-0.051,6.46c0.235,2.019,0.134,4.404,0.257,6.433
				c0.123,2.032,0.549,3.874,0.514,5.907c-0.071,4.118-1.024,8.362-2.928,12.072c-1.858,3.62-5.108,7.773-8.887,9.254
				c-2.893,1.134-5.888,1.87-8.979,2.217c-1.125,0.126-2.244,0.395-3.37,0.418c-1.365,0.027-2.744-0.056-4.098-0.237
				c-2.989-0.4-5.939-0.992-8.795-2.007c-2.629-0.935-5.002-2.238-6.881-4.355c-1.558-1.755-3.902-4.693-4.754-6.853
				c-1.19-3.016-1.794-6.156-1.707-9.419c0.049-1.806-0.083-4.732-0.008-6.536c0.076-1.834,0.335-3.034,0.424-4.868
				c0.128-2.657,0.773-5.414,0.522-8.203c0.582-1.269,0.272-2.564,0.273-3.761c0.002-1.685-0.13-3.473-0.112-5.157
				c0.035-3.217-0.292-6.581-0.075-9.788c0.208-3.083,0.773-5.914,1.608-8.914c0.114-0.41,0.921-1.78,1.085-2.319
				c2.472,0.837,5.017,0.354,7.069-1.122c2.905,3.268,6.202,4.293,10.408,2.207c0.231,0.302,0.995,1.428,1.341,1.721
				c0.822,0.693,1.026,0.362,2.086,0.567c2.634,0.511,5.147,0.276,7.437-1.256c0.163-0.109,0.373-0.202,0.46-0.359
				c0.63-1.145,1.836-0.496,2.768-0.075c2.115,0.955,3.898,1.447,6.213,1.779c2.07,0.297,4.063,0.199,5.994-0.645
				c0.102-0.045,0.91,0.258,1.184,0.21c0.132,0.844,0.254,2.184,0.29,3.018c0.182,4.27,0.729,8.568,0.793,12.841
				c0.042,2.822-0.136,5.668-0.227,8.492L94.6,66.555z"/>
			<path fill="#272C32" d="M90.747,39.44c-2.242,0.52-4.462,0.283-6.604-0.423c-1.895-0.624-3.724-1.447-5.581-2.187
				c-0.32-0.127-0.632-0.274-0.997-0.433c-0.409,1.012-0.783,1.961-1.778,2.472c-2.502,1.285-5.018,1.42-7.541,0.102
				c-0.826-0.432-1.26-1.143-1.225-2.117c0.028-0.782,0.006-1.566-0.19-2.444c-0.322,0.493-0.666,0.974-0.962,1.482
				c-1.369,2.346-2.794,2.995-5.339,2.276c-1.937-0.547-3.509-1.57-4.085-3.674c-0.065-0.237-0.238-0.444-0.237-0.442
				c-0.606,0.468-1.188,0.928-1.78,1.374c-1.287,0.971-2.646,1.627-4.347,1.255c-0.677-0.148-1.037-0.462-1.192-1.105
				c-0.065-0.272-0.196-0.528-0.353-0.938c-3.457,8.405-2.773,17.981-3.108,26.733c-0.908,0.274-1.549-0.516-1.713-1.233
				c-0.165-0.725-0.678-3.308-0.788-4.042c-0.334-2.242-0.6-3.707-0.822-5.96c-0.192-1.947-0.302-3.9-0.343-5.858
				c-0.043-2.082,0.086-4.066,0.12-6.149c0.011-0.697-0.489-1.887-1.148-2.261c-2.141-1.215-2.145-4.192-0.497-6.012
				c0.746-0.824,1.026-2.05,2.227-1.884c0.132,0.018,0.374-1.156,0.24-1.798c-0.315-1.509,1.012-3.119,2.381-3.562
				c0.912-0.295,2.075-0.513,2.929,0.086c0.59,0.414,1.116-0.214,0.891-0.822c-0.402-1.084,0.731-2.035,1.422-2.792
				c1.8-1.973,4.847-0.942,6.166-0.154c0.565,0.12,1.139,0.361,1.205,0.046c0.266-1.277,0.93-1.284,2.015-1.947
				c1.401-0.858,3.444-1.553,5.037-1.31c1.369,0.209,2.297,0.592,2.653,1.947c0.107,0.408,1.069,0.562,1.276,0.269
				c1.531-2.167,2.92-2.734,5.507-3.324c1.215-0.277,2.99-0.512,4.231-0.168c1.992,0.552,4.193,2.519,4.096,4.567
				c-0.038,0.808,0.81,1.381,1.31,0.873c0.732-0.745,1.533-0.971,2.552-1.242c2.177-0.58,4.277-0.145,5.943,1.377
				c0.517,0.472,1.172,1.059,1.545,1.645c0.825,1.298,1.467,2.498,1.142,3.962c-0.067,0.301-0.046,1.307,0.32,1.343
				c1.635,0.162,2.828,0.151,3.911,1.511c0.954,1.198,2.54,2.793,2.082,4.399c-0.283,0.991-0.117,2.606-1.108,2.899
				c-0.287,0.085-1.301,1.184-1.578,1.265c0.454,8.184-0.904,15.982-3.022,23.84c-0.981,0.17-1.303-1.212-1.175-2.115
				c0.172-1.219,0.202-2.504,0.034-3.723c-0.138-1.004-0.032-3.009-0.011-4.029c0.059-2.947-0.088-5.165-0.565-8.069
				c-0.107-0.655-0.02-1.716-0.027-2.376c-0.004-0.358-0.483-0.876-0.858-0.948C93.002,39.622,92.42,39.052,90.747,39.44z"/>
			<path fill="#6A4136" d="M44.889,62.859c-0.28-0.142,1.387,4.447,0.708,9.882c-0.219,1.583-0.528,3.918-0.708,5.556
				c-1.039,0.377-2.723-0.622-3.406-1.188c-1.74-1.442-3.377-3.781-4.114-5.896c-0.737-2.114-1.255-4.285-1.4-6.532
				c-0.09-1.406-0.15-3.64-0.212-5.047c-0.06-1.357,0.556-2.859,1.018-4.114c0.618-1.68,2.971-2.709,5.387-2.583
				c0.39,1.678,1.145,4.242,1.442,5.721C43.849,59.877,44.646,61.54,44.889,62.859z"/>
			<path fill="#6A4136" d="M98.192,52.939c1.869-0.366,4.641,1.388,5.311,3.257c0.352,0.981,0.595,3.609,0.73,4.646
				c0.504,3.881-0.568,6.786-1.737,10.459c-0.685,2.155-2.235,4.778-3.965,6.301c-0.768,0.676-2.251,1.064-3.426,0.857
				c-0.109-0.713-1.031-2.441-1.104-3.131c-0.115-1.088,0.331-3.162,0.302-4.254c-0.052-1.968,2.009-9.317,1.624-8.986
				C96.413,59.441,97.619,55.715,98.192,52.939z"/>
			<path fill="#4F2E25" d="M61.094,84.498c0.142-0.108,0.312-0.192,0.541-0.21c1.757-0.136,3.393-0.544,5.082-0.849
				c2.759-0.498,5.487-0.636,8.214,0.237c0.858,0.274,1.763,0.431,2.667,0.533c0.69,0.078,1.173,0.172,1.376,0.431
				c-1.717,1.276-4.132,1.8-6.122,1.94c-2.42,0.17-4.856,0.09-7.232-0.471C64.069,85.742,62.453,85.41,61.094,84.498z"/>
			<path fill="#42231B" d="M72.95,65.777c0.523,1.691,1.332,3.071,2.569,4.251c1.606,1.532,2.675,3.385,2.595,5.707
				c-0.05,1.45-0.631,2.656-1.828,3.52c-1.933,1.395-4.069,1.781-6.364,1.177c-1.638-0.431-3.19-1.083-4.594-2.05
				c-0.082-0.056-0.142-0.143-0.22-0.25c-0.056-0.078-0.005-0.188,0.091-0.195c0.436-0.031,0.708,0.253,1.017,0.424
				c2.121,1.177,4.36,1.821,6.766,1.141c1.73-0.489,3.19-1.428,3.522-3.377c0.109-0.642-0.027-1.355-0.182-2.009
				c-0.264-1.115-0.866-2.113-1.695-2.903c-2.099-2.001-2.896-4.563-3.097-7.336c-0.111-1.524-0.138-3.074,0.015-4.59
				c0.172-1.703,0.585-3.382,0.906-5.068c0.02-0.105,0.078-0.204,0.178-0.289c0.08-0.068,0.202,0.003,0.191,0.107
				c-0.204,1.907-0.446,3.81-0.587,5.722C72.087,61.769,72.486,63.734,72.95,65.777z"/>
			<path fill="#090706" d="M61.052,84.471c1.441,0.927,3.017,1.27,4.566,1.637c2.377,0.562,4.812,0.641,7.232,0.471
				c1.99-0.14,3.941-0.574,5.697-1.767c0.94-0.612,1.849-1.141,2.742-1.697c0.382-0.238,0.729-0.53,1.24-0.908
				c0.012,0.763-0.342,1.073-0.653,1.399c-1.961,2.054-4.379,3.306-7.13,3.864c-4.033,0.819-8.023,0.703-11.908-0.828
				c-1.739-0.685-3.256-1.713-4.64-2.948c-0.281-0.251-0.577-0.538-0.412-1.123C58.88,83.218,59.925,83.837,61.052,84.471z"/>
			<path fill="#42231B" d="M59.859,74.318c0.48-0.475,1.009-0.854,1.573-1.17c0.056-0.032,0.179-0.096,0.297-0.071
				c0.1,0.021,0.168,0.071,0.209,0.129c0.041,0.058,0.055,0.129,0.041,0.208c-0.024,0.142-0.215,0.272-0.277,0.318
				c-0.615,0.448-1.077,1.017-1.365,1.732c-0.338,0.84-0.331,1.518,0.396,2.045c0.544,0.394,1.248,0.646,1.802,0.968
				c0.127,0.074,0.089,0.263-0.055,0.288c-1.031,0.176-1.885,0.002-2.571-0.552c-0.319-0.257-0.906-0.7-0.98-1.451
				C58.824,75.69,59.192,74.978,59.859,74.318z"/>
			<path fill="#42231B" d="M76.412,92.899c-1.787,2.041-3.86,1.952-6.119,1.114c-0.052-0.019-0.07-0.086-0.036-0.129
				c0.28-0.351,0.672-0.202,0.984-0.195c0.958,0.021,1.871-0.14,2.745-0.528c1.223-0.543,2.144-1.422,2.843-2.55l0.002-0.004
				c0.119-0.192,0.407-0.155,0.478,0.059C77.468,91.144,77.274,91.486,76.412,92.899z"/>
			<path fill="#42231B" d="M79.523,72.463c0.022-0.015,0.076,0.001,0.098,0.01c1.079,0.423,1.669,1.295,1.969,2.349
				c0.431,1.513-0.572,3.012-2.158,3.377c-0.078,0-0.065-0.07-0.042-0.095c1.256-1.661,1.122-3.373,0.199-5.119
				c-0.052-0.098-0.099-0.177-0.117-0.386C79.476,72.505,79.489,72.486,79.523,72.463z"/>
			<path fill="#090706" d="M91.078,28.834c-0.103-0.027-0.202-0.059-0.3-0.091c0.084-0.006,0.167-0.011,0.282,0.03
				C91.09,28.819,91.082,28.829,91.078,28.834z"/>
			<path fill="#262B31" d="M86.643,46.925c0.32,0.299,0.546,0.582,0.83,0.784c1.143,0.811,1.157,1.929,0.914,3.305
				c-2.263-1.119-4.478-2.196-6.97-2.365c-2.467-0.167-4.901,0.132-7.458,0.762c-0.172-1.202-0.121-2.28-0.025-3.35
				c0.017-0.184,0.345-0.43,0.571-0.491c0.977-0.264,1.96-0.586,2.959-0.671c2.034-0.174,4.082-0.087,6.035,0.563
				C84.563,45.817,85.553,46.395,86.643,46.925z"/>
			<path fill="#262B31" d="M52.581,47.638c1.471-1.406,3.224-2.103,5.073-2.48c2.476-0.505,4.973-0.474,7.437,0.203
				c1.174,0.323,1.213,0.359,1.221,1.609c0.005,0.737,0.001,1.473,0.001,2.374c-0.545-0.073-0.957-0.083-1.344-0.186
				c-2.069-0.55-4.184-0.658-6.292-0.487c-2.282,0.186-4.441,0.881-6.405,2.106c-0.192,0.12-0.401,0.21-0.677,0.352
				C51.235,49.741,51.5,48.621,52.581,47.638z"/>
			<g>
				<path fill="#F5F7F7" d="M54.84,59.948c-0.72-1.125-0.576-2.353-0.554-3.619c0.063-0.266,0.052-0.486,0.153-0.622
					c0.958-1.289,2.226-2.096,3.787-2.508c2.603-0.688,6.074-0.067,7.422,2.606c0.494,1.407,0.022,2.658-0.275,3.987
					c-0.866,1.308-2.093,1.95-3.48,2.283c-2.414,0.579-4.553-0.027-6.446-1.613 M63.627,56.469
					c-0.615-1.062-1.547-1.569-2.751-1.381c-1.094,0.17-1.849,0.831-2.124,1.939c-0.307,1.234,0.1,2.213,1.138,2.928
					c0.475,0.328,0.99,0.574,1.592,0.442C63.409,59.972,64.242,58.557,63.627,56.469z"/>
				<g>
					<path fill="#090706" d="M65.692,58.552c-0.007-0.013-0.004-0.061-0.001-0.095c0.023-0.31,0.366-1.479-0.328-2.932
						c-1.16-2.431-4.667-2.98-7.137-2.327c-1.228,0.324-2.224,0.856-3.099,1.725c-0.533,0.529-0.838,1.247-0.829,1.998
						c0.012,1.098,0.09,1.954,0.828,3.152c-0.012,0.014-0.341,0.199-0.431,0.128c-0.07-0.055-0.503-1.161-0.533-1.302
						c-0.164-0.776-0.244-2.236-0.244-2.236c-0.08-2.23,1.03-3.639,2.75-4.447c2.574-1.208,5.156-1.231,7.556,0.495
						c0.847,0.609,1.52,1.334,1.75,2.823c0.35,2.27-0.053,2.935-0.11,3.09C65.79,58.65,65.723,58.609,65.692,58.552z"/>
					<path fill="#0F0D0C" d="M54.694,60.2c0.232-0.248,0.301-0.341,0.431-0.128c0.073,0.12,0.228,0.31,0.321,0.388
						c1.893,1.586,4.032,2.192,6.446,1.613c1.164-0.279,2.182-0.779,3.018-1.702c0.161-0.178,0.521-0.713,0.791-2.004
						c0.047-0.03,0.297-0.194,0.276-0.048c-0.023,0.153-0.095,0.492-0.137,0.686c-0.117,0.534-0.355,1.099-0.422,1.276
						c-0.059,0.155-0.155,0.322-0.273,0.474c-2.712,3.478-8.319,2.744-10.208-0.189C54.875,60.468,54.802,60.375,54.694,60.2z"/>
				</g>
				<path fill="#090706" d="M63.666,56.552c0.576,2.005-0.257,3.419-2.184,3.844c-0.602,0.133-1.117-0.114-1.592-0.442
					c-1.038-0.716-1.445-1.694-1.138-2.928c0.275-1.108,1.03-1.768,2.124-1.939C62.08,54.901,63.011,55.408,63.666,56.552
					 M62.577,57.173c0.096-0.396,0.138-0.842-0.349-0.938c-0.327-0.064-0.789,0.019-1.024,0.225c-0.145,0.128-0.09,0.69,0.072,0.916
					c0.282,0.393,0.728,0.35,1.12,0.059C62.428,57.412,62.453,57.383,62.577,57.173z"/>
				<path fill="#F5F7F7" d="M74.844,60.185c-0.207-0.753-0.518-1.484-0.631-2.244c-0.239-1.608,0.343-2.913,1.672-3.879
					c2.707-1.966,7.107-1.173,9.097,0.873c1.249,1.284,1.195,3.914-0.113,5.267c-2.714,2.807-7.563,2.749-9.943-0.014
					C74.85,60.168,74.829,60.194,74.844,60.185 M81.403,57.333c-0.118-0.33-0.193-0.684-0.361-0.986
					c-0.578-1.032-1.803-1.523-2.928-1.21c-1.221,0.34-1.979,1.36-1.948,2.619c0.032,1.256,0.872,2.216,2.091,2.504
					C79.553,60.565,81.499,59.611,81.403,57.333z"/>
				<path fill="#DDE6E6" d="M62.529,57.265c-0.076,0.118-0.101,0.148-0.132,0.17c-0.392,0.292-0.838,0.334-1.12-0.059
					c-0.162-0.226-0.218-0.789-0.072-0.916c0.235-0.206,0.697-0.289,1.024-0.225C62.715,56.331,62.673,56.777,62.529,57.265z"/>
				<path fill="#0D0A08" d="M81.409,57.428c0.089,2.183-1.856,3.137-3.152,2.831c-1.219-0.288-2.059-1.248-2.091-2.504
					c-0.032-1.259,0.727-2.279,1.948-2.619c1.125-0.313,2.35,0.178,2.928,1.21C81.21,56.649,81.285,57.003,81.409,57.428
					 M79.766,57.739c0.063-0.045,0.147-0.077,0.185-0.138c0.377-0.596,0.335-1.007-0.12-1.285c-0.391-0.238-0.864-0.113-1.104,0.293
					c-0.272,0.459-0.088,0.893,0.524,1.185C79.346,57.84,79.48,57.801,79.766,57.739z"/>
				<path fill="#DDE6E6" d="M79.681,57.77c-0.201,0.031-0.335,0.07-0.429,0.025c-0.611-0.293-0.795-0.726-0.524-1.185
					c0.24-0.405,0.713-0.531,1.104-0.293c0.455,0.277,0.496,0.688,0.12,1.285C79.913,57.662,79.829,57.693,79.681,57.77z"/>
				<g>
					<path fill="#090706" d="M74.173,58.589c-0.057-0.155-0.461-0.82-0.11-3.09c0.23-1.489,0.903-2.214,1.75-2.823
						c2.4-1.726,4.982-1.703,7.556-0.495c1.721,0.807,2.83,2.216,2.75,4.447c0,0-0.081,1.46-0.244,2.236
						c-0.03,0.14-0.463,1.247-0.533,1.302c-0.09,0.071-0.418-0.114-0.431-0.128c0.739-1.198,0.816-2.054,0.828-3.152
						c0.008-0.751-0.296-1.469-0.829-1.998c-0.875-0.868-1.871-1.4-3.099-1.725c-2.471-0.653-5.977-0.104-7.137,2.327
						c-0.694,1.454-0.351,2.623-0.328,2.932c0.002,0.033,0.005,0.082-0.001,0.095C74.313,58.574,74.246,58.615,74.173,58.589z"/>
					<path fill="#0F0D0C" d="M85.098,60.531c-1.889,2.933-7.496,3.668-10.208,0.189c-0.118-0.151-0.214-0.318-0.273-0.474
						c-0.067-0.177-0.305-0.742-0.422-1.276c-0.043-0.194-0.114-0.532-0.137-0.686c-0.022-0.146,0.229,0.019,0.276,0.048
						c0.269,1.291,0.63,1.826,0.791,2.004c0.836,0.923,1.854,1.423,3.018,1.702c2.414,0.579,4.553-0.027,6.446-1.613
						c0.093-0.078,0.248-0.269,0.321-0.388c0.13-0.213,0.199-0.12,0.431,0.128C85.234,60.34,85.161,60.433,85.098,60.531z"/>
				</g>
			</g>
			<path fill="#40221A" d="M44.572,64.033c0.282,0.839,0.514,1.262,0.815,2.205c0.473,0,0.674,0.389,1.211,0.494
				c0.348,2.783-0.24,5.552-0.367,8.209c-0.088,1.834-0.337,3.66-0.413,5.494c-0.075,1.804,0.016,3.615-0.033,5.421
				c-0.088,3.263,0.516,6.403,1.707,9.419c0.853,2.161,2.011,4.162,3.568,5.917c1.879,2.117,4.252,3.42,6.881,4.355
				c2.856,1.016,5.806,1.608,8.795,2.007c1.354,0.181,2.733,0.264,4.098,0.237c1.125-0.022,2.244-0.291,3.37-0.418
				c3.091-0.347,6.086-1.084,8.979-2.217c3.779-1.481,6.529-4.064,8.386-7.684c1.904-3.71,2.729-7.656,2.799-11.774
				c0.035-2.033-0.094-4.072-0.217-6.104c-0.123-2.029-0.282-4.058-0.517-6.077c-0.262-2.254-0.508-4.499-0.12-6.761
				c0.116,0.018,0.234,0.027,0.347,0.055c1.03,0.26,1.178,0.201,1.525-0.824c0.425-1.255,0.809-2.525,1.346-3.881
				c0.446-0.39,0.735-0.719,1.076-0.978c0.494-0.375,0.997-0.761,1.55-1.029c0.468-0.227,1.014-0.294,1.563,0.245
				c-1.421,0.189-2.331,0.996-3.068,1.977c-1.147,1.526-1.75,3.317-2.274,5.13c-0.115,0.399-0.171,0.816-0.254,1.225
				c0.483-0.059,0.78-0.269,1.084-0.47c1.004-0.664,2.163-0.615,2.998,0.177c-0.278,0.022-0.501,0.046-0.725,0.055
				c-1.967,0.084-3.628,1.796-3.575,3.764c0.029,1.092,0.156,2.182,0.272,3.269c0.073,0.69,0.205,1.375,0.314,2.088
				c1.175,0.207,2.002-0.381,2.769-1.057c1.73-1.523,2.786-3.487,3.472-5.642c1.168-3.673,1.914-7.417,1.41-11.298
				c-0.135-1.037-0.343-2.087-0.694-3.068c-0.671-1.869-2.609-3.024-4.465-2.754c0.105-0.52,0.209-1.041,0.378-1.621
				c2.934-0.065,4.942,1.502,5.878,4.243c0.449,1.314,0.687,2.744,0.754,4.134c0.178,3.672-0.383,7.274-1.601,10.739
				c-0.503,1.431-1.176,2.832-1.971,4.124c-1.515,2.465-2.863,3.302-5.578,3.817c0,2.275,0.022,4.546-0.004,6.817
				c-0.068,5.814-1.623,11.166-5.28,15.746c-0.868,1.087-1.189,2.098-1.094,3.404c0.187,2.566,0.31,5.137,0.458,7.668
				c2.505,0.551,5.191,1.177,7.634,1.749c-0.006,0.747-0.031,1.368-0.236,2.143c-2.337-0.419-4.941-1.004-7.235-1.3
				c0.243,3.211,0.159,5.758-0.258,6.546c-0.141-0.355-0.274-0.626-0.359-0.912c-0.843-2.861-1.171-5.809-1.392-8.765
				c-0.158-2.103-0.191-4.216-0.273-6.421c-0.012-0.468-0.03-0.839-0.055-1.343c-0.393,0.178-0.637,0.28-0.873,0.398
				c-1.191,0.592-2.358,1.237-3.573,1.774c-3.401,1.501-7.04,2.041-10.682,2.544c-0.926,0.128-1.871,0.25-2.798,0.203
				c-1.595-0.08-3.198-0.206-4.772-0.468c-4.062-0.677-8.054-1.614-11.744-3.747c-0.433-0.238-0.794-0.438-1.312-0.726
				c-0.171,2.628-0.397,5.07-0.471,7.517c-0.079,2.63-0.419,5.214-0.998,7.772c-0.158,0.699-0.374,1.384-0.563,2.076
				c-0.097-0.01-0.194-0.02-0.291-0.03c-0.191-2.101,0.04-4.228-0.12-6.388c-0.299,0.029-0.489,0.032-0.673,0.068
				c-2.104,0.419-4.522,0.915-6.626,1.338c-0.095-0.698-0.185-1.428-0.277-2.224c0.972-0.352,2.244-0.677,3.223-0.891
				c1.03-0.225,2.08-0.36,3.112-0.577c0.49-0.103,0.958-0.307,1.383-0.447c0.061-0.154,0.112-0.226,0.115-0.298
				c0.098-2.936,0.188-5.871,0.289-8.807c0.017-0.492-0.101-0.89-0.449-1.278c-2.52-2.802-4.089-6.103-4.969-9.741
				c-0.432-1.787-0.764-3.589-0.751-5.449c0.009-1.405-0.174-2.81-0.185-4.216c-0.007-1.012,0.136-2.025,0.196-3.038
				c0.013-0.225-0.046-0.455-0.054-0.528c-1.091-0.424-2.106-0.719-3.025-1.199c-1.405-0.734-2.262-2.048-3.026-3.37
				c-1.367-2.364-2.098-4.958-2.631-7.628c-0.48-2.407-0.459-4.826-0.456-7.253c0.002-1.557,0.365-3.022,1.06-4.411
				c1.103-2.203,2.923-3.457,5.548-3.368c0.076,0.592,0.195,0.904,0.269,1.573c-2.413-0.03-3.852,1.274-4.47,2.954
				c-0.462,1.255-0.804,2.545-0.744,3.902c0.062,1.407,0.134,2.814,0.225,4.22c0.144,2.247,0.723,4.399,1.46,6.514
				c0.737,2.115,1.873,3.971,3.613,5.414c0.682,0.566,1.377,1.174,2.416,0.797c0.181-1.638,0.323-3.232,0.541-4.815
				c0.191-1.383-0.34-2.413-1.319-3.333c-0.61-0.574-1.274-0.884-2.097-0.904c-0.21-0.005-0.419-0.048-0.716-0.085
				c1.269-0.983,1.84-0.883,4.15,0.706c-0.529-2.13-1.042-4.117-2.135-5.903c-0.286-0.468-0.605-0.916-0.917-1.368
				c-0.63-0.914-1.643-1.184-2.631-1.587c0.464-0.136,0.918-0.209,1.348-0.138c0.847,0.141,1.493,0.648,2.06,1.281
				c0.249,0.278,1.091,0.87,1.318,1.17C44.261,62.96,44.389,63.49,44.572,64.033z"/>
			<path fill="#090706" d="M41.56,52.171c-0.138-1.475-0.275-2.95-0.413-4.425c-0.018-0.195-0.049-0.389-0.054-0.585
				c-0.082-2.858-0.206-5.715-0.214-8.573c-0.003-0.982-0.199-1.745-0.986-2.363c-0.693-0.544-1.141-1.268-1.396-2.128
				c-0.514-1.735,0.031-3.263,0.969-4.657c0.445-0.661,1.068-1.284,1.752-1.678c0.717-0.413,0.875-0.903,0.819-1.622
				c-0.083-1.06,0.246-1.992,0.865-2.86c1.059-1.484,2.486-2.063,4.254-1.807c0.638,0.092,0.848-0.244,0.993-0.734
				c0.364-1.231,1.165-2.135,2.22-2.792c2.025-1.259,4.113-1.33,6.219-0.167c0.1,0.055,0.209,0.093,0.338,0.149
				c0.636-0.52,1.299-1.002,1.891-1.56c0.811-0.763,1.831-1.058,2.844-1.342c1.377-0.386,2.788-0.433,4.122,0.155
				c0.666,0.293,1.29,0.726,1.854,1.192c0.469,0.388,0.79,0.503,1.311,0.069c0.748-0.622,1.559-1.174,2.377-1.703
				c1.483-0.958,3.165-1.411,4.89-1.45c3.274-0.074,6.302,1.85,7.131,5.145c0.035,0.14,0.156,0.257,0.285,0.462
				c0.399-0.204,0.754-0.425,1.137-0.574c3.234-1.262,6.405-0.652,8.929,1.723c1.474,1.386,2.158,3.235,2.336,5.253
				c0.084,0.956,0.087,0.937,1.021,1.236c2.772,0.887,4.628,2.691,5.037,5.616c0.258,1.847-0.213,3.591-1.907,4.749
				c-0.227,0.155-0.444,0.324-0.659,0.495c-0.058,0.046-0.092,0.124-0.049,0.063c0.034,1.606,0.137,3.091,0.078,4.57
				c-0.083,2.105-0.287,4.205-0.437,6.307c-0.086,1.208-0.169,2.416-0.316,3.789c-0.168,0.686-0.272,1.206-0.391,1.822
				c-0.573,2.776-1.133,5.456-1.753,8.196c-0.463,1.323-0.847,2.592-1.272,3.847c-0.347,1.025-0.495,1.226-1.525,0.965
				c-0.113-0.029-0.231-0.037-0.361-0.157c0.037-0.882,0.109-1.804,0.134-2.585c0.09-2.824,0.264-5.649,0.221-8.471
				c-0.064-4.273-0.268-8.545-0.45-12.815c-0.036-0.834-0.246-1.66-0.377-2.504c-0.273,0.048-0.396,0.047-0.498,0.092
				c-1.932,0.844-3.924,0.941-5.994,0.645c-2.315-0.332-4.514-1.014-6.63-1.969c-0.932-0.421-1.741-0.738-2.371,0.407
				c-0.086,0.157-0.297,0.25-0.46,0.359c-2.29,1.532-4.803,1.766-7.437,1.256c-1.06-0.205-2.028-0.642-2.849-1.336
				c-0.346-0.292-0.574-0.724-0.806-1.027c-4.206,2.086-7.571,1.127-10.475-2.141c-2.052,1.476-4.247,2.068-6.719,1.23
				c-0.164,0.539-0.297,0.944-0.411,1.354c-0.835,3.001-1.131,6.091-1.339,9.174c-0.217,3.207-0.232,6.43-0.267,9.646
				c-0.018,1.684,0.16,3.369,0.158,5.054c-0.001,1.198,0.346,2.575-0.357,3.739c-0.512,0.006-0.928-0.135-1.4-0.135
				c-0.301-0.943-0.561-1.79-0.844-2.629c-0.183-0.543-0.399-1.075-0.617-1.68c-0.099-0.177-0.18-0.286-0.263-0.388
				c-0.001,0.008,0.014,0.006,0.006-0.095c-0.243-1.319-0.47-2.539-0.715-3.756c-0.297-1.48-0.608-2.956-0.916-4.53
				C41.734,53.12,41.647,52.645,41.56,52.171 M91.255,28.841c2.226,1.105,3.759,2.835,4.415,5.226
				c0.468,1.707,0.091,3.335-0.901,4.823c-0.202,0.303-0.35,0.711-0.346,1.069c0.008,0.66,0.127,1.321,0.234,1.976
				c0.476,2.904,0.744,5.823,0.685,8.77c-0.021,1.021-0.083,2.056,0.055,3.06c0.168,1.219,0.177,2.401,0.004,3.62
				c-0.128,0.903-0.025,1.839-0.025,2.761c2.118-7.858,2.656-15.855,2.201-24.039c0.278-0.081,0.566-0.164,0.853-0.249
				c0.991-0.293,1.562-0.958,1.845-1.948c0.458-1.605-0.124-2.939-1.078-4.138c-1.083-1.36-2.659-1.719-4.294-1.88
				c-0.367-0.036-0.736-0.046-1.202-0.074c0.133-0.464,0.233-0.757,0.3-1.058c0.325-1.464,0.289-2.905-0.536-4.203
				c-0.373-0.587-0.875-1.111-1.392-1.582c-1.667-1.522-3.613-1.944-5.789-1.364c-1.019,0.272-1.838,0.836-2.571,1.581
				c-0.5,0.508-0.929,1.124-1.823,1.554c0-1.006-0.032-1.818,0.006-2.626c0.096-2.048-1.534-4.22-3.527-4.772
				c-1.241-0.344-2.513-0.357-3.728-0.08c-2.587,0.59-4.611,2.08-6.142,4.246c-0.207,0.293-0.473,0.546-0.853,0.978
				c-0.182-0.658-0.299-1.064-0.406-1.472c-0.356-1.356-1.231-2.2-2.599-2.409c-1.593-0.243-3.13,0.006-4.53,0.864
				c-1.084,0.664-1.831,1.57-2.097,2.847c-0.066,0.316-0.249,0.607-0.434,1.038c-0.296-0.384-0.519-0.607-0.663-0.873
				c-1.27-2.334-4.666-2.404-6.466-0.431c-0.69,0.757-1.095,1.604-0.693,2.688c0.225,0.608,0.307,1.27,0.521,2.2
				c-0.829-0.544-1.443-0.925-2.033-1.339c-0.854-0.599-1.792-0.585-2.704-0.29c-1.369,0.443-2.119,1.907-1.805,3.417
				c0.134,0.643,0.362,1.266,0.563,1.949c-0.185,0.054-0.333,0.147-0.465,0.129c-1.2-0.166-2.002,0.464-2.748,1.287
				c-1.648,1.819-1.313,4.388,0.828,5.603c0.658,0.374,0.838,0.807,0.827,1.504c-0.034,2.082-0.047,4.166-0.004,6.248
				c0.041,1.958,0.08,3.922,0.272,5.869c0.222,2.254,0.6,4.493,0.934,6.734c0.109,0.734,0.283,1.459,0.448,2.184
				c0.163,0.717,0.353,1.429,0.531,2.143c-0.551-8.777,0.15-17.339,3.607-25.744c0.157,0.41,0.288,0.666,0.353,0.938
				c0.155,0.643,0.515,0.957,1.192,1.105c1.701,0.371,3.06-0.284,4.347-1.255c0.592-0.447,1.175-0.906,1.78-1.374
				c-0.001-0.001,0.172,0.206,0.237,0.442c0.576,2.104,2.147,3.127,4.085,3.674c2.546,0.719,3.97,0.07,5.339-2.276
				c0.297-0.508,0.64-0.989,0.962-1.482c0.196,0.878,0.218,1.662,0.19,2.444c-0.034,0.974,0.399,1.686,1.225,2.117
				c2.523,1.318,5.039,1.182,7.541-0.102c0.994-0.511,1.368-1.46,1.778-2.472c0.366,0.159,0.678,0.305,0.997,0.433
				c1.857,0.739,3.686,1.562,5.581,2.187c2.142,0.706,4.362,0.943,6.604,0.423c1.673-0.388,2.947-1.303,3.557-2.946
				c0.758-2.043,0.18-3.863-1.148-5.472c-0.638-0.774-1.385-1.459-2.073-2.193C91.082,28.829,91.09,28.819,91.255,28.841z"/>
			<path fill="#0D0A08" d="M75.101,50.298c-0.801,0.233-1.506,0.446-2.288,0.682c-0.052-0.296-0.124-0.513-0.124-0.729
				c0.004-1.454,0.05-2.908,0.025-4.361c-0.011-0.665,0.27-1.008,0.867-1.211c4.123-1.404,8.164-1.384,12.089,0.678
				c1.275,0.67,2.308,1.62,3.117,2.81c0.131,0.193,0.298,0.406,0.319,0.622c0.119,1.233,0.198,2.469,0.311,3.966
				C84.928,49.585,80.179,49.191,75.101,50.298 M86.576,46.872c-1.024-0.477-2.014-1.054-3.078-1.409
				c-1.953-0.65-4.001-0.738-6.035-0.563c-0.999,0.086-1.982,0.408-2.959,0.671c-0.226,0.061-0.554,0.307-0.571,0.491
				c-0.096,1.069-0.147,2.148,0.025,3.35c2.558-0.63,4.991-0.93,7.458-0.762c2.492,0.169,4.707,1.246,6.97,2.365
				c0.244-1.377,0.229-2.494-0.914-3.305C87.189,47.507,86.962,47.224,86.576,46.872z"/>
			<path fill="#0D0A08" d="M54.219,45.481c2.691-1.524,5.498-2.062,8.463-1.62c1.311,0.195,2.601,0.539,3.895,0.841
				c0.4,0.094,0.683,0.32,0.696,0.815c0.044,1.607,0.126,3.212,0.182,4.818c0.006,0.182-0.062,0.367-0.113,0.647
				c-5.716-1.882-11.216-1.909-16.357,1.563c-0.588-1.514-0.239-3.916,0.84-5.045C52.524,46.771,53.367,46.18,54.219,45.481
				 M52.52,47.699c-1.02,0.922-1.285,2.042-0.924,3.43c0.275-0.142,0.485-0.233,0.677-0.352c1.963-1.225,4.122-1.92,6.405-2.106
				c2.107-0.172,4.223-0.063,6.292,0.487c0.387,0.103,0.799,0.114,1.344,0.186c0-0.901,0.004-1.637-0.001-2.374
				c-0.008-1.25-0.048-1.286-1.221-1.609c-2.463-0.677-4.96-0.708-7.437-0.203C55.805,45.535,54.052,46.232,52.52,47.699z"/>
			<g>
				<path fill="#F87360" d="M26.322,121.891c2.589-1.742,4.937-3.011,7.877-4.032c1.853-0.643,4.834-1.38,6.705-1.969
					c0.188-0.059,0.384-0.095,0.588-0.135c0.119-0.023,0.236,0.052,0.265,0.17c0.365,1.495,1.175,4.804,1.562,6.237
					c1.471,5.441,3.891,9.439,8.203,13.125c3.767,3.221,7.796,4.727,12.699,5.651c2.278,0.429,4.043,0.45,6.36,0.369
					c4.065-0.143,7.751-0.637,11.508-2.302c3.728-1.652,6.621-3.561,9.346-6.556c2.22-2.44,3.727-5.62,4.812-8.718
					c0.814-2.326,1.496-4.769,2.232-7.28c0.036-0.121,2.111-0.047,2.232-0.01c1.226,0.377,2.798,0.46,4.115,0.896
					c1.452,0.481,3.33,1.696,4.743,2.279c1.375,0.568,3.012,0.768,4.321,1.476c1.615-0.2,2.734,0.263,2.894,0.238
					c0.366-0.057,0.677-0.119,0.982-0.097c5.265,0.389,9.392,2.777,12.419,7.097c1.999,2.853,3.442,5.997,4.65,9.233
					c2.045,5.476,3.831,12.24,5.768,17.755c1.484,4.225,3.091,8.398,5.109,12.399c0.813,1.61,1.74,3.163,2.621,4.739
					c0.393,0.704,0.403,0.821-0.2,1.268c-3.963,2.936-8.18,5.409-12.849,7.064c-6.875,2.588-13.419,3.377-13.734,2.877
					c-0.059-0.094-0.241-0.042-0.253-0.153c-0.259-2.449,0.043-3.526,0.034-6.917c-0.018-3.31,0.122-3.834,0.23-6.251
					c-0.012-2.578,0.184-3.884,0.186-4.965c0.005-3.155,0.013-4.209,0.001-7.086c-0.001-0.363-0.079-0.726-0.139-1.088
					c-0.022-0.13-0.152-0.218-0.279-0.182c-0.415,0.118-0.469,0.44-0.506,0.726c-0.256,1.979-0.568,3.954-0.712,5.942
					c-0.23,3.165-0.062,6.386-0.592,9.493c-0.462,2.709-0.258,5.376-0.371,8.058c-0.141,3.332-0.167,6.669-0.25,10.003
					c-0.073,2.902-0.15,5.805-0.236,8.707c-0.07,2.391-0.155,4.781-0.234,7.172c-0.079,2.391-0.155,4.782-0.238,7.173
					c-0.075,2.155-0.176,4.31-0.232,6.466c-0.083,3.177-0.184,6.354-0.186,9.532c-0.002,2.273,0.114,4.548,0.232,6.819
					c0.118,2.268,0.25,4.537,0.471,6.796c0.328,3.347,0.697,6.692,1.127,10.028c0.519,4.035,1.11,8.06,1.692,12.087
					c0.168,1.161,0.42,2.31,0.61,3.468c0.061,0.37,0.069,0.749,0.096,1.161c0.006,0.097-0.05,0.188-0.14,0.225
					c-0.679,0.283-1.306,0.571-1.955,0.796c-5.418,1.876-10.944,3.341-16.596,4.32c-3.122,0.541-6.244,1.087-9.376,1.565
					c-1.662,0.254-3.344,0.377-5.019,0.543c-2.297,0.228-4.595,0.441-6.893,0.66c-0.117,0.011-0.235,0.018-0.353,0.024
					c-6.239,0.338-12.485,0.335-18.727,0.207c-2.97-0.061-5.937-0.38-8.899-0.648c-3.156-0.286-6.322-0.538-9.453-1.008
					c-3.868-0.581-7.714-1.324-11.551-2.086c-4.546-0.903-8.982-2.224-13.35-3.771c-0.37-0.131-0.738-0.267-1.105-0.404
					c-0.481-0.18-0.602-0.481-0.51-1.013c0.605-3.468,1.201-6.939,1.731-10.42c0.324-2.126,0.529-4.271,0.779-6.408
					c0.311-2.666,0.62-5.333,0.91-8.001c0.104-0.951,0.179-1.904,0.232-2.859c0.106-1.916,0.228-3.832,0.263-5.75
					c0.097-5.299,0.191-10.598,0.209-15.898c0.009-2.587-0.149-5.174-0.237-7.761c-0.07-2.038-0.118-4.077-0.232-6.112
					c-0.113-2.029-0.301-4.054-0.448-6.081c-0.082-1.133-0.173-2.266-0.214-3.4c-0.04-1.099-0.01-2.201-0.028-3.301
					c-0.082-5.103-0.158-10.207-0.26-15.309c-0.048-2.392-0.123-4.784-0.238-7.173c-0.121-2.504-0.262-5.008-0.474-7.506
					c-0.172-2.026-0.443-4.045-0.716-6.061c-0.045-0.333-0.254-0.644-0.418-0.961c-0.042-0.081-0.125-0.132-0.215-0.127l-0.003,0
					c-0.092,0.005-0.173,0.064-0.202,0.151c-0.113,0.334-0.272,0.668-0.267,1c0.031,2.274,0.114,4.547,0.171,6.821
					c0.016,0.628,0.035,5.474,0.233,9.097c0.217,3.988,0.443,8.384,0.339,9.485c-0.011,0.111-0.099,0.197-0.211,0.205
					c-0.593,0.042-2.599,0.104-5.519-0.646c-1.564-0.348-3.142-0.642-4.688-1.057c-2.924-0.784-5.759-1.844-8.47-3.184
					c-2.499-1.235-4.875-2.697-7.127-4.35c-0.486-0.356-0.976-0.707-1.5-1.085c-0.089-0.064-0.12-0.183-0.073-0.282
					c0.124-0.26,0.226-0.492,0.358-0.706c2.525-4.09,4.558-8.421,6.196-12.931c1.741-4.795,2.564-9.62,4.281-14.424
					c1.493-4.176,2.673-8.604,4.691-12.566c1.041-2.045,2.294-3.961,3.917-5.558c2.579-2.537,5.604-4.697,9.315-4.962
					c0.35-0.025,1.514-0.265,1.862-0.271c0.438-0.008,1.833-0.274,1.777-0.186L26.322,121.891z"/>
				<path fill="#B4433D" d="M18.421,166.792c-0.001-0.629,0.01-1.258-0.005-1.886c-0.057-2.274-0.141-4.547-0.171-6.821
					c-0.004-0.332,0.154-0.666,0.267-1c0.029-0.087,0.111-0.146,0.202-0.151c0.001,0,0.002,0,0.003,0
					c0.091-0.005,0.174,0.046,0.215,0.127c0.163,0.317,0.373,0.628,0.418,0.961c0.273,2.016,0.544,4.035,0.716,6.061
					c0.212,2.497,0.353,5.002,0.474,7.506c0.115,2.389,0.19,4.781,0.238,7.173c0.102,5.103,0.178,10.206,0.26,15.309
					c0.018,1.1-0.012,2.202,0.028,3.301c0.041,1.135,0.132,2.268,0.214,3.4c0.147,2.027,0.335,4.052,0.448,6.081
					c0.114,2.035,0.162,4.074,0.232,6.112c0.088,2.587,0.246,5.175,0.237,7.761c-0.019,5.299-0.112,10.599-0.209,15.898
					c-0.035,1.918-0.157,3.834-0.263,5.75c-0.053,0.955-0.128,1.908-0.232,2.859c-0.291,2.668-0.6,5.335-0.91,8.001
					c-0.249,2.138-0.455,4.282-0.779,6.408c-0.53,3.48-1.127,6.951-1.731,10.42c-0.093,0.532,0.029,0.833,0.51,1.013
					c0.367,0.138,0.736,0.273,1.105,0.404c4.368,1.547,8.804,2.868,13.35,3.771c3.838,0.762,7.684,1.505,11.551,2.086
					c3.131,0.471,6.297,0.722,9.453,1.008c2.962,0.268,5.929,0.588,8.899,0.648c6.242,0.128,12.488,0.131,18.727-0.207
					c0.118-0.006,0.235-0.013,0.353-0.024c2.298-0.219,4.596-0.432,6.893-0.66c1.675-0.166,3.357-0.289,5.019-0.543
					c3.132-0.478,6.254-1.024,9.376-1.565c5.651-0.979,11.178-2.444,16.596-4.32c0.649-0.225,1.276-0.513,1.955-0.796
					c0.09-0.037,0.146-0.128,0.14-0.225c-0.026-0.412-0.035-0.791-0.096-1.161c-0.191-1.158-0.443-2.307-0.61-3.468
					c-0.581-4.026-1.172-8.052-1.692-12.087c-0.43-3.336-0.799-6.68-1.127-10.028c-0.221-2.259-0.354-4.529-0.471-6.796
					c-0.118-2.271-0.234-4.546-0.232-6.819c0.003-3.177,0.104-6.355,0.186-9.532c0.056-2.156,0.157-4.31,0.232-6.466
					c0.083-2.391,0.159-4.782,0.238-7.173c0.079-2.391,0.163-4.781,0.234-7.172c0.085-2.902,0.163-5.804,0.236-8.707
					c0.083-3.334,0.11-6.671,0.25-10.003c0.113-2.682-0.091-5.349,0.371-8.058c0.53-3.107,0.362-6.329,0.592-9.493
					c0.145-1.988,0.456-3.963,0.712-5.942c0.037-0.286,0.091-0.608,0.506-0.726c0.127-0.036,0.257,0.052,0.279,0.182
					c0.061,0.361,0.138,0.724,0.139,1.088c0.012,2.906,0,5.813-0.016,8.923c0,0.004,0,0.008,0,0.012
					c-0.325,5.404-0.503,10.811-0.452,16.193c0.001,0.097,0.064,0.183,0.156,0.214c0.887,0.306,1.639-0.004,2.391-0.107
					c0.961-0.132,1.915-0.316,3.063-0.481c2.853-0.55,5.654-1.288,8.395-2.259c4.67-1.656,8.887-4.129,12.849-7.064
					c0.603-0.447,0.594-0.564,0.2-1.268c-0.881-1.576-1.809-3.128-2.621-4.739c-2.018-4.001-3.625-8.173-5.109-12.399
					c-1.937-5.516-3.869-11.034-5.914-16.51c-1.209-3.236-2.651-6.38-4.65-9.233c-3.026-4.319-7.154-6.707-12.419-7.097
					c-0.305-0.023-0.615,0.04-0.982,0.097c-0.16,0.025-0.244,0.206-0.159,0.344c0.799,1.292,2.043,2.122,2.563,3.451
					c0.076,0.194-0.123,0.382-0.309,0.291c-1.186-0.582-2.088-1.567-3.196-2.238c-1.308-0.792-2.593-1.629-3.937-2.356
					c-1.309-0.709-2.654-1.364-4.029-1.932c-1.412-0.583-2.873-1.054-4.326-1.535c-1.317-0.436-2.649-0.828-3.875-1.205
					c-0.121-0.037-0.248,0.033-0.284,0.154c-0.736,2.511-1.347,4.908-2.162,7.234c-1.085,3.098-2.696,5.938-4.916,8.378
					c-2.725,2.995-5.918,5.345-9.646,6.997c-3.756,1.665-7.69,2.402-11.754,2.544c-2.317,0.081-4.607-0.237-6.885-0.666
					c-4.903-0.923-9.207-3.093-12.974-6.313c-4.312-3.686-7.015-8.394-8.486-13.835c-0.387-1.433-0.716-2.882-1.081-4.377
					c-0.029-0.118-0.146-0.193-0.265-0.17c-0.204,0.04-0.399,0.076-0.588,0.135c-1.871,0.589-3.753,1.148-5.606,1.791
					c-2.94,1.021-5.743,2.339-8.332,4.081c-1.464,0.985-2.912,1.994-4.367,2.992c-0.275,0.188-0.53,0.435-0.972,0.457
					c-0.17,0.008-0.292-0.166-0.221-0.321c0.673-1.474,2.141-2.228,2.937-3.479c0.056-0.088,0.043-0.205-0.032-0.277
					c-0.406-0.391-0.896-0.238-1.334-0.23c-0.348,0.006-0.692,0.146-1.041,0.171c-3.711,0.265-6.756,1.974-9.334,4.51
					c-1.623,1.597-2.876,3.513-3.917,5.558c-2.018,3.963-3.581,8.112-5.074,12.288c-1.718,4.804-3.342,9.641-5.083,14.436
					c-1.637,4.51-3.671,8.841-6.196,12.931c-0.132,0.214-0.234,0.446-0.358,0.706c-0.047,0.099-0.016,0.218,0.073,0.282
					c0.524,0.378,1.014,0.728,1.5,1.085c2.252,1.653,4.628,3.115,7.127,4.35c2.712,1.34,5.546,2.4,8.47,3.184
					c1.546,0.415,3.124,0.709,4.876,1.096c1.712,0.311,3.417,0.718,5.295,0.606c0.122-0.007,0.216-0.113,0.212-0.235
					C18.767,177.885,18.587,172.443,18.421,166.792z M27.433,276.341c-0.725-0.205-1.451-0.41-2.267-0.609
					c-3.292-0.98-6.494-1.974-9.69-3.399c-0.094-0.042-0.149-0.144-0.132-0.246c0.193-1.183,0.387-2.348,0.572-3.515
					c0.615-3.866,1.292-7.724,1.82-11.601c0.534-3.914,0.941-7.846,1.359-11.775c0.17-1.596,0.245-3.202,0.324-4.806
					c0.161-3.286,0.362-6.572,0.422-9.86c0.067-3.65,0.008-7.304-0.023-10.955c-0.009-1.094-0.109-2.188-0.178-3.501
					c-0.036-2.407-0.063-4.596-0.076-6.885c0-0.007,0-0.014-0.001-0.021c-0.045-0.52-0.145-0.939-0.154-1.36
					c-0.095-4.719-0.176-9.437-0.263-14.156c-0.004-0.234-0.027-0.467-0.029-0.808c-0.078-2.214-0.168-4.328-0.258-6.436
					c-0.005-0.109-0.087-0.199-0.194-0.215c-1.774-0.263-3.452-0.491-5.122-0.767c-4.889-0.808-9.583-2.24-14.047-4.409
					c-0.485-0.236-1.006-0.4-1.558-0.66c-0.006-0.003-0.011-0.006-0.017-0.009c-0.568-0.322-1.09-0.583-1.611-0.842
					c-0.009-0.005-0.018-0.01-0.027-0.016c-2.322-1.594-4.648-3.183-6.963-4.787c-0.373-0.258-0.712-0.566-1.098-0.889
					c-0.08-0.067-0.105-0.179-0.06-0.273c0.128-0.263,0.24-0.527,0.404-0.755c3.506-4.899,5.806-10.391,7.847-16.004
					c2.345-6.449,4.597-12.931,6.978-19.366c1.158-3.129,2.582-6.156,4.489-8.914c2.88-4.166,6.68-7.036,11.731-8.026
					c1.729-0.339,3.482-0.554,5.25-0.198c1.079,0.217,2.014-0.048,3.007-0.591c3.175-1.736,6.558-3.003,10.026-4.033
					c1.39-0.412,2.8-0.754,4.281-1.037c0.12-0.023,0.239,0.055,0.265,0.175c0.153,0.707,0.239,1.346,0.328,2.062
					c0.001,0.007,0.002,0.014,0.003,0.02c0.057,0.277,0.127,0.46,0.161,0.65c0.603,3.3,1.654,6.445,3.22,9.418
					c2.223,4.22,5.5,7.433,9.595,9.771c5.482,3.129,11.404,4.171,17.683,3.465c3.879-0.436,7.512-1.531,10.874-3.494
					c3.437-2.006,6.348-4.605,8.479-7.987c0.853-1.353,1.608-2.788,2.233-4.26c1.042-2.455,1.82-5.004,2.202-7.754
					c0.101-0.693,0.183-1.314,0.263-1.928c0.017-0.132,0.144-0.222,0.274-0.193c5.114,1.125,10.047,2.781,14.671,5.256
					c0.949,0.508,1.843,0.593,2.82,0.456c3.207-0.451,6.245,0.15,9.153,1.485c4.128,1.896,7.002,5.083,9.174,8.991
					c2.221,3.995,3.839,8.249,5.375,12.533c1.907,5.317,3.713,10.67,5.64,15.98c1.408,3.881,3.25,7.571,5.298,11.155
					c0.388,0.68,0.874,1.303,1.306,1.959c0.242,0.367,0.471,0.742,0.722,1.145c0.061,0.097,0.04,0.225-0.049,0.298
					c-2.549,2.074-5.149,3.914-8.042,5.593c-0.616,0.316-1.094,0.566-1.649,0.845c-6.526,3.433-13.467,5.141-20.678,5.902
					c-0.097,0.01-0.178,0.082-0.198,0.177c-0.466,2.182-0.183,4.297-0.263,6.499c-0.08,1.749-0.181,3.388-0.222,5.028
					c-0.095,3.794-0.161,7.59-0.244,11.494c-0.074,1.554-0.148,2.998-0.208,4.443c-0.013,0.311,0.03,0.624,0.032,0.936
					c0.003,0.458-0.007,0.915-0.011,1.373c-0.83,18.806,0.805,37.418,4.425,55.933c0.02,0.103-0.032,0.206-0.127,0.25
					c-3.103,1.435-6.338,2.421-9.649,3.437c-0.005,0.001-0.01,0.003-0.014,0.004c-0.764,0.181-1.444,0.344-2.293,0.569
					c-0.518,0.12-0.872,0.152-1.214,0.238c-7.776,1.964-15.663,3.27-23.652,3.938c-4.221,0.353-8.449,0.706-12.68,0.836
					c-3.882,0.12-7.774-0.052-11.662-0.108c-5.342-0.077-10.664-0.486-15.952-1.222c-4.232-0.589-8.45-1.283-12.658-2.025
					C32.4,277.514,29.924,276.886,27.433,276.341"/>
			</g>
		</g>
	</g>
</g>
</svg>
