<svg xmlns="http://www.w3.org/2000/svg" xmlns:xlink="http://www.w3.org/1999/xlink" width="75.78" height="75.78" viewBox="0 0 75.78 75.78">
  <defs>
    <clipPath id="clip-path">
      <ellipse id="Ellipse_1025" data-name="Ellipse 1025" cx="37.89" cy="37.89" rx="37.89" ry="37.89" transform="translate(958.077 -5982)" fill="#f2f2f2"/>
    </clipPath>
  </defs>
  <g id="Group_68429" data-name="Group 68429" transform="translate(-958.077 5982)">
    <ellipse id="Ellipse_1019" data-name="Ellipse 1019" cx="37.89" cy="37.89" rx="37.89" ry="37.89" transform="translate(958.077 -5982)" fill="#f2f2f2"/>
    <g id="Mask_Group_16418" data-name="Mask Group 16418" clip-path="url(#clip-path)">
      <g id="oldM0002-01" transform="translate(950.443 -5975)">
        <path id="Path_44201" data-name="Path 44201" d="M288.744,1170.219q-.041,2.823-.083,5.645c-.259,1.627.07,3.276-.175,4.9-.2,6.514-.37,13.03-.607,19.542-.263,7.236-.595,14.469-.878,21.7-.148,3.788-.24,7.578-.386,11.366-.295,7.66-.621,15.32-.909,22.98-.15,4-.244,8-.369,12.006-.05,1.618-.123,3.234-.172,4.852-.039,1.3-.03,1.3-1.305,1.734-.452.543-1.147.485-1.733.7a22.624,22.624,0,0,1-8.674.272c-.818-.271-1.628-.473-2.294.333-.01-.7-.047-1.348-.974-1.476-.515-.071-.588-.509-.606-.975-.077-1.914-.187-3.827-.275-5.741-.206-4.467-.388-8.935-.615-13.4-.3-5.868-.627-11.735-.948-17.6q-.727-13.266-1.46-26.532c-.228-4.21-.426-8.421-.638-12.632-.231-.943.075-1.918-.17-2.861q-.183-4.341-.369-8.682a6.089,6.089,0,0,0-.125-1.011c-.071-.329-.363-.3-.617-.292-.232.006-.413.092-.441.35-.023.212-.03.425-.04.637-.268,5.659-.511,11.319-.811,16.977-.356,6.721-.769,13.438-1.141,20.158-.228,4.125-.417,8.252-.637,12.377q-.571,10.717-1.156,21.433c-.107,2-.185,4-.282,6-.176,3.616-.369,7.232-.523,10.849-.023.549-.171.886-.723,1.017a8.455,8.455,0,0,0-.844.293c-.619.582-1.464.5-2.2.751a22.7,22.7,0,0,1-8.694-.207,9.777,9.777,0,0,1-1.809-.616,1.661,1.661,0,0,0-.43-.252c-.7-.161-.9-.589-.91-1.295q-.112-5.813-.317-11.624c-.228-6.512-.487-13.023-.729-19.535q-.408-10.981-.809-21.961c-.254-1.283.077-2.594-.184-3.877-.418-10.722-.876-21.442-1.1-32.17-.256-1.627.087-3.276-.179-4.9-.005-3.085-.307-6.163-.228-9.25a.955.955,0,0,1,1.432.447,69.534,69.534,0,0,1,.408,7.379c-.022,6.6.487,13.187.6,19.785.076,4.464.271,8.933.483,13.4.347,7.311.424,14.634.946,21.938.185,2.589.167,5.193.224,7.784.089,4,.293,8,.364,12,.113,6.383.49,12.761.477,19.148a1.422,1.422,0,0,0,1.261,1.615,27.1,27.1,0,0,0,10.154.137c.963-.167,1.306-.71,1.356-1.676.226-4.378.287-8.765.537-13.138.343-5.99.554-11.986.914-17.975.224-3.736.366-7.482.607-11.218.331-5.138.56-10.282.93-15.418.138-1.909.226-3.826.292-5.737.241-6.976.622-13.944,1.028-20.911.022-.383,0-.768.026-1.15.066-.963-.357-1.357-1.329-1.416a15.492,15.492,0,0,1-4.228-.95,7.356,7.356,0,0,1-1.4-.626c-.394-.241-.973-.512-.763-1.024.172-.418.769-.243,1.173-.144a39.671,39.671,0,0,0,10.019.974,28.017,28.017,0,0,0,7.207-.871,2.747,2.747,0,0,1,.5-.115c.321-.026.752-.22.906.172.177.45-.268.657-.58.858a5.142,5.142,0,0,1-1.059.443,22.04,22.04,0,0,1-4.82,1.229c-.755.094-1.083.4-1.052,1.241.2,5.444.546,10.881.761,16.323.168,4.253.386,8.5.611,12.753.258,4.885.422,9.779.906,14.652.185,1.864.2,3.742.284,5.609q.285,6.185.612,12.368c.356,6.544.491,13.1.946,19.636.092,1.318.011,2.641.039,3.962.035,1.648.244,2,1.825,2.233a28.9,28.9,0,0,0,9.534-.129c1.022-.188,1.349-.761,1.408-1.774.2-3.446.1-6.9.277-10.34.325-6.335.264-12.68.684-19.011.183-2.758.178-5.533.241-8.3.124-5.406.475-10.8.619-16.206.127-4.806.3-9.613.495-14.417.2-4.976.331-9.953.519-14.928.194-5.147.471-10.289.5-15.442a5.4,5.4,0,0,0-.442-2.478C287.041,1169.809,287.883,1169.984,288.744,1170.219Z" transform="translate(-218.936 -1027.587)" fill="#435f75"/>
        <path id="Path_44202" data-name="Path 44202" d="M105.692,575.923a2.732,2.732,0,0,0-1.221-.323c-1.473-.532-2.952-1.046-4.416-1.6-.936-.354-.947-.383-.767-1.353.9-4.848,1.546-9.731,1.975-14.642a124.734,124.734,0,0,0,.286-13.38c-.006-.3,0-.595,0-.892-.756-1.308-.506-2.761-.6-4.164.137-2.9-.231-5.785-.244-8.679.018-.718-.02-1.442.03-2.158.073-1.036-.3-1.529-1.4-1.65a29.226,29.226,0,0,1-8.074-2.179,7.7,7.7,0,0,1-1.143-.551,3.122,3.122,0,0,1-1.345-1.1,41.823,41.823,0,0,1-3.8-2.58c-.459-.341-.579-.6-.218-1.127a40.43,40.43,0,0,0,4.543-9.681c1.228-3.537,2.369-7.107,3.866-10.545A19.259,19.259,0,0,1,95.38,495.3a9.427,9.427,0,0,1,8.6-4.058,3.92,3.92,0,0,0,2.188-.443,31.018,31.018,0,0,1,7.435-2.62c.757.114.5.831.746,1.249.15.487.279.98.4,1.475,1.48,5.936,5.267,9.621,11.239,10.587,5.873.95,11.328-.474,15.205-6.455a16.707,16.707,0,0,0,2-5.877c.167-.42.191-.964.835-.974a30.645,30.645,0,0,1,7.634,2.8,2.428,2.428,0,0,0,1.464.283c4.446-.411,7.619,1.576,9.835,5.291a43.174,43.174,0,0,1,3.284,7.6c1.024,2.84,1.985,5.7,3.035,8.534a29.85,29.85,0,0,0,3.461,6.808c.417.6.23.848-.252,1.21a43.811,43.811,0,0,1-3.689,2.515c-.251.625-.875.783-1.372,1.1a27.572,27.572,0,0,1-9.363,2.781c-1.105.14-1.456.6-1.411,1.638.058,1.358-.041,2.719.031,4.081a18.08,18.08,0,0,1-.11,3,34.9,34.9,0,0,0-.156,5.453c-.019.583.118,1.2-.35,1.69a.375.375,0,0,1-.037.22,66.293,66.293,0,0,0-.1,6.82,25.632,25.632,0,0,0,.083,4.166,139.129,139.129,0,0,0,2.283,18.586.9.9,0,0,1-.732,1.212c-1.132.36-2.243.784-3.364,1.181a4.206,4.206,0,0,0-1.178.462,8.238,8.238,0,0,0-2.111.534,2.29,2.29,0,0,1-1.479.665,81.512,81.512,0,0,1-16.554,2.043q-4.147.053-8.295,0a83.89,83.89,0,0,1-17.55-2.266A2.507,2.507,0,0,1,105.692,575.923Z" transform="translate(-83.226 -432.98)" fill="#b6443e"/>
        <path id="Path_44203" data-name="Path 44203" d="M655,762.777l1.268-.747a18.273,18.273,0,0,0,.876,3.976c1.386,5.75,2.82,11.487,4.226,17.232a12.48,12.48,0,0,1,.317,2.4,63.693,63.693,0,0,1-1.141,13.589c-.944,5.577-2.113,11.116-2.879,16.723-.242,1.77-.409,3.55-.6,5.327a1.949,1.949,0,0,0,.252,1.348,20.413,20.413,0,0,1,2.895,9.162,30.337,30.337,0,0,1-.868,11.513,20.152,20.152,0,0,1-2.043,4.945,3.663,3.663,0,0,1-2.791,2.2c-.368.033-.585.332-.884.486a2.048,2.048,0,0,1-2.575-.37,12.675,12.675,0,0,0-1.3-1.206,1.531,1.531,0,0,1-.516-.711,4.146,4.146,0,0,0-1.08-1.811,1.828,1.828,0,0,1-.386-1.8,7.31,7.31,0,0,1,.728-1.764,21.381,21.381,0,0,0,1.53-3.085,5.418,5.418,0,0,0-.289-4.566c-.567-1.1-1.116-2.2-1.673-3.305-1.691-3.35-1.709-6.625.472-9.784a2.252,2.252,0,0,0,.35-1.451,94.881,94.881,0,0,0-1.648-15.087c-.8-4-1.711-7.985-2.292-12.033a39.27,39.27,0,0,1-.386-7.512,10.249,10.249,0,0,0-1.02-4.672q0-3.184-.006-6.369a1.167,1.167,0,0,1,.2-.845c.59.548.413,1.277.383,1.927a17.555,17.555,0,0,0,.964,5.515,14.059,14.059,0,0,1,1.111-1.675c.249-.226.533-.537.884-.314.292.185.171.55.058.82-2.174,5.223-1.348,10.548-.465,15.846.924,5.545,2.394,11,2.93,16.607a33.2,33.2,0,0,1,.324,7.127c.611-.059,1.268-.845,1.649-.265s-.514.922-.874,1.342c-2.3,2.693-3.49,5.624-2.129,9.179a28.336,28.336,0,0,0,1.971,4.153,7.044,7.044,0,0,1,0,7.073c-.565,1.169-1.468,2.191-1.594,3.563.824-1.749,1.986-3.326,2.73-5.1.73-1.738.87-3.545-.535-5.141a9.322,9.322,0,0,1-1.943-3.564,2.859,2.859,0,0,1-.119-1.011c.042-.6.048-1.464.65-1.515.657-.055.5.832.6,1.329a7.12,7.12,0,0,0,1.737,3.646,4.849,4.849,0,0,1,1.4,4.546,3.04,3.04,0,0,0,1.876,3.289,1.129,1.129,0,0,0,1.211.012.906.906,0,0,0,.218-1.167c-.957-2.046-.651-4.128-.4-6.264a14.188,14.188,0,0,0-.215-5.337c-.043-.164,0,.044-.027-.125-.061-.455-.268-1.07.265-1.239.435-.138.65.456.839.826a9.45,9.45,0,0,1,.6,5.639c-.283,2.216-.588,4.345.394,6.511.553,1.219-.022,2.146-1.313,2.588a2.021,2.021,0,0,0-1.345,1.241,27.725,27.725,0,0,0-1.224,3.086c-.094.364-.257.8.143,1.055.421.265.71-.123.97-.383a5.575,5.575,0,0,0,1.2-1.8,28.02,28.02,0,0,0,.018-22.927c-.937-2.155-.569-4.46-.331-6.684.719-6.741,2.255-13.355,3.272-20.052a83.829,83.829,0,0,0,.913-9.911,15.5,15.5,0,0,0-.6-4.416c-1.389-5.319-2.676-10.662-3.953-16.008C655.8,765.279,655.209,764.077,655,762.777Z" transform="translate(-570.683 -671.786)" fill="#b4846c"/>
        <path id="Path_44204" data-name="Path 44204" d="M92.316,778.569c-.09,1.393.286,2.758.25,4.148-.161-.116-.355-.333-.456.027-.206.732-.378,1.474-.565,2.211-.2,1.681-.033,3.369-.093,5.053a4.29,4.29,0,0,1-.085,1.38,79.181,79.181,0,0,1-1.675,10.193,114.617,114.617,0,0,0-2.378,15.247c-.112,1.571-.033,3.153-.231,4.721a1.948,1.948,0,0,0,.483,1.284,9.926,9.926,0,0,1,1.47,3.511,8.971,8.971,0,0,1-.748,5.352c-.574,1.281-1.2,2.54-1.87,3.775a5.982,5.982,0,0,0-.03,5.868c.346.684.732,1.347,1.079,2.03a14.3,14.3,0,0,1,.689,1.506c.2.532.328,1.252-.03,1.6-1.031,1.008-1.273,2.462-2.338,3.5-1.367,1.336-2.55,1.89-4.182.667-1.69-.143-2.451-1.4-3.151-2.686a23.545,23.545,0,0,1-2.638-8.618,30.562,30.562,0,0,1,.849-12.02,15.517,15.517,0,0,1,1.894-4.309,2.457,2.457,0,0,0,.395-1.683c-.726-7.593-2.336-15.043-3.589-22.551a64.96,64.96,0,0,1-1.118-11.674,19.766,19.766,0,0,1,.6-4.543c1.659-6.6,3.273-13.215,4.9-19.825a3.1,3.1,0,0,0,.041-.507l1.316.741c-.435,1.149-.683,2.352-1.008,3.533-1.237,5.314-2.568,10.6-3.95,15.881a27.133,27.133,0,0,0-.435,9.138c.594,7.534,2.445,14.875,3.53,22.336.374,2.573.551,5.162.675,7.756a4.247,4.247,0,0,1-.545,2.2,27.991,27.991,0,0,0,.071,23.1,5.989,5.989,0,0,0,1.179,1.811c.218.2.474.418.794.279a.586.586,0,0,0,.275-.772c-.7-1.783-.652-4.024-3.03-4.79a1.694,1.694,0,0,1-.957-2.343c1.1-2.5.691-5.009.345-7.544a8.659,8.659,0,0,1,.776-4.851c.171-.374.425-.877.9-.715.439.149.266.676.168,1.019a16.008,16.008,0,0,0-.063,7.345,7.785,7.785,0,0,1-.546,4.382c-.171.417-.434.9.007,1.3a1.215,1.215,0,0,0,1.438.028,2.821,2.821,0,0,0,1.778-2.457,12.863,12.863,0,0,0,.02-1.789,4.127,4.127,0,0,1,1.12-3.145,7.06,7.06,0,0,0,1.983-4.729c0-.359-.007-.91.444-.933.505-.026.606.522.681.938a5.375,5.375,0,0,1-1.406,4.742c-2.084,2.241-1.747,4.51-.472,6.9A40.427,40.427,0,0,1,87,845.688a2.95,2.95,0,0,0-.593-1.922,16.2,16.2,0,0,1-1.4-2.864,6.967,6.967,0,0,1,.311-5.578,44.091,44.091,0,0,0,2.238-4.735c1.119-3.151.159-5.845-1.79-8.33-.157-.2-.373-.354-.531-.553-.356-.448-1.245-.812-.964-1.348.4-.759,1.1.14,1.664.116.25-.218.182-.492.175-.734-.154-5.152.769-10.18,1.736-15.2a120.985,120.985,0,0,0,2.212-12.842c.3-3.633.383-7.24-1.2-10.665-.165-.358-.481-.866.033-1.123.368-.184.679.241.916.54a7.074,7.074,0,0,1,1.078,2.011c.258-1.021.434-1.86.683-2.678C91.708,779.324,91.659,778.717,92.316,778.569Z" transform="translate(-74.244 -671.962)" fill="#b3836c"/>
        <path id="Path_44205" data-name="Path 44205" d="M300.121,78.193a2.117,2.117,0,0,0-.294-1.088c-.368-.25-.507.391-.9.2.139-.68,1.171-1.153.49-2.047-.5.018-.539.6-.976.81a1.858,1.858,0,0,1,.461-1.256,1.986,1.986,0,0,0,.447-1.538,8.108,8.108,0,0,1,2.011-5.888,1.434,1.434,0,0,0,.306-1.8,2.551,2.551,0,0,1,.222-2.329,9.139,9.139,0,0,1,2.576-3.128,13.818,13.818,0,0,1,16.728-.96,27.961,27.961,0,0,1,2.787,2.025,10.461,10.461,0,0,0,7.808,2.5c.21-.016.422,0,.8,0-.7,1.639-2.027,2.62-3.251,3.741a9.233,9.233,0,0,1,1.867,4.717,4.178,4.178,0,0,1,.055.761,2.906,2.906,0,0,0,.65,2.255.637.637,0,0,1,.126.661c-.4-.065-.433-.574-.8-.685-.878,1,.4,1.526.524,2.371-.415.044-.547-.487-.963-.447-.326.32-.257.745-.223,1.162a2.511,2.511,0,0,1-.018.979c-.388,1.486-.7,2.989-1.028,4.488-.216.612-.079,1.271-.251,1.887-.186.666-.463,1.215-1.319,1-1.161-.05-1.865-.574-1.878-1.814a1.869,1.869,0,0,1,1.464-1.646c.368.4.175.915.239,1.384a61.342,61.342,0,0,1,1.512-6.719,2.215,2.215,0,0,0-.948-2.844c-.424-.278-1.134-.682-.733-1.245.34-.477.907.08,1.346.3.255.127.439.4.878.366-.217-.719-.806-1.062-1.285-1.5-.279-.253-.713-.55-.484-.931.246-.408.683-.113,1.024.043a2.767,2.767,0,0,0,.876.407,7.116,7.116,0,0,0-.79-2.968c-.233-.438-.477-.982-1.135-.8a1.245,1.245,0,0,0-.96,1.213,17.906,17.906,0,0,0,.448,4.535c.227,1.162.931,2.3.358,3.549a.94.94,0,0,1-.974-.107c-.877-2.116-.938-4.392-1.272-6.613-.186-1.239-.15-1.248-1.4-.886a27.632,27.632,0,0,1-18.052-.682c-1.293-.5-1.335-.466-1.336.949a34.381,34.381,0,0,1-.775,6.074,2.022,2.022,0,0,1-.509,1.15.8.8,0,0,1-.77.108c-.576-.429-.322-1-.233-1.523.3-1.762.779-3.489,1-5.268a5.957,5.957,0,0,0-.1-2.406c-.094-.327-.19-.687-.575-.782-.411-.1-.6.232-.809.5a6.634,6.634,0,0,0-1.49,3.876c.51.134.771-.321,1.161-.415.323-.078.7-.31.914.073.163.3-.169.527-.375.738-.5.519-1.33.765-1.477,1.581.136.127.21.132.3.091.5-.225,1.051-.994,1.516-.352.341.471-.377.954-.8,1.268a1.687,1.687,0,0,0-.638,2.017c.619,2.345,1.165,4.708,1.572,7.216.122-.519-.176-.962.115-1.352.943-.119,1.135.661,1.494,1.244.108,1.738.1,1.748-1.659,2.181-.914.257-1.332-.142-1.371-1.039a4.119,4.119,0,0,0-.163-1.1c-.245-1.775-.769-3.493-1.093-5.252A1.474,1.474,0,0,1,300.121,78.193Z" transform="translate(-269.754 -56.8)" fill="#828e98"/>
        <path id="Path_44206" data-name="Path 44206" d="M286.538,230.122c.351.331.208.765.236,1.16.061.888.055.889,1.037.657a2.5,2.5,0,0,1,.256,2.085,39.43,39.43,0,0,0-.365,9.293c.472,5.23,2.792,8.379,7.818,9.6a19.924,19.924,0,0,0,10.7-.285c4.034-1.216,5.97-4.116,6.744-8.026a28.744,28.744,0,0,0-.083-8.64,7.372,7.372,0,0,1,.189-4.007c.353.074.721.278.866-.321a5.479,5.479,0,0,0,.206-1.223c.005-.365-.09-.761.223-1.065.555-.384.831-1.07,1.472-1.361.447-.2,1-.366,1.279.084.269.43-.318.6-.586.813A5.214,5.214,0,0,0,314.709,232c.167.263.393.112.585.127.409.032.991-.108,1.079.4.075.433-.524.446-.836.623a3.206,3.206,0,0,0-.981,3.516c.217.422.525.378.849.172a3.336,3.336,0,0,0,1.1-1.222,13.763,13.763,0,0,0,1.609-8.019c-.128-1.68-1.3-2.361-2.693-2.842,0-.3-.034-.61.254-.82,2.058-.3,3.261,1.2,3.55,2.889a14.119,14.119,0,0,1-1.494,9.147,4.085,4.085,0,0,1-2.761,2.287c-.5.108-.6.33-.586.773.032,1.021.056,2.044.038,3.066a13.641,13.641,0,0,1-2.995,8.763,1.308,1.308,0,0,0-.4.9c.052,1.446.013,2.894.181,4.336a.861.861,0,0,0,.856.882c1.211.194,2.406.487,3.608.739a1.815,1.815,0,0,0-.557,1.086c-.706.463-1.413.093-2.095-.044-.931-.187-1.36.061-1.352,1.065.005.6.23,1.615-.455,1.657-.708.044-.679-1.016-.861-1.637-.556-1.9-.256-3.894-.6-5.82-.083-.461-.074-1.005-.811-.785a19.33,19.33,0,0,1-8.019,1.93,19.885,19.885,0,0,1-9.042-1.915c-.25-.115-.676-.817-.9.068a34.1,34.1,0,0,1-.519,6.446,4.952,4.952,0,0,1-.207.864c-.14.4-.259.94-.759.881s-.443-.627-.5-1.029c-.025-.167-.012-.338-.023-.507-.084-1.276-.17-1.339-1.483-1.11a4.027,4.027,0,0,1-1.755.154c-.415-.343-.008-.99-.486-1.31,1.157-.248,2.308-.537,3.474-.729.621-.1.91-.352.878-.985-.017-.338.015-.68.032-1.019a17.987,17.987,0,0,0,.123-3.3c-.146-1.05-1.15-1.735-1.66-2.666a15.868,15.868,0,0,1-1.757-7.106,13.024,13.024,0,0,1,.094-2.8c.088-.5-.052-.745-.614-.86a3.779,3.779,0,0,1-2.489-1.854,13.508,13.508,0,0,1-1.753-9.438c.381-2.291,1.361-2.991,3.655-3.051a.715.715,0,0,1-.7,1.239,2,2,0,0,0-1.635,1.606,12.193,12.193,0,0,0,1.564,9.062,2.375,2.375,0,0,0,.507.572c.282.246.547.648.965.491.372-.14.217-.6.309-.91a2.192,2.192,0,0,0-1.145-2.893c-.253-.13-.661-.22-.6-.568.067-.383.464-.441.819-.448a1.411,1.411,0,0,0,.733-.08,5.071,5.071,0,0,0-1.82-3.161c-.222-.195-.713-.351-.4-.772.225-.3.623-.219.954-.109C285.832,228.285,286.194,229.2,286.538,230.122Z" transform="translate(-254.858 -202.514)" fill="#b4836c"/>
        <path id="Path_44207" data-name="Path 44207" d="M176.863,2025.4a2.271,2.271,0,0,1,.133,1.128c.02,3.835.017,7.67.055,11.5a2.241,2.241,0,0,1-.612,1.614,21.925,21.925,0,0,1-14.635,7.51,24.185,24.185,0,0,1-8.236-.577,16.3,16.3,0,0,1-5.4-2.54,1.663,1.663,0,0,1-.825-1.585c.083-1.873.085-3.749.121-5.624.008-.421-.027-.843.4-1.144.154-.109.213-.362.3-.558a10.714,10.714,0,0,1,6.235-5.713q.824-.336,1.647-.676c.8.077,1.485-.538,2.3-.39a15.9,15.9,0,0,1,7.061,1.361,11.743,11.743,0,0,1,6.117,6.831c.369.967.706,1.069,1.523.506a10.054,10.054,0,0,0,3.122-2.942,1.918,1.918,0,0,0,.269-1.34c.009-1.948-.007-3.9.01-5.844C176.439,2026.382,176.351,2025.8,176.863,2025.4Z" transform="translate(-137.982 -1773.49)" fill="#6e9393"/>
        <path id="Path_44208" data-name="Path 44208" d="M500.564,2029.7a24.887,24.887,0,0,1,4.029,1.909,10.682,10.682,0,0,1,3.547,3.94,6.676,6.676,0,0,1,.905,3.607,24.358,24.358,0,0,0,.173,3.824,2.114,2.114,0,0,1-1.161,2.195,17.39,17.39,0,0,1-7.338,2.79,23.474,23.474,0,0,1-11.212-1,21.961,21.961,0,0,1-9.327-6.282,2.743,2.743,0,0,1-.893-1.873c.061-1.331.052-10.123.122-11.774a1.473,1.473,0,0,1,.122-.474c.367-.471.8.817,1.136,1.032.874,1,1.765,9.687,2.886,10.411.711.459,1.125.4,1.41-.458a12,12,0,0,1,2.494-4.127c2.823-3.209,6.552-4.083,10.6-4.149C498.95,2029.089,499.69,2029.784,500.564,2029.7Z" transform="translate(-427.455 -1774.414)" fill="#6e9393"/>
        <path id="Path_44209" data-name="Path 44209" d="M482.09,2005.524l-.76-.765c-.066-3.889,0-7.778.109-11.667.256-.278.006-.67.31-1.032a4.041,4.041,0,0,1,1.67.38,2.61,2.61,0,0,0-.665,1.988c.122,3.229-.131,6.449-.262,9.672A1.814,1.814,0,0,1,482.09,2005.524Z" transform="translate(-429.214 -1744.417)" fill="#7e302c"/>
        <path id="Path_44210" data-name="Path 44210" d="M363.583,1995.758c-.146,2.485,0,4.97,0,7.455a2.132,2.132,0,0,1-.612,1.717c-.788-.332-.583-1.056-.591-1.643-.038-2.767,0-5.535-.022-8.3a4.337,4.337,0,0,0-.9-3.105,6.013,6.013,0,0,1,2.078-.471Q363.558,1993.584,363.583,1995.758Z" transform="translate(-324.702 -1743.849)" fill="#7c2d29"/>
        <path id="Path_44211" data-name="Path 44211" d="M579.081,1997.8c-.876.351-1.707-.222-2.57-.125a12.26,12.26,0,0,1-6.186-5.769,7.872,7.872,0,0,0-1-1.612c.46-.384,1.062-.227,1.574-.413a9.1,9.1,0,0,0,3.166,4.765A22.268,22.268,0,0,0,579.081,1997.8Z" transform="translate(-505.971 -1742.52)" fill="#7e2f2b"/>
        <path id="Path_44212" data-name="Path 44212" d="M217.7,1998.128c-.8-.076-1.567.5-2.375.085a22.7,22.7,0,0,0,5.018-3.188,9.264,9.264,0,0,0,3.059-4.572,1.744,1.744,0,0,1,1.479.279,14.413,14.413,0,0,1-5.465,6.577A7.411,7.411,0,0,1,217.7,1998.128Z" transform="translate(-197.272 -1742.965)" fill="#7e2f2b"/>
        <path id="Path_44213" data-name="Path 44213" d="M641.7,929.012a1.054,1.054,0,0,1-.211-.838q0-4.659,0-9.318a.976.976,0,0,1,.228-.829Q641.709,923.52,641.7,929.012Z" transform="translate(-568.902 -807.821)" fill="#b4846c"/>
        <path id="Path_44214" data-name="Path 44214" d="M207.7,946.234q-.027-2.864-.052-5.729a.92.92,0,0,1,.231-.7c.013,1.737.034,3.474.033,5.211A1.74,1.74,0,0,1,207.7,946.234Z" transform="translate(-190.577 -826.809)" fill="#d9c3b8"/>
        <path id="Path_44215" data-name="Path 44215" d="M249.478,1173.862c2.254.406,4.47,1,6.737,1.349q3.966.615,7.959.983a113.742,113.742,0,0,0,12.245.23,83.842,83.842,0,0,0,17.287-2.17c.33-.074.668-.114,1-.169a1.808,1.808,0,0,1,.85,2.031c-.166,1.731.007,3.492-.076,5.236-.141,2.972-.117,5.955-.311,8.916-.145,2.213,0,4.426-.212,6.62-.261,2.719-.037,5.45-.286,8.15-.2,2.215.007,4.43-.234,6.619-.291,2.636-.022,5.28-.272,7.9-.2,2.043-.014,4.09-.246,6.107-.23,2-.01,4.008-.259,5.978-.279,2.214,0,4.431-.247,6.619-.295,2.636,0,5.283-.269,7.9-.263,2.555.012,5.112-.244,7.642-.292,2.892.01,5.794-.266,8.663-.3,3.065-.035,6.126-.241,9.177-.109,1.611-.243,3.216-.216,4.831.008.486-.25.668-.66.785a15.667,15.667,0,0,1-3.868.673c-1.575.044-3.154-.019-4.729.021a17.442,17.442,0,0,1-3.381-.535.97.97,0,0,1-.733-.638,1.819,1.819,0,0,1-.18-.866c.133-2.81-.25-5.6-.249-8.408,0-2.765-.265-5.517-.344-8.278a39.674,39.674,0,0,0-.229-5.207c-.364-2.24.09-4.512-.445-6.724a.863.863,0,0,1-.012-.255,59.277,59.277,0,0,0-.322-7.637c-.145-2.238-.151-4.485-.379-6.725-.166-1.633-.305-3.291-.354-4.948a70.063,70.063,0,0,0-.472-7.612,1.32,1.32,0,0,1-.009-.255,58.829,58.829,0,0,0-.344-7.89c-.187-2.411.134-4.851-.416-7.234a.452.452,0,0,1-.006-.128,64.392,64.392,0,0,0-.326-8.148,72.42,72.42,0,0,0-.395-7.49c-.1-.552.116-.771.671-.8a23.342,23.342,0,0,0,6.521-1.6,1.156,1.156,0,0,0,.791-.57,39.961,39.961,0,0,1-19.581-.007c-.046.327.254.356.438.453a15.056,15.056,0,0,0,6.458,1.731c1.04.045,1.121.042,1.051,1.1-.187,2.834-.1,5.684-.468,8.508a1.33,1.33,0,0,0-.017.255c.153,2.343-.254,4.664-.273,7-.021,2.591-.231,5.177-.319,7.766a32.627,32.627,0,0,1-.233,4.567c-.36,2.027.078,4.088-.447,6.085a.816.816,0,0,0-.011.255,48.308,48.308,0,0,1-.338,6.867c-.143,1.853.08,3.745-.408,5.572a.8.8,0,0,0-.018.254,52.3,52.3,0,0,1-.319,7,62.1,62.1,0,0,1-.435,7.359,1.049,1.049,0,0,0-.014.255c.161,2.641-.252,5.26-.287,7.9-.033,2.461-.148,4.929-.3,7.381-.114,1.784-.159,3.563-.173,5.344a47.072,47.072,0,0,0-.269,4.828.793.793,0,0,1-.723.9,16.2,16.2,0,0,1-3.5.578c-1.32-.031-2.642-.016-3.963,0a19.194,19.194,0,0,1-4.632-.716.81.81,0,0,1-.735-.962c.023-1.278,0-2.557.006-3.835.012-4.126-.227-8.247-.339-12.369-.069-2.545.033-5.107-.206-7.64-.268-2.848-.017-5.707-.282-8.534-.212-2.258.062-4.526-.245-6.745-.345-2.5.076-5.017-.434-7.492a6.5,6.5,0,0,1-.026-1.4c.065-3.7-.25-7.393-.336-11.091-.051-2.2.014-4.426-.215-6.616-.263-2.508-.015-5.027-.272-7.512-.242-2.342-.008-4.683-.238-7-.236-2.38-.023-4.772-.276-7.128-.242-2.258-.168-4.5-.188-6.751C249.711,1179.378,249.287,1176.629,249.478,1173.862Z" transform="translate(-227.011 -1030.919)" fill="#4c7e9f"/>
        <path id="Path_44216" data-name="Path 44216" d="M497.93,1993.113a.782.782,0,0,1,.847.564,11.227,11.227,0,0,0,1.63,2.847,18.845,18.845,0,0,0,3.3,2.922,5.875,5.875,0,0,1,1.411,1.049,18.426,18.426,0,0,0-4.771.637c-4.293,1.209-6.872,4.148-8.259,8.268-.052.154-.1.31-.171.548a10.917,10.917,0,0,1-4.463-3.507c.04-3.991.4-7.974.286-11.969-.027-.98.015-.981,1.042-1.114,1.015-.063,2,.208,3.009.243a26.836,26.836,0,0,0,5.133-.413C497.256,1993.135,497.6,1993.136,497.93,1993.113Z" transform="translate(-434.578 -1745.334)" fill="#b5433d"/>
        <path id="Path_44217" data-name="Path 44217" d="M233.888,2000.429c1.1-.931,2.423-1.539,3.478-2.542a12.135,12.135,0,0,0,2.823-3.879c.181-.407.279-.928.879-.974a49.629,49.629,0,0,0,5.758.5c1.13-.027,2.258-.152,3.386-.233.71-.066.966.179,1.1.963a26.477,26.477,0,0,1,.2,4.159c.023,2.239,0,4.478.014,6.717,0,.409-.123.853.206,1.211a11.049,11.049,0,0,1-4.387,3.478,1.857,1.857,0,0,1-.447-.854c-1.7-4.719-4.929-7.567-9.971-8.3C235.908,2000.521,234.9,2000.529,233.888,2000.429Z" transform="translate(-213.459 -1745.266)" fill="#b5433d"/>
        <path id="Path_44218" data-name="Path 44218" d="M115.575,503.321l-1.529,2.064a1.37,1.37,0,0,0,1.077-.458,25.552,25.552,0,0,1,9.028-4.3c.7-.2.931-.007,1.07.6a23.058,23.058,0,0,0,1.112,3.648,14.129,14.129,0,0,0,8.243,8.073,16.336,16.336,0,0,0,13.143-.34,14.3,14.3,0,0,0,8.043-9.523,15.859,15.859,0,0,0,.489-1.975c.1-.691.463-.7.991-.547a25.9,25.9,0,0,1,8.92,4.257,10.768,10.768,0,0,0,.957.634c.054.033.154-.009.333-.026-.246-.877-1.153-1.212-1.567-2.052a5.592,5.592,0,0,1,3.543.465c2.749,1.205,4.326,3.479,5.492,6.115,1.635,3.7,2.884,7.539,4.2,11.356A42.5,42.5,0,0,0,183.069,530c.323.52.2.78-.263,1.133a25.584,25.584,0,0,1-8.035,4.08c-1.332.413-2.714.668-4.081.962a11.757,11.757,0,0,1-1.269.1c-.674.069-.913-.244-.881-.892.117-2.335-.05-4.669.2-7.013a55.685,55.685,0,0,0,.043-6c0-.113-.031-.261-.311-.27a2.182,2.182,0,0,0-.367,1.215c-.061.934-.206,1.856-.3,2.784-.337,3.351-.152,6.721-.323,10.074-.15,2.935-.048,5.875-.242,8.8-.268,4.03-.446,8.058-.508,12.095a16.838,16.838,0,0,0-.186,3.044c.423,2.529.081,5.089.4,7.632.178,1.418.217,2.878.354,4.312.21,2.192.531,4.373.84,6.554.184,1.3.454,2.585.652,3.882.149.972-.016,1.2-1.052,1.571a64.126,64.126,0,0,1-8.726,2.323c-2.743.56-5.519.921-8.3,1.21a38.038,38.038,0,0,1-4.444.342,25.2,25.2,0,0,0-4.455.2c-1.351.222-2.708-.186-4.066-.185a83.109,83.109,0,0,1-18.77-2.344,37.832,37.832,0,0,1-5.724-1.733.878.878,0,0,1-.633-1.169,100.028,100.028,0,0,0,1.494-10.306c.217-2.154.33-4.316.533-6.466a78.5,78.5,0,0,0,.132-10.589c-.112-2.764.006-5.539-.248-8.285-.248-2.683-.024-5.365-.239-8.032-.192-2.381-.054-4.769-.248-7.136-.2-2.41-.209-4.834-.513-7.23a7.343,7.343,0,0,0-.494-2.622,1.339,1.339,0,0,0-.385,1.1c.288,4.04.082,8.087.148,12.13.016.967-.046,1.03-1.025.977a19.613,19.613,0,0,1-4.118-.751,25.606,25.606,0,0,1-8.9-4.3c-.529-.4-.608-.74-.282-1.271,2.425-3.951,3.827-8.331,5.3-12.681.832-2.456,1.72-4.893,2.777-7.261a12.155,12.155,0,0,1,3.823-5.164A7.157,7.157,0,0,1,115.575,503.321Z" transform="translate(-95.21 -443.709)" fill="#f87360"/>
        <path id="Path_44219" data-name="Path 44219" d="M98.5,805.291c-.605,1.494-.757,3.116-1.339,4.752-.684-1.167-.954-2.493-2.092-3.257.338,1.037.888,1.983,1.132,3.052a20.635,20.635,0,0,1,.536,3.642,53.847,53.847,0,0,1-1.375,13c-.819,4.111-1.707,8.207-2.243,12.374a52.147,52.147,0,0,0-.471,7.491c.009.55,0,1.1,0,1.75-.777-.266-1.171-1.119-2.145-1.045.279.255.494.459.718.654A9.925,9.925,0,0,1,94.6,854.1a8.214,8.214,0,0,1-.956,4.427c-.517,1.12-1.061,2.232-1.666,3.307a6.832,6.832,0,0,0-.041,6.713c.446.917.97,1.8,1.462,2.69a2.616,2.616,0,0,1,.212,1.858c-.034.166-.152.326-.346.293a.4.4,0,0,1-.269-.23,34.211,34.211,0,0,0-3.02-6.032,1.569,1.569,0,0,1-.136-.744,2.789,2.789,0,0,0-.026-.89c-.653-1.733.3-2.893,1.329-4.09a5.631,5.631,0,0,0,1.505-4.579,3.191,3.191,0,0,0-.139-.615,1.148,1.148,0,0,0-.226-.287.675.675,0,0,0-.126.6,6.821,6.821,0,0,1-2.114,5.162,3.3,3.3,0,0,0-.994,2.64c.048.636.011,1.278.035,1.916a3.339,3.339,0,0,1-2.918,3.206c-.971.164-1.714-.626-1.3-1.43a9.356,9.356,0,0,0,.59-6.464,13.368,13.368,0,0,1,.392-6.289c.032-.12.116-.228.04-.353a3.966,3.966,0,0,0-1.152,2.184,14.41,14.41,0,0,0,.094,5.179,7.932,7.932,0,0,1-.34,4.749,6.116,6.116,0,0,0-.361,1.088,1.373,1.373,0,0,0,1.149,1.862,1.551,1.551,0,0,1,1.558,1.2c.4,1.029.844,2.041,1.291,3.051a2.647,2.647,0,0,1,.17,1.378c-.075.723-.5.927-1.167.591a2.981,2.981,0,0,1-1.225-1.262,23.183,23.183,0,0,1-2.727-7.9,27.021,27.021,0,0,1-.474-6.208c.264-3.783.709-7.535,2.771-10.862a1.878,1.878,0,0,0,.26-1.09,63.962,63.962,0,0,0-.859-9.495c-.639-3.757-1.257-7.519-1.968-11.262-.475-2.5-.858-5.01-1.187-7.527a43.724,43.724,0,0,1-.267-9.041,28.6,28.6,0,0,1,1.055-4.58q1.553-6.234,3.133-12.462c.124-.488.024-1.036.377-1.465.533-.376.992-.042,1.4.216,2.575,1.638,5.493,2.084,8.427,2.5a4.993,4.993,0,0,1,2.42.6C98.371,799.338,98.645,802.309,98.5,805.291Z" transform="translate(-80.43 -698.685)" fill="#efb995"/>
        <path id="Path_44220" data-name="Path 44220" d="M657.638,793.579c1.283,5.186,2.526,10.383,3.868,15.554a19.516,19.516,0,0,1,.725,6.294,97.948,97.948,0,0,1-1.077,9.983c-.661,3.8-1.289,7.6-2,11.387-.483,2.584-.89,5.18-1.176,7.787a49.73,49.73,0,0,0-.077,4.98,2,2,0,0,0,.341.951,23.253,23.253,0,0,1,2.5,10.427,28.688,28.688,0,0,1-1.549,10.9,10.168,10.168,0,0,1-2.3,4.213c-.363.339-.7.844-1.3.448-.559-.37-.519-.88-.341-1.471a41.387,41.387,0,0,1,1.7-4.125.977.977,0,0,1,.87-.617c1.525-.223,1.963-1.061,1.388-2.531a6.773,6.773,0,0,1-.778-3.188c.1-.926.288-1.843.378-2.769.22-2.286.426-4.578-.975-6.665-.308.223-.163.481-.1.681a15.417,15.417,0,0,1,.224,6.816,7.69,7.69,0,0,0,.46,4.962,2.45,2.45,0,0,1,.174.479,1.255,1.255,0,0,1-.173,1.32,1.28,1.28,0,0,1-1.417.273,3.483,3.483,0,0,1-2.5-4.133,3.806,3.806,0,0,0-.922-3.547,7.669,7.669,0,0,1-2.36-5.464,2.331,2.331,0,0,0-.331,2.256,7.978,7.978,0,0,0,2,3.513,3.568,3.568,0,0,1,.971,2.39,7.826,7.826,0,0,1-1.493,4.885,20.225,20.225,0,0,0-1.983,4.206,1.3,1.3,0,0,1-.473-1.61,9.777,9.777,0,0,1,.816-1.724,13.982,13.982,0,0,0,1.625-3.722,5.272,5.272,0,0,0-.372-3.715c-.636-1.3-1.325-2.575-1.942-3.884-1.349-2.859-1.557-5.684.168-8.518a10.875,10.875,0,0,1,2.689-3.2,4.219,4.219,0,0,0-2.079,1.085,29.3,29.3,0,0,0,.18-3.006c-.224-2.362-.337-4.73-.663-7.087-.708-5.128-1.97-10.147-2.835-15.241-.325-1.914-.516-3.86-.657-5.811-.121-1.669.076-3.3.1-4.943a10.608,10.608,0,0,1,1.07-4.168c.133-.293.4-.545.324-1.009-1.119.671-1.25,1.956-2.028,3.058-.488-2.255-1.33-4.211-1.2-6.376.043-.72-.016-1.446-.029-2.169q.04-1.53.08-3.06a.423.423,0,0,0,.049-.117c.195-2.283.2-2.234,2.524-2.533a21.964,21.964,0,0,0,8.121-2.307C656.365,793.436,656.982,792.788,657.638,793.579Z" transform="translate(-572.033 -698.968)" fill="#efb995"/>
        <path id="Path_44221" data-name="Path 44221" d="M315.467,453.351a9.268,9.268,0,0,1,2.918-.757c.467-.112.7.158.7.65-.012.806,0,1.612,0,2.5.852-.846,1.194-3.149,1.3-8.266.88-.363,1.2.387,1.6.861a9.671,9.671,0,0,0,10.892,3.057,9.778,9.778,0,0,0,4.478-3.015c.343-.443.866-.685,1.189-1.14l1.125-.5a34.784,34.784,0,0,1,.405,4.522,9.548,9.548,0,0,0,1.02,4.382c0-.661-.006-1.321,0-1.982.012-1.082.208-1.24,1.289-1.031.828.16,1.654.334,2.481.5a15.715,15.715,0,0,1-1.885,5.764,13.383,13.383,0,0,1-8.732,6.541c-5.014,1.178-9.7.469-13.823-2.853a13.83,13.83,0,0,1-4.328-6.633C315.8,455.108,315.669,454.218,315.467,453.351Z" transform="translate(-284.599 -396.84)" fill="#efb995"/>
        <path id="Path_44222" data-name="Path 44222" d="M658.182,771.494c-.511-.328-.894.06-1.28.266a18.372,18.372,0,0,1-5.066,1.967c-1.649.323-3.311.606-4.979.8-.7.08-.99.284-.944.989.024.366.106.771-.209,1.084,0-1.658.008-3.316,0-4.974a.775.775,0,0,1,.826-.892,28.6,28.6,0,0,0,10.117-2.786,1.459,1.459,0,0,1,.245-.069.963.963,0,0,1,.528.672C657.66,769.532,657.927,770.512,658.182,771.494Z" transform="translate(-572.578 -676.882)" fill="#d5a181"/>
        <path id="Path_44223" data-name="Path 44223" d="M130.2,774.694a27.729,27.729,0,0,1-4.275-.528,18.529,18.529,0,0,1-4.777-1.251,15.7,15.7,0,0,1-1.8-.949,2.949,2.949,0,0,0-1.395-.591c.19-.81.347-1.631.585-2.427.108-.36.1-.888.685-.921a30.23,30.23,0,0,0,10.06,2.834c.813.078.892.153.914,1.041C130.228,772.831,130.206,773.763,130.2,774.694Z" transform="translate(-112.366 -677.016)" fill="#d5a181"/>
        <path id="Path_44224" data-name="Path 44224" d="M705.522,1399.33a1.06,1.06,0,0,1-1.387.341,1.5,1.5,0,0,1-.854-1.439,6.4,6.4,0,0,1,.707-2.546c.51-1.113,1.139-2.171,1.7-3.262.228-.444.469-.646.993-.377s.334.59.169.938c-.472.993-.991,1.96-1.412,2.98A3.492,3.492,0,0,0,705.522,1399.33Z" transform="translate(-622.786 -1221.078)" fill="#edb794"/>
        <path id="Path_44225" data-name="Path 44225" d="M692.2,1387.407c-.757-.375-.73-.949-.611-1.557a10.416,10.416,0,0,1,1.184-2.924c.541-1,1.1-1.991,1.694-3.059.532.35.741.722.472,1.274-.241.494-.49.985-.739,1.476A19.21,19.21,0,0,0,692.2,1387.407Z" transform="translate(-612.537 -1210.563)" fill="#edb793"/>
        <path id="Path_44226" data-name="Path 44226" d="M129.162,1390.516c.7,1.368,1.356,2.644,2.008,3.921a5.269,5.269,0,0,1,.566,2.825,1.19,1.19,0,0,1-1,1.266.888.888,0,0,1-.839-.152c-.312-.278-.1-.538.031-.793a2.511,2.511,0,0,0,.078-1.963,21.766,21.766,0,0,0-1.528-3.48C128,1391.156,128,1391.153,129.162,1390.516Z" transform="translate(-121.275 -1219.849)" fill="#edb894"/>
        <path id="Path_44227" data-name="Path 44227" d="M141.222,1379.995a36.705,36.705,0,0,1,2.475,4.569,4,4,0,0,1,.317,2.6.437.437,0,0,1-.341.339c-.195.033-.3-.106-.324-.3-.189-1.738-1.187-3.143-1.919-4.657-.221-.457-.431-.922-.686-1.361C140.423,1380.63,140.694,1380.328,141.222,1379.995Z" transform="translate(-132.114 -1210.674)" fill="#ecb693"/>
        <path id="Path_44228" data-name="Path 44228" d="M353.319,250.141c-.014,2.382.307,4.738.491,7.106.255,3.281.085,6.547-1.615,9.533a8.2,8.2,0,0,1-4.006,3.775,18.752,18.752,0,0,1-15.556-.248c-2.268-1.05-3.425-2.984-4.291-5.155a11.921,11.921,0,0,1-.826-4.48,51.269,51.269,0,0,1,.493-8.767,11.92,11.92,0,0,0,.05-1.786,4.133,4.133,0,0,0,.486-.076c.938-.258.937-.261.819-1.294a.467.467,0,0,1,.167-.435,2.167,2.167,0,0,1,1.151.478c2.7,1.509,7.159,1.716,8.6-2.813.27-.85.753-1.578,1.869-1.063.089,3.074,1.619,5.627,2.979,8.243a1.514,1.514,0,0,1,.086.24c.7,2.19.022,3.755-1.924,4.433a3.976,3.976,0,0,1-5.115-2.092c-.45-1.179-.152-1.838.989-2.194-.688.073-1.068.256-1.116.853-.072.912-.666,1.283-1.307,1.733a5.038,5.038,0,0,0-1.924,6.019c-.111-.932-1.169-2.182.354-3.246a.883.883,0,0,1,.6.19c2.6,2.132,5.594,2.178,8.707,1.648,1.307-.222,2.229-1.208,3.425-1.638.616-.035.8.327.837.87a5.564,5.564,0,0,1-.345,2.245c.957-2.536-.024-4.468-1.9-6.113a2.1,2.1,0,0,1-.868-1.215,12.478,12.478,0,0,0-2.09-4.877,5.8,5.8,0,0,1-.722-1.762c-.1-.391-.306-.847.27-1.086.339-.009.524.226.722.448a5.623,5.623,0,0,0,7.366,1.412c.442-.217.83-.609,1.392-.507.061.056.162.1.178.169C352.036,249.923,352.034,249.924,353.319,250.141Z" transform="translate(-295.106 -220.696)" fill="#efb995"/>
        <path id="Path_44229" data-name="Path 44229" d="M345.105,72.908c-2.453.621-4.619-.307-6.789-1.182a10.323,10.323,0,0,0-7.831-.2c-.506.195-.989.448-1.7.772a8.569,8.569,0,0,1,3.64-2.882,11.793,11.793,0,0,1,4.586-.956,28.294,28.294,0,0,1,4.493.472c-3.389-1.995-8.478-1.058-12.693,2.311-.1-.519.227-.817.477-1.113a11.752,11.752,0,0,1,6.824-3.952,11.421,11.421,0,0,1,7.328.96,1.126,1.126,0,0,0,1.126.178,11.094,11.094,0,0,0-8.933-1.523,11.784,11.784,0,0,0-7.594,5.269,3.592,3.592,0,0,1,1.076-3.087,12.35,12.35,0,0,1,6.5-4.072,13.391,13.391,0,0,1,10.966,1.936,31.54,31.54,0,0,1,2.606,1.843,10.148,10.148,0,0,0,7.477,2.347c.252-.02.508,0,.76,0,.157.4-.184.542-.371.734a16.979,16.979,0,0,1-7.586,4.29,25.965,25.965,0,0,1-8.067,1.04,27.494,27.494,0,0,1-9.936-2.053,6.248,6.248,0,0,1-2.126-1.319,7.453,7.453,0,0,1,4.154-1.384,11.169,11.169,0,0,1,5.331,1.041,10.084,10.084,0,0,0,4.949,1.006A1.8,1.8,0,0,0,345.105,72.908Z" transform="translate(-295.529 -62.621)" fill="#eaecf0"/>
        <path id="Path_44230" data-name="Path 44230" d="M337.833,157.531a33.714,33.714,0,0,0,.982-9.2,28.388,28.388,0,0,0,10.751,2.6,27.515,27.515,0,0,0,10.639-1.773,13.116,13.116,0,0,1,.227,2.608c.23,1.941.7,3.841.916,5.781a.99.99,0,0,1-1.226.169.8.8,0,0,1-.292-.4,4.438,4.438,0,0,0-4.621-3.482,8.436,8.436,0,0,0-3.027.254c-.639.228-1.07,2.1-.569,2.507.269.22.57.05.848-.021a8.89,8.89,0,0,1,5.618.3c.517.205,1.145.464.366,1.132a1.543,1.543,0,0,1-1,.168c-1.971-.462-3.883.113-5.819.271-.544.045-.877.175-.959.768a1.088,1.088,0,0,1-1.128,1.009c-.742.036-.806-.538-.838-1.038-.042-.659-.442-.734-.953-.743-1.939-.035-3.84-.829-5.814-.277a1.29,1.29,0,0,1-.982-.2c-.492-.881.266-1.026.777-1.189a12.769,12.769,0,0,1,4.817-.239c.46.031,1,.482,1.336-.182a2.3,2.3,0,0,0-.642-2.2c-2.376-1.434-6.753.122-7.643,2.718a1.519,1.519,0,0,1-.542.844A.976.976,0,0,1,337.833,157.531Z" transform="translate(-304.103 -136.62)" fill="#efb995"/>
        <path id="Path_44231" data-name="Path 44231" d="M323.808,218.809a2.948,2.948,0,0,0,1.314.061c.619-.5,1.16-.209,1.691.169a6.582,6.582,0,0,0,2.514-.141,2.709,2.709,0,0,1,1.879.022,6.986,6.986,0,0,0,2.731.446c1.008.028,1.009.043,1.051,1.095.008.21,0,.421,0,.624,1.2.219,1.249.22,1.266-.886.011-.7.322-.852.928-.842a6.56,6.56,0,0,0,2.859-.438,2.537,2.537,0,0,1,1.754-.04,7.256,7.256,0,0,0,2.766.156c.468-.188.9-.65,1.451-.178a2.894,2.894,0,0,0,1.31-.029l1.02,0c.6-.351,1.262-.248,1.163.457a11.914,11.914,0,0,1-1.335,4.775.674.674,0,0,1-.313.2l-1.328,1.466a7.411,7.411,0,0,1-5.59,1.553,4.686,4.686,0,0,1-3.186-1.885c-.246-.287-.441-.617-.659-.928-.859-.5-.566-1.54-1.053-2.214-1.127-.006-1.118,0-1.461.956a8.748,8.748,0,0,1-.583,1.411,4.834,4.834,0,0,1-4.2,2.67,6.96,6.96,0,0,1-5.294-1.769l-1.17-1.337c-.609-.294-.677-.9-.85-1.452a19.05,19.05,0,0,1-.7-2.925c-.138-.959.176-1.18,1.211-1Z" transform="translate(-290.079 -197.899)" fill="#2c2a33"/>
        <path id="Path_44232" data-name="Path 44232" d="M538.538,230.466c1.946-.209,2.887,1.161,3.028,2.857a13.731,13.731,0,0,1-1.609,8.109,3.722,3.722,0,0,1-1.582,1.6c-.645.314-1.03.15-1.079-.515a12.778,12.778,0,0,1-.016-2.545c.139-1.083,1.027-1.451,1.966-1.747a2.022,2.022,0,0,0-2.029.417c.52-2.064,1.021-3.785,2.838-4.709-.84-.137-.859-.157-1.276.238-.368.348-.658.78-1.037,1.114-.242.213-.187-.129-.26-.228A24.7,24.7,0,0,1,538.538,230.466Z" transform="translate(-477.974 -208.225)" fill="#ecb693"/>
        <path id="Path_44233" data-name="Path 44233" d="M292.779,235.984c-.275-.374-.553-.745-.823-1.123a2.028,2.028,0,0,0-1.959-.9,4.606,4.606,0,0,1,1.905,1.876,5.807,5.807,0,0,1,.839,2.394c-.586.353-1.235-.376-1.923.229.941.018,1.37.644,1.877,1.168a1.136,1.136,0,0,1,.3.939,23.709,23.709,0,0,0-.285,2.4c.007.421-.342.444-.652.317a3.833,3.833,0,0,1-1.85-1.7,14.391,14.391,0,0,1-1.578-8.342c.278-1.57.984-2.8,3.072-2.6A34.125,34.125,0,0,1,292.779,235.984Z" transform="translate(-261.099 -208.376)" fill="#ecb693"/>
        <path id="Path_44234" data-name="Path 44234" d="M314.605,149.506c-1.1.1-1.1.1-.987,1.168a13.707,13.707,0,0,0,1.326,4.207c-.109.609.258,1.158.222,1.761-.017.283-.08.522-.413.51-.259-.009-.324-.224-.352-.449a62.587,62.587,0,0,0-1.748-8.089,1.271,1.271,0,0,1,.487-1.459,5.449,5.449,0,0,0,1.46-1.371c-.958,0-1.357.864-2.057,1.163-.373-1.125-.351-1.268.392-1.874.492-.4,1.01-.771,1.7-1.293-1.082.065-1.635.755-2.433,1.175a5.557,5.557,0,0,1,.323-2.684,7.9,7.9,0,0,1,1.433-2.544c.192-.266.388-.669.767-.58a1.218,1.218,0,0,1,.948.931,7.206,7.206,0,0,1,.122,3.039C315.412,145.25,315,147.377,314.605,149.506Z" transform="translate(-281.691 -128.599)" fill="#e8eaee"/>
        <path id="Path_44235" data-name="Path 44235" d="M519.951,159.841a13.7,13.7,0,0,0,1.39-4.457c.091-.879.106-.877-.9-.978a31.751,31.751,0,0,1-1.339-7.876,2.041,2.041,0,0,1,1.632-1.792c.306-.038.459.152.625.351a6.83,6.83,0,0,1,1.3,4.6c-.734-.223-1.21-.947-2.233-1.034.673.564,1.213.985,1.716,1.446.645.591.633.6.372,1.736-.478-.122-.739-.554-1.123-.782a3.19,3.19,0,0,0-1.343-.625c.435.746,1.152,1.053,1.678,1.549a1.466,1.466,0,0,1,.533,1.655,58.7,58.7,0,0,0-1.667,7.58.4.4,0,0,1-.033.123c-.133.271,0,.795-.522.71-.5-.082-.343-.51-.262-.821A4.423,4.423,0,0,0,519.951,159.841Z" transform="translate(-462.171 -133.481)" fill="#e8eaee"/>
        <path id="Path_44236" data-name="Path 44236" d="M371.806,446.352a7.182,7.182,0,0,1-2.28,2.65,12.693,12.693,0,0,1-4.782,2.263,9.557,9.557,0,0,1-6.616-1.083,9.02,9.02,0,0,1-3.372-2.829,1.307,1.307,0,0,0-1.11-.763c0-.288-.108-.591.125-.866A19.485,19.485,0,0,0,371.806,446.352Z" transform="translate(-317.871 -395.956)" fill="#d5a282"/>
        <path id="Path_44237" data-name="Path 44237" d="M170.145,2069.16a21.467,21.467,0,0,1-9.549-1.82,11.688,11.688,0,0,1-2.21-1.266c-.849-.6-.888-.773-.486-1.694a9.676,9.676,0,0,1,7.9-5.916,14.055,14.055,0,0,1,7.527.833,12.22,12.22,0,0,1,6.533,6.494c.546,1.188.455,1.29-.735,1.784A20.826,20.826,0,0,1,170.145,2069.16Z" transform="translate(-146.979 -1802.171)" fill="#dee6e6"/>
        <path id="Path_44238" data-name="Path 44238" d="M154.138,2111.924c7.692,5.959,20.618,4.353,27.512-1.823a3.689,3.689,0,0,1-.993,3.685,20.368,20.368,0,0,1-10.474,5.757,23.324,23.324,0,0,1-7.367.18,22.607,22.607,0,0,1-7.57-2.14c-.152-.077-.3-.175-.453-.237a1.444,1.444,0,0,1-.937-1.6C153.877,2114.474,154.03,2113.225,154.138,2111.924Z" transform="translate(-143.667 -1847.353)" fill="#dee6e6"/>
        <path id="Path_44239" data-name="Path 44239" d="M536.811,2069.467a20.7,20.7,0,0,1-9.318-1.736c-.609-.264-.77-.521-.545-1.133a10.318,10.318,0,0,1,1.143-2.27,12.23,12.23,0,0,1,10.273-5.675,11.725,11.725,0,0,1,7.7,2.12,9.639,9.639,0,0,1,3.16,4.229.853.853,0,0,1-.34,1.178,14.905,14.905,0,0,1-4.548,2.249A20.391,20.391,0,0,1,536.811,2069.467Z" transform="translate(-468.934 -1802.481)" fill="#dee6e6"/>
        <path id="Path_44240" data-name="Path 44240" d="M487.732,2109.311a22.586,22.586,0,0,0,13.57,5.568c5.049.355,9.835-.431,13.947-3.786l.234.2c0,1.432-.009,2.864.005,4.3a1.018,1.018,0,0,1-.584.9,13.144,13.144,0,0,1-3.742,1.605,23.422,23.422,0,0,1-14.794-.054,21.54,21.54,0,0,1-7.555-4.891A3.623,3.623,0,0,1,487.732,2109.311Z" transform="translate(-434.691 -1846.664)" fill="#dee6e6"/>
        <path id="Path_44241" data-name="Path 44241" d="M379.394,247.107c.763.542.694,1.48,1.053,2.214a3.267,3.267,0,0,0,.675,2.548,21.124,21.124,0,0,1,1.6,3.022c.04.12.137.233.143.352.073,1.651,1.122,2.675,2.219,3.753a4.892,4.892,0,0,1,.3,6.291,3.882,3.882,0,0,1,.3-1.865,7.57,7.57,0,0,0,.1-1.515.549.549,0,0,0-.533-.593c-.041-.258-.267-.418-.354-.655a2.421,2.421,0,0,0-.594-1.251c-.541-.616-.914-.95-1.661-.065a4.683,4.683,0,0,1-6.82-.008c-1.076-1.187-1.367-1.16-2.314.185a4.813,4.813,0,0,0-.614,1.258c-.083.181-.269.23-.418.327a2.054,2.054,0,0,0-.364,2.024,5.914,5.914,0,0,1,.344,1.986,2.987,2.987,0,0,1-.968-2.174,5.358,5.358,0,0,1,2.734-5.23,1.578,1.578,0,0,0,.881-1.248c.131-1.026.812-1.338,1.8-.985.046.282-.194.2-.325.246-.947.322-1.195.8-.893,1.735a3.617,3.617,0,0,0,4.3,2.3c2.107-.465,2.925-1.9,2.283-4a7.029,7.029,0,0,0-.911-2.091A9.547,9.547,0,0,1,379.394,247.107Z" transform="translate(-333.431 -222.755)" fill="#b7866e"/>
        <path id="Path_44242" data-name="Path 44242" d="M379.412,354.243a.317.317,0,0,1,.3-.307.847.847,0,0,1,.613.092,11.271,11.271,0,0,0,11.16.029.818.818,0,0,1,.5-.064c.553-.068.266.248.209.458C388.927,357.7,382.111,357.1,379.412,354.243Z" transform="translate(-340.362 -315.893)" fill="#120b09"/>
        <path id="Path_44243" data-name="Path 44243" d="M438.612,399.886c.2,1.256-.641,1.791-1.5,2.251a2.4,2.4,0,0,1-2.989-.252A4.186,4.186,0,0,0,438.612,399.886Z" transform="translate(-388.071 -355.983)" fill="#ba886f"/>
        <path id="Path_44244" data-name="Path 44244" d="M349.786,192.361a9.184,9.184,0,0,1-1.691-.169,4.005,4.005,0,0,1,.877-2.427,5.622,5.622,0,0,1,3.238-1.616,8.659,8.659,0,0,1,3.9.179c.593.187.963.472.967,1.136,0,.249.107.5.128.747.14,1.707.149,1.644-1.539,1.33a11.249,11.249,0,0,0-5.034.161C350.28,191.8,349.88,191.9,349.786,192.361Z" transform="translate(-313.052 -171.221)" fill="#8d949b"/>
        <path id="Path_44245" data-name="Path 44245" d="M450.371,192.226c-.49.014-.944.32-1.452.178.123-.35-.11-.394-.368-.5a9.07,9.07,0,0,0-5.855-.3,2.639,2.639,0,0,1-1.159.227,12.487,12.487,0,0,1-.088-2.629c-.013-.35.212-.521.5-.664,1.887-.942,5.771-.407,7.39.979A2.755,2.755,0,0,1,450.371,192.226Z" transform="translate(-394.437 -171.268)" fill="#8a9199"/>
        <path id="Path_44246" data-name="Path 44246" d="M344.641,229.078a6.174,6.174,0,0,1-.066,1.9c-.608,3.2-2.93,4.985-6.623,4.029a5.537,5.537,0,0,1-3.962-4.261c-.551-1.945-.537-1.949,1.509-1.934.552,0,1.1.032,1.655.007.718-.033.474.364.351.721-.155.341.06.656.078.987.106,1.961.666,2.653,2.477,3.148,1.235.338,2.344-.188,3.295-1.566.043-.12.091-.236.136-.355a6.014,6.014,0,0,0,.034-1.853C343.437,228.969,343.754,228.653,344.641,229.078Z" transform="translate(-300.483 -206.8)" fill="#e9c0a2"/>
        <path id="Path_44247" data-name="Path 44247" d="M451.509,231.374a5.542,5.542,0,0,1-5.5,4.4,4.611,4.611,0,0,1-4.934-3.855,7.248,7.248,0,0,1-.143-1.767c.02-.694.239-.749,1.058-.345.036.946-.432,1.919.155,2.834.062.1.118.2.175.3,1.77,2.043,4.561,1.722,5.58-.645.419-.728-.078-1.477.05-2.211l-.067-.523a15.1,15.1,0,0,1,3.132-.116c.571-.03.75.31.65.812C451.594,230.63,451.711,231.025,451.509,231.374Z" transform="translate(-394.007 -207.333)" fill="#eac0a1"/>
        <path id="Path_44248" data-name="Path 44248" d="M367.8,229.517l.479.285c1.042.768.659,1.8.52,2.788l.013-.021c-1.49,1.9-3.069,2.269-4.976,1.155a2.391,2.391,0,0,1-.92-3.438,3,3,0,0,1,1.031-.771A12.338,12.338,0,0,1,367.8,229.517Z" transform="translate(-325.643 -207.283)" fill="#f2f8f8"/>
        <path id="Path_44249" data-name="Path 44249" d="M451.481,229.514c.395.074.62.412.94.6.522.127.381.616.52.953a3.725,3.725,0,0,1,0,.787,4.493,4.493,0,0,0-.118.584,3.493,3.493,0,0,1-5.99.414l.013.015c-.461-.977-.729-1.939.224-2.8a1.867,1.867,0,0,1,.751-.54A13.983,13.983,0,0,1,451.481,229.514Z" transform="translate(-398.803 -207.313)" fill="#f1f8f8"/>
        <path id="Path_44250" data-name="Path 44250" d="M362.226,234.776c-.616,1.846.014,3.047,1.838,3.579a3.718,3.718,0,0,0,4.058-1.3,3.042,3.042,0,0,1-3.015,2.047,3.266,3.266,0,0,1-3.131-4.592Z" transform="translate(-324.953 -211.772)" fill="#706860"/>
        <path id="Path_44251" data-name="Path 44251" d="M498.708,230.51c-.067-1.841-.067-1.842-1.976-1.831-.549,0-1.1.014-1.647.022a.153.153,0,0,1,.142-.247c1.1-.014,2.2-.007,3.3-.023.564-.008.8.256.634.781C499.022,229.648,499.052,230.146,498.708,230.51Z" transform="translate(-441.207 -206.469)" fill="#8b968e"/>
        <path id="Path_44252" data-name="Path 44252" d="M407.957,231.967a3.612,3.612,0,0,0-.52-2.788c.661-.646.8-.667,1.521-.24-.861.038-.8.036-.775.781S408.483,231.266,407.957,231.967Z" transform="translate(-364.8 -206.66)" fill="#72736c"/>
        <path id="Path_44253" data-name="Path 44253" d="M377.436,228.409h-3.854A6.079,6.079,0,0,1,377.436,228.409Z" transform="translate(-335.278 -206.175)" fill="#7cb0b3"/>
        <path id="Path_44254" data-name="Path 44254" d="M446.024,232.717a3.346,3.346,0,0,0-.224,2.8c-.891-1.01-.606-2.043-.06-3.081Z" transform="translate(-397.756 -209.964)" fill="#877c71"/>
        <path id="Path_44255" data-name="Path 44255" d="M460.977,228.436l-3.659.013A6.156,6.156,0,0,1,460.977,228.436Z" transform="translate(-408.298 -206.235)" fill="#7fb4b7"/>
        <path id="Path_44256" data-name="Path 44256" d="M493.634,235.664a2.92,2.92,0,0,0-.374-.99l.327-.048a2.048,2.048,0,0,1,.186,2.306q-.092.158-.179,0l.038-.543A1.25,1.25,0,0,0,493.634,235.664Z" transform="translate(-439.641 -211.87)" fill="#8b968e"/>
        <path id="Path_44257" data-name="Path 44257" d="M393.152,334.206a6.938,6.938,0,0,1-3.661,1.64c-3.065.464-6.014.265-8.607-1.7-.055-.195-.2-.37-.073-.6a6.227,6.227,0,0,1,1.778-2.124c.4-.284.705-.334.985.235a3.793,3.793,0,0,0,2.977,2.1,4.182,4.182,0,0,0,4.442-1.913c.085-.139.185-.269.332-.481a6.634,6.634,0,0,1,1.73,1.672A.916.916,0,0,1,393.152,334.206Z" transform="translate(-341.537 -296.106)" fill="#efb995"/>
        <path id="Path_44258" data-name="Path 44258" d="M351.882,195.688a1.417,1.417,0,0,1,.273-1.72,4.93,4.93,0,0,1,2.271-1.345,8.382,8.382,0,0,1,4.154-.163c1.044.208,1.056.279,1.075,1.368,0,.251,0,.5,0,.932A9.934,9.934,0,0,0,351.882,195.688Z" transform="translate(-316.205 -174.939)" fill="#e9ebef"/>
        <path id="Path_44259" data-name="Path 44259" d="M453.753,195.6a9.4,9.4,0,0,0-7.724-.914c-.1-.106-.2-.162-.2-.222-.078-1.919-.29-1.9,1.836-2.2a7.064,7.064,0,0,1,4.909.943C453.365,193.718,454.085,194.314,453.753,195.6Z" transform="translate(-398.236 -174.854)" fill="#e8ebef"/>
        <path id="Path_44260" data-name="Path 44260" d="M455.515,252.629q.09,0,.18,0a3.265,3.265,0,0,1-3.67,2.18c-1.02-.212-2.113-.434-2.432-1.7.326.049.457.356.691.528A3.635,3.635,0,0,0,455.515,252.629Z" transform="translate(-401.562 -227.57)" fill="#6d665f"/>
        <path id="Path_44261" data-name="Path 44261" d="M383.342,235.9a1.377,1.377,0,0,1,1.368,1.393,1.451,1.451,0,0,1-1.461,1.459,1.515,1.515,0,0,1-1.382-1.559A1.409,1.409,0,0,1,383.342,235.9Z" transform="translate(-342.499 -212.982)" fill="#393e3e"/>
        <path id="Path_44262" data-name="Path 44262" d="M458.783,237.244a1.413,1.413,0,1,1-2.826-.041,1.422,1.422,0,0,1,1.514-1.378A1.334,1.334,0,0,1,458.783,237.244Z" transform="translate(-407.112 -212.914)" fill="#292c2c"/>
        <path id="Path_44263" data-name="Path 44263" d="M495.8,242.742a.479.479,0,0,1,0,.722A1.219,1.219,0,0,1,495.8,242.742Z" transform="translate(-441.809 -218.948)" fill="#eac0a1"/>
        <path id="Path_44264" data-name="Path 44264" d="M392.9,240.518a.421.421,0,1,1-.837.069.377.377,0,0,1,.39-.4A.4.4,0,0,1,392.9,240.518Z" transform="translate(-351.391 -216.72)" fill="#ced7d6"/>
        <path id="Path_44265" data-name="Path 44265" d="M467.474,241.1a.4.4,0,0,1-.422.346.412.412,0,1,1-.016-.823C467.332,240.633,467.462,240.812,467.474,241.1Z" transform="translate(-416.412 -217.1)" fill="#bac9c9"/>
      </g>
    </g>
  </g>
</svg>
