<svg xmlns="http://www.w3.org/2000/svg" xmlns:xlink="http://www.w3.org/1999/xlink" width="75.78" height="75.78" viewBox="0 0 75.78 75.78">
  <defs>
    <clipPath id="clip-path">
      <ellipse id="Ellipse_1023" data-name="Ellipse 1023" cx="37.89" cy="37.89" rx="37.89" ry="37.89" transform="translate(742.854 -5982)" fill="#f2f2f2"/>
    </clipPath>
  </defs>
  <g id="Group_68431" data-name="Group 68431" transform="translate(-742.854 5982)">
    <ellipse id="Ellipse_1017" data-name="Ellipse 1017" cx="37.89" cy="37.89" rx="37.89" ry="37.89" transform="translate(742.854 -5982)" fill="#f2f2f2"/>
    <g id="Mask_Group_16416" data-name="Mask Group 16416" clip-path="url(#clip-path)">
      <g id="YoungM0001-01" transform="translate(736.351 -5975)">
        <path id="Path_43807" data-name="Path 43807" d="M273.072,1285.686a3.266,3.266,0,0,0-.6-.221c-.781-.129-.947-.6-.981-1.344q-.477-10.714-1.032-21.425-.485-9.562-1.013-19.123c-.5-9.179-1.022-18.358-1.514-27.538-.282-5.27-.521-10.542-.781-15.814-.065-1.318-.143-2.635-.208-3.953-.018-.356-.021-.678-.526-.685-.444-.006-.607.208-.633.606-.019.3-.05.594-.064.891q-.427,9.12-.853,18.24c-.077,1.615-.18,3.229-.27,4.843-.249.941.063,1.916-.174,2.858q-.041,1-.083,2c-.251.94.07,1.916-.179,2.856q-.562,10.58-1.123,21.161-.514,9.814-1.013,19.63-.4,7.776-.77,15.553c-.023.482,0,1.016-.6,1.1-.918.135-.973.77-.984,1.47-.657-.806-1.464-.6-2.281-.334a22.512,22.512,0,0,1-8.675-.259c-.584-.22-1.285-.162-1.735-.711-1.281-.433-1.27-.434-1.312-1.728q-.384-11.736-.78-23.471c-.236-6.675-.51-13.348-.765-20.022q-.124-3.252-.237-6.5c-.238-1.2.08-2.426-.175-3.625q-.422-10.979-.844-21.958c-.247-1.457.078-2.937-.177-4.394q-.042-2.017-.084-4.034c-.237-1.715.081-3.448-.169-5.162q-.039-1.389-.079-2.778c-.26-1.628.084-3.278-.179-4.905q-.036-3.078-.071-6.155c.819-.184,1.674-.478,2.053.678a2.217,2.217,0,0,0-.484,1.531c.129,4.3.219,8.6.425,12.894.285,5.953.283,11.916.692,17.864.178,2.589.172,5.193.234,7.785.086,3.618.223,7.239.37,10.851.282,6.933.56,13.865.769,20.8.155,5.149.287,10.3.512,15.444.206,4.722.075,9.453.454,14.169.069.855.373,1.35,1.221,1.517a27.875,27.875,0,0,0,9.91.134c1.357-.22,1.592-.578,1.618-2.016.039-2.172.163-4.342.218-6.509.124-4.9.39-9.786.622-14.674q.4-8.542.9-17.085c.295-5.013.6-10.028.88-15.042q.493-8.86.915-17.723c.23-4.8.559-9.605.629-14.418.012-.847-.3-1.132-1.086-1.18a17.231,17.231,0,0,1-5.309-1.335,3.494,3.494,0,0,1-.578-.271c-.386-.243-.985-.482-.785-1,.208-.534.822-.291,1.257-.185a41.732,41.732,0,0,0,14.223.722,21.447,21.447,0,0,0,3.493-.757c.37-.1.9-.216,1.057.151.222.5-.337.72-.689.9a18.532,18.532,0,0,1-5.361,1.626c-1.608.259-1.743.341-1.619,1.963.328,4.288.348,8.591.674,12.879.152,1.994.217,4,.292,5.994.236,6.254.667,12.5,1,18.744.277,5.271.6,10.54.875,15.811.318,6.077.576,12.158.9,18.235.152,2.844.427,5.695.32,8.55-.066,1.756.3,3.48.284,5.229a1.166,1.166,0,0,0,1.022,1.265,25.81,25.81,0,0,0,10.776-.125,1.062,1.062,0,0,0,.909-1.078c.007-.17.03-.34.023-.511-.167-4.6.176-9.2.31-13.794.189-6.466.26-12.939.682-19.4.161-2.463.093-4.935.21-7.4q.205-4.333.374-8.677c.231-5.869.3-11.745.688-17.609.167-2.548.18-5.109.232-7.658.077-3.747.236-7.494.376-11.235.194-5.189.206-10.383.468-15.57a1.079,1.079,0,0,1,1.61-.489q-.118,4.75-.235,9.5c-.264,1.626.07,3.275-.177,4.9q-.168,6.11-.335,12.221c-.258,1.456.07,2.936-.178,4.393q-.041,1.386-.081,2.771c-.247,1.286.064,2.6-.172,3.882q-.167,4.328-.335,8.655c-.257,1.2.063,2.425-.176,3.624l-.079,2.264c-.263,1.455.07,2.934-.181,4.39q-.367,9.635-.732,19.27-.2,5.3-.362,10.595c-.181,5.617-.4,11.233-.486,16.851-.016,1.125-.819,1.119-1.359,1.552a9.264,9.264,0,0,1-1.81.607,22.634,22.634,0,0,1-8.693.22C274.543,1286.19,273.693,1286.271,273.072,1285.686Z" transform="translate(-220.867 -1038.044)" fill="#445f75"/>
        <path id="Path_43808" data-name="Path 43808" d="M154.544,586.173l-1.473.343a2.113,2.113,0,0,1-1.447.722,89.933,89.933,0,0,1-18.21,2.218,98.869,98.869,0,0,1-22.848-1.85,4.422,4.422,0,0,1-2.477-.885,8.7,8.7,0,0,0-2.1-.54c-1.513-.549-3.032-1.079-4.536-1.651-.878-.334-.864-.363-.689-1.3a137.081,137.081,0,0,0,2.226-18.717q.23-5,0-10l-.062-.956c-.461-.492-.326-1.106-.344-1.688a32.93,32.93,0,0,0-.15-5.187,15.667,15.667,0,0,1-.117-2.749,33.987,33.987,0,0,0-.122-4.7c-.114-1.013-.465-1.442-1.527-1.584a27.267,27.267,0,0,1-9.1-2.739c-.492-.322-1.121-.478-1.363-1.109a40.085,40.085,0,0,1-3.788-2.594c-.386-.3-.564-.517-.218-1.021a39.937,39.937,0,0,0,4.513-9.543c1.293-3.691,2.459-7.429,4.058-11.007a16.07,16.07,0,0,1,3.113-4.936,9.011,9.011,0,0,1,7.226-2.88,5.458,5.458,0,0,0,3.027-.666,33.349,33.349,0,0,1,6.591-2.346,3.579,3.579,0,0,1,.757-.048c.5.484.242,1.173.477,1.728.9,4.109,2.784,7.58,6.52,9.789,6.406,3.788,16.5,2.555,20.6-5.337a24.412,24.412,0,0,0,1.583-4.708c.3-.467-.12-1.3.752-1.482a30.574,30.574,0,0,1,7.657,2.75,2.693,2.693,0,0,0,1.577.347c4.388-.4,7.546,1.529,9.762,5.2a37.608,37.608,0,0,1,3,6.762c.953,2.642,1.851,5.3,2.8,7.95a36.1,36.1,0,0,0,4.067,8.361c.365.533.232.788-.223,1.126a40.908,40.908,0,0,1-3.8,2.58,3.178,3.178,0,0,1-1.353,1.1,27.849,27.849,0,0,1-9.222,2.722c-1.1.128-1.48.563-1.389,1.617.062.715.02,1.44.025,2.162-.049,2.9-.354,5.788-.232,8.689-.087,1.33.107,2.7-.6,3.937-.008,2.8-.078,5.61-.01,8.412a127.315,127.315,0,0,0,1.9,18.48c.144.837.236,1.686.441,2.507.15.6-.064.846-.594,1.024-1.165.392-2.317.824-3.474,1.238A4.167,4.167,0,0,0,154.544,586.173Z" transform="translate(-84.743 -443.471)" fill="#b6443e"/>
        <path id="Path_43809" data-name="Path 43809" d="M357.17,78.719a.757.757,0,0,1-.438.567c-1.021.557-1.713,1.52-2.674,2.155a21.384,21.384,0,0,1-9.22,3.2,28.232,28.232,0,0,1-13.205-1.414,9.9,9.9,0,0,1-2.519-1.231c-.8-.576-.768-1.055.113-1.5a9.6,9.6,0,0,1,8.264-.095,12.728,12.728,0,0,0,5.156,1.3,4.222,4.222,0,0,0,1.153-.166,8.091,8.091,0,0,1-4.953-.611,24.669,24.669,0,0,0-3.247-1.138,9.384,9.384,0,0,0-6.338.654c-.293.141-.658.409-.927.062-.335-.432.1-.7.365-.944,2.811-2.591,6.178-3.208,9.839-2.708.334.046.67.095.911.12a14,14,0,0,0-6.1.054A10.193,10.193,0,0,0,328.5,79.7c-.247.247-.52.8-.9.485-.439-.366.071-.758.288-1.087a11.417,11.417,0,0,1,7.32-4.7,11.642,11.642,0,0,1,7.471.923c-4.94-2.689-11.515-.771-14.616,3.463-.223.3-.437.727-.9.5-.445-.219-.282-.676-.2-1.032a5.739,5.739,0,0,1,1.61-2.564c4.5-4.729,11.565-5.348,17.212-1.826a24.716,24.716,0,0,1,2.5,1.775,10.874,10.874,0,0,0,7.55,2.6C356.327,78.217,356.9,78.084,357.17,78.719Z" transform="translate(-294.782 -70.999)" fill="#272c32"/>
        <path id="Path_43810" data-name="Path 43810" d="M81.57,772.658l1.265.746c-.209,1.294-.73,2.51-.958,3.8-1.135,4.9-2.3,9.794-3.663,14.632a29.922,29.922,0,0,0-.566,11.4c.772,7.47,2.6,14.767,3.594,22.2a44.362,44.362,0,0,1,.389,6.88,4.816,4.816,0,0,1-.52,2.087A23.461,23.461,0,0,0,78.8,844.653a26.972,26.972,0,0,0,2.118,11.962,8.654,8.654,0,0,0,1.361,2.3c.272.3.57.752,1.054.478.405-.23.266-.693.164-1.052a22.162,22.162,0,0,0-1.547-3.638c-.2-.415-.635-.523-1.038-.68-1.285-.5-1.867-1.379-1.325-2.6.963-2.165.742-4.3.388-6.511a12.121,12.121,0,0,1,.048-3.948,5.557,5.557,0,0,1,.745-2.029c.158-.253.354-.606.656-.522.381.107.348.532.333.876a3.112,3.112,0,0,1-.074.505,17.655,17.655,0,0,0-.038,6.858,7.252,7.252,0,0,1-.425,4.25c-.227.536-.531,1.189.052,1.653.621.494,1.229.063,1.742-.309a2.893,2.893,0,0,0,1.345-3.083,4.538,4.538,0,0,1,1.308-4.323,7.423,7.423,0,0,0,1.907-4.245c.051-.351.023-.9.511-.881.407.018.5.529.589.9a3.528,3.528,0,0,1-.145,2.013,8.14,8.14,0,0,1-1.589,2.9c-1.707,1.851-1.542,3.825-.551,5.9.765,1.6,1.8,3.059,2.486,4.705a4.759,4.759,0,0,0-.919-2.445c-1.9-2.949-2.2-5.9-.28-9a17.047,17.047,0,0,0,1.876-4.328c.911-3.195-.377-5.738-2.3-8.118-.053-.066-.125-.117-.179-.182-.338-.407-1-.622-.891-1.294.044-.282.552-.2,1.652.27-.093-6.263,1.049-12.363,2.328-18.443a66.052,66.052,0,0,0,1.857-13.391c.007-2.5-.026-5.044-1.18-7.381a2.225,2.225,0,0,1-.177-.479c-.057-.246-.155-.532.091-.7.312-.218.562.042.785.22a8.023,8.023,0,0,1,1.207,1.791,17.5,17.5,0,0,0,.97-5.414c-.028-.61-.18-1.3.386-1.8a1.17,1.17,0,0,1,.2.847q-.005,3.062-.013,6.123a8.86,8.86,0,0,0-1.006,4.165,52.837,52.837,0,0,1-1.359,13.555c-.885,4.335-1.832,8.658-2.378,13.053-.357,2.875-.444,5.771-.607,8.661a2.468,2.468,0,0,0,.518,1.529,8.627,8.627,0,0,1,1.235,7.2,16.446,16.446,0,0,1-1.3,3.186c-.388.758-.775,1.517-1.185,2.263a5.723,5.723,0,0,0-.049,5.625q.543,1.084,1.142,2.141a7.511,7.511,0,0,1,.782,1.878,1.721,1.721,0,0,1-.2,1.477c-1.079,1.368-1.7,3.076-3.174,4.154a2.131,2.131,0,0,1-2.491.238,4.351,4.351,0,0,0-1.394-.576,3.266,3.266,0,0,1-2.012-1.663,19.741,19.741,0,0,1-2.575-6.363,30.406,30.406,0,0,1,.223-15.034,14.368,14.368,0,0,1,1.8-4.211,2.939,2.939,0,0,0,.5-2.045c-.434-3.933-.956-7.852-1.659-11.748-.937-5.189-1.979-10.361-2.631-15.6a48.828,48.828,0,0,1-.283-8.672,9.629,9.629,0,0,1,.281-1.761q2.433-9.917,4.893-19.827A4.167,4.167,0,0,0,81.57,772.658Z" transform="translate(-76.113 -682.333)" fill="#b3836c"/>
        <path id="Path_43811" data-name="Path 43811" d="M644.354,793.118c-.054-1.308.336-2.588.248-3.9.681.2.623.841.779,1.336.242.765.37,1.564.653,2.464a7.549,7.549,0,0,1,1.24-2.117c.2-.219.465-.49.757-.355.414.191.252.608.117.9a14.877,14.877,0,0,0-1.211,4.156c-.625,4.24-.018,8.413.742,12.566.9,4.944,2.052,9.842,2.716,14.831a48.313,48.313,0,0,1,.41,7.389c0,.244-.072.515.161.739.575.032,1.27-.866,1.672-.129.3.545-.558.941-.951,1.345-2.425,2.5-3.734,6.063-2,9.713.494,1.038.921,2.117,1.506,3.1,1.717,2.892,1.369,5.689-.233,8.473a5.375,5.375,0,0,0-1.068,2.662,32.309,32.309,0,0,1,2.084-3.861,9.444,9.444,0,0,0,1.1-4.02,3.492,3.492,0,0,0-1.17-2.6,6.436,6.436,0,0,1-1.814-4.506,5.339,5.339,0,0,1,.048-.637c.076-.426.179-.989.63-1,.559-.014.51.607.513,1a6.533,6.533,0,0,0,1.81,4.4,4.874,4.874,0,0,1,1.293,3.863,6.43,6.43,0,0,0,.051,1.658,2.96,2.96,0,0,0,2.281,2.323c.828.123,1.358-.339,1.025-1.078-1.1-2.452-.686-4.916-.306-7.411a12.391,12.391,0,0,0-.372-4.561c-.09-.405-.426-1.038.18-1.211.509-.145.755.47.931.889a8.607,8.607,0,0,1,.706,4.489c-.138,1.056-.222,2.117-.359,3.173a7.8,7.8,0,0,0,.483,3.883c.728,1.884.415,2.5-1.409,3.242-.239.1-.513.168-.64.4a14.633,14.633,0,0,0-1.736,4.091.719.719,0,0,0,.215.817c.353.209.652-.046.9-.286a6.049,6.049,0,0,0,1.188-1.808,27.293,27.293,0,0,0,2.376-14.288,23.178,23.178,0,0,0-2.575-9.283c-.679-1.23-.316-2.669-.222-4.025.528-7.673,2.453-15.128,3.539-22.714a63.981,63.981,0,0,0,.7-11.075,8.6,8.6,0,0,0-.292-1.89c-1.47-5.692-2.786-11.423-4.253-17.116a22.885,22.885,0,0,0-.983-3.518l1.318-.741c.488,2.593,1.26,5.117,1.87,7.68,1.094,4.593,2.272,9.167,3.328,13.77a21.488,21.488,0,0,1,.3,6.233,165.382,165.382,0,0,1-2.868,18.909c-.776,4.228-1.329,8.487-1.825,12.755a1.944,1.944,0,0,0,.365,1.317,21.421,21.421,0,0,1,2.928,10.2,29.643,29.643,0,0,1-1.067,10.734,20.719,20.719,0,0,1-1.745,4.244c-.7,1.248-1.466,2.41-3.087,2.594-.309.035-.586.322-.884.482a1.944,1.944,0,0,1-2.269-.231,7.494,7.494,0,0,1-1.725-1.667,30.425,30.425,0,0,0-1.6-2.645,2.006,2.006,0,0,1-.045-1.85,12.832,12.832,0,0,1,1.031-2.05,13.4,13.4,0,0,0,1.215-2.667,5.659,5.659,0,0,0-.375-4.218c-.6-1.177-1.2-2.35-1.784-3.535a8.936,8.936,0,0,1,.536-9.553,1.873,1.873,0,0,0,.392-1.181,100.1,100.1,0,0,0-.986-11.571c-.589-3.612-1.375-7.185-2.085-10.774a59.626,59.626,0,0,1-1.19-7.816,31.9,31.9,0,0,1-.014-5.156,22.614,22.614,0,0,0-.741-3.631C644.723,792.947,644.556,792.987,644.354,793.118Z" transform="translate(-571.635 -682.531)" fill="#b3836c"/>
        <path id="Path_43812" data-name="Path 43812" d="M335.352,75.749a1.587,1.587,0,0,0-.975-.239c-3.553.373-6.415-1.078-9.072-3.272a13.71,13.71,0,0,0-6.15-2.946,12.944,12.944,0,0,0-10.494,2.165,11.154,11.154,0,0,0-2.531,2.487,4.462,4.462,0,0,0-.8,2.455,24.707,24.707,0,0,1,3.5-3.363,13.841,13.841,0,0,1,4.447-1.84,10.2,10.2,0,0,1,4.665-.038,8.968,8.968,0,0,1,4.236,1.92c-2.9-1.3-5.864-2.186-9.045-1.347-3.114.822-5.774,2.3-7.248,5.392a10.966,10.966,0,0,1,8.229-3.645c2.917-.052,3.682.126,4.961,1.037-4.761-1.028-9.037-.849-12.551,2.711.276.351.467.2.643.115a10.025,10.025,0,0,1,8.612-.122,23.857,23.857,0,0,0,2.748,1,5.89,5.89,0,0,0,3.5.141.606.606,0,0,1,.64.134,6.827,6.827,0,0,1-3.9.213c-1.646-.274-3.085-1.175-4.694-1.583a9.43,9.43,0,0,0-6.688.641,1.933,1.933,0,0,0-.329.191.95.95,0,0,0-.155.212c.1.483.536.612.9.809a23.032,23.032,0,0,0,6.755,2.175c1.295.255,2.626.135,3.908.47a1.89,1.89,0,0,0,.637.016,38.486,38.486,0,0,0,8.146-1.217,19.882,19.882,0,0,0,7.064-3.946c.163-.14.3-.482.6-.156a11.7,11.7,0,0,1-2.33,2.315c.01.43.336.675.525.985a8.061,8.061,0,0,1,1.282,4.323,3.183,3.183,0,0,0,.665,2.482.885.885,0,0,1,.259.937c-.426-.173-.47-.761-.956-.866-.561.735-.008,1.237.345,1.778.04.249-.073.325-.3.271-.211-.174-.44-.489-.562.069-.228.69.057,1.422-.172,2.112-.263,1.189-.592,2.362-.844,3.554a16.855,16.855,0,0,0-.387,2.476c-.045.994-.489,1.372-1.458,1.1-1.742-.444-1.9-.554-1.533-2.242a22.858,22.858,0,0,0-.114-9.628,14.917,14.917,0,0,1-.429-3.67c.035-.84-.225-1.146-1.137-.862a26.917,26.917,0,0,1-19.091-.868c-.266-.113-.553-.3-.755.1-.063,1-.027,2-.013,2.991a24.678,24.678,0,0,1-.679,4.379,18.732,18.732,0,0,0,.245,7.67c.279,1.382.089,1.622-1.3,2.117-1.1.344-1.525-.236-1.707-1.212a10.683,10.683,0,0,0-.229-1.616c-.227-1.541-.737-3.02-1-4.553-.192-.45.2-.9-.006-1.351-.241-.868-.241-.868-1.168-.233a1.527,1.527,0,0,1,.523-1.07.952.952,0,0,0,.092-1.155c-.209-.432-.337.048-.5.128-.246.051-.371-.022-.3-.295l.521-.763c.4-.919-.026-1.909.238-2.84a8.009,8.009,0,0,1,2.092-4.422c.357-.422.592-.744.229-1.321a2.406,2.406,0,0,1-.073-2.1,5.7,5.7,0,0,1,1.151-1.97,13.838,13.838,0,0,1,8.352-4.754,20.463,20.463,0,0,1,4.2.008,12.235,12.235,0,0,1,5.128,1.747,24.409,24.409,0,0,1,3.427,2.415,11.04,11.04,0,0,0,5.986,2.558,3.407,3.407,0,0,0,1.763-.009c.227-.032.522-.2.665,0C335.718,75.271,335.433,75.509,335.352,75.749Z" transform="translate(-272.964 -68.029)" fill="#040505"/>
        <path id="Path_43813" data-name="Path 43813" d="M286.7,228.109c.3.37.2.811.228,1.231-2.528.644-2.921,2.524-2.753,4.738a12.92,12.92,0,0,0,1.595,5.977,4.185,4.185,0,0,0,.678.923c.3.282.611.707,1.079.505.408-.176.323-.655.333-1.029.03-1.067.143-2.167-1.061-2.774-.246-.124-.671-.2-.6-.556.08-.41.512-.356.843-.381a1.149,1.149,0,0,0,.576-.073,5.051,5.051,0,0,0-1.913-3.263c-.238-.182-.746-.307-.511-.729.211-.378.669-.3,1.046-.193.787.217,1.1,1.019,1.727,1.431.392.558.229,1.223.347,1.834.183.951.154.956,1.158.787.359,2.258-.141,4.482-.3,6.716-.216,3.129-.2,6.211,1.215,9.111a8.8,8.8,0,0,0,5.492,4.8,18.609,18.609,0,0,0,13.8-.72,7.218,7.218,0,0,0,3.358-3.195,12.918,12.918,0,0,0,1.665-6.342,55.382,55.382,0,0,0-.453-7.758,3.359,3.359,0,0,1,.276-2.592c.97.083.96.082,1.044-.8a7.716,7.716,0,0,1,.49-2.588c.346-.533-.077,1.119.439.153a1.613,1.613,0,0,1,.761-.661c.433-.206.976-.428,1.275.028.268.408-.295.611-.561.834a5.225,5.225,0,0,0-1.334,1.847c-.311.661-.769,1.419.621,1.309a.528.528,0,0,1,.576.411c.055.325-.269.381-.468.516-1.476,1-1.8,1.933-1.264,3.444.183.516.435.584.844.3a3.563,3.563,0,0,0,1.051-1.1,12.366,12.366,0,0,0,1.642-7.715c-.254-2.31-.555-2.511-2.78-2.924a5.33,5.33,0,0,1,.452-2c.034.439-.106.929.66.931a2.639,2.639,0,0,1,2.472,1.894,5.017,5.017,0,0,1,.429,1.461,14.991,14.991,0,0,1-1.517,8.544,4.261,4.261,0,0,1-2.943,2.436c-.564.11-.521.4-.48.817a20.108,20.108,0,0,1-.357,6.342,11.851,11.851,0,0,1-2.484,5.254,2.249,2.249,0,0,0-.57,1.744q.141,1.844.217,3.694a.773.773,0,0,0,.754.833c1.207.221,2.405.493,3.607.745-.533.411-.025,1.142-.485,1.575-.717-.1-1.387-.389-2.094-.536-.748-.155-1.147.076-1.162.876a6.176,6.176,0,0,1-.091,1.395c-.06.24-.11.53-.429.548-.29.017-.449-.2-.566-.438a4.1,4.1,0,0,1-.325-1.1,28.671,28.671,0,0,1-.579-5.941c.019-.889-.273-1.215-1.118-.711a18.872,18.872,0,0,1-8,1.812c-3.453-.1-6.949-.478-9.848-2.757.039.1.108.193.145.3a40.761,40.761,0,0,1-.656,7.569,2.7,2.7,0,0,1-.249.719c-.118.213-.2.513-.508.494s-.338-.329-.41-.561a2.46,2.46,0,0,1-.067-.5c-.175-1.84-.661-2.121-2.389-1.386a7.264,7.264,0,0,1-.893.48c-.382-.574-.144-1.217-.2-1.827a10.792,10.792,0,0,1,3.076-.727c.564-.093.8-.3.867-.868.173-1.486.126-2.977.177-4.465a1.331,1.331,0,0,0-.45-.882,13.484,13.484,0,0,1-2.909-8.28c-.036-1.149,0-2.3.017-3.449.007-.425-.054-.679-.574-.784a3.879,3.879,0,0,1-2.636-2.061,13.914,13.914,0,0,1-1.625-9.363c.323-1.861,1.148-2.557,3.158-2.919C286.535,228.469,286.606,228.3,286.7,228.109Z" transform="translate(-256.437 -207.031)" fill="#b4836c"/>
        <path id="Path_43814" data-name="Path 43814" d="M503.216,2037.635c1.091.473,2.208.88,3.26,1.447a11.286,11.286,0,0,1,4.5,4.572,6.806,6.806,0,0,1,.851,3.612c-.012,1.363,0,2.729.084,4.089a1.652,1.652,0,0,1-.821,1.586,16.78,16.78,0,0,1-7.528,2.983,23.463,23.463,0,0,1-12.533-1.446,22.237,22.237,0,0,1-8.127-5.844,2.25,2.25,0,0,1-.707-1.577c.041-4.09.045-8.181.065-12.271a1.334,1.334,0,0,1,.128-.744c.514.4.425.984.43,1.523.017,1.993,0,3.987.011,5.98a2.1,2.1,0,0,0,.273,1.462,9.968,9.968,0,0,0,3.671,3.259c.321.193.57.318.752-.206,2.209-6.343,6.962-8.843,13.377-8.814C501.719,2037.1,502.409,2037.711,503.216,2037.635Z" transform="translate(-430.23 -1782.305)" fill="#6e9393"/>
        <path id="Path_43815" data-name="Path 43815" d="M178.2,2064.355c.02,1.49.022,2.98.069,4.469a1.909,1.909,0,0,1-.6,1.356,21.612,21.612,0,0,1-10.991,6.871,23.326,23.326,0,0,1-11.752.069,16.762,16.762,0,0,1-5.524-2.58,1.764,1.764,0,0,1-.849-1.713c.112-1.912.173-3.829.2-5.744.007-.491.359-.744.512-1.121a10.988,10.988,0,0,1,7.008-6.269c.319-.114.625-.264.938-.4.87.084,1.607-.611,2.493-.429a17.015,17.015,0,0,1,4.17.453,11.953,11.953,0,0,1,8.829,7.538c.585,1.385.574,1.4,1.842.526a8.81,8.81,0,0,0,2.647-2.356C177.52,2064.79,177.62,2064.212,178.2,2064.355Z" transform="translate(-139.283 -1803.928)" fill="#6e9393"/>
        <path id="Path_43816" data-name="Path 43816" d="M366.028,2014.741l-.757.772c-.425-.393-.367-.923-.4-1.426-.233-3.222-.328-6.448-.258-9.678a2.661,2.661,0,0,0-.668-1.989c.477-.455,1.151-.051,1.535-.477.484.36.168.833.439,1.124C366.036,2006.956,366.092,2010.848,366.028,2014.741Z" transform="translate(-327.11 -1754.314)" fill="#7e302c"/>
        <path id="Path_43817" data-name="Path 43817" d="M218.818,2008.311c-.862-.095-1.692.475-2.567.126a20.663,20.663,0,0,0,5.852-3.933,8.417,8.417,0,0,0,2.331-3.989c.511.189,1.113.03,1.571.415-1.016,1.205-1.4,2.805-2.521,3.957A12.9,12.9,0,0,1,218.818,2008.311Z" transform="translate(-198.318 -1753.068)" fill="#7f2f2b"/>
        <path id="Path_43818" data-name="Path 43818" d="M581.354,2008.856c-.808.419-1.581-.161-2.377-.084a11.759,11.759,0,0,1-6.2-5.6,20.086,20.086,0,0,0-.976-1.79,1.746,1.746,0,0,1,1.483-.281,9.286,9.286,0,0,0,3.058,4.57A22.728,22.728,0,0,0,581.354,2008.856Z" transform="translate(-508.367 -1753.526)" fill="#7f2f2b"/>
        <path id="Path_43819" data-name="Path 43819" d="M484.293,2015.565a2.083,2.083,0,0,1-.618-1.715c.047-2.151.052-4.3.063-6.454,0-.419-.04-.838-.061-1.256q.025-2.045.049-4.093a5.953,5.953,0,0,1,2.08.471,3.822,3.822,0,0,0-.907,2.838c-.005,2.855.019,5.709-.018,8.563C484.874,2014.507,485.08,2015.231,484.293,2015.565Z" transform="translate(-431.52 -1754.405)" fill="#7c2d29"/>
        <path id="Path_43820" data-name="Path 43820" d="M218.645,934.517a1.044,1.044,0,0,1,.19.723q0,4.215.007,8.429a1.241,1.241,0,0,1-.194.852Q218.647,939.519,218.645,934.517Z" transform="translate(-200.406 -823.48)" fill="#d59491"/>
        <path id="Path_43821" data-name="Path 43821" d="M651.836,960.43q.007,2.578.014,5.156A12.261,12.261,0,0,1,651.836,960.43Z" transform="translate(-577.931 -846.077)" fill="#d7c0b4"/>
        <path id="Path_43822" data-name="Path 43822" d="M403.954,67.086l-4.2-.008A7.787,7.787,0,0,1,403.954,67.086Z" transform="translate(-358.338 -66.793)" fill="#8a5252"/>
        <path id="Path_43823" data-name="Path 43823" d="M306.3,182.847c.017.777.035,1.554.048,2.331a.57.57,0,0,1-.286.509C306.216,184.747,305.849,183.763,306.3,182.847Z" transform="translate(-276.633 -167.996)" fill="#5e5a5a"/>
        <path id="Path_43824" data-name="Path 43824" d="M299.192,211c.071.13.129.273.3.295a1.353,1.353,0,0,1-.691.876A1.172,1.172,0,0,1,299.192,211Z" transform="translate(-270.289 -192.546)" fill="#6a7070"/>
        <path id="Path_43825" data-name="Path 43825" d="M547.988,121.525a1.654,1.654,0,0,1-1.763.009Z" transform="translate(-486.068 -114.521)" fill="#272c32"/>
        <path id="Path_43826" data-name="Path 43826" d="M556.231,225.235l.3-.271a1.275,1.275,0,0,1,.25.261c.071.135.24.3.082.445s-.312-.016-.427-.126A1.647,1.647,0,0,1,556.231,225.235Z" transform="translate(-494.793 -204.724)" fill="#7f8686"/>
        <path id="Path_43827" data-name="Path 43827" d="M251.4,1184.854c2,.382,4,.786,6,1.139,2.594.457,5.209.733,7.833.973a119.758,119.758,0,0,0,12.63.22,81.451,81.451,0,0,0,13.286-1.434c1.756-.316,3.486-.743,5.231-1.1a12.11,12.11,0,0,1,.148,4.674c-.042.542-.141,1.09-.142,1.641-.006,1.747.036,3.5-.018,5.24-.09,2.888-.146,5.782-.319,8.66-.135,2.254.008,4.511-.211,6.747-.253,2.591-.036,5.2-.283,7.766-.212,2.215,0,4.43-.236,6.619-.268,2.466-.018,4.941-.268,7.384-.227,2.214-.01,4.43-.249,6.618-.209,1.914-.02,3.836-.258,5.722-.3,2.383,0,4.771-.249,7.13-.278,2.636,0,5.283-.268,7.9-.272,2.64.018,5.282-.244,7.9-.307,3.063.016,6.134-.268,9.174-.282,3.023-.139,6.035-.185,9.051-.011.738-.244,1.113-.938,1.246a27.311,27.311,0,0,1-11.487.089c-1.137-.266-1.1-.287-1.155-1.435-.12-2.759-.182-5.522-.317-8.277-.089-1.823-.011-3.661-.227-5.466-.234-1.955-.041-3.919-.267-5.85-.2-1.7.022-3.422-.255-5.081-.366-2.2.1-4.427-.445-6.6a.843.843,0,0,1-.012-.255,62.839,62.839,0,0,0-.324-7.509,32.274,32.274,0,0,0-.418-5.7.866.866,0,0,1-.021-.254,44.934,44.934,0,0,0-.321-6.485,51.856,51.856,0,0,0-.43-6.593.975.975,0,0,1-.017-.254c.152-2.343-.31-4.662-.268-7,.043-2.423-.232-4.836-.327-7.254a40.155,40.155,0,0,0-.227-4.951c-.384-2.323.048-4.672-.427-6.983a15.837,15.837,0,0,1-.047-2.423c-.03-.653.23-.855.883-.914a18.8,18.8,0,0,0,6.588-1.8.919.919,0,0,0,.525-.41c-6.617,1.845-13.211,1.562-20.044-.055a7.637,7.637,0,0,0,3.113,1.508,13.545,13.545,0,0,0,4.486.8c.727-.019.869.246.756.97a3.767,3.767,0,0,0-.124.749,67.879,67.879,0,0,1-.336,8.275c-.167,2.452.068,4.93-.426,7.36a1.509,1.509,0,0,0-.013.383,72.613,72.613,0,0,1-.334,8.786c-.137,2.151.08,4.337-.425,6.464a.433.433,0,0,0-.006.127c.159,2.3-.281,4.575-.3,6.872a32.55,32.55,0,0,1-.433,5.311,1.646,1.646,0,0,0-.031.381,54.992,54.992,0,0,1-.336,7.379c-.165,2.324.074,4.676-.423,6.976a.959.959,0,0,0-.011.255,66.071,66.071,0,0,1-.335,8.274c-.177,2.623.088,5.271-.421,7.872a1.681,1.681,0,0,0-.012.383c.132,3.49-.425,6.962-.268,10.453a3.265,3.265,0,0,1-.024.765,1.289,1.289,0,0,1-1.09,1.219,15.887,15.887,0,0,1-3.642.488c-2.077-.082-4.168.182-6.231-.263-.041-.009-.085,0-.127-.005-2.352-.286-2.312-.387-2.469-2.688-.241-3.528-.024-7.067-.282-10.579-.194-2.64.014-5.279-.228-7.9-.272-2.933-.013-5.877-.281-8.789-.208-2.258-.009-4.511-.225-6.748-.25-2.591-.062-5.192-.282-7.767-.156-1.828-.019-3.663-.24-5.466-.266-2.168-.019-4.346-.262-6.49-.275-2.425,0-4.856-.252-7.258-.258-2.467,0-4.943-.265-7.384-.248-2.3,0-4.6-.242-6.875-.283-2.636-.011-5.281-.269-7.9-.223-2.256,0-4.516-.245-6.746-.3-2.764-.151-5.523-.208-8.284-.011-.524-.225-.993-.252-1.5C250.316,1185.212,250.424,1185.081,251.4,1184.854Z" transform="translate(-228.056 -1041.604)" fill="#4c7e9f"/>
        <path id="Path_43828" data-name="Path 43828" d="M488.515,2016.994c.345-.4.2-.89.2-1.339.016-2.914.015-5.829.013-8.743a19.191,19.191,0,0,1,.2-2.128c.088-.8.51-.853,1.1-.837.975-.085,1.914.234,2.882.243a32.757,32.757,0,0,0,5.258-.425c.331-.05.67-.054,1-.079a.8.8,0,0,1,.767.547c.91,2.7,2.879,4.485,5.177,5.987.42.275.825.573,1.236.861a16.954,16.954,0,0,0-6.333,1.131,11.818,11.818,0,0,0-6.468,6.81,3.818,3.818,0,0,1-.639,1.453A10.934,10.934,0,0,1,488.515,2016.994Z" transform="translate(-435.743 -1755.834)" fill="#b5433d"/>
        <path id="Path_43829" data-name="Path 43829" d="M236.313,2011.136q1.27-.929,2.541-1.859a10.91,10.91,0,0,0,3.8-4.955.759.759,0,0,1,.843-.568,48.44,48.44,0,0,0,5.507.486c1.215-.041,2.427-.158,3.639-.241,1.018.133,1.026.133,1.048.987.016.638.03,1.278.006,1.916-.127,3.4.256,6.791.275,10.19-1.034,1.714-2.733,2.56-4.446,3.556a13.66,13.66,0,0,0-3.334-5.909,11.724,11.724,0,0,0-6.72-3.316A21.912,21.912,0,0,0,236.313,2011.136Z" transform="translate(-215.813 -1755.893)" fill="#b5433d"/>
        <path id="Path_43830" data-name="Path 43830" d="M114.328,532.52a1.381,1.381,0,0,0-.345,1.188c-.008,2-.127,4.016.038,6.005.163,1.955.189,3.9.194,5.858,0,1.349-.109,1.486-1.466,1.291a26.369,26.369,0,0,1-7.812-2.182,28.235,28.235,0,0,1-4.941-2.9c-.45-.344-.614-.6-.285-1.13a46.071,46.071,0,0,0,4.16-9.293c1.253-3.611,2.418-7.259,4-10.749,1.161-2.57,2.66-4.856,5.36-6.077a6.575,6.575,0,0,1,3.662-.572c-.326.855-1.292,1.192-1.525,2.3.71-.494,1.283-.872,1.834-1.279a22.6,22.6,0,0,1,5.907-2.958c.84-.3,1.689-.579,2.541-.847.491-.154.763-.031.874.56a17.55,17.55,0,0,0,2.155,5.821,14.041,14.041,0,0,0,8.146,6.364,16.425,16.425,0,0,0,12.639-.908,14.014,14.014,0,0,0,7.218-8.213,15.156,15.156,0,0,0,.808-2.81c.122-.859.4-1,1.231-.754a26.476,26.476,0,0,1,9.1,4.464c.22.172.427.416.848.286-.3-.758-1.154-1.138-1.315-2a5.8,5.8,0,0,1,3.914.729A9.247,9.247,0,0,1,175,518.271a33.018,33.018,0,0,1,2.612,5.668c1.173,3.145,2.24,6.329,3.355,9.495a38.629,38.629,0,0,0,3.169,6.814c.581.985.585,1-.363,1.718a25.022,25.022,0,0,1-11.167,4.688,11.683,11.683,0,0,1-2.016.263c-.575,0-.9-.163-.855-.794a16.217,16.217,0,0,1,.174-3.306,4.027,4.027,0,0,0,.053-1.018c.016-2.6.034-5.2.032-7.8a2.074,2.074,0,0,0-.119-1.218.334.334,0,0,0-.354.312c-.107.712-.248,1.424-.286,2.141-.191,3.6-.386,7.21-.513,10.818-.076,2.171.043,4.349-.061,6.518a38.54,38.54,0,0,1-.41,5.069,3.179,3.179,0,0,0-.04.637c.113,4.982-.455,9.951-.273,14.933.084,2.289.286,4.572.444,6.856.141,2.034.372,4.056.608,6.075.276,2.353.719,4.687,1.114,7.025.166.981.2,1-.785,1.38a53.454,53.454,0,0,1-9.075,2.459,79.1,79.1,0,0,1-8.421,1.226,40.7,40.7,0,0,1-4.829.336,23.2,23.2,0,0,0-3.945.172,7.186,7.186,0,0,1-2.92-.108,3.229,3.229,0,0,0-.888-.063,75.72,75.72,0,0,1-10.15-.737,86.486,86.486,0,0,1-10.969-2.147c-1.109-.284-2.192-.682-3.27-1.073-.849-.307-.993-.555-.86-1.451.262-1.759.59-3.508.837-5.269q.405-2.894.708-5.8c.33-3.217.4-6.441.57-9.663.091-1.709-.081-3.384-.056-5.072.064-4.344-.233-8.679-.37-13.014-.093-2.934-.135-5.867-.165-8.8a62.535,62.535,0,0,0-.454-6.469c-.173-1.513-.089-3.052-.3-4.574C114.673,533.873,114.51,533.291,114.328,532.52Z" transform="translate(-96.541 -454.254)" fill="#f87360"/>
        <path id="Path_43831" data-name="Path 43831" d="M658.524,803.684c1.345,4.732,2.336,9.554,3.592,14.308.076.287.14.578.238.858,1.074,3.094.953,6.309.728,9.476a103.955,103.955,0,0,1-1.632,11.567c-.687,3.7-1.373,7.412-1.923,11.142a67.688,67.688,0,0,0-.724,8.1,3.157,3.157,0,0,0,.464,1.8,17.248,17.248,0,0,1,2.091,6.241,31.136,31.136,0,0,1,.49,6.208,28.651,28.651,0,0,1-2.457,10.852,14.206,14.206,0,0,1-.95,1.659,2.611,2.611,0,0,1-.912.878c-.763.436-1.217.2-1.3-.663a3.589,3.589,0,0,1,.346-1.735c.41-.981.879-1.936,1.291-2.916a1.21,1.21,0,0,1,1.142-.824,1.408,1.408,0,0,0,1.317-2.129,9,9,0,0,1-.769-4.338c.13-1.051.211-2.109.368-3.157a8.33,8.33,0,0,0-.99-5.4c-.035-.063-.134-.092-.342-.227.164.7.3,1.283.442,1.865a13.732,13.732,0,0,1-.057,5.942,8.077,8.077,0,0,0,.514,4.974c.222.493.588,1.024.057,1.522a1.589,1.589,0,0,1-1.783.223,3.237,3.237,0,0,1-2.3-3.294,6.011,6.011,0,0,0-1.722-5.33,5.1,5.1,0,0,1-1.36-3.88,1.154,1.154,0,0,0-.172-.933,4.271,4.271,0,0,0-.118,3.243,6.988,6.988,0,0,0,1.642,2.706,3.751,3.751,0,0,1,1.087,3.451,10.681,10.681,0,0,1-1.3,3.785,17.984,17.984,0,0,0-1.924,4.014c-.041.163-.121.346-.321.351-.264.007-.354-.214-.384-.42a3.108,3.108,0,0,1,.359-1.968,23.408,23.408,0,0,0,1.79-3.519,6.594,6.594,0,0,0-.31-5.308c-.672-1.326-1.366-2.642-1.962-4.011a11.227,11.227,0,0,1-.85-3.312,6.628,6.628,0,0,1,.654-3.209,10.082,10.082,0,0,1,3.574-4.583c-1.018-.087-1.459.633-2.038,1-.32-.135-.217-.38-.217-.566a52.284,52.284,0,0,0-.268-7.386c-.266-1.844-.5-3.7-.847-5.526-.779-4.163-1.68-8.3-2.407-12.475a36.338,36.338,0,0,1-.538-9.012,13.581,13.581,0,0,1,1.379-5.517,6.786,6.786,0,0,0,.3-.7c.009-.022-.042-.067-.1-.16a8.514,8.514,0,0,0-1.979,3.365c-.671-1.654-.761-3.311-1.386-4.8-.136-2.982.1-5.955.224-8.931a5.091,5.091,0,0,1,2.424-.6c2.935-.413,5.855-.86,8.431-2.5C657.531,803.643,657.991,803.309,658.524,803.684Z" transform="translate(-573.08 -709.242)" fill="#efb995"/>
        <path id="Path_43832" data-name="Path 43832" d="M99.385,812.7c-.013.638-.077,1.28-.031,1.913.156,2.171-.76,4.112-1.167,6.418-.811-1.143-.939-2.43-2.06-3.1-.079.462.2.711.323,1.007a11.871,11.871,0,0,1,1.1,4.806c-.007,1.391.109,2.775.055,4.175a50.678,50.678,0,0,1-.916,7.441c-.783,4.162-1.685,8.3-2.394,12.478a29.061,29.061,0,0,0-.6,5.688c.02.685-.271,1.326-.24,2.022a11.353,11.353,0,0,0,.359,3.583c-.9-.329-1.387-.985-2.258-1.09.18.515.687.6.959.912,3.2,3.626,3.825,6.708,1.909,10.868-.516,1.121-1.072,2.227-1.673,3.3a6.282,6.282,0,0,0-.036,6.106c.5,1.034,1.116,2.009,1.611,3.044.326.682.65,1.431-.205,2.172-.261-.628-.47-1.241-.762-1.812-.6-1.174-1.2-2.353-1.88-3.479a6.338,6.338,0,0,1-.87-3.381,3.753,3.753,0,0,1,1.132-2.971,7.515,7.515,0,0,0,1.8-3.2,3.553,3.553,0,0,0-.287-2.731,8.321,8.321,0,0,1-.926,3.892,6.279,6.279,0,0,1-1.258,1.752,3.722,3.722,0,0,0-1.108,3.724,3.476,3.476,0,0,1-2.5,4.133,1.283,1.283,0,0,1-1.417-.275,1.1,1.1,0,0,1-.16-1.313c1.076-2.051.779-4.141.477-6.321a13.183,13.183,0,0,1,.372-5.939.861.861,0,0,0-.028-.709,5.692,5.692,0,0,0-1.176,3.383,21.814,21.814,0,0,0,.426,5.319,4.185,4.185,0,0,1-.141,2.39c-.232.593-.458,1.19-.666,1.792A1.558,1.558,0,0,0,86.519,881c.4.055.767.084.939.506a30.811,30.811,0,0,1,1.785,4.355,2.816,2.816,0,0,1,.095.5.95.95,0,0,1-.575.918c-.365.2-.641-.01-.916-.237a6.867,6.867,0,0,1-1.8-2.6,25.088,25.088,0,0,1-2.094-7.571,29.151,29.151,0,0,1,1.3-13.56,4.269,4.269,0,0,1,.391-.939,6.927,6.927,0,0,0,.933-4.14,54.952,54.952,0,0,0-.706-7.337c-.565-4.245-1.48-8.426-2.187-12.645-.448-2.675-.9-5.353-1.155-8.045a35.88,35.88,0,0,1-.3-6.489,27.651,27.651,0,0,1,.873-4.359q1.866-7.4,3.7-14.811a1.58,1.58,0,0,0,.022-.255c.343-.584.835-.353,1.216-.135a25.587,25.587,0,0,0,9.57,2.728c1.6.212,1.585.264,1.6,1.9a2.489,2.489,0,0,0,.093,1.124Q99.345,811.3,99.385,812.7Z" transform="translate(-81.392 -709.591)" fill="#efb995"/>
        <path id="Path_43833" data-name="Path 43833" d="M340.683,457.143a5.191,5.191,0,0,1,1.51-.857,31.154,31.154,0,0,0,.968,9.093l.3,0c.012-.806.033-1.613.032-2.419,0-.467.178-.734.674-.688a10.421,10.421,0,0,1,2.809.682c.08.031.1.225.143.343a14.714,14.714,0,0,1-4.16,8.288,14.363,14.363,0,0,1-9.526,4.017,15.583,15.583,0,0,1-8.819-1.992,14.147,14.147,0,0,1-6.736-10.052c.034-.394.087-.746.6-.831.748-.125,1.485-.323,2.232-.452.51-.088.806.119.792.692-.019.788,0,1.577,0,2.485a2.852,2.852,0,0,0,.691-1.866,14.035,14.035,0,0,0,.347-3.149c-.114-1.282.285-2.525.259-3.8.624-.034.844.476,1.138.866a9.642,9.642,0,0,0,11.083,3.633,10.72,10.72,0,0,0,4.368-2.783A8.468,8.468,0,0,1,340.683,457.143Z" transform="translate(-286.937 -406.445)" fill="#efb995"/>
        <path id="Path_43834" data-name="Path 43834" d="M131.049,787.73c-.409-.53-.191-1.147-.209-1.721s-.23-.767-.818-.854a39.88,39.88,0,0,1-7.293-1.445c-1.05-.363-1.986-.944-2.991-1.39-.372-.165-.715-.506-1.169-.2.255-.982.522-1.962.759-2.949a.977.977,0,0,1,.53-.674,31.827,31.827,0,0,0,7.357,2.439,15.416,15.416,0,0,0,2.891.42c.439,0,.717.139.751.647A41.5,41.5,0,0,1,131.049,787.73Z" transform="translate(-113.136 -687.421)" fill="#d5a181"/>
        <path id="Path_43835" data-name="Path 43835" d="M660.261,782.023a1.92,1.92,0,0,0-1.059.41,16.265,16.265,0,0,1-6.788,2.373,29.439,29.439,0,0,1-4.406.533c0-1.02.01-2.041-.01-3.06-.011-.543.23-.73.758-.772a29.405,29.405,0,0,0,10.236-2.83c.21.038.423.084.488.326A20.446,20.446,0,0,1,660.261,782.023Z" transform="translate(-574.817 -687.582)" fill="#d5a181"/>
        <path id="Path_43836" data-name="Path 43836" d="M130.75,1410a3.49,3.49,0,0,0,.092-3.363c-.422-1.02-.941-1.987-1.411-2.98-.161-.341-.373-.666.16-.94s.755-.071,1,.368a22.549,22.549,0,0,1,2.217,4.69,5.748,5.748,0,0,1,.183,1.117,1.431,1.431,0,0,1-.842,1.442A1.074,1.074,0,0,1,130.75,1410Z" transform="translate(-122.45 -1231.659)" fill="#edb894"/>
        <path id="Path_43837" data-name="Path 43837" d="M145.685,1398.09c-.444-2.322-1.647-4.132-2.589-6.06-.373-.763-.36-.77.3-1.606a24.347,24.347,0,0,1,2.862,5.909C146.463,1397.125,146.434,1397.16,145.685,1398.09Z" transform="translate(-134.31 -1221.047)" fill="#ecb693"/>
        <path id="Path_43838" data-name="Path 43838" d="M708.315,1401.144c1.121.651,1.125.653.64,1.647a24.939,24.939,0,0,0-1.418,3.115,2.9,2.9,0,0,0,.034,2.448c.259.476.01.807-.506.837a1.271,1.271,0,0,1-1.353-1.194,5.332,5.332,0,0,1,.571-2.949C706.945,1403.779,707.606,1402.508,708.315,1401.144Z" transform="translate(-625.129 -1230.396)" fill="#edb894"/>
        <path id="Path_43839" data-name="Path 43839" d="M696.457,1390.954c.7.3.745.717.45,1.263-.361.67-.7,1.352-1.033,2.038a11.574,11.574,0,0,0-1.533,3.866.4.4,0,0,1-.2.28.313.313,0,0,1-.4-.213,2.511,2.511,0,0,1-.06-1.742A24.359,24.359,0,0,1,696.457,1390.954Z" transform="translate(-614.544 -1221.509)" fill="#ecb793"/>
        <path id="Path_43840" data-name="Path 43840" d="M354.017,176.6c-.033,1.874.326,3.721.427,5.578.17,3.128.5,6.3-.677,9.344a11.552,11.552,0,0,1-2.184,3.719,9.169,9.169,0,0,1-3.929,2.291,18.527,18.527,0,0,1-8.039.974,18.171,18.171,0,0,1-5.77-1.5,9.354,9.354,0,0,1-5.083-6.524,20.391,20.391,0,0,1-.4-7.585,40.136,40.136,0,0,0,.366-4.826,2.571,2.571,0,0,1,.238-1.491c.163-.049.325-.1.488-.147.9-.267.923-.271.719-1.2a28.852,28.852,0,0,1-.669-4.4,24.218,24.218,0,0,1,.595-5.3q.221-1.383.437-2.767a12.368,12.368,0,0,0,.007-3.356c-.06-.393-.075-.722.487-.438a23.9,23.9,0,0,0,6.417,2.044,26.629,26.629,0,0,0,13.828-1.087c.2-.069.4-.151.6-.207a1.137,1.137,0,0,1,.335.042c-.195,2.862.57,5.623.978,8.43a19.329,19.329,0,0,1-.437,6.59,6.51,6.51,0,0,1-.153.749c-.173.532-.009.8.558.852A5.459,5.459,0,0,1,354.017,176.6Z" transform="translate(-295.931 -147.075)" fill="#efb995"/>
        <path id="Path_43841" data-name="Path 43841" d="M294.289,245.7c-.112.069-.029.443-.255.258a8.729,8.729,0,0,1-.945-1.027,1.277,1.277,0,0,0-1.46-.387c1.872.968,2.421,2.686,2.881,4.618a2.277,2.277,0,0,0-1.9-.253,2.287,2.287,0,0,1,1.9,2.8,7.353,7.353,0,0,1-.121,1.643c-.2.542-.435.615-.968.344a4.31,4.31,0,0,1-1.778-1.939,13.8,13.8,0,0,1-1.427-7.9c.155-1.852,1.166-2.655,3.032-2.734A22.28,22.28,0,0,1,294.289,245.7Z" transform="translate(-262.762 -218.82)" fill="#eab592"/>
        <path id="Path_43842" data-name="Path 43842" d="M539.33,242.215a2.181,2.181,0,0,1,3.015,1.942,13.521,13.521,0,0,1-1.423,8.62,4.015,4.015,0,0,1-1.78,1.773c-.57.285-.761.177-.841-.445a9.3,9.3,0,0,0-.165-1c-.378-1.567.068-2.676,2.032-3.376-.606-.461-1.178.041-1.732-.041a5.03,5.03,0,0,1,2.425-4.25c-.984-.113-1.019-.094-2.175,1.17-.239-.243-.022-.572-.159-.831A21.336,21.336,0,0,1,539.33,242.215Z" transform="translate(-478.907 -219.638)" fill="#ecb693"/>
        <path id="Path_43843" data-name="Path 43843" d="M317.052,156.154a8.813,8.813,0,0,0-2.527,1.566,1.346,1.346,0,0,1,.364-1.789c.478-.5,1.262-.681,1.557-1.464-.86.045-1.292.854-2.124.993a6.577,6.577,0,0,1,1.749-5.019c.233-.27.471-.743.906-.551a1.3,1.3,0,0,1,.881,1.16,19.484,19.484,0,0,1-.107,3.817c-.3,1.535-.569,3.079-.916,4.6a14.487,14.487,0,0,0,.1,5.935,9.423,9.423,0,0,0,.305,1.748c.111.285.2.622-.229.7-.344.062-.372-.251-.425-.5-.216-1.035-.424-2.072-.66-3.1-.358-1.568-.691-3.145-1.125-4.692a1.547,1.547,0,0,1,.532-1.773C315.858,157.3,316.59,157.042,317.052,156.154Z" transform="translate(-283.819 -139.217)" fill="#262b31"/>
        <path id="Path_43844" data-name="Path 43844" d="M523.813,161c-.9-.333-1.306-1.33-2.441-1.172a15.121,15.121,0,0,0,1.472,1.146,1.467,1.467,0,0,1,.724,1.859c-.833.011-1.171-1.054-2.167-1.027a3.706,3.706,0,0,0,1.316,1.3,1.323,1.323,0,0,1,.58,1.651c-.59,2.209-1.151,4.426-1.565,6.678a10.7,10.7,0,0,0-.147,1.26c-.017.263-.06.543-.412.509s-.366-.333-.335-.582c.086-.671.2-1.338.318-2a15.352,15.352,0,0,0,.023-5.9c-.4-1.862-.746-3.734-1.073-5.609a16.373,16.373,0,0,1-.051-1.657.991.991,0,0,1,.635-.993c1.257-.719,1.441-.688,2.176.582A7.626,7.626,0,0,1,523.813,161Z" transform="translate(-463.246 -144.571)" fill="#262b31"/>
        <path id="Path_43845" data-name="Path 43845" d="M346.533,163.113a5.2,5.2,0,0,1-.007,3.356Q346.53,164.791,346.533,163.113Z" transform="translate(-311.923 -150.788)" fill="#8d6d58"/>
        <path id="Path_43846" data-name="Path 43846" d="M374.162,457.334a8.59,8.59,0,0,1-3.256,3.1,11.78,11.78,0,0,1-3.3,1.509,10.9,10.9,0,0,1-3.758.065,10.338,10.338,0,0,1-6.188-3.406c-.53-.543-.709-1.357-1.392-1.777,0-.126,0-.283.142-.315.234-.053.361.171.536.271a19.865,19.865,0,0,0,7.1,2.111c3.286.494,6.341-.346,9.393-1.346C373.676,457.471,373.92,457.405,374.162,457.334Z" transform="translate(-320.416 -406.636)" fill="#d5a182"/>
        <path id="Path_43847" data-name="Path 43847" d="M538.4,2080.138a19.314,19.314,0,0,1-8.848-1.457c-.157-.066-.32-.117-.473-.189-.8-.376-.82-.425-.562-1.247a8.417,8.417,0,0,1,1.018-2.05,12.071,12.071,0,0,1,10.342-5.781,11.631,11.631,0,0,1,6.407,1.288,9.685,9.685,0,0,1,4.16,4.347c.632,1.362.592,1.513-.7,2.35a16.183,16.183,0,0,1-4.671,2,22.76,22.76,0,0,1-3.361.713A30.251,30.251,0,0,1,538.4,2080.138Z" transform="translate(-470.497 -1813.142)" fill="#dee6e6"/>
        <path id="Path_43848" data-name="Path 43848" d="M489.839,2119.368a21.7,21.7,0,0,0,9.311,4.932,23.7,23.7,0,0,0,12.857-.148,17.2,17.2,0,0,0,5.387-2.866,21.666,21.666,0,0,1,.315,4.58c-.02.527-.467.675-.828.878a18.988,18.988,0,0,1-5.494,2.006,23.955,23.955,0,0,1-11.621-.158,20.217,20.217,0,0,1-9.528-6.161,1.409,1.409,0,0,1-.4-1.037C489.854,2120.806,489.839,2120.218,489.839,2119.368Z" transform="translate(-436.892 -1856.713)" fill="#dee6e6"/>
        <path id="Path_43849" data-name="Path 43849" d="M171.588,2079.9a20.194,20.194,0,0,1-10.793-2.312c-2.706-1.5-2.546-1.287-1.028-3.9a9.327,9.327,0,0,1,7.206-4.508,15.228,15.228,0,0,1,5.454.227,11.928,11.928,0,0,1,8.575,7.3c.46,1.057.4,1.082-.684,1.546A19.67,19.67,0,0,1,171.588,2079.9Z" transform="translate(-148.115 -1812.828)" fill="#dee6e6"/>
        <path id="Path_43850" data-name="Path 43850" d="M183.931,2119.772a3.619,3.619,0,0,1-1.046,3.846,20.11,20.11,0,0,1-11.752,5.905,25.432,25.432,0,0,1-12.4-1.566c-.04-.015-.082-.024-.121-.04-2.4-.944-2.439-1.011-2.4-3.614.011-.842,0-1.684,0-2.84a17.82,17.82,0,0,0,9.161,3.814,25.284,25.284,0,0,0,9.87-.748A21.4,21.4,0,0,0,183.931,2119.772Z" transform="translate(-145.955 -1857.065)" fill="#dee6e6"/>
        <path id="Path_43851" data-name="Path 43851" d="M351.5,204.483c-.287.167-.57.34-.861.5-.178.1-.368.171-.561.258-.441-1.687-.25-2.244,1.109-3.319a9.761,9.761,0,0,1,5.021-1.06,9.249,9.249,0,0,1,1.608.321c.956.261.83,1.075.757,1.781-.078.744-.676.832-1.247.714a8.751,8.751,0,0,0-4.272.06C352.5,203.9,351.855,203.9,351.5,204.483Z" transform="translate(-314.833 -183.678)" fill="#262b31"/>
        <path id="Path_43852" data-name="Path 43852" d="M407.056,243a14.907,14.907,0,0,1-.21,2.482,9.116,9.116,0,0,0,1.32,4.583,15.807,15.807,0,0,1,1.5,2.936c.915,2.854-.19,4.874-3.17,5.232-2.434.292-4.748-1.11-4.5-4,.1-1.119.688-1.427,1.823-.959.05.094.02.165-.093.186-1.174.221-1.387.454-1.2,1.579a2.712,2.712,0,0,0,1.68,2.231,4.194,4.194,0,0,0,2.5.285c2.341-.523,2.908-1.942,2.287-4.34a8.731,8.731,0,0,0-1.257-2.49,10.506,10.506,0,0,1-1.508-3.616A5.588,5.588,0,0,1,407.056,243Z" transform="translate(-360.283 -220.455)" fill="#b7866e"/>
        <path id="Path_43853" data-name="Path 43853" d="M452.628,201.711a2.8,2.8,0,0,1,1.484,1.547c-.007,1.5-.056,1.523-1.331,1.005a9.034,9.034,0,0,0-5.485-.6c-.677.152-1.434.262-1.611-.708-.15-.821,0-1.551.968-1.8a8.563,8.563,0,0,1,4.766.155A5.639,5.639,0,0,0,452.628,201.711Z" transform="translate(-398.349 -183.737)" fill="#262b31"/>
        <path id="Path_43854" data-name="Path 43854" d="M450.34,199.542c-.419.45-.832.031-1.148-.1a8.593,8.593,0,0,0-4.012-.378c-1.26.074-1.581.485-1.507,1.543.045.643.238.846.9.681a10.148,10.148,0,0,1,2.009-.224,8.352,8.352,0,0,1,4.788,1.222c.413-.352.049-.909.458-1.193l.033-.018a3.448,3.448,0,0,1-.005,2.023,9.516,9.516,0,0,0-8.16-.967c-.336.134-.631.071-.627-.325a7.992,7.992,0,0,1,.129-2.728C445.645,198.178,448.045,198.057,450.34,199.542Z" transform="translate(-396.061 -181.568)" fill="#0b0808"/>
        <path id="Path_43855" data-name="Path 43855" d="M359.89,202.439c-.189-.08-.673-.151-.2-.4a9.052,9.052,0,0,1,5.8-.723c.407.116,1.06.378,1.236-.417.193-.87-.049-1.365-.8-1.554a7.981,7.981,0,0,0-5.334.38c-.3.134-.6.58-1.007.152,2.2-1.71,4.622-1.624,7.128-.912a.672.672,0,0,1,.544.74c-.016.844,0,1.689,0,2.7A10.394,10.394,0,0,0,359.89,202.439Z" transform="translate(-323.225 -181.634)" fill="#0d0a0a"/>
        <path id="Path_43856" data-name="Path 43856" d="M379.875,362.774c4.472,2.95,8.891,2.911,13.268.014-.728,1.634-3.062,2.773-5.929,2.895C383.845,365.825,380.961,364.744,379.875,362.774Z" transform="translate(-341.005 -324.899)" fill="#130c0a"/>
        <path id="Path_43857" data-name="Path 43857" d="M450,232.515c1.236-2.259,4.031-2.5,5.893-.5.187.282.126.483-.2.6a.958.958,0,0,1-.484-.1,4.187,4.187,0,0,0-4.913.33C450.085,232.833,449.911,232.793,450,232.515Z" transform="translate(-402.133 -209.687)" fill="#150d0b"/>
        <path id="Path_43858" data-name="Path 43858" d="M364.566,233.2a2.153,2.153,0,0,1,1.328-1.848c1.531-.867,4.006-.525,4.8,1.094.079.253-.073.33-.278.367a15.269,15.269,0,0,1-1.643-.672,4.207,4.207,0,0,0-3.868,1.128A.332.332,0,0,1,364.566,233.2Z" transform="translate(-327.655 -209.894)" fill="#140c0b"/>
        <path id="Path_43859" data-name="Path 43859" d="M456.06,241.75c.189-.119.18-.319.21-.5.8,1.548.7,3-.254,3.983a3.679,3.679,0,0,1-4.331.647c-.621-.345-1.264-.727-1.274-1.587l.177-.033c.482.095.776.493,1.173.726a3.237,3.237,0,0,0,4.112-.685C456.47,243.454,455.913,242.59,456.06,241.75Z" transform="translate(-402.514 -218.922)" fill="#5a4c44"/>
        <path id="Path_43860" data-name="Path 43860" d="M362.876,248.881a.183.183,0,0,1,.165.02.418.418,0,0,1,.2.3c.341,2.638,2.411,3.674,4.722,2.36a2.832,2.832,0,0,1,.774-.412l.18.013a.486.486,0,0,1-.109.58,3.379,3.379,0,0,1-3.434,1.135,3.131,3.131,0,0,1-2.688-2.529A1.99,1.99,0,0,1,362.876,248.881Z" transform="translate(-325.965 -225.571)" fill="#6a574e"/>
        <path id="Path_43861" data-name="Path 43861" d="M410.479,243.344l.254-.281c.517,1.029.87,2.053-.088,3.038l0,0A16.153,16.153,0,0,1,410.479,243.344Z" transform="translate(-367.692 -220.508)" fill="#6a574e"/>
        <path id="Path_43862" data-name="Path 43862" d="M442.125,203.606c-.017.8-.024,1.6-.057,2.4-.017.409.137.635.555.658-.3.25-.739.389-.751-.094C441.847,205.581,441.581,204.549,442.125,203.606Z" transform="translate(-394.992 -186.099)" fill="#77604e"/>
        <path id="Path_43863" data-name="Path 43863" d="M448.205,245.183l.19.247a2.416,2.416,0,0,1-.163,2.292h.006A2.823,2.823,0,0,1,448.205,245.183Z" transform="translate(-400.342 -222.356)" fill="#5a4c44"/>
        <path id="Path_43864" data-name="Path 43864" d="M512.1,221.235q0-1.012.005-2.023a3.008,3.008,0,0,1,.191,2.042c0,.02-.062.05-.09.045A.332.332,0,0,1,512.1,221.235Z" transform="translate(-456.31 -199.708)" fill="#7b604d"/>
        <path id="Path_43865" data-name="Path 43865" d="M449.841,240.77a4.248,4.248,0,0,1,.163-2.292c1.562-1.6,3.375-1.685,5.492-.247.953,1.664.451,3.1-1.333,3.747A3.624,3.624,0,0,1,449.841,240.77Z" transform="translate(-401.951 -215.404)" fill="#f7f9f9"/>
        <path id="Path_43866" data-name="Path 43866" d="M371.113,238.244a2.842,2.842,0,0,1,.163,2.753,3.6,3.6,0,0,1-3.562,1.131c-1.916-.469-2.609-1.463-2.311-3.391A3.875,3.875,0,0,1,371.113,238.244Z" transform="translate(-328.327 -215.408)" fill="#f7f9f9"/>
        <path id="Path_43867" data-name="Path 43867" d="M457.757,247.793a1.368,1.368,0,0,1,1.4-1.357,1.428,1.428,0,0,1,1.439,1.47,1.486,1.486,0,0,1-1.424,1.383A1.437,1.437,0,0,1,457.757,247.793Z" transform="translate(-408.92 -223.448)" fill="#0c0c0c"/>
        <path id="Path_43868" data-name="Path 43868" d="M385.046,246.465a1.422,1.422,0,0,1,1.406,1.371,1.49,1.49,0,0,1-1.457,1.474,1.437,1.437,0,0,1-1.382-1.524A1.368,1.368,0,0,1,385.046,246.465Z" transform="translate(-344.262 -223.473)" fill="#0a0a0a"/>
        <path id="Path_43869" data-name="Path 43869" d="M469.034,251.822a.362.362,0,0,1-.43.341c-.221-.022-.4-.144-.38-.39a.4.4,0,0,1,.5-.4C468.975,251.414,469.02,251.616,469.034,251.822Z" transform="translate(-418.046 -227.746)" fill="#cbdbdb"/>
        <path id="Path_43870" data-name="Path 43870" d="M393.873,251.327c0-.237.1-.4.342-.422.215-.017.416.047.456.3a.4.4,0,0,1-.4.5C394.038,251.72,393.913,251.551,393.873,251.327Z" transform="translate(-353.211 -227.344)" fill="#d4d8d8"/>
      </g>
    </g>
  </g>
</svg>
