<svg id="Meroken" xmlns="http://www.w3.org/2000/svg" xmlns:xlink="http://www.w3.org/1999/xlink" width="102" height="104" viewBox="0 0 102 104">
  <defs>
    <clipPath id="clip-path">
      <rect id="System_Background_Primary_Dark_Base" data-name="System Background Primary Dark Base" width="102" height="104" transform="translate(0.314 0)" fill="#84a4fc"/>
    </clipPath>
    <linearGradient id="linear-gradient" x1="0.5" x2="0.5" y2="1" gradientUnits="objectBoundingBox">
      <stop offset="0" stop-color="#3b5db7"/>
      <stop offset="1" stop-color="#84a4fc" stop-opacity="0.38"/>
    </linearGradient>
  </defs>
  <rect id="System_Background_Primary_Dark_Base-2" data-name="System Background Primary Dark Base" width="102" height="104" fill="#84a4fc"/>
  <g id="Mask_Group_66527" data-name="Mask Group 66527" transform="translate(-0.313)" clip-path="url(#clip-path)">
    <path id="Path_35766" data-name="Path 35766" d="M234.972,40.332,150.1,39.638c-13.394,0-8.487-5.815-8.487,13.484V106.39c37.5,25.559,53.381-24.605,103.322-25.029V51.253C244.935,33.17,246.492,40.332,234.972,40.332Z" transform="translate(-141.742 -42.134)" opacity="0.95" fill="url(#linear-gradient)"/>
  </g>
  <g id="Group_117056" data-name="Group 117056" transform="translate(37.655 25.912)">
    <path id="Path_29107" data-name="Path 29107" d="M3487.464,1096.9a11.474,11.474,0,0,0-13.058,2.261,5,5,0,0,1-4.383-2.652v12.744h17.44Z" transform="translate(-3465.399 -1061.699)" fill="#c71836"/>
    <path id="Path_29108" data-name="Path 29108" d="M3481.724,1047.624h.835l.3-.3a3.258,3.258,0,0,0,.3-4.263v-3.594a2.725,2.725,0,0,0-2.722-2.722H3470.8a2.725,2.725,0,0,0-2.722,2.722v3.594a3.259,3.259,0,0,0,.3,4.263l.3.3h.837c-.114,1.255-.819,4.422-4.811,8.357a7.991,7.991,0,0,0-2.429,5.72v27.22h26.689V1061.7a7.99,7.99,0,0,0-2.428-5.72C3482.541,1052.045,3481.837,1048.879,3481.724,1047.624Zm-2.035.32c.187,1.746,1.137,5.294,5.4,9.5a5.954,5.954,0,0,1,1.816,4.258v25.167h-22.583V1061.7a5.954,5.954,0,0,1,1.817-4.258c4.266-4.205,5.217-7.753,5.4-9.5Zm-8.893-9.146h9.644a.67.67,0,0,1,.669.669v4.4l.3.3a1.2,1.2,0,0,1,.22,1.4h-12.022a1.186,1.186,0,0,1,.006-1.1h6a1.026,1.026,0,1,0,0-2.053h-5.49v-2.948A.669.669,0,0,1,3470.8,1038.8Z" transform="translate(-3462.273 -1036.745)" fill="#fff"/>
  </g>
</svg>
