<svg xmlns="http://www.w3.org/2000/svg" width="61" height="57.726" viewBox="0 0 61 57.726">
  <g id="Group_117603" data-name="Group 117603" transform="translate(4994.727 2233.313)">
    <path id="Path_19469" data-name="Path 19469" d="M71.236,40.425h8.306a2.256,2.256,0,0,0,.4-.015.571.571,0,0,0,.067-1.113,1.392,1.392,0,0,0-.394-.037H62.892a1.5,1.5,0,0,0-.4.032.57.57,0,0,0,.067,1.121,2.63,2.63,0,0,0,.4.013Zm-2.323,6.648H62.89c-.558,0-.833.195-.831.583s.286.582.836.584H74.867a1.66,1.66,0,0,0,.431-.032.572.572,0,0,0-.075-1.121,2.606,2.606,0,0,0-.362-.011Zm-.036,4.286h2.938c1.088,0,2.177,0,3.265,0a.582.582,0,0,0,.65-.578c0-.343-.245-.567-.645-.585H62.932a1.872,1.872,0,0,0-.4.019.572.572,0,0,0,0,1.125,1.786,1.786,0,0,0,.4.02l5.949,0Zm-1.959,8.6h2.827c.5,0,.992.013,1.486-.011a.579.579,0,0,0,.593-.564.339.339,0,0,0,0-.037.591.591,0,0,0-.6-.562,2.448,2.448,0,0,0-.253-.007H62.925c-.577,0-.869.2-.867.591s.3.589.873.589l3.986,0Zm4.322-16.41H75.3c.558,0,.832-.2.829-.583s-.29-.585-.837-.585H67.208a1.5,1.5,0,0,0-.463.055.522.522,0,0,0-.375.589.533.533,0,0,0,.484.507,2.5,2.5,0,0,0,.361.015h4.027Zm-7.032,18.36c-.5,0-.99-.008-1.485,0-.407.009-.657.232-.664.566a.6.6,0,0,0,.6.6H62.7q1.5.021,3.005,0a.583.583,0,0,0,.64-.591c0-.341-.241-.563-.651-.573-.5-.011-.988,0-1.483,0ZM79.482,47.084h0a4.577,4.577,0,0,0-.47,0,.537.537,0,0,0-.52.546.508.508,0,0,0,.433.574h.006a4.007,4.007,0,0,0,1.038,0,.511.511,0,0,0,.452-.563c0-.012,0-.025-.005-.037a.53.53,0,0,0-.5-.52,3.39,3.39,0,0,0-.429,0Zm-.021,4.27h0c.134,0,.265.009.4,0a.569.569,0,0,0,.566-.571v-.009a.562.562,0,0,0-.55-.574h-.021a6.087,6.087,0,0,0-.828,0,.572.572,0,0,0-.537.574.581.581,0,0,0,.537.572,4.131,4.131,0,0,0,.437,0Z" transform="translate(-5026.374 -2259.999)" fill="#fff"/>
    <path id="Path_28961" data-name="Path 28961" d="M36.809,76.13a30.375,30.375,0,0,1-7.8-5.384A31.666,31.666,0,0,1,22.088,62.3a26.566,26.566,0,0,1-3.343-14.61c.215-3.06.492-7.033,3.274-10.606,3.75-4.816,10.621-7.073,11.124-7.2a3.309,3.309,0,0,0,.646-.236,2.473,2.473,0,0,0,.94-.7,2.461,2.461,0,0,0,.337-1.555c.008-.752-.137-.893-.121-1.335a3.087,3.087,0,0,1,1.078-1.971c.657-.665,3.571-2.853,10.14-2.6a29.638,29.638,0,0,1,25.4,16.8c3.659,7.452,6.292,16.6,4.36,24.957-2.262,9.791-11.1,14.938-20.626,15.8a38.415,38.415,0,0,1-17.35-2.422Q37.374,76.39,36.809,76.13Z" transform="translate(-5013.41 -2254.782)" fill="#e5ebfb"/>
    <path id="Path_19569" data-name="Path 19569" d="M37.988,69.431c0-10.424,8.789-18.875,19.631-18.875S77.251,59,77.252,69.43H37.988Z" transform="translate(-5018.007 -2263.447)" fill="#fff" stroke="#fff" stroke-miterlimit="10" stroke-width="2"/>
    <rect id="Rectangle_2288" data-name="Rectangle 2288" width="52.699" height="3.21" rx="1.416" transform="translate(-4987.425 -2192.772)" fill="#fff" stroke="#4e3495" stroke-miterlimit="10" stroke-width="2"/>
    <circle id="Ellipse_733" data-name="Ellipse 733" cx="2.105" cy="2.105" r="2.105" transform="translate(-4963.062 -2218.056)" fill="#fff" stroke="#4e3495" stroke-miterlimit="10" stroke-width="2"/>
    <path id="Path_28962" data-name="Path 28962" d="M49.279,61.4a7.692,7.692,0,0,1,3.359-2.975,5.349,5.349,0,0,1,.944-.288" transform="translate(-5022.788 -2266.035)" fill="none" stroke="#84a4fc" stroke-linecap="round" stroke-linejoin="round" stroke-width="2"/>
    <path id="Path_28963" data-name="Path 28963" d="M37.456,74.589a23.283,23.283,0,0,1,.473-3.418,21.047,21.047,0,0,1,1.309-4.109c.257-.573.5-1.043.691-1.381" transform="translate(-5019.177 -2268.235)" fill="#fff" stroke="#4e3495" stroke-linecap="round" stroke-miterlimit="10" stroke-width="2"/>
    <path id="Path_28964" data-name="Path 28964" d="M44.058,57.517a16.982,16.982,0,0,1,2.581-2.872,17.809,17.809,0,0,1,6.145-3.49A20.371,20.371,0,0,1,62.747,50.1a19.993,19.993,0,0,1,9.926,4.436,20.5,20.5,0,0,1,5.236,6.908,20.917,20.917,0,0,1,1.963,8.217" transform="translate(-5019.999 -2263.227)" fill="none" stroke="#4e3495" stroke-linecap="round" stroke-miterlimit="10" stroke-width="2"/>
    <path id="Path_28965" data-name="Path 28965" d="M69.122,73.434l6.458,6.227L91.263,62.133" transform="translate(-5028.223 -2266.939)" fill="none" stroke="#f02a4c" stroke-linecap="round" stroke-linejoin="round" stroke-width="4" fill-rule="evenodd"/>
  </g>
</svg>
