<svg xmlns="http://www.w3.org/2000/svg" width="30" height="28" viewBox="0 0 30 28">
  <g id="Group_68519" data-name="Group 68519" transform="translate(-3250 1515.5)">
    <rect id="Rectangle_4339" data-name="Rectangle 4339" width="30" height="28" transform="translate(3250 -1515.5)" fill="none"/>
    <path id="Path_1444" data-name="Path 1444" d="M309.189,788.53a4.41,4.41,0,0,0-2.541-3.727l-16.89-9.732a3.247,3.247,0,0,0-5.2,3.006v3.948a2.505,2.505,0,0,0-1.123,2.122,2.269,2.269,0,1,0,4.519,0,2.508,2.508,0,0,0-1.121-2.122v-3.948a1.048,1.048,0,0,1,1.79-1.034l16.891,9.732c.891.513,1.4,1.154,1.4,1.755s-.509,1.241-1.4,1.754l-15.634,9.007a2.378,2.378,0,0,1-2.266.348,2.192,2.192,0,0,1-.781-1.972v-2.549A2.511,2.511,0,0,0,287.951,793a2.269,2.269,0,1,0-4.519,0,2.507,2.507,0,0,0,1.123,2.122v2.549a4.285,4.285,0,0,0,1.918,3.943,3.568,3.568,0,0,0,1.809.473,5.529,5.529,0,0,0,2.733-.819l15.633-9.008a4.409,4.409,0,0,0,2.541-3.726" transform="translate(2970.811 -2289.764)" fill="#fff"/>
  </g>
</svg>
