<svg xmlns="http://www.w3.org/2000/svg" width="21.628" height="21.268" viewBox="0 0 21.628 21.268">
  <g id="Group_17074" data-name="Group 17074" transform="translate(-17.472 6.138) rotate(-38)">
    <path id="Path_19634" data-name="Path 19634" d="M27.236,20.276,12.391,13.9a.741.741,0,0,0-.957,1.006L14.4,20.958l-2.959,6.05a.741.741,0,0,0,.958,1.006l14.842-6.377a.741.741,0,0,0,0-1.361ZM13.645,25.864l1.88-3.843a1.205,1.205,0,0,0,.187-.03l2.671-.7c.69-.182.69-.479,0-.661l-2.671-.7a1.22,1.22,0,0,0-.187-.03L13.643,16.05l11.424,4.906Z" transform="translate(0 0)" fill="#fff"/>
  </g>
</svg>
