<svg id="sun" xmlns="http://www.w3.org/2000/svg" width="26.649" height="26.68" viewBox="0 0 26.649 26.68">
  <g id="Group_8400" data-name="Group 8400" transform="translate(5.508 5.524)">
    <g id="Group_8399" data-name="Group 8399">
      <path id="Path_10064" data-name="Path 10064" d="M113.813,106a7.817,7.817,0,1,0,7.817,7.817A7.826,7.826,0,0,0,113.813,106Z" transform="translate(-105.996 -106)" fill="current"/>
    </g>
  </g>
  <g id="Group_8402" data-name="Group 8402" transform="translate(17.999 18.03)">
    <g id="Group_8401" data-name="Group 8401">
      <path id="Path_10065" data-name="Path 10065" d="M349.135,346a9.425,9.425,0,0,1-3.439,3.439l4.706,1.266Z" transform="translate(-345.696 -346)" fill="current"/>
    </g>
  </g>
  <g id="Group_8404" data-name="Group 8404" transform="translate(10.917)">
    <g id="Group_8403" data-name="Group 8403">
      <path id="Path_10066" data-name="Path 10066" d="M212.2,0,209.8,4.289a8.993,8.993,0,0,1,4.815,0Z" transform="translate(-209.797)" fill="current"/>
    </g>
  </g>
  <g id="Group_8406" data-name="Group 8406" transform="translate(3.945 3.96)">
    <g id="Group_8405" data-name="Group 8405">
      <path id="Path_10067" data-name="Path 10067" d="M76,76l1.266,4.69a9.3,9.3,0,0,1,3.408-3.424Z" transform="translate(-75.996 -76)" fill="current"/>
    </g>
  </g>
  <g id="Group_8408" data-name="Group 8408" transform="translate(0 10.917)">
    <g id="Group_8407" data-name="Group 8407" transform="translate(0)">
      <path id="Path_10068" data-name="Path 10068" d="M4.57,209.5.3,211.923l4.273,2.423a9.105,9.105,0,0,1,0-4.846Z" transform="translate(-0.297 -209.5)" fill="current"/>
    </g>
  </g>
  <g id="Group_8410" data-name="Group 8410" transform="translate(3.945 18.03)">
    <g id="Group_8409" data-name="Group 8409">
      <path id="Path_10069" data-name="Path 10069" d="M77.262,346,76,350.705l4.706-1.266A9.425,9.425,0,0,1,77.262,346Z" transform="translate(-75.996 -346)" fill="current"/>
    </g>
  </g>
  <g id="Group_8412" data-name="Group 8412" transform="translate(10.886 22.392)">
    <g id="Group_8411" data-name="Group 8411">
      <path id="Path_10070" data-name="Path 10070" d="M211.635,430.027a9,9,0,0,1-2.439-.328l2.439,4.289,2.439-4.289A9,9,0,0,1,211.635,430.027Z" transform="translate(-209.196 -429.699)" fill="current"/>
    </g>
  </g>
  <g id="Group_8414" data-name="Group 8414" transform="translate(18.023 3.963)">
    <g id="Group_8413" data-name="Group 8413">
      <path id="Path_10071" data-name="Path 10071" d="M346.159,77.316a9.438,9.438,0,0,1,3.414,3.418l1.273-4.69Z" transform="translate(-346.159 -76.044)" fill="current"/>
    </g>
  </g>
  <g id="Group_8416" data-name="Group 8416" transform="translate(22.374 10.93)">
    <g id="Group_8415" data-name="Group 8415">
      <path id="Path_10072" data-name="Path 10072" d="M433.937,212.173l-4.271-2.417a9.093,9.093,0,0,1,0,4.838Z" transform="translate(-429.662 -209.756)" fill="current"/>
    </g>
  </g>
</svg>
