<svg xmlns="http://www.w3.org/2000/svg" width="176.367" height="110.926" viewBox="0 0 176.367 110.926">
  <g id="Group_68427" data-name="Group 68427" transform="translate(-1940.779 -270.447)">
    <path id="Path_42947" data-name="Path 42947" d="M-2641.1-9198.748h-18.445a18.783,18.783,0,0,1-14.836-13.569c-3.636-12.227,10.379-17.095-2-34.93s-.721-24.744,6.283-33.807,5.072-25.771,28.995-27.941,24.469,9.54,41.381,19.63c7.661,4.571,14.51,8.876,31.221,2.089,15.144-8.1,21.927-16.368,40.428-4.77s2.913,22.64,7.747,43.2,16.595,22.017,14.658,34.6-11.635,15.2-22.405,15.728S-2641.1-9198.748-2641.1-9198.748Z" transform="translate(4622.602 9579.704)" fill="#f5f6fa"/>
    <g id="Group_68426" data-name="Group 68426" transform="translate(1998.899 279.301)">
      <g id="Rectangle_4246" data-name="Rectangle 4246" transform="translate(5.306 12.443)" fill="#fff" stroke="#f32548" stroke-width="2">
        <rect width="52.773" height="65.433" rx="9" stroke="none"/>
        <rect x="1" y="1" width="50.773" height="63.433" rx="8" fill="none"/>
      </g>
      <g id="Rectangle_4248" data-name="Rectangle 4248" transform="translate(16.534 0)" fill="#fff" stroke="#f32548" stroke-width="2">
        <rect width="30.316" height="19.397" rx="6" stroke="none"/>
        <rect x="1" y="1" width="28.316" height="17.397" rx="5" fill="none"/>
      </g>
      <g id="Rectangle_4247" data-name="Rectangle 4247" transform="translate(0 9.075)" fill="#fff" stroke="#f32548" stroke-width="2">
        <rect width="63.329" height="14.905" rx="7" stroke="none"/>
        <rect x="1" y="1" width="61.329" height="12.905" rx="6" fill="none"/>
      </g>
      <line id="Line_705" data-name="Line 705" y2="31.231" transform="translate(20.801 34.771)" fill="none" stroke="#f32548" stroke-linecap="round" stroke-width="2"/>
      <line id="Line_704" data-name="Line 704" y2="31.231" transform="translate(31.692 34.771)" fill="none" stroke="#f32548" stroke-linecap="round" stroke-width="2"/>
      <line id="Line_703" data-name="Line 703" y2="31.231" transform="translate(42.584 34.771)" fill="none" stroke="#f32548" stroke-linecap="round" stroke-width="2"/>
    </g>
  </g>
</svg>
