<svg xmlns="http://www.w3.org/2000/svg" width="70.061" height="70.061" viewBox="0 0 70.061 70.061">
  <g id="CONSENT-FORM" transform="translate(-6317 -458)">
    <path id="Path_42943" data-name="Path 42943" d="M35.03,0A35.03,35.03,0,1,1,0,35.03,35.03,35.03,0,0,1,35.03,0Z" transform="translate(6317 458)" fill="#fff"/>
    <g id="Group_25139" data-name="Group 25139" transform="translate(6325.008 464.264)">
      <g id="Group_16619" data-name="Group 16619" transform="translate(0 0)">
        <path id="Path_19493" data-name="Path 19493" d="M-13877.3-382.785s-6.852-3.09-9.018-13.565,3.248-20.228,11.193-22.938,10.3-6.863,10.3-6.863,6.5-9.392,17.7-2.348,9.338,19.552,9.338,19.552l-6.812-.769-3.613-2.709-1.623-.9,3.434-4.335v-1.626l-3.434-2.167h-1.266l-3.795,5.96-2.346-1.084-4.586.289-11.85,8.922v12.281l1.7,2.529-3.145,3.793Z" transform="translate(13886.796 431.119)" fill="#e9edfc"/>
        <path id="Path_19494" data-name="Path 19494" d="M-13878.355-390.513l-1.745-1.776,5.052-3.428,4.46-5.275h1.985l5.6-4.14h5.961l5.779,1.307h3.61l3.614-1.307h1.626s-3.976,7.893-8.851,11.547-6.142,3.31-17.34,3.071S-13878.355-390.513-13878.355-390.513Z" transform="translate(13890.863 440.803)" fill="#e5ebfb"/>
        <g id="Group_16594" data-name="Group 16594" transform="translate(9.329 9.099)">
          <path id="Path_19489" data-name="Path 19489" d="M768,427.338c.3-1.284.619-2.562.876-3.853a4.379,4.379,0,0,1,.872-1.908c1-1.273,1.958-2.577,2.94-3.877a3.654,3.654,0,0,1-.662-.8,5.044,5.044,0,0,1-.532-1.768c-.05-3.273-.038-6.547-.017-9.82a5.626,5.626,0,0,1,1.829-4.146c.417-.4.87-.763,1.318-1.128a.745.745,0,0,1,1.1.052.728.728,0,0,1-.123,1.058c-.39.357-.81.681-1.2,1.038a4.186,4.186,0,0,0-1.436,3.154c-.019,3.257-.011,6.514-.005,9.771a1.644,1.644,0,0,0,1.252,1.643,1.627,1.627,0,0,0,1.837-.74,2.74,2.74,0,0,0,.213-.647,4.582,4.582,0,0,1,.432-1.453,5.006,5.006,0,0,0,.714-2.671q.277-2.612.524-5.228a1.143,1.143,0,0,1,.664-.962q2.973-1.635,5.926-3.306a1.743,1.743,0,0,0,.534-.422q2.242-2.935,4.461-5.888c.048-.063.084-.136.18-.3a3.6,3.6,0,0,0-.856-.238c-1.686-.021-3.372-.007-5.058-.011a2.154,2.154,0,0,0-1.443.56c-1.372,1.167-2.744,2.336-4.134,3.482a1.065,1.065,0,0,1-.743.267.819.819,0,0,1-.562-.516,1.049,1.049,0,0,1,.294-.807c1.16-1.033,2.359-2.022,3.545-3.026.265-.224.529-.451.8-.668a3.421,3.421,0,0,1,2.2-.78c1.752,0,3.506-.035,5.256.021a7.642,7.642,0,0,1,1.681.46c.023-.028.129-.149.226-.277.988-1.3,1.97-2.613,2.964-3.913a2.245,2.245,0,0,1,3.347-.47c.438.324.876.65,1.3.988a2.227,2.227,0,0,1,.444,3.208c-.833,1.131-1.691,2.244-2.537,3.365-.059.078-.112.162-.206.3l1.55.872c.158.089.323.167.474.267a.739.739,0,1,1-.707,1.3c-.56-.282-1.1-.6-1.651-.9-.186-.1-.374-.2-.6-.321-.675.892-1.342,1.771-2.008,2.652-1.027,1.358-2.03,2.734-3.092,4.064a5.111,5.111,0,0,1-1.324,1.163q-2.162,1.3-4.394,2.492a11.11,11.11,0,0,0-2.827,2.135c-1,1.036-2.046,2.022-3.068,3.033a2.343,2.343,0,0,0,2.928,3.655c1.368-.9,2.72-1.817,4.1-2.7a1.732,1.732,0,0,1,.871-.266c2.083-.022,4.167-.062,6.247.011.912.032,1.809.376,2.724.477,1.654.182,3.317.289,4.977.423.164.013.33-.01.5-.008.511.007.818.277.826.72a.722.722,0,0,1-.8.76c-1.3-.019-2.615-.006-3.909-.144-1.26-.135-2.5-.442-3.751-.67a3.349,3.349,0,0,0-.587-.081c-1.984-.006-3.967-.011-5.951.005a1.259,1.259,0,0,0-.632.217q-1.849,1.2-3.677,2.435a4.186,4.186,0,0,1-2.759.764.811.811,0,0,0-.584.305c-1.41,1.834-2.816,3.672-4.186,5.536a4.1,4.1,0,0,1-1.834,1.524,1.428,1.428,0,0,0-.577.411,17.015,17.015,0,0,1-3.082,1.5,1.35,1.35,0,0,1-1.412-.775Zm22.093-30.189L780.982,409.2c.5-.332.911-.767,1.408-1.058,1.9-1.109,3.823-2.162,5.724-3.262a3.131,3.131,0,0,0,.883-.773c1.185-1.528,2.341-3.078,3.506-4.621.085-.112.153-.236.238-.37ZM776.72,417.541a3.466,3.466,0,0,1-2.454.765c-.116-.008-.272.155-.364.274-.794,1.035-1.578,2.077-2.363,3.118-.2.259-.387.52-.586.789l2.478,2.24,4.456-5.9ZM796,394.87c.631-.84,1.247-1.634,1.83-2.45a.661.661,0,0,0-.132-.94c-.494-.412-1.009-.8-1.538-1.169a.68.68,0,0,0-.979.135c-.626.786-1.222,1.6-1.858,2.431Zm-3.575-.8L791,395.957l2.675,1.99,1.424-1.886Zm-13.285,14.937.083.05,3.3-4.362a31.3,31.3,0,0,0-2.9,1.518.517.517,0,0,0-.209.344C779.3,407.372,779.224,408.191,779.137,409.008Zm-6.987,16.576-1.836-1.655-.621,2.883Z" transform="translate(-768 -388.677)" fill="#4e3495"/>
          <path id="Path_19490" data-name="Path 19490" d="M1028.341,470.107a1.252,1.252,0,0,1-1.125.459c-2.032-.015-4.065-.008-6.1-.006-.8,0-1.041.242-1.044,1.087-.008,2.082,0,4.165,0,6.247q0,3.47,0,6.941a2.806,2.806,0,0,0,.053.689.758.758,0,0,0,.846.595c2.082-.013,4.164,0,6.245-.011a1.233,1.233,0,0,1,1.122.469v.6a1.294,1.294,0,0,1-1.13.447c-2-.017-4-.007-6-.007-1.579,0-2.326-.614-2.661-2.274a17.223,17.223,0,0,0-1.923.182c-.9.183-1.784.473-2.681.692a.742.742,0,0,1-.958-.543.761.761,0,0,1,.641-.9c1-.278,1.99-.612,3.006-.811a10.223,10.223,0,0,1,1.9-.022V472.278c-.179-.011-.352-.029-.526-.03-1.619,0-3.239.022-4.857-.017a3.486,3.486,0,0,1-1.307-.334c-.629-.284-1.222-.652-1.826-.992-.508-.286-.659-.689-.428-1.1a.733.733,0,0,1,1.152-.19,6.653,6.653,0,0,0,4.674,1.153c.952-.077,1.916-.023,2.874-.008a.476.476,0,0,0,.516-.335,2.152,2.152,0,0,1,2.152-1.363q3.147.028,6.3,0a1.232,1.232,0,0,1,1.079.448Z" transform="translate(-977.553 -458.432)" fill="#4e3495"/>
          <path id="Path_19491" data-name="Path 19491" d="M852.209,514.1c.087-.817.166-1.635.268-2.451a.518.518,0,0,1,.21-.344,31.288,31.288,0,0,1,2.9-1.518l-3.3,4.362Z" transform="translate(-841.071 -493.77)" fill="#e9edfc"/>
          <path id="Path_19533" data-name="Path 19533" d="M3.326,39.722a28.278,28.278,0,0,0,6.5.819c3.439,0,3.978-1.117,7.258-.819s4.139.819,6.813.819a16.089,16.089,0,0,0,5.723-1.431" transform="translate(-0.018 0.786)" fill="none" stroke="#f02a4c" stroke-linecap="round" stroke-width="1.6"/>
        </g>
      </g>
    </g>
  </g>
</svg>
