<svg xmlns="http://www.w3.org/2000/svg" xmlns:xlink="http://www.w3.org/1999/xlink" width="110.976" height="79.607" viewBox="0 0 110.976 79.607">
  <defs>
    <filter id="Path_18816" x="0" y="9.97" width="54.921" height="43.569" filterUnits="userSpaceOnUse">
      <feOffset dy="3" input="SourceAlpha"/>
      <feGaussianBlur stdDeviation="3" result="blur"/>
      <feFlood flood-opacity="0.161"/>
      <feComposite operator="in" in2="blur"/>
      <feComposite in="SourceGraphic"/>
    </filter>
    <filter id="Path_18817" x="69.991" y="15.288" width="40.984" height="43.649" filterUnits="userSpaceOnUse">
      <feOffset dy="3" input="SourceAlpha"/>
      <feGaussianBlur stdDeviation="3" result="blur-2"/>
      <feFlood flood-opacity="0.161"/>
      <feComposite operator="in" in2="blur-2"/>
      <feComposite in="SourceGraphic"/>
    </filter>
  </defs>
  <g id="Group_25352" data-name="Group 25352" transform="translate(9)">
    <ellipse id="Ellipse_614" data-name="Ellipse 614" cx="43.579" cy="12.355" rx="43.579" ry="12.355" transform="translate(1.191 54.897)" fill="#7289e6" opacity="0.16"/>
    <g id="Group_15841" data-name="Group 15841" transform="translate(24.908)">
      <rect id="Rectangle_2075" data-name="Rectangle 2075" width="41.761" height="72.217" rx="8" transform="translate(0)" fill="#3b1f8a"/>
      <rect id="Rectangle_2076" data-name="Rectangle 2076" width="37.073" height="67.374" rx="8" transform="translate(2.344 2.421)" fill="#84a4fc"/>
      <rect id="Rectangle_2077" data-name="Rectangle 2077" width="34.115" height="63.645" rx="8" transform="translate(3.823 4.286)" fill="#f2f5fd" opacity="0.862"/>
      <path id="Path_18814" data-name="Path 18814" d="M934.451,783.562c-5.735.089-11.768-.833-16.288-4.628-4-3.354-6.076-8.39-6.953-13.425a87.99,87.99,0,0,1-1.055-11.244c-.179-4.095-.159-8.2.024-12.292.305-6.832.608-13.7,1.364-20.509a6.506,6.506,0,0,0-4.844,6.289v50.638a6.5,6.5,0,0,0,6.5,6.5H934.31a6.477,6.477,0,0,0,4.253-1.586C937.193,783.456,935.819,783.541,934.451,783.562Z" transform="translate(-902.876 -716.964)" fill="#e3ebff" style="mix-blend-mode: multiply;isolation: isolate"/>
      <path id="Rectangle_2078" data-name="Rectangle 2078" d="M0,0H21.376a0,0,0,0,1,0,0V0a4.692,4.692,0,0,1-4.692,4.692H4.692A4.692,4.692,0,0,1,0,0V0A0,0,0,0,1,0,0Z" transform="translate(10.193 2.421)" fill="#2a2a2a"/>
      <path id="Path_18815" data-name="Path 18815" d="M1099.548,731.442h-10.662a1.076,1.076,0,0,1-1.076-1.076h0a1.076,1.076,0,0,1,1.076-1.076h10.662a1.076,1.076,0,0,1,1.076,1.076h0A1.076,1.076,0,0,1,1099.548,731.442Z" transform="translate(-1073.337 -725.004)" fill="#fff"/>
    </g>
    <g transform="matrix(1, 0, 0, 1, -9, 0)" filter="url(#Path_18816)">
      <path id="Path_18816-2" data-name="Path 18816" d="M770.6,1032.892h-19.84a8.54,8.54,0,0,0-8.54,8.54v2.759a8.542,8.542,0,0,0,7.2,8.436q1.914,2.946,3.915,5.834.872-2.837,1.553-5.729H770.6a8.541,8.541,0,0,0,8.54-8.541v-2.759A8.54,8.54,0,0,0,770.6,1032.892Z" transform="translate(-733.22 -1016.92)" fill="#fff"/>
    </g>
    <g id="Group_15845" data-name="Group 15845" transform="translate(8.922 23.57)">
      <circle id="Ellipse_615" data-name="Ellipse 615" cx="1.92" cy="1.92" r="1.92" transform="translate(0 0)" fill="#3b1f8a"/>
      <ellipse id="Ellipse_616" data-name="Ellipse 616" cx="2.4" cy="1.92" rx="2.4" ry="1.92" transform="translate(6.719 0)" fill="#3b1f8a"/>
      <circle id="Ellipse_617" data-name="Ellipse 617" cx="1.92" cy="1.92" r="1.92" transform="translate(14.398 0)" fill="#3b1f8a"/>
    </g>
    <g transform="matrix(1, 0, 0, 1, -9, 0)" filter="url(#Path_18817)">
      <path id="Path_18817-2" data-name="Path 18817" d="M602.185,160.212a11.494,11.494,0,1,1,6.228,1.833q-.283,0-.562-.014a9.368,9.368,0,0,1-3.835,2.15,16.826,16.826,0,0,1-6.1.44,2.441,2.441,0,0,0,1.122-.422A7.535,7.535,0,0,0,602.185,160.212Z" transform="translate(-517.93 -117.77)" fill="#7a9dfd"/>
    </g>
    <g id="Group_15847" data-name="Group 15847" transform="translate(74.226 27.663)">
      <rect id="Rectangle_2079" data-name="Rectangle 2079" width="13.866" height="9.14" rx="1" transform="translate(0 0.569)" fill="#7ecfe2" style="mix-blend-mode: multiply;isolation: isolate"/>
      <g id="Group_15846" data-name="Group 15846" transform="translate(0.65)">
        <rect id="Rectangle_2080" data-name="Rectangle 2080" width="13.866" height="9.14" rx="1" transform="translate(0 0)" fill="#fff"/>
        <path id="Path_18818" data-name="Path 18818" d="M656,248.045l6.938-4.807a.581.581,0,0,0-.581-.581h-12.7a.581.581,0,0,0-.581.581Z" transform="translate(-649.071 -242.657)" fill="#e5e5e5"/>
      </g>
    </g>
  </g>
</svg>
