<svg xmlns="http://www.w3.org/2000/svg" xmlns:xlink="http://www.w3.org/1999/xlink" width="49.456" height="46.361" viewBox="0 0 49.456 46.361">
  <defs>
    <clipPath id="clip-path">
      <rect id="Rectangle_4501" data-name="Rectangle 4501" width="49.456" height="46.361" fill="#7a9dfd"/>
    </clipPath>
  </defs>
  <g id="Group_117369" data-name="Group 117369" transform="translate(0 0)">
    <g id="Group_117368" data-name="Group 117368" transform="translate(0 0)" clip-path="url(#clip-path)">
      <path id="Path_76824" data-name="Path 76824" d="M60.747,21.431l-4.218.009-.124.026a.652.652,0,0,0-.645.682c0,.421.325.595.743.584.37-.01.74,0,1.11,0h1.9c-.249.309-.43.55-.629.774-1.011,1.144-2.034,2.277-3.035,3.43-.206.238-.413.563-.19.875.157.219.434.492.663.5,1.736.043,3.474.04,5.211.015a.623.623,0,0,0,.687-.623c.014-.442-.287-.607-.632-.709a1.942,1.942,0,0,0-.528-.028q-1.5-.008-2.992-.012a.047.047,0,0,0-.02-.074c.384-.459.76-.925,1.155-1.375.761-.87,1.521-1.742,2.308-2.588.292-.314.466-.7.256-1.017-.158-.238-.59-.294-.9-.431l-.123-.04M67.791,21c.561-.632,1.118-1.267,1.683-1.894.929-1.031,1.875-2.047,2.787-3.093a1.188,1.188,0,0,0,.328-1.206.879.879,0,0,0-.913-.555c-1.977-.033-3.954-.027-5.931-.009a.717.717,0,0,0-.733.758.631.631,0,0,0,.669.773c1.144.033,2.29.032,3.434.044.166,0,.332,0,.618,0-.911,1.024-1.736,1.95-2.558,2.878-.717.81-1.456,1.6-2.14,2.44-.612.749-.313,1.458.658,1.678l.191,0h6.38l.2-.069a.7.7,0,0,0,.648-.808c-.035-.537-.324-.729-.934-.745l-.108-.072-4.256-.018c-.008-.033-.016-.066-.024-.1M52.167,23.4c.282-.141.657-.212.828-.437.354-.466.143-1.236-.822-1.3l-.125-.037H47.776c.666-.759,1.225-1.405,1.795-2.041.894-1,1.812-1.972,2.682-2.989a1.947,1.947,0,0,0,.381-.93c.075-.474-.392-.84-1.088-.851-1.816-.029-3.633-.032-5.45-.046l-.124.032a.853.853,0,0,0-.857,1.154c.2.476.665.458,1.031.469,1.162.033,2.325-.01,3.488-.024l-.01.041.035.023c-.327.4-.638.824-.984,1.212-1.177,1.318-2.365,2.627-3.551,3.937a.97.97,0,0,0-.3,1.086,1.118,1.118,0,0,0,1.054.7l.1-.009h6.08l.1.008" transform="translate(-23.659 -7.519)" fill="#7a9dfd"/>
      <path id="Path_76825" data-name="Path 76825" d="M45.736,32.531a23.237,23.237,0,0,1-3.026,4.851,23.6,23.6,0,0,1-5.058,4.676,23.144,23.144,0,0,1-5.9,2.96,38.774,38.774,0,0,1-4.238,1.014,17.841,17.841,0,0,1-4.8.283A24.424,24.424,0,0,1,9.5,41.464a23.322,23.322,0,0,1-5.148-5.332,24.146,24.146,0,0,1-3.13-6.218A20.581,20.581,0,0,1,.189,25.338C.156,24.989.066,24.645,0,24.3V20.336c.066-.391.151-.783.193-1.183a22.574,22.574,0,0,1,1.659-6.19A22.648,22.648,0,0,1,4.86,7.731,23.488,23.488,0,0,1,9.174,3.366,23.189,23.189,0,0,1,14.623.151c.721-.292,1.494-.207,1.655.7a1.663,1.663,0,0,1-.174.891,22.112,22.112,0,0,0-1.584,4.95c-.189.938-.207,1.914-.306,2.871a4.858,4.858,0,0,0-.094.9c.1,1.273.222,2.55.372,3.823A19.743,19.743,0,0,0,16.725,21a21.039,21.039,0,0,0,3.267,4.606,21.643,21.643,0,0,0,6.859,5.011,19.946,19.946,0,0,0,5.383,1.7,15.141,15.141,0,0,0,2.852.363,22.7,22.7,0,0,0,5.115-.424c1.391-.387,2.767-.839,4.158-1.235a1.216,1.216,0,0,1,1.259.2,1.072,1.072,0,0,1,.118,1.315" transform="translate(0 0)" fill="#7a9dfd"/>
      <path id="Path_76826" data-name="Path 76826" d="M49.636,17.006c-1.163.014-2.327.056-3.488.024-.366-.01-.828.007-1.031-.469a.853.853,0,0,1,.857-1.154l.124-.032c1.817.014,3.634.016,5.45.046.7.011,1.163.377,1.088.851a1.946,1.946,0,0,1-.381.93c-.87,1.017-1.788,1.993-2.682,2.989-.57.636-1.129,1.282-1.8,2.041H52.05l.124.037c.965.06,1.176.83.822,1.3-.172.225-.546.3-.828.437l-.1-.008h-6.08l-.1.009a1.118,1.118,0,0,1-1.053-.7.97.97,0,0,1,.3-1.087c1.186-1.31,2.374-2.618,3.551-3.937.346-.387.657-.807.984-1.212L49.7,17l-.069.009" transform="translate(-23.66 -8.127)" fill="#7a9dfd"/>
      <path id="Path_76827" data-name="Path 76827" d="M88.074,22.812c-.972-.221-1.27-.929-.659-1.678.684-.837,1.422-1.63,2.14-2.44.822-.929,1.647-1.855,2.558-2.879-.286,0-.452,0-.618,0-1.145-.012-2.29-.011-3.434-.044A.631.631,0,0,1,87.394,15a.718.718,0,0,1,.732-.759c1.977-.018,3.954-.024,5.931.009a.879.879,0,0,1,.914.555,1.19,1.19,0,0,1-.328,1.206c-.913,1.046-1.859,2.061-2.787,3.093-.565.627-1.122,1.262-1.683,1.894.008.033.015.065.023.1l4.257.018.107.071c.61.016.9.208.934.746a.7.7,0,0,1-.648.808l-.2.069H88.266l-.191,0" transform="translate(-46.039 -7.519)" fill="#7a9dfd"/>
      <path id="Path_76828" data-name="Path 76828" d="M68.647,29.519l4.218-.009.123.04c.31.137.742.193.9.431.209.315.036.7-.256,1.017-.787.847-1.546,1.719-2.308,2.588-.395.45-.77.916-1.155,1.375l-.053.076.073,0q1.5.006,2.991.012a1.942,1.942,0,0,1,.528.028c.345.1.646.268.632.709a.623.623,0,0,1-.688.623c-1.737.025-3.475.028-5.211-.015-.229-.006-.506-.279-.662-.5-.224-.312-.016-.637.19-.875,1-1.153,2.024-2.286,3.035-3.43.2-.224.379-.465.629-.774h-1.9c-.37,0-.741-.011-1.11,0-.418.011-.74-.163-.743-.584a.652.652,0,0,1,.645-.682Z" transform="translate(-35.777 -15.599)" fill="#7a9dfd"/>
      <path id="Path_76829" data-name="Path 76829" d="M89.169,32.436l.191,0-.191,0" transform="translate(-47.134 -17.143)" fill="#7a9dfd"/>
      <path id="Path_76830" data-name="Path 76830" d="M103.107,32.354l.2-.069-.2.069" transform="translate(-54.502 -17.066)" fill="#7a9dfd"/>
      <path id="Path_76831" data-name="Path 76831" d="M47.457,15.376l-.124.032.124-.032" transform="translate(-25.02 -8.128)" fill="#7a9dfd"/>
      <path id="Path_76832" data-name="Path 76832" d="M55.093,18.824l.069-.009-.043.074-.035-.023Z" transform="translate(-29.117 -9.945)" fill="#7a9dfd"/>
      <path id="Path_76833" data-name="Path 76833" d="M93.642,28.688l-.024-.1.024.1" transform="translate(-49.486 -15.112)" fill="#7a9dfd"/>
      <path id="Path_76834" data-name="Path 76834" d="M102.8,28.909l-.108-.071.108.071" transform="translate(-54.285 -15.244)" fill="#7a9dfd"/>
      <path id="Path_76835" data-name="Path 76835" d="M69.59,29.53l-.124.026Z" transform="translate(-36.719 -15.609)" fill="#7a9dfd"/>
      <path id="Path_76836" data-name="Path 76836" d="M78.8,29.55l-.123-.039.123.039" transform="translate(-41.588 -15.599)" fill="#7a9dfd"/>
      <path id="Path_76837" data-name="Path 76837" d="M60.349,29.959l-.125-.037.125.037" transform="translate(-31.834 -15.817)" fill="#7a9dfd"/>
      <path id="Path_76838" data-name="Path 76838" d="M47.141,33.668l.1-.009-.1.009" transform="translate(-24.918 -17.792)" fill="#7a9dfd"/>
      <path id="Path_76839" data-name="Path 76839" d="M60.257,33.66l.1.008-.1-.008" transform="translate(-31.852 -17.792)" fill="#7a9dfd"/>
      <path id="Path_76840" data-name="Path 76840" d="M72.918,41.146l-.073,0,.053-.076a.047.047,0,0,1,.02.074" transform="translate(-38.505 -21.71)" fill="#7a9dfd"/>
    </g>
  </g>
</svg>
