<svg xmlns="http://www.w3.org/2000/svg" xmlns:xlink="http://www.w3.org/1999/xlink" width="60.004" height="53.902" viewBox="0 0 60.004 53.902">
  <defs>
    <clipPath id="clip-path">
      <path id="Path_76849" data-name="Path 76849" d="M-4991.29-2074.444s.944,1.459-.861-1.368-1.816-20.877-.7-23.168,4.748-8.634,10.076-8.268,8.771-.333,8.527,2.614,1.041,14.223,1.041,16.959-.183,11.864-1.041,11.864.033,8.365-.7,9.8S-4991.29-2074.444-4991.29-2074.444Z" transform="translate(4993.612 2107.262)" fill="none" stroke="#707070" stroke-width="1"/>
    </clipPath>
  </defs>
  <g id="Group_117604" data-name="Group 117604" transform="translate(4995.969 2120.346)">
    <path id="Path_19467" data-name="Path 19467" d="M-13723.663-646.721c-5.944,5.946-18.165,16.315-10.657,32.692s4.905,3.765,4.905,3.765l13.405-.474,12.135-4.3v-2.924l-3.8-4.484-.487-1.249s-.78-1.09-1.073-1.188-2.627-1.657-2.627-1.657v-4.386h3.7l-.646-7.067,2.675-5.9,5.09-1.919,7.872.823s-1.437-4.557-7.872-6.117S-13717.718-652.668-13723.663-646.721Z" transform="translate(8740.72 -1468.361)" fill="#e5ebfb"/>
    <g id="Group_16588" data-name="Group 16588" transform="translate(-4978.699 -2117.236)">
      <path id="Path_19458" data-name="Path 19458" d="M1270.189,387.351a4.177,4.177,0,0,0-3.017-3.278c-2.8-.846-5.613-1.673-8.414-2.527a.766.766,0,0,0-.919.259c-2.374,2.671-4.762,2.673-7.143,5.338-.658.737-.919.753-1.581.016-2.4-2.676-4.8-2.7-7.184-5.39a.726.726,0,0,0-.89-.268c-2.628.817-7.391,2.264-7.8,2.573-.72.312-2.153-.738,0-1.395,3.618-1.1,6.28-2.091,9.9-3.18.364-.11.593-.245.507-.663a.646.646,0,0,1,0-.132,15.759,15.759,0,0,0-.032-2.642c-.153-.886-1.147-1.175-1.686-1.818a11.012,11.012,0,0,1-2.308-4.112c-.147-.529-.343-.717-.916-.716a3.5,3.5,0,0,1-3.4-2.873,3.565,3.565,0,0,1,2.189-3.952,3.194,3.194,0,0,1,1.227-.232c.359.006.43-.136.426-.465-.016-1.588-.009-3.177-.006-4.765a8.785,8.785,0,0,1,8.665-9.055,24.681,24.681,0,0,1,5.61.174,8.883,8.883,0,0,1,3.581,1.613.869.869,0,0,1,.359,1.236,1.032,1.032,0,0,1-1.21-.192,6.078,6.078,0,0,0-2.978-1.344,21.746,21.746,0,0,0-6.52-.012c-3.793.644-6.174,3.766-6.193,7.751,0,.558.1.756.713.744,2.071-.043,4.144-.016,6.216-.016,3.7,0,7.408-.01,11.112.011.515,0,.7-.125.666-.657a12.889,12.889,0,0,0-.162-2.038.812.812,0,0,1,.4-1.011c.63-.043.831.34.925.882a32.205,32.205,0,0,1,.149,4.689c.017.617.033,1.237-.007,1.853-.03.456.129.578.573.617a3.521,3.521,0,0,1-.06,7.034c-.647.007-.82.241-.988.791a10.249,10.249,0,0,1-3.63,5.235.887.887,0,0,0-.406.818,23.7,23.7,0,0,1,0,2.382c-.034.529.128.745.65.9,3.548,1.029,7.081,2.113,10.626,3.151a5.642,5.642,0,0,1,4.33,4.867C1271.631,387.975,1270.319,387.906,1270.189,387.351Zm-20.22-19.653c-2.072,0-4.144.013-6.216-.011-.436,0-.549.118-.543.547.026,1.631.022,3.262,0,4.893a1.084,1.084,0,0,0,.405.906,9.4,9.4,0,0,0,12.681-.266.938.938,0,0,0,.328-.741c-.017-1.609-.023-3.218,0-4.827.006-.409-.1-.516-.509-.511C1254.068,367.71,1252.018,367.7,1249.968,367.7Zm8.339-8.542c-1.721,0-16.41.015-18.13,0-.339,0,.914,4.6,1.112,4.874.482.657.936,1.335,1.386,2.015a.618.618,0,0,0,.58.333q2.746-.02,5.493,0c.32,0,.426-.11.418-.421-.016-.617.005-1.236-.007-1.853-.01-.481.059-.953.643-.957.619,0,.7.487.689.992-.009.6.014,1.192-.008,1.787-.012.341.1.457.45.454,1.853-.015,6.047-.093,6.2-.349.376-.622.752-1.246,1.172-1.839C1258.555,363.842,1260.028,359.156,1258.307,359.156Zm-13.335,17.432c0,.762,0,1.459,0,2.156,0,1.712.167,1.522-1.484,2.02-.417.126-.51.208-.185.568,2.1,2.325,4.185,2,6.253,4.351.306.347.441.259.693-.026,1.342-1.52,5.7-3.713,6.558-4.672a10.759,10.759,0,0,0-1.259-.4,1,1,0,0,1-.913-1.2c.042-.907.01-1.817.01-2.792A10.94,10.94,0,0,1,1244.972,376.588Zm15.511-10.634h-.015a15.8,15.8,0,0,1-.013,1.653c-.053.5.181.534.563.5a2.221,2.221,0,0,0-.074-4.433c-.339-.021-.482.062-.468.427C1260.5,364.718,1260.483,365.336,1260.483,365.954Zm-21.328-.045h-.014c0-.617-.009-1.235,0-1.852.006-.272-.062-.383-.365-.386a2.223,2.223,0,0,0,0,4.446c.34,0,.394-.121.38-.423C1239.138,367.1,1239.155,366.5,1239.155,365.909Zm1.375-.591c-.3,2.439.36,5.554,1.363,6.433a23.212,23.212,0,0,1,.024-2.971C1242.105,367.332,1241.355,366.345,1240.53,365.318Zm17.413,6.072a8.779,8.779,0,0,0,1.108-5.873c-.318.72-1.087,1.2-1.1,2.052C1257.927,368.843,1257.943,370.117,1257.943,371.39Zm-17.487-9.017Z" transform="translate(-1229.213 -345.63)" fill="#4e3495"/>
      <path id="Path_19459" data-name="Path 19459" d="M1231.993,469.913a.621.621,0,0,1,.541.486c.088.272.165.547.243.821a2.546,2.546,0,0,0,1.828,1.9c.4.111.7.317.693.76-.008.4-.286.614-.663.715a2.731,2.731,0,0,0-1.939,2.135,6.749,6.749,0,0,1-.2.7.7.7,0,0,1-1.263,0,3.653,3.653,0,0,1-.156-.572,2.77,2.77,0,0,0-1.926-2.227c-.371-.122-.71-.282-.715-.747-.006-.5.349-.66.752-.779a2.838,2.838,0,0,0,1.911-2.392C1231.192,470.313,1231.317,469.93,1231.993,469.913Zm-.132,2.782c-.138.193-.219.324-.317.439-.222.258-.647.523-.629.758.02.266.472.476.668.757.239.342.316.231.59,0,.644-.554.7-1.011,0-1.529A2.047,2.047,0,0,1,1231.861,472.7Z" transform="translate(-1228.434 -469.913)" fill="#f02a4c"/>
      <path id="Path_19460" data-name="Path 19460" d="M1442.536,469.933a.643.643,0,0,1,.644.472c.069.208.113.425.173.636a2.7,2.7,0,0,0,1.954,2.114.736.736,0,0,1,.641.734.75.75,0,0,1-.655.722,2.7,2.7,0,0,0-1.927,2.065c-.068.232-.111.472-.19.7a.653.653,0,0,1-.656.463.63.63,0,0,1-.659-.448c-.06-.188-.105-.381-.149-.574a2.755,2.755,0,0,0-1.905-2.168c-.4-.13-.748-.3-.722-.808.024-.464.363-.609.741-.719a2.861,2.861,0,0,0,1.922-2.385C1441.9,470.11,1442.11,469.919,1442.536,469.933Zm-1.045,3.931.986,1.085,1.05-1.014-1.046-1.193A4.653,4.653,0,0,1,1441.49,473.864Z" transform="translate(-1403.213 -446.031)" fill="#f02a4c"/>
      <path id="Path_19464" data-name="Path 19464" d="M1323.739,434.7c.03.486-.064.944-.636.952-.611.009-.694-.471-.694-.972s.124-.924.687-.914S1323.773,434.224,1323.739,434.7Z" transform="translate(-1307.142 -416.254)" fill="#4e3495"/>
      <path id="Path_19465" data-name="Path 19465" d="M1376.613,434.727c.025.484-.093.933-.652.944-.618.012-.679-.467-.681-.971s.1-.921.675-.91S1376.638,434.241,1376.613,434.727Z" transform="translate(-1350.677 -416.271)" fill="#4e3495"/>
    </g>
    <path id="Path_19468" data-name="Path 19468" d="M-13729.9-608.475v-8.585l.516-1.616-1.442-2.323v-7.878l1.442-.4,1.335.4v-1.01l2.263-1.414s1.441-.3,1.546,0a1.48,1.48,0,0,1,0,.707l1.953-.707h1.543v-1.818l.514-5.151h1.542s.826,0,.926.505-.1.606,0,1.818,0,10.3,0,10.3l1.028,1.818v2.02l-1.028,1.515-.926,1.616.926,1.616v5.757l1.028,10.675-12.649-6.152Z" transform="translate(8740.412 -1466.337)" fill="#fff"/>
    <g id="Mask_Group_66543" data-name="Mask Group 66543" transform="translate(-4993.716 -2107.839)" clip-path="url(#clip-path)">
      <g id="Group_16590" data-name="Group 16590" transform="translate(2.165 2.677) rotate(-2)">
        <g id="Group_16589" data-name="Group 16589" transform="translate(0 0)">
          <path id="Path_19466" data-name="Path 19466" d="M14.827,13.879a.871.871,0,0,1-.165-.528q.007-5.552,0-11.1c0-.173-.007-.345-.02-.517A1.907,1.907,0,0,0,12.6.008a1.928,1.928,0,0,0-1.769,2.024c0,1.8,0,3.6,0,5.4v.345a2.212,2.212,0,0,0-3.361.4,2.121,2.121,0,0,0-2.583-.835,2.289,2.289,0,0,0-1.419,2.668A.353.353,0,0,1,3.393,10c-.03-.02-.058-.043-.088-.064a1.99,1.99,0,0,0-2.229-.151A2.051,2.051,0,0,0,0,11.753q.017,2.5.022,4.992a10.845,10.845,0,0,0,.1,1.467,6.321,6.321,0,0,0,1.244,2.914A3.219,3.219,0,0,0,.273,23.574V65.946h13.85V23.574a3.252,3.252,0,0,0-.868-2.237,8.9,8.9,0,0,0,.976-1.263,7.853,7.853,0,0,0,1.209-3.907A3.548,3.548,0,0,0,14.827,13.879Zm-3.3-10.36c0-.518-.008-1.037,0-1.555a1.231,1.231,0,1,1,2.461-.009q.007,5.455,0,10.91c0,.033,0,.066-.01.131a4.645,4.645,0,0,0-1.049-.49,3.171,3.171,0,0,0-1.1-.128c-.238.018-.3-.051-.3-.3C11.526,9.229,11.522,6.374,11.522,3.519Zm-3.7,5.764a1.5,1.5,0,0,1,1.5-1.426,1.512,1.512,0,0,1,1.5,1.408c.016.481,0,.963,0,1.444h0c0,.482,0,.964,0,1.445,0,.156-.025.226-.205.224-.872-.009-1.745-.008-2.617,0-.159,0-.2-.054-.2-.2C7.816,11.21,7.806,10.247,7.822,9.284ZM4.16,9.2a1.481,1.481,0,0,1,2.952.134c.01.463,0,.926,0,1.389h0c0,.482-.007.963,0,1.444,0,.169-.051.215-.216.213-.691-.008-1.38,0-2.07,0a1.162,1.162,0,0,0-.379.016c-.3.109-.34-.019-.327-.283C4.171,11.14,4.073,10.167,4.16,9.2ZM.718,11.789a1.367,1.367,0,0,1,2.733-.051q.022,1.049,0,2.1a1.379,1.379,0,0,1-2.6.628A.971.971,0,0,1,.723,14c0-.39,0-.781,0-1.171H.718C.718,12.479.716,12.134.718,11.789Zm12.59,11.785V65.059H1.089V23.574a2.286,2.286,0,0,1,.835-1.8A6.425,6.425,0,0,0,4.8,23.524a9.365,9.365,0,0,0,4,.155,7.59,7.59,0,0,0,3.845-1.751l.022.023A2.319,2.319,0,0,1,13.308,23.574ZM11.441,21.95A7.81,7.81,0,0,1,6.548,23.11a5.923,5.923,0,0,1-3.86-1.545A5.8,5.8,0,0,1,.726,17.281c-.017-.606,0-1.212,0-1.862a2.1,2.1,0,0,0,2.418.176,1.7,1.7,0,0,0,.51-.446c.082-.106.136-.153.229,0a3.284,3.284,0,0,0,3.108,1.643c.37-.008.741,0,1.169,0-.107.1-.177.166-.245.232A3.356,3.356,0,0,0,6.85,19.344c-.017.308-.009.618-.007.927s.116.462.338.466.352-.156.356-.478,0-.637.009-.955a2.7,2.7,0,0,1,2.561-2.5.991.991,0,0,0,.242-.022.325.325,0,0,0,.271-.357.33.33,0,0,0-.312-.322,1.545,1.545,0,0,0-.246-.005c-1.1,0-2.2.008-3.3,0A2.531,2.531,0,0,1,4.206,14.1a2.111,2.111,0,0,1-.056-.567c.007-.307.244-.485.635-.488.645,0,1.291,0,1.935,0,1.691,0,3.381,0,5.072,0A2.867,2.867,0,0,1,14.2,14.2a2.5,2.5,0,0,1,.542,1.54A7.079,7.079,0,0,1,11.441,21.95Z" fill="#4e3495" stroke="#4e3495" stroke-width="0.4"/>
        </g>
      </g>
    </g>
  </g>
</svg>
