<svg xmlns="http://www.w3.org/2000/svg" width="104" height="104" viewBox="0 0 104 104">
  <g id="Group_112499" data-name="Group 112499" transform="translate(-509 -1436)">
    <circle id="Ellipse_751" data-name="Ellipse 751" cx="52" cy="52" r="52" transform="translate(509 1436)" fill="#fff"/>
    <g id="Group_25142" data-name="Group 25142" transform="translate(358.69 975.87)">
      <g id="Group_16618" data-name="Group 16618" transform="translate(158.463 470.484)">
        <g id="Group_16617" data-name="Group 16617" transform="translate(0 0)">
          <g id="Group_16616" data-name="Group 16616" transform="translate(0 0)">
            <path id="Path_19488" data-name="Path 19488" d="M-13822.006-1101.423s-16.116-15.1-34.237-11.483-7.427,8.22-12.5,11.483c-19.7,6.934-23.877,16.56-22.661,33.573,1.645,23.022,26.605,36.329,26.605,36.329l-18.415-52.621,14.471-4.6v-5.92l12.5-2.3,2.3-4.455Z" transform="translate(13891.595 1113.466)" fill="#e5ebfb"/>
            <g id="Group_16592" data-name="Group 16592" transform="translate(8.562 11.291)">
              <g id="Group_16591" data-name="Group 16591" transform="translate(36.344 11.613)">
                <path id="Path_19469" data-name="Path 19469" d="M1428.091,123.388h12.362a3.34,3.34,0,0,0,.593-.023.85.85,0,0,0,.1-1.656,2.059,2.059,0,0,0-.587-.055q-12.443,0-24.886,0a2.2,2.2,0,0,0-.588.048.849.849,0,0,0,.1,1.668,3.9,3.9,0,0,0,.593.019Zm-3.458,9.894h-8.963c-.83,0-1.24.29-1.237.867s.425.866,1.245.869h.054q8.882,0,17.764,0a2.485,2.485,0,0,0,.642-.048.851.851,0,0,0-.112-1.668,3.848,3.848,0,0,0-.539-.017Zm-.054,6.379h4.373c1.62,0,3.24.006,4.86,0a.866.866,0,0,0,.968-.86c0-.51-.365-.844-.96-.87-.108,0-.216,0-.324,0h-17.764a2.786,2.786,0,0,0-.591.029.852.852,0,0,0-.007,1.675,2.679,2.679,0,0,0,.591.03Q1420.152,139.661,1424.58,139.66Zm-2.916,12.8q2.1,0,4.208,0c.737,0,1.476.02,2.211-.016a.862.862,0,0,0,.883-.895.88.88,0,0,0-.89-.836,3.5,3.5,0,0,0-.377-.01q-5.988,0-11.976,0c-.859,0-1.293.3-1.29.88s.441.876,1.3.877Q1418.7,152.457,1421.664,152.456Zm6.433-24.424q3.021,0,6.041,0c.83,0,1.239-.291,1.234-.867s-.431-.871-1.246-.871q-6.014,0-12.029,0a2.237,2.237,0,0,0-.689.082.776.776,0,0,0-.558.877.793.793,0,0,0,.72.754,3.756,3.756,0,0,0,.538.022Q1425.1,128.033,1428.1,128.032Zm-10.466,27.327c-.737,0-1.473-.012-2.21,0-.606.013-.978.346-.989.842a.89.89,0,0,0,.952.89q2.236.031,4.473,0a.867.867,0,0,0,.952-.88c0-.508-.358-.838-.969-.853C1419.1,155.346,1418.368,155.359,1417.631,155.36Zm22.735-22.065v0a6.888,6.888,0,0,0-.7,0,.8.8,0,0,0-.774.812.756.756,0,0,0,.653.855,5.952,5.952,0,0,0,1.545,0,.76.76,0,0,0,.665-.893.789.789,0,0,0-.749-.774A4.983,4.983,0,0,0,1440.366,133.295Zm-.032,6.356v0c.2,0,.395.014.59,0a.846.846,0,0,0,.842-.863.836.836,0,0,0-.849-.854,8.962,8.962,0,0,0-1.233.006.851.851,0,0,0-.8.855.866.866,0,0,0,.8.851A6,6,0,0,0,1440.334,139.651Z" transform="translate(-1414.432 -121.651)" fill="#fff"/>
                <path id="Path_19470" data-name="Path 19470" d="M1581.142,248.685a12.576,12.576,0,0,1-.76,1.045q-5.649,7.518-11.3,15.034a1.71,1.71,0,0,1-1.4.875c-.028.045-.059.088-.088.131a4.4,4.4,0,0,1-1.1-.757c-1.757-2.275-3.476-4.579-5.189-6.885a1.434,1.434,0,0,1,.22-2.025,1.458,1.458,0,0,1,2.1.3c1.052,1.366,2.077,2.753,3.114,4.13.661.879,1.21.886,1.864.013q4.973-6.609,9.937-13.224a1.635,1.635,0,0,1,1.472-.83A1.44,1.44,0,0,1,1581.142,248.685Z" transform="translate(-1541.206 -229.627)"/>
                <path id="Path_19471" data-name="Path 19471" d="M1664.43,184.031l-.01,0c0-2.618.007-5.065.008-7.457Q1664.435,180.3,1664.43,184.031Z" transform="translate(-1630.666 -169.155)"/>
                <path id="Path_19472" data-name="Path 19472" d="M1677.441,205.7v2.332c0-.112,0-.223,0-.335Q1677.44,206.7,1677.441,205.7Z" transform="translate(-1641.927 -194.351)"/>
                <path id="Path_19473" data-name="Path 19473" d="M1677.4,234.68v.358l-.008,0v-.007C1677.394,234.912,1677.4,234.8,1677.4,234.68Z" transform="translate(-1641.884 -219.418)"/>
                <path id="Path_19474" data-name="Path 19474" d="M1571.9,236.368c-.021.284-.048.634-.071.917a.415.415,0,0,1-.043.155,12.814,12.814,0,0,1-1.028,1.884q-5.747,7.721-11.551,15.4a3.152,3.152,0,0,1-3.985,1.218,3.7,3.7,0,0,1-1.38-1.111c-1.734-2.233-3.428-4.5-5.108-6.773a3.177,3.177,0,0,1,4-4.779,4.315,4.315,0,0,1,1.19,1.065c.754.942,1.468,1.918,2.213,2.919a.421.421,0,0,0,.671.006l0,0q2.771-3.684,5.535-7.374h0l4.1-5.35a.463.463,0,0,1,.051-.057,3.158,3.158,0,0,1,4.061-.3c.043.03.083.059.125.092a2.346,2.346,0,0,1,.219.189.485.485,0,0,1,.036.035,2.78,2.78,0,0,1,.3.351c.029.038.056.078.082.117l.005.009c.029.043.056.086.081.13s.053.089.077.136.048.091.071.136.034.067.049.1q.043.089.081.182c.073.176.139.357.2.542Z" transform="translate(-1529.988 -218.466)" fill="#f02a4c"/>
                <path id="Path_19476" data-name="Path 19476" d="M1428.145,123.388h-12.309a3.893,3.893,0,0,1-.592-.019.85.85,0,0,1-.1-1.668,2.2,2.2,0,0,1,.588-.048q12.444,0,24.887,0a2.058,2.058,0,0,1,.587.055.85.85,0,0,1-.1,1.656,3.332,3.332,0,0,1-.592.023Z" transform="translate(-1414.485 -121.651)" fill="#84a4fc"/>
                <path id="Path_19477" data-name="Path 19477" d="M1424.647,207.784h8.855a3.855,3.855,0,0,1,.539.017.851.851,0,0,1,.112,1.668,2.487,2.487,0,0,1-.642.048q-8.883,0-17.764,0h-.054c-.821,0-1.243-.3-1.245-.869s.406-.866,1.236-.867Z" transform="translate(-1414.446 -196.154)" fill="#84a4fc"/>
                <path id="Path_19478" data-name="Path 19478" d="M1424.637,243.9q-4.428,0-8.855,0a2.67,2.67,0,0,1-.591-.03.852.852,0,0,1,.008-1.675,2.793,2.793,0,0,1,.591-.029h17.764c.108,0,.216,0,.324,0,.594.026.962.361.96.87a.866.866,0,0,1-.968.86c-1.62.011-3.24,0-4.86,0Z" transform="translate(-1414.489 -225.892)" fill="#84a4fc"/>
                <path id="Path_19479" data-name="Path 19479" d="M1421.667,338.534q-2.967,0-5.934,0c-.856,0-1.295-.3-1.3-.877s.431-.88,1.29-.88q5.988,0,11.976,0a3.491,3.491,0,0,1,.377.01.88.88,0,0,1,.89.836.862.862,0,0,1-.883.895c-.735.037-1.474.015-2.211.016Q1423.77,338.536,1421.667,338.534Z" transform="translate(-1414.435 -307.729)" fill="#84a4fc"/>
                <path id="Path_19480" data-name="Path 19480" d="M1469.183,157.774q-2.993,0-5.987,0a3.758,3.758,0,0,1-.538-.022.793.793,0,0,1-.72-.754.775.775,0,0,1,.557-.877,2.239,2.239,0,0,1,.689-.082q6.015-.007,12.029,0c.814,0,1.242.3,1.246.871s-.4.866-1.234.867Q1472.2,157.776,1469.183,157.774Z" transform="translate(-1455.518 -151.392)" fill="#84a4fc"/>
                <path id="Path_19481" data-name="Path 19481" d="M1417.631,371.269c.737,0,1.473-.013,2.209,0,.611.014.966.345.969.853a.867.867,0,0,1-.952.88q-2.236.03-4.473,0a.89.89,0,0,1-.952-.89c.011-.5.383-.829.989-.842C1416.158,371.257,1416.895,371.269,1417.631,371.269Z" transform="translate(-1414.432 -337.561)" fill="#84a4fc"/>
                <path id="Path_19482" data-name="Path 19482" d="M1597.072,207.826a4.983,4.983,0,0,1,.643,0,.79.79,0,0,1,.75.774.76.76,0,0,1-.665.893,5.959,5.959,0,0,1-1.546,0,.756.756,0,0,1-.652-.855.8.8,0,0,1,.774-.812,6.875,6.875,0,0,1,.7,0Z" transform="translate(-1571.138 -196.182)" fill="#84a4fc"/>
                <path id="Path_19483" data-name="Path 19483" d="M1596.989,243.848a6,6,0,0,1-.643,0,.865.865,0,0,1-.8-.851.85.85,0,0,1,.8-.855,8.954,8.954,0,0,1,1.232-.007.837.837,0,0,1,.85.854.846.846,0,0,1-.842.863c-.2.017-.393,0-.59,0Z" transform="translate(-1571.087 -225.848)" fill="#84a4fc"/>
                <path id="Path_19484" data-name="Path 19484" d="M1581.142,248.685a12.576,12.576,0,0,1-.76,1.045q-5.649,7.518-11.3,15.034a1.71,1.71,0,0,1-1.4.875c-.028.045-.059.088-.088.131a4.4,4.4,0,0,1-1.1-.757c-1.757-2.275-3.476-4.579-5.189-6.885a1.434,1.434,0,0,1,.22-2.025,1.458,1.458,0,0,1,2.1.3c1.052,1.366,2.077,2.753,3.114,4.13.661.879,1.21.886,1.864.013q4.973-6.609,9.937-13.224a1.635,1.635,0,0,1,1.472-.83A1.44,1.44,0,0,1,1581.142,248.685Z" transform="translate(-1541.206 -229.627)" fill="#fff"/>
              </g>
              <path id="Path_19485" data-name="Path 19485" d="M1232.576,91.5q0,3.452,0,6.9a3.391,3.391,0,0,1-3.663,3.732h-8.227a30.2,30.2,0,0,0-5.035,1.4c-11.195,4.143-22.408,8.228-33.614,12.337-1.627.6-2.46.188-3.053-1.489q-4.107-11.647-8.217-23.293c-.409-1.162-.277-1.752.46-2.038.706-.274,1.21.12,1.616,1.273q4,11.331,8,22.658c.089.254.18.5.3.83,8.085-2.962,16.106-5.9,24.126-8.842-.008-.04-.018-.078-.028-.118-1.819.313-3.638.621-5.455.94q-7.38,1.29-14.76,2.585a1.86,1.86,0,0,1-2.26-1.682q-1.477-8.663-2.929-17.33-2.024-12.021-4.044-24.044c-.38-2.259-.76-4.518-1.164-6.913-3.876,1.352-7.7,2.688-11.585,4.048.1.313.175.565.262.815q3.734,10.593,7.471,21.183a4.341,4.341,0,0,1,.19.565,1.063,1.063,0,0,1-.683,1.324,1.009,1.009,0,0,1-1.354-.557,4.923,4.923,0,0,1-.269-.7q-3.89-11.012-7.777-22.023c-.042-.113-.106-.218-.159-.327V61.688a3.223,3.223,0,0,1,1.986-1.491c2.318-.782,4.621-1.616,6.932-2.426,1.521-.534,3.044-1.063,4.6-1.6-.207-1.275-.437-2.5-.6-3.729a1.862,1.862,0,0,1,1.68-2.276c1.759-.312,3.519-.609,5.28-.917l6.93-1.215.063.519a5.717,5.717,0,0,1,.59-2.788c.035-.068.069-.136.107-.2a2.227,2.227,0,0,1,.882-.862,3.871,3.871,0,0,1,1.94-.5h38.705c2.242.92,2.761,1.715,2.761,4.235V67.088q0,1.048,0,2.1c0,.118,0,.234,0,.351v1.66c0,.122,0,.244-.009.364v.007a.939.939,0,0,1-.911,1c-.511-.006-.847-.4-.88-1.032-.009-.17,0-.34,0-.509v-.24q0-3.916,0-7.831V62.2c0-4.637,0-9.117,0-14.21,0-1.441-.528-1.973-1.952-1.973h-37.485c-1.421,0-1.926.52-1.928,1.983v7.524c0,.152.007.3,0,.453-.046.625-.395,1.01-.908,1.01a.907.907,0,0,1-.89-1.016c-.018-1.847-.009-3.7-.01-5.543v-.085c-3.874.677-7.926,1.339-11.753,2.01,3.021,17.956,6.026,35.82,9.045,53.76l21.467-3.751,1.325-.231h-16.2c-2.417,0-3.529-.971-3.885-3.384a2.836,2.836,0,0,0-.073-.291l.073-1.859v-.788q0-17.708,0-35.413a5,5,0,0,1,.052-.845.863.863,0,0,1,1.683-.048,3.946,3.946,0,0,1,.072.839q0,18.9,0,37.79c0,.227,0,.454.007.679a1.494,1.494,0,0,0,1.4,1.488,4.889,4.889,0,0,0,.5.011q18.771,0,37.543,0a3.137,3.137,0,0,0,.877-.1c.7-.21,1.042-.784,1.043-1.73q.009-4.413,0-8.826c0-.169-.005-.339,0-.509.033-.635.368-1.026.88-1.032a.94.94,0,0,1,.911,1.012C1232.594,89.918,1232.576,90.711,1232.576,91.5Z" transform="translate(-1160.72 -44.2)" fill="#4e3495"/>
              <path id="Path_19486" data-name="Path 19486" d="M1664.471,171.24v.72c0-.24,0-.479,0-.72Z" transform="translate(-1594.365 -153.227)"/>
              <path id="Path_19487" data-name="Path 19487" d="M1677.45,224.551V222.97C1677.452,223.5,1677.459,224.025,1677.45,224.551Z" transform="translate(-1605.592 -197.606)"/>
            </g>
          </g>
        </g>
      </g>
    </g>
  </g>
</svg>
