<svg xmlns="http://www.w3.org/2000/svg" xmlns:xlink="http://www.w3.org/1999/xlink" width="91" height="91" viewBox="0 0 91 91">
  <defs>
    <filter id="Ellipse_304" x="0" y="0" width="91" height="91" filterUnits="userSpaceOnUse">
      <feOffset dy="3" input="SourceAlpha"/>
      <feGaussianBlur stdDeviation="3" result="blur"/>
      <feFlood flood-opacity="0.161"/>
      <feComposite operator="in" in2="blur"/>
      <feComposite in="SourceGraphic"/>
    </filter>
  </defs>
  <g id="Group_117060" data-name="Group 117060" transform="translate(-142 -1995)">
    <g transform="matrix(1, 0, 0, 1, 142, 1995)" filter="url(#Ellipse_304)">
      <circle id="Ellipse_304-2" data-name="Ellipse 304" cx="36.5" cy="36.5" r="36.5" transform="translate(9 6)" fill="#f02a4c"/>
    </g>
    <g id="register" transform="translate(169 2016)">
      <path id="Path_6628" data-name="Path 6628" d="M21.969,32.937A10.969,10.969,0,1,1,32.937,21.969,10.981,10.981,0,0,1,21.969,32.937Zm0-20.25a9.281,9.281,0,1,0,9.281,9.281A9.292,9.292,0,0,0,21.969,12.688Z" transform="translate(7.563 7.563)" fill="#fff"/>
      <path id="Path_6629" data-name="Path 6629" d="M18.219,23.438a.853.853,0,0,1-.6-.246l-3.375-3.375a.844.844,0,0,1,1.193-1.193l2.737,2.737,5.312-6.072A.844.844,0,0,1,24.76,16.4l-5.906,6.75a.85.85,0,0,1-.608.289Z" transform="translate(9.625 10.312)" fill="#fff"/>
      <path id="Path_6630" data-name="Path 6630" d="M16.031,33.375H4.219A4.224,4.224,0,0,1,0,29.156V7.219A4.224,4.224,0,0,1,4.219,3H7.594a.844.844,0,0,1,0,1.687H4.219A2.534,2.534,0,0,0,1.688,7.219V29.156a2.534,2.534,0,0,0,2.531,2.531H16.031a.844.844,0,0,1,0,1.688Z" transform="translate(0 2.063)" fill="#fff"/>
      <path id="Path_6631" data-name="Path 6631" d="M19.594,13.125a.844.844,0,0,1-.844-.844V7.219a2.534,2.534,0,0,0-2.531-2.531H12.844a.844.844,0,0,1,0-1.687h3.375a4.224,4.224,0,0,1,4.219,4.219v5.062A.844.844,0,0,1,19.594,13.125Z" transform="translate(8.25 2.063)" fill="#fff"/>
      <path id="Path_6632" data-name="Path 6632" d="M16.656,10.125H6.531A2.534,2.534,0,0,1,4,7.594V4.219a.844.844,0,0,1,.844-.844H7.459a4.22,4.22,0,0,1,8.269,0h2.616a.844.844,0,0,1,.844.844V7.594A2.534,2.534,0,0,1,16.656,10.125ZM5.687,5.063V7.594a.845.845,0,0,0,.844.844H16.656a.845.845,0,0,0,.844-.844V5.063H14.969a.844.844,0,0,1-.844-.844,2.531,2.531,0,1,0-5.062,0,.844.844,0,0,1-.844.844Z" transform="translate(2.75)" fill="#fff"/>
      <path id="Path_6633" data-name="Path 6633" d="M20.719,9.688H3.844A.844.844,0,0,1,3.844,8H20.719a.844.844,0,0,1,0,1.688Z" transform="translate(2.063 5.5)" fill="#fff"/>
      <path id="Path_6634" data-name="Path 6634" d="M15.656,12.688H3.844a.844.844,0,0,1,0-1.688H15.656a.844.844,0,0,1,0,1.688Z" transform="translate(2.063 7.563)" fill="#fff"/>
      <path id="Path_6635" data-name="Path 6635" d="M12.281,15.688H3.844a.844.844,0,0,1,0-1.688h8.437a.844.844,0,1,1,0,1.688Z" transform="translate(2.063 9.625)" fill="#fff"/>
    </g>
  </g>
</svg>
