<svg xmlns="http://www.w3.org/2000/svg" xmlns:xlink="http://www.w3.org/1999/xlink" width="84" height="84" viewBox="0 0 84 84">
  <defs>
    <filter id="Ellipse_360" x="0" y="0" width="84" height="84" filterUnits="userSpaceOnUse">
      <feOffset dy="3" input="SourceAlpha"/>
      <feGaussianBlur stdDeviation="3" result="blur"/>
      <feFlood flood-opacity="0.161"/>
      <feComposite operator="in" in2="blur"/>
      <feComposite in="SourceGraphic"/>
    </filter>
  </defs>
  <g id="Instructions" transform="translate(-146 -486)">
    <g transform="matrix(1, 0, 0, 1, 146, 486)" filter="url(#Ellipse_360)">
      <circle id="Ellipse_360-2" data-name="Ellipse 360" cx="33" cy="33" r="33" transform="translate(9 6)" fill="#f02a4c"/>
    </g>
    <g id="register" transform="translate(170 505.239)">
      <path id="Path_6628" data-name="Path 6628" d="M20.978,30.956a9.978,9.978,0,1,1,9.978-9.978A9.99,9.99,0,0,1,20.978,30.956Zm0-18.421a8.443,8.443,0,1,0,8.443,8.443A8.453,8.453,0,0,0,20.978,12.535Z" transform="translate(5.886 5.886)" fill="#fff"/>
      <path id="Path_6629" data-name="Path 6629" d="M17.838,22.676a.776.776,0,0,1-.543-.224l-3.07-3.07A.767.767,0,0,1,15.31,18.3l2.49,2.49,4.832-5.523a.768.768,0,0,1,1.156,1.01l-5.373,6.14a.773.773,0,0,1-.553.262Z" transform="translate(7.491 8.026)" fill="#fff"/>
      <path id="Path_6630" data-name="Path 6630" d="M14.583,30.631H3.838A3.842,3.842,0,0,1,0,26.794V6.838A3.842,3.842,0,0,1,3.838,3h3.07a.768.768,0,0,1,0,1.535H3.838a2.305,2.305,0,0,0-2.3,2.3V26.794a2.305,2.305,0,0,0,2.3,2.3H14.583a.768.768,0,0,1,0,1.535Z" transform="translate(0 1.605)" fill="#fff"/>
      <path id="Path_6631" data-name="Path 6631" d="M18.908,12.21a.768.768,0,0,1-.768-.768V6.838a2.305,2.305,0,0,0-2.3-2.3h-3.07a.768.768,0,0,1,0-1.535h3.07a3.842,3.842,0,0,1,3.838,3.838v4.605A.768.768,0,0,1,18.908,12.21Z" transform="translate(6.421 1.605)" fill="#fff"/>
      <path id="Path_6632" data-name="Path 6632" d="M15.513,9.21H6.3A2.305,2.305,0,0,1,4,6.908V3.838a.768.768,0,0,1,.768-.768H7.147a3.839,3.839,0,0,1,7.522,0h2.379a.768.768,0,0,1,.768.768v3.07A2.305,2.305,0,0,1,15.513,9.21ZM5.535,4.605v2.3a.769.769,0,0,0,.768.768h9.21a.769.769,0,0,0,.768-.768v-2.3h-2.3a.768.768,0,0,1-.768-.768,2.3,2.3,0,1,0-4.605,0,.768.768,0,0,1-.768.768Z" transform="translate(2.14)" fill="#fff"/>
      <path id="Path_6633" data-name="Path 6633" d="M19.118,9.535H3.768A.768.768,0,0,1,3.768,8H19.118a.768.768,0,0,1,0,1.535Z" transform="translate(1.605 4.281)" fill="#fff"/>
      <path id="Path_6634" data-name="Path 6634" d="M14.513,12.535H3.768a.768.768,0,0,1,0-1.535H14.513a.768.768,0,0,1,0,1.535Z" transform="translate(1.605 5.886)" fill="#fff"/>
      <path id="Path_6635" data-name="Path 6635" d="M11.443,15.535H3.768a.768.768,0,0,1,0-1.535h7.675a.768.768,0,0,1,0,1.535Z" transform="translate(1.605 7.491)" fill="#fff"/>
    </g>
  </g>
</svg>
