<?xml version="1.0" encoding="utf-8"?>
<!-- Generator: Adobe Illustrator 27.6.1, SVG Export Plug-In . SVG Version: 6.00 Build 0)  -->
<svg version="1.1" id="Layer_1" xmlns="http://www.w3.org/2000/svg" xmlns:xlink="http://www.w3.org/1999/xlink" x="0px" y="0px"
	 viewBox="0 0 66.1 66.3" style="enable-background:new 0 0 66.1 66.3;" xml:space="preserve">
<style type="text/css">
	.st0{fill:#F02A4C;}
	.st1{fill:#FFFFFF;}
</style>
<g id="Instructions" transform="translate(-146 -486)">
	<circle id="Ellipse_360-2" class="st0" cx="179.1" cy="519.1" r="33"/>
	<g id="register" transform="translate(170 505.239)">
		<path id="Path_6628" class="st1" d="M18,31c-5.5,0-10-4.5-10-10s4.5-10,10-10s10,4.5,10,10l0,0C28,26.5,23.5,31,18,31z M18,12.6
			c-4.7,0-8.4,3.8-8.4,8.4s3.8,8.4,8.4,8.4s8.4-3.8,8.4-8.4C26.4,16.3,22.7,12.6,18,12.6z"/>
		<path id="Path_6629" class="st1" d="M16.5,24.8c-0.2,0-0.4-0.1-0.5-0.2l-3.1-3.1c-0.3-0.3-0.3-0.8,0.1-1.1c0.3-0.3,0.7-0.3,1,0
			l2.5,2.5l4.8-5.5c0.3-0.3,0.8-0.3,1.1,0c0.3,0.3,0.3,0.7,0.1,1L17,24.6C16.9,24.7,16.7,24.8,16.5,24.8L16.5,24.8z"/>
		<path id="Path_6630" class="st1" d="M5.7,26.4H-5c-2.1,0-3.8-1.7-3.8-3.8v-20c0-2.1,1.7-3.8,3.8-3.8H-2c0.4,0,0.8,0.4,0.7,0.8
			c0,0.4-0.3,0.7-0.7,0.7H-5c-1.3,0-2.3,1-2.3,2.3v20c0,1.3,1,2.3,2.3,2.3H5.7c0.4,0,0.8,0.4,0.7,0.8C6.4,26,6.1,26.4,5.7,26.4
			L5.7,26.4z"/>
		<path id="Path_6631" class="st1" d="M16.5,7.9c-0.4,0-0.8-0.3-0.8-0.8V2.6c0-1.3-1-2.3-2.3-2.3h-3.1c-0.4,0-0.8-0.4-0.7-0.8
			c0-0.4,0.3-0.7,0.7-0.7h3.1c2.1,0,3.8,1.7,3.8,3.8v4.6C17.2,7.6,16.9,7.9,16.5,7.9z"/>
		<path id="Path_6632" class="st1" d="M8.8,3.3h-9.2c-1.3,0-2.3-1-2.3-2.3V-2c0-0.4,0.3-0.8,0.8-0.8h2.4c0.4-2.1,2.5-3.4,4.5-3
			c1.5,0.3,2.7,1.5,3,3h2.4c0.4,0,0.8,0.3,0.8,0.8V1C11.1,2.3,10.1,3.3,8.8,3.3z M-1.2-1.3V1c0,0.4,0.3,0.8,0.8,0.8h9.2
			c0.4,0,0.8-0.3,0.8-0.8v-2.3H7.3C6.8-1.3,6.5-1.6,6.5-2c0-1.3-1-2.3-2.3-2.3S1.9-3.3,1.9-2c0,0.4-0.3,0.8-0.8,0.8l0,0L-1.2-1.3z"
			/>
		<path id="Path_6633" class="st1" d="M11.9,7.9H-3.5c-0.4,0-0.8-0.4-0.7-0.8c0-0.4,0.3-0.7,0.7-0.7h15.4c0.4,0,0.8,0.4,0.7,0.8
			C12.6,7.6,12.3,7.9,11.9,7.9z"/>
		<path id="Path_6634" class="st1" d="M7.3,12.6H-3.5c-0.4,0-0.8-0.4-0.7-0.8c0-0.4,0.3-0.7,0.7-0.7H7.3C7.7,11,8,11.4,8,11.8
			C8,12.2,7.7,12.5,7.3,12.6z"/>
		<path id="Path_6635" class="st1" d="M4.2,17.2h-7.7c-0.4,0-0.8-0.4-0.7-0.8c0-0.4,0.3-0.7,0.7-0.7h7.7c0.4,0,0.8,0.4,0.7,0.8
			C4.9,16.8,4.6,17.1,4.2,17.2z"/>
	</g>
</g>
</svg>
