<svg xmlns="http://www.w3.org/2000/svg" xmlns:xlink="http://www.w3.org/1999/xlink" width="91" height="91" viewBox="0 0 91 91">
  <defs>
    <filter id="Ellipse_273" x="0" y="0" width="91" height="91" filterUnits="userSpaceOnUse">
      <feOffset dy="3" input="SourceAlpha"/>
      <feGaussianBlur stdDeviation="3" result="blur"/>
      <feFlood flood-opacity="0.161"/>
      <feComposite operator="in" in2="blur"/>
      <feComposite in="SourceGraphic"/>
    </filter>
  </defs>
  <g id="Group_9999" data-name="Group 9999" transform="translate(9 6)">
    <g transform="matrix(1, 0, 0, 1, -9, -6)" filter="url(#Ellipse_273)">
      <circle id="Ellipse_273-2" data-name="Ellipse 273" cx="36.5" cy="36.5" r="36.5" transform="translate(9 6)" fill="#f02a4c"/>
    </g>
    <g id="Group_5350" data-name="Group 5350" transform="translate(22 19)">
      <path id="Path_1463" data-name="Path 1463" d="M104,74.283v30.435A2.285,2.285,0,0,0,106.283,107H130.63a2.285,2.285,0,0,0,2.283-2.283V80.37a.759.759,0,0,0-.2-.517h0s0,0,0,0h0l-.017-.017-7.609-7.609a.758.758,0,0,0-.538-.224H106.283A2.285,2.285,0,0,0,104,74.283Zm19.783-.761h.446l7.163,7.164v.445h-7.609Zm-1.522,3.043H109.326a.761.761,0,0,0-.761.761v4.565a.761.761,0,0,0,1.522,0v-3.8h12.174v3.8a.761.761,0,0,0,.761.761h8.37v22.065a.762.762,0,0,1-.761.761H106.282a.762.762,0,0,1-.761-.761V74.283a.762.762,0,0,1,.761-.761H122.26v3.043Z" transform="translate(-104 -72)" fill="#fff"/>
      <path id="Path_1464" data-name="Path 1464" d="M204.788,216.516a.76.76,0,0,0,.487.221h0c.017,0,.033,0,.05,0a.751.751,0,0,0,.093-.005h0a.765.765,0,0,0,.406-.181l.042-.04,4.561-4.561a.761.761,0,1,0-1.076-1.076l-3.266,3.266V200.761a.761.761,0,0,0-1.522,0v13.381l-3.266-3.266a.761.761,0,1,0-1.076,1.076Z" transform="translate(-190.87 -187.826)" fill="#fff"/>
    </g>
  </g>
</svg>
