<?xml version="1.0" encoding="utf-8"?>
<!-- Generator: Adobe Illustrator 27.6.1, SVG Export Plug-In . SVG Version: 6.00 Build 0)  -->
<svg version="1.1" id="Layer_1" xmlns="http://www.w3.org/2000/svg" xmlns:xlink="http://www.w3.org/1999/xlink" x="0px" y="0px"
	 viewBox="0 0 66.3 66" style="enable-background:new 0 0 66.3 66;" xml:space="preserve">
<style type="text/css">
	.st0{fill:#F02A4C;}
	.st1{fill:#FFFFFF;}
</style>
<g id="consensual_form" transform="translate(-269 -486)">
	<g transform="matrix(1, 0, 0, 1, 269, 486)">
		<circle id="Ellipse_361-2" class="st0" cx="33.1" cy="33" r="33"/>
	</g>
	<g id="Group_9761" transform="translate(298 509.474)">
		<path id="Path_1463" class="st1" d="M-8.9-3.9v27.3c0,1.1,0.9,2,2.1,2.1H15c1.1,0,2-0.9,2.1-2.1V1.5c0-0.2-0.1-0.3-0.2-0.5l0,0
			l0,0l0,0l0,0L10-5.8C9.9-5.9,9.7-6,9.5-6H-6.9C-8-6-8.9-5.1-8.9-3.9z M8.9-4.6h0.4l6.4,6.4v0.4H8.9V-4.6z M7.5-1.9H-4.1
			c-0.4,0-0.7,0.3-0.7,0.7v4.1c0,0.4,0.3,0.7,0.7,0.7c0.4,0,0.6-0.3,0.7-0.7v-3.4H7.5v3.4c0,0.4,0.3,0.7,0.7,0.7h7.5v19.8
			c0,0.4-0.3,0.7-0.7,0.7H-6.9c-0.4,0-0.7-0.3-0.7-0.7V-3.9c0-0.4,0.3-0.7,0.7-0.7H7.5L7.5-1.9L7.5-1.9z"/>
		<path id="Path_1464" class="st1" d="M3.6,19.8C3.7,19.9,3.9,20,4,20h0c0,0,0.1,0,0.1,0l0,0c0.1,0,0.3-0.1,0.4-0.2l0,0l4.1-4.1
			c0.3-0.3,0.2-0.7,0-1c-0.3-0.3-0.7-0.3-0.9,0l-2.9,2.9v-12c0-0.4-0.3-0.7-0.7-0.7S3.4,5.2,3.4,5.6c0,0,0,0,0,0.1v12l-2.9-2.9
			c-0.3-0.3-0.7-0.3-1,0s-0.3,0.7,0,1c0,0,0,0,0,0L3.6,19.8z"/>
	</g>
</g>
</svg>
