<svg id="Group_17277" data-name="Group 17277" xmlns="http://www.w3.org/2000/svg" width="47" height="47" viewBox="0 0 47 47">
  <g id="Group_16898" data-name="Group 16898">
    <g id="Group_15928" data-name="Group 15928">
      <circle id="Ellipse_228" data-name="Ellipse 228" cx="23.5" cy="23.5" r="23.5" fill="#fff"/>
    </g>
  </g>
  <path id="Path_19568" data-name="Path 19568" d="M-82.705,165.079a12.153,12.153,0,0,0-10.918-11.714,1.587,1.587,0,0,0,.393-1.038,1.6,1.6,0,0,0-1.6-1.6,1.6,1.6,0,0,0-1.6,1.6,1.582,1.582,0,0,0,.394,1.038,12.153,12.153,0,0,0-10.919,11.714h-3.159v2.615h30.568v-2.615Z" transform="translate(119.933 -137.788)" fill="#6c8ec9" opacity="0.35"/>
  <path id="Path_19569" data-name="Path 19569" d="M-108.208,163.848a11.775,11.775,0,0,1,11.775-11.775,11.775,11.775,0,0,1,11.776,11.775Z" transform="translate(119.933 -137.788)" fill="none" stroke="#161615" stroke-miterlimit="10" stroke-width="0.736"/>
  <rect id="Rectangle_2288" data-name="Rectangle 2288" width="29.832" height="1.879" transform="translate(8.584 26.06)" fill="none" stroke="#161615" stroke-miterlimit="10" stroke-width="0.736"/>
  <circle id="Ellipse_733" data-name="Ellipse 733" cx="1.232" cy="1.232" r="1.232" transform="translate(22.268 11.707)" fill="none" stroke="#161615" stroke-miterlimit="10" stroke-width="0.736"/>
  <g id="Group_16899" data-name="Group 16899" transform="translate(14.668 15.084)">
    <line id="Line_586" data-name="Line 586" x2="15.481" y2="16.808" transform="translate(0.914 0.025)" fill="none" stroke="#dc0030" stroke-linecap="round" stroke-linejoin="round" stroke-width="0.469"/>
    <line id="Line_587" data-name="Line 587" x1="16.395" y2="16.832" fill="none" stroke="#dc0030" stroke-linecap="round" stroke-linejoin="round" stroke-width="0.469"/>
  </g>
</svg>
