<svg xmlns="http://www.w3.org/2000/svg" width="70" height="70" viewBox="0 0 70 70">
  <g id="DIET" transform="translate(-10.835 -11.516)">
    <circle id="Ellipse_751-2" data-name="Ellipse 751-2" cx="35" cy="35" r="35" transform="translate(10.835 11.516)" fill="#fff"/>
    <path id="Path_19469" data-name="Path 19469" d="M71.236,40.425h8.306a2.256,2.256,0,0,0,.4-.015.571.571,0,0,0,.067-1.113,1.392,1.392,0,0,0-.394-.037H62.892a1.5,1.5,0,0,0-.4.032.57.57,0,0,0,.067,1.121,2.63,2.63,0,0,0,.4.013Zm-2.323,6.648H62.89c-.558,0-.833.195-.831.583s.286.582.836.584H74.867a1.66,1.66,0,0,0,.431-.032.572.572,0,0,0-.075-1.121,2.606,2.606,0,0,0-.362-.011Zm-.036,4.286h2.938c1.088,0,2.177,0,3.265,0a.582.582,0,0,0,.65-.578c0-.343-.245-.567-.645-.585H62.932a1.872,1.872,0,0,0-.4.019.572.572,0,0,0,0,1.125,1.786,1.786,0,0,0,.4.02l5.949,0Zm-1.959,8.6h2.827c.5,0,.992.013,1.486-.011a.579.579,0,0,0,.593-.564.339.339,0,0,0,0-.037.591.591,0,0,0-.6-.562,2.448,2.448,0,0,0-.253-.007H62.925c-.577,0-.869.2-.867.591s.3.589.873.589l3.986,0Zm4.322-16.41H75.3c.558,0,.832-.2.829-.583s-.29-.585-.837-.585H67.208a1.5,1.5,0,0,0-.463.055.522.522,0,0,0-.375.589.533.533,0,0,0,.484.507,2.5,2.5,0,0,0,.361.015h4.027Zm-7.032,18.36c-.5,0-.99-.008-1.485,0-.407.009-.657.232-.664.566a.6.6,0,0,0,.6.6H62.7q1.5.021,3.005,0a.583.583,0,0,0,.64-.591c0-.341-.241-.563-.651-.573-.5-.011-.988,0-1.483,0ZM79.482,47.084h0a4.577,4.577,0,0,0-.47,0,.537.537,0,0,0-.52.546.508.508,0,0,0,.433.574h.006a4.007,4.007,0,0,0,1.038,0,.511.511,0,0,0,.452-.563c0-.012,0-.025-.005-.037a.53.53,0,0,0-.5-.52,3.39,3.39,0,0,0-.429,0Zm-.021,4.27h0c.134,0,.265.009.4,0a.569.569,0,0,0,.566-.571v-.009a.562.562,0,0,0-.55-.574h-.021a6.087,6.087,0,0,0-.828,0,.572.572,0,0,0-.537.574.581.581,0,0,0,.537.572,4.131,4.131,0,0,0,.437,0Z" transform="translate(-16.808 -9.103)" fill="#fff"/>
    <path id="Path_28961" data-name="Path 28961" d="M36.266,74.547A29.463,29.463,0,0,1,28.7,69.319a30.741,30.741,0,0,1-6.711-8.2,25.818,25.818,0,0,1-3.242-14.187c.208-2.972.478-6.829,3.176-10.3,3.638-4.677,10.3-6.869,10.79-6.993a3.208,3.208,0,0,0,.626-.229,2.4,2.4,0,0,0,.912-.677,2.392,2.392,0,0,0,.327-1.51c.008-.73-.133-.867-.118-1.3A3,3,0,0,1,35.5,24.012c.637-.646,3.464-2.77,9.836-2.523a28.61,28.61,0,0,1,10.274,2.4A28.912,28.912,0,0,1,69.98,37.8c3.549,7.236,6.1,16.116,4.229,24.235C72.016,71.542,63.44,76.541,54.2,77.373a37.225,37.225,0,0,1-16.83-2.352Q36.813,74.8,36.266,74.547Z" transform="translate(-2.575 -3.266)" fill="#e5ebfb"/>
    <path id="Path_19569" data-name="Path 19569" d="M37.988,69.431c0-10.424,8.789-18.875,19.631-18.875S77.251,59,77.252,69.43H37.988Z" transform="translate(-8.91 -12.81)" fill="#fff" stroke="#fff" stroke-miterlimit="10" stroke-width="2"/>
    <rect id="Rectangle_2288" data-name="Rectangle 2288" width="50.961" height="3.21" rx="1.416" transform="translate(23.409 57.501)" fill="#fff" stroke="#4e3495" stroke-miterlimit="10" stroke-width="2"/>
    <circle id="Ellipse_733" data-name="Ellipse 733" cx="2.105" cy="2.105" r="2.105" transform="translate(46.787 32.983)" fill="#fff" stroke="#4e3495" stroke-miterlimit="10" stroke-width="2"/>
    <path id="Path_28962" data-name="Path 28962" d="M49.279,61.4a7.692,7.692,0,0,1,3.359-2.975,5.349,5.349,0,0,1,.944-.288" transform="translate(-12.614 -15.299)" fill="none" stroke="#84a4fc" stroke-linecap="round" stroke-linejoin="round" stroke-width="2"/>
    <path id="Path_28963" data-name="Path 28963" d="M37.456,74.589a23.283,23.283,0,0,1,.473-3.418,21.047,21.047,0,0,1,1.309-4.109c.257-.573.5-1.043.691-1.381" transform="translate(-8.735 -17.773)" fill="#fff" stroke="#4e3495" stroke-linecap="round" stroke-miterlimit="10" stroke-width="2"/>
    <path id="Path_28964" data-name="Path 28964" d="M44.058,57.517a16.982,16.982,0,0,1,2.581-2.872,17.809,17.809,0,0,1,6.145-3.49A20.371,20.371,0,0,1,62.747,50.1a19.993,19.993,0,0,1,9.926,4.436,20.5,20.5,0,0,1,5.236,6.908,20.917,20.917,0,0,1,1.963,8.217" transform="translate(-10.901 -12.591)" fill="none" stroke="#4e3495" stroke-linecap="round" stroke-miterlimit="10" stroke-width="2"/>
    <path id="Path_28965" data-name="Path 28965" d="M69.122,73.434l6.458,6.227L91.263,62.133" transform="translate(-19.126 -16.609)" fill="none" stroke="#f02a4c" stroke-linecap="round" stroke-linejoin="round" stroke-width="4" fill-rule="evenodd"/>
  </g>
</svg>
