<svg xmlns="http://www.w3.org/2000/svg" width="20" height="20" viewBox="0 0 20 20">
  <path id="Path_9471" data-name="Path 9471" d="M458.117,340h-5.43A4.693,4.693,0,0,1,448,335.313V324.688A4.693,4.693,0,0,1,452.688,320h.234a.781.781,0,0,1,0,1.563h-.234a3.128,3.128,0,0,0-3.125,3.125v10.625a3.128,3.128,0,0,0,3.125,3.125h5.43a3.128,3.128,0,0,0,3.125-3.125v-1.289a.781.781,0,0,1,1.563,0v1.289A4.693,4.693,0,0,1,458.117,340Zm-3.08-8.51a1.387,1.387,0,0,1,.943-.437,1.265,1.265,0,0,1,.566.13,5.1,5.1,0,0,0,2.292.536h3.989A5.161,5.161,0,0,0,468,326.613V325.2a5.143,5.143,0,0,0-5.156-5.2h-3.984a5.168,5.168,0,0,0-5.156,5.2v5.735a.781.781,0,0,0,1.334.552Zm3.8-1.334a3.55,3.55,0,0,1-1.6-.372,2.8,2.8,0,0,0-1.976-.2s0-4.391,0-4.393a3.606,3.606,0,0,1,3.594-3.629h3.984a3.581,3.581,0,0,1,3.594,3.629v1.41a3.613,3.613,0,0,1-3.611,3.555h-3.988Zm4.787-4.844h-5.547a.781.781,0,0,1,0-1.562h5.547a.781.781,0,0,1,0,1.563Zm-1.562,1.953a.781.781,0,0,0-.781-.781h-3.2a.781.781,0,0,0,0,1.563h3.2a.781.781,0,0,0,.781-.781Zm-6.6,7.461a.977.977,0,1,0,.977.977.977.977,0,0,0-.977-.977Zm0,0" transform="translate(-448 -320)" fill="#fff"/>
</svg>
