<svg xmlns="http://www.w3.org/2000/svg" width="19.281" height="19.538" viewBox="0 0 19.281 19.538">
  <path id="Path_19652" data-name="Path 19652" d="M16.746,12.336,13.287,8.344a1.088,1.088,0,0,0-1.593.006l-1.678,1.939a2.749,2.749,0,0,0-.6,3.115A29.861,29.861,0,0,0,23.282,27.288a2.743,2.743,0,0,0,3.112-.6l1.7-1.965a1.091,1.091,0,0,0,0-1.6l-4.008-3.44a1.1,1.1,0,0,0-1.491.108l-1.395,1.4a.473.473,0,0,1-.565.09,14.883,14.883,0,0,1-5.48-5.487.473.473,0,0,1,.09-.566l1.39-1.391a1.106,1.106,0,0,0,.1-1.5Z" transform="translate(-9.167 -8)" fill="#fff"/>
</svg>
