<svg xmlns="http://www.w3.org/2000/svg" width="39.772" height="45.401" viewBox="0 0 39.772 45.401">
  <g id="Red_Flag_for_Elinor" transform="translate(-166.84 -137.43)">
    <g id="Layer_3" transform="translate(166.84 137.43)">
      <g id="Group_70531" data-name="Group 70531">
        <path id="Path_38204" data-name="Path 38204" d="M167.758,182.831h0a.888.888,0,0,1-.918-.849v-43.7a.888.888,0,0,1,.918-.849h0a.888.888,0,0,1,.918.849v43.7A.888.888,0,0,1,167.758,182.831Z" transform="translate(-166.84 -137.43)" fill="#ef2e45"/>
      </g>
    </g>
    <g id="_x31_" transform="translate(167.758 137.439)">
      <g id="Group_70533" data-name="Group 70533" transform="translate(0 0)">
        <path id="Path_38205" data-name="Path 38205" d="M184.233,165.893c-5.862,0-8.185-1.242-10.393-2.459v-21.88c2.076,1.154,4.485,2.43,10.21,2.43a21.874,21.874,0,0,0,10.256-2.178,24.366,24.366,0,0,1,7.877-2.23,12.1,12.1,0,0,1,1.336-.075,12.912,12.912,0,0,1,8.442,3.355v20.054a11.237,11.237,0,0,0-6.675-1.9,16.924,16.924,0,0,0-1.9.11,27.749,27.749,0,0,0-8.534,2.434A23.567,23.567,0,0,1,184.233,165.893Z" transform="translate(-173.473 -139.129)" fill="#ef2e45"/>
        <g id="Group_70532" data-name="Group 70532">
          <path id="Path_38206" data-name="Path 38206" d="M201.884,138.214a12.576,12.576,0,0,1,8.075,3.149v19.215a12.1,12.1,0,0,0-6.308-1.586,17.189,17.189,0,0,0-1.942.114,28.039,28.039,0,0,0-8.637,2.461,23.258,23.258,0,0,1-10.474,2.309c-5.6,0-7.914-1.149-10.026-2.311V140.523c2.008,1.086,4.515,2.177,9.843,2.177a22.18,22.18,0,0,0,10.4-2.21,24.013,24.013,0,0,1,7.772-2.2,11.813,11.813,0,0,1,1.294-.073m0-.734a11.852,11.852,0,0,0-1.376.079c-8.428.958-8.7,4.408-18.09,4.408-6.128,0-8.332-1.45-10.577-2.687V162c2.245,1.237,4.634,2.61,10.76,2.61,9.387,0,10.766-3.817,19.193-4.775a16.336,16.336,0,0,1,1.859-.108c4.838,0,7.042,2.312,7.042,2.312V141.048a13.191,13.191,0,0,0-8.811-3.568Z" transform="translate(-171.84 -137.48)" fill="#ef2e45"/>
        </g>
      </g>
    </g>
  </g>
</svg>
