<svg xmlns="http://www.w3.org/2000/svg" width="24.024" height="18.401" viewBox="0 0 29.024 18.401">
  <g id="Group_68547" data-name="Group 68547" transform="translate(5 -2)">
    <path id="Path_35747" data-name="Path 35747" d="M8.07,0a.581.581,0,0,0-.309,1.035l2.251,1.879H9.005a9.005,9.005,0,1,0,9.005,8.96,9.086,9.086,0,0,0-.935-3.994A.581.581,0,1,0,16.04,8.4,7.854,7.854,0,1,1,1.162,11.877,7.775,7.775,0,0,1,9,4.079h1.008L7.761,5.95a.583.583,0,0,0,.744.9l3.486-2.9a.581.581,0,0,0,0-.9L8.506.14A.58.58,0,0,0,8.07,0Z"/>
  </g>
</svg>
