<?xml version="1.0" encoding="utf-8"?>
<!-- Generator: Adobe Illustrator 27.6.1, SVG Export Plug-In . SVG Version: 6.00 Build 0)  -->
<svg version="1.1" id="Layer_1" xmlns="http://www.w3.org/2000/svg" xmlns:xlink="http://www.w3.org/1999/xlink" x="0px" y="0px"
	 viewBox="0 0 66.4 66.3" style="enable-background:new 0 0 66.4 66.3;" xml:space="preserve">
<style type="text/css">
	.st0{fill:#F02A4C;}
	.st1{fill:#FFFFFF;}
</style>
<g id="Rewatch" transform="translate(-25 -486)">
	<g transform="matrix(1, 0, 0, 1, 25, 486)">
		<circle id="Ellipse_362-2" class="st0" cx="33.2" cy="33.2" r="33"/>
	</g>
	<path id="Path_1444" class="st1" d="M72.8,519.2c-0.1-1.6-1.1-3-2.5-3.7l-16.8-9.7c-1.4-1.1-3.4-0.8-4.5,0.6
		c-0.5,0.7-0.8,1.6-0.6,2.4v3.9c-0.7,0.5-1.1,1.3-1.1,2.1c-0.1,1.2,0.8,2.3,2,2.4c1.2,0.1,2.3-0.8,2.4-2c0-0.1,0-0.3,0-0.4
		c0-0.8-0.4-1.6-1.1-2.1v-3.9c-0.2-0.5,0.1-1.1,0.6-1.3c0.4-0.2,0.9,0,1.2,0.3l16.8,9.7c0.9,0.5,1.4,1.1,1.4,1.7s-0.5,1.2-1.4,1.7
		l-15.5,8.9c-0.6,0.5-1.5,0.6-2.3,0.3c-0.6-0.5-0.9-1.2-0.8-2v-2.5c0.7-0.5,1.1-1.3,1.1-2.1c0.1-1.2-0.8-2.3-2-2.4
		c-1.2-0.1-2.3,0.8-2.4,2c0,0.1,0,0.3,0,0.4c0,0.8,0.4,1.6,1.1,2.1v2.5c-0.1,1.6,0.6,3.1,1.9,3.9c0.5,0.3,1.2,0.5,1.8,0.5
		c1,0,1.9-0.3,2.7-0.8l15.5-8.9C71.7,522.2,72.7,520.8,72.8,519.2"/>
</g>
</svg>
