<svg xmlns="http://www.w3.org/2000/svg" width="32" height="32" viewBox="0 0 32 32">
  <g id="Group_64755" data-name="Group 64755" transform="translate(-18 -538)">
    <path id="Path_28976" data-name="Path 28976" d="M16,0A16,16,0,1,1,0,16,16,16,0,0,1,16,0Z" transform="translate(18 538)" fill="#f02a4c"/>
    <path id="Path_34073" data-name="Path 34073" d="M16701.1-17177.141a9.645,9.645,0,0,1,2.4-7.416c3.1-3.705,8.215-3.547,8.215-3.547v-4.221l7.135,7.334-7.135,6.17v-4.223a7.976,7.976,0,0,0-2.93,0,8.987,8.987,0,0,0-4.4,2.053A22.28,22.28,0,0,0,16701.1-17177.141Z" transform="translate(-16675.441 17737.918)" fill="#fff"/>
  </g>
</svg>
