<svg id="Group_17075" data-name="Group 17075" xmlns="http://www.w3.org/2000/svg" xmlns:xlink="http://www.w3.org/1999/xlink" width="16.343" height="16.343" viewBox="0 0 16.343 16.343">
  <defs>
    <clipPath id="clip-path">
      <path id="Path_9183" data-name="Path 9183" d="M0,3.029H16.343V-13.314H0Z" transform="translate(0 13.314)" fill="#393c46"/>
    </clipPath>
  </defs>
  <g id="Group_7984" data-name="Group 7984" clip-path="url(#clip-path)">
    <g id="Group_7982" data-name="Group 7982" transform="translate(4.07 4.326)">
      <path id="Path_9181" data-name="Path 9181" d="M1.455,1l-.006.052C-.048.309-.2.21-.4.5c-.134.2-.525.657-.643.792s-.237.142-.439.05A5.517,5.517,0,0,1-3.117.331a6.189,6.189,0,0,1-1.131-1.41c-.2-.345.217-.394.6-1.112a.373.373,0,0,0-.017-.357c-.05-.1-.458-1.1-.627-1.5S-4.626-4.4-4.752-4.4a1.016,1.016,0,0,0-.932.234c-1.1,1.208-.822,2.454.119,3.779C-3.717,2.034-2.733,2.479-.932,3.1a2.817,2.817,0,0,0,1.28.082A2.094,2.094,0,0,0,1.72,2.209a1.674,1.674,0,0,0,.123-.97C1.793,1.147,1.659,1.1,1.455,1" transform="translate(6.397 4.413)" fill="#393c46"/>
    </g>
    <g id="Group_7983" data-name="Group 7983" transform="translate(0 0)">
      <path id="Path_9182" data-name="Path 9182" d="M2.59.435a8.173,8.173,0,0,0-13.9,5.75,8.049,8.049,0,0,0,1.086,4.048l-1.155,4.2L-7.07,13.3A8.151,8.151,0,0,0,4.959,6.19,8.03,8.03,0,0,0,2.58.462ZM3.6,6.166A6.78,6.78,0,0,1-6.624,11.958l-.244-.146-2.554.664.685-2.482L-8.9,9.738A6.745,6.745,0,0,1-3.162-.575a6.711,6.711,0,0,1,4.78,1.982A6.66,6.66,0,0,1,3.6,6.166" transform="translate(11.383 1.913)" fill="#393c46"/>
    </g>
  </g>
</svg>
