<svg xmlns="http://www.w3.org/2000/svg" xmlns:xlink="http://www.w3.org/1999/xlink" width="375" height="270" viewBox="0 0 375 270">
  <defs>
    <clipPath id="clip-path">
      <rect id="Rectangle_8648" data-name="Rectangle 8648" width="375" height="270" transform="translate(15300 -11926)" fill="#fff" stroke="#707070" stroke-width="1" opacity="0.59"/>
    </clipPath>
    <clipPath id="clip-path-2">
      <rect id="Rectangle_8647" data-name="Rectangle 8647" width="285" height="213" transform="translate(58.729 125.292)" fill="#fff"/>
    </clipPath>
  </defs>
  <g id="Mask_Group_16582" data-name="Mask Group 16582" transform="translate(-15300 11926)" clip-path="url(#clip-path)">
    <g id="Mask_Group_16573" data-name="Mask Group 16573" transform="translate(15294.271 -12030.292)" clip-path="url(#clip-path-2)">
      <g id="female_teen_3" data-name="female teen 3" transform="translate(83.468 125)">
        <g id="Group_101882" data-name="Group 101882" transform="matrix(-0.927, 0.376, -0.376, -0.927, 181.051, 204.561)">
          <g id="Group_101868" data-name="Group 101868" transform="translate(0.149 6.792)">
            <g id="Group_101867" data-name="Group 101867" transform="translate(0 0)">
              <path id="Path_74502" data-name="Path 74502" d="M0,4.511,18.392,0l5.652,24.862L7.585,30.836Z" fill="#e2ad98"/>
            </g>
          </g>
          <g id="Group_101870" data-name="Group 101870" transform="translate(0 0)">
            <g id="Group_101869" data-name="Group 101869" transform="translate(0 0)">
              <path id="Path_74503" data-name="Path 74503" d="M18.888,9.444a9.121,9.121,0,0,1-2.776,6.693,9.081,9.081,0,0,1-6.668,2.751,9.163,9.163,0,0,1-6.693-2.751A9.163,9.163,0,0,1,0,9.444,9.081,9.081,0,0,1,2.751,2.776,9.121,9.121,0,0,1,9.444,0a9.04,9.04,0,0,1,6.668,2.776A9.04,9.04,0,0,1,18.888,9.444Z" fill="#e2ad98"/>
            </g>
          </g>
          <g id="Group_101873" data-name="Group 101873" transform="translate(6.172 27.745)">
            <g id="Group_101872" data-name="Group 101872" transform="translate(0 0)">
              <g id="Group_101871" data-name="Group 101871" transform="translate(0 0)">
                <path id="Path_74504" data-name="Path 74504" d="M2.479,15.485,0,4.355Q8.949-.274,17.128.017l2.33,9.419Z" fill="#c18770"/>
              </g>
            </g>
          </g>
          <g id="Group_101875" data-name="Group 101875" transform="translate(1.289 29.195)">
            <g id="Group_101874" data-name="Group 101874" transform="translate(0 0)">
              <path id="Path_74505" data-name="Path 74505" d="M41.891,59.718a12.969,12.969,0,0,1-9.518,3.941,13.051,13.051,0,0,1-9.543-3.941,13.256,13.256,0,0,1-3.445-5.825h-.025Q13.3,33.727,0,8.185,14.7-.491,34.851.029A268.744,268.744,0,0,1,45.807,48.935h-.025q.05.611.05,1.239A13.051,13.051,0,0,1,41.891,59.718Z" fill="#7a2230"/>
            </g>
          </g>
          <g id="Group_101878" data-name="Group 101878" transform="translate(16.137 29.101)">
            <g id="Group_101877" data-name="Group 101877" transform="translate(0 0)">
              <g id="Group_101876" data-name="Group 101876" transform="translate(0 0)">
                <path id="Path_74506" data-name="Path 74506" d="M28.679,34.628q.05.05-.025.05l-.05-.025L24.862,24.416,18.268,2.181l-3.817-.149L.05,2.181A.044.044,0,0,1,0,2.132l.025-.025L4.784,1.19,14.377,0l5.7.05,4.784,17Z" fill="#4b0f18"/>
              </g>
            </g>
          </g>
          <g id="Group_101881" data-name="Group 101881" transform="translate(30.65 76.383)">
            <g id="Group_101880" data-name="Group 101880" transform="translate(0 0)">
              <g id="Group_101879" data-name="Group 101879">
                <path id="Path_74507" data-name="Path 74507" d="M6.011,3.036,3.036,6.011a.031.031,0,0,1-.05,0L.012,3.036a.031.031,0,0,1,0-.05L2.987.012a.031.031,0,0,1,.05,0L6.011,2.987a.031.031,0,0,1,0,.05m-3-2.925L3.036.087h-.05l.025.025-2.9,2.9L.087,2.987v.05l.025-.025,2.9,2.9,2.9-2.9-2.9-2.9m.05,3.644-.05.05-.05-.05V3.061H2.268l-.05-.05.05-.05h.694V2.268l.05-.05.05.05v.694h.694l.05.05-.05.05H3.061Z" fill="rgba(0,0,0,0)"/>
              </g>
            </g>
          </g>
        </g>
        <g id="Group_101890" data-name="Group 101890" transform="translate(213.831 150.341) rotate(63.284)">
          <g id="Group_101884" data-name="Group 101884" transform="translate(0 0)">
            <g id="Group_101883" data-name="Group 101883">
              <path id="Path_74508" data-name="Path 74508" d="M9.3,57.812q-2.56-5.274-3.372-14.354L0,3.644,8.553,0q3.939,11.355,10.09,25.038Q24.8,38.695,29.129,49.606a60.8,60.8,0,0,1,3.322,9.668L15.172,66.885A42.727,42.727,0,0,1,9.3,57.812Z" fill="#e2ad98"/>
            </g>
          </g>
          <g id="Group_101886" data-name="Group 101886" transform="translate(0.897 9.644)">
            <g id="Group_101885" data-name="Group 101885" transform="translate(0 0)">
              <path id="Path_74509" data-name="Path 74509" d="M6.416,37.731l1.636,9.495q.05.05-.025.05-.05.05-.05-.025l-.446-1.116L6.044,41.251.863,5.479.838,5.4v-.1L.02.05Q-.03,0,.045,0l.05.025L3.515,14.3l1.636,10.61Z" fill="#c18770"/>
            </g>
          </g>
          <g id="Group_101889" data-name="Group 101889" transform="translate(20.465 59.287)">
            <g id="Group_101888" data-name="Group 101888" transform="translate(0 0)">
              <g id="Group_101887" data-name="Group 101887">
                <path id="Path_74510" data-name="Path 74510" d="M6.012,3.037,3.037,6.012a.031.031,0,0,1-.05,0L.012,3.037a.031.031,0,0,1,0-.05L2.987.012a.031.031,0,0,1,.05,0L6.012,2.987a.031.031,0,0,1,0,.05m-3-2.925L3.037.087h-.05l.025.025-2.9,2.9L.087,2.987v.05l.025-.025,2.9,2.9,2.9-2.9-2.9-2.9m.05,3.644-.05.05-.05-.05V3.062H2.268l-.05-.05.05-.05h.694V2.268l.05-.05.05.05v.694h.694l.05.05-.05.05H3.062Z" fill="rgba(0,0,0,0)"/>
              </g>
            </g>
          </g>
        </g>
        <g id="Group_101894" data-name="Group 101894" transform="translate(180.239 171.163)">
          <g id="Group_101893" data-name="Group 101893" transform="translate(0 0)">
            <g id="Group_101892" data-name="Group 101892">
              <g id="Group_101891" data-name="Group 101891">
                <path id="Path_74511" data-name="Path 74511" d="M302.816-291.171a5.412,5.412,0,0,1-2.367,1.527q-1.82.62-2.259.056.256-.884-1.5-7.811-2.909-7.053-3.6-7.28.128-.559,1.893-1.3a5.464,5.464,0,0,1,2.752-.321q1.443.182,4.236,6.933,1.938,7.345.839,8.2m-6.274-9.664a24.362,24.362,0,0,0,1.93,5.619,7.9,7.9,0,0,0,3.162-1.119A12.688,12.688,0,0,0,299.69-302,5.143,5.143,0,0,0,296.541-300.835Z" transform="translate(-293.096 306.371)" fill="#f5d8d1"/>
                <path id="Path_74512" data-name="Path 74512" d="M306.881-284.537a24.358,24.358,0,0,1-1.93-5.619,5.142,5.142,0,0,1,3.148-1.161,12.691,12.691,0,0,1,1.944,5.661A7.9,7.9,0,0,1,306.881-284.537Z" transform="translate(-301.506 295.692)" fill="#fff"/>
              </g>
            </g>
          </g>
        </g>
        <g id="Group_101900" data-name="Group 101900" transform="translate(249.035 150.042) rotate(107.536)">
          <g id="Group_101896" data-name="Group 101896" transform="translate(0 0)">
            <g id="Group_101895" data-name="Group 101895" transform="translate(0 0)">
              <path id="Path_74513" data-name="Path 74513" d="M2.579,23.275A6.292,6.292,0,0,0,.4,20.523a12.392,12.392,0,0,0,.868-5.455L1.934,17.7a7.631,7.631,0,0,0,.645,5.579m9.868-11.158L10.91,9.985A21.78,21.78,0,0,1,10.092,7.8,8.127,8.127,0,0,1,9.4,4.654a6.38,6.38,0,0,1,.446-1.711,5.775,5.775,0,0,0,.322-1.215.7.7,0,0,0-.124-.521l1.19,1.017.05.2.2.05.372,1.017-.05-.025a1.531,1.531,0,0,0-1.091.5,4.126,4.126,0,0,0-.2,2.256,12.75,12.75,0,0,0,2.529,5.5l-.446,6.1a8.11,8.11,0,0,1-.149-5.7M9.5,16.308a.693.693,0,0,0,.446.719,2.913,2.913,0,0,1,.843.5q.5.347-1.041.4Q.868,17.523,3.6,17.1q.744-.025,1.513-.074.223-4.538-.1-4.835Q2.777,4.8,0,2.472q1.314-.248,2.9,1.364A53.708,53.708,0,0,0,6.174,11.6V17q1.537-.05,3.05.05a6.727,6.727,0,0,1,.223-5.306A46.3,46.3,0,0,1,6.273,5.671,13.591,13.591,0,0,1,5.48,3.216q-.322-1.24-.4-1.661a.224.224,0,0,1,0-.149A4.115,4.115,0,0,1,5.554.042L4.909.117V.067a1.919,1.919,0,0,1,1.636.3L6.62.513,7.042.067l-.1.149-.1.2A2.5,2.5,0,0,0,6.323,1.53a1.571,1.571,0,0,0-.074.446.869.869,0,0,1-.124-.322,2.827,2.827,0,0,0,.149.5q.025.223.074.471l.05.05A30.265,30.265,0,0,0,8.7,9.068a12.183,12.183,0,0,0,2.157,2.777,5.133,5.133,0,0,0-.967,2.281,10.04,10.04,0,0,0-.4,2.182M4.885,32.97Q2.256,26.424,12.2,18.44,5.133,27.019,4.885,32.97Z" transform="translate(12.05 0)" fill="#c18770"/>
              <path id="Path_74514" data-name="Path 74514" d="M21.5,11.7a6.727,6.727,0,0,0-.223,5.306q-1.513-.1-3.05-.05V11.555a53.708,53.708,0,0,1-3.273-7.761Q15.051.471,16.241.1L16.96.025v.05L17.6,0a4.115,4.115,0,0,0-.471,1.364.223.223,0,0,0,0,.149q.074.422.4,1.661a13.591,13.591,0,0,0,.793,2.455A46.3,46.3,0,0,0,21.5,11.7m.5,5.281a.693.693,0,0,1-.446-.719,10.04,10.04,0,0,1,.4-2.182,5.133,5.133,0,0,1,.967-2.281,12.183,12.183,0,0,1-2.157-2.777,30.265,30.265,0,0,1-2.306-6.4l-.05-.05q-.05-.248-.074-.471a2.827,2.827,0,0,1-.149-.5.869.869,0,0,0,.124.322,1.571,1.571,0,0,1,.074-.446A2.5,2.5,0,0,1,18.894.372l.1-.2a1.552,1.552,0,0,1,.422-.05,3.036,3.036,0,0,1,2.678,1.041.7.7,0,0,1,.124.521A5.774,5.774,0,0,1,21.894,2.9a6.379,6.379,0,0,0-.446,1.711,8.128,8.128,0,0,0,.694,3.149,21.78,21.78,0,0,0,.818,2.182L24.5,12.075a8.11,8.11,0,0,0,.149,5.7l.446-6.1a12.75,12.75,0,0,1-2.529-5.5,4.126,4.126,0,0,1,.2-2.256,1.531,1.531,0,0,1,1.091-.5l.05.025a1.712,1.712,0,0,1,1.389.3Q26.456,5.8,27.6,8.058a3.318,3.318,0,0,0,.223.645,15.04,15.04,0,0,1,.769,3.719v6.323q-4.29,17.133-11.207,18.3-7.761-.843-9.72-9a19.1,19.1,0,0,0-2.951-6.769,14.41,14.41,0,0,0-2.083-2.256A11.551,11.551,0,0,0,0,17.357a5.8,5.8,0,0,1,1.587-2.132,4.169,4.169,0,0,1,1.041-.669q.372-.124.818-.248a3.325,3.325,0,0,1,1.959.248,7.866,7.866,0,0,1,1.934,1.364A4.1,4.1,0,0,1,8.6,17.481a5.057,5.057,0,0,0,1.364,1.612,7.144,7.144,0,0,1,2.48,1.389,6.292,6.292,0,0,1,2.182,2.752,7.631,7.631,0,0,1-.645-5.579l-.669-2.628q-.05-.5-.1-1.041V11.009Q9,5.678,10.662,3.447A2.422,2.422,0,0,1,12.05,2.43q2.777,2.331,5.009,9.72.322.3.1,4.835-.769.05-1.513.074-2.727.422,6.149.818,1.537-.05,1.041-.4a2.913,2.913,0,0,0-.843-.5M24.25,18.4q-9.943,7.984-7.315,14.53Q17.183,26.977,24.25,18.4Z" transform="translate(0 0.042)" fill="#e2ad98"/>
            </g>
          </g>
          <g id="Group_101899" data-name="Group 101899" transform="translate(12.683 29.61)">
            <g id="Group_101898" data-name="Group 101898" transform="translate(0 0)">
              <g id="Group_101897" data-name="Group 101897">
                <path id="Path_74515" data-name="Path 74515" d="M6.013,3.037,3.037,6.013a.031.031,0,0,1-.05,0L.012,3.037a.031.031,0,0,1,0-.05L2.988.012a.031.031,0,0,1,.05,0L6.013,2.988a.031.031,0,0,1,0,.05m-3-2.926L3.037.087h-.05l.025.025-2.9,2.9L.087,2.988v.05l.025-.025,2.9,2.9,2.9-2.9-2.9-2.9m.05,3.645-.05.05-.05-.05V3.062H2.269l-.05-.05.05-.05h.694V2.269l.05-.05.05.05v.694h.694l.05.05-.05.05H3.062Z" fill="rgba(0,0,0,0)"/>
              </g>
            </g>
          </g>
        </g>
        <g id="Group_101909" data-name="Group 101909" transform="translate(37.27 164.962) rotate(-7.146)">
          <g id="Group_101902" data-name="Group 101902" transform="translate(0.05 3.521)">
            <g id="Group_101901" data-name="Group 101901" transform="translate(0 0)">
              <path id="Path_74516" data-name="Path 74516" d="M73.47,27.995H73.4A31.678,31.678,0,0,0,64.048,9.7,31.9,31.9,0,0,0,40.641,0,31.842,31.842,0,0,0,17.233,9.7a31.686,31.686,0,0,0-9.67,22.688h-.05L0,95.737q49.071,18.994,81.628-3.893Z" transform="translate(0)" fill="#ece7de"/>
            </g>
          </g>
          <g id="Group_101905" data-name="Group 101905" transform="translate(0 0)">
            <g id="Group_101904" data-name="Group 101904" transform="translate(0)">
              <g id="Group_101903" data-name="Group 101903">
                <path id="Path_74517" data-name="Path 74517" d="M53.237,5.629,49,0,25.788,1.438,13.836,16.911,9.3,25.713A69.522,69.522,0,0,0,7.24,37.194L0,99.209a124.2,124.2,0,0,0,33.8,8.48q-31.27-8.856-17.878-76Q18.3,17.315,27.028,11.332A54.962,54.962,0,0,1,53.237,5.629Z" fill="#d8cdc7"/>
              </g>
            </g>
          </g>
          <g id="Group_101908" data-name="Group 101908" transform="translate(39.86 99.667)">
            <g id="Group_101907" data-name="Group 101907" transform="translate(0 0)">
              <g id="Group_101906" data-name="Group 101906">
                <path id="Path_74518" data-name="Path 74518" d="M6.013,2.988,3.038.012a.031.031,0,0,0-.05,0L.012,2.988a.031.031,0,0,0,0,.05L2.988,6.013a.031.031,0,0,0,.05,0L6.013,3.038a.031.031,0,0,0,0-.05m-3,2.926.025.025h-.05l.025-.025-2.9-2.9-.025.025v-.05l.025.025,2.9-2.9,2.9,2.9-2.9,2.9m.05-3.645-.05-.05-.05.05v.694H2.269l-.05.05.05.05h.694v.694l.05.05.05-.05V3.062h.694l.05-.05-.05-.05H3.062Z" fill="rgba(0,0,0,0)"/>
              </g>
            </g>
          </g>
        </g>
        <g id="Group_101935" data-name="Group 101935" transform="matrix(0.974, 0.229, -0.229, 0.974, 57.686, 105.047)">
          <g id="Group_101911" data-name="Group 101911" transform="translate(25.997 0)">
            <g id="Group_101910" data-name="Group 101910" transform="translate(0 0)">
              <path id="Path_74519" data-name="Path 74519" d="M38.732,7.127a74.02,74.02,0,0,0-7.646-4.009,34.738,34.738,0,0,0-6.112-2.079Q22.191.43,19.481,0a18.368,18.368,0,0,0-5.369.767Q11.539,1.633,8.99,2.45L8.347,2.7A70.39,70.39,0,0,0,.033,6.632Q-.115,6.483.4,7.795,1,9.28,1.567,10.443a20.125,20.125,0,0,0,2.994,3.811,53.756,53.756,0,0,0,5.493,5.221Q13.1,22,16.289,24.2a40.916,40.916,0,0,0,6.037,3.514,58.827,58.827,0,0,0,7.126,2.6q.99-2.549,1.633-3.86a43.817,43.817,0,0,0,2.6-6.954q1.015-3.6,1.831-6.607A15.3,15.3,0,0,1,38.732,7.127Z" transform="translate(0)" fill="#e2ad98"/>
            </g>
          </g>
          <g id="Group_101913" data-name="Group 101913" transform="translate(54.342 3.588)">
            <g id="Group_101912" data-name="Group 101912" transform="translate(0 0)">
              <path id="Path_74520" data-name="Path 74520" d="M4.746,1.114,4.622.025,4.573,0,4.548.049l-.1,1.064v.272l-.025.148v.148l-.247,2.97v.1l-.025.124L4.028,6.112v.124L4,6.285V6.36L2.89,13.635l-1.509,6.36L.02,24.647q-.049.049.025.049.049.049.049-.025l1.311-2.821.025-.1.049-.1,1.905-5.815.025-.148.049-.124L4.721,7.919l.049-6.384-.025-.148Z" transform="translate(0)" fill="#c18770"/>
            </g>
          </g>
          <g id="Group_101915" data-name="Group 101915" transform="translate(0.216 15.004)">
            <g id="Group_101914" data-name="Group 101914" transform="translate(0 0)">
              <path id="Path_74521" data-name="Path 74521" d="M26.89,13.446a12.988,12.988,0,0,0-3.957-9.528A12.922,12.922,0,0,0,13.445,0,13.05,13.05,0,0,0,3.918,3.919,13.053,13.053,0,0,0,0,13.446a12.925,12.925,0,0,0,3.918,9.489,12.986,12.986,0,0,0,9.527,3.957,12.859,12.859,0,0,0,9.488-3.957A12.862,12.862,0,0,0,26.89,13.446Z" transform="translate(0 0)" fill="#ece7de"/>
            </g>
          </g>
          <g id="Group_101917" data-name="Group 101917" transform="translate(6.533 5.345)">
            <g id="Group_101916" data-name="Group 101916" transform="translate(0 0)">
              <path id="Path_74522" data-name="Path 74522" d="M55.1,4.974q-.619,2.475-1.163,5.692A59.528,59.528,0,0,1,52.406,17.3a30.036,30.036,0,0,1-3.316,7.424q-.247.4-.47.817A17.836,17.836,0,0,1,42.93,24.1a55.443,55.443,0,0,1-4.924-2.549q-2.3-1.361-4.553-2.9a38.834,38.834,0,0,1-4.578-3.712,37.389,37.389,0,0,1-3.835-4.38,33.852,33.852,0,0,1-3.068-4.875,37.5,37.5,0,0,1-1.955-4.529Q19.795.569,19.621,0,15.572,4.017,0,11.606q.3,2.945.495,5.939.223,3.192.421,6.36.148,2.475.272,4.85.124,2.029.247,4.083.173,2.945.4,5.914.247,3.192.421,6.36.173,2.772.445,5.518l.594,5.84q.353,3.17.619,6.434.284,3.267.495,6.558t.346,5.543q.16,2.272.421,3.91A23.128,23.128,0,0,1,7,76.341Q8.114,75.026,9.774,72.7t3.538-4.924q1.361-1.93,2.87-3.86a59.068,59.068,0,0,1,4.751-5.37,44.9,44.9,0,0,1,4.973-4.256,37.392,37.392,0,0,1,5.171-3.118,25.077,25.077,0,0,1,3.909-1.559,23.525,23.525,0,0,1,6.458-.841,21.935,21.935,0,0,1,4.627.94,28.715,28.715,0,0,1,7.5,3.737A32.718,32.718,0,0,1,58.889,58a68.391,68.391,0,0,1,4.7,5.543,61.531,61.531,0,0,1,4.058,5.989q1.707,2.871,3.464,5.815a2.213,2.213,0,0,1,.2.792q.074-1.237.1-2.8.025-2.079.1-5.3t.025-6.137a39.22,39.22,0,0,1,.124-4.85,16.962,16.962,0,0,1,.47-2.97,34,34,0,0,1,1.188-3.415,26.776,26.776,0,0,0,1.41-6.038,13.412,13.412,0,0,0-.594-6.508q-1.064-2.8-1.831-5.593a18.126,18.126,0,0,1-.767-4.133q.052-1.263.049-3.811a43.219,43.219,0,0,0-.445-5.964,7.513,7.513,0,0,1,1.237-5.692q1.729-2.3,1.163-3.167a13.072,13.072,0,0,0-2.177-2.3,15.786,15.786,0,0,0-4.9-2.722Q63.169,3.492,60,2.351A15.417,15.417,0,0,1,55.771.3,23.48,23.48,0,0,1,55.1,4.974Z" fill="#ece7de"/>
            </g>
          </g>
          <g id="Group_101920" data-name="Group 101920" transform="translate(7.943 34.273)">
            <g id="Group_101919" data-name="Group 101919" transform="translate(0 0)">
              <g id="Group_101918" data-name="Group 101918">
                <path id="Path_74523" data-name="Path 74523" d="M10.244,41.722q.856-19.015,2.177-28.656A63.612,63.612,0,0,0,17.988,0Q.21,8.109,0,6.657L3.613,50.408Z" fill="#d8cdc7"/>
              </g>
            </g>
          </g>
          <g id="Group_101925" data-name="Group 101925" transform="translate(0 6.459)">
            <g id="Group_101922" data-name="Group 101922" transform="translate(60.795 0)">
              <g id="Group_101921" data-name="Group 101921" transform="translate(0 0)">
                <path id="Path_74524" data-name="Path 74524" d="M17.3,27.122,19.572,8.909a17,17,0,0,0-5.765-4.7Q8.87,2.534,2.944,0L0,8.958Q18.046,17.357,17.3,27.122Z" transform="translate(0)" fill="#7a2230"/>
              </g>
            </g>
            <g id="Group_101924" data-name="Group 101924" transform="translate(0 1.015)">
              <g id="Group_101923" data-name="Group 101923" transform="translate(0 0)">
                <path id="Path_74525" data-name="Path 74525" d="M27.342,23.608A95.178,95.178,0,0,1,33.923,13.14L23.284,0a84.481,84.481,0,0,1-7.72,4.8Q3.835,10.318,3.44,11.928A13.092,13.092,0,0,0,.718,16.6,23.675,23.675,0,0,0,0,20.762q.044.917.124,3.341.1,2.451,4.008,6.36a12.986,12.986,0,0,0,9.526,3.959,12.9,12.9,0,0,0,9.5-3.959A13.1,13.1,0,0,0,24.6,28.78l.049.025.148-.272Q25.287,27.64,27.342,23.608Z" fill="#7a2230"/>
              </g>
            </g>
          </g>
          <g id="Group_101927" data-name="Group 101927" transform="translate(21.304 3.192)">
            <g id="Group_101926" data-name="Group 101926" transform="translate(0 0)">
              <path id="Path_74526" data-name="Path 74526" d="M43.128,2.994A9.678,9.678,0,0,0,37.536,0a59.691,59.691,0,0,1-4.33,25.043Q13.733,19.153,5.963,1.015A10.962,10.962,0,0,0,0,4.677Q9.65,23.583,35.408,31.2,39.762,25.414,43.128,2.994Z" transform="translate(0 0)" fill="#7a2230"/>
            </g>
          </g>
          <g id="Group_101929" data-name="Group 101929" transform="translate(21.292 3.192)">
            <g id="Group_101928" data-name="Group 101928" transform="translate(0 0)">
              <path id="Path_74527" data-name="Path 74527" d="M27.378,27.839q-.544-.223-1.608-.742l-4.231-2.2-6.112-3.91q-1.559-1.114-3.316-2.549l-3.39-3.044L4.986,11.383l-.124-.173-.841-.99-.049-.1-.247-.3L.087,4.7q-.049-.025-.074,0-.025.05,0,.074L2.091,8.414l3.192,4.4,3.192,3.539q1.336,1.386,3.019,2.821,1.806,1.509,3.34,2.623l4.008,2.623,3.588,1.955L27.873,28.8l.1.025.1.049,7.349,2.3q.049.049.049-.025.049-.049-.025-.049l-8.066-3.266m10.466-26.7-.2-1.114L37.6,0l-.025.049L37.4,6.805l-1.014,7.77L34.851,20.44l-1.138,3.217-.074.124-.495,1.312q-.049.049.025.049.049.049.049-.025l1.188-2.079,2.177-5.395q.421-1.411.619-2.277l.247-1.188q.223-1.138.223-1.213l.322-2.4q.124-1.039.173-2.351l.049-1.658Z" transform="translate(0)" fill="#4b0f18"/>
            </g>
          </g>
          <g id="Group_101931" data-name="Group 101931" transform="translate(29.767 9.317)">
            <g id="Group_101930" data-name="Group 101930" transform="translate(0 0)">
              <path id="Path_74528" data-name="Path 74528" d="M17.716,16.914l3.736,1.237,1.979.421q.049.049.049-.025.049-.049-.025-.049l-4.33-1.683L19,16.741l-3.167-1.584q-.965-.569-1.089-.668l-.445-.247-.124-.1L13.015,13.4,9.378,10.628,9.254,10.5l-.148-.1L5.889,7.288,3.266,4.293,3.192,4.17l-.1-.1L1.93,2.586l-.049-.1-.148-.173L.074.012Q.025-.012,0,.012V.087L1.485,2.759l.074.1.049.1.817,1.262Q3.415,5.6,3.81,6.125l1.212,1.51,3.711,3.737,1.979,1.584,2.994,1.98.148.074.148.1.594.322.074.049.074.025Z" transform="translate(0 0)" fill="#a84657"/>
            </g>
          </g>
          <g id="Group_101934" data-name="Group 101934" transform="translate(41.73 80.165)">
            <g id="Group_101933" data-name="Group 101933" transform="translate(0 0)">
              <g id="Group_101932" data-name="Group 101932">
                <path id="Path_74529" data-name="Path 74529" d="M6,2.982,3.031.012a.031.031,0,0,0-.049,0L.012,2.982a.031.031,0,0,0,0,.049L2.982,6a.031.031,0,0,0,.049,0L6,3.031a.031.031,0,0,0,0-.049M3.006,5.9l.025.025H2.982L3.006,5.9.111,3.007l-.025.025V2.982l.025.025L3.006.111,5.9,3.007,3.006,5.9m.049-3.638-.049-.049-.049.049v.693H2.264l-.049.049.049.049h.693v.693l.049.049.049-.049V3.056h.693L3.8,3.007l-.049-.049H3.056Z" fill="rgba(0,0,0,0)"/>
              </g>
            </g>
          </g>
        </g>
        <g id="Group_101946" data-name="Group 101946" transform="matrix(0.948, 0.318, -0.318, 0.948, 103.792, 74.703)">
          <g id="Group_101937" data-name="Group 101937" transform="translate(0 9.407)">
            <g id="Group_101936" data-name="Group 101936" transform="translate(0 0)">
              <path id="Path_74530" data-name="Path 74530" d="M23.407,40.541l.1-39.45L2.7,0,0,37.293Q17.878,48.749,23.407,40.541Z" fill="#e2ad98"/>
            </g>
          </g>
          <g id="Group_101939" data-name="Group 101939" transform="translate(2.516 0)">
            <g id="Group_101938" data-name="Group 101938" transform="translate(0 0)">
              <path id="Path_74531" data-name="Path 74531" d="M3.058,3.058A10.087,10.087,0,0,0,0,10.464,10.087,10.087,0,0,0,3.058,17.87a10.087,10.087,0,0,0,7.406,3.058A10.087,10.087,0,0,0,17.87,17.87a10.087,10.087,0,0,0,3.058-7.406A10.087,10.087,0,0,0,17.87,3.058,10.087,10.087,0,0,0,10.464,0,10.087,10.087,0,0,0,3.058,3.058Z" fill="#e2ad98"/>
            </g>
          </g>
          <g id="Group_101942" data-name="Group 101942" transform="translate(2.207 7.87)">
            <g id="Group_101941" data-name="Group 101941" transform="translate(0 0)">
              <g id="Group_101940" data-name="Group 101940" transform="translate(0 0)">
                <path id="Path_74532" data-name="Path 74532" d="M21.324,28.54,21.25,0,.3,1.24,0,8.183Q8.183,25.763,21.324,28.54Z" fill="#c18770"/>
              </g>
            </g>
          </g>
          <g id="Group_101945" data-name="Group 101945" transform="translate(8.319 48.2)">
            <g id="Group_101944" data-name="Group 101944" transform="translate(0 0)">
              <g id="Group_101943" data-name="Group 101943">
                <path id="Path_74533" data-name="Path 74533" d="M6.013,2.988,3.037.012a.031.031,0,0,0-.05,0L.012,2.988a.031.031,0,0,0,0,.05L2.988,6.013a.031.031,0,0,0,.05,0L6.013,3.037a.031.031,0,0,0,0-.05m-3,2.926.025.025h-.05l.025-.025-2.9-2.9-.025.025v-.05l.025.025,2.9-2.9,2.9,2.9-2.9,2.9m.05-3.645-.05-.05-.05.05v.694H2.269l-.05.05.05.05h.694v.694l.05.05.05-.05V3.062h.694l.05-.05-.05-.05H3.062Z" fill="rgba(0,0,0,0)"/>
              </g>
            </g>
          </g>
        </g>
        <g id="Group_102077" data-name="Group 102077" transform="matrix(0.943, 0.332, -0.332, 0.943, 106.213, 0)">
          <g id="Group_101949" data-name="Group 101949" transform="translate(13.577 23.65)">
            <g id="Group_101948" data-name="Group 101948" transform="translate(0 0)">
              <g id="Group_101947" data-name="Group 101947" transform="translate(0 0)">
                <path id="Path_74534" data-name="Path 74534" d="M50.717,7.487Q42.921.145,30.152,0A28.748,28.748,0,0,0,8.694,8.564,28.682,28.682,0,0,0,0,29.576q.005,12.3,9.823,20.88,9.84,8.6,28.523,8.72,18.706.148,18.832-9.534T57.913,27.4Q58.539,14.836,50.717,7.487Z" fill="#e2ad98"/>
              </g>
            </g>
          </g>
          <g id="Group_101952" data-name="Group 101952" transform="translate(17.064 56.916)">
            <g id="Group_101951" data-name="Group 101951" transform="translate(0 0)">
              <g id="Group_101950" data-name="Group 101950" transform="translate(0)">
                <path id="Path_74535" data-name="Path 74535" d="M57.9,11.084Q58.382,6.543,52.418,0L.2,3.149q-1.19,13.613,4.811,20.8,8.3,15.508,33.6,22.267Q53.534,33.252,57.9,11.084Z" fill="#e2ad98"/>
              </g>
            </g>
          </g>
          <g id="Group_101971" data-name="Group 101971" transform="translate(33.045 55.819)">
            <g id="Group_101957" data-name="Group 101957" transform="translate(29.611 4.297)">
              <g id="Group_101954" data-name="Group 101954" transform="translate(0 0)">
                <g id="Group_101953" data-name="Group 101953" transform="translate(0 0)">
                  <path id="Path_74536" data-name="Path 74536" d="M6.517,4.253a4.8,4.8,0,0,0-.963-3.018A2.813,2.813,0,0,0,3.258,0,2.855,2.855,0,0,0,.947,1.236,4.857,4.857,0,0,0,0,4.253a4.789,4.789,0,0,0,.947,3A2.845,2.845,0,0,0,3.258,8.507a2.8,2.8,0,0,0,2.3-1.252A4.735,4.735,0,0,0,6.517,4.253Z" fill="#231915"/>
                </g>
              </g>
              <g id="Group_101956" data-name="Group 101956" transform="translate(1.171 3.402)">
                <g id="Group_101955" data-name="Group 101955" transform="translate(0 0)">
                  <path id="Path_74537" data-name="Path 74537" d="M1.574,1A1.209,1.209,0,0,0,1.317.274.643.643,0,0,0,.755,0a.687.687,0,0,0-.546.3A1.24,1.24,0,0,0,0,1.06a1.092,1.092,0,0,0,.257.706.672.672,0,0,0,.578.289.636.636,0,0,0,.53-.321A1.136,1.136,0,0,0,1.574,1Z" fill="#fff"/>
                </g>
              </g>
            </g>
            <g id="Group_101959" data-name="Group 101959" transform="translate(24.854 1.115)">
              <g id="Group_101958" data-name="Group 101958" transform="translate(0 0)">
                <path id="Path_74538" data-name="Path 74538" d="M8.641.043a33.852,33.852,0,0,0-3.43,0Q3.048.163,2.427,1.434A34.361,34.361,0,0,1,0,5.447q.048.489,1.327.583,1.282.127,2.945.227,1.691.094,4.11.129a8.4,8.4,0,0,0,4.013-.971A24.443,24.443,0,0,0,8.641.043Z" transform="translate(0 0)" fill="#e2ad98"/>
              </g>
            </g>
            <g id="Group_101961" data-name="Group 101961" transform="translate(25.016 6.53)">
              <g id="Group_101960" data-name="Group 101960" transform="translate(0 0)">
                <path id="Path_74539" data-name="Path 74539" d="M8.544,1.23,8.673,1.2H8.8L10.226,1l.194-.065L11,.809l.583-.227.129-.065.1-.065.065-.032.065-.065.065-.032.065-.065v-.1h-.129l-.032.032H11.78l-.065.032h-.227a3.2,3.2,0,0,1-.55.032l-1.2-.1H9.482L9.256.129,6.278.1,6.149.129.194,0,.065.032,0,.1.032.129.324.259l.1.065,2.33.777,1.586.259,1.715.065.162-.032h.55l.162-.032h.259Z" fill="#231915"/>
              </g>
            </g>
            <g id="Group_101966" data-name="Group 101966" transform="translate(8.349 5.041)">
              <g id="Group_101963" data-name="Group 101963" transform="translate(0 0)">
                <g id="Group_101962" data-name="Group 101962" transform="translate(0 0)">
                  <path id="Path_74540" data-name="Path 74540" d="M6.517,4.253a4.8,4.8,0,0,0-.963-3.018A2.813,2.813,0,0,0,3.258,0,2.855,2.855,0,0,0,.947,1.236,4.857,4.857,0,0,0,0,4.253a4.789,4.789,0,0,0,.947,3A2.845,2.845,0,0,0,3.258,8.507a2.8,2.8,0,0,0,2.3-1.252A4.735,4.735,0,0,0,6.517,4.253Z" fill="#231915"/>
                </g>
              </g>
              <g id="Group_101965" data-name="Group 101965" transform="translate(1.171 3.402)">
                <g id="Group_101964" data-name="Group 101964" transform="translate(0 0)">
                  <path id="Path_74541" data-name="Path 74541" d="M1.574,1A1.209,1.209,0,0,0,1.317.274.643.643,0,0,0,.755,0a.687.687,0,0,0-.546.3A1.24,1.24,0,0,0,0,1.06a1.092,1.092,0,0,0,.257.706.672.672,0,0,0,.578.289.636.636,0,0,0,.53-.321A1.136,1.136,0,0,0,1.574,1Z" fill="#fff"/>
                </g>
              </g>
            </g>
            <g id="Group_101968" data-name="Group 101968" transform="translate(0.453 0)">
              <g id="Group_101967" data-name="Group 101967" transform="translate(0 0)">
                <path id="Path_74542" data-name="Path 74542" d="M11.391,2.355A17.142,17.142,0,0,0,9.029.608,3.728,3.728,0,0,0,6.181.09,6.09,6.09,0,0,0,3.042,2.064,22.66,22.66,0,0,0,0,6.53q.538.154,1.2.356.689.2,3.269.712a8.849,8.849,0,0,0,4.951-.356,8.159,8.159,0,0,1,3.592-.68A4.912,4.912,0,0,0,15.437,6.3,4.051,4.051,0,0,0,14.5,5.171Q12.977,3.747,11.391,2.355Z" fill="#e2ad98"/>
              </g>
            </g>
            <g id="Group_101970" data-name="Group 101970" transform="translate(0 6.375)">
              <g id="Group_101969" data-name="Group 101969" transform="translate(0 0)">
                <path id="Path_74543" data-name="Path 74543" d="M12.718,1.256l2.3-.583.809-.291.032-.065L15.793.285,9.709.35,9.482.382,2.427.285,2.136.22H2.006L1.845.188,1.262.123,1.1.091H.971L.68.058H.518L.356.026H.065Q0-.039,0,.058L.032.123.874.511,1,.544l.68.291.162.032.129.065.291.1H2.33L7.8,1.676Z" fill="#231915"/>
              </g>
            </g>
          </g>
          <g id="Group_101974" data-name="Group 101974" transform="translate(31.915 49.791) rotate(10.825)">
            <g id="Group_101973" data-name="Group 101973" transform="translate(0 0)">
              <g id="Group_101972" data-name="Group 101972">
                <path id="Path_74544" data-name="Path 74544" d="M0,2.753l.808-.375a10.638,10.638,0,0,1,5.6-.866,19.851,19.851,0,0,1,4.213,1.039,8.585,8.585,0,0,1,1.356.548q.433.231,1.27.779a.8.8,0,0,0,.606.2.218.218,0,0,1-.029.115,1.149,1.149,0,0,0-.058-.952A2.587,2.587,0,0,0,12.9,2,8.1,8.1,0,0,0,10.475.646,14.269,14.269,0,0,0,4.848.04a7.572,7.572,0,0,0-3.03.952A18.477,18.477,0,0,0,0,2.753Z" transform="translate(3.463 0)" fill="#540e00"/>
                <path id="Path_74545" data-name="Path 74545" d="M3.636,1.039l-.231.173q-.073.056-.144.115a.157.157,0,0,1-.058.029.256.256,0,0,1-.058.058.306.306,0,0,1-.058.058,2.253,2.253,0,0,1-.2.144.059.059,0,0,1-.029.029A.238.238,0,0,1,2.8,1.7a.128.128,0,0,1-.058.029.059.059,0,0,1-.058.029l-1.5,1.587A9.261,9.261,0,0,0,0,5.223a8.236,8.236,0,0,1,1.01-1.01A12.675,12.675,0,0,1,3.318,2.741,12.413,12.413,0,0,1,9.061,1.385a13.383,13.383,0,0,1,5.887,1.3q1.9.923,2.251.635l.029-.029.058-.087a.218.218,0,0,0,.029-.115.8.8,0,0,1-.606-.2q-.837-.548-1.27-.779a8.585,8.585,0,0,0-1.356-.548A19.851,19.851,0,0,0,9.869.519a10.638,10.638,0,0,0-5.6.866l-.808.375A18.478,18.478,0,0,1,5.281,0,13.841,13.841,0,0,0,3.636,1.039Z" transform="translate(0 0.993)" fill="#2b0700"/>
              </g>
            </g>
          </g>
          <g id="Group_101977" data-name="Group 101977" transform="matrix(-0.95, -0.311, 0.311, -0.95, 70.006, 55.521)">
            <g id="Group_101976" data-name="Group 101976" transform="translate(0 0)">
              <g id="Group_101975" data-name="Group 101975">
                <path id="Path_74546" data-name="Path 74546" d="M0,1.38l.569.359a5.764,5.764,0,0,0,3.944.828,11.047,11.047,0,0,0,2.968-.994,5.283,5.283,0,0,0,.956-.524q.3-.221.895-.745Q9.584.059,9.759.11A.269.269,0,0,0,9.738,0,1.46,1.46,0,0,1,9.7.911,2.607,2.607,0,0,1,9.088,2.1a5.529,5.529,0,0,1-1.708,1.3,7.584,7.584,0,0,1-3.964.58,4.4,4.4,0,0,1-2.135-.911A16.015,16.015,0,0,1,0,1.38Z" transform="translate(2.44 1.932)" fill="#540e00"/>
                <path id="Path_74547" data-name="Path 74547" d="M2.562,4,2.4,3.837q-.051-.053-.1-.11A.1.1,0,0,0,2.257,3.7a.225.225,0,0,0-.041-.055.27.27,0,0,0-.041-.055,1.7,1.7,0,0,0-.142-.138.051.051,0,0,0-.02-.028.208.208,0,0,0-.041-.055.084.084,0,0,0-.041-.028.04.04,0,0,0-.041-.028L.834,1.794A9.749,9.749,0,0,1,0,0,7.246,7.246,0,0,0,.712.966,9.139,9.139,0,0,0,2.338,2.374a6.939,6.939,0,0,0,4.046,1.3,7.431,7.431,0,0,0,4.147-1.242q1.342-.883,1.586-.607l.02.028.041.083a.269.269,0,0,1,.02.11q-.174-.052-.427.193-.59.524-.895.745a5.283,5.283,0,0,1-.956.524A11.047,11.047,0,0,1,6.953,4.5a5.764,5.764,0,0,1-3.944-.828L2.44,3.312A16.015,16.015,0,0,0,3.72,5,9.917,9.917,0,0,1,2.562,4Z" fill="#2b0700"/>
              </g>
            </g>
          </g>
          <g id="Group_101982" data-name="Group 101982" transform="translate(53.117 54.482)">
            <g id="Group_101979" data-name="Group 101979" transform="translate(0.099 0)">
              <g id="Group_101978" data-name="Group 101978" transform="translate(0 0)">
                <path id="Path_74548" data-name="Path 74548" d="M11.778,19.345a6.974,6.974,0,0,0-4.191-5.678Q5,8.308,6.274.8q-2.256-1.823-5.158.521L0,20.461Q6.212,24.887,11.778,19.345Z" transform="translate(0 0)" fill="#e2ad98"/>
              </g>
            </g>
            <g id="Group_101981" data-name="Group 101981" transform="translate(0 0.673)">
              <g id="Group_101980" data-name="Group 101980" transform="translate(0 0)">
                <path id="Path_74549" data-name="Path 74549" d="M6.125,3.05l.248-3Q6.422,0,6.348,0L6.3.025,5.629,3.67,5.554,7.389l.025.05L5.753,9.15l.05.223v.1l.322,1.413.074.2.05.223.273.843.1.2.6,1.438a.452.452,0,0,0,.273.248h.025l1.091.446.521.273.967.694.124.074v.025h.025l.074.074.05.025v.025h.025l.025.05.05.05h.025l.025.025.223.3.05.1.2.546v.074l.05.248v.422l-.025.124v.074l-.025.074v.124l-.05.149v.1l-.025.025v.074l-.223.57-.3.446-.4.446a4.394,4.394,0,0,1-.893.744,11.557,11.557,0,0,1-1.041.62l-.124.074-.149.05-.124.074-.149.05-.05.05-.347.124-.124.025a4.526,4.526,0,0,1-1.165.174h-.3l-1.488-.2-.6-.174a10.066,10.066,0,0,1-1.165-.446q-.372-.149-1.116-.546a4.051,4.051,0,0,1-.546-.3l-.546-.3Q0,19.639,0,19.738v.05l1.041.744a12.086,12.086,0,0,0,1.066.67l1.165.57,1.389.446.818.124h.248l.1.025a6.151,6.151,0,0,0,1.339-.124l.57-.174.05-.025h.025l.149-.074.174-.05.3-.149a4.155,4.155,0,0,0,.57-.3l.57-.322a7.406,7.406,0,0,0,1.066-.818l.471-.521.4-.57.3-.67.05-.174v-.074l.025-.025v-.074l.05-.174.025-.174V17.8l.025-.1L12,17.531V17.01l-.05-.372v-.1l-.124-.446-.074-.174-.05-.05-.025-.1-.05-.074-.05-.1-.322-.446-.05-.025-.025-.05-.248-.248-.05-.025-.025-.025-.149-.124-1.091-.744-1.19-.57-.422-.149-.57-1.265L6.621,9.3V9.2L6.571,9,6.323,7.538V7.414L6.3,7.389V7.315l-.05-.422Z" transform="translate(0 0)" fill="#c18770"/>
              </g>
            </g>
          </g>
          <g id="Group_101987" data-name="Group 101987" transform="matrix(0.999, -0.034, 0.034, 0.999, 45.926, 82.48)">
            <g id="Group_101984" data-name="Group 101984" transform="translate(0.441 0)">
              <g id="Group_101983" data-name="Group 101983" transform="translate(0 0)">
                <path id="Path_74550" data-name="Path 74550" d="M9.939,1.271l.212.04h.212l1.73.358.212.079.706.2q.106.04.353.119l3.354,1.351.141.04.212.119.212.079q.071.079.071-.04.071-.079-.035-.079l-.141-.159-.812-.636L14.281,1.51l-.141-.119L12.551.715l-.212-.04L12.163.6,11.739.477,11.563.4,9.656.04H9.2L9.091,0H7.75L7.644.04H7.432L7.22.079H7.043L3.866.755Q3.654.834,3.2.993l-.636.238a8.019,8.019,0,0,0-1.094.556l-.106.04-.706.437-.636.556q-.035.079,0,.119H.124l.53-.278.177-.04,1.059-.437,2.719-.636h.177l.177-.04L7.5,1.232l.212-.04Z" transform="translate(0)" fill="#231915"/>
              </g>
            </g>
            <g id="Group_101986" data-name="Group 101986" transform="translate(0 1.192)">
              <g id="Group_101985" data-name="Group 101985" transform="translate(0 0)">
                <path id="Path_74551" data-name="Path 74551" d="M.388.119v.04L.282.318.212.4V.477L.177.516.141.636.071.795,0,1.112v.4l.071.4.141.358.071.119.177.2a.378.378,0,0,0,.247.159l.388.159H1.2l.177.04h.106l.106-.119-.071-.079L1.448,2.7l-.212-.238H1.2L.918,2.106.883,2.026l-.035-.04v-.04L.671,1.43V1.271L.636,1.152V.2L.6.119V.079L.53,0,.424.119Z" fill="#c18770"/>
              </g>
            </g>
          </g>
          <g id="Group_102019" data-name="Group 102019" transform="translate(0 0)">
            <g id="Group_101989" data-name="Group 101989" transform="translate(0 0)">
              <g id="Group_101988" data-name="Group 101988">
                <path id="Path_74552" data-name="Path 74552" d="M.765,20.517q2.014,6.9,9.736,10.812a82.764,82.764,0,0,0,12.728,5.435q5,1.525,6.882-4.575a86.758,86.758,0,0,0,2.737-11.73q.88-5.611-2.4-13.314Q27.139-.579,16.23.047,5.3.653,2.036,7.144A17.639,17.639,0,0,0,.765,20.517Z" fill="#540e00"/>
              </g>
            </g>
            <g id="Group_101992" data-name="Group 101992" transform="translate(9.915 14.495)">
              <g id="Group_101991" data-name="Group 101991" transform="translate(0 0)">
                <g id="Group_101990" data-name="Group 101990">
                  <path id="Path_74553" data-name="Path 74553" d="M24.653,22.425,22.64,0Q5.694,1.869,0,16.364l12.024,10.5Z" fill="#380a00"/>
                </g>
              </g>
            </g>
            <g id="Group_101994" data-name="Group 101994" transform="translate(2.431 12.094)">
              <g id="Group_101993" data-name="Group 101993" transform="translate(0 0)">
                <path id="Path_74554" data-name="Path 74554" d="M.074.035q0-.059-.039-.02-.059,0-.02.039V.68l.02.1.371,3.03.88,3.109.215.508.039.137.176.391a17.161,17.161,0,0,0,1.056,2.072l1.505,2.268L6.35,14.64l.117.1.821.8.117.078.1.1L9.38,17.22l3.676,2.268,1,.489q.039,0,.039-.02.039-.039-.02-.039L11.179,17.9l-3.206-2.7-2.522-2.7L4.375,11.1,2.85,8.657l-.02-.078L2.792,8.52l-.88-1.857L1.873,6.6l-.958-2.7L.9,3.789l-.039-.1Z" fill="#380a00"/>
              </g>
            </g>
            <g id="Group_101996" data-name="Group 101996" transform="translate(5.911 4.469)">
              <g id="Group_101995" data-name="Group 101995" transform="translate(0 0)">
                <path id="Path_74555" data-name="Path 74555" d="M.074.035q0-.059-.039-.02-.059,0-.02.039V.6L.368,4.317.856,6.78l.665,2.19q.391,1.075.782,1.936l.293.587.039.059.02.059L3.3,12.763l.293.43a.212.212,0,0,0,.078.1l.059.117.606.821a.212.212,0,0,1,.078.1.212.212,0,0,1,.078.1l.645.723.1.078.078.1.411.411.1.059,1,.841L9.146,18l1.134.411q.039.039.039-.02.039-.039-.02-.039l-.215-.117-2.8-1.877L5.7,14.8l-.665-.821-.059-.1-.078-.1-.938-1.427a16.291,16.291,0,0,1-.958-1.779l-.313-.7L1.462,6.37.446,2.049l-.02-.156L.387,1.756Z" fill="#380a00"/>
              </g>
            </g>
            <g id="Group_101998" data-name="Group 101998" transform="translate(10.091 3.762)">
              <g id="Group_101997" data-name="Group 101997" transform="translate(0 0)">
                <path id="Path_74556" data-name="Path 74556" d="M5.748,7.214,6.843,9.345l.059.1.117.293.1.176.684,1.7L9.15,16.208q0,.059.039.02.059,0,.02-.039v-.215l-.176-1.681-.039-.137-.059-.45L8.368,11.32,7.586,9.13l-.059-.1-.176-.411q-.352-.8-.8-1.6l-1.6-2.424-.8-1-1.72-1.76-.841-.7-.1-.1L.587.352.45.274.059,0H0V.059L1.251,1.29l.039.059L2.542,2.7a1.647,1.647,0,0,0,.235.274L4.3,4.927Z" fill="#380a00"/>
              </g>
            </g>
            <g id="Group_102000" data-name="Group 102000" transform="translate(16.601 6.235)">
              <g id="Group_101999" data-name="Group 101999" transform="translate(0 0)">
                <path id="Path_74557" data-name="Path 74557" d="M.059.01Q.039-.01,0,.01V.068L1.271,1.906l.137.235a11.142,11.142,0,0,1,.606,1.036L2.737,4.7l.059.176.078.156.508,1.642.02.039.02.059.078.352q.137.684.235,1.447l.1,2.346L3.812,11l-.1,1.232v.137l-.469,2.62q-.039.039.02.039l.039-.02.43-.978L4.2,12.464l.02-.156.176-.841v-.078l.059-.352v-.078l.02-.078V10.7q0-.039.059-.723V8.964l-.02-.1L4.5,8.495,4.262,6.95q-.2-.8-.43-1.486l-.332-.8-.02-.078L2.17,2.336l-.7-.9Z" transform="translate(0 0)" fill="#380a00"/>
              </g>
            </g>
            <g id="Group_102002" data-name="Group 102002" transform="translate(1.884 19.367)">
              <g id="Group_102001" data-name="Group 102001" transform="translate(0 0)">
                <path id="Path_74558" data-name="Path 74558" d="M2.323,3.554l-.039-.078-.059-.059-.078-.137-.1-.117L2.01,3.1l-.059-.059L1.462,2.3,1.4,2.186.074.035q0-.059-.039-.02-.059,0-.02.039L.055.231.583,1.619,1.6,3.633l.1.137.039.078.8,1.212L4.121,6.917l.078.059.8.762a13.849,13.849,0,0,0,1.114.86l2.209,1.31.078.02.117.059,2.033.723q.039.039.039-.02l-.02-.039L7.308,8.638l-1.8-1.486A6.171,6.171,0,0,1,5,6.682Z" fill="#380a00"/>
              </g>
            </g>
            <g id="Group_102004" data-name="Group 102004" transform="translate(26.005 5.023)">
              <g id="Group_102003" data-name="Group 102003" transform="translate(0 0)">
                <path id="Path_74559" data-name="Path 74559" d="M1.134,1.144.978.987.86.831.059.01Q.039-.01,0,.01V.068L.078.205.2.362.254.479l1.7,2.815.059.137L2.639,4.6l.02.078.078.137L3.988,8.28l.1.371.02.156.039.137.1.528v.078l.117.978v.254l.02.137v1.017l-.039.391V12.5l-.078.762q-.039.039.02.039l.039-.02.137-.332.411-1.9v-.137l.02-.137v-.137l.02-.059L4.79,8.514,4.536,7.361a11.9,11.9,0,0,0-.43-1.31l-.02-.078-.039-.078L3.089,3.9,3.05,3.842l-.039-.078Z" transform="translate(0 0)" fill="#380a00"/>
              </g>
            </g>
            <g id="Group_102006" data-name="Group 102006" transform="translate(13.204 1.282)">
              <g id="Group_102005" data-name="Group 102005" transform="translate(0 0)">
                <path id="Path_74560" data-name="Path 74560" d="M11.023,7.484l-.254-.43L10.749,7a9.209,9.209,0,0,0-.645-.938l-.156-.235L9.85,5.7l-.039-.059L8.618,4.356A19.032,19.032,0,0,0,6.937,2.987l-.978-.626L3.2.993l-.2-.059L2.831.856.055.016Q.016-.023.016.035q-.039.039.02.039L1.462.68,5.7,2.968,7.8,4.63l.059.039.039.059.2.176a13.492,13.492,0,0,1,1.388,1.6,11.631,11.631,0,0,1,1.114,1.818,12.57,12.57,0,0,1,.743,1.916l.411,1.9a11.752,11.752,0,0,1,.176,1.74l-.156,3.636q-.039.039.02.039l.039-.02.45-2.151.137-2.053-.176-2.268-.547-2.053a9.673,9.673,0,0,0-.411-1.017l-.059-.137-.078-.117Z" fill="#380a00"/>
              </g>
            </g>
            <g id="Group_102008" data-name="Group 102008" transform="translate(18.693 0.008)">
              <g id="Group_102007" data-name="Group 102007" transform="translate(0 0)">
                <path id="Path_74561" data-name="Path 74561" d="M14.037,15.269,13.627,12.1,13.1,10.03a17.777,17.777,0,0,0-.645-1.857L11.418,6.041,10.342,4.458l-1.505-1.6-.371-.293L8.426,2.5l-1.31-.9a11.37,11.37,0,0,0-1.8-.841L4.027.352,2.5.078,2.151.059Q1.505,0,1.017,0L.039.039A.035.035,0,0,0,0,.078L.02.1,1.369.274h.078l.059.02L1.8.332,3.421.7,3.5.743l1.6.567a14.042,14.042,0,0,1,1.642.9,8.153,8.153,0,0,1,.8.567l.391.313L8,3.128l.332.293A13.6,13.6,0,0,1,9.717,4.946a14.351,14.351,0,0,1,1.173,1.72l.919,1.779q.371.841.723,1.779l1.447,5.064q0,.059.039.02Q14.077,15.308,14.037,15.269Z" transform="translate(0)" fill="#812511"/>
              </g>
            </g>
            <g id="Group_102010" data-name="Group 102010" transform="translate(0.081 8.497)">
              <g id="Group_102009" data-name="Group 102009" transform="translate(0 0)">
                <path id="Path_74562" data-name="Path 74562" d="M1.369.016q-.039-.039-.039.02l-.8,2.659L.117,5.157.059,5.92Q.059,5.959,0,7l.078,1.72.02.156v.137l.235,1.486A15.149,15.149,0,0,0,1,12.86q.078.235.469,1.153l.313.626.039.059.293.547.078.117.137.274,1.642,2.229,1.193,1.271L7.273,20.9l.313.215a12.36,12.36,0,0,0,1.056.7l.958.567q.059.059.059-.02.02,0,0-.039l-2.014-1.6L4.555,17.553,3.285,15.734a10.552,10.552,0,0,1-.587-1,15.867,15.867,0,0,1-.958-2.131q-.274-.743-.371-1.134l-.293-1.134A18.078,18.078,0,0,1,.743,8.09L.7,7.816.665,6.467l-.02-.059.02-.078.02-1.388.7-4.888Q1.427.016,1.369.016Z" fill="#380a00"/>
              </g>
            </g>
            <g id="Group_102012" data-name="Group 102012" transform="translate(14.705 1.263)">
              <g id="Group_102011" data-name="Group 102011" transform="translate(0 0)">
                <path id="Path_74563" data-name="Path 74563" d="M9.5,6.585a13.975,13.975,0,0,1,.841,1.564l.332.782.684,2.209.567,3.109.039.02.02-.039.039-.665-.391-3.636-.039-.1-.45-1.545L10.03,5.979,9.013,4.61l-.665-.723a7.762,7.762,0,0,0-.7-.645L6.9,2.635,5.357,1.677l-.762-.371L2.483.524,1.877.368Q1.251.211.9.152L.039.016Q0-.023,0,.035L.02.074.841.368l.215.059,2.4.978.078.039.078.059.352.156L5.924,2.831l1.056.821L8.426,5.118Z" transform="translate(0 0)" fill="#812511"/>
              </g>
            </g>
            <g id="Group_102014" data-name="Group 102014" transform="translate(12.402 2.436)">
              <g id="Group_102013" data-name="Group 102013" transform="translate(0 0)">
                <path id="Path_74564" data-name="Path 74564" d="M5.236,3.124A15,15,0,0,1,6.487,4.258q.626.7,1.095,1.349l.9,1.486.332.782a6.231,6.231,0,0,1,.293.8l.43,1.72.215,1.877.02,2.346q-.039.039.02.039l.039-.02.176-.821.176-2.561-.059-.938-.02-.1v-.1L9.889,8.892,9.263,6.976l-.059-.1-.039-.1a7.587,7.587,0,0,0-.43-.821L7.5,4.239l-.313-.332-.078-.1L5.666,2.557q-.8-.567-1.388-.9L2.635.856.27.055.055.016Q.016-.023.016.035q-.039.039.02.039l3.91,2.092Q4.669,2.655,5.236,3.124Z" fill="#812511"/>
              </g>
            </g>
            <g id="Group_102016" data-name="Group 102016" transform="translate(8.351 3.957)">
              <g id="Group_102015" data-name="Group 102015" transform="translate(0 0)">
                <path id="Path_74565" data-name="Path 74565" d="M.078,0,.059.039,0,1.74A8.729,8.729,0,0,0,.078,2.933L.547,5.474l.665,1.994a16.654,16.654,0,0,0,.723,1.584,16.6,16.6,0,0,0,.841,1.525l1.877,2.659.645.743.059.078,2.307,2.248q.039.039.059,0,.039-.02,0-.059l-2.014-2.6-.059-.059L4.5,11.926l-.1-.176-.117-.156L2.522,8.524,1.329,5.65a7.166,7.166,0,0,1-.235-.743L1,4.634.841,4.008.782,3.851.352,1.7.313,1.584V1.466L.2.645.176.567V.489L.117.02Z" transform="translate(0 0)" fill="#812511"/>
              </g>
            </g>
            <g id="Group_102018" data-name="Group 102018" transform="translate(3.057 9.064)">
              <g id="Group_102017" data-name="Group 102017" transform="translate(0 0)">
                <path id="Path_74566" data-name="Path 74566" d="M.035.016q-.059,0-.02.039L.348,4.4.622,5.959Q.7,6.428.993,7.621q.215.762.528,1.681l1.017,2.444.411.743a11.963,11.963,0,0,0,.9,1.329l.7.86.919.88L6.6,16.38l.215.117.059.02.274.156q.059.059.059-.02v-.039L6.9,16.38,5.724,15.285,4.532,13.779,4.493,13.7l-.156-.215a15.375,15.375,0,0,1-.762-1.349l-.059-.078L3.5,12.02l-.02-.059-.1-.176L1.912,8.031.231.837.211.661.074.035Q.074-.023.035.016Z" fill="#812511"/>
              </g>
            </g>
          </g>
          <g id="Group_102044" data-name="Group 102044" transform="translate(5.036 16.77)">
            <g id="Group_102021" data-name="Group 102021" transform="translate(0.1 0.054)">
              <g id="Group_102020" data-name="Group 102020" transform="translate(0 0)">
                <path id="Path_74567" data-name="Path 74567" d="M33.232.157A32.484,32.484,0,0,0,23.32.7a30,30,0,0,0-10.6,4.673A18.518,18.518,0,0,0,9.751,8.153q-.684.8-1.31,1.642-.645.821-1.251,1.662Q6.8,12,6.447,12.571a44.039,44.039,0,0,0-3.871,8.192A47.174,47.174,0,0,0,.23,30.343a25.185,25.185,0,0,0,.45,9.208A63.526,63.526,0,0,0,5.118,51.028a60.356,60.356,0,0,0,7.605,7.195,11.58,11.58,0,0,0,4.379-7.39Q21.521,18.319,39.43,16.618q11.515-9.56,28.6,1.8A38.743,38.743,0,0,0,55.618,7.879,87.969,87.969,0,0,0,43.261,2.4,47.221,47.221,0,0,0,33.232.157Z" fill="#380a00"/>
              </g>
            </g>
            <g id="Group_102023" data-name="Group 102023" transform="translate(0.1 0.054)">
              <g id="Group_102022" data-name="Group 102022" transform="translate(0 0)">
                <path id="Path_74568" data-name="Path 74568" d="M33.232.157A32.484,32.484,0,0,0,23.32.7a30,30,0,0,0-10.6,4.673A18.518,18.518,0,0,0,9.751,8.153q-.684.8-1.31,1.642-.645.821-1.251,1.662Q6.8,12,6.447,12.571a44.039,44.039,0,0,0-3.871,8.192A47.174,47.174,0,0,0,.23,30.343a25.185,25.185,0,0,0,.45,9.208A63.526,63.526,0,0,0,5.118,51.028a60.356,60.356,0,0,0,7.605,7.195q4.152,0,8.153-24.126-7.3-25.181,18.456-20.548,3.939-8.7,8.641-9.326Q45.511,3.171,43.261,2.4A47.221,47.221,0,0,0,33.232.157Z" fill="#540e00"/>
              </g>
            </g>
            <g id="Group_102025" data-name="Group 102025" transform="translate(16.897 2.002)">
              <g id="Group_102024" data-name="Group 102024" transform="translate(0 0)">
                <path id="Path_74569" data-name="Path 74569" d="M16.612,3.2l-1.2-.851-.15-.075-.125-.1-.3-.15a8.6,8.6,0,0,0-1.176-.6l-.15-.075-.15-.05-.15-.075-2.477-.8-.325-.05-.15-.05L6.627,0,6.351.025q-.4,0-1.1.05L1.171.751.045,1.1q-.075,0-.025.05,0,.075.05.025l2.9-.325A2.754,2.754,0,0,0,3.4.826,2.754,2.754,0,0,0,3.824.8L5.8.776A4.044,4.044,0,0,1,6.326.8l2.553.25h.15l.15.05,1.176.225.576.175a12.876,12.876,0,0,1,2.327.826,16.432,16.432,0,0,1,2.152,1.2l1.9,1.451a7.312,7.312,0,0,1,.826.8q.275.25.776.8l.976,1.176a2.453,2.453,0,0,1,.3.4l.15.175,2.152,3.378q0,.075.05.025.075,0,.025-.05l-.425-1.1a13.245,13.245,0,0,0-.576-1.226l-1.276-2.2L18.764,5.18l-2.027-1.9Z" transform="translate(0)" fill="#380a00"/>
              </g>
            </g>
            <g id="Group_102027" data-name="Group 102027" transform="translate(23.103 0)">
              <g id="Group_102026" data-name="Group 102026" transform="translate(0 0)">
                <path id="Path_74570" data-name="Path 74570" d="M5.876,0a3.784,3.784,0,0,0-.5.025l-3.028.3L.045.8Q-.03.8.02.851q0,.075.05.025L4.925.726A3.534,3.534,0,0,1,5.4.751l3.153.1,5.756.7,8.033,1.927.175.075,2.227.676q.05.05.05-.025.05-.05-.025-.05L24.52,4,19.59,1.927l-.1-.05-.125-.025-2.077-.626L15.06.7Q14.234.526,12.708.275q-1.6-.2-2.377-.225Z" transform="translate(0)" fill="#812511"/>
              </g>
            </g>
            <g id="Group_102029" data-name="Group 102029" transform="translate(0 14.995)">
              <g id="Group_102028" data-name="Group 102028" transform="translate(0 0)">
                <path id="Path_74571" data-name="Path 74571" d="M5.28.02q-.05-.05-.05.025L4.5,1.3l-.075.175L4,2.222,2.578,5.375,2.4,5.851l-.05.1L1.552,8.3l-.075.175L.751,11.256q-.375,1.8-.576,3.428L0,19.89l.526,4.63,1.251,4.5L3.6,33.153l2,3.228a.022.022,0,0,0,.025.025.031.031,0,0,0,.05,0v-.05l-.9-2.077L4.7,34.054l-.1-.2L3.5,30.876q-.475-1.5-.8-2.728l-.8-3.779v-.1l-.35-2.928v-.225l-.025-.2-.075-3.153.025-.1.325-4.3v-.1l.025-.1L2.678,8.6,2.7,8.428,5.305.07Q5.355.02,5.28.02Z" fill="#380a00"/>
              </g>
            </g>
            <g id="Group_102031" data-name="Group 102031" transform="translate(7.357 11.812)">
              <g id="Group_102030" data-name="Group 102030" transform="translate(0 0)">
                <path id="Path_74572" data-name="Path 74572" d="M.25,0,.225.025.1.976V1.1l-.025.15-.05.826L0,2.252l.15,4.4v.15L.4,8.433l.05.15.876,3.3.075.15.626,1.577.225.45a22.385,22.385,0,0,0,1.326,2.352l.576.826.05.05.425.6a.271.271,0,0,1,.1.125l.425.475a.271.271,0,0,0,.1.125l.526.576.05.075L7.783,21.1l.526.4a.735.735,0,0,0,.2.175,2.487,2.487,0,0,0,.4.275l.175.15.05.025.05.05.1.05,3,1.777q.075.075.075-.025v-.05L9.61,21.8a2.109,2.109,0,0,1-.35-.3L7.382,19.72,5.856,17.943A18.773,18.773,0,0,1,4.4,15.891l-1.476-2.7-.05-.15L2.3,11.687l-.325-.9-.025-.15L1.326,8.559.976,6.807l-.05-.125L.3.05A.044.044,0,0,0,.25,0Z" transform="translate(0 0)" fill="#380a00"/>
              </g>
            </g>
            <g id="Group_102033" data-name="Group 102033" transform="translate(5.956 11.792)">
              <g id="Group_102032" data-name="Group 102032" transform="translate(0 0)">
                <path id="Path_74573" data-name="Path 74573" d="M1.677.02q-.05-.05-.05.025L1.2,1.4A15.387,15.387,0,0,0,.8,2.948l-.075.225-.7,4.3L0,11.732l.3,2.277.1.375.025.2L.9,16.261q.35,1,.576,1.476l.325.7,1.176,1.977A13.52,13.52,0,0,0,3.9,21.592l.626.676.05.075.075.05.876.851.075.05.05.05.275.225A16.594,16.594,0,0,0,7.983,25l2.277,1.2,2.4.876q.05.05.05-.025.05-.05-.025-.05l-4.379-2.5-.7-.526-.1-.1-.125-.075-.951-.826a11.748,11.748,0,0,1-.926-.926,9.207,9.207,0,0,1-.9-1.026l-.626-.851-.125-.125-.075-.15a13.764,13.764,0,0,1-.751-1.251l-.175-.3-.475-1a12.615,12.615,0,0,1-.526-1.376L1.476,14.71l-.025-.175q-.175-.676-.3-1.451l-.05-.175L.8,9.88V7.528L1.151,3.5l.05-.225.175-1.3.05-.175L1.7.07Q1.752.02,1.677.02Z" transform="translate(0 0)" fill="#380a00"/>
              </g>
            </g>
            <g id="Group_102035" data-name="Group 102035" transform="translate(31.557 1.331)">
              <g id="Group_102034" data-name="Group 102034" transform="translate(0 0)">
                <path id="Path_74574" data-name="Path 74574" d="M10.786,3.9a5.5,5.5,0,0,0-.976-.851L8.634,2.272Q8.133,2,7.357,1.647a10,10,0,0,0-1.3-.526A12.453,12.453,0,0,0,4.73.721L4.1.546,1.426.1.7.045.551.02H.05Q0-.03,0,.045L.025.1,6.031,2.147l.15.075.15.05,1.251.576.15.05.075.05.075.025,1.4.8q.325.2,1,.7L10.911,5l.1.1.1.075.4.425.075.1.15.15.325.45.05.05.025.05.025.025.2.3.05.1.1.125q0,.075.05.025.05-.025.025-.05l-.025-.175-.075-.2-.025-.125-.075-.175V6.226l-.05-.075-.05-.175-.2-.375a3.683,3.683,0,0,0-.526-.826l-.3-.4Z" transform="translate(0)" fill="#380a00"/>
              </g>
            </g>
            <g id="Group_102037" data-name="Group 102037" transform="translate(12.788 5.586)">
              <g id="Group_102036" data-name="Group 102036" transform="translate(0 0)">
                <path id="Path_74575" data-name="Path 74575" d="M7.758,2.848l-.1-.05-.175-.125-.2-.1L7.207,2.5l-1.6-.826-.075-.05L3.829.946,3.654.871.651.1.05.02Q0-.03,0,.045L.025.1l.2.1L.45.27.576.345.751.4,4.88,2.272l.15.1.1.05.075.05q.826.45,1.376.8l.1.05.075.075,1.251.876.075.075.325.25L9.685,5.876l.5.6A9.429,9.429,0,0,1,10.961,7.7l.1.175.025.075.05.075.15.3.05.15.075.15.05.15.025.05.05.075.1.3v.025l.05.1.025.15.075.2.025.05.225.926.025.2.05.175v.075l.025.075.075.45.05.025.025-.05.05-.45-.05-1.527-.025-.05V9.5l-.05-.3V9.129l-.025-.05V9.054l-.075-.325-.025-.075V8.579l-.3-.951-.05-.075-.075-.175a9.342,9.342,0,0,0-.751-1.4l-.05-.1L10.786,5.8l-.5-.7-.45-.475a9.368,9.368,0,0,0-1.3-1.2l-.35-.25a1.936,1.936,0,0,0-.35-.25Z" transform="translate(0 0)" fill="#380a00"/>
              </g>
            </g>
            <g id="Group_102039" data-name="Group 102039" transform="translate(21.376 0.676)">
              <g id="Group_102038" data-name="Group 102038" transform="translate(0 0)">
                <path id="Path_74576" data-name="Path 74576" d="M20.14,9.184q.05-.025,0-.075l-.976-1.151L15.911,4.83l-2.7-1.952q-.8-.5-1.9-1.051-.926-.45-1.977-.851L8.679.751,8.554.726,8.178.6,8.128.576H8.053L7.3.375A13.864,13.864,0,0,0,5.35.075L5.125.05H5L4.95.025h-.5L4.324,0l-.1.025L2.8.075,1.246.325,1,.4A1.664,1.664,0,0,0,.6.5L.3.576l-.25.1Q-.03.676.02.726.02.8.07.751L1.847.626,2,.6l1.777.05.4.05H4.3l.1.025.425.05h.1L5.25.851q.976.175,1.827.4l.125.025.05.025h.075l.526.175L7.9,1.5l.125.025.225.1.125.025,1.9.776.125.075,1.627.826.1.075.125.05,3.328,2.177,4.479,3.554Q20.115,9.234,20.14,9.184Z" fill="#812511"/>
              </g>
            </g>
            <g id="Group_102041" data-name="Group 102041" transform="translate(14.214 5.055)">
              <g id="Group_102040" data-name="Group 102040" transform="translate(0 0)">
                <path id="Path_74577" data-name="Path 74577" d="M8.834,3.453l.1.05,1.927,1.2.125.1,3.754,2.7.15.125h.075V7.558l-.275-.325-.075-.125L12.462,4.9l-.4-.325-.125-.125L9.76,2.878q-.225-.15-1.376-.826l-2.2-1L5.981,1l-.35-.15L4.555.526,4.379.5,4.029.4,2.152.075H2.027l-.4-.05L.225,0,.05.025A.044.044,0,0,0,0,.075L.025.1.45.2.6.25,1.8.526l.125.05,2.2.676.5.2L4.8,1.5,7.382,2.678l.1.025.075.05,1.026.576.175.075Z" transform="translate(0 0)" fill="#812511"/>
              </g>
            </g>
            <g id="Group_102043" data-name="Group 102043" transform="translate(14.039 4.705)">
              <g id="Group_102042" data-name="Group 102042" transform="translate(0 0)">
                <path id="Path_74578" data-name="Path 74578" d="M7.808.6Q7.733.576,6.932.375l-.425-.1L4.855.05a2.268,2.268,0,0,0-.4-.025L4.379,0,.25.175.025.225,0,.275.05.3,1.276.425h.25l4.379.651,2.027.576,1.176.475a12.5,12.5,0,0,1,1.5.776l1.351.926q.576.475,1.151,1.051l.25.25.1.15.125.125.8,1.026.05.05.025.075.25.325.25.425.075.1.551.976q0,.075.05.025.075,0,.025-.05l-.325-1.1-.375-.826-.075-.225-.05-.05-1.151-1.8a11.946,11.946,0,0,0-1.151-1.2l-.5-.425L11.862,2.6l-.075-.075-.851-.576-.15-.075-.05-.05-.4-.225L8.233.726,8.133.7,8.008.651Z" transform="translate(0)" fill="#812511"/>
              </g>
            </g>
          </g>
          <g id="Group_102049" data-name="Group 102049" transform="translate(0.561 53.885)">
            <g id="Group_102046" data-name="Group 102046" transform="matrix(0.955, -0.296, 0.296, 0.955, 0, 5.144)">
              <g id="Group_102045" data-name="Group 102045" transform="translate(0 0)">
                <path id="Path_74579" data-name="Path 74579" d="M14.094,3.427A6.8,6.8,0,0,0,8.068,0,7.056,7.056,0,0,0,1.6,3.427Q-.755,6.98.357,12.725a21.26,21.26,0,0,0,3.62,8.951,10.537,10.537,0,0,0,6.844,3.992q4.381.768,5.753-3.67a20.825,20.825,0,0,0,.4-9.894A26.419,26.419,0,0,0,14.094,3.427Z" fill="#e2ad98"/>
              </g>
            </g>
            <g id="Group_102048" data-name="Group 102048" transform="translate(6.41 7.295)">
              <g id="Group_102047" data-name="Group 102047" transform="translate(0 0)">
                <path id="Path_74580" data-name="Path 74580" d="M6.645,2.529l.769.942L8.679,5.926l1.612,4.017q0,.074.05.025.074,0,.025-.05l-.2-1.463L9.522,6,8.629,3.744,7.96,2.579A5.67,5.67,0,0,0,6.645,1.215,5.514,5.514,0,0,0,4.959.322L4.86.3,4.736.248,4.513.2,4.463.174h-.05L3.868.05H3.744L3.695.025H3.62L3.4,0H2.926L2.455.074l-.174.05-.05.025-.1.025-.422.2-.1.074-.1.05L1.438.57a2.574,2.574,0,0,0-.57.62A3.9,3.9,0,0,0,.5,1.835l-.074.149L.2,2.752.174,2.9l-.05.124L0,3.967v.818a.044.044,0,0,0,.05.05l.025-.025.05-.223L.57,3.149.6,3.025.645,2.9l.4-.793a2.425,2.425,0,0,1,.372-.5l.05-.05.05-.074.074-.05.05-.05.248-.2a1.761,1.761,0,0,1,.6-.248,2.249,2.249,0,0,1,.67-.05h.174L3.5.942h.1l.5.124.074.025h.05l.05.025.3.074.074.05.744.322.347.2.149.124.1.05.074.074.3.248A2.741,2.741,0,0,1,6.645,2.529Z" transform="translate(0 0)" fill="#c18770"/>
              </g>
            </g>
          </g>
          <g id="Group_102058" data-name="Group 102058" transform="translate(17.45 25.871)">
            <g id="Group_102051" data-name="Group 102051" transform="translate(0 0.441) rotate(-0.817)">
              <g id="Group_102050" data-name="Group 102050" transform="translate(0 0)">
                <path id="Path_74581" data-name="Path 74581" d="M26.978,5.4q-.117-.723-.254-1.408a3.562,3.562,0,0,0-1.329-2.268A7.741,7.741,0,0,0,18.709.2,29.718,29.718,0,0,0,3.773,7.744,11.093,11.093,0,0,0,.274,14.1a17.323,17.323,0,0,0,.821,9.129Q2.7,27.606,4.2,32a13.026,13.026,0,0,1,.411,7.155A5.81,5.81,0,0,1,.02,43.793a10.69,10.69,0,0,0,4.79-.586,11.768,11.768,0,0,0,6.823-5.923,13.971,13.971,0,0,0,1.525-8.191,43.493,43.493,0,0,1-.039-9.208,21.5,21.5,0,0,1,3.069-9.051,12.91,12.91,0,0,1,3.968-4.164q3.714-2.424,6.823.821Z" fill="#540e00"/>
              </g>
            </g>
            <g id="Group_102053" data-name="Group 102053" transform="translate(0.115 0)">
              <g id="Group_102052" data-name="Group 102052" transform="translate(0 0)">
                <path id="Path_74582" data-name="Path 74582" d="M21.213.007q-.371-.02-1.095.02L17.42.4,16.11.73l-.137.02L14.8,1.1l-.02.02L10.166,3.33Q9.4,3.741,7.957,4.64L5.846,6.145A19.14,19.14,0,0,0,3.91,7.866a11.437,11.437,0,0,0-.88.958,9.864,9.864,0,0,0-.8,1.036q-.352.489-.7,1.095a8.668,8.668,0,0,0-.567,1.193l-.117.313L.8,12.539.45,13.731l-.137.743v.078l-.02.156V14.65l-.039.2-.039.1-.039.2-.039.1-.02.2v.059l-.02.059-.02.1v.1l-.02.039v.059l-.039.2v.117l-.02.1.117,3.206.665,2.894,1.74,4.594-.02-.02,2.151,7.1.411,2.424q.059.626.059,1.232l-.039,1.212-.215,1.193-.411,1.153-.293.528-.762.938-.978.723-.547.293a7.708,7.708,0,0,1-1.153.43q-.059,0-.02.039,0,.059.039.02l.156-.02.45-.137a3.9,3.9,0,0,0,.587-.215,6.063,6.063,0,0,0,1.114-.587l.489-.391a3.58,3.58,0,0,0,.45-.45l.215-.235.508-.8a4.34,4.34,0,0,0,.274-.587l.215-.606a9.282,9.282,0,0,0,.254-1.232l.1-1.271q0-.841-.039-1.271-.02-.371-.137-1.251l-.2-1.232L3.148,26.713l-.02-.02L1.74,22.979l-.02-.1-.176-.547L.86,19.342.7,17.074q.059-.723.059-.743v-.137l.02-.059L.8,15.96V15.9l.02-.039.02-.1v-.078l.02-.059v-.039l.078-.352.039-.1.02-.1.059-.176v-.059l.02-.156.02-.078v-.078l.039-.137.02-.156.117-.528.411-1.232a10.766,10.766,0,0,1,.528-1.095,12.322,12.322,0,0,1,.645-1.056q.391-.547.762-.978l.841-.919q.782-.782,1.857-1.662l1-.762L10.5,3.956l4.536-2.268-.02.02.235-.1L19.1.632q.528-.078,1.056-.117A9.38,9.38,0,0,1,21.193.456l1.056.078a6.791,6.791,0,0,1,1.017.215,4.847,4.847,0,0,1,.938.391l.45.254.2.156.059.039.137.137.156.117.039.059.1.078.117.156.137.137.156.215a8.305,8.305,0,0,1,.508.919,6.668,6.668,0,0,1,.332.978q.1.352.215,1.056A9.794,9.794,0,0,1,26.9,6.5l.02.137.02.919q-.02.039.02.039L27,7.573,27.039,6.5A10.645,10.645,0,0,0,26.98,5.4,7.245,7.245,0,0,0,26.8,4.347a8.552,8.552,0,0,0-.313-1.056l-.039-.117-.117-.254L26.3,2.861l-.078-.2L26.1,2.489l-.02-.02V2.431l-.235-.352-.1-.1-.078-.117-.235-.254L25.4,1.551l-.1-.1-.117-.078-.039-.059L24.4.789a7.918,7.918,0,0,0-1.017-.45A4.779,4.779,0,0,0,22.307.1q-.371-.059-1.095-.1m-7.8,7.938q-.489.391-.841.723-.743.7-1.232,1.232l-.7.821q-.508.645-.723.958l-.547.782-.039.039-.059.117-.274.43L8.5,14a9.961,9.961,0,0,0-.782,2.952A13.079,13.079,0,0,0,7.7,18.58l.02.059.02.352.02.1v.1L7.8,19.4v.1l.137.723a16.185,16.185,0,0,0,.978,3.206l1,2.072.02.02.039.059.391.8a11.838,11.838,0,0,1,.88,2.933,13.494,13.494,0,0,1,.117,1.466,11.965,11.965,0,0,1-.059,1.408l-.039.352v.117l-.02.039-.137.821-.039.156-.02.176-.411,1.466-.059.137-.039.137-.059.137-.039.137-.508,1.193-.059.1-.039.1L8.759,39.108l-.059.078a.16.16,0,0,0-.059.1l-.235.313q-.02.039,0,.059.039.039.059,0l.958-1.193a11.347,11.347,0,0,0,.919-1.486l.665-1.369.039-.137.117-.274.665-2.4v-.059l.02-.02v-.1l.059-.352a14.257,14.257,0,0,0,.117-1.486v-.489l-.02-.1-.1-1.173-.02-.1v-.059l-.02-.039-.176-.9-.039-.1-.039-.2-.2-.587v-.059l-.762-1.76-.02-.059h-.02v-.02l-.02-.02-.1-.176-.86-1.838a18.14,18.14,0,0,1-.958-3.05L8.544,19.4v-.1l-.039-.2v-.1l-.02-.1-.02-.2-.02-.1v-.1a11.377,11.377,0,0,1-.02-1.505,9.778,9.778,0,0,1,.645-2.776l1.31-2.424.1-.117.313-.489.1-.117.469-.665a.212.212,0,0,0,.078-.1l.156-.2q.645-.8,1.134-1.31l1.056-1.075q.039-.02,0-.059-.02-.02-.059,0l-.313.254M25.377,4.366l-.958-1.075-.371-.313-.606-.411a4.48,4.48,0,0,0-.723-.391,5.314,5.314,0,0,0-.841-.293,6.061,6.061,0,0,0-.938-.2,9.005,9.005,0,0,0-2.053,0l-1.056.2-.274.078-.117.02-1.329.43-.254.117-.137.039L14.7,3.037q-.782.391-1.936,1.075L9.619,6.439,7.9,8.335l-1.212,1.8-.469.88q-.059.059.02.059a.024.024,0,0,0,.039,0L8.583,8.257l.156-.137.137-.156,2.111-1.8.059-.02v-.02h.02l.02-.02.1-.078,1.075-.7,3.891-2.092,1.74-.606.117-.02q.293-.078.978-.215a8.3,8.3,0,0,1,1.9-.1,6.066,6.066,0,0,1,1.662.332,6.689,6.689,0,0,1,.7.313l.606.332a8.961,8.961,0,0,1,.9.665l.684.645.039.059q.039.039.059,0,.039-.02,0-.059Z" fill="#812511"/>
              </g>
            </g>
            <g id="Group_102055" data-name="Group 102055" transform="translate(2.07 4.054)">
              <g id="Group_102054" data-name="Group 102054" transform="translate(0 0)">
                <path id="Path_74583" data-name="Path 74583" d="M1.6,8.055Q1.662,8,1.584,8H1.545l-.332.528-.02.039-.039.059-.059.117-.078.117-.411.88-.02.1-.2.528-.02.1-.137.469q-.156.919-.176,1.056l-.039.88L0,13.021v.156l.391,4.047.176.841.039.078.919,3.187,1.29,3.382a30.2,30.2,0,0,1,.938,3.03l.626,2.991a22.637,22.637,0,0,1,.156,2.854l-.059,1.447-.02.039v.117l-.02.039-.039.293-.156.567a2.545,2.545,0,0,1-.2.528l-.039.078-.02.059-.059.117-.078.117-.02.059-.039.059a8.047,8.047,0,0,1-.587.821,5.622,5.622,0,0,1-.645.626l-.606.489q-.137.1-.9.587L.8,39.766l-.078.059q-.059,0-.02.039,0,.059.039.02l.782-.352,1.212-.762.039-.02.059-.039.078-.078.1-.059.45-.411a5.22,5.22,0,0,0,.684-.841l.313-.489.254-.567.235-.782.02-.176.02-.039V35.23L5,35.152v-.1l.02-.078a11.154,11.154,0,0,0,.117-1.369,16,16,0,0,0-.078-2.952l-.235-1.642-.02-.039v-.059L4.5,27.547a29.063,29.063,0,0,0-.938-3.109L1.31,18.163l-.039-.176-.039-.1-.2-.8L.508,13.451v-.137l-.02-.078V13l-.02-.137v-.841q.039-.547.117-1.017a5.266,5.266,0,0,1,.2-.88l.039-.2.039-.1.02-.1L1,9.384,1.6,8.055M16.638,2.894l-.156.117-.078.078-.567.469a5.913,5.913,0,0,0-.665.7,6.063,6.063,0,0,0-.626.821L12.708,8.348l-.137.293-1.408,4.282q-.117.43-.274,1.29L10.4,19.2l.293,3.382v.059l.02.02V22.7l.743,3.7.1.293q0,.059.039.02.059,0,.02-.039l-.43-4.047-.02-.02v-.1l-.02-.117-.078-3.167.567-4.731.039-.156q.059-.411.254-1.232l.059-.313.059-.137.762-2.581,1.173-2.776,1.564-2.737L16.7,3.285A7.672,7.672,0,0,1,17.791,2.5l.215-.117.059-.02.059-.039.43-.2.137-.039.156-.078q.059,0,.02-.039,0-.059-.039-.02l-.313.059-.821.293-1.056.587M22.855.528,22.62.391,22.5.352,22.386.293,21.877.117,21.31.02h-.137L21.1,0l-.958.039-.156.02-.45.1-.156.02-.156.059-.078.02H19.1l-.039.02-.45.137h-.02l-.039.02-.078.02-.313.117-.078.02-2.17,1.075-1.153.8A16.073,16.073,0,0,0,12.669,4.34l-.43.45-.059.078-.782.938-.059.059-.02.039H11.3l-.02.039-.117.137-.039.078H11.1l-.02.02-.02.039-.1.156-.117.137-.7,1.212A12.513,12.513,0,0,0,9.6,8.974a13.589,13.589,0,0,0-.626,2.483A15.959,15.959,0,0,0,8.8,13.744v.88l.02.117.039.8.313,2.327.117.508q0,.059.039.02.059,0,.02-.039l-.117-2.718-.02-.117.02-.1v-.8l.02-.117v-.371l.02-.117.254-2.17.02-.059v-.078l.039-.137a14.351,14.351,0,0,1,.684-2.346l.528-1.173.88-1.369.02-.039h.02l.02-.02.039-.078.176-.2.039-.059,1.232-1.408A18.254,18.254,0,0,1,15.23,3.069l.528-.411L17.83,1.427l.156-.059.274-.137H18.3l.039-.02.059-.02.352-.156h.039l.039-.02.43-.156h.02l.039-.02.626-.176.137-.02.137-.039.528-.059h.137l.137-.02h.137l.117.02a2.008,2.008,0,0,1,.489.059,1.764,1.764,0,0,1,.469.117l.43.156a4.667,4.667,0,0,1,.7.469,4.177,4.177,0,0,1,.547.528l.411.528.469.8.059.137.059.078.039.078q0,.059.039.02.059,0,.02-.039l-.02-.078-.039-.1a.269.269,0,0,0-.059-.137L24.751,2.8,24.5,2.287a6.149,6.149,0,0,0-.371-.567,2.693,2.693,0,0,0-.528-.626A3.129,3.129,0,0,0,22.855.528Z" fill="#380a00"/>
              </g>
            </g>
            <g id="Group_102057" data-name="Group 102057" transform="translate(16.043 3.281)">
              <g id="Group_102056" data-name="Group 102056" transform="translate(0 0)">
                <path id="Path_74584" data-name="Path 74584" d="M8.941,1.378l-.02-.039-.2-.137L7.885.733,7.67.635,7.592.616,7.338.5,5.754.068h-.1L5.207.01q-.469-.02-.938,0L3.33.127,3.1.186,2.255.479l-.1.059L2.02.6,1.962.635,1.688.772a4.659,4.659,0,0,0-.606.43l-.039.02L1,1.261.945,1.3l-.684.665L.007,2.3q-.02.02.02.059H.065l.528-.332,1.545-.782.1-.02.078-.039.1-.02.274-.1.1-.02.1-.039L3.487.87h.1l.723-.1H5.363l.1.02h.215l.1.02L6.185.85l.1.02h.1l.176.039.2.02.45.1h.078L8.9,1.4Q8.941,1.437,8.941,1.378Z" fill="#380a00"/>
              </g>
            </g>
          </g>
          <g id="Group_102073" data-name="Group 102073" transform="translate(44.737 14.684) rotate(1.74)">
            <g id="Group_102060" data-name="Group 102060" transform="translate(0.108 0)">
              <g id="Group_102059" data-name="Group 102059" transform="translate(0 0)">
                <path id="Path_74585" data-name="Path 74585" d="M19.207,2.287A17.451,17.451,0,0,0,11.153,0,11.086,11.086,0,0,0,4.1,2.932,11.164,11.164,0,0,0,.479,9.462a31.3,31.3,0,0,0-.235,9.364q.7-.9,1.368-1.8a21.259,21.259,0,0,1,5.572-5.278,7.9,7.9,0,0,1,3.011-1.173q4.242.039,5.239,4.3a66.919,66.919,0,0,1,1.212,6.862,9.345,9.345,0,0,0,4.105,6.334,16.129,16.129,0,0,1,5.454,8.308,27.506,27.506,0,0,1,1.544,8.68,35.453,35.453,0,0,1-.2,4.008,24.771,24.771,0,0,0,4.516-4.027,31.261,31.261,0,0,0,3.5-5.767,20.318,20.318,0,0,0,2.111-8.582,22.814,22.814,0,0,0-1.427-8.7,13.415,13.415,0,0,0-5.415-6.725,15.691,15.691,0,0,1-5.669-6.49A14.089,14.089,0,0,0,19.207,2.287Z" transform="translate(0)" fill="#540e00"/>
              </g>
            </g>
            <g id="Group_102062" data-name="Group 102062" transform="translate(5.444 2.428)">
              <g id="Group_102061" data-name="Group 102061" transform="translate(0 0)">
                <path id="Path_74586" data-name="Path 74586" d="M11.25,7.62l-.039-.078-.9-1.017L9.9,6.174l-.137-.1-.059-.059-.078-.059a6.676,6.676,0,0,0-1.173-.723L8.3,5.157,8.24,5.118l-.078-.039L8.005,5.02,7.966,5l-.02-.02h-.02l-.078-.039-.606-.235a7.945,7.945,0,0,0-1.251-.293,6.477,6.477,0,0,0-1.232,0l-.841.156-.2.059-.039.02H3.646l-.117.039-.059.039H3.431l-.02.02-.137.039-.059.039-.293.117-.215.117a7.773,7.773,0,0,0-.782.508l-.411.313-.059.078L1.3,6.076l-.117.137L1.1,6.271.42,7.014.4,7.053l-.078.078L.01,7.542q-.02.039,0,.059.039.039.059,0L.3,7.347l.977-.9.078-.039.586-.45.176-.1a7.028,7.028,0,0,1,.782-.43,7.564,7.564,0,0,1,.9-.313,4.866,4.866,0,0,1,2.092-.1l.137.039.156.02.137.039.137.02,1.192.469h.02l1,.567.586.43.059.039.8.782a6.036,6.036,0,0,1,1.31,2.229,5.958,5.958,0,0,1,.176.626l.176.821v.078l.02.078.059.665V12.1l.606,5.356.039.137.02.156.586,2.092.039.059.039.117.254.567a5.276,5.276,0,0,0,.489.8l.078.078.059.1.391.43a5.722,5.722,0,0,0,.547.45l.352.235.215.1.059.039.117.059.1.02a.269.269,0,0,0,.137.059l.1.039.078.02q.039.039.039-.02.039-.039-.02-.039l-.078-.039-.078-.059-.137-.059a5.418,5.418,0,0,1-.762-.528l-.45-.45a5.632,5.632,0,0,1-.45-.626,5.447,5.447,0,0,1-.391-.782l-.274-.723v-.059l-.117-.371-.43-2.209-.489-6.236L12.169,9.4l-.137-.332-.02-.1-.45-.9L11.5,7.992l-.039-.078-.1-.156L11.25,7.62m1.8-6.451L12.267.778,12.208.739,10.8.152l-.45-.137q-.039-.039-.039.02-.039.039.02.039L13.42,2.029l.059.059.508.411A14.975,14.975,0,0,1,15.1,3.613l.254.293.059.1.078.078.176.235.059.1.137.176.02.039.039.039L17,6.428l.293.586.078.2.059.1.684,1.916v.059l.039.117.117.254a4.321,4.321,0,0,0,.411.782,4.907,4.907,0,0,0,.508.665,5.253,5.253,0,0,0,.547.547,4.071,4.071,0,0,0,.547.469l.117.117a.385.385,0,0,1,.137.1l.274.176.059.059,1.8,1.017.215.078q.039.039.039-.02a.024.024,0,0,0,0-.039H22.9l-1.095-.821-.1-.059-1.114-.958-.938-1.056q-.332-.489-.411-.626l-.039-.078-.059-.078-.117-.254-.02-.059-.1-.215-.059-.2-.039-.078V9.086l-.02-.039v-.02l-.371-1.271a14.127,14.127,0,0,0-.743-1.681,13.275,13.275,0,0,0-.958-1.564l-.137-.176-.059-.1L16.49,4.2l-.02-.059-.137-.176-.078-.078-.059-.1-.586-.665a10.682,10.682,0,0,0-1.251-1.095,12.719,12.719,0,0,0-1.232-.8l-.078-.059M32.188,25.156l-.02.039-.176,2.4v.1l-.02.078L31.8,29.3v.1l-.723,3.636-.039.117-.02.137L29.9,36.553l-.176.391q-.469,1.036-1,1.994-.665,1.173-1.134,1.838l-.078.117-.039.039-.8,1.095-.059.1L23.625,45.33l-.1.117-.117.078-.977.88q-.02.039,0,.059h.059l2.4-1.779.078-.078.078-.059,1.955-1.935.078-.1a.212.212,0,0,0,.078-.1l.332-.391.1-.1,2.053-3.05.02-.059,1-2.111,1.251-4.183.391-3.069v-.117l.02-.117-.1-4.047Z" fill="#812511"/>
              </g>
            </g>
            <g id="Group_102064" data-name="Group 102064" transform="translate(0 0.039)">
              <g id="Group_102063" data-name="Group 102063" transform="translate(0 0)">
                <path id="Path_74587" data-name="Path 74587" d="M12.746.039,12.707.02,11.847,0,9.54.235,8.68.411q-.645.176-.919.274Q7.722.7,7.272.86L6.9,1l-.117.059a6.838,6.838,0,0,0-.977.489q-.215.117-.977.606a9.838,9.838,0,0,0-.919.762,9.318,9.318,0,0,0-.841.88L2.6,4.4l-.059.059L2.5,4.535l-.176.254A7.679,7.679,0,0,0,1.7,5.865,12.8,12.8,0,0,0,.762,8.152L.235,10.459,0,13.176l.293,5.2.059.293q0,.059.039.02.059,0,.02-.039l.2-5.943L.938,10.6q.1-.547.235-1.114l.313-1.095q.2-.586.411-1.095a11.653,11.653,0,0,1,.489-1.075,10.758,10.758,0,0,1,.586-1l.411-.606L4.418,3.441,5.689,2.4q.156-.1.45-.293l.117-.078.117-.059.1-.078,1.017-.508L9.227.743,9.423.7l.1-.039.86-.215L12.726.078Q12.785.078,12.746.039Z" fill="#812511"/>
              </g>
            </g>
            <g id="Group_102066" data-name="Group 102066" transform="translate(0.493 8.308)">
              <g id="Group_102065" data-name="Group 102065" transform="translate(0 0)">
                <path id="Path_74588" data-name="Path 74588" d="M9.223.059l-.841.2a6.433,6.433,0,0,0-.841.352L7.19.782l-1.017.665-.88.743L3.965,3.6l-.059.1L2.968,4.907q-.293.391-.9,1.349L.094,10.009l-.078.215q-.039.039.02.039.039.039.039-.02l.274-.391.078-.137L.837,9.11l.078-.1.137-.235,2.483-3.46L5.822,2.776,7.347,1.564l.176-.1.039-.039.313-.176L8.617.919Q8.832.841,9.341.7a6.158,6.158,0,0,1,.743-.1h.43l.1.02h.078l.078.02L11.1.684,11.569.8l.938.391,1.192.762.039.039.059.039.156.137q.039.039.059,0,.039-.02,0-.059l-.567-.606A7.366,7.366,0,0,0,12.683.9,4.333,4.333,0,0,0,11.569.313L10.865.1a5.755,5.755,0,0,0-.8-.1L9.223.059M18.7,8.6l-.02.117.02,3.734.1.762.117.489.039.1.02.1.039.1a4.913,4.913,0,0,0,.352.743,5.991,5.991,0,0,0,.489.684,5.023,5.023,0,0,0,.606.586l.156.117.078.078.332.235.078.039.528.313.86.391.176.059.469.215a4.6,4.6,0,0,1,.567.293l.528.313.45.352.665.743.117.2.215.508.137.489v.039l.02.039v.059l.02.059.039.02.039-.078v-.43l-.02-.078V19.9l-.1-.469a3.283,3.283,0,0,0-.176-.43,3,3,0,0,0-.254-.469l-.156-.235-.2-.215a2.992,2.992,0,0,0-.469-.45l-1.134-.782-1.368-.665-.078-.059-.156-.078-.078-.059-.078-.039-.215-.156-.078-.039L21.3,15.7l-.059-.059-.293-.215a5.713,5.713,0,0,1-.489-.508l-.43-.567-.313-.626-.02-.078-.039-.078-.176-.665-.547-5.689a.035.035,0,0,0-.039-.039l-.02.02L18.7,8.484V8.6M32.78,19.354l-.508-.626a5.228,5.228,0,0,0-.958-.88l-.841-.547L29.4,16.793l-.078-.02-.078-.039-1.505-.586L23.2,13.88l-.117-.078-.078-.02-.176-.117-.039-.02-.02-.02-.078-.039-.235-.156-.039-.039-.176-.117a6.141,6.141,0,0,1-.782-.762l-.039-.039-.489-.7-.02-.059-.039-.039q-.2-.371-.411-.9a9.341,9.341,0,0,1-.411-1.681l-.137-2.541q.039-.039-.02-.039l-.039.02L19.7,7.741a12.256,12.256,0,0,0,0,1.388l.176,1.31.039.117.02.137.078.235a6.357,6.357,0,0,0,.371,1,7.61,7.61,0,0,0,.606.958l.274.352.117.117.039.059.235.215.059.039.235.215.059.039.059.059.332.235.02.02,2.932,1.662.156.059.137.078,3.03,1.329.313.1.02.02.039.02.078.02.782.352.059.02.919.547a7.242,7.242,0,0,1,.88.762l.293.313.156.235.078.078v.02l.176.254.059.117.078.117.332.723a6.537,6.537,0,0,1,.254,1,3.923,3.923,0,0,1,0,.958v.117l-.02.117V23.3l-.02.059-.684,2.678-.059.117-.039.137-.332.86q-.039.039.02.039.039.039.039-.02l.391-.7,1.036-2.678.02-.117.039-.117.02-.1.02-.059v-.039l.02-.039.039-.254a3.59,3.59,0,0,0,.039-1.056v-.156l-.02-.137V21.66l-.02-.078-.02-.137-.02-.039v-.039l-.02-.078-.02-.137-.039-.137-.059-.137-.059-.215-.039-.078-.039-.137-.274-.567-.156-.254-.059-.137h-.02v-.02l-.02-.02-.02-.039Z" transform="translate(0)" fill="#380a00"/>
              </g>
            </g>
            <g id="Group_102068" data-name="Group 102068" transform="translate(0.414 6.881)">
              <g id="Group_102067" data-name="Group 102067" transform="translate(0 0)">
                <path id="Path_74589" data-name="Path 74589" d="M6.623,0,6.506.1,5.88.528,4.649,1.623l-.078.1-.586.606-1.31,1.72L1.482,6.2l-.059.156-.078.137-.919,2.7-.059.235L.035,11.378l-.02.45q-.039.039.02.039l.039-.02,1.232-3.4L3.4,4.32,5.274,1.681,6.682.059V0Z" transform="translate(0)" fill="#380a00"/>
              </g>
            </g>
            <g id="Group_102070" data-name="Group 102070" transform="translate(10.85 9.935)">
              <g id="Group_102069" data-name="Group 102069" transform="translate(0 0)">
                <path id="Path_74590" data-name="Path 74590" d="M5.865,6.936,5.513,4.962a4.458,4.458,0,0,0-.235-.782L4.594,2.753a6.883,6.883,0,0,0-.43-.645l-.1-.156-.039-.039-.02-.039-.059-.059L3.89,1.736l-.7-.665L2.58.661,2.541.641l-.02-.02L2.444.583l-.02-.02L2.307.5,2.248.485,2.111.407,1.6.231A4.351,4.351,0,0,0,.762.074L.235.016h-.2Q0-.023,0,.035L.02.074l.7.215a1.859,1.859,0,0,1,.352.117l.411.156A3.03,3.03,0,0,1,1.935.8L2.15.934l.02.02h.02l.02.02.059.039.02.02.039.02.039.039.45.391a5.11,5.11,0,0,1,.43.45l.1.137.059.059.039.078.059.059.762,1.388.02.1.156.332.235.7.489,2.58v.039l.02.059.567,3.558.02.039V11.1l.274,1.349.039.117v.078H6.1V12.7a5.227,5.227,0,0,0,.274.8l.293.626.039.039q0,.059.039.02.059,0,.02-.039v-.059l-.059-.137-.254-1.192v-.156h-.02V12.39L6.314,11.1l-.02-.078v-.078l-.156-1.7V9.067l-.215-1.74V7.288L5.9,7.229l-.02-.1Z" transform="translate(0)" fill="#380a00"/>
              </g>
            </g>
            <g id="Group_102072" data-name="Group 102072" transform="translate(21.172 28.144)">
              <g id="Group_102071" data-name="Group 102071" transform="translate(0 0)">
                <path id="Path_74591" data-name="Path 74591" d="M0,.026V.065L1.114,1.16a.839.839,0,0,1,.156.2l.2.176.547.665.059.059.039.059.508.626q.723,1.036.782,1.153L4.34,5.734l.7,1.583,1.095,3.714L6.764,14.9l.039.02.02-.039.059-1.114.02-.1-.059-1.759-.059-.469v-.176l-.1-.684L6.1,8q-.215-.684-.567-1.525-.352-.782-.7-1.447l-.411-.684-.039-.078L4.2,4.034l-.1-.176L3.988,3.7q-.274-.391-.9-1.134L1.544,1.062a.839.839,0,0,1-.2-.156L.059.007Q.039-.013,0,.026Z" transform="translate(0 0)" fill="#380a00"/>
              </g>
            </g>
          </g>
          <g id="Group_102076" data-name="Group 102076" transform="translate(32.623 78.526)">
            <g id="Group_102075" data-name="Group 102075" transform="translate(0 0)">
              <g id="Group_102074" data-name="Group 102074">
                <path id="Path_74592" data-name="Path 74592" d="M6.013,2.988,3.038.012a.031.031,0,0,0-.05,0L.012,2.988a.031.031,0,0,0,0,.05L2.988,6.013a.031.031,0,0,0,.05,0L6.013,3.038a.031.031,0,0,0,0-.05m-3,2.926.025.025h-.05l.025-.025-2.9-2.9-.025.025v-.05l.025.025,2.9-2.9,2.9,2.9-2.9,2.9m.05-3.645-.05-.05-.05.05v.694H2.269l-.05.05.05.05h.694v.694l.05.05.05-.05V3.062h.694l.05-.05-.05-.05H3.062Z" fill="rgba(0,0,0,0)"/>
              </g>
            </g>
          </g>
        </g>
        <g id="Group_102097" data-name="Group 102097" transform="translate(34.843 114.309) rotate(14.093)">
          <g id="Group_102079" data-name="Group 102079" transform="translate(0.347 55.238)">
            <g id="Group_102078" data-name="Group 102078" transform="translate(0 0)">
              <path id="Path_74593" data-name="Path 74593" d="M0,26.33l18.4,4.512L24.049,5.975,7.587,0Z" fill="#e2ad98"/>
            </g>
          </g>
          <g id="Group_102081" data-name="Group 102081" transform="translate(0.198 73.982)">
            <g id="Group_102080" data-name="Group 102080" transform="translate(0 0)">
              <path id="Path_74594" data-name="Path 74594" d="M18.892,9.446a9.123,9.123,0,0,0-2.777-6.694A9.083,9.083,0,0,0,9.446,0,9.165,9.165,0,0,0,2.752,2.752,9.165,9.165,0,0,0,0,9.446a9.083,9.083,0,0,0,2.752,6.669,9.123,9.123,0,0,0,6.694,2.777,9.042,9.042,0,0,0,6.669-2.777A9.042,9.042,0,0,0,18.892,9.446Z" transform="translate(0 0)" fill="#e2ad98"/>
            </g>
          </g>
          <g id="Group_102084" data-name="Group 102084" transform="translate(6.421 52.015)">
            <g id="Group_102083" data-name="Group 102083" transform="translate(0 0)">
              <g id="Group_102082" data-name="Group 102082" transform="translate(0 0)">
                <path id="Path_74595" data-name="Path 74595" d="M1.785,0,0,8.677a35.087,35.087,0,0,0,16.958,4.81l1.711-5.876Z" fill="#c18770"/>
              </g>
            </g>
          </g>
          <g id="Group_102086" data-name="Group 102086" transform="translate(0.05 6.496)">
            <g id="Group_102085" data-name="Group 102085" transform="translate(0 0)">
              <path id="Path_74596" data-name="Path 74596" d="M45.768,13.264,22.214,0A277.407,277.407,0,0,0,0,48.024a58.724,58.724,0,0,0,34.636,8.454A100.428,100.428,0,0,1,45.768,13.264Z" fill="#7a2230"/>
            </g>
          </g>
          <g id="Group_102088" data-name="Group 102088" transform="translate(20.405 0)">
            <g id="Group_102087" data-name="Group 102087" transform="translate(0 0)">
              <path id="Path_74597" data-name="Path 74597" d="M26.925,13.487a13.054,13.054,0,0,0-3.942-9.545A12.972,12.972,0,0,0,13.463,0,13.054,13.054,0,0,0,3.917,3.942,13.1,13.1,0,0,0,0,13.487a12.931,12.931,0,0,0,3.917,9.5,13.013,13.013,0,0,0,9.545,3.967,12.931,12.931,0,0,0,9.52-3.967A12.89,12.89,0,0,0,26.925,13.487Z" fill="#7a2230"/>
            </g>
          </g>
          <g id="Group_102091" data-name="Group 102091" transform="translate(0 16.815)">
            <g id="Group_102090" data-name="Group 102090" transform="translate(0 0)">
              <g id="Group_102089" data-name="Group 102089" transform="translate(0 0)">
                <path id="Path_74598" data-name="Path 74598" d="M16.562.02q-.05-.05-.05.025Q15.595,1.681,15.3,2.276L13.413,5.921,5.727,22.879,0,37.655l2.008,1.438.5.273.149.1,1.934,1.017.174.074.149.1,6.074,2.281q.05.05.05-.025.05-.05-.025-.05l-7.636-4.81-.124-.124-.421-.3L2.7,37.507l-.521-.421L10.834,16.8,15.867,2.5q.273-.793.719-2.43Q16.636.02,16.562.02Z" fill="#4b0f18"/>
              </g>
            </g>
          </g>
          <g id="Group_102093" data-name="Group 102093" transform="translate(38.558 16.591)">
            <g id="Group_102092" data-name="Group 102092" transform="translate(0 0)">
              <path id="Path_74599" data-name="Path 74599" d="M8.375.02q-.05-.05-.05.025L4.086,7.557l-.05.149L3.045,9.863,1.483,14.177.417,18.466l-.4,2.479q-.05.05.025.05l.05-.025L2.97,12.714,7.631,2.45,8.4.069Q8.449.02,8.375.02Z" fill="#4b0f18"/>
            </g>
          </g>
          <g id="Group_102096" data-name="Group 102096" transform="translate(30.855 10.45)">
            <g id="Group_102095" data-name="Group 102095" transform="translate(0 0)">
              <g id="Group_102094" data-name="Group 102094">
                <path id="Path_74600" data-name="Path 74600" d="M6.012,2.988,3.037.012a.031.031,0,0,0-.05,0L.012,2.988a.031.031,0,0,0,0,.05L2.988,6.012a.031.031,0,0,0,.05,0L6.012,3.037a.031.031,0,0,0,0-.05m-3,2.926.025.025h-.05l.025-.025-2.9-2.9-.025.025v-.05l.025.025,2.9-2.9,2.9,2.9-2.9,2.9m.05-3.645-.05-.05-.05.05v.694H2.269l-.05.05.05.05h.694v.694l.05.05.05-.05V3.062h.694l.05-.05-.05-.05H3.062Z" fill="rgba(0,0,0,0)"/>
              </g>
            </g>
          </g>
        </g>
        <g id="Group_102105" data-name="Group 102105" transform="translate(0 198.557) rotate(-10.03)">
          <g id="Group_102099" data-name="Group 102099" transform="translate(0 0.26)">
            <g id="Group_102098" data-name="Group 102098" transform="translate(0 0)">
              <path id="Path_74601" data-name="Path 74601" d="M0,61.413l8.554,3.645A116.028,116.028,0,0,1,21.1,40.438q8.554-13.264,11.008-23.281a49.753,49.753,0,0,0,.669-12.769L14.355,0A186.229,186.229,0,0,0,8.727,20.479Z" fill="#e2ad98"/>
            </g>
          </g>
          <g id="Group_102101" data-name="Group 102101" transform="translate(1.443 7.877)">
            <g id="Group_102100" data-name="Group 102100" transform="translate(0 0)">
              <path id="Path_74602" data-name="Path 74602" d="M10.458.045,7.507,9.367,4.309,26.5.516,44.524v.05l-.025.074-.471,2.4q-.05.05.025.05.05.05.05-.025l.769-2.207L.937,44.7v-.074l1.215-3.942L6.367,23.772q.347-2.157.372-2.256l.942-6.521L10.532.069q.05-.05-.025-.05Q10.458-.03,10.458.045Z" fill="#c18770"/>
            </g>
          </g>
          <g id="Group_102104" data-name="Group 102104" transform="translate(20.467 0)">
            <g id="Group_102103" data-name="Group 102103" transform="translate(0 0)">
              <g id="Group_102102" data-name="Group 102102">
                <path id="Path_74603" data-name="Path 74603" d="M6.012,2.988,3.037.012a.031.031,0,0,0-.05,0L.012,2.988a.031.031,0,0,0,0,.05L2.988,6.012a.031.031,0,0,0,.05,0L6.012,3.037a.031.031,0,0,0,0-.05m-3,2.926.025.025h-.05l.025-.025-2.9-2.9-.025.025v-.05l.025.025,2.9-2.9,2.9,2.9-2.9,2.9m.05-3.645-.05-.05-.05.05v.694H2.269l-.05.05.05.05h.694v.694l.05.05.05-.05V3.062h.694l.05-.05-.05-.05H3.062Z" fill="rgba(0,0,0,0)"/>
              </g>
            </g>
          </g>
        </g>
        <g id="Group_102111" data-name="Group 102111" transform="translate(0.346 256.742) rotate(-5.846)">
          <g id="Group_102107" data-name="Group 102107" transform="translate(0 0)">
            <g id="Group_102106" data-name="Group 102106" transform="translate(0)">
              <path id="Path_74604" data-name="Path 74604" d="M4.116,17.01q0,.1.2,1.513l.5-.471a3.92,3.92,0,0,0,.868-2.083q-.6-6.893-.521-14.332A50.3,50.3,0,0,0,4.116,17.01M10.464.57q-.149.62-.248,1.289a51.971,51.971,0,0,0-.3,15.1,24.859,24.859,0,0,0,.471,3.223,4.177,4.177,0,0,0,1.438-2.678,2.3,2.3,0,0,0-.1-.546,70.173,70.173,0,0,1-1.289-15q.025-.669.025-1.389M0,8.753a8.468,8.468,0,0,1,.818,1.612q0-1.19,0-4.042A21.461,21.461,0,0,1,1.959,0,13.634,13.634,0,0,0,.917,3.025q-.2.645-.446,1.364A16.815,16.815,0,0,0,0,8.753Z" transform="translate(0.846 16.464)" fill="#c18770"/>
              <path id="Path_74605" data-name="Path 74605" d="M14.385.05l-.025.1h-.1a8.353,8.353,0,0,0-5.976,4.86q-1.513,2.306-3.4,5.8-.422.694-.843,1.314a4.769,4.769,0,0,0-.422.645q-.645.942-1.19,1.785A18.287,18.287,0,0,0,.1,19.613q-.4,1.637.744,5.6a16.815,16.815,0,0,1,.471-4.364q.248-.719.446-1.364a13.634,13.634,0,0,1,1.041-3.025,21.461,21.461,0,0,0-1.141,6.323q0,2.852,0,4.042l.074,1.76a9.135,9.135,0,0,0,.248,1.24q.372,1.785.694,3.645l.025.1q1.364,2.405,2.455,1.413-.2-1.413-.2-1.513A50.3,50.3,0,0,1,6,18.1q-.074,7.439.521,14.332A7.355,7.355,0,0,0,6.6,33.474q.2,1.884.645,4.215,2.728,1.81,3.992-1.041a24.86,24.86,0,0,1-.471-3.223,51.971,51.971,0,0,1,.3-15.1q.1-.669.248-1.289,0,.719-.025,1.389a70.173,70.173,0,0,0,1.289,15,2.3,2.3,0,0,1,.1.546q.273.942.744,2.5,3.868-.5,4.786-3.124a7.889,7.889,0,0,0-.149-4.166q-1.562-8.579-.025-12.3,1.513-.322,1.314,3.695-.3,4.538,1.488,5.8a3.848,3.848,0,0,0,4.736.124q-1.661-7.612-.893-11.381.719-3.794.719-3.868a14.168,14.168,0,0,0-.769-1.785,48.078,48.078,0,0,0-2.5-4.662A13.966,13.966,0,0,0,21.08,3.447,8.117,8.117,0,0,0,17.931.769a1.938,1.938,0,0,0-.4-.149A5.254,5.254,0,0,0,15.129,0,5.622,5.622,0,0,0,14.385.05Z" fill="#e2ad98"/>
            </g>
          </g>
          <g id="Group_102110" data-name="Group 102110" transform="translate(11.521 1.5)">
            <g id="Group_102109" data-name="Group 102109" transform="translate(0 0)">
              <g id="Group_102108" data-name="Group 102108">
                <path id="Path_74606" data-name="Path 74606" d="M6.013,2.988,3.037.012a.031.031,0,0,0-.05,0L.012,2.988a.031.031,0,0,0,0,.05L2.988,6.013a.031.031,0,0,0,.05,0L6.013,3.037a.031.031,0,0,0,0-.05m-3,2.926.025.025h-.05l.025-.025-2.9-2.9-.025.025v-.05l.025.025,2.9-2.9,2.9,2.9-2.9,2.9m.05-3.645-.05-.05-.05.05v.694H2.269l-.05.05.05.05h.694v.694l.05.05.05-.05V3.062h.694l.05-.05-.05-.05H3.062Z" fill="rgba(0,0,0,0)"/>
              </g>
            </g>
          </g>
        </g>
      </g>
    </g>
  </g>
</svg>
