<svg xmlns="http://www.w3.org/2000/svg" xmlns:xlink="http://www.w3.org/1999/xlink" width="375" height="270" viewBox="0 0 375 270">
  <defs>
    <clipPath id="clip-path">
      <rect id="Rectangle_8646" data-name="Rectangle 8646" width="375" height="270" transform="translate(14792 -11926)" fill="#fff" stroke="#707070" stroke-width="1" opacity="0.59"/>
    </clipPath>
    <clipPath id="clip-path-2">
      <path id="Path_74501" data-name="Path 74501" d="M0,0H189V218s-17.182,21.881-29.105,21.881S141.3,219,141.3,219H0Z" transform="translate(87 117)" fill="#fff"/>
    </clipPath>
  </defs>
  <g id="Mask_Group_16581" data-name="Mask Group 16581" transform="translate(-14792 11926)" clip-path="url(#clip-path)">
    <g id="Mask_Group_16572" data-name="Mask Group 16572" transform="translate(14798 -12027.75)" clip-path="url(#clip-path-2)">
      <g id="female_teen_2" data-name="female teen 2" transform="translate(380.391 947.808)">
        <g id="Group_101644" data-name="Group 101644" transform="translate(-124.782 -609.176) rotate(164.55)">
          <g id="Group_101630" data-name="Group 101630" transform="translate(0.16 7.289)">
            <g id="Group_101629" data-name="Group 101629" transform="translate(0 0)">
              <path id="Path_74397" data-name="Path 74397" d="M0,4.842,19.739,0,25.8,26.683,8.14,33.094Z" fill="#e2ad98"/>
            </g>
          </g>
          <g id="Group_101632" data-name="Group 101632" transform="translate(0 0)">
            <g id="Group_101631" data-name="Group 101631">
              <path id="Path_74398" data-name="Path 74398" d="M20.271,10.136a9.789,9.789,0,0,1-2.979,7.183,9.746,9.746,0,0,1-7.156,2.953,9.834,9.834,0,0,1-7.183-2.953A9.834,9.834,0,0,1,0,10.136,9.745,9.745,0,0,1,2.953,2.98,9.789,9.789,0,0,1,10.136,0a9.7,9.7,0,0,1,7.156,2.98A9.7,9.7,0,0,1,20.271,10.136Z" fill="#e2ad98"/>
            </g>
          </g>
          <g id="Group_101635" data-name="Group 101635" transform="translate(6.624 29.777)">
            <g id="Group_101634" data-name="Group 101634" transform="translate(0 0)">
              <g id="Group_101633" data-name="Group 101633" transform="translate(0 0)">
                <path id="Path_74399" data-name="Path 74399" d="M2.66,16.619,0,4.674Q9.6-.294,18.382.018l2.5,10.109Z" fill="#c18770"/>
              </g>
            </g>
          </g>
          <g id="Group_101637" data-name="Group 101637" transform="translate(1.383 31.333)">
            <g id="Group_101636" data-name="Group 101636" transform="translate(0 0)">
              <path id="Path_74400" data-name="Path 74400" d="M44.959,64.091a13.919,13.919,0,0,1-10.215,4.23A14.007,14.007,0,0,1,24.5,64.091a14.227,14.227,0,0,1-3.7-6.252h-.027Q14.272,36.2,0,8.784,15.775-.527,37.4.032A288.424,288.424,0,0,1,49.162,52.519h-.027q.053.656.053,1.33A14.007,14.007,0,0,1,44.959,64.091Z" fill="#7a2230"/>
            </g>
          </g>
          <g id="Group_101640" data-name="Group 101640" transform="translate(17.318 31.232)">
            <g id="Group_101639" data-name="Group 101639" transform="translate(0 0)">
              <g id="Group_101638" data-name="Group 101638">
                <path id="Path_74401" data-name="Path 74401" d="M30.779,37.164q.053.053-.027.053l-.053-.027L26.683,26.2,19.606,2.341l-4.1-.16L.053,2.341A.047.047,0,0,1,0,2.288l.027-.027,5.108-.984L15.43,0l6.119.053L26.683,18.3Z" fill="#4b0f18"/>
              </g>
            </g>
          </g>
          <g id="Group_101643" data-name="Group 101643" transform="translate(32.894 81.976)">
            <g id="Group_101642" data-name="Group 101642" transform="translate(0 0)">
              <g id="Group_101641" data-name="Group 101641">
                <path id="Path_74402" data-name="Path 74402" d="M3.206,6.451.013,3.259a.033.033,0,0,1,0-.053L3.206.013a.033.033,0,0,1,.053,0L6.451,3.206a.033.033,0,0,1,0,.053L3.259,6.451a.033.033,0,0,1-.053,0M6.345,3.232,3.232.12,3.259.093H3.206L3.232.12.12,3.232.093,3.206v.053L.12,3.232,3.232,6.345,6.345,3.232m-3.166.053H2.434l-.053-.053.053-.053h.745V2.434l.053-.053.053.053v.745H4.03l.053.053-.053.053H3.285V4.03l-.053.053L3.179,4.03Z" fill="rgba(0,0,0,0)"/>
              </g>
            </g>
          </g>
        </g>
        <g id="Group_101651" data-name="Group 101651" transform="matrix(0.881, 0.473, -0.473, 0.881, -128.12, -687.568)">
          <g id="Group_101646" data-name="Group 101646" transform="translate(0 0)">
            <g id="Group_101645" data-name="Group 101645" transform="translate(0 0)">
              <path id="Path_74403" data-name="Path 74403" d="M0,3.911,9.179,0A124.509,124.509,0,0,0,22.641,26.419Q31.82,40.653,34.454,51.4a53.39,53.39,0,0,1,.718,13.7L15.4,69.813A199.841,199.841,0,0,1,9.365,47.837Z" fill="#e2ad98"/>
            </g>
          </g>
          <g id="Group_101648" data-name="Group 101648" transform="translate(1.548 11.073)">
            <g id="Group_101647" data-name="Group 101647" transform="translate(0 0)">
              <path id="Path_74404" data-name="Path 74404" d="M11.222,50.518l-3.166-10L4.624,22.13.553,2.788V2.735l-.027-.08L.021.074Q-.032.021.048.021.1-.032.1.048L.926,2.416l.08.186v.08l1.3,4.23L6.832,25.057q.372,2.315.4,2.421l1.011,7L11.3,50.492q.053.053-.027.053Q11.222,50.6,11.222,50.518Z" fill="#c18770"/>
            </g>
          </g>
          <g id="Group_101650" data-name="Group 101650" transform="translate(22.003 63.667)">
            <g id="Group_101649" data-name="Group 101649" transform="translate(0 0)">
              <path id="Path_74405" data-name="Path 74405" d="M3.193,3.991v-.8h.8m-.8,0v-.8m3.193.8L3.193,0,0,3.193,3.193,6.385Zm-3.991,0h.8" fill="none" stroke="rgba(0,0,0,0)" stroke-linecap="round" stroke-linejoin="round" stroke-width="0.078"/>
            </g>
          </g>
        </g>
        <g id="Group_101656" data-name="Group 101656" transform="translate(-129.44 -717.953) rotate(8.378)">
          <g id="Group_101653" data-name="Group 101653" transform="translate(0 0)">
            <g id="Group_101652" data-name="Group 101652">
              <path id="Path_74406" data-name="Path 74406" d="M.7,9.4q.053-.585.08-1.171A9.336,9.336,0,0,1,1.44,5.413,33.951,33.951,0,0,1,3.808.836,1.484,1.484,0,0,1,5.352.011,2.337,2.337,0,0,1,6.975,1a4.4,4.4,0,0,1,.8,2.714A9.253,9.253,0,0,1,6.736,7.834,3.889,3.889,0,0,0,6.23,9.4a8.089,8.089,0,0,0,.053,1.836q.213,1.2.718,3.832A12.911,12.911,0,0,1,.668,18.106Q.535,12.438.615,10.815.668,10.1.7,9.4m15.833,5.615a2.8,2.8,0,0,1,1.224,1.7q.16,2.528-.985,3.459a14.651,14.651,0,0,0-6.466-6.6q2.9-1.357,6.227,1.437m2.528,13.917-.239.878Q16.1,40.06,7.906,38.835-2.205,38.756.615,20.022l6.6-3.113,3.007-1.41A12.2,12.2,0,0,1,15.57,20.82q-.612,4.95-9.42-.985,5.641,9.207,3.859,15.195Q13.042,26.036,8.678,22.2a11.546,11.546,0,0,0,3.646,1.916q1.916,3.326,4.55,3.14l.426-.133-.186.16A3.9,3.9,0,0,0,18.5,28.7q.239.106.559.239m4.444-4.55a.236.236,0,0,1-.027.106,18.911,18.911,0,0,1-1.038,1.6,5.553,5.553,0,0,1-1.57,1.384,2.25,2.25,0,0,1-1.038.346h-.559a12.79,12.79,0,0,1-1.41-.4.687.687,0,0,1-.266-.239.334.334,0,0,1-.08-.133q.266-.106.559-.213.106-.053.239-.106a5.2,5.2,0,0,0,1.038-.532.811.811,0,0,1,.266-.186,10.854,10.854,0,0,0,1.437-1.3,6.117,6.117,0,0,0,1.064-1.676,4.04,4.04,0,0,0,.106-.692v-.718a4.419,4.419,0,0,0-.08-.985,1.071,1.071,0,0,1-.027-.293,1.9,1.9,0,0,0-.373-.266,3.466,3.466,0,0,1,.027,1.543,6.04,6.04,0,0,1-.585,1.73q-.319.559-.639,1.038-.293.373-.612.718a2.746,2.746,0,0,1-.692.452,3.251,3.251,0,0,1-.8.239,3.768,3.768,0,0,1-.772.186,3.459,3.459,0,0,1-1.251-.186,6.88,6.88,0,0,1-2.714-1.543A2.818,2.818,0,0,0,16.422,22.5l.239-.745.319-.133q2-.958.772-4.9,3.406,1.171,3.965,3.3.559.266.692.319a1.791,1.791,0,0,1,.373.293l.213.266q.133.266.293.559l.053.16a3.657,3.657,0,0,1,.266,1.73Q23.553,23.88,23.5,24.386Z" fill="#e2ad98"/>
              <path id="Path_74407" data-name="Path 74407" d="M6.386,1.49q.106.9.213,1.836L0,6.44A18.952,18.952,0,0,0,.053,4.524,12.911,12.911,0,0,0,6.386,1.49m16.472,9.42a15.886,15.886,0,0,1-.452,1.57,4.141,4.141,0,0,1-.985,1.65,5.255,5.255,0,0,1-2.262,1.384l-.718-.16q-.319-.133-.559-.239A3.9,3.9,0,0,1,16.5,13.7l.186-.16-.426.133q-2.634.186-4.55-3.14A11.546,11.546,0,0,1,8.063,8.622q4.364,3.832,1.331,12.826,1.783-5.987-3.859-15.195,8.808,5.934,9.42.985A12.2,12.2,0,0,0,9.606,1.916L6.6,3.326A6.558,6.558,0,0,1,9.686,0a14.651,14.651,0,0,1,6.466,6.6q1.144-.931.985-3.459,1.224,3.938-.772,4.9l-.319.133-.239.745a2.818,2.818,0,0,1-2.714,1.756,6.88,6.88,0,0,0,2.714,1.543,3.459,3.459,0,0,0,1.251.186,3.768,3.768,0,0,0,.772-.186,3.251,3.251,0,0,0,.8-.239,2.745,2.745,0,0,0,.692-.452q.319-.346.612-.718.319-.479.639-1.038a6.04,6.04,0,0,0,.585-1.73,3.466,3.466,0,0,0-.027-1.543,1.9,1.9,0,0,1,.373.266,1.071,1.071,0,0,0,.027.293,4.419,4.419,0,0,1,.08.985v.718a4.04,4.04,0,0,1-.106.692,6.117,6.117,0,0,1-1.064,1.676A10.853,10.853,0,0,1,19,12.427a.811.811,0,0,0-.266.186,5.2,5.2,0,0,1-1.038.532q-.133.053-.239.106-.293.106-.559.213a.334.334,0,0,0,.08.133.687.687,0,0,0,.266.239,12.789,12.789,0,0,0,1.41.4h.559a2.25,2.25,0,0,0,1.038-.346,5.553,5.553,0,0,0,1.57-1.384A18.911,18.911,0,0,0,22.858,10.91Z" transform="translate(0.615 13.582)" fill="#c18770"/>
            </g>
          </g>
          <g id="Group_101655" data-name="Group 101655" transform="translate(6.177 30.906)">
            <g id="Group_101654" data-name="Group 101654" transform="translate(0 0)">
              <path id="Path_74408" data-name="Path 74408" d="M3.193,3.992v-.8h.8m-.8,0v-.8m3.193.8L3.193,0,0,3.193,3.193,6.386Zm-3.992,0h.8" transform="translate(0 0)" fill="none" stroke="rgba(0,0,0,0)" stroke-linecap="round" stroke-linejoin="round" stroke-width="0.078"/>
            </g>
          </g>
        </g>
        <g id="Group_101665" data-name="Group 101665" transform="matrix(0.999, -0.051, 0.051, 0.999, -244.48, -651.156)">
          <g id="Group_101658" data-name="Group 101658" transform="translate(0.053 3.779)">
            <g id="Group_101657" data-name="Group 101657" transform="translate(0 0)">
              <path id="Path_74409" data-name="Path 74409" d="M78.849,30.044h-.08A34,34,0,0,0,68.737,10.405,34.23,34.23,0,0,0,43.616,0,34.173,34.173,0,0,0,18.495,10.405,34.006,34.006,0,0,0,8.116,34.754H8.063L0,102.746q52.664,20.384,87.6-4.178Z" transform="translate(0)" fill="#ece7de"/>
            </g>
          </g>
          <g id="Group_101661" data-name="Group 101661" transform="translate(0 0)">
            <g id="Group_101660" data-name="Group 101660" transform="translate(0 0)">
              <g id="Group_101659" data-name="Group 101659">
                <path id="Path_74410" data-name="Path 74410" d="M57.135,6.041,52.584,0,27.676,1.543,14.849,18.149,9.979,27.6A74.612,74.612,0,0,0,7.771,39.917L0,106.472a133.295,133.295,0,0,0,36.271,9.1q-33.56-9.5-19.187-81.564,2.552-15.426,11.922-21.848A58.986,58.986,0,0,1,57.135,6.041Z" fill="#d8cdc7"/>
              </g>
            </g>
          </g>
          <g id="Group_101664" data-name="Group 101664" transform="translate(42.778 106.964)">
            <g id="Group_101663" data-name="Group 101663" transform="translate(0 0)">
              <g id="Group_101662" data-name="Group 101662">
                <path id="Path_74411" data-name="Path 74411" d="M3.207.013.013,3.207a.033.033,0,0,0,0,.053L3.207,6.453a.033.033,0,0,0,.053,0L6.453,3.26a.033.033,0,0,0,0-.053L3.26.013a.033.033,0,0,0-.053,0m3.14,3.22L3.233,6.347l.027.027H3.207l.027-.027L.12,3.233.093,3.26V3.207l.027.027L3.233.12,6.347,3.233M3.18,3.18H2.435l-.053.053.053.053H3.18v.745l.053.053.053-.053V3.287h.745l.053-.053L4.032,3.18H3.287V2.435l-.053-.053-.053.053Z" fill="rgba(0,0,0,0)"/>
              </g>
            </g>
          </g>
        </g>
        <g id="Group_101691" data-name="Group 101691" transform="matrix(0.988, -0.152, 0.152, 0.988, -259.849, -695.063)">
          <g id="Group_101667" data-name="Group 101667" transform="translate(27.901 0)">
            <g id="Group_101666" data-name="Group 101666" transform="translate(0 0)">
              <path id="Path_74412" data-name="Path 74412" d="M41.568,7.649a79.441,79.441,0,0,0-8.206-4.3A37.282,37.282,0,0,0,26.8,1.115Q23.816.461,20.908,0a19.713,19.713,0,0,0-5.762.823q-2.762.93-5.5,1.806l-.69.266A75.544,75.544,0,0,0,.035,7.117q-.159-.159.4,1.248.637,1.593,1.248,2.842A21.6,21.6,0,0,0,4.895,15.3a57.692,57.692,0,0,0,5.9,5.6q3.266,2.709,6.692,5.072a43.913,43.913,0,0,0,6.479,3.771,63.134,63.134,0,0,0,7.648,2.789q1.062-2.735,1.753-4.143a47.024,47.024,0,0,0,2.788-7.463q1.089-3.86,1.965-7.091A16.421,16.421,0,0,1,41.568,7.649Z" fill="#e2ad98"/>
            </g>
          </g>
          <g id="Group_101669" data-name="Group 101669" transform="translate(58.321 3.851)">
            <g id="Group_101668" data-name="Group 101668" transform="translate(0 0)">
              <path id="Path_74413" data-name="Path 74413" d="M5.093,1.2,4.96.027,4.907,0,4.881.053,4.775,1.2v.292l-.027.159v.159L4.483,4.993V5.1l-.027.133L4.323,6.56v.133L4.3,6.746v.08L3.1,14.633l-1.62,6.825L.021,26.451q-.053.053.027.053.053.053.053-.027L1.508,23.45l.027-.106.053-.106L3.633,17l.027-.159.053-.133L5.067,8.5,5.12,1.647l-.027-.159Z" transform="translate(0)" fill="#c18770"/>
            </g>
          </g>
          <g id="Group_101671" data-name="Group 101671" transform="translate(0.232 16.102)">
            <g id="Group_101670" data-name="Group 101670" transform="translate(0 0)">
              <path id="Path_74414" data-name="Path 74414" d="M28.859,14.431A13.939,13.939,0,0,0,24.612,4.205,13.869,13.869,0,0,0,14.429,0,14.005,14.005,0,0,0,4.205,4.205,14.008,14.008,0,0,0,0,14.431,13.871,13.871,0,0,0,4.205,24.614a13.936,13.936,0,0,0,10.224,4.247,13.8,13.8,0,0,0,10.183-4.247A13.8,13.8,0,0,0,28.859,14.431Z" transform="translate(0)" fill="#ece7de"/>
            </g>
          </g>
          <g id="Group_101673" data-name="Group 101673" transform="translate(7.011 5.736)">
            <g id="Group_101672" data-name="Group 101672" transform="translate(0 0)">
              <path id="Path_74415" data-name="Path 74415" d="M59.138,5.338q-.664,2.656-1.248,6.108a63.887,63.887,0,0,1-1.646,7.117,32.235,32.235,0,0,1-3.558,7.967q-.266.425-.5.876a19.142,19.142,0,0,1-6.108-1.54,59.5,59.5,0,0,1-5.284-2.735q-2.47-1.461-4.886-3.107a41.678,41.678,0,0,1-4.913-3.984,40.127,40.127,0,0,1-4.116-4.7,36.33,36.33,0,0,1-3.293-5.232,40.242,40.242,0,0,1-2.1-4.86Q21.244.611,21.058,0,16.712,4.311,0,12.455q.319,3.16.531,6.374.239,3.426.451,6.825.159,2.656.292,5.205.133,2.178.266,4.382.186,3.16.425,6.347.266,3.426.451,6.825.186,2.974.478,5.922L3.532,60.6q.379,3.4.664,6.9.3,3.506.531,7.038T5.1,80.5q.171,2.438.451,4.2A24.818,24.818,0,0,1,7.515,81.93q1.193-1.412,2.974-3.9t3.8-5.285q1.461-2.071,3.08-4.143a63.39,63.39,0,0,1,5.1-5.763A48.19,48.19,0,0,1,27.8,58.267a40.131,40.131,0,0,1,5.55-3.346,26.914,26.914,0,0,1,4.2-1.673,25.249,25.249,0,0,1,6.931-.9,23.541,23.541,0,0,1,4.966,1.009,30.818,30.818,0,0,1,8.046,4.01A35.113,35.113,0,0,1,63.2,62.251,73.388,73.388,0,0,1,68.247,68.2,66.036,66.036,0,0,1,72.6,74.627q1.832,3.081,3.718,6.241a2.374,2.374,0,0,1,.212.85q.08-1.328.106-3,.027-2.231.106-5.683t.027-6.586a42.089,42.089,0,0,1,.133-5.205,18.2,18.2,0,0,1,.5-3.187,36.483,36.483,0,0,1,1.275-3.665A28.735,28.735,0,0,0,80.2,47.91a14.394,14.394,0,0,0-.637-6.985q-1.142-3-1.965-6a19.453,19.453,0,0,1-.823-4.435q.056-1.355.053-4.09a46.382,46.382,0,0,0-.478-6.4,8.063,8.063,0,0,1,1.328-6.108q1.856-2.47,1.248-3.4a14.028,14.028,0,0,0-2.337-2.47A16.942,16.942,0,0,0,71.327,5.1Q67.795,3.748,64.4,2.523a16.547,16.547,0,0,1-4.541-2.2A25.2,25.2,0,0,1,59.138,5.338Z" fill="#ece7de"/>
            </g>
          </g>
          <g id="Group_101676" data-name="Group 101676" transform="translate(8.525 36.782)">
            <g id="Group_101675" data-name="Group 101675" transform="translate(0 0)">
              <g id="Group_101674" data-name="Group 101674">
                <path id="Path_74416" data-name="Path 74416" d="M15.933,37.26q-4.021-12.891-2.6-23.238A68.268,68.268,0,0,0,19.306,0Q.225,8.7,0,7.144L3.877,54.1Z" fill="#d8cdc7"/>
              </g>
            </g>
          </g>
          <g id="Group_101681" data-name="Group 101681" transform="translate(0 6.932)">
            <g id="Group_101678" data-name="Group 101678" transform="translate(65.246 0)">
              <g id="Group_101677" data-name="Group 101677" transform="translate(0 0)">
                <path id="Path_74417" data-name="Path 74417" d="M18.562,29.107,21.005,9.561a18.244,18.244,0,0,0-6.187-5.046Q9.519,2.719,3.16,0L0,9.614Q19.367,18.628,18.562,29.107Z" fill="#7a2230"/>
              </g>
            </g>
            <g id="Group_101680" data-name="Group 101680" transform="translate(0 1.089)">
              <g id="Group_101679" data-name="Group 101679" transform="translate(0 0)">
                <path id="Path_74418" data-name="Path 74418" d="M29.344,25.336A102.146,102.146,0,0,1,36.407,14.1L24.989,0A90.668,90.668,0,0,1,16.7,5.152Q4.116,11.073,3.692,12.8A14.05,14.05,0,0,0,.771,17.82,25.407,25.407,0,0,0,0,22.282q.047.984.133,3.585.107,2.63,4.3,6.825a13.937,13.937,0,0,0,10.224,4.249,13.85,13.85,0,0,0,10.2-4.249,14.055,14.055,0,0,0,1.54-1.806l.053.027.159-.292Q27.139,29.663,29.344,25.336Z" fill="#7a2230"/>
              </g>
            </g>
          </g>
          <g id="Group_101683" data-name="Group 101683" transform="translate(22.864 3.426)">
            <g id="Group_101682" data-name="Group 101682" transform="translate(0 0)">
              <path id="Path_74419" data-name="Path 74419" d="M46.286,3.213a10.387,10.387,0,0,0-6-3.213,64.06,64.06,0,0,1-4.647,26.876Q14.738,20.555,6.4,1.089A11.764,11.764,0,0,0,0,5.019q10.356,20.29,38,28.47Q42.674,27.275,46.286,3.213Z" fill="#7a2230"/>
            </g>
          </g>
          <g id="Group_101685" data-name="Group 101685" transform="translate(22.851 3.426)">
            <g id="Group_101684" data-name="Group 101684" transform="translate(0 0)">
              <path id="Path_74420" data-name="Path 74420" d="M29.383,29.877q-.584-.239-1.726-.8l-4.541-2.364-6.559-4.2q-1.673-1.2-3.558-2.735L9.361,16.519l-4.01-4.3-.133-.186-.9-1.062-.053-.106L4,10.543l-3.9-5.5q-.053-.027-.08,0-.027.053,0,.08l2.231,3.9L5.67,13.757l3.426,3.8q1.434,1.487,3.24,3.028Q14.273,22.2,15.92,23.4l4.3,2.815,3.85,2.1,5.842,2.6.106.027.106.053,7.887,2.47q.053.053.053-.027.053-.053-.027-.053l-8.657-3.506M40.616,1.222,40.4.027,40.351,0l-.027.053L40.138,7.3l-1.089,8.339L37.4,21.936l-1.222,3.452-.08.133-.531,1.408q-.053.053.027.053.053.053.053-.027l1.275-2.231,2.337-5.79q.451-1.514.664-2.443l.266-1.275q.239-1.222.239-1.3l.345-2.576q.133-1.115.186-2.523l.053-1.779Z" transform="translate(0)" fill="#4b0f18"/>
            </g>
          </g>
          <g id="Group_101687" data-name="Group 101687" transform="translate(31.946 9.999)">
            <g id="Group_101686" data-name="Group 101686" transform="translate(0 0)">
              <path id="Path_74421" data-name="Path 74421" d="M19.013,18.152l4.01,1.328,2.124.451q.053.053.053-.027.053-.053-.027-.053l-4.647-1.806-.133-.08-3.4-1.7q-1.036-.611-1.168-.717l-.478-.266-.133-.106-1.248-.8-3.9-2.974-.133-.133-.159-.106L6.32,7.821,3.505,4.608l-.08-.133-.106-.106L2.071,2.775l-.053-.106-.159-.186L.08.013Q.027-.013,0,.013v.08L1.593,2.961l.08.106.053.106L2.6,4.528Q3.665,6.015,4.089,6.573l1.3,1.62L9.374,12.2,11.5,13.9l3.213,2.125.159.08.159.106.637.345.08.053.08.027Z" transform="translate(0 0)" fill="#a84657"/>
            </g>
          </g>
          <g id="Group_101690" data-name="Group 101690" transform="translate(44.786 86.033)">
            <g id="Group_101689" data-name="Group 101689" transform="translate(0 0)">
              <g id="Group_101688" data-name="Group 101688">
                <path id="Path_74422" data-name="Path 74422" d="M3.2.013.013,3.2a.033.033,0,0,0,0,.053L3.2,6.44a.033.033,0,0,0,.053,0L6.44,3.253a.033.033,0,0,0,0-.053L3.253.013a.033.033,0,0,0-.053,0M6.333,3.227,3.226,6.334l.027.027H3.2l.027-.027L.119,3.227l-.027.027V3.2l.027.027L3.226.12,6.333,3.227m-3.16-.053H2.43l-.053.053.053.053h.744v.744l.053.053.053-.053V3.28h.744l.053-.053-.053-.053H3.28V2.43l-.053-.053-.053.053Z" fill="rgba(0,0,0,0)"/>
              </g>
            </g>
          </g>
        </g>
        <g id="Group_101702" data-name="Group 101702" transform="translate(-229.736 -742.65) rotate(-7.262)">
          <g id="Group_101693" data-name="Group 101693" transform="translate(0 10.096)">
            <g id="Group_101692" data-name="Group 101692" transform="translate(0 0)">
              <path id="Path_74423" data-name="Path 74423" d="M25.121,43.51l.106-42.339L2.9,0,0,40.024Q19.187,52.318,25.121,43.51Z" fill="#e2ad98"/>
            </g>
          </g>
          <g id="Group_101695" data-name="Group 101695" transform="translate(2.7 0)">
            <g id="Group_101694" data-name="Group 101694" transform="translate(0 0)">
              <path id="Path_74424" data-name="Path 74424" d="M3.282,3.282A10.825,10.825,0,0,0,0,11.23a10.825,10.825,0,0,0,3.282,7.948A10.825,10.825,0,0,0,11.23,22.46a10.825,10.825,0,0,0,7.948-3.282A10.825,10.825,0,0,0,22.46,11.23a10.825,10.825,0,0,0-3.282-7.948A10.825,10.825,0,0,0,11.23,0,10.825,10.825,0,0,0,3.282,3.282Z" fill="#e2ad98"/>
            </g>
          </g>
          <g id="Group_101698" data-name="Group 101698" transform="translate(2.368 8.446)">
            <g id="Group_101697" data-name="Group 101697" transform="translate(0 0)">
              <g id="Group_101696" data-name="Group 101696" transform="translate(0 0)">
                <path id="Path_74425" data-name="Path 74425" d="M22.886,30.63,22.806,0,.319,1.331,0,8.782Q8.782,27.649,22.886,30.63Z" fill="#c18770"/>
              </g>
            </g>
          </g>
          <g id="Group_101701" data-name="Group 101701" transform="translate(8.928 51.73)">
            <g id="Group_101700" data-name="Group 101700" transform="translate(0 0)">
              <g id="Group_101699" data-name="Group 101699">
                <path id="Path_74426" data-name="Path 74426" d="M3.207.013.013,3.207a.033.033,0,0,0,0,.053L3.207,6.453a.033.033,0,0,0,.053,0L6.453,3.26a.033.033,0,0,0,0-.053L3.26.013a.033.033,0,0,0-.053,0m3.14,3.22L3.233,6.347l.027.027H3.207l.027-.027L.12,3.233.093,3.26V3.207l.027.027L3.233.12,6.347,3.233M3.18,3.18H2.435l-.053.053.053.053H3.18v.745l.053.053.053-.053V3.287h.745l.053-.053L4.032,3.18H3.287V2.435l-.053-.053-.053.053Z" fill="rgba(0,0,0,0)"/>
              </g>
            </g>
          </g>
        </g>
        <g id="Group_101834" data-name="Group 101834" transform="matrix(0.99, -0.142, 0.142, 0.99, -264.807, -814.463)">
          <g id="Group_101705" data-name="Group 101705" transform="translate(14.572 25.381)">
            <g id="Group_101704" data-name="Group 101704" transform="translate(0 0)">
              <g id="Group_101703" data-name="Group 101703">
                <path id="Path_74427" data-name="Path 74427" d="M54.43,8.036Q46.064.156,32.359,0A30.853,30.853,0,0,0,9.33,9.191,30.782,30.782,0,0,0,0,31.741q.006,13.2,10.542,22.409Q21.1,63.382,41.154,63.509q20.076.159,20.211-10.232T62.154,29.4Q62.826,15.922,54.43,8.036Z" fill="#e2ad98"/>
              </g>
            </g>
          </g>
          <g id="Group_101708" data-name="Group 101708" transform="translate(18.314 61.083)">
            <g id="Group_101707" data-name="Group 101707" transform="translate(0 0)">
              <g id="Group_101706" data-name="Group 101706" transform="translate(0)">
                <path id="Path_74428" data-name="Path 74428" d="M62.138,11.9Q62.657,7.022,56.257,0L.211,3.38Q-1.066,17.99,5.374,25.707q8.906,16.644,36.059,23.9Q57.454,35.687,62.138,11.9Z" fill="#e2ad98"/>
              </g>
            </g>
          </g>
          <g id="Group_101727" data-name="Group 101727" transform="translate(35.522 59.907)">
            <g id="Group_101713" data-name="Group 101713" transform="translate(31.826 2.319)">
              <g id="Group_101710" data-name="Group 101710" transform="translate(0 0)">
                <g id="Group_101709" data-name="Group 101709">
                  <path id="Path_74429" data-name="Path 74429" d="M6.994,4.565A5.154,5.154,0,0,0,5.96,1.326,3.019,3.019,0,0,0,3.5,0,3.064,3.064,0,0,0,1.016,1.326,5.213,5.213,0,0,0,0,4.565,5.14,5.14,0,0,0,1.016,7.786,3.053,3.053,0,0,0,3.5,9.13,3.008,3.008,0,0,0,5.96,7.786,5.082,5.082,0,0,0,6.994,4.565Z" fill="#231915"/>
                </g>
              </g>
              <g id="Group_101712" data-name="Group 101712" transform="translate(1.256 3.651)">
                <g id="Group_101711" data-name="Group 101711" transform="translate(0 0)">
                  <path id="Path_74430" data-name="Path 74430" d="M1.689,1.069A1.3,1.3,0,0,0,1.414.294.69.69,0,0,0,.811,0,.737.737,0,0,0,.225.328,1.331,1.331,0,0,0,0,1.138,1.172,1.172,0,0,0,.277,1.9a.721.721,0,0,0,.62.31.682.682,0,0,0,.568-.345A1.219,1.219,0,0,0,1.689,1.069Z" fill="#fff"/>
                </g>
              </g>
            </g>
            <g id="Group_101715" data-name="Group 101715" transform="translate(27.033 1.197)">
              <g id="Group_101714" data-name="Group 101714" transform="translate(0 0)">
                <path id="Path_74431" data-name="Path 74431" d="M8.857.046a36.331,36.331,0,0,0-3.682,0Q2.854.175,2.188,1.539A29.262,29.262,0,0,1,0,5.221a17.8,17.8,0,0,1,1.6-.9A15.8,15.8,0,0,1,5.245,2.859a5.072,5.072,0,0,1,3.682.347,13.285,13.285,0,0,1,3.091,2.119l.452-.069A18.4,18.4,0,0,0,8.857.046Z" transform="translate(0 0)" fill="#e2ad98"/>
              </g>
            </g>
            <g id="Group_101717" data-name="Group 101717" transform="translate(26.778 3.014)">
              <g id="Group_101716" data-name="Group 101716" transform="translate(0 0)">
                <path id="Path_74432" data-name="Path 74432" d="M10.049.834,9.945.8,9.667.625,9.459.556l-.174-.1L8.451.174h-.1L8.1.1H8L7.826.069H7.687l-.1-.035H7.166L6.958,0H6.541L6.333.035H5.916L4.666.278,3.485.695,2.408,1.32l-.66.521-.069.035L1.262,2.4l-.069.069-.035.069-.1.139L.81,2.917l-.1.139-.035.069L.6,3.2l-.59.834q-.035.035.035.1H.116l.868-.59.139-.069.521-.417.069-.035.069-.069L2.3,2.535l-.035.035.069-.035H2.3l1.632-.695.174-.035.174-.069,1.6-.313h.347L6.4,1.389h.9l.174.035h.174l.208.035H8l.1.035h.069l.521.1.139.069.174.035.834.347,1.181.695.069.035.139.139.174.1,1.459,1.25h.1v-.1l-.139-.347-.069-.1-.139-.278-.452-.66L11.23,1.7l-.069-.069-.1-.069a5.063,5.063,0,0,0-.66-.486L10.223.938Z" transform="translate(0)" fill="#231915"/>
              </g>
            </g>
            <g id="Group_101722" data-name="Group 101722" transform="translate(6.854 3.292)">
              <g id="Group_101719" data-name="Group 101719" transform="translate(0 0)">
                <g id="Group_101718" data-name="Group 101718">
                  <path id="Path_74433" data-name="Path 74433" d="M6.994,4.565A5.154,5.154,0,0,0,5.96,1.326,3.019,3.019,0,0,0,3.5,0,3.064,3.064,0,0,0,1.016,1.326,5.213,5.213,0,0,0,0,4.565,5.14,5.14,0,0,0,1.016,7.786,3.053,3.053,0,0,0,3.5,9.13,3.008,3.008,0,0,0,5.96,7.786,5.082,5.082,0,0,0,6.994,4.565Z" fill="#231915"/>
                </g>
              </g>
              <g id="Group_101721" data-name="Group 101721" transform="translate(1.256 3.651)">
                <g id="Group_101720" data-name="Group 101720" transform="translate(0 0)">
                  <path id="Path_74434" data-name="Path 74434" d="M1.689,1.069A1.3,1.3,0,0,0,1.414.294.69.69,0,0,0,.811,0,.737.737,0,0,0,.225.328,1.331,1.331,0,0,0,0,1.138,1.172,1.172,0,0,0,.277,1.9a.721.721,0,0,0,.62.31.682.682,0,0,0,.568-.345A1.219,1.219,0,0,0,1.689,1.069Z" fill="#fff"/>
                </g>
              </g>
            </g>
            <g id="Group_101724" data-name="Group 101724" transform="translate(0.428 0)">
              <g id="Group_101723" data-name="Group 101723" transform="translate(0)">
                <path id="Path_74435" data-name="Path 74435" d="M12.226,2.528A18.4,18.4,0,0,0,9.69.652,4,4,0,0,0,6.634.1,6.536,6.536,0,0,0,3.265,2.215,24.32,24.32,0,0,0,0,7.008q1.077-.834,2.084-1.6A10.061,10.061,0,0,1,5.661,3.674a8.026,8.026,0,0,1,3.4-.174,12.917,12.917,0,0,1,3.821,1.32q1.806,1.042,3.682,1.945A4.348,4.348,0,0,0,15.56,5.549Q13.927,4.021,12.226,2.528Z" fill="#e2ad98"/>
              </g>
            </g>
            <g id="Group_101726" data-name="Group 101726" transform="translate(0 2.944)">
              <g id="Group_101725" data-name="Group 101725" transform="translate(0 0)">
                <path id="Path_74436" data-name="Path 74436" d="M13.7,1.737l-.139-.069L11.786.729A7.4,7.4,0,0,0,10.778.417L10.5.313,8.9.035H8.66L8.521,0H7.583A6.665,6.665,0,0,0,6.472.069L5.256.313,4.631.521,4.492.59,4.353.625l-.972.486-.035.035-.069.035-.1.069-.139.069L2.478,1.7l-.8.695-.035.035v.035l-.208.243L.289,4.272.22,4.446l-.208.278q-.035.035.035.1H.116l.278-.208L.533,4.48l.139-.1L2.234,2.987,2.2,3.056l.834-.521.417-.208.1-.069.139-.035.1-.069h.035l.278-.139h.069l.035-.035.243-.069.035-.035h.069l.347-.139h.1l.59-.174h.1l1.146-.174.834-.035.139.035h.729l.452.069h.139l.1.035h.243l.243.035L9.98,1.6l.452.069.486.139h.035l.069.035.1.035.243.035.9.313.452.208.243.069.1.069.1.035.9.452.208.139.208.1,2.119,1.389q.035.035.1-.035V4.585L16.4,4.168,14.946,2.674Z" fill="#231915"/>
              </g>
            </g>
          </g>
          <g id="Group_101730" data-name="Group 101730" transform="translate(30.025 54.491) rotate(-24.124)">
            <g id="Group_101729" data-name="Group 101729" transform="translate(0 0)">
              <g id="Group_101728" data-name="Group 101728" transform="translate(0)">
                <path id="Path_74437" data-name="Path 74437" d="M0,2.954l.867-.4a11.416,11.416,0,0,1,6.008-.929A21.3,21.3,0,0,1,11.4,2.738a9.214,9.214,0,0,1,1.456.588q.465.248,1.363.836a.86.86,0,0,0,.65.217.234.234,0,0,1-.031.124,1.233,1.233,0,0,0-.062-1.022,2.776,2.776,0,0,0-.929-1.332,8.7,8.7,0,0,0-2.6-1.456A15.314,15.314,0,0,0,5.2.043,8.126,8.126,0,0,0,1.951,1.065,19.83,19.83,0,0,0,0,2.954Z" transform="translate(3.716 0)" fill="#540e00"/>
                <path id="Path_74438" data-name="Path 74438" d="M3.9,1.115,3.654,1.3q-.078.06-.155.124a.168.168,0,0,1-.062.031.275.275,0,0,1-.062.062.328.328,0,0,1-.062.062,2.417,2.417,0,0,1-.217.155.063.063,0,0,1-.031.031A.255.255,0,0,1,3,1.827a.137.137,0,0,1-.062.031.064.064,0,0,1-.062.031l-1.61,1.7A9.939,9.939,0,0,0,0,5.605,8.839,8.839,0,0,1,1.084,4.521,13.6,13.6,0,0,1,3.561,2.942,13.322,13.322,0,0,1,9.724,1.486,14.363,14.363,0,0,1,16.042,2.88q2.044.991,2.416.681l.031-.031.062-.093a.234.234,0,0,0,.031-.124.86.86,0,0,1-.65-.217q-.9-.588-1.363-.836a9.214,9.214,0,0,0-1.456-.588A21.3,21.3,0,0,0,10.591.557a11.416,11.416,0,0,0-6.008.929l-.867.4A19.83,19.83,0,0,1,5.667,0,14.855,14.855,0,0,0,3.9,1.115Z" transform="translate(0 1.065)" fill="#2b0700"/>
              </g>
            </g>
          </g>
          <g id="Group_101733" data-name="Group 101733" transform="matrix(-0.88, -0.475, 0.475, -0.88, 74.953, 59.602)">
            <g id="Group_101732" data-name="Group 101732" transform="translate(0 0)">
              <g id="Group_101731" data-name="Group 101731">
                <path id="Path_74439" data-name="Path 74439" d="M0,1.481l.611.385a6.186,6.186,0,0,0,4.233.889A11.856,11.856,0,0,0,8.029,1.688a5.67,5.67,0,0,0,1.026-.563q.327-.237.96-.8.271-.263.458-.207A.289.289,0,0,0,10.451,0a1.567,1.567,0,0,1-.044.978,2.8,2.8,0,0,1-.655,1.274A5.934,5.934,0,0,1,7.92,3.644a8.14,8.14,0,0,1-4.255.622,4.721,4.721,0,0,1-2.291-.978A17.188,17.188,0,0,1,0,1.481Z" transform="translate(2.618 2.074)" fill="#540e00"/>
                <path id="Path_74440" data-name="Path 74440" d="M2.749,4.3l-.175-.178Q2.52,4.06,2.466,4a.111.111,0,0,0-.044-.03.242.242,0,0,0-.044-.059.289.289,0,0,0-.044-.059A1.828,1.828,0,0,0,2.182,3.7a.055.055,0,0,0-.022-.03.223.223,0,0,0-.044-.059.09.09,0,0,0-.044-.03.043.043,0,0,0-.044-.03L.895,1.925A10.464,10.464,0,0,1,0,0,7.777,7.777,0,0,0,.764,1.037,9.808,9.808,0,0,0,2.509,2.548,7.447,7.447,0,0,0,6.851,3.94,7.976,7.976,0,0,0,11.3,2.607q1.44-.948,1.7-.652l.022.03.044.089a.289.289,0,0,1,.022.118q-.187-.055-.458.207-.633.563-.96.8a5.67,5.67,0,0,1-1.026.563A11.856,11.856,0,0,1,7.462,4.828,6.186,6.186,0,0,1,3.229,3.94l-.611-.385A17.188,17.188,0,0,0,3.993,5.362,10.643,10.643,0,0,1,2.749,4.3Z" fill="#2b0700"/>
              </g>
            </g>
          </g>
          <g id="Group_101738" data-name="Group 101738" transform="translate(57.006 58.471)">
            <g id="Group_101735" data-name="Group 101735" transform="translate(0.106 0)">
              <g id="Group_101734" data-name="Group 101734" transform="translate(0 0)">
                <path id="Path_74441" data-name="Path 74441" d="M12.641,20.762a7.485,7.485,0,0,0-4.5-6.094Q5.368,8.916,6.733.856,4.311-1.1,1.2,1.415L0,21.959Q6.666,26.709,12.641,20.762Z" fill="#e2ad98"/>
              </g>
            </g>
            <g id="Group_101737" data-name="Group 101737" transform="translate(0 0.723)">
              <g id="Group_101736" data-name="Group 101736" transform="translate(0 0)">
                <path id="Path_74442" data-name="Path 74442" d="M6.573,3.273,6.839.053Q6.893,0,6.813,0L6.759.027,6.041,3.939,5.961,7.93l.027.053L6.174,9.82l.053.24v.106l.346,1.517.08.213.053.24.293.9.106.213L7.744,14.8a.486.486,0,0,0,.293.266h.027l1.171.479.559.293,1.038.745.133.08v.027h.027l.08.08.053.027v.027h.027l.027.053.053.053h.027l.027.027.24.319.053.106.213.585v.08l.053.266v.452l-.027.133v.08l-.027.08v.133l-.053.16v.106l-.027.027v.08l-.24.612-.319.479-.426.479a4.716,4.716,0,0,1-.958.8,12.4,12.4,0,0,1-1.118.665l-.133.08-.16.053-.133.08-.16.053-.053.053-.373.133-.133.027a4.858,4.858,0,0,1-1.251.186H5.935l-1.6-.213L3.7,22.86a10.8,10.8,0,0,1-1.251-.479q-.4-.16-1.2-.585a4.348,4.348,0,0,1-.585-.319L.08,21.157q-.08-.08-.08.027v.053l1.118.8a12.973,12.973,0,0,0,1.144.719l1.251.612L5,23.845l.878.133h.266L6.254,24a6.6,6.6,0,0,0,1.437-.133l.612-.186.053-.027h.027l.16-.08.186-.053.319-.16a4.459,4.459,0,0,0,.612-.319l.612-.346a7.948,7.948,0,0,0,1.144-.878l.506-.559.426-.612.319-.719.053-.186v-.08l.027-.027v-.08l.053-.186.027-.186v-.08L12.854,19l.027-.186v-.559l-.053-.4V17.75l-.133-.479-.08-.186-.053-.053-.027-.106-.053-.08-.053-.106-.346-.479-.053-.027L12,16.18l-.266-.266-.053-.027-.027-.027-.16-.133-1.171-.8-1.277-.612-.452-.16L7.984,12.8,7.105,9.98V9.873L7.052,9.66,6.786,8.09V7.957L6.759,7.93v-.08L6.706,7.4Z" fill="#c18770"/>
              </g>
            </g>
          </g>
          <g id="Group_101745" data-name="Group 101745" transform="matrix(0.999, -0.034, 0.034, 0.999, 60.584, 89.002)">
            <g id="Group_101740" data-name="Group 101740" transform="translate(0.682 0.362)">
              <g id="Group_101739" data-name="Group 101739" transform="translate(0 0)">
                <path id="Path_74443" data-name="Path 74443" d="M5.442,2.156Q3.658-1.61.26,1.2-1.02,7.744,4.005,6.226A6.054,6.054,0,0,1,5.442,2.156Z" fill="#712024"/>
              </g>
            </g>
            <g id="Group_101742" data-name="Group 101742" transform="translate(0.5 4.504)">
              <g id="Group_101741" data-name="Group 101741" transform="translate(0 0)">
                <path id="Path_74444" data-name="Path 74444" d="M3.581,2.156q.187-.232-.028-.826Q3.347.761,2.22.32A3.325,3.325,0,0,0,.534.028Q-.028.183,0,.551a1.686,1.686,0,0,0,.543.857,6.011,6.011,0,0,0,1.007.8A1.762,1.762,0,0,0,2.764,2.5Q3.44,2.419,3.581,2.156Z" fill="#fdb4b8"/>
              </g>
            </g>
            <g id="Group_101744" data-name="Group 101744" transform="translate(0 0)">
              <g id="Group_101743" data-name="Group 101743" transform="translate(0 0)">
                <path id="Path_74445" data-name="Path 74445" d="M2.2.213,2.122.256,2.008.3,1.781.426,1.743.469H1.705L1.629.554H1.591L1.554.6,1.4.682H1.364V.725L1.326.768,1.25.81l-.3.256L.72,1.322l-.038.085L.53,1.578l-.114.213L.341,2l-.076.085-.038.085L.189,2.3l-.038.085-.076.469L.038,2.9,0,3.667l.038.213v.213l.152.81.076.171L.3,5.245v.043l.038.043v.085l.3.725.114.171.53.6.606.341.53.085a2.466,2.466,0,0,0,.985-.128l.947-.341.152-.128.152-.085L4.7,6.566q0-.128-.076-.043H4.471l-.189.043H4.168l-.152.043-.871.043-.189-.043H2.728l-.189-.043L2.16,6.4l-.341-.3a2.494,2.494,0,0,1-.455-.853V5.074l-.038-.085V4.9l-.038-.171L1.25,4.648V4.562l-.076-.3-.038-.3v-.64L1.175,3.2V3.027L1.213,2.9l.038-.085V2.729l.038-.043L1.326,2.6V2.558L1.478,2.3l.076-.085.038-.085.3-.341.076-.043.038-.043.227-.171.038-.043h.038V1.45l.114-.085.152-.043.114-.085a2.381,2.381,0,0,1,.947-.213h.227l.114.043H4.13v.043h.152l.076.043h.076l.114.043.038.043h.076l.265.128.152.128.076.043.076.085a2.019,2.019,0,0,1,.455.512l.076.128.038.085.114.171.076.171q0,.128.076.043.114,0,.038-.085V2.473l-.114-.512a2.131,2.131,0,0,0-.379-.768l-.076-.085L5.456.981,4.85.469,4.7.384,4.585.3H4.509L4.433.256,4.4.213H4.32L3.713.043A4.012,4.012,0,0,0,3.031,0a2.2,2.2,0,0,0-.72.171Z" fill="#231915"/>
              </g>
            </g>
          </g>
          <g id="Group_101777" data-name="Group 101777" transform="translate(0 0)">
            <g id="Group_101747" data-name="Group 101747" transform="translate(0 0)">
              <g id="Group_101746" data-name="Group 101746">
                <path id="Path_74446" data-name="Path 74446" d="M.821,22.019q2.161,7.407,10.449,11.6a88.824,88.824,0,0,0,13.66,5.833q5.371,1.637,7.386-4.91a93.111,93.111,0,0,0,2.938-12.589q.944-6.022-2.581-14.289Q29.127-.621,17.418.05,5.689.7,2.185,7.667A18.93,18.93,0,0,0,.821,22.019Z" fill="#540e00"/>
              </g>
            </g>
            <g id="Group_101750" data-name="Group 101750" transform="translate(10.641 15.556)">
              <g id="Group_101749" data-name="Group 101749" transform="translate(0 0)">
                <g id="Group_101748" data-name="Group 101748" transform="translate(0 0)">
                  <path id="Path_74447" data-name="Path 74447" d="M26.459,24.067,24.3,0Q6.111,2.006,0,17.562L12.9,28.83Z" fill="#380a00"/>
                </g>
              </g>
            </g>
            <g id="Group_101752" data-name="Group 101752" transform="translate(2.609 12.98)">
              <g id="Group_101751" data-name="Group 101751" transform="translate(0 0)">
                <path id="Path_74448" data-name="Path 74448" d="M.08.038Q.08-.025.038.017q-.063,0-.021.042V.73l.021.1.4,3.252.944,3.336.231.546.042.147.189.42A18.417,18.417,0,0,0,2.975,10.76l1.616,2.434,2.224,2.518.126.1.881.86.126.084.1.1,2.014,1.616,3.945,2.434,1.07.525q.042,0,.042-.021.042-.042-.021-.042L12,19.216l-3.441-2.9-2.707-2.9L4.7,11.914,3.059,9.291l-.021-.084L3,9.144,2.052,7.151,2.01,7.088.982,4.192.961,4.066l-.042-.1Z" fill="#380a00"/>
              </g>
            </g>
            <g id="Group_101754" data-name="Group 101754" transform="translate(6.344 4.797)">
              <g id="Group_101753" data-name="Group 101753" transform="translate(0 0)">
                <path id="Path_74449" data-name="Path 74449" d="M.08.038Q.08-.025.038.017q-.063,0-.021.042V.646L.394,4.633.919,7.277l.713,2.35q.42,1.154.839,2.077l.315.629.042.063.021.063L3.542,13.7l.315.462a.227.227,0,0,0,.084.1L4,14.39l.65.881a.227.227,0,0,1,.084.1.227.227,0,0,1,.084.1l.692.776.1.084.084.1.441.441.1.063,1.07.9,2.5,1.469,1.217.441q.042.042.042-.021.042-.042-.021-.042l-.231-.126-3-2.014-1.7-1.679L5.409,15l-.063-.1-.084-.1L4.255,13.257a17.484,17.484,0,0,1-1.028-1.909l-.336-.755L1.569,6.836.478,2.2.457,2.031.415,1.884Z" fill="#380a00"/>
              </g>
            </g>
            <g id="Group_101756" data-name="Group 101756" transform="translate(10.83 4.037)">
              <g id="Group_101755" data-name="Group 101755" transform="translate(0 0)">
                <path id="Path_74450" data-name="Path 74450" d="M6.169,7.742,7.344,10.03l.063.1.126.315.1.189.734,1.825L9.82,17.394q0,.063.042.021.063,0,.021-.042v-.231l-.189-1.8-.042-.147-.063-.483-.608-2.56L8.141,9.8l-.063-.1-.189-.441q-.378-.86-.86-1.721l-1.721-2.6-.86-1.07L2.6,1.972l-.9-.755-.1-.1L.629.378.483.294.063,0H0V.063L1.343,1.385l.042.063L2.728,2.9a1.768,1.768,0,0,0,.252.294l1.637,2.1Z" transform="translate(0 0)" fill="#380a00"/>
              </g>
            </g>
            <g id="Group_101758" data-name="Group 101758" transform="translate(17.817 6.691)">
              <g id="Group_101757" data-name="Group 101757" transform="translate(0 0)">
                <path id="Path_74451" data-name="Path 74451" d="M.063.01Q.042-.01,0,.01V.073L1.364,2.046l.147.252a11.958,11.958,0,0,1,.65,1.112l.776,1.637L3,5.235l.084.168L3.63,7.165l.021.042.021.063.084.378q.147.734.252,1.553l.1,2.518-.021.084-.1,1.322v.147l-.5,2.812q-.042.042.021.042l.042-.021.462-1.049.5-1.679.021-.168.189-.9v-.084l.063-.378v-.084l.021-.084v-.189q0-.042.063-.776V9.62l-.021-.1-.021-.4L4.574,7.459q-.21-.86-.462-1.595L3.756,5,3.735,4.92,2.329,2.507l-.755-.965Z" transform="translate(0 0)" fill="#380a00"/>
              </g>
            </g>
            <g id="Group_101760" data-name="Group 101760" transform="translate(2.022 20.785)">
              <g id="Group_101759" data-name="Group 101759" transform="translate(0 0)">
                <path id="Path_74452" data-name="Path 74452" d="M2.493,3.815l-.042-.084-.063-.063L2.3,3.521l-.1-.126-.042-.063-.063-.063-.525-.8-.063-.126L.08.038Q.08-.025.038.017q-.063,0-.021.042L.059.248l.567,1.49L1.716,3.9l.1.147.042.084.86,1.3,1.7,1.993.084.063.86.818a14.862,14.862,0,0,0,1.2.923l2.371,1.406.084.021.126.063,2.182.776q.042.042.042-.021l-.021-.042L7.843,9.27,5.913,7.675a6.622,6.622,0,0,1-.546-.5Z" fill="#380a00"/>
              </g>
            </g>
            <g id="Group_101762" data-name="Group 101762" transform="translate(27.91 5.39)">
              <g id="Group_101761" data-name="Group 101761" transform="translate(0 0)">
                <path id="Path_74453" data-name="Path 74453" d="M1.217,1.227,1.049,1.06.923.892.063.01Q.042-.01,0,.01V.073L.084.22.21.388.273.514,2.1,3.536l.063.147.671,1.259.021.084.084.147L4.28,8.886l.1.4.021.168.042.147.1.567v.084L4.679,11.3v.273l.021.147V12.81l-.042.42v.189l-.084.818q-.042.042.021.042l.042-.021.147-.357.441-2.035v-.147l.021-.147v-.147l.021-.063L5.141,9.138,4.868,7.9a12.777,12.777,0,0,0-.462-1.406L4.385,6.41l-.042-.084L3.315,4.186l-.042-.063-.042-.084Z" transform="translate(0 0)" fill="#380a00"/>
              </g>
            </g>
            <g id="Group_101764" data-name="Group 101764" transform="translate(14.17 1.376)">
              <g id="Group_101763" data-name="Group 101763" transform="translate(0 0)">
                <path id="Path_74454" data-name="Path 74454" d="M11.83,8.032l-.273-.462-.021-.063A9.883,9.883,0,0,0,10.844,6.5l-.168-.252-.1-.126-.042-.063L9.249,4.675a20.427,20.427,0,0,0-1.8-1.469L6.4,2.535,3.437,1.066,3.227,1,3.038.919.059.017Q.017-.025.017.038-.025.08.038.08L1.569.73,6.123,3.185,8.368,4.969l.063.042.042.063.21.189a14.481,14.481,0,0,1,1.49,1.721,12.483,12.483,0,0,1,1.2,1.951,13.491,13.491,0,0,1,.8,2.056l.441,2.035a12.612,12.612,0,0,1,.189,1.867l-.168,3.9q-.042.042.021.042l.042-.021.483-2.308.147-2.2-.189-2.434-.588-2.2A10.381,10.381,0,0,0,12.1,8.578l-.063-.147L11.956,8.3Z" fill="#380a00"/>
              </g>
            </g>
            <g id="Group_101766" data-name="Group 101766" transform="translate(20.062 0.008)">
              <g id="Group_101765" data-name="Group 101765" transform="translate(0 0)">
                <path id="Path_74455" data-name="Path 74455" d="M15.065,16.387l-.441-3.4-.567-2.224a19.078,19.078,0,0,0-.692-1.993L12.254,6.484,11.1,4.784,9.484,3.063l-.4-.315-.042-.063L7.638,1.721a12.2,12.2,0,0,0-1.93-.9L4.322.378,2.686.084,2.308.063Q1.616,0,1.091,0L.042.042A.037.037,0,0,0,0,.084L.021.1,1.469.294h.084l.063.021L1.93.357l1.742.4L3.756.8l1.721.608a15.071,15.071,0,0,1,1.763.965,8.751,8.751,0,0,1,.86.608l.42.336.063.042.357.315a14.6,14.6,0,0,1,1.49,1.637,15.4,15.4,0,0,1,1.259,1.846l.986,1.909q.4.9.776,1.909L15,16.408q0,.063.042.021Q15.107,16.429,15.065,16.387Z" fill="#812511"/>
              </g>
            </g>
            <g id="Group_101768" data-name="Group 101768" transform="translate(0.087 9.119)">
              <g id="Group_101767" data-name="Group 101767" transform="translate(0 0)">
                <path id="Path_74456" data-name="Path 74456" d="M1.469.017q-.042-.042-.042.021L.567,2.891.126,5.535l-.063.818Q.063,6.4,0,7.507L.084,9.354.1,9.522v.147l.252,1.595A16.258,16.258,0,0,0,1.07,13.8q.084.252.5,1.238l.336.671.042.063.315.588.084.126.147.294,1.763,2.392,1.28,1.364,2.266,1.888.336.231a13.265,13.265,0,0,0,1.133.755l1.028.608q.063.063.063-.021.021,0,0-.042L8.2,22.237l-3.315-3.4L3.525,16.887a11.327,11.327,0,0,1-.629-1.07,17.029,17.029,0,0,1-1.028-2.287q-.294-.8-.4-1.217L1.154,11.1A19.4,19.4,0,0,1,.8,8.683L.755,8.389.713,6.941.692,6.878l.021-.084L.734,5.3,1.49.059Q1.532.017,1.469.017Z" transform="translate(0 0)" fill="#380a00"/>
              </g>
            </g>
            <g id="Group_101770" data-name="Group 101770" transform="translate(15.782 1.355)">
              <g id="Group_101769" data-name="Group 101769" transform="translate(0 0)">
                <path id="Path_74457" data-name="Path 74457" d="M10.2,7.067a15,15,0,0,1,.9,1.679l.357.839.734,2.371.608,3.336.042.021.021-.042.042-.713-.42-3.9-.042-.1L11.96,8.892l-1.2-2.476L9.673,4.948l-.713-.776A8.33,8.33,0,0,0,8.2,3.479l-.8-.65L5.749,1.8l-.818-.4L2.665.562,2.014.394Q1.343.227.965.164L.042.017Q0-.025,0,.038L.021.08.9.394l.231.063L3.714,1.507l.084.042.084.063.378.168,2.1,1.259,1.133.881L9.043,5.493Z" transform="translate(0 0)" fill="#812511"/>
              </g>
            </g>
            <g id="Group_101772" data-name="Group 101772" transform="translate(13.31 2.614)">
              <g id="Group_101771" data-name="Group 101771" transform="translate(0 0)">
                <path id="Path_74458" data-name="Path 74458" d="M5.619,3.353A16.1,16.1,0,0,1,6.962,4.57q.671.755,1.175,1.448L9.1,7.612l.357.839a6.686,6.686,0,0,1,.315.86l.462,1.846.231,2.014.021,2.518q-.042.042.021.042l.042-.021.189-.881.189-2.749-.063-1.007-.021-.1v-.1l-.231-1.322L9.941,7.487l-.063-.1-.042-.1A8.142,8.142,0,0,0,9.375,6.4L8.053,4.549l-.336-.357-.084-.1L6.081,2.744q-.86-.608-1.49-.965L2.828.919.29.059.059.017Q.017-.025.017.038-.025.08.038.08l4.2,2.245Q5.011,2.849,5.619,3.353Z" fill="#812511"/>
              </g>
            </g>
            <g id="Group_101774" data-name="Group 101774" transform="translate(8.963 4.247)">
              <g id="Group_101773" data-name="Group 101773" transform="translate(0 0)">
                <path id="Path_74459" data-name="Path 74459" d="M.084,0,.063.042,0,1.867a9.369,9.369,0,0,0,.084,1.28l.5,2.728L1.3,8.015a17.873,17.873,0,0,0,.776,1.7,17.81,17.81,0,0,0,.9,1.637l2.014,2.854.692.8.063.084L8.225,17.5q.042.042.063,0,.042-.021,0-.063L6.127,14.646l-.063-.063L4.826,12.8l-.1-.189L4.6,12.443,2.707,9.148,1.427,6.064a7.691,7.691,0,0,1-.252-.8l-.1-.294L.9,4.3.839,4.134.378,1.825.336,1.7V1.574L.21.692.189.608V.525L.126.021Z" fill="#812511"/>
              </g>
            </g>
            <g id="Group_101776" data-name="Group 101776" transform="translate(3.281 9.727)">
              <g id="Group_101775" data-name="Group 101775" transform="translate(0 0)">
                <path id="Path_74460" data-name="Path 74460" d="M.038.017q-.063,0-.021.042L.373,4.717.667,6.4q.084.5.4,1.784.231.818.567,1.8l1.091,2.623.441.8a12.839,12.839,0,0,0,.965,1.427l.755.923.986.944,1.217.881.231.126.063.021.294.168q.063.063.063-.021v-.042L7.4,17.579,6.144,16.4l-1.28-1.616L4.822,14.7l-.168-.231a16.5,16.5,0,0,1-.818-1.448l-.063-.084L3.752,12.9l-.021-.063-.1-.189L2.052,8.62.248.9.227.709.08.038Q.08-.025.038.017Z" fill="#812511"/>
              </g>
            </g>
          </g>
          <g id="Group_101802" data-name="Group 101802" transform="translate(5.404 17.998)">
            <g id="Group_101779" data-name="Group 101779" transform="translate(0.107 0.058)">
              <g id="Group_101778" data-name="Group 101778" transform="translate(0 0)">
                <path id="Path_74461" data-name="Path 74461" d="M35.665.168A34.863,34.863,0,0,0,25.027.756,32.191,32.191,0,0,0,13.655,5.77,19.874,19.874,0,0,0,10.465,8.75q-.734.86-1.406,1.763-.692.881-1.343,1.783-.42.588-.8,1.2a47.263,47.263,0,0,0-4.155,8.792A50.627,50.627,0,0,0,.247,32.565,27.029,27.029,0,0,0,.73,42.448,68.179,68.179,0,0,0,5.493,54.764a64.778,64.778,0,0,0,8.162,7.722,12.428,12.428,0,0,0,4.7-7.931Q23.1,19.661,42.317,17.835q12.359-10.26,30.7,1.93A41.58,41.58,0,0,0,59.69,8.456,94.408,94.408,0,0,0,46.429,2.581,50.679,50.679,0,0,0,35.665.168Z" fill="#380a00"/>
              </g>
            </g>
            <g id="Group_101781" data-name="Group 101781" transform="translate(0.107 0.058)">
              <g id="Group_101780" data-name="Group 101780" transform="translate(0 0)">
                <path id="Path_74462" data-name="Path 74462" d="M35.665.168A34.863,34.863,0,0,0,25.027.756,32.191,32.191,0,0,0,13.655,5.77,19.874,19.874,0,0,0,10.465,8.75q-.734.86-1.406,1.763-.692.881-1.343,1.783-.42.588-.8,1.2a47.263,47.263,0,0,0-4.155,8.792A50.627,50.627,0,0,0,.247,32.565,27.029,27.029,0,0,0,.73,42.448,68.179,68.179,0,0,0,5.493,54.764a64.778,64.778,0,0,0,8.162,7.722q4.456,0,8.75-25.892Q14.573,9.569,42.212,14.541,46.44,5.2,51.486,4.532,48.843,3.4,46.429,2.581A50.679,50.679,0,0,0,35.665.168Z" fill="#540e00"/>
              </g>
            </g>
            <g id="Group_101783" data-name="Group 101783" transform="translate(18.134 2.149)">
              <g id="Group_101782" data-name="Group 101782" transform="translate(0 0)">
                <path id="Path_74463" data-name="Path 74463" d="M17.828,3.438l-1.289-.913-.161-.081-.134-.107-.322-.161a9.226,9.226,0,0,0-1.262-.645L14.5,1.45,14.337,1.4l-.161-.081L11.517.457,11.167.4,11.006.349,7.112,0l-.3.027q-.43,0-1.182.054L1.257.806.048,1.182q-.081,0-.027.054,0,.081.054.027L3.191.913A2.956,2.956,0,0,0,3.647.886,2.956,2.956,0,0,0,4.1.859L6.226.833A4.34,4.34,0,0,1,6.79.859l2.739.269H9.69l.161.054,1.262.242.618.188a13.819,13.819,0,0,1,2.5.886,17.635,17.635,0,0,1,2.31,1.289L18.58,5.345a7.848,7.848,0,0,1,.886.859q.3.269.833.859l1.047,1.262a2.632,2.632,0,0,1,.322.43l.161.188,2.31,3.626q0,.081.054.027.081,0,.027-.054l-.457-1.182a14.217,14.217,0,0,0-.618-1.316l-1.37-2.363L20.138,5.56,17.962,3.518Z" fill="#380a00"/>
              </g>
            </g>
            <g id="Group_101785" data-name="Group 101785" transform="translate(24.795 0)">
              <g id="Group_101784" data-name="Group 101784" transform="translate(0 0)">
                <path id="Path_74464" data-name="Path 74464" d="M6.306,0a4.061,4.061,0,0,0-.537.027L2.519.349.048.859q-.081,0-.027.054,0,.081.054.027L5.286.779A3.793,3.793,0,0,1,5.8.806L9.18.913l6.177.752,8.621,2.068.188.081,2.39.725q.054.054.054-.027.054-.054-.027-.054L26.315,4.3,21.024,2.068l-.107-.054-.134-.027-2.229-.671L16.163.752Q15.277.564,13.638.3,11.919.081,11.087.054Z" fill="#812511"/>
              </g>
            </g>
            <g id="Group_101787" data-name="Group 101787" transform="translate(0 16.093)">
              <g id="Group_101786" data-name="Group 101786" transform="translate(0 0)">
                <path id="Path_74465" data-name="Path 74465" d="M5.667.021q-.054-.054-.054.027L4.834,1.391l-.081.188L4.3,2.385,2.766,5.769l-.188.51-.054.107L1.665,8.911,1.585,9.1.806,12.081Q.4,14.014.188,15.76L0,21.346l.564,4.969,1.343,4.834,1.961,4.431,2.149,3.465a.024.024,0,0,0,.027.027.034.034,0,0,0,.054,0v-.054L5.13,36.789l-.081-.242-.107-.215-1.182-3.2q-.51-1.611-.859-2.927l-.859-4.055v-.107L1.665,22.9v-.242l-.027-.215-.081-3.384.027-.107.349-4.619v-.107l.027-.107.913-4.888L2.9,9.046,5.694.075Q5.748.021,5.667.021Z" transform="translate(0 0)" fill="#380a00"/>
              </g>
            </g>
            <g id="Group_101789" data-name="Group 101789" transform="translate(7.896 12.677)">
              <g id="Group_101788" data-name="Group 101788" transform="translate(0 0)">
                <path id="Path_74466" data-name="Path 74466" d="M.269,0,.242.027.107,1.047v.134l-.027.161-.054.886L0,2.417.161,7.144v.161L.43,9.051l.054.161.94,3.545.081.161.671,1.692.242.483a24.025,24.025,0,0,0,1.423,2.525l.618.886.054.054.457.645a.291.291,0,0,1,.107.134l.457.51a.291.291,0,0,0,.107.134L6.2,20.6l.054.081,2.095,1.961.564.43a.789.789,0,0,0,.215.188,2.669,2.669,0,0,0,.43.3l.188.161.054.027.054.054.107.054,3.223,1.907q.081.081.081-.027v-.054l-2.954-2.283a2.263,2.263,0,0,1-.376-.322L7.923,21.164,6.285,19.257a20.147,20.147,0,0,1-1.558-2.2l-1.585-2.9-.054-.161-.618-1.45-.349-.967-.027-.161L1.423,9.185l-.376-1.88L.994,7.171.322.054A.047.047,0,0,0,.269,0Z" fill="#380a00"/>
              </g>
            </g>
            <g id="Group_101791" data-name="Group 101791" transform="translate(6.392 12.655)">
              <g id="Group_101790" data-name="Group 101790" transform="translate(0 0)">
                <path id="Path_74467" data-name="Path 74467" d="M1.8.021q-.054-.054-.054.027L1.289,1.5a16.514,16.514,0,0,0-.43,1.665l-.081.242L.027,8.025,0,12.591l.322,2.444.107.4.027.215.51,1.8q.376,1.074.618,1.585l.349.752L3.2,21.91a14.512,14.512,0,0,0,.994,1.262l.671.725.054.081L5,24.032l.94.913L6.016,25l.054.054.3.242a17.81,17.81,0,0,0,2.2,1.531l2.444,1.289,2.578.94q.054.054.054-.027.054-.054-.027-.054l-4.7-2.686-.752-.564-.107-.107-.134-.081L6.9,24.65a12.608,12.608,0,0,1-.994-.994,9.881,9.881,0,0,1-.967-1.1l-.671-.913-.134-.134-.081-.161A14.772,14.772,0,0,1,3.25,20l-.188-.322-.51-1.074a13.54,13.54,0,0,1-.564-1.477l-.4-1.343L1.558,15.6q-.188-.725-.322-1.558l-.054-.188L.859,10.6V8.079l.376-4.324.054-.242.188-1.4.054-.188.3-1.853Q1.88.021,1.8.021Z" fill="#380a00"/>
              </g>
            </g>
            <g id="Group_101793" data-name="Group 101793" transform="translate(33.867 1.429)">
              <g id="Group_101792" data-name="Group 101792" transform="translate(0 0)">
                <path id="Path_74468" data-name="Path 74468" d="M11.576,4.184a5.9,5.9,0,0,0-1.047-.913L9.266,2.439q-.537-.3-1.37-.671A10.737,10.737,0,0,0,6.5,1.2,13.365,13.365,0,0,0,5.076.773L4.4.585,1.531.1.752.048.591.021H.054Q0-.032,0,.048L.027.1,6.473,2.3l.161.081.161.054,1.343.618L8.3,3.11l.081.054.081.027,1.5.859q.349.215,1.074.752l.671.564.107.107.107.081.43.457.081.107.161.161.349.483L13,6.816l.027.054.027.027.215.322.054.107.107.134q0,.081.054.027.054-.027.027-.054l-.027-.188L13.4,7.031,13.375,6.9l-.081-.188V6.682L13.241,6.6l-.054-.188-.215-.4a3.953,3.953,0,0,0-.564-.886l-.322-.43Z" transform="translate(0 0)" fill="#380a00"/>
              </g>
            </g>
            <g id="Group_101795" data-name="Group 101795" transform="translate(13.724 5.995)">
              <g id="Group_101794" data-name="Group 101794" transform="translate(0 0)">
                <path id="Path_74469" data-name="Path 74469" d="M8.326,3.056,8.218,3,8.03,2.868l-.215-.107L7.735,2.68,6.016,1.794,5.936,1.74,4.109,1.015,3.921.935.7.1.054.021Q0-.032,0,.048L.027.1.242.209.483.29.618.371.806.424,5.237,2.439l.161.107.107.054.081.054q.886.483,1.477.859l.107.054.081.081,1.343.94.081.081.349.269,1.37,1.37.537.645a10.12,10.12,0,0,1,.833,1.316l.107.188.027.081.054.081.161.322.054.161.081.161.054.161.027.054.054.081.107.322v.027l.054.107.027.161.081.215.027.054.242.994.027.215.054.188v.081l.027.081.081.483.054.027.027-.054.054-.483-.054-1.638-.027-.054V10.2l-.054-.322V9.8l-.027-.054V9.717L13,9.368l-.027-.081V9.207L12.65,8.186,12.6,8.106l-.081-.188a10.025,10.025,0,0,0-.806-1.5l-.054-.107-.081-.081-.537-.752-.483-.51a10.054,10.054,0,0,0-1.4-1.289l-.376-.269a2.078,2.078,0,0,0-.376-.269Z" fill="#380a00"/>
              </g>
            </g>
            <g id="Group_101797" data-name="Group 101797" transform="translate(22.942 0.725)">
              <g id="Group_101796" data-name="Group 101796" transform="translate(0 0)">
                <path id="Path_74470" data-name="Path 74470" d="M21.615,9.857q.054-.027,0-.081L20.568,8.541,17.076,5.184l-2.9-2.095q-.859-.537-2.041-1.128-.994-.483-2.122-.913l-.7-.242L9.18.779l-.4-.134L8.723.618H8.643L7.837.4A14.879,14.879,0,0,0,5.742.081L5.5.054H5.366L5.312.027H4.775L4.641,0,4.534.027,3,.081,1.338.349,1.069.43a1.786,1.786,0,0,0-.43.107L.317.618.048.725q-.081,0-.027.054,0,.081.054.027L1.982.671,2.143.645,4.05.7l.43.054h.134l.107.027.457.054h.107l.349.081q1.047.188,1.961.43l.134.027.054.027h.081l.564.188.054.027.134.027.242.107.134.027,2.041.833.134.081,1.746.886.107.081.134.054,3.572,2.337,4.807,3.814Q21.588,9.91,21.615,9.857Z" fill="#812511"/>
              </g>
            </g>
            <g id="Group_101799" data-name="Group 101799" transform="translate(15.255 5.425)">
              <g id="Group_101798" data-name="Group 101798" transform="translate(0 0)">
                <path id="Path_74471" data-name="Path 74471" d="M9.481,3.706l.107.054,2.068,1.289.134.107,4.029,2.9.161.134h.081V8.111l-.3-.349-.081-.134-2.31-2.363-.43-.349-.134-.134L10.474,3.089Q10.233,2.927,9,2.2L6.634,1.128l-.215-.054L6.043.913,4.888.564,4.7.537,4.324.43,2.31.081H2.175L1.746.027.242,0,.054.027A.047.047,0,0,0,0,.081L.027.107.483.215.645.269l1.289.3.134.054,2.363.725.537.215.188.054L7.923,2.874,8.03,2.9l.081.054,1.1.618.188.081Z" transform="translate(0 0)" fill="#812511"/>
              </g>
            </g>
            <g id="Group_101801" data-name="Group 101801" transform="translate(15.067 5.049)">
              <g id="Group_101800" data-name="Group 101800" transform="translate(0 0)">
                <path id="Path_74472" data-name="Path 74472" d="M8.38.645Q8.3.618,7.44.4L6.983.3,5.21.054a2.434,2.434,0,0,0-.43-.027L4.7,0,.269.188.027.242,0,.3.054.322,1.37.457h.269l4.7.7,2.175.618,1.262.51a13.412,13.412,0,0,1,1.611.833l1.45.994q.618.51,1.235,1.128l.269.269.107.161.134.134.859,1.1.054.054.027.081.269.349.269.457.081.107L16.732,9q0,.081.054.027.081,0,.027-.054l-.349-1.182-.4-.886-.081-.242-.054-.054L14.691,4.673a12.82,12.82,0,0,0-1.235-1.289l-.537-.457-.188-.134-.081-.081-.913-.618-.161-.081-.054-.054-.43-.242L8.836.779,8.729.752,8.594.7Z" transform="translate(0 0)" fill="#812511"/>
              </g>
            </g>
          </g>
          <g id="Group_101807" data-name="Group 101807" transform="translate(0.602 57.831)">
            <g id="Group_101804" data-name="Group 101804" transform="matrix(0.955, -0.296, 0.296, 0.955, 0, 5.521)">
              <g id="Group_101803" data-name="Group 101803" transform="translate(0 0)">
                <path id="Path_74473" data-name="Path 74473" d="M15.126,3.678A7.294,7.294,0,0,0,8.659.005,7.573,7.573,0,0,0,1.713,3.678Q-.81,7.491.383,13.657a22.817,22.817,0,0,0,3.885,9.607,11.309,11.309,0,0,0,7.345,4.284q4.7.824,6.174-3.939a22.35,22.35,0,0,0,.426-10.618A28.353,28.353,0,0,0,15.126,3.678Z" fill="#e2ad98"/>
              </g>
            </g>
            <g id="Group_101806" data-name="Group 101806" transform="translate(6.879 7.83)">
              <g id="Group_101805" data-name="Group 101805" transform="translate(0 0)">
                <path id="Path_74474" data-name="Path 74474" d="M7.132,2.714l.825,1.011L9.314,6.36l1.73,4.311q0,.08.053.027.08,0,.027-.053l-.213-1.57L10.219,6.44,9.261,4.018,8.543,2.768A6.085,6.085,0,0,0,7.132,1.3,5.918,5.918,0,0,0,5.322.346L5.216.319,5.083.266,4.843.213,4.79.186H4.737L4.151.053H4.018L3.965.027h-.08L3.646,0H3.14L2.635.08,2.448.133,2.4.16,2.289.186,1.836.4,1.73.479,1.623.532l-.08.08a2.762,2.762,0,0,0-.612.665,4.184,4.184,0,0,0-.4.692l-.08.16-.24.825-.027.16-.053.133L0,4.258v.878a.047.047,0,0,0,.053.053L.08,5.163l.053-.24L.612,3.38l.027-.133.053-.133.426-.852a2.6,2.6,0,0,1,.4-.532l.053-.053.053-.08.08-.053.053-.053.266-.213a1.89,1.89,0,0,1,.639-.266A2.414,2.414,0,0,1,3.38.958h.186l.186.053h.106l.532.133.08.027h.053l.053.027.319.08.08.053.8.346.373.213.16.133.106.053.08.08.319.266A2.941,2.941,0,0,1,7.132,2.714Z" fill="#c18770"/>
              </g>
            </g>
          </g>
          <g id="Group_101816" data-name="Group 101816" transform="translate(18.728 27.765)">
            <g id="Group_101809" data-name="Group 101809" transform="translate(0 0.473) rotate(-0.817)">
              <g id="Group_101808" data-name="Group 101808" transform="translate(0 0)">
                <path id="Path_74475" data-name="Path 74475" d="M28.953,5.793q-.126-.776-.273-1.511a3.824,3.824,0,0,0-1.427-2.434A8.308,8.308,0,0,0,20.079.212a31.894,31.894,0,0,0-16.029,8.1A11.906,11.906,0,0,0,.294,15.13a18.592,18.592,0,0,0,.881,9.8q1.72,4.7,3.336,9.42a13.98,13.98,0,0,1,.441,7.679A6.236,6.236,0,0,1,.021,47a11.473,11.473,0,0,0,5.14-.629,12.63,12.63,0,0,0,7.322-6.357,14.994,14.994,0,0,0,1.636-8.791,46.675,46.675,0,0,1-.042-9.882,23.075,23.075,0,0,1,3.294-9.714,13.855,13.855,0,0,1,4.259-4.469q3.986-2.6,7.322.881Z" fill="#540e00"/>
              </g>
            </g>
            <g id="Group_101811" data-name="Group 101811" transform="translate(0.124 0)">
              <g id="Group_101810" data-name="Group 101810" transform="translate(0)">
                <path id="Path_74476" data-name="Path 74476" d="M14.394,8.526q-.525.42-.9.776-.8.755-1.322,1.322l-.755.881q-.546.692-.776,1.028l-.588.839-.042.042-.063.126L9.652,14,9.127,15.03A10.69,10.69,0,0,0,8.288,18.2a14.037,14.037,0,0,0-.021,1.742L8.288,20l.021.378.021.1v.1l.042.231v.1l.147.776a17.37,17.37,0,0,0,1.049,3.441l1.07,2.224.021.021.042.063.42.86a12.7,12.7,0,0,1,.944,3.147,14.482,14.482,0,0,1,.126,1.574,12.841,12.841,0,0,1-.063,1.511l-.042.378v.126l-.021.042-.147.881-.042.168-.021.189L11.414,37.9l-.063.147-.042.147-.063.147-.042.147-.546,1.28-.063.1-.042.1L9.4,41.972l-.063.084a.172.172,0,0,0-.063.1l-.252.336q-.021.042,0,.063.042.042.063,0l1.028-1.28a12.179,12.179,0,0,0,.986-1.595l.713-1.469.042-.147.126-.294.713-2.581v-.063l.021-.021v-.1l.063-.378a15.3,15.3,0,0,0,.126-1.595v-.525l-.021-.1-.1-1.259-.021-.1v-.063l-.021-.042-.189-.965-.042-.1-.042-.21-.21-.629v-.063l-.818-1.888-.021-.063h-.021V26.99l-.021-.021-.1-.189-.923-1.972a19.468,19.468,0,0,1-1.028-3.273l-.147-.713v-.1l-.042-.21v-.1l-.021-.1-.021-.21-.021-.1v-.1a12.21,12.21,0,0,1-.021-1.616,10.494,10.494,0,0,1,.692-2.979l1.406-2.6.1-.126.336-.525.1-.126.5-.713a.227.227,0,0,0,.084-.1l.168-.21q.692-.86,1.217-1.406l1.133-1.154q.042-.021,0-.063-.021-.021-.063,0l-.336.273m12.841-3.84L26.207,3.532l-.4-.336-.65-.441a4.808,4.808,0,0,0-.776-.42,5.7,5.7,0,0,0-.9-.315,6.5,6.5,0,0,0-1.007-.21,9.665,9.665,0,0,0-2.2,0l-1.133.21-.294.084-.126.021-1.427.462-.273.126-.147.042-1.091.5q-.839.42-2.077,1.154l-3.378,2.5L8.477,8.945l-1.3,1.93-.5.944q-.063.063.021.063a.026.026,0,0,0,.042,0L9.211,8.862l.168-.147.147-.168,2.266-1.93.063-.021V6.574h.021l.021-.021L12,6.47l1.154-.755,4.175-2.245,1.867-.65.126-.021q.315-.084,1.049-.231a8.912,8.912,0,0,1,2.035-.1,6.51,6.51,0,0,1,1.784.357,7.179,7.179,0,0,1,.755.336l.65.357a9.619,9.619,0,0,1,.965.713l.734.692.042.063q.042.042.063,0,.042-.021,0-.063l-.168-.231M22.766.007q-.4-.021-1.175.021l-2.9.4L17.289.783,17.143.8l-1.259.378-.021.021L10.911,3.574q-.818.441-2.371,1.406L6.274,6.6A20.542,20.542,0,0,0,4.2,8.442,12.275,12.275,0,0,0,3.252,9.47a10.586,10.586,0,0,0-.86,1.112q-.378.525-.755,1.175a9.3,9.3,0,0,0-.608,1.28L.9,13.373l-.042.084-.378,1.28-.147.8v.084l-.021.168v-.063l-.042.21-.042.1-.042.21-.042.1-.021.21v.063L.1,16.688l-.021.1v.1l-.021.042V17l-.042.21v.126l-.021.1.126,3.441.546,2.5.126.4.042.21,1.867,4.931L2.686,28.9l2.308,7.617.441,2.6q.063.671.063,1.322l-.042,1.3-.147.965-.084.315-.441,1.238-.315.567-.818,1.007L2.6,46.609l-.588.315a8.272,8.272,0,0,1-1.238.462q-.063,0-.021.042,0,.063.042.021l.168-.021.483-.147a4.186,4.186,0,0,0,.629-.231,6.508,6.508,0,0,0,1.2-.629L3.8,46a3.842,3.842,0,0,0,.483-.483l.231-.252.546-.86a4.659,4.659,0,0,0,.294-.629l.231-.65A9.962,9.962,0,0,0,5.854,41.8l.1-1.364q0-.9-.042-1.364-.021-.4-.147-1.343l-.21-1.322L3.378,28.669l-.021-.021-1.49-3.987-.021-.1-.189-.588-.734-3.21L.755,18.325q.063-.776.063-.8V17.38l.021-.063.021-.189v-.063l.021-.042.021-.1v-.084l.021-.063V16.73l.084-.378.042-.1.021-.1.063-.189v-.063l.021-.168.021-.084v-.084l.042-.147.021-.168.126-.567L1.8,13.352a11.554,11.554,0,0,1,.567-1.175,13.225,13.225,0,0,1,.692-1.133q.42-.588.818-1.049l.9-.986q.839-.839,1.993-1.784l1.07-.818,3.42-2.161,4.868-2.434-.021.021.252-.1L20.5.678q.567-.084,1.133-.126A10.067,10.067,0,0,1,22.745.49l1.133.084A7.288,7.288,0,0,1,24.969.8a5.2,5.2,0,0,1,1.007.42l.252.126.5.357.147.147.168.126.042.063.1.084.126.168.147.147.168.231a8.913,8.913,0,0,1,.546.986,7.157,7.157,0,0,1,.357,1.049q.1.378.231,1.133a10.51,10.51,0,0,1,.1,1.133l.021.147.021.986q-.021.042.021.042l.042-.021.042-1.154A11.425,11.425,0,0,0,28.956,5.8a7.774,7.774,0,0,0-.189-1.133,9.177,9.177,0,0,0-.336-1.133l-.042-.126-.126-.273-.042-.063-.084-.21-.126-.189-.021-.021V2.609l-.252-.378-.1-.1L27.55,2,27.3,1.728l-.042-.063-.1-.1-.126-.084-.042-.063-.8-.567A8.5,8.5,0,0,0,25.095.364,5.13,5.13,0,0,0,23.941.112Q23.542.049,22.766.007Z" fill="#812511"/>
              </g>
            </g>
            <g id="Group_101813" data-name="Group 101813" transform="translate(2.222 4.35)">
              <g id="Group_101812" data-name="Group 101812" transform="translate(0 0)">
                <path id="Path_74477" data-name="Path 74477" d="M1.721,8.645q.063-.063-.021-.063H1.658L1.3,9.148,1.28,9.19l-.042.063-.063.126-.084.126-.441.944-.021.1-.21.567-.021.1-.147.5q-.168.986-.189,1.133l-.042.944L0,13.974v.168l.42,4.343.189.9.042.084.986,3.42,1.385,3.63a32.407,32.407,0,0,1,1.007,3.252l.671,3.21a24.294,24.294,0,0,1,.168,3.063L4.8,37.6l-.021.042v.126l-.021.042-.042.315-.168.608a2.731,2.731,0,0,1-.21.567l-.042.084-.021.063-.063.126-.084.126-.021.063-.042.063a8.636,8.636,0,0,1-.629.881,6.033,6.033,0,0,1-.692.671L2.1,41.9q-.147.1-.965.629l-.273.147-.084.063q-.063,0-.021.042,0,.063.042.021l.839-.378,1.3-.818.042-.021.063-.042.084-.084.1-.063.483-.441a5.6,5.6,0,0,0,.734-.9l.336-.525.273-.608.252-.839.021-.189.021-.042V37.81l.021-.084v-.1l.021-.084a11.971,11.971,0,0,0,.126-1.469A17.173,17.173,0,0,0,5.434,32.9l-.252-1.763L5.162,31.1v-.063l-.336-1.469a31.191,31.191,0,0,0-1.007-3.336L1.406,19.493,1.364,19.3l-.042-.1-.21-.86-.567-3.9v-.147l-.021-.084v-.252L.5,13.806v-.9q.042-.588.126-1.091a5.652,5.652,0,0,1,.21-.944l.042-.21.042-.1.021-.1.126-.378.65-1.427M17.856,3.105l-.168.126-.084.084-.608.5a6.346,6.346,0,0,0-.713.755,6.507,6.507,0,0,0-.671.881l-1.972,3.5-.147.315-1.154,3.231-.357,1.364q-.126.462-.294,1.385L11.163,20.6l.315,3.63V24.3l.021.021v.042l.8,3.966.1.315q0,.063.042.021.063,0,.021-.042L12,24.277l-.021-.021v-.1l-.021-.126-.084-3.4.608-5.078.042-.168q.063-.441.273-1.322l.063-.336.063-.147.608-2.14L15,7.826l1.679-2.938,1.238-1.364a8.234,8.234,0,0,1,1.175-.839l.231-.126.063-.021.063-.042.462-.21.147-.042.168-.084q.063,0,.021-.042,0-.063-.042-.021l-.336.063-.881.315-1.133.629M24.151.378,24.025.315,23.479.126l-.608-.1h-.147L22.64,0,21.612.042l-.168.021-.483.1-.168.021-.168.063-.084.021H20.5l-.042.021-.483.147h-.021l-.042.021-.084.021-.336.126-.084.021L17.08,1.784l-1.238.86A17.25,17.25,0,0,0,13.6,4.658L12.233,6.232l-.063.063-.021.042h-.021l-.021.042-.126.147-.042.084h-.021L11.9,6.63l-.021.042-.1.168-.126.147-.755,1.3A13.429,13.429,0,0,0,10.3,9.631,14.585,14.585,0,0,0,9.631,12.3a17.127,17.127,0,0,0-.189,2.455v.944l.021.126.042.86.336,2.5.126.546q0,.063.042.021.063,0,.021-.042L9.9,16.786l-.021-.126.021-.1v-.86l.021-.126v-.4l.021-.126.273-2.329.021-.063v-.084l.042-.147A15.4,15.4,0,0,1,11.016,9.9l.567-1.259.944-1.469.021-.042h.021l.021-.021.042-.084.189-.21.042-.063.483-.567.1-.147.734-.8a19.59,19.59,0,0,1,2.161-1.951l.567-.441,2.224-1.322.168-.063.294-.147h.042l.042-.021.063-.021.378-.168h.042l.042-.021.462-.168h.021L20.731.9,21.4.713l.147-.021L21.7.65l.567-.063h.147l.147-.021H22.7l.126.021a2.155,2.155,0,0,1,.525.063,1.893,1.893,0,0,1,.5.126l.462.168a5.008,5.008,0,0,1,.755.5,4.483,4.483,0,0,1,.588.567l.441.567.5.86.063.147.063.084.042.084q0,.063.042.021.063,0,.021-.042l-.021-.084-.042-.1a.288.288,0,0,0-.063-.147L26.564,3l-.273-.546a6.6,6.6,0,0,0-.4-.608,2.89,2.89,0,0,0-.567-.671,3.359,3.359,0,0,0-.8-.608L24.277.42Z" transform="translate(0 0)" fill="#380a00"/>
              </g>
            </g>
            <g id="Group_101815" data-name="Group 101815" transform="translate(17.218 3.522)">
              <g id="Group_101814" data-name="Group 101814" transform="translate(0 0)">
                <path id="Path_74478" data-name="Path 74478" d="M9.6,1.479l-.021-.042-.21-.147-.9-.5-.231-.1L8.148.661,7.875.535,6.176.073h-.1L5.588.01q-.5-.021-1.007,0L3.574.136,3.322.2l-.9.315-.1.063L2.168.64,2.105.682,1.811.829a5,5,0,0,0-.65.462l-.042.021-.042.042L1.014,1.4.28,2.109l-.273.357q-.021.021.021.063H.07l.567-.357,1.658-.839.1-.021.084-.042.1-.021.294-.1.1-.021.1-.042.65-.147h.1l.776-.1H5.756l.1.021h.231l.1.021.441.042.1.021h.1l.189.042L7.246,1l.483.1h.084l1.742.4Q9.6,1.542,9.6,1.479Z" fill="#380a00"/>
              </g>
            </g>
          </g>
          <g id="Group_101831" data-name="Group 101831" transform="translate(48.013 15.76) rotate(1.74)">
            <g id="Group_101818" data-name="Group 101818" transform="translate(0.115 0)">
              <g id="Group_101817" data-name="Group 101817" transform="translate(0 0)">
                <path id="Path_74479" data-name="Path 74479" d="M20.613,2.455A18.73,18.73,0,0,0,11.969,0,11.9,11.9,0,0,0,4.4,3.147,11.981,11.981,0,0,0,.514,10.155,33.591,33.591,0,0,0,.262,20.2q.755-.965,1.469-1.93A22.816,22.816,0,0,1,7.71,12.609a8.475,8.475,0,0,1,3.231-1.259q4.553.042,5.623,4.616a71.821,71.821,0,0,1,1.3,7.364q.481,3.871,4.406,6.8a17.31,17.31,0,0,1,5.854,8.917,29.521,29.521,0,0,1,1.657,9.315,38.053,38.053,0,0,1-.21,4.3,26.587,26.587,0,0,0,4.847-4.322,33.55,33.55,0,0,0,3.755-6.189,21.806,21.806,0,0,0,2.266-9.21A24.483,24.483,0,0,0,38.909,23.6,14.4,14.4,0,0,0,33.1,16.386,16.84,16.84,0,0,1,27.013,9.42,15.12,15.12,0,0,0,20.613,2.455Z" fill="#540e00"/>
              </g>
            </g>
            <g id="Group_101820" data-name="Group 101820" transform="translate(5.843 2.606)">
              <g id="Group_101819" data-name="Group 101819" transform="translate(0 0)">
                <path id="Path_74480" data-name="Path 74480" d="M12.074,8.178l-.042-.084L11.067,7l-.441-.378-.147-.1-.063-.063-.084-.063a7.165,7.165,0,0,0-1.259-.776l-.168-.084-.063-.042-.084-.042-.168-.063L8.55,5.367l-.021-.021H8.508L8.424,5.3l-.65-.252a8.527,8.527,0,0,0-1.343-.315,6.951,6.951,0,0,0-1.322,0l-.9.168L4,4.968l-.042.021H3.913l-.126.042-.063.042H3.682l-.021.021-.147.042-.063.042L3.137,5.3l-.231.126a8.342,8.342,0,0,0-.839.545l-.441.336-.063.084L1.4,6.521l-.126.147-.084.063-.734.8L.43,7.57l-.084.084L.01,8.094q-.021.042,0,.063.042.042.063,0l.252-.273,1.049-.965.084-.042.629-.483.189-.1a7.543,7.543,0,0,1,.839-.462,8.118,8.118,0,0,1,.965-.336,5.223,5.223,0,0,1,2.245-.1l.147.042.168.021.147.042.147.021,1.28.5h.021l1.07.608.629.462L10,7.129l.86.839a6.478,6.478,0,0,1,1.406,2.392,6.4,6.4,0,0,1,.189.671l.189.881V12l.021.084.063.713v.189l.65,5.749.042.147.021.168.629,2.245.042.063.042.126.273.608a5.662,5.662,0,0,0,.525.86l.084.084.063.1.42.462a6.142,6.142,0,0,0,.587.483l.378.252.231.1.063.042.126.063.1.021a.288.288,0,0,0,.147.063l.1.042.084.021q.042.042.042-.021.042-.042-.021-.042l-.084-.042-.084-.063-.147-.063a5.815,5.815,0,0,1-.818-.566l-.483-.483a6.043,6.043,0,0,1-.483-.671,5.846,5.846,0,0,1-.42-.839l-.294-.776V21.06l-.126-.4-.462-2.371L13.438,11.6l-.378-1.511-.147-.357-.021-.1-.483-.965-.063-.084-.042-.084-.1-.168-.126-.147M14,1.255l-.839-.42L13.1.793,11.592.164,11.109.017q-.042-.042-.042.021-.042.042.021.042l3.315,2.1.063.063.545.441a16.072,16.072,0,0,1,1.2,1.2l.273.315.063.1.084.084.189.252.063.1.147.189.021.042.042.042L18.243,6.9l.315.629.084.21.063.1L19.439,9.9v.063l.042.126.126.273a4.638,4.638,0,0,0,.441.839,5.265,5.265,0,0,0,.545.713,5.638,5.638,0,0,0,.587.587,4.369,4.369,0,0,0,.587.5l.126.126a.413.413,0,0,1,.147.1l.294.189.063.063,1.93,1.091.231.084q.042.042.042-.021a.026.026,0,0,0,0-.042h-.021L23.4,13.717l-.1-.063-1.2-1.028L21.1,11.493q-.357-.525-.441-.671l-.042-.084-.063-.084-.126-.273-.021-.063-.1-.231-.063-.21-.042-.084V9.752l-.021-.042V9.689l-.4-1.364a15.162,15.162,0,0,0-.8-1.8,14.246,14.246,0,0,0-1.028-1.678L17.8,4.653l-.063-.1L17.7,4.507l-.021-.063-.147-.189-.084-.084-.063-.1-.629-.713A11.464,11.464,0,0,0,15.41,2.178a13.65,13.65,0,0,0-1.322-.86L14,1.255M34.545,27l-.021.042-.189,2.581v.1l-.021.084-.189,1.636v.1l-.776,3.9-.042.126-.021.147-1.2,3.5-.189.42q-.5,1.112-1.07,2.14-.713,1.259-1.217,1.972l-.084.126-.042.042-.86,1.175-.063.1-3.21,3.441-.1.126-.126.084-1.049.944q-.021.042,0,.063h.063l2.581-1.909.084-.084.084-.063,2.1-2.077.084-.1a.227.227,0,0,0,.084-.1l.357-.42.1-.1,2.2-3.273.021-.063,1.07-2.266,1.343-4.49.42-3.294v-.126l.021-.126-.1-4.343Z" fill="#812511"/>
              </g>
            </g>
            <g id="Group_101822" data-name="Group 101822" transform="translate(0 0.042)">
              <g id="Group_101821" data-name="Group 101821" transform="translate(0 0)">
                <path id="Path_74481" data-name="Path 74481" d="M13.679.042,13.637.021,12.714,0,10.239.252,9.315.441q-.692.189-.986.294Q8.287.755,7.8.923l-.4.147-.126.063a7.339,7.339,0,0,0-1.049.525q-.231.126-1.049.65a10.558,10.558,0,0,0-.986.818,10,10,0,0,0-.9.944l-.5.65-.063.063-.042.084L2.5,5.14a8.242,8.242,0,0,0-.671,1.154A13.738,13.738,0,0,0,.818,8.749L.252,11.225,0,14.141l.315,5.581.063.315q0,.063.042.021.063,0,.021-.042l.21-6.378.357-2.266q.1-.587.252-1.2L1.595,9q.21-.629.441-1.175A12.507,12.507,0,0,1,2.56,6.672,11.546,11.546,0,0,1,3.189,5.6l.441-.65L4.742,3.693,6.105,2.581q.168-.1.483-.315l.126-.084.126-.063.1-.084L8.036,1.49,9.9.8l.21-.042.1-.042.923-.231,2.518-.4Q13.721.084,13.679.042Z" fill="#812511"/>
              </g>
            </g>
            <g id="Group_101824" data-name="Group 101824" transform="translate(0.529 8.917)">
              <g id="Group_101823" data-name="Group 101823" transform="translate(0 0)">
                <path id="Path_74482" data-name="Path 74482" d="M9.9.063,9,.273a6.9,6.9,0,0,0-.9.378L7.717.839l-1.091.713-.944.8L4.255,3.86l-.063.1-1.007,1.3q-.315.42-.965,1.448L.1,10.742l-.084.231q-.042.042.021.042.042.042.042-.021l.294-.42.084-.147L.9,9.777l.084-.1.147-.252L3.793,5.707,6.248,2.979l1.636-1.3.189-.1.042-.042.336-.189.8-.357Q9.479.9,10.025.755a6.609,6.609,0,0,1,.8-.1h.462l.1.021h.084l.084.021.357.042.5.126,1.007.42L14.7,2.1l.042.042.063.042.168.147q.042.042.063,0,.042-.021,0-.063l-.608-.65a7.906,7.906,0,0,0-.818-.65,4.651,4.651,0,0,0-1.2-.629L11.661.1A6.177,6.177,0,0,0,10.8,0L9.9.063M20.074,9.231l-.021.126.021,4.007.1.818.126.525.042.1.021.1.042.1a5.273,5.273,0,0,0,.378.8,6.428,6.428,0,0,0,.525.734,5.391,5.391,0,0,0,.65.629l.168.126.084.084.357.252.084.042.566.336.923.42.189.063.5.231a4.933,4.933,0,0,1,.608.315l.566.336.483.378.713.8.126.21.231.545.147.525v.042l.021.042v.063l.021.063.042.021.042-.084v-.462l-.021-.084v-.084l-.1-.5a3.525,3.525,0,0,0-.189-.462,3.219,3.219,0,0,0-.273-.5l-.168-.252-.21-.231a3.212,3.212,0,0,0-.5-.483l-1.217-.839-1.469-.713-.084-.063-.168-.084-.084-.063-.084-.042-.231-.168-.084-.042-.084-.063-.063-.063-.315-.231a6.132,6.132,0,0,1-.525-.545L21.5,15.4l-.336-.671-.021-.084-.042-.084-.189-.713-.587-6.105a.037.037,0,0,0-.042-.042l-.021.021-.189,1.385v.126M35.18,20.771l-.545-.671a5.611,5.611,0,0,0-1.028-.944l-.9-.587-1.154-.545L31.467,18l-.084-.042-1.616-.629L24.9,14.9l-.126-.084-.084-.021-.189-.126-.042-.021-.021-.021-.084-.042-.252-.168-.042-.042-.189-.126a6.59,6.59,0,0,1-.839-.818l-.042-.042-.525-.755-.021-.063-.042-.042q-.21-.4-.441-.965a10.025,10.025,0,0,1-.441-1.8l-.147-2.727q.042-.042-.021-.042l-.042.021-.168,1.3a13.152,13.152,0,0,0,0,1.49l.189,1.406.042.126.021.147.084.252a6.823,6.823,0,0,0,.4,1.07,8.166,8.166,0,0,0,.65,1.028l.294.378.126.126.042.063.252.231.063.042.252.231.063.042.063.063.357.252.021.021,3.147,1.783.168.063.147.084,3.252,1.427.336.1.021.021.042.021.084.021.839.378.063.021.986.587a7.772,7.772,0,0,1,.944.818l.315.336.168.252.084.084V21.3l.189.273.063.126.084.126.357.776a7.015,7.015,0,0,1,.273,1.07,4.21,4.21,0,0,1,0,1.028v.126l-.021.126v.063l-.021.063-.734,2.874-.063.126-.042.147-.357.923q-.042.042.021.042.042.042.042-.021l.42-.755,1.112-2.874L36,25.408l.042-.126.021-.1.021-.063v-.042l.021-.042.042-.273a3.853,3.853,0,0,0,.042-1.133v-.168l-.021-.147v-.063l-.021-.084-.021-.147-.021-.042v-.042l-.021-.084-.021-.147-.042-.147-.063-.147-.063-.231-.042-.084-.042-.147-.294-.608-.168-.273-.063-.147h-.021V20.9l-.021-.021-.021-.042Z" transform="translate(0)" fill="#380a00"/>
              </g>
            </g>
            <g id="Group_101826" data-name="Group 101826" transform="translate(0.445 7.385)">
              <g id="Group_101825" data-name="Group 101825" transform="translate(0 0)">
                <path id="Path_74483" data-name="Path 74483" d="M7.108,0,6.982.1,6.311.566,4.989,1.741l-.084.1-.629.65L2.87,4.343,1.59,6.651l-.063.168-.084.147-.986,2.9-.063.252-.357,2.1-.021.483q-.042.042.021.042l.042-.021L1.4,9.064,3.646,4.637,5.661,1.8,7.171.063V0Z" fill="#380a00"/>
              </g>
            </g>
            <g id="Group_101828" data-name="Group 101828" transform="translate(11.644 10.662)">
              <g id="Group_101827" data-name="Group 101827" transform="translate(0 0)">
                <path id="Path_74484" data-name="Path 74484" d="M6.294,7.444,5.917,5.325a4.784,4.784,0,0,0-.252-.839L4.93,2.954a7.387,7.387,0,0,0-.462-.692l-.1-.168-.042-.042L4.3,2.01l-.063-.063-.063-.084L3.42,1.15,2.769.709,2.727.688,2.706.667,2.623.625,2.6.6,2.476.541,2.413.52,2.266.436,1.72.248A4.669,4.669,0,0,0,.818.08L.252.017H.042Q0-.025,0,.038L.021.08.776.311a2,2,0,0,1,.378.126L1.595.6a3.252,3.252,0,0,1,.483.252L2.308,1l.021.021H2.35l.021.021.063.042.021.021.042.021.042.042.483.42a5.485,5.485,0,0,1,.462.483l.1.147.063.063.042.084.063.063.818,1.49.021.1.168.357.252.755.525,2.769v.042l.021.063.608,3.818.021.042v.042l.294,1.448.042.126v.084h.021v.063a5.609,5.609,0,0,0,.294.86l.315.671.042.042q0,.063.042.021.063,0,.021-.042v-.063L7.2,14.976,6.924,13.7v-.168H6.9V13.3l-.126-1.385-.021-.084v-.084L6.588,9.92V9.731L6.357,7.864V7.822l-.021-.063-.021-.1Z" fill="#380a00"/>
              </g>
            </g>
            <g id="Group_101830" data-name="Group 101830" transform="translate(22.722 30.205)">
              <g id="Group_101829" data-name="Group 101829" transform="translate(0 0)">
                <path id="Path_74485" data-name="Path 74485" d="M0,.028V.07L1.2,1.245a.9.9,0,0,1,.168.21l.21.189.587.713.063.063.042.063.545.671q.776,1.112.839,1.238L4.658,6.154l.755,1.7L6.588,11.84l.671,4.154.042.021.021-.042.063-1.2.021-.1-.063-1.888-.063-.5v-.189l-.1-.734L6.546,8.588q-.231-.734-.608-1.636Q5.56,6.112,5.182,5.4l-.441-.734L4.7,4.581l-.189-.252-.1-.189L4.28,3.972q-.294-.42-.965-1.217L1.657,1.14a.9.9,0,0,1-.21-.168L.063.007Q.042-.014,0,.028Z" fill="#380a00"/>
              </g>
            </g>
          </g>
          <g id="Group_101833" data-name="Group 101833" transform="translate(35.051 84.316)">
            <g id="Group_101832" data-name="Group 101832" transform="translate(0 0)">
              <path id="Path_74486" data-name="Path 74486" d="M3.193,2.4v.8h.8m-.8,0v.8m3.193-.8L3.193,6.387,0,3.193,3.193,0Zm-3.992,0h.8" transform="translate(0 0)" fill="none" stroke="rgba(0,0,0,0)" stroke-linecap="round" stroke-linejoin="round" stroke-width="0.078"/>
            </g>
          </g>
        </g>
        <g id="Group_101854" data-name="Group 101854" transform="translate(-277.92 -680.047) rotate(-2.715)">
          <g id="Group_101836" data-name="Group 101836" transform="translate(0.373 59.282)">
            <g id="Group_101835" data-name="Group 101835" transform="translate(0 0)">
              <path id="Path_74487" data-name="Path 74487" d="M0,28.257,19.743,33.1,25.81,6.412,8.142,0Z" transform="translate(0)" fill="#e2ad98"/>
            </g>
          </g>
          <g id="Group_101838" data-name="Group 101838" transform="translate(0.213 79.398)">
            <g id="Group_101837" data-name="Group 101837" transform="translate(0 0)">
              <path id="Path_74488" data-name="Path 74488" d="M20.275,10.138A9.791,9.791,0,0,0,17.3,2.953,9.747,9.747,0,0,0,10.138,0,9.836,9.836,0,0,0,2.953,2.953,9.836,9.836,0,0,0,0,10.138,9.747,9.747,0,0,0,2.953,17.3a9.791,9.791,0,0,0,7.184,2.98A9.7,9.7,0,0,0,17.3,17.3,9.7,9.7,0,0,0,20.275,10.138Z" fill="#e2ad98"/>
            </g>
          </g>
          <g id="Group_101841" data-name="Group 101841" transform="translate(6.891 55.823)">
            <g id="Group_101840" data-name="Group 101840" transform="translate(0 0)">
              <g id="Group_101839" data-name="Group 101839">
                <path id="Path_74489" data-name="Path 74489" d="M1.916,0,0,9.313a37.655,37.655,0,0,0,18.2,5.162l1.836-6.306Z" fill="#c18770"/>
              </g>
            </g>
          </g>
          <g id="Group_101843" data-name="Group 101843" transform="translate(0.053 6.971)">
            <g id="Group_101842" data-name="Group 101842" transform="translate(0 0)">
              <path id="Path_74490" data-name="Path 74490" d="M49.118,14.235,23.841,0A297.714,297.714,0,0,0,0,51.539a63.023,63.023,0,0,0,37.171,9.073A107.78,107.78,0,0,1,49.118,14.235Z" fill="#7a2230"/>
            </g>
          </g>
          <g id="Group_101845" data-name="Group 101845" transform="translate(21.898 0)">
            <g id="Group_101844" data-name="Group 101844" transform="translate(0 0)">
              <path id="Path_74491" data-name="Path 74491" d="M28.9,14.475A14.009,14.009,0,0,0,24.665,4.231,13.922,13.922,0,0,0,14.448,0,14.009,14.009,0,0,0,4.2,4.231,14.054,14.054,0,0,0,0,14.475,13.878,13.878,0,0,0,4.2,24.665a13.965,13.965,0,0,0,10.244,4.257,13.878,13.878,0,0,0,10.217-4.257A13.834,13.834,0,0,0,28.9,14.475Z" fill="#7a2230"/>
            </g>
          </g>
          <g id="Group_101848" data-name="Group 101848" transform="translate(0 18.045)">
            <g id="Group_101847" data-name="Group 101847" transform="translate(0 0)">
              <g id="Group_101846" data-name="Group 101846" transform="translate(0 0)">
                <path id="Path_74492" data-name="Path 74492" d="M17.774.021q-.053-.053-.053.027-.984,1.756-1.3,2.395L14.395,6.354l-8.248,18.2L0,40.412l2.155,1.543.532.293.16.106,2.075,1.091.186.08.16.106,6.519,2.448q.053.053.053-.027Q11.894,46,11.814,46l-8.2-5.162L3.486,40.7l-.452-.319L2.9,40.252,2.341,39.8l9.286-21.765,5.4-15.353q.293-.851.772-2.608Q17.854.021,17.774.021Z" fill="#4b0f18"/>
              </g>
            </g>
          </g>
          <g id="Group_101850" data-name="Group 101850" transform="translate(41.38 17.806)">
            <g id="Group_101849" data-name="Group 101849" transform="translate(0 0)">
              <path id="Path_74493" data-name="Path 74493" d="M8.988.021q-.053-.053-.053.027L4.385,8.11l-.053.16L3.267,10.585l-1.676,4.63-1.144,4.6L.021,22.478q-.053.053.027.053L.1,22.5l3.086-8.86,5-11.016L9.015.075Q9.068.021,8.988.021Z" fill="#4b0f18"/>
            </g>
          </g>
          <g id="Group_101853" data-name="Group 101853" transform="translate(33.113 11.215)">
            <g id="Group_101852" data-name="Group 101852" transform="translate(0 0)">
              <g id="Group_101851" data-name="Group 101851">
                <path id="Path_74494" data-name="Path 74494" d="M3.206.013.013,3.206a.033.033,0,0,0,0,.053L3.206,6.452a.033.033,0,0,0,.053,0L6.452,3.259a.033.033,0,0,0,0-.053L3.259.013a.033.033,0,0,0-.053,0m3.14,3.22L3.233,6.346l.027.027H3.206l.027-.027L.12,3.233l-.027.027V3.206l.027.027L3.233.12,6.346,3.233M3.18,3.18H2.435l-.053.053.053.053H3.18v.745l.053.053.053-.053V3.286h.745l.053-.053L4.031,3.18H3.286V2.435l-.053-.053-.053.053Z" fill="rgba(0,0,0,0)"/>
              </g>
            </g>
          </g>
        </g>
        <g id="Group_101861" data-name="Group 101861" transform="translate(-288.758 -587.455) rotate(-15.635)">
          <g id="Group_101856" data-name="Group 101856" transform="translate(0 0.239)">
            <g id="Group_101855" data-name="Group 101855" transform="translate(0 0)">
              <path id="Path_74495" data-name="Path 74495" d="M0,65.91l9.18,3.912A124.526,124.526,0,0,1,22.644,43.4q9.18-14.236,11.814-24.986a53.4,53.4,0,0,0,.718-13.7L15.407,0a199.867,199.867,0,0,0-6.04,21.979Z" fill="#e2ad98"/>
            </g>
          </g>
          <g id="Group_101858" data-name="Group 101858" transform="translate(1.549 8.414)">
            <g id="Group_101857" data-name="Group 101857" transform="translate(0 0)">
              <path id="Path_74496" data-name="Path 74496" d="M11.224.048l-3.166,10L4.625,28.44.553,47.784v.053l-.027.08L.021,50.5q-.053.053.027.053Q.1,50.6.1,50.525l.825-2.368.08-.186v-.08l1.3-4.231L6.833,25.513q.373-2.315.4-2.421l1.011-7L11.3.075q.053-.053-.027-.053Q11.224-.032,11.224.048Z" fill="#c18770"/>
            </g>
          </g>
          <g id="Group_101860" data-name="Group 101860" transform="translate(22.006 0)">
            <g id="Group_101859" data-name="Group 101859" transform="translate(0 0)">
              <path id="Path_74497" data-name="Path 74497" d="M3.193,2.395v.8h.8m-.8,0v.8m3.193-.8L3.193,6.386,0,3.193,3.193,0Zm-3.991,0h.8" fill="none" stroke="rgba(0,0,0,0)" stroke-linecap="round" stroke-linejoin="round" stroke-width="0.078"/>
            </g>
          </g>
        </g>
        <g id="Group_101866" data-name="Group 101866" transform="translate(-277.437 -526.037) rotate(-10.808)">
          <g id="Group_101863" data-name="Group 101863" transform="translate(0 0)">
            <g id="Group_101862" data-name="Group 101862" transform="translate(0 0)">
              <path id="Path_74498" data-name="Path 74498" d="M5.109,14.823A8.924,8.924,0,0,0,5.3,15.993q3.087,10.485-3.38,12.933A59.432,59.432,0,0,0,0,21.183l.825,5.03q.293,4.125,2.315,3.726,2-.426,3.353-4.364,1.331-3.938-1.384-10.751m.027-5.216a6.3,6.3,0,0,1,1.6-3.326A43.847,43.847,0,0,0,5.136,0,26.883,26.883,0,0,1,5.136,9.607Z" transform="translate(2.98 11.363)" fill="#c18770"/>
              <path id="Path_74499" data-name="Path 74499" d="M13.7.559A4.262,4.262,0,0,0,11.6,0,5.848,5.848,0,0,0,9.1.559Q3.034,3.326,0,20.783A95.364,95.364,0,0,0,2.98,32.546,59.432,59.432,0,0,1,4.9,40.29q6.467-2.448,3.38-12.933a8.924,8.924,0,0,1-.186-1.171,5.512,5.512,0,0,1-.373-2.794q.053-.479.4-2.422a26.883,26.883,0,0,0,0-9.607,43.847,43.847,0,0,1,1.6,6.28,58.761,58.761,0,0,1,.825,9.607q3.353.585,4.657-3.938a16.394,16.394,0,0,0,.559-4.018,13.768,13.768,0,0,0-.346-3.646A15.754,15.754,0,0,1,15.7,12.4a50.667,50.667,0,0,0,.373-5.269Q16.073,1.969,13.7.559Z" fill="#e2ad98"/>
            </g>
          </g>
          <g id="Group_101865" data-name="Group 101865" transform="translate(7.531 1.198)">
            <g id="Group_101864" data-name="Group 101864" transform="translate(0 0)">
              <path id="Path_74500" data-name="Path 74500" d="M3.193,2.4v.8h.8m-.8,0v.8m3.193-.8L3.193,6.387,0,3.193,3.193,0Zm-3.992,0h.8" fill="none" stroke="rgba(0,0,0,0)" stroke-linecap="round" stroke-linejoin="round" stroke-width="0.078"/>
            </g>
          </g>
        </g>
      </g>
    </g>
  </g>
</svg>
