<svg xmlns="http://www.w3.org/2000/svg" xmlns:xlink="http://www.w3.org/1999/xlink" width="375" height="270" viewBox="0 0 375 270">
  <defs>
    <clipPath id="clip-path">
      <rect id="Rectangle_8650" data-name="Rectangle 8650" width="375" height="270" transform="translate(15808 -11926)" fill="#fff" stroke="#707070" stroke-width="1" opacity="0.59"/>
    </clipPath>
    <clipPath id="clip-path-2">
      <rect id="Rectangle_8649" data-name="Rectangle 8649" width="189" height="210" transform="translate(88 124)" fill="#fff"/>
    </clipPath>
  </defs>
  <g id="Mask_Group_16583" data-name="Mask Group 16583" transform="translate(-15808 11926)" clip-path="url(#clip-path)">
    <g id="Mask_Group_16574" data-name="Mask Group 16574" transform="translate(15808 -12026)" clip-path="url(#clip-path-2)">
      <g id="female_teen_4" data-name="female teen 4" transform="translate(338.893 937)">
        <g id="Group_102127" data-name="Group 102127" transform="translate(-124.322 -583.343) rotate(-161.121)">
          <g id="Group_102113" data-name="Group 102113" transform="translate(0.152 6.923)">
            <g id="Group_102112" data-name="Group 102112" transform="translate(0 0)">
              <path id="Path_74607" data-name="Path 74607" d="M0,4.6,18.747,0l5.761,25.342L7.731,31.431Z" fill="#e2ad98"/>
            </g>
          </g>
          <g id="Group_102115" data-name="Group 102115" transform="translate(0 0)">
            <g id="Group_102114" data-name="Group 102114" transform="translate(0)">
              <path id="Path_74608" data-name="Path 74608" d="M19.252,9.626a9.3,9.3,0,0,1-2.83,6.822,9.256,9.256,0,0,1-6.8,2.8,9.34,9.34,0,0,1-6.822-2.8A9.339,9.339,0,0,1,0,9.626a9.256,9.256,0,0,1,2.8-6.8A9.3,9.3,0,0,1,9.626,0a9.214,9.214,0,0,1,6.8,2.83A9.214,9.214,0,0,1,19.252,9.626Z" fill="#e2ad98"/>
            </g>
          </g>
          <g id="Group_102118" data-name="Group 102118" transform="translate(6.291 28.28)">
            <g id="Group_102117" data-name="Group 102117" transform="translate(0 0)">
              <g id="Group_102116" data-name="Group 102116" transform="translate(0 0)">
                <path id="Path_74609" data-name="Path 74609" d="M2.527,15.783,0,4.439Q9.122-.279,17.459.018l2.375,9.6Z" fill="#c18770"/>
              </g>
            </g>
          </g>
          <g id="Group_102120" data-name="Group 102120" transform="translate(1.314 29.758)">
            <g id="Group_102119" data-name="Group 102119" transform="translate(0 0)">
              <path id="Path_74610" data-name="Path 74610" d="M42.7,60.87A13.219,13.219,0,0,1,33,64.887,13.3,13.3,0,0,1,23.27,60.87a13.511,13.511,0,0,1-3.512-5.937h-.025Q13.555,34.377,0,8.342,14.983-.5,35.524.03A273.929,273.929,0,0,1,46.691,49.879h-.025q.051.623.051,1.263A13.3,13.3,0,0,1,42.7,60.87Z" fill="#7a2230"/>
            </g>
          </g>
          <g id="Group_102123" data-name="Group 102123" transform="translate(16.448 29.662)">
            <g id="Group_102122" data-name="Group 102122" transform="translate(0 0)">
              <g id="Group_102121" data-name="Group 102121" transform="translate(0 0)">
                <path id="Path_74611" data-name="Path 74611" d="M29.232,35.3q.051.051-.025.051l-.051-.025L25.342,24.887,18.621,2.223,14.73,2.072.051,2.223A.045.045,0,0,1,0,2.173l.025-.025,4.851-.935L14.654,0l5.811.051,4.876,17.332Z" fill="#4b0f18"/>
              </g>
            </g>
          </g>
          <g id="Group_102126" data-name="Group 102126" transform="translate(31.241 77.856)">
            <g id="Group_102125" data-name="Group 102125" transform="translate(0 0)">
              <g id="Group_102124" data-name="Group 102124">
                <path id="Path_74612" data-name="Path 74612" d="M6.127,3.1,3.1,6.127a.032.032,0,0,1-.051,0L.013,3.1a.032.032,0,0,1,0-.051L3.045.013a.032.032,0,0,1,.051,0L6.127,3.045a.032.032,0,0,1,0,.051M3.07.114,3.1.088H3.045L3.07.114.114,3.07.088,3.045V3.1L.114,3.07,3.07,6.026,6.026,3.07,3.07.114M3.12,3.828l-.051.051-.051-.051V3.12H2.312L2.261,3.07l.051-.051h.707V2.312l.051-.051.051.051v.707h.707l.051.051-.051.051H3.12Z" fill="rgba(0,0,0,0)"/>
              </g>
            </g>
          </g>
        </g>
        <g id="Group_102135" data-name="Group 102135" transform="translate(-101.296 -534.275) rotate(175.277)">
          <g id="Group_102129" data-name="Group 102129" transform="translate(0 0)">
            <g id="Group_102128" data-name="Group 102128" transform="translate(0 0)">
              <path id="Path_74613" data-name="Path 74613" d="M0,3.715,8.718,0A118.255,118.255,0,0,0,21.5,25.092Q30.222,38.611,32.723,48.82a50.708,50.708,0,0,1,.682,13.014L14.631,66.306A189.8,189.8,0,0,1,8.895,45.434Z" fill="#e2ad98"/>
            </g>
          </g>
          <g id="Group_102131" data-name="Group 102131" transform="translate(1.471 10.517)">
            <g id="Group_102130" data-name="Group 102130" transform="translate(0 0)">
              <path id="Path_74614" data-name="Path 74614" d="M10.658,47.981l-3.007-9.5L4.392,21.019.526,2.648V2.6L.5,2.522.02.071Q-.03.02.045.02.1-.03.1.045L.879,2.294l.076.177v.076L2.193,6.565,6.489,23.8q.354,2.2.379,2.3l.96,6.646,2.906,15.212q.051.051-.025.051Q10.658,48.057,10.658,47.981Z" fill="#c18770"/>
            </g>
          </g>
          <g id="Group_102134" data-name="Group 102134" transform="translate(20.86 60.431)">
            <g id="Group_102133" data-name="Group 102133" transform="translate(0 0)">
              <g id="Group_102132" data-name="Group 102132">
                <path id="Path_74615" data-name="Path 74615" d="M6.128,3.1,3.1,6.128a.032.032,0,0,1-.051,0L.013,3.1a.032.032,0,0,1,0-.051L3.045.013a.032.032,0,0,1,.051,0L6.128,3.045a.032.032,0,0,1,0,.051M3.07.114,3.1.088H3.045L3.07.114.114,3.07.088,3.045V3.1L.114,3.07,3.07,6.027,6.027,3.07,3.07.114m.051,3.715-.051.051L3.02,3.828V3.121H2.312L2.262,3.07l.051-.051H3.02V2.312l.051-.051.051.051V3.02h.708l.051.051-.051.051H3.121Z" fill="rgba(0,0,0,0)"/>
              </g>
            </g>
          </g>
        </g>
        <g id="Group_102141" data-name="Group 102141" transform="matrix(-0.996, 0.089, -0.089, -0.996, -87.856, -503.814)">
          <g id="Group_102137" data-name="Group 102137" transform="translate(0 0)">
            <g id="Group_102136" data-name="Group 102136">
              <path id="Path_74616" data-name="Path 74616" d="M4.2,3.235q0-.1.2-1.542l.505.48A4,4,0,0,1,5.788,4.3q-.607,7.026-.531,14.609A51.276,51.276,0,0,1,4.2,3.235m6.47,16.757q-.152-.632-.253-1.314a52.975,52.975,0,0,1-.3-15.392A25.34,25.34,0,0,1,10.59,0a4.258,4.258,0,0,1,1.466,2.73,2.348,2.348,0,0,1-.1.556,71.528,71.528,0,0,0-1.314,15.291q.025.682.025,1.415M.834,10.009v4.12A21.875,21.875,0,0,0,2,20.573,13.9,13.9,0,0,1,.935,17.49q-.2-.657-.455-1.39A17.14,17.14,0,0,1,0,11.652,8.632,8.632,0,0,0,.834,10.009Z" transform="translate(0.863 1.778)" fill="#c18770"/>
              <path id="Path_74617" data-name="Path 74617" d="M14.662,39.083l-.025-.1h-.1a8.514,8.514,0,0,1-6.091-4.954Q6.9,31.678,4.982,28.114q-.43-.708-.859-1.34a4.861,4.861,0,0,1-.43-.657q-.657-.96-1.213-1.82A18.64,18.64,0,0,1,.1,19.142q-.4-1.668.758-5.712a17.14,17.14,0,0,0,.48,4.448q.253.733.455,1.39a13.9,13.9,0,0,0,1.062,3.083A21.875,21.875,0,0,1,1.7,15.906v-4.12l.076-1.794a9.312,9.312,0,0,1,.253-1.264q.379-1.82.708-3.715l.025-.1q1.39-2.452,2.5-1.441-.2,1.441-.2,1.542A51.276,51.276,0,0,0,6.12,20.683Q6.044,13.1,6.65,6.075a7.5,7.5,0,0,1,.076-1.062q.2-1.921.657-4.3,2.78-1.845,4.069,1.062a25.34,25.34,0,0,0-.48,3.286,52.975,52.975,0,0,0,.3,15.392q.1.682.253,1.314,0-.733-.025-1.415A71.527,71.527,0,0,1,12.817,5.064a2.348,2.348,0,0,0,.1-.556q.278-.96.758-2.553,3.943.505,4.878,3.185A8.041,8.041,0,0,1,18.4,9.386q-1.592,8.745-.025,12.536,1.542.329,1.34-3.766-.3-4.625,1.516-5.914a3.923,3.923,0,0,1,4.827-.126q-1.693,7.759-.91,11.6.733,3.867.733,3.943a14.443,14.443,0,0,1-.784,1.82,49.007,49.007,0,0,1-2.553,4.752,14.238,14.238,0,0,1-1.062,1.39,8.273,8.273,0,0,1-3.21,2.73,1.975,1.975,0,0,1-.4.152,5.355,5.355,0,0,1-2.452.632A5.73,5.73,0,0,1,14.662,39.083Z" fill="#e2ad98"/>
            </g>
          </g>
          <g id="Group_102140" data-name="Group 102140" transform="translate(11.743 31.463)">
            <g id="Group_102139" data-name="Group 102139" transform="translate(0 0)">
              <g id="Group_102138" data-name="Group 102138">
                <path id="Path_74618" data-name="Path 74618" d="M6.129,3.1,3.1,6.129a.032.032,0,0,1-.051,0L.013,3.1a.032.032,0,0,1,0-.051L3.046.013a.032.032,0,0,1,.051,0L6.129,3.046a.032.032,0,0,1,0,.051M3.071.114,3.1.088H3.046l.025.025L.114,3.071.088,3.046V3.1l.025-.025L3.071,6.028,6.028,3.071,3.071.114m.051,3.715-.051.051L3.02,3.829V3.121H2.313l-.051-.051.051-.051H3.02V2.313l.051-.051.051.051V3.02h.708l.051.051-.051.051H3.121Z" fill="rgba(0,0,0,0)"/>
              </g>
            </g>
          </g>
        </g>
        <g id="Group_102150" data-name="Group 102150" transform="translate(-215.879 -646.837) rotate(-9.789)">
          <g id="Group_102143" data-name="Group 102143" transform="translate(0.051 3.589)">
            <g id="Group_102142" data-name="Group 102142" transform="translate(0 0)">
              <path id="Path_74619" data-name="Path 74619" d="M74.89,28.535h-.076A32.29,32.29,0,0,0,65.285,9.883,32.511,32.511,0,0,0,41.426,0a32.457,32.457,0,0,0-23.86,9.883A32.3,32.3,0,0,0,7.709,33.009H7.658L0,97.587q50.019,19.361,83.205-3.968Z" fill="#ece7de"/>
            </g>
          </g>
          <g id="Group_102146" data-name="Group 102146" transform="translate(0 0)">
            <g id="Group_102145" data-name="Group 102145">
              <g id="Group_102144" data-name="Group 102144">
                <path id="Path_74620" data-name="Path 74620" d="M54.265,5.737,49.943,0,26.286,1.466,14.1,17.238,9.478,26.21a70.866,70.866,0,0,0-2.1,11.7L0,101.125a126.6,126.6,0,0,0,34.45,8.644Q2.575,100.742,16.227,32.3,18.65,17.65,27.55,11.551A56.024,56.024,0,0,1,54.265,5.737Z" fill="#d8cdc7"/>
              </g>
            </g>
          </g>
          <g id="Group_102149" data-name="Group 102149" transform="translate(40.63 101.593)">
            <g id="Group_102148" data-name="Group 102148" transform="translate(0 0)">
              <g id="Group_102147" data-name="Group 102147">
                <path id="Path_74621" data-name="Path 74621" d="M6.129,3.046,3.1.013a.032.032,0,0,0-.051,0L.013,3.046a.032.032,0,0,0,0,.051L3.046,6.129a.032.032,0,0,0,.051,0L6.129,3.1a.032.032,0,0,0,0-.051M3.071,6.028l.025.025H3.046l.025-.025L.114,3.071.088,3.1V3.046l.025.025L3.071.114,6.028,3.071,3.071,6.028m.051-3.715-.051-.051-.051.051V3.02H2.313l-.051.051.051.051H3.02v.708l.051.051.051-.051V3.121h.708l.051-.051L3.829,3.02H3.121Z" fill="rgba(0,0,0,0)"/>
              </g>
            </g>
          </g>
        </g>
        <g id="Group_102176" data-name="Group 102176" transform="matrix(0.975, 0.22, -0.22, 0.975, -194.46, -709.836)">
          <g id="Group_102152" data-name="Group 102152" transform="translate(26.499 0)">
            <g id="Group_102151" data-name="Group 102151" transform="translate(0 0)">
              <path id="Path_74622" data-name="Path 74622" d="M39.479,7.264a75.452,75.452,0,0,0-7.793-4.086,35.409,35.409,0,0,0-6.23-2.119Q22.619.438,19.857,0a18.723,18.723,0,0,0-5.473.782Q11.761,1.665,9.164,2.5l-.656.252A71.75,71.75,0,0,0,.034,6.76q-.151-.151.378,1.186.605,1.513,1.185,2.7a20.513,20.513,0,0,0,3.052,3.884,54.792,54.792,0,0,0,5.6,5.322q3.1,2.573,6.356,4.818a41.706,41.706,0,0,0,6.154,3.582A59.962,59.962,0,0,0,30.022,30.9q1.009-2.6,1.665-3.935a44.663,44.663,0,0,0,2.648-7.088q1.035-3.666,1.866-6.735A15.6,15.6,0,0,1,39.479,7.264Z" transform="translate(0)" fill="#e2ad98"/>
            </g>
          </g>
          <g id="Group_102154" data-name="Group 102154" transform="translate(55.391 3.657)">
            <g id="Group_102153" data-name="Group 102153" transform="translate(0 0)">
              <path id="Path_74623" data-name="Path 74623" d="M4.837,1.135,4.711.025,4.661,0,4.636.05l-.1,1.085v.277l-.025.151v.151L4.257,4.742v.1l-.025.126L4.106,6.23v.126l-.025.05v.076L2.946,13.9,1.407,20.381.02,25.123q-.05.05.025.05.05.05.05-.025l1.337-2.875.025-.1.05-.1L3.45,16.143l.025-.151.05-.126L4.812,8.072l.05-6.508-.025-.151Z" fill="#c18770"/>
            </g>
          </g>
          <g id="Group_102156" data-name="Group 102156" transform="translate(0.22 15.294)">
            <g id="Group_102155" data-name="Group 102155" transform="translate(0 0)">
              <path id="Path_74624" data-name="Path 74624" d="M27.409,13.706a13.239,13.239,0,0,0-4.033-9.712A13.172,13.172,0,0,0,13.7,0,13.3,13.3,0,0,0,3.994,3.994,13.3,13.3,0,0,0,0,13.706a13.175,13.175,0,0,0,3.994,9.672A13.236,13.236,0,0,0,13.7,27.412a13.108,13.108,0,0,0,9.671-4.033A13.11,13.11,0,0,0,27.409,13.706Z" fill="#ece7de"/>
            </g>
          </g>
          <g id="Group_102158" data-name="Group 102158" transform="translate(6.659 5.448)">
            <g id="Group_102157" data-name="Group 102157" transform="translate(0 0)">
              <path id="Path_74625" data-name="Path 74625" d="M56.167,5.07q-.631,2.522-1.185,5.8a60.679,60.679,0,0,1-1.564,6.76,30.616,30.616,0,0,1-3.38,7.567q-.252.4-.479.832a18.18,18.18,0,0,1-5.8-1.463,56.513,56.513,0,0,1-5.019-2.6q-2.346-1.387-4.641-2.951a39.585,39.585,0,0,1-4.666-3.784,38.112,38.112,0,0,1-3.909-4.465A34.5,34.5,0,0,1,22.4,5.8,38.221,38.221,0,0,1,20.4,1.186Q20.177.58,20,0,15.872,4.094,0,11.83q.3,3,.5,6.054.227,3.254.429,6.482.151,2.522.277,4.944.126,2.068.252,4.162.177,3,.4,6.028.252,3.254.429,6.482.177,2.825.454,5.625l.605,5.953q.36,3.231.631,6.558.289,3.33.5,6.684t.353,5.65q.163,2.316.429,3.985a23.571,23.571,0,0,1,1.866-2.623q1.133-1.341,2.825-3.708t3.607-5.02q1.387-1.967,2.926-3.935a60.21,60.21,0,0,1,4.842-5.474,45.77,45.77,0,0,1,5.069-4.338,38.115,38.115,0,0,1,5.271-3.178,25.562,25.562,0,0,1,3.985-1.589,23.981,23.981,0,0,1,6.583-.858,22.36,22.36,0,0,1,4.716.958A29.27,29.27,0,0,1,54.6,54.483a33.349,33.349,0,0,1,5.423,4.641,69.706,69.706,0,0,1,4.792,5.65,62.719,62.719,0,0,1,4.136,6.1q1.74,2.926,3.531,5.928a2.256,2.256,0,0,1,.2.807q.076-1.261.1-2.85.025-2.119.1-5.4t.025-6.255a39.972,39.972,0,0,1,.126-4.944,17.29,17.29,0,0,1,.479-3.027,34.648,34.648,0,0,1,1.211-3.481A27.292,27.292,0,0,0,76.168,45.5a13.671,13.671,0,0,0-.605-6.634q-1.085-2.85-1.866-5.7a18.477,18.477,0,0,1-.782-4.212q.053-1.287.05-3.884a44.051,44.051,0,0,0-.454-6.079,7.658,7.658,0,0,1,1.261-5.8q1.763-2.346,1.185-3.229a13.323,13.323,0,0,0-2.219-2.346,16.091,16.091,0,0,0-4.994-2.775Q64.389,3.559,61.161,2.4A15.715,15.715,0,0,1,56.848.3,23.933,23.933,0,0,1,56.167,5.07Z" transform="translate(0)" fill="#ece7de"/>
            </g>
          </g>
          <g id="Group_102161" data-name="Group 102161" transform="translate(8.096 34.935)">
            <g id="Group_102160" data-name="Group 102160" transform="translate(0 0)">
              <g id="Group_102159" data-name="Group 102159" transform="translate(0)">
                <path id="Path_74626" data-name="Path 74626" d="M10.442,42.527q.872-19.382,2.219-29.209A64.84,64.84,0,0,0,18.336,0Q.214,8.266,0,6.785l3.682,44.6Z" fill="#d8cdc7"/>
              </g>
            </g>
          </g>
          <g id="Group_102166" data-name="Group 102166" transform="translate(0 6.583)">
            <g id="Group_102163" data-name="Group 102163" transform="translate(61.969 0)">
              <g id="Group_102162" data-name="Group 102162" transform="translate(0 0)">
                <path id="Path_74627" data-name="Path 74627" d="M17.63,27.645,19.95,9.08a17.328,17.328,0,0,0-5.877-4.792Q9.041,2.583,3,0L0,9.131Q18.395,17.692,17.63,27.645Z" transform="translate(0)" fill="#7a2230"/>
              </g>
            </g>
            <g id="Group_102165" data-name="Group 102165" transform="translate(0 1.034)">
              <g id="Group_102164" data-name="Group 102164" transform="translate(0 0)">
                <path id="Path_74628" data-name="Path 74628" d="M27.87,24.063a97.016,97.016,0,0,1,6.709-10.67L23.733,0a86.117,86.117,0,0,1-7.869,4.893Q3.909,10.517,3.506,12.158A13.344,13.344,0,0,0,.732,16.925,24.131,24.131,0,0,0,0,21.163q.045.934.126,3.405.1,2.5,4.086,6.482a13.237,13.237,0,0,0,9.71,4.036,13.154,13.154,0,0,0,9.685-4.036,13.348,13.348,0,0,0,1.463-1.715l.05.025.151-.277Q25.775,28.173,27.87,24.063Z" fill="#7a2230"/>
              </g>
            </g>
          </g>
          <g id="Group_102168" data-name="Group 102168" transform="translate(21.716 3.254)">
            <g id="Group_102167" data-name="Group 102167" transform="translate(0 0)">
              <path id="Path_74629" data-name="Path 74629" d="M43.96,3.052A9.865,9.865,0,0,0,38.26,0a60.843,60.843,0,0,1-4.414,25.526Q14,19.523,6.078,1.034A11.173,11.173,0,0,0,0,4.767q9.836,19.271,36.091,27.04Q40.53,25.9,43.96,3.052Z" transform="translate(0)" fill="#7a2230"/>
            </g>
          </g>
          <g id="Group_102170" data-name="Group 102170" transform="translate(21.703 3.254)">
            <g id="Group_102169" data-name="Group 102169" transform="translate(0 0)">
              <path id="Path_74630" data-name="Path 74630" d="M27.907,28.377q-.555-.227-1.639-.757l-4.313-2.245-6.23-3.985q-1.589-1.135-3.38-2.6l-3.455-3.1L5.082,11.6l-.126-.177L4.1,10.417l-.05-.1-.252-.3L.088,4.792q-.05-.025-.076,0-.025.05,0,.076L2.131,8.576l3.254,4.49,3.254,3.607Q10,18.085,11.715,19.548q1.841,1.539,3.4,2.674L19.206,24.9l3.657,1.993,5.549,2.472.1.025.1.05L36.1,31.782q.05.05.05-.025.05-.05-.025-.05l-8.222-3.33M38.576,1.16l-.2-1.135L38.323,0,38.3.05l-.177,6.886-1.034,7.92-1.564,5.978-1.16,3.279-.076.126-.5,1.337q-.05.05.025.05.05.05.05-.025l1.211-2.119,2.219-5.5q.429-1.438.631-2.321l.252-1.211q.227-1.16.227-1.236l.328-2.447q.126-1.059.177-2.4l.05-1.69Z" transform="translate(0)" fill="#4b0f18"/>
            </g>
          </g>
          <g id="Group_102172" data-name="Group 102172" transform="translate(30.341 9.497)">
            <g id="Group_102171" data-name="Group 102171" transform="translate(0 0)">
              <path id="Path_74631" data-name="Path 74631" d="M18.058,17.24,21.867,18.5l2.018.429q.05.05.05-.025.05-.05-.025-.05L19.5,17.139l-.126-.076-3.228-1.614q-.984-.58-1.11-.681l-.454-.252-.126-.1-1.185-.757L9.559,10.834l-.126-.126-.151-.1L6,7.428,3.329,4.376,3.254,4.25l-.1-.1L1.967,2.636l-.05-.1-.151-.177L.076.013Q.025-.013,0,.013V.088L1.513,2.812l.076.1.05.1L2.472,4.3Q3.481,5.713,3.884,6.243L5.12,7.781,8.9,11.59,10.921,13.2l3.052,2.018.151.076.151.1.605.328.076.05.076.025Z" transform="translate(0 0)" fill="#a84657"/>
            </g>
          </g>
          <g id="Group_102175" data-name="Group 102175" transform="translate(42.536 81.712)">
            <g id="Group_102174" data-name="Group 102174" transform="translate(0 0)">
              <g id="Group_102173" data-name="Group 102173">
                <path id="Path_74632" data-name="Path 74632" d="M6.116,3.039,3.09.013a.032.032,0,0,0-.05,0L.013,3.039a.032.032,0,0,0,0,.05L3.039,6.117a.032.032,0,0,0,.05,0L6.116,3.09a.032.032,0,0,0,0-.05M3.064,6.016l.025.025h-.05l.025-.025L.113,3.065.088,3.09v-.05l.025.025L3.064.114,6.015,3.065,3.064,6.016m.05-3.708-.05-.05-.05.05v.706H2.308l-.05.05.05.05h.706v.706l.05.05.05-.05V3.115h.706l.05-.05-.05-.05H3.115Z" fill="rgba(0,0,0,0)"/>
              </g>
            </g>
          </g>
        </g>
        <g id="Group_102187" data-name="Group 102187" transform="translate(-148.617 -736.878) rotate(20.665)">
          <g id="Group_102178" data-name="Group 102178" transform="translate(0 9.589)">
            <g id="Group_102177" data-name="Group 102177" transform="translate(0 0)">
              <path id="Path_74633" data-name="Path 74633" d="M23.859,41.324l.1-40.212L2.755,0,0,38.013Q18.223,49.689,23.859,41.324Z" transform="translate(0 0)" fill="#e2ad98"/>
            </g>
          </g>
          <g id="Group_102180" data-name="Group 102180" transform="translate(2.564 0)">
            <g id="Group_102179" data-name="Group 102179" transform="translate(0 0)">
              <path id="Path_74634" data-name="Path 74634" d="M3.117,3.117A10.281,10.281,0,0,0,0,10.666a10.281,10.281,0,0,0,3.117,7.549,10.281,10.281,0,0,0,7.549,3.117,10.281,10.281,0,0,0,7.549-3.117,10.281,10.281,0,0,0,3.117-7.549,10.281,10.281,0,0,0-3.117-7.549A10.281,10.281,0,0,0,10.666,0,10.281,10.281,0,0,0,3.117,3.117Z" fill="#e2ad98"/>
            </g>
          </g>
          <g id="Group_102183" data-name="Group 102183" transform="translate(2.249 8.022)">
            <g id="Group_102182" data-name="Group 102182" transform="translate(0 0)">
              <g id="Group_102181" data-name="Group 102181">
                <path id="Path_74635" data-name="Path 74635" d="M21.736,29.091,21.66,0,.3,1.264,0,8.341Q8.341,26.26,21.736,29.091Z" fill="#c18770"/>
              </g>
            </g>
          </g>
          <g id="Group_102186" data-name="Group 102186" transform="translate(8.48 49.13)">
            <g id="Group_102185" data-name="Group 102185" transform="translate(0 0)">
              <g id="Group_102184" data-name="Group 102184">
                <path id="Path_74636" data-name="Path 74636" d="M6.129,3.046,3.1.013a.032.032,0,0,0-.051,0L.013,3.046a.032.032,0,0,0,0,.051L3.046,6.129a.032.032,0,0,0,.051,0L6.129,3.1a.032.032,0,0,0,0-.051M3.071,6.028l.025.025H3.046l.025-.025L.114,3.071.088,3.1V3.046l.025.025L3.071.114,6.028,3.071,3.071,6.028m.051-3.715-.051-.051-.051.051V3.02H2.313l-.051.051.051.051H3.02v.708l.051.051.051-.051V3.121h.708l.051-.051L3.829,3.02H3.121Z" fill="rgba(0,0,0,0)"/>
              </g>
            </g>
          </g>
        </g>
        <g id="Group_102322" data-name="Group 102322" transform="translate(-131.415 -812.546) rotate(29.073)">
          <g id="Group_102190" data-name="Group 102190" transform="translate(13.84 24.106)">
            <g id="Group_102189" data-name="Group 102189" transform="translate(0 0)">
              <g id="Group_102188" data-name="Group 102188" transform="translate(0 0)">
                <path id="Path_74637" data-name="Path 74637" d="M51.7,7.632Q43.75.148,30.734,0A29.3,29.3,0,0,0,8.861,8.73,29.236,29.236,0,0,0,0,30.147Q.005,42.684,10.013,51.43q10.03,8.767,29.074,8.888,19.067.151,19.2-9.718t.75-22.676Q59.67,15.122,51.7,7.632Z" fill="#e2ad98"/>
              </g>
            </g>
          </g>
          <g id="Group_102193" data-name="Group 102193" transform="translate(17.394 58.015)">
            <g id="Group_102192" data-name="Group 102192" transform="translate(0 0)">
              <g id="Group_102191" data-name="Group 102191" transform="translate(0)">
                <path id="Path_74638" data-name="Path 74638" d="M59.016,11.3Q59.509,6.669,53.431,0L.2,3.21Q-1.012,17.086,5.1,24.416q8.458,15.808,34.248,22.7Q54.568,33.894,59.016,11.3Z" fill="#e2ad98"/>
              </g>
            </g>
          </g>
          <g id="Group_102216" data-name="Group 102216" transform="translate(33.738 56.897)">
            <g id="Group_102198" data-name="Group 102198" transform="translate(29.073 4.677)">
              <g id="Group_102195" data-name="Group 102195" transform="translate(0 0)">
                <g id="Group_102194" data-name="Group 102194">
                  <path id="Path_74639" data-name="Path 74639" d="M6.642,4.336A4.9,4.9,0,0,0,5.661,1.26,2.867,2.867,0,0,0,3.321,0,2.91,2.91,0,0,0,.965,1.26,4.951,4.951,0,0,0,0,4.336,4.881,4.881,0,0,0,.965,7.395,2.9,2.9,0,0,0,3.321,8.671a2.857,2.857,0,0,0,2.34-1.276A4.827,4.827,0,0,0,6.642,4.336Z" fill="#231915"/>
                </g>
              </g>
              <g id="Group_102197" data-name="Group 102197" transform="translate(1.57 1.177)">
                <g id="Group_102196" data-name="Group 102196" transform="translate(0 0)">
                  <path id="Path_74640" data-name="Path 74640" d="M1.6,1.015A1.232,1.232,0,0,0,1.343.279.656.656,0,0,0,.77,0,.7.7,0,0,0,.214.312,1.264,1.264,0,0,0,0,1.081a1.113,1.113,0,0,0,.262.72A.685.685,0,0,0,.852,2.1a.648.648,0,0,0,.54-.327A1.158,1.158,0,0,0,1.6,1.015Z" fill="#fff"/>
                </g>
              </g>
            </g>
            <g id="Group_102200" data-name="Group 102200" transform="translate(25.675 1.137)">
              <g id="Group_102199" data-name="Group 102199" transform="translate(0 0)">
                <path id="Path_74641" data-name="Path 74641" d="M8.412.044a34.506,34.506,0,0,0-3.5,0q-2.2.123-2.837,1.418A27.793,27.793,0,0,1,0,4.959,16.909,16.909,0,0,1,1.517,4.1,15,15,0,0,1,4.981,2.716a4.817,4.817,0,0,1,3.5.33,12.617,12.617,0,0,1,2.936,2.012l.429-.066A17.475,17.475,0,0,0,8.412.044Z" transform="translate(0 0)" fill="#e2ad98"/>
              </g>
            </g>
            <g id="Group_102202" data-name="Group 102202" transform="translate(25.433 2.863)">
              <g id="Group_102201" data-name="Group 102201" transform="translate(0 0)">
                <path id="Path_74642" data-name="Path 74642" d="M9.544.792l-.1-.033L9.181.594l-.2-.066-.165-.1L8.027.165h-.1L7.7.1H7.6L7.433.066H7.3L7.2.033h-.4L6.608,0h-.4l-.2.033h-.4L4.431.264,3.31.66l-1.023.594-.627.495-.066.033-.4.495-.066.066L1.1,2.408,1,2.54.77,2.771l-.1.132-.033.066-.066.066-.561.792q-.033.033.033.1H.11l.825-.561L1.067,3.3l.495-.4.066-.033L1.693,2.8l.495-.4-.033.033.066-.033H2.188l1.55-.66L3.9,1.715l.165-.066,1.517-.3h.33l.165-.033h.858l.165.033h.165l.2.033H7.6l.1.033h.066l.495.1.132.066.165.033.792.33,1.122.66.066.033.132.132.165.1,1.385,1.188h.1v-.1l-.132-.33-.066-.1-.132-.264-.429-.627-.891-1.023L10.6,1.55l-.1-.066a4.809,4.809,0,0,0-.627-.462L9.709.891Z" transform="translate(0)" fill="#231915"/>
              </g>
            </g>
            <g id="Group_102207" data-name="Group 102207" transform="translate(5.85 5.666)">
              <g id="Group_102204" data-name="Group 102204" transform="translate(0 0)">
                <g id="Group_102203" data-name="Group 102203">
                  <path id="Path_74643" data-name="Path 74643" d="M6.642,4.336A4.9,4.9,0,0,0,5.661,1.26,2.867,2.867,0,0,0,3.321,0,2.91,2.91,0,0,0,.965,1.26,4.951,4.951,0,0,0,0,4.336,4.881,4.881,0,0,0,.965,7.395,2.9,2.9,0,0,0,3.321,8.671a2.857,2.857,0,0,0,2.34-1.276A4.827,4.827,0,0,0,6.642,4.336Z" fill="#231915"/>
                </g>
              </g>
              <g id="Group_102206" data-name="Group 102206" transform="translate(1.57 1.177)">
                <g id="Group_102205" data-name="Group 102205" transform="translate(0 0)">
                  <path id="Path_74644" data-name="Path 74644" d="M1.6,1.015A1.232,1.232,0,0,0,1.343.279.656.656,0,0,0,.77,0,.7.7,0,0,0,.214.312,1.264,1.264,0,0,0,0,1.081a1.113,1.113,0,0,0,.262.72A.685.685,0,0,0,.852,2.1a.648.648,0,0,0,.54-.327A1.158,1.158,0,0,0,1.6,1.015Z" fill="#fff"/>
                </g>
              </g>
            </g>
            <g id="Group_102209" data-name="Group 102209" transform="translate(0.407 0)">
              <g id="Group_102208" data-name="Group 102208" transform="translate(0 0)">
                <path id="Path_74645" data-name="Path 74645" d="M11.611,2.4A17.473,17.473,0,0,0,9.2.619,3.8,3.8,0,0,0,6.3.092,6.208,6.208,0,0,0,3.1,2.1,23.1,23.1,0,0,0,0,6.656q1.023-.792,1.979-1.517a9.555,9.555,0,0,1,3.4-1.649A7.623,7.623,0,0,1,8.61,3.324a12.269,12.269,0,0,1,3.629,1.254q1.715.99,3.5,1.847a4.129,4.129,0,0,0-.957-1.155Q13.228,3.819,11.611,2.4Z" fill="#e2ad98"/>
              </g>
            </g>
            <g id="Group_102211" data-name="Group 102211" transform="translate(0 2.797)">
              <g id="Group_102210" data-name="Group 102210" transform="translate(0 0)">
                <path id="Path_74646" data-name="Path 74646" d="M13.008,1.649l-.132-.066L11.194.693a7.025,7.025,0,0,0-.957-.3L9.973.3,8.456.033H8.225L8.093,0H7.2A6.33,6.33,0,0,0,6.147.066L4.992.3,4.4.495,4.266.561,4.134.594l-.924.462-.033.033-.066.033-.1.066-.132.066-.528.363-.759.66-.033.033v.033l-.2.231L.275,4.057l-.066.165-.2.264q-.033.033.033.1H.11l.264-.2.132-.132.132-.1L2.122,2.837,2.089,2.9l.792-.495.4-.2.1-.066.132-.033.1-.066H3.64L3.9,1.913h.066L4,1.88l.231-.066.033-.033h.066l.33-.132h.1l.561-.165h.1l1.089-.165L7.3,1.286l.132.033h.693l.429.066h.132l.1.033h.231l.231.033.231.066.429.066.462.132H10.4l.066.033.1.033.231.033.858.3.429.2.231.066.1.066.1.033.858.429.2.132.2.1,2.012,1.319q.033.033.1-.033V4.354l-.3-.4L14.2,2.54Z" fill="#231915"/>
              </g>
            </g>
            <g id="Group_102213" data-name="Group 102213" transform="translate(3.046 9.283)">
              <g id="Group_102212" data-name="Group 102212" transform="translate(0 0)">
                <path id="Path_74647" data-name="Path 74647" d="M0,2.486,1.188,6.51l6.7.528L9.8,3.179Q6.874-.164,0,2.486M23.817,1.166,25,5.191l6.7.528,1.913-3.859Q30.678-1.473,23.817,1.166Z" transform="translate(0 0)" fill="#e2ad98"/>
              </g>
            </g>
            <g id="Group_102215" data-name="Group 102215" transform="translate(2.639 8.932)">
              <g id="Group_102214" data-name="Group 102214" transform="translate(0 0)">
                <path id="Path_74648" data-name="Path 74648" d="M10.3,3.3l-.066-.033L10.171,3.2l-.066-.033L8.324,2.078l-.1-.033a3.878,3.878,0,0,0-.858-.4L6.345,1.418a5.378,5.378,0,0,0-1.056-.1H5.157l-.132.033H4.761L4.5,1.385H4.365L4.3,1.418H4.233l-.495.066-2.672.825L.044,2.9q-.066.066-.033.066Q.077,3.035.077,3l.264-.066L.77,2.771l.924-.264,2.639-.462h.132l.1-.033h.495l.132-.033h.1l1.451.132.231.066.2.033L10.2,3.431l.066.066H10.3q.1.1.1-.033V3.4l-.1-.1M30.161.1A5.378,5.378,0,0,0,29.106,0h-.132l-.132.033h-.264l-.264.033h-.132L28.116.1H28.05l-.957.165L24.883.99l-1.023.594q-.066.066-.033.066.066.066.066.033l.462-.132.231-.1.924-.264L28.149.726h.132l.1-.033h.495L29.007.66h.1l1.451.132.231.066.2.033.858.3.2.1,1.847.759.132.066.066.066h.033q.1.1.1-.033V2.078l-.1-.1-.066-.033-.066-.066-.066-.033L32.14.759l-.1-.033a3.878,3.878,0,0,0-.858-.4Z" transform="translate(0)" fill="#231915"/>
              </g>
            </g>
          </g>
          <g id="Group_102219" data-name="Group 102219" transform="matrix(0.934, -0.356, 0.356, 0.934, 30.961, 54.119)">
            <g id="Group_102218" data-name="Group 102218" transform="translate(0 0)">
              <g id="Group_102217" data-name="Group 102217">
                <path id="Path_74649" data-name="Path 74649" d="M0,2.806l.824-.382A10.843,10.843,0,0,1,6.53,1.541,20.234,20.234,0,0,1,10.824,2.6a8.751,8.751,0,0,1,1.382.559q.441.235,1.294.794a.817.817,0,0,0,.618.206.222.222,0,0,1-.029.118,1.171,1.171,0,0,0-.059-.971,2.637,2.637,0,0,0-.882-1.265A8.26,8.26,0,0,0,10.677.659,14.544,14.544,0,0,0,4.941.041a7.718,7.718,0,0,0-3.088.971A18.834,18.834,0,0,0,0,2.806Z" transform="translate(3.53 0)" fill="#540e00"/>
                <path id="Path_74650" data-name="Path 74650" d="M3.706,1.059l-.235.176q-.074.057-.147.118a.16.16,0,0,1-.059.029.261.261,0,0,1-.059.059.312.312,0,0,1-.059.059,2.3,2.3,0,0,1-.206.147.06.06,0,0,1-.029.029.242.242,0,0,1-.059.059.13.13,0,0,1-.059.029.06.06,0,0,1-.059.029L1.206,3.412A9.44,9.44,0,0,0,0,5.324,8.4,8.4,0,0,1,1.029,4.294a12.919,12.919,0,0,1,2.353-1.5A12.653,12.653,0,0,1,9.236,1.412a13.641,13.641,0,0,1,6,1.324q1.941.941,2.294.647l.029-.029.059-.088a.222.222,0,0,0,.029-.118.817.817,0,0,1-.618-.206q-.853-.559-1.294-.794a8.751,8.751,0,0,0-1.382-.559A20.234,20.234,0,0,0,10.059.529a10.843,10.843,0,0,0-5.706.882l-.824.382A18.834,18.834,0,0,1,5.383,0,14.108,14.108,0,0,0,3.706,1.059Z" transform="translate(0 1.012)" fill="#2b0700"/>
              </g>
            </g>
          </g>
          <g id="Group_102222" data-name="Group 102222" transform="matrix(-0.886, -0.463, 0.463, -0.886, 72.515, 59.234)">
            <g id="Group_102221" data-name="Group 102221" transform="translate(0 0)">
              <g id="Group_102220" data-name="Group 102220">
                <path id="Path_74651" data-name="Path 74651" d="M0,1.407l.58.366a5.875,5.875,0,0,0,4.02.844A11.26,11.26,0,0,0,7.626,1.6,5.385,5.385,0,0,0,8.6,1.069q.311-.225.912-.76.257-.25.435-.2A.274.274,0,0,0,9.926,0a1.488,1.488,0,0,1-.041.928,2.657,2.657,0,0,1-.622,1.21A5.636,5.636,0,0,1,7.522,3.46a7.73,7.73,0,0,1-4.041.591,4.483,4.483,0,0,1-2.176-.928A16.324,16.324,0,0,1,0,1.407Z" transform="translate(2.487 1.969)" fill="#540e00"/>
                <path id="Path_74652" data-name="Path 74652" d="M2.611,4.079l-.166-.169q-.052-.055-.1-.113A.105.105,0,0,0,2.3,3.77a.229.229,0,0,0-.041-.056.275.275,0,0,0-.041-.056,1.736,1.736,0,0,0-.145-.141.052.052,0,0,0-.021-.028.212.212,0,0,0-.041-.056A.086.086,0,0,0,1.969,3.4a.041.041,0,0,0-.041-.028L.85,1.829A9.938,9.938,0,0,1,0,0,7.386,7.386,0,0,0,.725.985,9.315,9.315,0,0,0,2.383,2.419,7.073,7.073,0,0,0,6.507,3.742a7.575,7.575,0,0,0,4.227-1.266q1.368-.9,1.616-.619l.021.028.041.084a.274.274,0,0,1,.021.113q-.178-.053-.435.2-.6.535-.912.76a5.385,5.385,0,0,1-.974.535A11.26,11.26,0,0,1,7.087,4.586a5.875,5.875,0,0,1-4.02-.844l-.58-.366A16.324,16.324,0,0,0,3.792,5.092,10.108,10.108,0,0,1,2.611,4.079Z" fill="#2b0700"/>
              </g>
            </g>
          </g>
          <g id="Group_102227" data-name="Group 102227" transform="translate(54.143 55.534)">
            <g id="Group_102224" data-name="Group 102224" transform="translate(0.101 0)">
              <g id="Group_102223" data-name="Group 102223" transform="translate(0)">
                <path id="Path_74653" data-name="Path 74653" d="M12.006,19.719a7.109,7.109,0,0,0-4.272-5.788Q5.1,8.468,6.395.813q-2.3-1.858-5.257.531L0,20.856Q6.331,25.368,12.006,19.719Z" transform="translate(0 0)" fill="#e2ad98"/>
              </g>
            </g>
            <g id="Group_102226" data-name="Group 102226" transform="translate(0 0.686)">
              <g id="Group_102225" data-name="Group 102225" transform="translate(0 0)">
                <path id="Path_74654" data-name="Path 74654" d="M6.243,3.109,6.5.051Q6.546,0,6.47,0L6.42.025,5.737,3.741,5.662,7.532l.025.051.177,1.744.051.227v.1L6.243,11.1l.076.2.051.227.278.859.1.2.607,1.466a.461.461,0,0,0,.278.253h.025l1.112.455.531.278.986.708.126.076v.025h.025l.076.076.051.025v.025h.025l.025.051.051.051h.025l.025.025.227.3.051.1.2.556v.076l.051.253v.43l-.025.126v.076L11.2,18.1v.126l-.051.152v.1l-.025.025v.076l-.227.581-.3.455-.4.455a4.479,4.479,0,0,1-.91.758,11.782,11.782,0,0,1-1.062.632l-.126.076-.152.051-.126.076-.152.051-.051.051-.354.126-.126.025a4.614,4.614,0,0,1-1.188.177h-.3l-1.517-.2-.607-.177a10.26,10.26,0,0,1-1.188-.455Q1.946,21.1,1.188,20.7a4.129,4.129,0,0,1-.556-.3l-.556-.3Q0,20.018,0,20.119v.051l1.062.758a12.321,12.321,0,0,0,1.087.682l1.188.581,1.415.455.834.126h.253l.1.025A6.269,6.269,0,0,0,7.3,22.672l.581-.177.051-.025h.025l.152-.076.177-.051.3-.152a4.236,4.236,0,0,0,.581-.3l.581-.329a7.549,7.549,0,0,0,1.087-.834l.48-.531.4-.581.3-.682.051-.177v-.076l.025-.025v-.076l.051-.177.025-.177v-.076l.025-.1.025-.177v-.531l-.051-.379v-.1l-.126-.455-.076-.177-.051-.051-.025-.1L11.854,16l-.051-.1-.329-.455-.051-.025-.025-.051-.253-.253-.051-.025-.025-.025-.152-.126-1.112-.758L8.594,13.6l-.43-.152-.581-1.289L6.749,9.478v-.1l-.051-.2L6.445,7.684V7.557L6.42,7.532V7.456l-.051-.43Z" fill="#c18770"/>
              </g>
            </g>
          </g>
          <g id="Group_102232" data-name="Group 102232" transform="matrix(0.999, -0.034, 0.034, 0.999, 46.813, 84.073)">
            <g id="Group_102229" data-name="Group 102229" transform="translate(0.45 0)">
              <g id="Group_102228" data-name="Group 102228" transform="translate(0 0)">
                <path id="Path_74655" data-name="Path 74655" d="M10.13,1.3l.216.04h.216l1.763.364.216.081.72.2q.108.04.36.121L17.04,3.483l.144.04.216.121.216.081q.072.081.072-.04.072-.081-.036-.081l-.144-.162-.828-.648L14.557,1.539l-.144-.121L12.794.729l-.216-.04L12.4.607,11.966.486,11.786.4,9.843.04H9.375L9.267,0H7.9L7.791.04H7.575l-.216.04h-.18L3.941.769q-.216.081-.684.243l-.648.243a8.174,8.174,0,0,0-1.116.567l-.108.04-.72.445-.648.567q-.036.081,0,.121H.126l.54-.283.18-.04,1.08-.445L4.7,1.579h.18l.18-.04,2.591-.283.216-.04Z" fill="#231915"/>
              </g>
            </g>
            <g id="Group_102231" data-name="Group 102231" transform="translate(0 1.215)">
              <g id="Group_102230" data-name="Group 102230" transform="translate(0 0)">
                <path id="Path_74656" data-name="Path 74656" d="M.4.121v.04L.288.324.216.4V.486L.18.526.144.648.072.81,0,1.134v.4l.072.4.144.364.072.121.18.2a.385.385,0,0,0,.252.162l.4.162h.108L1.4,3h.108l.108-.121-.072-.081-.072-.04L1.26,2.511H1.224L.936,2.146.9,2.065l-.036-.04v-.04l-.18-.526V1.3L.648,1.174V.2L.612.121V.081L.54,0,.432.121Z" fill="#c18770"/>
              </g>
            </g>
          </g>
          <g id="Group_102264" data-name="Group 102264" transform="translate(0 0)">
            <g id="Group_102234" data-name="Group 102234" transform="translate(0)">
              <g id="Group_102233" data-name="Group 102233">
                <path id="Path_74657" data-name="Path 74657" d="M.78,20.913q2.053,7.035,9.924,11.02a84.362,84.362,0,0,0,12.973,5.54q5.1,1.554,7.015-4.663a88.435,88.435,0,0,0,2.79-11.957q.9-5.719-2.451-13.571Q27.663-.59,16.543.048,5.4.666,2.075,7.282A17.979,17.979,0,0,0,.78,20.913Z" fill="#540e00"/>
              </g>
            </g>
            <g id="Group_102237" data-name="Group 102237" transform="translate(10.107 14.775)">
              <g id="Group_102236" data-name="Group 102236" transform="translate(0 0)">
                <g id="Group_102235" data-name="Group 102235">
                  <path id="Path_74658" data-name="Path 74658" d="M25.13,22.858,23.077,0Q5.8,1.9,0,16.68l12.256,10.7Z" fill="#380a00"/>
                </g>
              </g>
            </g>
            <g id="Group_102239" data-name="Group 102239" transform="translate(2.478 12.328)">
              <g id="Group_102238" data-name="Group 102238" transform="translate(0 0)">
                <path id="Path_74659" data-name="Path 74659" d="M.076.036q0-.06-.04-.02-.06,0-.02.04V.694l.02.1L.415,3.882l.9,3.169.219.518.04.139.179.4a17.492,17.492,0,0,0,1.076,2.112L4.36,12.531l2.112,2.391.12.1.837.817.12.08.1.1,1.913,1.534,3.747,2.312,1.016.5q.04,0,.04-.02.04-.04-.02-.04L11.4,18.25,8.127,15.5,5.556,12.75l-1.1-1.435L2.906,8.824l-.02-.08-.04-.06-.9-1.893-.04-.06L.933,3.982l-.02-.12-.04-.1Z" fill="#380a00"/>
              </g>
            </g>
            <g id="Group_102241" data-name="Group 102241" transform="translate(6.025 4.556)">
              <g id="Group_102240" data-name="Group 102240" transform="translate(0 0)">
                <path id="Path_74660" data-name="Path 74660" d="M.076.036q0-.06-.04-.02-.06,0-.02.04V.614L.375,4.4l.5,2.511L1.55,9.143q.4,1.1.8,1.973l.3.6.04.06.02.06.658,1.176.3.438a.216.216,0,0,0,.08.1l.06.12.618.837a.216.216,0,0,1,.08.1.216.216,0,0,1,.08.1l.658.737.1.08.08.1.418.418.1.06,1.016.857L9.322,18.35l1.156.418q.04.04.04-.02.04-.04-.02-.04l-.219-.12-2.85-1.913L5.815,15.082l-.678-.837-.06-.1-.08-.1-.957-1.455a16.605,16.605,0,0,1-.976-1.813l-.319-.717L1.491,6.493.454,2.088l-.02-.159L.395,1.79Z" fill="#380a00"/>
              </g>
            </g>
            <g id="Group_102243" data-name="Group 102243" transform="translate(10.286 3.834)">
              <g id="Group_102242" data-name="Group 102242">
                <path id="Path_74661" data-name="Path 74661" d="M5.859,7.354,6.975,9.526l.06.1.12.3.1.179.7,1.734,1.375,4.683q0,.06.04.02.06,0,.02-.04v-.219l-.179-1.714-.04-.139-.06-.458-.578-2.431-.8-2.232-.06-.1-.179-.418q-.359-.817-.817-1.634L5.042,4.683,4.225,3.667,2.471,1.873l-.857-.717-.1-.1L.6.359.458.279.06,0H0V.06L1.275,1.315l.04.06L2.591,2.75a1.679,1.679,0,0,0,.239.279L4.384,5.022Z" fill="#380a00"/>
              </g>
            </g>
            <g id="Group_102245" data-name="Group 102245" transform="translate(16.922 6.355)">
              <g id="Group_102244" data-name="Group 102244" transform="translate(0 0)">
                <path id="Path_74662" data-name="Path 74662" d="M.06.01Q.04-.01,0,.01V.07L1.3,1.943l.139.239a11.357,11.357,0,0,1,.618,1.056L2.79,4.793l.06.179.08.159.518,1.674.02.04.02.06.08.359q.139.7.239,1.475l.1,2.391-.02.08-.1,1.255V12.6l-.478,2.67q-.04.04.02.04l.04-.02.438-1L4.285,12.7l.02-.159.179-.857v-.08l.06-.359v-.08l.02-.08v-.179q0-.04.06-.737V9.137l-.02-.1-.02-.379L4.344,7.085q-.2-.817-.438-1.515l-.339-.817-.02-.08L2.212,2.381l-.717-.917Z" transform="translate(0 0)" fill="#380a00"/>
              </g>
            </g>
            <g id="Group_102247" data-name="Group 102247" transform="translate(1.92 19.741)">
              <g id="Group_102246" data-name="Group 102246" transform="translate(0 0)">
                <path id="Path_74663" data-name="Path 74663" d="M2.367,3.623l-.04-.08-.06-.06-.08-.139-.1-.12-.04-.06-.06-.06-.5-.757-.06-.12L.076.036q0-.06-.04-.02-.06,0-.02.04l.04.179L.594,1.65,1.63,3.7l.1.139.04.08.817,1.236L4.2,7.051l.08.06.817.777a14.114,14.114,0,0,0,1.136.877L8.485,10.1l.08.02.12.06,2.073.737q.04.04.04-.02l-.02-.04L7.449,8.8,5.616,7.29A6.29,6.29,0,0,1,5.1,6.811Z" fill="#380a00"/>
              </g>
            </g>
            <g id="Group_102249" data-name="Group 102249" transform="translate(26.508 5.12)">
              <g id="Group_102248" data-name="Group 102248" transform="translate(0 0)">
                <path id="Path_74664" data-name="Path 74664" d="M1.156,1.166,1,1.006.877.847.06.01Q.04-.01,0,.01V.07L.08.209.2.369l.06.12,1.734,2.87.06.139.638,1.2.02.08.08.139L4.065,8.44l.1.379.02.159.04.139.1.538v.08l.12,1v.259l.02.139v1.036l-.04.4v.179l-.08.777q-.04.04.02.04l.04-.02.139-.339.418-1.933V11.13l.02-.139v-.139l.02-.06-.12-2.112L4.623,7.5a12.134,12.134,0,0,0-.438-1.335l-.02-.08-.04-.08L3.149,3.976l-.04-.06-.04-.08Z" transform="translate(0 0)" fill="#380a00"/>
              </g>
            </g>
            <g id="Group_102251" data-name="Group 102251" transform="translate(13.459 1.307)">
              <g id="Group_102250" data-name="Group 102250" transform="translate(0 0)">
                <path id="Path_74665" data-name="Path 74665" d="M11.236,7.629l-.259-.438-.02-.06a9.387,9.387,0,0,0-.658-.957l-.159-.239-.1-.12L10,5.755,8.784,4.44A19.4,19.4,0,0,0,7.071,3.045l-1-.638L3.264,1.012l-.2-.06L2.886.873.056.016q-.04-.04-.04.02-.04.04.02.04L1.491.694,5.815,3.025,7.947,4.719l.06.04.04.06.2.179A13.753,13.753,0,0,1,9.661,6.632,11.856,11.856,0,0,1,10.8,8.485a12.812,12.812,0,0,1,.757,1.953l.418,1.933a11.979,11.979,0,0,1,.179,1.774l-.159,3.707q-.04.04.02.04l.04-.02.458-2.192.139-2.092-.179-2.312-.558-2.092a9.86,9.86,0,0,0-.418-1.036l-.06-.139-.08-.12Z" fill="#380a00"/>
              </g>
            </g>
            <g id="Group_102253" data-name="Group 102253" transform="translate(19.054 0.008)">
              <g id="Group_102252" data-name="Group 102252" transform="translate(0 0)">
                <path id="Path_74666" data-name="Path 74666" d="M14.309,15.564l-.418-3.228-.538-2.112a18.118,18.118,0,0,0-.658-1.893L11.638,6.158l-1.1-1.614L9.008,2.91l-.379-.3-.04-.06L7.254,1.634A11.59,11.59,0,0,0,5.421.777L4.105.359,2.551.08,2.192.06Q1.534,0,1.036,0L.04.04A.035.035,0,0,0,0,.08L.02.1,1.395.279h.08l.06.02.3.04L3.487.717l.08.04L5.2,1.335a14.314,14.314,0,0,1,1.674.917,8.311,8.311,0,0,1,.817.578l.4.319.06.04.339.3A13.867,13.867,0,0,1,9.9,5.042,14.628,14.628,0,0,1,11.1,6.8l.937,1.813q.379.857.737,1.813l1.475,5.161q0,.06.04.02Q14.348,15.6,14.309,15.564Z" transform="translate(0 0)" fill="#812511"/>
              </g>
            </g>
            <g id="Group_102255" data-name="Group 102255" transform="translate(0.083 8.661)">
              <g id="Group_102254" data-name="Group 102254" transform="translate(0 0)">
                <path id="Path_74667" data-name="Path 74667" d="M1.395.016q-.04-.04-.04.02L.538,2.746.12,5.257l-.06.777q0,.04-.06,1.1L.08,8.884l.02.159v.139L.339,10.7a15.441,15.441,0,0,0,.678,2.411q.08.239.478,1.176l.319.638.04.06.3.558.08.12.139.279L4.045,18.21l1.216,1.3L7.413,21.3l.319.219a12.6,12.6,0,0,0,1.076.717l.976.578q.06.06.06-.02.02,0,0-.04L7.792,21.12,4.643,17.892l-1.3-1.853a10.757,10.757,0,0,1-.6-1.016,16.174,16.174,0,0,1-.976-2.172q-.279-.757-.379-1.156l-.3-1.156A18.427,18.427,0,0,1,.757,8.246l-.04-.279L.678,6.592l-.02-.06.02-.08L.7,5.038,1.415.056Q1.455.016,1.395.016Z" transform="translate(0 0)" fill="#380a00"/>
              </g>
            </g>
            <g id="Group_102257" data-name="Group 102257" transform="translate(14.989 1.287)">
              <g id="Group_102256" data-name="Group 102256" transform="translate(0 0)">
                <path id="Path_74668" data-name="Path 74668" d="M9.685,6.712a14.245,14.245,0,0,1,.857,1.594l.339.8.7,2.252.578,3.169.04.02.02-.04.04-.678-.4-3.707-.04-.1-.458-1.574L10.223,6.094,9.187,4.7l-.678-.737A7.911,7.911,0,0,0,7.792,3.3l-.757-.618L5.46,1.71l-.777-.379L2.531.534,1.913.375Q1.275.215.917.155L.04.016Q0-.024,0,.036l.02.04.837.3.219.06,2.451,1,.08.04.08.06.359.159,1.993,1.2,1.076.837L8.589,5.217Z" fill="#812511"/>
              </g>
            </g>
            <g id="Group_102259" data-name="Group 102259" transform="translate(12.641 2.483)">
              <g id="Group_102258" data-name="Group 102258" transform="translate(0 0)">
                <path id="Path_74669" data-name="Path 74669" d="M5.337,3.185A15.292,15.292,0,0,1,6.612,4.34q.638.717,1.116,1.375L8.645,7.23l.339.8a6.35,6.35,0,0,1,.3.817L9.721,10.6l.219,1.913L9.96,14.9q-.04.04.02.04l.04-.02.179-.837.179-2.611-.06-.957-.02-.1v-.1L10.08,9.063,9.442,7.11l-.06-.1-.04-.1A7.734,7.734,0,0,0,8.9,6.074L7.648,4.32,7.33,3.982l-.08-.1L5.775,2.607Q4.958,2.029,4.36,1.69L2.686.873.275.056.056.016q-.04-.04-.04.02-.04.04.02.04L4.022,2.208Q4.759,2.706,5.337,3.185Z" fill="#812511"/>
              </g>
            </g>
            <g id="Group_102261" data-name="Group 102261" transform="translate(8.512 4.033)">
              <g id="Group_102260" data-name="Group 102260" transform="translate(0 0)">
                <path id="Path_74670" data-name="Path 74670" d="M.08,0,.06.04,0,1.774A8.9,8.9,0,0,0,.08,2.989L.558,5.58l.678,2.033a16.976,16.976,0,0,0,.737,1.614,16.915,16.915,0,0,0,.857,1.554l1.913,2.71.658.757.06.08L7.812,16.62q.04.04.06,0,.04-.02,0-.06L5.819,13.91l-.06-.06L4.584,12.156l-.1-.179-.12-.159L2.571,8.689,1.355,5.759A7.3,7.3,0,0,1,1.116,5l-.1-.279L.857,4.085.8,3.926.359,1.734l-.04-.12v-.12L.2.658.179.578V.5L.12.02Z" fill="#812511"/>
              </g>
            </g>
            <g id="Group_102263" data-name="Group 102263" transform="translate(3.116 9.239)">
              <g id="Group_102262" data-name="Group 102262" transform="translate(0 0)">
                <path id="Path_74671" data-name="Path 74671" d="M.036.016q-.06,0-.02.04L.355,4.48.634,6.074q.08.478.379,1.694.219.777.538,1.714l1.036,2.491.418.757a12.2,12.2,0,0,0,.917,1.355l.717.877.937.9,1.156.837.219.12.06.02.279.159q.06.06.06-.02v-.04L7.031,16.7l-1.2-1.116L4.619,14.045l-.04-.08-.159-.219a15.672,15.672,0,0,1-.777-1.375l-.06-.08-.02-.04-.02-.06-.1-.179L1.949,8.187.235.853.215.674.076.036Q.076-.024.036.016Z" fill="#812511"/>
              </g>
            </g>
          </g>
          <g id="Group_102289" data-name="Group 102289" transform="translate(5.133 17.094)">
            <g id="Group_102266" data-name="Group 102266" transform="translate(0.102 0.056)">
              <g id="Group_102265" data-name="Group 102265" transform="translate(0 0)">
                <path id="Path_74672" data-name="Path 74672" d="M33.874.16a33.11,33.11,0,0,0-10.1.558,30.574,30.574,0,0,0-10.8,4.763A18.876,18.876,0,0,0,9.94,8.31q-.7.817-1.335,1.674-.658.837-1.275,1.694-.4.558-.757,1.136a44.889,44.889,0,0,0-3.946,8.35A48.084,48.084,0,0,0,.235,30.929a25.672,25.672,0,0,0,.458,9.386,64.754,64.754,0,0,0,4.524,11.7,61.523,61.523,0,0,0,7.752,7.334,11.8,11.8,0,0,0,4.464-7.533q4.5-33.141,22.758-34.875,11.738-9.745,29.155,1.833A39.493,39.493,0,0,0,56.692,8.031,89.666,89.666,0,0,0,44.1,2.451,48.133,48.133,0,0,0,33.874.16Z" fill="#380a00"/>
              </g>
            </g>
            <g id="Group_102268" data-name="Group 102268" transform="translate(0.102 0.056)">
              <g id="Group_102267" data-name="Group 102267" transform="translate(0 0)">
                <path id="Path_74673" data-name="Path 74673" d="M33.874.16a33.11,33.11,0,0,0-10.1.558,30.574,30.574,0,0,0-10.8,4.763A18.876,18.876,0,0,0,9.94,8.31q-.7.817-1.335,1.674-.658.837-1.275,1.694-.4.558-.757,1.136a44.889,44.889,0,0,0-3.946,8.35A48.084,48.084,0,0,0,.235,30.929a25.672,25.672,0,0,0,.458,9.386,64.754,64.754,0,0,0,4.524,11.7,61.523,61.523,0,0,0,7.752,7.334q4.232,0,8.31-24.592Q13.841,9.088,40.091,13.811,44.107,4.94,48.9,4.3q-2.51-1.073-4.8-1.853A48.133,48.133,0,0,0,33.874.16Z" fill="#540e00"/>
              </g>
            </g>
            <g id="Group_102270" data-name="Group 102270" transform="translate(17.223 2.041)">
              <g id="Group_102269" data-name="Group 102269" transform="translate(0 0)">
                <path id="Path_74674" data-name="Path 74674" d="M16.932,3.265,15.708,2.4l-.153-.077-.128-.1-.306-.153a8.763,8.763,0,0,0-1.2-.612l-.153-.077-.153-.051-.153-.077L10.938.434,10.606.383,10.453.332,6.755,0,6.474.026q-.408,0-1.122.051L1.194.765.046,1.122q-.077,0-.026.051,0,.077.051.026L3.03.867A2.807,2.807,0,0,0,3.464.842,2.807,2.807,0,0,0,3.9.816L5.913.791a4.122,4.122,0,0,1,.536.026l2.6.255H9.2l.153.051,1.2.23.587.179a13.125,13.125,0,0,1,2.372.842A16.75,16.75,0,0,1,15.708,3.6l1.939,1.479a7.454,7.454,0,0,1,.842.816q.281.255.791.816l.995,1.2a2.5,2.5,0,0,1,.306.408l.153.179,2.194,3.444q0,.077.051.026.077,0,.026-.051L22.57,10.79a13.5,13.5,0,0,0-.587-1.25L20.682,7.3,19.126,5.28,17.06,3.342Z" fill="#380a00"/>
              </g>
            </g>
            <g id="Group_102272" data-name="Group 102272" transform="translate(23.549 0)">
              <g id="Group_102271" data-name="Group 102271" transform="translate(0 0)">
                <path id="Path_74675" data-name="Path 74675" d="M5.989,0a3.857,3.857,0,0,0-.51.026L2.393.332.046.816Q-.031.816.02.867q0,.077.051.026L5.02.74A3.6,3.6,0,0,1,5.5.765l3.214.1,5.867.714,8.188,1.964.179.077,2.27.689q.051.051.051-.026.051-.051-.026-.051l-.255-.153L19.968,1.964l-.1-.051-.128-.026L17.621,1.25,15.351.714q-.842-.179-2.4-.434-1.633-.2-2.423-.23Z" transform="translate(0)" fill="#812511"/>
              </g>
            </g>
            <g id="Group_102274" data-name="Group 102274" transform="translate(0 15.285)">
              <g id="Group_102273" data-name="Group 102273" transform="translate(0 0)">
                <path id="Path_74676" data-name="Path 74676" d="M5.382.02q-.051-.051-.051.026l-.74,1.275L4.515,1.5l-.434.765L2.627,5.479l-.179.485-.051.1-.816,2.4L1.5,8.642l-.74,2.831Q.383,13.31.179,14.968L0,20.274l.536,4.719,1.275,4.591,1.862,4.209,2.041,3.291a.023.023,0,0,0,.026.026.032.032,0,0,0,.051,0v-.051l-.918-2.117-.077-.23-.1-.2L3.571,31.472q-.485-1.53-.816-2.78L1.939,24.84v-.1l-.357-2.984v-.23l-.026-.2-.077-3.214L1.5,18l.332-4.387v-.1l.026-.1L2.729,8.77l.026-.179L5.408.071Q5.459.02,5.382.02Z" transform="translate(0 0)" fill="#380a00"/>
              </g>
            </g>
            <g id="Group_102276" data-name="Group 102276" transform="translate(7.499 12.04)">
              <g id="Group_102275" data-name="Group 102275" transform="translate(0 0)">
                <path id="Path_74677" data-name="Path 74677" d="M.255,0,.23.026.1.995v.128l-.026.153-.051.842L0,2.3.153,6.785v.153L.408,8.6l.051.153.893,3.367.077.153.638,1.607.23.459a22.817,22.817,0,0,0,1.352,2.4l.587.842.051.051.434.612a.276.276,0,0,1,.1.128l.434.485a.276.276,0,0,0,.1.128l.536.587.051.077L7.933,21.5l.536.408a.75.75,0,0,0,.2.179,2.535,2.535,0,0,0,.408.281l.179.153.051.026.051.051.1.051,3.061,1.811q.077.077.077-.026v-.051L9.8,22.218a2.149,2.149,0,0,1-.357-.306L7.525,20.1,5.969,18.289A19.135,19.135,0,0,1,4.489,16.2l-1.5-2.755-.051-.153-.587-1.377-.332-.918-.026-.153L1.352,8.724.995,6.938.944,6.811.306.051A.045.045,0,0,0,.255,0Z" fill="#380a00"/>
              </g>
            </g>
            <g id="Group_102278" data-name="Group 102278" transform="translate(6.071 12.02)">
              <g id="Group_102277" data-name="Group 102277" transform="translate(0 0)">
                <path id="Path_74678" data-name="Path 74678" d="M1.709.02q-.051-.051-.051.026L1.224,1.423A15.684,15.684,0,0,0,.816,3l-.077.23L.026,7.622,0,11.958.306,14.28l.1.383.026.2.485,1.709q.357,1.02.587,1.5l.332.714,1.2,2.015a13.782,13.782,0,0,0,.944,1.2l.638.689.051.077.077.051.893.867.077.051.051.051.281.23a16.914,16.914,0,0,0,2.092,1.454L10.458,26.7l2.449.893q.051.051.051-.026.051-.051-.026-.051L8.469,24.968l-.714-.536-.1-.1-.128-.077-.969-.842a11.973,11.973,0,0,1-.944-.944,9.384,9.384,0,0,1-.918-1.046l-.638-.867-.128-.128-.077-.153A14.031,14.031,0,0,1,3.087,19l-.179-.306-.485-1.02a12.859,12.859,0,0,1-.536-1.4L1.5,14.994l-.026-.179q-.179-.689-.306-1.479l-.051-.179L.816,10.071v-2.4l.357-4.107.051-.23L1.4,2.01l.051-.179L1.735.071Q1.786.02,1.709.02Z" fill="#380a00"/>
              </g>
            </g>
            <g id="Group_102280" data-name="Group 102280" transform="translate(32.166 1.357)">
              <g id="Group_102279" data-name="Group 102279" transform="translate(0 0)">
                <path id="Path_74679" data-name="Path 74679" d="M10.994,3.974A5.6,5.6,0,0,0,10,3.107L8.8,2.316q-.51-.281-1.3-.638a10.2,10.2,0,0,0-1.326-.536A12.693,12.693,0,0,0,4.821.735L4.183.556,1.454.1.714.046.561.02H.051Q0-.031,0,.046L.026.1,6.148,2.189l.153.077.153.051L7.729,2.9l.153.051L7.959,3l.077.026,1.428.816q.332.2,1.02.714l.638.536.1.1.1.077.408.434.077.1.153.153.332.459.051.051.026.051.026.026.2.306.051.1.1.128q0,.077.051.026.051-.026.026-.051l-.026-.179-.077-.2L12.7,6.551l-.077-.179V6.346l-.051-.077-.051-.179-.2-.383a3.754,3.754,0,0,0-.536-.842l-.306-.408Z" transform="translate(0)" fill="#380a00"/>
              </g>
            </g>
            <g id="Group_102282" data-name="Group 102282" transform="translate(13.035 5.693)">
              <g id="Group_102281" data-name="Group 102281" transform="translate(0 0)">
                <path id="Path_74680" data-name="Path 74680" d="M7.908,2.9l-.1-.051-.179-.128-.2-.1-.077-.077L5.714,1.7l-.077-.051L3.9.964,3.724.888.663.1.051.02Q0-.031,0,.046L.026.1l.2.1.23.077L.587.352.765.4,4.974,2.316l.153.1.1.051.077.051q.842.459,1.4.816l.1.051.077.077,1.275.893.077.077.332.255,1.3,1.3.51.612a9.612,9.612,0,0,1,.791,1.25l.1.179.026.077.051.077.153.306.051.153.077.153.051.153L11.708,9l.051.077.1.306v.026l.051.1.026.153.077.2.026.051.23.944.026.2.051.179v.077l.026.077.077.459.051.026.026-.051.051-.459-.051-1.556L12.5,9.765V9.688l-.051-.306V9.305l-.026-.051V9.229L12.346,8.9l-.026-.077V8.744l-.306-.969L11.963,7.7l-.077-.179a9.522,9.522,0,0,0-.765-1.428l-.051-.1-.077-.077-.51-.714-.459-.485A9.549,9.549,0,0,0,8.7,3.49l-.357-.255a1.974,1.974,0,0,0-.357-.255Z" fill="#380a00"/>
              </g>
            </g>
            <g id="Group_102284" data-name="Group 102284" transform="translate(21.789 0.689)">
              <g id="Group_102283" data-name="Group 102283" transform="translate(0 0)">
                <path id="Path_74681" data-name="Path 74681" d="M20.529,9.362q.051-.026,0-.077l-.995-1.173L16.218,4.923l-2.755-1.99q-.816-.51-1.939-1.071Q10.581,1.4,9.51.995L8.846.765,8.719.74,8.336.612,8.285.587H8.209l-.765-.2A14.132,14.132,0,0,0,5.454.077L5.224.051H5.1L5.046.026h-.51L4.408,0l-.1.026L2.852.077,1.27.332,1.015.408a1.7,1.7,0,0,0-.408.1L.3.587l-.255.1Q-.031.689.02.74q0,.077.051.026L1.883.638,2.036.612,3.847.663l.408.051h.128l.1.026.434.051h.1l.332.077q.995.179,1.862.408l.128.026.051.026h.077L8,1.5l.051.026.128.026.23.1.128.026,1.939.791.128.077,1.658.842.1.077.128.051,3.393,2.219,4.566,3.622Q20.5,9.413,20.529,9.362Z" fill="#812511"/>
              </g>
            </g>
            <g id="Group_102286" data-name="Group 102286" transform="translate(14.489 5.153)">
              <g id="Group_102285" data-name="Group 102285" transform="translate(0 0)">
                <path id="Path_74682" data-name="Path 74682" d="M9,3.52l.1.051L11.071,4.8l.128.1,3.826,2.755.153.128h.077V7.7l-.281-.332L14.9,7.244,12.7,5,12.3,4.668l-.128-.128L9.948,2.933q-.23-.153-1.4-.842L6.3,1.071,6.1,1.02,5.739.867,4.643.536,4.464.51l-.357-.1L2.194.077H2.066L1.658.026.23,0,.051.026A.045.045,0,0,0,0,.077L.026.1.459.2.612.255,1.837.536l.128.051,2.245.689.51.2L4.9,1.53l2.627,1.2.1.026.077.051,1.046.587.179.077Z" transform="translate(0)" fill="#812511"/>
              </g>
            </g>
            <g id="Group_102288" data-name="Group 102288" transform="translate(14.31 4.796)">
              <g id="Group_102287" data-name="Group 102287" transform="translate(0 0)">
                <path id="Path_74683" data-name="Path 74683" d="M7.959.612Q7.882.587,7.066.383l-.434-.1L4.949.051A2.312,2.312,0,0,0,4.54.026L4.464,0,.255.179.026.23,0,.281.051.306,1.3.434h.255L6.02,1.1l2.066.587,1.2.485a12.739,12.739,0,0,1,1.531.791l1.377.944q.587.485,1.173,1.071l.255.255.1.153.128.128.816,1.046.051.051.026.077L15,7.015l.255.434.077.1.561.995q0,.077.051.026.077,0,.026-.051L15.637,7.4l-.383-.842-.077-.23-.051-.051L13.953,4.438A12.177,12.177,0,0,0,12.78,3.214l-.51-.434-.179-.128-.077-.077-.867-.587-.153-.077-.051-.051-.408-.23L8.392.74,8.29.714,8.163.663Z" transform="translate(0)" fill="#812511"/>
              </g>
            </g>
          </g>
          <g id="Group_102294" data-name="Group 102294" transform="translate(0.572 54.926)">
            <g id="Group_102291" data-name="Group 102291" transform="matrix(0.955, -0.296, 0.296, 0.955, 0, 5.244)">
              <g id="Group_102290" data-name="Group 102290" transform="translate(0 0)">
                <path id="Path_74684" data-name="Path 74684" d="M14.366,3.493A6.927,6.927,0,0,0,8.224.005a7.192,7.192,0,0,0-6.6,3.488Q-.769,7.114.364,12.971A21.671,21.671,0,0,0,4.054,22.1a10.741,10.741,0,0,0,6.976,4.069q4.466.783,5.864-3.741a21.227,21.227,0,0,0,.4-10.085A26.929,26.929,0,0,0,14.366,3.493Z" fill="#e2ad98"/>
              </g>
            </g>
            <g id="Group_102293" data-name="Group 102293" transform="translate(6.534 7.436)">
              <g id="Group_102292" data-name="Group 102292" transform="translate(0 0)">
                <path id="Path_74685" data-name="Path 74685" d="M6.774,2.578l.784.96,1.289,2.5,1.643,4.095q0,.076.051.025.076,0,.025-.051l-.2-1.491-.657-2.5-.91-2.3L8.113,2.629a5.78,5.78,0,0,0-1.34-1.39A5.62,5.62,0,0,0,5.055.329L4.954.3,4.828.253,4.6.2,4.55.177H4.5L3.943.051H3.817L3.766.025H3.69L3.463,0h-.48L2.5.076,2.325.126,2.275.152l-.1.025-.43.2-.1.076-.1.051L1.466.581a2.624,2.624,0,0,0-.581.632,3.974,3.974,0,0,0-.379.657L.43,2.022.2,2.806l-.025.152-.051.126L0,4.044v.834a.045.045,0,0,0,.051.051L.076,4.9l.051-.227L.581,3.21l.025-.126.051-.126.4-.809a2.472,2.472,0,0,1,.379-.506l.051-.051.051-.076.076-.051.051-.051.253-.2A1.8,1.8,0,0,1,2.528.96,2.292,2.292,0,0,1,3.21.91h.177L3.564.96h.1l.506.126.076.025H4.3l.051.025.3.076.076.051.758.329.354.2.152.126.1.051.076.076.3.253A2.794,2.794,0,0,1,6.774,2.578Z" transform="translate(0)" fill="#c18770"/>
              </g>
            </g>
          </g>
          <g id="Group_102303" data-name="Group 102303" transform="translate(17.116 29.838) rotate(-7.214)">
            <g id="Group_102296" data-name="Group 102296" transform="translate(0 0.45) rotate(-0.817)">
              <g id="Group_102295" data-name="Group 102295" transform="translate(0 0)">
                <path id="Path_74686" data-name="Path 74686" d="M27.5,5.5q-.12-.737-.259-1.435a3.631,3.631,0,0,0-1.355-2.311A7.89,7.89,0,0,0,19.07.2,30.292,30.292,0,0,0,3.846,7.893,11.307,11.307,0,0,0,.279,14.37a17.657,17.657,0,0,0,.837,9.306q1.634,4.464,3.168,8.947A13.277,13.277,0,0,1,4.7,39.915,5.922,5.922,0,0,1,.02,44.638a10.9,10.9,0,0,0,4.882-.6A12,12,0,0,0,11.856,38a14.24,14.24,0,0,0,1.554-8.349,44.331,44.331,0,0,1-.04-9.385A21.915,21.915,0,0,1,16.5,11.042,13.159,13.159,0,0,1,20.544,6.8q3.786-2.471,6.954.837Z" fill="#540e00"/>
              </g>
            </g>
            <g id="Group_102298" data-name="Group 102298" transform="translate(0.118 0)">
              <g id="Group_102297" data-name="Group 102297" transform="translate(0 0)">
                <path id="Path_74687" data-name="Path 74687" d="M13.671,8.1q-.5.4-.857.737-.757.717-1.255,1.255l-.717.837q-.518.658-.737.976l-.558.8-.04.04-.06.12-.279.438-.5.976a10.153,10.153,0,0,0-.8,3.009,13.332,13.332,0,0,0-.02,1.654l.02.06.02.359.02.1v.1l.04.219v.1l.139.737a16.5,16.5,0,0,0,1,3.268L10.1,25.993l.02.02.04.06.4.817a12.066,12.066,0,0,1,.9,2.989,13.754,13.754,0,0,1,.12,1.495,12.2,12.2,0,0,1-.06,1.435l-.04.359v.12l-.02.04-.139.837-.04.159-.02.179L10.841,36l-.06.139-.04.139-.06.139-.04.139-.518,1.216-.06.1-.04.1-1.1,1.893-.06.08a.163.163,0,0,0-.06.1l-.239.319q-.02.04,0,.06.04.04.06,0l.976-1.216a11.567,11.567,0,0,0,.937-1.515L11.22,36.3l.04-.139.12-.279.678-2.451v-.06l.02-.02v-.1l.06-.359a14.533,14.533,0,0,0,.12-1.515v-.5l-.02-.1-.1-1.2-.02-.1v-.06l-.02-.04-.179-.917-.04-.1-.04-.2-.2-.6v-.06l-.777-1.794-.02-.06h-.02v-.02l-.02-.02-.1-.179-.877-1.873a18.49,18.49,0,0,1-.976-3.109l-.139-.678v-.1l-.04-.2v-.1l-.02-.1-.02-.2-.02-.1v-.1a11.6,11.6,0,0,1-.02-1.534,9.967,9.967,0,0,1,.658-2.83l1.335-2.471.1-.12.319-.5.1-.12.478-.678a.216.216,0,0,0,.08-.1l.159-.2q.658-.817,1.156-1.335l1.076-1.1q.04-.02,0-.06-.02-.02-.06,0l-.319.259m12.2-3.647-.976-1.1-.379-.319-.618-.418a4.566,4.566,0,0,0-.737-.4,5.416,5.416,0,0,0-.857-.3,6.178,6.178,0,0,0-.957-.2,9.179,9.179,0,0,0-2.092,0l-1.076.2L17.9,2l-.12.02-1.355.438-.259.12-.139.04L14.986,3.1q-.8.4-1.973,1.1L9.8,6.563,8.051,8.5,6.815,10.329l-.478.9q-.06.06.02.06a.025.025,0,0,0,.04,0l2.352-2.87.159-.139.139-.159L11.2,6.284l.06-.02v-.02h.02l.02-.02.1-.08,1.1-.717,3.966-2.132,1.774-.618.12-.02q.3-.08,1-.219a8.465,8.465,0,0,1,1.933-.1,6.183,6.183,0,0,1,1.694.339A6.819,6.819,0,0,1,23.694,3l.618.339a9.134,9.134,0,0,1,.917.678l.7.658.04.06q.04.04.06,0,.04-.02,0-.06l-.159-.219M21.622.007q-.379-.02-1.116.02l-2.75.379L16.421.744l-.14.02-1.2.359-.02.02-4.7,2.252q-.777.418-2.252,1.335L5.958,6.264A19.51,19.51,0,0,0,3.986,8.018a11.658,11.658,0,0,0-.9.976,10.054,10.054,0,0,0-.817,1.056q-.359.5-.717,1.116a8.836,8.836,0,0,0-.578,1.216l-.12.319-.04.08L.458,14l-.139.757v.08l-.02.159v-.06l-.04.2-.04.1-.04.2-.04.1-.02.2v.06l-.02.06-.02.1v.1l-.02.04v.06l-.04.2v.12l-.02.1.12,3.268.518,2.371.12.379.04.2,1.774,4.683-.02-.02,2.192,7.234.418,2.471q.06.638.06,1.255l-.04,1.236-.139.917-.08.3-.418,1.176-.3.538-.777.957-1,.737-.558.3A7.856,7.856,0,0,1,.737,45q-.06,0-.02.04,0,.06.04.02l.159-.02.458-.139a3.976,3.976,0,0,0,.6-.219,6.18,6.18,0,0,0,1.136-.6l.5-.4a3.648,3.648,0,0,0,.458-.458l.219-.239.518-.817a4.424,4.424,0,0,0,.279-.6l.219-.618A9.461,9.461,0,0,0,5.56,39.7l.1-1.3q0-.857-.04-1.3-.02-.379-.139-1.275l-.2-1.255L3.208,27.228l-.02-.02L1.774,23.422l-.02-.1-.179-.558-.7-3.049L.717,17.4q.06-.737.06-.757v-.139l.02-.06.02-.179v-.06l.02-.04.02-.1v-.08l.02-.06v-.04l.08-.359.04-.1.02-.1.06-.179v-.06l.02-.159.02-.08v-.08l.04-.139.02-.159.12-.538.418-1.255a10.974,10.974,0,0,1,.538-1.116,12.56,12.56,0,0,1,.658-1.076q.4-.558.777-1l.857-.937q.8-.8,1.893-1.694l1.016-.777L10.7,4.032,15.325,1.72l-.02.02.239-.1,3.926-1q.538-.08,1.076-.12A9.561,9.561,0,0,1,21.6.465l1.076.08a6.922,6.922,0,0,1,1.036.219,4.94,4.94,0,0,1,.957.4l.239.12.478.339.139.139.159.12.04.06.1.08.12.159.139.139.159.219a8.466,8.466,0,0,1,.518.937,6.8,6.8,0,0,1,.339,1q.1.359.219,1.076a9.982,9.982,0,0,1,.1,1.076l.02.139.02.937q-.02.04.02.04l.04-.02.04-1.1a10.851,10.851,0,0,0-.06-1.116,7.384,7.384,0,0,0-.179-1.076A8.716,8.716,0,0,0,27,3.355l-.04-.12-.12-.259-.04-.06-.08-.2-.12-.179-.02-.02v-.04l-.239-.359-.1-.1-.08-.12-.239-.259-.04-.06-.1-.1-.12-.08-.04-.06L24.87.8A8.071,8.071,0,0,0,23.834.345a4.872,4.872,0,0,0-1.1-.239Q22.359.046,21.622.007Z" fill="#812511"/>
              </g>
            </g>
            <g id="Group_102300" data-name="Group 102300" transform="translate(2.11 4.132)">
              <g id="Group_102299" data-name="Group 102299" transform="translate(0 0)">
                <path id="Path_74688" data-name="Path 74688" d="M1.634,8.21q.06-.06-.02-.06h-.04l-.339.538-.02.04-.04.06-.06.12-.08.12-.418.9-.02.1-.2.538-.02.1-.139.478Q.08,12.076.06,12.216l-.04.9L0,13.272v.159l.4,4.125.179.857.04.08.937,3.248L2.87,25.189a30.778,30.778,0,0,1,.957,3.089l.638,3.049a23.074,23.074,0,0,1,.159,2.909l-.06,1.475-.02.04v.12l-.02.04-.04.3-.159.578a2.594,2.594,0,0,1-.2.538l-.04.08-.02.06-.06.12-.08.12-.02.06-.04.06a8.2,8.2,0,0,1-.6.837,5.729,5.729,0,0,1-.658.638l-.618.5q-.139.1-.917.6l-.259.14-.08.06q-.06,0-.02.04,0,.06.04.02l.8-.359,1.236-.777.04-.02.06-.04.08-.08.1-.06.458-.418a5.321,5.321,0,0,0,.7-.857l.319-.5.259-.578.239-.8.02-.179.02-.04v-.04l.02-.08v-.1l.02-.08a11.369,11.369,0,0,0,.12-1.395,16.31,16.31,0,0,0-.08-3.009l-.239-1.674-.02-.04v-.06l-.319-1.395a29.623,29.623,0,0,0-.957-3.169l-2.292-6.4-.04-.179-.04-.1-.2-.817L.518,13.711v-.139l-.02-.08v-.239l-.02-.139v-.857Q.518,11.7.6,11.22a5.368,5.368,0,0,1,.2-.9l.04-.2.04-.1.02-.1.12-.359L1.634,8.21M16.959,2.949l-.159.12-.08.08-.578.478a6.028,6.028,0,0,0-.678.717,6.179,6.179,0,0,0-.638.837L12.953,8.509l-.139.3-1.1,3.069-.339,1.3q-.12.438-.279,1.315l-.5,5.082.3,3.448v.06l.02.02v.04l.757,3.766.1.3q0,.06.04.02.06,0,.02-.04L11.4,23.057l-.02-.02v-.1l-.02-.12-.08-3.228.578-4.823.04-.159q.06-.418.259-1.255l.06-.319.06-.139.578-2.033,1.395-3.428,1.594-2.79,1.176-1.3a7.82,7.82,0,0,1,1.116-.8l.219-.12.06-.02.06-.04.438-.2.139-.04.159-.08q.06,0,.02-.04,0-.06-.04-.02l-.319.06-.837.3-1.076.6M22.937.359,22.818.3,22.3.12l-.578-.1h-.139L21.5,0l-.976.04-.159.02-.458.1-.159.02-.159.06-.08.02h-.04l-.04.02-.458.139h-.02l-.04.02-.08.02-.319.12-.08.02-2.212,1.1-1.176.817a16.383,16.383,0,0,0-2.132,1.913l-1.3,1.495-.06.06-.02.04h-.02l-.02.04-.12.139-.04.08h-.02l-.02.02-.02.04-.1.159-.12.139-.717,1.236a12.754,12.754,0,0,0-.558,1.275,13.852,13.852,0,0,0-.638,2.531,16.267,16.267,0,0,0-.179,2.332v.9l.02.12.04.817.319,2.371.12.518q0,.06.04.02.06,0,.02-.04l-.12-2.77-.02-.12.02-.1v-.817l.02-.12v-.379l.02-.12L9.7,12.076l.02-.06v-.08l.04-.139a14.628,14.628,0,0,1,.7-2.391L11,8.21l.9-1.395.02-.04h.02l.02-.02.04-.08.179-.2.04-.06.458-.538.1-.139.7-.757a18.606,18.606,0,0,1,2.053-1.853l.538-.418,2.112-1.255.159-.06.279-.139h.04l.04-.02.06-.02.359-.159h.04l.04-.02.438-.159h.02l.04-.02.638-.179.139-.02.139-.04.538-.06h.139l.139-.02h.14l.12.02a2.047,2.047,0,0,1,.5.06,1.8,1.8,0,0,1,.478.12L23.1.9a4.756,4.756,0,0,1,.717.478,4.258,4.258,0,0,1,.558.538l.418.538.478.817.06.139.06.08.04.08q0,.06.04.02.06,0,.02-.04l-.02-.08-.04-.1a.274.274,0,0,0-.06-.139l-.139-.379-.259-.518a6.267,6.267,0,0,0-.379-.578,2.745,2.745,0,0,0-.538-.638A3.19,3.19,0,0,0,23.3.538L23.057.4Z" transform="translate(0)" fill="#380a00"/>
              </g>
            </g>
            <g id="Group_102302" data-name="Group 102302" transform="translate(16.352 3.345)">
              <g id="Group_102301" data-name="Group 102301" transform="translate(0 0)">
                <path id="Path_74689" data-name="Path 74689" d="M9.114,1.4l-.02-.04-.2-.139L8.038.747l-.219-.1-.08-.02L7.48.508,5.866.07h-.1L5.308.01q-.478-.02-.957,0L3.394.13l-.239.06L2.3.488l-.1.06-.139.06L2,.648,1.72.787a4.749,4.749,0,0,0-.618.438l-.04.02-.04.04-.06.04L.266,2l-.259.339q-.02.02.02.06h.04L.6,2.063l1.574-.8.1-.02.08-.04.1-.02.279-.1.1-.02.1-.04L3.554.887h.1l.737-.1H5.467l.1.02h.219l.1.02L6.3.867l.1.02h.1l.179.04.2.02.458.1h.08l1.654.379Q9.114,1.465,9.114,1.4Z" fill="#380a00"/>
              </g>
            </g>
          </g>
          <g id="Group_102318" data-name="Group 102318" transform="translate(43.958 15.052) rotate(-3.255)">
            <g id="Group_102305" data-name="Group 102305" transform="translate(0.11 0)">
              <g id="Group_102304" data-name="Group 102304" transform="translate(0 0)">
                <path id="Path_74690" data-name="Path 74690" d="M19.578,2.331A17.789,17.789,0,0,0,11.368,0,11.3,11.3,0,0,0,4.175,2.989,11.379,11.379,0,0,0,.488,9.644a31.9,31.9,0,0,0-.239,9.545q.717-.917,1.395-1.833a21.669,21.669,0,0,1,5.679-5.38,8.049,8.049,0,0,1,3.069-1.2q4.324.04,5.34,4.384a68.2,68.2,0,0,1,1.235,6.994,9.526,9.526,0,0,0,4.185,6.456,16.441,16.441,0,0,1,5.56,8.469,28.039,28.039,0,0,1,1.574,8.847,36.149,36.149,0,0,1-.2,4.085,25.252,25.252,0,0,0,4.6-4.1,31.867,31.867,0,0,0,3.567-5.878,20.71,20.71,0,0,0,2.152-8.748,23.254,23.254,0,0,0-1.455-8.867,13.674,13.674,0,0,0-5.52-6.855,15.994,15.994,0,0,1-5.779-6.616A14.361,14.361,0,0,0,19.578,2.331Z" transform="translate(0)" fill="#540e00"/>
              </g>
            </g>
            <g id="Group_102307" data-name="Group 102307" transform="translate(5.55 2.475)">
              <g id="Group_102306" data-name="Group 102306" transform="translate(0 0)">
                <path id="Path_74691" data-name="Path 74691" d="M11.468,7.767l-.04-.08-.917-1.036-.418-.359-.139-.1-.06-.06-.08-.06a6.805,6.805,0,0,0-1.2-.737l-.159-.08-.06-.04-.08-.04-.159-.06L8.12,5.1l-.02-.02H8.08L8,5.037,7.383,4.8a8.1,8.1,0,0,0-1.275-.3,6.6,6.6,0,0,0-1.255,0L4,4.659l-.2.06-.04.02h-.04l-.12.04-.06.04H3.5l-.02.02-.139.04-.06.04-.3.12-.219.12a7.923,7.923,0,0,0-.8.518l-.418.319-.06.08-.159.12-.12.139-.08.06-.7.757-.02.04-.08.08L.01,7.688q-.02.04,0,.06.04.04.06,0l.239-.259,1-.917.08-.04.6-.458.179-.1a7.165,7.165,0,0,1,.8-.438,7.71,7.71,0,0,1,.917-.319,4.96,4.96,0,0,1,2.132-.1l.139.04.159.02.139.04.139.02L7.8,5.715h.02l1.016.578.6.438.06.04.817.8A6.153,6.153,0,0,1,11.647,9.84a6.074,6.074,0,0,1,.179.638l.179.837v.08l.02.08.06.678v.179l.618,5.46.04.139.02.159.6,2.132.04.06.04.12.259.578a5.378,5.378,0,0,0,.5.817l.08.08.06.1.4.438a5.832,5.832,0,0,0,.558.458l.359.239.219.1.06.04.12.06.1.02a.274.274,0,0,0,.139.06l.1.04.08.02q.04.04.04-.02.04-.04-.02-.04l-.08-.04-.08-.06-.139-.06a5.523,5.523,0,0,1-.777-.538l-.458-.458A5.74,5.74,0,0,1,14.5,21.6a5.552,5.552,0,0,1-.4-.8l-.279-.737V20l-.12-.379-.438-2.252-.5-6.357L12.4,9.581l-.139-.339-.02-.1-.458-.917-.06-.08-.04-.08-.1-.159-.12-.139M13.3,1.192l-.8-.4-.06-.04-1.435-.6L10.551.016q-.04-.04-.04.02-.04.04.02.04L13.68,2.068l.06.06.518.418a15.266,15.266,0,0,1,1.136,1.136l.259.3.06.1.08.08.179.239.06.1.139.179.02.04.04.04,1.1,1.793.3.6.08.2.06.1.7,1.953v.06l.04.12.12.259a4.405,4.405,0,0,0,.418.8,5,5,0,0,0,.518.678,5.355,5.355,0,0,0,.558.558,4.15,4.15,0,0,0,.558.478l.12.12a.393.393,0,0,1,.139.1l.279.179.06.06L23.1,13.845l.219.08q.04.04.04-.02a.025.025,0,0,0,0-.04h-.02l-1.116-.837-.1-.06-1.136-.976-.956-1.076q-.339-.5-.418-.638l-.04-.08-.06-.08L19.4,9.86l-.02-.06-.1-.219-.06-.2-.04-.08v-.04l-.02-.04V9.2l-.379-1.3a14.4,14.4,0,0,0-.757-1.714A13.53,13.53,0,0,0,17.047,4.6l-.139-.179-.06-.1-.04-.04-.02-.06-.139-.179-.08-.08-.06-.1-.6-.678a10.888,10.888,0,0,0-1.275-1.116,12.965,12.965,0,0,0-1.255-.817l-.08-.06m19.508,24.45-.02.04-.179,2.451v.1l-.02.08-.179,1.554v.1l-.737,3.706-.04.12-.02.139-1.136,3.328-.179.4q-.478,1.056-1.016,2.033-.678,1.2-1.156,1.873l-.08.12-.04.04-.817,1.116-.06.1-3.049,3.268-.1.12-.12.08-1,.9q-.02.04,0,.06h.06l2.451-1.813.08-.08.08-.06,1.993-1.973.08-.1a.216.216,0,0,0,.08-.1l.339-.4.1-.1,2.092-3.109.02-.06,1.016-2.152,1.275-4.264.4-3.128v-.12l.02-.12-.1-4.125Z" fill="#812511"/>
              </g>
            </g>
            <g id="Group_102309" data-name="Group 102309" transform="translate(0 0.04)">
              <g id="Group_102308" data-name="Group 102308" transform="translate(0 0)">
                <path id="Path_74692" data-name="Path 74692" d="M12.992.04l-.04-.02L12.076,0,9.724.239,8.847.418Q8.19.6,7.911.7q-.04.02-.5.179l-.379.139-.12.06a6.97,6.97,0,0,0-1,.5q-.219.12-1,.618a10.028,10.028,0,0,0-.937.777,9.5,9.5,0,0,0-.857.9l-.478.618-.06.06-.04.08-.179.259a7.828,7.828,0,0,0-.638,1.1A13.047,13.047,0,0,0,.777,8.309L.239,10.661,0,13.431l.3,5.3.06.3q0,.06.04.02.06,0,.02-.04l.2-6.058L.956,10.8q.1-.558.239-1.136l.319-1.116q.2-.6.418-1.116a11.878,11.878,0,0,1,.5-1.1,10.965,10.965,0,0,1,.6-1.016L3.447,4.7,4.5,3.507,5.8,2.451q.159-.1.458-.3l.12-.08.12-.06.1-.08,1.036-.518L9.405.757l.2-.04.1-.04.877-.219L12.972.08Q13.032.08,12.992.04Z" fill="#812511"/>
              </g>
            </g>
            <g id="Group_102311" data-name="Group 102311" transform="translate(0.502 8.469)">
              <g id="Group_102310" data-name="Group 102310" transform="translate(0 0)">
                <path id="Path_74693" data-name="Path 74693" d="M9.4.06l-.857.2a6.557,6.557,0,0,0-.857.359L7.329.8l-1.036.678-.9.757L4.041,3.666l-.06.1L3.025,5q-.3.4-.917,1.375L.1,10.2l-.08.219q-.04.04.02.04.04.04.04-.02l.279-.4L.434,9.9l.418-.618.08-.1.139-.239L3.6,5.42,5.934,2.83,7.488,1.594l.179-.1.04-.04.319-.179L8.784.937Q9,.857,9.521.717a6.276,6.276,0,0,1,.757-.1h.438l.1.02h.08l.08.02.339.04.478.12.956.4,1.216.777.04.04.06.04.159.139q.04.04.06,0,.04-.02,0-.06l-.578-.618a7.508,7.508,0,0,0-.777-.618,4.417,4.417,0,0,0-1.136-.6L11.075.1a5.866,5.866,0,0,0-.817-.1L9.4.06m9.664,8.708-.02.12.02,3.806.1.777.12.5.04.1.02.1.04.1a5.008,5.008,0,0,0,.359.757,6.1,6.1,0,0,0,.5.7,5.12,5.12,0,0,0,.618.6l.159.12.08.08.339.239.08.04.538.319.877.4.179.06.478.219a4.685,4.685,0,0,1,.578.3l.538.319.458.359.677.757.12.2.219.518.139.5v.04l.02.04v.06l.02.06.04.02.04-.08v-.438l-.02-.08v-.08l-.1-.478a3.347,3.347,0,0,0-.179-.438,3.057,3.057,0,0,0-.259-.478l-.159-.239-.2-.219a3.051,3.051,0,0,0-.478-.458l-1.156-.8L22.493,16.5l-.08-.06-.159-.08-.08-.06-.08-.04-.219-.159-.08-.04-.08-.06-.06-.06-.3-.219a5.823,5.823,0,0,1-.5-.518l-.438-.578-.319-.638-.02-.08-.04-.08-.179-.678-.558-5.8a.035.035,0,0,0-.04-.04l-.02.02-.179,1.315v.12m14.347,10.96-.518-.638a5.329,5.329,0,0,0-.976-.9l-.857-.558-1.1-.518-.08-.02-.08-.04-1.534-.6-4.623-2.311-.12-.08-.08-.02-.179-.12-.04-.02-.02-.02-.08-.04-.239-.159-.04-.04-.179-.12a6.259,6.259,0,0,1-.8-.777l-.04-.04-.5-.717-.02-.06-.04-.04q-.2-.379-.418-.917a9.522,9.522,0,0,1-.418-1.714L20.3,6.675q.04-.04-.02-.04l-.04.02-.159,1.235a12.49,12.49,0,0,0,0,1.415l.179,1.335.04.12.02.139.08.239a6.481,6.481,0,0,0,.379,1.016,7.757,7.757,0,0,0,.618.976l.279.359.12.12.04.06.239.219.06.04.239.219.06.04.06.06.339.239.02.02L25.841,16.2l.159.06.139.08,3.089,1.355.319.1.02.02.04.02.08.02.8.359.06.02.937.558a7.382,7.382,0,0,1,.9.777l.3.319.159.239.08.08v.02l.179.259.06.12.08.12.339.737a6.664,6.664,0,0,1,.259,1.016,4,4,0,0,1,0,.976v.12l-.02.12v.06l-.02.06-.7,2.73-.06.12-.04.139-.339.877q-.04.04.02.04.04.04.04-.02l.4-.717,1.056-2.73.02-.12.04-.12.02-.1.02-.06v-.04l.02-.04.04-.259a3.659,3.659,0,0,0,.04-1.076v-.159l-.02-.139v-.06L34.33,22l-.02-.139-.02-.04v-.04l-.02-.08-.02-.139-.04-.139-.06-.139-.06-.219-.04-.08-.04-.139-.279-.578-.159-.259-.06-.139h-.02v-.02l-.02-.02-.02-.04Z" fill="#380a00"/>
              </g>
            </g>
            <g id="Group_102313" data-name="Group 102313" transform="translate(0.422 7.014)">
              <g id="Group_102312" data-name="Group 102312" transform="translate(0 0)">
                <path id="Path_74694" data-name="Path 74694" d="M6.751,0l-.12.1L5.994.538,4.739,1.654l-.08.1-.6.618L2.726,4.125,1.51,6.317l-.06.159-.08.139L.434,9.365.375,9.6.036,11.6l-.02.458q-.04.04.02.04l.04-.02L1.331,8.608,3.463,4.4l1.913-2.69L6.811.06V0Z" transform="translate(0)" fill="#380a00"/>
              </g>
            </g>
            <g id="Group_102315" data-name="Group 102315" transform="translate(11.059 10.127)">
              <g id="Group_102314" data-name="Group 102314" transform="translate(0 0)">
                <path id="Path_74695" data-name="Path 74695" d="M5.978,7.07,5.619,5.057a4.544,4.544,0,0,0-.239-.8l-.7-1.455a7.015,7.015,0,0,0-.438-.658l-.1-.159-.04-.04-.02-.04-.06-.06-.06-.08-.717-.678L2.63.674,2.59.654l-.02-.02-.08-.04-.02-.02-.12-.06-.06-.02L2.152.414,1.634.235A4.435,4.435,0,0,0,.777.076L.239.016H.04Q0-.024,0,.036l.02.04L.737.295A1.9,1.9,0,0,1,1.1.414l.418.159a3.088,3.088,0,0,1,.458.239l.219.139.02.02h.02l.02.02.06.04.02.02.04.02.04.04.458.4a5.209,5.209,0,0,1,.438.458l.1.139.06.06.04.08.06.06.777,1.415.02.1.159.339.239.717.5,2.63v.04l.02.06.578,3.627.02.04v.04l.279,1.375.04.12v.08h.02v.06a5.327,5.327,0,0,0,.279.817l.3.638.04.04q0,.06.04.02.06,0,.02-.04v-.06l-.06-.139-.259-1.216v-.159h-.02v-.219l-.12-1.315-.02-.08v-.08L6.257,9.421V9.242L6.038,7.468v-.04l-.02-.06L6,7.269Z" fill="#380a00"/>
              </g>
            </g>
            <g id="Group_102317" data-name="Group 102317" transform="translate(21.58 28.688)">
              <g id="Group_102316" data-name="Group 102316" transform="translate(0 0)">
                <path id="Path_74696" data-name="Path 74696" d="M0,.027v.04L1.136,1.182a.855.855,0,0,1,.159.2l.2.179.558.678.06.06.04.06L2.67,3q.737,1.056.8,1.176l.956,1.674.717,1.614,1.116,3.786.638,3.945.04.02.02-.04.06-1.136.02-.1-.06-1.793-.06-.478v-.179l-.1-.7-.6-2.63Q6,7.459,5.639,6.6q-.359-.8-.717-1.475L4.5,4.43l-.04-.08-.179-.239-.1-.179-.12-.159q-.279-.4-.917-1.156L1.574,1.083a.855.855,0,0,1-.2-.159L.06.007Q.04-.013,0,.027Z" transform="translate(0 0)" fill="#380a00"/>
              </g>
            </g>
          </g>
          <g id="Group_102321" data-name="Group 102321" transform="translate(33.253 80.042)">
            <g id="Group_102320" data-name="Group 102320" transform="translate(0 0)">
              <g id="Group_102319" data-name="Group 102319">
                <path id="Path_74697" data-name="Path 74697" d="M6.129,3.046,3.1.013a.032.032,0,0,0-.051,0L.013,3.046a.032.032,0,0,0,0,.051L3.046,6.129a.032.032,0,0,0,.051,0L6.129,3.1a.032.032,0,0,0,0-.051M3.071,6.028l.025.025H3.046l.025-.025L.114,3.071.088,3.1V3.046l.025.025L3.071.114,6.028,3.071,3.071,6.028m.051-3.715-.051-.051-.051.051V3.02H2.313l-.051.051.051.051H3.02v.708l.051.051.051-.051V3.121h.708l.051-.051L3.829,3.02H3.121Z" fill="rgba(0,0,0,0)"/>
              </g>
            </g>
          </g>
        </g>
        <g id="Group_102342" data-name="Group 102342" transform="matrix(0.96, -0.28, 0.28, 0.96, -224.278, -682.144)">
          <g id="Group_102324" data-name="Group 102324" transform="translate(0.354 56.303)">
            <g id="Group_102323" data-name="Group 102323" transform="translate(0 0)">
              <path id="Path_74698" data-name="Path 74698" d="M0,26.837l18.751,4.6L24.512,6.09,7.733,0Z" transform="translate(0 0)" fill="#e2ad98"/>
            </g>
          </g>
          <g id="Group_102326" data-name="Group 102326" transform="translate(0.202 75.407)">
            <g id="Group_102325" data-name="Group 102325" transform="translate(0 0)">
              <path id="Path_74699" data-name="Path 74699" d="M19.256,9.628a9.3,9.3,0,0,0-2.83-6.823A9.258,9.258,0,0,0,9.628,0,9.341,9.341,0,0,0,2.805,2.805,9.341,9.341,0,0,0,0,9.628a9.258,9.258,0,0,0,2.805,6.8,9.3,9.3,0,0,0,6.823,2.83,9.216,9.216,0,0,0,6.8-2.83A9.216,9.216,0,0,0,19.256,9.628Z" fill="#e2ad98"/>
            </g>
          </g>
          <g id="Group_102329" data-name="Group 102329" transform="translate(6.545 53.018)">
            <g id="Group_102328" data-name="Group 102328" transform="translate(0 0)">
              <g id="Group_102327" data-name="Group 102327" transform="translate(0 0)">
                <path id="Path_74700" data-name="Path 74700" d="M1.819,0,0,8.845a35.762,35.762,0,0,0,17.285,4.9l1.744-5.989Z" fill="#c18770"/>
              </g>
            </g>
          </g>
          <g id="Group_102331" data-name="Group 102331" transform="translate(0.051 6.621)">
            <g id="Group_102330" data-name="Group 102330" transform="translate(0 0)">
              <path id="Path_74701" data-name="Path 74701" d="M46.649,13.52,22.642,0A282.752,282.752,0,0,0,0,48.949a59.856,59.856,0,0,0,35.3,8.617A102.363,102.363,0,0,1,46.649,13.52Z" transform="translate(0)" fill="#7a2230"/>
            </g>
          </g>
          <g id="Group_102333" data-name="Group 102333" transform="translate(20.798 0)">
            <g id="Group_102332" data-name="Group 102332" transform="translate(0 0)">
              <path id="Path_74702" data-name="Path 74702" d="M27.444,13.747a13.305,13.305,0,0,0-4.018-9.729A13.222,13.222,0,0,0,13.722,0,13.305,13.305,0,0,0,3.993,4.018,13.348,13.348,0,0,0,0,13.747a13.18,13.18,0,0,0,3.993,9.679,13.264,13.264,0,0,0,9.729,4.043,13.18,13.18,0,0,0,9.7-4.043A13.139,13.139,0,0,0,27.444,13.747Z" transform="translate(0 0)" fill="#7a2230"/>
            </g>
          </g>
          <g id="Group_102336" data-name="Group 102336" transform="translate(0 17.138)">
            <g id="Group_102335" data-name="Group 102335" transform="translate(0 0)">
              <g id="Group_102334" data-name="Group 102334">
                <path id="Path_74703" data-name="Path 74703" d="M16.881.02Q16.83-.03,16.83.045,15.9,1.713,15.592,2.32L13.671,6.035,5.837,23.32,0,38.381l2.047,1.466.505.278.152.1,1.971,1.036.177.076.152.1,6.191,2.325q.051.051.051-.025.051-.051-.025-.051l-7.783-4.9-.126-.126-.43-.3-.126-.126-.531-.43,8.819-20.671,5.13-14.581q.278-.809.733-2.477Q16.957.02,16.881.02Z" fill="#4b0f18"/>
              </g>
            </g>
          </g>
          <g id="Group_102338" data-name="Group 102338" transform="translate(39.301 16.911)">
            <g id="Group_102337" data-name="Group 102337" transform="translate(0 0)">
              <path id="Path_74704" data-name="Path 74704" d="M8.536.02Q8.486-.03,8.486.045L4.165,7.7l-.051.152L3.1,10.053l-1.592,4.4L.425,18.821l-.4,2.527q-.051.051.025.051L.1,21.374l2.931-8.415L7.778,2.5,8.562.071Q8.612.02,8.536.02Z" fill="#4b0f18"/>
            </g>
          </g>
          <g id="Group_102341" data-name="Group 102341" transform="translate(31.449 10.652)">
            <g id="Group_102340" data-name="Group 102340" transform="translate(0 0)">
              <g id="Group_102339" data-name="Group 102339">
                <path id="Path_74705" data-name="Path 74705" d="M6.128,3.045,3.1.013a.032.032,0,0,0-.051,0L.013,3.045a.032.032,0,0,0,0,.051L3.045,6.128a.032.032,0,0,0,.051,0L6.128,3.1a.032.032,0,0,0,0-.051M3.07,6.027l.025.025H3.045l.025-.025L.114,3.07.088,3.1V3.045l.025.025L3.07.114,6.027,3.07,3.07,6.027m.051-3.715L3.07,2.262l-.051.051V3.02H2.312l-.051.051.051.051H3.02v.708l.051.051.051-.051V3.121h.708l.051-.051L3.828,3.02H3.121Z" fill="rgba(0,0,0,0)"/>
              </g>
            </g>
          </g>
        </g>
        <g id="Group_102350" data-name="Group 102350" transform="matrix(-0.993, -0.118, 0.118, -0.993, -167.61, -597.383)">
          <g id="Group_102344" data-name="Group 102344" transform="translate(0 0.265)">
            <g id="Group_102343" data-name="Group 102343" transform="translate(0 0)">
              <path id="Path_74706" data-name="Path 74706" d="M0,62.6l8.718,3.715A118.264,118.264,0,0,1,21.506,41.217q8.718-13.52,11.22-23.729a50.712,50.712,0,0,0,.682-13.015L14.632,0A189.817,189.817,0,0,0,8.9,20.874Z" fill="#e2ad98"/>
            </g>
          </g>
          <g id="Group_102346" data-name="Group 102346" transform="translate(1.471 8.029)">
            <g id="Group_102345" data-name="Group 102345" transform="translate(0 0)">
              <path id="Path_74707" data-name="Path 74707" d="M10.659.045l-3.007,9.5L4.392,27.01.526,45.381v.051L.5,45.508.02,47.959q-.051.051.025.051Q.1,48.06.1,47.984l.783-2.249.076-.177v-.076l1.238-4.018L6.49,24.23q.354-2.2.379-2.3l.96-6.646L10.735.071Q10.786.02,10.71.02,10.659-.03,10.659.045Z" fill="#c18770"/>
            </g>
          </g>
          <g id="Group_102349" data-name="Group 102349" transform="translate(20.861 0)">
            <g id="Group_102348" data-name="Group 102348" transform="translate(0 0)">
              <g id="Group_102347" data-name="Group 102347">
                <path id="Path_74708" data-name="Path 74708" d="M6.128,3.045,3.1.013a.032.032,0,0,0-.051,0L.013,3.045a.032.032,0,0,0,0,.051L3.045,6.128a.032.032,0,0,0,.051,0L6.128,3.1a.032.032,0,0,0,0-.051M3.07,6.027l.025.025H3.045l.025-.025L.114,3.07.088,3.1V3.045l.025.025L3.07.114,6.027,3.07,3.07,6.027m.051-3.715L3.07,2.262l-.051.051V3.02H2.312l-.051.051.051.051H3.02v.708l.051.051.051-.051V3.121h.708l.051-.051L3.829,3.02H3.121Z" fill="rgba(0,0,0,0)"/>
              </g>
            </g>
          </g>
        </g>
        <g id="Group_102356" data-name="Group 102356" transform="translate(-148.379 -663.35) rotate(156.698)">
          <g id="Group_102352" data-name="Group 102352" transform="translate(0 0)">
            <g id="Group_102351" data-name="Group 102351" transform="translate(0 0)">
              <path id="Path_74709" data-name="Path 74709" d="M23.9,8.542V6.167L22.058,3.285a34.952,34.952,0,0,1,.607,5.257l-.126,1.9a7.252,7.252,0,0,0,2.6,2.451q.227.126.455.227a2.265,2.265,0,0,0,.4.2q2.477.758,4.65-2.477-2.6,2.275-4.65,1.264-.2-.126-.43-.253-.2-.152-.43-.329A3.211,3.211,0,0,1,23.9,8.542M14.1,19.789a10.014,10.014,0,0,0,.227,2.628q.051.177.1.4a18.934,18.934,0,0,1,1.314-2.78q1.137-1.971,2.325-3.993a12.16,12.16,0,0,0,1.213-7.506q-.1-.379-.2-.733-.051.354-.076.733-.177,1.011-.354,1.971a14.662,14.662,0,0,1-1.87,5.535q-.152.278-.354.581A32.044,32.044,0,0,1,14.1,19.789M14.3,9.3q-.126.4-.278.834a21.35,21.35,0,0,1-1.289,3.058q-.48.607-.96,1.188-.708.91-1.289,1.794a17.938,17.938,0,0,1-1.668,2.072A9.3,9.3,0,0,0,7,21.431a1.752,1.752,0,0,0,.657,1.339L12.1,16.048a20.987,20.987,0,0,0,1.289-2.7A17.045,17.045,0,0,0,14.477,9.3H14.3M2.27,15.492H2.219v.025l-.177.025h.126l-.4,1.441A63.511,63.511,0,0,0,7.3,13.268,9.1,9.1,0,0,0,10,10.033a8.81,8.81,0,0,0,.809-3.69l-.2.733q-.4.733-1.238,2.047A24.4,24.4,0,0,1,6.92,12.232a14.7,14.7,0,0,1-3.841,3.033l-.809.227M7.046.177A.743.743,0,0,0,7.021,0V.505L7,1.971,6.238,4.347A17.925,17.925,0,0,1,1.992,9.755Q-.738,13.243.273,14.3a.286.286,0,0,1,.1.1l.076.126a11.405,11.405,0,0,1,2.4-4.372Q4.469,8.315,5.934,6.7A5.392,5.392,0,0,0,7.2,2.527Q7.147,2.275,7.046.177Z" transform="translate(0 12.763)" fill="#c18770"/>
              <path id="Path_74710" data-name="Path 74710" d="M6.268,15.29l-.48,1.82.758-2.376.025-1.466a13.955,13.955,0,0,1-.3,2.022M7.1,8.163,6.9,9.427a25.662,25.662,0,0,0-.278,2.679q0,.4-.025.834.1,2.1.152,2.35a5.392,5.392,0,0,1-1.264,4.17Q4.018,21.078,2.4,22.923A11.405,11.405,0,0,0,0,27.295l.076.076L.051,27.4a2.278,2.278,0,0,0,.607.657,1.765,1.765,0,0,0,.935.253l.177-.025v-.025H1.82l.809-.227A14.7,14.7,0,0,0,6.47,24.995a24.4,24.4,0,0,0,2.451-3.109q.834-1.314,1.238-2.047l.2-.733a8.81,8.81,0,0,1-.809,3.69,9.1,9.1,0,0,1-2.7,3.235,63.512,63.512,0,0,1-5.535,3.715l.4-1.441H1.693a4.463,4.463,0,0,0-.4,2.3A4.007,4.007,0,0,0,2.3,32.2a3.467,3.467,0,0,0,.809-.051,9.781,9.781,0,0,0,3.917-1.693q1.112-.783,2.224-1.643a1.05,1.05,0,0,0,.2-.152q.859-.708,1.87-1.516.48-.581.96-1.188A21.35,21.35,0,0,0,13.572,22.9q.152-.43.278-.834h.177a17.045,17.045,0,0,1-1.087,4.044,20.986,20.986,0,0,1-1.289,2.7L7.2,35.534a4.91,4.91,0,0,0,4.777-1.087,8.663,8.663,0,0,0,1.668-1.9,32.045,32.045,0,0,0,2.325-3.159q.2-.3.354-.581a14.662,14.662,0,0,0,1.87-5.535q.177-.96.354-1.971.025-.379.076-.733.1.354.2.733a12.16,12.16,0,0,1-1.213,7.506Q16.427,30.833,15.29,32.8a18.934,18.934,0,0,0-1.314,2.78,4.667,4.667,0,0,0,1.415,1.188.588.588,0,0,0,.152.1,3.447,3.447,0,0,0,1.441,0l.632-.227a27.774,27.774,0,0,0,2.249-4.271,35.529,35.529,0,0,0,1.213-3.563A31.056,31.056,0,0,0,22.088,23.2l.126-1.9a34.953,34.953,0,0,0-.607-5.257l1.845,2.881v2.376a3.211,3.211,0,0,0,1.238,2.982q.227.177.43.329.227.126.43.253Q27.6,25.879,30.2,23.6q-3.665-2.957-5.509-9.654-.4-1.516-.733-3.26a20.556,20.556,0,0,0-.783-3.083Q20.976,1.137,14.987,0,9-.025,7.253,7.607,7.177,7.86,7.1,8.163Z" transform="translate(0.45 0)" fill="#e2ad98"/>
            </g>
          </g>
          <g id="Group_102355" data-name="Group 102355" transform="translate(12.467 1.731)">
            <g id="Group_102354" data-name="Group 102354" transform="translate(0 0)">
              <g id="Group_102353" data-name="Group 102353">
                <path id="Path_74711" data-name="Path 74711" d="M6.129,3.045,3.1.013a.032.032,0,0,0-.051,0L.013,3.045a.032.032,0,0,0,0,.051L3.045,6.129a.032.032,0,0,0,.051,0L6.129,3.1a.032.032,0,0,0,0-.051M3.071,6.028l.025.025H3.045l.025-.025L.114,3.071.088,3.1V3.045l.025.025L3.071.114,6.028,3.071,3.071,6.028m.051-3.715-.051-.051-.051.051V3.02H2.312l-.051.051.051.051H3.02v.708l.051.051.051-.051V3.121h.708l.051-.051L3.829,3.02H3.121Z" fill="rgba(0,0,0,0)"/>
              </g>
            </g>
          </g>
        </g>
      </g>
    </g>
  </g>
</svg>
