<svg xmlns="http://www.w3.org/2000/svg" xmlns:xlink="http://www.w3.org/1999/xlink" width="375" height="270" viewBox="0 0 375 270">
  <defs>
    <clipPath id="clip-path">
      <rect id="Rectangle_8651" data-name="Rectangle 8651" width="375" height="270" transform="translate(16316 -11926)" fill="#fff" stroke="#707070" stroke-width="1" opacity="0.59"/>
    </clipPath>
    <clipPath id="clip-path-2">
      <path id="Path_74825" data-name="Path 74825" d="M0,0H137l.5,226.435H73.566s-6.385,25.031-25.08,25.031S.314,227.22.314,227.22Z" transform="translate(127 108.5)" fill="#fff"/>
    </clipPath>
    <linearGradient id="linear-gradient" x1="0.119" y1="0.51" x2="1.54" y2="0.389" gradientUnits="objectBoundingBox">
      <stop offset="0" stop-color="#bec0c2"/>
      <stop offset="0.341" stop-color="#fff"/>
      <stop offset="1" stop-color="#bec0c2"/>
    </linearGradient>
    <linearGradient id="linear-gradient-2" x1="0.417" y1="0.502" x2="0.708" y2="0.495" gradientUnits="objectBoundingBox">
      <stop offset="0" stop-color="#d2d4d5"/>
      <stop offset="1" stop-color="#fff"/>
    </linearGradient>
  </defs>
  <g id="Mask_Group_16584" data-name="Mask Group 16584" transform="translate(-16316 11926)" clip-path="url(#clip-path)">
    <g id="Mask_Group_16575" data-name="Mask Group 16575" transform="translate(16316 -12027)" clip-path="url(#clip-path-2)">
      <g id="female_teen_5" data-name="female teen 5" transform="translate(339.059 935.367)">
        <g id="Group_102372" data-name="Group 102372" transform="translate(-119.491 -572.647) rotate(-163.287)">
          <g id="Group_102358" data-name="Group 102358" transform="translate(0.156 7.111)">
            <g id="Group_102357" data-name="Group 102357" transform="translate(0 0)">
              <path id="Path_74712" data-name="Path 74712" d="M0,4.723,19.257,0l5.917,26.031L7.942,32.285Z" fill="#e2ad98"/>
            </g>
          </g>
          <g id="Group_102360" data-name="Group 102360" transform="translate(0 0)">
            <g id="Group_102359" data-name="Group 102359" transform="translate(0 0)">
              <path id="Path_74713" data-name="Path 74713" d="M19.776,9.888A9.55,9.55,0,0,1,16.869,16.9a9.508,9.508,0,0,1-6.981,2.881A9.594,9.594,0,0,1,2.881,16.9,9.594,9.594,0,0,1,0,9.888,9.508,9.508,0,0,1,2.881,2.907,9.55,9.55,0,0,1,9.888,0a9.465,9.465,0,0,1,6.981,2.907A9.465,9.465,0,0,1,19.776,9.888Z" fill="#e2ad98"/>
            </g>
          </g>
          <g id="Group_102363" data-name="Group 102363" transform="translate(6.462 29.049)">
            <g id="Group_102362" data-name="Group 102362" transform="translate(0 0)">
              <g id="Group_102361" data-name="Group 102361">
                <path id="Path_74714" data-name="Path 74714" d="M2.6,16.213,0,4.56Q9.37-.286,17.933.018l2.44,9.862Z" fill="#c18770"/>
              </g>
            </g>
          </g>
          <g id="Group_102365" data-name="Group 102365" transform="translate(1.35 30.568)">
            <g id="Group_102364" data-name="Group 102364" transform="translate(0 0)">
              <path id="Path_74715" data-name="Path 74715" d="M43.86,62.525a13.579,13.579,0,0,1-9.966,4.127A13.665,13.665,0,0,1,23.9,62.525a13.879,13.879,0,0,1-3.607-6.1h-.026Q13.923,35.312,0,8.569,15.39-.514,36.49.031A281.38,281.38,0,0,1,47.961,51.236h-.026q.052.64.052,1.3A13.665,13.665,0,0,1,43.86,62.525Z" fill="#7a2230"/>
            </g>
          </g>
          <g id="Group_102368" data-name="Group 102368" transform="translate(16.895 30.469)">
            <g id="Group_102367" data-name="Group 102367" transform="translate(0 0)">
              <g id="Group_102366" data-name="Group 102366" transform="translate(0 0)">
                <path id="Path_74716" data-name="Path 74716" d="M30.027,36.256q.052.052-.026.052l-.052-.026L26.031,25.564l-6.9-23.28-4-.156L.052,2.284A.046.046,0,0,1,0,2.232l.026-.026,4.983-.96L15.053,0l5.969.052,5.009,17.8Z" fill="#4b0f18"/>
              </g>
            </g>
          </g>
          <g id="Group_102371" data-name="Group 102371" transform="translate(32.091 79.974)">
            <g id="Group_102370" data-name="Group 102370" transform="translate(0 0)">
              <g id="Group_102369" data-name="Group 102369">
                <path id="Path_74717" data-name="Path 74717" d="M6.294,3.179,3.179,6.294a.032.032,0,0,1-.052,0L.013,3.179a.032.032,0,0,1,0-.052L3.127.013a.032.032,0,0,1,.052,0L6.294,3.127a.032.032,0,0,1,0,.052M3.153.117,3.179.091H3.127l.026.026L.117,3.153.091,3.127v.052l.026-.026L3.153,6.19,6.19,3.153,3.153.117m.052,3.815-.052.052L3.1,3.932V3.205H2.375l-.052-.052L2.375,3.1H3.1V2.375l.052-.052.052.052V3.1h.727l.052.052-.052.052H3.205Z" fill="rgba(0,0,0,0)"/>
              </g>
            </g>
          </g>
        </g>
        <g id="Group_102380" data-name="Group 102380" transform="translate(-112.088 -516.704) rotate(-170.965)">
          <g id="Group_102374" data-name="Group 102374" transform="translate(0 0)">
            <g id="Group_102373" data-name="Group 102373" transform="translate(0 0)">
              <path id="Path_74718" data-name="Path 74718" d="M0,3.816,8.956,0A121.48,121.48,0,0,0,22.09,25.777q8.956,13.888,11.525,24.375a52.091,52.091,0,0,1,.7,13.368L15.03,68.114A194.98,194.98,0,0,1,9.137,46.673Z" fill="#e2ad98"/>
            </g>
          </g>
          <g id="Group_102376" data-name="Group 102376" transform="translate(1.511 10.804)">
            <g id="Group_102375" data-name="Group 102375" transform="translate(0 0)">
              <path id="Path_74719" data-name="Path 74719" d="M10.949,49.289,7.86,39.529,4.512,21.592.54,2.72V2.669L.514,2.591.021.073Q-.031.021.047.021.1-.031.1.047l.8,2.31.078.182v.078L2.253,6.744l4.413,17.7q.363,2.258.389,2.362l.986,6.827,2.985,15.627q.052.052-.026.052Q10.949,49.367,10.949,49.289Z" fill="#c18770"/>
            </g>
          </g>
          <g id="Group_102379" data-name="Group 102379" transform="translate(21.429 62.079)">
            <g id="Group_102378" data-name="Group 102378" transform="translate(0 0)">
              <g id="Group_102377" data-name="Group 102377">
                <path id="Path_74720" data-name="Path 74720" d="M6.295,3.18,3.18,6.295a.032.032,0,0,1-.052,0L.013,3.18a.032.032,0,0,1,0-.052L3.128.013a.032.032,0,0,1,.052,0L6.295,3.128a.032.032,0,0,1,0,.052M3.154.117,3.18.091H3.128l.026.026L.117,3.154.091,3.128V3.18l.026-.026L3.154,6.191,6.191,3.154,3.154.117m.052,3.816-.052.052L3.1,3.933V3.206H2.375l-.052-.052L2.375,3.1H3.1V2.375l.052-.052.052.052V3.1h.727l.052.052-.052.052H3.206Z" fill="rgba(0,0,0,0)"/>
              </g>
            </g>
          </g>
        </g>
        <g id="Group_102386" data-name="Group 102386" transform="translate(-108.095 -482.363) rotate(-169.142)">
          <g id="Group_102382" data-name="Group 102382" transform="translate(0 0)">
            <g id="Group_102381" data-name="Group 102381">
              <path id="Path_74721" data-name="Path 74721" d="M4.31,3.323q0-.1.208-1.584l.519.493a4.1,4.1,0,0,1,.909,2.181Q5.322,11.631,5.4,19.42a52.672,52.672,0,0,1-1.09-16.1m6.646,17.213q-.156-.649-.26-1.35a54.417,54.417,0,0,1-.312-15.811A26.03,26.03,0,0,1,10.878,0a4.374,4.374,0,0,1,1.506,2.8,2.412,2.412,0,0,1-.1.571,73.475,73.475,0,0,0-1.35,15.707q.026.7.026,1.454M0,11.969a8.867,8.867,0,0,0,.857-1.688v4.232a22.471,22.471,0,0,0,1.194,6.62,14.276,14.276,0,0,1-1.09-3.167q-.208-.675-.467-1.428A17.606,17.606,0,0,1,0,11.969Z" transform="translate(0.886 1.826)" fill="#c18770"/>
              <path id="Path_74722" data-name="Path 74722" d="M15.062,40.147l-.026-.1h-.1a8.746,8.746,0,0,1-6.257-5.089Q7.091,32.54,5.118,28.879q-.441-.727-.883-1.376a4.993,4.993,0,0,1-.441-.675q-.675-.987-1.246-1.869a19.147,19.147,0,0,1-2.44-5.3Q-.308,17.949.886,13.8a17.606,17.606,0,0,0,.493,4.569q.26.753.467,1.428a14.276,14.276,0,0,0,1.09,3.167,22.471,22.471,0,0,1-1.194-6.62V12.108l.078-1.843a9.565,9.565,0,0,1,.26-1.3Q2.47,7.1,2.807,5.15l.026-.1Q4.261,2.527,5.4,3.566,5.2,5.046,5.2,5.15a52.672,52.672,0,0,0,1.09,16.1q-.078-7.789.545-15.006a7.7,7.7,0,0,1,.078-1.09q.208-1.973.675-4.414,2.856-1.9,4.18,1.09A26.03,26.03,0,0,0,11.271,5.2a54.417,54.417,0,0,0,.312,15.811q.1.7.26,1.35,0-.753-.026-1.454A73.475,73.475,0,0,1,13.166,5.2a2.412,2.412,0,0,0,.1-.571q.286-.987.779-2.622,4.05.519,5.011,3.271A8.26,8.26,0,0,1,18.9,9.641q-1.636,8.983-.026,12.877,1.584.338,1.376-3.868-.312-4.751,1.558-6.075a4.029,4.029,0,0,1,4.959-.13q-1.739,7.971-.935,11.917.753,3.972.753,4.05a14.835,14.835,0,0,1-.8,1.869,50.341,50.341,0,0,1-2.622,4.881,14.623,14.623,0,0,1-1.09,1.428,8.5,8.5,0,0,1-3.3,2.8,2.029,2.029,0,0,1-.415.156,5.5,5.5,0,0,1-2.518.649A5.887,5.887,0,0,1,15.062,40.147Z" fill="#e2ad98"/>
            </g>
          </g>
          <g id="Group_102385" data-name="Group 102385" transform="translate(12.063 32.319)">
            <g id="Group_102384" data-name="Group 102384" transform="translate(0 0)">
              <g id="Group_102383" data-name="Group 102383">
                <path id="Path_74723" data-name="Path 74723" d="M6.3,3.18,3.18,6.3a.032.032,0,0,1-.052,0L.013,3.18a.032.032,0,0,1,0-.052L3.128.013a.032.032,0,0,1,.052,0L6.3,3.128a.032.032,0,0,1,0,.052M3.154.117,3.18.091H3.128l.026.026L.117,3.154.091,3.128V3.18l.026-.026L3.154,6.192,6.192,3.154,3.154.117m.052,3.816-.052.052L3.1,3.933V3.206H2.376l-.052-.052L2.376,3.1H3.1V2.376l.052-.052.052.052V3.1h.727l.052.052-.052.052H3.206Z" fill="rgba(0,0,0,0)"/>
              </g>
            </g>
          </g>
        </g>
        <g id="Group_102395" data-name="Group 102395" transform="matrix(0.994, -0.111, 0.111, 0.994, -199.637, -633.586)">
          <g id="Group_102388" data-name="Group 102388" transform="translate(0 0)">
            <g id="Group_102387" data-name="Group 102387" transform="translate(0 0)">
              <path id="Path_74724" data-name="Path 74724" d="M69.189,29.314h-.078a33.17,33.17,0,0,0-9.789-19.162A33.4,33.4,0,0,0,34.812,0,33.342,33.342,0,0,0,10.3,10.152C3.707,16.73.1,32.451.094,32.472h0l8.141.912c-.04-.136,61.129,6.814,61.129,6.814Z" transform="translate(-0.111 0.994)" fill="#ece7de"/>
            </g>
          </g>
          <g id="Group_102394" data-name="Group 102394" transform="translate(33.942 100.677)">
            <g id="Group_102393" data-name="Group 102393" transform="translate(0 0)">
              <g id="Group_102392" data-name="Group 102392">
                <path id="Path_74725" data-name="Path 74725" d="M6.3,3.129,3.181.013a.032.032,0,0,0-.052,0L.013,3.129a.032.032,0,0,0,0,.052L3.129,6.3a.032.032,0,0,0,.052,0L6.3,3.181a.032.032,0,0,0,0-.052M3.155,6.193l.026.026H3.129l.026-.026L.117,3.155l-.026.026V3.129l.026.026L3.155.117,6.193,3.155,3.155,6.193m.052-3.817-.052-.052L3.1,2.376V3.1H2.376l-.052.052.052.052H3.1v.727l.052.052.052-.052V3.207h.727l.052-.052L3.934,3.1H3.207Z" fill="rgba(0,0,0,0)"/>
              </g>
            </g>
          </g>
        </g>
        <g id="Group_102421" data-name="Group 102421" transform="matrix(0.995, 0.099, -0.099, 0.995, -199.031, -694.22)">
          <g id="Group_102397" data-name="Group 102397" transform="translate(27.222 0)">
            <g id="Group_102396" data-name="Group 102396" transform="translate(0 0)">
              <path id="Path_74726" data-name="Path 74726" d="M40.556,7.462a77.51,77.51,0,0,0-8.006-4.2,36.375,36.375,0,0,0-6.4-2.176Q23.236.45,20.4,0a19.234,19.234,0,0,0-5.622.8q-2.695.907-5.363,1.762l-.674.259A73.707,73.707,0,0,0,.035,6.944q-.155-.155.389,1.218.622,1.555,1.218,2.772a21.072,21.072,0,0,0,3.135,3.99,56.288,56.288,0,0,0,5.752,5.467q3.187,2.643,6.529,4.949a42.845,42.845,0,0,0,6.322,3.679,61.6,61.6,0,0,0,7.462,2.721q1.036-2.669,1.71-4.042a45.878,45.878,0,0,0,2.72-7.281q1.063-3.766,1.917-6.918A16.021,16.021,0,0,1,40.556,7.462Z" transform="translate(0)" fill="#e2ad98"/>
            </g>
          </g>
          <g id="Group_102399" data-name="Group 102399" transform="translate(56.902 3.757)">
            <g id="Group_102398" data-name="Group 102398" transform="translate(0 0)">
              <path id="Path_74727" data-name="Path 74727" d="M4.969,1.166,4.84.026,4.788,0,4.762.052l-.1,1.114v.285l-.026.155v.155L4.373,4.871v.1l-.026.13-.13,1.3v.13l-.026.052v.078L3.026,14.277l-1.58,6.659L.021,25.807q-.052.052.026.052.052.052.052-.026l1.373-2.954.026-.1.052-.1,2-6.089.026-.155.052-.13L4.943,8.291,5,1.606l-.026-.155Z" transform="translate(0)" fill="#c18770"/>
            </g>
          </g>
          <g id="Group_102401" data-name="Group 102401" transform="translate(0.227 15.71)">
            <g id="Group_102400" data-name="Group 102400" transform="translate(0 0)">
              <path id="Path_74728" data-name="Path 74728" d="M28.157,14.079A13.6,13.6,0,0,0,24.014,4.1,13.532,13.532,0,0,0,14.078,0,13.665,13.665,0,0,0,4.1,4.1,13.666,13.666,0,0,0,0,14.079a13.533,13.533,0,0,0,4.1,9.936,13.6,13.6,0,0,0,9.975,4.143,13.466,13.466,0,0,0,9.935-4.143A13.467,13.467,0,0,0,28.157,14.079Z" transform="translate(0 0)" fill="#ece7de"/>
            </g>
          </g>
          <g id="Group_102403" data-name="Group 102403" transform="translate(6.84 5.597)">
            <g id="Group_102402" data-name="Group 102402" transform="translate(0 0)">
              <path id="Path_74729" data-name="Path 74729" d="M57.7,5.208q-.648,2.591-1.218,5.959a62.327,62.327,0,0,1-1.606,6.944A31.449,31.449,0,0,1,51.4,25.885q-.259.415-.492.855a18.677,18.677,0,0,1-5.959-1.5A58.055,58.055,0,0,1,39.8,22.568q-2.41-1.425-4.767-3.032a40.665,40.665,0,0,1-4.793-3.887,39.15,39.15,0,0,1-4.016-4.586,35.446,35.446,0,0,1-3.213-5.1A39.262,39.262,0,0,1,20.96,1.218Q20.727.6,20.546,0,16.305,4.206,0,12.152q.311,3.083.518,6.219.233,3.342.44,6.659.155,2.591.285,5.079.13,2.125.259,4.275.181,3.083.415,6.193.259,3.342.44,6.659.181,2.9.466,5.778l.622,6.115q.37,3.319.648,6.737.3,3.42.518,6.866t.363,5.8q.167,2.379.44,4.094a24.215,24.215,0,0,1,1.917-2.695q1.164-1.378,2.9-3.809t3.705-5.156q1.425-2.021,3.005-4.042A61.846,61.846,0,0,1,21.919,61.3a47.017,47.017,0,0,1,5.208-4.457,39.154,39.154,0,0,1,5.415-3.265,26.258,26.258,0,0,1,4.094-1.632A24.635,24.635,0,0,1,43.4,51.07a22.969,22.969,0,0,1,4.845.985,30.068,30.068,0,0,1,7.85,3.913,34.259,34.259,0,0,1,5.57,4.768,71.616,71.616,0,0,1,4.923,5.8,64.434,64.434,0,0,1,4.249,6.27c1.192,2,1.551,5.257,2.777,7.312.086.138,1.108-.15,1.16.264.052-.864-.016-2.5,0-3.586q.026-2.176.1-5.545t.026-6.426a41.062,41.062,0,0,1,.13-5.079,17.761,17.761,0,0,1,.492-3.109,35.592,35.592,0,0,1,1.244-3.576,28.036,28.036,0,0,0,1.477-6.322,14.043,14.043,0,0,0-.622-6.815Q76.51,37,75.707,34.073a18.979,18.979,0,0,1-.8-4.327q.055-1.322.052-3.99a45.248,45.248,0,0,0-.466-6.244,7.867,7.867,0,0,1,1.3-5.959q1.811-2.41,1.218-3.317a13.687,13.687,0,0,0-2.28-2.41,16.53,16.53,0,0,0-5.13-2.85Q66.145,3.656,62.83,2.462A16.144,16.144,0,0,1,58.4.311,24.584,24.584,0,0,1,57.7,5.208Z" fill="#ece7de"/>
            </g>
          </g>
          <g id="Group_102406" data-name="Group 102406" transform="translate(8.317 35.886)">
            <g id="Group_102405" data-name="Group 102405" transform="translate(0 0)">
              <g id="Group_102404" data-name="Group 102404">
                <path id="Path_74730" data-name="Path 74730" d="M11.879,56.4c.6-13.273.2-35.993,1.127-42.723A66.6,66.6,0,0,0,18.836,0Q.22,8.491,0,6.97L4.064,57.18Z" fill="#d8cdc7"/>
              </g>
            </g>
          </g>
          <g id="Group_102411" data-name="Group 102411" transform="translate(0 6.763)">
            <g id="Group_102408" data-name="Group 102408" transform="translate(63.659 0)">
              <g id="Group_102407" data-name="Group 102407" transform="translate(0 0)">
                <path id="Path_74731" data-name="Path 74731" d="M18.11,28.4l2.384-19.07A17.8,17.8,0,0,0,14.457,4.4Q9.288,2.653,3.083,0L0,9.38Q18.9,18.174,18.11,28.4Z" fill="#7a2230"/>
              </g>
            </g>
            <g id="Group_102410" data-name="Group 102410" transform="translate(0 1.062)">
              <g id="Group_102409" data-name="Group 102409" transform="translate(0 0)">
                <path id="Path_74732" data-name="Path 74732" d="M28.63,24.719a99.658,99.658,0,0,1,6.892-10.96L24.381,0A88.468,88.468,0,0,1,16.3,5.027Q4.016,10.8,3.6,12.489a13.707,13.707,0,0,0-2.85,4.9A24.787,24.787,0,0,0,0,21.739q.046.96.13,3.5.1,2.566,4.2,6.659A13.6,13.6,0,0,0,14.3,36.042,13.513,13.513,0,0,0,24.251,31.9a13.711,13.711,0,0,0,1.5-1.762l.052.026.155-.285Q26.478,28.941,28.63,24.719Z" fill="#7a2230"/>
              </g>
            </g>
          </g>
          <g id="Group_102413" data-name="Group 102413" transform="translate(22.308 3.342)">
            <g id="Group_102412" data-name="Group 102412" transform="translate(0 0)">
              <path id="Path_74733" data-name="Path 74733" d="M45.16,3.135A10.134,10.134,0,0,0,39.3,0,62.5,62.5,0,0,1,34.77,26.222Q14.38,20.055,6.244,1.062A11.478,11.478,0,0,0,0,4.9q10.1,19.8,37.076,27.776Q41.636,26.61,45.16,3.135Z" fill="#7a2230"/>
            </g>
          </g>
          <g id="Group_102415" data-name="Group 102415" transform="translate(22.295 3.342)">
            <g id="Group_102414" data-name="Group 102414" transform="translate(0 0)">
              <path id="Path_74734" data-name="Path 74734" d="M28.668,29.15q-.57-.233-1.684-.777l-4.43-2.306-6.4-4.094q-1.632-1.166-3.472-2.669l-3.55-3.187-3.912-4.2-.13-.181L4.21,10.7l-.052-.1L3.9,10.287.091,4.923q-.052-.026-.078,0-.026.052,0,.078L2.189,8.81l3.342,4.612,3.342,3.705q1.4,1.451,3.161,2.954,1.891,1.581,3.5,2.747l4.2,2.747,3.757,2.047,5.7,2.539.1.026.1.052,7.7,2.41q.052.052.052-.026.052-.052-.026-.052l-8.446-3.42M39.628,1.192,39.421.026,39.369,0l-.026.052-.181,7.074L38.1,15.261,36.493,21.4,35.3,24.771l-.078.13-.518,1.373q-.052.052.026.052.052.052.052-.026l1.244-2.177,2.28-5.649q.44-1.477.648-2.384l.259-1.244q.233-1.192.233-1.27l.337-2.513q.13-1.088.181-2.462l.052-1.736Z" transform="translate(0)" fill="#4b0f18"/>
            </g>
          </g>
          <g id="Group_102417" data-name="Group 102417" transform="translate(31.169 9.755)">
            <g id="Group_102416" data-name="Group 102416" transform="translate(0 0)">
              <path id="Path_74735" data-name="Path 74735" d="M18.551,17.71l3.912,1.3,2.073.44q.052.052.052-.026.052-.052-.026-.052l-4.534-1.762-.13-.078L16.582,15.87q-1.01-.6-1.14-.7l-.466-.259-.13-.1-1.218-.777-3.809-2.9L9.69,11l-.155-.1L6.166,7.631,3.42,4.5l-.078-.13-.1-.1L2.021,2.708l-.052-.1-.155-.181L.078.013Q.026-.013,0,.013V.091l1.555,2.8.078.1.052.1.855,1.321q1.036,1.451,1.451,2L5.26,7.993l3.886,3.913,2.073,1.658,3.135,2.073.155.078.155.1.622.337.078.052.078.026Z" transform="translate(0 0)" fill="#a84657"/>
            </g>
          </g>
          <g id="Group_102420" data-name="Group 102420" transform="translate(43.696 83.938)">
            <g id="Group_102419" data-name="Group 102419" transform="translate(0 0)">
              <g id="Group_102418" data-name="Group 102418">
                <path id="Path_74736" data-name="Path 74736" d="M6.283,3.122,3.174.013a.032.032,0,0,0-.052,0L.013,3.122a.032.032,0,0,0,0,.052L3.122,6.283a.032.032,0,0,0,.052,0L6.283,3.174a.032.032,0,0,0,0-.052M3.148,6.18l.026.026H3.122l.026-.026L.117,3.148l-.026.026V3.122l.026.026L3.148.117,6.179,3.148,3.148,6.18M3.2,2.371l-.052-.052L3.1,2.371V3.1H2.371l-.052.052.052.052H3.1v.726l.052.052L3.2,3.925V3.2h.725l.052-.052L3.925,3.1H3.2Z" fill="rgba(0,0,0,0)"/>
              </g>
            </g>
          </g>
        </g>
        <g id="Group_102432" data-name="Group 102432" transform="translate(-160.486 -731.411) rotate(5.542)">
          <g id="Group_102423" data-name="Group 102423" transform="translate(0 9.851)">
            <g id="Group_102422" data-name="Group 102422" transform="translate(0 0)">
              <path id="Path_74737" data-name="Path 74737" d="M24.511,42.454l.1-41.311L2.83,0,0,39.052Q18.721,51.048,24.511,42.454Z" fill="#e2ad98"/>
            </g>
          </g>
          <g id="Group_102425" data-name="Group 102425" transform="translate(2.634 0)">
            <g id="Group_102424" data-name="Group 102424" transform="translate(0 0)">
              <path id="Path_74738" data-name="Path 74738" d="M3.2,3.2A10.562,10.562,0,0,0,0,10.957a10.562,10.562,0,0,0,3.2,7.755,10.562,10.562,0,0,0,7.755,3.2,10.562,10.562,0,0,0,7.755-3.2,10.562,10.562,0,0,0,3.2-7.755,10.562,10.562,0,0,0-3.2-7.755A10.562,10.562,0,0,0,10.957,0,10.562,10.562,0,0,0,3.2,3.2Z" transform="translate(0)" fill="#e2ad98"/>
            </g>
          </g>
          <g id="Group_102428" data-name="Group 102428" transform="translate(2.311 8.241)">
            <g id="Group_102427" data-name="Group 102427" transform="translate(0 0)">
              <g id="Group_102426" data-name="Group 102426">
                <path id="Path_74739" data-name="Path 74739" d="M22.33,29.886,22.252,0,.312,1.3,0,8.569Q8.569,26.978,22.33,29.886Z" fill="#c18770"/>
              </g>
            </g>
          </g>
          <g id="Group_102431" data-name="Group 102431" transform="translate(8.711 50.474)">
            <g id="Group_102430" data-name="Group 102430" transform="translate(0 0)">
              <g id="Group_102429" data-name="Group 102429">
                <path id="Path_74740" data-name="Path 74740" d="M6.3,3.129,3.181.013a.032.032,0,0,0-.052,0L.013,3.129a.032.032,0,0,0,0,.052L3.129,6.3a.032.032,0,0,0,.052,0L6.3,3.181a.032.032,0,0,0,0-.052M3.155,6.193l.026.026H3.129l.026-.026L.117,3.155l-.026.026V3.129l.026.026L3.155.117,6.193,3.155,3.155,6.193m.052-3.817-.052-.052L3.1,2.376V3.1H2.376l-.052.052.052.052H3.1v.727l.052.052.052-.052V3.207h.727l.052-.052L3.934,3.1H3.207Z" fill="rgba(0,0,0,0)"/>
              </g>
            </g>
          </g>
        </g>
        <g id="Group_102567" data-name="Group 102567" transform="translate(-160.648 -811.362) rotate(15.975)">
          <g id="Group_102435" data-name="Group 102435" transform="translate(14.217 24.765)">
            <g id="Group_102434" data-name="Group 102434" transform="translate(0 0)">
              <g id="Group_102433" data-name="Group 102433">
                <path id="Path_74741" data-name="Path 74741" d="M53.108,7.84Q44.945.152,31.573,0A30.1,30.1,0,0,0,9.1,8.968a30.034,30.034,0,0,0-9.1,22Q.005,43.85,10.286,52.835q10.3,9.007,29.868,9.131,19.588.155,19.719-9.983t.77-23.295Q61.3,15.535,53.108,7.84Z" fill="#e2ad98"/>
              </g>
            </g>
          </g>
          <g id="Group_102438" data-name="Group 102438" transform="translate(17.869 59.599)">
            <g id="Group_102437" data-name="Group 102437" transform="translate(0 0)">
              <g id="Group_102436" data-name="Group 102436">
                <path id="Path_74742" data-name="Path 74742" d="M60.628,11.607Q61.134,6.851,54.89,0L.206,3.3Q-1.04,17.553,5.244,25.083,13.933,41.322,40.427,48.4,56.058,34.82,60.628,11.607Z" fill="#e2ad98"/>
              </g>
            </g>
          </g>
          <g id="Group_102461" data-name="Group 102461" transform="translate(34.603 58.451)">
            <g id="Group_102443" data-name="Group 102443" transform="translate(27.822 2.602)">
              <g id="Group_102440" data-name="Group 102440" transform="translate(0 0)">
                <g id="Group_102439" data-name="Group 102439">
                  <path id="Path_74743" data-name="Path 74743" d="M6.824,4.454a5.029,5.029,0,0,0-1.008-3.16A2.946,2.946,0,0,0,3.412,0,2.99,2.99,0,0,0,.992,1.294,5.086,5.086,0,0,0,0,4.454,5.015,5.015,0,0,0,.992,7.6a2.979,2.979,0,0,0,2.42,1.311A2.935,2.935,0,0,0,5.815,7.6,4.958,4.958,0,0,0,6.824,4.454Z" fill="#231915"/>
                </g>
              </g>
              <g id="Group_102442" data-name="Group 102442" transform="translate(3.764 2.117)">
                <g id="Group_102441" data-name="Group 102441" transform="translate(0 0)">
                  <path id="Path_74744" data-name="Path 74744" d="M1.648,1.043A1.266,1.266,0,0,0,1.379.287.673.673,0,0,0,.791,0,.719.719,0,0,0,.22.32,1.3,1.3,0,0,0,0,1.11a1.144,1.144,0,0,0,.269.74.7.7,0,0,0,.605.3.666.666,0,0,0,.555-.336A1.189,1.189,0,0,0,1.648,1.043Z" fill="#fff"/>
                </g>
              </g>
            </g>
            <g id="Group_102445" data-name="Group 102445" transform="translate(24.975 1.168)">
              <g id="Group_102444" data-name="Group 102444" transform="translate(0 0)">
                <path id="Path_74745" data-name="Path 74745" d="M10.1.045a35.448,35.448,0,0,0-3.592,0Q4.242.171,3.592,1.5A33.3,33.3,0,0,1,0,6.551,8.268,8.268,0,0,0,1.83,7.6a10.753,10.753,0,0,0,3.558.983,18.967,18.967,0,0,0,4.405.034A7.933,7.933,0,0,0,14.3,6.483,25.6,25.6,0,0,0,10.1.045Z" transform="translate(0)" fill="#e2ad98"/>
              </g>
            </g>
            <g id="Group_102447" data-name="Group 102447" transform="translate(26.466 8.871)">
              <g id="Group_102446" data-name="Group 102446" transform="translate(0 0)">
                <path id="Path_74746" data-name="Path 74746" d="M0,0,1.694,4.88q4.912,4.11,8.675-.339L11.793,0Z" transform="translate(0)" fill="#e2ad98"/>
              </g>
            </g>
            <g id="Group_102449" data-name="Group 102449" transform="translate(25.823 8.024)">
              <g id="Group_102448" data-name="Group 102448" transform="translate(0 0)">
                <path id="Path_74747" data-name="Path 74747" d="M6.947,1.389l-.2-.034a5.476,5.476,0,0,1-.712-.034H5.659l-.542-.068H4.948L3.49,1.084l-.169-.034H3.152L2.779.983l-.1-.034H2.609L1.694.779l.034.034L.915.542.712.508.508.441.068.339Q0,.271,0,.373L.034.441.373.712.441.779l.983.678.034.034,1.423.576.2.034.169.068,1.525.373,1.152.136L7.9,2.711l.2-.034h.169l1.186-.2.373-.1q.712-.271.779-.3a3.962,3.962,0,0,0,.712-.373l.339-.2.915-.746.271-.3.169-.271v-.1Q13.081,0,12.979,0l-.068.034-.271.2L12.471.3l-.169.1L10.946.949l-.169.034-.068.034h-.1l-.068.034-.1.034-.847.169H9.421l-.339.068Z" fill="#231915"/>
              </g>
            </g>
            <g id="Group_102454" data-name="Group 102454" transform="translate(3.457 3.551)">
              <g id="Group_102451" data-name="Group 102451" transform="translate(0 0)">
                <g id="Group_102450" data-name="Group 102450">
                  <path id="Path_74748" data-name="Path 74748" d="M6.824,4.454a5.029,5.029,0,0,0-1.008-3.16A2.946,2.946,0,0,0,3.412,0,2.99,2.99,0,0,0,.992,1.294,5.086,5.086,0,0,0,0,4.454,5.015,5.015,0,0,0,.992,7.6a2.979,2.979,0,0,0,2.42,1.311A2.935,2.935,0,0,0,5.815,7.6,4.958,4.958,0,0,0,6.824,4.454Z" fill="#231915"/>
                </g>
              </g>
              <g id="Group_102453" data-name="Group 102453" transform="translate(3.764 2.117)">
                <g id="Group_102452" data-name="Group 102452" transform="translate(0 0)">
                  <path id="Path_74749" data-name="Path 74749" d="M1.648,1.043A1.266,1.266,0,0,0,1.379.287.673.673,0,0,0,.791,0,.719.719,0,0,0,.22.32,1.3,1.3,0,0,0,0,1.11a1.144,1.144,0,0,0,.269.74.7.7,0,0,0,.605.3.666.666,0,0,0,.555-.336A1.189,1.189,0,0,0,1.648,1.043Z" fill="#fff"/>
                </g>
              </g>
            </g>
            <g id="Group_102456" data-name="Group 102456" transform="translate(0 0)">
              <g id="Group_102455" data-name="Group 102455" transform="translate(0)">
                <path id="Path_74750" data-name="Path 74750" d="M12.4,2.466A17.95,17.95,0,0,0,9.929.636,3.9,3.9,0,0,0,6.947.094,6.377,6.377,0,0,0,3.66,2.161,28.525,28.525,0,0,0,0,7.753a2.262,2.262,0,0,1,1.152.881,12.108,12.108,0,0,0,3.457,2.1,7.415,7.415,0,0,0,6.235.068q3.318-1.3,4.067-2.237.78-.945,1.728-1.965a4.242,4.242,0,0,0-.983-1.186Q14.063,3.923,12.4,2.466Z" fill="#e2ad98"/>
              </g>
            </g>
            <g id="Group_102458" data-name="Group 102458" transform="translate(0.508 8.668)">
              <g id="Group_102457" data-name="Group 102457" transform="translate(0 0)">
                <path id="Path_74751" data-name="Path 74751" d="M0,0,.474,4.27q6.3,5.974,12.911-.1L13.623.915Z" fill="#e2ad98"/>
              </g>
            </g>
            <g id="Group_102460" data-name="Group 102460" transform="translate(0 7.946)">
              <g id="Group_102459" data-name="Group 102459" transform="translate(0 0)">
                <path id="Path_74752" data-name="Path 74752" d="M11.59,1.6h-.034l-.034.034-2.27.441H9.082l-.2.034H8.709l-.169.034H8.167l-.2.034H7.794a5.843,5.843,0,0,1-.746-.034H6.676l-.2-.034H6.3l-1.423-.2a7.554,7.554,0,0,1-1.322-.3l-.61-.169-.136-.068-.136-.034-.136-.068L2.406,1.23,2.27,1.162l-.1-.068L2.033,1.06l-.1-.068L1.8.925,1.762.891H1.694l-.2-.136L.1.044Q0-.058,0,.077V.145L.407.552l.136.1a8.367,8.367,0,0,0,.61.576l.169.169.034.068h.034V1.5h.034l.1.1.61.441.136.068.136.1.169.068,1.288.61,1.118.3.169.068,1.017.169h.2l.169.034,1.254.068L8,3.5h.441l.2-.034a3.342,3.342,0,0,0,.813-.1l.779-.136,1.661-.542.068-.034.1-.034.136-.068.1-.068,1.965-1.051.2-.136L15.555.382,15.69.247v-.1h-.1l-.169.1-.2.068L13.962.857,12,1.5h-.068l-.1.034-.169.034Z" fill="#231915"/>
              </g>
            </g>
          </g>
          <g id="Group_102464" data-name="Group 102464" transform="translate(29.296 53.167) rotate(-24.124)">
            <g id="Group_102463" data-name="Group 102463" transform="translate(0 0)">
              <g id="Group_102462" data-name="Group 102462">
                <path id="Path_74753" data-name="Path 74753" d="M0,2.883.846,2.49a11.139,11.139,0,0,1,5.862-.906A20.786,20.786,0,0,1,11.12,2.671a8.99,8.99,0,0,1,1.42.574q.453.242,1.33.816a.839.839,0,0,0,.635.212.228.228,0,0,1-.03.121,1.2,1.2,0,0,0-.06-1,2.709,2.709,0,0,0-.906-1.3A8.485,8.485,0,0,0,10.968.677,14.942,14.942,0,0,0,5.076.042a7.928,7.928,0,0,0-3.173,1A19.348,19.348,0,0,0,0,2.883Z" transform="translate(3.626 0)" fill="#540e00"/>
                <path id="Path_74754" data-name="Path 74754" d="M3.807,1.088l-.242.181q-.076.059-.151.121a.164.164,0,0,1-.06.03.269.269,0,0,1-.06.06.32.32,0,0,1-.06.06,2.359,2.359,0,0,1-.212.151.061.061,0,0,1-.03.03.249.249,0,0,1-.06.06.134.134,0,0,1-.06.03.062.062,0,0,1-.06.03L1.239,3.505A9.7,9.7,0,0,0,0,5.469,8.624,8.624,0,0,1,1.058,4.412,13.272,13.272,0,0,1,3.475,2.871,13,13,0,0,1,9.488,1.45a14.014,14.014,0,0,1,6.164,1.36q1.994.967,2.357.665l.03-.03.06-.091a.228.228,0,0,0,.03-.121.839.839,0,0,1-.635-.212q-.876-.574-1.33-.816a8.99,8.99,0,0,0-1.42-.574A20.786,20.786,0,0,0,10.334.544a11.139,11.139,0,0,0-5.862.906l-.846.393A19.349,19.349,0,0,1,5.53,0,14.494,14.494,0,0,0,3.807,1.088Z" transform="translate(0 1.039)" fill="#2b0700"/>
              </g>
            </g>
          </g>
          <g id="Group_102467" data-name="Group 102467" transform="matrix(-0.88, -0.475, 0.475, -0.88, 73.132, 58.154)">
            <g id="Group_102466" data-name="Group 102466" transform="translate(0 0)">
              <g id="Group_102465" data-name="Group 102465">
                <path id="Path_74755" data-name="Path 74755" d="M0,1.445l.6.376a6.036,6.036,0,0,0,4.13.867,11.568,11.568,0,0,0,3.108-1.04,5.532,5.532,0,0,0,1-.549q.319-.231.937-.78.264-.256.447-.2A.282.282,0,0,0,10.2,0a1.529,1.529,0,0,1-.043.954A2.73,2.73,0,0,1,9.516,2.2,5.79,5.79,0,0,1,7.728,3.555a7.942,7.942,0,0,1-4.151.607,4.606,4.606,0,0,1-2.235-.954A16.77,16.77,0,0,1,0,1.445Z" transform="translate(2.555 2.023)" fill="#540e00"/>
                <path id="Path_74756" data-name="Path 74756" d="M2.682,4.191l-.17-.173q-.054-.056-.106-.116a.108.108,0,0,0-.043-.029.236.236,0,0,0-.043-.058.282.282,0,0,0-.043-.058,1.783,1.783,0,0,0-.149-.145.053.053,0,0,0-.021-.029.218.218,0,0,0-.043-.058A.088.088,0,0,0,2.022,3.5a.042.042,0,0,0-.043-.029L.873,1.879A10.209,10.209,0,0,1,0,0,7.588,7.588,0,0,0,.745,1.012a9.57,9.57,0,0,0,1.7,1.474A7.266,7.266,0,0,0,6.685,3.844a7.782,7.782,0,0,0,4.343-1.3q1.405-.925,1.661-.636l.021.029.043.087a.282.282,0,0,1,.021.116q-.183-.054-.447.2-.617.549-.937.78a5.532,5.532,0,0,1-1,.549,11.568,11.568,0,0,1-3.108,1.04,6.036,6.036,0,0,1-4.13-.867l-.6-.376A16.77,16.77,0,0,0,3.9,5.231,10.385,10.385,0,0,1,2.682,4.191Z" fill="#2b0700"/>
              </g>
            </g>
          </g>
          <g id="Group_102472" data-name="Group 102472" transform="translate(55.621 57.05)">
            <g id="Group_102469" data-name="Group 102469" transform="translate(0.104 0)">
              <g id="Group_102468" data-name="Group 102468" transform="translate(0 0)">
                <path id="Path_74757" data-name="Path 74757" d="M12.334,20.257a7.3,7.3,0,0,0-4.388-5.946Q5.237,8.7,6.569.835q-2.363-1.908-5.4.545L0,21.426Q6.5,26.06,12.334,20.257Z" transform="translate(0)" fill="#e2ad98"/>
              </g>
            </g>
            <g id="Group_102471" data-name="Group 102471" transform="translate(0 0.705)">
              <g id="Group_102470" data-name="Group 102470" transform="translate(0 0)">
                <path id="Path_74758" data-name="Path 74758" d="M6.413,3.194,6.673.052Q6.725,0,6.647,0L6.6.026l-.7,3.817L5.816,7.738l.026.052.182,1.792.052.234v.1l.338,1.48.078.208.052.234.286.883.1.208.623,1.506a.474.474,0,0,0,.286.26h.026l1.142.467.545.286,1.013.727.13.078v.026h.026l.078.078.052.026v.026h.026l.026.052.052.052h.026l.026.026.234.312.052.1.208.571V17.6l.052.26v.441l-.026.13v.078l-.026.078v.13l-.052.156v.1l-.026.026v.078l-.234.6-.312.467-.415.467a4.6,4.6,0,0,1-.935.779,12.1,12.1,0,0,1-1.091.649l-.13.078-.156.052-.13.078-.156.052-.052.052-.364.13-.13.026a4.74,4.74,0,0,1-1.22.182H5.79l-1.558-.208L3.609,22.3a10.54,10.54,0,0,1-1.22-.467Q2,21.681,1.22,21.266a4.242,4.242,0,0,1-.571-.312l-.571-.312Q0,20.565,0,20.669v.052l1.091.779a12.656,12.656,0,0,0,1.117.7l1.22.6,1.454.467.857.13H6l.1.026a6.441,6.441,0,0,0,1.4-.13l.6-.182.052-.026h.026l.156-.078.182-.052.312-.156a4.351,4.351,0,0,0,.6-.312l.6-.338a7.755,7.755,0,0,0,1.117-.857l.493-.545.415-.6.312-.7.052-.182v-.078l.026-.026v-.078l.052-.182.026-.182v-.078l.026-.1.026-.182v-.545l-.052-.389v-.1l-.13-.467-.078-.182-.052-.052-.026-.1-.052-.078-.052-.1-.338-.467-.052-.026-.026-.052-.26-.26L11.4,15.5l-.026-.026-.156-.13-1.142-.779-1.246-.6-.441-.156-.6-1.324L6.933,9.737v-.1l-.052-.208-.26-1.532v-.13L6.6,7.738V7.66l-.052-.441Z" fill="#c18770"/>
              </g>
            </g>
          </g>
          <g id="Group_102477" data-name="Group 102477" transform="matrix(0.999, -0.034, 0.034, 0.999, 48.042, 85.996)">
            <g id="Group_102474" data-name="Group 102474" transform="translate(0.832 1.195)">
              <g id="Group_102473" data-name="Group 102473" transform="translate(0 0)">
                <path id="Path_74759" data-name="Path 74759" d="M17.838,2.924q0-.125-.074-.042l-3.512.624h-.185l-.148.042-2.7.042L11,3.548,9.557,3.423l-.111-.042H9.335L9.15,3.34,8.3,3.257,7.08,2.966l-.37-.125L6.488,2.8,6.3,2.716,2.717,1.426l-.148-.083L2.422,1.3l-.259-.166L1.2.678,1.017.553.832.47.129.053Q.018-.071.018.1a.056.056,0,0,0,0,.083l.37.374L.5.636.647.8l.739.624.776.5.111.125,1.442.79a13.948,13.948,0,0,0,1.479.666h.037l.148.083,1.035.374,2.773.666h.222l.665.083,1.738.042.222-.042h.407l3.216-.707.555-.25.259-.083.924-.416.407-.25Q17.912,3.007,17.838,2.924Z" fill="#231915"/>
              </g>
            </g>
            <g id="Group_102476" data-name="Group 102476" transform="translate(0 0)">
              <g id="Group_102475" data-name="Group 102475" transform="translate(0 0)">
                <path id="Path_74760" data-name="Path 74760" d="M.407.666V.707H.37V.749L.259.915.222.957H.185V1l-.037.125-.074.083v.125l-.037.125L0,1.539v.25L.037,2.2l.074.166.037.166.037.042.037.083L.3,2.746l.111.166.111.125H.555q.074.083.111,0v-.25L.628,2.621V1.955H.665V1.789L.7,1.706l.037-.125V1.539L.776,1.5l.037-.083L.85,1.373l.074-.125.037-.083L1.146.957,1.183.874,1.257.79h.037L1.368.666,1.627.5,1.7.416h.037L1.775.374h.074L1.885.333h.074L2.07.208,2,.125,1.922.083H1.885L1.775.042H1.738L1.664,0H1.479L1.4.042,1.072.125l-.3.166L.7.374.628.416Z" fill="#c18770"/>
              </g>
            </g>
          </g>
          <g id="Group_102509" data-name="Group 102509" transform="translate(0 0)">
            <g id="Group_102479" data-name="Group 102479" transform="translate(0 0)">
              <g id="Group_102478" data-name="Group 102478">
                <path id="Path_74761" data-name="Path 74761" d="M.8,21.484Q2.91,28.711,11,32.805A86.666,86.666,0,0,0,24.324,38.5q5.241,1.6,7.206-4.791A90.85,90.85,0,0,0,34.4,21.422q.921-5.876-2.518-13.942Q28.419-.606,17,.049,5.551.684,2.132,7.481A18.47,18.47,0,0,0,.8,21.484Z" fill="#540e00"/>
              </g>
            </g>
            <g id="Group_102482" data-name="Group 102482" transform="translate(10.383 15.178)">
              <g id="Group_102481" data-name="Group 102481" transform="translate(0 0)">
                <g id="Group_102480" data-name="Group 102480">
                  <path id="Path_74762" data-name="Path 74762" d="M25.816,23.482,23.707,0Q5.962,1.957,0,17.135L12.591,28.129Z" fill="#380a00"/>
                </g>
              </g>
            </g>
            <g id="Group_102484" data-name="Group 102484" transform="translate(2.546 12.664)">
              <g id="Group_102483" data-name="Group 102483" transform="translate(0 0)">
                <path id="Path_74763" data-name="Path 74763" d="M.078.037q0-.061-.041-.02-.061,0-.02.041V.712l.02.1L.426,3.988l.921,3.255.225.532.041.143.184.409A17.97,17.97,0,0,0,2.9,10.5l1.576,2.375,2.17,2.457.123.1.86.839.123.082.1.1,1.965,1.576,3.849,2.375,1.044.512q.041,0,.041-.02.041-.041-.02-.041l-3.03-2.109L8.349,15.924,5.708,13.1,4.582,11.624l-1.6-2.559-.02-.082-.041-.061L2,6.977l-.041-.061-1-2.825-.02-.123L.9,3.865Z" fill="#380a00"/>
              </g>
            </g>
            <g id="Group_102486" data-name="Group 102486" transform="translate(6.19 4.68)">
              <g id="Group_102485" data-name="Group 102485" transform="translate(0 0)">
                <path id="Path_74764" data-name="Path 74764" d="M.078.037q0-.061-.041-.02-.061,0-.02.041V.631L.385,4.52.9,7.1l.7,2.293Q2,10.519,2.412,11.42l.307.614.041.061.02.061.676,1.208.307.45a.222.222,0,0,0,.082.1l.061.123.635.86a.222.222,0,0,1,.082.1.222.222,0,0,1,.082.1l.676.757.1.082.082.1.43.43.1.061,1.044.88,2.436,1.433,1.187.43q.041.041.041-.02.041-.041-.02-.041L10.56,19.1,7.632,17.131,5.974,15.494l-.7-.86-.061-.1-.082-.1-.983-1.494a17.059,17.059,0,0,1-1-1.863l-.328-.737L1.531,6.67.467,2.146l-.02-.164L.405,1.838Z" fill="#380a00"/>
              </g>
            </g>
            <g id="Group_102488" data-name="Group 102488" transform="translate(10.567 3.939)">
              <g id="Group_102487" data-name="Group 102487" transform="translate(0 0)">
                <path id="Path_74765" data-name="Path 74765" d="M6.019,7.554,7.165,9.786l.061.1.123.307.1.184.717,1.781,1.413,4.811q0,.061.041.02.061,0,.02-.041v-.225l-.184-1.761-.041-.143-.061-.471-.594-2.5L7.943,9.561l-.061-.1L7.7,9.028q-.369-.839-.839-1.679L5.18,4.811,4.34,3.767l-1.8-1.843-.88-.737-.1-.1L.614.369.471.287.061,0H0V.061l1.31,1.29.041.061,1.31,1.413a1.725,1.725,0,0,0,.246.287L4.5,5.159Z" transform="translate(0 0)" fill="#380a00"/>
              </g>
            </g>
            <g id="Group_102490" data-name="Group 102490" transform="translate(17.384 6.529)">
              <g id="Group_102489" data-name="Group 102489" transform="translate(0 0)">
                <path id="Path_74766" data-name="Path 74766" d="M.061.01Q.041-.01,0,.01V.072L1.331,2l.143.246a11.667,11.667,0,0,1,.635,1.085l.757,1.6.061.184.082.164.532,1.72.02.041.02.061.082.369q.143.717.246,1.515l.1,2.457-.02.082-.1,1.29v.143L3.4,15.692q-.041.041.02.041l.041-.02.45-1.024L4.4,13.051l.02-.164.184-.88v-.082l.061-.369v-.082l.02-.082v-.184q0-.041.061-.757V9.387l-.02-.1L4.709,8.9,4.463,7.278q-.2-.839-.45-1.556l-.348-.839L3.644,4.8,2.272,2.446,1.535,1.5Z" transform="translate(0)" fill="#380a00"/>
              </g>
            </g>
            <g id="Group_102492" data-name="Group 102492" transform="translate(1.972 20.28)">
              <g id="Group_102491" data-name="Group 102491" transform="translate(0 0)">
                <path id="Path_74767" data-name="Path 74767" d="M2.432,3.722,2.391,3.64,2.33,3.579l-.082-.143-.1-.123L2.1,3.251,2.043,3.19l-.512-.778L1.47,2.289.078.037q0-.061-.041-.02-.061,0-.02.041L.057.242.61,1.7,1.675,3.8l.1.143.041.082L2.657,5.3,4.316,7.243,4.4,7.3l.839.8A14.5,14.5,0,0,0,6.4,9l2.313,1.372.082.02.123.061,2.129.757q.041.041.041-.02l-.02-.041L7.653,9.045,5.769,7.489A6.462,6.462,0,0,1,5.237,7Z" fill="#380a00"/>
              </g>
            </g>
            <g id="Group_102494" data-name="Group 102494" transform="translate(27.231 5.259)">
              <g id="Group_102493" data-name="Group 102493" transform="translate(0 0)">
                <path id="Path_74768" data-name="Path 74768" d="M1.187,1.2l-.164-.164L.9.87.061.01Q.041-.01,0,.01V.072L.082.215.2.379.266.5,2.047,3.45l.061.143.655,1.228.02.082.082.143L4.176,8.67l.1.389.02.164.041.143.1.553V10l.123,1.024v.266l.02.143V12.5l-.041.409v.184l-.082.8q-.041.041.02.041l.041-.02.143-.348.43-1.986v-.143l.02-.143v-.143l.02-.061-.123-2.17L4.75,7.708A12.465,12.465,0,0,0,4.3,6.336l-.02-.082-.041-.082-1-2.088-.041-.061-.041-.082Z" fill="#380a00"/>
              </g>
            </g>
            <g id="Group_102496" data-name="Group 102496" transform="translate(13.826 1.343)">
              <g id="Group_102495" data-name="Group 102495" transform="translate(0 0)">
                <path id="Path_74769" data-name="Path 74769" d="M11.542,7.837l-.266-.45-.02-.061a9.643,9.643,0,0,0-.676-.983L10.416,6.1l-.1-.123-.041-.061L9.024,4.561A19.93,19.93,0,0,0,7.264,3.128L6.24,2.473,3.353,1.04l-.2-.061L2.964.9.057.016Q.016-.025.016.037q-.041.041.02.041L1.531.712l4.443,2.4,2.191,1.74.061.041.041.061.2.184A14.129,14.129,0,0,1,9.925,6.813a12.179,12.179,0,0,1,1.167,1.9,13.162,13.162,0,0,1,.778,2.006l.43,1.986a12.307,12.307,0,0,1,.184,1.822l-.164,3.808q-.041.041.02.041l.041-.02.471-2.252L13,13.958l-.184-2.375-.573-2.15a10.129,10.129,0,0,0-.43-1.065l-.061-.143L11.665,8.1Z" fill="#380a00"/>
              </g>
            </g>
            <g id="Group_102498" data-name="Group 102498" transform="translate(19.575 0.008)">
              <g id="Group_102497" data-name="Group 102497" transform="translate(0 0)">
                <path id="Path_74770" data-name="Path 74770" d="M14.7,15.989l-.43-3.317-.553-2.17a18.614,18.614,0,0,0-.676-1.945L11.956,6.326,10.83,4.668,9.254,2.989l-.389-.307L8.824,2.62,7.452,1.679A11.906,11.906,0,0,0,5.569.8L4.217.369,2.62.082,2.252.061Q1.576,0,1.065,0L.041.041A.036.036,0,0,0,0,.082L.02.1,1.433.287h.082l.061.02.307.041,1.7.389.082.041,1.679.594a14.7,14.7,0,0,1,1.72.942,8.538,8.538,0,0,1,.839.594l.409.328.061.041.348.307a14.245,14.245,0,0,1,1.454,1.6,15.027,15.027,0,0,1,1.228,1.8l.962,1.863q.389.88.757,1.863l1.515,5.3q0,.061.041.02Q14.74,16.03,14.7,15.989Z" transform="translate(0)" fill="#812511"/>
              </g>
            </g>
            <g id="Group_102500" data-name="Group 102500" transform="translate(0.085 8.897)">
              <g id="Group_102499" data-name="Group 102499" transform="translate(0 0)">
                <path id="Path_74771" data-name="Path 74771" d="M1.433.016q-.041-.041-.041.02L.553,2.821.123,5.4l-.061.8Q.061,6.24,0,7.325l.082,1.8L.1,9.29v.143L.348,10.99a15.863,15.863,0,0,0,.7,2.477q.082.246.491,1.208l.328.655.041.061.307.573.082.123.143.287,1.72,2.334L5.4,20.038l2.211,1.843.328.225a12.943,12.943,0,0,0,1.106.737l1,.594q.061.061.061-.02.02,0,0-.041L8,21.7,4.77,18.38l-1.331-1.9a11.051,11.051,0,0,1-.614-1.044,16.615,16.615,0,0,1-1-2.232q-.287-.778-.389-1.187l-.307-1.187A18.93,18.93,0,0,1,.778,8.472L.737,8.185.7,6.772l-.02-.061L.7,6.629l.02-1.454L1.454.057Q1.494.016,1.433.016Z" fill="#380a00"/>
              </g>
            </g>
            <g id="Group_102502" data-name="Group 102502" transform="translate(15.398 1.322)">
              <g id="Group_102501" data-name="Group 102501" transform="translate(0 0)">
                <path id="Path_74772" data-name="Path 74772" d="M9.95,6.9a14.633,14.633,0,0,1,.88,1.638l.348.819.717,2.313.594,3.255.041.02.02-.041.041-.7L12.181,10.4l-.041-.1-.471-1.617L10.5,6.26,9.438,4.827l-.7-.757A8.128,8.128,0,0,0,8,3.394L7.227,2.76l-1.617-1-.8-.389L2.6.549,1.965.385Q1.31.221.942.16L.041.016Q0-.025,0,.037L.02.078.88.385l.225.061L3.624,1.47l.082.041.082.061.369.164L6.2,2.964l1.106.86L8.824,5.36Z" fill="#812511"/>
              </g>
            </g>
            <g id="Group_102504" data-name="Group 102504" transform="translate(12.987 2.551)">
              <g id="Group_102503" data-name="Group 102503" transform="translate(0 0)">
                <path id="Path_74773" data-name="Path 74773" d="M5.483,3.272a15.71,15.71,0,0,1,1.31,1.187q.655.737,1.146,1.413l.942,1.556.348.819a6.524,6.524,0,0,1,.307.839l.45,1.8.225,1.965.02,2.457q-.041.041.02.041l.041-.02.184-.86.184-2.682-.061-.983-.02-.1v-.1l-.225-1.29L9.7,7.3l-.061-.1L9.6,7.1a7.945,7.945,0,0,0-.45-.86l-1.29-1.8L7.53,4.09l-.082-.1L5.933,2.678q-.839-.594-1.454-.942L2.76.9.283.057.057.016Q.016-.025.016.037q-.041.041.02.041L4.131,2.268Q4.889,2.78,5.483,3.272Z" fill="#812511"/>
              </g>
            </g>
            <g id="Group_102506" data-name="Group 102506" transform="translate(8.745 4.144)">
              <g id="Group_102505" data-name="Group 102505" transform="translate(0 0)">
                <path id="Path_74774" data-name="Path 74774" d="M.082,0,.061.041,0,1.822A9.141,9.141,0,0,0,.082,3.071L.573,5.732l.7,2.088a17.44,17.44,0,0,0,.757,1.658,17.377,17.377,0,0,0,.88,1.6L4.872,13.86l.676.778.061.082,2.416,2.354q.041.041.061,0,.041-.02,0-.061L5.978,14.29l-.061-.061-1.208-1.74-.1-.184-.123-.164L2.641,8.926,1.392,5.917a7.5,7.5,0,0,1-.246-.778l-.1-.287L.88,4.2.819,4.033.369,1.781.328,1.658V1.535L.2.676.184.594V.512L.123.02Z" transform="translate(0)" fill="#812511"/>
              </g>
            </g>
            <g id="Group_102508" data-name="Group 102508" transform="translate(3.201 9.491)">
              <g id="Group_102507" data-name="Group 102507" transform="translate(0 0)">
                <path id="Path_74775" data-name="Path 74775" d="M.037.016q-.061,0-.02.041L.364,4.6.651,6.24q.082.491.389,1.74.225.8.553,1.761L2.657,12.3l.43.778a12.528,12.528,0,0,0,.942,1.392l.737.9.962.921,1.187.86.225.123.061.02.287.164q.061.061.061-.02V17.4l-.328-.246L5.994,16.005,4.746,14.429,4.7,14.347l-.164-.225a16.1,16.1,0,0,1-.8-1.413l-.061-.082-.02-.041-.02-.061-.1-.184L2,8.41.242.876.221.692.078.037Q.078-.025.037.016Z" fill="#812511"/>
              </g>
            </g>
          </g>
          <g id="Group_102534" data-name="Group 102534" transform="translate(5.273 17.56)">
            <g id="Group_102511" data-name="Group 102511" transform="translate(0.105 0.057)">
              <g id="Group_102510" data-name="Group 102510" transform="translate(0 0)">
                <path id="Path_74776" data-name="Path 74776" d="M34.8.164a34.015,34.015,0,0,0-10.38.573,31.409,31.409,0,0,0-11.1,4.893,19.39,19.39,0,0,0-3.112,2.907q-.717.839-1.372,1.72-.676.86-1.31,1.74-.409.573-.778,1.167A46.113,46.113,0,0,0,2.7,21.742,49.4,49.4,0,0,0,.241,31.774a26.373,26.373,0,0,0,.471,9.643A66.523,66.523,0,0,0,5.359,53.434a63.2,63.2,0,0,0,7.964,7.534,12.126,12.126,0,0,0,4.586-7.739Q22.536,19.183,41.289,17.4,53.347,7.391,71.24,19.285a40.57,40.57,0,0,0-13-11.035A92.117,92.117,0,0,0,45.3,2.518,49.447,49.447,0,0,0,34.8.164Z" fill="#380a00"/>
              </g>
            </g>
            <g id="Group_102513" data-name="Group 102513" transform="translate(0.105 0.057)">
              <g id="Group_102512" data-name="Group 102512" transform="translate(0 0)">
                <path id="Path_74777" data-name="Path 74777" d="M34.8.164a34.015,34.015,0,0,0-10.38.573,31.409,31.409,0,0,0-11.1,4.893,19.39,19.39,0,0,0-3.112,2.907q-.717.839-1.372,1.72-.676.86-1.31,1.74-.409.573-.778,1.167A46.113,46.113,0,0,0,2.7,21.742,49.4,49.4,0,0,0,.241,31.774a26.373,26.373,0,0,0,.471,9.643A66.523,66.523,0,0,0,5.359,53.434a63.2,63.2,0,0,0,7.964,7.534q4.348,0,8.537-25.263Q14.219,9.337,41.186,14.188q4.125-9.112,9.049-9.765-2.579-1.1-4.934-1.9A49.447,49.447,0,0,0,34.8.164Z" fill="#540e00"/>
              </g>
            </g>
            <g id="Group_102515" data-name="Group 102515" transform="translate(17.694 2.096)">
              <g id="Group_102514" data-name="Group 102514" transform="translate(0 0)">
                <path id="Path_74778" data-name="Path 74778" d="M17.395,3.354l-1.258-.891-.157-.079-.131-.1-.314-.157A9,9,0,0,0,14.3,1.494l-.157-.079-.157-.052-.157-.079L11.237.445,10.9.393,10.739.341,6.939,0,6.651.026Q6.232.026,5.5.079L1.226.786.047,1.153q-.079,0-.026.052,0,.079.052.026L3.113.891A2.884,2.884,0,0,0,3.559.865,2.884,2.884,0,0,0,4,.839L6.074.812a4.234,4.234,0,0,1,.55.026L9.3,1.1h.157l.157.052,1.232.236.6.183a13.483,13.483,0,0,1,2.437.865,17.207,17.207,0,0,1,2.254,1.258l1.992,1.52a7.657,7.657,0,0,1,.865.839q.288.262.812.839l1.022,1.232a2.568,2.568,0,0,1,.314.419l.157.183,2.254,3.538q0,.079.052.026.079,0,.026-.052l-.445-1.153a13.87,13.87,0,0,0-.6-1.284L21.247,7.495l-1.6-2.07L17.526,3.433Z" fill="#380a00"/>
              </g>
            </g>
            <g id="Group_102517" data-name="Group 102517" transform="translate(24.192 0)">
              <g id="Group_102516" data-name="Group 102516" transform="translate(0 0)">
                <path id="Path_74779" data-name="Path 74779" d="M6.153,0a3.962,3.962,0,0,0-.524.026L2.458.341.047.839q-.079,0-.026.052,0,.079.052.026L5.157.76a3.7,3.7,0,0,1,.5.026l3.3.1,6.027.734L23.4,3.642l.183.079,2.332.708q.052.052.052-.026.052-.052-.026-.052l-.262-.157L20.513,2.018l-.1-.052-.131-.026L18.1,1.284,15.77.734Q14.905.55,13.307.288,11.63.079,10.817.052Z" fill="#812511"/>
              </g>
            </g>
            <g id="Group_102519" data-name="Group 102519" transform="translate(0 15.702)">
              <g id="Group_102518" data-name="Group 102518" transform="translate(0 0)">
                <path id="Path_74780" data-name="Path 74780" d="M5.529.021q-.052-.052-.052.026l-.76,1.31-.079.183-.445.786L2.7,5.629l-.183.5-.052.1L1.625,8.695l-.079.183-.76,2.909q-.393,1.887-.6,3.59L0,20.828l.55,4.848,1.31,4.717,1.913,4.324,2.1,3.38a.023.023,0,0,0,.026.026.033.033,0,0,0,.052,0V38.07L5.005,35.9l-.079-.236-.1-.21L3.669,32.332q-.5-1.572-.839-2.856l-.839-3.957v-.1l-.367-3.066v-.236L1.6,21.9,1.52,18.6l.026-.1.341-4.507v-.1l.026-.1L2.8,9.009l.026-.183L5.555.073Q5.608.021,5.529.021Z" fill="#380a00"/>
              </g>
            </g>
            <g id="Group_102521" data-name="Group 102521" transform="translate(7.704 12.369)">
              <g id="Group_102520" data-name="Group 102520" transform="translate(0 0)">
                <path id="Path_74781" data-name="Path 74781" d="M.262,0,.236.026l-.131,1v.131L.079,1.31l-.052.865L0,2.358.157,6.971v.157l.262,1.7.052.157.917,3.459.079.157.655,1.651.236.472A23.441,23.441,0,0,0,3.747,17.19l.6.865.052.052.445.629a.284.284,0,0,1,.1.131l.445.5a.284.284,0,0,0,.1.131l.55.6.052.079L8.15,22.091l.55.419a.77.77,0,0,0,.21.183,2.6,2.6,0,0,0,.419.288l.183.157.052.026.052.052.1.052,3.145,1.861q.079.079.079-.026v-.052l-2.883-2.227A2.208,2.208,0,0,1,9.7,22.51L7.73,20.649l-1.6-1.861a19.658,19.658,0,0,1-1.52-2.149L3.066,13.81l-.052-.157-.6-1.415-.341-.943-.026-.157L1.389,8.962,1.022,7.128.97,7,.314.052A.046.046,0,0,0,.262,0Z" fill="#380a00"/>
              </g>
            </g>
            <g id="Group_102523" data-name="Group 102523" transform="translate(6.237 12.348)">
              <g id="Group_102522" data-name="Group 102522" transform="translate(0 0)">
                <path id="Path_74782" data-name="Path 74782" d="M1.756.021Q1.7-.031,1.7.047L1.258,1.462A16.112,16.112,0,0,0,.839,3.087L.76,3.323.026,7.83,0,12.285.314,14.67l.1.393.026.21.5,1.756q.367,1.048.6,1.546l.341.734,1.232,2.07a14.158,14.158,0,0,0,.97,1.232l.655.708L4.8,23.4l.079.052.917.891.079.052.052.052.288.236a17.377,17.377,0,0,0,2.149,1.494l2.385,1.258,2.516.917q.052.052.052-.026.052-.052-.026-.052L8.7,25.649l-.734-.55-.1-.1-.131-.079-1-.865a12.3,12.3,0,0,1-.97-.97,9.641,9.641,0,0,1-.943-1.074l-.655-.891-.131-.131-.079-.157a14.413,14.413,0,0,1-.786-1.31L2.987,19.2l-.5-1.048a13.21,13.21,0,0,1-.55-1.441L1.546,15.4,1.52,15.22q-.183-.708-.314-1.52l-.052-.183L.839,10.346V7.882l.367-4.219.052-.236.183-1.363.052-.183L1.782.073Q1.834.021,1.756.021Z" fill="#380a00"/>
              </g>
            </g>
            <g id="Group_102525" data-name="Group 102525" transform="translate(33.044 1.394)">
              <g id="Group_102524" data-name="Group 102524" transform="translate(0 0)">
                <path id="Path_74783" data-name="Path 74783" d="M11.294,4.083a5.755,5.755,0,0,0-1.022-.891L9.041,2.379Q8.517,2.091,7.7,1.724a10.476,10.476,0,0,0-1.363-.55A13.04,13.04,0,0,0,4.953.755L4.3.571,1.494.1.734.047.577.021H.052Q0-.031,0,.047L.026.1,6.315,2.248l.157.079.157.052,1.31.6.157.052.079.052.079.026,1.467.839q.341.21,1.048.734l.655.55.1.1.1.079.419.445.079.1.157.157.341.472.052.052.026.052.026.026.21.314.052.1.1.131q0,.079.052.026.052-.026.026-.052l-.026-.183-.079-.21-.026-.131-.079-.183V6.52l-.052-.079-.052-.183-.21-.393A3.856,3.856,0,0,0,12.107,5l-.314-.419Z" fill="#380a00"/>
              </g>
            </g>
            <g id="Group_102527" data-name="Group 102527" transform="translate(13.391 5.849)">
              <g id="Group_102526" data-name="Group 102526" transform="translate(0 0)">
                <path id="Path_74784" data-name="Path 74784" d="M8.124,2.982l-.1-.052L7.835,2.8l-.21-.1-.079-.079L5.87,1.75,5.791,1.7,4.009.991,3.826.912.681.1.052.021Q0-.031,0,.047L.026.1l.21.1L.472.283.6.362.786.414,5.11,2.379l.157.1.1.052.079.052q.865.472,1.441.839L7,3.48l.079.079,1.31.917.079.079.341.262,1.336,1.336.524.629a9.874,9.874,0,0,1,.812,1.284l.1.183.026.079.052.079.157.314.052.157.079.157L12,9.193l.026.052.052.079.1.314v.026l.052.1.026.157.079.21.026.052.236.97.026.21.052.183v.079l.026.079.079.472.052.026.026-.052.052-.472-.052-1.6-.026-.052V9.953l-.052-.314V9.56l-.026-.052V9.481l-.079-.341-.026-.079V8.983l-.314-1-.052-.079-.079-.183a9.782,9.782,0,0,0-.786-1.467l-.052-.1-.079-.079-.524-.734-.472-.5A9.809,9.809,0,0,0,8.936,3.585l-.367-.262A2.027,2.027,0,0,0,8.2,3.061Z" fill="#380a00"/>
              </g>
            </g>
            <g id="Group_102529" data-name="Group 102529" transform="translate(22.384 0.708)">
              <g id="Group_102528" data-name="Group 102528" transform="translate(0 0)">
                <path id="Path_74785" data-name="Path 74785" d="M21.09,9.617q.052-.026,0-.079L20.068,8.333,16.661,5.058l-2.83-2.044q-.839-.524-1.992-1.1-.97-.472-2.07-.891L9.088.786,8.957.76,8.564.629,8.511.6H8.433L7.647.393A14.518,14.518,0,0,0,5.6.079L5.367.052H5.236L5.183.026H4.659L4.528,0l-.1.026L2.93.079,1.305.341,1.043.419a1.742,1.742,0,0,0-.419.1L.309.6l-.262.1Q-.031.708.021.76q0,.079.052.026L1.934.655,2.091.629,3.952.681l.419.052H4.5l.1.026.445.052h.1L5.5.891q1.022.183,1.913.419l.131.026.052.026h.079l.55.183.052.026.131.026.236.1.131.026,1.992.812.131.079,1.7.865.1.079.131.052L16.32,5.9l4.691,3.721Q21.063,9.67,21.09,9.617Z" transform="translate(0 0)" fill="#812511"/>
              </g>
            </g>
            <g id="Group_102531" data-name="Group 102531" transform="translate(14.884 5.293)">
              <g id="Group_102530" data-name="Group 102530" transform="translate(0 0)">
                <path id="Path_74786" data-name="Path 74786" d="M9.25,3.616l.1.052,2.018,1.258.131.1,3.931,2.83.157.131h.079V7.914l-.288-.341L15.3,7.442,13.05,5.136,12.631,4.8,12.5,4.664,10.22,3.014q-.236-.157-1.441-.865L6.473,1.1l-.21-.052L5.9.891,4.769.55,4.586.524l-.367-.1L2.254.079H2.123L1.7.026.236,0,.052.026A.046.046,0,0,0,0,.079L.026.1l.445.1L.629.262,1.887.55,2.018.6l2.306.708.524.21.183.052L7.73,2.8l.1.026.079.052,1.074.6.183.079Z" transform="translate(0)" fill="#812511"/>
              </g>
            </g>
            <g id="Group_102533" data-name="Group 102533" transform="translate(14.701 4.927)">
              <g id="Group_102532" data-name="Group 102532" transform="translate(0 0)">
                <path id="Path_74787" data-name="Path 74787" d="M8.176.629Q8.1.6,7.259.393l-.445-.1L5.084.052A2.375,2.375,0,0,0,4.664.026L4.586,0,.262.183.026.236,0,.288.052.314,1.336.445H1.6l4.586.681,2.123.6,1.232.5a13.086,13.086,0,0,1,1.572.812l1.415.97q.6.5,1.205,1.1l.262.262.1.157.131.131.839,1.074.052.052.026.079.262.341.262.445.079.1.577,1.022q0,.079.052.026.079,0,.026-.052L16.064,7.6l-.393-.865L15.592,6.5l-.052-.052L14.334,4.56A12.509,12.509,0,0,0,13.129,3.3L12.6,2.856l-.183-.131-.079-.079-.891-.6-.157-.079-.052-.052-.419-.236L8.621.76l-.1-.026L8.386.681Z" transform="translate(0)" fill="#812511"/>
              </g>
            </g>
          </g>
          <g id="Group_102539" data-name="Group 102539" transform="translate(0.587 56.426)">
            <g id="Group_102536" data-name="Group 102536" transform="matrix(0.955, -0.296, 0.296, 0.955, 0, 5.387)">
              <g id="Group_102535" data-name="Group 102535" transform="translate(0 0)">
                <path id="Path_74788" data-name="Path 74788" d="M14.758,3.588A7.117,7.117,0,0,0,8.449.005,7.389,7.389,0,0,0,1.672,3.588Q-.79,7.309.374,13.325A22.263,22.263,0,0,0,4.164,22.7a11.034,11.034,0,0,0,7.166,4.18q4.588.8,6.024-3.843a21.807,21.807,0,0,0,.415-10.36A27.664,27.664,0,0,0,14.758,3.588Z" fill="#e2ad98"/>
              </g>
            </g>
            <g id="Group_102538" data-name="Group 102538" transform="translate(6.712 7.639)">
              <g id="Group_102537" data-name="Group 102537" transform="translate(0 0)">
                <path id="Path_74789" data-name="Path 74789" d="M6.959,2.648l.8.987L9.088,6.206l1.688,4.206q0,.078.052.026.078,0,.026-.052l-.208-1.532L9.971,6.284,9.036,3.921l-.7-1.22A5.937,5.937,0,0,0,6.959,1.272,5.774,5.774,0,0,0,5.193.338l-.1-.026L4.959.26,4.726.208,4.674.182H4.622L4.051.052h-.13L3.869.026H3.791L3.557,0H3.064L2.571.078,2.389.13,2.337.156l-.1.026L1.792.389l-.1.078-.1.052L1.506.6a2.7,2.7,0,0,0-.6.649,4.082,4.082,0,0,0-.389.675l-.078.156-.234.8-.026.156-.052.13L0,4.154v.857a.046.046,0,0,0,.052.052l.026-.026L.13,4.8.6,3.3l.026-.13.052-.13.415-.831a2.539,2.539,0,0,1,.389-.519l.052-.052.052-.078.078-.052.052-.052.26-.208A1.844,1.844,0,0,1,2.6.987,2.355,2.355,0,0,1,3.3.935h.182l.182.052h.1l.519.13.078.026h.052l.052.026.312.078.078.052.779.338L6,1.844l.156.13.1.052.078.078.312.26A2.87,2.87,0,0,1,6.959,2.648Z" transform="translate(0)" fill="#c18770"/>
              </g>
            </g>
          </g>
          <g id="Group_102548" data-name="Group 102548" transform="translate(18.273 27.09)">
            <g id="Group_102541" data-name="Group 102541" transform="translate(0 0.462) rotate(-0.817)">
              <g id="Group_102540" data-name="Group 102540" transform="translate(0 0)">
                <path id="Path_74790" data-name="Path 74790" d="M28.25,5.653q-.123-.757-.266-1.474A3.731,3.731,0,0,0,26.592,1.8a8.106,8.106,0,0,0-7-1.6,31.119,31.119,0,0,0-15.64,7.9A11.616,11.616,0,0,0,.287,14.762a18.14,18.14,0,0,0,.86,9.56Q2.825,28.908,4.4,33.513a13.64,13.64,0,0,1,.43,7.492A6.084,6.084,0,0,1,.02,45.857a11.194,11.194,0,0,0,5.015-.614,12.323,12.323,0,0,0,7.144-6.2,14.629,14.629,0,0,0,1.6-8.577,45.543,45.543,0,0,1-.041-9.642,22.514,22.514,0,0,1,3.214-9.478,13.519,13.519,0,0,1,4.156-4.36q3.889-2.538,7.144.86Z" fill="#540e00"/>
              </g>
            </g>
            <g id="Group_102543" data-name="Group 102543" transform="translate(0.121 0)">
              <g id="Group_102542" data-name="Group 102542" transform="translate(0)">
                <path id="Path_74791" data-name="Path 74791" d="M22.213.007q-.389-.02-1.146.02L18.241.416,16.869.764l-.143.02L15.5,1.153l-.02.02L10.646,3.487q-.8.43-2.313,1.372L6.121,6.435a20.043,20.043,0,0,0-2.027,1.8,11.976,11.976,0,0,0-.921,1,10.329,10.329,0,0,0-.839,1.085q-.369.512-.737,1.146A9.077,9.077,0,0,0,1,12.72l-.123.328-.041.082L.471,14.379l-.143.778v.082l-.02.164v-.061l-.041.2-.041.1-.041.2-.041.1-.02.2v.061l-.02.061-.02.1v.1l-.02.041v.061l-.041.2v.123l-.02.1.123,3.357.7,3.03,1.822,4.811-.02-.02,2.252,7.432.43,2.539q.061.655.061,1.29l-.041,1.269L5.1,41.975l-.43,1.208-.307.553-.8.983-1.024.757-.573.307a8.072,8.072,0,0,1-1.208.45q-.061,0-.02.041,0,.061.041.02l.164-.02.471-.143a4.083,4.083,0,0,0,.614-.225,6.35,6.35,0,0,0,1.167-.614l.512-.409a3.748,3.748,0,0,0,.471-.471l.225-.246.532-.839a4.545,4.545,0,0,0,.287-.614l.225-.635a9.72,9.72,0,0,0,.266-1.29l.1-1.331q0-.88-.041-1.331-.02-.389-.143-1.31l-.2-1.29L3.3,27.972l-.02-.02-1.454-3.89-.02-.1-.184-.573L.9,20.254.737,17.879Q.8,17.122.8,17.1v-.143l.02-.061.02-.184v-.061l.02-.041.02-.1v-.082l.02-.061v-.041l.082-.369.041-.1.02-.1.061-.184V15.5l.02-.164.02-.082v-.082l.041-.143.02-.164.123-.553.43-1.29a11.274,11.274,0,0,1,.553-1.146,12.9,12.9,0,0,1,.676-1.106q.409-.573.8-1.024l.88-.962q.819-.819,1.945-1.74l1.044-.8,3.337-2.109,4.75-2.375-.02.02.246-.1L20,.662Q20.554.58,21.107.539A9.822,9.822,0,0,1,22.192.478L23.3.56a7.111,7.111,0,0,1,1.065.225,5.075,5.075,0,0,1,.983.409l.471.266.2.164.061.041.143.143.164.123.041.061.1.082.123.164.143.143.164.225a8.7,8.7,0,0,1,.532.962,6.982,6.982,0,0,1,.348,1.024q.1.369.225,1.106a10.255,10.255,0,0,1,.1,1.106l.02.143.02.962q-.02.041.02.041l.041-.02L28.313,6.8a11.148,11.148,0,0,0-.061-1.146,7.586,7.586,0,0,0-.184-1.106,8.954,8.954,0,0,0-.328-1.106L27.7,3.323l-.123-.266L27.536,3l-.082-.2-.123-.184-.02-.02V2.545l-.246-.369-.1-.1-.082-.123-.246-.266-.041-.061-.1-.1-.123-.082-.041-.061L25.55.826A8.292,8.292,0,0,0,24.485.355,5.005,5.005,0,0,0,23.359.109q-.389-.061-1.146-.1M14.044,8.319q-.512.409-.88.757-.778.737-1.29,1.29l-.737.86q-.532.676-.757,1l-.573.819-.041.041-.061.123-.287.45-.512,1a10.43,10.43,0,0,0-.819,3.091,13.7,13.7,0,0,0-.02,1.7l.02.061.02.369.02.1v.1l.041.225v.1l.143.757a16.948,16.948,0,0,0,1.024,3.357L10.38,26.7l.02.02.041.061.409.839a12.4,12.4,0,0,1,.921,3.071,14.13,14.13,0,0,1,.123,1.535,12.528,12.528,0,0,1-.061,1.474l-.041.369V34.2l-.02.041-.143.86-.041.164-.02.184-.43,1.535-.061.143-.041.143-.061.143-.041.143L10.4,38.8l-.061.1-.041.1L9.172,40.952l-.061.082a.168.168,0,0,0-.061.1l-.246.328q-.02.041,0,.061.041.041.061,0l1-1.249a11.883,11.883,0,0,0,.962-1.556l.7-1.433.041-.143.123-.287.7-2.518v-.061l.02-.02v-.1l.061-.369a14.929,14.929,0,0,0,.123-1.556v-.512l-.02-.1-.1-1.228-.02-.1v-.061l-.02-.041-.184-.942-.041-.1-.041-.2-.2-.614v-.061l-.8-1.843-.02-.061h-.02v-.02l-.02-.02-.1-.184-.9-1.924a19,19,0,0,1-1-3.194l-.143-.7v-.1l-.041-.2v-.1l-.02-.1-.02-.2-.02-.1v-.1a11.913,11.913,0,0,1-.02-1.576A10.239,10.239,0,0,1,9.5,14.911l1.372-2.539.1-.123.328-.512.1-.123.491-.7a.222.222,0,0,0,.082-.1l.164-.2q.676-.839,1.187-1.372l1.106-1.126q.041-.02,0-.061-.02-.02-.061,0l-.328.266M26.573,4.572l-1-1.126-.389-.328-.635-.43a4.691,4.691,0,0,0-.757-.409,5.564,5.564,0,0,0-.88-.307,6.347,6.347,0,0,0-.983-.2,9.43,9.43,0,0,0-2.15,0l-1.106.2-.287.082-.123.02-1.392.45-.266.123-.143.041L15.4,3.18q-.819.409-2.027,1.126l-3.3,2.436-1.8,1.986L7,10.612l-.491.921q-.061.061.02.061a.026.026,0,0,0,.041,0L8.987,8.646,9.151,8.5l.143-.164,2.211-1.883.061-.02v-.02h.02l.02-.02.1-.082,1.126-.737L16.91,3.385l1.822-.635.123-.02q.307-.082,1.024-.225a8.7,8.7,0,0,1,1.986-.1,6.352,6.352,0,0,1,1.74.348,7,7,0,0,1,.737.328l.635.348a9.384,9.384,0,0,1,.942.7l.717.676.041.061q.041.041.061,0,.041-.02,0-.061Z" fill="#812511"/>
              </g>
            </g>
            <g id="Group_102545" data-name="Group 102545" transform="translate(2.168 4.245)">
              <g id="Group_102544" data-name="Group 102544" transform="translate(0 0)">
                <path id="Path_74792" data-name="Path 74792" d="M1.679,8.435q.061-.061-.02-.061H1.617l-.348.553-.02.041-.041.061-.061.123-.082.123-.43.921-.02.1-.2.553-.02.1-.143.491q-.164.962-.184,1.106l-.041.921L0,13.635V13.8l.409,4.238.184.88L.635,19,1.6,22.336l1.351,3.542a31.619,31.619,0,0,1,.983,3.173l.655,3.132a23.7,23.7,0,0,1,.164,2.989l-.061,1.515-.02.041v.123l-.02.041-.041.307-.164.594a2.665,2.665,0,0,1-.2.553l-.041.082-.02.061-.061.123-.082.123-.02.061-.041.061a8.425,8.425,0,0,1-.614.86,5.885,5.885,0,0,1-.676.655l-.635.512q-.143.1-.942.614l-.266.143L.757,41.7q-.061,0-.02.041,0,.061.041.02L1.6,41.4l1.269-.8.041-.02.061-.041.082-.082.1-.061.471-.43a5.466,5.466,0,0,0,.717-.88l.328-.512.266-.594.246-.819.02-.184.02-.041v-.041l.02-.082v-.1l.02-.082a11.68,11.68,0,0,0,.123-1.433A16.756,16.756,0,0,0,5.3,32.1l-.246-1.72-.02-.041v-.061l-.328-1.433a30.433,30.433,0,0,0-.983-3.255L1.372,19.019l-.041-.184-.041-.1-.2-.839L.532,14.085v-.143l-.02-.082v-.246l-.02-.143v-.88q.041-.573.123-1.065a5.514,5.514,0,0,1,.2-.921l.041-.2L.9,10.3l.02-.1.123-.369.635-1.392m15.743-5.4-.164.123-.082.082-.594.491a6.192,6.192,0,0,0-.7.737,6.349,6.349,0,0,0-.655.86L13.307,8.742l-.143.307L11.69,13.532q-.123.45-.287,1.351l-.512,5.22.307,3.542v.061l.02.02v.041L12,27.638l.1.307q0,.061.041.02.061,0,.02-.041l-.45-4.238-.02-.02v-.1l-.02-.123-.082-3.317.594-4.954.041-.164q.061-.43.266-1.29l.061-.328.061-.143.8-2.7,1.228-2.907L16.276,4.77l1.208-1.331A8.034,8.034,0,0,1,18.63,2.62l.225-.123.061-.02.061-.041.45-.2.143-.041.164-.082q.061,0,.02-.041,0-.061-.041-.02l-.328.061-.86.307-1.106.614M23.932.553,23.687.409,23.564.369,23.441.307,22.909.123l-.594-.1h-.143L22.09,0l-1,.041-.164.02-.471.1-.164.02-.164.061-.082.02H20l-.041.02L19.49.43h-.02l-.041.02-.082.02-.328.123-.082.02L16.665,1.74l-1.208.839a16.831,16.831,0,0,0-2.191,1.965l-.45.471-.061.082-.819.983-.061.061-.02.041h-.02l-.02.041-.123.143-.041.082h-.02l-.02.02-.02.041-.1.164-.123.143-.737,1.269a13.1,13.1,0,0,0-.573,1.31A14.23,14.23,0,0,0,9.4,12a16.711,16.711,0,0,0-.184,2.4v.921l.02.123.041.839L9.6,18.712l.123.532q0,.061.041.02.061,0,.02-.041l-.123-2.846-.02-.123.02-.1v-.839l.02-.123V14.8l.02-.123.266-2.272.02-.061v-.082l.041-.143a15.028,15.028,0,0,1,.717-2.457L11.3,8.435,12.222,7l.02-.041h.02l.02-.02.041-.082.184-.2.041-.061,1.29-1.474a19.114,19.114,0,0,1,2.109-1.9l.553-.43,2.17-1.29.164-.061.287-.143h.041l.041-.02.061-.02.369-.164h.041l.041-.02L20.165.9h.02l.041-.02L20.882.7l.143-.02.143-.041.553-.061h.143l.143-.02h.143l.123.02a2.1,2.1,0,0,1,.512.061,1.847,1.847,0,0,1,.491.123l.45.164a4.887,4.887,0,0,1,.737.491,4.374,4.374,0,0,1,.573.553l.43.553.491.839.061.143.061.082.041.082q0,.061.041.02.061,0,.02-.041l-.02-.082-.041-.1a.281.281,0,0,0-.061-.143l-.143-.389L25.652,2.4a6.44,6.44,0,0,0-.389-.594,2.82,2.82,0,0,0-.553-.655A3.277,3.277,0,0,0,23.932.553Z" transform="translate(0 0)" fill="#380a00"/>
              </g>
            </g>
            <g id="Group_102547" data-name="Group 102547" transform="translate(16.799 3.436)">
              <g id="Group_102546" data-name="Group 102546" transform="translate(0 0)">
                <path id="Path_74793" data-name="Path 74793" d="M9.363,1.443,9.342,1.4l-.2-.143L8.257.768l-.225-.1L7.95.645,7.684.522,6.026.072h-.1L5.453.01q-.491-.02-.983,0L3.487.133,3.241.194,2.361.5l-.1.061L2.115.624,2.054.665,1.767.809a4.879,4.879,0,0,0-.635.45l-.041.02-.041.041L.99,1.361l-.717.7-.266.348q-.02.02.02.061H.068l.553-.348L2.238,1.3l.1-.02.082-.041.1-.02.287-.1.1-.02.1-.041L3.651.911h.1l.757-.1H5.616l.1.02h.225l.1.02.43.041.1.02h.1l.184.041.2.02.471.1h.082l1.7.389Q9.363,1.5,9.363,1.443Z" fill="#380a00"/>
              </g>
            </g>
          </g>
          <g id="Group_102563" data-name="Group 102563" transform="translate(46.846 15.377) rotate(1.74)">
            <g id="Group_102550" data-name="Group 102550" transform="translate(0.113 0)">
              <g id="Group_102549" data-name="Group 102549" transform="translate(0 0)">
                <path id="Path_74794" data-name="Path 74794" d="M20.113,2.4A18.275,18.275,0,0,0,11.679,0a11.608,11.608,0,0,0-7.39,3.071A11.69,11.69,0,0,0,.5,9.908a32.775,32.775,0,0,0-.246,9.805q.737-.942,1.433-1.883A22.261,22.261,0,0,1,7.523,12.3a8.269,8.269,0,0,1,3.152-1.228q4.442.041,5.486,4.5a70.058,70.058,0,0,1,1.269,7.185,9.786,9.786,0,0,0,4.3,6.633,16.89,16.89,0,0,1,5.711,8.7,28.8,28.8,0,0,1,1.617,9.089,37.129,37.129,0,0,1-.2,4.2,25.938,25.938,0,0,0,4.729-4.217,32.734,32.734,0,0,0,3.664-6.039,21.276,21.276,0,0,0,2.211-8.987,23.889,23.889,0,0,0-1.494-9.109,14.047,14.047,0,0,0-5.67-7.042,16.431,16.431,0,0,1-5.937-6.8A14.753,14.753,0,0,0,20.113,2.4Z" fill="#540e00"/>
              </g>
            </g>
            <g id="Group_102552" data-name="Group 102552" transform="translate(5.701 2.542)">
              <g id="Group_102551" data-name="Group 102551" transform="translate(0 0)">
                <path id="Path_74795" data-name="Path 74795" d="M11.781,7.98,11.74,7.9,10.8,6.833l-.43-.368-.143-.1L10.164,6.3l-.082-.061a6.991,6.991,0,0,0-1.228-.757L8.69,5.4l-.061-.041-.082-.041-.164-.061-.041-.02-.02-.02H8.3l-.082-.041-.635-.246a8.32,8.32,0,0,0-1.31-.307,6.782,6.782,0,0,0-1.29,0l-.88.164-.2.061-.041.02H3.818l-.123.041-.061.041H3.593l-.02.02-.143.041-.061.041-.307.123L2.835,5.3a8.14,8.14,0,0,0-.819.532l-.43.328-.061.082-.164.123-.123.143-.082.061L.44,7.345l-.02.041-.082.082L.01,7.9q-.02.041,0,.061.041.041.061,0l.246-.266,1.024-.942.082-.041.614-.471.184-.1a7.36,7.36,0,0,1,.819-.45,7.921,7.921,0,0,1,.942-.328,5.1,5.1,0,0,1,2.19-.1l.143.041.164.02.143.041.143.02,1.249.491h.02l1.044.594.614.45.061.041.839.819a6.321,6.321,0,0,1,1.372,2.334,6.24,6.24,0,0,1,.184.655l.184.86v.082l.02.082.061.7v.184l.635,5.609.041.143.02.164.614,2.19.041.061.041.123.266.594a5.525,5.525,0,0,0,.512.839l.082.082.061.1.409.45a5.991,5.991,0,0,0,.573.471l.368.246.225.1.061.041.123.061.1.02a.281.281,0,0,0,.143.061l.1.041.082.02q.041.041.041-.02.041-.041-.02-.041l-.082-.041-.082-.061-.143-.061a5.674,5.674,0,0,1-.8-.553l-.471-.471a5.9,5.9,0,0,1-.471-.655,5.7,5.7,0,0,1-.409-.819L14.2,20.61v-.061l-.123-.389-.45-2.313-.512-6.53-.368-1.474L12.6,9.494l-.02-.1-.471-.942-.061-.082-.041-.082-.1-.164-.123-.143m1.883-6.755L12.845.815,12.784.774,11.31.16,10.839.016Q10.8-.025,10.8.037q-.041.041.02.041l3.234,2.047.061.061.532.43a15.682,15.682,0,0,1,1.167,1.167l.266.307.061.1.082.082.184.246.061.1.143.184.02.041.041.041L17.8,6.731l.307.614.082.2.061.1.716,2.006V9.72l.041.123.123.266a4.525,4.525,0,0,0,.43.819,5.138,5.138,0,0,0,.532.7,5.5,5.5,0,0,0,.573.573,4.263,4.263,0,0,0,.573.491l.123.123a.4.4,0,0,1,.143.1l.287.184.061.061,1.883,1.064.225.082q.041.041.041-.02a.026.026,0,0,0,0-.041h-.02l-1.146-.86-.1-.061-1.167-1-.983-1.105q-.348-.512-.43-.655l-.041-.082-.061-.082-.123-.266-.02-.061-.1-.225-.061-.2L19.7,9.556V9.515l-.02-.041v-.02l-.389-1.331a14.793,14.793,0,0,0-.778-1.76,13.9,13.9,0,0,0-1-1.638l-.143-.184-.061-.1L17.267,4.4l-.02-.061L17.1,4.151l-.082-.082-.061-.1-.614-.7a11.185,11.185,0,0,0-1.31-1.146,13.319,13.319,0,0,0-1.29-.839l-.082-.061M33.705,26.342l-.02.041L33.5,28.9V29l-.02.082-.184,1.6v.1l-.757,3.808-.041.123-.02.143L31.31,38.276l-.184.409q-.491,1.085-1.044,2.088Q29.386,42,28.895,42.7l-.082.123-.041.041-.839,1.146-.061.1-3.132,3.357-.1.123-.123.082-1.024.921q-.02.041,0,.061h.061l2.518-1.863.082-.082.082-.061,2.047-2.027.082-.1a.222.222,0,0,0,.082-.1l.348-.409.1-.1,2.149-3.193.02-.061,1.044-2.211,1.31-4.381.409-3.214v-.123l.02-.123-.1-4.237Z" fill="#812511"/>
              </g>
            </g>
            <g id="Group_102554" data-name="Group 102554" transform="translate(0 0.041)">
              <g id="Group_102553" data-name="Group 102553" transform="translate(0 0)">
                <path id="Path_74796" data-name="Path 74796" d="M13.347.041,13.306.02l-.9-.02L9.99.246l-.9.184q-.676.184-.962.287Q8.086.737,7.615.9l-.389.143L7.1,1.105a7.161,7.161,0,0,0-1.024.512q-.225.123-1.024.635a10.3,10.3,0,0,0-.962.8,9.757,9.757,0,0,0-.88.921l-.491.635-.061.061-.041.082-.184.266a8.041,8.041,0,0,0-.655,1.126A13.4,13.4,0,0,0,.8,8.536L.246,10.952,0,13.8l.307,5.445.061.307q0,.061.041.02.061,0,.02-.041l.2-6.223L.983,11.1q.1-.573.246-1.167l.328-1.146q.2-.614.43-1.146A12.2,12.2,0,0,1,2.5,6.51a11.265,11.265,0,0,1,.614-1.044l.43-.635L4.626,3.6,5.957,2.518q.164-.1.471-.307l.123-.082.123-.061.1-.082L7.84,1.453,9.662.778l.2-.041L9.969.7l.9-.225L13.326.082Q13.388.082,13.347.041Z" transform="translate(0 0)" fill="#812511"/>
              </g>
            </g>
            <g id="Group_102556" data-name="Group 102556" transform="translate(0.516 8.7)">
              <g id="Group_102555" data-name="Group 102555" transform="translate(0 0)">
                <path id="Path_74797" data-name="Path 74797" d="M9.658.061l-.88.2A6.736,6.736,0,0,0,7.9.635L7.529.819l-1.064.7-.921.778L4.151,3.767l-.061.1L3.107,5.138q-.307.409-.942,1.412L.1,10.481l-.082.225q-.041.041.02.041.041.041.041-.02l.287-.409.082-.143.43-.635.082-.1L1.1,9.191,3.7,5.568,6.1,2.907l1.6-1.269.184-.1.041-.041.328-.184L9.024.962Q9.249.88,9.781.737a6.448,6.448,0,0,1,.778-.1h.45l.1.02h.082l.082.02.348.041.491.123.983.409,1.249.8.041.041.061.041.164.143q.041.041.061,0,.041-.02,0-.061l-.594-.635a7.714,7.714,0,0,0-.8-.635A4.538,4.538,0,0,0,12.115.328L11.378.1a6.026,6.026,0,0,0-.839-.1l-.88.061m9.928,8.946-.02.123.02,3.91.1.8.123.512.041.1.02.1.041.1a5.144,5.144,0,0,0,.368.778,6.272,6.272,0,0,0,.512.716,5.26,5.26,0,0,0,.635.614l.164.123.082.082.348.246.082.041.553.328.9.409.184.061.491.225a4.814,4.814,0,0,1,.594.307l.553.328.471.368.7.778.123.2.225.532.143.512v.041l.02.041v.061l.02.061.041.02.041-.082V21l-.02-.082v-.082l-.1-.491a3.439,3.439,0,0,0-.184-.45,3.142,3.142,0,0,0-.266-.491l-.164-.246-.2-.225a3.134,3.134,0,0,0-.491-.471l-1.187-.819-1.433-.7-.082-.061-.164-.082-.082-.061L22.7,16.7l-.225-.164-.082-.041-.082-.061-.061-.061-.307-.225a5.982,5.982,0,0,1-.512-.532l-.45-.594-.328-.655-.02-.082-.041-.082-.184-.7-.573-5.957a.036.036,0,0,0-.041-.041l-.02.02-.184,1.351v.123M34.325,20.266l-.532-.655a5.474,5.474,0,0,0-1-.921l-.88-.573-1.126-.532-.082-.02-.082-.041-1.576-.614-4.749-2.375-.123-.082-.082-.02-.184-.123-.041-.02-.02-.02-.082-.041-.246-.164-.041-.041-.184-.123a6.43,6.43,0,0,1-.819-.8l-.041-.041-.512-.737-.02-.061-.041-.041q-.2-.389-.43-.942A9.782,9.782,0,0,1,21,9.519l-.143-2.661q.041-.041-.02-.041l-.041.02L20.63,8.106a12.833,12.833,0,0,0,0,1.453l.184,1.372.041.123.02.143.082.246a6.658,6.658,0,0,0,.389,1.044,7.968,7.968,0,0,0,.635,1l.287.368.123.123.041.061.246.225.061.041.246.225.061.041.061.061.348.246.02.02,3.071,1.74.164.061.143.082,3.173,1.392.328.1.02.02.041.02.082.02.819.368.061.02.962.573a7.585,7.585,0,0,1,.921.8l.307.328.164.246.082.082v.02l.184.266.061.123.082.123.348.757a6.844,6.844,0,0,1,.266,1.044,4.108,4.108,0,0,1,0,1v.123l-.02.123V24.4l-.02.061L34,27.267l-.061.123-.041.143-.348.9q-.041.041.02.041.041.041.041-.02l.409-.737,1.085-2.8.02-.123.041-.123.02-.1.02-.061v-.041l.02-.041.041-.266a3.759,3.759,0,0,0,.041-1.105v-.164l-.02-.143v-.061l-.02-.082-.02-.143-.02-.041v-.041l-.02-.082-.02-.143-.041-.143-.061-.143-.061-.225-.041-.082-.041-.143-.287-.594-.164-.266-.061-.143h-.02v-.02l-.02-.02-.02-.041Z" fill="#380a00"/>
              </g>
            </g>
            <g id="Group_102558" data-name="Group 102558" transform="translate(0.434 7.206)">
              <g id="Group_102557" data-name="Group 102557" transform="translate(0 0)">
                <path id="Path_74798" data-name="Path 74798" d="M6.935,0,6.813.1l-.655.45L4.868,1.7l-.082.1-.614.635L2.8,4.237,1.552,6.489l-.061.164L1.408,6.8.446,9.621l-.061.246L.037,11.914l-.02.471q-.041.041.02.041l.041-.02,1.29-3.562,2.19-4.319L5.523,1.76,7,.061V0Z" fill="#380a00"/>
              </g>
            </g>
            <g id="Group_102560" data-name="Group 102560" transform="translate(11.361 10.403)">
              <g id="Group_102559" data-name="Group 102559" transform="translate(0 0)">
                <path id="Path_74799" data-name="Path 74799" d="M6.141,7.263,5.773,5.2a4.668,4.668,0,0,0-.246-.819L4.811,2.882a7.207,7.207,0,0,0-.45-.676l-.1-.164L4.217,2,4.2,1.961,4.135,1.9l-.061-.082-.737-.7L2.7.692,2.661.671l-.02-.02L2.559.61,2.538.59,2.416.528,2.354.508,2.211.426,1.679.242A4.556,4.556,0,0,0,.8.078L.246.016h-.2Q0-.025,0,.037L.02.078.757.3a1.946,1.946,0,0,1,.368.123l.43.164a3.172,3.172,0,0,1,.471.246l.225.143.02.02h.02l.02.02.061.041.02.02.041.02.041.041.471.409a5.351,5.351,0,0,1,.45.471l.1.143.061.061.041.082.061.061.8,1.453.02.1.164.348.246.737.512,2.7v.041l.02.061.594,3.726.02.041v.041l.287,1.412.041.123v.082h.02V13.3a5.473,5.473,0,0,0,.287.839l.307.655.041.041q0,.061.041.02.061,0,.02-.041v-.061l-.061-.143-.266-1.249V13.2h-.02v-.225l-.123-1.351-.02-.082V11.46L6.428,9.679V9.494L6.2,7.672V7.632l-.02-.061-.02-.1Z" transform="translate(0)" fill="#380a00"/>
              </g>
            </g>
            <g id="Group_102562" data-name="Group 102562" transform="translate(22.17 29.471)">
              <g id="Group_102561" data-name="Group 102561" transform="translate(0 0)">
                <path id="Path_74800" data-name="Path 74800" d="M0,.027V.068L1.167,1.215a.878.878,0,0,1,.164.2l.2.184.573.7.061.061.041.061.532.655q.757,1.085.819,1.208L4.545,6l.737,1.658,1.146,3.889.655,4.053.041.02.02-.041.061-1.167.02-.1-.061-1.842L7.1,11.982V11.8L7,11.082l-.614-2.7q-.225-.716-.594-1.6-.368-.819-.737-1.515l-.43-.716-.041-.082L4.4,4.224,4.3,4.04l-.123-.164q-.287-.409-.942-1.187L1.617,1.112a.878.878,0,0,1-.2-.164L.061.007Q.041-.014,0,.027Z" fill="#380a00"/>
              </g>
            </g>
          </g>
          <g id="Group_102566" data-name="Group 102566" transform="translate(34.161 82.228)">
            <g id="Group_102565" data-name="Group 102565" transform="translate(0 0)">
              <g id="Group_102564" data-name="Group 102564">
                <path id="Path_74801" data-name="Path 74801" d="M6.3,3.129,3.181.013a.032.032,0,0,0-.052,0L.013,3.129a.032.032,0,0,0,0,.052L3.129,6.3a.032.032,0,0,0,.052,0L6.3,3.181a.032.032,0,0,0,0-.052M3.155,6.193l.026.026H3.129l.026-.026L.117,3.155l-.026.026V3.129l.026.026L3.155.117,6.193,3.155,3.155,6.193m.052-3.817-.052-.052L3.1,2.376V3.1H2.376l-.052.052.052.052H3.1v.727l.052.052.052-.052V3.207h.727l.052-.052L3.934,3.1H3.207Z" fill="rgba(0,0,0,0)"/>
              </g>
            </g>
          </g>
        </g>
        <g id="Group_102587" data-name="Group 102587" transform="translate(-223.225 -649.456) rotate(-42.835)">
          <g id="Group_102569" data-name="Group 102569" transform="translate(0.363 57.836)">
            <g id="Group_102568" data-name="Group 102568" transform="translate(0 0)">
              <path id="Path_74802" data-name="Path 74802" d="M0,27.568l19.261,4.725L25.18,6.256,7.943,0Z" fill="#e2ad98"/>
            </g>
          </g>
          <g id="Group_102571" data-name="Group 102571" transform="translate(0.208 77.461)">
            <g id="Group_102570" data-name="Group 102570" transform="translate(0 0)">
              <path id="Path_74803" data-name="Path 74803" d="M19.781,9.89a9.552,9.552,0,0,0-2.907-7.009A9.51,9.51,0,0,0,9.89,0,9.6,9.6,0,0,0,2.881,2.881,9.6,9.6,0,0,0,0,9.89a9.51,9.51,0,0,0,2.881,6.983A9.552,9.552,0,0,0,9.89,19.781a9.467,9.467,0,0,0,6.983-2.907A9.467,9.467,0,0,0,19.781,9.89Z" transform="translate(0 0)" fill="#e2ad98"/>
            </g>
          </g>
          <g id="Group_102574" data-name="Group 102574" transform="translate(6.723 54.462)">
            <g id="Group_102573" data-name="Group 102573" transform="translate(0 0)">
              <g id="Group_102572" data-name="Group 102572" transform="translate(0)">
                <path id="Path_74804" data-name="Path 74804" d="M1.869,0,0,9.086a36.737,36.737,0,0,0,17.756,5.036l1.791-6.152Z" fill="#c18770"/>
              </g>
            </g>
          </g>
          <g id="Group_102576" data-name="Group 102576" transform="translate(0.052 6.801)">
            <g id="Group_102575" data-name="Group 102575" transform="translate(0 0)">
              <path id="Path_74805" data-name="Path 74805" d="M47.92,13.888,23.259,0A290.453,290.453,0,0,0,0,50.282a61.486,61.486,0,0,0,36.265,8.852A105.152,105.152,0,0,1,47.92,13.888Z" transform="translate(0)" fill="#7a2230"/>
            </g>
          </g>
          <g id="Group_102578" data-name="Group 102578" transform="translate(21.364 0)">
            <g id="Group_102577" data-name="Group 102577" transform="translate(0 0)">
              <path id="Path_74806" data-name="Path 74806" d="M28.191,14.122a13.668,13.668,0,0,0-4.127-9.994A13.582,13.582,0,0,0,14.1,0,13.668,13.668,0,0,0,4.1,4.127,13.712,13.712,0,0,0,0,14.122a13.539,13.539,0,0,0,4.1,9.942A13.625,13.625,0,0,0,14.1,28.217a13.539,13.539,0,0,0,9.968-4.153A13.5,13.5,0,0,0,28.191,14.122Z" transform="translate(0)" fill="#7a2230"/>
            </g>
          </g>
          <g id="Group_102581" data-name="Group 102581" transform="translate(0 17.605)">
            <g id="Group_102580" data-name="Group 102580" transform="translate(0 0)">
              <g id="Group_102579" data-name="Group 102579" transform="translate(0 0)">
                <path id="Path_74807" data-name="Path 74807" d="M17.341.021q-.052-.052-.052.026-.96,1.713-1.272,2.336L14.044,6.2,6,23.955,0,39.426l2.1,1.506.519.286.156.1L4.8,42.386l.182.078.156.1,6.36,2.388q.052.052.052-.026.052-.052-.026-.052l-8-5.036-.13-.13L2.959,39.4l-.13-.13-.545-.441,9.06-21.234,5.27-14.978q.286-.831.753-2.544Q17.418.021,17.341.021Z" fill="#4b0f18"/>
              </g>
            </g>
          </g>
          <g id="Group_102583" data-name="Group 102583" transform="translate(40.371 17.372)">
            <g id="Group_102582" data-name="Group 102582" transform="translate(0 0)">
              <path id="Path_74808" data-name="Path 74808" d="M8.769.021q-.052-.052-.052.026L4.278,7.912l-.052.156L3.188,10.326,1.552,14.843.436,19.334l-.415,2.6q-.052.052.026.052L.1,21.956,3.11,13.312,7.99,2.565l.8-2.492Q8.847.021,8.769.021Z" fill="#4b0f18"/>
            </g>
          </g>
          <g id="Group_102586" data-name="Group 102586" transform="translate(32.306 10.942)">
            <g id="Group_102585" data-name="Group 102585" transform="translate(0 0)">
              <g id="Group_102584" data-name="Group 102584">
                <path id="Path_74809" data-name="Path 74809" d="M6.3,3.128,3.18.013a.032.032,0,0,0-.052,0L.013,3.128a.032.032,0,0,0,0,.052L3.128,6.3a.032.032,0,0,0,.052,0L6.3,3.18a.032.032,0,0,0,0-.052M3.154,6.191l.026.026H3.128l.026-.026L.117,3.154.091,3.18V3.128l.026.026L3.154.117,6.191,3.154,3.154,6.191m.052-3.816-.052-.052L3.1,2.375V3.1H2.375l-.052.052.052.052H3.1v.727l.052.052.052-.052V3.206h.727l.052-.052L3.933,3.1H3.206Z" fill="rgba(0,0,0,0)"/>
              </g>
            </g>
          </g>
        </g>
        <g id="Group_102595" data-name="Group 102595" transform="translate(-132.335 -586.744) rotate(-174.764)">
          <g id="Group_102589" data-name="Group 102589" transform="translate(0 0.273)">
            <g id="Group_102588" data-name="Group 102588" transform="translate(0 0)">
              <path id="Path_74810" data-name="Path 74810" d="M0,64.305l8.957,3.816A121.493,121.493,0,0,1,22.093,42.342Q31.049,28.453,33.62,17.965a52.1,52.1,0,0,0,.7-13.37L15.031,0A195,195,0,0,0,9.138,21.444Z" transform="translate(0 0)" fill="#e2ad98"/>
            </g>
          </g>
          <g id="Group_102591" data-name="Group 102591" transform="translate(1.511 8.248)">
            <g id="Group_102590" data-name="Group 102590" transform="translate(0 0)">
              <path id="Path_74811" data-name="Path 74811" d="M10.95.047,7.861,9.808,4.512,27.747.54,46.621v.052l-.026.078L.021,49.269q-.052.052.026.052.052.052.052-.026l.8-2.311L.981,46.8v-.078L2.253,42.6,6.667,24.891q.363-2.259.389-2.362L8.043,15.7,11.028.073Q11.08.021,11,.021,10.95-.031,10.95.047Z" fill="#c18770"/>
            </g>
          </g>
          <g id="Group_102594" data-name="Group 102594" transform="translate(21.431 0)">
            <g id="Group_102593" data-name="Group 102593" transform="translate(0 0)">
              <g id="Group_102592" data-name="Group 102592">
                <path id="Path_74812" data-name="Path 74812" d="M6.3,3.128,3.18.013a.032.032,0,0,0-.052,0L.013,3.128a.032.032,0,0,0,0,.052L3.128,6.3a.032.032,0,0,0,.052,0L6.3,3.18a.032.032,0,0,0,0-.052M3.154,6.192l.026.026H3.128l.026-.026L.117,3.154.091,3.18V3.128l.026.026L3.154.117,6.192,3.154,3.154,6.192m.052-3.816-.052-.052L3.1,2.375V3.1H2.375l-.052.052.052.052H3.1v.727l.052.052.052-.052V3.206h.727l.052-.052L3.933,3.1H3.206Z" fill="rgba(0,0,0,0)"/>
              </g>
            </g>
          </g>
        </g>
        <g id="Group_102624" data-name="Group 102624" transform="translate(-124.602 -627.609) rotate(-118.034)">
          <g id="Group_102601" data-name="Group 102601" transform="translate(20.052 15.39)">
            <g id="Group_102597" data-name="Group 102597" transform="translate(4.889 0.603)">
              <g id="Group_102596" data-name="Group 102596" transform="translate(0 0)">
                <path id="Path_74813" data-name="Path 74813" d="M9.121,2.749,2.2,0a14.43,14.43,0,0,1-.844,7.307,20.1,20.1,0,0,0-1.35,4.509q.7,3.714,2.484,3.81,1.76.1,2.267-3.038A19.982,19.982,0,0,1,6.4,7.451,37.428,37.428,0,0,1,9.121,2.749Z" transform="translate(0)" fill="#e2ad98"/>
              </g>
            </g>
            <g id="Group_102600" data-name="Group 102600" transform="translate(0 0)">
              <g id="Group_102599" data-name="Group 102599" transform="translate(0)">
                <g id="Group_102598" data-name="Group 102598">
                  <path id="Path_74814" data-name="Path 74814" d="M9.718,0,5.595.1,0,12.178l7.09,4.2a4.485,4.485,0,0,1-.916-1.76,4.073,4.073,0,0,1-.121-1.784Q6.969,8.223,7.6,5.812A19.885,19.885,0,0,1,9.718,0Z" fill="#c18770"/>
                </g>
              </g>
            </g>
          </g>
          <g id="Group_102621" data-name="Group 102621" transform="matrix(-0.452, 0.892, -0.892, -0.452, 46.002, 22.875)">
            <g id="Group_102604" data-name="Group 102604" transform="translate(0 0)">
              <g id="Group_102603" data-name="Group 102603" transform="translate(0 0)">
                <g id="Group_102602" data-name="Group 102602">
                  <path id="Path_74815" data-name="Path 74815" d="M26.723,1.156Q26.7.664,22.6.34q-3.751-.3-9.057-.335Q8.119-.036,4.39.236.192.528,0,1.1.938,6.6,2.408,17.581T4.816,34.048a51.613,51.613,0,0,0,8.514.606,30.6,30.6,0,0,0,8.609-.774Z" fill="#c3dbf3"/>
                </g>
              </g>
            </g>
            <g id="Group_102606" data-name="Group 102606" transform="translate(2.515 9.121)">
              <g id="Group_102605" data-name="Group 102605" transform="translate(0 0)">
                <path id="Path_74816" data-name="Path 74816" d="M18.466,22.51,21.758,0A53.962,53.962,0,0,1,0,0Q.442,3.132.948,6.911q1.373,10.239,2.28,15.7a59.643,59.643,0,0,0,7.608.46A33.45,33.45,0,0,0,18.466,22.51Z" transform="translate(0 1.413)" fill="rgba(102,204,255,0.5)"/>
                <path id="Path_74817" data-name="Path 74817" d="M21.758,1.413Q20.58,1.1,19.382.848A42.344,42.344,0,0,0,3.207.712q-1.6.293-3.207.7A53.962,53.962,0,0,0,21.758,1.413Z" fill="rgba(65,174,228,0.5)"/>
              </g>
            </g>
            <g id="Group_102609" data-name="Group 102609" transform="translate(4.944 34.654)">
              <g id="Group_102608" data-name="Group 102608">
                <g id="Group_102607" data-name="Group 102607">
                  <path id="Path_74818" data-name="Path 74818" d="M11.849,3.189a7.007,7.007,0,0,0,2.994-.763Q16,1.516,16.1,1.411A3.513,3.513,0,0,0,16.8,0,32.248,32.248,0,0,1,8.4.805Q6.276.795,4.443.669A20.441,20.441,0,0,1,0,0,4.469,4.469,0,0,0,3.463,2.98,16.7,16.7,0,0,0,8.4,3.346,22.528,22.528,0,0,0,11.849,3.189Z" fill="url(#linear-gradient)"/>
                </g>
              </g>
            </g>
            <g id="Group_102612" data-name="Group 102612" transform="translate(4.72 33.431)">
              <g id="Group_102611" data-name="Group 102611" transform="translate(0 0)">
                <g id="Group_102610" data-name="Group 102610" transform="translate(0 0)">
                  <path id="Path_74819" data-name="Path 74819" d="M16.057,1.589a3.175,3.175,0,0,0,1.012-.355,3.935,3.935,0,0,0,.149-.742q.053-.46.064-.491a5.92,5.92,0,0,1-3.037.972A43.779,43.779,0,0,1,9,1.213q-3.74,0-5.519-.178A6.765,6.765,0,0,1,0,.01,9.613,9.613,0,0,0,.224,1.223q1.076.784,6.969.92A37.412,37.412,0,0,0,16.057,1.589Z" fill="#d2d4d5"/>
                </g>
              </g>
            </g>
            <g id="Group_102615" data-name="Group 102615" transform="translate(0 1.051)">
              <g id="Group_102614" data-name="Group 102614" transform="translate(0 0)">
                <g id="Group_102613" data-name="Group 102613" transform="translate(0 0)">
                  <path id="Path_74820" data-name="Path 74820" d="M26.723,0h-.234a.021.021,0,0,1-.011.01q-.215.351-3.559.648Q19.02,1,13.383,1T3.847.659Q.5.351.277.01L.3,0H.011L0,.052q0,.22.5.376A18.335,18.335,0,0,0,4,.931q3.953.314,9.366.314T22.738.931a18.279,18.279,0,0,0,3.484-.5q.5-.157.5-.376Z" fill="#fff"/>
                </g>
              </g>
            </g>
            <g id="Group_102618" data-name="Group 102618" transform="translate(0.011 1.156)">
              <g id="Group_102617" data-name="Group 102617">
                <g id="Group_102616" data-name="Group 102616">
                  <path id="Path_74821" data-name="Path 74821" d="M.916.418A2.033,2.033,0,0,1,0,0L4.784,32.725l.842.261Z" fill="url(#linear-gradient-2)"/>
                </g>
              </g>
            </g>
            <g id="Group_102620" data-name="Group 102620" transform="translate(2.429 2.881)">
              <g id="Group_102619" data-name="Group 102619">
                <path id="Path_74822" data-name="Path 74822" d="M5.807.606Q1.131.592,0,0A252.574,252.574,0,0,0,3.985,30l3.143.136Q3.291,14.16,5.807.606Z" fill="rgba(255,255,255,0.3)"/>
              </g>
            </g>
          </g>
          <g id="Group_102623" data-name="Group 102623" transform="translate(3.969 0)">
            <g id="Group_102622" data-name="Group 102622" transform="translate(0 0)">
              <path id="Path_74823" data-name="Path 74823" d="M14.2,4.886l.13-.571a3.908,3.908,0,0,1,.1-.649A116.27,116.27,0,0,1,7.4,21.113a4.909,4.909,0,0,0,1.973-1.142A70.88,70.88,0,0,0,14.2,4.886M3.687,16.414a4.511,4.511,0,0,0,2.337-1.22L9.269,1.537Q8.075,4.653,6.776,9.248a23.362,23.362,0,0,1-3.09,7.166M2.57,11.87l.26-.779L6.049,2.316Q4.414,5.042,3.713,6.548a44.144,44.144,0,0,0-1.532,4.31q-.1.156-.182.286a1.1,1.1,0,0,1-1.3.182l-.545-.312H.1l-.026-.026L0,10.936a3.528,3.528,0,0,0,1.272,1.116,2.078,2.078,0,0,0,1.3-.182M29.883,2.991l-.052.623V3.64h.026q.026-.312.026-.649M23.834.005a2.266,2.266,0,0,0-2.129,1.013,28.713,28.713,0,0,0-2.466,4.673,18.364,18.364,0,0,0-1.4,4.829q-.286,2.337-.545,4.673-.234,2.415-.675,4.777A7.917,7.917,0,0,0,18.382,15.3a18.757,18.757,0,0,1,.7-4.466q.779-2.57,1.765-5.063Q21.783,3.536,22.9,1.3l6.932,2.311q-.675-.727-1.3-1.4A7.108,7.108,0,0,0,23.834.005Z" transform="translate(0.286 15.169)" fill="#c18770"/>
              <path id="Path_74824" data-name="Path 74824" d="M28.2,5.62A10.078,10.078,0,0,0,22.328.167q-1.039-.6-6.309.935-3.245.883-6.283,4.959-.13.156-.286.338-2.882,4.258-5.634,8.75A27.785,27.785,0,0,0,0,25.248a2.874,2.874,0,0,0,.208.727q.026,0,.078.078a.207.207,0,0,0,.078.1l.026.026H.441l.545.312a1.1,1.1,0,0,0,1.3-.182q.078-.13.182-.286A44.144,44.144,0,0,1,4,21.717q.7-1.506,2.337-4.232L3.116,26.26l-.26.779q-.493,1.4-.8,2.441.623,2.207,1.921,2.1a23.362,23.362,0,0,0,3.09-7.166q1.3-4.6,2.492-7.711L6.309,30.363q-1.454,3.713-.675,5.245a1.424,1.424,0,0,1,.078.182,1.845,1.845,0,0,0,1.973.493,116.27,116.27,0,0,0,7.036-17.447,3.908,3.908,0,0,0-.1.649l-.13.571a57.236,57.236,0,0,0-1.116,15.007q.883,1.454,3.531.078.441-2.363.675-4.777.26-2.337.545-4.673a18.364,18.364,0,0,1,1.4-4.829,28.713,28.713,0,0,1,2.466-4.673,2.266,2.266,0,0,1,2.129-1.013,7.108,7.108,0,0,1,4.7,2.207q.623.675,1.3,1.4a18.543,18.543,0,0,0,.052-2.285q0-1.74-.156-3.349A21.817,21.817,0,0,0,28.2,5.62Z" fill="#e2ad98"/>
            </g>
          </g>
        </g>
      </g>
    </g>
  </g>
</svg>
