<svg xmlns="http://www.w3.org/2000/svg" xmlns:xlink="http://www.w3.org/1999/xlink" width="375" height="270" viewBox="0 0 375 270">
  <defs>
    <clipPath id="clip-path">
      <rect id="Rectangle_8653" data-name="Rectangle 8653" width="375" height="270" transform="translate(17332 -11926)" fill="#fff" stroke="#707070" stroke-width="1" opacity="0.59"/>
    </clipPath>
    <clipPath id="clip-path-2">
      <path id="Path_75045" data-name="Path 75045" d="M0,0H203V217H158.37S150,230.465,141.094,230.465,122.759,217,122.759,217H0Z" transform="translate(117 117)" fill="#fff"/>
    </clipPath>
    <radialGradient id="radial-gradient" cx="0.501" cy="0.501" r="0.508" gradientTransform="translate(-0.111) scale(1.221 1)" gradientUnits="objectBoundingBox">
      <stop offset="0" stop-color="#6face7" stop-opacity="0.498"/>
      <stop offset="1" stop-color="#2281e0" stop-opacity="0.498"/>
    </radialGradient>
    <radialGradient id="radial-gradient-2" cx="0.383" cy="0.477" r="0.476" gradientTransform="matrix(1.234, 0.347, -0.504, 1.034, 0.25, -0.483)" gradientUnits="objectBoundingBox">
      <stop offset="0" stop-color="#fff" stop-opacity="0.498"/>
      <stop offset="1" stop-color="#fff" stop-opacity="0"/>
    </radialGradient>
    <radialGradient id="radial-gradient-3" cx="0.526" cy="0.51" r="0.57" gradientTransform="matrix(1.285, 0.285, -0.448, 1.123, 0.031, 0.046)" gradientUnits="objectBoundingBox">
      <stop offset="0" stop-color="#fff" stop-opacity="0.298"/>
      <stop offset="1" stop-color="#fff" stop-opacity="0"/>
    </radialGradient>
  </defs>
  <g id="Mask_Group_16586" data-name="Mask Group 16586" transform="translate(-17332 11926)" clip-path="url(#clip-path)">
    <g id="Mask_Group_16577" data-name="Mask Group 16577" transform="translate(17322 -12026)" clip-path="url(#clip-path-2)">
      <g id="female_teen_7" data-name="female teen 7" transform="translate(357.68 985.657)">
        <g id="Group_102876" data-name="Group 102876" transform="translate(-86.697 -644.515) rotate(163.703)">
          <g id="Group_102862" data-name="Group 102862" transform="translate(0.157 7.18)">
            <g id="Group_102861" data-name="Group 102861" transform="translate(0 0)">
              <path id="Path_74930" data-name="Path 74930" d="M0,4.769,19.445,0,25.42,26.284,8.019,32.6Z" transform="translate(0 0)" fill="#e2ad98"/>
            </g>
          </g>
          <g id="Group_102864" data-name="Group 102864" transform="translate(0 0)">
            <g id="Group_102863" data-name="Group 102863" transform="translate(0 0)">
              <path id="Path_74931" data-name="Path 74931" d="M19.969,9.984a9.643,9.643,0,0,1-2.935,7.076,9.6,9.6,0,0,1-7.049,2.909A9.687,9.687,0,0,1,2.909,17.06,9.687,9.687,0,0,1,0,9.984,9.6,9.6,0,0,1,2.909,2.935,9.643,9.643,0,0,1,9.984,0a9.557,9.557,0,0,1,7.049,2.935A9.557,9.557,0,0,1,19.969,9.984Z" fill="#e2ad98"/>
            </g>
          </g>
          <g id="Group_102867" data-name="Group 102867" transform="translate(6.525 29.332)">
            <g id="Group_102866" data-name="Group 102866" transform="translate(0 0)">
              <g id="Group_102865" data-name="Group 102865" transform="translate(0 0)">
                <path id="Path_74932" data-name="Path 74932" d="M2.621,16.371,0,4.6Q9.461-.289,18.108.018l2.463,9.958Z" fill="#c18770"/>
              </g>
            </g>
          </g>
          <g id="Group_102869" data-name="Group 102869" transform="translate(1.363 30.865)">
            <g id="Group_102868" data-name="Group 102868" transform="translate(0 0)">
              <path id="Path_74933" data-name="Path 74933" d="M44.288,63.135A13.711,13.711,0,0,1,34.225,67.3a13.8,13.8,0,0,1-10.089-4.167,14.014,14.014,0,0,1-3.643-6.158h-.026Q14.059,35.657,0,8.653,15.54-.519,36.845.031a284.123,284.123,0,0,1,11.583,51.7H48.4q.052.646.052,1.31A13.8,13.8,0,0,1,44.288,63.135Z" fill="#7a2230"/>
            </g>
          </g>
          <g id="Group_102872" data-name="Group 102872" transform="translate(17.06 30.766)">
            <g id="Group_102871" data-name="Group 102871" transform="translate(0 0)">
              <g id="Group_102870" data-name="Group 102870" transform="translate(0 0)">
                <path id="Path_74934" data-name="Path 74934" d="M30.32,36.61q.052.052-.026.052l-.052-.026L26.284,25.813,19.314,2.306l-4.036-.157L.052,2.306A.046.046,0,0,1,0,2.254l.026-.026,5.032-.97L15.2,0l6.027.052L26.284,18.03Z" fill="#4b0f18"/>
              </g>
            </g>
          </g>
          <g id="Group_102875" data-name="Group 102875" transform="translate(32.403 80.753)">
            <g id="Group_102874" data-name="Group 102874" transform="translate(0 0)">
              <g id="Group_102873" data-name="Group 102873">
                <path id="Path_74935" data-name="Path 74935" d="M6.355,3.21,3.21,6.355a.033.033,0,0,1-.052,0L.013,3.21a.033.033,0,0,1,0-.052L3.158.013a.033.033,0,0,1,.052,0L6.355,3.158a.033.033,0,0,1,0,.052M3.184.118,3.21.092H3.158l.026.026L.118,3.184.092,3.158V3.21l.026-.026L3.184,6.25,6.25,3.184,3.184.118M3.236,3.97l-.052.052L3.132,3.97V3.236H2.4l-.052-.052L2.4,3.132h.734V2.4l.052-.052.052.052v.734H3.97l.052.052-.052.052H3.236Z" fill="rgba(0,0,0,0)"/>
              </g>
            </g>
          </g>
        </g>
        <g id="Group_102882" data-name="Group 102882" transform="matrix(0.729, 0.685, -0.685, 0.729, -66.463, -750.468)">
          <g id="Group_102878" data-name="Group 102878" transform="translate(0 0)">
            <g id="Group_102877" data-name="Group 102877">
              <path id="Path_74936" data-name="Path 74936" d="M2.727,24.61A6.652,6.652,0,0,0,.42,21.7a13.1,13.1,0,0,0,.918-5.768l.708,2.779a8.069,8.069,0,0,0,.682,5.9m10.434-11.8-1.625-2.255A23.03,23.03,0,0,1,10.67,8.25a8.593,8.593,0,0,1-.734-3.33,6.745,6.745,0,0,1,.472-1.809,6.106,6.106,0,0,0,.341-1.285.742.742,0,0,0-.131-.551l1.258,1.075.052.21.21.052.393,1.075-.052-.026a1.619,1.619,0,0,0-1.154.524,4.362,4.362,0,0,0-.21,2.386q.21,2.255,2.674,5.82l-.472,6.449a8.575,8.575,0,0,1-.157-6.03m-3.12,4.431a.733.733,0,0,0,.472.76,3.08,3.08,0,0,1,.891.524q.524.367-1.1.419-9.386-.419-6.5-.865.787-.026,1.6-.079.236-4.8-.1-5.112Q2.936,5.078,0,2.614q1.389-.262,3.067,1.442a56.788,56.788,0,0,0,3.461,8.206v5.715q1.625-.052,3.225.052a7.113,7.113,0,0,1,.236-5.61A48.95,48.95,0,0,1,6.633,6a14.37,14.37,0,0,1-.839-2.6q-.341-1.311-.419-1.757a.236.236,0,0,1,0-.157,4.351,4.351,0,0,1,.5-1.442L5.191.123V.071a2.029,2.029,0,0,1,1.73.315L7,.543,7.446.071l-.1.157-.1.21a2.642,2.642,0,0,0-.551,1.18,1.661,1.661,0,0,0-.079.472.919.919,0,0,1-.131-.341,2.989,2.989,0,0,0,.157.524q.026.236.079.5l.052.052A32,32,0,0,0,9.2,9.587a12.882,12.882,0,0,0,2.281,2.936,5.427,5.427,0,0,0-1.022,2.412,10.616,10.616,0,0,0-.419,2.307M5.165,34.86Q2.386,27.939,12.9,19.5,5.427,28.568,5.165,34.86Z" transform="translate(12.741 0)" fill="#c18770"/>
              <path id="Path_74937" data-name="Path 74937" d="M22.73,12.374a7.113,7.113,0,0,0-.236,5.61q-1.6-.1-3.225-.052V12.217a56.787,56.787,0,0,1-3.461-8.206Q15.914.5,17.172.1l.76-.079V.079L18.614,0a4.351,4.351,0,0,0-.5,1.442.236.236,0,0,0,0,.157q.079.446.419,1.757a14.37,14.37,0,0,0,.839,2.6,48.95,48.95,0,0,0,3.356,6.423m.524,5.584a.733.733,0,0,1-.472-.76,10.615,10.615,0,0,1,.419-2.307,5.427,5.427,0,0,1,1.022-2.412,12.882,12.882,0,0,1-2.281-2.936,32,32,0,0,1-2.438-6.764l-.052-.052q-.052-.262-.079-.5a2.989,2.989,0,0,1-.157-.524.919.919,0,0,0,.131.341,1.661,1.661,0,0,1,.079-.472,2.642,2.642,0,0,1,.551-1.18l.1-.21a1.641,1.641,0,0,1,.446-.052,3.21,3.21,0,0,1,2.831,1.1.742.742,0,0,1,.131.551,6.105,6.105,0,0,1-.341,1.285,6.746,6.746,0,0,0-.472,1.809,8.594,8.594,0,0,0,.734,3.33,23.029,23.029,0,0,0,.865,2.307L25.9,12.768a8.575,8.575,0,0,0,.157,6.03l.472-6.449q-2.464-3.565-2.674-5.82a4.362,4.362,0,0,1,.21-2.386,1.619,1.619,0,0,1,1.154-.524l.052.026a1.811,1.811,0,0,1,1.468.315q1.232,2.176,2.438,4.562a3.508,3.508,0,0,0,.236.682,15.9,15.9,0,0,1,.813,3.933V19.82q-4.535,18.116-11.85,19.348Q10.172,38.276,8.1,29.651a20.2,20.2,0,0,0-3.12-7.157,15.236,15.236,0,0,0-2.2-2.386A12.214,12.214,0,0,0,0,18.352,6.135,6.135,0,0,1,1.678,16.1a4.408,4.408,0,0,1,1.1-.708q.393-.131.865-.262a3.516,3.516,0,0,1,2.071.262A8.318,8.318,0,0,1,7.76,16.831,4.338,4.338,0,0,1,9.1,18.483a5.347,5.347,0,0,0,1.442,1.7,7.554,7.554,0,0,1,2.622,1.468,6.652,6.652,0,0,1,2.307,2.91,8.069,8.069,0,0,1-.682-5.9l-.708-2.779q-.052-.524-.1-1.1V11.64q-4.457-5.637-2.7-8a2.561,2.561,0,0,1,1.468-1.075q2.936,2.464,5.3,10.277.341.315.1,5.112-.813.052-1.6.079-2.884.446,6.5.865,1.625-.052,1.1-.419a3.081,3.081,0,0,0-.891-.524m2.386,1.494q-10.513,8.442-7.734,15.363Q18.168,28.524,25.64,19.453Z" transform="translate(0 0.045)" fill="#e2ad98"/>
            </g>
          </g>
          <g id="Group_102881" data-name="Group 102881" transform="translate(13.41 31.308)">
            <g id="Group_102880" data-name="Group 102880" transform="translate(0 0)">
              <g id="Group_102879" data-name="Group 102879">
                <path id="Path_74938" data-name="Path 74938" d="M3.159,6.358.013,3.212a.033.033,0,0,1,0-.052L3.159.013a.033.033,0,0,1,.052,0L6.358,3.159a.033.033,0,0,1,0,.052L3.212,6.358a.033.033,0,0,1-.052,0M6.253,3.185,3.185.118,3.212.092H3.159l.026.026L.118,3.185.092,3.159v.052l.026-.026L3.185,6.253,6.253,3.185m-3.12.052H2.4l-.052-.052L2.4,3.133h.734V2.4l.052-.052.052.052v.734h.734l.052.052-.052.052H3.238v.734l-.052.052-.052-.052Z" fill="rgba(0,0,0,0)"/>
              </g>
            </g>
          </g>
        </g>
        <g id="Group_102891" data-name="Group 102891" transform="translate(-227.115 -683.317) rotate(-12.83)">
          <g id="Group_102884" data-name="Group 102884" transform="translate(0.052 3.723)">
            <g id="Group_102883" data-name="Group 102883" transform="translate(0 0)">
              <path id="Path_74939" data-name="Path 74939" d="M77.687,29.6h-.079a33.5,33.5,0,0,0-9.885-19.35A33.725,33.725,0,0,0,42.973,0,33.67,33.67,0,0,0,18.222,10.252,33.5,33.5,0,0,0,8,34.242H7.944L0,101.232q51.888,20.084,86.313-4.116Z" transform="translate(0 0)" fill="#ece7de"/>
            </g>
          </g>
          <g id="Group_102887" data-name="Group 102887" transform="translate(0 0)">
            <g id="Group_102886" data-name="Group 102886" transform="translate(0 0)">
              <g id="Group_102885" data-name="Group 102885">
                <path id="Path_74940" data-name="Path 74940" d="M56.293,5.952,51.809,0,27.268,1.521,14.63,17.882l-4.8,9.308A73.513,73.513,0,0,0,7.656,39.329L0,104.9a131.329,131.329,0,0,0,35.737,8.967q-33.065-9.365-18.9-80.362,2.514-15.2,11.746-21.526A58.116,58.116,0,0,1,56.293,5.952Z" fill="#d8cdc7"/>
              </g>
            </g>
          </g>
          <g id="Group_102890" data-name="Group 102890" transform="translate(42.147 105.388)">
            <g id="Group_102889" data-name="Group 102889" transform="translate(0 0)">
              <g id="Group_102888" data-name="Group 102888">
                <path id="Path_74941" data-name="Path 74941" d="M6.358,3.159,3.212.013a.033.033,0,0,0-.052,0L.013,3.159a.033.033,0,0,0,0,.052L3.159,6.358a.033.033,0,0,0,.052,0L6.358,3.212a.033.033,0,0,0,0-.052M3.186,6.253l.026.026H3.159l.026-.026L.118,3.186l-.026.026V3.159l.026.026L3.186.118,6.253,3.186,3.186,6.253M3.238,2.4l-.052-.052L3.133,2.4v.734H2.4l-.052.052.052.052h.734v.734l.052.052.052-.052V3.238h.734l.052-.052-.052-.052H3.238Z" fill="rgba(0,0,0,0)"/>
              </g>
            </g>
          </g>
        </g>
        <g id="Group_102917" data-name="Group 102917" transform="matrix(0.995, 0.099, -0.099, 0.995, -214.756, -747.229)">
          <g id="Group_102893" data-name="Group 102893" transform="translate(27.49 0)">
            <g id="Group_102892" data-name="Group 102892" transform="translate(0 0)">
              <path id="Path_74942" data-name="Path 74942" d="M40.955,7.536A78.268,78.268,0,0,0,32.87,3.3a36.733,36.733,0,0,0-6.462-2.2Q23.465.455,20.6,0a19.423,19.423,0,0,0-5.677.811Q12.2,1.727,9.506,2.59l-.68.262A74.432,74.432,0,0,0,.035,7.012q-.157-.157.392,1.23.628,1.57,1.23,2.8a21.279,21.279,0,0,0,3.166,4.029,56.839,56.839,0,0,0,5.808,5.521q3.218,2.669,6.593,5a43.265,43.265,0,0,0,6.384,3.715,62.207,62.207,0,0,0,7.535,2.747q1.047-2.7,1.727-4.082a46.329,46.329,0,0,0,2.747-7.352q1.073-3.8,1.936-6.986A16.178,16.178,0,0,1,40.955,7.536Z" transform="translate(0)" fill="#e2ad98"/>
            </g>
          </g>
          <g id="Group_102895" data-name="Group 102895" transform="translate(57.461 3.794)">
            <g id="Group_102894" data-name="Group 102894" transform="translate(0 0)">
              <path id="Path_74943" data-name="Path 74943" d="M5.018,1.177,4.887.026,4.835,0,4.809.052,4.7,1.177v.288l-.026.157v.157l-.262,3.14v.1l-.026.131L4.259,6.463v.131l-.026.052v.079L3.056,14.417l-1.6,6.724L.021,26.061q-.052.052.026.052.052.052.052-.026L1.486,23.1l.026-.1.052-.1,2.015-6.149.026-.157.052-.131L4.992,8.373l.052-6.751-.026-.157Z" fill="#c18770"/>
            </g>
          </g>
          <g id="Group_102897" data-name="Group 102897" transform="translate(0.229 15.865)">
            <g id="Group_102896" data-name="Group 102896" transform="translate(0 0)">
              <path id="Path_74944" data-name="Path 74944" d="M28.433,14.217A13.733,13.733,0,0,0,24.249,4.143,13.665,13.665,0,0,0,14.217,0,13.8,13.8,0,0,0,4.143,4.143,13.8,13.8,0,0,0,0,14.217,13.666,13.666,0,0,0,4.143,24.251a13.731,13.731,0,0,0,10.073,4.184,13.6,13.6,0,0,0,10.033-4.184A13.6,13.6,0,0,0,28.433,14.217Z" transform="translate(0 0)" fill="#ece7de"/>
            </g>
          </g>
          <g id="Group_102899" data-name="Group 102899" transform="translate(6.908 5.652)">
            <g id="Group_102898" data-name="Group 102898" transform="translate(0 0)">
              <path id="Path_74945" data-name="Path 74945" d="M58.266,5.259q-.654,2.617-1.23,6.018a62.942,62.942,0,0,1-1.622,7.012,31.758,31.758,0,0,1-3.506,7.85q-.262.419-.5.863a18.86,18.86,0,0,1-6.018-1.518,58.626,58.626,0,0,1-5.207-2.7q-2.433-1.439-4.814-3.061a41.065,41.065,0,0,1-4.84-3.925,39.536,39.536,0,0,1-4.055-4.631,35.793,35.793,0,0,1-3.244-5.155A39.648,39.648,0,0,1,21.166,1.23Q20.931.6,20.748,0,16.465,4.247,0,12.271q.314,3.114.523,6.28.235,3.375.445,6.724.157,2.617.288,5.128.131,2.146.262,4.317.183,3.114.419,6.254Q2.2,44.35,2.381,47.7q.183,2.931.471,5.835l.628,6.175q.374,3.352.654,6.8.3,3.454.523,6.934t.366,5.861q.169,2.4.445,4.134A24.451,24.451,0,0,1,7.4,80.72q1.176-1.391,2.93-3.846t3.741-5.207q1.439-2.041,3.035-4.082a62.455,62.455,0,0,1,5.023-5.678,47.48,47.48,0,0,1,5.259-4.5,39.54,39.54,0,0,1,5.468-3.3A26.518,26.518,0,0,1,37,52.461a24.878,24.878,0,0,1,6.829-.89,23.2,23.2,0,0,1,4.893.994,30.363,30.363,0,0,1,7.928,3.951,34.6,34.6,0,0,1,5.625,4.814,72.314,72.314,0,0,1,4.971,5.861,65.062,65.062,0,0,1,4.291,6.332q1.805,3.035,3.663,6.149a2.339,2.339,0,0,1,.209.837q.078-1.308.1-2.957.026-2.2.1-5.6t.026-6.489a41.464,41.464,0,0,1,.131-5.128,17.935,17.935,0,0,1,.5-3.14,35.939,35.939,0,0,1,1.256-3.611A28.312,28.312,0,0,0,79.014,47.2a14.181,14.181,0,0,0-.628-6.881q-1.125-2.957-1.936-5.913a19.166,19.166,0,0,1-.811-4.37q.055-1.335.052-4.029A45.7,45.7,0,0,0,75.22,19.7a7.944,7.944,0,0,1,1.308-6.018q1.828-2.434,1.23-3.349a13.822,13.822,0,0,0-2.3-2.433,16.692,16.692,0,0,0-5.18-2.878q-3.48-1.332-6.829-2.538A16.3,16.3,0,0,1,58.973.314,24.825,24.825,0,0,1,58.266,5.259Z" transform="translate(0)" fill="#ece7de"/>
            </g>
          </g>
          <g id="Group_102902" data-name="Group 102902" transform="translate(8.399 36.239)">
            <g id="Group_102901" data-name="Group 102901" transform="translate(0 0)">
              <g id="Group_102900" data-name="Group 102900">
                <path id="Path_74946" data-name="Path 74946" d="M11.721,42.152q.015-18.143,1.413-28.337A67.259,67.259,0,0,0,19.021,0Q.222,8.574,0,7.038L3.82,53.3Z" fill="#d8cdc7"/>
              </g>
            </g>
          </g>
          <g id="Group_102907" data-name="Group 102907" transform="translate(0 6.829)">
            <g id="Group_102904" data-name="Group 102904" transform="translate(64.284 0)">
              <g id="Group_102903" data-name="Group 102903" transform="translate(0 0)">
                <path id="Path_74947" data-name="Path 74947" d="M18.288,28.677,20.7,9.42a17.975,17.975,0,0,0-6.1-4.971Q9.379,2.679,3.113,0L0,9.472Q19.082,18.353,18.288,28.677Z" fill="#7a2230"/>
              </g>
            </g>
            <g id="Group_102906" data-name="Group 102906" transform="translate(0 1.073)">
              <g id="Group_102905" data-name="Group 102905" transform="translate(0 0)">
                <path id="Path_74948" data-name="Path 74948" d="M28.911,24.962a100.637,100.637,0,0,1,6.959-11.068L24.62,0a89.336,89.336,0,0,1-8.163,5.076q-12.4,5.834-12.82,7.536A13.842,13.842,0,0,0,.759,17.557,25.031,25.031,0,0,0,0,21.953q.046.969.131,3.532.105,2.591,4.238,6.724A13.732,13.732,0,0,0,14.443,36.4,13.646,13.646,0,0,0,24.49,32.209a13.846,13.846,0,0,0,1.517-1.779l.052.026.157-.288Q26.738,29.225,28.911,24.962Z" transform="translate(0 0)" fill="#7a2230"/>
              </g>
            </g>
          </g>
          <g id="Group_102909" data-name="Group 102909" transform="translate(22.527 3.375)">
            <g id="Group_102908" data-name="Group 102908" transform="translate(0 0)">
              <path id="Path_74949" data-name="Path 74949" d="M45.6,3.166A10.234,10.234,0,0,0,39.69,0a63.112,63.112,0,0,1-4.579,26.479Q14.521,20.252,6.305,1.073A11.591,11.591,0,0,0,0,4.945q10.2,19.99,37.44,28.049Q42.045,26.872,45.6,3.166Z" transform="translate(0)" fill="#7a2230"/>
            </g>
          </g>
          <g id="Group_102911" data-name="Group 102911" transform="translate(22.514 3.375)">
            <g id="Group_102910" data-name="Group 102910" transform="translate(0 0)">
              <path id="Path_74950" data-name="Path 74950" d="M28.95,29.436q-.576-.235-1.7-.785l-4.474-2.329-6.462-4.134q-1.648-1.177-3.506-2.7L9.223,16.275,5.272,12.036l-.131-.183-.89-1.047L4.2,10.7l-.262-.314L.092,4.971q-.052-.026-.078,0-.026.052,0,.079L2.211,8.9l3.375,4.657L8.961,17.3q1.413,1.465,3.192,2.983,1.91,1.6,3.532,2.774l4.238,2.774,3.794,2.067,5.756,2.564.1.026.1.052,7.771,2.433q.052.052.052-.026.052-.052-.026-.052L28.95,29.436M40.017,1.2,39.808.026,39.756,0l-.026.052L39.546,7.2l-1.073,8.216-1.622,6.2-1.2,3.4-.078.131-.523,1.387q-.052.052.026.052.052.052.052-.026l1.256-2.2,2.3-5.7q.445-1.491.654-2.407l.262-1.256q.235-1.2.235-1.282l.34-2.538q.131-1.1.183-2.486l.052-1.753Z" transform="translate(0 0)" fill="#4b0f18"/>
            </g>
          </g>
          <g id="Group_102913" data-name="Group 102913" transform="translate(31.475 9.851)">
            <g id="Group_102912" data-name="Group 102912" transform="translate(0 0)">
              <path id="Path_74951" data-name="Path 74951" d="M18.733,17.884l3.951,1.308,2.093.445q.052.052.052-.026.052-.052-.026-.052l-4.579-1.779-.131-.078-3.349-1.675q-1.02-.6-1.151-.706l-.471-.262-.131-.1-1.23-.785L9.916,11.238l-.131-.131L9.628,11l-3.4-3.3L3.454,4.54l-.078-.131-.1-.1-1.23-1.57-.052-.1-.157-.183L.078.013Q.026-.013,0,.013V.092L1.57,2.917l.078.1.052.1.863,1.334Q3.611,5.926,4.029,6.476l1.282,1.6,3.925,3.951L11.329,13.7l3.166,2.093.157.078.157.1.628.34.078.052.078.026Z" fill="#a84657"/>
            </g>
          </g>
          <g id="Group_102916" data-name="Group 102916" transform="translate(44.125 84.762)">
            <g id="Group_102915" data-name="Group 102915" transform="translate(0 0)">
              <g id="Group_102914" data-name="Group 102914">
                <path id="Path_74952" data-name="Path 74952" d="M6.345,3.153,3.205.013a.033.033,0,0,0-.052,0L.013,3.153a.033.033,0,0,0,0,.052l3.14,3.14a.033.033,0,0,0,.052,0l3.14-3.14a.033.033,0,0,0,0-.052M3.179,6.24l.026.026H3.153l.026-.026L.118,3.179l-.026.026V3.153l.026.026L3.179.118,6.24,3.179,3.179,6.24m.052-3.846-.052-.052-.052.052v.733H2.394l-.052.052.052.052h.733v.733l.052.052.052-.052V3.231h.733l.052-.052-.052-.052H3.231Z" fill="rgba(0,0,0,0)"/>
              </g>
            </g>
          </g>
        </g>
        <g id="Group_102928" data-name="Group 102928" transform="translate(-168.105 -785.182) rotate(13.542)">
          <g id="Group_102919" data-name="Group 102919" transform="translate(0 9.948)">
            <g id="Group_102918" data-name="Group 102918" transform="translate(0 0)">
              <path id="Path_74953" data-name="Path 74953" d="M24.752,42.87l.1-41.717L2.858,0,0,39.436Q18.9,51.549,24.752,42.87Z" transform="translate(0 0)" fill="#e2ad98"/>
            </g>
          </g>
          <g id="Group_102921" data-name="Group 102921" transform="translate(2.66 0)">
            <g id="Group_102920" data-name="Group 102920" transform="translate(0 0)">
              <path id="Path_74954" data-name="Path 74954" d="M3.234,3.234A10.666,10.666,0,0,0,0,11.065,10.666,10.666,0,0,0,3.234,18.9a10.666,10.666,0,0,0,7.831,3.234A10.666,10.666,0,0,0,18.9,18.9a10.666,10.666,0,0,0,3.234-7.831A10.666,10.666,0,0,0,18.9,3.234,10.666,10.666,0,0,0,11.065,0,10.666,10.666,0,0,0,3.234,3.234Z" transform="translate(0)" fill="#e2ad98"/>
            </g>
          </g>
          <g id="Group_102924" data-name="Group 102924" transform="translate(2.334 8.322)">
            <g id="Group_102923" data-name="Group 102923" transform="translate(0 0)">
              <g id="Group_102922" data-name="Group 102922" transform="translate(0 0)">
                <path id="Path_74955" data-name="Path 74955" d="M22.549,30.18,22.471,0,.315,1.311,0,8.653Q8.653,27.243,22.549,30.18Z" fill="#c18770"/>
              </g>
            </g>
          </g>
          <g id="Group_102927" data-name="Group 102927" transform="translate(8.797 50.969)">
            <g id="Group_102926" data-name="Group 102926" transform="translate(0 0)">
              <g id="Group_102925" data-name="Group 102925">
                <path id="Path_74956" data-name="Path 74956" d="M6.358,3.16,3.212.013a.033.033,0,0,0-.052,0L.013,3.16a.033.033,0,0,0,0,.052L3.16,6.358a.033.033,0,0,0,.052,0L6.358,3.212a.033.033,0,0,0,0-.052M3.186,6.254l.026.026H3.16l.026-.026L.118,3.186l-.026.026V3.16l.026.026L3.186.118,6.254,3.186,3.186,6.254M3.238,2.4l-.052-.052L3.133,2.4v.734H2.4l-.052.052.052.052h.734v.734l.052.052.052-.052V3.238h.734l.052-.052-.052-.052H3.238Z" fill="rgba(0,0,0,0)"/>
              </g>
            </g>
          </g>
        </g>
        <g id="Group_103063" data-name="Group 103063" transform="translate(-178.037 -862.906) rotate(11.078)">
          <g id="Group_102931" data-name="Group 102931" transform="translate(14.357 25.007)">
            <g id="Group_102930" data-name="Group 102930" transform="translate(0 0)">
              <g id="Group_102929" data-name="Group 102929">
                <path id="Path_74957" data-name="Path 74957" d="M53.628,7.917Q45.385.153,31.882,0A30.4,30.4,0,0,0,9.193,9.056,30.329,30.329,0,0,0,0,31.274Q.006,44.28,10.387,53.353q10.405,9.095,30.161,9.22,19.78.156,19.913-10.081t.778-23.523Q61.9,15.688,53.628,7.917Z" fill="#e2ad98"/>
              </g>
            </g>
          </g>
          <g id="Group_102934" data-name="Group 102934" transform="translate(18.044 60.183)">
            <g id="Group_102933" data-name="Group 102933" transform="translate(0 0)">
              <g id="Group_102932" data-name="Group 102932" transform="translate(0)">
                <path id="Path_74958" data-name="Path 74958" d="M61.222,11.72q.511-4.8-5.795-11.72L.208,3.33q-1.259,14.395,5.087,22,8.774,16.4,35.528,23.546Q56.607,35.161,61.222,11.72Z" fill="#e2ad98"/>
              </g>
            </g>
          </g>
          <g id="Group_102957" data-name="Group 102957" transform="translate(34.942 59.024)">
            <g id="Group_102939" data-name="Group 102939" transform="translate(28.094 2.627)">
              <g id="Group_102936" data-name="Group 102936" transform="translate(0 0)">
                <g id="Group_102935" data-name="Group 102935">
                  <path id="Path_74959" data-name="Path 74959" d="M6.891,4.5A5.078,5.078,0,0,0,5.872,1.307,2.974,2.974,0,0,0,3.445,0,3.019,3.019,0,0,0,1,1.307,5.136,5.136,0,0,0,0,4.5,5.064,5.064,0,0,0,1,7.671,3.008,3.008,0,0,0,3.445,9,2.964,2.964,0,0,0,5.872,7.671,5.007,5.007,0,0,0,6.891,4.5Z" fill="#231915"/>
                </g>
              </g>
              <g id="Group_102938" data-name="Group 102938" transform="translate(3.801 2.138)">
                <g id="Group_102937" data-name="Group 102937" transform="translate(0 0)">
                  <path id="Path_74960" data-name="Path 74960" d="M1.664,1.053A1.278,1.278,0,0,0,1.393.289.68.68,0,0,0,.8,0,.726.726,0,0,0,.222.323a1.311,1.311,0,0,0-.221.8,1.155,1.155,0,0,0,.272.747.711.711,0,0,0,.611.305.672.672,0,0,0,.56-.339A1.2,1.2,0,0,0,1.664,1.053Z" fill="#fff"/>
                </g>
              </g>
            </g>
            <g id="Group_102941" data-name="Group 102941" transform="translate(25.22 1.179)">
              <g id="Group_102940" data-name="Group 102940" transform="translate(0 0)">
                <path id="Path_74961" data-name="Path 74961" d="M10.2.045a35.8,35.8,0,0,0-3.627,0Q4.284.172,3.627,1.517A33.627,33.627,0,0,1,0,6.615,8.349,8.349,0,0,0,1.848,7.676a10.858,10.858,0,0,0,3.593.992A19.153,19.153,0,0,0,9.89,8.7a8.01,8.01,0,0,0,4.551-2.156A25.849,25.849,0,0,0,10.2.045Z" transform="translate(0)" fill="#e2ad98"/>
              </g>
            </g>
            <g id="Group_102943" data-name="Group 102943" transform="translate(26.726 8.958)">
              <g id="Group_102942" data-name="Group 102942" transform="translate(0 0)">
                <path id="Path_74962" data-name="Path 74962" d="M0,0,1.711,4.928q4.96,4.15,8.76-.342L11.908,0Z" transform="translate(0)" fill="#e2ad98"/>
              </g>
            </g>
            <g id="Group_102945" data-name="Group 102945" transform="translate(26.075 8.103)">
              <g id="Group_102944" data-name="Group 102944" transform="translate(0 0)">
                <path id="Path_74963" data-name="Path 74963" d="M7.015,1.4,6.81,1.369a5.529,5.529,0,0,1-.719-.034H5.715l-.548-.068H5L3.525,1.1l-.171-.034H3.182L2.806.992,2.7.958H2.635L1.711.787l.034.034L.924.548.719.513.513.445.068.342Q0,.274,0,.376L.034.445.376.719.445.787l.992.684.034.034,1.437.582.205.034.171.068,1.54.376L5.988,2.7l1.985.034L8.179,2.7H8.35l1.2-.205.376-.1q.719-.274.787-.308a4,4,0,0,0,.719-.376l.342-.205L12.7.753l.274-.308L13.14.171v-.1Q13.209,0,13.106,0l-.068.034L12.764.24l-.171.068-.171.1L11.053.958l-.171.034-.068.034h-.1l-.068.034-.1.034-.855.171H9.513l-.342.068Z" fill="#231915"/>
              </g>
            </g>
            <g id="Group_102950" data-name="Group 102950" transform="translate(3.49 3.585)">
              <g id="Group_102947" data-name="Group 102947" transform="translate(0 0)">
                <g id="Group_102946" data-name="Group 102946">
                  <path id="Path_74964" data-name="Path 74964" d="M6.891,4.5A5.078,5.078,0,0,0,5.872,1.307,2.974,2.974,0,0,0,3.445,0,3.019,3.019,0,0,0,1,1.307,5.136,5.136,0,0,0,0,4.5,5.064,5.064,0,0,0,1,7.671,3.008,3.008,0,0,0,3.445,9,2.964,2.964,0,0,0,5.872,7.671,5.007,5.007,0,0,0,6.891,4.5Z" fill="#231915"/>
                </g>
              </g>
              <g id="Group_102949" data-name="Group 102949" transform="translate(3.801 2.138)">
                <g id="Group_102948" data-name="Group 102948" transform="translate(0 0)">
                  <path id="Path_74965" data-name="Path 74965" d="M1.664,1.053A1.278,1.278,0,0,0,1.393.289.68.68,0,0,0,.8,0,.726.726,0,0,0,.222.323a1.311,1.311,0,0,0-.221.8,1.155,1.155,0,0,0,.272.747.711.711,0,0,0,.611.305.672.672,0,0,0,.56-.339A1.2,1.2,0,0,0,1.664,1.053Z" fill="#fff"/>
                </g>
              </g>
            </g>
            <g id="Group_102952" data-name="Group 102952" transform="translate(0 0)">
              <g id="Group_102951" data-name="Group 102951">
                <path id="Path_74966" data-name="Path 74966" d="M12.524,2.49a18.126,18.126,0,0,0-2.5-1.848A3.942,3.942,0,0,0,7.015.1,6.44,6.44,0,0,0,3.7,2.182,28.8,28.8,0,0,0,0,7.829a2.284,2.284,0,0,1,1.163.89,12.226,12.226,0,0,0,3.49,2.122,7.488,7.488,0,0,0,6.3.068Q14.3,9.6,15.057,8.65,15.844,7.7,16.8,6.665a4.284,4.284,0,0,0-.992-1.2Q14.2,3.962,12.524,2.49Z" fill="#e2ad98"/>
              </g>
            </g>
            <g id="Group_102954" data-name="Group 102954" transform="translate(0.513 8.753)">
              <g id="Group_102953" data-name="Group 102953" transform="translate(0 0)">
                <path id="Path_74967" data-name="Path 74967" d="M0,0,.479,4.312q6.363,6.032,13.038-.1l.24-3.285Z" fill="#e2ad98"/>
              </g>
            </g>
            <g id="Group_102956" data-name="Group 102956" transform="translate(0 8.024)">
              <g id="Group_102955" data-name="Group 102955" transform="translate(0 0)">
                <path id="Path_74968" data-name="Path 74968" d="M11.7,1.618h-.034l-.034.034L9.342,2.1H9.171l-.205.034H8.794l-.171.034H8.247L8.042,2.2H7.871a5.9,5.9,0,0,1-.753-.034H6.741l-.205-.034H6.365L4.928,1.926a7.628,7.628,0,0,1-1.335-.308l-.616-.171L2.84,1.379,2.7,1.344l-.137-.068L2.43,1.242l-.137-.068L2.19,1.1l-.137-.034L1.951,1,1.814.934,1.779.9H1.711L1.506.763.1.044Q0-.059,0,.078V.147L.411.557l.137.1a8.449,8.449,0,0,0,.616.582l.171.171.034.068H1.4v.034h.034l.1.1.616.445.137.068.137.1L2.6,2.3l1.3.616,1.129.308.171.068,1.027.171h.205L6.6,3.5l1.266.068.205-.034h.445L8.726,3.5a3.375,3.375,0,0,0,.821-.1l.787-.137,1.677-.548.068-.034.1-.034.137-.068.1-.068,1.985-1.061.205-.137,1.1-.924.137-.137v-.1h-.1l-.171.1-.205.068L14.1.865l-1.985.65h-.068l-.1.034-.171.034Z" fill="#231915"/>
              </g>
            </g>
          </g>
          <g id="Group_102962" data-name="Group 102962" transform="translate(56.166 57.609)">
            <g id="Group_102959" data-name="Group 102959" transform="translate(0.105 0)">
              <g id="Group_102958" data-name="Group 102958" transform="translate(0 0)">
                <path id="Path_74969" data-name="Path 74969" d="M12.454,20.456a7.374,7.374,0,0,0-4.431-6Q5.289,8.785,6.634.843,4.248-1.084,1.18,1.394L0,21.636Q6.568,26.316,12.454,20.456Z" fill="#e2ad98"/>
              </g>
            </g>
            <g id="Group_102961" data-name="Group 102961" transform="translate(0 0.712)">
              <g id="Group_102960" data-name="Group 102960" transform="translate(0 0)">
                <path id="Path_74970" data-name="Path 74970" d="M6.476,3.225,6.738.052Q6.791,0,6.712,0L6.66.026,5.952,3.881,5.873,7.814l.026.052.184,1.809.052.236v.1l.341,1.495.079.21.052.236.288.891.1.21.629,1.521a.478.478,0,0,0,.288.262h.026l1.154.472.551.288,1.023.734.131.079v.026h.026l.079.079.052.026v.026h.026l.026.052.052.052h.026l.026.026.236.315.052.1.21.577v.079l.052.262v.446l-.026.131v.079l-.026.079V18.9l-.052.157v.1l-.026.026v.079l-.236.6-.315.472-.42.472a4.646,4.646,0,0,1-.944.787,12.222,12.222,0,0,1-1.1.656l-.131.079-.157.052-.131.079-.157.052-.052.052-.367.131-.131.026a4.786,4.786,0,0,1-1.232.184H5.847l-1.573-.21-.629-.184a10.644,10.644,0,0,1-1.232-.472q-.393-.157-1.18-.577a4.284,4.284,0,0,1-.577-.315l-.577-.315Q0,20.766,0,20.871v.052l1.1.787a12.781,12.781,0,0,0,1.127.708l1.232.6,1.468.472.865.131h.262l.1.026a6.5,6.5,0,0,0,1.416-.131l.6-.184.052-.026h.026l.157-.079.184-.052.315-.157a4.394,4.394,0,0,0,.6-.315l.6-.341a7.832,7.832,0,0,0,1.127-.865l.5-.551.42-.6.315-.708.052-.184v-.079l.026-.026v-.079l.052-.184.026-.184v-.079l.026-.1.026-.184v-.551l-.052-.393v-.1l-.131-.472-.079-.184-.052-.052-.026-.1L12.3,16.6l-.052-.1L11.9,16.02l-.052-.026-.026-.052-.262-.262-.052-.026-.026-.026-.157-.131-1.154-.787-1.259-.6-.446-.157-.6-1.337L7,9.832v-.1l-.052-.21L6.686,7.971V7.84L6.66,7.814V7.735l-.052-.446Z" fill="#c18770"/>
              </g>
            </g>
          </g>
          <g id="Group_102965" data-name="Group 102965" transform="translate(33.541 52.515) rotate(9.819)">
            <g id="Group_102964" data-name="Group 102964" transform="translate(0 0)">
              <g id="Group_102963" data-name="Group 102963" transform="translate(0)">
                <path id="Path_74971" data-name="Path 74971" d="M0,2.911l.854-.4A11.248,11.248,0,0,1,6.774,1.6a20.99,20.99,0,0,1,4.455,1.1,9.078,9.078,0,0,1,1.434.58q.458.244,1.343.824a.848.848,0,0,0,.641.214.23.23,0,0,1-.031.122,1.215,1.215,0,0,0-.061-1.007,2.736,2.736,0,0,0-.915-1.312A8.568,8.568,0,0,0,11.076.683,15.088,15.088,0,0,0,5.126.043a8.006,8.006,0,0,0-3.2,1.007A19.538,19.538,0,0,0,0,2.911Z" transform="translate(3.661 0)" fill="#540e00"/>
                <path id="Path_74972" data-name="Path 74972" d="M3.845,1.1,3.6,1.282q-.077.059-.153.122a.166.166,0,0,1-.061.031.271.271,0,0,1-.061.061.323.323,0,0,1-.061.061,2.382,2.382,0,0,1-.214.153.062.062,0,0,1-.031.031A.252.252,0,0,1,2.96,1.8a.135.135,0,0,1-.061.031.063.063,0,0,1-.061.031L1.251,3.539A9.793,9.793,0,0,0,0,5.523,8.709,8.709,0,0,1,1.068,4.455,13.4,13.4,0,0,1,3.509,2.9,13.125,13.125,0,0,1,9.581,1.465a14.151,14.151,0,0,1,6.224,1.373q2.014.976,2.38.671l.031-.031.061-.092a.23.23,0,0,0,.031-.122.848.848,0,0,1-.641-.214q-.885-.58-1.343-.824a9.078,9.078,0,0,0-1.434-.58,20.99,20.99,0,0,0-4.455-1.1,11.248,11.248,0,0,0-5.919.915l-.854.4A19.538,19.538,0,0,1,5.584,0,14.636,14.636,0,0,0,3.845,1.1Z" transform="translate(0 1.05)" fill="#2b0700"/>
              </g>
            </g>
          </g>
          <g id="Group_102968" data-name="Group 102968" transform="matrix(-0.94, 0.34, -0.34, -0.94, 75.39, 58.125)">
            <g id="Group_102967" data-name="Group 102967" transform="translate(0 0)">
              <g id="Group_102966" data-name="Group 102966">
                <path id="Path_74973" data-name="Path 74973" d="M0,1.459l.6.379a6.1,6.1,0,0,0,4.17.876A11.681,11.681,0,0,0,7.911,1.664a5.586,5.586,0,0,0,1.01-.555q.322-.233.946-.788.267-.259.451-.2A.284.284,0,0,0,10.3,0a1.543,1.543,0,0,1-.043.963,2.757,2.757,0,0,1-.645,1.255A5.847,5.847,0,0,1,7.8,3.59,8.02,8.02,0,0,1,3.612,4.2,4.651,4.651,0,0,1,1.354,3.24,16.934,16.934,0,0,1,0,1.459Z" transform="translate(2.58 2.043)" fill="#540e00"/>
                <path id="Path_74974" data-name="Path 74974" d="M2.709,4.232l-.172-.175Q2.483,4,2.429,3.94a.109.109,0,0,0-.043-.029.238.238,0,0,0-.043-.058A.285.285,0,0,0,2.3,3.794a1.8,1.8,0,0,0-.15-.146.054.054,0,0,0-.021-.029.22.22,0,0,0-.043-.058.089.089,0,0,0-.043-.029A.042.042,0,0,0,2,3.5L.881,1.9A10.309,10.309,0,0,1,0,0,7.662,7.662,0,0,0,.752,1.021,9.663,9.663,0,0,0,2.472,2.51,7.337,7.337,0,0,0,6.75,3.882a7.858,7.858,0,0,0,4.385-1.313q1.419-.934,1.677-.642l.021.029.043.088a.284.284,0,0,1,.021.117q-.184-.055-.451.2-.623.555-.946.788a5.586,5.586,0,0,1-1.01.555A11.681,11.681,0,0,1,7.352,4.757a6.1,6.1,0,0,1-4.17-.876L2.58,3.5a16.934,16.934,0,0,0,1.354,1.78A10.486,10.486,0,0,1,2.709,4.232Z" fill="#2b0700"/>
              </g>
            </g>
          </g>
          <g id="Group_102973" data-name="Group 102973" transform="matrix(0.999, -0.034, 0.034, 0.999, 53.098, 83.108)">
            <g id="Group_102970" data-name="Group 102970" transform="translate(5.667 7.604)">
              <g id="Group_102969" data-name="Group 102969" transform="translate(0 0)">
                <path id="Path_74975" data-name="Path 74975" d="M0,.21V.294H.037V.336H.149V.294H.187V.336l.3.126L.635.5a3.042,3.042,0,0,1,.672.168l.635.252.224.042,1.792.546.075.042h.075l.485.084.149.042.336.042,2.016.084A4.261,4.261,0,0,1,7.8,1.764l3.136-.546L14,.21l.149-.084.037-.084L14.112,0h-.485l-.112.042L12.133.168h-.261L9.632.42h-.3L8.7.5,5.152.546,4.853.5H4.107L3.957.462,1.381.168A4.693,4.693,0,0,0,.672.126h-.6V.168H.037Z" transform="translate(0 0)" fill="#231915"/>
              </g>
            </g>
            <g id="Group_102972" data-name="Group 102972" transform="translate(0 0)">
              <g id="Group_102971" data-name="Group 102971" transform="translate(0 0)">
                <path id="Path_74976" data-name="Path 74976" d="M3.427,0q-.037.084,0,.126l.112.168.149.168.672.924L5.518,3.4l.224.63.075.168v.084l.037.084.075.336a2.244,2.244,0,0,1,.112.714,3.422,3.422,0,0,1,0,.714l-.112.756-.037.168L5.854,7.1v.042l-.112.294L5.7,7.6l-.6,1.386a7.232,7.232,0,0,1-.784,1.218l-.224.252-.149.084v.042l-.075.084-.075.042-.075.084-.224.168-.149.084a.43.43,0,0,1-.224.168l-.112.084-.9.462-1.867.63-.187.084q-.112,0-.037.084,0,.126.075.042l1.456-.168h.112l.336-.126.523-.126.56-.252.149-.042.112-.084.6-.336.149-.126.149-.084.037-.042h.037v-.042H4.36l.149-.168.149-.126.635-.756.037-.084.075-.084.336-.546.6-1.3.075-.21.037-.21.075-.168.037-.126V7.31l.075-.21a3.411,3.411,0,0,0,.112-.882,2.623,2.623,0,0,0,0-.882L6.6,4.5l-.149-.5L6.04,3.067l-.187-.294L5.779,2.6l-.112-.126-.336-.546L3.688.126,3.539,0Z" fill="#c18770"/>
              </g>
            </g>
          </g>
          <g id="Group_103005" data-name="Group 103005" transform="translate(0 0)">
            <g id="Group_102975" data-name="Group 102975" transform="translate(0 0)">
              <g id="Group_102974" data-name="Group 102974">
                <path id="Path_74977" data-name="Path 74977" d="M.809,21.694q2.129,7.3,10.3,11.432a87.515,87.515,0,0,0,13.458,5.747q5.292,1.613,7.277-4.838a91.74,91.74,0,0,0,2.894-12.4q.93-5.933-2.543-14.078Q28.7-.612,17.162.05,5.605.69,2.153,7.554A18.651,18.651,0,0,0,.809,21.694Z" fill="#540e00"/>
              </g>
            </g>
            <g id="Group_102978" data-name="Group 102978" transform="translate(10.484 15.327)">
              <g id="Group_102977" data-name="Group 102977" transform="translate(0 0)">
                <g id="Group_102976" data-name="Group 102976">
                  <path id="Path_74978" data-name="Path 74978" d="M26.069,23.712,23.939,0Q6.021,1.976,0,17.3L12.714,28.4Z" fill="#380a00"/>
                </g>
              </g>
            </g>
            <g id="Group_102980" data-name="Group 102980" transform="translate(2.571 12.788)">
              <g id="Group_102979" data-name="Group 102979" transform="translate(0 0)">
                <path id="Path_74979" data-name="Path 74979" d="M.079.037q0-.062-.041-.021-.062,0-.021.041V.719l.021.1.393,3.2.93,3.287.227.538L1.629,8l.186.413A18.146,18.146,0,0,0,2.931,10.6L4.523,13,6.715,15.48l.124.1.868.848.124.083.1.1,1.985,1.592,3.887,2.4,1.054.517q.041,0,.041-.021.041-.041-.021-.041l-3.06-2.129L8.43,16.08,5.764,13.227,4.627,11.738,3.014,9.154l-.021-.083-.041-.062-.93-1.964L1.98,6.983.968,4.13.947,4.006.905,3.9Z" fill="#380a00"/>
              </g>
            </g>
            <g id="Group_102982" data-name="Group 102982" transform="translate(6.25 4.726)">
              <g id="Group_102981" data-name="Group 102981" transform="translate(0 0)">
                <path id="Path_74980" data-name="Path 74980" d="M.079.037q0-.062-.041-.021-.062,0-.021.041V.637L.389,4.565l.517,2.6.7,2.315q.413,1.137.827,2.047l.31.62.041.062.021.062L3.49,13.5l.31.455a.224.224,0,0,0,.083.1l.062.124.641.868a.224.224,0,0,1,.083.1.224.224,0,0,1,.083.1l.682.765.1.083.083.1.434.434.1.062,1.054.889,2.46,1.447,1.2.434q.041.041.041-.021.041-.041-.021-.041l-.227-.124L7.707,17.3,6.032,15.645l-.7-.868-.062-.1-.083-.1-.992-1.509A17.226,17.226,0,0,1,3.18,11.18l-.331-.744-1.3-3.7L.471,2.167.451,2,.409,1.856Z" fill="#380a00"/>
              </g>
            </g>
            <g id="Group_102984" data-name="Group 102984" transform="translate(10.67 3.977)">
              <g id="Group_102983" data-name="Group 102983" transform="translate(0 0)">
                <path id="Path_74981" data-name="Path 74981" d="M6.078,7.628,7.236,9.882l.062.1.124.31.1.186.724,1.8,1.426,4.858q0,.062.041.021.062,0,.021-.041V16.89l-.186-1.778-.041-.145-.062-.475-.6-2.522L8.021,9.654l-.062-.1-.186-.434q-.372-.848-.848-1.7L5.23,4.858,4.383,3.8,2.563,1.943,1.675,1.2l-.1-.1L.62.372.475.289.062,0H0V.062l1.323,1.3.041.062L2.688,2.853a1.742,1.742,0,0,0,.248.289L4.548,5.21Z" transform="translate(0)" fill="#380a00"/>
              </g>
            </g>
            <g id="Group_102986" data-name="Group 102986" transform="translate(17.554 6.593)">
              <g id="Group_102985" data-name="Group 102985" transform="translate(0 0)">
                <path id="Path_74982" data-name="Path 74982" d="M.062.01Q.041-.01,0,.01V.072L1.344,2.016l.145.248a11.782,11.782,0,0,1,.641,1.1l.765,1.613.062.186.083.165L3.576,7.06,3.6,7.1l.021.062.083.372q.145.724.248,1.53l.1,2.481-.021.083-.1,1.3v.145l-.5,2.77q-.041.041.021.041l.041-.021.455-1.034.5-1.654.021-.165.186-.889v-.083l.062-.372v-.083l.021-.083v-.186q0-.041.062-.765V9.479l-.021-.1-.021-.393L4.507,7.349Q4.3,6.5,4.052,5.778L3.7,4.931,3.68,4.848,2.295,2.47,1.55,1.519Z" fill="#380a00"/>
              </g>
            </g>
            <g id="Group_102988" data-name="Group 102988" transform="translate(1.992 20.479)">
              <g id="Group_102987" data-name="Group 102987" transform="translate(0 0)">
                <path id="Path_74983" data-name="Path 74983" d="M2.456,3.758l-.041-.083-.062-.062L2.27,3.469l-.1-.124-.041-.062-.062-.062-.517-.786-.062-.124L.079.037q0-.062-.041-.021-.062,0-.021.041L.058.244.616,1.712,1.691,3.841l.1.145.041.083L2.683,5.35,4.358,7.314l.083.062.848.806a14.643,14.643,0,0,0,1.178.91L8.8,10.477l.083.021.124.062,2.15.765q.041.041.041-.021l-.021-.041L7.728,9.133l-1.9-1.571a6.524,6.524,0,0,1-.538-.5Z" fill="#380a00"/>
              </g>
            </g>
            <g id="Group_102990" data-name="Group 102990" transform="translate(27.498 5.311)">
              <g id="Group_102989" data-name="Group 102989" transform="translate(0 0)">
                <path id="Path_74984" data-name="Path 74984" d="M1.2,1.209l-.165-.165L.91.879.062.01Q.041-.01,0,.01V.072L.083.217.207.382.269.506l1.8,2.977.062.145.662,1.24.021.083.083.145L4.217,8.755l.1.393.021.165.041.145.1.558V10.1l.124,1.034V11.4l.021.145v1.075l-.041.413v.186l-.083.806q-.041.041.021.041l.041-.021.145-.351.434-2.005v-.145l.021-.145v-.145l.021-.062L5.065,9,4.8,7.783A12.587,12.587,0,0,0,4.341,6.4l-.021-.083-.041-.083L3.266,4.124l-.041-.062L3.184,3.98Z" transform="translate(0 0)" fill="#380a00"/>
              </g>
            </g>
            <g id="Group_102992" data-name="Group 102992" transform="translate(13.961 1.356)">
              <g id="Group_102991" data-name="Group 102991" transform="translate(0 0)">
                <path id="Path_74985" data-name="Path 74985" d="M11.655,7.914l-.269-.455L11.366,7.4a9.738,9.738,0,0,0-.682-.992l-.165-.248-.1-.124-.041-.062L9.113,4.606A20.125,20.125,0,0,0,7.335,3.159L6.3,2.5,3.386,1.05,3.18.988,2.993.905.058.017Q.017-.025.017.037-.025.079.037.079L1.546.719,6.032,3.138,8.244,4.9l.062.041L8.348,5l.207.186a14.267,14.267,0,0,1,1.468,1.7A12.3,12.3,0,0,1,11.2,8.8a13.291,13.291,0,0,1,.786,2.026l.434,2.005a12.427,12.427,0,0,1,.186,1.84l-.165,3.845q-.041.041.021.041l.041-.021.475-2.274.145-2.171-.186-2.4-.579-2.171a10.228,10.228,0,0,0-.434-1.075l-.062-.145-.083-.124Z" fill="#380a00"/>
              </g>
            </g>
            <g id="Group_102994" data-name="Group 102994" transform="translate(19.766 0.008)">
              <g id="Group_102993" data-name="Group 102993" transform="translate(0 0)">
                <path id="Path_74986" data-name="Path 74986" d="M14.843,16.146,14.409,12.8l-.558-2.191a18.8,18.8,0,0,0-.682-1.964l-1.1-2.253L10.936,4.713l-1.592-1.7-.393-.31L8.91,2.646,7.525,1.7a12.023,12.023,0,0,0-1.9-.889L4.259.372,2.646.083,2.274.062Q1.592,0,1.075,0L.041.041A.037.037,0,0,0,0,.083L.021.1,1.447.289H1.53L1.592.31,1.9.351,3.618.744,3.7.786l1.7.6a14.848,14.848,0,0,1,1.737.951,8.622,8.622,0,0,1,.848.6l.413.331.062.041.351.31A14.385,14.385,0,0,1,10.275,5.23a15.174,15.174,0,0,1,1.24,1.819l.972,1.881q.393.889.765,1.881l1.53,5.354q0,.062.041.021Q14.885,16.187,14.843,16.146Z" transform="translate(0 0)" fill="#812511"/>
              </g>
            </g>
            <g id="Group_102996" data-name="Group 102996" transform="translate(0.086 8.984)">
              <g id="Group_102995" data-name="Group 102995" transform="translate(0 0)">
                <path id="Path_74987" data-name="Path 74987" d="M1.447.017q-.041-.041-.041.021L.558,2.849l-.434,2.6L.062,6.26Q.062,6.3,0,7.4L.083,9.216.1,9.381v.145L.351,11.1a16.019,16.019,0,0,0,.7,2.5q.083.248.5,1.22l.331.662.041.062.31.579.083.124.145.289L4.2,18.891l1.261,1.344L7.69,22.1l.331.227a13.071,13.071,0,0,0,1.116.744l1.013.6q.062.062.062-.021.021,0,0-.041l-2.129-1.7L4.817,18.56,3.473,16.638a11.159,11.159,0,0,1-.62-1.054A16.778,16.778,0,0,1,1.84,13.33q-.289-.786-.393-1.2l-.31-1.2A19.116,19.116,0,0,1,.786,8.555L.744,8.265.7,6.839.682,6.777.7,6.694.724,5.226,1.468.058Q1.509.017,1.447.017Z" fill="#380a00"/>
              </g>
            </g>
            <g id="Group_102998" data-name="Group 102998" transform="translate(15.549 1.335)">
              <g id="Group_102997" data-name="Group 102997" transform="translate(0 0)">
                <path id="Path_74988" data-name="Path 74988" d="M10.047,6.963a14.777,14.777,0,0,1,.889,1.654l.351.827.724,2.336.6,3.287.041.021.021-.041.041-.7L12.3,10.5l-.041-.1-.475-1.633L10.605,6.322,9.53,4.875l-.7-.765a8.207,8.207,0,0,0-.744-.682L7.3,2.787,5.664,1.774l-.806-.393L2.625.554,1.985.389Q1.323.223.951.161L.041.017Q0-.025,0,.037L.021.079l.868.31.227.062L3.659,1.484l.083.041.083.062.372.165,2.067,1.24,1.116.868,1.53,1.55Z" fill="#812511"/>
              </g>
            </g>
            <g id="Group_103000" data-name="Group 103000" transform="translate(13.114 2.576)">
              <g id="Group_102999" data-name="Group 102999" transform="translate(0 0)">
                <path id="Path_74989" data-name="Path 74989" d="M5.536,3.3A15.864,15.864,0,0,1,6.859,4.5q.662.744,1.158,1.426L8.968,7.5l.351.827a6.589,6.589,0,0,1,.31.848l.455,1.819.227,1.985.021,2.481q-.041.041.021.041l.041-.021.186-.868.186-2.708-.062-.992-.021-.1v-.1l-.227-1.3L9.795,7.376l-.062-.1-.041-.1A8.023,8.023,0,0,0,9.237,6.3l-1.3-1.819L7.6,4.131l-.083-.1L5.991,2.7q-.848-.6-1.468-.951L2.787.905.285.058.058.017Q.017-.025.017.037-.025.079.037.079L4.172,2.291Q4.937,2.807,5.536,3.3Z" fill="#812511"/>
              </g>
            </g>
            <g id="Group_103002" data-name="Group 103002" transform="translate(8.83 4.184)">
              <g id="Group_103001" data-name="Group 103001" transform="translate(0 0)">
                <path id="Path_74990" data-name="Path 74990" d="M.083,0,.062.041,0,1.84A9.231,9.231,0,0,0,.083,3.1l.5,2.688.7,2.109a17.61,17.61,0,0,0,.765,1.675,17.547,17.547,0,0,0,.889,1.613L4.92,14l.682.786.062.083L8.1,17.241q.041.041.062,0,.041-.021,0-.062L6.037,14.43l-.062-.062-1.22-1.757-.1-.186-.124-.165L2.667,9.013,1.406,5.975a7.578,7.578,0,0,1-.248-.786l-.1-.289L.889,4.238.827,4.073.372,1.8.331,1.675V1.55L.207.682.186.6V.517L.124.021Z" fill="#812511"/>
              </g>
            </g>
            <g id="Group_103004" data-name="Group 103004" transform="translate(3.232 9.584)">
              <g id="Group_103003" data-name="Group 103003" transform="translate(0 0)">
                <path id="Path_74991" data-name="Path 74991" d="M.037.017q-.062,0-.021.041L.368,4.647.657,6.3q.083.5.393,1.757.227.806.558,1.778L2.683,12.42l.434.786a12.65,12.65,0,0,0,.951,1.406l.744.91.972.93,1.2.868.227.124.062.021.289.165q.062.062.062-.021v-.041l-.331-.248-1.24-1.158L4.792,14.57l-.041-.083-.165-.227a16.257,16.257,0,0,1-.806-1.426l-.062-.083L3.7,12.71l-.021-.062-.1-.186L2.022,8.493.244.885.223.7.079.037Q.079-.025.037.017Z" fill="#812511"/>
              </g>
            </g>
          </g>
          <g id="Group_103030" data-name="Group 103030" transform="translate(5.325 17.732)">
            <g id="Group_103007" data-name="Group 103007" transform="translate(0.106 0.058)">
              <g id="Group_103006" data-name="Group 103006" transform="translate(0 0)">
                <path id="Path_74992" data-name="Path 74992" d="M35.14.166A34.348,34.348,0,0,0,24.658.745a31.716,31.716,0,0,0-11.2,4.941,19.581,19.581,0,0,0-3.142,2.936q-.724.848-1.385,1.737-.682.868-1.323,1.757-.413.579-.786,1.178a46.566,46.566,0,0,0-4.093,8.662A49.881,49.881,0,0,0,.243,32.085a26.631,26.631,0,0,0,.476,9.737A67.175,67.175,0,0,0,5.412,53.957a63.824,63.824,0,0,0,8.042,7.608,12.245,12.245,0,0,0,4.631-7.815q4.672-34.38,23.609-36.178,12.177-10.109,30.245,1.9A40.967,40.967,0,0,0,58.81,8.332,93.016,93.016,0,0,0,45.745,2.543,49.932,49.932,0,0,0,35.14.166Z" fill="#380a00"/>
              </g>
            </g>
            <g id="Group_103009" data-name="Group 103009" transform="translate(0.106 0.058)">
              <g id="Group_103008" data-name="Group 103008" transform="translate(0 0)">
                <path id="Path_74993" data-name="Path 74993" d="M35.14.166A34.348,34.348,0,0,0,24.658.745a31.716,31.716,0,0,0-11.2,4.941,19.581,19.581,0,0,0-3.142,2.936q-.724.848-1.385,1.737-.682.868-1.323,1.757-.413.579-.786,1.178a46.566,46.566,0,0,0-4.093,8.662A49.881,49.881,0,0,0,.243,32.085a26.631,26.631,0,0,0,.476,9.737A67.175,67.175,0,0,0,5.412,53.957a63.824,63.824,0,0,0,8.042,7.608q4.391,0,8.621-25.511Q14.358,9.428,41.59,14.327q4.165-9.2,9.138-9.861-2.6-1.113-4.982-1.923A49.932,49.932,0,0,0,35.14.166Z" fill="#540e00"/>
              </g>
            </g>
            <g id="Group_103011" data-name="Group 103011" transform="translate(17.867 2.117)">
              <g id="Group_103010" data-name="Group 103010" transform="translate(0 0)">
                <path id="Path_74994" data-name="Path 74994" d="M17.565,3.387l-1.27-.9-.159-.079L16,2.3l-.318-.159a9.09,9.09,0,0,0-1.244-.635l-.159-.079-.159-.053L13.966,1.3,11.347.45,11,.4,10.844.344,7.007,0,6.716.026q-.423,0-1.164.053L1.238.794l-1.191.37q-.079,0-.026.053,0,.079.053.026L3.144.9a2.912,2.912,0,0,0,.45-.026,2.912,2.912,0,0,0,.45-.026L6.134.82a4.276,4.276,0,0,1,.556.026l2.7.265h.159l.159.053L10.95,1.4l.609.185a13.615,13.615,0,0,1,2.461.873A17.375,17.375,0,0,1,16.3,3.731l2.011,1.535a7.732,7.732,0,0,1,.873.847q.291.265.82.847L21.032,8.2a2.594,2.594,0,0,1,.318.423l.159.185,2.276,3.572q0,.079.053.026.079,0,.026-.053l-.45-1.164A14.007,14.007,0,0,0,22.8,9.9l-1.35-2.329-1.614-2.09L17.7,3.466Z" fill="#380a00"/>
              </g>
            </g>
            <g id="Group_103013" data-name="Group 103013" transform="translate(24.429 0)">
              <g id="Group_103012" data-name="Group 103012" transform="translate(0 0)">
                <path id="Path_74995" data-name="Path 74995" d="M6.213,0a4,4,0,0,0-.529.026l-3.2.318L.048.847Q-.032.847.021.9q0,.079.053.026L5.208.767a3.737,3.737,0,0,1,.5.026L9.045.9l6.086.741,8.494,2.038.185.079,2.355.714q.053.053.053-.026.053-.053-.026-.053l-.265-.159-5.213-2.2-.106-.053-.132-.026L18.28,1.3,15.925.741q-.873-.185-2.487-.45Q11.744.079,10.923.053Z" fill="#812511"/>
              </g>
            </g>
            <g id="Group_103015" data-name="Group 103015" transform="translate(0 15.856)">
              <g id="Group_103014" data-name="Group 103014" transform="translate(0 0)">
                <path id="Path_74996" data-name="Path 74996" d="M5.583.021Q5.53-.032,5.53.048L4.763,1.371l-.079.185-.45.794L2.726,5.684l-.185.5-.053.106L1.641,8.78l-.079.185L.794,11.9Q.4,13.808.185,15.528L0,21.032l.556,4.9L1.879,30.69,3.81,35.057,5.927,38.47a.023.023,0,0,0,.026.026.033.033,0,0,0,.053,0v-.053l-.953-2.2-.079-.238L4.869,35.8,3.7,32.648q-.5-1.588-.847-2.884l-.847-4v-.106l-.37-3.1v-.238l-.026-.212-.079-3.334.026-.106.344-4.551v-.106l.026-.106.9-4.816.026-.185L5.61.074Q5.663.021,5.583.021Z" fill="#380a00"/>
              </g>
            </g>
            <g id="Group_103017" data-name="Group 103017" transform="translate(7.78 12.49)">
              <g id="Group_103016" data-name="Group 103016" transform="translate(0 0)">
                <path id="Path_74997" data-name="Path 74997" d="M.265,0,.238.026.106,1.032v.132l-.026.159L.026,2.2,0,2.382.159,7.039V7.2l.265,1.72.053.159L1.4,12.569l.079.159L2.143,14.4l.238.476a23.67,23.67,0,0,0,1.4,2.487l.609.873.053.053.45.635A.286.286,0,0,1,5,19.052l.45.5a.286.286,0,0,0,.106.132l.556.609.053.079L8.23,22.307l.556.423A.778.778,0,0,0,9,22.916a2.629,2.629,0,0,0,.423.291l.185.159.053.026.053.053.106.053,3.175,1.879q.079.079.079-.026V25.3l-2.911-2.249a2.229,2.229,0,0,1-.37-.318L7.806,20.852,6.192,18.973A19.851,19.851,0,0,1,4.657,16.8L3.1,13.945l-.053-.159-.609-1.429-.344-.953-.026-.159L1.4,9.05,1.032,7.2.979,7.065.318.053A.047.047,0,0,0,.265,0Z" fill="#380a00"/>
              </g>
            </g>
            <g id="Group_103019" data-name="Group 103019" transform="translate(6.298 12.469)">
              <g id="Group_103018" data-name="Group 103018" transform="translate(0 0)">
                <path id="Path_74998" data-name="Path 74998" d="M1.773.021Q1.72-.032,1.72.048L1.27,1.477A16.27,16.27,0,0,0,.847,3.117l-.079.238L.026,7.907,0,12.405l.318,2.408.106.4.026.212.5,1.773q.37,1.058.609,1.561l.344.741,1.244,2.09a14.3,14.3,0,0,0,.979,1.244l.662.714.053.079.079.053.926.9.079.053.053.053.291.238a17.548,17.548,0,0,0,2.17,1.508l2.408,1.27,2.54.926q.053.053.053-.026.053-.053-.026-.053L8.785,25.9l-.741-.556-.106-.106-.132-.079L6.8,24.287a12.422,12.422,0,0,1-.979-.979,9.735,9.735,0,0,1-.953-1.085l-.662-.9-.132-.132L4,21.032A14.554,14.554,0,0,1,3.2,19.709l-.185-.318-.5-1.058a13.34,13.34,0,0,1-.556-1.455l-.4-1.323-.026-.185q-.185-.714-.318-1.535l-.053-.185-.318-3.2V7.96l.37-4.26.053-.238.185-1.376L1.508,1.9,1.8.074Q1.852.021,1.773.021Z" fill="#380a00"/>
              </g>
            </g>
            <g id="Group_103021" data-name="Group 103021" transform="translate(33.368 1.408)">
              <g id="Group_103020" data-name="Group 103020" transform="translate(0 0)">
                <path id="Path_74999" data-name="Path 74999" d="M11.4,4.123a5.811,5.811,0,0,0-1.032-.9L9.129,2.4Q8.6,2.112,7.78,1.741A10.578,10.578,0,0,0,6.4,1.185,13.168,13.168,0,0,0,5,.762L4.34.577,1.508.1.741.048.582.021H.053Q0-.032,0,.048L.026.1,6.377,2.27l.159.079.159.053,1.323.609.159.053.079.053.079.026,1.482.847q.344.212,1.058.741l.662.556.106.106.106.079.423.45.079.106.159.159.344.476.053.053.026.053.026.026.212.318.053.106.106.132q0,.079.053.026.053-.026.026-.053l-.026-.185L13.2,6.928,13.178,6.8,13.1,6.61V6.584L13.046,6.5l-.053-.185-.212-.4a3.894,3.894,0,0,0-.556-.873l-.318-.423Z" transform="translate(0 0)" fill="#380a00"/>
              </g>
            </g>
            <g id="Group_103023" data-name="Group 103023" transform="translate(13.522 5.906)">
              <g id="Group_103022" data-name="Group 103022" transform="translate(0 0)">
                <path id="Path_75000" data-name="Path 75000" d="M8.2,3.011,8.1,2.958l-.185-.132L7.7,2.72l-.079-.079L5.927,1.768l-.079-.053L4.049,1,3.863.921.688.1.053.021Q0-.032,0,.048L.026.1.238.206.476.286.609.365.794.418,5.16,2.4l.159.106.106.053.079.053q.873.476,1.455.847l.106.053.079.079,1.323.926.079.079.344.265,1.35,1.35.529.635a9.971,9.971,0,0,1,.82,1.3l.106.185.026.079.053.079.159.318.053.159.079.159.053.159.026.053.053.079.106.318v.026l.053.106.026.159.079.212.026.053.238.979.026.212.053.185v.079l.026.079.079.476.053.026.026-.053.053-.476-.053-1.614-.026-.053V10.05l-.053-.318V9.653L12.887,9.6V9.574l-.079-.344-.026-.079V9.071l-.318-1.006-.053-.079L12.331,7.8a9.878,9.878,0,0,0-.794-1.482l-.053-.106L11.4,6.134l-.529-.741-.476-.5A9.9,9.9,0,0,0,9.023,3.62l-.37-.265a2.047,2.047,0,0,0-.37-.265Z" fill="#380a00"/>
              </g>
            </g>
            <g id="Group_103025" data-name="Group 103025" transform="translate(22.603 0.714)">
              <g id="Group_103024" data-name="Group 103024" transform="translate(0 0)">
                <path id="Path_75001" data-name="Path 75001" d="M21.3,9.711q.053-.026,0-.079L20.264,8.415l-3.44-3.308L13.966,3.043q-.847-.529-2.011-1.111-.979-.476-2.09-.9L9.177.794,9.045.767l-.4-.132L8.595.609H8.515L7.722.4A14.66,14.66,0,0,0,5.657.079L5.419.053H5.287L5.234.026H4.7L4.573,0,4.467.026,2.958.079,1.318.344,1.053.423A1.759,1.759,0,0,0,.63.529L.312.609.048.714q-.079,0-.026.053,0,.079.053.026L1.953.662,2.112.635,3.99.688l.423.053h.132l.106.026L5.1.82h.106L5.552.9q1.032.185,1.932.423l.132.026.053.026h.079l.556.185.053.026.132.026.238.106.132.026,2.011.82L11,2.646l1.72.873.106.079.132.053,3.519,2.3,4.737,3.758Q21.27,9.764,21.3,9.711Z" fill="#812511"/>
              </g>
            </g>
            <g id="Group_103027" data-name="Group 103027" transform="translate(15.03 5.345)">
              <g id="Group_103026" data-name="Group 103026" transform="translate(0 0)">
                <path id="Path_75002" data-name="Path 75002" d="M9.341,3.652l.106.053,2.038,1.27.132.106,3.969,2.858.159.132h.079V7.991l-.291-.344-.079-.132L13.178,5.187l-.423-.344-.132-.132-2.3-1.667q-.238-.159-1.455-.873L6.536,1.111l-.212-.053L5.954.9,4.816.556,4.631.529,4.26.423,2.276.079H2.143L1.72.026.238,0,.053.026A.047.047,0,0,0,0,.079L.026.106l.45.106L.635.265l1.27.291.132.053,2.329.714.529.212.185.053L7.806,2.831l.106.026.079.053,1.085.609.185.079Z" transform="translate(0)" fill="#812511"/>
              </g>
            </g>
            <g id="Group_103029" data-name="Group 103029" transform="translate(14.845 4.975)">
              <g id="Group_103028" data-name="Group 103028" transform="translate(0 0)">
                <path id="Path_75003" data-name="Path 75003" d="M8.256.635Q8.177.609,7.33.4L6.88.291,5.134.053A2.4,2.4,0,0,0,4.71.026L4.631,0,.265.185.026.238,0,.291.053.318,1.35.45h.265l4.631.688,2.143.609,1.244.5a13.215,13.215,0,0,1,1.588.82l1.429.979q.609.5,1.217,1.111l.265.265.106.159.132.132L15.215,6.8l.053.053.026.079.265.344.265.45.079.106.582,1.032q0,.079.053.026.079,0,.026-.053l-.344-1.164-.4-.873-.079-.238-.053-.053L14.475,4.6a12.632,12.632,0,0,0-1.217-1.27l-.529-.45-.185-.132-.079-.079-.9-.609L11.4,1.985l-.053-.053-.423-.238L8.706.767,8.6.741,8.468.688Z" fill="#812511"/>
              </g>
            </g>
          </g>
          <g id="Group_103035" data-name="Group 103035" transform="translate(0.593 56.979)">
            <g id="Group_103032" data-name="Group 103032" transform="matrix(0.955, -0.296, 0.296, 0.955, 0, 5.44)">
              <g id="Group_103031" data-name="Group 103031" transform="translate(0 0)">
                <path id="Path_75004" data-name="Path 75004" d="M14.9,3.624A7.186,7.186,0,0,0,8.531.005,7.461,7.461,0,0,0,1.688,3.624Q-.8,7.38.377,13.456a22.481,22.481,0,0,0,3.828,9.465,11.142,11.142,0,0,0,7.237,4.221q4.633.812,6.083-3.88a22.021,22.021,0,0,0,.42-10.462A27.935,27.935,0,0,0,14.9,3.624Z" fill="#e2ad98"/>
              </g>
            </g>
            <g id="Group_103034" data-name="Group 103034" transform="translate(6.778 7.714)">
              <g id="Group_103033" data-name="Group 103033" transform="translate(0 0)">
                <path id="Path_75005" data-name="Path 75005" d="M7.027,2.674l.813,1,1.337,2.6,1.7,4.248q0,.079.052.026.079,0,.026-.052l-.21-1.547-.682-2.6L9.125,3.959,8.417,2.727a6,6,0,0,0-1.39-1.442A5.83,5.83,0,0,0,5.244.341l-.1-.026L5.008.262,4.772.21,4.72.184H4.667L4.09.052H3.959L3.907.026H3.828L3.592,0h-.5L2.6.079,2.412.131,2.36.157l-.1.026-.446.21L1.7.472,1.6.524,1.521.6a2.722,2.722,0,0,0-.6.655,4.122,4.122,0,0,0-.393.682L.446,2.1.21,2.91l-.026.157L.131,3.2,0,4.2V5.06a.046.046,0,0,0,.052.052l.026-.026.052-.236L.6,3.33.629,3.2l.052-.131.42-.839A2.564,2.564,0,0,1,1.495,1.7l.052-.052L1.6,1.573l.079-.052.052-.052.262-.21A1.862,1.862,0,0,1,2.622,1,2.378,2.378,0,0,1,3.33.944h.184L3.7,1h.1l.524.131.079.026h.052l.052.026.315.079.079.052.787.341.367.21.157.131.1.052.079.079.315.262A2.9,2.9,0,0,1,7.027,2.674Z" transform="translate(0)" fill="#c18770"/>
              </g>
            </g>
          </g>
          <g id="Group_103044" data-name="Group 103044" transform="translate(18.452 27.356)">
            <g id="Group_103037" data-name="Group 103037" transform="translate(0 0.466) rotate(-0.817)">
              <g id="Group_103036" data-name="Group 103036" transform="translate(0 0)">
                <path id="Path_75006" data-name="Path 75006" d="M28.527,5.708q-.124-.765-.269-1.488a3.767,3.767,0,0,0-1.406-2.4A8.185,8.185,0,0,0,19.783.209,31.424,31.424,0,0,0,3.99,8.189a11.73,11.73,0,0,0-3.7,6.718,18.318,18.318,0,0,0,.868,9.654q1.7,4.63,3.287,9.282a13.774,13.774,0,0,1,.434,7.566,6.144,6.144,0,0,1-4.858,4.9,11.3,11.3,0,0,0,5.065-.62A12.444,12.444,0,0,0,12.3,39.423a14.773,14.773,0,0,0,1.612-8.661,45.994,45.994,0,0,1-.041-9.736,22.735,22.735,0,0,1,3.245-9.571,13.652,13.652,0,0,1,4.2-4.4q3.928-2.563,7.214.868Z" fill="#540e00"/>
              </g>
            </g>
            <g id="Group_103039" data-name="Group 103039" transform="translate(0.122 0)">
              <g id="Group_103038" data-name="Group 103038" transform="translate(0 0)">
                <path id="Path_75007" data-name="Path 75007" d="M22.43.007q-.393-.021-1.158.021L18.42.42,17.035.772,16.89.792l-1.24.372-.021.021L10.75,3.521q-.806.434-2.336,1.385L6.181,6.5A20.239,20.239,0,0,0,4.135,8.317,12.094,12.094,0,0,0,3.2,9.33a10.43,10.43,0,0,0-.848,1.1q-.372.517-.744,1.158a9.166,9.166,0,0,0-.6,1.261l-.124.331-.041.083L.475,14.519.331,15.3v.083l-.021.165v-.062L.269,15.7l-.041.1-.041.207-.041.1-.021.207v.062L.1,16.442l-.021.1v.1l-.021.041v.062l-.041.207v.124l-.021.1.124,3.39.7,3.06,1.84,4.858-.021-.021,2.274,7.5.434,2.563q.062.662.062,1.3l-.041,1.282-.227,1.261-.434,1.22-.31.558-.806.992-1.034.765-.579.31a8.15,8.15,0,0,1-1.22.455q-.062,0-.021.041,0,.062.041.021l.165-.021.475-.145a4.124,4.124,0,0,0,.62-.227,6.412,6.412,0,0,0,1.178-.62l.517-.413a3.785,3.785,0,0,0,.475-.475l.227-.248.537-.848a4.59,4.59,0,0,0,.289-.62L5.5,42.49a9.815,9.815,0,0,0,.269-1.3l.1-1.344q0-.889-.041-1.344-.021-.393-.145-1.323l-.207-1.3-2.15-7.628-.021-.021L1.84,24.3l-.021-.1-.186-.579L.91,20.453l-.165-2.4q.062-.765.062-.786v-.145l.021-.062.021-.186v-.062l.021-.041.021-.1v-.083l.021-.062v-.041l.083-.372.041-.1.021-.1.062-.186v-.062l.021-.165.021-.083v-.083l.041-.145.021-.165.124-.558.434-1.3A11.384,11.384,0,0,1,2.336,12a13.029,13.029,0,0,1,.682-1.116q.413-.579.806-1.034l.889-.972q.827-.827,1.964-1.757l1.054-.806L11.1,4.183l4.8-2.4-.021.021.248-.1L20.2.668q.558-.083,1.116-.124a9.918,9.918,0,0,1,1.1-.062l1.116.083A7.18,7.18,0,0,1,24.6.792a5.125,5.125,0,0,1,.992.413l.475.269.207.165.062.041.145.145.165.124.041.062.1.083.124.165.145.145.165.227a8.782,8.782,0,0,1,.537.972,7.051,7.051,0,0,1,.351,1.034q.1.372.227,1.116a10.357,10.357,0,0,1,.1,1.116l.021.145.021.972q-.021.041.021.041l.041-.021.041-1.137a11.256,11.256,0,0,0-.062-1.158A7.66,7.66,0,0,0,28.343,4.6a9.042,9.042,0,0,0-.331-1.116l-.041-.124-.124-.269-.041-.062-.083-.207L27.6,2.632l-.021-.021V2.57L27.33,2.2l-.1-.1-.083-.124L26.9,1.7l-.041-.062-.1-.1-.124-.083-.041-.062L25.8.834A8.373,8.373,0,0,0,24.725.358,5.054,5.054,0,0,0,23.588.11Q23.2.048,22.43.007M14.182,8.4q-.517.413-.889.765-.786.744-1.3,1.3l-.744.868q-.537.682-.765,1.013l-.579.827-.041.041-.062.124L9.51,13.8l-.517,1.013a10.533,10.533,0,0,0-.827,3.122,13.83,13.83,0,0,0-.021,1.716l.021.062.021.372.021.1v.1l.041.227v.1l.145.765a17.114,17.114,0,0,0,1.034,3.39l1.054,2.191.021.021.041.062.413.848a12.517,12.517,0,0,1,.93,3.1,14.268,14.268,0,0,1,.124,1.55,12.652,12.652,0,0,1-.062,1.488l-.041.372v.124l-.021.041-.145.868-.041.165-.021.186-.434,1.55-.062.145-.041.145-.062.145-.041.145L10.5,39.182l-.062.1-.041.1L9.262,41.353l-.062.083a.169.169,0,0,0-.062.1l-.248.331q-.021.041,0,.062.041.041.062,0l1.013-1.261a12,12,0,0,0,.972-1.571l.7-1.447.041-.145.124-.289.7-2.543v-.062l.021-.021v-.1l.062-.372a15.076,15.076,0,0,0,.124-1.571V32.03l-.021-.1-.1-1.24-.021-.1V30.52l-.021-.041-.186-.951-.041-.1-.041-.207-.207-.62v-.062l-.806-1.861-.021-.062h-.021v-.021l-.021-.021-.1-.186-.91-1.943a19.181,19.181,0,0,1-1.013-3.225l-.145-.7v-.1L8.993,20.2v-.1L8.972,20l-.021-.207-.021-.1v-.1a12.03,12.03,0,0,1-.021-1.592,10.34,10.34,0,0,1,.682-2.936l1.385-2.563.1-.124.331-.517.1-.124.5-.7a.224.224,0,0,0,.083-.1l.165-.207q.682-.848,1.2-1.385l1.116-1.137q.041-.021,0-.062-.021-.021-.062,0l-.331.269M26.834,4.617,25.821,3.48l-.393-.331-.641-.434a4.737,4.737,0,0,0-.765-.413,5.618,5.618,0,0,0-.889-.31,6.409,6.409,0,0,0-.992-.207,9.522,9.522,0,0,0-2.171,0l-1.116.207-.289.083-.124.021-1.406.455-.269.124-.145.041-1.075.5q-.827.413-2.047,1.137l-3.328,2.46L8.352,8.814l-1.282,1.9-.5.93q-.062.062.021.062a.026.026,0,0,0,.041,0L9.075,8.731l.165-.145.145-.165,2.233-1.9L11.68,6.5V6.478H11.7l.021-.021.1-.083,1.137-.744,4.114-2.212,1.84-.641.124-.021q.31-.083,1.034-.227a8.781,8.781,0,0,1,2.005-.1,6.414,6.414,0,0,1,1.757.351,7.073,7.073,0,0,1,.744.331l.641.351a9.477,9.477,0,0,1,.951.7l.724.682.041.062q.041.041.062,0,.041-.021,0-.062Z" fill="#812511"/>
              </g>
            </g>
            <g id="Group_103041" data-name="Group 103041" transform="translate(2.189 4.286)">
              <g id="Group_103040" data-name="Group 103040" transform="translate(0 0)">
                <path id="Path_75008" data-name="Path 75008" d="M1.7,8.517q.062-.062-.021-.062H1.633l-.351.558-.021.041-.041.062-.062.124-.083.124-.434.93-.021.1-.207.558-.021.1-.145.5q-.165.972-.186,1.116l-.041.93L0,13.768v.165l.413,4.279L.6,19.1l.041.083.972,3.37,1.364,3.576a31.93,31.93,0,0,1,.992,3.2L4.631,32.5A23.936,23.936,0,0,1,4.8,35.516l-.062,1.53-.021.041v.124l-.021.041-.041.31-.165.6a2.691,2.691,0,0,1-.207.558l-.041.083-.021.062-.062.124-.083.124-.021.062-.041.062a8.508,8.508,0,0,1-.62.868,5.943,5.943,0,0,1-.682.662l-.641.517q-.145.1-.951.62l-.269.145-.083.062q-.062,0-.021.041,0,.062.041.021l.827-.372,1.282-.806.041-.021L3,40.933l.083-.083.1-.062.475-.434a5.52,5.52,0,0,0,.724-.889l.331-.517.269-.6.248-.827.021-.186.021-.041v-.041l.021-.083v-.1l.021-.083a11.8,11.8,0,0,0,.124-1.447,16.92,16.92,0,0,0-.083-3.122l-.248-1.737-.021-.041v-.062l-.331-1.447a30.732,30.732,0,0,0-.992-3.287L1.385,19.205l-.041-.186-.041-.1L1.1,18.068.537,14.223v-.145L.517,14v-.248L.5,13.6v-.889q.041-.579.124-1.075a5.568,5.568,0,0,1,.207-.93L.868,10.5l.041-.1.021-.1.124-.372L1.7,8.517m15.9-5.458-.165.124-.083.083-.6.5a6.253,6.253,0,0,0-.7.744,6.41,6.41,0,0,0-.662.868L13.437,8.827l-.145.31L11.8,13.665q-.124.455-.289,1.364L11,20.3l.31,3.576v.062l.021.021V24l.786,3.907.1.31q0,.062.041.021.062,0,.021-.041l-.455-4.279L11.8,23.9v-.1l-.021-.124L11.7,20.322l.6-5,.041-.165q.062-.434.269-1.3l.062-.331.062-.145.806-2.729,1.24-2.936,1.654-2.894,1.22-1.344a8.112,8.112,0,0,1,1.158-.827l.227-.124L19.1,2.5l.062-.041.455-.207.145-.041.165-.083q.062,0,.021-.041,0-.062-.041-.021l-.331.062-.868.31-1.116.62m6.574-2.5L23.919.413,23.795.372,23.671.31,23.133.124l-.6-.1h-.145L22.306,0,21.293.041l-.165.021-.475.1-.165.021-.165.062-.083.021H20.2l-.041.021-.475.145H19.66l-.041.021-.083.021L19.205.6,19.123.62,16.828,1.757l-1.22.848A17,17,0,0,0,13.4,4.589l-.455.475-.062.083-.827.992L11.99,6.2l-.021.041h-.021l-.021.041-.124.145-.041.083h-.021l-.021.021-.021.041-.1.165-.124.145-.744,1.282a13.231,13.231,0,0,0-.579,1.323,14.37,14.37,0,0,0-.662,2.625A16.875,16.875,0,0,0,9.3,14.533v.93l.021.124.041.848L9.7,18.9l.124.538q0,.062.041.021.062,0,.021-.041l-.124-2.874-.021-.124.021-.1v-.848l.021-.124v-.393l.021-.124.269-2.295.021-.062v-.083l.041-.145a15.175,15.175,0,0,1,.724-2.481l.558-1.24.93-1.447.021-.041h.021l.021-.021.041-.083.186-.207.041-.062,1.3-1.488A19.3,19.3,0,0,1,16.1,3.246l.558-.434,2.191-1.3.165-.062.289-.145h.041l.041-.021.062-.021.372-.165h.041l.041-.021L20.363.91h.021l.041-.021L21.087.7l.145-.021.145-.041.558-.062h.145l.145-.021h.145l.124.021a2.123,2.123,0,0,1,.517.062,1.865,1.865,0,0,1,.5.124L23.96.93a4.934,4.934,0,0,1,.744.5,4.417,4.417,0,0,1,.579.558l.434.558.5.848.062.145.062.083.041.083q0,.062.041.021.062,0,.021-.041L26.42,3.6l-.041-.1a.284.284,0,0,0-.062-.145l-.145-.393L25.9,2.419a6.5,6.5,0,0,0-.393-.6,2.847,2.847,0,0,0-.558-.662A3.309,3.309,0,0,0,24.167.558Z" fill="#380a00"/>
              </g>
            </g>
            <g id="Group_103043" data-name="Group 103043" transform="translate(16.964 3.47)">
              <g id="Group_103042" data-name="Group 103042" transform="translate(0 0)">
                <path id="Path_75009" data-name="Path 75009" d="M9.454,1.457l-.021-.041-.207-.145-.889-.5-.227-.1L8.028.651,7.759.527,6.085.072h-.1L5.506.01q-.5-.021-.992,0L3.521.134,3.273.2l-.889.31-.1.062L2.136.631,2.074.672,1.785.817a4.926,4.926,0,0,0-.641.455L1.1,1.292l-.041.041L1,1.375l-.724.7-.269.351q-.021.021.021.062H.069L.627,2.14,2.26,1.313l.1-.021.083-.041.1-.021.289-.1.1-.021.1-.041L3.687.92h.1l.765-.1H5.671l.1.021H6l.1.021L6.54.9l.1.021h.1l.186.041.207.021.475.1H7.7l1.716.393Q9.454,1.519,9.454,1.457Z" fill="#380a00"/>
              </g>
            </g>
          </g>
          <g id="Group_103059" data-name="Group 103059" transform="translate(47.305 15.527) rotate(1.74)">
            <g id="Group_103046" data-name="Group 103046" transform="translate(0.114 0)">
              <g id="Group_103045" data-name="Group 103045" transform="translate(0 0)">
                <path id="Path_75010" data-name="Path 75010" d="M20.31,2.419A18.453,18.453,0,0,0,11.793,0,11.722,11.722,0,0,0,4.331,3.1,11.8,11.8,0,0,0,.506,10a33.1,33.1,0,0,0-.248,9.9Q1,18.956,1.705,18A22.479,22.479,0,0,1,7.6,12.423a8.35,8.35,0,0,1,3.183-1.24q4.486.041,5.54,4.548A70.744,70.744,0,0,1,17.6,22.987q.474,3.813,4.341,6.7a17.055,17.055,0,0,1,5.767,8.785,29.084,29.084,0,0,1,1.633,9.178,37.477,37.477,0,0,1-.207,4.238,26.2,26.2,0,0,0,4.775-4.258,33.061,33.061,0,0,0,3.7-6.1,21.486,21.486,0,0,0,2.233-9.075,24.123,24.123,0,0,0-1.509-9.2,14.185,14.185,0,0,0-5.726-7.111,16.591,16.591,0,0,1-5.995-6.863A14.9,14.9,0,0,0,20.31,2.419Z" fill="#540e00"/>
              </g>
            </g>
            <g id="Group_103048" data-name="Group 103048" transform="translate(5.757 2.567)">
              <g id="Group_103047" data-name="Group 103047" transform="translate(0 0)">
                <path id="Path_75011" data-name="Path 75011" d="M11.9,8.058l-.041-.083L10.9,6.9l-.434-.372-.145-.1-.062-.062L10.181,6.3a7.06,7.06,0,0,0-1.24-.765l-.165-.083-.062-.041L8.63,5.37l-.165-.062-.041-.021L8.4,5.267H8.382L8.3,5.226l-.641-.248a8.4,8.4,0,0,0-1.323-.31,6.849,6.849,0,0,0-1.3,0l-.889.165-.207.062L3.9,4.916H3.855l-.124.041L3.669,5H3.628l-.021.021-.145.041L3.4,5.1l-.31.124-.227.124a8.22,8.22,0,0,0-.827.537L1.6,6.218,1.54,6.3l-.165.124-.124.145-.083.062-.723.786-.021.041-.083.083L.01,7.975q-.021.041,0,.062.041.041.062,0L.32,7.768l1.034-.951.083-.041.62-.475.186-.1a7.432,7.432,0,0,1,.827-.455,8,8,0,0,1,.951-.331,5.146,5.146,0,0,1,2.212-.1l.145.041.165.021.145.041.145.021,1.261.5h.021l1.054.6.62.455.062.041.848.827a6.383,6.383,0,0,1,1.385,2.357,6.3,6.3,0,0,1,.186.661l.186.868v.083l.021.083.062.7v.186l.641,5.664.041.145.021.165.62,2.212.041.062.041.124.269.6a5.579,5.579,0,0,0,.517.848l.083.083.062.1.413.455a6.052,6.052,0,0,0,.579.475l.372.248.227.1.062.041.124.062.1.021a.284.284,0,0,0,.145.062l.1.041.083.021q.041.041.041-.021.041-.041-.021-.041l-.083-.041-.083-.062L16.8,24.1a5.729,5.729,0,0,1-.806-.558l-.475-.475a5.954,5.954,0,0,1-.475-.661,5.759,5.759,0,0,1-.413-.827l-.289-.765V20.75l-.124-.393-.455-2.336-.517-6.594-.372-1.488-.145-.351-.021-.1-.475-.951-.062-.083-.041-.083-.1-.165L11.9,8.058m1.9-6.822L12.971.823,12.909.781,11.421.161,10.945.017Q10.9-.025,10.9.037q-.041.041.021.041l3.266,2.067.062.062.537.434A15.836,15.836,0,0,1,15.969,3.82l.269.31.062.1.083.083.186.248.062.1.145.186.021.041.041.041L17.974,6.8l.31.62.083.207.062.1.723,2.026v.062l.041.124.124.269a4.569,4.569,0,0,0,.434.827,5.188,5.188,0,0,0,.537.7,5.555,5.555,0,0,0,.579.579,4.305,4.305,0,0,0,.579.5l.124.124a.407.407,0,0,1,.145.1l.289.186.062.062,1.9,1.075.227.083q.041.041.041-.021a.026.026,0,0,0,0-.041h-.021l-1.158-.868-.1-.062L21.777,12.44l-.992-1.116q-.351-.517-.434-.661l-.041-.083-.062-.083-.124-.269-.021-.062L20,9.939l-.062-.207L19.9,9.649V9.608l-.021-.041V9.546L19.483,8.2A14.938,14.938,0,0,0,18.7,6.425a14.037,14.037,0,0,0-1.013-1.654l-.145-.186-.062-.1-.041-.041-.021-.062-.145-.186-.083-.083-.062-.1-.62-.7a11.3,11.3,0,0,0-1.323-1.158,13.449,13.449,0,0,0-1.3-.848L13.8,1.236M34.035,26.6l-.021.041-.186,2.543v.1l-.021.083-.186,1.612v.1l-.765,3.845-.041.124L32.8,35.2l-1.178,3.452-.186.413q-.5,1.1-1.054,2.108-.7,1.24-1.2,1.943l-.083.124-.041.041-.848,1.158-.062.1-3.163,3.39-.1.124-.124.083-1.034.93q-.021.041,0,.062h.062l2.543-1.881.083-.083.083-.062,2.067-2.046.083-.1a.224.224,0,0,0,.083-.1l.351-.413.1-.1,2.17-3.225.021-.062,1.054-2.233,1.323-4.424.413-3.245v-.124l.021-.124-.1-4.279Z" fill="#812511"/>
              </g>
            </g>
            <g id="Group_103050" data-name="Group 103050" transform="translate(0 0.041)">
              <g id="Group_103049" data-name="Group 103049" transform="translate(0 0)">
                <path id="Path_75012" data-name="Path 75012" d="M13.478.041,13.436.021,12.527,0,10.088.248l-.91.186Q8.5.62,8.207.723,8.165.744,7.69.91L7.3,1.054l-.124.062a7.231,7.231,0,0,0-1.034.517q-.227.124-1.034.641a10.4,10.4,0,0,0-.972.806,9.853,9.853,0,0,0-.889.93l-.5.641-.062.062L2.646,4.8l-.186.269A8.12,8.12,0,0,0,1.8,6.2,13.535,13.535,0,0,0,.806,8.62L.248,11.059,0,13.933l.31,5.5.062.31q0,.062.041.021.062,0,.021-.041l.207-6.284L.992,11.2q.1-.579.248-1.178l.331-1.158q.207-.62.434-1.158a12.322,12.322,0,0,1,.517-1.137,11.376,11.376,0,0,1,.62-1.054l.434-.641,1.1-1.24,1.344-1.1q.165-.1.475-.31l.124-.083.124-.062.1-.083,1.075-.537L9.757.786,9.964.744l.1-.041.91-.227L13.457.083Q13.519.083,13.478.041Z" fill="#812511"/>
              </g>
            </g>
            <g id="Group_103052" data-name="Group 103052" transform="translate(0.521 8.785)">
              <g id="Group_103051" data-name="Group 103051" transform="translate(0 0)">
                <path id="Path_75013" data-name="Path 75013" d="M9.753.062,8.864.269a6.8,6.8,0,0,0-.889.372L7.6.827l-1.075.7-.93.786L4.192,3.8l-.062.1L3.138,5.189q-.31.413-.951,1.426L.1,10.584l-.083.227q-.041.041.021.041.041.041.041-.021l.289-.413.083-.145.434-.641.083-.1.145-.248L3.737,5.623,6.156,2.935,7.768,1.654l.186-.1L8,1.509l.331-.186L9.112.972q.227-.083.765-.227a6.511,6.511,0,0,1,.786-.1h.455l.1.021H11.3l.083.021.351.041.5.124.992.413,1.261.806.041.041.062.041.165.145q.041.041.062,0,.041-.021,0-.062l-.6-.641a7.79,7.79,0,0,0-.806-.641,4.582,4.582,0,0,0-1.178-.62L11.489.1a6.086,6.086,0,0,0-.848-.1L9.753.062M19.778,9.1l-.021.124.021,3.948.1.806.124.517.041.1.021.1.041.1a5.2,5.2,0,0,0,.372.786A6.334,6.334,0,0,0,21,16.31a5.312,5.312,0,0,0,.641.62l.165.124.083.083.351.248.083.041.558.331.91.413.186.062.5.227a4.861,4.861,0,0,1,.6.31l.558.331.475.372.7.786.124.207.227.537.145.517v.041l.021.041v.062l.021.062.041.021.041-.083v-.455l-.021-.083v-.083l-.1-.5a3.472,3.472,0,0,0-.186-.455,3.171,3.171,0,0,0-.269-.5l-.165-.248-.207-.227a3.165,3.165,0,0,0-.5-.475l-1.2-.827-1.447-.7-.083-.062-.165-.083L23,16.909l-.083-.041-.227-.165-.083-.041-.083-.062-.062-.062-.31-.227a6.04,6.04,0,0,1-.517-.537l-.455-.6-.331-.661-.021-.083-.041-.083-.186-.7-.579-6.015a.037.037,0,0,0-.041-.041l-.021.021-.186,1.364V9.1M34.662,20.465l-.537-.661a5.528,5.528,0,0,0-1.013-.93l-.889-.579-1.137-.537L31,17.736l-.083-.041-1.592-.62-4.8-2.4-.124-.083-.083-.021-.186-.124-.041-.021-.021-.021L24,14.367l-.248-.165-.041-.041-.186-.124a6.493,6.493,0,0,1-.827-.806l-.041-.041-.517-.744-.021-.062-.041-.041q-.207-.393-.434-.951A9.877,9.877,0,0,1,21.2,9.612L21.06,6.925q.041-.041-.021-.041L21,6.9l-.165,1.282a12.96,12.96,0,0,0,0,1.468l.186,1.385.041.124.021.145.083.248a6.723,6.723,0,0,0,.393,1.054,8.046,8.046,0,0,0,.641,1.013l.289.372.124.124.041.062.248.227.062.041.248.227.062.041.062.062.351.248.021.021,3.1,1.757.165.062.145.083,3.2,1.406.331.1.021.021.041.021.083.021.827.372.062.021.972.579a7.658,7.658,0,0,1,.93.806l.31.331.165.248.083.083v.021l.186.269.062.124.083.124.351.765a6.911,6.911,0,0,1,.269,1.054,4.148,4.148,0,0,1,0,1.013v.124l-.021.124v.062l-.021.062-.723,2.832-.062.124-.041.145-.351.91q-.041.041.021.041.041.041.041-.021l.413-.744,1.1-2.832.021-.124.041-.124.021-.1.021-.062V24.7l.021-.041.041-.269a3.8,3.8,0,0,0,.041-1.116v-.165l-.021-.145V22.9l-.021-.083-.021-.145-.021-.041v-.041l-.021-.083-.021-.145-.041-.145-.062-.145-.062-.227-.041-.083-.041-.145-.289-.6-.165-.269-.062-.145h-.021v-.021l-.021-.021-.021-.041Z" transform="translate(0)" fill="#380a00"/>
              </g>
            </g>
            <g id="Group_103054" data-name="Group 103054" transform="translate(0.438 7.276)">
              <g id="Group_103053" data-name="Group 103053" transform="translate(0 0)">
                <path id="Path_75014" data-name="Path 75014" d="M7,0,6.879.1,6.218.558l-1.3,1.158-.083.1-.62.641L2.828,4.279,1.567,6.553,1.5,6.718l-.083.145L.451,9.716l-.062.248L.037,12.031l-.021.475q-.041.041.021.041l.041-.021,1.3-3.6L3.593,4.568,5.577,1.778,7.065.062V0Z" transform="translate(0 0)" fill="#380a00"/>
              </g>
            </g>
            <g id="Group_103056" data-name="Group 103056" transform="translate(11.473 10.505)">
              <g id="Group_103055" data-name="Group 103055" transform="translate(0 0)">
                <path id="Path_75015" data-name="Path 75015" d="M6.2,7.334,5.829,5.246a4.714,4.714,0,0,0-.248-.827L4.858,2.911A7.277,7.277,0,0,0,4.4,2.228l-.1-.165-.041-.041L4.238,1.98l-.062-.062-.062-.083-.744-.7L2.729.7,2.687.678,2.667.657,2.584.616,2.563.6,2.439.533,2.377.513,2.233.43,1.7.244A4.6,4.6,0,0,0,.806.079L.248.017H.041Q0-.025,0,.037L.021.079.765.306A1.965,1.965,0,0,1,1.137.43L1.571.6a3.2,3.2,0,0,1,.475.248l.227.145.021.021h.021l.021.021.062.041.021.021.041.021.041.041.475.413a5.4,5.4,0,0,1,.455.475l.1.145.062.062.041.083.062.062.806,1.468.021.1.165.351.248.744.517,2.729V7.83l.021.062.6,3.762L6.1,11.7v.041l.289,1.426.041.124v.083h.021v.062a5.526,5.526,0,0,0,.289.848l.31.661.041.041q0,.062.041.021.062,0,.021-.041V14.9l-.062-.145-.269-1.261v-.165H6.8V13.1l-.124-1.364-.021-.083v-.083l-.165-1.8V9.587l-.227-1.84V7.706l-.021-.062-.021-.1Z" transform="translate(0 0)" fill="#380a00"/>
              </g>
            </g>
            <g id="Group_103058" data-name="Group 103058" transform="translate(22.387 29.76)">
              <g id="Group_103057" data-name="Group 103057" transform="translate(0 0)">
                <path id="Path_75016" data-name="Path 75016" d="M0,.028V.069L1.178,1.227a.887.887,0,0,1,.165.207l.207.186.579.7.062.062.041.062.537.661q.765,1.1.827,1.22l.992,1.736.744,1.674,1.158,3.928.661,4.093.041.021.021-.041.062-1.178.021-.1L7.235,12.6l-.062-.5v-.186l-.1-.723-.62-2.729q-.227-.723-.6-1.612-.372-.827-.744-1.53L4.672,4.6,4.63,4.513l-.186-.248-.1-.186-.124-.165q-.289-.413-.951-1.2L1.633,1.123A.887.887,0,0,1,1.426.958L.062.007Q.041-.014,0,.028Z" transform="translate(0)" fill="#380a00"/>
              </g>
            </g>
          </g>
          <g id="Group_103062" data-name="Group 103062" transform="translate(34.495 83.034)">
            <g id="Group_103061" data-name="Group 103061" transform="translate(0 0)">
              <g id="Group_103060" data-name="Group 103060">
                <path id="Path_75017" data-name="Path 75017" d="M3.159.013.013,3.16a.033.033,0,0,0,0,.052L3.159,6.358a.033.033,0,0,0,.052,0L6.358,3.212a.033.033,0,0,0,0-.052L3.212.013a.033.033,0,0,0-.052,0M6.253,3.186,3.186,6.253l.026.026H3.159l.026-.026L.118,3.186l-.026.026V3.16l.026.026L3.186.118,6.253,3.186m-3.12-.052H2.4l-.052.052.052.052h.734v.734l.052.052.052-.052V3.238h.734l.052-.052-.052-.052H3.238V2.4l-.052-.052L3.133,2.4Z" fill="rgba(0,0,0,0)"/>
              </g>
            </g>
          </g>
        </g>
        <g id="Group_103083" data-name="Group 103083" transform="translate(-223.702 -683.276) rotate(-79.623)">
          <g id="Group_103065" data-name="Group 103065" transform="translate(0.367 58.401)">
            <g id="Group_103064" data-name="Group 103064" transform="translate(0 0)">
              <path id="Path_75018" data-name="Path 75018" d="M0,27.838l19.45,4.771L25.426,6.317,8.021,0Z" transform="translate(0 0)" fill="#e2ad98"/>
            </g>
          </g>
          <g id="Group_103067" data-name="Group 103067" transform="translate(0.21 78.218)">
            <g id="Group_103066" data-name="Group 103066" transform="translate(0 0)">
              <path id="Path_75019" data-name="Path 75019" d="M19.974,9.987A9.646,9.646,0,0,0,17.038,2.91,9.6,9.6,0,0,0,9.987,0,9.69,9.69,0,0,0,2.91,2.91,9.689,9.689,0,0,0,0,9.987a9.6,9.6,0,0,0,2.91,7.051,9.646,9.646,0,0,0,7.077,2.936,9.56,9.56,0,0,0,7.051-2.936A9.559,9.559,0,0,0,19.974,9.987Z" transform="translate(0 0)" fill="#e2ad98"/>
            </g>
          </g>
          <g id="Group_103070" data-name="Group 103070" transform="translate(6.789 54.994)">
            <g id="Group_103069" data-name="Group 103069" transform="translate(0 0)">
              <g id="Group_103068" data-name="Group 103068" transform="translate(0 0)">
                <path id="Path_75020" data-name="Path 75020" d="M1.887,0,0,9.174A37.1,37.1,0,0,0,17.929,14.26l1.809-6.212Z" fill="#c18770"/>
              </g>
            </g>
          </g>
          <g id="Group_103072" data-name="Group 103072" transform="translate(0.052 6.868)">
            <g id="Group_103071" data-name="Group 103071" transform="translate(0 0)">
              <path id="Path_75021" data-name="Path 75021" d="M48.388,14.024,23.487,0A293.291,293.291,0,0,0,0,50.774a62.087,62.087,0,0,0,36.619,8.938A106.179,106.179,0,0,1,48.388,14.024Z" transform="translate(0 0)" fill="#7a2230"/>
            </g>
          </g>
          <g id="Group_103074" data-name="Group 103074" transform="translate(21.573 0)">
            <g id="Group_103073" data-name="Group 103073" transform="translate(0 0)">
              <path id="Path_75022" data-name="Path 75022" d="M28.467,14.26A13.8,13.8,0,0,0,24.3,4.168,13.715,13.715,0,0,0,14.233,0,13.8,13.8,0,0,0,4.142,4.168,13.846,13.846,0,0,0,0,14.26,13.672,13.672,0,0,0,4.142,24.3a13.758,13.758,0,0,0,10.092,4.194A13.672,13.672,0,0,0,24.3,24.3,13.628,13.628,0,0,0,28.467,14.26Z" transform="translate(0)" fill="#7a2230"/>
            </g>
          </g>
          <g id="Group_103077" data-name="Group 103077" transform="translate(0 17.777)">
            <g id="Group_103076" data-name="Group 103076" transform="translate(0 0)">
              <g id="Group_103075" data-name="Group 103075">
                <path id="Path_75023" data-name="Path 75023" d="M17.51.021q-.052-.052-.052.026-.97,1.73-1.284,2.359L14.181,6.26,6.055,24.189,0,39.812l2.123,1.52.524.288.157.1L4.849,42.8l.183.079.157.1,6.422,2.412q.052.052.052-.026.052-.052-.026-.052L3.565,40.231,3.434,40.1l-.446-.315-.131-.131-.55-.446,9.148-21.442L16.776,2.642q.288-.839.76-2.569Q17.589.021,17.51.021Z" fill="#4b0f18"/>
              </g>
            </g>
          </g>
          <g id="Group_103079" data-name="Group 103079" transform="translate(40.766 17.541)">
            <g id="Group_103078" data-name="Group 103078" transform="translate(0 0)">
              <path id="Path_75024" data-name="Path 75024" d="M8.855.021Q8.8-.031,8.8.047L4.32,7.99l-.052.157-1.049,2.28L1.568,14.988.44,19.523.021,22.144q-.052.052.026.052L.1,22.171,3.14,13.442,8.068,2.59,8.881.073Q8.933.021,8.855.021Z" fill="#4b0f18"/>
            </g>
          </g>
          <g id="Group_103082" data-name="Group 103082" transform="translate(32.622 11.049)">
            <g id="Group_103081" data-name="Group 103081" transform="translate(0 0)">
              <g id="Group_103080" data-name="Group 103080">
                <path id="Path_75025" data-name="Path 75025" d="M6.357,3.159,3.211.013a.033.033,0,0,0-.052,0L.013,3.159a.033.033,0,0,0,0,.052L3.159,6.357a.033.033,0,0,0,.052,0L6.357,3.211a.033.033,0,0,0,0-.052M3.185,6.252l.026.026H3.159l.026-.026L.118,3.185l-.026.026V3.159l.026.026L3.185.118,6.252,3.185,3.185,6.252M3.237,2.4l-.052-.052L3.132,2.4v.734H2.4l-.052.052.052.052h.734v.734l.052.052.052-.052V3.237h.734l.052-.052-.052-.052H3.237Z" fill="rgba(0,0,0,0)"/>
              </g>
            </g>
          </g>
        </g>
        <g id="Group_103091" data-name="Group 103091" transform="translate(-110.11 -678.037) rotate(170.776)">
          <g id="Group_103085" data-name="Group 103085" transform="translate(0 0.275)">
            <g id="Group_103084" data-name="Group 103084" transform="translate(0 0)">
              <path id="Path_75026" data-name="Path 75026" d="M0,64.936,9.044,68.79A122.686,122.686,0,0,1,22.309,42.758q9.044-14.025,11.64-24.617a52.608,52.608,0,0,0,.708-13.5L15.179,0A196.914,196.914,0,0,0,9.228,21.654Z" transform="translate(0 0)" fill="#e2ad98"/>
            </g>
          </g>
          <g id="Group_103087" data-name="Group 103087" transform="translate(1.526 8.329)">
            <g id="Group_103086" data-name="Group 103086" transform="translate(0 0)">
              <path id="Path_75027" data-name="Path 75027" d="M11.058.047,7.938,9.9,4.556,28.019.545,47.078v.052l-.026.079-.5,2.543q-.052.052.026.052.052.052.052-.026l.813-2.333.079-.184v-.079l1.285-4.168L6.732,25.136q.367-2.281.393-2.386l1-6.895L11.136.073q.052-.052-.026-.052Q11.058-.031,11.058.047Z" fill="#c18770"/>
            </g>
          </g>
          <g id="Group_103090" data-name="Group 103090" transform="translate(21.641 0)">
            <g id="Group_103089" data-name="Group 103089" transform="translate(0 0)">
              <g id="Group_103088" data-name="Group 103088">
                <path id="Path_75028" data-name="Path 75028" d="M3.159.013.013,3.159a.033.033,0,0,0,0,.052L3.159,6.357a.033.033,0,0,0,.052,0L6.357,3.211a.033.033,0,0,0,0-.052L3.211.013a.033.033,0,0,0-.052,0M6.252,3.185,3.185,6.252l.026.026H3.159l.026-.026L.118,3.185l-.026.026V3.159l.026.026L3.185.118,6.252,3.185m-3.12-.052H2.4l-.052.052.052.052h.734v.734l.052.052.052-.052V3.238h.734l.052-.052-.052-.052H3.238V2.4l-.052-.052L3.133,2.4Z" fill="rgba(0,0,0,0)"/>
              </g>
            </g>
          </g>
        </g>
        <g id="Group_103103" data-name="Group 103103" transform="translate(-37.696 -764.893) rotate(113.119)">
          <g id="Group_103093" data-name="Group 103093" transform="translate(30.297 74.335)">
            <g id="Group_103092" data-name="Group 103092" transform="translate(0 0)">
              <path id="Path_75029" data-name="Path 75029" d="M.5,7.139a4.144,4.144,0,0,1,2.959-.357Q2.257,4.417,3.031.246A2.876,2.876,0,0,0,.577.306,11.1,11.1,0,0,0,.5,7.139Z" fill="rgba(34,129,224,0.8)"/>
            </g>
          </g>
          <g id="Group_103095" data-name="Group 103095" transform="translate(0 0)">
            <g id="Group_103094" data-name="Group 103094">
              <path id="Path_75030" data-name="Path 75030" d="M60.756,36.26a28.912,28.912,0,0,0,.781-9.926,31.194,31.194,0,0,0-3.324-12.1A24.408,24.408,0,0,0,48.532,4.073Q41.149-.158,30.256.006q-10.6.141-17.748,4.729A25.371,25.371,0,0,0,3.222,15.449,33.92,33.92,0,0,0,.1,27.829a29.56,29.56,0,0,0,.736,9.74A69.836,69.836,0,0,0,6.218,51.2,71.2,71.2,0,0,0,14.025,63.28a43.348,43.348,0,0,0,9,8.647Q27.855,75.236,32,75.258a14.113,14.113,0,0,0,8.231-3.019,35.873,35.873,0,0,0,7.941-8.313,73.055,73.055,0,0,0,7.049-12.4A105.18,105.18,0,0,0,60.756,36.26Z" fill="url(#radial-gradient)"/>
            </g>
          </g>
          <g id="Group_103097" data-name="Group 103097" transform="translate(6.813 10.72)">
            <g id="Group_103096" data-name="Group 103096" transform="translate(0 0)">
              <path id="Path_75031" data-name="Path 75031" d="M.468,22.737l7.391,1.955A53.494,53.494,0,0,1,18.766,4.164Q11.517.216,6.58,0-1.755,11.056.468,22.737Z" fill="url(#radial-gradient-2)"/>
            </g>
          </g>
          <g id="Group_103099" data-name="Group 103099" transform="translate(33.783 38.342)">
            <g id="Group_103098" data-name="Group 103098" transform="translate(0 0)">
              <path id="Path_75032" data-name="Path 75032" d="M6.087,0A90.919,90.919,0,0,1,4.251,11.525,35.7,35.7,0,0,1,.407,21.718a2.25,2.25,0,0,0-.238,2.126A3.051,3.051,0,0,0,1.7,25.309a5.559,5.559,0,0,0,2.394.565,4.282,4.282,0,0,0,2.35-.558,24.109,24.109,0,0,0,9.064-9.547A35.92,35.92,0,0,0,19.3,1.7Z" transform="translate(0 0)" fill="url(#radial-gradient-3)"/>
            </g>
          </g>
          <g id="Group_103102" data-name="Group 103102" transform="translate(29.888 36.688)">
            <g id="Group_103101" data-name="Group 103101" transform="translate(0 0)">
              <g id="Group_103100" data-name="Group 103100">
                <path id="Path_75033" data-name="Path 75033" d="M1.8.9.911,0A.009.009,0,0,0,.9,0L0,.9A.009.009,0,0,0,0,.911L.9,1.8a.009.009,0,0,0,.015,0L1.8.911A.009.009,0,0,0,1.8.9m-.9.877.007.007H.9L.9,1.773.033.9.026.911V.9L.033.9.9.033l.87.87-.87.87M.918.68.9.665.889.68V.889H.68L.665.9.68.918H.889v.208L.9,1.141l.015-.015V.918h.208L1.141.9,1.126.889H.918Z" fill="rgba(0,0,0,0)"/>
              </g>
            </g>
          </g>
        </g>
        <g id="Group_103113" data-name="Group 103113" transform="translate(-119.021 -733.927) rotate(-161.034)">
          <g id="Group_103105" data-name="Group 103105" transform="translate(0.203 0.231)">
            <g id="Group_103104" data-name="Group 103104" transform="translate(0 0)">
              <path id="Path_75034" data-name="Path 75034" d="M4.8,11.9q-.052-.367-.76-3.487.079,1.39.052,5.112-.052,3.7-4.09,9.543a1.653,1.653,0,0,0,.918-.577,6.444,6.444,0,0,0,.734-.918q.341-.551.734-1.258.6-1.075.97-1.783.446-.865.708-1.468.131-.341.21-.6l.288-.839A9.145,9.145,0,0,0,4.8,11.9M7.1,15.1a2.841,2.841,0,0,0,1.049-1.022,5.315,5.315,0,0,0,.5-3.277A11.644,11.644,0,0,1,8.1,13.03,3.737,3.737,0,0,1,6.9,14.865l.21.236M16.281.577Q16.248.461,16.2.341A3.439,3.439,0,0,0,16.1,0l.5,3.461q.131,2.045.288,4.3a5.2,5.2,0,0,1-.655,3.33,3.482,3.482,0,0,1-1.7,1.363,3.91,3.91,0,0,0-.052-3.723,6.3,6.3,0,0,1-.446,3.539,6.891,6.891,0,0,1-1,1.363,7.755,7.755,0,0,0,2.2-1.049,5.227,5.227,0,0,0,1.861-2.071A6.941,6.941,0,0,0,17.618,6.5q-.026-.157-.052-.341A33.475,33.475,0,0,0,16.281.577Z" transform="translate(6.508 16.307)" fill="#c18770"/>
              <path id="Path_75035" data-name="Path 75035" d="M10.939.288Q10.861.315,11.07,0,5.014,1.94,2.445,4.719a2.7,2.7,0,0,0-.288.341A9.18,9.18,0,0,0,.111,9.805a16.45,16.45,0,0,0,.6,6.528,36.773,36.773,0,0,0,2.622,6.187q.1.184.21.393.577,1.127,1.1,2.1.288.524.551,1l.865,2.753a9.537,9.537,0,0,1,0,5.27q-1.285,3.7-.262,5.008a.759.759,0,0,0,.708.341q4.038-5.847,4.09-9.543.026-3.723-.052-5.112.708,3.12.76,3.487a9.145,9.145,0,0,1-.236,3.723,1.4,1.4,0,0,0,.708.131,3.015,3.015,0,0,0,1.625-.891,3.737,3.737,0,0,0,1.206-1.835,11.644,11.644,0,0,0,.551-2.229,5.315,5.315,0,0,1-.5,3.277,2.841,2.841,0,0,1-1.049,1.022,2.519,2.519,0,0,0,2.858.393,8.305,8.305,0,0,0,3.067-1.861,6.891,6.891,0,0,0,1-1.363,6.3,6.3,0,0,0,.446-3.539,3.91,3.91,0,0,1,.052,3.723,3.482,3.482,0,0,0,1.7-1.363,5.2,5.2,0,0,0,.655-3.33q-.157-2.255-.288-4.3l-.5-3.461a3.439,3.439,0,0,1,.1.341,28.81,28.81,0,0,0-1.258-3.539,24.269,24.269,0,0,0-1.416-2.438,61.407,61.407,0,0,0-4.221-5.558A34.842,34.842,0,0,0,11.935.839,3.208,3.208,0,0,0,10.939.288Z" fill="#e2ad98"/>
            </g>
          </g>
          <g id="Group_103107" data-name="Group 103107" transform="translate(0 0)">
            <g id="Group_103106" data-name="Group 103106">
              <path id="Path_75036" data-name="Path 75036" d="M6.266,28.179l-.157-.288-.026-.079-.052-.052-.079-.131Q5.9,27.576,5.9,27.6q-.079,0-.026.052l.079.236.026.052.21.577.026.157.052.157.184.891.21,2.438v.288l-.944,3.382L5.532,37.04l-.026.6.052.629.079.393v.052l.052.157.131.288a.816.816,0,0,0,.21.288l.288.21.21.052h.079l.052-.026h.052l.315-.131.262-.184.315-.315.446-.6v-.079H7.97l-.21.236-.21.184a2.662,2.662,0,0,1-.419.367l-.236.157-.236.079h-.1l-.1-.052a.4.4,0,0,1-.157-.131l-.131-.21-.131-.393v-.079L6,38.482l-.026-.262a3.172,3.172,0,0,1,0-.577l.052-.551,1.127-4.641-.052-.629v-.157l-.262-1.7-.577-1.783M2.281,5.5l.131-.157q.052-.026,0-.079-.026-.026-.079,0l-.21.262-.1.1-.21.262q-.367.5-.524.76L.918,7.31l-.052.157-.157.288L.262,9.145l-.026.21-.079.288v.1L.1,9.931v.1l-.026.1-.026.21v.21l-.026.1v.315L0,11.19v.891l.026.21v.236L.655,16.04l1.39,3.854,1.678,3.251q0,.079.052.026.079,0,.026-.052L1.39,16.748.787,14.2q-.157-.865-.236-1.73l-.026-.21v-.21L.5,11.845V10.692l.026-.1V10.4l.026-.21V10.01L.577,9.8.6,9.722v-.1l.052-.184.184-.891.655-1.757q.419-.708.472-.787l.079-.157a.284.284,0,0,0,.1-.131l.079-.1.052-.1M11.536.991l.079.079.577.446.079.1.1.079,2.307,2.307,4.772,5.715q.052.052.079,0V9.643L16.517,5.369,13.738,2.328q-.6-.551-.891-.76l-.21-.184L11.247.467l-.76-.341L10.2.047,10.041.021q-.052-.052-.052.026Q9.936.1,10.015.1l.131.079L10.225.2l.1.052.079.052.131.052L11.116.7l.315.236.1.052M13.659,31.43v.052l.079.079a.959.959,0,0,0,.184.157l.052.079.367.262.341.184.236.079.052.026.341.1a3.442,3.442,0,0,0,.708.026,2.4,2.4,0,0,0,.76-.131,3.824,3.824,0,0,0,.734-.262l1.258-.839.262-.236,1.232-1.39.026-.079.052-.052.1-.157q.026-.026-.026-.079h-.052l-.079.052-.655.6-.1.079-.184.184-.734.6-.157.079-.708.5-.052.026-.026.026-.079.026-.157.1-.157.079-.813.315-.157.026-.157.052-.787.026-.288-.052h-.052l-.079-.026-.052-.026h-.079l-.131-.052h-.026l-.026-.026h-.052l-.393-.184-.079-.052-.079-.026-.079-.052h-.026l-.026-.026-.157-.1Q13.712,31.377,13.659,31.43Z" fill="#c18770"/>
            </g>
          </g>
          <g id="Group_103109" data-name="Group 103109" transform="translate(11.09 30.643)">
            <g id="Group_103108" data-name="Group 103108" transform="translate(0 0)">
              <path id="Path_75037" data-name="Path 75037" d="M3.461,0H3.408L3.33.079H3.3L3.277.1l-1,.76L2.2.891l-.367.236-.629.236-.288.052h-.5l-.1-.026H.236L.184,1.363H.052Q0,1.311,0,1.39l.026.052.026.026L.236,1.6l.419.184H.682l.079.026H.918l.184.026.184-.026h.1l.288-.079a.851.851,0,0,0,.393-.157l.5-.315L2.7,1.127l.079-.052L2.832,1,3.067.76,3.146.629,3.3.419l.1-.184L3.435.21V.157L3.461.1,3.487.079Q3.513.052,3.461,0Z" transform="translate(0 0)" fill="#c18770"/>
            </g>
          </g>
          <g id="Group_103112" data-name="Group 103112" transform="translate(5.44 3.023)">
            <g id="Group_103111" data-name="Group 103111" transform="translate(0 0)">
              <g id="Group_103110" data-name="Group 103110">
                <path id="Path_75038" data-name="Path 75038" d="M6.358,3.159,3.212.013a.033.033,0,0,0-.052,0L.013,3.159a.033.033,0,0,0,0,.052L3.159,6.358a.033.033,0,0,0,.052,0L6.358,3.212a.033.033,0,0,0,0-.052M3.185,6.253l.026.026H3.159l.026-.026L.118,3.185l-.026.026V3.159l.026.026L3.185.118,6.253,3.185,3.185,6.253M3.238,2.4l-.052-.052L3.133,2.4v.734H2.4l-.052.052.052.052h.734v.734l.052.052.052-.052V3.238h.734l.052-.052-.052-.052H3.238Z" fill="rgba(0,0,0,0)"/>
              </g>
            </g>
          </g>
        </g>
        <g id="Group_103121" data-name="Group 103121" transform="matrix(0.806, 0.592, -0.592, 0.806, -80.192, -719.047)">
          <g id="Group_103115" data-name="Group 103115" transform="translate(0 0)">
            <g id="Group_103114" data-name="Group 103114">
              <path id="Path_75039" data-name="Path 75039" d="M0,3.853,9.042,0A122.659,122.659,0,0,0,22.3,26.027q9.042,14.022,11.637,24.611a52.6,52.6,0,0,1,.708,13.5L15.176,68.775a196.872,196.872,0,0,1-5.95-21.65Z" fill="#e2ad98"/>
            </g>
          </g>
          <g id="Group_103117" data-name="Group 103117" transform="translate(1.525 10.909)">
            <g id="Group_103116" data-name="Group 103116" transform="translate(0 0)">
              <path id="Path_75040" data-name="Path 75040" d="M11.056,49.768,7.936,39.913,4.555,21.8.545,2.747V2.694L.519,2.616.021.073Q-.031.021.047.021.1-.031.1.047L.912,2.38l.079.183v.079L2.275,6.809,6.731,24.685q.367,2.28.393,2.385l1,6.893,3.014,15.778q.052.052-.026.052Q11.056,49.846,11.056,49.768Z" fill="#c18770"/>
            </g>
          </g>
          <g id="Group_103120" data-name="Group 103120" transform="translate(21.637 62.681)">
            <g id="Group_103119" data-name="Group 103119" transform="translate(0 0)">
              <g id="Group_103118" data-name="Group 103118">
                <path id="Path_75041" data-name="Path 75041" d="M3.158,6.356.013,3.211a.033.033,0,0,1,0-.052L3.158.013a.033.033,0,0,1,.052,0L6.356,3.158a.033.033,0,0,1,0,.052L3.211,6.356a.033.033,0,0,1-.052,0M6.251,3.185,3.185.118,3.211.092H3.158l.026.026L.118,3.185.092,3.158v.052l.026-.026L3.185,6.251,6.251,3.185m-3.119.052H2.4l-.052-.052L2.4,3.132h.734V2.4l.052-.052.052.052v.734h.734l.052.052-.052.052H3.237v.734l-.052.052-.052-.052Z" fill="rgba(0,0,0,0)"/>
              </g>
            </g>
          </g>
        </g>
        <g id="Group_103129" data-name="Group 103129" transform="matrix(0.806, 0.592, -0.592, 0.806, -80.191, -719.047)">
          <g id="Group_103123" data-name="Group 103123" transform="translate(0 0)">
            <g id="Group_103122" data-name="Group 103122">
              <path id="Path_75042" data-name="Path 75042" d="M0,3.853,9.042,0A122.659,122.659,0,0,0,22.3,26.027q9.042,14.022,11.637,24.611a52.6,52.6,0,0,1,.708,13.5L15.176,68.775a196.872,196.872,0,0,1-5.95-21.65Z" fill="#e2ad98"/>
            </g>
          </g>
          <g id="Group_103125" data-name="Group 103125" transform="translate(1.525 10.909)">
            <g id="Group_103124" data-name="Group 103124" transform="translate(0 0)">
              <path id="Path_75043" data-name="Path 75043" d="M11.056,49.768,7.936,39.913,4.555,21.8.545,2.747V2.694L.519,2.616.021.073Q-.031.021.047.021.1-.031.1.047L.912,2.38l.079.183v.079L2.275,6.809,6.731,24.685q.367,2.28.393,2.385l1,6.893,3.014,15.778q.052.052-.026.052Q11.056,49.846,11.056,49.768Z" fill="#c18770"/>
            </g>
          </g>
          <g id="Group_103128" data-name="Group 103128" transform="translate(21.637 62.681)">
            <g id="Group_103127" data-name="Group 103127" transform="translate(0 0)">
              <g id="Group_103126" data-name="Group 103126">
                <path id="Path_75044" data-name="Path 75044" d="M3.158,6.356.013,3.211a.033.033,0,0,1,0-.052L3.158.013a.033.033,0,0,1,.052,0L6.356,3.158a.033.033,0,0,1,0,.052L3.211,6.356a.033.033,0,0,1-.052,0M6.251,3.185,3.185.118,3.211.092H3.158l.026.026L.118,3.185.092,3.158v.052l.026-.026L3.185,6.251,6.251,3.185m-3.119.052H2.4l-.052-.052L2.4,3.132h.734V2.4l.052-.052.052.052v.734h.734l.052.052-.052.052H3.237v.734l-.052.052-.052-.052Z" fill="rgba(0,0,0,0)"/>
              </g>
            </g>
          </g>
        </g>
      </g>
    </g>
  </g>
</svg>
