<svg xmlns="http://www.w3.org/2000/svg" xmlns:xlink="http://www.w3.org/1999/xlink" width="375" height="270" viewBox="0 0 375 270">
  <defs>
    <clipPath id="clip-path">
      <rect id="Rectangle_8645" data-name="Rectangle 8645" width="375" height="270" transform="translate(14284 -11928)" fill="#fff" stroke="#707070" stroke-width="1" opacity="0.59"/>
    </clipPath>
    <clipPath id="clip-path-2">
      <path id="Path_38970" data-name="Path 38970" d="M3259.964-6348.538c15.524-1.2,11.626-1.4,25.555-3.118s22.651-2.619,22.651-2.619a8.661,8.661,0,0,0,5.938,2.019,15.509,15.509,0,0,0,4.878-.992c2.172-.562,4.532-1.118,4.532-1.118a11.089,11.089,0,0,1,3.746,1.91,16.667,16.667,0,0,1,3.088,3.764,4.042,4.042,0,0,0,3.032-.506,5.58,5.58,0,0,0,1.546-3.014,9.98,9.98,0,0,1,1.611.684c.563.277,1.739.963,2.633,1.5,1.883,1.137,4.43-.082,4.43-.082a4.126,4.126,0,0,0,2.514,1.252,5.115,5.115,0,0,0,2.743-.515,3.753,3.753,0,0,0,.751,1.634,2.673,2.673,0,0,0,2.811.484c1.114-.428.945-.209,4.279-2.552s8.959-6.836,8.959-6.836a55.556,55.556,0,0,0,12.221.172c5.395-.725,7.656-2.867,7.656-2.867s7.292.442,15.606,1.024c1.222.085,4-.022,5.21,1.056,2.845,2.527,42.36,10.043,57.837-1.056s4.07-43.338,4.07-43.338l-118.651-69.76-87.562-15.831-32.9,78.294-4.729,61.694S3244.439-6347.337,3259.964-6348.538Z" transform="translate(11125.329 -5334.007)" fill="#fff"/>
    </clipPath>
  </defs>
  <g id="Mask_Group_16580" data-name="Mask Group 16580" transform="translate(-14284 11928)" clip-path="url(#clip-path)">
    <g id="Mask_Group_16579" data-name="Mask Group 16579" clip-path="url(#clip-path-2)">
      <g id="Group_103377" data-name="Group 103377">
        <g id="Group_40486" data-name="Group 40486" transform="translate(14444.181 -11749.086) rotate(61.105)">
          <g id="Group_40472" data-name="Group 40472" transform="translate(0.173 64.103)">
            <g id="Group_40471" data-name="Group 40471" transform="translate(0 0)">
              <path id="Path_37844" data-name="Path 37844" d="M0,30.555l21.348,5.236,6.56-28.858L8.8,0Z" fill="#e2ad98"/>
            </g>
          </g>
          <g id="Group_40474" data-name="Group 40474" transform="translate(0 85.854)">
            <g id="Group_40473" data-name="Group 40473" transform="translate(0 0)">
              <path id="Path_37845" data-name="Path 37845" d="M21.924,10.962A10.588,10.588,0,0,0,18.7,3.194,10.54,10.54,0,0,0,10.962,0,10.636,10.636,0,0,0,3.194,3.194,10.636,10.636,0,0,0,0,10.962,10.54,10.54,0,0,0,3.194,18.7a10.587,10.587,0,0,0,7.768,3.222A10.493,10.493,0,0,0,18.7,18.7,10.493,10.493,0,0,0,21.924,10.962Z" fill="#e2ad98"/>
            </g>
          </g>
          <g id="Group_40477" data-name="Group 40477" transform="translate(7.164 57.601)">
            <g id="Group_40476" data-name="Group 40476" transform="translate(0 0)">
              <g id="Group_40475" data-name="Group 40475">
                <path id="Path_37846" data-name="Path 37846" d="M2.877,0,0,12.918q10.387,5.372,19.881,5.035l2.7-10.933Z" fill="#c18770"/>
              </g>
            </g>
          </g>
          <g id="Group_40479" data-name="Group 40479" transform="translate(1.496 0)">
            <g id="Group_40478" data-name="Group 40478" transform="translate(0)">
              <path id="Path_37847" data-name="Path 37847" d="M48.624,4.575A15.054,15.054,0,0,0,37.576,0,15.149,15.149,0,0,0,26.5,4.575a15.386,15.386,0,0,0-4,6.761h-.029Q15.436,34.743,0,64.391q17.062,10.07,40.453,9.466A311.938,311.938,0,0,0,53.17,17.09h-.029q.058-.71.058-1.439A15.149,15.149,0,0,0,48.624,4.575Z" fill="#7a2230"/>
            </g>
          </g>
          <g id="Group_40482" data-name="Group 40482" transform="translate(18.73 33.749)">
            <g id="Group_40481" data-name="Group 40481" transform="translate(0 0)">
              <g id="Group_40480" data-name="Group 40480">
                <path id="Path_37848" data-name="Path 37848" d="M33.289.058Q33.346,0,33.26,0L33.2.029,28.858,11.911,21.2,37.719l-4.431.173L.058,37.719A.051.051,0,0,0,0,37.777l.029.029L5.553,38.87l11.135,1.381,6.617-.058,5.553-19.737Z" fill="#4b0f18"/>
              </g>
            </g>
          </g>
          <g id="Group_40485" data-name="Group 40485" transform="translate(35.576 12.127)">
            <g id="Group_40484" data-name="Group 40484" transform="translate(0 0)">
              <g id="Group_40483" data-name="Group 40483">
                <path id="Path_37849" data-name="Path 37849" d="M3.467.014.014,3.467a.036.036,0,0,0,0,.058L3.467,6.977a.036.036,0,0,0,.058,0L6.977,3.525a.036.036,0,0,0,0-.058L3.525.014a.036.036,0,0,0-.058,0M6.862,3.5,3.5,6.862l.029.029H3.467L3.5,6.862.129,3.5.1,3.525V3.467L.129,3.5,3.5.129,6.862,3.5M3.438,3.438H2.633L2.575,3.5l.058.058h.806v.806l.058.058.058-.058V3.553h.806L4.416,3.5l-.058-.058H3.553V2.633L3.5,2.575l-.058.058Z" fill="rgba(0,0,0,0)"/>
              </g>
            </g>
          </g>
        </g>
        <g id="Group_40521" data-name="Group 40521" transform="translate(14550.497 -11674.505) rotate(153.319)">
          <g id="Group_40497" data-name="Group 40497" transform="translate(30.232 64.957)">
            <g id="Group_40496" data-name="Group 40496" transform="translate(0 0)">
              <path id="Path_37853" data-name="Path 37853" d="M45.041,26.961a86.081,86.081,0,0,1-8.891,4.661,40.4,40.4,0,0,1-7.107,2.417q-3.237.709-6.388,1.208a21.362,21.362,0,0,1-6.244-.892q-2.992-1.007-5.956-1.957l-.748-.288A81.859,81.859,0,0,1,.038,27.537q-.173.173.432-1.352.691-1.726,1.352-3.079A23.4,23.4,0,0,1,5.3,18.674,62.508,62.508,0,0,1,11.692,12.6q3.539-2.935,7.251-5.5a47.582,47.582,0,0,1,7.021-4.086A68.414,68.414,0,0,1,34.25,0q1.151,2.964,1.9,4.489a50.946,50.946,0,0,1,3.021,8.085q1.18,4.182,2.129,7.683A17.791,17.791,0,0,0,45.041,26.961Z" fill="#e2ad98"/>
            </g>
          </g>
          <g id="Group_40499" data-name="Group 40499" transform="translate(63.193 67.293)">
            <g id="Group_40498" data-name="Group 40498" transform="translate(0 0)">
              <path id="Path_37854" data-name="Path 37854" d="M5.519,27.444,5.375,28.71l-.058.029-.029-.058-.115-1.237v-.317l-.029-.173v-.173L4.857,23.33v-.115l-.029-.144-.144-1.439v-.144l-.029-.058v-.086L3.361,12.885,1.606,5.49.023.081Q-.035.023.052.023.109-.035.109.052l1.525,3.28.029.115.058.115,2.216,6.762.029.173.058.144L5.49,19.532l.058,7.424-.029.173Z" fill="#c18770"/>
            </g>
          </g>
          <g id="Group_40501" data-name="Group 40501" transform="translate(0.252 51.489)">
            <g id="Group_40500" data-name="Group 40500" transform="translate(0 0)">
              <path id="Path_37855" data-name="Path 37855" d="M31.27,15.635a15.1,15.1,0,0,1-4.6,11.078A15.029,15.029,0,0,1,15.635,31.27,15.176,15.176,0,0,1,4.556,26.713,15.176,15.176,0,0,1,0,15.635,15.028,15.028,0,0,1,4.556,4.6,15.1,15.1,0,0,1,15.635,0,14.955,14.955,0,0,1,26.669,4.6,14.955,14.955,0,0,1,31.27,15.635Z" fill="#ece7de"/>
            </g>
          </g>
          <g id="Group_40503" data-name="Group 40503" transform="translate(7.597 2.23)">
            <g id="Group_40502" data-name="Group 40502" transform="translate(0 0)">
              <path id="Path_37856" data-name="Path 37856" d="M64.079,85.976q-.719-2.877-1.352-6.618a69.215,69.215,0,0,0-1.784-7.711,34.923,34.923,0,0,0-3.856-8.632q-.288-.46-.547-.95a20.743,20.743,0,0,0-6.618,1.669Q46.959,65.086,44.2,66.7,41.521,68.28,38.9,70.064a45.16,45.16,0,0,0-5.323,4.316,43.477,43.477,0,0,0-4.46,5.093,39.36,39.36,0,0,0-3.568,5.668,43.6,43.6,0,0,0-2.273,5.266q-.259.691-.46,1.352Q18.108,87.089,0,78.265q.345-3.424.575-6.906.259-3.712.489-7.395.173-2.877.317-5.64.144-2.359.288-4.748.2-3.424.46-6.877.288-3.712.489-7.395.2-3.223.518-6.417L3.827,26.1q.411-3.686.719-7.481.33-3.8.575-7.625t.4-6.445Q5.71,1.9,6.014,0A26.888,26.888,0,0,0,8.143,2.992q1.293,1.53,3.223,4.23t4.115,5.726q1.583,2.244,3.338,4.489a68.683,68.683,0,0,0,5.525,6.244,52.215,52.215,0,0,0,5.784,4.949,43.485,43.485,0,0,0,6.014,3.625,29.165,29.165,0,0,0,4.546,1.813,27.361,27.361,0,0,0,7.51.978,25.51,25.51,0,0,0,5.381-1.093A33.394,33.394,0,0,0,62.3,29.608a38.046,38.046,0,0,0,6.186-5.294c1.937-2.053,14.694-.4,14.847,1.093a19.721,19.721,0,0,0,.547,3.453,39.523,39.523,0,0,0,1.381,3.971,31.132,31.132,0,0,1,1.64,7.021,15.594,15.594,0,0,1-.691,7.568q-1.237,3.251-2.129,6.5a21.075,21.075,0,0,0-.892,4.805q.061,1.468.058,4.431a50.245,50.245,0,0,1-.518,6.934,8.736,8.736,0,0,0,1.439,6.618q2.011,2.677,1.352,3.683a15.2,15.2,0,0,1-2.532,2.676,18.357,18.357,0,0,1-5.7,3.165q-3.828,1.464-7.51,2.791a17.93,17.93,0,0,0-4.92,2.388A27.3,27.3,0,0,0,64.079,85.976Z" fill="#ece7de"/>
            </g>
          </g>
          <g id="Group_40506" data-name="Group 40506" transform="translate(9.237 1.741)">
            <g id="Group_40505" data-name="Group 40505" transform="translate(0 0)">
              <g id="Group_40504" data-name="Group 40504">
                <path id="Path_37857" data-name="Path 37857" d="M11.912,10.1q.995,22.11,2.532,33.32,4.983,9.38,6.474,15.193Q.244,49.183,0,50.872L4.2,0Z" fill="#d8cdc7"/>
              </g>
            </g>
          </g>
          <g id="Group_40511" data-name="Group 40511" transform="translate(0 51.491)">
            <g id="Group_40508" data-name="Group 40508" transform="translate(70.698 9.668)">
              <g id="Group_40507" data-name="Group 40507" transform="translate(0 0)">
                <path id="Path_37858" data-name="Path 37858" d="M20.113,0,22.76,21.178a19.768,19.768,0,0,1-6.7,5.467Q10.315,28.59,3.424,31.536L0,21.12Q20.986,11.354,20.113,0Z" fill="#7a2230"/>
              </g>
            </g>
            <g id="Group_40510" data-name="Group 40510" transform="translate(0 0)">
              <g id="Group_40509" data-name="Group 40509">
                <path id="Path_37859" data-name="Path 37859" d="M31.8,12.574a110.669,110.669,0,0,0,7.654,12.171L27.077,40.024A98.251,98.251,0,0,0,18.1,34.442Q4.46,28.027,4,26.155A15.222,15.222,0,0,1,.835,20.717,27.526,27.526,0,0,1,0,15.883Q.051,14.817.144,12,.26,9.149,4.806,4.6A15.1,15.1,0,0,1,15.884,0,15.008,15.008,0,0,1,26.933,4.6,15.227,15.227,0,0,1,28.6,6.56l.058-.029.173.317Q29.406,7.886,31.8,12.574Z" fill="#7a2230"/>
              </g>
            </g>
          </g>
          <g id="Group_40513" data-name="Group 40513" transform="translate(24.775 60.209)">
            <g id="Group_40512" data-name="Group 40512" transform="translate(0 0)">
              <path id="Path_37860" data-name="Path 37860" d="M50.153,32.8a11.255,11.255,0,0,1-6.5,3.482A69.4,69.4,0,0,0,38.614,7.165Q15.969,14.013,6.934,35.1A12.747,12.747,0,0,1,0,30.846Q11.222,8.862,41.175,0,46.24,6.733,50.153,32.8Z" fill="#7a2230"/>
            </g>
          </g>
          <g id="Group_40515" data-name="Group 40515" transform="translate(24.76 60.215)">
            <g id="Group_40514" data-name="Group 40514" transform="translate(0 0)">
              <path id="Path_37861" data-name="Path 37861" d="M31.838,3.907q-.633.259-1.87.863l-4.92,2.561L17.94,11.878q-1.813,1.295-3.856,2.964l-3.942,3.539L5.8,23.042l-.144.2-.978,1.151-.058.115-.288.345L.1,30.811q-.058.029-.086,0-.029-.058,0-.086l2.417-4.23,3.712-5.122,3.712-4.115q1.554-1.611,3.51-3.28,2.1-1.755,3.884-3.05l4.661-3.05,4.172-2.273,6.33-2.82.115-.029.115-.058L41.19.023q.058-.058.058.029.058.058-.029.058l-9.38,3.8M44.01,34.954l-.23,1.295-.058.029-.029-.058-.2-7.855-1.18-9.035-1.784-6.819L39.2,8.77l-.086-.144L38.543,7.1q-.058-.058.029-.058.058-.058.058.029L40.01,9.49l2.532,6.273q.489,1.64.719,2.647l.288,1.381q.259,1.324.259,1.41l.374,2.791q.144,1.209.2,2.734l.058,1.928Z" fill="#4b0f18"/>
            </g>
          </g>
          <g id="Group_40517" data-name="Group 40517" transform="translate(34.615 67.754)">
            <g id="Group_40516" data-name="Group 40516" transform="translate(0 0)">
              <path id="Path_37862" data-name="Path 37862" d="M20.6,1.951,24.947.512l2.3-.489q.058-.058.058.029.058.058-.029.058L22.242,2.066l-.144.086L18.415,3.994q-1.122.662-1.266.777l-.518.288-.144.115-1.352.863-4.23,3.223-.144.144-.173.115L6.848,13.144,3.8,16.626l-.086.144-.115.115L2.244,18.611l-.058.115-.173.2L.086,21.6q-.058.029-.086,0v-.086l1.726-3.108.086-.115.058-.115.95-1.467Q3.971,15.1,4.431,14.5l1.41-1.755L10.157,8.4l2.3-1.842,3.482-2.3.173-.086.173-.115.691-.374.086-.058.086-.029Z" fill="#a84657"/>
            </g>
          </g>
          <g id="Group_40520" data-name="Group 40520" transform="translate(48.527 0)">
            <g id="Group_40519" data-name="Group 40519" transform="translate(0 0)">
              <g id="Group_40518" data-name="Group 40518">
                <path id="Path_37863" data-name="Path 37863" d="M3.467,6.978.014,3.525a.036.036,0,0,1,0-.058L3.467.014a.036.036,0,0,1,.058,0L6.978,3.467a.036.036,0,0,1,0,.058L3.525,6.978a.036.036,0,0,1-.058,0M6.863,3.5,3.5.129,3.525.1H3.467L3.5.129.129,3.5.1,3.467v.058L.129,3.5,3.5,6.863,6.863,3.5m-3.424.058H2.633L2.575,3.5l.058-.058h.806V2.633L3.5,2.575l.058.058v.806h.806l.058.058-.058.058H3.554v.806L3.5,4.417l-.058-.058Z" fill="rgba(0,0,0,0)"/>
              </g>
            </g>
          </g>
        </g>
        <g id="Group_40532" data-name="Group 40532" transform="translate(14506.216 -11734.135) rotate(127.744)">
          <g id="Group_40523" data-name="Group 40523" transform="translate(9.983 18.57)">
            <g id="Group_40522" data-name="Group 40522" transform="translate(0 0)">
              <path id="Path_37864" data-name="Path 37864" d="M16.427,1.036l.892,1.7L22.555,0l2.1,3.97,1.122-.575.086,28.769L1.726,33.429,0,9.666Z" fill="#e2ad98"/>
            </g>
          </g>
          <g id="Group_40525" data-name="Group 40525" transform="translate(11.492 38.633)">
            <g id="Group_40524" data-name="Group 40524" transform="translate(0 0)">
              <path id="Path_37865" data-name="Path 37865" d="M3.548,20.733A11.7,11.7,0,0,1,0,12.14,11.7,11.7,0,0,1,3.548,3.548,11.7,11.7,0,0,1,12.14,0a11.7,11.7,0,0,1,8.592,3.548,11.7,11.7,0,0,1,3.548,8.592,11.7,11.7,0,0,1-3.548,8.592,11.7,11.7,0,0,1-8.592,3.548A11.7,11.7,0,0,1,3.548,20.733Z" fill="#e2ad98"/>
            </g>
          </g>
          <g id="Group_40528" data-name="Group 40528" transform="translate(0 18.167)">
            <g id="Group_40527" data-name="Group 40527" transform="translate(0 0)">
              <g id="Group_40526" data-name="Group 40526" transform="translate(0 0)">
                <path id="Path_37866" data-name="Path 37866" d="M43.383,0,54.948,52.014H0L5.61,31.646Q20.623,5.734,43.383,0Z" fill="#c18770"/>
              </g>
            </g>
          </g>
          <g id="Group_40531" data-name="Group 40531" transform="translate(18.225 0)">
            <g id="Group_40530" data-name="Group 40530" transform="translate(0 0)">
              <g id="Group_40529" data-name="Group 40529">
                <path id="Path_37867" data-name="Path 37867" d="M3.467,6.976.014,3.524a.036.036,0,0,1,0-.058L3.467.014a.036.036,0,0,1,.058,0L6.976,3.467a.036.036,0,0,1,0,.058L3.524,6.976a.036.036,0,0,1-.058,0M6.861,3.5,3.5.129,3.524.1H3.467L3.5.129.129,3.5.1,3.467v.058L.129,3.5,3.5,6.861,6.861,3.5m-3.423.058H2.632L2.575,3.5l.058-.058h.806V2.632L3.5,2.575l.058.058v.806h.806l.058.058-.058.058H3.553v.806L3.5,4.416l-.058-.058Z" fill="rgba(0,0,0,0)"/>
              </g>
            </g>
          </g>
        </g>
        <g id="Group_40552" data-name="Group 40552" transform="translate(14597.187 -11702.625) rotate(130.917)">
          <g id="Group_40534" data-name="Group 40534" transform="translate(0.403 7.883)">
            <g id="Group_40533" data-name="Group 40533" transform="translate(0 0)">
              <path id="Path_37868" data-name="Path 37868" d="M0,5.236,21.348,0l6.56,28.857L8.8,35.791Z" fill="#e2ad98"/>
            </g>
          </g>
          <g id="Group_40536" data-name="Group 40536" transform="translate(0.23 0)">
            <g id="Group_40535" data-name="Group 40535" transform="translate(0 0)">
              <path id="Path_37869" data-name="Path 37869" d="M21.923,10.962A10.587,10.587,0,0,1,18.7,18.73a10.54,10.54,0,0,1-7.739,3.194A10.635,10.635,0,0,1,3.194,18.73,10.635,10.635,0,0,1,0,10.962,10.54,10.54,0,0,1,3.194,3.222,10.587,10.587,0,0,1,10.962,0,10.493,10.493,0,0,1,18.7,3.222,10.493,10.493,0,0,1,21.923,10.962Z" fill="#e2ad98"/>
            </g>
          </g>
          <g id="Group_40539" data-name="Group 40539" transform="translate(7.452 31.763)">
            <g id="Group_40538" data-name="Group 40538">
              <g id="Group_40537" data-name="Group 40537">
                <path id="Path_37870" data-name="Path 37870" d="M2.071,15.651,0,5.582A40.716,40.716,0,0,1,19.679,0l1.985,6.819Z" fill="#c18770"/>
              </g>
            </g>
          </g>
          <g id="Group_40541" data-name="Group 40541" transform="translate(0.058 34.546)">
            <g id="Group_40540" data-name="Group 40540" transform="translate(0 0)">
              <path id="Path_37871" data-name="Path 37871" d="M53.111,50.3,25.779,65.691A321.916,321.916,0,0,1,0,9.963,68.146,68.146,0,0,1,40.193.152Q41.257,27.628,53.111,50.3Z" fill="#7a2230"/>
            </g>
          </g>
          <g id="Group_40543" data-name="Group 40543" transform="translate(23.678 76.501)">
            <g id="Group_40542" data-name="Group 40542" transform="translate(0 0)">
              <path id="Path_37872" data-name="Path 37872" d="M31.245,15.623A15.148,15.148,0,0,1,26.671,26.7a15.053,15.053,0,0,1-11.048,4.575A15.148,15.148,0,0,1,4.546,26.7,15.2,15.2,0,0,1,0,15.623,15.006,15.006,0,0,1,4.546,4.6,15.1,15.1,0,0,1,15.623,0,15.006,15.006,0,0,1,26.67,4.6,14.959,14.959,0,0,1,31.245,15.623Z" transform="translate(0)" fill="#7a2230"/>
            </g>
          </g>
          <g id="Group_40546" data-name="Group 40546" transform="translate(0 38.415)">
            <g id="Group_40545" data-name="Group 40545" transform="translate(0 0)">
              <g id="Group_40544" data-name="Group 40544">
                <path id="Path_37873" data-name="Path 37873" d="M19.219,49.825q-.058.058-.058-.029-1.065-1.9-1.41-2.589l-2.187-4.229L6.646,23.3,0,6.151,2.33,4.482l.575-.316.173-.115,2.244-1.18.2-.086L5.7,2.67,12.745.023q.058-.058.058.029.058.058-.029.058L3.913,5.691l-.144.144L3.28,6.18l-.144.144-.6.489L12.573,30.347l5.84,16.6q.316.921.834,2.82Q19.305,49.825,19.219,49.825Z" fill="#4b0f18"/>
              </g>
            </g>
          </g>
          <g id="Group_40548" data-name="Group 40548" transform="translate(44.744 64.159)">
            <g id="Group_40547" data-name="Group 40547" transform="translate(0 0)">
              <path id="Path_37874" data-name="Path 37874" d="M9.719,24.34q-.058.058-.058-.029l-4.92-8.718-.058-.173-1.151-2.5L1.72,7.912.483,2.935.023.058Q-.035,0,.052,0L.109.029,3.447,9.609,8.856,21.521l.892,2.762Q9.805,24.34,9.719,24.34Z" fill="#4b0f18"/>
            </g>
          </g>
          <g id="Group_40551" data-name="Group 40551" transform="translate(35.805 88.657)">
            <g id="Group_40550" data-name="Group 40550" transform="translate(0 0)">
              <g id="Group_40549" data-name="Group 40549">
                <path id="Path_37875" data-name="Path 37875" d="M3.467,6.977.014,3.524a.036.036,0,0,1,0-.058L3.467.014a.036.036,0,0,1,.058,0L6.977,3.467a.036.036,0,0,1,0,.058L3.524,6.977a.036.036,0,0,1-.058,0M6.862,3.5,3.5.129,3.524.1H3.467L3.5.129.129,3.5.1,3.467v.058L.129,3.5,3.5,6.862,6.862,3.5m-3.424.058H2.633L2.575,3.5l.058-.058h.806V2.633L3.5,2.575l.058.058v.806h.806l.058.058-.058.058H3.553v.806L3.5,4.416l-.058-.058Z" fill="rgba(0,0,0,0)"/>
              </g>
            </g>
          </g>
        </g>
        <g id="Group_40560" data-name="Group 40560" transform="translate(14505.391 -11694.538) rotate(-74.491)">
          <g id="Group_40554" data-name="Group 40554" transform="translate(0 0)">
            <g id="Group_40553" data-name="Group 40553">
              <path id="Path_37876" data-name="Path 37876" d="M0,4.23,9.927,0Q14.5,13.178,24.486,28.572,34.413,43.965,37.261,55.59a57.74,57.74,0,0,1,.777,14.818L16.66,75.5a216.123,216.123,0,0,1-6.531-23.767Z" fill="#e2ad98"/>
            </g>
          </g>
          <g id="Group_40556" data-name="Group 40556" transform="translate(1.675 11.975)">
            <g id="Group_40555" data-name="Group 40555" transform="translate(0 0)">
              <path id="Path_37877" data-name="Path 37877" d="M12.136,54.634,8.712,43.816,5,23.933.6,3.015V2.958L.57,2.872.023.081Q-.035.023.052.023.109-.035.109.052L1,2.613l.086.2V2.9L2.5,7.475,7.389,27.1q.4,2.5.432,2.618l1.093,7.567,3.309,17.321q.058.058-.029.058Q12.136,54.721,12.136,54.634Z" fill="#c18770"/>
            </g>
          </g>
          <g id="Group_40559" data-name="Group 40559" transform="translate(23.752 68.811)">
            <g id="Group_40558" data-name="Group 40558" transform="translate(0 0)">
              <g id="Group_40557" data-name="Group 40557">
                <path id="Path_37878" data-name="Path 37878" d="M3.467,6.977.014,3.525a.036.036,0,0,1,0-.058L3.467.014a.036.036,0,0,1,.058,0L6.977,3.467a.036.036,0,0,1,0,.058L3.525,6.977a.036.036,0,0,1-.058,0M6.862,3.5,3.5.129,3.525.1H3.467L3.5.129.129,3.5.1,3.467v.058L.129,3.5,3.5,6.862,6.862,3.5m-3.424.058H2.633L2.575,3.5l.058-.058h.806V2.633L3.5,2.575l.058.058v.806h.806l.058.058-.058.058H3.553v.806L3.5,4.417l-.058-.058Z" fill="rgba(0,0,0,0)"/>
              </g>
            </g>
          </g>
        </g>
        <g id="Group_40566" data-name="Group 40566" transform="translate(14472.162 -11676.438) rotate(-112.967)">
          <g id="Group_40562" data-name="Group 40562" transform="translate(0 0)">
            <g id="Group_40561" data-name="Group 40561">
              <path id="Path_37879" data-name="Path 37879" d="M0,2.906a4.512,4.512,0,0,1,1.611,0Q8.718,17.034,8.4,22.818A127.385,127.385,0,0,0,0,2.906M7.884,1.669A3.707,3.707,0,0,1,9.5,0l4.517,20.487L7.884,1.669m10.79,9.956a14.28,14.28,0,0,1,.662,1.87,9.956,9.956,0,0,1,.058,3.453,28.05,28.05,0,0,0-.863-3.108,55.338,55.338,0,0,0-2.791-6.676Q14.962,5.582,14.07,4q-.115-.23-.259-.46l.345.115a5.475,5.475,0,0,1,.518.23q.086.029.2.058l.863,1.5.806,1.669a.726.726,0,0,1,.086.173q.6,1.18,1.151,2.359Q18.358,10.934,18.674,11.625Z" transform="translate(4.014 1.682)" fill="#c18770"/>
              <path id="Path_37880" data-name="Path 37880" d="M23.35,15.177a14.28,14.28,0,0,0-.662-1.87q-.317-.691-.892-1.985-.547-1.18-1.151-2.359a.726.726,0,0,0-.086-.173L19.753,7.12l-.863-1.5-.058-.058a5.093,5.093,0,0,1,.748.6,5.915,5.915,0,0,1,.863.863q.46.46.834.863a11.929,11.929,0,0,1,1.87,2.475q.892,1.7,1.64,3.424a6.762,6.762,0,0,1,.575,2.618,9.607,9.607,0,0,1-.547,3.367q-.345.95-1.208,4.115v.058a62.431,62.431,0,0,1-1.7,6.676,31.406,31.406,0,0,1-6.589,11.509q-4.92,5.784-9.467,4.6Q-5.8,43.634,5.74,22.86q-2.187-7.6-3.251-13.265-.863-4.4,1.525-5.007a127.385,127.385,0,0,1,8.4,19.911q.317-5.784-6.791-19.911A4.5,4.5,0,0,1,7.668.33Q9.826-1.051,11.9,3.351l6.129,18.818L13.509,1.682Q15.639.877,17.8,5.135a.117.117,0,0,0,.029.086q.144.23.259.46.892,1.583,1.669,3.165a55.338,55.338,0,0,1,2.791,6.676,28.05,28.05,0,0,1,.863,3.108A9.956,9.956,0,0,0,23.35,15.177Z" fill="#e2ad98"/>
            </g>
          </g>
          <g id="Group_40565" data-name="Group 40565" transform="translate(3.856 36.57)">
            <g id="Group_40564" data-name="Group 40564" transform="translate(0 0)">
              <g id="Group_40563" data-name="Group 40563">
                <path id="Path_37881" data-name="Path 37881" d="M3.467,6.978.014,3.525a.036.036,0,0,1,0-.058L3.467.014a.036.036,0,0,1,.058,0L6.978,3.467a.036.036,0,0,1,0,.058L3.525,6.978a.036.036,0,0,1-.058,0M6.863,3.5,3.5.129,3.525.1H3.467L3.5.129.129,3.5.1,3.467v.058L.129,3.5,3.5,6.863,6.863,3.5m-3.424.058H2.633L2.575,3.5l.058-.058h.806V2.633L3.5,2.575l.058.058v.806h.806l.058.058-.058.058H3.554v.806L3.5,4.417l-.058-.058Z" fill="rgba(0,0,0,0)"/>
              </g>
            </g>
          </g>
        </g>
        <g id="Group_40701" data-name="Group 40701" transform="translate(14497.809 -11760.696) rotate(121.326)">
          <g id="Group_40569" data-name="Group 40569" transform="translate(15.753 23.563)">
            <g id="Group_40568" data-name="Group 40568" transform="translate(0 0)">
              <g id="Group_40567" data-name="Group 40567" transform="translate(0 0)">
                <path id="Path_37882" data-name="Path 37882" d="M58.843,59.973q-9.044,8.519-23.86,8.685a33.354,33.354,0,0,1-24.9-9.934A33.278,33.278,0,0,1,0,34.345Q.006,20.075,11.4,10.12,22.814.14,44.49,0q21.7-.171,21.849,11.062t.853,25.811Q67.919,51.447,58.843,59.973Z" fill="#e2ad98"/>
              </g>
            </g>
          </g>
          <g id="Group_40572" data-name="Group 40572" transform="translate(19.798 0)">
            <g id="Group_40571" data-name="Group 40571" transform="translate(0 0)">
              <g id="Group_40570" data-name="Group 40570">
                <path id="Path_37883" data-name="Path 37883" d="M67.176,40.767q.561,5.269-6.358,12.86L.229,49.973Q-1.152,34.178,5.81,25.835,15.437,7.842,44.793,0,62.112,15.047,67.176,40.767Z" fill="#e2ad98"/>
              </g>
            </g>
          </g>
          <g id="Group_40595" data-name="Group 40595" transform="translate(38.34 37.282)">
            <g id="Group_40577" data-name="Group 40577" transform="translate(30.827 4.864)">
              <g id="Group_40574" data-name="Group 40574" transform="translate(0 0)">
                <g id="Group_40573" data-name="Group 40573">
                  <path id="Path_37884" data-name="Path 37884" d="M7.561,4.935a5.572,5.572,0,0,1-1.117,3.5A3.264,3.264,0,0,1,3.78,9.87,3.313,3.313,0,0,1,1.1,8.436,5.636,5.636,0,0,1,0,4.935,5.556,5.556,0,0,1,1.1,1.453,3.3,3.3,0,0,1,3.78,0,3.252,3.252,0,0,1,6.443,1.453,5.494,5.494,0,0,1,7.561,4.935Z" fill="#231915"/>
                </g>
              </g>
              <g id="Group_40576" data-name="Group 40576" transform="translate(4.17 5.139)">
                <g id="Group_40575" data-name="Group 40575" transform="translate(0 0)">
                  <path id="Path_37885" data-name="Path 37885" d="M1.826,1.23a1.4,1.4,0,0,1-.3.838.746.746,0,0,1-.652.317.8.8,0,0,1-.633-.354A1.439,1.439,0,0,1,0,1.156,1.267,1.267,0,0,1,.3.336.78.78,0,0,1,.97,0a.738.738,0,0,1,.615.372A1.318,1.318,0,0,1,1.826,1.23Z" fill="#fff"/>
                </g>
              </g>
            </g>
            <g id="Group_40579" data-name="Group 40579" transform="translate(27.673 6.65)">
              <g id="Group_40578" data-name="Group 40578" transform="translate(0 0)">
                <path id="Path_37886" data-name="Path 37886" d="M11.189,9.623a39.276,39.276,0,0,1-3.98,0Q4.7,9.483,3.98,8.008A36.9,36.9,0,0,0,0,2.414,9.161,9.161,0,0,1,2.028,1.25,11.914,11.914,0,0,1,5.97.161,21.016,21.016,0,0,1,10.851.123a8.789,8.789,0,0,1,4.994,2.365A28.362,28.362,0,0,1,11.189,9.623Z" fill="#e2ad98"/>
              </g>
            </g>
            <g id="Group_40581" data-name="Group 40581" transform="translate(29.325 0.194)">
              <g id="Group_40580" data-name="Group 40580" transform="translate(0 0)">
                <path id="Path_37887" data-name="Path 37887" d="M0,7.594,1.877,2.187q5.442-4.554,9.612.375l1.577,5.031Z" fill="#e2ad98"/>
              </g>
            </g>
            <g id="Group_40583" data-name="Group 40583" transform="translate(28.611 5.722)">
              <g id="Group_40582" data-name="Group 40582">
                <path id="Path_37888" data-name="Path 37888" d="M7.7,1.464,7.472,1.5a6.067,6.067,0,0,0-.788.038H6.27l-.6.075H5.482L3.867,1.8,3.68,1.84H3.492l-.413.075-.113.038H2.891L1.877,2.14,1.915,2.1l-.9.3-.225.038-.225.075-.488.113Q0,2.7,0,2.591l.038-.075.375-.3L.488,2.14l1.089-.751.038-.038L3.192.713,3.417.676,3.6.6,5.294.188,6.571.038,8.749,0l.225.038h.188l1.314.225.413.113q.789.3.864.338a4.39,4.39,0,0,1,.789.413l.375.225,1.014.826.3.338.188.3v.113Q14.493,3,14.381,3l-.075-.038-.3-.225-.188-.075-.188-.113-1.5-.6-.188-.038-.075-.038h-.113l-.075-.038L11.565,1.8l-.939-.188h-.188l-.375-.075Z" fill="#231915"/>
              </g>
            </g>
            <g id="Group_40588" data-name="Group 40588" transform="translate(3.83 3.812)">
              <g id="Group_40585" data-name="Group 40585" transform="translate(0 0)">
                <g id="Group_40584" data-name="Group 40584">
                  <path id="Path_37889" data-name="Path 37889" d="M7.561,4.935a5.572,5.572,0,0,1-1.117,3.5A3.264,3.264,0,0,1,3.78,9.87,3.313,3.313,0,0,1,1.1,8.436,5.636,5.636,0,0,1,0,4.935,5.556,5.556,0,0,1,1.1,1.453,3.3,3.3,0,0,1,3.78,0,3.252,3.252,0,0,1,6.443,1.453,5.494,5.494,0,0,1,7.561,4.935Z" fill="#231915"/>
                </g>
              </g>
              <g id="Group_40587" data-name="Group 40587" transform="translate(4.17 5.139)">
                <g id="Group_40586" data-name="Group 40586" transform="translate(0 0)">
                  <path id="Path_37890" data-name="Path 37890" d="M1.826,1.23a1.4,1.4,0,0,1-.3.838.746.746,0,0,1-.652.317.8.8,0,0,1-.633-.354A1.439,1.439,0,0,1,0,1.156,1.267,1.267,0,0,1,.3.336.78.78,0,0,1,.97,0a.738.738,0,0,1,.615.372A1.318,1.318,0,0,1,1.826,1.23Z" fill="#fff"/>
                </g>
              </g>
            </g>
            <g id="Group_40590" data-name="Group 40590" transform="translate(0 4.924)">
              <g id="Group_40589" data-name="Group 40589" transform="translate(0 0)">
                <path id="Path_37891" data-name="Path 37891" d="M13.742,9.96A19.888,19.888,0,0,1,11,11.987a4.325,4.325,0,0,1-3.3.6A7.066,7.066,0,0,1,4.055,10.3,31.606,31.606,0,0,1,0,4.1a2.506,2.506,0,0,0,1.277-.976A13.415,13.415,0,0,1,5.106.8,8.216,8.216,0,0,1,12.015.723Q15.692,2.16,16.521,3.2q.864,1.047,1.915,2.178a4.7,4.7,0,0,1-1.089,1.314Q15.582,8.345,13.742,9.96Z" fill="#e2ad98"/>
              </g>
            </g>
            <g id="Group_40592" data-name="Group 40592" transform="translate(0.563 0)">
              <g id="Group_40591" data-name="Group 40591" transform="translate(0 0)">
                <path id="Path_37892" data-name="Path 37892" d="M0,8.013.526,3.282q6.982-6.619,14.306.113L15.094,7Z" fill="#e2ad98"/>
              </g>
            </g>
            <g id="Group_40594" data-name="Group 40594" transform="translate(0 4.896)">
              <g id="Group_40593" data-name="Group 40593" transform="translate(0 0)">
                <path id="Path_37893" data-name="Path 37893" d="M12.841,2.14H12.8L12.766,2.1,10.25,1.615h-.188l-.225-.038H9.65l-.188-.038H9.049L8.824,1.5H8.636a6.473,6.473,0,0,0-.826.038H7.4l-.225.038H6.984L5.407,1.8a8.37,8.37,0,0,0-1.464.338l-.676.188-.15.075-.15.038-.15.075-.15.038-.15.075L2.4,2.7l-.15.038-.113.075-.15.075-.038.038H1.877l-.225.15L.113,3.867Q0,3.98,0,3.83V3.755L.451,3.3.6,3.192a9.27,9.27,0,0,1,.676-.638l.188-.188L1.5,2.29h.038V2.253h.038L1.69,2.14l.676-.488.15-.075.15-.113.188-.075L4.28.713,5.519.375,5.707.3,6.834.113h.225L7.247.075,8.636,0l.225.038h.488l.225.038a3.7,3.7,0,0,1,.9.113l.864.15,1.84.6.075.038.113.038.15.075.113.075,2.178,1.164.225.15,1.2,1.014.15.15v.113h-.113l-.188-.113-.225-.075-1.389-.6-2.178-.713h-.075L13.1,2.215l-.188-.038Z" fill="#231915"/>
              </g>
            </g>
          </g>
          <g id="Group_40598" data-name="Group 40598" transform="translate(35.407 54.172) rotate(24.124)">
            <g id="Group_40597" data-name="Group 40597" transform="translate(0 0)">
              <g id="Group_40596" data-name="Group 40596">
                <path id="Path_37894" data-name="Path 37894" d="M0,1.674l.937.435a12.342,12.342,0,0,0,6.5,1A23.031,23.031,0,0,0,12.32,1.908a9.961,9.961,0,0,0,1.574-.636q.5-.268,1.473-.9a.93.93,0,0,1,.7-.234A.253.253,0,0,0,16.037,0a1.333,1.333,0,0,1-.067,1.1,3,3,0,0,1-1,1.44,9.4,9.4,0,0,1-2.812,1.574,16.555,16.555,0,0,1-6.528.7,8.785,8.785,0,0,1-3.515-1.1A21.438,21.438,0,0,1,0,1.674Z" transform="translate(4.018 2.344)" fill="#540e00"/>
                <path id="Path_37895" data-name="Path 37895" d="M4.218,4.855l-.268-.2q-.084-.065-.167-.134a.182.182,0,0,0-.067-.033.3.3,0,0,0-.067-.067.355.355,0,0,0-.067-.067,2.613,2.613,0,0,0-.234-.167.068.068,0,0,0-.033-.033.276.276,0,0,0-.067-.067.148.148,0,0,0-.067-.033.069.069,0,0,0-.067-.033L1.373,2.176A10.745,10.745,0,0,1,0,0,9.556,9.556,0,0,0,1.172,1.172,14.705,14.705,0,0,0,3.85,2.879a14.4,14.4,0,0,0,6.662,1.574,15.527,15.527,0,0,0,6.83-1.507q2.21-1.071,2.611-.737l.033.033.067.1a.253.253,0,0,1,.033.134.93.93,0,0,0-.7.234q-.971.636-1.473.9a9.961,9.961,0,0,1-1.574.636A23.031,23.031,0,0,1,11.45,5.457a12.342,12.342,0,0,1-6.5-1l-.937-.435A21.438,21.438,0,0,0,6.127,6.06,16.059,16.059,0,0,1,4.218,4.855Z" fill="#2b0700"/>
              </g>
            </g>
          </g>
          <g id="Group_40601" data-name="Group 40601" transform="matrix(-0.88, 0.475, -0.475, -0.88, 84.308, 61.298)">
            <g id="Group_40600" data-name="Group 40600" transform="translate(0 0)">
              <g id="Group_40599" data-name="Group 40599">
                <path id="Path_37896" data-name="Path 37896" d="M0,3.055l.66-.416a6.687,6.687,0,0,1,4.576-.961A12.817,12.817,0,0,1,8.68,2.831a6.129,6.129,0,0,1,1.109.608q.354.256,1.038.865.293.284.5.224a.312.312,0,0,1-.024.128A1.694,1.694,0,0,0,11.252,3.6a3.025,3.025,0,0,0-.708-1.377A6.416,6.416,0,0,0,8.562.717a8.8,8.8,0,0,0-4.6-.673A5.1,5.1,0,0,0,1.486,1.1,18.582,18.582,0,0,0,0,3.055Z" transform="translate(2.831 0)" fill="#540e00"/>
                <path id="Path_37897" data-name="Path 37897" d="M2.972,1.153l-.189.192q-.059.062-.118.128a.12.12,0,0,1-.047.032.261.261,0,0,1-.047.064.313.313,0,0,1-.047.064,1.976,1.976,0,0,1-.165.16.059.059,0,0,1-.024.032.242.242,0,0,1-.047.064.1.1,0,0,1-.047.032.046.046,0,0,1-.047.032L.967,3.715A11.312,11.312,0,0,0,0,5.8,8.407,8.407,0,0,1,.826,4.675,10.6,10.6,0,0,1,2.713,3.042,8.051,8.051,0,0,1,7.407,1.537a8.622,8.622,0,0,1,4.812,1.441q1.557,1.025,1.84.7l.024-.032.047-.1a.312.312,0,0,0,.024-.128q-.2.06-.5-.224-.684-.608-1.038-.865a6.129,6.129,0,0,0-1.109-.608A12.817,12.817,0,0,0,8.067.576a6.687,6.687,0,0,0-4.576.961l-.66.416A18.582,18.582,0,0,1,4.317,0,11.506,11.506,0,0,0,2.972,1.153Z" transform="translate(0 1.102)" fill="#2b0700"/>
              </g>
            </g>
          </g>
          <g id="Group_40606" data-name="Group 40606" transform="translate(61.628 29.719)">
            <g id="Group_40603" data-name="Group 40603" transform="translate(0.115 0.712)">
              <g id="Group_40602" data-name="Group 40602" transform="translate(0 0)">
                <path id="Path_37898" data-name="Path 37898" d="M13.666,3.575A8.091,8.091,0,0,1,8.8,10.163q-3,6.218-1.525,14.931-2.618,2.115-5.984-.6L0,2.28Q7.207-2.855,13.666,3.575Z" fill="#e2ad98"/>
              </g>
            </g>
            <g id="Group_40605" data-name="Group 40605" transform="translate(0 0)">
              <g id="Group_40604" data-name="Group 40604" transform="translate(0 0)">
                <path id="Path_37899" data-name="Path 37899" d="M7.106,22.412l.288,3.481q.058.058-.029.058l-.058-.029-.777-4.229-.086-4.315.029-.058.2-1.985.058-.259V14.96l.374-1.64.086-.23.058-.259.316-.978.115-.23.69-1.669a.525.525,0,0,1,.316-.288h.029l1.266-.518.6-.316,1.122-.806.144-.086V7.912h.029l.086-.086.058-.029V7.768h.029l.029-.058.058-.058h.029l.029-.029.259-.345.058-.115.23-.633V6.444l.058-.288V5.668l-.029-.144V5.437l-.029-.086V5.207l-.058-.173V4.92l-.029-.029V4.8L12.4,4.143l-.345-.518-.46-.518a5.1,5.1,0,0,0-1.036-.863A13.41,13.41,0,0,0,9.35,1.525l-.144-.086-.173-.058L8.89,1.295l-.173-.058L8.66,1.18l-.4-.144-.144-.029a5.252,5.252,0,0,0-1.352-.2H6.416l-1.726.23-.69.2a11.679,11.679,0,0,0-1.352.518q-.432.173-1.295.633a4.7,4.7,0,0,0-.633.345l-.633.345Q0,3.165,0,3.05V2.992l1.208-.863a14.024,14.024,0,0,1,1.237-.777L3.8.69,5.409.173,6.358.029h.288L6.761,0A7.136,7.136,0,0,1,8.314.144l.662.2.058.029h.029L9.235.46l.2.058L9.782.69a4.821,4.821,0,0,1,.662.345l.662.374a8.593,8.593,0,0,1,1.237.949l.547.6.46.662.345.777.058.2v.086l.029.029V4.8l.058.2.029.2v.086l.029.115.029.2v.6l-.058.432v.115l-.144.518-.086.2-.058.058-.029.115-.058.086-.058.115-.374.518L13,8.4l-.029.058-.288.288-.058.029L12.6,8.8l-.173.144-1.266.863-1.381.662-.489.173-.662,1.467-.949,3.05v.115l-.058.23-.288,1.7v.144l-.029.029v.086l-.058.489Z" fill="#c18770"/>
              </g>
            </g>
          </g>
          <g id="Group_40611" data-name="Group 40611" transform="matrix(0.999, 0.034, -0.034, 0.999, 53.457, 17.791)">
            <g id="Group_40608" data-name="Group 40608" transform="translate(0.922 0)">
              <g id="Group_40607" data-name="Group 40607" transform="translate(0)">
                <path id="Path_37900" data-name="Path 37900" d="M19.765,2.028q0,.138-.082.046l-3.891-.691h-.2l-.164-.046-2.99-.046-.246.046-1.6.138-.123.046h-.123l-.2.046L9.2,1.659l-1.352.323-.41.138-.246.046-.2.092L3.011,3.688l-.164.092-.164.046L2.4,4.01l-1.065.507-.2.138-.2.092-.778.461Q.02,5.347.02,5.163a.062.062,0,0,1,0-.092l.41-.415.123-.092.164-.184.819-.691.86-.553L2.519,3l1.6-.876a15.454,15.454,0,0,1,1.639-.738H5.8l.164-.092L7.107.876,10.179.138h.246l.737-.092L13.088,0l.246.046h.451L17.348.83l.614.277.287.092,1.024.461.451.277Q19.846,1.936,19.765,2.028Z" fill="#231915"/>
              </g>
            </g>
            <g id="Group_40610" data-name="Group 40610" transform="translate(0 3.181)">
              <g id="Group_40609" data-name="Group 40609" transform="translate(0 0)">
                <path id="Path_37901" data-name="Path 37901" d="M.451,2.674V2.627H.41V2.581L.287,2.4.246,2.351H.2V2.3L.164,2.167.082,2.074V1.936L.041,1.8,0,1.706V1.429L.041.968.123.784.164.6.2.553.246.461.328.369.451.184.573.046H.614Q.7-.046.737.046V.323L.7.507v.738H.737v.184l.041.092.041.138v.046l.041.046L.9,1.844l.041.046.082.138.041.092.2.23.041.092.082.092h.041l.082.138.287.184.082.092h.041L1.966,3h.082l.041.046h.082l.123.138-.082.092-.082.046H2.089l-.123.046H1.925l-.082.046h-.2l-.082-.046-.369-.092L.86,3.088.778,3,.7,2.95Z" fill="#c18770"/>
              </g>
            </g>
          </g>
          <g id="Group_40643" data-name="Group 40643" transform="translate(0 66.922)">
            <g id="Group_40613" data-name="Group 40613" transform="translate(0 9.732)">
              <g id="Group_40612" data-name="Group 40612" transform="translate(0 0)">
                <path id="Path_37902" data-name="Path 37902" d="M.888,19.2Q3.224,11.2,12.184,6.66A96.026,96.026,0,0,1,26.951.354q5.807-1.769,7.985,5.308a100.661,100.661,0,0,1,3.176,13.61q1.021,6.51-2.79,15.447-3.834,8.96-16.491,8.234-12.68-.7-16.468-8.234A20.465,20.465,0,0,1,.888,19.2Z" fill="#540e00"/>
              </g>
            </g>
            <g id="Group_40616" data-name="Group 40616" transform="translate(3.122 0)">
              <g id="Group_40615" data-name="Group 40615" transform="translate(8.553 0) rotate(18.98)">
                <g id="Group_40614" data-name="Group 40614" transform="translate(0 0)">
                  <path id="Path_37903" data-name="Path 37903" d="M14.563,0,30.123.113,40.24,22.933Q15.534,33.2,0,12.135Z" fill="#380a00"/>
                </g>
              </g>
            </g>
            <g id="Group_40618" data-name="Group 40618" transform="translate(2.821 15.53)">
              <g id="Group_40617" data-name="Group 40617" transform="translate(0 0)">
                <path id="Path_37904" data-name="Path 37904" d="M.086,23.137q0,.068-.045.023-.068,0-.023-.045v-.726l.023-.113.431-3.516,1.021-3.607.25-.59.045-.159.2-.454a19.911,19.911,0,0,1,1.225-2.4L4.963,8.915l2.4-2.722L7.5,6.079l.953-.93.136-.091.113-.113L10.884,3.2,15.148.567,16.3,0q.045,0,.045.023.045.045-.023.045L12.97,2.4,9.25,5.535,6.324,8.665,5.077,10.3,3.307,13.134l-.023.091-.045.068L2.218,15.447l-.045.068-1.111,3.13-.023.136L.994,18.9Z" fill="#380a00"/>
              </g>
            </g>
            <g id="Group_40620" data-name="Group 40620" transform="translate(6.858 26.173)">
              <g id="Group_40619" data-name="Group 40619" transform="translate(0 0)">
                <path id="Path_37905" data-name="Path 37905" d="M.086,21.341q0,.068-.045.023-.068,0-.023-.045v-.635l.408-4.31.567-2.858.771-2.541q.454-1.248.907-2.246l.34-.681.045-.068.023-.068.749-1.338.34-.5a.246.246,0,0,1,.091-.113l.068-.136.7-.953a.246.246,0,0,0,.091-.113.245.245,0,0,0,.091-.113l.749-.839.113-.091L6.165,3.6l.476-.476.113-.068,1.157-.975,2.7-1.588L11.927.018q.045-.045.045.023.045.045-.023.045L11.7.222,8.456,2.4,6.619,4.215l-.771.953-.068.113-.091.113L4.6,7.05A18.9,18.9,0,0,0,3.489,9.114l-.363.817L1.7,13.991.517,19l-.023.181-.045.159Z" fill="#380a00"/>
              </g>
            </g>
            <g id="Group_40622" data-name="Group 40622" transform="translate(11.708 29.531)">
              <g id="Group_40621" data-name="Group 40621" transform="translate(0 0)">
                <path id="Path_37906" data-name="Path 37906" d="M6.669,10.475,7.939,8l.068-.113.136-.34.113-.2.794-1.973L10.616.041q0-.068.045-.023.068,0,.023.045v.25l-.2,1.951-.045.159-.068.522L9.709,5.712,8.8,8.252l-.068.113-.2.476q-.408.93-.93,1.86l-1.86,2.813-.93,1.157-2,2.042-.975.817-.113.113-1.043.794-.159.091-.454.318H0v-.068l1.452-1.429L1.5,17.28l1.452-1.565a1.911,1.911,0,0,1,.272-.318L4.99,13.129Z" fill="#380a00"/>
              </g>
            </g>
            <g id="Group_40624" data-name="Group 40624" transform="translate(19.262 28.074)">
              <g id="Group_40623" data-name="Group 40623" transform="translate(0 0)">
                <path id="Path_37907" data-name="Path 37907" d="M.068,17.421q-.023.023-.068,0v-.068l1.474-2.132.159-.272a12.928,12.928,0,0,0,.7-1.2l.839-1.769.068-.2.091-.181.59-1.905.023-.045.023-.068.091-.408q.159-.794.272-1.679l.113-2.722-.023-.091L4.31,3.244V3.085L3.765.045Q3.72,0,3.788,0l.045.023.5,1.134.544,1.815.023.181.2.975v.091l.068.408v.091l.023.091v.2q0,.045.068.839v1.18l-.023.113-.023.431L4.945,9.368q-.227.93-.5,1.724l-.386.93-.023.091-1.52,2.609L1.7,15.765Z" fill="#380a00"/>
              </g>
            </g>
            <g id="Group_40626" data-name="Group 40626" transform="translate(2.185 17.826)">
              <g id="Group_40625" data-name="Group 40625" transform="translate(0 0)">
                <path id="Path_37908" data-name="Path 37908" d="M2.695,8.32l-.045.091-.068.068-.091.159-.113.136-.045.068-.068.068L1.7,9.772l-.068.136L.086,12.4q0,.068-.045.023-.068,0-.023-.045l.045-.2.612-1.611L1.856,8.23l.113-.159.045-.091.93-1.406L4.782,4.419l.091-.068.93-.885a16.067,16.067,0,0,1,1.293-1L9.659.948,9.749.925,9.885.857,12.245.018q.045-.045.045.023l-.023.045L8.479,2.423,6.392,4.147a7.158,7.158,0,0,0-.59.544Z" fill="#380a00"/>
              </g>
            </g>
            <g id="Group_40628" data-name="Group 40628" transform="translate(30.172 31.477)">
              <g id="Group_40627" data-name="Group 40627" transform="translate(0 0)">
                <path id="Path_37909" data-name="Path 37909" d="M1.316,14.109l-.181.181L1,14.472l-.93.953q-.023.023-.068,0v-.068L.091,15.2l.136-.181.068-.136,1.973-3.266.068-.159.726-1.361L3.085,10l.091-.159L4.627,5.83,4.741,5.4l.023-.181.045-.159.113-.612V4.355l.136-1.134V2.926l.023-.159V1.588l-.045-.454V.93L4.945.045Q4.9,0,4.968,0l.045.023.159.386.476,2.2v.159l.023.159v.159l.023.068-.136,2.4L5.263,6.9a13.812,13.812,0,0,1-.5,1.52l-.023.091L4.7,8.6,3.584,10.911l-.045.068-.045.091Z" fill="#380a00"/>
              </g>
            </g>
            <g id="Group_40630" data-name="Group 40630" transform="translate(15.319 30.887)">
              <g id="Group_40629" data-name="Group 40629" transform="translate(0 0)">
                <path id="Path_37910" data-name="Path 37910" d="M12.789,11.682l-.295.5-.023.068a10.684,10.684,0,0,1-.749,1.089l-.181.272-.113.136-.045.068L10,15.311A22.082,22.082,0,0,1,8.048,16.9l-1.134.726-3.2,1.588-.227.068-.2.091-3.221.975q-.045.045-.045-.023-.045-.045.023-.045l1.656-.7,4.922-2.654,2.427-1.928.068-.045.045-.068.227-.2A15.655,15.655,0,0,0,11,12.816a13.5,13.5,0,0,0,1.293-2.11,14.584,14.584,0,0,0,.862-2.223l.476-2.2a13.635,13.635,0,0,0,.2-2.019L13.651.045Q13.606,0,13.674,0l.045.023.522,2.5L14.4,4.9l-.2,2.631L13.56,9.913a11.223,11.223,0,0,1-.476,1.18l-.068.159-.091.136Z" fill="#380a00"/>
              </g>
            </g>
            <g id="Group_40632" data-name="Group 40632" transform="translate(21.689 34.952)">
              <g id="Group_40631" data-name="Group 40631" transform="translate(0 0)">
                <path id="Path_37911" data-name="Path 37911" d="M16.287.064,15.81,3.738l-.612,2.4A20.625,20.625,0,0,1,14.449,8.3l-1.2,2.472L12,12.607l-1.747,1.86-.431.34-.045.068-1.52,1.043a13.192,13.192,0,0,1-2.087.975l-1.5.476L2.9,17.689l-.408.023q-.749.068-1.316.068L.045,17.734A.04.04,0,0,1,0,17.689l.023-.023,1.565-.2h.091l.068-.023.34-.045,1.883-.431.091-.045,1.86-.658a16.292,16.292,0,0,0,1.905-1.043,9.46,9.46,0,0,0,.93-.658l.454-.363.068-.045.386-.34a15.784,15.784,0,0,0,1.611-1.769,16.65,16.65,0,0,0,1.361-2L13.7,7.98q.431-.975.839-2.064L16.219.041q0-.068.045-.023Q16.332.018,16.287.064Z" fill="#812511"/>
              </g>
            </g>
            <g id="Group_40634" data-name="Group 40634" transform="translate(0.094 16.885)">
              <g id="Group_40633" data-name="Group 40633" transform="translate(0 0)">
                <path id="Path_37912" data-name="Path 37912" d="M1.588,25.979q-.045.045-.045-.023l-.93-3.085L.136,20.013l-.068-.885q0-.045-.068-1.248l.091-2L.113,15.7v-.159l.272-1.724a17.576,17.576,0,0,1,.771-2.745q.091-.272.544-1.338l.363-.726.045-.068.34-.635.091-.136L2.7,7.855,4.6,5.269,5.988,3.795l2.45-2.042L8.8,1.5A14.342,14.342,0,0,1,10.026.687L11.138.029q.068-.068.068.023.023,0,0,.045L8.869,1.957,5.285,5.632,3.811,7.742A12.244,12.244,0,0,0,3.13,8.9a18.409,18.409,0,0,0-1.111,2.472q-.318.862-.431,1.316L1.248,14a20.975,20.975,0,0,0-.386,2.609l-.045.318L.771,18.493l-.023.068.023.091.023,1.611.817,5.671Q1.656,25.979,1.588,25.979Z" fill="#380a00"/>
              </g>
            </g>
            <g id="Group_40636" data-name="Group 40636" transform="translate(17.061 34.72)">
              <g id="Group_40635" data-name="Group 40635" transform="translate(0 0)">
                <path id="Path_37913" data-name="Path 37913" d="M11.024,8.915A16.214,16.214,0,0,0,12,7.1l.386-.907.794-2.563L13.837.023,13.882,0,13.9.045l.045.771L13.5,5.036l-.045.113L12.93,6.941,11.637,9.618l-1.18,1.588-.771.839a9.005,9.005,0,0,1-.817.749l-.862.7L6.215,14.608l-.885.431-2.45.907-.7.181q-.726.181-1.134.25l-1,.159Q0,16.582,0,16.514l.023-.045.953-.34.25-.068,2.79-1.134.091-.045.091-.068.408-.181L6.873,13.27,8.1,12.317l1.679-1.7Z" fill="#812511"/>
              </g>
            </g>
            <g id="Group_40638" data-name="Group 40638" transform="translate(14.389 32.906)">
              <g id="Group_40637" data-name="Group 40637" transform="translate(0 0)">
                <path id="Path_37914" data-name="Path 37914" d="M6.075,13.383a17.406,17.406,0,0,0,1.452-1.316q.726-.817,1.27-1.565L9.84,8.779l.386-.907a7.229,7.229,0,0,0,.34-.93l.5-2,.25-2.178L11.337.045Q11.292,0,11.36,0l.045.023.2.953.2,2.972-.068,1.089-.023.113v.113l-.25,1.429-.726,2.223-.068.113-.045.113a8.8,8.8,0,0,1-.5.953l-1.429,2-.363.386-.091.113L6.574,14.041q-.93.658-1.611,1.043l-1.905.93-2.745.93-.25.045q-.045.045-.045-.023-.045-.045.023-.045l4.537-2.427Q5.417,13.928,6.075,13.383Z" fill="#812511"/>
              </g>
            </g>
            <g id="Group_40640" data-name="Group 40640" transform="translate(9.689 29.208)">
              <g id="Group_40639" data-name="Group 40639" transform="translate(0 0)">
                <path id="Path_37915" data-name="Path 37915" d="M.091,18.941.068,18.9,0,16.922a10.128,10.128,0,0,1,.091-1.384l.544-2.949.771-2.314a19.322,19.322,0,0,1,.839-1.837,19.254,19.254,0,0,1,.975-1.769L5.4,3.584l.749-.862.068-.091L8.892.023q.045-.045.068,0,.045.023,0,.068L6.624,3.108l-.068.068L5.217,5.1l-.113.2-.136.181L2.926,9.051,1.542,12.385a8.315,8.315,0,0,0-.272.862l-.113.318-.181.726-.068.181-.5,2.5L.363,17.1v.136l-.136.953L.2,18.283v.091l-.068.544Z" fill="#812511"/>
              </g>
            </g>
            <g id="Group_40642" data-name="Group 40642" transform="translate(3.547 22.851)">
              <g id="Group_40641" data-name="Group 40641" transform="translate(0 0)">
                <path id="Path_37916" data-name="Path 37916" d="M.041,19.355q-.068,0-.023-.045L.4,14.274.721,12.46q.091-.544.431-1.928.25-.885.612-1.951l1.18-2.835.476-.862A13.881,13.881,0,0,1,4.464,3.341l.817-1L6.347,1.322,7.662.369l.25-.136L7.98.211,8.3.029q.068-.068.068.023V.1L8,.369,6.642,1.64,5.258,3.386l-.045.091-.181.25a17.839,17.839,0,0,0-.885,1.565l-.068.091-.023.045L4.033,5.5l-.113.2-1.7,4.355L.268,18.4l-.023.2-.159.726Q.086,19.4.041,19.355Z" fill="#812511"/>
              </g>
            </g>
          </g>
          <g id="Group_40668" data-name="Group 40668" transform="translate(5.843 32.59)">
            <g id="Group_40645" data-name="Group 40645" transform="translate(0.116 0)">
              <g id="Group_40644" data-name="Group 40644" transform="translate(0 0)">
                <path id="Path_37917" data-name="Path 37917" d="M38.557,67.37a37.689,37.689,0,0,1-11.5-.635,34.8,34.8,0,0,1-12.294-5.421,21.483,21.483,0,0,1-3.448-3.221q-.794-.93-1.52-1.905-.749-.953-1.452-1.928-.454-.635-.862-1.293a51.09,51.09,0,0,1-4.491-9.5A54.728,54.728,0,0,1,.267,32.347,29.22,29.22,0,0,1,.789,21.663,73.7,73.7,0,0,1,5.938,8.348,70.026,70.026,0,0,1,14.762,0a13.436,13.436,0,0,1,5.081,8.574q5.126,37.723,25.9,39.7,13.361,11.092,33.186-2.087a44.951,44.951,0,0,1-14.4,12.226,102.063,102.063,0,0,1-14.336,6.351A54.787,54.787,0,0,1,38.557,67.37Z" fill="#380a00"/>
              </g>
            </g>
            <g id="Group_40647" data-name="Group 40647" transform="translate(0.116 0)">
              <g id="Group_40646" data-name="Group 40646" transform="translate(0 0)">
                <path id="Path_37918" data-name="Path 37918" d="M38.557,67.37a37.689,37.689,0,0,1-11.5-.635,34.8,34.8,0,0,1-12.294-5.421,21.483,21.483,0,0,1-3.448-3.221q-.794-.93-1.52-1.905-.749-.953-1.452-1.928-.454-.635-.862-1.293a51.09,51.09,0,0,1-4.491-9.5A54.728,54.728,0,0,1,.267,32.347,29.22,29.22,0,0,1,.789,21.663,73.7,73.7,0,0,1,5.938,8.348,70.026,70.026,0,0,1,14.762,0q4.817,0,9.459,27.992-8.466,29.216,21.413,23.84,4.57,10.1,10.026,10.82-2.857,1.221-5.467,2.11A54.787,54.787,0,0,1,38.557,67.37Z" fill="#540e00"/>
              </g>
            </g>
            <g id="Group_40649" data-name="Group 40649" transform="translate(19.604 51.652)">
              <g id="Group_40648" data-name="Group 40648" transform="translate(0 0)">
                <path id="Path_37919" data-name="Path 37919" d="M19.273,9.924l-1.394.987L17.706,11l-.145.116-.348.174a9.974,9.974,0,0,1-1.365.7l-.174.087-.174.058-.174.087-2.874.929-.377.058-.174.058-4.21.377-.319-.029q-.465,0-1.278-.058L1.359,12.77.052,12.363q-.087,0-.029-.058,0-.087.058-.029l3.368.377a3.2,3.2,0,0,1,.494.029,3.2,3.2,0,0,1,.494.029l2.294.029a4.692,4.692,0,0,0,.61-.029l2.962-.29h.174l.174-.058,1.365-.261.668-.2a14.939,14.939,0,0,0,2.7-.958,19.065,19.065,0,0,0,2.5-1.394l2.207-1.684a8.484,8.484,0,0,0,.958-.929q.319-.29.9-.929L23.077,4.64a2.846,2.846,0,0,0,.348-.465l.174-.2L26.1.052q0-.087.058-.029.087,0,.029.058L25.69,1.359a15.369,15.369,0,0,1-.668,1.423L23.542,5.337,21.77,7.63,19.419,9.837Z" fill="#380a00"/>
              </g>
            </g>
            <g id="Group_40651" data-name="Group 40651" transform="translate(26.805 62.685)">
              <g id="Group_40650" data-name="Group 40650" transform="translate(0 0)">
                <path id="Path_37920" data-name="Path 37920" d="M6.817,4.93A4.39,4.39,0,0,1,6.237,4.9L2.723,4.553.052,4q-.087,0-.029-.058,0-.087.058-.029l5.633.174a4.1,4.1,0,0,0,.552-.029l3.658-.116L16.6,3.13,25.922.894l.2-.087L28.71.023q.058-.058.058.029.058.058-.029.058l-.29.174-5.72,2.41-.116.058-.145.029-2.41.726-2.584.61q-.958.2-2.729.494-1.858.232-2.758.261Z" fill="#812511"/>
              </g>
            </g>
            <g id="Group_40653" data-name="Group 40653" transform="translate(0 7.963)">
              <g id="Group_40652" data-name="Group 40652" transform="translate(0 0)">
                <path id="Path_37921" data-name="Path 37921" d="M6.126,42.231q-.058.058-.058-.029l-.842-1.452-.087-.2-.494-.871L2.991,36.018l-.2-.552-.058-.116L1.8,32.621l-.087-.2L.871,29.195Q.436,27.1.2,25.217L0,19.178l.61-5.371L2.061,8.58l2.12-4.791L6.5.044A.026.026,0,0,1,6.533.015a.036.036,0,0,1,.058,0V.073L5.546,2.482l-.087.261-.116.232L4.065,6.431Q3.513,8.173,3.136,9.6L2.207,13.98V14.1l-.406,3.4v.261l-.029.232-.087,3.658.029.116.377,4.994v.116l.029.116.987,5.284.029.2,3.02,9.7Q6.213,42.231,6.126,42.231Z" fill="#380a00"/>
              </g>
            </g>
            <g id="Group_40655" data-name="Group 40655" transform="translate(8.536 26.029)">
              <g id="Group_40654" data-name="Group 40654" transform="translate(0 0)">
                <path id="Path_37922" data-name="Path 37922" d="M.29,27.882l-.029-.029-.145-1.1V26.6L.087,26.43l-.058-.958L0,25.269l.174-5.11v-.174L.465,18.1l.058-.174L1.539,14.09l.087-.174.726-1.829.261-.523A25.973,25.973,0,0,1,4.152,8.835l.668-.958.058-.058.494-.7a.314.314,0,0,0,.116-.145l.494-.552A.314.314,0,0,1,6.1,6.28l.61-.668.058-.087L9.03,3.405l.61-.465a.853.853,0,0,1,.232-.2,2.885,2.885,0,0,1,.465-.319l.2-.174.058-.029.058-.058.116-.058L14.256.037q.087-.087.087.029V.124L11.149,2.592a2.446,2.446,0,0,0-.406.348L8.565,5,6.794,7.064A21.78,21.78,0,0,0,5.11,9.445L3.4,12.58l-.058.174-.668,1.568-.377,1.045-.029.174-.726,2.41-.406,2.032-.058.145L.348,27.824A.051.051,0,0,1,.29,27.882Z" fill="#380a00"/>
              </g>
            </g>
            <g id="Group_40657" data-name="Group 40657" transform="translate(6.91 22.501)">
              <g id="Group_40656" data-name="Group 40656" transform="translate(0 0)">
                <path id="Path_37923" data-name="Path 37923" d="M1.945,31.41q-.058.058-.058-.029l-.494-1.568a17.853,17.853,0,0,1-.465-1.8l-.087-.261L.029,22.758,0,17.822l.348-2.642.116-.436.029-.232.552-1.945q.406-1.161.668-1.713l.377-.813L3.455,7.747A15.687,15.687,0,0,1,4.529,6.382L5.255,5.6l.058-.087L5.4,5.453l1.016-.987L6.5,4.408l.058-.058.319-.261A19.253,19.253,0,0,1,9.262,2.433L11.9,1.039,14.692.023q.058-.058.058.029.058.058-.029.058L9.64,3.014l-.813.61L8.71,3.74l-.145.087-1.1.958A13.63,13.63,0,0,0,6.388,5.859,10.682,10.682,0,0,0,5.342,7.05l-.726.987-.145.145-.087.174a15.969,15.969,0,0,0-.871,1.452l-.2.348-.552,1.161a14.637,14.637,0,0,0-.61,1.6l-.436,1.452-.029.2q-.2.784-.348,1.684l-.058.2L.929,19.97V22.7l.406,4.675.058.261.2,1.51.058.2.319,2Q2.032,31.41,1.945,31.41Z" fill="#380a00"/>
              </g>
            </g>
            <g id="Group_40659" data-name="Group 40659" transform="translate(36.613 57.952)">
              <g id="Group_40658" data-name="Group 40658" transform="translate(0 0)">
                <path id="Path_37924" data-name="Path 37924" d="M12.514,3.595a6.376,6.376,0,0,1-1.132.987l-1.365.9q-.581.319-1.481.726a11.607,11.607,0,0,1-1.51.61,14.448,14.448,0,0,1-1.539.465l-.726.2-3.107.523-.842.058-.174.029H.058Q0,8.153,0,8.066l.029-.058L7,5.627l.174-.087.174-.058L8.8,4.814l.174-.058L9.059,4.7l.087-.029,1.626-.929q.377-.232,1.161-.813l.726-.61.116-.116.116-.087.465-.494.087-.116.174-.174.377-.523.058-.058.029-.058.029-.029.232-.348L14.4.2l.116-.145q0-.087.058-.029.058.029.029.058l-.029.2-.087.232-.029.145-.087.2V.894l-.058.087-.058.2-.232.436a4.273,4.273,0,0,1-.61.958l-.348.465Z" fill="#380a00"/>
              </g>
            </g>
            <g id="Group_40661" data-name="Group 40661" transform="translate(14.837 47.61)">
              <g id="Group_40660" data-name="Group 40660" transform="translate(0 0)">
                <path id="Path_37925" data-name="Path 37925" d="M9,10.22l-.116.058-.2.145-.232.116-.087.087L6.5,11.585l-.087.058-1.974.784-.2.087-3.484.9-.7.087Q0,13.559,0,13.472l.029-.058L.261,13.3l.261-.087.145-.087.2-.058,4.791-2.178.174-.116.116-.058.087-.058q.958-.523,1.6-.929l.116-.058.087-.087L9.291,8.565l.087-.087.377-.29,1.481-1.481.581-.7a10.941,10.941,0,0,0,.9-1.423l.116-.2.029-.087.058-.087.174-.348.058-.174.087-.174.058-.174.029-.058.058-.087.116-.348V2.816l.058-.116.029-.174.087-.232.029-.058.261-1.074.029-.232.058-.2V.639l.029-.087.087-.523L14.227,0l.029.058.058.523-.058,1.771-.029.058V2.5l-.058.348v.087l-.029.058V3.02l-.087.377-.029.087v.087l-.348,1.1-.058.087-.087.2a10.839,10.839,0,0,1-.871,1.626l-.058.116-.087.087-.581.813-.523.552A10.869,10.869,0,0,1,9.9,9.552l-.406.29a2.246,2.246,0,0,1-.406.29Z" fill="#380a00"/>
              </g>
            </g>
            <g id="Group_40663" data-name="Group 40663" transform="translate(24.802 56.146)">
              <g id="Group_40662" data-name="Group 40662" transform="translate(0 0)">
                <path id="Path_37926" data-name="Path 37926" d="M23.367.029q.058.029,0,.087L22.235,1.452,18.46,5.081,15.325,7.346q-.929.581-2.207,1.219-1.074.523-2.294.987l-.755.261-.145.029-.436.145-.058.029H9.343l-.871.232a16.086,16.086,0,0,1-2.265.348l-.261.029H5.8l-.058.029H5.162l-.145.029L4.9,10.656,3.246,10.6l-1.8-.29-.29-.087A1.93,1.93,0,0,1,.691,10.1l-.348-.087L.052,9.9q-.087,0-.029-.058,0-.087.058-.029l2.061.145.174.029L4.378,9.93l.465-.058h.145L5.1,9.843,5.6,9.785h.116L6.092,9.7q1.132-.2,2.12-.465L8.356,9.2l.058-.029H8.5l.61-.2.058-.029.145-.029L9.576,8.8l.145-.029,2.207-.9.145-.087,1.887-.958.116-.087.145-.058,3.862-2.526L23.28.029Q23.338-.029,23.367.029Z" fill="#812511"/>
              </g>
            </g>
            <g id="Group_40665" data-name="Group 40665" transform="translate(16.492 52.894)">
              <g id="Group_40664" data-name="Group 40664" transform="translate(0 0)">
                <path id="Path_37927" data-name="Path 37927" d="M10.249,4.849l.116-.058L12.6,3.4l.145-.116L17.1.145,17.276,0h.087V.087l-.319.377L16.956.61l-2.5,2.555-.465.377-.145.145L11.324,5.517q-.261.174-1.6.958L7.172,7.636l-.232.058-.406.174-1.249.377-.2.029-.406.116L2.5,8.769H2.352l-.465.058L.261,8.856l-.2-.029A.051.051,0,0,1,0,8.769L.029,8.74l.494-.116L.7,8.565l1.394-.319.145-.058L4.791,7.4l.581-.232.2-.058L8.565,5.749l.116-.029.087-.058,1.19-.668.2-.087Z" fill="#812511"/>
              </g>
            </g>
            <g id="Group_40667" data-name="Group 40667" transform="translate(16.289 52.378)">
              <g id="Group_40666" data-name="Group 40666" transform="translate(0 0)">
                <path id="Path_37928" data-name="Path 37928" d="M9.059,9.082q-.087.029-1.016.261l-.494.116-1.916.261a2.631,2.631,0,0,1-.465.029l-.087.029L.29,9.576.029,9.518,0,9.46l.058-.029,1.423-.145h.29L6.852,8.53,9.2,7.863l1.365-.552a14.5,14.5,0,0,0,1.742-.9l1.568-1.074q.668-.552,1.336-1.219l.29-.29.116-.174.145-.145.929-1.19.058-.058.029-.087.29-.377.29-.494.087-.116L18.089.052q0-.087.058-.029.087,0,.029.058L17.8,1.359l-.436.958-.087.261-.058.058L15.882,4.727a13.86,13.86,0,0,1-1.336,1.394l-.581.494-.2.145-.087.087-.987.668-.174.087-.058.058-.465.261L9.552,8.937l-.116.029-.145.058Z" fill="#812511"/>
              </g>
            </g>
          </g>
          <g id="Group_40673" data-name="Group 40673" transform="translate(0.651 22.602)">
            <g id="Group_40670" data-name="Group 40670" transform="matrix(0.955, 0.296, -0.296, 0.955, 8.857, 0)">
              <g id="Group_40669" data-name="Group 40669" transform="translate(0 0)">
                <path id="Path_37929" data-name="Path 37929" d="M16.352,25.937a7.885,7.885,0,0,1-6.991,3.97,8.186,8.186,0,0,1-7.509-3.97Q-.876,21.815.414,15.149a24.667,24.667,0,0,1,4.2-10.386A12.226,12.226,0,0,1,12.554.131q5.083-.891,6.674,4.258a24.162,24.162,0,0,1,.46,11.479A30.652,30.652,0,0,1,16.352,25.937Z" fill="#e2ad98"/>
              </g>
            </g>
            <g id="Group_40672" data-name="Group 40672" transform="translate(7.437 14.488)">
              <g id="Group_40671" data-name="Group 40671" transform="translate(0 0)">
                <path id="Path_37930" data-name="Path 37930" d="M7.71,8.654,8.6,7.561l1.467-2.848L11.939.052q0-.086.058-.029.086,0,.029.058l-.23,1.7-.748,2.848L10.012,7.244,9.235,8.6A6.579,6.579,0,0,1,7.71,10.179a6.4,6.4,0,0,1-1.956,1.036l-.115.029L5.5,11.3l-.259.058-.058.029H5.121l-.633.144H4.344l-.058.029H4.2l-.259.029H3.395L2.848,11.5l-.2-.058-.058-.029-.115-.029-.489-.23-.115-.086-.115-.058-.086-.086a2.986,2.986,0,0,1-.662-.719,4.523,4.523,0,0,1-.432-.748L.489,9.287.23,8.395.2,8.222.144,8.079,0,6.985V6.036a.051.051,0,0,1,.058-.058l.029.029.058.259L.662,7.935l.029.144.058.144.46.921a2.814,2.814,0,0,0,.432.575l.058.058.058.086.086.058.058.058.288.23a2.043,2.043,0,0,0,.69.288,2.609,2.609,0,0,0,.777.058h.2l.2-.058h.115l.575-.144.086-.029h.058l.058-.029.345-.086.086-.058.863-.374.4-.23L6.818,9.4l.115-.058.086-.086.345-.288A3.18,3.18,0,0,0,7.71,8.654Z" fill="#c18770"/>
              </g>
            </g>
          </g>
          <g id="Group_40682" data-name="Group 40682" transform="translate(20.246 38.261)">
            <g id="Group_40675" data-name="Group 40675" transform="translate(0.725 0) rotate(0.817)">
              <g id="Group_40674" data-name="Group 40674" transform="translate(0 0)">
                <path id="Path_37931" data-name="Path 37931" d="M31.3,44.615q-.136.839-.295,1.633a4.133,4.133,0,0,1-1.542,2.631,8.981,8.981,0,0,1-7.757,1.769A34.48,34.48,0,0,1,4.378,41.893a12.871,12.871,0,0,1-4.06-7.372A20.1,20.1,0,0,1,1.27,23.93q1.86-5.081,3.606-10.184a15.113,15.113,0,0,0,.476-8.3A6.741,6.741,0,0,0,.023.068,12.4,12.4,0,0,1,5.58.749,13.654,13.654,0,0,1,13.5,7.621a16.209,16.209,0,0,1,1.769,9.5,50.464,50.464,0,0,0-.045,10.683,24.945,24.945,0,0,0,3.561,10.5,14.978,14.978,0,0,0,4.6,4.831q4.31,2.813,7.916-.953Z" fill="#540e00"/>
              </g>
            </g>
            <g id="Group_40677" data-name="Group 40677" transform="translate(0.134 0.072)">
              <g id="Group_40676" data-name="Group 40676" transform="translate(0 0)">
                <path id="Path_37932" data-name="Path 37932" d="M24.612,51.305q-.431.023-1.27-.023l-3.13-.431-1.52-.386-.159-.023-1.361-.408-.023-.023L11.8,47.449q-.885-.476-2.563-1.52l-2.45-1.747a22.207,22.207,0,0,1-2.246-2,13.27,13.27,0,0,1-1.021-1.111,11.444,11.444,0,0,1-.93-1.2q-.408-.567-.817-1.27a10.058,10.058,0,0,1-.658-1.384l-.136-.363L.93,36.765.522,35.382.363,34.52v-.091L.34,34.247v.068l-.045-.227L.25,33.975.2,33.748l-.045-.113-.023-.227V33.34l-.023-.068-.023-.113v-.113L.068,33v-.068l-.045-.227v-.136L0,32.455l.136-3.72.771-3.357,2.019-5.331L2.9,20.07l2.5-8.234.476-2.813q.068-.726.068-1.429L5.9,6.188,5.648,4.8,5.172,3.466l-.34-.612L3.947,1.765,2.813.925,2.178.585A8.942,8.942,0,0,0,.839.086Q.771.086.817.041q0-.068.045-.023l.181.023L1.565.2a4.525,4.525,0,0,1,.681.25,7.035,7.035,0,0,1,1.293.681l.567.454a4.153,4.153,0,0,1,.522.522l.25.272.59.93a5.036,5.036,0,0,1,.318.681l.25.7A10.769,10.769,0,0,1,6.329,6.12l.113,1.474q0,.975-.045,1.474-.023.431-.159,1.452L6.011,11.95,3.652,20.32l-.023.023-1.611,4.31L2,24.766l-.2.635L1,28.872.817,31.5q.068.839.068.862v.159l.023.068.023.2v.068l.023.045.023.113v.091L1,33.181v.045l.091.408.045.113.023.113.068.2v.068l.023.181.023.091V34.5l.045.159.023.181.136.612.476,1.429a12.491,12.491,0,0,0,.612,1.27,14.3,14.3,0,0,0,.749,1.225q.454.635.885,1.134l.975,1.066q.907.907,2.155,1.928l1.157.885,3.7,2.336,5.263,2.631-.023-.023.272.113,4.469,1.134q.612.091,1.225.136a10.884,10.884,0,0,0,1.2.068l1.225-.091a7.879,7.879,0,0,0,1.18-.25,5.624,5.624,0,0,0,1.089-.454l.522-.295.227-.181.068-.045.159-.159.181-.136.045-.068.113-.091.136-.181.159-.159.181-.25a9.636,9.636,0,0,0,.59-1.066,7.736,7.736,0,0,0,.386-1.134q.113-.408.25-1.225a11.362,11.362,0,0,0,.113-1.225l.023-.159.023-1.066q-.023-.045.023-.045l.045.023.045,1.248a12.351,12.351,0,0,1-.068,1.27,8.4,8.4,0,0,1-.2,1.225,9.922,9.922,0,0,1-.363,1.225l-.045.136-.136.295-.045.068-.091.227-.136.2-.023.023v.045l-.272.408-.113.113-.091.136-.272.295-.045.068-.113.113-.136.091-.045.068-.862.612a9.187,9.187,0,0,1-1.18.522,5.545,5.545,0,0,1-1.248.272q-.431.068-1.27.113M15.561,42.1q-.567-.454-.975-.839-.862-.817-1.429-1.429l-.817-.953q-.59-.749-.839-1.111l-.635-.907-.045-.045-.068-.136-.318-.5-.567-1.111a11.557,11.557,0,0,1-.907-3.425,15.175,15.175,0,0,1-.023-1.883l.023-.068.023-.408.023-.113v-.113l.045-.25V28.69l.159-.839a18.778,18.778,0,0,1,1.134-3.72l1.157-2.4.023-.023.045-.068.454-.93a13.735,13.735,0,0,0,1.021-3.4,15.656,15.656,0,0,0,.136-1.7,13.883,13.883,0,0,0-.068-1.633l-.045-.408v-.136l-.023-.045-.159-.953-.045-.181-.023-.2-.476-1.7-.068-.159-.045-.159-.068-.159L12.113,9.7l-.59-1.384-.068-.113-.045-.113L10.162,5.939l-.068-.091a.186.186,0,0,1-.068-.113l-.272-.363q-.023-.045,0-.068.045-.045.068,0l1.111,1.384A13.166,13.166,0,0,1,12,8.411L12.771,10l.045.159.136.318.771,2.79v.068l.023.023v.113l.068.408A16.541,16.541,0,0,1,13.95,15.6v.567l-.023.113-.113,1.361-.023.113v.068l-.023.045-.2,1.043-.045.113-.045.227-.227.681V20l-.885,2.042-.023.068h-.023v.023l-.023.023-.113.2-1,2.132a21.046,21.046,0,0,0-1.111,3.539l-.159.771v.113l-.045.227v.113l-.023.113-.023.227-.023.113v.113a13.2,13.2,0,0,0-.023,1.747,11.345,11.345,0,0,0,.749,3.221l1.52,2.813.113.136.363.567.113.136.544.771a.246.246,0,0,1,.091.113l.181.227q.749.93,1.316,1.52l1.225,1.248q.045.023,0,.068-.023.023-.068,0l-.363-.295m13.882,4.151-1.111,1.248-.431.363-.7.476a5.2,5.2,0,0,1-.839.454,6.165,6.165,0,0,1-.975.34,7.032,7.032,0,0,1-1.089.227,10.448,10.448,0,0,1-2.382,0l-1.225-.227-.318-.091-.136-.023-1.542-.5-.295-.136-.159-.045-1.18-.544q-.907-.454-2.246-1.248l-3.652-2.7-2-2.2L7.758,39.555l-.544-1.021q-.068-.068.023-.068a.028.028,0,0,1,.045,0l2.677,3.266.181.159.159.181,2.45,2.087.068.023v.023h.023l.023.023.113.091,1.248.817,4.514,2.427,2.019.7.136.023q.34.091,1.134.25a9.635,9.635,0,0,0,2.2.113,7.038,7.038,0,0,0,1.928-.386,7.761,7.761,0,0,0,.817-.363l.7-.386a10.4,10.4,0,0,0,1.043-.771L29.511,46l.045-.068q.045-.045.068,0,.045.023,0,.068Z" fill="#812511"/>
              </g>
            </g>
            <g id="Group_40679" data-name="Group 40679" transform="translate(2.402 0.39)">
              <g id="Group_40678" data-name="Group 40678" transform="translate(0 0)">
                <path id="Path_37933" data-name="Path 37933" d="M1.86,36.947q.068.068-.023.068H1.792L1.406,36.4l-.023-.045-.045-.068-.068-.136-.091-.136L.7,35l-.023-.113L.454,34.27l-.023-.113-.159-.544q-.181-1.066-.2-1.225L.023,31.367,0,31.185V31l.454-4.7.2-.975L.7,25.242l1.066-3.7,1.5-3.924A35.034,35.034,0,0,0,4.355,14.1l.726-3.471a26.264,26.264,0,0,0,.181-3.312L5.195,5.644,5.172,5.6V5.462l-.023-.045L5.1,5.077l-.181-.658A2.952,2.952,0,0,0,4.7,3.806L4.65,3.716l-.023-.068-.068-.136-.091-.136-.023-.068L4.4,3.239a9.335,9.335,0,0,0-.681-.953,6.521,6.521,0,0,0-.749-.726l-.7-.567Q2.11.88,1.225.313L.93.154.839.086Q.771.086.817.041q0-.068.045-.023l.907.408,1.406.885.045.023.068.045.091.091.113.068.522.476a6.056,6.056,0,0,1,.794.975l.363.567.295.658.272.907.023.2.023.045v.045l.023.091v.113l.023.091A12.941,12.941,0,0,1,5.966,7.3a18.565,18.565,0,0,1-.091,3.425L5.6,12.63l-.023.045v.068l-.363,1.588a33.72,33.72,0,0,1-1.089,3.607L1.52,25.219l-.045.2-.045.113-.227.93L.59,30.686v.159l-.023.091v.272l-.023.159v.975q.045.635.136,1.18a6.11,6.11,0,0,0,.227,1.021l.045.227L1,34.883,1.021,35l.136.408.7,1.542M19.3,42.935l-.181-.136-.091-.091-.658-.544a6.861,6.861,0,0,1-.771-.817,7.034,7.034,0,0,1-.726-.953l-2.132-3.788-.159-.34L12.952,31.3q-.136-.5-.318-1.5l-.567-5.784.34-3.924v-.068L12.431,20v-.045l.862-4.287.113-.34q0-.068.045-.023.068,0,.023.045l-.5,4.7-.023.023v.113l-.023.136-.091,3.675.658,5.489.045.181q.068.476.295,1.429l.068.363.068.159.885,2.994,1.361,3.221,1.815,3.176,1.338,1.474a8.9,8.9,0,0,0,1.27.907l.25.136.068.023.068.045.5.227.159.045.181.091q.068,0,.023.045,0,.068-.045.023l-.363-.068-.953-.34L19.3,42.935m7.213,2.745-.272.159-.136.045-.136.068-.59.2-.658.113h-.159l-.091.023-1.111-.045-.181-.023-.522-.113-.181-.023L22.3,46.02,22.207,46h-.045l-.045-.023-.522-.159h-.023l-.045-.023-.091-.023-.363-.136-.091-.023-2.518-1.248-1.338-.93A18.649,18.649,0,0,1,14.7,41.257l-.5-.522-.068-.091-.907-1.089-.068-.068-.023-.045h-.023l-.023-.045-.136-.159-.045-.091h-.023l-.023-.023-.023-.045-.113-.181-.136-.159-.817-1.406a14.518,14.518,0,0,1-.635-1.452A15.767,15.767,0,0,1,10.412,33a18.516,18.516,0,0,1-.2-2.654V29.325l.023-.136.045-.93.363-2.7.136-.59q0-.068.045-.023.068,0,.023.045l-.136,3.153-.023.136.023.113v.93l.023.136v.431l.023.136.295,2.518.023.068v.091l.045.159a16.651,16.651,0,0,0,.794,2.722l.612,1.361,1.021,1.588.023.045h.023l.023.023.045.091.2.227.045.068,1.429,1.633a21.179,21.179,0,0,0,2.336,2.11l.612.476,2.4,1.429.181.068.318.159h.045l.045.023.068.023.408.181H21.8l.045.023.5.181h.023l.045.023.726.2.159.023.159.045.612.068h.159l.159.023h.159l.136-.023a2.33,2.33,0,0,0,.567-.068,2.047,2.047,0,0,0,.544-.136l.5-.181a5.415,5.415,0,0,0,.817-.544,4.846,4.846,0,0,0,.635-.612l.476-.612.544-.93.068-.159.068-.091.045-.091q0-.068.045-.023.068,0,.023.045l-.023.091-.045.113a.312.312,0,0,1-.068.159l-.159.431-.295.59a7.135,7.135,0,0,1-.431.658,3.124,3.124,0,0,1-.612.726A3.631,3.631,0,0,1,26.517,45.68Z" fill="#380a00"/>
              </g>
            </g>
            <g id="Group_40681" data-name="Group 40681" transform="translate(18.613 44.845)">
              <g id="Group_40680" data-name="Group 40680" transform="translate(0 0)">
                <path id="Path_37934" data-name="Path 37934" d="M10.374,1.134l-.023.045-.227.159-.975.544L8.9,2l-.091.023-.295.136-1.837.5H6.563l-.522.068q-.544.023-1.089,0L3.864,2.586l-.272-.068-.975-.34L2.5,2.11l-.159-.068L2.276,2l-.318-.159a5.406,5.406,0,0,1-.7-.5L1.21,1.316,1.164,1.27,1.1,1.225.3.454.008.068Q-.015.045.03,0H.076L.688.386l1.792.907.113.023.091.045.113.023.318.113.113.023.113.045.7.159h.113L5,1.837H6.223l.113-.023h.25L6.7,1.792l.476-.045.113-.023H7.4l.2-.045.227-.023.522-.113h.091l1.883-.431Q10.374,1.066,10.374,1.134Z" fill="#380a00"/>
              </g>
            </g>
          </g>
          <g id="Group_40697" data-name="Group 40697" transform="translate(50.177 45.72) rotate(-1.74)">
            <g id="Group_40684" data-name="Group 40684" transform="translate(0.125 0)">
              <g id="Group_40683" data-name="Group 40683" transform="translate(0 0)">
                <path id="Path_37935" data-name="Path 37935" d="M22.285,54.277a20.248,20.248,0,0,1-9.345,2.654,12.862,12.862,0,0,1-8.188-3.4,12.952,12.952,0,0,1-4.2-7.576A36.316,36.316,0,0,1,.284,35.088q.817,1.043,1.588,2.087A24.665,24.665,0,0,0,8.335,43.3a9.161,9.161,0,0,0,3.493,1.361q4.922-.045,6.079-4.99a77.636,77.636,0,0,0,1.406-7.961q.52-4.184,4.763-7.349T30.4,14.72A31.912,31.912,0,0,0,32.2,4.65,41.143,41.143,0,0,0,31.97,0a28.741,28.741,0,0,1,5.239,4.672,36.273,36.273,0,0,1,4.06,6.691,23.575,23.575,0,0,1,2.45,9.957,26.469,26.469,0,0,1-1.656,10.093,15.564,15.564,0,0,1-6.283,7.8,18.2,18.2,0,0,0-6.578,7.53A16.346,16.346,0,0,1,22.285,54.277Z" fill="#540e00"/>
              </g>
            </g>
            <g id="Group_40686" data-name="Group 40686" transform="translate(6.317 0.204)">
              <g id="Group_40685" data-name="Group 40685" transform="translate(0 0)">
                <path id="Path_37936" data-name="Path 37936" d="M13.053,45.068l-.045.091-1.043,1.179-.476.408-.159.113-.068.068L11.171,47a7.746,7.746,0,0,1-1.361.839l-.181.091-.068.045-.091.045-.181.068-.045.023-.023.023H9.2l-.091.045-.7.272a9.218,9.218,0,0,1-1.452.34,7.515,7.515,0,0,1-1.429,0l-.975-.181-.227-.068-.045-.023H4.23l-.136-.045-.068-.045H3.981L3.958,48.4,3.8,48.357l-.068-.045-.34-.136-.249-.136a9.019,9.019,0,0,1-.907-.59l-.476-.363L1.69,47l-.181-.136L1.372,46.7l-.091-.068-.794-.862-.023-.045-.091-.091-.363-.476q-.023-.045,0-.068.045-.045.068,0l.272.295,1.134,1.043.091.045.68.522.2.113a8.155,8.155,0,0,0,.907.5,8.777,8.777,0,0,0,1.043.363,5.646,5.646,0,0,0,2.427.113L7,48.04l.181-.023.159-.045.159-.023L8.88,47.4H8.9l1.157-.658.68-.5.068-.045.93-.907a7,7,0,0,0,1.52-2.586,6.914,6.914,0,0,0,.2-.726l.2-.953V40.94l.023-.091.068-.771v-.2l.7-6.215L14.5,33.5l.023-.181.68-2.427.045-.068.045-.136.295-.658a6.121,6.121,0,0,1,.567-.93l.091-.091.068-.113.454-.5a6.639,6.639,0,0,1,.635-.522l.408-.272.249-.113.068-.045.136-.068.113-.023a.312.312,0,0,1,.159-.068l.113-.045.091-.023q.045-.045.045.023.045.045-.023.045l-.091.045-.091.068-.159.068a6.286,6.286,0,0,0-.885.612l-.522.522a6.533,6.533,0,0,0-.522.726,6.319,6.319,0,0,0-.454.907l-.318.839v.068l-.136.431-.5,2.563-.567,7.235L14.119,43l-.159.386-.023.113-.522,1.043-.068.091-.045.091-.113.181-.136.159m2.087,7.485-.907.454-.068.045-1.633.68-.522.159q-.045.045-.045-.023-.045-.045.023-.045l3.584-2.268.068-.068.59-.476a17.377,17.377,0,0,0,1.293-1.293l.295-.34.068-.113.091-.091.2-.272.068-.113.159-.2.023-.045.045-.045,1.247-2.041.34-.68.091-.227.068-.113.794-2.223V43.14L21.06,43l.136-.295a5.014,5.014,0,0,1,.476-.907,5.693,5.693,0,0,1,.59-.771A6.1,6.1,0,0,1,22.9,40.4a4.724,4.724,0,0,1,.635-.544l.136-.136a.447.447,0,0,0,.159-.113l.318-.2.068-.068L26.3,38.15l.249-.091q.045-.045.045.023a.028.028,0,0,1,0,.045h-.023l-1.27.953-.113.068L23.9,40.26l-1.089,1.225q-.386.567-.476.726l-.045.091-.068.091-.136.295-.023.068-.113.25-.068.227-.045.091v.045l-.023.045v.023l-.431,1.474a16.39,16.39,0,0,1-.862,1.951A15.4,15.4,0,0,1,19.4,48.675l-.159.2-.068.113-.045.045-.023.068-.159.2-.091.091-.068.113-.68.771a12.393,12.393,0,0,1-1.452,1.27,14.758,14.758,0,0,1-1.429.93l-.091.068m22.205-27.83-.023-.045-.2-2.79v-.113l-.023-.091-.2-1.769V19.8l-.839-4.219-.045-.136-.023-.159L34.691,11.5l-.2-.454q-.544-1.2-1.157-2.314Q32.559,7.372,32.015,6.6l-.091-.136-.045-.045-.93-1.27-.068-.113-3.47-3.72L27.3,1.179l-.136-.091L26.027.068Q26,.023,26.027,0H26.1l2.79,2.064.091.091.091.068,2.268,2.245.091.113a.245.245,0,0,1,.091.113l.386.454.113.113L34.4,8.8l.023.068,1.157,2.45,1.452,4.854.454,3.561v.136l.023.136-.113,4.7Z" fill="#812511"/>
              </g>
            </g>
            <g id="Group_40688" data-name="Group 40688" transform="translate(0 35.184)">
              <g id="Group_40687" data-name="Group 40687" transform="translate(0 0)">
                <path id="Path_37937" data-name="Path 37937" d="M14.788,21.656l-.045.023-1,.023-2.676-.272-1-.2q-.748-.2-1.066-.318-.045-.023-.567-.2l-.431-.159-.136-.068a7.934,7.934,0,0,1-1.134-.567q-.249-.136-1.134-.7a11.413,11.413,0,0,1-1.066-.885A10.811,10.811,0,0,1,3.561,17.3l-.544-.7-.068-.068L2.9,16.44l-.2-.295A8.91,8.91,0,0,1,1.973,14.9,14.851,14.851,0,0,1,.885,12.243L.272,9.567,0,6.414.34.381.408.041q0-.068.045-.023.068,0,.023.045L.7,6.959l.386,2.45q.113.635.272,1.293l.363,1.27q.227.68.476,1.27a13.521,13.521,0,0,0,.567,1.247,12.482,12.482,0,0,0,.68,1.157l.476.7,1.2,1.361,1.474,1.2q.181.113.522.34l.136.091.136.068.113.091,1.179.59,2.019.748.227.045.113.045,1,.249,2.722.431Q14.834,21.611,14.788,21.656Z" fill="#812511"/>
              </g>
            </g>
            <g id="Group_40690" data-name="Group 40690" transform="translate(0.572 15.723)">
              <g id="Group_40689" data-name="Group 40689" transform="translate(0 0)">
                <path id="Path_37938" data-name="Path 37938" d="M10.7,31.5l-.975-.227a7.463,7.463,0,0,1-.975-.408l-.408-.2L7.163,29.89l-1.021-.862L4.6,27.395l-.068-.113L3.443,25.875Q3.1,25.421,2.4,24.31L.109,19.955l-.091-.249q-.045-.045.023-.045.045-.045.045.023l.318.454.091.159.476.7.091.113.159.272L4.1,25.4l2.654,2.949,1.769,1.406.2.113.045.045.363.2L10,30.5q.249.091.839.249a7.144,7.144,0,0,0,.862.113h.5l.113-.023H12.4l.091-.023.386-.045.544-.136,1.089-.454L15.9,29.3l.045-.045.068-.045.181-.159q.045-.045.068,0,.045.023,0,.068l-.658.7a8.548,8.548,0,0,1-.885.7,5.028,5.028,0,0,1-1.293.68l-.817.249a6.677,6.677,0,0,1-.93.113L10.7,31.5m11-9.912-.023-.136L21.7,17.12l.113-.885.136-.567L22,15.555l.023-.113.045-.113a5.7,5.7,0,0,1,.408-.862,6.949,6.949,0,0,1,.567-.794,5.828,5.828,0,0,1,.7-.68l.181-.136.091-.091.386-.272.091-.045.612-.363,1-.454.2-.068.544-.249a5.334,5.334,0,0,0,.658-.34l.612-.363.522-.408.771-.862.136-.227.249-.59.159-.567V7.911l.023-.045V7.8L30,7.73l.045-.023.045.091v.5l-.023.091v.091l-.113.544a3.809,3.809,0,0,1-.2.5,3.481,3.481,0,0,1-.295.544l-.181.272-.227.249a3.472,3.472,0,0,1-.544.522l-1.316.907-1.588.771-.091.068-.181.091-.091.068-.091.045-.249.181-.091.045-.091.068-.068.068-.34.249a6.628,6.628,0,0,0-.567.59l-.5.658-.363.726-.023.091-.045.091-.2.771-.635,6.6a.04.04,0,0,1-.045.045l-.023-.023-.2-1.5v-.136M38.032,9.113l-.59.726a6.066,6.066,0,0,1-1.111,1.021l-.975.635-1.247.59-.091.023-.091.045-1.746.68-5.262,2.631-.136.091-.091.023-.2.136-.045.023-.023.023-.091.045-.272.181-.045.045-.2.136a7.125,7.125,0,0,0-.907.885l-.045.045-.567.817-.023.068-.045.045q-.227.431-.476,1.043a10.837,10.837,0,0,0-.476,1.951l-.159,2.949q.045.045-.023.045l-.045-.023-.181-1.406a14.217,14.217,0,0,1,0-1.61l.2-1.52.045-.136.023-.159.091-.272a7.376,7.376,0,0,1,.431-1.157,8.829,8.829,0,0,1,.7-1.111l.318-.408.136-.136.045-.068.272-.249.068-.045.272-.249.068-.045.068-.068.386-.272.023-.023,3.4-1.928.181-.068.159-.091,3.516-1.542.363-.113.023-.023.045-.023.091-.023.907-.408.068-.023,1.066-.635a8.4,8.4,0,0,0,1.021-.885l.34-.363.181-.272.091-.091V8.546l.2-.295.068-.136.091-.136.386-.839a7.585,7.585,0,0,0,.295-1.157,4.551,4.551,0,0,0,0-1.111V4.736L38.486,4.6V4.532l-.023-.068L37.67,1.356,37.6,1.22l-.045-.159-.386-1q-.045-.045.023-.045.045-.045.045.023l.454.817,1.2,3.107.023.136.045.136.023.113.023.068v.045l.023.045.045.295a4.165,4.165,0,0,1,.045,1.225V6.21l-.023.159v.068l-.023.091-.023.159-.023.045v.045l-.023.091-.023.159-.045.159-.068.159-.068.25-.045.091-.045.159L38.4,8.5l-.181.295-.068.159h-.023v.023L38.1,9l-.023.045Z" fill="#380a00"/>
              </g>
            </g>
            <g id="Group_40692" data-name="Group 40692" transform="translate(0.481 35.179)">
              <g id="Group_40691" data-name="Group 40691" transform="translate(0 0)">
                <path id="Path_37939" data-name="Path 37939" d="M7.685,13.768l-.136-.113-.726-.5-1.429-1.27L5.3,11.772l-.68-.7-1.52-2L1.719,6.578,1.651,6.4,1.56,6.237.494,3.107.426,2.835.041.567.018.045Q-.027,0,.041,0L.086.023,1.515,3.969,3.942,8.755l2.177,3.062L7.753,13.7v.068Z" fill="#380a00"/>
              </g>
            </g>
            <g id="Group_40694" data-name="Group 40694" transform="translate(12.588 28.924)">
              <g id="Group_40693" data-name="Group 40693" transform="translate(0 0)">
                <path id="Path_37940" data-name="Path 37940" d="M6.8,8.433,6.4,10.724a5.172,5.172,0,0,1-.272.907L5.33,13.287a7.985,7.985,0,0,1-.5.748l-.113.181-.045.045-.023.045-.068.068-.068.091-.817.771-.7.476-.045.023-.023.023-.091.045-.023.023-.136.068-.068.023-.159.091-.59.2a5.048,5.048,0,0,1-.975.181l-.612.068H.045Q0,16.508,0,16.44l.023-.045.817-.249a2.157,2.157,0,0,0,.408-.136l.476-.181a3.515,3.515,0,0,0,.522-.272l.249-.159.023-.023H2.54l.023-.023.068-.045.023-.023L2.7,15.26l.045-.045.522-.454a5.929,5.929,0,0,0,.5-.522l.113-.159.068-.068.045-.091.068-.068.885-1.61.023-.113.181-.386.272-.817.567-2.994V7.889l.023-.068.658-4.128.023-.045V3.6l.318-1.565L7.054,1.9V1.81h.023V1.742a6.064,6.064,0,0,1,.318-.93l.34-.726L7.78.041q0-.068.045-.023.068,0,.023.045V.132L7.78.29,7.485,1.674v.181H7.462V2.1L7.326,3.6,7.3,3.693v.091L7.122,5.757v.2L6.873,7.979v.045l-.023.068-.023.113Z" fill="#380a00"/>
              </g>
            </g>
            <g id="Group_40696" data-name="Group 40696" transform="translate(24.564 6.963)">
              <g id="Group_40695" data-name="Group 40695" transform="translate(0 0)">
                <path id="Path_37941" data-name="Path 37941" d="M0,17.283v-.045l1.293-1.27a.973.973,0,0,0,.181-.227l.227-.2.635-.771L2.4,14.7l.045-.068.59-.726q.839-1.2.907-1.338L5.035,10.66l.817-1.837,1.27-4.309L7.848.023,7.893,0l.023.045.068,1.293.023.113L7.939,3.493l-.068.544v.2l-.113.794-.68,2.994q-.249.794-.658,1.769-.408.907-.817,1.678l-.476.794-.045.091-.2.272-.113.2-.136.181q-.318.454-1.043,1.316L1.792,16.081a.973.973,0,0,0-.227.181l-1.5,1.043Q.045,17.329,0,17.283Z" fill="#380a00"/>
              </g>
            </g>
          </g>
          <g id="Group_40700" data-name="Group 40700" transform="translate(37.85 21.563)">
            <g id="Group_40699" data-name="Group 40699" transform="translate(0 0)">
              <g id="Group_40698" data-name="Group 40698">
                <path id="Path_37942" data-name="Path 37942" d="M3.467,6.977.014,3.524a.036.036,0,0,1,0-.058L3.467.014a.036.036,0,0,1,.058,0L6.977,3.467a.036.036,0,0,1,0,.058L3.524,6.977a.036.036,0,0,1-.058,0M6.862,3.5,3.5.129,3.524.1H3.467L3.5.129.129,3.5.1,3.467v.058L.129,3.5,3.5,6.862,6.862,3.5m-3.424.058H2.632L2.575,3.5l.058-.058h.806V2.632L3.5,2.575l.058.058v.806h.806l.058.058-.058.058H3.553v.806L3.5,4.416l-.058-.058Z" fill="rgba(0,0,0,0)"/>
              </g>
            </g>
          </g>
        </g>
        <g id="Group_40709" data-name="Group 40709" transform="translate(14371.565 -11665.883) rotate(-108.832)">
          <g id="Group_40703" data-name="Group 40703" transform="translate(0 0.302)">
            <g id="Group_40702" data-name="Group 40702" transform="translate(0 0)">
              <path id="Path_37943" data-name="Path 37943" d="M0,71.264l9.926,4.229Q14.5,62.317,24.484,46.925q9.926-15.392,12.774-27.015a57.734,57.734,0,0,0,.777-14.817L16.658,0a216.1,216.1,0,0,0-6.531,23.764Z" fill="#e2ad98"/>
            </g>
          </g>
          <g id="Group_40705" data-name="Group 40705" transform="translate(1.674 9.14)">
            <g id="Group_40704" data-name="Group 40704" transform="translate(0 0)">
              <path id="Path_37944" data-name="Path 37944" d="M12.135.052,8.712,10.869,5,30.75.6,51.666v.058L.57,51.81.023,54.6q-.058.058.029.058.058.058.058-.029L1,52.069l.086-.2v-.086L2.5,47.207,7.388,27.585q.4-2.5.432-2.618L8.913,17.4,12.222.081q.058-.058-.029-.058Q12.135-.035,12.135.052Z" fill="#c18770"/>
            </g>
          </g>
          <g id="Group_40708" data-name="Group 40708" transform="translate(23.75 0)">
            <g id="Group_40707" data-name="Group 40707">
              <g id="Group_40706" data-name="Group 40706">
                <path id="Path_37945" data-name="Path 37945" d="M3.467.014.014,3.467a.036.036,0,0,0,0,.058L3.467,6.977a.036.036,0,0,0,.058,0L6.977,3.524a.036.036,0,0,0,0-.058L3.524.014a.036.036,0,0,0-.058,0M6.862,3.5,3.5,6.862l.029.029H3.467L3.5,6.862.129,3.5.1,3.524V3.467L.129,3.5,3.5.129,6.862,3.5M3.438,3.438H2.632L2.575,3.5l.058.058h.806v.806l.058.058.058-.058V3.553h.806L4.416,3.5l-.058-.058H3.553V2.632L3.5,2.575l-.058.058Z" fill="rgba(0,0,0,0)"/>
              </g>
            </g>
          </g>
        </g>
        <g id="Group_40715" data-name="Group 40715" transform="matrix(0.136, -0.991, 0.991, 0.136, 14428.654, -11686.4)">
          <g id="Group_40711" data-name="Group 40711" transform="translate(0 0)">
            <g id="Group_40710" data-name="Group 40710" transform="translate(0 0)">
              <path id="Path_37946" data-name="Path 37946" d="M3.4,41.822l.1.1.025-.025L3.4,41.822m16.3-28.965Q17.561,2.7,8.447.138A3.675,3.675,0,0,0,5.426.621q-8.5,5.331-3.681,14.724,1.041,2.412,1.726,4.442a19.028,19.028,0,0,1,1.142,5.839,9.184,9.184,0,0,1-.406,2.716L2.964,31.287l-.152.558-.3,1.142A13.734,13.734,0,0,0,1.136,36.8a2.607,2.607,0,0,0,.051,1.269v.076a3.274,3.274,0,0,0,.279.66,2.066,2.066,0,0,0,.711.965.637.637,0,0,0,.254.152,9.566,9.566,0,0,0,2.539-1.6A15.76,15.76,0,0,0,7.407,35.78a15.8,15.8,0,0,0,1.98-3.122,25.954,25.954,0,0,0,1.32-3.046q.432-1.345.685-2.259.355-1.32.635-2.767.584-.762.685-.1a23.84,23.84,0,0,1-.1,2.691,21.324,21.324,0,0,1-2.462,8.174l-.558.965q-.228.355-.457.736-.254.381-.482.736H8.625a15.629,15.629,0,0,1-3.732,3.5,4.657,4.657,0,0,1-1.345.635H3.5L3.446,42a3.852,3.852,0,0,0,2.437,3.249l.254.1a11.766,11.766,0,0,0,3.148-1.879q.432-.406.889-.812a15.207,15.207,0,0,0,2.843-3.96q1.168-2.335,2.691-5.712A28.525,28.525,0,0,0,17.713,27q.533-2.589.635-3.173a8.345,8.345,0,0,1,.1,3.884v-.152A23.861,23.861,0,0,1,15.53,38.166a23.966,23.966,0,0,1-4.874,6.346l-.2.152L8.8,45.858q-.889.457-1.295.279a1.447,1.447,0,0,1-.254-.076l-1.6-.711.127.914q.355,2.209,1.549,2.285a6.074,6.074,0,0,0,1.65-.025,22.227,22.227,0,0,0,6.346-6.346,24.16,24.16,0,0,0,4.392-8.733,42.164,42.164,0,0,0,.939-4.392A27.483,27.483,0,0,1,18.449,38.8,14.428,14.428,0,0,0,16.7,43.675q-.025,1.388,2.259,1.955l.025.025a.2.2,0,0,1,.076.025,31.618,31.618,0,0,0,3.122-9.037,38.361,38.361,0,0,0,.584-10.129q-.127-1.7-.33-3.4A58.214,58.214,0,0,0,19.693,12.857Z" transform="translate(1.208 0)" fill="#e2ad98"/>
              <path id="Path_37947" data-name="Path 37947" d="M5.416,8.555a9.184,9.184,0,0,0,.406-2.716A19.028,19.028,0,0,0,4.679,0,9.9,9.9,0,0,1,4.07,2.437,10.907,10.907,0,0,1,2.953,4.468a13.21,13.21,0,0,1-1.7,2.005L.008,7.54a4.754,4.754,0,0,0,.2,1.752A3.623,3.623,0,0,0,3.664,11.5h.508L5.416,8.555m16.45.711a42.164,42.164,0,0,1-.939,4.392,24.16,24.16,0,0,1-4.392,8.733q0,2.919,1.625,3.173,1.574.2,2.005.279-2.285-.567-2.259-1.955a14.428,14.428,0,0,1,1.752-4.874,27.483,27.483,0,0,0,2.209-9.748m-2.209-1.5V7.92a8.345,8.345,0,0,0-.1-3.884q-.1.584-.635,3.173A28.525,28.525,0,0,1,16.915,13.2q-1.523,3.376-2.691,5.712a15.207,15.207,0,0,1-2.843,3.96q-.457.406-.889.812a11.766,11.766,0,0,1-3.148,1.879H6.863l1.6.711a1.447,1.447,0,0,0,.254.076q.406.178,1.295-.279l1.65-1.193.2-.152a23.966,23.966,0,0,0,4.874-6.346A23.861,23.861,0,0,0,19.657,7.768M13.92,4.7q-.1-.66-.685.1-.279,1.447-.635,2.767-.254.914-.685,2.259a25.954,25.954,0,0,1-1.32,3.046,15.8,15.8,0,0,1-1.98,3.122,15.76,15.76,0,0,1-2.437,2.539,9.566,9.566,0,0,1-2.539,1.6.637.637,0,0,1-.254-.152,2.066,2.066,0,0,1-.711-.965,3.274,3.274,0,0,1-.279-.66q.082.352.178.685a9.187,9.187,0,0,0,1.929,3.1.322.322,0,0,0,.152.076l.051-.076-.1-.1.127.076q.051-.127.076-.076h.2l-.254.1A4.657,4.657,0,0,0,6.1,21.5,15.629,15.629,0,0,0,9.833,18h.025q.228-.355.482-.736.228-.381.457-.736l.558-.965a21.324,21.324,0,0,0,2.462-8.174A23.839,23.839,0,0,0,13.92,4.7Z" transform="translate(0 19.787)" fill="#c18770"/>
            </g>
          </g>
          <g id="Group_40714" data-name="Group 40714" transform="translate(7.524 2.839)">
            <g id="Group_40713" data-name="Group 40713" transform="translate(0 0)">
              <g id="Group_40712" data-name="Group 40712">
                <path id="Path_37948" data-name="Path 37948" d="M3.467.014.014,3.467a.036.036,0,0,0,0,.058L3.467,6.977a.036.036,0,0,0,.058,0L6.977,3.525a.036.036,0,0,0,0-.058L3.525.014a.036.036,0,0,0-.058,0M6.862,3.5,3.5,6.862l.029.029H3.467L3.5,6.862.129,3.5.1,3.525V3.467L.129,3.5,3.5.129,6.862,3.5M3.438,3.438H2.633L2.575,3.5l.058.058h.806v.806l.058.058.058-.058V3.553h.806L4.417,3.5l-.058-.058H3.553V2.633L3.5,2.575l-.058.058Z" fill="rgba(0,0,0,0)"/>
              </g>
            </g>
          </g>
        </g>
      </g>
    </g>
  </g>
</svg>
