<svg xmlns="http://www.w3.org/2000/svg" xmlns:xlink="http://www.w3.org/1999/xlink" width="375" height="270" viewBox="0 0 375 270">
  <defs>
    <clipPath id="clip-path">
      <rect id="Rectangle_8652" data-name="Rectangle 8652" width="375" height="270" transform="translate(16824 -11926)" fill="#fff" stroke="#707070" stroke-width="1" opacity="0.59"/>
    </clipPath>
    <clipPath id="clip-path-2">
      <path id="Path_74929" data-name="Path 74929" d="M0,0H264V223H64.254s6.376,35.016-3.883,35.016H23.955L0,223Z" transform="translate(63 111)" fill="#fff"/>
    </clipPath>
  </defs>
  <g id="Mask_Group_16585" data-name="Mask Group 16585" transform="translate(-16824 11926)" clip-path="url(#clip-path)">
    <g id="Mask_Group_16576" data-name="Mask Group 16576" transform="translate(16824 -12026)" clip-path="url(#clip-path-2)">
      <g id="female_teen_6" data-name="female teen 6" transform="translate(470.375 943.646)">
        <g id="Group_102640" data-name="Group 102640" transform="translate(-157.783 -697.472) rotate(104.767)">
          <g id="Group_102626" data-name="Group 102626" transform="translate(0.16 7.025)">
            <g id="Group_102625" data-name="Group 102625" transform="translate(0 0)">
              <path id="Path_74826" data-name="Path 74826" d="M0,4.666,18.962.018,24.813,25.74,7.85,31.9Z" fill="#e2ad98"/>
            </g>
          </g>
          <g id="Group_102628" data-name="Group 102628" transform="translate(0 0)">
            <g id="Group_102627" data-name="Group 102627" transform="translate(0 0)">
              <path id="Path_74827" data-name="Path 74827" d="M19.482,9.787a9.433,9.433,0,0,1-2.856,6.92,9.329,9.329,0,0,1-6.872,2.84,9.448,9.448,0,0,1-6.9-2.853A9.512,9.512,0,0,1,.009,9.769a9.391,9.391,0,0,1,2.83-6.894A9.371,9.371,0,0,1,9.737.009a9.322,9.322,0,0,1,6.877,2.878A9.384,9.384,0,0,1,19.482,9.787Z" transform="translate(0 0)" fill="#e2ad98"/>
            </g>
          </g>
          <g id="Group_102631" data-name="Group 102631" transform="translate(6.39 28.705)">
            <g id="Group_102630" data-name="Group 102630" transform="translate(0 0)">
              <g id="Group_102629" data-name="Group 102629">
                <path id="Path_74828" data-name="Path 74828" d="M2.571,16.02,0,4.5Q9.226-.274,17.659.034L20.07,9.78Z" fill="#c18770"/>
              </g>
            </g>
          </g>
          <g id="Group_102633" data-name="Group 102633" transform="translate(1.357 30.2)">
            <g id="Group_102632" data-name="Group 102632" transform="translate(0 0)">
              <path id="Path_74829" data-name="Path 74829" d="M43.246,61.812a13.324,13.324,0,0,1-9.809,4.068,13.458,13.458,0,0,1-9.843-4.086,13.754,13.754,0,0,1-3.558-6.029h-.026Q13.743,34.9.008,8.466,15.154-.494,35.931.064a279.106,279.106,0,0,1,11.343,50.6h-.026q.052.633.052,1.282A13.5,13.5,0,0,1,43.246,61.812Z" fill="#7a2230"/>
            </g>
          </g>
          <g id="Group_102636" data-name="Group 102636" transform="translate(16.665 30.117)">
            <g id="Group_102635" data-name="Group 102635" transform="translate(0 0)">
              <g id="Group_102634" data-name="Group 102634">
                <path id="Path_74830" data-name="Path 74830" d="M29.6,35.847q.051.051-.026.051l-.051-.026L25.656,25.279,18.836,2.274,14.9,2.116.053,2.256A.045.045,0,0,1,0,2.205l.026-.026,4.906-.944L14.822.014,20.7.071l4.949,17.594Z" fill="#4b0f18"/>
              </g>
            </g>
          </g>
          <g id="Group_102639" data-name="Group 102639" transform="translate(31.673 79.039)">
            <g id="Group_102638" data-name="Group 102638" transform="translate(0 0)">
              <g id="Group_102637" data-name="Group 102637">
                <path id="Path_74831" data-name="Path 74831" d="M6.2,3.147,3.136,6.221a.032.032,0,0,1-.051,0L.016,3.141a.032.032,0,0,1,0-.051L3.079.016a.032.032,0,0,1,.051,0L6.2,3.1a.032.032,0,0,1,0,.051M3.105.118,3.131.093H3.079l.026.026-2.987,3L.092,3.09v.051l.026-.026,2.993,3,2.987-3-2.993-3M3.16,3.887l-.051.051-.051-.051V3.169H2.341L2.29,3.117l.051-.051h.716V2.349L3.107,2.3l.051.051v.718h.716l.051.051-.051.051H3.159Z" fill="rgba(0,0,0,0)"/>
              </g>
            </g>
          </g>
        </g>
        <g id="Group_102647" data-name="Group 102647" transform="translate(-187.969 -756.642) rotate(5.339)">
          <g id="Group_102642" data-name="Group 102642" transform="translate(0 0)">
            <g id="Group_102641" data-name="Group 102641" transform="translate(0)">
              <path id="Path_74832" data-name="Path 74832" d="M0,3.756,8.849,0a119.312,119.312,0,0,0,12.969,25.37q8.844,13.668,11.38,23.99a51.085,51.085,0,0,1,.688,13.16l-19.059,4.53a191.27,191.27,0,0,1-5.815-21.1Z" fill="#e2ad98"/>
            </g>
          </g>
          <g id="Group_102644" data-name="Group 102644" transform="translate(1.489 10.635)">
            <g id="Group_102643" data-name="Group 102643" transform="translate(0 0)">
              <path id="Path_74833" data-name="Path 74833" d="M10.8,48.517,7.753,38.91,4.45,21.254.533,2.678V2.627L.507,2.55.02.072Q-.031.02.046.02.1-.031.1.046L.892,2.32.969,2.5v.077L2.224,6.638,6.578,24.064q.358,2.223.384,2.325l.972,6.72,2.944,15.382q.051.051-.026.051Q10.8,48.593,10.8,48.517Z" fill="#c18770"/>
            </g>
          </g>
          <g id="Group_102646" data-name="Group 102646" transform="translate(21.19 61.141)">
            <g id="Group_102645" data-name="Group 102645" transform="translate(0 0)">
              <path id="Path_74834" data-name="Path 74834" d="M3.077,3.832V3.065h.769m-.769,0V2.3m3.078.766L3.078,0,0,3.066,3.076,6.132Zm-3.847,0h.769" transform="translate(0 0)" fill="none" stroke="rgba(0,0,0,0)" stroke-linecap="round" stroke-linejoin="round" stroke-width="0.079"/>
            </g>
          </g>
        </g>
        <g id="Group_102652" data-name="Group 102652" transform="translate(-209.696 -746.589) rotate(-73.176)">
          <g id="Group_102649" data-name="Group 102649" transform="translate(0 0)">
            <g id="Group_102648" data-name="Group 102648">
              <path id="Path_74835" data-name="Path 74835" d="M12.937.809,14.291.015Q14.471.22,14.6.4a2.961,2.961,0,0,1,.463,3.027,1.276,1.276,0,0,1-.486-.539A3.93,3.93,0,0,0,12.937.809m9.593,5.755a3.169,3.169,0,0,0-.744-2.642,5.91,5.91,0,0,1-1.075-1l-.357.923-.2-.128a2.67,2.67,0,0,0-.436-1.437,7.777,7.777,0,0,0-.666-.821q-.026-.026-.384-.359-.23-.205-.589-.539a3.3,3.3,0,0,0,.435.334q.588.437.665.514,4.6,1.621,4.072,6.288a.539.539,0,0,0-.076.282l-1.912,5.179a30.951,30.951,0,0,0,.789-3.487,15.363,15.363,0,0,0,.482-3.1M6.189,1.468,8.284.24a3.3,3.3,0,0,1-.021,4.18q-.077-.436-.129-.923A2.314,2.314,0,0,0,6.189,1.468M2.082,10.7a14.258,14.258,0,0,0-.226,4.078H1.805A12.7,12.7,0,0,0,.624,9.644l.535-1.41L.008,7.412Q2.181,7.8,2.433,4.286q1.585.181-.072,4.514A6.472,6.472,0,0,1,2.082,10.7Z" transform="translate(1.872 0.316)" fill="#c18770"/>
              <path id="Path_74836" data-name="Path 74836" d="M3.728,15.09a14.258,14.258,0,0,1,.226-4.078,6.472,6.472,0,0,0,.279-1.9Q5.89,4.782,4.3,4.6,4.053,8.115,1.879,7.728l1.151.822L2.5,9.96A12.7,12.7,0,0,1,3.677,15.09Q.659,14.01.452,11.753.22,9.547.04,8.521A4.266,4.266,0,0,1,.727,5.88a1.365,1.365,0,0,1,.255-.359A5.892,5.892,0,0,1,2.9,3.651a3.481,3.481,0,0,1,.255-.282A4.872,4.872,0,0,1,7.677,1.63a2.246,2.246,0,0,0,.384.154,2.314,2.314,0,0,1,1.945,2.028q.052.487.129.923a3.3,3.3,0,0,0,.021-4.18L11.587.4a3.888,3.888,0,0,1,3.222.722A3.93,3.93,0,0,1,16.447,3.2a1.276,1.276,0,0,0,.486.539A2.961,2.961,0,0,0,16.47.716q-.128-.18-.307-.385a3.653,3.653,0,0,1,4.219.876,3.3,3.3,0,0,1-.435-.334q.358.334.589.539.358.334.384.359a7.777,7.777,0,0,1,.666.821,2.67,2.67,0,0,1,.436,1.437l.2.128.357-.923a5.91,5.91,0,0,0,1.075,1A3.169,3.169,0,0,1,24.4,6.879a15.364,15.364,0,0,1-.482,3.1,30.952,30.952,0,0,1-.789,3.487l1.912-5.179a3.43,3.43,0,0,1,2.1,1.362,3.534,3.534,0,0,1,.256.334,1.41,1.41,0,0,1,.1.872l-2.447,6.768Q18.953,27.9,13.226,27.847,4.122,25.478,3.728,15.09Z" fill="#e2ad98"/>
            </g>
          </g>
          <g id="Group_102651" data-name="Group 102651" transform="translate(11.403 19.792)">
            <g id="Group_102650" data-name="Group 102650" transform="translate(0 0)">
              <path id="Path_74837" data-name="Path 74837" d="M3.072,3.85V3.081h.767m-.767,0V2.311m3.069.773L3.068,0,0,3.078,3.074,6.159ZM2.3,3.08h.767" fill="none" stroke="rgba(0,0,0,0)" stroke-linecap="round" stroke-linejoin="round" stroke-width="0.079"/>
            </g>
          </g>
        </g>
        <g id="Group_102661" data-name="Group 102661" transform="translate(-299.773 -663.849) rotate(8.272)">
          <g id="Group_102654" data-name="Group 102654" transform="translate(0.049 3.63)">
            <g id="Group_102653" data-name="Group 102653" transform="translate(0 0)">
              <path id="Path_74838" data-name="Path 74838" d="M76,28.817H75.92A32.571,32.571,0,0,0,66.258,9.958,33.023,33.023,0,0,0,42.047-.023,33.04,33.04,0,0,0,17.824,9.984,32.641,32.641,0,0,0,7.806,33.378H7.755L-.054,98.689Q50.7,118.24,84.4,94.63Z" transform="translate(0 0)" fill="#ece7de"/>
            </g>
          </g>
          <g id="Group_102657" data-name="Group 102657" transform="translate(0 0)">
            <g id="Group_102656" data-name="Group 102656" transform="translate(0)">
              <g id="Group_102655" data-name="Group 102655">
                <path id="Path_74839" data-name="Path 74839" d="M55.076,5.772l-4.384-5.8-24.013,1.5L14.305,17.424,9.606,26.5A71.471,71.471,0,0,0,7.47,38.337L-.056,102.267a128.785,128.785,0,0,0,34.961,8.723Q2.559,101.878,16.452,32.657q2.468-14.819,11.5-20.991A57.075,57.075,0,0,1,55.076,5.772Z" fill="#d8cdc7"/>
              </g>
            </g>
          </g>
          <g id="Group_102660" data-name="Group 102660" transform="translate(41.183 102.718)">
            <g id="Group_102659" data-name="Group 102659" transform="translate(0 0)">
              <g id="Group_102658" data-name="Group 102658">
                <path id="Path_74840" data-name="Path 74840" d="M6.219,3.077,3.143.011a.032.032,0,0,0-.051,0L.011,3.08a.032.032,0,0,0,0,.051L3.088,6.2a.032.032,0,0,0,.051,0l3.08-3.069a.032.032,0,0,0,0-.051M3.114,6.094l.026.026H3.088l.026-.026-3-2.989-.026.026V3.08l.026.026,3-2.992,3,2.989-3,2.992m.053-3.757-.051-.051-.051.051v.716H2.346L2.294,3.1l.051.051h.718v.716l.051.051.051-.051V3.155h.718L3.936,3.1l-.051-.051H3.167Z" fill="rgba(0,0,0,0)"/>
              </g>
            </g>
          </g>
        </g>
        <g id="Group_102687" data-name="Group 102687" transform="matrix(0.992, -0.127, 0.127, 0.992, -320.415, -699.61)">
          <g id="Group_102663" data-name="Group 102663" transform="translate(26.896 0.013)">
            <g id="Group_102662" data-name="Group 102662" transform="translate(0 0)">
              <path id="Path_74841" data-name="Path 74841" d="M40.074,7.365a76.768,76.768,0,0,0-7.912-4.136,36.061,36.061,0,0,0-6.324-2.146Q22.959.454,20.155.01A19.06,19.06,0,0,0,14.6.8q-2.662.891-5.3,1.732l-.665.255a72.866,72.866,0,0,0-8.6,4.052q-.154-.153.385,1.2.615,1.531,1.2,2.73a20.782,20.782,0,0,0,3.1,3.93,55.606,55.606,0,0,0,5.686,5.385q3.15,2.6,6.453,4.875a42.423,42.423,0,0,0,6.248,3.625,61.061,61.061,0,0,0,7.374,2.682q1.023-2.627,1.688-3.978a45.018,45.018,0,0,0,2.684-7.166q1.048-3.707,1.891-6.81A15.737,15.737,0,0,1,40.074,7.365Z" transform="translate(0)" fill="#e2ad98"/>
            </g>
          </g>
          <g id="Group_102665" data-name="Group 102665" transform="translate(56.223 3.726)">
            <g id="Group_102664" data-name="Group 102664" transform="translate(0 0)">
              <path id="Path_74842" data-name="Path 74842" d="M4.91,1.15,4.782.028,4.731,0,4.705.053l-.1,1.1v.281l-.026.153v.153L4.323,4.8v.1L4.3,5.027,4.171,6.3V6.43l-.026.051v.077L3,14.056,1.438,20.611.033,25.406q-.051.051.026.051.051.051.051-.025l1.355-2.907.026-.1.051-.1L3.51,16.327l.026-.153.051-.128,1.3-7.881.048-6.581-.026-.153Z" transform="translate(0)" fill="#c18770"/>
            </g>
          </g>
          <g id="Group_102667" data-name="Group 102667" transform="translate(0.231 15.466)">
            <g id="Group_102666" data-name="Group 102666" transform="translate(0 0)">
              <path id="Path_74843" data-name="Path 74843" d="M27.826,13.873a13.376,13.376,0,0,0-4.1-9.823A13.407,13.407,0,0,0,13.91.007,13.513,13.513,0,0,0,4.056,4.041,13.416,13.416,0,0,0,.007,13.86a13.311,13.311,0,0,0,4.058,9.783,13.472,13.472,0,0,0,9.858,4.084,13.316,13.316,0,0,0,9.814-4.074A13.221,13.221,0,0,0,27.826,13.873Z" fill="#ece7de"/>
            </g>
          </g>
          <g id="Group_102669" data-name="Group 102669" transform="translate(6.761 5.513)">
            <g id="Group_102668" data-name="Group 102668" transform="translate(0 0)">
              <path id="Path_74844" data-name="Path 74844" d="M57.011,5.154q-.639,2.55-1.2,5.866a61.135,61.135,0,0,1-1.584,6.835A30.871,30.871,0,0,1,50.8,25.506q-.256.408-.486.842a18.52,18.52,0,0,1-5.888-1.482q-2.637-1.2-5.1-2.63-2.381-1.4-4.712-2.987a40.206,40.206,0,0,1-4.738-3.828,38.638,38.638,0,0,1-3.97-4.517,34.92,34.92,0,0,1-3.177-5.026A38.617,38.617,0,0,1,20.71,1.209Q20.479.6,20.3.01,16.112,4.148.006,11.963.314,15,.521,18.085q.232,3.291.438,6.556.155,2.551.284,5,.129,2.092.258,4.209.181,3.035.413,6.1.258,3.291.438,6.556.181,2.857.464,5.688l.617,6.02q.367,3.268.643,6.632.3,3.367.515,6.76t.361,5.714q.166,2.342.437,4.03a23.805,23.805,0,0,1,1.893-2.652q1.15-1.356,2.865-3.748t3.658-5.074q1.407-1.989,2.968-3.978a60.872,60.872,0,0,1,4.912-5.533,46.344,46.344,0,0,1,5.143-4.385,38.666,38.666,0,0,1,5.349-3.211,25.975,25.975,0,0,1,4.044-1.605A24.415,24.415,0,0,1,42.9,50.3a22.78,22.78,0,0,1,4.787.972,29.786,29.786,0,0,1,7.758,3.855,33.864,33.864,0,0,1,5.506,4.7,70.665,70.665,0,0,1,4.867,5.716,63.5,63.5,0,0,1,4.2,6.175q1.768,2.96,3.587,6a2.276,2.276,0,0,1,.205.816q.076-1.275.1-2.882.025-2.143.1-5.459t.023-6.326a40.277,40.277,0,0,1,.126-5,17.418,17.418,0,0,1,.485-3.061,34.918,34.918,0,0,1,1.227-3.519,27.5,27.5,0,0,0,1.456-6.223,13.781,13.781,0,0,0-.618-6.709q-1.1-2.883-1.9-5.766a18.632,18.632,0,0,1-.8-4.26q.053-1.3.049-3.928a44.4,44.4,0,0,0-.464-6.148,7.718,7.718,0,0,1,1.277-5.866q1.788-2.372,1.2-3.264a13.513,13.513,0,0,0-2.254-2.373,16.368,16.368,0,0,0-5.07-2.808q-3.406-1.3-6.683-2.477A15.992,15.992,0,0,1,57.7.334,24.109,24.109,0,0,1,57.011,5.154Z" transform="translate(0 0)" fill="#ece7de"/>
            </g>
          </g>
          <g id="Group_102672" data-name="Group 102672" transform="translate(8.235 35.332)">
            <g id="Group_102671" data-name="Group 102671" transform="translate(0 0)">
              <g id="Group_102670" data-name="Group 102670">
                <path id="Path_74845" data-name="Path 74845" d="M16.63,34.851q-5.136-11.44-3.773-21.377A65.371,65.371,0,0,0,18.61.009Q.221,8.359,0,6.862l3.759,45.1Z" fill="#d8cdc7"/>
              </g>
            </g>
          </g>
          <g id="Group_102677" data-name="Group 102677" transform="translate(0.003 6.657)">
            <g id="Group_102674" data-name="Group 102674" transform="translate(62.897 0.03)">
              <g id="Group_102673" data-name="Group 102673" transform="translate(0 0)">
                <path id="Path_74846" data-name="Path 74846" d="M17.907,27.965,20.253,9.192a17.6,17.6,0,0,0-5.967-4.849Q9.178,2.616,3.046,0L0,9.234Q18.679,17.9,17.907,27.965Z" transform="translate(0)" fill="#7a2230"/>
              </g>
            </g>
            <g id="Group_102676" data-name="Group 102676" transform="translate(0.001 1.046)">
              <g id="Group_102675" data-name="Group 102675" transform="translate(0 0)">
                <path id="Path_74847" data-name="Path 74847" d="M28.3,24.348a97.924,97.924,0,0,1,6.8-10.786L24.089.012A87.347,87.347,0,0,1,16.1,4.956Q3.973,10.637,3.565,12.3a13.465,13.465,0,0,0-2.814,4.82A24.31,24.31,0,0,0,.011,21.4q.046.945.13,3.444.1,2.526,4.15,6.557a13.473,13.473,0,0,0,9.858,4.086,13.363,13.363,0,0,0,9.828-4.076,13.491,13.491,0,0,0,1.484-1.734l.051.026.153-.281Q26.175,28.5,28.3,24.348Z" fill="#7a2230"/>
              </g>
            </g>
          </g>
          <g id="Group_102679" data-name="Group 102679" transform="translate(22.043 3.301)">
            <g id="Group_102678" data-name="Group 102678" transform="translate(0 0)">
              <path id="Path_74848" data-name="Path 74848" d="M44.62,3.108A10.035,10.035,0,0,0,38.834.019,61.3,61.3,0,0,1,34.366,25.83Q14.217,19.75,6.17,1.049A11.333,11.333,0,0,0,0,4.821Q10,24.313,36.648,32.183,41.15,26.216,44.62,3.108Z" fill="#7a2230"/>
            </g>
          </g>
          <g id="Group_102681" data-name="Group 102681" transform="translate(22.03 3.301)">
            <g id="Group_102680" data-name="Group 102680" transform="translate(0 0)">
              <path id="Path_74849" data-name="Path 74849" d="M28.339,28.71q-.563-.23-1.664-.766L22.3,25.671l-6.325-4.033q-1.613-1.149-3.432-2.629L9.031,15.87,5.164,11.736l-.128-.179-.871-1.021-.051-.1-.256-.306L.092,4.846q-.051-.026-.077,0-.026.051,0,.077L2.167,8.674l3.3,4.542,3.3,3.649q1.383,1.429,3.124,2.909,1.869,1.557,3.457,2.705l4.148,2.706L23.219,27.2l5.633,2.5.1.026.1.051,7.6,2.376q.051.051.051-.025.051-.051-.026-.051L28.339,28.71M39.154,1.192,38.949.044,38.9.019,38.872.07,38.7,7.033,37.65,15.042l-1.584,6.045L34.89,24.4l-.077.128L34.3,25.881q-.051.051.026.051.051.051.051-.025l1.228-2.142,2.25-5.56q.434-1.454.639-2.346l.255-1.224q.23-1.173.23-1.25l.332-2.474q.127-1.071.178-2.423l.05-1.709Z" fill="#4b0f18"/>
            </g>
          </g>
          <g id="Group_102683" data-name="Group 102683" transform="translate(30.801 9.618)">
            <g id="Group_102682" data-name="Group 102682" transform="translate(0 0)">
              <path id="Path_74850" data-name="Path 74850" d="M18.337,17.443,22.2,18.72l2.048.435q.051.051.051-.025.051-.051-.026-.051L19.8,17.342l-.128-.077-3.277-1.634q-1-.587-1.127-.689l-.461-.255-.128-.1-1.2-.766L9.707,10.96l-.128-.128-.154-.1L6.1,7.515,3.381,4.427,3.3,4.3l-.1-.1L2,2.666l-.051-.1-.154-.179L.077.013Q.026-.013,0,.013V.089L1.537,2.845l.077.1.051.1.845,1.3Q3.535,5.779,3.945,6.315L5.2,7.872l3.842,3.853,2.049,1.633,3.1,2.042.154.077.154.1.615.332.077.051.077.026Z" transform="translate(0 0)" fill="#a84657"/>
            </g>
          </g>
          <g id="Group_102686" data-name="Group 102686" transform="translate(43.213 82.652)">
            <g id="Group_102685" data-name="Group 102685" transform="translate(0 0)">
              <g id="Group_102684" data-name="Group 102684">
                <path id="Path_74851" data-name="Path 74851" d="M6.209,3.077,3.136.014a.032.032,0,0,0-.051,0L.014,3.074a.032.032,0,0,0,0,.051L3.088,6.187a.032.032,0,0,0,.051,0l3.07-3.059a.032.032,0,0,0,0-.051m-3.1,3.008.026.026H3.088l.026-.025L.117,3.1l-.026.025V3.074L.117,3.1,3.11.116l3,2.986L3.113,6.085m.049-3.75-.051-.051-.051.051V3.05H2.344L2.293,3.1l.051.051h.717v.714l.051.051.051-.051V3.152H3.88L3.931,3.1,3.88,3.05H3.163Z" fill="rgba(0,0,0,0)"/>
              </g>
            </g>
          </g>
        </g>
        <g id="Group_102698" data-name="Group 102698" transform="matrix(1, -0.02, 0.02, 1, -287.702, -740.752)">
          <g id="Group_102689" data-name="Group 102689" transform="translate(0.001 9.696)">
            <g id="Group_102688" data-name="Group 102688" transform="translate(0 0)">
              <path id="Path_74852" data-name="Path 74852" d="M24.222,41.789l.1-40.663L2.8,0,0,38.439Q18.5,50.248,24.222,41.789Z" fill="#e2ad98"/>
            </g>
          </g>
          <g id="Group_102691" data-name="Group 102691" transform="translate(2.603 0)">
            <g id="Group_102690" data-name="Group 102690" transform="translate(0 0)">
              <path id="Path_74853" data-name="Path 74853" d="M3.164,3.152A10.375,10.375,0,0,0,0,10.785a10.378,10.378,0,0,0,3.165,7.633,10.458,10.458,0,0,0,7.663,3.153A10.455,10.455,0,0,0,18.49,18.42a10.375,10.375,0,0,0,3.164-7.633,10.378,10.378,0,0,0-3.165-7.633A10.458,10.458,0,0,0,10.827,0,10.455,10.455,0,0,0,3.164,3.152Z" transform="translate(0)" fill="#e2ad98"/>
            </g>
          </g>
          <g id="Group_102694" data-name="Group 102694" transform="translate(2.284 8.112)">
            <g id="Group_102693" data-name="Group 102693" transform="translate(0 0)">
              <g id="Group_102692" data-name="Group 102692" transform="translate(0 0)">
                <path id="Path_74854" data-name="Path 74854" d="M22.066,29.419,21.987,0,.308,1.278,0,8.434Q8.468,26.555,22.066,29.419Z" fill="#c18770"/>
              </g>
            </g>
          </g>
          <g id="Group_102697" data-name="Group 102697" transform="translate(8.611 49.682)">
            <g id="Group_102696" data-name="Group 102696" transform="translate(0 0)">
              <g id="Group_102695" data-name="Group 102695">
                <path id="Path_74855" data-name="Path 74855" d="M6.222,3.08,3.143.013a.032.032,0,0,0-.051,0L.013,3.08a.032.032,0,0,0,0,.051L3.092,6.2a.032.032,0,0,0,.051,0L6.222,3.131a.032.032,0,0,0,0-.051M3.118,6.1l.026.026H3.092L3.118,6.1l-3-2.991L.09,3.131V3.08l.026.026,3-2.99,3,2.991-3,2.99m.051-3.757-.051-.051-.051.051v.716H2.348L2.3,3.105l.051.051h.718v.716l.051.051.051-.051V3.157h.718l.051-.051-.051-.051H3.169Z" fill="rgba(0,0,0,0)"/>
              </g>
            </g>
          </g>
        </g>
        <g id="Group_102828" data-name="Group 102828" transform="translate(-296.008 -819.301) rotate(9.866)">
          <g id="Group_102701" data-name="Group 102701" transform="translate(14.031 24.371)">
            <g id="Group_102700" data-name="Group 102700" transform="translate(0 0)">
              <g id="Group_102699" data-name="Group 102699">
                <path id="Path_74856" data-name="Path 74856" d="M52.465,7.685Q44.4.121,31.194-.018A29.835,29.835,0,0,0,8.988,8.823,29.552,29.552,0,0,0-.02,30.489q0,12.679,10.149,21.518,10.175,8.86,29.5,8.97,19.353.14,19.489-9.841T59.9,28.2Q60.553,15.255,52.465,7.685Z" fill="#e2ad98"/>
              </g>
            </g>
          </g>
          <g id="Group_102704" data-name="Group 102704" transform="translate(17.616 58.661)">
            <g id="Group_102703" data-name="Group 102703" transform="translate(0 0)">
              <g id="Group_102702" data-name="Group 102702" transform="translate(0)">
                <path id="Path_74857" data-name="Path 74857" d="M59.892,11.388Q60.4,6.706,54.23-.035L.2,3.246Q-1.039,17.28,5.165,24.689q8.574,15.981,34.746,22.932Q55.363,34.243,59.892,11.388Z" fill="#e2ad98"/>
              </g>
            </g>
          </g>
          <g id="Group_102723" data-name="Group 102723" transform="translate(34.15 57.521)">
            <g id="Group_102709" data-name="Group 102709" transform="translate(27.452 3.912)">
              <g id="Group_102706" data-name="Group 102706" transform="translate(0 0)">
                <g id="Group_102705" data-name="Group 102705">
                  <path id="Path_74858" data-name="Path 74858" d="M6.739,4.38a4.933,4.933,0,0,0-.994-3.11A2.909,2.909,0,0,0,3.371,0,2.961,2.961,0,0,0,.979,1.273,5,5,0,0,0,0,4.385,4.92,4.92,0,0,0,.975,7.478a2.942,2.942,0,0,0,2.39,1.289A2.907,2.907,0,0,0,5.741,7.475,4.875,4.875,0,0,0,6.739,4.38Z" fill="#231915"/>
                </g>
              </g>
              <g id="Group_102708" data-name="Group 102708" transform="translate(2.586 5.656)">
                <g id="Group_102707" data-name="Group 102707" transform="translate(0 0)">
                  <path id="Path_74859" data-name="Path 74859" d="M1.628,1.026A1.242,1.242,0,0,0,1.363.281.665.665,0,0,0,.782,0,.712.712,0,0,0,.217.315,1.276,1.276,0,0,0,0,1.093a1.122,1.122,0,0,0,.265.728.7.7,0,0,0,.6.3.659.659,0,0,0,.548-.331A1.169,1.169,0,0,0,1.628,1.026Z" fill="#fff"/>
                </g>
              </g>
            </g>
            <g id="Group_102711" data-name="Group 102711" transform="translate(25.712 1.133)">
              <g id="Group_102710" data-name="Group 102710" transform="translate(0 0)">
                <path id="Path_74860" data-name="Path 74860" d="M8.939.038a35.148,35.148,0,0,0-3.549,0Q3.153.166,2.51,1.477A35.456,35.456,0,0,1,0,5.615q.05.5,1.372.6,1.327.13,3.047.232,1.749.1,4.252.131a8.726,8.726,0,0,0,4.152-1A25.151,25.151,0,0,0,8.939.038Z" transform="translate(0 0)" fill="#e2ad98"/>
              </g>
            </g>
            <g id="Group_102713" data-name="Group 102713" transform="translate(25.876 6.715)">
              <g id="Group_102712" data-name="Group 102712" transform="translate(0 0)">
                <path id="Path_74861" data-name="Path 74861" d="M8.838,1.262l.134-.033h.134l1.473-.2.2-.067.6-.134.6-.234L12.12.526l.1-.067.067-.033.067-.067.067-.033.067-.067v-.1h-.134l-.034.033h-.134L12.12.226h-.234a3.321,3.321,0,0,1-.569.034L10.078.16H9.81L9.575.127,6.5.1,6.361.129.2,0,.067.033,0,.1.033.133l.3.133.1.067,2.41.8,1.64.266,1.774.066.167-.033H7L7.164,1.4h.268Z" transform="translate(0 0)" fill="#231915"/>
              </g>
            </g>
            <g id="Group_102718" data-name="Group 102718" transform="translate(3.144 4.461)">
              <g id="Group_102715" data-name="Group 102715" transform="translate(0 0)">
                <g id="Group_102714" data-name="Group 102714">
                  <path id="Path_74862" data-name="Path 74862" d="M6.739,4.38a4.933,4.933,0,0,0-.994-3.11A2.909,2.909,0,0,0,3.371,0,2.961,2.961,0,0,0,.979,1.273,5,5,0,0,0,0,4.385,4.92,4.92,0,0,0,.975,7.478a2.942,2.942,0,0,0,2.39,1.289A2.907,2.907,0,0,0,5.741,7.475,4.875,4.875,0,0,0,6.739,4.38Z" fill="#231915"/>
                </g>
              </g>
              <g id="Group_102717" data-name="Group 102717" transform="translate(2.586 5.656)">
                <g id="Group_102716" data-name="Group 102716" transform="translate(0 0)">
                  <path id="Path_74863" data-name="Path 74863" d="M1.628,1.026A1.242,1.242,0,0,0,1.363.281.665.665,0,0,0,.782,0,.712.712,0,0,0,.217.315,1.276,1.276,0,0,0,0,1.093a1.122,1.122,0,0,0,.265.728.7.7,0,0,0,.6.3.659.659,0,0,0,.548-.331A1.169,1.169,0,0,0,1.628,1.026Z" fill="#fff"/>
                </g>
              </g>
            </g>
            <g id="Group_102720" data-name="Group 102720" transform="translate(0.469 0)">
              <g id="Group_102719" data-name="Group 102719" transform="translate(0 0)">
                <path id="Path_74864" data-name="Path 74864" d="M11.784,2.42A17.7,17.7,0,0,0,9.341.62,3.866,3.866,0,0,0,6.395.089,6.314,6.314,0,0,0,3.146,2.126,23.4,23.4,0,0,0,0,6.732q.557.159,1.239.366.712.2,3.381.732a11.906,11.906,0,0,0,5.123-.037,12.5,12.5,0,0,1,3.717-.4,5.108,5.108,0,0,0,2.612-.435A4.3,4.3,0,0,0,15,5.321Q13.423,3.854,11.784,2.42Z" fill="#e2ad98"/>
              </g>
            </g>
            <g id="Group_102722" data-name="Group 102722" transform="translate(-0.004 6.571)">
              <g id="Group_102721" data-name="Group 102721" transform="translate(0 0)">
                <path id="Path_74865" data-name="Path 74865" d="M13.157,1.286l2.378-.6.837-.3.034-.067L16.338.283,10.044.354,9.81.387l-7.3-.1L2.21.225H2.076L1.908.192l-.6-.066L1.138.093H1L.7.06H.536L.368.026h-.3Q0-.04,0,.06L.033.127l.87.4L1.038.56l.7.3.167.033.134.067.3.1H2.41l5.658.664Z" transform="translate(0 0)" fill="#231915"/>
              </g>
            </g>
          </g>
          <g id="Group_102728" data-name="Group 102728" transform="translate(54.917 56.128)">
            <g id="Group_102725" data-name="Group 102725" transform="translate(0.103 0)">
              <g id="Group_102724" data-name="Group 102724" transform="translate(0 0)">
                <path id="Path_74866" data-name="Path 74866" d="M12.173,19.934a7.179,7.179,0,0,0-4.332-5.851Q5.169,8.561,6.49.818q-2.333-1.877-5.336.54L-.014,21.093Q6.41,25.651,12.173,19.934Z" fill="#e2ad98"/>
              </g>
            </g>
            <g id="Group_102727" data-name="Group 102727" transform="translate(0 0.694)">
              <g id="Group_102726" data-name="Group 102726" transform="translate(0 0)">
                <path id="Path_74867" data-name="Path 74867" d="M6.334,3.14,6.593.047Q6.644,0,6.567,0L6.516.021l-.7,3.758L5.742,7.614l.026.051.178,1.764L6,9.659v.1l.333,1.457.077.2.051.23.282.869.1.2.615,1.482a.467.467,0,0,0,.282.255h.026l1.128.459.539.281,1,.715.128.077v.026h.026l.077.077.051.026v.026h.026l.026.051.051.051h.026l.026.026.231.307.051.1.2.562v.077l.051.256v.435l-.026.128v.077l-.026.077v.128l-.051.153v.1l-.026.026v.077l-.231.588-.308.46-.411.46a4.551,4.551,0,0,1-.924.767,11.985,11.985,0,0,1-1.078.64l-.128.077-.154.051-.128.077-.154.051L7.708,22l-.359.128-.128.026a4.7,4.7,0,0,1-1.206.18H5.706l-1.539-.2-.616-.179A10.423,10.423,0,0,1,2.346,21.5q-.385-.153-1.154-.562a4.189,4.189,0,0,1-.564-.306l-.564-.306q-.077-.077-.077.026V20.4l1.077.766a12.491,12.491,0,0,0,1.1.689l1.205.587,1.436.459.846.127h.257l.1.026A6.388,6.388,0,0,0,7.4,22.924l.59-.179.051-.026h.026l.154-.077.18-.051.308-.154a4.311,4.311,0,0,0,.59-.307l.59-.333a7.673,7.673,0,0,0,1.1-.844l.488-.537.411-.588.308-.69.051-.179v-.077l.026-.026V18.78l.051-.179.026-.179v-.077l.026-.1.026-.179v-.537l-.051-.383v-.1l-.128-.46-.077-.179-.051-.051-.026-.1-.051-.077-.051-.1-.333-.46-.051-.026-.026-.051-.256-.255-.051-.026-.026-.026-.154-.128-1.128-.766-1.231-.587-.436-.153-.589-1.3L6.843,9.581v-.1l-.051-.2L6.537,7.767V7.639l-.026-.026V7.537L6.46,7.1Z" fill="#c18770"/>
              </g>
            </g>
          </g>
          <g id="Group_102731" data-name="Group 102731" transform="translate(29.963 51.785) rotate(-11.892)">
            <g id="Group_102730" data-name="Group 102730" transform="translate(0 0)">
              <g id="Group_102729" data-name="Group 102729" transform="translate(0)">
                <path id="Path_74868" data-name="Path 74868" d="M0,2.838l.836-.387a11.043,11.043,0,0,1,5.792-.892,20.608,20.608,0,0,1,4.359,1.071,8.9,8.9,0,0,1,1.4.565q.448.238,1.314.8a.832.832,0,0,0,.627.208.224.224,0,0,1-.03.119,1.18,1.18,0,0,0-.06-.982,2.668,2.668,0,0,0-.9-1.279,8.4,8.4,0,0,0-2.508-1.4A14.818,14.818,0,0,0,5.016.042a7.854,7.854,0,0,0-3.135.981A19.078,19.078,0,0,0,0,2.838Z" transform="translate(3.583 0)" fill="#540e00"/>
                <path id="Path_74869" data-name="Path 74869" d="M3.762,1.071l-.239.178q-.075.058-.149.119a.163.163,0,0,1-.06.03.265.265,0,0,1-.06.059.315.315,0,0,1-.06.059,2.329,2.329,0,0,1-.209.149.06.06,0,0,1-.03.03.246.246,0,0,1-.06.059.133.133,0,0,1-.06.03.061.061,0,0,1-.06.03L1.225,3.45A9.537,9.537,0,0,0,0,5.384,8.5,8.5,0,0,1,1.046,4.343,13.116,13.116,0,0,1,3.434,2.826a12.882,12.882,0,0,1,5.941-1.4,13.894,13.894,0,0,1,6.091,1.339q1.971.952,2.329.655l.03-.03.06-.089a.224.224,0,0,0,.03-.119.832.832,0,0,1-.627-.208q-.866-.565-1.314-.8a8.9,8.9,0,0,0-1.4-.565A20.608,20.608,0,0,0,10.211.537a11.043,11.043,0,0,0-5.792.892l-.836.387A19.078,19.078,0,0,1,5.464,0,14.325,14.325,0,0,0,3.762,1.071Z" transform="translate(0 1.023)" fill="#2b0700"/>
              </g>
            </g>
          </g>
          <g id="Group_102734" data-name="Group 102734" transform="matrix(-0.976, 0.218, -0.218, -0.976, 72.905, 56.898)">
            <g id="Group_102733" data-name="Group 102733" transform="translate(0 0)">
              <g id="Group_102732" data-name="Group 102732">
                <path id="Path_74870" data-name="Path 74870" d="M0,1.423l.589.37a5.983,5.983,0,0,0,4.081.854A11.457,11.457,0,0,0,7.741,1.623a5.47,5.47,0,0,0,.989-.54q.315-.228.925-.768.261-.252.442-.2A.276.276,0,0,0,10.076,0a1.5,1.5,0,0,1-.042.939A2.683,2.683,0,0,1,9.4,2.164,5.716,5.716,0,0,1,7.636,3.5a7.873,7.873,0,0,1-4.1.6,4.562,4.562,0,0,1-2.209-.939A16.523,16.523,0,0,1,0,1.423Z" transform="translate(2.525 1.992)" fill="#540e00"/>
                <path id="Path_74871" data-name="Path 74871" d="M2.651,4.126l-.168-.171Q2.43,3.9,2.378,3.841a.107.107,0,0,0-.042-.028.232.232,0,0,0-.042-.057A.278.278,0,0,0,2.251,3.7,1.76,1.76,0,0,0,2.1,3.557a.053.053,0,0,0-.021-.028.215.215,0,0,0-.042-.057A.087.087,0,0,0,2,3.443a.041.041,0,0,0-.042-.028L.863,1.849A10.036,10.036,0,0,1,0,0,7.475,7.475,0,0,0,.736,1,9.451,9.451,0,0,0,2.42,2.447,7.2,7.2,0,0,0,6.606,3.785,7.708,7.708,0,0,0,10.9,2.506q1.388-.91,1.641-.626l.021.028.042.085a.276.276,0,0,1,.021.114q-.181-.053-.442.2-.61.54-.925.768a5.47,5.47,0,0,1-.989.54A11.457,11.457,0,0,1,7.195,4.639a5.983,5.983,0,0,1-4.081-.854l-.589-.37A16.523,16.523,0,0,0,3.85,5.15,10.256,10.256,0,0,1,2.651,4.126Z" fill="#2b0700"/>
              </g>
            </g>
          </g>
          <g id="Group_102739" data-name="Group 102739" transform="matrix(0.999, -0.034, 0.034, 0.999, 47.826, 83.958)">
            <g id="Group_102736" data-name="Group 102736" transform="translate(0.383 1.831)">
              <g id="Group_102735" data-name="Group 102735" transform="translate(0 0)">
                <path id="Path_74872" data-name="Path 74872" d="M17.623,2.869q0-.123-.073-.041l-3.47.616H13.9l-.146.041-2.667.042-.219-.041L9.441,3.365l-.11-.041h-.11l-.183-.041L8.2,3.2,6.993,2.916l-.365-.123-.219-.041-.183-.082L2.684,1.4l-.146-.082L2.392,1.28l-.256-.164L1.187.666,1,.544.822.462.128.053Q.018-.07.018.094a.055.055,0,0,0,0,.082L.383.544l.11.082L.639.79l.73.614.767.491.11.123,1.424.777a13.789,13.789,0,0,0,1.461.655h.037l.146.082L6.335,3.9l2.739.654h.219l.657.082,1.717.04.219-.041h.4l3.178-.7.548-.246.256-.082.913-.41.4-.246Q17.7,2.951,17.623,2.869Z" fill="#231915"/>
              </g>
            </g>
            <g id="Group_102738" data-name="Group 102738" transform="translate(0 0)">
              <g id="Group_102737" data-name="Group 102737" transform="translate(0)">
                <path id="Path_74873" data-name="Path 74873" d="M1.9,0H1.607L1.388.122,1.242.163,1.169.2,1.1.286.8.532.657.7H.621V.737L.511.86.4,1.106l-.146.2-.22.737L0,2.293l.036.983.146.7.109.246v.041L.327,4.3l.036.082L.4,4.423l.073.041.037-.082.037-.041v-.41l.037-.164V3.317l.037-.082v-.2l.037-.2v-.2l.037-.082V2.416l.073-.287L.8,2.047V1.924l.11-.287L.949,1.6V1.556l.11-.246L1.1,1.187l.073-.082L1.241.941,1.5.532l.365-.41Z" fill="#c18770"/>
              </g>
            </g>
          </g>
          <g id="Group_102771" data-name="Group 102771" transform="translate(0 0)">
            <g id="Group_102741" data-name="Group 102741" transform="translate(0 0)">
              <g id="Group_102740" data-name="Group 102740">
                <path id="Path_74874" data-name="Path 74874" d="M.778,21.149q2.079,7.113,10.066,11.139a85.674,85.674,0,0,0,13.164,5.594q5.177,1.569,7.123-4.721a89.242,89.242,0,0,0,2.84-12.094q.914-5.785-2.479-13.723Q28.078-.615,16.791.038,5.484.67,2.1,7.363A18.131,18.131,0,0,0,.778,21.149Z" fill="#540e00"/>
              </g>
            </g>
            <g id="Group_102744" data-name="Group 102744" transform="translate(10.248 14.936)">
              <g id="Group_102743" data-name="Group 102743" transform="translate(0 0)">
                <g id="Group_102742" data-name="Group 102742">
                  <path id="Path_74875" data-name="Path 74875" d="M25.491,23.1,23.422-.015Q5.889,1.923-.011,16.869L12.422,27.684Z" fill="#380a00"/>
                </g>
              </g>
            </g>
            <g id="Group_102746" data-name="Group 102746" transform="translate(2.507 12.466)">
              <g id="Group_102745" data-name="Group 102745" transform="translate(0 0)">
                <path id="Path_74876" data-name="Path 74876" d="M.077.036q0-.06-.04-.02-.061,0-.02.04V.7l.02.1L.418,3.926l.908,3.2.222.524.04.141.182.4a17.639,17.639,0,0,0,1.091,2.136L4.417,12.67,6.56,15.087l.121.1.849.826.121.081.1.1,1.941,1.551,3.8,2.335,1.031.5q.04,0,.04-.02.04-.04-.02-.04L11.554,18.45,8.238,15.671l-2.607-2.78-1.112-1.45L2.943,8.922l-.02-.081-.04-.06L1.974,6.867l-.04-.06L.944,4.026l-.02-.121-.04-.1Z" fill="#380a00"/>
              </g>
            </g>
            <g id="Group_102748" data-name="Group 102748" transform="translate(6.112 4.603)">
              <g id="Group_102747" data-name="Group 102747" transform="translate(0 0)">
                <path id="Path_74877" data-name="Path 74877" d="M.077.036q0-.06-.04-.02-.061,0-.02.04V.621L.377,4.45l.5,2.539.686,2.257q.4,1.108.808,1.995l.3.6.04.06.02.06.667,1.189.3.443a.218.218,0,0,0,.081.1l.061.121.626.846a.218.218,0,0,1,.081.1.218.218,0,0,1,.081.1l.667.745.1.081.081.1.424.423.1.06,1.031.866L9.45,18.552l1.173.422q.04.04.04-.02.04-.04-.02-.04l-.222-.121L7.53,16.86,5.892,15.249,5.205,14.4l-.061-.1-.081-.1-.97-1.471A16.747,16.747,0,0,1,3.1,10.9l-.323-.725L1.509,6.565.46,2.112.44,1.951.4,1.81Z" fill="#380a00"/>
              </g>
            </g>
            <g id="Group_102750" data-name="Group 102750" transform="translate(10.437 3.871)">
              <g id="Group_102749" data-name="Group 102749" transform="translate(0 0)">
                <path id="Path_74878" data-name="Path 74878" d="M5.942,7.433l1.131,2.2.061.1.121.3.1.181.707,1.753L9.455,16.7q0,.06.04.02.061,0,.02-.04V16.46l-.181-1.733-.04-.141-.06-.464-.585-2.458L7.842,9.407l-.061-.1L7.6,8.883q-.364-.826-.828-1.652l-1.657-2.5L4.286,3.706,2.507,1.893l-.869-.725-.1-.1-.93-.7L.465.282.061,0H0V.06L1.294,1.329l.04.06L2.628,2.78a1.7,1.7,0,0,0,.243.282L4.447,5.076Z" transform="translate(0 0)" fill="#380a00"/>
              </g>
            </g>
            <g id="Group_102752" data-name="Group 102752" transform="translate(17.171 6.416)">
              <g id="Group_102751" data-name="Group 102751" transform="translate(0 0)">
                <path id="Path_74879" data-name="Path 74879" d="M.061.01Q.04-.01,0,.01v.06L1.313,1.964l.141.242a11.457,11.457,0,0,1,.626,1.068l.747,1.572.061.181.081.161L3.495,6.88l.02.04.02.06.081.363q.141.705.242,1.491l.1,2.418-.02.081-.1,1.27v.141l-.487,2.7q-.04.04.02.04l.04-.02.446-1.008.486-1.613.02-.161.183-.867v-.081l.061-.363v-.081l.02-.081v-.181q0-.04.061-.746V9.238l-.02-.1-.02-.383L4.4,7.162q-.2-.826-.444-1.531L3.617,4.8,3.6,4.724,2.244,2.407,1.516,1.48Z" transform="translate(0 0)" fill="#380a00"/>
              </g>
            </g>
            <g id="Group_102754" data-name="Group 102754" transform="translate(1.936 19.963)">
              <g id="Group_102753" data-name="Group 102753" transform="translate(0 0)">
                <path id="Path_74880" data-name="Path 74880" d="M2.4,3.663l-.04-.081L2.3,3.521,2.219,3.38l-.1-.121-.04-.06-.061-.06-.505-.766-.061-.121L.077.036q0-.06-.04-.02-.061,0-.02.04l.04.181L.6,1.668l1.05,2.075.1.141.04.081.828,1.249L4.259,7.128l.081.06.829.785a14.294,14.294,0,0,0,1.152.886l2.285,1.349.081.02.121.06,2.1.744q.04.04.04-.02l-.02-.04L7.555,8.9,5.7,7.369a6.362,6.362,0,0,1-.526-.483Z" fill="#380a00"/>
              </g>
            </g>
            <g id="Group_102756" data-name="Group 102756" transform="translate(26.901 5.16)">
              <g id="Group_102755" data-name="Group 102755" transform="translate(0 0)">
                <path id="Path_74881" data-name="Path 74881" d="M1.172,1.178l-.162-.161L.889.856.061.01Q.04-.01,0,.01v.06L.081.212.2.373.263.494l1.758,2.9.061.141.646,1.209.02.081.081.141L4.121,8.533l.1.383.02.161.04.141.1.544v.081L4.5,10.85v.262l.02.141V12.3l-.041.4v.181l-.081.786q-.04.04.02.04l.04-.02.142-.343.426-1.955v-.141l.02-.141v-.141l.02-.06L4.95,8.774,4.688,7.585a12.226,12.226,0,0,0-.444-1.35l-.02-.081-.04-.081-.99-2.055-.04-.06-.04-.081Z" transform="translate(0 0)" fill="#380a00"/>
              </g>
            </g>
            <g id="Group_102758" data-name="Group 102758" transform="translate(13.659 1.313)">
              <g id="Group_102757" data-name="Group 102757" transform="translate(0 0)">
                <path id="Path_74882" data-name="Path 74882" d="M11.4,7.708l-.263-.443-.02-.06a9.475,9.475,0,0,0-.667-.967L10.287,6l-.1-.121-.04-.06L8.913,4.485a19.64,19.64,0,0,0-1.739-1.41L6.163,2.431,3.312,1.022l-.2-.06L2.928.881.057.016q-.04-.04-.04.02-.04.04.02.04L1.512.7,5.9,3.056,8.063,4.767l.061.04.04.06.2.181A13.9,13.9,0,0,1,9.8,6.7a11.962,11.962,0,0,1,1.152,1.874,12.913,12.913,0,0,1,.767,1.975l.423,1.955a12.068,12.068,0,0,1,.181,1.794l-.164,3.749q-.04.04.02.04l.04-.02.467-2.217.143-2.116L12.65,11.4l-.565-2.116a9.937,9.937,0,0,0-.424-1.048L11.6,8.091,11.52,7.97Z" fill="#380a00"/>
              </g>
            </g>
            <g id="Group_102760" data-name="Group 102760" transform="translate(19.34 -0.004)">
              <g id="Group_102759" data-name="Group 102759" transform="translate(0 0)">
                <path id="Path_74883" data-name="Path 74883" d="M14.513,15.731l-.423-3.265-.545-2.136a18.258,18.258,0,0,0-.666-1.914l-1.071-2.2L10.7,4.588,9.141,2.937l-.384-.3-.04-.06L7.361,1.648A11.766,11.766,0,0,0,5.5.782L4.166.36,2.589.079,2.225.059Q1.557,0,1.052,0L.04.04A.036.036,0,0,0,0,.081L.02.1l1.4.18H1.5L1.557.3l.3.04L3.539.723l.081.04,1.658.583a14.52,14.52,0,0,1,1.7.926,8.42,8.42,0,0,1,.829.584l.4.322.061.04.344.3a14.015,14.015,0,0,1,1.435,1.571,14.764,14.764,0,0,1,1.212,1.773L12.211,8.7q.384.866.747,1.834l1.493,5.219q0,.06.04.02Q14.553,15.771,14.513,15.731Z" transform="translate(0)" fill="#812511"/>
              </g>
            </g>
            <g id="Group_102762" data-name="Group 102762" transform="translate(0.078 8.759)">
              <g id="Group_102761" data-name="Group 102761" transform="translate(0 0)">
                <path id="Path_74884" data-name="Path 74884" d="M1.416.015q-.04-.04-.04.02L.544,2.777.118,5.317.057,6.1q0,.04-.061,1.109l.08,1.774.02.161v.141l.242,1.532a15.557,15.557,0,0,0,.686,2.438q.081.242.485,1.189l.323.645.04.06.3.564.081.121.141.282,1.7,2.3,1.233,1.309L7.51,21.536l.323.221a12.769,12.769,0,0,0,1.092.725l.991.584q.061.06.061-.02.02,0,0-.04L7.895,21.354,4.7,18.091,3.388,16.218a10.851,10.851,0,0,1-.606-1.027,16.3,16.3,0,0,1-.99-2.2q-.283-.766-.384-1.169l-.3-1.169A18.563,18.563,0,0,1,.763,8.339l-.04-.282L.683,6.667l-.02-.06.02-.081L.7,5.095,1.436.056Q1.477.015,1.416.015Z" fill="#380a00"/>
              </g>
            </g>
            <g id="Group_102764" data-name="Group 102764" transform="translate(15.213 1.292)">
              <g id="Group_102763" data-name="Group 102763" transform="translate(0 0)">
                <path id="Path_74885" data-name="Path 74885" d="M9.826,6.782a14.367,14.367,0,0,1,.869,1.612l.343.806.706,2.277.585,3.2.04.02.02-.04.041-.685-.4-3.748-.04-.1-.464-1.592L10.372,6.157,9.321,4.746,8.634,4a8,8,0,0,0-.728-.665l-.768-.624-1.6-.987-.789-.382L2.568.538,1.942.378Q1.294.217.93.157L.04.016Q0-.024,0,.036l.02.04.849.3.222.06L3.579,1.445l.081.04.081.06.364.161L6.127,2.914l1.092.846,1.5,1.511Z" transform="translate(0 0)" fill="#812511"/>
              </g>
            </g>
            <g id="Group_102766" data-name="Group 102766" transform="translate(12.829 2.503)">
              <g id="Group_102765" data-name="Group 102765" transform="translate(0 0)">
                <path id="Path_74886" data-name="Path 74886" d="M5.415,3.217A15.471,15.471,0,0,1,6.708,4.385q.647.725,1.132,1.39L8.77,7.306l.343.806a6.4,6.4,0,0,1,.3.826l.444,1.773.221,1.935.019,2.418q-.04.04.02.04l.04-.02.183-.847.184-2.64-.06-.967-.02-.1v-.1l-.222-1.27L9.579,7.185l-.061-.1-.04-.1a7.8,7.8,0,0,0-.444-.846L7.76,4.364l-.323-.342-.081-.1L5.86,2.632q-.829-.584-1.435-.926L2.726.881.279.056.057.016q-.04-.04-.04.02-.04.04.02.04L4.08,2.23Q4.828,2.734,5.415,3.217Z" fill="#812511"/>
              </g>
            </g>
            <g id="Group_102768" data-name="Group 102768" transform="translate(8.637 4.074)">
              <g id="Group_102767" data-name="Group 102767" transform="translate(0 0)">
                <path id="Path_74887" data-name="Path 74887" d="M.081,0,.061.04,0,1.794a8.965,8.965,0,0,0,.08,1.229l.484,2.62L1.249,7.7A17.114,17.114,0,0,0,2,9.33,17.061,17.061,0,0,0,2.865,10.9l1.94,2.74.667.765.061.081L7.918,16.8q.04.04.061,0,.04-.02,0-.06L5.9,14.064,5.836,14,4.644,12.291l-.1-.181-.121-.161L2.6,8.786,1.372,5.824a7.36,7.36,0,0,1-.242-.766l-.1-.282L.867,4.131.807,3.97.363,1.753l-.04-.121V1.511L.2.665.182.584V.5L.121.02Z" fill="#812511"/>
              </g>
            </g>
            <g id="Group_102770" data-name="Group 102770" transform="translate(3.156 9.341)">
              <g id="Group_102769" data-name="Group 102769" transform="translate(0 0)">
                <path id="Path_74888" data-name="Path 74888" d="M.036.016q-.061,0-.02.04L.357,4.53.639,6.143q.081.484.383,1.713.222.786.545,1.733l1.05,2.519.424.766a12.308,12.308,0,0,0,.93,1.37l.728.886.95.906,1.173.846L7.044,17l.061.02.283.161q.061.06.061-.02v-.04l-.323-.242L5.912,15.753,4.679,14.2l-.04-.081L4.477,13.9a15.808,15.808,0,0,1-.788-1.39l-.061-.081-.02-.04-.02-.06-.1-.181L1.973,8.278.238.862.218.681.077.036Q.077-.024.036.016Z" fill="#812511"/>
              </g>
            </g>
          </g>
          <g id="Group_102796" data-name="Group 102796" transform="translate(5.199 17.284)">
            <g id="Group_102773" data-name="Group 102773" transform="translate(0.103 0.056)">
              <g id="Group_102772" data-name="Group 102772" transform="translate(0 0)">
                <path id="Path_74889" data-name="Path 74889" d="M34.381.139A33.732,33.732,0,0,0,24.125.71,31.13,31.13,0,0,0,13.159,5.534,19.166,19.166,0,0,0,10.083,8.4q-.709.827-1.356,1.694-.668.847-1.3,1.714-.4.565-.769,1.149A45.39,45.39,0,0,0,2.652,21.4,48.527,48.527,0,0,0,.218,31.28a25.867,25.867,0,0,0,.459,9.492A65.26,65.26,0,0,0,5.261,52.6a62.235,62.235,0,0,0,7.863,7.412A11.95,11.95,0,0,0,17.66,52.39q4.593-33.52,23.122-35.285Q52.7,7.242,70.372,18.94A39.972,39.972,0,0,0,57.535,8.086a91.041,91.041,0,0,0-12.78-5.635A48.962,48.962,0,0,0,34.381.139Z" fill="#380a00"/>
              </g>
            </g>
            <g id="Group_102775" data-name="Group 102775" transform="translate(0.103 0.056)">
              <g id="Group_102774" data-name="Group 102774" transform="translate(0 0)">
                <path id="Path_74890" data-name="Path 74890" d="M34.381.139A33.732,33.732,0,0,0,24.125.71,31.13,31.13,0,0,0,13.159,5.534,19.166,19.166,0,0,0,10.083,8.4q-.709.827-1.356,1.694-.668.847-1.3,1.714-.4.565-.769,1.149A45.39,45.39,0,0,0,2.652,21.4,48.527,48.527,0,0,0,.218,31.28a25.867,25.867,0,0,0,.459,9.492A65.26,65.26,0,0,0,5.261,52.6a62.235,62.235,0,0,0,7.863,7.412q4.3,0,8.451-24.876Q14.042,9.182,40.682,13.941q4.081-8.973,8.946-9.619-2.547-1.083-4.873-1.871A48.962,48.962,0,0,0,34.381.139Z" fill="#540e00"/>
              </g>
            </g>
            <g id="Group_102777" data-name="Group 102777" transform="translate(17.48 2.053)">
              <g id="Group_102776" data-name="Group 102776" transform="translate(0 0)">
                <path id="Path_74891" data-name="Path 74891" d="M17.184,3.291l-1.242-.876-.155-.077-.129-.1-.311-.155a8.892,8.892,0,0,0-1.216-.618l-.155-.077-.155-.051-.155-.077L11.1.431,10.765.38,10.61.329,6.856,0,6.571.022q-.414,0-1.139.052l-4.221.7L.046,1.135q-.078,0-.026.052,0,.077.052.026l3-.337a2.86,2.86,0,0,0,.44-.026,2.86,2.86,0,0,0,.44-.026L6,.8a4.2,4.2,0,0,1,.544.025l2.641.256H9.34l.155.051,1.217.231.6.18a13.337,13.337,0,0,1,2.407.85,16.99,16.99,0,0,1,2.226,1.237l1.967,1.495a7.538,7.538,0,0,1,.854.825q.285.258.8.825l1.009,1.212a2.525,2.525,0,0,1,.31.413l.155.18,2.224,3.481q0,.077.052.026.078,0,.026-.052L22.9,10.9a13.61,13.61,0,0,0-.595-1.264L20.987,7.365,19.409,5.328l-2.1-1.959Z" transform="translate(0)" fill="#380a00"/>
              </g>
            </g>
            <g id="Group_102779" data-name="Group 102779" transform="translate(23.902 -0.015)">
              <g id="Group_102778" data-name="Group 102778" transform="translate(0 0)">
                <path id="Path_74892" data-name="Path 74892" d="M6.079,0a3.929,3.929,0,0,0-.518.026L2.428.334.046.825Q-.032.826.02.877.02.954.072.9L5.095.745A3.669,3.669,0,0,1,5.587.77l3.262.1L14.8,1.59l8.309,1.981.181.077,2.3.7q.052.052.052-.026.052-.052-.026-.052l-.259-.155-5.1-2.138-.1-.052L20.033,1.9l-2.148-.644-2.3-.54q-.854-.18-2.433-.437Q11.49.07,10.687.045Z" fill="#812511"/>
              </g>
            </g>
            <g id="Group_102781" data-name="Group 102781" transform="translate(-0.01 15.458)">
              <g id="Group_102780" data-name="Group 102780" transform="translate(0 0)">
                <path id="Path_74893" data-name="Path 74893" d="M5.463.017q-.052-.052-.052.026l-.752,1.29-.078.181-.441.774L2.663,5.54l-.182.49-.052.1L1.6,8.559l-.078.181L.769,11.6q-.39,1.858-.6,3.535L-.013,20.5l.541,4.772,1.292,4.643,1.887,4.255L5.775,37.5a.023.023,0,0,0,.026.026.032.032,0,0,0,.052,0v-.052l-.931-2.141L4.845,35.1l-.1-.206L3.6,31.827q-.491-1.548-.827-2.811L1.951,25.12v-.1L1.591,22v-.232l-.026-.206L1.49,18.31l.026-.1.339-4.437v-.1l.026-.1.883-4.7.026-.181L5.489.069Q5.54.017,5.463.017Z" transform="translate(0 0)" fill="#380a00"/>
              </g>
            </g>
            <g id="Group_102783" data-name="Group 102783" transform="translate(7.604 12.172)">
              <g id="Group_102782" data-name="Group 102782" transform="translate(0 0)">
                <path id="Path_74894" data-name="Path 74894" d="M.259,0,.233.026l-.13.98v.129L.077,1.29l-.052.851L0,2.322l.152,4.54v.155L.409,8.693l.052.155.9,3.4.078.155.646,1.625.233.464a23.016,23.016,0,0,0,1.371,2.424l.595.851.052.052.44.619a.279.279,0,0,1,.1.129l.44.49a.279.279,0,0,0,.1.129l.543.593.052.077,2.018,1.882.543.412a.758.758,0,0,0,.207.18,2.569,2.569,0,0,0,.414.284l.181.155.052.026.052.052.1.052,3.106,1.83q.078.077.078-.026v-.052L9.927,22.463a2.175,2.175,0,0,1-.362-.309l-1.941-1.83L6.046,18.493a19.317,19.317,0,0,1-1.5-2.114L3.02,13.593l-.052-.155-.595-1.393-.336-.928-.026-.155L1.366,8.822,1.005,7.016.954,6.887.311.051A.046.046,0,0,0,.259,0Z" transform="translate(0)" fill="#380a00"/>
              </g>
            </g>
            <g id="Group_102785" data-name="Group 102785" transform="translate(6.154 12.152)">
              <g id="Group_102784" data-name="Group 102784" transform="translate(0 0)">
                <path id="Path_74895" data-name="Path 74895" d="M1.735.02q-.052-.052-.052.026L1.242,1.439a15.831,15.831,0,0,0-.415,1.6l-.078.232L.021,7.708l-.029,4.386L.3,14.441l.1.387.026.206.491,1.728q.362,1.032.594,1.522l.336.722,1.216,2.037a13.92,13.92,0,0,0,.957,1.212l.647.7.052.077.078.052.906.877.078.052.052.052.285.232a17.139,17.139,0,0,0,2.122,1.469L10.6,27l2.485.9q.052.052.052-.026.052-.052-.026-.052L8.579,25.245,7.855,24.7l-.1-.1-.129-.077-.983-.851a12.11,12.11,0,0,1-.957-.954,9.483,9.483,0,0,1-.931-1.057L4.1,20.785l-.129-.129L3.9,20.5a14.155,14.155,0,0,1-.776-1.289L2.939,18.9l-.491-1.032a12.96,12.96,0,0,1-.543-1.419l-.388-1.29-.026-.181q-.181-.7-.31-1.5l-.052-.181L.822,10.184l0-2.425.365-4.154.052-.232.182-1.342.052-.181L1.76.071Q1.812.019,1.735.02Z" transform="translate(0 0)" fill="#380a00"/>
              </g>
            </g>
            <g id="Group_102787" data-name="Group 102787" transform="translate(32.647 1.351)">
              <g id="Group_102786" data-name="Group 102786" transform="translate(0 0)">
                <path id="Path_74896" data-name="Path 74896" d="M11.156,4.012a5.669,5.669,0,0,0-1.009-.876l-1.216-.8q-.518-.283-1.32-.644a10.358,10.358,0,0,0-1.346-.541A12.9,12.9,0,0,0,4.893.74L4.246.56,1.476.1.725.046.57.02H.052Q0-.031,0,.046L.026.1,6.238,2.209l.155.077.155.051,1.294.593L8,2.982l.078.052.078.026L9.6,3.884q.336.206,1.035.722l.647.541.1.1.1.077.414.438.078.1.155.155.336.464.052.052.026.052.026.026.207.309.052.1.1.129q0,.077.052.026.052-.026.026-.052l-.026-.181-.078-.206-.026-.129-.078-.181V6.41l-.052-.077-.052-.181L12.5,5.765a3.788,3.788,0,0,0-.543-.851l-.31-.413Z" transform="translate(0)" fill="#380a00"/>
              </g>
            </g>
            <g id="Group_102789" data-name="Group 102789" transform="translate(13.226 5.75)">
              <g id="Group_102788" data-name="Group 102788" transform="translate(0 0)">
                <path id="Path_74897" data-name="Path 74897" d="M8.024,2.931l-.1-.052L7.739,2.75l-.207-.1L7.455,2.57,5.8,1.72l-.078-.052-1.76-.7L3.779.9.673.1.052.021Q0-.031,0,.046L.026.1.233.2.466.278.6.356.776.407,5.047,2.339l.155.1.1.052.078.052q.854.464,1.423.825l.1.052.078.077,1.294.9.078.077.336.258,1.32,1.315.517.619a9.7,9.7,0,0,1,.8,1.264l.1.181.026.077.052.077.155.309.052.155.078.155.052.155.026.052.052.077.1.31v.026l.052.1.026.155.078.206.026.052.232.954.026.206.052.181v.077l.026.077.077.464.052.026.026-.052.052-.464-.051-1.574-.026-.052V9.79l-.052-.31V9.4L12.6,9.351V9.325l-.077-.335L12.5,8.913V8.835l-.31-.98-.052-.077L12.06,7.6a9.6,9.6,0,0,0-.776-1.444l-.052-.1-.078-.077-.517-.722-.466-.49A9.66,9.66,0,0,0,8.826,3.523l-.362-.258A2,2,0,0,0,8.1,3.008Z" fill="#380a00"/>
              </g>
            </g>
            <g id="Group_102791" data-name="Group 102791" transform="translate(22.115 0.682)">
              <g id="Group_102790" data-name="Group 102790" transform="translate(0 0)">
                <path id="Path_74898" data-name="Path 74898" d="M20.83,9.454q.052-.026,0-.077L19.821,8.191,16.458,4.968l-2.795-2.01q-.828-.515-1.967-1.082Q10.738,1.412,9.651,1L8.978.768,8.849.742,8.46.614,8.409.588H8.331L7.554.382A14.383,14.383,0,0,0,5.535.074L5.3.048H5.173L5.121.023H4.6L4.474,0l-.1.026L2.894.076,1.289.335,1.03.412a1.728,1.728,0,0,0-.414.1L.305.593.046.7Q-.032.7.02.748q0,.077.052.026L1.91.644,2.066.618,3.9.668,4.318.72h.129l.1.026L4.991.8h.1l.337.077q1.01.18,1.89.412l.129.026.052.026H7.58l.544.18.052.026.129.026.233.1.129.026,1.967.8.129.077,1.682.85.1.077.129.052,3.442,2.242,4.632,3.66Q20.8,9.506,20.83,9.454Z" fill="#812511"/>
              </g>
            </g>
            <g id="Group_102793" data-name="Group 102793" transform="translate(14.702 5.202)">
              <g id="Group_102792" data-name="Group 102792" transform="translate(0 0)">
                <path id="Path_74899" data-name="Path 74899" d="M9.137,3.554l.1.052,1.993,1.237.129.1,3.882,2.784.155.129h.078V7.781l-.285-.335-.078-.129L12.89,5.048l-.414-.335-.129-.129L10.1,2.96q-.233-.155-1.423-.85L6.394,1.079l-.207-.051L5.825.873,4.712.539,4.53.513,4.168.41,2.226.076H2.1L1.683.025.233,0,.052.026A.046.046,0,0,0,0,.077L.026.1l.44.1L.621.258,1.864.541l.129.052,2.278.7.518.206.181.051L7.636,2.755l.1.026.078.052,1.061.593.181.077Z" transform="translate(0 0)" fill="#812511"/>
              </g>
            </g>
            <g id="Group_102795" data-name="Group 102795" transform="translate(14.521 4.841)">
              <g id="Group_102794" data-name="Group 102794" transform="translate(0 0)">
                <path id="Path_74900" data-name="Path 74900" d="M8.077.614Q8,.588,7.171.382l-.44-.1L5.023.048A2.354,2.354,0,0,0,4.608.023L4.531,0,.259.18.026.232,0,.284.052.31,1.32.438h.259l4.53.668,2.1.592,1.217.489a12.926,12.926,0,0,1,1.553.8l1.4.954q.6.49,1.19,1.083l.259.258.1.155.129.129.828,1.057.052.052.026.077.259.335.259.438.078.1.569,1.006q0,.077.052.026.078,0,.026-.052l-.336-1.135-.388-.851L15.4,6.388l-.052-.052L14.159,4.48a12.31,12.31,0,0,0-1.19-1.238L12.451,2.8l-.181-.129L12.193,2.6,11.313,2l-.155-.077-.052-.052-.414-.232L8.517.743l-.1-.026L8.284.665Z" fill="#812511"/>
              </g>
            </g>
          </g>
          <g id="Group_102801" data-name="Group 102801" transform="translate(0.545 55.548)">
            <g id="Group_102798" data-name="Group 102798" transform="matrix(0.955, -0.296, 0.296, 0.955, -0.003, 5.303)">
              <g id="Group_102797" data-name="Group 102797" transform="translate(0 0)">
                <path id="Path_74901" data-name="Path 74901" d="M14.583,3.539A7.044,7.044,0,0,0,8.348.009,7.3,7.3,0,0,0,1.653,3.533Q-.777,7.194.375,13.118a21.894,21.894,0,0,0,3.75,9.229,10.923,10.923,0,0,0,7.083,4.119q4.533.794,5.95-3.78a21.388,21.388,0,0,0,.406-10.2A27.188,27.188,0,0,0,14.583,3.539Z" fill="#e2ad98"/>
              </g>
            </g>
            <g id="Group_102800" data-name="Group 102800" transform="translate(6.626 7.516)">
              <g id="Group_102799" data-name="Group 102799" transform="translate(0 0)">
                <path id="Path_74902" data-name="Path 74902" d="M6.873,2.6l.795.971L8.975,6.1l1.665,4.14q0,.077.051.026.077,0,.026-.051l-.2-1.508L9.847,6.18,8.925,3.854l-.692-1.2A5.843,5.843,0,0,0,6.874,1.248,5.7,5.7,0,0,0,5.131.329L5.028.3,4.9.252,4.669.2,4.618.176H4.566L4,.049H3.874L3.822.023H3.745L3.515,0H3.027L2.54.075,2.36.126,2.309.152l-.1.026-.436.2-.1.077-.1.051L1.488.587a2.662,2.662,0,0,0-.59.639,4.022,4.022,0,0,0-.385.665l-.077.153L.2,2.837l-.026.153-.051.128L0,4.09v.844a.045.045,0,0,0,.051.051l.026-.026.051-.23L.588,3.246l.026-.128L.665,2.99l.411-.818a2.505,2.505,0,0,1,.385-.511l.051-.051.051-.077.077-.051.051-.051.257-.2A1.828,1.828,0,0,1,2.565.97,2.336,2.336,0,0,1,3.257.918h.18l.18.051h.1l.513.127.077.026H4.36l.051.026.308.076.077.051.769.332.359.2.154.128.1.051.077.077.308.255A2.826,2.826,0,0,1,6.873,2.6Z" fill="#c18770"/>
              </g>
            </g>
          </g>
          <g id="Group_102810" data-name="Group 102810" transform="translate(18.036 26.658)">
            <g id="Group_102803" data-name="Group 102803" transform="translate(0 0.455) rotate(-0.817)">
              <g id="Group_102802" data-name="Group 102802" transform="translate(0 0)">
                <path id="Path_74903" data-name="Path 74903" d="M27.908,5.548Q27.787,4.8,27.646,4.1A3.664,3.664,0,0,0,26.272,1.76,8.025,8.025,0,0,0,19.356.193,30.83,30.83,0,0,0,3.9,7.981,11.441,11.441,0,0,0,.275,14.532a17.792,17.792,0,0,0,.844,9.411q1.656,4.513,3.21,9.046a13.379,13.379,0,0,1,.42,7.376A6.009,6.009,0,0,1-.006,45.144a11.1,11.1,0,0,0,4.956-.607,12.183,12.183,0,0,0,7.062-6.11,14.366,14.366,0,0,0,1.583-8.445,44.672,44.672,0,0,1-.035-9.492,22.134,22.134,0,0,1,3.181-9.332,13.353,13.353,0,0,1,4.108-4.295q3.844-2.5,7.058.842Z" fill="#540e00"/>
              </g>
            </g>
            <g id="Group_102805" data-name="Group 102805" transform="translate(0.119 0)">
              <g id="Group_102804" data-name="Group 102804" transform="translate(0 0)">
                <path id="Path_74904" data-name="Path 74904" d="M13.87,8.18q-.506.4-.87.746-.769.726-1.275,1.271L11,11.044q-.526.665-.749.988l-.567.807-.04.04L9.579,13l-.283.444-.506.988a10.249,10.249,0,0,0-.811,3.044,13.436,13.436,0,0,0-.021,1.673l.02.06.02.363.02.1v.1l.04.222v.1l.141.746a16.622,16.622,0,0,0,1.009,3.3l1.03,2.136.02.02.04.06.4.826a12.158,12.158,0,0,1,.908,3.023,13.858,13.858,0,0,1,.12,1.511,12.293,12.293,0,0,1-.062,1.451l-.041.363v.121l-.02.04-.142.847-.041.161-.02.181L10.98,36.4l-.061.141-.041.141-.061.141-.041.141-.527,1.23-.061.1-.041.1L9.036,40.309l-.061.081a.165.165,0,0,0-.061.1l-.243.323q-.02.04,0,.06.04.04.061,0l.992-1.23a11.71,11.71,0,0,0,.952-1.532l.689-1.411.041-.141.122-.282.689-2.479v-.06l.02-.02v-.1l.061-.363a14.65,14.65,0,0,0,.122-1.532v-.5l-.02-.1-.1-1.209-.02-.1v-.06l-.02-.04-.181-.927-.04-.1-.04-.2-.2-.6v-.06L11.007,26l-.02-.06h-.02v-.02l-.02-.02-.1-.181-.889-1.894a18.63,18.63,0,0,1-.989-3.143l-.141-.685v-.1l-.04-.2v-.1l-.02-.1-.02-.2-.02-.1v-.1a11.686,11.686,0,0,1-.019-1.552,10.059,10.059,0,0,1,.669-2.862l1.357-2.5.1-.121.324-.5.1-.121.486-.686a.219.219,0,0,0,.081-.1l.162-.2q.668-.827,1.174-1.351l1.093-1.109q.04-.02,0-.06-.02-.02-.061,0l-.324.262m12.381-3.7-.99-1.108-.384-.322-.627-.423a4.633,4.633,0,0,0-.748-.4,5.5,5.5,0,0,0-.87-.3,6.285,6.285,0,0,0-.971-.2,9.35,9.35,0,0,0-2.124,0l-1.092.2-.283.081-.121.02-1.376.444L16.4,2.6l-.142.04-1.052.484q-.809.4-2,1.11l-3.258,2.4L8.166,8.587,6.911,10.442l-.486.907q-.061.061.02.06a.025.025,0,0,0,.04,0l2.389-2.9.162-.141L9.178,8.2l2.186-1.856.061-.02v-.02h.02l.02-.02.1-.081,1.113-.726,4.026-2.159,1.8-.626.121-.02q.3-.081,1.011-.222a8.624,8.624,0,0,1,1.962-.1,6.291,6.291,0,0,1,1.719.342,6.922,6.922,0,0,1,.728.322l.627.342a9.253,9.253,0,0,1,.93.685l.708.665.04.06q.04.04.061,0,.04-.02,0-.06l-.162-.222M21.946-.007q-.384-.02-1.133.021L18.022.4,16.666.742l-.142.02-1.214.364-.02.02-4.775,2.28q-.789.424-2.286,1.352L6.044,6.331a19.817,19.817,0,0,0-2,1.775,11.829,11.829,0,0,0-.911.988,10.192,10.192,0,0,0-.83,1.069q-.364.5-.729,1.129a8.935,8.935,0,0,0-.587,1.23l-.122.323-.041.081-.365,1.23-.142.766V15l-.02.161V15.1l-.041.2-.041.1-.041.2-.041.1-.02.2v.06l-.02.06-.02.1v.1l-.02.04v.06l-.041.2v.121l-.02.1L.108,20.06l.524,2.4.121.383.04.2,1.8,4.735-.02-.02,2.22,7.315.423,2.5q.06.645.06,1.27l-.041,1.25-.142.927-.081.3-.426,1.189-.3.544-.789.968-1.012.746-.567.3a8,8,0,0,1-1.194.444q-.061,0-.02.04,0,.06.04.02l.162-.02.465-.141a4.05,4.05,0,0,0,.607-.222,6.291,6.291,0,0,0,1.153-.605l.506-.4a3.7,3.7,0,0,0,.466-.464l.223-.242.526-.827a4.474,4.474,0,0,0,.284-.6l.223-.625a9.546,9.546,0,0,0,.264-1.27l.1-1.31q0-.867-.04-1.31-.02-.383-.141-1.29l-.2-1.27-2.1-7.436-.02-.02L1.785,23.687l-.02-.1-.182-.564L.877,19.939.717,17.6q.061-.746.061-.766v-.141l.02-.06.02-.181v-.06l.02-.04.02-.1V16.17l.02-.06v-.04l.081-.363.041-.1.02-.1.061-.181v-.06L1.1,15.1l.02-.081V14.94l.041-.141.02-.161.122-.544.426-1.27a11.1,11.1,0,0,1,.547-1.129,12.715,12.715,0,0,1,.668-1.089q.4-.565.789-1.008l.87-.948q.81-.807,1.923-1.714l1.032-.787,3.3-2.078L15.553,1.73l-.02.02.243-.1L19.761.639q.546-.081,1.092-.122A9.741,9.741,0,0,1,21.925.456l1.092.08a7.042,7.042,0,0,1,1.052.221,5.017,5.017,0,0,1,.971.4l.243.121.485.342.141.141.162.121.04.06.1.081.121.161.141.141.162.222a8.538,8.538,0,0,1,.525.947A6.849,6.849,0,0,1,27.505,4.5q.1.363.222,1.088a10.057,10.057,0,0,1,.1,1.088l.02.141.02.947q-.02.04.02.04l.04-.02.041-1.109a10.933,10.933,0,0,0-.06-1.129,7.438,7.438,0,0,0-.181-1.088A8.782,8.782,0,0,0,27.4,3.375l-.04-.121-.121-.262-.04-.06-.081-.2L27,2.549l-.02-.02v-.04l-.242-.363-.1-.1L26.556,1.9l-.243-.262-.04-.06-.1-.1L26.051,1.4l-.04-.06L25.242.8A8.2,8.2,0,0,0,24.191.334,4.956,4.956,0,0,0,23.078.093Q22.694.032,21.946-.007Z" fill="#812511"/>
              </g>
            </g>
            <g id="Group_102807" data-name="Group 102807" transform="translate(2.139 4.177)">
              <g id="Group_102806" data-name="Group 102806" transform="translate(0 0)">
                <path id="Path_74905" data-name="Path 74905" d="M1.653,8.3q.061-.061-.02-.06h-.04l-.344.544-.02.04-.04.06-.061.121-.081.121-.425.907-.02.1-.2.544-.02.1-.142.484q-.162.947-.183,1.088l-.041.907-.02.161v.161l.4,4.172.181.867.04.081.949,3.285L2.9,25.473A31.012,31.012,0,0,1,3.865,28.6L4.51,31.68a23.248,23.248,0,0,1,.16,2.942l-.062,1.491-.02.04v.121l-.02.04-.041.3-.162.585a2.621,2.621,0,0,1-.2.544l-.041.081-.02.06-.061.121-.081.121-.02.06-.04.06a8.309,8.309,0,0,1-.607.847,5.816,5.816,0,0,1-.668.645l-.627.5q-.142.1-.931.605L.8,40.993l-.081.061q-.061,0-.02.04,0,.06.04.02l.809-.363,1.255-.787.04-.02.061-.04.081-.081.1-.061.465-.424a5.4,5.4,0,0,0,.708-.867l.324-.5.263-.585.243-.806.02-.181.02-.04v-.04l.02-.081v-.1l.02-.081A11.462,11.462,0,0,0,5.3,34.642,16.435,16.435,0,0,0,5.218,31.6l-.242-1.693-.02-.04V29.8l-.323-1.411a29.848,29.848,0,0,0-.969-3.2L1.343,18.722l-.04-.181-.04-.1-.2-.826L.517,13.866v-.141L.5,13.644V13.4l-.02-.141v-.867Q.518,11.83.6,11.346a5.416,5.416,0,0,1,.2-.907l.041-.2.041-.1.02-.1.122-.363L1.653,8.3M17.211,2.972l-.162.121-.081.081-.587.484a6.117,6.117,0,0,0-.688.726,6.264,6.264,0,0,0-.648.847L13.142,8.6,13,8.9,11.885,12l-.345,1.31q-.122.443-.284,1.33l-.509,5.14.3,3.486v.06l.02.02v.04l.766,3.809.1.3q0,.06.04.02.061,0,.02-.04l-.442-4.172-.02-.02v-.1l-.02-.121L11.435,19.8l.59-4.878.041-.161q.061-.423.264-1.27l.061-.323.061-.141.588-2.056,1.418-3.467,1.62-2.823,1.194-1.311A7.951,7.951,0,0,1,18.4,2.568l.223-.121.061-.02.061-.04.445-.2.142-.04.162-.081q.061,0,.02-.04,0-.06-.04-.02l-.324.061-.85.3-1.093.605M23.281.348l-.121-.06L22.633.106l-.587-.1h-.142l-.081-.02-.991.041-.162.02-.465.1-.162.02-.162.061L19.8.249h-.04l-.04.02-.465.141h-.02l-.04.02-.081.02L18.79.572l-.081.02L16.463,1.7l-1.194.827A16.641,16.641,0,0,0,13.1,4.466L11.788,5.978l-.061.061-.02.04h-.02l-.02.04-.121.141-.041.081h-.02l-.02.02-.02.04-.1.161-.121.141-.729,1.25a12.892,12.892,0,0,0-.567,1.29,13.98,13.98,0,0,0-.649,2.56,16.4,16.4,0,0,0-.184,2.358v.907l.02.121.04.826.322,2.4.121.524q0,.06.04.02.061,0,.02-.04l-.12-2.8L9.516,16l.02-.1v-.826l.02-.121v-.383l.02-.121.264-2.237.02-.06v-.081l.041-.141a14.769,14.769,0,0,1,.709-2.419L11.16,8.3l.911-1.411.02-.04h.02l.02-.02.041-.081.182-.2.04-.06.466-.544.1-.141.708-.766a18.9,18.9,0,0,1,2.085-1.876l.546-.424,2.145-1.271.162-.061.283-.141h.04l.04-.02.061-.02.364-.161h.04l.04-.02.445-.162h.02l.04-.02.647-.182.142-.02.142-.04L21.46.551H21.6l.142-.02h.142l.121.02a2.083,2.083,0,0,1,.506.06A1.829,1.829,0,0,1,23,.731l.445.161a4.82,4.82,0,0,1,.728.483,4.306,4.306,0,0,1,.566.544l.424.544.485.826.061.141.061.081.04.081q0,.06.04.02.061,0,.02-.04l-.02-.081-.04-.1a.276.276,0,0,0-.061-.141L25.6,2.866l-.263-.524a6.326,6.326,0,0,0-.384-.584,2.773,2.773,0,0,0-.546-.645,3.231,3.231,0,0,0-.768-.584L23.4.388Z" fill="#380a00"/>
              </g>
            </g>
            <g id="Group_102809" data-name="Group 102809" transform="translate(16.595 3.372)">
              <g id="Group_102808" data-name="Group 102808" transform="translate(0 0)">
                <path id="Path_74906" data-name="Path 74906" d="M9.249,1.415l-.02-.04-.2-.141L8.158.751,7.935.65,7.854.63,7.591.509,5.953.067h-.1L5.387.007q-.485-.02-.971,0L3.445.129,3.2.189l-.87.3-.1.061L2.09.613l-.061.04L1.746.795a4.829,4.829,0,0,0-.627.444l-.04.02-.04.04-.061.04-.708.686-.263.343q-.02.02.02.06h.04l.546-.343,1.6-.807.1-.02.081-.04.1-.02.283-.1.1-.02.1-.04L3.606.895h.1l.748-.1H5.548l.1.02h.222l.1.02L6.4.873l.1.02h.1l.182.04.2.02.465.1H7.53l1.679.382Q9.249,1.475,9.249,1.415Z" fill="#380a00"/>
              </g>
            </g>
          </g>
          <g id="Group_102825" data-name="Group 102825" transform="translate(46.274 15.108) rotate(1.74)">
            <g id="Group_102812" data-name="Group 102812" transform="translate(0.111 0)">
              <g id="Group_102811" data-name="Group 102811" transform="translate(0 0)">
                <path id="Path_74907" data-name="Path 74907" d="M19.868,2.343A18.081,18.081,0,0,0,11.538-.009a11.507,11.507,0,0,0-7.3,3.028A11.519,11.519,0,0,0,.488,9.754a32.16,32.16,0,0,0-.25,9.654q.729-.928,1.417-1.855a22.01,22.01,0,0,1,5.768-5.446A8.2,8.2,0,0,1,10.539,10.9q4.389.037,5.417,4.43A68.722,68.722,0,0,1,17.2,22.4a9.612,9.612,0,0,0,4.242,6.527,16.591,16.591,0,0,1,5.636,8.561,28.244,28.244,0,0,1,1.591,8.947,36.441,36.441,0,0,1-.205,4.132,25.65,25.65,0,0,0,4.675-4.155,32.27,32.27,0,0,0,3.625-5.948,20.909,20.909,0,0,0,2.191-8.849,23.428,23.428,0,0,0-1.47-8.967,13.809,13.809,0,0,0-5.6-6.929,16.158,16.158,0,0,1-5.86-6.687A14.512,14.512,0,0,0,19.868,2.343Z" fill="#540e00"/>
              </g>
            </g>
            <g id="Group_102814" data-name="Group 102814" transform="translate(5.631 2.499)">
              <g id="Group_102813" data-name="Group 102813" transform="translate(0 0)">
                <path id="Path_74908" data-name="Path 74908" d="M11.633,7.847l-.04-.081-.93-1.047-.424-.362-.141-.1-.061-.06-.081-.06a6.9,6.9,0,0,0-1.213-.745l-.162-.08L8.52,5.27,8.44,5.23l-.162-.06-.04-.02-.02-.02H8.2l-.081-.04-.627-.241a8.236,8.236,0,0,0-1.294-.3,6.724,6.724,0,0,0-1.274,0l-.87.162-.2.061-.04.02h-.04l-.121.04-.061.04h-.04l-.02.02-.142.04-.061.04-.3.121L2.8,5.214a8.061,8.061,0,0,0-.809.525l-.425.323L1.5,6.142l-.162.121L1.219,6.4l-.081.061-.708.766-.02.04-.081.081L0,7.775q-.02.04,0,.06.04.04.061,0l.243-.262L1.32,6.646l.081-.04.607-.464.182-.1A7.292,7.292,0,0,1,3,5.6a7.855,7.855,0,0,1,.931-.323,5.053,5.053,0,0,1,2.164-.1l.142.04.162.02.142.04.142.02,1.233.483h.02l1.031.584.606.443.061.04.829.806a6.206,6.206,0,0,1,1.353,2.3,6.119,6.119,0,0,1,.182.645l.181.846v.081l.02.081.06.685v.181l.623,5.522.04.141.02.161.605,2.156.04.06.04.121.262.584a5.424,5.424,0,0,0,.5.826l.081.081.061.1.4.443a5.9,5.9,0,0,0,.566.463l.364.242.222.1.061.04.121.06.1.02a.278.278,0,0,0,.142.06l.1.04.081.02q.04.04.04-.02.04-.04-.02-.04l-.081-.04-.081-.06-.142-.06a5.6,5.6,0,0,1-.788-.544l-.465-.463a5.793,5.793,0,0,1-.465-.645,5.6,5.6,0,0,1-.4-.806l-.283-.745v-.06l-.121-.383-.443-2.277-.5-6.429L12.582,9.68l-.141-.343-.02-.1-.464-.927L11.9,8.23l-.04-.081-.1-.161-.121-.141M13.5,1.2l-.809-.4-.061-.04-1.456-.6L10.709.008q-.04-.04-.04.02-.04.04.02.04l3.194,2.013.061.06.526.423A15.431,15.431,0,0,1,15.62,3.713l.263.3.061.1.081.081.182.242.061.1.141.181.02.04.04.04L17.58,6.613l.3.6.081.2.061.1.706,1.975v.06l.04.121.121.262a4.441,4.441,0,0,0,.424.806,5.049,5.049,0,0,0,.525.685,5.413,5.413,0,0,0,.566.564,4.2,4.2,0,0,0,.566.483l.121.121a.4.4,0,0,1,.141.1l.283.181.061.06,1.86,1.047.222.08q.04.04.04-.02a.025.025,0,0,0,0-.04h-.02l-1.132-.846-.1-.06L21.3,12.112l-.97-1.088q-.343-.5-.424-.645l-.04-.081-.061-.081-.121-.262-.02-.06-.1-.222-.061-.2-.04-.081v-.04l-.02-.04v-.02l-.383-1.31a14.513,14.513,0,0,0-.767-1.733,13.649,13.649,0,0,0-.99-1.612l-.141-.181-.061-.1-.04-.04-.02-.06-.141-.181-.081-.081-.061-.1-.606-.685a11.014,11.014,0,0,0-1.293-1.128,13.137,13.137,0,0,0-1.273-.825L13.5,1.2M33.279,25.908l-.02.04-.184,2.479v.1l-.02.081-.183,1.572v.1l-.751,3.749-.041.121-.02.141L30.9,37.66l-.182.4q-.486,1.069-1.033,2.056-.689,1.21-1.174,1.9l-.081.121-.04.04-.83,1.129-.061.1-3.1,3.307-.1.121-.121.081-1.012.908q-.02.04,0,.06h.061l2.489-1.836.081-.081.081-.061,2.024-2,.081-.1a.219.219,0,0,0,.081-.1l.344-.4.1-.1,2.126-3.146.02-.06,1.033-2.177,1.3-4.314.407-3.164v-.121l.02-.121-.1-4.172Z" fill="#812511"/>
              </g>
            </g>
            <g id="Group_102816" data-name="Group 102816" transform="translate(0 0.04)">
              <g id="Group_102815" data-name="Group 102815" transform="translate(0 0)">
                <path id="Path_74909" data-name="Path 74909" d="M13.186.03l-.04-.02-.89-.019L9.869.234l-.89.182Q8.312.6,8.028.7q-.04.02-.506.182l-.384.141-.121.061a7.1,7.1,0,0,0-1.012.5q-.223.121-1.012.626A10.192,10.192,0,0,0,4.043,3a9.643,9.643,0,0,0-.87.908l-.486.625-.061.061-.041.081L2.4,4.936a7.925,7.925,0,0,0-.648,1.109A13.191,13.191,0,0,0,.782,8.4L.235,10.782l-.245,2.8.3,5.361.06.3q0,.06.04.02.061,0,.02-.04L.617,13.1l.345-2.177q.1-.564.244-1.149l.324-1.129q.2-.6.426-1.129a12.014,12.014,0,0,1,.506-1.109A11.1,11.1,0,0,1,3.07,5.379L3.5,4.754l1.073-1.21L5.883,2.474q.162-.1.465-.3l.121-.081.121-.061.1-.081,1.052-.525,1.8-.666.2-.04.1-.04.89-.222L13.166.071Q13.226.071,13.186.03Z" fill="#812511"/>
              </g>
            </g>
            <g id="Group_102818" data-name="Group 102818" transform="translate(0.503 8.565)">
              <g id="Group_102817" data-name="Group 102817" transform="translate(0 0)">
                <path id="Path_74910" data-name="Path 74910" d="M9.542.053l-.87.2A6.679,6.679,0,0,0,7.8.619L7.438.8l-1.052.686-.911.767L4.1,3.705l-.061.1-.972,1.25q-.3.4-.931,1.391L.089,10.318l-.081.222q-.04.04.02.04.04.04.04-.02l.283-.4.081-.141.425-.625.081-.1.142-.242L3.652,5.479,6.021,2.857,7.6,1.607l.182-.1.04-.04.324-.182L8.914.941Q9.137.86,9.662.718a6.4,6.4,0,0,1,.769-.1h.445l.1.02h.081l.081.02.344.04.485.121.97.4L14.171,2l.04.04.061.04.162.141q.04.04.061,0,.04-.02,0-.06l-.586-.624a7.6,7.6,0,0,0-.788-.624,4.48,4.48,0,0,0-1.152-.6L11.24.092a5.97,5.97,0,0,0-.829-.1l-.87.061m9.8,8.8-.02.121.017,3.849.1.786.121.5.04.1.02.1.04.1a5.048,5.048,0,0,0,.363.766,6.163,6.163,0,0,0,.505.7,5.177,5.177,0,0,0,.626.6l.162.121.081.081.344.242.081.04.546.322.89.4.182.06.485.221a4.754,4.754,0,0,1,.586.3l.546.322.465.362.687.765.121.2.222.524.141.5V21l.02.04v.06l.02.06.04.02.041-.081v-.443l-.02-.081V20.5l-.1-.484a3.373,3.373,0,0,0-.182-.443,3.083,3.083,0,0,0-.263-.483l-.162-.242-.2-.222a3.084,3.084,0,0,0-.485-.463l-1.172-.805-1.415-.684-.081-.06-.162-.08-.081-.06-.081-.04-.222-.161-.081-.04-.081-.06-.061-.06-.3-.221a5.885,5.885,0,0,1-.505-.524l-.444-.584-.323-.645-.02-.081-.04-.081-.182-.685-.562-5.864a.036.036,0,0,0-.04-.04l-.02.02-.183,1.33v.121M33.9,19.926l-.525-.645a5.389,5.389,0,0,0-.99-.906l-.869-.564L30.4,17.289l-.081-.02-.081-.04-1.557-.6-4.69-2.334-.121-.081-.081-.02-.182-.121-.04-.02-.02-.02-.081-.04-.243-.161-.04-.04L23,13.667a6.328,6.328,0,0,1-.808-.785l-.04-.04-.505-.725-.02-.06-.04-.04q-.2-.383-.424-.927a9.592,9.592,0,0,1-.423-1.733l-.14-2.62q.04-.04-.02-.04l-.04.02-.163,1.25a12.591,12.591,0,0,0,0,1.431l.181,1.35.04.121.02.141.081.242a6.53,6.53,0,0,0,.383,1.028,7.825,7.825,0,0,0,.626.987l.283.363.121.121.04.06.243.222.061.04.243.222.061.04.061.06.344.242.02.02,3.032,1.711.162.06.142.081,3.134,1.368.324.1.02.02.04.02.081.02.809.362.061.02.95.564a7.469,7.469,0,0,1,.909.785l.3.322.162.242.081.081v.02l.182.262.061.121.081.121.343.745a6.713,6.713,0,0,1,.262,1.028,4.029,4.029,0,0,1,0,.988v.121l-.02.121V24l-.02.06-.71,2.762-.061.121-.041.141-.344.887q-.04.04.02.04.04.04.04-.02l.405-.726L34.662,24.5l.02-.121.041-.121.02-.1.02-.06v-.04l.02-.04.041-.262a3.688,3.688,0,0,0,.041-1.088v-.161l-.02-.141V22.3l-.02-.081-.02-.141-.02-.04V22l-.02-.081-.02-.141-.04-.141-.061-.141-.06-.222-.04-.081-.04-.141-.283-.584-.162-.262L34,20.067h-.02v-.02l-.02-.02-.02-.04Z" transform="translate(0)" fill="#380a00"/>
              </g>
            </g>
            <g id="Group_102820" data-name="Group 102820" transform="translate(0.423 7.094)">
              <g id="Group_102819" data-name="Group 102819" transform="translate(0 0)">
                <path id="Path_74911" data-name="Path 74911" d="M6.852-.005,6.73.1,6.083.54,4.808,1.669l-.081.1L4.12,2.4,2.764,4.17,1.528,6.387l-.061.161-.081.141L.434,9.472l-.061.242L.028,11.729l-.021.464q-.04.04.02.04l.04-.02L1.344,8.705,3.512,4.451,5.455,1.729,6.913.055v-.06Z" transform="translate(0)" fill="#380a00"/>
              </g>
            </g>
            <g id="Group_102822" data-name="Group 102822" transform="translate(11.217 10.234)">
              <g id="Group_102821" data-name="Group 102821" transform="translate(0 0)">
                <path id="Path_74912" data-name="Path 74912" d="M6.062,7.146,5.7,5.111A4.578,4.578,0,0,0,5.457,4.3L4.751,2.834a7.079,7.079,0,0,0-.444-.665l-.1-.161-.04-.04-.02-.04-.061-.06-.061-.081L3.3,1.1,2.669.679l-.04-.02-.02-.02L2.528.6l-.02-.02L2.386.518,2.325.5,2.184.418,1.658.237A4.512,4.512,0,0,0,.789.076L.243.016H.04Q0-.024,0,.036l.02.04L.748.3a1.925,1.925,0,0,1,.364.121l.425.161A3.132,3.132,0,0,1,2,.821l.222.141.02.02h.02l.02.02.061.04.02.02.04.02.04.04.465.4a5.265,5.265,0,0,1,.445.463l.1.141.061.06.04.081.061.06.788,1.43.02.1.162.342.242.725.5,2.66v.04l.02.06.584,3.667.02.04v.04l.282,1.39.04.121v.081H6.3v.06a5.368,5.368,0,0,0,.283.826l.3.645.04.04q0,.06.04.02.061,0,.02-.04v-.06l-.061-.141-.262-1.229V12.99h-.02v-.222l-.12-1.33-.02-.081v-.081l-.16-1.753V9.342L6.122,7.549v-.04l-.02-.06-.02-.1Z" transform="translate(0 0)" fill="#380a00"/>
              </g>
            </g>
            <g id="Group_102824" data-name="Group 102824" transform="translate(21.881 28.998)">
              <g id="Group_102823" data-name="Group 102823" transform="translate(0 0)">
                <path id="Path_74913" data-name="Path 74913" d="M0,.027v.04L1.152,1.195a.863.863,0,0,1,.162.2l.2.181.566.685.061.06.04.06.525.645q.747,1.068.808,1.188l.969,1.692L5.212,7.54l1.13,3.828.644,3.99.04.02.02-.04.062-1.149.02-.1-.059-1.814-.06-.484V11.61l-.1-.705-.6-2.66q-.222-.705-.585-1.572-.363-.806-.727-1.491l-.424-.705L4.527,4.4l-.182-.242-.1-.181-.121-.161q-.283-.4-.929-1.168L1.6,1.094a.865.865,0,0,1-.2-.161L.061.007Q.04-.013,0,.027Z" transform="translate(0 0)" fill="#380a00"/>
              </g>
            </g>
          </g>
          <g id="Group_102827" data-name="Group 102827" transform="translate(33.737 80.966)">
            <g id="Group_102826" data-name="Group 102826" transform="translate(0 0)">
              <path id="Path_74914" data-name="Path 74914" d="M3.077,2.3v.767h.77m-.77,0v.767m3.079-.769L3.074,6.133,0,3.067,3.078,0Zm-3.848,0h.77" fill="none" stroke="rgba(0,0,0,0)" stroke-linecap="round" stroke-linejoin="round" stroke-width="0.079"/>
            </g>
          </g>
        </g>
        <g id="Group_102848" data-name="Group 102848" transform="translate(-313.242 -714.237) rotate(50.939)">
          <g id="Group_102830" data-name="Group 102830" transform="translate(0.252 57.062)">
            <g id="Group_102829" data-name="Group 102829" transform="translate(0 0)">
              <path id="Path_74915" data-name="Path 74915" d="M-.051,27.2l18.98,4.626,5.883-25.7L7.831-.015Z" fill="#e2ad98"/>
            </g>
          </g>
          <g id="Group_102832" data-name="Group 102832" transform="translate(0.062 76.425)">
            <g id="Group_102831" data-name="Group 102831" transform="translate(0 0)">
              <path id="Path_74916" data-name="Path 74916" d="M19.483,9.722a9.393,9.393,0,0,0-2.853-6.91A9.337,9.337,0,0,0,9.75-.018,9.491,9.491,0,0,0,2.835,2.838,9.506,9.506,0,0,0-.018,9.758,9.351,9.351,0,0,0,2.81,16.642a9.378,9.378,0,0,0,6.9,2.856A9.365,9.365,0,0,0,16.6,16.617,9.379,9.379,0,0,0,19.483,9.722Z" transform="translate(0 0)" fill="#e2ad98"/>
            </g>
          </g>
          <g id="Group_102835" data-name="Group 102835" transform="translate(6.528 53.721)">
            <g id="Group_102834" data-name="Group 102834" transform="translate(0 0)">
              <g id="Group_102833" data-name="Group 102833">
                <path id="Path_74917" data-name="Path 74917" d="M1.843,0-.017,8.964a36.092,36.092,0,0,0,17.5,4.936l1.777-6.073Z" fill="#c18770"/>
              </g>
            </g>
          </g>
          <g id="Group_102837" data-name="Group 102837" transform="translate(0.039 6.71)">
            <g id="Group_102836" data-name="Group 102836" transform="translate(0 0)">
              <path id="Path_74918" data-name="Path 74918" d="M47.216,13.614,22.93-.043A287.893,287.893,0,0,0-.092,49.61a60.428,60.428,0,0,0,35.735,8.667A104.087,104.087,0,0,1,47.216,13.614Z" transform="translate(0)" fill="#7a2230"/>
            </g>
          </g>
          <g id="Group_102839" data-name="Group 102839" transform="translate(21.062 -0.039)">
            <g id="Group_102838" data-name="Group 102838" transform="translate(0 0)">
              <path id="Path_74919" data-name="Path 74919" d="M27.766,13.881a13.44,13.44,0,0,0-4.051-9.853A13.335,13.335,0,0,0,13.9-.026a13.519,13.519,0,0,0-9.86,4.091A13.584,13.584,0,0,0-.026,13.933,13.314,13.314,0,0,0,4,23.734a13.377,13.377,0,0,0,9.845,4.079A13.393,13.393,0,0,0,23.679,23.7,13.371,13.371,0,0,0,27.766,13.881Z" fill="#7a2230"/>
            </g>
          </g>
          <g id="Group_102842" data-name="Group 102842" transform="translate(-0.032 17.37)">
            <g id="Group_102841" data-name="Group 102841" transform="translate(0 0)">
              <g id="Group_102840" data-name="Group 102840">
                <path id="Path_74920" data-name="Path 74920" d="M17.1-.011q-.051-.051-.051.026-.95,1.692-1.258,2.307L13.834,6.09,5.868,23.623-.072,38.9,2,40.38l.511.281.153.1L4.657,41.81l.179.076.153.1,6.266,2.345q.051.051.051-.026.051-.051-.025-.051L3.407,39.3l-.128-.128-.434-.307-.128-.128-.537-.434,8.97-20.967L16.374,2.551q.283-.82.747-2.511Q17.172-.012,17.1-.011Z" fill="#4b0f18"/>
              </g>
            </g>
          </g>
          <g id="Group_102844" data-name="Group 102844" transform="translate(39.768 17.065)">
            <g id="Group_102843" data-name="Group 102843" transform="translate(0 0)">
              <path id="Path_74921" data-name="Path 74921" d="M8.645,0Q8.594-.047,8.594.03L4.2,7.8l-.051.154-1.028,2.23L1.5,14.642.394,19.075-.02,21.637q-.051.051.025.051l.051-.026,2.984-8.534L7.872,2.516l.8-2.46Q8.722,0,8.645,0Z" fill="#4b0f18"/>
            </g>
          </g>
          <g id="Group_102847" data-name="Group 102847" transform="translate(31.829 10.736)">
            <g id="Group_102846" data-name="Group 102846" transform="translate(0 0)">
              <g id="Group_102845" data-name="Group 102845">
                <path id="Path_74922" data-name="Path 74922" d="M6.2,3.075,3.135.007a.032.032,0,0,0-.051,0L.007,3.086a.032.032,0,0,0,0,.051L3.072,6.205a.032.032,0,0,0,.051,0L6.2,3.126a.032.032,0,0,0,0-.051M3.1,6.1l.026.026H3.072L3.1,6.1.109,3.112l-.026.026V3.086l.026.026,3-3L6.1,3.1l-3,3m.058-3.765-.051-.051-.051.051v.717H2.336l-.051.051.051.051h.717v.717l.051.051.051-.051V3.157h.717L3.923,3.1l-.051-.051H3.155Z" fill="rgba(0,0,0,0)"/>
              </g>
            </g>
          </g>
        </g>
        <g id="Group_102855" data-name="Group 102855" transform="matrix(0.94, -0.34, 0.34, 0.94, -397.868, -646.995)">
          <g id="Group_102850" data-name="Group 102850" transform="translate(0 0.23)">
            <g id="Group_102849" data-name="Group 102849" transform="translate(0 0)">
              <path id="Path_74923" data-name="Path 74923" d="M.077,63.327,8.928,67.1A119.16,119.16,0,0,1,21.871,41.725Q30.7,28.058,33.226,17.732A51.136,51.136,0,0,0,33.9,4.566L14.846.018a191.233,191.233,0,0,0-5.795,21.11Z" fill="#e2ad98"/>
            </g>
          </g>
          <g id="Group_102852" data-name="Group 102852" transform="translate(1.502 8.086)">
            <g id="Group_102851" data-name="Group 102851" transform="translate(0 0)">
              <path id="Path_74924" data-name="Path 74924" d="M10.815.059,7.776,9.668,4.49,27.33.589,45.912v.051l-.026.077L.08,48.519q-.051.051.026.051.051.051.051-.026L.949,46.27l.077-.179v-.077l1.251-4.063L6.614,24.521Q6.971,22.3,7,22.195l.966-6.723L10.892.085q.051-.051-.026-.051Q10.815-.018,10.815.059Z" fill="#c18770"/>
            </g>
          </g>
          <g id="Group_102854" data-name="Group 102854" transform="translate(21.205 0.026)">
            <g id="Group_102853" data-name="Group 102853" transform="translate(0 0)">
              <path id="Path_74925" data-name="Path 74925" d="M3.08,2.3v.767H3.85m-.769,0v.767m3.076-.763L3.084,6.14,0,3.068,3.077,0Zm-3.846,0h.769" fill="none" stroke="rgba(0,0,0,0)" stroke-linecap="round" stroke-linejoin="round" stroke-width="0.079"/>
            </g>
          </g>
        </g>
        <g id="Group_102860" data-name="Group 102860" transform="translate(-375.616 -574.531) rotate(-91.729)">
          <g id="Group_102857" data-name="Group 102857" transform="translate(0 0)">
            <g id="Group_102856" data-name="Group 102856" transform="translate(0 0)">
              <path id="Path_74926" data-name="Path 74926" d="M14.156,24.272q-.843-.564-1.175-3.155Q2.451,23.068.356,19.579.2,20.425,0,21.323a4.484,4.484,0,0,0,3.3,3H3.32a32.944,32.944,0,0,0,10.836-.053m3.041.667a3.65,3.65,0,0,1-1.993.385q-2.479,1.052-11.833-.974a27.678,27.678,0,0,0,8,2.411,9.774,9.774,0,0,0,7.156-2.207,6.06,6.06,0,0,0-1.329.385M19.8,20.911q-.766-3.232-.843-3.591a23.155,23.155,0,0,1,.231-10.108q.895-3.361-.945-5.285Q16.459.105,12.6,0,4.907-.3.356,19.579q4.83,1.8,12.881.306V17.063q-.255-.667-.485-1.18a9.427,9.427,0,0,0-4.5-3.514h2.811A24.627,24.627,0,0,0,9.2,9.47a13.291,13.291,0,0,1,4.523,6.182,10.011,10.011,0,0,1,.511,3.027q-.077,1.257-.051,2.206.46,2.822,1.3,3.155a8.459,8.459,0,0,0,3.041.513l.588-.154a.208.208,0,0,1,.153-.051,1.709,1.709,0,0,1,.486-.308.8.8,0,0,0,.358-.513A9.515,9.515,0,0,0,19.8,20.911Z" fill="#e2ad98"/>
              <path id="Path_74927" data-name="Path 74927" d="M13.825,11.415q-.025-.949.051-2.206a10.012,10.012,0,0,0-.511-3.027A13.291,13.291,0,0,0,8.843,0a24.627,24.627,0,0,1,1.865,2.9H7.9a9.427,9.427,0,0,1,4.5,3.514q.23.513.485,1.18v2.822Q4.829,11.9,0,10.108q2.1,3.489,12.625,1.538.332,2.591,1.175,3.155a32.944,32.944,0,0,1-10.836.053H2.937a.2.2,0,0,1,.077.026q9.354,2.026,11.833.973a3.65,3.65,0,0,0,1.993-.385,6.06,6.06,0,0,1,1.329-.385,8.459,8.459,0,0,1-3.041-.513Q14.285,14.236,13.825,11.415Z" transform="translate(0.357 9.471)" fill="#c18770"/>
            </g>
          </g>
          <g id="Group_102859" data-name="Group 102859" transform="translate(9.814 1.543)">
            <g id="Group_102858" data-name="Group 102858" transform="translate(0 0)">
              <path id="Path_74928" data-name="Path 74928" d="M3.067,2.309v.77h.767m-.767,0v.77m3.067-.77L3.066,6.157,0,3.079,3.067,0Zm-3.834,0h.767" transform="translate(0)" fill="none" stroke="rgba(0,0,0,0)" stroke-linecap="round" stroke-linejoin="round" stroke-width="0.079"/>
            </g>
          </g>
        </g>
      </g>
    </g>
  </g>
</svg>
