<svg xmlns="http://www.w3.org/2000/svg" xmlns:xlink="http://www.w3.org/1999/xlink" width="375" height="270" viewBox="0 0 375 270">
  <defs>
    <clipPath id="clip-path">
      <rect id="Rectangle_8654" data-name="Rectangle 8654" width="375" height="270" transform="translate(17840 -11926)" fill="#fff" stroke="#707070" stroke-width="1" opacity="0.59"/>
    </clipPath>
    <clipPath id="clip-path-2">
      <path id="Path_75152" data-name="Path 75152" d="M0,0H245V209H83.87s-25.083,28.929-39.482,28.929S26.276,209,26.276,209H0Z" transform="translate(69 125)" fill="#fff"/>
    </clipPath>
  </defs>
  <g id="Mask_Group_16587" data-name="Mask Group 16587" transform="translate(-17840 11926)" clip-path="url(#clip-path)">
    <g id="Mask_Group_16578" data-name="Mask Group 16578" transform="translate(17840 -12026)" clip-path="url(#clip-path-2)">
      <g id="female_teen_8" data-name="female teen 8" transform="translate(373.564 931.818)">
        <g id="Group_103145" data-name="Group 103145" transform="matrix(-0.881, 0.474, -0.474, -0.881, -87.606, -607.068)">
          <g id="Group_103131" data-name="Group 103131" transform="translate(0.157 7.174)">
            <g id="Group_103130" data-name="Group 103130" transform="translate(0 0)">
              <path id="Path_75046" data-name="Path 75046" d="M0,4.765,19.426,0,25.4,26.26,8.011,32.569Z" fill="#e2ad98"/>
            </g>
          </g>
          <g id="Group_103133" data-name="Group 103133" transform="translate(0 0)">
            <g id="Group_103132" data-name="Group 103132" transform="translate(0)">
              <path id="Path_75047" data-name="Path 75047" d="M19.95,9.975a9.634,9.634,0,0,1-2.932,7.069A9.591,9.591,0,0,1,9.975,19.95a9.678,9.678,0,0,1-7.069-2.906A9.678,9.678,0,0,1,0,9.975,9.591,9.591,0,0,1,2.906,2.932,9.634,9.634,0,0,1,9.975,0a9.548,9.548,0,0,1,7.043,2.932A9.548,9.548,0,0,1,19.95,9.975Z" fill="#e2ad98"/>
            </g>
          </g>
          <g id="Group_103136" data-name="Group 103136" transform="translate(6.519 29.305)">
            <g id="Group_103135" data-name="Group 103135" transform="translate(0 0)">
              <g id="Group_103134" data-name="Group 103134">
                <path id="Path_75048" data-name="Path 75048" d="M2.618,16.355,0,4.6Q9.452-.289,18.091.018l2.461,9.949Z" fill="#c18770"/>
              </g>
            </g>
          </g>
          <g id="Group_103138" data-name="Group 103138" transform="translate(1.361 30.837)">
            <g id="Group_103137" data-name="Group 103137" transform="translate(0 0)">
              <path id="Path_75049" data-name="Path 75049" d="M44.246,63.075a13.7,13.7,0,0,1-10.054,4.163,13.785,13.785,0,0,1-10.08-4.163,14,14,0,0,1-3.639-6.153h-.026Q14.046,35.623,0,8.645,15.525-.519,36.811.031A283.854,283.854,0,0,1,48.383,51.687h-.026q.052.646.052,1.309A13.785,13.785,0,0,1,44.246,63.075Z" fill="#7a2230"/>
            </g>
          </g>
          <g id="Group_103141" data-name="Group 103141" transform="translate(17.044 30.737)">
            <g id="Group_103140" data-name="Group 103140" transform="translate(0 0)">
              <g id="Group_103139" data-name="Group 103139">
                <path id="Path_75050" data-name="Path 75050" d="M30.292,36.575q.052.052-.026.052l-.052-.026L26.26,25.788,19.3,2.3l-4.032-.157L.052,2.3A.046.046,0,0,1,0,2.252l.026-.026,5.027-.969L15.185,0l6.022.052,5.053,17.96Z" fill="#4b0f18"/>
              </g>
            </g>
          </g>
          <g id="Group_103144" data-name="Group 103144" transform="translate(32.373 80.677)">
            <g id="Group_103143" data-name="Group 103143" transform="translate(0 0)">
              <g id="Group_103142" data-name="Group 103142">
                <path id="Path_75051" data-name="Path 75051" d="M6.349,3.207,3.207,6.349a.033.033,0,0,1-.052,0L.013,3.207a.033.033,0,0,1,0-.052L3.155.013a.033.033,0,0,1,.052,0L6.349,3.155a.033.033,0,0,1,0,.052M3.181.118,3.207.092H3.155l.026.026L.118,3.181.092,3.155v.052l.026-.026L3.181,6.244,6.244,3.181,3.181.118m.052,3.849-.052.052-.052-.052V3.233H2.4l-.052-.052L2.4,3.129h.733V2.4l.052-.052.052.052v.733h.733l.052.052-.052.052H3.233Z" fill="rgba(0,0,0,0)"/>
              </g>
            </g>
          </g>
        </g>
        <g id="Group_103154" data-name="Group 103154" transform="translate(-214.941 -642.168) rotate(6.908)">
          <g id="Group_103147" data-name="Group 103147" transform="translate(0.052 3.719)">
            <g id="Group_103146" data-name="Group 103146" transform="translate(0 0)">
              <path id="Path_75052" data-name="Path 75052" d="M77.608,29.571H77.53a33.462,33.462,0,0,0-9.875-19.33A33.691,33.691,0,0,0,42.929,0,33.635,33.635,0,0,0,18.2,10.241,33.47,33.47,0,0,0,7.989,34.207H7.936L0,101.129q51.835,20.063,86.226-4.112Z" fill="#ece7de"/>
            </g>
          </g>
          <g id="Group_103150" data-name="Group 103150" transform="translate(0 0)">
            <g id="Group_103149" data-name="Group 103149">
              <g id="Group_103148" data-name="Group 103148">
                <path id="Path_75053" data-name="Path 75053" d="M56.235,5.946,51.756,0,27.24,1.519,14.615,17.863l-4.793,9.3A73.437,73.437,0,0,0,7.648,39.289L0,104.8a131.2,131.2,0,0,0,35.7,8.958Q2.669,104.4,16.816,33.474,19.327,18.29,28.55,11.97A58.057,58.057,0,0,1,56.235,5.946Z" fill="#d8cdc7"/>
              </g>
            </g>
          </g>
          <g id="Group_103153" data-name="Group 103153" transform="translate(42.104 105.281)">
            <g id="Group_103152" data-name="Group 103152" transform="translate(0 0)">
              <g id="Group_103151" data-name="Group 103151">
                <path id="Path_75054" data-name="Path 75054" d="M6.352,3.156,3.209.013a.033.033,0,0,0-.052,0L.013,3.156a.033.033,0,0,0,0,.052L3.156,6.352a.033.033,0,0,0,.052,0L6.352,3.209a.033.033,0,0,0,0-.052M3.182,6.247l.026.026H3.156l.026-.026L.118,3.182l-.026.026V3.156l.026.026L3.182.118,6.247,3.182,3.182,6.247M3.235,2.4l-.052-.052L3.13,2.4V3.13H2.4l-.052.052.052.052H3.13v.733l.052.052.052-.052V3.235h.733l.052-.052L3.968,3.13H3.235Z" fill="rgba(0,0,0,0)"/>
              </g>
            </g>
          </g>
        </g>
        <g id="Group_103180" data-name="Group 103180" transform="matrix(0.993, -0.121, 0.121, 0.993, -234.369, -679.987)">
          <g id="Group_103156" data-name="Group 103156" transform="translate(27.462 0)">
            <g id="Group_103155" data-name="Group 103155" transform="translate(0 0)">
              <path id="Path_75055" data-name="Path 75055" d="M40.913,7.528a78.189,78.189,0,0,0-8.076-4.234,36.7,36.7,0,0,0-6.456-2.2q-2.94-.644-5.8-1.1a19.4,19.4,0,0,0-5.672.81q-2.718.915-5.41,1.777l-.68.261A74.358,74.358,0,0,0,.035,7.005q-.157-.157.392,1.229.627,1.568,1.228,2.8a21.257,21.257,0,0,0,3.163,4.025,56.782,56.782,0,0,0,5.8,5.515q3.215,2.666,6.586,4.992a43.222,43.222,0,0,0,6.377,3.712,62.14,62.14,0,0,0,7.527,2.745q1.045-2.692,1.725-4.078A46.281,46.281,0,0,0,35.581,20.6q1.072-3.8,1.934-6.979A16.162,16.162,0,0,1,40.913,7.528Z" fill="#e2ad98"/>
            </g>
          </g>
          <g id="Group_103158" data-name="Group 103158" transform="translate(57.402 3.79)">
            <g id="Group_103157" data-name="Group 103157" transform="translate(0 0)">
              <path id="Path_75056" data-name="Path 75056" d="M5.013,1.176,4.882.026,4.83,0,4.8.052,4.7,1.176v.288l-.026.157v.157L4.412,4.914v.1l-.026.131L4.255,6.456v.131l-.026.052v.078L3.053,14.4,1.458,21.12.021,26.034q-.052.052.026.052Q.1,26.138.1,26.06l1.385-2.98.026-.1.052-.1,2.013-6.143.026-.157.052-.131L4.987,8.364l.052-6.744-.026-.157Z" fill="#c18770"/>
            </g>
          </g>
          <g id="Group_103160" data-name="Group 103160" transform="translate(0.229 15.848)">
            <g id="Group_103159" data-name="Group 103159" transform="translate(0 0)">
              <path id="Path_75057" data-name="Path 75057" d="M28.4,14.2A13.719,13.719,0,0,0,24.225,4.139,13.651,13.651,0,0,0,14.2,0,13.785,13.785,0,0,0,4.139,4.139,13.787,13.787,0,0,0,0,14.2,13.652,13.652,0,0,0,4.139,24.226,13.717,13.717,0,0,0,14.2,28.406a13.584,13.584,0,0,0,10.023-4.18A13.586,13.586,0,0,0,28.4,14.2Z" fill="#ece7de"/>
            </g>
          </g>
          <g id="Group_103162" data-name="Group 103162" transform="translate(6.901 5.646)">
            <g id="Group_103161" data-name="Group 103161" transform="translate(0 0)">
              <path id="Path_75058" data-name="Path 75058" d="M58.207,5.254q-.653,2.614-1.228,6.012a62.879,62.879,0,0,1-1.62,7.005,31.725,31.725,0,0,1-3.5,7.842q-.261.418-.5.863a18.841,18.841,0,0,1-6.011-1.516,58.563,58.563,0,0,1-5.2-2.692q-2.431-1.438-4.809-3.058A41.023,41.023,0,0,1,30.5,15.788a39.5,39.5,0,0,1-4.051-4.627A35.756,35.756,0,0,1,23.21,6.012a39.606,39.606,0,0,1-2.065-4.783Q20.91.6,20.727,0,16.449,4.243,0,12.259q.314,3.11.523,6.273Q.758,21.9.967,25.25q.157,2.614.288,5.123.131,2.143.261,4.313.183,3.11.418,6.247Q2.2,44.3,2.378,47.65q.183,2.928.47,5.829l.627,6.169q.373,3.348.653,6.8.3,3.45.523,6.927t.366,5.855q.169,2.4.444,4.13A24.425,24.425,0,0,1,7.4,80.637q1.175-1.39,2.927-3.842t3.738-5.2q1.438-2.039,3.032-4.078a62.392,62.392,0,0,1,5.018-5.672,47.432,47.432,0,0,1,5.254-4.5,39.5,39.5,0,0,1,5.463-3.293,26.491,26.491,0,0,1,4.13-1.647,24.852,24.852,0,0,1,6.822-.889,23.171,23.171,0,0,1,4.888.993,30.333,30.333,0,0,1,7.919,3.947,34.56,34.56,0,0,1,5.619,4.809,72.238,72.238,0,0,1,4.966,5.855,64.993,64.993,0,0,1,4.286,6.326q1.8,3.032,3.659,6.143a2.337,2.337,0,0,1,.209.836q.078-1.307.1-2.954.026-2.2.1-5.594t.026-6.482a41.425,41.425,0,0,1,.131-5.123,17.918,17.918,0,0,1,.5-3.137,35.906,35.906,0,0,1,1.255-3.607,28.282,28.282,0,0,0,1.49-6.378,14.167,14.167,0,0,0-.627-6.874q-1.124-2.954-1.934-5.907a19.147,19.147,0,0,1-.81-4.365q.055-1.334.052-4.025a45.649,45.649,0,0,0-.47-6.3A7.936,7.936,0,0,1,76.45,13.67q1.827-2.431,1.228-3.346a13.807,13.807,0,0,0-2.3-2.431A16.675,16.675,0,0,0,70.2,5.019q-3.477-1.33-6.822-2.535A16.286,16.286,0,0,1,58.913.314,24.8,24.8,0,0,1,58.207,5.254Z" transform="translate(0)" fill="#ece7de"/>
            </g>
          </g>
          <g id="Group_103165" data-name="Group 103165" transform="translate(8.39 36.202)">
            <g id="Group_103164" data-name="Group 103164" transform="translate(0 0)">
              <g id="Group_103163" data-name="Group 103163">
                <path id="Path_75059" data-name="Path 75059" d="M16.492,35.784q-4.768-11.8-3.372-21.982A67.19,67.19,0,0,0,19,0Q.222,8.565,0,7.031L3.816,53.244Z" fill="#d8cdc7"/>
              </g>
            </g>
          </g>
          <g id="Group_103170" data-name="Group 103170" transform="translate(0 6.822)">
            <g id="Group_103167" data-name="Group 103167" transform="translate(64.219 0)">
              <g id="Group_103166" data-name="Group 103166" transform="translate(0 0)">
                <path id="Path_75060" data-name="Path 75060" d="M18.27,28.648l2.4-19.238a17.957,17.957,0,0,0-6.09-4.966Q9.369,2.676,3.11,0L0,9.462Q19.062,18.334,18.27,28.648Z" fill="#7a2230"/>
              </g>
            </g>
            <g id="Group_103169" data-name="Group 103169" transform="translate(0 1.072)">
              <g id="Group_103168" data-name="Group 103168" transform="translate(0 0)">
                <path id="Path_75061" data-name="Path 75061" d="M28.882,24.936A100.534,100.534,0,0,1,35.834,13.88L24.6,0a89.243,89.243,0,0,1-8.155,5.071Q4.051,10.9,3.633,12.6a13.828,13.828,0,0,0-2.875,4.94A25,25,0,0,0,0,21.93q.046.968.131,3.529.1,2.589,4.234,6.718a13.718,13.718,0,0,0,10.063,4.182,13.632,13.632,0,0,0,10.037-4.182A13.832,13.832,0,0,0,25.98,30.4l.052.026.157-.288Q26.711,29.2,28.882,24.936Z" fill="#7a2230"/>
              </g>
            </g>
          </g>
          <g id="Group_103172" data-name="Group 103172" transform="translate(22.504 3.372)">
            <g id="Group_103171" data-name="Group 103171" transform="translate(0 0)">
              <path id="Path_75062" data-name="Path 75062" d="M45.557,3.163A10.223,10.223,0,0,0,39.65,0a63.047,63.047,0,0,1-4.574,26.452Q14.506,20.231,6.3,1.072A11.579,11.579,0,0,0,0,4.94q10.193,19.97,37.4,28.02Q42,26.844,45.557,3.163Z" fill="#7a2230"/>
            </g>
          </g>
          <g id="Group_103174" data-name="Group 103174" transform="translate(22.491 3.372)">
            <g id="Group_103173" data-name="Group 103173" transform="translate(0 0)">
              <path id="Path_75063" data-name="Path 75063" d="M28.92,29.406q-.575-.235-1.7-.784L22.752,26.3,16.3,22.165q-1.647-1.176-3.5-2.692L9.213,16.258,5.267,12.024l-.131-.183L4.247,10.8l-.052-.1-.261-.314L.091,4.966q-.052-.026-.078,0-.026.052,0,.078l2.2,3.842L5.58,13.54l3.372,3.738q1.411,1.464,3.189,2.98,1.908,1.594,3.528,2.771L19.9,25.8l3.79,2.065,5.75,2.562.1.026.1.052,7.763,2.431q.052.052.052-.026.052-.052-.026-.052l-8.521-3.45M39.976,1.2,39.767.026,39.715,0l-.026.052-.183,7.136L38.434,15.4l-1.62,6.195-1.2,3.4-.078.131L35.01,26.5q-.052.052.026.052.052.052.052-.026l1.255-2.2,2.3-5.7q.444-1.49.653-2.4l.261-1.255q.235-1.2.235-1.281l.34-2.535q.131-1.1.183-2.483l.052-1.751Z" transform="translate(0)" fill="#4b0f18"/>
            </g>
          </g>
          <g id="Group_103176" data-name="Group 103176" transform="translate(31.443 9.841)">
            <g id="Group_103175" data-name="Group 103175" transform="translate(0 0)">
              <path id="Path_75064" data-name="Path 75064" d="M18.714,17.866l3.947,1.307,2.091.444q.052.052.052-.026.052-.052-.026-.052L20.2,17.761l-.131-.078L16.728,16.01q-1.019-.6-1.15-.706l-.47-.261-.131-.1-1.228-.784L9.906,11.226,9.775,11.1l-.157-.1L6.221,7.7,3.45,4.535,3.372,4.4l-.1-.1L2.039,2.731l-.052-.1L1.83,2.444.078.013Q.026-.013,0,.013V.091L1.568,2.914l.078.1.052.1.863,1.333Q3.607,5.92,4.025,6.469L5.306,8.064l3.921,3.947,2.091,1.673,3.163,2.091.157.078.157.1.627.34.078.052.078.026Z" transform="translate(0 0)" fill="#a84657"/>
            </g>
          </g>
          <g id="Group_103179" data-name="Group 103179" transform="translate(44.08 84.676)">
            <g id="Group_103178" data-name="Group 103178" transform="translate(0 0)">
              <g id="Group_103177" data-name="Group 103177">
                <path id="Path_75065" data-name="Path 75065" d="M6.338,3.15,3.2.013a.033.033,0,0,0-.052,0L.013,3.15a.033.033,0,0,0,0,.052L3.149,6.339a.033.033,0,0,0,.052,0L6.338,3.2a.033.033,0,0,0,0-.052M3.176,6.234,3.2,6.26H3.149l.026-.026L.118,3.176.091,3.2V3.15l.026.026L3.176.118,6.234,3.176,3.176,6.234m.052-3.842-.052-.052-.052.052v.732H2.392l-.052.052.052.052h.732V3.96l.052.052.052-.052V3.228H3.96l.052-.052L3.96,3.124H3.228Z" fill="rgba(0,0,0,0)"/>
              </g>
            </g>
          </g>
        </g>
        <g id="Group_103191" data-name="Group 103191" transform="matrix(0.999, -0.05, 0.05, 0.999, -200.784, -726.366)">
          <g id="Group_103182" data-name="Group 103182" transform="translate(0 9.937)">
            <g id="Group_103181" data-name="Group 103181" transform="translate(0 0)">
              <path id="Path_75066" data-name="Path 75066" d="M24.727,42.826l.1-41.674L2.855,0,0,39.395Q18.885,51.5,24.727,42.826Z" fill="#e2ad98"/>
            </g>
          </g>
          <g id="Group_103184" data-name="Group 103184" transform="translate(2.657 0)">
            <g id="Group_103183" data-name="Group 103183" transform="translate(0 0)">
              <path id="Path_75067" data-name="Path 75067" d="M3.231,3.231A10.655,10.655,0,0,0,0,11.054a10.655,10.655,0,0,0,3.231,7.823,10.655,10.655,0,0,0,7.823,3.231,10.655,10.655,0,0,0,7.823-3.231,10.655,10.655,0,0,0,3.231-7.823,10.655,10.655,0,0,0-3.231-7.823A10.655,10.655,0,0,0,11.054,0,10.655,10.655,0,0,0,3.231,3.231Z" fill="#e2ad98"/>
            </g>
          </g>
          <g id="Group_103187" data-name="Group 103187" transform="translate(2.331 8.313)">
            <g id="Group_103186" data-name="Group 103186" transform="translate(0 0)">
              <g id="Group_103185" data-name="Group 103185">
                <path id="Path_75068" data-name="Path 75068" d="M22.526,30.149,22.448,0,.314,1.31,0,8.644Q8.644,27.215,22.526,30.149Z" fill="#c18770"/>
              </g>
            </g>
          </g>
          <g id="Group_103190" data-name="Group 103190" transform="translate(8.788 50.917)">
            <g id="Group_103189" data-name="Group 103189" transform="translate(0 0)">
              <g id="Group_103188" data-name="Group 103188">
                <path id="Path_75069" data-name="Path 75069" d="M6.352,3.156,3.209.013a.033.033,0,0,0-.052,0L.013,3.156a.033.033,0,0,0,0,.052L3.156,6.352a.033.033,0,0,0,.052,0L6.352,3.209a.033.033,0,0,0,0-.052M3.182,6.247l.026.026H3.156l.026-.026L.118,3.182l-.026.026V3.156l.026.026L3.182.118,6.247,3.182,3.182,6.247M3.235,2.4l-.052-.052L3.13,2.4V3.13H2.4l-.052.052.052.052H3.13v.733l.052.052.052-.052V3.235h.733l.052-.052L3.968,3.13H3.235Z" fill="rgba(0,0,0,0)"/>
              </g>
            </g>
          </g>
        </g>
        <g id="Group_103328" data-name="Group 103328" transform="translate(-210.789 -806.694) rotate(8.806)">
          <g id="Group_103194" data-name="Group 103194" transform="translate(14.342 24.982)">
            <g id="Group_103193" data-name="Group 103193" transform="translate(0 0)">
              <g id="Group_103192" data-name="Group 103192">
                <path id="Path_75070" data-name="Path 75070" d="M53.574,7.909Q45.339.153,31.85,0A30.368,30.368,0,0,0,9.183,9.047,30.3,30.3,0,0,0,0,31.242Q.006,44.235,10.376,53.3q10.395,9.086,30.13,9.211,19.76.156,19.893-10.071t.777-23.5Q61.837,15.672,53.574,7.909Z" fill="#e2ad98"/>
              </g>
            </g>
          </g>
          <g id="Group_103197" data-name="Group 103197" transform="translate(18.026 60.122)">
            <g id="Group_103196" data-name="Group 103196" transform="translate(0 0)">
              <g id="Group_103195" data-name="Group 103195">
                <path id="Path_75071" data-name="Path 75071" d="M61.16,11.708Q61.671,6.911,55.372,0L.208,3.327Q-1.049,17.707,5.29,25.3q8.765,16.382,35.492,23.522Q56.55,35.125,61.16,11.708Z" fill="#e2ad98"/>
              </g>
            </g>
          </g>
          <g id="Group_103216" data-name="Group 103216" transform="translate(34.964 58.964)">
            <g id="Group_103202" data-name="Group 103202" transform="translate(28.009 2.625)">
              <g id="Group_103199" data-name="Group 103199" transform="translate(0 0)">
                <g id="Group_103198" data-name="Group 103198">
                  <path id="Path_75072" data-name="Path 75072" d="M6.884,4.493A5.073,5.073,0,0,0,5.866,1.306,2.971,2.971,0,0,0,3.442,0,3.016,3.016,0,0,0,1,1.306,5.131,5.131,0,0,0,0,4.493,5.059,5.059,0,0,0,1,7.664,3.005,3.005,0,0,0,3.442,8.986,2.961,2.961,0,0,0,5.866,7.664,5,5,0,0,0,6.884,4.493Z" fill="#231915"/>
                </g>
              </g>
              <g id="Group_103201" data-name="Group 103201" transform="translate(3.797 2.135)">
                <g id="Group_103200" data-name="Group 103200" transform="translate(0 0)">
                  <path id="Path_75073" data-name="Path 75073" d="M1.663,1.052A1.277,1.277,0,0,0,1.391.289.679.679,0,0,0,.8,0,.726.726,0,0,0,.222.323a1.31,1.31,0,0,0-.22.8,1.154,1.154,0,0,0,.271.746.71.71,0,0,0,.61.305.672.672,0,0,0,.56-.339A1.2,1.2,0,0,0,1.663,1.052Z" fill="#fff"/>
                </g>
              </g>
            </g>
            <g id="Group_103204" data-name="Group 103204" transform="translate(26.608 1.178)">
              <g id="Group_103203" data-name="Group 103203" transform="translate(0 0)">
                <path id="Path_75074" data-name="Path 75074" d="M8.717.045a35.759,35.759,0,0,0-3.624,0q-2.284.127-2.94,1.47A28.8,28.8,0,0,1,0,5.139,17.522,17.522,0,0,1,1.573,4.25,15.548,15.548,0,0,1,5.162,2.814a4.992,4.992,0,0,1,3.624.342,13.076,13.076,0,0,1,3.042,2.085l.444-.068A18.11,18.11,0,0,0,8.717.045Z" fill="#e2ad98"/>
              </g>
            </g>
            <g id="Group_103206" data-name="Group 103206" transform="translate(26.357 2.967)">
              <g id="Group_103205" data-name="Group 103205" transform="translate(0 0)">
                <path id="Path_75075" data-name="Path 75075" d="M9.891.82l-.1-.034L9.515.615,9.31.547l-.171-.1L8.318.171h-.1L7.977.1h-.1L7.7.068H7.566l-.1-.034h-.41L6.848,0h-.41L6.233.034h-.41L4.592.273,3.43.684,2.37,1.3l-.65.513-.068.034-.41.513-.068.068L1.14,2.5l-.1.137L.8,2.872l-.1.137-.034.068-.068.068-.581.82q-.034.034.034.1H.114l.855-.581.137-.068.513-.41.068-.034.068-.068.513-.41-.034.034L2.3,2.5H2.268l1.607-.684.171-.034.171-.068L5.789,1.4h.342L6.3,1.367H7.19l.171.034h.171l.205.034h.137l.1.034h.068l.513.1.137.068.171.034.82.342,1.162.684.068.034.137.137.171.1L12.66,4.2h.1V4.1l-.137-.342-.068-.1-.137-.273-.444-.65-.923-1.06-.068-.068-.1-.068a4.983,4.983,0,0,0-.65-.479L10.062.923Z" fill="#231915"/>
              </g>
            </g>
            <g id="Group_103211" data-name="Group 103211" transform="translate(3.43 3.582)">
              <g id="Group_103208" data-name="Group 103208" transform="translate(0 0)">
                <g id="Group_103207" data-name="Group 103207">
                  <path id="Path_75076" data-name="Path 75076" d="M6.884,4.493A5.073,5.073,0,0,0,5.866,1.306,2.971,2.971,0,0,0,3.442,0,3.016,3.016,0,0,0,1,1.306,5.131,5.131,0,0,0,0,4.493,5.059,5.059,0,0,0,1,7.664,3.005,3.005,0,0,0,3.442,8.986,2.961,2.961,0,0,0,5.866,7.664,5,5,0,0,0,6.884,4.493Z" fill="#231915"/>
                </g>
              </g>
              <g id="Group_103210" data-name="Group 103210" transform="translate(3.797 2.135)">
                <g id="Group_103209" data-name="Group 103209" transform="translate(0 0)">
                  <path id="Path_75077" data-name="Path 75077" d="M1.663,1.052A1.277,1.277,0,0,0,1.391.289.679.679,0,0,0,.8,0,.726.726,0,0,0,.222.323a1.31,1.31,0,0,0-.22.8,1.154,1.154,0,0,0,.271.746.71.71,0,0,0,.61.305.672.672,0,0,0,.56-.339A1.2,1.2,0,0,0,1.663,1.052Z" fill="#fff"/>
                </g>
              </g>
            </g>
            <g id="Group_103213" data-name="Group 103213" transform="translate(0.422 0)">
              <g id="Group_103212" data-name="Group 103212" transform="translate(0)">
                <path id="Path_75078" data-name="Path 75078" d="M12.033,2.488A18.108,18.108,0,0,0,9.538.642,3.938,3.938,0,0,0,6.529.095,6.433,6.433,0,0,0,3.213,2.18,23.937,23.937,0,0,0,0,6.9q1.06-.82,2.051-1.573A9.9,9.9,0,0,1,5.572,3.616a7.9,7.9,0,0,1,3.35-.171,12.714,12.714,0,0,1,3.76,1.3Q14.46,5.77,16.306,6.659a4.279,4.279,0,0,0-.991-1.2Q13.708,3.958,12.033,2.488Z" fill="#e2ad98"/>
              </g>
            </g>
            <g id="Group_103215" data-name="Group 103215" transform="translate(0 2.898)">
              <g id="Group_103214" data-name="Group 103214" transform="translate(0 0)">
                <path id="Path_75079" data-name="Path 75079" d="M13.48,1.709l-.137-.068L11.6.718A7.28,7.28,0,0,0,10.609.41l-.273-.1L8.763.034H8.524L8.387,0H7.464A6.56,6.56,0,0,0,6.37.068l-1.2.239L4.558.513,4.421.581,4.285.615l-.957.479-.034.034-.068.034-.1.068L2.986,1.3l-.547.376-.786.684-.034.034v.034l-.205.239L.285,4.2l-.068.171-.205.273q-.034.034.034.1H.114l.273-.205L.524,4.41l.137-.1L2.2,2.94l-.034.068.82-.513L3.4,2.29l.1-.068.137-.034.1-.068h.034l.273-.137h.068l.034-.034.239-.068.034-.034H4.49l.342-.137h.1l.581-.171h.1l1.128-.171.82-.034.137.034h.718l.444.068H9l.1.034h.239l.239.034.239.068.444.068.479.137h.034l.068.034.1.034.239.034.889.308.444.205.239.068.1.068.1.034.889.444.205.137.205.1,2.085,1.367q.034.034.1-.034V4.512l-.308-.41-1.436-1.47Z" fill="#231915"/>
              </g>
            </g>
          </g>
          <g id="Group_103219" data-name="Group 103219" transform="translate(30.628 53.084) rotate(-11.892)">
            <g id="Group_103218" data-name="Group 103218" transform="translate(0 0)">
              <g id="Group_103217" data-name="Group 103217">
                <path id="Path_75080" data-name="Path 75080" d="M0,2.908l.854-.4A11.237,11.237,0,0,1,6.767,1.6a20.969,20.969,0,0,1,4.45,1.1,9.069,9.069,0,0,1,1.433.579q.457.244,1.341.823a.847.847,0,0,0,.64.213.23.23,0,0,1-.03.122,1.214,1.214,0,0,0-.061-1.006,2.733,2.733,0,0,0-.914-1.311A8.56,8.56,0,0,0,11.065.683,15.073,15.073,0,0,0,5.121.043a8,8,0,0,0-3.2,1.006A19.519,19.519,0,0,0,0,2.908Z" transform="translate(3.658 0)" fill="#540e00"/>
                <path id="Path_75081" data-name="Path 75081" d="M3.841,1.1,3.6,1.28q-.077.059-.152.122a.166.166,0,0,1-.061.03.271.271,0,0,1-.061.061.323.323,0,0,1-.061.061,2.379,2.379,0,0,1-.213.152.062.062,0,0,1-.03.03.251.251,0,0,1-.061.061.135.135,0,0,1-.061.03.063.063,0,0,1-.061.03L1.25,3.536A9.783,9.783,0,0,0,0,5.517,8.7,8.7,0,0,1,1.067,4.45,13.389,13.389,0,0,1,3.505,2.9,13.113,13.113,0,0,1,9.571,1.463,14.137,14.137,0,0,1,15.79,2.835q2.012.975,2.378.671l.03-.03.061-.091a.23.23,0,0,0,.03-.122.847.847,0,0,1-.64-.213q-.884-.579-1.341-.823a9.069,9.069,0,0,0-1.433-.579,20.969,20.969,0,0,0-4.45-1.1,11.237,11.237,0,0,0-5.914.914l-.854.4A19.519,19.519,0,0,1,5.578,0,14.622,14.622,0,0,0,3.841,1.1Z" transform="translate(0 1.049)" fill="#2b0700"/>
              </g>
            </g>
          </g>
          <g id="Group_103222" data-name="Group 103222" transform="matrix(-0.979, -0.206, 0.206, -0.979, 74.079, 58.609)">
            <g id="Group_103221" data-name="Group 103221" transform="translate(0 0)">
              <g id="Group_103220" data-name="Group 103220">
                <path id="Path_75082" data-name="Path 75082" d="M0,1.458l.6.379a6.089,6.089,0,0,0,4.166.875A11.67,11.67,0,0,0,7.9,1.662a5.581,5.581,0,0,0,1.009-.554q.322-.233.945-.787.267-.259.451-.2A.284.284,0,0,0,10.287,0a1.542,1.542,0,0,1-.043.962A2.754,2.754,0,0,1,9.6,2.216a5.841,5.841,0,0,1-1.8,1.37A8.012,8.012,0,0,1,3.608,4.2a4.646,4.646,0,0,1-2.255-.962A16.918,16.918,0,0,1,0,1.458Z" transform="translate(2.577 2.041)" fill="#540e00"/>
                <path id="Path_75083" data-name="Path 75083" d="M2.706,4.228l-.172-.175Q2.48,4,2.427,3.936a.109.109,0,0,0-.043-.029.238.238,0,0,0-.043-.058A.285.285,0,0,0,2.3,3.79a1.8,1.8,0,0,0-.15-.146.054.054,0,0,0-.021-.029.22.22,0,0,0-.043-.058.089.089,0,0,0-.043-.029A.042.042,0,0,0,2,3.5L.881,1.9A10.3,10.3,0,0,1,0,0,7.655,7.655,0,0,0,.752,1.02,9.654,9.654,0,0,0,2.47,2.507a7.33,7.33,0,0,0,4.274,1.37,7.85,7.85,0,0,0,4.381-1.312q1.417-.933,1.675-.641l.021.029.043.087a.284.284,0,0,1,.021.117q-.184-.055-.451.2-.623.554-.945.787A5.581,5.581,0,0,1,10.48,3.7a11.67,11.67,0,0,1-3.136,1.05,6.089,6.089,0,0,1-4.166-.875l-.6-.379A16.918,16.918,0,0,0,3.93,5.277,10.476,10.476,0,0,1,2.706,4.228Z" fill="#2b0700"/>
              </g>
            </g>
          </g>
          <g id="Group_103227" data-name="Group 103227" transform="translate(56.109 57.551)">
            <g id="Group_103224" data-name="Group 103224" transform="translate(0.105 0)">
              <g id="Group_103223" data-name="Group 103223" transform="translate(0)">
                <path id="Path_75084" data-name="Path 75084" d="M12.442,20.435a7.367,7.367,0,0,0-4.427-6Q5.283,8.776,6.627.842q-2.384-1.925-5.448.55L0,21.614Q6.561,26.289,12.442,20.435Z" fill="#e2ad98"/>
              </g>
            </g>
            <g id="Group_103226" data-name="Group 103226" transform="translate(0 0.711)">
              <g id="Group_103225" data-name="Group 103225" transform="translate(0 0)">
                <path id="Path_75085" data-name="Path 75085" d="M6.47,3.222,6.732.052Q6.784,0,6.706,0L6.653.026l-.707,3.85L5.867,7.806l.026.052.183,1.807.052.236v.1L6.47,11.5l.079.21.052.236.288.891.1.21.629,1.519a.478.478,0,0,0,.288.262h.026l1.153.471.55.288,1.022.733.131.079v.026h.026l.079.079.052.026v.026h.026l.026.052.052.052h.026l.026.026.236.314.052.1.21.576v.079l.052.262v.445l-.026.131v.079l-.026.079v.131l-.052.157v.1l-.026.026v.079l-.236.6-.314.471-.419.471a4.642,4.642,0,0,1-.943.786,12.21,12.21,0,0,1-1.1.655l-.131.079-.157.052-.131.079-.157.052-.052.052-.367.131-.131.026a4.781,4.781,0,0,1-1.231.183H5.841l-1.572-.21L3.641,22.5a10.633,10.633,0,0,1-1.231-.471q-.393-.157-1.179-.576a4.279,4.279,0,0,1-.576-.314l-.576-.314Q0,20.745,0,20.85V20.9l1.1.786a12.767,12.767,0,0,0,1.126.707l1.231.6,1.467.471.864.131h.262l.1.026A6.5,6.5,0,0,0,7.57,23.5l.6-.183.052-.026h.026l.157-.079.183-.052L8.906,23a4.39,4.39,0,0,0,.6-.314l.6-.341a7.823,7.823,0,0,0,1.126-.864l.5-.55.419-.6.314-.707.052-.183v-.079l.026-.026v-.079l.052-.183.026-.183v-.079l.026-.1.026-.183v-.55l-.052-.393v-.1L12.494,17l-.079-.183-.052-.052-.026-.1-.052-.079-.052-.1L11.892,16l-.052-.026-.026-.052-.262-.262-.052-.026-.026-.026-.157-.131-1.153-.786-1.257-.6-.445-.157-.6-1.336L6.994,9.823v-.1l-.052-.21L6.679,7.963V7.832l-.026-.026V7.727L6.6,7.282Z" fill="#c18770"/>
              </g>
            </g>
          </g>
          <g id="Group_103238" data-name="Group 103238" transform="matrix(0.999, -0.034, 0.034, 0.999, 48.42, 85.493)">
            <g id="Group_103229" data-name="Group 103229" transform="translate(1.007 1.343)">
              <g id="Group_103228" data-name="Group 103228" transform="translate(0 0)">
                <path id="Path_75086" data-name="Path 75086" d="M0,0Q2.578,6.788,5,8.226q3.767,2.854,8.279-.336-.261-2.77,3.767-5.918A19.263,19.263,0,0,1,0,0Z" fill="#712024"/>
              </g>
            </g>
            <g id="Group_103231" data-name="Group 103231" transform="translate(3.823 6.273)">
              <g id="Group_103230" data-name="Group 103230" transform="translate(0 0)">
                <path id="Path_75087" data-name="Path 75087" d="M8.9,3.644Q9.438,3.4,8.3,2.306A8.88,8.88,0,0,0,5.068.521,7.942,7.942,0,0,0,1.423.06Q-.08.331,0,.916a3.518,3.518,0,0,0,1.2,1.669A5.884,5.884,0,0,0,3.865,4.021a7.132,7.132,0,0,0,3,.121A7.286,7.286,0,0,0,8.9,3.644Z" fill="#fdb4b8"/>
              </g>
            </g>
            <g id="Group_103233" data-name="Group 103233" transform="translate(0.503 0.785)">
              <g id="Group_103232" data-name="Group 103232" transform="translate(0 0)">
                <path id="Path_75088" data-name="Path 75088" d="M9.193,3.16H9.007l-.448-.084H8.447l-.112-.042-.224-.042L8,2.95H7.888l-1.9-.5L5.762,2.4,5.576,2.32l-.224-.042-.186-.084-.41-.126L.876.474.317.138.131.054Q.019-.072.019.1a.057.057,0,0,0,0,.084L1.548,1.439l.82.5.149.126,1.566.8a16.214,16.214,0,0,0,1.6.671l1.79.546.186.084h.112l.112.042.224.042.112.042h.149l.485.084.112.042h.112l.261.042.97.042,2.8-.252L15.2,3.705l3.357-1.469L18.7,2.11l.261-.126.186-.126q.112,0,.037-.084,0-.126-.075-.042l-4.7,1.175h-.186l-.634.126h-.186l-.448.084-.634.042-.112.042-2.35.042L9.641,3.2H9.417Z" fill="#231915"/>
              </g>
            </g>
            <g id="Group_103235" data-name="Group 103235" transform="translate(0.753 1.058)">
              <g id="Group_103234" data-name="Group 103234" transform="translate(0 0)">
                <path id="Path_75089" data-name="Path 75089" d="M.03.118l.037.21L1.111,3.1,2.64,5.867q.671.923,1.119,1.427L5.1,8.553a8.72,8.72,0,0,0,1.566.881l.6.252,1.044.21h.82a4.579,4.579,0,0,0,.746-.042l1.38-.336L12.822,8.8l1.007-.713q.149,0,.037-.126h-.075L12,8.721,10.51,9.1l-.336.042-.149.042H8.757L8.57,9.141H8.384l-.746-.21a2.9,2.9,0,0,1-.709-.252A6.279,6.279,0,0,1,5.512,7.84L4.244,6.707,2.827,4.86l-.112-.126-.336-.5L2.268,4.1.142.076Q.142-.05.067.034-.045.034.03.118Z" fill="#231915"/>
              </g>
            </g>
            <g id="Group_103237" data-name="Group 103237" transform="translate(0 0)">
              <g id="Group_103236" data-name="Group 103236" transform="translate(0 0)">
                <path id="Path_75090" data-name="Path 75090" d="M.41.671V.713H.373V.755L.261.923.224.965H.186v.042l-.037.126-.075.084v.126l-.037.126L0,1.553V1.8l.037.42.075.168.037.168L.186,2.6l.037.084L.3,2.77l.112.168.112.126H.559q.075.084.112,0V2.812L.634,2.644V1.973H.671V1.8l.037-.084.037-.126V1.553l.037-.042L.82,1.427l.037-.042.075-.126L.97,1.175l.186-.21L1.193.881,1.268.8h.037L1.38.671,1.641.5,1.716.42h.037L1.79.378h.075L1.9.336h.075L2.089.21,2.014.126,1.939.084H1.9L1.79.042H1.753L1.678,0H1.492L1.417.042,1.082.126l-.3.168L.709.378.634.42Z" fill="#c18770"/>
              </g>
            </g>
          </g>
          <g id="Group_103270" data-name="Group 103270" transform="translate(0 0)">
            <g id="Group_103240" data-name="Group 103240" transform="translate(0 0)">
              <g id="Group_103239" data-name="Group 103239">
                <path id="Path_75091" data-name="Path 75091" d="M.808,21.672q2.127,7.29,10.285,11.421a87.427,87.427,0,0,0,13.445,5.741q5.287,1.611,7.27-4.833A91.647,91.647,0,0,0,34.7,21.61q.929-5.927-2.54-14.064Q28.668-.611,17.144.05,5.6.69,2.151,7.546A18.632,18.632,0,0,0,.808,21.672Z" fill="#540e00"/>
              </g>
            </g>
            <g id="Group_103243" data-name="Group 103243" transform="translate(10.474 15.312)">
              <g id="Group_103242" data-name="Group 103242" transform="translate(0 0)">
                <g id="Group_103241" data-name="Group 103241">
                  <path id="Path_75092" data-name="Path 75092" d="M26.042,23.688,23.915,0Q6.014,1.974,0,17.286l12.7,11.09Z" fill="#380a00"/>
                </g>
              </g>
            </g>
            <g id="Group_103245" data-name="Group 103245" transform="translate(2.568 12.775)">
              <g id="Group_103244" data-name="Group 103244" transform="translate(0 0)">
                <path id="Path_75093" data-name="Path 75093" d="M.078.037q0-.062-.041-.021-.062,0-.021.041V.719l.021.1.392,3.2.929,3.284.227.537.041.145.186.413A18.128,18.128,0,0,0,2.928,10.59l1.59,2.4,2.189,2.478.124.1.867.847.124.083.1.1,1.983,1.59,3.883,2.4,1.053.516q.041,0,.041-.021.041-.041-.021-.041l-3.057-2.127-3.387-2.85-2.664-2.85L4.622,11.726,3.011,9.145,2.99,9.062,2.949,9,2.02,7.038l-.041-.062L.967,4.126.946,4,.9,3.9Z" fill="#380a00"/>
              </g>
            </g>
            <g id="Group_103247" data-name="Group 103247" transform="translate(6.244 4.721)">
              <g id="Group_103246" data-name="Group 103246" transform="translate(0 0)">
                <path id="Path_75094" data-name="Path 75094" d="M.078.037q0-.062-.041-.021-.062,0-.021.041V.636L.388,4.56.9,7.162l.7,2.313q.413,1.136.826,2.045l.31.62.041.062.021.062.682,1.218.31.454a.224.224,0,0,0,.083.1l.062.124.64.867a.224.224,0,0,1,.083.1.224.224,0,0,1,.083.1L5.427,16l.1.083.083.1.434.434.1.062,1.053.888,2.458,1.446,1.2.434q.041.041.041-.021.041-.041-.021-.041l-.227-.124L7.7,17.282,6.026,15.63l-.7-.867-.062-.1-.083-.1-.991-1.508a17.208,17.208,0,0,1-1.012-1.879l-.33-.743-1.3-3.7L.471,2.164.45,2,.409,1.855Z" fill="#380a00"/>
              </g>
            </g>
            <g id="Group_103249" data-name="Group 103249" transform="translate(10.66 3.973)">
              <g id="Group_103248" data-name="Group 103248" transform="translate(0 0)">
                <path id="Path_75095" data-name="Path 75095" d="M6.072,7.621,7.228,9.872l.062.1.124.31.1.186.723,1.8,1.425,4.853q0,.062.041.021.062,0,.021-.041v-.227L9.541,15.1,9.5,14.952l-.062-.475-.6-2.52L8.013,9.645l-.062-.1-.186-.434q-.372-.847-.847-1.693L5.225,4.853,4.378,3.8,2.561,1.941,1.673,1.2l-.1-.1L.62.372.475.289.062,0H0V.062l1.322,1.3.041.062L2.685,2.85a1.74,1.74,0,0,0,.248.289L4.543,5.2Z" fill="#380a00"/>
              </g>
            </g>
            <g id="Group_103251" data-name="Group 103251" transform="translate(17.537 6.586)">
              <g id="Group_103250" data-name="Group 103250" transform="translate(0 0)">
                <path id="Path_75096" data-name="Path 75096" d="M.062.01Q.041-.01,0,.01V.072L1.342,2.014l.145.248a11.77,11.77,0,0,1,.64,1.095l.764,1.611.062.186.083.165.537,1.735.021.041.021.062.083.372q.145.723.248,1.528l.1,2.478-.021.083-.1,1.3v.145l-.5,2.767q-.041.041.021.041l.041-.021.454-1.033.5-1.652L4.461,13l.186-.888V12.03l.062-.372v-.083l.021-.083v-.186q0-.041.062-.764V9.469l-.021-.1L4.75,8.973,4.5,7.342Q4.3,6.5,4.048,5.772L3.7,4.926l-.021-.083L2.292,2.468l-.743-.95Z" fill="#380a00"/>
              </g>
            </g>
            <g id="Group_103253" data-name="Group 103253" transform="translate(1.99 20.458)">
              <g id="Group_103252" data-name="Group 103252" transform="translate(0 0)">
                <path id="Path_75097" data-name="Path 75097" d="M2.453,3.755l-.041-.083L2.35,3.61l-.083-.145-.1-.124L2.123,3.28l-.062-.062-.516-.785-.062-.124L.078.037q0-.062-.041-.021-.062,0-.021.041L.058.244.615,1.71,1.689,3.837l.1.145.041.083.847,1.28L4.353,7.307l.083.062.847.805a14.628,14.628,0,0,0,1.177.909l2.334,1.384.083.021L9,10.549l2.148.764q.041.041.041-.021l-.021-.041L7.72,9.124l-1.9-1.57a6.519,6.519,0,0,1-.537-.5Z" fill="#380a00"/>
              </g>
            </g>
            <g id="Group_103255" data-name="Group 103255" transform="translate(27.471 5.306)">
              <g id="Group_103254" data-name="Group 103254" transform="translate(0 0)">
                <path id="Path_75098" data-name="Path 75098" d="M1.2,1.208l-.165-.165L.909.878.062.01Q.041-.01,0,.01V.072L.083.217.207.382.268.506l1.8,2.974.062.145.661,1.239.021.083.083.145L4.213,8.746l.1.392.021.165.041.145.1.558v.083l.124,1.033v.268l.021.145v1.074l-.041.413v.186l-.083.805q-.041.041.021.041l.041-.021.145-.351.434-2v-.145l.021-.145v-.145l.021-.062L5.06,8.994,4.791,7.776a12.575,12.575,0,0,0-.454-1.384l-.021-.083-.041-.083L3.263,4.12l-.041-.062L3.18,3.976Z" fill="#380a00"/>
              </g>
            </g>
            <g id="Group_103257" data-name="Group 103257" transform="translate(13.947 1.355)">
              <g id="Group_103256" data-name="Group 103256" transform="translate(0 0)">
                <path id="Path_75099" data-name="Path 75099" d="M11.644,7.906l-.268-.454-.021-.062a9.728,9.728,0,0,0-.682-.991l-.165-.248-.1-.124-.041-.062L9.1,4.6A20.1,20.1,0,0,0,7.327,3.156L6.295,2.495,3.383,1.049,3.176.987,2.99.9.058.017Q.017-.025.017.037-.025.078.037.078l1.508.64L6.026,3.135,8.236,4.89l.062.041.041.062.207.186a14.253,14.253,0,0,1,1.466,1.693,12.286,12.286,0,0,1,1.177,1.921,13.278,13.278,0,0,1,.785,2.024l.434,2a12.414,12.414,0,0,1,.186,1.838L12.429,18.5q-.041.041.021.041l.041-.021.475-2.272.145-2.168-.186-2.4-.578-2.168a10.217,10.217,0,0,0-.434-1.074L11.85,8.3l-.083-.124Z" fill="#380a00"/>
              </g>
            </g>
            <g id="Group_103259" data-name="Group 103259" transform="translate(19.747 0.008)">
              <g id="Group_103258" data-name="Group 103258" transform="translate(0 0)">
                <path id="Path_75100" data-name="Path 75100" d="M14.828,16.129l-.434-3.346-.558-2.189a18.777,18.777,0,0,0-.682-1.962L12.061,6.382,10.925,4.709,9.335,3.015l-.392-.31L8.9,2.643l-1.384-.95a12.011,12.011,0,0,0-1.9-.888L4.254.372,2.643.083,2.272.062Q1.59,0,1.074,0L.041.041A.037.037,0,0,0,0,.083L.021.1,1.446.289h.083L1.59.31,1.9.351,3.614.743,3.7.785l1.693.6a14.833,14.833,0,0,1,1.735.95,8.612,8.612,0,0,1,.847.6l.413.33.062.041.351.31a14.371,14.371,0,0,1,1.466,1.611A15.159,15.159,0,0,1,11.5,7.042l.971,1.879q.392.888.764,1.879l1.528,5.349q0,.062.041.021Q14.87,16.171,14.828,16.129Z" fill="#812511"/>
              </g>
            </g>
            <g id="Group_103261" data-name="Group 103261" transform="translate(0.086 8.975)">
              <g id="Group_103260" data-name="Group 103260" transform="translate(0 0)">
                <path id="Path_75101" data-name="Path 75101" d="M1.446.017Q1.4-.025,1.4.037L.558,2.846l-.434,2.6-.062.805q0,.041-.062,1.136L.083,9.207.1,9.372v.145l.248,1.57a16,16,0,0,0,.7,2.5q.083.248.5,1.218l.33.661.041.062.31.578.083.124.145.289,1.735,2.354,1.26,1.342,2.23,1.859.33.227a13.056,13.056,0,0,0,1.115.743l1.012.6q.062.062.062-.021.021,0,0-.041L8.075,21.887,4.812,18.542,3.47,16.621a11.148,11.148,0,0,1-.62-1.053,16.761,16.761,0,0,1-1.012-2.251q-.289-.785-.392-1.2l-.31-1.2A19.1,19.1,0,0,1,.785,8.546L.743,8.257.7,6.832.682,6.77.7,6.687.723,5.221,1.466.058Q1.508.017,1.446.017Z" fill="#380a00"/>
              </g>
            </g>
            <g id="Group_103263" data-name="Group 103263" transform="translate(15.534 1.334)">
              <g id="Group_103262" data-name="Group 103262" transform="translate(0 0)">
                <path id="Path_75102" data-name="Path 75102" d="M10.037,6.956a14.762,14.762,0,0,1,.888,1.652l.351.826L12,11.768l.6,3.284.041.021.021-.041.041-.7-.413-3.841-.041-.1-.475-1.632L10.595,6.315,9.521,4.87l-.7-.764a8.2,8.2,0,0,0-.743-.682l-.785-.64L5.659,1.772,4.853,1.38,2.623.553,1.983.388Q1.322.223.95.161L.041.017Q0-.025,0,.037L.021.078l.867.31L1.115.45l2.54,1.033.083.041.083.062.372.165L6.258,2.99l1.115.867L8.9,5.407Z" fill="#812511"/>
              </g>
            </g>
            <g id="Group_103265" data-name="Group 103265" transform="translate(13.101 2.573)">
              <g id="Group_103264" data-name="Group 103264" transform="translate(0 0)">
                <path id="Path_75103" data-name="Path 75103" d="M5.531,3.3A15.847,15.847,0,0,1,6.852,4.5q.661.743,1.157,1.425l.95,1.57.351.826a6.582,6.582,0,0,1,.31.847l.454,1.817.227,1.983.021,2.478q-.041.041.021.041l.041-.021.186-.867.186-2.705-.062-.991-.021-.1v-.1l-.227-1.3L9.785,7.369l-.062-.1-.041-.1a8.014,8.014,0,0,0-.454-.867l-1.3-1.817L7.6,4.126l-.083-.1L5.985,2.7q-.847-.6-1.466-.95L2.784.9.285.058.058.017Q.017-.025.017.037-.025.078.037.078l4.13,2.21Q4.932,2.8,5.531,3.3Z" fill="#812511"/>
              </g>
            </g>
            <g id="Group_103267" data-name="Group 103267" transform="translate(8.822 4.18)">
              <g id="Group_103266" data-name="Group 103266" transform="translate(0 0)">
                <path id="Path_75104" data-name="Path 75104" d="M.083,0,.062.041,0,1.838A9.221,9.221,0,0,0,.083,3.1l.5,2.685.7,2.107a17.592,17.592,0,0,0,.764,1.673,17.529,17.529,0,0,0,.888,1.611l1.983,2.809.682.785.062.083L8.1,17.224q.041.041.062,0,.041-.021,0-.062L6.03,14.415l-.062-.062L4.75,12.6l-.1-.186-.124-.165L2.664,9,1.4,5.968a7.57,7.57,0,0,1-.248-.785l-.1-.289L.888,4.234.826,4.068.372,1.8.33,1.673V1.549L.207.682.186.6V.516L.124.021Z" transform="translate(0)" fill="#812511"/>
              </g>
            </g>
            <g id="Group_103269" data-name="Group 103269" transform="translate(3.229 9.574)">
              <g id="Group_103268" data-name="Group 103268" transform="translate(0 0)">
                <path id="Path_75105" data-name="Path 75105" d="M.037.017q-.062,0-.021.041L.368,4.643.657,6.295q.083.5.392,1.755.227.805.558,1.776l1.074,2.582.434.785a12.638,12.638,0,0,0,.95,1.4l.743.909.971.929,1.2.867.227.124.062.021.289.165q.062.062.062-.021V17.55l-.33-.248L6.047,16.146l-1.26-1.59-.041-.083-.165-.227a16.241,16.241,0,0,1-.805-1.425l-.062-.083L3.693,12.7l-.021-.062-.1-.186L2.02,8.484.244.884.223.7.078.037Q.078-.025.037.017Z" fill="#812511"/>
              </g>
            </g>
          </g>
          <g id="Group_103295" data-name="Group 103295" transform="translate(5.319 17.715)">
            <g id="Group_103272" data-name="Group 103272" transform="translate(0.106 0.058)">
              <g id="Group_103271" data-name="Group 103271" transform="translate(0 0)">
                <path id="Path_75106" data-name="Path 75106" d="M35.1.165A34.314,34.314,0,0,0,24.633.744,31.685,31.685,0,0,0,13.44,5.68,19.562,19.562,0,0,0,10.3,8.612q-.723.847-1.384,1.735Q8.236,11.214,7.6,12.1q-.413.578-.785,1.177a46.519,46.519,0,0,0-4.089,8.653A49.83,49.83,0,0,0,.243,32.053,26.6,26.6,0,0,0,.718,41.78,67.109,67.109,0,0,0,5.406,53.9a63.758,63.758,0,0,0,8.034,7.6A12.233,12.233,0,0,0,18.066,53.7q4.667-34.345,23.585-36.142,12.164-10.1,30.214,1.9A40.926,40.926,0,0,0,58.751,8.323,92.924,92.924,0,0,0,45.7,2.541,49.88,49.88,0,0,0,35.1.165Z" fill="#380a00"/>
              </g>
            </g>
            <g id="Group_103274" data-name="Group 103274" transform="translate(0.106 0.058)">
              <g id="Group_103273" data-name="Group 103273" transform="translate(0 0)">
                <path id="Path_75107" data-name="Path 75107" d="M35.1.165A34.314,34.314,0,0,0,24.633.744,31.685,31.685,0,0,0,13.44,5.68,19.562,19.562,0,0,0,10.3,8.612q-.723.847-1.384,1.735Q8.236,11.214,7.6,12.1q-.413.578-.785,1.177a46.519,46.519,0,0,0-4.089,8.653A49.83,49.83,0,0,0,.243,32.053,26.6,26.6,0,0,0,.718,41.78,67.109,67.109,0,0,0,5.406,53.9a63.758,63.758,0,0,0,8.034,7.6q4.386,0,8.612-25.485-7.708-26.6,19.5-21.706,4.161-9.192,9.128-9.851-2.6-1.112-4.977-1.921A49.88,49.88,0,0,0,35.1.165Z" fill="#540e00"/>
              </g>
            </g>
            <g id="Group_103276" data-name="Group 103276" transform="translate(17.849 2.115)">
              <g id="Group_103275" data-name="Group 103275" transform="translate(0 0)">
                <path id="Path_75108" data-name="Path 75108" d="M17.548,3.384l-1.269-.9-.159-.079L15.988,2.3l-.317-.159a9.081,9.081,0,0,0-1.242-.634l-.159-.079-.159-.053L13.952,1.3,11.335.449,10.992.4,10.833.344,7,0,6.709.026q-.423,0-1.163.053L1.237.793l-1.19.37q-.079,0-.026.053,0,.079.053.026L3.14.9A2.909,2.909,0,0,0,3.59.872,2.909,2.909,0,0,0,4.039.846L6.128.819a4.272,4.272,0,0,1,.555.026l2.7.264h.159l.159.053,1.242.238.608.185a13.6,13.6,0,0,1,2.458.872,17.358,17.358,0,0,1,2.273,1.269l2.009,1.533a7.724,7.724,0,0,1,.872.846q.291.264.819.846l1.031,1.242a2.591,2.591,0,0,1,.317.423l.159.185,2.273,3.569q0,.079.053.026.079,0,.026-.053l-.449-1.163a13.992,13.992,0,0,0-.608-1.3L21.433,7.56,19.821,5.472,17.68,3.463Z" fill="#380a00"/>
              </g>
            </g>
            <g id="Group_103278" data-name="Group 103278" transform="translate(24.405 0)">
              <g id="Group_103277" data-name="Group 103277" transform="translate(0 0)">
                <path id="Path_75109" data-name="Path 75109" d="M6.207,0a4,4,0,0,0-.529.026L2.48.344.048.846Q-.032.846.021.9q0,.079.053.026L5.2.767a3.733,3.733,0,0,1,.5.026L9.035.9l6.08.74L23.6,3.674l.185.079,2.353.714q.053.053.053-.026.053-.053-.026-.053L25.9,4.23,20.693,2.035l-.106-.053-.132-.026L18.261,1.3,15.909.74Q15.036.555,13.424.291,11.732.079,10.912.053Z" fill="#812511"/>
              </g>
            </g>
            <g id="Group_103280" data-name="Group 103280" transform="translate(0 15.84)">
              <g id="Group_103279" data-name="Group 103279" transform="translate(0 0)">
                <path id="Path_75110" data-name="Path 75110" d="M5.578.021q-.053-.053-.053.026L4.758,1.369l-.079.185-.449.793L2.723,5.678l-.185.5-.053.106L1.639,8.771l-.079.185L.793,11.89q-.4,1.9-.608,3.622L0,21.011.555,25.9l1.322,4.758,1.93,4.362,2.115,3.41a.023.023,0,0,0,.026.026.033.033,0,0,0,.053,0V38.4l-.952-2.194-.079-.238-.106-.211L3.7,32.615q-.5-1.586-.846-2.881l-.846-3.992v-.106l-.37-3.093v-.238l-.026-.211-.079-3.331.026-.106L1.9,14.111v-.106L1.93,13.9l.9-4.811L2.855,8.9,5.6.074Q5.657.021,5.578.021Z" fill="#380a00"/>
              </g>
            </g>
            <g id="Group_103282" data-name="Group 103282" transform="translate(7.772 12.477)">
              <g id="Group_103281" data-name="Group 103281" transform="translate(0 0)">
                <path id="Path_75111" data-name="Path 75111" d="M.264,0,.238.026l-.132,1v.132l-.026.159-.053.872L0,2.379.159,7.032V7.19L.423,8.909l.053.159L1.4,12.557l.079.159.661,1.665.238.476a23.647,23.647,0,0,0,1.4,2.485l.608.872.053.053.449.634A.286.286,0,0,1,5,19.033l.449.5a.286.286,0,0,0,.106.132l.555.608.053.079,2.062,1.93.555.423a.777.777,0,0,0,.211.185,2.627,2.627,0,0,0,.423.291l.185.159.053.026.053.053.106.053,3.172,1.877q.079.079.079-.026v-.053l-2.908-2.247a2.227,2.227,0,0,1-.37-.317L7.8,20.831,6.186,18.954a19.83,19.83,0,0,1-1.533-2.168l-1.56-2.855-.053-.159-.608-1.427-.344-.952-.026-.159L1.4,9.041l-.37-1.85L.978,7.058.317.053A.047.047,0,0,0,.264,0Z" fill="#380a00"/>
              </g>
            </g>
            <g id="Group_103284" data-name="Group 103284" transform="translate(6.292 12.456)">
              <g id="Group_103283" data-name="Group 103283" transform="translate(0 0)">
                <path id="Path_75112" data-name="Path 75112" d="M1.771.021q-.053-.053-.053.026L1.269,1.475A16.254,16.254,0,0,0,.846,3.114l-.079.238L.026,7.9,0,12.393.317,14.8l.106.4.026.211.5,1.771q.37,1.057.608,1.56l.344.74,1.242,2.088a14.282,14.282,0,0,0,.978,1.242l.661.714.053.079.079.053.925.9.079.053.053.053.291.238A17.529,17.529,0,0,0,8.433,26.4l2.406,1.269,2.538.925q.053.053.053-.026.053-.053-.026-.053L8.776,25.875l-.74-.555-.106-.106L7.8,25.134l-1-.872a12.41,12.41,0,0,1-.978-.978A9.726,9.726,0,0,1,4.864,22.2L4.2,21.3l-.132-.132-.079-.159A14.539,14.539,0,0,1,3.2,19.689l-.185-.317-.5-1.057a13.326,13.326,0,0,1-.555-1.454l-.4-1.322-.026-.185q-.185-.714-.317-1.533l-.053-.185-.317-3.2V7.952L1.216,3.7l.053-.238.185-1.375L1.507,1.9,1.8.074Q1.85.021,1.771.021Z" fill="#380a00"/>
              </g>
            </g>
            <g id="Group_103286" data-name="Group 103286" transform="translate(33.334 1.406)">
              <g id="Group_103285" data-name="Group 103285" transform="translate(0 0)">
                <path id="Path_75113" data-name="Path 75113" d="M11.393,4.119a5.805,5.805,0,0,0-1.031-.9L9.12,2.4q-.529-.291-1.348-.661A10.568,10.568,0,0,0,6.4,1.184,13.154,13.154,0,0,0,5,.761L4.335.576,1.507.1.74.048.582.021H.053Q0-.032,0,.048L.026.1,6.371,2.268l.159.079.159.053,1.322.608.159.053.079.053.079.026,1.48.846q.344.211,1.057.74l.661.555.106.106.106.079.423.449.079.106.159.159.344.476.053.053.026.053.026.026.211.317.053.106.106.132q0,.079.053.026.053-.026.026-.053l-.026-.185-.079-.211-.026-.132L13.085,6.6V6.577L13.032,6.5l-.053-.185-.211-.4a3.89,3.89,0,0,0-.555-.872L11.9,4.621Z" fill="#380a00"/>
              </g>
            </g>
            <g id="Group_103288" data-name="Group 103288" transform="translate(13.508 5.9)">
              <g id="Group_103287" data-name="Group 103287" transform="translate(0 0)">
                <path id="Path_75114" data-name="Path 75114" d="M8.195,3.008l-.106-.053L7.9,2.823l-.211-.106-.079-.079L5.921,1.766l-.079-.053L4.045,1,3.86.92.687.1.053.021Q0-.032,0,.048L.026.1.238.206.476.285.608.365.793.418,5.155,2.4l.159.106.106.053.079.053q.872.476,1.454.846l.106.053.079.079,1.322.925.079.079.344.264L10.23,6.207l.529.634a9.961,9.961,0,0,1,.819,1.3l.106.185.026.079.053.079.159.317.053.159.079.159.053.159.026.053.053.079.106.317v.026l.053.106.026.159.079.211.026.053.238.978.026.211.053.185v.079l.026.079.079.476.053.026.026-.053.053-.476-.053-1.613-.026-.053V10.04L12.9,9.723V9.643l-.026-.053V9.564l-.079-.344-.026-.079V9.062l-.317-1L12.4,7.978l-.079-.185a9.868,9.868,0,0,0-.793-1.48l-.053-.106-.079-.079-.529-.74-.476-.5A9.9,9.9,0,0,0,9.014,3.616l-.37-.264a2.045,2.045,0,0,0-.37-.264Z" fill="#380a00"/>
              </g>
            </g>
            <g id="Group_103290" data-name="Group 103290" transform="translate(22.581 0.714)">
              <g id="Group_103289" data-name="Group 103289" transform="translate(0 0)">
                <path id="Path_75115" data-name="Path 75115" d="M21.275,9.7q.053-.026,0-.079L20.244,8.406,16.807,5.1,13.952,3.04q-.846-.529-2.009-1.11-.978-.476-2.088-.9L9.168.793,9.035.767l-.4-.132L8.586.608H8.507L7.714.4A14.645,14.645,0,0,0,5.652.079L5.414.053H5.282L5.229.026H4.7L4.568,0,4.462.026,2.955.079,1.316.344,1.052.423A1.757,1.757,0,0,0,.629.529L.312.608.048.714q-.079,0-.026.053,0,.079.053.026L1.951.661,2.11.634,3.986.687,4.409.74h.132l.106.026L5.1.819H5.2L5.546.9q1.031.185,1.93.423l.132.026.053.026H7.74L8.3,1.56l.053.026.132.026.238.106.132.026,2.009.819.132.079,1.718.872.106.079.132.053,3.516,2.3L21.2,9.7Q21.248,9.754,21.275,9.7Z" fill="#812511"/>
              </g>
            </g>
            <g id="Group_103292" data-name="Group 103292" transform="translate(15.015 5.34)">
              <g id="Group_103291" data-name="Group 103291" transform="translate(0 0)">
                <path id="Path_75116" data-name="Path 75116" d="M9.332,3.648l.106.053L11.473,4.97l.132.106L15.57,7.93l.159.132h.079V7.983l-.291-.344-.079-.132L13.165,5.181l-.423-.344-.132-.132L10.31,3.04q-.238-.159-1.454-.872L6.529,1.11l-.211-.053L5.948.9,4.811.555,4.626.529,4.256.423,2.273.079H2.141L1.718.026.238,0,.053.026A.047.047,0,0,0,0,.079L.026.106.476.211.634.264,1.9.555l.132.053,2.326.714.529.211.185.053L7.8,2.829l.106.026.079.053,1.084.608.185.079Z" fill="#812511"/>
              </g>
            </g>
            <g id="Group_103294" data-name="Group 103294" transform="translate(14.83 4.97)">
              <g id="Group_103293" data-name="Group 103293" transform="translate(0 0)">
                <path id="Path_75117" data-name="Path 75117" d="M8.248.634Q8.168.608,7.322.4L6.873.291,5.128.053A2.4,2.4,0,0,0,4.705.026L4.626,0,.264.185.026.238,0,.291.053.317l1.3.132h.264l4.626.687,2.141.608,1.242.5a13.2,13.2,0,0,1,1.586.819l1.427.978q.608.5,1.216,1.11l.264.264.106.159.132.132L15.2,6.794l.053.053.026.079.264.344.264.449.079.106.582,1.031q0,.079.053.026.079,0,.026-.053L16.2,7.666l-.4-.872-.079-.238L15.676,6.5,14.46,4.6a12.619,12.619,0,0,0-1.216-1.269l-.529-.449-.185-.132-.079-.079-.9-.608-.159-.079-.053-.053-.423-.238L8.7.767,8.591.74,8.459.687Z" fill="#812511"/>
              </g>
            </g>
          </g>
          <g id="Group_103300" data-name="Group 103300" transform="translate(0.593 56.921)">
            <g id="Group_103297" data-name="Group 103297" transform="matrix(0.955, -0.296, 0.296, 0.955, 0, 5.434)">
              <g id="Group_103296" data-name="Group 103296" transform="translate(0 0)">
                <path id="Path_75118" data-name="Path 75118" d="M14.888,3.62A7.179,7.179,0,0,0,8.523.005,7.453,7.453,0,0,0,1.686,3.62Q-.8,7.373.377,13.442A22.458,22.458,0,0,0,4.2,22.9a11.131,11.131,0,0,0,7.229,4.217q4.628.811,6.077-3.877a22,22,0,0,0,.419-10.451A27.907,27.907,0,0,0,14.888,3.62Z" fill="#e2ad98"/>
              </g>
            </g>
            <g id="Group_103299" data-name="Group 103299" transform="translate(6.771 7.706)">
              <g id="Group_103298" data-name="Group 103298" transform="translate(0 0)">
                <path id="Path_75119" data-name="Path 75119" d="M7.02,2.672l.812,1L9.168,6.26l1.7,4.243q0,.079.052.026.079,0,.026-.052l-.21-1.545-.681-2.593L9.115,3.955,8.408,2.724A5.99,5.99,0,0,0,7.02,1.283,5.824,5.824,0,0,0,5.239.341l-.1-.026L5,.262,4.767.21,4.715.183H4.662L4.086.052H3.955L3.9.026H3.824L3.589,0h-.5l-.5.079L2.41.131,2.357.157l-.1.026-.445.21L1.7.471,1.6.524,1.519.6a2.719,2.719,0,0,0-.6.655,4.118,4.118,0,0,0-.393.681L.445,2.1.21,2.907l-.026.157L.131,3.2,0,4.191v.864a.046.046,0,0,0,.052.052l.026-.026.052-.236L.6,3.327.629,3.2l.052-.131L1.1,2.226A2.562,2.562,0,0,1,1.493,1.7l.052-.052L1.6,1.572l.079-.052.052-.052.262-.21A1.86,1.86,0,0,1,2.619,1,2.376,2.376,0,0,1,3.327.943H3.51L3.693,1h.1l.524.131.079.026h.052l.052.026.314.079L4.9,1.31l.786.341.367.21.157.131.1.052.079.079.314.262A2.9,2.9,0,0,1,7.02,2.672Z" transform="translate(0)" fill="#c18770"/>
              </g>
            </g>
          </g>
          <g id="Group_103309" data-name="Group 103309" transform="translate(18.433 27.328)">
            <g id="Group_103302" data-name="Group 103302" transform="translate(0 0.466) rotate(-0.817)">
              <g id="Group_103301" data-name="Group 103301" transform="translate(0 0)">
                <path id="Path_75120" data-name="Path 75120" d="M28.5,5.7q-.124-.764-.268-1.487a3.764,3.764,0,0,0-1.4-2.4A8.177,8.177,0,0,0,19.763.209,31.392,31.392,0,0,0,3.986,8.18a11.719,11.719,0,0,0-3.7,6.711,18.3,18.3,0,0,0,.867,9.644Q2.85,29.161,4.44,33.808a13.76,13.76,0,0,1,.434,7.558A6.137,6.137,0,0,1,.021,46.26a11.292,11.292,0,0,0,5.059-.62,12.432,12.432,0,0,0,7.207-6.257A14.757,14.757,0,0,0,13.9,30.731,45.947,45.947,0,0,1,13.857,21,22.713,22.713,0,0,1,17.1,11.443a13.638,13.638,0,0,1,4.192-4.4q3.924-2.561,7.207.867Z" fill="#540e00"/>
              </g>
            </g>
            <g id="Group_103304" data-name="Group 103304" transform="translate(0.122 0)">
              <g id="Group_103303" data-name="Group 103303" transform="translate(0 0)">
                <path id="Path_75121" data-name="Path 75121" d="M22.408.007q-.392-.021-1.157.021L18.4.42,17.017.771l-.145.021-1.239.372-.021.021L10.739,3.518Q9.934,3.951,8.405,4.9l-2.23,1.59A20.218,20.218,0,0,0,4.13,8.309,12.081,12.081,0,0,0,3.2,9.321a10.42,10.42,0,0,0-.847,1.095q-.372.516-.743,1.157a9.157,9.157,0,0,0-.6,1.26l-.124.33-.041.083L.475,14.5.33,15.29v.083l-.021.165v-.062l-.041.207-.041.1-.041.207-.041.1L.124,16.3v.062L.1,16.425l-.021.1v.1l-.021.041v.062l-.041.207v.124l-.021.1.124,3.387.7,3.057,1.838,4.853-.021-.021,2.272,7.5L5.349,38.5q.062.661.062,1.3l-.041,1.28-.227,1.26-.434,1.218-.31.558-.805.991-1.033.764-.578.31a8.142,8.142,0,0,1-1.218.454q-.062,0-.021.041,0,.062.041.021l.165-.021.475-.145a4.119,4.119,0,0,0,.62-.227,6.405,6.405,0,0,0,1.177-.62l.516-.413a3.78,3.78,0,0,0,.475-.475l.227-.248.537-.847a4.585,4.585,0,0,0,.289-.62l.227-.64a9.805,9.805,0,0,0,.268-1.3l.1-1.342q0-.888-.041-1.342-.021-.392-.145-1.322l-.207-1.3L3.325,28.218,3.3,28.2,1.838,24.273l-.021-.1-.186-.578-.723-3.16-.165-2.4q.062-.764.062-.785v-.145l.021-.062.021-.186V16.8l.021-.041.021-.1V16.57l.021-.062v-.041l.083-.372.041-.1.021-.1.062-.186v-.062l.021-.165.021-.083V15.31l.041-.145L1.218,15l.124-.558.434-1.3a11.373,11.373,0,0,1,.558-1.157,13.016,13.016,0,0,1,.682-1.115q.413-.578.805-1.033l.888-.971q.826-.826,1.962-1.755l1.053-.805L11.09,4.179l4.791-2.4-.021.021.248-.1L20.177.668q.558-.083,1.115-.124A9.908,9.908,0,0,1,22.387.482L23.5.564a7.173,7.173,0,0,1,1.074.227,5.12,5.12,0,0,1,.991.413l.475.268.207.165.062.041.145.145.165.124.041.062.1.083.124.165.145.145.165.227a8.773,8.773,0,0,1,.537.971,7.044,7.044,0,0,1,.351,1.033q.1.372.227,1.115a10.344,10.344,0,0,1,.1,1.115l.021.145.021.971q-.021.041.021.041L28.521,8l.041-1.136A11.246,11.246,0,0,0,28.5,5.707a7.652,7.652,0,0,0-.186-1.115,9.032,9.032,0,0,0-.33-1.115l-.041-.124-.124-.268-.041-.062-.083-.207-.124-.186-.021-.021V2.568L27.3,2.2l-.1-.1-.083-.124L26.869,1.7l-.041-.062-.1-.1L26.6,1.453l-.041-.062L25.774.833A8.365,8.365,0,0,0,24.7.358,5.049,5.049,0,0,0,23.564.11q-.392-.062-1.157-.1m-8.24,8.385q-.516.413-.888.764-.785.743-1.3,1.3l-.743.867q-.537.682-.764,1.012l-.578.826-.041.041-.062.124-.289.454-.516,1.012a10.522,10.522,0,0,0-.826,3.118,13.816,13.816,0,0,0-.021,1.714l.021.062.021.372.021.1v.1l.041.227v.1l.145.764a17.1,17.1,0,0,0,1.033,3.387l1.053,2.189.021.021.041.062.413.847a12.5,12.5,0,0,1,.929,3.1A14.254,14.254,0,0,1,12,32.513,12.64,12.64,0,0,1,11.937,34l-.041.372V34.5l-.021.041-.145.867-.041.165-.021.186L11.235,37.3l-.062.145-.041.145-.062.145-.041.145-.537,1.26-.062.1-.041.1L9.252,41.311l-.062.083a.169.169,0,0,0-.062.1l-.248.33q-.021.041,0,.062.041.041.062,0l1.012-1.26a11.987,11.987,0,0,0,.971-1.57l.7-1.446.041-.145.124-.289.7-2.54v-.062l.021-.021v-.1l.062-.372a15.06,15.06,0,0,0,.124-1.57V32l-.021-.1-.1-1.239-.021-.1V30.49l-.021-.041-.186-.95-.041-.1-.041-.207-.207-.62v-.062l-.805-1.859-.021-.062h-.021v-.021l-.021-.021-.1-.186-.909-1.941A19.161,19.161,0,0,1,9.17,21.2l-.145-.7v-.1l-.041-.207v-.1l-.021-.1-.021-.207-.021-.1v-.1a12.017,12.017,0,0,1-.021-1.59,10.329,10.329,0,0,1,.682-2.933l1.384-2.561.1-.124.33-.516.1-.124.5-.7a.224.224,0,0,0,.083-.1l.165-.207q.682-.847,1.2-1.384L14.56,8.185q.041-.021,0-.062-.021-.021-.062,0l-.33.268M26.807,4.612,25.795,3.476l-.392-.33-.64-.434A4.732,4.732,0,0,0,24,2.3a5.613,5.613,0,0,0-.888-.31,6.4,6.4,0,0,0-.991-.207,9.513,9.513,0,0,0-2.168,0l-1.115.207-.289.083-.124.021-1.4.454-.268.124-.145.041-1.074.5q-.826.413-2.045,1.136L10.161,6.8l-1.817,2-1.28,1.9-.5.929q-.062.062.021.062a.026.026,0,0,0,.041,0L9.066,8.722l.165-.145.145-.165,2.23-1.9.062-.021V6.471h.021l.021-.021.1-.083,1.136-.743,4.11-2.21,1.838-.64.124-.021q.31-.083,1.033-.227a8.772,8.772,0,0,1,2-.1,6.408,6.408,0,0,1,1.755.351,7.066,7.066,0,0,1,.743.33l.64.351a9.467,9.467,0,0,1,.95.7l.723.682.041.062q.041.041.062,0,.041-.021,0-.062Z" fill="#812511"/>
              </g>
            </g>
            <g id="Group_103306" data-name="Group 103306" transform="translate(2.187 4.282)">
              <g id="Group_103305" data-name="Group 103305" transform="translate(0 0)">
                <path id="Path_75122" data-name="Path 75122" d="M1.693,8.509q.062-.062-.021-.062H1.632L1.28,9l-.021.041-.041.062-.062.124-.083.124-.434.929-.021.1-.207.558-.021.1-.145.5q-.165.971-.186,1.115l-.041.929L0,13.754v.165l.413,4.275.186.888.041.083.971,3.366L2.974,26.1a31.9,31.9,0,0,1,.991,3.2l.661,3.16a23.912,23.912,0,0,1,.165,3.015l-.062,1.528-.021.041v.124l-.021.041-.041.31-.165.6a2.688,2.688,0,0,1-.207.558l-.041.083-.021.062-.062.124-.083.124-.021.062-.041.062a8.5,8.5,0,0,1-.62.867,5.938,5.938,0,0,1-.682.661l-.64.516q-.145.1-.95.62l-.268.145-.083.062q-.062,0-.021.041,0,.062.041.021l.826-.372,1.28-.805.041-.021.062-.041.083-.083.1-.062.475-.434a5.514,5.514,0,0,0,.723-.888l.33-.516.268-.6.248-.826.021-.186.021-.041v-.041l.021-.083v-.1l.021-.083A11.783,11.783,0,0,0,5.432,35.5a16.9,16.9,0,0,0-.083-3.118L5.1,30.648l-.021-.041v-.062L4.75,29.1a30.7,30.7,0,0,0-.991-3.284L1.384,19.186,1.342,19,1.3,18.9l-.207-.847L.537,14.209v-.145l-.021-.083v-.248L.5,13.589V12.7q.041-.578.124-1.074A5.563,5.563,0,0,1,.826,10.7l.041-.207.041-.1.021-.1.124-.372.64-1.4M17.575,3.057l-.165.124-.083.083-.6.5a6.246,6.246,0,0,0-.7.743,6.4,6.4,0,0,0-.661.867L13.424,8.818l-.145.31-1.487,4.523q-.124.454-.289,1.363l-.516,5.266.31,3.573v.062l.021.021v.041l.785,3.9.1.31q0,.062.041.021.062,0,.021-.041l-.454-4.275-.021-.021v-.1l-.021-.124L11.689,20.3l.6-5,.041-.165q.062-.434.268-1.3l.062-.33.062-.145.805-2.726L14.766,7.7l1.652-2.891L17.637,3.47a8.1,8.1,0,0,1,1.157-.826l.227-.124.062-.021.062-.041.454-.207.145-.041.165-.083q.062,0,.021-.041,0-.062-.041-.021l-.33.062-.867.31-1.115.62m6.567-2.5L23.895.413,23.771.372,23.647.31,23.11.124l-.6-.1h-.145L22.284,0,21.272.041l-.165.021-.475.1-.165.021L20.3.248l-.083.021h-.041l-.041.021-.475.145H19.64L19.6.454l-.083.021L19.186.6,19.1.62,16.811,1.755,15.592,2.6a16.979,16.979,0,0,0-2.21,1.983l-.454.475-.062.083-.826.991-.062.062-.021.041h-.021l-.021.041-.124.145-.041.083H11.73l-.021.021-.021.041-.1.165-.124.145-.743,1.28a13.217,13.217,0,0,0-.578,1.322A14.355,14.355,0,0,0,9.479,12.1a16.858,16.858,0,0,0-.186,2.416v.929l.021.124.041.847.33,2.458.124.537q0,.062.041.021.062,0,.021-.041l-.124-2.871L9.727,16.4l.021-.1v-.847l.021-.124v-.392l.021-.124.268-2.292.021-.062v-.083l.041-.145a15.159,15.159,0,0,1,.723-2.478L11.4,8.509l.929-1.446.021-.041h.021L12.391,7l.041-.083.186-.207.041-.062,1.3-1.487a19.282,19.282,0,0,1,2.127-1.921l.558-.434,2.189-1.3L19,1.446l.289-.145h.041l.041-.021.062-.021.372-.165h.041l.041-.021.454-.165h.021L20.4.888,21.065.7,21.21.682,21.354.64l.558-.062h.145L22.2.558h.145l.124.021a2.121,2.121,0,0,1,.516.062,1.863,1.863,0,0,1,.5.124l.454.165a4.929,4.929,0,0,1,.743.5,4.412,4.412,0,0,1,.578.558l.434.558.5.847.062.145.062.083.041.083q0,.062.041.021.062,0,.021-.041l-.021-.083-.041-.1a.284.284,0,0,0-.062-.145l-.145-.392-.268-.537a6.5,6.5,0,0,0-.392-.6,2.845,2.845,0,0,0-.558-.661A3.306,3.306,0,0,0,24.142.558Z" fill="#380a00"/>
              </g>
            </g>
            <g id="Group_103308" data-name="Group 103308" transform="translate(16.947 3.466)">
              <g id="Group_103307" data-name="Group 103307" transform="translate(0 0)">
                <path id="Path_75123" data-name="Path 75123" d="M9.445,1.456l-.021-.041L9.218,1.27,8.33.774,8.1.671,8.02.651,7.751.527,6.079.072h-.1L5.5.01Q5-.01,4.509.01L3.518.134,3.27.2l-.888.31-.1.062L2.134.63,2.072.671,1.783.816a4.921,4.921,0,0,0-.64.454L1.1,1.291l-.041.041L1,1.373l-.723.7-.268.351q-.021.021.021.062H.069l.558-.351,1.632-.826.1-.021.083-.041.1-.021.289-.1.1-.021.1-.041.64-.145h.1l.764-.1H5.666l.1.021H6l.1.021L6.533.9l.1.021h.1L6.925.96l.207.021.475.1H7.69L9.4,1.477Q9.445,1.518,9.445,1.456Z" fill="#380a00"/>
              </g>
            </g>
          </g>
          <g id="Group_103324" data-name="Group 103324" transform="translate(47.258 15.512) rotate(1.74)">
            <g id="Group_103311" data-name="Group 103311" transform="translate(0.114 0)">
              <g id="Group_103310" data-name="Group 103310" transform="translate(0 0)">
                <path id="Path_75124" data-name="Path 75124" d="M20.289,2.416A18.435,18.435,0,0,0,11.781,0,11.711,11.711,0,0,0,4.326,3.1a11.792,11.792,0,0,0-3.82,6.9,33.063,33.063,0,0,0-.248,9.892q.743-.95,1.446-1.9a22.457,22.457,0,0,1,5.885-5.576,8.341,8.341,0,0,1,3.18-1.239q4.481.041,5.534,4.543a70.679,70.679,0,0,1,1.28,7.248q.474,3.81,4.337,6.691a17.038,17.038,0,0,1,5.761,8.776A29.054,29.054,0,0,1,29.313,47.6a37.428,37.428,0,0,1-.207,4.233,26.165,26.165,0,0,0,4.77-4.254,33.021,33.021,0,0,0,3.7-6.092,21.463,21.463,0,0,0,2.23-9.066A24.1,24.1,0,0,0,38.3,23.232a14.17,14.17,0,0,0-5.72-7.1,16.575,16.575,0,0,1-5.989-6.856A14.883,14.883,0,0,0,20.289,2.416Z" fill="#540e00"/>
              </g>
            </g>
            <g id="Group_103313" data-name="Group 103313" transform="translate(5.751 2.565)">
              <g id="Group_103312" data-name="Group 103312" transform="translate(0 0)">
                <path id="Path_75125" data-name="Path 75125" d="M11.884,8.05l-.041-.083-.95-1.074-.434-.372-.145-.1-.062-.062-.083-.062A7.053,7.053,0,0,0,8.931,5.53l-.165-.083L8.7,5.406l-.083-.041L8.456,5.3l-.041-.021-.021-.021H8.374L8.291,5.22l-.64-.248a8.393,8.393,0,0,0-1.322-.31,6.842,6.842,0,0,0-1.3,0l-.888.165-.207.062-.041.021H3.851l-.124.041-.062.041H3.624L3.6,5.014l-.145.041L3.4,5.1l-.31.124-.227.124a8.211,8.211,0,0,0-.826.537l-.434.33-.062.083-.165.124-.124.145-.083.062-.723.785-.021.041-.083.083-.33.434q-.021.041,0,.062.041.041.062,0L.32,7.76l1.033-.95.083-.041.62-.475.186-.1a7.424,7.424,0,0,1,.826-.454,7.99,7.99,0,0,1,.95-.33,5.141,5.141,0,0,1,2.21-.1l.145.041.165.021.145.041.145.021,1.26.5h.021l1.053.6.62.454.062.041.847.826A6.376,6.376,0,0,1,12.07,10.2a6.294,6.294,0,0,1,.186.661l.186.867v.083l.021.083.062.7v.186l.64,5.658.041.145.021.165.62,2.21.041.062.041.124.268.6a5.574,5.574,0,0,0,.516.847l.083.083.062.1.413.454a6.045,6.045,0,0,0,.578.475l.372.248.227.1.062.041.124.062.1.021a.284.284,0,0,0,.145.062l.1.041.083.021q.041.041.041-.021.041-.041-.021-.041l-.083-.041-.083-.062-.145-.062a5.724,5.724,0,0,1-.805-.558l-.475-.475a5.948,5.948,0,0,1-.475-.661,5.753,5.753,0,0,1-.413-.826l-.289-.764v-.062l-.124-.392L13.743,18l-.516-6.588-.372-1.487-.145-.351-.021-.1-.475-.95-.062-.083-.041-.083-.1-.165-.124-.145m1.9-6.815L12.958.822,12.9.781,11.409.161,10.934.017q-.041-.041-.041.021-.041.041.021.041l3.263,2.065.062.062.537.434a15.819,15.819,0,0,1,1.177,1.177l.268.31.062.1.083.083.186.248.062.1.145.186.021.041.041.041L17.956,6.79l.31.62.083.207.062.1.723,2.024V9.8l.041.124.124.268a4.565,4.565,0,0,0,.434.826,5.183,5.183,0,0,0,.537.7,5.549,5.549,0,0,0,.578.578,4.3,4.3,0,0,0,.578.5l.124.124a.407.407,0,0,1,.145.1l.289.186.062.062,1.9,1.074.227.083q.041.041.041-.021a.026.026,0,0,0,0-.041h-.021L23.036,13.5l-.1-.062-1.177-1.012-.991-1.115q-.351-.516-.434-.661l-.041-.083-.062-.083-.124-.268-.021-.062-.1-.227-.062-.207-.041-.083V9.6l-.021-.041V9.536l-.392-1.342a14.923,14.923,0,0,0-.785-1.776,14.023,14.023,0,0,0-1.012-1.652l-.145-.186-.062-.1-.041-.041L17.4,4.374l-.145-.186-.083-.083L17.109,4l-.62-.7a11.283,11.283,0,0,0-1.322-1.156,13.435,13.435,0,0,0-1.3-.847l-.083-.062M34,26.573l-.021.041-.186,2.54v.1l-.021.083-.186,1.611v.1L32.824,34.9l-.041.124-.021.145-1.177,3.449-.186.413q-.5,1.094-1.053,2.106-.7,1.239-1.2,1.941l-.083.124-.041.041-.847,1.156-.062.1-3.16,3.387-.1.124-.124.083L23.7,49.02q-.021.041,0,.062h.062L26.3,47.2l.083-.083.083-.062,2.065-2.044.083-.1a.224.224,0,0,0,.083-.1l.351-.413.1-.1,2.168-3.221.021-.062,1.053-2.23,1.322-4.419.413-3.242v-.124l.021-.124-.1-4.275Z" fill="#812511"/>
              </g>
            </g>
            <g id="Group_103315" data-name="Group 103315" transform="translate(0 0.041)">
              <g id="Group_103314" data-name="Group 103314" transform="translate(0 0)">
                <path id="Path_75126" data-name="Path 75126" d="M13.464.041,13.423.021,12.514,0,10.077.248,9.169.434Q8.487.62,8.2.723q-.041.021-.516.186l-.392.145-.124.062a7.224,7.224,0,0,0-1.033.516q-.227.124-1.033.64a10.392,10.392,0,0,0-.971.805,9.843,9.843,0,0,0-.888.929l-.5.64-.062.062-.041.083-.186.268A8.112,8.112,0,0,0,1.8,6.2,13.521,13.521,0,0,0,.805,8.611L.248,11.048,0,13.918l.31,5.493.062.31q0,.062.041.021.062,0,.021-.041L.64,13.423l.351-2.23q.1-.578.248-1.177l.33-1.156Q1.776,8.24,2,7.7a12.31,12.31,0,0,1,.516-1.136,11.364,11.364,0,0,1,.62-1.053l.434-.64L4.667,3.634,6.009,2.54q.165-.1.475-.31l.124-.083.124-.062L6.835,2l1.074-.537L9.747.785,9.954.743l.1-.041.909-.227L13.443.083Q13.505.083,13.464.041Z" fill="#812511"/>
              </g>
            </g>
            <g id="Group_103317" data-name="Group 103317" transform="translate(0.52 8.776)">
              <g id="Group_103316" data-name="Group 103316" transform="translate(0 0)">
                <path id="Path_75127" data-name="Path 75127" d="M9.743.062,8.855.268A6.8,6.8,0,0,0,7.967.64L7.6.826l-1.074.7-.929.785L4.188,3.8l-.062.1-.991,1.28q-.31.413-.95,1.425L.1,10.573.017,10.8q-.041.041.021.041.041.041.041-.021l.289-.413.083-.145.434-.64.083-.1.145-.248L3.734,5.617,6.15,2.932,7.76,1.652l.186-.1.041-.041.33-.186L9.1.971Q9.33.888,9.867.743a6.5,6.5,0,0,1,.785-.1h.454l.1.021h.083l.083.021.351.041.5.124.991.413,1.26.805.041.041.062.041.165.145q.041.041.062,0,.041-.021,0-.062l-.6-.64A7.782,7.782,0,0,0,13.4.95,4.578,4.578,0,0,0,12.221.33L11.478.1a6.079,6.079,0,0,0-.847-.1L9.743.062M19.758,9.086l-.021.124.021,3.944.1.805.124.516.041.1.021.1.041.1a5.19,5.19,0,0,0,.372.785,6.327,6.327,0,0,0,.516.723,5.306,5.306,0,0,0,.64.62l.165.124.083.083.351.248.083.041.558.33.909.413.186.062.5.227a4.857,4.857,0,0,1,.6.31l.558.33.475.372.7.785.124.207.227.537.145.516v.041l.021.041v.062l.021.062.041.021.041-.083v-.454l-.021-.083v-.083l-.1-.5a3.468,3.468,0,0,0-.186-.454,3.169,3.169,0,0,0-.268-.5l-.165-.248-.207-.227a3.162,3.162,0,0,0-.5-.475l-1.2-.826-1.446-.7-.083-.062-.165-.083-.083-.062-.083-.041-.227-.165-.083-.041-.083-.062-.062-.062-.31-.227a6.034,6.034,0,0,1-.516-.537l-.454-.6-.33-.661-.021-.083-.041-.083-.186-.7L20.006,7.62a.037.037,0,0,0-.041-.041l-.021.021-.186,1.363v.124M34.627,20.444l-.537-.661a5.522,5.522,0,0,0-1.012-.929l-.888-.578-1.136-.537-.083-.021-.083-.041-1.59-.62-4.791-2.4-.124-.083-.083-.021-.186-.124-.041-.021-.021-.021-.083-.041-.248-.165-.041-.041-.186-.124a6.487,6.487,0,0,1-.826-.805l-.041-.041-.516-.743-.021-.062-.041-.041q-.206-.392-.434-.95A9.867,9.867,0,0,1,21.183,9.6l-.145-2.685q.041-.041-.021-.041l-.041.021-.165,1.28a12.944,12.944,0,0,0,0,1.466L21,11.027l.041.124.021.145.083.248a6.716,6.716,0,0,0,.392,1.053,8.038,8.038,0,0,0,.64,1.012l.289.372.124.124.041.062.248.227.062.041.248.227.062.041.062.062.351.248.021.021,3.1,1.755.165.062.145.083,3.2,1.4.33.1.021.021.041.021.083.021.826.372.062.021.971.578a7.651,7.651,0,0,1,.929.805l.31.33.165.248.083.083v.021l.186.268.062.124.083.124.351.764a6.9,6.9,0,0,1,.268,1.053,4.143,4.143,0,0,1,0,1.012v.124l-.021.124v.062l-.021.062L34.3,27.506l-.062.124-.041.145-.351.909q-.041.041.021.041.041.041.041-.021l.413-.743,1.094-2.829.021-.124.041-.124.021-.1.021-.062v-.041l.021-.041.041-.268a3.792,3.792,0,0,0,.041-1.115v-.165l-.021-.145v-.062l-.021-.083-.021-.145-.021-.041v-.041l-.021-.083-.021-.145-.041-.145-.062-.145-.062-.227-.041-.083-.041-.145-.289-.6-.165-.268-.062-.145h-.021v-.021l-.021-.021-.021-.041Z" fill="#380a00"/>
              </g>
            </g>
            <g id="Group_103319" data-name="Group 103319" transform="translate(0.438 7.269)">
              <g id="Group_103318" data-name="Group 103318" transform="translate(0 0)">
                <path id="Path_75128" data-name="Path 75128" d="M7,0,6.872.1,6.212.558l-1.3,1.156-.083.1-.62.64L2.825,4.275,1.565,6.546,1.5,6.711l-.083.145L.45,9.706l-.062.248L.037,12.019l-.021.475q-.041.041.021.041l.041-.021,1.3-3.593,2.21-4.357L5.571,1.776,7.058.062V0Z" fill="#380a00"/>
              </g>
            </g>
            <g id="Group_103321" data-name="Group 103321" transform="translate(11.461 10.495)">
              <g id="Group_103320" data-name="Group 103320" transform="translate(0 0)">
                <path id="Path_75129" data-name="Path 75129" d="M6.2,7.327,5.823,5.241a4.709,4.709,0,0,0-.248-.826L4.853,2.908A7.27,7.27,0,0,0,4.4,2.226l-.1-.165L4.254,2.02l-.021-.041-.062-.062-.062-.083-.743-.7L2.726.7,2.685.677,2.664.657,2.581.615,2.561.595,2.437.533,2.375.512,2.23.43,1.693.244A4.6,4.6,0,0,0,.805.078L.248.017H.041Q0-.025,0,.037L.021.078.764.306A1.963,1.963,0,0,1,1.136.43l.434.165a3.2,3.2,0,0,1,.475.248l.227.145.021.021h.021l.021.021L2.4,1.07l.021.021.041.021.041.041.475.413a5.4,5.4,0,0,1,.454.475l.1.145.062.062.041.083.062.062L4.5,3.858l.021.1.165.351.248.743.516,2.726v.041l.021.062.6,3.758.021.041v.041l.289,1.425.041.124v.083h.021v.062a5.521,5.521,0,0,0,.289.847l.31.661.041.041q0,.062.041.021.062,0,.021-.041v-.062l-.062-.145-.268-1.26v-.165H6.794v-.227L6.67,11.725l-.021-.083V11.56l-.165-1.8V9.578L6.257,7.74V7.7l-.021-.062-.021-.1Z" fill="#380a00"/>
              </g>
            </g>
            <g id="Group_103323" data-name="Group 103323" transform="translate(22.364 29.73)">
              <g id="Group_103322" data-name="Group 103322" transform="translate(0 0)">
                <path id="Path_75130" data-name="Path 75130" d="M0,.028V.069L1.177,1.225a.886.886,0,0,1,.165.207l.207.186.578.7.062.062.041.062.537.661q.764,1.094.826,1.218l.991,1.735L5.328,7.73l1.156,3.924.661,4.089.041.021.021-.041.062-1.177.021-.1-.062-1.859-.062-.5V11.9l-.1-.723-.62-2.726q-.227-.723-.6-1.611Q5.472,6.016,5.1,5.314l-.434-.723-.041-.083L4.44,4.261l-.1-.186L4.213,3.91q-.289-.413-.95-1.2L1.631,1.122A.886.886,0,0,1,1.425.957L.062.007Q.041-.014,0,.028Z" fill="#380a00"/>
              </g>
            </g>
          </g>
          <g id="Group_103327" data-name="Group 103327" transform="translate(34.461 82.95)">
            <g id="Group_103326" data-name="Group 103326" transform="translate(0 0)">
              <g id="Group_103325" data-name="Group 103325">
                <path id="Path_75131" data-name="Path 75131" d="M6.352,3.156,3.209.013a.033.033,0,0,0-.052,0L.013,3.156a.033.033,0,0,0,0,.052L3.156,6.352a.033.033,0,0,0,.052,0L6.352,3.209a.033.033,0,0,0,0-.052M3.183,6.247l.026.026H3.156l.026-.026L.118,3.183l-.026.026V3.156l.026.026L3.183.118,6.247,3.183,3.183,6.247M3.235,2.4l-.052-.052L3.13,2.4V3.13H2.4l-.052.052.052.052H3.13v.733l.052.052.052-.052V3.235h.733l.052-.052L3.968,3.13H3.235Z" fill="rgba(0,0,0,0)"/>
              </g>
            </g>
          </g>
        </g>
        <g id="Group_103348" data-name="Group 103348" transform="translate(-247.258 -675.01) rotate(14.975)">
          <g id="Group_103330" data-name="Group 103330" transform="translate(0.367 58.345)">
            <g id="Group_103329" data-name="Group 103329" transform="translate(0 0)">
              <path id="Path_75132" data-name="Path 75132" d="M0,27.811l19.431,4.766L25.4,6.311,8.013,0Z" fill="#e2ad98"/>
            </g>
          </g>
          <g id="Group_103332" data-name="Group 103332" transform="translate(0.21 78.143)">
            <g id="Group_103331" data-name="Group 103331" transform="translate(0 0)">
              <path id="Path_75133" data-name="Path 75133" d="M19.955,9.977a9.637,9.637,0,0,0-2.933-7.071A9.594,9.594,0,0,0,9.977,0,9.68,9.68,0,0,0,2.907,2.907,9.68,9.68,0,0,0,0,9.977a9.593,9.593,0,0,0,2.907,7.044,9.637,9.637,0,0,0,7.071,2.933,9.55,9.55,0,0,0,7.044-2.933A9.55,9.55,0,0,0,19.955,9.977Z" transform="translate(0 0)" fill="#e2ad98"/>
            </g>
          </g>
          <g id="Group_103335" data-name="Group 103335" transform="translate(6.783 54.941)">
            <g id="Group_103334" data-name="Group 103334" transform="translate(0 0)">
              <g id="Group_103333" data-name="Group 103333">
                <path id="Path_75134" data-name="Path 75134" d="M1.885,0,0,9.166a37.06,37.06,0,0,0,17.912,5.08L19.719,8.04Z" fill="#c18770"/>
              </g>
            </g>
          </g>
          <g id="Group_103337" data-name="Group 103337" transform="translate(0.052 6.861)">
            <g id="Group_103336" data-name="Group 103336" transform="translate(0 0)">
              <path id="Path_75135" data-name="Path 75135" d="M48.342,14.01,23.464,0A293.01,293.01,0,0,0,0,50.725a62.027,62.027,0,0,0,36.584,8.93A106.077,106.077,0,0,1,48.342,14.01Z" fill="#7a2230"/>
            </g>
          </g>
          <g id="Group_103339" data-name="Group 103339" transform="translate(21.552 0)">
            <g id="Group_103338" data-name="Group 103338" transform="translate(0 0)">
              <path id="Path_75136" data-name="Path 75136" d="M28.439,14.246A13.788,13.788,0,0,0,24.276,4.164,13.7,13.7,0,0,0,14.22,0,13.788,13.788,0,0,0,4.138,4.164,13.832,13.832,0,0,0,0,14.246a13.659,13.659,0,0,0,4.138,10.03,13.745,13.745,0,0,0,10.082,4.19,13.659,13.659,0,0,0,10.056-4.19A13.615,13.615,0,0,0,28.439,14.246Z" transform="translate(0)" fill="#7a2230"/>
            </g>
          </g>
          <g id="Group_103342" data-name="Group 103342" transform="translate(0 17.76)">
            <g id="Group_103341" data-name="Group 103341" transform="translate(0 0)">
              <g id="Group_103340" data-name="Group 103340">
                <path id="Path_75137" data-name="Path 75137" d="M17.493.021q-.052-.052-.052.026Q16.472,1.776,16.158,2.4l-1.99,3.85L6.049,24.166,0,39.773l2.121,1.519.524.288.157.1,2.043,1.074.183.079.157.1L11.6,45.351q.052.052.052-.026.052-.052-.026-.052l-8.066-5.08-.131-.131-.445-.314-.131-.131-.55-.445L11.444,17.75,16.76,2.64q.288-.838.759-2.566Q17.572.021,17.493.021Z" fill="#4b0f18"/>
              </g>
            </g>
          </g>
          <g id="Group_103344" data-name="Group 103344" transform="translate(40.727 17.525)">
            <g id="Group_103343" data-name="Group 103343" transform="translate(0 0)">
              <path id="Path_75138" data-name="Path 75138" d="M8.846.021q-.052-.052-.052.026L4.316,7.982l-.052.157L3.216,10.417l-1.65,4.557L.44,19.5.021,22.123q-.052.052.026.052L.1,22.149l3.038-8.72L8.06,2.587,8.872.073Q8.925.021,8.846.021Z" fill="#4b0f18"/>
            </g>
          </g>
          <g id="Group_103347" data-name="Group 103347" transform="translate(32.59 11.038)">
            <g id="Group_103346" data-name="Group 103346" transform="translate(0 0)">
              <g id="Group_103345" data-name="Group 103345">
                <path id="Path_75139" data-name="Path 75139" d="M6.35,3.156,3.208.013a.033.033,0,0,0-.052,0L.013,3.156a.033.033,0,0,0,0,.052L3.156,6.35a.033.033,0,0,0,.052,0L6.35,3.208a.033.033,0,0,0,0-.052M3.182,6.246l.026.026H3.156l.026-.026L.118,3.182l-.026.026V3.156l.026.026L3.182.118,6.246,3.182,3.182,6.246M3.234,2.4l-.052-.052L3.129,2.4v.733H2.4l-.052.052.052.052h.733v.733l.052.052.052-.052V3.234h.733l.052-.052-.052-.052H3.234Z" fill="rgba(0,0,0,0)"/>
              </g>
            </g>
          </g>
        </g>
        <g id="Group_103356" data-name="Group 103356" transform="matrix(-0.779, -0.627, 0.627, -0.779, -242.98, -569.246)">
          <g id="Group_103350" data-name="Group 103350" transform="translate(0 0.275)">
            <g id="Group_103349" data-name="Group 103349" transform="translate(0 0)">
              <path id="Path_75140" data-name="Path 75140" d="M0,64.869l9.035,3.85A122.559,122.559,0,0,1,22.287,42.714Q31.322,28.7,33.914,18.123a52.553,52.553,0,0,0,.707-13.487L15.163,0A196.711,196.711,0,0,0,9.218,21.632Z" fill="#e2ad98"/>
            </g>
          </g>
          <g id="Group_103352" data-name="Group 103352" transform="translate(1.524 8.32)">
            <g id="Group_103351" data-name="Group 103351" transform="translate(0 0)">
              <path id="Path_75141" data-name="Path 75141" d="M11.046.047,7.93,9.894,4.552,27.99.545,47.03v.052l-.026.079-.5,2.54q-.052.052.026.052.052.052.052-.026L.911,47.4l.079-.183v-.079L2.273,42.97,6.725,25.11q.367-2.278.393-2.383l1-6.888L11.125.073Q11.177.021,11.1.021,11.046-.031,11.046.047Z" fill="#c18770"/>
            </g>
          </g>
          <g id="Group_103355" data-name="Group 103355" transform="translate(21.619 0)">
            <g id="Group_103354" data-name="Group 103354" transform="translate(0 0)">
              <g id="Group_103353" data-name="Group 103353">
                <path id="Path_75142" data-name="Path 75142" d="M6.351,3.156,3.208.013a.033.033,0,0,0-.052,0L.013,3.156a.033.033,0,0,0,0,.052L3.156,6.351a.033.033,0,0,0,.052,0L6.351,3.208a.033.033,0,0,0,0-.052M3.182,6.246l.026.026H3.156l.026-.026L.118,3.182l-.026.026V3.156l.026.026L3.182.118,6.246,3.182,3.182,6.246M3.234,2.4l-.052-.052L3.13,2.4V3.13H2.4l-.052.052.052.052H3.13v.733l.052.052.052-.052V3.234h.733l.052-.052L3.968,3.13H3.234Z" fill="rgba(0,0,0,0)"/>
              </g>
            </g>
          </g>
        </g>
        <g id="Group_103364" data-name="Group 103364" transform="translate(-170.409 -625.835) rotate(-57.377)">
          <g id="Group_103358" data-name="Group 103358" transform="translate(0 0)">
            <g id="Group_103357" data-name="Group 103357" transform="translate(0 0)">
              <path id="Path_75143" data-name="Path 75143" d="M0,3.849,9.034,0a122.547,122.547,0,0,0,13.25,26q9.034,14.01,11.627,24.589a52.549,52.549,0,0,1,.707,13.486L15.162,68.713a196.692,196.692,0,0,1-5.944-21.63Z" fill="#e2ad98"/>
            </g>
          </g>
          <g id="Group_103360" data-name="Group 103360" transform="translate(1.524 10.899)">
            <g id="Group_103359" data-name="Group 103359" transform="translate(0 0)">
              <path id="Path_75144" data-name="Path 75144" d="M11.045,49.722,7.929,39.876,4.551,21.782.545,2.744V2.692L.518,2.613.021.073Q-.031.021.047.021.1-.031.1.047L.911,2.378l.079.183V2.64L2.273,6.8,6.725,24.662q.367,2.278.393,2.383l1,6.887L11.124,49.7q.052.052-.026.052Q11.045,49.8,11.045,49.722Z" fill="#c18770"/>
            </g>
          </g>
          <g id="Group_103363" data-name="Group 103363" transform="translate(21.617 62.624)">
            <g id="Group_103362" data-name="Group 103362" transform="translate(0 0)">
              <g id="Group_103361" data-name="Group 103361">
                <path id="Path_75145" data-name="Path 75145" d="M6.35,3.208,3.208,6.35a.033.033,0,0,1-.052,0L.013,3.208a.033.033,0,0,1,0-.052L3.155.013a.033.033,0,0,1,.052,0L6.35,3.155a.033.033,0,0,1,0,.052M3.182.118,3.208.092H3.155l.026.026L.118,3.182.092,3.155v.052l.026-.026L3.182,6.245,6.245,3.182,3.182.118m.052,3.849-.052.052-.052-.052V3.234H2.4l-.052-.052L2.4,3.129h.733V2.4l.052-.052.052.052v.733h.733l.052.052-.052.052H3.234Z" fill="rgba(0,0,0,0)"/>
              </g>
            </g>
          </g>
        </g>
        <g id="Group_103370" data-name="Group 103370" transform="translate(-184.919 -617.482) rotate(-175.326)">
          <g id="Group_103366" data-name="Group 103366" transform="translate(0 0)">
            <g id="Group_103365" data-name="Group 103365" transform="translate(0 0)">
              <path id="Path_75146" data-name="Path 75146" d="M16.5,6.763q-1.414-4.557,2.7-6.6A11.4,11.4,0,0,0,16.417.032q-3.169,3.614.079,6.731M18.067,24.6a4.08,4.08,0,0,0,.367-1.231l-7.962-2.383,7.6,3.614m-7.019-6.1a2.817,2.817,0,0,0-.576,2.488q1.991-3.536,6.234-2.488.6.157,2.2.733l.943-5.474-3.012-3.51q1.231,3.274,1.388,4.007l-.812,3.117q-3.379-.76-5.291.288l-2.7.5a8.175,8.175,0,0,1,1.624.34m-6.234-.314q-.943.262-.786.917A30.444,30.444,0,0,1,10,26.25,11.009,11.009,0,0,0,11.677,25.2L6.36,19.65l.576-1.1a10.217,10.217,0,0,0-2.122-.367m-2.069.262a.292.292,0,0,1,.131-.026.931.931,0,0,1,.262-.079l-.471-.157.079.183a2.592,2.592,0,0,0-2.724,1.6.633.633,0,0,0,.131.576q1.6,1.938,3.091,3.981.55.76,1.126,1.545l.157.393.026-.052,1.231.131A51.357,51.357,0,0,1,.86,19.728,4.018,4.018,0,0,1,2.745,18.445Z" transform="translate(2.86 0)" fill="#c18770"/>
              <path id="Path_75147" data-name="Path 75147" d="M12.284,18.125a4.965,4.965,0,0,0-2.488.393l-.576,1.1,5.317,5.553q.34.917,3.379.864a3.339,3.339,0,0,0,3.012-1.467l-7.6-3.614a2.817,2.817,0,0,1,.576-2.488,8.175,8.175,0,0,0-1.624-.34m-6.679.21-.079-.183a5.03,5.03,0,0,0-2.567.524q-1.545.655-.917,1.807a30.731,30.731,0,0,0,1.571,2.7,12.593,12.593,0,0,0,3.772,3.248l-.157-.393q-.576-.786-1.126-1.545Q4.61,22.446,3.012,20.508a.633.633,0,0,1-.131-.576,2.592,2.592,0,0,1,2.724-1.6m.131.052a.292.292,0,0,0-.131.026A4.018,4.018,0,0,0,3.719,19.7a51.357,51.357,0,0,0,4.924,6.81,4.582,4.582,0,0,1,.5.524q1.441,1.1,3.719-.812a30.444,30.444,0,0,0-5.972-7.15q-.157-.655.786-.917A6.22,6.22,0,0,0,6,18.308a.931.931,0,0,0-.262.079M4.322,9.56a7.935,7.935,0,0,0,3.8-.576q4.557,1.021,5.474,4.688a5.468,5.468,0,0,1-1.31,4.453l2.7-.5q1.912-1.048,5.291-.288l.812-3.117q-.157-.733-1.388-4.007l3.012,3.51L21.765,19.2q-1.6-.576-2.2-.733-4.243-1.048-6.234,2.488l7.962,2.383a8.018,8.018,0,0,0,3.3-1.021q2.619-5.055,3.929-7.36,1.362-2.357.393-8.984Q27.946-.6,22.053.131q-4.112,2.043-2.7,6.6Q16.108,3.614,19.277,0,13.986.183,8.853,4.4A10.249,10.249,0,0,1,1.676,2.7Q-.21,4.217.026,5.736A4.463,4.463,0,0,0,1.414,8.329,4.958,4.958,0,0,0,4.322,9.56Z" transform="translate(0 0.032)" fill="#e2ad98"/>
            </g>
          </g>
          <g id="Group_103369" data-name="Group 103369" transform="translate(17.142 1.145)">
            <g id="Group_103368" data-name="Group 103368" transform="translate(0 0)">
              <g id="Group_103367" data-name="Group 103367">
                <path id="Path_75148" data-name="Path 75148" d="M6.351,3.156,3.208.013a.033.033,0,0,0-.052,0L.013,3.156a.033.033,0,0,0,0,.052L3.156,6.351a.033.033,0,0,0,.052,0L6.351,3.208a.033.033,0,0,0,0-.052M3.182,6.247l.026.026H3.156l.026-.026L.118,3.182l-.026.026V3.156l.026.026L3.182.118,6.247,3.182,3.182,6.247M3.235,2.4l-.052-.052L3.13,2.4V3.13H2.4l-.052.052.052.052H3.13v.733l.052.052.052-.052V3.235h.733l.052-.052L3.968,3.13H3.235Z" fill="rgba(0,0,0,0)"/>
              </g>
            </g>
          </g>
        </g>
        <g id="Group_103376" data-name="Group 103376" transform="matrix(0.945, -0.327, 0.327, 0.945, -192.586, -643.601)">
          <g id="Group_103372" data-name="Group 103372" transform="translate(0 0)">
            <g id="Group_103371" data-name="Group 103371">
              <path id="Path_75149" data-name="Path 75149" d="M16.495,19.774q-1.414,4.557,2.7,6.6a11.4,11.4,0,0,1-2.776.131q-3.169-3.614.079-6.731M18.066,1.938a4.079,4.079,0,0,1,.367,1.231L10.471,5.552l7.6-3.614m-7.019,6.1a2.816,2.816,0,0,1-.576-2.488Q12.462,9.088,16.7,8.04q.6-.157,2.2-.733l.943,5.474L16.835,16.29q1.231-3.274,1.388-4.007l-.812-3.117q-3.379.76-5.29-.288l-2.7-.5a8.174,8.174,0,0,0,1.624-.34m-6.233.314q-.943-.262-.786-.917A30.442,30.442,0,0,0,10,.288a11.008,11.008,0,0,1,1.676,1.048L6.359,6.888l.576,1.1a10.216,10.216,0,0,1-2.121.367M2.745,8.093a.292.292,0,0,0,.131.026.931.931,0,0,0,.262.079l-.471.157.079-.183a2.592,2.592,0,0,1-2.724-1.6A.633.633,0,0,1,.152,6q1.6-1.938,3.09-3.981.55-.76,1.126-1.545L4.526.079l.026.052L5.783,0A51.354,51.354,0,0,0,.86,6.809,4.018,4.018,0,0,0,2.745,8.093Z" transform="translate(2.859 0.926)" fill="#c18770"/>
              <path id="Path_75150" data-name="Path 75150" d="M12.283,9.306A4.965,4.965,0,0,1,9.8,8.914l-.576-1.1,5.317-5.552q.34-.917,3.379-.864a3.339,3.339,0,0,1,3.012,1.467l-7.6,3.614a2.816,2.816,0,0,0,.576,2.488,8.174,8.174,0,0,1-1.624.34M5.6,9.1l-.079.183a5.03,5.03,0,0,1-2.567-.524Q1.414,8.1,2.043,6.949a30.73,30.73,0,0,1,1.571-2.7A12.592,12.592,0,0,1,7.386,1L7.228,1.4Q6.652,2.183,6.1,2.942,4.609,4.985,3.012,6.923a.633.633,0,0,0-.131.576A2.592,2.592,0,0,0,5.6,9.1m.131-.052A.292.292,0,0,1,5.6,9.018,4.018,4.018,0,0,1,3.719,7.735,51.354,51.354,0,0,1,8.643.926,4.583,4.583,0,0,0,9.14.4q1.44-1.1,3.719.812a30.442,30.442,0,0,1-5.971,7.15q-.157.655.786.917A6.22,6.22,0,0,1,6,9.123a.931.931,0,0,1-.262-.079M4.321,17.871a7.935,7.935,0,0,1,3.8.576q4.557-1.021,5.474-4.688a5.468,5.468,0,0,0-1.31-4.452l2.7.5q1.912,1.048,5.29.288l.812,3.117q-.157.733-1.388,4.007l3.012-3.509-.943-5.474q-1.6.576-2.2.733-4.243,1.048-6.233-2.488l7.962-2.383a8.018,8.018,0,0,1,3.3,1.021q2.619,5.055,3.929,7.359,1.362,2.357.393,8.983-.969,6.574-6.862,5.84-4.112-2.043-2.7-6.6-3.248,3.117-.079,6.731-5.29-.183-10.424-4.4a10.248,10.248,0,0,0-7.176,1.7Q-.21,23.213.026,21.694A4.463,4.463,0,0,1,1.414,19.1,4.958,4.958,0,0,1,4.321,17.871Z" fill="#e2ad98"/>
            </g>
          </g>
          <g id="Group_103375" data-name="Group 103375" transform="translate(17.141 19.953)">
            <g id="Group_103374" data-name="Group 103374" transform="translate(0 0)">
              <g id="Group_103373" data-name="Group 103373">
                <path id="Path_75151" data-name="Path 75151" d="M6.351,3.208,3.208,6.351a.033.033,0,0,1-.052,0L.013,3.208a.033.033,0,0,1,0-.052L3.156.013a.033.033,0,0,1,.052,0L6.351,3.156a.033.033,0,0,1,0,.052M3.182.118,3.208.092H3.156l.026.026L.118,3.182.092,3.156v.052l.026-.026L3.182,6.246,6.246,3.182,3.182.118m.052,3.85-.052.052L3.13,3.968V3.234H2.4l-.052-.052L2.4,3.13H3.13V2.4l.052-.052.052.052V3.13h.733l.052.052-.052.052H3.234Z" fill="rgba(0,0,0,0)"/>
              </g>
            </g>
          </g>
        </g>
      </g>
    </g>
  </g>
</svg>
