<svg xmlns="http://www.w3.org/2000/svg" xmlns:xlink="http://www.w3.org/1999/xlink" width="375" height="437" viewBox="0 0 375 437">
  <defs>
    <linearGradient id="linear-gradient" x1="0.518" y1="0.914" x2="0.518" y2="0.052" gradientUnits="objectBoundingBox">
      <stop offset="0" stop-color="#84a4fc"/>
      <stop offset="1" stop-color="#84a4fc" stop-opacity="0"/>
    </linearGradient>
    <clipPath id="clip-path">
      <rect id="Rectangle_1119" data-name="Rectangle 1119" width="375" height="386" fill="#84a4fc"/>
    </clipPath>
    <linearGradient id="linear-gradient-2" x1="0.5" y1="1" x2="0.5" gradientUnits="objectBoundingBox">
      <stop offset="0" stop-color="#fff"/>
      <stop offset="1" stop-color="#84a4fc"/>
    </linearGradient>
  </defs>
  <g id="Dismiss_bg" data-name="Dismiss bg" opacity="0.5">
    <path id="Rectangle_1080" data-name="Rectangle 1080" d="M0,0H375a0,0,0,0,1,0,0V417a20,20,0,0,1-20,20H0a0,0,0,0,1,0,0V0A0,0,0,0,1,0,0Z" fill="url(#linear-gradient)"/>
    <g id="Mask_Group_212" data-name="Mask Group 212" transform="translate(0 51)" clip-path="url(#clip-path)">
      <path id="Path_6714" data-name="Path 6714" d="M731.72,341.769H1.763C0,300.2-13.4,149.746,73.818,57.191,159.611-33.849,334.41-8.73,379.982,80.016c50.676,98.689,41.292,185.1,112.293,209.126,30.5,10.3,58.564,7.528,84.81,2.411,58.183-11.347,107.335-34.183,153.963,48.992C731.282,340.943,731.516,341.374,731.72,341.769Z" transform="translate(-228.32 44)" opacity="0.38" fill="url(#linear-gradient-2)"/>
    </g>
  </g>
</svg>
