<svg xmlns="http://www.w3.org/2000/svg" xmlns:xlink="http://www.w3.org/1999/xlink" width="375" height="812" viewBox="0 0 375 812">
  <defs>
    <clipPath id="clip-path">
      <rect id="Rectangle_3775" data-name="Rectangle 3775" width="375" height="812" fill="#fff" stroke="#707070" stroke-width="1"/>
    </clipPath>
    <linearGradient id="linear-gradient" x1="0.5" y1="0.011" x2="0.5" y2="1" gradientUnits="objectBoundingBox">
      <stop offset="0" stop-color="#fff"/>
      <stop offset="0.104" stop-color="#f1f4fb"/>
      <stop offset="0.532" stop-color="#e3e8f6"/>
      <stop offset="0.853" stop-color="#f5f7fc"/>
      <stop offset="1" stop-color="#fff"/>
    </linearGradient>
  </defs>
  <g id="Mask_Group_16281" data-name="Mask Group 16281" clip-path="url(#clip-path)">
    <g id="Group_22760" data-name="Group 22760" transform="translate(0 -8.5)">
      <path id="Path_27672" data-name="Path 27672" d="M0,0H375V723H0Z" transform="translate(0 89)" fill="url(#linear-gradient)"/>
      <g id="Group_33361" data-name="Group 33361">
        <path id="Path_19427" data-name="Path 19427" d="M2458.384,2269.406q-5.818-3.784-11.318-8.063c-29.678-23.128-44.861-59.471-70.373-86.591-24.966-26.537-53.645-52.274-84.3-71.994-64.26-41.336-139.787-56.216-209.457-36.7-74.428,20.85-138.451,76.4-170.835,146.7s-32.94,153.984-2.66,224.493c27.734,64.583,83.652,125.713,151.123,148.5,51.339,17.334,105.64,11.486,156.627,1.4,70.569-13.968,137.287-28.523,211.532-20,45.811,5.258,88.121,15.041,132.073,2.42,40.847-11.732,75.21-45.084,95.066-81.851,19.28-35.7,25.81-79.436,15.157-120.937-8.056-31.411-29.12-63.653-60.388-72.4-20.712-5.8-41.748-.336-62.693.537C2517.105,2296.191,2485.333,2286.913,2458.384,2269.406Z" transform="translate(-1978.06 -1913.174)" fill="#84a4fc" opacity="0.067"/>
        <path id="Path_19429" data-name="Path 19429" d="M2069.035,2234.433q4.857-3.16,9.45-6.732c24.778-19.31,37.454-49.652,58.755-72.3,20.844-22.156,44.789-43.645,70.385-60.108,53.652-34.512,116.709-46.935,174.877-30.646,62.141,17.408,115.595,63.784,142.633,122.478s27.5,128.563,2.22,187.432c-23.155,53.92-69.842,104.958-126.174,123.982-42.863,14.473-88.2,9.59-130.769,1.166-58.919-11.662-114.623-23.813-176.61-16.7-38.248,4.39-73.573,12.557-110.269,2.021-34.1-9.8-62.794-37.641-79.372-68.339-16.1-29.808-21.549-66.322-12.655-100.971,6.725-26.225,24.313-53.144,50.419-60.448,17.293-4.84,34.856-.282,52.342.448C2020.008,2256.8,2046.534,2249.049,2069.035,2234.433Z" transform="translate(-2004.631 -1797.557)" fill="#fff" opacity="0.413"/>
      </g>
    </g>
  </g>
</svg>
