<?xml version="1.0" encoding="utf-8"?>
<!-- Generator: Adobe Illustrator 27.9.1, SVG Export Plug-In . SVG Version: 6.00 Build 0)  -->
<svg version="1.1" id="Layer_1" xmlns="http://www.w3.org/2000/svg" xmlns:xlink="http://www.w3.org/1999/xlink" x="0px" y="0px"
	 viewBox="0 0 947.9 947.9" style="enable-background:new 0 0 947.9 947.9;" xml:space="preserve">
<style type="text/css">
	.st0{fill:#F2F2F2;enable-background:new    ;}
	.st1{clip-path:url(#SVGID_00000025434474765684479350000011028774721942578074_);}
	.st2{fill:#656875;}
	.st3{fill:#F7CBA4;}
	.st4{fill:#CE9C78;}
	.st5{fill:#B8875C;}
	.st6{fill:#F4C8A3;}
	.st7{fill:#EEBE97;}
	.st8{fill:#404040;}
	.st9{fill:#B3453E;}
	.st10{fill:#E18D85;}
	.st11{fill:#922C25;}
	.st12{fill:#22211E;}
	.st13{fill:#F9FBFB;}
	.st14{fill:#F77360;}
	.st15{fill:#E5B18A;}
	.st16{fill:#F5C9A3;}
	.st17{fill:#C4746C;}
</style>
<ellipse id="Ellipse_891_00000135681033527488030450000002669927668741735606_" class="st0" cx="473.9" cy="473.9" rx="473.9" ry="473.9"/>
<g>
	<g>
		<defs>
			<circle id="SVGID_1_" cx="473.9" cy="473.9" r="473.9"/>
		</defs>
		<clipPath id="SVGID_00000012463209376515771820000012342527459650987914_">
			<use xlink:href="#SVGID_1_"  style="overflow:visible;"/>
		</clipPath>
		<g style="clip-path:url(#SVGID_00000012463209376515771820000012342527459650987914_);">
			<path class="st2" d="M267.1,621.9c-9.6-11.8-17.9-24.5-25.8-37.4c-7.6-12.4-12.8-26-14.9-40.9c-1.9-13.6-4.7-27-5.9-40.7
				c-2.2-24.8-1.1-49.5,1.5-74.2c2-19.3,5.4-38.4,9.5-57.4c1.5-7,8.4-30.8,9.7-35.9c2.7-11.1,5.2-22.6,9.5-32.8
				c4.7-11.1,15.4-33.8,15.5-34.1c5.7-11.7,14.3-21.5,22.5-31.4c0.1-0.2,1.3-1.4,2-2.1c0.2-0.3,3.9-3.9,4.3-4.2
				c0.5-0.4,1.3-1,1.8-1.5c0.3-0.2,7.5-6.9,11.3-9.9c17.4-13.7,37-22.6,57.8-29.1c0.8-0.3,10.3-2.4,12.4-2.9c1-0.2,6.8-1.5,13.7-2
				c8.2-0.6,17.9-0.4,22.7,1.1c3.7,1.2,7-0.1,10.1-2.2c4.1-2.8,8.2-5.6,12.5-8.1c3.1-1.8,14.6-5.2,21.3-7c1-0.3,6.4-1.5,11.6-2.1
				s10.4-0.6,11.3-0.6c3.8,0.2,14.9,1.3,21,1.7c1.1,0.1,17.1,2.6,27.4,4.3c2.4,0.4,17.2,4.9,32.2,10.3c14.1,5.1,28.5,11.1,33.8,13.5
				c48.7,22.9,82.2,60.4,105,108.3c10.1,21.1,17,43.3,21.5,66.2c7.5,38.9,8.8,78.1,5.1,117.4c-2.4,25.3-7.4,50-17.7,73.5
				c-9.7,21.9-21.3,42.5-36.6,61c-0.8,0.1-1.3,0.6-1.4,1.5c0,0-0.4,0.5-0.4,0.5c-0.4,0.4-0.8,0.8-1.2,1.2
				c-4.8,4.8-9.7,9.6-14.5,14.4c-19.8,19.5-42.1,35.3-68.3,45.1c-0.7,0.3-1.4,0.6-2,0.9s-8.8,3.8-10.7,4.4c-5,1.6-14.4,4.6-20.6,5.2
				c-1.4,0.1-3-0.3-3.8-0.3c4.8-3.6,9.9-7,14.7-10.5c1.5-0.1,3,0.2,4.6-0.2c15.6-5.1,30.4-11.9,44.7-20.1
				c21.4-12.2,37.1-30.7,54.4-47.4c13.1-12.6,20.9-29,29.3-44.7c18.5-34.6,25.5-72.2,27-110.9c0.6-15.1,0.4-30.3-1.2-45.6
				c-1.5-15.1-3.6-30.1-6.3-45c-5.3-28.3-14.9-55.2-28.9-80.4c-12.8-23-29.3-43.1-49.5-59.6c-25.5-20.9-54.6-36.1-86-46.6
				c-18.7-6.3-37.7-10.4-57.3-12.9c-26.5-3.5-50.2,2.1-71.8,17.5c-2.7,1.9-4.7,2.9-8,1.7c-11-3.9-22.2-3.2-33.5-0.7
				c-33.5,7.4-62.5,23.2-86.2,48c-13.9,14.5-24,31.5-32.8,49.7c-20.8,43.2-31.2,89.1-36.9,136.3c-2.9,23.7-2,47.7-1.9,71.5
				c0,1.5,0,3,0.3,4.5c2,12.9,4.4,25.7,6.2,38.6c1.2,9,4.4,17.4,7.4,25.8c3.8,10.3,9.9,19.5,15.4,29c12.2,20.8,28.6,37.9,47.3,53.1
				c15.6,12.7,32.9,22.6,51.6,30c10.5,4.1,22.4,9.4,33.8,10.6c3.4,2.3,6.2,4.6,9.6,6.9c-0.8,0.4-4.5,0-5.3-0.1
				c-13.1-2.3-25.5-6.6-37.9-11.9c-9.5-4-29.5-13.7-30.9-14.7c-2-1.4-4.7-3.3-6.3-4.3c-0.6-0.3-1.1-0.7-1.7-1
				c-8.6-5.5-16.6-11.9-24.9-17.9c-0.1-0.1-4-3.4-4.2-3.6c-5.7-3.6-10.2-8.4-14-13.9C270.9,626.4,267.3,622.2,267.1,621.9z"/>
			<path class="st3" d="M289.1,403c-1.2-15.4,4.2-28.8,9.6-42.1c9.2-22.6,24.1-41.1,41.8-57.6c15.9-14.8,48.3-36,69.7-45.7
				c1.1,1.5,2.3,3.1,3.4,4.8c8.9,13.8,21.4,23.5,35.5,31.4c21,11.8,43.8,18.9,66.9,25.2c19.9,5.4,40,10.2,59.8,16.2
				c21,6.4,40.8,15.5,58.6,28.6c9.8,7.2,21.2,15,26.3,29.8c-1.8,9.5-4.1,17-5.6,25.9c-4.6,27.2-5.2,53.1-6.1,81.7
				c-1,13.5-4.9,54.1-8.1,73.8c-4.6,16.8-14.2,29.4-23.4,44.3c-23.9,39-56.1,69-96.7,90c-14,7.3-28.8,12.5-44.5,13.9
				c-5.7,0.5-11.7-0.7-17.4-2.1c-20.9-5.1-39.6-15.3-57.5-26.9c-31.1-20.3-57.1-45.7-76.7-77.4c-13.6-21.9-23.6-46.6-26.1-72.2
				c-2.1-22.3-1.7-43.8-2.2-66.1C295.8,453.2,293.6,428.3,289.1,403"/>
			<path class="st4" d="M528,487c-0.5-0.1-0.8,0.6-0.3,0.8c7.8,3.4,23.4,8.8,39.5,5.8c20.8-3.8,32.1-11,38.7-18.1
				c0.4-0.4-0.1-1.1-0.6-0.8c-7.1,3.7-28.2,14.2-42.1,14.8C549,490,537.8,489.5,528,487z"/>
			<path class="st4" d="M422.4,486.1c0.5-0.1,0.8,0.6,0.3,0.8c-6.2,3.4-22.2,10.4-42.6,7.5c-22.1-3.1-35-15.8-38.7-19.8
				c-0.3-0.3,0.1-0.8,0.4-0.6c3.3,1.4,11.5,5.1,21.3,9.9C375.4,489.9,391.6,494.2,422.4,486.1z"/>
			<path class="st5" d="M523.9,557.2c0.5,2.6,2.9,12.5,14.1,20.3c13,8.9,20.2,12,26.3,20.9s6.9,13.2,6.1,21.9c0,0-0.4,2.6,1.1,3.2
				c1.5,0.7,2.9-2.4,2.9-4.7c0-2.1,0.1-7.9-1-12.2c-1.1-4.4-4.7-9.6-9.9-14.9c-4.2-4.2-10.1-8.2-16.6-11.5
				c-14.4-7.4-18.5-13.9-22.9-23C524,556.9,523.8,556.8,523.9,557.2z"/>
			<path class="st5" d="M424,557.2c-0.5,2.6-2.9,12.5-14.1,20.3c-13,8.9-20.2,12-26.3,20.9c-6.1,8.9-6.9,13.2-6.1,21.9
				c0,0,0.4,2.6-1.1,3.2s-2.9-2.4-2.9-4.7c0-2.1-0.1-7.9,1-12.2c1.1-4.4,4.7-9.6,9.9-14.9c4.2-4.2,10.1-8.2,16.6-11.5
				c14.4-7.4,18.5-13.9,22.9-23C423.9,556.9,424,556.8,424,557.2z"/>
			<path class="st6" d="M650.1,521.8c0.6-4.5,4.7-27.7,1.2-32.8c-1.2-8.6,0-21.9,0.9-29.6c1.8-15.4,4.8-26.4,8.8-27.3
				c24.4-8.5,38.1,3,41.8,24.4c4,22.8-1.5,44-14.5,63.2c-0.5,0.8-2.9,8.2-9.6,12.7c-9.9,6.8-25.3,11.3-26.5,10.6
				C646.6,540.2,650.1,521.8,650.1,521.8z"/>
			<polygon class="st7" points="658.9,431 652.2,454.5 652.2,485.6 650.1,521.8 648.8,541.7 659.5,542.4 678.2,533.1 686.2,525.5 
				674.3,488.5 669.2,452.6 667.2,431 			"/>
			<path class="st6" d="M258.6,528.2c-12.6-11.2-14.2-27.8-17.7-43.6c-2.5-11.2-2.4-22.3,1.3-33.3c5.3-15.6,18.9-24.5,35.9-20
				c12.8-0.5,13.4,16,12.8,23.9c-0.6,7.5,3.9,21.1,3.7,28.6c-0.1,4.2-4.9,26.6-1.3,30.3c-0.7,4.2,2.9,22.1,1.3,27.3
				C292,550.1,259.4,538.1,258.6,528.2z"/>
			<path class="st7" d="M261.9,527.7c7.5-4.4,8.4-13.5,11.7-21c1.6-2.8,2.7-5.2,4-7.5c1.9-3.3,5.5-4.7,10.7-4.2
				c0.8,14.7,1.7,29.4,2.6,45.1C279,539.5,269.6,536,261.9,527.7z"/>
			<path class="st7" d="M277.6,493.5c-5.2-3.8-2.8-9.2-2.7-13.4c0.2-7.6,1-15.1,1.6-22.6c0.6-7.9,1-17.3,1.6-26
				c8.4,1.8,8.6,3.4,9.1,11.3c0.5,8.8,1.2,17.5,1.8,26.8c-2.5-0.3-4.2-0.1-6.5-0.4c8.1,7.8,8,10.9,5.8,18.2
				C284.9,489,277.6,493.5,277.6,493.5z"/>
			<path class="st8" d="M342.3,387.4c-7.4,3.2-14.1,6.1-21.6,9.4c0-1.7-0.4-3.2,0.1-3.7c24.6-24.3,52.3-41.7,88.7-39.3
				c8.7,0.6,16.8,3.4,24.1,8.3c6.8,4.6,11.8,10.7,14.5,18.6c0.9,2.6,1.1,5.5,1.9,10.2C413.6,371.1,378.4,373.3,342.3,387.4z"/>
			<path class="st8" d="M554.3,353.7c28.3,4.1,65.2,25.2,73.8,42.7c-2.9-1-5.1-1.4-6.9-2.3c-14.7-7.1-29.9-12.8-46-15.7
				c-24.6-4.4-48.3-2.3-70.8,9.3c-1,0.5-2.1,1.1-3.2,1.4c-0.5,0.2-1.1-0.1-2.8-0.3c0.7-3.1,0.9-6.3,2-9.1
				c6.5-16.4,20-23.5,36.4-25.8C542.3,353.2,548,353.7,554.3,353.7z"/>
			<path class="st5" d="M436.6,542.4c-5.8-7-5.8-11.9,0-18.6c3.5-4,7.3-7.7,10.4-12c6.9-9.6,10.6-20.6,11-32.3
				c0.4-10.9-0.4-21.8-0.6-32.8c0-0.7,0.2-1.5,1-2.2c6.9,22,7.4,44.1-0.8,66.2c33,0.2,50.1,11.7,44.2,30.2
				c-1.9-14.3-11.8-19.2-23.1-22.3c-11.3-3.1-22.3-1.5-32.5,4.3c-6.8,3.8-11.3,8.9-9.7,17.8c0.1,0.3,0.2,0.6,0.2,0.9
				C436.8,542.4,436.6,542.4,436.6,542.4z"/>
			<path class="st9" d="M508.3,598.8c-0.8,0.2-2.1-0.1-3.8-0.9C505.4,597.8,506.7,598.1,508.3,598.8z"/>
			<path class="st10" d="M411.1,600.2c0,0,16.7,7.2,32.3-5.6c14.9-12.2,22.3-8.8,28-9.1c5.7-0.3,14.9,1.7,23.4,7
				c8.5,5.3,18.5,10.4,31,9.8c0,0-6.4,6.7-12.1,15c-4,5.8-5.9,12.2-13.3,17.6c-8.5,6.3-23.4,7.1-27.9,6.9c-6.1-0.2-24,1.4-35.5-12.9
				C432.2,623,416.7,604,411.1,600.2z"/>
			<path class="st11" d="M409,598.8c0,0,8.1,4.8,19.7,21.4c14.3,20.4,32.3,23.5,43.5,23.5c11.3,0,25.2-1.7,36.2-16.3
				c10.9-14.6,12.9-22.4,19.7-26.8c0,0-10.4,8.3-18.8,21.3s-23.7,15.8-37.1,15.5c-15.7-0.4-27.6-3.6-39.1-16.9
				C421.1,606.6,409,598.8,409,598.8z"/>
			<path d="M534.9,449c0,0-4.3,9.7-1.1,17.1c3.2,7.5,5.1,6.5,8,8s28.2,0,28.2,0l23.1-8.2c0,0,2.2-16.3-4.8-25.2h-18.7h-16.4
				L534.9,449z"/>
			<path class="st12" d="M537.8,450.7c0,0-2.9,13.7,2.9,23l25.5,2.1l20.9-5.7c0,0,5.7-13.5-1.7-28.5l-16.4-3.3l-20.3,6.7
				L537.8,450.7z"/>
			<path class="st13" d="M543.7,453.7c0.2-2,0.8-5.6,5.5-5.8c3.3-0.1,4.8,1.9,5.2,4.6c0.6,3.8-1,8-4.5,8.5S543.3,458.1,543.7,453.7z
				"/>
			<path d="M511.3,474.1c-0.1,0-0.2,0-0.1-0.1c1.1-3.4,10.2-34.9,43.2-41.9c35-7.4,43.2,3.9,60.2,4.5c13.7,0.5,21.7-3.5,22.9-3.8
				c0,0,0.1,0,0,0.1c-0.9,1-7.2,7.3-22.8,9.5c-4.2,0.6-2.3,3.9-7.9,3.7c-2.7-0.1-13.5-1.1-16.1-1.2c-1.6-0.1-1.8-2.3-3.4-2.4
				c-14.9-0.7-29.5-0.6-46.3,7.9c-1.9,1-4.5,1.4-5.7,3.4c-1.5,2.5-5.1,6-8.4,8.8C522.3,466.3,518.8,471.8,511.3,474.1z"/>
			<path d="M615.1,441.6c0,0-2.6-0.9-4.2,1c-1.3,1.6-1.4,5.7-4.1,8c-3.4,3.1-8,6.7-14,10.2c-0.9,0.6-1.7,3.6-2.7,4.1
				c-3,1.6-6.4,3.1-10.1,4.3c-11.4,3.9-24.1,3.9-35.8,3.5c-1.8-0.1-4.2-2.7-6-2.8c-11.2-0.4-18.8-1.3-25.6,2.5
				c-0.5,0.3-1.1,1.4-1.6,1.6c0,0,0,0.1,0,0.1c1.9-0.2,26.6,0.2,39.9,2.3c12.8,2,25-0.4,32.2-3.3C590.5,470.2,608,465.3,615.1,441.6
				z"/>
			<path class="st13" d="M532.9,456.3c0,0-0.3,8.3,3.4,14.4c0,0-13.6-0.9-18.8,0.1c-0.2,0-0.4-0.2-0.2-0.4
				C518.4,468.8,522.5,463.6,532.9,456.3z"/>
			<path class="st13" d="M589.5,443.7c1,2.3,4.1,10.4,3.3,18.2c0,0.3,0.3,0.5,0.6,0.4c2.7-1.4,12.9-7.3,18.3-18.2
				c0.1-0.3-0.1-0.6-0.4-0.6c-2.7,0.3-11.8,1.1-21.4-0.4C589.7,443.2,589.4,443.4,589.5,443.7z"/>
			<path d="M361.5,440c0,0-10,7.3-5.8,24.7l16.9,7.7l21.4,1.8l16-0.7c0,0,9.6-7.3,5.2-19.7l-12.3-10.8l-14.2-3.1l-13.7-1.1
				L361.5,440z"/>
			<path class="st12" d="M368.1,441.5c0,0-6,1.6-8.4,11.5c-2.4,10,2.7,15.9,2.7,15.9l23.2,5.8l22.1-1.9c0,0,7.9-11.1,2.9-21.4
				l-25.6-9.5L368.1,441.5z"/>
			<path class="st13" d="M368.2,448.2c0,0,2.8-4.7,6.4-4.3s4.7,2.8,4,6.5c-0.7,3.7-3.6,7.9-7.1,7.6
				C368.1,457.8,366,452.7,368.2,448.2z"/>
			<path class="st13" d="M335.4,442.7c0,0,19.3,0.2,24.7-0.6c0,0-7.3,9.1-4.5,20.2C355.5,462.3,338.3,451.7,335.4,442.7z"/>
			<path d="M436.5,474.1c0.1,0.1,0.4,0,0.4-0.1c-0.4-3.1-2.4-23.2-26.2-34.4c-25.8-12.1-40.3-11-55.4-7.3s-29.7,6.9-43.7,1.2
				c0,0,7.4,13.1,36.4,9.7c27.8-3.2,38.6,0.1,44.4,1.6C408.7,448.9,423.2,458.4,436.5,474.1z"/>
			<path d="M333.4,440c0,0-1.3,10.8,11.1,21s22.8,14.3,35.4,15.3c17.4,1.4,46.6-1.6,57-2.1c0.1,0,0.1-0.3,0-0.3
				c-0.3,0-1.2-3.6-1.7-3.7c-3.4-0.8-8.4,1.3-14.5,1.1c-2.9-0.1-5.8-0.6-8.8-0.4c-0.5,0-1,1.2-1.5,1.2c-4.1-0.1-8.1,0-11.7,0.2
				c-11.1,0.7-31.1-1.4-45.8-12C339.6,450.6,338.9,447.5,333.4,440z"/>
			<path class="st13" d="M415.5,454.8c0.3,1,1.2,4.8,0.2,9.1c-0.5,2.4-1.5,5-3.8,7.4c-0.1,0.1,0,0.2,0.1,0.2c1.4,0.1,7.8,0.5,11,0.5
				c2.9,0,9.2-1,10.9-1.1c0.2,0,0.3-0.2,0.2-0.4c-1.4-1.8-8.4-10.6-18.3-15.8C415.6,454.6,415.5,454.7,415.5,454.8z"/>
			<g>
				<path class="st14" d="M224.3,1186.2c-29.9-7.9-59.7-20.2-86.1-36.7c-17.8-11-33.2-24.7-45.1-42.2c-4.4-6.5-5.2-11.7-0.7-19.2
					c29.7-49.4,54-101.4,73.6-155.7c5.4-15,10.6-30.2,15.8-45.3c7.9-23.3,21.6-42,43.5-54c20.2-11.2,40.1-23,60.7-33.4
					c23.3-11.8,48.1-20.2,73.2-27.2c3.3-0.9,6.8-1.4,11.3-2.4c-0.2,3.4,0,5.7-0.5,7.8c-13.1,52.4,24.4,106.5,81.9,115.4
					c36.8,5.7,69-4.1,95.9-29.2c17-15.9,27.7-36.2,31.3-59.6c0.9-5.5,1.6-11.2,1.4-16.8c-0.1-5.3-1.5-10.5-2.6-17.1
					c3,0.4,5.5,0.4,7.8,1c22.2,5.5,43.6,13.4,64.7,22.1c28.3,11.8,54.5,27.5,80.1,44c17.8,11.5,28.7,28.5,35.8,48.4
					c11.4,31.8,22.8,63.6,35.4,94.9c13.3,33,29.7,64.6,47.4,95.5c2.8,4.9,5.5,9.8,8.6,14.6c3,4.6,2.6,8.4-0.3,13
					c-11.5,18.1-26.8,32.4-44.7,43.8c-22.4,14.2-46.8,25.8-73.1,32.2c-0.9-6.6-5.6-11.4-7.2-16.4c-2.6-8.6-5-17.1-8.8-25.4
					c-3.7-7.9-5-16.9-7.7-25.3c-0.6-1.7-3.7-4.8-4.9-6.3c1.5-10.8,5.1-19.9,5.5-30.8c0.7-19.2,0.7-38.4,0.1-57.6
					c-0.6-19.3-5-38.1-11.1-56.5c-1.6-4.9-3.1-10.1-9.8-13.6c0.2,3.4,0,5.5,0.4,7.6c2.8,14.2,6.4,28.3,8.6,42.6
					c2.9,19,3.4,38.2,1.6,57.5c-3.4,36.8-14.2,71.9-23.5,107.4c-6.9,26.4-12.1,53.1-14.6,80.3c-0.7,7.7-1.4,15.3-1.8,23
					c-1.6,32.5,6,63.5,15.3,94.2c10.9,35.8,25.5,70.1,41.1,104.1c2.1,4.6,4.2,9.2,6.1,13.8c2.6,6.1,2.5,7.5-3.4,10.8
					c-11.2,6.1-22.4,12.2-34.1,17.1c-44.1,18.7-90.1,31.1-137.2,39.1c-36.4,6.2-73.1,7.3-109.8,5.4c-40-2.1-79.3-9.6-117.8-20.7
					c-31.6-9.1-62.9-19.2-92.2-34.7c-3.7-1.9-7.3-4-10.8-6.2c-6.5-4-6.7-4.5-3.6-11.2c4.3-9.4,8.9-18.8,13.1-28.2
					c16.9-38.3,32.9-76.9,42.1-117.8c3.9-17.3,6.4-34.9,8.2-52.5c1-10.2-0.3-20.7-1.5-31c-3.4-30.6-8.9-60.9-16.7-90.7
					c-6.9-26-13.5-52.2-19-78.5c-5.4-25.9-6.4-52.2-1.8-78.5c2.5-14.3,5.4-28.5,8-42.7c0.6-3.3-0.9-2.4-0.4-7.8
					c-5.5,4-5.7,3.7-7.1,7.7c-6.8,20.9-12,42.1-12.7,64.2c-0.4,12.1-0.3,24.4-1.4,37.5c-2,6.3-5.1,11.4-5.3,16.8
					c-1,20.4-1.6,40.7-1.9,61.1c-0.1,9.4,1.1,18.8,1.6,28.3C225.3,1172.5,228.9,1180.4,224.3,1186.2z"/>
				<path class="st9" d="M735.8,1493.4c-3.7,2-7,3.7-11.3,5.9c-9.2,4.8-17.2,9.3-25.6,13.1c-64.3,29.2-132.4,41.4-202.5,44.4
					c-40,1.7-79.9-0.9-119.4-7.3c-39.9-6.4-78.9-16-116-32.3c-14.6-6.4-28.6-14-42.9-21c0,0-0.1,0-0.1-0.1c-2.5-1.6-4.9-3.2-7.9-4.9
					c-0.1,0-0.2-0.1-0.2-0.2c-3.6-3.2-2.4-6.3-0.7-9.7c15.4-31.4,29-63.5,40.7-96.5c9.4-26.5,16.8-53.6,21.1-81.5
					c3.3-21.3,1.5-42.4-2-63.5c-1.9-11.7-4.2-23.3-6.5-36.3c-1.5-7.5-1.5-7.5-9.7-7.6c0,0-0.1,0-0.1,0c-11-1.3-21.3-2.2-31.4-3.9
					c-35.5-5.9-68.3-18.2-96.5-41.3c-3.2-2.6-6.6-4.9-10.2-7.8c-2.9-2.3-5.5-4.2-8.1-6.1c-0.1-0.1-0.2-0.1-0.2-0.2
					c-5.1-6.8-10.2-13.5-15.2-20.4c-2.6-3.6-4.8-7.5-7.5-11c-4-5.1-3.7-9.6-0.7-15.3c30.1-55.7,55.7-113.5,78-172.8
					c5.4-14.4,11-28.7,17.2-42.7c8-18,20.6-32.2,38.3-43.3c0,0,0.1,0,0.1,0c3.7-1.9,6.2-3.5,9.4-5.3c3.9-2.2,7.1-4.2,10.4-6.3
					c49.5-31.1,103.1-52.2,160.6-61.9c0.7-0.1,1.4,0.5,1.3,1.2c-0.1,1.1-0.2,1.9-0.3,3.1c0,0.5-0.5,1-1,1c-2.5,0.3-4.9,0.6-6.7,0.8
					c-6.1,0.5-9.8,3.4-10.7,9.7c-0.9,6.1-2.7,12.2-3,18.4c-1.5,37.3,20.8,71.3,55.5,85.3c50.9,20.5,107.8-1.5,131.6-50.9
					c8.1-16.8,11.3-34.2,7.5-52.7c-1-4.8-2.6-8.2-8.1-8.7c-1-0.1-2-0.2-2.9-0.4c-3.5-0.7-6.9-1.6-10.4-2.9c-0.4-0.2-0.7-0.6-0.7-1
					c0-1.2,0-2.1-0.1-3.3c-0.1-0.7,0.6-1.3,1.3-1.2c52.6,9.4,102.2,28.1,147.9,54.5c6.7,3.8,13.3,7.8,20.3,12.1
					c3.1,1.9,5.8,3.4,8.5,4.9c22.9,12.8,38.4,31.7,47.7,56.2c19.4,51.1,39.6,101.9,63.2,151.2c8.6,17.8,17.5,35.5,27,52.9
					c3.9,7.1,4.4,12.7-0.8,19.2c-7.4,9.2-14.1,18.8-21.9,28.9c0,0.1-0.1,0.1-0.2,0.2c-3.2,2.8-5.7,5-8.8,7.3
					c-12.8,10.1-25.1,19.6-39.1,26.9c-31,16.1-64.4,22.7-99.4,25.4c-0.1,0-0.1,0-0.2,0c-6.3-0.6-7.8,2.9-8.2,7.6c0,0,0,0.1,0,0.1
					c-2,12.2-3.5,24.6-5.9,36.7c-7.1,35.7-2.7,70.7,6.8,105.3c11.8,43,28.6,84,47.4,124.3c1.8,3.8,3.5,7.5,5.2,11.3
					C742.3,1487.7,742.2,1488,735.8,1493.4 M711.4,1109.6c-8,23.8-20,69.8-20.8,80.3c-0.1,0.7,0.6,1.3,1.3,1.2
					c6.2-0.8,12.5-1.3,18.5-2.8c9.7-2.3,19.2-5.4,30.2-8.4c25.6-7,49.7-17.7,72.1-32c18-11.4,33.2-25.7,44.7-43.8
					c3-4.6,3.3-8.5,0.3-13c-3.1-4.7-5.8-9.7-8.6-14.6c-17.7-30.9-34.1-62.5-47.4-95.5c-12.6-31.3-24-63.2-35.4-94.9
					c-7.1-19.8-18-36.9-35.8-48.4c-25.6-16.5-51.8-32.3-80.1-44c-21.1-8.8-42.5-16.6-64.7-22.1c-1.9-0.5-4-0.6-6.4-0.8
					c-0.7-0.1-1.4,0.6-1.2,1.3c1,5.9,2.2,10.8,2.3,15.6c0.2,5.6-0.6,11.2-1.4,16.8c-3.6,23.4-14.3,43.7-31.3,59.6
					c-26.8,25.1-59.1,34.9-95.9,29.2c-57.5-8.9-95-63-81.9-115.4c0.4-1.8,0.4-3.7,0.5-6.3c0-0.7-0.6-1.3-1.4-1.2
					c-3.9,0.8-7,1.3-9.9,2.1c-25.2,7-49.9,15.4-73.2,27.2c-20.6,10.4-40.5,22.2-60.7,33.4c-21.9,12.1-35.6,30.7-43.5,54
					c-5.2,15.1-10.3,30.3-15.8,45.3c-19.6,54.2-43.9,106.3-73.6,155.7c-4.5,7.5-3.8,12.7,0.7,19.2c11.9,17.5,27.4,31.1,45.1,42.2
					c26.4,16.4,55.1,27.4,86.4,35.7c10.6,3.2,21.4,4.7,32.5,6c1.6,0.2,2.9-1.3,2.4-2.9c0,0,0,0,0,0c-3.5-12.6-7.3-25-10.5-37.6
					c-5.3-20.9-10.5-41.9-15.2-63c-1.9-8.9-2.3-18.1-3.3-28.8c0-0.1,0-0.1,0-0.2c0.5-12.1,1.2-24.2,1.5-36.3
					c0.7-22.1,5.9-43.4,12.7-64.2c1.1-3.5,2.7-6.9,6.6-10.3c0.8-0.7,2-0.1,1.9,1c-0.4,3.9-0.5,6.7-1,9.4c-2.6,14.3-5.5,28.5-8,42.7
					c-4.6,26.3-3.7,52.6,1.8,78.5c5.5,26.3,12.1,52.5,19,78.5c7.9,29.8,13.3,60.1,16.7,90.7c1.1,10.3,2.5,20.8,1.5,31
					c-1.7,17.6-4.3,35.3-8.2,52.5c-9.2,40.9-25.2,79.6-42.1,117.8c-4.2,9.5-8.7,18.8-13.1,28.2c-3.1,6.7-2.9,7.2,3.6,11.2
					c3.5,2.2,7.1,4.2,10.8,6.2c29.2,15.5,60.5,25.6,92.2,34.7c38.5,11.1,77.8,18.7,117.8,20.7c36.7,1.9,73.4,0.8,109.8-5.4
					c47.2-8,93.1-20.4,137.2-39.1c11.7-5,22.9-11,34.1-17.1c6-3.2,6-4.7,3.4-10.8c-2-4.6-4-9.2-6.1-13.8
					c-15.7-33.9-30.2-68.3-41.1-104.1c-9.4-30.7-17-61.7-15.3-94.2c0.4-7.7,1.1-15.3,1.8-23c2.5-27.2,7.7-53.9,14.6-80.3
					c9.3-35.5,20.1-70.6,23.5-107.4c1.8-19.4,1.3-38.5-1.6-57.5c-2.2-14.3-5.7-28.4-8.6-42.6c-0.3-1.6-0.3-3.3-0.3-5.5
					c0-0.9,1-1.5,1.8-1c5.2,3.4,6.5,8.1,8,12.5c6.1,18.3,10.5,37.1,11.1,56.5c0.6,19.2,0.6,38.4-0.1,57.6c-0.4,10.9-2.8,21.6-5,33.5
					C711.4,1109.5,711.4,1109.6,711.4,1109.6z"/>
			</g>
			<path class="st15" d="M541.5,732.1c-6.6,1.6-12.6,3.4-18.4,6.8c-5,2.9-10.9,5.4-16.6,5.8c-8.3,0.6-16.4,5-24.4,6.2
				c-18.1,2.6-38,4.7-55.4-3.6c-6.6-3.1-13.2-6.5-20.9-8.8c0.8-10.5,3.5-23,5.1-34.3c2.8,0.7,4.5,1.5,6.2,2.4
				c16.4,8.5,33.2,15.6,51.7,17.4c6.9,0.7,14.1,0,20.9-1.4c14.5-2.9,28.3-8.4,41.3-15.6c2-1.1,4.2-1.8,7.7-3.3
				C539.7,713.6,540.6,722.5,541.5,732.1z"/>
			<path class="st16" d="M541.5,732.1c1.8,13.4,2.3,27.7,6.4,41.1c0.2,0.5,0.9,0.4,0.9-0.1c0-3.8,0-8.1,0-12
				c4.3,0.3,7.9,1.3,13.3,2.5c6.1,1.4,7.7,4.6,8.8,9.7c3.7,18.5,0.5,35.9-7.5,52.7c-23.8,49.4-80.7,71.4-131.6,50.9
				c-34.7-14-56.9-48-55.5-85.3c0.2-6.1,2.1-12.2,3-18.4c0.9-6.3,4.5-9.3,10.7-9.7c2.1-0.2,4.9-0.6,7.6-0.9
				c0.2,4.2-1.2,8.6-1.7,12.9c-0.1,0.9,0.3,1.2,0.6,1.3c0.4,0.1,0.9,0.1,1.4-0.6c0.5-0.8,1.5-4.5,2.1-7c0.8-3.8,1.8-7.8,2.7-11.6
				c1.5-6.5,2.4-13.3,4-22.1c8,1.6,35.4,17.2,75.9,13.2c8.1-1.2,29.6-4.4,40.8-9.7C528.9,735.5,535,732.9,541.5,732.1z"/>
			<path class="st5" d="M397.5,762.6c0.1-1.6,0.2-3.8,0.6-6.8c2.5-19.7,4.6-37.5,6.7-55.7c0-0.1,0-0.2-0.1-0.3
				c-57.5-37.3-100.5-84.3-112.4-154.5c0-0.2-0.2-0.3-0.3-0.2c-12,1.4-21.8-2.9-31.6-8.8c0,0,0,0,0,0c-1.8-1.4-3.3-2.4-4.8-3.3
				c0,0,0,0-0.1,0c-20.7-22-29-47.9-23.5-77.8c2.6-13.9,10.2-24.3,25.3-29.4c0,0,0,0,0,0c1.1-0.2,5.5-2.2,10.6-2.1
				c6,0.2,13.1,2.5,17.2,2.8c0.2,0,0.4-0.2,0.3-0.4c-1-4.8,1.5-26.9,2.9-29.9c0.1-0.3,0.5-0.2,0.6,0.1c2.5,20.3,5.5,39.9,6.7,59.6
				c1.5,23,1.3,46.2,2,69.3c0.7,24.3,6.4,47.5,16.5,69.5c16.5,35.8,42.2,64.1,73.4,87.7c18.3,13.8,38.1,25,59.5,33.3
				c16.3,6.4,32.7,7.7,49.4,1.6c7.8-2.8,15.7-5.4,23.1-9.2c42.3-21.4,75.7-52.4,99.9-93.3c8.5-14.3,14.6-29.6,18.7-46.4
				c7-22.9,7.3-45.8,7.9-69.6c1.5-20.2,2.3-39.6,4.3-59c1.3-12.5,6.2-25.4,7.6-37.4c0.2-1.9,0.8-3.2,1.1-4.1c0.4-1.3,0.5-0.5,1,0.1
				c1.6,1.9,1.7,14.3,1.5,17.6c0,0.2-0.4,7.2-0.4,11.1c0,0.2,0.2,0.3,0.4,0.3c9-3.2,17.4-2.8,26.3-0.8c0,0,0,0,0,0
				c1.3,0.4,5.3,1.7,6.4,2.3c11.9,6.6,16.5,18.5,18,31.6c2.7,24.5-3.5,46.8-19.8,66.9c0,0,0,0,0,0c-2.2,2.2-3.7,3.8-5.6,5.6
				c-10.5,8.9-21.9,13.5-35.4,12c-0.2,0-0.3,0.1-0.3,0.2c-0.9,3.7-1.7,6.7-2.3,9.8c-6,31.5-19.3,59.6-38.9,84.8
				c-16.1,20.8-34.8,38.9-56.7,53.3c-6.4,4.2-8.4,8.6-7.8,15.9c1.1,12.1,1.4,23.3,2.1,35.4c0.2,3.5,2.3,12.3,2.2,17c0,5,0,9,0,12.8
				c0,0.8-1.1,0.9-1.3,0.2c-4.5-13.7-5-27.9-6.8-42.6c-0.8-9.5-1.7-18.3-2.7-27.9c0-0.2-0.2-0.3-0.4-0.3c-3.2,1.4-5.3,2.1-7.3,3.2
				c-13,7.2-26.7,12.7-41.3,15.6c-6.8,1.4-14,2-20.9,1.4c-18.5-1.7-35.4-8.9-51.7-17.4c-1.6-0.8-3.4-1.3-5.8-2.2
				c-0.2-0.1-0.4,0-0.4,0.2c-1.6,11.1-3,21.4-4.8,32.3c-1.4,7.3-2.2,14-3.7,20.5c-1.3,5.6-2.3,14.8-4.9,20.1
				c-0.6,1.4-2.9,1.9-2.6-0.8L397.5,762.6 M661.8,470.6c-3.2,5.3-7.3,11-6.8,17c0,0.1,0.1,0.1,0.2,0.2c3.7,1.8,9.1,2.2,11.9,5.9
				c2.8,3.6,3.8,7.6,2.3,11.6c-0.1,0.3-0.5,0.3-0.6,0c-0.6-1.3-1.3-7.3-6.1-9.1c-1.9-0.7-4.3-1-8.2-0.3c-0.1,0-0.2,0.1-0.3,0.3
				c-0.6,14.3-1.3,28.6-2,43.8c0,0.2,0.1,0.3,0.3,0.3c12.1,0,21.4-3.3,28.8-12.6c0.7-0.9,5.7-5.9,7-7.8c13-19.2,18.5-40.4,14.5-63.2
				c-3.7-21.4-21.2-30.9-41.8-22.7c-0.1,0-0.1,0.1-0.2,0.2c-5.4,11.2-4.7,24.2-5.4,36.1c0,0.2,0.1,0.3,0.3,0.3c1.1,0,3.3-1,3.6-1.2
				c1.1-0.6,3-1.9,3.3-1.8C663.3,467.7,662.5,469.5,661.8,470.6 M274.9,504.4c0.5-3.1,0.2-5.4,1.3-8.7c0.8-2.4,2-3.2,2.8-4
				c2.5-2.2,6.2-2.8,9.2-4.2c0.1,0,0.1-0.1,0.2-0.2c1.7-6-0.1-9.1-3.7-13c-1.6-1.7-3.4-2.9-4.1-3.6c-0.4-0.4-1.2-0.8-0.6-1.9
				c0.3-0.7,2-0.4,2.9-0.1c0.9,0.3,3.9,0.6,5.9,0.8c0.2,0,0.4-0.1,0.4-0.3c-0.6-9.2-1.3-17.8-1.8-26.5c-0.5-7.9-0.5-8-10.2-11
				c0,0,0,0,0,0c-16.3-3.5-29.4,4-34.7,19.6c-3.7,11-3.8,22.1-1.3,33.3c3.5,15.7,8.6,30.8,21.8,43c7.3,7.8,16.1,11.7,27.9,12.4
				c0.2,0,0.3-0.1,0.3-0.3c-0.9-15.5-1.7-30-2.5-44.5c0-0.2-0.1-0.3-0.3-0.3c-5.1-0.4-7.8,1.5-9.7,4.7c-1.1,1.9-2,3.8-3,5
				C275.2,504.9,274.8,504.7,274.9,504.4z"/>
			<g>
				<g>
					<path class="st4" d="M403.4,325.3c0,0,30.1,4.7,44.2,5.2c7.1,0.2,15-0.7,25.1-1c23.9-0.7,57.4-1.2,60.2-0.4c0,0-29.5,2.7-41,5
						c-19.5,3.9-47.7,0.5-57-1.7C425.7,330.3,403.4,325.3,403.4,325.3z"/>
					<path class="st4" d="M434.3,304.1c0,0,35.3,9.2,54.6,5.7c0,0-5.7,4.8-20.3,3.4C454,311.8,451.2,308.8,434.3,304.1z"/>
				</g>
				<g>
					<path class="st4" d="M320.7,453.5c0,0-5.4,0.8-10.4-4.7s-7.2-4.2-7.4-2.4s6.7,7.2,12.3,7.1
						C320.7,453.5,320.7,453.5,320.7,453.5z"/>
					<path class="st4" d="M323.3,459.2c0,0-7.8-1.4-14.6,3.9s-7.5,1.7-6.7,0.4C302.7,462.1,312.5,456.2,323.3,459.2z"/>
				</g>
				<g>
					<path class="st4" d="M624.1,453c0,0,5.4,0.8,10.4-4.7s7.2-4.2,7.4-2.4s-6.7,7.2-12.3,7.1C624.1,453,624.1,453,624.1,453z"/>
					<path class="st4" d="M621.6,458.7c0,0,7.8-1.4,14.6,3.9s7.5,1.7,6.7,0.4C642.1,461.7,632.3,455.7,621.6,458.7z"/>
				</g>
			</g>
			<path class="st8" d="M285.8,424.2c-0.4,3.6-2.4,3.3-5.1,2.4c-6.3-2.2-12.8-2.9-19.4-1.4c-13.5,3.1-22.8,11.1-27.4,24.3
				c-5,14.4-4.2,28.7-0.4,43.1c4.8,18,11,31.4,26.6,42.6c7.2,5.2,16,9.9,25.1,10c2.2,0,5.6-0.1,6.7-0.2c0.2,0,0.3,0.1,0.3,0.3
				c0.1,0.8,0.5,3.2,0.7,4.3c2.7,14.2,6.4,24.9,11.2,38.3c2.6,7.1,6.6,14.6,10.2,21.3c6.2,11.6,14.2,22.7,22.4,32.7
				c5.9,7.2,12.8,14,19.8,20.5c9,8.3,20.5,16.8,29.7,24.8c-11.4-1.2-23-6.5-33.5-10.6c-18.7-7.4-35.9-17.3-51.6-30
				c-18.6-15.1-35-32.2-47.3-53.1c-5.6-9.5-11.7-18.6-15.4-29c-3.1-8.4-6.2-16.8-7.4-25.8c-1.8-12.9-4.1-25.8-6.2-38.6
				c-2.1-20-1.3-52.2,1.6-76c5.7-47.2,16-93.1,36.9-136.3c8.8-18.2,18.9-35.2,32.8-49.7c23.7-24.8,52.7-40.6,86.2-48
				c11.2-2.5,22.5-3.2,33.5,0.7c3.4,1.2,5.4,0.2,8-1.7c21.5-15.4,45.2-21,71.8-17.5c19.6,2.6,38.6,6.7,57.3,12.9
				c31.4,10.5,60.5,25.7,86,46.6c20.1,16.5,36.7,36.6,49.5,59.6c14,25.3,23.6,52.2,28.9,80.4c2.8,14.8,4.8,29.9,6.3,45
				c1.6,15.2,1.8,30.4,1.2,45.6c-1.5,38.7-8.5,76.3-27,110.9c-8.4,15.7-16.2,32.1-29.3,44.7c-17.3,16.7-33,35.2-54.4,47.4
				c-14.3,8.2-29.1,14.9-44.7,20.1c-1.4,0.4-3.2,0.2-4.7,0.3c9.1-8.2,19-15.6,27.4-24.5c27-28.4,46.1-60.5,55.2-99
				c1.1-4.6,1.5-8.1,2.8-12.9c0.2-1,0.6-2.6,0.7-3.4c0.1-0.2,0.3-0.4,0.5-0.4c0.7,0.1,2.1,0.2,2.5,0.2c22.2,1.3,37.4-13.9,47.3-31.1
				c11.7-21.2,15.2-44.2,7.3-67.6c-5.9-15.6-22.2-23.6-38.8-20.2c-2.4,0.5-5.2,0.7-8.1,1.2c-0.2,0-0.4-0.1-0.5-0.4
				c-0.1-7.5,2.8-40.7-5.6-49.3c-17.4-17.9-38.9-29.4-61.9-38.1c-22.3-8.5-45.6-13.6-68.6-19.7c-24.7-6.5-49.5-12.8-72.2-25.3
				c-14.2-7.9-27.2-17.2-36.5-30.8c-8.1-11.9-9.2-8.2-16.4-4.6c-12,6-24,12.1-35.7,18.7c-27.7,15.7-49.6,37.2-63.7,65.8
				C286.9,371.4,284.1,393.6,285.8,424.2z"/>
			<path class="st2" d="M659.1,398.4c-3.7-10.3-10.1-22.2-18.2-28.5c-21.5-17-46.1-27.9-72.4-34.9c-0.8-0.2-63.6-17.5-77.8-21.6
				c-1.3-0.4-21.1-7.2-23.9-8.8c-15.9-7.6-31.4-15.7-43.8-28.7c-4.1-4.3-7.9-8.9-11-14c-1.2-2-2.5-3.3-5-1.8
				c-27.8,15.8-56,31.2-77.7,55.6c-0.1,0.1-3.9,4.6-4.1,4.8c-20.3,21.8-34.5,52-36.3,75.8c-0.6,8.7-2.2,24.1-2.5,26.7
				c-0.2,1.3-0.6,2.6-1.5,3.8c-1.7-30.6,2.4-57.4,16.1-85c14.1-28.6,36-50,63.7-65.8c11.7-6.6,23.7-12.7,35.7-18.7
				c7.2-3.6,7.5-3.8,5.3-11.4c-4.2-14.3,0.8-27,6.1-39.7c0.4-1,1.2-2.1,3.4-2.1c-1.4,6.6-4.8,12.4-6.4,18.8
				c-3.6,14.5-0.2,27,7.9,38.9c9.3,13.7,22.3,23,36.5,30.8c22.6,12.5,47.5,18.8,72.2,25.3c23,6.1,46.3,11.2,68.6,19.7
				c23.1,8.8,43.2,16.1,58.7,35.7c9.7,12.2,13.5,23,12.9,35.9c-0.2,3.8-2.8,15.3-4.5,17.8C661.3,420.1,661,407.1,659.1,398.4z"/>
			<path class="st17" d="M411.1,600.2c0,0,16.7,7.2,32.3-5.6c14.9-12.2,22.3-8.8,28-9.1c5.7-0.3,14.9,1.7,23.4,7
				c8.5,5.3,18.5,10.4,31,9.8c0,0-27.7,13.1-55.9,13.1C442.1,615.3,413.9,602.1,411.1,600.2z"/>
			<path class="st11" d="M396.5,588.2c0,0,31,32.7,74.2,29.8s65.4-19.8,77.4-29.8c0,0-31.9,24-77.5,24.4
				C425,613,396.5,588.2,396.5,588.2z"/>
			<path class="st11" d="M425.8,602.4c0,0,8.5-0.4,23.4-11.7s30.1-8,36.3-4.8c4.3,2.2,19.8,12.7,28.6,15.3c0,0-7.2-1.4-16-5.6
				c-8.7-4.2-19.8-7.3-26.6-7.3C451.3,588.2,448.2,599.5,425.8,602.4z"/>
		</g>
	</g>
</g>
</svg>
