<?xml version="1.0" encoding="utf-8"?>
<!-- Generator: Adobe Illustrator 27.7.0, SVG Export Plug-In . SVG Version: 6.00 Build 0)  -->
<svg version="1.1" id="Layer_1" xmlns="http://www.w3.org/2000/svg" xmlns:xlink="http://www.w3.org/1999/xlink" x="0px" y="0px"
	 viewBox="0 0 140 140" enable-background="new 0 0 140 140" xml:space="preserve">
<g>
	
		<ellipse id="Ellipse_891_00000070076803374586670850000002271869205877975684_" fill="#F1F1F1" cx="70" cy="70" rx="68.57" ry="68.57"/>
	<g>
		<defs>
			<ellipse id="Ellipse_891_00000097465235208158130470000009992373081723414928_" cx="70" cy="70" rx="68.57" ry="68.57"/>
		</defs>
		<clipPath id="Ellipse_891_00000118379246941388766180000000766046874364407973_">
			<use xlink:href="#Ellipse_891_00000097465235208158130470000009992373081723414928_"  overflow="visible"/>
		</clipPath>
		<g clip-path="url(#Ellipse_891_00000118379246941388766180000000766046874364407973_)">
			<path fill="#6E4438" d="M82.087,108.948c-1.569,0.779-3.717,1.888-5.277,2.437c-1.698,0.598-3.374,1.475-5.15,1.766
				c-0.868,0.142-2.919-0.171-3.808-0.409c-3.938-1.051-6.878-3.403-10.135-5.796c-2.164-1.59-4.49-3.665-6.374-5.574
				c-3.65-3.697-6.615-7.897-8.197-12.923c-0.988-3.139-1.625-6.338-1.621-9.667c0.004-3.674-0.162-7.349-0.281-11.022
				c-0.027-0.841,0-1.779-0.272-2.696c-0.708-2.383,0.488-3.476,0.005-4.19c-0.074-0.109-0.056-0.256,0.043-0.344
				c2.108-1.869-0.611-8.565-0.286-9.812c0.316-1.212,6.434-13.437,7.797-14.543c1.427-1.157,4.951-12.616,6.251-13.341
				c0.849-0.474,19.581,5.469,29.433,6.138c5.77,0.391,11.258,8.766,11.778,9.07c0.247,0.144,2.616,4.576,4.001,7.776
				c1.282,2.964,1.242,11.04,2.365,13.876c1.064,2.689-1.374,6.509-1.41,6.769c-0.488,3.497-0.567,7.009-0.592,10.536
				c-0.025,3.527-0.501,6.97-1.453,10.371c-1.173,4.193-3.414,8.38-6.124,11.787c-3.135,3.941-5.373,6.159-9.782,8.821
				L82.087,108.948z M60.978,92.24C60.978,92.24,61.016,92.217,60.978,92.24 M66.006,83.427
				C66.006,83.427,65.994,83.405,66.006,83.427 M57.452,58.067C57.452,58.067,57.475,58.055,57.452,58.067 M84.854,58.067"/>
			<polygon fill="#FAFCFC" points="81.531,66.466 82.782,73.04 79.047,71.808 76.381,70.003 76.91,69.008 			"/>
			<path fill="#FAFCFC" d="M93.764,67.161l-4.778-0.836l0.305,1.403l0.318,2.065l-1.326,2.208l1.689-0.288l2.197-1.806
				c0,0,1.09-1.395,1.355-1.975C93.591,67.783,93.764,67.161,93.764,67.161z"/>
			<polygon fill="#FAFCFC" points="60.542,66.466 59.291,73.04 63.025,71.808 65.691,70.003 65.162,69.008 			"/>
			<polygon fill="#FAFCFC" points="48.339,67.122 53.118,66.285 52.813,67.688 52.495,69.753 53.822,71.961 52.132,71.673 
				49.935,69.867 48.509,67.752 			"/>
			<path fill="#F87360" d="M30.883,165.442c-0.004,0.294-0.055,0.653-0.071,1.467c-0.001,0.056-0.021,0.112-0.058,0.154
				c-0.183,0.211-0.404,0.407-0.411,0.503c-0.249,3.357-0.551,6.713-0.695,10.075c-0.111,2.595-0.022,5.199-0.017,7.798
				c0.001,0.391-0.123,0.904,0.073,1.152c0.64,0.809,0.356,1.513-0.001,2.238c-0.052,0.105-0.171,0.159-0.284,0.128
				c-4.87-1.351-9.578-3.103-13.888-5.791c-2.981-1.859-5.581-4.141-7.551-7.095c-0.691-1.036-0.772-1.865-0.06-3.054
				c4.517-7.547,8.366-15.43,11.399-23.695c1.149-3.13,2.253-6.277,3.346-9.427c1.366-3.938,3.607-7.154,7.351-9.19
				c3.445-1.873,6.818-3.889,10.325-5.637c3.955-1.972,8.136-3.406,12.424-4.502c0.281-0.072,0.572-0.115,0.861-0.146
				c0.063-0.007,0.132,0.037,0.252,0.097c0.077,0.039,0.127,0.116,0.133,0.202c0.014,0.2,0.042,0.43-0.015,0.635
				c-2.347,8.443,3.579,17.16,12.039,19.08c6.134,1.392,11.675,0.236,16.511-3.865c3.348-2.839,5.277-6.463,6.052-10.787
				c0.304-1.693,0.071-3.306-0.207-5.049c-0.024-0.149,0.093-0.285,0.244-0.282c0.298,0.005,0.547,0,0.78,0.059
				c4.144,1.054,8.139,2.521,12.058,4.233c4.154,1.814,7.997,4.172,11.823,6.558c3.07,1.914,5,4.747,6.226,8.129
				c1.92,5.3,3.806,10.617,5.906,15.846c2.195,5.465,4.905,10.695,7.84,15.804c0.488,0.85,0.971,1.705,1.498,2.531
				c0.394,0.617,0.346,1.169-0.015,1.779c-1.085,1.83-2.406,3.475-4.014,4.855c-4.46,3.829-9.761,6.546-15.47,8.087
				c-0.116,0.031-0.236-0.027-0.286-0.136c-0.359-0.769-0.553-1.67-0.83-2.321c-0.189-0.443-1.652-4.571-1.736-4.846
				c-0.354-1.168-0.66-2.352-1.059-3.504c-0.137-0.396-0.456-0.729-0.71-1.085c-0.036-0.051-0.051-0.113-0.042-0.175
				c0.241-1.762,0.612-3.519,0.676-5.287c0.115-3.174,0.201-6.366-0.013-9.529c-0.17-2.523-0.768-5.021-1.251-7.515
				c-0.175-0.906-0.517-1.792-0.878-2.646c-0.192-0.453-0.533-0.843-0.83-1.252c-0.061-0.084-0.166-0.122-0.265-0.093h0
				c-0.101,0.029-0.172,0.119-0.176,0.224c-0.011,0.286-0.04,0.575,0.013,0.849c0.46,2.402,0.992,4.792,1.406,7.202
				c0.542,3.15,0.57,6.305,0.288,9.507c-0.502,5.708-2.145,11.144-3.596,16.631c-1.04,3.933-1.923,7.895-2.403,11.939
				c-0.196,1.651-0.445,3.298-0.563,4.955c-0.36,5.053,0.524,9.956,1.875,14.799c1.334,4.781,3.102,9.404,5.058,13.957
				c1.103,2.568,2.265,5.11,3.393,7.667c0.464,1.051,0.448,1.3-0.654,1.868c-2.263,1.166-4.537,2.331-6.884,3.308
				c-6.314,2.628-12.908,4.345-19.611,5.617c-2.637,0.5-5.326,0.824-8.006,0.97c-3.961,0.216-7.942,0.387-11.9,0.23
				c-3.311-0.132-6.621-0.647-9.897-1.196c-5.958-1-11.755-2.654-17.436-4.703c-3.326-1.2-6.568-2.597-9.589-4.459
				c-0.169-0.104-0.323-0.232-0.542-0.4c-0.085-0.066-0.118-0.18-0.079-0.28c0.239-0.625,0.451-1.255,0.733-1.852
				c2.747-5.814,5.238-11.731,7.208-17.857c1.337-4.158,2.287-8.388,2.74-12.755c0.278-2.679-0.078-5.263-0.326-7.889
				c-0.43-4.549-1.386-8.992-2.485-13.414c-1.11-4.467-2.341-8.91-3.241-13.42c-0.648-3.247-0.912-6.552-0.608-9.921
				c0.305-3.384,0.974-6.678,1.637-9.987c0.089-0.444,0.137-0.897,0.206-1.458c0.025-0.205-0.203-0.348-0.375-0.234
				c-0.583,0.386-0.815,0.904-0.95,1.398c-0.671,2.452-1.389,4.904-1.836,7.401c-0.378,2.111-0.588,6.398-0.562,6.736
				L30.883,165.442z"/>
			<path fill="#6E4539" d="M82.21,105.301c0.218,2.316,1.389,14.318,1.373,13.535c3.259-0.149,4.43,0.152,4.514,3.878
				c0.084,3.709-1.4,7.75-3.565,10.63c-2.24,2.98-5.394,5.289-8.957,6.162c-6.089,1.492-12.722,0.337-17.1-4.314
				c-3.353-3.561-4.985-8.722-3.873-13.667c0.436-1.94,1.367-2.542,3.697-2.795c0.581-0.112,1.515-10.565,1.956-12.722
				c1.413,0.27,2.969,0.667,4.136,1.149c1.617,0.669,3.284,0.879,5,0.984c2.227,0.136,4.388-0.21,6.525-0.773
				c1.459-0.385,2.975-0.656,4.339-1.262C81.14,105.712,81.259,105.235,82.21,105.301z"/>
			<path fill="#6E4438" d="M101.236,73.505c0.074-0.638,0.148-1.276,0.343-2.09c0.36-0.566-0.036-1.162-0.364-0.979
				c0.111-1.333,0.215-2.667,0.336-3.999c0.028-0.307,0.146-0.606,0.16-0.912c0.073-1.568,0.069-1.573,1.461-2.002
				c2.365-0.729,4.888,0.515,5.853,2.785c0.805,1.893,0.698,3.867,0.538,5.806c-0.189,2.29-1.087,4.398-2.307,6.347
				c-0.213,0.341-0.571,0.591-1.063,0.916c-1.526-0.577-2.62-1.358-2.488-3.175C103.579,74.131,103.163,73.698,101.236,73.505
				 M102.946,69.658"/>
			<path fill="#603B34" d="M105.043,81.215c-0.492-0.268-1.88,0.184-1.392,0.811c-0.709,0.548-1.882,0.485-2.96,0.173
				c-0.084-2.416,0.085-6.044,0.345-8.584c1.042-0.109,2.014,0.279,2.22,1.136c0.053,0.22,0.362,0.378,0.554,0.564
				c-0.125,1.606,1.46,3.463,2.823,4.061C106.443,79.776,105.445,80.806,105.043,81.215z"/>
			<path fill="#42241B" d="M101.154,70.946c0.373-0.229,0.683-0.403,0.994-0.576c0.07,0.057,0.14,0.113,0.21,0.17
				c-0.228,0.372-0.455,0.743-0.754,1.175C101.386,71.517,101.239,71.259,101.154,70.946z"/>
			<path fill="#6E4438" d="M39.44,63.911c0.175,0.095,0.676,0.281,0.809,0.379c0.265,2.042,1.034,10.106,0.574,10.684
				c-0.354,0.445-1.566,0.746-1.722,1.611c-0.608,1.364-1.819,2.818-3.162,3.45c-1.682-1.31-3.047-2.695-3.681-4.62
				c-0.799-2.428-1.042-6.014-0.309-8.565c0.819-2.853,3.723-3.741,6.618-3.072C38.813,63.835,39.067,63.857,39.44,63.911
				 M38.875,69.812"/>
			<path fill="#603B34" d="M38.289,81.994c0.232-0.372-0.05-0.722,0.274-1.111c0.207-0.248-0.004-0.299-0.095-0.501
				c-0.109-0.242,0.599-0.451,0.273-0.517c-0.862-0.175-1.228,0.595-1.984,1.004c-0.315-0.116-0.696-0.669-0.959-0.91
				c1.343-0.743,1.498-2.2,2.132-3.482c0.26-0.516,0.463-0.932,0.683-1.34c0.328-0.607,0.853-0.873,1.661-0.894
				c0.455,1.31,0.118,2.665,0.244,3.977c0.127,1.328,0.592,2.648,0.09,4.06C39.859,82.19,39.145,82.104,38.289,81.994z"/>
			<path fill="#57362F" d="M76.273,69.81c-0.179-1.325,0.283-2.53,0.825-3.672c1.537-3.236,4.298-6.42,7.308-5.977
				c2.294,0.465,4.591,1.011,6.484,2.48c1.298,1.008,2.479,2.226,2.874,3.925c-1.349-0.329-2.599-0.741-3.841-1.178
				c-1.489-0.524-3.011-0.827-4.592-0.688c-3.394,0.3-6.339,1.466-8.356,4.398C76.789,69.369,76.509,69.575,76.273,69.81z"/>
			<path fill="#57362F" d="M48.339,67.122c-0.073-1.039,0.568-2.113,1.169-2.82c1.654-1.947,3.987-2.737,6.393-3.392
				c0.658-0.179,1.332-0.297,2.051-0.454c2.426-0.905,5.392,2.482,6.92,5.239c0.714,1.289,1.232,2.637,0.988,4.173
				c-2.494-4.198-8.58-5.831-12.791-4.392C51.541,65.998,49.874,66.62,48.339,67.122z"/>
			<path fill="#0E0B09" d="M95.563,57.103c0.629,0.815,1.572,1.332,1.756,2.506c0.021,0.137-0.125,0.24-0.245,0.171
				c-1.639-0.938-3.113-1.879-4.686-2.607c-1.636-0.757-3.353-1.386-5.092-1.861c-1.789-0.489-3.646-0.823-5.522-0.508
				c-1.692,0.285-3.373,0.633-5.211,0.986c-0.118,0.023-0.219-0.084-0.193-0.2c0.377-1.676,1.32-2.8,2.673-3.624
				c1.993-1.214,4.182-1.349,6.402-0.951c3.124,0.561,5.785,2.094,8.148,4.167C94.256,55.762,94.86,56.41,95.563,57.103
				 M81.973,54.087c1.315,0.054,2.643,0.012,3.942,0.183c2.541,0.335,4.91,1.252,7.197,2.39c0.178,0.089,0.379,0.132,0.581,0.175
				c0.127,0.027,0.236-0.098,0.188-0.219c-0.153-0.378-0.365-0.652-0.633-0.852c-0.977-0.731-1.943-1.493-2.993-2.106
				c-2.666-1.555-5.494-2.544-8.643-1.909c-1.565,0.316-2.892,1.025-3.843,2.626c-0.071,0.119,0.028,0.267,0.165,0.248
				C79.323,54.427,80.528,54.258,81.973,54.087 M94.568,57.183"/>
			<path fill="#0E0B09" d="M49.512,54.52c2.339-1.775,4.774-3.108,7.618-3.526c2.842-0.418,5.497-0.077,7.586,2.149
				c0.62,0.661,1.113,1.419,1.258,2.539c0.015,0.116-0.091,0.211-0.203,0.182c-2.394-0.624-4.679-1.281-7.047-1.136
				c-2.456,0.151-4.883,0.617-7.12,1.663c-2.146,1.004-4.138,2.151-6.283,3.288c-0.096,0.051-0.3-0.045-0.322-0.151
				c-0.106-0.497,0.349-0.869,0.678-1.212C46.898,57.044,48.173,55.823,49.512,54.52 M52.231,53.551
				c-1.239,0.888-2.629,1.599-3.584,2.85c-0.1,0.131,0.035,0.312,0.189,0.252c2.483-0.967,4.905-2.013,7.546-2.394
				c2.708-0.39,5.387-0.232,8.06,0.389c0.145,0.034,0.257-0.127,0.174-0.25c-1.468-2.164-3.604-3.003-6.09-2.856
				c-2.147,0.128-4.221,0.757-6.284,2.001C52.238,53.546,52.235,53.548,52.231,53.551z"/>
			<path fill="#42241B" d="M64.977,82.679c-1.074-1.167-1.103-1.977,0.061-3.133c1.023-1.016,1.979-2.082,2.469-3.433
				c0.446-1.231,0.865-2.521,0.973-3.812c0.162-1.937,0.317-3.923,0.042-5.736c0.478,0.56,0.854,1.831,0.876,3.303
				c0.019,1.275,0.107,2.562-0.026,3.823c-0.132,1.245-0.503,2.464-0.75,3.608c1.32,0.134,2.641,0.132,3.891,0.429
				c1.694,0.402,3.03,1.356,3.528,3.177c0.151,0.553,0.159,1.039-0.416,1.631c0.155-1.624-0.747-2.409-1.851-3.036
				c-2.312-1.312-4.671-1.299-7.032-0.153c-1.264,0.613-1.983,1.582-1.751,3.198C64.983,82.671,64.977,82.679,64.977,82.679z"/>
			<path fill="#42241B" d="M65.276,82.966c-0.093-0.031-0.17-0.085-0.265-0.225c-0.035-0.062-0.028-0.07-0.024-0.074
				c0.1,0.027,0.175,0.084,0.26,0.233C65.277,82.966,65.276,82.966,65.276,82.966z"/>
			<path fill="#42241B" d="M65.277,82.966c0.033,0.037,0.066,0.074,0.099,0.111c-0.024-0.012-0.047-0.025-0.086-0.074
				C65.276,82.966,65.277,82.966,65.277,82.966z"/>
			<path fill="#272C31" d="M81.834,54.088c-1.342,0.173-2.56,0.346-3.983,0.548c-0.101,0.014-0.178-0.094-0.127-0.182
				c0.954-1.656,2.298-2.383,3.888-2.704c3.149-0.635,5.977,0.353,8.643,1.909c1.05,0.613,2.016,1.375,2.993,2.106
				c0.276,0.207,0.494,0.492,0.647,0.888c0.041,0.105-0.053,0.214-0.164,0.191c-0.214-0.046-0.429-0.089-0.619-0.183
				c-2.287-1.138-4.656-2.055-7.197-2.39C84.616,54.099,83.288,54.142,81.834,54.088z"/>
			<path fill="#823E42" d="M63.504,94.165c-0.036-0.039-0.065-0.085-0.094-0.131c0.028,0.011,0.055,0.022,0.098,0.072
				C63.524,94.145,63.511,94.159,63.504,94.165z"/>
			<path fill="#272C31" d="M52.333,53.497c1.969-1.196,4.045-1.827,6.193-1.954c2.509-0.149,4.662,0.707,6.131,2.916
				c0.068,0.102-0.024,0.234-0.143,0.206c-2.697-0.634-5.399-0.799-8.131-0.406c-2.696,0.388-5.163,1.47-7.7,2.454
				c-0.106,0.041-0.202-0.082-0.136-0.175C49.504,55.199,50.958,54.465,52.333,53.497z"/>
			<path fill="#42241B" d="M58.408,119.148c0.013-0.273,0.039-0.642,0.104-1.131c0.416-3.29,0.767-6.27,1.125-9.3
				c0.002-0.019-0.007-0.038-0.023-0.048c-9.595-6.233-16.779-14.084-18.774-25.791c-0.004-0.026-0.029-0.044-0.055-0.041
				c-1.999,0.23-3.646-0.485-5.277-1.474c-0.002-0.001-0.004-0.003-0.006-0.004c-0.293-0.239-0.545-0.399-0.797-0.558
				c-0.004-0.002-0.007-0.005-0.01-0.008c-3.462-3.678-4.848-8.006-3.927-12.987c0.429-2.318,1.705-4.052,4.224-4.903
				c0.002-0.001,0.005-0.001,0.007-0.002c0.405-0.085,0.621-0.12,0.968-0.145c0.003,0,0.005,0,0.008,0
				c1.26,0.094,2.392,0.178,3.674,0.273c0.034,0.003,0.062-0.029,0.055-0.062c-0.163-0.796-0.338-1.527-0.447-2.268
				c-0.044-0.296,0.066-0.616,0.201-0.973c0-0.001,0.001-0.002,0.001-0.003c0.29-0.642,0.502-1.244,0.731-1.753
				c0.021-0.047,0.09-0.035,0.096,0.016c0.411,3.395,0.91,6.667,1.122,9.957c0.248,3.846,0.219,7.71,0.334,11.566
				c0.121,4.055,1.061,7.934,2.749,11.609c2.749,5.986,7.047,10.702,12.254,14.643c3.055,2.312,6.363,4.172,9.938,5.567
				c2.727,1.064,5.464,1.281,8.242,0.265c1.299-0.475,2.627-0.909,3.856-1.53c7.066-3.572,12.646-8.751,16.69-15.576
				c1.42-2.396,2.439-4.945,3.13-7.751c1.165-3.819,1.217-7.656,1.326-11.625c0.242-3.375,0.382-6.621,0.717-9.847
				c0.216-2.079,0.696-4.131,1.112-6.105c0.011-0.05,0.08-0.054,0.098-0.006c0.27,0.732,0.498,1.391,0.657,2.132
				c0.001,0.006,0.001,0.012,0.001,0.017c-0.075,0.634-0.078,1.181-0.078,1.836c0,0.035,0.035,0.06,0.069,0.049
				c1.51-0.539,2.907-0.476,4.393-0.126c0.001,0,0.002,0.001,0.003,0.001c0.215,0.065,0.882,0.289,1.064,0.39
				c1.986,1.105,2.763,3.091,3.008,5.269c0.459,4.087-0.584,7.811-3.312,11.168c-0.001,0.002-0.003,0.003-0.004,0.005
				c-0.375,0.372-0.61,0.635-0.941,0.937c-1.76,1.479-3.658,2.262-5.915,2.006c-0.026-0.003-0.05,0.014-0.056,0.04
				c-0.146,0.614-0.284,1.123-0.382,1.638c-1.005,5.252-3.224,9.946-6.488,14.163c-2.687,3.471-5.813,6.49-9.476,8.903
				c-1.061,0.699-1.41,1.439-1.302,2.661c0.179,2.018,0.236,3.894,0.344,5.919c0.031,0.585,0.115,1.31,0.108,1.898
				c-0.001,0.13,0.025,0.626,0.04,1.091c0.006,0.815-0.002,1.311-0.002,1.93c0,0.165-0.143,0.072-0.16,0.017
				c-0.73-2.27-0.671-4.612-0.972-7.038c-0.138-1.588-0.287-3.051-0.452-4.66c-0.004-0.034-0.04-0.055-0.072-0.042
				c-0.54,0.23-0.892,0.35-1.214,0.528c-2.171,1.203-4.462,2.116-6.889,2.607c-1.136,0.23-2.343,0.335-3.492,0.226
				c-3.09-0.292-5.906-1.493-8.638-2.904c-0.27-0.14-0.569-0.223-0.976-0.374c-0.031-0.011-0.065,0.008-0.07,0.041
				c-0.26,1.857-0.5,3.576-0.796,5.399c-0.238,1.215-0.361,2.338-0.619,3.429c-0.221,0.936-0.392,2.474-0.81,3.353
				c-0.127,0.332-0.479,0.319-0.427-0.132L58.408,119.148 M102.542,70.385c-0.542,0.891-1.221,1.829-1.139,2.831
				c0.001,0.014,0.015,0.024,0.027,0.031c0.612,0.306,1.515,0.369,1.992,0.978c0.475,0.608,0.631,1.274,0.39,1.941
				c-0.015,0.043-0.075,0.044-0.094,0.002c-0.099-0.22-0.215-1.216-1.024-1.518c-0.321-0.12-0.713-0.171-1.37-0.049
				c-0.023,0.004-0.041,0.024-0.042,0.048c-0.108,2.381-0.218,4.784-0.333,7.322c-0.001,0.029,0.023,0.054,0.052,0.054
				c2.013-0.007,3.575-0.559,4.812-2.112c0.117-0.146,0.952-0.991,1.168-1.309c2.177-3.2,3.084-6.741,2.42-10.552
				c-0.621-3.569-3.537-5.152-6.981-3.787c-0.013,0.005-0.023,0.015-0.029,0.027c-0.9,1.875-0.78,4.04-0.907,6.029
				c-0.002,0.03,0.023,0.055,0.052,0.055c0.177,0,0.545-0.166,0.603-0.196c0.186-0.099,0.493-0.312,0.555-0.296
				C102.794,69.908,102.667,70.21,102.542,70.385 M37.934,76.037c0.09-0.511,0.03-0.908,0.221-1.458
				c0.137-0.396,0.329-0.542,0.466-0.662c0.425-0.372,1.027-0.468,1.538-0.7c0.014-0.006,0.024-0.019,0.029-0.033
				c0.284-0.996-0.025-1.525-0.623-2.17c-0.262-0.282-0.562-0.48-0.689-0.593c-0.074-0.066-0.197-0.128-0.109-0.318
				c0.052-0.111,0.339-0.061,0.485-0.018c0.157,0.046,0.653,0.096,0.981,0.139c0.032,0.004,0.062-0.023,0.059-0.055
				c-0.105-1.529-0.214-2.974-0.3-4.419c-0.079-1.315-0.088-1.341-1.711-1.837c-0.002-0.001-0.004-0.001-0.005-0.001
				c-2.718-0.589-4.908,0.667-5.794,3.278c-0.623,1.837-0.64,3.691-0.22,5.553c0.593,2.628,1.431,5.145,3.638,7.188
				c1.213,1.294,2.695,1.951,4.655,2.065c0.031,0.002,0.057-0.024,0.055-0.055c-0.147-2.588-0.285-5.007-0.423-7.428
				c-0.001-0.026-0.023-0.047-0.048-0.049c-0.847-0.06-1.3,0.253-1.613,0.787c-0.181,0.31-0.331,0.638-0.501,0.828
				C37.988,76.118,37.925,76.088,37.934,76.037z"/>
			<g>
				<path fill="#A8874A" d="M102.902,79.694c0.118,0.103,1.272,0.126,2.544,1.751c0.264,0.338,0.425,0.587,0.589,0.984
					c1.016,2.457,1.492,4.972,1.331,7.6c-0.112,1.818-0.322,3.621-1.331,5.208c-0.821,1.291-2.226,2.2-3.525,2.241
					c-0.919,0-2.864-0.971-3.555-2.447c-1.017-2.378-0.482-4.089-0.191-4.687c0.24,0.791,0.291,1.576,0.392,2.302
					c0.25,1.806,1.35,2.547,2.817,3.483c0.436,0.278,0.766,0.221,1.204-0.039c1.789-1.064,2.593-2.312,3.036-4.228
					c0.541-2.338,0.344-4.674-0.171-6.985C105.765,83.645,103.238,80.915,102.902,79.694z"/>
				<path fill="#DEB565" d="M105.066,81.824c0.484,0.979,0.941,2.034,1.167,3.045c0.515,2.311,0.519,4.656-0.022,6.994
					c-0.443,1.916-1.246,3.31-3.036,4.374c-0.438,0.26-0.768,0.317-1.204,0.039c-1.466-0.935-2.697-1.787-2.947-3.594
					c-0.097-0.7-0.139-1.036-0.252-2.171c-0.006-0.063-0.003-0.198,0.011-0.259c0.492-2.259,1.391-5.24,1.952-7.341
					c0.009-0.058,0.015-0.084,0.123-0.072c0.164,0.018,0.292,0.033,0.477,0.038c0.136,0.004,0.028,0.4-0.017,0.543
					c-0.693,2.197-1.4,4.687-1.315,6.906c0.071,1.849,0.885,3.039,2.32,3.948c0.125,0.079,0.279,0.098,0.417,0.046
					c0.097-0.036,0.179-0.069,0.24-0.126c0.213-0.198,0.403-0.364,0.566-0.604c2.341-3.45,2.209-7.063,0.672-10.755
					c-0.08-0.192-1.737-2.045-2.113-2.473c-0.178-0.203-0.185-0.583,0.067-0.679C103.245,79.277,104.656,80.995,105.066,81.824z"/>
				<path fill="#A8874A" d="M102.166,82.863c-0.79,2.267-1.486,4.998-1.204,7.425c0.116,1.003,0.31,2.016,1.31,2.642
					c0.098,0.061,0.225,0.056,0.312-0.02c0.94-0.82,1.357-1.906,1.547-3.039c0.126-0.754,0.3-2.355,0.203-3.793
					c-0.061-0.905-0.257-1.74-0.393-2.305c-0.359-1.486-1.603-2.855-1.601-3.145c0.189,0.073,1.342,1.148,1.878,2.207
					c1.538,3.692,1.67,7.305-0.672,10.755c-0.163,0.24-0.453,0.602-0.688,0.716c-0.208,0.101-0.457,0.079-0.651-0.048
					c-1.377-0.903-2.135-2.123-2.205-3.932c-0.093-2.407,0.47-5.125,1.332-7.449C101.616,82.901,101.796,82.873,102.166,82.863z"/>
			</g>
			<g>
				<path fill="#A8874A" d="M35.583,84.879c-0.515,2.311-0.711,4.647-0.171,6.985c0.443,1.916,1.246,3.164,3.036,4.228
					c0.438,0.26,0.768,0.317,1.204,0.039c1.466-0.935,2.567-1.676,2.817-3.483c0.101-0.727-0.089-2.558,0.151-3.349
					c0.291,0.597,1.158,3.192,0.049,5.733c-0.691,1.475-2.635,2.447-3.555,2.447c-1.299-0.041-2.704-0.951-3.525-2.241
					c-1.009-1.587-1.22-3.39-1.331-5.208c-0.161-2.628,0.315-5.143,1.331-7.6c0.164-0.396,0.325-0.646,0.589-0.984
					c1.272-1.625,2.425-1.649,2.544-1.751C38.385,80.915,35.857,83.645,35.583,84.879z"/>
				<path fill="#DEB565" d="M39.449,79.684c0.253,0.096,0.246,0.476,0.067,0.679c-0.376,0.428-2.032,2.281-2.113,2.473
					c-1.538,3.692-1.67,7.305,0.672,10.755c0.163,0.24,0.352,0.406,0.566,0.604c0.061,0.056,0.143,0.09,0.24,0.126
					c0.138,0.052,0.293,0.033,0.417-0.046c1.436-0.908,2.249-2.098,2.32-3.948c0.086-2.218-0.622-4.709-1.315-6.906
					c-0.045-0.143-0.153-0.54-0.017-0.543c0.185-0.005,0.313-0.02,0.477-0.038c0.108-0.012,0.114,0.014,0.123,0.072
					c0.561,2.101,1.461,5.082,1.952,7.341c0.013,0.062,0.017,0.197,0.011,0.259c-0.114,1.135-0.155,1.471-0.252,2.171
					c-0.25,1.806-1.48,2.659-2.946,3.594c-0.436,0.278-0.766,0.221-1.204-0.039c-1.789-1.064-2.593-2.458-3.036-4.374
					c-0.541-2.338-0.537-4.683-0.022-6.994c0.225-1.011,0.683-2.066,1.167-3.045C36.966,80.995,38.378,79.277,39.449,79.684z"/>
				<path fill="#A8874A" d="M40.287,82.877c0.862,2.324,1.424,5.042,1.332,7.449c-0.07,1.809-0.828,3.029-2.205,3.932
					c-0.194,0.127-0.443,0.149-0.651,0.048c-0.235-0.114-0.768-0.491-0.931-0.731c-2.341-3.45-1.966-7.049-0.428-10.74
					c0.535-1.059,1.689-2.134,1.878-2.207c0.002,0.29-1.242,1.659-1.601,3.145c-0.136,0.565-0.332,1.4-0.393,2.305
					c-0.097,1.439,0.077,3.039,0.203,3.793c0.19,1.133,0.607,2.219,1.547,3.039c0.087,0.076,0.215,0.081,0.312,0.02
					c1-0.626,1.194-1.639,1.31-2.642c0.282-2.427-0.415-5.158-1.204-7.425C39.827,82.873,40.007,82.901,40.287,82.877z"/>
			</g>
			<g>
				<g>
					<path d="M76.163,70.109c0,0,3.736,4.113,9.434,3.434c5.698-0.679,7.887-4.943,8.075-6.075c0,0-1.434,2.943-4.981,4.339
						c-3.547,1.396-7.094,1.774-12.075-1.887L76.163,70.109z"/>
					<ellipse cx="85.057" cy="68.942" rx="4.92" ry="4.426"/>
					<ellipse fill="#22211E" cx="84.991" cy="68.985" rx="4.306" ry="3.873"/>
					<path fill="#FAFCFC" d="M81.96,67.768c0.045-0.301,0.234-0.796,0.97-0.943c1.082-0.216,0.981,0.967,0.678,1.53
						s-0.75,0.88-1.27,0.462C81.819,68.398,81.938,67.909,81.96,67.768z"/>
					<path d="M97.521,66.374c0,0-1.887,1.66-6.679,0.679c-4.792-0.981-6.943-1.17-10.83,0.641c-3.887,1.811-3.396,2.226-3.396,2.226
						l-0.453,0.189c0,0,0.995-4.398,7.036-5.693c5.031-1.078,8.017,1.578,10.278,1.974C95.256,66.703,97.521,66.374,97.521,66.374z"
						/>
				</g>
				<g>
					<path d="M65.948,70.109c0,0-3.736,4.113-9.434,3.434c-5.698-0.679-7.887-4.943-8.075-6.075c0,0,1.434,2.943,4.981,4.339
						c3.547,1.396,7.094,1.774,12.075-1.887L65.948,70.109z"/>
					<ellipse cx="57.053" cy="68.942" rx="4.92" ry="4.426"/>
					<ellipse fill="#22211E" cx="57.119" cy="68.985" rx="4.306" ry="3.873"/>
					<path fill="#FAFCFC" d="M53.979,67.768c0.045-0.301,0.234-0.796,0.97-0.943c1.082-0.216,0.981,0.967,0.678,1.53
						s-0.75,0.88-1.27,0.462C53.838,68.398,53.957,67.909,53.979,67.768z"/>
					<path d="M44.59,66.374c0,0,1.887,1.66,6.679,0.679s6.943-1.17,10.83,0.641c3.887,1.811,3.396,2.226,3.396,2.226l0.453,0.189
						c0,0-1.006-4.053-7.019-5.472c-4.977-1.174-7.351,1.052-10.295,1.753C46.876,66.81,44.59,66.374,44.59,66.374z"/>
				</g>
				<g>
					<g>
						<path fill="#4A2D26" d="M76.241,70.109c0,0-0.527-4.106,2.481-7.389c2.655-2.899,3.698-2.537,6.274-4.726
							c0,0-2.045,2.146-5.048,4.79C76.867,65.497,76.241,70.109,76.241,70.109z"/>
						<path fill="#4A2D26" d="M93.75,66.391c0,0-0.419-3.093-4.696-5.099c-3.746-1.757-6.509-1.409-6.509-1.409l-1.15,0.902
							c0,0,3.482-0.795,7.713,1.266C93.339,64.113,93.75,66.391,93.75,66.391z"/>
					</g>
				</g>
				<path fill="#4A2D26" d="M65.983,70.109c0,0,0.505-4.086-2.481-7.389c-2.107-2.331-3.124-1.687-6.274-4.726
					c0,0,0.268,0.877,1.3,1.8c1.032,0.923,2.991,2.095,4.103,3.43C64.77,65.791,65.983,70.109,65.983,70.109z"/>
				<path fill="#4A2D26" d="M48.339,66.466c0,0,0.813-3.479,5.133-5.391c3.238-1.434,6.06-1.046,6.06-1.046l0.846,0.55
					c0,0-3.44-0.328-7.16,1.299C48.907,63.765,48.339,66.466,48.339,66.466z"/>
			</g>
			<path fill="#541422" d="M60.862,91.947c0,0,2.76,1.632,5.354-0.482c2.471-2.014,3.693-1.599,4.636-1.652
				c0.944-0.054,2.473,0.287,3.883,1.158c1.41,0.871,2.901,2.129,5.132,1.326c0,0-1.063,1.108-2.009,2.485
				c-0.665,0.969-0.982,2.018-2.2,2.919c-1.405,1.039-3.886,1.169-4.626,1.149c-1.016-0.027-3.969,0.228-5.874-2.135
				C64.358,95.722,61.779,92.567,60.862,91.947z"/>
			<path fill="#321A1A" d="M60.515,91.703c0,0,1.341,0.793,3.261,3.541c2.365,3.385,5.358,3.894,7.212,3.902
				c1.877,0.008,4.178-0.278,5.99-2.695c1.813-2.417,1.953-3.189,2.786-4.2c0,0-2.501,3.451-4.002,4.443
				c-1.429,0.944-3.135,1.455-4.774,1.416c-2.597-0.062-4.573-0.605-6.487-2.808C62.507,93.006,60.515,91.703,60.515,91.703z"/>
			<path fill="#541422" d="M61.247,92.032c0,0,2.376,1.254,4.97-0.86c2.471-2.014,3.693-1.452,4.636-1.506
				c0.944-0.054,2.473,0.287,3.883,1.158c1.41,0.871,3.064,1.726,5.132,1.619c0,0-4.591,2.176-9.264,2.165
				C66,94.596,61.701,92.339,61.247,92.032z"/>
			<path fill="#321A1A" d="M58.929,90.474c0,0,4.63,4.547,11.791,4.427c7.138-0.12,10.474-3.16,12.462-4.83
				c0,0-4.93,3.861-12.478,3.928S58.929,90.474,58.929,90.474z"/>
			<path fill="#321A1A" d="M63.289,92.443c0,0,1.387-0.185,3.859-2.056c2.471-1.87,5.002-1.205,6.027-0.683
				c0.706,0.359,3.282,2.109,4.742,2.538c0,0-1.198-0.231-2.646-0.928c-1.442-0.695-3.28-1.209-4.407-1.209
				C67.514,90.105,66.996,91.975,63.289,92.443z"/>
			<path fill="#B3443E" d="M114.484,240.144c-0.607,0.333-1.146,0.589-1.855,0.945c-2.196,1.085-4.182,2.166-6.257,3.037
				c-9.695,4.071-19.892,5.896-30.329,6.43c-8.054,0.412-16.062-0.177-23.991-1.709c-7.256-1.401-14.271-3.513-20.826-6.998
				c-0.82-0.436-1.645-0.862-2.467-1.292c-0.415-0.274-0.831-0.549-1.34-0.833c-0.676-0.597-0.362-1.162-0.075-1.751
				c2.49-5.113,4.706-10.342,6.613-15.7c1.579-4.437,2.817-8.965,3.546-13.624c0.551-3.522,0.252-7.023-0.325-10.508
				c-0.311-1.881-0.687-3.751-1.051-5.856c-0.224-1.342-0.224-1.342-1.592-1.428c-1.729-0.226-3.329-0.393-4.919-0.631
				c-6.716-1.004-12.778-3.488-17.979-8.077c-0.503-0.522-0.967-0.956-1.431-1.39c-1.318-1.765-2.631-3.534-3.956-5.293
				c-0.476-0.632-0.411-1.206-0.04-1.891c5.68-10.501,10.313-21.474,14.644-32.583c0.374-0.958,0.668-1.948,1.055-2.9
				c1.256-3.087,3.246-5.631,6.072-7.376c3.668-2.266,7.358-4.526,11.196-6.479c6.016-3.061,12.529-5.084,19.324-6.14
				c-0.047,0.426-0.071,0.675-0.094,1.051c-2.331,0.253-2.657,0.454-3.094,2.394c-1.112,4.945,0.271,9.324,3.623,12.885
				c4.379,4.65,9.965,5.746,16.054,4.254c3.563-0.873,6.574-2.74,8.814-5.72c2.165-2.88,3.666-6.009,3.582-9.718
				c-0.084-3.726-0.484-3.838-3.808-4.215c-0.026-0.455-0.031-0.787-0.035-1.119c6.445,0.986,12.559,3.038,18.488,5.704
				c4.357,1.959,8.396,4.463,12.359,7.1c3.036,2.02,5.176,4.781,6.382,8.222c2.111,6.024,4.599,11.894,7.195,17.718
				c1.797,4.03,3.673,8.025,5.564,12.012c0.777,1.638,1.649,3.234,2.548,4.809c0.446,0.781,0.473,1.452-0.068,2.161
				c-1.307,1.713-2.608,3.43-4.051,5.262c-0.518,0.436-0.895,0.756-1.362,1.115c-3.443,3.112-7.226,5.417-11.605,6.763
				c-3.702,1.138-7.481,1.77-11.434,2.094c-1.225,0.204-1.225,0.204-1.305,1.714c-0.681,3.608-1.411,7.206-1.545,10.894
				c-0.151,4.165,0.616,8.199,1.7,12.183c1.938,7.122,4.733,13.92,7.859,20.591c0.291,0.622,0.58,1.245,0.854,1.874
				C115.575,239.167,115.558,239.21,114.484,240.144 M29.841,189.068c1.898,0.56,3.832,0.876,5.958,0.955
				c-0.661-2.296-1.238-4.463-1.911-6.6c-1.664-5.278-2.84-10.644-3.078-16.426c-0.002-0.315,0.039-1.368,0.008-1.789
				c0.195-2.192,0.238-4.411,0.624-6.568c0.447-2.497,1.166-4.949,1.836-7.401c0.164-0.601,0.472-1.24,1.385-1.629
				c-0.107,0.789-0.153,1.363-0.266,1.924c-0.663,3.31-1.333,6.603-1.637,9.987c-0.304,3.369-0.04,6.674,0.608,9.921
				c0.9,4.509,2.131,8.953,3.241,13.42c1.099,4.422,2.056,8.865,2.485,13.414c0.248,2.626,0.604,5.209,0.326,7.889
				c-0.453,4.367-1.403,8.597-2.74,12.755c-1.97,6.126-4.461,12.044-7.208,17.857c-0.308,0.651-0.532,1.341-0.799,2.022
				c0.3,0.224,0.483,0.384,0.687,0.51c3.022,1.861,6.263,3.259,9.589,4.459c5.68,2.049,11.478,3.703,17.436,4.703
				c3.276,0.55,6.586,1.065,9.897,1.196c3.958,0.157,7.939-0.013,11.9-0.23c2.68-0.146,5.369-0.47,8.006-0.97
				c6.703-1.271,13.297-2.988,19.611-5.617c2.348-0.977,4.621-2.142,6.884-3.308c1.102-0.568,1.117-0.817,0.654-1.868
				c-1.128-2.557-2.291-5.099-3.393-7.667c-1.956-4.554-3.724-9.176-5.058-13.957c-1.351-4.843-2.234-9.746-1.875-14.799
				c0.118-1.657,0.367-3.304,0.563-4.955c0.48-4.044,1.363-8.005,2.403-11.939c1.451-5.487,3.094-10.923,3.596-16.631
				c0.282-3.202,0.254-6.357-0.288-9.507c-0.415-2.41-0.947-4.799-1.406-7.202c-0.063-0.33-0.009-0.682-0.009-1.024l0.337-0.097
				c0.316,0.461,0.716,0.888,0.929,1.392c0.361,0.855,0.703,1.74,0.878,2.646c0.483,2.495,1.08,4.993,1.251,7.515
				c0.214,3.163,0.128,6.355,0.013,9.529c-0.065,1.8-0.449,3.589-0.822,5.545c-1.184,4.223-2.371,8.445-3.542,12.671
				c-0.07,0.252-0.009,0.541-0.009,0.953c1.71-0.302,3.294-0.521,4.847-0.876c1.125-0.257,2.209-0.695,3.542-1.083
				c5.668-1.637,10.931-4.073,15.442-7.945c1.608-1.38,2.929-3.025,4.014-4.855c0.361-0.61,0.409-1.162,0.015-1.779
				c-0.527-0.826-1.01-1.681-1.498-2.531c-2.934-5.109-5.645-10.339-7.84-15.804c-2.1-5.229-3.986-10.546-5.906-15.846
				c-1.225-3.382-3.156-6.215-6.226-8.129c-3.826-2.386-7.669-4.744-11.823-6.558c-3.919-1.711-7.914-3.179-12.058-4.233
				c-0.202-0.051-0.417-0.054-0.666-0.058c-0.211-0.003-0.374,0.184-0.341,0.392c0.27,1.7,0.486,3.28,0.189,4.936
				c-0.776,4.324-2.704,7.948-6.052,10.787c-4.837,4.101-10.378,5.257-16.511,3.865c-8.461-1.92-14.387-10.637-12.039-19.08
				c0.043-0.155,0.037-0.323,0.026-0.482c-0.013-0.191-0.129-0.364-0.306-0.435c-0.033-0.013-0.062-0.02-0.09-0.017
				c-0.289,0.032-0.579,0.074-0.861,0.146c-4.288,1.096-8.469,2.529-12.424,4.502c-3.507,1.749-6.879,3.764-10.325,5.637
				c-3.744,2.036-5.985,5.252-7.351,9.19c-1.093,3.15-2.197,6.297-3.346,9.427c-3.034,8.265-6.882,16.148-11.399,23.695
				c-0.712,1.189-0.631,2.018,0.06,3.054c1.97,2.954,4.569,5.236,7.551,7.095C19.9,185.889,24.675,187.652,29.841,189.068z"/>
			<path fill="#272C31" d="M36.57,38.742l1.406-3.196l4.116-1.125l-0.307-3.63l2.147-1.917l3.4-0.383l0.281-2.096l1.446-0.639
				l0.395-3.809l1.994-1.38l2.608,0.128l2.735,2.326l1.687-2.71l2.454-0.358l1.866,1.125l0.511-3.4l2.556-1.585l2.674-0.679
				l4.636,2.74l0.919,1.804l3.643-2.334l3.077,0.884l1.98,2.688l-0.34,1.594l3.67-2.063l2.357-0.241l2.786,1.688l0.429,1.902
				l-1.203,2.205l1.684-0.498l1.933,0.966l-0.21,2.132l1.977-0.687l2.902-0.111l2.487,3.046l0.632,1.859l-0.417,2.117l3.206,1.506
				l0.939,3.525l-1.118,2.931l2.952,2.266l0.771,4.315l-0.771,1.908l-2.737,0.55l2.071,4.336c0,0-0.646,1.181-2.158,2.821
				c-0.578,0.626,1.652,2.838,0.809,3.558c0,0-2.602,0.135-4.629,0.878c-1.998,0.732-2.581-0.466-2.581-1.184
				s0.452-3.484,0.452-3.484l-0.665-1.489l-0.053-1.915l1.463-2.5l-1.968-1.037l-0.984-1.596l0.638-2.819l0.23-1.17l-3.155-0.106
				l-2.606-1.383l-0.213-2.659l0.532-1.489l-3.005-0.399l-2.067-1.117l-1.043-3.936l-2.369,0.319l-2.42-0.957l-1.41-2.659
				l-1.622,1.037l-2.048,0.239l-1.755-1.277l-0.452-2.021l-2.128,3.298l-3.324,0.718l-2.526-0.984l-2.074-1.888l-0.771,2.42
				l-1.835,2.181l-1.649,0.452l-3.537-0.319l0.266,2.021l-0.718,2.34l-2.234,1.915l-3.617-0.638l-0.618,3.75l-1.696,1.729
				l-3.537,0.771l1.273,2.314l-0.396,2.314l-2.394,2.394l1.489,2.336l-0.08,1.76l-1.649,1.915c0,0,2.36,2.351-0.017,3.689
				c-1.456,0.82-4.366-0.215-5.046-2.628c-0.43-1.525-2.271-3.367-2.358-4.876c-0.035-0.602,0.153-2.152,3.039-3.699
				c0,0-3.569-3.533-3.413-4.282c0.155-0.748-1.181-3.156,0.588-4.448c1.388-1.014,2.821-1.686,3.681-2.787L36.57,38.742z"/>
			<path fill="#0E0B09" d="M98.627,63.252c0.117,0.362,0.37,0.472,0.304,0.496c-0.066,0.024-0.28-0.022-0.597-0.388
				c-0.244-0.282-0.223-0.801-0.248-1.08c-0.025-0.277-0.036-0.759,0.064-1.084c0.105-0.342,0.282-0.686,0.33-1.04
				c0.048-0.353,0.067-0.825-0.123-1.076c-1.299-1.715-1.245-3.391-0.285-5.081c0.073-0.128,0.168-0.242,0.241-0.37
				c0.035-0.062,0.06-0.13,0.102-0.24c0.029-0.076-0.005-0.162-0.078-0.199c-2.458-1.247-2.983-3.225-1.819-5.834
				c0.047-0.104-0.026-0.223-0.141-0.227c-0.621-0.021-1.094,0.003-1.536-0.101c-0.798-0.188-1.646-0.357-2.34-0.762
				c-1.409-0.823-1.882-2.238-1.453-3.816c0.086-0.318,0.196-0.629,0.316-0.995c0.031-0.093-0.03-0.193-0.127-0.207
				c-1.429-0.207-2.864,0.098-4.067-0.971c-1.196-1.064-1.216-2.511-1.611-3.923c-0.022-0.078-0.1-0.127-0.18-0.113
				c-1.255,0.205-2.462,0.262-3.607-0.344c-1.142-0.605-1.832-1.551-2.205-2.872c-0.029-0.101-0.143-0.149-0.234-0.096
				c-2.162,1.254-4.099,1.407-5.599-1.058c-0.06-0.099-0.206-0.1-0.268-0.002c-1.101,1.754-2.665,2.582-4.532,2.671
				c-1.81,0.086-3.412-0.589-4.754-2.024c-0.078-0.083-0.215-0.063-0.262,0.041c-0.659,1.466-1.228,2.843-2.619,3.62
				c-1.333,0.745-2.739,0.906-4.346,0.503c-0.101-0.025-0.199,0.05-0.199,0.154c-0.003,1.902-0.326,3.539-1.785,4.722
				c-1.395,1.131-2.932,1.467-4.762,0.906c-0.102-0.031-0.205,0.043-0.207,0.15c-0.064,3.3-1.669,5.207-5.085,5.488
				c-0.106,0.009-0.175,0.115-0.138,0.214c0.471,1.256,0.959,2.358,0.632,3.613c-0.332,1.274-1.269,2.059-2.151,2.856
				c-0.053,0.048-0.068,0.126-0.037,0.191c1.562,3.319,1.511,3.805-0.673,5.736c-0.059,0.052-0.072,0.141-0.028,0.207
				c0.334,0.507,0.648,1.029,0.656,1.639c0.002,0.187-0.258,0.228-0.31,0.049c-0.276-0.941-1.081-1.556-2.098-2.137
				c-0.118-0.068-0.102-0.243,0.026-0.288c0.254-0.09,0.427-0.156,0.606-0.182c1.731-0.259,2.489-1.676,1.64-3.208
				c-0.299-0.54-0.796-0.973-1.214-1.444c-0.199-0.225-0.416-0.435-0.714-0.735c-0.082-0.083-0.05-0.223,0.059-0.263
				c0.394-0.144,0.648-0.239,0.903-0.329c2.247-0.798,2.998-2.686,1.9-4.829c-0.199-0.388-0.503-0.721-0.73-1.097
				c-0.118-0.196-0.218-0.287-0.37-0.632c-0.078-0.177,0.053-0.345,0.163-0.35c0.67-0.035,1.217-0.077,1.764-0.08
				c3.074-0.016,4.647-1.959,4.051-5.004c-0.101-0.518-0.172-1.041-0.246-1.539c-0.008-0.056-0.05-0.307,0.215-0.413
				c0.362-0.145,0.565,0.12,0.783,0.376c1.693,1.994,4.678,1.491,5.658-0.969c0.43-1.081,0.453-2.189,0.048-3.304
				c-0.052-0.143-0.069-0.299-0.077-0.458c-0.005-0.105,0.017-0.46,0.454-0.471c0.202-0.005,0.402,0.019,0.595,0.064
				c0.57,0.132,1.113,0.401,1.687,0.49c2.85,0.44,4.265-1.319,4.921-3.387c0.112-0.352,0.197-0.712,0.275-1.068
				c0.129-0.59,0.907-0.731,1.24-0.227v0c1.359,2.029,3.649,2.831,5.912,2.095c1.309-0.426,2.177-1.268,2.632-2.564
				c0.124-0.354,0.271-0.7,0.418-1.046c0.17-0.372,0.589-0.229,0.664,0.045c0.102,0.373,0.204,0.746,0.318,1.116
				c0.737,2.379,2.602,2.916,4.535,1.319c0.273-0.225,0.564-0.427,0.972-0.724c0.095-0.069,0.231-0.015,0.251,0.101
				c0.284,1.639,0.558,3.138,2.167,3.639c1.246,0.388,2.527,0.229,3.885-0.342c0.274-0.115,0.579,0.084,0.589,0.381
				c0.017,0.53,0.032,0.946,0.036,1.361c0.025,2.654,1.278,3.859,3.947,3.732c0.499-0.024,0.996-0.098,1.498-0.174
				c0.518-0.079,0.891,0.493,0.603,0.93c-0.113,0.172-0.237,0.332-0.307,0.511c-0.278,0.713-0.668,1.469-0.645,2.195
				c0.043,1.349,1.193,2.294,2.701,2.423c0.731,0.063,1.472,0.01,2.208,0.021c0.37,0.006,0.74,0.029,1.286,0.056
				c0.12,0.006,0.192,0.137,0.133,0.241c-0.268,0.471-0.488,0.809-0.631,1.177c-0.279,0.722-0.669,1.462-0.697,2.206
				c-0.046,1.246,0.921,2.194,2.294,2.488c0.462,0.099,0.97,0.067,1.106,0.757c0.01,0.05-0.008,0.102-0.045,0.136
				c-0.219,0.205-0.476,0.439-0.722,0.684c-0.88,0.876-1.334,1.917-1.243,3.179c0.09,1.253,0.463,1.557,1.673,1.339
				c0.211-0.038,0.426-0.056,0.674-0.082c0.108-0.011,0.196,0.087,0.174,0.193c-0.121,0.596-0.642,0.73-0.992,1.028
				C98.823,60.376,98.173,61.852,98.627,63.252z"/>
			<path fill="#4A2D26" d="M78.299,74.194c-0.084-0.022-0.125,0.097-0.046,0.132c1.295,0.567,3.61,3.244,8.349,2.46
				c3.479-0.576,5.36-1.836,6.455-3.027c0.065-0.07-0.018-0.178-0.102-0.133c-1.183,0.623-4.718,2.239-7.034,2.466
				C81.51,76.523,79.922,74.62,78.299,74.194z"/>
			<path fill="#4A2D26" d="M63.708,74.201c0.08-0.036,0.132,0.095,0.055,0.136c-1.043,0.563-3.518,3.426-8.41,2.591
				c-3.669-0.626-5.851-2.637-6.46-3.311c-0.045-0.05,0.01-0.127,0.072-0.1c0.545,0.238,1.852,1.017,3.558,1.651
				C57.623,77.064,59.522,76.066,63.708,74.201z"/>
			<path fill="#3F2119" d="M79.356,85.662c0.076,0.429,0.482,2.096,2.354,3.383c2.167,1.49,3.378,1.998,4.397,3.487
				s1.155,2.201,1.02,3.657c0,0-0.071,0.429,0.176,0.537c0.247,0.109,0.484-0.395,0.484-0.79c0-0.344,0.017-1.32-0.166-2.045
				c-0.186-0.738-0.78-1.601-1.645-2.482c-0.693-0.706-1.68-1.362-2.773-1.921c-2.408-1.232-3.09-2.316-3.818-3.835
				C79.371,85.621,79.344,85.594,79.356,85.662z"/>
			<path fill="#3F2119" d="M62.665,85.662c-0.076,0.429-0.482,2.096-2.354,3.383c-2.167,1.49-3.378,1.998-4.397,3.487
				s-1.155,2.201-1.02,3.657c0,0,0.071,0.429-0.176,0.537c-0.247,0.109-0.484-0.395-0.484-0.79c0-0.344-0.017-1.32,0.166-2.045
				c0.186-0.738,0.78-1.601,1.645-2.482c0.693-0.706,1.68-1.362,2.773-1.921c2.408-1.232,3.09-2.316,3.818-3.835
				C62.65,85.621,62.677,85.594,62.665,85.662z"/>
			<path fill="#070604" d="M36.711,62.827c0,0-0.635-1.157-0.144-2.022c0,0-2.944-0.837-2.713-3.954
				c0.231-3.117,3.319-3.434,3.319-3.434s-4.531-2.944-4.012-6.407c0.519-3.463,3.261-4.675,4.589-5.195
				c0,0-2.569-2.309-1.385-5.022c1.183-2.713,3.277-2.718,5.368-2.626c0,0-1.356-2.597,0.491-4.849
				c1.847-2.251,4.704-1.356,4.704-1.356s-0.988-2.253,1.904-2.458c0,0-1.125-3.92,1.732-5.305s5.455,0.981,6.032,2.049
				c0,0,0.433-1.847,2.569-2.597c2.136-0.75,3.232,0.722,3.232,0.722s-0.303-4.964,4.82-5.339s6.941,3.665,6.941,4.445
				c0,0,2.395-3.665,6.234-1.876c3.838,1.789,2.597,4.733,2.597,4.733s3.146-4.069,7.013-1.616s0.75,5.31,0.75,5.31
				s1.703-1.169,3.002-0.072c1.299,1.097,0.866,2.107,0.693,2.482c0,0,2.395-2.395,6.032,0.433s1.991,5.541,1.385,6.061
				c0,0,3.406,0.144,4.243,3.521c0.837,3.377-1.212,4.56-1.212,4.56s4.473,2.078,3.983,6.147c-0.491,4.069-3.608,3.261-3.608,3.261
				s2.569,3.492,1.732,5.426c-0.837,1.934-2.136,1.761-2.136,1.761s1.905,2.049,0.952,3.348l-0.877-0.13
				c0,0,1.196-0.982-0.705-2.669c-1.901-1.687-0.542-1.749-0.051-1.685s2.4-0.322,1.652-2.928c-0.747-2.605-1.388-2.84-1.388-2.84
				s-0.755-0.953,0.245-1.14c1-0.187,1.8,0.287,2.475-0.862c0.675-1.15,1.277-2.795-0.128-4.901
				c-0.994-1.489-2.142-1.97-2.574-1.988c-0.409-0.017-1.345-0.604-0.201-1.467c1.144-0.864,1.124-2.489,0.751-3.712
				s-0.985-2.838-3.568-2.905c0,0-1.274,0.119-0.595-0.951c0.68-1.07,0.85-2.566-0.493-4.265s-3.075-2.362-4.469-1.937
				s-1.115,0.624-1.486,0.838c-0.491,0.283-1.017,0.1-0.791-0.634c0.356-1.151,0.391-1.733-0.272-2.226s-1.342-0.612-2.158-0.153
				c-0.816,0.459-1.206,0-0.935-0.561s1.699-1.784,0.425-3.432s-3.296-2.26-5.658-0.714c0,0-0.884,0.442-1.359,1.053
				c-0.476,0.612-1.002,1.087-1.529,0.544c-0.527-0.544,0.017-0.884,0.034-1.801s-1.019-2.719-2.753-3.007
				c-1.733-0.289-3.126-0.17-4.486,1.529c0,0-1.019,1.631-1.495-0.085c-0.476-1.716-3.024-4.061-5.624-3.721
				c-2.303,0.301-3.673,0.722-4.451,3.094c-0.1,0.306-0.098,1.272,0.008,1.585s0.144,0.682-0.127,0.911
				c-0.326,0.275-0.548-0.06-0.852-0.442c-0.204-0.256-0.797-0.874-1.63-0.934c-0.803-0.058-1.873-0.083-2.853,1.281
				c-0.594,0.827-0.419,1.276-0.661,1.793c-0.11,0.235-0.278,0.397-0.543,0.351c-0.502-0.087-0.381-0.476-0.71-1
				c-0.063-0.1-0.416-0.663-0.919-1.029c-0.438-0.319-1.271-0.657-1.753-0.712c-0.798-0.092-1.606-0.178-2.371,0.421
				c-0.653,0.511-0.957,1.003-1.164,1.441c-0.226,0.478-0.233,1.158-0.234,1.441c-0.002,0.327,0.071,0.79,0.378,1.498
				c0.189,0.436,0.293,0.823,0.001,1.074c-0.439,0.377-0.945-0.768-1.659-0.411s-0.771,1.108-0.312,2.025s-0.567,0.54-0.567,0.54
				s-5.1-1.164-5.017,3.394c0.006,0.331,0.064,0.794,0.276,1.599c0.178,0.678,0.155,0.993-0.53,0.857
				c-0.809-0.161-3.757-0.227-4.539,2.042c-0.782,2.269,0.522,3.824,1.077,4.328c0.555,0.504,0.84,1.093,0.209,1.32
				c-0.63,0.227-4.413,1.362-4.463,4.312c-0.05,2.95,1.538,4.463,3.076,5.674s0.681,1.21-0.076,1.488
				c-0.756,0.277-2.824,1.084-2.547,3.303c0.277,2.219,2.194,2.547,2.194,2.547s1.11-0.025,0.53,0.983s-0.05,1.886-0.05,1.886
				L36.711,62.827z"/>
		</g>
	</g>
</g>
<g>
	<g>
		<defs>
			
				<ellipse id="Ellipse_891_00000055688276897010911940000014094123114628349621_" cx="449.02" cy="-1614.416" rx="536.198" ry="536.198"/>
		</defs>
		<clipPath id="Ellipse_891_00000052806589167599769250000001950337893893234820_">
			<use xlink:href="#Ellipse_891_00000055688276897010911940000014094123114628349621_"  overflow="visible"/>
		</clipPath>
		<g clip-path="url(#Ellipse_891_00000052806589167599769250000001950337893893234820_)">
			<path fill="#4C7E9E" d="M394.436-232.777 M449.02-68.856c-1.588,18.109-5.714,36.171-7.581,54.255
				c-2.178,21.106-3.152,42.236-5.55,63.317c-1.98,17.402-4.345,34.763-6.724,52.116c-3.019,22.024-6.225,44.023-9.35,66.033
				c-2.89,20.349-5.653,40.716-8.704,61.041c-3.751,24.99-8.141,50.057-12.785,74.885c-5.624,30.066-4.491,60.281-3.972,90.714
				c0.456,26.696,0.504,53.419-0.147,80.109c-0.526,21.545-2.349,43.058-3.623,64.584c-0.697,11.775-1.402,23.55-2.185,35.32
				c-1.388,20.844-3.332,41.734-5.391,62.512c-2.688,27.137-6.284,54.184-9.48,81.27c-2.881,24.419-5.558,48.864-8.681,73.252
				c-2.908,22.716-7.436,45.353-10.408,68.062c-2.448,18.703-4.477,37.46-6.702,56.192c-2.501,21.064-5.103,42.117-7.48,63.196
				c-1.095,9.707-1.711,19.467-2.633,29.195c-0.636,6.705-0.569,13.649-2.45,20.003c-1.215,4.104-4.638,8.694-8.352,10.73
				c-21.067,11.544-43.045,12.559-65.337,3.489c-3.922-1.596-6.583-4.522-6.998-9.152c-1.322-14.76-2.652-29.52-4.21-44.256
				c-1.593-15.068-3.514-30.101-5.193-45.16c-1.68-15.063-3.241-30.139-4.849-45.21c-1.537-14.403-2.996-28.814-4.622-43.207
				c-1.776-15.724-3.676-31.435-5.572-47.145c-1.735-14.375-3.622-28.732-5.288-43.116c-1.705-14.721-3.216-29.465-4.823-44.197
				c-1.789-16.401-3.629-32.797-5.369-49.203c-0.995-9.379-1.825-18.776-2.744-28.163c-1.148-11.727-2.319-23.451-3.465-35.178
				c-0.819-8.381-1.798-16.751-2.373-25.15c-0.92-13.452-1.411-26.934-2.365-40.383c-1.024-14.442-2.372-28.86-3.579-43.289
				c-0.085-1.01-0.222-2.017-0.257-3.028c-0.747-21.579-1.542-43.156-2.205-64.738c-0.746-24.283-0.455-48.642-2.376-72.828
				c-1.247-15.705-5.732-31.143-8.614-46.729c-9.258-50.064-18.616-100.111-27.604-150.224
				c-6.724-37.489-13.178-75.031-19.29-112.624c-4.108-25.269-7.566-50.649-11.024-76.019c-2.82-20.685-5.587-41.39-7.68-62.156
				c-1.993-19.772-2.78-39.663-4.632-59.451c-3.978-42.501-1.51-85.081-1.736-127.619c-0.076-14.399,2.075-28.893,4.151-43.206
				c6.833-47.121,21.882-91.811,41.04-135.222c0.818-1.854,7.582-18.918,9.508-21.25c2.837,0.909,470.322,3.173,576.924,2.47
				c12.915-0.085,7.712,9.296,8.263,11.517c6.803,15.399,12.996,31.11,19.328,46.7c14.943,36.797,23.697,75.328,29.643,114.418
				c2.878,18.925,5.557,37.993,4.969,57.368c-0.634,20.936,0.3,41.92-0.349,62.855c-0.574,18.5-2.28,36.97-3.681,55.439
				c-1.325,17.464-2.627,34.938-4.447,52.354c-1.784,17.08-4.008,34.122-6.4,51.13c-3.002,21.344-6.237,42.658-9.617,63.946
				c-4.81,30.288-9.582,60.585-14.845,90.796c-7,40.179-14.324,80.305-21.762,120.406c-6.211,33.487-12.793,66.905-19.187,100.358
				c-0.442,2.312-0.926,4.655-0.992,6.995c-0.741,26.307-1.131,52.627-2.17,78.922c-0.877,22.214-2.486,44.398-3.763,66.596
				c-0.755,13.123-1.348,26.257-2.281,39.367c-1.051,14.775-2.381,29.53-3.632,44.29c-0.739,8.727-1.499,17.452-2.352,26.168
				c-2.624,26.805-5.284,53.607-7.956,80.407c-2.138,21.448-4.102,42.915-6.536,64.329c-2.205,19.401-5.054,38.727-7.401,58.112
				c-1.7,14.041-2.976,28.132-4.565,42.187c-1.74,15.388-3.711,30.749-5.42,46.14c-1.673,15.062-3.101,30.151-4.711,45.219
				c-1.788,16.736-3.701,33.459-5.479,50.197c-0.961,9.044-2.156,18.091-2.481,27.164c-0.223,6.232-2.586,10.411-8.241,12.582
				c-21.322,8.185-42.362,7.278-62.744-2.934c-6.175-3.094-10.157-7.985-10.728-15.871c-1.456-20.14-3.616-40.235-5.84-60.31
				c-2.151-19.409-4.712-38.773-7.132-58.152c-2.295-18.38-4.581-36.761-6.982-55.127c-2.968-22.708-6.147-45.388-9.055-68.103
				c-2.522-19.705-4.829-39.437-7.159-59.166c-1.58-13.379-2.997-26.777-4.555-40.159c-1.09-9.361-2.479-18.691-3.412-28.067
				c-2.101-21.107-4.192-42.218-5.915-63.358c-1.122-13.769-1.544-27.595-2.358-41.391c-1.211-20.512-2.505-41.019-3.727-61.531
				c-0.181-3.033-0.224-6.078-0.225-9.118c-0.013-38.529-0.34-77.063,0.141-115.587c0.229-18.363-2.445-36.273-5.26-54.271
				c-4.581-29.29-8.895-58.621-13.303-87.938c-3.756-24.983-7.617-49.952-11.181-74.962c-2.565-18.003-4.697-36.067-7.056-54.099
				c-2.446-18.696-5.088-37.367-7.353-56.085c-1.82-15.043-3.23-30.137-4.777-45.212c-1.89-18.418-3.801-36.833-5.571-55.263
				c-0.934-9.723-1.799-19.461-2.318-29.213c-0.913-17.171-5.542-34.358-6.28-51.538c-0.694-16.167-2.439-32.332-3.016-48.502
				c-0.128-3.602-3.308-9.669-3.075-13.838L449.02-68.856 M389.278-235.803"/>
			<path fill="#6E4539" d="M-34.825-173.904c0.026-0.79,0.071-1.605,0.746-3.283c0.021-0.052,0.041-0.111,0.055-0.166
				c2.067-8.01,3.631-15.04,4.768-22.139c2.387-14.906,4.431-30.223,12.599-43.018c5.676-8.891,7.93-18.067,9.007-27.94
				c0.651-5.975,0.309-12.052,0.785-18.054c1.819-22.944,4.118-45.855,5.616-68.819c1.718-26.327,2.816-52.696,4.104-79.05
				c0.75-15.35,1.359-30.708,2.007-46.063c0.691-16.359,1.344-32.72,2.03-49.079c0.658-15.689,1.208-31.385,2.034-47.065
				c1.247-23.672,2.304-47.366,4.207-70.988c1.068-13.26,2.946-26.554,5.778-39.546c3.339-15.321,8.858-30.174,12.085-45.513
				c5.77-27.429,10.698-55.039,15.645-82.634c2.535-14.144,4.433-28.402,7.208-42.618c0.182-0.932,1.234-1.405,2.058-0.934
				c7.048,4.03,13.88,7.637,19.704,12.461c20.233,16.76,40.235,33.601,64.254,45.114c18.234,8.74,36.847,15.844,56.602,20.211
				c0.829,0.183,1.299,1.061,0.99,1.852c-1.088,2.791-2.062,5.164-3.228,7.44c-11.601,22.657-23.229,45.3-34.906,67.918
				c-1.994,3.862-4.547,7.453-6.334,11.399c-3.847,8.495-8.627,16.839-10.755,25.785c-4.552,19.13-6.247,39.008-11.64,57.857
				c-13.617,47.596-28.4,94.864-43.161,142.125c-11.97,38.324-23.614,76.715-31.222,116.19c-4.804,24.926-9.309,49.906-9.109,75.46
				c0.028,3.63-0.877,7.271-1.384,10.902c-0.828,5.923,0.148,11.158,4.534,15.736c8.766,9.15,13.973,20.241,17.255,32.426
				c6.381,23.693,5.169,46.928-2.983,70.015c-5.388,15.257-5.417,30.125,4.478,44.026c2.499,3.512,4.306,7.59,5.994,11.593
				c7.352,17.432,0.525,41.362-22.398,48.394c-5.55,1.703-8.861-0.068-9.23-5.598c-1.642-24.577-11.329-46.508-21.313-68.512
				c-5.228-11.523-8.716-23.836-12.991-35.791c-0.085-0.239-0.171-0.477-0.256-0.715c-0.588-1.637-3.096-0.899-2.653,0.783
				c0.004,0.015,0.008,0.029,0.012,0.044c2.356,8.712,5.043,17.342,7.144,26.112c0.721,3.012,1.096,6.819-0.116,9.464
				c-6.905,15.074-6.222,30.339-2.776,46.019C14.122-55.247,21.75-39.96,28.55-24.325C36.347-6.396,42.606,11.83,41.356,31.864
				c-0.412,6.601-2.287,12.439-6.222,17.677c-3.655,4.865-8.226,6.892-14.228,5.384c-0.432-0.109-0.787-0.438-0.948-0.853
				c-1.712-4.418-3.231-8.593-4.965-12.678C1.532,9.67-11.901-22.068-25.5-53.734c-8.038-18.718-9.827-38.004-6.262-57.948
				c0.413-2.309,0.056-4.756,0.056-7.139c-4.579,13.296-4.84,43.071-0.755,56.522c2.818,9.282,5.874,18.536,9.556,27.502
				c12.073,29.403,24.48,58.668,36.757,87.988c3.675,8.776,7.565,10.686,16.073,6.689c3.127-1.47,9.553-7.823,12.371-9.952
				c1.1-0.831,2.609,0.284,2.135,1.578C40.715,61.66,32.95,75.747,21.721,81.08c-0.735,0.349-1.617,0.011-1.912-0.747
				c-3.402-8.733-6.228-16.489-9.481-24.062C-0.501,31.063-11.453,5.906-22.484-19.215c-2.654-6.045-5.795-11.876-8.7-17.787
				c-0.02-0.041-0.036-0.077-0.053-0.121c-0.26-0.691-3-7.794-3.019-8.542c-2.316-8.111-1.811-7.653-4.512-14.825
				c-4.45-11.816-5.707-24.034-4.331-36.466c1.977-17.864,5.082-35.609,6.84-53.49c0.758-7.711-0.059-13.216,1.42-23.314
				C-34.831-173.808-34.827-173.857-34.825-173.904z"/>
			<path fill="#425D72" d="M255.202,1033.058c-0.168-0.088-0.322-0.206-0.448-0.347c-6.63-7.407-4.696-17.015-5.874-25.603
				c-4.448-32.438-8.017-64.995-12.015-97.496c-3.509-28.526-7.078-57.044-10.752-85.549c-3.63-28.17-7.518-56.306-11.114-84.479
				c-2.369-18.561-4.514-37.151-6.595-55.746c-2.712-24.235-5.317-48.483-7.849-72.738c-0.902-8.638-1.627-17.303-2.137-25.972
				c-1.609-27.368-3.261-54.735-4.54-82.119c-0.968-20.717-1.534-41.456-2.017-62.191c-0.648-27.775-0.974-55.557-1.622-83.332
				c-0.1-4.3-0.853-8.654-1.852-12.852c-18.051-75.846-33.492-152.229-46.636-229.065c-7.609-44.478-14.84-89.029-21.452-133.665
				c-3.768-25.44-6.204-51.089-8.782-76.69c-3.283-32.6-6.334-65.218-6.304-98.056c0.016-17.718-1.232-35.435-1.336-53.157
				c-0.42-71.363,16.102-139.093,44.5-204.186c3.985-9.133,8.559-18.008,13.682-27.522c0.373-0.693,1.216-0.989,1.946-0.695
				c2.747,1.105,4.997,2.582,7.035,4.457c0.469,0.432,0.597,1.128,0.346,1.714c-1.968,4.599-3.719,8.698-5.742,13.36
				c-15.367,33.233-27.553,66.813-36.004,101.753c-5.823,24.072-11.442,48.396-11.654,73.055
				c-0.377,43.838-2.507,87.742,1.51,131.565c1.859,20.276,2.331,40.687,4.471,60.927c2.629,24.864,6.18,49.636,9.631,74.406
				c4.005,28.747,7.889,57.523,12.63,86.154c6.76,40.823,14.067,81.559,21.483,122.27c7.778,42.698,15.691,85.376,24.083,127.956
				c4.082,20.71,7.425,41.367,6.501,62.537c-0.329,7.54-0.406,15.09-0.013,22.627c1.141,21.881,2.623,43.744,3.768,65.624
				c0.891,17.024,1.481,34.064,2.21,51.097c0.029,0.669,0.104,1.336,0.165,2.003c1.899,20.928,3.896,41.848,5.669,62.786
				c1.549,18.292,2.781,36.611,4.289,54.907c0.63,7.645,1.589,15.264,2.433,22.891c1.797,16.24,3.649,32.474,5.417,48.716
				c1.589,14.594,2.993,29.209,4.67,43.792c1.675,14.574,3.688,29.11,5.367,43.683c1.604,13.921,2.821,27.886,4.472,41.801
				c2.397,20.198,5.267,40.342,7.498,60.557c2.379,21.553,4.165,43.172,6.368,64.745c1.829,17.914,4.107,35.785,5.712,53.717
				c0.482,5.383,2.555,9.005,7.302,10.92c21.751,8.773,43.219,7.777,63.96-3.01c5.693-2.961,9.674-7.711,9.689-15.233
				c0.015-7.974,1.237-15.955,2.096-23.916c1.824-16.908,3.73-33.807,5.65-50.704c1.582-13.92,3.159-27.841,4.874-41.744
				c1.633-13.239,3.445-26.456,5.169-39.684c1.724-13.228,3.452-26.455,5.15-39.686c2.335-18.196,4.642-36.395,6.96-54.593
				c1.685-13.234,3.378-26.466,5.047-39.702c1.668-13.237,3.513-26.456,4.911-39.722c1.678-15.928,2.869-31.907,4.444-47.847
				c1.771-17.919,4.047-35.794,5.536-53.735c1.684-20.292,2.907-40.627,4.013-60.961c0.944-17.356,1.871-34.733,2.04-52.108
				c0.325-33.521-0.084-67.05,0.208-100.572c0.125-14.35,0.477-28.778,2.091-43.015c2.292-20.208,5.835-40.275,8.864-60.4
				c3.03-20.123,6.141-40.234,9.112-60.366c2.338-15.84,4.528-31.702,6.762-47.558c3.118-22.126,6.245-44.252,9.315-66.385
				c1.878-13.541,3.726-27.086,5.461-40.646c1.609-12.575,3.264-25.151,4.513-37.764c1.645-16.603,2.817-33.253,4.368-49.866
				c1.798-19.259,4.211-38.47,5.569-57.758c1.29-18.334,1.559-36.739,2.288-55.113c0.093-2.341,0.28-4.679,0.37-7.02
				c0.549-14.357,1.11-28.713,1.607-43.072c0.149-4.293-1.794-6.553-6.256-7.562c-7.155-1.619-14.407-3.38-21.124-6.242
				c-10.993-4.684-22.533-8.679-31.012-17.842c0.057,0,0.202-0.001,0.547,0.048c0.13,0.018,0.267,0.022,0.394,0.057
				c6.769,1.887,12.696,4.091,18.802,5.548c12.648,3.019,25.271,6.821,38.127,8.148c22.934,2.368,45.415-0.497,66.661-10.428
				c2.764-1.292,5.685-2.246,8.629-3.155c1.577,2.673,1.34,2.271,2.916,4.944c-16.146,15.666-37.629,19.313-60.157,21.779
				c-0.773,0.085-1.36,0.739-1.361,1.517c-0.028,13.843-0.458,27.086,0.119,40.284c0.801,18.329,2.513,36.616,3.679,54.931
				c0.87,13.668,1.387,27.359,2.268,41.027c0.515,7.989,1.329,15.962,2.194,23.922c1.802,16.572,3.753,33.128,5.596,49.695
				c2.212,19.892,4.172,39.815,6.617,59.678c2.24,18.198,4.962,36.337,7.505,54.497c2.497,17.831,5.003,35.66,7.564,53.482
				c2.8,19.484,5.598,38.969,8.526,58.434c3.672,24.409,7.533,48.79,11.199,73.201c1.783,11.873,4.456,23.756,4.753,35.684
				c1.301,52.216-1.775,104.483,2.016,156.692c1.378,18.979,1.544,38.047,2.272,57.074c0.008,0.219,0.023,0.439,0.044,0.657
				c1.255,13.077,2.708,26.137,3.79,39.228c0.935,11.313,1.403,22.665,2.299,33.982c0.605,7.646,1.543,15.267,2.426,22.889
				c1.765,15.235,3.601,30.462,5.396,45.693c1.639,13.912,3.209,27.832,4.908,41.736c1.659,13.57,3.423,27.127,5.177,40.685
				c2.353,18.19,4.75,36.374,7.11,54.563c1.674,12.899,3.342,25.798,4.968,38.703c1.626,12.906,3.187,25.821,4.792,38.73
				c1.728,13.897,3.662,27.771,5.167,41.692c2.151,19.891,4.41,39.788,5.77,59.74c0.565,8.296,4.803,13.146,11.29,16.324
				c19.951,9.774,40.503,10.563,61.298,2.706c5.512-2.083,8.308-5.9,8.441-12.25c0.182-8.656,1.218-17.309,2.176-25.931
				c2.468-22.202,5.228-44.373,7.621-66.583c2.287-21.227,4.039-42.512,6.433-63.726c2.281-20.208,5.289-40.334,7.614-60.538
				c2.974-25.845,5.596-51.731,8.35-77.601c2.683-25.203,5.349-50.408,8.006-75.614c0.805-7.632,1.573-15.268,2.328-22.905
				c1.869-18.914,3.924-37.813,5.51-56.751c1.087-12.977,1.482-26.01,2.244-39.015c0.644-11,1.4-21.992,2.054-32.991
				c1.308-21.996,2.907-43.981,3.782-65.995c1.036-26.069,1.414-52.165,2.148-78.248c0.065-2.315,0.569-4.633,1.018-6.92
				c6.24-31.786,12.806-63.512,18.686-95.364c6.605-35.773,12.59-71.661,18.858-107.496c5.174-29.582,10.866-59.083,15.42-88.759
				c5.362-34.939,9.993-69.996,14.474-105.061c3.635-28.443,7.235-56.919,9.618-85.483c1.805-21.634,1.989-43.426,2.325-65.157
				c0.601-38.8-0.386-77.367-7.496-115.861c-9.243-50.045-23.838-98.018-46.864-144.132c-0.019-0.038-0.04-0.077-0.062-0.113
				c-1.882-3.177-3.694-5.844-5.188-8.753c-0.387-0.752-0.11-1.681,0.639-2.073c3.157-1.655,6.056-3.048,8.921-4.408
				c0.729-0.346,1.606-0.067,2,0.638c11.878,21.287,20.982,43.809,29.09,66.727c14.447,40.836,23.813,82.822,29.198,125.843
				c3.047,24.349,4.535,48.703,3.384,73.083c-1.733,36.698-4.175,73.385-7.381,109.984c-2.74,31.282-6.308,62.527-10.725,93.616
				c-5.547,39.044-11.724,78.022-18.734,116.829c-9.154,50.672-19.124,101.201-29.268,151.687
				c-5.613,27.934-12.323,55.647-18.42,83.486c-0.994,4.539-1.584,9.162-1.712,13.807c-0.23,8.328,0.059,16.669-0.088,25
				c-0.622,35.147-0.773,70.314-2.162,105.431c-1.267,32.049-3.431,64.083-6.073,96.052c-2.751,33.287-6.218,66.525-9.984,99.714
				c-3.314,29.208-7.525,58.314-11.245,87.477c-4.313,33.815-8.478,67.648-12.791,101.463c-3.72,29.163-7.69,58.295-11.299,87.471
				c-2.379,19.233-4.182,38.537-6.563,57.77c-0.458,3.697-2.302,7.222-4.509,11.579c-0.119,0.235-0.306,0.446-0.526,0.592
				c-3.667,2.445-6.454,4.172-9.952,5.989c-0.154,0.08-0.327,0.135-0.499,0.159c-6.305,0.893-11.796,1.906-17.334,2.379
				c-16.553,1.416-32.456-1.252-47.979-8.679c-0.069-0.033-0.139-0.073-0.202-0.116c-2.473-1.667-4.617-2.869-6.747-4.049
				c-0.206-0.114-0.387-0.273-0.522-0.465c-3.324-4.702-3.987-10.082-4.558-15.717c-2.83-27.91-5.657-55.829-9.134-83.663
				c-3.893-31.167-8.381-62.262-12.798-93.361c-4.323-30.431-9.079-60.801-13.278-91.249c-3.287-23.833-6.232-47.718-8.934-71.624
				c-2.925-25.885-5.815-51.788-7.935-77.747c-1.958-23.974-3.497-48.016-4.111-72.058c-1.026-40.146-1.329-80.314-1.586-120.474
				c-0.081-12.685,0.842-25.383,1.513-38.065c0.984-18.603-3.425-36.558-6.486-54.65c-7.695-45.482-16.03-90.858-23.463-136.382
				c-6.299-38.581-11.961-77.272-17.383-115.988c-2.871-20.504-4.904-41.138-6.824-61.76c-2.384-25.611-4.253-51.27-6.393-76.904
				c-0.019-0.231-0.081-0.458-0.174-0.698c-0.502-1.296-2.449-1.351-2.851-0.02c-0.024,0.08-0.04,0.159-0.046,0.239
				c-1.629,20.656-2.788,41.358-4.847,61.97c-2.688,26.911-5.704,53.801-9.261,80.61c-4.484,33.792-9.194,67.567-14.646,101.213
				c-7.271,44.874-15.369,89.614-23.07,134.418c-2.945,17.13-6.119,34.232-8.495,51.442c-0.999,7.236-0.413,14.727-0.173,22.089
				c0.502,15.367,1.721,30.723,1.803,46.088c0.166,30.828,0.404,61.68-0.593,92.483c-0.853,26.352-3.298,52.657-5.213,78.97
				c-1.237,16.99-2.437,33.995-4.281,50.925c-2.892,26.563-6.078,53.099-9.571,79.59c-4.019,30.479-8.482,60.899-12.801,91.338
				c-3.615,25.475-7.442,50.92-10.911,76.414c-3.288,24.166-6.437,48.355-9.263,72.578c-2.322,19.904-3.991,39.884-6.194,59.804
				c-0.304,2.752-1.935,5.357-3.935,8.845c-0.09,0.158-0.215,0.306-0.354,0.422c-3.022,2.515-5.155,4.243-7.946,6.076
				c-0.107,0.071-0.228,0.129-0.349,0.171c-5.996,2.056-11.151,4.454-16.568,5.788c-16.108,3.968-32.28,3.025-48.804-0.795
				c-0.157-0.036-0.312-0.1-0.451-0.183C260.975,1036.095,258.083,1034.571,255.202,1033.058z"/>
			<path fill="#3F221A" d="M212.438-813.032c8.433,0.41,8.433,0.41,9.804,8.775c-3.889,6.527-8.191,12.035-11.533,18.074
				c-18.8,33.968-37.635,67.923-55.772,102.245c-3.276,6.2-4.281,14.029-4.741,21.208c-1.573,24.509-6.397,48.461-13.403,71.793
				c-14.724,49.035-30.278,97.827-46.071,146.531C77.607-403.96,65.593-363.23,58.114-321.357
				c-3.337,18.681-4.639,37.727-6.806,56.613c-0.472,4.117,0.502,7.594,3.317,11.085c24.845,30.815,27.768,65.506,17.536,102.394
				c-1.252,4.513-2.649,8.989-3.759,13.536c-2.504,10.257-1.054,19.87,4.697,28.864c2.518,3.938,4.687,8.12,6.764,12.316
				c10.492,21.194,1.069,47.748-20.554,57.273c-3.523,1.552-7.736,2.019-11.647,2.094c-5.258,0.101-8.893-2.895-10.144-8.065
				c-1.018-4.206-1.662-8.515-2.257-12.808c-2.73-19.688-11.018-37.505-18.343-57.946c-4.289,9.704-6.637,17.504-5.473,25.896
				c2.223,16.017,7.265,31.204,14.041,45.866c5.613,12.143,11.528,24.187,16.334,36.652c5.553,14.402,9.56,29.203,6.114,45.053
				c-0.732,3.369,1.492,7.309,1.064,10.83c-1.524,12.557-6.002,24.033-14.976,33.233c-6.924,7.098-11.067,7.151-20.673,3.747
				c-4.007-1.42-8.428-1.67-13.038-2.101c-2.721-0.254-5.043-2.081-5.931-4.666l-0.016-0.046
				c-10.919-31.986-22.151-63.871-32.55-96.026c-5.032-15.557-8.975-31.519-12.428-47.509c-1.453-6.726-1.345-14.156-0.263-21
				c4.582-28.976,9.797-57.851,15.414-87.261c0.268,0.47,2.014-6.179,1.994-5.666c-0.357,9.003-2.078,21.308-2.79,28.554
				c-1.758,17.881-4.864,35.626-6.84,53.49c-1.376,12.432,0.472,24.609,4.921,36.424c2.701,7.172,5.133,18.346,7.872,25.312
				c-0.142-0.204-1.144-0.397-1.283-0.604c-8.553-12.7-11.563-30.354-15.006-46.672c-1.801,12.073,0.53,21.865,3.71,31.332
				C-29.029-9.914-14.882,31.238-0.815,72.417c1.526,4.468,4.686,6.185,8.312,4.507c4.171-1.931,3.351-5.049,1.959-8.461
				C-0.779,43.368-11.163,18.329-21.011-6.918c-3.75-9.613-9.912-19.272-10.488-29.986c-0.015-0.288,0.277,0.108,0.269-0.183
				c2.929,5.951,6.083,11.804,8.747,17.871C-11.453,5.906-0.501,31.063,10.327,56.271c2.576,5.997,4.884,12.109,7.423,18.73
				c1.457,3.799,6.185,5.244,9.41,2.764c8.528-6.56,11.644-16.592,15.218-26.332c-4.13,2.86-7.97,6.34-12.454,8.447
				c-8.508,3.998-12.399,2.088-16.073-6.689C1.575,23.872-10.833-5.394-22.905-34.797c-3.681-8.966-6.737-18.22-9.556-27.502
				c-4.085-13.451-3.823-43.226,0.755-56.522c0,2.383,0.357,4.83-0.056,7.139c-3.565,19.944-1.776,39.23,6.262,57.948
				C-11.901-22.068,1.532,9.67,14.994,41.394c1.82,4.289,3.404,8.678,5.223,13.344c6.343,1.845,11.124-0.147,14.918-5.197
				c3.935-5.238,5.81-11.076,6.222-17.677c1.25-20.034-5.009-38.261-12.807-56.189c-6.8-15.635-14.428-30.922-18.133-47.779
				c-3.446-15.68-4.13-30.945,2.776-46.019c1.211-2.645,0.837-6.452,0.116-9.464c-2.101-8.771-4.788-17.4-7.144-26.112
				c-0.135-0.499-0.21-1.013-0.193-1.55c0.044-1.375,1.971-1.672,2.438-0.378c0.218,0.605,0.436,1.211,0.653,1.817
				c4.275,11.955,7.763,24.268,12.991,35.791c9.984,22.004,19.671,43.935,21.313,68.512c0.369,5.53,3.681,7.301,9.23,5.598
				c22.923-7.032,29.75-30.963,22.398-48.394c-1.688-4.002-3.495-8.081-5.994-11.593c-9.894-13.901-9.865-28.769-4.478-44.026
				c8.152-23.087,9.364-46.322,2.983-70.015c-3.282-12.185-8.489-23.276-17.255-32.426c-4.386-4.578-5.361-9.813-4.534-15.736
				c0.507-3.631,1.413-7.271,1.384-10.902c-0.2-25.554,4.305-50.534,9.109-75.46c7.608-39.475,19.252-77.866,31.222-116.19
				c14.761-47.261,29.543-94.529,43.161-142.125c5.393-18.849,7.088-38.727,11.64-57.857c2.128-8.946,6.908-17.29,10.755-25.785
				c1.787-3.946,4.34-7.537,6.334-11.399c11.677-22.618,23.305-45.261,34.906-67.918c1.369-2.675,2.476-5.484,4.341-9.387
				C203.617-793.862,208.028-803.447,212.438-813.032z"/>
			<path fill="#6E4438" d="M-21.011-6.918c9.848,25.247,20.232,50.286,30.466,75.381c1.392,3.412,2.212,6.53-1.959,8.461
				c-3.625,1.678-6.786-0.039-8.312-4.507C-14.882,31.238-29.029-9.914-42.883-51.165c-3.18-9.467-5.511-19.259-3.71-31.332
				c3.498,16.584,8.214,29.616,14.78,45.15C-31.532-36.683-24.861-16.79-21.011-6.918z"/>
		</g>
	</g>
</g>
</svg>
