<?xml version="1.0" encoding="utf-8"?>
<!-- Generator: Adobe Illustrator 27.9.1, SVG Export Plug-In . SVG Version: 6.00 Build 0)  -->
<svg version="1.1" id="Layer_1" xmlns="http://www.w3.org/2000/svg" xmlns:xlink="http://www.w3.org/1999/xlink" x="0px" y="0px"
	 viewBox="0 0 947.9 947.9" style="enable-background:new 0 0 947.9 947.9;" xml:space="preserve">
<style type="text/css">
	.st0{fill:#F2F2F2;enable-background:new    ;}
	.st1{clip-path:url(#SVGID_00000026847520335876482870000003524356963637591715_);}
	.st2{fill:#24282D;}
	.st3{fill:#020202;}
	.st4{fill:#010101;}
	.st5{fill:#F5C9A4;}
	.st6{fill:#CE9C78;}
	.st7{fill:#B8875C;}
	.st8{fill:#F4C8A3;}
	.st9{fill:#F3C19E;}
	.st10{fill:#EEBE97;}
	.st11{fill:#0A0806;}
	.st12{fill:#B3453E;}
	.st13{fill:#D86753;}
	.st14{fill:#922C25;}
	.st15{fill:#22211E;}
	.st16{fill:#F9FBFB;}
	.st17{fill:#F77360;}
	.st18{fill:#E5B18A;}
	.st19{fill:#F5C9A3;}
	.st20{fill:#2C3336;}
</style>
<ellipse id="Ellipse_891_00000173127178228218585950000009762808920865703599_" class="st0" cx="473.9" cy="473.9" rx="473.9" ry="473.9"/>
<g>
	<g>
		<defs>
			<circle id="SVGID_1_" cx="473.9" cy="473.9" r="473.9"/>
		</defs>
		<clipPath id="SVGID_00000047052116151152572280000009562421704614265738_">
			<use xlink:href="#SVGID_1_"  style="overflow:visible;"/>
		</clipPath>
		<g style="clip-path:url(#SVGID_00000047052116151152572280000009562421704614265738_);">
			<path class="st2" d="M392.9,719.8c-21.5-4.7-44.4-11.2-64.7-20c-22-9.5-42.4-21.5-60.8-36.9c-13.1-10.9-24.6-23.2-34.7-36.9
				c-13.1-17.7-20.5-37.4-20.6-59.6c-0.1-10.7-1.7-21.4-1.4-32c0.5-15.7,2-31.4,3.1-47.1c0.6-8,1.1-16,2-24
				c2.2-19.7,4.4-39.5,6.9-59.2c2.3-18,4.7-35.9,7.6-53.8c2.6-16.4,5.3-32.8,8.8-49.1c5.5-25.4,16.4-48.4,32.4-68.9
				c14.1-18,30.9-32.6,51.2-43.5c18.1-9.7,37.1-16.2,57.2-19.4c7.2-1.1,14.8-1,22.1-0.1c6.3,0.8,11.8,0.2,17.1-3.1
				c20.7-12.7,43.3-18,67.5-15.8c27.4,2.5,53.9,8.9,79.4,19.3c26.1,10.6,50.5,24.3,71.9,42.7c22.2,19.1,39.9,42,49.6,69.9
				c6,17.1,10.5,34.7,14.3,52.4c2.6,12.1,2.9,24.7,4.3,37.1c1.7,15.6,3.3,31.2,4.9,46.9c0.8,8.3,1.6,16.5,2.1,24.8
				c0.8,13,0.7,26.2,2.2,39.1c2.7,24.7,2,49.4,1.2,74c-0.8,26.3-5.2,52-20.2,74.8c-12.5,18.9-28.1,34.6-46.5,47.5
				c-20.2,14-42.3,24.3-65.9,31.2c-13.9,4.1-28.2,7.2-43.2,10.1c-1-2.6-1-4.5-0.3-6.5c2.2-0.1,3.8,0,5.2-0.3
				c42.2-9.5,82.3-24,115.7-52.9c16.3-14.2,29.5-30.7,38.2-50.9c8.9-20.8,10.7-42.7,11.4-64.6c0.9-28.5-0.7-57.1-1.5-85.6
				c-0.2-7.7-1-15.4-1.8-23.1c-2.2-20.6-4.9-41.2-6.8-61.9c-2.1-22.5-5.3-44.8-10.9-66.7c-6.7-26.4-18.8-50.2-36.5-70.9
				c-21.3-24.9-48.6-41.9-77.9-55.6c-26.2-12.2-53.6-21.8-82.6-24.5c-12.6-1.2-25.5-0.8-38.2,0.3c-13.9,1.2-26.3,7.4-37.6,15.4
				c-3.5,2.5-6.6,3.3-10.7,1.8c-8.9-3.3-18-2.6-27.2-0.8c-45.1,9-80.7,32.4-107.1,69.9c-18.7,26.6-27.7,57.2-34.5,88.4
				c-4,18.5-6.1,37.5-8.9,56.3c-1.4,9.7-2.7,19.4-3.5,29.2c-0.3,3.4,0.8,6.9,1.2,11c-5.1,12.4-5,24.6-4.1,37.3
				c-1.3,2-2.4,3.5-2.5,5.2c-0.8,9.5-1.7,19-1.9,28.5c-0.3,21.2-0.7,42.3,0.1,63.5c0.6,17,3.9,33.6,13.1,48.6
				c14.9,24.3,34.4,44,57.6,60.2c21.4,15,44.9,25.8,69.7,33.7c11.3,3.6,24.6,5.5,36.3,8.8C393.9,716.1,393.5,718.4,392.9,719.8z"/>
			<path class="st3" d="M539.4,680.1c55.4-36.5,92.9-87.2,104.3-153.9c1-0.4,1.9-1.1,2.6-1c14.9,1.4,26.9-3.9,36.4-14.7
				c18-20.6,25.9-43.8,21.5-71c-4.2-25.9-21.1-37-46.9-31.7c-0.8,0.2-1.7,0-3.8,0c0.8-5.6,3.5-30.6-0.3-38.2
				c-5.9-12.5-15.1-20.5-25-27.7c-17.9-13.2-38-22.3-59.1-28.8c-19.9-6.1-40.2-10.9-60.2-16.3c-23.3-6.3-46.2-13.5-67.4-25.4
				c-14.2-7.9-26.8-17.7-35.7-31.6c-1.1-1.7-2.3-3.3-3.4-4.8c-21.6,9.8-54.3,31.2-70.2,46.1c-17.8,16.6-32.9,35.3-42.1,58
				c-5.4,13.4-10.9,27-10.2,41.9c-0.8,5.8-1.6,11.7-2.4,17.5c-0.4,3.2-0.7,6.3-1.1,10.1c-21.1-5.5-38.7-2.9-49.7,18.4
				c-0.8-2.9-1.9-6.4-1.6-9.7c0.9-9.7,2.1-19.5,3.5-29.2c2.8-18.8,4.9-37.7,8.9-56.3c6.8-31.2,15.7-61.8,34.5-88.4
				c26.4-37.5,62-60.9,107.1-69.9c9.3-1.8,18.3-2.5,27.2,0.8c4.1,1.5,7.3,0.7,10.7-1.8c11.3-8,23.7-14.2,37.6-15.4
				c12.7-1.1,25.6-1.5,38.2-0.3c29,2.7,56.4,12.2,82.6,24.5c29.3,13.7,56.6,30.7,77.9,55.6c17.6,20.6,29.7,44.4,36.5,70.9
				c5.6,21.9,8.8,44.2,10.9,66.7c1.9,20.7,4.6,41.3,6.8,61.9c0.8,7.7,1.6,15.4,1.8,23.1c0.8,28.5,2.4,57.1,1.5,85.6
				c-0.7,21.8-2.5,43.8-11.4,64.6c-8.7,20.2-21.9,36.7-38.2,50.9c-33.3,28.9-73.4,43.4-115.7,52.9c-1.4,0.3-3,0.2-5.2,0.3
				c-1.3-10.2-1.8-20.4-2-31.7C538.9,680.9,539.2,680.5,539.4,680.1z"/>
			<path class="st4" d="M222.1,464.7c4,9.7,6.4,20.4,11.2,29.8c10.2,19.7,25.6,31.8,50.1,31.1c11.9,70.2,55.2,118.5,113.1,156.1
				c-1.2,9.7-0.9,21.7-2.2,32.4c-11.7-2-26.4-4.8-37.7-8.4c-24.8-7.9-46.8-19.2-68.3-34.2c-23.2-16.2-43.5-36.6-58.4-60.9
				c-9.2-15-11.6-31.8-12.3-48.8c-0.8-21.1-0.3-42.3-0.1-63.5c0.1-9.5,1.1-19,1.9-28.5C219.7,468.3,220.8,466.7,222.1,464.7z"/>
			<path class="st5" d="M280.2,382.5c-1.2-15.5,4.3-29,9.7-42.4c9.2-22.8,24.3-41.4,42.1-58c16-14.9,48.7-36.3,70.2-46.1
				c1.1,1.6,2.3,3.2,3.4,4.8c8.9,13.9,21.5,23.7,35.7,31.6c21.2,11.9,44.1,19.1,67.4,25.4c20.1,5.5,40.3,10.3,60.2,16.3
				c21.1,6.4,41.2,15.6,59.1,28.8c9.9,7.2,21.4,15.1,26.5,30c-1.9,9.5-4.2,17.1-5.7,26.1c-4.6,27.4-5.2,53.5-6.2,82.3
				c-1,13.6-5,54.5-8.1,74.3c-4.6,16.9-14.3,29.6-23.6,44.7c-24.1,39.3-56.6,69.5-97.4,90.7c-14.1,7.3-29,12.6-44.9,14
				c-5.7,0.5-11.8-0.7-17.5-2.1c-21.1-5.2-39.9-15.4-57.9-27.1c-31.3-20.5-57.5-46.1-77.3-78c-13.7-22-23.6-46.9-26.1-72.7
				c-2.2-22.4-2-44.2-2.4-66.8C287.1,433,284.8,407.9,280.2,382.5"/>
			<path class="st6" d="M521.1,467.1c-0.5-0.1-0.8,0.6-0.3,0.8c7.8,3.4,23.6,8.8,39.9,5.9c20.9-3.8,32.3-11.1,39-18.3
				c0.4-0.4-0.1-1.1-0.6-0.8c-7.1,3.8-28.4,14.4-42.4,14.9C542.1,470.1,530.8,469.6,521.1,467.1z"/>
			<path class="st6" d="M414.6,466.2c0.5-0.1,0.8,0.6,0.3,0.8c-6.3,3.4-22.4,10.5-42.9,7.6c-22.2-3.2-35.3-15.9-39-20
				c-0.3-0.3,0.1-0.8,0.4-0.6c3.3,1.4,11.6,5.1,21.5,10C367.2,470,383.6,474.3,414.6,466.2z"/>
			<path class="st7" d="M516.9,537.8c0.5,2.6,2.9,12.6,14.2,20.4c13.1,9,20.4,12.1,26.5,21c6.2,9,7,13.3,6.2,22.1
				c0,0-0.4,2.6,1.1,3.2s2.9-2.4,2.9-4.8c0-2.1,0.1-8-1-12.3c-1.1-4.5-4.7-9.7-9.9-15c-4.2-4.3-10.1-8.2-16.7-11.6
				c-14.5-7.4-18.7-14-23-23.1C517,537.6,516.8,537.4,516.9,537.8z"/>
			<path class="st7" d="M416.2,537.8c-0.5,2.6-2.9,12.6-14.2,20.4c-13.1,9-20.4,12.1-26.5,21s-7,13.3-6.2,22.1c0,0,0.4,2.6-1.1,3.2
				s-2.9-2.4-2.9-4.8c0-2.1-0.1-8,1-12.3c1.1-4.5,4.7-9.7,9.9-15c4.2-4.3,10.1-8.2,16.7-11.6c14.5-7.4,18.6-14,23-23.1
				C416.1,537.6,416.2,537.4,416.2,537.8z"/>
			<path class="st8" d="M644.1,502.1c0.6-4.6,4.7-27.9,1.2-33c-1.2-8.6,0-22.1,0.9-29.8c1.8-15.5,4.8-26.6,8.9-27.5
				c24.6-8.6,38.4,3,42.1,24.6c4,23-1.5,44.4-14.6,63.7c-0.5,0.8-3,8.2-9.7,12.8c-10,6.8-25.5,11.4-26.7,10.7
				C640.5,520.7,644.1,502.1,644.1,502.1z"/>
			<path class="st9" d="M632.1,549.2c-2,1.1-3.7,3.2-5.2,4.1c-4,2.3-13.5,9.8-26.3,12.7c-11.8,2.6-26.9,0.8-31.1-0.4
				c-16.1-4.4-23.9-23.5-19.6-40.6c1.6-6.3,6.3-18.4,18-26.6c6.1-4.3,18.4-9.4,29.6-11.3c5.1-0.9,16.8-1.5,25.2-2.9s15.6-6,18.6-6.6
				C641.5,500.6,639.1,526.1,632.1,549.2z"/>
			<polygon class="st10" points="652.9,410.6 646.2,434.3 646.2,465.7 644.1,502.1 642.8,522.2 653.5,522.9 672.4,513.5 
				680.5,505.8 668.5,468.6 663.3,432.4 661.3,410.6 			"/>
			<path class="st8" d="M249.5,508.6c-12.7-11.3-14.3-28-17.9-43.9c-2.5-11.2-2.4-22.4,1.3-33.5c5.3-15.8,19.1-24.6,36.2-20.1
				c12.9-0.5,13.5,16.1,12.9,24.1c-0.6,7.6,3.9,21.2,3.7,28.8c-0.1,4.3-4.9,26.8-1.3,30.5c-0.7,4.2,2.9,22.2,1.3,27.5
				C283.2,530.6,250.3,518.6,249.5,508.6z"/>
			<path class="st10" d="M252.9,508.1c7.6-4.4,8.4-13.6,11.8-21.1c1.6-2.8,2.7-5.3,4-7.6c1.9-3.3,5.5-4.7,10.8-4.3
				c0.8,14.8,1.7,29.6,2.6,45.4C270.1,519.9,260.6,516.5,252.9,508.1z"/>
			<path class="st10" d="M268.7,473.6c-5.3-3.9-2.8-9.3-2.7-13.5c0.2-7.6,1-15.2,1.6-22.8c0.6-8,1-17.4,1.6-26.2
				c8.4,1.8,8.7,3.5,9.2,11.4c0.5,8.8,1.2,17.7,1.8,27.1c-2.5-0.3-4.2-0.1-6.5-0.4c8.2,7.8,8.1,11,5.9,18.4
				C276,469.1,268.7,473.6,268.7,473.6z"/>
			<path class="st9" d="M358,496.1c6.5,3.8,12.4,7.2,18.2,10.9c14.5,9.5,18,33.4,10.7,46.8c-5,9.1-14.5,14.6-25,15.4
				c-20.2,4.4-41.7-12-46.4-16.2c-12-10.7-18.1-24.4-22.9-39.5c-3.8-12-4.7-23.8-4.5-36.1c0.1-3.8-3.4-8.8,0-11
				c3.2-2.1,8.4-2.9,14,1.5C312.5,478.2,351.4,492.6,358,496.1z"/>
			<path class="st11" d="M333.9,366.7c-7.4,3.2-14.2,6.2-21.8,9.5c0-1.8-0.4-3.2,0.1-3.7c24.8-24.5,52.7-42,89.4-39.6
				c8.8,0.6,16.9,3.4,24.3,8.4c6.9,4.6,11.9,10.8,14.6,18.7c0.9,2.6,1.1,5.5,2,10.3C405.8,350.3,370.3,352.5,333.9,366.7z"/>
			<path class="st11" d="M547.6,332.8c28.5,4.1,65.7,25.4,74.4,43.1c-3-1-5.1-1.4-7-2.3c-14.8-7.2-30.1-12.9-46.4-15.8
				c-24.8-4.5-48.7-2.3-71.4,9.3c-1.1,0.5-2.1,1.1-3.3,1.4c-0.5,0.2-1.1-0.1-2.8-0.3c0.7-3.1,0.9-6.3,2.1-9.2
				c6.6-16.5,20.1-23.7,36.7-26C535.4,332.2,541.2,332.8,547.6,332.8z"/>
			<path class="st7" d="M428.9,522.9c-5.9-7.1-5.9-12,0-18.8c3.5-4,7.4-7.8,10.5-12.1c6.9-9.7,10.7-20.7,11.1-32.6
				c0.4-11-0.4-22-0.6-33c0-0.7,0.2-1.5,1-2.2c6.9,22.2,7.4,44.4-0.8,66.7c33.3,0.2,50.5,11.8,44.6,30.4
				c-1.9-14.5-11.9-19.4-23.3-22.5c-11.4-3.1-22.4-1.5-32.8,4.3c-7.1,4-12.2,9.4-9.6,18.9C429.2,522.9,428.9,522.9,428.9,522.9z"/>
			<path class="st12" d="M501.2,579.8c-0.8,0.2-2.1-0.1-3.8-0.9C498.3,578.7,499.5,579,501.2,579.8z"/>
			<path class="st13" d="M403.9,581.8c0,0,16.6,6.3,34.8-6.2c16-11,19.5-8.9,25.3-9.2c5.7-0.3,15,1.7,23.6,7
				c8.6,5.3,18.6,10.5,31.2,9.8c0,0-6.5,6.7-12.2,15.1c-4,5.9-6,12.3-13.4,17.8c-8.5,6.3-23.6,7.1-28.1,7c-6.2-0.2-24.1,1.4-35.7-13
				C424.5,604.1,409.5,585.5,403.9,581.8z"/>
			<path class="st14" d="M388.5,569.1c0,0,31.3,32.9,74.7,30.1s65.9-19.9,78-30.1c0,0-32.2,24.2-78.1,24.6
				C417.2,594.1,388.5,569.1,388.5,569.1z"/>
			<path class="st14" d="M418,583.3c0,0,8.5-0.4,23.6-11.8s30.3-8,36.6-4.9c4.3,2.2,20,12.8,28.8,15.4c0,0-7.3-1.4-16.1-5.6
				c-8.8-4.2-19.9-7.4-26.8-7.4C443.7,569.1,440.6,580.5,418,583.3z"/>
			<path class="st14" d="M401.1,579.7c0,0,8.2,4.8,19.8,21.5c14.4,20.6,32.6,23.7,43.9,23.7c11.4,0.1,25.4-1.7,36.4-16.4
				s13-22.6,19.8-27c0,0-10.5,8.3-18.9,21.5s-23.9,15.9-37.4,15.6c-15.8-0.4-27.8-3.7-39.5-17.1
				C413.3,587.6,401.1,579.7,401.1,579.7z"/>
			<g>
				<path d="M527.9,428.8c0,0-4.3,9.8-1.1,17.3s5.2,6.6,8,8.1c2.9,1.5,28.4,0,28.4,0l23.3-8.3c0,0,2.3-16.4-4.8-25.4h-18.9h-16.5
					L527.9,428.8z"/>
				<path class="st15" d="M530.9,430.5c0,0-2.9,13.8,2.9,23.2l25.7,2.2l21-5.8c0,0,5.8-13.6-1.7-28.7l-16.5-3.4l-20.5,6.8
					L530.9,430.5z"/>
				<path class="st16" d="M536.8,433.5c0.2-2,0.8-5.7,5.5-5.8c3.3-0.1,4.9,1.9,5.3,4.7c0.6,3.8-1,8-4.5,8.6S536.5,438,536.8,433.5z"
					/>
				<path d="M504.2,454.1c-0.1,0.1-0.2,0-0.1-0.1c1.1-3.4,10.3-35.2,43.6-42.2c35.3-7.5,43.5,3.9,60.7,4.6c13.8,0.5,21.8-3.5,23-3.9
					c0,0,0.1,0,0,0.1c-1.1,1.2-11,11.2-37.8,10.2c-19.8-0.7-37.9-3.7-59.6,7.3C524.6,435,515.5,443.3,504.2,454.1z"/>
				<path d="M608.8,421.3c0,0-9.5,19.1-35.2,27.8c-13.3,4.5-28.3,3.8-41.5,3.3c-11.3-0.4-19.6-2.4-26.4-0.1
					c-0.6,0.2-1.1,1.4-1.6,1.7c0,0,0,0.1,0,0.1c1.9-0.2,26.8,0.2,40.2,2.3c12.9,2,25.2-0.4,32.5-3.4
					C584,450.1,601.6,445.2,608.8,421.3z"/>
				<path class="st16" d="M527.4,433.1c0,0-4,11.6,4,19.4c0,0-18.1-1.2-25,0.3c-0.3,0.1-0.5-0.3-0.3-0.5
					C507.6,450,513.4,442.9,527.4,433.1z"/>
				<path class="st16" d="M583,422.5c1.1,2.5,4.5,11.4,3.6,20c0,0.3,0.3,0.6,0.6,0.4c3-1.5,14.2-8,20.1-19.9
					c0.2-0.3-0.1-0.7-0.4-0.6c-2.9,0.3-13,1.2-23.5-0.4C583.2,421.9,582.9,422.2,583,422.5z"/>
			</g>
			<g>
				<path d="M353.2,419.7c0,0-10,7.3-5.8,24.9l17,7.8l21.5,1.9l16.2-0.7c0,0,9.2-7.5,5.3-19.8L395,422.8l-14.3-3.1l-13.8-1.1
					L353.2,419.7z"/>
				<path class="st15" d="M359.9,421.2c0,0-6.1,1.6-8.5,11.6c-2.5,10.1,2.7,16,2.7,16l23.3,5.8l22.2-1.9c0,0,8-11.2,2.9-21.5
					l-25.8-9.6L359.9,421.2z"/>
				<path class="st16" d="M360,428c0,0,2.8-4.7,6.5-4.3c3.7,0.4,4.7,2.8,4,6.6c-0.8,3.8-3.7,8-7.1,7.7
					C359.9,437.7,357.7,432.5,360,428z"/>
				<path class="st16" d="M326.9,422.4c0,0,19.4,0.2,24.8-0.6c0,0-7.3,9.1-4.5,20.3C347.2,442.1,329.9,431.5,326.9,422.4z"/>
				<path d="M428.8,454c0.1,0.1,0.5,0,0.4-0.1c-0.4-3.1-2.4-23.4-26.4-34.7c-26-12.2-40.6-11.1-55.8-7.4s-30,6.9-44,1.2
					c0,0,7.5,13.2,36.7,9.8c28-3.2,38.9,0.1,44.7,1.6C400.8,428.7,415.5,438.3,428.8,454z"/>
				<path d="M324.9,419.7c0,0-1.4,10.8,11.2,21.2s23,14.4,35.7,15.4c17.5,1.4,46.9-1.6,57.4-2.1c0.1,0,0.1-0.3,0-0.3
					c-0.3,0-0.7-1.7-1.2-1.9c-3.4-0.8-8.9,0.6-15.1,0.3c-7.4-0.3-15.6-0.5-22.1-0.1c-11.2,0.7-31.3-1.4-46.1-12.1
					C331.2,430.4,330.4,427.3,324.9,419.7z"/>
				<path class="st16" d="M407,434.6c0.6,1.6,3.1,10.2-3.9,17.2c-0.1,0.1,0,0.2,0.1,0.2c1.5,0.1,8.4,0.5,11.8,0.5
					c3.2,0,9.9-0.6,11.6-0.7c0.2,0,0.3-0.2,0.2-0.4c-1.5-1.9-9-11.4-19.6-16.9C407.1,434.5,407,434.5,407,434.6z"/>
			</g>
			<g>
				<path class="st17" d="M215,1171.7c-30.2-8-60.2-20.4-86.8-36.9c-17.9-11.1-33.5-24.9-45.5-42.5c-4.5-6.6-5.3-11.8-0.7-19.4
					c30-49.8,54.4-102.2,74.2-156.9c5.5-15.2,10.7-30.4,15.9-45.7c8-23.5,21.8-42.3,43.9-54.5c20.4-11.2,40.4-23.1,61.2-33.7
					c23.5-11.9,48.4-20.3,73.8-27.4c3.3-0.9,6.8-1.4,11.4-2.4c-0.2,3.4,0,5.7-0.5,7.8c-13.2,52.8,24.6,107.3,82.5,116.3
					c37.1,5.8,69.5-4.1,96.6-29.4c17.1-16,27.9-36.4,31.5-60c0.9-5.6,1.6-11.3,1.4-16.9c-0.1-5.3-1.5-10.6-2.6-17.2
					c3.1,0.4,5.5,0.4,7.9,1c22.4,5.5,43.9,13.5,65.2,22.3c28.5,11.9,54.9,27.7,80.8,44.4c18,11.6,28.9,28.8,36.1,48.8
					c11.5,32,23,64.1,35.7,95.7c13.4,33.3,29.9,65.1,47.7,96.2c2.8,4.9,5.5,9.9,8.6,14.7c3,4.6,2.6,8.4-0.3,13.1
					c-11.6,18.2-27,32.6-45.1,44.1c-22.6,14.3-47.1,26.1-73.7,32.5c-1-6.6-5.7-11.5-7.2-16.5c-2.7-8.7-5-17.3-8.9-25.6
					c-3.7-8-5.1-17-7.8-25.5c-0.6-1.8-3.7-4.8-5-6.4c1.5-10.9,5.1-20.1,5.5-31c0.7-19.3,0.7-38.7,0.1-58
					c-0.6-19.5-5.1-38.4-11.2-56.9c-1.6-4.9-3.1-10.2-9.9-13.7c0.2,3.4,0,5.6,0.4,7.7c2.9,14.3,6.4,28.5,8.6,43
					c2.9,19.2,3.4,38.5,1.6,58c-3.4,37.1-14.3,72.5-23.7,108.3c-6.9,26.6-12.2,53.5-14.7,80.9c-0.7,7.7-1.4,15.4-1.8,23.2
					c-1.6,32.7,6,64,15.5,94.9c11,36,25.7,70.7,41.4,104.9c2.1,4.6,4.2,9.2,6.2,13.9c2.6,6.1,2.6,7.6-3.5,10.9
					c-11.3,6.1-22.6,12.3-34.4,17.2c-44.5,18.8-90.8,31.3-138.3,39.4c-36.7,6.3-73.7,7.3-110.7,5.4c-40.3-2.1-79.9-9.7-118.7-20.9
					c-31.9-9.2-63.4-19.4-92.9-35c-3.7-2-7.3-4-10.9-6.2c-6.6-4.1-6.7-4.5-3.6-11.3c4.3-9.5,8.9-18.9,13.2-28.5
					c17-38.6,33.2-77.5,42.4-118.7c3.9-17.4,6.5-35.2,8.2-53c1-10.3-0.3-20.9-1.5-31.2c-3.4-30.9-8.9-61.3-16.9-91.4
					c-6.9-26.2-13.6-52.6-19.1-79.1c-5.5-26.1-6.4-52.6-1.8-79.1c2.5-14.4,5.4-28.7,8-43.1c0.6-3.3-0.9-2.4-0.4-7.8
					c-5.5,4.1-5.8,3.7-7.1,7.8c-6.9,21-12.1,42.4-12.8,64.7c-0.4,12.2-0.3,24.5-1.4,37.8c-2,6.4-5.1,11.5-5.4,16.9
					c-1,20.5-1.6,41.1-1.9,61.6c-0.1,9.5,1.1,19,1.6,28.5C216,1157.9,219.6,1165.8,215,1171.7z"/>
				<path class="st12" d="M730.4,1481.3c-3.7,2.1-7,3.7-11.3,6c-9.3,4.8-17.3,9.4-25.8,13.2c-64.8,29.4-133.5,41.7-204,44.7
					c-40.3,1.7-80.5-0.9-120.3-7.3c-40.2-6.4-79.5-16.2-116.9-32.5c-14.7-6.4-28.9-14.1-43.3-21.2c0,0-0.1,0-0.1-0.1
					c-2.5-1.6-5-3.3-8-4.9c-0.1,0-0.2-0.1-0.2-0.2c-3.6-3.2-2.4-6.4-0.7-9.8c15.5-31.6,29.2-64,41-97.2c9.5-26.7,16.9-54,21.2-82.1
					c3.3-21.5,1.5-42.8-2-64c-2-11.8-4.2-23.4-6.5-36.6c-1.5-7.5-1.5-7.5-9.8-7.7c0,0-0.1,0-0.1,0c-11.1-1.3-21.4-2.2-31.6-3.9
					c-35.8-5.9-68.8-18.4-97.2-41.6c-3.2-2.6-6.6-5-10.3-7.9c-2.9-2.3-5.5-4.3-8.2-6.2c-0.1-0.1-0.2-0.1-0.2-0.2
					c-5.1-6.8-10.3-13.6-15.3-20.5c-2.6-3.6-4.8-7.6-7.6-11.1c-4-5.1-3.8-9.7-0.7-15.4c30.3-56.2,56.2-114.4,78.6-174.1
					c5.4-14.5,11.1-28.9,17.3-43.1c8-18.1,20.8-32.5,38.6-43.6c0,0,0.1,0,0.1,0c3.7-1.9,6.3-3.5,9.5-5.3c3.9-2.2,7.2-4.2,10.5-6.3
					c49.8-31.4,103.9-52.6,161.8-62.4c0.7-0.1,1.4,0.5,1.3,1.2c-0.1,1.1-0.2,1.9-0.3,3.2c0,0.5-0.5,1-1,1c-2.5,0.3-4.9,0.6-6.8,0.8
					c-6.2,0.5-9.8,3.5-10.8,9.8c-0.9,6.2-2.8,12.3-3,18.5c-1.5,37.6,21,71.9,55.9,86c51.3,20.7,108.6-1.5,132.6-51.3
					c8.1-16.9,11.4-34.5,7.6-53.1c-1-4.9-2.7-8.3-8.2-8.7c-1-0.1-2-0.2-3-0.4c-3.5-0.7-6.9-1.6-10.4-2.9c-0.4-0.2-0.7-0.6-0.7-1
					c0-1.2,0-2.1-0.1-3.3c-0.1-0.7,0.6-1.3,1.3-1.2c53,9.5,103,28.3,149,54.9c6.7,3.9,13.4,7.8,20.4,12.2c3.1,2,5.8,3.5,8.5,4.9
					c23.1,12.9,38.7,32,48.1,56.6c19.6,51.5,39.9,102.7,63.7,152.4c8.6,18,17.6,35.8,27.2,53.3c3.9,7.2,4.5,12.8-0.8,19.4
					c-7.4,9.2-14.2,18.9-22,29.2c0,0.1-0.1,0.1-0.2,0.2c-3.2,2.8-5.8,5-8.9,7.4c-12.9,10.1-25.3,19.8-39.4,27.1
					c-31.2,16.3-64.9,22.8-100.2,25.6c-0.1,0-0.1,0-0.2,0c-6.3-0.6-7.9,3-8.2,7.7c0,0,0,0.1,0,0.1c-2,12.3-3.6,24.8-6,37
					c-7.1,36-2.8,71.2,6.8,106.1c11.9,43.3,28.8,84.7,47.8,125.3c1.8,3.8,3.5,7.6,5.2,11.4C737,1475.5,736.9,1475.8,730.4,1481.3
					 M705.9,1094.5c-8.1,24-20.2,70.3-21,80.9c-0.1,0.7,0.6,1.3,1.3,1.2c6.3-0.8,12.6-1.3,18.7-2.8c9.8-2.3,19.3-5.5,30.4-8.5
					c25.8-7.1,50.1-17.9,72.6-32.2c18.1-11.5,33.4-25.9,45.1-44.1c3-4.7,3.3-8.5,0.3-13.1c-3.1-4.7-5.8-9.7-8.6-14.7
					c-17.8-31.1-34.4-63-47.7-96.2c-12.7-31.6-24.2-63.6-35.7-95.7c-7.2-20-18.1-37.2-36.1-48.8c-25.8-16.7-52.2-32.5-80.8-44.4
					c-21.3-8.8-42.8-16.8-65.2-22.3c-2-0.5-4-0.6-6.4-0.8c-0.7-0.1-1.4,0.6-1.2,1.3c1,6,2.2,10.9,2.3,15.8
					c0.2,5.6-0.6,11.3-1.4,16.9c-3.6,23.6-14.4,44-31.5,60c-27.1,25.3-59.5,35.2-96.6,29.4c-57.9-9-95.7-63.5-82.5-116.3
					c0.5-1.8,0.4-3.7,0.5-6.4c0-0.7-0.6-1.3-1.4-1.2c-3.9,0.8-7,1.3-10,2.1c-25.4,7.1-50.3,15.5-73.8,27.4
					c-20.7,10.5-40.8,22.4-61.2,33.7c-22.1,12.2-35.9,31-43.9,54.5c-5.2,15.3-10.4,30.5-15.9,45.7c-19.8,54.6-44.2,107.1-74.2,156.9
					c-4.6,7.6-3.8,12.8,0.7,19.4c12,17.6,27.6,31.4,45.5,42.5c26.6,16.5,55.6,27.6,87.1,36c10.7,3.2,21.6,4.8,32.8,6.1
					c1.6,0.2,2.9-1.3,2.4-2.9c0,0,0,0,0,0c-3.5-12.7-7.4-25.2-10.6-37.9c-5.4-21.1-10.6-42.2-15.3-63.5c-2-8.9-2.3-18.2-3.4-29
					c0-0.1,0-0.1,0-0.2c0.5-12.2,1.2-24.4,1.6-36.5c0.7-22.3,5.9-43.7,12.8-64.7c1.2-3.5,2.7-6.9,6.6-10.4c0.8-0.7,2-0.1,1.9,1
					c-0.4,3.9-0.5,6.7-1,9.4c-2.6,14.4-5.5,28.7-8,43.1c-4.7,26.5-3.7,53,1.8,79.1c5.6,26.6,12.2,52.9,19.1,79.1
					c7.9,30.1,13.4,60.5,16.9,91.4c1.2,10.3,2.5,20.9,1.5,31.2c-1.7,17.8-4.3,35.6-8.2,53c-9.2,41.3-25.4,80.2-42.4,118.7
					c-4.2,9.6-8.8,18.9-13.2,28.5c-3.1,6.8-3,7.2,3.6,11.3c3.6,2.2,7.2,4.3,10.9,6.2c29.5,15.6,61,25.8,92.9,35
					c38.8,11.2,78.4,18.8,118.7,20.9c37,1.9,74,0.8,110.7-5.4c47.5-8.1,93.9-20.6,138.3-39.4c11.8-5,23.1-11.1,34.4-17.2
					c6-3.3,6.1-4.7,3.5-10.9c-2-4.7-4.1-9.3-6.2-13.9c-15.8-34.2-30.4-68.8-41.4-104.9c-9.4-30.9-17.1-62.2-15.5-94.9
					c0.4-7.7,1.1-15.5,1.8-23.2c2.5-27.4,7.8-54.3,14.7-80.9c9.3-35.8,20.2-71.1,23.7-108.3c1.8-19.5,1.3-38.8-1.6-58
					c-2.2-14.4-5.8-28.6-8.6-43c-0.3-1.6-0.3-3.3-0.3-5.6c0-0.9,1-1.5,1.8-1c5.2,3.5,6.6,8.2,8,12.6c6.1,18.5,10.6,37.4,11.2,56.9
					c0.6,19.3,0.6,38.7-0.1,58c-0.4,10.9-2.8,21.8-5,33.7C705.9,1094.4,705.9,1094.5,705.9,1094.5z"/>
			</g>
			<path class="st18" d="M534.6,714.1c-6.6,1.6-12.7,3.4-18.5,6.9c-5,3-11,5.4-16.7,5.8c-8.3,0.6-16.5,5.1-24.6,6.3
				c-18.3,2.7-38.3,4.7-55.8-3.6c-6.6-3.1-13.3-6.6-21-8.9c0.8-10.6,3.5-23.2,5.1-34.5c2.8,0.7,4.5,1.5,6.3,2.4
				c16.5,8.5,33.5,15.8,52.1,17.5c6.9,0.7,14.2,0,21.1-1.4c14.6-3,28.5-8.5,41.6-15.7c2-1.1,4.2-1.9,7.7-3.4
				C532.8,695.4,533.8,704.4,534.6,714.1z"/>
			<path class="st19" d="M534.6,714.1c1.8,13.5,2.3,27.9,6.4,41.4c0.2,0.5,0.9,0.4,0.9-0.1c0-3.8,0-8.2,0-12.1
				c4.3,0.3,8,1.3,13.4,2.5c6.2,1.4,7.8,4.6,8.8,9.8c3.8,18.6,0.5,36.2-7.6,53.1c-24,49.8-81.3,72-132.6,51.3
				c-34.9-14.1-57.4-48.3-55.9-86c0.2-6.2,2.1-12.3,3-18.5c0.9-6.3,4.6-9.3,10.8-9.8c2.1-0.2,4.9-0.6,7.7-0.9
				c0.2,4.3-1.2,8.6-1.8,13c-0.1,0.9,0.3,1.2,0.6,1.3c0.4,0.1,0.9,0.1,1.4-0.6c0.5-0.9,1.5-4.5,2.1-7.1c0.8-3.8,1.9-7.9,2.7-11.6
				c1.6-6.6,2.4-13.4,4-22.3c8,1.7,35.7,17.3,76.5,13.3c8.1-1.2,29.8-4.5,41.1-9.8C521.9,717.5,528,714.9,534.6,714.1z"/>
			<path class="st7" d="M389.5,744.8c0.1-1.6,0.2-3.9,0.6-6.8c2.5-19.9,4.6-37.8,6.8-56.1c0-0.1,0-0.2-0.1-0.3
				c-57.9-37.6-101.3-85-113.3-155.6c0-0.2-0.2-0.3-0.3-0.2c-12.1,1.4-22-2.9-31.8-8.9c0,0,0,0,0,0c-1.8-1.4-3.3-2.4-4.8-3.4
				c0,0,0,0-0.1-0.1c-20.9-22.2-29.3-48.3-23.7-78.4c2.6-14,10.3-24.5,25.5-29.6c0,0,0,0,0,0c2.4-0.5,3.7-0.7,5.8-0.9c0,0,0,0,0,0
				c7.6,0.6,14.4,1.1,22.2,1.6c0.2,0,0.4-0.2,0.3-0.4c-1-4.8,1.6-27.1,2.9-30.2c0.1-0.3,0.5-0.2,0.6,0.1c2.5,20.5,5.5,40.2,6.8,60.1
				c1.5,23.2,1.3,46.5,2,69.8c0.7,24.5,6.4,47.9,16.6,70.1c16.6,36.1,42.5,64.6,74,88.4c18.4,14,38.4,25.2,60,33.6
				c16.5,6.4,33,7.7,49.7,1.6c7.8-2.9,15.9-5.5,23.3-9.2c42.6-21.6,76.3-52.8,100.7-94c8.6-14.5,14.7-29.8,18.9-46.8
				c7-23,7.3-46.2,8-70.2c1.5-20.4,2.3-40,4.3-59.4c1.3-12.5,6.2-25.6,7.7-37.7c0.2-2,0.8-3.3,1.1-4.1c0.4-1.4,0.5-0.5,1,0.1
				c1.6,2,1.7,14.5,1.5,17.7c0,0.2-0.5,7.2-0.5,11.2c0,0.2,0.2,0.4,0.4,0.3c9.1-3.2,17.5-2.9,26.5-0.8c0,0,0,0,0,0
				c1.3,0.4,5.3,1.7,6.4,2.4c12,6.7,16.7,18.7,18.2,31.8c2.8,24.7-3.5,47.1-20,67.4c0,0,0,0,0,0c-2.3,2.2-3.7,3.8-5.7,5.7
				c-10.6,8.9-22.1,13.7-35.7,12.1c-0.2,0-0.3,0.1-0.3,0.2c-0.9,3.7-1.7,6.8-2.3,9.9c-6.1,31.7-19.5,60-39.2,85.5
				c-16.2,20.9-35.1,39.2-57.2,53.7c-6.4,4.2-8.5,8.7-7.9,16.1c1.1,12.2,1.4,23.5,2.1,35.7c0.2,3.5,2.4,12.4,2.2,17.2
				c0,5.1,0,9,0,12.9c0,0.8-1.1,1-1.3,0.2c-4.5-13.8-5.1-28.1-6.9-42.9c-0.8-9.6-1.7-18.4-2.7-28.1c0-0.2-0.2-0.3-0.4-0.3
				c-3.3,1.4-5.4,2.1-7.3,3.2c-13.1,7.3-26.9,12.8-41.6,15.7c-6.9,1.4-14.1,2-21.1,1.4c-18.6-1.8-35.6-9-52.1-17.5
				c-1.6-0.8-3.4-1.3-5.9-2.3c-0.2-0.1-0.4,0.1-0.4,0.2c-1.6,11.2-3,21.6-4.8,32.6c-1.4,7.3-2.2,14.1-3.7,20.7
				c-1.3,5.7-2.4,14.9-4.9,20.2c-0.6,1.4-2.9,1.9-2.6-0.8L389.5,744.8 M655.8,450.5c-3.3,5.4-7.4,11-6.9,17.1c0,0.1,0.1,0.1,0.2,0.2
				c3.7,1.8,9.1,2.2,12,5.9c2.9,3.7,3.8,7.7,2.4,11.7c-0.1,0.3-0.5,0.3-0.6,0c-0.6-1.3-1.3-7.3-6.2-9.2c-1.9-0.7-4.3-1-8.3-0.3
				c-0.1,0-0.2,0.1-0.3,0.3c-0.7,14.4-1.3,28.9-2,44.2c0,0.2,0.1,0.3,0.3,0.3c12.1,0,21.6-3.4,29-12.7c0.7-0.9,5.7-6,7-7.9
				c13.1-19.3,18.6-40.7,14.6-63.7c-3.8-21.5-21.3-31.1-42.1-22.9c-0.1,0-0.1,0.1-0.2,0.2c-5.4,11.3-4.7,24.4-5.5,36.4
				c0,0.2,0.1,0.3,0.3,0.3c1.1,0,3.3-1,3.6-1.2c1.1-0.6,3-1.9,3.3-1.8C657.4,447.6,656.6,449.4,655.8,450.5 M265.9,484.6
				c0.5-3.1,0.2-5.5,1.3-8.8c0.8-2.4,2-3.3,2.8-4c2.6-2.2,6.2-2.8,9.3-4.2c0.1,0,0.1-0.1,0.2-0.2c1.7-6-0.1-9.2-3.8-13.1
				c-1.6-1.7-3.4-2.9-4.2-3.6c-0.4-0.4-1.2-0.8-0.7-1.9c0.3-0.7,2-0.4,2.9-0.1c0.9,0.3,3.9,0.6,5.9,0.8c0.2,0,0.4-0.1,0.4-0.3
				c-0.6-9.2-1.3-17.9-1.8-26.7c-0.5-7.9-0.5-8.1-10.3-11.1c0,0,0,0,0,0c-16.4-3.6-29.6,4-35,19.8c-3.8,11.1-3.9,22.3-1.3,33.5
				c3.6,15.9,8.6,31,22,43.4c7.3,7.8,16.3,11.8,28.1,12.5c0.2,0,0.3-0.1,0.3-0.3c-0.9-15.6-1.7-30.2-2.6-44.8c0-0.2-0.1-0.3-0.3-0.3
				c-5.1-0.4-7.8,1.5-9.7,4.8c-1.1,1.9-2,3.9-3,5C266.2,485.1,265.9,484.9,265.9,484.6z"/>
			<path class="st20" d="M655.2,407.1c-0.3-5.1-0.2-20.4-1.6-29.6c0-0.1-0.1-0.2-0.1-0.3c0.1-1.7-0.6-3.4-1-4.6
				c-2-5.4-6.2-9.6-10.2-13.6c-17.7-17.3-39-28.6-62.3-36.3c-0.7-0.2-30-9.8-40-12.2c-1.9-0.5-31.3-7.9-32.5-8.3
				c-4.9-1.5-17.3-5.5-24.1-7.4c-2.4-0.7-13.8-4.6-18.4-6.6c-24.6-10.5-47.7-23-62.2-46.8c-0.6-1.2-1.7-0.8-2.5-0.3
				c-0.5,0.3-1.6,1-1.9,1.2c-20.7,10.9-40.9,22.5-58.8,37.6c-17.9,15.1-33.5,32.2-44.4,53.2c-7.6,14.6-13.4,29.7-15.2,46.1
				c-0.3,2.5-1.5,22.7-3.5,26.6c-2.2-5.5-0.8-17.6-0.1-23.1c2.5-19.6,6.5-38.8,15.5-56.6c6.2-12.3,13.5-23.8,22.6-34.2
				c16.7-18.9,37.2-32.6,59.6-43.6c4-2,8-4,12-6.1c4.2-2.2,9.6-3.6,12.2-7.1c2.5-3.4-1.4-8.3-1.8-12.7c-1.2-13.8,2.2-26.3,10.7-39
				c1.3,4.7-1,6.9-2.1,9.3c-6.2,14.3-8.2,28.8-0.6,43.1c7.6,14.3,19,24,32.8,32.5c24,14.8,50.5,22.6,77.4,29.6
				c20.5,5.3,41.3,10.5,61.3,17.4c20.1,7,35.3,12.7,52.7,25.2c6,4.3,11.5,9.4,16.8,15.8c1.5,1.8,8.6,8.9,9.9,20.7
				C657.5,394.8,656.2,395.9,655.2,407.1z"/>
		</g>
	</g>
</g>
</svg>
