<?xml version="1.0" encoding="utf-8"?>
<!-- Generator: Adobe Illustrator 27.3.1, SVG Export Plug-In . SVG Version: 6.00 Build 0)  -->
<svg version="1.1" id="Layer_1" xmlns="http://www.w3.org/2000/svg" xmlns:xlink="http://www.w3.org/1999/xlink" x="0px" y="0px"
	 viewBox="0 0 1072.397 1072.397" enable-background="new 0 0 1072.397 1072.397" xml:space="preserve">
<g>
	
		<ellipse id="Ellipse_891" opacity="0.5" fill="#f2f2f2" enable-background="new    " cx="536.198" cy="536.198" rx="536.198" ry="536.198"/>
	<g>
		<defs>
			
				<ellipse id="Ellipse_891_00000097459520023332109430000013594997703745465489_" cx="536.198" cy="536.198" rx="536.198" ry="536.198"/>
		</defs>
		<clipPath id="Ellipse_891_00000147211432194395512670000012705550950875687852_">
			<use xlink:href="#Ellipse_891_00000097459520023332109430000013594997703745465489_"  overflow="visible"/>
		</clipPath>
		<g clip-path="url(#Ellipse_891_00000147211432194395512670000012705550950875687852_)">
			<path fill="#6E4438" d="M604.861,777.278c-10.715,5.318-20.703,10.942-31.351,14.694c-11.596,4.086-23.676,7.219-35.801,9.202
				c-5.924,0.969-12.576-1.067-18.646-2.687c-26.89-7.176-51.223-19.982-73.466-36.321c-14.776-10.854-32.08-22.701-44.945-35.733
				c-24.92-25.243-45.166-53.922-55.965-88.232c-6.745-21.431-11.094-43.275-11.07-66.007c0.026-25.085-1.106-50.174-1.921-75.256
				c-0.187-5.74-1.546-11.884-1.86-18.407c-0.047-0.987,0.694-1.844,1.681-1.898c0.79-0.044,1.512-0.185,2.079-0.333
				c0.755-0.197,4.632-1.322,6.915-4.064c0.676-0.812,1.64-2.144,2.239-3.23c0.38-0.689,0.53-1.019,0.758-1.474
				c3.206-6.724-0.221-11.796-3.52-16.668c-0.505-0.745-0.38-1.751,0.293-2.348c14.394-12.76,15.443-16.395,5.131-38.412
				c-0.336-0.717-0.169-1.573,0.419-2.102c5.915-5.326,12.094-10.642,14.312-19.16c2.156-8.276-3.685-16.622-6.792-24.835
				c-0.418-1.104,0.328-2.31,1.503-2.423c22.412-2.149,34.287-17.719,34.982-39.423c0.037-1.161,1.166-1.973,2.282-1.652
				c12.125,3.477,23.999,5.07,33.307-2.479c9.743-7.902,11.124-19.504,11.24-32.123c0.01-1.141,1.084-1.979,2.195-1.718
				c10.628,2.492,20.912,2.066,29.785-2.89c9.192-5.133,13.1-15.779,17.421-25.424c0.52-1.16,2.044-1.422,2.929-0.51
				c9.017,9.288,19.739,15.327,31.783,14.752c12.405-0.592,23.095-6.799,30.572-18.127c0.726-1.099,2.321-1.087,3.032,0.022
				c9.981,15.556,22.467,15.538,36.641,7.537c0.998-0.563,2.261-0.055,2.592,1.042c2.593,8.595,7.258,14.786,14.814,18.791
				c7.625,4.041,15.653,3.764,24,2.451c0.904-0.142,1.788,0.403,2.026,1.287c2.539,9.442,2.837,19.061,10.829,26.171
				c7.958,7.079,17.413,5.337,26.871,6.511c1.127,0.14,1.845,1.284,1.487,2.362c-0.714,2.148-1.362,4.041-1.885,5.968
				c-2.928,10.776,0.3,20.438,9.919,26.054c4.736,2.765,10.522,3.916,15.974,5.201c2.766,0.652,5.706,0.568,9.435,0.658
				c1.273,0.031,2.109,1.338,1.609,2.508c-7.328,17.157-3.751,30.237,12.26,38.615c0.818,0.428,1.202,1.389,0.87,2.251
				c-0.163,0.424-0.295,0.741-0.465,1.036c-0.501,0.869-1.153,1.651-1.648,2.523c-6.554,11.54-5.922,22.981,2.945,34.69
				c1.299,1.715,1.172,4.939,0.843,7.347c-0.402,2.939-2.026,5.745-2.501,8.63c-1.476,8.959-0.042,10.951,1.953,12.018
				c2.288,1.223,12.105,2.882,14.807,3.385c0.439,0.082,0.84,0.311,1.098,0.676c3.358,4.758,1.278,12.685,0.488,18.355
				c-3.33,23.874-3.871,47.858-4.043,71.935c-0.172,24.082-3.422,47.59-9.92,70.811c-8.011,28.629-23.307,57.215-41.812,80.478
				C662.159,738.21,634.961,759.096,604.861,777.278 M702.083,423.654c-4.308-4.216-8.433-8.64-12.957-12.611
				c-16.13-14.155-34.3-24.621-55.631-28.45c-15.157-2.721-30.101-1.798-43.712,6.492c-8.961,5.458-15.29,12.845-18.01,23.731
				c-0.317,1.267,0.816,2.433,2.098,2.186c12.152-2.344,23.321-4.645,34.56-6.535c12.81-2.155,25.488,0.128,37.701,3.466
				c11.873,3.245,23.595,7.542,34.767,12.71c10.321,4.775,20.016,10.901,30.692,17.054c1.361,0.784,3.046-0.434,2.656-1.955
				C712.459,432.775,706.52,429.291,702.083,423.654 M387.569,406.952c-8.564,8.473-17.271,16.811-25.607,25.503
				c-2,2.086-4.725,4.321-4.683,7.568c0.017,1.328,1.479,2.148,2.651,1.525c14.328-7.623,28.139-15.519,42.499-22.239
				c15.273-7.147,31.846-10.327,48.612-11.357c15.836-0.973,31.131,3.313,47.118,7.494c1.242,0.325,2.44-0.728,2.235-1.996
				c-1.149-7.096-4.398-12.01-8.443-16.321c-14.262-15.201-32.387-17.529-51.793-14.674
				C420.743,385.311,404.118,394.41,387.569,406.952 M466.434,664.071C466.434,664.071,466.692,663.919,466.434,664.071
				 M500.762,603.9C500.762,603.9,500.682,603.752,500.762,603.9 M442.363,430.748C442.363,430.748,442.518,430.668,442.363,430.748
				 M629.454,430.749C629.454,430.749,629.607,430.669,629.454,430.749z"/>
			<polygon fill="#FAFCFC" points="606.764,488.098 615.307,532.981 589.808,524.568 571.606,512.244 575.219,505.451 			"/>
			<path fill="#FAFCFC" d="M690.29,492.843l-32.625-5.711l2.08,9.579l2.168,14.098l-9.056,15.077l11.535-1.967l15.002-12.328
				c0,0,7.443-9.525,9.251-13.486C689.108,497.091,690.29,492.843,690.29,492.843z"/>
			<polygon fill="#FAFCFC" points="463.46,488.098 454.916,532.981 480.415,524.568 498.618,512.244 495.005,505.451 			"/>
			<polygon fill="#FAFCFC" points="380.141,492.572 412.766,486.861 410.687,496.441 408.519,510.539 417.575,525.616 
				406.04,523.648 391.037,511.321 381.302,496.878 			"/>
			<path fill="#F87360" d="M260.954,1163.877c-0.027,2.01-0.373,4.462-0.485,10.018c-0.008,0.384-0.141,0.764-0.393,1.054
				c-1.253,1.438-2.76,2.781-2.808,3.431c-1.699,22.922-3.762,45.831-4.742,68.787c-0.757,17.718-0.15,35.494-0.114,53.245
				c0.005,2.672-0.841,6.171,0.501,7.868c4.367,5.521,2.429,10.331-0.005,15.277c-0.353,0.718-1.169,1.086-1.94,0.872
				c-33.252-9.221-65.394-21.19-94.821-39.539c-20.355-12.692-38.103-28.274-51.554-48.442c-4.719-7.074-5.273-12.731-0.413-20.851
				c30.84-51.529,57.118-105.349,77.832-161.783c7.844-21.371,15.385-42.855,22.845-64.363
				c9.326-26.887,24.628-48.846,50.194-62.748c23.522-12.79,46.552-26.55,70.493-38.49c27.004-13.466,55.549-23.252,84.825-30.736
				c1.921-0.491,3.904-0.783,5.876-0.999c0.432-0.047,0.901,0.251,1.72,0.662c0.526,0.264,0.865,0.79,0.905,1.377
				c0.093,1.367,0.289,2.934-0.101,4.337c-16.027,57.647,24.435,117.166,82.202,130.273c41.879,9.503,79.711,1.609,112.734-26.39
				c22.86-19.382,36.027-44.128,41.324-73.65c2.074-11.559,0.487-22.571-1.414-34.47c-0.163-1.019,0.635-1.943,1.666-1.925
				c2.037,0.037,3.738,0.001,5.327,0.405c28.295,7.194,55.572,17.215,82.329,28.899c28.359,12.384,54.6,28.486,80.723,44.775
				c20.959,13.069,34.14,32.414,42.506,55.506c13.111,36.188,25.984,72.49,40.324,108.196
				c14.984,37.311,33.493,73.022,53.526,107.903c3.334,5.805,6.629,11.642,10.227,17.282c2.689,4.216,2.362,7.985-0.105,12.147
				c-7.409,12.497-16.428,23.727-27.405,33.15c-30.454,26.141-66.646,44.695-105.626,55.219c-0.789,0.213-1.609-0.187-1.955-0.928
				c-2.453-5.251-3.776-11.405-5.667-15.844c-1.289-3.024-11.279-31.207-11.85-33.089c-2.417-7.975-4.505-16.06-7.232-23.926
				c-0.937-2.704-3.112-4.979-4.846-7.406c-0.247-0.345-0.345-0.775-0.288-1.195c1.645-12.029,4.18-24.025,4.619-36.098
				c0.788-21.669,1.37-43.462-0.088-65.06c-1.163-17.223-5.244-34.28-8.539-51.312c-1.197-6.188-3.53-12.233-5.996-18.068
				c-1.308-3.095-3.642-5.756-5.667-8.547c-0.414-0.57-1.131-0.83-1.808-0.636l0,0c-0.688,0.197-1.171,0.812-1.199,1.527
				c-0.077,1.953-0.272,3.929,0.085,5.799c3.138,16.403,6.772,32.718,9.603,49.172c3.7,21.506,3.89,43.05,1.966,64.913
				c-3.43,38.973-14.649,76.086-24.553,113.549c-7.1,26.856-13.127,53.902-16.405,81.513c-1.338,11.271-3.039,22.52-3.843,33.83
				c-2.455,34.499,3.576,67.976,12.799,101.041c9.106,32.643,21.182,64.205,34.534,95.296c7.529,17.532,15.465,34.889,23.168,52.346
				c3.167,7.178,3.062,8.876-4.463,12.753c-15.451,7.96-30.976,15.916-47.005,22.588c-43.113,17.946-88.136,29.669-133.902,38.35
				c-18.002,3.415-36.366,5.625-54.661,6.624c-27.044,1.477-54.223,2.643-81.25,1.568c-22.605-0.899-45.206-4.415-67.575-8.169
				c-40.677-6.826-80.263-18.12-119.046-32.108c-22.708-8.191-44.841-17.734-65.472-30.444c-1.153-0.71-2.207-1.581-3.698-2.728
				c-0.582-0.448-0.803-1.227-0.541-1.913c1.63-4.268,3.079-8.569,5.005-12.644c18.758-39.695,35.767-80.098,49.216-121.925
				c9.129-28.391,15.613-57.273,18.707-87.088c1.898-18.293-0.535-35.932-2.229-53.861c-2.934-31.057-9.466-61.396-16.97-91.587
				c-7.58-30.497-15.982-60.838-22.127-91.626c-4.424-22.167-6.224-44.733-4.152-67.738c2.081-23.104,6.653-45.593,11.179-68.19
				c0.607-3.033,0.933-6.122,1.404-9.951c0.172-1.402-1.383-2.379-2.561-1.6c-3.984,2.632-5.565,6.173-6.486,9.543
				c-4.579,16.743-9.485,33.482-12.538,50.532c-2.581,14.415-4.017,43.681-3.834,45.995L260.954,1163.877z"/>
			<path fill="#6E4539" d="M614.137,815.231c1.486,15.814,6.748,36.774,6.641,31.43c22.679,0.889,25.405,3.653,25.98,29.094
				c0.572,25.323-9.673,46.684-24.457,66.349c-15.295,20.345-35.847,33.094-60.178,39.057
				c-41.577,10.189-79.719,2.706-109.614-29.046c-22.892-24.314-32.332-54.214-24.74-87.975c2.978-13.244,4.608-14.504,20.52-16.232
				c3.966-0.764,6.444-13.566,9.452-28.294c9.651,1.846,20.275,4.552,28.242,7.846c11.044,4.566,22.422,6.002,34.137,6.716
				c15.208,0.926,29.96-1.431,44.549-5.277c9.962-2.625,20.311-4.48,29.626-8.618C600.341,817.595,607.647,814.785,614.137,815.231z
				"/>
			<path fill="#603B34" d="M614.137,815.231c-6.519,0.363-13.796,2.364-19.841,5.051c-9.315,4.138-19.664,5.993-29.626,8.618
				c-14.589,3.845-29.342,6.203-44.549,5.277c-11.716-0.713-23.094-2.149-34.137-6.716c-7.968-3.294-18.591-5.001-27.724-7.466
				c0.939-12.475,3.679-25.899,5.559-39.321c8.674,3.877,17.503,7.273,25.244,10.858c14.382,6.662,29.531,9.807,45.161,11.766
				c5.46,0.685,11.319,0.477,16.82-0.692c18.471-3.926,35.868-9.735,52.026-19.578c0.514-0.313,6.946-3.678,7.496-4.873
				c4.388-0.526-0.429,4.606-0.123,8.433c0.525,6.567,2.309,13.114,3.016,20.519C613.477,810.112,614.177,812.269,614.137,815.231z"
				/>
			<path fill="#6E4438" d="M741.31,536.157c0.507-4.358,1.013-8.715,2.344-14.267c2.461-3.866-0.247-7.934-2.482-6.685
				c0.755-9.102,1.47-18.207,2.293-27.303c0.189-2.093,0.996-4.141,1.093-6.229c0.498-10.707,0.474-10.743,9.973-13.669
				c16.149-4.975,33.373,3.515,39.96,19.016c5.495,12.928,4.767,26.404,3.673,39.641c-1.293,15.633-7.422,30.03-15.751,43.334
				c-1.456,2.326-3.9,4.033-7.257,6.257c-10.416-3.938-17.888-9.275-16.985-21.68C757.306,540.43,754.467,537.475,741.31,536.157
				 M752.984,509.89C752.984,509.89,752.809,509.978,752.984,509.89z"/>
			<path fill="#603B34" d="M767.297,588.798c-3.356-1.83-12.838,1.256-9.505,5.536c-4.844,3.744-12.847,3.314-20.208,1.181
				c-0.574-16.494,0.581-41.269,2.357-58.607c7.118-0.742,13.751,1.902,15.155,7.759c0.36,1.5,2.473,2.58,3.781,3.853
				c-0.856,10.962,9.967,23.643,19.271,27.73C776.857,578.97,770.044,586.005,767.297,588.798z"/>
			<path fill="#42241B" d="M740.748,518.682c2.545-1.563,4.666-2.749,6.787-3.935c0.478,0.387,0.957,0.774,1.435,1.16
				c-1.554,2.537-3.107,5.073-5.15,8.025C742.329,522.585,741.327,520.822,740.748,518.682z"/>
			<path fill="#6E4438" d="M319.38,470.649c1.194,0.652,1.628,1.119,2.536,1.787c1.81,13.941,3.226,27.607,4.703,41.857
				c-2.696-0.544-4.788-0.966-7.249-1.463c5.959,6.145,7.171,13.734,9.547,20.009c-5.785,3.695-13.031,6.382-16.175,10.328
				c-2.42,3.037-1.862,8.448-2.927,14.354c-4.152,9.311-5.172,18.907-14.341,23.224c-11.483-8.947-17-21.742-21.326-34.888
				c-5.455-16.577-8.088-33.549-3.086-50.967c5.595-19.481,22.588-29.717,42.354-25.145
				C315.096,470.135,316.832,470.28,319.38,470.649 M315.522,510.943C315.522,510.943,315.327,511.049,315.522,510.943z"/>
			<path fill="#603B34" d="M311.522,594.121c1.581-2.542-0.344-4.927,1.872-7.584c1.412-1.693-0.024-2.039-0.647-3.419
				c-0.745-1.651,4.089-3.081,1.865-3.532c-5.883-1.194-8.382,4.065-13.548,6.855c-2.154-0.792-4.75-4.566-6.546-6.212
				c9.168-5.071,10.226-15.021,14.555-23.773c1.773-3.522,3.161-6.367,4.665-9.149c2.239-4.142,5.826-5.962,11.342-6.107
				c3.103,8.942,0.806,18.195,1.664,27.153c0.869,9.066,4.044,18.077,0.612,27.717C322.242,595.456,317.366,594.87,311.522,594.121z
				"/>
			<path fill="#57362F" d="M570.865,510.932c-1.224-9.049,1.93-17.277,5.633-25.072c10.495-22.096,29.342-43.837,49.899-40.812
				c15.662,3.175,31.346,6.903,44.268,16.935c8.865,6.882,16.926,15.201,19.625,26.801c-9.21-2.25-17.748-5.059-26.224-8.043
				c-10.164-3.578-20.56-5.647-31.353-4.695c-23.175,2.046-43.279,10.008-57.053,30.029
				C574.391,507.919,572.479,509.323,570.865,510.932z"/>
			<path fill="#57362F" d="M380.141,492.572c-0.498-7.093,3.881-14.424,7.984-19.252c11.296-13.293,27.22-18.688,43.652-23.16
				c4.49-1.222,9.094-2.025,14.005-3.099c16.562-6.176,36.812,16.95,47.245,35.77c4.877,8.799,8.415,18.006,6.747,28.49
				c-17.03-28.666-58.583-39.811-87.333-29.987C402.005,484.899,390.624,489.146,380.141,492.572z"/>
			<path fill="#25262A" d="M702.577,424.169c4.298,5.563,10.735,9.092,11.988,17.108c0.146,0.935-0.851,1.635-1.672,1.166
				c-11.193-6.401-21.254-12.833-31.992-17.8c-11.172-5.168-22.894-9.464-34.767-12.71c-12.213-3.338-24.891-5.621-37.701-3.466
				c-11.553,1.943-23.033,4.321-35.582,6.732c-0.802,0.154-1.496-0.571-1.317-1.368c2.574-11.444,9.014-19.12,18.251-24.746
				c13.611-8.29,28.555-9.213,43.712-6.492c21.33,3.829,39.501,14.294,55.631,28.45C693.65,415.013,697.775,419.438,702.577,424.169
				 M609.785,403.578c8.979,0.37,18.045,0.081,26.918,1.251c17.35,2.288,33.525,8.548,49.143,16.319
				c1.218,0.606,2.59,0.901,3.964,1.194c0.866,0.185,1.614-0.671,1.283-1.493c-1.042-2.58-2.494-4.451-4.322-5.818
				c-6.67-4.99-13.264-10.195-20.435-14.378c-18.2-10.618-37.509-17.368-59.009-13.031c-10.687,2.156-19.744,6.997-26.238,17.93
				c-0.482,0.811,0.19,1.826,1.124,1.693C591.69,405.899,599.921,404.745,609.785,403.578 M695.778,424.718
				C695.778,424.718,695.963,424.617,695.778,424.718z"/>
			<path fill="#25262A" d="M388.148,406.53c15.97-12.12,32.595-21.219,52.01-24.075c19.406-2.854,37.53-0.527,51.793,14.674
				c4.235,4.514,7.598,9.689,8.591,17.337c0.102,0.789-0.619,1.44-1.388,1.239c-16.348-4.26-31.949-8.746-48.113-7.753
				c-16.766,1.03-33.339,4.21-48.612,11.357c-14.655,6.858-28.254,14.685-42.899,22.451c-0.654,0.347-2.045-0.304-2.199-1.029
				c-0.721-3.395,2.386-5.936,4.631-8.277C370.298,423.763,379.004,415.426,388.148,406.53 M406.714,399.913
				c-8.457,6.06-17.947,10.918-24.468,19.46c-0.683,0.894,0.241,2.131,1.289,1.723c16.954-6.604,33.49-13.747,51.522-16.343
				c18.491-2.662,36.779-1.582,55.032,2.657c0.988,0.23,1.754-0.868,1.185-1.708c-10.023-14.776-24.607-20.507-41.582-19.499
				c-14.656,0.871-28.817,5.17-42.902,13.66C406.764,399.879,406.738,399.896,406.714,399.913z"/>
			<path fill="#42241B" d="M493.738,598.792c-7.331-7.967-7.532-13.496,0.417-21.39c6.984-6.934,13.513-14.214,16.855-23.44
				c3.043-8.403,5.904-17.214,6.642-26.029c1.107-13.227,2.162-26.783,0.288-39.162c3.261,3.824,5.832,12.504,5.981,22.551
				c0.129,8.707,0.733,17.492-0.177,26.105c-0.898,8.497-3.433,16.822-5.123,24.635c9.01,0.916,18.029,0.903,26.565,2.929
				c11.565,2.745,20.688,9.261,24.086,21.694c1.032,3.776,1.082,7.095-2.838,11.134c1.06-11.087-5.097-16.45-12.637-20.729
				c-15.785-8.957-31.89-8.867-48.01-1.047c-8.633,4.188-13.539,10.803-11.953,21.833
				C493.783,598.737,493.738,598.792,493.738,598.792z"/>
			<path fill="#42241B" d="M495.785,600.755c-0.637-0.211-1.161-0.583-1.809-1.538c-0.238-0.425-0.193-0.479-0.165-0.502
				c0.681,0.183,1.196,0.571,1.775,1.59C495.789,600.752,495.785,600.755,495.785,600.755z"/>
			<path fill="#42241B" d="M495.791,600.751c0.228,0.253,0.453,0.507,0.679,0.761c-0.161-0.084-0.323-0.168-0.585-0.504
				C495.785,600.755,495.789,600.752,495.791,600.751z"/>
			<path fill="#454C55" d="M608.836,403.586c-9.163,1.183-17.477,2.359-27.192,3.741c-0.689,0.098-1.212-0.64-0.865-1.243
				c6.514-11.309,15.69-16.271,26.548-18.462c21.5-4.337,40.809,2.413,59.009,13.031c7.171,4.184,13.765,9.388,20.435,14.378
				c1.886,1.411,3.371,3.357,4.419,6.064c0.278,0.718-0.365,1.464-1.118,1.303c-1.461-0.312-2.931-0.605-4.226-1.25
				c-15.618-7.771-31.793-14.032-49.143-16.319C627.83,403.659,618.764,403.948,608.836,403.586z"/>
			<path fill="#823E42" d="M483.682,677.22c-0.246-0.269-0.445-0.583-0.643-0.896c0.188,0.076,0.376,0.151,0.67,0.491
				C483.816,677.079,483.73,677.177,483.682,677.22z"/>
			<path fill="#454C55" d="M407.407,399.547c13.442-8.166,27.616-12.472,42.285-13.343c17.132-1.018,31.828,4.83,41.859,19.911
				c0.465,0.698-0.163,1.601-0.979,1.409c-18.413-4.332-36.86-5.455-55.514-2.77c-18.405,2.65-35.252,10.037-52.575,16.753
				c-0.724,0.281-1.382-0.561-0.93-1.192C388.092,411.166,398.023,406.156,407.407,399.547z"/>
			<path fill="#42241B" d="M448.891,847.793c0.085-1.861,0.263-4.383,0.711-7.721c2.844-22.466,5.234-42.807,7.683-63.495
				c0.015-0.131-0.045-0.259-0.155-0.331c-65.513-42.557-114.563-96.162-128.187-176.095c-0.031-0.18-0.197-0.303-0.378-0.282
				c-13.651,1.569-24.897-3.308-36.032-10.065c-0.013-0.008-0.027-0.018-0.039-0.027c-2.003-1.632-3.723-2.723-5.442-3.811
				c-0.025-0.016-0.049-0.035-0.069-0.057c-23.638-25.11-33.099-54.664-26.81-88.672c2.927-15.824,11.643-27.669,28.839-33.477
				c0.016-0.005,0.033-0.01,0.049-0.013c2.765-0.578,4.241-0.819,6.61-0.989c0.018-0.001,0.037-0.001,0.054,0
				c8.606,0.644,16.334,1.218,25.083,1.867c0.232,0.017,0.421-0.196,0.374-0.424c-1.115-5.437-2.305-10.429-3.052-15.486
				c-0.299-2.024,0.452-4.204,1.373-6.642c0.003-0.006,0.005-0.013,0.008-0.02c1.979-4.382,3.43-8.494,4.994-11.972
				c0.143-0.318,0.614-0.236,0.656,0.11c2.804,23.178,6.216,45.518,7.663,67.985c1.692,26.262,1.494,52.643,2.281,78.968
				c0.828,27.688,7.244,54.174,18.767,79.266c18.768,40.868,48.118,73.073,83.666,99.976c20.86,15.787,43.447,28.483,67.854,38.007
				c18.618,7.264,37.309,8.744,56.271,1.809c8.869-3.244,17.937-6.205,26.331-10.448c48.242-24.386,86.347-59.749,113.954-106.345
				c9.694-16.361,16.65-33.766,21.372-52.92c7.956-26.076,8.309-52.27,9.051-79.374c1.653-23.042,2.606-45.205,4.894-67.23
				c1.475-14.198,4.754-28.208,7.594-41.684c0.072-0.341,0.546-0.367,0.667-0.04c1.844,4.996,3.399,9.499,4.489,14.559
				c0.008,0.038,0.01,0.079,0.005,0.118c-0.515,4.331-0.533,8.066-0.534,12.537c0,0.242,0.241,0.413,0.469,0.332
				c10.307-3.678,19.845-3.247,29.997-0.863c0.007,0.002,0.015,0.004,0.023,0.006c1.466,0.441,6.022,1.971,7.266,2.664
				c13.558,7.542,18.867,21.107,20.536,35.975c3.132,27.908-3.988,53.328-22.614,76.254c-0.009,0.011-0.018,0.021-0.028,0.031
				c-2.559,2.542-4.163,4.333-6.423,6.399c-12.014,10.096-24.978,15.444-40.387,13.695c-0.176-0.02-0.341,0.098-0.382,0.27
				c-0.993,4.195-1.938,7.664-2.611,11.185c-6.862,35.859-22.012,67.908-44.297,96.7c-18.343,23.7-39.691,44.312-64.701,60.79
				c-7.242,4.771-9.63,9.823-8.889,18.17c1.223,13.78,1.612,26.588,2.348,40.417c0.213,3.993,0.783,8.944,0.737,12.959
				c-0.01,0.885,0.173,4.276,0.27,7.452c0.044,5.564-0.011,8.952-0.011,13.181c0,1.127-0.974,0.493-1.094,0.119
				c-4.987-15.501-4.58-31.493-6.634-48.054c-0.942-10.84-1.961-20.833-3.084-31.816c-0.024-0.235-0.276-0.379-0.493-0.286
				c-3.684,1.568-6.094,2.391-8.286,3.606c-14.826,8.211-30.468,14.446-47.04,17.798c-7.754,1.569-15.995,2.285-23.84,1.544
				c-21.098-1.992-40.324-10.192-58.977-19.828c-1.844-0.953-3.885-1.523-6.666-2.553c-0.209-0.078-0.444,0.057-0.475,0.278
				c-1.772,12.676-3.417,24.416-5.435,36.865c-1.624,8.298-2.466,15.964-4.223,23.414c-1.508,6.392-2.676,16.893-5.532,22.892
				c-0.866,2.269-3.269,2.177-2.919-0.899L448.891,847.793 M750.227,514.851c-3.702,6.08-8.339,12.487-7.78,19.33
				c0.008,0.094,0.1,0.167,0.185,0.209c4.182,2.089,10.345,2.521,13.598,6.681c3.244,4.148,4.31,8.697,2.661,13.255
				c-0.105,0.291-0.515,0.299-0.642,0.016c-0.674-1.505-1.471-8.3-6.99-10.361c-2.193-0.819-4.87-1.168-9.352-0.335
				c-0.159,0.03-0.283,0.166-0.29,0.328c-0.74,16.259-1.487,32.665-2.276,49.989c-0.009,0.2,0.155,0.371,0.355,0.371
				c13.741-0.048,24.407-3.82,32.858-14.421c0.796-0.998,6.501-6.767,7.976-8.937c14.861-21.849,21.057-46.024,16.525-72.049
				c-4.243-24.367-24.151-35.174-47.663-25.858c-0.086,0.034-0.158,0.101-0.198,0.184c-6.144,12.803-5.328,27.584-6.193,41.165
				c-0.013,0.203,0.155,0.374,0.358,0.374c1.21,0.001,3.721-1.131,4.115-1.34c1.271-0.673,3.368-2.129,3.788-2.024
				C751.948,511.598,751.079,513.658,750.227,514.851 M309.096,553.445c0.617-3.489,0.203-6.197,1.506-9.956
				c0.938-2.707,2.247-3.703,3.179-4.521c2.899-2.542,7.015-3.195,10.5-4.783c0.094-0.043,0.167-0.128,0.196-0.228
				c1.938-6.798-0.17-10.414-4.253-14.816c-1.787-1.927-3.835-3.277-4.706-4.049c-0.507-0.449-1.347-0.876-0.741-2.169
				c0.354-0.755,2.317-0.418,3.311-0.123c1.069,0.317,4.456,0.657,6.696,0.95c0.221,0.029,0.421-0.154,0.405-0.376
				c-0.718-10.44-1.46-20.302-2.05-30.174c-0.537-8.978-0.601-9.154-11.683-12.542c-0.012-0.004-0.024-0.007-0.036-0.009
				c-18.556-4.021-33.514,4.553-39.562,22.384c-4.254,12.539-4.369,25.2-1.501,37.915c4.046,17.943,9.773,35.128,24.842,49.076
				c8.284,8.836,18.398,13.319,31.78,14.097c0.21,0.012,0.388-0.165,0.376-0.375c-1.006-17.674-1.946-34.188-2.887-50.714
				c-0.01-0.175-0.155-0.319-0.33-0.331c-5.78-0.406-8.875,1.725-11.014,5.377c-1.239,2.115-2.263,4.357-3.42,5.655
				C309.468,553.997,309.034,553.794,309.096,553.445z"/>
			<g>
				<path fill="#A8874A" d="M752.682,578.417c0.809,0.701,8.686,0.86,17.369,11.957c1.805,2.307,2.905,4.01,4.024,6.717
					c6.935,16.778,10.186,33.947,9.085,51.892c-0.762,12.41-2.198,24.722-9.09,35.556c-5.606,8.812-15.198,15.023-24.07,15.302
					c-6.278,0-19.552-6.632-24.272-16.705c-6.944-16.235-3.291-27.922-1.306-31.999c1.641,5.399,1.987,10.758,2.674,15.721
					c1.706,12.333,9.22,17.393,19.231,23.778c2.979,1.9,5.23,1.511,8.22-0.266c12.218-7.263,17.703-15.783,20.728-28.865
					c3.692-15.964,2.349-31.91-1.166-47.689C772.231,605.389,754.977,586.75,752.682,578.417z"/>
				<path fill="#DEB565" d="M767.458,592.958c3.303,6.687,6.428,13.89,7.966,20.792c3.515,15.779,3.543,31.791-0.149,47.755
					c-3.025,13.082-8.51,22.602-20.728,29.865c-2.989,1.777-5.241,2.166-8.22,0.266c-10.011-6.385-18.412-12.204-20.118-24.537
					c-0.661-4.777-0.946-7.074-1.722-14.824c-0.043-0.429-0.02-1.349,0.072-1.771c3.356-15.424,9.496-35.781,13.329-50.124
					c0.065-0.396,0.102-0.574,0.84-0.492c1.118,0.125,1.996,0.225,3.258,0.26c0.926,0.026,0.193,2.731-0.116,3.711
					c-4.732,15.003-9.56,32.005-8.977,47.152c0.487,12.627,6.039,20.751,15.843,26.954c0.852,0.539,1.906,0.666,2.851,0.314
					c0.662-0.246,1.221-0.475,1.636-0.859c1.457-1.351,2.753-2.488,3.862-4.124c15.985-23.558,15.084-48.227,4.585-73.432
					c-0.547-1.314-11.857-13.965-14.424-16.885c-1.218-1.385-1.265-3.983,0.46-4.638
					C755.021,575.564,764.66,587.293,767.458,592.958z"/>
				<path fill="#A8874A" d="M747.66,600.054c-5.391,15.477-10.144,34.123-8.222,50.695c0.794,6.846,2.118,13.761,8.947,18.037
					c0.666,0.417,1.539,0.384,2.131-0.133c6.418-5.601,9.269-13.013,10.563-20.751c0.862-5.149,2.05-16.076,1.387-25.898
					c-0.417-6.177-1.755-11.879-2.686-15.736c-2.449-10.143-10.946-19.495-10.93-21.472c1.288,0.499,9.163,7.836,12.82,15.07
					c10.499,25.205,11.4,49.874-4.585,73.432c-1.11,1.636-3.09,4.107-4.695,4.887c-1.422,0.691-3.122,0.542-4.444-0.326
					c-9.4-6.163-14.577-14.498-15.053-26.847c-0.634-16.437,3.207-34.993,9.092-50.863C743.9,600.307,745.13,600.122,747.66,600.054
					z"/>
			</g>
			<g>
				<path fill="#A8874A" d="M293.042,613.816c-3.515,15.779-4.858,31.725-1.166,47.689c3.025,13.082,8.51,21.602,20.728,28.865
					c2.989,1.777,5.241,2.166,8.22,0.266c10.011-6.385,17.525-11.446,19.231-23.778c0.687-4.962,1.033-10.321,2.674-15.721
					c1.985,4.077,6.268,14.648-1.306,31.999c-4.72,10.072-17.994,16.705-24.272,16.705c-8.871-0.279-18.463-6.49-24.07-15.302
					c-6.892-10.834-8.328-23.146-9.09-35.556c-1.101-17.944,2.15-35.114,9.085-51.892c1.119-2.707,2.219-4.41,4.024-6.717
					c8.683-11.096,16.561-11.256,17.369-11.957C312.174,586.75,294.92,605.389,293.042,613.816z"/>
				<path fill="#DEB565" d="M319.444,578.343c1.725,0.655,1.678,3.253,0.46,4.638c-2.567,2.919-13.877,15.571-14.424,16.885
					c-10.499,25.205-11.4,49.874,4.585,73.432c1.11,1.636,2.405,2.773,3.862,4.124c0.415,0.385,0.975,0.613,1.636,0.859
					c0.945,0.352,1.999,0.225,2.851-0.314c9.804-6.203,15.357-14.328,15.843-26.954c0.584-15.147-4.245-32.149-8.976-47.152
					c-0.309-0.98-1.041-3.685-0.116-3.711c1.263-0.035,2.14-0.135,3.258-0.26c0.738-0.082,0.775,0.096,0.84,0.492
					c3.832,14.343,9.972,34.7,13.329,50.124c0.092,0.421,0.115,1.342,0.072,1.771c-0.776,7.75-1.061,10.047-1.722,14.824
					c-1.706,12.333-10.107,18.152-20.118,24.537c-2.979,1.9-5.23,1.511-8.22-0.266c-12.218-7.263-17.703-16.783-20.728-29.865
					c-3.692-15.964-3.664-31.976-0.149-47.755c1.538-6.902,4.663-14.105,7.966-20.792
					C302.491,587.293,312.13,575.564,319.444,578.343z"/>
				<path fill="#A8874A" d="M325.165,600.149c5.885,15.87,9.726,34.426,9.092,50.863c-0.476,12.35-5.654,20.684-15.053,26.847
					c-1.323,0.867-3.022,1.017-4.444,0.326c-1.605-0.78-5.246-3.353-6.355-4.989c-15.985-23.558-13.424-48.126-2.925-73.331
					c3.656-7.234,11.532-14.571,12.82-15.07c0.017,1.978-8.481,11.329-10.93,21.472c-0.931,3.856-2.269,9.558-2.686,15.736
					c-0.662,9.822,0.525,20.749,1.387,25.898c1.295,7.738,4.146,15.15,10.564,20.751c0.592,0.517,1.465,0.551,2.131,0.133
					c6.829-4.276,8.153-11.191,8.947-18.037c1.922-16.572-2.831-35.218-8.222-50.695
					C322.021,600.122,323.251,600.307,325.165,600.149z"/>
			</g>
			<g>
				<g>
					<path d="M570.113,512.973c0,0,25.507,28.083,64.411,23.445c38.904-4.638,53.847-33.751,55.136-41.481
						c0,0-9.79,20.096-34.009,29.629c-24.218,9.533-48.437,12.109-82.446-12.882L570.113,512.973z"/>
					<ellipse cx="630.844" cy="505.002" rx="33.596" ry="30.217"/>
					<ellipse fill="#22211E" cx="630.39" cy="505.294" rx="29.404" ry="26.446"/>
					<path fill="#FAFCFC" d="M609.692,496.983c0.31-2.056,1.598-5.434,6.626-6.44c7.391-1.478,6.701,6.602,4.631,10.445
						s-5.124,6.011-8.672,3.153C608.73,501.284,609.547,497.949,609.692,496.983z"/>
					<path d="M715.939,487.466c0,0-12.882,11.336-45.603,4.638c-32.721-6.699-47.406-7.987-73.943,4.38
						c-26.537,12.367-23.188,15.201-23.188,15.201l-3.092,1.288c0,0,6.795-30.03,48.038-38.868
						c34.354-7.361,54.741,10.775,70.176,13.48C700.478,489.716,715.939,487.466,715.939,487.466z"/>
				</g>
				<g>
					<path d="M500.366,512.973c0,0-25.507,28.083-64.411,23.445s-53.847-33.751-55.136-41.481c0,0,9.79,20.096,34.009,29.629
						s48.437,12.109,82.446-12.882L500.366,512.973z"/>
					<ellipse cx="439.636" cy="505.002" rx="33.596" ry="30.217"/>
					<ellipse fill="#22211E" cx="440.09" cy="505.294" rx="29.404" ry="26.446"/>
					<path fill="#FAFCFC" d="M418.646,496.983c0.31-2.056,1.598-5.434,6.626-6.44c7.39-1.478,6.701,6.602,4.631,10.445
						s-5.124,6.011-8.672,3.153C417.684,501.284,418.501,497.949,418.646,496.983z"/>
					<path d="M354.541,487.466c0,0,12.882,11.336,45.603,4.638c32.721-6.699,47.406-7.987,73.944,4.38
						c26.537,12.367,23.188,15.201,23.188,15.201l3.092,1.288c0,0-6.87-27.671-47.922-37.358
						c-33.982-8.019-50.191,7.181-70.292,11.971C370.152,490.445,354.541,487.466,354.541,487.466z"/>
				</g>
				<g>
					<g>
						<path fill="#4A2D26" d="M570.647,512.973c0,0-3.595-28.032,16.938-50.453c18.129-19.796,25.25-17.323,42.835-32.266
							c0,0-13.96,14.649-34.468,32.706C574.921,481.479,570.647,512.973,570.647,512.973z"/>
						<path fill="#4A2D26" d="M690.194,487.585c0,0-2.861-21.119-32.064-34.816c-25.573-11.995-44.439-9.623-44.439-9.623
							l-7.851,6.162c0,0,23.773-5.428,52.661,8.646C687.388,472.028,690.194,487.585,690.194,487.585z"/>
					</g>
				</g>
				<path fill="#4A2D26" d="M500.61,512.973c0,0,3.45-27.9-16.938-50.453c-14.385-15.913-21.329-11.519-42.835-32.266
					c0,0,1.829,5.985,8.874,12.288c7.046,6.303,20.422,14.302,28.016,23.417C492.328,483.487,500.61,512.973,500.61,512.973z"/>
				<path fill="#4A2D26" d="M380.141,488.098c0,0,5.552-23.752,35.046-36.809c22.111-9.789,41.379-7.142,41.379-7.142l5.777,3.756
					c0,0-23.487-2.243-48.888,8.87C384.016,469.652,380.141,488.098,380.141,488.098z"/>
			</g>
			<path fill="#542E2A" d="M465.647,662.071c0,0,18.846,11.145,36.555-3.288c16.869-13.748,25.213-10.914,31.656-11.282
				c6.443-0.368,16.882,1.959,26.51,7.905c9.628,5.946,19.806,14.539,35.039,9.052c0,0-7.26,7.565-13.716,16.969
				c-4.543,6.617-6.703,13.779-15.019,19.927c-9.592,7.092-26.529,7.979-31.587,7.845c-6.934-0.184-27.097,1.557-40.108-14.578
				C489.516,687.85,471.906,666.305,465.647,662.071z"/>
			<path fill="#321A1A" d="M463.273,660.409c0,0,9.155,5.415,22.264,24.177c16.147,23.109,36.584,26.584,49.24,26.641
				c12.817,0.057,28.523-1.897,40.9-18.398s13.337-21.776,19.021-28.675c0,0-17.075,23.564-27.325,30.334
				c-9.76,6.446-21.406,9.936-32.595,9.67c-17.729-0.422-31.223-4.128-44.29-19.175
				C476.874,669.306,463.273,660.409,463.273,660.409z"/>
			<path fill="#542E2A" d="M468.27,662.653c0,0,16.224,8.563,33.932-5.869c16.869-13.748,25.213-9.914,31.656-10.282
				c6.443-0.368,16.882,1.959,26.51,7.905c9.628,5.946,20.923,11.783,35.039,11.052c0,0-31.345,14.855-63.252,14.779
				C500.727,680.161,471.376,664.754,468.27,662.653z"/>
			<path fill="#321A1A" d="M452.443,652.016c0,0,31.614,31.047,80.509,30.227c48.738-0.817,71.516-21.575,85.084-32.976
				c0,0-33.664,26.364-85.198,26.82C481.304,676.543,452.443,652.016,452.443,652.016z"/>
			<path fill="#321A1A" d="M482.216,665.458c0,0,9.472-1.265,26.346-14.034s34.155-8.226,41.15-4.664
				c4.817,2.453,22.408,14.4,32.38,17.33c0,0-8.181-1.577-18.064-6.339c-9.844-4.743-22.394-8.255-30.088-8.255
				C511.065,649.496,507.527,662.265,482.216,665.458z"/>
			<path fill="#B3443E" d="M831.763,1673.922c-4.143,2.276-7.826,4.021-12.664,6.452c-14.994,7.407-28.556,14.789-42.721,20.736
				c-66.198,27.793-135.815,40.256-207.079,43.903c-54.989,2.814-109.668-1.21-163.805-11.666
				c-49.54-9.568-97.441-23.988-142.198-47.783c-5.596-2.975-11.228-5.883-16.844-8.822c-2.837-1.873-5.674-3.746-9.148-5.686
				c-4.615-4.078-2.468-7.936-0.51-11.955c17.003-34.908,32.133-70.61,45.151-107.196c10.78-30.297,19.232-61.21,24.209-93.018
				c3.763-24.049,1.719-47.948-2.219-71.749c-2.124-12.843-4.688-25.613-7.179-39.984c-1.527-9.16-1.527-9.16-10.868-9.748
				c-11.803-1.541-22.732-2.682-33.588-4.305c-45.852-6.858-87.244-23.818-122.753-55.146c-3.433-3.566-6.6-6.528-9.768-9.491
				c-8.997-12.051-17.961-24.128-27.01-36.141c-3.252-4.316-2.804-8.235-0.273-12.914c38.782-71.699,70.417-146.622,99.983-222.469
				c2.55-6.543,4.561-13.3,7.206-19.802c8.573-21.075,22.164-38.446,41.458-50.364c25.044-15.469,50.238-30.902,76.444-44.235
				c41.073-20.897,85.542-34.71,131.942-41.923c-0.323,2.91-0.482,4.607-0.639,7.178c-15.912,1.727-18.144,3.102-21.122,16.346
				c-7.592,33.762,1.848,63.661,24.74,87.975c29.895,31.752,68.037,39.235,109.614,29.046c24.33-5.962,44.882-18.711,60.178-39.057
				c14.784-19.666,25.029-41.026,24.457-66.349c-0.575-25.441-3.301-26.205-26-28.779c-0.179-3.104-0.209-5.371-0.24-7.639
				c44.007,6.729,85.748,20.74,126.232,38.948c29.746,13.378,57.329,30.475,84.383,48.474
				c20.732,13.793,35.339,32.644,43.574,56.137c14.416,41.129,31.398,81.211,49.127,120.976
				c12.267,27.516,25.081,54.794,37.991,82.017c5.304,11.183,11.259,22.08,17.4,32.832c3.045,5.332,3.229,9.911-0.466,14.754
				c-8.923,11.695-17.804,23.422-27.661,35.929c-3.535,2.977-6.111,5.16-9.3,7.616c-23.507,21.246-49.339,36.986-79.235,46.173
				c-25.277,7.768-51.075,12.083-78.069,14.297c-8.365,1.392-8.365,1.392-8.912,11.704c-4.652,24.632-9.637,49.202-10.552,74.382
				c-1.034,28.437,4.203,55.981,11.604,83.185c13.229,48.625,32.319,95.041,53.657,140.587c1.989,4.245,3.96,8.499,5.83,12.797
				C839.211,1667.253,839.092,1667.546,831.763,1673.922 M253.842,1325.189c12.962,3.821,26.164,5.984,40.678,6.519
				c-4.516-15.675-8.45-30.472-13.048-45.061c-11.358-36.038-19.389-72.673-21.014-112.151c-0.01-2.148,0.266-9.344,0.056-12.214
				c1.33-14.964,1.624-30.114,4.262-44.845c3.053-17.05,7.96-33.789,12.538-50.532c1.123-4.105,3.224-8.465,9.457-11.126
				c-0.729,5.386-1.046,9.305-1.813,13.134c-4.526,22.597-9.098,45.085-11.179,68.19c-2.072,23.005-0.272,45.571,4.152,67.738
				c6.145,30.788,14.547,61.129,22.127,91.626c7.504,30.192,14.036,60.531,16.97,91.587c1.694,17.929,4.127,35.567,2.229,53.861
				c-3.093,29.815-9.578,58.697-18.707,87.088c-13.449,41.827-30.458,82.23-49.216,121.925c-2.101,4.445-3.634,9.158-5.454,13.806
				c2.046,1.53,3.295,2.622,4.687,3.48c20.63,12.709,42.764,22.253,65.472,30.444c38.783,13.988,78.369,25.283,119.046,32.108
				c22.369,3.753,44.97,7.27,67.575,8.169c27.027,1.075,54.207-0.092,81.25-1.568c18.295-0.999,36.659-3.209,54.661-6.624
				c45.766-8.68,90.789-20.404,133.902-38.35c16.029-6.672,31.554-14.628,47.005-22.588c7.525-3.877,7.63-5.575,4.463-12.753
				c-7.703-17.458-15.639-34.814-23.168-52.346c-13.352-31.091-25.428-62.653-34.534-95.296
				c-9.223-33.065-15.254-66.542-12.799-101.041c0.805-11.311,2.505-22.559,3.843-33.83c3.278-27.611,9.305-54.657,16.405-81.513
				c9.905-37.463,21.123-74.576,24.553-113.549c1.924-21.863,1.734-43.407-1.966-64.913c-2.831-16.454-6.465-32.769-9.603-49.172
				c-0.431-2.251-0.059-4.656-0.059-6.99l2.303-0.661c2.158,3.151,4.888,6.06,6.345,9.507c2.466,5.835,4.799,11.88,5.996,18.068
				c3.295,17.032,7.377,34.089,8.539,51.312c1.458,21.598,0.876,43.391,0.088,65.06c-0.447,12.292-3.066,24.504-5.614,37.859
				c-8.082,28.833-16.189,57.66-24.184,86.517c-0.478,1.724-0.062,3.695-0.062,6.51c11.677-2.061,22.49-3.555,33.091-5.978
				c7.682-1.756,15.083-4.745,24.181-7.392c38.7-11.174,74.635-27.812,105.433-54.248c10.977-9.422,19.996-20.652,27.405-33.15
				c2.468-4.162,2.794-7.931,0.105-12.147c-3.598-5.641-6.893-11.478-10.227-17.282c-20.033-34.882-38.542-70.593-53.526-107.903
				c-14.339-35.705-27.213-72.008-40.324-108.196c-8.366-23.091-21.547-42.436-42.506-55.506
				c-26.123-16.289-52.363-32.391-80.723-44.775c-26.757-11.684-54.034-21.705-82.329-28.899c-2.079-0.529-4.35-0.304-7.313-0.475
				c2.033,12.67,3.923,24.263,1.734,36.465c-5.296,29.522-18.463,54.268-41.324,73.65c-33.023,27.999-70.855,35.892-112.734,26.39
				c-57.767-13.108-98.229-72.626-82.202-130.273c0.293-1.055,0.255-2.202,0.179-3.288c-0.092-1.302-0.879-2.487-2.09-2.972
				c-0.228-0.092-0.424-0.137-0.612-0.116c-1.972,0.216-3.956,0.508-5.876,0.999c-29.276,7.484-57.821,17.27-84.825,30.736
				c-23.942,11.939-46.971,25.699-70.493,38.49c-25.566,13.901-40.867,35.861-50.194,62.748
				c-7.461,21.508-15.001,42.992-22.845,64.363c-20.714,56.434-46.992,110.254-77.832,161.783c-4.86,8.12-4.306,13.776,0.413,20.851
				c13.452,20.168,31.199,35.75,51.554,48.442C185.964,1303.482,218.569,1315.524,253.842,1325.189z"/>
			<path fill="#454C55" d="M299.785,298.805l9.6-21.818l28.102-7.68l-2.095-24.786l14.662-13.091l23.215-2.618l1.92-14.313
				l9.871-4.366l2.696-26.005l13.615-9.426l17.804,0.873l18.677,15.884l11.52-18.502l16.757-2.444l12.742,7.68l3.491-23.215
				l17.455-10.822l18.257-4.637l31.656,18.706l6.278,12.314l24.87-15.936l21.007,6.036l13.522,18.351l-2.325,10.883l25.058-14.084
				l16.096-1.646l19.022,11.523l2.926,12.986l-8.211,15.053l11.496-3.399l13.195,6.598l-1.434,14.558l13.496-4.689l19.813-0.759
				l16.983,20.795l4.315,12.696l-2.851,14.456l21.888,10.282l6.414,24.071l-7.635,20.01l20.157,15.474l5.263,29.464l-5.263,13.026
				l-18.686,3.755l14.138,29.604c0,0-4.411,8.062-14.736,19.258c-3.944,4.277,11.279,19.374,5.525,24.291
				c0,0-17.763,0.922-31.605,5.995c-13.643,5.001-17.619-3.181-17.619-8.084s3.087-23.787,3.087-23.787l-4.54-10.169l-0.363-13.074
				l9.987-17.069l-13.437-7.082l-6.719-10.895l4.358-19.248l1.57-7.99l-21.544-0.726l-17.795-9.442l-1.453-18.158l3.632-10.169
				l-20.519-2.724l-14.113-7.626l-7.118-26.874l-16.174,2.179l-16.524-6.537l-9.624-18.158l-11.076,7.082l-13.982,1.634
				l-11.984-8.716l-3.087-13.8l-14.527,22.516l-22.698,4.903l-17.25-6.719l-14.163-12.892l-5.266,16.524l-12.529,14.89
				l-11.258,3.087l-24.15-2.179l1.816,13.8l-4.903,15.979l-15.253,13.074l-24.695-4.358l-4.219,25.603l-11.579,11.803l-24.15,5.266
				l8.693,15.798l-2.701,15.798l-16.342,16.342l10.169,15.947l-0.545,12.016l-11.258,13.074c0,0,16.117,16.054-0.113,25.186
				c-9.944,5.596-29.808-1.469-34.454-17.943c-2.937-10.413-15.504-22.987-16.101-33.289c-0.238-4.107,1.045-14.694,20.749-25.253
				c0,0-24.366-24.123-23.304-29.236c1.061-5.106-8.06-21.547,4.015-30.371c9.474-6.923,19.26-11.512,25.135-19.026L299.785,298.805
				z"/>
			<path fill="#25262A" d="M723.495,466.151c0.8,2.469,2.525,3.221,2.073,3.387c-0.453,0.167-1.914-0.149-4.074-2.649
				c-1.665-1.928-1.521-5.468-1.692-7.371c-0.17-1.891-0.243-5.182,0.44-7.403c0.717-2.332,1.924-4.681,2.255-7.103
				c0.329-2.408,0.456-5.632-0.843-7.347c-8.868-11.709-8.499-23.15-1.945-34.69c0.495-0.872,1.148-1.654,1.648-2.523
				c0.242-0.42,0.407-0.885,0.695-1.638c0.199-0.521-0.037-1.106-0.535-1.358c-16.783-8.513-20.367-22.018-12.419-39.834
				c0.318-0.713-0.181-1.523-0.961-1.55c-4.238-0.143-7.466,0.024-10.487-0.689c-5.451-1.285-11.238-2.437-15.974-5.201
				c-9.619-5.616-12.848-15.278-9.919-26.054c0.59-2.17,1.337-4.296,2.158-6.793c0.209-0.635-0.202-1.32-0.864-1.416
				c-9.755-1.413-19.558,0.671-27.767-6.632c-8.165-7.263-8.299-17.146-10.997-26.783c-0.149-0.533-0.684-0.864-1.231-0.775
				c-8.572,1.397-16.811,1.792-24.627-2.35c-7.794-4.131-12.511-10.588-15.053-19.61c-0.195-0.692-0.978-1.015-1.6-0.654
				c-14.762,8.562-27.988,9.607-38.231-7.221c-0.413-0.678-1.405-0.686-1.827-0.014c-7.514,11.976-18.195,17.626-30.94,18.235
				c-12.36,0.59-23.297-4.019-32.46-13.816c-0.532-0.569-1.47-0.428-1.789,0.283c-4.497,10.01-8.386,19.412-17.884,24.716
				c-9.103,5.084-18.698,6.187-29.671,3.435c-0.692-0.174-1.36,0.34-1.361,1.053c-0.019,12.989-2.223,24.16-12.187,32.242
				c-9.523,7.724-20.021,10.019-32.516,6.185c-0.699-0.215-1.402,0.291-1.416,1.023c-0.437,22.532-11.394,35.553-34.721,37.474
				c-0.721,0.059-1.196,0.783-0.942,1.46c3.217,8.575,6.546,16.099,4.314,24.67c-2.265,8.699-8.662,14.058-14.689,19.5
				c-0.363,0.328-0.464,0.862-0.256,1.306c10.668,22.659,10.318,25.982-4.594,39.162c-0.404,0.357-0.489,0.961-0.193,1.411
				c2.281,3.461,4.424,7.026,4.476,11.194c0.016,1.275-1.759,1.557-2.118,0.334c-1.884-6.425-7.381-10.621-14.322-14.588
				c-0.807-0.461-0.699-1.659,0.178-1.968c1.735-0.612,2.918-1.062,4.14-1.245c11.817-1.767,16.994-11.444,11.196-21.906
				c-2.044-3.688-5.435-6.643-8.291-9.861c-1.362-1.535-2.84-2.968-4.872-5.017c-0.559-0.564-0.344-1.521,0.402-1.794
				c2.69-0.986,4.425-1.629,6.168-2.248c15.34-5.449,20.47-18.341,12.971-32.971c-1.359-2.651-3.436-4.924-4.985-7.49
				c-0.807-1.336-1.488-1.96-2.524-4.314c-0.531-1.207,0.359-2.353,1.111-2.393c4.574-0.24,8.308-0.524,12.044-0.544
				c20.988-0.112,31.727-13.373,27.662-34.164c-0.691-3.534-1.174-7.109-1.68-10.505c-0.057-0.383-0.339-2.095,1.47-2.821
				c2.471-0.991,3.856,0.817,5.344,2.569c11.56,13.614,31.938,10.182,38.629-6.618c2.938-7.379,3.09-14.946,0.327-22.561
				c-0.354-0.977-0.472-2.039-0.525-3.125c-0.034-0.714,0.119-3.14,3.101-3.218c1.379-0.036,2.747,0.129,4.064,0.435
				c3.891,0.904,7.603,2.741,11.519,3.347c19.458,3.008,29.119-9.008,33.596-23.124c0.762-2.402,1.348-4.859,1.881-7.291
				c0.883-4.027,6.192-4.991,8.465-1.552l0,0c9.28,13.851,24.915,19.328,40.364,14.302c8.939-2.908,14.867-8.658,17.969-17.506
				c0.848-2.418,1.852-4.782,2.857-7.145c1.163-2.542,4.022-1.567,4.533,0.306c0.695,2.548,1.389,5.097,2.171,7.618
				c5.035,16.24,17.766,19.912,30.966,9.008c1.861-1.537,3.854-2.914,6.638-4.943c0.65-0.474,1.577-0.104,1.714,0.689
				c1.942,11.194,3.807,21.425,14.795,24.848c8.511,2.651,17.251,1.563,26.523-2.337c1.874-0.788,3.955,0.571,4.021,2.603
				c0.119,3.621,0.22,6.457,0.247,9.293c0.174,18.124,8.727,26.346,26.95,25.48c3.408-0.162,6.8-0.666,10.23-1.19
				c3.534-0.54,6.085,3.365,4.118,6.351c-0.772,1.172-1.618,2.264-2.097,3.492c-1.898,4.87-4.562,10.029-4.405,14.986
				c0.29,9.211,8.149,15.664,18.441,16.544c4.993,0.427,10.051,0.067,15.078,0.145c2.527,0.039,5.052,0.199,8.78,0.383
				c0.816,0.04,1.31,0.933,0.905,1.643c-1.833,3.217-3.332,5.526-4.305,8.039c-1.908,4.928-4.569,9.983-4.759,15.065
				c-0.317,8.509,6.288,14.981,15.662,16.99c3.157,0.677,6.623,0.461,7.551,5.167c0.068,0.342-0.053,0.693-0.307,0.932
				c-1.496,1.403-3.248,3.001-4.927,4.671c-6.012,5.98-9.105,13.09-8.488,21.702c0.614,8.555,3.164,10.632,11.421,9.144
				c1.443-0.26,2.911-0.385,4.604-0.558c0.736-0.075,1.335,0.591,1.189,1.316c-0.823,4.07-4.386,4.987-6.774,7.017
				C724.829,446.512,720.397,456.591,723.495,466.151z"/>
			<path fill="#4A2D26" d="M584.702,540.862c-0.57-0.15-0.856,0.665-0.316,0.901c8.842,3.869,24.65,22.151,57.004,16.798
				c23.755-3.93,36.595-12.536,44.071-20.669c0.441-0.48-0.12-1.215-0.697-0.911c-8.076,4.255-32.212,15.289-48.025,16.835
				C606.622,556.76,595.778,543.771,584.702,540.862z"/>
			<path fill="#4A2D26" d="M485.075,540.909c0.546-0.243,0.904,0.645,0.378,0.929c-7.118,3.844-24.023,23.39-57.419,17.688
				c-25.049-4.277-39.952-18.004-44.105-22.607c-0.31-0.344,0.066-0.867,0.49-0.682c3.72,1.624,12.647,6.946,24.295,11.276
				C443.528,560.454,456.496,553.646,485.075,540.909z"/>
			<path fill="#3F2119" d="M591.918,619.162c0.518,2.932,3.292,14.308,16.074,23.096c14.795,10.171,23.061,13.639,30.024,23.81
				s7.887,15.026,6.963,24.966c0,0-0.483,2.927,1.204,3.669c1.686,0.742,3.305-2.698,3.305-5.397c0-2.349,0.118-9.012-1.132-13.962
				c-1.272-5.038-5.328-10.928-11.235-16.943c-4.732-4.819-11.469-9.298-18.934-13.116c-16.44-8.409-21.1-15.814-26.065-26.184
				C592.018,618.884,591.836,618.7,591.918,619.162z"/>
			<path fill="#3F2119" d="M477.953,619.162c-0.518,2.932-3.292,14.308-16.074,23.096c-14.795,10.171-23.061,13.639-30.024,23.81
				s-7.887,15.026-6.963,24.966c0,0,0.483,2.927-1.204,3.669c-1.686,0.742-3.305-2.698-3.305-5.397
				c0-2.349-0.118-9.012,1.132-13.962c1.272-5.038,5.328-10.928,11.235-16.943c4.732-4.819,11.469-9.298,18.934-13.116
				c16.44-8.409,21.1-15.814,26.065-26.184C477.853,618.884,478.035,618.7,477.953,619.162z"/>
			<path fill="#25262A" d="M300.75,463.248c0,0-4.335-7.897-0.985-13.809c0,0-20.1-5.715-18.523-26.996
				c1.576-21.282,22.661-23.449,22.661-23.449s-30.938-20.1-27.391-43.746c3.547-23.647,22.267-31.923,31.332-35.47
				c0,0-17.538-15.764-9.459-34.287c8.079-18.523,22.374-18.56,36.652-17.932c0,0-9.262-17.735,3.35-33.105s32.12-9.262,32.12-9.262
				s-6.743-15.384,13.001-16.783c0,0-7.68-26.766,11.828-36.224c19.508-9.459,37.243,6.7,41.184,13.991
				c0,0,2.956-12.611,17.538-17.735c14.582-5.123,22.07,4.926,22.07,4.926s-2.069-33.893,32.908-36.455s47.392,25.026,47.392,30.346
				c0,0,16.356-25.026,42.564-12.809c26.208,12.217,17.735,32.317,17.735,32.317s21.479-27.785,47.884-11.035
				s5.123,36.258,5.123,36.258s11.626-7.981,20.494-0.493s5.912,14.385,4.729,16.947c0,0,16.356-16.356,41.184,2.956
				s13.597,37.834,9.459,41.381c0,0,23.252,0.985,28.967,24.041c5.715,23.055-8.276,31.135-8.276,31.135
				s30.543,14.188,27.194,41.973c-3.35,27.785-24.632,22.267-24.632,22.267s17.538,23.844,11.823,37.046
				c-5.715,13.203-14.582,12.02-14.582,12.02s13.006,13.991,6.503,22.858l-5.99-0.89c0,0,8.165-6.707-4.811-18.225
				c-12.976-11.518-3.7-11.941-0.346-11.504c3.353,0.437,16.384-2.202,11.281-19.99c-5.103-17.788-9.477-19.392-9.477-19.392
				s-5.156-6.505,1.672-7.785s12.29,1.963,16.898-5.889c4.609-7.852,8.716-19.084-0.874-33.46
				c-6.784-10.17-14.626-13.447-17.577-13.572c-2.79-0.118-9.186-4.123-1.375-10.02c7.811-5.896,7.677-16.994,5.124-25.347
				s-6.729-19.374-24.362-19.838c0,0-8.701,0.812-4.06-6.497c4.64-7.309,5.801-17.518-3.364-29.119
				c-9.165-11.601-20.998-16.125-30.511-13.225c-9.513,2.9-7.616,4.262-10.148,5.723c-3.349,1.932-6.947,0.682-5.398-4.331
				c2.428-7.856,2.668-11.833-1.856-15.197s-9.165-4.176-14.733-1.044c-5.568,3.132-8.237,0-6.381-3.828
				c1.856-3.828,11.601-12.181,2.9-23.434c-8.701-11.253-22.506-15.429-38.632-4.872c0,0-6.033,3.016-9.281,7.193
				s-6.845,7.425-10.441,3.712c-3.596-3.712,0.116-6.033,0.232-12.297s-6.961-18.562-18.794-20.534s-21.346-1.16-30.627,10.441
				c0,0-6.961,11.137-10.209-0.58c-3.248-11.717-20.65-27.727-38.399-25.406c-15.724,2.055-25.075,4.93-30.392,21.127
				c-0.685,2.086-0.669,8.688,0.056,10.82c0.725,2.132,0.986,4.655-0.87,6.221c-2.224,1.876-3.74-0.41-5.82-3.019
				c-1.392-1.746-5.444-5.965-11.129-6.377c-5.483-0.398-12.791-0.567-19.483,8.746c-4.057,5.646-2.86,8.712-4.511,12.239
				c-0.751,1.603-1.896,2.713-3.706,2.398c-3.43-0.597-2.6-3.247-4.85-6.827c-0.43-0.684-2.837-4.526-6.276-7.027
				c-2.991-2.175-8.677-4.486-11.966-4.864c-5.451-0.626-10.962-1.216-16.191,2.877c-4.455,3.487-6.538,6.85-7.95,9.836
				c-1.544,3.264-1.591,7.906-1.601,9.841c-0.012,2.23,0.483,5.392,2.582,10.229c1.291,2.975,2.004,5.62,0.008,7.334
				c-2.995,2.572-6.452-5.242-11.325-2.805c-4.872,2.436-5.265,7.562-2.132,13.826s-3.87,3.686-3.87,3.686
				s-34.823-7.944-34.252,23.171c0.041,2.259,0.439,5.423,1.885,10.918c1.218,4.629,1.055,6.782-3.616,5.854
				c-5.521-1.097-25.653-1.549-30.99,13.946c-5.337,15.495,3.565,26.109,7.353,29.553c3.788,3.443,5.732,7.463,1.428,9.013
				c-4.304,1.55-30.129,9.297-30.474,29.441c-0.344,20.144,10.502,30.474,21.005,38.738c10.502,8.264,4.649,8.264-0.517,10.158
				c-5.165,1.894-19.283,7.403-17.389,22.554c1.894,15.151,14.979,17.389,14.979,17.389s7.575-0.172,3.616,6.715
				c-3.96,6.887-0.344,12.88-0.344,12.88L300.75,463.248z"/>
			<g>
				<path fill="#4A2D26" d="M458.968,353.95c0,0,34.092,3.351,50.024,3.908c7.981,0.279,16.951-0.755,28.364-1.078
					c27.024-0.765,64.943-3.342,68.14-2.504c0,0-33.39,5.073-46.35,7.682c-22.091,4.448-53.954,0.522-64.458-1.903
					S458.968,353.95,458.968,353.95z"/>
				<path fill="#4A2D26" d="M493.873,332.948c0,0,21.605,0.758,27.895,0.758c11.267,0,37.208-0.506,55.434-3.224
					c0,0-12.447,1.903-24.985,4.774c-7.035,1.611-11.85,2.47-19.986,3.171C515.698,339.851,513.06,338.321,493.873,332.948z"/>
				<path fill="#4A2D26" d="M365.399,507.969c0,0-6.101,0.953-11.821-5.339s-8.199-4.767-8.389-2.669
					c-0.191,2.097,7.627,8.111,13.918,8.059C365.399,507.969,365.399,507.969,365.399,507.969z"/>
				<path fill="#4A2D26" d="M368.275,514.386c0,0-8.83-1.533-16.493,4.379c-7.663,5.911-8.465,1.897-7.59,0.438
					C345.069,517.743,356.161,511.029,368.275,514.386z"/>
				<path fill="#4A2D26" d="M705.654,507.428c0,0,6.101,0.953,11.821-5.339s8.199-4.767,8.389-2.669
					c0.191,2.097-7.627,8.111-13.918,8.059C705.654,507.428,705.654,507.428,705.654,507.428z"/>
				<path fill="#4A2D26" d="M702.778,513.845c0,0,8.83-1.532,16.493,4.379c7.663,5.911,8.465,1.897,7.59,0.438
					S714.892,510.488,702.778,513.845z"/>
			</g>
			<polygon opacity="0.12" fill="#FFFFFF" points="541.305,477.214 547.281,469.576 561.495,460.61 630.844,457.128 
				719.332,454.032 755.474,456.676 760.55,468.356 748.306,493.833 731.841,528.061 709.378,545.336 675.545,546.79 
				605.351,549.152 565.01,548.378 549.411,536.23 544.339,513.169 			"/>
			<polygon opacity="0.12" fill="#FFFFFF" points="526.464,490.365 525.461,473.32 509.392,461.573 453.598,459.574 
				372.862,454.751 318.48,450.897 306.313,463.501 333.986,524.248 357.065,544.456 393.911,551.221 503.748,546.91 
				517.495,536.198 524.752,520.866 			"/>
			<polygon opacity="0.1" fill="#FFFFFF" points="371.56,458.231 404.466,547.217 475.253,551.928 432.187,458.838 			"/>
			<polygon opacity="0.1" fill="#FFFFFF" points="587.057,461.562 618.645,547.878 680.945,549.025 643.013,458.721 			"/>
			<g>
				<path fill="#702C20" d="M301.453,458.613c-0.053,0.002-0.107-0.001-0.16,0c0.077,1.457,0.172,2.912,0.197,4.373
					c0.216-0.108,0.428-0.243,0.627-0.443C302.728,461.092,302.616,459.765,301.453,458.613z"/>
				<path fill="#711A0B" d="M769.175,461.643c0.004-0.25,0.009-0.5,0.016-0.75c-0.007-0.05-0.017-0.099-0.025-0.149
					c-2.336-1.711-3.677-0.617-4.599,1.635c0.006,2.783,0.252,5.481,2.128,7.631C767.673,467.264,768.477,464.486,769.175,461.643z"
					/>
				<path fill="#510901" d="M314.55,453.13c-2.248-1.181-3.981-3.798-7.107-2.479c-0.199-0.003-0.387,0.022-0.577,0.04
					c-0.493,0.291-0.977,0.591-1.46,0.899c-0.357,0.255-0.726,0.491-1.1,0.721c-0.115,0.08-0.239,0.151-0.353,0.231
					c-0.131,0.105-0.281,0.175-0.42,0.266c-0.319,0.373-0.663,0.724-1.015,1.066c-0.245,0.575-0.536,1.096-0.87,1.562
					c-0.017,0.034-0.029,0.07-0.046,0.104c-0.05,1.024-0.099,2.049-0.148,3.074c0.104,1.273,0.208,2.545,0.311,3.817
					c3.409,4.471,6.316,9.699,13.284,8.825c0.361-0.252,0.626-0.537,0.841-0.837c-0.049-0.249-0.095-0.5-0.104-0.776
					c-0.135-4.115,0.208-8.549,4.693-9.831c0.106-0.567,0.125-1.143,0.037-1.725C319.514,455.261,316.642,454.655,314.55,453.13z"/>
				<path fill="#AF2921" d="M326.188,446.91c-0.272-0.173-0.546-0.308-0.82-0.442c-0.901,0.02-1.802,0.041-2.703,0.061
					c-0.85,0.139-1.706,0.23-2.564,0.23c-0.38,0-0.75-0.031-1.123-0.055c-0.428,0.061-0.86,0.107-1.298,0.132
					c-0.901,0.188-1.814,0.284-2.728,0.317c-0.196,0.047-0.391,0.095-0.587,0.142c-2.169,0.697-4.291,1.545-6.252,2.66
					c-0.199,0.114-0.398,0.236-0.598,0.352c-0.024,0.114-0.052,0.228-0.073,0.343c2.005,1.397,4.01,2.793,6.015,4.19
					C325.251,456.974,326.28,456.333,326.188,446.91z"/>
				<path fill="#510801" d="M768.055,456.464c-1.181-2.634-3.323-4.871-5.708-6.57c-0.29-0.108-0.571-0.226-0.887-0.307
					c-2.946,0.066-4.924,2.096-7.177,3.562c-2.094,1.523-4.949,2.117-5.928,4.974c-0.115,0.871-0.027,1.711,0.281,2.536
					c0.168,0.233,0.351,0.448,0.542,0.655c2.379,0.948,4.347,2.445,5.187,4.724c0.497,0.837,0.748,1.85,0.561,3.019
					c-0.143,0.894-0.331,1.772-0.538,2.645c5.649-0.52,9.874-2.816,11.015-8.935c0.77-1.576,2.167-1.984,3.764-2.023
					c0.005-0.22,0.01-0.439,0.015-0.659C768.914,458.836,768.571,457.614,768.055,456.464z"/>
				<path fill="#413337" d="M760.892,448.94c-0.118,0.101-0.224,0.307-0.315,0.635c-0.121,0.435,0.156,0.791,0.83,1.069
					c2.07,1.658,4.14,3.315,6.21,4.972C766.11,452.839,763.57,450.547,760.892,448.94z"/>
				<path fill="#951703" d="M321.536,486.579c-0.188-0.31-0.35-0.654-0.47-1.042c-0.809-2.61-2.367-4.938-3.157-7.636
					c-0.532-1.82-1.125-3.657-1.554-5.505c-0.094-0.407-0.176-0.808-0.25-1.206c-0.302-0.142-0.604-0.284-0.905-0.428
					c-5.853-0.56-7.728-7.533-13.436-8.326c-0.098,0.025-0.195,0.049-0.293,0.074c0.006,0.196,0.021,0.391,0.024,0.587
					c0.004,0.274-0.01,0.542-0.033,0.805c0.929,3.442,2.24,6.832,2.932,10.291c0.081,0.405,0.128,0.809,0.158,1.211
					c0.943,1.932,1.688,3.862,2.255,5.846c0.326,0.643,0.62,1.304,0.867,1.99c0.706,1.205,1.385,2.432,1.988,3.695
					c4.402,2.442,8.307,6.111,13.904,5.595c0.046-0.209,0.079-0.413,0.116-0.619C322.858,490.169,322.137,488.395,321.536,486.579z"
					/>
				<path fill="#510901" d="M341.011,524.519c-7.603-5.961-10.345-16.521-19.735-20.771c-1.592,0.374-2.58,1.385-3.074,2.916
					c-0.005,0.026-0.006,0.051-0.01,0.076c0.136,0.36,0.264,0.723,0.389,1.086c0.787,1.623,1.587,3.24,2.461,4.818
					c0.675,1.219,1.383,2.421,2.154,3.582c0.005,0.007,0.017,0.029,0.023,0.038c4.165,4.595,6.752,10.282,10.141,15.413
					c1.018,1.092,1.902,2.299,2.909,3.401c0.277,0.302,0.522,0.613,0.753,0.928c3.502,2.936,7.004,5.873,10.506,8.809
					C351.699,536.021,344.097,530.989,341.011,524.519z"/>
				<path fill="#522B22" d="M322.66,513.663c-0.728-2.671-2.512-4.396-3.239-7.068c-0.436-0.456-0.948-0.625-1.514-0.585
					c0.243,0.607,0.47,1.22,0.682,1.837c0.784,1.617,1.583,3.226,2.454,4.798c0.61,1.102,1.254,2.187,1.941,3.243
					C322.97,515.204,322.639,514.323,322.66,513.663z"/>
				<path fill="#520801" d="M742.784,519.651c1.376-2.691,2.778-5.373,4.452-7.931c1.223-1.869,2.224-4.043,3.415-6.053
					c-0.965-1.321-2.17-2.222-4.097-1.857c-7.087,5.84-11.678,13.925-18.172,20.284c-1.388,2.473-2.987,4.851-4.778,7.032
					c-2.719,3.927-4.941,8.01-2.267,13.647c0.306-0.214,0.635-0.405,0.983-0.575c1.151-0.771,2.303-1.543,3.454-2.314
					c0.591-0.85,1.355-1.586,2.294-2.143c1.587-2.385,3.489-4.465,5.623-6.317c0.317-0.538,0.703-1.034,1.146-1.485
					c0.898-1.445,1.936-2.784,2.779-4.317c1.209-2.2,2.365-4.357,4.126-6.166C742.011,520.812,742.358,520.205,742.784,519.651z"/>
				<path fill="#623B33" d="M742.805,519.625c0.536-1.043,1.068-2.089,1.625-3.124c-1.381,1.95-2.606,3.993-3.709,6.11
					c0.317-0.4,0.66-0.783,1.023-1.156C742.015,520.802,742.369,520.186,742.805,519.625z"/>
				<path fill="#951703" d="M764.356,475.758c1.192-2.55,2.164-5.107,3.004-7.698c0.074-1.945,0.061-3.869-1.958-5.293
					c-3.635,2.495-6.271,6.455-10.748,7.716c-0.995,4.914-2.964,9.502-5.037,14.071c-1.186,2.615-2.792,5.164-4.287,7.734
					c5.674,1.158,9.331-3.048,13.733-5.27C760.425,483.158,762.523,479.679,764.356,475.758z"/>
				<path fill="#B32A22" d="M759.165,486.741c-6.05-1.436-9.596,3.125-13.854,5.98c-0.028,0.029-0.056,0.059-0.084,0.088
					c-0.038,0.197-0.089,0.393-0.168,0.586c-0.514,1.25-1.084,2.47-1.681,3.675c-0.451,3.056,0.412,5.724,4.012,7.592
					c1.003,0.474,2.007,0.949,3.01,1.424c0.535-0.933,1.112-1.831,1.758-2.661c1.546-3.969,3.982-7.562,5.683-11.466
					C758.096,490.11,758.565,488.392,759.165,486.741z"/>
				<path fill="#553A3B" d="M322.619,446.537c-0.503,0.081-1.007,0.138-1.514,0.171c1.474,0.074,2.948,0.148,4.422,0.221
					c2.128,1.35,4.161,1.583,5.998-0.474c-1.189-0.011-2.378-0.024-3.567-0.03C326.178,446.46,324.398,446.499,322.619,446.537z"/>
				<path fill="#7D1C13" d="M375.842,456.657c-4.632-1.484-9.366-2.657-13.932-4.372c-15.18-5.301-28.993-1.593-42.167,6.364
					c-0.068,0.496-0.128,0.993-0.186,1.49c0.47-0.208,0.991-0.379,1.581-0.496c2.087-0.415,4.456-0.016,6.571,0.041
					c1.681,0.045,3.355,0.174,5.02,0.383c14.177-0.531,31.881-1.281,47.51,0.384C382.87,456.851,377.993,457.347,375.842,456.657z"
					/>
				<path fill="#971502" d="M359.166,447.344c-2.146-0.067-4.283-0.11-6.399-0.126c-1.315-0.01-2.583-0.177-3.803-0.457
					c-5.941-0.14-11.882-0.256-17.824-0.308c-1.871,0.16-3.742,0.318-5.613,0.475c-1.649,7.637-1.649,7.637-12.068,7.913
					c2.095,1.269,4.189,2.539,6.281,3.81c3.251-0.088,6.795,0.975,9.626-1.163c10.19-7.697,21.16-5.074,32.149-2.758
					c0.707-0.889,0.88-1.872,0.508-2.943C361.246,450.143,360.344,448.615,359.166,447.344z"/>
				<path fill="#7D1C14" d="M690.991,460.638c9.795-0.001,19.604,0.004,29.378-0.723c8.08-0.601,15.913-0.888,23.973,0.19
					c1.398,0.187,2.811,0.488,4.129,0.941c0.301-0.195,0.601-0.399,0.899-0.619c-0.064-0.593-0.135-1.184-0.214-1.775
					c-12.642-7.704-25.932-11.507-40.638-6.743c-4.941,1.442-9.81,3.118-14.77,4.517c-2.003,0.564-5.701,1.034-4.035,4.394
					C690.106,460.714,690.522,460.638,690.991,460.638z"/>
				<path fill="#971502" d="M743.36,446.923c-7.34-0.12-14.68-0.24-22.02-0.359c-0.736-0.003-1.472-0.007-2.207-0.01
					c-3.052,0.263-6.106,0.541-9.162,0.813c-1.047,1.32-1.583,2.919-1.763,4.713c0.107,0.994,0.477,1.866,1.161,2.598
					c10.053-2.885,20.033-4.281,29.286,2.307c3.323,2.366,6.934,1.564,10.502,1.667c1.393-2.451,4.904-1.384,6.317-3.802
					C751.781,451.68,746.232,451.347,743.36,446.923z"/>
				<path fill="#AF2921" d="M760.523,448.713c-0.003-0.002-0.005-0.004-0.009-0.006c-2.371-0.683-4.744-1.365-7.118-2.047
					c-3.346,0.088-6.692,0.176-10.037,0.262c1.658,7.638,1.658,7.638,12.114,7.928c1.978-1.402,3.956-2.804,5.934-4.205
					c-0.089-0.528-0.195-1.053-0.307-1.577C760.908,448.949,760.717,448.824,760.523,448.713z"/>
				<path fill="#B22A22" d="M324.651,493.875c-0.363-0.381-0.721-0.765-1.078-1.149c-4.284-2.894-7.849-7.501-13.991-5.957
					c0.834,1.726,1.537,3.502,2.038,5.32c1.197,2.299,2.146,4.755,3.056,7.162c0.327,0.552,0.611,1.151,0.904,1.717
					c0.93,1.794,1.796,3.636,2.525,5.525c0.439,0.035,0.878,0.069,1.317,0.102c0.694-0.639,1.387-1.278,2.081-1.917
					C326.301,502.169,326.241,498.243,324.651,493.875z"/>
				<path fill="#951703" d="M372.907,544.586c-0.013-0.004-0.025-0.008-0.038-0.012c-0.283-0.048-0.562-0.108-0.847-0.147
					c-0.911-0.124-1.738-0.461-2.476-0.941c-7.86-2.737-15.052-6.475-20.943-12.209c-2.599-1.821-5.046-4.206-7.2-6.929
					c-0.218-0.036-0.435-0.067-0.641-0.099c-0.449,0.183-0.898,0.362-1.348,0.542c0.1,2.39,1.735,4.007,2.836,5.933
					c2.51,4.391,5.623,8.614,5.28,14.092c0.005,0.08,0.014,0.16,0.022,0.24c0.779,0.483,1.503,1.054,2.124,1.66
					c0.086,0.084,0.163,0.175,0.245,0.263c0.595,0.29,1.15,0.662,1.684,1.071c0.166,0.083,0.332,0.168,0.498,0.249
					c0.866,0.423,1.743,0.828,2.609,1.252c0.181,0.089,0.312,0.155,0.421,0.212c4.49,1.602,9.303,2.956,14.008,3.722
					C375.67,552.931,375.808,551.631,372.907,544.586z"/>
				<path fill="#951703" d="M335.559,514.469c-0.109-0.17-0.213-0.349-0.306-0.547c-2.102-4.469-4.533-8.669-6.446-13.046
					c-0.148-0.173-0.291-0.356-0.421-0.563c-1.574-2.492-3.035-5-4.299-7.567c-0.188-0.027-0.376-0.049-0.564-0.078
					c0.041,4.124,0.449,8.309-2.021,12.01c1.867,0.85,3.176,2.266,3.99,4.11c2.991,6.775,8.141,11.66,13.922,16
					c0.001-0.001,0.452-0.356,0.452-0.356c0.244-0.49,0.411-0.96,0.527-1.417C338.458,520.355,336.815,517.438,335.559,514.469z"/>
				<path fill="#951703" d="M720.251,545.703c0.334-0.347,0.704-0.665,1.112-0.947c-0.381-3.688,1.558-6.674,2.854-9.901
					c1.427-3.55,4.964-5.97,5.237-10.083c-0.395-0.162-0.79-0.323-1.184-0.483c-5.019,8.853-12.696,16.492-22.549,17.874
					c-0.529,0.263-1.139,0.436-1.837,0.482c-2.039,0.134-4.029,1.025-6.083,1.506c-2.123,1.451-3.564,3.284-2.411,6.097
					c0.4,0.975,0.897,1.796,1.51,2.378h3.362c0.839-0.278,1.674-0.548,2.506-0.726c1.607-0.344,3.239-0.526,4.876-0.622
					c1.416-0.454,2.861-0.777,4.322-1.032c2.355-1.073,4.616-2.682,6.765-3.784C719.234,546.203,719.744,545.954,720.251,545.703z"
					/>
				<path fill="#951703" d="M745.363,492.662c-0.048,0.039-0.087,0.082-0.132,0.122c-0.038,0.206-0.09,0.411-0.173,0.612
					c-2.214,5.38-5.389,10.242-7.821,15.514c-0.191,0.415-0.483,0.749-0.813,1.042c-1.314,2.422-2.592,4.886-4.005,7.246
					c-0.522,0.871-1.204,1.704-1.85,2.554c-0.605,1.341-1.27,2.673-1.992,3.982c0.121,0.238,0.26,0.472,0.438,0.699
					c0,0,0.438,0.338,0.437,0.338c8.044-4.861,11.999-13.369,17.937-20.107C744.919,500.966,745.323,496.783,745.363,492.662z"/>
				<path fill="#AF2B22" d="M482.724,545.841c-0.236,0.013-0.469,0.035-0.707,0.045c-4.573,0.196-9.105,0.308-13.652,0.362
					c-0.386,0.102-0.795,0.174-1.254,0.174h-9.388c-4.024,1.174-8.045,2.347-9.82,6.967c3.841,0.116,7.689,0.259,11.557,0.141
					c4.089-0.125,8.418-0.467,12.619-0.146c2.667-0.386,5.36-0.55,8.065-0.653c0.11-0.088,0.217-0.186,0.321-0.295
					C482.33,550.442,485.827,548.754,482.724,545.841z"/>
				<path fill="#AF2B22" d="M609.831,546.046c-3.818-0.03-7.634-0.066-11.451,0.088c-1.596,0.064-3.106,0.006-4.586-0.119
					c-0.182,0.019-0.354,0.052-0.55,0.051c-2.454-0.011-4.911-0.05-7.366-0.009c-2.732,3.982,1.693,4.729,3.549,6.634
					c0.011,0.004,0.023,0.006,0.034,0.01c0.031,0,0.057-0.009,0.088-0.009h31.143C618.566,548.218,614.039,547.368,609.831,546.046z
					"/>
				<path fill="#951A06" d="M642.767,546.066h-28.999c-0.184,0-0.345-0.032-0.517-0.05c-0.178,0.018-0.345,0.05-0.536,0.05
					c-1.504-0.006-3.008-0.019-4.511-0.03c-0.286,0.259-0.56,0.545-0.808,0.888c3.579,2.622,8.26,3.227,11.883,5.767h22.132
					C643.346,550.879,645.045,549.004,642.767,546.066z"/>
				<path fill="#961A06" d="M460.98,546.422h-23.299c-0.57,0.119-1.175,0.191-1.822,0.201c-3.556,0.058-7.103,0.392-10.655,0.529
					c-1.204,2.322,1.582,4.563,2.819,6.829c0.072,0.047,0.142,0.096,0.213,0.143c0.513,0.01,1.024,0.029,1.536,0.046
					c6.317-1.122,12.611-0.951,18.929-0.757c3.702-3.139,8.822-3.677,12.733-6.432C461.294,546.773,461.139,546.594,460.98,546.422z
					"/>
				<path fill="#821D12" d="M677.335,552.626h22.942c0.148-0.049,0.297-0.099,0.445-0.147c-5.064-2.455-5.043-3.185-1.31-7.574
					c-0.303-0.354-0.619-0.654-0.943-0.919c-0.713,0.195-1.433,0.358-2.164,0.432c-2.359,0.239-4.735,0.219-7.096,0.411
					c-3.566,0.289-6.973,0.689-10.43,0.727c-0.593,0.312-1.292,0.51-2.127,0.51h-1.106c-0.084,0.06-0.169,0.115-0.252,0.18
					C674.218,549.255,675.62,551.019,677.335,552.626z"/>
				<path fill="#811F14" d="M389.379,546.267c-3.082-0.137-6.14,0.031-9.213-0.305c-2.709-0.296-5.29-1.12-7.977-1.505
					c-0.246,0.165-0.491,0.322-0.737,0.511c2.798,7.111,2.736,7.253-5.87,7.834c1.197,0.263,2.393,0.494,3.582,0.688
					c0.54,0.088,1.058,0.217,1.564,0.369c1.538,0.015,3.012,0.242,4.414,0.633c0.753,0.007,1.488,0.073,2.211,0.173
					c4.012,0.003,8.024,0.006,12.037,0.009c2.231-2.439,6.055-4.365,3.869-8.219C391.966,546.389,390.674,546.325,389.379,546.267z"
					/>
				<path fill="#B22922" d="M679.202,552.626c-0.771-2.171-2.788-3.714-3.657-5.836c-0.302-0.268-0.607-0.501-0.913-0.724H661.53
					c-2.091,2.503-2.019,4.65-0.496,6.561H679.202z"/>
				<path fill="#B22922" d="M393.694,546.474c-0.066,0.064-0.136,0.118-0.201,0.187c-1.175,2.769-4.293,4.543-4.104,8.011
					c4.57,0.098,9.139,0.196,13.709,0.294c0.865-0.152,1.735-0.256,2.607-0.272c0.215-0.004,0.433-0.012,0.648-0.016
					c0.259-0.151,0.519-0.302,0.776-0.454c2.006-2.403,2.561-4.817,1.015-7.243C403.311,546.961,398.508,546.715,393.694,546.474z"
					/>
				<path fill="#560901" d="M652.203,552.626h5.452c0.309-2.831-1.418-4.804-3.643-6.561h-9.779
					c-0.296,0.287-0.562,0.608-0.779,0.987c-1.055,1.984-3.105,3.445-3.76,5.639h11.397
					C651.449,552.652,651.817,552.626,652.203,552.626z"/>
				<path fill="#801F14" d="M569.321,546.129c-3.515-0.775-6.686-2.488-9.367-4.806c-3.02-0.078-5.619-1.677-8.236-3.201
					c-0.876-0.127-1.644,0.101-2.307,0.676c1.122,1.597,2.348,3.117,3.747,4.53c1.204,1.216,2.4,2.424,3.567,3.656
					c0.805,0.382,1.497,0.886,2.082,1.48c1.377,0.63,2.744,1.299,4.118,1.941c0.315,0.092,0.619,0.197,0.907,0.321
					c0.565,0.072,1.088,0.201,1.587,0.358c0.533,0.071,1.041,0.177,1.511,0.329c1.128,0.176,2.238,0.428,3.36,0.679
					c0.817,0.017,1.57,0.128,2.261,0.318c0.196-0.013,0.385-0.036,0.589-0.036c0.725,0,1.399,0.077,2.027,0.213
					c0.081-0.018,0.16-0.029,0.242-0.049C575.374,548.725,571.312,548.295,569.321,546.129z"/>
				<path fill="#991602" d="M585.408,546.737c-0.189-0.249-0.393-0.464-0.605-0.662c-1.126,0.032-2.252,0.081-3.376,0.171
					c-2.728,0.218-5.46,0.698-8.195,0.338c-0.04,0-0.074,0.009-0.115,0.008c-1.985-0.048-3.891-0.391-5.694-0.979
					c-0.027,2.902,0.844,5.104,4.61,5.147c1.39,0.016,2.492,0.728,3.378,1.777c4.672,0.051,9.344,0.102,14.017,0.153
					C588.087,550.706,586.748,548.721,585.408,546.737z"/>
				<path fill="#991602" d="M500.817,544.002c-3.167,0.85-6.271,1.297-9.393,1.389c-0.116,0.008-0.22,0.033-0.342,0.033h-3.78
					c-0.944,0.118-1.893,0.225-2.852,0.306c-0.349,0.25-0.684,0.528-0.981,0.877c-1.335,2.029-2.671,4.057-4.007,6.085
					c0.016,0.023,0.033,0.04,0.05,0.062c2.935-0.122,5.885-0.17,8.83-0.377c1.582-0.111,3.157-0.275,4.732-0.45
					c-0.523,0.045,3.452-0.452,3.403-0.445c1.639-0.227,3.279-0.448,4.919-0.667c0.035-0.028,0.072-0.049,0.106-0.079
					c1.499-1.761,1.765-3.672,0.694-5.744C501.792,544.549,501.329,544.226,500.817,544.002z"/>
				<path fill="#941906" d="M662.379,552.626c-0.736-1.768-1.241-3.595-1.008-5.609c-0.367-0.37-0.734-0.684-1.101-0.952h-5.715
					c-0.369,0.27-0.737,0.587-1.105,0.961c0.915,1.866,1.829,3.733,2.743,5.599H662.379z"/>
				<path fill="#6F4539" d="M405.705,554.694c7.49-0.137,15.38-0.756,23.152-0.562c-5.187-3.422-11.042-2.136-16.725-2.036
					c-2.451,0.212-4.544,1.333-6.586,2.584c0,0,0.01,0.016,0.015,0.023C405.609,554.703,405.657,554.695,405.705,554.694z"/>
				<path fill="#821F13" d="M496.477,551.483c1.675-0.232,3.352-0.458,5.028-0.682c0-0.023,0.002-0.046,0.002-0.069
					c-2.454,0.176-5.133-0.652-7.248,1.031C495.261,551.635,496.504,551.479,496.477,551.483z"/>
				<path fill="#991501" d="M471.102,454.985c-1.046-0.083-2.091-0.181-3.139-0.307c-2.377-0.287-4.749-0.621-7.122-0.936
					c-0.288-0.038-0.479-0.065-0.625-0.086c-0.046-0.004-0.077-0.007-0.128-0.011c-0.218-0.02-0.436-0.036-0.654-0.054
					c-0.698-0.019-1.395-0.041-2.094-0.047c-0.919-0.009-1.816-0.089-2.69-0.231c-3.04-0.14-6.082-0.286-9.062-0.802
					c-9.456-0.012-18.805-0.357-28.138-1.911c-0.362,0.025-0.724,0.057-1.087,0.057c-1.26,0-2.477-0.145-3.65-0.399
					c-2.726-0.071-5.483-0.23-8.207-0.56c-0.442-0.022-0.88-0.055-1.311-0.109c-0.232,0.016-0.465,0.037-0.698,0.037
					c-0.992,0-1.954-0.1-2.894-0.26c-0.379,0.012-0.757,0.027-1.136,0.037c-6.194,0.165-12.362-0.632-18.544-0.35
					c-1.06,0.048-2.09-0.027-3.09-0.189c-5.178,1.086-10.866,0.293-15.324,4.018c0.003,0.616,0.004,1.232,0.005,1.848
					c5.544,3.216,12.147,3.107,17.89,5.705c7.372,0.161,14.743,0.32,22.113,0.479c0.427-0.116,0.855-0.231,1.28-0.356
					c6.486-4.52,11.451-3.398,16.939,1.599c1.945,0.404,4.035,0.766,5.563,0.846c7.686,0.584,14.513,0.784,22.865,1.867
					c9.333,0.352,27.951,0.296,37.893-0.185C486.465,460.792,473.637,457.397,471.102,454.985z"/>
				<path fill="#AA2921" d="M364.226,447.905c-1.41-0.003-2.764-0.191-4.063-0.509c-0.866-0.03-1.732-0.065-2.596-0.086
					c0.135,2.638,1.571,4.415,3.943,5.568c6.088-0.304,12.559,0.995,17.563-3.836c-1.524-0.016-2.979-0.28-4.36-0.717
					C371.228,448.008,367.73,447.913,364.226,447.905z"/>
				<path fill="#991501" d="M667.106,461.56c5.566-0.449,11.129-0.956,16.715-0.966c1.087-0.002,2.169,0.035,3.248,0.095
					c0.787-0.039,1.573-0.078,2.36-0.117c6.646-1.964,13.293-3.928,19.94-5.892c0.003-0.642,0.007-1.284,0.01-1.926
					c-5.993-4.285-13.307-2.272-19.805-4.148c-0.356,0.097-0.734,0.166-1.162,0.163c-9.884-0.049-19.536,1.93-29.384,1.894
					c-0.005,0.001-0.01,0.002-0.015,0.003c-6.371,0.819-12.191,1.756-18.654,1.694c-6.775-0.065-13.465,0.199-20.219,0.727
					c-7.431,0.581-14.853,1.265-22.276,1.934c-2.006,2.152-4.075,4.286-2.598,7.248c10.411-0.196,20.817-0.627,31.231-0.656
					c0.327-0.001,0.634,0.028,0.922,0.081c7.068-0.024,14.143,0.07,21.217,0.254C654.674,458.404,660.739,455.829,667.106,461.56z"
					/>
				<path fill="#AA2921" d="M689.603,448.596c-0.043,0.012-0.083,0.029-0.127,0.04c5.703,5.81,13.03,3.882,19.902,4.118
					c0.618-1.833,1.235-3.665,1.854-5.498C704.036,447.901,696.829,448.496,689.603,448.596z"/>
				<path fill="#971602" d="M546.765,506.481c-0.49-2.494-0.221-5.105-0.05-7.662c-0.021-0.806-0.04-1.613-0.05-2.419
					c-0.113-0.082-0.233-0.154-0.367-0.202c-5.275-1.896-4.234-8.573-7.795-11.738c0.002,0.616-0.024,1.232-0.117,1.848
					c-0.036,0.236-0.306,0.359-0.529,0.344c-0.065,0.033-0.139,0.055-0.229,0.055c-0.037,0-0.064-0.013-0.097-0.019
					c-0.065,0.041-0.139,0.072-0.233,0.077c-1.782,0.095-3.564,0.002-5.346,0c-0.405,0-0.553-0.385-0.448-0.669
					c-0.001-0.007-0.004-0.012-0.005-0.019c-0.055-0.461-0.075-0.929-0.054-1.396c-0.004-0.003-0.01-0.002-0.013-0.005
					c-0.045-0.044-0.073-0.109-0.073-0.171v-0.364c0-0.011,0.011-0.019,0.012-0.029c-0.595,0.539-1.075,1.165-1.413,1.909
					c-1.401,2.909,0.065,6.409-1.574,9.3c-0.251,0.442-0.693,0.748-1.196,0.818c-0.123,0.017-0.247,0.036-0.369,0.06
					c-0.654-0.125-1.324-0.229-1.984-0.275c-0.186-0.013-0.37,0.01-0.55,0.06l-0.016,0.004c-0.199,0.164-0.418,0.345-0.644,0.531
					c0.055,0.339,0.08,0.699,0.047,1.094c-0.339,4.132-0.767,8.267-1.365,12.376c0.052,0.098,0.092,0.199,0.149,0.296
					c0.081,0.138,0.183,0.273,0.297,0.384c0.936,0.906,2.055,1.186,3.323,0.983c0.149-0.024,0.302-0.069,0.44-0.131
					c0.733-0.334,1.277-0.834,1.734-1.409c0.18-0.494,0.442-1.216,0.622-1.71c0.098-2.893,2.884-4.806,5.141-4.21
					c0.019,0.002,0.099-0.027,0.67,0.12c0.332,0.086,0.691,0.069,1.01-0.057c1.145-0.452,1.792-0.246,3.003,0.468
					c0.016,0.009,0.027,0.022,0.042,0.032c0.098-0.005,0.195,0.026,0.284,0.073c0.043,0.004,0.086,0.001,0.13,0.008
					c0.37,0.053,0.721,0.236,0.974,0.513c0.44,0.48,0.884,1.063,1.088,1.69c0.03,0.092,0.017,0.181-0.011,0.264v2.975
					c0,0.013-0.007,0.023-0.008,0.036c0.025,0.108,0.055,0.213,0.07,0.329c0.559,0.512,0.943,0.863,1.501,1.375
					c0.958,0.03,1.926-0.265,2.904-0.9c0.21-0.136,0.391-0.332,0.518-0.549c0.277-0.471,0.514-0.945,0.725-1.42
					C546.824,508.262,546.779,507.374,546.765,506.481z"/>
				<path fill="#520B04" d="M528.134,510.944c-0.003,0.006-0.768-0.099-0.768-0.099c-1.318,0.01-2.636,0.02-3.954,0.03
					c-0.472,0.055-0.893,0.195-1.291,0.37c-0.475,3.073-1.048,6.131-1.769,9.156c-0.667,2.805-1.328,5.754-2.405,8.46
					c-0.039,0.243-0.093,0.49-0.178,0.748c-0.789,2.394-2.043,4.538-3.605,6.424c0.408,1.656,0.981,3.258,1.674,4.817
					c0.402,0.751,0.949,1.371,1.656,1.849l1.25-1.314c2.721-4.174,4.312-9.096,6.385-13.604c2.436-5.298,2.884-10.23,3.752-15.657
					c0.002-0.203,0.009-0.407,0.01-0.61C528.667,511.292,528.423,511.092,528.134,510.944z"/>
				<path fill="#530C05" d="M552.974,531.432c-0.081-0.202-0.144-0.41-0.22-0.614c-0.011-0.039-0.03-0.073-0.04-0.113
					c-0.091-0.247-0.169-0.498-0.254-0.747c-2.301-4.487-3.321-9.104-4.363-14.009c-0.236-1.109-0.459-2.196-0.657-3.274
					c-0.281-0.319-0.572-0.635-0.883-0.942c-2.504-0.152-4.282,0.236-5.251,1.226c0.129,6.657,1.914,13.489,4.391,19.946
					c0.18,0.207,0.347,0.44,0.497,0.707c1.014,1.806,2.073,3.558,3.247,5.226c0.632-0.074,1.262-0.147,1.892-0.219
					c1.947-0.629,2.997-1.83,3.546-3.346c-0.51-0.847-0.957-1.73-1.37-2.628C553.28,532.284,553.09,531.887,552.974,531.432z"/>
				<path fill="#821F13" d="M514.737,545.594c0.174-0.146,0.345-0.295,0.535-0.426c0.113-0.117,0.241-0.221,0.361-0.332
					c0.166-0.198,0.342-0.388,0.53-0.569c0.369-0.555,0.795-1.075,1.309-1.522c0.007-0.016,0.016-0.03,0.023-0.045
					c-0.03-0.675-0.06-1.35-0.089-2.025c-3.218-0.941-6.334,1.012-9.529,0.595c-1.879,1.071-3.902,1.895-6.001,2.448
					c-0.169,0.315-0.322,0.655-0.44,1.044c0.021,1.993,0.042,3.986,0.063,5.979c0.105,0.013,0.207,0.01,0.311,0.019
					c1.419-0.189,2.84-0.362,4.26-0.538c1.165-0.366,2.301-0.859,3.43-1.375c1.071-0.662,2.229-1.212,3.347-1.812
					C513.38,546.47,514.01,545.981,514.737,545.594z"/>
				<path fill="#6F1D12" d="M547.063,510.314c-0.426-0.101-0.86-0.01-1.302,0.303c-1.503,0.02-3.006,0.041-4.51,0.061
					c0.023,0.196,0.052,0.388,0.047,0.602c-0.037,1.583,0.034,3.18,0.182,4.782c0.531-2.487,2.251-3.789,5.799-3.271
					c0.06-0.058,0.095-0.122,0.147-0.182C547.287,511.841,547.167,511.077,547.063,510.314z"/>
				<path fill="#941703" d="M538.744,504.752c0.027-0.001,0.053,0.002,0.081,0.005c0.279,0.018,0.607,0.039,0.607,0.038
					c-3.306-3.067-6.629-3.014-9.969-0.057c1.005-0.018,0.87-0.018,1.983-0.019c1.543,0.013,3.087,0.026,4.63,0.038
					c0.142-0.011,0.271-0.041,0.421-0.041c0.178,0,0.334,0.032,0.501,0.048l0.445,0.004l0.995-0.037
					C538.438,504.732,538.574,504.741,538.744,504.752z"/>
				<path fill="#752519" d="M527.822,518.808c0.197-1.076,0.368-2.158,0.535-3.253c-0.681,0.912-0.825,2.035-0.697,3.266
					C527.713,518.815,527.768,518.813,527.822,518.808z"/>
				<path fill="#873D31" d="M593.825,546.012c-0.192,0.021-0.374,0.054-0.58,0.053c-3.938-0.018-7.887-0.134-11.818,0.18
					c-0.668,0.053-1.337,0.123-2.006,0.193c0.026,0.055,0.044,0.108,0.074,0.164c1.971,0.045,3.942,0.09,5.914,0.134
					c4.022-0.052,8.044-0.104,12.066-0.154c-0.158-0.143-0.317-0.286-0.475-0.429C595.913,546.152,594.861,546.098,593.825,546.012z
					"/>
				<path fill="#560901" d="M425.575,547.144c-1.095,0.046-2.191,0.077-3.288,0.073c-2.057-0.007-4.085-0.208-6.104-0.477
					c-0.472,0.072-0.961,0.121-1.483,0.121c-0.201,0-0.39-0.017-0.583-0.028c-2.385,1.824-3.658,4.166-2.424,7.675
					c5.847-0.23,11.846-0.536,17.77-0.354C429.398,551.172,426.804,549.517,425.575,547.144z"/>
				<path fill="#951906" d="M408.162,546.98c-0.217-0.001-0.434-0.01-0.651-0.011c-0.007,0-0.013,0-0.02,0
					c0.345,2.821-0.731,5.284-1.946,7.712c0.426-0.005,0.852-0.01,1.279-0.015c1.634-0.039,3.282-0.094,4.946-0.16
					c1.185-2.531,2.371-5.062,3.56-7.596c-2.24,0.016-4.481,0.033-6.722,0.051C408.459,546.966,408.315,546.981,408.162,546.98z"/>
				<path fill="#A52A22" d="M553.715,533.149c-0.794,1.823-1.588,3.646-2.381,5.47c2.374,4.013,4.918,7.57,10.161,3.925
					C558.195,540.145,555.509,536.865,553.715,533.149z"/>
				<path fill="#801F14" d="M573.116,546.592c-0.26-0.006-0.512-0.041-0.77-0.057c1.086,0.264,2.221,0.247,3.365,0.177
					c-0.817,0.015-1.634-0.026-2.452-0.13C573.21,546.582,573.168,546.593,573.116,546.592z"/>
				<path fill="#821F13" d="M497.078,544.836c-1.868,0.322-3.727,0.492-5.591,0.549c-0.137,0.01-0.261,0.039-0.405,0.039h-3.698
					c-0.046,0.354-0.1,0.708-0.185,1.056c4.123-0.185,8.51,1.642,12.229-1.611C498.645,544.858,497.861,544.847,497.078,544.836z"/>
				<path fill="#6F4539" d="M530.678,476.134c-0.145-0.573-0.528-1.036-0.665-1.609c-0.066-0.132-0.118-0.27-0.194-0.396
					c-0.095-0.16-0.25-0.333-0.344-0.493c-0.093-0.159-0.046-0.392-0.159-0.537c-0.179-0.231-0.145-0.465-0.238-0.757
					c-0.002-0.005-0.001-0.01-0.003-0.015c0-0.001-0.002-0.001-0.002-0.002c-0.219-0.5-0.574-0.895-0.886-1.335
					c-0.152-0.215-0.285-0.443-0.435-0.659c-0.066-0.095-0.132-0.192-0.188-0.294c-0.011-0.021-0.019-0.044-0.03-0.065
					c-0.063-0.087-0.119-0.178-0.164-0.275c-0.221-0.295-0.432-0.593-0.641-0.912c-0.271-0.412-0.589-0.747-0.839-1.117
					c-1.7-1.552-3.251-3.257-4.951-4.802c-0.164-0.103-0.33-0.213-0.491-0.306c-0.331-0.191-0.601-0.409-0.84-0.639
					c-1.789-0.783-3.626-1.459-5.623-1.937c-5.629-1.346-23.293-2.944-26.3-3.194c0.407,0.681,1.107,1.178,1.931,1.595
					c1.463,0.549,2.977,0.814,4.536,0.865c5.886,0.118,11.815-0.169,17.478,1.945c9.848,1.701,12.868,11.316,19.467,16.777
					C530.982,477.352,530.832,476.742,530.678,476.134z"/>
				<path fill="#6F4539" d="M578.085,456.671c-0.382,0.028-0.729,0.001-1.053-0.056c-0.174,0.021-0.34,0.054-0.528,0.056
					c-5.911,0.054-11.779,0.669-17.663,1.156c-0.435,0.261-0.948,0.434-1.542,0.501c-1.958,0.905-4.015,1.639-5.963,2.548
					c-0.445,0.396-0.949,0.74-1.504,1.028c-0.149,0.155-0.306,0.303-0.457,0.451c-0.437,0.427-0.873,0.854-1.307,1.282
					c-0.57,0.562-1.184,1.067-1.808,1.561c-0.41,0.47-0.888,0.887-1.422,1.25c-0.319,0.46-0.673,0.897-1.094,1.279
					c-0.381,0.504-0.786,0.992-1.22,1.448c-0.163,0.171-0.331,0.338-0.494,0.51c-0.19,0.199-0.528,0.591-0.187,0.152
					c-0.144,0.185-0.299,0.352-0.457,0.513c-0.569,0.755-1.116,1.538-1.529,2.201c-0.02,0.033-0.046,0.055-0.067,0.087
					c-0.19,0.327-0.391,0.647-0.588,0.969c0.08,0.102,0.123,0.235,0.093,0.395c-0.204,1.068-0.411,2.137-0.577,3.213
					c6.086-5.51,9.474-14.149,18.638-16.083c5.659-2.022,11.567-1.796,17.435-1.911c1.536-0.09,3.044-0.335,4.49-0.891
					c0.965-0.479,1.78-1.052,2.131-1.921C580.302,456.493,579.194,456.591,578.085,456.671z"/>
				<path fill="#6F4539" d="M472.403,455.083c0.873,0.513,1.75,1.02,2.64,1.504c2.829,0.528,5.636,0.927,8.167-0.26
					c-2.399-0.295-4.779-0.676-7.143-1.139C474.841,455.188,473.62,455.157,472.403,455.083z"/>
				<path fill="#4D2E27" d="M467.963,454.678c-2.377-0.287-4.749-0.621-7.122-0.936c-0.288-0.038-0.479-0.065-0.625-0.086
					c-0.046-0.004-0.077-0.007-0.128-0.011c-0.111-0.01-0.222-0.018-0.333-0.027c0.638,0.278,1.265,0.578,1.835,0.993
					c2.352,0.047,4.705,0.094,7.057,0.141C468.419,454.725,468.192,454.705,467.963,454.678z"/>
				<path fill="#4D2E27" d="M469.606,454.853c1.14,0.828,2.248,1.024,3.306,0.252C471.809,455.048,470.708,454.964,469.606,454.853z
					"/>
				<path fill="#4D2E27" d="M596.084,455.176c1.004,0.672,2.052,0.485,3.128-0.276C598.169,454.994,597.126,455.083,596.084,455.176
					z"/>
				<path fill="#4D2E27" d="M601.053,454.735c1.433-0.028,2.865-0.057,4.298-0.085c0.147-0.137,0.306-0.242,0.466-0.342
					C604.229,454.45,602.641,454.591,601.053,454.735z"/>
				<path fill="#570B03" d="M469.521,454.844c1.371,2.596,1.664,3.555,3.034,6.15c1.866,2.469,2.492,2.107,3.485,2.459
					c3.106,1.107,6.038,1.057,8.99,0.281c1.029-0.003,2.011-0.219,2.944-0.651c2.232-1.661,3.443-3.558,1.667-6.152
					c-2.76-0.186-8.789-1.214-13.575-1.743C472.956,454.845,470.39,454.932,469.521,454.844z"/>
				<path fill="#570B03" d="M579.549,456.555l-0.135,0.12c-1.069,2.519-0.346,4.462,1.256,6.12c1.069-0.082,2.149-0.128,3.233-0.156
					c0.47-0.165,0.986-0.276,1.578-0.276c0.307,0,0.59,0.037,0.865,0.083c0.26-0.05,0.533-0.083,0.829-0.083
					c2.757-0.008,5.513-0.048,8.269-0.1c1.3-2.458,2.599-4.917,3.899-7.375C592.748,455.484,586.152,456.063,579.549,456.555z"/>
				<path fill="#782615" d="M412.714,450.257c-2.725-0.072-5.48-0.23-8.203-0.56c-0.443-0.022-0.882-0.055-1.314-0.109
					c-0.233,0.017-0.465,0.037-0.698,0.037c-0.679,0-1.343-0.05-1.998-0.126c4.742,2.681,10.041,0.561,15.019,1.214
					c0.076,0,0.151-0.031,0.226-0.087C414.706,450.588,413.692,450.469,412.714,450.257z"/>
				<path fill="#5B3831" d="M450.008,453.046c2.4,0.812,4.793,1.049,7.179,0.488c-0.797-0.014-1.572-0.098-2.335-0.213
					C453.235,453.247,451.618,453.173,450.008,453.046z"/>
				<path fill="#5B3831" d="M439.337,452.443c0.071,0.061,0.142,0.118,0.209,0.19c2.703,0.061,5.407,0.122,8.11,0.183
					c-0.688-0.083-1.374-0.188-2.056-0.305C443.508,452.507,441.421,452.486,439.337,452.443z"/>
				<path fill="#B12820" d="M420.651,462.382c-7.386-1.931-14.077-1.528-20.291-1.495
					C406.909,453.278,414.956,454.736,420.651,462.382z"/>
				<path fill="#8C3326" d="M447.547,462.586c-7.364,0.071-14.728,0.142-22.092,0.214c-0.631-0.07-1.261-0.144-1.89-0.221
					c-0.043-0.583-0.096-1.163-0.159-1.742C431.448,461.491,439.725,458.892,447.547,462.586z"/>
				<path fill="#782615" d="M424.634,451.574c4.724,2.575,9.96,0.543,14.913,1.06c-0.048-0.068-0.098-0.127-0.147-0.19
					C434.458,452.342,429.54,452.091,424.634,451.574z"/>
				<path fill="#7B1E0D" d="M460.216,453.656c-0.046-0.004-0.077-0.007-0.128-0.011c-0.147-0.013-0.295-0.024-0.442-0.036
					c-0.768-0.027-1.536-0.058-2.306-0.065c-0.904-0.008-1.785-0.09-2.645-0.229c-1.685-0.077-3.371-0.157-5.048-0.297
					c3.609,3.106,7.929,1.286,11.942,1.595c-0.341-0.302-0.68-0.604-1.021-0.906C460.43,453.686,460.308,453.669,460.216,453.656z"
					/>
				<path fill="#5B3832" d="M612.664,453.711c1.858,0.28,3.722,0.099,5.59-0.468C616.39,453.393,614.527,453.551,612.664,453.711z"
					/>
				<path fill="#5B3832" d="M625.316,452.734c1.341-0.023,2.681-0.045,4.022-0.068c0.044-0.049,0.093-0.086,0.139-0.13
					C628.09,452.592,626.704,452.654,625.316,452.734z"/>
				<path fill="#8F362A" d="M669.015,461.405c0.156-0.165,0.307-0.344,0.443-0.552c-0.664-0.096-1.327-0.191-1.991-0.286
					c-6.062-3.243-12.117-3.474-18.163,0.043c-6.878,0.057-13.761-0.033-20.631,0.229c-3.384,0.129-7.013-0.979-10.171,0.868
					c2.664-0.05,5.329-0.088,7.994-0.095c0.327-0.001,0.634,0.028,0.922,0.081c9.709-0.033,19.431,0.148,29.147,0.5
					C660.723,462.078,664.869,461.744,669.015,461.405z"/>
				<path fill="#B12820" d="M667.467,460.566c-6.054,0.015-12.107,0.03-18.162,0.044C656.114,453,661.256,452.988,667.467,460.566z"
					/>
				<path fill="#771E0D" d="M640.358,452.359c-3.657-0.035-7.289,0.033-10.92,0.179c-0.033,0.042-0.067,0.082-0.1,0.128
					c4.899-0.433,9.995,1.018,14.793-0.388C642.891,452.335,641.639,452.371,640.358,452.359z"/>
				<path fill="#762010" d="M605.591,454.328c-0.081,0.104-0.165,0.204-0.239,0.323c4.541-0.488,9.408,1.56,13.621-1.467
					C614.51,453.538,610.05,453.927,605.591,454.328z"/>
				<path fill="#7C1C13" d="M531.448,485.46c-0.013-0.26-0.014-0.521-0.003-0.781c-0.005-0.001-0.01-0.002-0.013-0.005
					c-0.045-0.044-0.073-0.109-0.073-0.171v-0.364c0-0.014,0.013-0.024,0.016-0.038v-1.459c0-0.02,0.009-0.035,0.011-0.054
					c-0.01-0.052-0.022-0.102-0.022-0.161c0-1.122,0-2.246-0.104-3.365c-0.092-0.993-0.338-1.964-0.583-2.929
					c-0.135-0.531-0.4-1.141-0.592-1.653c-0.155-0.413-0.564-1.302-0.614-1.409c-0.304-0.657-0.855-1.509-1.287-2.144
					c-0.333-0.489-0.775-1.143-1.009-1.49c-0.471-0.701-1.28-1.842-1.919-2.423c-1.224-1.162-2.418-2.36-3.643-3.516
					c-0.752-0.609-1.292-1.226-2.352-1.731c-1.682-0.726-3.521-1.375-5.391-1.822c-0.432-0.103-0.886-0.066-1.329-0.106
					c-1.82,1.94-3.294,3.61-1.117,6.588c5.275,1.301,8.442,4.975,10.565,9.659c2.719,5.999,0.731,12.43,1.486,18.619
					c0.619,0.709,1.194,1.462,1.991,1.993l-0.007,0c0.624,0.712,1.391,1.281,2.006,2.002l-0.01-0.02
					c3.121,0.61,2.697-1.719,2.948-3.525c0.39-2.808-0.908-5.824,1.039-8.438C531.445,486.298,531.447,485.879,531.448,485.46z"/>
				<path fill="#7C1C13" d="M555.683,459.038c-1.464,0.609-2.943,1.189-4.368,1.856c-0.439,0.389-0.936,0.727-1.482,1.011
					c-0.149,0.155-0.306,0.303-0.457,0.451c-0.437,0.427-0.873,0.854-1.307,1.282c-0.57,0.562-1.184,1.067-1.808,1.561
					c-0.41,0.47-0.888,0.887-1.422,1.25c-0.319,0.46-0.673,0.897-1.094,1.279c-0.381,0.504-0.786,0.992-1.22,1.448
					c-0.163,0.171-0.331,0.338-0.494,0.51c-0.19,0.199-0.528,0.591-0.187,0.152c-0.136,0.176-0.284,0.333-0.433,0.487
					c-0.08,0.106-0.162,0.209-0.242,0.317c-0.679,0.977-1.31,2.002-1.925,3.043c0.048,0.09,0.075,0.194,0.052,0.318
					c-0.406,2.127-0.829,4.262-0.899,6.432c-0.063,1.946,0.281,3.886-0.003,5.825c1.594,3.475,0.26,7.832,2.02,11.48
					c2.118-1.293,3.526-2.153,4.933-3.013c2.813-5.797-0.551-12.255,1.934-18.088c1.242-5.537,4.97-8.61,10.153-10.241
					C559.854,463.175,557.637,461.14,555.683,459.038z"/>
				<path fill="#864134" d="M546.716,498.824c-0.07-2.65-0.081-5.302-0.081-7.953c0-0.058,0.016-0.104,0.031-0.151
					c-0.176-4.765-0.55-9.413,0.614-14.069v-0.012c-3.674,5.705-1.002,12.089-1.936,18.087c0.139,5.297,0.277,10.595,0.413,15.893
					c0.45,0.027,0.903,0.062,1.355,0.099c-0.209-1.437-0.344-2.868-0.363-4.32C546.284,503.931,546.547,501.351,546.716,498.824z"/>
				<path fill="#941703" d="M527.457,498.681c2.214-1.473,1.966-3.771,2.002-5.973c0.036-2.205-0.197-4.497,1.985-5.99
					c-0.034,3.579,0.155,7.18-0.177,10.732C531.026,500.025,529.545,500.79,527.457,498.681z"/>
				<path fill="#752519" d="M521.979,512.165c0.478-0.431,0.956-0.861,1.434-1.292c-0.047-2.949-0.095-5.897-0.142-8.845
					C522.935,505.418,522.522,508.803,521.979,512.165z"/>
				<path fill="#941703" d="M528.891,511.06c-0.001-0.822-0.008-1.638-0.02-2.437c-0.012-0.833,0.213-1.514,0.573-2.07
					c0.008-0.611,0.017-1.222,0.025-1.833c-2.425,1.45-1.914,3.907-2.102,6.123c0.001-0.001,0.044,0.103,0.044,0.103
					C527.94,511.253,528.434,511.295,528.891,511.06z"/>
				<path fill="#941703" d="M525.461,496.699c0.669,0.667,1.337,1.335,2.006,2.002C526.798,498.033,526.13,497.366,525.461,496.699z
					"/>
				<path fill="#A52B23" d="M509.372,540.346c-0.694,0.709-1.387,1.417-2.081,2.126c4.156,3.816,6.971,0.081,10.115-1.798
					c0.333-2.396-0.981-4.124-2.306-5.844C513.555,537.003,511.596,538.854,509.372,540.346z"/>
				<path fill="#AC2B23" d="M493.197,457.128c-1.682,2.05-2.962,4.508-5.674,5.509c-0.679,0.099-1.357,0.198-2.036,0.295
					c0.021,0.577,0.073,1.153,0.154,1.726c8.597,0.561,17.36-1.292,25.785,1.773c0.594-2.285,1.589-4.243,2.183-6.532
					c-5.862-1.18-9.66-1.458-15.726-2.193C495.85,457.476,494.398,457.177,493.197,457.128z"/>
				<path fill="#AE2A22" d="M566.34,464.499c0.373-0.1,0.771-0.168,1.213-0.173c0.365-0.126,0.75-0.225,1.178-0.265
					c3.238-0.303,6.387-0.737,9.554-1.056c0.029-0.181,0.039-0.371,0.025-0.572c-0.384-2.172-1.17-4.134-2.887-5.619
					c-0.646-0.023-1.291-0.045-1.937-0.065c-4.894,0.188-9.765,0.676-14.647,1.079c-0.442,0.265-0.966,0.439-1.573,0.503
					c-0.563,0.26-1.128,0.519-1.704,0.758c0.623,2.435,1.247,4.871,1.87,7.308c2.007-0.857,4.052-1.299,6.116-1.519
					c0.543-0.241,1.176-0.379,1.9-0.379H566.34z"/>
				<path fill="#834135" d="M583.781,462.624c-0.713-0.026-1.425-0.052-2.138-0.079c-1.483-1.016-2.874-0.889-4.174,0.34
					c-0.004,0.068-0.015,0.135-0.02,0.203C579.545,462.864,581.646,462.688,583.781,462.624z"/>
				<path fill="#991704" d="M581.644,462.545c-1.392,0.112-2.783,0.224-4.174,0.338c-2.346-1.462-1.943-3.851-2.046-6.07
					c1.33-0.045,2.66-0.091,3.991-0.138C580.157,458.632,580.9,460.589,581.644,462.545z"/>
				<path fill="#991703" d="M489.388,456.913c-0.622,1.908-1.243,3.816-1.866,5.724c4.416,0.64,6.194-1.405,5.962-5.497
					C492.114,457.088,490.749,457.008,489.388,456.913z"/>
			</g>
		</g>
	</g>
</g>
</svg>
