<?xml version="1.0" encoding="utf-8"?>
<!-- Generator: Adobe Illustrator 27.3.1, SVG Export Plug-In . SVG Version: 6.00 Build 0)  -->
<svg version="1.1" id="Layer_1" xmlns="http://www.w3.org/2000/svg" xmlns:xlink="http://www.w3.org/1999/xlink" x="0px" y="0px"
	 viewBox="0 0 1072.397 1072.397" enable-background="new 0 0 1072.397 1072.397" xml:space="preserve">
<g>
	
		<ellipse id="Ellipse_891_00000057854788997978364500000012638405902791029434_" opacity="0.5" fill="#f2f2f2" enable-background="new    " cx="536.198" cy="536.198" rx="536.198" ry="536.198"/>
	<g>
		<defs>
			
				<ellipse id="Ellipse_891_00000015336345309935765980000011914239641881056688_" cx="536.198" cy="536.198" rx="536.198" ry="536.198"/>
		</defs>
		<clipPath id="Ellipse_891_00000143582050618061173850000006214141762311403948_">
			<use xlink:href="#Ellipse_891_00000015336345309935765980000011914239641881056688_"  overflow="visible"/>
		</clipPath>
		<g clip-path="url(#Ellipse_891_00000143582050618061173850000006214141762311403948_)">
			<path fill="#6E4438" d="M612.074,777.278c-10.715,5.318-20.703,10.942-31.351,14.694c-11.596,4.086-23.676,7.219-35.8,9.202
				c-5.924,0.969-12.576-1.067-18.646-2.687c-26.89-7.176-51.223-19.982-73.466-36.321c-14.776-10.854-32.08-22.701-44.945-35.733
				c-24.92-25.243-45.166-53.922-55.965-88.232c-6.745-21.431-11.094-43.275-11.07-66.007c0.026-25.085-1.106-50.174-1.921-75.256
				c-0.186-5.74-1.546-11.884-1.86-18.407c-0.047-0.987,0.694-1.844,1.681-1.898c0.79-0.044,1.512-0.185,2.079-0.333
				c0.755-0.197,4.632-1.322,6.915-4.064c0.676-0.812,1.64-2.144,2.239-3.23c0.38-0.689,0.53-1.019,0.758-1.474
				c3.206-6.724-0.221-11.796-3.52-16.668c-0.505-0.745-0.38-1.751,0.293-2.348c14.394-12.76,15.443-16.395,5.131-38.412
				c-0.336-0.717-0.169-1.573,0.419-2.102c5.915-5.326,12.094-10.642,14.312-19.16c2.156-8.276-3.685-16.622-6.792-24.835
				c-0.418-1.104,0.328-2.31,1.503-2.423c22.412-2.149,34.287-17.719,34.982-39.423c0.037-1.161,1.166-1.973,2.282-1.652
				c12.125,3.477,23.999,5.07,33.307-2.479c9.743-7.902,11.124-19.504,11.24-32.123c0.011-1.141,1.084-1.979,2.195-1.718
				c10.628,2.492,20.912,2.066,29.785-2.89c9.192-5.133,13.1-15.779,17.421-25.424c0.52-1.16,2.044-1.422,2.929-0.51
				c9.017,9.288,19.739,15.327,31.783,14.752c12.405-0.592,23.095-6.799,30.572-18.127c0.725-1.099,2.32-1.087,3.032,0.022
				c9.981,15.556,22.467,15.538,36.641,7.537c0.998-0.563,2.261-0.055,2.592,1.042c2.594,8.595,7.258,14.786,14.814,18.791
				c7.625,4.041,15.653,3.764,24,2.451c0.904-0.142,1.788,0.403,2.026,1.287c2.539,9.442,2.837,19.061,10.829,26.171
				c7.958,7.079,17.413,5.337,26.871,6.511c1.127,0.14,1.845,1.284,1.487,2.362c-0.714,2.148-1.362,4.041-1.885,5.968
				c-2.928,10.776,0.3,20.438,9.919,26.054c4.736,2.765,10.522,3.916,15.974,5.201c2.766,0.652,5.706,0.568,9.435,0.658
				c1.273,0.031,2.109,1.338,1.609,2.508c-7.328,17.157-3.751,30.237,12.26,38.615c0.818,0.428,1.202,1.389,0.87,2.251
				c-0.163,0.424-0.295,0.741-0.465,1.036c-0.501,0.869-1.153,1.651-1.648,2.523c-6.554,11.54-5.922,22.981,2.945,34.69
				c1.299,1.715,1.172,4.939,0.843,7.347c-0.402,2.939-2.026,5.745-2.501,8.63c-1.476,8.959-0.042,10.951,1.953,12.018
				c2.288,1.223,12.105,2.882,14.807,3.385c0.439,0.082,0.84,0.311,1.098,0.676c3.358,4.758,1.278,12.685,0.488,18.355
				c-3.33,23.874-3.871,47.858-4.043,71.935c-0.172,24.082-3.422,47.59-9.92,70.811c-8.011,28.629-23.307,57.215-41.812,80.478
				C669.373,738.21,642.174,759.096,612.074,777.278 M709.296,423.654c-4.308-4.216-8.433-8.64-12.957-12.611
				c-16.13-14.155-34.3-24.621-55.631-28.45c-15.157-2.721-30.101-1.798-43.712,6.492c-8.961,5.458-15.29,12.845-18.01,23.731
				c-0.317,1.267,0.816,2.433,2.098,2.186c12.152-2.344,23.321-4.645,34.56-6.535c12.81-2.155,25.488,0.128,37.701,3.466
				c11.873,3.245,23.595,7.542,34.767,12.71c10.321,4.775,20.016,10.901,30.692,17.054c1.361,0.784,3.046-0.434,2.656-1.955
				C719.672,432.775,713.733,429.291,709.296,423.654 M394.782,406.952c-8.564,8.473-17.271,16.811-25.607,25.503
				c-2,2.086-4.725,4.321-4.683,7.568c0.017,1.328,1.479,2.148,2.651,1.525c14.328-7.623,28.139-15.519,42.499-22.239
				c15.273-7.147,31.846-10.327,48.612-11.357c15.836-0.973,31.131,3.313,47.118,7.494c1.242,0.325,2.44-0.728,2.235-1.996
				c-1.149-7.096-4.398-12.01-8.443-16.321c-14.262-15.201-32.387-17.529-51.792-14.674
				C427.956,385.311,411.331,394.41,394.782,406.952 M473.647,664.071C473.647,664.071,473.906,663.919,473.647,664.071
				 M507.976,603.9C507.976,603.9,507.895,603.752,507.976,603.9 M449.577,430.748C449.577,430.748,449.731,430.668,449.577,430.748
				 M636.667,430.749C636.667,430.749,636.82,430.669,636.667,430.749z"/>
			<polygon fill="#FAFCFC" points="613.977,488.098 622.521,532.981 597.022,524.568 578.819,512.244 582.432,505.451 			"/>
			<path fill="#FAFCFC" d="M697.503,492.843l-32.625-5.711l2.08,9.579l2.168,14.098l-9.056,15.077l11.535-1.967l15.002-12.328
				c0,0,7.443-9.525,9.251-13.486C696.322,497.091,697.503,492.843,697.503,492.843z"/>
			<polygon fill="#FAFCFC" points="470.673,488.098 462.13,532.981 487.629,524.568 505.831,512.244 502.218,505.451 			"/>
			<polygon fill="#FAFCFC" points="387.355,492.572 419.98,486.861 417.9,496.441 415.732,510.539 424.788,525.616 413.253,523.648 
				398.251,511.321 388.516,496.878 			"/>
			<path fill="#F87360" d="M268.167,1163.877c-0.027,2.01-0.373,4.462-0.485,10.018c-0.008,0.384-0.141,0.764-0.393,1.054
				c-1.253,1.438-2.76,2.781-2.808,3.431c-1.699,22.922-3.762,45.831-4.742,68.787c-0.757,17.718-0.15,35.494-0.114,53.245
				c0.005,2.672-0.841,6.171,0.501,7.868c4.367,5.521,2.429,10.331-0.005,15.277c-0.353,0.718-1.169,1.086-1.94,0.872
				c-33.252-9.221-65.394-21.19-94.821-39.539c-20.355-12.692-38.103-28.274-51.554-48.442c-4.718-7.074-5.273-12.731-0.413-20.851
				c30.84-51.529,57.118-105.349,77.832-161.783c7.844-21.371,15.385-42.855,22.845-64.363
				c9.326-26.887,24.628-48.846,50.194-62.748c23.522-12.79,46.552-26.55,70.493-38.49c27.004-13.466,55.549-23.252,84.825-30.736
				c1.921-0.491,3.904-0.783,5.876-0.999c0.432-0.047,0.901,0.251,1.72,0.662c0.526,0.264,0.865,0.79,0.905,1.377
				c0.093,1.367,0.289,2.934-0.101,4.337c-16.027,57.647,24.435,117.166,82.202,130.273c41.879,9.503,79.711,1.609,112.734-26.39
				c22.86-19.382,36.027-44.128,41.324-73.65c2.074-11.559,0.487-22.571-1.414-34.47c-0.163-1.019,0.635-1.943,1.666-1.925
				c2.037,0.037,3.738,0.001,5.327,0.405c28.295,7.194,55.572,17.215,82.329,28.899c28.359,12.384,54.6,28.486,80.723,44.775
				c20.959,13.069,34.14,32.414,42.506,55.506c13.111,36.188,25.984,72.49,40.324,108.196
				c14.984,37.311,33.493,73.022,53.526,107.903c3.334,5.805,6.629,11.642,10.227,17.282c2.689,4.216,2.362,7.985-0.105,12.147
				c-7.409,12.497-16.428,23.727-27.405,33.15c-30.454,26.141-66.646,44.695-105.626,55.219c-0.789,0.213-1.609-0.187-1.955-0.928
				c-2.453-5.251-3.776-11.405-5.667-15.844c-1.289-3.024-11.279-31.207-11.85-33.089c-2.417-7.975-4.505-16.06-7.232-23.926
				c-0.937-2.704-3.112-4.979-4.846-7.406c-0.247-0.345-0.345-0.775-0.288-1.195c1.645-12.029,4.18-24.025,4.619-36.098
				c0.788-21.669,1.37-43.462-0.088-65.06c-1.163-17.223-5.244-34.28-8.539-51.312c-1.197-6.188-3.53-12.233-5.996-18.068
				c-1.308-3.095-3.642-5.756-5.667-8.547c-0.414-0.57-1.131-0.83-1.808-0.636l0,0c-0.688,0.197-1.171,0.812-1.199,1.527
				c-0.077,1.953-0.272,3.929,0.085,5.799c3.138,16.403,6.772,32.718,9.603,49.172c3.7,21.506,3.89,43.05,1.966,64.913
				c-3.43,38.973-14.649,76.086-24.553,113.549c-7.1,26.856-13.127,53.902-16.405,81.513c-1.338,11.271-3.039,22.52-3.843,33.83
				c-2.455,34.499,3.576,67.976,12.799,101.041c9.106,32.643,21.182,64.205,34.534,95.296c7.529,17.532,15.465,34.889,23.168,52.346
				c3.167,7.178,3.062,8.876-4.463,12.753c-15.451,7.96-30.976,15.916-47.005,22.588c-43.113,17.946-88.136,29.669-133.902,38.35
				c-18.002,3.415-36.366,5.625-54.661,6.624c-27.044,1.477-54.223,2.643-81.25,1.568c-22.605-0.899-45.206-4.415-67.575-8.169
				c-40.677-6.826-80.263-18.12-119.046-32.108c-22.708-8.191-44.841-17.734-65.472-30.444c-1.153-0.71-2.207-1.581-3.698-2.728
				c-0.582-0.448-0.803-1.227-0.541-1.913c1.63-4.268,3.079-8.569,5.005-12.644c18.758-39.695,35.767-80.098,49.216-121.925
				c9.129-28.391,15.613-57.273,18.707-87.088c1.898-18.293-0.535-35.932-2.229-53.861c-2.934-31.057-9.466-61.396-16.97-91.587
				c-7.58-30.497-15.982-60.838-22.127-91.626c-4.424-22.167-6.224-44.733-4.152-67.738c2.081-23.104,6.653-45.593,11.179-68.19
				c0.607-3.033,0.933-6.122,1.404-9.951c0.172-1.402-1.383-2.379-2.561-1.6c-3.984,2.632-5.565,6.173-6.486,9.543
				c-4.579,16.743-9.485,33.482-12.538,50.532c-2.581,14.415-4.017,43.681-3.834,45.995L268.167,1163.877z"/>
			<path fill="#6E4539" d="M621.35,815.231c1.486,15.814,6.748,36.774,6.641,31.43c22.679,0.889,25.405,3.653,25.98,29.094
				c0.572,25.323-9.673,46.684-24.457,66.349c-15.295,20.345-35.847,33.094-60.178,39.057
				c-41.577,10.189-79.719,2.706-109.614-29.046c-22.892-24.314-32.332-54.214-24.74-87.975c2.978-13.244,4.608-14.504,20.52-16.232
				c3.966-0.764,6.444-13.566,9.452-28.294c9.651,1.846,20.275,4.552,28.242,7.846c11.044,4.566,22.422,6.002,34.138,6.716
				c15.208,0.926,29.96-1.431,44.549-5.277c9.962-2.625,20.311-4.48,29.626-8.618C607.554,817.595,614.861,814.785,621.35,815.231z"
				/>
			<path fill="#603B34" d="M621.35,815.231c-6.518,0.363-13.796,2.364-19.841,5.051c-9.315,4.138-19.664,5.993-29.626,8.618
				c-14.589,3.845-29.341,6.203-44.549,5.277c-11.716-0.713-23.094-2.149-34.138-6.716c-7.967-3.294-18.591-5.001-27.724-7.466
				c0.939-12.475,3.679-25.899,5.559-39.321c8.674,3.877,17.503,7.273,25.244,10.858c14.382,6.662,29.531,9.807,45.161,11.766
				c5.46,0.685,11.319,0.477,16.82-0.692c18.471-3.926,35.868-9.735,52.026-19.578c0.514-0.313,6.946-3.678,7.496-4.873
				c4.388-0.526-0.429,4.606-0.123,8.433c0.525,6.567,2.309,13.114,3.016,20.519C620.691,810.112,621.39,812.269,621.35,815.231z"/>
			<path fill="#6E4438" d="M748.523,536.157c0.507-4.358,1.013-8.715,2.344-14.267c2.461-3.866-0.247-7.934-2.482-6.685
				c0.755-9.102,1.47-18.207,2.293-27.303c0.189-2.093,0.996-4.141,1.093-6.229c0.498-10.707,0.474-10.743,9.973-13.669
				c16.149-4.975,33.373,3.515,39.96,19.016c5.495,12.928,4.767,26.404,3.673,39.641c-1.293,15.633-7.422,30.03-15.751,43.334
				c-1.456,2.326-3.9,4.033-7.257,6.257c-10.416-3.938-17.888-9.275-16.985-21.68C764.519,540.43,761.68,537.475,748.523,536.157
				 M760.197,509.89C760.197,509.89,760.022,509.978,760.197,509.89z"/>
			<path fill="#603B34" d="M774.511,588.798c-3.356-1.83-12.838,1.256-9.505,5.536c-4.844,3.744-12.847,3.314-20.208,1.181
				c-0.574-16.494,0.581-41.269,2.357-58.607c7.118-0.742,13.751,1.902,15.155,7.759c0.36,1.5,2.473,2.58,3.781,3.853
				c-0.856,10.962,9.967,23.643,19.271,27.73C784.071,578.97,777.257,586.005,774.511,588.798z"/>
			<path fill="#42241B" d="M747.961,518.682c2.545-1.563,4.666-2.749,6.787-3.935c0.479,0.387,0.957,0.774,1.435,1.16
				c-1.554,2.537-3.107,5.073-5.15,8.025C749.542,522.585,748.54,520.822,747.961,518.682z"/>
			<path fill="#6E4438" d="M326.593,470.649c1.194,0.652,1.628,1.119,2.536,1.787c1.81,13.941,3.226,27.607,4.703,41.857
				c-2.696-0.544-4.788-0.966-7.249-1.463c5.959,6.145,7.171,13.734,9.547,20.009c-5.785,3.695-13.031,6.382-16.175,10.328
				c-2.42,3.037-1.862,8.448-2.927,14.354c-4.152,9.311-5.172,18.907-14.341,23.224c-11.483-8.947-17-21.742-21.326-34.888
				c-5.455-16.577-8.088-33.549-3.086-50.967c5.595-19.481,22.588-29.717,42.354-25.145
				C322.309,470.135,324.045,470.28,326.593,470.649 M322.735,510.943C322.735,510.943,322.54,511.049,322.735,510.943z"/>
			<path fill="#603B34" d="M318.735,594.121c1.581-2.542-0.344-4.927,1.872-7.584c1.412-1.693-0.024-2.039-0.647-3.419
				c-0.745-1.651,4.089-3.081,1.865-3.532c-5.883-1.194-8.382,4.065-13.548,6.855c-2.154-0.792-4.75-4.566-6.546-6.212
				c9.168-5.071,10.226-15.021,14.555-23.773c1.773-3.522,3.161-6.367,4.665-9.149c2.239-4.142,5.826-5.962,11.342-6.107
				c3.103,8.942,0.806,18.195,1.664,27.153c0.869,9.066,4.044,18.077,0.612,27.717C329.455,595.456,324.579,594.87,318.735,594.121z
				"/>
			<path fill="#57362F" d="M578.078,510.932c-1.224-9.049,1.93-17.277,5.633-25.072c10.495-22.096,29.342-43.837,49.899-40.812
				c15.662,3.175,31.346,6.903,44.268,16.935c8.865,6.882,16.926,15.201,19.625,26.801c-9.21-2.25-17.748-5.059-26.224-8.043
				c-10.164-3.578-20.56-5.647-31.353-4.695c-23.175,2.046-43.279,10.008-57.053,30.029
				C581.604,507.919,579.692,509.323,578.078,510.932z"/>
			<path fill="#57362F" d="M387.355,492.572c-0.497-7.093,3.881-14.424,7.984-19.252c11.296-13.293,27.22-18.688,43.652-23.16
				c4.49-1.222,9.094-2.025,14.005-3.099c16.562-6.176,36.812,16.95,47.245,35.77c4.877,8.799,8.415,18.006,6.747,28.49
				c-17.03-28.666-58.583-39.811-87.333-29.987C409.218,484.899,397.837,489.146,387.355,492.572z"/>
			<path fill="#0E0B09" d="M709.79,424.169c4.298,5.563,10.735,9.092,11.988,17.108c0.146,0.935-0.851,1.635-1.672,1.166
				c-11.193-6.401-21.254-12.833-31.992-17.8c-11.172-5.168-22.894-9.464-34.767-12.71c-12.213-3.338-24.891-5.621-37.701-3.466
				c-11.553,1.943-23.033,4.321-35.582,6.732c-0.802,0.154-1.496-0.571-1.317-1.368c2.574-11.444,9.014-19.12,18.251-24.746
				c13.611-8.29,28.555-9.213,43.712-6.492c21.33,3.829,39.501,14.294,55.631,28.45C700.864,415.013,704.989,419.438,709.79,424.169
				 M616.999,403.578c8.979,0.37,18.045,0.081,26.918,1.251c17.35,2.288,33.525,8.548,49.143,16.319
				c1.218,0.606,2.59,0.901,3.964,1.194c0.866,0.185,1.614-0.671,1.283-1.493c-1.042-2.58-2.494-4.451-4.322-5.818
				c-6.67-4.99-13.264-10.195-20.435-14.378c-18.2-10.618-37.509-17.368-59.009-13.031c-10.687,2.156-19.744,6.997-26.238,17.93
				c-0.482,0.811,0.19,1.826,1.124,1.693C598.903,405.899,607.135,404.745,616.999,403.578 M702.991,424.718
				C702.991,424.718,703.176,424.617,702.991,424.718z"/>
			<path fill="#0E0B09" d="M395.361,406.53c15.97-12.12,32.595-21.219,52.01-24.075c19.406-2.854,37.53-0.527,51.792,14.674
				c4.236,4.514,7.598,9.689,8.591,17.337c0.102,0.789-0.619,1.44-1.388,1.239c-16.348-4.26-31.949-8.746-48.113-7.753
				c-16.766,1.03-33.339,4.21-48.612,11.357c-14.655,6.858-28.254,14.685-42.899,22.451c-0.654,0.347-2.045-0.304-2.199-1.029
				c-0.721-3.395,2.386-5.936,4.631-8.277C377.511,423.763,386.217,415.426,395.361,406.53 M413.927,399.913
				c-8.457,6.06-17.947,10.918-24.468,19.46c-0.683,0.894,0.241,2.131,1.289,1.723c16.954-6.604,33.49-13.747,51.522-16.343
				c18.491-2.662,36.779-1.582,55.032,2.657c0.988,0.23,1.754-0.868,1.185-1.708c-10.023-14.776-24.607-20.507-41.582-19.499
				c-14.656,0.871-28.817,5.17-42.902,13.66C413.977,399.879,413.952,399.896,413.927,399.913z"/>
			<path fill="#42241B" d="M500.951,598.792c-7.331-7.967-7.532-13.496,0.417-21.39c6.984-6.934,13.513-14.214,16.855-23.44
				c3.043-8.403,5.904-17.214,6.642-26.029c1.107-13.227,2.162-26.783,0.288-39.162c3.261,3.824,5.832,12.504,5.981,22.551
				c0.129,8.707,0.733,17.492-0.177,26.105c-0.898,8.497-3.433,16.822-5.123,24.635c9.01,0.916,18.029,0.903,26.565,2.929
				c11.565,2.745,20.688,9.261,24.086,21.694c1.032,3.776,1.082,7.095-2.838,11.134c1.06-11.087-5.097-16.45-12.637-20.729
				c-15.785-8.957-31.89-8.867-48.01-1.047c-8.633,4.188-13.539,10.803-11.953,21.833
				C500.996,598.737,500.951,598.792,500.951,598.792z"/>
			<path fill="#42241B" d="M502.998,600.755c-0.637-0.211-1.161-0.583-1.809-1.538c-0.238-0.425-0.193-0.479-0.165-0.502
				c0.681,0.183,1.196,0.571,1.775,1.59C503.002,600.752,502.998,600.755,502.998,600.755z"/>
			<path fill="#42241B" d="M503.004,600.751c0.228,0.253,0.453,0.507,0.679,0.761c-0.161-0.084-0.323-0.168-0.585-0.504
				C502.998,600.755,503.002,600.752,503.004,600.751z"/>
			<path fill="#272C31" d="M616.049,403.586c-9.163,1.183-17.477,2.359-27.192,3.741c-0.689,0.098-1.212-0.64-0.865-1.243
				c6.514-11.309,15.69-16.271,26.548-18.462c21.5-4.337,40.809,2.413,59.009,13.031c7.171,4.184,13.765,9.388,20.435,14.378
				c1.886,1.411,3.371,3.357,4.419,6.064c0.278,0.718-0.365,1.464-1.118,1.303c-1.461-0.312-2.931-0.605-4.226-1.25
				c-15.618-7.771-31.793-14.032-49.143-16.319C635.043,403.659,625.978,403.948,616.049,403.586z"/>
			<path fill="#823E42" d="M490.896,677.22c-0.246-0.269-0.445-0.583-0.643-0.896c0.188,0.076,0.376,0.151,0.67,0.491
				C491.029,677.079,490.943,677.177,490.896,677.22z"/>
			<path fill="#272C31" d="M414.62,399.547c13.442-8.166,27.616-12.472,42.285-13.343c17.132-1.018,31.828,4.83,41.859,19.911
				c0.465,0.698-0.163,1.601-0.979,1.409c-18.413-4.332-36.86-5.455-55.514-2.77c-18.405,2.65-35.252,10.037-52.576,16.753
				c-0.724,0.281-1.382-0.561-0.93-1.192C395.306,411.166,405.237,406.156,414.62,399.547z"/>
			<path fill="#42241B" d="M456.104,847.793c0.085-1.861,0.263-4.383,0.711-7.721c2.844-22.466,5.234-42.807,7.683-63.495
				c0.015-0.131-0.045-0.259-0.155-0.331c-65.513-42.557-114.563-96.162-128.187-176.095c-0.031-0.18-0.197-0.303-0.378-0.282
				c-13.651,1.569-24.897-3.308-36.032-10.065c-0.013-0.008-0.027-0.018-0.039-0.027c-2.003-1.632-3.723-2.723-5.442-3.811
				c-0.025-0.016-0.049-0.035-0.069-0.057c-23.638-25.11-33.099-54.664-26.81-88.672c2.927-15.824,11.643-27.669,28.839-33.477
				c0.016-0.005,0.033-0.01,0.049-0.013c2.765-0.578,4.241-0.819,6.61-0.989c0.018-0.001,0.037-0.001,0.054,0
				c8.606,0.644,16.334,1.218,25.083,1.867c0.232,0.017,0.421-0.196,0.374-0.424c-1.115-5.437-2.305-10.429-3.052-15.486
				c-0.299-2.024,0.452-4.204,1.373-6.642c0.003-0.006,0.005-0.013,0.008-0.02c1.979-4.382,3.43-8.494,4.994-11.972
				c0.143-0.318,0.614-0.236,0.656,0.11c2.804,23.178,6.216,45.518,7.663,67.985c1.692,26.262,1.494,52.643,2.281,78.968
				c0.828,27.688,7.244,54.174,18.767,79.266c18.768,40.868,48.118,73.073,83.666,99.976c20.86,15.787,43.447,28.483,67.854,38.007
				c18.618,7.264,37.309,8.744,56.271,1.809c8.869-3.244,17.937-6.205,26.331-10.448c48.242-24.386,86.347-59.749,113.954-106.345
				c9.694-16.361,16.65-33.766,21.372-52.92c7.956-26.076,8.309-52.27,9.051-79.374c1.653-23.042,2.606-45.205,4.894-67.23
				c1.475-14.198,4.754-28.208,7.594-41.684c0.072-0.341,0.546-0.367,0.667-0.04c1.844,4.996,3.399,9.499,4.489,14.559
				c0.008,0.038,0.01,0.079,0.005,0.118c-0.515,4.331-0.534,8.066-0.534,12.537c0,0.242,0.241,0.413,0.469,0.332
				c10.307-3.678,19.845-3.247,29.997-0.863c0.007,0.002,0.015,0.004,0.023,0.006c1.466,0.441,6.022,1.971,7.266,2.664
				c13.558,7.542,18.867,21.107,20.536,35.975c3.132,27.908-3.988,53.328-22.614,76.254c-0.009,0.011-0.018,0.021-0.028,0.031
				c-2.559,2.542-4.163,4.333-6.423,6.399c-12.014,10.096-24.978,15.444-40.387,13.695c-0.176-0.02-0.341,0.098-0.382,0.27
				c-0.994,4.195-1.938,7.664-2.611,11.185c-6.862,35.859-22.013,67.908-44.297,96.7c-18.343,23.7-39.691,44.312-64.701,60.79
				c-7.242,4.771-9.63,9.823-8.889,18.17c1.223,13.78,1.612,26.588,2.348,40.417c0.213,3.993,0.783,8.944,0.737,12.959
				c-0.01,0.885,0.173,4.276,0.27,7.452c0.044,5.564-0.011,8.952-0.011,13.181c0,1.127-0.974,0.493-1.094,0.119
				c-4.987-15.501-4.58-31.493-6.634-48.054c-0.942-10.84-1.961-20.833-3.084-31.816c-0.024-0.235-0.276-0.379-0.493-0.286
				c-3.684,1.568-6.094,2.391-8.286,3.606c-14.826,8.211-30.468,14.446-47.04,17.798c-7.754,1.569-15.995,2.285-23.84,1.544
				c-21.098-1.992-40.324-10.192-58.977-19.828c-1.844-0.953-3.885-1.523-6.666-2.553c-0.209-0.078-0.444,0.057-0.475,0.278
				c-1.772,12.676-3.417,24.416-5.435,36.865c-1.624,8.298-2.466,15.964-4.223,23.414c-1.508,6.392-2.676,16.893-5.532,22.892
				c-0.866,2.269-3.269,2.177-2.919-0.899L456.104,847.793 M757.44,514.851c-3.702,6.08-8.339,12.487-7.78,19.33
				c0.008,0.094,0.1,0.167,0.185,0.209c4.182,2.089,10.345,2.521,13.598,6.681c3.244,4.148,4.31,8.697,2.661,13.255
				c-0.105,0.291-0.515,0.299-0.642,0.016c-0.674-1.505-1.471-8.3-6.99-10.361c-2.193-0.819-4.87-1.168-9.352-0.335
				c-0.159,0.03-0.283,0.166-0.29,0.328c-0.74,16.259-1.487,32.665-2.276,49.989c-0.009,0.2,0.155,0.371,0.355,0.371
				c13.741-0.048,24.407-3.82,32.858-14.421c0.796-0.998,6.501-6.767,7.976-8.937c14.861-21.849,21.057-46.024,16.525-72.049
				c-4.243-24.367-24.151-35.174-47.663-25.858c-0.086,0.034-0.158,0.101-0.198,0.184c-6.144,12.803-5.328,27.584-6.193,41.165
				c-0.013,0.203,0.155,0.374,0.358,0.374c1.21,0.001,3.721-1.131,4.115-1.34c1.271-0.673,3.368-2.129,3.789-2.024
				C759.161,511.598,758.293,513.658,757.44,514.851 M316.309,553.445c0.617-3.489,0.203-6.197,1.506-9.956
				c0.938-2.707,2.247-3.703,3.179-4.521c2.899-2.542,7.015-3.195,10.5-4.783c0.094-0.043,0.167-0.128,0.196-0.228
				c1.938-6.798-0.17-10.414-4.253-14.816c-1.787-1.927-3.835-3.277-4.706-4.049c-0.507-0.449-1.347-0.876-0.741-2.169
				c0.354-0.755,2.317-0.418,3.311-0.123c1.069,0.317,4.456,0.657,6.696,0.95c0.221,0.029,0.421-0.154,0.405-0.376
				c-0.718-10.44-1.46-20.302-2.05-30.174c-0.537-8.978-0.601-9.154-11.683-12.542c-0.012-0.004-0.024-0.007-0.036-0.009
				c-18.556-4.021-33.514,4.553-39.562,22.384c-4.254,12.539-4.369,25.2-1.501,37.915c4.046,17.943,9.773,35.128,24.842,49.076
				c8.284,8.836,18.398,13.319,31.78,14.097c0.21,0.012,0.388-0.165,0.376-0.375c-1.006-17.674-1.946-34.188-2.887-50.714
				c-0.01-0.175-0.155-0.319-0.33-0.331c-5.78-0.406-8.875,1.725-11.014,5.377c-1.239,2.115-2.263,4.357-3.42,5.655
				C316.681,553.997,316.247,553.794,316.309,553.445z"/>
			<g>
				<path fill="#A8874A" d="M759.895,578.417c0.809,0.701,8.686,0.86,17.369,11.957c1.805,2.307,2.905,4.01,4.024,6.717
					c6.935,16.778,10.186,33.947,9.085,51.892c-0.762,12.41-2.198,24.722-9.09,35.556c-5.606,8.812-15.198,15.023-24.07,15.302
					c-6.278,0-19.552-6.632-24.272-16.705c-6.944-16.235-3.291-27.922-1.306-31.999c1.641,5.399,1.987,10.758,2.674,15.721
					c1.706,12.333,9.22,17.393,19.231,23.778c2.979,1.9,5.23,1.511,8.22-0.266c12.218-7.263,17.703-15.783,20.728-28.865
					c3.692-15.964,2.349-31.91-1.166-47.689C779.445,605.389,762.19,586.75,759.895,578.417z"/>
				<path fill="#DEB565" d="M774.671,592.958c3.303,6.687,6.428,13.89,7.966,20.792c3.515,15.779,3.543,31.791-0.149,47.755
					c-3.025,13.082-8.51,22.602-20.728,29.865c-2.989,1.777-5.241,2.166-8.22,0.266c-10.011-6.385-18.412-12.204-20.118-24.537
					c-0.661-4.777-0.946-7.074-1.722-14.824c-0.043-0.429-0.02-1.349,0.072-1.771c3.356-15.424,9.496-35.781,13.329-50.124
					c0.065-0.396,0.102-0.574,0.84-0.492c1.118,0.125,1.996,0.225,3.258,0.26c0.926,0.026,0.193,2.731-0.116,3.711
					c-4.732,15.003-9.56,32.005-8.977,47.152c0.487,12.627,6.04,20.751,15.843,26.954c0.852,0.539,1.906,0.666,2.851,0.314
					c0.661-0.246,1.221-0.475,1.636-0.859c1.457-1.351,2.753-2.488,3.862-4.124c15.985-23.558,15.084-48.227,4.585-73.432
					c-0.547-1.314-11.857-13.965-14.424-16.885c-1.218-1.385-1.265-3.983,0.46-4.638
					C762.235,575.564,771.873,587.293,774.671,592.958z"/>
				<path fill="#A8874A" d="M754.873,600.054c-5.391,15.477-10.144,34.123-8.222,50.695c0.794,6.846,2.118,13.761,8.947,18.037
					c0.666,0.417,1.539,0.384,2.131-0.133c6.418-5.601,9.269-13.013,10.564-20.751c0.862-5.149,2.05-16.076,1.387-25.898
					c-0.417-6.177-1.755-11.879-2.686-15.736c-2.449-10.143-10.946-19.495-10.93-21.472c1.288,0.499,9.163,7.836,12.82,15.07
					c10.499,25.205,11.4,49.874-4.585,73.432c-1.11,1.636-3.09,4.107-4.695,4.887c-1.422,0.691-3.122,0.542-4.444-0.326
					c-9.4-6.163-14.577-14.498-15.053-26.847c-0.634-16.437,3.207-34.993,9.092-50.863
					C751.113,600.307,752.343,600.122,754.873,600.054z"/>
			</g>
			<g>
				<path fill="#A8874A" d="M300.255,613.816c-3.515,15.779-4.858,31.725-1.166,47.689c3.025,13.082,8.51,21.602,20.728,28.865
					c2.989,1.777,5.241,2.166,8.22,0.266c10.011-6.385,17.525-11.446,19.231-23.778c0.687-4.962,1.033-10.321,2.673-15.721
					c1.985,4.077,6.268,14.648-1.306,31.999c-4.72,10.072-17.994,16.705-24.272,16.705c-8.871-0.279-18.463-6.49-24.07-15.302
					c-6.892-10.834-8.328-23.146-9.09-35.556c-1.101-17.944,2.15-35.114,9.085-51.892c1.119-2.707,2.219-4.41,4.024-6.717
					c8.683-11.096,16.561-11.256,17.369-11.957C319.387,586.75,302.133,605.389,300.255,613.816z"/>
				<path fill="#DEB565" d="M326.657,578.343c1.725,0.655,1.678,3.253,0.46,4.638c-2.567,2.919-13.877,15.571-14.424,16.885
					c-10.499,25.205-11.4,49.874,4.585,73.432c1.11,1.636,2.405,2.773,3.862,4.124c0.415,0.385,0.975,0.613,1.636,0.859
					c0.945,0.352,1.999,0.225,2.851-0.314c9.804-6.203,15.357-14.328,15.843-26.954c0.584-15.147-4.245-32.149-8.977-47.152
					c-0.309-0.98-1.041-3.685-0.116-3.711c1.263-0.035,2.14-0.135,3.258-0.26c0.738-0.082,0.775,0.096,0.84,0.492
					c3.832,14.343,9.973,34.7,13.329,50.124c0.092,0.421,0.115,1.342,0.072,1.771c-0.776,7.75-1.061,10.047-1.722,14.824
					c-1.706,12.333-10.107,18.152-20.118,24.537c-2.979,1.9-5.23,1.511-8.22-0.266c-12.218-7.263-17.703-16.783-20.728-29.865
					c-3.692-15.964-3.664-31.976-0.149-47.755c1.538-6.902,4.663-14.105,7.966-20.792
					C309.704,587.293,319.343,575.564,326.657,578.343z"/>
				<path fill="#A8874A" d="M332.378,600.149c5.885,15.87,9.726,34.426,9.092,50.863c-0.476,12.35-5.654,20.684-15.053,26.847
					c-1.323,0.867-3.022,1.017-4.444,0.326c-1.605-0.78-5.246-3.353-6.355-4.989c-15.985-23.558-13.424-48.126-2.925-73.331
					c3.656-7.234,11.532-14.571,12.82-15.07c0.017,1.978-8.481,11.329-10.93,21.472c-0.931,3.856-2.269,9.558-2.686,15.736
					c-0.662,9.822,0.525,20.749,1.387,25.898c1.295,7.738,4.146,15.15,10.564,20.751c0.592,0.517,1.465,0.551,2.131,0.133
					c6.829-4.276,8.153-11.191,8.947-18.037c1.922-16.572-2.831-35.218-8.222-50.695
					C329.234,600.122,330.464,600.307,332.378,600.149z"/>
			</g>
			<g>
				<g>
					<path d="M577.327,512.973c0,0,25.507,28.083,64.411,23.445c38.904-4.638,53.847-33.751,55.136-41.481
						c0,0-9.79,20.096-34.009,29.629s-48.437,12.109-82.446-12.882L577.327,512.973z"/>
					<ellipse cx="638.058" cy="505.002" rx="33.596" ry="30.217"/>
					<ellipse fill="#22211E" cx="637.603" cy="505.294" rx="29.404" ry="26.446"/>
					<path fill="#FAFCFC" d="M616.905,496.983c0.31-2.056,1.598-5.434,6.626-6.44c7.391-1.478,6.701,6.602,4.631,10.445
						s-5.124,6.011-8.672,3.153C615.944,501.284,616.76,497.949,616.905,496.983z"/>
					<path d="M723.153,487.466c0,0-12.882,11.336-45.603,4.638c-32.721-6.699-47.406-7.987-73.943,4.38
						s-23.188,15.201-23.188,15.201l-3.092,1.288c0,0,6.795-30.03,48.038-38.868c34.354-7.361,54.741,10.775,70.175,13.48
						C707.692,489.716,723.153,487.466,723.153,487.466z"/>
				</g>
				<g>
					<path d="M507.58,512.973c0,0-25.507,28.083-64.411,23.445s-53.847-33.751-55.136-41.481c0,0,9.79,20.096,34.009,29.629
						c24.218,9.533,48.437,12.109,82.446-12.882L507.58,512.973z"/>
					<ellipse cx="446.849" cy="505.002" rx="33.596" ry="30.217"/>
					<ellipse fill="#22211E" cx="447.303" cy="505.294" rx="29.404" ry="26.446"/>
					<path fill="#FAFCFC" d="M425.859,496.983c0.31-2.056,1.598-5.434,6.626-6.44c7.391-1.478,6.701,6.602,4.631,10.445
						s-5.124,6.011-8.672,3.153C424.897,501.284,425.714,497.949,425.859,496.983z"/>
					<path d="M361.754,487.466c0,0,12.882,11.336,45.603,4.638c32.721-6.699,47.406-7.987,73.944,4.38
						c26.537,12.367,23.188,15.201,23.188,15.201l3.092,1.288c0,0-6.87-27.671-47.922-37.358
						c-33.982-8.019-50.191,7.181-70.292,11.971C377.366,490.445,361.754,487.466,361.754,487.466z"/>
				</g>
				<g>
					<g>
						<path fill="#4A2D26" d="M577.861,512.973c0,0-3.595-28.032,16.938-50.453c18.129-19.796,25.25-17.323,42.835-32.266
							c0,0-13.96,14.649-34.468,32.706C582.134,481.479,577.861,512.973,577.861,512.973z"/>
						<path fill="#4A2D26" d="M697.407,487.585c0,0-2.861-21.119-32.064-34.816c-25.573-11.995-44.439-9.623-44.439-9.623
							l-7.851,6.162c0,0,23.773-5.428,52.661,8.646C694.602,472.028,697.407,487.585,697.407,487.585z"/>
					</g>
				</g>
				<path fill="#4A2D26" d="M507.823,512.973c0,0,3.45-27.9-16.938-50.453c-14.385-15.913-21.329-11.519-42.835-32.266
					c0,0,1.829,5.985,8.874,12.288c7.046,6.303,20.422,14.302,28.016,23.417C499.542,483.487,507.823,512.973,507.823,512.973z"/>
				<path fill="#4A2D26" d="M387.355,488.098c0,0,5.552-23.752,35.046-36.809c22.111-9.789,41.379-7.142,41.379-7.142l5.777,3.756
					c0,0-23.487-2.243-48.888,8.87C391.229,469.652,387.355,488.098,387.355,488.098z"/>
			</g>
			<path fill="#541422" d="M472.86,662.071c0,0,18.846,11.145,36.555-3.288c16.869-13.748,25.213-10.914,31.656-11.282
				s16.882,1.959,26.51,7.905c9.628,5.946,19.806,14.539,35.039,9.052c0,0-7.26,7.565-13.716,16.969
				c-4.543,6.617-6.703,13.779-15.019,19.927c-9.592,7.092-26.529,7.979-31.587,7.845c-6.934-0.184-27.097,1.557-40.108-14.578
				C496.73,687.85,479.12,666.305,472.86,662.071z"/>
			<path fill="#321A1A" d="M470.486,660.409c0,0,9.155,5.415,22.264,24.177c16.147,23.109,36.584,26.584,49.24,26.641
				c12.817,0.057,28.523-1.897,40.9-18.398s13.337-21.776,19.021-28.675c0,0-17.075,23.564-27.325,30.334
				c-9.76,6.446-21.406,9.936-32.595,9.67c-17.729-0.422-31.223-4.128-44.29-19.175
				C484.087,669.306,470.486,660.409,470.486,660.409z"/>
			<path fill="#541422" d="M475.483,662.653c0,0,16.224,8.563,33.932-5.869c16.869-13.748,25.213-9.914,31.656-10.282
				s16.882,1.959,26.51,7.905c9.628,5.946,20.923,11.783,35.039,11.052c0,0-31.345,14.855-63.252,14.779
				C507.94,680.161,478.589,664.754,475.483,662.653z"/>
			<path fill="#321A1A" d="M459.657,652.016c0,0,31.614,31.047,80.509,30.227c48.738-0.817,71.516-21.575,85.084-32.976
				c0,0-33.664,26.364-85.198,26.82S459.657,652.016,459.657,652.016z"/>
			<path fill="#321A1A" d="M489.429,665.458c0,0,9.472-1.265,26.346-14.034c16.874-12.77,34.155-8.226,41.15-4.664
				c4.817,2.453,22.408,14.4,32.38,17.33c0,0-8.181-1.577-18.064-6.339c-9.844-4.743-22.394-8.255-30.088-8.255
				C518.278,649.496,514.741,662.265,489.429,665.458z"/>
			<path fill="#B3443E" d="M838.976,1673.922c-4.143,2.276-7.826,4.021-12.664,6.452c-14.994,7.407-28.556,14.789-42.721,20.736
				c-66.198,27.793-135.815,40.256-207.079,43.903c-54.989,2.814-109.668-1.21-163.805-11.666
				c-49.54-9.568-97.441-23.988-142.198-47.783c-5.596-2.975-11.228-5.883-16.844-8.822c-2.837-1.873-5.674-3.746-9.148-5.686
				c-4.615-4.078-2.468-7.936-0.51-11.955c17.003-34.908,32.133-70.61,45.151-107.196c10.78-30.297,19.232-61.21,24.209-93.018
				c3.763-24.049,1.719-47.948-2.219-71.749c-2.124-12.843-4.688-25.613-7.179-39.984c-1.527-9.16-1.527-9.16-10.868-9.748
				c-11.803-1.541-22.732-2.682-33.588-4.305c-45.852-6.858-87.244-23.818-122.753-55.146c-3.433-3.566-6.6-6.528-9.768-9.491
				c-8.997-12.051-17.961-24.128-27.01-36.141c-3.252-4.316-2.804-8.235-0.273-12.914c38.782-71.699,70.417-146.622,99.983-222.469
				c2.55-6.543,4.561-13.3,7.206-19.802c8.573-21.075,22.164-38.446,41.458-50.364c25.044-15.469,50.238-30.902,76.444-44.235
				c41.073-20.897,85.542-34.71,131.942-41.923c-0.323,2.91-0.482,4.607-0.639,7.178c-15.912,1.727-18.144,3.102-21.122,16.346
				c-7.592,33.762,1.848,63.661,24.74,87.975c29.895,31.752,68.037,39.235,109.614,29.046c24.33-5.962,44.882-18.711,60.178-39.057
				c14.784-19.666,25.029-41.026,24.457-66.349c-0.575-25.441-3.301-26.205-26-28.779c-0.179-3.104-0.209-5.371-0.24-7.639
				c44.007,6.729,85.748,20.74,126.232,38.948c29.746,13.378,57.329,30.475,84.383,48.474
				c20.732,13.793,35.339,32.644,43.574,56.137c14.416,41.129,31.398,81.211,49.126,120.976
				c12.267,27.516,25.081,54.794,37.991,82.017c5.304,11.183,11.259,22.08,17.4,32.832c3.045,5.332,3.229,9.911-0.466,14.754
				c-8.923,11.695-17.804,23.422-27.661,35.929c-3.535,2.977-6.111,5.16-9.3,7.616c-23.507,21.246-49.339,36.986-79.235,46.173
				c-25.277,7.768-51.075,12.083-78.069,14.297c-8.364,1.392-8.364,1.392-8.912,11.704c-4.652,24.632-9.637,49.202-10.552,74.382
				c-1.034,28.437,4.203,55.981,11.604,83.185c13.229,48.625,32.319,95.041,53.657,140.587c1.988,4.245,3.96,8.499,5.83,12.797
				C846.424,1667.253,846.305,1667.546,838.976,1673.922 M261.055,1325.189c12.962,3.821,26.164,5.984,40.678,6.519
				c-4.516-15.675-8.451-30.472-13.048-45.061c-11.358-36.038-19.389-72.673-21.014-112.151c-0.01-2.148,0.266-9.344,0.056-12.214
				c1.33-14.964,1.624-30.114,4.262-44.845c3.053-17.05,7.96-33.789,12.538-50.532c1.123-4.105,3.224-8.465,9.457-11.126
				c-0.729,5.386-1.046,9.305-1.813,13.134c-4.526,22.597-9.098,45.085-11.179,68.19c-2.072,23.005-0.272,45.571,4.152,67.738
				c6.145,30.788,14.547,61.129,22.127,91.626c7.504,30.192,14.036,60.531,16.97,91.587c1.694,17.929,4.127,35.567,2.229,53.861
				c-3.093,29.815-9.578,58.697-18.707,87.088c-13.449,41.827-30.458,82.23-49.216,121.925c-2.101,4.445-3.634,9.158-5.454,13.806
				c2.046,1.53,3.295,2.622,4.687,3.48c20.63,12.709,42.764,22.253,65.472,30.444c38.783,13.988,78.369,25.283,119.046,32.108
				c22.369,3.753,44.97,7.27,67.575,8.169c27.027,1.075,54.207-0.092,81.25-1.568c18.295-0.999,36.659-3.209,54.661-6.624
				c45.766-8.68,90.789-20.404,133.902-38.35c16.029-6.672,31.554-14.628,47.005-22.588c7.524-3.877,7.63-5.575,4.463-12.753
				c-7.703-17.458-15.639-34.814-23.168-52.346c-13.352-31.091-25.428-62.653-34.534-95.296
				c-9.223-33.065-15.254-66.542-12.799-101.041c0.805-11.311,2.505-22.559,3.843-33.83c3.278-27.611,9.305-54.657,16.405-81.513
				c9.905-37.463,21.123-74.576,24.553-113.549c1.924-21.863,1.734-43.407-1.966-64.913c-2.831-16.454-6.465-32.769-9.603-49.172
				c-0.431-2.251-0.059-4.656-0.059-6.99l2.303-0.661c2.158,3.151,4.888,6.06,6.345,9.507c2.466,5.835,4.799,11.88,5.996,18.068
				c3.295,17.032,7.377,34.089,8.539,51.312c1.458,21.598,0.876,43.391,0.088,65.06c-0.447,12.292-3.066,24.504-5.614,37.859
				c-8.082,28.833-16.189,57.66-24.184,86.517c-0.478,1.724-0.062,3.695-0.062,6.51c11.677-2.061,22.49-3.555,33.091-5.978
				c7.682-1.756,15.083-4.745,24.181-7.392c38.7-11.174,74.635-27.812,105.433-54.248c10.977-9.422,19.996-20.652,27.405-33.15
				c2.467-4.162,2.794-7.931,0.105-12.147c-3.598-5.641-6.893-11.478-10.227-17.282c-20.033-34.882-38.542-70.593-53.526-107.903
				c-14.339-35.705-27.213-72.008-40.324-108.196c-8.366-23.091-21.547-42.436-42.506-55.506
				c-26.123-16.289-52.363-32.391-80.723-44.775c-26.757-11.684-54.034-21.705-82.329-28.899c-2.079-0.529-4.35-0.304-7.313-0.475
				c2.033,12.67,3.923,24.263,1.734,36.465c-5.296,29.522-18.463,54.268-41.324,73.65c-33.023,27.999-70.855,35.892-112.734,26.39
				c-57.767-13.108-98.229-72.626-82.202-130.273c0.293-1.055,0.255-2.202,0.179-3.288c-0.092-1.302-0.879-2.487-2.09-2.972
				c-0.228-0.092-0.424-0.137-0.612-0.116c-1.972,0.216-3.956,0.508-5.876,0.999c-29.276,7.484-57.821,17.27-84.825,30.736
				c-23.942,11.939-46.971,25.699-70.493,38.49c-25.566,13.901-40.867,35.861-50.194,62.748
				c-7.461,21.508-15.001,42.992-22.845,64.363c-20.714,56.434-46.992,110.254-77.832,161.783c-4.86,8.12-4.306,13.776,0.413,20.851
				c13.452,20.168,31.199,35.75,51.554,48.442C193.177,1303.482,225.783,1315.524,261.055,1325.189z"/>
			<path fill="#272C31" d="M306.999,298.805l9.6-21.818l28.102-7.68l-2.095-24.786l14.662-13.091l23.215-2.618l1.92-14.313
				l9.871-4.366l2.696-26.005l13.615-9.426l17.804,0.873l18.677,15.884l11.52-18.502l16.757-2.444l12.742,7.68l3.491-23.215
				l17.455-10.822l18.257-4.637l31.656,18.706l6.278,12.314l24.87-15.936l21.007,6.036l13.522,18.351l-2.324,10.883l25.058-14.084
				l16.096-1.646l19.022,11.523l2.927,12.986l-8.211,15.053l11.496-3.399l13.195,6.598l-1.434,14.558l13.496-4.689l19.813-0.759
				l16.983,20.795l4.315,12.696l-2.85,14.456l21.888,10.282l6.414,24.071l-7.635,20.01l20.157,15.474l5.263,29.464l-5.263,13.026
				l-18.686,3.755l14.138,29.604c0,0-4.411,8.062-14.736,19.258c-3.944,4.277,11.279,19.374,5.525,24.291
				c0,0-17.763,0.922-31.605,5.995c-13.644,5.001-17.619-3.181-17.619-8.084s3.087-23.787,3.087-23.787l-4.54-10.169l-0.363-13.074
				l9.987-17.069l-13.437-7.082l-6.719-10.895l4.358-19.248l1.57-7.99l-21.544-0.726l-17.795-9.442l-1.453-18.158l3.632-10.169
				l-20.519-2.724l-14.113-7.626l-7.118-26.874l-16.174,2.179l-16.524-6.537l-9.624-18.158l-11.076,7.082l-13.982,1.634
				l-11.984-8.716l-3.087-13.8l-14.526,22.516l-22.698,4.903l-17.25-6.719l-14.163-12.892l-5.266,16.524l-12.529,14.89
				l-11.258,3.087l-24.15-2.179l1.816,13.8l-4.903,15.979l-15.253,13.074l-24.695-4.358l-4.219,25.603l-11.579,11.803l-24.15,5.266
				l8.693,15.798l-2.701,15.798l-16.342,16.342l10.169,15.947l-0.545,12.016l-11.258,13.074c0,0,16.117,16.054-0.113,25.186
				c-9.944,5.596-29.808-1.469-34.454-17.943c-2.937-10.413-15.504-22.987-16.101-33.289c-0.238-4.107,1.045-14.694,20.749-25.253
				c0,0-24.366-24.123-23.304-29.236c1.061-5.106-8.06-21.547,4.015-30.371c9.474-6.923,19.26-11.512,25.135-19.026
				C319.741,320.1,306.999,298.805,306.999,298.805z"/>
			<path fill="#0E0B09" d="M730.708,466.151c0.8,2.469,2.525,3.221,2.073,3.387s-1.914-0.149-4.074-2.649
				c-1.665-1.928-1.521-5.468-1.692-7.371c-0.17-1.891-0.243-5.182,0.44-7.403c0.717-2.332,1.924-4.681,2.255-7.103
				c0.329-2.408,0.456-5.632-0.843-7.347c-8.868-11.709-8.5-23.15-1.945-34.69c0.495-0.872,1.148-1.654,1.648-2.523
				c0.242-0.42,0.407-0.885,0.695-1.638c0.2-0.521-0.037-1.106-0.535-1.358c-16.783-8.513-20.367-22.018-12.419-39.834
				c0.318-0.713-0.181-1.523-0.961-1.55c-4.238-0.143-7.466,0.024-10.487-0.689c-5.452-1.285-11.238-2.437-15.974-5.201
				c-9.619-5.616-12.848-15.278-9.919-26.054c0.589-2.17,1.337-4.296,2.158-6.793c0.209-0.635-0.202-1.32-0.864-1.416
				c-9.755-1.413-19.558,0.671-27.767-6.632c-8.165-7.263-8.299-17.146-10.997-26.783c-0.149-0.533-0.684-0.864-1.231-0.775
				c-8.572,1.397-16.811,1.792-24.627-2.35c-7.794-4.131-12.511-10.588-15.053-19.61c-0.195-0.692-0.978-1.015-1.6-0.654
				c-14.762,8.562-27.988,9.607-38.231-7.221c-0.413-0.678-1.405-0.686-1.827-0.014c-7.514,11.976-18.195,17.626-30.94,18.235
				c-12.36,0.59-23.297-4.019-32.46-13.816c-0.532-0.569-1.47-0.428-1.789,0.283c-4.497,10.01-8.386,19.412-17.884,24.716
				c-9.103,5.084-18.698,6.187-29.671,3.435c-0.692-0.174-1.36,0.34-1.361,1.053c-0.019,12.989-2.223,24.16-12.187,32.242
				c-9.523,7.724-20.021,10.019-32.516,6.185c-0.699-0.215-1.402,0.291-1.416,1.023c-0.437,22.532-11.394,35.553-34.721,37.474
				c-0.721,0.059-1.196,0.783-0.942,1.46c3.217,8.575,6.546,16.099,4.314,24.67c-2.265,8.699-8.662,14.058-14.689,19.5
				c-0.363,0.328-0.464,0.862-0.256,1.306c10.668,22.659,10.318,25.982-4.594,39.162c-0.404,0.357-0.489,0.961-0.193,1.411
				c2.281,3.461,4.424,7.026,4.476,11.194c0.016,1.275-1.759,1.557-2.118,0.334c-1.884-6.425-7.381-10.621-14.322-14.588
				c-0.807-0.461-0.699-1.659,0.178-1.968c1.735-0.612,2.918-1.062,4.14-1.245c11.817-1.767,16.994-11.444,11.196-21.906
				c-2.044-3.688-5.435-6.643-8.291-9.861c-1.362-1.535-2.84-2.968-4.872-5.017c-0.559-0.564-0.344-1.521,0.402-1.794
				c2.69-0.986,4.425-1.629,6.168-2.248c15.34-5.449,20.47-18.341,12.971-32.971c-1.359-2.651-3.436-4.924-4.985-7.49
				c-0.807-1.336-1.488-1.96-2.524-4.314c-0.531-1.207,0.359-2.353,1.111-2.393c4.574-0.24,8.308-0.524,12.044-0.544
				c20.988-0.112,31.727-13.373,27.662-34.164c-0.691-3.534-1.174-7.109-1.68-10.505c-0.057-0.383-0.339-2.095,1.47-2.821
				c2.471-0.991,3.856,0.817,5.344,2.569c11.56,13.614,31.938,10.182,38.629-6.618c2.938-7.379,3.09-14.946,0.327-22.561
				c-0.354-0.977-0.472-2.039-0.525-3.125c-0.034-0.714,0.119-3.14,3.101-3.218c1.379-0.036,2.747,0.129,4.064,0.435
				c3.891,0.904,7.603,2.741,11.519,3.347c19.458,3.008,29.119-9.008,33.597-23.124c0.762-2.402,1.348-4.859,1.881-7.291
				c0.883-4.027,6.192-4.991,8.465-1.552l0,0c9.28,13.851,24.915,19.328,40.364,14.302c8.939-2.908,14.867-8.658,17.969-17.506
				c0.848-2.418,1.852-4.782,2.857-7.145c1.163-2.542,4.022-1.567,4.533,0.306c0.695,2.548,1.39,5.097,2.171,7.618
				c5.035,16.24,17.766,19.912,30.966,9.008c1.861-1.537,3.854-2.914,6.638-4.943c0.65-0.474,1.577-0.104,1.714,0.689
				c1.942,11.194,3.807,21.425,14.795,24.848c8.511,2.651,17.251,1.563,26.523-2.337c1.874-0.788,3.955,0.571,4.021,2.603
				c0.119,3.621,0.22,6.457,0.247,9.293c0.174,18.124,8.727,26.346,26.95,25.48c3.408-0.162,6.8-0.666,10.23-1.19
				c3.534-0.54,6.085,3.365,4.118,6.351c-0.772,1.172-1.618,2.264-2.097,3.492c-1.898,4.87-4.562,10.029-4.405,14.986
				c0.29,9.211,8.149,15.664,18.441,16.544c4.993,0.427,10.051,0.067,15.078,0.145c2.527,0.039,5.052,0.199,8.78,0.383
				c0.816,0.04,1.31,0.933,0.905,1.643c-1.833,3.217-3.332,5.526-4.305,8.039c-1.908,4.928-4.569,9.983-4.759,15.065
				c-0.317,8.509,6.288,14.981,15.662,16.99c3.157,0.677,6.623,0.461,7.551,5.167c0.068,0.342-0.053,0.693-0.307,0.932
				c-1.496,1.403-3.248,3.001-4.927,4.671c-6.012,5.98-9.105,13.09-8.488,21.702c0.614,8.555,3.164,10.632,11.421,9.144
				c1.443-0.26,2.911-0.385,4.604-0.558c0.736-0.075,1.335,0.591,1.189,1.316c-0.823,4.07-4.386,4.987-6.774,7.017
				C732.043,446.512,727.61,456.591,730.708,466.151z"/>
			<path fill="#4A2D26" d="M591.915,540.862c-0.57-0.15-0.856,0.665-0.316,0.901c8.842,3.869,24.65,22.151,57.004,16.798
				c23.755-3.93,36.595-12.536,44.071-20.669c0.441-0.48-0.12-1.215-0.697-0.911c-8.076,4.255-32.212,15.289-48.025,16.835
				C613.836,556.76,602.991,543.771,591.915,540.862z"/>
			<path fill="#4A2D26" d="M492.288,540.909c0.546-0.243,0.904,0.645,0.378,0.929c-7.118,3.844-24.023,23.39-57.419,17.688
				c-25.049-4.277-39.953-18.004-44.105-22.607c-0.31-0.344,0.066-0.867,0.49-0.682c3.72,1.624,12.647,6.946,24.295,11.276
				C450.742,560.454,463.709,553.646,492.288,540.909z"/>
			<path fill="#3F2119" d="M599.131,619.162c0.518,2.932,3.292,14.308,16.074,23.096c14.795,10.171,23.061,13.639,30.024,23.81
				c6.963,10.171,7.887,15.026,6.963,24.966c0,0-0.483,2.927,1.203,3.669c1.686,0.742,3.305-2.698,3.305-5.397
				c0-2.349,0.118-9.012-1.132-13.962c-1.272-5.038-5.328-10.928-11.235-16.943c-4.732-4.819-11.469-9.298-18.934-13.116
				c-16.44-8.409-21.1-15.814-26.065-26.184C599.231,618.884,599.05,618.7,599.131,619.162z"/>
			<path fill="#3F2119" d="M485.166,619.162c-0.518,2.932-3.292,14.308-16.074,23.096c-14.795,10.171-23.061,13.639-30.024,23.81
				c-6.963,10.171-7.887,15.026-6.963,24.966c0,0,0.483,2.927-1.204,3.669c-1.686,0.742-3.305-2.698-3.305-5.397
				c0-2.349-0.118-9.012,1.132-13.962c1.272-5.038,5.328-10.928,11.235-16.943c4.732-4.819,11.469-9.298,18.934-13.116
				c16.44-8.409,21.1-15.814,26.065-26.184C485.066,618.884,485.248,618.7,485.166,619.162z"/>
			<path fill="#070604" d="M307.963,463.248c0,0-4.335-7.897-0.985-13.809c0,0-20.1-5.715-18.523-26.996
				c1.576-21.282,22.661-23.449,22.661-23.449s-30.938-20.1-27.391-43.746s22.267-31.923,31.332-35.47
				c0,0-17.538-15.764-9.459-34.287c8.079-18.523,22.374-18.56,36.652-17.932c0,0-9.262-17.735,3.35-33.105s32.12-9.262,32.12-9.262
				s-6.743-15.384,13.001-16.783c0,0-7.68-26.766,11.828-36.224c19.508-9.459,37.243,6.7,41.184,13.991
				c0,0,2.956-12.611,17.538-17.735s22.07,4.926,22.07,4.926s-2.069-33.893,32.908-36.455s47.392,25.026,47.392,30.346
				c0,0,16.355-25.026,42.564-12.809s17.735,32.317,17.735,32.317s21.479-27.785,47.884-11.035
				c26.405,16.75,5.123,36.258,5.123,36.258s11.626-7.981,20.494-0.493c8.867,7.488,5.912,14.385,4.729,16.947
				c0,0,16.356-16.356,41.184,2.956s13.597,37.834,9.459,41.381c0,0,23.252,0.985,28.967,24.041
				c5.715,23.055-8.276,31.135-8.276,31.135s30.543,14.188,27.193,41.973s-24.632,22.267-24.632,22.267s17.538,23.844,11.823,37.046
				c-5.715,13.203-14.582,12.02-14.582,12.02s13.006,13.991,6.503,22.858l-5.99-0.89c0,0,8.165-6.707-4.811-18.225
				s-3.7-11.941-0.346-11.504c3.353,0.437,16.384-2.202,11.281-19.99c-5.103-17.788-9.477-19.392-9.477-19.392
				s-5.156-6.505,1.671-7.785s12.29,1.963,16.898-5.889c4.609-7.852,8.716-19.084-0.874-33.46
				c-6.784-10.17-14.626-13.447-17.577-13.572c-2.79-0.118-9.186-4.123-1.375-10.02c7.811-5.896,7.677-16.994,5.124-25.347
				s-6.729-19.374-24.362-19.838c0,0-8.701,0.812-4.06-6.497c4.64-7.309,5.801-17.518-3.364-29.119
				c-9.165-11.601-20.998-16.125-30.511-13.225c-9.513,2.9-7.616,4.262-10.148,5.723c-3.349,1.932-6.947,0.682-5.397-4.331
				c2.428-7.856,2.668-11.833-1.856-15.197s-9.165-4.176-14.733-1.044c-5.568,3.132-8.237,0-6.381-3.828
				c1.856-3.828,11.601-12.181,2.9-23.434c-8.701-11.253-22.506-15.429-38.631-4.872c0,0-6.033,3.016-9.281,7.193
				s-6.845,7.425-10.441,3.712c-3.596-3.712,0.116-6.033,0.232-12.297c0.116-6.265-6.961-18.562-18.794-20.534
				s-21.346-1.16-30.627,10.441c0,0-6.961,11.137-10.209-0.58c-3.248-11.717-20.65-27.727-38.399-25.406
				c-15.724,2.055-25.075,4.93-30.392,21.127c-0.685,2.086-0.669,8.688,0.056,10.82c0.725,2.132,0.986,4.655-0.87,6.221
				c-2.224,1.876-3.74-0.41-5.82-3.019c-1.392-1.746-5.444-5.965-11.129-6.377c-5.483-0.398-12.791-0.567-19.482,8.746
				c-4.057,5.646-2.86,8.712-4.511,12.239c-0.751,1.603-1.896,2.713-3.706,2.398c-3.43-0.597-2.6-3.247-4.85-6.827
				c-0.43-0.684-2.837-4.526-6.276-7.027c-2.99-2.175-8.677-4.486-11.966-4.864c-5.451-0.626-10.962-1.216-16.191,2.877
				c-4.455,3.487-6.538,6.85-7.95,9.836c-1.544,3.264-1.591,7.906-1.601,9.841c-0.012,2.23,0.483,5.392,2.582,10.229
				c1.291,2.975,2.004,5.62,0.008,7.334c-2.995,2.572-6.452-5.242-11.325-2.805s-5.265,7.562-2.132,13.826
				c3.132,6.265-3.87,3.686-3.87,3.686s-34.823-7.944-34.252,23.171c0.041,2.259,0.439,5.423,1.885,10.918
				c1.218,4.629,1.055,6.782-3.616,5.854c-5.521-1.097-25.653-1.549-30.99,13.946c-5.337,15.495,3.565,26.109,7.353,29.553
				c3.788,3.443,5.732,7.463,1.428,9.013c-4.304,1.55-30.13,9.297-30.474,29.441s10.502,30.474,21.005,38.738
				c10.502,8.264,4.649,8.264-0.517,10.158c-5.165,1.894-19.283,7.403-17.389,22.554c1.894,15.151,14.979,17.389,14.979,17.389
				s7.575-0.172,3.616,6.715c-3.96,6.887-0.344,12.88-0.344,12.88L307.963,463.248z"/>
		</g>
	</g>
</g>
</svg>
