<?xml version="1.0" encoding="utf-8"?>
<!-- Generator: Adobe Illustrator 27.9.1, SVG Export Plug-In . SVG Version: 6.00 Build 0)  -->
<svg version="1.1" id="Layer_1" xmlns="http://www.w3.org/2000/svg" xmlns:xlink="http://www.w3.org/1999/xlink" x="0px" y="0px"
	 viewBox="0 0 947.9 947.9" style="enable-background:new 0 0 947.9 947.9;" xml:space="preserve">
<style type="text/css">
	.st0{fill:#F2F2F2;enable-background:new    ;}
	.st1{clip-path:url(#SVGID_00000121245714670341907010000014296392016569586590_);}
	.st2{fill:#F4C8A3;}
	.st3{fill:#F3C19E;}
	.st4{fill:#EEBE97;}
	.st5{fill:#272C32;}
	.st6{fill:#010101;}
	.st7{fill:#E5B18A;}
	.st8{fill:#0A0806;}
	.st9{fill:#B8875C;}
	.st10{fill:#B3453E;}
	.st11{fill:#D88670;}
	.st12{fill:#922C25;}
	.st13{fill:#22211E;}
	.st14{fill:#F9FBFB;}
	.st15{fill:#F5C9A3;}
	.st16{fill:#F77360;}
</style>
<ellipse id="Ellipse_891_00000029727208391457277560000009775646904139025281_" class="st0" cx="473.9" cy="473.9" rx="473.9" ry="473.9"/>
<g>
	<g>
		<defs>
			<circle id="SVGID_1_" cx="473.9" cy="473.9" r="473.9"/>
		</defs>
		<clipPath id="SVGID_00000103243265705517025970000009528269718885694354_">
			<use xlink:href="#SVGID_1_"  style="overflow:visible;"/>
		</clipPath>
		<g style="clip-path:url(#SVGID_00000103243265705517025970000009528269718885694354_);">
			<path class="st2" d="M654.5,511.3c0.6-4.6,4.7-27.9,1.2-33c-1.2-8.6,0-22.1,0.9-29.8c1.8-15.5,4.8-26.6,8.9-27.5
				c24.6-8.6,38.4,3,42.1,24.6c4,23-1.5,44.4-14.6,63.7c-0.5,0.8-3,8.2-9.7,12.8c-10,6.8-25.5,11.4-26.7,10.7
				C651,529.9,654.5,511.3,654.5,511.3z"/>
			<path class="st3" d="M642.5,558.4c-2,1.1-3.7,3.2-5.2,4.1c-7.6,4.5-6,10.3-13.7,14.7c-2,1.2-14.2,2-16.3,1.8
				c-9.1-1-18.6-1.7-27.5-4.1c-16.1-4.4-23.9-23.5-19.6-40.6c3.2-12.7,10-24.7,22.7-29.3c10.4-3.7,20.5-8.3,30.9-11.7
				c5.9-1.9,12.5,0.7,18.6-0.5c5.5-1,13.1-4.6,19.3-5.9C651.9,509.8,649.5,535.3,642.5,558.4z"/>
			<polygon class="st4" points="663.4,419.8 656.7,443.5 656.7,474.9 654.5,511.3 653.2,531.4 664,532.1 682.8,522.7 690.9,515 
				678.9,477.8 673.7,441.6 671.7,419.8 			"/>
			<path class="st5" d="M695.6,415.3c-0.9,0.8-1.7,0.6-3-0.6c-1-9.4-1.5-17.7-1.8-26.1c-0.2-5.7-0.8-11.4,0-17
				c1.7-11.9,1.3-23.7,0-35.6c-2.9-28.3-12.6-53.8-27.8-77.6c-13.4-20.9-30.4-38.4-49.8-53.5c-24.8-19.3-52.1-34.4-83.4-39.4
				c-16.9-2.7-34.7-4.2-50.4,6.3c-2.9,1.9-5.4,1.9-8.3,0c-14.9-9.4-31.5-9.1-47.7-6.3c-42.5,7.2-77.2,29.5-107.3,59.1
				c-19.7,19.4-34.6,42.6-44.2,68.8c-9.5,25.9-13.1,52.6-11.5,80c0.8,13.4,2.2,26.7,3.4,40c-1.3,0.2-2.6,0.4-4.6,0.6
				c-0.4-20.1-2.5-39.9-3.8-59.8c-0.9-13.1,1.6-26.7,4.2-39.8c9.7-48.2,36.8-85.5,74.9-115.2c23.4-18.2,49.5-30.9,78.6-37.1
				c19.7-4.2,39-5.1,57.6,4.5c3.2,1.7,6,1.3,9.3-0.4c15.8-8,32.6-8.8,49.7-6c36.7,5.8,68.1,22.5,96.3,46.2
				c19.9,16.7,36.1,36.4,48.9,58.8c11.2,19.7,17.7,41,20.9,63.3c2.3,16.3,2,32.6,0.3,49C694.9,389.8,695.8,402.1,695.6,415.3z"/>
			<path class="st5" d="M692,522.5c1.4-1.6,2.8-3.2,4.8-4.9c1.2,20.7,1.8,41.5,2.7,62.4c0.9,19.3,2,38.6,3.3,58
				c0.9,14,1.9,27.9,3.7,41.8c2.7,20.7,5.7,41.3,9.5,61.8c4.7,25.5,10.3,50.8,15.6,76.9c-2.7-0.8-5.5-2.3-8.6-5
				c-6.6-37.6-13.4-73.9-18.8-110.3c-4.2-28.5-7.4-57.2-9.9-85.9c-1.7-19.5-1.6-39.3-2-58.9C692,546.4,692.1,534.4,692,522.5z"/>
			<path class="st5" d="M256.7,523.3c1.7,0.2,3.2,1.2,5,3.5c-0.4,15.9-1.1,30.5-1.7,45.1c0,0.9-0.2,1.8-0.2,2.7
				c-1.1,12.7-2.1,25.5-3.2,38.2c-0.7,8.9-1.2,17.8-2.3,26.7c-2,16.5-4.2,33.1-6.6,49.5c-3.8,26.2-7.7,52.4-12,78.5
				c-2.8,16.7-6.3,33.3-9.5,50c-2.6,1.6-5.2,3.2-8.4,4.8c6-32.6,12.9-65.2,19.1-97.9c3.5-18.7,5.9-37.6,8.5-56.4
				c1.1-7.9,1.5-16,2.2-24c1.8-21.6,3.6-43.2,5.1-64.8c0.9-13,1.4-26.1,2.2-39.2C255.1,534.7,255.9,529.4,256.7,523.3z"/>
			<path class="st6" d="M691.5,522.7c0.6,11.7,0.5,23.6,0.8,35.5c0.5,19.6,0.3,39.4,2,58.9c2.5,28.7,5.7,57.4,9.9,85.9
				c5.4,36.5,12.2,72.8,18.4,109.9c-6.7-3.2-13.3-7.1-20-11c-46.5-26.9-96.8-45.1-150.4-54.5c-0.6-4.3-1.1-7-1.5-10.6
				c-1.4-12.2-0.7-24.5-1.8-36.7c-0.7-7.4,1.5-11.8,7.9-16.1c22.1-14.6,41-32.8,57.2-53.7c19.7-25.4,33.1-53.8,39.2-85.5
				c0.6-3.2,1.5-6.3,2.4-10.2C669.2,536.4,680.8,531.7,691.5,522.7z"/>
			<path class="st2" d="M661.5,390.3c-2.3,12.8-5.3,25.6-6.6,38.5c-2,19.5-2.3,41.1-4.4,61.6c-6.3,2.1-26.4,3.6-36.3,5.6
				c-12.3,2.5-28.2,8.1-37.2,14.6c-8.2,5.9-13.9,13.1-16.6,23.5c-2.3,8.9-1.1,17.7,2.8,24.8c3.6,6.5,9.5,11.5,17.2,13.6
				c13.3,5.6,31.3,4.4,38.2,1.2c7.8-3.6,14.4-10.7,18.5-13.1c1.5-0.9,3.8-2.2,5.5-2.7c-3.9,16.3-10.5,32.7-19,47.2
				c-24.4,41.2-58.1,72.4-100.7,94c-7.4,3.8-15.4,6.4-23.3,9.2c-16.8,6.1-33.3,4.8-49.7-1.6c-21.6-8.4-41.5-19.6-60-33.6
				c-31.4-23.8-57.4-52.2-74-88.4c-10.2-22.2-15.9-45.6-16.6-70.1c-0.7-23.3-0.5-46.6-2-69.8c-1.3-20.2-4.4-40.3-6.8-61.8
				c4-11.9,12-19.2,21.4-24.6c14.5-8.3,29.5-15.7,44.3-23.4c10.1-5.2,20.5-9.7,30.2-15.6c39.1-23.4,70.8-53.7,87.6-97.2
				c0.3-0.8,1.1-1.3,2.1-2.4c0.9,1.9,1.6,3.4,2.2,4.9c5.7,15.2,14.2,28.9,24.4,41.5c20.2,25,44.9,44.5,73.4,59.2
				c17.8,9.2,35.8,17.9,53.2,27.6c7.7,4.3,14.8,10.1,21.4,16C656.9,374.7,660.9,381.8,661.5,390.3 M440.9,533.1
				c-0.5-0.3-1-0.7-1.3-2.5c-2.2-8.8,2.4-14.1,9.5-18.1c10.4-5.8,21.4-7.4,32.8-4.3c11.3,3.1,21.4,8,23.3,22.5
				c5.9-18.6-11.3-30.2-44.6-30.4c8.2-22.3,7.7-44.5,0.8-66.7c-0.8,0.7-1,1.5-1,2.2c0.2,11,1,22,0.6,33
				c-0.4,11.8-4.1,22.9-11.1,32.6c-3.1,4.3-7,8.1-10.5,12.1c-5.9,6.8-5.9,11.7,0.4,19.6c0.4,0.5,0.9,0.8,1.8,1.7
				c0.4,0.5,0.9,0.8,1.6,1.3l0.4,0c0,0-0.7-0.2-1-1.1C442.1,534.6,441.6,534.3,440.9,533.1 M345,375.6
				c35.7-13.9,71.2-16.1,107.9,3.7c-0.9-4.7-1.1-7.6-2-10.3c-2.6-7.9-7.7-14.1-14.6-18.7c-7.3-4.9-15.5-7.8-24.3-8.4
				c-36.7-2.4-64.6,15.1-89.4,39.6c-0.5,0.5-0.1,2-0.1,3.7C330.1,382,336.9,379.1,345,375.6 M557.2,341.9c-5.7,0.1-11.4-0.5-17,0.3
				c-16.6,2.4-30.1,9.5-36.7,26c-1.1,2.8-1.4,6-2.1,9.2c1.7,0.2,2.3,0.5,2.8,0.3c1.1-0.4,2.2-0.9,3.3-1.4
				c22.7-11.7,46.6-13.8,71.4-9.3c16.3,2.9,31.6,8.6,46.4,15.8c1.9,0.9,4,1.4,7,2.3C623.7,367.4,586.5,346.1,557.2,341.9
				 M414.2,458.8c4.2-0.6,19.6,6.1,23.4,2.6c-3-13.8-8.2-22.3-19.5-29.7c-18.1-12-37.8-15.3-59-10.1c-11.9,2.9-23.7,5.9-36.2,4.5
				c-0.2,0-0.4,0.8-1.1,2.1c4.7,1.6,9.4,0.5,14.5,2.3c1.2,10.3,7.9,16,16.1,21c6.3,3.8,13.1,8,20.1,10.3c11.3,3.7,16.9,3.2,28.6,2.2
				c6.2-0.5,6.1-1.6,13.9-1.7L414.2,458.8z M604.6,423.7c-5-1-9.9-2-14.9-3.1c-20.2-4.2-37,1.4-53.6,12.9
				c-10.7,7.4-15.8,28.5-13.6,28.3c13.4-1.2,26.7,0.9,40.1,1.5c4.1,0.2,8.4,0,12.5-0.8c19.9-4.1,34.8-9.5,42.3-30.9
				c4.1-2.4,8.3-1.9,14.4-5.8C612.8,428.6,614.6,425,604.6,423.7"/>
			<path d="M264.5,413.6c-2-13.4-3.4-26.7-4.2-40.1c-1.6-27.4,2-54.2,11.5-80c9.7-26.2,24.5-49.3,44.2-68.8
				c30-29.6,64.8-52,107.3-59.1c16.3-2.7,32.8-3.1,47.7,6.3c2.9,1.8,5.4,1.9,8.3,0c15.7-10.5,33.5-9,50.4-6.3
				c31.3,5,58.6,20.2,83.4,39.4c19.4,15.1,36.4,32.6,49.8,53.5c15.3,23.8,25,49.3,27.8,77.6c1.2,12,1.7,23.7,0,35.6
				c-0.8,5.5-0.2,11.3,0,17c0.3,8.3,0.9,16.6,1.3,25.8c-8.6-1.1-17.1-1.4-26.4,2c0-4.2,0-7.6,1.1-11.4c3.5-0.1,5.8,2.3,7.8,0.5
				c-2.4-6-5.5-11.3-6.6-16.9c-2.9-14.7-11.3-25.3-22.8-34.1c-17.5-13.3-37.1-22.8-56.6-32.5c-22.3-11-43.8-23.4-62.4-39.9
				c-24.6-21.7-45.8-45.8-48.6-81.6c-0.8,1.5-1.5,2.4-1.8,3.4c-8.8,36.2-30.5,63.4-59.4,85.7c-15.7,12.1-32.7,21.7-50.1,31.1
				c-18.6,10.1-37.2,20.3-54.9,31.9c-15,9.9-26.9,23-26.5,43c-0.2,1.9-0.9,3.8-0.6,5.6c0.7,4.6,1.8,9.1,2.8,14.1
				C279.2,414.7,272.3,414.2,264.5,413.6z"/>
			<path class="st5" d="M285.6,395.4c-1-19.7,10.9-32.8,25.9-42.7c17.6-11.6,36.3-21.8,54.9-31.9c17.3-9.4,34.4-19.1,50.1-31.1
				c29-22.3,50.7-49.4,59.4-85.7c0.3-1,1-1.9,1.8-3.4c2.8,35.8,24,59.9,48.6,81.6c18.6,16.5,40.1,28.8,62.4,39.9
				c19.5,9.7,39.1,19.2,56.6,32.5c11.5,8.7,20,19.3,22.8,34.1c1.1,5.6,4.2,10.9,6.6,16.9c-2.1,1.7-4.4-0.7-7.4-1.1
				c-2.2-4.4-3.7-8.6-5.5-13.5c-0.8-9.1-4.9-16.2-11-21.6c-6.6-5.9-13.7-11.7-21.4-16c-17.5-9.7-35.5-18.5-53.2-27.6
				c-28.5-14.7-53.2-34.1-73.4-59.2c-10.2-12.6-18.7-26.3-24.4-41.5c-0.6-1.6-1.4-3-2.2-4.9c-1,1.1-1.8,1.6-2.1,2.4
				c-16.8,43.6-48.5,73.8-87.6,97.2c-9.7,5.8-20.2,10.3-30.2,15.6c-14.8,7.7-29.8,15.1-44.3,23.4c-9.4,5.4-17.4,12.6-21.6,23.9
				C288.9,387.1,287.5,391.1,285.6,395.4z"/>
			<path class="st7" d="M545,723.3c-6.6,1.6-12.7,3.4-18.5,6.9c-5,3-11,5.4-16.7,5.8c-8.3,0.6-16.5,5.1-24.6,6.3
				c-18.3,2.7-38.3,4.7-55.8-3.6c-6.6-3.1-13.3-6.6-21-8.9c0.8-10.6,3.5-23.2,5.1-34.5c2.8,0.7,4.5,1.5,6.3,2.4
				c16.5,8.5,33.5,15.8,52.1,17.5c6.9,0.7,14.2,0,21.1-1.4c14.6-3,28.5-8.5,41.6-15.7c2-1.1,4.2-1.9,7.7-3.4
				C543.3,704.6,544.2,713.6,545,723.3z"/>
			<path class="st2" d="M260,517.8c-12.7-11.3-14.3-28-17.9-43.9c-2.5-11.2-2.4-22.4,1.3-33.5c5.3-15.8,19.1-24.6,36.2-20.1
				c12.9-0.5,13.5,16.1,12.9,24.1c-0.6,7.6,3.9,21.2,3.7,28.8c-0.1,4.3-4.9,26.8-1.3,30.5c-0.7,4.2,2.9,22.2,1.3,27.5
				C293.7,539.8,260.7,527.8,260,517.8z"/>
			<path class="st4" d="M263.3,517.3c7.6-4.4,8.4-13.6,11.8-21.1c1.6-2.8,2.7-5.3,4-7.6c1.9-3.3,5.5-4.7,10.8-4.3
				c0.8,14.8,1.7,29.6,2.6,45.4C280.5,529.2,271,525.7,263.3,517.3z"/>
			<path class="st4" d="M279.1,482.8c-5.3-3.9-2.8-9.3-2.7-13.5c0.2-7.6,1-15.2,1.6-22.8c0.6-8,1-17.4,1.6-26.2
				c8.4,1.8,8.7,3.5,9.2,11.4c0.5,8.8,1.2,17.7,1.8,27.1c-2.5-0.3-4.2-0.1-6.5-0.4c8.2,7.8,8.1,11,5.9,18.4
				C286.5,478.3,279.1,482.8,279.1,482.8z"/>
			<path class="st3" d="M368.4,505.3c6.5,3.8,12.4,7.2,18.2,10.9c14.5,9.5,18,33.4,10.7,46.8c-5,9.1-14.5,14.6-25,15.4
				c-20.2,4.4-41.7-12-46.4-16.2c-12-10.7-18.1-24.4-22.9-39.5c-3.8-12-4.7-23.8-4.5-36.1c0.1-3.8-3.4-8.8,0-11
				c3.2-2.1,8.4-2.9,14,1.5C323,487.4,361.8,501.8,368.4,505.3z"/>
			<path class="st8" d="M344.3,375.9c-7.4,3.2-14.2,6.2-21.8,9.5c0-1.8-0.4-3.2,0.1-3.7c24.8-24.5,52.7-42,89.4-39.6
				c8.8,0.6,16.9,3.4,24.3,8.4c6.9,4.6,11.9,10.8,14.6,18.7c0.9,2.6,1.1,5.5,2,10.3C416.2,359.5,380.7,361.7,344.3,375.9z"/>
			<path class="st8" d="M558,342c28.5,4.1,65.7,25.4,74.4,43.1c-3-1-5.1-1.4-7-2.3c-14.8-7.2-30.1-12.9-46.4-15.8
				c-24.8-4.5-48.7-2.3-71.4,9.3c-1.1,0.5-2.1,1.1-3.3,1.4c-0.5,0.2-1.1-0.1-2.8-0.3c0.7-3.1,0.9-6.3,2.1-9.2
				c6.6-16.5,20.1-23.7,36.7-26C545.8,341.4,551.6,342,558,342z"/>
			<path class="st9" d="M439.4,532.1c-5.9-7.1-5.9-12,0-18.8c3.5-4,7.4-7.8,10.5-12.1c6.9-9.7,10.7-20.7,11.1-32.6
				c0.4-11-0.4-22-0.6-33c0-0.7,0.2-1.5,1-2.2c6.9,22.2,7.4,44.4-0.8,66.7c33.3,0.2,50.5,11.8,44.6,30.4
				c-1.9-14.5-11.9-19.4-23.3-22.5c-11.4-3.1-22.4-1.5-32.8,4.3c-7.1,4-11.7,9.3-9.6,18.9C439.4,532.1,439.4,532.1,439.4,532.1z"/>
			<path class="st10" d="M511.7,589c-0.8,0.2-2.1-0.1-3.8-0.9C508.7,587.9,510,588.2,511.7,589z"/>
			<path class="st9" d="M442.9,535.8l0.7,0.2c0,0-0.4,0-0.5-0.1S442.9,535.8,442.9,535.8z"/>
			<path class="st9" d="M441.1,534c0.5,0.3,1,0.6,1.6,1.4c0.1,0.4,0.2,0.4,0.2,0.3c-0.6-0.2-1.1-0.5-1.6-1.4
				C441.2,533.9,441.1,534,441.1,534z"/>
			<path class="st9" d="M439.4,532.1c0.5,0.3,1,0.6,1.6,1.4c0.1,0.4,0.2,0.4,0.2,0.4c-0.6-0.1-1.1-0.4-1.6-1.3
				C439.4,532.1,439.4,532.1,439.4,532.1z"/>
			<g>
				<path class="st11" d="M415,591.5c0,0,18.1,5,34.2-6.7c15.7-11.3,19.5-8.9,25.3-9.2c5.7-0.3,15,1.7,23.6,7
					c8.6,5.3,18.6,10.5,31.2,9.8c0,0-6.5,6.7-12.2,15.1c-4,5.9-6,12.3-13.4,17.8c-8.5,6.3-23.6,7.1-28.1,7
					c-6.2-0.2-24.1,1.4-35.7-13C435,613.4,420.5,595.3,415,591.5z"/>
				<path class="st12" d="M398.9,578.3c0,0,31.3,32.9,74.7,30.1c43.5-2.8,65.9-19.9,78-30.1c0,0-32.2,24.2-78.1,24.6
					S398.9,578.3,398.9,578.3z"/>
				<path class="st12" d="M428.5,592.5c0,0,8.5-0.4,23.6-11.8s30.3-8,36.6-4.9c4.3,2.2,20,12.8,28.8,15.4c0,0-7.3-1.4-16.1-5.6
					c-8.8-4.2-19.9-7.4-26.8-7.4C454.1,578.3,451,589.7,428.5,592.5z"/>
				<path class="st12" d="M411.6,588.9c0,0,8.2,4.8,19.8,21.5c14.4,20.6,32.6,23.7,43.9,23.7c11.4,0.1,25.4-1.7,36.4-16.4
					c11-14.7,13-22.6,19.8-27c0,0-10.5,8.3-18.9,21.5s-23.9,15.9-37.4,15.6c-15.8-0.4-27.8-3.7-39.5-17.1
					C423.7,596.8,411.6,588.9,411.6,588.9z"/>
			</g>
			<g>
				<path d="M538.4,438c0,0-4.3,9.8-1.1,17.3c3.2,7.5,5.2,6.6,8,8.1c2.9,1.5,28.4,0,28.4,0l23.3-8.3c0,0,2.3-16.4-4.8-25.4h-18.9
					h-16.5L538.4,438z"/>
				<path class="st13" d="M541.4,439.7c0,0-2.9,13.8,2.9,23.2l25.7,2.2l21-5.8c0,0,5.8-13.6-1.7-28.7l-16.5-3.4l-20.5,6.8
					L541.4,439.7z"/>
				<path class="st14" d="M547.3,442.7c0.2-2,0.8-5.7,5.5-5.8c3.3-0.1,4.9,1.9,5.3,4.7c0.6,3.8-1,8-4.5,8.6
					C550.1,450.7,546.9,447.2,547.3,442.7z"/>
				<path d="M514.6,463.3c-0.1,0.1-0.2,0-0.1-0.1c1.1-3.4,10.3-35.2,43.6-42.2c35.3-7.5,43.5,3.9,60.7,4.6c13.8,0.5,21.8-3.5,23-3.9
					c0,0,0.1,0,0,0.1c-1.1,1.2-11,11.2-37.8,10.2c-19.8-0.7-37.9-3.7-59.6,7.3C535,444.2,525.9,452.5,514.6,463.3z"/>
				<path d="M619.3,430.5c0,0-9.5,19.1-35.2,27.8c-13.3,4.5-28.3,3.8-41.5,3.3c-11.3-0.4-19.6-2.4-26.4-0.1
					c-0.6,0.2-1.1,1.4-1.6,1.7c0,0,0,0.1,0,0.1c1.9-0.2,26.8,0.2,40.2,2.3c12.9,2,25.2-0.4,32.5-3.4S612,454.4,619.3,430.5z"/>
				<path class="st14" d="M537.8,442.3c0,0-4,11.6,4,19.4c0,0-18.1-1.2-25,0.3c-0.3,0.1-0.5-0.3-0.3-0.5
					C518,459.2,523.8,452.1,537.8,442.3z"/>
				<path class="st14" d="M593.5,431.7c1.1,2.5,4.5,11.4,3.6,20c0,0.3,0.3,0.6,0.6,0.4c3-1.5,14.2-8,20.1-19.9
					c0.2-0.3-0.1-0.7-0.4-0.6c-2.9,0.3-13,1.2-23.5-0.4C593.6,431.1,593.4,431.4,593.5,431.7z"/>
			</g>
			<g>
				<path d="M363.7,428.9c0,0-10,7.3-5.8,24.9l17,7.8l21.5,1.9l16.2-0.7c0,0,9.2-7.5,5.3-19.8L405.4,432l-14.3-3.1l-13.8-1.1
					L363.7,428.9z"/>
				<path class="st13" d="M370.3,430.4c0,0-6.1,1.6-8.5,11.6c-2.5,10.1,2.7,16,2.7,16l23.3,5.8l22.2-1.9c0,0,8-11.2,2.9-21.5
					l-25.8-9.6L370.3,430.4z"/>
				<path class="st14" d="M370.4,437.2c0,0,2.8-4.7,6.5-4.3c3.7,0.4,4.7,2.8,4,6.6s-3.7,8-7.1,7.7
					C370.3,446.9,368.2,441.7,370.4,437.2z"/>
				<path class="st14" d="M337.3,431.6c0,0,19.4,0.2,24.8-0.6c0,0-7.3,9.1-4.5,20.3C357.6,451.3,340.3,440.7,337.3,431.6z"/>
				<path d="M439.2,463.2c0.1,0.1,0.5,0,0.4-0.1c-0.4-3.1-2.4-23.4-26.4-34.7c-26-12.2-40.6-11.1-55.8-7.4c-15.2,3.7-30,6.9-44,1.2
					c0,0,7.5,13.2,36.7,9.8c28-3.2,38.9,0.1,44.7,1.6C411.2,437.9,425.9,447.5,439.2,463.2z"/>
				<path d="M335.3,428.9c0,0-1.4,10.8,11.2,21.2s23,14.4,35.7,15.4c17.5,1.4,46.9-1.6,57.4-2.1c0.1,0,0.1-0.3,0-0.3
					c-0.3,0-0.7-1.7-1.2-1.9c-3.4-0.8-8.9,0.6-15.1,0.3c-7.4-0.3-15.6-0.5-22.1-0.1c-11.2,0.7-31.3-1.4-46.1-12.1
					C341.6,439.6,340.9,436.5,335.3,428.9z"/>
				<path class="st14" d="M417.5,443.8c0.6,1.6,3.1,10.2-3.9,17.2c-0.1,0.1,0,0.2,0.1,0.2c1.5,0.1,8.4,0.5,11.8,0.5
					c3.2,0,9.9-0.6,11.6-0.7c0.2,0,0.3-0.2,0.2-0.4c-1.5-1.9-9-11.4-19.6-16.9C417.5,443.7,417.4,443.7,417.5,443.8z"/>
			</g>
			<path class="st6" d="M225.5,819.3c2.6-16.5,7.3-35,10.1-51.8c4.3-26.1,8.2-52.3,12-78.5c2.4-16.5,4.6-33,6.6-49.5
				c1.1-8.9,1.5-17.8,2.3-26.7c1.1-12.7,2.1-25.5,3.2-38.2c0.1-0.9,0.2-1.8,0.2-2.7c0.7-14.6,1.3-29.2,2-44.6
				c9.7,4.7,19.7,9,31.9,7.5c12,70.9,55.4,118.4,113.5,156c-2.2,18.4-4.4,38.3-7,57.6c-58.8,11-113,31-163.2,62.6
				C233.9,813.1,229.4,817.1,225.5,819.3z"/>
			<path class="st15" d="M545,723.3c1.8,13.5,2.3,27.9,6.4,41.4c0.2,0.5,0.9,0.4,0.9-0.1c0-3.8,0-8.2,0-12.1c4.3,0.3,8,1.3,13.4,2.5
				c6.2,1.4,7.8,4.6,8.8,9.8c3.8,18.6,0.5,36.2-7.6,53.1c-24,49.8-81.3,72-132.6,51.3c-34.9-14.1-57.4-48.3-55.9-86
				c0.2-6.2,2.1-12.3,3-18.5c0.9-6.3,4.6-9.3,10.8-9.8c2.1-0.2,4.9-0.6,7.7-0.9c0.2,4.3-1.2,8.6-1.8,13c-0.1,0.9,0.3,1.2,0.6,1.3
				c0.4,0.1,0.9,0.1,1.4-0.6c0.5-0.9,1.5-4.5,2.1-7.1c0.8-3.8,1.9-7.9,2.7-11.6c1.6-6.6,2.4-13.4,4-22.3c8,1.7,35.7,17.3,76.5,13.3
				c8.1-1.2,29.8-4.5,41.1-9.8C532.4,726.7,538.5,724.1,545,723.3z"/>
			<path class="st16" d="M225.2,1180.5c-30.2-8-60.2-20.4-86.8-36.9c-17.9-11.1-33.5-24.9-45.5-42.5c-4.5-6.6-5.3-11.8-0.7-19.4
				c30-49.8,54.4-102.2,74.2-156.9c5.5-15.2,10.7-30.4,15.9-45.7c8-23.5,21.8-42.3,43.9-54.5c20.4-11.2,40.4-23.1,61.2-33.7
				c23.5-11.9,48.4-20.3,73.8-27.4c3.3-0.9,6.8-1.4,11.4-2.4c-0.2,3.4,0,5.7-0.5,7.8c-13.2,52.8,24.6,107.3,82.5,116.3
				c37.1,5.8,69.5-4.1,96.6-29.4c17.1-16,27.9-36.4,31.5-60c0.9-5.6,1.6-11.3,1.4-16.9c-0.1-5.3-1.5-10.6-2.6-17.2
				c3.1,0.4,5.5,0.4,7.9,1c22.4,5.5,43.9,13.5,65.2,22.3c28.5,11.9,54.9,27.7,80.8,44.4c18,11.6,28.9,28.8,36.1,48.8
				c11.5,32,23,64.1,35.7,95.7c13.4,33.3,29.9,65.1,47.7,96.2c2.8,4.9,5.5,9.9,8.6,14.7c3,4.6,2.6,8.4-0.3,13.1
				c-11.6,18.2-27,32.6-45.1,44.1c-22.6,14.3-47.1,26.1-73.7,32.5c-1-6.6-5.7-11.5-7.2-16.5c-2.7-8.7-5-17.3-8.9-25.6
				c-3.7-8-5.1-17-7.8-25.5c-0.6-1.8-3.7-4.8-5-6.4c1.5-10.9,5.1-20.1,5.5-31c0.7-19.3,0.7-38.7,0.1-58
				c-0.6-19.5-5.1-38.4-11.2-56.9c-1.6-4.9-3.1-10.2-9.9-13.7c0.2,3.4,0,5.6,0.4,7.7c2.9,14.3,6.4,28.5,8.6,43
				c2.9,19.2,3.4,38.5,1.6,58c-3.4,37.1-14.3,72.5-23.7,108.3c-6.9,26.6-12.2,53.5-14.7,80.9c-0.7,7.7-1.4,15.4-1.8,23.2
				c-1.6,32.7,6,64,15.5,94.9c11,36,25.7,70.7,41.4,104.9c2.1,4.6,4.2,9.2,6.2,13.9c2.6,6.1,2.6,7.6-3.5,10.9
				c-11.3,6.1-22.6,12.3-34.4,17.2c-44.5,18.8-90.8,31.3-138.3,39.4c-36.7,6.3-73.7,7.3-110.7,5.4c-40.3-2.1-79.9-9.7-118.7-20.9
				c-31.9-9.2-63.4-19.4-92.9-35c-3.7-2-7.3-4-10.9-6.2c-6.6-4.1-6.7-4.5-3.6-11.3c4.3-9.5,8.9-18.9,13.2-28.5
				c17-38.6,33.2-77.5,42.4-118.7c3.9-17.4,6.5-35.2,8.2-53c1-10.3-0.3-20.9-1.5-31.2c-3.4-30.9-8.9-61.3-16.9-91.4
				c-6.9-26.2-13.6-52.6-19.1-79.1c-5.5-26.1-6.4-52.6-1.8-79.1c2.5-14.4,5.4-28.7,8-43.1c0.6-3.3-0.9-2.4-0.4-7.8
				c-5.5,4.1-5.8,3.7-7.1,7.8c-6.9,21-12.1,42.4-12.8,64.7c-0.4,12.2-0.3,24.5-1.4,37.8c-2,6.4-5.1,11.5-5.4,16.9
				c-1,20.5-1.6,41.1-1.9,61.6c-0.1,9.5,1.1,19,1.6,28.5C226.2,1166.7,229.8,1174.6,225.2,1180.5z"/>
			<path class="st10" d="M740.7,1490.1c-3.7,2.1-7,3.7-11.3,6c-9.3,4.8-17.3,9.4-25.8,13.2c-64.8,29.4-133.5,41.7-204,44.7
				c-40.3,1.7-80.5-0.9-120.3-7.3c-40.2-6.4-79.5-16.2-116.9-32.5c-14.7-6.4-28.9-14.1-43.3-21.2c0,0-0.1,0-0.1-0.1
				c-2.5-1.6-5-3.3-8-4.9c-0.1,0-0.2-0.1-0.2-0.2c-3.6-3.2-2.4-6.4-0.7-9.8c15.5-31.6,29.2-64,41-97.2c9.5-26.7,16.9-54,21.2-82.1
				c3.3-21.5,1.5-42.8-2-64c-2-11.8-4.2-23.4-6.5-36.6c-1.5-7.5-1.5-7.5-9.8-7.7c0,0-0.1,0-0.1,0c-11.1-1.3-21.4-2.2-31.6-3.9
				c-35.8-5.9-68.8-18.4-97.2-41.6c-3.2-2.6-6.6-5-10.3-7.9c-2.9-2.3-5.5-4.3-8.2-6.2c-0.1-0.1-0.2-0.1-0.2-0.2
				c-5.1-6.8-10.3-13.6-15.3-20.5c-2.6-3.6-4.8-7.6-7.6-11.1c-4-5.1-3.8-9.7-0.7-15.4c30.3-56.2,56.2-114.4,78.6-174.1
				c5.4-14.5,11.1-28.9,17.3-43.1c8-18.1,20.8-32.5,38.6-43.6c0,0,0.1,0,0.1,0c3.7-1.9,6.3-3.5,9.5-5.3c3.9-2.2,7.2-4.2,10.5-6.3
				C287,779.7,341,758.5,399,748.7c0.7-0.1,1.4,0.5,1.3,1.2c-0.1,1.1-0.2,1.9-0.3,3.2c0,0.5-0.5,1-1,1c-2.5,0.3-4.9,0.6-6.8,0.8
				c-6.2,0.5-9.8,3.5-10.8,9.8c-0.9,6.2-2.8,12.3-3,18.5c-1.5,37.6,21,71.9,55.9,86c51.3,20.7,108.6-1.5,132.6-51.3
				c8.1-16.9,11.4-34.5,7.6-53.1c-1-4.9-2.7-8.3-8.2-8.7c-1-0.1-2-0.2-3-0.4c-3.5-0.7-6.9-1.6-10.4-2.9c-0.4-0.2-0.7-0.6-0.7-1
				c0-1.2,0-2.1-0.1-3.3c-0.1-0.7,0.6-1.3,1.3-1.2c53,9.5,103,28.3,149,54.9c6.7,3.9,13.4,7.8,20.4,12.2c3.1,2,5.8,3.5,8.5,4.9
				c23.1,12.9,38.7,32,48.1,56.6c19.6,51.5,39.9,102.7,63.7,152.4c8.6,18,17.6,35.8,27.2,53.3c3.9,7.2,4.5,12.8-0.8,19.4
				c-7.4,9.2-14.2,18.9-22,29.2c0,0.1-0.1,0.1-0.2,0.2c-3.2,2.8-5.8,5-8.9,7.4c-12.9,10.1-25.3,19.8-39.4,27.1
				c-31.2,16.3-64.9,22.8-100.2,25.6c-0.1,0-0.1,0-0.2,0c-6.3-0.6-7.9,3-8.2,7.7c0,0,0,0.1,0,0.1c-2,12.3-3.6,24.8-6,37
				c-7.1,36-2.8,71.2,6.8,106.1c11.9,43.3,28.8,84.7,47.8,125.3c1.8,3.8,3.5,7.6,5.2,11.4C747.2,1484.3,747.1,1484.6,740.7,1490.1
				 M716.1,1103.3c-8.1,24-20.2,70.3-21,80.9c-0.1,0.7,0.6,1.3,1.3,1.2c6.3-0.8,12.6-1.3,18.7-2.8c9.8-2.3,19.3-5.5,30.4-8.5
				c25.8-7.1,50.1-17.9,72.6-32.2c18.1-11.5,33.4-25.9,45.1-44.1c3-4.7,3.3-8.5,0.3-13.1c-3.1-4.7-5.8-9.7-8.6-14.7
				c-17.8-31.1-34.4-63-47.7-96.2c-12.7-31.6-24.2-63.6-35.7-95.7c-7.2-20-18.1-37.2-36.1-48.8c-25.8-16.7-52.2-32.5-80.8-44.4
				c-21.3-8.8-42.8-16.8-65.2-22.3c-2-0.5-4-0.6-6.4-0.8c-0.7-0.1-1.4,0.6-1.2,1.3c1,6,2.2,10.9,2.3,15.8c0.2,5.6-0.6,11.3-1.4,16.9
				c-3.6,23.6-14.4,44-31.5,60c-27.1,25.3-59.5,35.2-96.6,29.4c-57.9-9-95.7-63.5-82.5-116.3c0.5-1.8,0.4-3.7,0.5-6.4
				c0-0.7-0.6-1.3-1.4-1.2c-3.9,0.8-7,1.3-10,2.1c-25.4,7.1-50.3,15.5-73.8,27.4c-20.7,10.5-40.8,22.4-61.2,33.7
				c-22.1,12.2-35.9,31-43.9,54.5c-5.2,15.3-10.4,30.5-15.9,45.7c-19.8,54.6-44.2,107.1-74.2,156.9c-4.6,7.6-3.8,12.8,0.7,19.4
				c12,17.6,27.6,31.4,45.5,42.5c26.6,16.5,55.6,27.6,87.1,36c10.7,3.2,21.6,4.8,32.8,6.1c1.6,0.2,2.9-1.3,2.4-2.9c0,0,0,0,0,0
				c-3.5-12.7-7.4-25.2-10.6-37.9c-5.4-21.1-10.6-42.2-15.3-63.5c-2-8.9-2.3-18.2-3.4-29c0-0.1,0-0.1,0-0.2
				c0.5-12.2,1.2-24.4,1.6-36.5c0.7-22.3,5.9-43.7,12.8-64.7c1.2-3.5,2.7-6.9,6.6-10.4c0.8-0.7,2-0.1,1.9,1c-0.4,3.9-0.5,6.7-1,9.4
				c-2.6,14.4-5.5,28.7-8,43.1c-4.7,26.5-3.7,53,1.8,79.1c5.6,26.6,12.2,52.9,19.1,79.1c7.9,30.1,13.4,60.5,16.9,91.4
				c1.2,10.3,2.5,20.9,1.5,31.2c-1.7,17.8-4.3,35.6-8.2,53c-9.2,41.3-25.4,80.2-42.4,118.7c-4.2,9.6-8.8,18.9-13.2,28.5
				c-3.1,6.8-3,7.2,3.6,11.3c3.6,2.2,7.2,4.3,10.9,6.2c29.5,15.6,61,25.8,92.9,35c38.8,11.2,78.4,18.8,118.7,20.9
				c37,1.9,74,0.8,110.7-5.4c47.5-8.1,93.9-20.6,138.3-39.4c11.8-5,23.1-11.1,34.4-17.2c6-3.3,6.1-4.7,3.5-10.9
				c-2-4.7-4.1-9.3-6.2-13.9c-15.8-34.2-30.4-68.8-41.4-104.9c-9.4-30.9-17.1-62.2-15.5-94.9c0.4-7.7,1.1-15.5,1.8-23.2
				c2.5-27.4,7.8-54.3,14.7-80.9c9.3-35.8,20.2-71.1,23.7-108.3c1.8-19.5,1.3-38.8-1.6-58c-2.2-14.4-5.8-28.6-8.6-43
				c-0.3-1.6-0.3-3.3-0.3-5.6c0-0.9,1-1.5,1.8-1c5.2,3.5,6.6,8.2,8,12.6c6.1,18.5,10.6,37.4,11.2,56.9c0.6,19.3,0.6,38.7-0.1,58
				c-0.4,10.9-2.8,21.8-5,33.7C716.1,1103.2,716.1,1103.3,716.1,1103.3z"/>
			<path class="st9" d="M399.9,754c0.1-1.6,0.2-3.9,0.6-6.8c2.5-19.9,4.6-37.8,6.8-56.1c0-0.1,0-0.2-0.1-0.3
				c-57.9-37.6-101.3-85-113.3-155.7c0-0.2-0.2-0.3-0.3-0.2c-12.1,1.4-22-2.9-31.8-8.9c0,0,0,0,0,0c-1.8-1.4-3.3-2.4-4.8-3.4
				c0,0,0,0-0.1-0.1c-20.9-22.2-29.3-48.3-23.7-78.4c2.6-14,10.3-24.5,25.5-29.6c0,0,0,0,0,0c2.4-0.5,3.7-0.7,5.8-0.9c0,0,0,0,0,0
				c7.6,0.6,14.4,1.1,22.2,1.7c0.2,0,0.4-0.2,0.3-0.4c-1-4.8-2-9.2-2.7-13.7c-0.3-1.8,0.4-3.7,1.2-5.9c0,0,0,0,0,0
				c1.7-3.9,3-7.5,4.4-10.6c0.1-0.3,0.5-0.2,0.6,0.1c2.5,20.5,5.5,40.2,6.8,60.1c1.5,23.2,1.3,46.5,2,69.8
				c0.7,24.5,6.4,47.9,16.6,70.1c16.6,36.1,42.5,64.6,74,88.4c18.4,14,38.4,25.2,60,33.6c16.5,6.4,33,7.7,49.7,1.6
				c7.8-2.9,15.9-5.5,23.3-9.2c42.6-21.6,76.3-52.8,100.7-94c8.6-14.5,14.7-29.8,18.9-46.8c7-23,7.3-46.2,8-70.2
				c1.5-20.4,2.3-40,4.3-59.4c1.3-12.5,4.2-24.9,6.7-36.8c0.1-0.3,0.5-0.3,0.6,0c1.6,4.4,3,8.4,4,12.9c0,0,0,0.1,0,0.1
				c-0.5,3.8-0.5,7.1-0.5,11.1c0,0.2,0.2,0.4,0.4,0.3c9.1-3.3,17.5-2.9,26.5-0.8c0,0,0,0,0,0c1.3,0.4,5.3,1.7,6.4,2.4
				c12,6.7,16.7,18.7,18.2,31.8c2.8,24.7-3.5,47.1-20,67.4c0,0,0,0,0,0c-2.3,2.2-3.7,3.8-5.7,5.7c-10.6,8.9-22.1,13.7-35.7,12.1
				c-0.2,0-0.3,0.1-0.3,0.2c-0.9,3.7-1.7,6.8-2.3,9.9c-6.1,31.7-19.5,60-39.2,85.5c-16.2,20.9-35.1,39.2-57.2,53.7
				c-6.4,4.2-8.5,8.7-7.9,16.1c1.1,12.2,1.4,23.5,2.1,35.7c0.2,3.5,1.7,15,1.2,11.5c-0.1-0.6,0.3-0.9,0.3-0.9c0,1.4-0.2,3.8-0.1,6.6
				c0,4.9,0,8.8,0,12.5c0,0.3-0.5,0.4-0.6,0.1c-4.4-13.7-4.9-27.8-6.7-42.5c-0.8-9.6-1.7-18.4-2.7-28.1c0-0.2-0.2-0.3-0.4-0.3
				c-3.3,1.4-5.4,2.1-7.3,3.2c-13.1,7.3-26.9,12.8-41.6,15.7c-6.9,1.4-14.1,2-21.1,1.4c-18.6-1.8-35.6-9-52.1-17.5
				c-1.6-0.8-3.4-1.3-5.9-2.3c-0.2-0.1-0.4,0-0.4,0.2c-1.6,11.2-3,21.6-4.8,32.6c-1.4,7.3-2.2,14.1-3.7,20.7
				c-1.3,5.7-2.4,14.9-4.9,20.2c-1.5-0.5-2.9,1.9-2.6-0.8L399.9,754 M666.3,459.7c-3.3,5.4-7.4,11-6.9,17.1c0,0.1,0.1,0.1,0.2,0.2
				c3.7,1.8,9.1,2.2,12,5.9c2.9,3.7,3.8,7.7,2.4,11.7c-0.1,0.3-0.5,0.3-0.6,0c-0.6-1.3-1.3-7.3-6.2-9.2c-1.9-0.7-4.3-1-8.3-0.3
				c-0.1,0-0.2,0.1-0.3,0.3c-0.7,14.4-1.3,28.9-2,44.2c0,0.2,0.1,0.3,0.3,0.3c12.1,0,21.6-3.4,29-12.7c0.7-0.9,5.7-6,7-7.9
				c13.1-19.3,18.6-40.7,14.6-63.7c-3.8-21.5-21.3-31.1-42.1-22.9c-0.1,0-0.1,0.1-0.2,0.2c-5.4,11.3-4.7,24.4-5.5,36.4
				c0,0.2,0.1,0.3,0.3,0.3c1.1,0,3.3-1,3.6-1.2c1.1-0.6,3-1.9,3.3-1.8C667.8,456.8,667,458.6,666.3,459.7 M276.4,493.8
				c0.5-3.1,0.2-5.5,1.3-8.8c0.8-2.4,2-3.3,2.8-4c2.6-2.2,6.2-2.8,9.3-4.2c0.1,0,0.1-0.1,0.2-0.2c1.7-6-0.1-9.2-3.8-13.1
				c-1.6-1.7-3.4-2.9-4.2-3.6c-0.4-0.4-1.2-0.8-0.7-1.9c0.3-0.7,2-0.4,2.9-0.1c0.9,0.3,3.9,0.6,5.9,0.8c0.2,0,0.4-0.1,0.4-0.3
				c-0.6-9.2-1.3-17.9-1.8-26.7c-0.5-7.9-0.5-8.1-10.3-11.1c0,0,0,0,0,0c-16.4-3.6-29.6,4-35,19.8c-3.8,11.1-3.9,22.3-1.3,33.5
				c3.6,15.9,8.6,31,22,43.4c7.3,7.8,16.3,11.8,28.1,12.5c0.2,0,0.3-0.1,0.3-0.3c-0.9-15.6-1.7-30.2-2.6-44.8c0-0.2-0.1-0.3-0.3-0.3
				c-5.1-0.4-7.8,1.5-9.7,4.8c-1.1,1.9-2,3.9-3,5C276.7,494.3,276.3,494.1,276.4,493.8z"/>
		</g>
	</g>
</g>
</svg>
