<?xml version="1.0" encoding="utf-8"?>
<!-- Generator: Adobe Illustrator 27.7.0, SVG Export Plug-In . SVG Version: 6.00 Build 0)  -->
<svg version="1.1" id="Layer_1" xmlns="http://www.w3.org/2000/svg" xmlns:xlink="http://www.w3.org/1999/xlink" x="0px" y="0px"
	 viewBox="0 0 140 140" enable-background="new 0 0 140 140" xml:space="preserve">
<g>
	
		<ellipse id="Ellipse_891_00000052815127961753953780000014602489987934306224_" fill="#F1F1F1" cx="70" cy="70" rx="68.57" ry="68.57"/>
	<g>
		<defs>
			<ellipse id="Ellipse_891_00000062878630351902533640000015536499695427633307_" cx="70" cy="70" rx="68.57" ry="68.57"/>
		</defs>
		<clipPath id="Ellipse_891_00000046308444084911485430000001451804047123692217_">
			<use xlink:href="#Ellipse_891_00000062878630351902533640000015536499695427633307_"  overflow="visible"/>
		</clipPath>
		<g clip-path="url(#Ellipse_891_00000046308444084911485430000001451804047123692217_)">
			<path fill="#6E4438" d="M80.432,100.942c-1.37,0.68-3.246,1.648-4.607,2.128c-1.483,0.522-2.946,1.288-4.497,1.542
				c-0.758,0.124-2.549-0.15-3.325-0.357c-3.439-0.918-6.005-2.972-8.849-5.061c-1.89-1.388-3.92-3.2-5.565-4.866
				c-3.187-3.228-5.776-6.896-7.157-11.283c-0.863-2.741-1.419-5.534-1.416-8.441c0.003-3.208-0.141-6.416-0.246-9.624
				c-0.024-0.734,0-1.553-0.238-2.354c-0.618-2.08,0.426-3.035,0.004-3.659c-0.065-0.095-0.049-0.224,0.038-0.3
				c1.841-1.632-0.533-7.478-0.249-8.567c0.276-1.058,5.618-11.733,6.808-12.698c1.246-1.011,4.323-11.015,5.458-11.649
				c0.741-0.414,17.097,4.776,25.699,5.359c5.038,0.342,9.83,7.654,10.284,7.919c0.216,0.126,2.284,3.995,3.493,6.79
				c1.12,2.588,1.085,9.639,2.065,12.115c0.929,2.348-1.2,5.684-1.231,5.911c-0.426,3.053-0.495,6.12-0.517,9.199
				c-0.022,3.08-0.438,6.086-1.269,9.055c-1.024,3.661-2.981,7.317-5.347,10.292c-2.737,3.441-4.692,5.377-8.541,7.702
				L80.432,100.942z M62.001,86.353C62.001,86.353,62.034,86.333,62.001,86.353 M66.391,78.658
				C66.391,78.658,66.381,78.639,66.391,78.658 M58.923,56.515C58.923,56.515,58.942,56.505,58.923,56.515 M82.848,56.515"/>
			<polygon fill="#FAFCFC" points="79.946,63.849 81.039,69.589 77.778,68.513 75.45,66.937 75.912,66.068 			"/>
			<path fill="#FAFCFC" d="M90.628,64.456l-4.172-0.73l0.266,1.225l0.277,1.803l-1.158,1.928l1.475-0.252l1.919-1.576
				c0,0,0.952-1.218,1.183-1.725C90.477,64.999,90.628,64.456,90.628,64.456z"/>
			<polygon fill="#FAFCFC" points="61.621,63.849 60.528,69.589 63.789,68.513 66.117,66.937 65.655,66.068 			"/>
			<polygon fill="#FAFCFC" points="50.966,64.421 55.138,63.691 54.872,64.916 54.595,66.719 55.753,68.647 54.278,68.395 
				52.359,66.819 51.114,64.972 			"/>
			<path fill="#F87360" d="M35.724,150.268c-0.004,0.257-0.048,0.571-0.062,1.281c-0.001,0.049-0.018,0.098-0.05,0.135
				c-0.16,0.184-0.353,0.356-0.359,0.439c-0.217,2.931-0.481,5.861-0.606,8.797c-0.097,2.266-0.019,4.539-0.015,6.809
				c0.001,0.342-0.108,0.789,0.064,1.006c0.558,0.706,0.311,1.321-0.001,1.954c-0.045,0.092-0.15,0.139-0.248,0.112
				c-4.252-1.179-8.363-2.71-12.126-5.056c-2.603-1.623-4.873-3.616-6.593-6.195c-0.603-0.905-0.674-1.628-0.053-2.666
				c3.944-6.59,7.304-13.472,9.953-20.689c1.003-2.733,1.967-5.48,2.921-8.231c1.193-3.438,3.149-6.247,6.419-8.024
				c3.008-1.636,5.953-3.395,9.015-4.922c3.453-1.722,7.104-2.974,10.848-3.931c0.246-0.063,0.499-0.1,0.751-0.128
				c0.055-0.006,0.115,0.032,0.22,0.085c0.067,0.034,0.111,0.101,0.116,0.176c0.012,0.175,0.037,0.375-0.013,0.555
				c-2.05,7.372,3.125,14.983,10.512,16.659c5.356,1.215,10.194,0.206,14.417-3.375c2.923-2.479,4.607-5.643,5.285-9.418
				c0.265-1.478,0.062-2.886-0.181-4.408c-0.021-0.13,0.081-0.249,0.213-0.246c0.26,0.005,0.478,0,0.681,0.052
				c3.618,0.92,7.107,2.201,10.528,3.696c3.627,1.584,6.982,3.643,10.323,5.726c2.68,1.671,4.366,4.145,5.436,7.098
				c1.677,4.628,3.323,9.27,5.157,13.836c1.916,4.771,4.283,9.338,6.845,13.799c0.426,0.742,0.848,1.489,1.308,2.21
				c0.344,0.539,0.302,1.021-0.013,1.553c-0.947,1.598-2.101,3.034-3.505,4.239c-3.894,3.343-8.523,5.716-13.508,7.061
				c-0.101,0.027-0.206-0.024-0.25-0.119c-0.314-0.672-0.483-1.459-0.725-2.026c-0.165-0.387-1.442-3.991-1.515-4.232
				c-0.309-1.02-0.576-2.054-0.925-3.06c-0.12-0.346-0.398-0.637-0.62-0.947c-0.032-0.044-0.044-0.099-0.037-0.153
				c0.21-1.538,0.535-3.072,0.591-4.616c0.101-2.771,0.175-5.558-0.011-8.32c-0.149-2.203-0.671-4.384-1.092-6.562
				c-0.153-0.791-0.451-1.564-0.767-2.311c-0.167-0.396-0.466-0.736-0.725-1.093c-0.053-0.073-0.145-0.106-0.231-0.081l0,0
				c-0.088,0.025-0.15,0.104-0.153,0.195c-0.01,0.25-0.035,0.502,0.011,0.742c0.401,2.098,0.866,4.184,1.228,6.288
				c0.473,2.75,0.498,5.505,0.251,8.301c-0.439,4.984-1.873,9.73-3.14,14.521c-0.908,3.434-1.679,6.893-2.098,10.424
				c-0.171,1.441-0.389,2.88-0.491,4.326c-0.314,4.412,0.457,8.693,1.637,12.921c1.164,4.174,2.709,8.211,4.416,12.187
				c0.963,2.242,1.978,4.462,2.963,6.694c0.405,0.918,0.392,1.135-0.571,1.631c-1.976,1.018-3.961,2.035-6.011,2.889
				c-5.513,2.295-11.271,3.794-17.123,4.904c-2.302,0.437-4.65,0.719-6.99,0.847c-3.458,0.189-6.934,0.338-10.39,0.201
				c-2.891-0.115-5.781-0.565-8.642-1.045c-5.202-0.873-10.264-2.317-15.224-4.106c-2.904-1.047-5.734-2.268-8.373-3.893
				c-0.147-0.091-0.282-0.202-0.473-0.349c-0.074-0.057-0.103-0.157-0.069-0.245c0.208-0.546,0.394-1.096,0.64-1.617
				c2.399-5.076,4.574-10.243,6.294-15.592c1.167-3.631,1.997-7.324,2.392-11.137c0.243-2.339-0.068-4.595-0.285-6.888
				c-0.375-3.972-1.211-7.851-2.17-11.712c-0.969-3.9-2.044-7.78-2.83-11.717c-0.566-2.835-0.796-5.72-0.531-8.662
				c0.266-2.955,0.851-5.831,1.43-8.72c0.078-0.388,0.119-0.783,0.179-1.273c0.022-0.179-0.177-0.304-0.328-0.205
				c-0.509,0.337-0.712,0.789-0.829,1.22c-0.586,2.141-1.213,4.282-1.603,6.462c-0.33,1.843-0.514,5.586-0.49,5.882L35.724,150.268z
				"/>
			<path fill="#6E4539" d="M80.889,105.683c0.19,2.022,0.863,4.575,0.849,3.891c2.9,0.114,3.249,0.595,3.322,3.848
				c0.073,3.238-1.237,5.97-3.128,8.485c-1.956,2.602-4.584,4.232-7.696,4.995c-5.317,1.303-10.195,0.346-14.018-3.714
				c-2.928-3.109-4.263-6.933-3.292-11.25c0.381-1.694,0.717-1.983,2.752-2.204c0.507-0.098,0.824-1.607,1.209-3.49
				c1.234,0.236,2.593,0.582,3.612,1.003c1.412,0.584,2.867,0.768,4.366,0.859c1.945,0.118,3.831-0.183,5.697-0.675
				c1.274-0.336,2.597-0.573,3.789-1.102C79.125,105.985,80.059,105.626,80.889,105.683z"/>
			<path fill="#603B34" d="M80.889,105.683c-0.834,0.046-1.764,0.302-2.537,0.646c-1.191,0.529-2.515,0.766-3.789,1.102
				c-1.866,0.492-3.752,0.793-5.697,0.675c-1.498-0.091-2.953-0.275-4.366-0.859c-1.019-0.421-2.748-0.632-3.916-0.947
				c0.12-1.595,0.713-3.575,0.953-5.292c1.109,0.496,2.366,1.186,3.356,1.644c1.839,0.852,3.776,1.254,5.775,1.505
				c0.698,0.088,1.447-0.067,2.151-0.216c2.362-0.502,4.587-1.373,6.653-2.632c0.066-0.04,0.888-0.215,0.959-0.367
				c0.561-0.067,0.073,0.589,0.112,1.078c0.067,0.84,0.167,1.677,0.258,2.624C80.805,105.028,80.894,105.304,80.889,105.683z"/>
			<path fill="#6E4438" d="M97.152,69.995c0.065-0.557,0.13-1.115,0.3-1.824c0.315-0.494-0.032-1.015-0.317-0.855
				c0.097-1.164,0.188-2.328,0.293-3.492c0.024-0.268,0.127-0.529,0.14-0.797c0.064-1.369,0.061-1.374,1.275-1.748
				c2.065-0.636,4.268,0.45,5.11,2.432c0.703,1.653,0.61,3.377,0.47,5.069c-0.165,1.999-0.949,3.84-2.014,5.542
				c-0.186,0.297-0.499,0.516-0.928,0.8c-1.332-0.504-2.288-1.186-2.172-2.772C99.198,70.541,98.835,70.163,97.152,69.995
				 M98.645,66.636"/>
			<path fill="#603B34" d="M100.476,76.727c-0.429-0.234-1.642,0.161-1.215,0.708c-0.619,0.479-1.643,0.424-2.584,0.151
				c-0.073-2.109,0.074-5.278,0.301-7.495c0.91-0.095,1.759,0.243,1.938,0.992c0.046,0.192,0.316,0.33,0.483,0.493
				c-0.109,1.402,1.275,3.024,2.464,3.546C101.698,75.47,100.827,76.369,100.476,76.727z"/>
			<path fill="#42241B" d="M97.08,67.76c0.325-0.2,0.597-0.352,0.868-0.503c0.061,0.049,0.122,0.099,0.184,0.148
				c-0.199,0.324-0.397,0.649-0.659,1.026C97.283,68.259,97.154,68.034,97.08,67.76z"/>
			<path fill="#6E4438" d="M43.195,61.618c0.153,0.083,0.59,0.245,0.706,0.331c0.231,1.783,0.903,8.824,0.501,9.329
				c-0.31,0.388-1.367,0.652-1.503,1.407c-0.531,1.191-1.588,2.461-2.761,3.013c-1.468-1.144-2.661-2.353-3.214-4.034
				c-0.698-2.12-0.91-5.251-0.27-7.478c0.715-2.491,3.251-3.267,5.778-2.682C42.648,61.552,42.87,61.57,43.195,61.618 M42.702,66.77
				"/>
			<path fill="#603B34" d="M42.191,77.407c0.202-0.325-0.044-0.63,0.239-0.97c0.181-0.216-0.003-0.261-0.083-0.437
				c-0.095-0.211,0.523-0.394,0.238-0.452c-0.752-0.153-1.072,0.52-1.732,0.877c-0.275-0.101-0.607-0.584-0.837-0.794
				c1.172-0.649,1.308-1.921,1.861-3.04c0.227-0.45,0.404-0.814,0.597-1.17c0.286-0.53,0.745-0.762,1.45-0.781
				c0.397,1.143,0.103,2.327,0.213,3.472c0.111,1.159,0.517,2.312,0.078,3.545C43.561,77.578,42.938,77.503,42.191,77.407z"/>
			<path fill="#57362F" d="M75.356,66.769c-0.157-1.157,0.247-2.209,0.72-3.206c1.342-2.826,3.752-5.606,6.381-5.219
				c2.003,0.406,4.009,0.883,5.661,2.166c1.134,0.88,2.165,1.944,2.51,3.427c-1.178-0.288-2.27-0.647-3.353-1.029
				c-1.3-0.458-2.629-0.722-4.009-0.6c-2.964,0.262-5.535,1.28-7.296,3.84C75.807,66.384,75.562,66.563,75.356,66.769z"/>
			<path fill="#57362F" d="M50.966,64.421c-0.064-0.907,0.496-1.845,1.021-2.462c1.445-1.7,3.481-2.39,5.582-2.962
				c0.574-0.156,1.163-0.259,1.791-0.396c2.118-0.79,4.708,2.168,6.042,4.574c0.624,1.125,1.076,2.303,0.863,3.643
				c-2.178-3.666-7.492-5.091-11.168-3.835C53.762,63.44,52.306,63.983,50.966,64.421z"/>
			<path fill="#0E0B09" d="M92.199,55.674c0.55,0.711,1.373,1.163,1.533,2.188c0.019,0.12-0.109,0.209-0.214,0.149
				c-1.431-0.819-2.718-1.641-4.091-2.276c-1.429-0.661-2.928-1.21-4.446-1.625c-1.562-0.427-3.183-0.719-4.821-0.443
				c-1.477,0.248-2.945,0.553-4.55,0.861c-0.103,0.02-0.191-0.073-0.168-0.175c0.329-1.464,1.153-2.445,2.334-3.165
				c1.741-1.06,3.652-1.178,5.59-0.83c2.728,0.49,5.051,1.828,7.114,3.638C91.058,54.503,91.585,55.069,92.199,55.674 M80.333,53.04
				c1.148,0.047,2.308,0.01,3.442,0.16c2.219,0.293,4.287,1.093,6.284,2.087c0.156,0.077,0.331,0.115,0.507,0.153
				c0.111,0.024,0.206-0.086,0.164-0.191c-0.133-0.33-0.319-0.569-0.553-0.744c-0.853-0.638-1.696-1.304-2.613-1.839
				c-2.327-1.358-4.797-2.221-7.546-1.666c-1.367,0.276-2.525,0.895-3.355,2.293c-0.062,0.104,0.024,0.233,0.144,0.217
				C78.019,53.337,79.071,53.19,80.333,53.04 M91.33,55.744"/>
			<path fill="#0E0B09" d="M51.99,53.418c2.042-1.55,4.168-2.714,6.651-3.079c2.482-0.365,4.799-0.067,6.623,1.877
				c0.542,0.577,0.972,1.239,1.099,2.217c0.013,0.101-0.079,0.184-0.178,0.158c-2.091-0.545-4.086-1.118-6.153-0.992
				c-2.144,0.132-4.263,0.538-6.217,1.452c-1.874,0.877-3.613,1.878-5.486,2.871c-0.084,0.044-0.262-0.039-0.281-0.132
				c-0.092-0.434,0.305-0.759,0.592-1.058C49.707,55.622,50.82,54.555,51.99,53.418 M54.364,52.572
				c-1.082,0.775-2.295,1.396-3.129,2.489c-0.087,0.114,0.031,0.273,0.165,0.22c2.168-0.845,4.283-1.758,6.589-2.09
				c2.365-0.34,4.703-0.202,7.038,0.34c0.126,0.029,0.224-0.111,0.152-0.218c-1.282-1.89-3.147-2.622-5.318-2.494
				c-1.874,0.111-3.685,0.661-5.486,1.747C54.37,52.567,54.367,52.57,54.364,52.572z"/>
			<path fill="#42241B" d="M65.493,78.005c-0.938-1.019-0.963-1.726,0.053-2.735c0.893-0.887,1.728-1.818,2.155-2.997
				c0.389-1.075,0.755-2.201,0.849-3.329c0.142-1.691,0.276-3.425,0.037-5.008c0.417,0.489,0.746,1.599,0.765,2.884
				c0.016,1.113,0.094,2.237-0.023,3.338c-0.115,1.087-0.439,2.151-0.655,3.15c1.152,0.117,2.306,0.116,3.397,0.375
				c1.479,0.351,2.646,1.184,3.08,2.774c0.132,0.483,0.138,0.907-0.363,1.424c0.136-1.418-0.652-2.104-1.616-2.651
				c-2.019-1.145-4.078-1.134-6.14-0.134c-1.104,0.536-1.731,1.381-1.529,2.792C65.498,77.998,65.493,78.005,65.493,78.005z"/>
			<path fill="#42241B" d="M65.754,78.256c-0.081-0.027-0.148-0.074-0.231-0.197c-0.03-0.054-0.025-0.061-0.021-0.064
				c0.087,0.023,0.153,0.073,0.227,0.203C65.755,78.255,65.754,78.256,65.754,78.256z"/>
			<path fill="#42241B" d="M65.755,78.255c0.029,0.032,0.058,0.065,0.087,0.097c-0.021-0.011-0.041-0.021-0.075-0.064
				C65.754,78.256,65.755,78.255,65.755,78.255z"/>
			<path fill="#272C31" d="M80.211,53.041c-1.172,0.151-2.235,0.302-3.477,0.478c-0.088,0.013-0.155-0.082-0.111-0.159
				c0.833-1.446,2.007-2.081,3.395-2.361c2.749-0.555,5.219,0.309,7.546,1.666c0.917,0.535,1.76,1.201,2.613,1.839
				c0.241,0.18,0.431,0.429,0.565,0.775c0.036,0.092-0.047,0.187-0.143,0.167c-0.187-0.04-0.375-0.077-0.54-0.16
				c-1.997-0.994-4.066-1.794-6.284-2.087C82.64,53.051,81.481,53.088,80.211,53.041z"/>
			<path fill="#823E42" d="M64.207,88.034C64.175,88,64.15,87.96,64.124,87.92c0.024,0.01,0.048,0.019,0.086,0.063
				C64.224,88.016,64.213,88.028,64.207,88.034z"/>
			<path fill="#272C31" d="M54.452,52.525c1.719-1.044,3.532-1.595,5.407-1.706c2.191-0.13,4.07,0.618,5.353,2.546
				c0.059,0.089-0.021,0.205-0.125,0.18c-2.355-0.554-4.714-0.698-7.099-0.354c-2.354,0.339-4.508,1.284-6.723,2.142
				c-0.093,0.036-0.177-0.072-0.119-0.152C51.982,54.011,53.252,53.37,54.452,52.525z"/>
			<path fill="#42241B" d="M59.757,109.847c0.011-0.238,0.034-0.561,0.091-0.987c0.364-2.873,0.669-5.474,0.982-8.12
				c0.002-0.017-0.006-0.033-0.02-0.042C52.433,95.255,46.16,88.4,44.418,78.178c-0.004-0.023-0.025-0.039-0.048-0.036
				c-1.746,0.201-3.184-0.423-4.608-1.287c-0.002-0.001-0.003-0.002-0.005-0.003c-0.256-0.209-0.476-0.348-0.696-0.487
				c-0.003-0.002-0.006-0.005-0.009-0.007c-3.023-3.211-4.233-6.99-3.428-11.339c0.374-2.024,1.489-3.538,3.688-4.281
				c0.002-0.001,0.004-0.001,0.006-0.002c0.354-0.074,0.542-0.105,0.845-0.126c0.002,0,0.005,0,0.007,0
				c1.101,0.082,2.089,0.156,3.208,0.239c0.03,0.002,0.054-0.025,0.048-0.054c-0.143-0.695-0.295-1.334-0.39-1.98
				c-0.038-0.259,0.058-0.538,0.176-0.849c0-0.001,0.001-0.002,0.001-0.003c0.253-0.56,0.439-1.086,0.639-1.531
				c0.018-0.041,0.079-0.03,0.084,0.014c0.359,2.964,0.795,5.821,0.98,8.694c0.216,3.358,0.191,6.732,0.292,10.098
				c0.106,3.541,0.926,6.928,2.4,10.137c2.4,5.226,6.153,9.345,10.699,12.785c2.668,2.019,5.556,3.642,8.677,4.86
				c2.381,0.929,4.771,1.118,7.196,0.231c1.134-0.415,2.294-0.793,3.367-1.336c6.169-3.118,11.042-7.641,14.573-13.6
				c1.24-2.092,2.129-4.318,2.733-6.768c1.017-3.335,1.063-6.684,1.157-10.15c0.211-2.947,0.333-5.781,0.626-8.597
				c0.189-1.816,0.608-3.607,0.971-5.331c0.009-0.044,0.07-0.047,0.085-0.005c0.236,0.639,0.435,1.215,0.574,1.862
				c0.001,0.005,0.001,0.01,0.001,0.015c-0.066,0.554-0.068,1.032-0.068,1.603c0,0.031,0.031,0.053,0.06,0.042
				c1.318-0.47,2.538-0.415,3.836-0.11c0.001,0,0.002,0.001,0.003,0.001c0.187,0.056,0.77,0.252,0.929,0.341
				c1.734,0.964,2.413,2.699,2.626,4.601c0.401,3.569-0.51,6.82-2.892,9.751c-0.001,0.001-0.002,0.003-0.004,0.004
				c-0.327,0.325-0.532,0.554-0.821,0.818c-1.536,1.291-3.194,1.975-5.165,1.751c-0.022-0.003-0.044,0.012-0.049,0.035
				c-0.127,0.536-0.248,0.98-0.334,1.43c-0.878,4.586-2.815,8.684-5.665,12.366c-2.346,3.031-5.076,5.667-8.274,7.774
				c-0.926,0.61-1.231,1.256-1.137,2.324c0.156,1.762,0.206,3.4,0.3,5.169c0.027,0.511,0.1,1.144,0.094,1.657
				c-0.001,0.113,0.022,0.547,0.035,0.953c0.006,0.712-0.001,1.145-0.001,1.686c0,0.144-0.125,0.063-0.14,0.015
				c-0.638-1.982-0.586-4.027-0.848-6.145c-0.121-1.386-0.251-2.664-0.394-4.069c-0.003-0.03-0.035-0.048-0.063-0.037
				c-0.471,0.201-0.779,0.306-1.06,0.461c-1.896,1.05-3.896,1.847-6.015,2.276c-0.992,0.201-2.045,0.292-3.049,0.197
				c-2.698-0.255-5.157-1.303-7.542-2.536c-0.236-0.122-0.497-0.195-0.852-0.327c-0.027-0.01-0.057,0.007-0.061,0.036
				c-0.227,1.621-0.437,3.122-0.695,4.714c-0.208,1.061-0.315,2.041-0.54,2.994c-0.193,0.817-0.342,2.16-0.707,2.927
				c-0.111,0.29-0.418,0.278-0.373-0.115L59.757,109.847 M98.293,67.27c-0.473,0.778-1.066,1.597-0.995,2.472
				c0.001,0.012,0.013,0.021,0.024,0.027c0.535,0.267,1.323,0.322,1.739,0.854c0.415,0.53,0.551,1.112,0.34,1.695
				c-0.013,0.037-0.066,0.038-0.082,0.002c-0.086-0.192-0.188-1.061-0.894-1.325c-0.28-0.105-0.623-0.149-1.196-0.043
				c-0.02,0.004-0.036,0.021-0.037,0.042c-0.095,2.079-0.19,4.177-0.291,6.393c-0.001,0.026,0.02,0.047,0.045,0.047
				c1.757-0.006,3.121-0.488,4.202-1.844c0.102-0.128,0.831-0.865,1.02-1.143c1.9-2.794,2.693-5.886,2.113-9.214
				c-0.543-3.116-3.089-4.498-6.095-3.307c-0.011,0.004-0.02,0.013-0.025,0.024c-0.786,1.637-0.681,3.527-0.792,5.264
				c-0.002,0.026,0.02,0.048,0.046,0.048c0.155,0,0.476-0.145,0.526-0.171c0.163-0.086,0.431-0.272,0.484-0.259
				C98.513,66.854,98.402,67.117,98.293,67.27 M41.88,72.206c0.079-0.446,0.026-0.793,0.193-1.273
				c0.12-0.346,0.287-0.474,0.407-0.578c0.371-0.325,0.897-0.409,1.343-0.612c0.012-0.006,0.021-0.016,0.025-0.029
				c0.248-0.869-0.022-1.332-0.544-1.895c-0.229-0.246-0.49-0.419-0.602-0.518c-0.065-0.057-0.172-0.112-0.095-0.277
				c0.045-0.097,0.296-0.053,0.423-0.016c0.137,0.041,0.57,0.084,0.856,0.122c0.028,0.004,0.054-0.02,0.052-0.048
				c-0.092-1.335-0.187-2.596-0.262-3.859c-0.069-1.148-0.077-1.171-1.494-1.604c-0.001,0-0.003-0.001-0.005-0.001
				c-2.373-0.514-4.286,0.582-5.059,2.863c-0.544,1.604-0.559,3.223-0.192,4.849c0.517,2.295,1.25,4.492,3.177,6.276
				c1.059,1.13,2.353,1.703,4.064,1.803c0.027,0.002,0.05-0.021,0.048-0.048c-0.129-2.26-0.249-4.372-0.369-6.485
				c-0.001-0.022-0.02-0.041-0.042-0.042c-0.739-0.052-1.135,0.221-1.409,0.688c-0.158,0.271-0.289,0.557-0.437,0.723
				C41.928,72.276,41.872,72.25,41.88,72.206z"/>
			<g>
				<path fill="#A8874A" d="M98.607,75.399c0.103,0.09,1.111,0.11,2.221,1.529c0.231,0.295,0.372,0.513,0.515,0.859
					c0.887,2.146,1.303,4.341,1.162,6.636c-0.097,1.587-0.281,3.162-1.162,4.547c-0.717,1.127-1.944,1.921-3.078,1.957
					c-0.803,0-2.5-0.848-3.104-2.136c-0.888-2.076-0.421-3.571-0.167-4.092c0.21,0.69,0.254,1.376,0.342,2.01
					c0.218,1.577,1.179,2.224,2.459,3.041c0.381,0.243,0.669,0.193,1.051-0.034c1.562-0.929,2.264-2.018,2.651-3.691
					c0.472-2.041,0.3-4.081-0.149-6.099C101.107,78.848,98.9,76.465,98.607,75.399z"/>
				<path fill="#DEB565" d="M100.496,77.258c0.422,0.855,0.822,1.776,1.019,2.659c0.45,2.018,0.453,4.065-0.019,6.107
					c-0.387,1.673-1.088,2.89-2.651,3.819c-0.382,0.227-0.67,0.277-1.051,0.034c-1.28-0.817-2.355-1.561-2.573-3.138
					c-0.085-0.611-0.121-0.905-0.22-1.896c-0.005-0.055-0.003-0.173,0.009-0.226c0.429-1.972,1.214-4.576,1.704-6.41
					c0.008-0.051,0.013-0.073,0.107-0.063c0.143,0.016,0.255,0.029,0.417,0.033c0.118,0.003,0.025,0.349-0.015,0.475
					c-0.605,1.919-1.223,4.093-1.148,6.03c0.062,1.615,0.772,2.654,2.026,3.447c0.109,0.069,0.244,0.085,0.365,0.04
					c0.085-0.032,0.156-0.061,0.209-0.11c0.186-0.173,0.352-0.318,0.494-0.527c2.044-3.013,1.929-6.167,0.586-9.391
					c-0.07-0.168-1.516-1.786-1.845-2.159c-0.156-0.177-0.162-0.509,0.059-0.593C98.906,75.034,100.138,76.534,100.496,77.258z"/>
				<path fill="#A8874A" d="M97.964,78.166c-0.689,1.979-1.297,4.364-1.051,6.483c0.102,0.875,0.271,1.76,1.144,2.307
					c0.085,0.053,0.197,0.049,0.273-0.017c0.821-0.716,1.185-1.664,1.351-2.654c0.11-0.659,0.262-2.056,0.177-3.312
					c-0.053-0.79-0.224-1.519-0.343-2.012c-0.313-1.297-1.4-2.493-1.398-2.746c0.165,0.064,1.172,1.002,1.639,1.927
					c1.343,3.223,1.458,6.378-0.586,9.391c-0.142,0.209-0.395,0.525-0.6,0.625c-0.182,0.088-0.399,0.069-0.568-0.042
					c-1.202-0.788-1.864-1.854-1.925-3.433c-0.081-2.102,0.41-4.475,1.163-6.504C97.484,78.198,97.641,78.175,97.964,78.166z"/>
			</g>
			<g>
				<path fill="#A8874A" d="M39.827,79.926c-0.45,2.018-0.621,4.057-0.149,6.099c0.387,1.673,1.088,2.762,2.651,3.691
					c0.382,0.227,0.67,0.277,1.051,0.034c1.28-0.817,2.241-1.464,2.459-3.041c0.088-0.635-0.078-2.234,0.132-2.924
					c0.254,0.521,1.011,2.787,0.043,5.006c-0.604,1.288-2.301,2.136-3.104,2.136c-1.134-0.036-2.361-0.83-3.078-1.957
					c-0.881-1.385-1.065-2.96-1.162-4.547c-0.141-2.295,0.275-4.49,1.162-6.636c0.143-0.346,0.284-0.564,0.515-0.859
					c1.11-1.419,2.118-1.439,2.221-1.529C42.274,76.465,40.067,78.848,39.827,79.926z"/>
				<path fill="#DEB565" d="M43.204,75.389c0.221,0.084,0.215,0.416,0.059,0.593c-0.328,0.373-1.775,1.991-1.845,2.159
					c-1.343,3.223-1.458,6.378,0.586,9.391c0.142,0.209,0.308,0.355,0.494,0.527c0.053,0.049,0.125,0.078,0.209,0.11
					c0.121,0.045,0.256,0.029,0.365-0.04c1.254-0.793,1.964-1.832,2.026-3.447c0.075-1.937-0.543-4.111-1.148-6.03
					c-0.04-0.125-0.133-0.471-0.015-0.475c0.161-0.004,0.274-0.017,0.417-0.033c0.094-0.011,0.099,0.012,0.107,0.063
					c0.49,1.834,1.275,4.437,1.704,6.41c0.012,0.054,0.015,0.172,0.009,0.226c-0.099,0.991-0.136,1.285-0.22,1.896
					c-0.218,1.577-1.292,2.321-2.573,3.138c-0.381,0.243-0.669,0.193-1.051-0.034c-1.562-0.929-2.264-2.146-2.651-3.819
					c-0.472-2.041-0.469-4.089-0.019-6.107c0.197-0.883,0.596-1.804,1.019-2.659C41.036,76.534,42.268,75.034,43.204,75.389z"/>
				<path fill="#A8874A" d="M43.935,78.178c0.753,2.029,1.244,4.402,1.163,6.504c-0.061,1.579-0.723,2.645-1.925,3.433
					c-0.169,0.111-0.386,0.13-0.568,0.042c-0.205-0.1-0.671-0.429-0.813-0.638c-2.044-3.013-1.717-6.154-0.374-9.378
					c0.468-0.925,1.475-1.863,1.639-1.927c0.002,0.253-1.084,1.449-1.398,2.746c-0.119,0.493-0.29,1.222-0.344,2.012
					c-0.085,1.256,0.067,2.653,0.177,3.312c0.166,0.99,0.53,1.937,1.351,2.654c0.076,0.066,0.187,0.07,0.273,0.017
					c0.873-0.547,1.043-1.431,1.144-2.307c0.246-2.119-0.362-4.504-1.051-6.483C43.533,78.175,43.69,78.198,43.935,78.178z"/>
			</g>
			<g>
				<g>
					<path d="M75.26,67.03c0,0,3.262,3.591,8.237,2.998c4.975-0.593,6.886-4.316,7.051-5.305c0,0-1.252,2.57-4.349,3.789
						c-3.097,1.219-6.194,1.549-10.543-1.647L75.26,67.03z"/>
					<ellipse cx="83.026" cy="66.011" rx="4.296" ry="3.864"/>
					<ellipse fill="#22211E" cx="82.968" cy="66.048" rx="3.76" ry="3.382"/>
					<path fill="#FAFCFC" d="M80.321,64.985c0.04-0.263,0.204-0.695,0.847-0.823c0.945-0.189,0.857,0.844,0.592,1.336
						c-0.265,0.491-0.655,0.769-1.109,0.403S80.302,65.109,80.321,64.985z"/>
					<path d="M93.908,63.768c0,0-1.647,1.45-5.832,0.593c-4.184-0.857-6.062-1.021-9.456,0.56c-3.394,1.581-2.965,1.944-2.965,1.944
						L75.26,67.03c0,0,0.869-3.84,6.143-4.97c4.393-0.941,7,1.378,8.974,1.724C91.931,64.056,93.908,63.768,93.908,63.768z"/>
				</g>
				<g>
					<path d="M66.34,67.03c0,0-3.262,3.591-8.237,2.998c-4.975-0.593-6.886-4.316-7.051-5.305c0,0,1.252,2.57,4.349,3.789
						s6.194,1.549,10.543-1.647L66.34,67.03z"/>
					<ellipse cx="58.574" cy="66.011" rx="4.296" ry="3.864"/>
					<ellipse fill="#22211E" cx="58.632" cy="66.048" rx="3.76" ry="3.382"/>
					<path fill="#FAFCFC" d="M55.89,64.985c0.04-0.263,0.204-0.695,0.847-0.823c0.945-0.189,0.857,0.844,0.592,1.336
						c-0.265,0.491-0.655,0.769-1.109,0.403S55.871,65.109,55.89,64.985z"/>
					<path d="M47.692,63.768c0,0,1.647,1.45,5.832,0.593c4.184-0.857,6.062-1.021,9.456,0.56c3.394,1.581,2.965,1.944,2.965,1.944
						l0.395,0.165c0,0-0.878-3.539-6.128-4.777c-4.346-1.025-6.418,0.918-8.989,1.531C49.688,64.149,47.692,63.768,47.692,63.768z"
						/>
				</g>
				<g>
					<g>
						<path fill="#4A2D26" d="M75.328,67.03c0,0-0.46-3.585,2.166-6.452c2.318-2.532,3.229-2.215,5.478-4.126
							c0,0-1.785,1.873-4.408,4.183C75.874,63.002,75.328,67.03,75.328,67.03z"/>
						<path fill="#4A2D26" d="M90.616,63.783c0,0-0.366-2.701-4.1-4.452c-3.27-1.534-5.683-1.231-5.683-1.231l-1.004,0.788
							c0,0,3.04-0.694,6.734,1.106C90.257,61.794,90.616,63.783,90.616,63.783z"/>
					</g>
				</g>
				<path fill="#4A2D26" d="M66.371,67.03c0,0,0.441-3.568-2.166-6.452c-1.84-2.035-2.728-1.473-5.478-4.126
					c0,0,0.234,0.765,1.135,1.571c0.901,0.806,2.612,1.829,3.583,2.995C65.312,63.259,66.371,67.03,66.371,67.03z"/>
				<path fill="#4A2D26" d="M50.966,63.849c0,0,0.71-3.037,4.482-4.707c2.828-1.252,5.292-0.913,5.292-0.913l0.739,0.48
					c0,0-3.004-0.287-6.252,1.134C51.461,61.49,50.966,63.849,50.966,63.849z"/>
			</g>
			<path fill="#541422" d="M61.9,86.097c0,0,2.41,1.425,4.675-0.42c2.157-1.758,3.224-1.396,4.048-1.443
				c0.824-0.047,2.159,0.25,3.39,1.011s2.533,1.859,4.481,1.158c0,0-0.928,0.967-1.754,2.17c-0.581,0.846-0.857,1.762-1.921,2.548
				c-1.227,0.907-3.393,1.02-4.039,1.003c-0.887-0.024-3.465,0.199-5.129-1.864C64.953,89.393,62.701,86.638,61.9,86.097z"/>
			<path fill="#321A1A" d="M61.597,85.884c0,0,1.171,0.693,2.847,3.092c2.065,2.955,4.678,3.4,6.297,3.407
				c1.639,0.007,3.648-0.243,5.23-2.353c1.583-2.11,1.706-2.785,2.432-3.667c0,0-2.184,3.013-3.494,3.879
				c-1.248,0.824-2.737,1.271-4.168,1.237c-2.267-0.054-3.993-0.528-5.664-2.452C63.336,87.022,61.597,85.884,61.597,85.884z"/>
			<path fill="#541422" d="M62.236,86.171c0,0,2.075,1.095,4.339-0.751c2.157-1.758,3.224-1.268,4.048-1.315
				c0.824-0.047,2.159,0.25,3.39,1.011c1.231,0.76,2.676,1.507,4.481,1.413c0,0-4.008,1.9-8.089,1.89
				C66.386,88.41,62.633,86.44,62.236,86.171z"/>
			<path fill="#321A1A" d="M60.212,84.811c0,0,4.043,3.97,10.296,3.866c6.233-0.104,9.146-2.759,10.881-4.217
				c0,0-4.305,3.371-10.895,3.43C63.903,87.947,60.212,84.811,60.212,84.811z"/>
			<path fill="#321A1A" d="M64.019,86.53c0,0,1.211-0.162,3.369-1.795c2.158-1.633,4.368-1.052,5.262-0.596
				c0.616,0.314,2.866,1.841,4.141,2.216c0,0-1.046-0.202-2.31-0.811c-1.259-0.606-2.864-1.056-3.848-1.056
				C67.708,84.489,67.256,86.122,64.019,86.53z"/>
			<path fill="#B3443E" d="M108.72,215.493c-0.53,0.291-1.001,0.514-1.619,0.825c-1.917,0.947-3.652,1.891-5.463,2.652
				c-8.465,3.554-17.368,5.148-26.482,5.614c-7.032,0.36-14.024-0.155-20.948-1.492c-6.335-1.224-12.461-3.068-18.184-6.111
				c-0.716-0.38-1.436-0.752-2.154-1.128c-0.363-0.24-0.726-0.479-1.17-0.727c-0.59-0.521-0.316-1.015-0.065-1.529
				c2.174-4.464,4.109-9.03,5.774-13.708c1.379-3.874,2.459-7.828,3.096-11.895c0.481-3.075,0.22-6.132-0.284-9.175
				c-0.272-1.642-0.599-3.275-0.918-5.113c-0.195-1.171-0.195-1.171-1.39-1.247c-1.509-0.197-2.907-0.343-4.295-0.551
				c-5.864-0.877-11.157-3.046-15.698-7.052c-0.439-0.456-0.844-0.835-1.249-1.214c-1.151-1.541-2.297-3.086-3.454-4.622
				c-0.416-0.552-0.359-1.053-0.035-1.651c4.96-9.169,9.005-18.75,12.786-28.45c0.326-0.837,0.583-1.701,0.922-2.532
				c1.096-2.695,2.834-4.917,5.302-6.441c3.203-1.978,6.424-3.952,9.776-5.657c5.252-2.672,10.939-4.439,16.873-5.361
				c-0.041,0.372-0.062,0.589-0.082,0.918c-2.035,0.221-2.32,0.397-2.701,2.09c-0.971,4.317,0.236,8.141,3.164,11.25
				c3.823,4.06,8.701,5.017,14.018,3.714c3.111-0.762,5.74-2.393,7.696-4.995c1.891-2.515,3.201-5.246,3.128-8.485
				c-0.074-3.253-0.422-3.351-3.325-3.68c-0.023-0.397-0.027-0.687-0.031-0.977c5.628,0.86,10.966,2.652,16.143,4.981
				c3.804,1.711,7.331,3.897,10.791,6.199c2.651,1.764,4.519,4.174,5.572,7.179c1.844,5.26,4.015,10.385,6.282,15.471
				c1.569,3.519,3.207,7.007,4.858,10.488c0.678,1.43,1.44,2.824,2.225,4.199c0.389,0.682,0.413,1.267-0.06,1.887
				c-1.141,1.496-2.277,2.995-3.537,4.595c-0.452,0.381-0.782,0.66-1.189,0.974c-3.006,2.717-6.31,4.73-10.133,5.905
				c-3.232,0.993-6.532,1.545-9.984,1.828c-1.07,0.178-1.07,0.178-1.14,1.497c-0.595,3.15-1.232,6.292-1.349,9.512
				c-0.132,3.637,0.537,7.159,1.484,10.638c1.692,6.218,4.133,12.154,6.862,17.978c0.254,0.543,0.506,1.087,0.745,1.636
				C109.672,214.641,109.657,214.678,108.72,215.493 M34.814,170.897c1.658,0.489,3.346,0.765,5.202,0.834
				c-0.578-2.004-1.081-3.897-1.669-5.762c-1.452-4.609-2.479-9.293-2.687-14.342c-0.001-0.275,0.034-1.195,0.007-1.562
				c0.17-1.914,0.208-3.851,0.545-5.735c0.39-2.18,1.018-4.321,1.603-6.462c0.144-0.525,0.412-1.083,1.209-1.423
				c-0.093,0.689-0.134,1.19-0.232,1.68c-0.579,2.89-1.163,5.766-1.43,8.72c-0.265,2.942-0.035,5.828,0.531,8.662
				c0.786,3.937,1.86,7.817,2.83,11.717c0.96,3.861,1.795,7.741,2.17,11.712c0.217,2.293,0.528,4.548,0.285,6.888
				c-0.396,3.813-1.225,7.506-2.392,11.137c-1.72,5.349-3.895,10.516-6.294,15.592c-0.269,0.568-0.465,1.171-0.697,1.765
				c0.262,0.196,0.421,0.335,0.599,0.445c2.638,1.625,5.469,2.846,8.373,3.893c4.96,1.789,10.022,3.233,15.224,4.106
				c2.861,0.48,5.751,0.93,8.642,1.045c3.456,0.137,6.932-0.012,10.39-0.201c2.34-0.128,4.688-0.41,6.99-0.847
				c5.853-1.11,11.61-2.609,17.123-4.904c2.05-0.853,4.035-1.871,6.011-2.889c0.962-0.496,0.976-0.713,0.571-1.631
				c-0.985-2.233-2-4.452-2.963-6.694c-1.707-3.976-3.252-8.012-4.416-12.187c-1.179-4.228-1.951-8.509-1.637-12.921
				c0.103-1.446,0.32-2.885,0.491-4.326c0.419-3.531,1.19-6.99,2.098-10.424c1.267-4.791,2.701-9.537,3.14-14.521
				c0.246-2.796,0.222-5.551-0.251-8.301c-0.362-2.104-0.827-4.191-1.228-6.288c-0.055-0.288-0.008-0.595-0.008-0.894l0.295-0.084
				c0.276,0.403,0.625,0.775,0.811,1.216c0.315,0.746,0.614,1.519,0.767,2.311c0.421,2.178,0.943,4.359,1.092,6.562
				c0.186,2.762,0.112,5.549,0.011,8.32c-0.057,1.572-0.392,3.134-0.718,4.841c-1.034,3.687-2.07,7.374-3.093,11.064
				c-0.061,0.22-0.008,0.472-0.008,0.832c1.493-0.264,2.876-0.455,4.232-0.764c0.982-0.225,1.929-0.607,3.092-0.945
				c4.949-1.429,9.544-3.557,13.483-6.937c1.404-1.205,2.557-2.641,3.505-4.239c0.316-0.532,0.357-1.014,0.013-1.553
				c-0.46-0.721-0.881-1.468-1.308-2.21c-2.562-4.461-4.929-9.027-6.845-13.799c-1.834-4.566-3.48-9.208-5.157-13.836
				c-1.07-2.953-2.755-5.427-5.436-7.098c-3.341-2.083-6.696-4.142-10.323-5.726c-3.422-1.494-6.91-2.776-10.528-3.696
				c-0.177-0.045-0.364-0.047-0.581-0.05c-0.184-0.003-0.327,0.161-0.298,0.343c0.236,1.484,0.425,2.864,0.165,4.31
				c-0.677,3.775-2.361,6.94-5.285,9.418c-4.223,3.581-9.061,4.59-14.417,3.375c-7.387-1.676-12.562-9.288-10.512-16.659
				c0.038-0.135,0.033-0.282,0.023-0.42c-0.012-0.166-0.112-0.318-0.267-0.38c-0.029-0.012-0.054-0.017-0.078-0.015
				c-0.252,0.028-0.506,0.065-0.751,0.128c-3.744,0.957-7.394,2.208-10.848,3.931c-3.062,1.527-6.007,3.286-9.015,4.922
				c-3.269,1.778-5.226,4.586-6.419,8.024c-0.954,2.75-1.918,5.498-2.921,8.231c-2.649,7.217-6.009,14.099-9.953,20.689
				c-0.621,1.038-0.551,1.762,0.053,2.666c1.72,2.579,3.99,4.572,6.593,6.195C26.134,168.121,30.304,169.661,34.814,170.897z"/>
			<path fill="#272C31" d="M40.69,39.642l1.228-2.79l3.594-0.982l-0.268-3.17l1.875-1.674l2.969-0.335l0.246-1.83l1.262-0.558
				l0.345-3.326l1.741-1.205l2.277,0.112l2.388,2.031l1.473-2.366l2.143-0.312l1.629,0.982l0.446-2.969l2.232-1.384l2.335-0.593
				l4.048,2.392l0.803,1.575l3.18-2.038l2.686,0.772l1.729,2.347l-0.297,1.392l3.204-1.801l2.058-0.211l2.433,1.474l0.374,1.661
				l-1.05,1.925l1.47-0.435l1.687,0.844l-0.183,1.862l1.726-0.6l2.534-0.097l2.172,2.659l0.552,1.624l-0.365,1.849l2.799,1.315
				l0.82,3.078l-0.976,2.559l2.578,1.979l0.673,3.768l-0.673,1.666l-2.39,0.48l1.808,3.786c0,0-0.564,1.031-1.884,2.463
				c-0.504,0.547,1.442,2.478,0.707,3.106c0,0-2.272,0.118-4.042,0.767c-1.745,0.639-2.253-0.407-2.253-1.034
				c0-0.627,0.395-3.042,0.395-3.042l-0.581-1.3l-0.046-1.672l1.277-2.183l-1.718-0.906L93,49.902l0.557-2.461l0.201-1.022
				l-2.755-0.093l-2.276-1.207l-0.186-2.322l0.464-1.3l-2.624-0.348l-1.805-0.975l-0.91-3.437l-2.068,0.279l-2.113-0.836
				l-1.231-2.322l-1.416,0.906l-1.788,0.209l-1.533-1.115l-0.395-1.765l-1.858,2.879l-2.903,0.627l-2.206-0.859l-1.811-1.649
				l-0.673,2.113l-1.602,1.904l-1.44,0.395l-3.088-0.279l0.232,1.765l-0.627,2.043l-1.951,1.672l-3.158-0.557l-0.539,3.274
				l-1.481,1.509l-3.088,0.673l1.112,2.02l-0.345,2.02l-2.09,2.09l1.3,2.039l-0.07,1.537l-1.44,1.672c0,0,2.061,2.053-0.014,3.221
				c-1.272,0.716-3.812-0.188-4.406-2.295c-0.376-1.332-1.983-2.94-2.059-4.257c-0.03-0.525,0.134-1.879,2.653-3.229
				c0,0-3.116-3.085-2.98-3.739c0.136-0.653-1.031-2.755,0.513-3.884c1.212-0.885,2.463-1.472,3.214-2.433L40.69,39.642z"/>
			<path fill="#0E0B09" d="M94.874,61.042c0.102,0.316,0.323,0.412,0.265,0.433s-0.245-0.019-0.521-0.339
				c-0.213-0.247-0.195-0.699-0.216-0.943c-0.022-0.242-0.031-0.663,0.056-0.947c0.092-0.298,0.246-0.599,0.288-0.908
				c0.042-0.308,0.058-0.72-0.108-0.94c-1.134-1.497-1.087-2.96-0.249-4.436c0.063-0.111,0.147-0.211,0.211-0.323
				c0.031-0.054,0.052-0.113,0.089-0.209c0.026-0.067-0.005-0.141-0.068-0.174c-2.146-1.089-2.605-2.816-1.588-5.094
				c0.041-0.091-0.023-0.195-0.123-0.198c-0.542-0.018-0.955,0.003-1.341-0.088c-0.697-0.164-1.437-0.312-2.043-0.665
				c-1.23-0.718-1.643-1.954-1.269-3.332c0.075-0.277,0.171-0.549,0.276-0.869c0.027-0.081-0.026-0.169-0.11-0.181
				c-1.247-0.181-2.501,0.086-3.551-0.848c-1.044-0.929-1.061-2.193-1.406-3.425c-0.019-0.068-0.088-0.11-0.157-0.099
				c-1.096,0.179-2.15,0.229-3.149-0.301c-0.997-0.528-1.6-1.354-1.925-2.508c-0.025-0.088-0.125-0.13-0.205-0.084
				c-1.888,1.095-3.579,1.229-4.889-0.923c-0.053-0.087-0.18-0.088-0.234-0.002c-0.961,1.532-2.327,2.254-3.957,2.332
				c-1.581,0.075-2.979-0.514-4.151-1.767c-0.068-0.073-0.188-0.055-0.229,0.036c-0.575,1.28-1.072,2.482-2.287,3.161
				c-1.164,0.65-2.391,0.791-3.794,0.439c-0.088-0.022-0.174,0.043-0.174,0.135c-0.002,1.661-0.284,3.09-1.559,4.123
				c-1.218,0.988-2.56,1.281-4.158,0.791c-0.089-0.027-0.179,0.037-0.181,0.131c-0.056,2.881-1.457,4.547-4.44,4.792
				c-0.092,0.008-0.153,0.1-0.12,0.187c0.411,1.097,0.837,2.059,0.552,3.155c-0.29,1.112-1.108,1.798-1.878,2.494
				c-0.046,0.042-0.059,0.11-0.033,0.167c1.364,2.898,1.319,3.323-0.587,5.008c-0.052,0.046-0.063,0.123-0.025,0.18
				c0.292,0.443,0.566,0.898,0.572,1.432c0.002,0.163-0.225,0.199-0.271,0.043c-0.241-0.822-0.944-1.358-1.831-1.865
				c-0.103-0.059-0.089-0.212,0.023-0.252c0.222-0.078,0.373-0.136,0.529-0.159c1.511-0.226,2.173-1.464,1.432-2.801
				c-0.261-0.472-0.695-0.849-1.06-1.261c-0.174-0.196-0.363-0.38-0.623-0.642c-0.072-0.072-0.044-0.195,0.051-0.229
				c0.344-0.126,0.566-0.208,0.789-0.287c1.962-0.697,2.618-2.345,1.659-4.216c-0.174-0.339-0.439-0.63-0.638-0.958
				c-0.103-0.171-0.19-0.251-0.323-0.552c-0.068-0.154,0.046-0.301,0.142-0.306c0.585-0.031,1.062-0.067,1.54-0.07
				c2.684-0.014,4.057-1.71,3.537-4.369c-0.088-0.452-0.15-0.909-0.215-1.343c-0.007-0.049-0.043-0.268,0.188-0.361
				c0.316-0.127,0.493,0.104,0.683,0.329c1.478,1.741,4.084,1.302,4.94-0.846c0.376-0.944,0.395-1.911,0.042-2.885
				c-0.045-0.125-0.06-0.261-0.067-0.4c-0.004-0.091,0.015-0.402,0.397-0.412c0.176-0.005,0.351,0.017,0.52,0.056
				c0.498,0.116,0.972,0.351,1.473,0.428c2.488,0.385,3.724-1.152,4.296-2.957c0.097-0.307,0.172-0.621,0.241-0.932
				c0.113-0.515,0.792-0.638,1.082-0.198l0,0c1.187,1.771,3.186,2.472,5.162,1.829c1.143-0.372,1.901-1.107,2.298-2.239
				c0.108-0.309,0.237-0.611,0.365-0.914c0.149-0.325,0.514-0.2,0.58,0.039c0.089,0.326,0.178,0.652,0.278,0.974
				c0.644,2.077,2.272,2.546,3.96,1.152c0.238-0.197,0.493-0.373,0.849-0.632c0.083-0.061,0.202-0.013,0.219,0.088
				c0.248,1.431,0.487,2.74,1.892,3.178c1.088,0.339,2.206,0.2,3.392-0.299c0.24-0.101,0.506,0.073,0.514,0.333
				c0.015,0.463,0.028,0.826,0.032,1.188c0.022,2.318,1.116,3.369,3.446,3.258c0.436-0.021,0.87-0.085,1.308-0.152
				c0.452-0.069,0.778,0.43,0.527,0.812c-0.099,0.15-0.207,0.289-0.268,0.447c-0.243,0.623-0.583,1.282-0.563,1.916
				c0.037,1.178,1.042,2.003,2.358,2.116c0.639,0.055,1.285,0.009,1.928,0.018c0.323,0.005,0.646,0.025,1.123,0.049
				c0.104,0.005,0.168,0.119,0.116,0.21c-0.234,0.411-0.426,0.707-0.551,1.028c-0.244,0.63-0.584,1.277-0.609,1.927
				c-0.041,1.088,0.804,1.916,2.003,2.173c0.404,0.087,0.847,0.059,0.966,0.661c0.009,0.044-0.007,0.089-0.039,0.119
				c-0.191,0.179-0.415,0.384-0.63,0.597c-0.769,0.765-1.164,1.674-1.085,2.775c0.078,1.094,0.405,1.36,1.461,1.169
				c0.185-0.033,0.372-0.049,0.589-0.071c0.094-0.01,0.171,0.076,0.152,0.168c-0.105,0.521-0.561,0.638-0.866,0.897
				C95.045,58.531,94.478,59.82,94.874,61.042z"/>
			<path fill="#4A2D26" d="M77.125,70.596c-0.073-0.019-0.11,0.085-0.04,0.115c1.131,0.495,3.152,2.833,7.29,2.148
				c3.038-0.503,4.68-1.603,5.636-2.643c0.056-0.061-0.015-0.155-0.089-0.116c-1.033,0.544-4.119,1.955-6.141,2.153
				C79.928,72.629,78.542,70.968,77.125,70.596z"/>
			<path fill="#4A2D26" d="M64.385,70.602c0.07-0.031,0.116,0.083,0.048,0.119c-0.91,0.492-3.072,2.991-7.343,2.262
				c-3.203-0.547-5.109-2.302-5.64-2.891c-0.04-0.044,0.008-0.111,0.063-0.087c0.476,0.208,1.617,0.888,3.107,1.442
				C59.072,73.102,60.73,72.231,64.385,70.602z"/>
			<path fill="#3F2119" d="M78.048,80.61c0.066,0.375,0.421,1.83,2.056,2.954c1.892,1.301,2.949,1.744,3.839,3.045
				s1.009,1.922,0.89,3.193c0,0-0.062,0.374,0.154,0.469c0.216,0.095,0.423-0.345,0.423-0.69c0-0.3,0.015-1.153-0.145-1.785
				c-0.163-0.644-0.681-1.398-1.437-2.167c-0.605-0.616-1.467-1.189-2.421-1.677c-2.102-1.075-2.698-2.022-3.333-3.348
				C78.061,80.574,78.037,80.55,78.048,80.61z"/>
			<path fill="#3F2119" d="M63.474,80.61c-0.066,0.375-0.421,1.83-2.056,2.954c-1.892,1.301-2.949,1.744-3.839,3.045
				s-1.009,1.922-0.89,3.193c0,0,0.062,0.374-0.154,0.469c-0.216,0.095-0.423-0.345-0.423-0.69c0-0.3-0.015-1.153,0.145-1.785
				c0.163-0.644,0.681-1.398,1.437-2.167c0.605-0.616,1.467-1.189,2.421-1.677c2.102-1.075,2.698-2.022,3.333-3.348
				C63.461,80.574,63.484,80.55,63.474,80.61z"/>
			<path fill="#070604" d="M40.813,60.671c0,0-0.554-1.01-0.126-1.766c0,0-2.57-0.731-2.369-3.452s2.898-2.999,2.898-2.999
				s-3.956-2.57-3.503-5.594c0.454-3.024,2.848-4.082,4.007-4.536c0,0-2.243-2.016-1.21-4.385c1.033-2.369,2.861-2.373,4.687-2.293
				c0,0-1.184-2.268,0.428-4.234s4.108-1.184,4.108-1.184s-0.862-1.967,1.663-2.146c0,0-0.982-3.423,1.513-4.632
				c2.495-1.21,4.763,0.857,5.267,1.789c0,0,0.378-1.613,2.243-2.268s2.822,0.63,2.822,0.63s-0.265-4.334,4.208-4.662
				c4.473-0.328,6.06,3.2,6.06,3.881c0,0,2.092-3.2,5.443-1.638c3.352,1.562,2.268,4.133,2.268,4.133s2.747-3.553,6.123-1.411
				s0.655,4.637,0.655,4.637s1.487-1.021,2.621-0.063s0.756,1.84,0.605,2.167c0,0,2.092-2.092,5.267,0.378s1.739,4.838,1.21,5.292
				c0,0,2.974,0.126,3.704,3.074c0.731,2.948-1.058,3.982-1.058,3.982s3.906,1.814,3.478,5.368s-3.15,2.848-3.15,2.848
				s2.243,3.049,1.512,4.738s-1.865,1.537-1.865,1.537s1.663,1.789,0.832,2.923l-0.766-0.114c0,0,1.044-0.858-0.615-2.331
				c-1.659-1.473-0.473-1.527-0.044-1.471c0.429,0.056,2.095-0.282,1.443-2.556c-0.653-2.275-1.212-2.48-1.212-2.48
				s-0.659-0.832,0.214-0.996c0.873-0.164,1.572,0.251,2.161-0.753c0.589-1.004,1.115-2.44-0.112-4.279
				c-0.868-1.301-1.87-1.72-2.248-1.736c-0.357-0.015-1.175-0.527-0.176-1.281c0.999-0.754,0.982-2.173,0.655-3.241
				c-0.326-1.068-0.86-2.478-3.115-2.537c0,0-1.113,0.104-0.519-0.831c0.593-0.935,0.742-2.24-0.43-3.724
				c-1.172-1.484-2.685-2.062-3.902-1.691c-1.217,0.371-0.974,0.545-1.298,0.732c-0.428,0.247-0.888,0.087-0.69-0.554
				c0.31-1.005,0.341-1.513-0.237-1.943c-0.579-0.43-1.172-0.534-1.884-0.134c-0.712,0.401-1.053,0-0.816-0.49
				c0.237-0.49,1.484-1.558,0.371-2.997s-2.878-1.973-4.94-0.623c0,0-0.771,0.386-1.187,0.92c-0.415,0.534-0.875,0.949-1.335,0.475
				c-0.46-0.475,0.015-0.771,0.03-1.573c0.015-0.801-0.89-2.374-2.403-2.626c-1.513-0.252-2.73-0.148-3.917,1.335
				c0,0-0.89,1.424-1.306-0.074c-0.415-1.498-2.641-3.546-4.911-3.249c-2.011,0.263-3.207,0.631-3.887,2.702
				c-0.088,0.267-0.086,1.111,0.007,1.384c0.093,0.273,0.126,0.595-0.111,0.796c-0.284,0.24-0.478-0.052-0.744-0.386
				c-0.178-0.223-0.696-0.763-1.423-0.816c-0.701-0.051-1.636-0.073-2.491,1.118c-0.519,0.722-0.366,1.114-0.577,1.565
				c-0.096,0.205-0.242,0.347-0.474,0.307c-0.439-0.076-0.333-0.415-0.62-0.873c-0.055-0.087-0.363-0.579-0.803-0.899
				c-0.382-0.278-1.11-0.574-1.53-0.622c-0.697-0.08-1.402-0.155-2.071,0.368c-0.57,0.446-0.836,0.876-1.017,1.258
				c-0.197,0.417-0.203,1.011-0.205,1.258c-0.001,0.285,0.062,0.69,0.33,1.308c0.165,0.38,0.256,0.719,0.001,0.938
				c-0.383,0.329-0.825-0.67-1.448-0.359c-0.623,0.312-0.673,0.967-0.273,1.768c0.401,0.801-0.495,0.471-0.495,0.471
				s-4.453-1.016-4.38,2.963c0.005,0.289,0.056,0.693,0.241,1.396c0.156,0.592,0.135,0.867-0.462,0.749
				c-0.706-0.14-3.281-0.198-3.963,1.783c-0.683,1.982,0.456,3.339,0.94,3.779c0.484,0.44,0.733,0.954,0.183,1.153
				c-0.55,0.198-3.853,1.189-3.897,3.765c-0.044,2.576,1.343,3.897,2.686,4.954c1.343,1.057,0.594,1.057-0.066,1.299
				c-0.661,0.242-2.466,0.947-2.224,2.884c0.242,1.938,1.915,2.224,1.915,2.224s0.969-0.022,0.462,0.859
				c-0.506,0.881-0.044,1.647-0.044,1.647L40.813,60.671z"/>
		</g>
	</g>
</g>
<g>
	<g>
		<defs>
			
				<ellipse id="Ellipse_891_00000055688276897010911940000014094123114628349621_" cx="449.02" cy="-1993.896" rx="536.198" ry="536.198"/>
		</defs>
		<clipPath id="Ellipse_891_00000157282064924991882410000011982567790402684093_">
			<use xlink:href="#Ellipse_891_00000055688276897010911940000014094123114628349621_"  overflow="visible"/>
		</clipPath>
		<g clip-path="url(#Ellipse_891_00000157282064924991882410000011982567790402684093_)">
			<path fill="#4C7E9E" d="M394.436-612.257 M449.02-448.336c-1.588,18.109-5.714,36.171-7.581,54.255
				c-2.178,21.106-3.152,42.236-5.55,63.317c-1.98,17.402-4.345,34.763-6.724,52.116c-3.019,22.024-6.225,44.023-9.35,66.033
				c-2.89,20.349-5.653,40.716-8.704,61.041c-3.751,24.99-8.141,50.057-12.785,74.885c-5.624,30.066-4.491,60.281-3.972,90.714
				c0.456,26.696,0.504,53.419-0.147,80.109c-0.526,21.545-2.349,43.058-3.623,64.584c-0.697,11.775-1.402,23.55-2.185,35.32
				c-1.388,20.844-3.332,41.734-5.391,62.512c-2.688,27.137-6.284,54.184-9.48,81.27c-2.881,24.419-5.558,48.864-8.681,73.252
				c-2.908,22.716-7.436,45.353-10.408,68.062c-2.448,18.703-4.477,37.46-6.702,56.192c-2.501,21.064-5.103,42.117-7.48,63.196
				c-1.095,9.707-1.711,19.467-2.633,29.195c-0.636,6.705-0.569,13.649-2.45,20.003c-1.215,4.104-4.638,8.694-8.352,10.73
				c-21.067,11.544-43.045,12.558-65.337,3.488c-3.922-1.596-6.583-4.522-6.998-9.152c-1.322-14.76-2.652-29.52-4.21-44.256
				c-1.593-15.068-3.514-30.101-5.193-45.16c-1.68-15.063-3.241-30.139-4.849-45.21c-1.537-14.403-2.996-28.814-4.622-43.207
				c-1.776-15.724-3.676-31.435-5.572-47.145c-1.735-14.375-3.622-28.732-5.288-43.116c-1.705-14.721-3.216-29.465-4.823-44.197
				c-1.789-16.401-3.629-32.797-5.369-49.203c-0.995-9.379-1.825-18.776-2.744-28.163c-1.148-11.727-2.319-23.451-3.465-35.178
				c-0.819-8.381-1.798-16.751-2.373-25.15c-0.92-13.452-1.411-26.934-2.365-40.383c-1.024-14.442-2.372-28.86-3.579-43.289
				c-0.085-1.01-0.222-2.017-0.257-3.028c-0.747-21.579-1.542-43.156-2.205-64.738c-0.746-24.283-0.455-48.642-2.376-72.828
				c-1.247-15.705-5.732-31.143-8.614-46.729c-9.258-50.064-18.616-100.111-27.604-150.224
				c-6.724-37.489-13.178-75.031-19.29-112.624c-4.108-25.269-7.566-50.649-11.024-76.019c-2.82-20.685-5.587-41.39-7.68-62.156
				c-1.993-19.772-2.78-39.663-4.632-59.451c-3.978-42.5-1.51-85.081-1.736-127.619c-0.076-14.399,2.075-28.893,4.151-43.206
				c6.833-47.121,21.882-91.811,41.04-135.222c0.818-1.854,7.582-18.918,9.508-21.25c2.837,0.909,470.322,3.173,576.924,2.47
				c12.915-0.085,7.712,9.296,8.263,11.517c6.803,15.399,12.996,31.11,19.328,46.7c14.943,36.797,23.697,75.328,29.643,114.418
				c2.878,18.925,5.557,37.993,4.969,57.368c-0.634,20.936,0.3,41.92-0.349,62.855c-0.574,18.5-2.28,36.97-3.681,55.439
				c-1.325,17.464-2.627,34.938-4.447,52.354c-1.784,17.08-4.008,34.122-6.4,51.13c-3.002,21.344-6.237,42.658-9.617,63.946
				c-4.81,30.288-9.582,60.585-14.845,90.796c-7,40.179-14.324,80.305-21.762,120.406c-6.211,33.487-12.793,66.905-19.187,100.358
				c-0.442,2.312-0.926,4.655-0.992,6.995c-0.741,26.307-1.131,52.627-2.17,78.922c-0.877,22.214-2.486,44.398-3.763,66.596
				c-0.755,13.123-1.348,26.257-2.281,39.367c-1.051,14.775-2.381,29.53-3.632,44.29c-0.739,8.727-1.499,17.452-2.352,26.168
				c-2.624,26.805-5.284,53.607-7.956,80.407c-2.138,21.447-4.102,42.915-6.536,64.329c-2.205,19.401-5.054,38.727-7.401,58.112
				c-1.7,14.041-2.976,28.132-4.565,42.187c-1.74,15.388-3.711,30.749-5.42,46.14c-1.673,15.062-3.101,30.15-4.711,45.219
				c-1.788,16.736-3.701,33.459-5.479,50.197c-0.961,9.043-2.156,18.091-2.481,27.164c-0.223,6.232-2.586,10.411-8.241,12.582
				c-21.322,8.185-42.362,7.278-62.744-2.934c-6.175-3.094-10.157-7.985-10.728-15.871c-1.456-20.14-3.616-40.235-5.84-60.31
				c-2.151-19.409-4.712-38.773-7.132-58.152c-2.295-18.38-4.581-36.761-6.982-55.127c-2.968-22.708-6.147-45.388-9.055-68.103
				c-2.522-19.705-4.829-39.437-7.159-59.166c-1.58-13.379-2.997-26.777-4.555-40.159c-1.09-9.361-2.479-18.691-3.412-28.067
				c-2.101-21.107-4.192-42.218-5.915-63.358c-1.122-13.77-1.544-27.595-2.358-41.391c-1.211-20.512-2.505-41.019-3.727-61.531
				c-0.181-3.033-0.224-6.078-0.225-9.118c-0.013-38.529-0.34-77.063,0.141-115.587c0.229-18.363-2.445-36.273-5.26-54.271
				c-4.581-29.29-8.895-58.621-13.303-87.938c-3.756-24.983-7.617-49.952-11.181-74.962c-2.565-18.003-4.697-36.066-7.056-54.099
				c-2.446-18.696-5.088-37.367-7.353-56.085c-1.82-15.043-3.23-30.137-4.777-45.212c-1.89-18.418-3.801-36.833-5.571-55.263
				c-0.934-9.723-1.799-19.461-2.318-29.213c-0.913-17.171-5.542-34.358-6.28-51.538c-0.694-16.167-2.439-32.332-3.016-48.502
				c-0.128-3.602-3.308-9.669-3.075-13.839L449.02-448.336 M389.278-615.283"/>
			<path fill="#425D72" d="M255.202,653.578c-0.168-0.088-0.322-0.206-0.448-0.347c-6.63-7.407-4.696-17.015-5.874-25.603
				c-4.448-32.438-8.017-64.995-12.015-97.496c-3.509-28.526-7.078-57.044-10.752-85.549c-3.63-28.17-7.518-56.306-11.114-84.479
				c-2.369-18.561-4.514-37.151-6.595-55.746c-2.712-24.236-5.317-48.483-7.849-72.738c-0.902-8.638-1.627-17.303-2.137-25.972
				c-1.609-27.368-3.261-54.735-4.54-82.119c-0.968-20.717-1.534-41.456-2.017-62.191c-0.648-27.775-0.974-55.557-1.622-83.332
				c-0.1-4.3-0.853-8.654-1.852-12.852c-18.051-75.846-33.492-152.229-46.636-229.065c-7.609-44.478-14.84-89.029-21.452-133.665
				c-3.768-25.44-6.204-51.089-8.782-76.69c-3.283-32.6-6.334-65.218-6.304-98.056c0.016-17.718-1.232-35.435-1.336-53.156
				c-0.42-71.363,16.102-139.093,44.5-204.186c3.985-9.133,8.559-18.008,13.682-27.522c0.373-0.693,1.216-0.989,1.946-0.695
				c2.747,1.105,4.997,2.582,7.035,4.457c0.469,0.432,0.597,1.128,0.346,1.714c-1.968,4.599-3.719,8.698-5.742,13.36
				c-15.367,33.233-27.553,66.813-36.004,101.753c-5.823,24.072-11.442,48.396-11.654,73.055
				c-0.377,43.838-2.507,87.742,1.51,131.565c1.859,20.276,2.331,40.687,4.471,60.927c2.629,24.864,6.18,49.636,9.631,74.406
				c4.005,28.747,7.889,57.523,12.63,86.154c6.76,40.823,14.067,81.559,21.483,122.27c7.778,42.698,15.691,85.376,24.083,127.956
				c4.082,20.71,7.425,41.367,6.501,62.537c-0.329,7.54-0.406,15.09-0.013,22.627c1.141,21.881,2.623,43.744,3.768,65.624
				c0.891,17.024,1.481,34.064,2.21,51.097c0.029,0.669,0.104,1.336,0.165,2.003c1.899,20.928,3.896,41.848,5.669,62.787
				c1.549,18.292,2.781,36.611,4.289,54.907c0.63,7.645,1.589,15.264,2.433,22.891c1.797,16.24,3.649,32.474,5.417,48.716
				c1.589,14.594,2.993,29.209,4.67,43.792c1.675,14.574,3.688,29.11,5.367,43.683c1.604,13.921,2.821,27.886,4.472,41.801
				c2.397,20.198,5.267,40.342,7.498,60.557c2.379,21.553,4.165,43.172,6.368,64.745c1.829,17.914,4.107,35.785,5.712,53.717
				c0.482,5.383,2.555,9.005,7.302,10.92c21.751,8.773,43.219,7.777,63.96-3.01c5.693-2.961,9.674-7.711,9.689-15.233
				c0.015-7.974,1.237-15.955,2.096-23.916c1.824-16.908,3.73-33.807,5.65-50.704c1.582-13.92,3.159-27.841,4.874-41.744
				c1.633-13.239,3.445-26.456,5.169-39.684c1.724-13.228,3.452-26.455,5.15-39.686c2.335-18.196,4.642-36.395,6.96-54.593
				c1.685-13.233,3.378-26.466,5.047-39.702c1.668-13.237,3.513-26.456,4.911-39.722c1.678-15.928,2.869-31.907,4.444-47.847
				c1.771-17.919,4.047-35.794,5.536-53.735c1.684-20.292,2.907-40.627,4.013-60.961c0.944-17.356,1.871-34.733,2.04-52.108
				c0.325-33.521-0.084-67.05,0.208-100.572c0.125-14.35,0.477-28.778,2.091-43.015c2.292-20.208,5.835-40.275,8.864-60.4
				c3.03-20.123,6.141-40.234,9.112-60.366c2.338-15.84,4.528-31.702,6.762-47.558c3.118-22.126,6.245-44.252,9.315-66.385
				c1.878-13.541,3.726-27.086,5.461-40.646c1.609-12.575,3.264-25.151,4.513-37.764c1.645-16.603,2.817-33.253,4.368-49.866
				c1.798-19.259,4.211-38.47,5.569-57.758c1.29-18.334,1.559-36.739,2.288-55.113c0.093-2.341,0.28-4.679,0.37-7.02
				c0.549-14.357,1.11-28.713,1.607-43.072c0.149-4.293-1.794-6.553-6.256-7.562c-7.155-1.619-14.407-3.38-21.124-6.242
				c-10.993-4.684-22.533-8.679-31.012-17.842c0.057,0,0.202-0.001,0.547,0.048c0.13,0.018,0.267,0.022,0.394,0.057
				c6.769,1.887,12.696,4.091,18.802,5.548c12.648,3.019,25.271,6.821,38.127,8.148c22.934,2.368,45.415-0.497,66.661-10.428
				c2.764-1.292,5.685-2.247,8.629-3.155c1.577,2.673,1.34,2.271,2.916,4.944c-16.146,15.666-37.629,19.313-60.157,21.779
				c-0.773,0.085-1.36,0.739-1.361,1.517c-0.028,13.843-0.458,27.086,0.119,40.284c0.801,18.329,2.513,36.616,3.679,54.931
				c0.87,13.668,1.387,27.359,2.268,41.027c0.515,7.989,1.329,15.962,2.194,23.922c1.802,16.572,3.753,33.128,5.596,49.695
				c2.212,19.892,4.172,39.815,6.617,59.678c2.24,18.198,4.962,36.337,7.505,54.497c2.497,17.831,5.003,35.66,7.564,53.482
				c2.8,19.484,5.598,38.969,8.526,58.434c3.672,24.409,7.533,48.79,11.199,73.201c1.783,11.873,4.456,23.756,4.753,35.684
				c1.301,52.216-1.775,104.483,2.016,156.692c1.378,18.979,1.544,38.047,2.272,57.074c0.008,0.219,0.023,0.439,0.044,0.657
				c1.255,13.077,2.708,26.137,3.79,39.228c0.935,11.313,1.403,22.665,2.299,33.982c0.605,7.646,1.543,15.267,2.426,22.889
				c1.765,15.235,3.601,30.462,5.396,45.693c1.639,13.912,3.209,27.832,4.908,41.736c1.659,13.57,3.423,27.127,5.177,40.685
				c2.353,18.19,4.75,36.374,7.11,54.563c1.674,12.899,3.342,25.798,4.968,38.703c1.626,12.906,3.187,25.821,4.792,38.73
				c1.728,13.897,3.662,27.771,5.167,41.692c2.151,19.891,4.41,39.788,5.77,59.74c0.565,8.296,4.803,13.146,11.29,16.324
				c19.951,9.774,40.503,10.563,61.298,2.706c5.512-2.083,8.308-5.9,8.441-12.25c0.182-8.656,1.218-17.309,2.176-25.931
				c2.468-22.202,5.228-44.373,7.621-66.583c2.287-21.227,4.039-42.512,6.433-63.726c2.281-20.208,5.289-40.334,7.614-60.538
				c2.974-25.845,5.596-51.731,8.35-77.601c2.683-25.203,5.349-50.408,8.006-75.614c0.805-7.632,1.573-15.268,2.328-22.905
				c1.869-18.914,3.924-37.813,5.51-56.751c1.087-12.977,1.482-26.01,2.244-39.015c0.644-11,1.4-21.992,2.054-32.991
				c1.308-21.996,2.907-43.981,3.782-65.995c1.036-26.069,1.414-52.165,2.148-78.248c0.065-2.315,0.569-4.633,1.018-6.92
				c6.24-31.786,12.806-63.512,18.686-95.364c6.605-35.773,12.59-71.661,18.858-107.496c5.174-29.582,10.866-59.083,15.42-88.759
				c5.362-34.939,9.993-69.996,14.474-105.061c3.635-28.443,7.235-56.919,9.618-85.483c1.805-21.634,1.989-43.426,2.325-65.157
				c0.601-38.8-0.386-77.367-7.496-115.861c-9.243-50.045-23.838-98.018-46.864-144.132c-0.019-0.038-0.04-0.077-0.062-0.113
				c-1.882-3.177-3.694-5.844-5.188-8.753c-0.387-0.752-0.11-1.681,0.639-2.073c3.157-1.655,6.056-3.049,8.921-4.408
				c0.729-0.346,1.606-0.067,2,0.638c11.878,21.287,20.982,43.809,29.09,66.727c14.447,40.836,23.813,82.822,29.198,125.843
				c3.047,24.349,4.535,48.703,3.384,73.083c-1.733,36.698-4.175,73.385-7.381,109.984c-2.74,31.282-6.308,62.527-10.725,93.616
				c-5.547,39.044-11.724,78.022-18.734,116.829c-9.154,50.672-19.124,101.201-29.268,151.687
				c-5.613,27.934-12.323,55.647-18.42,83.486c-0.994,4.539-1.584,9.162-1.712,13.807c-0.23,8.328,0.059,16.669-0.088,25
				c-0.622,35.147-0.773,70.313-2.162,105.431c-1.267,32.049-3.431,64.083-6.073,96.052c-2.751,33.287-6.218,66.525-9.984,99.714
				c-3.314,29.208-7.525,58.314-11.245,87.477c-4.313,33.815-8.478,67.648-12.791,101.463c-3.72,29.163-7.69,58.295-11.299,87.471
				c-2.379,19.233-4.182,38.537-6.563,57.77c-0.458,3.697-2.302,7.222-4.509,11.579c-0.119,0.235-0.306,0.446-0.526,0.592
				c-3.667,2.445-6.454,4.172-9.952,5.989c-0.154,0.08-0.327,0.135-0.499,0.159c-6.305,0.893-11.796,1.906-17.334,2.379
				c-16.553,1.416-32.456-1.252-47.979-8.679c-0.069-0.033-0.139-0.073-0.202-0.116c-2.473-1.668-4.617-2.869-6.747-4.049
				c-0.206-0.114-0.387-0.273-0.522-0.465c-3.324-4.702-3.987-10.082-4.558-15.717c-2.83-27.91-5.657-55.829-9.134-83.663
				c-3.893-31.167-8.381-62.262-12.798-93.361c-4.323-30.431-9.079-60.801-13.278-91.249c-3.287-23.833-6.232-47.718-8.934-71.624
				c-2.925-25.885-5.815-51.788-7.935-77.747c-1.958-23.974-3.497-48.017-4.111-72.058c-1.026-40.146-1.329-80.314-1.586-120.474
				c-0.081-12.685,0.842-25.383,1.513-38.065c0.984-18.603-3.425-36.558-6.486-54.65c-7.695-45.482-16.03-90.858-23.463-136.382
				c-6.299-38.581-11.961-77.272-17.383-115.988c-2.871-20.504-4.904-41.138-6.824-61.76c-2.384-25.611-4.253-51.27-6.393-76.904
				c-0.019-0.231-0.081-0.458-0.174-0.698c-0.502-1.296-2.449-1.351-2.851-0.02c-0.024,0.08-0.04,0.159-0.046,0.239
				c-1.629,20.656-2.788,41.358-4.847,61.97c-2.688,26.911-5.704,53.801-9.261,80.61c-4.484,33.792-9.194,67.567-14.646,101.213
				c-7.271,44.874-15.369,89.614-23.07,134.418c-2.945,17.13-6.119,34.232-8.495,51.442c-0.999,7.236-0.413,14.727-0.173,22.089
				c0.502,15.367,1.721,30.723,1.803,46.088c0.166,30.828,0.404,61.68-0.593,92.483c-0.853,26.352-3.298,52.657-5.213,78.97
				c-1.237,16.99-2.437,33.995-4.281,50.925c-2.892,26.563-6.078,53.099-9.571,79.59c-4.019,30.479-8.482,60.899-12.801,91.338
				c-3.615,25.475-7.442,50.92-10.911,76.414c-3.288,24.166-6.437,48.355-9.263,72.578c-2.322,19.904-3.991,39.884-6.194,59.804
				c-0.304,2.752-1.935,5.357-3.935,8.845c-0.09,0.158-0.215,0.306-0.354,0.422c-3.022,2.515-5.155,4.243-7.946,6.076
				c-0.107,0.07-0.228,0.129-0.349,0.171c-5.996,2.056-11.151,4.454-16.568,5.788c-16.108,3.968-32.28,3.025-48.804-0.795
				c-0.157-0.036-0.312-0.1-0.451-0.183C260.975,656.615,258.083,655.091,255.202,653.578z"/>
		</g>
	</g>
</g>
</svg>
