<?xml version="1.0" encoding="UTF-8"?>
<svg id="Layer_2" data-name="Layer 2" xmlns="http://www.w3.org/2000/svg" xmlns:xlink="http://www.w3.org/1999/xlink" viewBox="0 0 138.892 138.892">
  <defs>
    <clipPath id="clippath">
      <circle id="Ellipse_891-2" data-name="Ellipse 891" cx="69.446" cy="69.446" r="69.446" fill="none"/>
    </clipPath>
  </defs>
  <g id="Layer_1-2" data-name="Layer 1">
    <g>
      <circle id="Ellipse_891" data-name="Ellipse 891" cx="69.446" cy="69.446" r="69.446" fill="#f2f2f2"/>
      <g clip-path="url(#clippath)" fill="none">
        <g>
          <path d="m94.396,49.746c2.129-.278,4.729.624,5.342,2.335.322.898.767,2.717.89,3.666.461,3.552-.188,7.009-1.257,10.371-.627,1.972-1.79,4.577-3.373,5.971-.703.619-3.146,1.205-4.222,1.015-.1-.653-.3-1.797-.367-2.429-.105-.995-1.073-.991-1.1-1.99-.048-1.801.574-7.979,1.624-9.376.675-.897,1.937-7.022,2.462-9.563Z" fill="#6a4136"/>
          <polygon points="49.904 50.019 43.692 50.019 40.504 50.6 38.289 53.995 38.505 58.994 39.046 64.281 40.72 68.603 42.341 71.034 44.664 72.709 48.554 73.104 49.256 58.299 49.904 50.019" fill="#6e4539"/>
          <path d="m86.895,93.915c.081,1.93.008,8.154.153,10.079.203,2.706,6.08,2.842,8.196,3.309-.244,2.442-1.944,5.637-2.897,7.884-.572,1.347-1.264,2.661-2.044,3.899-1.951,3.096-4.615,5.475-7.761,7.311-3.078,1.796-6.402,2.798-9.953,3.198-5.747.646-11.167-.308-16.185-3.172-3.748-2.139-6.748-5.081-8.782-8.943-1.434-2.722-2.395-5.599-2.947-8.62-.032-.176-.641-2.402-.693-2.661,1.923-.474,5.66-.244,7.586-.627.168-.033,1.167-9.252,1.324-11.657.474.263,33.863.011,34.005,0Z" fill="#6f4539"/>
          <path d="m91.881,68.05c.215,1.848.431,4.024.544,5.881.113,1.86.032,5.455,0,7.316-.065,3.769-1.283,6.685-3.026,10.08-1.7,3.313-4.217,5.677-7.676,7.033-2.648,1.038-5.389,1.712-8.218,2.03-1.03.116-2.054.362-3.084.382-1.249.025-2.512-.051-3.751-.217-2.736-.366-5.436-.908-8.05-1.837-2.406-.856-5.61-2.615-7.33-4.552-1.426-1.606-2.486-3.438-3.266-5.416-1.089-2.761-1.642-5.634-1.562-8.621.045-1.653-.038-3.31.03-4.961.069-1.679.297-3.35.378-5.029.117-2.432.525-4.837.295-7.39.533-1.161.382-2.543.383-3.639.002-1.542.616-3.085.632-4.626.032-2.944.046-5.894.244-8.829.191-2.822-.128-6.965.636-9.711.104-.375.845-3.039,3.401-3.775,2.263.766,23.65,2.995,34.246-1.15.095-.037,3.058,3.469,3.309,3.425.121.773.815,5.378.847,6.141.167,3.909.353,7.818.412,11.73.039,2.583,1.723,5.917,1.64,8.501-.023.715-.457,1.765-.49,2.573,0,0-.784,2.6-.544,4.663Z" fill="#6e4539"/>
          <path d="m86.388,98.177c-.22.127-.804.077-1.09.311-.723.592-1.587,1.031-2.057,1.907-.183.34-.424.672-.709.931-1.11,1.014-2.134,1.789-3.376,2.7-1.506,1.104-3.668,1.911-5.204,2.333-1.4.385-2.866.623-4.315.704-.935.052-1.892-.297-2.839-.469-3.009.097-3.526-.753-4.825-1.516-1.016-.597-2.032-1.193-3.046-1.794-1.376-.815-2.432-1.948-3.288-3.286-.308-.481-2.27-1.482-2.564-1.97,0,0,.069-1.014.075-1.358,3.309,1.836,8.232,3.475,11.95,4.094,1.441.24,2.908.356,4.368.429.849.042,1.714-.069,2.561-.186,3.333-.46,6.664-.954,9.777-2.328,1.112-.491,2.181-1.082,3.271-1.624.216-.108.828-.201,1.188-.364.023.461.113,1.059.124,1.487Z" fill="#633b30"/>
          <g>
            <path d="m30.485,254.226c-.664-.188-1.328-.375-2.075-.557-3.014-.897-5.944-1.806-8.869-3.111-.086-.039-.136-.131-.121-.225.177-1.082.354-2.149.524-3.217.563-3.538,1.182-7.069,1.666-10.619.489-3.582.861-7.181,1.244-10.777.156-1.46.224-2.931.296-4.399.147-3.008.331-6.015.387-9.025.061-3.341.007-6.685-.021-10.027-.009-1.002-.1-2.003-.162-3.205-.033-2.203-.058-4.206-.07-6.302,0-.006,0-.013,0-.019-.042-.476-.133-.859-.141-1.245-.087-4.319-.161-8.638-.24-12.957-.004-.214-.025-.428-.027-.739-.072-2.027-.154-3.961-.236-5.891-.004-.099-.079-.182-.178-.197-1.624-.24-3.16-.449-4.688-.702-4.475-.739-8.771-2.05-12.857-4.036-.444-.216-.921-.366-1.426-.604-.005-.002-.01-.005-.015-.008-.52-.295-.997-.533-1.474-.771-.009-.004-.017-.009-.025-.015-2.125-1.459-4.254-2.913-6.373-4.382-.341-.237-.651-.518-1.005-.814-.073-.061-.096-.164-.055-.25.117-.241.22-.482.369-.691,3.209-4.484,5.315-9.511,7.183-14.649,2.146-5.902,4.207-11.836,6.387-17.726,1.06-2.864,2.363-5.634,4.109-8.159,2.636-3.813,6.114-6.44,10.737-7.346,1.583-.31,3.187-.507,4.805-.182.988.198,1.844-.044,2.752-.541,2.906-1.589,6.003-2.749,9.176-3.691,1.272-.378,2.563-.69,3.918-.949.11-.021.219.05.243.16.14.647.219,1.232.3,1.888,0,.006.002.013.003.019.052.254.116.421.148.595.552,3.021,1.514,5.899,2.947,8.62,2.034,3.862,5.034,6.804,8.782,8.943,5.018,2.864,10.438,3.818,16.185,3.172,3.551-.399,6.875-1.401,9.953-3.198,3.146-1.836,5.81-4.215,7.761-7.311.781-1.239,1.472-2.552,2.044-3.899.954-2.247,1.666-4.58,2.015-7.097.093-.634.168-1.203.241-1.764.016-.121.132-.203.251-.177,4.681,1.03,9.196,2.545,13.429,4.811.868.465,1.687.543,2.581.417,2.936-.413,5.716.137,8.378,1.359,3.779,1.735,6.409,4.653,8.397,8.229,2.032,3.657,3.514,7.55,4.92,11.472,1.745,4.867,3.399,9.766,5.162,14.626,1.289,3.553,2.975,6.93,4.849,10.21.355.622.8,1.193,1.195,1.793.221.336.431.679.661,1.048.056.089.037.206-.045.273-2.333,1.898-4.713,3.582-7.36,5.119-.564.289-1.001.518-1.509.774-5.973,3.142-12.326,4.705-18.926,5.403-.089.009-.163.075-.182.162-.427,1.998-.168,3.933-.241,5.948-.074,1.601-.166,3.101-.203,4.602-.087,3.473-.147,6.947-.223,10.52-.068,1.422-.135,2.744-.19,4.066-.012.285.027.571.03.857.003.419-.006.838-.01,1.257-.76,17.213.736,34.248,4.05,51.195.018.094-.03.189-.117.229-2.84,1.314-5.801,2.216-8.832,3.146-.004.001-.009.003-.013.004-.699.165-1.322.315-2.098.52-.474.11-.798.139-1.111.218-7.117,1.797-14.337,2.993-21.649,3.604-3.864.323-7.733.646-11.606.765-3.554.11-7.116-.047-10.674-.099-4.89-.071-9.761-.445-14.601-1.118-3.873-.539-7.735-1.174-11.586-1.854-2.296-.405-4.563-.98-6.843-1.478m-8.249-100.27c0-.576.01-1.151-.005-1.726-.053-2.081-.129-4.162-.157-6.243-.004-.304.141-.61.244-.916.027-.08.101-.134.185-.138h.003c.083-.004.159.042.197.116.149.29.341.575.382.88.249,1.845.498,3.693.655,5.548.194,2.286.323,4.578.434,6.87.105,2.187.174,4.376.218,6.566.094,4.671.163,9.342.238,14.013.016,1.007-.011,2.015.025,3.021.037,1.038.121,2.076.196,3.112.135,1.856.306,3.709.41,5.566.104,1.863.148,3.729.212,5.594.081,2.368.225,4.736.217,7.104-.017,4.851-.103,9.701-.192,14.551-.032,1.755-.143,3.51-.24,5.263-.048.874-.117,1.747-.212,2.617-.266,2.442-.549,4.883-.833,7.323-.228,1.956-.416,3.919-.713,5.866-.485,3.186-1.031,6.362-1.585,9.537-.085.487.026.762.467.927.336.126.673.25,1.012.37,3.998,1.416,8.058,2.625,12.219,3.452,3.513.698,7.033,1.378,10.573,1.91,2.866.431,5.763.661,8.652.923,2.711.246,5.427.538,8.145.594,5.713.117,11.43.12,17.141-.19.108-.006.215-.012.323-.022,2.103-.2,4.207-.395,6.309-.604,1.533-.152,3.072-.265,4.593-.497,2.867-.438,5.724-.938,8.582-1.432,5.173-.896,10.231-2.237,15.19-3.954.594-.206,1.168-.469,1.79-.729.082-.034.133-.117.128-.206-.024-.377-.032-.724-.088-1.063-.174-1.06-.405-2.111-.559-3.174-.532-3.685-1.073-7.37-1.548-11.063-.393-3.053-.731-6.115-1.031-9.178-.203-2.068-.324-4.145-.431-6.221-.108-2.079-.214-4.161-.212-6.242.003-2.908.095-5.817.171-8.724.051-1.973.144-3.945.212-5.918.076-2.188.145-4.377.217-6.566.072-2.188.15-4.376.214-6.565.078-2.656.15-5.313.216-7.969.076-3.052.101-6.106.229-9.156.104-2.455-.083-4.896.339-7.375.485-2.844.331-5.792.542-8.689.132-1.819.417-3.628.652-5.439.034-.262.084-.557.463-.665.116-.033.235.048.255.167.056.331.126.663.128.996.011,2.66,0,5.321-.015,8.167,0,.004,0,.007,0,.011-.298,4.946-.461,9.895-.414,14.821,0,.089.058.167.142.196.812.28,1.5-.004,2.189-.098.88-.121,1.753-.289,2.803-.441,2.611-.503,5.175-1.178,7.684-2.068,4.274-1.516,8.134-3.779,11.761-6.466.552-.409.544-.517.183-1.161-.806-1.442-1.656-2.863-2.399-4.337-1.847-3.662-3.318-7.481-4.676-11.348-1.773-5.049-3.542-10.1-5.413-15.112-1.106-2.962-2.427-5.84-4.256-8.451-2.77-3.953-6.548-6.139-11.367-6.495-.279-.021-.563.036-.898.089-.146.023-.223.189-.145.315.731,1.183,1.87,1.942,2.346,3.158.069.177-.112.35-.283.266-1.086-.533-1.911-1.434-2.926-2.048-1.197-.725-2.373-1.491-3.603-2.157-1.198-.649-2.429-1.249-3.688-1.769-1.293-.534-2.63-.964-3.959-1.405-1.206-.399-2.425-.758-3.546-1.103-.111-.034-.227.03-.26.141-.673,2.298-1.233,4.492-1.979,6.621-.993,2.836-2.467,5.435-4.499,7.668-2.494,2.741-5.417,4.893-8.829,6.405-3.438,1.524-7.038,2.198-10.759,2.329-2.121.074-4.217-.217-6.302-.61-4.488-.845-8.427-2.831-11.875-5.779-3.946-3.374-6.421-7.683-7.767-12.664-.355-1.312-.655-2.638-.989-4.006-.026-.108-.133-.176-.242-.155-.187.036-.366.069-.538.123-1.713.539-3.435,1.051-5.131,1.639-2.691.934-5.256,2.141-7.626,3.735-1.34.901-2.665,1.825-3.997,2.738-.252.173-.485.398-.889.418-.155.008-.267-.152-.202-.293.616-1.349,1.96-2.039,2.688-3.185.051-.08.039-.188-.029-.254-.372-.358-.82-.217-1.221-.211-.318.005-.633.134-.953.157-3.397.243-6.183,1.806-8.544,4.128-1.486,1.462-2.632,3.215-3.585,5.087-1.847,3.627-3.278,7.425-4.644,11.247-1.572,4.397-3.058,8.824-4.652,13.213-1.499,4.128-3.36,8.092-5.671,11.836-.121.196-.214.408-.328.646-.043.09-.014.199.067.258.48.346.929.667,1.373.993,2.061,1.513,4.236,2.851,6.524,3.982,2.482,1.227,5.076,2.197,7.753,2.915,1.415.38,2.86.649,4.463,1.003,1.567.285,3.127.657,4.846.555.112-.007.198-.103.194-.215-.169-5.1-.334-10.081-.486-15.254Z" fill="#b4433d"/>
            <path d="m17.51,168.834c-1.431-.319-2.876-.588-4.291-.967-2.677-.718-5.271-1.688-7.753-2.915-2.288-1.131-4.462-2.469-6.524-3.982-.444-.326-.893-.647-1.373-.993-.081-.059-.11-.168-.067-.258.114-.238.207-.451.328-.646,2.311-3.744,4.172-7.708,5.671-11.836,1.594-4.389,3.08-8.816,4.652-13.213,1.367-3.822,2.798-7.62,4.644-11.247.953-1.872,2.1-3.626,3.585-5.087,2.36-2.322,5.147-3.886,8.544-4.128.32-.023.635-.151.953-.157.401-.007.849-.147,1.221.211.068.066.08.174.029.254-.729,1.146-2.072,1.836-2.688,3.185-.065.141.047.301.202.293.404-.02.638-.245.889-.418,1.332-.913,2.657-1.837,3.997-2.738,2.37-1.594,4.936-2.801,7.626-3.735,1.696-.589,3.418-1.1,5.131-1.639.172-.054.351-.087.538-.123.109-.021.216.047.242.155.334,1.369.635,2.695.989,4.006,1.346,4.981,3.821,9.29,7.767,12.664,3.448,2.948,7.387,4.933,11.875,5.779,2.085.393,4.181.684,6.302.61,3.72-.13,7.32-.805,10.759-2.329,3.412-1.512,6.335-3.664,8.829-6.405,2.032-2.233,3.506-4.832,4.499-7.668.745-2.129,1.305-4.323,1.979-6.621.033-.111.149-.175.26-.141,1.122.345,2.341.703,3.546,1.103,1.329.44,2.667.871,3.959,1.405,1.259.52,2.49,1.12,3.688,1.769,1.23.666,2.406,1.431,3.603,2.157,1.014.614,1.84,1.516,2.926,2.048.171.084.352-.089.283-.266-.476-1.216-1.615-1.976-2.346-3.158-.078-.126-.001-.292.145-.315.335-.052.62-.109.898-.089,4.819.356,8.597,2.542,11.367,6.495,1.83,2.611,3.15,5.489,4.256,8.451,1.872,5.012,3.64,10.063,5.413,15.112,1.358,3.867,2.829,7.687,4.676,11.348.744,1.474,1.593,2.895,2.399,4.337.36.644.369.752-.183,1.161-3.627,2.687-7.487,4.95-11.761,6.466-6.293,2.369-12.282,3.091-12.571,2.634-.054-.086-.221-.039-.231-.14-.237-2.242.039-3.228.031-6.331-.016-3.03.112-3.509.21-5.721-.011-2.36.168-3.555.17-4.544.004-2.888.012-3.852.001-6.486-.001-.333-.072-.665-.128-.996-.02-.119-.139-.2-.255-.167-.38.108-.429.402-.463.665-.235,1.811-.52,3.619-.652,5.439-.211,2.897-.057,5.845-.542,8.689-.423,2.479-.236,4.92-.339,7.375-.129,3.05-.153,6.104-.229,9.156-.066,2.656-.138,5.313-.216,7.969-.064,2.188-.142,4.376-.214,6.565-.072,2.189-.142,4.377-.217,6.566-.068,1.973-.161,3.945-.212,5.918-.076,2.908-.168,5.816-.171,8.724-.002,2.081.104,4.163.212,6.242.108,2.076.229,4.153.431,6.221.3,3.064.638,6.125,1.031,9.178.475,3.693,1.016,7.378,1.548,11.063.153,1.063.384,2.114.559,3.174.056.339.064.686.088,1.063.006.089-.046.172-.128.206-.622.259-1.196.523-1.79.729-4.959,1.717-10.017,3.058-15.19,3.954-2.858.495-5.715.995-8.582,1.432-1.521.232-3.061.345-4.593.497-2.102.209-4.206.404-6.309.604-.107.01-.215.017-.323.022-5.711.309-11.427.307-17.141.19-2.718-.056-5.434-.348-8.145-.594-2.889-.262-5.786-.492-8.652-.923-3.54-.532-7.06-1.212-10.573-1.91-4.161-.827-8.221-2.036-12.219-3.452-.338-.12-.675-.244-1.012-.37-.44-.165-.551-.44-.467-.927.553-3.175,1.1-6.351,1.585-9.537.296-1.946.485-3.909.713-5.866.284-2.44.567-4.881.833-7.323.095-.87.164-1.743.212-2.617.097-1.754.208-3.508.24-5.263.089-4.85.175-9.701.192-14.551.008-2.368-.136-4.736-.217-7.104-.064-1.865-.108-3.731-.212-5.594-.104-1.857-.275-3.711-.41-5.566-.075-1.037-.159-2.074-.196-3.112-.036-1.006-.009-2.014-.025-3.021-.075-4.671-.144-9.342-.238-14.013-.044-2.189-.112-4.379-.218-6.566-.11-2.292-.24-4.584-.434-6.87-.157-1.855-.405-3.702-.655-5.548-.041-.305-.233-.59-.382-.88-.038-.074-.114-.12-.197-.116h-.003c-.084.004-.158.059-.185.138-.103.305-.249.611-.244.916.028,2.081.104,4.162.157,6.243.015.575.032,5.01.213,8.327.199,3.651.406,7.674.311,8.682-.01.102-.091.18-.193.188-.542.038-2.379.095-5.052-.591Z" fill="#f87360"/>
          </g>
          <path d="m74.116,47.329c-.733.213-1.379.408-2.095.625-.048-.271-.114-.469-.113-.667.003-1.331.046-2.662.023-3.991-.01-.608.247-.922.794-1.108,3.774-1.285,7.473-1.267,11.065.621,1.167.613,2.113,1.483,2.853,2.572.12.177.273.371.292.569.109,1.128.181,2.26.284,3.63-4.109-2.901-8.455-3.263-13.103-2.249m10.503-3.136c-.937-.437-1.843-.965-2.817-1.29-1.788-.595-3.662-.675-5.524-.516-.915.078-1.814.373-2.709.614-.207.056-.507.281-.523.449-.088.979-.134,1.966.023,3.066,2.341-.577,4.568-.851,6.826-.698,2.281.155,4.308,1.14,6.38,2.165.223-1.26.21-2.283-.836-3.025-.26-.185-.467-.444-.821-.766Z" fill="#0d0a08"/>
          <path d="m55.002,42.92c2.463-1.395,5.032-1.887,7.746-1.483,1.2.179,2.381.493,3.565.77.367.086.625.293.637.746.04,1.47.115,2.94.166,4.41.006.167-.057.336-.104.592-5.232-1.723-10.266-1.747-14.971,1.431-.538-1.385-.219-3.585.769-4.618.639-.668,1.411-1.209,2.191-1.849m-1.555,2.03c-.933.844-1.176,1.869-.846,3.14.252-.13.444-.213.62-.323,1.797-1.122,3.773-1.758,5.862-1.928,1.929-.157,3.865-.058,5.759.446.355.094.731.104,1.23.171,0-.824.004-1.499,0-2.173-.008-1.144-.044-1.177-1.118-1.472-2.255-.62-4.54-.648-6.807-.186-1.693.345-3.297.983-4.7,2.326Z" fill="#0d0a08"/>
          <path d="m75.315,86.321c-1.635,1.869-3.533,1.787-5.601,1.019-.048-.018-.064-.079-.033-.118.257-.322.615-.185.901-.178.877.019,1.712-.128,2.513-.484,1.119-.497,1.963-1.302,2.602-2.334l.002-.004c.109-.176.373-.142.438.054.144.439-.033.752-.822,2.045Z" fill="#42231b"/>
          <path d="m88.739,27.683c-.094-.025-.184-.054-.275-.083.077-.005.153-.01.258.027.028.043.021.052.017.056Z" fill="#090706"/>
          <path d="m84.679,44.241c.292.274.5.533.76.718,1.046.742,1.059,1.765.836,3.025-2.072-1.024-4.099-2.01-6.38-2.165-2.258-.153-4.486.121-6.826.698-.157-1.1-.111-2.087-.023-3.066.015-.169.315-.394.523-.449.894-.241,1.794-.536,2.709-.614,1.862-.159,3.736-.08,5.524.516.974.324,1.88.853,2.878,1.338Z" fill="#262b31"/>
          <path d="m53.503,44.894c1.347-1.287,2.951-1.924,4.644-2.27,2.267-.462,4.552-.434,6.807.186,1.074.295,1.11.328,1.118,1.472.004.674,0,1.349,0,2.173-.499-.066-.876-.076-1.23-.171-1.894-.504-3.83-.603-5.759-.446-2.089.17-4.065.806-5.862,1.928-.175.109-.367.192-.62.323-.33-1.27-.088-2.296.902-3.196Z" fill="#262b31"/>
          <path d="m55.571,56.161c-.659-1.03-.527-2.154-.507-3.313.058-.244.047-.445.14-.57.877-1.18,2.037-1.918,3.466-2.296,2.383-.63,5.559-.061,6.794,2.385.452,1.288.02,2.433-.252,3.65-.793,1.197-1.915,1.785-3.186,2.09-2.21.53-4.167-.025-5.9-1.477m7.487-3.653c-.563-.972-1.416-1.436-2.518-1.264-1.002.156-1.692.76-1.944,1.774-.281,1.13.092,2.025,1.041,2.68.435.3.906.526,1.458.404,1.764-.389,2.526-1.684,1.964-3.595Z" fill="#f5f7f7"/>
          <g>
            <path d="m65.503,54.884c-.006-.012-.003-.056-.001-.087.021-.284.335-1.353-.3-2.684-1.062-2.225-4.271-2.727-6.533-2.13-1.124.297-2.035.784-2.837,1.579-.488.484-.767,1.141-.759,1.828.011,1.005.082,1.788.758,2.885-.011.013-.312.182-.394.117-.064-.05-.461-1.063-.488-1.192-.15-.71-.224-2.047-.224-2.047-.073-2.041.943-3.331,2.517-4.07,2.356-1.106,4.719-1.127,6.916.453.775.557,1.392,1.221,1.602,2.584.321,2.078-.049,2.686-.101,2.828-.067.024-.128-.014-.156-.065Z" fill="#090706"/>
            <path d="m55.437,56.393c.213-.227.275-.312.394-.117.067.11.209.284.294.355,1.733,1.452,3.69,2.007,5.9,1.477,1.065-.256,1.997-.713,2.763-1.558.147-.163.477-.653.724-1.834.043-.027.272-.177.252-.044-.021.14-.087.45-.126.628-.107.488-.325,1.006-.386,1.168-.054.142-.142.295-.25.434-2.482,3.184-7.614,2.511-9.343-.173-.058-.09-.124-.175-.223-.335Z" fill="#0f0d0c"/>
          </g>
          <path d="m63.649,53.054c.527,1.835-.235,3.13-1.999,3.519-.551.121-1.022-.104-1.458-.404-.95-.655-1.322-1.551-1.041-2.68.252-1.014.943-1.618,1.944-1.774,1.102-.172,1.955.292,2.554,1.34m-.996.568c.088-.363.126-.771-.319-.859-.299-.059-.722.017-.937.206-.133.117-.082.632.066.839.258.36.666.321,1.025.054.028-.021.051-.048.165-.24Z" fill="#090706"/>
          <path d="m73.88,56.378c-.19-.689-.474-1.358-.578-2.054-.219-1.472.314-2.667,1.531-3.551,2.478-1.8,6.505-1.073,8.327.799,1.143,1.175,1.094,3.582-.103,4.82-2.484,2.57-6.923,2.517-9.1-.012-.07-.018-.089.005-.076-.003m6.004-2.61c-.108-.302-.176-.627-.331-.903-.529-.945-1.65-1.394-2.68-1.108-1.117.311-1.812,1.245-1.783,2.397.029,1.15.798,2.028,1.914,2.292,1.186.28,2.967-.594,2.879-2.678Z" fill="#f5f7f7"/>
          <path d="m62.608,53.706c-.069.108-.093.135-.121.156-.359.267-.767.306-1.025-.054-.148-.207-.199-.722-.066-.839.215-.189.638-.265.937-.206.445.088.407.496.275.942Z" fill="#dde6e6"/>
          <path d="m79.889,53.855c.082,1.998-1.699,2.871-2.885,2.591-1.115-.263-1.885-1.142-1.914-2.292-.029-1.152.665-2.086,1.783-2.397,1.03-.286,2.151.163,2.68,1.108.155.276.223.6.337.99m-1.504.284c.057-.041.134-.071.169-.126.345-.546.307-.922-.109-1.176-.358-.218-.791-.103-1.01.268-.249.42-.08.817.479,1.085.086.041.209.006.471-.051Z" fill="#0d0a08"/>
          <path d="m78.307,54.168c-.184.028-.307.064-.393.022-.559-.268-.728-.665-.479-1.085.219-.371.652-.486,1.01-.268.416.254.454.63.109,1.176-.035.056-.112.085-.247.155Z" fill="#dde6e6"/>
          <g>
            <path d="m73.266,54.917c-.052-.142-.422-.75-.101-2.828.21-1.363.827-2.026,1.602-2.584,2.197-1.58,4.56-1.559,6.916-.453,1.575.739,2.591,2.029,2.517,4.07,0,0-.074,1.336-.224,2.047-.027.129-.424,1.141-.488,1.192-.083.065-.383-.104-.394-.117.676-1.097.747-1.88.758-2.885.008-.687-.271-1.344-.759-1.828-.801-.795-1.713-1.282-2.837-1.579-2.261-.597-5.471-.095-6.533,2.13-.635,1.331-.321,2.4-.3,2.684.002.03.005.075-.001.087-.028.052-.089.089-.156.065Z" fill="#090706"/>
            <path d="m83.265,56.695c-1.729,2.684-6.861,3.357-9.343.173-.108-.138-.196-.291-.25-.434-.061-.162-.279-.68-.386-1.168-.039-.177-.105-.487-.126-.628-.02-.133.209.017.252.044.247,1.181.577,1.672.724,1.834.765.845,1.697,1.302,2.763,1.558,2.21.53,4.167-.025,5.9-1.477.086-.072.227-.246.294-.355.119-.195.182-.11.394.117-.099.16-.165.245-.223.335Z" fill="#0f0d0c"/>
          </g>
          <path d="m80.666,77.628c-.041-.52-.102-1.505-1.014-2.445-.345-.344-.676-.701-1.096-1.146-.096-.102-.01-.269.129-.251,1.096.147,1.727.731,2.237,1.445,1.361,1.906,1.436,5.723-.169,7.641-.064.077-.151.134-.294.23-.11.074-.255-.021-.23-.151.114-.596.212-1.052.268-1.513.149-1.239.321-1.875.17-3.81Z" fill="#42241b"/>
          <path d="m58.402,77.834c-.06.428-.183,1.351-.1,1.887.148.957.474,1.765.688,2.713.03.134.046.271.062.422.014.135-.143.217-.248.131-1.51-1.227-2.126-3.634-1.39-5.89.439-1.347,1.018-2.687,2.526-3.16.13-.041.248.094.182.214-.331.607-.93,1.413-1.286,2.166-.324.684-.411,1.366-.432,1.516Z" fill="#42241b"/>
          <path d="m64.697,59.159c.277-.328.5-.602.739-.895.419,2.042-2.78,4.338-5.499,3.818.948-.45,1.798-.772,2.559-1.239.762-.468,1.435-1.081,2.201-1.684Z" fill="#42241b"/>
          <path d="m73.369,58.845c-.066-.209-.119-.347-.128-.488-.006-.089.053-.182.108-.353,1.358,2.112,3.368,3.203,5.633,3.982-1.796.807-4.408-.654-5.613-3.141Z" fill="#42241b"/>
          <path d="m76.69,78.719c-.883.809-2.06.921-3.166,1.116-1.475.261-2.987.419-4.484.429-2.159.015-4.283-.334-6.354-1.212.33-.128.708-.248,1.087-.25,3.504-.016,7.009-.003,10.514-.018.782-.003,1.563-.081,2.404-.066Z" fill="#4e2d24"/>
          <path d="m62.71,71.235c.102-.437.15-.807.313-1.117.689-1.31,1.371-1.587,2.501-1.265-1.43.375-2.181,1.118-2.117,2.288.061,1.113.48,2.146,1.437,2.788.583.392,1.275.748,1.957.843,4.056.569,7.558-.854,9.535-4.779.398-.789.401-1.525-.17-2.224-.365-.446-.716-.907-1.119-1.318-1.268-1.296-2.402-2.702-3.316-4.262-.888-1.515-1.325-3.183-1.422-4.943-.106-1.906.226-3.738.879-5.519.144-.394.349-.765.518-1.129.616.109.484.42.394.75-.257.938-.534,1.872-.73,2.824-.657,3.198.079,6.091,2.046,8.666.611.8,1.341,1.509,2.012,2.264.575.647,1.149,1.295,1.714,1.95,1.105,1.281.793,2.631.082,3.922-1.945,3.53-5.829,5.55-9.891,5.149-1.074-.106-2.132-.411-3.019-1.097-1.211-.936-1.76-2.165-1.604-3.791Z" fill="#42241b"/>
          <path d="m61.195,78.041c1.319.849,2.761,1.163,4.179,1.498,2.175.514,4.404.587,6.62.431,1.821-.128,3.607-.525,5.215-1.617.86-.56,1.693-1.045,2.51-1.554.349-.217.667-.485,1.135-.831.011.698-.313.982-.598,1.281-1.795,1.88-4.008,3.026-6.526,3.537-3.691.749-7.344.643-10.899-.758-1.592-.627-2.98-1.568-4.247-2.698-.258-.23-.528-.492-.377-1.028.999.592,1.956,1.159,2.988,1.739Z" fill="#090706"/>
          <path d="m43.378,41.734l4.214,15.056,1.27-8.095.282-6.96.761-7.916,2.557-1.651,10.224,1.753,14.006-.307,10.406-1.85,2.35,2.156,1.362,16.411s.263,5.876,1.016,6.077c1.432.382,3.381-10.012,3.381-10.012l1.534-5.564-.567-2.86-2.961-.788,1.573-6.977-.079-4.477-4.045-2.653-3.441.553-2.151.566-.087-2.097-.995-2.027h-3.463l-2.363,1.631-2.049-3.099-2.858-1.849-4.545-.458-3.049,1.258-3.321,2.37-3.28-1.811-4.019.21-3.598,2.097-1.049,3.775-3.124.07-1.909,2.027.489,2.517-2.471,2.21-.535,2.824v4.507l.535,3.386Z" fill="#262b31"/>
          <path d="m93.414,24.089c.208.185.877.816,1.291,1.639.473.941.683,2.076.683,2.076.039.21.071.419.099.628.284,2.183-.036,4.326-.566,6.456-.043.171-.456,1.133-.474,1.184-.227.66-.181.664.454.713.031.01.603-.017,1.013.221.243.141.794.523,1.116,1.053.3.492.415,1.25.426,1.295.198.812-.104,1.725-.243,2.505-.151.847-1.447,5.443-2.047,7.611-.177.64-.666,3.463-.864,4.629-.291,1.706-.95,3.178-1.168,4.896-.03.239-.096,1.133-.217,1.593,0,0,0,1.152-.362,1.96-.155.345-1.398.463-1.525.106-.031-.087-.062-.174-.098-.259-.127-.304.016-2.433.016-3.268,0-2.045-.042-2.219-.205-3.145-.377-2.141-.696-4.288-.915-6.454-.259-2.561-.482-5.122-.622-7.693-.105-1.921-.191-3.842-.238-5.765-.026-1.04-.374-1.995-1.08-2.776-.441-.488-.971-.895-1.691-.726-1.198.281-2.386.603-3.581.901-3.599.896-7.261,1.393-10.958,1.552-2.244.096-4.493.064-6.745-.14-2.601-.235-5.182-.572-7.749-1.033-1.176-.211-2.341-.487-3.515-.707-.568-.106-1.146-.215-1.612.325-.997,1.156-1.766,2.462-1.822,3.989-.124,3.372-.295,6.736-.671,10.091-.222,1.981-.512,3.949-.795,5.921-.237,1.648-.33,7.41-.532,8.262-.07.294-.119.592-.235.927-.068.197-.776.105-.734-.099.163-.796-.829-8.497-1.166-10.096-.413-1.956-1.201-4.525-1.325-4.633h0c-.619-1.95-1.325-3.871-1.975-5.81-.399-1.19-.729-2.364-1.043-3.553-.086-.325-.434-.993.086-2.409.175-.477.736-.63.738-.785.002-.164-.49-.355-.691-.693-.718-1.206-.64-2.395-.026-3.65.987-2.019,2.865-1.529,3.184-2.27.189-.439-.038-.63-.165-.832-.362-.578-.52-1.567-.133-2.425.319-.707,1.054-1.288,1.416-1.531.46-.309,1.223-.392,1.833-.388.421-.032.854.074,1.276.053.321-.016.6-.208.733-.49.027-.057.105-.493.099-1.079-.1-1.444.594-2.133,1.15-2.735,1.002-1.085,2.863-1.741,3.96-2.051.6-.17,2.008-.426,3.456-.2.892.139,2.274.865,3.203,1.665.581.5.574.509,1.167-.15h0c.52-.466,1.744-1.678,2.872-2.233.634-.312,1.879-.758,3.055-.9.875-.106,2.144-.091,2.844.037.606.111,1.777.528,2.33.799.44.216,1.28.736,1.657,1.05.334.278.818.821,1.227,1.231.32.324.661.872.661.873.255.348.67,1.079.67,1.079.11.231.23.219.347.057.103-.143.52-.58,1.049-.852.326-.167.69-.285,1.033-.375.214-.056.927-.274,1.193-.286.531-.024,1.339-.004,1.92.384.491.328.864.901,1.144,1.37.23.386.51,1.53.583,1.85.036.161.079.32.127.479.149.307.294.295.453.194.567-.36,2.138-.718,2.138-.718,0,0,1.341-.455,2.52-.111,1.186.346,2.463,1.577,2.566,1.669Zm-45.817,28.947c.394-2.171.604-4.369.793-6.559.193-2.235.3-4.483.295-6.737-.003-1.619.218-3.242.596-4.832.07-.296.866-2.128,1.573-2.662.883-.667,2.299-.752,2.756-.643,1.688.405,3.403.658,5.109.965,2.562.461,5.149.805,7.741.918,2.311.101,4.632.127,6.958-.132,2.295-.255,4.606-.327,6.856-.919,1.709-.45,3.501-.541,5.159-1.226.388-.16.859-.239,1.273-.192.379.043,1.783.371,2.613,1.24.566.593,1.251,2.187,1.157,4.513-.001,2,.305,3.979.271,5.976-.022,1.306.171,2.603.265,3.9.169,2.338.535,4.663.841,6.99.002.016.004.033.007.049.057.393.62.418.716.032.172-.691.304-1.377.456-2.058.575-2.582,1.368-5.106,2.092-7.648.316-1.112.605-2.237.814-3.374.275-1.493-.404-2.341-1.913-2.517-.18-.021-.363-.008-.545-.013q-1.078-.031-.761-1.034c.022-.069.045-.138.071-.206,1.011-2.688,1.422-5.469,1.219-8.328-.223-3.142-2.426-4.696-5.433-4.29-1.152.156-2.267.453-3.37.818-.894.296-1.008.218-.996-.738.012-.989-.035-1.955-.436-2.88-.366-.844-.938-1.18-1.809-.958-.633.162-1.244.408-1.78.798-.585.427-1.175.849-1.738,1.304-.355.287-.583.207-.775-.158-.118-.225-.24-.45-.339-.684-.576-1.369-1.454-2.53-2.597-3.45-1.528-1.229-3.256-1.824-5.263-1.429-2.604.511-4.631,1.991-6.5,3.752-.855.806-.861.835-1.472-.107-.914-1.412-2.266-1.986-3.869-2.034-1.962-.058-3.606.695-4.926,2.135-.954,1.041-1.5,2.211-1.075,3.674.062.214.095.437.122.673.037.319-.266.574-.572.477-.514-.164-.988-.354-1.474-.497-.853-.251-1.68-.214-2.392.108h0c-1.04.542-1.545,1.882-.892,3.149.198.385.468.732.704,1.098h0c.223.344-.082.787-.482.7-.306-.067-.606-.183-.902-.109-1.272.317-1.894,1.317-2.249,2.458-.294.945-.061,1.795.878,2.343.337.196.324.424-.01.664-.482.347-.905.78-.938,1.405-.036.684-.078,1.369.1,2.057.436,1.686.964,3.342,1.523,4.99.939,2.767,1.642,5.534,1.907,8.445.015.162.045.582.135.762.141.281.453.299.503.022Z" fill="#0d0a08"/>
          <path d="m46.252,60.081c.259.768,1.283,2.324,1.775,2.42.319,2.547-.219,4.953-.336,7.384-.081,1.678-.308,3.35-.378,5.029-.068,1.651.015,3.308-.03,4.961-.08,2.987.472,5.861,1.562,8.621.781,1.978,1.84,3.809,3.266,5.416,1.72,1.937,3.892,3.13,6.298,3.986,2.614.93,5.314,1.471,8.05,1.837,1.239.166,2.502.242,3.751.217,1.03-.02,2.054-.267,3.084-.382,2.829-.318,5.57-.992,8.218-2.03,3.459-1.356,5.976-3.72,7.676-7.033,1.743-3.396,2.497-7.008,2.562-10.777.032-1.861-.086-3.727-.199-5.587-.113-1.857-.258-3.715-.473-5.562-.24-2.063-.465-4.118-.109-6.188,1.53-3.232,3.618-4.914,3.93-5.151.452-.344.912-.696,1.419-.942.428-.208.928-.269,1.431.224-1.301.173-2.133.912-2.808,1.809-1.05,1.397-1.602,3.036-2.081,4.696-.106.366-.157.747-.233,1.121.442-.054.714-.246.992-.43.919-.608,1.98-.563,2.744.162-.274.021-.491.046-.713.053-1.824.057-3.273,1.632-3.223,3.457.027.995.143,1.988.248,2.979.067.632.188,1.258.288,1.911,1.075.189,1.832-.349,2.535-.968,1.583-1.394,2.55-3.192,3.178-5.164,1.069-3.362,1.752-6.789,1.29-10.341-.123-.949-.313-1.911-.635-2.808-.574-1.599-1.968-2.541-3.535-2.455-.109.006-.806.021-.917.038.096-.476.192-.953.346-1.484.126-.003.836-.007.958-.003,2.464.068,3.97,1.393,4.787,3.784.411,1.202.629,2.512.69,3.784.159,3.283-.327,6.504-1.389,9.608-.403,1.179-.917,2.318-1.531,3.402-1.54,2.722-2.764,3.577-5.455,4.089,0,2.082.02,4.161-.004,6.239-.062,5.321-1.485,10.22-4.832,14.412-.794.995-1.088,1.921-1.002,3.115.171,2.349-.107,6.283.419,7.019.494.691,4.751,1.077,6.988,1.601-.005.684-.324,1.371-.512,2.081-2.139-.383-4.227-1.038-6.326-1.309.194,2.557.16,4.654-.103,5.631-.036.134-.221.148-.275.02-.073-.174-.139-.331-.187-.493-.772-2.619-1.071-5.317-1.275-8.023-.144-1.925-.175-3.859-.25-5.877-.011-.428-.028-.768-.05-1.229-.359.163-.583.256-.799.364-1.09.542-2.158,1.133-3.271,1.624-3.112,1.374-6.444,1.868-9.777,2.328-.847.117-1.712.229-2.561.186-1.46-.073-2.927-.189-4.368-.429-3.718-.619-7.372-1.478-10.749-3.43-.397-.218-.726-.401-1.201-.665-.156,2.405-.363,4.641-.431,6.88-.072,2.407-.383,4.772-.913,7.114-.157.695-.377,1.377-.56,2.067-.041.091-.17.082-.204-.015-.206-1.981.024-3.988-.127-6.026-.274.027-.448.029-.616.062-1.926.384-4.189.964-6.114,1.351-.087-.639-.485-1.362-.57-2.09.89-.322,2.42-.691,3.316-.887.943-.206,1.904-.329,2.848-.528.448-.094.968-.128,1.266-.409.111-.104.103-.206.105-.273.09-2.687.172-5.374.264-8.061.015-.451-.092-.815-.411-1.17-2.307-2.565-3.743-5.586-4.548-8.916-.396-1.635-.699-3.285-.688-4.987.008-1.286-.16-2.572-.169-3.858-.007-.926.125-1.853.179-2.781.012-.206-.042-.417-.049-.483-.998-.388-1.928-.658-2.769-1.098-1.286-.672-2.071-1.875-2.77-3.085-1.251-2.164-1.92-4.538-2.408-6.982-.44-2.203-.42-4.417-.418-6.639.002-1.425.334-2.766.97-4.037.935-1.868,2.434-2.991,4.561-3.081.168-.007,2.515.024,2.692.03.07.542.179.828.246,1.439-.173-.002-2.516-.029-2.679-.016-1.907.146-3.067,1.271-3.588,2.688-.423,1.149-.736,2.33-.681,3.571.057,1.288.123,2.576.206,3.862.132,2.056.662,4.027,1.336,5.962.674,1.936,1.714,3.635,3.307,4.955.625.518,1.26,1.075,2.211.729.165-1.499.296-2.958.496-4.407.175-1.266-.311-2.208-1.207-3.051-.559-.525-1.173-.884-1.926-.902-.162-.004-.318.02-.525.008-.044-.003-.061-.059-.026-.085,1.095-.819,1.647-.693,3.701.72-.484-1.949-.809-3.893-1.81-5.528-.262-.428-.337-.6-.784-1.115-.731-.771-1.554-1.05-2.147-1.284-.146-.058-.122-.271.033-.296.252-.041.5-.051.739-.011.775.129,2.019.648,2.663,1.751.258.442.935,1.565,1.102,2.062Z" fill="#40221a"/>
        </g>
      </g>
    </g>
  </g>
</svg>