<?xml version="1.0" encoding="utf-8"?>
<!-- Generator: Adobe Illustrator 27.9.1, SVG Export Plug-In . SVG Version: 6.00 Build 0)  -->
<svg version="1.1" id="Layer_1" xmlns="http://www.w3.org/2000/svg" xmlns:xlink="http://www.w3.org/1999/xlink" x="0px" y="0px"
	 viewBox="0 0 1072.4 1072.4" style="enable-background:new 0 0 1072.4 1072.4;" xml:space="preserve">
<style type="text/css">
	.st0{fill:#F2F2F2;enable-background:new    ;}
	.st1{clip-path:url(#SVGID_00000039833261664842757140000013309960481828907170_);}
	.st2{fill:#F6CAA4;}
	.st3{fill:#070707;}
	.st4{fill:#1B1C1C;}
	.st5{fill:#F7CBA5;}
	.st6{fill:#090909;}
	.st7{fill:#BC895B;}
	.st8{fill:#B6443E;}
	.st9{fill:#161717;}
	.st10{fill:#030202;}
	.st11{fill:#BC895C;}
	.st12{fill:#040202;}
	.st13{fill:#070504;}
	.st14{fill:#151615;}
	.st15{fill:#E9EFEF;}
	.st16{fill:#EEF5F5;}
	.st17{fill:#E7F0F0;}
	.st18{fill:#EBF0F0;}
	.st19{fill:#E3E4E4;}
	.st20{fill:#E0E6E6;}
	.st21{fill:#EAB790;}
	.st22{fill:#BA885B;}
	.st23{fill:#B5443E;}
	.st24{fill:#F87360;}
</style>
<ellipse id="Ellipse_891_00000057854788997978364500000012638405902791029434_" class="st0" cx="536.2" cy="536.2" rx="536.2" ry="536.2"/>
<g>
	<g>
		<defs>
			<circle id="SVGID_1_" cx="536.2" cy="536.2" r="536.2"/>
		</defs>
		<clipPath id="SVGID_00000181776003706760317590000009056763461292562106_">
			<use xlink:href="#SVGID_1_"  style="overflow:visible;"/>
		</clipPath>
		<g style="clip-path:url(#SVGID_00000181776003706760317590000009056763461292562106_);">
			<polygon class="st2" points="313.9,457.2 329.7,443.2 343.5,443.2 360,501.5 367.7,558.4 354.1,590.7 337.7,588.1 313,534 
				309.2,483.6 			"/>
			<path class="st3" d="M769.6,327.8c6.5,29.5,5.6,58.6-4.5,88.9c-4.8-8.4-9-15.7-14-24.3c-5.6,13.9-9.3,26.8-11.9,39.9
				c-0.7,2.3-1.8,5.9-1,8.2c0.7,3.6,0.2,5.6,0.4,9.1c-0.9,8.1-2,16.2-2.8,24.3c-2.2,7.2-0.8,14.6-1.3,21.9c-0.6,7-4.9,8.8-11.1,8
				c-2.2-0.3-4.3-1.2-6.6-1.2c-2.7-0.2-5.2-0.8-7.9-1.3c-7.3-1.4-9.9-5.4-8.7-12.8c2.9-17,5.5-34.1,8.6-51.1
				c4.5-25.2,4.5-50-4.4-74.5c-4.5-12.4-12.5-20.1-24.4-24.2c-7.5-2.6-15.5-3.8-23-6.5c-2.4-0.9-4.9-1.7-7.5-1.6
				c-2.6-0.1-5.2-0.3-7.7-0.9c-3.6-1.2-7.2-1.1-10.9-1c-4.5-0.1-8.9,0.1-13.4-0.9c-12-1.8-24-2-35.9,0.2c-5.4,0.8-10.8,0.8-16.2,0.8
				c-14-0.3-28-0.1-42-0.1c-3.4,0.2-6.8-0.1-10.2-0.7c-3.5-1.1-7.1-1.6-10.8-1.5c-2-0.1-4-0.3-5.9-0.8c-2.7-0.9-5.5-1.3-8.3-1.4
				c-1.4-0.1-2.7-0.4-4.1-0.7c-2.6-0.9-5.2-1.2-7.9-1.6c-0.9-0.1-1.8-0.3-2.6-0.6c-2.2-0.7-4.4-1-6.6-1
				c-21.7-3.6-42.1-10.5-60.7-22.4c-2.4-1.5-4.8-6.6-8.7-1.7c-1.2,3-1.1,6.1-1.3,9.2c-0.1,1.4-0.3,2.7-0.7,4
				c-0.9,2.6-1.3,5.2-1.6,7.9c-0.1,0.9-0.3,1.8-0.6,2.6c-0.7,2.1-1.2,4.3-1.7,6.4c-0.7,2.6-1.5,5.2-2.3,7.8
				c-0.7,2.2-1.4,4.5-2.1,6.7c-6.1,18.8-17.7,35.5-21.6,55.2c-1.4,3.9-1.1,8-1.1,12c0,2.6-0.2,5.2-0.8,7.7
				c-1.8,6.5-1.7,13.1-0.2,19.6c0.5,2,0.7,4,0.8,6c0.1,3.4,0,6.9,1.1,10.2c0.5,1.9,0.7,3.8,0.8,5.7c0.1,2.8,0.2,5.6,1.1,8.3
				c0.4,1.3,0.6,2.7,0.7,4.1c0.2,2.7,0.4,5.5,1.3,8.1c0.4,1.4,0.6,2.7,0.7,4.1c0.2,2.8,0.5,5.6,1.3,8.4c0.3,2,0.2,3.9-0.9,5.7
				c-1.8,1.9-4.3,2.5-6.6,3.4c-3.4,1.1-6.7,2.2-10.2,3c-3.6,0.7-8.4,4.3-11.8,1.3c0-4.8-0.7-9.2-0.7-12.9c0-3.5-0.5-6.2-1-10.6
				c-0.5-1.9-0.7-3.8-0.8-5.8c-0.1-3.2,0.1-6.4-0.8-9.5c-0.3-1.3-0.6-2.5-0.7-3.8c-0.2-2-0.3-4.1-0.9-6c-0.3-0.8-0.5-1.5-0.8-2.3
				c-0.5-2-1.3-3.9-1.9-5.8c-0.5-1.6-0.6-3.3-0.8-5c-0.2-2.3-1.2-4.2-2.5-6c-10.9-20.5-18-55.5-18.7-57.8c-0.4-1.4-0.6-2.9-0.8-4.3
				c-0.2-3-0.6-11.1-0.6-12.2c-2.3-10.4-2.4-20.7,0-31.1c0-1,0-2.1,0-3.1c0-3,0.4-6,0.6-9c0.1-1.5,1.6-8.9,1.9-11.3
				c3.6-36.3,22.7-65.6,55.1-84.7c2.1-0.9,3.1-2.6,3.5-4.7c0.2-0.8,0.6-4.8,1.6-9c6.1-24.4,22.9-40,43.9-51.5
				c12.2-6.7,25-12.6,38.9-15.2c2.3-0.4,13.7-2.7,15.8-3.4c1.3-0.4,2.6-0.6,4-0.7c2.8-0.1,11.1-0.9,12.5-1.5c4-1.2,8.2-1.1,12.3-1.3
				c2.4,0,23.7-1.9,37.2-0.4c2.4,0.3,14.8,1.3,17.9,2c4.9,0.5,36,5.8,37.7,7.4c9.7,3.3,19.6,6.3,29.2,10.1
				c9.7,3.9,19.4,8.1,28.6,12.9c14.2,7.5,27.6,16.5,40,26.6c11.8,9.6,22.4,20.5,32.4,31.9c12.6,14.4,21.4,31.6,29.1,48.9
				c4.8,10.8,8.9,22.1,11,33.9C765.6,314.2,767.2,318.1,769.6,327.8z"/>
			<path class="st4" d="M634.5,170.4c-5.8,2-9.3,1.9-12.4,1.3c-19.2-3.7-38.6-2.9-57.7-1.4c-38.6,3-74.9,14.1-105.3,39.6
				c-6.9,5.8-13.6,12.2-20.2,21.5c4.9-1.7,6.5-4.2,8.4-6.2c15.3-15.8,33.3-27.2,53.8-34.9c24.4-9.2,49.4-15,75.6-14.4
				c11.3,0.2,22.6-0.6,33.8,0.2c15.5,1.2,31,2.9,45.8,7.8c10.9,3.6,19.5,11.3,28.2,18.4c7.4,6,15,12,21.6,19.1
				c29.5,31.6,48.7,68.3,57.5,110.7c1.9,9.1,2,18.4,3.5,27.5c1.9,11.7-1.9,23.2-3,35.1c-4.8-1.2-5.1-4.3-6.3-6.5
				c-17.5-33.4-44.8-54.4-80.9-64.2c-18.5-5-37.4-8.1-56.8-8.7c-9.5-0.3-19.3-2.8-28.7-1.3c-20.6,3.1-41.2,1-61.7,1.7
				c-20.3,0.7-40.2-3.2-60-6.9c-13.4-2.5-26.5-6.3-39.1-11.3c-18.9-7.5-35.6-18.3-44.7-37.5c-11.4-23.8-7.6-46.5,6.5-67.9
				c10.2-15.5,25.3-24.8,42.1-31.9c20-8.5,40.8-13.2,62.7-14.8c0.2,3-1.9,2.4-3,3c-1.2,0.6-2.5,0.9-3.8,1.2
				c-22.1,5.6-42.9,13.9-60.9,28.2c-12.4,9.8-22.6,21.5-28.9,36.2c-0.5,1.2-1.1,2.4,0.5,4.5c5.1-10.7,12.1-19.6,20.3-27.7
				c12.3-12.2,27.1-20.3,42.8-26.8c20.9-8.7,43-13.6,65.4-15.9c21.9-2.2,43.7-0.1,64.9,6.9C607.4,159.4,619.9,164.3,634.5,170.4z"/>
			<path class="st5" d="M352.4,569.4c-1.2-14.9-1-39.3-0.1-54.9c1.7-5.5,8.2-3,10.7-0.6c3,2.8,4,6.8,4.7,10.8c0.4,2.3,1,4.8,0.4,6.9
				c-3.7,13.3,0.2,26.4,1.8,39.2c2.6,20.4,5.6,40.9,11.4,60.8c10.9,37.3,27.9,71.2,52.8,101.1c15,18,31.2,34.6,52.2,45.7
				c14,7.4,28.6,12.6,44.9,10.8c4-0.4,8-0.4,12,0.1c18.1,2.1,34.1-4.4,49.3-12.9c17.8-9.9,31.5-24.6,44.5-39.7
				c38.1-44.2,59-96.1,65.8-153.8c0.9-7.9,3.5-15.6,2.6-23.7c-0.2-1.3,0.1-2.9,0.9-3.8c5.4-6.1,4-12.6,1.6-19.4
				c-1.9-5.4-1.2-11.2-1.1-16.9c0-5.1-1.5-8.6-6.6-11c-8.5-4.1-10.2-7.8-8.8-17.8c2.1-15.2,4.4-30.3,7.3-45.4
				c1.7-8.8,3.3-17.7,3.2-26.7c0-3.9,1.1-7.2,3.4-10.2c1.6-2.2,3.5-4.4,1.2-7.1c-4.3-5.2-4.3-11.8-6.1-17.8
				c-1.4-4.8-2.7-9.6-3.9-14.5c-3.3-12.6-11.7-19.8-23.8-23.1c-11.6-3.2-23.3-5.8-35.3-6.9c-4.7-0.4-9.3-1.1-12.9-4.5
				c-3.4-3.2-7-3-11-0.9c-8.9,4.7-17.9,4.6-26.7-0.2c-5.3-2.9-10-2.8-14.6,1.5c-4.9,4.7-11.1,5.7-17.7,4.8c-7.3-1-14.6-1.1-21.9,0
				c-2,0.3-4,0.7-6,0.2c-20.9-5.5-42.8-4.1-63.7-9.9c-16.7-4.7-33.4-9-49.2-16.5c-7.6-3.6-8.6-3.1-9.9,4.7
				c-3.4,20.6-11.9,39.5-20.6,58.2c-4.2,9.1-8.3,18.2-9.4,28.3c-0.3,3.1-1.6,5.6-3.5,8.1c-6,8.2-6.2,16.9-0.3,24.5
				c2.4,3.1,3.5,6.3,4,10c1.1,8.3,1.7,16.8,4.2,24.6c3.4,10.5-1.4,20.1-1.5,30.2c0,3.7-3.4,5.5-6.8,6.4c-4.5,1.3-6.2,7.2-10.9,7.4
				c-1.1,0.5-6.1-0.8-6.8-1.7c0-3-3.3-6.8-3.9-11.7c3.8-0.3,11.7-3.5,15-4.4c2.7-1,3.6-0.8,5-2.7c2.5-2.8-0.1-9.8-0.8-13.8
				c-0.7-2.9-1.4-9.1-2.3-15.2c-1.2-5.3-1.4-9.5-2.1-14c-1.3-7.6-1.3-10.4-1.8-16c-0.4-8.5-1-11.6-0.1-19.9c0.7-8.2,0.4-11.8,2.1-20
				c1-10,5.2-19.1,9.6-27.8c4.6-9.4,11.4-27.8,14.6-34.2c2.3-5.2,2.2-8.6,3.8-14c1.2-5.8,2.6-14.7,3.9-24c0.3-2.3,0.6-4.5,1-7.6
				c18.6,15.4,40.4,22.9,62.8,28.9c2.6,0.7,9,1.2,14.4,2.5c4.2,0.8,30.8,5.1,38,5.9c3.1,0.7,39.6,1.7,54.8,0.5
				c5.1,0.4,10.1,0.1,15.2-0.5c12-1.2,24-1.1,36,0c4.5,0.2,32.4,3,38,4c8,1.4,14.6,3.8,21.9,5.8c15.8,4.3,25.1,13.8,30.6,30.1
				c9.9,29.6,5.8,58.5,0.7,87.8c-2.1,12.1-3.7,24.4-6.3,36.4c-1.4,6.4,0.7,8.5,6.6,8.9c1.8,0.1,6,0.5,8.6,1.5
				c1.1,0.4,2.7,1.6,2.7,1.6s0,0.6-0.1,1c-0.4,11.8,3.5,23.4-0.7,35.2c-0.1,3.9-0.1,7.8-0.2,11.7c0.4,19.8-3.9,36.8-4,38
				c-0.8,8.3-4.5,24.1-5.7,28.1c-4.7,16.9-9.2,33.8-16,50.1c-10.7,25.5-24.1,49.3-41.7,70.8c-5.2,6.4-10.6,12.9-16.1,18.9
				c-16.8,18.1-35.8,33.4-60.3,40.5c-4.1,1.2-8.8,4-18.1,4.9c-5.7,0.9-4.9,0.3-11.6,1.4c-3.6,0.6-5.1,0.3-6,0.4
				c-37.8-0.9-51-9.4-62.5-15.1c-13.4-6.7-24.8-16.5-35.1-26.9c-16.2-16.4-33.3-32.9-45.4-52.7c-15.6-25.7-28.2-55.5-36.5-84.2
				C359.8,621.8,352.2,589,352.4,569.4z"/>
			<path class="st4" d="M367.9,319.8c-18.1,6.9-30.6,20.3-41.7,35.4c-0.8,1-1.5,2.1-2.4,3.4C314.9,322,337,251.1,371,238.7
				c1.5,13,5.5,25.1,13.1,35.8c0.9,1.3,1.1,3.1,1.7,4.6c4.4,10.2,0.9,20.4-0.5,30.3c-1.3,8.7-3.7,17.5-6.9,25.8
				c-1.1,2.9-2.1,5.3-5.1,6.8c-17.7,9.3-31.3,23.1-43.5,38.6c-0.6,0.7-1.5,1.1-2.6,1.8c-5.2-8.5-2.9-14.9,2.9-22.3
				c11.5-14.8,25.8-26.4,39.9-38.4c0.6-0.7,1.2-1.5,0.3-2.2C369.5,319,368.6,319.1,367.9,319.8z"/>
			<path class="st2" d="M760,525.8c-3.4,18.4-9.1,29.3-16.6,42.7c-3.7,6.6-7.9,12.9-13.7,18c-5,4.4-4.2-0.1-3.8-2.6
				c0-8.6,0.9-13.9,1.6-21.1c1.3-10.6-1.4-10,2.5-15l-0.1,0.1c3.3-2.7,0.2-7.5,0.2-9.9c0-3.3-0.1-6.6-0.2-10
				c0-11.8-0.3-13.5,1.6-20.1c0.1-1.1-0.4-6.4,2.5-10.2c2.9-3.9,9.3-6.3,12.5-7.3c0.3-0.4,0-0.6-0.9-0.2
				c-13.1,5.8-12.9,11.3-12.7-4.4c0-2.6,0.1-4.8,0.8-12.2c0-8.7,1.4-17.1,2.8-25.7c8.4,0.1,13.8,3.7,18.8,10.3
				c2.4,3.2,4.8,7.6,6.6,19.7C762.7,487.4,765.1,498.3,760,525.8z"/>
			<path class="st4" d="M355.3,490.6c-5.2-9-3.5-18.7-4.8-27.7c-2.9-19.9-8.9-38.6-16.5-57c-6.2-14.9-6.4-15,5-26.1
				c9.3-9,17.3-19.4,28.4-26.3c0.8-0.5,1.7-0.8,2.5-1.1c3.8,0,0.7,3.7,0,5.3c-3.4,7.9-8.1,15.2-10.8,23.5
				c-3.3,10.2-4.9,20.5-5.2,31.1c-0.6,22.2,0.6,44.3,5.7,66C360.9,484.1,359.8,486.6,355.3,490.6z"/>
			<path class="st6" d="M312.2,325.8c-0.3-3.1-0.3-6.2,1.5-9C313.6,319.9,314.9,323.2,312.2,325.8z"/>
			<path class="st6" d="M313.7,374.8c-1.9-2.7-1.8-5.8-1.6-9C314.9,368.4,313.6,371.7,313.7,374.8z"/>
			<path class="st6" d="M331.6,436.5c0.2-0.5,0.2-1.1,0-1.6"/>
			<path class="st6" d="M315.8,384.2c-1.7-1.8-1.9-4.1-1.6-6.4C316.4,379.5,315.9,381.9,315.8,384.2z"/>
			<path class="st6" d="M314.1,313.8c-0.2-2.5-0.2-5,1.6-7.1C315.8,309.2,316.5,311.9,314.1,313.8z"/>
			<path class="st7" d="M557.8,811.4c0-0.6,0-1.2,0-1.9"/>
			<path class="st8" d="M1009.9,1019.5c-2.7-1.5-2.2-4.1-2.1-6.5C1009.7,1014.8,1010.3,1017,1009.9,1019.5z"/>
			<path class="st4" d="M388.6,245.3c8.7,2.9,11.6,1.2,13.3-7.1c5.6-25.8,20-45.1,43-58c23.7-13.3,49.1-21.2,76-24.7
				c10.2-1.3,20.4-3.6,30.5-3.3c13.1,0.4,26.1,3.8,39.4,8.4c-3.2,4.6-7.4,2.9-10.9,3.2c-23.8,1.5-47.5,3.8-70.2,11.8
				c-25.5,8.9-48.2,22.3-66.7,42.1c-10.7,11.4-19.9,23.9-25.6,38.8c-3.6,9.4-2.6,11.9,6.8,15.4c1.2,0.5,2.4,1.1,3.4,1.8
				c5.1,3.7,9.6,2.7,12.9-2.1c16.5-24.3,40-39.5,66.8-49.4c19.6-7.3,39.7-12.8,61-12.4c5.7,0.1,11.3,0,17,0
				c41-0.2,77.8,12.7,110.1,37.3c32.3,24.6,49.5,58.8,58.3,97.9c1.6,7.1,1.1,14.5,3.6,21.5c0.5,1.4,0.5,3.5-1.5,4.2
				c-1.9,0.6-3.3-0.8-4.1-2.1c-3.5-5.8-8.6-10.1-13.1-15c-22.2-24.3-51.3-34.2-82.5-39.9c-28-5.1-56.2-4.6-84.4-3.7
				c-15,0.5-30,3.2-45.1,1.7c-32.7-3.2-65.1-7.8-95.8-20.2c-19.3-7.8-35.6-19.5-42.3-40.7C388,249.4,387.7,247.8,388.6,245.3z"/>
			<path class="st4" d="M710.3,236c-96.4-62.1-188.3-59.9-276,17.9c6.2-14.4,16.5-25.9,28.7-35.4c29.2-22.6,63.3-32,99.4-36.8
				c29.5-3.9,58,0.4,86.6,6c11.5,2.2,19.3,10,28.1,16.2c11.1,7.8,21.2,17,30.4,27.1C709.1,232.5,710.8,234.3,710.3,236z"/>
			<path class="st5" d="M355.8,511.7c-0.1-0.6-0.1-1.2,0-1.8c3.7-3.2,8.5-3.2,12.9-4.2c6.8-1.5,8.6-3.3,6.2-9.2
				c-1.3-3.2-1.2-3.9,1.5-6c3.1-2.5,1.8-6.9,1.2-10.4c-2.2-12-4.8-24-5.7-36.2c-0.2-2.5-0.9-4.9-3.3-5.6c-4.8-1.3-4.7-4.8-4.7-8.6
				c0.1-4,0.1-8,0-12c0-2.8,0.3-5.3,3.6-6.2c3.4-1,4.4-3.7,4.4-7c0-10,4.2-18.6,8.3-27.4c8.2-17.7,16.8-35.4,20.6-54.8
				c0.5-2.6,1-5.2,1.2-7.8c0.6-9.2,1.7-9.8,10.3-5.5c7.4,3.7,15,7,23,9.6c19.2,6.3,38.8,11.1,59,13.4c6.4,0.7,12.8,4.1,19-0.9
				c1.1-0.9,2.2,0.8,3.2,1.6c4.9,3.8,10.1,5.3,16.5,3.9c7.2-1.6,14.5-1.1,21.8-0.2c7,0.9,13.6,1.5,17.7-6.3
				c1.6-3.1,10.9-3.7,14.6-0.9c9.2,6.9,18.1,6.7,27.3,0.2c4.3-3,8-2.3,11.7,2.2c2.3,2.9,5.1,4.1,8.6,4.2c12.7,0.1,24.9,3.5,37.1,6.4
				c8.5,2,16.4,5.5,22.1,12.7c4.5,5.7,5.6,12.7,7.7,19.3c2,6.3,3.1,12.9,4.3,19.4c0.5,2.9,1.4,5,4.3,6c5.1,1.9,4,4.2,0.5,6.9
				c-4.5,3.4-6.5,7.2-5.4,13.7c1,5.9-0.7,12.5-2.1,18.5c-4,17.4-5.9,35.2-9.1,52.7c-1.6,9.1,0.3,11.8,9.1,14.4
				c5,1.5,6.8,4.2,6.8,9.3c0,7.6-0.9,15.2,1.4,22.8c1,3.5,2.9,5.7,5.5,8.3c-7,5.6-11.5,12.1-7.4,21.4c0.2,0.6,0.2,1.3,0,2
				c-7.3,31.5-10.3,64.1-23.9,93.9c-11,24.2-23.5,47.5-40.6,68.3c-9.8,11.9-20.6,22.7-31.7,33.1c-16.6,15.6-37.1,24.4-59.4,27.9
				c-6.1,1-13-1.8-19.7-1.2c-30.1,2.8-53.3-11.2-75.1-29.7c-14.3-12.1-26-26.3-37-41.2c-14-19-25.7-39.5-34-61.7
				c-8.2-22.1-14.3-44.8-17.8-68.1c-0.9-6.2,0-12.6-3.6-18.3c-0.6-0.9-0.5-2.7,0-3.8c2.6-5.9,1.3-11.2-2.6-15.8
				c-2.9-3.4-0.5-6.4,0.3-9.3c2.4-8.2,2.3-16.3-0.3-24.5C362.7,514.9,360.4,512.1,355.8,511.7z"/>
			<path class="st5" d="M525.8,605.7c3.6-8,6-9.3,14-9.1c7.7,0.2,15-2.1,22-5c5.4-2.3,6.8-6,4.1-12.1c-6.7-14.8-14.3-29.2-19.4-44.7
				c-2-6-3.5-12.1-4.7-18.2c-1.2-5.7-1.6-11.2,2.3-16c2.2-2.7,0.7-5-0.5-7.3c-2.5-5.2-2.5-10.3,0.2-15.3c1.8-3.4,2.2-6.9,2.1-10.6
				c-0.1-3.6,0.8-7,5.1-7.3c4.4-0.3,9.4-1.8,12.7,3.3c2.1,3.2,2,6.9,3,11.9c2-11.7,11.2-14.9,18.6-18.7c27.4-14.6,54.3-14.2,79.2,7
				c9.5,8.1,12.6,16.6,9.2,23.9c-0.7,1.5-1.6,3-2.7,4.1c-5.5,5-28.4,4.3-34.7-1.4c-2.9,4.1-5.5,8.7-11.7,8.4
				c-5.4-0.2-10-1.1-14.1-5.5c-3.1-3.4-21.2-1.1-25.3,2.2c-5,4-11.3,3.1-16.9,4.6c-2.7,0.7-4.5,1.5-3.8,4.5
				c1.8,7.3,2.5,14.8,6.4,21.7c7,12.5,12.9,25.5,19.4,38.3c3.1,6.1,6,12,1.6,18.7c-0.5,0.8-0.6,1.7-0.4,2.8
				c2.7,16-1.2,23.1-15.8,30.2c-9.3,4.5-19.4,4.8-29.1,5.3c-16.7,0.9-33.5-0.1-49.2-7.4c-8.7-4.1-15.4-12.6-15.4-20
				c0-4.5,1.5-8,5.7-9.6c3.8-1.4,7.7-0.1,9.8,3.1c3.9,5.9,9.4,7.9,15.8,9.1c5,0.9,8.5,3.6,8.8,9.2c-8.1,5.4-14.9,0-22.1-2.2
				c21.2,7.2,42.9,9.7,64.9,3.9c17.6-4.7,23.6-17.8,16.5-34.7c-4.2-9.8-8.8-19.5-14.7-28.4c-14.6-22-14.5-46.3-12.3-66.2
				c-6,27.2,2,56.7,17.2,84.8c2.8,5.3,5.5,10.6,7.4,16.4c2,6.2,1,11.8-3.4,16.7C566.8,605.5,538.2,611.1,525.8,605.7z"/>
			<path class="st5" d="M554.3,662.4c4.2-10.7,13.3-9.2,20.2-10.9c15.5-4,28.4-12.7,40.8-21.9c5.5-4.1,9.8-5.5,14.9-1.8
				c3.4,2.5,1.9,13.5-1.5,17.4c-17.7,20.4-39.7,32-66.8,34.7c-8.2,0.8-16,3.9-22.8-3.7c-1-1.1-5.5-1.2-6.6,0
				c-9.6,10.6-20.7,3.9-30.6,2.1c-19.1-3.4-36.2-12.4-51.1-25.1c-5-4.2-7.1-16.4-3.5-21.7c3.2-4.7,7.1-3.9,11.2-1.4
				c8.8,5.2,17.2,11.1,26.5,15.5c9.7,4.7,20.1,6.7,30.3,9.5c6.9,1.9,13.5-2.1,20.6-1.7C543,653.8,549.1,654.8,554.3,662.4z"/>
			<path class="st9" d="M516.1,410.3c-41.4-5.2-80.9-3-121.6,10c20.3-29.8,44.5-48.7,79.6-50c20.2-0.7,30.9,6.9,37.9,25.7
				C513.5,400.1,514.4,404.3,516.1,410.3z"/>
			<path class="st5" d="M586.2,364.2c2,1,4.2,0.3,6.3-0.8c4.1-2.2,8.2-2.2,12.4,0c2.1,1.1,4.2,1.4,6.7,0.8c3.9-0.9,7.8-0.2,11.7,1.1
				c14.2,4.8,27.3,10.5,38,22c5,5.3,9.7,11.6,16.2,15.7c4.2,2.6,5.9,7.3,7.3,11.6c2.5,7.5-5.7,15-13.9,12.5
				c-11.4-3.5-22.9-6.5-34.7-8.3c-3.3-0.5-6.5-1.1-9.8-1.1c-3.8,0-7.1-0.3-8.8-4.7c-1.8-4.7-6.1-4.3-9-2c-7.9,6.5-15.2,6.8-23.1,0
				c-2.8-2.5-5.8-1.5-8.5,1.7c-4,4.6-18.6,6.9-23.9,4.3c-2.4-1.2-3-3.2-3.3-5.7c-0.8-5.1,0.6-10.1,2.3-14.6
				c4.4-12.3,9.7-24.1,22.4-30.4C578.1,364.6,581.7,363.1,586.2,364.2z"/>
			<path class="st10" d="M509.3,488.9c-34.6,1.7-68.8,1.3-103.6-4.9c6.2-10.6,13.5-18,23.1-23.2c10.9-6,22.4-8.3,34.6-5
				c16.1,4.4,30.1,12.3,41.6,24.4C507.2,482.5,509.9,484.8,509.3,488.9z"/>
			<path class="st11" d="M525.8,605.7c11.4,0.9,22.5-1,33.5-3.9c17.5-4.6,21.7-13.1,13.8-29.1c-8.9-18.2-17.9-36.4-22.2-56.4
				c-1.7-7.8,1.2-40.3,4.7-47.6c0,9.5,0.6,18.2-0.1,26.7c-1.2,14.5,2.9,27.6,9.5,40.2c6.2,11.8,12.5,23.5,18.3,35.5
				c3,6.2,5.2,12.6,3.1,20.1c-3.7,12.9-13.7,17.6-25,20.1c-17.1,3.8-34.4,2.5-51.2-2.1c-6.8-1.8-13.8-4.5-17.6-11.9
				c8.7,7.1,18.6,9.3,29.3,8.3C523.2,605.7,524.5,605.7,525.8,605.7z"/>
			<path class="st12" d="M564.4,489.1c-0.4-4.5,2.4-6.7,4.6-9.1c11.3-11.8,25-19.9,40.7-24c21.1-5.4,37.7,2.9,51.6,18.2
				c2.2,2.4,3.9,5.3,6.6,8.9c-17.1,5.6-34.3,5.1-51.1,6.3C599.5,490.7,582.2,489.6,564.4,489.1z"/>
			<path class="st13" d="M517.1,671.9c-6.3-0.7-12.4-1.9-12.4-1.9s-35.1-9.8-49-25.8c-0.5-2.4,0.4-3.4,2.9-2.8
				c11.5,9.6,27.1,15.4,39.3,19.4c3.5,1.2,18.9,2.9,20.1,3c12.6,1.4,25.3,1.5,37.9-0.1c4.9-0.9,9.8-1.7,14.7-2.7
				c17.7-3.4,33.4-11.1,47.3-22.4c1.7-1.4,2.7-3.7,5.4-3.7c-3.6,16.8-38.4,36-66.8,37C543.3,673.1,530.2,673.1,517.1,671.9z"/>
			<path class="st14" d="M678.7,420.2c-40.5-13-79.7-15-120.4-10c1.7-12.6,5.8-23,14.2-31.5c6-6.1,13.6-8.1,21.8-8.4
				c13.5-0.5,26.6,1.8,38.7,7.7C651.7,387.1,666.6,400.4,678.7,420.2z"/>
			<path class="st15" d="M476.1,467.7c10.9,4.6,20.4,9.5,28.8,19.3c-10.5-0.7-19.4-1.2-28.8-1.8
				C477.2,479.4,477.3,473.9,476.1,467.7z"/>
			<path class="st16" d="M413.2,480.3c8-5.6,16.5-10.5,25.9-15.2c-1.8,6.4-2.6,11.4-1.6,18.5C429.3,482.8,422.8,482.4,413.2,480.3z"
				/>
			<path class="st17" d="M468.9,476.1c-0.4,3.3-2.3,4.9-5.4,4.6c-2.7-0.2-4.1-2.1-4-4.8c0.1-3.3,2-4.7,5.3-4.4
				C467.6,471.8,468.6,473.7,468.9,476.1z"/>
			<path class="st18" d="M597.8,468.7c-0.9,5.3-1.5,10.5,0.6,15.9c-9.7,0.5-18.4-0.3-27.7,0.7C576.9,475.7,585.2,471.8,597.8,468.7z
				"/>
			<path class="st19" d="M661.2,481.5c-8.5,1.1-16.6,2.2-25.1,1.3c1.4-5.7,0.8-11.5-2-17C644.4,469.5,652.8,475.3,661.2,481.5z"/>
			<path class="st20" d="M609.9,471.2c2.8,0.2,4.2,1.8,4.3,4.5c0,3.3-1.8,4.9-5,4.7c-2.7-0.1-4.3-1.8-4.4-4.5
				C604.8,472.7,606.7,471.2,609.9,471.2z"/>
			<path class="st3" d="M328.4,430.3c0,0,9.7,25.9,14.6,70.2c0.2,1.4,1.5,2.4,2.9,2l8.1-2.2l-17.7-73L328.4,430.3z"/>
			<g>
				<path class="st21" d="M660.3,761.1c-1.3,1-5.1,2.7-10.4,8.9c-3.2,3.8-6.5,7.3-9.9,10.9c-5.3,5.6-10.3,11.4-15.7,16.9
					c-7.1,7.2-16.2,11.2-24.7,16.3c-1.1,0.7-2.6,1.1-3.4,2c-9.7,11.8-24,13-37.2,17.2c-21.6,6.9-43,3.5-64-1.3
					c-16.4-3.7-31.1-12.8-44.6-23c-1.4-1.1-2.9-2.1-4.4-3c-8.6-5.3-15.2-12.6-20.6-21.3c-3.2-5.1-5.7-11.1-12.7-13.6
					c-0.4-0.1-0.6-0.4-0.6-0.8c-0.6-7.9-1.6-18.1-1.6-27.5c0-0.8,1.9,1.1,2.5,1.6c1.9,1.6,3,2.5,4,3.5
					c12.5,12.3,24.1,25.9,37.7,36.8c29.2,23.2,62.8,31.7,100.1,26.7c30.3-4,55.7-17,77.2-38c7.6-7.4,13.5-14.5,20.8-22.3
					c1.1-1.1,3.8-2.7,6.5-4.9c0.6-0.5,1.5,0,1.5,0.7c0,5-0.1,9-0.2,13.3C660.6,760.7,660.5,761,660.3,761.1z"/>
				<g>
					<path class="st2" d="M347.3,844.4c12.8-3.3,27.4-6.6,40.1-8.9c2.5-0.5,5.2-0.6,9.1-1c0,14.8-5.3,26.3-0.4,40.5
						c0.8-1.7,2-3.2,2.4-5c4.3-17.1,6.8-31.6,7.6-49.2c0.7-16.9,3.4-40.9,5.4-58.5c7.6,1.5,12.3,15,15.6,20.2
						c5.6,8.9,12.4,16.4,21.5,21.8c1.7,1,3.2,2.3,4.8,3.5c13.2,9.8,27.4,18.3,43.3,21.9c21,4.8,42.3,8.3,64,1.3
						c13.2-4.2,27.6-5.5,37.2-17.2c0.8-1,2.3-1.4,3.4-2c8.5-5.1,17.7-9.1,24.7-16.3c3.7-3.7,7.2-7.6,10.7-11.5
						c7.6-8.3,15.1-16.6,22.7-24.9c0.4-0.4,1.3-0.3,1.9-0.4c1.4,24.2,2.2,48.5,4.6,72.6c1.4,14.5,5.2,28.7,8,43
						c0.2,1.2,1.2,2.2,2.4,4.1c4.7-7.4-0.9-15.2-0.7-22c0.2-6.9-0.9-13.6-1.3-21.6c16.6-0.3,35.2,6.2,51.5,8.5
						c-3,25.1-10.6,48.8-22.5,71c-20.6,38.4-51,67.9-91.2,83.3c-44.4,17-92.3,18.9-137.5,4.6c-62-19.8-103.1-61.9-121.1-124.5
						C350.7,868,349.3,854.9,347.3,844.4z"/>
					<path class="st22" d="M736.3,447.9c1-3.3,0.3-8.7,2-12.4c14.6-0.4,25.3,7.5,30.3,19.5c2.5,6.1,4.3,12.8,4.7,19.4
						c1.9,31.4-2.4,62.1-14.7,91.2c-6.2,14.7-14.3,28.2-30.2,34.6c-4.5,1.8-4.2,5.7-5.1,9c-4.1,14.8-7.4,29.8-12,44.5
						c-8.1,25.7-20.2,49.5-35.5,71.6c-2.4,3.5-3.5,6.9-3.3,11.1c1,21.7,1.6,43.4,2.5,65.1c0.2,5.6,1.2,11.2,1.8,17.2
						c16.9,3.8,34.3,7.4,51.9,11.4c0,5.2-1,10.2-2.8,15.8c-16.6-1.5-32-7.8-48.7-7.5c0.4,8.1,1.2,15,0.9,21.9
						c-0.2,6.5,1.8,13.4-1.9,20.4c-0.3,0.7-1.2,0.7-1.7,0.2c-0.9-1.2-2.3-3.2-3.2-6.6c-2.8-10.8-5.3-29.8-6.3-39.7
						c-2.4-24.2-3.1-48.6-4.5-73.8c0.1-3.9,0.1-7.4,0.1-11.7c0-1.5-1.7-2.2-2.8-1.3c-1.4,1.2-2.3,2-3.2,2.9
						c-7.3,7.8-14.2,16-21.9,23.5c-21.7,21.2-47.2,34.2-77.6,38.2c-37.5,5-71.3-3.5-100.6-26.9c-13.8-11-25.4-24.6-38-37
						c-1.3-1.2-2.7-2.3-5.6-4.8c5.1,32.7-2.3,99-13.3,134.1c-0.4,1.1-2,1.1-2.2-0.1c-3.4-13.1-1.2-26.3-1.1-39.9
						c-4,0.4-6.6,0.5-9.2,1c-12.8,2.4-25.5,4.9-38.3,7.3c-1.2-4.6-2.9-9.9-4.3-15.3c17-4.6,34.7-7.8,52.6-11.9
						c0.6-10.3,1.5-20.9,1.9-31.5c0.7-18,1.4-36,1.5-54c0-4-1.1-7.8-3.2-11.2c-22.1-34.1-37-71-44.7-110.8
						c-1.3-6.9-3.8-11.7-10.6-15.4c-9.3-5.1-14.9-14.2-19.6-23.5c-11.3-22.4-15.8-46.5-18.3-71.3c-1.4-13.8-1-27.3,2.8-40.5
						c3.3-11.9,11.9-21.3,25-25.5c1.8,3.4,2.4,5.1,3.5,12.1c-9.7,0.9-13.3,7-15.8,14c-2.3,6.4-3,13.5-3.2,20.2
						c-0.7,18.2,1.3,36.3,5.7,54c3.5,14.3,7.9,28.4,16.7,40.6c1.9,2.7,4.4,5,6.7,7.5c0.6,0.6,1.7,0.2,1.8-0.6
						c0.6-11,0-21.1-1.1-31.3c-0.2-2.1-1.7-5.9-5-8.9c-1.5-1.1-3.9-3.6-6.7-5.1c-0.5-0.3-0.3-1.1,0.3-1.1c3.7,0.1,7,3.6,10.1,2.5
						c-0.3-11.5-0.9-23-1-34.5c0-2.7,0.8-2.2,3.9-2.4c2.8-0.1,4.1-0.8,4.7,1.6c2.5,9.4,3.5,26.3,4.3,35.7
						c1.7,19.6,3.1,39.3,6.1,58.8c10.5,67.1,40.6,124,90.5,170.4c49.1,45.7,125.4,44.1,172.1-0.9c28-27,50.8-57.6,66.8-93.2
						c14.4-32.1,22.7-65.8,26.3-100.5c2.6-24.6,2.6-47.9,4-72.6l0.2,0c2.5-0.4,4.9-1.6,6.6-3.5c5.1-5.4,4.4-6,7.5-7.2
						c10.6-4.2,11.8-1.7,12.6-1.3c0.3,0.2,0.3,0.7-0.1,0.8c-7.6,2.8-12.9,7.3-14.9,14.8c-2.9,11.2-1.6,22.6-1.4,33.5
						c0,0.3,0.2,0.6,0.5,0.6c3.8,0.4,7.2-2,12.6,0.1c0.4,0.1,0.3,0.7,0,0.8c-14.4,4.1-14.5,7.6-15.3,21.3
						c-0.3,5.3-1.2,10.6-1.6,15.9c-0.2,1.8-0.2,3.2-0.1,5.9c0.1,1.3,1.5,2.1,2.6,1.5c6.2-3.3,9-8.6,11.8-13.6
						c16.3-30.4,21.9-63.2,19-97.1C758.4,459.8,752,451.5,736.3,447.9z"/>
					<path class="st23" d="M239.8,1954.6c-4.9-1.3-9.9-2.6-15.6-3.9c-19.9-6.6-39.1-13.2-58.2-20c-3.7-1.3-7.1-3.2-10.8-4.9
						c3.1-18.4,6.3-36,9.1-53.7c3.9-25.2,8-50.5,11-75.8c3.4-29,6-58.1,8.3-87.2c1.5-18.9,1.8-37.8,2.5-56.7
						c0.6-15.3,1.5-30.5,1.3-45.8c-0.3-22.9-1.5-45.8-2.9-70.1c2.9-16.1,1.1-31,0.4-45.8c0-0.6-0.7-1.1-1-2.6
						c-0.8-38.3-1.7-75.6-2.4-113.8c0.1-16.1,0.3-31.3-2.3-46.3c-7.4-1-14-1.9-20.5-2.8c-38.8-5.2-76.2-15.5-111.6-32.3
						c-3.6-1.7-7.4-2.8-11.5-4.8c-4.2-2.2-8.1-3.8-11.9-5.4c-4.3-3-8.7-6-13-9c-14.7-10.3-29.4-20.6-44.5-31.2
						c1.2-2.5,1.8-4.3,2.9-5.8c21.6-31.1,37.5-65.2,50.5-100.6c15.7-42.8,30.3-86,46-128.8c10.2-27.8,21.5-55.3,38.3-79.9
						c18.9-27.7,44-47,77-54.9c15-3.6,30.2-3.8,45.6-2c3.4,0.4,7.4,0.1,10.4-1.5c33.4-17.9,69-29.7,106.6-38.1
						c2.1,5.2,3.3,9.9,4.3,15.3c2,10.6,3.5,20.5,6.3,30C372,938.6,412,980.9,474,1000.6c45.2,14.4,90.8,13.1,135.2-4
						c40.2-15.4,71.8-41.7,92.4-80c11.9-22.2,19.5-45.9,23.5-71.6c1-5.7,1.8-10.5,2.6-15.3c36.8,8.4,72.2,20.5,105.4,38.6
						c4.1,2.2,7.8,2.8,12.3,2.2c39-5.1,72.9,5.9,101.7,32.7c18.1,16.9,30.3,37.8,40.6,59.9c17.4,37.4,30.6,76.5,44,115.5
						c13.9,40.6,27.3,81.3,47.7,119.3c7.8,14.6,16.7,28.7,25.5,43.7c-17,15.2-36.8,27.3-57.2,40.7c-4.1,2.1-7.1,3.7-10.7,5.2
						c-1.3,0.2-2,0.2-2.6,0.5c-34.8,18.2-71.8,29.5-110.4,35.6c-10.7,1.7-21.5,3.1-33,4.8c-1.3,15.8-1.3,31.3-0.9,47.7
						c-0.6,15.5-1.2,30-1.5,44.5c-0.4,22.8-0.6,45.6-1.3,69.1c-1.5,16.1-2.8,31.6,0.5,47c-0.6,2.8-1.8,5.6-1.8,8.5
						c-0.7,31.9-1.9,63.8-1.6,95.7c0.3,25.2,1.8,50.4,3.9,75.6c4,47.6,8.8,95.1,16.9,142.3c3.5,20.6,7,41.2,10.4,61.9
						c0.3,1.6,0,3.3,0,5.6c-21.2,10.3-43.7,17.1-66.8,24.3c-5.7,1.3-10.8,2.3-17.3,3.8c-21.9,4.9-42.3,9.6-62.8,13.7
						c-59.8,11.9-120.3,18.4-181.2,20.5c-64.9,2.3-129.7,0.6-194.3-7c-40.3-4.7-80.4-11-120-19.6
						C261.9,1959.4,250.9,1957,239.8,1954.6 M177.3,1195.2c-0.5-8-1.1-15.9-1.4-23.9c-0.2-7.7-0.5-15.4,0-23
						c0.5-7.5-2.6-15.6,3.7-24c1.7,3.5,3.3,5.7,3.7,8c1.6,12.2,3.2,24.4,4.3,36.6c1.1,12.2,1.5,24.6,2.4,36.8
						c1.7,22.8,4.3,45.6,5.2,68.5c1.3,33.6,1.5,67.2,2.2,100.8c0.8,36.9,1.6,73.9,2.4,110.8c0,1,0.1,2,0.1,3
						c1.2,24.9,3.3,49.8,3.4,74.7c0.1,42.9-1,85.9-1.8,128.8c-0.2,12.3-1,24.6-2.2,36.8c-2.3,23.1-4.7,46.3-7.6,69.3
						c-3.3,26-7.1,52-11,77.9c-1.9,12.8-4.3,25.4-6.5,38.7c3.2,1.5,5.7,3,8.5,3.9c19,6.2,37.9,12.7,57.1,18.2
						c33.6,9.7,67.9,16.2,102.5,21.4c24,3.7,48.1,6.3,72.2,8.5c25.8,2.4,51.7,5,77.5,5.4c36.6,0.5,73.2-0.5,109.8-1.6
						c22.6-0.7,45.2-1.7,67.6-4.5c34.9-4.4,69.8-9.6,104.4-15.9c35.1-6.3,69.5-15.4,103.2-27.2c6.8-2.4,13.4-5.2,20.2-7.9
						c-1.7-9.9-3.3-18.3-4.6-26.8c-4.4-28.6-9.1-57.1-12.8-85.8c-2.9-22.1-4.8-44.3-6.4-66.5c-2.2-29.5-4.9-59-5.5-88.5
						c-0.6-34.3,0.8-68.6,1.5-102.8c0.7-34.3,1.5-68.6,2.3-102.8c0.1-3,0.6-5.9,1.1-8.8c0.8-4.5,2.3-8.9,2.5-13.5
						c0.9-25.9,1.8-51.9,2-77.8c0.3-47.9,0.8-95.9,4.3-143.7c1.6-21.9,4-43.7,6.3-65.5c0.3-2.6,2-5,3.3-7.9
						c5.5,3.5,4.4,7.9,4.3,11.6c-1.1,37.9-2.5,75.8-3.6,113.7c-0.5,18-0.3,36-0.4,54c0,1.9,0.7,3.8,1.3,6.9
						c70.3-6.3,133.5-29.2,189.4-73.3c-2.1-4-3.6-7.3-5.4-10.4c-18-29.8-32-61.4-43.7-94c-13.9-38.5-27-77.3-40.9-115.9
						c-9.6-26.6-20.3-52.9-35.6-76.9c-21.4-33.5-51.6-53.1-92-55.3c-2.5-0.1-5,1-8.3,1.6c6.1,10.3,17.6,15.4,20.2,27.2
						c-16.2-6.6-28.4-19.1-43.6-26.7c-15.4-7.8-30.9-15.6-46.8-22.3c-15.8-6.7-32.2-11.9-49.4-15.6c-2.4,10.3-4.4,19.7-6.9,29
						c-10.5,39.3-29.4,73.5-60.9,99.9c-46.4,38.9-100.6,51.9-159.6,45.8c-37.8-3.9-71.9-18.3-102-42.2c-31.3-24.9-51.7-57-63.3-94.8
						c-3.6-11.7-6.2-23.7-9.3-35.5c-7.1-2.2-12.8,1.6-18.7,3.3c-37.4,10.7-72.7,26-103.9,49.7c-4,3-8,6.1-12.2,8.7
						c-1.3,0.8-3.3,0.6-5.6,0.9c3.5-11.6,15.3-16.6,19-29c-9.4,0.9-17.6,1.1-25.6,2.7c-32.4,6.5-55.7,26-73,53.2
						c-15.3,24-25.9,50.3-35.6,76.9c-13.9,38.5-27,77.3-40.9,115.8c-10.1,27.9-21.4,55.3-36.3,81c-4.3,7.4-8.2,15-12.3,22.3
						c1.6,1.8,2.4,2.9,3.4,3.7c35.1,26.7,73.8,46.4,116.5,57.8c10.6,2.8,21.5,4.4,33.4,7.4c11.8,2.5,23.6,5.7,36.1,3.9
						c0.3-3.2,0.7-5.5,0.7-7.8c-0.8-34.9-1.6-69.7-2.4-104.6C177.3,1197.6,177.2,1197.2,177.3,1195.2z"/>
					<path class="st24" d="M141.7,1305.5c-10.7-2.2-21.6-3.8-32.2-6.6c-42.7-11.4-81.4-31.1-116.5-57.8c-1-0.8-1.8-1.9-3.4-3.7
						c4-7.4,8-15,12.3-22.3c15-25.7,26.2-53.1,36.3-81c14-38.5,27-77.3,40.9-115.8c9.6-26.6,20.3-52.9,35.6-76.9
						c17.3-27.2,40.6-46.6,73-53.2c8-1.6,16.2-1.7,25.6-2.7c-3.7,12.3-15.5,17.3-19,29c2.3-0.3,4.3-0.1,5.6-0.9
						c4.2-2.7,8.2-5.7,12.2-8.7c31.2-23.7,66.5-39,103.9-49.7c5.9-1.7,11.6-5.4,18.7-3.3c3.1,11.8,5.7,23.8,9.3,35.5
						c11.6,37.9,31.9,69.9,63.3,94.8c30.1,23.9,64.2,38.3,102,42.2c59,6.1,113.3-6.9,159.6-45.8c31.5-26.4,50.4-60.6,60.9-99.9
						c2.5-9.3,4.5-18.7,6.9-29c17.2,3.8,33.7,8.9,49.4,15.6c15.9,6.7,31.3,14.6,46.8,22.3c15.2,7.6,27.5,20.2,43.6,26.7
						c-2.6-11.8-14.1-16.9-20.2-27.2c3.3-0.7,5.8-1.8,8.3-1.6c40.4,2.2,70.6,21.8,92,55.3c15.3,24,26,50.3,35.6,76.9
						c13.9,38.5,27,77.3,40.9,115.9c11.8,32.6,25.8,64.3,43.7,94c1.9,3.1,3.4,6.4,5.4,10.4c-55.9,44.1-119,67-189.4,73.3
						c-0.6-3.2-1.3-5.1-1.3-6.9c0-18-0.1-36,0.4-54c1-37.9,2.4-75.8,3.6-113.7c0.1-3.7,1.2-8.1-4.3-11.6c-1.3,2.9-3,5.3-3.3,7.9
						c-2.3,21.8-4.7,43.6-6.3,65.5c-3.5,47.8-4,95.8-4.3,143.7c-0.2,26-1.1,51.9-2,77.8c-0.1,4.5-1.7,9-2.5,13.5
						c-0.5,2.9-1,5.9-1.1,8.8c-0.8,34.3-1.7,68.6-2.3,102.8c-0.7,34.3-2.1,68.6-1.5,102.8c0.5,29.5,3.2,59.1,5.5,88.5
						c1.7,22.2,3.6,44.4,6.4,66.5c3.7,28.7,8.4,57.2,12.8,85.8c1.3,8.5,2.9,17,4.6,26.8c-6.8,2.7-13.4,5.5-20.2,7.9
						c-33.7,11.8-68.1,20.9-103.2,27.2c-34.6,6.2-69.5,11.5-104.4,15.9c-22.4,2.8-45.1,3.8-67.6,4.5c-36.6,1.1-73.2,2.1-109.8,1.6
						c-25.9-0.4-51.7-3-77.5-5.4c-24.1-2.2-48.3-4.9-72.2-8.5c-34.5-5.3-68.9-11.8-102.5-21.4c-19.2-5.5-38.1-12-57.1-18.2
						c-2.8-0.9-5.4-2.4-8.5-3.9c2.2-13.2,4.6-25.9,6.5-38.7c3.8-26,7.7-51.9,11-77.9c2.9-23.1,5.4-46.2,7.6-69.3
						c1.2-12.2,2-24.5,2.2-36.8c0.8-42.9,1.9-85.9,1.8-128.8c-0.1-24.9-2.2-49.8-3.4-74.7c0-1-0.1-2-0.1-3
						c-0.8-36.9-1.6-73.9-2.4-110.8c-0.7-33.6-0.9-67.2-2.2-100.8c-0.9-22.9-3.5-45.7-5.2-68.5c-0.9-12.3-1.3-24.6-2.4-36.8
						c-1.1-12.2-2.6-24.4-4.3-36.6c-0.3-2.3-2-4.4-3.7-8c-6.3,8.4-3.2,16.6-3.7,24c-0.5,7.6-0.3,15.3,0,23c0.3,8,0.9,15.9,0.6,24.9
						c-2.2,3.4-4.3,5.7-5,8.3c-5.4,18.8-10.4,37.7-15.9,56.4C151.3,1275.9,146.4,1290.7,141.7,1305.5z"/>
				</g>
			</g>
		</g>
	</g>
</g>
</svg>
