<?xml version="1.0" encoding="utf-8"?>
<!-- Generator: Adobe Illustrator 27.3.1, SVG Export Plug-In . SVG Version: 6.00 Build 0)  -->
<svg version="1.1" id="Layer_1" xmlns="http://www.w3.org/2000/svg" xmlns:xlink="http://www.w3.org/1999/xlink" x="0px" y="0px"
	 viewBox="0 0 1072.397 1072.397" enable-background="new 0 0 1072.397 1072.397" xml:space="preserve">
<g>
	
		<ellipse id="Ellipse_891_00000057854788997978364500000012638405902791029434_" opacity="0.5" fill="#f2f2f2" enable-background="new    " cx="536.198" cy="536.198" rx="536.198" ry="536.198"/>
	<g>
		<defs>
			
				<ellipse id="Ellipse_891_00000168115220610765348490000001877150864525380748_" cx="536.198" cy="536.198" rx="536.198" ry="536.198"/>
		</defs>
		<clipPath id="Ellipse_891_00000105395258251191550930000007671799057886756000_">
			<use xlink:href="#Ellipse_891_00000168115220610765348490000001877150864525380748_"  overflow="visible"/>
		</clipPath>
		<g clip-path="url(#Ellipse_891_00000105395258251191550930000007671799057886756000_)">
			<path fill="#6F4539" d="M663.445,771.392c0.627,14.901,0.813,31.33,1.929,46.194c1.568,20.895,3.884,41.727,9.841,61.946
				c0.595,2.019,1.537,3.936,2.534,6.442c2.943-5.569,3.54-23.564,1.822-46.26c16.212,2.088,31.845,5.998,48.186,9.602
				c-1.883,18.858-7.382,36.872-14.745,54.22c-4.416,10.403-9.756,20.543-15.783,30.108c-15.061,23.903-35.631,42.27-59.92,56.448
				c-23.763,13.87-49.433,21.606-76.847,24.689c-44.373,4.991-86.224-2.374-124.966-24.488
				c-28.938-16.518-52.102-39.227-67.809-69.049c-11.068-21.014-18.494-43.234-22.756-66.558c-0.248-1.356-0.751-2.665-1.155-4.664
				c14.848-3.658,29.713-6.657,44.585-9.62c1.297-0.258,2.642-0.276,4.756-0.482c1.13,15.263-0.506,30.297,0.845,45.145
				c0.686,0.07,1.373,0.14,2.059,0.211c1.337-4.888,2.859-9.734,3.977-14.671c4.094-18.078,6.494-36.34,7.053-54.925
				c0.52-17.293,2.118-34.554,3.326-53.123c3.661,2.034,6.207,2.449,9.285,4.76c1.141,2.956,1.366,6.247,2.438,8.029
				c2.272,3.774,5.118,7.197,7.494,10.914c6.606,10.336,14.766,19.081,25.387,25.375c7.826,4.638,15.672,9.242,23.515,13.851
				c10.032,5.895,20.093,11.649,32.409,10.774c1.585-0.112,3.223,0.639,4.847,0.933c7.311,1.326,14.702,4.021,21.921,3.622
				c11.189-0.619,22.507-2.46,33.317-5.432c11.861-3.261,24.013-6.788,32.715-16.726c1.173-1.34,3.21-2.072,4.982-2.712
				c11.185-4.04,19.983-11.595,28.551-19.424c2.194-2.005,4.06-4.562,5.471-7.191c3.983-7.421,11.693-10.694,17.454-16.116
				C660.788,772.624,662.345,771.477,663.445,771.392z"/>
			<path fill="#090706" d="M335.214,392.833c-0.973-10.424-1.945-20.847-2.919-31.271c-0.129-1.377-0.346-2.752-0.385-4.132
				c-0.576-20.195-1.456-40.389-1.509-60.586c-0.018-6.937-1.409-12.334-6.97-16.702c-4.895-3.844-8.064-8.958-9.865-15.041
				c-3.631-12.262,0.216-23.058,6.849-32.908c3.144-4.669,7.548-9.075,12.383-11.859c5.067-2.917,6.182-6.38,5.785-11.463
				c-0.585-7.492,1.738-14.077,6.116-20.211c7.483-10.485,17.571-14.58,30.061-12.769c4.507,0.654,5.996-1.722,7.021-5.188
				c2.571-8.696,8.231-15.092,15.689-19.728c14.314-8.899,29.066-9.401,43.95-1.179c0.705,0.39,1.479,0.656,2.386,1.051
				c4.496-3.673,9.18-7.082,13.365-11.021c5.729-5.392,12.939-7.478,20.097-9.483c9.731-2.726,19.704-3.057,29.128,1.094
				c4.705,2.072,9.117,5.131,13.1,8.424c3.314,2.739,5.584,3.552,9.265,0.49c5.283-4.396,11.017-8.296,16.801-12.034
				c10.478-6.772,22.369-9.973,34.557-10.25c23.139-0.526,44.536,13.073,50.395,36.358c0.248,0.986,1.103,1.82,2.017,3.262
				c2.816-1.438,5.327-3.003,8.037-4.06c22.857-8.916,45.264-4.606,63.104,12.174c10.415,9.796,15.249,22.861,16.509,37.122
				c0.596,6.753,0.615,6.622,7.217,8.734c19.593,6.269,32.707,19.019,35.599,39.687c1.827,13.055-1.504,25.377-13.476,33.562
				c-1.601,1.095-3.138,2.288-4.657,3.495c-0.413,0.328-0.653,0.874-0.344,0.443c0.237,11.351,0.966,21.846,0.552,32.296
				c-0.589,14.875-2.026,29.717-3.086,44.574c-0.609,8.534-1.192,17.071-2.231,26.775c-1.185,4.847-1.925,8.526-2.761,12.875
				c-4.05,19.616-8.005,38.561-12.392,57.925c-3.272,9.347-5.986,18.318-8.992,27.19c-2.454,7.243-3.5,7.662-10.776,5.823
				c-0.8-0.202-1.635-0.264-2.554-1.11c0.258-6.236,0.771-11.747,0.947-17.268c0.637-19.954,1.863-39.923,1.563-59.866
				c-0.455-30.198-1.891-60.384-3.18-90.564c-0.252-5.892-1.736-11.73-2.668-17.697c-1.932,0.342-2.797,0.331-3.519,0.647
				c-13.65,5.964-27.733,6.653-42.362,4.555c-16.363-2.347-31.904-7.168-46.853-13.918c-6.589-2.975-12.305-5.213-16.759,2.879
				c-0.61,1.108-2.1,1.769-3.249,2.537c-16.187,10.827-33.94,12.483-52.558,8.874c-7.489-1.452-14.328-4.54-20.134-9.439
				c-2.447-2.065-4.06-5.118-5.694-7.256c-29.723,14.743-53.503,7.966-74.03-15.129c-14.504,10.429-30.013,14.612-47.484,8.696
				c-1.16,3.811-2.096,6.67-2.902,9.565c-5.901,21.206-7.992,43.044-9.465,64.834c-1.532,22.665-1.64,45.44-1.884,68.172
				c-0.128,11.9,1.13,23.811,1.117,35.716c-0.009,8.464,2.447,18.199-2.524,26.422c-3.618,0.045-6.555-0.955-9.896-0.955
				c-2.129-6.664-3.967-12.648-5.963-18.578c-1.292-3.838-2.816-7.597-4.361-11.875c-0.7-1.254-1.275-2.023-1.858-2.739
				c-0.007,0.053,0.1,0.042,0.041-0.671c-1.718-9.324-3.324-17.945-5.05-26.543c-2.099-10.456-4.298-20.893-6.474-32.015
				C336.443,399.542,335.828,396.188,335.214,392.833 M686.409,227.961c15.733,7.809,26.566,20.035,31.203,36.935
				c3.31,12.065,0.643,23.569-6.364,34.083c-1.429,2.144-2.476,5.027-2.447,7.554c0.054,4.662,0.897,9.337,1.656,13.966
				c3.367,20.525,5.26,41.151,4.841,61.977c-0.145,7.212-0.586,14.532,0.391,21.625c1.187,8.614,1.248,16.967,0.031,25.582
				c-0.902,6.384-0.177,12.998-0.177,19.509c14.965-55.534,18.768-112.047,15.558-169.884c1.962-0.571,3.998-1.156,6.029-1.757
				c7.005-2.071,11.04-6.768,13.037-13.768c3.237-11.346-0.875-20.774-7.616-29.242c-7.65-9.612-18.794-12.145-30.347-13.289
				c-2.59-0.257-5.199-0.325-8.493-0.521c0.939-3.278,1.649-5.35,2.121-7.475c2.3-10.349,2.044-20.53-3.786-29.7
				c-2.635-4.145-6.183-7.849-9.836-11.183c-11.778-10.753-25.53-13.738-40.913-9.637c-7.198,1.919-12.992,5.905-18.168,11.17
				c-3.533,3.593-6.566,7.942-12.881,10.979c0-7.11-0.225-12.846,0.044-18.558c0.682-14.472-10.844-29.821-24.924-33.722
				c-8.768-2.429-17.759-2.521-26.345-0.562c-18.28,4.17-32.585,14.698-43.405,30.009c-1.466,2.074-3.341,3.858-6.026,6.914
				c-1.285-4.652-2.11-7.516-2.866-10.399c-2.513-9.581-8.696-15.545-18.368-17.022c-11.256-1.719-22.118,0.042-32.017,6.103
				c-7.663,4.692-12.94,11.099-14.819,20.121c-0.464,2.23-1.763,4.287-3.068,7.333c-2.089-2.716-3.665-4.292-4.687-6.17
				c-8.974-16.496-32.977-16.99-45.695-3.045c-4.878,5.349-7.737,11.334-4.898,18.995c1.593,4.299,2.172,8.973,3.683,15.547
				c-5.86-3.844-10.195-6.534-14.365-9.46c-6.034-4.234-12.661-4.134-19.11-2.046c-9.674,3.133-14.977,13.479-12.753,24.146
				c0.947,4.542,2.561,8.946,3.979,13.776c-1.307,0.383-2.351,1.038-3.286,0.909c-8.482-1.17-14.147,3.277-19.42,9.097
				c-11.648,12.858-9.278,31.007,5.849,39.595c4.654,2.642,5.922,5.702,5.843,10.63c-0.237,14.716-0.332,29.443-0.026,44.156
				c0.288,13.837,0.566,27.719,1.924,41.476c1.572,15.927,4.238,31.75,6.6,47.593c0.773,5.188,1.999,10.314,3.164,15.435
				c1.154,5.07,2.494,10.098,3.752,15.144c-3.897-62.028,1.061-122.534,25.493-181.934c1.111,2.897,2.035,4.708,2.497,6.63
				c1.092,4.547,3.637,6.763,8.423,7.808c12.019,2.625,21.624-2.008,30.719-8.87c4.185-3.157,8.302-6.404,12.581-9.713
				c-0.005-0.01,1.219,1.453,1.676,3.125c4.069,14.871,15.173,22.098,28.866,25.964c17.991,5.079,28.058,0.494,37.734-16.087
				c2.096-3.591,4.525-6.988,6.801-10.475c1.383,6.205,1.538,11.743,1.343,17.269c-0.242,6.883,2.82,11.913,8.661,14.963
				c17.831,9.312,35.609,8.356,53.292-0.724c7.028-3.609,9.671-10.318,12.564-17.469c2.583,1.125,4.789,2.159,7.049,3.058
				c13.121,5.223,26.049,11.04,39.439,15.452c15.137,4.988,30.828,6.662,46.669,2.991c11.826-2.741,20.829-9.209,25.135-20.82
				c5.354-14.439,1.271-27.296-8.112-38.671c-4.511-5.469-9.785-10.309-14.653-15.498
				C685.186,227.879,685.24,227.809,686.409,227.961z"/>
			<path fill="#40221A" d="M354.779,477.419c1.996,5.93,3.834,11.914,5.963,18.578c3.341,0,6.279,0,10.074,0.743
				c2.459,19.665-1.695,38.24-2.597,57.015c-0.623,12.959-2.381,25.866-2.917,38.826c-0.527,12.75,0.114,25.545-0.23,38.307
				c-0.621,23.063,3.648,45.25,12.06,66.564c6.026,15.269,14.21,29.413,25.219,41.815c13.279,14.959,30.049,24.169,48.626,30.775
				c20.182,7.177,41.032,11.36,62.154,14.186c9.566,1.28,19.315,1.867,28.959,1.676c7.953-0.157,15.859-2.059,23.813-2.952
				c21.844-2.452,43.007-7.657,63.455-15.67c26.71-10.466,46.14-28.719,59.267-54.3c13.455-26.218,19.283-54.106,19.784-83.208
				c0.247-14.368-0.661-28.777-1.533-43.138c-0.871-14.338-1.996-28.68-3.654-42.945c-1.852-15.932-3.593-31.796-0.845-47.778
				c0.819,0.127,1.654,0.188,2.454,0.391c7.276,1.839,8.322,1.42,10.776-5.823c3.006-8.872,5.72-17.843,9.511-27.427
				c3.155-2.758,5.193-5.08,7.604-6.913c3.49-2.654,7.045-5.375,10.957-7.274c3.308-1.606,7.163-2.081,11.047,1.733
				c-10.045,1.338-16.471,7.041-21.68,13.97c-8.109,10.786-12.368,23.442-16.071,36.256c-0.816,2.823-1.21,5.767-1.798,8.656
				c3.41-0.415,5.513-1.899,7.659-3.319c7.093-4.696,15.288-4.348,21.185,1.248c-1.961,0.153-3.541,0.325-5.126,0.392
				c-13.9,0.592-25.637,12.693-25.267,26.6c0.206,7.714,1.106,15.42,1.919,23.105c0.516,4.879,1.448,9.714,2.222,14.754
				c8.303,1.463,14.145-2.694,19.572-7.472c12.223-10.761,19.691-24.643,24.535-39.87c8.257-25.955,13.525-52.419,9.962-79.843
				c-0.952-7.328-2.42-14.752-4.907-21.682c-4.739-13.209-16.732-20.61-29.845-18.698c0.74-3.678,1.48-7.356,2.668-11.458
				c20.733-0.458,33.215,9.851,39.834,29.221c3.172,9.283,4.854,19.392,5.329,29.218c1.254,25.952-2.709,51.404-11.316,75.894
				c-3.554,10.113-8.314,20.012-13.927,29.146c-10.707,17.423-20.231,23.332-39.418,26.977c0,16.076,0.157,32.128-0.031,48.175
				c-0.481,41.085-11.467,78.91-37.311,111.279c-6.131,7.679-8.404,14.829-7.733,24.053c1.318,18.134,2.192,36.301,3.235,54.193
				c17.705,3.897,34.379,7.568,51.646,11.612c-0.042,5.28-0.679,10.186-2.13,15.668c-16.515-2.961-32.148-6.87-48.361-8.958
				c1.718,22.696,1.121,40.691-1.822,46.26c-0.996-2.506-1.939-4.423-2.534-6.442c-5.957-20.219-8.272-41.052-9.841-61.946
				c-1.116-14.864-1.348-29.795-1.929-45.377c-0.084-3.304-0.214-5.926-0.39-9.488c-2.775,1.259-4.5,1.979-6.171,2.81
				c-8.415,4.185-16.664,8.745-25.252,12.536c-24.032,10.609-49.752,14.423-75.487,17.976c-6.543,0.903-13.221,1.765-19.777,1.437
				c-11.274-0.563-22.603-1.458-33.726-3.31c-28.708-4.782-56.918-11.408-82.997-26.481c-3.062-1.683-5.608-3.097-9.269-5.132
				c-1.208,18.569-2.806,35.83-3.326,53.123c-0.559,18.585-2.959,36.847-7.053,54.925c-1.118,4.937-2.64,9.783-3.977,14.671
				c-0.686-0.07-1.373-0.14-2.059-0.211c-1.351-14.849,0.285-29.882-0.845-45.145c-2.114,0.207-3.459,0.224-4.756,0.482
				c-14.872,2.963-29.737,5.962-44.604,8.952c-0.669-4.932-1.338-9.864-1.994-15.486c6.869-2.489,13.675-4.512,20.593-6.024
				c7.28-1.591,14.699-2.542,21.993-4.077c3.461-0.728,6.772-2.166,9.772-3.157c0.432-1.091,0.793-1.594,0.811-2.108
				c0.692-20.745,1.33-41.492,2.04-62.237c0.119-3.48-0.711-6.29-3.176-9.031c-17.809-19.803-28.897-43.132-35.115-68.841
				c-3.054-12.628-5.397-25.361-5.311-38.505c0.065-9.927-1.233-19.858-1.306-29.791c-0.053-7.152,0.964-14.308,1.382-21.469
				c0.093-1.593-0.322-3.216-0.38-3.733c-7.709-2.997-14.884-5.084-21.377-8.475c-9.93-5.187-15.987-14.477-21.385-23.816
				c-9.658-16.708-14.826-35.036-18.594-53.911c-3.395-17.008-3.244-34.104-3.224-51.26c0.013-11.003,2.577-21.356,7.49-31.171
				c7.793-15.569,20.656-24.431,39.206-23.799c0.537,4.182,1.379,6.39,1.899,11.114c-17.05-0.214-27.225,9.006-31.592,20.876
				c-3.262,8.868-5.682,17.987-5.259,27.573c0.439,9.944,0.949,19.887,1.587,29.82c1.019,15.877,5.109,31.091,10.316,46.034
				c5.207,14.944,13.234,28.065,25.532,38.258c4.822,3.997,9.728,8.298,17.073,5.631c1.277-11.577,2.282-22.841,3.826-34.03
				c1.349-9.776-2.401-17.052-9.322-23.557c-4.312-4.054-9.004-6.248-14.819-6.389c-1.484-0.036-2.962-0.341-5.06-0.598
				c8.97-6.946,13.004-6.241,29.326,4.989c-3.739-15.052-7.366-29.097-15.09-41.717c-2.024-3.307-4.279-6.474-6.482-9.668
				c-4.455-6.457-11.614-8.369-18.594-11.214c3.279-0.958,6.488-1.48,9.525-0.973c5.983,0.999,10.551,4.582,14.555,9.049
				c1.759,1.963,4.399,2.348,6.003,4.472C350.983,465.286,353.487,473.581,354.779,477.419z"/>
			<path fill="#6E4539" d="M702.23,495.215c-2.648,16.702-0.907,32.566,0.945,48.498c1.658,14.265,2.784,28.607,3.654,42.945
				c0.872,14.361,1.781,28.77,1.533,43.138c-0.501,29.103-6.329,56.991-19.784,83.208c-13.128,25.581-32.558,43.833-59.267,54.3
				c-20.448,8.013-41.611,13.218-63.455,15.67c-7.953,0.893-15.86,2.794-23.813,2.952c-9.644,0.191-19.393-0.397-28.959-1.676
				c-21.122-2.826-41.972-7.009-62.154-14.186c-18.577-6.606-35.347-15.816-48.626-30.775
				c-11.008-12.402-19.192-26.545-25.219-41.815c-8.412-21.314-12.681-43.501-12.06-66.564c0.344-12.762-0.297-25.557,0.23-38.307
				c0.536-12.96,2.294-25.867,2.917-38.826c0.902-18.776,4.056-37.35,2.277-57.06c4.113-8.966,2.658-17.702,2.666-26.165
				c0.012-11.905-1.245-23.816-1.117-35.716c0.244-22.732,0.352-45.507,1.884-68.172c1.473-21.789,3.563-43.628,9.465-64.834
				c0.806-2.895,1.741-5.755,2.902-9.565c17.471,5.916,32.98,1.733,47.484-8.696c20.527,23.095,44.307,29.872,74.03,15.129
				c1.635,2.137,3.247,5.191,5.694,7.256c5.806,4.899,12.645,7.988,20.134,9.439c18.618,3.609,36.371,1.953,52.558-8.874
				c1.149-0.769,2.639-1.429,3.249-2.537c4.454-8.091,10.17-5.854,16.759-2.879c14.949,6.75,30.49,11.571,46.853,13.918
				c14.63,2.098,28.712,1.409,42.362-4.555c0.722-0.316,1.587-0.305,3.519-0.647c0.932,5.967,2.416,11.806,2.668,17.697
				c1.289,30.18,2.725,60.366,3.18,90.564c0.3,19.943-0.926,39.912-1.563,59.866C703,483.468,702.488,488.979,702.23,495.215
				 M572.879,379.479c35.21-7.683,68.768-4.894,100.493,17.508c-0.795-10.58-1.356-19.317-2.195-28.027
				c-0.15-1.558-1.377-3.092-2.311-4.477c-5.231-7.759-12.03-14.351-20.236-18.849c-28.277-15.497-57.42-15.852-87.166-5.724
				c-5.377,1.831-7.131,5.26-5.603,12.95c1.654,8.326,1.23,16.838-0.567,25.134c-0.436,2.012,0.264,3.773,0.737,6.446
				C561.558,382.772,566.543,381.266,572.879,379.479 M424.108,345.904c-5.501,4.617-11.461,8.795-16.396,13.954
				c-7.63,7.976-10.095,24.957-5.938,35.653c36.329-24.54,75.198-24.35,115.593-11.049c0.421-2.292,1.003-3.683,0.736-5.19
				c-1.894-10.69-1.999-21.566-1.243-32.396c0.295-4.23-1.801-6.074-4.897-6.797c-9.142-2.137-18.26-4.566-27.526-5.947
				C463.48,331.007,443.645,334.806,424.108,345.904 M581.865,680.228c5.78-9.629,7.081-11.97,5.948-15.344
				c-0.507-1.511-2.539-1.763-3.381-0.41l-0.017,0.027c-4.939,7.974-11.449,14.185-20.092,18.024
				c-6.178,2.745-12.629,3.88-19.399,3.733c-2.082-0.045-4.654-0.985-6.601,0.977c-0.456,0.46-0.279,1.252,0.33,1.475
				C554.446,694.489,568.959,694.968,581.865,680.228"/>
			<path fill="#272C32" d="M685.126,227.944c4.928,5.125,10.202,9.965,14.713,15.433c9.384,11.374,13.467,24.232,8.112,38.671
				c-4.306,11.611-13.309,18.079-25.135,20.82c-15.841,3.671-31.532,1.998-46.669-2.991c-13.39-4.413-26.318-10.229-39.439-15.452
				c-2.26-0.899-4.465-1.933-7.049-3.058c-2.893,7.151-5.536,13.86-12.564,17.469c-17.682,9.081-35.461,10.036-53.292,0.724
				c-5.841-3.05-8.903-8.08-8.661-14.963c0.195-5.526,0.039-11.064-1.343-17.269c-2.276,3.487-4.705,6.883-6.801,10.475
				c-9.677,16.581-19.744,21.166-37.734,16.087c-13.692-3.865-24.796-11.093-28.866-25.964c-0.458-1.672-1.682-3.135-1.676-3.125
				c-4.279,3.308-8.396,6.556-12.581,9.713c-9.095,6.861-18.7,11.495-30.719,8.87c-4.786-1.045-7.331-3.262-8.423-7.808
				c-0.462-1.922-1.386-3.733-2.497-6.63c-24.433,59.4-29.391,119.906-25.493,181.934c-1.258-5.046-2.598-10.074-3.752-15.144
				c-1.166-5.121-2.391-10.248-3.164-15.435c-2.361-15.843-5.028-31.666-6.6-47.593c-1.358-13.756-1.636-27.639-1.924-41.476
				c-0.306-14.713-0.211-29.44,0.026-44.156c0.079-4.927-1.189-7.988-5.843-10.63c-15.128-8.588-17.497-26.737-5.849-39.595
				c5.273-5.821,10.938-10.268,19.42-9.097c0.935,0.129,1.979-0.526,3.286-0.909c-1.418-4.83-3.032-9.234-3.979-13.776
				c-2.224-10.668,3.079-21.014,12.753-24.146c6.448-2.088,13.076-2.188,19.11,2.046c4.17,2.926,8.505,5.616,14.365,9.46
				c-1.511-6.574-2.09-11.248-3.683-15.547c-2.839-7.661,0.02-13.647,4.898-18.995c12.718-13.945,36.721-13.452,45.695,3.045
				c1.022,1.878,2.599,3.454,4.687,6.17c1.305-3.047,2.603-5.103,3.068-7.333c1.879-9.023,7.156-15.429,14.819-20.121
				c9.899-6.061,20.761-7.822,32.017-6.103c9.672,1.477,15.855,7.441,18.368,17.022c0.756,2.883,1.581,5.748,2.866,10.399
				c2.685-3.056,4.56-4.84,6.026-6.914c10.819-15.311,25.124-25.839,43.405-30.009c8.586-1.959,17.577-1.867,26.345,0.562
				c14.079,3.901,25.606,19.25,24.924,33.722c-0.269,5.712-0.044,11.447-0.044,18.558c6.315-3.037,9.348-7.386,12.881-10.979
				c5.176-5.265,10.97-9.251,18.168-11.17c15.383-4.101,29.135-1.116,40.913,9.637c3.653,3.335,7.201,7.038,9.836,11.183
				c5.83,9.17,6.087,19.351,3.786,29.7c-0.472,2.125-1.182,4.197-2.121,7.475c3.294,0.196,5.903,0.265,8.493,0.521
				c11.553,1.144,22.697,3.678,30.347,13.289c6.741,8.469,10.853,17.896,7.616,29.242c-1.997,7-6.032,11.697-13.037,13.768
				c-2.031,0.601-4.067,1.186-6.029,1.757c3.211,57.837-0.593,114.35-15.558,169.884c0-6.511-0.724-13.125,0.177-19.509
				c1.217-8.614,1.156-16.968-0.031-25.582c-0.978-7.093-0.537-14.413-0.391-21.625c0.42-20.825-1.474-41.451-4.841-61.977
				c-0.759-4.629-1.602-9.304-1.656-13.966c-0.029-2.528,1.018-5.41,2.447-7.554c7.006-10.514,9.674-22.018,6.364-34.083
				c-4.637-16.9-15.47-29.126-32.004-37.341c-1.392-0.367-1.983-0.327-2.574-0.288C683.731,227.492,684.428,227.718,685.126,227.944
				z"/>
			<path fill="#6A4136" d="M348.601,462.133c-1.977-1.002-4.244-2.509-6.003-4.472c-4.004-4.468-8.572-8.05-14.555-9.049
				c-2.626-0.439-5.38-0.108-8.196,0.609c-0.43,0.109-0.474,0.709-0.061,0.871c6.568,2.586,13.141,4.64,17.326,10.707
				c2.203,3.194,4.458,6.362,6.482,9.668c7.724,12.62,11.352,26.665,15.09,41.717c-16.322-11.229-20.357-11.935-29.326-4.989
				c2.097,0.257,3.575,0.562,5.06,0.598c5.815,0.141,10.507,2.335,14.819,6.389c6.921,6.506,10.671,13.781,9.322,23.557
				c-1.544,11.189-2.549,22.453-3.826,34.03c-7.345,2.667-12.251-1.635-17.073-5.631c-12.298-10.193-20.325-23.314-25.532-38.258
				c-5.206-14.943-9.296-30.157-10.316-46.034c-0.638-9.933-1.148-19.876-1.587-29.82c-0.423-9.587,1.997-18.705,5.259-27.573
				c4.367-11.871,14.522-21.768,31.592-20.876c2.754,11.855,4.375,21.559,6.474,32.015
				C345.277,444.188,346.884,452.809,348.601,462.133z"/>
			<path fill="#6A4136" d="M736.99,405.366c13.208-2.584,25.201,4.818,29.94,18.027c2.486,6.93,3.955,14.354,4.907,21.682
				c3.563,27.424-1.705,53.889-9.962,79.843c-4.844,15.227-12.312,29.109-24.535,39.87c-5.427,4.778-11.269,8.935-19.572,7.472
				c-0.774-5.04-1.705-9.875-2.222-14.754c-0.813-7.686-1.713-15.391-1.919-23.105c-0.37-13.907,11.367-26.007,25.267-26.6
				c1.584-0.068,3.164-0.239,5.126-0.392c-5.897-5.596-14.092-5.944-21.185-1.248c-2.146,1.42-4.249,2.904-7.659,3.319
				c0.588-2.888,0.983-5.833,1.798-8.656c3.703-12.814,7.962-25.47,16.071-36.256c5.209-6.928,11.635-12.632,21.68-13.97
				c-3.884-3.813-7.739-3.338-11.047-1.733c-3.912,1.899-7.467,4.621-10.957,7.274c-2.41,1.833-4.449,4.155-7.172,6.495
				C728.986,443.927,732.94,424.982,736.99,405.366z"/>
			<path fill="#633B30" d="M663.445,772.209c-1.697,0.979-2.641,0.586-4.853,2.396c-5.585,4.569-12.253,7.959-15.884,14.724
				c-1.411,2.629-3.277,5.187-5.471,7.191c-8.568,7.829-16.477,13.815-26.066,20.848c-11.625,8.526-28.322,14.754-40.183,18.014
				c-10.81,2.972-22.128,4.813-33.317,5.432c-7.219,0.399-14.61-2.296-21.921-3.622c-23.231,0.75-27.224-5.812-37.256-11.707
				c-7.843-4.609-15.689-9.213-23.515-13.851c-10.621-6.294-18.781-15.039-25.387-25.375c-2.376-3.717-17.525-11.44-19.797-15.214
				c0,0,0.532-5.832,0.58-8.488c25.547,14.177,63.558,26.831,92.266,31.613c11.123,1.853,22.452,2.747,33.726,3.31
				c6.556,0.328,13.234-0.534,19.777-1.437c25.735-3.553,51.456-7.367,75.487-17.976c8.588-3.791,16.836-8.351,25.252-12.536
				c1.671-0.831,3.396-1.551,6.171-2.81C663.231,766.283,663.361,768.905,663.445,772.209z"/>
			<g>
				<path fill="#B4433D" d="M235.378,1977.06c-5.125-1.449-10.251-2.898-16.019-4.302c-23.268-6.922-45.893-13.948-68.48-24.02
					c-0.667-0.297-1.051-1.015-0.934-1.735c1.365-8.358,2.733-16.594,4.044-24.84c4.344-27.321,9.128-54.582,12.865-81.986
					c3.772-27.66,6.651-55.447,9.607-83.212c1.201-11.276,1.733-22.632,2.288-33.965c1.138-23.221,2.559-46.443,2.986-69.681
					c0.474-25.798,0.058-51.615-0.162-77.422c-0.066-7.734-0.771-15.463-1.254-24.743c-0.257-17.01-0.445-32.477-0.539-48.656
					c0-0.049-0.003-0.099-0.007-0.148c-0.32-3.672-1.025-6.636-1.085-9.612c-0.674-33.347-1.244-66.695-1.856-100.043
					c-0.03-1.653-0.192-3.304-0.208-5.707c-0.555-15.647-1.189-30.585-1.824-45.486c-0.033-0.768-0.613-1.406-1.374-1.519
					c-12.538-1.855-24.396-3.469-36.197-5.419c-34.548-5.708-67.725-15.829-99.269-31.161c-3.431-1.668-7.109-2.827-11.01-4.665
					c-0.04-0.019-0.081-0.04-0.119-0.062c-4.015-2.279-7.7-4.118-11.382-5.953c-0.066-0.033-0.13-0.071-0.191-0.113
					c-16.41-11.265-32.844-22.495-49.206-33.83c-2.636-1.826-5.03-4.003-7.759-6.286c-0.564-0.472-0.744-1.266-0.423-1.928
					c0.901-1.858,1.7-3.724,2.853-5.336c24.774-34.623,41.034-73.436,55.457-113.104c16.57-45.573,32.484-91.386,49.314-136.861
					c8.183-22.111,18.245-43.502,31.726-62.999c20.356-29.439,47.206-49.722,82.901-56.719c12.219-2.395,24.607-3.913,37.099-1.402
					c7.625,1.533,14.235-0.343,21.249-4.177c22.439-12.267,46.348-21.226,70.851-28.499c9.82-2.915,19.789-5.33,30.254-7.327
					c0.851-0.162,1.692,0.386,1.876,1.233c1.083,4.994,1.692,9.513,2.315,14.574c0.006,0.047,0.014,0.097,0.023,0.144
					c0.401,1.958,0.895,3.252,1.14,4.592c4.262,23.324,11.688,45.544,22.756,66.558c15.707,29.821,38.871,52.531,67.809,69.049
					c38.742,22.114,80.593,29.48,124.966,24.488c27.414-3.084,53.084-10.82,76.847-24.689c24.29-14.177,44.859-32.545,59.92-56.448
					c6.026-9.564,11.367-19.704,15.783-30.108c7.363-17.348,12.862-35.362,15.56-54.796c0.716-4.895,1.295-9.288,1.858-13.623
					c0.121-0.934,1.019-1.566,1.939-1.364c36.142,7.951,71,19.651,103.684,37.145c6.705,3.589,13.025,4.193,19.927,3.223
					c22.667-3.185,44.136,1.057,64.683,10.491c29.175,13.396,49.485,35.924,64.831,63.537
					c15.693,28.235,27.129,58.293,37.988,88.573c13.475,37.575,26.242,75.406,39.856,112.93c9.952,27.429,22.97,53.504,37.439,78.83
					c2.744,4.803,6.175,9.212,9.227,13.843c1.708,2.592,3.327,5.242,5.104,8.089c0.429,0.687,0.283,1.593-0.345,2.104
					c-18.011,14.655-36.387,27.659-56.83,39.524c-4.355,2.232-7.732,4.001-11.651,5.974
					c-46.118,24.258-95.173,36.329-146.131,41.713c-0.687,0.073-1.258,0.576-1.402,1.251c-3.295,15.423-1.294,30.366-1.859,45.927
					c-0.568,12.364-1.281,23.942-1.571,35.532c-0.67,26.816-1.136,53.636-1.722,81.228c-0.524,10.98-1.043,21.186-1.469,31.396
					c-0.092,2.198,0.212,4.41,0.229,6.616c0.024,3.234-0.047,6.469-0.078,9.703c-5.867,132.901,5.686,264.434,31.27,395.282
					c0.142,0.725-0.229,1.456-0.9,1.766c-21.93,10.144-44.79,17.108-68.192,24.291c-0.033,0.01-0.068,0.02-0.102,0.028
					c-5.398,1.277-10.207,2.429-16.201,4.018c-3.657,0.846-6.165,1.075-8.577,1.684c-54.952,13.876-110.693,23.111-167.149,27.827
					c-29.832,2.492-59.708,4.987-89.613,5.909c-27.438,0.846-54.941-0.366-82.414-0.765c-37.755-0.547-75.362-3.433-112.736-8.634
					c-29.905-4.162-59.719-9.064-89.454-14.313C270.48,1985.345,252.981,1980.909,235.378,1977.06 M171.684,1202.869
					c-0.008-4.443,0.073-8.889-0.039-13.33c-0.406-16.067-0.993-32.132-1.21-48.201c-0.032-2.347,1.089-4.71,1.887-7.069
					c0.208-0.615,0.782-1.034,1.431-1.067c0.007,0,0.015-0.001,0.022-0.001c0.641-0.033,1.228,0.326,1.521,0.897
					c1.154,2.242,2.634,4.44,2.952,6.795c1.926,14.247,3.842,28.514,5.057,42.833c1.497,17.649,2.496,35.347,3.349,53.042
					c0.814,16.886,1.34,33.791,1.68,50.694c0.724,36.062,1.26,72.128,1.838,108.193c0.125,7.776-0.083,15.56,0.196,23.329
					c0.288,8.018,0.932,16.026,1.513,24.031c1.039,14.327,2.364,28.636,3.166,42.976c0.805,14.383,1.145,28.793,1.637,43.193
					c0.624,18.282,1.741,36.569,1.677,54.85c-0.131,37.452-0.792,74.903-1.479,112.35c-0.249,13.553-1.108,27.098-1.857,40.638
					c-0.373,6.748-0.904,13.486-1.636,20.205c-2.054,18.857-4.238,37.701-6.433,56.542c-1.76,15.106-3.214,30.261-5.502,45.289
					c-3.745,24.596-7.962,49.124-12.235,73.636c-0.655,3.76,0.202,5.885,3.602,7.159c2.596,0.973,5.198,1.933,7.811,2.858
					c30.869,10.934,62.216,20.27,94.344,26.653c27.121,5.388,54.301,10.636,81.635,14.745c22.126,3.326,44.498,5.104,66.802,7.124
					c20.934,1.896,41.902,4.154,62.89,4.583c44.113,0.902,88.251,0.923,132.345-1.466c0.831-0.045,1.663-0.094,2.492-0.173
					c16.238-1.547,32.48-3.053,48.712-4.664c11.834-1.175,23.722-2.044,35.466-3.838c22.134-3.38,44.196-7.239,66.26-11.059
					c39.938-6.916,78.994-17.274,117.283-30.528c4.586-1.588,9.016-3.623,13.818-5.625c0.634-0.264,1.03-0.905,0.986-1.591
					c-0.186-2.91-0.246-5.589-0.677-8.206c-1.346-8.184-3.128-16.301-4.313-24.506c-4.108-28.455-8.283-56.904-11.955-85.417
					c-3.035-23.574-5.647-47.211-7.964-70.868c-1.564-15.967-2.498-32.004-3.329-48.031c-0.833-16.051-1.653-32.127-1.638-48.191
					c0.02-22.454,0.732-44.91,1.318-67.36c0.398-15.235,1.112-30.462,1.64-45.693c0.586-16.897,1.123-33.796,1.679-50.693
					c0.556-16.895,1.155-33.789,1.653-50.687c0.604-20.508,1.154-41.019,1.667-61.529c0.589-23.565,0.777-47.145,1.77-70.692
					c0.799-18.956-0.643-37.802,2.621-56.945c3.744-21.959,2.558-44.724,4.185-67.09c1.021-14.046,3.221-28.01,5.033-41.992
					c0.262-2.024,0.646-4.298,3.577-5.131c0.898-0.255,1.814,0.367,1.969,1.288c0.43,2.554,0.975,5.12,0.985,7.687
					c0.083,20.54-0.001,41.081-0.113,63.061c0,0.028-0.001,0.057-0.003,0.085c-2.3,38.191-3.557,76.402-3.193,114.435
					c0.007,0.685,0.451,1.29,1.099,1.514c6.27,2.165,11.582-0.027,16.898-0.757c6.793-0.933,13.535-2.234,21.644-3.402
					c20.162-3.885,39.956-9.099,59.326-15.968c33-11.702,62.802-29.179,90.808-49.925c4.262-3.157,4.197-3.989,1.417-8.962
					c-6.226-11.135-12.784-22.107-18.526-33.488c-14.264-28.272-25.619-57.762-36.106-87.621
					c-13.69-38.98-27.344-77.981-41.798-116.68c-8.541-22.868-18.738-45.088-32.865-65.249
					c-21.388-30.524-50.557-47.401-87.764-50.152c-2.152-0.159-4.349,0.281-6.937,0.684c-1.131,0.176-1.725,1.457-1.123,2.431
					c5.645,9.131,14.438,14.993,18.11,24.385c0.535,1.368-0.867,2.703-2.185,2.056c-8.383-4.112-14.759-11.072-22.588-15.815
					c-9.246-5.6-18.326-11.51-27.821-16.652c-9.249-5.008-18.755-9.641-28.472-13.655c-9.981-4.123-20.305-7.447-30.569-10.845
					c-9.309-3.083-18.721-5.852-27.382-8.513c-0.855-0.263-1.755,0.232-2.007,1.09c-5.199,17.747-9.522,34.685-15.278,51.123
					c-7.667,21.894-19.052,41.964-34.74,59.206c-19.255,21.163-41.824,37.776-68.168,49.45
					c-26.546,11.764-54.343,16.974-83.067,17.981c-16.375,0.574-32.561-1.676-48.657-4.707
					c-34.652-6.526-65.064-21.856-91.687-44.617c-30.47-26.05-49.578-59.321-59.972-97.776c-2.737-10.127-5.06-20.366-7.637-30.933
					c-0.203-0.832-1.029-1.362-1.87-1.198c-1.441,0.282-2.823,0.534-4.152,0.953c-13.223,4.165-26.524,8.111-39.617,12.657
					c-20.776,7.214-40.586,16.532-58.884,28.842c-10.346,6.96-20.576,14.091-30.86,21.141c-1.943,1.332-3.744,3.071-6.866,3.226
					c-1.199,0.059-2.062-1.173-1.563-2.265c4.757-10.416,15.131-15.744,20.758-24.588c0.393-0.619,0.302-1.452-0.226-1.961
					c-2.869-2.764-6.332-1.679-9.427-1.626c-2.458,0.042-4.888,1.035-7.358,1.212c-26.227,1.872-47.743,13.947-65.966,31.874
					c-11.473,11.286-20.323,24.824-27.683,39.279c-14.259,28.005-25.307,57.326-35.86,86.838
					c-12.138,33.947-23.615,68.132-35.919,102.017c-11.572,31.87-25.941,62.478-43.786,91.384c-0.932,1.51-1.653,3.149-2.532,4.989
					c-0.333,0.697-0.111,1.54,0.516,1.992c3.706,2.673,7.169,5.148,10.601,7.667c15.915,11.683,32.706,22.015,50.369,30.744
					c19.163,9.471,39.195,16.961,59.861,22.503c10.926,2.93,22.081,5.007,34.456,7.746c12.101,2.197,24.145,5.072,37.417,4.284
					c0.863-0.051,1.526-0.797,1.497-1.661C174.13,1281.266,172.857,1242.807,171.684,1202.869z"/>
				<path fill="#F87360" d="M135.197,1317.744c-11.052-2.462-22.206-4.539-33.132-7.469c-20.666-5.542-40.698-13.033-59.861-22.503
					c-17.663-8.729-34.455-19.06-50.369-30.744c-3.432-2.519-6.895-4.995-10.601-7.667c-0.627-0.452-0.849-1.294-0.516-1.992
					c0.879-1.84,1.6-3.479,2.532-4.989c17.844-28.906,32.214-59.514,43.786-91.384c12.304-33.885,23.78-68.07,35.919-102.017
					c10.553-29.512,21.6-58.833,35.86-86.838c7.36-14.454,16.211-27.993,27.683-39.279c18.223-17.926,39.739-30.001,65.966-31.874
					c2.47-0.176,4.9-1.17,7.358-1.212c3.095-0.053,6.558-1.138,9.427,1.626c0.528,0.509,0.62,1.342,0.226,1.961
					c-5.627,8.845-16.001,14.173-20.758,24.588c-0.499,1.092,0.364,2.325,1.563,2.265c3.123-0.155,4.924-1.894,6.866-3.226
					c10.284-7.051,20.515-14.181,30.86-21.141c18.298-12.31,38.108-21.628,58.884-28.842c13.092-4.546,26.393-8.493,39.617-12.657
					c1.329-0.419,2.711-0.671,4.152-0.953c0.841-0.164,1.667,0.366,1.87,1.198c2.577,10.567,4.899,20.806,7.637,30.933
					c10.395,38.455,29.503,71.726,59.972,97.776c26.623,22.761,57.035,38.091,91.687,44.617c16.096,3.031,32.282,5.282,48.657,4.707
					c28.725-1.007,56.522-6.217,83.067-17.981c26.344-11.674,48.913-28.287,68.168-49.45c15.688-17.242,27.073-37.312,34.74-59.206
					c5.756-16.437,10.079-33.376,15.278-51.123c0.251-0.858,1.152-1.352,2.007-1.09c8.661,2.661,18.073,5.43,27.382,8.513
					c10.265,3.399,20.588,6.722,30.569,10.845c9.717,4.014,19.223,8.647,28.472,13.655c9.495,5.142,18.575,11.052,27.821,16.652
					c7.829,4.742,14.205,11.702,22.588,15.815c1.319,0.647,2.72-0.688,2.185-2.056c-3.673-9.392-12.466-15.254-18.11-24.385
					c-0.602-0.974-0.008-2.254,1.123-2.431c2.589-0.403,4.785-0.843,6.937-0.684c37.207,2.751,66.376,19.627,87.764,50.152
					c14.127,20.161,24.324,42.381,32.865,65.249c14.453,38.699,28.108,77.701,41.798,116.68
					c10.487,29.859,21.842,59.349,36.106,87.621c5.742,11.381,12.3,22.352,18.526,33.488c2.78,4.973,2.845,5.804-1.417,8.962
					c-28.006,20.746-57.807,38.223-90.808,49.925c-48.586,18.292-94.83,23.863-97.059,20.335c-0.419-0.663-1.704-0.299-1.786-1.079
					c-1.827-17.307,0.3-24.922,0.239-48.885c-0.125-23.395,0.864-27.092,1.625-44.174c-0.084-18.221,1.301-27.446,1.312-35.086
					c0.033-22.298,0.092-29.745,0.01-50.077c-0.01-2.568-0.555-5.133-0.985-7.687c-0.155-0.921-1.071-1.543-1.969-1.288
					c-2.931,0.833-3.315,3.107-3.577,5.131c-1.812,13.982-4.011,27.946-5.033,41.992c-1.627,22.366-0.441,45.131-4.185,67.09
					c-3.264,19.143-1.822,37.989-2.621,56.945c-0.993,23.547-1.181,47.127-1.77,70.692c-0.513,20.511-1.064,41.021-1.667,61.529
					c-0.497,16.897-1.097,33.791-1.653,50.687c-0.556,16.898-1.093,33.797-1.679,50.693c-0.528,15.232-1.242,30.458-1.64,45.693
					c-0.586,22.451-1.297,44.906-1.318,67.36c-0.015,16.064,0.806,32.14,1.638,48.191c0.831,16.026,1.766,32.064,3.329,48.031
					c2.317,23.657,4.929,47.293,7.964,70.868c3.671,28.513,7.847,56.963,11.955,85.417c1.184,8.205,2.966,16.322,4.313,24.506
					c0.431,2.617,0.491,5.296,0.677,8.206c0.044,0.686-0.352,1.327-0.986,1.591c-4.801,2.002-9.232,4.037-13.818,5.625
					c-38.289,13.255-77.345,23.612-117.283,30.528c-22.064,3.821-44.127,7.68-66.26,11.059c-11.744,1.793-23.632,2.663-35.466,3.838
					c-16.232,1.611-32.474,3.118-48.712,4.664c-0.828,0.079-1.66,0.128-2.492,0.173c-44.093,2.39-88.231,2.368-132.345,1.466
					c-20.987-0.429-41.955-2.687-62.89-4.583c-22.303-2.02-44.676-3.799-66.802-7.124c-27.334-4.109-54.514-9.356-81.635-14.745
					c-32.127-6.383-63.474-15.719-94.344-26.653c-2.613-0.926-5.215-1.885-7.811-2.858c-3.4-1.274-4.258-3.398-3.602-7.159
					c4.273-24.512,8.489-49.039,12.235-73.636c2.288-15.027,3.742-30.183,5.502-45.289c2.195-18.842,4.379-37.685,6.433-56.542
					c0.732-6.718,1.263-13.457,1.636-20.205c0.749-13.54,1.608-27.084,1.857-40.638c0.687-37.447,1.348-74.898,1.479-112.35
					c0.064-18.281-1.053-36.568-1.677-54.85c-0.492-14.4-0.832-28.81-1.637-43.193c-0.802-14.34-2.127-28.649-3.166-42.976
					c-0.581-8.005-1.224-16.013-1.513-24.031c-0.279-7.769-0.071-15.553-0.196-23.329c-0.578-36.065-1.114-72.131-1.838-108.193
					c-0.34-16.903-0.866-33.808-1.68-50.694c-0.853-17.694-1.851-35.393-3.349-53.042c-1.215-14.32-3.131-28.586-5.057-42.833
					c-0.318-2.355-1.799-4.553-2.952-6.795c-0.294-0.571-0.88-0.93-1.521-0.897l-0.022,0.001c-0.649,0.033-1.222,0.452-1.431,1.067
					c-0.799,2.359-1.919,4.721-1.887,7.069c0.217,16.069,0.804,32.134,1.21,48.201c0.112,4.441,0.25,38.686,1.645,64.29
					c1.536,28.186,3.134,59.252,2.398,67.032c-0.074,0.785-0.701,1.393-1.488,1.448
					C170.013,1322.606,155.834,1323.041,135.197,1317.744z"/>
			</g>
			<path fill="#0D0A08" d="M572.25,379.598c-5.66,1.646-10.645,3.152-16.172,4.822c-0.37-2.09-0.879-3.622-0.875-5.153
				c0.027-10.273,0.353-20.55,0.178-30.818c-0.08-4.698,1.908-7.121,6.13-8.559c29.138-9.921,57.697-9.784,85.431,4.793
				c9.008,4.734,16.311,11.448,22.025,19.861c0.927,1.364,2.109,2.868,2.256,4.396c0.839,8.71,1.4,17.447,2.195,28.027
				C641.694,374.564,608.136,371.774,572.25,379.598 M653.345,355.385c-7.233-3.37-14.23-7.452-21.751-9.956
				c-13.804-4.597-28.275-5.212-42.651-3.982c-7.062,0.605-14.008,2.881-20.914,4.744c-1.6,0.431-3.918,2.167-4.035,3.47
				c-0.679,7.557-1.037,15.179,0.178,23.672c18.075-4.455,35.273-6.57,52.708-5.386c17.61,1.195,33.262,8.805,49.258,16.713
				c1.722-9.728,1.619-17.628-6.456-23.358C657.672,359.877,656.073,357.874,653.345,355.385z"/>
			<path fill="#4F2E25" d="M473.256,621.29c1.004-0.765,2.202-1.36,3.82-1.485c12.42-0.961,23.977-3.844,35.912-5.998
				c19.498-3.52,38.775-4.492,58.048,1.672c6.063,1.939,12.462,3.046,18.846,3.77c4.877,0.553,8.29,1.214,9.728,3.044
				c-12.131,9.014-29.198,12.721-43.262,13.707c-17.105,1.201-34.317,0.638-51.112-3.33
				C494.285,630.083,482.865,627.739,473.256,621.29z"/>
			<path fill="#0D0A08" d="M424.674,345.557c19.018-10.773,38.853-14.572,59.81-11.448c9.267,1.381,18.384,3.81,27.526,5.947
				c2.83,0.662,4.826,2.26,4.921,5.763c0.308,11.354,0.89,22.7,1.283,34.051c0.045,1.288-0.438,2.594-0.801,4.57
				c-40.394-13.301-79.264-13.491-115.593,11.049c-4.157-10.696-1.692-27.677,5.938-35.653
				C412.694,354.677,418.654,350.499,424.674,345.557 M412.665,361.231c-7.207,6.517-9.079,14.434-6.529,24.242
				c1.947-1.005,3.429-1.645,4.784-2.49c13.875-8.66,29.133-13.572,45.262-14.885c14.893-1.213,29.843-0.447,44.465,3.441
				c2.737,0.728,5.648,0.804,9.497,1.317c0-6.365,0.028-11.572-0.006-16.778c-0.059-8.835-0.339-9.089-8.632-11.369
				c-17.41-4.785-35.055-5.002-52.556-1.433C435.881,345.941,423.495,350.866,412.665,361.231z"/>
			<path fill="#42231B" d="M557.049,488.994c3.699,11.951,9.413,21.706,18.152,30.043c11.346,10.824,18.908,23.919,18.339,40.334
				c-0.355,10.247-4.457,18.771-12.915,24.875c-13.663,9.861-28.756,12.586-44.974,8.317c-11.575-3.047-22.545-7.655-32.465-14.488
				c-0.578-0.398-1.007-1.011-1.553-1.764c-0.399-0.55-0.033-1.327,0.645-1.375c3.08-0.22,5.003,1.786,7.19,2.999
				c14.99,8.315,30.813,12.87,47.813,8.063c12.224-3.457,22.544-10.092,24.89-23.868c0.773-4.539-0.191-9.579-1.285-14.197
				c-1.866-7.877-6.117-14.929-11.976-20.516c-14.834-14.144-20.463-32.247-21.887-51.847c-0.782-10.767-0.975-21.725,0.105-32.441
				c1.213-12.034,4.131-23.898,6.403-35.818c0.142-0.745,0.553-1.439,1.261-2.039c0.563-0.477,1.429,0.022,1.351,0.756
				c-1.44,13.474-3.153,26.928-4.148,40.435C550.949,460.665,553.766,474.551,557.049,488.994z"/>
			<path fill="#090706" d="M472.965,621.105c10.186,6.554,21.32,8.978,32.27,11.565c16.796,3.969,34.007,4.531,51.112,3.33
				c14.064-0.987,27.85-4.055,40.263-12.488c6.642-4.324,13.07-8.066,19.381-11.995c2.696-1.679,5.149-3.747,8.764-6.415
				c0.083,5.393-2.417,7.585-4.617,9.89c-13.858,14.517-30.95,23.361-50.389,27.307c-28.502,5.786-56.701,4.966-84.151-5.849
				c-12.293-4.843-23.008-12.109-32.791-20.835c-1.989-1.774-4.076-3.802-2.91-7.937
				C457.609,612.245,464.999,616.622,472.965,621.105z"/>
			<path fill="#42231B" d="M464.533,549.347c3.391-3.355,7.132-6.035,11.114-8.27c0.399-0.224,1.263-0.679,2.098-0.503
				c0.709,0.149,1.186,0.502,1.474,0.911c0.289,0.408,0.387,0.911,0.293,1.468c-0.17,1.004-1.518,1.923-1.96,2.245
				c-4.344,3.163-7.609,7.187-9.644,12.237c-2.392,5.935-2.336,10.731,2.802,14.45c3.847,2.785,8.822,4.564,12.737,6.84
				c0.895,0.521,0.63,1.862-0.39,2.036c-7.284,1.245-13.323,0.012-18.169-3.9c-2.253-1.819-6.405-4.945-6.928-10.257
				C457.216,559.048,459.819,554.011,464.533,549.347z"/>
			<path fill="#42231B" d="M581.51,680.661c-12.627,14.427-27.282,13.797-43.244,7.869c-0.369-0.137-0.498-0.607-0.252-0.915
				c1.982-2.483,4.746-1.425,6.957-1.378c6.77,0.146,13.221-0.988,19.399-3.733c8.643-3.84,15.153-10.05,20.092-18.024l0.017-0.027
				c0.843-1.355,2.879-1.097,3.379,0.419C588.974,668.258,587.604,670.677,581.51,680.661z"/>
			<path fill="#42231B" d="M603.498,536.24c0.154-0.103,0.534,0.007,0.691,0.069c7.629,2.99,11.792,9.152,13.914,16.597
				c3.048,10.694-4.043,21.284-15.249,23.869c-0.553,0-0.459-0.495-0.298-0.672c8.875-11.739,7.93-23.834,1.405-36.174
				c-0.368-0.696-0.701-1.251-0.827-2.725C603.162,536.541,603.257,536.401,603.498,536.24z"/>
			<path fill="#090706" d="M685.156,227.911c-0.727-0.193-1.424-0.419-2.121-0.644c0.591-0.039,1.182-0.079,1.989,0.212
				C685.24,227.809,685.186,227.879,685.156,227.911z"/>
			<path fill="#262B31" d="M653.815,355.761c2.258,2.113,3.857,4.116,5.867,5.542c8.075,5.73,8.178,13.63,6.456,23.358
				c-15.996-7.908-31.648-15.517-49.258-16.713c-17.435-1.184-34.633,0.931-52.708,5.386c-1.215-8.493-0.857-16.115-0.178-23.672
				c0.117-1.303,2.436-3.039,4.035-3.47c6.906-1.863,13.852-4.139,20.914-4.744c14.375-1.231,28.847-0.615,42.651,3.982
				C639.115,347.934,646.111,352.015,653.815,355.761z"/>
			<path fill="#262B31" d="M413.097,360.8c10.398-9.934,22.784-14.859,35.854-17.524c17.501-3.569,35.146-3.352,52.556,1.433
				c8.293,2.28,8.573,2.534,8.632,11.369c0.035,5.206,0.006,10.413,0.006,16.778c-3.85-0.513-6.76-0.589-9.497-1.317
				c-14.622-3.888-29.572-4.653-44.465-3.441c-16.129,1.313-31.387,6.225-45.262,14.885c-1.354,0.845-2.837,1.485-4.784,2.49
				C403.587,375.666,405.458,367.748,413.097,360.8z"/>
			<g>
				<path fill="#F5F7F7" d="M429.064,447.796c-5.088-7.951-4.069-16.631-3.917-25.579c0.447-1.881,0.365-3.435,1.08-4.398
					c6.77-9.111,15.731-14.811,26.761-17.725c18.399-4.861,42.924-0.473,52.454,18.415c3.492,9.942,0.157,18.785-1.944,28.178
					c-6.122,9.243-14.789,13.783-24.596,16.135c-17.062,4.092-32.175-0.19-45.553-11.4 M491.16,423.214
					c-4.35-7.504-10.935-11.088-19.444-9.763c-7.733,1.204-13.066,5.87-15.013,13.7c-2.168,8.722,0.708,15.638,8.041,20.695
					c3.359,2.317,6.998,4.06,11.254,3.122C489.62,447.965,495.503,437.968,491.16,423.214z"/>
				<g>
					<path fill="#090706" d="M505.754,437.933c-0.047-0.09-0.026-0.434-0.009-0.67c0.162-2.19,2.587-10.449-2.318-20.724
						c-8.201-17.181-32.979-21.058-50.44-16.445c-8.677,2.292-15.716,6.052-21.901,12.189c-3.767,3.737-5.921,8.811-5.861,14.117
						c0.087,7.762,0.633,13.809,5.852,22.278c-0.088,0.099-2.406,1.406-3.045,0.902c-0.493-0.389-3.557-8.208-3.767-9.201
						c-1.157-5.484-1.726-15.803-1.726-15.803c-0.565-15.761,7.279-25.717,19.438-31.424c18.191-8.537,36.437-8.701,53.397,3.499
						c5.983,4.304,10.745,9.428,12.368,19.949c2.475,16.043-0.375,20.741-0.781,21.837
						C506.443,438.622,505.971,438.334,505.754,437.933z"/>
					<path fill="#0F0D0C" d="M428.032,449.581c1.641-1.753,2.126-2.409,3.045-0.902c0.516,0.846,1.611,2.19,2.271,2.743
						c13.379,11.211,28.491,15.492,45.553,11.4c8.226-1.973,15.422-5.504,21.331-12.029c1.137-1.255,3.684-5.04,5.588-14.162
						c0.332-0.211,2.102-1.37,1.949-0.342c-0.161,1.084-0.669,3.476-0.97,4.846c-0.828,3.771-2.509,7.768-2.98,9.018
						c-0.414,1.099-1.093,2.279-1.926,3.348c-19.166,24.582-58.792,19.389-72.139-1.337
						C429.307,451.469,428.797,450.813,428.032,449.581z"/>
				</g>
				<path fill="#090706" d="M491.434,423.801c4.069,14.167-1.815,24.164-15.437,27.167c-4.255,0.938-7.895-0.805-11.254-3.122
					c-7.332-5.057-10.209-11.972-8.041-20.695c1.947-7.83,7.28-12.496,15.013-13.7C480.225,412.126,486.81,415.709,491.434,423.801
					 M483.74,428.189c0.679-2.802,0.975-5.952-2.464-6.631c-2.309-0.455-5.573,0.132-7.234,1.591
					c-1.027,0.902-0.634,4.877,0.512,6.476c1.991,2.778,5.144,2.475,7.915,0.415C482.685,429.878,482.864,429.667,483.74,428.189z"
					/>
				<path fill="#F5F7F7" d="M570.428,449.471c-1.463-5.321-3.661-10.487-4.461-15.861c-1.692-11.365,2.422-20.589,11.819-27.414
					c19.132-13.894,50.224-8.288,64.29,6.172c8.825,9.072,8.447,27.658-0.795,37.219c-19.179,19.84-53.449,19.431-70.265-0.096
					C570.476,449.349,570.327,449.532,570.428,449.471 M616.784,429.317c-0.833-2.333-1.36-4.837-2.554-6.969
					c-4.083-7.295-12.74-10.763-20.691-8.551c-8.628,2.4-13.989,9.609-13.764,18.506c0.225,8.877,6.165,15.661,14.777,17.694
					C603.713,452.16,617.459,445.415,616.784,429.317z"/>
				<path fill="#DDE6E6" d="M483.401,428.834c-0.536,0.833-0.715,1.044-0.932,1.205c-2.771,2.061-5.924,2.363-7.915-0.415
					c-1.146-1.599-1.539-5.574-0.512-6.476c1.661-1.459,4.925-2.046,7.234-1.591C484.715,422.236,484.419,425.387,483.401,428.834z"
					/>
				<path fill="#0D0A08" d="M616.829,429.99c0.63,15.425-13.116,22.17-22.276,20.008c-8.612-2.033-14.552-8.817-14.777-17.694
					c-0.225-8.897,5.136-16.106,13.764-18.506c7.951-2.212,16.607,1.257,20.691,8.551
					C615.423,424.48,615.951,426.984,616.829,429.99 M605.217,432.184c0.444-0.32,1.037-0.545,1.308-0.974
					c2.662-4.215,2.37-7.119-0.845-9.078c-2.761-1.682-6.105-0.795-7.799,2.069c-1.919,3.245-0.619,6.31,3.7,8.378
					C602.246,432.897,603.195,432.625,605.217,432.184z"/>
				<path fill="#DDE6E6" d="M604.615,432.405c-1.42,0.22-2.368,0.492-3.034,0.173c-4.319-2.068-5.619-5.133-3.7-8.378
					c1.694-2.864,5.038-3.751,7.799-2.069c3.215,1.959,3.507,4.863,0.845,9.078C606.254,431.639,605.661,431.864,604.615,432.405z"
					/>
				<g>
					<path fill="#090706" d="M565.69,438.191c-0.405-1.096-3.255-5.794-0.781-21.837c1.623-10.521,6.385-15.645,12.368-19.949
						c16.961-12.2,35.207-12.036,53.397-3.499c12.159,5.706,20.003,15.663,19.438,31.424c0,0-0.569,10.319-1.726,15.803
						c-0.209,0.993-3.273,8.812-3.767,9.201c-0.639,0.504-2.957-0.803-3.045-0.902c5.219-8.469,5.765-14.516,5.852-22.278
						c0.059-5.306-2.095-10.38-5.861-14.117c-6.185-6.137-13.225-9.897-21.901-12.189c-17.461-4.613-42.238-0.736-50.44,16.445
						c-4.904,10.274-2.479,18.534-2.318,20.724c0.017,0.235,0.038,0.58-0.009,0.67C566.68,438.086,566.208,438.375,565.69,438.191z"
						/>
					<path fill="#0F0D0C" d="M642.897,451.917c-13.347,20.725-52.973,25.919-72.139,1.337c-0.833-1.069-1.512-2.249-1.926-3.348
						c-0.471-1.25-2.153-5.247-2.98-9.018c-0.301-1.37-0.809-3.761-0.97-4.846c-0.153-1.029,1.617,0.131,1.949,0.342
						c1.904,9.122,4.452,12.908,5.588,14.162c5.91,6.524,13.106,10.056,21.331,12.029c17.062,4.092,32.175-0.19,45.553-11.4
						c0.661-0.553,1.756-1.898,2.271-2.743c0.919-1.507,1.404-0.851,3.045,0.902C643.854,450.565,643.345,451.221,642.897,451.917z"
						/>
				</g>
			</g>
		</g>
	</g>
</g>
</svg>
