<?xml version="1.0" encoding="utf-8"?>
<!-- Generator: Adobe Illustrator 27.9.1, SVG Export Plug-In . SVG Version: 6.00 Build 0)  -->
<svg version="1.1" id="Layer_1" xmlns="http://www.w3.org/2000/svg" xmlns:xlink="http://www.w3.org/1999/xlink" x="0px" y="0px"
	 viewBox="0 0 1072.4 1072.4" style="enable-background:new 0 0 1072.4 1072.4;" xml:space="preserve">
<style type="text/css">
	.st0{fill:#F2F2F2;enable-background:new    ;}
	.st1{clip-path:url(#SVGID_00000157283292373528757020000011779037416370953857_);}
	.st2{fill:#F87360;}
	.st3{fill:#F7CBA5;}
	.st4{fill:#E9B790;}
	.st5{fill:#F6CAA4;}
	.st6{fill:#BB885A;}
	.st7{fill:#F6C8A2;}
	.st8{fill:#F3C69F;}
	.st9{fill:#2A2933;}
	.st10{fill:#BC895C;}
	.st11{fill:#090605;}
	.st12{fill:#424344;}
	.st13{fill:#F0D3B4;}
	.st14{fill:#313534;}
	.st15{fill:#C39A73;}
	.st16{fill:#C7A481;}
	.st17{fill:#EDF5F5;}
	.st18{fill:#DFE1E1;}
	.st19{fill:#D8DDDC;}
	.st20{fill:#BA885B;}
	.st21{fill:#343139;}
	.st22{fill:#5F6467;}
	.st23{fill:#8B8F91;}
	.st24{fill:#5E6366;}
	.st25{fill:#4B4B4A;}
	.st26{fill:#434445;}
	.st27{fill:#B5443E;}
	.st28{fill:#070504;}
	.st29{fill:#C29063;}
	.st30{fill:#C18F62;}
</style>
<ellipse id="Ellipse_891_00000045583436995987751780000007934555460377413817_" class="st0" cx="536.2" cy="536.2" rx="536.2" ry="536.2"/>
<g>
	<g>
		<defs>
			<circle id="SVGID_1_" cx="536.2" cy="536.2" r="536.2"/>
		</defs>
		<clipPath id="SVGID_00000045583325003926780810000013776560076846339984_">
			<use xlink:href="#SVGID_1_"  style="overflow:visible;"/>
		</clipPath>
		<g style="clip-path:url(#SVGID_00000045583325003926780810000013776560076846339984_);">
			<path class="st2" d="M479.4,1973.1l-1,0l-1-0.1c-8-6.6-17.1-8.5-27.2-6.4c-1.3,0.3-2.7,0.6-4,0.3c-9.4-2.2-19.1-1.5-28.5-2.9
				c-20.7-3-41.5-5.2-62.2-8.4c-53-8.1-105.7-18-156.4-36.2c-4.6-1.7-9.8-2.6-12.8-7.1c-1.2-2.5-1.4-5.2-1.2-7.9c0.1-1,0.3-2,0.5-3
				c1.2-3.2,1.3-6.6,1.7-9.9c0.1-0.9,0.3-1.9,0.6-2.8c1.1-3.1,1.1-6.3,1.2-9.6c0.6-5.1,0.9-10.3,2.7-15.2c1.6-3.6,1-7.4,1.2-11.1
				c0.7-8.3,1.4-16.6,3.6-24.7c0.2-2.1,0.2-4.1,0.5-6.2c4.6-29.1,6.6-58.4,9.6-87.7c1.4-13.9-2.1-28.1,3.2-42
				c3.3-8.4-5.6-17.2-11.3-24.9c-0.4-2.8-0.8-5.6,0.4-8.3c5.4-4.1,13.6-10.2,13.5-16.9c-0.1-20.8-0.1-41.6,0-62.4
				c0-7.1-5-13.7-9.7-18.7c-1.2-2-0.9-4.2-0.7-6.4c8.3-10.7,8.5-22.4,8.2-34.5c-0.1-5.3-9.6-7-12-10.8c-0.5-3.2-0.5-6.4-0.1-9.5
				c9.4-17.1,8.4-40.4-2-53.3c-0.7-2.7-0.6-5.3-0.1-8c9.3-17.4,13-50.1,2.8-63c-0.7-1.6-0.6-3.2-0.5-4.8c9.2-21,5.7-43.2,5.6-65
				c0-6.3-12,0.1-15.5-4.8c-0.9-2.7-2-18.9-2-21.6c7.1-22.6,3.3-48.5-5.3-70.9c3.3-11.1,16-16.3,14.8-27.6
				c-1.4-13.4-2.8-26.9-3.5-40.4c-0.4-6.8-2.4-13-7.3-18c-2.5-2.5-5.2-2.8-8.1-0.7c-5.7,4.1-6.7,10.3-7.1,16.7
				c-0.5,7.2,0.5,14.5-0.8,21.7c-0.6,2.2-1.2,4.4-1.7,6.6c-0.2,0.9-0.4,1.7-0.7,2.5c-1.3,3.2-1.2,6.6-1.7,9.9
				c-0.1,0.8-0.4,1.6-0.6,2.4c-0.6,1.5-1.1,3-1.6,4.6c-0.2,0.8-0.5,1.5-0.8,2.3c-0.8,1.9-1.2,4-1.9,5.9c-2.4,6.3-3.5,13.1-7.2,18.9
				c-1,1.9-1.5,4-1.8,6.1c-0.1,0.8-0.4,1.7-0.6,2.5c-0.8,2.4-1,5-1.2,7.5c-0.6,5.7-2.2,11.1-4.4,16.3c-1.2,2.3-1.5,4.8-1.8,7.3
				c-0.1,0.8-0.3,1.7-0.6,2.5c-0.7,2-1.2,4.1-1.7,6.2c-1.7,5.4-2.8,11-4.2,16.5c-1.1,3.2-1,6.6-2.2,9.7c-5.5,10.1-8.2,11.4-19.1,8.3
				c-21.2-6-41.7-13.4-61.5-23.3c-14.4-7.2-27.9-15.4-41.2-24.3c-1.7-1.1-3.4-2.2-4.9-3.4c-6.8-5.4-7.4-8.3-3.3-16.2
				c7-13.6,14.5-26.9,20.9-40.8c13-28.2,23.3-57.3,33.4-86.6c13.2-38.4,25.9-77,42.2-114.2c8.7-19.9,18.2-39.2,32.5-55.9
				c12.9-15.1,28.4-26,47.2-32.2c0.9-0.3,1.9-0.6,2.9-0.9c3.3-0.8,6.9-1.9,9.4,1c2.9,3.2-0.1,6.2-1.5,9c-0.6,1.2-1.2,2.4-1.8,3.5
				c-1.2,2.7-2.5,5.3-0.7,8.3c1.2,1.7,2.9,2.9,4.8,3.7c2.6,1.1,5,0.2,7.3-0.8c4.8-1.7,8.8-4.7,12.7-7.8
				c30.5-24.2,65.3-39.7,102.2-51.1c1.3-0.4,2.6-0.8,3.9-1.1c9.4-2.1,11.6-0.8,14,8.9c5.9,24.4,14.5,47.8,27.5,69.4
				c17.6,29.4,42.3,51,72.2,67.3c27.4,14.9,56.6,23.7,87.5,25.8c44.3,3,85.9-6.5,124.8-28.5c49.8-28.3,78-72.1,92.5-126.1
				c0.9-3.2,1.5-6.5,2.6-9.7c2.7-8,5.3-9.5,13.4-7.3c4.8,1.3,9.5,3.2,14.2,4.7c32.9,10.1,62.5,26.4,90,46.8c4,3,8,6.1,12.7,7.9
				c3.9,1.5,7.9,2.2,11.2-1.1c3.4-3.4,2.2-7.3,0.6-11.1c-0.7-1.5-1.7-2.9-2.4-4.4c-2.9-6.2-1.4-8.4,5.6-8.1c2.7,0.1,5.2,1,7.8,1.9
				c25.9,8.6,44.6,25.9,58.9,48.6c14.9,23.8,25.4,49.8,35.4,76c15.7,41.1,28.5,83.2,44.1,124.3c10,26.2,20.8,52,34.9,76.2
				c0.8,1.4,1.6,2.9,2.3,4.4c4,8.5,3.7,10-4.1,15.8c-30,22.3-63.2,38.2-99,48.8c-8,2.4-15.9,5.1-24.2,6.2c-2.4,0.2-4.7,0.4-7,1.1
				c-1.3,0.4-2.7,0.6-4.1,0.7c-2.7,0.2-5.3,0.3-7.9,1.2c-0.8,0.3-1.7,0.5-2.6,0.6c-3.1,0.4-6.2,0.3-9.2,1.3
				c-0.9,0.3-1.8,0.4-2.8,0.6c-2,0.2-3.9,0-5.7-1c-0.8-0.7-1.4-1.5-1.8-2.5c-0.9-2.5-0.9-5.2-1.1-7.8c-0.5-17.3-6.8-22.2-14.9-38.5
				c-0.2-1.1-4.7-14.9-4.5-16c11-16.2,5.4-24,9-44.5c-0.8-1.4,0.1-8,0-9.7c-0.2-3.2,0.9-12.9,2.1-15.9c4.7-4.7,10.8-3.6,11.3-10.2
				c1.4-4.3,1-8.7,1.1-13c0.4-9-0.8-17.6-7.8-24.2c-2.7-2.3-5.4-1.9-8,0.1c-8.7,8.3-6.9,19.7-8.6,30c-2,12.7-0.8,25.8-3.8,38.5
				c-1.8,7.7,0.7,15.2,2.3,22.7c0.2,1.5,0.1,3-0.3,4.4c-8.4,18.1-5.7,35.8,1.8,53.4c0,1.9,0.1,3.8-0.1,5.7
				c-1.7,4.3-6.8,6.5-7.3,11.5c-0.9,2.5-0.7,5-0.6,7.5c0.1,13.2,0.1,26.3,0.1,39.4c-0.1,2.7-0.1,5.3,0.8,7.9
				c0,6.7,4.9,11.9,5.2,18.5c0,2.9,0.1,5.9-0.1,8.8c-1.8,3.7-6.8,5-7.3,9.7c-0.9,2.4-0.8,4.9-0.7,7.5c-0.2,12.3,0.7,24.7-0.5,36.9
				c-0.6,3.4-2.2,6.7-0.9,10.2c0.3,1.4,0.5,2.8,0.6,4.3c0,1.4-0.2,2.8-0.6,4.2c-0.7,2.2-1.4,4.4-2,6.7c-0.8,2.3-0.8,4.7-0.8,7.1
				c0.1,8.2,0,16.3,0.1,24.5c0,8.3,2.5,15.9,6.2,23.2c0,1.5,0.1,3.1-0.4,4.5c-6.1,4.5-8.1,10.7-8,18c0.1,10.8-0.5,21.7,4.3,31.9
				c0.2,2.3-0.8,4.2-1.9,6.1c-3.4,5.2-4.1,11.1-4.1,17.1c-0.1,19.5-0.1,39,0,58.5c0.1,7.4,0.8,14.6,7.3,19.6
				c1.2,2.1,0.8,4.3,0.5,6.4c-6.7,11-8.2,22.3-2.7,34.2c0.7,1.5,0.8,3.2,0.7,4.9c-2.2,27.3,2.9,54.1,5.3,81.1
				c3.5,38.1,9.8,75.9,16,113.7c1.8,11-0.5,13.9-12.2,18.1c-51.1,18.3-104,28.5-157.4,36.7c-21.3,3.3-42.7,7-64.1,8.4
				c-12.3,0.8-24.4,6-37.2,2.3c-7.3-2.1-13.5,2-19,6.8c-1.3,0-2.6,0.1-4,0.1c-7.6-3.9-15.6-5.3-24.1-5.2c-22.6,0.2-45.2,0.2-67.8,0
				C495,1967.8,487,1969.2,479.4,1973.1z"/>
			<path class="st2" d="M141.6,1255.3c0-0.7,0-1.3,0-2c2.3-2.3-0.1-5.7,2-8c1.3-5.3,2.7-10.7,4-16c2.3-2.3-0.1-5.7,2-8
				c0-0.7,0-1.3,0-2c1.9-1.6,0.2-4.4,2-6c3.4-6.4,3.6-14,8-20c1.9-1.6,0.2-4.4,2-6c1.9-1.6,0.2-4.4,2-6c2.6-3.7-0.5-8.3,2-12
				c0-0.7,0-1.3,0-2c1.9-1.6,0.2-4.4,2-6c0.4-9.8-1-19.7,1-29.5c1.1-5.4,1.9-11.2,9-12.5c2.7-1.5,5.3-1.5,8,0
				c4.6,2.2,6.7,6.3,8,10.9c2.4,8.9,3.6,18,2.9,27.2c-0.2,2.1,0.3,3.9,0.9,5.8c1.7,5.1,3.5,10.1,0.8,15.4c-0.9,1.9,0.2,3.9,0.9,5.7
				c4,9.8,3.3,19.4-1.5,28.9c-1.1,1.3-1.8,2.9-3.8,3.1c-0.9-0.1-1.6-0.5-2.1-1.2c0-2.6-0.1-5.2-0.1-7.8c-5-10.9-3.4-22.8-4.8-34.2
				c-1.5-12.1-2.9-24.3-5.3-36.3c-1.2,14.1-2,28.3-0.7,42.3c2.2,24.3,1.1,48.4-0.2,72.5c-0.2,3.2-0.9,6.6,0.9,9.7c0,2.6,0,5.2,0,7.8
				c3.6,11.5,3.3,23.4,2.9,35.2c-0.3,10.6-4.4,12.8-14.8,8.8l0,0c-30.7-1-59.9-8.9-88.4-19.6c-30-11.3-58.1-26.2-83.5-45.8
				c-8.2-6.3-9.1-8.6-3.8-17.4c7.3-12.3,13.3-25.3,19.8-38c15.9-30.8,26.8-63.6,38-96.3c12.1-35.1,23.6-70.5,38.3-104.7
				c7.2-16.8,15-33.3,24.6-49c3.5-5.7,6.7-11.5,12.7-15c3.6-5.9,8.6-10.5,14.3-14.3c10.4-13.2,25.7-17.9,40.7-23.1
				c5.6-1.9,11.4-2.9,17.4-2.5c5.8,0,11.7,0,17.5,0c-4.6,9.4-13.6,15.4-19,24.2c-0.9,1.4-2.2,2.5-1.8,4.5c2.9,2.3,4.8,0.2,6.9-1.5
				c15.6-12.4,32-23.6,50-32.5c18.2-9,36.8-16.8,56.2-22.7c8.8-2.7,17.4-6.3,26.4-7.4c2.9,2.8,0.4,7.1,3.6,9.3
				c0.4,0.3,0.7,0.7,1.1,1c6,18.9,10.4,38.3,19.3,56.3c6.3,12.9,13.7,25,22.4,36.3c0.9,1.1,1.7,2.2,2.7,3.3
				c5.6,6,11.5,11.7,17.3,17.5c1.9,1.9,4.1,3.3,6.3,4.8c7.7,7,16.3,12.7,25.4,17.5c5.5,4,11.6,6.9,17.7,9.6c3.2,1.5,6.6,2.5,9.8,4
				c3.5,1.6,7.2,2.6,10.8,3.8c1.9,0.7,3.8,1.4,5.7,2c0.8,0.2,1.5,0.5,2.2,0.8c1.8,0.7,3.8,1,5.7,1.3c0.8,0.1,1.6,0.3,2.4,0.6
				c2.4,0.8,4.9,0.9,7.4,1.2c0.9,0.1,1.8,0.3,2.6,0.6c3.1,1,6.4,0.8,9.6,1c1.5,0.1,2.9,0.4,4.4,0.7c5.4,1.5,11,0.7,16.5,0.9
				C589,1027.5,640.8,1008,683,965c25.8-26.4,40.6-59,48.1-94.8c6-28.2,6.9-20.8,26.9-15c40.5,11.7,78,30,112,55.1
				c1,0.7,1.9,1.8,4.1,1.1c-4.1-5.1-9-9-13-13.7c-2.4-2.8-6.5-5.3-3.5-10.1c5.9,0,11.8,0,17.7,0c22.3,2,42.8,8.2,58.1,25.9
				c0.7,1.7,2.1,2.1,3.7,2.1c3.7,1.8,6.4,4.5,8.2,8.2c0.1,1.6,0.5,3,2.1,3.7c3.9,2.1,6.9,4.9,9.2,8.8c7.1,12.3,14.7,24.3,20.7,37.4
				c12,26,21.9,52.8,31.3,79.7c11.8,33.5,22.7,67.3,35.5,100.4c9.6,24.8,21.2,48.7,34.7,71.6c8.1,13.7,8.1,15.6-4.8,25.1
				c-34.9,25.8-73.7,43.5-115.6,54.5c-9.3,2.4-18.9,3.7-28.1,6.2c-3,0.8-5.9-1.1-8.8-0.1l0,0c-4.3,3.8-9.4,1.5-14.1,2l-0.9,0
				l-0.9,0.1c-11,4.1-14.5,4.9-15.4-6.3c-1-12.4-0.1-26.9,0.4-39.4c0.2-4.9,0.2-9.9,3-14.3c0-3.9,0.1-7.9,0.1-11.8
				c0.5-1,1.1-1.1,1.9-0.3c6.6,6.9,7.7,15.6,8,24.5c0.3,9.9,0.1,19.8,0.1,29.7c-1.6,2.7-1.6,5.3,0,8c2,1.5,4,1.5,6,0
				c0.7,0,1.3,0,2,0c3-2.4,7,0.5,10-2c0.7,0,1.3,0,2,0c2.3-2.1,5.7,0.3,8-2c1.3,0,2.7,0,4,0c1.6-1.8,4.4-0.1,6-2
				c28.5-5.8,55.6-15.5,81.3-28.9c14.7-7.6,28.8-16.2,42.3-25.9c4.8-3.5,6.5-6.2,3.1-11.9c-13.1-22-23.7-45.2-33-69.1
				c-12.3-31.6-22.9-63.7-34.1-95.7c-12.1-34.8-24.4-69.5-41.6-102.3c-12.9-24.6-29.7-45.6-55.5-57.8c-7.1-3.3-14.5-6.4-23.6-6.4
				c2,5.2,5.9,8.1,7,12.7c1.1,4.2,1.3,8.4-1.6,11.3c-3,3-7.1,4-11.9,2.7c-5.3-1.5-9.9-4.3-14-7.5c-31.5-24.8-67.1-41.4-105.2-53.1
				c-7.3-2.2-9.9-0.8-11.6,6.6c-6.4,28-17.2,54.2-33,78.5c-22,33.6-53.2,55.2-89.1,70.7c-31.3,13.5-64.4,18.5-98.3,16.1
				c-45.1-3.2-85.8-18.7-121.5-47c-32.5-25.7-52.3-59.3-64-98.3c-2.2-7.3-5.1-14.3-6-22c-0.6-4.8-3.2-6.2-8.4-4.7
				c-25.7,7.3-50.3,17-73.7,29.8c-14,7.7-26.8,17.1-39.3,27c-2.9,2.3-6.3,3.7-10.2,3.4c-2,1.4-4,1.4-6,0c-2.9,0-4.9-1.3-6-4
				c-1.5-2.7-1.5-5.3,0-8c-0.4-3.6,1.1-6.4,3.7-8.8c0.9-0.9,2-2,1.3-3.5c-0.9-1.9-2.8-1.9-4.3-1.4c-9.6,2.8-18.9,6.2-27.5,11.5
				c-18.3,11.3-31.5,27.4-41.8,45.8c-12.5,22.4-22.4,46-31,70.1c-13,36.6-25.5,73.4-38.6,109.9c-8.4,23.5-18.1,46.4-29.1,68.8
				c-4.4,8.9-9.2,17.7-14.5,26.1c-2.9,4.6-1.8,7.7,2,10.1c14.6,9,28.3,19.4,44.1,26.8c12.6,5.9,25.3,11.6,38.2,16.7
				c9.6,3.8,19.7,5.8,29.4,9.3c7.3,2.6,10.8-2.5,14.1-7.6c2.5-3-0.4-7,2-10c1.3-5.3,2.7-10.7,4-16
				C141.5,1259.7,139.8,1256.9,141.6,1255.3z"/>
			<path class="st3" d="M725.7,853.5c-8.3,40.9-23.4,78.3-54.8,107.4c-29.1,27.1-63.4,43.3-102.8,48.7c-3,0.4-5.8,1.2-8.8,1.8
				c-2.5,2-5.2,2.8-8.3,1.8c-4.9-1.5-9.8-0.6-14.7-0.9c-8-4.7-16.4-4.8-25-2c-1,0-1.9-0.3-2.7-0.8c-2.4-3.4-6.2-3.2-9.8-4
				c-30.4-6.4-58.1-18.6-81.8-39c-3.6-3.1-7.3-4.3-11.8-3.8c-4.7-1.8-7.4-5.7-9.8-9.8c-0.8-4.2-1.7-8.2-4.5-11.9
				c-17.7-23.5-28.9-50-35.9-78.4c-2.3-9.2,0.1-13.3,9.2-15.3c7.8-1.7,15.4-4.5,23.5-4.3c5.4,0.1,12.9-0.1,10.1,7.6
				c0,8.5,5.5-14.9,5.6-15.5c4.6-4.8,6.4-9.9,2.4-16c-1.7-2.6-1.4-5.7-1.4-8.7c0.1-1.9-0.3-3.9,0.7-5.7c5.4-3.4,15.3,2.1,19.2,5.4
				c14.1,11.7,30.6,19.8,45.2,30.8c6.2,4.7,14.5,4.3,21.8,6.4c35.3,10.3,69.6,7.8,102.5-8.7c19.7-9.9,36.4-24.1,52.3-39.2
				c8.6-8.2,8.5-8.6,12,2.2c1.1,3.3,3.2,5.8,5,8.5c1.1,1.7,0.6,4,1.9,5.6c0.1,3.2,0.2,6.5,0.3,9.7c3.5,4.4-1.2,9.8,1.7,14.3
				c0.1,1.9,0.2,3.8,0.3,5.8c1.8,2.5-0.2,5.8,1.7,8.2c-0.3,6.9,1.4,13.4,4.1,19.7c1.5,1.9,3.7,5,4.4-0.1c1-7.3,1.5-14.8-0.3-22.1
				c0.7-4.1-1-8.5,1.3-12.9c4.1,1.1,8.2,1.4,12.4,1.2c1.7,1.7,4.3,0.3,6.1,1.7c9.3,2.1,18.7,4.2,28,6.2
				C726.9,849.4,726.4,851.4,725.7,853.5z"/>
			<path class="st3" d="M721.6,503.5c-0.1,8.6-0.2,17.2-0.3,25.8c-0.9,0.9-1.8,0.9-2.6,0c-2-2.9-1.6-6.4-2.5-9.6
				c-1.2-3.7-3.4-6.6-7.3-7.5c-4-0.9-6.4,1.9-8,4.7c-6.5,11.2-15.9,19.3-26.5,26.5c-11.1,7.5-23.4,10.9-36.1,13.9
				c-4.1,1-7.9,0.1-11.4-2.4c-3.8-2.7-8.2-3.7-12.2-1c-6.5,4.5-13.1,3.7-20,1.6c-1.9-0.6-3.8-1.3-5.8-0.5c-1,3.8,1.7,6.4,3,9.3
				c1.9,4.3,5.8,8.4,5.6,12.7c-0.7,15.4,11,21.8,20.1,30.2c8.4,7.8,14.9,16.7,20,27.1c11.4,23.2,4.6,44.8-4.9,66.2
				c-3,6.7-8.4,10.8-16,8.7c-7.9-2.2-7.5-9.2-7.5-15.6c0-5.4,1.9-10.5,3.1-15.6c0.9-3.8,2.1-7.6,0.4-12.3
				c-17.2,12.1-36.5,16.6-56.3,19.5c-13.1-3.6-26.3-1-39.5-1c-20.3,0-38.5-9.3-57-20.3c-0.3,8.1,2.1,13.9,3.7,19.9
				c1.2,4.5,2.6,8.9,2.5,13.7c-0.1,7.1-2.1,10.4-6.9,11.9c-5.1,1.6-10.6-0.1-14.2-4.8c-4-5.4-7.1-11.4-9-17.7
				c-8.8-29.6-4.1-55.9,19.8-77.2c2-1.8,3.7-3.8,5.5-5.8c6.5-6.8,14.3-8.3,19.3-3.7c5,4.6,4.1,12-2.4,19.5c-2.2,2.5-4.6,4.8-6.3,7.7
				c-3.2,5.7-2.8,8.1,2.8,11.6c13.5,8.3,28.5,12.6,43.9,15.9c2.7,0.6,5.2-0.6,7.9-1c8.3-1.1,16.6-2.1,24.1,3.1
				c2,1.4,4.2,2.3,6.4,0.6c8.4-6.1,18.7-6.6,28.1-9.9c6.1-2.2,11.3-5.5,16.4-9.2c4-2.9,4.3-6.4,1.7-10.4c-1.6-2.5-3.4-4.9-5.4-7.2
				c-7.6-8.8-7.6-8.8-17.9-2.8c-4,2.4-8.3,4.3-12.9,5.2c-20.2,3.8-40.5,3.1-60.3-2c-11.2-2.9-20.7-8.9-25.2-20.8
				c-1.8-4.7-1.3-8.4,1.9-11.9c3.6-3.9,8-4.4,12.8-2.6c1.9,0.7,3.6,1.8,5.1,3.1c4.2,3.9,9.2,6.5,14.7,8.2c5,1.6,9.2,4.3,7.7,10.8
				c-7.7,3.7-14.7,1.1-21.7-2.3c-0.1,0,0.1-0.6,0.2-0.9c-0.1,0.1-0.1,0.3-0.3,0.5c0.4,2,2.3,2,3.7,2.3c18.9,4,37.8,7.5,57.1,2.3
				c2.3-0.6,4.4-1.4,6.6-2.3c13.7-6.1,18.5-17,13.2-31c-4-10.6-9.3-20.6-15.1-30.3c-4.1-6.9-7-14.4-10.1-21.7
				c-1.4-3.2-3.1-7,1.5-9.5c4,0.8,5.8,4.3,8,7.1c26.7,34.1,85.2,26.3,107.4,4.1c9-9,17.8-18,23.1-29.8c0.9-2.1,2.1-4.2,4.4-5.3
				c5.2,4.1,10.5,7.8,17.3,8.8C720.5,500.2,721.8,501.5,721.6,503.5z"/>
			<path class="st3" d="M354.8,585.1c-0.1-1.3,0.4-12-2.2-16.4c-0.1-1.9,1.3-26.5,0-32.9c-0.1-1.1,4.2,2.2,5,1.4
				c8.2,1.2,11.9,6.3,12.1,15.9c1,51.5,13.8,99.7,39.4,144.5c16.5,28.9,37.1,54.6,64.1,74.3c17,12.4,36.3,18.4,58.3,20
				c51.6,3.9,84-24.4,113.1-60.6c36.8-45.8,54.9-98.9,61.5-156.6c1-8.5,2.3-16.8,1.3-25.5c-0.7-5.8,0.7-12.2,6-16.2
				c2-1.5,5.3-4.2,6.9,1c-1.2,7.9,2.2,16-0.9,23.9c-0.1,2.6-0.1,5.2-0.2,7.7c-2.6,3.8,1,8.5-1.7,12.3c-0.1,1.9-0.2,3.8-0.3,5.7
				c-2.2,3.1,0.3,7.1-1.8,10.3c-0.2,0.6-0.2,1.2-0.1,1.9c-2.1,2.4,0,5.6-1.8,8.1c-0.1,1.3-0.2,2.6-0.3,3.8c-1.6,1.8-0.3,4.4-1.7,6.2
				c-0.1,1.3-0.2,2.5-0.3,3.8c-1.6,1.8-0.2,4.4-1.8,6.2c-4.8,12.3-7.3,25.3-12.2,37.6c-12,30.1-27.6,57.8-48.8,82.5
				c-13.9,16.2-28.5,31.3-46.7,42.8c-11.4,7.2-23.9,11.1-36.5,15.3c-2.3,1.2-4.9,0.5-7.3,0.7c-5.8,0-11.5-0.2-17.1,1.9
				c-2.5,0.2-5,0.1-7.5,0.1c-2,0.2-4.1,0.5-5.9-0.8c-2.6-0.1-5.2-0.3-7.8-0.4c-1.8-1.5-4.4-0.2-6.2-1.6
				c-19.4-2.8-36.5-11.3-51.7-23.1c-27-21-47.3-47.7-64.5-77.1c-9.4-16.1-16.6-33.2-22.7-50.6C370.7,639.4,357.1,588.1,354.8,585.1z
				"/>
			<path class="st4" d="M517.4,813.4c3.3,0.1,6.6,0.1,9.9,0.2c7.4,1.5,14.8,1.5,22.2,0c2-0.1,4-0.1,5.9-0.2c2.4-1.9,5.7,0.2,8.1-1.8
				c20.7-3.3,39-11.8,55.6-24.7c15-11.7,27.2-26.1,40.3-39.6c6.2,2.2,3.3,7.1,3.3,11.1c-6.7,8.5-12.2,18.2-21.5,24.5
				c-2.2,1.5-4,3.5-5.4,5.8c-6.9,11.6-17,19.3-29.3,24.3c-3.7,1.5-7.3,3.4-10.1,6.3c-6.3,6.3-14.1,9.8-22.4,12.4
				c-10.5,3.2-21.2,5.7-31.9,7.7c-4.6,0.9-9.3,1-13.9,0.2c-9.5-1.6-18.9-3.5-28.6-4c-7.1-0.3-13.3-4.3-19.5-7.3
				c-8-4-15.8-8.4-23.6-12.9c-14.1-8.2-25-19.5-33.8-33.2c-3.1-4.8-6.4-9.3-9.6-14c-0.5-1-0.8-2-0.8-3.1c0-5.3-0.1-10.6,0-15.8
				c0-1.8-0.3-4.2,2.9-3.6c6,6.6,10.2,14.9,17.9,19.9c3.4,2,6.1,4.7,8.1,8.1c12.9,14.2,28.7,24.2,46.2,31.6
				c7.6,3.2,15.2,6.5,23.7,6.3C513,813.3,515.7,811.8,517.4,813.4z"/>
			<path class="st5" d="M735.6,445.9c10.9,0,19.4,9.6,22.7,19.6c1.1,3.4,2.2,6.8,3.3,10.2c1.1,10.6,1.8,21.3,0,31.9
				c-0.1,1.9-0.2,3.8-0.2,5.7c-1.9,2.5,0,5.7-1.7,8.2c-0.1,1.3-0.2,2.6-0.3,3.8c-1.6,1.8-0.3,4.3-1.7,6.2
				c-3.1,10.8-6.1,21.5-10.2,32c-3.9,10.1-6.5,24.4-19.9,27.1c-5.1-2.4-3.8-6.8-2.4-10.5c0.2-0.6,0.1-2,0-2.6
				c3.3-5.8,0.1-12.2,4.3-17.9c0-1.2,0-2.5,0-3.7c1.7-1.8,0.2-4.5,2-6.2l0,0c5.4-2.9-0.1-4.7-0.3-7.1c-0.9-9.6-4.2-19.4,0.2-28.9
				C730.6,506.9,732.2,459,735.6,445.9z"/>
			<path class="st5" d="M337.4,451.6c3.5,15.5,5.8,31.1,5.6,47.1c0,1.6,0.4,3.3,0.6,4.9c0.1,0.7,0.2,1.4,0.3,2.1
				c1.5,2.5-0.3,5.7,1.6,8.1c0.1,3.9,0.1,7.8,0.2,11.8c1.5,7.3,6.3,15.4-4.6,20c-0.2,0.1,1.2,0.5,1.9,0.9c1.2,0.7,1.8,1.9,2.7,2.9
				l0.1,0.2c1.4,1.9,0.1,4.4,1.7,6.3c0,1.9,0.1,3.8,0.1,5.7c4.1,5-1.1,11.1,1.9,16.2c0,1.3,0.1,2.5,0.1,3.8
				c1.5,2.7,2.8,9.1-1.4,10.2c-10.1-7.2-16.8-20.8-21.4-31.5c-3.4-8-4.2-18-5.3-26.8c-1.9-2.4-3.9-22.7-4-24
				c-1.7-11.3-3.4-21.9-2.4-33.2c-0.4-7.6,5.4-14.5,8.5-20.8c1.3-2.6,4.9-4,8.1-4.2C333.6,450.5,335.5,450.3,337.4,451.6z"/>
			<path class="st3" d="M352,501.8c1.9-0.5,7.4-3.3,9.3-3.8c8.6-2.1,4-2.2,7.4-8.8c3.7,2.1,9.2,8.8,11.1,12.1
				c3,5.4,6.3,10.6,10.7,15c3.5,3.7,7.1,7.3,10.9,10.7c10.5,10.1,23.7,14.4,37.5,17.1c10.3,1.3,20.6,1.2,30.8,0
				c27.2-5.9,42.4-24.5,51.7-49.2c1.2-2.3,1.4-4.9,2.2-7.3c3.4-7.2,9.7-8.5,16.7-7.7c7.3,0.9,10.7,5.8,12.2,12.6
				c0.6,2.9,1.4,5.8,1.6,8.8c-2,20.2,6,37.8,14,55.4c3.2,7,7.2,13.6,10,20.7c4.1,10.3,2.2,18.7-6.5,23.6c-12.7,7-26.3,11-41.1,7.9
				c-3.4-7.1,1.3-9,6.6-9.3c6.1-0.4,11.8-1.6,17.6-3.5c12.3-3.9,14.2-8.2,9.3-20c-5.2-12.6-10.7-25.1-16.1-37.6
				c-5.5-12.7-2.7-26.2-6.3-38.9c-0.7-2.4,0-5.9-3.5-6.3c-3.2-0.4-4.4,2.5-5.7,4.8c-2.1,3.8-3.3,8-5.1,11.9
				c-9.8,22.2-25.4,39.6-49.7,43c-16,2.2-33.2,3.6-49.5-0.4c-21.7-5.5-39.5-17.1-51.7-36.4c-1.7-2.7-3.3-6.7-7.1-6.1
				c-4.5,0.6-2.5,5.4-3.9,8.2c-3.1,6.2-4.5,13.1-7.7,19.3l-0.2,0.2c-0.8,0.7-1.4,0.6-1.7-0.4c-0.1-5.2-2.1-8.1-2.2-13.4
				C349.9,517.5,350.1,508.3,352,501.8z"/>
			<path class="st3" d="M395.6,851.7c0.1-3.8-1-6.3-5.6-6.3c-10.4-0.1-20.1,3.5-30,5.9c-3.2,0.8-4.4,3.2-3.3,7
				c3.9,13.3,7,26.8,12.8,39.6c4.4,9.7,9.5,18.9,14.4,28.3c2.1,4.1,4.1,8.8,7.6,11.5c5.5,4.4,6.4,9.6,6,15.8c-6.2,1.3-5.7-4.6-8-7.4
				c-1.4-1.6-2.7-3.1-4.1-4.7c-4.8-4.2-7.2-9.9-9.9-15.4c-3.9-7.5-7.9-15-11.8-22.5c-2-1.6-0.3-4.5-2.1-6.3
				c-2.6-8-6.4-15.5-8.1-23.8c-2-2.4,0.2-5.7-1.9-8l0,0c-2.6-2.3,0-5.9-1.9-8.3c-1.4-1.8-0.9-3.7-0.3-5.6c0.3-4.6,4.3-4.7,7.2-5.3
				c13.1-2.9,26.3-5.4,39.8-8.2C397.4,843.1,398.4,847.5,395.6,851.7z"/>
			<path class="st3" d="M409.4,839.3c3.8,2.9,4.9,6.8,3.9,11.3c-1.9,9-4,17.9-5.7,26.9c-0.6,3.5-2.7,6-4.8,8.5
				c-2.1,2.5-5,4.5-8.4,1.4c-3-2.7-2.3-4.9,0.4-7.3c0.6-0.6,0.6-1.8,0.8-2.8c0.9,1.6,1.9,3.2,3.1,5.3c3.5-4.6,3.4-10,4.7-14.8
				C405.8,858.4,407.4,848.8,409.4,839.3z"/>
			<path class="st6" d="M661.3,759.6c-0.2-4.2,1.6-8.6-1.7-12.3c2.6-2.5,4.5-0.7,5.2,1.5c0.8,2.4,1.2,5.4,0.4,7.7
				c-2.6,7.7-1.3,15.5-1.8,23.3c-1.2,0.4-2.1,0.2-2.9-0.8c-0.6-1-1-2-1.3-3.1C658.5,770.2,658,764.7,661.3,759.6z"/>
			<path class="st6" d="M665.3,815.8c-1.4-1.1-1.6-2.7-1.9-4.3c-2.5-3.5-3-7.5-2.7-11.7c0.3-2.4,0.7-4.7,2.8-6.3
				c2.9,1.6,4.6,3.9,3.2,7.1C664.6,805.5,665.8,810.7,665.3,815.8z"/>
			<path class="st4" d="M411.6,767.7c0.6-0.1,1.2-0.2,1.7-0.4c0,0,0.3,0.3,0.3,0.3c3.7,5.3,2.7,11.3,2.5,17.2
				c-0.5,2.8-0.4,6.2-4.4,6.7c-0.2-0.7-0.3-1.3-0.5-2C411.4,782.2,411.5,775,411.6,767.7z"/>
			<path class="st7" d="M541.4,803.2c1.7-2.9,4.1-4.5,7.4-3c2.9,1.3,5.8,1.2,8.8,1.3c0.5,0.6,0.6,1,0.3,1.4
				c-0.3,0.3-0.5,0.4-0.8,0.4c-1.9,0.1-3.8,0.2-5.7,0.3c-2.3,1.4-4.8,2-7.5,1.4C542.9,804.7,542.1,804.1,541.4,803.2z"/>
			<path class="st8" d="M663.6,793.5c-0.1,2-0.3,3.9-0.4,5.9c-5.9-5.6-6.4-10.9-1.6-20.2c0.6,0.1,1.2,0.3,1.8,0.5
				C663.4,784.3,663.5,788.9,663.6,793.5z"/>
			<path class="st6" d="M667.3,839.8c-3.1-4.5-1.5-9.5-1.7-14.3c2.8,0.3,4.3,1.9,3.3,4.7C667.6,833.3,667.4,836.5,667.3,839.8z"/>
			<path class="st6" d="M669.3,853.7c-2.4-2.3-1.8-5.3-1.7-8.2C670.3,847.8,669.1,850.9,669.3,853.7z"/>
			<path class="st3" d="M689.8,438.1c-1.8,0.6-1.7,4.3-3.5,3.7c-6,3.7-13.5-1.2-19.4-4.3c-7.9-4.2-11.1-3.5-18.2,2.9
				c-0.8,0.7-1.7,1.2-2.7,1.5c-7.6,1.2-14.8,1.4-21.8-2.9c-7.2-4.3-13.9-2.3-19.5,3.6c-0.9,0.6-1.8,1-2.8,1.3
				c-8,1.3-15.5,0.6-23.1-3.3c-7.6-3.9-15.5-2.9-21.9,3.7c-0.8,0.6-1.8,1-2.8,1.3c-11.5-2.6-22.9-2.2-34.2,1c-13,0.1-26,0.1-39,0.1
				c-2.4,0.1-4.8-0.2-7.1-0.7c-12.2-2.8-24.6-0.5-36.9-1.4c-1.8,0-3.5-0.3-5.2-0.7c-11.4-2.6-23.1-0.6-34.6-1.3
				c-1.7,0-3.4-0.3-5.1-0.7c-8.7-3.1-27.3,6.1-35.9,2.6c-0.4-0.4-1.3-19.3-1.7-19.7c-0.7-5.3-1.2-10.6-0.2-15.9
				c4.6-3.8,5.7-8.7,4.5-14.4c-0.5-2.3-0.9-4.5,0-6.9c5.6-14.9,10.2-30.2,17.4-44.6c7.4-14.6,11.7-30.4,14.9-46.5
				c2-10.2,3.5-11.5,12.9-6.8c23.4,11.8,57.8,32.7,83.7,36c9,1.1,18.2,5.1,27.6,1.4c2-0.8,4.6-0.4,6.9,0.5c15.7,6,31.4,5,47.4,0.5
				c6.7-1.9,14-3.4,21.4-0.4c7.2,2.9,15.2,2.7,22.4,0.1c7.5-2.7,14.2-1.3,21.1,1.3c1.2,0.5,2.2,1.9,3.5,1.6
				c13.3-2.6,24.8,4.6,37.2,7c15.1,2.9,25.6,11.8,29.4,27.7c2,8.4,3.5,17,6.9,25c1.1,2.5,0.4,5.3,0,7.9c-0.4,3-0.2,6,0.9,8.8
				c1.5,3.6,4.7,7.4,1.7,11.2c-4,5.1-6.1,12.1-13.5,14.1C696.4,433.6,692.7,435.2,689.8,438.1z"/>
			<path class="st3" d="M688,439.2c0.6-5.1,3.5-7.9,8.6-7.9c4.3-0.1,6.9-1.7,7.7-6.1c0.2-0.9,0.7-2.1,1.5-2.5c6-3.7,7.1-7.7,1.6-13
				c-1.7-1.6-1.6-4.4-1.4-6.7c0.4-3.3,2.5-7.2,1.3-9.6c-6-11.7-5.8-25.1-11.5-36.8c-3.6-7.5-10.3-10.4-16.8-13
				c-7.6-3.1-15.9-4.3-24-6.2c-1.3-0.3-3.1,0.4-3.9-0.3c-4.5-3.7-9-4.6-14.5-1.9c-1.7,0.8-3.9-0.3-5.3-1.9c-5.4-6.3-11.7-4.6-18-2.1
				c-8.7,3.5-17.4,3.4-26,0.2c-7.8-2.9-15.3-4.4-22.3,1.9c-2.5,2.3-5.5,2.1-8.5,2.1c-8,0-16,0-24,0c-4.9,0-9.7,0.6-13.4-4.5
				c-2-2.8-6-2.1-8.9,0.3c-4,3.3-7.9,3.1-11.4-0.6c-0.9-1-1.8-2.4-3.1-1.4c-6.5,5-13,0.4-19.1-0.4c-10.8-1.5-21.2-5.1-31.7-8.1
				c-12.2-3.5-23.6-8.7-34.9-14.3c-2.3-1.2-4.5-2.8-7.3-2.6c-3.5,20.7-9.1,40.4-18.5,59.2c-5.3,10.7-9.8,21.2-12,32.5
				c-0.3,1.6-0.5,3.5-1.5,4.7c-2.8,3.1-2.4,5.6-1,9.6c2.7,7.5-0.4,11.9-7.6,13.8c-0.7-17.2,1.7-33.7,9.6-49.3
				c13.3-26,22.6-53.2,24.2-82.5c1-0.2,1.8-0.7,2.1-0.4c17.2,13.9,37.5,21.3,58.6,26.6c21.3,5.4,42.7,10.2,64.9,9.9
				c14.5,1.3,28.9,1.3,43.4,0c3.8,0.7,7.6,0.3,11.3-0.4c15.3-1.4,30.6-1.3,45.9,0c3.2,0.6,6.3,0.9,9.5,0.4c4,2,8.5-0.3,12.5,1.6
				c1.8,0.1,3.5,0.3,5.3,0.4c2.1,1.1,4.6,0.3,6.7,1.5c1.2,0.1,2.5,0.3,3.7,0.4c1.9,1.5,4.4,0.3,6.3,1.6c9.1,3.9,19.3,5.1,27.8,10.7
				c5,2.4,13.8,4.2,14.6,10.3c2.1,7.6,3.8,13.3,6.2,20.8c5.9,18.6,5.3,41,2.9,59.8c-0.5,3.6-2.2,5.2-5.9,5.1
				C705.7,439.6,693.9,439.2,688,439.2z"/>
			<path class="st9" d="M363.5,455.7c1.9,0.9,3.6,2.3,3.7,4.3c0.1,5.1,1.9,9.7,3.6,14.3c0.7,2,0.7,3.9-1.3,5.3
				C366.2,472,363.8,464.1,363.5,455.7z"/>
			<path class="st9" d="M367.5,441.7c-1.9,2.3-1.3,6-4,7.9c-1.5-3.4-3.7-6.7,0-10.1l0,0C364.5,441.1,366.6,440.2,367.5,441.7z"/>
			<path class="st3" d="M405.5,961.4c5.3-3.3,9.5-1.2,13.2,2.7c7.4,7.7,15.6,13.9,25.7,18c9.1,3.7,17.1,10.1,26.7,13
				c10.7,3.3,21.2,8,32.6,8.2c4.4,0.1,6.1,1.9,5.8,6c-3.3,1.5-6.7,2.4-9.9-0.1l0.1,0c-3-2.2-7.3,1.4-10-2.1l0.1,0.1
				c-4.7-1.3-9.7-1.4-14.1-3.7c-2.4,0.2-4-1.5-6-2.3c-5.6-1.1-10.8-3.4-16-5.7c-3.8-2.1-7.6-4.3-11.4-6.4
				c-10-4.1-18.6-10.3-26.7-17.4c-0.9-0.8-1.7-1.5-2.6-2.3C410.7,966.5,404.5,967.3,405.5,961.4z"/>
			<path class="st3" d="M533.4,1011.2c-6,0.1-12,0.1-18,0.2c-1.2-0.1-2.3-0.1-3.5-0.2c-0.9-0.2-1.2-0.8-0.9-1.6
				c1.6-0.3,3.5-0.2,4.8-0.9C525.9,1002.7,525.9,1002.7,533.4,1011.2z"/>
			<path class="st3" d="M661.5,779.3c0.5,6.7-1.9,13.7,1.6,20.2c0.1,4,0.2,8.1,0.3,12.1c-8-2.6-8.3-9.4-8.2-17.6
				c-6.4,5.8-11.4,11.4-16.6,16.5c-9.1,8.9-20.2,14.8-29.8,22.9c-11.8,9.8-26.8,14.5-41.6,18.1c-10.6,2.6-21.4,4-32.1,5.8
				c-3.6,0.6-7.3,0.8-10.9-0.4c-14.1-4.9-29.3-5.1-43.6-9.1c-4.5-1.2-9.1-1.8-12.9-4.7c-12.1-9.2-24.9-17.2-37.9-25.1
				c-2.6-1.6-4.9-3.5-6.8-5.8c-3.1-3.7-9.2-4.8-13.9-4.2c0.1-5.3,0.6-13.3,0.6-18.7c2.1-1.5,3.6-1.4,3.7-3.5
				c4.9-2.6,6.6,1.7,8.5,4.4c16,23,38.8,37.4,64.3,46.3c39.9,13.9,78.9,11.6,115.4-12.5c17.6-11.6,34.1-24.1,47.6-40.5
				c2.8-3.4,5.9-8.7,12.2-5.8C661.6,778.1,661.6,778.7,661.5,779.3z"/>
			<path class="st3" d="M719.5,529.9c0.1,0.6,0.1,1.1,0,1.7c-9.8,3.2-10.6,11.9-9.7,19.4c0.9,7.3,0.9,13.6-1,20.8
				c-1.4,5.3-1.5,11.4-2.3,17.2c-3.2,22-8.2,43.4-15.9,64.3c-8,21.5-17.4,42.2-30.6,61.1c-13,18.5-27.3,36-43.9,51.3
				c-17.1,15.7-38.1,23.9-60.3,29.2c-1.6,0.4-3.5,0.5-4.9-0.1c-6.2-2.5-12.8-2.4-18.7-1.2c-15.1,3-28-3.5-41-8.6
				c-14-5.5-25.7-14.9-36.6-25.4c-15.1-14.6-28.5-30.6-40-48.1c-20.5-31.2-33.4-65.5-41.2-101.9c-1.9-9-4.5-18.5-4.4-27.1
				c0.1-9.7-5.9-18.6-1.8-28.8c2.5-6.2-2.8-13-9.5-16.3c-0.4-5.7-0.4-11.2,3.8-16c2.3-2.6,2-6.2,2.2-9.5c0.4-6.3,3.7-7.9,9.1-4.8
				c1.9,1.1,2.9,2.7,3.9,4.4c13.6,24.1,35.8,35.3,61.5,41.2c2.1,0.5,3.8,0.3,5.7-0.7c7.5-3.8,15-4.5,22.4,0.1
				c1.2,0.8,2.5,1.2,3.8,0.8c11.5-3.8,23.7-5.2,33-14.9c4.4-4.6,8.5-10,14.1-13.7c3.6-2.4,4.6-7.1,6.3-11.1
				c2.4-5.8,4.7-11.7,7.1-17.5c1-2.4,2.2-4.8,4.9-6.1c3.7-1.8,6.8-0.9,7.9,2.9c1.8,6.1-1,13.4,4.8,18.5c0.1,0.1-0.4,1.2-0.8,1.7
				c-3.2,5.1-1.4,10.1,0.1,15.3c4.9,16.6,12.5,32.2,19.5,47.9c5.4,12.3,3.5,17.7-9.4,21.6c-6.4,2-12.6,5.6-19.9,3.9
				c-4.6-1.1-6.5,2.4-8,5.9c-2,1.7-4,1.7-6,0c-1.9-4.4-4-8-9.8-8.4c-5.8-0.4-10-4.4-14.2-8.4c-6.5-6.2-14.3-4.7-16.7,2.6
				c-1.4,4.2,0.5,7.9,2.8,11c5.6,7.5,13.3,12.3,22.1,14.6c5.9,1.5,12.2,3.4,18.6,2.6c4.4-0.6,8.7,2,12.7,1.6
				c12.4-1.2,25.2-0.4,37-5.7c5.6-2.5,9.3-7.4,14.8-11.6c0.5,5.1,3.7,7.6,6.4,10.4c2.3,2.4,4.6,4.7,6.5,7.5
				c7.2,10.9,6.7,10.2-3,18.4c-9.7,8.2-21.7,9.4-32.9,13c-3.9,1.3-7.7,1.7-9.9,5.5c-1.4,2.3-3.8,4-5.5,1.5c-6.2-8.9-15.7-8-23.6-6
				c-7.6,1.9-14.2,0.7-20.9-1c-12.2-3.2-24.1-7.6-35.1-14c-8.4-4.9-8.5-6-3.6-14.9c2-3.6,5-6.1,7.8-9c5.3-5.7,6.3-12.4,2.2-15.6
				c-4.7-3.6-11.4-2.7-15.6,3.3c-5.2,7.4-13.3,11.7-18.2,19.5c-6.9,11-11.5,22.9-11.4,35.4c0.2,14.9,3.5,29.6,11.9,42.5
				c3,4.6,7,5.7,12,5.2c3.5-0.4,5.4-2.4,5.6-5.9c0.2-4.6,0.1-9.2-1.4-13.8c-2.4-7.2-4.1-14.7-6.1-22c-0.4-1.6-0.8-3.5,0.5-4.7
				c1.9-1.8,3.9-0.3,5.4,0.8c5.2,3.8,10.8,6.5,16.6,9.1c11.1,5,22,10.8,34.8,9.3c1.1-0.1,2.4,0.9,3.5,1.5c4.5,2.6,8.4,2.6,12.5-1.4
				c4.5-4.4,9.8-4.2,14.7,0.4c3.2,3,7.1,4,10,2.5c7.9-4,16.6-2.1,24.7-4.8c12.6-4.3,25.2-8.2,35.9-18.2c1.9,6.7,1.9,12.7,0.2,18.7
				c-1.8,6.4-3.9,12.7-3.3,19.5c0.3,3.7,0.8,7.4,5,8.9c4.5,1.5,9.4-0.2,12.2-4.4c4.2-6.5,6.1-14,8.4-21.3c1.5-4.7,2.4-9.6,3.5-14.5
				c1.2-5.3,0.9-10.4-0.2-15.7c-4.2-21-17.3-36.1-32.3-50.1c-3.6-3.3-10-1.7-11.8-6.1c-1.6-3.6,2.1-8,0.7-12.5c-2.3-7-5.7-13.4-9-20
				c-0.9-1.8-1.8-3.5-2.6-5.4c-0.9-2-2.9-4.2-0.7-6.3c1.8-1.7,3.7,0.3,5.5,0.7c3.6,0.8,7.2,1.5,10.5,2.8c4.2,1.6,7.4,0.9,11-1.9
				c5.9-4.6,10.7-4.3,16.6,0.7c3,2.5,6,2.6,9.3,2c17.5-3.5,33.1-11.2,47.3-22c6.6-5,9.2-12.9,14.6-18.8c2.5-2.7,3.2-7.8,8.8-6.2
				c5.5,1.5,10.7,7.3,11,12.7C719.5,523.9,719.4,526.9,719.5,529.9z"/>
			<path class="st10" d="M523.1,606.2c2,0,4,0,6-0.1c11.1,1,21.7-2,32.4-4.4c1.9-0.4,3.7-1.4,5.5-2.3c10.3-5.2,13-12.3,8.2-22.9
				c-5.5-12-11.8-23.7-16.6-36.1c-5-12.8-9.1-26.5-7-40.4c0-0.3,0.4-0.3,0.5-0.1c2.2,4.5,4.4,10.7,6.7,15.2c0.1,0.1,0,0.2-0.1,0.3
				c-1.3,2.6,0,5.1,1.1,7.9c5.6,14.3,13.9,27.2,20.4,41.1c1.6,3.5,3.4,7,4.8,10.6c4.8,12.6-0.7,26.8-12.7,32.9
				c-8.8,4.4-18.4,5.7-27.9,5.9c-11.9,0.2-23.9-1.1-35.4-4.7c-3.5-1.1-7.4-1.8-11.3-6.4c-0.2-0.2,0-0.6,0.3-0.5
				C507.2,605.5,515.1,607,523.1,606.2z"/>
			<path class="st11" d="M555.4,665.7c-1.4,1.7-3.3,1.8-5.3,1.8c-9.1,0-18.2,0-27.3,0c-2,0-3.9-0.2-5.3-1.9
				C530.1,665.7,542.8,665.7,555.4,665.7z"/>
			<path class="st11" d="M514.4,665.3c-2.4,0.1-4.9,0.8-6.8-1.5C510,663.7,512.3,663.7,514.4,665.3z"/>
			<path class="st8" d="M661.5,777.5c-8.4,2.2-13.3,9.2-17.7,15.3c-5.7,7.8-12.8,13.6-20.1,19c-14.6,10.9-30.1,20.7-47,28.1
				c-6.8,3-14.1,3.8-21.2,5.1c-8.7,1.6-17.6,3.4-26.7,2.7c-4-0.3-8-0.2-11.7-1.9c-7.4-3.5-15.8-1.2-23.4-4.1
				c-15.8-5.9-32.2-10.5-44.4-23.2c-0.9-1-1.9-2-3.1-2.4c-12.6-4.2-19.3-14.6-26.3-24.8c-1.6-2.3-2.6-5.7-6.4-5.6
				c0-6,0.1-11.9,0.1-17.9c4.2,0,5.3,3.9,6.9,6.4c5.9,9.2,12.2,18.1,20,26c2.3,2.4,4.8,4.6,7.5,6.5c14.5,10,30,18.1,46.1,25.3
				c2.5,1.1,5,1.9,7.7,1.7c8.4-0.7,16.5,1.3,24.5,3.3c8.4,2.1,16.6,0,24.6-1.7c9.4-2,18.6-4.9,27.7-7.7c5.8-1.8,11.1-4.5,15.1-9.2
				c2.4-2.8,5.4-5.2,8.9-6.2c8.2-2.4,15.2-6.8,21-12.7c9.8-10.1,19.4-20.5,28.3-31.3c2.8-3.4,5.2-6.7,9.4-8.3
				C661.3,765.6,661.4,771.5,661.5,777.5z"/>
			<path class="st3" d="M683.1,441.4c-11.9,0.2-23.8,0.3-35.7,0.5c-0.2-3.3,0.6-5.9,4.1-7.1c4.8-1.6,11.3-3.1,14.2,0.2
				c5.6,6.2,12.1,4.1,18.3,5C683.7,440.4,683.4,440.9,683.1,441.4z"/>
			<path class="st9" d="M437.1,545.8c11.6-1.2,23.2-1.3,34.9,0.1C460.4,549.1,448.8,548.9,437.1,545.8z"/>
			<path class="st9" d="M388.9,517.9c6.3,0.7,9.8,4.1,10.4,10.5C395.1,525.6,391.6,522.1,388.9,517.9z"/>
			<path class="st3" d="M589.5,372.1c-18.8,6.4-28.9,19.6-29.8,39.9c39.6-4.6,78.8-2.9,117.1,9.5c0.5-4.6-2.2-7-4.1-9.4
				c-16.3-20.4-35.9-35.4-62.7-39c-0.9-0.1-1.8-0.8-2.7-1.2c4.5-5.8,9.1-6.1,16.4-3.5c13.9,5,26.3,12,38.4,20.3
				c10.7,7.3,16.3,18.1,22.8,28.4c3.4,5.5-0.1,10.3-6.8,10.5c-2.3,0.1-4.6,0-6.8-1.1c-8.4-4.3-17.6-5.7-26.8-6.9
				c-1.3-0.2-3.2,0.1-3.8-0.7c-3-3.6-5.9-3.9-10-1.6c-2.1,1.1-5.3,0.8-7.2-1.8c-4-5.5-9.2-4.8-14.2-2.4c-7.4,3.6-14.4,3.7-21.7,0
				c-4.7-2.4-9.6-2.7-13.8,1.3c-2.3,2.2-5.1,4.4-7.9,2.8c-4.5-2.6-10.3-3.1-13.3-8.1c-0.6-1-0.8-2.6-0.5-3.8
				c4-16.1,11.8-29.6,27.1-37.4C584.8,365,585.5,365.5,589.5,372.1z"/>
			<path class="st3" d="M554.1,445.9c-8.4,2.2-8.3,2.2-8.6,10.9c-0.2,4.6,0.9,9.2-0.6,13.9c-4.6,0.3-9.2-0.8-13.6,1.2
				c-4.3-0.2-2.6-3.6-2.9-5.8c-0.7-6,1.1-12.2-1.1-18.1c-1.7-1.3-3.5-1.1-5.3-0.5c-0.8-0.2-1.2-0.6-1.2-1.4
				c6.7-3.9,14.3-2.1,21.4-3.7c2.2-0.5,3.9-0.1,5.3,1.6C549.4,445.9,551.8,445.6,554.1,445.9z"/>
			<path class="st3" d="M602.2,443.9c-15.5,2.7-31.2,2-46.8,2c0.4-6.1,5.2-7.6,9.7-8c6.1-0.5,12.7-1.9,17.6,3.9
				c1.9,2.2,4.8,1.9,7.5,1.9C594.3,443.7,598.2,443.8,602.2,443.9z"/>
			<path class="st3" d="M645.9,441.9c-14.1,2.5-28.3,2-42.5,2c0-4.6,3.3-6.4,6.8-7.4c4.5-1.3,10.6-2.7,13.4,0.4
				c5.5,6.2,11.9,4.5,18.3,4.9C643.3,441.8,644.6,441.8,645.9,441.9z"/>
			<path class="st9" d="M474.1,445.5c-11.4,1.1-22.9-1.3-34.3,1.6c-2.1,0.5-3.4-1.6-4.3-3.4C448.4,443.6,461.3,443.1,474.1,445.5z"
				/>
			<path class="st9" d="M520.9,446c0.4,0.5,0.8,1,1.2,1.4c-11.8,0.1-23.6,0.2-35.4,0.2c-2.6,0-5.3,0.5-7.2-2
				C493.3,445.8,507.1,445.9,520.9,446z"/>
			<path class="st9" d="M432,443.5c-9.8,0.1-19.6,0.1-29.3,0.2c-2.6,0-5.3,0.5-7.2-2C407.7,441.6,419.9,441.1,432,443.5z"/>
			<path class="st3" d="M607.3,371.9c-5.3,0-10.6,0-15.9-0.1C598.4,363.4,600.6,363.4,607.3,371.9z"/>
			<path class="st12" d="M367.5,441.7c-1.6-0.1-3.2-0.4-3.9-2.1c9.4,0.5,19-0.6,28.3,1.8C383.8,441.5,375.6,441.6,367.5,441.7z"/>
			<path class="st13" d="M517.7,489.6c-2.2,4.8-4.2,9.6-6.5,14.3c-8.6,17.5-22.9,27.7-41.8,31.9c-8.6,1.3-17.3,1.2-25.9,0
				c-1.1-0.1-2.2-0.3-3.4-0.4c-2-1.3-4.7-0.1-6.7-1.8c-18.5-4.4-31.8-15.9-41.3-31.6c-7.9-12.9-12.4-27.4-14.8-42.4
				c-1-2-1.2-4,0.1-6l0,0c18-1.6,36-0.9,54-1.8c4.4,1,8.8,1.9,12.3,4.9c-2.2,4.9-7.5,5.1-11.3,7.4c-8.2,4.9-16.6,9.5-21,19.9
				c31.5,5.8,62.6,5.3,94.9,5c-4.1-6.9-9.3-11.3-14.8-15.2c-7.1-5.1-14.9-8.6-22.9-11.9c-2.9-1.2-7.6-1-6.9-6.4
				c15.3-1.5,30.5-0.3,45.8-0.7c14.3,0.2,12.8-1.6,12.7,12.4c0,5.5,1.2,11.1-1,16.5l0-0.1C517.8,485.2,519,487.8,517.7,489.6z"/>
			<path class="st13" d="M637.2,451.2c20.2,0,43,0.6,63.2,0.6c0.4,0.7-0.5,4-0.6,4.5c-2.6,20.1-11.6,38.3-24.5,54.2
				c-18.7,23-52.7,32.3-80.5,21.9c-24.2-9-34.7-28.6-39-52.5c-0.9-4.9-1.2-9.9-1.4-14.9c-2.1-11.9-0.5-12.7,7.4-11.9
				c16.6-1.1,34.8,1,51.4,2.3c0.5,5.8-4.7,5.4-7.8,6.8c-13.6,5.8-26.5,12.3-36.6,26.1c31.5,2,61.7-0.3,91.7-3.3
				c1.4-0.5,4.1,1.2,3.8-2.3c-7.7-12.7-20.7-18.2-32.9-24.8C606.5,449.2,635.6,452.5,637.2,451.2z"/>
			<path class="st13" d="M613.3,457.2c-3.1-2.8-6.9-1.6-10.5-1.6c-13.2-0.3-26.4,0.9-39.6-0.2c7-2.9,14.4-1.5,21.6-1.6
				c16.9-0.2,33.9-1.1,50.8,0.1c-1.4,1.1-2.8,2.2-4.2,3.3C625.4,462,619.4,462,613.3,457.2z"/>
			<path class="st9" d="M433.3,454c-18.6-0.1-37.2-0.2-55.7-0.3c1.1-0.6,2.3-1.8,3.4-1.8c17.2,0.7,34.3-1.6,51.5-2.2
				c2.9-0.1,6.2-0.8,7.1,3.4C437.7,455.6,435.5,454.6,433.3,454z"/>
			<path class="st13" d="M433.3,454c2.1-0.3,4.2-0.6,6.2-0.8c22.5,0.2,45.1,0.4,67.6,0.7c0.6,0.1,0.9,0.4,0.9,0.8
				c0,0.5-0.1,0.7-0.2,0.7c-11.9,1.2-23.8-0.1-35.6,0.3c-3.6,0.1-7.3-1-10.6,1.5c-6,3.5-12.1,3.4-18.2,0.1
				C440.7,453.8,436.1,456.6,433.3,454z"/>
			<path class="st9" d="M527.5,448c3.3,4.7,1.1,10,1.8,15c0.4,3-1.7,6.7,2.1,8.9c-3.5,2.5-3.8-0.2-3.9-2.6
				C527.4,462.2,527.5,455.1,527.5,448z"/>
			<path class="st9" d="M443.5,535.8c8.6,0,17.3,0,25.9,0C460.8,538.8,452.2,538.7,443.5,535.8z"/>
			<path class="st9" d="M433.5,533.6c2.4,0,4.7,0.1,6.7,1.8C437.7,535.5,435.2,536.1,433.5,533.6z"/>
			<path class="st9" d="M377.5,453.7c0,2-0.1,4-0.1,6C375,457.6,375,455.6,377.5,453.7z"/>
			<path class="st14" d="M443.4,457.2c6.6-1.6,10.5-1.7,18.2-0.1c18.5,4.8,34.3,13.4,46,28.6c1.3,1.7,0.2,4.3-2,4.5
				c-32.3,2.2-64.1,1.5-96.9-3.6c-1.4-0.2-2-1.8-1.3-2.9C416.5,469.6,428,460.9,443.4,457.2z"/>
			<path class="st15" d="M439.6,518.6c23.1-2.2,45.4-7.4,66.1-18.4c2.4,2.2,0.4,3.7-1,4.8C485.2,520.2,463.6,525.3,439.6,518.6z"/>
			<path class="st14" d="M613.3,457.2c6.5-1.5,12.3-0.9,18.1,0c15.5,3.8,26.9,13.1,35.9,25.8c0.3,0.4,0.3,1-0.1,1.3
				c-2,2.4-6.5,3.1-7.4,3.2c-31,3.6-62.2,5.3-93.5,3.3c-0.6,0-1.3-0.8-1-1.9c1.1-3.7,2.9-4.5,5.1-6.8
				C582.5,469.8,596.3,461,613.3,457.2z"/>
			<path class="st16" d="M637.9,516.8c-20.6,11-59.7,1-73-19.5C588.7,511.1,612.2,518.2,637.9,516.8z"/>
			<path class="st17" d="M476.7,487c1-6,1.4-10.9-0.3-17.3c11.7,4.1,20.2,9.7,29.4,18.6C495,487.6,486.4,487.6,476.7,487z"/>
			<path class="st18" d="M441.2,466.7c-2.7,7.1-3.6,12.2-2.3,17.7c-8.7,0-25.8-0.9-26.1-1.6C421.2,477.4,427.6,470.4,441.2,466.7z"
				/>
			<path class="st19" d="M469.6,477.1c-0.1,3.9-1.9,5.8-4.8,5.8c-2.9,0.1-5-1.7-5.1-4.7c-0.1-3.1,1.8-4.8,4.8-4.9
				C467.6,473.2,469.3,474.8,469.6,477.1z"/>
			<path class="st18" d="M598.7,487.1c-10.2,0.6-18.8,0.7-29,1.3c8-9.5,17.6-13.9,29-19.1C596.2,473.5,595,479.3,598.7,487.1z"/>
			<path class="st18" d="M661.3,482c-6.8,2.1-14.4,1.5-21.2,1.9c-1.6,0.1-2.3-0.6-2-1.7c2.5-10.2-4-12.8-3.6-14.4
				C644.5,470.4,652.6,476.8,661.3,482z"/>
			<path class="st18" d="M615.1,477.6c0.1,3.2-2,5-5,4.8c-3-0.1-4.8-1.8-4.6-5c0.1-2.7,1.9-4.1,4.4-4.2
				C612.9,473,615,474.6,615.1,477.6z"/>
			<path class="st20" d="M342.5,501.7c3.3-0.2,6.6-0.4,10.8,0.4c1.6,13.9,2.7,28.6,3.2,41.6c0.9,26,4.3,51.7,10,77.1
				c13.5,60.1,43,110.8,88.8,151.9c48.3,43.3,121.3,40.4,166.1-0.8c50.1-46.2,79.9-103.2,91.6-170.1c5.7-32.6,6.5-66.6,7.9-99.5
				c1,0,2-0.3,2.9-0.1c5.4,1.1,6.8-0.3,8-6.4c3.2-1.6,6.3-2.7,9.2-3.7c1.7-0.6,3.5-0.5,5,0.2l0,0c0.8,0.4,0.8,1.5,0,1.9
				c-7,2.7-11.8,7.2-13.6,14.2c-2.9,11.3-1.7,22.8-1.3,33.7c4.4,1.3,7.6,1.4,12.7,1c0.5,0,0.7,0.6,0.3,0.9c-4.3,3.6-6.7,3.9-8.7,4.9
				c-1.9,1-4.4,2.7-4.7,4.4c-1.7,11.3-2.8,22.6-4.2,34.8c8.3-3.7,10.6-5.6,15.4-15c15.5-30,21-62.2,18.5-95.7
				c-1.3-17.9-7.9-24.1-24.6-28.4c1-3.2,2.1-6.4,3.7-10c14.7-0.8,23.4,7.6,28.5,19.3c2.5,5.7,4.2,12.1,4.6,18.3
				c2.1,32.3-2.3,63.7-15.3,93.5c-6.1,13.9-14.1,26.6-29.2,32.6c-4.5,1.8-4.1,5.6-5,8.9c-4,14.7-7.3,29.7-11.9,44.2
				c-8,25.5-20.1,49.2-35.3,71.2c-2.4,3.5-3.5,6.8-3.3,11.1c1,21.6,1.6,43.2,2.5,64.7c0.2,5.6,1.2,11.2,1.8,17.1
				c16.9,3.8,33.6,7.5,51.1,11.5c-0.1,5.2-0.9,10-2.7,15.5c-13-1.9-25.1-4.5-37.1-6.8c-3.3-0.6-6.9-0.4-10.8-0.6
				c0.2,15,2.5,28.8-0.9,44.6c-1.9-3.4-3.1-4.6-3.4-6.1c-2.2-10.1-5.3-20.1-6.2-30.3c-2.6-28.1-4.2-56.3-6.2-85.3
				c0-4.9-0.1-9-0.2-13.1c-1-0.4-1.1-0.4-2.1-0.7c-2.1,2.4-4.2,4.8-6.3,7.2c-26.4,31.1-57.4,54.1-99.7,58.4
				c-27.6,2.8-53.6-2-78.1-14.8c-22.2-11.7-39.1-29.6-55.5-48.1c-1.4-1.6-3-3-6.4-6.3c0,11,0,19.5-0.2,28.8
				c-1.3,18.1-2.6,35.3-3.4,52.5c-0.8,17.4-4,34.3-8.4,51.1c-0.4,1.6-1.7,3-3.8,6.6c-3.3-16.2-0.6-30.3-0.9-45.1
				c-4.1,0.5-7.1,0.7-9.9,1.2c-12.4,2.3-24,3.9-36.9,9.4c-1.2-4.6-2.6-11.5-4-16.8c16.9-4.6,34-8.4,51.8-12.5
				c0.6-10.1,1.3-20.3,1.7-30.5c0.7-17.9,1.2-35.9,1.9-53.8c0.2-4.5-0.8-8.3-3.4-12.1c-22-33.2-36.4-69.4-44.3-108.4
				c-1.5-7.3-3.4-13.2-11.2-17.2c-9-4.6-14.3-13.7-18.9-22.7c-11.4-22.3-15.8-46.4-18.4-71c-1.4-13.7-0.9-27.2,2.7-40.4
				c3.3-11.8,10.5-21.6,23.6-25.6c4.5-0.4,5.5,8.1,6.4,12.6c-9.1,0.9-14.4,6.1-17,12.8c-1.9,4.9-3.4,10.3-3.3,15.5
				c0.4,15.3,0.3,30.7,2.9,45.7c2.5,14.3,7.6,28.2,12.5,41.9c2.8,8,7.6,15.2,16.5,21.6c-1-13.1-1.8-24.2-3-35.3
				c-0.2-1.7-2.6-3.6-4.5-4.7c-1.6-1-4.1-2.3-6.3-5.3c-0.3-0.4,0.1-1,0.6-0.9c4.3,0.9,5.8,0.7,9.4-0.7
				C344.3,529.1,345.6,514.5,342.5,501.7z"/>
			<path class="st21" d="M361.5,438.8c54.9,1.9,109.4,4.4,164.9,7c1.2,0.1,2.1,1,2.1,2.2v19.4c0,1.2,1,2.2,2.2,2.2h12.5
				c1.2,0,2.2-1,2.2-2.2V448c0-1.2,0.9-2.1,2.1-2.2c54.8-2.5,108.5-5,163.1-7.5c0.8,0,1.6,0.4,2,1.1c4.4,7.9,0.4,15.6-0.7,23.2
				c-1,7.1-4.2,13.9-6.3,20.8c-0.6,2.1-0.9,4.3-1.2,6.7c0,0.3-0.1,0.5-0.2,0.7c-2.3,4.5-4.8,8.7-7.2,13
				c-22.8,40.6-64.4,48.8-97.1,41.5c-16.3-3.6-27.7-13.9-39.2-26.2c-1-1.1-2.4-4.4-3.2-6.3c-1.9-4.5-3.8-8.4-5.7-12.3
				c-0.1-0.1-0.1-0.3-0.2-0.5c-0.8-3.2-1.5-6.4-2.3-9.5c-2-7.6-3.6-8.9-10.9-8.9c-8.2-0.1-10.8,2.1-13.3,9.2
				c-2.9,8.2-5.6,16.6-9.8,24.1c-11.1,19.4-28.4,29.9-50.5,32.1c-41.2,4.1-72.3-13.3-91-50.4c-1.1-2.2-2.7-4.2-4.6-6.8
				c-0.2-0.2-0.3-0.5-0.4-0.8c-1.4-4.9-2.1-9.3-3-13.7c-1.9-9.1-4.1-18.1-5.7-27.2C359.6,445.5,360.8,442.5,361.5,438.8
				 M606.3,453.6c-14.4,0.1-28.8,0.4-43.3,0.7c-2.1,0-4.1,0.3-6.7,0.6c-1.1,0.1-2,1.1-1.9,2.3c0.4,7.5,0.3,14.5,1.4,21.4
				c3.9,24.2,14.4,44.8,39,53c28.5,9.5,55,4.4,77.2-17.1c11.6-11.3,18.1-25.7,22.5-41c1.7-5.8,2.8-11.7,4.1-17.7
				c0.3-1.3-0.7-2.6-2.1-2.6c-23.4,0-45.7,0-67.9,0.1 M440.4,453c-18.8-0.3-37.6-0.5-56.4-0.6c-2,0-3.9,0.2-6.1,0.4
				c-1.2,0.1-2.2,1.2-2,2.4c2,14.9,6.4,28.4,13.3,41.1c14.9,27.5,38.5,40.4,69.5,39.3c39.7-1.4,68.5-39.6,60-79.6
				c-0.2-1-1.1-1.7-2.1-1.7c-17.9-0.2-36.1-0.5-54.2-0.6C461.2,453.7,443,453,440.4,453z"/>
			<g>
				<path class="st22" d="M531.7,138.1c0,0-96-3.2-140.1,49.7s9.7,98.8,9.7,98.8s58.3,44.1,158.2,35.7c99.8-8.4,156,24.4,156,24.4
					s21.4,10.2,47.8,60.5c0,0,13.2-24.4,1.5-92.6c-11.7-68.2-87.3-142-145.8-156.9C560.5,143,531.7,138.1,531.7,138.1z"/>
				<path class="st22" d="M326.9,380.4c-2-1.3-2.1-3.9-2.1-7.4c0-0.3,0.1-0.6,0.2-0.9c1.6-3.7,2.9-6.3,4.5-8.6
					c9.7-13.3,21.4-24.5,34.7-34.2c2.1-1.5,4-3.2,5.9-5c1.8-1.7,0-4.8-2.3-3.8c-0.2,0.1-0.3,0.2-0.5,0.2c-7.3,4.6-15,8.8-21.5,14.3
					c-6.8,5.8-13.4,15.8-19.6,23c-1.2,1.4-3.4,0.8-3.9-0.9c-0.8-3.1-1.1-7.4-1-9.4c1.3-20.9,3.6-41.6,11.8-61.2
					c6.6-15.8,15-30.4,28.4-41.5c1.6-1.3,3.3-2.4,5.2-3.8c1.3-0.9,3-0.2,3.4,1.3c0.8,2.8,1.4,5.2,2.3,7.4c2.5,6.8,4.2,14.2,8.1,20.2
					c6.9,10.7,7.1,21.9,5.3,33.5c-1.4,9.5-3.9,18.8-5.9,28.2c-0.5,2.5-0.9,5.1-1.3,8.9c0,0.1,0,0.2,0,0.3c0,1.2,0,2,0,2
					s-0.7,3.7-1.4,3.7c-10.4,1.7-16.8,3.9-23.6,10.2c-8.1,7.6-16.2,18.9-24.2,26.6C328.8,384.4,327.8,381,326.9,380.4z"/>
				<path class="st23" d="M763.3,357.5c0,1.5-2.2,1.8-2.6,0.4c-0.6-2.3-0.6-4.8-0.9-7.2c-4.5-36.8-17.5-61.9-42.4-89.3
					c-20.1-22.2-45.5-36.7-73.8-46c-22-7.2-44.7-10.7-67.8-10.1c-30.9,0.9-60.8,6.8-88.5,21.3c-2.5,1.3-5.2,2.4-7.7,3.5
					c-0.6,0.3-1.3,0-1.7-0.6c-0.3-0.5-0.1-1.4,0.5-1.7c4.3-2.5,8.6-5.4,13-7.5c31.7-15.5,65.3-23,100.6-20.8
					c34.7,2.2,67.6,11.6,96.8,31.2c38.3,25.8,61.7,61.7,71.7,106.6C761,338.9,763.3,354.9,763.3,357.5z"/>
				<path class="st24" d="M370.7,347.1c2.3-1.8,5.5,0.6,4.4,3.3c-2.9,7-8.7,15.2-10.2,18.1c-12.7,24.7-13.8,51-10.7,77.8
					c1.5,12.5,3.8,25,5.7,37.4c0.1,0.7,0.5,1.4,0.3,1.9c-0.3,0.7-0.7,1.4-1,2c-0.8,1.5-2.7,1.9-4.1,1c-1-0.7-1.8-1.3-1.9-2.2
					c-1.1-5.9-1.5-11.8-2-17.8c-1.8-21.5-8.8-41.6-17.2-61.2c-1.9-4.5-2.4-9.9-5.6-13.9c-1-1.2-0.8-2.9,0.3-3.9c3.7-3.2,7-7,10-9.7
					C347.1,372.4,359.6,355.9,370.7,347.1z"/>
				<path class="st23" d="M648.2,179.3c1.3,0.8,0.6,2.9-1,2.8c-10.2-1-20.5-2.4-30.9-3.5c-41.4-4.4-81.8-0.8-120.4,16.1
					c-10.5,4.6-20.5,10.4-31.2,16.1c-1.4,0.7-2.8-0.9-1.9-2.2c1.1-1.6,3-2.5,4.5-3.6c21.3-15.1,45-24.6,70.4-29.6
					c27.3-5.4,54.9-5.8,82.5-2.5C622.5,173.1,642.2,175.5,648.2,179.3z"/>
				<path class="st24" d="M747.1,391.1c-8.7,22.4-20.4,43.1-23.9,66.8c-1.2,7.8-1.6,15.8-2.4,23.7c-0.1,1.3-0.1,2.7-0.2,4
					c-0.3,2.9-1.1,5.8-4.6,4.7c-1.2-0.4-2.4-3.6-2.1-5.4c1.7-11.1,4-22.2,5.6-33.3c2-13.7,3.7-27.5,5.1-41.4
					c1.5-13.8-14.9-37.4-11.5-50.8C721.8,357,740.5,384.6,747.1,391.1z"/>
				<path class="st23" d="M401.1,221.4c-0.4,0.2-1.8,0.7-2-0.5c-0.2-1.4,1-4.8,2.3-8c2.7-6.5,7.9-12.4,10.1-15.2
					c18-22.9,42.6-35.5,69.7-44.1c3.5-1.1,23.2-5.6,29-6.8c12.8-2.7,26.5-4,39,0.8c-7.3,1.2-15.4,2.6-23.6,3.5
					c-29.6,3.3-57.7,11.2-83.7,26.3c-15.9,9.2-29.9,22.4-37.7,39.4C403.1,219,402.5,220.6,401.1,221.4z"/>
				<path class="st23" d="M324.2,357.9c7.3-8.1,14-16,21.8-22.6c6.5-5.6,14.4-9.9,21.7-14.5c0,0,0,0,0,0c2.3-1.4,4.6,1.9,2.6,3.7
					c-1.9,1.7-4,3.5-6,5c-13.3,9.6-24.7,21.1-34.7,34.2c-2.9,3.8-3.1,6.3-4.7,9.5c-0.9,0.9-1.6-0.1-3.3,0.1
					c-0.8-0.1-1.3-0.5-1.3-0.5C321.5,368,322.8,363.3,324.2,357.9z"/>
				<path class="st23" d="M372.6,352.3c-10.2,2.8-40,34.3-44.1,40.4c0.1-2.8-0.9-6.4,0.1-10c6.1-10.4,16.6-17.7,25.1-25.6
					c6.8-6.3,12.1-10.7,22.5-12.4C374.3,348.9,375.6,345.8,372.6,352.3z"/>
				<path class="st23" d="M741.3,388.9c-7.2-6.8-13.8-13.4-21.1-20.2c-5.1-4.6-9.7-8.9-14.9-13.5c-3.1-3.2-5.6-6.2-8.2-9.8
					c3.7,1,7.9,2.1,11.6,4.2c13.7,7.9,24.9,18.7,34.1,31.5c2.2,3.1,4,6.6,4.5,11.1C745.5,391.3,743.7,390.2,741.3,388.9z"/>
				<path class="st25" d="M674.6,415.3c0.9,1.8,1.5,2.9,2.9,5.8c-20.3-6-39.6-10.2-59.4-11c-19.5-0.8-39-0.2-58.6-0.2
					c-0.1-20.4,14.3-36.6,34.5-37.7c18.2-1,34.9,3.7,50.1,13.7C655.9,393.6,666.1,403.1,674.6,415.3 M659.8,408.1c0,0,1.7,0.6,1-0.5
					C644,387,622.5,380,597,379.4c-4.8-0.1-10,1.1-14.4,3.1c-7.9,3.7-11.9,10.5-13.8,20.5c7.1-0.7,12.6-1.5,18.1-1.7
					c19.3-0.9,38.4,1.4,57.3,4.4C650.5,406.6,659.8,408.1,659.8,408.1z"/>
				<path class="st25" d="M432.6,412.7c-12.1,2.6-23.4,5-35.1,7.6c0.1-0.9-0.2-2,0.2-2.6c17.9-26.4,41.5-43.7,74.3-45.7
					c24.9-1.5,40.4,12.6,42.5,39.4C487.4,408.6,460.3,407.9,432.6,412.7 M412.4,409.1c2.3-0.4,4.6-0.7,6.9-1.1
					c26.1-5.6,52.3-9.3,79.1-5.3c1.7,0.3,3.6-0.7,5.4-1.1c-2.3-13.8-10.7-21.7-24.4-22.2c-6.9-0.3-13.9,0.6-20.8,1.8
					c-19.3,3.4-35.9,11.7-48.2,28.1l0,0.4C410.5,409.7,410.8,409.1,412.4,409.1z"/>
				<path class="st24" d="M662.8,409.1c-6.2-1.2-12.3-2.6-18.5-3.5c-19-3-38.1-5.3-57.3-4.4c-5.5,0.3-11,1-18.1,1.7
					c1.9-10,5.9-16.8,13.8-20.5c4.4-2,9.6-3.2,14.4-3.1c25.5,0.6,44.7,4.9,65.4,29.2C662.9,409,662.8,409.1,662.8,409.1z"/>
				<path class="st24" d="M410.8,409.1c11.9-16.2,28.6-24.5,47.9-27.9c6.8-1.2,13.9-2.1,20.8-1.8c13.7,0.6,22,8.5,24.4,22.2
					c-1.8,0.4-3.7,1.3-5.4,1.1c-26.8-4-53-0.3-79.1,5.3c-2.3,0.5-4.6,0.8-7.7,1.1C410.8,409.1,410.8,409.1,410.8,409.1z"/>
				<path class="st24" d="M410.8,409.1c0,0-0.3,0.6-0.3,0.6s0-0.4,0.2-0.5C410.8,409.1,410.8,409.1,410.8,409.1z"/>
				<path class="st26" d="M330.7,438.7c-1.1-4.8-1.8-9.7-3.4-14.4c-4.2-12.6-9.7-24.9-13-37.8c-11.9-46.3-3.5-89.7,20.7-130.4
					c7.1-11.9,16.9-21.5,29-28.3c4.4-2.5,7.1-5.5,8.2-10.5c5.9-26.5,22.5-44.7,45.5-57.8c17.9-10.1,37.1-16.4,57.2-20.1
					c21.4-3.9,42.9-5.7,64.6-4.4c44.7,2.6,86.3,15.5,124.8,38.5c25.4,15.2,47.2,34.5,65.3,58.1c19.6,25.6,31.4,54.7,38.8,85.8
					c4.6,19.5,7.7,39.3,5.7,59.4c-1.2,12.5-4.5,24.8-6.9,37.1c-0.3,1.5-1.3,2.8-2.6,5.5c-4.7-7.8-8.6-14.5-13.6-22.8
					c-4.9,14.5-10.2,26.7-11.1,41.4c-1.5,4.4-2.6,7.6-4.2,11.4c-1.5,15.6-2.4,30.6-3.7,46.2c-0.6,5.9-3,8.3-8.5,7.2
					c-0.9-0.2-1.9,0-3.6-0.3c-4.2-1.1-7.7-2.1-11.2-2.6c-5.3-0.7-7.5-3.4-6.4-8.9c0.3-2.5,0.6-4.8,1.2-7c2.1-6.9,5.3-13.6,6.3-20.6
					c1.1-7.9,5.4-16,1.2-24.9c4.8-23.5,5.6-46-2.3-68.3c-1.8-4.9-2.8-10.1-3.5-15c5.2,4.5,9.8,7.8,14.3,12.9c3.2,14,6.5,28.3,5,42
					c-1.5,13.8-3.2,27.6-5.1,41.4c-1.6,11.1-3.9,22.2-5.6,33.3c-0.3,1.7,0.9,5,2.1,5.4c3.5,1,4.4-1.9,4.6-4.7c0.1-1.3,0-2.7,0.2-4
					c0.8-7.9,1.2-15.9,2.4-23.7c3.5-23.7,8.7-46.9,18.1-69c2-4.4,3.7-4.6,1.5-7.7c-9.2-12.8-20.9-22.6-34.6-30.5
					c-3.6-2.1-13.6-6.2-14.9-6.7c-7.5-2.9-13.7-7-20.7-8.9c-32.6-8.7-65.9-9.5-99.3-7.2c-27.4,1.9-54.7,1.5-81.7-3.1
					c-33-5.5-65.5-12.8-93-33.5c-0.2-0.1-0.6,0-1.6,0.2c-0.3,1.3-0.7,2.8-0.9,4.3c-2.4,26.2-10,51-22.2,74.2
					c-11.4,21.9-13.2,45.1-11.5,69.7c-0.7,3.6-1.8,6.6-1.4,9.4c1.6,9,3.8,18,5.6,27c0.9,4.5,1.6,9,2.8,14.3c0.3,1.9,0.4,3.5,0.5,5
					c0,1.4-0.8,2.6-2.1,3c-4.7,1.4-9.3,2.8-14.6,4.1c-3.8,0.1-6.9,0.3-10.2-0.2c-0.4-0.1-0.7-0.4-0.7-0.9
					C342.6,483.9,336.1,440.6,330.7,438.7 M377.9,340.4c0.9-2.5,1.7-5.8,2.3-8.4c2-9.4,4.5-18.7,5.9-28.2
					c1.8-11.6,1.6-22.9-5.3-33.5c-3.9-6-5.6-13.4-8.1-20.2c-1.1-3-1.9-6.1-3.1-10.4c-3.2,2.2-5.6,3.7-7.8,5.5
					c-13.4,11.1-21.8,25.7-28.4,41.5c-8.1,19.6-10,39.6-11.4,60.5c-0.2,3,1.6,6.3,2.3,10.8c-1.2,4.4,5.2,20.8,9,44.2
					c0.6,3.7,1.6,7.3,3,10.7c7.4,18,13.4,36.4,15,56.1c0.5,6,0.9,11.9,2,17.8c0.1,0.3,0.2,0.6,0.5,0.9c1.7,2.1,5,1.5,6.1-0.9
					c0.1-0.3,0.3-0.6,0.4-0.9c0.2-0.5-0.2-1.3-0.3-1.9c-1.9-12.5-4.3-24.9-5.7-37.4c-3.1-26.8-2-53.1,10.7-77.8
					C367,364.5,376.4,344.4,377.9,340.4z M619.4,165.7c-22.2-9.4-45.6-14.6-71-18.3c-19.9-3.7-49.8,1-56.7,1
					c-23.1,1.8-45.1,7.3-65.8,18c-30.5,15.8-47.8,39.2-45.3,75.1c0.7,10.8,4.1,20.4,10.6,28.5c7.9,9.9,17.4,18.2,29,24
					c30.7,15.2,63.8,20.6,97.4,22.9c21.2,1.4,42.6,0.3,63.9,0.1c7-0.1,14-2,20.8-1.5c18.5,1.4,37.1,2.8,55.4,5.7
					c44.5,7.2,79.9,28.2,101,69.6c0.9,1.8,2.5,3.3,5.1,6.5c0.5-8.8,1.3-34.8,2-41.4c1.2-3.6-1.2-16.7-1.4-17.9
					c-8-42.8-26.5-80.4-56.1-112.4c-15.7-16.9-34.1-30.4-54.6-42.7C653.7,183,622.6,167.1,619.4,165.7z"/>
			</g>
			<path class="st27" d="M849.2,1952.5c-5.7,1.3-10.8,2.4-17.3,3.8c-2.7,0.7-4.1,0.8-5.4,1.1c-78,19.8-157.5,29.8-237.7,33
				c-50.9,2-101.8,1.2-152.6-2.9c-52.5-4.3-104.5-11.2-155.9-22.2c-13.3-2.9-26.6-5.8-39.9-8.7c-5-1.3-9.9-2.6-15.7-3.9
				c-19.6-6.5-38.5-12.9-57.3-19.6c-4-1.4-7.8-3.5-11.7-5.3c3.2-18.7,6.7-36.6,9.3-54.7c4.8-33.5,9.5-67,13.4-100.6
				c3.1-27,5.1-54.1,7.4-81.2c0.5-5.6,0.4-11.3,0.5-16.9c0.5-23.3,1.6-46.5,1.5-69.8c-0.1-21.6-2.5-42.9-3.9-65.9
				c0-14.9,0.6-28.3,1-41.8c0.1-1.9,0-3.9-0.5-6.7c-0.8-38.3-1.7-75.6-2.5-113.8c-0.1-16.1,0.4-31.2-2.3-46.2
				c-2.2-0.4-3.4-0.8-4.7-0.9c-45.3-4.6-88.9-15.6-130.1-35.6c-2.7-1.3-5.6-2-8.8-3.5c-4.2-2.2-8-3.8-11.9-5.5
				c-6.9-4.6-13.8-9.1-20.6-13.9c-12.2-8.6-24.3-17.4-36.8-26.5c1.2-2.4,1.8-4.2,2.8-5.7C-6.7,1204,10,1166,24.2,1126.8
				c16.6-46,32.9-92.1,49.9-138c7.9-21.2,17.7-41.7,30.8-60.4c18.7-26.9,43.2-45.8,75.5-53.8c15.4-3.8,30.9-4.2,46.5-2.1
				c4.1,0.6,7.6,0.1,11.4-1.9c33-18,68.3-29.6,105.6-37.9c2.1,5.2,3.3,9.9,4.3,15.3c2,10.6,3.6,20.5,6.3,30
				c17.2,59.9,54.9,101,113.4,122.5c33.9,12.5,69.1,14.5,104.4,8.3c58.1-10.3,103.1-40.1,131.2-92.9c11.4-21.3,18.4-44.2,22.1-69
				c1-5.7,1.8-10.5,2.6-15.4c36.8,8.4,72.2,20.7,105.6,38.5c2.8,1.5,6.3,2.9,9.2,2.5c62.2-7.9,105,20.2,134.8,72.4
				c14.2,25,24.5,51.7,34.2,78.6c14.3,39.4,27.6,79.2,42.1,118.5c12.6,34.1,28.2,66.9,49.2,96.8c0.7,1.1,1.3,2.3,2.4,4.1
				c-17.3,15.7-37.2,27.7-57.6,41.1c-4.1,2.1-7.1,3.7-10.7,5.3c-1.6,0.3-2.6,0.5-3.5,1c-34.5,17.9-71.2,29-109.5,35.1
				c-10.7,1.7-21.5,3.1-33,4.8c-1.4,15.8-1.4,31.3-1,47.7c-0.6,16.1-1.3,31.3-1.6,46.5c-0.4,22.1-0.5,44.3-1.2,67.1
				c-1.7,16.1-2.8,31.5,0.4,46.8c-0.5,1.8-1.5,3.7-1.6,5.5c-0.7,33.2-2,66.5-1.8,99.7c0.2,24.5,1.7,49.1,3.9,73.6
				c3.5,38.3,7.6,76.6,12.6,114.8c4,30.3,9.8,60.3,14.7,90.4c0.3,1.6,0,3.3,0,5.6C894.8,1938.5,872.3,1945.2,849.2,1952.5
				 M143.4,1308.4c11.8,2.3,23.5,5.9,35.9,3.7c0.4-2.9,0.9-4.9,0.8-6.8c-0.8-35.1-1.6-70.2-2.5-105.3c0-0.3-0.1-0.7,0-2.6
				c-0.4-20-0.9-39.9-1.3-59.9c-0.1-3.4-0.7-7.3,4.2-9.7c1.2,2.3,2.7,4.1,3.1,6.2c1,4.9,1.9,9.8,2.3,14.8
				c2.2,29.5,4.2,59.1,6.2,88.6c0.1,1.7,0.2,3.3,0.4,5c1.1,12.2,2.8,24.4,3.2,36.7c1,30.3,1.4,60.6,2.1,90.9
				c0.6,23.3,1.3,46.6,2,69.9c1.3,39.9,3.4,79.8,3.8,119.8c0.4,39.3-0.8,78.6-1.3,117.9c-0.5,35-3.8,69.8-8.1,104.4
				c-4.2,33.3-9,66.6-13.7,99.8c-1.7,11.8-3.8,23.5-5.8,35.9c3.5,1.5,6.4,3,9.5,4.2c47.9,18.1,97.6,29.3,147.9,37.3
				c27.2,4.4,54.7,7.8,82.1,10.3c29.1,2.7,58.4,5.1,87.6,5.5c37.6,0.5,75.3-0.6,112.9-1.8c18.9-0.6,37.9-2.1,56.7-4.5
				c30.7-3.9,61.3-8.2,91.8-13.6c42.7-7.5,84.7-17.9,125.3-33.5c3-1.2,5.9-2.7,8.9-4.1c-0.5-3.5-0.8-6.1-1.2-8.7
				c-4.8-31.6-10.1-63.1-14.3-94.7c-3.4-25-5.8-50.2-8-75.4c-2.3-25.5-4.9-51.1-5.3-76.6c-0.5-37.9,0.7-75.9,1.4-113.9
				c0.5-28,1.3-55.9,2.3-83.9c0.4-11.5-1.8-23.3,3.3-34.4c0.8-1.7,0.3-3.9,0.4-5.9c0.7-27,1.4-53.9,2-80.9
				c0.8-37,1.2-73.9,2.4-110.9c0.8-22.9,2.5-45.8,4.3-68.7c0.7-9.3,2.4-18.5,3.7-27.7c0.5-3.1,0.6-6.8,6.3-7.5
				c0.5,4,1.4,7.8,1.3,11.6c-0.4,20.6-1.1,41.3-1.6,61.9c-0.8,33.3-1.6,66.6-2.4,99.9c-0.1,3.5,0.4,7.1,0.8,12
				c71-6.4,134.1-29.2,190-73.4c-2.4-4.4-4.3-7.9-6.2-11.4c-6.5-12-13.3-23.9-19.3-36.1c-16-33-27.7-67.8-39.8-102.4
				c-10.7-30.8-21.7-61.6-33.5-92c-8.8-22.7-18.7-45-33.6-64.5c-21.4-28.1-49.4-44-85-45.8c-2.6-0.1-5.3,1-9.8,1.8
				c5.2,5.4,9,9,12.6,13c3.6,4,8.6,7.2,9.4,16.2c-16.8-9.3-29.5-21.3-44.6-29c-15.1-7.7-30.2-15.6-45.9-21.9
				c-15.9-6.5-32.6-11.2-49.9-16.9c-1.3,5-2.1,8.4-3,11.9c-3.3,12.2-6,24.6-10.1,36.6c-13.7,40.6-38.5,73.1-74.7,95.8
				c-61.3,38.4-126.5,42.8-193.4,17.4c-37.4-14.2-67.2-39-88.9-72.9c-14.3-22.5-23.3-47.1-28.9-73c-1-4.4-2.2-8.8-3.4-13.7
				c-13.7,1.9-25.6,6.1-37.4,10.4c-12.2,4.4-24.4,9.1-36.1,14.6c-11.4,5.4-22.3,12-33.3,18.1c-11.1,6.2-19.8,16.1-33.5,22.4
				c3.7-13.1,15.1-18.4,19.4-30.1c-9.7-0.1-18.1,0.5-26.4,2.2c-32,6.7-55,26.1-72.2,52.8c-13,20.3-22.7,42.3-30.9,64.8
				c-15,41-29.2,82.2-44,123.3c-10.7,29.8-22.7,59.1-38.5,86.6c-4.1,7.1-7.9,14.4-12.5,22.8c2,1.3,3.5,2,4.8,3.1
				c25.9,19.6,53.9,35.7,84.4,47C99.2,1298.5,120.1,1305.5,143.4,1308.4z"/>
			<g>
				<path class="st28" d="M511.7,672.5c-6.5-0.9-12.8-2.4-12.8-2.4s-35.9-11.3-49.6-28.3c-0.4-2.5,0.6-3.5,3.1-2.8
					c11.6,10.3,27.4,16.8,39.9,21.4c3.6,1.3,19.4,3.6,20.6,3.8c13,1.9,26,2.4,39.1,1.2c5.1-0.7,10.2-1.4,15.3-2.3
					c18.4-2.9,34.8-10.3,49.6-21.5c1.8-1.3,2.9-3.8,5.7-3.7c-4.3,17.2-40.9,35.8-70.1,35.8C538.7,674.7,525.2,674.2,511.7,672.5z"/>
				<path class="st29" d="M609.9,621.7c-0.7-0.8,0.2-2,1.2-1.6c4.2,1.8,6.9,4.2,9.5,6.8c12.2,12.2,12.1,45.6,0.9,58.9
					c-0.6,0.7-1.6,0.3-1.7-0.6c-0.2-5.1,2-9.7,2.6-14.4c0.5-4.1,3.2-16.4,0.1-27.5C620.1,634.5,613.9,626.5,609.9,621.7z"/>
				<path class="st30" d="M451,674.1c1.1,4.6,2.3,7.9,3.6,12.1c0.2,0.8-0.7,1.4-1.3,0.8c-16.6-17.7-14.7-50.1,6-65.5
					c1.1-0.8,2.5,0.5,1.7,1.7c-1.5,2.2-3.3,4-4.6,5.8c-1.8,2.6-6.7,13.5-7.8,23.7C447.6,662.4,449.6,669.3,451,674.1z"/>
			</g>
		</g>
	</g>
</g>
</svg>
