<?xml version="1.0" encoding="utf-8"?>
<!-- Generator: Adobe Illustrator 27.9.1, SVG Export Plug-In . SVG Version: 6.00 Build 0)  -->
<svg version="1.1" id="Layer_1" xmlns="http://www.w3.org/2000/svg" xmlns:xlink="http://www.w3.org/1999/xlink" x="0px" y="0px"
	 viewBox="0 0 1072.4 1072.4" style="enable-background:new 0 0 1072.4 1072.4;" xml:space="preserve">
<style type="text/css">
	.st0{fill:#F2F2F2;enable-background:new    ;}
	.st1{clip-path:url(#SVGID_00000145741687590358988020000000257182975914343867_);}
	.st2{fill:#BB885B;}
	.st3{fill:#F7CBA5;}
	.st4{fill:#F6CAA4;}
	.st5{fill:#030302;}
	.st6{fill:#1F1F21;}
	.st7{fill:#BC895B;}
	.st8{fill:#C08C5F;}
	.st9{fill:#030202;}
	.st10{fill:#1E1F20;}
	.st11{fill:#F1F5F5;}
	.st12{fill:#EFF6F6;}
	.st13{fill:#D6D5D5;}
	.st14{fill:#40464A;}
	.st15{fill:#EDF2F2;}
	.st16{fill:#F0F7F7;}
	.st17{fill:#D5DBDB;}
	.st18{fill:#070504;}
	.st19{fill:#C29063;}
	.st20{fill:#C18F62;}
	.st21{fill:#1D1F20;}
	.st22{fill:#3F4549;}
	.st23{fill:#202325;}
	.st24{fill:#EAB790;}
	.st25{fill:#BA885B;}
	.st26{fill:#B5443E;}
	.st27{fill:#F87360;}
</style>
<ellipse id="Ellipse_891_00000079460623258276449190000008790678404120162728_" class="st0" cx="536.2" cy="536.2" rx="536.2" ry="536.2"/>
<g>
	<defs>
		<circle id="SVGID_1_" cx="536.2" cy="536.2" r="536.2"/>
	</defs>
	<clipPath id="SVGID_00000088100960990737928400000018289812182993673367_">
		<use xlink:href="#SVGID_1_"  style="overflow:visible;"/>
	</clipPath>
	<g style="clip-path:url(#SVGID_00000088100960990737928400000018289812182993673367_);">
		<path class="st2" d="M672.2,739.6c0,12.7,0,25.3,0,38c-2.2-1.2-4.2-2.8-3.5-5.4c3.3-12.8,0.9-25.8,1.6-38.7c0.1-2-0.1-4,1.5-5.6
			c0.1,2.6,0.2,5.2,0.3,7.8C672.2,737,672.2,738.3,672.2,739.6z"/>
		<path class="st2" d="M398.5,811.6c0-8,0-16,0-24c0-1.1,0.1-2.3,0.1-3.4c0.5-0.3,1-0.7,1.5-1.1c0.9,8-1.1,16.2,1.5,24.1
			C402.4,809.2,400.3,810.7,398.5,811.6z"/>
		<path class="st2" d="M674.2,791.6c0,7.3,0,14.6,0,22c-2.1-1.2-4.1-2.6-3.1-5.3c2.3-6.3,0.5-12.9,1.4-19.3c0.5,0.4,1.1,0.7,1.6,1.1
			C673.8,790.6,673.9,791.1,674.2,791.6z"/>
		<path class="st3" d="M353.6,535.4c-0.1-5.2-2.5-10.9-2.6-16.1c-3-6-3.5-11.8-1.4-17.8c0.3-0.5,2.9-1.2,2.9-1.2
			c4.8-0.2,6.5-1,8.5-2.4c2.8,0.4,5.4-0.1,7.5-2.1c1.8-2.8,1.3-5.7,0.2-8.6c-0.1-1.2-0.3-2.3-0.4-3.5c-1.6-2.7,0-6-1.6-8.7
			c-0.1-1.1-0.2-2.2-0.4-3.3c-1.7-2.7-0.1-6-1.6-8.8c-0.1-1.1-0.2-2.1-0.4-3.2c-2-3.3,0.3-7.2-1.7-10.5c-0.1-1.2-0.2-2.3-0.3-3.5
			c-1.3-14.7-1.5-29.3,0.2-44c0.5-0.5,0.5-1,0.1-1.5c2.1-3.2-0.4-7.3,1.8-10.5c2.3-6.4,3.7-13.2,6.9-19c7.3-13,12.6-26.7,17.1-40.8
			c1.7-1.7,0.3-4.3,1.7-6.1c0.5-0.5,0.6-1.1,0.3-1.8c1.5-1.8,0.4-4.3,1.6-6.2c0.2-1.2,0.3-2.4,0.5-3.6c2.2-3.9-0.6-8.6,1.9-12.5
			c0.5-0.4,0.5-0.9,0.1-1.4c1.3-2.5,0.6-5.2,0.9-7.8c0.2-1.4,0-3.7,2.7-2c10.2,10.5,23.1,16.6,36.7,21.2c7.6,2.6,15,6.2,23.4,6.1
			c1.7,1.7,4.3,0.3,6.1,1.7c3.7,1.9,7.5,2.9,11.7,2.4c1.9,1.4,4.3,0.3,6.3,1.5c1.7,0.8,3.5,1,5.3,0.6c2.7,1.5,6-0.1,8.7,1.6
			c1.2,0.1,2.5,0.2,3.7,0.3c4.6,2.3,9.7-0.5,14.3,1.7c2.4,0.7,4.8,1.1,7.3,0.3c14.5,1.3,29,1.3,43.5,0c16.3-0.1,32.5-0.5,48.8-0.2
			c22.7,0.4,45.1,3.1,66.7,10.2c13,4.2,21.2,12.4,26.1,26c10.3,28.5,8.1,56.8,2.8,85.5c-2.6,14-5,28.1-7.2,42.2
			c-1.1,6.9-0.7,6.7,5.8,8.6c4.1,1.2,6.2,3.1,12.4,3.2c-0.1,8.6-0.3,17.2-0.4,25.9c-0.9,0.9-1.8,0.8-2.7-0.1c-1-1.4-1.6-3-1.6-4.7
			c-0.3-7.9-4.9-12.1-12.1-13.7c-6.9-1.5-9.3-6.2-10.8-12.7c-2.2-9.5,0.1-18.6,1.6-27.7c2.3-14.1,5-28.2,7.1-42.3
			c0.2-1.3,0.2,0.3,0.1-1c-0.4-5.5,6.4-8.2,5.5-13.4c-0.8-4.5-3.7-8.5-2.7-13.5c0.5-2.3,0.1-4.7-0.9-6.8c-3.4-6.9-5-14.5-6.6-21.9
			c-2.9-13.2-11.6-20.5-23.9-24.2c-10.8-3.3-22-5.5-33.2-6.7c-5.1-0.5-9.9-1.2-13.9-4.8c-3.8-3.4-7.6-2.8-11.9-0.6
			c-9.2,4.7-18.6,4.5-27.8-0.2c-5-2.6-9.5-3-13.8,1c-4,3.7-8.8,4.4-13.9,4.4c-10,0-20,0-30,0c-1.3,0,0.3,0.3-1,0
			c-16.3-4.5-33.3-2.2-49.7-5.9c-16.6-3.8-33.1-7.6-49.1-13.3c-6-2.1-11.5-5.2-17.3-7.8c-5.4-2.4-6.4-2.2-7.5,3.6
			c-4.6,25.2-15.2,48.1-25.6,71.2c-3.5,7.8-6,16.3-4.8,25.2c0.2,1.3,0.5,2.8,0,4c-2.9,6.7-0.8,13.2-0.5,20c0.5,10.7,3,21,4,31.5
			c0.6,6.6,2,13.2,3.1,19.7c1.5,8.8,0.7,16.7-8.6,21.1c-3.3,1.6-4.8,4.5-5.4,7.9c-1.2,6.3-4.2,11.9-7.3,17.4
			c-0.5,0.9-1.1,1.8-1.8,2.5C356.3,536.4,354.4,536.4,353.6,535.4z"/>
		<path class="st4" d="M763.3,503.1c-0.1,2.6,0.1,4.8,0,7.4c-1.9,2.5,0.6,6.6-1.1,9.1c-0.1,1.3-0.6,2.3-0.7,3.5
			c-1.6,1.8-0.2,4.6-1.6,6.4c-3.1,10.8-6.9,24-10.9,34.5c-3.9,10.1-11.5,19.3-20.7,23.5c-5.1-2.4-3.3-6.1-1.9-9.7
			c0.2-0.6,0.2-1.2,0-1.8c3.1-5.8-1.7-12.5,2-18.2c0-1.2,0-2.5,0-3.7c1.7-1.8-0.6-4.5,1.2-6.2l0.7,0c2.7-4-1.1-5.7-1.3-8.1
			c-0.9-9.6-3.2-18.4,1.2-28c-0.8-8,3.5-12.8,8.5-17.2c1.2-3,5.6-2.9,8.1-4.6c-3.1,0.8-5.7,2.2-8.8,1.5c-2.3,0-6.2,5.1-7.2,1.1
			c-1.9-10.8,0-27.6,6.1-48c10.9,0.1,18.4-0.2,21.7,9.8c1.1,3.4,3.8,11.2,4.9,14.6C765,479,764.7,493.1,763.3,503.1z"/>
		<path class="st4" d="M311.4,476.7c-0.4-7.6,7.9-21.1,11-27.4c1.3-2.6,5.7-4.2,9-4.4c1.8-1.1,4,0.1,5.9,0.5c1.5,1.5,0,7.5,0.9,9.2
			c0.1,1.1,0.3,2.2,0.4,3.3c1.6,2.7,0,5.9,1.6,8.6c0.1,1.1,0.2,2.3,0.3,3.4c2.2,4.6-0.6,9.8,1.7,14.4c0.1,1.2,0.1,2.4,0.2,3.6
			c1.3,4.7,1.4,9.3-0.1,14c0.1,0.7,0.1,1.4,0.2,2.1c1.7,2.5-0.3,5.7,1.7,8.2c0.1,3.9,0.1,7.8,0.2,11.8c2,7.4,5.1,14.9-4.2,20
			c-0.9,0.5,0.5,0.5,0.7,0.6c1.7,0.6,2.5,2,3.5,3.2l0.1,0.2c1.4,1.9,0.1,4.5,1.7,6.3c0,1.9,0.1,3.8,0.1,5.7
			c3.5,5.1-1.1,11.1,1.9,16.2c0,1.2,0.1,2.5,0.1,3.8c1.5,2.7,2.4,5.3-1.8,6.4c-10.1-7.2-17.2-14.6-21.8-25.3
			C321.3,552.8,310.3,488,311.4,476.7z"/>
		<path class="st3" d="M512.4,802c-19.4-2.8-36.4-13.5-51.7-25.3c-27-21-47.3-47.7-64.5-77.1c-9.4-16.1-16.6-33.2-22.7-50.6
			c-4-11.4-10-19.5-10.7-31.9c-1.5-1.8-0.1-4-1.7-5.8c-0.1-1.3-1.4-3.3-1.5-4.5c-1.8-2.4,1.2-4.3-0.8-6.7c-0.1-1.3-0.3-5.1-0.3-6.3
			c-2-3.1,0.2-7.1-2-10.2c-0.1-1.3,1.9-4.5,1.9-5.8c-2.6-4.5-2-9.6-4.7-14c-0.1-1.9,2.8-4,2.7-5.9c-2.6-7.3-4.7-12.5-4-19.8l0.6-4.5
			c4.5-2.4,10.3,3.2,12.4,6.2c2.1,3.1,3.5,6.7,3.1,10.4c-0.9,7.7,0.8,15.1,1.4,22.6c3.9,47,17.8,90.7,42.5,130.7
			c15.5,25,34.4,47.3,57.9,65.5c14,10.8,30.2,16.6,47.1,20.9c3.3,0.8,6.6,0.8,9.9,0.2c4.3-0.9,8.7-1.2,12.9-0.7
			c24.5,3.3,44.7-7.3,64-20.2c11.1-7.5,20.2-17.4,29.1-27.3c34.5-38.7,55.7-84,66.5-134.5c3.3-15.3,3.8-31,7.6-46.2
			c0.8-3-0.4-5.9-0.9-8.9c-1.1-6.1-0.1-12,2.6-17.5c2.5-5.1,7.7-11.8,12.9-9.1c-1.2,8-0.4,22.3-3.5,30.2c-0.1,2.6-0.1,5.2-0.2,7.7
			c-2.3,3.8,2.4,8.7,0.3,12.5c-0.1,1.9,0.1,3.2,0,5.1c-1.9,2.5,1,5.4-0.8,7.9c-0.1,1.3-1.5,3.6-1.6,4.9c-2.1,2.4,1.9,5.4,0.1,7.8
			c-0.1,1.3-2.3,2.4-2.4,3.7c-1.6,1.8,0,5.3-1.4,7.1c-4.6,15.9-8.2,32.9-14.3,48.3c-12,30.1-27.4,58.7-48.7,83.3
			c-14,16.2-28.7,31.3-46.9,42.8c-11.4,7.2-25.6,8.8-38.2,13c-2.3,1.2-3.3,3.4-5.8,3.6c-5.8,0-11.6,1.1-17.1,3.1
			c-2.5,0.2-6.5-4.1-9-4c-2,0.2-4.9,3.6-6.8,2.4c-2.6-0.1-4.4-3.4-6.9-3.5C516.8,800,514.2,803.4,512.4,802z"/>
		<path class="st2" d="M400.5,771.6c0.1-15.2,0.3-30.5,0.4-45.8c2.4,2.9,1.2,6.4,1.4,9.6c0.7,9.6-1.4,19.3,1.7,28.7
			C405.2,767.4,403.7,770.1,400.5,771.6z"/>
		<path class="st2" d="M414.4,743.7c-3.5,3.1-1.7,7.3-2,11c-0.3,3.5-0.1,7.1-0.1,10.7c-0.4,0.8-1,0.9-1.7,0.4
			c0-6.9-0.2-13.9,0.1-20.8C410.7,742.5,412.3,741.5,414.4,743.7z"/>
		<path class="st2" d="M728.4,557.7c-0.5,6.1,1.3,12.4-2,18.2c-0.4-4.1,0.6-8.3-1.1-12.3C724,560.6,725.9,559,728.4,557.7z"/>
		<path class="st2" d="M348.4,576c-3.4-5.1-1.5-10.8-1.9-16.2c2.5,1.3,4.4,2.9,3,5.9C348,569,348.7,572.5,348.4,576z"/>
		<path class="st2" d="M726.4,577.7c0.8,3.2-1.6,7.1,1.9,9.7c-0.5,0.9-1.2,1.8-2.2,1.4c-3-1.4-1.5-4.6-2.5-6.8
			C722.6,579.7,724.6,578.6,726.4,577.7z"/>
		<path class="st2" d="M440.4,771.8c-3.3-2.1-6-4.8-8.1-8.1C437.2,764.1,439.9,766.8,440.4,771.8z"/>
		<path class="st2" d="M346.6,586.1c2.1-1.7,1.6-4.1,1.8-6.4c2.3,1.3,4.7,2.7,2.8,5.8C350.1,587.3,348.4,588,346.6,586.1z"/>
		<path class="st2" d="M346.4,554c-2-1.7-1.6-4-1.7-6.3C346.8,549.4,346.4,551.7,346.4,554z"/>
		<path class="st2" d="M730.3,547.7c-0.3,2.2,0,4.6-2,6.2C728.4,551.7,727.9,549.3,730.3,547.7z"/>
		<path class="st3" d="M718.5,526.4c0.1,0.6,0.1,1.1,0,1.7c-9.8,3.1-10.6,11.9-9.7,19.4c0.9,7.3,2,13.8-1.3,20.8
			c-1.7,3.7,0,8.1-0.6,12.5c-2.9,20.1-7.4,39.7-13.6,58.9c-9.8,30.5-23.6,59.1-43.8,84.3c-8.9,11.1-18.2,21.9-28.1,32.2
			c-18.3,18.8-40.8,29.1-65.8,35.2c-2.7,0.7-5.2,0.2-7.8-0.5c-6.2-1.7-12.8-1.7-18.8-0.3c-5.2,1.2-9.7,0.8-14.5-0.5
			c-23.7-6-44.2-17.1-61.7-34.5c-24.7-24.6-45.2-52.1-59.5-84c-10.6-23.7-18.3-48.4-22.7-74c-1.5-8.6-5.2-17.1-2.5-26.2
			c0.3-1.1-0.3-2.6-1-3.8c-2.8-4.9-2.8-9.7-1.2-15.3c2.2-7.9-1.7-14.6-9.3-18.3c0.1-2-0.5-4.7,0.5-5.8c5.3-5.4,6.2-12.3,7.3-19.1
			c0.5-3.2,1.9-4.2,4.8-5.2c8.1-2.7,10.3-4.9,9-13c-2.4-15.3-3.2-30.8-7.8-45.7c-0.4-1.3-1.2-2.5-0.5-3.7c3.7-7.1,1-12.7-4.7-17.6
			c5.8-4.8,6.5-10,5.6-17c-1.2-9.1,2.6-17.9,6.5-26.2c6.7-14.5,13.4-28.9,18.2-44.2c3.4-10.8,5.5-21.8,7.5-32.5
			c3.2-2.1,4.5,0.7,6.4,1.7c18.8,10.4,39.2,16.2,60.1,20.5c10.3,2.2,20.8,3.8,31.2,5.7c5.2,1,9.9,0.5,13.7-5.6c2.7,8,8.5,8.1,14.7,8
			c10.7-0.3,21.3-0.2,32,0c4.3,0.1,7.6-1,10.6-4.3c4.2-4.7,9.6-5.1,14.8-1.7c9.3,6.1,18.6,5.9,27.8,0.2c5.7-3.5,8.4-3.3,13.6,1.9
			c2.2,2.2,4.5,3.8,7.8,3.8c12.7-0.1,24.8,3.9,37.1,6.3c8.2,1.6,14.2,7,20.6,11.7c2,1.4,2.8,3.6,3.4,5.9c1.8,6.4,3.9,12.7,5.5,19.1
			c1.2,4.8,1.8,9.8,5.6,13.5c1.3,1.3,1.9,2.7,0.6,4.4c-3.6,4.6-1.9,8.8,1.4,12.6c3.3,3.9,4,6.9-1.7,8.9c-2.5,0.9-3.4,2.9-3.6,5.5
			c-1.8,20.4-6.6,40.4-9.8,60.6c-1,6.2,1.9,11.7,2.3,17.7c0.2,2,2.2,3.2,4.3,3.6c1.9,0.4,3.9,0.8,5.8,1.5c9,2.9,11.2,5.8,11.4,15
			C718.4,522.4,718.4,524.4,718.5,526.4z"/>
		<path class="st3" d="M526.4,605.7c0.8-5.6,4.2-8.1,9.6-8c7.5,0.2,14.3-2.5,21.3-4.6c9.9-3.1,11.6-7.3,7.2-17.2
			c-3.8-8.5-8-16.8-11.6-25.4c-3.3-7.9-6.6-15.8-8.9-24.2c-2.5-9.1,0-18.6-3.5-27.5c-0.3-0.8-0.1-2.1,0.2-2.9
			c2.8-7,5.1-13.5,2.2-21.7c-2.2-6.3,5.7-13.3,12-12.4c4.7,0.7,6.2,3.4,3.7,7.5c-1.5,2.5-2.9,4.4-0.5,7.8c4.6-4.7,9.5-8.9,14.6-12.8
			c14.1-10.7,30.1-17.5,47.5-18.1c15.4-0.6,30,4.4,41.4,16.1c4.4,4.5,8.8,9,12.4,14.1c5.3,7.5,3,14.2-6,16.3
			c-6.4,1.5-13,2.2-19.6,2.9c-3.3,0.4-6.5,0.4-8.8-3.1c-2.1-3.2-3.8-1.8-6.2,0.6c-6,6.2-14,6.5-20.9,1c-1.3-1.1-2.5-2.2-4.2-2.3
			c-6.3,0-12.6-0.1-19,0.1c-1.6,0-3.4,0.8-3.5,2.8c-0.1,1.6,1.2,2.3,2.4,2.9c7.2,3.3,14.4,6.9,21.8,9.7c4.8,1.8,8.7,3.8,8.2,9.6
			c-0.4,5.4-4.5,8.8-11.4,8.8c-10.4,0.1-20.4-2.1-29.8-6.6c-3-1.4-6-2.8-9.8-4.7c-0.3,7.9,4.2,13.5,6.8,19.4
			c5.9,13.4,13,26.2,19,39.4c6.6,14.3-0.3,32.2-15.1,40.7c-6.4,3.6-13.2,6.4-20.8,5.8c-5.1-0.4-9.6,2.8-14.7,2
			c-15.5-2.5-32-0.3-46.3-9.2c-5.7-3.5-10.8-7.6-13.7-13.9c-2-4.5-1.7-8.8,2.3-11.5c3.8-2.5,8.8-2.8,12.1,0.4
			c5.6,5.5,11.6,9.5,19.6,10.6c3.7,0.5,4.3,4.7,5.9,7.5c-6.8,4.6-13.2,1.1-19.7-0.3c19.2,3.7,38.4,7.7,58.2,2.7
			c20.2-5.1,26.9-18.5,18.7-37.6c-5.9-13.8-13.9-26.5-20.4-39.9c-6.8-14.1-8.2-28.5-6-43.7c0.5-3.3,0-6.6,0.8-10.1
			c-7.6,33.4,4.5,62.5,19.3,90.9c1.8,3.5,3.8,7.1,4.7,11c1.4,6.1,1.1,11.9-3.4,16.9C566.1,605.2,538.5,611,526.4,605.7z"/>
		<path class="st3" d="M606.2,370.1c6.4-7.5,6.8-7.4,16.1-4.6c19.1,5.8,35.4,16,49.2,30.4c5.3,5.6,9.3,12.1,13.1,18.7
			c4.2,7.4,0.4,13.2-8.2,13.2c-6.8,0-12.8-3.4-19.2-4.8c-10.3-2.3-20.6-4.9-31.2-5.1c-3.2-0.1-5.4-1-7.3-4
			c-3.2-5.1-5.6-5.2-10.1-1.8c-6.8,5.2-15,5.3-22.5,0.4c-5.4-3.6-5.8-3.6-9.9,1.8c-3.3,4.3-9.5,5.1-14,1.8c-1.5-1.2-2.4-3-4.3-4
			c-8.3-4.6-8.4-5.8-6.1-14.7c3.7-14.1,12.6-23.8,24.5-31.2c2.3-1.4,4.8-2.9,7.5-1.9c3.6,1.2,6.4-0.4,9.5-1.4
			C600.4,360.3,603.2,362.1,606.2,370.1c-3.4,3-7.6,2.1-11.5,2.5c-16.1,1.7-26.9,10.8-31.5,26.3c-1.7,5.7-0.5,8,5.9,7.4
			c34.4-3.1,68.4-1.3,103,9.3c-15.5-21.6-34.1-35.9-59.1-41.2C610.3,373.9,606.8,374.3,606.2,370.1z"/>
		<path class="st5" d="M406.2,481.8c6.9-10,15.2-18.4,26.6-23.2c9-3.9,18.3-5.4,28.1-3.1c17.3,4.1,32,12.6,44.1,25.5
			c1.6,1.7,3.4,3.4,3.7,6c0.1,1.1-0.7,2.1-1.8,2.1c-31.6,2-62.9,5.4-93.2-3.5C411.5,484.8,408.3,483.6,406.2,481.8z"/>
		<path class="st6" d="M514.1,410c-39.7-4.8-78.8-2.9-117.2,9.4c0-1.3-0.2-2.1,0-2.5c18.2-27.3,42.4-44.9,76.1-46.4
			C497.3,369.4,512.5,384.1,514.1,410z"/>
		<path class="st7" d="M526.4,605.7c11.5,1,29.6-1,40.8-7.3c9.4-5,11.7-11.8,7.4-21.6c-5-11.3-10.7-22.3-15.7-33.7
			c-8.1-18.2-10.8-38.6-6.9-58.2c0.9-4.8,0.6-9.9,2.6-14.9c0,3.5,0.3,7.1-0.1,10.6c-2.7,24.2,3.5,46,16.2,66.5
			c4.2,6.8,7.2,14.3,10.9,21.3c10.9,20.3,2.8,36.9-19.4,42.4c-20.2,5-40.2,2.6-59.7-4.1c-1.2-0.4-4.1-2.4-4.6-3.1
			c-0.5-0.6,0.2-1.5,0.9-1.2c8.4,2.7,15.3,2.6,23.6,3.5C523.7,605.7,525,605.7,526.4,605.7z"/>
		<path class="st8" d="M464.5,516.1c15.3-7,29.5-13.5,44-20.1C502.4,508.7,480.3,519.1,464.5,516.1z"/>
		<path class="st9" d="M659.4,485.7c-31,4-62,5.1-93.3,3.3c-1.3-0.1-2.3-1.2-2.2-2.6c0.3-2.1,2-3.7,3.5-5.2
			c13.4-14.3,29.6-24,49.1-26.5c17.5-2.2,31.6,5.8,43.3,18.4c2.1,2.3,3.9,4.9,5.8,7.4c0.6,0.8,0.5,1.8-0.2,2.5
			c-2,1.9-3.5,2.1-4.9,2.5C660.2,485.6,659.8,485.6,659.4,485.7z"/>
		<path class="st8" d="M563.2,495.2c15.1,7.8,30.3,14.4,46.9,21.2C592.6,519.3,570.9,509.2,563.2,495.2z"/>
		<path class="st10" d="M606.2,370.1c18.7,3.4,35.6,10.6,49.8,23.5c5.2,4.7,10.2,9.6,14.5,15.2c2.2,2.9,4.7,5.6,5.7,9.3
			c-2.3,2.3-4.4,0.1-6.2-0.5c-33.4-9.7-67.4-12.1-101.9-8.4c-2,0.2-4,0.4-6,0.6c-3.1,0.3-3.9-0.9-3.7-4c1-18.1,16.7-34.2,34.8-35.4
			C597.5,370.2,601.8,370.2,606.2,370.1C606.1,370.1,606.2,370.1,606.2,370.1z"/>
		<path class="st11" d="M504.5,487.1c-10.8-0.7-19.2-1.2-28.1-1.8c0,0,2.1-2.7,2.1-8.5c0-5.3-2.1-8.5-2.1-8.5
			c10.5,4,19.5,9.4,28.2,18.4C504.8,486.8,504.7,487.1,504.5,487.1z"/>
		<path class="st12" d="M434.1,481.1c0.1,0.4-0.2,0.9-0.7,0.9c-1.7,0-5.5,0-8.7-0.2c-4.1-0.2-7.4,0-12.2-1.6
			c6.1-4.8,10.9-15.8,24.8-16.1c0.5,0,0.8,0.6,0.5,1C434.2,469,432.5,476.4,434.1,481.1z"/>
		<path class="st13" d="M468.4,474.6c0.7,3.9-1.5,6.2-4.5,6.4c-3,0.2-5.1-1.7-5.2-4.8c-0.1-2.6,1.4-4.3,4.1-4.7
			C466.1,471,468.1,472.6,468.4,474.6z"/>
		<path class="st14" d="M408.3,407.9c8.9-11.3,19.8-18.8,32.5-23.9c13.1-5.3,26.8-6.4,40.9-6.4c8.8,0,19.4,9.3,22.2,19.9
			c1.2,4.6-3.1,4.8-5.8,4c-8.5-2.4-17.1-1.8-25.7-1.6c-19.8,0.5-39.5,2.6-58.6,8.3C412.5,408.6,411.4,409.5,408.3,407.9z"/>
		<path class="st15" d="M569.6,486.6c7.1-8.8,16.4-14.4,27.9-18.7c-3.6,6.1-2.2,12.9,0.4,16.9C588.4,486.8,579.1,485.3,569.6,486.6z
			"/>
		<path class="st16" d="M659.7,479.8c0.2,0.1,0.2,0.5,0,0.6c-6.6,2.9-13.6,1-20.3,1.5c-2,0.2-2.5,0.4-2-3.2
			c0.9-6.6-3.7-10.8-4.9-12.8C643.4,468.4,651.1,475,659.7,479.8z"/>
		<path class="st17" d="M609.2,480.7c-3-0.4-5-1.7-4.9-5c0-2.8,1.7-4.3,4.3-4.5c3-0.2,5.2,1.1,5.4,4.3
			C614.2,478.8,612.2,480.3,609.2,480.7z"/>
		<path class="st14" d="M662.8,409.2c-9.2-2.5-18.6-5.4-28.4-6.4c-19.4-2.1-38.7-5.3-58.2-1.4c-2.3,0.4-4.9,1.1-6.6-0.7
			c-2.4-2.5-0.2-5,0.9-7.3c4.9-9.9,11.9-15.7,24-15.8c16.7-0.2,32.2,3.2,46.8,10.8c8,4.2,14.8,9.9,20.9,16.6
			C663.2,406,663.9,407.1,662.8,409.2z"/>
		<g>
			<path class="st18" d="M513.2,665.4c-6.3-0.7-12.4-1.9-12.4-1.9s-35.1-9.8-49-25.8c-0.5-2.4,0.4-3.4,2.9-2.8
				c11.5,9.6,27.1,15.4,39.3,19.4c3.5,1.2,18.9,2.9,20.1,3c12.6,1.4,25.3,1.5,37.9-0.1c4.9-0.9,9.8-1.7,14.7-2.7
				c17.7-3.4,33.4-11.1,47.3-22.4c1.7-1.4,2.7-3.7,5.4-3.7c-3.6,16.8-38.4,36-66.8,37C539.5,666.7,526.3,666.6,513.2,665.4z"/>
			<path class="st19" d="M608.7,616.9c-0.7-0.8,0.2-2,1.2-1.6c4.2,1.8,6.9,4.2,9.5,6.8c12.2,12.2,12.1,45.6,0.9,58.9
				c-0.6,0.7-1.6,0.3-1.7-0.6c-0.2-5.1,2-9.7,2.6-14.4c0.5-4.1,3.2-16.4,0.1-27.5C619,629.7,612.8,621.7,608.7,616.9z"/>
			<path class="st20" d="M453.8,668.2c1.1,4.6,2.3,7.9,3.6,12.1c0.2,0.8-0.7,1.4-1.3,0.8c-16.6-17.7-14.7-50.1,6-65.5
				c1.1-0.8,2.5,0.5,1.7,1.7c-1.5,2.2-3.3,4-4.6,5.8c-1.8,2.6-6.7,13.5-7.8,23.7C450.4,656.6,452.5,663.5,453.8,668.2z"/>
		</g>
		<path class="st21" d="M329.5,435.5c-1.3-5.1-1.6-8.9-3.4-13.8c-5.5-14.6-11.3-29.1-14.6-44.4c-4-18.5-4.3-36.8-1.6-55.4
			c3.1-20.6,9.4-40,19.2-58.4c8.1-15.3,18.8-28.2,33.9-36.9c5.1-2.9,7.8-6.6,9.1-12.1c5.9-24.8,21.4-42.3,42.8-55
			c23.6-14,49.5-20.9,76.6-23.6c12.5-1.3,25.2-1.9,37.8-2c35.8-0.3,69.9,7.8,102.6,22c30.5,13.3,57.8,31.2,81,55.5
			c24.5,25.6,41.2,55.3,50.9,89.1c6.9,24,11.3,48.5,10.3,73.7c-0.5,13.4-3.5,28.7-8.8,40.6c-0.6,1.2-2.3,1.3-3,0.2
			c-3.8-6.1-7.4-12-11.8-19c-9.7,23.3-17.9,82.8-19.2,98.5c-0.6,2.4-1,4.3-1.3,6.3c-0.1,0.5-0.5,0.9-1.1,0.9
			c-3.2,0.1-6.4,0.9-9.8,0.3c-6-1.1-11-3.3-16.8-4.8c-0.8-0.2-1.2-0.9-1.1-1.7c2.8-16.3,5.1-31.7,8-46.9c5.8-29.8,7.5-59.2-3.3-88.6
			c-3.9-10.7-11.3-16.8-20.3-21.9c-4-2.2-8.8-3.1-13.3-4.3c-32.6-8.6-65.9-9.6-99.2-7.2c-31.1,2.2-61.9,1.1-92.5-4.8
			c-29.2-5.7-57.6-12.4-81.8-31.3c-0.1-0.1-0.3-0.3-0.7-0.4c-1-0.3-2.1,0.4-2.3,1.5c-0.8,6.3-1.5,12.7-2.6,18.9
			c-3.4,20.2-10.7,39.1-19.4,57.5c-3.7,7.8-7.7,15.7-9.4,24.1c-4.1,19-4.2,38.4-1.5,57.7c1.9,13.5,4.3,27,6.4,40.4
			c0.3,2.2,0,4.4,0,6.4c-5.8,1.7-10.9,3.1-16.8,4.6c-4.1,0.2-7.4,0.4-10.8-0.2c0-17.9-2-34.6-6-51.8
			C332.7,437.1,329.5,435.5,329.5,435.5z M408.1,203.6c-0.4,0-0.4-0.1-0.1-1.5c0.6-2.5,2-4.9,3.7-6.9c14.5-17.1,32.4-29.7,53.4-37.5
			c11.3-4.2,23-7.6,36.7-12.1c-4,0-5.6-0.2-7.2,0c-19.5,2.6-38.9,5.8-57.1,13.4c-19.6,8.2-37.1,19-48.6,38.1
			c-10.7,17.8-13.9,52.4,1.5,70.9c8,9.5,16.8,17.9,28,23.7c30.2,15.6,63.1,21.2,96.3,23.3c26.1,1.6,52.5-0.8,78.8-1.3
			c4.7-0.1,9.3,0,14,0.2c6.6,0.4,13.2,1.1,19.9,1.5c21,1.3,41.5,5.1,61.4,12.3c30.8,11.1,52.4,33.8,69,60.4c1,1.8,2.7,2.6,4,4
			c1.1-0.6,0.8-0.5,0.9-0.7c0.4-0.9,1.5-1.4,1.7-2.4c4.3-22.3,2.3-44.4-3.2-66.2c-13.8-54.4-43.4-98.1-89.9-130
			c-6.5-4.4-13.6-9.1-21.1-10.7c-31.7-6.9-63.7-9.1-96.1-4.9c-31.1,4.1-60.3,13.2-86.6,30.8c-1.7,1.1-3.7,1.8-5.6,2.6
			c-0.4-0.6-0.8-1.2-1.2-1.7c2.1-1.9,4-3.9,6.3-5.6c28.8-20.3,61.2-30.9,95.9-33.4c19.1-1.4,38.5,0.8,57.8,1.4c2.5,0.1,4.9,0,7.4,0
			c1,0,1.7-1.2,1-2c-0.7-0.9-1.5-1.4-2.3-1.8c-31.6-13-63.2-23.9-98.6-18.6c-18.8,2.8-37.4,5.9-55.4,12.1
			c-21.7,7.5-41.4,18.2-56.8,35.7C413.3,199.5,410.6,201.5,408.1,203.6 M380.6,270.3c-4.1-10.3-8.2-20.7-12.3-31
			c-33.2,15.5-53.7,86.6-44.6,118c21.8-26.8,36.8-38.5,51-38.1c-4.3,3.4-7.5,6.2-10.9,8.6c-13.6,9.7-25.4,21.4-35.5,34.8
			c-4.7,6.2-5.9,12.4-2.7,17.8c3.8-2.9,8.1-5.7,11.6-9.1c11.1-10.5,20.9-22.4,35.2-29.1c2.5-1.2,4.8-4.8,5.6-7.7
			c3-11.9,6.2-23.8,7.8-35.9C387.1,289.5,387.4,279.8,380.6,270.3 M356.3,466.2c-0.9-6.9-1.9-13.8-2.7-20.8
			c-3.3-27.5-2.2-54.4,11.3-79.6c0,0,0-0.1,0-0.1c1.8-3.5-2.3-7.1-5.6-4.9c-8.7,6-20.2,17.1-28.7,27.8c-1.4,1.8-1.8,4.3-1.1,6.5
			c1.5,4.2,3,8.6,4.7,12.9c7.6,18.9,14.5,37.9,16,58.4c0.5,6.3,1,12.6,2.1,18.8c0.1,0.6,0.6,1.2,1.2,1.7c1.9,1.5,4.9,0.7,5.4-1.6
			c0.1-0.2,0.1-0.5,0.1-0.7C358.7,479,357.6,473.5,356.3,466.2 M721.6,379.7c0.8,6.9,2,13.8,2.3,20.7c0.8,16.7-2.3,33.1-5,49.4
			c-2.1,12.7-4,25.1-6.2,37.8c5.7,0.2,5.7,1.4,6.4-4.7c1.7-14.1,3.7-28.4,6.5-42.4c3.1-15.6,7.9-30.8,11.9-46.3c0.7-2.8,2.3-7,1-8.4
			c-6-6.6-7.2-12.3-17.9-15.8C721.9,374.6,720.2,374.7,721.6,379.7"/>
		<path class="st22" d="M472.2,161.3c0.1,0,0.1-0.1,0.2-0.1c17.9-6.2,36.5-9.3,55.3-12.1c35.3-5.3,67,5.6,98.6,18.6c0,0,0,0,0,0
			c2,0.8,1.3,3.8-0.8,3.8c-1.8,0-3.5,0-5.3,0c-19.3-0.5-38.7-2.7-57.8-1.4c-34.7,2.5-67.2,13-95.9,33.4c-0.8,0.5-1.7,1.4-2.6,2.3
			c-1.3,1.4,0.4,3.5,2,2.5c0.3-0.2,0.6-0.4,0.9-0.6c26.3-17.6,55.7-26.2,86.8-30.3c32.4-4.2,64.4-2.1,96.1,4.9
			c7.5,1.6,14.6,6.3,21.1,10.7c46.5,31.8,76.1,75.6,89.9,130c5.5,21.8,7.6,43.9,3.2,66.2c-0.1,0.7-0.8,2.1-1.7,2.9
			c-2.2,2-7.1-0.6-7.9-2.1c-15.3-28.9-35.2-50.9-66-62.1c-19.8-7.2-40.3-11-61.4-12.3c-6.6-0.4-13.2-1.1-19.9-1.5
			c-4.7-0.3-9.3-0.3-14-0.2c-26.3,0.5-52.7,2.9-78.8,1.3c-33.2-2.1-66.1-7.7-96.3-23.3c-11.2-5.8-20-14.1-28-23.7
			c-15.4-18.5-12.1-53.2-1.5-70.9c11.5-19.1,29-29.9,48.6-38.1c18.2-9,42.4-11.6,61.9-14.3c0.6-0.1,1.2-0.1,1.9-0.1
			c1,0,1.2,1.4,0.3,1.7c-11.6,3.7-26.5,7.6-36.4,11.3c-21,7.8-38.9,20.3-53.4,37.5c-1.1,1.3-1.8,2.9-2.8,4.8
			c-0.4,0.8,0.5,1.6,1.3,1.1c0,0,14.7-15.9,30-25.7C459.7,162.8,472.2,161.3,472.2,161.3z M623.8,208.4c30.7,7,58.8,19.9,82.4,40.9
			c20.5,18.2,35.8,40.5,44.1,66.7c5.7,17.9,8.6,30.5,13,48c0-2.8,0.2-0.8-0.5-4.5c-2.2-12.1-3.3-24.2-6.5-36
			c-10.6-39.6-33.6-70.6-67.3-93.6c-30.2-20.7-64.4-29.9-100.5-31.9c-28.6-1.6-56.3,3.8-82.9,14.4c-9,3.6-17.7,8-25.6,13.7
			c-0.8,0.6-0.2,1.8,0.7,1.6c2-0.4,3.8-1.2,5.5-2.1c28.9-15.2,60-21.5,92.4-21.5c14.5,0,28.2,2.3,44.4,4.2L623.8,208.4z"/>
		<path class="st22" d="M381,271c6.4,8.9,6.1,18.5,4.8,27.6c-1.7,12.1-4.8,24.1-7.8,35.9c-0.7,2.9-3,6.5-5.6,7.7
			c-14.3,6.7-24.1,18.7-35.2,29.1c-3.6,3.4-7.8,6.1-11.6,9.1c-3.2-5.4-2-11.6,2.7-17.8c10.1-13.4,21.8-25,35.5-34.8
			c2.3-1.6,4.5-3.4,6.9-5.4c1.2-1,0.3-3-1.2-2.8c-12.7,2.2-26.6,14.1-45.8,37.7c-9.1-31.4,11.4-102.5,44.6-118
			C372.4,249.7,376.5,260,381,271z"/>
		<path class="st22" d="M356.5,467.1c1.1,6.4,2.2,12,2.8,17.6c0,0.2,0,0.5-0.1,0.7c-0.6,2.4-3.6,3.1-5.4,1.6
			c-0.6-0.5-1.1-1.1-1.2-1.7c-1.1-6.2-1.6-12.5-2.1-18.8c-1.6-20.5-8.4-39.6-16-58.4c-2-4.9-3.7-9.9-5.3-14.7
			c-0.4-1.1-0.2-2.3,0.5-3.2c9-11.7,21.9-24.2,31.1-30.2c2.8-1.8,6.3,1.2,5,4.3c-0.2,0.5-0.5,1-0.7,1.5
			c-13.4,25.2-14.5,52.1-11.3,79.6C354.5,452.4,355.4,459.3,356.5,467.1z"/>
		<path class="st22" d="M721.4,378.9c-1-3.6-1.9-6.6-2.9-10.2c-0.2-0.8,0.6-1.5,1.3-1.2c9.3,3.9,13.1,12.3,18.8,18.4
			c1.2,1.4-0.3,5.6-1,8.4c-4,15.4-8.8,30.7-11.9,46.3c-2.8,13.9-3.8,28.2-5.5,42.4c-0.7,5.8-0.6,6-6.8,5.1c-0.5-0.1-0.9-0.6-0.8-1.1
			c2.2-12.3,4.4-24.7,6.4-37c2.8-16.4,5.9-32.7,5-49.4c-0.3-6.9-1.5-13.8-2.6-21.4C721.4,379,721.4,378.9,721.4,378.9z"/>
		<path class="st23" d="M623,208.4C623,208.3,623,208.3,623,208.4c-15.4-1.7-29.9-4.4-44.5-4.4c-32.3,0-63.4,6.3-92.4,21.5
			c-1.8,1-3.8,1.8-5.9,2.2c-0.9,0.2-1.4-1-0.6-1.5c8.1-5.8,16.8-10.3,25.9-13.9c26.6-10.6,54.3-16,82.9-14.4
			c36.1,2,70.3,11.2,100.5,31.9c33.7,23,56.7,54,67.3,93.6c3.2,11.8,5.3,24,7.5,36c0.3,1.4,0.3,2.9,0.3,4.3c0,1-1.4,1.2-1.7,0.2
			c-3.7-15.7-7.1-32.1-12.2-48c-8.3-26.2-23.6-48.5-44.1-66.7C682.5,228.3,654.5,215.6,623,208.4z"/>
		<g>
			<path class="st24" d="M660.3,761.1c-1.3,1-5.1,2.7-10.4,8.9c-3.2,3.8-6.5,7.3-9.9,10.9c-5.3,5.6-10.3,11.4-15.7,16.9
				c-7.1,7.2-16.2,11.2-24.7,16.3c-1.1,0.7-2.6,1.1-3.4,2c-9.7,11.8-24,13-37.2,17.2c-21.6,6.9-43,3.5-64-1.3
				c-16.4-3.7-31.1-12.8-44.6-23c-1.4-1.1-2.9-2.1-4.4-3c-8.6-5.3-15.2-12.6-20.6-21.3c-3.2-5.1-5.7-11.1-12.7-13.6
				c-0.4-0.1-0.6-0.4-0.6-0.8c-0.6-7.9-0.7-15.8-0.7-25.2c0-0.8,0.9-1.2,1.5-0.7c1.9,1.6,3,2.5,4,3.5c12.5,12.3,24.1,25.9,37.7,36.8
				c29.2,23.2,62.8,31.7,100.1,26.7c30.3-4,55.7-17,77.2-38c7.6-7.4,13.5-14.5,20.8-22.3c1.1-1.1,3.8-2.7,6.5-4.9
				c0.6-0.5,1.5,0,1.5,0.7c0,5-0.1,9-0.2,13.3C660.6,760.7,660.5,761,660.3,761.1z"/>
			<g>
				<path class="st4" d="M347.3,844.4c12.8-3.3,27.4-6.6,40.1-8.9c2.5-0.5,5.2-0.6,9.1-1c0,14.8-5.3,26.3-0.4,40.5
					c0.8-1.7,2-3.2,2.4-5c4.3-17.1,6.8-31.6,7.6-49.2c0.7-16.9,3.4-40.9,5.4-58.5c7.6,1.5,12.3,15,15.6,20.2
					c5.6,8.9,12.4,16.4,21.5,21.8c1.7,1,3.2,2.3,4.8,3.5c13.2,9.8,27.4,18.3,43.3,21.9c21,4.8,42.3,8.3,64,1.3
					c13.2-4.2,27.6-5.5,37.2-17.2c0.8-1,2.3-1.4,3.4-2c8.5-5.1,17.7-9.1,24.7-16.3c3.7-3.7,7.2-7.6,10.7-11.5
					c7.6-8.3,15.1-16.6,22.7-24.9c0.4-0.4,1.3-0.3,1.9-0.4c1.4,24.2,2.2,48.5,4.6,72.6c1.4,14.5,5.2,28.7,8,43
					c0.2,1.2,1.2,2.2,2.4,4.1c4.7-7.4-0.9-15.2-0.7-22c0.2-6.9-0.9-13.6-1.3-21.6c16.6-0.3,35.2,6.2,51.5,8.5
					c-3,25.1-10.6,48.8-22.5,71c-20.6,38.4-51,67.9-91.2,83.3c-44.4,17-92.3,18.9-137.5,4.6c-62-19.8-103.1-61.9-121.1-124.5
					C350.7,868,349.3,854.9,347.3,844.4z"/>
				<path class="st25" d="M736.7,445.8c1-3.3,1-6.6,2.7-10.2c14.6-0.4,24.1,7.5,29.1,19.4c2.5,6.1,4.3,12.8,4.7,19.4
					c1.9,31.4-2.4,62.1-14.7,91.2c-6.2,14.7-14.3,28.2-30.2,34.6c-4.5,1.8-4.2,5.7-5.1,9c-4.1,14.8-7.4,29.8-12,44.5
					c-8.1,25.7-20.2,49.5-35.5,71.6c-2.4,3.5-3.5,6.9-3.3,11.1c1,21.7,1.6,43.4,2.5,65.1c0.2,5.6,1.2,11.2,1.8,17.2
					c16.9,3.8,34.3,7.4,51.9,11.4c0,5.2-1,10.2-2.8,15.8c-16.6-1.5-32-7.8-48.7-7.5c0.4,8.1,1.2,15,0.9,21.9
					c-0.2,6.5,1.8,13.4-1.9,20.4c-0.3,0.7-1.3,0.8-1.7,0.2c-0.9-1.2-2.3-3.2-3.2-6.6c-2.8-10.8-5.3-29.8-6.3-39.7
					c-2.4-24.2-3.1-48.6-4.5-73.8c0.1-3.9,0.1-7.4,0.1-11.7c0-1.5-1.7-2.2-2.8-1.3c-1.4,1.2-2.3,2-3.2,2.9
					c-7.3,7.8-14.2,16-21.9,23.5c-21.7,21.2-47.2,34.2-77.6,38.2c-37.5,5-71.3-3.5-100.6-26.9c-13.8-11-25.4-24.6-38-37
					c-1.3-1.2-2.7-2.3-5.6-4.8c5.1,32.7-2.3,99-13.3,134.1c-0.4,1.1-2,1.1-2.2-0.1c-3.4-13.1-1.2-26.3-1.1-39.9
					c-4,0.4-6.6,0.5-9.2,1c-12.8,2.4-25.5,4.9-38.3,7.3c-1.2-4.6-2.9-9.9-4.3-15.3c17-4.6,34.7-7.8,52.6-11.9
					c0.6-10.3,1.5-20.9,1.9-31.5c0.7-18,1.4-36,1.5-54c0-4-1.1-7.8-3.2-11.2c-22.1-34.1-37-71-44.7-110.8
					c-1.3-6.9-3.8-11.7-10.6-15.4c-9.3-5.1-14.9-14.2-19.6-23.5c-11.3-22.4-15.8-46.5-18.3-71.3c-1.4-13.8-1-27.3,2.8-40.5
					c3.3-11.9,11.4-21.1,24.5-25.3c6.3,1.6,4.7,7.2,5.8,11.7c-9.7,0.9-15.1,7.3-17.6,14.3c-2.3,6.4-3,13.5-3.2,20.2
					c-0.7,18.2,1.3,36.3,5.7,54c3.5,14.3,7.9,28.4,16.7,40.6c2.4,3.3,5.5,6.1,8.3,9.2c0.8-11.9,0.2-22.8-0.9-33.6
					c-0.2-2.1-1.7-5.9-5-8.9c-1.5-1.1-3.9-3.6-6.7-5.1c-0.5-0.3-0.3-1.1,0.3-1.1c3.7,0.1,7,3.6,10.1,2.5c-0.3-11.5-0.9-27-1-38.4
					c0-2.7,1.4-4.7,4-4.7c1.8,0,3.7,4.1,5.9,4.5c1.6,13.7,2,26.4,3.1,39.1c1.7,19.6,3.1,39.3,6.1,58.8
					c10.5,67.1,40.6,124,90.5,170.4c49.1,45.7,125.4,44.1,172.1-0.9c28-27,50.8-57.6,66.8-93.2c14.4-32.1,22.7-65.8,26.3-100.5
					c2.6-24.6,2.6-47.9,4-72.6l0.2,0c2.5-0.4,4.9-1.6,6.6-3.5c5.1-5.4,1.2-4.8,4.4-6c10.6-4.2,14.9-2.9,15.8-2.4
					c0.3,0.2,0.3,0.7-0.1,0.8c-7.6,2.8-12.9,7.3-14.9,14.8c-2.9,11.2-1.6,22.6-1.4,33.5c0,0.3,0.2,0.6,0.5,0.6
					c3.8,0.4,7.2-2,12.6,0.1c0.4,0.1,0.3,0.7,0,0.8c-14.4,4.1-14.5,7.6-15.3,21.4c-0.3,5.3-1.2,10.6-1.6,15.9
					c-0.2,1.8-0.2,3.2-0.1,5.9c0.1,1.3,1.5,2.1,2.6,1.5c6.2-3.3,9-8.6,11.8-13.6c16.3-30.4,21.9-63.2,19-97.1
					C759.4,458.4,756,448.7,736.7,445.8z"/>
				<path class="st26" d="M239.8,1954.6c-4.9-1.3-9.9-2.6-15.6-3.9c-19.9-6.6-39.1-13.2-58.2-20c-3.7-1.3-7.1-3.2-10.8-4.9
					c3.1-18.4,6.3-36,9.1-53.7c3.9-25.2,8-50.5,11-75.8c3.4-29,6-58.1,8.3-87.2c1.5-18.9,1.8-37.8,2.5-56.7
					c0.6-15.3,1.5-30.5,1.3-45.8c-0.3-22.9-1.5-45.8-2.9-70.1c2.9-16.1,1.1-31,0.4-45.8c0-0.6-0.7-1.1-1-2.6
					c-0.8-38.3-1.7-75.6-2.4-113.8c0.1-16.1,0.3-31.3-2.3-46.3c-7.4-1-14-1.9-20.5-2.8c-38.8-5.2-76.2-15.5-111.6-32.3
					c-3.6-1.7-7.4-2.8-11.5-4.8c-4.2-2.2-8.1-3.8-11.9-5.4c-4.3-3-8.7-6-13-9c-14.7-10.3-29.4-20.6-44.5-31.2
					c1.2-2.5,1.8-4.3,2.9-5.8c21.6-31.1,37.5-65.2,50.5-100.6c15.7-42.8,30.3-86,46-128.8c10.2-27.8,21.5-55.3,38.3-79.9
					c18.9-27.7,44-47,77-54.9c15-3.6,30.2-3.8,45.6-2c3.4,0.4,7.4,0.1,10.4-1.5c33.4-17.9,69-29.7,106.6-38.1
					c2.1,5.2,3.3,9.9,4.3,15.3c2,10.6,3.5,20.5,6.3,30C372,938.6,412,980.9,474,1000.6c45.2,14.4,90.8,13.1,135.2-4
					c40.2-15.4,71.8-41.7,92.4-80c11.9-22.2,19.5-45.9,23.5-71.6c1-5.7,1.8-10.5,2.6-15.3c36.8,8.4,72.2,20.5,105.4,38.6
					c4.1,2.2,7.8,2.8,12.3,2.2c39-5.1,72.9,5.9,101.7,32.7c18.1,16.9,30.3,37.8,40.6,59.9c17.4,37.4,30.6,76.5,44,115.5
					c13.9,40.6,27.3,81.3,47.7,119.3c7.8,14.6,16.7,28.7,25.5,43.7c-17,15.2-36.8,27.3-57.2,40.7c-4.1,2.1-7.1,3.7-10.7,5.2
					c-1.3,0.2-2,0.2-2.6,0.5c-34.8,18.2-71.8,29.5-110.4,35.6c-10.7,1.7-21.5,3.1-33,4.8c-1.3,15.8-1.3,31.3-0.9,47.7
					c-0.6,15.5-1.2,30-1.5,44.5c-0.4,22.8-0.6,45.6-1.3,69.1c-1.5,16.1-2.8,31.6,0.5,47c-0.6,2.8-1.8,5.6-1.8,8.5
					c-0.7,31.9-1.9,63.8-1.6,95.7c0.3,25.2,1.8,50.4,3.9,75.6c4,47.6,8.8,95.1,16.9,142.3c3.5,20.6,7,41.2,10.4,61.9
					c0.3,1.6,0,3.3,0,5.6c-21.2,10.3-43.7,17.1-66.8,24.3c-5.7,1.3-10.8,2.3-17.3,3.8c-21.9,4.9-42.3,9.6-62.8,13.7
					c-59.8,11.9-120.3,18.4-181.2,20.5c-64.9,2.3-129.7,0.6-194.3-7c-40.3-4.7-80.4-11-120-19.6
					C261.9,1959.4,250.9,1957,239.8,1954.6 M177.3,1195.2c-0.5-8-1.1-15.9-1.4-23.9c-0.2-7.7-0.5-15.4,0-23c0.5-7.5-2.6-15.6,3.7-24
					c1.7,3.5,3.3,5.7,3.7,8c1.6,12.2,3.2,24.4,4.3,36.6c1.1,12.2,1.5,24.6,2.4,36.8c1.7,22.8,4.3,45.6,5.2,68.5
					c1.3,33.6,1.5,67.2,2.2,100.8c0.8,36.9,1.6,73.9,2.4,110.8c0,1,0.1,2,0.1,3c1.2,24.9,3.3,49.8,3.4,74.7
					c0.1,42.9-1,85.9-1.8,128.8c-0.2,12.3-1,24.6-2.2,36.8c-2.3,23.1-4.7,46.3-7.6,69.3c-3.3,26-7.1,52-11,77.9
					c-1.9,12.8-4.3,25.4-6.5,38.7c3.2,1.5,5.7,3,8.5,3.9c19,6.2,37.9,12.7,57.1,18.2c33.6,9.7,67.9,16.2,102.5,21.4
					c24,3.7,48.1,6.3,72.2,8.5c25.8,2.4,51.7,5,77.5,5.4c36.6,0.5,73.2-0.5,109.8-1.6c22.6-0.7,45.2-1.7,67.6-4.5
					c34.9-4.4,69.8-9.6,104.4-15.9c35.1-6.3,69.5-15.4,103.2-27.2c6.8-2.4,13.4-5.2,20.2-7.9c-1.7-9.9-3.3-18.3-4.6-26.8
					c-4.4-28.6-9.1-57.1-12.8-85.8c-2.9-22.1-4.8-44.3-6.4-66.5c-2.2-29.5-4.9-59-5.5-88.5c-0.6-34.3,0.8-68.6,1.5-102.8
					c0.7-34.3,1.5-68.6,2.3-102.8c0.1-3,0.6-5.9,1.1-8.8c0.8-4.5,2.3-8.9,2.5-13.5c0.9-25.9,1.8-51.9,2-77.8
					c0.3-47.9,0.8-95.9,4.3-143.7c1.6-21.9,4-43.7,6.3-65.5c0.3-2.6,2-5,3.3-7.9c5.5,3.5,4.4,7.9,4.3,11.6
					c-1.1,37.9-2.5,75.8-3.6,113.7c-0.5,18-0.3,36-0.4,54c0,1.9,0.7,3.8,1.3,6.9c70.3-6.3,133.5-29.2,189.4-73.3
					c-2.1-4-3.6-7.3-5.4-10.4c-18-29.8-32-61.4-43.7-94c-13.9-38.5-27-77.3-40.9-115.9c-9.6-26.6-20.3-52.9-35.6-76.9
					c-21.4-33.5-51.6-53.1-92-55.3c-2.5-0.1-5,1-8.3,1.6c6.1,10.3,17.6,15.4,20.2,27.2c-16.2-6.6-28.4-19.1-43.6-26.7
					c-15.4-7.8-30.9-15.6-46.8-22.3c-15.8-6.7-32.2-11.9-49.4-15.6c-2.4,10.3-4.4,19.7-6.9,29c-10.5,39.3-29.4,73.5-60.9,99.9
					c-46.4,38.9-100.6,51.9-159.6,45.8c-37.8-3.9-71.9-18.3-102-42.2c-31.3-24.9-51.7-57-63.3-94.8c-3.6-11.7-6.2-23.7-9.3-35.5
					c-7.1-2.2-12.8,1.6-18.7,3.3c-37.4,10.7-72.7,26-103.9,49.7c-4,3-8,6.1-12.2,8.7c-1.3,0.8-3.3,0.6-5.6,0.9
					c3.5-11.6,15.3-16.6,19-29c-9.4,0.9-17.6,1.1-25.6,2.7c-32.4,6.5-55.7,26-73,53.2c-15.3,24-25.9,50.3-35.6,76.9
					c-13.9,38.5-27,77.3-40.9,115.8c-10.1,27.9-21.4,55.3-36.3,81c-4.3,7.4-8.2,15-12.3,22.3c1.6,1.8,2.4,2.9,3.4,3.7
					c35.1,26.7,73.8,46.4,116.5,57.8c10.6,2.8,21.5,4.4,33.4,7.4c11.8,2.5,23.6,5.7,36.1,3.9c0.3-3.2,0.7-5.5,0.7-7.8
					c-0.8-34.9-1.6-69.7-2.4-104.6C177.3,1197.6,177.2,1197.2,177.3,1195.2z"/>
				<path class="st27" d="M141.7,1305.5c-10.7-2.2-21.6-3.8-32.2-6.6c-42.7-11.4-81.4-31.1-116.5-57.8c-1-0.8-1.8-1.9-3.4-3.7
					c4-7.4,8-15,12.3-22.3c15-25.7,26.2-53.1,36.3-81c14-38.5,27-77.3,40.9-115.8c9.6-26.6,20.3-52.9,35.6-76.9
					c17.3-27.2,40.6-46.6,73-53.2c8-1.6,16.2-1.7,25.6-2.7c-3.7,12.3-15.5,17.3-19,29c2.3-0.3,4.3-0.1,5.6-0.9
					c4.2-2.7,8.2-5.7,12.2-8.7c31.2-23.7,66.5-39,103.9-49.7c5.9-1.7,11.6-5.4,18.7-3.3c3.1,11.8,5.7,23.8,9.3,35.5
					c11.6,37.9,31.9,69.9,63.3,94.8c30.1,23.9,64.2,38.3,102,42.2c59,6.1,113.3-6.9,159.6-45.8c31.5-26.4,50.4-60.6,60.9-99.9
					c2.5-9.3,4.5-18.7,6.9-29c17.2,3.8,33.7,8.9,49.4,15.6c15.9,6.7,31.3,14.6,46.8,22.3c15.2,7.6,27.5,20.2,43.6,26.7
					c-2.6-11.8-14.1-16.9-20.2-27.2c3.3-0.7,5.8-1.8,8.3-1.6c40.4,2.2,70.6,21.8,92,55.3c15.3,24,26,50.3,35.6,76.9
					c13.9,38.5,27,77.3,40.9,115.9c11.8,32.6,25.8,64.3,43.7,94c1.9,3.1,3.4,6.4,5.4,10.4c-55.9,44.1-119,67-189.4,73.3
					c-0.6-3.2-1.3-5.1-1.3-6.9c0-18-0.1-36,0.4-54c1-37.9,2.4-75.8,3.6-113.7c0.1-3.7,1.2-8.1-4.3-11.6c-1.3,2.9-3,5.3-3.3,7.9
					c-2.3,21.8-4.7,43.6-6.3,65.5c-3.5,47.8-4,95.8-4.3,143.7c-0.2,26-1.1,51.9-2,77.8c-0.1,4.5-1.7,9-2.5,13.5
					c-0.5,2.9-1,5.9-1.1,8.8c-0.8,34.3-1.7,68.6-2.3,102.8c-0.7,34.3-2.1,68.6-1.5,102.8c0.5,29.5,3.2,59.1,5.5,88.5
					c1.7,22.2,3.6,44.4,6.4,66.5c3.7,28.7,8.4,57.2,12.8,85.8c1.3,8.5,2.9,17,4.6,26.8c-6.8,2.7-13.4,5.5-20.2,7.9
					c-33.7,11.8-68.1,20.9-103.2,27.2c-34.6,6.2-69.5,11.5-104.4,15.9c-22.4,2.8-45.1,3.8-67.6,4.5c-36.6,1.1-73.2,2.1-109.8,1.6
					c-25.9-0.4-51.7-3-77.5-5.4c-24.1-2.2-48.3-4.9-72.2-8.5c-34.5-5.3-68.9-11.8-102.5-21.4c-19.2-5.5-38.1-12-57.1-18.2
					c-2.8-0.9-5.4-2.4-8.5-3.9c2.2-13.2,4.6-25.9,6.5-38.7c3.8-26,7.7-51.9,11-77.9c2.9-23.1,5.4-46.2,7.6-69.3
					c1.2-12.2,2-24.5,2.2-36.8c0.8-42.9,1.9-85.9,1.8-128.8c-0.1-24.9-2.2-49.8-3.4-74.7c0-1-0.1-2-0.1-3
					c-0.8-36.9-1.6-73.9-2.4-110.8c-0.7-33.6-0.9-67.2-2.2-100.8c-0.9-22.9-3.5-45.7-5.2-68.5c-0.9-12.3-1.3-24.6-2.4-36.8
					c-1.1-12.2-2.6-24.4-4.3-36.6c-0.3-2.3-2-4.4-3.7-8c-6.3,8.4-3.2,16.6-3.7,24c-0.5,7.6-0.3,15.3,0,23c0.3,8,0.9,15.9,0.6,24.9
					c-2.2,3.4-4.3,5.7-5,8.3c-5.4,18.8-10.4,37.7-15.9,56.4C151.3,1275.9,146.4,1290.7,141.7,1305.5z"/>
			</g>
		</g>
	</g>
</g>
</svg>
