<?xml version="1.0" encoding="utf-8"?>
<!-- Generator: Adobe Illustrator 27.7.0, SVG Export Plug-In . SVG Version: 6.00 Build 0)  -->
<svg version="1.1" id="Layer_1" xmlns="http://www.w3.org/2000/svg" xmlns:xlink="http://www.w3.org/1999/xlink" x="0px" y="0px"
	 viewBox="0 0 140 140" enable-background="new 0 0 140 140" xml:space="preserve">
<g>
	<g>
		<defs>
			
				<ellipse id="Ellipse_891_00000111906515897593470950000003860035974219470472_" cx="448.99" cy="-1832.72" rx="536.198" ry="536.198"/>
		</defs>
		<clipPath id="Ellipse_891_00000033333974077090058130000002940620656351270818_">
			<use xlink:href="#Ellipse_891_00000111906515897593470950000003860035974219470472_"  overflow="visible"/>
		</clipPath>
		<g clip-path="url(#Ellipse_891_00000033333974077090058130000002940620656351270818_)">
			<g>
				<path fill="#425D73" d="M766.598-396.055c-0.157,19.157-0.16,38.316-0.515,57.469c-0.365,19.672-1.05,39.338-1.642,59.005
					c-0.516,17.169-1.105,34.337-1.648,51.505c-0.569,18.001-1.1,36.004-1.69,54.004c-0.517,15.781-1.113,31.56-1.639,47.341
					c-0.582,17.445-1.099,34.893-1.691,52.338c-0.517,15.226-1.111,30.449-1.646,45.674c-0.574,16.334-1.102,32.67-1.682,49.005
					c-0.53,14.948-1.106,29.894-1.657,44.841c-0.561,15.224-1.107,30.449-1.673,45.673c-0.545,14.669-1.106,29.338-1.662,44.007
					c-0.556,14.669-1.099,29.339-1.676,44.008c-0.533,13.559-1.084,27.118-1.658,40.676c-1.135,26.838-2.314,53.675-3.428,80.514
					c-0.575,13.842-1.056,27.689-1.569,41.533c-0.564,15.224-1.098,30.45-1.679,45.673c-0.528,13.837-1.11,27.672-1.654,41.508
					c-0.565,14.391-1.106,28.782-1.672,43.173c-0.545,13.836-1.12,27.671-1.66,41.508c-0.572,14.669-1.108,29.339-1.679,44.007
					c-0.538,13.837-1.128,27.671-1.647,41.509c-1.134,30.171-2.235,60.342-3.354,90.513c-0.544,14.669-1.123,29.337-1.644,44.008
					c-0.591,16.612-1.123,33.227-1.702,49.84c-0.531,15.225-1.175,30.446-1.614,45.673c-0.639,22.165-1.073,44.336-1.724,66.5
					c-0.423,14.395-1.069,28.785-1.639,43.176c-0.076,1.907-0.291,3.809-0.47,6.064c-5.072,1.812-10,3.573-16.137,5.509
					c-4.729,1.091-8.247,2.007-12.476,3.033c-3.729,0.446-6.783,0.596-9.762,1.147c-19.292,3.568-38.699,6.266-58.347,6.093
					c-15.172-0.133-30.357-0.677-45.498-1.64c-9.604-0.611-19.138-2.325-29.169-3.942c-4.207-1.031-7.949-1.665-11.69-2.298
					c-4.743-1.553-9.472-3.148-14.232-4.645c-3.942-1.24-5.561-3.621-5.647-7.961c-0.269-13.564-0.775-27.134-1.627-40.674
					c-1.286-20.422-2.981-40.819-4.411-61.233c-0.271-3.871-0.029-7.775-0.169-11.659c-0.649-17.999-1.269-36-2.053-53.994
					c-1.035-23.789-2.188-47.573-3.337-71.357c-1.069-22.121-2.2-44.239-3.305-66.358c-1.119-22.397-2.208-44.796-3.368-67.191
					c-1.06-20.456-2.203-40.907-3.298-61.361c-1.125-21.008-2.234-42.017-3.352-63.025c-1.104-20.731-2.08-41.47-3.354-62.191
					c-1.341-21.809-3.091-43.594-4.43-65.403c-0.934-15.206-1.381-30.44-2.221-45.653c-0.899-16.297-2.089-32.579-2.992-48.876
					c-0.781-14.103-1.281-28.222-2.004-42.329c-1.062-20.733-2.232-41.46-3.32-62.192c-1.132-21.563-2.233-43.128-3.329-64.693
					c-1.124-22.119-2.242-44.238-3.333-66.358c-1.132-22.951-2.235-45.905-3.339-68.857c-1.117-23.231-2.177-46.464-3.342-69.692
					c-1.041-20.734-2.189-41.462-3.301-62.193c-0.087-1.617-0.269-3.228-0.443-5.255c-4.152,0-7.887,0-11.824,0
					c-3.412,10.462-2.041,21.056-2.696,31.45c-1.079,17.118-2.002,34.247-2.901,51.376c-0.218,4.156,0.023,8.334-0.137,12.495
					c-0.627,16.334-1.269,32.668-2.02,48.996c-1.056,22.956-2.194,45.907-3.332,68.86c-1.083,21.843-2.204,43.685-3.319,65.527
					c-1.114,21.842-2.21,43.685-3.37,65.525c-1.058,19.9-2.202,39.795-3.29,59.694c-1.134,20.729-2.206,41.463-3.385,62.19
					c-1.037,18.235-2.094,36.47-3.309,54.694c-1.416,21.248-3.182,42.475-4.478,63.73c-0.978,16.037-1.335,32.111-2.191,48.156
					c-0.795,14.912-1.921,29.807-2.82,44.714c-0.217,3.599-0.019,7.222-0.176,10.827c-0.625,14.39-1.267,28.78-1.992,43.165
					c-1.072,21.289-2.234,42.573-3.33,63.86c-1.125,21.841-2.235,43.682-3.317,65.524c-1.137,22.951-2.244,45.904-3.341,68.858
					c-1.124,23.507-2.216,47.016-3.33,70.524c-1.114,23.509-2.16,47.02-3.384,70.523c-0.979,18.793-2.218,37.572-3.268,56.361
					c-0.633,11.333-1.266,22.67-1.604,34.014c-0.119,3.998-1.734,6.067-5.468,7.155c-4.523,1.317-8.94,2.999-14.649,4.579
					c-5.199,1.073-9.152,2.09-13.816,3.114c-24.436,4.501-48.376,6.035-72.487,5.198c-6.356-0.221-12.765-0.009-19.057-0.766
					c-16.432-1.979-32.813-4.384-49.717-6.946c-4.39-1.036-8.279-1.745-12.168-2.455c-5.179-1.824-10.358-3.648-16.419-5.783
					c-0.435-17.954-0.873-35.634-1.289-53.315c-0.568-24.102-1.056-48.204-1.7-72.304c-0.437-16.332-1.079-32.658-1.64-48.987
					c-0.551-16.051-1.099-32.102-1.679-48.152c-0.53-14.664-1.059-29.328-1.663-43.989c-0.991-24.057-2.118-48.109-3.044-72.168
					c-0.757-19.652-1.189-39.317-1.974-58.968c-0.928-23.227-2.175-46.44-3.108-69.667c-0.756-18.819-1.101-37.656-1.904-56.473
					c-0.767-17.958-1.945-35.899-2.825-53.853c-0.244-4.986,0.048-9.995-0.11-14.987c-0.632-19.935-1.242-39.871-2.056-59.798
					c-0.892-21.841-2.097-43.669-2.985-65.51c-0.788-19.372-1.246-38.757-2.003-58.131c-0.919-23.504-2.091-46.999-2.982-70.504
					c-0.787-20.761-1.197-41.537-2.036-62.296c-0.771-19.068-1.959-38.12-2.828-57.185c-0.303-6.649-0.13-13.318-0.307-19.975
					c-0.574-21.602-1.188-43.204-1.828-64.805c-0.525-17.718-1.093-35.434-1.675-53.149c-0.527-16.052-1.123-32.101-1.646-48.153
					c-0.586-17.993-1.119-35.988-1.687-53.983c-0.542-17.162-1.131-34.322-1.643-51.485c-0.594-19.936-1.111-39.875-1.691-59.812
					c-0.402-13.836-0.852-27.671-0.643-42.331c5.763,0.625,10.889,2.074,15.969,4.355c-0.048,6.639-0.05,12.445-0.061,19.006
					c0.511,7.904,1.239,15.047,1.508,22.206c0.674,17.993,1.141,35.993,1.691,53.991c0.559,18.275,1.111,36.55,1.681,54.825
					c0.544,17.442,1.078,34.884,1.673,52.324c0.51,14.943,1.12,29.883,1.651,44.826c0.58,16.329,1.122,32.66,1.674,48.991
					c0.561,16.608,1.1,33.216,1.674,49.824c0.535,15.498,1.103,30.994,1.657,46.491c0.554,15.497,1.113,30.994,1.664,46.491
					c0.562,15.775,1.105,31.55,1.681,47.324c0.535,14.664,1.1,29.327,1.655,43.991c0.555,14.664,1.129,29.326,1.668,43.991
					c0.57,15.496,1.087,30.994,1.671,46.49c0.521,13.832,1.095,27.662,1.661,41.492c0.543,13.275,1.119,26.55,1.659,39.825
					c0.574,14.108,1.1,28.217,1.687,42.324c0.518,12.443,1.146,24.882,1.626,37.327c0.619,16.05,1.138,32.104,1.7,48.157
					c0.552,15.775,1.121,31.549,1.653,47.325c0.579,17.163,1.113,34.327,1.686,51.49c0.536,16.053,1.116,32.105,1.643,48.158
					c0.582,17.718,1.124,35.438,1.685,53.157c0.552,17.442,1.121,34.882,1.655,52.325c0.577,18.83,1.118,37.661,1.681,56.491
					c0.547,18.275,1.156,36.549,1.639,54.825c0.622,23.551,1.168,47.104,1.706,70.656c0.589,25.774,1.12,51.55,1.724,77.323
					c0.031,1.322,0.516,2.634,0.85,4.242c6.598,1.661,12.973,3.491,19.447,4.854c21.691,4.566,43.599,7.555,65.802,7.358
					c12.721-0.113,25.433-1.125,38.155-1.498c15.355-0.45,30.067-4.02,44.774-8.105c4.897-1.361,6.222-3.743,6.031-8.189
					c-0.143-3.325-0.124-6.673,0.08-9.995c1.001-16.276,2.207-32.541,3.107-48.822c0.733-13.265,1.191-26.546,1.673-39.823
					c0.633-17.439,1.165-34.881,1.748-52.322c0.573-17.163,1.155-34.326,1.734-51.489c0.019-0.555,0.044-1.11,0.08-1.664
					c1.047-15.995,2.357-31.978,3.078-47.988c0.873-19.372,1.246-38.767,1.839-58.152c0.025-0.832,0.076-1.664,0.133-2.494
					c1.031-14.885,2.31-29.758,3.033-44.657c0.86-17.705,1.241-35.434,1.831-53.152c0.018-0.555,0.034-1.111,0.073-1.665
					c1.053-14.883,2.328-29.755,3.104-44.653c0.849-16.316,1.237-32.656,1.828-48.985c0.02-0.555,0.048-1.11,0.094-1.663
					c1.041-12.661,2.182-25.316,3.098-37.986c0.697-9.652,1.053-19.327,1.661-28.986c1.076-17.107,2.302-34.205,3.33-51.315
					c1.193-19.877,2.245-39.763,3.35-59.645c1.12-20.16,2.237-40.32,3.341-60.481c1.119-20.438,2.246-40.875,3.321-61.315
					c1.147-21.825,2.26-43.652,3.343-65.481c0.603-12.161,1.081-24.328,1.676-36.489c1.082-22.106,2.239-44.208,3.311-66.314
					c1.152-23.77,2.234-47.542,3.364-71.313c0.525-11.053,1.202-22.101,1.614-33.158c0.68-18.27,1.174-36.548,1.812-54.82
					c0.125-3.583,0.434-7.17,0.858-10.731c0.576-4.836-0.17-5.975-4.931-6.488c-10.705-1.153-21.477-1.847-32.11-3.466
					c-24.304-3.7-47.387-11.148-68.535-23.967c-1.155-0.7-1.975-1.953-3.531-3.54c1.874-0.184,2.71-0.474,3.442-0.307
					c14.547,3.32,29.035,6.91,43.629,10.003c19.523,4.137,39.395,6.04,59.278,6.04c27.714,0,55.49,1.897,83.151-1.444
					c11.233-1.357,22.6-2.097,33.646-4.378c11.618-2.4,22.915-6.344,34.38-9.511c1.511-0.418,3.188-0.234,4.788-0.329
					c0.06,0.623,0.12,1.246,0.18,1.869c-32.708,17.758-68.53,24.978-105.56,29.359c-0.161,3.411-0.476,6.125-0.386,8.825
					c0.515,15.498,1.126,30.994,1.706,46.49c0.01,0.277,0.021,0.555,0.04,0.832c1.054,15.161,2.185,30.317,3.138,45.485
					c0.676,10.766,1.134,21.547,1.651,32.322c1.139,23.77,2.234,47.543,3.385,71.312c0.495,10.221,1.129,20.436,1.622,30.658
					c1.145,23.771,2.199,47.546,3.37,71.316c1.048,21.274,2.179,42.545,3.318,63.815c1.079,20.162,2.211,40.321,3.33,60.481
					c1.104,19.883,2.202,39.766,3.339,59.646c1.089,19.049,2.22,38.097,3.34,57.144c1.104,18.771,2.216,37.542,3.324,56.313
					c1.107,18.771,2.273,37.539,3.304,56.313c1.184,21.545,2.252,43.096,3.366,64.645c0.557,10.774,1.126,21.548,1.652,32.324
					c1.132,23.215,2.228,46.431,3.363,69.646c0.513,10.498,1.128,20.992,1.618,31.491c1.149,24.603,2.245,49.209,3.375,73.813
					c0.533,11.609,1.119,23.215,1.636,34.824c0.591,13.273,1.122,26.549,1.696,39.823c0.538,12.442,1.116,24.882,1.646,37.324
					c0.577,13.552,1.223,27.102,1.649,40.659c0.68,21.604,1.215,43.214,1.784,64.822c0.194,7.373,0.113,7.515,7.503,9.717
					c19.175,5.715,38.832,8.898,58.79,9.405c21.59,0.549,43.237,0.837,64.625-3.181c13.024-2.446,26.077-4.784,39.014-7.636
					c6.334-1.396,6.505-2.172,6.667-8.588c0.575-22.718,1.086-45.439,1.672-68.156c0.514-19.943,1.094-39.883,1.65-59.825
					c0.556-19.941,1.096-39.883,1.683-59.824c0.521-17.72,1.102-35.439,1.645-53.158c0.568-18.552,1.106-37.105,1.687-55.657
					c0.528-16.887,1.105-33.772,1.644-50.658c0.574-17.997,1.101-35.995,1.699-53.991c0.506-15.22,1.123-30.437,1.622-45.658
					c0.608-18.551,1.201-37.103,1.697-55.657c0.644-24.106,1.185-48.214,1.772-72.321c0.02-0.833,0.042-1.666,0.096-2.497
					c1.042-15.995,2.226-31.983,3.093-47.988c0.749-13.82,1.161-27.658,1.681-41.489c0.593-15.774,1.114-31.55,1.717-47.323
					c0.497-12.999,1.096-25.994,1.599-38.993c0.599-15.496,1.13-30.994,1.714-46.49c0.532-14.109,1.125-28.215,1.635-42.325
					c0.599-16.607,1.109-33.217,1.711-49.823c0.501-13.832,1.113-27.66,1.615-41.492c0.602-16.606,1.127-33.216,1.707-49.823
					c0.532-15.22,1.129-30.438,1.632-45.658c0.604-18.273,1.107-36.55,1.714-54.823c0.496-14.943,1.093-29.883,1.623-44.825
					c0.578-16.33,1.14-32.66,1.691-48.991c0.561-16.608,1.14-33.215,1.638-49.825c0.606-20.217,1.203-40.435,1.669-60.655
					c0.198-8.606,0.053-17.22,0.077-26.56c0.505-8.847,0.997-16.965,1.983-25.396C756.959-393.746,761.778-394.901,766.598-396.055z
					"/>
				<path fill="#3F221A" d="M92.479-865.776c0.187,15.488,0.375,30.976,0.522,47.247c-1.091,2.666-2.577,4.431-3.122,6.45
					c-3.033,11.221-5.685,22.547-8.779,33.75c-1.824,6.605-1.433,13.02-0.478,19.707c0.896,6.27,0.594,12.719,0.712,19.091
					c0.349,18.843-1.102,37.555-2.985,56.316c-3.043,30.315-8.808,60.112-14.85,89.899C57.29-562.709,50.868-532.139,45.2-501.43
					c-4.109,22.264-7.29,44.706-10.609,67.109c-3.361,22.688-6.354,45.417-6.72,68.421c-0.176,11.056-1.03,22.101-1.604,33.15
					c-0.53,10.218-1.03,20.438-1.677,30.648c-0.296,4.669,1.253,8.48,3.783,12.395c8.757,13.551,16,27.745,19.804,43.691
					c5.7,23.892,2.423,46.959-6.746,68.972c-8.413,20.201-18.481,39.756-28.583,59.199C0.984-95.009,2.182-72.453,12.877-49.958
					c6.189,13.018,13.376,25.558,19.93,38.407c2.006,3.933,3.659,8.094,5.03,12.295c4.725,14.48,0.054,26.79-12.985,34.889
					c-0.448,0.278-0.752,0.786-1.545,1.642c-0.289,6.767-2.441,13.374-6.598,19.595c-3.656,5.472-9.914,7.071-14.139,11.188
					c-4.053,3.95-6.385,9.48-11.596,12.734c-11.697,7.303-22.733,5.635-33.351-1.882c-2.815-1.993-5.369-3.305-8.92-3.641
					c-7.333-0.692-13.622-3.908-19.225-8.931c-11.663-10.456-19.171-23.677-25.5-37.605c-10.116-22.261-18.135-45.32-22.667-69.372
					c-2.909-15.439-5.047-31.075-6.522-46.718c-1.323-14.031-1.416-28.189-1.786-42.298c-0.554-21.101,1.828-42.014,5.429-62.728
					c2.317-13.324,5.62-26.519,9.23-39.566c5.272-19.06,12.724-37.388,23.808-53.79c5.58-8.257,5.395-16.615,4.478-25.415
					c-1.315-12.624-3.054-25.204-4.636-37.8c-1.789-14.247-3.391-28.523-5.465-42.729c-2.352-16.117-5.062-32.183-7.754-48.248
					c-2.921-17.438-5.934-34.861-9.025-52.27c-4.781-26.928-9.734-53.825-14.475-80.76c-3.302-18.763-6.666-37.524-9.452-56.367
					c-2.261-15.293-4.003-30.679-5.424-46.075c-1.498-16.232-2.304-32.527-3.499-48.788c-0.323-4.398-1.261-8.763-1.408-13.16
					c-0.945-28.42,3.107-56.168,10.038-83.744c20.848-82.948,41.129-166.039,61.644-249.071c0.398-1.611,0.941-3.186,1.532-5.428
					c3.849,1.21,7.582,3.07,11.331,5.979c-3.749,15.764-7.515,30.48-11.391,45.832c-0.468,1.688-0.907,2.718-1.173,3.792
					c-16.87,68.254-33.617,136.538-50.655,204.75c-4.506,18.039-9.007,35.958-8.233,54.786c0.762,18.543,1.042,37.105,1.737,55.651
					c0.364,9.721,1.108,19.431,1.861,29.131c0.5,6.442,1.188,12.869,2.114,19.264c1.877,12.96,3.883,25.904,5.987,38.83
					c3.638,22.354,7.247,44.714,11.157,67.021c3.865,22.047,8.328,43.99,12.096,66.052c4.837,28.318,9.286,56.702,13.819,85.071
					c3.667,22.952,6.437,45.978,6.481,69.292c0.021,11.056,0.869,22.113,1.412,33.166c0.261,5.322,0.171,10.347-3.442,14.947
					c-2.71,3.45-4.712,7.517-6.675,11.484c-8.761,17.709-15.069,36.315-19.329,55.571c-5.211,23.557-9.002,47.334-8.814,71.595
					c0.071,9.244,0.063,18.489-0.16,27.731c-0.414,17.112,1.381,34.073,3.948,50.909c3.553,23.299,9.411,46.091,18.033,68.082
					c5.868,14.967,11.288,30.222,21.25,43.13c3.695,4.789,7.762,9.568,12.544,13.179c7.904,5.967,17.199,1.132,17.665-8.781
					c0.141-2.993,0.069-6.265-0.976-9c-5.332-13.951-10.937-27.801-16.608-41.62c-2.711-6.606-5.781-13.066-8.752-19.737
					c-2.402,0-4.333,0.041-6.262-0.006c-19.356-0.474-28.917-14.359-21.139-32.177c8.762-20.072,13.117-40.351,8.687-62.195
					c-3.749-18.485-5.381-37.207-4.882-56.112c0.456-17.297,5.354-33.269,13.707-48.267c0.789-1.418,2.407-2.375,3.639-3.546
					c0.816,3.071,0.54,5.482-0.063,7.809c-5.623,21.719-11.019,43.401-7.413,66.216c1.981,12.534,2.858,25.24,4.754,37.789
					c2.488,16.465,1.686,32.438-4.896,47.949c-2.486,5.859-4.288,12.01-6.78,17.866c-1.826,4.289-0.377,7.579,2.268,10.664
					c3.718,4.337,8.744,6.209,14.179,5.309c7.66-1.268,15.214-3.314,21.425-8.443c11.334-9.359,19.826-20.317,19.096-36.006
					c-0.282-6.064-0.852-12.159-1.9-18.133c-2.595-14.801,1.552-27.408,12.09-37.804c10.242-10.105,18.281-21.715,23.435-35.008
					c4.908-12.66,8.775-25.749,5.134-39.681c-0.284-1.088,0.332-2.411,0.529-3.625c0.533-0.151,1.067-0.301,1.6-0.452
					c1.277,2.562,3.059,4.996,3.747,7.708c3.358,13.23,3.047,26.292-2.339,39.074c-6.095,14.466-14.4,27.424-25.538,38.528
					c-6.794,6.773-10.754,14.705-10.013,24.553c0.581,7.717,1.879,15.466,1.544,23.143c-0.369,8.461,1.685,15.852,5.893,22.959
					c4.391,7.418,8.78,14.838,12.738,22.496C3.344-15.622,10.03-2.277,16.527,11.156c2.093,4.326,3.289,9.086,4.971,13.864
					c6.843-5.243,9.65-11.486,7.584-18.369c-1.821-6.068-4.243-12.042-7.127-17.685C16.028-22.635,8.9-33.664,3.556-45.51
					C-6.457-67.703-9.857-90.722-0.06-113.992c4.515-10.723,9.676-21.256,15.479-31.336c9.196-15.974,16.572-32.678,21.45-50.373
					c4.453-16.15,5.412-32.638,1.105-49.069c-3.18-12.131-8.32-23.402-14.634-34.285c-9.907-17.076-21.608-32.174-39.782-41.169
					c-0.471-0.233-0.577-1.205-0.975-2.109c13.526,1.038,22.729,9.795,34.08,17.802c-0.781-5.301-1.852-9.025-1.79-12.729
					c0.407-24.108,0.417-48.249,1.852-72.303c1-16.772,3.75-33.469,6.281-50.114c3.403-22.388,6.957-44.768,11.15-67.018
					c6.552-34.773,13.9-69.396,20.5-104.16c3.347-17.63,6.054-35.393,8.567-53.165c1.971-13.934,3.947-27.94,4.57-41.974
					c0.787-17.739,0.418-35.542,0.116-53.311c-0.13-7.649-0.77-15.283-1.943-22.842c-3.174-20.461-8.484-40.28-19.226-58.27
					c-0.858-1.437-0.958-3.326-1.41-5.006c2.963,0.14,5.242,0.901,6.235,2.474c5.158,8.177,10.295,16.397,14.822,24.931
					c2.873,5.415,4.667,11.401,7.447,18.392c5.497-21.674,10.559-41.793,15.774-61.873
					C90.014-863.067,91.496-864.357,92.479-865.776 M-18.366,14.535C-26.185-0.253-34.003-15.04-42.101-30.356
					c-5.452,3.186-9.919,5.797-14.925,8.722c1.447,3.062,2.719,5.776,4.011,8.48c5.965,12.475,12.142,24.854,17.813,37.46
					c2.596,5.772,4.918,11.853,6.092,18.036c1.914,10.074,0.668,19.816-7.853,27.532c7.068,6.348,13.925,6.592,21.362,3.243
					c6.338-2.854,8.718-7.794,8.799-14.595c0.104-8.659-0.438-17.107-3.846-25.198C-13.113,27.471-15.433,21.556-18.366,14.535
					 M-28.398-23.986c2.239,4.133,4.532,8.238,6.709,12.404c9.722,18.609,20.32,36.855,24.19,57.912
					c0.424,2.306,0.955,4.593,1.571,7.529c6.399-3.586,8.305-8.859,8.855-14.725c0.742-7.912-1.187-15.543-4.523-22.528
					C0.545,0.145-7.791-16.089-16.102-32.329c-2.862-5.593-6.222-10.931-9.42-16.5c-9.796,9.587-9.966,10.447-4.545,21.486
					C-29.701-26.597-29.308-25.864-28.398-23.986z"/>
				<path fill="#6F4539" d="M92.572-866.494c-1.076,2.137-2.558,3.427-2.965,4.995C84.391-841.42,79.33-821.3,73.832-799.626
					c-2.779-6.991-4.574-12.977-7.447-18.392c-4.527-8.533-9.664-16.754-14.822-24.931c-0.992-1.573-3.272-2.335-6.235-2.474
					c0.452,1.679,0.552,3.569,1.41,5.006c10.743,17.99,16.053,37.809,19.226,58.27c1.173,7.56,1.813,15.193,1.943,22.842
					c0.302,17.768,0.672,35.572-0.116,53.311c-0.623,14.034-2.599,28.04-4.57,41.974c-2.513,17.771-5.22,35.535-8.567,53.165
					c-6.6,34.764-13.948,69.387-20.5,104.16c-4.193,22.251-7.747,44.63-11.15,67.018c-2.53,16.645-5.28,33.342-6.281,50.114
					c-1.435,24.054-1.445,48.195-1.852,72.303c-0.062,3.705,1.009,7.428,1.79,12.729c-10.818-7.632-19.685-15.944-32.203-17.606
					c-0.991-0.132-1.756,1.073-1.063,1.793c0.049,0.051,0.102,0.091,0.161,0.12c18.174,8.994,29.875,24.093,39.782,41.169
					c6.314,10.883,11.453,22.154,14.634,34.285c4.308,16.431,3.348,32.918-1.105,49.069c-4.879,17.695-12.255,34.399-21.45,50.373
					C9.616-135.248,4.455-124.715-0.06-113.992c-9.797,23.27-6.397,46.289,3.616,68.483C8.9-33.664,16.028-22.635,21.955-11.034
					c2.884,5.644,5.306,11.618,7.127,17.685c2.066,6.883-0.741,13.126-7.584,18.369c-1.683-4.778-2.879-9.538-4.971-13.864
					C10.03-2.277,3.344-15.622-3.507-28.879c-3.958-7.658-8.347-15.078-12.738-22.496c-4.207-7.107-6.262-14.498-5.893-22.959
					c0.335-7.677-0.963-15.426-1.544-23.143c-0.741-9.848,3.219-17.78,10.013-24.553c11.138-11.104,19.443-24.062,25.538-38.528
					c5.386-12.782,5.697-25.844,2.339-39.074c-0.688-2.712-2.469-5.146-3.747-7.708c-0.533,0.151-1.067,0.301-1.6,0.452
					c-0.198,1.214-0.813,2.537-0.529,3.625c3.64,13.933-0.226,27.021-5.134,39.681c-5.154,13.293-13.193,24.903-23.435,35.008
					c-10.538,10.397-14.685,23.004-12.09,37.804c1.047,5.974,1.618,12.07,1.9,18.133c0.73,15.689-7.763,26.646-19.096,36.006
					c-6.211,5.129-13.764,7.175-21.425,8.443c-5.436,0.899-10.462-0.972-14.179-5.309c-2.644-3.085-4.093-6.374-2.268-10.664
					c2.493-5.856,4.294-12.007,6.78-17.866c6.582-15.51,7.384-31.484,4.896-47.949c-1.897-12.549-2.774-25.256-4.754-37.789
					c-3.605-22.815,1.791-44.497,7.413-66.216c0.603-2.327,0.879-4.739,0.063-7.809c-1.233,1.171-2.85,2.128-3.639,3.546
					c-8.353,14.998-13.25,30.97-13.707,48.267c-0.499,18.905,1.133,37.627,4.882,56.112c4.43,21.845,0.075,42.124-8.687,62.195
					c-7.778,17.818,1.783,31.703,21.139,32.177c1.929,0.047,3.86,0.006,6.262,0.006c2.972,6.671,6.041,13.13,8.752,19.737
					c5.671,13.819,11.276,27.668,16.608,41.62c1.045,2.735,1.117,6.007,0.976,9c-0.466,9.913-9.761,14.748-17.665,8.781
					c-4.783-3.61-8.849-8.39-12.544-13.179c-9.962-12.909-15.382-28.163-21.25-43.13c-8.622-21.991-14.48-44.783-18.033-68.082
					c-2.567-16.836-4.362-33.796-3.948-50.909c0.224-9.242,0.232-18.486,0.16-27.731c-0.188-24.261,3.603-48.038,8.814-71.595
					c4.26-19.257,10.568-37.862,19.329-55.571c1.963-3.967,3.964-8.034,6.675-11.484c3.613-4.6,3.703-9.625,3.442-14.947
					c-0.543-11.053-1.391-22.109-1.412-33.166c-0.044-23.314-2.813-46.341-6.481-69.292c-4.533-28.369-8.982-56.754-13.819-85.071
					c-3.768-22.062-8.231-44.005-12.096-66.052c-3.911-22.307-7.519-44.667-11.157-67.021c-2.104-12.926-4.11-25.869-5.987-38.83
					c-0.926-6.395-1.614-12.822-2.114-19.264c-0.753-9.7-1.497-19.41-1.861-29.131c-0.695-18.546-0.975-37.108-1.737-55.651
					c-0.774-18.828,3.727-36.747,8.233-54.786c17.038-68.212,33.786-136.496,50.655-204.75c0.265-1.073,0.704-2.104,1.788-3.789
					c6.592,2.236,13.073,4.288,18.201,8.141c12.189,9.159,26.767,12.81,40.3,18.832c4.218,1.877,8.841,3.008,13.39,3.939
					c9.418,1.928,18.988,3.153,28.348,5.309c8.373,1.928,16.686,3.576,25.322,3.147c1.915-0.095,4.077-0.301,5.737,0.428
					c9.548,4.192,19.573,2.607,29.454,2.806c0.1,1.652,0.262,3.302,0.292,4.955c0.612,33.348,1.182,66.696,1.856,100.043
					C91.541-873.184,92.254-870.201,92.572-866.494z"/>
				<path fill="#6D4438" d="M-28.663-24.556c-0.645-1.308-1.038-2.041-1.404-2.786c-5.421-11.039-5.252-11.899,4.545-21.486
					c3.198,5.569,6.558,10.907,9.42,16.5C-7.791-16.089,0.545,0.145,8.404,16.604c3.336,6.985,5.264,14.616,4.523,22.528
					c-0.55,5.866-2.456,11.139-8.855,14.725c-0.616-2.936-1.147-5.223-1.571-7.529c-3.871-21.057-14.468-39.303-24.19-57.912
					C-23.865-15.749-26.158-19.853-28.663-24.556z"/>
			</g>
		</g>
	</g>
</g>
<g>
	
		<ellipse id="Ellipse_891_00000043447419308030904690000012514964738224083888_" fill="#F2F2F2" cx="70" cy="70" rx="68.57" ry="68.57"/>
	<g>
		<defs>
			<ellipse id="Ellipse_891_00000019648901760696959190000004458894084154580151_" cx="70" cy="70" rx="68.57" ry="68.57"/>
		</defs>
		<clipPath id="Ellipse_891_00000034088564760896820680000006486580337626039695_">
			<use xlink:href="#Ellipse_891_00000019648901760696959190000004458894084154580151_"  overflow="visible"/>
		</clipPath>
		<g clip-path="url(#Ellipse_891_00000034088564760896820680000006486580337626039695_)">
			<polygon fill="#6A4136" points="36.217,48.949 39.173,47.149 45.171,46.966 48.736,57.731 48.04,73.031 42.882,74.793 
				38.999,71.727 35.521,64.685 34.478,57.767 34.478,50.585 			"/>
			<polygon fill="#6A4136" points="104.164,48.949 101.208,47.149 95.209,46.966 91.645,57.731 92.34,73.031 97.498,74.793 
				101.382,71.727 104.859,64.685 105.903,57.767 105.903,50.585 			"/>
			<path fill="#6F4539" d="M89.478,101.658c0.093,2.206,0.086,4.07,0.251,6.271c0.232,3.094,0.616,2.828,2.326,3.709
				c2.401,0.309,5.694-0.272,8.113,0.261c-0.279,2.792-1.192,6.303-2.282,8.872c-0.654,1.54-2.11,4.632-3.003,6.048
				c-2.23,3.539-5.712,6.608-9.308,8.708c-3.519,2.054-7.865,3.704-11.925,4.161c-6.571,0.739-13.051-0.372-18.788-3.646
				c-4.285-2.446-8.226-5.536-10.552-9.952c-1.639-3.112-2.718-6.905-3.35-10.358c-0.037-0.201-0.233-2.36-0.293-2.656
				c2.199-0.542,4.946-0.772,7.148-1.211c0.192-0.038,2.385-0.145,2.467-2.897c0.077-2.561-0.289-7.674-0.11-10.423
				c0.542,0.301-0.033-4.383,0.423-4.041c0.169,0.438,8.89,1.781,10.051,2.463c1.485,0.873,11.846,1.172,13.446,0.732
				c1.756-0.483,14.79-0.928,15.643-1.731C89.829,95.88,89.315,101.67,89.478,101.658z"/>
			<path fill="#6E4539" d="M97.078,61.621c-0.392,2.473-1.454,4.757-1.18,7.116c0.246,2.112,0.128,4.194,0.257,6.317
				c0.129,2.127,0.264,4.26,0.227,6.388c-0.074,4.309-1.826,9.327-3.818,13.21c-1.944,3.788-4.821,6.491-8.776,8.04
				c-3.028,1.187-6.162,1.957-9.396,2.32c-1.178,0.132-2.348,0.414-3.526,0.437c-1.428,0.028-2.872-0.059-4.288-0.248
				c-3.128-0.418-6.215-1.038-9.203-2.101c-2.751-0.978-5.234-2.342-7.2-4.557c-1.63-1.836-3.739-4.172-4.632-6.433
				c-1.246-3.156-1.878-6.441-1.786-9.856c0.051-1.89-0.044-3.784,0.034-5.672c0.079-1.919-0.011-5.975,0.081-7.894
				c0.134-2.78,0.566-9.703,0.567-10.957c0.002-1.763,0.38-3.915,0.399-5.677c0.036-3.366-1.193-6.794-0.966-10.15
				c0.218-3.226,0.902-7.953,1.776-11.093c0.119-0.429,2.917-4.409,3.089-4.973c2.587,0.876,44.474,0.588,44.76,0.538
				c0.138,0.884,0.953,9.435,0.99,10.307c0.191,4.469,0.404,8.939,0.471,13.41c0.044,2.953,1.403,3.89,1.309,6.844
				c-0.026,0.818,0.316,2.954,0.278,3.877L97.078,61.621z"/>
			<g>
				<path fill="#B4433D" d="M25.456,280.939c-0.759-0.215-1.518-0.429-2.372-0.637c-3.445-1.025-6.796-2.065-10.14-3.557
					c-0.099-0.044-0.156-0.15-0.138-0.257c0.202-1.238,0.405-2.457,0.599-3.678c0.643-4.046,1.352-8.082,1.905-12.14
					c0.559-4.096,0.985-8.21,1.423-12.322c0.178-1.67,0.257-3.351,0.339-5.029c0.168-3.439,0.379-6.877,0.442-10.318
					c0.07-3.82,0.009-7.643-0.024-11.464c-0.01-1.145-0.114-2.29-0.186-3.664c-0.038-2.519-0.066-4.809-0.08-7.205
					c0-0.007,0-0.015-0.001-0.022c-0.047-0.544-0.152-0.983-0.161-1.423c-0.1-4.938-0.184-9.876-0.275-14.814
					c-0.004-0.245-0.028-0.489-0.031-0.845c-0.082-2.317-0.176-4.529-0.27-6.735c-0.005-0.114-0.091-0.208-0.203-0.225
					c-1.857-0.275-3.612-0.514-5.36-0.802c-5.116-0.845-10.028-2.344-14.699-4.614c-0.508-0.247-1.053-0.419-1.63-0.691
					c-0.006-0.003-0.012-0.006-0.018-0.009c-0.595-0.337-1.14-0.61-1.685-0.881c-0.01-0.005-0.019-0.01-0.028-0.017
					c-2.43-1.668-4.863-3.331-7.286-5.009c-0.39-0.27-0.745-0.593-1.149-0.931c-0.084-0.07-0.11-0.188-0.063-0.286
					c0.133-0.275,0.252-0.551,0.422-0.79c3.668-5.127,6.076-10.874,8.212-16.748c2.454-6.748,4.81-13.532,7.302-20.266
					c1.212-3.274,2.702-6.442,4.698-9.329c3.014-4.359,6.99-7.363,12.276-8.399c1.809-0.355,3.644-0.579,5.493-0.208
					c1.129,0.227,2.108-0.051,3.147-0.619c3.323-1.816,6.863-3.143,10.491-4.22c1.454-0.432,3.154-0.848,4.703-1.144
					c0.126-0.024,0.251,0.057,0.278,0.183c0.16,0.739,0.027,1.468,0.119,2.217c0.001,0.007,0.002,0.014,0.003,0.021
					c0.059,0.29,0.133,0.482,0.169,0.68c0.631,3.454,1.731,6.744,3.37,9.856c2.326,4.416,5.756,7.778,10.041,10.224
					c5.737,3.275,11.934,4.365,18.504,3.626c4.059-0.457,7.86-1.602,11.379-3.656c3.597-2.099,6.643-4.819,8.873-8.358
					c0.892-1.416,1.683-2.918,2.337-4.458c1.09-2.569,1.904-5.236,2.304-8.114c0.106-0.725,0.192-1.375,0.275-2.017
					c0.018-0.138-0.038-0.266,0.099-0.236c5.352,1.177,10.702,2.944,15.541,5.534c0.993,0.531,1.929,0.621,2.951,0.477
					c3.356-0.472,6.535,0.157,9.578,1.553c4.32,1.984,7.327,5.319,9.6,9.408c2.324,4.181,4.017,8.632,5.625,13.115
					c1.995,5.564,3.886,11.166,5.902,16.722c1.474,4.062,3.401,7.923,5.544,11.673c0.406,0.711,0.914,1.364,1.366,2.05
					c0.253,0.384,0.493,0.776,0.756,1.198c0.063,0.102,0.042,0.236-0.051,0.312c-2.667,2.17-5.388,4.096-8.415,5.852
					c-0.645,0.331-1.145,0.592-1.725,0.885c-6.829,3.592-14.093,5.379-21.638,6.177c-0.102,0.011-0.186,0.085-0.208,0.185
					c-0.488,2.284-0.192,4.497-0.275,6.801c-0.084,1.831-0.19,3.545-0.233,5.261c-0.099,3.971-0.168,7.942-0.255,12.028
					c-0.078,1.626-0.154,3.137-0.218,4.649c-0.014,0.325,0.031,0.653,0.034,0.98c0.004,0.479-0.007,0.958-0.011,1.437
					c-0.869,19.679,0.842,39.156,4.63,58.531c0.021,0.107-0.034,0.216-0.133,0.262c-3.247,1.502-6.632,2.533-10.098,3.597
					c-0.005,0.002-0.01,0.003-0.015,0.004c-0.799,0.189-1.511,0.36-2.399,0.595c-0.542,0.125-0.913,0.159-1.27,0.249
					c-8.137,2.055-16.391,3.422-24.751,4.12c-4.417,0.369-8.841,0.738-13.269,0.875c-4.063,0.125-8.135-0.054-12.203-0.113
					c-5.591-0.081-11.159-0.508-16.693-1.278c-4.428-0.616-8.843-1.342-13.246-2.119C30.654,282.165,28.063,281.509,25.456,280.939
					 M16.025,166.3c-0.001-0.658,0.011-1.316-0.006-1.974c-0.06-2.379-0.147-4.758-0.179-7.137
					c-0.005-0.348,0.161-0.697,0.279-1.047c0.031-0.091,0.116-0.153,0.212-0.158c0.001,0,0.002,0,0.003,0
					c0.095-0.005,0.182,0.048,0.225,0.133c0.171,0.332,0.39,0.657,0.437,1.006c0.285,2.11,0.569,4.222,0.749,6.343
					c0.222,2.613,0.37,5.234,0.496,7.854c0.12,2.5,0.198,5.004,0.249,7.507c0.107,5.34,0.187,10.68,0.272,16.021
					c0.018,1.151-0.012,2.304,0.029,3.454c0.043,1.187,0.138,2.373,0.224,3.558c0.154,2.121,0.35,4.24,0.469,6.364
					c0.119,2.13,0.17,4.264,0.242,6.396c0.092,2.707,0.258,5.415,0.248,8.122c-0.019,5.546-0.117,11.091-0.219,16.636
					c-0.037,2.007-0.164,4.013-0.275,6.017c-0.055,0.999-0.134,1.997-0.242,2.992c-0.304,2.792-0.628,5.583-0.953,8.373
					c-0.261,2.237-0.476,4.481-0.815,6.706c-0.555,3.642-1.179,7.274-1.812,10.904c-0.097,0.557,0.03,0.871,0.533,1.06
					c0.384,0.144,0.77,0.286,1.157,0.423c4.571,1.619,9.213,3.002,13.97,3.947c4.016,0.798,8.041,1.575,12.088,2.183
					c3.276,0.492,6.589,0.756,9.892,1.055c3.1,0.281,6.205,0.615,9.312,0.679c6.532,0.134,13.068,0.137,19.597-0.217
					c0.123-0.007,0.246-0.014,0.369-0.026c2.404-0.229,4.81-0.452,7.213-0.691c1.752-0.174,3.513-0.303,5.252-0.568
					c3.277-0.5,6.544-1.072,9.811-1.638c5.914-1.024,11.697-2.558,17.367-4.521c0.679-0.235,1.335-0.536,2.046-0.833
					c0.094-0.039,0.153-0.134,0.146-0.236c-0.028-0.431-0.036-0.828-0.1-1.215c-0.199-1.212-0.463-2.414-0.639-3.629
					c-0.608-4.213-1.227-8.426-1.77-12.648c-0.449-3.491-0.836-6.991-1.179-10.494c-0.232-2.364-0.37-4.739-0.493-7.112
					c-0.123-2.377-0.245-4.757-0.243-7.136c0.003-3.325,0.108-6.65,0.195-9.974c0.059-2.256,0.165-4.511,0.243-6.766
					c0.087-2.502,0.166-5.004,0.249-7.506c0.082-2.502,0.171-5.003,0.245-7.505c0.089-3.037,0.171-6.074,0.247-9.111
					c0.087-3.489,0.115-6.981,0.262-10.468c0.118-2.807-0.095-5.598,0.388-8.432c0.554-3.252,0.379-6.622,0.62-9.934
					c0.151-2.08,0.477-4.148,0.745-6.218c0.039-0.3,0.096-0.636,0.53-0.76c0.133-0.038,0.269,0.054,0.292,0.191
					c0.064,0.378,0.144,0.758,0.146,1.138c0.012,3.041,0,6.083-0.017,9.338c0,0.004,0,0.008,0,0.013
					c-0.341,5.655-0.527,11.313-0.473,16.945c0.001,0.101,0.067,0.191,0.163,0.224c0.928,0.321,1.715-0.004,2.502-0.112
					c1.006-0.138,2.004-0.331,3.205-0.504c2.986-0.575,5.916-1.347,8.785-2.364c4.887-1.733,9.299-4.321,13.446-7.393
					c0.631-0.468,0.621-0.591,0.21-1.327c-0.922-1.649-1.893-3.273-2.743-4.959c-2.112-4.186-3.794-8.553-5.346-12.974
					c-2.027-5.772-4.049-11.547-6.189-17.277c-1.265-3.386-2.775-6.676-4.866-9.662c-3.167-4.52-7.486-7.019-12.996-7.426
					c-0.319-0.024-0.644,0.042-1.027,0.101c-0.167,0.026-0.255,0.216-0.166,0.36c0.836,1.352,2.138,2.22,2.682,3.611
					c0.079,0.203-0.128,0.4-0.324,0.304c-1.241-0.609-2.185-1.64-3.345-2.342c-1.369-0.829-2.714-1.704-4.12-2.466
					c-1.369-0.742-2.777-1.428-4.216-2.022c-1.478-0.611-3.007-1.103-4.527-1.606c-1.378-0.456-2.772-0.867-4.055-1.261
					c-0.127-0.039-0.26,0.034-0.297,0.161c-0.77,2.628-1.41,5.136-2.262,7.57c-1.135,3.242-2.821,6.214-5.144,8.767
					c-2.851,3.134-6.193,5.594-10.094,7.322c-3.931,1.742-8.047,2.513-12.3,2.663c-2.425,0.085-4.821-0.248-7.205-0.697
					c-5.131-0.966-9.634-3.236-13.577-6.607c-4.512-3.857-7.341-8.784-8.88-14.478c-0.405-1.5-0.749-3.016-1.131-4.58
					c-0.03-0.123-0.152-0.202-0.277-0.177c-0.213,0.042-0.418,0.079-0.615,0.141c-1.958,0.617-3.928,1.201-5.866,1.874
					c-3.076,1.068-6.01,2.448-8.719,4.271c-1.532,1.031-3.047,2.086-4.57,3.13c-0.288,0.197-0.554,0.455-1.017,0.478
					c-0.178,0.009-0.305-0.174-0.232-0.335c0.704-1.542,2.241-2.331,3.074-3.641c0.058-0.092,0.045-0.215-0.034-0.29
					c-0.425-0.409-0.938-0.249-1.396-0.241c-0.364,0.006-0.724,0.153-1.09,0.179c-3.884,0.277-7.07,2.065-9.768,4.72
					c-1.699,1.671-3.009,3.676-4.099,5.816c-2.111,4.147-3.747,8.489-5.31,12.859c-1.797,5.027-3.497,10.089-5.319,15.106
					c-1.714,4.719-3.841,9.251-6.484,13.532c-0.138,0.224-0.245,0.466-0.375,0.739c-0.049,0.103-0.016,0.228,0.076,0.295
					c0.549,0.396,1.062,0.762,1.57,1.135c2.357,1.73,4.843,3.26,7.458,4.552c2.838,1.402,5.804,2.512,8.864,3.332
					c1.618,0.434,3.27,0.741,5.102,1.147c1.792,0.325,3.575,0.751,5.541,0.634c0.128-0.008,0.226-0.118,0.222-0.246
					C16.387,177.909,16.198,172.214,16.025,166.3z"/>
				<path fill="#F87360" d="M10.622,183.31c-1.636-0.365-3.288-0.672-4.906-1.106c-3.06-0.821-6.026-1.93-8.864-3.332
					c-2.615-1.293-5.102-2.822-7.458-4.552c-0.508-0.373-1.021-0.74-1.57-1.135c-0.093-0.067-0.126-0.192-0.076-0.295
					c0.13-0.272,0.237-0.515,0.375-0.739c2.642-4.28,4.77-8.813,6.484-13.532c1.822-5.018,3.521-10.08,5.319-15.106
					c1.563-4.37,3.198-8.712,5.31-12.859c1.09-2.14,2.4-4.145,4.099-5.816c2.698-2.654,5.884-4.442,9.768-4.72
					c0.366-0.026,0.726-0.173,1.09-0.179c0.458-0.008,0.971-0.169,1.396,0.241c0.078,0.075,0.092,0.199,0.034,0.29
					c-0.833,1.31-2.369,2.099-3.074,3.641c-0.074,0.162,0.054,0.344,0.232,0.335c0.462-0.023,0.729-0.28,1.017-0.478
					c1.523-1.044,3.038-2.1,4.57-3.13c2.71-1.823,5.643-3.203,8.719-4.271c1.939-0.673,3.908-1.258,5.866-1.874
					c0.197-0.062,0.401-0.099,0.615-0.141c0.124-0.024,0.247,0.054,0.277,0.177c0.382,1.565,0.725,3.081,1.131,4.58
					c1.539,5.694,4.369,10.621,8.88,14.478c3.942,3.37,8.445,5.64,13.577,6.607c2.383,0.449,4.78,0.782,7.205,0.697
					c4.253-0.149,8.369-0.921,12.3-2.663c3.901-1.729,7.243-4.189,10.094-7.322c2.323-2.553,4.009-5.525,5.144-8.767
					c0.852-2.434,1.492-4.942,2.262-7.57c0.037-0.127,0.171-0.2,0.297-0.161c1.282,0.394,2.676,0.804,4.055,1.261
					c1.52,0.503,3.049,0.995,4.527,1.606c1.439,0.594,2.847,1.28,4.216,2.022c1.406,0.761,2.751,1.636,4.12,2.466
					c1.159,0.702,2.103,1.733,3.345,2.342c0.195,0.096,0.403-0.102,0.324-0.304c-0.544-1.391-1.846-2.259-2.682-3.611
					c-0.089-0.144-0.001-0.334,0.166-0.36c0.383-0.06,0.709-0.125,1.027-0.101c5.509,0.407,9.829,2.906,12.996,7.426
					c2.092,2.985,3.602,6.276,4.866,9.662c2.14,5.73,4.162,11.506,6.189,17.277c1.553,4.421,3.234,8.788,5.346,12.974
					c0.85,1.685,1.821,3.31,2.743,4.959c0.412,0.736,0.421,0.859-0.21,1.327c-4.147,3.072-8.56,5.66-13.446,7.393
					c-7.194,2.709-14.042,3.534-14.372,3.011c-0.062-0.098-0.252-0.044-0.264-0.16c-0.271-2.563,0.044-3.69,0.035-7.239
					c-0.018-3.464,0.128-4.012,0.241-6.541c-0.012-2.698,0.193-4.064,0.194-5.195c0.005-3.302,0.014-4.404,0.002-7.415
					c-0.002-0.38-0.082-0.76-0.146-1.138c-0.023-0.136-0.159-0.229-0.292-0.191c-0.434,0.123-0.491,0.46-0.53,0.76
					c-0.268,2.07-0.594,4.138-0.745,6.218c-0.241,3.312-0.065,6.683-0.62,9.934c-0.483,2.835-0.27,5.625-0.388,8.432
					c-0.147,3.487-0.175,6.978-0.262,10.468c-0.076,3.037-0.157,6.074-0.247,9.111c-0.074,2.502-0.162,5.004-0.245,7.505
					c-0.082,2.502-0.162,5.004-0.249,7.506c-0.078,2.255-0.184,4.51-0.243,6.766c-0.087,3.324-0.192,6.649-0.195,9.974
					c-0.002,2.379,0.119,4.759,0.243,7.136c0.123,2.373,0.261,4.748,0.493,7.112c0.343,3.503,0.73,7.003,1.179,10.494
					c0.544,4.222,1.162,8.435,1.77,12.648c0.175,1.215,0.439,2.417,0.639,3.629c0.064,0.388,0.073,0.784,0.1,1.215
					c0.006,0.102-0.052,0.196-0.146,0.236c-0.711,0.296-1.367,0.598-2.046,0.833c-5.67,1.963-11.453,3.496-17.367,4.521
					c-3.267,0.566-6.534,1.137-9.811,1.638c-1.739,0.266-3.499,0.394-5.252,0.568c-2.404,0.239-4.809,0.462-7.213,0.691
					c-0.123,0.012-0.246,0.019-0.369,0.026c-6.529,0.354-13.065,0.351-19.597,0.217c-3.108-0.064-6.213-0.398-9.312-0.679
					c-3.303-0.299-6.615-0.562-9.892-1.055c-4.048-0.608-8.072-1.385-12.088-2.183c-4.757-0.945-9.399-2.328-13.97-3.947
					c-0.387-0.137-0.772-0.279-1.157-0.423c-0.503-0.189-0.63-0.503-0.533-1.06c0.633-3.63,1.257-7.261,1.812-10.904
					c0.339-2.225,0.554-4.469,0.815-6.706c0.325-2.79,0.648-5.58,0.953-8.373c0.108-0.995,0.187-1.993,0.242-2.992
					c0.111-2.005,0.238-4.011,0.275-6.017c0.102-5.545,0.2-11.091,0.219-16.636c0.009-2.707-0.156-5.415-0.248-8.122
					c-0.073-2.132-0.123-4.266-0.242-6.396c-0.119-2.123-0.315-4.242-0.469-6.364c-0.086-1.185-0.181-2.371-0.224-3.558
					c-0.041-1.15-0.011-2.303-0.029-3.454c-0.086-5.34-0.165-10.681-0.272-16.021c-0.05-2.503-0.128-5.006-0.249-7.507
					c-0.126-2.62-0.274-5.241-0.496-7.854c-0.18-2.12-0.464-4.233-0.749-6.343c-0.047-0.349-0.266-0.674-0.437-1.006
					c-0.043-0.085-0.13-0.138-0.225-0.133l-0.003,0c-0.096,0.005-0.181,0.067-0.212,0.158c-0.118,0.349-0.284,0.699-0.279,1.047
					c0.032,2.379,0.119,4.758,0.179,7.137c0.017,0.658,0.037,5.728,0.244,9.52c0.227,4.174,0.464,8.774,0.355,9.926
					c-0.011,0.116-0.104,0.206-0.22,0.214C15.777,184.03,13.678,184.095,10.622,183.31z"/>
			</g>
			<path fill="#2C2D32" d="M75.338,44.394c-0.838,0.244-1.576,0.467-2.395,0.714c-0.055-0.31-0.13-0.536-0.13-0.763
				c0.004-1.521,0.052-3.043,0.026-4.563c-0.012-0.696,0.282-1.054,0.908-1.267c4.315-1.469,8.544-1.449,12.65,0.71
				c1.334,0.701,2.415,1.695,3.261,2.941c0.137,0.202,0.312,0.425,0.334,0.651c0.124,1.29,0.207,2.583,0.325,4.15
				C85.621,43.649,80.652,43.236,75.338,44.394 M87.346,40.809c-1.071-0.499-2.107-1.103-3.221-1.474
				c-2.044-0.681-4.187-0.772-6.315-0.59c-1.046,0.09-2.074,0.427-3.097,0.702c-0.237,0.064-0.58,0.321-0.598,0.514
				c-0.1,1.119-0.154,2.248,0.026,3.505c2.676-0.66,5.223-0.973,7.805-0.798c2.608,0.177,4.925,1.304,7.294,2.475
				c0.255-1.441,0.24-2.61-0.956-3.459C87.987,41.474,87.75,41.177,87.346,40.809z"/>
			<path fill="#2C2D32" d="M53.486,39.354c2.816-1.595,5.753-2.158,8.856-1.695c1.372,0.205,2.722,0.564,4.076,0.881
				c0.419,0.098,0.715,0.335,0.729,0.853c0.046,1.681,0.132,3.361,0.19,5.042c0.007,0.191-0.065,0.384-0.119,0.677
				c-5.981-1.97-11.737-1.998-17.116,1.636c-0.616-1.584-0.251-4.098,0.879-5.279C51.712,40.704,52.595,40.086,53.486,39.354
				 M51.708,41.675c-1.067,0.965-1.344,2.137-0.967,3.59c0.288-0.149,0.508-0.244,0.708-0.369c2.055-1.282,4.314-2.01,6.702-2.204
				c2.205-0.18,4.419-0.066,6.584,0.509c0.405,0.108,0.836,0.119,1.406,0.195c0-0.943,0.004-1.713-0.001-2.484
				c-0.009-1.308-0.05-1.346-1.278-1.683c-2.578-0.709-5.191-0.741-7.782-0.212C55.145,39.411,53.311,40.14,51.708,41.675z"/>
			<path fill="#42231B" d="M79.812,92.076c-1.87,2.136-4.04,2.043-6.403,1.165c-0.055-0.02-0.074-0.09-0.037-0.135
				c0.293-0.368,0.703-0.211,1.03-0.204c1.002,0.022,1.958-0.146,2.873-0.553c1.28-0.569,2.244-1.488,2.975-2.669l0.003-0.004
				c0.125-0.201,0.426-0.162,0.5,0.062C80.917,90.24,80.714,90.598,79.812,92.076z"/>
			<path fill="#454C56" d="M87.416,40.865c0.334,0.313,0.571,0.609,0.869,0.821c1.196,0.848,1.211,2.018,0.956,3.459
				c-2.369-1.171-4.686-2.298-7.294-2.475c-2.582-0.175-5.128,0.138-7.805,0.798c-0.18-1.258-0.127-2.386-0.026-3.505
				c0.017-0.193,0.361-0.45,0.598-0.514c1.023-0.276,2.051-0.613,3.097-0.702c2.129-0.182,4.272-0.091,6.315,0.59
				C85.239,39.706,86.275,40.31,87.416,40.865z"/>
			<path fill="#454C56" d="M51.772,41.611c1.54-1.471,3.374-2.2,5.309-2.595c2.592-0.528,5.204-0.496,7.782,0.212
				c1.228,0.338,1.269,0.375,1.278,1.683c0.005,0.771,0.001,1.542,0.001,2.484c-0.57-0.076-1.001-0.087-1.406-0.195
				c-2.165-0.576-4.379-0.689-6.584-0.509c-2.388,0.194-4.648,0.922-6.702,2.204c-0.201,0.125-0.42,0.22-0.708,0.369
				C50.364,43.812,50.641,42.64,51.772,41.611z"/>
			<path fill="#F5F7F7" d="M54.136,54.493c-0.753-1.177-0.603-2.463-0.58-3.788c0.066-0.278,0.054-0.509,0.16-0.651
				c1.002-1.349,2.329-2.193,3.963-2.625c2.724-0.72,6.356-0.07,7.767,2.727c0.517,1.472,0.023,2.782-0.288,4.172
				c-0.907,1.369-2.19,2.041-3.642,2.389c-2.526,0.606-4.764-0.028-6.745-1.688 M63.331,50.853
				c-0.644-1.111-1.619-1.642-2.879-1.446c-1.145,0.178-1.935,0.869-2.223,2.029c-0.321,1.292,0.105,2.316,1.191,3.064
				c0.497,0.343,1.036,0.601,1.666,0.462C63.103,54.518,63.974,53.037,63.331,50.853z"/>
			<g>
				<path fill="#090706" d="M65.492,53.032c-0.007-0.013-0.004-0.064-0.001-0.099c0.024-0.324,0.383-1.547-0.343-3.069
					c-1.214-2.544-4.883-3.118-7.469-2.435c-1.285,0.339-2.327,0.896-3.243,1.805c-0.558,0.553-0.877,1.305-0.868,2.09
					c0.013,1.149,0.094,2.045,0.867,3.299c-0.013,0.015-0.356,0.208-0.451,0.134c-0.073-0.058-0.527-1.215-0.558-1.362
					c-0.171-0.812-0.256-2.34-0.256-2.34c-0.084-2.334,1.078-3.808,2.878-4.653c2.694-1.264,5.395-1.288,7.907,0.518
					c0.886,0.637,1.591,1.396,1.831,2.954c0.366,2.376-0.056,3.071-0.116,3.234C65.594,53.134,65.524,53.092,65.492,53.032z"/>
				<path fill="#0F0D0C" d="M53.983,54.757c0.243-0.26,0.315-0.357,0.451-0.134c0.076,0.125,0.239,0.324,0.336,0.406
					c1.981,1.66,4.219,2.294,6.745,1.688c1.218-0.292,2.284-0.815,3.159-1.781c0.168-0.186,0.546-0.746,0.827-2.097
					c0.049-0.031,0.311-0.203,0.289-0.051c-0.024,0.161-0.099,0.515-0.144,0.718c-0.123,0.558-0.372,1.15-0.441,1.335
					c-0.061,0.163-0.162,0.337-0.285,0.496c-2.838,3.64-8.706,2.871-10.682-0.198C54.172,55.037,54.097,54.94,53.983,54.757z"/>
			</g>
			<path fill="#090706" d="M63.372,50.94c0.603,2.098-0.269,3.578-2.286,4.023c-0.63,0.139-1.169-0.119-1.666-0.462
				c-1.086-0.749-1.512-1.773-1.191-3.064c0.288-1.159,1.078-1.85,2.223-2.029C61.712,49.211,62.687,49.742,63.372,50.94
				 M62.232,51.589c0.101-0.415,0.144-0.881-0.365-0.982c-0.342-0.067-0.825,0.02-1.071,0.236c-0.152,0.134-0.094,0.722,0.076,0.959
				c0.295,0.411,0.762,0.367,1.172,0.061C62.076,51.84,62.103,51.808,62.232,51.589z"/>
			<path fill="#F5F7F7" d="M75.069,54.741c-0.217-0.788-0.542-1.553-0.661-2.349c-0.251-1.683,0.359-3.049,1.75-4.059
				c2.833-2.057,7.437-1.227,9.52,0.914c1.307,1.343,1.251,4.095-0.118,5.511c-2.84,2.938-7.915,2.877-10.405-0.014
				C75.076,54.723,75.054,54.75,75.069,54.741 M81.933,51.756c-0.123-0.346-0.201-0.716-0.378-1.032
				c-0.605-1.08-1.886-1.594-3.064-1.266c-1.278,0.355-2.071,1.423-2.038,2.74c0.033,1.314,0.913,2.319,2.188,2.62
				C79.997,55.139,82.033,54.14,81.933,51.756z"/>
			<path fill="#DDE6E6" d="M62.182,51.685c-0.079,0.123-0.106,0.155-0.138,0.178c-0.41,0.305-0.877,0.35-1.172-0.061
				c-0.17-0.237-0.228-0.825-0.076-0.959c0.246-0.216,0.729-0.303,1.071-0.236C62.377,50.708,62.333,51.175,62.182,51.685z"/>
			<path fill="#0D0A08" d="M81.939,51.856c0.093,2.284-1.942,3.283-3.299,2.963c-1.275-0.301-2.155-1.306-2.188-2.62
				c-0.033-1.317,0.761-2.385,2.038-2.74c1.177-0.328,2.459,0.186,3.064,1.266C81.731,51.04,81.809,51.411,81.939,51.856
				 M80.22,52.181c0.066-0.047,0.154-0.081,0.194-0.144c0.394-0.624,0.351-1.054-0.125-1.344c-0.409-0.249-0.904-0.118-1.155,0.306
				c-0.284,0.48-0.092,0.934,0.548,1.241C79.78,52.287,79.92,52.246,80.22,52.181z"/>
			<path fill="#DDE6E6" d="M80.131,52.214c-0.21,0.033-0.351,0.073-0.449,0.026c-0.64-0.306-0.832-0.76-0.548-1.241
				c0.251-0.424,0.746-0.555,1.155-0.306c0.476,0.29,0.519,0.72,0.125,1.344C80.374,52.1,80.286,52.134,80.131,52.214z"/>
			<g>
				<path fill="#090706" d="M74.367,53.07c-0.06-0.162-0.482-0.858-0.116-3.234c0.24-1.558,0.945-2.317,1.831-2.954
					c2.511-1.807,5.213-1.782,7.907-0.518c1.8,0.845,2.962,2.319,2.878,4.653c0,0-0.084,1.528-0.256,2.34
					c-0.031,0.147-0.485,1.305-0.558,1.362c-0.095,0.075-0.438-0.119-0.451-0.134c0.773-1.254,0.854-2.149,0.867-3.299
					c0.009-0.786-0.31-1.537-0.868-2.09c-0.916-0.909-1.958-1.466-3.243-1.805c-2.586-0.683-6.254-0.109-7.469,2.435
					c-0.726,1.521-0.367,2.744-0.343,3.069c0.003,0.035,0.006,0.086-0.001,0.099C74.514,53.055,74.444,53.098,74.367,53.07z"/>
				<path fill="#0F0D0C" d="M85.799,55.103c-1.976,3.069-7.844,3.838-10.682,0.198c-0.123-0.158-0.224-0.333-0.285-0.496
					c-0.07-0.185-0.319-0.777-0.441-1.335c-0.045-0.203-0.12-0.557-0.144-0.718c-0.023-0.152,0.239,0.019,0.289,0.051
					c0.282,1.351,0.659,1.911,0.827,2.097c0.875,0.966,1.941,1.489,3.159,1.781c2.526,0.606,4.764-0.028,6.745-1.688
					c0.098-0.082,0.26-0.281,0.336-0.406c0.136-0.223,0.208-0.126,0.451,0.134C85.941,54.903,85.866,55,85.799,55.103z"/>
			</g>
			<path fill="#42241B" d="M64.57,59.726c0.317-0.375,0.572-0.688,0.845-1.023c0.479,2.335-3.179,4.96-6.287,4.365
				c1.084-0.515,2.055-0.882,2.925-1.416C62.925,61.117,63.694,60.416,64.57,59.726z"/>
			<path fill="#42241B" d="M74.485,59.307c-0.076-0.239-0.136-0.397-0.146-0.558c-0.007-0.102,0.06-0.208,0.124-0.404
				c1.553,2.415,3.851,3.662,6.44,4.553C78.849,63.822,75.862,62.15,74.485,59.307z"/>
			<path fill="#4E2D24" d="M78.282,80.283c-1.01,0.925-2.356,1.053-3.619,1.276c-1.687,0.298-3.415,0.479-5.126,0.491
				c-2.468,0.017-4.897-0.382-7.265-1.386c0.377-0.146,0.81-0.283,1.243-0.285c4.007-0.018,8.013-0.003,12.02-0.02
				C76.428,80.355,77.321,80.266,78.282,80.283z"/>
			<path fill="#090706" d="M60.567,79.508c1.508,0.971,3.157,1.329,4.778,1.713c2.487,0.588,5.036,0.375,7.568,0.197
				c2.082-0.146,4.124-0.304,5.962-1.553c0.983-0.64,1.935-1.194,2.87-1.776c0.399-0.249,0.762-0.555,1.298-0.95
				c0.012,0.799-0.358,1.123-0.684,1.464c-2.052,2.15-4.583,3.459-7.461,4.043c-4.22,0.857-8.396,0.735-12.461-0.866
				c-1.82-0.717-3.407-1.793-4.856-3.085c-0.294-0.263-0.604-0.563-0.431-1.175C58.293,78.196,59.387,78.844,60.567,79.508z"/>
			<path fill="#454C56" d="M96.999,35.084c-0.618-0.018-1.54-4.523-3.602-8.312c-2.022-3.716-5.183-6.718-5.803-6.512
				c-1.016,0.337-1.145,0.248-1.132-0.84c0.014-1.124-5.912-2.49-6.551-1.973c-0.403,0.326-0.662,0.236-0.881-0.18
				c-0.134-0.256-0.273-0.511-0.385-0.777c-0.655-1.556-13.699-2.489-15.824-0.487c-0.407,0.383-4.383,1.473-8.878,3.797
				c-3.11,1.608-6.357,6.149-8.297,11.011c-1.962,4.918-2.599,10.154-2.627,11.148c-0.122,4.313,1.143,6.841,1.282,10.666
				c0.006,0.162,0.035,0.317,0.095,0.465c0.095,0.233,0.442,0.174,0.46-0.077c0.065-0.89,0.207-2.309,0.273-2.768
				c0.27-1.877,0.447-3.765,0.609-5.649c0.219-2.541,0.341-5.097,0.336-7.658c-0.004-1.84,0.247-3.686,0.677-5.493
				c0.65-2.186,1.183-2.52,1.923-3.178c0.66-0.587,2.063-0.803,2.998-0.579c1.919,0.46,3.869,0.748,5.808,1.097
				c2.913,0.524,5.853,0.915,8.8,1.044c2.627,0.115,5.266,0.144,7.909-0.15c2.608-0.29,5.236-0.371,7.794-1.045
				c1.942-0.512,3.98-0.615,5.865-1.393c0.442-0.182,0.977-0.272,1.447-0.218c0.725,0.083,1.773,0.346,2.338,0.968
				c0.786,0.865,1.353,1.828,1.774,3.24c0.217,0.728,0.175,1.58,0.174,2.332c-0.002,2.273,0.347,4.524,0.308,6.794
				c-0.025,1.485,0.194,2.959,0.301,4.434c0.192,2.658,0.608,5.301,0.957,7.947c0.038,0.29,0.11,0.576,0.188,0.861
				c0.059,0.215,0.363,0.216,0.426,0.002c0.307-1.046,0.497-2.083,0.726-3.111c0.495-2.226,1.134-4.414,1.772-6.601
				C98.101,43.57,97.205,35.09,96.999,35.084z"/>
			<path fill="#42241C" d="M56.76,79.292c-0.378,1.273-0.274,2.515-0.095,3.751c0.15,1.036,0.471,2.05,0.749,3.065
				c0.079,0.288,0.147,0.563,0.086,0.92c-0.035,0.203-0.306,0.251-0.413,0.075c-0.883-1.459-1.543-2.829-1.835-4.399
				c-0.627-3.365,0.884-5.985,2.878-8.416c1.021-1.245,2.227-2.329,3.801-2.871c0.42-0.144,0.486-0.433,0.456-0.788
				c-0.055-0.652,0.153-1.265,0.34-1.858c0.284-0.902,0.928-1.522,1.891-1.678c0.726-0.118,1.403-0.024,1.824,0.62
				c0.106,0.162-0.035,0.383-0.225,0.344c-0.001,0-0.002-0.001-0.004-0.001c-1.921-0.42-3.172,0.782-2.719,2.702
				c0.855,3.622,2.646,4.906,6.121,5.446c2.037,0.317,3.914-0.227,5.618-1.428c1.24-0.874,1.812-2.04,1.91-3.521
				c0.174-2.608-0.771-4.893-2.043-7.062c-1.068-1.82-2.214-3.591-3.046-5.543c-0.907-2.128-1.11-4.34-1.048-6.59
				c0.007-0.249,0.353-0.303,0.436-0.068c0.315,0.892,0.51,1.826,0.865,2.704c0.089,0.22,0.169,0.444,0.253,0.666
				c0.008,0.022,0.013,0.045,0.013,0.068c0.035,1.24,0.525,2.361,1.012,3.458c0.493,1.112,1.151,2.145,1.786,3.192
				c1.172,1.934,2.217,3.97,2.78,6.198c0.214,0.849,0.639,1.647,0.517,2.578c-0.07,0.533,0.36,0.801,0.768,1.061
				c2.204,1.409,3.644,3.445,4.804,5.747c0.699,1.387,0.966,2.836,0.785,4.299c-0.183,1.474-0.952,3.296-1.365,4.31
				c-0.127,0.311-0.218,0.664-0.522,0.922c-0.119,0.101-0.31,0.05-0.355-0.099c-0.064-0.215,0.007-0.437,0.051-0.671
				c0.364-1.938,1.057-3.825,0.912-5.846c-0.03-0.424-0.089-0.828-0.204-1.241c-0.211-0.753-0.648-1.65-0.935-2.277
				c-0.842-1.835-2.02-3.409-3.753-4.505c-0.478-0.311-0.773,0.628-0.88,0.815c-0.321,0.562-0.964,1.344-1.205,1.584
				c-2.506,2.497-5.483,3.067-8.815,2.155c-1.873-0.513-3.361-1.59-4.505-3.149c-0.022-0.029-0.529-1.25-0.569-1.328
				c-0.333-0.645-0.625-0.528-1.042-0.274c-1.164,0.708-2.075,1.706-2.93,2.74c-0.253,0.305-0.889,1.146-1.347,2.038
				C57.153,77.926,56.92,78.754,56.76,79.292z"/>
			<path opacity="0.15" fill="#FFFFFF" d="M50.475,49.774l17.875,0.115c0,0-0.123,9.627-8.323,9.873
				C51.828,60.008,50.434,52.865,50.475,49.774z"/>
			<path opacity="0.15" fill="#FFFFFF" d="M72.427,49.774l17.875,0.115c0,0-0.123,9.627-8.323,9.873
				C73.78,60.008,72.386,52.865,72.427,49.774z"/>
			<polygon opacity="0.1" fill="#FFFFFF" points="52.031,56.961 61.5,49.594 65.495,49.774 57.012,59.918 			"/>
			<polygon opacity="0.1" fill="#FFFFFF" points="75.216,57.589 84.187,49.889 90.719,49.889 80.963,60.196 			"/>
			<g>
				<path fill="#292832" d="M43.439,54.967l5.636-5.078l0.241,2.096c0,0-3.852,2.703-4.962,3.804
					c-0.181,0.18-0.673,0.503-1.01,0.144C42.891,55.452,43.439,54.967,43.439,54.967z"/>
				<path fill="#292832" d="M97.221,54.967l-5.636-5.078l-0.241,2.096c0,0,3.852,2.703,4.962,3.804
					c0.181,0.18,0.673,0.503,1.01,0.144C97.768,55.452,97.221,54.967,97.221,54.967z"/>
				<g>
					<path fill="#292832" d="M85.561,58.16c1.191-0.884,3.53-2.815,3.929-6.111c0.516-4.268,1.606-3.761,1.606-3.761
						s1.045-0.139,0.766,2.577c-0.279,2.716-1.365,6.89-4.527,8.985c-2.805,1.858-4.651,2.2-8.581,1.461
						c-3.93-0.738-6.936-5.143-7.358-7.49c-0.422-2.347-1.055-5.196,0-5.433c1.055-0.237,1.477,0.633,1.53,1.134
						c0.053,0.501,0.053,3.534,1.53,5.749c1.477,2.215,2.76,3.591,5.45,3.987C82.209,59.597,84.372,59.043,85.561,58.16z"/>
					<path fill="#292832" d="M55.14,58.16c-1.191-0.884-3.439-2.81-3.785-6.111c-0.459-4.369-1.75-3.761-1.75-3.761
						s-1.045-0.139-0.766,2.577c0.279,2.716,1.365,6.89,4.527,8.985c2.805,1.858,4.651,2.2,8.581,1.461
						c3.93-0.738,6.936-5.143,7.358-7.49c0.422-2.347,1.055-5.196,0-5.433c-1.055-0.237-1.477,0.633-1.53,1.134
						c-0.053,0.501-0.053,3.534-1.53,5.749c-1.477,2.215-2.76,3.591-5.45,3.987C58.492,59.597,56.329,59.043,55.14,58.16z"/>
					<polygon fill="#292832" points="49.898,49.255 68.544,49.255 68.544,50.293 49.898,50.104 					"/>
					<polygon fill="#292832" points="72.698,49.255 91.345,49.255 91.345,50.293 72.698,50.104 					"/>
					<path fill="#292832" d="M69.087,52.017c0,0,1.331-0.714,2.546,0l-0.193-1.724c0,0-1.312-0.413-2.122,0L69.087,52.017z"/>
				</g>
			</g>
			<g>
				<path fill="#313034" d="M81.999,78.229c0.144,0.282,0.447,1.629,0.498,1.985c0.127,0.891-0.037,1.553-0.64,2.054
					c-0.473,0.393-1.326,0.395-1.825-0.032c-0.422-0.36-0.861-0.635-1.28-0.595c-0.429,0.041-0.837,0.405-1.125,0.712
					c-0.704,0.752-1.494,0.934-2.27,0.732c-0.793-0.251-1.346-1.137-1.832-1.58c-0.064-0.058-0.163-0.047-0.213,0.023
					c-0.52,0.726-1.632,2.072-1.791,2.199c-0.23,0.184-0.45,0.371-0.701,0.475c-0.698,0.29-1.458,0.176-2.032-0.655
					c-0.125-0.181-0.221-0.38-0.299-0.585c-0.447-1.179-1.105-1.259-2.012-0.264c-0.111,0.122-0.731,0.638-0.967,0.727
					c-1.126,0.424-1.823,0.27-2.523-0.722c-0.256-0.363-0.466-0.862-0.795-0.988c-0.328-0.126-0.774,0.122-1.167,0.183
					c-1.571,0.243-2.258-0.113-2.798-1.585c-0.346-0.898-0.102-1.791,0.019-2.222c0.626-2.22,1.994-3.507,3.379-4.805
					c0.114-0.107,0.731-0.642,1.225-0.695c0,0,0.054,0.087,0.079,0.141c0.163,0.357,0.247,0.575,0.404,0.945
					c0.056,0.132,0.088,0.23,0.088,0.23c-1.927,1.112-3.242,2.81-3.794,4.969c-0.073,0.285-0.028,0.584,0.082,0.872
					c0.292,0.767,0.669,0.911,1.336,0.428c0.764-0.553,1.29-1.324,1.823-2.091c0.293-0.422,0.479-0.945,1.006-1.352
					c0.108-0.083,0.259,0.019,0.228,0.151c-0.287,1.213-0.154,2.315-0.185,3.411c-0.011,0.38,0.002,0.754,0.177,1.115
					c0.333,0.686,0.557,0.751,1.123,0.255c0.937-0.821,1.617-1.828,2.166-2.941c0.16-0.324,0.229-0.747,0.615-0.979
					c0.091-0.055,0.208,0.003,0.221,0.108c0.084,0.657,0.12,1.05,0.311,1.859c0.304,1.12,0.586,1.744,1.206,2.459
					c0.348,0.401,0.642,0.399,1.058,0.032c0.857-0.756,1.349-1.72,1.748-2.753c0.142-0.368,0.205-0.786,0.693-1.06
					c0.085-0.048,0.193,0.005,0.211,0.101c0.238,1.291,1.394,1.837,2.067,2.765c0.375,0.516,1.074,0.382,1.321-0.211
					c0.26-0.626,0.364-1.266,0.212-1.975c-0.156-0.729-0.496-1.458-0.374-2.241c0.014-0.093,0.11-0.152,0.197-0.118
					c0.206,0.081,0.246,0.265,0.338,0.401c0.736,1.084,1.611,2.056,2.476,3.033c0.26,0.294,0.551,0.816,1.02,0.543
					c0.479-0.279,0.222-0.83,0.164-1.273c-0.016-0.122-0.099-0.235-0.128-0.357c-0.451-1.898-1.625-3.372-2.82-4.834
					c-0.019-0.023-0.308-0.3-0.293-0.325c0.263-0.423,0.325-0.544,0.542-0.948c0.037-0.069,0.071-0.046,0.148-0.031
					c0.288,0.059,0.508,0.238,0.68,0.474C80.117,74.918,81.841,77.919,81.999,78.229z"/>
				<path fill="#444B55" d="M77.652,73.864c1.204,1.474,2.899,3.431,3.217,5.549c0.059,0.443,0.316,0.994-0.164,1.273
					c-0.469,0.273-0.759-0.249-1.02-0.543c-0.866-0.977-1.74-1.949-2.476-3.033l-0.003-0.005c-0.173-0.257-0.57-0.121-0.554,0.189
					c0.031,0.61,0.272,1.193,0.397,1.775c0.152,0.71,0.048,1.35-0.212,1.975c-0.247,0.593-0.854,0.689-1.289,0.352
					c-0.843-0.653-1.692-1.529-2.031-2.628c-0.078-0.253-0.4-0.339-0.578-0.143c-0.226,0.249-0.288,0.551-0.394,0.825
					c-0.399,1.032-0.891,1.997-1.748,2.753c-0.416,0.367-0.71,0.369-1.058-0.032c-0.62-0.716-0.916-1.204-1.177-2.109
					c-0.168-0.583-0.253-1.2-0.317-1.801c-0.026-0.249-0.342-0.342-0.496-0.145c-0.179,0.229-0.247,0.519-0.364,0.755
					c-0.549,1.113-1.229,1.972-2.166,2.793c-0.566,0.495-0.789,0.43-1.123-0.255c-0.175-0.361-0.342-1.082-0.331-1.463
					c0.03-1.054,0.062-1.766,0.308-2.925c0.04-0.187-0.184-0.31-0.326-0.182c-0.431,0.389-0.609,0.858-0.877,1.244
					c-0.533,0.767-1.059,1.538-1.823,2.091c-0.667,0.483-1.204,0.293-1.489-0.38c-0.11-0.288-0.002-0.635,0.071-0.92
					c0.56-2.191,1.817-3.856,3.794-4.969c1.149,1.582,2.648,2.676,4.539,3.194c3.332,0.913,6.309,0.343,8.815-2.155
					C77.098,74.624,77.399,74.223,77.652,73.864z"/>
			</g>
			<path fill="#40221A" d="M43.114,58.88c0.288,0.856,0.554,1.72,0.859,2.677c0.015,0.046,0.074,0.055,0.102,0.016
				c0.473-0.672,1.192-6.932,1.719-7.539c0.033-0.038,0.095-0.02,0.1,0.03c0.338,3.014-0.658,13.364-0.791,16.12
				c-0.092,1.919-0.353,3.83-0.432,5.749c-0.078,1.888,0.017,3.783-0.034,5.672c-0.092,3.415,0.54,6.7,1.786,9.856
				c0.892,2.261,2.104,4.355,3.734,6.192c1.966,2.215,4.45,3.579,7.2,4.557c2.988,1.063,6.076,1.682,9.203,2.101
				c1.416,0.189,2.86,0.276,4.288,0.248c1.178-0.023,2.348-0.305,3.526-0.437c3.235-0.363,6.368-1.134,9.396-2.32
				c3.955-1.55,6.832-4.253,8.776-8.04c1.992-3.882,2.855-8.012,2.93-12.321c0.037-2.128-0.098-4.261-0.227-6.388
				c-0.129-2.123-0.295-4.247-0.541-6.359c-0.272-2.341,0.138-7.042,0.238-7.017c1.077,0.272,0.948-0.565,1.312-1.637
				c0.313-0.925,1.269-2.679,1.896-3.369c0.37-0.407,0.755-0.815,0.922-0.941c0.517-0.393,1.043-0.796,1.622-1.077
				c0.465-0.226,1.003-0.301,1.549,0.176c0.036,0.031,0.017,0.09-0.031,0.098c-1.42,0.226-2.518,1.027-3.269,2.026
				c-1.201,1.597-1.655,3.497-2.203,5.394c-0.113,0.392-0.172,0.8-0.251,1.203c-0.008,0.039,0.026,0.074,0.065,0.068
				c0.458-0.074,0.753-0.281,1.054-0.48c1.012-0.67,2.174-0.647,3.039,0.096c0.038,0.032,0.016,0.095-0.033,0.099
				c-0.232,0.02-0.43,0.039-0.628,0.047c-2.116,0.09-3.803,1.893-3.739,4.01c0.034,1.118,0.164,2.236,0.282,3.35
				c0.075,0.709,0.209,1.412,0.323,2.143c0.004,0.025,0.023,0.044,0.048,0.048c1.207,0.196,2.062-0.414,2.857-1.113
				c1.81-1.593,2.916-3.649,3.633-5.904c1.223-3.843,2.003-7.762,1.475-11.823c-0.141-1.085-0.358-2.184-0.727-3.211
				c-0.648-1.805-2.21-2.878-3.974-2.81c-0.121,0.005-1.098,0.015-1.221,0.03c-0.038,0.005-0.55-0.08-0.542-0.118
				c0.102-0.507,0.207-1.016,0.368-1.578c0.007-0.024,0.509,0.009,0.535,0.009c0.093-0.002,1.04-0.002,1.131,0
				c2.879,0.043,4.633,1.561,5.578,4.328c0.47,1.375,0.719,2.871,0.789,4.326c0.174,3.606-0.332,7.147-1.448,10.565
				c-0.52,1.594-1.202,3.132-2.046,4.58c-1.681,2.883-3.08,3.826-6.034,4.394c-0.027,0.005-0.047,0.029-0.047,0.056
				c0,2.365,0.023,4.726-0.005,7.087c-0.071,6.084-1.698,11.685-5.525,16.478c-0.908,1.137-1.244,2.196-1.145,3.562
				c0.194,2.671,0.323,5.346,0.476,7.982c0.001,0.025,0.02,0.047,0.045,0.052c2.591,0.57,5.254,1.194,7.781,1.786
				c0.026,0.006,0.045,0.03,0.045,0.057c-0.009,0.747-0.193,1.371-0.394,2.145c-0.008,0.029-0.037,0.048-0.066,0.043
				c-2.402-0.433-4.808-1.009-7.166-1.318c-0.036-0.005-0.067,0.025-0.064,0.062c0.237,3.178,0.165,5.723-0.219,6.658
				c-0.019,0.047-0.086,0.046-0.106-0.002c-0.129-0.313-0.247-0.566-0.326-0.831c-0.882-2.994-1.225-6.079-1.457-9.173
				c-0.165-2.201-0.2-4.412-0.286-6.719c-0.012-0.463-0.03-0.835-0.054-1.32c-0.002-0.04-0.045-0.066-0.081-0.05
				c-0.366,0.165-0.605,0.266-0.837,0.381c-1.246,0.62-2.467,1.295-3.739,1.856c-3.558,1.571-7.367,2.136-11.178,2.662
				c-0.969,0.134-1.958,0.261-2.928,0.213c-1.669-0.083-3.347-0.216-4.994-0.49c-4.251-0.708-8.428-1.689-12.29-3.921
				c-0.431-0.237-0.793-0.438-1.293-0.716c-0.036-0.02-0.083,0.004-0.085,0.046c-0.178,2.715-0.41,5.244-0.487,7.776
				c-0.083,2.752-0.438,5.456-1.044,8.133c-0.142,0.628-0.328,1.245-0.503,1.866c-0.238-0.024-0.179-0.018-0.416-0.043
				c-0.15-2.076,0.056-4.177-0.095-6.308c-0.002-0.032-0.032-0.056-0.064-0.053c-0.279,0.025-0.465,0.03-0.645,0.066
				c-2.182,0.435-4.364,0.875-6.545,1.314c-0.032,0.006-0.063-0.016-0.068-0.048c-0.095-0.697-0.298-1.404-0.391-2.195
				c-0.003-0.026,0.013-0.052,0.038-0.061c1.003-0.361,2.105-0.648,3.115-0.869c1.078-0.236,2.177-0.376,3.257-0.604
				c0.503-0.106,0.985-0.313,1.423-0.46c0.015-0.005,0.028-0.018,0.034-0.033c0.059-0.145,0.108-0.215,0.11-0.287
				c0.102-3.072,0.197-6.144,0.302-9.216c0.018-0.515-0.105-0.931-0.47-1.337c-2.637-2.932-4.279-6.387-5.2-10.194
				c-0.452-1.87-0.799-3.755-0.786-5.702c0.01-1.47-0.183-2.94-0.193-4.411c-0.008-1.059,0.143-2.119,0.205-3.179
				c0.012-0.21-0.035-0.423-0.052-0.522c-0.003-0.02-0.017-0.036-0.036-0.043c-1.13-0.437-2.181-0.745-3.134-1.243
				c-1.47-0.768-2.367-2.144-3.167-3.527c-1.43-2.474-2.195-5.188-2.753-7.983c-0.503-2.518-0.48-5.05-0.477-7.59
				c0.002-1.629,0.382-3.162,1.109-4.616c1.084-2.166,2.84-3.294,5.316-3.526c0.519-0.049,2.415-0.014,2.712-0.005
				c0.028,0.001,0.05,0.023,0.054,0.05c0.077,0.569,0.192,0.894,0.267,1.531c0.004,0.034-0.023,0.066-0.058,0.065
				c-0.286-0.005-2.021-0.026-2.443,0.007c-2.374,0.187-3.813,1.388-4.439,3.09c-0.483,1.313-0.841,2.663-0.779,4.083
				c0.065,1.472,0.141,2.945,0.235,4.416c0.151,2.351,0.757,4.604,1.527,6.816c0.771,2.213,1.96,4.156,3.781,5.665
				c0.706,0.585,1.425,1.215,2.493,0.846c0.021-0.007,0.037-0.027,0.039-0.049c0.187-1.701,0.335-3.357,0.563-5.002
				c0.2-1.448-0.356-2.525-1.38-3.488c-0.639-0.6-1.333-0.925-2.194-0.946c-0.186-0.005-0.371-0.038-0.612-0.071
				c-0.05-0.007-0.067-0.072-0.027-0.102c1.23-0.92,1.86-0.797,4.108,0.739c0.043,0.029,0.1-0.009,0.088-0.06
				c-0.534-2.18-0.905-4.349-2.024-6.177c-0.3-0.49-0.529-0.789-1.135-1.287c-0.824-0.775-1.392-1.115-2.204-1.443
				c-0.172-0.07-0.144-0.324,0.039-0.353c0.281-0.044,0.555-0.053,0.821-0.008c0.886,0.148,2.54,1.255,3.044,2.002
				C42.526,57.102,42.922,58.312,43.114,58.88z"/>
			<path fill="#2C2D32" d="M95.81,53.436c-0.074,0.262-0.449,0.257-0.518-0.006c-0.06-0.229-0.112-0.459-0.143-0.692
				c-0.348-2.646-0.765-5.288-0.957-7.947c-0.107-1.475-0.326-2.949-0.301-4.434c0.039-2.27-0.31-4.52-0.308-6.794
				c0.001-0.913,0.161-1.481-0.19-2.813c-0.457-1.619-0.971-1.894-1.758-2.759c-0.565-0.622-1.612-0.885-2.338-0.968
				c-0.471-0.054-1.006,0.036-1.447,0.218c-1.885,0.778-3.923,0.882-5.865,1.393c-2.558,0.674-5.186,0.755-7.794,1.045
				c-2.643,0.294-5.283,0.265-7.909,0.15c-2.947-0.129-5.888-0.52-8.8-1.044c-1.939-0.349-3.889-0.637-5.808-1.097
				c-0.935-0.224-2.479,0.009-3.139,0.596c-0.74,0.658-1.579,1.793-1.782,3.161c-0.43,1.808-0.681,3.653-0.677,5.493
				c0.005,2.562-0.116,5.117-0.336,7.658c-0.215,2.49-0.454,4.988-0.902,7.457c-0.038,0.21-0.048,0.426-0.045,0.643
				c0.003,0.304-0.45,0.342-0.482,0.04c-0.004-0.037-0.595,8.878-0.398,9.608c0.034,0.127,0.21,0.139,0.262,0.018
				c0.211-0.492,0.273-0.91,0.37-1.32c0.23-0.968,1.332-6.629,1.601-8.502c0.322-2.241,0.652-4.479,0.904-6.731
				c0.428-3.814,0.623-7.638,0.763-11.471c0.064-1.735,0.937-3.22,2.071-4.534c0.53-0.614,1.187-0.491,1.833-0.37
				c1.335,0.25,2.659,0.563,3.996,0.804c2.918,0.524,5.852,0.907,8.809,1.174c2.559,0.232,5.116,0.268,7.667,0.159
				c4.203-0.181,8.366-0.746,12.457-1.764c1.358-0.338,2.708-0.705,4.071-1.024c0.819-0.192,1.421,0.271,1.923,0.826
				c0.803,0.888,1.199,1.974,1.228,3.155c0.054,2.187,0.152,4.37,0.271,6.554c0.16,2.923,0.413,5.833,0.707,8.745
				c0.249,2.462,0.612,4.904,1.04,7.337c0.185,1.052,0.44,2.092,0.686,3.132c0.219,0.925,0.286,3.128,0.431,3.475
				c0.002,0.005,0.115,0.309,0.117,0.314c0.188,0.457,0.857,0.365,0.906-0.126c0.077-0.786,0.11-2.94,0.154-3.267
				C96.43,57.033,96.09,52.445,95.81,53.436z"/>
			<path fill="#2C2D32" d="M43.896,60.343c0,0-1.961-11.743-1.509-20.168c0.364-6.79,2.985-13.661,7.42-18.295
				c9.364-9.783,22.608-7.21,26.426-6.57c3.819,0.64,13.533,1.973,19.861,15.194c6.328,13.221-0.177,31.17-0.177,31.17
				s-1.181-4.853-0.604-6.609s4.547-15.029-1.762-26.822c-7.148-13.36-29.541-12.811-37.15-9.196s-11.893,12.287-12.53,22.856
				c-0.24,3.976,0,3.296,0.207,6.595c0.086,1.368,0.342,3.878,0.245,5.039C44.188,55.146,43.896,60.343,43.896,60.343z"/>
		</g>
	</g>
</g>
</svg>
