<?xml version="1.0" encoding="UTF-8"?>
<svg id="Layer_2" data-name="Layer 2" xmlns="http://www.w3.org/2000/svg" xmlns:xlink="http://www.w3.org/1999/xlink" viewBox="0 0 138.892 138.892">
  <defs>
    <clipPath id="clippath">
      <circle id="Ellipse_891-2" data-name="Ellipse 891" cx="69.446" cy="69.446" r="69.446" fill="none"/>
    </clipPath>
  </defs>
  <g id="Layer_1-2" data-name="Layer 1">
    <g>
      <circle id="Ellipse_891" data-name="Ellipse 891" cx="69.446" cy="69.446" r="69.446" fill="#f2f2f2"/>
      <g clip-path="url(#clippath)" fill="none">
        <g>
          <polygon points="39.897 45.398 42.483 43.823 47.73 43.663 50.847 53.078 50.239 66.461 45.727 68.003 42.331 65.321 39.289 59.161 38.376 53.111 38.376 46.829 39.897 45.398" fill="#6a4136"/>
          <polygon points="99.328 45.398 96.743 43.823 91.496 43.663 88.378 53.078 88.986 66.461 93.498 68.003 96.895 65.321 99.937 59.161 100.849 53.111 100.849 46.829 99.328 45.398" fill="#6a4136"/>
          <path d="m86.483,91.5c.081,1.93.075,3.56.219,5.485.203,2.706.539,2.473,2.034,3.244,2.1.27,4.98-.238,7.096.228-.244,2.442-1.042,5.513-1.996,7.76-.572,1.347-1.846,4.051-2.626,5.29-1.951,3.096-4.996,5.78-8.142,7.616-3.078,1.796-6.88,3.24-10.43,3.639-5.747.646-11.415-.325-16.433-3.189-3.748-2.139-7.195-4.842-9.23-8.704-1.434-2.722-2.378-6.039-2.93-9.06-.032-.176-.204-2.064-.256-2.323,1.923-.474,4.326-.675,6.252-1.059.168-.033,2.086-.127,2.158-2.534.067-2.24.363-5.006.52-7.411.474.263,1.523.596,1.922.895.148.383-.113,1.061.026,1.292.294.489,1.318.493,1.626.974.856,1.339,1.3.845,2.675,1.66,1.014.601,2.074,1.294,3.09,1.891,1.299.763,1.034,1.405,2.629,1.291.205-.015,1.958.974,2.168,1.012.947.172,1.538.371,2.473.319,1.449-.08,2.789.405,4.189.02,1.536-.422,3.544-.272,4.671-1.559.152-.173.416-.268.645-.351,1.449-.523,1.333-1.684,2.443-2.698.284-.26,1.154-.757,1.336-1.097.516-.961,1.548-1.492,2.294-2.194.081-.076,1.433-.428,1.576-.439Z" fill="#6f4539"/>
          <path d="m93.13,56.481c-.343,2.163-1.272,4.161-1.032,6.224.215,1.848.112,3.668.224,5.525.113,1.86.231,3.726.199,5.587-.065,3.769-1.597,8.158-3.339,11.554-1.7,3.313-4.217,5.677-7.676,7.033-2.648,1.038-5.389,1.712-8.218,2.03-1.03.116-2.054.362-3.084.382-1.249.025-2.512-.051-3.751-.217-2.736-.366-5.436-.908-8.05-1.837-2.406-.856-4.578-2.048-6.298-3.986-1.426-1.606-3.271-3.649-4.051-5.627-1.089-2.761-1.642-5.634-1.562-8.621.045-1.653-.038-3.31.03-4.961.069-1.679-.01-5.227.071-6.905.117-2.432.495-8.487.496-9.583.002-1.542.332-3.424.349-4.965.032-2.944-1.043-5.943-.845-8.878.191-2.822.789-6.956,1.553-9.702.104-.375,2.552-3.856,2.702-4.35,2.263.766,38.9.515,39.15.47.121.773.833,8.252.866,9.015.167,3.909.353,7.818.412,11.73.039,2.583,1.227,3.402,1.145,5.986-.023.715.276,2.584.243,3.391l.468.706Z" fill="#6e4539"/>
          <path d="m86.116,92.119c-.22.127-.532.22-.818.455-.723.592-1.587,1.031-2.057,1.907-.183.34-.424.672-.709.931-1.11,1.014-2.134,1.789-3.376,2.7-1.506,1.104-3.668,1.911-5.204,2.333-1.4.385-2.866.623-4.315.704-.935.052-1.892-.297-2.839-.469-3.009.097-3.526-.753-4.825-1.516-1.016-.597-2.032-1.193-3.046-1.794-1.376-.815-2.432-1.948-3.288-3.286-.308-.481-2.478-1.493-2.773-1.982,0,0,.195-1.151.201-1.495,3.309,1.836,8.232,3.475,11.95,4.094,1.441.24,2.908.356,4.368.429.849.042,1.714-.069,2.561-.186,3.333-.46,6.664-.954,9.777-2.328,1.112-.491,2.181-1.082,3.271-1.624.216-.108.63-.345.989-.508.023.461.122,1.208.133,1.636Z" fill="#633b30"/>
          <g>
            <path d="m30.485,248.31c-.664-.188-1.328-.375-2.075-.557-3.014-.897-5.944-1.806-8.869-3.111-.086-.039-.136-.131-.121-.225.177-1.082.354-2.149.524-3.217.563-3.538,1.182-7.069,1.666-10.619.489-3.582.861-7.181,1.244-10.777.156-1.46.224-2.931.296-4.399.147-3.008.331-6.015.387-9.025.061-3.341.007-6.685-.021-10.027-.009-1.002-.1-2.003-.162-3.205-.033-2.203-.058-4.206-.07-6.302,0-.006,0-.013,0-.019-.042-.476-.133-.859-.141-1.245-.087-4.319-.161-8.638-.24-12.957-.004-.214-.025-.428-.027-.739-.072-2.027-.154-3.961-.236-5.891-.004-.099-.079-.182-.178-.197-1.624-.24-3.16-.449-4.688-.702-4.475-.739-8.771-2.05-12.857-4.036-.444-.216-.921-.366-1.426-.604-.005-.002-.01-.005-.015-.008-.52-.295-.997-.533-1.474-.771-.009-.004-.017-.009-.025-.015-2.125-1.459-4.254-2.913-6.373-4.382-.341-.237-.651-.518-1.005-.814-.073-.061-.096-.164-.055-.25.117-.241.22-.482.369-.691,3.209-4.484,5.315-9.511,7.183-14.649,2.146-5.902,4.207-11.836,6.387-17.726,1.06-2.864,2.363-5.634,4.109-8.159,2.636-3.813,6.114-6.44,10.737-7.346,1.583-.31,3.187-.507,4.805-.182.988.198,1.844-.044,2.752-.541,2.906-1.589,6.003-2.749,9.176-3.691,1.272-.378,2.759-.742,4.114-1.001.11-.021.219.05.243.16.14.647.024,1.284.104,1.939,0,.006.002.013.003.019.052.254.116.421.148.595.552,3.021,1.514,5.899,2.947,8.62,2.034,3.862,5.034,6.804,8.782,8.943,5.018,2.864,10.438,3.818,16.185,3.172,3.551-.399,6.875-1.401,9.953-3.198,3.146-1.836,5.81-4.215,7.761-7.311.781-1.239,1.472-2.552,2.044-3.899.954-2.247,1.666-4.58,2.015-7.097.093-.634.168-1.203.241-1.764.016-.121-.033-.233.086-.206,4.681,1.03,9.36,2.575,13.594,4.841.868.465,1.687.543,2.581.417,2.936-.413,5.716.137,8.378,1.359,3.779,1.735,6.409,4.653,8.397,8.229,2.032,3.657,3.514,7.55,4.92,11.472,1.745,4.867,3.399,9.766,5.162,14.626,1.289,3.553,2.975,6.93,4.849,10.21.355.622.8,1.193,1.195,1.793.221.336.431.679.661,1.048.056.089.037.206-.045.273-2.333,1.898-4.713,3.582-7.36,5.119-.564.289-1.001.518-1.509.774-5.973,3.142-12.326,4.705-18.926,5.403-.089.009-.163.075-.182.162-.427,1.998-.168,3.933-.241,5.948-.074,1.601-.166,3.101-.203,4.602-.087,3.473-.147,6.947-.223,10.52-.068,1.422-.135,2.744-.19,4.066-.012.285.027.571.03.857.003.419-.006.838-.01,1.257-.76,17.213.736,34.248,4.05,51.195.018.094-.03.189-.117.229-2.84,1.314-5.801,2.216-8.832,3.146-.004.001-.009.003-.013.004-.699.165-1.322.315-2.098.52-.474.11-.798.139-1.111.218-7.117,1.797-14.337,2.993-21.649,3.604-3.864.323-7.733.646-11.606.765-3.554.11-7.116-.047-10.674-.099-4.89-.071-9.761-.445-14.601-1.118-3.873-.539-7.735-1.174-11.586-1.854-2.296-.405-4.563-.98-6.843-1.478m-8.249-100.27c0-.576.01-1.151-.005-1.726-.053-2.081-.129-4.162-.157-6.243-.004-.304.141-.61.244-.916.027-.08.101-.134.185-.138h.003c.083-.004.159.042.197.116.149.29.341.575.382.88.249,1.845.498,3.693.655,5.548.194,2.286.323,4.578.434,6.87.105,2.187.174,4.376.218,6.566.094,4.671.163,9.342.238,14.013.016,1.007-.011,2.015.025,3.021.037,1.038.121,2.076.196,3.112.135,1.856.306,3.709.41,5.566.104,1.863.148,3.729.212,5.594.081,2.368.225,4.736.217,7.104-.017,4.851-.103,9.701-.192,14.551-.032,1.755-.143,3.51-.24,5.263-.048.874-.117,1.747-.212,2.617-.266,2.442-.549,4.883-.833,7.323-.228,1.956-.416,3.919-.713,5.866-.485,3.186-1.031,6.362-1.585,9.537-.085.487.026.762.467.927.336.126.673.25,1.012.37,3.998,1.416,8.058,2.625,12.219,3.452,3.513.698,7.033,1.378,10.573,1.91,2.866.431,5.763.661,8.652.923,2.711.246,5.427.538,8.145.594,5.713.117,11.43.12,17.141-.19.108-.006.215-.012.323-.022,2.103-.2,4.207-.395,6.309-.604,1.533-.152,3.072-.265,4.593-.497,2.867-.438,5.724-.938,8.582-1.432,5.173-.896,10.231-2.237,15.19-3.954.594-.206,1.168-.469,1.79-.729.082-.034.133-.117.128-.206-.024-.377-.032-.724-.088-1.063-.174-1.06-.405-2.111-.559-3.174-.532-3.685-1.073-7.37-1.548-11.063-.393-3.053-.731-6.115-1.031-9.178-.203-2.068-.324-4.145-.431-6.221-.108-2.079-.214-4.161-.212-6.242.003-2.908.095-5.817.171-8.724.051-1.973.144-3.945.212-5.918.076-2.188.145-4.377.217-6.566.072-2.188.15-4.376.214-6.565.078-2.656.15-5.313.216-7.969.076-3.052.101-6.106.229-9.156.104-2.455-.083-4.896.339-7.375.485-2.844.331-5.792.542-8.689.132-1.819.417-3.628.652-5.439.034-.262.084-.557.463-.665.116-.033.235.048.255.167.056.331.126.663.128.996.011,2.66,0,5.321-.015,8.167,0,.004,0,.007,0,.011-.298,4.946-.461,9.895-.414,14.821,0,.089.058.167.142.196.812.28,1.5-.004,2.189-.098.88-.121,1.753-.289,2.803-.441,2.611-.503,5.175-1.178,7.684-2.068,4.274-1.516,8.134-3.779,11.761-6.466.552-.409.544-.517.183-1.161-.806-1.442-1.656-2.863-2.399-4.337-1.847-3.662-3.318-7.481-4.676-11.348-1.773-5.049-3.542-10.1-5.413-15.112-1.106-2.962-2.427-5.84-4.256-8.451-2.77-3.953-6.548-6.139-11.367-6.495-.279-.021-.563.036-.898.089-.146.023-.223.189-.145.315.731,1.183,1.87,1.942,2.346,3.158.069.177-.112.35-.283.266-1.086-.533-1.911-1.434-2.926-2.048-1.197-.725-2.373-1.491-3.603-2.157-1.198-.649-2.429-1.249-3.688-1.769-1.293-.534-2.63-.964-3.959-1.405-1.206-.399-2.425-.758-3.546-1.103-.111-.034-.227.03-.26.141-.673,2.298-1.233,4.492-1.979,6.621-.993,2.836-2.467,5.435-4.499,7.668-2.494,2.741-5.417,4.893-8.829,6.405-3.438,1.524-7.038,2.198-10.759,2.329-2.121.074-4.217-.217-6.302-.61-4.488-.845-8.427-2.831-11.875-5.779-3.946-3.374-6.421-7.683-7.767-12.664-.355-1.312-.655-2.638-.989-4.006-.026-.108-.133-.176-.242-.155-.187.036-.366.069-.538.123-1.713.539-3.435,1.051-5.131,1.639-2.691.934-5.256,2.141-7.626,3.735-1.34.901-2.665,1.825-3.997,2.738-.252.173-.485.398-.889.418-.155.008-.267-.152-.202-.293.616-1.349,1.96-2.039,2.688-3.185.051-.08.039-.188-.029-.254-.372-.358-.82-.217-1.221-.211-.318.005-.633.134-.953.157-3.397.243-6.183,1.806-8.544,4.128-1.486,1.462-2.632,3.215-3.585,5.087-1.847,3.627-3.278,7.425-4.644,11.247-1.572,4.397-3.058,8.824-4.652,13.213-1.499,4.128-3.36,8.092-5.671,11.836-.121.196-.214.408-.328.646-.043.09-.014.199.067.258.48.346.929.667,1.373.993,2.061,1.513,4.236,2.851,6.524,3.982,2.482,1.227,5.076,2.197,7.753,2.915,1.415.38,2.86.649,4.463,1.003,1.567.285,3.127.657,4.846.555.112-.007.198-.103.194-.215-.169-5.1-.334-10.081-.486-15.254Z" fill="#b4433d"/>
            <path d="m17.51,162.918c-1.431-.319-2.876-.588-4.291-.967-2.677-.718-5.271-1.688-7.753-2.915-2.288-1.131-4.462-2.469-6.524-3.982-.444-.326-.893-.647-1.373-.993-.081-.059-.11-.168-.067-.258.114-.238.207-.451.328-.646,2.311-3.744,4.172-7.708,5.671-11.836,1.594-4.389,3.08-8.816,4.652-13.213,1.367-3.822,2.798-7.62,4.644-11.247.953-1.872,2.1-3.626,3.585-5.087,2.36-2.322,5.147-3.886,8.544-4.128.32-.023.635-.151.953-.157.401-.007.849-.147,1.221.211.068.066.08.174.029.254-.729,1.146-2.072,1.836-2.688,3.185-.065.141.047.301.202.293.404-.02.638-.245.889-.418,1.332-.913,2.657-1.837,3.997-2.738,2.37-1.594,4.936-2.801,7.626-3.735,1.696-.589,3.418-1.1,5.131-1.639.172-.054.351-.087.538-.123.109-.021.216.047.242.155.334,1.369.635,2.695.989,4.006,1.346,4.981,3.821,9.29,7.767,12.664,3.448,2.948,7.387,4.933,11.875,5.779,2.085.393,4.181.684,6.302.61,3.72-.13,7.32-.805,10.759-2.329,3.412-1.512,6.335-3.664,8.829-6.405,2.032-2.233,3.506-4.832,4.499-7.668.745-2.129,1.305-4.323,1.979-6.621.033-.111.149-.175.26-.141,1.122.345,2.341.703,3.546,1.103,1.329.44,2.667.871,3.959,1.405,1.259.52,2.49,1.12,3.688,1.769,1.23.666,2.406,1.431,3.603,2.157,1.014.614,1.84,1.516,2.926,2.048.171.084.352-.089.283-.266-.476-1.216-1.615-1.976-2.346-3.158-.078-.126-.001-.292.145-.315.335-.052.62-.109.898-.089,4.819.356,8.597,2.542,11.367,6.495,1.83,2.611,3.15,5.489,4.256,8.451,1.872,5.012,3.64,10.063,5.413,15.112,1.358,3.867,2.829,7.687,4.676,11.348.744,1.474,1.593,2.895,2.399,4.337.36.644.369.752-.183,1.161-3.627,2.687-7.487,4.95-11.761,6.466-6.293,2.369-12.282,3.091-12.571,2.634-.054-.086-.221-.039-.231-.14-.237-2.242.039-3.228.031-6.331-.016-3.03.112-3.509.21-5.721-.011-2.36.168-3.555.17-4.544.004-2.888.012-3.852.001-6.486-.001-.333-.072-.665-.128-.996-.02-.119-.139-.2-.255-.167-.38.108-.429.402-.463.665-.235,1.811-.52,3.619-.652,5.439-.211,2.897-.057,5.845-.542,8.689-.423,2.479-.236,4.92-.339,7.375-.129,3.05-.153,6.104-.229,9.156-.066,2.656-.138,5.313-.216,7.969-.064,2.188-.142,4.376-.214,6.565-.072,2.189-.142,4.377-.217,6.566-.068,1.973-.161,3.945-.212,5.918-.076,2.908-.168,5.816-.171,8.724-.002,2.081.104,4.163.212,6.242.108,2.076.229,4.153.431,6.221.3,3.064.638,6.125,1.031,9.178.475,3.693,1.016,7.378,1.548,11.063.153,1.063.384,2.114.559,3.174.056.339.064.686.088,1.063.006.089-.046.172-.128.206-.622.259-1.196.523-1.79.729-4.959,1.717-10.017,3.058-15.19,3.954-2.858.495-5.715.995-8.582,1.432-1.521.232-3.061.345-4.593.497-2.102.209-4.206.404-6.309.604-.107.01-.215.017-.323.022-5.711.309-11.427.307-17.141.19-2.718-.056-5.434-.348-8.145-.594-2.889-.262-5.786-.492-8.652-.923-3.54-.532-7.06-1.212-10.573-1.91-4.161-.827-8.221-2.036-12.219-3.452-.338-.12-.675-.244-1.012-.37-.44-.165-.551-.44-.467-.927.553-3.175,1.1-6.351,1.585-9.537.296-1.946.485-3.909.713-5.866.284-2.44.567-4.881.833-7.323.095-.87.164-1.743.212-2.617.097-1.754.208-3.508.24-5.263.089-4.85.175-9.701.192-14.551.008-2.368-.136-4.736-.217-7.104-.064-1.865-.108-3.731-.212-5.594-.104-1.857-.275-3.711-.41-5.566-.075-1.037-.159-2.074-.196-3.112-.036-1.006-.009-2.014-.025-3.021-.075-4.671-.144-9.342-.238-14.013-.044-2.189-.112-4.379-.218-6.566-.11-2.292-.24-4.584-.434-6.87-.157-1.855-.405-3.702-.655-5.548-.041-.305-.233-.59-.382-.88-.038-.074-.114-.12-.197-.116h-.003c-.084.004-.158.059-.185.138-.103.305-.249.611-.244.916.028,2.081.104,4.162.157,6.243.015.575.032,5.01.213,8.327.199,3.651.406,7.674.311,8.682-.01.102-.091.18-.193.188-.542.038-2.379.095-5.052-.591Z" fill="#f87360"/>
          </g>
          <path d="m74.116,41.414c-.733.213-1.379.408-2.095.625-.048-.271-.114-.469-.113-.667.003-1.331.046-2.662.023-3.991-.01-.608.247-.922.794-1.108,3.774-1.285,7.473-1.267,11.065.621,1.167.613,2.113,1.483,2.853,2.572.12.177.273.371.292.569.109,1.128.181,2.26.284,3.63-4.109-2.901-8.455-3.263-13.103-2.249m10.503-3.136c-.937-.437-1.843-.965-2.817-1.29-1.788-.595-3.662-.675-5.524-.516-.915.078-1.814.373-2.709.614-.207.056-.507.281-.523.449-.088.979-.134,1.966.023,3.066,2.341-.577,4.568-.851,6.826-.698,2.281.155,4.308,1.14,6.38,2.165.223-1.26.21-2.283-.836-3.025-.26-.185-.467-.444-.821-.766Z" fill="#2c2d32"/>
          <path d="m55.002,37.005c2.463-1.395,5.032-1.887,7.746-1.483,1.2.179,2.381.493,3.565.77.367.086.625.293.637.746.04,1.47.115,2.94.166,4.41.006.167-.057.336-.104.592-5.232-1.723-10.266-1.747-14.971,1.431-.538-1.385-.219-3.585.769-4.618.639-.668,1.411-1.209,2.191-1.849m-1.555,2.03c-.933.844-1.176,1.869-.846,3.14.252-.13.444-.213.62-.323,1.797-1.122,3.773-1.758,5.862-1.928,1.929-.157,3.865-.058,5.759.446.355.094.731.104,1.23.171,0-.824.004-1.499,0-2.173-.008-1.144-.044-1.177-1.118-1.472-2.255-.62-4.54-.648-6.807-.186-1.693.345-3.297.983-4.7,2.326Z" fill="#2c2d32"/>
          <path d="m78.028,83.119c-1.635,1.869-3.533,1.787-5.601,1.019-.048-.018-.064-.079-.033-.118.257-.322.615-.185.901-.178.877.019,1.712-.128,2.513-.484,1.119-.497,1.963-1.302,2.602-2.334l.002-.004c.109-.176.373-.142.438.054.144.439-.033.752-.822,2.045Z" fill="#42231b"/>
          <path d="m84.679,38.326c.292.274.5.533.76.718,1.046.742,1.059,1.765.836,3.025-2.072-1.024-4.099-2.01-6.38-2.165-2.258-.153-4.486.121-6.826.698-.157-1.1-.111-2.087-.023-3.066.015-.169.315-.394.523-.449.894-.241,1.794-.536,2.709-.614,1.862-.159,3.736-.08,5.524.516.974.324,1.88.853,2.878,1.338Z" fill="#454c56"/>
          <path d="m53.503,38.979c1.347-1.287,2.951-1.924,4.644-2.27,2.267-.462,4.552-.434,6.807.186,1.074.295,1.11.328,1.118,1.472.004.674,0,1.349,0,2.173-.499-.066-.876-.076-1.23-.171-1.894-.504-3.83-.603-5.759-.446-2.089.17-4.065.806-5.862,1.928-.175.109-.367.192-.62.323-.33-1.27-.088-2.296.902-3.196Z" fill="#454c56"/>
          <path d="m55.571,50.246c-.659-1.03-.527-2.154-.507-3.313.058-.244.047-.445.14-.57.877-1.18,2.037-1.918,3.466-2.296,2.383-.63,5.559-.061,6.794,2.385.452,1.288.02,2.433-.252,3.65-.793,1.197-1.915,1.785-3.186,2.09-2.21.53-4.167-.025-5.9-1.477m7.488-3.653c-.563-.972-1.416-1.436-2.518-1.264-1.002.156-1.692.76-1.944,1.774-.281,1.13.092,2.025,1.041,2.68.435.3.906.526,1.458.404,1.764-.389,2.526-1.684,1.964-3.595Z" fill="#f5f7f7"/>
          <g>
            <path d="m65.503,48.969c-.006-.012-.003-.056-.001-.087.021-.284.335-1.353-.3-2.684-1.062-2.225-4.271-2.727-6.533-2.13-1.124.297-2.035.784-2.837,1.579-.488.484-.767,1.141-.759,1.828.011,1.005.082,1.788.758,2.885-.011.013-.312.182-.394.117-.064-.05-.461-1.063-.488-1.192-.15-.71-.224-2.047-.224-2.047-.073-2.041.943-3.331,2.517-4.07,2.356-1.106,4.719-1.127,6.916.453.775.557,1.392,1.221,1.602,2.584.321,2.078-.049,2.686-.101,2.828-.067.024-.128-.014-.156-.065Z" fill="#090706"/>
            <path d="m55.437,50.477c.213-.227.275-.312.394-.117.067.11.209.284.294.355,1.733,1.452,3.69,2.007,5.9,1.477,1.065-.256,1.997-.713,2.763-1.558.147-.163.477-.653.724-1.834.043-.027.272-.177.252-.044-.021.14-.087.45-.126.628-.107.488-.325,1.006-.386,1.168-.054.142-.142.295-.25.434-2.482,3.184-7.614,2.511-9.343-.173-.058-.09-.124-.175-.223-.335Z" fill="#0f0d0c"/>
          </g>
          <path d="m63.649,47.139c.527,1.835-.235,3.13-1.999,3.519-.551.121-1.022-.104-1.458-.404-.95-.655-1.322-1.551-1.041-2.68.252-1.014.943-1.618,1.944-1.774,1.102-.172,1.955.292,2.554,1.34m-.996.568c.088-.363.126-.771-.319-.859-.299-.059-.722.017-.937.206-.133.117-.082.632.066.839.258.36.666.321,1.025.054.028-.021.051-.048.165-.24Z" fill="#090706"/>
          <path d="m73.88,50.463c-.19-.689-.474-1.358-.578-2.054-.219-1.472.314-2.667,1.531-3.551,2.478-1.8,6.505-1.073,8.327.799,1.143,1.175,1.094,3.582-.103,4.82-2.484,2.57-6.923,2.517-9.1-.012-.07-.018-.089.005-.076-.003m6.004-2.61c-.108-.302-.176-.627-.331-.903-.529-.945-1.65-1.394-2.68-1.108-1.117.311-1.812,1.245-1.783,2.397.029,1.15.798,2.028,1.914,2.292,1.186.28,2.967-.594,2.879-2.678Z" fill="#f5f7f7"/>
          <path d="m62.608,47.79c-.069.108-.093.135-.121.156-.359.267-.767.306-1.025-.054-.148-.207-.199-.722-.066-.839.215-.189.638-.265.937-.206.445.088.407.496.275.942Z" fill="#dde6e6"/>
          <path d="m79.889,47.94c.082,1.998-1.699,2.871-2.885,2.591-1.115-.263-1.885-1.142-1.914-2.292-.029-1.152.665-2.086,1.783-2.397,1.03-.286,2.151.163,2.68,1.108.155.276.223.6.337.99m-1.504.284c.057-.041.134-.071.169-.126.345-.546.307-.922-.109-1.176-.358-.218-.791-.103-1.01.268-.249.42-.08.817.479,1.085.086.041.209.006.471-.051Z" fill="#0d0a08"/>
          <path d="m78.307,48.253c-.184.028-.307.064-.393.022-.559-.268-.728-.665-.479-1.085.219-.371.652-.486,1.01-.268.416.254.454.63.109,1.176-.035.056-.112.085-.247.155Z" fill="#dde6e6"/>
          <g>
            <path d="m73.266,49.002c-.052-.142-.422-.75-.101-2.828.21-1.363.827-2.026,1.602-2.584,2.197-1.58,4.56-1.559,6.916-.453,1.575.739,2.591,2.029,2.517,4.07,0,0-.074,1.336-.224,2.047-.027.129-.424,1.141-.488,1.192-.083.065-.383-.104-.394-.117.676-1.097.747-1.88.758-2.885.008-.687-.271-1.344-.759-1.828-.801-.795-1.713-1.282-2.837-1.579-2.261-.597-5.471-.095-6.533,2.13-.635,1.331-.321,2.4-.3,2.684.002.03.005.075-.001.087-.028.052-.089.089-.156.065Z" fill="#090706"/>
            <path d="m83.265,50.78c-1.729,2.684-6.861,3.357-9.343.173-.108-.138-.196-.291-.25-.434-.061-.162-.279-.68-.386-1.168-.039-.177-.105-.487-.126-.628-.02-.133.209.017.252.044.247,1.181.577,1.672.724,1.834.765.845,1.697,1.302,2.763,1.558,2.21.53,4.167-.025,5.9-1.477.086-.072.227-.246.294-.355.119-.195.182-.11.394.117-.099.16-.165.245-.223.335Z" fill="#0f0d0c"/>
          </g>
          <path d="m64.697,54.824c.277-.328.5-.602.739-.895.419,2.042-2.78,4.338-5.499,3.818.948-.45,1.798-.772,2.559-1.239.762-.468,1.435-1.081,2.201-1.684Z" fill="#42241b"/>
          <path d="m73.369,54.457c-.066-.209-.119-.347-.128-.488-.006-.089.053-.182.108-.353,1.358,2.112,3.368,3.203,5.633,3.982-1.796.807-4.408-.654-5.613-3.141Z" fill="#42241b"/>
          <path d="m76.69,72.804c-.883.809-2.06.921-3.166,1.116-1.475.261-2.987.419-4.484.429-2.159.015-4.283-.334-6.354-1.212.33-.128.708-.248,1.087-.25,3.504-.016,7.009-.003,10.514-.018.782-.003,1.563-.081,2.404-.066Z" fill="#4e2d24"/>
          <path d="m61.195,72.126c1.319.849,2.761,1.163,4.179,1.498,2.175.514,4.404.328,6.62.172,1.821-.128,3.607-.266,5.215-1.358.86-.56,1.693-1.045,2.51-1.554.349-.217.667-.485,1.135-.831.011.698-.313.982-.598,1.281-1.795,1.88-4.008,3.026-6.526,3.537-3.691.749-7.344.643-10.899-.758-1.592-.627-2.98-1.568-4.247-2.698-.258-.23-.528-.492-.377-1.028.999.592,1.956,1.159,2.988,1.739Z" fill="#090706"/>
          <path d="m93.061,33.27c-.541-.016-1.347-3.957-3.15-7.27-1.768-3.25-4.533-5.876-5.076-5.696-.889.294-1.002.217-.99-.734.012-.983-5.171-2.178-5.73-1.726-.353.285-.579.206-.77-.157-.118-.224-.239-.447-.337-.68-.573-1.361-11.982-2.177-13.84-.426-.356.335-3.834,1.288-7.765,3.321-2.72,1.406-5.56,5.378-7.257,9.631-1.716,4.301-2.273,8.881-2.298,9.751-.107,3.773.999,5.983,1.121,9.33.005.142.03.277.083.407.083.203.386.152.402-.067.057-.779.181-2.02.239-2.421.236-1.641.391-3.293.533-4.941.192-2.223.298-4.458.294-6.698-.003-1.61.216-3.224.593-4.805.569-1.912,1.035-2.204,1.682-2.78.577-.513,1.805-.702,2.622-.506,1.678.402,3.384.654,5.08.959,2.548.459,5.119.8,7.697.913,2.298.101,4.606.126,6.918-.131,2.282-.254,4.58-.325,6.817-.914,1.699-.448,3.481-.538,5.13-1.219.386-.159.854-.238,1.266-.191.634.073,1.55.302,2.045.846.688.757,1.184,1.599,1.551,2.834.189.637.153,1.382.152,2.04-.001,1.988.303,3.957.269,5.942-.022,1.298.17,2.588.263,3.878.168,2.325.532,4.636.837,6.951.033.254.096.504.164.753.052.188.317.189.372.002.269-.915.435-1.822.635-2.721.433-1.947.992-3.86,1.55-5.774-.139-.278-.923-7.696-1.104-7.701Z" fill="#454c56"/>
          <path d="m57.865,71.938c-.33,1.113-.239,2.2-.083,3.281.131.907.412,1.793.655,2.681.069.252.129.492.076.805-.03.178-.268.22-.361.066-.773-1.276-1.35-2.474-1.605-3.847-.548-2.944.773-5.235,2.517-7.361.893-1.089,1.948-2.037,3.325-2.511.367-.126.425-.379.399-.689-.048-.57.134-1.106.297-1.625.248-.789.811-1.331,1.654-1.468.635-.103,1.227-.021,1.595.542.093.142-.03.335-.196.301-.001,0-.002,0-.003,0-1.68-.367-2.774.684-2.378,2.363.747,3.168,2.315,4.291,5.353,4.763,1.782.277,3.424-.199,4.914-1.249,1.085-.764,1.585-1.784,1.671-3.08.152-2.281-.674-4.28-1.787-6.177-.934-1.592-1.937-3.141-2.665-4.848-.793-1.861-.971-3.796-.917-5.764.006-.218.309-.265.381-.059.276.78.446,1.597.756,2.365.078.193.148.388.221.583.007.019.011.039.012.06.031,1.084.46,2.065.885,3.024.431.973,1.007,1.876,1.562,2.792,1.025,1.692,1.939,3.473,2.431,5.421.187.743.559,1.441.452,2.255-.061.466.315.701.672.928,1.928,1.232,3.187,3.013,4.202,5.026.611,1.213.845,2.48.686,3.76-.16,1.289-.832,2.883-1.194,3.77-.111.272-.19.581-.457.807-.104.088-.271.043-.31-.087-.056-.188.006-.382.044-.587.319-1.695.924-3.346.798-5.113-.026-.371-.077-.724-.179-1.085-.185-.659-.566-1.443-.818-1.992-.736-1.605-1.767-2.982-3.283-3.94-.418-.272-.676.549-.77.713-.281.492-.843,1.176-1.054,1.386-2.192,2.184-4.796,2.683-7.71,1.884-1.638-.449-2.94-1.391-3.941-2.754-.019-.026-.462-1.093-.498-1.161-.292-.564-.547-.462-.911-.24-1.018.62-1.815,1.492-2.563,2.397-.221.267-.778,1.002-1.178,1.783-.353.689-.558,1.413-.698,1.884Z" fill="#42241c"/>
          <path d="m52.368,46.119l15.635.1s-.108,8.42-7.279,8.636-8.391-6.033-8.355-8.736Z" fill="#fff" opacity=".15"/>
          <path d="m71.569,46.119l15.635.1s-.108,8.42-7.279,8.636-8.391-6.033-8.355-8.736Z" fill="#fff" opacity=".15"/>
          <polygon points="53.73 52.405 62.012 45.961 65.506 46.119 58.086 54.992 53.73 52.405" fill="#fff" opacity=".1"/>
          <polygon points="74.008 52.954 81.855 46.219 87.569 46.219 79.035 55.235 74.008 52.954" fill="#fff" opacity=".1"/>
          <g>
            <path d="m46.214,50.661l4.929-4.442.21,1.833s-3.37,2.365-4.34,3.328c-.158.157-.589.44-.883.126-.395-.421.084-.845.084-.845Z" fill="#292832"/>
            <path d="m93.255,50.661l-4.929-4.442-.21,1.833s3.37,2.365,4.34,3.328c.158.157.589.44.883.126.395-.421-.084-.845-.084-.845Z" fill="#292832"/>
            <g>
              <path d="m83.057,53.454c1.042-.773,3.088-2.463,3.436-5.345.452-3.733,1.405-3.29,1.405-3.29,0,0,.914-.122.67,2.254s-1.194,6.027-3.96,7.859c-2.453,1.625-4.068,1.924-7.506,1.278s-6.067-4.498-6.436-6.551-.923-4.544,0-4.752,1.292.554,1.338.992.046,3.091,1.338,5.029,2.414,3.141,4.767,3.487c2.015.296,3.907-.188,4.947-.961Z" fill="#292832"/>
              <path d="m56.448,53.454c-1.042-.773-3.008-2.457-3.311-5.345-.401-3.821-1.531-3.29-1.531-3.29,0,0-.914-.122-.67,2.254s1.194,6.027,3.96,7.859c2.453,1.625,4.068,1.924,7.506,1.278s6.067-4.498,6.436-6.551.923-4.544,0-4.752-1.292.554-1.338.992-.046,3.091-1.338,5.029-2.414,3.141-4.767,3.487c-2.015.296-3.907-.188-4.947-.961Z" fill="#292832"/>
              <polygon points="51.864 45.665 68.173 45.665 68.173 46.573 51.864 46.408 51.864 45.665" fill="#292832"/>
              <polygon points="71.806 45.665 88.116 45.665 88.116 46.573 71.806 46.408 71.806 45.665" fill="#292832"/>
              <path d="m68.648,48.081s1.164-.624,2.227,0l-.169-1.508s-1.147-.361-1.856,0l-.202,1.508Z" fill="#292832"/>
            </g>
          </g>
          <g>
            <path d="m79.941,71.007c.126.247.391,1.425.435,1.736.111.779-.033,1.359-.56,1.797-.413.344-1.16.345-1.597-.028-.369-.315-.753-.556-1.119-.521-.376.036-.732.354-.984.623-.616.658-1.307.817-1.985.641-.693-.219-1.177-.995-1.602-1.382-.056-.051-.142-.041-.186.02-.455.635-1.428,1.813-1.566,1.923-.201.161-.394.324-.613.415-.61.253-1.275.154-1.777-.573-.109-.158-.194-.332-.262-.512-.391-1.032-.966-1.101-1.76-.231-.097.107-.639.558-.846.636-.985.371-1.594.236-2.206-.632-.224-.317-.408-.754-.695-.864s-.677.107-1.02.16c-1.374.212-1.975-.099-2.448-1.387-.303-.786-.09-1.566.017-1.944.548-1.942,1.744-3.068,2.955-4.202.1-.094.639-.561,1.072-.608,0,0,.048.076.069.123.143.313.216.503.354.826.049.116.077.201.077.201-1.685.973-2.836,2.458-3.318,4.346-.064.25-.024.511.072.763.256.671.585.797,1.168.374.668-.484,1.129-1.158,1.594-1.829.256-.369.419-.827.88-1.183.094-.073.227.016.2.132-.251,1.061-.135,2.025-.162,2.984-.01.333.002.659.155.975.292.6.487.656.982.223.82-.718,1.414-1.599,1.895-2.572.14-.283.201-.654.538-.856.08-.048.182.002.194.095.074.575.105.918.272,1.626.266.979.513,1.525,1.055,2.151.304.351.562.349.925.028.75-.661,1.18-1.505,1.529-2.408.124-.322.18-.688.606-.927.074-.042.169.005.185.089.208,1.129,1.219,1.607,1.808,2.418.328.452.939.334,1.155-.185.228-.547.318-1.107.186-1.728-.136-.638-.434-1.276-.327-1.96.013-.081.096-.133.173-.103.18.071.215.232.295.351.644.948,1.409,1.798,2.166,2.653.228.257.482.714.892.475.419-.244.194-.726.143-1.113-.014-.107-.086-.205-.112-.312-.394-1.66-1.422-2.949-2.466-4.229-.016-.02-.27-.263-.256-.284.23-.37.284-.476.474-.829.033-.061.062-.041.13-.027.252.051.444.208.595.415.977,1.335,2.485,3.96,2.624,4.23Z" fill="#313034"/>
            <path d="m76.139,67.19c1.053,1.289,2.535,3.001,2.814,4.853.051.387.276.869-.143,1.113-.41.239-.664-.218-.892-.475-.757-.854-1.522-1.705-2.166-2.653l-.003-.004c-.151-.225-.498-.105-.485.165.027.534.238,1.043.347,1.552.133.621.042,1.181-.186,1.728-.216.519-.747.602-1.127.307-.738-.571-1.48-1.337-1.776-2.299-.068-.221-.35-.297-.506-.125-.197.218-.252.482-.344.722-.349.903-.779,1.746-1.529,2.408-.364.321-.621.323-.925-.028-.542-.626-.802-1.053-1.03-1.844-.147-.51-.222-1.05-.277-1.576-.023-.217-.299-.299-.434-.127-.156.2-.216.454-.318.66-.48.973-1.075,1.725-1.895,2.443-.495.433-.69.376-.982-.223-.154-.316-.299-.947-.29-1.28.027-.922.055-1.545.269-2.558.035-.164-.161-.271-.285-.159-.377.34-.533.751-.767,1.088-.466.671-.926,1.345-1.594,1.829-.583.423-1.053.256-1.303-.332-.096-.252-.001-.555.062-.805.49-1.916,1.59-3.373,3.318-4.346,1.005,1.384,2.316,2.34,3.97,2.793,2.915.798,5.518.3,7.71-1.884.281-.28.543-.63.765-.944Z" fill="#444b55"/>
          </g>
          <path d="m45.93,54.084c.252.749.485,1.504.752,2.341.013.04.065.048.089.014.414-.588,1.042-6.063,1.504-6.594.029-.033.083-.017.088.026.296,2.637-.576,11.689-.692,14.1-.081,1.678-.308,3.35-.378,5.029-.068,1.651.015,3.308-.03,4.961-.08,2.987.472,5.861,1.562,8.621.781,1.978,1.84,3.809,3.266,5.416,1.72,1.937,3.892,3.13,6.298,3.986,2.614.93,5.314,1.471,8.05,1.837,1.239.166,2.502.242,3.751.217,1.03-.02,2.054-.267,3.084-.382,2.829-.318,5.57-.992,8.218-2.03,3.459-1.356,5.976-3.72,7.676-7.033,1.743-3.396,2.497-7.008,2.562-10.777.032-1.861-.086-3.727-.199-5.587-.113-1.857-.258-3.715-.473-5.562-.238-2.047.12-6.16.208-6.137.942.238.83-.494,1.147-1.432.274-.809,1.11-2.343,1.659-2.947.324-.356.661-.712.806-.823.452-.344.912-.696,1.419-.942.407-.198.878-.263,1.355.154.031.027.014.079-.027.086-1.242.198-2.203.898-2.859,1.772-1.05,1.397-1.447,3.059-1.927,4.718-.099.343-.15.7-.219,1.052-.007.034.023.065.057.059.401-.065.659-.246.921-.42.885-.586,1.902-.566,2.658.084.033.028.014.083-.029.087-.203.017-.376.034-.549.041-1.851.079-3.326,1.656-3.27,3.508.03.978.144,1.955.247,2.93.066.62.183,1.235.282,1.875.003.021.021.039.042.042,1.056.171,1.804-.362,2.499-.974,1.583-1.394,2.55-3.192,3.178-5.164,1.069-3.362,1.752-6.789,1.29-10.341-.123-.949-.313-1.911-.635-2.808-.566-1.579-1.933-2.517-3.476-2.458-.106.004-.96.013-1.068.027-.034.004-.481-.07-.474-.103.089-.443.181-.888.321-1.38.006-.021.445.008.468.008.082-.001.909-.002.989,0,2.518.037,4.052,1.365,4.879,3.786.411,1.202.629,2.512.69,3.784.152,3.154-.29,6.251-1.266,9.241-.455,1.394-1.051,2.739-1.79,4.006-1.47,2.522-2.694,3.346-5.278,3.843-.023.004-.041.025-.041.049,0,2.068.02,4.134-.004,6.198-.062,5.321-1.485,10.22-4.832,14.412-.794.995-1.088,1.921-1.002,3.115.17,2.336.283,4.676.417,6.981.001.022.017.041.039.046,2.266.499,4.595,1.045,6.806,1.562.023.005.039.026.039.05-.008.654-.169,1.199-.345,1.877-.007.025-.032.042-.058.037-2.101-.379-4.205-.883-6.268-1.153-.031-.004-.059.022-.056.054.207,2.78.144,5.006-.192,5.824-.017.041-.075.04-.092-.001-.113-.274-.216-.495-.285-.727-.772-2.619-1.071-5.317-1.275-8.023-.144-1.925-.175-3.859-.25-5.877-.01-.405-.026-.73-.047-1.155-.002-.035-.039-.058-.071-.043-.321.145-.529.233-.732.333-1.09.542-2.158,1.133-3.271,1.624-3.112,1.374-6.444,1.868-9.777,2.328-.847.117-1.712.229-2.561.186-1.46-.073-2.927-.189-4.368-.429-3.718-.619-7.372-1.478-10.749-3.43-.377-.207-.693-.383-1.131-.626-.032-.018-.072.004-.075.04-.156,2.375-.359,4.586-.426,6.802-.072,2.407-.383,4.772-.913,7.114-.124.549-.287,1.089-.44,1.632l-.364-.038c-.131-1.816.049-3.653-.083-5.517-.002-.028-.028-.049-.056-.046-.244.022-.407.026-.564.058-1.909.38-3.817.765-5.725,1.149-.028.006-.055-.014-.059-.042-.083-.61-.261-1.228-.342-1.92-.003-.023.011-.046.033-.054.877-.316,1.841-.567,2.725-.76.943-.206,1.904-.329,2.848-.528.44-.093.862-.274,1.245-.402.014-.005.024-.015.03-.029.052-.127.094-.188.096-.251.09-2.687.172-5.374.264-8.061.015-.451-.092-.815-.411-1.17-2.307-2.565-3.743-5.586-4.548-8.916-.396-1.635-.699-3.285-.688-4.987.008-1.286-.16-2.572-.169-3.858-.007-.926.125-1.853.179-2.781.011-.184-.031-.37-.045-.456-.003-.017-.015-.031-.031-.038-.988-.383-1.908-.652-2.741-1.087-1.286-.672-2.071-1.875-2.77-3.085-1.251-2.164-1.92-4.538-2.408-6.982-.44-2.203-.42-4.417-.418-6.639.002-1.425.334-2.766.97-4.037.948-1.894,2.484-2.881,4.649-3.084.454-.043,2.113-.012,2.372-.004.024,0,.044.02.047.044.067.498.168.782.234,1.339.004.03-.02.057-.05.057-.25-.005-1.768-.023-2.137.006-2.077.163-3.335,1.214-3.883,2.703-.423,1.149-.736,2.33-.681,3.571.057,1.288.123,2.576.206,3.862.132,2.056.662,4.027,1.336,5.962.674,1.936,1.714,3.635,3.307,4.955.618.512,1.246,1.063,2.18.74.018-.006.032-.024.034-.043.164-1.488.293-2.937.492-4.375.175-1.266-.311-2.208-1.207-3.051-.559-.525-1.166-.809-1.919-.827-.163-.004-.325-.033-.535-.062-.044-.006-.059-.063-.023-.09,1.076-.805,1.627-.697,3.593.646.038.026.088-.008.077-.052-.467-1.907-.791-3.804-1.77-5.403-.262-.428-.463-.69-.993-1.126-.721-.678-1.218-.975-1.927-1.262-.15-.061-.126-.283.034-.309.245-.038.486-.046.718-.007.775.129,2.222,1.097,2.663,1.751.286.424.633,1.483.8,1.98Z" fill="#40221a"/>
          <path d="m92.021,49.322c-.065.229-.393.225-.453-.006-.052-.2-.098-.402-.125-.606-.304-2.314-.669-4.626-.837-6.951-.093-1.29-.285-2.58-.263-3.878.034-1.985-.271-3.954-.269-5.942,0-.799.141-1.295-.167-2.461-.399-1.416-.85-1.657-1.537-2.414-.494-.544-1.41-.774-2.045-.846-.412-.047-.88.031-1.266.191-1.649.681-3.431.771-5.13,1.219-2.238.589-4.536.661-6.817.914-2.312.257-4.62.231-6.918.131-2.578-.113-5.15-.455-7.697-.913-1.696-.305-3.401-.557-5.08-.959-.818-.196-2.169.008-2.746.521-.647.576-1.381,1.569-1.559,2.765-.376,1.581-.596,3.195-.593,4.805.004,2.241-.102,4.476-.294,6.698-.188,2.178-.397,4.363-.789,6.522-.033.184-.042.372-.04.563.003.266-.393.299-.422.035-.003-.032-.52,7.765-.348,8.404.03.111.184.122.229.016.184-.431.239-.796.324-1.155.201-.847,1.165-5.798,1.4-7.436.281-1.96.57-3.918.791-5.887.374-3.336.545-6.681.668-10.033.056-1.518.82-2.816,1.812-3.966.463-.537,1.038-.429,1.603-.324,1.168.218,2.326.493,3.495.703,2.552.458,5.119.793,7.705,1.027,2.239.203,4.475.235,6.706.139,3.676-.158,7.317-.652,10.896-1.543,1.188-.296,2.369-.617,3.56-.896.716-.168,1.243.237,1.682.722.702.777,1.049,1.726,1.074,2.76.047,1.913.133,3.822.237,5.732.14,2.556.361,5.102.619,7.649.218,2.154.535,4.289.91,6.418.162.92.385,1.83.6,2.74.191.809.251,2.736.377,3.039.002.004.101.27.102.274.164.399.75.319.792-.11.068-.688.097-2.571.134-2.857.219-1.658-.078-5.67-.323-4.804Z" fill="#2c2d32"/>
          <path d="m46.614,55.363s-1.715-10.271-1.32-17.64c.319-5.939,2.611-11.949,6.49-16.002,8.19-8.557,19.774-6.306,23.114-5.746s11.837,1.726,17.372,13.289c5.535,11.564-.155,27.263-.155,27.263,0,0-1.033-4.245-.529-5.78s3.977-13.146-1.541-23.46c-6.252-11.686-25.839-11.205-32.494-8.044-6.655,3.162-10.402,10.747-10.96,19.992-.21,3.477,0,2.883.181,5.768.075,1.196.299,3.392.214,4.408-.118,1.407-.373,5.952-.373,5.952Z" fill="#2c2d32"/>
        </g>
      </g>
    </g>
  </g>
</svg>