<?xml version="1.0" encoding="utf-8"?>
<!-- Generator: Adobe Illustrator 27.3.1, SVG Export Plug-In . SVG Version: 6.00 Build 0)  -->
<svg version="1.1" id="Layer_1" xmlns="http://www.w3.org/2000/svg" xmlns:xlink="http://www.w3.org/1999/xlink" x="0px" y="0px"
	 viewBox="0 0 1072.397 1072.397" enable-background="new 0 0 1072.397 1072.397" xml:space="preserve">
<g>
	
		<ellipse id="Ellipse_891_00000004532357259094758420000006261150281731984795_" opacity="0.5" fill="#f2f2f2" enable-background="new    " cx="536.198" cy="536.198" rx="536.198" ry="536.198"/>
	<g>
		<defs>
			
				<ellipse id="Ellipse_891_00000045598383356523208620000010097061802803324559_" cx="536.198" cy="536.198" rx="536.198" ry="536.198"/>
		</defs>
		<clipPath id="Ellipse_891_00000029021808319567297420000009603632772203305119_">
			<use xlink:href="#Ellipse_891_00000045598383356523208620000010097061802803324559_"  overflow="visible"/>
		</clipPath>
		<g clip-path="url(#Ellipse_891_00000029021808319567297420000009603632772203305119_)">
			<polygon fill="#6E4539" points="385.315,386.198 337.346,386.198 312.736,390.684 295.634,416.897 297.302,455.493 
				301.473,496.319 314.404,529.689 326.918,548.459 344.854,561.39 374.887,564.443 380.31,450.132 			"/>
			<path fill="#6F4539" d="M663.445,757.221c0.627,14.901,0.813,31.33,1.929,46.195c1.568,20.895,3.884,41.727,9.841,61.946
				c0.595,2.019,1.537,3.936,2.534,6.442c2.943-5.569,3.54-23.564,1.822-46.26c16.212,2.088,31.845,5.998,48.186,9.602
				c-1.883,18.858-7.382,36.872-14.745,54.22c-4.416,10.403-9.756,20.543-15.783,30.108c-15.061,23.903-35.631,42.27-59.92,56.448
				c-23.763,13.87-49.433,21.606-76.847,24.689c-44.373,4.991-86.224-2.374-124.966-24.488
				c-28.938-16.518-52.102-39.227-67.809-69.049c-11.068-21.014-18.494-43.234-22.756-66.558c-0.248-1.356-0.751-2.665-1.155-4.664
				c14.848-3.658,29.713-6.657,44.585-9.62c1.297-0.258,2.642-0.276,4.756-0.482c1.13,15.263-0.506,30.296,0.845,45.145
				c0.686,0.07,1.373,0.141,2.059,0.211c1.337-4.888,2.859-9.734,3.977-14.671c4.094-18.078,6.494-36.34,7.053-54.925
				c0.52-17.293,2.118-34.554,3.326-53.123c3.661,2.034,6.207,2.449,9.285,4.76c1.141,2.956,1.366,6.247,2.438,8.029
				c2.272,3.774,5.118,7.197,7.494,10.914c6.606,10.335,14.766,19.081,25.387,25.375c7.826,4.638,15.672,9.242,23.515,13.851
				c10.032,5.895,20.093,11.649,32.409,10.774c1.585-0.112,3.223,0.639,4.847,0.933c7.311,1.326,14.702,4.021,21.921,3.622
				c11.189-0.619,22.507-2.46,33.317-5.432c11.861-3.261,24.013-6.788,32.715-16.726c1.173-1.34,3.21-2.072,4.982-2.712
				c11.185-4.039,19.983-11.595,28.551-19.424c2.194-2.004,4.06-4.562,5.471-7.191c3.983-7.421,11.693-10.694,17.454-16.116
				C660.788,758.453,662.345,757.306,663.445,757.221z"/>
			<path fill="#40221A" d="M357.113,463.886c1.996,5.93,9.908,17.94,13.703,18.683c2.459,19.665-1.695,38.24-2.597,57.015
				c-0.623,12.959-2.381,25.866-2.917,38.826c-0.527,12.75,0.114,25.545-0.23,38.307c-0.621,23.063,3.648,45.25,12.06,66.564
				c6.026,15.269,14.21,29.413,25.219,41.815c13.279,14.959,30.049,24.169,48.626,30.775c20.182,7.177,41.032,11.36,62.154,14.186
				c9.566,1.28,19.315,1.867,28.959,1.676c7.953-0.157,15.859-2.059,23.813-2.952c21.844-2.452,43.007-7.657,63.455-15.67
				c26.71-10.466,46.14-28.719,59.267-54.3c13.455-26.218,19.283-54.106,19.784-83.208c0.247-14.368-0.661-28.777-1.533-43.139
				c-0.871-14.338-1.996-28.68-3.654-42.945c-1.852-15.932-3.593-31.796-0.845-47.778c11.815-24.956,27.934-37.939,30.344-39.772
				c3.49-2.654,7.045-5.375,10.957-7.274c3.308-1.606,7.163-2.081,11.047,1.733c-10.045,1.338-16.471,7.041-21.68,13.97
				c-8.109,10.786-12.368,23.442-16.071,36.256c-0.816,2.823-1.21,5.767-1.798,8.656c3.41-0.415,5.513-1.899,7.659-3.319
				c7.093-4.696,15.288-4.348,21.185,1.248c-2.119,0.165-3.793,0.352-5.508,0.406c-14.086,0.443-25.268,12.602-24.882,26.69
				c0.211,7.68,1.106,15.35,1.916,23.001c0.516,4.879,1.448,9.714,2.222,14.754c8.303,1.463,14.145-2.694,19.572-7.472
				c12.223-10.761,19.691-24.643,24.535-39.87c8.257-25.955,13.525-52.419,9.962-79.843c-0.952-7.328-2.42-14.752-4.907-21.682
				c-4.429-12.346-15.196-19.619-27.291-18.955c-0.845,0.046-6.22,0.165-7.077,0.29c0.74-3.678,1.48-7.356,2.668-11.458
				c0.976-0.022,6.457-0.053,7.396-0.027c19.022,0.526,30.653,10.757,36.96,29.214c3.172,9.283,4.854,19.392,5.329,29.218
				c1.225,25.341-2.525,50.205-10.716,74.161c-3.116,9.115-7.091,17.922-11.836,26.306c-11.887,21.001-21.333,27.603-42.11,31.55
				c0,16.076,0.157,32.128-0.031,48.175c-0.481,41.085-11.467,78.91-37.311,111.279c-6.131,7.679-8.404,14.829-7.733,24.054
				c1.318,18.134,2.192,36.301,3.235,54.193c17.705,3.897,34.379,7.568,51.646,11.612c-0.042,5.28-0.679,10.185-2.13,15.667
				c-16.515-2.961-32.148-6.87-48.361-8.958c1.718,22.696,1.121,40.691-1.822,46.26c-0.996-2.506-1.939-4.423-2.534-6.442
				c-5.957-20.219-8.272-41.052-9.841-61.946c-1.116-14.864-1.348-29.795-1.929-45.377c-0.084-3.304-0.214-5.926-0.39-9.488
				c-2.775,1.259-4.5,1.979-6.171,2.81c-8.415,4.185-16.664,8.745-25.252,12.536c-24.032,10.609-49.752,14.423-75.487,17.976
				c-6.543,0.903-13.221,1.765-19.777,1.437c-11.274-0.563-22.603-1.458-33.726-3.31c-28.708-4.782-56.918-11.408-82.997-26.481
				c-3.062-1.683-5.608-3.097-9.269-5.132c-1.208,18.569-2.806,35.83-3.326,53.123c-0.559,18.585-2.959,36.847-7.053,54.925
				c-1.118,4.937-2.64,9.783-3.977,14.671c-1.163-0.107-0.894-0.082-2.057-0.19c-1.355-14.856,0.283-29.896-0.847-45.166
				c-2.114,0.207-3.459,0.224-4.756,0.482c-14.872,2.963-29.737,5.962-44.604,8.952c-0.669-4.932-1.338-9.864-1.994-15.486
				c6.869-2.489,13.675-4.512,20.593-6.024c7.28-1.591,14.699-2.542,21.993-4.077c3.461-0.728,6.772-2.166,9.772-3.157
				c0.432-1.091,0.793-1.594,0.811-2.108c0.692-20.745,1.33-41.492,2.04-62.237c0.119-3.48-0.711-6.29-3.176-9.031
				c-17.809-19.803-28.897-43.132-35.115-68.841c-3.054-12.628-5.397-25.361-5.311-38.505c0.065-9.927-1.233-19.858-1.306-29.791
				c-0.053-7.152,0.964-14.308,1.382-21.469c0.093-1.593-0.322-3.216-0.38-3.733c-7.709-2.997-14.884-5.084-21.377-8.475
				c-9.93-5.187-15.987-14.477-21.385-23.816c-9.658-16.708-14.826-35.036-18.594-53.91c-3.395-17.008-3.244-34.104-3.224-51.26
				c0.013-11.003,2.577-21.356,7.49-31.171c7.222-14.426,18.796-23.094,35.214-23.786c1.3-0.055,19.422,0.187,20.783,0.233
				c0.537,4.182,1.379,6.39,1.899,11.114c-1.339-0.017-19.427-0.222-20.681-0.125c-14.722,1.13-23.678,9.817-27.702,20.755
				c-3.262,8.868-5.682,17.987-5.259,27.573c0.439,9.944,0.949,19.887,1.587,29.82c1.019,15.877,5.109,31.091,10.316,46.034
				c5.207,14.944,13.234,28.065,25.532,38.258c4.822,3.997,9.728,8.298,17.073,5.631c1.277-11.577,2.282-22.841,3.826-34.03
				c1.349-9.776-2.401-17.052-9.322-23.557c-4.312-4.054-9.055-6.825-14.87-6.966c-1.056-0.026-2.083,0.105-3.343,0.09
				c-0.581-0.007-0.814-0.762-0.344-1.103c8.086-5.856,12.506-4.682,28.004,5.981c-3.739-15.052-6.249-30.061-13.973-42.68
				c-2.024-3.307-2.601-4.636-6.054-8.606c-5.294-5.581-11.208-7.826-15.7-9.574c-1.393-0.542-1.133-2.588,0.351-2.766
				c1.613-0.194,3.195-0.201,4.733,0.056c5.983,0.999,15.59,5.001,20.557,13.522C350.592,451.376,355.821,460.048,357.113,463.886z"
				/>
			<path fill="#6E4539" d="M703.175,529.542c1.658,14.265,2.784,28.607,3.654,42.945c0.872,14.361,1.781,28.77,1.533,43.138
				c-0.501,29.103-6.329,56.991-19.784,83.208c-13.128,25.581-32.558,43.833-59.267,54.3c-20.448,8.013-41.611,13.218-63.455,15.67
				c-7.953,0.893-15.86,2.794-23.813,2.952c-9.644,0.191-19.393-0.397-28.959-1.676c-21.122-2.825-41.972-7.009-62.154-14.186
				c-18.577-6.606-35.347-15.816-48.626-30.775c-11.008-12.402-19.192-26.545-25.219-41.815
				c-8.412-21.314-12.681-43.501-12.06-66.564c0.344-12.762-0.297-25.557,0.23-38.307c0.536-12.96,2.294-25.867,2.917-38.826
				c0.902-18.776,4.056-37.35,2.277-57.06c4.113-8.966,2.658-17.702,2.666-26.165c0.012-11.905-1.245-23.816-1.117-35.716
				c0.244-22.732,0.352-45.507,1.884-68.172c1.473-21.789,3.563-43.628,9.465-64.834c0.806-2.895,20.548-35.485,21.708-39.296
				c17.471,5.916,182.606,23.124,264.418-8.877c0.734-0.287,23.613,26.785,25.546,26.443c0.932,5.967,6.29,41.524,6.542,47.416
				c1.289,30.18,2.725,60.366,3.18,90.564c0.3,19.943,8.287,42.535,7.65,62.49c-0.176,5.522-9.97,11.33-10.228,17.566
				C702.162,483.966,701.323,513.611,703.175,529.542z M572.879,365.309c35.21-7.683,68.768-4.894,100.493,17.508
				c-0.795-10.58-1.356-19.317-2.195-28.027c-0.15-1.558-1.377-3.092-2.311-4.477c-5.231-7.759-12.03-14.351-20.236-18.849
				c-28.277-15.497-57.42-15.852-87.166-5.724c-5.377,1.831-7.131,5.26-5.603,12.95c1.654,8.326,1.23,16.838-0.567,25.134
				c-0.436,2.012,0.264,3.773,0.737,6.446C561.558,368.601,566.543,367.095,572.879,365.309 M424.108,331.733
				c-5.501,4.617-11.461,8.795-16.396,13.954c-7.63,7.976-10.095,24.957-5.938,35.653c36.329-24.54,75.198-24.35,115.593-11.049
				c0.421-2.292,1.003-3.683,0.736-5.19c-1.894-10.69-1.999-21.566-1.243-32.396c0.295-4.23-1.801-6.074-4.897-6.797
				c-9.142-2.137-18.26-4.565-27.526-5.947C463.48,316.837,443.645,320.635,424.108,331.733 M581.865,666.057
				c5.78-9.629,7.081-11.97,5.948-15.344c-0.507-1.511-2.539-1.763-3.381-0.41l-0.017,0.027
				c-4.939,7.974-11.449,14.185-20.092,18.024c-6.178,2.745-12.629,3.879-19.399,3.733c-2.082-0.045-4.654-0.985-6.601,0.977
				c-0.456,0.46-0.279,1.252,0.33,1.475C554.446,680.318,568.959,680.798,581.865,666.057"/>
			<path fill="#6A4136" d="M733.278,388.915c16.439-2.146,28.914,7.098,33.652,20.307c2.486,6.93,3.955,14.354,4.907,21.682
				c3.563,27.424-1.705,53.889-9.962,79.843c-4.844,15.226-12.312,29.109-24.535,39.87c-5.427,4.778-11.269,8.935-19.572,7.472
				c-0.774-5.04-1.705-9.875-2.222-14.754c-0.813-7.685-1.713-15.391-1.919-23.105c-0.37-13.907,11.367-26.007,25.267-26.599
				c1.584-0.068,3.164-0.239,5.126-0.392c-5.897-5.596-14.092-5.944-21.185-1.248c-2.146,1.42-4.249,2.904-7.659,3.319
				c0.588-2.888,0.983-5.833,1.798-8.656c3.703-12.814,7.962-25.47,16.071-36.256c5.209-6.928,11.635-12.632,21.68-13.97
				c-3.884-3.813-7.739-3.338-11.047-1.733c-3.912,1.899-7.467,4.621-10.957,7.274c-6.478,3.321-15.193,17.505-17.916,19.845
				C718.242,443.107,729.228,408.531,733.278,388.915z"/>
			<path fill="#633B30" d="M663.445,758.039c-1.697,0.979-2.641,0.586-4.853,2.396c-5.585,4.569-12.253,7.959-15.884,14.724
				c-1.411,2.629-3.277,5.187-5.471,7.191c-8.568,7.829-16.477,13.815-26.066,20.848c-11.625,8.526-28.322,14.754-40.183,18.014
				c-10.81,2.972-22.128,4.813-33.317,5.432c-7.219,0.399-14.61-2.296-21.921-3.622c-23.231,0.75-27.224-5.812-37.256-11.707
				c-7.843-4.609-15.689-9.213-23.515-13.851c-10.621-6.294-18.781-15.039-25.387-25.375c-2.376-3.717-17.525-11.441-19.797-15.214
				c0,0,0.532-5.832,0.58-8.488c25.547,14.177,63.558,26.831,92.266,31.613c11.123,1.853,22.452,2.747,33.726,3.31
				c6.556,0.328,13.234-0.534,19.777-1.437c25.735-3.553,51.456-7.367,75.487-17.976c8.588-3.791,16.836-8.351,25.252-12.536
				c1.671-0.831,3.396-1.551,6.171-2.81C663.231,752.112,663.361,754.735,663.445,758.039z"/>
			<g>
				<path fill="#B4433D" d="M235.378,1962.89c-5.125-1.449-10.251-2.898-16.019-4.302c-23.268-6.922-45.893-13.948-68.48-24.02
					c-0.667-0.297-1.051-1.015-0.934-1.735c1.365-8.358,2.733-16.594,4.044-24.84c4.344-27.321,9.128-54.582,12.865-81.986
					c3.772-27.661,6.651-55.447,9.607-83.212c1.201-11.276,1.733-22.632,2.288-33.965c1.138-23.221,2.559-46.443,2.986-69.681
					c0.474-25.798,0.058-51.615-0.162-77.422c-0.066-7.734-0.771-15.463-1.254-24.743c-0.257-17.01-0.445-32.477-0.539-48.656
					c0-0.049-0.003-0.099-0.007-0.148c-0.32-3.672-1.025-6.635-1.085-9.612c-0.674-33.347-1.244-66.695-1.856-100.043
					c-0.03-1.653-0.192-3.304-0.208-5.707c-0.555-15.647-1.189-30.585-1.824-45.486c-0.033-0.768-0.613-1.406-1.374-1.519
					c-12.538-1.855-24.396-3.469-36.197-5.419c-34.548-5.708-67.725-15.83-99.269-31.161c-3.431-1.667-7.109-2.827-11.01-4.665
					c-0.04-0.019-0.081-0.04-0.119-0.062c-4.015-2.279-7.7-4.118-11.382-5.953c-0.066-0.033-0.13-0.071-0.191-0.112
					c-16.41-11.266-32.844-22.495-49.206-33.83c-2.636-1.826-5.03-4.003-7.759-6.286c-0.564-0.472-0.744-1.266-0.423-1.928
					c0.901-1.858,1.7-3.724,2.853-5.336c24.774-34.623,41.034-73.436,55.457-113.104c16.57-45.573,32.484-91.386,49.314-136.861
					c8.183-22.111,18.245-43.502,31.726-62.999c20.356-29.439,47.206-49.722,82.901-56.719c12.219-2.395,24.607-3.913,37.099-1.402
					c7.625,1.533,14.235-0.343,21.249-4.177c22.439-12.267,46.348-21.226,70.851-28.499c9.82-2.915,19.789-5.33,30.254-7.327
					c0.851-0.162,1.692,0.386,1.876,1.233c1.083,4.994,1.692,9.513,2.315,14.574c0.006,0.047,0.014,0.097,0.023,0.144
					c0.401,1.958,0.895,3.252,1.14,4.592c4.262,23.324,11.688,45.544,22.756,66.558c15.707,29.821,38.871,52.531,67.809,69.049
					c38.742,22.114,80.593,29.48,124.966,24.488c27.414-3.084,53.084-10.82,76.847-24.689c24.29-14.177,44.859-32.545,59.92-56.448
					c6.026-9.564,11.367-19.704,15.783-30.108c7.363-17.348,12.862-35.362,15.56-54.796c0.716-4.895,1.295-9.288,1.858-13.623
					c0.121-0.934,1.019-1.566,1.939-1.364c36.142,7.951,71,19.651,103.684,37.145c6.705,3.589,13.025,4.193,19.927,3.223
					c22.667-3.185,44.136,1.057,64.683,10.491c29.175,13.396,49.485,35.924,64.831,63.537
					c15.693,28.235,27.129,58.293,37.988,88.573c13.475,37.575,26.242,75.406,39.856,112.93c9.952,27.429,22.97,53.504,37.439,78.83
					c2.744,4.803,6.175,9.212,9.227,13.843c1.708,2.592,3.327,5.242,5.104,8.089c0.429,0.687,0.283,1.593-0.345,2.104
					c-18.011,14.655-36.387,27.659-56.83,39.523c-4.355,2.232-7.732,4.001-11.651,5.974
					c-46.118,24.258-95.173,36.329-146.131,41.713c-0.687,0.073-1.258,0.576-1.402,1.251c-3.295,15.423-1.294,30.366-1.859,45.927
					c-0.568,12.364-1.281,23.942-1.571,35.532c-0.67,26.816-1.136,53.636-1.722,81.228c-0.524,10.98-1.043,21.186-1.469,31.396
					c-0.092,2.198,0.212,4.41,0.229,6.616c0.024,3.234-0.047,6.469-0.078,9.703c-5.867,132.901,5.686,264.434,31.27,395.282
					c0.142,0.725-0.229,1.456-0.9,1.766c-21.93,10.144-44.79,17.108-68.192,24.291c-0.033,0.01-0.068,0.02-0.102,0.028
					c-5.398,1.277-10.207,2.429-16.201,4.018c-3.657,0.846-6.165,1.075-8.577,1.685c-54.952,13.876-110.693,23.111-167.149,27.827
					c-29.832,2.492-59.708,4.986-89.613,5.909c-27.438,0.846-54.941-0.366-82.414-0.765c-37.755-0.547-75.362-3.433-112.736-8.634
					c-29.905-4.162-59.719-9.064-89.454-14.313C270.48,1971.174,252.981,1966.739,235.378,1962.89 M171.684,1188.699
					c-0.008-4.443,0.073-8.889-0.039-13.33c-0.406-16.067-0.993-32.132-1.21-48.201c-0.032-2.347,1.089-4.71,1.887-7.069
					c0.208-0.616,0.782-1.034,1.431-1.067c0.007,0,0.015-0.001,0.022-0.001c0.641-0.033,1.228,0.326,1.521,0.897
					c1.154,2.242,2.634,4.44,2.952,6.795c1.926,14.247,3.842,28.514,5.057,42.833c1.497,17.649,2.496,35.347,3.349,53.042
					c0.814,16.886,1.34,33.791,1.68,50.694c0.724,36.062,1.26,72.128,1.838,108.193c0.125,7.776-0.083,15.56,0.196,23.329
					c0.288,8.018,0.932,16.026,1.513,24.031c1.039,14.327,2.364,28.636,3.166,42.976c0.805,14.383,1.145,28.793,1.637,43.193
					c0.624,18.283,1.741,36.569,1.677,54.85c-0.131,37.452-0.792,74.903-1.479,112.35c-0.249,13.553-1.108,27.098-1.857,40.638
					c-0.373,6.748-0.904,13.486-1.636,20.205c-2.054,18.857-4.238,37.701-6.433,56.542c-1.76,15.106-3.214,30.261-5.502,45.289
					c-3.745,24.596-7.962,49.124-12.235,73.636c-0.655,3.76,0.202,5.885,3.602,7.159c2.596,0.973,5.198,1.933,7.811,2.858
					c30.869,10.934,62.216,20.27,94.344,26.653c27.121,5.388,54.301,10.636,81.635,14.745c22.126,3.326,44.498,5.104,66.802,7.124
					c20.934,1.896,41.902,4.154,62.89,4.583c44.113,0.902,88.251,0.923,132.345-1.466c0.831-0.045,1.663-0.094,2.492-0.173
					c16.238-1.547,32.48-3.053,48.712-4.664c11.834-1.175,23.722-2.044,35.466-3.838c22.134-3.38,44.196-7.239,66.26-11.059
					c39.938-6.916,78.994-17.274,117.283-30.528c4.586-1.588,9.016-3.623,13.818-5.625c0.634-0.264,1.03-0.905,0.986-1.591
					c-0.186-2.91-0.246-5.589-0.677-8.206c-1.346-8.184-3.128-16.301-4.313-24.506c-4.108-28.455-8.283-56.904-11.955-85.417
					c-3.035-23.574-5.647-47.211-7.964-70.868c-1.564-15.967-2.498-32.004-3.329-48.031c-0.833-16.051-1.653-32.127-1.638-48.191
					c0.02-22.454,0.732-44.91,1.318-67.36c0.398-15.235,1.112-30.462,1.64-45.693c0.586-16.897,1.123-33.795,1.679-50.693
					c0.556-16.896,1.155-33.79,1.653-50.687c0.604-20.508,1.154-41.019,1.667-61.529c0.589-23.565,0.777-47.145,1.77-70.692
					c0.799-18.956-0.643-37.802,2.621-56.945c3.744-21.959,2.558-44.724,4.185-67.09c1.021-14.046,3.221-28.01,5.033-41.992
					c0.262-2.024,0.646-4.298,3.577-5.131c0.898-0.255,1.814,0.367,1.969,1.288c0.43,2.554,0.975,5.12,0.985,7.687
					c0.083,20.54-0.001,41.081-0.113,63.061c0,0.028-0.001,0.057-0.003,0.085c-2.3,38.191-3.557,76.403-3.193,114.435
					c0.007,0.685,0.451,1.29,1.099,1.514c6.27,2.165,11.582-0.027,16.898-0.757c6.793-0.933,13.535-2.234,21.644-3.402
					c20.162-3.885,39.956-9.099,59.326-15.968c33-11.702,62.802-29.179,90.808-49.925c4.262-3.157,4.197-3.989,1.417-8.962
					c-6.226-11.135-12.784-22.107-18.526-33.488c-14.264-28.272-25.619-57.762-36.106-87.621
					c-13.69-38.98-27.344-77.981-41.798-116.68c-8.541-22.868-18.738-45.088-32.865-65.249
					c-21.388-30.524-50.557-47.401-87.764-50.152c-2.152-0.159-4.349,0.281-6.937,0.684c-1.131,0.176-1.725,1.457-1.123,2.431
					c5.645,9.131,14.438,14.993,18.11,24.385c0.535,1.368-0.867,2.703-2.185,2.056c-8.383-4.112-14.759-11.072-22.588-15.815
					c-9.246-5.6-18.326-11.51-27.821-16.652c-9.249-5.008-18.755-9.641-28.472-13.655c-9.981-4.123-20.305-7.446-30.569-10.845
					c-9.309-3.083-18.721-5.852-27.382-8.513c-0.855-0.263-1.755,0.232-2.007,1.09c-5.199,17.747-9.522,34.685-15.278,51.123
					c-7.667,21.894-19.052,41.964-34.74,59.206c-19.255,21.163-41.824,37.776-68.168,49.45
					c-26.546,11.764-54.343,16.974-83.067,17.981c-16.375,0.574-32.561-1.676-48.657-4.707
					c-34.652-6.526-65.064-21.856-91.687-44.617c-30.47-26.05-49.578-59.321-59.972-97.776c-2.737-10.127-5.06-20.366-7.637-30.933
					c-0.203-0.832-1.029-1.362-1.87-1.198c-1.441,0.281-2.823,0.534-4.152,0.953c-13.223,4.165-26.524,8.111-39.617,12.657
					c-20.776,7.214-40.586,16.532-58.884,28.842c-10.346,6.96-20.576,14.091-30.86,21.141c-1.943,1.332-3.744,3.072-6.866,3.226
					c-1.199,0.059-2.062-1.173-1.563-2.265c4.757-10.416,15.131-15.744,20.758-24.589c0.393-0.619,0.302-1.452-0.226-1.961
					c-2.869-2.764-6.332-1.679-9.427-1.626c-2.458,0.042-4.888,1.035-7.358,1.212c-26.227,1.872-47.743,13.947-65.966,31.874
					c-11.473,11.286-20.323,24.824-27.683,39.279c-14.259,28.004-25.307,57.326-35.86,86.838
					c-12.138,33.947-23.615,68.132-35.919,102.017c-11.572,31.87-25.941,62.478-43.786,91.384c-0.932,1.51-1.653,3.149-2.532,4.989
					c-0.333,0.697-0.111,1.539,0.516,1.991c3.706,2.673,7.169,5.148,10.601,7.667c15.915,11.683,32.706,22.015,50.369,30.744
					c19.163,9.471,39.195,16.961,59.861,22.504c10.926,2.93,22.081,5.007,34.456,7.746c12.101,2.197,24.145,5.072,37.417,4.284
					c0.863-0.051,1.526-0.797,1.497-1.661C174.13,1267.095,172.857,1228.636,171.684,1188.699z"/>
				<path fill="#F87360" d="M135.197,1303.573c-11.052-2.462-22.206-4.539-33.132-7.469c-20.666-5.542-40.698-13.033-59.861-22.504
					c-17.663-8.729-34.455-19.06-50.369-30.744c-3.432-2.519-6.895-4.995-10.601-7.667c-0.627-0.452-0.849-1.294-0.516-1.991
					c0.879-1.84,1.6-3.479,2.532-4.989c17.844-28.907,32.214-59.514,43.786-91.384c12.304-33.885,23.78-68.071,35.919-102.017
					c10.553-29.512,21.6-58.833,35.86-86.838c7.36-14.454,16.211-27.993,27.683-39.279c18.223-17.926,39.739-30.001,65.966-31.874
					c2.47-0.176,4.9-1.17,7.358-1.212c3.095-0.053,6.558-1.138,9.427,1.626c0.528,0.509,0.62,1.342,0.226,1.961
					c-5.627,8.845-16.001,14.173-20.758,24.589c-0.499,1.092,0.364,2.325,1.563,2.265c3.123-0.155,4.924-1.894,6.866-3.226
					c10.284-7.051,20.515-14.181,30.86-21.141c18.298-12.31,38.108-21.628,58.884-28.842c13.092-4.546,26.393-8.493,39.617-12.657
					c1.329-0.419,2.711-0.671,4.152-0.953c0.841-0.164,1.667,0.366,1.87,1.198c2.577,10.567,4.899,20.806,7.637,30.933
					c10.395,38.455,29.503,71.726,59.972,97.776c26.623,22.761,57.035,38.091,91.687,44.617c16.096,3.031,32.282,5.282,48.657,4.707
					c28.725-1.007,56.522-6.217,83.067-17.981c26.344-11.674,48.913-28.287,68.168-49.45c15.688-17.242,27.073-37.312,34.74-59.206
					c5.756-16.437,10.079-33.376,15.278-51.123c0.251-0.858,1.152-1.352,2.007-1.09c8.661,2.661,18.073,5.43,27.382,8.513
					c10.265,3.399,20.588,6.722,30.569,10.845c9.717,4.014,19.223,8.647,28.472,13.655c9.495,5.142,18.575,11.052,27.821,16.652
					c7.829,4.743,14.205,11.702,22.588,15.815c1.319,0.647,2.72-0.688,2.185-2.056c-3.673-9.392-12.466-15.254-18.11-24.385
					c-0.602-0.974-0.008-2.254,1.123-2.431c2.589-0.403,4.785-0.843,6.937-0.684c37.207,2.751,66.376,19.627,87.764,50.152
					c14.127,20.161,24.324,42.381,32.865,65.249c14.453,38.699,28.108,77.7,41.798,116.68
					c10.487,29.859,21.842,59.349,36.106,87.621c5.742,11.381,12.3,22.352,18.526,33.488c2.78,4.973,2.845,5.804-1.417,8.962
					c-28.006,20.746-57.807,38.223-90.808,49.925c-48.586,18.292-94.83,23.863-97.059,20.335c-0.419-0.663-1.704-0.299-1.786-1.079
					c-1.827-17.307,0.3-24.922,0.239-48.885c-0.125-23.395,0.864-27.092,1.625-44.173c-0.084-18.221,1.301-27.446,1.312-35.086
					c0.033-22.298,0.092-29.745,0.01-50.078c-0.01-2.568-0.555-5.133-0.985-7.687c-0.155-0.921-1.071-1.543-1.969-1.288
					c-2.931,0.833-3.315,3.107-3.577,5.131c-1.812,13.982-4.011,27.946-5.033,41.992c-1.627,22.366-0.441,45.131-4.185,67.09
					c-3.264,19.143-1.822,37.989-2.621,56.945c-0.993,23.547-1.181,47.128-1.77,70.692c-0.513,20.511-1.064,41.021-1.667,61.529
					c-0.497,16.897-1.097,33.791-1.653,50.687c-0.556,16.898-1.093,33.796-1.679,50.693c-0.528,15.232-1.242,30.458-1.64,45.693
					c-0.586,22.451-1.297,44.906-1.318,67.36c-0.015,16.064,0.806,32.14,1.638,48.191c0.831,16.026,1.766,32.064,3.329,48.031
					c2.317,23.657,4.929,47.293,7.964,70.868c3.671,28.513,7.847,56.963,11.955,85.417c1.184,8.205,2.966,16.322,4.313,24.506
					c0.431,2.617,0.491,5.296,0.677,8.206c0.044,0.686-0.352,1.327-0.986,1.591c-4.801,2.002-9.232,4.038-13.818,5.625
					c-38.289,13.255-77.345,23.612-117.283,30.528c-22.064,3.821-44.127,7.68-66.26,11.059c-11.744,1.794-23.632,2.663-35.466,3.838
					c-16.232,1.611-32.474,3.118-48.712,4.664c-0.828,0.079-1.66,0.128-2.492,0.173c-44.093,2.39-88.231,2.368-132.345,1.466
					c-20.987-0.429-41.955-2.687-62.89-4.583c-22.303-2.02-44.676-3.799-66.802-7.124c-27.334-4.109-54.514-9.356-81.635-14.745
					c-32.127-6.383-63.474-15.719-94.344-26.653c-2.613-0.926-5.215-1.885-7.811-2.858c-3.4-1.274-4.258-3.398-3.602-7.159
					c4.273-24.512,8.489-49.039,12.235-73.636c2.288-15.027,3.742-30.183,5.502-45.289c2.195-18.842,4.379-37.685,6.433-56.542
					c0.732-6.718,1.263-13.457,1.636-20.205c0.749-13.54,1.608-27.084,1.857-40.638c0.687-37.447,1.348-74.898,1.479-112.35
					c0.064-18.281-1.053-36.568-1.677-54.85c-0.492-14.4-0.832-28.81-1.637-43.193c-0.802-14.34-2.127-28.649-3.166-42.976
					c-0.581-8.005-1.224-16.013-1.513-24.031c-0.279-7.769-0.071-15.553-0.196-23.329c-0.578-36.065-1.114-72.131-1.838-108.193
					c-0.34-16.903-0.866-33.808-1.68-50.694c-0.853-17.694-1.851-35.393-3.349-53.042c-1.215-14.32-3.131-28.586-5.057-42.833
					c-0.318-2.355-1.799-4.553-2.952-6.795c-0.294-0.571-0.88-0.93-1.521-0.897l-0.022,0.001c-0.649,0.033-1.222,0.452-1.431,1.067
					c-0.799,2.358-1.919,4.721-1.887,7.069c0.217,16.069,0.804,32.134,1.21,48.201c0.112,4.441,0.25,38.686,1.645,64.29
					c1.536,28.186,3.134,59.252,2.398,67.032c-0.074,0.785-0.701,1.392-1.488,1.448
					C170.013,1308.435,155.834,1308.871,135.197,1303.573z"/>
			</g>
			<path fill="#0D0A08" d="M572.25,365.427c-5.66,1.646-10.645,3.152-16.172,4.822c-0.37-2.09-0.879-3.622-0.875-5.153
				c0.027-10.273,0.353-20.55,0.178-30.818c-0.08-4.698,1.908-7.121,6.13-8.559c29.138-9.921,57.697-9.784,85.431,4.793
				c9.008,4.734,16.311,11.448,22.025,19.861c0.927,1.364,2.109,2.868,2.256,4.396c0.839,8.71,1.4,17.447,2.195,28.027
				C641.694,360.393,608.136,357.604,572.25,365.427 M653.345,341.215c-7.233-3.37-14.23-7.452-21.751-9.956
				c-13.804-4.597-28.275-5.212-42.651-3.982c-7.062,0.605-14.008,2.881-20.914,4.744c-1.6,0.431-3.918,2.167-4.035,3.47
				c-0.679,7.557-1.037,15.179,0.178,23.672c18.075-4.455,35.273-6.57,52.708-5.386c17.61,1.195,33.262,8.805,49.258,16.713
				c1.722-9.728,1.619-17.628-6.456-23.358C657.672,345.706,656.073,343.703,653.345,341.215z"/>
			<path fill="#0D0A08" d="M424.674,331.387c19.018-10.773,38.853-14.572,59.81-11.448c9.267,1.381,18.384,3.81,27.526,5.947
				c2.83,0.662,4.826,2.26,4.921,5.763c0.308,11.354,0.89,22.7,1.283,34.051c0.045,1.288-0.438,2.594-0.801,4.57
				c-40.394-13.301-79.264-13.491-115.593,11.049c-4.157-10.696-1.692-27.677,5.938-35.653
				C412.694,340.507,418.654,336.329,424.674,331.387 M412.665,347.061c-7.207,6.517-9.079,14.434-6.529,24.242
				c1.947-1.005,3.429-1.645,4.784-2.49c13.875-8.66,29.133-13.572,45.262-14.885c14.893-1.213,29.843-0.447,44.465,3.441
				c2.737,0.728,5.648,0.804,9.497,1.317c0-6.365,0.028-11.572-0.006-16.778c-0.059-8.835-0.339-9.089-8.632-11.369
				c-17.41-4.785-35.055-5.002-52.556-1.433C435.881,331.771,423.495,336.695,412.665,347.061z"/>
			<path fill="#42231B" d="M581.51,666.49c-12.627,14.427-27.282,13.797-43.244,7.869c-0.369-0.137-0.498-0.607-0.252-0.915
				c1.982-2.483,4.746-1.425,6.957-1.378c6.77,0.146,13.221-0.988,19.399-3.733c8.643-3.84,15.153-10.05,20.092-18.024l0.017-0.027
				c0.843-1.355,2.879-1.097,3.379,0.419C588.974,654.088,587.604,656.507,581.51,666.49z"/>
			<path fill="#090706" d="M685.156,213.741c-0.727-0.193-1.424-0.419-2.121-0.644c0.591-0.039,1.182-0.079,1.989,0.212
				C685.24,213.639,685.186,213.708,685.156,213.741z"/>
			<path fill="#262B31" d="M653.815,341.59c2.258,2.113,3.857,4.116,5.867,5.542c8.075,5.73,8.178,13.63,6.456,23.358
				c-15.996-7.908-31.648-15.517-49.258-16.713c-17.435-1.184-34.633,0.931-52.708,5.386c-1.215-8.493-0.857-16.115-0.178-23.672
				c0.117-1.303,2.436-3.039,4.035-3.47c6.906-1.863,13.852-4.139,20.914-4.744c14.375-1.231,28.847-0.615,42.651,3.982
				C639.115,333.763,646.111,337.844,653.815,341.59z"/>
			<path fill="#262B31" d="M413.097,346.63c10.398-9.934,22.784-14.859,35.854-17.524c17.501-3.569,35.146-3.352,52.556,1.433
				c8.293,2.279,8.573,2.534,8.632,11.369c0.035,5.206,0.006,10.413,0.006,16.778c-3.85-0.513-6.76-0.589-9.497-1.317
				c-14.622-3.888-29.572-4.653-44.465-3.441c-16.129,1.313-31.387,6.225-45.262,14.885c-1.354,0.845-2.837,1.485-4.784,2.49
				C403.587,361.495,405.458,353.577,413.097,346.63z"/>
			<path fill="#F5F7F7" d="M429.064,433.625c-5.088-7.951-4.069-16.631-3.917-25.579c0.447-1.881,0.365-3.435,1.08-4.398
				c6.77-9.111,15.731-14.811,26.761-17.725c18.399-4.861,42.924-0.473,52.454,18.415c3.492,9.942,0.157,18.785-1.944,28.178
				c-6.122,9.243-14.789,13.783-24.596,16.135c-17.062,4.092-32.175-0.19-45.553-11.4 M491.16,409.043
				c-4.35-7.504-10.935-11.088-19.444-9.763c-7.733,1.204-13.066,5.87-15.013,13.7c-2.168,8.722,0.708,15.638,8.041,20.695
				c3.359,2.317,6.998,4.06,11.254,3.122C489.62,433.794,495.503,423.797,491.16,409.043z"/>
			<g>
				<path fill="#090706" d="M505.754,423.763c-0.047-0.09-0.026-0.434-0.009-0.67c0.162-2.19,2.587-10.449-2.318-20.724
					c-8.201-17.181-32.979-21.058-50.44-16.445c-8.677,2.292-15.716,6.052-21.901,12.189c-3.767,3.737-5.921,8.811-5.861,14.117
					c0.087,7.762,0.633,13.809,5.852,22.278c-0.088,0.099-2.406,1.406-3.045,0.902c-0.493-0.389-3.557-8.208-3.767-9.201
					c-1.157-5.484-1.726-15.803-1.726-15.803c-0.565-15.761,7.279-25.717,19.438-31.424c18.191-8.537,36.437-8.701,53.397,3.499
					c5.983,4.304,10.745,9.428,12.368,19.949c2.475,16.043-0.375,20.741-0.781,21.837
					C506.443,424.452,505.971,424.163,505.754,423.763z"/>
				<path fill="#0F0D0C" d="M428.032,435.41c1.641-1.753,2.126-2.409,3.045-0.902c0.516,0.846,1.611,2.19,2.271,2.743
					c13.379,11.211,28.491,15.492,45.553,11.4c8.226-1.973,15.422-5.504,21.331-12.029c1.137-1.255,3.684-5.04,5.588-14.162
					c0.332-0.211,2.102-1.37,1.949-0.342c-0.161,1.084-0.669,3.476-0.97,4.846c-0.828,3.771-2.509,7.768-2.98,9.018
					c-0.414,1.099-1.093,2.279-1.926,3.348c-19.166,24.582-58.792,19.389-72.139-1.337
					C429.307,437.298,428.797,436.642,428.032,435.41z"/>
			</g>
			<path fill="#090706" d="M491.434,409.63c4.069,14.167-1.815,24.164-15.437,27.167c-4.255,0.938-7.895-0.805-11.254-3.122
				c-7.332-5.057-10.209-11.972-8.041-20.695c1.947-7.83,7.28-12.496,15.013-13.7C480.225,397.956,486.81,401.539,491.434,409.63
				 M483.74,414.018c0.679-2.802,0.975-5.952-2.464-6.631c-2.309-0.455-5.573,0.132-7.234,1.591
				c-1.027,0.902-0.634,4.877,0.512,6.476c1.991,2.778,5.144,2.475,7.915,0.415C482.685,415.708,482.864,415.497,483.74,414.018z"/>
			<path fill="#F5F7F7" d="M570.428,435.3c-1.463-5.321-3.661-10.487-4.461-15.861c-1.692-11.365,2.422-20.589,11.819-27.414
				c19.132-13.894,50.224-8.288,64.29,6.172c8.825,9.072,8.447,27.658-0.795,37.219c-19.179,19.84-53.449,19.431-70.265-0.096
				C570.476,435.179,570.327,435.362,570.428,435.3 M616.784,415.146c-0.833-2.333-1.36-4.837-2.554-6.969
				c-4.083-7.295-12.74-10.763-20.691-8.551c-8.628,2.4-13.989,9.609-13.764,18.506c0.225,8.877,6.165,15.661,14.777,17.694
				C603.713,437.989,617.459,431.244,616.784,415.146z"/>
			<path fill="#DDE6E6" d="M483.401,414.664c-0.536,0.833-0.715,1.044-0.932,1.205c-2.771,2.061-5.924,2.363-7.915-0.415
				c-1.146-1.599-1.539-5.574-0.512-6.476c1.661-1.459,4.925-2.046,7.234-1.591C484.715,408.066,484.419,411.217,483.401,414.664z"
				/>
			<path fill="#0D0A08" d="M616.829,415.819c0.63,15.425-13.116,22.17-22.276,20.008c-8.612-2.033-14.552-8.817-14.777-17.694
				c-0.225-8.897,5.136-16.106,13.764-18.506c7.951-2.212,16.607,1.257,20.691,8.551
				C615.423,410.309,615.951,412.813,616.829,415.819 M605.217,418.013c0.444-0.32,1.037-0.545,1.308-0.974
				c2.662-4.215,2.37-7.119-0.845-9.078c-2.761-1.682-6.105-0.795-7.799,2.069c-1.919,3.245-0.619,6.31,3.7,8.378
				C602.246,418.726,603.195,418.454,605.217,418.013z"/>
			<path fill="#DDE6E6" d="M604.615,418.234c-1.42,0.22-2.368,0.492-3.034,0.173c-4.319-2.068-5.619-5.133-3.7-8.378
				c1.694-2.864,5.038-3.751,7.799-2.069c3.215,1.959,3.507,4.863,0.845,9.078C606.254,417.468,605.661,417.694,604.615,418.234z"/>
			<g>
				<path fill="#090706" d="M565.69,424.02c-0.405-1.096-3.255-5.794-0.781-21.837c1.623-10.521,6.385-15.645,12.368-19.949
					c16.961-12.2,35.207-12.036,53.397-3.499c12.159,5.706,20.003,15.663,19.438,31.424c0,0-0.569,10.319-1.726,15.803
					c-0.209,0.993-3.273,8.812-3.767,9.201c-0.639,0.504-2.957-0.803-3.045-0.902c5.219-8.469,5.765-14.516,5.852-22.278
					c0.059-5.306-2.095-10.38-5.861-14.117c-6.185-6.137-13.225-9.897-21.901-12.189c-17.461-4.613-42.238-0.736-50.44,16.445
					c-4.904,10.274-2.479,18.534-2.318,20.724c0.017,0.235,0.038,0.58-0.009,0.67C566.68,423.916,566.208,424.204,565.69,424.02z"/>
				<path fill="#0F0D0C" d="M642.897,437.746c-13.347,20.725-52.973,25.919-72.139,1.337c-0.833-1.069-1.512-2.249-1.926-3.348
					c-0.471-1.25-2.153-5.247-2.98-9.018c-0.301-1.37-0.809-3.761-0.97-4.846c-0.153-1.029,1.617,0.131,1.949,0.342
					c1.904,9.122,4.452,12.908,5.588,14.162c5.91,6.524,13.106,10.056,21.331,12.029c17.062,4.092,32.175-0.19,45.553-11.4
					c0.661-0.553,1.756-1.898,2.271-2.743c0.919-1.507,1.404-0.851,3.045,0.902C643.854,436.395,643.345,437.051,642.897,437.746z"
					/>
			</g>
			<path fill="#42241B" d="M622.828,599.372c-0.314-4.013-0.787-11.621-7.83-18.879c-2.66-2.653-5.217-5.411-8.463-8.849
				c-0.745-0.789-0.078-2.081,0.997-1.937c8.46,1.134,13.335,5.644,17.27,11.157c10.506,14.718,11.084,44.188-1.308,58.994
				c-0.496,0.593-1.168,1.038-2.268,1.779c-0.848,0.571-1.971-0.164-1.779-1.168c0.88-4.603,1.639-8.123,2.066-11.683
				C622.662,619.221,623.996,614.31,622.828,599.372z"/>
			<path fill="#42241B" d="M450.923,600.96c-0.465,3.307-1.413,10.432-0.774,14.571c1.142,7.393,3.662,13.63,5.309,20.949
				c0.233,1.034,0.355,2.093,0.476,3.262c0.108,1.046-1.102,1.678-1.918,1.015c-11.658-9.47-16.418-28.057-10.736-45.479
				c3.393-10.401,7.863-20.743,19.503-24.396c1.007-0.316,1.912,0.73,1.407,1.656c-2.552,4.685-7.178,10.909-9.93,16.72
				C451.76,594.537,451.084,599.809,450.923,600.96z"/>
			<path fill="#42241B" d="M499.527,456.773c2.14-2.533,3.863-4.647,5.707-6.909c3.235,15.769-21.467,33.495-42.459,29.477
				c7.318-3.477,13.881-5.959,19.755-9.565C488.415,466.165,493.612,461.433,499.527,456.773z"/>
			<path fill="#42241B" d="M566.488,454.349c-0.512-1.615-0.917-2.679-0.988-3.765c-0.045-0.687,0.407-1.407,0.836-2.727
				c10.485,16.307,26.004,24.734,43.489,30.746C595.956,484.836,575.788,473.55,566.488,454.349z"/>
			<path fill="#4E2D24" d="M592.129,607.794c-6.819,6.249-15.908,7.109-24.443,8.618c-11.39,2.015-23.06,3.235-34.62,3.315
				c-16.667,0.114-33.069-2.577-49.063-9.357c2.549-0.987,5.469-1.914,8.393-1.927c27.058-0.12,54.117-0.023,81.176-0.135
				C579.608,608.282,585.642,607.681,592.129,607.794z"/>
			<path fill="#42241B" d="M484.189,550.011c0.791-3.371,1.16-6.234,2.418-8.628c5.317-10.115,10.582-12.256,19.311-9.767
				c-11.04,2.898-16.838,8.629-16.344,17.669c0.469,8.594,3.707,16.566,11.096,21.528c4.501,3.023,9.848,5.772,15.114,6.511
				c31.313,4.395,58.356-6.596,73.618-36.9c3.07-6.095,3.095-11.772-1.311-17.168c-2.814-3.446-5.532-7.004-8.636-10.175
				c-9.794-10.006-18.543-20.86-25.606-32.909c-6.856-11.696-10.229-24.579-10.982-38.161c-0.816-14.715,1.748-28.863,6.784-42.612
				c1.113-3.039,2.698-5.905,4.002-8.714c4.754,0.839,3.736,3.245,3.04,5.787c-1.983,7.24-4.124,14.457-5.634,21.801
				c-5.076,24.693,0.609,47.028,15.795,66.907c4.719,6.177,10.353,11.651,15.533,17.478c4.441,4.995,8.873,9.998,13.237,15.059
				c8.531,9.893,6.125,20.313,0.634,30.28c-15.016,27.259-45.007,42.848-76.37,39.756c-8.295-0.818-16.458-3.174-23.31-8.473
				C487.229,572.05,482.991,562.561,484.189,550.011z"/>
			<path fill="#090706" d="M472.491,602.56c10.186,6.554,21.32,8.978,32.27,11.565c16.796,3.969,34.007,4.531,51.112,3.33
				c14.064-0.987,27.85-4.055,40.262-12.488c6.642-4.324,13.07-8.066,19.381-11.996c2.696-1.679,5.149-3.747,8.764-6.415
				c0.083,5.393-2.417,7.585-4.617,9.89c-13.858,14.517-30.95,23.361-50.389,27.307c-28.502,5.786-56.701,4.966-84.151-5.849
				c-12.293-4.843-23.008-12.109-32.791-20.835c-1.989-1.774-4.076-3.802-2.91-7.937
				C457.136,593.701,464.525,598.078,472.491,602.56z"/>
			<polygon fill="#262B31" points="340.474,321.902 364.966,418.553 372.241,399.011 377.084,318.908 385.315,261.108 
				405.054,248.363 483.991,261.898 592.129,259.529 669.472,239.487 695.018,265.93 701.137,388.605 708.984,435.525 
				735.087,358.22 746.93,315.258 735.787,290.186 719.691,287.091 731.837,233.218 731.224,198.647 699.991,178.162 
				673.419,185.718 656.81,186.798 650.141,170.605 648.461,154.952 621.725,154.952 599.736,173.227 587.661,143.617 
				565.595,129.344 530.505,125.805 506.962,135.52 474.877,158.419 455.998,139.838 424.963,141.458 397.183,157.651 
				389.087,186.798 364.966,187.338 350.224,202.991 354.002,222.422 334.924,239.485 330.792,261.285 334.924,294.751 			"/>
			<path fill="#0D0A08" d="M721.255,185.992c1.609,1.431,6.773,6.299,9.969,12.654c3.656,7.268,5.273,16.03,5.274,16.032
				c0.298,1.619,0.551,3.235,0.761,4.848c2.194,16.856-0.28,33.402-4.369,49.847c-0.329,1.322-3.524,8.749-3.658,9.139
				c-1.751,5.1-1.401,5.127,3.507,5.504c0.237,0.08,4.658-0.133,7.823,1.706c1.879,1.092,6.129,4.041,8.62,8.13
				c2.315,3.8,3.204,9.654,3.287,9.996c1.526,6.269-0.801,13.317-1.873,19.339c-1.165,6.542-11.169,42.026-15.803,58.767
				c-1.368,4.941-5.139,26.739-6.674,35.737c-2.247,13.172-11.349,29.619-13.029,42.885c-0.234,1.843-1.469,4.002-2.663,7.473
				c0,0.001-2.898,6.695-4.154,15.161c-0.429,2.89-4.436,3.283-5.415,0.53c-0.239-0.672-0.482-1.342-0.756-1.999
				c-0.98-2.35,0.121-18.786,0.121-25.236c0-15.789-0.327-17.136-1.586-24.28c-2.913-16.527-5.374-33.109-7.066-49.833
				c-2.001-19.775-3.719-39.545-4.804-59.395c-0.811-14.835-1.474-29.661-1.84-44.512c-0.198-8.028-2.889-15.402-8.341-21.432
				c-3.408-3.769-7.495-6.91-13.058-5.607c-9.251,2.166-18.426,4.659-27.647,6.955c-27.787,6.92-56.06,10.757-84.607,11.984
				c-17.33,0.745-34.693,0.495-52.076-1.078c-20.083-1.818-40.012-4.416-59.832-7.976c-9.081-1.631-18.071-3.762-27.142-5.458
				c-4.388-0.82-8.85-1.659-12.449,2.512c-7.702,8.928-13.636,19.011-14.068,30.796c-0.954,26.035-2.278,52.007-5.183,77.911
				c-1.715,15.292-3.955,30.493-6.141,45.715c-1.827,12.724-2.548,57.214-4.108,63.789c-0.538,2.269-0.919,4.571-1.815,7.154
				c-0.527,1.518-2.75,1.316-2.983-0.274c-0.427-2.917-9.084-66.097-11.687-78.438c-3.186-15.1-9.273-34.938-10.228-35.769
				c-0.002-0.003-0.003-0.004-0.004-0.007c-4.776-15.051-10.228-29.883-15.245-44.849c-3.081-9.189-5.628-18.251-8.051-27.436
				c-0.662-2.51-3.354-7.665,0.662-18.602c1.351-3.681,5.681-4.862,5.695-6.058c0.015-1.265-3.782-2.741-5.336-5.353
				c-5.544-9.314-4.939-18.492-0.2-28.18c7.624-15.587,22.124-11.808,24.582-17.527c1.458-3.393-0.296-4.866-1.274-6.427
				c-2.796-4.465-4.012-12.096-1.025-18.722c2.461-5.46,8.136-9.942,10.933-11.824c3.548-2.388,9.446-3.027,14.151-2.995
				c3.252-0.247,6.595,0.575,9.854,0.41c2.478-0.125,4.636-1.609,5.661-3.781c0.209-0.443,0.812-3.805,0.765-8.334
				c-0.77-11.145,4.588-16.473,8.876-21.115c7.736-8.376,22.105-13.439,30.577-15.836c4.635-1.311,15.503-3.288,26.688-1.542
				c6.884,1.075,17.555,6.68,24.731,12.852c4.486,3.859,4.428,3.929,9.011-1.154c0.002-0.001,0.003-0.003,0.005-0.004
				c4.013-3.596,13.465-12.954,22.177-17.239c4.892-2.406,14.508-5.849,23.59-6.948c6.757-0.818,16.556-0.703,21.957,0.282
				c4.677,0.853,13.721,4.074,17.99,6.166c3.4,1.667,9.883,5.686,12.794,8.109c2.579,2.146,6.318,6.337,9.476,9.505
				c2.472,2.501,5.102,6.732,5.107,6.738c1.966,2.689,5.17,8.331,5.17,8.33c0.85,1.787,1.776,1.693,2.683,0.442
				c0.798-1.1,4.017-4.476,8.099-6.576c2.513-1.292,5.329-2.199,7.977-2.893c1.653-0.433,7.158-2.117,9.208-2.211
				c4.103-0.188,10.342-0.031,14.823,2.966c3.788,2.534,6.673,6.953,8.836,10.577c1.778,2.98,3.938,11.809,4.498,14.284
				c0.281,1.24,0.612,2.471,0.983,3.695c1.153,2.368,2.271,2.274,3.499,1.495c4.379-2.78,16.505-5.544,16.505-5.544
				s10.35-3.511,19.457-0.855C710.596,175.778,720.459,185.285,721.255,185.992z M367.501,409.494
				c3.045-16.766,4.666-33.732,6.127-50.644c1.49-17.258,2.315-34.615,2.28-52.014c-0.025-12.499,1.68-25.033,4.601-37.311
				c0.544-2.287,6.687-16.428,12.147-20.555c6.817-5.153,17.752-5.806,21.277-4.961c13.033,3.125,26.276,5.077,39.445,7.448
				c19.782,3.562,39.753,6.214,59.77,7.091c17.842,0.781,35.766,0.98,53.72-1.016c17.716-1.97,35.564-2.522,52.938-7.099
				c13.192-3.475,27.03-4.178,39.836-9.464c2.999-1.238,6.633-1.848,9.831-1.483c2.929,0.335,13.766,2.866,20.176,9.577
				c4.371,4.576,9.659,16.882,8.931,34.844c-0.01,15.44,2.355,30.725,2.092,46.142c-0.172,10.083,1.319,20.096,2.043,30.115
				c1.304,18.054,4.133,36.002,6.497,53.972c0.017,0.126,0.034,0.252,0.052,0.378c0.444,3.038,4.787,3.227,5.528,0.248
				c1.326-5.332,2.348-10.628,3.519-15.89c4.437-19.939,10.564-39.421,16.15-59.051c2.444-8.587,4.671-17.275,6.289-26.048
				c2.125-11.527-3.118-18.075-14.767-19.434c-1.387-0.162-2.804-0.061-4.207-0.101c-8.32-0.242-8.321-0.244-5.873-7.983
				c0.169-0.534,0.348-1.065,0.546-1.59c7.804-20.751,10.982-42.229,9.416-64.304c-1.722-24.262-18.73-36.26-41.949-33.126
				c-8.898,1.201-17.506,3.496-26.017,6.315c-6.904,2.287-7.779,1.686-7.686-5.701c0.096-7.634-0.271-15.095-3.368-22.235
				c-2.825-6.514-7.239-9.11-13.97-7.394c-4.891,1.247-9.604,3.146-13.74,6.162c-4.518,3.295-9.073,6.552-13.418,10.066
				c-2.74,2.215-4.498,1.602-5.98-1.219c-0.913-1.739-1.855-3.473-2.615-5.28c-4.447-10.571-11.225-19.533-20.053-26.634
				c-11.8-9.492-25.137-14.08-40.638-11.035c-20.107,3.949-35.759,15.371-50.188,28.971c-6.603,6.224-6.65,6.449-11.365-0.829
				c-7.06-10.899-17.495-15.336-29.875-15.703c-15.149-0.449-27.842,5.366-38.035,16.482c-7.368,8.034-11.58,17.071-8.3,28.367
				c0.48,1.652,0.73,3.371,0.942,5.195c0.286,2.463-2.051,4.434-4.413,3.681c-3.972-1.266-7.632-2.735-11.379-3.839
				c-6.585-1.941-12.972-1.653-18.466,0.831c-0.001,0-0.002,0.001-0.002,0.001c-8.029,4.185-11.928,14.527-6.883,24.309
				c1.532,2.97,3.617,5.654,5.438,8.476h0c1.725,2.656-0.63,6.078-3.724,5.405c-2.364-0.514-4.677-1.41-6.966-0.84
				c-9.818,2.444-14.627,10.168-17.367,18.979c-2.27,7.299-0.472,13.863,6.781,18.087c2.605,1.517,2.502,3.275-0.075,5.129
				c-3.724,2.679-6.984,6.023-7.239,10.847c-0.279,5.279-0.601,10.572,0.772,15.88c3.368,13.019,7.443,25.807,11.76,38.531
				c7.249,21.364,12.679,42.73,14.725,65.206c0.114,1.254,0.346,4.492,1.045,5.883C364.705,411.497,367.112,411.634,367.501,409.494
				z"/>
		</g>
	</g>
</g>
</svg>
