<svg xmlns="http://www.w3.org/2000/svg" xmlns:xlink="http://www.w3.org/1999/xlink" width="375" height="270" viewBox="0 0 375 270">
  <defs>
    <clipPath id="clip-path">
      <rect id="Rectangle_4015" data-name="Rectangle 4015" width="375" height="270" transform="translate(9600 -12380)" fill="#fff" stroke="#707070" stroke-width="1" opacity="0.59"/>
    </clipPath>
  </defs>
  <g id="Mask_Group_16473" data-name="Mask Group 16473" transform="translate(-9600 12380)" clip-path="url(#clip-path)">
    <g id="todller_boy_DS_3" data-name="todller boy DS 3" transform="translate(9725 -12359.5)">
      <g id="Group_52663" data-name="Group 52663" transform="translate(15.769 137.486)">
        <g id="Group_52662" data-name="Group 52662">
          <path id="Path_44934" data-name="Path 44934" d="M-117.689-161.824q-3.656-.082-10.168.041-3.081.041-19.124.411-3.718.082-5.587.164-3.1.144-5.567.452-1.089.123-4.868.719-3.02.452-4.889.6a13.1,13.1,0,0,0-3.882,1.335,27.528,27.528,0,0,0-5.135,3.122q-6.121,4.766-1.993,8.011,2.157,1.684,6.142,8.525a87.566,87.566,0,0,1,4.91,9.449q1.438,3.821,2.177,5.731a32.621,32.621,0,0,0,2.588,5.526,22.6,22.6,0,0,0,9,8.217,28.321,28.321,0,0,0,11.935,3.2,32.214,32.214,0,0,0,12.674-1.931,62.565,62.565,0,0,0,8.648-4.232q3.965-2.26,6.553-3.965a56.514,56.514,0,0,0,6.121-4.6.645.645,0,0,1,.082.452.887.887,0,0,1-.062.164l3.307-4.17a.951.951,0,0,0,.308-.657.493.493,0,0,0-.308-.411.788.788,0,0,0-.555-.082,2.1,2.1,0,0,0-.9.616q1.832-4.355,4.108-9.264t5.279-6.265q3.025-1.358,3.43-1.232t.76-.534a6.414,6.414,0,0,0,.6-2.157,15.473,15.473,0,0,0-.965-7.518,12.78,12.78,0,0,0-4.519-5.937,15.055,15.055,0,0,0-4.725-2.177,34.178,34.178,0,0,0-5.218-.965Q-112.061-161.721-117.689-161.824Z" transform="translate(180.567 161.856)" fill="#fc6"/>
        </g>
      </g>
      <g id="Group_52673" data-name="Group 52673" transform="matrix(0.992, -0.129, 0.129, 0.992, 3.977, 132.304)">
        <g id="Group_52665" data-name="Group 52665" transform="translate(0 28.931)">
          <g id="Group_52664" data-name="Group 52664" transform="translate(0 0)">
            <path id="Path_44935" data-name="Path 44935" d="M1.52,6.168Q.906,7.44.411,8.51l-.329.678q-.037.1-.082.226a27.483,27.483,0,0,0,5.176,5.258q.809.6,2.444,1.664,2.126,1.392,3.307,2.033a14.941,14.941,0,0,0,3.553,1.417,3.082,3.082,0,0,1,.021,1.561,7.8,7.8,0,0,1-.493,1.438q-1.334,3.025-2.711,5.956a.286.286,0,0,1,.041-.041l1.13-1.581.719-1.068q1.264-1.872,2.136-3.266a1.192,1.192,0,0,0,.082-.123,31.669,31.669,0,0,0,1.7-2.937,85.774,85.774,0,0,0,3.142-8.831Q20.7,9.511,18.5,7.051a25.308,25.308,0,0,0-5.217-4.313A18.653,18.653,0,0,0,7.5.151Q4.667-.432,3.882,1.239Z" transform="translate(5.531 0)" fill="#84553e"/>
            <path id="Path_44936" data-name="Path 44936" d="M5.531,0Q4.95,1.194,4.586,2.054,3.307,4.936,2.512,7.332A55.83,55.83,0,0,0,.171,15.855a15.248,15.248,0,0,0-.144,3.122,7.636,7.636,0,0,0,2.732,5.73A9.185,9.185,0,0,0,6.64,26.658a5.955,5.955,0,0,0,4.539-1.027,14.978,14.978,0,0,0,3.081-2.957q1.779-2.3,2.526-3.286h-.021q.031-.028.062-.062,1.377-2.931,2.711-5.956a7.8,7.8,0,0,0,.493-1.438,3.082,3.082,0,0,0-.021-1.561,14.941,14.941,0,0,1-3.553-1.417q-1.181-.641-3.307-2.033-1.635-1.063-2.444-1.664A27.483,27.483,0,0,1,5.531,0Z" transform="translate(0 9.413)" fill="#a56b4e"/>
          </g>
        </g>
        <g id="Group_52667" data-name="Group 52667" transform="translate(3.867 0)">
          <g id="Group_52666" data-name="Group 52666" transform="translate(0 0)">
            <path id="Path_44937" data-name="Path 44937" d="M18.588.432a10.637,10.637,0,0,0-4.6,2.259,16.028,16.028,0,0,0-3.615,3.615,26.08,26.08,0,0,0-3.122,6.839q-.667,2.214-1.766,7.229A54.393,54.393,0,0,1,3.636,27.3a17.752,17.752,0,0,1-3.183,5.73,1.456,1.456,0,0,0-.452.9,1.693,1.693,0,0,0,.411.883,23.193,23.193,0,0,0,2.095,2.3l.986.945q.891.821,1.7,1.561h.021a46.744,46.744,0,0,0,5.011,3.964,19.915,19.915,0,0,0,7.948,3.307,3.819,3.819,0,0,0,3.019-.452,2.469,2.469,0,0,0,.719-1.089,7.711,7.711,0,0,0,.37-1.355q.115-.58,4.066-9.263a80.3,80.3,0,0,0,4.724-13.083q2.567-9.961.452-15.342A9.136,9.136,0,0,0,23.989.165a13.045,13.045,0,0,0-5.4.267M8.812,10.023Q7.749,16.7,6.676,21.483,4.728,30.256,1.87,34.073a23.787,23.787,0,0,0,2.814,3.615l2.444,2.834q-6-4.757-6.51-6.613a20.469,20.469,0,0,1,1.355-2.136,14.787,14.787,0,0,0,2.136-4.046q.283-.87,2.054-7.907Q8.011,12.6,8.812,10.023Z" fill="#fc6"/>
            <path id="Path_44938" data-name="Path 44938" d="M6.059,11.46Q7.132,6.673,8.195,0q-.8,2.579-2.649,9.8Q3.775,16.833,3.492,17.7a14.787,14.787,0,0,1-2.136,4.046A20.469,20.469,0,0,0,0,23.885q.511,1.857,6.51,6.613L4.067,27.664A23.787,23.787,0,0,1,1.253,24.05Q4.111,20.234,6.059,11.46Z" transform="translate(0.617 10.023)" fill="#ffde9d"/>
          </g>
        </g>
        <g id="Group_52670" data-name="Group 52670" transform="translate(17.258 6.511)">
          <g id="Group_52669" data-name="Group 52669" transform="translate(0 0)">
            <g id="Group_52668" data-name="Group 52668">
              <path id="Path_44939" data-name="Path 44939" d="M21.893,15.2a23.969,23.969,0,0,0-.37-7.948Q20.558,1.992,18.751,0q3.656,9.139-3.574,23.29-1.992,3.882-5.443,9.242a28.243,28.243,0,0,0-2.814,4.785A2.636,2.636,0,0,1,6.2,38.693a2.706,2.706,0,0,1-1.273.863A11.246,11.246,0,0,1,0,39.083q.991.285,7.147,2.978a13.7,13.7,0,0,0,6.243-9.283q.349-1.807,4.19-8.277Q21.4,18.073,21.893,15.2Z" fill="#d4a548"/>
            </g>
          </g>
        </g>
        <g id="Group_52672" data-name="Group 52672" transform="translate(22.125 5.155)">
          <g id="Group_52671" data-name="Group 52671" transform="translate(0 0)">
            <path id="Path_44940" data-name="Path 44940" d="M4.929,2.465,2.465,4.929,0,2.465,2.465,0Zm-1.848,0H2.465v.616m-.616-.616h.616V1.848" fill="none" stroke="rgba(0,0,0,0)" stroke-linecap="round" stroke-linejoin="round" stroke-width="0.077"/>
          </g>
        </g>
      </g>
      <g id="Group_52678" data-name="Group 52678" transform="translate(74.731 133.065) rotate(-176.425)">
        <g id="Group_52675" data-name="Group 52675" transform="translate(0 0.282)">
          <g id="Group_52674" data-name="Group 52674" transform="translate(0 0)">
            <path id="Path_44941" data-name="Path 44941" d="M18.852,13.008A22.9,22.9,0,0,0,13.9,11.57a21.344,21.344,0,0,0-3.615-.185,20.655,20.655,0,0,0-3.78.349,21.367,21.367,0,0,0-3.533,1.13,3.771,3.771,0,0,0-1.643,1.027,26.054,26.054,0,0,0,.062-3.369A29.059,29.059,0,0,0,1,7.277,8.254,8.254,0,0,0,.3,4.853Q.1,4.442.057,4.339a.746.746,0,0,1-.021-.514A1.534,1.534,0,0,1,.92,3.107,39.4,39.4,0,0,1,12.793.128a21.638,21.638,0,0,1,5.731.123,11.263,11.263,0,0,1,4.149,1.582,4.321,4.321,0,0,1,1.767,1.972,5.276,5.276,0,0,1,.1,2.034l-.411,4.54q-.308,3.348-.288,4.724v.144A45.319,45.319,0,0,0,18.852,13.008Z" transform="translate(2.907 0)" fill="#a56b4e"/>
            <path id="Path_44942" data-name="Path 44942" d="M28.435,12.742q1.048,3.738,1.417,4.724.308.863-3.821,2.075a42.874,42.874,0,0,1-10.722,1.6,29.618,29.618,0,0,1-11.339-1.7,18.179,18.179,0,0,1-3-1.376q-1.048-.637-.965-.781.883-1.849,1.972-4.724A39.308,39.308,0,0,0,3.518,7.874a42.675,42.675,0,0,0,.719-5.361A3.771,3.771,0,0,1,5.881,1.485,21.367,21.367,0,0,1,9.414.356a20.655,20.655,0,0,1,3.78-.349,21.344,21.344,0,0,1,3.615.185,22.9,22.9,0,0,1,4.95,1.438A45.319,45.319,0,0,1,26.75,3.868,24.4,24.4,0,0,0,27.182,8Q27.387,9.065,28.435,12.742Z" transform="translate(0 11.379)" fill="#84553e"/>
          </g>
        </g>
        <g id="Group_52677" data-name="Group 52677" transform="translate(12.495 0)">
          <g id="Group_52676" data-name="Group 52676" transform="translate(0 0)">
            <path id="Path_44943" data-name="Path 44943" d="M4.93,2.465,2.465,0,0,2.465,2.465,4.93Zm-1.849,0H2.465V1.849m-.616.616h.616v.616" fill="none" stroke="rgba(0,0,0,0)" stroke-linecap="round" stroke-linejoin="round" stroke-width="0.077"/>
          </g>
        </g>
      </g>
      <g id="Group_52688" data-name="Group 52688" transform="translate(138.494 180.276) rotate(156.443)">
        <g id="Group_52680" data-name="Group 52680" transform="translate(0 0)">
          <g id="Group_52679" data-name="Group 52679">
            <path id="Path_44944" data-name="Path 44944" d="M1.52,22.568Q.906,21.3.411,20.227L.082,19.55q-.036-.1-.082-.226a27.479,27.479,0,0,1,5.175-5.257q.809-.6,2.444-1.663,2.126-1.392,3.306-2.033a14.939,14.939,0,0,1,3.553-1.417A3.082,3.082,0,0,0,14.5,7.393a7.8,7.8,0,0,0-.493-1.437Q12.671,2.931,11.294,0a.286.286,0,0,0,.041.041l1.129,1.581.719,1.068q1.264,1.872,2.136,3.265a1.191,1.191,0,0,1,.082.123,31.662,31.662,0,0,1,1.7,2.937,85.763,85.763,0,0,1,3.142,8.83q.453,1.381-1.745,3.84A25.3,25.3,0,0,1,13.286,26,18.651,18.651,0,0,1,7.5,28.585q-2.828.583-3.614-1.088Z" transform="translate(5.53 7.433)" fill="#84553e"/>
            <path id="Path_44945" data-name="Path 44945" d="M5.53,26.756q-.581-1.193-.945-2.054-1.279-2.882-2.074-5.278A55.823,55.823,0,0,1,.171,10.9,15.246,15.246,0,0,1,.027,7.782,7.635,7.635,0,0,1,2.758,2.052,9.184,9.184,0,0,1,6.639.1a5.954,5.954,0,0,1,4.538,1.027,14.976,14.976,0,0,1,3.08,2.957q1.779,2.3,2.526,3.286h-.021q.031.028.062.062,1.377,2.931,2.711,5.955a7.8,7.8,0,0,1,.493,1.437,3.082,3.082,0,0,1-.021,1.561A14.939,14.939,0,0,0,16.455,17.8q-1.181.641-3.306,2.033Q11.515,20.9,10.705,21.5A27.479,27.479,0,0,0,5.53,26.756Z" fill="#a56b4e"/>
          </g>
        </g>
        <g id="Group_52682" data-name="Group 52682" transform="translate(3.866 18.124)">
          <g id="Group_52681" data-name="Group 52681" transform="translate(0 0)">
            <path id="Path_44946" data-name="Path 44946" d="M18.585,46.541a10.635,10.635,0,0,1-4.6-2.259,16.026,16.026,0,0,1-3.614-3.614A26.077,26.077,0,0,1,7.25,33.83Q6.582,31.616,5.484,26.6a54.387,54.387,0,0,0-1.848-6.92A17.75,17.75,0,0,0,.453,13.951a1.456,1.456,0,0,1-.452-.9,1.693,1.693,0,0,1,.411-.883,23.19,23.19,0,0,1,2.095-2.3l.986-.945Q4.382,8.1,5.2,7.36h.021A46.737,46.737,0,0,1,10.227,3.4,19.912,19.912,0,0,1,18.175.09a3.819,3.819,0,0,1,3.019.452,2.469,2.469,0,0,1,.719,1.088,7.71,7.71,0,0,1,.37,1.355q.115.58,4.066,9.261a80.286,80.286,0,0,1,4.723,13.081q2.567,9.96.452,15.34a9.135,9.135,0,0,1-7.536,6.14,13.044,13.044,0,0,1-5.4-.267M8.81,36.951Q7.748,30.278,6.675,25.492,4.728,16.72,1.87,12.9A23.784,23.784,0,0,1,4.683,9.29L7.127,6.456q-6,4.756-6.51,6.612A20.468,20.468,0,0,0,1.972,15.2,14.785,14.785,0,0,1,4.108,19.25q.283.87,2.054,7.906Q8.01,34.372,8.81,36.951Z" fill="#fc6"/>
            <path id="Path_44947" data-name="Path 44947" d="M6.058,19.036q1.073,4.786,2.136,11.459-.8-2.579-2.649-9.8-1.77-7.036-2.054-7.906A14.785,14.785,0,0,0,1.355,8.748,20.468,20.468,0,0,1,0,6.612Q.511,4.756,6.51,0L4.066,2.834A23.784,23.784,0,0,0,1.253,6.448Q4.111,10.264,6.058,19.036Z" transform="translate(0.617 6.456)" fill="#ffde9d"/>
          </g>
        </g>
        <g id="Group_52685" data-name="Group 52685" transform="translate(17.256 16.53)">
          <g id="Group_52684" data-name="Group 52684" transform="translate(0 0)">
            <g id="Group_52683" data-name="Group 52683" transform="translate(0)">
              <path id="Path_44948" data-name="Path 44948" d="M21.891,26.86a23.966,23.966,0,0,1-.37,7.947q-.965,5.257-2.772,7.249,3.655-9.138-3.573-23.287-1.992-3.881-5.442-9.241A28.24,28.24,0,0,1,6.92,4.744,2.635,2.635,0,0,0,6.2,3.368a2.706,2.706,0,0,0-1.273-.862A11.245,11.245,0,0,0,0,2.978Q.991,2.693,7.146,0a13.7,13.7,0,0,1,6.243,9.282q.349,1.807,4.189,8.276Q21.4,23.985,21.891,26.86Z" fill="#d4a548"/>
            </g>
          </g>
        </g>
        <g id="Group_52687" data-name="Group 52687" transform="translate(22.123 55.013)">
          <g id="Group_52686" data-name="Group 52686" transform="translate(0 0)">
            <path id="Path_44949" data-name="Path 44949" d="M4.928,2.464,2.464,0,0,2.464,2.464,4.928Zm-1.848,0H2.464V1.848m-.616.616h.616V3.08" fill="none" stroke="rgba(0,0,0,0)" stroke-linecap="round" stroke-linejoin="round" stroke-width="0.077"/>
          </g>
        </g>
      </g>
      <g id="Group_52721" data-name="Group 52721" transform="matrix(1, 0.009, -0.009, 1, 22.39, 124.013)">
        <g id="Group_52690" data-name="Group 52690" transform="translate(47.343 47.779)">
          <g id="Group_52689" data-name="Group 52689" transform="translate(0 0)">
            <path id="Path_44950" data-name="Path 44950" d="M24.181,10.2Q24.12,8.764,24,7.31A38.282,38.282,0,0,0,22.62,0Q22.6.138,12.987,22.127c-5.758,13.2,1.746,19.15,10.293,18.811.6-.639.849-7.265.88-8.868Q24.469,16.055,24.181,10.2Z" fill="#2c3664"/>
          </g>
        </g>
        <g id="Group_52692" data-name="Group 52692" transform="translate(22.006 1.274)">
          <g id="Group_52691" data-name="Group 52691" transform="translate(0 0)">
            <path id="Path_44951" data-name="Path 44951" d="M14.563,4.57a25.125,25.125,0,0,0,3.574-.452A15.476,15.476,0,0,0,25.51.738a38.315,38.315,0,0,0-4.519-.59Q17.972-.068,13.577.031q-3.266.1-6.532.236L0,.561A11.013,11.013,0,0,0,1.089,1.5q4.19,3.242,12,3.085Z" transform="translate(3.776 0)" fill="#a56b4e"/>
            <path id="Path_44952" data-name="Path 44952" d="M32.039.825A24.669,24.669,0,0,0,29.286.177a15.476,15.476,0,0,1-7.374,3.38,25.125,25.125,0,0,1-3.574.452l-1.479.02q-7.805.157-12-3.085A11.013,11.013,0,0,1,3.776,0L2.667.039a5.9,5.9,0,0,0-1.6.255A1.457,1.457,0,0,0,.017,1.415q-.144.766.9,1.769A20.306,20.306,0,0,0,6.385,7a25.067,25.067,0,0,0,4.6,1.533q1.684.393,4.786.884,1.766.275,2.65.373a17.473,17.473,0,0,0,7.661-.825,11.939,11.939,0,0,0,6.039-4.48q.349-.491.986-1.493a2.251,2.251,0,0,0,.411-.845.942.942,0,0,0-.493-.884A2.823,2.823,0,0,0,32.039.825Z" transform="translate(0 0.561)" fill="#84553e"/>
          </g>
        </g>
        <g id="Group_52695" data-name="Group 52695" transform="translate(0 1.462)">
          <g id="Group_52693" data-name="Group 52693" transform="translate(0 0)">
            <path id="Path_44953" data-name="Path 44953" d="M5.341,10.415q1.15-6.858,4.293-8.391Q2.938,3.439.863,5.07-.9,7.526.945,24.9q.534,2.279,1.315,5.207.863,3.124,1.232,4.52.267.983.452.629a3.425,3.425,0,0,0,.308-.668q.144-.432.39-1.2a5.027,5.027,0,0,0,.164-1.336q-.678-14.424.534-21.636m60.8-7.526a39.53,39.53,0,0,0-2.732,12.439q-.664,7.761-.616,10.769-.1,2.3-.123,3.4-.021,1.965.452,2.338a4.688,4.688,0,0,1,1.109,1.435,6.948,6.948,0,0,1,.678,1.67q.349,1.4,1.315,12.537.843,10,.945,8.725l.37-3.537q.8-7.6,2.321-17.037.76-4.716,1.376-7.919l.431-4.48.39-8.391Q72.3,6.17,71.52,5.07a16.153,16.153,0,0,0-5.381-2.24v.059M52.911.354Q50.877.079,49.46,0,48.8,1.729,45.6,3.3a21.407,21.407,0,0,1-9.161,1.965h-.493A21.5,21.5,0,0,1,26.784,3.3Q23.58,1.729,22.923,0,21.28.079,18.774.432A71.2,71.2,0,0,0,18.609,20.3Q19.821,28.631,22,29.535q3.635,1.515,13.988,1.081Q46.36,30.2,47.509,29.123A4.665,4.665,0,0,0,48.6,25.487q-.058-2.538.739-11.339Q50.152,5.367,52.911.354M25.367,5.149a23.56,23.56,0,0,0,4.991,2A21.457,21.457,0,0,0,46.626,5.109,21.457,21.457,0,0,1,30.358,7.153a23.56,23.56,0,0,1-4.991-2A18.916,18.916,0,0,1,23.354,3.93,18.916,18.916,0,0,0,25.367,5.149Z" transform="translate(1.36 0)" fill="#fc6"/>
            <path id="Path_44954" data-name="Path 44954" d="M54.271,0V.02Q51.513,5.033,50.7,13.815q-.8,8.8-.739,11.339a4.665,4.665,0,0,1-1.089,3.635q-1.149,1.075-11.523,1.493-10.352.434-13.988-1.081-2.177-.9-3.389-9.236A71.2,71.2,0,0,1,20.134.1q-.246.059-9.12,1.592h-.021Q7.851,3.223,6.7,10.081q-1.212,7.212-.534,21.636A5.027,5.027,0,0,1,6,33.053q-.246.766-.39,1.2a3.426,3.426,0,0,1-.308.668q-.185.354-.452-.629-.37-1.4-1.232-4.52-.781-2.928-1.315-5.207.164,1.533.822,6.76Q3.4,33.6,3.6,35.234q-.1-.2-.452-.806L.436,30.2a.378.378,0,0,0-.185-.216.141.141,0,0,0-.144,0,.129.129,0,0,0-.1.079q-.021.039.041.157l2.259,4.5a8.807,8.807,0,0,1,.493,1.12l.144.668a14.082,14.082,0,0,0,.575,1.513L4.051,39.2l.123.275q.748,5.4,1.6,10.69.205,1.317.411,2.614l31.611.59,30.625,28.69q.6-9.275,1.417-24.406a140.844,140.844,0,0,1,2.054-17.8,27.753,27.753,0,0,1,1.191-3.969q.1-.295,1.5-3.793a8,8,0,0,0-1.273,2.063q-1.027,1.965-1.561,3.223.082-.531.349-3.95l.493-6.052q-.616,3.2-1.376,7.919Q69.7,44.725,68.9,52.33l-.37,3.537q-.1,1.276-.945-8.725Q66.615,36,66.266,34.605a6.948,6.948,0,0,0-.678-1.67A4.688,4.688,0,0,0,64.479,31.5q-.472-.373-.452-2.338.021-1.1.123-3.4-.048-3.008.616-10.769A39.531,39.531,0,0,1,67.5,2.555V2.5q-.1-.236-.637-.275a4.717,4.717,0,0,1-.534-.02.237.237,0,0,1-.1-.02q-1.992-.491-4.478-.963-.411-.079-.842-.157Q58.194.57,56.017.255,55.093.118,54.271,0Z" transform="translate(0 0.334)" fill="#d4a548"/>
          </g>
          <g id="Group_52694" data-name="Group 52694" transform="translate(24.694 3.885)">
            <path id="Path_44955" data-name="Path 44955" d="M23.313,1.2h-.041L20.252,2.285l-.1.02-.082.039-.822.236-.1.02-.123.039-.205.039-.123.039-.8.177a15.283,15.283,0,0,1-1.992.354l-.534.079H15.22l-.123.02-.8.059-.123.02-1.951.039L8.77,3.091H8.688l-.062-.02L7.7,2.894l-.123-.039-.144-.02L6.552,2.6l-.123-.02L5.238,2.226q-.8-.255-1.725-.629L.288.163.062.025Q0-.034,0,.045V.084L.062.124l1.212.963,2.3,1.376.637.295.1.059.123.039.678.314,3.143.983,1.725.295.062.02h.082l1.027.118,2.526.02.062-.02.513-.02,1.828-.275a18.031,18.031,0,0,0,2.054-.511L20.868,2.7l2.424-1.435q.021,0,.021-.02A.024.024,0,0,0,23.313,1.2Z" transform="translate(0 0)" fill="#ffde9d"/>
          </g>
        </g>
        <g id="Group_52697" data-name="Group 52697" transform="translate(3.701 31.922)">
          <g id="Group_52696" data-name="Group 52696" transform="translate(0 0)">
            <path id="Path_44956" data-name="Path 44956" d="M15.569,6.759A5.636,5.636,0,0,0,15.1,4.538q-.575-1.808.1-2.3.781-.57,5.874-1.1Q23.6.863,25.942.647,22.717.569,17.808.333,12.9.058,10.7.018A24.732,24.732,0,0,0,6.121.2,10.026,10.026,0,0,0,1.109,2.4,4.654,4.654,0,0,0,.226,3.418L0,3.85a17.858,17.858,0,0,0,.616,2.5,4.967,4.967,0,0,0,1.273,2.5q.842.491,6.881-.236,6.244-.766,6.8-1.847m45.619,28.2a6.061,6.061,0,0,1-.267.727,2.4,2.4,0,0,1-.6.609,1.836,1.836,0,0,0,1.335-.963,3.519,3.519,0,0,0,.493-1.081q-.082,1.769-.164,2.987-.185,2.3-.822,2.751.349-.079.883-1.1a13.352,13.352,0,0,0,.452-3.007,63.088,63.088,0,0,0,.205-8.686,50.144,50.144,0,0,1-.863,5.718q-.123.511-.657,2.044M58.456,19.885v.079q-.068,1.967-.226,5.8a37.534,37.534,0,0,0,.205,7.742,32.139,32.139,0,0,0,1.253,5.031q.493,1.238.637,1.041a11.234,11.234,0,0,1-.555-2.358q-.123-.786-.246-2.417-.021-.276-.041-.55v-.02a1.616,1.616,0,0,1-.062-.177l-.246-1.022a12.667,12.667,0,0,1-.246-1.474v-.02q-.3-4.805-.39-9.236,0-.151-.021-.314l-.041-1.769q0-.167-.021-.334m-2.218-16.7a.165.165,0,0,1,.123.059q-.127-.177-.6-1a2.186,2.186,0,0,0-.76-.825A11.652,11.652,0,0,0,51.945.2Q50.774-.119,41.593.2L32.617.569q2.4.2,4.93.472,5.073.55,5.3.924a8.124,8.124,0,0,1,.513,2.476A4.8,4.8,0,0,0,44,6.8q.657.747,5.854,1.454,5.258.707,6.265.138.329-.177,0-2a7.912,7.912,0,0,1-.185-2.771q.144-.452.308-.432m-34.9,37.081q-.76-.138-2.28-.432-.246-.039-.267.1a15.155,15.155,0,0,0,1.684.609,20.335,20.335,0,0,0,4.108.924,10.234,10.234,0,0,0,3.122-.216v.02a.043.043,0,0,1,.021,0q.235-.062.452-.138a.756.756,0,0,0,.185-.059q.555-.2,1.068-.432a9.351,9.351,0,0,0,1.7-1.1,5.711,5.711,0,0,0-1.5.354l-1.479.531q-.2.056-.431.118a.044.044,0,0,0-.021,0,7.607,7.607,0,0,1-.822.118,14.086,14.086,0,0,1-3.266-.02q-.924-.1-2.28-.373M38.389,21.222q.021-3.911,0-5.4a12.326,12.326,0,0,0-.267-3.655q-.082.039-2.218,5.62-2.177,5.7-2.67,6.21a12.629,12.629,0,0,1-2.67,2.26,9.046,9.046,0,0,1-2.834,1.061.051.051,0,0,0-.021,0q-.282.057-.575.1-.278.041-.6.079-1.369.145-3.471.177a9.146,9.146,0,0,1-3-.314,6.386,6.386,0,0,1-1.6-.845q-.472-.354-1.438-1.14Q15.4,23.914,15.015,23.5q-.479-.5-.924-1.061a22.2,22.2,0,0,1-3.636-6.976,28.058,28.058,0,0,1-1.068-3.989,1.508,1.508,0,0,0-.205.766l-.308,5.011q-.144,2.437-.144,3.635a27.739,27.739,0,0,0,.822,6.406A16.212,16.212,0,0,0,13,34.132q3.944,4.579,12.344,4.716a9.221,9.221,0,0,0,2.362-.295v0h.062a13.634,13.634,0,0,0,2.773-1.14,14.063,14.063,0,0,0,6.655-7.8,20.613,20.613,0,0,0,.822-4.107q.041-.236.082-.452A34.279,34.279,0,0,0,38.389,21.222Z" transform="translate(4.273 0)" fill="#1c2449"/>
            <path id="Path_44957" data-name="Path 44957" d="M60.634,2.673a.165.165,0,0,0-.123-.059q-.164-.02-.308.432a7.912,7.912,0,0,0,.185,2.771q.329,1.828,0,2-1.006.57-6.265-.138-5.2-.707-5.854-1.454a4.8,4.8,0,0,1-.637-2.358A8.124,8.124,0,0,0,47.119,1.4q-.226-.373-5.3-.924Q39.293.2,36.89,0q-2.629.1-4.046.1h-.863L30.215.079Q27.873.295,25.347.57q-5.094.531-5.874,1.1-.678.491-.1,2.3a5.636,5.636,0,0,1,.472,2.221q-.555,1.081-6.8,1.847Q7,8.764,6.163,8.273a4.967,4.967,0,0,1-1.273-2.5,17.858,17.858,0,0,1-.616-2.5,4.009,4.009,0,0,0-.288.531Q2.609,6.8,1.521,18.668C.74,27.288-.429,46.544-.62,56.933c2.663-.063,64.587-.518,68.079-.57.11-7.664-1.149-14.349-1.135-18.043q-.534,1.022-.883,1.1.637-.452.822-2.751.082-1.218.164-2.987a3.519,3.519,0,0,1-.493,1.081,1.836,1.836,0,0,1-1.335.963,2.4,2.4,0,0,0,.6-.609,6.061,6.061,0,0,0,.267-.727.844.844,0,0,1-.719.432q-.566,0-.986-1.14.02.274.041.55.123,1.631.246,2.417a11.234,11.234,0,0,0,.555,2.358q-.144.2-.637-1.041a32.14,32.14,0,0,1-1.253-5.031,37.535,37.535,0,0,1-.205-7.742q.158-3.83.226-5.8v-.1q-.136-3.2-.493-6.485-.246-2.4-.637-5.463-.37-3.793-.945-4.638a.2.2,0,0,1-.021-.039M42.662,15.249q.021,1.493,0,5.4a34.279,34.279,0,0,1-.288,3.832q-.041.216-.082.452a20.613,20.613,0,0,1-.822,4.107,14.063,14.063,0,0,1-6.655,7.8,13.634,13.634,0,0,1-2.773,1.14h-.062v0a9.221,9.221,0,0,1-2.362.295q-8.4-.138-12.344-4.716a16.212,16.212,0,0,1-3.451-6.838A27.739,27.739,0,0,1,13,20.319q0-1.2.144-3.635l.308-5.011a1.508,1.508,0,0,1,.205-.766A28.058,28.058,0,0,0,14.728,14.9a22.2,22.2,0,0,0,3.636,6.976q.445.564.924,1.061.39.413,2.013,1.867.965.786,1.438,1.14a6.386,6.386,0,0,0,1.6.845,9.146,9.146,0,0,0,3,.314q2.1-.032,3.471-.177.318-.038.6-.079.293-.042.575-.1a.051.051,0,0,1,.021,0,9.046,9.046,0,0,0,2.834-1.061,12.628,12.628,0,0,0,2.67-2.26q.493-.511,2.67-6.21,2.136-5.581,2.218-5.62a12.326,12.326,0,0,1,.267,3.655M65.831,40.107a.865.865,0,0,1,.123-.55l-.021,3.183a5.433,5.433,0,0,1-.041.786l-.082.688a12.648,12.648,0,0,0,0,1.493,1.8,1.8,0,0,1-.062.55,1.749,1.749,0,0,0-.144.373,1.588,1.588,0,0,0-.041-.59q-.041-.2-.123-.609a6.234,6.234,0,0,1,0-.727.846.846,0,0,1,.041-.354.821.821,0,0,1,.226-.255,1.007,1.007,0,0,0,.123-.59v-3.4m-42.5-.845q1.52.295,2.28.432,1.356.275,2.28.373a14.086,14.086,0,0,0,3.266.02,7.607,7.607,0,0,0,.822-.118.044.044,0,0,1,.021,0q.235-.061.431-.118l1.479-.531a5.711,5.711,0,0,1,1.5-.354,9.351,9.351,0,0,1-1.7,1.1q-.514.236-1.068.432a.757.757,0,0,1-.185.059q-.216.075-.452.138a.043.043,0,0,0-.021,0v-.02a10.234,10.234,0,0,1-3.122.216,20.335,20.335,0,0,1-4.108-.924,15.154,15.154,0,0,1-1.684-.609Q23.087,39.223,23.334,39.262Z" transform="translate(0 0.569)" fill="#2c3664"/>
          </g>
        </g>
        <g id="Group_52706" data-name="Group 52706" transform="translate(6.596 0)">
          <g id="Group_52699" data-name="Group 52699" transform="translate(0 0)">
            <g id="Group_52698" data-name="Group 52698">
              <path id="Path_44958" data-name="Path 44958" d="M9.512,0,8.341.314,7.931.432,6.719.786q-.865.247-1.623.452Q2.605,1.95,1.276,2.3-.328,6.2.085,16.271q.116,2.837.39,6.151.011.138.021.275A124.179,124.179,0,0,1,2.015,5.483a4.667,4.667,0,0,1,.452-1.572A4.479,4.479,0,0,1,3.843,2.633,22.027,22.027,0,0,1,7.232.983Q8.617.41,9.512,0Z" transform="translate(0 0.519)" fill="#424d80"/>
              <path id="Path_44959" data-name="Path 44959" d="M13.741,1.207a1.893,1.893,0,0,0,.246.216.729.729,0,0,0,.267.039,1.634,1.634,0,0,0-.37-.531A4.439,4.439,0,0,0,12.652.087q-.625-.3-3.636.432-.895.41-2.28.983A22.027,22.027,0,0,0,3.348,3.152,4.479,4.479,0,0,0,1.972,4.43,4.667,4.667,0,0,0,1.52,6,124.179,124.179,0,0,0,0,23.216,102.059,102.059,0,0,0,1.4,33.867q.965,4.913,1.931,5.777.39.354,6.2-.314,5.792-.668,5.813-1.041a19.686,19.686,0,0,1-1.191-4.127q-1.089-4.579-1.766-9.472-.2-1.426-.349-2.79.014.152.021.295a33.709,33.709,0,0,1-.945-3.675,26.945,26.945,0,0,1-.37-5.188A48.636,48.636,0,0,1,12.509.971a.412.412,0,0,1,.144-.216.144.144,0,0,1,.185-.02.093.093,0,0,1-.021.039.485.485,0,0,1,.226.02,1.864,1.864,0,0,1,.431.255Z" transform="translate(0.495 0)" fill="#2c3664"/>
              <path id="Path_44960" data-name="Path 44960" d="M3.578,1.047A.526.526,0,0,0,3.516.752.729.729,0,0,1,3.249.713,1.894,1.894,0,0,1,3,.5L2.736.34A1.864,1.864,0,0,0,2.3.084a.485.485,0,0,0-.226-.02A.093.093,0,0,0,2.1.025a.144.144,0,0,0-.185.02A.412.412,0,0,0,1.77.261,48.635,48.635,0,0,0,0,12.621a26.945,26.945,0,0,0,.37,5.188,33.709,33.709,0,0,0,.945,3.675q-.007-.142-.021-.295L1.01,18.143q-.019-.334-.041-.688a.212.212,0,0,0-.021-.039Q.3,7.4,2.51,1.224q.931-.167,1.048-.177Z" transform="translate(11.234 0.71)" fill="#1c2449"/>
            </g>
          </g>
          <g id="Group_52701" data-name="Group 52701" transform="translate(4.926 31.648)">
            <g id="Group_52700" data-name="Group 52700" transform="translate(0 0)">
              <path id="Path_44961" data-name="Path 44961" d="M6,.8A3.6,3.6,0,0,0,5.079.372,6.678,6.678,0,0,0,3.929.018,5.042,5.042,0,0,0,1.546.549Q.026,1.2.006,1.531A3.706,3.706,0,0,0,.54,3.555a2.86,2.86,0,0,0,3.2,1.435,2.72,2.72,0,0,0,2.4-1.965A2.359,2.359,0,0,0,6,.8Z" fill="#1c2449"/>
            </g>
          </g>
          <g id="Group_52703" data-name="Group 52703" transform="translate(4.641 34.928)">
            <g id="Group_52702" data-name="Group 52702" transform="translate(0 0)">
              <path id="Path_44962" data-name="Path 44962" d="M2.16,2.81a3.323,3.323,0,0,0,2.876-.2Q6.084,1.985,6,1.69a2.272,2.272,0,0,1-.924.727,4.125,4.125,0,0,1-2.691.059A3.285,3.285,0,0,1,.723,1.218Q0,.295.065,0-.161.059.394,1.179A3.059,3.059,0,0,0,2.16,2.81Z" fill="#1c2449"/>
            </g>
          </g>
          <g id="Group_52705" data-name="Group 52705" transform="translate(4.932 30.349)">
            <g id="Group_52704" data-name="Group 52704" transform="translate(0 0)">
              <path id="Path_44963" data-name="Path 44963" d="M.288,1.224A2.775,2.775,0,0,0,0,2.481,2.779,2.779,0,0,0,.9,4.564a3.036,3.036,0,0,0,2.177.865,3.036,3.036,0,0,0,2.177-.865,2.779,2.779,0,0,0,.9-2.083A2.763,2.763,0,0,0,5.484.634,2.609,2.609,0,0,1,5.71.949q-.4-.314-.493-.373A3.532,3.532,0,0,0,3.41.005,3.98,3.98,0,0,0,1.273.536a5.584,5.584,0,0,0-.986.688M1.52.988A2.181,2.181,0,0,1,3.081.359,2.181,2.181,0,0,1,4.642.988,1.958,1.958,0,0,1,5.3,2.481a2,2,0,0,1-.657,1.493,2.219,2.219,0,0,1-1.561.609A2.219,2.219,0,0,1,1.52,3.975,2,2,0,0,1,.863,2.481,1.958,1.958,0,0,1,1.52.988M3.369,5.174a3.031,3.031,0,0,1-1.15-.079A1.69,1.69,0,0,1,1.54,4.82a.185.185,0,0,1-.062-.138q0-.079.123-.079a.281.281,0,0,1,.164.059A2.766,2.766,0,0,0,3.533,4.9l.329-.079.205-.1a6.38,6.38,0,0,0,1.15-.766q.062-.059.062.059l-.041.1-.7.55v.059L4.231,4.9a.541.541,0,0,1-.267.118l-.6.157M3.081.359A2.181,2.181,0,0,0,1.52.988,1.958,1.958,0,0,0,.863,2.481,2,2,0,0,0,1.52,3.975a2.219,2.219,0,0,0,1.561.609,2.219,2.219,0,0,0,1.561-.609A2,2,0,0,0,5.3,2.481,1.958,1.958,0,0,0,4.642.988,2.181,2.181,0,0,0,3.081.359m.164.786q-.062,0-.062.039H2.65l-.37.138q-.021.039-.082,0a.063.063,0,0,1-.041-.059.213.213,0,0,1,.082-.138q.1-.079.1-.118L2.526.929A.788.788,0,0,1,3.06.909a.2.2,0,0,1,.164.079.13.13,0,0,1,.021.157m-1.479,1.1a.7.7,0,0,1,.472-.177.629.629,0,0,1,.452.177A.609.609,0,0,1,2.9,2.7a.55.55,0,0,1-.205.432.6.6,0,0,1-.452.2.664.664,0,0,1-.472-.2A.575.575,0,0,1,1.582,2.7a.64.64,0,0,1,.185-.452M3.43,1.872A.7.7,0,0,1,3.9,1.7a.871.871,0,0,1,.267.039.92.92,0,0,1,.185.138.609.609,0,0,1,.205.452.55.55,0,0,1-.205.432.564.564,0,0,1-.123.1.553.553,0,0,1-.329.1.664.664,0,0,1-.472-.2.575.575,0,0,1-.185-.432A.64.64,0,0,1,3.43,1.872Z" transform="translate(0 0.466)" fill="#6a78b7"/>
              <path id="Path_44964" data-name="Path 44964" d="M1.951,5.561A3.031,3.031,0,0,0,3.1,5.64l.6-.157a.541.541,0,0,0,.267-.118l.308-.177V5.129l.7-.55.041-.1q0-.118-.062-.059a6.38,6.38,0,0,1-1.15.766l-.205.1-.329.079A2.766,2.766,0,0,1,1.5,5.129a.281.281,0,0,0-.164-.059q-.123,0-.123.079a.185.185,0,0,0,.062.138,1.69,1.69,0,0,0,.678.275m.965-3.911q0-.039.062-.039a.13.13,0,0,0-.021-.157.2.2,0,0,0-.164-.079.788.788,0,0,0-.534.02l-.185.079q0,.039-.1.118a.213.213,0,0,0-.082.138.063.063,0,0,0,.041.059q.062.039.082,0l.37-.138h.534M0,1.69H.021A5.584,5.584,0,0,1,1.006,1,3.98,3.98,0,0,1,3.143.472a3.532,3.532,0,0,1,1.807.57q.092.059.493.373A2.609,2.609,0,0,0,5.217,1.1L5.053.924,5.032.9,4.991.865A3.036,3.036,0,0,0,2.814,0,3.036,3.036,0,0,0,.637.865l-.493.609Q.069,1.583,0,1.69Z" transform="translate(0.267 0)" fill="#929fd9"/>
              <path id="Path_44965" data-name="Path 44965" d="M2.321,0a.7.7,0,0,0-.472.177.64.64,0,0,0-.185.452.575.575,0,0,0,.185.432.664.664,0,0,0,.472.2.553.553,0,0,0,.329-.1.564.564,0,0,0,.123-.1A.55.55,0,0,0,2.978.629.609.609,0,0,0,2.773.177.92.92,0,0,0,2.588.039.871.871,0,0,0,2.321,0M.657.373A.7.7,0,0,0,.185.55.64.64,0,0,0,0,1a.575.575,0,0,0,.185.432.664.664,0,0,0,.472.2.6.6,0,0,0,.452-.2A.55.55,0,0,0,1.315,1,.609.609,0,0,0,1.109.55.629.629,0,0,0,.657.373Z" transform="translate(1.582 2.162)" fill="#1c2449"/>
            </g>
            <path id="Path_44966" data-name="Path 44966" d="M4.437,2.122a2,2,0,0,1-.657,1.493,2.219,2.219,0,0,1-1.561.609A2.219,2.219,0,0,1,.657,3.616,2,2,0,0,1,0,2.122,1.958,1.958,0,0,1,.657.629,2.181,2.181,0,0,1,2.218,0,2.181,2.181,0,0,1,3.779.629,1.958,1.958,0,0,1,4.437,2.122Z" transform="translate(0.863 0.825)" fill="none" stroke="#4d5b9c" stroke-linecap="round" stroke-linejoin="round" stroke-width="1.51"/>
          </g>
        </g>
        <g id="Group_52713" data-name="Group 52713" transform="translate(67.067 39.624) rotate(180)">
          <g id="Group_52708" data-name="Group 52708" transform="translate(0 0)">
            <g id="Group_52707" data-name="Group 52707">
              <path id="Path_44967" data-name="Path 44967" d="M.041,28.651Q.015,28.47,0,28.278,2.773,25.9,3.738,10.14,4.07,4.762,4.026,0q1.239,13.759-.657,22.245Q2.239,27.374.616,28.906A4.468,4.468,0,0,1,.041,28.651Z" transform="translate(0 7.074)" fill="#1c2449"/>
              <path id="Path_44968" data-name="Path 44968" d="M10.373,38.28A7.331,7.331,0,0,1,8.4,38.4q-.226,0-3.451-.157-.038,0-.082,0A20.035,20.035,0,0,1,.657,36.865,1.773,1.773,0,0,1,0,35.725a4.467,4.467,0,0,0,.575.255Q2.2,34.448,3.327,29.319q1.9-8.486.657-22.245-.01-.544-.021-1.081Q3.861.884,3.389,0,4.724,0,8.3.393a29.689,29.689,0,0,1,6.244,1.1,59.559,59.559,0,0,1,1.13,17.136,79.577,79.577,0,0,1-2.937,14.718Q11.235,38,10.373,38.28Z" transform="translate(0.041 0)" fill="#2c3664"/>
              <path id="Path_44969" data-name="Path 44969" d="M3.533,19.769A7.331,7.331,0,0,0,5.5,19.651q.863-.275,2.362-4.932A79.576,79.576,0,0,0,10.8,0Q10.7,2.039,10.5,4.205,9.366,16.526,6.758,20.712q-.349.55-5.443-.766L0,19.612q.044,0,.082,0Q3.307,19.769,3.533,19.769Z" transform="translate(4.909 18.629)" fill="#424d80"/>
            </g>
          </g>
          <g id="Group_52710" data-name="Group 52710" transform="translate(6.302 1.28)">
            <g id="Group_52709" data-name="Group 52709" transform="translate(0 0)">
              <path id="Path_44970" data-name="Path 44970" d="M.065,3.043q-.226-.059.329-1.179A3.059,3.059,0,0,1,2.16.233a3.323,3.323,0,0,1,2.876.2q1.048.629.965.924A2.272,2.272,0,0,0,5.077.626,4.125,4.125,0,0,0,2.386.567,3.285,3.285,0,0,0,.723,1.825Q0,2.749.065,3.043m.513,1.12a4.82,4.82,0,0,1,.062-.9,2.361,2.361,0,0,1,.616-1.179,3,3,0,0,1,1.13-.766,3.849,3.849,0,0,1,2.732.02A2.855,2.855,0,0,1,6.248,2a2.789,2.789,0,0,1,.8,2.338A2.618,2.618,0,0,1,6.433,6.07a1.452,1.452,0,0,1-.9.511.959.959,0,0,1-.965-.334A.738.738,0,0,1,4.481,5.4a.555.555,0,0,1,.308-.295.426.426,0,0,1,.431.039,1.5,1.5,0,0,0,.205-1.493A2.11,2.11,0,0,0,5.2,3.24a1.143,1.143,0,0,0-.616-.334A2.786,2.786,0,0,0,3.7,2.729a1.564,1.564,0,0,0-1.109.354A1.146,1.146,0,0,0,2.16,4.1a1.862,1.862,0,0,0,.822,1.218,1.29,1.29,0,0,1,.493.57.583.583,0,0,1-.062.452.7.7,0,0,1-.37.334A1.145,1.145,0,0,1,2.1,6.62a3.045,3.045,0,0,1-.76-.609A2.668,2.668,0,0,1,.682,4.95,3.828,3.828,0,0,1,.579,4.164Z" fill="#1c2449"/>
            </g>
          </g>
          <g id="Group_52712" data-name="Group 52712" transform="translate(7.045 2.849)">
            <g id="Group_52711" data-name="Group 52711" transform="translate(0 0)">
              <path id="Path_44971" data-name="Path 44971" d="M4.93,4.625q.082-.059.513-.393-.027.047-.062.1a1.688,1.688,0,0,1-.164.216l-.185.2L4.971,4.8a3.036,3.036,0,0,1-2.177.865A3.036,3.036,0,0,1,.616,4.8L.123,4.192A2.191,2.191,0,0,1,0,4a5.96,5.96,0,0,0,.986.668,3.98,3.98,0,0,0,2.136.531,3.532,3.532,0,0,0,1.807-.57M3.677.183A.541.541,0,0,1,3.944.3l.308.177V.537l.7.55.041.1q0,.118-.062.059A6.381,6.381,0,0,0,3.779.478L3.574.38,3.245.3A2.766,2.766,0,0,0,1.479.537.281.281,0,0,1,1.315.6Q1.191.6,1.191.517A.185.185,0,0,1,1.253.38,1.69,1.69,0,0,1,1.931.1,3.031,3.031,0,0,1,3.081.026l.6.157M1.869,3.937a.063.063,0,0,1,.041-.059q.062-.039.082,0l.37.138H2.9q0,.039.062.039a.13.13,0,0,1-.021.157.2.2,0,0,1-.164.079.788.788,0,0,1-.534-.02l-.185-.079q0-.039-.1-.118A.213.213,0,0,1,1.869,3.937Z" transform="translate(0.288 0.229)" fill="#929fd9"/>
              <path id="Path_44972" data-name="Path 44972" d="M6.162,2.948a2.771,2.771,0,0,1-.493,1.611q.034-.051.062-.1-.431.334-.513.393a3.532,3.532,0,0,1-1.807.57,3.98,3.98,0,0,1-2.136-.531,5.96,5.96,0,0,1-.986-.668.076.076,0,0,0,0-.039v.02A2.752,2.752,0,0,1,0,2.948,2.779,2.779,0,0,1,.9.865,3.036,3.036,0,0,1,3.081,0,3.036,3.036,0,0,1,5.258.865a2.779,2.779,0,0,1,.9,2.083M4.642,4.441A1.958,1.958,0,0,0,5.3,2.948a2,2,0,0,0-.657-1.493A2.219,2.219,0,0,0,3.081.845a2.219,2.219,0,0,0-1.561.609A2,2,0,0,0,.863,2.948,1.958,1.958,0,0,0,1.52,4.441a2.181,2.181,0,0,0,1.561.629,2.181,2.181,0,0,0,1.561-.629M4.231.531A.541.541,0,0,0,3.964.413l-.6-.157a3.031,3.031,0,0,0-1.15.079A1.69,1.69,0,0,0,1.54.609a.185.185,0,0,0-.062.138q0,.079.123.079A.281.281,0,0,0,1.766.766,2.766,2.766,0,0,1,3.533.531l.329.079.205.1a6.381,6.381,0,0,1,1.15.766q.062.059.062-.059l-.041-.1-.7-.55V.707L4.231.531M5.3,2.948a1.958,1.958,0,0,1-.657,1.493,2.181,2.181,0,0,1-1.561.629A2.181,2.181,0,0,1,1.52,4.441,1.958,1.958,0,0,1,.863,2.948,2,2,0,0,1,1.52,1.454,2.219,2.219,0,0,1,3.081.845a2.219,2.219,0,0,1,1.561.609A2,2,0,0,1,5.3,2.948m-.945.609A.609.609,0,0,0,4.56,3.1a.55.55,0,0,0-.205-.432l-.1-.1a.668.668,0,0,0-.822.1.575.575,0,0,0-.185.432.64.64,0,0,0,.185.452.7.7,0,0,0,.472.177.611.611,0,0,0,.267-.059.55.55,0,0,0,.185-.118M1.582,2.731a.64.64,0,0,0,.185.452.7.7,0,0,0,.472.177.629.629,0,0,0,.452-.177A.609.609,0,0,0,2.9,2.731.55.55,0,0,0,2.691,2.3a.6.6,0,0,0-.452-.2.664.664,0,0,0-.472.2.575.575,0,0,0-.185.432M2.2,4.107a.063.063,0,0,0-.041.059.213.213,0,0,0,.082.138q.1.079.1.118l.185.079a.788.788,0,0,0,.534.02.2.2,0,0,0,.164-.079.13.13,0,0,0,.021-.157q-.062,0-.062-.039H2.65l-.37-.138Q2.259,4.068,2.2,4.107Z" transform="translate(0)" fill="#6a78b7"/>
              <path id="Path_44973" data-name="Path 44973" d="M.185,1.081A.64.64,0,0,1,0,.629.575.575,0,0,1,.185.2.664.664,0,0,1,.657,0a.6.6,0,0,1,.452.2.55.55,0,0,1,.205.432.609.609,0,0,1-.205.452.629.629,0,0,1-.452.177.7.7,0,0,1-.472-.177M2.978,1a.609.609,0,0,1-.205.452.55.55,0,0,1-.185.118.611.611,0,0,1-.267.059.7.7,0,0,1-.472-.177A.64.64,0,0,1,1.664,1,.575.575,0,0,1,1.849.57a.668.668,0,0,1,.822-.1l.1.1A.55.55,0,0,1,2.978,1Z" transform="translate(1.582 2.103)" fill="#1c2449"/>
            </g>
            <path id="Path_44974" data-name="Path 44974" d="M4.437,2.1A2,2,0,0,0,3.779.609,2.219,2.219,0,0,0,2.218,0,2.219,2.219,0,0,0,.657.609,2,2,0,0,0,0,2.1,1.958,1.958,0,0,0,.657,3.6a2.181,2.181,0,0,0,1.561.629A2.181,2.181,0,0,0,3.779,3.6,1.958,1.958,0,0,0,4.437,2.1Z" transform="translate(0.863 0.845)" fill="none" stroke="#4d5b9c" stroke-linecap="round" stroke-linejoin="round" stroke-width="1.51"/>
          </g>
        </g>
        <g id="Group_52720" data-name="Group 52720" transform="translate(17.092 43.417)">
          <g id="Group_52717" data-name="Group 52717" transform="translate(0 0)">
            <g id="Group_52714" data-name="Group 52714" transform="translate(0)">
              <path id="Path_44975" data-name="Path 44975" d="M30.421.039a33.379,33.379,0,0,1-7.833,2,68.413,68.413,0,0,1-7.232.707A79.564,79.564,0,0,1,4.849,1.4,21.727,21.727,0,0,1,.8.236Q.424.12.138,0-.017,7.094,0,7.9a30.621,30.621,0,0,0,1.28,8.607Q4.171,25.468,14.33,26.43a1.475,1.475,0,0,0,.388.039,3,3,0,0,0,.562.02q.233,0,.6-.02a1.2,1.2,0,0,0,.349-.039q10.159-.963,13.048-9.924.108-.331.194-.688A31.478,31.478,0,0,0,30.557,7.9q.019-.8-.136-7.86M28,14.581q-.174.648-.388,1.258-2.559,7.683-8.686,9.275,6.126-1.592,8.686-9.275.213-.609.388-1.258a29.307,29.307,0,0,0,1.163-8.489A29.307,29.307,0,0,1,28,14.581M1.844,2.2A47.37,47.37,0,0,0,10.9,3.969Q21.406,5.129,28.657,2.1,21.406,5.129,10.9,3.969A47.37,47.37,0,0,1,1.844,2.2M1.379,6.092a29.307,29.307,0,0,0,1.163,8.489Q5,23.4,11.615,25.114,5,23.4,2.542,14.581A29.307,29.307,0,0,1,1.379,6.092Z" transform="translate(0 0)" fill="#6a78b7"/>
              <path id="Path_44976" data-name="Path 44976" d="M21.792,2.044a33.379,33.379,0,0,0,7.833-2q0-.021,0-.039-2.055.865-9.093,1.69a59.752,59.752,0,0,1-6.049.2,60.108,60.108,0,0,1-6.049-.2A53.212,53.212,0,0,1,0,.236,21.727,21.727,0,0,0,4.052,1.4,79.564,79.564,0,0,0,14.56,2.751,68.413,68.413,0,0,0,21.792,2.044Z" transform="translate(0.797 0)" fill="#929fd9"/>
            </g>
            <g id="Group_52715" data-name="Group 52715" transform="translate(1.79 2.048)">
              <path id="Path_44977" data-name="Path 44977" d="M26.867.075q.058,0,.019-.039,0-.059-.039-.02l-3.18,1-.892.2q-1.066.236-2.016.393-1.415.2-2.288.275L16.03,2.02q-1.26.039-2.54,0Q12.23,2,10.97,1.9L8.527,1.666q-1.241-.118-2.288-.295L.054.114Q.016.075.016.134-.023.173.035.173l4.13,1.14,6.766.963q1.144.1,2.559.138,1.435.039,2.54-.02h.33l2.152-.157Q19.636,2.118,20.8,1.9q.931-.157,2.036-.432L24.522,1Z" transform="translate(0 0)" fill="#4d5b9c"/>
            </g>
            <g id="Group_52716" data-name="Group 52716" transform="translate(1.165 6.052)">
              <path id="Path_44978" data-name="Path 44978" d="M.194,0,.174.02,0,2.535.213,5.483q.116.865.33,1.965L.7,8.1l.019.138.078.255.019.118.019.039v.039l.989,2.948.058.118.019.059.64,1.336.078.118.058.118.368.59.019.059.543.806.039.039.5.629.039.059.31.334.078.1.194.177.039.059.039.039.1.079.174.177,1.493,1.159a2.5,2.5,0,0,0,.368.216L7.5,18.2l.911.393.388.118.136.059,1.493.314q.039.039.039-.02l-.019-.039L8.259,17.941,8.2,17.882l-.078-.039-.155-.1L6.65,16.723l-.078-.079L6.4,16.507l-.388-.393-.078-.1-.427-.452L5.467,15.5l-.737-.943-.136-.216-.078-.1L4.5,14.188l-.039-.039-.136-.216a.212.212,0,0,0-.078-.1l-.058-.118L4.052,13.5l-.019-.059-.659-1.2-.039-.118L3.1,11.653l-.1-.255-.039-.059-.019-.059-.058-.118L1.9,8.371v-.02l-.019-.02v-.02l-.155-.491-.019-.138-.155-.472L.892,4.441.233.039A.035.035,0,0,0,.194,0M28.015.02,27.976,0l-.019.039L27.647,2.5,26.484,7.683l-.019.138L25.3,11.162l-.446.963-.019.059-.039.059L24.138,13.5l-.078.1L24,13.716l-.7,1.041q-.62.806-1.2,1.435l-.95.865-.33.236a2.314,2.314,0,0,1-.31.236l-.291.216-1.57.884-.911.393q-.058,0-.019.039,0,.059.039.02l.756-.118.349-.1h.058l.33-.1,1.26-.491.989-.55.078-.059.523-.334.039-.039.562-.432a13.37,13.37,0,0,0,1.415-1.454l.892-1.2.058-.118.368-.59,1.144-2.4,1.066-3.655q.213-1.1.33-1.965l.116-.924.078-2.987Z" transform="translate(0 0)" fill="#4d5b9c"/>
            </g>
          </g>
          <g id="Group_52719" data-name="Group 52719" transform="translate(7.912 6.904)">
            <g id="Group_52718" data-name="Group 52718" transform="translate(0 0)">
              <path id="Path_44979" data-name="Path 44979" d="M10.663,8.472a4.387,4.387,0,0,0,.291-.432,6.27,6.27,0,0,1-1.609,1.4,3.27,3.27,0,0,1-2.966.452,4.4,4.4,0,0,0-.95-.413,2.253,2.253,0,0,0-1.57.275q-.5.236-.756.334a3.2,3.2,0,0,1-.756.255A3.359,3.359,0,0,1,.019,9.71H0a3.183,3.183,0,0,0,.271.236l.737.511a.055.055,0,0,0,.039.02.262.262,0,0,0,.058.039,3.522,3.522,0,0,0,1.221.373,3.32,3.32,0,0,0,1.532-.216,7.167,7.167,0,0,1,.969-.295,1.428,1.428,0,0,1,.543.079q.174.039.523.157a3.342,3.342,0,0,0,1.454.177,1.74,1.74,0,0,0,.291-.059,4.68,4.68,0,0,0,1.978-1.12l1.047-1.14M10.023.16Q9.8.091,9.558.042a3.933,3.933,0,0,0-1.144,0H8.395A6.717,6.717,0,0,0,6.03.985l-.136.079-.446.295A3.45,3.45,0,0,0,5.2.651L5.118.494a3.067,3.067,0,0,0-.33-.472A5.418,5.418,0,0,1,5.235,1.3a5.583,5.583,0,0,1,.039,1.867A2.836,2.836,0,0,1,5.7,2.105q.058-.079.446-.472a2.445,2.445,0,0,1,.64-.491A8.809,8.809,0,0,1,10.023.16Z" transform="translate(2.365 3.784)" fill="#7c0029"/>
              <path id="Path_44980" data-name="Path 44980" d="M14.56,4.206a3.606,3.606,0,0,0-.795-1.788,2.9,2.9,0,0,0-1.377-.825,8.809,8.809,0,0,0-3.238.983,2.445,2.445,0,0,0-.64.491q-.388.393-.446.472A2.836,2.836,0,0,0,7.639,4.6,5.583,5.583,0,0,0,7.6,2.732a5.418,5.418,0,0,0-.446-1.277,3.558,3.558,0,0,0-.7-.688A3.707,3.707,0,0,0,4.149,0,4.009,4.009,0,0,0,1.861.826a4.067,4.067,0,0,0-1.435,2A9.418,9.418,0,0,0,0,5.778,8.542,8.542,0,0,0,.31,7.822,6.715,6.715,0,0,0,1.532,10.16a7.313,7.313,0,0,0,.853.983,3.359,3.359,0,0,0,2.327.629,3.2,3.2,0,0,0,.756-.255q.252-.1.756-.334a2.253,2.253,0,0,1,1.57-.275,4.4,4.4,0,0,1,.95.413,3.27,3.27,0,0,0,2.966-.452,6.27,6.27,0,0,0,1.609-1.4,4.387,4.387,0,0,1-.291.432A8.206,8.206,0,0,0,14.153,7.92a6.547,6.547,0,0,0,.407-3.714M14,4.717q.078-.079.194.609a4.523,4.523,0,0,1-.058,1.71,3.178,3.178,0,0,1-.407,1.041.7.7,0,0,1-.485.334,5.2,5.2,0,0,0,.717-2.083A3.756,3.756,0,0,0,14,4.717m-.252-1.356a.255.255,0,0,1,.136.02.722.722,0,0,1,.194.531q0,.216-.1.255a3.376,3.376,0,0,1-.213-.393A2.26,2.26,0,0,1,13.61,3.4a.334.334,0,0,1,.136-.039M1.338,3.2a8.708,8.708,0,0,0-.31,1.474,11.236,11.236,0,0,0,.465,4.028A6.624,6.624,0,0,1,.717,4.049,5.381,5.381,0,0,1,1.4,2.162a2,2,0,0,1,.814-.9A5.135,5.135,0,0,0,1.338,3.2Z" transform="translate(0 2.351)" fill="#903"/>
              <path id="Path_44981" data-name="Path 44981" d="M.429,3.419A8.708,8.708,0,0,1,.74,1.945,5.135,5.135,0,0,1,1.612,0,2,2,0,0,0,.8.9,5.381,5.381,0,0,0,.119,2.79,6.624,6.624,0,0,0,.895,7.448,11.236,11.236,0,0,1,.429,3.419m12.854-1.3a.255.255,0,0,0-.136-.02.334.334,0,0,0-.136.039,2.26,2.26,0,0,0,.155.373,3.376,3.376,0,0,0,.213.393q.1-.039.1-.255a.722.722,0,0,0-.194-.531m.31,1.945q-.116-.688-.194-.609a3.756,3.756,0,0,1-.039,1.611,5.2,5.2,0,0,1-.717,2.083.7.7,0,0,0,.485-.334,3.178,3.178,0,0,0,.407-1.041A4.524,4.524,0,0,0,13.594,4.068Z" transform="translate(0.598 3.609)" fill="#c84b75"/>
              <path id="Path_44982" data-name="Path 44982" d="M1.1.766.809.884.79.9a2.549,2.549,0,0,0-.659.924A1.113,1.113,0,0,0,.015,2.5,11.8,11.8,0,0,1,3.95.884a6.281,6.281,0,0,0-2,1.081q-.756.609-.64.747a3.5,3.5,0,0,1,.911-.059A5.2,5.2,0,0,1,3.33,2.79a5.584,5.584,0,0,0,.5-.393A4.939,4.939,0,0,0,5.249.531Q5.366.2,5.23.079A.409.409,0,0,0,4.939,0,9.711,9.711,0,0,0,1.1.766Z" transform="translate(9.233 0.603)" fill="#365815"/>
              <path id="Path_44983" data-name="Path 44983" d="M.853.59Q.734.857.62,1.159.5,1.5.388,1.828.155,2.592.019,3.262q-.01.06-.019.1l.136-.079A6.717,6.717,0,0,1,2.5,2.338H2.52a3.933,3.933,0,0,1,1.144,0q.376-.232.64-.432A5.2,5.2,0,0,0,3.2,1.769a3.5,3.5,0,0,0-.911.059q-.116-.138.64-.747A6.281,6.281,0,0,1,4.924,0,11.8,11.8,0,0,0,.989,1.611,1.113,1.113,0,0,1,1.105.943,2.549,2.549,0,0,1,1.764.02Z" transform="translate(8.259 1.487)" fill="#253e0d"/>
              <path id="Path_44984" data-name="Path 44984" d="M2.579.052A.254.254,0,0,0,2.346.013a.905.905,0,0,0-.388.314,10.91,10.91,0,0,0-1.687,3.1Q.12,3.858,0,4.277l.078.157a3.449,3.449,0,0,1,.252.707l.446-.295q.009-.038.019-.1.136-.67.368-1.435.111-.326.233-.668.114-.3.233-.57A5.3,5.3,0,0,1,2.559.524.539.539,0,0,0,2.695.269.222.222,0,0,0,2.579.052Z" transform="translate(7.484 0)" fill="#1d0d0c"/>
            </g>
          </g>
        </g>
      </g>
      <g id="Group_52728" data-name="Group 52728" transform="translate(129.905 133.124) rotate(12.788)">
        <g id="Group_52723" data-name="Group 52723" transform="translate(0 0)">
          <g id="Group_52722" data-name="Group 52722">
            <path id="Path_44985" data-name="Path 44985" d="M0,17.437A22.911,22.911,0,0,0,3.307,11.6a48.293,48.293,0,0,0,2.28-9.509Q5.628,1.828,5.833,0q-.041,3.327-.205,4.95Q4.6,14.726,0,17.437Z" transform="translate(12.132 31.214)" fill="#84553e"/>
            <path id="Path_44986" data-name="Path 44986" d="M7.675,49.576q-4.149-.144-6.1-5.114Q-.561,39.081.2,28.709q.062-.719.123-1.376.76-4.785,3.512-17.191A47.858,47.858,0,0,1,6.279,1.7l.205-.411A2.718,2.718,0,0,1,8.661.016a6.579,6.579,0,0,1,1.15.021A4.118,4.118,0,0,1,13.2,1.885q2.3,3.943,3.759,14.747a101.651,101.651,0,0,1,1.006,14.582q-.205,1.828-.246,2.095a48.293,48.293,0,0,1-2.28,9.509,22.911,22.911,0,0,1-3.307,5.833,8.336,8.336,0,0,1-1.7.6A10.411,10.411,0,0,1,7.675,49.576Z" fill="#a56b4e"/>
          </g>
        </g>
        <g id="Group_52725" data-name="Group 52725" transform="translate(0.001 1.701)">
          <g id="Group_52724" data-name="Group 52724" transform="translate(0 0)">
            <path id="Path_44987" data-name="Path 44987" d="M1.615,14.87Q3.793,4.7,6.277,0,5.123,2.612,3.156,11.892A182.047,182.047,0,0,0,.2,37.3,82.415,82.415,0,0,1,1.615,14.87Z" fill="#84553e"/>
          </g>
        </g>
        <g id="Group_52727" data-name="Group 52727" transform="translate(7.86 37.918)">
          <g id="Group_52726" data-name="Group 52726" transform="translate(0 0)">
            <path id="Path_44988" data-name="Path 44988" d="M4.929,2.477,2.465,0,0,2.477,2.465,4.954Zm-1.848,0H2.465V1.858m-.616.619h.616V3.1" transform="translate(0 0)" fill="none" stroke="rgba(0,0,0,0)" stroke-linecap="round" stroke-linejoin="round" stroke-width="0.077"/>
          </g>
        </g>
      </g>
      <g id="Group_52734" data-name="Group 52734" transform="translate(122.428 144.43)">
        <g id="Group_52733" data-name="Group 52733" transform="translate(0 0)">
          <g id="Group_52730" data-name="Group 52730">
            <g id="Group_52729" data-name="Group 52729">
              <path id="Path_44989" data-name="Path 44989" d="M237.806-131.235a5.886,5.886,0,0,0-.951-2.912q-1.112-1.772-1.869-1.6-.39.922-6.62,5.568-7.293,3.959-8.03,3.679-.275.56.707,2.4a5.944,5.944,0,0,0,2.1,2.159q1.343.836,8.331-2.948,6.674-4.872,6.329-6.344m-11.925,3.855a26.491,26.491,0,0,1,5.483-3.42,8.594,8.594,0,0,1,1.9,3.114,13.8,13.8,0,0,1-5.524,3.446A5.594,5.594,0,0,1,225.881-127.38Z" transform="translate(-220.276 135.76)" fill="#f5d8d1"/>
              <path id="Path_44990" data-name="Path 44990" d="M246.824-117.119a26.492,26.492,0,0,0-5.483,3.42,5.6,5.6,0,0,0,1.862,3.139,13.8,13.8,0,0,0,5.524-3.446A8.594,8.594,0,0,0,246.824-117.119Z" transform="translate(-235.736 122.079)" fill="#fff"/>
            </g>
          </g>
          <g id="Group_52732" data-name="Group 52732" transform="translate(1.786 6.758)">
            <g id="Group_52731" data-name="Group 52731">
              <path id="Path_44991" data-name="Path 44991" d="M226.987-104.207A2.747,2.747,0,0,0,228.3-103.2a44.363,44.363,0,0,1,2.724-7.16l-1.43.758Z" transform="translate(-226.987 110.361)" fill="rgba(0,0,0,0.3)"/>
            </g>
          </g>
        </g>
      </g>
      <g id="Group_52739" data-name="Group 52739" transform="matrix(0.375, 0.927, -0.927, 0.375, 157.198, 119.842)">
        <g id="Group_52736" data-name="Group 52736" transform="matrix(1, -0.01, 0.01, 1, 0, 0.204)">
          <g id="Group_52735" data-name="Group 52735" transform="translate(0 0)">
            <path id="Path_44992" data-name="Path 44992" d="M3.085,3.518q0,.008-.038.017l.019-.05q.028.017.019.033M11.842,15.55l.009-.108a12.035,12.035,0,0,0-1.072-3.867,4.633,4.633,0,0,0-.778-1,.118.118,0,0,0-.019-.017l-.2-.208Q7.382,9.887,5,9.255,2.838,8.64.713,7.883.4,7.775.077,7.667a2.226,2.226,0,0,0,0-.407A1.522,1.522,0,0,1,.2,6.628a1.124,1.124,0,0,1,.588-.574,7.474,7.474,0,0,1,1.869-.033,18.952,18.952,0,0,0,2.448.058q.918.2,1.831.416a4.085,4.085,0,0,0,.636.1A8.821,8.821,0,0,1,11.69,8.316a4.945,4.945,0,0,1,1.034,1.3,11.553,11.553,0,0,1,1.328,3.368l.171.773-.171-2.22a6.83,6.83,0,0,0-1.328-3.027q-.078-.1-.161-.191A5.181,5.181,0,0,0,11.1,7.143a16.667,16.667,0,0,0-4.165-1.63l-.218-.075A12.613,12.613,0,0,1,3.085,3.451,2.611,2.611,0,0,1,5.6,2.794q.675.124,1.338.283a12.217,12.217,0,0,1,3.691,1.364,11.223,11.223,0,0,1,2.694,1.38A7.593,7.593,0,0,1,15.3,7.858q.084.112.161.233t.142.225q.1.166.19.333a7.261,7.261,0,0,1,.522,5.563l.152.083a8.53,8.53,0,0,0,.683-6.337Q16.8,6.627,13.464,4.15T11.974.075L12.05,0q.067.05.133.108a15.209,15.209,0,0,1,3.15,1.8q1.063.89,2.03,1.871A16.555,16.555,0,0,1,19.7,6.811q.19.314.361.632.275.557.531,1.114a7.48,7.48,0,0,1,.664,3.526l-1.167,4.432-1.452,3.9q-4.344,8.847-8.994,7.31-6.51-1.687-2.685-13.513.026-.066.047-.133l-1.29.083a20.151,20.151,0,0,1-2.287.175Q.772,14.616.3,13.8a1.537,1.537,0,0,1-.218-1.389q1.406-.433,2.268-.773l-.028.025.588-.216q.085-.021.152-.033.565-.108-.028-.008l.389-.141L5.3,10.777a4.439,4.439,0,0,1,1.622,0l-.076-.042q.076.011.142.025a3.128,3.128,0,0,1,1.594.125,2.853,2.853,0,0,1,.465.3q.063.07.55.449a5.761,5.761,0,0,1,1.243,1.979A16.543,16.543,0,0,0,11.842,15.55Z" fill="#a56b4e"/>
            <path id="Path_44993" data-name="Path 44993" d="M16.395,14.22l-.152-.083a7.261,7.261,0,0,0-.522-5.563q-.085-.166-.19-.333-.069-.113-.142-.225t-.161-.233q-.229-.362-.484-.707a18.6,18.6,0,0,0-2.8-3.06Q9.231,1.6,11.9,0q-1.844,1.59,1.49,4.075t3.691,3.809a8.53,8.53,0,0,1-.683,6.337m-2.249-.541-.171-.773a11.553,11.553,0,0,0-1.328-3.368,4.945,4.945,0,0,0-1.034-1.3A8.821,8.821,0,0,0,7.5,6.52a4.085,4.085,0,0,1-.636-.1Q5.947,6.2,5.028,6A2.983,2.983,0,0,1,2.884,3.509l.085-.05q.038-.008.038-.017t-.019-.033l.019-.033A12.613,12.613,0,0,0,6.641,5.364l.218.075a16.667,16.667,0,0,1,4.165,1.63,5.181,5.181,0,0,1,1.461,1.173q.083.092.161.191a6.83,6.83,0,0,1,1.328,3.027l.171,2.22m-2.372,1.688-.009.108a16.543,16.543,0,0,1-1-1.938,5.761,5.761,0,0,0-1.243-1.979q-.487-.379-.55-.449a2.853,2.853,0,0,0-.465-.3,3.128,3.128,0,0,0-1.594-.125l-.1-.025q-2.333-.4-3.3-.59Q.712,9.325.019,7.684L0,7.592q.323.108.636.216,2.125.757,4.288,1.372,2.381.632,4.782,1.1l.2.208a.118.118,0,0,1,.019.017,4.633,4.633,0,0,1,.778,1A12.036,12.036,0,0,1,11.774,15.368Z" transform="translate(0.077 0.075)" fill="#84553e"/>
          </g>
        </g>
        <g id="Group_52738" data-name="Group 52738" transform="matrix(1, -0.01, 0.01, 1, 9.137, 23.338)">
          <g id="Group_52737" data-name="Group 52737" transform="translate(0 0)">
            <path id="Path_44994" data-name="Path 44994" d="M2.277,1,1.139,0,0,1,1.139,2ZM1.423,1H1.139V.748M.854,1h.285v.249" fill="none" stroke="rgba(0,0,0,0)" stroke-linecap="round" stroke-linejoin="round" stroke-width="0.033"/>
          </g>
        </g>
      </g>
      <g id="Group_52798" data-name="Group 52798" transform="matrix(-0.991, -0.135, 0.135, -0.991, 116.425, 126.553)">
        <g id="Group_52741" data-name="Group 52741" transform="translate(13.611 10.888)">
          <g id="Group_52740" data-name="Group 52740" transform="translate(0 0)">
            <path id="Path_44995" data-name="Path 44995" d="M7.984,18.465q-1.006-.205-1.458-.349a4.855,4.855,0,0,1-1.335-.657,5.122,5.122,0,0,1-1.109-1.13,4.605,4.605,0,0,1-.719-1.191,4.471,4.471,0,0,1-.144-1.54v-.349A2.77,2.77,0,0,1,1.74,13a2.863,2.863,0,0,1-1.6-1.623,2.066,2.066,0,0,1-.082-1.212,2.467,2.467,0,0,1,.6-1.048,3.173,3.173,0,0,1,1.294-.9,2.738,2.738,0,0,1,1.54-.164,2.6,2.6,0,0,1,1.376.76,2.339,2.339,0,0,1,.37.472q.265-.18.616-.39A8.437,8.437,0,0,1,7.2,8.175a4.174,4.174,0,0,1,1.335-.288q.015-.165.041-.308a7.615,7.615,0,0,1,.185-.739,2.776,2.776,0,0,1-1.191-.965A2.925,2.925,0,0,1,7.06,4.128V3.861a2.069,2.069,0,0,1-.349-.185,1.526,1.526,0,0,1-.719-.986,1.6,1.6,0,0,1,.082-.863,1.7,1.7,0,0,1,.37-.6A1.6,1.6,0,0,1,7.245.8a1.62,1.62,0,0,1,1.335.226Q8.68.96,8.785.9A3.329,3.329,0,0,1,10.613.6a3.13,3.13,0,0,1,1.6.431,2.425,2.425,0,0,1,.945,1.212q.057.141.1.288a3.081,3.081,0,0,1,1.4-1.849A4.249,4.249,0,0,1,16.98,0,3.6,3.6,0,0,1,18.85.452a2.3,2.3,0,0,1,1.13,1.5,3.686,3.686,0,0,0,.144.678,1.053,1.053,0,0,0,.308.37q.246.205.349.308a2.016,2.016,0,0,1,.575,1.027,1.824,1.824,0,0,1-.123,1.15,1.71,1.71,0,0,1-.822.822,1.557,1.557,0,0,1-1.13.1l-.308-.123q-.014.117-.041.246a1.8,1.8,0,0,1-1.253,1.356l-.062.021a1.855,1.855,0,0,1-.205.513l-.534.842a4.1,4.1,0,0,0-.288.657q-.123.349-.452,1.048l-.431.883q-.76,1.582-1.294,2.547a3.838,3.838,0,0,1-.739.945l-.308.76q-.123.308-.411.986a2.255,2.255,0,0,1-.616.8,3.057,3.057,0,0,1-1.109.472,6.826,6.826,0,0,1-1.54.308A8.876,8.876,0,0,1,7.984,18.465Z" fill="#1d0d0c"/>
          </g>
        </g>
        <g id="Group_52743" data-name="Group 52743" transform="translate(74.497 10.96)">
          <g id="Group_52742" data-name="Group 52742" transform="translate(0 0)">
            <path id="Path_44996" data-name="Path 44996" d="M7.895,11.984a6.821,6.821,0,0,1-.9-1.048,3.927,3.927,0,0,1-.431-1.212A3.885,3.885,0,0,1,6.539,8.41q-.123-.329-.185-.472a.846.846,0,0,0-.329-.411,1.565,1.565,0,0,0-.842-.082,2.546,2.546,0,0,1-1.15-.185.059.059,0,0,0-.041-.021A3.249,3.249,0,0,1,1.63,6.356,4.442,4.442,0,0,1,.4,4.857a3.7,3.7,0,0,1-.39-1.89A2.858,2.858,0,0,1,.767,1.2,2.449,2.449,0,0,1,2.39.318a2.537,2.537,0,0,1,2.054.7A4.354,4.354,0,0,1,5.389.544,5.475,5.475,0,0,1,6.744.3a5.711,5.711,0,0,1,1.54,0q.164.041.308.082A1.539,1.539,0,0,1,9.312.03a1.823,1.823,0,0,1,1.109.144A1.6,1.6,0,0,1,11.242,1,1.7,1.7,0,0,1,11.366,2.1a1.089,1.089,0,0,1-.062.226,2.873,2.873,0,0,1,.472,1.13q.062.329.1.739a4.728,4.728,0,0,1,1.089,0,5.692,5.692,0,0,1,.842.144,1.207,1.207,0,0,1,.041-.288,2.146,2.146,0,0,1,1.109-1.6,2.286,2.286,0,0,1,1.828-.185,2.59,2.59,0,0,1,1.479,1.109,2.27,2.27,0,0,1,.452,1.458,3.443,3.443,0,0,1-.39,1.273,2.1,2.1,0,0,1-1.315,1.253,7.2,7.2,0,0,1,.205.822,5.276,5.276,0,0,1-.041,2.074,5.359,5.359,0,0,1-2.321,3.368,3.246,3.246,0,0,1-1.582.637,4.222,4.222,0,0,1-1.191-.123l-.37-.082A5.32,5.32,0,0,1,10.667,14a3.542,3.542,0,0,1-2.136-1.13Z" fill="#1d0d0c"/>
          </g>
        </g>
        <g id="Group_52746" data-name="Group 52746" transform="translate(15.255 23.506)">
          <g id="Group_52745" data-name="Group 52745" transform="translate(0 0)">
            <g id="Group_52744" data-name="Group 52744">
              <path id="Path_44997" data-name="Path 44997" d="M9,13.025A8.52,8.52,0,0,0,9.2,15.038q-.452.6-.534.678A6.82,6.82,0,0,1,9,13.025M7.5,16.64l.041.164-.246.205a7.8,7.8,0,0,1-1.623,1.109.8.8,0,0,0-.1.041.518.518,0,0,1-.123-.062q-.534-.308-1.684-.842a7.126,7.126,0,0,1-1.54-1.027,5.541,5.541,0,0,1-1.027-1.5Q.947,14.2.516,12.984A8.128,8.128,0,0,1,0,10.786a8.158,8.158,0,0,1,.144-1.54Q.31,8.219.434,7.52a22.92,22.92,0,0,1,3.9-6.326,7.39,7.39,0,0,1,1.212-.8A3,3,0,0,1,6.821,0,1.363,1.363,0,0,1,8.033.475a2.316,2.316,0,0,1,.472,1.273q.041.288.082.555A14.119,14.119,0,0,1,8.3,4.214a7.782,7.782,0,0,1-.288.965A11.256,11.256,0,0,1,6.1,8.63a2.7,2.7,0,0,1-.719.678q-.123.082-.349.226a.4.4,0,0,0-.144.185,3.119,3.119,0,0,1-1.438.37.778.778,0,0,0-.308.041q-.205.082-.123.267a.5.5,0,0,0,.226.1,4.2,4.2,0,0,0,1.6-.164q.226-.082.411-.164a2.164,2.164,0,0,0,1.89-.8A10.563,10.563,0,0,0,8.629,7.582q-.082.863-.226,1.725-.205,1.212-.719,3.656A12.906,12.906,0,0,0,7.5,16.64Z" transform="translate(0.895 2.968)" fill="#a56b4e"/>
              <path id="Path_44998" data-name="Path 44998" d="M6.463,10.639a3.186,3.186,0,0,1-2.752-.329A7.155,7.155,0,0,1,.548,6.593a4.951,4.951,0,0,1-.431-3.2A32.789,32.789,0,0,1,1.329,0q-.123.7-.288,1.725A8.158,8.158,0,0,0,.9,3.266a8.128,8.128,0,0,0,.513,2.2q.431,1.212.678,1.746a5.541,5.541,0,0,0,1.027,1.5,7.126,7.126,0,0,0,1.54,1.027q1.15.534,1.684.842A.518.518,0,0,0,6.463,10.639Z" transform="translate(0 10.489)" fill="#b78871"/>
              <path id="Path_44999" data-name="Path 44999" d="M10.129,10.324,9.02,13.282A15.327,15.327,0,0,1,8.1,15.356q-.123.205-.637.965-.246.349-.575.8l-.678.883A8.52,8.52,0,0,1,6,15.993a6.82,6.82,0,0,0-.329,2.691l-.021.021a10.906,10.906,0,0,1-1.109,1.068L4.5,19.608a12.906,12.906,0,0,1,.185-3.677q.513-2.444.719-3.656.144-.863.226-1.725a10.563,10.563,0,0,1-1.479,1.787,2.164,2.164,0,0,1-1.89.8q-.185.082-.411.164a4.2,4.2,0,0,1-1.6.164.5.5,0,0,1-.226-.1q-.082-.185.123-.267a.778.778,0,0,1,.308-.041,3.119,3.119,0,0,0,1.438-.37.4.4,0,0,1,.144-.185q.226-.144.349-.226A2.7,2.7,0,0,0,3.1,11.6a11.256,11.256,0,0,0,1.91-3.451A7.782,7.782,0,0,0,5.3,7.182a14.119,14.119,0,0,0,.288-1.91Q5.549,5,5.508,4.717a2.316,2.316,0,0,0-.472-1.273,1.363,1.363,0,0,0-1.212-.472,3,3,0,0,0-1.273.39,7.39,7.39,0,0,0-1.212.8A17.836,17.836,0,0,1,2.673,2.807a.239.239,0,0,1,.062-.041L4.85,1.081A3.383,3.383,0,0,0,5.138.9a5.057,5.057,0,0,1,3-.883A5.594,5.594,0,0,1,9.9.424a2.256,2.256,0,0,1,1.273,1.232,3.9,3.9,0,0,1,.205,1.232,18,18,0,0,1-.39,4.868A20.611,20.611,0,0,1,10.129,10.324Z" transform="translate(3.893 0)" fill="#84553e"/>
            </g>
          </g>
        </g>
        <g id="Group_52749" data-name="Group 52749" transform="translate(100.809 44.819) rotate(180)">
          <g id="Group_52748" data-name="Group 52748" transform="translate(0 0)">
            <g id="Group_52747" data-name="Group 52747">
              <path id="Path_45000" data-name="Path 45000" d="M9,5.135A8.52,8.52,0,0,1,9.2,3.122q-.452-.6-.534-.678A6.82,6.82,0,0,0,9,5.135M7.5,1.52l.041-.164L7.294,1.15A7.8,7.8,0,0,0,5.671.041.8.8,0,0,1,5.568,0a.518.518,0,0,0-.123.062Q4.911.37,3.761.9a7.126,7.126,0,0,0-1.54,1.027,5.541,5.541,0,0,0-1.027,1.5Q.947,3.964.516,5.176A8.128,8.128,0,0,0,0,7.374a8.158,8.158,0,0,0,.144,1.54Q.31,9.941.434,10.639a22.92,22.92,0,0,0,3.9,6.326,7.39,7.39,0,0,0,1.212.8,3,3,0,0,0,1.273.39,1.363,1.363,0,0,0,1.212-.472,2.316,2.316,0,0,0,.472-1.273q.041-.288.082-.555a14.119,14.119,0,0,0-.288-1.91,7.782,7.782,0,0,0-.288-.965A11.256,11.256,0,0,0,6.1,9.53a2.7,2.7,0,0,0-.719-.678q-.123-.082-.349-.226a.4.4,0,0,1-.144-.185,3.119,3.119,0,0,0-1.438-.37.778.778,0,0,1-.308-.041q-.205-.082-.123-.267a.5.5,0,0,1,.226-.1,4.2,4.2,0,0,1,1.6.164q.226.082.411.164a2.164,2.164,0,0,1,1.89.8,10.563,10.563,0,0,1,1.479,1.787Q8.547,9.715,8.4,8.852,8.2,7.641,7.684,5.2A12.906,12.906,0,0,1,7.5,1.52Z" transform="translate(0.895 0.185)" fill="#a56b4e"/>
              <path id="Path_45001" data-name="Path 45001" d="M6.463.185A3.186,3.186,0,0,0,3.711.513,7.155,7.155,0,0,0,.548,4.231a4.951,4.951,0,0,0-.431,3.2,32.789,32.789,0,0,0,1.212,3.389q-.123-.7-.288-1.725A8.158,8.158,0,0,1,.9,7.559a8.128,8.128,0,0,1,.513-2.2q.431-1.212.678-1.746a5.541,5.541,0,0,1,1.027-1.5,7.126,7.126,0,0,1,1.54-1.027Q5.806.555,6.34.246A.518.518,0,0,1,6.463.185Z" fill="#b78871"/>
              <path id="Path_45002" data-name="Path 45002" d="M10.129,9.448,9.02,6.49A15.327,15.327,0,0,0,8.1,4.416q-.123-.205-.637-.965-.246-.349-.575-.8l-.678-.883A8.52,8.52,0,0,0,6,3.779a6.82,6.82,0,0,1-.329-2.691l-.021-.021A10.907,10.907,0,0,0,4.542,0L4.5.164a12.906,12.906,0,0,0,.185,3.677Q5.2,6.285,5.4,7.5q.144.863.226,1.725A10.563,10.563,0,0,0,4.152,7.435a2.164,2.164,0,0,0-1.89-.8q-.185-.082-.411-.164a4.2,4.2,0,0,0-1.6-.164.5.5,0,0,0-.226.1q-.082.185.123.267a.778.778,0,0,0,.308.041,3.119,3.119,0,0,1,1.438.37.4.4,0,0,0,.144.185q.226.144.349.226a2.7,2.7,0,0,1,.719.678,11.256,11.256,0,0,1,1.91,3.451,7.783,7.783,0,0,1,.288.965A14.119,14.119,0,0,1,5.59,14.5q-.041.267-.082.555a2.316,2.316,0,0,1-.472,1.273,1.363,1.363,0,0,1-1.212.472,3,3,0,0,1-1.273-.39,7.39,7.39,0,0,1-1.212-.8,17.836,17.836,0,0,0,1.335,1.356.239.239,0,0,0,.062.041L4.85,18.691a3.384,3.384,0,0,1,.288.185,5.057,5.057,0,0,0,3,.883A5.6,5.6,0,0,0,9.9,19.348a2.256,2.256,0,0,0,1.273-1.232,3.9,3.9,0,0,0,.205-1.232,18,18,0,0,0-.39-4.868A20.611,20.611,0,0,0,10.129,9.448Z" transform="translate(3.893 1.54)" fill="#84553e"/>
            </g>
          </g>
        </g>
        <g id="Group_52755" data-name="Group 52755" transform="translate(1.806 0)">
          <g id="Group_52751" data-name="Group 52751" transform="translate(19.323 0)">
            <g id="Group_52750" data-name="Group 52750" transform="translate(0)">
              <path id="Path_45003" data-name="Path 45003" d="M9.789,4.705Q2.655,7.473,0,11.216A17.776,17.776,0,0,1,6.37,5.034Q15.6.106,23.873,0q.976-.01,1.934.041Q34.4.533,42.742,6.431q6.049,4.27,10.613,15.076Q47.419,10.653,40.7,6.7a50.7,50.7,0,0,0-6.91-3.471A24.927,24.927,0,0,0,26.1,1.891,41.125,41.125,0,0,0,9.789,4.705Z" transform="translate(9.78 0)" fill="#b78871"/>
              <path id="Path_45004" data-name="Path 45004" d="M69.121,68.5a17.64,17.64,0,0,1-6.1,6.737,34.479,34.479,0,0,1-8.268,3.8,54.955,54.955,0,0,1-16.92,3L35.5,81.949A58.808,58.808,0,0,1,18.3,78.067a39.808,39.808,0,0,1-8.607-4.293,20.835,20.835,0,0,1-6.672-7.189A22.7,22.7,0,0,1,.84,60.464a43.528,43.528,0,0,1-.775-6.552A73.2,73.2,0,0,1,.39,43.848q.155-1.658.349-3.307a.4.4,0,0,1,.015-.164q.128-1.366.324-2.752.248-1.71.506-3.41.459-2.92,1.081-5.731,2.551-11.816,6.79-18.65l.114-.205a1.34,1.34,0,0,1,.211-.288Q12.435,5.6,19.57,2.831A41.125,41.125,0,0,1,35.877.017a24.927,24.927,0,0,1,7.69,1.335,50.7,50.7,0,0,1,6.91,3.471Q57.2,8.778,63.135,19.632a95.484,95.484,0,0,1,3.94,11.543Q67.713,33.563,68.3,36a.187.187,0,0,0,.022.082q.322,1.392.652,2.752.156,1,.373,1.992.527,2.7.964,5.422a69.4,69.4,0,0,1,1,9.818,43.19,43.19,0,0,1-.4,6.449A20.475,20.475,0,0,1,69.121,68.5Z" transform="translate(0 1.875)" fill="#a56b4e"/>
            </g>
          </g>
          <g id="Group_52754" data-name="Group 52754" transform="translate(0 31.858)">
            <g id="Group_52753" data-name="Group 52753" transform="translate(0 0)">
              <g id="Group_52752" data-name="Group 52752">
                <path id="Path_45005" data-name="Path 45005" d="M15.319,65.767a2.359,2.359,0,0,1-1.589-1.273,2.631,2.631,0,0,1-3.408,0,1.171,1.171,0,0,1-.413-.534,2.79,2.79,0,0,1,.756-3.718.779.779,0,0,1,.613-.185,2.026,2.026,0,0,0,1.043-.493,3.948,3.948,0,0,1,.415-1.6q2.078-4.211,6.431-3.923l.167-1.931a3.188,3.188,0,0,0-1.137.7,4.289,4.289,0,0,1-3.133,1.315A6.353,6.353,0,0,1,9.269,50.65a3.645,3.645,0,0,1-1.485,1.089,2.732,2.732,0,0,1-2.476-.164,4.159,4.159,0,0,1-2.192-4.416,5.075,5.075,0,0,1,1.41-3.143,2.723,2.723,0,0,1,4.239-.246q.251-.308.522-.6a6.9,6.9,0,0,1,5.579-2.259A6.13,6.13,0,0,1,13.9,40.5a9.39,9.39,0,0,1-2.953-2.341,14.558,14.558,0,0,1-1.864-.37A5.5,5.5,0,0,1,5.339,35.04a6.6,6.6,0,0,1-.486-6.162,11.629,11.629,0,0,1-1.547-.452A4.764,4.764,0,0,1,.177,24.75a4.828,4.828,0,0,1,.974-4.5,2.158,2.158,0,0,1-.913-2.074,2.226,2.226,0,0,1,1.2-1.931,1.439,1.439,0,0,1,1.335,0A2.148,2.148,0,0,1,3.791,19.1l2.767.616a8.308,8.308,0,0,1,.009-1.15,6.913,6.913,0,0,1,1.969-4.56,2.273,2.273,0,0,1-.719-2.28A1.352,1.352,0,0,1,9,10.578q2.219-.472,2.824,1.992l1.037.021a6.2,6.2,0,0,1-1.306-6.265,3.094,3.094,0,0,1,.492-.965,7.406,7.406,0,0,1,4.469-2.793A10.356,10.356,0,0,0,16.039,7.7q.1-.123.213-.246a3.235,3.235,0,0,1,1.234-.8,2.193,2.193,0,0,1,1.639.185L20.554,0q-.24,5.708-.117,10.413a49.784,49.784,0,0,0,.31,5.566,4.38,4.38,0,0,1,.974,1.376,3.044,3.044,0,0,1,.238,1.438,5.28,5.28,0,0,1-1.875,3.635,4.074,4.074,0,0,1,.982.205,1.444,1.444,0,0,1,.938,1.52,3.524,3.524,0,0,1-.433,1.664,5.706,5.706,0,0,1,4.676,1.191,7.931,7.931,0,0,1,3.137,5.443l2.8-.452q-.031-.411-.042-.822a6.908,6.908,0,0,1,.5-2.917,3.954,3.954,0,0,1-1.7-1.787,5.034,5.034,0,0,1-.334-3.512,1.5,1.5,0,0,1-1.51.164,1.818,1.818,0,0,1-.947-2.588,1.459,1.459,0,0,1,1.009-1.006q2.055-.657,2.479,1.766a3.267,3.267,0,0,1,1.352-.863,3.86,3.86,0,0,1,3.867.739,4.221,4.221,0,0,1,1.588,4.19l.639.041a7.072,7.072,0,0,1,4.673,3.266l.56,2.28q.6-.513,1.249-.965a4.306,4.306,0,0,1,3.485-.842l.162-.657a14.659,14.659,0,0,1-1.843-1.068,2.045,2.045,0,0,1-.823-1.7q-.1-2.9,2.325-3.2a2.056,2.056,0,0,1-.138-.7q.086-1.992,1.857-2.1a1.619,1.619,0,0,1,1.355.739q1.405,1.849-.273,3.184l.9,2.4a7,7,0,0,1,4.642.657,3.437,3.437,0,0,1,1.922,2.526,6.967,6.967,0,0,1,3.728,1.52,11.306,11.306,0,0,1,1.35,1.294A4.908,4.908,0,0,1,65.45,35.78l.88.123q.263-.575.546-1.171a2.382,2.382,0,0,1,1.244-1.171,8.733,8.733,0,0,1,5.635-.185l.764-1.212a6.31,6.31,0,0,1-.8-.781,5.722,5.722,0,0,1-.937-1.479,6.172,6.172,0,0,1-.106-4.642,4.626,4.626,0,0,1,.491-1.006A7.114,7.114,0,0,1,75.3,22.1a3.485,3.485,0,0,1,4.507.1,7.519,7.519,0,0,0-.06-.76,3.528,3.528,0,0,1,.705-2.67,4.484,4.484,0,0,1,3.777-1.849,2.406,2.406,0,0,1,1.266.39,3.964,3.964,0,0,0,.912.555Q86.995,1.89,88.2,1.561q.772-.205,2.9,3.944,1.092,2.054,2.124,4.087c1.166-.616-33.577,56.234-33.77,57.453-.378,2.246,1.681,6.626-.4,6.667-2.35.055.222,3.489-.535,1.052q-.6-.041-1.2-.1a7.465,7.465,0,0,1-5.943-3.8,5.2,5.2,0,0,1-2.263,1.807,8.151,8.151,0,0,1-2.214.657,6.4,6.4,0,0,1-6.037-2.855,3.665,3.665,0,0,1-2.472.719,3.381,3.381,0,0,1-2.453-1.54,2.551,2.551,0,0,1-.48.657c-.671.739-4.682-4.2-5.545-3.708-.981.589,1.217,6.289.106,5.987a7.434,7.434,0,0,1-2.143-1.13,4.352,4.352,0,0,1-1.693-3.635,5.319,5.319,0,0,1,.915-3,6.719,6.719,0,0,1,2.3-2.033,7.763,7.763,0,0,1-3.68,1.006A9.282,9.282,0,0,1,21.95,62.6c-.236,2.068-2.033-2.409-4.431-2.163C16.552,60.551,16.138,66.082,15.319,65.767Z" fill="#84553e"/>
              </g>
            </g>
          </g>
        </g>
        <g id="Group_52758" data-name="Group 52758" transform="matrix(0.989, 0.148, -0.148, 0.989, 45.474, 10.908)">
          <g id="Group_52757" data-name="Group 52757" transform="translate(0 0)">
            <g id="Group_52756" data-name="Group 52756" transform="translate(0 0)">
              <path id="Path_45006" data-name="Path 45006" d="M8.2,3.549a10.521,10.521,0,0,1-1.6.123H6.08l-.1-.021h-.1l-.1-.021H5.628l-.041-.021L2.752,3.138l-1.52-.452-.1-.021-.288-.1L.678,2.481.534,2.44.021,2.194,0,2.152l.041-.021.185-.021H5.874l.082.021H6l.041-.021L7.23,2.05l.082-.021h.1l.164-.041,1.047-.164,5.751-1.5.1-.041L15.651.016q.041-.041.041.021l-.021.041-.308.267-.9.657-2.013,1.15q-.822.39-1.273.555l-.164.082-.1.021-.082.041-1.643.513-.205.021Z" fill="#231915"/>
            </g>
          </g>
        </g>
        <g id="Group_52763" data-name="Group 52763" transform="translate(46.464 22.454)">
          <g id="Group_52760" data-name="Group 52760" transform="translate(0.703 0.029)">
            <g id="Group_52759" data-name="Group 52759" transform="translate(0 0)">
              <path id="Path_45007" data-name="Path 45007" d="M3.222,7.527H3.163L3.1,7.5H3.046l-.059-.029h-.5V7.439H2.343l-.381-.117a1.892,1.892,0,0,1-.556-.234l-.264-.176a.861.861,0,0,1-.234-.205L.791,6.59.586,6.326.322,5.887.146,5.418.059,4.979,0,3.573l.029-.088V3.4l.029-.059V3.192l.029-.146L.146,2.9l.059-.293.351-.791.5-.644L1.406.82,1.962.439,2.489.205,3.28,0h.293a.052.052,0,0,1,.059.059L2.9.82,2.812.937l-.117.117L2.607,1.2l-.059.059-.029.059L2.4,1.464l-.029.088-.059.088L2.284,1.7l-.059.088L2.2,1.874l-.059.059-.234.7-.088.41-.029.088v.088l-.029.117V3.69l-.029.059.029.966.029.088v.088l.088.264v.088l.088.234.029.059.059.059.029.088.088.117.059.059.029.059.234.205.146.088.088.029.059.029V6.3h.029l.059.029H2.9l.293.146.088.059L3.4,6.59l.088.059.176.176.059.029.029.059.176.264.059.176.029.029V7.41l.059.176V7.7l.029.146-.029.088v.176l-.059.117-.059.059-.029-.029-.059-.117-.205-.293a.716.716,0,0,0-.322-.264Z" transform="translate(0)" fill="#b78871"/>
            </g>
          </g>
          <g id="Group_52762" data-name="Group 52762" transform="translate(0 0)">
            <g id="Group_52761" data-name="Group 52761">
              <path id="Path_45008" data-name="Path 45008" d="M4.715,9.138,4.6,9.343l-.059.029L4.51,9.343l-.029-.234V8.991l-.029-.117V8.493l-.029-.059-.059-.059V8.347l-.176-.176-.059-.029L4.1,8.112l-.059-.029H4.012l-.029-.029L3.866,8l-.088-.029-.146-.029-.088-.029H3.456l-.146-.029H3.163l-.029-.029H2.812L2.753,7.82a2.443,2.443,0,0,1-.966-.293l-.41-.293-.351-.322L.879,6.736.82,6.619.732,6.531V6.5H.7q.029,0,0-.029V6.443L.644,6.355.586,6.238.556,6.209.469,6.033.41,5.945.234,5.506.029,4.715V4.6L0,4.393V3.632l.029-.146V3.4L.059,3.28V3.163l.117-.556.264-.644L.5,1.845l.059-.088a2.87,2.87,0,0,1,.556-.732L1.2.937,1.289.879,1.464.732,1.523.7,1.552.674,1.64.615,2.05.41,2.138.351,2.2.322h.059l.7-.234h.088L3.661,0h.41l.205.029.059.059L4.305.117,3.427.556,3.339.615,3.251.644,3.192.7,3.1.732,3.017.791,2.958.849,2.87.908,2.812.937l-.146.117-.059.029-.351.322-.029.059L1.992,1.7l-.029.088-.176.264-.029.059-.088.234a2.57,2.57,0,0,0-.176.586l-.088.5.029,1,.029.088v.059l.029.059v.117l.029.059.234.674.029.029v.029l.029.059.059.088L1.9,5.74,2.079,6l.41.439.117.088h.029l.029.029.234.117h.029l.029.029h.059l.029.029.322.088H3.4l.059.029.205.059.117.059.088.059.117.029.205.117.381.322.088.088.059.117.059.088L4.8,7.82v.029l.029.059a1.1,1.1,0,0,1,.117.5v.088L4.8,8.933l-.059.117Z" fill="#84553e"/>
            </g>
          </g>
        </g>
        <g id="Group_52780" data-name="Group 52780" transform="translate(26.748 28.658) rotate(1.747)">
          <g id="Group_52769" data-name="Group 52769" transform="translate(35.853 0)">
            <g id="Group_52768" data-name="Group 52768" transform="matrix(0.999, -0.044, 0.044, 0.999, 0, 0.331)">
              <g id="Group_52765" data-name="Group 52765" transform="translate(0 0)">
                <g id="Group_52764" data-name="Group 52764">
                  <path id="Path_45009" data-name="Path 45009" d="M7.559,4.934a5.571,5.571,0,0,1-1.117,3.5A3.263,3.263,0,0,1,3.78,9.868,3.312,3.312,0,0,1,1.1,8.434,5.634,5.634,0,0,1,0,4.934,5.555,5.555,0,0,1,1.1,1.452,3.3,3.3,0,0,1,3.78,0,3.252,3.252,0,0,1,6.442,1.452,5.493,5.493,0,0,1,7.559,4.934Z" fill="#231915"/>
                </g>
              </g>
              <g id="Group_52767" data-name="Group 52767" transform="translate(4.169 5.138)">
                <g id="Group_52766" data-name="Group 52766" transform="translate(0 0)">
                  <path id="Path_45010" data-name="Path 45010" d="M1.826,1.23a1.4,1.4,0,0,1-.3.838.746.746,0,0,1-.652.317A.8.8,0,0,1,.243,2.03,1.439,1.439,0,0,1,0,1.155,1.267,1.267,0,0,1,.3.336.78.78,0,0,1,.969,0a.737.737,0,0,1,.614.372A1.318,1.318,0,0,1,1.826,1.23Z" fill="#fff"/>
                </g>
              </g>
            </g>
          </g>
          <g id="Group_52771" data-name="Group 52771" transform="translate(32.551 4.999)">
            <g id="Group_52770" data-name="Group 52770" transform="translate(0 0)">
              <path id="Path_45011" data-name="Path 45011" d="M7.108,7.689,5.827,7.326l-.085-.043-.192-.064-1.623-.9L2.879,5.468,2.11,4.656,1.683,4.1l-.6-.918-.726-1.6L.1.619.017.043Q-.026,0,.038,0L.081.021.957,1.452l.064.128.726.918.064.064.043.064.534.577.064.085.085.064.3.3.171.128.15.15.171.128.107.107q.02,0,0-.021l.064.064.192.15.043.021.043.043L4.844,5.1l.107.043.043.043.171.064.085.064.214.107.79.3.043.021.769.214.6.107h.043l.064.021,1.837.043.961-.15.107-.043.128-.021.043-.021,1.175-.406.107-.064.214-.085.085-.064.214-.107.192-.128L12.939,5,14.755,3.61l.214-.214.085-.064.128-.15.15-.128L17.446.662V.641h.064V.683l-.79,1.858-.085.128-.085.171-.043.064-.043.085L15.5,4.421l-.085.085-.128.192-.833.876-1.025.833-.235.15-.107.085-.619.342-.064.043-.064.021-.256.128-1.111.406-.15.021a5.3,5.3,0,0,1-1.175.214l-.6.043-1.5-.085-.064-.021H7.429l-.021-.021Z" fill="#231915"/>
            </g>
          </g>
          <g id="Group_52777" data-name="Group 52777" transform="translate(4.481 0.151)">
            <g id="Group_52776" data-name="Group 52776" transform="translate(0 0)">
              <g id="Group_52773" data-name="Group 52773" transform="translate(0 0)">
                <g id="Group_52772" data-name="Group 52772">
                  <path id="Path_45012" data-name="Path 45012" d="M7.559,4.934a5.571,5.571,0,0,1-1.117,3.5A3.263,3.263,0,0,1,3.78,9.868,3.312,3.312,0,0,1,1.1,8.434,5.635,5.635,0,0,1,0,4.934,5.555,5.555,0,0,1,1.1,1.452,3.3,3.3,0,0,1,3.78,0,3.252,3.252,0,0,1,6.442,1.452,5.493,5.493,0,0,1,7.559,4.934Z" fill="#231915"/>
                </g>
              </g>
              <g id="Group_52775" data-name="Group 52775" transform="translate(4.169 5.138)">
                <g id="Group_52774" data-name="Group 52774" transform="translate(0 0)">
                  <path id="Path_45013" data-name="Path 45013" d="M1.826,1.23a1.4,1.4,0,0,1-.3.838.746.746,0,0,1-.652.317A.8.8,0,0,1,.243,2.03,1.439,1.439,0,0,1,0,1.155,1.267,1.267,0,0,1,.3.336.78.78,0,0,1,.969,0a.737.737,0,0,1,.614.372A1.318,1.318,0,0,1,1.826,1.23Z" fill="#fff"/>
                </g>
              </g>
            </g>
          </g>
          <g id="Group_52779" data-name="Group 52779" transform="translate(0 4.529)">
            <g id="Group_52778" data-name="Group 52778" transform="translate(0 0)">
              <path id="Path_45014" data-name="Path 45014" d="M2.281,5.019l-.064-.085-.235-.256-.94-1.346-.171-.32L.829,2.948.807,2.9.786,2.883l-.128-.3L.572,2.456.017,1Q-.026.961.038.961L.081.983l.171.192L.337,1.3l.7.876,1.88,1.88.043.021.043.043.256.192.043.043.043.021,1.2.79.085.043.021.021.513.256.128.043.021.021.726.278.107.021.064.021.043.021,1.068.235h.107l.256.043H7.92l.128.021H8.9l.064-.021h.171l.128-.021h.128l.47-.085h.064l.064-.021L10.248,6l.128-.043.7-.171,1.367-.534.107-.064.107-.043.107-.064.064-.021.043-.043a9.342,9.342,0,0,0,.812-.47l.726-.513.085-.085.107-.064.085-.085h.021l.214-.192a.628.628,0,0,0,.171-.15l.32-.256.064-.085.064-.064.085-.064.449-.491.128-.107L17.019,1.3l.021-.064.085-.107.021-.064.043-.043.064-.107L17.3.812l.064-.085.171-.342.043-.128L17.7.021,17.745,0q.064,0,.021.043l-.021.406L17.382,1.9l-.128.3L16.229,3.93l-.641.748-.021.043h-.021v.021l-1,.961-.064.043-.043.021-.769.577-1.239.683-.278.107-.128.064-1.538.491-.15.021-.064.021h-.064l-.748.128h-.15L8.689,7.9,7.194,7.8l-.043-.021H7.108l-.064-.021-.3-.043L5.357,7.262l-.384-.171-.256-.15L4.652,6.92l-.085-.043L3.883,6.45,3.84,6.408l-.064-.043q-.128-.107-.406-.32L3.157,5.9Z" fill="#231915"/>
            </g>
          </g>
        </g>
        <g id="Group_52783" data-name="Group 52783" transform="matrix(0.978, -0.207, 0.207, 0.978, 57.491, 49.94)">
          <g id="Group_52782" data-name="Group 52782" transform="translate(0 0)">
            <g id="Group_52781" data-name="Group 52781">
              <path id="Path_45015" data-name="Path 45015" d="M6.05,3.227a43.675,43.675,0,0,0-4.742-.555A1.367,1.367,0,0,1,.283,2.244a1.19,1.19,0,0,1-.278-.918Q.112-.34,4.234.087a55.336,55.336,0,0,1,6,1.2,16.019,16.019,0,0,0,8.33-.47,11.013,11.013,0,0,1-8.181,3.012Q9.168,3.718,6.05,3.227Z" fill="#1d0d0c"/>
            </g>
          </g>
        </g>
        <g id="Group_52786" data-name="Group 52786" transform="translate(43.364 52.545) rotate(-162.413)">
          <g id="Group_52785" data-name="Group 52785" transform="translate(0 0)">
            <g id="Group_52784" data-name="Group 52784">
              <path id="Path_45016" data-name="Path 45016" d="M6.05.628a43.675,43.675,0,0,1-4.742.555A1.367,1.367,0,0,0,.283,1.61a1.19,1.19,0,0,0-.278.918Q.112,4.195,4.234,3.768a55.336,55.336,0,0,0,6-1.2,16.019,16.019,0,0,1,8.33.47A11.013,11.013,0,0,0,10.386.03Q9.168.137,6.05.628Z" fill="#1d0d0c"/>
            </g>
          </g>
        </g>
        <g id="Group_52788" data-name="Group 52788" transform="translate(18.203 27.786)">
          <g id="Group_52787" data-name="Group 52787" transform="translate(0 0)">
            <path id="Path_45017" data-name="Path 45017" d="M1.933,34.491Q1.317,33.567.557,26.6A54.869,54.869,0,0,1,.126,15.677q.185-1.746.37-3.2v-.041a.388.388,0,0,0,.021-.123L.968,9.33A36,36,0,0,1,2.549,3.169,12.259,12.259,0,0,1,3.741.6.212.212,0,0,0,3.782.519.059.059,0,0,0,3.8.478.059.059,0,0,0,3.843.457,2.8,2.8,0,0,0,4.049.231a.751.751,0,0,1,.6-.226q.575.144.513,1.212L4.4,11.877Q4.192,15.7,3.1,25.351,2.056,34.7,1.933,34.491M77.7,26.255q.472,7,.041,8.01-.082.226-2.773-8.791-2.773-9.3-3.635-13.022L68.686,2.08q-.246-1.048.288-1.273a.739.739,0,0,1,.637.1q.1.082.246.185a.059.059,0,0,0,.041.021.059.059,0,0,0,.021.041l.062.062A13.709,13.709,0,0,1,71.6,3.538a38.242,38.242,0,0,1,2.65,5.792l.965,2.855a.972.972,0,0,0,.041.123.488.488,0,0,0,.021.062V12.35q.431,1.4.924,3.081A56.594,56.594,0,0,1,77.7,26.255Z" fill="#1d0d0c"/>
          </g>
        </g>
        <g id="Group_52795" data-name="Group 52795" transform="translate(0 31.819)">
          <g id="Group_52790" data-name="Group 52790" transform="translate(0.26 0)">
            <g id="Group_52789" data-name="Group 52789" transform="translate(0 0)">
              <path id="Path_45018" data-name="Path 45018" d="M28.306,73.641a6.849,6.849,0,0,1-2.1-1.175,4.343,4.343,0,0,1-1.564-3.737,5.48,5.48,0,0,1,1.023-3.048,7.071,7.071,0,0,1,2.393-2.087,7.677,7.677,0,0,1-3.744,1.023,9.278,9.278,0,0,1-3.727-1.277q-.452,3.178-4.066,3.505a5.541,5.541,0,0,1-2.661-.34,2.346,2.346,0,0,1-1.546-1.333A2.576,2.576,0,0,1,8.9,65.131a1.2,1.2,0,0,1-.389-.539,2.943,2.943,0,0,1,.886-3.81A.762.762,0,0,1,10,60.6a2,2,0,0,0,1.058-.48,4.417,4.417,0,0,1,.477-1.638q2.23-4.287,6.572-3.947l.229-1.969a3.589,3.589,0,0,0-1.167.7A4.322,4.322,0,0,1,14,54.593a6.192,6.192,0,0,1-5.677-3.622,3.836,3.836,0,0,1-1.51,1.091,2.708,2.708,0,0,1-2.466-.194,4.2,4.2,0,0,1-2.041-4.543,5.415,5.415,0,0,1,1.507-3.207q2.107-2.173,4.256-.2a6.15,6.15,0,0,1,.541-.61,6.888,6.888,0,0,1,5.648-2.233,7.941,7.941,0,0,1-.962-.443A9.127,9.127,0,0,1,10.435,38.2a14.109,14.109,0,0,1-1.856-.392A5.42,5.42,0,0,1,4.934,34.95a6.852,6.852,0,0,1-.276-6.309,9.646,9.646,0,0,1-1.516-.491,4.73,4.73,0,0,1-3.012-3.8,5.11,5.11,0,0,1,1.124-4.588,2.186,2.186,0,0,1-.825-2.126A2.324,2.324,0,0,1,1.7,15.684a1.34,1.34,0,0,1,1.323.016,2.175,2.175,0,0,1,.926,2.928l2.748.67a9.94,9.94,0,0,1,.044-1.191,7.266,7.266,0,0,1,2.125-4.637,2.3,2.3,0,0,1-.645-2.329A1.416,1.416,0,0,1,9.442,9.964Q11.68,9.518,12.2,12.03l1.037.033a6.4,6.4,0,0,1-1.1-6.422,3.437,3.437,0,0,1,.526-.98,7.694,7.694,0,0,1,4.579-2.8,10.845,10.845,0,0,0-.664,5.251,1.967,1.967,0,0,1,.216-.244,3.2,3.2,0,0,1,1.257-.807,2.087,2.087,0,0,1,1.643.2L23.066,0q-.443,1.884-1.129,7.772Q21.23,14.008,21,15.628a4.474,4.474,0,0,1,.919,1.428,3.042,3.042,0,0,1,.186,1.481,5.648,5.648,0,0,1-1.993,3.694,3.833,3.833,0,0,1,.964.217,1.448,1.448,0,0,1,.9,1.572,3.815,3.815,0,0,1-.495,1.678,5.575,5.575,0,0,1,4.639,1.288,8,8,0,0,1,2.945,5.6l2.81-.439q-.015-.411-.012-.822a7.481,7.481,0,0,1,.594-2.992,3.8,3.8,0,0,1-1.631-1.848,5.194,5.194,0,0,1-.224-3.6,1.43,1.43,0,0,1-1.5.146q-1.6-.759-.857-2.66a1.528,1.528,0,0,1,1.026-1.015q2.078-.632,2.418,1.837a3.682,3.682,0,0,1,1.383-.867,3.78,3.78,0,0,1,3.838.806,4.322,4.322,0,0,1,1.453,4.31l.643.049a6.919,6.919,0,0,1,4.552,3.4l.484,2.327q.612-.506,1.276-.971a4.336,4.336,0,0,1,3.51-.821l.184-.655a14.9,14.9,0,0,1-1.8-1.131,2.031,2.031,0,0,1-.774-1.755q0-2.958,2.437-3.237a1.85,1.85,0,0,1-.1-.72q.14-2.032,1.91-2.113a1.583,1.583,0,0,1,1.335.755,2.12,2.12,0,0,1-.381,3.261l.822,2.475a6.674,6.674,0,0,1,4.607.733,3.4,3.4,0,0,1,1.841,2.59,6.836,6.836,0,0,1,3.671,1.605A12,12,0,0,1,63.9,32.594a4.925,4.925,0,0,1,1.1,3.834l.893.134q.272-.592.581-1.184a2.574,2.574,0,0,1,1.278-1.2,8.547,8.547,0,0,1,5.632-.118l.813-1.223a7.638,7.638,0,0,1-.763-.81,5.6,5.6,0,0,1-.9-1.531,6.4,6.4,0,0,1,.07-4.744,4.443,4.443,0,0,1,.526-1.021,7.417,7.417,0,0,1,2.2-2.192,3.417,3.417,0,0,1,4.5.157q0-.37-.03-.76a3.718,3.718,0,0,1,.788-2.723,4.544,4.544,0,0,1,3.839-1.864,2.25,2.25,0,0,1,1.248.426,3.926,3.926,0,0,0,.908.565Q87.716,2.006,88.916,1.691q.788-.2,2.777,4.059,1,2.128,1.972,4.214A4.211,4.211,0,0,1,97.1,9.616,3.732,3.732,0,0,1,99.162,11.3l1.515-1.79.9,1.182a1.752,1.752,0,0,1,.281.722,7.231,7.231,0,0,1-.982,4.774l.64.46a4.957,4.957,0,0,1,1.226-1.444,4.442,4.442,0,0,1,2.009-.941,3.91,3.91,0,0,1,4.182,2.618,4.138,4.138,0,0,1-.008,3.615q-1.416,2.982-4.309,2.578a5.034,5.034,0,0,1-.5,2.664,4.946,4.946,0,0,1-3.687,2.975,5.021,5.021,0,0,1,1.1,1.41,7.374,7.374,0,0,1,.8,2.906,5,5,0,0,1,1.41.346,6.376,6.376,0,0,1,1.975,1.277,5.761,5.761,0,0,1,1.544-.926,3.244,3.244,0,0,1,2.378-.013,3.3,3.3,0,0,1,2.228-1.514,3.231,3.231,0,0,1,2.5.913,2.957,2.957,0,0,1,.9,2q.16,2.57-2.148,2.809a4.884,4.884,0,0,1-.257,3.407,3.266,3.266,0,0,1-.831,1.181,4.562,4.562,0,0,1-5.637.713q-.722.916-1.5,1.728a1.842,1.842,0,0,1-.79.463,8.234,8.234,0,0,1-5.911-.851.934.934,0,0,1,.082.987,1.8,1.8,0,0,1-.614.814,6.667,6.667,0,0,1,3.086.982,4.274,4.274,0,0,1,1.685,1.848,1.182,1.182,0,0,1,1.376.037,1.907,1.907,0,0,1-1.294,3.415,3.5,3.5,0,0,1-.921,1.242,4.638,4.638,0,0,1-5.171.6,16.862,16.862,0,0,1-1.726,1.335,5.77,5.77,0,0,1-3.547.985,5.1,5.1,0,0,1,.034,2.773,3.061,3.061,0,0,1-.363.817,3.513,3.513,0,0,1-3.427,1.726l1.152,1.452a3.224,3.224,0,0,1,2.044-.818,3.98,3.98,0,0,1,2.676.73,3.561,3.561,0,0,1,2.611-2.6q1.647-.371,1.83,1.6a2.155,2.155,0,0,1-1.431,2.551A3.657,3.657,0,0,1,95.5,68.1a5.18,5.18,0,0,1-6,1.962,6.509,6.509,0,0,1-4.5,4.013,6.437,6.437,0,0,1-6.511-2.05,8.143,8.143,0,0,1-5.747,1.164,8.463,8.463,0,0,1-1.445-.387,4.746,4.746,0,0,1-2.413-2.514q-.307.366-.613.691a5.916,5.916,0,0,1-3.7,1.948,5.265,5.265,0,0,1,.493,3.539q-.669,3.443-3.8,3.467-3.522.04-4.55-3.711-.59-.048-1.179-.117a7.23,7.23,0,0,1-5.817-3.952A5.426,5.426,0,0,1,47.4,73.972a8.22,8.22,0,0,1-2.239.631,6.163,6.163,0,0,1-5.932-2.988,3.7,3.7,0,0,1-2.508.709,3.246,3.246,0,0,1-2.384-1.61,2.988,2.988,0,0,1-.505.672,9.769,9.769,0,0,1-2.373,1.861A3.8,3.8,0,0,1,28.306,73.641Z" fill="#1d0d0c"/>
            </g>
          </g>
          <g id="Group_52792" data-name="Group 52792" transform="translate(2.787 1.923)">
            <g id="Group_52791" data-name="Group 52791" transform="translate(0 0)">
              <path id="Path_45019" data-name="Path 45019" d="M10.249,21.556a6.447,6.447,0,0,1-2.173-3.539q-.795-3.83.633-5.867a3.087,3.087,0,0,1,1.6-1.275,3.715,3.715,0,0,0,.33,1.36q-1.906,1.456-1.016,4.548a18.79,18.79,0,0,0,4.223,6.809,10.125,10.125,0,0,1-3.6-2.036M14.7,0a12.287,12.287,0,0,0-.538,2.684,20.519,20.519,0,0,0-.082,3.9L11.017,9.364a6.137,6.137,0,0,1,.02-5.2A8.837,8.837,0,0,1,14.7,0m3.485,24.835.166-.717a7.317,7.317,0,0,0,.119-1.56q-.126-2.282-2.147-2.306.216-.2.792-.689a4.937,4.937,0,0,0,.958-1.509,6.953,6.953,0,0,0,.39-4.535,4.5,4.5,0,0,1,1.147,2.027Q20.286,18,18,20.149q1.517.429,1.814,1.357a3.175,3.175,0,0,1-.283,2.071,3.327,3.327,0,0,1,2.716.135,6.005,6.005,0,0,1,2.932,2.418,12.314,12.314,0,0,1,1.49,6.612l-.257,3.427q.272-5.5-1.709-8.442a7.557,7.557,0,0,0-2.414-2.453,6.043,6.043,0,0,0-4.109-.439M15.885,40.6q3.483-2.033,5.8-1.2,2.283.808,3.311,4.374-2.607-5.331-8.976-2.285-3.92-1.813-6.5-1.043a10.539,10.539,0,0,0-4.055,2.067Q2.013,40.52,0,44.4q.7-3.134,2.76-3.459a3.079,3.079,0,0,1,2.658.812,6.231,6.231,0,0,1,4.631-2.594A9.148,9.148,0,0,1,15.885,40.6M41.5,29.3a9.5,9.5,0,0,1,1.59,2.669q-.178-.166-.922-1.079a3.611,3.611,0,0,0-1.066-.958,6,6,0,0,0-2.4-4.281,5.309,5.309,0,0,0-3.369-1.314q-.35-6.043-5.322-5.651a2.929,2.929,0,0,1,2.328-.547,5.238,5.238,0,0,1,3.1,1.742,6.756,6.756,0,0,1,.977,3.4A8.421,8.421,0,0,1,40.5,25.821,4.984,4.984,0,0,1,41.5,29.3m54.14-15.457q-1.892-.413-2.982-.549a12.043,12.043,0,0,1,2.717.053,7.2,7.2,0,0,1,3.478,1.192,3.623,3.623,0,0,1,3.521-2.32,4.42,4.42,0,0,1,3.156,1.168,5.592,5.592,0,0,1,1.183,2.027,5.72,5.72,0,0,1,.168,1.44q-.074-2.137-3.375-3.039-3.408-.9-4.757,2.655a4.828,4.828,0,0,0-3.11-2.625M70.512,31.931a4.348,4.348,0,0,1,2.081,1.442q-3.654-1.482-5.372-1.3-2.111.242-3.472,2.937-.429-.067-1.626-.143A9.532,9.532,0,0,0,60.24,30.8a6.3,6.3,0,0,0-4.274-2.331,6.49,6.49,0,0,0-4.317-3.77,10.383,10.383,0,0,0-2.071-.395l-.876-.031,1.056-.131a11.714,11.714,0,0,1,2.413.07q3.608.516,4.3,3.359A6.956,6.956,0,0,1,62.646,34.4q.018,0,.482.129.285.086.3,0a4.461,4.461,0,0,1,1.752-2.506,5.876,5.876,0,0,1,2.775-.6,6.275,6.275,0,0,1,2.553.5M87.081,64.482q-1.006-1.861-1.129-2.068a5.8,5.8,0,0,0-1.739-1.808q-2.634-1.613-7.5,1.02a5.992,5.992,0,0,0-1.247-3.014,8.934,8.934,0,0,0-2.9-1.76,15.208,15.208,0,0,1,2.8.752,2.808,2.808,0,0,1,1.914,2.282,8.254,8.254,0,0,1,2.152-.858A6.672,6.672,0,0,1,81.8,58.79q4.323.5,5.286,5.692m12.74-33.556a7.784,7.784,0,0,1,1.605.512,6.2,6.2,0,0,1,1.816,1.069,3.481,3.481,0,0,1,1.472-.866,4.011,4.011,0,0,1,2.4-.095q1.625-2.178,3.78-1.126a3.21,3.21,0,0,1,1.4,1.27,2.636,2.636,0,0,1,.434,1.772,4.768,4.768,0,0,0-2.541-2.105,2.726,2.726,0,0,0-2.565,1.14,3.015,3.015,0,0,0-2.718.029,2.6,2.6,0,0,0-1.061.809,2.728,2.728,0,0,0-.489.9q.022-.513-1.384-1.5a4.45,4.45,0,0,0-3.086-.92,5.756,5.756,0,0,0-2.4-4.609q-2.206-1.505-6.79-.533a10.619,10.619,0,0,1,5.121-1.11q4.361.237,5,5.359m.132,16.311a1.011,1.011,0,0,1,1.323.016,1.686,1.686,0,0,1,.514.6,2.5,2.5,0,0,0-.642-.234,1.671,1.671,0,0,0-1.288.149,5.658,5.658,0,0,0-3.2-2.442,9.472,9.472,0,0,0-3,.046,5.56,5.56,0,0,0-1.572-2.669q-.908-.586-3.218-.018a3.186,3.186,0,0,0-2.936-1.863,9.47,9.47,0,0,0-2.921.91l.647-.465a7.335,7.335,0,0,1,1.6-.761,3.228,3.228,0,0,1,4,1.2A4.181,4.181,0,0,1,93,41.875,3.379,3.379,0,0,1,94.341,44.6a3.817,3.817,0,0,1,3.323.327A4.881,4.881,0,0,1,99.953,47.237Z" transform="translate(0)"/>
            </g>
          </g>
          <g id="Group_52794" data-name="Group 52794" transform="translate(0 5.911)">
            <g id="Group_52793" data-name="Group 52793" transform="translate(0 0)">
              <path id="Path_45020" data-name="Path 45020" d="M10.357,17.207l-1.389-.8A3.906,3.906,0,0,1,7.3,14.582a10.49,10.49,0,0,1-.552-2.8,6.259,6.259,0,0,1,.732-2.271Q8.9,6.673,11.5,7.258A6.456,6.456,0,0,0,8.41,12.09a6.5,6.5,0,0,0,1.947,5.118M15.046,4.261a3.776,3.776,0,0,1,.6-1.8,13.858,13.858,0,0,1,1.3-1.525A2.883,2.883,0,0,1,18.92.014a4.445,4.445,0,0,1,1.768.227Q15.777,2.01,16.774,5q-3.934.056-2.139,4.021-3.1.538-.408,6.9l-.71-.769a10.031,10.031,0,0,1-1.255-1.925q-1.5-3.1.806-5.105a3.132,3.132,0,0,1-.076-1.891,2.352,2.352,0,0,1,2.052-1.968m19.678,18a7.988,7.988,0,0,0-1.164,5.265q.57,2.821,4.318,6.111a8.068,8.068,0,0,1-4.943-3.757q-1.534-2.935-.16-7.52A5.436,5.436,0,0,1,31.142,20.7a5.1,5.1,0,0,1-.169-3.843,1.64,1.64,0,0,1-1.967.059,1.375,1.375,0,0,1-.65-1.528,1.452,1.452,0,0,0,1.316.94,7.844,7.844,0,0,0,2.239-.569,5.884,5.884,0,0,0-.073,2.608,7.475,7.475,0,0,0,2.886,3.9M18.176,36.1a12.088,12.088,0,0,1-2.964-.549,8.216,8.216,0,0,1-4.679-3.2,5.8,5.8,0,0,1-5.289-2.877,6.8,6.8,0,0,1-.273-6.7A5.142,5.142,0,0,1,.542,19.637a4.624,4.624,0,0,1,.9-5.535,2.4,2.4,0,0,1-.71-.769,1.923,1.923,0,0,1-.243-1.051A2.831,2.831,0,0,1,1.812,9.772a1.462,1.462,0,0,1,1.626.143q-1.842.122-2.085,1.6-.261,1.5,1.485,2.318a7.192,7.192,0,0,0-.975,3.809q.115,3.822,5.658,3.806A6.171,6.171,0,0,0,5.9,24.877a5.045,5.045,0,0,0,.567,3.109,4.431,4.431,0,0,0,2.131,2,3.816,3.816,0,0,0,2.931.1q.086,3,6.643,6.016m1.933,9.575q-.91,2.269-5.064,3.021T8.6,45.122a3.927,3.927,0,0,1-2.172,1.227A2.938,2.938,0,0,1,4.3,45.913a3.651,3.651,0,0,1-1.33-1.433,4.841,4.841,0,0,1-.4-1.874Q4,45.088,5.9,44.844a4.954,4.954,0,0,0,2.783-1.631q2.421,3.932,6.158,3.874t5.266-1.416M28.93,57.053A22.365,22.365,0,0,0,36.7,52.73a13.183,13.183,0,0,1-6.782,5.794,9.225,9.225,0,0,1-7.951-.629A3.4,3.4,0,0,1,20.9,59.73,6.24,6.24,0,0,1,18.565,61.3q-3.514,1.375-6.012-1.838-.669,1.06-2.31.486a2.6,2.6,0,0,1-1.75-2.773,4.041,4.041,0,0,0,1.295,1.453q1.53,1,2.69-1.18,2.067,3.476,5.328,2.364a6.01,6.01,0,0,0,2.407-1.594A6.035,6.035,0,0,0,21.7,55.8a8.278,8.278,0,0,0,7.231,1.257M55.073,34.134q-2.956.786-4.089-.665-1.081-1.348-.8-5.124a2.578,2.578,0,0,1-.639-.583,3.365,3.365,0,0,1-.758-1.55,5.167,5.167,0,0,1,.071-2.464,4.125,4.125,0,0,1,.436-.94,4.321,4.321,0,0,1-2.03-1.134,2.648,2.648,0,0,1-.559-1.753,4.084,4.084,0,0,1,.571-2.335A2.32,2.32,0,0,1,49.05,16.6a2.129,2.129,0,0,1-.157-.6,1.237,1.237,0,0,1,.022-.575,2.416,2.416,0,0,1,1.244-1.464,2.3,2.3,0,0,1,1.68.041q-1.645.042-1.955.922a3.533,3.533,0,0,0,.2,1.933q-2.531,1.367-1.563,3.576a3.452,3.452,0,0,0,1.169,1.452,2.392,2.392,0,0,0,1.534.552,3.491,3.491,0,0,0-.725,3.791,5.793,5.793,0,0,0,.688,1.323q.23.331.39.518a7.616,7.616,0,0,0-.237,3.1q.425,3.066,3.733,2.962M73.988,21.789a8.973,8.973,0,0,0,.792,4.159,4.118,4.118,0,0,0,2.128,2.429,5.514,5.514,0,0,1-3.561-1.953,5.2,5.2,0,0,1-1.31-4.206,7.5,7.5,0,0,1,3.007-5.407q2.642-1.961,4.881-.085a6.308,6.308,0,0,1-.029-.9,4.816,4.816,0,0,1,.663-2.621,5.338,5.338,0,0,1,1.726-1.315q3.087-1.668,4.943,1.23a5.557,5.557,0,0,0-3.375-.554q-3.383.514-3.405,6.06-.143.06-.352-.805a5.284,5.284,0,0,1-.154-.988,5.331,5.331,0,0,0-4.514,1.2,5.464,5.464,0,0,0-1.44,3.762m28.32,24.536a1.261,1.261,0,0,0,1.79-.287,3.184,3.184,0,0,0,.479-1.946,2.215,2.215,0,0,1,.181,2.138,1.654,1.654,0,0,1-1.886,1.148,3.762,3.762,0,0,1-2.16,2.069,4.831,4.831,0,0,1-3.985-.274,5.371,5.371,0,0,1-4.089,1.759l-2.484-.194q-1,1.96-3.6,1.395a4.186,4.186,0,0,1-1.728-.8,1.322,1.322,0,0,1-.635-1.178,3.54,3.54,0,0,1-3.752-.353Q78.21,48.42,79.213,45.72q.267,2.591,1.889,3.371a3.376,3.376,0,0,0,3.527-.677,3.433,3.433,0,0,0,.756,1.8,2.7,2.7,0,0,0,1.441.921q2,.476,2.519-2.229a5.2,5.2,0,0,0,7.015-1,4.378,4.378,0,0,0,3.571.7,3.636,3.636,0,0,0,2.376-2.272M70.217,65.99a9.267,9.267,0,0,1-1.674-3.348q-.244-.866-.989-4.12,2.034,5.488,4.385,6.728,2.458,1.262,7.514-.752,1.963,2.94,4.7,2.418,2.6-.5,5.159-3.9,1.3,1.043,3.864-.282,2.728-1.405,2.477-3.873a2.084,2.084,0,0,0,1.655-1.439,2.58,2.58,0,0,0-.358-2.449q.928.216,1.042,1.758a2.162,2.162,0,0,1-1.483,2.365q.555,2.307-2,4.125-2.516,1.8-4.726.909a4.261,4.261,0,0,1-.439,1.392,3.29,3.29,0,0,1-.884,1.1q-2.876,2.122-4.931,1.975-1.823-.145-4.631-2.356Q72.788,68.9,70.217,65.99Z" fill="#473432"/>
            </g>
          </g>
        </g>
        <g id="Group_52797" data-name="Group 52797" transform="translate(53.883 2.569)">
          <g id="Group_52796" data-name="Group 52796" transform="translate(0 0)">
            <path id="Path_45021" data-name="Path 45021" d="M4.929,2.465,2.465,0,0,2.465,2.465,4.929Zm-1.849,0H2.465V1.849m-.616.616h.616v.616" fill="none" stroke="rgba(0,0,0,0)" stroke-linecap="round" stroke-linejoin="round" stroke-width="0.077"/>
          </g>
        </g>
      </g>
      <g id="Group_52805" data-name="Group 52805" transform="matrix(-0.795, -0.606, 0.606, -0.795, 20.397, 198.804)">
        <g id="Group_52800" data-name="Group 52800" transform="translate(0 0)">
          <g id="Group_52799" data-name="Group 52799">
            <path id="Path_45022" data-name="Path 45022" d="M0,0A22.91,22.91,0,0,1,3.307,5.833a48.291,48.291,0,0,1,2.28,9.509q.041.267.246,2.095-.041-3.327-.205-4.95Q4.6,2.711,0,0Z" transform="translate(12.132 0.928)" fill="#84553e"/>
            <path id="Path_45023" data-name="Path 45023" d="M7.675,0q-4.149.144-6.1,5.114Q-.56,10.5.2,20.87q.062.719.123,1.376.76,4.785,3.512,17.19a47.857,47.857,0,0,0,2.444,8.441l.205.411a2.718,2.718,0,0,0,2.177,1.273,6.577,6.577,0,0,0,1.15-.021A4.118,4.118,0,0,0,13.2,47.693q2.3-3.943,3.758-14.746a101.647,101.647,0,0,0,1.006-14.582q-.205-1.828-.246-2.095a48.291,48.291,0,0,0-2.28-9.509A22.91,22.91,0,0,0,12.132.928a8.336,8.336,0,0,0-1.7-.6A10.411,10.411,0,0,0,7.675,0Z" fill="#a56b4e"/>
          </g>
        </g>
        <g id="Group_52802" data-name="Group 52802" transform="translate(0.001 10.581)">
          <g id="Group_52801" data-name="Group 52801" transform="translate(0 0)">
            <path id="Path_45024" data-name="Path 45024" d="M1.615,22.427Q3.793,32.595,6.277,37.3,5.122,34.684,3.155,25.405A182.04,182.04,0,0,1,.2,0,82.412,82.412,0,0,0,1.615,22.427Z" transform="translate(0 0)" fill="#84553e"/>
          </g>
        </g>
        <g id="Group_52804" data-name="Group 52804" transform="translate(7.86 6.708)">
          <g id="Group_52803" data-name="Group 52803" transform="translate(0 0)">
            <path id="Path_45025" data-name="Path 45025" d="M4.929,2.477,2.465,4.954,0,2.477,2.465,0Zm-1.848,0H2.465V3.1m-.616-.619h.616V1.858" fill="none" stroke="rgba(0,0,0,0)" stroke-linecap="round" stroke-linejoin="round" stroke-width="0.077"/>
          </g>
        </g>
      </g>
      <g id="Group_52810" data-name="Group 52810" transform="translate(50.467 161.352) rotate(-173.905)">
        <g id="Group_52807" data-name="Group 52807" transform="matrix(1, 0.01, -0.01, 1, 0.279, 0)">
          <g id="Group_52806" data-name="Group 52806" transform="translate(0 0)">
            <path id="Path_45026" data-name="Path 45026" d="M7.144,14.973V15L7.161,15A.024.024,0,0,0,7.153,15a.061.061,0,0,0-.009-.024M4.478,3.655l.316-.2L2.5,5.49Q1.717,6.219.908,7q-1.985,1.935.368,3.82Q-.017,9.069,1.2,7.906T2.61,6.51l-.447.4.43-.439q.509-.516.982-.98.447-.431.921-.839A45.214,45.214,0,0,1,8.354,1.608q.043-.027.079-.055A23.914,23.914,0,0,0,10.284,0,2.873,2.873,0,0,0,9.117.533Q8.352,1.1,7.539,1.608L4.715,3.475l.1-.039-.333.22M14.187,6.91a.027.027,0,0,0-.018.008.056.056,0,0,0,.009.024l.009-.031m1.763-5.357q-.059.2-.132.408-.623,1.467-1.1,2.965-.105.329-.219.659l-.053-.008.035.1A24.623,24.623,0,0,1,15.213,8.2a33.046,33.046,0,0,1,.517,4.275l.439,1.38Q16.12,11.906,16.02,9.8t-.281-4.086a11.038,11.038,0,0,1,.272-3.757q0-.19.018-.384l-.079-.024M10.564,4.259l.105-.306q-.15.228-.412.557a15.723,15.723,0,0,1-1.2,2.047q-.348.506-.526.753A14.234,14.234,0,0,1,7.6,8.549q-.5.6-.956,1.224A7.507,7.507,0,0,0,5.881,11.1q-.316.706-.57,1.4A1.716,1.716,0,0,0,5.4,13.969a1.85,1.85,0,0,0,.509.6,2.205,2.205,0,0,0,.859.408.708.708,0,0,0,.3.031l.07-.055a4.651,4.651,0,0,1-.474-1.373,3.716,3.716,0,0,1,.105-1.106,5.046,5.046,0,0,1,.605-1.545l-.026.031A14.985,14.985,0,0,1,8.354,9.741,5.766,5.766,0,0,0,9.2,8.581q.158-.29.325-.588a18.923,18.923,0,0,0,1.131-2.439q.051-.132.1-.259l1.351-3.561q-.07.071-.132.141a7.832,7.832,0,0,0-1.105,1.671q-.081.168-.158.337Q10.637,4.069,10.564,4.259Z" transform="translate(2.785 12.397)" fill="#84553e"/>
            <path id="Path_45027" data-name="Path 45027" d="M13.454,16.35l-.105.306q.073-.19.149-.376.077-.17.158-.337a7.832,7.832,0,0,1,1.105-1.671q.061-.071.132-.141l-1.351,3.561q-.045.127-.1.259a18.922,18.922,0,0,1-1.131,2.439q-.167.3-.325.588a5.766,5.766,0,0,1-.851,1.161,14.985,14.985,0,0,0-1.009,1.216l.026-.031a5.046,5.046,0,0,0-.605,1.545,3.716,3.716,0,0,0-.105,1.106,4.651,4.651,0,0,0,.474,1.373l-.07.055.009.024a.5.5,0,0,0,.07-.031V27.37a.061.061,0,0,1,.009.024,5.834,5.834,0,0,0,1.219-.627,10.2,10.2,0,0,0,2.921-2.777q.475-.583.93-1.184a15.068,15.068,0,0,0,1.956-3.467.056.056,0,0,1-.009-.024.027.027,0,0,1,.018-.008l.3-1.231-.035-.1.053.008q.114-.329.219-.659.474-1.5,1.1-2.965.073-.2.132-.408l.079.024q-.016.194-.018.384a11.038,11.038,0,0,0-.272,3.757q.18,1.993.281,4.086t.149,4.055l-.439-1.38.368,1.616v.18a3.093,3.093,0,0,0,.246,1.255,1.367,1.367,0,0,0,1.219.667l1.044-.039A5.329,5.329,0,0,0,22.654,25.7a17.071,17.071,0,0,0,.07-3.624q-.1-1.035-.246-2.071,0-.376,0-.761-.009-.586-.035-1.192-.036-.772-.105-1.577-.048-.683-.123-1.388v-.008q-.083-.78-.193-1.592A39.755,39.755,0,0,1,15.252,1.565,7.823,7.823,0,0,0,10.236.028a4.2,4.2,0,0,0-3.166,1.8,5.9,5.9,0,0,0-.921,3.733,10.641,10.641,0,0,0,1.333,4.526l-.009.031L7.35,11.581a1.671,1.671,0,0,1-.21.11q-.254.1-.517.212A17.667,17.667,0,0,0,3.6,13.526q-.448.269-.886.557l-.061.039q-.175.11-.342.22A15.749,15.749,0,0,0,.4,15.832q-.1.119-.193.243a1.521,1.521,0,0,0-.105.188,1.431,1.431,0,0,0,.316,1.49l.026.11a5.1,5.1,0,0,0,2.4.1q.561-.113,1.1-.275L4.21,17.6l.307-.094,2.771-1.522-.614.478.9-.6-.316.2.333-.22-.175.11.079-.071L10.323,14q.813-.511,1.579-1.075a2.873,2.873,0,0,1,1.166-.533,23.914,23.914,0,0,1-1.851,1.553q-.036.027-.079.055A45.215,45.215,0,0,0,7.28,17.048q-.474.408-.921.839-.474.465-.982.98l-.43.439.447-.4q-.189.234-1.412,1.4t.079,2.91a7.92,7.92,0,0,0,3.5-1.757q1.78-1.561,3.578-3.145l.561-.424,1.342-.98Q13.3,16.578,13.454,16.35Z" fill="#a56b4e"/>
          </g>
        </g>
        <g id="Group_52809" data-name="Group 52809" transform="matrix(1, 0.01, -0.01, 1, 10.931, 2.834)">
          <g id="Group_52808" data-name="Group 52808" transform="translate(0 0)">
            <path id="Path_45028" data-name="Path 45028" d="M2.1.941l-1.052.941L0,.941,1.052,0Zm-.789,0H1.052v.235M.789.941h.263V.706" transform="translate(0 0)" fill="none" stroke="rgba(0,0,0,0)" stroke-linecap="round" stroke-linejoin="round" stroke-width="0.031"/>
          </g>
        </g>
      </g>
    </g>
  </g>
</svg>
