<svg xmlns="http://www.w3.org/2000/svg" xmlns:xlink="http://www.w3.org/1999/xlink" width="375" height="270" viewBox="0 0 375 270">
  <defs>
    <clipPath id="clip-path">
      <rect id="Rectangle_3975" data-name="Rectangle 3975" width="375" height="270" transform="translate(8584 -7637)" fill="#fff" stroke="#707070" stroke-width="1" opacity="0.59"/>
    </clipPath>
  </defs>
  <g id="Mask_Group_16415" data-name="Mask Group 16415" transform="translate(-8584 7637)" clip-path="url(#clip-path)">
    <g id="todller_boy_DS_1" data-name="todller boy DS 1" transform="matrix(0.999, 0.035, -0.035, 0.999, 8645.247, -7571.608)">
      <g id="Group_52192" data-name="Group 52192" transform="translate(83.39 133.678)">
        <g id="Group_52191" data-name="Group 52191">
          <path id="Path_44635" data-name="Path 44635" d="M-95.591-168.942q-4.464.4-12.41,1.463-3.733.479-23.255,3.178-4.515.631-6.785.984-3.783.605-6.734,1.337-1.312.3-5.852,1.564-3.607.958-5.877,1.387a16.1,16.1,0,0,0-4.54,2.169,36.414,36.414,0,0,0-5.826,4.54q-6.785,6.659-1.286,10.039c1.9,1.177,12.407-5.2,16.292,0,3.262,4.389,65.23,1.482,66.626-2.722s15.661.334,18-1.061q3.481-2.043,3.985-1.967.5.1.858-.757a7.6,7.6,0,0,0,.429-2.7,19.059,19.059,0,0,0-2.245-9.055,15.532,15.532,0,0,0-6.331-6.608,18.079,18.079,0,0,0-6.079-1.967,40.444,40.444,0,0,0-6.482-.479A122.278,122.278,0,0,0-95.591-168.942Z" transform="translate(170.617 169.599)" fill="#fc6"/>
        </g>
      </g>
      <g id="Group_52202" data-name="Group 52202" transform="matrix(0.633, 0.774, -0.774, 0.633, 90.181, 116.566)">
        <g id="Group_52194" data-name="Group 52194" transform="translate(0 35.52)">
          <g id="Group_52193" data-name="Group 52193" transform="translate(0 0)">
            <path id="Path_44636" data-name="Path 44636" d="M1.866,7.573Q1.112,9.134.5,10.447l-.4.832q-.045.127-.1.277a33.742,33.742,0,0,0,6.354,6.455q.994.738,3,2.042,2.61,1.709,4.06,2.5a18.344,18.344,0,0,0,4.362,1.74,3.784,3.784,0,0,1,.025,1.916,9.58,9.58,0,0,1-.605,1.765q-1.638,3.714-3.328,7.312a.352.352,0,0,1,.05-.05l1.387-1.942q.452-.67.883-1.311,1.552-2.3,2.622-4.009a1.463,1.463,0,0,0,.1-.151A38.879,38.879,0,0,0,21,24.215a105.308,105.308,0,0,0,3.858-10.842q.557-1.7-2.143-4.715a31.072,31.072,0,0,0-6.4-5.3A22.9,22.9,0,0,0,9.2.185Q5.73-.531,4.766,1.521Z" transform="translate(6.791 0)" fill="#84553e"/>
            <path id="Path_44637" data-name="Path 44637" d="M6.791,0q-.713,1.465-1.16,2.522Q4.06,6.06,3.084,9A68.546,68.546,0,0,0,.209,19.466,18.72,18.72,0,0,0,.033,23.3a9.374,9.374,0,0,0,3.354,7.035,11.277,11.277,0,0,0,4.766,2.4,7.311,7.311,0,0,0,5.573-1.261,18.389,18.389,0,0,0,3.782-3.631q2.185-2.821,3.1-4.034h-.025q.039-.035.076-.076,1.691-3.6,3.328-7.312a9.58,9.58,0,0,0,.605-1.765,3.784,3.784,0,0,0-.025-1.916,18.344,18.344,0,0,1-4.362-1.74q-1.45-.787-4.06-2.5-2.007-1.3-3-2.042A33.742,33.742,0,0,1,6.791,0Z" transform="translate(0 11.557)" fill="#a56b4e"/>
          </g>
        </g>
        <g id="Group_52196" data-name="Group 52196" transform="translate(4.747 0)">
          <g id="Group_52195" data-name="Group 52195" transform="translate(0)">
            <path id="Path_44638" data-name="Path 44638" d="M22.821.53q1.665,4.365-2.5,4.387a11.034,11.034,0,0,0-7.413,2.975,14.724,14.724,0,0,0-4.387,6.833,85.41,85.41,0,0,0-2.042,9.809,50.142,50.142,0,0,1-2.017,8.977A21.8,21.8,0,0,1,.556,40.546,1.788,1.788,0,0,0,0,41.656a2.079,2.079,0,0,0,.5,1.084,28.476,28.476,0,0,0,2.572,2.824l1.21,1.16Q5.381,47.732,6.38,48.64h.025a57.388,57.388,0,0,0,6.152,4.866,24.45,24.45,0,0,0,9.758,4.06q2.585.382,3.707-.555a3.032,3.032,0,0,0,.883-1.336,9.467,9.467,0,0,0,.454-1.664q.141-.712,4.993-11.372a98.583,98.583,0,0,0,5.8-16.062q3.152-12.229.555-18.836A11.217,11.217,0,0,0,29.452.2,16.016,16.016,0,0,0,22.821.53m-12,11.775Q9.513,20.5,8.2,26.375,5.805,37.147,2.3,41.832A29.2,29.2,0,0,0,5.75,46.27l3,3.48Q1.385,43.91.757,41.63a25.13,25.13,0,0,1,1.664-2.622,18.155,18.155,0,0,0,2.622-4.967q.348-1.068,2.522-9.708Q9.836,15.472,10.818,12.305Z" fill="#fc6"/>
            <path id="Path_44639" data-name="Path 44639" d="M7.439,14.07Q8.756,8.193,10.061,0,9.078,3.167,6.808,12.028q-2.174,8.64-2.522,9.708A18.155,18.155,0,0,1,1.664,26.7,25.131,25.131,0,0,0,0,29.325Q.627,31.6,7.993,37.444l-3-3.48a29.2,29.2,0,0,1-3.454-4.438Q5.048,24.842,7.439,14.07Z" transform="translate(0.757 12.305)" fill="#ffde9d"/>
          </g>
        </g>
        <g id="Group_52201" data-name="Group 52201" transform="translate(27.164 6.329)">
          <g id="Group_52200" data-name="Group 52200" transform="translate(0 0)">
            <path id="Path_44641" data-name="Path 44641" d="M6.052,3.026,3.026,6.052,0,3.026,3.026,0Zm-2.269,0H3.026v.756m-.756-.756h.756V2.269" fill="none" stroke="rgba(0,0,0,0)" stroke-linecap="round" stroke-linejoin="round" stroke-width="0.075"/>
          </g>
        </g>
      </g>
      <g id="Group_52212" data-name="Group 52212" transform="translate(224.765 155.895) rotate(132.66)">
        <g id="Group_52204" data-name="Group 52204" transform="translate(0 0)">
          <g id="Group_52203" data-name="Group 52203">
            <path id="Path_44642" data-name="Path 44642" d="M1.866,27.708Q1.112,26.147.5,24.834L.1,24q-.045-.127-.1-.277A33.738,33.738,0,0,1,6.353,17.27q.994-.738,3-2.042,2.61-1.709,4.059-2.5a18.342,18.342,0,0,1,4.362-1.74A3.783,3.783,0,0,0,17.8,9.076a9.579,9.579,0,0,0-.605-1.765Q15.557,3.6,13.867,0a.352.352,0,0,0,.05.05L15.3,1.992q.452.67.882,1.311,1.551,2.3,2.622,4.009a1.463,1.463,0,0,1,.1.151A38.875,38.875,0,0,1,21,11.068a105.3,105.3,0,0,1,3.857,10.841q.556,1.7-2.143,4.715a31.068,31.068,0,0,1-6.4,5.295A22.9,22.9,0,0,1,9.2,35.1q-3.473.715-4.437-1.336Z" transform="translate(6.79 9.126)" fill="#84553e"/>
            <path id="Path_44643" data-name="Path 44643" d="M6.79,32.85q-.713-1.465-1.16-2.521-1.57-3.538-2.546-6.48A68.538,68.538,0,0,1,.209,13.386,18.719,18.719,0,0,1,.033,9.554,9.373,9.373,0,0,1,3.386,2.52,11.276,11.276,0,0,1,8.151.125a7.31,7.31,0,0,1,5.572,1.261,18.387,18.387,0,0,1,3.782,3.631q2.185,2.82,3.1,4.034h-.025q.039.035.076.076,1.691,3.6,3.328,7.312A9.579,9.579,0,0,1,24.59,18.2a3.783,3.783,0,0,1-.025,1.916,18.342,18.342,0,0,0-4.362,1.74q-1.45.787-4.059,2.5-2.007,1.3-3,2.042A33.738,33.738,0,0,0,6.79,32.85Z" fill="#a56b4e"/>
          </g>
        </g>
        <g id="Group_52206" data-name="Group 52206" transform="translate(4.747 22.251)">
          <g id="Group_52205" data-name="Group 52205" transform="translate(0 0)">
            <path id="Path_44644" data-name="Path 44644" d="M22.818,57.141q1.665-4.364-2.5-4.387a11.033,11.033,0,0,1-7.412-2.975,14.722,14.722,0,0,1-4.387-6.833,85.4,85.4,0,0,1-2.042-9.808,50.137,50.137,0,0,0-2.017-8.976A21.792,21.792,0,0,0,.556,17.129,1.788,1.788,0,0,1,0,16.02a2.079,2.079,0,0,1,.5-1.084,28.473,28.473,0,0,1,2.572-2.824l1.21-1.16Q5.38,9.944,6.38,9.036H6.4A57.382,57.382,0,0,1,12.557,4.17,24.447,24.447,0,0,1,22.314.111Q24.9-.271,26.02.665A3.031,3.031,0,0,1,26.9,2a9.466,9.466,0,0,1,.454,1.664q.141.712,4.992,11.371a98.572,98.572,0,0,1,5.8,16.06Q41.3,43.325,38.7,49.93a11.216,11.216,0,0,1-9.253,7.538,16.014,16.014,0,0,1-6.631-.328m-12-11.774Q9.512,37.174,8.2,31.3,5.8,20.528,2.3,15.843a29.2,29.2,0,0,1,3.454-4.437l3-3.479Q1.384,13.766.757,16.045a25.128,25.128,0,0,0,1.664,2.622,18.153,18.153,0,0,1,2.622,4.967q.348,1.068,2.521,9.707Q9.835,42.2,10.817,45.367Z" fill="#fc6"/>
            <path id="Path_44645" data-name="Path 44645" d="M7.438,23.372Q8.755,29.248,10.06,37.44q-.983-3.166-3.252-12.026-2.173-8.639-2.521-9.707A18.153,18.153,0,0,0,1.664,10.74,25.128,25.128,0,0,1,0,8.118Q.627,5.839,7.992,0l-3,3.479A29.2,29.2,0,0,0,1.538,7.917Q5.047,12.6,7.438,23.372Z" transform="translate(0.757 7.927)" fill="#ffde9d"/>
          </g>
        </g>
        <g id="Group_52209" data-name="Group 52209" transform="translate(21.186 20.295)">
          <g id="Group_52208" data-name="Group 52208" transform="translate(0 0)">
            <g id="Group_52207" data-name="Group 52207">
              <path id="Path_44646" data-name="Path 44646" d="M26.876,32.978a29.424,29.424,0,0,1-.454,9.757q-1.185,6.454-3.4,8.9,4.488-11.219-4.387-28.591Q16.186,18.279,11.951,11.7,8.572,6.5,8.5,5.824a3.236,3.236,0,0,0-.882-1.689A3.322,3.322,0,0,0,6.051,3.076Q4.243,2.6,0,3.656,1.217,3.306,8.774,0a16.824,16.824,0,0,1,7.665,11.4q.429,2.219,5.143,10.161Q26.271,29.448,26.876,32.978Z" fill="#d4a548"/>
            </g>
          </g>
        </g>
        <g id="Group_52211" data-name="Group 52211" transform="translate(27.161 67.542)">
          <g id="Group_52210" data-name="Group 52210" transform="translate(0 0)">
            <path id="Path_44647" data-name="Path 44647" d="M6.051,3.025,3.025,0,0,3.025,3.025,6.051Zm-2.269,0H3.025V2.269m-.756.756h.756v.756" fill="none" stroke="rgba(0,0,0,0)" stroke-linecap="round" stroke-linejoin="round" stroke-width="0.075"/>
          </g>
        </g>
      </g>
      <g id="Group_52245" data-name="Group 52245" transform="matrix(0.959, -0.283, 0.283, 0.959, 85.674, 136.304)">
        <g id="Group_52216" data-name="Group 52216" transform="translate(18.921 1.565)">
          <g id="Group_52215" data-name="Group 52215" transform="translate(0 0)">
            <path id="Path_44649" data-name="Path 44649" d="M17.881,5.611a30.848,30.848,0,0,0,4.388-.555A19,19,0,0,0,31.322.906,47.041,47.041,0,0,0,25.774.182q-3.707-.265-9.1-.145-4.01.121-8.02.29L0,.689A13.526,13.526,0,0,0,1.337,1.847Q6.481,5.828,16.065,5.635Z" transform="translate(4.636 0)" fill="#a56b4e"/>
            <path id="Path_44650" data-name="Path 44650" d="M39.338,1.013a30.286,30.286,0,0,0-3.379-.8,19,19,0,0,1-9.054,4.15,30.848,30.848,0,0,1-4.388.555L20.7,4.946q-9.583.193-14.728-3.788A13.526,13.526,0,0,1,4.636,0L3.275.048A7.238,7.238,0,0,0,1.307.362,1.789,1.789,0,0,0,.021,1.737q-.177.941,1.11,2.172A24.933,24.933,0,0,0,7.839,8.59a30.779,30.779,0,0,0,5.649,1.882q2.068.483,5.876,1.086,2.169.338,3.253.458A21.455,21.455,0,0,0,32.025,11a14.659,14.659,0,0,0,7.414-5.5q.429-.6,1.211-1.834a2.763,2.763,0,0,0,.5-1.038,1.156,1.156,0,0,0-.605-1.086A3.466,3.466,0,0,0,39.338,1.013Z" transform="translate(0 0.689)" fill="#84553e"/>
          </g>
        </g>
        <g id="Group_52230" data-name="Group 52230" transform="translate(0 0)">
          <g id="Group_52223" data-name="Group 52223" transform="translate(0 0)">
            <g id="Group_52222" data-name="Group 52222">
              <path id="Path_44656" data-name="Path 44656" d="M11.679,0q-.664.177-1.438.386l-.5.145L8.25.965q-1.062.3-1.992.555-3.059.874-4.691,1.3Q-.4,7.609.1,19.978q.142,3.483.479,7.552.014.169.025.338A152.469,152.469,0,0,1,2.474,6.732,5.73,5.73,0,0,1,3.029,4.8a5.5,5.5,0,0,1,1.69-1.568A27.046,27.046,0,0,1,8.88,1.206Q10.581.5,11.679,0Z" transform="translate(0 0.637)" fill="#424d80"/>
              <path id="Path_44657" data-name="Path 44657" d="M16.872,1.482a2.325,2.325,0,0,0,.3.265A.9.9,0,0,0,17.5,1.8a2.006,2.006,0,0,0-.454-.651A5.451,5.451,0,0,0,15.535.106q-.767-.367-4.464.531-1.1.5-2.8,1.206A27.046,27.046,0,0,0,4.111,3.87a5.5,5.5,0,0,0-1.69,1.568,5.73,5.73,0,0,0-.555,1.93A152.469,152.469,0,0,0,0,28.5c.42,4.974,15.762,5.815,15.207,1.81q-.243-1.751-.429-3.426.017.187.025.362a41.388,41.388,0,0,1-1.16-4.512,33.084,33.084,0,0,1-.454-6.37A59.716,59.716,0,0,1,15.359,1.192a.505.505,0,0,1,.177-.265A.177.177,0,0,1,15.762.9a.114.114,0,0,1-.025.048.6.6,0,0,1,.277.024,2.289,2.289,0,0,1,.53.314Z" transform="translate(0.608 0)" fill="#2c3664"/>
              <path id="Path_44658" data-name="Path 44658" d="M4.393,1.286A.645.645,0,0,0,4.317.924.9.9,0,0,1,3.989.875a2.325,2.325,0,0,1-.3-.265L3.359.417A2.289,2.289,0,0,0,2.829.1.6.6,0,0,0,2.552.079.114.114,0,0,0,2.577.031.177.177,0,0,0,2.35.055a.505.505,0,0,0-.177.265A59.716,59.716,0,0,0,0,15.5a33.084,33.084,0,0,0,.454,6.37,41.389,41.389,0,0,0,1.16,4.512q-.008-.175-.025-.362l-.353-3.74q-.023-.41-.05-.844a.26.26,0,0,0-.025-.048Q.364,9.08,3.081,1.5,4.225,1.3,4.368,1.286Z" transform="translate(13.793 0.872)" fill="#1c2449"/>
            </g>
          </g>
        </g>
        <g id="Group_52237" data-name="Group 52237" transform="translate(74.249 47.08) rotate(180)">
          <g id="Group_52232" data-name="Group 52232" transform="translate(0 4.892)">
            <g id="Group_52231" data-name="Group 52231">
              <path id="Path_44665" data-name="Path 44665" d="M.05,35.178Q.018,34.957,0,34.72,3.4,31.8,4.59,12.45,5,5.847,4.943,0q1.521,16.893-.807,27.313Q2.749,33.61.757,35.492A5.487,5.487,0,0,1,.05,35.178Z" transform="translate(0 2.223)" fill="#1c2449"/>
              <path id="Path_44666" data-name="Path 44666" d="M12.736,40.538a9,9,0,0,1-2.421.145q-.277,0-4.237-.193-.047,0-.1,0A24.6,24.6,0,0,1,.807,38.8,2.178,2.178,0,0,1,0,37.4a5.486,5.486,0,0,0,.706.314Q2.7,35.833,4.086,29.536q2.328-10.419.807-27.313Q4.88,1.555,4.867.9C4.783-3.286,19.7,8.068,19.242,16.41a97.706,97.706,0,0,1-3.606,18.072Q13.795,40.2,12.736,40.538Z" transform="translate(0.05 0)" fill="#2c3664"/>
              <path id="Path_44667" data-name="Path 44667" d="M4.338,24.273a9,9,0,0,0,2.421-.145q1.059-.338,2.9-6.056A97.706,97.706,0,0,0,13.265,0q-.131,2.5-.378,5.163Q11.5,20.292,8.3,25.431q-.429.676-6.683-.941L0,24.08q.054,0,.1,0Q4.06,24.273,4.338,24.273Z" transform="translate(6.027 16.41)" fill="#424d80"/>
            </g>
          </g>
          <g id="Group_52234" data-name="Group 52234" transform="translate(7.738 0)">
            <g id="Group_52233" data-name="Group 52233" transform="translate(0 0)">
              <path id="Path_44668" data-name="Path 44668" d="M.08,3.737q-.277-.072.4-1.448a3.756,3.756,0,0,1,2.169-2A4.08,4.08,0,0,1,6.183.528Q7.47,1.3,7.369,1.662A2.789,2.789,0,0,0,6.234.769,5.065,5.065,0,0,0,2.93.7,4.034,4.034,0,0,0,.887,2.241Q0,3.375.08,3.737m.63,1.375A5.918,5.918,0,0,1,.786,4a2.9,2.9,0,0,1,.757-1.448A3.678,3.678,0,0,1,2.93,1.614a4.726,4.726,0,0,1,3.354.024,3.505,3.505,0,0,1,1.387.82,3.424,3.424,0,0,1,.984,2.871A3.215,3.215,0,0,1,7.9,7.453a1.783,1.783,0,0,1-1.11.627A1.177,1.177,0,0,1,5.6,7.67a.906.906,0,0,1-.1-1.037.681.681,0,0,1,.378-.362.523.523,0,0,1,.53.048,1.841,1.841,0,0,0,.252-1.834,2.591,2.591,0,0,0-.277-.507,1.4,1.4,0,0,0-.757-.41,3.421,3.421,0,0,0-1.084-.217,1.921,1.921,0,0,0-1.362.434,1.407,1.407,0,0,0-.53,1.255,2.286,2.286,0,0,0,1.009,1.5,1.583,1.583,0,0,1,.605.7.716.716,0,0,1-.076.555.854.854,0,0,1-.454.41,1.405,1.405,0,0,1-1.16-.072,3.739,3.739,0,0,1-.933-.748,3.276,3.276,0,0,1-.807-1.3A4.7,4.7,0,0,1,.711,5.112Z" fill="#1c2449"/>
            </g>
          </g>
          <g id="Group_52236" data-name="Group 52236" transform="translate(8.65 1.927)">
            <g id="Group_52235" data-name="Group 52235">
              <path id="Path_44669" data-name="Path 44669" d="M6.053,5.678q.1-.072.63-.483-.033.058-.076.121a2.073,2.073,0,0,1-.2.265l-.227.241L6.1,5.9A3.728,3.728,0,0,1,3.43,6.957,3.728,3.728,0,0,1,.757,5.9L.151,5.147A2.69,2.69,0,0,1,0,4.906a7.318,7.318,0,0,0,1.211.82,4.887,4.887,0,0,0,2.623.651,4.337,4.337,0,0,0,2.219-.7M4.514.225A.664.664,0,0,1,4.842.37L5.22.587V.659l.857.676.05.121q0,.145-.076.072A7.835,7.835,0,0,0,4.64.587L4.388.466l-.4-.1a3.4,3.4,0,0,0-2.169.29.345.345,0,0,1-.2.072q-.151,0-.151-.1A.227.227,0,0,1,1.538.466,2.075,2.075,0,0,1,2.371.129a3.722,3.722,0,0,1,1.412-.1l.731.193M2.295,4.834a.077.077,0,0,1,.05-.072q.076-.048.1,0L2.9,4.93h.656q0,.048.076.048a.16.16,0,0,1-.025.193.243.243,0,0,1-.2.1.968.968,0,0,1-.656-.024l-.227-.1Q2.522,5.1,2.4,5A.262.262,0,0,1,2.295,4.834Z" transform="translate(0.353 0.281)" fill="#929fd9"/>
              <path id="Path_44670" data-name="Path 44670" d="M7.566,3.619A3.4,3.4,0,0,1,6.961,5.6q.042-.063.076-.121-.53.41-.63.483a4.337,4.337,0,0,1-2.219.7,4.887,4.887,0,0,1-2.623-.651,7.318,7.318,0,0,1-1.211-.82.094.094,0,0,0,0-.048v.024A3.378,3.378,0,0,1,0,3.619,3.412,3.412,0,0,1,1.11,1.062,3.728,3.728,0,0,1,3.783,0,3.728,3.728,0,0,1,6.456,1.062a3.412,3.412,0,0,1,1.11,2.558M5.7,5.453a2.4,2.4,0,0,0,.807-1.834A2.453,2.453,0,0,0,5.7,1.785a2.724,2.724,0,0,0-1.917-.748,2.724,2.724,0,0,0-1.917.748,2.453,2.453,0,0,0-.807,1.834,2.4,2.4,0,0,0,.807,1.834,2.678,2.678,0,0,0,1.917.772A2.678,2.678,0,0,0,5.7,5.453M5.2.651A.664.664,0,0,0,4.867.507L4.136.314a3.722,3.722,0,0,0-1.412.1,2.075,2.075,0,0,0-.832.338.227.227,0,0,0-.076.169q0,.1.151.1a.345.345,0,0,0,.2-.072A3.4,3.4,0,0,1,4.338.651l.4.1.252.121a7.835,7.835,0,0,1,1.412.941q.076.072.076-.072l-.05-.121L5.573.941V.869L5.2.651M6.507,3.619A2.4,2.4,0,0,1,5.7,5.453a2.678,2.678,0,0,1-1.917.772,2.678,2.678,0,0,1-1.917-.772,2.4,2.4,0,0,1-.807-1.834,2.453,2.453,0,0,1,.807-1.834,2.724,2.724,0,0,1,1.917-.748A2.724,2.724,0,0,1,5.7,1.785a2.453,2.453,0,0,1,.807,1.834m-1.16.748A.748.748,0,0,0,5.6,3.812a.675.675,0,0,0-.252-.531L5.22,3.161a.82.82,0,0,0-1.009.121.706.706,0,0,0-.227.531.786.786,0,0,0,.227.555.863.863,0,0,0,.58.217.75.75,0,0,0,.328-.072.675.675,0,0,0,.227-.145m-3.4-1.013a.786.786,0,0,0,.227.555.863.863,0,0,0,.58.217A.772.772,0,0,0,3.3,3.909a.748.748,0,0,0,.252-.555A.675.675,0,0,0,3.3,2.823a.733.733,0,0,0-.555-.241.815.815,0,0,0-.58.241.706.706,0,0,0-.227.531M2.7,5.043a.077.077,0,0,0-.05.072.262.262,0,0,0,.1.169q.126.1.126.145l.227.1a.968.968,0,0,0,.656.024.243.243,0,0,0,.2-.1.16.16,0,0,0,.025-.193q-.076,0-.076-.048H3.253L2.8,5.043Q2.774,4.994,2.7,5.043Z" fill="#6a78b7"/>
              <path id="Path_44671" data-name="Path 44671" d="M.227,1.327A.786.786,0,0,1,0,.772.706.706,0,0,1,.227.241.815.815,0,0,1,.807,0a.733.733,0,0,1,.555.241.675.675,0,0,1,.252.531.748.748,0,0,1-.252.555.772.772,0,0,1-.555.217.863.863,0,0,1-.58-.217m3.43-.1a.748.748,0,0,1-.252.555.675.675,0,0,1-.227.145A.75.75,0,0,1,2.85,2a.863.863,0,0,1-.58-.217.786.786,0,0,1-.227-.555A.706.706,0,0,1,2.27.7.82.82,0,0,1,3.279.579L3.4.7A.675.675,0,0,1,3.657,1.231Z" transform="translate(1.942 2.582)" fill="#1c2449"/>
            </g>
            <path id="Path_44672" data-name="Path 44672" d="M5.447,2.582A2.453,2.453,0,0,0,4.64.748,2.724,2.724,0,0,0,2.724,0,2.724,2.724,0,0,0,.807.748,2.453,2.453,0,0,0,0,2.582,2.4,2.4,0,0,0,.807,4.415a2.678,2.678,0,0,0,1.917.772A2.678,2.678,0,0,0,4.64,4.415,2.4,2.4,0,0,0,5.447,2.582Z" transform="translate(1.059 1.037)" fill="none" stroke="#4d5b9c" stroke-linecap="round" stroke-linejoin="round" stroke-width="1.47"/>
          </g>
        </g>
      </g>
      <g id="Group_52250" data-name="Group 52250" transform="matrix(-0.071, -0.997, 0.997, -0.071, 157.466, 171.115)">
        <g id="Group_52247" data-name="Group 52247" transform="translate(0 0)">
          <g id="Group_52246" data-name="Group 52246">
            <path id="Path_44683" data-name="Path 44683" d="M7.313,0a58.762,58.762,0,0,0-3,10.365Q.933,25.6,0,31.472A134.226,134.226,0,0,1,2.295,15.08,58.663,58.663,0,0,1,7.313,0M14.5,57.648a28.131,28.131,0,0,0,4.06-7.162,59.3,59.3,0,0,0,2.8-11.676q.05-.328.3-2.572-.05,4.085-.252,6.077Q20.149,54.319,14.5,57.648Z" transform="translate(0.396 2.088)" fill="#84553e"/>
            <path id="Path_44684" data-name="Path 44684" d="M9.424,60.871q-5.094-.177-7.49-6.279Q-.688,47.984.245,35.249.32,34.367.4,33.56q.933-5.876,4.312-21.107a58.762,58.762,0,0,1,3-10.365l.252-.5A3.337,3.337,0,0,1,10.635.02a8.077,8.077,0,0,1,1.412.025,5.056,5.056,0,0,1,4.161,2.27q2.824,4.842,4.615,18.106a124.81,124.81,0,0,1,1.236,17.9q-.252,2.244-.3,2.572a59.3,59.3,0,0,1-2.8,11.676,28.131,28.131,0,0,1-4.06,7.162,10.235,10.235,0,0,1-2.093.731A12.783,12.783,0,0,1,9.424,60.871Z" fill="#a56b4e"/>
          </g>
        </g>
        <g id="Group_52249" data-name="Group 52249" transform="translate(9.651 46.557)">
          <g id="Group_52248" data-name="Group 52248" transform="translate(0 0)">
            <path id="Path_44685" data-name="Path 44685" d="M6.052,3.041,3.026,0,0,3.041,3.026,6.082Zm-2.27,0H3.026v-.76m-.757.76h.757V3.8" fill="none" stroke="rgba(0,0,0,0)" stroke-linecap="round" stroke-linejoin="round" stroke-width="0.075"/>
          </g>
        </g>
      </g>
      <g id="Group_52309" data-name="Group 52309" transform="matrix(0.559, -0.829, 0.829, 0.559, -12.634, 120.527)">
        <g id="Group_52252" data-name="Group 52252" transform="translate(93.612 106.491)">
          <g id="Group_52251" data-name="Group 52251" transform="translate(0 0)">
            <path id="Path_44686" data-name="Path 44686" d="M9.693,2.809A8.375,8.375,0,0,0,8.583,4.1a4.822,4.822,0,0,0-.53,1.488A4.77,4.77,0,0,0,8.029,7.2q-.151.4-.227.58a1.039,1.039,0,0,1-.4.5,1.922,1.922,0,0,1-1.034.1,3.126,3.126,0,0,0-1.412.227.073.073,0,0,1-.05.025A3.989,3.989,0,0,0,2,9.719,5.454,5.454,0,0,0,.488,11.56a4.548,4.548,0,0,0-.479,2.32,3.51,3.51,0,0,0,.933,2.169,3.007,3.007,0,0,0,1.992,1.084,3.116,3.116,0,0,0,2.522-.857,5.346,5.346,0,0,0,1.16.58,6.722,6.722,0,0,0,1.664.3,7.011,7.011,0,0,0,1.891,0q.2-.05.378-.1a1.889,1.889,0,0,0,.883.429,2.238,2.238,0,0,0,1.362-.177A1.969,1.969,0,0,0,13.8,16.3a2.088,2.088,0,0,0,.151-1.362,1.337,1.337,0,0,0-.076-.277,3.527,3.527,0,0,0,.58-1.387q.076-.4.126-.908a5.8,5.8,0,0,0,1.337,0,6.989,6.989,0,0,0,1.034-.177,1.482,1.482,0,0,0,.05.353,2.635,2.635,0,0,0,1.362,1.967,2.807,2.807,0,0,0,2.244.227,3.181,3.181,0,0,0,1.816-1.362,2.787,2.787,0,0,0,.555-1.791,4.228,4.228,0,0,0-.479-1.564A2.581,2.581,0,0,0,20.89,8.484a8.843,8.843,0,0,0,.252-1.009,6.478,6.478,0,0,0-.05-2.547A6.579,6.579,0,0,0,18.242.792,3.986,3.986,0,0,0,16.3.01a5.184,5.184,0,0,0-1.463.151l-.454.1A6.532,6.532,0,0,0,13.1.338a4.349,4.349,0,0,0-2.623,1.387Z" fill="#1d0d0c"/>
          </g>
        </g>
        <g id="Group_52255" data-name="Group 52255" transform="matrix(0.999, -0.043, 0.043, 0.999, 19.396, 83.029)">
          <g id="Group_52254" data-name="Group 52254" transform="translate(0 0)">
            <g id="Group_52253" data-name="Group 52253">
              <path id="Path_44687" data-name="Path 44687" d="M11.049,6.3A10.461,10.461,0,0,1,11.3,3.833Q10.746,3.1,10.645,3a8.374,8.374,0,0,0,.4,3.3M9.208,1.866l.05-.2-.3-.252A9.575,9.575,0,0,0,6.963.05.978.978,0,0,1,6.837,0a.637.637,0,0,0-.151.076Q6.03.454,4.618,1.11A8.75,8.75,0,0,0,2.726,2.371,6.8,6.8,0,0,0,1.465,4.212q-.3.656-.832,2.144A9.98,9.98,0,0,0,0,9.054a10.017,10.017,0,0,0,.177,1.891q.2,1.261.353,2.118a28.141,28.141,0,0,0,4.792,7.767,9.073,9.073,0,0,0,1.488.984,3.679,3.679,0,0,0,1.564.479,1.673,1.673,0,0,0,1.488-.58,2.844,2.844,0,0,0,.58-1.564q.05-.353.1-.681a17.336,17.336,0,0,0-.353-2.345,9.556,9.556,0,0,0-.353-1.185A13.82,13.82,0,0,0,7.493,11.7a3.321,3.321,0,0,0-.883-.832q-.151-.1-.429-.277A.489.489,0,0,1,6,10.365,3.83,3.83,0,0,0,4.24,9.911a.955.955,0,0,1-.378-.05q-.252-.1-.151-.328a.61.61,0,0,1,.277-.126,5.163,5.163,0,0,1,1.967.2q.277.1.5.2a2.657,2.657,0,0,1,2.32.984,12.97,12.97,0,0,1,1.816,2.194q-.1-1.059-.277-2.118-.252-1.488-.883-4.489A15.846,15.846,0,0,1,9.208,1.866Z" transform="translate(1.099 0.227)" fill="#a56b4e"/>
              <path id="Path_44688" data-name="Path 44688" d="M7.936.227a3.912,3.912,0,0,0-3.379.4A8.785,8.785,0,0,0,.673,5.2a6.079,6.079,0,0,0-.53,3.934A40.259,40.259,0,0,0,1.631,13.29q-.151-.857-.353-2.118A10.017,10.017,0,0,1,1.1,9.28a9.98,9.98,0,0,1,.63-2.7q.53-1.488.832-2.144A6.8,6.8,0,0,1,3.825,2.6,8.75,8.75,0,0,1,5.717,1.337Q7.129.681,7.785.3A.637.637,0,0,1,7.936.227Z" fill="#b78871"/>
              <path id="Path_44689" data-name="Path 44689" d="M12.436,11.6,11.075,7.969A18.818,18.818,0,0,0,9.94,5.422q-.151-.252-.782-1.185-.3-.429-.706-.984-.5-.656-.832-1.084A10.461,10.461,0,0,0,7.367,4.64a8.374,8.374,0,0,1-.4-3.3l-.025-.025A13.392,13.392,0,0,0,5.577,0l-.05.2a15.846,15.846,0,0,0,.227,4.514q.63,3,.883,4.489.177,1.059.277,2.118A12.97,12.97,0,0,0,5.1,9.129a2.657,2.657,0,0,0-2.32-.984q-.227-.1-.5-.2a5.163,5.163,0,0,0-1.967-.2.61.61,0,0,0-.277.126q-.1.227.151.328a.955.955,0,0,0,.378.05A3.83,3.83,0,0,1,2.324,8.7a.489.489,0,0,0,.177.227q.277.177.429.277a3.321,3.321,0,0,1,.883.832,13.82,13.82,0,0,1,2.345,4.237,9.556,9.556,0,0,1,.353,1.185A17.336,17.336,0,0,1,6.863,17.8q-.05.328-.1.681a2.844,2.844,0,0,1-.58,1.564,1.673,1.673,0,0,1-1.488.58,3.679,3.679,0,0,1-1.564-.479,9.073,9.073,0,0,1-1.488-.984,21.9,21.9,0,0,0,1.639,1.664.293.293,0,0,0,.076.05l2.6,2.068a4.154,4.154,0,0,1,.353.227A6.21,6.21,0,0,0,9.99,24.26a6.869,6.869,0,0,0,2.169-.5,2.77,2.77,0,0,0,1.564-1.513,4.783,4.783,0,0,0,.252-1.513,22.105,22.105,0,0,0-.479-5.977A25.307,25.307,0,0,0,12.436,11.6Z" transform="translate(4.78 1.891)" fill="#84553e"/>
            </g>
          </g>
        </g>
        <g id="Group_52258" data-name="Group 52258" transform="translate(124.148 109.341) rotate(-176.773)">
          <g id="Group_52257" data-name="Group 52257" transform="translate(0 0)">
            <g id="Group_52256" data-name="Group 52256">
              <path id="Path_44690" data-name="Path 44690" d="M11.049,15.992a10.461,10.461,0,0,0,.252,2.471q-.555.731-.656.832a8.374,8.374,0,0,1,.4-3.3M9.208,20.431l.05.2-.3.252a9.575,9.575,0,0,1-1.992,1.362.978.978,0,0,0-.126.05.637.637,0,0,1-.151-.076q-.656-.378-2.068-1.034a8.75,8.75,0,0,1-1.891-1.261,6.8,6.8,0,0,1-1.261-1.841q-.3-.656-.832-2.144a9.979,9.979,0,0,1-.63-2.7,10.017,10.017,0,0,1,.177-1.891q.2-1.261.353-2.118A28.141,28.141,0,0,1,5.324,1.466,9.073,9.073,0,0,1,6.812.483,3.679,3.679,0,0,1,8.375,0a1.673,1.673,0,0,1,1.488.58,2.844,2.844,0,0,1,.58,1.564q.05.353.1.681a17.335,17.335,0,0,1-.353,2.345,9.556,9.556,0,0,1-.353,1.185A13.82,13.82,0,0,1,7.493,10.6a3.321,3.321,0,0,1-.883.832q-.151.1-.429.277A.489.489,0,0,0,6,11.932a3.83,3.83,0,0,1-1.765.454.955.955,0,0,0-.378.05q-.252.1-.151.328a.61.61,0,0,0,.277.126,5.163,5.163,0,0,0,1.967-.2q.277-.1.5-.2a2.657,2.657,0,0,0,2.32-.984,12.97,12.97,0,0,0,1.816-2.194q-.1,1.059-.277,2.118-.252,1.488-.883,4.489A15.846,15.846,0,0,0,9.208,20.431Z" transform="translate(1.099 3.644)" fill="#a56b4e"/>
              <path id="Path_44691" data-name="Path 44691" d="M7.936,13.063a3.912,3.912,0,0,1-3.379-.4A8.785,8.785,0,0,1,.673,8.1a6.079,6.079,0,0,1-.53-3.934A40.259,40.259,0,0,1,1.631,0Q1.48.857,1.278,2.118A10.017,10.017,0,0,0,1.1,4.01a9.979,9.979,0,0,0,.63,2.7q.53,1.488.832,2.144a6.8,6.8,0,0,0,1.261,1.841,8.75,8.75,0,0,0,1.891,1.261q1.412.656,2.068,1.034A.637.637,0,0,0,7.936,13.063Z" transform="translate(0 12.878)" fill="#b78871"/>
              <path id="Path_44692" data-name="Path 44692" d="M12.436,12.676l-1.362,3.631A18.818,18.818,0,0,1,9.94,18.855q-.151.252-.782,1.185-.3.429-.706.984-.5.656-.832,1.084a10.461,10.461,0,0,1-.252-2.471,8.374,8.374,0,0,0-.4,3.3l-.025.025a13.391,13.391,0,0,1-1.362,1.311l-.05-.2a15.846,15.846,0,0,1,.227-4.514q.63-3,.883-4.489.177-1.059.277-2.118A12.97,12.97,0,0,1,5.1,15.148a2.657,2.657,0,0,1-2.32.984q-.227.1-.5.2a5.163,5.163,0,0,1-1.967.2.61.61,0,0,1-.277-.126q-.1-.227.151-.328a.955.955,0,0,1,.378-.05,3.83,3.83,0,0,0,1.765-.454.489.489,0,0,1,.177-.227q.277-.177.429-.277a3.321,3.321,0,0,0,.883-.832A13.82,13.82,0,0,0,6.157,10,9.556,9.556,0,0,0,6.51,8.818a17.336,17.336,0,0,0,.353-2.345q-.05-.328-.1-.681a2.844,2.844,0,0,0-.58-1.564,1.673,1.673,0,0,0-1.488-.58,3.679,3.679,0,0,0-1.564.479,9.073,9.073,0,0,0-1.488.984A21.9,21.9,0,0,1,3.282,3.446a.293.293,0,0,1,.076-.05l2.6-2.068A4.154,4.154,0,0,0,6.308,1.1,6.209,6.209,0,0,1,9.99.017a6.869,6.869,0,0,1,2.169.5,2.77,2.77,0,0,1,1.564,1.513,4.783,4.783,0,0,1,.252,1.513A22.105,22.105,0,0,1,13.5,9.524,25.306,25.306,0,0,1,12.436,12.676Z" transform="translate(4.78 0)" fill="#84553e"/>
            </g>
          </g>
        </g>
        <g id="Group_52260" data-name="Group 52260" transform="translate(23.197 57.924)">
          <g id="Group_52259" data-name="Group 52259" transform="translate(0 0)">
            <path id="Path_44693" data-name="Path 44693" d="M.594,9.689A71.125,71.125,0,0,0,.166,23.131q.252,2.144.479,3.909v-.025q.025.05,0,.076a.741.741,0,0,1,.025.177l.58,3.657a48.391,48.391,0,0,0,2.017,7.515,16.649,16.649,0,0,0,1.488,3.178.294.294,0,0,0,.05.076,532.576,532.576,0,0,1,.05.1,2.144,2.144,0,0,1,.277.277.874.874,0,0,0,.757.252q.681-.177.605-1.513L5.436,27.746q-.277-4.691-1.69-16.518Q2.36-.247,2.208.005,1.452,1.115.594,9.689m94.419,3.278q.58-8.6.05-9.835-.1-.277-3.4,10.794Q88.254,25.35,87.2,29.915L83.942,42.65q-.3,1.286.353,1.564a.907.907,0,0,0,.782-.126q.126-.1.3-.227a.089.089,0,0,0,.076-.076l.076-.076a16.832,16.832,0,0,0,1.992-2.85,46.953,46.953,0,0,0,3.253-7.112l1.185-3.505.076-.227-.025.025q.555-1.711,1.16-3.783A69.488,69.488,0,0,0,95.013,12.968Z" fill="#1d0d0c"/>
          </g>
        </g>
        <g id="Group_52266" data-name="Group 52266" transform="translate(2.468 2.169)">
          <g id="Group_52262" data-name="Group 52262" transform="translate(23.764 32.282)">
            <g id="Group_52261" data-name="Group 52261" transform="translate(0 0)">
              <path id="Path_44694" data-name="Path 44694" d="M12.236,20.629Q3.384,17.231,0,12.635a22.71,22.71,0,0,0,8.027,7.591q11.5,6.051,21.657,6.179,1.2.013,2.374-.05,10.534-.6,20.58-7.843Q59.923,13.267,65.167,0q-6.927,13.326-15.05,18.183a60.262,60.262,0,0,1-8.369,4.262,30.187,30.187,0,0,1-9.4,1.639A51.175,51.175,0,0,1,12.236,20.629Z" transform="translate(13.434 76.614)" fill="#b78871"/>
              <path id="Path_44695" data-name="Path 44695" d="M84.327,16.619a22.532,22.532,0,0,0-7.708-8.272A43.653,43.653,0,0,0,66.341,3.682,68.4,68.4,0,0,0,45.467,0L42.6.1a70.977,70.977,0,0,0-21,4.766,47.312,47.312,0,0,0-10.425,5.271,24.587,24.587,0,0,0-7.953,8.827A27.184,27.184,0,0,0,.757,26.48a52.991,52.991,0,0,0-.734,8.045A90.183,90.183,0,0,0,.757,46.882Q1,48.918,1.3,50.942a.488.488,0,0,0,.024.2q.2,1.677.489,3.379.361,2.1.734,4.186.661,3.585,1.517,7.036,3.524,14.507,8.957,22.9l.147.252a1.71,1.71,0,0,0,.269.353q3.384,4.6,12.236,7.994A51.175,51.175,0,0,0,45.785,100.7a30.187,30.187,0,0,0,9.4-1.639A60.262,60.262,0,0,0,63.551,94.8q8.123-4.856,15.05-18.183a114.447,114.447,0,0,0,4.454-14.173q.7-2.932,1.346-5.926a.225.225,0,0,1,.024-.1q.349-1.709.71-3.379.159-1.223.392-2.446.557-3.31,1-6.658a84.635,84.635,0,0,0,.905-12.055,53.365,53.365,0,0,0-.71-7.919A25.728,25.728,0,0,0,84.327,16.619Z" fill="#a56b4e"/>
            </g>
          </g>
          <g id="Group_52265" data-name="Group 52265" transform="translate(0 0)">
            <g id="Group_52264" data-name="Group 52264">
              <g id="Group_52263" data-name="Group 52263">
                <path id="Path_44696" data-name="Path 44696" d="M17.4,15.436A2.791,2.791,0,0,0,15.492,17a3.229,3.229,0,0,0-4.185,0,1.384,1.384,0,0,0-.489.656c-.816,1.849,1.89.9,3.408,2.092.228.185-1.874,2.733-1.6,2.7a2.566,2.566,0,0,1,1.3.605,4.947,4.947,0,0,0,.563,1.967c1.795,3.447,6.821,2.122,10.378,1.887l.064,8.844c-.555-.2-3.17-.087-3.562-.456-1.109-1.076,4.732-3.6,3.247-3.6-3.067-.017-12.542-.558-14.141,2.3a4.647,4.647,0,0,0-1.86-1.337,3.338,3.338,0,0,0-3.034.2Q2.6,34.5,3.036,38.284c.179,1.513,3.918,1.04,4.962,2.1,1.713,1.765.324,3.625,2.086,2.062.212.252,9.213.671,9.441.906,1.941,1.984-4.53,2.734-1.855,2.6-.408.134-.172-3.973-.547-3.771-1.354.689-3.164,5.923-4.176,7.15a17.6,17.6,0,0,0-2.276.454,6.515,6.515,0,0,0-4.5,3.379,8.065,8.065,0,0,0-.392,7.566,13.97,13.97,0,0,0-1.884.555A5.641,5.641,0,0,0,.173,65.8a6.027,6.027,0,0,0,1.346,5.523A2.581,2.581,0,0,0,.467,73.868a2.826,2.826,0,0,0,1.542,2.371,1.766,1.766,0,0,0,1.64,0Q5.63,75.154,4.8,72.733l3.377-.757a10.218,10.218,0,0,0,.049,1.412,8.737,8.737,0,0,0,2.57,5.6,2.735,2.735,0,0,0-.808,2.8A1.719,1.719,0,0,0,11.479,83.2q2.741.58,3.4-2.446l1.273-.025a7.509,7.509,0,0,0-1.395,7.692,3.927,3.927,0,0,0,.636,1.185,9.415,9.415,0,0,0,5.579,3.43,12.822,12.822,0,0,1-.759-6.3q.122.151.269.3a4.118,4.118,0,0,0,1.542.984,2.669,2.669,0,0,0,2.007-.227l2.911,7c-.323-4.672-1.415-7.532-1.418-11.383a60.884,60.884,0,0,1,.2-6.834,5.179,5.179,0,0,0,1.15-1.69,3.693,3.693,0,0,0,.245-1.765,6.693,6.693,0,0,0-2.423-4.464,4.922,4.922,0,0,0,1.2-.252,1.719,1.719,0,0,0,1.1-1.866,4.416,4.416,0,0,0-.587-2.043,6.881,6.881,0,0,0,5.7-1.463,9.423,9.423,0,0,0,3.671-6.683l3.45.555q-.024.5-.024,1.009a8.6,8.6,0,0,0,.71,3.581,4.668,4.668,0,0,0-2.031,2.194,6.142,6.142,0,0,0-.294,4.312,1.861,1.861,0,0,0-1.86-.2q-1.958.908-1.077,3.178A1.859,1.859,0,0,0,35.926,72.2q2.545.807,2.986-2.169A4.158,4.158,0,0,0,40.6,71.094a4.675,4.675,0,0,0,4.723-.908,5.061,5.061,0,0,0,1.811-5.145l.783-.05a8.376,8.376,0,0,0,5.628-4.01l.612-2.8q.759.63,1.566,1.185A5.379,5.379,0,0,0,60.03,60.4l.22.807a17.373,17.373,0,0,0-2.227,1.311,2.438,2.438,0,0,0-.954,2.093q-.024,3.556,2.961,3.934a2.488,2.488,0,0,0-.147.857q.171,2.446,2.349,2.572a1.927,1.927,0,0,0,1.64-.908q1.664-2.27-.44-3.909l1.028-2.951a8.5,8.5,0,0,0,5.677-.807,4.072,4.072,0,0,0,2.276-3.1,8.32,8.32,0,0,0,4.527-1.866,13.331,13.331,0,0,0,1.615-1.589,5.894,5.894,0,0,0,1.395-4.59l1.077-.151q.343.706.71,1.437A3.04,3.04,0,0,0,83.3,54.979a10.749,10.749,0,0,0,6.925.227l.979,1.488a7.439,7.439,0,0,0-.954.958,6.777,6.777,0,0,0-1.1,1.816,7.572,7.572,0,0,0,.024,5.7,5.868,5.868,0,0,0,.636,1.236A9.091,9.091,0,0,0,92.5,69.051a4.272,4.272,0,0,0,5.531-.126,9.181,9.181,0,0,1-.049.933,4.42,4.42,0,0,0,.954,3.278,5.669,5.669,0,0,0,4.7,2.27,2.889,2.889,0,0,0,1.542-.479,4.7,4.7,0,0,1,1.1-.681q1.248,19.62,2.741,20.024.954.252,3.426-4.842,1.273-2.522,2.472-5.019c1.452.757-.286-3.123,1.068-3.56,1.126-.387,5.115,2.988,5.686,2.047l-.7-1.351-4.218-5.806-.365-3.258c.2-.286,2.343,6.372,2.343,6.372s3.7-3.076,2.625-4.858l3.274,2.5a6.086,6.086,0,0,0,1.493,1.765c.75.605.893-1.911,1.774-1.743,2.349.235-2.319,3.177-1.226.891a4.886,4.886,0,0,0,.024-4.338c-1.142-2.4,4.159-4.528,1.777-4.242.114-1.11-7.543-.294-8.049-1.319-.979-2.034.828-11.033-1.195-11.4a6.532,6.532,0,0,0,1.37-1.69,8.467,8.467,0,0,0,1-3.455,6.1,6.1,0,0,0,1.737-.4c.93-.37,5.9,5.039,6.6,4.4.587.5,1.962-.064,2.631.188,1,.387,1.219,1.35,2.165,1,.7,1.042-2.052.5-.943.685a4.015,4.015,0,0,0,3.083-1.059l.508-.584.618-1.787q.22-3.077-2.618-3.4A5.719,5.719,0,0,0,135.1,45.9a3.713,3.713,0,0,0-1-1.437c-2.121-1.883-.77-1.038-3.266.223-.571-.74-2.6,1.528-3.236.872a2.3,2.3,0,0,0-.954-.58c-2.431-.588-3.428-3.243-5.843-2.032a1.091,1.091,0,0,0,.1-1.185c-.163-.4-12.34.63-12.682.378a8.447,8.447,0,0,0,3.818-1.135,5.091,5.091,0,0,0,2.08-2.194,1.448,1.448,0,0,0,1.689-.025,1.909,1.909,0,0,0,.832-2.446c-.408-1.278,10.716-3.194,9.526-3.026a4.213,4.213,0,0,0-1.1-1.488,5.861,5.861,0,0,0-6.363-.807,19.6,19.6,0,0,0-2.1-1.614,7.229,7.229,0,0,0-4.356-1.236c.343-1.11-13.564,5.14-13.857,4.03-.1-.353,9.035-3.357,8.839-3.66-1-1.53,2.261-6.919.467-6.8l-4.629-2.225c.718.622,7.6-2.488,8.547-2.438,1.175.1,2.273,3.771,3.3,3.1.506,1.664-2.852-2.54-1.237-2.1,1.354.319.5.419.664-1.162s2.114-1.92.792-2.391c.245-1.4-2.573.8-2.573.8s.665-3.916-2.222-3.059c-1.06-2.555-4.814-.038-7.408-.744-2.986-.757-3.727-4.114-6.076-1.777A10.081,10.081,0,0,0,88,8.7a5.677,5.677,0,0,0-2.986,2.976q-.367-.429-.759-.832a7.313,7.313,0,0,0-4.5-2.4c.7-1.328-6.128,1.857-6.4.361C72.811,6.054,78.3.053,75.741,0q-4.331-.1-5.6,4.388-.734.05-1.468.126A8.86,8.86,0,0,0,61.5,9.182,6.632,6.632,0,0,0,58.66,6.963a10.23,10.23,0,0,0-2.741-.807A7.637,7.637,0,0,0,48.6,9.661a4.594,4.594,0,0,0-3.059-.883,4.012,4.012,0,0,0-2.961,1.891,3.256,3.256,0,0,0-.612-.807,11.933,11.933,0,0,0-2.888-2.27,4.82,4.82,0,0,0-3.866-.53A8.829,8.829,0,0,0,32.622,8.45a5.2,5.2,0,0,0-1.958,4.464A6.683,6.683,0,0,0,31.888,16.6a8.582,8.582,0,0,0,2.888,2.5,9.72,9.72,0,0,0-4.552-1.236,11.144,11.144,0,0,0-4.576,1.463q-.538-3.808-4.968-4.262A6.819,6.819,0,0,0,17.4,15.436Z" fill="#84553e"/>
              </g>
            </g>
          </g>
        </g>
        <g id="Group_52271" data-name="Group 52271" transform="translate(56.802 117.925)">
          <g id="Group_52268" data-name="Group 52268" transform="translate(0 0.686)">
            <g id="Group_52267" data-name="Group 52267" transform="translate(0 0)">
              <path id="Path_44697" data-name="Path 44697" d="M20.7.171h-.05l-2.8,1.412q-.227.1-.353.151l-.1.025-.076.05-.378.151-.2.05-.782.3q-1.059.328-1.74.479l-1.059.227h-.126l-.353.05-.1.025-1.463.1L9.28,3.122,9.154,3.1,8.9,3.072H8.776L7.944,2.92,7.692,2.9,7.566,2.87l-.05-.025h-.05l-.706-.151-.126-.05h-.05l-.05-.025-.908-.227L5.2,2.239l-.227-.05-.1-.05-.1-.025L.277.1.05.02Q0-.03,0,.045V.071l.151.2L1.437,1.609l.05.025v.025l.025.025h.025l.177.177.151.1.126.126L3.732,3.3l2.017.958L6,4.333l.05.025.025.025h.05l.227.1.126.025.53.177h.05l.2.076,1.21.252.076.025h.076l1.412.151h.277l.151.025h.429l.126-.025,1.841-.177.555-.1.05-.025.076-.025.126-.025.53-.151a.409.409,0,0,0,.252-.076l.252-.076a11.574,11.574,0,0,0,1.866-.807L17,3.5l.555-.378.2-.1L17.93,2.9l.076-.076.076-.05L19.62,1.508,19.9,1.18,20,1.1l.076-.1.151-.151.5-.605Z" fill="#231915"/>
            </g>
          </g>
          <g id="Group_52270" data-name="Group 52270" transform="translate(18.788 0)">
            <g id="Group_52269" data-name="Group 52269" transform="translate(0 0)">
              <path id="Path_44698" data-name="Path 44698" d="M.126.1l-.1.05L0,.2l.1.05H.227L.3.277H.4l.252.05.151.05L.933.4l.378.151h.05L1.387.58l.05.025L1.463.63l.076.025.252.177.177.227.025.05v.025l.05.076.05.151.05.3v.05l.025.076v.782a.045.045,0,0,0,.05.05L2.244,2.6l.025-.05.076-.1.025-.1.1-.227V2.043L2.5,1.967l.025-.151.025-.076-.025-.58-.025-.1L2.4.832,2.144.5,1.69.177h-.05l-.1-.05h-.05l-.1-.05L.857,0H.605L.555.025H.4L.2.076.177.1Z" fill="#231915"/>
            </g>
          </g>
        </g>
        <g id="Group_52276" data-name="Group 52276" transform="translate(61.235 99.101)">
          <g id="Group_52273" data-name="Group 52273" transform="translate(0.863 1.295)">
            <g id="Group_52272" data-name="Group 52272" transform="translate(0 0)">
              <path id="Path_44699" data-name="Path 44699" d="M3.955.935H3.884L3.812.971H3.74l-.072.036H3.057v.036h-.18l-.467.144a2.323,2.323,0,0,0-.683.288L1.4,1.69a1.057,1.057,0,0,0-.288.252l-.144.144-.252.324L.4,2.949.18,3.524l-.108.539L0,5.789.036,5.9v.108l.036.072v.18l.036.18.072.18.072.36.432.971.611.791.432.432.683.467.647.288.971.252h.36a.064.064,0,0,0,.072-.072l-.9-.935-.108-.144-.144-.144L3.2,8.7,3.128,8.63l-.036-.072-.144-.18-.036-.108-.072-.108L2.8,8.091l-.072-.108L2.7,7.875,2.625,7.8,2.337,6.94l-.108-.5-.036-.108V6.221l-.036-.144V5.646l-.036-.072.036-1.187.036-.108V4.171L2.3,3.848V3.74l.108-.288.036-.072.072-.072L2.553,3.2l.108-.144.072-.072.036-.072.288-.252.18-.108.108-.036.072-.036V2.445h.036l.072-.036H3.56l.36-.18.108-.072.144-.072.108-.072L4.495,1.8l.072-.036L4.6,1.69l.216-.324.072-.216.036-.036V1.079L5,.863V.719l.036-.18L5,.432V.216L4.926.072,4.854,0,4.819.036,4.747.18l-.252.36a.879.879,0,0,1-.4.324Z" fill="#b78871"/>
            </g>
          </g>
          <g id="Group_52275" data-name="Group 52275" transform="translate(0 0)">
            <g id="Group_52274" data-name="Group 52274">
              <path id="Path_44700" data-name="Path 44700" d="M5.789.288,5.646.036,5.574,0,5.538.036,5.5.324V.467L5.466.611v.467l-.036.072-.072.072v.036l-.216.216L5.07,1.51l-.036.036-.072.036H4.926l-.036.036-.144.072-.108.036-.18.036L4.351,1.8H4.243l-.18.036h-.18l-.036.036h-.4l-.072.036a3,3,0,0,0-1.187.36l-.5.36-.432.4-.18.216-.072.144L.9,3.488v.036H.863q.035,0,0,.036V3.6L.791,3.7l-.072.144-.036.036L.575,4.1.5,4.207l-.216.539-.252.971v.144L0,6.113v.935l.036.18v.108l.036.144v.144l.144.683L.539,9.1l.072.144.072.108a3.524,3.524,0,0,0,.683.9l.108.108.108.072.216.18.072.036.036.036.108.072.5.252.108.072.072.036h.072l.863.288H3.74l.755.108H5l.252-.036.072-.072-.036-.036-1.079-.539L4.1,10.752l-.108-.036-.072-.072-.108-.036L3.7,10.536l-.072-.072-.108-.072-.072-.036-.18-.144L3.2,10.176l-.432-.4-.036-.072-.288-.288-.036-.108L2.194,8.99l-.036-.072L2.05,8.63a3.156,3.156,0,0,1-.216-.719L1.726,7.3l.036-1.223L1.8,5.969V5.9l.036-.072V5.682L1.87,5.61l.288-.827.036-.036V4.711l.036-.072L2.3,4.531l.036-.072.216-.324.5-.539L3.2,3.488h.036l.036-.036.288-.144H3.6l.036-.036H3.7l.036-.036.4-.108h.036l.072-.036.252-.072.144-.072.108-.072.144-.036L5.142,2.7l.467-.4.108-.108.072-.144.072-.108L5.9,1.906V1.87L5.933,1.8a1.349,1.349,0,0,0,.144-.611V1.079L5.9.539,5.825.4Z" fill="#84553e"/>
            </g>
          </g>
        </g>
        <g id="Group_52293" data-name="Group 52293" transform="translate(37.323 86.601) rotate(1.949)">
          <g id="Group_52284" data-name="Group 52284" transform="translate(39.969 7.579)">
            <g id="Group_52283" data-name="Group 52283" transform="translate(0 0)">
              <path id="Path_44703" data-name="Path 44703" d="M21.453,0H21.4l-4.17,2.019-.1.026-.393.184-3.278.918h-.131l-.131.026-2.2.157a3.7,3.7,0,0,1-.5-.026h-.236l-.131-.026h-.1l-.5-.052H9.468L9.441,3.2H9.284l-.131-.026-.079-.026H9.048l-3.75-1L1.888,1.1l-.157-.026L1.6,1.023.839.865.315.813.21.787H.052Q0,.734,0,.813L.026.865.079.918.157.944.262,1l.42.288.21.1.446.288.131.052L4.694,3.619a18.007,18.007,0,0,0,1.836.839l1.547.551.551.131h.026l.026.026h.1l.262.052.026.026h.1l.6.1H9.94l.131.026.288.026,1.783-.026,1.7-.262,1.6-.525A12.266,12.266,0,0,0,17.309,3.7l.1-.052.1-.079.21-.1,2.728-2.2L21.479.079Z" fill="#231915"/>
            </g>
          </g>
          <g id="Group_52292" data-name="Group 52292" transform="translate(0 7.729)">
            <g id="Group_52291" data-name="Group 52291" transform="translate(0 0)">
              <path id="Path_44706" data-name="Path 44706" d="M21.742,1.214l-1.678.079-8.392,1.39h-.1l-.262.026h-.079l-.052.026h-.367l-.236.026L8.314,2.709l-1.18-.157H7L2.937,1.371,2.78,1.293,2.623,1.24,1.574.768,1.442.689,1.18.584.079.034Q0-.045,0,.06V.112L.682.873a7.441,7.441,0,0,0,.839.813l.551.472,1.39.944,1.285.656,2.518.813.813.157.288.026a11.975,11.975,0,0,0,2.282.1l.288-.026h.131l.157-.026h.21l.079-.026.262-.026h.157l2.675-.577.1-.052.262-.052q1.18-.393,1.862-.656l3.278-1.338L20.247,2l1.521-.708.026-.052Z" fill="#231915"/>
            </g>
          </g>
        </g>
        <g id="Group_52296" data-name="Group 52296" transform="translate(79.01 75.031) rotate(11.459)">
          <g id="Group_52295" data-name="Group 52295" transform="translate(0 0)">
            <g id="Group_52294" data-name="Group 52294">
              <path id="Path_44707" data-name="Path 44707" d="M13.26.084Q8.015-.546.462,3.546q-1.18,1.783.656,2.675l2.019-.892a34.736,34.736,0,0,1,5.14-1.574Q16.617,1.92,22.44,5.093,17.8.635,13.26.084Z" fill="#1d0d0c"/>
            </g>
          </g>
        </g>
        <g id="Group_52299" data-name="Group 52299" transform="translate(57.917 81.477) rotate(169.798)">
          <g id="Group_52298" data-name="Group 52298" transform="translate(0 0)">
            <g id="Group_52297" data-name="Group 52297">
              <path id="Path_44708" data-name="Path 44708" d="M13.26,6.137Q8.015,6.766.462,2.675-.718.892,1.117,0L3.137.892a34.735,34.735,0,0,0,5.14,1.574Q16.617,4.3,22.439,1.128,17.8,5.586,13.26,6.137Z" fill="#1d0d0c"/>
            </g>
          </g>
        </g>
        <g id="Group_52306" data-name="Group 52306" transform="translate(0 0)">
          <g id="Group_52301" data-name="Group 52301" transform="translate(0.317 0)">
            <g id="Group_52300" data-name="Group 52300" transform="translate(0)">
              <path id="Path_44709" data-name="Path 44709" d="M35.205,7.24a8.36,8.36,0,0,0-2.59,1.412,5.308,5.308,0,0,0-1.954,4.565,6.756,6.756,0,0,0,1.229,3.758,8.742,8.742,0,0,0,2.919,2.6,9.459,9.459,0,0,0-4.588-1.311,11.346,11.346,0,0,0-4.588,1.513q-.527-3.909-4.961-4.363a6.792,6.792,0,0,0-3.271.378,2.862,2.862,0,0,0-1.91,1.614,3.162,3.162,0,0,0-4.193,0,1.463,1.463,0,0,0-.483.656,3.623,3.623,0,0,0,1.054,4.691.939.939,0,0,0,.746.227,2.464,2.464,0,0,1,1.3.605,5.443,5.443,0,0,0,.571,2.017q2.7,5.3,8.034,4.943l.263,2.421a4.435,4.435,0,0,1-1.427-.883,5.333,5.333,0,0,0-3.885-1.664,7.56,7.56,0,0,0-7,4.363,4.742,4.742,0,0,0-1.844-1.362,3.322,3.322,0,0,0-3.029.2q-2.985,1.69-2.546,5.548a6.682,6.682,0,0,0,1.822,3.959q2.568,2.7,5.224.3a7.6,7.6,0,0,0,.659.757,8.5,8.5,0,0,0,6.915,2.824,9.7,9.7,0,0,0-1.185.53,11.129,11.129,0,0,0-3.534,2.951,17.277,17.277,0,0,0-2.283.454,6.613,6.613,0,0,0-4.5,3.455,8.407,8.407,0,0,0-.4,7.742,11.8,11.8,0,0,0-1.866.58A5.771,5.771,0,0,0,.172,67.336a6.293,6.293,0,0,0,1.339,5.649,2.673,2.673,0,0,0-1.032,2.6A2.87,2.87,0,0,0,2.015,78,1.646,1.646,0,0,0,3.64,78q2-1.11,1.163-3.581l3.38-.782A12.21,12.21,0,0,0,8.227,75.1,8.967,8.967,0,0,0,10.8,80.828a2.813,2.813,0,0,0-.812,2.85,1.749,1.749,0,0,0,1.493,1.463q2.744.58,3.4-2.5l1.273-.025a7.833,7.833,0,0,0-1.4,7.868,4.245,4.245,0,0,0,.637,1.211,9.5,9.5,0,0,0,5.6,3.505,13.336,13.336,0,0,1-.768-6.456,2.432,2.432,0,0,0,.263.3,3.948,3.948,0,0,0,1.537,1.009,2.558,2.558,0,0,0,2.019-.227l4.083,7.742q-.527-2.32-1.317-9.558-.812-7.666-1.076-9.659a5.457,5.457,0,0,0,1.141-1.74,3.728,3.728,0,0,0,.241-1.816,6.974,6.974,0,0,0-2.415-4.565,4.692,4.692,0,0,0,1.185-.252A1.768,1.768,0,0,0,27,68.067,4.7,4.7,0,0,0,26.4,66a6.823,6.823,0,0,0,5.707-1.513,9.763,9.763,0,0,0,3.666-6.834l3.446.58q-.022.5-.022,1.009a9.208,9.208,0,0,0,.7,3.682,4.633,4.633,0,0,0-2.019,2.244,6.371,6.371,0,0,0-.307,4.413,1.758,1.758,0,0,0-1.844-.2q-1.976.908-1.076,3.253a1.888,1.888,0,0,0,1.251,1.261q2.546.807,2.985-2.219a4.549,4.549,0,0,0,1.69,1.084,4.63,4.63,0,0,0,4.719-.933,5.286,5.286,0,0,0,1.822-5.271l.79-.05a8.441,8.441,0,0,0,5.619-4.111l.615-2.85q.746.63,1.559,1.21a5.34,5.34,0,0,0,4.3,1.059l.22.807a18.185,18.185,0,0,0-2.217,1.362,2.481,2.481,0,0,0-.966,2.144q-.022,3.631,2.963,4.01a2.267,2.267,0,0,0-.132.883q.154,2.5,2.327,2.623a1.933,1.933,0,0,0,1.646-.908q1.668-2.32-.439-4.01L64.444,65.7a8.178,8.178,0,0,0,5.663-.832,4.151,4.151,0,0,0,2.283-3.152A8.353,8.353,0,0,0,76.912,59.8a14.629,14.629,0,0,0,1.624-1.639,6.025,6.025,0,0,0,1.383-4.691l1.1-.151q.329.731.7,1.463a3.182,3.182,0,0,0,1.559,1.488,10.5,10.5,0,0,0,6.915.227l.988,1.513a9.315,9.315,0,0,0-.944.984,6.838,6.838,0,0,0-1.119,1.866,7.861,7.861,0,0,0,.044,5.826,5.484,5.484,0,0,0,.637,1.261,9.171,9.171,0,0,0,2.678,2.724,4.194,4.194,0,0,0,5.532-.126q0,.454-.044.933a4.581,4.581,0,0,0,.944,3.354,5.609,5.609,0,0,0,4.7,2.345,2.751,2.751,0,0,0,1.537-.5,4.791,4.791,0,0,1,1.119-.681q1.251,20.074,2.722,20.478.966.252,3.446-4.943,1.251-2.6,2.458-5.145a5.178,5.178,0,0,0,4.215.479,4.552,4.552,0,0,0,2.546-2.043l1.844,2.219,1.119-1.437a2.14,2.14,0,0,0,.351-.883,8.9,8.9,0,0,0-1.163-5.876l.79-.555a6.129,6.129,0,0,0,1.493,1.791,5.484,5.484,0,0,0,2.458,1.185q3.512.378,5.158-3.152a5.08,5.08,0,0,0,.022-4.438q-1.712-3.682-5.268-3.228a6.2,6.2,0,0,0-.593-3.278,6.111,6.111,0,0,0-4.5-3.707,6.123,6.123,0,0,0,1.361-1.715,9.021,9.021,0,0,0,1.01-3.556,6.116,6.116,0,0,0,1.734-.4A7.779,7.779,0,0,0,129.9,56.24a7.118,7.118,0,0,0,1.888,1.16,3.984,3.984,0,0,0,2.919.05,4.076,4.076,0,0,0,2.722,1.891,3.951,3.951,0,0,0,3.073-1.084,3.612,3.612,0,0,0,1.12-2.446q.22-3.152-2.612-3.48a6,6,0,0,0-.285-4.186,4.036,4.036,0,0,0-1.01-1.463,5.61,5.61,0,0,0-6.915-.958q-.878-1.135-1.822-2.144a2.276,2.276,0,0,0-.966-.58,10.094,10.094,0,0,0-7.266.958,1.145,1.145,0,0,0,.11-1.21,2.221,2.221,0,0,0-.746-1.009,8.155,8.155,0,0,0,3.8-1.16,5.212,5.212,0,0,0,2.085-2.244,1.451,1.451,0,0,0,1.69-.025,2.009,2.009,0,0,0,.834-2.522,2.046,2.046,0,0,0-2.393-1.69,4.323,4.323,0,0,0-1.119-1.538,5.7,5.7,0,0,0-6.344-.807,20.845,20.845,0,0,0-2.107-1.664,7.11,7.11,0,0,0-4.346-1.261,6.264,6.264,0,0,0,.066-3.4,3.777,3.777,0,0,0-.439-1.009,4.336,4.336,0,0,0-4.193-2.169l1.427-1.765a3.978,3.978,0,0,0,2.5,1.034,4.871,4.871,0,0,0,3.293-.857,4.4,4.4,0,0,0,3.183,3.228q2.019.479,2.261-1.942a2.66,2.66,0,0,0-1.734-3.152,4.5,4.5,0,0,0-.922-3.758q-3.029-3.808-7.354-2.5a8.044,8.044,0,0,0-5.488-4.993A7.877,7.877,0,0,0,96.8,9.964,10.027,10.027,0,0,0,89.753,8.45a10.356,10.356,0,0,0-1.778.454,5.789,5.789,0,0,0-2.985,3.051q-.373-.454-.746-.857a7.3,7.3,0,0,0-4.522-2.446,6.452,6.452,0,0,0,.637-4.338Q79.568.078,75.726,0,71.4-.1,70.107,4.491q-.724.05-1.449.126A8.825,8.825,0,0,0,61.48,9.384a6.707,6.707,0,0,0-2.832-2.27A10.132,10.132,0,0,0,55.9,6.307,7.53,7.53,0,0,0,48.6,9.888a4.56,4.56,0,0,0-3.073-.908,3.962,3.962,0,0,0-2.941,1.942,3.693,3.693,0,0,0-.615-.832,12.077,12.077,0,0,0-2.9-2.32A4.675,4.675,0,0,0,35.205,7.24Z" fill="#1d0d0c"/>
            </g>
          </g>
          <g id="Group_52303" data-name="Group 52303" transform="translate(3.627 17.025)">
            <g id="Group_52302" data-name="Group 52302" transform="translate(0 0)">
              <path id="Path_44710" data-name="Path 44710" d="M12.38,51.572a7.867,7.867,0,0,0-2.7,4.312q-1.01,4.691.724,7.213a3.816,3.816,0,0,0,1.954,1.589,4.546,4.546,0,0,1,.417-1.664q-2.327-1.816-1.207-5.6,1.119-3.732,5.246-8.3a12.359,12.359,0,0,0-4.434,2.446M17.648,78.1a15.126,15.126,0,0,1-.637-3.3,25.2,25.2,0,0,1-.066-4.792l-3.732-3.455a7.534,7.534,0,0,0-.022,6.38,10.924,10.924,0,0,0,4.456,5.17m4.5-30.439.2.883a8.992,8.992,0,0,1,.132,1.917q-.176,2.8-2.656,2.8.263.252.966.857a6.1,6.1,0,0,1,1.163,1.866,8.546,8.546,0,0,1,.439,5.573,5.5,5.5,0,0,0,1.427-2.471q.856-3-1.932-5.674,1.866-.5,2.239-1.639a3.9,3.9,0,0,0-.329-2.547,4.083,4.083,0,0,0,3.337-.126,7.324,7.324,0,0,0,3.622-2.925q1.822-2.749,1.888-8.1l-.285-4.212q.285,6.759-2.173,10.34A9.215,9.215,0,0,1,27.2,47.184a7.41,7.41,0,0,1-5.049.479M19.47,28.27q4.258,2.547,7.112,1.564,2.81-.958,4.1-5.321-3.249,6.506-11.041,2.673-4.829,2.169-7.99,1.185a13.015,13.015,0,0,1-4.961-2.6q-4.258,2.4-6.7-2.4.834,3.858,3.358,4.287a3.767,3.767,0,0,0,3.271-.958,7.694,7.694,0,0,0,5.663,3.253,11.2,11.2,0,0,0,7.178-1.69M50.816,42.519a11.6,11.6,0,0,0,1.976-3.253q-.22.2-1.141,1.311a4.4,4.4,0,0,1-1.317,1.16,7.325,7.325,0,0,1-2.985,5.22A6.49,6.49,0,0,1,43.2,48.521q-.483,7.414-6.585,6.859a3.608,3.608,0,0,0,2.854.706,6.394,6.394,0,0,0,3.819-2.093,8.262,8.262,0,0,0,1.229-4.161,10.276,10.276,0,0,0,5.049-3.051,6.1,6.1,0,0,0,1.251-4.262M117.152,62.29q-2.327.479-3.666.63a14.786,14.786,0,0,0,3.337-.025,8.8,8.8,0,0,0,4.28-1.412q1.537,3.026,4.3,2.9A5.4,5.4,0,0,0,129.29,63a6.825,6.825,0,0,0,1.471-2.471,7.009,7.009,0,0,0,.219-1.765q-.11,2.623-4.171,3.682-4.193,1.059-5.817-3.329a5.889,5.889,0,0,1-3.841,3.178M86.464,39.719a5.3,5.3,0,0,0,2.568-1.74q-4.5,1.765-6.607,1.513-2.59-.328-4.237-3.657-.527.076-2,.151a11.64,11.64,0,0,1-2.349,4.968,7.691,7.691,0,0,1-5.268,2.8,7.917,7.917,0,0,1-5.334,4.565,12.717,12.717,0,0,1-2.546.454l-1.076.025,1.3.177a14.379,14.379,0,0,0,2.963-.05q4.434-.58,5.312-4.06a8.491,8.491,0,0,0,7.639-8.3q.022,0,.593-.151.351-.1.373,0a5.512,5.512,0,0,0,2.129,3.1,7.237,7.237,0,0,0,3.4.782,7.687,7.687,0,0,0,3.139-.58M107.1,0q-1.251,2.27-1.4,2.522a7.067,7.067,0,0,1-2.151,2.194q-3.249,1.942-9.2-1.362a7.32,7.32,0,0,1-1.559,3.682,10.9,10.9,0,0,1-3.578,2.118,18.607,18.607,0,0,0,3.446-.883A3.427,3.427,0,0,0,95.025,5.5a10.185,10.185,0,0,0,2.634,1.084,8.2,8.2,0,0,0,2.9.328Q105.869,6.355,107.1,0m15.344,41.384a9.52,9.52,0,0,0,1.976-.605,7.572,7.572,0,0,0,2.239-1.286,4.3,4.3,0,0,0,1.8,1.084,4.928,4.928,0,0,0,2.941.151q1.976,2.7,4.632,1.437a3.915,3.915,0,0,0,1.734-1.538,3.226,3.226,0,0,0,.549-2.169,5.817,5.817,0,0,1-3.139,2.547q-1.537.328-3.139-1.437a3.7,3.7,0,0,1-3.337-.076,3.209,3.209,0,0,1-1.3-1.009,3.369,3.369,0,0,1-.593-1.11q.022.63-1.712,1.816a5.446,5.446,0,0,1-3.8,1.084,7.028,7.028,0,0,1-2.985,5.624q-2.722,1.816-8.341.555a13.077,13.077,0,0,0,6.278,1.437q5.356-.227,6.19-6.506m.307-20.024a1.241,1.241,0,0,0,1.624,0,2.056,2.056,0,0,0,.637-.731,3.053,3.053,0,0,1-.79.277,2.056,2.056,0,0,1-1.58-.2,6.9,6.9,0,0,1-3.951,2.951,11.633,11.633,0,0,1-3.688-.1q-1.01,2.673-1.954,3.253-1.119.706-3.951-.025a3.89,3.89,0,0,1-3.622,2.244,11.674,11.674,0,0,1-3.578-1.16l.79.58a9.057,9.057,0,0,0,1.954.958,3.95,3.95,0,0,0,4.917-1.412q2.919.984,4.61-.151a4.127,4.127,0,0,0,1.668-3.329,4.682,4.682,0,0,0,4.083-.353A5.952,5.952,0,0,0,122.749,21.36Z"/>
            </g>
          </g>
          <g id="Group_52305" data-name="Group 52305" transform="translate(0 6.98)">
            <g id="Group_52304" data-name="Group 52304" transform="translate(0 0)">
              <path id="Path_44711" data-name="Path 44711" d="M12.715,62.021,11,62.979A4.763,4.763,0,0,0,8.939,65.2a12.844,12.844,0,0,0-.7,3.43,7.715,7.715,0,0,0,.878,2.8q1.712,3.505,4.917,2.824a7.66,7.66,0,0,1-1.317-12.231m5.641,15.963a4.655,4.655,0,0,0,.724,2.219,17.133,17.133,0,0,0,1.58,1.891,3.559,3.559,0,0,0,2.415,1.16A5.45,5.45,0,0,0,25.249,83q-6.015-2.244-4.763-5.9-4.829-.126-2.59-4.968-3.8-.706-.439-8.473l-.878.933a12.235,12.235,0,0,0-1.559,2.345q-1.866,3.783.944,6.279a3.842,3.842,0,0,0-.11,2.32,2.905,2.905,0,0,0,2.5,2.446M42.678,56.17q-1.954-3.707-1.383-6.481.724-3.455,5.356-7.44a9.843,9.843,0,0,0-6.1,4.539q-1.91,3.581-.263,9.23a6.628,6.628,0,0,0-2.019,2.017,6.255,6.255,0,0,0-.241,4.716,2.015,2.015,0,0,0-2.415-.1,1.681,1.681,0,0,0-.812,1.866,1.772,1.772,0,0,1,1.624-1.135,9.664,9.664,0,0,1,2.744.731,7.225,7.225,0,0,1-.066-3.2,9.118,9.118,0,0,1,3.578-4.741M22.483,38.946a14.808,14.808,0,0,0-3.644.63,10.024,10.024,0,0,0-5.773,3.858A7.084,7.084,0,0,0,6.547,46.89a8.339,8.339,0,0,0-.4,8.221A6.276,6.276,0,0,0,.686,58.894,5.688,5.688,0,0,0,1.739,65.7a2.931,2.931,0,0,0-.878.933,2.353,2.353,0,0,0-.307,1.286q.22,2.421,1.6,3.1a1.794,1.794,0,0,0,2-.151Q1.893,70.7,1.608,68.88,1.3,67.039,3.452,66.056a8.858,8.858,0,0,1-1.163-4.691q.176-4.691,6.98-4.59a7.616,7.616,0,0,1-1.954-4.237,6.178,6.178,0,0,1,.724-3.808,5.4,5.4,0,0,1,2.634-2.421,4.685,4.685,0,0,1,3.6-.076q.132-3.682,8.21-7.288m2.458-11.727q-1.1-2.8-6.19-3.783t-7.946,4.287a4.85,4.85,0,0,0-2.656-1.538,3.6,3.6,0,0,0-2.612.5,4.451,4.451,0,0,0-1.646,1.74,5.926,5.926,0,0,0-.5,2.295q1.778-3.026,4.1-2.7a6.119,6.119,0,0,1,3.4,2.043Q13.9,25.277,18.488,25.4t6.454,1.816M35.873,13.374a27.623,27.623,0,0,1,9.5,5.422A16.3,16.3,0,0,0,37.1,11.584a11.317,11.317,0,0,0-9.768.656,4.2,4.2,0,0,0-1.3-2.27A7.711,7.711,0,0,0,23.185,8q-4.3-1.74-7.4,2.169-.812-1.311-2.832-.63a3.169,3.169,0,0,0-2.173,3.379,4.928,4.928,0,0,1,1.6-1.765q1.888-1.21,3.293,1.488,2.568-4.237,6.563-2.824a7.427,7.427,0,0,1,2.941,1.992,7.455,7.455,0,0,1,1.8,3,10.143,10.143,0,0,1,8.89-1.437M67.768,41.9q-3.622-1.009-5.027.757-1.339,1.639-1.032,6.279a3.143,3.143,0,0,0-.79.706,4.108,4.108,0,0,0-.944,1.891,6.346,6.346,0,0,0,.066,3.026,5.092,5.092,0,0,0,.527,1.16,5.275,5.275,0,0,0-2.5,1.362,3.238,3.238,0,0,0-.7,2.144,5.03,5.03,0,0,0,.68,2.875,2.865,2.865,0,0,0,2.173,1.236,2.605,2.605,0,0,0-.2.731,1.52,1.52,0,0,0,.022.706,2.986,2.986,0,0,0,1.515,1.816,2.821,2.821,0,0,0,2.063-.025q-2.019-.076-2.393-1.16a4.332,4.332,0,0,1,.263-2.371q-3.1-1.715-1.888-4.413a4.209,4.209,0,0,1,1.449-1.765,2.925,2.925,0,0,1,1.888-.656,4.3,4.3,0,0,1-.856-4.665,7.071,7.071,0,0,1,.856-1.614q.285-.4.483-.63a9.359,9.359,0,0,1-.263-3.808q.549-3.758,4.61-3.581M90.882,57.33a10.987,10.987,0,0,1,1.01-5.094q1.12-2.446,2.634-2.951a6.733,6.733,0,0,0-4.39,2.345,6.354,6.354,0,0,0-1.646,5.145,9.262,9.262,0,0,0,3.644,6.683q3.227,2.446,5.993.177a7.738,7.738,0,0,0-.044,1.11,5.933,5.933,0,0,0,.79,3.228,6.6,6.6,0,0,0,2.107,1.639q3.776,2.093,6.08-1.437a6.809,6.809,0,0,1-4.149.63q-4.149-.681-4.127-7.49-.176-.076-.439.984a6.472,6.472,0,0,0-.2,1.211q-3.622.353-5.532-1.538a6.738,6.738,0,0,1-1.734-4.64m34.99-29.708a1.551,1.551,0,0,1,2.2.378,3.921,3.921,0,0,1,.571,2.4,2.716,2.716,0,0,0,.241-2.623,2.042,2.042,0,0,0-2.3-1.437,4.65,4.65,0,0,0-2.634-2.572,5.928,5.928,0,0,0-4.9.277,6.628,6.628,0,0,0-5-2.219l-3.051.2q-1.207-2.421-4.412-1.765a5.113,5.113,0,0,0-2.129.958,1.615,1.615,0,0,0-.79,1.437,4.343,4.343,0,0,0-4.61.378Q96.3,24.7,97.511,28.026q.351-3.178,2.349-4.111,1.954-.883,4.324.883a4.194,4.194,0,0,1,.944-2.194,3.293,3.293,0,0,1,1.778-1.11q2.458-.555,3.073,2.774a6.4,6.4,0,0,1,8.6,1.337,5.363,5.363,0,0,1,4.39-.807,4.493,4.493,0,0,1,2.9,2.824M86.645,3.009A11.314,11.314,0,0,0,84.56,7.095q-.307,1.059-1.251,5.044,2.546-6.708,5.444-8.2,3.029-1.513,9.219,1.034,2.437-3.581,5.8-2.9,3.183.656,6.3,4.867,1.6-1.261,4.741.4,3.337,1.765,3.007,4.792a2.575,2.575,0,0,1,2.019,1.791,3.162,3.162,0,0,1-.461,3q1.141-.252,1.3-2.144a2.668,2.668,0,0,0-1.8-2.925q.7-2.824-2.415-5.094-3.073-2.244-5.8-1.185a5.253,5.253,0,0,0-.527-1.715A4.066,4.066,0,0,0,109.057,2.5q-3.512-2.648-6.036-2.5-2.239.151-5.707,2.824Q89.828-.521,86.645,3.009Z" fill="#473432"/>
            </g>
          </g>
        </g>
        <g id="Group_52308" data-name="Group 52308" transform="translate(68.302 128.264)">
          <g id="Group_52307" data-name="Group 52307" transform="translate(0 0)">
            <path id="Path_44712" data-name="Path 44712" d="M6.052,3.026,3.026,6.052,0,3.026,3.026,0Zm-2.27,0H3.026v.757M2.27,3.026h.757V2.27" fill="none" stroke="rgba(0,0,0,0)" stroke-linecap="round" stroke-linejoin="round" stroke-width="0.075"/>
          </g>
        </g>
      </g>
      <g id="Group_52314" data-name="Group 52314" transform="translate(37.548 178.86) rotate(-92.46)">
        <g id="Group_52311" data-name="Group 52311" transform="translate(0 0)">
          <g id="Group_52310" data-name="Group 52310">
            <path id="Path_44713" data-name="Path 44713" d="M7.313,57.645a58.759,58.759,0,0,1-3-10.364Q.933,32.05,0,26.175A134.219,134.219,0,0,0,2.295,42.566,58.66,58.66,0,0,0,7.313,57.645M14.5,0a28.129,28.129,0,0,1,4.06,7.161,59.293,59.293,0,0,1,2.8,11.675q.05.328.3,2.572-.05-4.085-.252-6.077Q20.148,3.329,14.5,0Z" transform="translate(0.396 1.14)" fill="#84553e"/>
            <path id="Path_44714" data-name="Path 44714" d="M9.424.005Q4.33.182,1.934,6.284-.688,12.891.245,25.625q.076.883.151,1.69.933,5.875,4.312,21.106a58.759,58.759,0,0,0,3,10.364l.252.5a3.337,3.337,0,0,0,2.673,1.563,8.077,8.077,0,0,0,1.412-.025,5.056,5.056,0,0,0,4.161-2.269q2.824-4.842,4.615-18.105a124.8,124.8,0,0,0,1.236-17.9q-.252-2.244-.3-2.572A59.293,59.293,0,0,0,18.955,8.3,28.129,28.129,0,0,0,14.9,1.14,10.234,10.234,0,0,0,12.8.409,12.782,12.782,0,0,0,9.424.005Z" fill="#a56b4e"/>
          </g>
        </g>
        <g id="Group_52313" data-name="Group 52313" transform="translate(9.651 8.236)">
          <g id="Group_52312" data-name="Group 52312" transform="translate(0 0)">
            <path id="Path_44715" data-name="Path 44715" d="M6.052,3.041,3.026,6.082,0,3.041,3.026,0Zm-2.269,0H3.026V3.8m-.756-.76h.756v-.76" fill="none" stroke="rgba(0,0,0,0)" stroke-linecap="round" stroke-linejoin="round" stroke-width="0.075"/>
          </g>
        </g>
      </g>
      <g id="Group_52319" data-name="Group 52319" transform="translate(91.516 170.123) rotate(-90.891)">
        <g id="Group_52316" data-name="Group 52316" transform="matrix(1, 0.01, -0.01, 1, 0.338, 0)">
          <g id="Group_52315" data-name="Group 52315" transform="translate(0 0)">
            <path id="Path_44716" data-name="Path 44716" d="M6.526,15.64A3,3,0,0,0,7.85,16.882L11.6,1.724,6.526,15.64m9.53-11.306a21.283,21.283,0,0,1-.754,2.3,37.8,37.8,0,0,1-2.283,4.94q-.639,1.174-1.378,2.34-.1.165-.2.327a2.539,2.539,0,0,0,.248-.067q.213-.068.452-.164l.151-.058.711-1.1.689-1.233q.039-.067.075-.135.5-.858.937-1.734.485-.972.743-1.473a8.564,8.564,0,0,0,.549-1.406,6.142,6.142,0,0,0,.065-2.542M0,14.716a3.862,3.862,0,0,0,1.335,0Q7.2,4.286,6.946,0A89.63,89.63,0,0,1,0,14.716Z" transform="translate(3.314 16.598)" fill="#84553e"/>
            <path id="Path_44717" data-name="Path 44717" d="M4.65,31.314a3.2,3.2,0,0,0,1.7,3.159q1.788,1.021,3.489-2.234l5.072-13.916L11.165,33.481q1.756.609,3.543-2.552l.043-.077v-.01q.107-.162.2-.327.74-1.167,1.378-2.34a37.8,37.8,0,0,0,2.283-4.94,21.284,21.284,0,0,0,.754-2.3,6.142,6.142,0,0,1-.065,2.542,8.564,8.564,0,0,1-.549,1.406q-.258.5-.743,1.473-.439.875-.937,1.734-.036.068-.075.135l-.689,1.233-.711,1.1-.032.048a5.672,5.672,0,0,0,.625-.453,4.384,4.384,0,0,0,.711-.636q.372-.325.689-.636a8.739,8.739,0,0,0,1.551-1.839q.732-1.252,1.346-2.523a4.751,4.751,0,0,0,.474-1.936,6.236,6.236,0,0,0-.452-2.494q-.287-.7-1-3.034a.313.313,0,0,0-.011-.067,36.353,36.353,0,0,0-1.389-4.931,22.831,22.831,0,0,0-5.449-8.513Q8.6-.727,4.833.149q-9.627,2.282-.075,17.643a99.585,99.585,0,0,0-2.725,9.833q-.689,3.265,1.281,3.689A89.63,89.63,0,0,0,10.26,16.6Q10.519,20.884,4.65,31.314Z" fill="#a56b4e"/>
          </g>
        </g>
        <g id="Group_52318" data-name="Group 52318" transform="matrix(1, 0.01, -0.01, 1, 4.879, 3.05)">
          <g id="Group_52317" data-name="Group 52317" transform="translate(0 0)">
            <path id="Path_44718" data-name="Path 44718" d="M2.585,1.156,1.292,2.311,0,1.156,1.292,0Zm-.969,0H1.292v.289M.969,1.156h.323V.867" fill="none" stroke="rgba(0,0,0,0)" stroke-linecap="round" stroke-linejoin="round" stroke-width="0.03"/>
          </g>
        </g>
      </g>
      <g id="Group_52324" data-name="Group 52324" transform="matrix(-0.192, -0.981, 0.981, -0.192, 129.928, 172.471)">
        <g id="Group_52321" data-name="Group 52321" transform="matrix(1, -0.01, 0.01, 1, 0, 0.206)">
          <g id="Group_52320" data-name="Group 52320" transform="translate(0 0)">
            <path id="Path_44719" data-name="Path 44719" d="M3.136,5.241l-.082.051.082-.061v.01M7.563,37.986a3.675,3.675,0,0,1-2.7-.388q-7.607-4.176-3.308-11.538a34.728,34.728,0,0,0,1.561-3.482,13.637,13.637,0,0,0,1.025-4.564,6.62,6.62,0,0,0-.373-2.154L2.659,13.553q-.067-.221-.128-.419l-.291-.9A10.549,10.549,0,0,1,1,9.244a1.965,1.965,0,0,1,.058-1,.106.106,0,0,0,0-.041A2.767,2.767,0,0,1,1.3,7.672a1.808,1.808,0,0,1,.652-.766,1.364,1.364,0,0,1,.221-.123A8.736,8.736,0,0,1,4.441,8.06a12.018,12.018,0,0,1,2.19,1.981,12.839,12.839,0,0,1,1.782,2.451A16.673,16.673,0,0,1,9.567,14.88q.4,1.041.617,1.777.323,1.024.582,2.175.518.578.594.071a14.722,14.722,0,0,0-.082-2.114,14.927,14.927,0,0,0-2.2-6.412q-.231-.383-.489-.756-.21-.3-.431-.582-.2-.3-.419-.572l-.012-.01A13.676,13.676,0,0,0,4.383,5.711a4.185,4.185,0,0,0-1.212-.49l-.035.01L3.078,5.16A3.164,3.164,0,0,1,5.28,2.6q.1-.031.221-.061a10.094,10.094,0,0,1,2.808,1.47q.4.317.8.633a11.9,11.9,0,0,1,2.528,3.1q1.06,1.826,2.4,4.482a20.858,20.858,0,0,1,1.817,4.7q.466,2.032.571,2.481a5.729,5.729,0,0,0,.093-3.033v.112A17.045,17.045,0,0,0,13.9,8.162,19.062,19.062,0,0,0,9.532,3.189a1.7,1.7,0,0,0-.163-.123L7.878,2.148A1.715,1.715,0,0,0,6.7,1.9l-.21.071L5.07,2.536l.093-.725Q5.5.082,6.561.034a7.116,7.116,0,0,1,1.491,0,19.029,19.029,0,0,1,5.673,4.983,18.287,18.287,0,0,1,3.926,6.851,28.6,28.6,0,0,1,.839,3.431,19.2,19.2,0,0,0-1.98-7.627,10.548,10.548,0,0,1-1.561-3.839q-.026-1.08,2.039-1.542l.082-.031a23.534,23.534,0,0,1,2.8,7.086,26.808,26.808,0,0,1,.513,7.944q-.116,1.338-.291,2.685a40.68,40.68,0,0,1-2.47,8.056Q15.73,35.985,7.563,37.986Z" transform="translate(1.074 0)" fill="#a56b4e"/>
            <path id="Path_44720" data-name="Path 44720" d="M5.212,16.146A13.637,13.637,0,0,1,4.187,20.71,6.621,6.621,0,0,0,3.64,18.8a8.275,8.275,0,0,0-.99-1.6,10.47,10.47,0,0,0-1.538-1.552L0,14.8A3.469,3.469,0,0,1,.191,13.42a3.247,3.247,0,0,1,3.075-1.726q.233,0,.466-.01l1.107,2.308a6.62,6.62,0,0,1,.373,2.154M19.565,13.43A28.6,28.6,0,0,0,18.726,10,18.287,18.287,0,0,0,14.8,3.148Q14.79.847,16.244.667T18.062.422Q16,.883,16.023,1.963A10.548,10.548,0,0,0,17.584,5.8a19.2,19.2,0,0,1,1.98,7.627m-7.211,1.491a14.722,14.722,0,0,1,.082,2.114q-.076.506-.594-.071-.26-1.15-.582-2.175-.221-.736-.617-1.777a16.673,16.673,0,0,0-1.153-2.389A12.839,12.839,0,0,0,7.705,8.171a12.018,12.018,0,0,0-2.19-1.981A8.736,8.736,0,0,0,3.244,4.914a1.364,1.364,0,0,0-.221.123A1.808,1.808,0,0,0,2.37,5.8a2.767,2.767,0,0,0-.233.531A4.917,4.917,0,0,1,2.3,5.792a6.945,6.945,0,0,1,1.736-2.44.3.3,0,0,1,.116-.061l.058.071-.082.061.082-.051q.058.092.093.061a.749.749,0,0,1,.175,0l-.233-.082a4.185,4.185,0,0,1,1.212.49A13.676,13.676,0,0,1,8.8,6.589l.012.01q.215.269.419.572.221.286.431.582.259.373.489.756a14.927,14.927,0,0,1,2.2,6.412M17.5,17.534q-.105-.45-.571-2.481a20.859,20.859,0,0,0-1.817-4.7q-1.34-2.656-2.4-4.482a11.9,11.9,0,0,0-2.528-3.1q-.408-.317-.8-.633A10.094,10.094,0,0,0,6.575.667H6.144L7.566.105l.21-.071A1.715,1.715,0,0,1,8.952.279l1.491.919a1.7,1.7,0,0,1,.163.123,19.062,19.062,0,0,1,4.369,4.972A17.045,17.045,0,0,1,17.6,14.614V14.5A5.729,5.729,0,0,1,17.5,17.534Z" transform="translate(0 1.869)" fill="#84553e"/>
          </g>
        </g>
        <g id="Group_52323" data-name="Group 52323" transform="matrix(1, -0.01, 0.01, 1, 5.902, 32.577)">
          <g id="Group_52322" data-name="Group 52322" transform="translate(0 0)">
            <path id="Path_44721" data-name="Path 44721" d="M2.8,1.225,1.4,0,0,1.225,1.4,2.451Zm-1.048,0H1.4V.919m-.349.306H1.4v.306" fill="none" stroke="rgba(0,0,0,0)" stroke-linecap="round" stroke-linejoin="round" stroke-width="0.033"/>
          </g>
        </g>
      </g>
    </g>
  </g>
</svg>
