<svg xmlns="http://www.w3.org/2000/svg" xmlns:xlink="http://www.w3.org/1999/xlink" width="375" height="270" viewBox="0 0 375 270">
  <defs>
    <clipPath id="clip-path">
      <rect id="Rectangle_4019" data-name="Rectangle 4019" width="375" height="270" transform="translate(11124 -12383)" fill="#fff" stroke="#707070" stroke-width="1" opacity="0.59"/>
    </clipPath>
  </defs>
  <g id="Mask_Group_16463" data-name="Mask Group 16463" transform="translate(-11124 12383)" clip-path="url(#clip-path)">
    <g id="todller_boy_DS_6" data-name="todller boy DS 6" transform="translate(11229 -12353.393)">
      <g id="Group_53131" data-name="Group 53131" transform="translate(66.286 108.021) rotate(79.624)">
        <g id="Group_53123" data-name="Group 53123" transform="translate(0 28.462)">
          <g id="Group_53122" data-name="Group 53122" transform="translate(0 0)">
            <path id="Path_45222" data-name="Path 45222" d="M5.441,0Q4.87,1.174,4.512,2.02,3.254,4.856,2.471,7.213A54.925,54.925,0,0,0,.168,15.6a15,15,0,0,0-.141,3.071,7.512,7.512,0,0,0,2.687,5.637,9.036,9.036,0,0,0,3.819,1.919A5.858,5.858,0,0,0,11,25.215a14.735,14.735,0,0,0,3.031-2.909q1.751-2.26,2.485-3.233h-.02q.031-.028.061-.061,1.355-2.884,2.667-5.859a7.676,7.676,0,0,0,.485-1.414,3.032,3.032,0,0,0-.02-1.536,14.7,14.7,0,0,1-3.5-1.394q-1.162-.631-3.253-2-1.608-1.045-2.4-1.637A27.037,27.037,0,0,1,5.441,0Z" transform="translate(0 9.26)" fill="#a56b4e"/>
            <path id="Path_45223" data-name="Path 45223" d="M1.5,6.068Q.891,7.319.4,8.371l-.323.667Q.045,9.14,0,9.26a27.037,27.037,0,0,0,5.092,5.172q.8.591,2.4,1.637,2.091,1.369,3.253,2a14.7,14.7,0,0,0,3.5,1.394A3.032,3.032,0,0,1,14.264,21a7.677,7.677,0,0,1-.485,1.414q-1.312,2.976-2.667,5.859a.282.282,0,0,1,.04-.04l1.111-1.556.707-1.051q1.243-1.842,2.1-3.213a1.172,1.172,0,0,0,.081-.121A31.152,31.152,0,0,0,16.83,19.4a84.381,84.381,0,0,0,3.091-8.688q.446-1.358-1.717-3.778a24.9,24.9,0,0,0-5.132-4.243A18.351,18.351,0,0,0,7.375.148Q4.592-.425,3.819,1.219Z" transform="translate(5.441 0)" fill="#84553e"/>
          </g>
        </g>
        <g id="Group_53125" data-name="Group 53125" transform="translate(3.804 0)">
          <g id="Group_53124" data-name="Group 53124" transform="translate(0)">
            <path id="Path_45224" data-name="Path 45224" d="M18.286.425A10.464,10.464,0,0,0,13.76,2.647,15.768,15.768,0,0,0,10.2,6.2a25.657,25.657,0,0,0-3.071,6.728Q6.476,15.109,5.4,20.043a53.511,53.511,0,0,1-1.818,6.809A17.464,17.464,0,0,1,.445,32.489,1.433,1.433,0,0,0,0,33.378a1.666,1.666,0,0,0,.4.869A22.817,22.817,0,0,0,2.466,36.51l.97.929q.876.808,1.677,1.536h.02a45.985,45.985,0,0,0,4.93,3.9,19.591,19.591,0,0,0,7.819,3.253,3.757,3.757,0,0,0,2.97-.444,2.429,2.429,0,0,0,.707-1.071,7.586,7.586,0,0,0,.364-1.333q.113-.571,4-9.112A78.993,78.993,0,0,0,30.57,21.3Q33.1,11.5,31.015,6.2A8.988,8.988,0,0,0,23.6.162a12.833,12.833,0,0,0-5.314.263M8.669,9.86q-1.046,6.565-2.1,11.274Q4.652,29.766,1.839,33.52a23.4,23.4,0,0,0,2.768,3.556l2.4,2.788q-5.9-4.679-6.4-6.506a20.139,20.139,0,0,1,1.334-2.1,14.547,14.547,0,0,0,2.1-3.98q.279-.856,2.02-7.779Q7.881,12.4,8.669,9.86Z" fill="#fc6"/>
            <path id="Path_45225" data-name="Path 45225" d="M5.96,11.274Q7.016,6.565,8.062,0,7.274,2.537,5.455,9.638q-1.742,6.923-2.02,7.779a14.547,14.547,0,0,1-2.1,3.98A20.138,20.138,0,0,0,0,23.5Q.5,25.324,6.4,30L4,27.216A23.4,23.4,0,0,1,1.233,23.66Q4.045,19.905,5.96,11.274Z" transform="translate(0.607 9.86)" fill="#ffde9d"/>
          </g>
        </g>
        <g id="Group_53128" data-name="Group 53128" transform="translate(16.978 6.405)">
          <g id="Group_53127" data-name="Group 53127" transform="translate(0 0)">
            <g id="Group_53126" data-name="Group 53126">
              <path id="Path_45226" data-name="Path 45226" d="M21.538,14.951a23.58,23.58,0,0,0-.364-7.819Q20.225,1.96,18.447,0q3.6,8.991-3.516,22.912Q12.971,26.731,9.577,32a27.785,27.785,0,0,0-2.768,4.708A2.593,2.593,0,0,1,6.1,38.065a2.662,2.662,0,0,1-1.253.849A11.064,11.064,0,0,1,0,38.449q.975.28,7.031,2.93a13.483,13.483,0,0,0,6.142-9.132q.343-1.778,4.122-8.142Q21.053,17.78,21.538,14.951Z" fill="#d4a548"/>
            </g>
          </g>
        </g>
        <g id="Group_53130" data-name="Group 53130" transform="translate(21.767 5.072)">
          <g id="Group_53129" data-name="Group 53129" transform="translate(0 0)">
            <path id="Path_45227" data-name="Path 45227" d="M2.425,1.818v.606h.606m-.606,0v.606m2.425-.606L2.425,4.849,0,2.425,2.425,0Zm-3.031,0h.606" fill="none" stroke="rgba(0,0,0,0)" stroke-linecap="round" stroke-linejoin="round" stroke-width="0.082"/>
          </g>
        </g>
      </g>
      <g id="Group_53136" data-name="Group 53136" transform="translate(15.628 135.336) rotate(-152.129)">
        <g id="Group_53133" data-name="Group 53133" transform="translate(0 0)">
          <g id="Group_53132" data-name="Group 53132">
            <path id="Path_45228" data-name="Path 45228" d="M1.839,34.109A47.006,47.006,0,0,0,5.86,46.193a47.086,47.086,0,0,1-2.4-8.305Q.748,25.683,0,20.975A107.554,107.554,0,0,0,1.839,34.109M11.619,0a22.541,22.541,0,0,1,3.253,5.739,47.514,47.514,0,0,1,2.243,9.356q.04.263.242,2.061-.04-3.274-.2-4.87Q16.145,2.667,11.619,0Z" transform="translate(0.317 0.913)" fill="#84553e"/>
            <path id="Path_45229" data-name="Path 45229" d="M7.552,0q-4.082.141-6,5.032Q-.551,10.33.2,20.534q.061.707.121,1.354Q1.065,26.6,3.773,38.8a47.086,47.086,0,0,0,2.4,8.305l.2.4a2.674,2.674,0,0,0,2.142,1.253,6.472,6.472,0,0,0,1.132-.02,4.051,4.051,0,0,0,3.334-1.819q2.263-3.88,3.7-14.509a100.009,100.009,0,0,0,.99-14.347q-.2-1.8-.242-2.061A47.514,47.514,0,0,0,15.19,6.652,22.541,22.541,0,0,0,11.936.913,8.2,8.2,0,0,0,10.259.327,10.243,10.243,0,0,0,7.552,0Z" fill="#a56b4e"/>
          </g>
        </g>
        <g id="Group_53135" data-name="Group 53135" transform="translate(7.733 6.6)">
          <g id="Group_53134" data-name="Group 53134" transform="translate(0 0)">
            <path id="Path_45230" data-name="Path 45230" d="M2.425,1.828v.609h.606m-.606,0v.609M4.85,2.437,2.425,4.874,0,2.437,2.425,0Zm-3.031,0h.606" fill="none" stroke="rgba(0,0,0,0)" stroke-linecap="round" stroke-linejoin="round" stroke-width="0.082"/>
          </g>
        </g>
      </g>
      <g id="Group_53141" data-name="Group 53141" transform="translate(74.115 101.188) rotate(-2.239)">
        <g id="Group_53138" data-name="Group 53138" transform="translate(0 0)">
          <g id="Group_53137" data-name="Group 53137">
            <path id="Path_45231" data-name="Path 45231" d="M24.044,11.256a5.191,5.191,0,0,0,.1-2l-.4-4.466q-.3-3.294-.283-4.648V0a44.587,44.587,0,0,1-4.911,2.2,22.53,22.53,0,0,1-4.87,1.415A21,21,0,0,1,10.12,3.8,20.322,20.322,0,0,1,6.4,3.456,21.022,21.022,0,0,1,2.926,2.344a3.71,3.71,0,0,1-1.617-1.01A25.633,25.633,0,0,1,1.37,4.648,28.59,28.59,0,0,1,.986,7.841,8.12,8.12,0,0,1,.3,10.226q-.2.4-.243.505a.734.734,0,0,0-.02.505,1.509,1.509,0,0,0,.869.707,38.76,38.76,0,0,0,11.681,2.93,21.289,21.289,0,0,0,5.638-.121A11.081,11.081,0,0,0,22.306,13.2,4.251,4.251,0,0,0,24.044,11.256Z" transform="translate(2.86 17.015)" fill="#a56b4e"/>
            <path id="Path_45232" data-name="Path 45232" d="M27.975,8.285q1.031-3.678,1.394-4.648.3-.849-3.759-2.041A42.181,42.181,0,0,0,15.062.02,29.139,29.139,0,0,0,3.906,1.7,17.885,17.885,0,0,0,.956,3.051q-1.031.626-.95.768.869,1.819,1.94,4.648a38.673,38.673,0,0,1,1.516,4.608,41.986,41.986,0,0,1,.707,5.275,3.71,3.71,0,0,0,1.617,1.01,21.022,21.022,0,0,0,3.476,1.112,20.322,20.322,0,0,0,3.718.344,21,21,0,0,0,3.557-.182,22.53,22.53,0,0,0,4.87-1.415,44.587,44.587,0,0,0,4.911-2.2,24.009,24.009,0,0,1,.424-4.062Q26.945,11.9,27.975,8.285Z" fill="#84553e"/>
          </g>
        </g>
        <g id="Group_53140" data-name="Group 53140" transform="translate(12.293 27.443)">
          <g id="Group_53139" data-name="Group 53139" transform="translate(0 0)">
            <path id="Path_45233" data-name="Path 45233" d="M2.425,1.819v.606h.606m-.606,0v.606M4.85,2.425,2.425,4.85,0,2.425,2.425,0Zm-3.031,0h.606" transform="translate(0 0)" fill="none" stroke="rgba(0,0,0,0)" stroke-linecap="round" stroke-linejoin="round" stroke-width="0.082"/>
          </g>
        </g>
      </g>
      <g id="Group_53151" data-name="Group 53151" transform="matrix(-0.259, 0.966, -0.966, -0.259, 174.153, 130.023)">
        <g id="Group_53143" data-name="Group 53143" transform="translate(0 0)">
          <g id="Group_53142" data-name="Group 53142">
            <path id="Path_45234" data-name="Path 45234" d="M5.441,26.324q-.572-1.174-.929-2.02-1.258-2.835-2.041-5.192a54.922,54.922,0,0,1-2.3-8.385A15,15,0,0,1,.026,7.656,7.511,7.511,0,0,1,2.714,2.019,9.036,9.036,0,0,1,6.532.1,5.858,5.858,0,0,1,11,1.11a14.735,14.735,0,0,1,3.031,2.909q1.751,2.26,2.485,3.233h-.02q.031.028.061.061,1.355,2.883,2.667,5.859a7.676,7.676,0,0,1,.485,1.414,3.032,3.032,0,0,1-.02,1.535,14.7,14.7,0,0,0-3.5,1.394q-1.162.631-3.253,2-1.608,1.045-2.4,1.637A27.036,27.036,0,0,0,5.441,26.324Z" fill="#a56b4e"/>
            <path id="Path_45235" data-name="Path 45235" d="M1.5,22.2Q.891,20.953.4,19.9l-.323-.667q-.036-.1-.081-.222A27.036,27.036,0,0,1,5.091,13.84q.8-.591,2.4-1.637,2.091-1.369,3.253-2a14.7,14.7,0,0,1,3.5-1.394,3.032,3.032,0,0,0,.02-1.535,7.676,7.676,0,0,0-.485-1.414Q12.467,2.883,11.112,0a.282.282,0,0,0,.04.04L12.264,1.6l.707,1.051q1.243,1.842,2.1,3.212a1.172,1.172,0,0,1,.081.121A31.153,31.153,0,0,1,16.83,8.869a84.379,84.379,0,0,1,3.091,8.688q.446,1.358-1.717,3.778a24.9,24.9,0,0,1-5.132,4.243,18.35,18.35,0,0,1-5.7,2.546q-2.783.573-3.556-1.071Z" transform="translate(5.441 7.313)" fill="#84553e"/>
          </g>
        </g>
        <g id="Group_53145" data-name="Group 53145" transform="translate(3.804 17.831)">
          <g id="Group_53144" data-name="Group 53144" transform="translate(0 0)">
            <path id="Path_45236" data-name="Path 45236" d="M18.285,45.79a10.464,10.464,0,0,1-4.526-2.222A15.767,15.767,0,0,1,10.2,40.011a25.656,25.656,0,0,1-3.071-6.728Q6.476,31.105,5.4,26.172a53.509,53.509,0,0,0-1.818-6.809A17.463,17.463,0,0,0,.445,13.726,1.433,1.433,0,0,1,0,12.837a1.666,1.666,0,0,1,.4-.869A22.815,22.815,0,0,1,2.466,9.706l.97-.929q.876-.808,1.677-1.535h.02a45.983,45.983,0,0,1,4.93-3.9A19.591,19.591,0,0,1,17.881.089a3.757,3.757,0,0,1,2.97.444A2.429,2.429,0,0,1,21.558,1.6a7.585,7.585,0,0,1,.364,1.333q.113.571,4,9.112a78.99,78.99,0,0,1,4.647,12.87q2.525,9.8.444,15.092A8.988,8.988,0,0,1,23.6,46.052a12.833,12.833,0,0,1-5.314-.263M8.668,36.354q-1.046-6.565-2.1-11.274Q4.651,16.45,1.839,12.7A23.4,23.4,0,0,1,4.607,9.14l2.4-2.788q-5.9,4.679-6.4,6.506a20.136,20.136,0,0,0,1.333,2.1,14.547,14.547,0,0,1,2.1,3.98q.279.856,2.02,7.778Q7.881,33.817,8.668,36.354Z" fill="#fc6"/>
            <path id="Path_45237" data-name="Path 45237" d="M5.96,18.729Q7.016,23.438,8.061,30q-.787-2.537-2.606-9.637-1.742-6.923-2.02-7.778a14.547,14.547,0,0,0-2.1-3.98A20.136,20.136,0,0,1,0,6.506Q.5,4.679,6.4,0L4,2.788A23.4,23.4,0,0,0,1.233,6.344Q4.044,10.1,5.96,18.729Z" transform="translate(0.607 6.352)" fill="#ffde9d"/>
          </g>
        </g>
        <g id="Group_53148" data-name="Group 53148" transform="translate(16.977 16.263)">
          <g id="Group_53147" data-name="Group 53147" transform="translate(0 0)">
            <g id="Group_53146" data-name="Group 53146">
              <path id="Path_45238" data-name="Path 45238" d="M21.537,26.427a23.579,23.579,0,0,1-.364,7.819q-.95,5.172-2.728,7.132,3.6-8.991-3.515-22.911-1.96-3.819-5.354-9.092A27.784,27.784,0,0,1,6.809,4.667,2.593,2.593,0,0,0,6.1,3.313a2.662,2.662,0,0,0-1.253-.849A11.064,11.064,0,0,0,0,2.93Q.975,2.649,7.031,0a13.482,13.482,0,0,1,6.142,9.132q.343,1.778,4.122,8.142Q21.052,23.6,21.537,26.427Z" fill="#d4a548"/>
            </g>
          </g>
        </g>
        <g id="Group_53150" data-name="Group 53150" transform="translate(21.766 54.125)">
          <g id="Group_53149" data-name="Group 53149" transform="translate(0 0)">
            <path id="Path_45239" data-name="Path 45239" d="M2.424,3.031V2.424h.606m-.606,0V1.818m2.424.606L2.424,0,0,2.424,2.424,4.849Zm-3.031,0h.606" fill="none" stroke="rgba(0,0,0,0)" stroke-linecap="round" stroke-linejoin="round" stroke-width="0.082"/>
          </g>
        </g>
      </g>
      <g id="Group_53184" data-name="Group 53184" transform="matrix(0.994, 0.111, -0.111, 0.994, 54.838, 117.985)">
        <g id="Group_53153" data-name="Group 53153" transform="translate(45.237 47.004)">
          <g id="Group_53152" data-name="Group 53152" transform="translate(0 0)">
            <path id="Path_45240" data-name="Path 45240" d="M23.789,10.033q-.061-1.411-.182-2.842A37.66,37.66,0,0,0,22.253,0q-.02.135-9.477,21.768c-5.719,13.107,5.667,10.774,10.752,8.9.557-.794.254-2.2.283-3.7C24.014,16.468,23.978,13.874,23.789,10.033Z" fill="#2c3664"/>
          </g>
        </g>
        <g id="Group_53155" data-name="Group 53155" transform="translate(20.311 1.254)">
          <g id="Group_53154" data-name="Group 53154" transform="translate(0 0)">
            <path id="Path_45241" data-name="Path 45241" d="M14.327,4.5a24.717,24.717,0,0,0,3.516-.445A15.225,15.225,0,0,0,25.1.726a37.692,37.692,0,0,0-4.445-.58Q17.681-.066,13.357.03q-3.213.1-6.426.232L0,.552a10.836,10.836,0,0,0,1.071.928q4.122,3.19,11.8,3.035Z" transform="translate(3.715 0)" fill="#a56b4e"/>
            <path id="Path_45242" data-name="Path 45242" d="M31.519.812A24.271,24.271,0,0,0,28.812.174,15.225,15.225,0,0,1,21.557,3.5a24.717,24.717,0,0,1-3.516.445l-1.455.019Q8.908,4.118,4.786.928A10.836,10.836,0,0,1,3.715,0L2.624.039A5.8,5.8,0,0,0,1.048.29a1.434,1.434,0,0,0-1.031,1.1q-.141.754.889,1.74a19.977,19.977,0,0,0,5.375,3.75A24.661,24.661,0,0,0,10.807,8.39q1.657.387,4.708.87,1.738.271,2.607.367a17.19,17.19,0,0,0,7.537-.812A11.745,11.745,0,0,0,31.6,4.408q.344-.483.97-1.469a2.214,2.214,0,0,0,.4-.831.926.926,0,0,0-.485-.87A2.777,2.777,0,0,0,31.519.812Z" transform="translate(0 0.552)" fill="#84553e"/>
          </g>
        </g>
        <g id="Group_53158" data-name="Group 53158" transform="translate(0 1.439)">
          <g id="Group_53156" data-name="Group 53156" transform="translate(0 0)">
            <path id="Path_45243" data-name="Path 45243" d="M5.254,10.246Q6.386,3.5,9.477,1.991,2.89,3.383.849,4.988-.889,7.4.93,24.493q.483,2.06,1.172,4.659.04.148.081.29.019.092.04.174.849,3.074,1.212,4.446.263.967.445.619a3.369,3.369,0,0,0,.3-.657q.141-.425.384-1.179a4.946,4.946,0,0,0,.162-1.315q-.667-14.19.525-21.284m59.812-7.4a38.888,38.888,0,0,0-2.687,12.237q-.654,7.635-.606,10.594-.1,2.262-.121,3.344-.02,1.933.445,2.3a4.612,4.612,0,0,1,1.091,1.411,6.835,6.835,0,0,1,.667,1.643q.344,1.373,1.293,12.334.83,9.838.93,8.583l.364-3.48q.788-7.481,2.283-16.761.748-4.64,1.354-7.791L70.5,22.85l.384-8.255q.242-8.525-.525-9.608a15.891,15.891,0,0,0-5.294-2.2v.058M52.053.348q-2-.271-3.395-.348-.647,1.7-3.8,3.248a21.061,21.061,0,0,1-9.012,1.933h-.485A21.151,21.151,0,0,1,26.35,3.248Q23.2,1.7,22.551,0q-1.617.077-4.082.425a70.039,70.039,0,0,0-.162,19.544q1.192,8.2,3.334,9.086,3.576,1.491,13.761,1.063,10.206-.412,11.336-1.469a4.59,4.59,0,0,0,1.071-3.576q-.057-2.5.727-11.154.8-8.639,3.516-13.571m-27.1,4.717a23.178,23.178,0,0,0,4.91,1.972,21.11,21.11,0,0,0,16-2.011,21.11,21.11,0,0,1-16,2.011,23.178,23.178,0,0,1-4.91-1.972,18.609,18.609,0,0,1-1.98-1.2A18.609,18.609,0,0,0,24.956,5.065Z" fill="#fc6"/>
            <path id="Path_45244" data-name="Path 45244" d="M51.123,0V.019Q48.409,4.951,47.607,13.59q-.784,8.657-.727,11.154a4.59,4.59,0,0,1-1.071,3.576q-1.13,1.057-11.336,1.469-10.184.427-13.761-1.063-2.142-.889-3.334-9.086A70.039,70.039,0,0,1,17.539.1Q17.3.155,8.568,1.663h-.02Q5.456,3.17,4.324,9.917,3.132,17.012,3.8,31.2a4.946,4.946,0,0,1-.162,1.315q-.242.754-.384,1.179a3.369,3.369,0,0,1-.3.657q-.182.348-.445-.619-.364-1.373-1.212-4.446-.022-.082-.04-.174-.04-.142-.081-.29Q.483,26.225,0,24.165q.13,1.216.566,4.794.117.86.242,1.856a.237.237,0,0,1,0,.058q.152,1.2.283,2.223l.748,5.742q.736,5.316,1.576,10.517.2,1.3.4,2.571l31.1.58,29.422,24.2c.391-6.083,1.562-10.066,2.1-19.99q.772-11.446,1.394-15.446t.748-5.026a2.1,2.1,0,0,0,.02-.232q0,.262,0,.541l.061-1.257a.645.645,0,0,0,.02-.135l.465-8.235q-.606,3.151-1.354,7.791Q66.3,44,65.51,51.481l-.364,3.48q-.1,1.255-.93-8.583-.95-10.961-1.293-12.334a6.836,6.836,0,0,0-.667-1.643,4.612,4.612,0,0,0-1.091-1.411q-.465-.367-.445-2.3.02-1.083.121-3.344-.047-2.959.606-10.594A38.888,38.888,0,0,1,64.136,2.513V2.455q-.1-.232-.626-.271a4.639,4.639,0,0,1-.525-.019.233.233,0,0,1-.1-.019q-1.96-.483-4.405-.947-.4-.077-.828-.155Q54.982.561,52.84.251,51.931.116,51.123,0Z" transform="translate(0.93 0.329)" fill="#d4a548"/>
          </g>
          <g id="Group_53157" data-name="Group 53157" transform="translate(22.955 3.822)">
            <path id="Path_45245" data-name="Path 45245" d="M22.935,1.185h-.04l-2.97,1.063-.1.019-.081.039-.808.232-.1.019-.121.039-.2.039-.121.039-.788.174a15.036,15.036,0,0,1-1.96.348l-.525.077h-.141l-.121.019-.788.058-.121.019-1.92.039L8.628,3.041H8.547l-.061-.019-.909-.174-.121-.039-.141-.019-.869-.232-.121-.019L5.153,2.19q-.788-.251-1.7-.619L.283.16.061.025Q0-.033,0,.044V.083L.061.122l1.192.947L3.516,2.422l.626.29.1.058.121.039.667.309,3.092.967,1.7.29.061.019h.081l1.01.116,2.485.019.061-.019.505-.019,1.8-.271a17.736,17.736,0,0,0,2.021-.5L20.53,2.654l2.384-1.411q.02,0,.02-.019A.024.024,0,0,0,22.935,1.185Z" transform="translate(0 0)" fill="#ffde9d"/>
          </g>
        </g>
        <g id="Group_53160" data-name="Group 53160" transform="translate(2.303 31.404)">
          <g id="Group_53159" data-name="Group 53159" transform="translate(0 0)">
            <path id="Path_45246" data-name="Path 45246" d="M15.317,6.649a5.544,5.544,0,0,0-.465-2.184q-.566-1.779.1-2.262.768-.561,5.779-1.083Q23.217.849,25.521.637q-3.172-.077-8-.309Q12.69.057,10.528.018A24.332,24.332,0,0,0,6.022.192a9.863,9.863,0,0,0-4.93,2.165A4.579,4.579,0,0,0,.222,3.363L0,3.788A17.567,17.567,0,0,0,.606,6.243,4.886,4.886,0,0,0,1.859,8.7q.828.483,6.769-.232,6.143-.754,6.688-1.817M60.2,34.39a5.962,5.962,0,0,1-.263.715,2.361,2.361,0,0,1-.586.6,1.806,1.806,0,0,0,1.313-.947,3.461,3.461,0,0,0,.485-1.063q-.081,1.74-.162,2.938-.182,2.262-.808,2.706.344-.077.869-1.083a13.134,13.134,0,0,0,.445-2.958,62.06,62.06,0,0,0,.2-8.545,49.329,49.329,0,0,1-.849,5.626q-.121.5-.647,2.011M57.508,19.563v.077q-.067,1.935-.222,5.7a36.925,36.925,0,0,0,.2,7.617,31.618,31.618,0,0,0,1.233,4.949q.485,1.218.626,1.025a11.051,11.051,0,0,1-.546-2.32q-.121-.773-.242-2.378-.021-.271-.04-.541v-.019a1.587,1.587,0,0,1-.061-.174L58.215,32.5a12.461,12.461,0,0,1-.242-1.45v-.019q-.294-4.727-.384-9.086,0-.148-.02-.309l-.04-1.74q0-.164-.02-.329M55.326,3.131a.162.162,0,0,1,.121.058q-.125-.174-.586-.986a2.151,2.151,0,0,0-.748-.812A11.463,11.463,0,0,0,51.1.192q-1.152-.309-10.184,0l-8.83.367q2.364.193,4.85.464,4.991.541,5.213.909a7.992,7.992,0,0,1,.505,2.436,4.725,4.725,0,0,0,.626,2.32q.647.735,5.759,1.431,5.173.7,6.163.135.323-.174,0-1.972a7.783,7.783,0,0,1-.182-2.726q.141-.445.3-.425M20.995,39.61q-.748-.135-2.243-.425-.242-.039-.263.1a14.907,14.907,0,0,0,1.657.6,20.005,20.005,0,0,0,4.041.909,10.069,10.069,0,0,0,3.071-.213V40.6a.043.043,0,0,1,.02,0q.232-.061.445-.135a.744.744,0,0,0,.182-.058q.546-.193,1.051-.425a9.2,9.2,0,0,0,1.677-1.083,5.618,5.618,0,0,0-1.475.348l-1.455.522q-.194.056-.424.116a.043.043,0,0,0-.02,0,7.484,7.484,0,0,1-.808.116,13.858,13.858,0,0,1-3.213-.019q-.909-.1-2.243-.367M37.766,20.877q.02-3.847,0-5.316a12.126,12.126,0,0,0-.263-3.6q-.081.039-2.182,5.529Q33.179,23.1,32.694,23.6a12.424,12.424,0,0,1-2.627,2.223,8.9,8.9,0,0,1-2.789,1.044.05.05,0,0,0-.02,0q-.278.056-.566.1t-.586.077q-1.347.143-3.415.174a9,9,0,0,1-2.95-.309,6.282,6.282,0,0,1-1.576-.831q-.465-.348-1.414-1.121-1.6-1.431-1.98-1.837-.471-.49-.909-1.044a21.835,21.835,0,0,1-3.577-6.863,27.6,27.6,0,0,1-1.051-3.924,1.483,1.483,0,0,0-.2.754l-.3,4.93q-.141,2.4-.141,3.576a27.288,27.288,0,0,0,.808,6.3,15.948,15.948,0,0,0,3.395,6.727q3.88,4.5,12.144,4.64a9.071,9.071,0,0,0,2.324-.29v0h.061a13.413,13.413,0,0,0,2.728-1.121,13.834,13.834,0,0,0,6.547-7.675,20.278,20.278,0,0,0,.808-4.04q.04-.232.081-.445A33.721,33.721,0,0,0,37.766,20.877Z" transform="translate(4.204 0)" fill="#1c2449"/>
            <path id="Path_45247" data-name="Path 45247" d="M59.651,2.629a.162.162,0,0,0-.121-.058q-.162-.019-.3.425a7.783,7.783,0,0,0,.182,2.726q.323,1.8,0,1.972-.99.561-6.163-.135-5.112-.7-5.759-1.431a4.725,4.725,0,0,1-.626-2.32,7.992,7.992,0,0,0-.505-2.436q-.222-.367-5.213-.909Q38.656.193,36.292,0q-2.586.1-3.981.1h-.849L29.725.077q-2.3.213-4.789.483-5.011.522-5.779,1.083-.667.483-.1,2.262A5.544,5.544,0,0,1,19.52,6.09q-.546,1.063-6.688,1.817-5.941.715-6.769.232A4.886,4.886,0,0,1,4.81,5.684,17.567,17.567,0,0,1,4.2,3.228a3.943,3.943,0,0,0-.283.522Q2.567,6.689,1.5,18.365.344,31.086.061,46.416c-.056,3.023-.073,5.671-.051,8.238.075-.125,58.092-6.394,66.912-7.4.108-7.539-1.688-5.919-1.674-9.554q-.525,1.005-.869,1.083.626-.445.808-2.706.081-1.2.162-2.938a3.461,3.461,0,0,1-.485,1.063,1.806,1.806,0,0,1-1.313.947,2.361,2.361,0,0,0,.586-.6,5.963,5.963,0,0,0,.263-.715.831.831,0,0,1-.707.425q-.557,0-.97-1.121.019.27.04.541.121,1.6.242,2.378a11.052,11.052,0,0,0,.546,2.32q-.141.193-.626-1.025A31.617,31.617,0,0,1,61.692,32.4a36.924,36.924,0,0,1-.2-7.617q.155-3.768.222-5.7v-.1q-.134-3.148-.485-6.38-.242-2.358-.626-5.374-.364-3.731-.93-4.562a.2.2,0,0,1-.02-.039M41.97,15q.02,1.469,0,5.316a33.722,33.722,0,0,1-.283,3.77q-.04.213-.081.445a20.278,20.278,0,0,1-.808,4.04,13.834,13.834,0,0,1-6.547,7.675,13.413,13.413,0,0,1-2.728,1.121h-.061v0a9.071,9.071,0,0,1-2.324.29q-8.265-.135-12.144-4.64A15.948,15.948,0,0,1,13.6,26.291a27.288,27.288,0,0,1-.808-6.3q0-1.179.141-3.576l.3-4.93a1.483,1.483,0,0,1,.2-.754,27.6,27.6,0,0,0,1.051,3.924,21.835,21.835,0,0,0,3.577,6.863q.438.554.909,1.044.384.406,1.98,1.837.95.773,1.414,1.121a6.283,6.283,0,0,0,1.576.831,9,9,0,0,0,2.95.309q2.068-.031,3.415-.174.313-.037.586-.077t.566-.1a.05.05,0,0,1,.02,0,8.9,8.9,0,0,0,2.789-1.044A12.424,12.424,0,0,0,36.9,23.044q.485-.5,2.627-6.109,2.1-5.49,2.182-5.529A12.126,12.126,0,0,1,41.97,15M64.763,39.456a.851.851,0,0,1,.121-.541l-.02,3.132a5.344,5.344,0,0,1-.04.773l-.081.677a12.434,12.434,0,0,0,0,1.469,1.772,1.772,0,0,1-.061.541,1.72,1.72,0,0,0-.141.367,1.562,1.562,0,0,0-.04-.58q-.04-.193-.121-.6a6.142,6.142,0,0,1,0-.715.832.832,0,0,1,.04-.348.808.808,0,0,1,.222-.251.991.991,0,0,0,.121-.58V39.456m-41.808-.831q1.5.29,2.243.425,1.334.271,2.243.367a13.858,13.858,0,0,0,3.213.019,7.482,7.482,0,0,0,.808-.116.043.043,0,0,1,.02,0q.231-.06.424-.116l1.455-.522a5.619,5.619,0,0,1,1.475-.348,9.2,9.2,0,0,1-1.677,1.083q-.505.232-1.051.425a.744.744,0,0,1-.182.058q-.213.074-.445.135a.043.043,0,0,0-.02,0v-.019a10.069,10.069,0,0,1-3.071.213,20.005,20.005,0,0,1-4.041-.909,14.907,14.907,0,0,1-1.657-.6Q22.713,38.586,22.956,38.625Z" transform="translate(0 0.559)" fill="#2c3664"/>
          </g>
        </g>
        <g id="Group_53169" data-name="Group 53169" transform="translate(5.151 0)">
          <g id="Group_53162" data-name="Group 53162" transform="translate(0 0)">
            <g id="Group_53161" data-name="Group 53161">
              <path id="Path_45248" data-name="Path 45248" d="M9.358,0,8.206.309,7.8.425,6.61.773q-.851.243-1.6.445-2.451.7-3.758,1.044Q-.323,6.1.083,16.007.2,18.8.467,22.058q.011.136.02.271a122.161,122.161,0,0,1,1.5-16.935,4.591,4.591,0,0,1,.445-1.547A4.406,4.406,0,0,1,3.781,2.59,21.67,21.67,0,0,1,7.115.967Q8.478.4,9.358,0Z" transform="translate(0 0.511)" fill="#424d80"/>
              <path id="Path_45249" data-name="Path 45249" d="M13.66.917A4.367,4.367,0,0,0,12.447.085q-.615-.294-3.577.425-.88.4-2.243.967A21.67,21.67,0,0,0,3.294,3.1,4.406,4.406,0,0,0,1.94,4.358,4.591,4.591,0,0,0,1.5,5.9,122.16,122.16,0,0,0,0,22.839,100.4,100.4,0,0,0,1.374,33.317q.95,4.833,1.9,5.684.384.348,6.1-.309,5.7-.657,5.718-1.025a19.366,19.366,0,0,1-1.172-4.06q-1.071-4.5-1.738-9.318-.194-1.4-.344-2.745.014.15.02.29a33.162,33.162,0,0,1-.93-3.615,26.507,26.507,0,0,1-.364-5.1A47.845,47.845,0,0,1,12.306.955a.4.4,0,0,1,.141-.213.142.142,0,0,1,.182-.019.091.091,0,0,1-.02.039.477.477,0,0,1,.222.019,1.834,1.834,0,0,1,.424.251l.263.155a1.863,1.863,0,0,0,.242.213.717.717,0,0,0,.263.039A1.607,1.607,0,0,0,13.66.917Z" transform="translate(0.487 0)" fill="#2c3664"/>
              <path id="Path_45250" data-name="Path 45250" d="M3.52,1.03A.517.517,0,0,0,3.459.74.717.717,0,0,1,3.2.7,1.863,1.863,0,0,1,2.954.489L2.691.334A1.834,1.834,0,0,0,2.267.083.477.477,0,0,0,2.045.064a.091.091,0,0,0,.02-.039.142.142,0,0,0-.182.019.4.4,0,0,0-.141.213A47.845,47.845,0,0,0,0,12.417a26.507,26.507,0,0,0,.364,5.1,33.162,33.162,0,0,0,.93,3.615q-.007-.14-.02-.29l-.283-3q-.018-.329-.04-.677a.208.208,0,0,0-.02-.039Q.292,7.275,2.469,1.2,3.385,1.04,3.5,1.03Z" transform="translate(11.052 0.698)" fill="#1c2449"/>
            </g>
          </g>
          <g id="Group_53164" data-name="Group 53164" transform="translate(4.846 31.134)">
            <g id="Group_53163" data-name="Group 53163" transform="translate(0 0)">
              <path id="Path_45251" data-name="Path 45251" d="M5.906.791A3.542,3.542,0,0,0,5,.366,6.57,6.57,0,0,0,3.865.018,4.96,4.96,0,0,0,1.521.54q-1.5.638-1.516.967A3.646,3.646,0,0,0,.531,3.5,2.814,2.814,0,0,0,3.683,4.909,2.676,2.676,0,0,0,6.047,2.976,2.321,2.321,0,0,0,5.906.791Z" fill="#1c2449"/>
            </g>
          </g>
          <g id="Group_53166" data-name="Group 53166" transform="translate(4.565 34.361)">
            <g id="Group_53165" data-name="Group 53165" transform="translate(0 0)">
              <path id="Path_45252" data-name="Path 45252" d="M2.125,2.764a3.269,3.269,0,0,0,2.829-.193q1.031-.619.95-.909a2.235,2.235,0,0,1-.909.715,4.058,4.058,0,0,1-2.647.058A3.232,3.232,0,0,1,.711,1.2Q0,.29.064,0-.158.058.388,1.16A3.009,3.009,0,0,0,2.125,2.764Z" fill="#1c2449"/>
            </g>
          </g>
          <g id="Group_53168" data-name="Group 53168" transform="translate(4.852 29.856)">
            <g id="Group_53167" data-name="Group 53167" transform="translate(0 0)">
              <path id="Path_45253" data-name="Path 45253" d="M.141,1.45Q.068,1.557,0,1.663H.02A5.494,5.494,0,0,1,.99.986a3.916,3.916,0,0,1,2.1-.522,3.475,3.475,0,0,1,1.778.561q.091.058.485.367a2.566,2.566,0,0,0-.222-.309L4.971.909,4.951.889,4.91.851A2.987,2.987,0,0,0,2.768,0,2.987,2.987,0,0,0,.626.851l-.485.6M1.92,5.471a2.982,2.982,0,0,0,1.132.077l.586-.155A.532.532,0,0,0,3.9,5.278L4.2,5.1V5.046L4.89,4.5l.04-.1q0-.116-.061-.058A6.277,6.277,0,0,1,3.738,5.1l-.2.1-.323.077a2.721,2.721,0,0,1-1.738-.232.276.276,0,0,0-.162-.058q-.121,0-.121.077a.182.182,0,0,0,.061.135,1.663,1.663,0,0,0,.667.271m.95-3.847q0-.039.061-.039a.128.128,0,0,0-.02-.155.2.2,0,0,0-.162-.077.775.775,0,0,0-.525.019l-.182.077q0,.039-.1.116a.21.21,0,0,0-.081.135.062.062,0,0,0,.04.058q.061.039.081,0l.364-.135Z" transform="translate(0.263 0)" fill="#929fd9"/>
              <path id="Path_45254" data-name="Path 45254" d="M.283,1.2A2.73,2.73,0,0,0,0,2.441,2.734,2.734,0,0,0,.889,4.49a2.987,2.987,0,0,0,2.142.851A2.987,2.987,0,0,0,5.173,4.49a2.734,2.734,0,0,0,.889-2.049A2.718,2.718,0,0,0,5.4.624a2.567,2.567,0,0,1,.222.309Q5.223.624,5.132.566A3.475,3.475,0,0,0,3.354.005a3.916,3.916,0,0,0-2.1.522,5.494,5.494,0,0,0-.97.677M1.5.972A2.146,2.146,0,0,1,3.031.353,2.146,2.146,0,0,1,4.567.972a1.926,1.926,0,0,1,.647,1.469A1.965,1.965,0,0,1,4.567,3.91a2.183,2.183,0,0,1-1.536.6A2.183,2.183,0,0,1,1.5,3.91,1.965,1.965,0,0,1,.849,2.441,1.926,1.926,0,0,1,1.5.972M3.314,5.09a2.982,2.982,0,0,1-1.132-.077,1.663,1.663,0,0,1-.667-.271.182.182,0,0,1-.061-.135q0-.077.121-.077a.276.276,0,0,1,.162.058,2.721,2.721,0,0,0,1.738.232L3.8,4.742l.2-.1a6.277,6.277,0,0,0,1.132-.754q.061-.058.061.058l-.04.1-.687.541v.058l-.3.174a.532.532,0,0,1-.263.116l-.586.155M3.031.353A2.146,2.146,0,0,0,1.5.972,1.926,1.926,0,0,0,.849,2.441,1.965,1.965,0,0,0,1.5,3.91a2.183,2.183,0,0,0,1.536.6,2.183,2.183,0,0,0,1.536-.6,1.965,1.965,0,0,0,.647-1.469A1.926,1.926,0,0,0,4.567.972,2.146,2.146,0,0,0,3.031.353m.162.773q-.061,0-.061.039H2.607L2.243,1.3q-.02.039-.081,0a.062.062,0,0,1-.04-.058A.21.21,0,0,1,2.2,1.107q.1-.077.1-.116L2.485.914A.775.775,0,0,1,3.011.895a.2.2,0,0,1,.162.077.128.128,0,0,1,.02.155M1.738,2.209A.692.692,0,0,1,2.2,2.035a.619.619,0,0,1,.445.174.6.6,0,0,1,.2.445.541.541,0,0,1-.2.425.587.587,0,0,1-.445.193.653.653,0,0,1-.465-.193.566.566,0,0,1-.182-.425.63.63,0,0,1,.182-.445m1.637-.367a.692.692,0,0,1,.465-.174.857.857,0,0,1,.263.039.906.906,0,0,1,.182.135.6.6,0,0,1,.2.445.541.541,0,0,1-.2.425.555.555,0,0,1-.121.1.544.544,0,0,1-.323.1.653.653,0,0,1-.465-.193.566.566,0,0,1-.182-.425A.63.63,0,0,1,3.375,1.842Z" transform="translate(0 0.459)" fill="#6a78b7"/>
              <path id="Path_45255" data-name="Path 45255" d="M2.283,0a.692.692,0,0,0-.465.174.63.63,0,0,0-.182.445.566.566,0,0,0,.182.425.653.653,0,0,0,.465.193.544.544,0,0,0,.323-.1.555.555,0,0,0,.121-.1.541.541,0,0,0,.2-.425.6.6,0,0,0-.2-.445A.906.906,0,0,0,2.546.039.857.857,0,0,0,2.283,0M.647.367A.692.692,0,0,0,.182.541.63.63,0,0,0,0,.986a.566.566,0,0,0,.182.425A.653.653,0,0,0,.647,1.6a.587.587,0,0,0,.445-.193.541.541,0,0,0,.2-.425.6.6,0,0,0-.2-.445A.619.619,0,0,0,.647.367Z" transform="translate(1.556 2.127)" fill="#1c2449"/>
            </g>
            <path id="Path_45256" data-name="Path 45256" d="M4.365,2.088a1.965,1.965,0,0,1-.647,1.469,2.183,2.183,0,0,1-1.536.6,2.183,2.183,0,0,1-1.536-.6A1.965,1.965,0,0,1,0,2.088,1.926,1.926,0,0,1,.647.619,2.146,2.146,0,0,1,2.182,0,2.146,2.146,0,0,1,3.718.619,1.926,1.926,0,0,1,4.365,2.088Z" transform="translate(0.849 0.812)" fill="none" stroke="#4d5b9c" stroke-linecap="round" stroke-linejoin="round" stroke-width="1.601"/>
          </g>
        </g>
        <g id="Group_53176" data-name="Group 53176" transform="translate(64.642 38.981) rotate(180)">
          <g id="Group_53171" data-name="Group 53171" transform="translate(0 0)">
            <g id="Group_53170" data-name="Group 53170">
              <path id="Path_45257" data-name="Path 45257" d="M.606,28.437a4.4,4.4,0,0,1-.566-.251q-.026-.178-.04-.367Q2.728,25.479,3.678,9.975,4,4.685,3.961,0q1.218,13.535-.647,21.884Q2.2,26.929.606,28.437Z" transform="translate(0 6.959)" fill="#1c2449"/>
              <path id="Path_45258" data-name="Path 45258" d="M10.2,37.658a7.212,7.212,0,0,1-1.94.116q-.222,0-3.395-.155-.038,0-.081,0A19.71,19.71,0,0,1,.647,36.267,1.745,1.745,0,0,1,0,35.145a4.4,4.4,0,0,0,.566.251q1.6-1.508,2.708-6.553,1.865-8.348.647-21.884Q3.91,6.424,3.9,5.9,3.8.87,3.334,0,4.648,0,8.164.387a29.208,29.208,0,0,1,6.143,1.083,58.591,58.591,0,0,1,1.111,16.857,78.283,78.283,0,0,1-2.89,14.48Q11.053,37.388,10.2,37.658Z" transform="translate(0.04 0)" fill="#2c3664"/>
              <path id="Path_45259" data-name="Path 45259" d="M3.476,19.448a7.212,7.212,0,0,0,1.94-.116q.849-.271,2.324-4.852A78.283,78.283,0,0,0,10.629,0q-.1,2.006-.3,4.137Q9.214,16.258,6.648,20.376q-.344.541-5.355-.754L0,19.293q.043,0,.081,0Q3.253,19.448,3.476,19.448Z" transform="translate(4.829 18.327)" fill="#424d80"/>
            </g>
          </g>
          <g id="Group_53173" data-name="Group 53173" transform="translate(6.2 1.259)">
            <g id="Group_53172" data-name="Group 53172" transform="translate(0 0)">
              <path id="Path_45260" data-name="Path 45260" d="M.57,4.1A4.742,4.742,0,0,1,.63,3.207a2.323,2.323,0,0,1,.606-1.16,2.947,2.947,0,0,1,1.111-.754,3.787,3.787,0,0,1,2.687.019,2.808,2.808,0,0,1,1.111.657,2.744,2.744,0,0,1,.788,2.3,2.576,2.576,0,0,1-.606,1.7,1.428,1.428,0,0,1-.889.5.943.943,0,0,1-.95-.329.726.726,0,0,1-.081-.831.546.546,0,0,1,.3-.29.419.419,0,0,1,.424.039,1.475,1.475,0,0,0,.2-1.469,2.076,2.076,0,0,0-.222-.406,1.124,1.124,0,0,0-.606-.329,2.741,2.741,0,0,0-.869-.174,1.539,1.539,0,0,0-1.091.348,1.127,1.127,0,0,0-.424,1.005,1.832,1.832,0,0,0,.808,1.2,1.269,1.269,0,0,1,.485.561.574.574,0,0,1-.061.445.684.684,0,0,1-.364.329,1.126,1.126,0,0,1-.93-.058,3,3,0,0,1-.748-.6A2.625,2.625,0,0,1,.671,4.869,3.766,3.766,0,0,1,.57,4.1M.711,1.8Q0,2.7.064,2.994q-.222-.058.323-1.16A3.009,3.009,0,0,1,2.125.23,3.269,3.269,0,0,1,4.954.423q1.031.619.95.909A2.235,2.235,0,0,0,4.995.616,4.058,4.058,0,0,0,2.348.558,3.232,3.232,0,0,0,.711,1.8Z" fill="#1c2449"/>
            </g>
          </g>
          <g id="Group_53175" data-name="Group 53175" transform="translate(6.931 2.803)">
            <g id="Group_53174" data-name="Group 53174" transform="translate(0 0)">
              <path id="Path_45261" data-name="Path 45261" d="M5.638,4.388q-.424.329-.505.387a3.475,3.475,0,0,1-1.778.561,3.916,3.916,0,0,1-2.1-.522,5.863,5.863,0,0,1-.97-.657.075.075,0,0,0,0-.039v.019A2.707,2.707,0,0,1,0,2.9,2.734,2.734,0,0,1,.889.851,2.987,2.987,0,0,1,3.031,0,2.987,2.987,0,0,1,5.173.851,2.734,2.734,0,0,1,6.062,2.9a2.726,2.726,0,0,1-.485,1.585q.034-.051.061-.1M4.567,4.369A1.926,1.926,0,0,0,5.213,2.9a1.965,1.965,0,0,0-.647-1.469,2.183,2.183,0,0,0-1.536-.6,2.183,2.183,0,0,0-1.536.6A1.965,1.965,0,0,0,.849,2.9,1.926,1.926,0,0,0,1.5,4.369a2.146,2.146,0,0,0,1.536.619,2.146,2.146,0,0,0,1.536-.619M4.163.522A.532.532,0,0,0,3.9.406L3.314.251A2.982,2.982,0,0,0,2.182.329,1.663,1.663,0,0,0,1.516.6a.182.182,0,0,0-.061.135q0,.077.121.077A.276.276,0,0,0,1.738.754,2.721,2.721,0,0,1,3.476.522L3.8.6,4,.7a6.277,6.277,0,0,1,1.132.754q.061.058.061-.058l-.04-.1L4.466.754V.7l-.3-.174M5.213,2.9a1.926,1.926,0,0,1-.647,1.469,2.146,2.146,0,0,1-1.536.619A2.146,2.146,0,0,1,1.5,4.369,1.926,1.926,0,0,1,.849,2.9,1.965,1.965,0,0,1,1.5,1.431a2.183,2.183,0,0,1,1.536-.6,2.183,2.183,0,0,1,1.536.6A1.965,1.965,0,0,1,5.213,2.9m-.93.6a.6.6,0,0,0,.2-.445.541.541,0,0,0-.2-.425l-.1-.1a.657.657,0,0,0-.808.1.566.566,0,0,0-.182.425.63.63,0,0,0,.182.445.692.692,0,0,0,.465.174A.6.6,0,0,0,4.1,3.615.541.541,0,0,0,4.284,3.5M2.162,4.04a.062.062,0,0,0-.04.058.21.21,0,0,0,.081.135q.1.077.1.116l.182.077a.775.775,0,0,0,.525.019.2.2,0,0,0,.162-.077.128.128,0,0,0,.02-.155q-.061,0-.061-.039H2.607L2.243,4.04q-.02-.039-.081,0M1.556,2.687a.63.63,0,0,0,.182.445.692.692,0,0,0,.465.174.619.619,0,0,0,.445-.174.6.6,0,0,0,.2-.445.541.541,0,0,0-.2-.425A.587.587,0,0,0,2.2,2.069a.653.653,0,0,0-.465.193A.566.566,0,0,0,1.556,2.687Z" fill="#6a78b7"/>
              <path id="Path_45262" data-name="Path 45262" d="M3.617.18A.532.532,0,0,1,3.88.3l.3.174V.528l.687.541.04.1q0,.116-.061.058A6.277,6.277,0,0,0,3.718.47l-.2-.1L3.193.3A2.721,2.721,0,0,0,1.455.528a.276.276,0,0,1-.162.058q-.121,0-.121-.077A.182.182,0,0,1,1.233.374,1.663,1.663,0,0,1,1.9.1,2.982,2.982,0,0,1,3.031.026L3.617.18M1.839,3.873a.062.062,0,0,1,.04-.058q.061-.039.081,0l.364.135h.525q0,.039.061.039a.128.128,0,0,1-.02.155.2.2,0,0,1-.162.077A.775.775,0,0,1,2.2,4.2l-.182-.077q0-.039-.1-.116a.21.21,0,0,1-.081-.135m3.112.793-.061.058a2.987,2.987,0,0,1-2.142.851A2.987,2.987,0,0,1,.606,4.723l-.485-.6A2.156,2.156,0,0,1,0,3.931a5.863,5.863,0,0,0,.97.657,3.916,3.916,0,0,0,2.1.522A3.475,3.475,0,0,0,4.85,4.549q.081-.058.505-.387-.027.046-.061.1a1.661,1.661,0,0,1-.162.213Z" transform="translate(0.283 0.226)" fill="#929fd9"/>
              <path id="Path_45263" data-name="Path 45263" d="M.182,1.063A.63.63,0,0,1,0,.619.566.566,0,0,1,.182.193.653.653,0,0,1,.647,0a.587.587,0,0,1,.445.193.541.541,0,0,1,.2.425.6.6,0,0,1-.2.445.619.619,0,0,1-.445.174.692.692,0,0,1-.465-.174M2.93.986a.6.6,0,0,1-.2.445.541.541,0,0,1-.182.116.6.6,0,0,1-.263.058.692.692,0,0,1-.465-.174A.63.63,0,0,1,1.637.986.566.566,0,0,1,1.819.561a.657.657,0,0,1,.808-.1l.1.1A.541.541,0,0,1,2.93.986Z" transform="translate(1.556 2.069)" fill="#1c2449"/>
            </g>
            <path id="Path_45264" data-name="Path 45264" d="M4.365,2.069A1.965,1.965,0,0,0,3.718.6,2.183,2.183,0,0,0,2.182,0,2.183,2.183,0,0,0,.647.6,1.965,1.965,0,0,0,0,2.069,1.926,1.926,0,0,0,.647,3.538a2.146,2.146,0,0,0,1.536.619,2.146,2.146,0,0,0,1.536-.619A1.926,1.926,0,0,0,4.365,2.069Z" transform="translate(0.849 0.831)" fill="none" stroke="#4d5b9c" stroke-linecap="round" stroke-linejoin="round" stroke-width="1.601"/>
          </g>
        </g>
        <g id="Group_53183" data-name="Group 53183" transform="translate(15.477 42.712)">
          <g id="Group_53180" data-name="Group 53180" transform="translate(0 0)">
            <g id="Group_53177" data-name="Group 53177" transform="translate(0)">
              <path id="Path_45265" data-name="Path 45265" d="M29.144,0Q27.122.851,20.2,1.663a58.784,58.784,0,0,1-5.951.193A59.134,59.134,0,0,1,8.3,1.663,52.35,52.35,0,0,1,0,.232,21.375,21.375,0,0,0,3.986,1.373,78.275,78.275,0,0,0,14.324,2.706a67.305,67.305,0,0,0,7.114-.7A32.838,32.838,0,0,0,29.144.039Q29.144.018,29.144,0Z" transform="translate(0.784 0)" fill="#929fd9"/>
              <path id="Path_45266" data-name="Path 45266" d="M30.062,7.771q.019-.791-.134-7.733a32.838,32.838,0,0,1-7.706,1.972,67.305,67.305,0,0,1-7.114.7A78.275,78.275,0,0,1,4.77,1.373,21.375,21.375,0,0,1,.784.232Q.417.118.136,0-.017,6.979,0,7.771a30.124,30.124,0,0,0,1.259,8.467Q4.1,25.054,14.1,26a1.451,1.451,0,0,0,.381.039,2.956,2.956,0,0,0,.553.019q.229,0,.591-.019A1.183,1.183,0,0,0,15.966,26q9.994-.947,12.836-9.763.106-.325.191-.677a30.967,30.967,0,0,0,1.068-7.791m-2.518,6.573q-.172.638-.381,1.237-2.518,7.559-8.545,9.125,6.027-1.566,8.545-9.125.21-.6.381-1.237a28.831,28.831,0,0,0,1.144-8.351,28.831,28.831,0,0,1-1.144,8.351M1.356,5.993A28.831,28.831,0,0,0,2.5,14.344q2.422,8.68,8.926,10.362Q4.923,23.024,2.5,14.344A28.831,28.831,0,0,1,1.356,5.993m.458-3.828a46.6,46.6,0,0,0,8.907,1.74Q21.059,5.046,28.192,2.069,21.059,5.046,10.721,3.905A46.6,46.6,0,0,1,1.814,2.165Z" transform="translate(0 0)" fill="#6a78b7"/>
            </g>
            <g id="Group_53178" data-name="Group 53178" transform="translate(1.761 2.014)">
              <path id="Path_45267" data-name="Path 45267" d="M26.432.073q.057,0,.019-.039,0-.058-.038-.019L23.285,1l-.877.193q-1.049.232-1.984.387-1.392.193-2.251.271l-2.4.135q-1.24.039-2.5,0-1.24-.019-2.48-.116l-2.4-.232q-1.221-.116-2.251-.29L.053.112Q.015.073.015.131-.023.17.034.17L4.1,1.291l6.657.947q1.125.1,2.518.135,1.411.039,2.5-.019h.324L18.211,2.2q1.106-.116,2.251-.329.916-.155,2-.425L24.124.982Z" transform="translate(0 0)" fill="#4d5b9c"/>
            </g>
            <g id="Group_53179" data-name="Group 53179" transform="translate(1.147 5.954)">
              <path id="Path_45268" data-name="Path 45268" d="M.191,0,.172.019,0,2.494l.21,2.9q.114.851.324,1.933l.153.638L.706,8.1l.076.251L.8,8.467l.019.039v.039l.973,2.9.057.116.019.058L2.5,12.933l.076.116.057.116.362.58.019.058.534.793.038.039.5.619.038.058.305.329.076.1.191.174.038.058.038.039.1.077.172.174L6.5,17.4a2.458,2.458,0,0,0,.362.213l.515.29.9.387.381.116.134.058,1.469.309q.038.039.038-.019l-.019-.039L8.125,17.65l-.057-.058-.076-.039-.153-.1-1.3-1.005-.076-.077-.172-.135-.381-.387-.076-.1-.42-.445-.038-.058-.725-.928-.134-.213-.076-.1-.019-.058-.038-.039-.134-.213a.209.209,0,0,0-.076-.1l-.057-.116-.134-.213-.019-.058-.648-1.179-.038-.116-.229-.464-.1-.251-.038-.058L2.9,11.1l-.057-.116L1.869,8.235V8.216L1.85,8.2V8.177L1.7,7.694l-.019-.135-.153-.464L.877,4.369.229.039A.034.034,0,0,0,.191,0m27.37.019L27.523,0,27.5.039,27.2,2.455l-1.144,5.1-.019.135L24.891,10.98l-.439.947-.019.058-.038.058-.648,1.237-.076.1-.057.116-.687,1.025q-.61.793-1.183,1.411l-.935.851-.324.232a2.277,2.277,0,0,1-.305.232l-.286.213-1.545.87-.9.387q-.057,0-.019.039,0,.058.038.019l.744-.116.343-.1h.057l.324-.1,1.24-.483.973-.541.076-.058.515-.329.038-.039.553-.425a13.153,13.153,0,0,0,1.392-1.431l.877-1.179.057-.116.362-.58,1.125-2.358,1.049-3.6q.21-1.083.324-1.933l.114-.909.076-2.938Z" transform="translate(0 0)" fill="#4d5b9c"/>
            </g>
          </g>
          <g id="Group_53182" data-name="Group 53182" transform="translate(7.784 6.792)">
            <g id="Group_53181" data-name="Group 53181" transform="translate(0 0)">
              <path id="Path_45269" data-name="Path 45269" d="M10.49,8.334a4.316,4.316,0,0,0,.286-.425A6.168,6.168,0,0,1,9.193,9.282a3.217,3.217,0,0,1-2.918.445,4.33,4.33,0,0,0-.935-.406A2.216,2.216,0,0,0,3.8,9.591q-.5.232-.744.329a3.145,3.145,0,0,1-.744.251A3.3,3.3,0,0,1,.019,9.552H0a3.132,3.132,0,0,0,.267.232l.725.5a.054.054,0,0,0,.038.019.257.257,0,0,0,.057.039,3.465,3.465,0,0,0,1.2.367A3.266,3.266,0,0,0,3.8,10.5a7.052,7.052,0,0,1,.954-.29,1.4,1.4,0,0,1,.534.077q.172.039.515.155a3.288,3.288,0,0,0,1.43.174,1.712,1.712,0,0,0,.286-.058,4.6,4.6,0,0,0,1.945-1.1l1.03-1.121M9.861.157Q9.639.09,9.4.041a3.869,3.869,0,0,0-1.125,0H8.259A6.609,6.609,0,0,0,5.932.969L5.8,1.046l-.439.29a3.393,3.393,0,0,0-.248-.7L5.035.486A3.017,3.017,0,0,0,4.711.022,5.33,5.33,0,0,1,5.15,1.278a5.492,5.492,0,0,1,.038,1.837,2.79,2.79,0,0,1,.42-1.044q.057-.077.439-.464a2.4,2.4,0,0,1,.629-.483A8.666,8.666,0,0,1,9.861.157Z" transform="translate(2.327 3.722)" fill="#7c0029"/>
              <path id="Path_45270" data-name="Path 45270" d="M14.324,4.137a3.547,3.547,0,0,0-.782-1.759,2.852,2.852,0,0,0-1.354-.812A8.666,8.666,0,0,0,9,2.533a2.4,2.4,0,0,0-.629.483q-.381.387-.439.464a2.79,2.79,0,0,0-.42,1.044,5.492,5.492,0,0,0-.038-1.837,5.33,5.33,0,0,0-.439-1.257A3.5,3.5,0,0,0,6.351.754,3.647,3.647,0,0,0,4.082,0,3.944,3.944,0,0,0,1.831.812,4,4,0,0,0,.42,2.784,9.265,9.265,0,0,0,0,5.684,8.4,8.4,0,0,0,.305,7.695a6.606,6.606,0,0,0,1.2,2.3,7.194,7.194,0,0,0,.839.967,3.3,3.3,0,0,0,2.289.619,3.145,3.145,0,0,0,.744-.251q.248-.1.744-.329a2.216,2.216,0,0,1,1.545-.271,4.33,4.33,0,0,1,.935.406,3.217,3.217,0,0,0,2.918-.445A6.168,6.168,0,0,0,13.1,9.318a4.316,4.316,0,0,1-.286.425,8.073,8.073,0,0,0,1.106-1.953,6.441,6.441,0,0,0,.4-3.654m-.553.5q.076-.077.191.6A4.45,4.45,0,0,1,13.9,6.921a3.126,3.126,0,0,1-.4,1.025.693.693,0,0,1-.477.329,5.115,5.115,0,0,0,.706-2.049,3.7,3.7,0,0,0,.038-1.585m-.248-1.334a.251.251,0,0,1,.134.019.711.711,0,0,1,.191.522q0,.213-.1.251a3.322,3.322,0,0,1-.21-.387,2.223,2.223,0,0,1-.153-.367.329.329,0,0,1,.134-.039M1.316,3.152A8.566,8.566,0,0,0,1.011,4.6a11.053,11.053,0,0,0,.458,3.963A6.516,6.516,0,0,1,.706,3.983a5.293,5.293,0,0,1,.668-1.856,1.966,1.966,0,0,1,.8-.889A5.051,5.051,0,0,0,1.316,3.152Z" transform="translate(0 2.313)" fill="#903"/>
              <path id="Path_45271" data-name="Path 45271" d="M.422,3.364a8.566,8.566,0,0,1,.305-1.45A5.051,5.051,0,0,1,1.586,0a1.967,1.967,0,0,0-.8.889A5.293,5.293,0,0,0,.117,2.745,6.516,6.516,0,0,0,.88,7.327,11.053,11.053,0,0,1,.422,3.364M13.068,2.088a.251.251,0,0,0-.134-.019.329.329,0,0,0-.134.039,2.223,2.223,0,0,0,.153.367,3.321,3.321,0,0,0,.21.387q.1-.039.1-.251a.711.711,0,0,0-.191-.522M13.373,4q-.114-.677-.191-.6a3.7,3.7,0,0,1-.038,1.585,5.115,5.115,0,0,1-.706,2.049.693.693,0,0,0,.477-.329,3.126,3.126,0,0,0,.4-1.025A4.45,4.45,0,0,0,13.373,4Z" transform="translate(0.588 3.551)" fill="#c84b75"/>
              <path id="Path_45272" data-name="Path 45272" d="M1.082.754.8.87.777.889A2.508,2.508,0,0,0,.129,1.8a1.1,1.1,0,0,0-.114.657A11.606,11.606,0,0,1,3.886.87,6.179,6.179,0,0,0,1.922,1.933q-.744.6-.629.735a3.441,3.441,0,0,1,.9-.058,5.112,5.112,0,0,1,1.087.135,5.493,5.493,0,0,0,.5-.387A4.859,4.859,0,0,0,5.164.522Q5.279.193,5.145.077A.4.4,0,0,0,4.859,0,9.553,9.553,0,0,0,1.082.754Z" transform="translate(9.084 0.593)" fill="#365815"/>
              <path id="Path_45273" data-name="Path 45273" d="M.839.58Q.722.843.61,1.141.49,1.477.381,1.8.153,2.55.019,3.209q-.01.059-.019.1l.134-.077A6.609,6.609,0,0,1,2.46,2.3H2.48A3.869,3.869,0,0,1,3.6,2.3q.37-.228.629-.425A5.112,5.112,0,0,0,3.147,1.74a3.441,3.441,0,0,0-.9.058q-.114-.135.629-.735A6.179,6.179,0,0,1,4.845,0,11.606,11.606,0,0,0,.973,1.585,1.1,1.1,0,0,1,1.087.928,2.508,2.508,0,0,1,1.736.019Z" transform="translate(8.125 1.463)" fill="#253e0d"/>
              <path id="Path_45274" data-name="Path 45274" d="M2.537.052A.249.249,0,0,0,2.308.013a.891.891,0,0,0-.381.309A10.732,10.732,0,0,0,.267,3.377Q.118,3.8,0,4.208l.076.155a3.393,3.393,0,0,1,.248.7l.439-.29q.009-.037.019-.1.134-.659.362-1.411.109-.321.229-.657.112-.3.229-.561A5.211,5.211,0,0,1,2.518.516.531.531,0,0,0,2.651.264.219.219,0,0,0,2.537.052Z" transform="translate(7.362 0)" fill="#1d0d0c"/>
            </g>
          </g>
        </g>
      </g>
      <g id="Group_53189" data-name="Group 53189" transform="translate(137.193 102.492) rotate(-29.625)">
        <g id="Group_53186" data-name="Group 53186" transform="translate(0 0)">
          <g id="Group_53185" data-name="Group 53185">
            <path id="Path_45275" data-name="Path 45275" d="M1.839,12.083A47,47,0,0,1,5.86,0a47.084,47.084,0,0,0-2.4,8.3Q.748,20.509,0,25.217A107.55,107.55,0,0,1,1.839,12.083m9.78,34.108a22.54,22.54,0,0,0,3.253-5.739A47.512,47.512,0,0,0,17.115,31.1q.04-.263.242-2.061-.04,3.273-.2,4.87Q16.145,43.524,11.619,46.191Z" transform="translate(0.317 1.673)" fill="#84553e"/>
            <path id="Path_45276" data-name="Path 45276" d="M7.551,48.774q-4.082-.141-6-5.031Q-.551,38.448.2,28.244q.061-.707.121-1.354.748-4.708,3.455-16.913a47.084,47.084,0,0,1,2.4-8.3l.2-.4A2.674,2.674,0,0,1,8.521.016a6.472,6.472,0,0,1,1.132.02,4.051,4.051,0,0,1,3.334,1.819q2.263,3.88,3.7,14.508a100.006,100.006,0,0,1,.99,14.346q-.2,1.8-.242,2.061a47.512,47.512,0,0,1-2.243,9.355,22.54,22.54,0,0,1-3.253,5.739,8.2,8.2,0,0,1-1.677.586A10.243,10.243,0,0,1,7.551,48.774Z" fill="#a56b4e"/>
          </g>
        </g>
        <g id="Group_53188" data-name="Group 53188" transform="translate(7.733 37.305)">
          <g id="Group_53187" data-name="Group 53187" transform="translate(0 0)">
            <path id="Path_45277" data-name="Path 45277" d="M2.425,3.046V2.437h.606m-.606,0V1.828m2.425.609L2.425,0,0,2.437,2.425,4.874Zm-3.031,0h.606" fill="none" stroke="rgba(0,0,0,0)" stroke-linecap="round" stroke-linejoin="round" stroke-width="0.082"/>
          </g>
        </g>
      </g>
      <g id="Group_53194" data-name="Group 53194" transform="matrix(0.676, -0.737, 0.737, 0.676, 125.676, 98.773)">
        <g id="Group_53191" data-name="Group 53191" transform="matrix(1, -0.01, 0.01, 1, 0, 0.202)">
          <g id="Group_53190" data-name="Group 53190" transform="translate(0 0)">
            <path id="Path_45278" data-name="Path 45278" d="M9.711,3.82q-2.418.785-3.407,0A4.109,4.109,0,0,1,8.7.777q4.418-1.687,5.5.483L9.711,3.82M2.449,3.2Q3.467,5.268,1.282,6.61.719,6.7.134,5.375t1.381-2.88L2,2.536a3.116,3.116,0,0,1,.448.663m.607.27A.951.951,0,0,1,2.9,2.961V2.634a1.452,1.452,0,0,1,.252-.777,7.186,7.186,0,0,1,.476-.605,4.134,4.134,0,0,1,.616-.7A1.558,1.558,0,0,1,4.391.441a2.037,2.037,0,0,1,.364-.2A2.872,2.872,0,0,1,5.884.024a3.88,3.88,0,0,1,1.9.27A5.2,5.2,0,0,0,5.249,3.779a2.55,2.55,0,0,1-2.194-.311M15.806,8.074q.887,1.53-.765,1.554-3.118.434-5.05-4.941A26.047,26.047,0,0,1,15.34,1.906a7.183,7.183,0,0,1,5.377,2.422Q22.7,18.988,13.2,20.354C8.622,20.251-.544,16.026.321,10.2S1.563,7.778,2.4,6.342A10.927,10.927,0,0,1,3.681,4.458q.476.09.952.164t.952.115A18.05,18.05,0,0,0,8.834,4.8q.588-.033,1.157-.115.765,4.565-4.751,3.559a6.047,6.047,0,0,1,1.092.409,13.433,13.433,0,0,1,1.549.908A10.014,10.014,0,0,1,11.5,13.916a4.288,4.288,0,0,0,1.661,3.567q-1.456-3.125,1.26-7.028,4.256.041,1.633-3.747L18.4,4.458,14.64,6.226A18.43,18.43,0,0,1,15.806,8.074Z" fill="#a56b4e"/>
            <path id="Path_45279" data-name="Path 45279" d="M12.919.965a6.2,6.2,0,0,1,1.139.646A26.047,26.047,0,0,0,8.709,4.393q-.569.082-1.157.115A18.05,18.05,0,0,1,4.3,4.442q-.476-.041-.952-.115T2.4,4.164a8.691,8.691,0,0,1-1.312,2.09A.769.769,0,0,1,0,6.316Q2.184,4.974,1.167,2.9a3.116,3.116,0,0,0-.448-.663L.233,2.2a1.359,1.359,0,0,0,.644-.368A3.663,3.663,0,0,1,2.343.957a7.186,7.186,0,0,0-.476.605,1.452,1.452,0,0,0-.252.777v.327a.951.951,0,0,0,.159.507,2.55,2.55,0,0,0,2.194.311A5.2,5.2,0,0,1,6.506,0a4.938,4.938,0,0,1,.915.483,4.109,4.109,0,0,0-2.4,3.043q.989.785,3.407,0L12.919.965m.84,8.369q1.652-.025.765-1.554a18.43,18.43,0,0,0-1.167-1.849l3.762-1.767-2.343,2.25Q17.4,10.2,13.143,10.161q-2.716,3.9-1.26,7.028a4.288,4.288,0,0,1-1.661-3.567A10.014,10.014,0,0,0,6.6,9.269,13.433,13.433,0,0,0,5.05,8.361a6.047,6.047,0,0,0-1.092-.409Q9.474,8.958,8.709,4.393,10.641,9.768,13.759,9.335Z" transform="translate(1.282 0.294)" fill="#84553e"/>
          </g>
        </g>
        <g id="Group_53193" data-name="Group 53193" transform="matrix(1, -0.01, 0.01, 1, 10.058, 15.645)">
          <g id="Group_53192" data-name="Group 53192" transform="translate(0 0)">
            <path id="Path_45280" data-name="Path 45280" d="M1.12,1.227V.982H1.4m-.28,0V.736M2.24.982,1.12,0,0,.982l1.12.982Zm-1.4,0h.28" fill="none" stroke="rgba(0,0,0,0)" stroke-linecap="round" stroke-linejoin="round" stroke-width="0.035"/>
          </g>
        </g>
      </g>
      <g id="Group_53263" data-name="Group 53263" transform="translate(19.57 13.79) rotate(-6.856)">
        <g id="Group_53196" data-name="Group 53196" transform="translate(15.109 81.401)">
          <g id="Group_53195" data-name="Group 53195" transform="translate(0 0)">
            <path id="Path_45281" data-name="Path 45281" d="M7.856.2q-.99.2-1.435.344a4.777,4.777,0,0,0-1.314.647A5.039,5.039,0,0,0,4.016,2.305a4.531,4.531,0,0,0-.707,1.172,4.4,4.4,0,0,0-.141,1.516v.344a2.726,2.726,0,0,0-1.455.243,2.817,2.817,0,0,0-1.576,1.6A2.033,2.033,0,0,0,.055,8.368,2.428,2.428,0,0,0,.641,9.4a3.122,3.122,0,0,0,1.273.889,2.694,2.694,0,0,0,1.516.162A2.557,2.557,0,0,0,4.784,9.7a2.3,2.3,0,0,0,.364-.465q.261.177.606.384a8.3,8.3,0,0,0,1.334.707,4.107,4.107,0,0,0,1.314.283q.015.162.04.3a7.492,7.492,0,0,0,.182.728,2.731,2.731,0,0,0-1.172.95,2.878,2.878,0,0,0-.505,1.718v.263a2.036,2.036,0,0,0-.344.182,1.5,1.5,0,0,0-.707.97,1.579,1.579,0,0,0,.081.849,1.673,1.673,0,0,0,.364.586,1.571,1.571,0,0,0,.788.424,1.594,1.594,0,0,0,1.314-.222q.1.066.2.121a3.276,3.276,0,0,0,1.8.3,3.08,3.08,0,0,0,1.576-.424,2.386,2.386,0,0,0,.93-1.192q.056-.139.1-.283A3.031,3.031,0,0,0,14.423,17.7a4.181,4.181,0,0,0,2.284.667,3.541,3.541,0,0,0,1.839-.445,2.263,2.263,0,0,0,1.111-1.475,3.627,3.627,0,0,1,.141-.667,1.036,1.036,0,0,1,.3-.364q.243-.2.344-.3a1.983,1.983,0,0,0,.566-1.01,1.8,1.8,0,0,0-.121-1.132,1.682,1.682,0,0,0-.808-.808,1.532,1.532,0,0,0-1.111-.1l-.3.121q-.014-.115-.04-.243a1.77,1.77,0,0,0-1.233-1.334l-.061-.02a1.825,1.825,0,0,0-.2-.505l-.525-.829a4.03,4.03,0,0,1-.283-.647q-.121-.344-.445-1.031l-.424-.869q-.748-1.556-1.273-2.506a3.776,3.776,0,0,0-.728-.93l-.3-.748q-.121-.3-.4-.97A2.219,2.219,0,0,0,12.14.77,3.008,3.008,0,0,0,11.049.3,6.716,6.716,0,0,0,9.533,0,8.733,8.733,0,0,0,7.856.2Z" fill="#1d0d0c"/>
          </g>
        </g>
        <g id="Group_53198" data-name="Group 53198" transform="translate(75.015 85.658)">
          <g id="Group_53197" data-name="Group 53197" transform="translate(0 0)">
            <path id="Path_45282" data-name="Path 45282" d="M7.767,2.251a6.711,6.711,0,0,0-.889,1.031,3.864,3.864,0,0,0-.424,1.192,3.822,3.822,0,0,0-.02,1.293q-.121.323-.182.465a.833.833,0,0,1-.323.4,1.54,1.54,0,0,1-.829.081A2.5,2.5,0,0,0,3.968,6.9a.058.058,0,0,1-.04.02A3.2,3.2,0,0,0,1.6,7.788,4.371,4.371,0,0,0,.391,9.264a3.645,3.645,0,0,0-.384,1.859,2.812,2.812,0,0,0,.748,1.738,2.41,2.41,0,0,0,1.6.869,2.5,2.5,0,0,0,2.021-.687,4.284,4.284,0,0,0,.93.465,5.387,5.387,0,0,0,1.334.243,5.619,5.619,0,0,0,1.516,0q.162-.04.3-.081a1.514,1.514,0,0,0,.707.344,1.794,1.794,0,0,0,1.091-.141,1.578,1.578,0,0,0,.808-.808,1.673,1.673,0,0,0,.121-1.091,1.072,1.072,0,0,0-.061-.222,2.826,2.826,0,0,0,.465-1.111q.061-.323.1-.728a4.651,4.651,0,0,0,1.071,0,5.6,5.6,0,0,0,.829-.141,1.187,1.187,0,0,0,.04.283,2.112,2.112,0,0,0,1.091,1.576,2.249,2.249,0,0,0,1.8.182,2.549,2.549,0,0,0,1.455-1.091,2.233,2.233,0,0,0,.445-1.435,3.388,3.388,0,0,0-.384-1.253A2.068,2.068,0,0,0,16.74,6.8a7.087,7.087,0,0,0,.2-.808,5.191,5.191,0,0,0-.04-2.041A5.272,5.272,0,0,0,14.618.635,3.194,3.194,0,0,0,13.062.008,4.154,4.154,0,0,0,11.89.129L11.526.21A5.234,5.234,0,0,0,10.5.271a3.485,3.485,0,0,0-2.1,1.111Z" fill="#1d0d0c"/>
          </g>
        </g>
        <g id="Group_53201" data-name="Group 53201" transform="translate(16.06 66.387)">
          <g id="Group_53200" data-name="Group 53200" transform="translate(0 0)">
            <g id="Group_53199" data-name="Group 53199">
              <path id="Path_45283" data-name="Path 45283" d="M9.056,3.072Q8.611,2.486,8.53,2.4a6.71,6.71,0,0,0,.323,2.647,8.383,8.383,0,0,1,.2-1.98M3.7.889A7.012,7.012,0,0,0,2.185,1.9a5.452,5.452,0,0,0-1.01,1.475Q.932,3.9.507,5.093A8,8,0,0,0,0,7.255,8.027,8.027,0,0,0,.144,8.771q.162,1.01.283,1.7a22.551,22.551,0,0,0,3.84,6.224,7.271,7.271,0,0,0,1.192.788,2.948,2.948,0,0,0,1.253.384A1.341,1.341,0,0,0,7.9,17.4a2.279,2.279,0,0,0,.465-1.253q.04-.283.081-.546a13.892,13.892,0,0,0-.283-1.879,7.657,7.657,0,0,0-.283-.95A11.075,11.075,0,0,0,6,9.377,2.661,2.661,0,0,0,5.3,8.71q-.121-.081-.344-.222a.392.392,0,0,1-.141-.182A3.069,3.069,0,0,0,3.4,7.942a.765.765,0,0,1-.3-.04q-.2-.081-.121-.263a.489.489,0,0,1,.222-.1A4.137,4.137,0,0,1,4.771,7.7q.222.081.4.162a2.129,2.129,0,0,1,1.859.788A10.393,10.393,0,0,1,8.49,10.407q-.081-.849-.222-1.7-.2-1.192-.707-3.6A12.7,12.7,0,0,1,7.378,1.5l.04-.162-.243-.2A7.673,7.673,0,0,0,5.58.04a.784.784,0,0,1-.1-.04.51.51,0,0,0-.121.061Q4.832.364,3.7.889Z" transform="translate(0.881 0.182)" fill="#a56b4e"/>
              <path id="Path_45284" data-name="Path 45284" d="M3.065,2.081a7.012,7.012,0,0,1,1.516-1.01Q5.713.546,6.238.243A.51.51,0,0,1,6.359.182,3.134,3.134,0,0,0,3.651.505,7.04,7.04,0,0,0,.539,4.163,4.872,4.872,0,0,0,.115,7.316,32.261,32.261,0,0,0,1.307,10.65q-.121-.687-.283-1.7A8.027,8.027,0,0,1,.883,7.437a8,8,0,0,1,.505-2.162q.424-1.192.667-1.718A5.452,5.452,0,0,1,3.065,2.081Z" fill="#b78871"/>
              <path id="Path_45285" data-name="Path 45285" d="M9.966,9.3,8.874,6.386a15.08,15.08,0,0,0-.909-2.041q-.121-.2-.626-.95-.243-.344-.566-.788l-.667-.869a8.383,8.383,0,0,0-.2,1.98A6.71,6.71,0,0,1,5.58,1.071l-.02-.02A10.731,10.731,0,0,0,4.469,0l-.04.162A12.7,12.7,0,0,0,4.61,3.779q.505,2.4.707,3.6.141.849.222,1.7A10.393,10.393,0,0,0,4.085,7.316a2.129,2.129,0,0,0-1.859-.788q-.182-.081-.4-.162A4.137,4.137,0,0,0,.245,6.2a.489.489,0,0,0-.222.1q-.081.182.121.263a.765.765,0,0,0,.3.04,3.069,3.069,0,0,1,1.415.364A.392.392,0,0,0,2,7.154q.222.141.344.222a2.661,2.661,0,0,1,.707.667,11.075,11.075,0,0,1,1.879,3.4,7.657,7.657,0,0,1,.283.95A13.892,13.892,0,0,1,5.5,14.267q-.04.263-.081.546a2.279,2.279,0,0,1-.465,1.253,1.341,1.341,0,0,1-1.192.465,2.948,2.948,0,0,1-1.253-.384,7.271,7.271,0,0,1-1.192-.788A17.548,17.548,0,0,0,2.63,16.692a.235.235,0,0,0,.061.04L4.772,18.39a3.329,3.329,0,0,1,.283.182,4.976,4.976,0,0,0,2.95.869,5.5,5.5,0,0,0,1.738-.4A2.22,2.22,0,0,0,11,17.824a3.833,3.833,0,0,0,.2-1.213,17.714,17.714,0,0,0-.384-4.789A20.279,20.279,0,0,0,9.966,9.3Z" transform="translate(3.83 1.516)" fill="#84553e"/>
            </g>
          </g>
        </g>
        <g id="Group_53204" data-name="Group 53204" transform="translate(99.994 87.357) rotate(180)">
          <g id="Group_53203" data-name="Group 53203" transform="translate(0 0)">
            <g id="Group_53202" data-name="Group 53202">
              <path id="Path_45286" data-name="Path 45286" d="M9.056,14.8q-.445.586-.525.667a6.71,6.71,0,0,1,.323-2.647,8.383,8.383,0,0,0,.2,1.98M3.7,16.978a7.012,7.012,0,0,1-1.516-1.01,5.452,5.452,0,0,1-1.01-1.475q-.243-.525-.667-1.718A8,8,0,0,1,0,10.613,8.027,8.027,0,0,1,.144,9.1q.162-1.01.283-1.7a22.551,22.551,0,0,1,3.84-6.224A7.271,7.271,0,0,1,5.459.387,2.948,2.948,0,0,1,6.712,0,1.341,1.341,0,0,1,7.9.468a2.279,2.279,0,0,1,.465,1.253q.04.283.081.546a13.892,13.892,0,0,1-.283,1.879,7.657,7.657,0,0,1-.283.95A11.075,11.075,0,0,1,6,8.491a2.661,2.661,0,0,1-.707.667q-.121.081-.344.222a.392.392,0,0,0-.141.182A3.069,3.069,0,0,1,3.4,9.925a.765.765,0,0,0-.3.04q-.2.081-.121.263a.489.489,0,0,0,.222.1,4.137,4.137,0,0,0,1.576-.162q.222-.081.4-.162a2.129,2.129,0,0,0,1.859-.788A10.393,10.393,0,0,0,8.49,7.46q-.081.849-.222,1.7-.2,1.192-.707,3.6a12.7,12.7,0,0,0-.182,3.617l.04.162-.243.2a7.673,7.673,0,0,1-1.6,1.091.783.783,0,0,0-.1.04.51.51,0,0,1-.121-.061Q4.832,17.5,3.7,16.978Z" transform="translate(0.881 2.92)" fill="#a56b4e"/>
              <path id="Path_45287" data-name="Path 45287" d="M3.065,8.568a7.012,7.012,0,0,0,1.516,1.01q1.132.525,1.657.829a.51.51,0,0,0,.121.061,3.134,3.134,0,0,1-2.708-.323A7.04,7.04,0,0,1,.539,6.487,4.872,4.872,0,0,1,.115,3.334,32.261,32.261,0,0,1,1.307,0q-.121.687-.283,1.7A8.027,8.027,0,0,0,.883,3.213a8,8,0,0,0,.505,2.162q.424,1.192.667,1.718A5.452,5.452,0,0,0,3.065,8.568Z" transform="translate(0 10.32)" fill="#b78871"/>
              <path id="Path_45288" data-name="Path 45288" d="M9.966,10.158l-1.091,2.91a15.08,15.08,0,0,1-.909,2.041q-.121.2-.626.95-.243.344-.566.788l-.667.869a8.383,8.383,0,0,1-.2-1.98,6.71,6.71,0,0,0-.323,2.647l-.02.02a10.732,10.732,0,0,1-1.091,1.051l-.04-.162a12.7,12.7,0,0,1,.182-3.617q.505-2.4.707-3.6.141-.849.222-1.7a10.393,10.393,0,0,1-1.455,1.758,2.129,2.129,0,0,1-1.859.788q-.182.081-.4.162a4.137,4.137,0,0,1-1.576.162.489.489,0,0,1-.222-.1q-.081-.182.121-.263a.765.765,0,0,1,.3-.04,3.069,3.069,0,0,0,1.415-.364A.392.392,0,0,1,2,12.3q.222-.141.344-.222a2.661,2.661,0,0,0,.707-.667,11.075,11.075,0,0,0,1.879-3.4,7.657,7.657,0,0,0,.283-.95A13.892,13.892,0,0,0,5.5,5.187q-.04-.263-.081-.546a2.279,2.279,0,0,0-.465-1.253,1.341,1.341,0,0,0-1.192-.465,2.948,2.948,0,0,0-1.253.384A7.271,7.271,0,0,0,1.316,4.1,17.549,17.549,0,0,1,2.63,2.762a.235.235,0,0,1,.061-.04L4.772,1.064A3.329,3.329,0,0,0,5.055.882,4.976,4.976,0,0,1,8.006.013a5.5,5.5,0,0,1,1.738.4A2.22,2.22,0,0,1,11,1.63a3.833,3.833,0,0,1,.2,1.213,17.714,17.714,0,0,1-.384,4.789A20.279,20.279,0,0,1,9.966,10.158Z" transform="translate(3.83 0)" fill="#84553e"/>
            </g>
          </g>
        </g>
        <g id="Group_53210" data-name="Group 53210" transform="translate(1.978 2.061)">
          <g id="Group_53206" data-name="Group 53206" transform="translate(19.043 25.869)">
            <g id="Group_53205" data-name="Group 53205" transform="translate(0 0)">
              <path id="Path_45289" data-name="Path 45289" d="M0,10.125a18.2,18.2,0,0,0,6.432,6.083q9.216,4.849,17.355,4.951.961.01,1.9-.04a31.06,31.06,0,0,0,16.492-6.285Q48.019,10.632,52.221,0q-5.551,10.679-12.06,14.57a48.289,48.289,0,0,1-6.707,3.415,24.19,24.19,0,0,1-7.53,1.314A41.009,41.009,0,0,1,9.8,16.531Q2.712,13.808,0,10.125Z" transform="translate(10.765 61.394)" fill="#b78871"/>
              <path id="Path_45290" data-name="Path 45290" d="M67.575,13.318A18.056,18.056,0,0,0,61.4,6.689,34.981,34.981,0,0,0,53.161,2.95,54.811,54.811,0,0,0,36.434,0L34.14.081A56.877,56.877,0,0,0,17.315,3.9,37.913,37.913,0,0,0,8.961,8.124,19.7,19.7,0,0,0,2.588,15.2,21.784,21.784,0,0,0,.607,21.219a42.463,42.463,0,0,0-.588,6.447,72.267,72.267,0,0,0,.588,9.9q.2,1.632.431,3.254a.391.391,0,0,0,.02.162q.162,1.344.392,2.708.289,1.682.588,3.355.53,2.873,1.216,5.638,2.824,11.625,7.177,18.349l.118.2a1.37,1.37,0,0,0,.216.283q2.712,3.683,9.8,6.406a41.009,41.009,0,0,0,16.119,2.769,24.19,24.19,0,0,0,7.53-1.314,48.289,48.289,0,0,0,6.707-3.415q6.51-3.891,12.06-14.57a91.711,91.711,0,0,0,3.569-11.357q.564-2.349,1.079-4.749a.181.181,0,0,1,.02-.081q.279-1.369.569-2.708.127-.98.314-1.96.447-2.652.8-5.335a67.823,67.823,0,0,0,.726-9.66A42.76,42.76,0,0,0,69.5,19.2,20.617,20.617,0,0,0,67.575,13.318Z" fill="#a56b4e"/>
            </g>
          </g>
          <g id="Group_53209" data-name="Group 53209" transform="translate(0 0)">
            <g id="Group_53208" data-name="Group 53208">
              <g id="Group_53207" data-name="Group 53207">
                <path id="Path_45291" data-name="Path 45291" d="M13.944,12.369a2.236,2.236,0,0,0-1.53,1.253,2.588,2.588,0,0,0-3.353,0c-.183.135,16.949,10.853,16.87,11.069C25.278,26.173,5.78,41.12,4.943,42.6a6.463,6.463,0,0,0-.314,6.063,11.194,11.194,0,0,0-1.51.445A4.52,4.52,0,0,0,.139,52.726a4.83,4.83,0,0,0,1.079,4.426c-.667.5,8.925-5.1,9.03-4.239.1.9,1.867,18.607,2.089,18.89a7.544,7.544,0,0,0,4.471,2.748A10.275,10.275,0,0,1,16.2,69.5q.1.121.216.243a3.3,3.3,0,0,0,1.235.788,2.139,2.139,0,0,0,1.608-.182l1.588,6.729q-.388-5.616-.392-10.246a48.789,48.789,0,0,1,.157-5.477A4.15,4.15,0,0,0,21.533,60a2.96,2.96,0,0,0,.2-1.415,5.364,5.364,0,0,0-1.941-3.577,3.944,3.944,0,0,0,.961-.2,1.377,1.377,0,0,0,.882-1.5,3.538,3.538,0,0,0-.471-1.637A5.514,5.514,0,0,0,25.729,50.5a7.551,7.551,0,0,0,2.941-5.355l2.765.445q-.02.4-.02.808a6.9,6.9,0,0,0,.569,2.87,3.741,3.741,0,0,0-1.628,1.758,4.922,4.922,0,0,0-.235,3.456,1.492,1.492,0,0,0-1.49-.162,1.753,1.753,0,0,0-.863,2.546,1.49,1.49,0,0,0,1.02.99q2.039.647,2.392-1.738a3.332,3.332,0,0,0,1.353.849,3.746,3.746,0,0,0,3.785-.728A4.056,4.056,0,0,0,37.77,52.12l.628-.04a6.712,6.712,0,0,0,4.51-3.213l.49-2.243q.608.505,1.255.95A4.311,4.311,0,0,0,48.1,48.4l.176.647A13.922,13.922,0,0,0,46.5,50.1a1.954,1.954,0,0,0-.765,1.677q-.02,2.849,2.373,3.153a1.994,1.994,0,0,0-.118.687q.137,1.96,1.883,2.061a1.544,1.544,0,0,0,1.314-.728,2.006,2.006,0,0,0-.353-3.132l.824-2.364a6.812,6.812,0,0,0,4.549-.647,3.263,3.263,0,0,0,1.824-2.486,6.668,6.668,0,0,0,3.628-1.5,10.683,10.683,0,0,0,1.294-1.273,4.723,4.723,0,0,0,1.118-3.678l.863-.121q.275.566.569,1.152a2.436,2.436,0,0,0,1.255,1.152,8.614,8.614,0,0,0,5.55.182l.784,1.192a5.962,5.962,0,0,0-.765.768,5.43,5.43,0,0,0-.882,1.455,6.068,6.068,0,0,0,.02,4.567,4.7,4.7,0,0,0,.51.99,7.285,7.285,0,0,0,2.157,2.122,3.423,3.423,0,0,0,4.432-.1,7.357,7.357,0,0,1-.039.748,3.542,3.542,0,0,0,.765,2.627,4.543,4.543,0,0,0,3.765,1.819,2.315,2.315,0,0,0,1.235-.384,3.764,3.764,0,0,1,.882-.546q1,15.722,2.2,16.046.765.2,2.745-3.88,1.02-2.021,1.981-4.022a4.25,4.25,0,0,0,3.373.384,3.7,3.7,0,0,0,2.039-1.6c2.53.377-26.526-59.616-26.983-59.454a4.549,4.549,0,0,0-2.392,2.385q-.294-.344-.608-.667c-1.033-1.1-33.69-.6-33.886-.788a9.563,9.563,0,0,0-2.314-1.819,3.862,3.862,0,0,0-3.1-.424,7.075,7.075,0,0,0-2.079,1.111,4.163,4.163,0,0,0-1.569,3.577,5.355,5.355,0,0,0,.98,2.95,6.877,6.877,0,0,0,2.314,2,7.789,7.789,0,0,0-3.647-.99,8.93,8.93,0,0,0-3.667,1.172q-.431-3.052-3.981-3.415A5.464,5.464,0,0,0,13.944,12.369Z" fill="#84553e"/>
              </g>
            </g>
          </g>
        </g>
        <g id="Group_53223" data-name="Group 53223" transform="translate(46.771 93.709)">
          <g id="Group_53212" data-name="Group 53212" transform="translate(1.051 0.829)">
            <g id="Group_53211" data-name="Group 53211" transform="translate(0 0)">
              <path id="Path_45292" data-name="Path 45292" d="M10.913,1.5A19.043,19.043,0,0,1,0,1.415a11.644,11.644,0,0,0,2.627,3.86q2.03,2.153,6.406,1.334,4.4-.8,5.679-6.608A25.887,25.887,0,0,1,10.913,1.5Z" transform="translate(0 0)" fill="#86303c"/>
            </g>
          </g>
          <g id="Group_53220" data-name="Group 53220" transform="translate(0 0.626)">
            <g id="Group_53219" data-name="Group 53219" transform="translate(0 0)">
              <path id="Path_45295" data-name="Path 45295" d="M0,.829.081.909.121.97l.162.162.061.04.04.061.141.121.323.222.081.081.3.182,1.031.445.162.04.141.061,2.061.4.384.02q.485.04.768.04a2.591,2.591,0,0,0,.384.02h.384a2.788,2.788,0,0,0,.4-.02h.4a2.591,2.591,0,0,1,.384-.02l.1-.02h.1l3.052-.445.081-.04L11.62,2.2,14.752.99l.04-.04.061-.02L15.722.4l.445-.344q.081,0,.02-.061h-.04L14.975.344l-.1.04-2.789.687h-.162L7.861,1.6l-.081.02-.505.02a2.4,2.4,0,0,1-.364.02l-.768.04a2.4,2.4,0,0,1-.364.02H5.4a2.224,2.224,0,0,1-.344.02L4,1.718,3.84,1.7H3.658q-.424-.04-.626-.04l-1.7-.323-.061-.02-.04-.02-.3-.1L.768,1.111l-.081-.02L.546,1.031.465,1.01.4.97.141.829.1.788.061.768Q.04.748,0,.788Z" transform="translate(0 0)" fill="#231915"/>
            </g>
          </g>
          <g id="Group_53222" data-name="Group 53222" transform="translate(14.773 0)">
            <g id="Group_53221" data-name="Group 53221" transform="translate(0 0)">
              <path id="Path_45296" data-name="Path 45296" d="M.263,0,.182.02h-.1L.04.04,0,.081.02.1.1.141h.04l.02.02L.3.2l.3.121.323.2.04.04.04.02.02.02h.02l.243.263a.5.5,0,0,1,.121.222v.02l.02.04v.061l.02.061V1.7q-.02,0-.02.081l-.081.364V2.2l-.02.04v.04q-.04.04.02.04l.04-.02.1-.1.04-.061.121-.222.02-.061L1.758,1.7l.02-.061.04-.323V1.152L1.778.97A1.016,1.016,0,0,0,1.637.647L1.394.384,1.314.323,1.273.3l-.02-.02L1.172.243,1.111.2.829.081.768.061H.707L.566.02h-.1L.344,0Z" transform="translate(0 0)" fill="#231915"/>
            </g>
          </g>
          <g id="Group_58183" data-name="Group 58183" transform="translate(3.743 2.783) rotate(6)">
            <g id="Group_58182" data-name="Group 58182" transform="translate(0 0)">
              <g id="Group_58181" data-name="Group 58181" transform="translate(-0.242 0.056) rotate(-3)">
                <path id="Path_48193" data-name="Path 48193" d="M10.3,0A6.8,6.8,0,0,0,7.359.75,8.916,8.916,0,0,0,4.63,2.571q.157-.642-1.317-.9a6.5,6.5,0,0,0-3.607.91c1.8,2.69,6.6,2.631,9.381.632C10.8,1.967,11.284.444,10.3,0Z" transform="translate(0 0)" fill="#e55763"/>
              </g>
            </g>
          </g>
        </g>
        <g id="Group_53228" data-name="Group 53228" transform="translate(49.07 79.737)">
          <g id="Group_53225" data-name="Group 53225" transform="translate(0.692 1.037)">
            <g id="Group_53224" data-name="Group 53224" transform="translate(0 0)">
              <path id="Path_45297" data-name="Path 45297" d="M3.17.749H3.112L3.054.778H3L2.939.807h-.49V.836H2.305L1.931.951a1.862,1.862,0,0,0-.547.231l-.259.173a.847.847,0,0,0-.231.2l-.115.115-.2.259-.259.432-.173.461-.086.432L0,4.639l.029.086v.086l.029.058v.144l.029.144L.144,5.3.2,5.59l.346.778L1.037,7l.346.346.547.375.519.231.778.2h.288A.051.051,0,0,0,3.573,8.1l-.72-.749-.086-.115-.115-.115-.086-.144-.058-.058-.029-.058-.115-.144-.029-.086-.058-.086-.029-.058L2.19,6.4l-.029-.086L2.1,6.253l-.231-.692-.086-.4-.029-.086V4.985L1.729,4.87V4.524L1.7,4.466l.029-.951.029-.086V3.343l.086-.259V3l.086-.231.029-.058.058-.058.029-.086.086-.115.058-.058.029-.058.231-.2.144-.086.086-.029.058-.029V1.959h.029l.058-.029h.029l.288-.144.086-.058.115-.058.086-.058L3.6,1.441l.058-.029.029-.058.173-.259L3.919.922,3.948.893V.864L4.005.692V.576L4.034.432,4.005.346V.173L3.948.058,3.89,0,3.861.029,3.8.144,3.6.432a.7.7,0,0,1-.317.259Z" fill="#b78871"/>
            </g>
          </g>
          <g id="Group_53227" data-name="Group 53227" transform="translate(0 0)">
            <g id="Group_53226" data-name="Group 53226">
              <path id="Path_45298" data-name="Path 45298" d="M4.639.231l-.115-.2L4.466,0,4.438.029,4.409.259V.375L4.38.49V.864L4.351.922,4.293.98v.029l-.173.173-.058.029-.029.029-.058.029H3.948L3.919,1.3,3.8,1.354l-.086.029-.144.029-.086.029H3.4l-.144.029H3.112L3.083,1.5H2.766l-.058.029a2.4,2.4,0,0,0-.951.288l-.4.288-.346.317-.144.173-.058.115L.72,2.8v.029H.692q.028,0,0,.029v.029l-.058.086-.058.115-.029.029-.086.173L.4,3.371.231,3.8l-.2.778V4.7L0,4.9v.749l.029.144v.086l.029.115v.115l.115.547.259.634.058.115.058.086a2.824,2.824,0,0,0,.547.72l.086.086.086.058.173.144.058.029.029.029.086.058.4.2.086.058.058.029h.058l.692.231H3l.605.086h.4l.2-.029.058-.058-.029-.029-.864-.432-.086-.058L3.2,8.587l-.058-.058L3.054,8.5l-.086-.058L2.91,8.385l-.086-.058L2.766,8.3l-.144-.115-.058-.029-.346-.317L2.19,7.78,1.959,7.55l-.029-.086L1.758,7.2l-.029-.058-.086-.231a2.529,2.529,0,0,1-.173-.576l-.086-.49.029-.98.029-.086V4.726l.029-.058V4.553L1.5,4.5l.231-.663L1.758,3.8V3.775l.029-.058.058-.086.029-.058.173-.259.4-.432L2.565,2.8h.029l.029-.029.231-.115h.029l.029-.029h.058L3,2.593l.317-.086h.029L3.4,2.478l.2-.058.115-.058L3.8,2.305l.115-.029.2-.115L4.5,1.844l.086-.086.058-.115L4.7,1.556l.029-.029V1.5l.029-.058A1.081,1.081,0,0,0,4.87.951V.864L4.726.432,4.668.317Z" fill="#84553e"/>
            </g>
          </g>
        </g>
        <g id="Group_53245" data-name="Group 53245" transform="translate(29.965 68.066) rotate(1.949)">
          <g id="Group_53234" data-name="Group 53234" transform="translate(39.396 0.105)">
            <g id="Group_53233" data-name="Group 53233" transform="matrix(0.999, 0.044, -0.044, 0.999, 0.425, 0)">
              <g id="Group_53230" data-name="Group 53230" transform="translate(0 0)">
                <g id="Group_53229" data-name="Group 53229">
                  <path id="Path_45299" data-name="Path 45299" d="M7.438,4.855a5.481,5.481,0,0,0-1.1-3.444A3.211,3.211,0,0,0,3.719,0,3.259,3.259,0,0,0,1.081,1.411,5.544,5.544,0,0,0,0,4.855,5.466,5.466,0,0,0,1.081,8.28,3.247,3.247,0,0,0,3.719,9.709,3.2,3.2,0,0,0,6.339,8.28,5.4,5.4,0,0,0,7.438,4.855Z" fill="#231915"/>
                </g>
              </g>
              <g id="Group_53232" data-name="Group 53232" transform="translate(3.974 4.212)">
                <g id="Group_53231" data-name="Group 53231" transform="translate(0 0)">
                  <path id="Path_45300" data-name="Path 45300" d="M1.8,1.137A1.38,1.38,0,0,0,1.5.312.734.734,0,0,0,.862,0,.784.784,0,0,0,.239.349,1.416,1.416,0,0,0,0,1.21a1.247,1.247,0,0,0,.293.806.767.767,0,0,0,.659.33.726.726,0,0,0,.6-.366A1.3,1.3,0,0,0,1.8,1.137Z" fill="#fff"/>
                </g>
              </g>
            </g>
          </g>
          <g id="Group_53236" data-name="Group 53236" transform="translate(32.114 -0.996)">
            <g id="Group_53235" data-name="Group 53235" transform="translate(0 0)">
              <path id="Path_45301" data-name="Path 45301" d="M6.994.168,5.733.525,5.649.567,5.46.63l-1.6.883-1.03.841-.757.8-.42.546-.588.9L.353,6.179.1,7.124l-.084.567q-.042.042.021.042L.08,7.713.942,6.3,1,6.179l.715-.9.063-.063.042-.063.525-.567L2.413,4.5,2.5,4.434l.294-.294.168-.126.147-.147.168-.126.105-.105q.02,0,0,.021l.063-.063.189-.147.042-.021.042-.042,1.051-.673.105-.042.042-.042.168-.063L5.166,2.5l.21-.105L6.153,2.1,6.2,2.081l.757-.21.588-.105h.042l.063-.021L9.453,1.7l.946.147.105.042.126.021.042.021,1.156.4.105.063.21.084.084.063.21.105.189.126.105.042,1.786,1.366.21.21.084.063.126.147.147.126,2.081,2.354V7.1h.063V7.061l-.778-1.828-.084-.126-.084-.168-.042-.063L16.2,4.792l-.946-1.408L15.169,3.3l-.126-.189-.82-.862-1.009-.82-.231-.147L12.879,1.2,12.269.862,12.206.82,12.143.8,11.891.673,10.8.273,10.651.252A5.217,5.217,0,0,0,9.5.042L8.907,0,7.435.084,7.372.105H7.309L7.288.126Z" fill="#231915"/>
            </g>
          </g>
          <g id="Group_53242" data-name="Group 53242" transform="translate(7.309 0.357)">
            <g id="Group_53241" data-name="Group 53241" transform="translate(0 0)">
              <g id="Group_53238" data-name="Group 53238" transform="translate(0)">
                <g id="Group_53237" data-name="Group 53237">
                  <path id="Path_45302" data-name="Path 45302" d="M7.438,4.855a5.481,5.481,0,0,0-1.1-3.444A3.211,3.211,0,0,0,3.719,0,3.259,3.259,0,0,0,1.081,1.411,5.544,5.544,0,0,0,0,4.855,5.466,5.466,0,0,0,1.081,8.28,3.247,3.247,0,0,0,3.719,9.709,3.2,3.2,0,0,0,6.339,8.28,5.4,5.4,0,0,0,7.438,4.855Z" fill="#231915"/>
                </g>
              </g>
              <g id="Group_53240" data-name="Group 53240" transform="translate(3.974 4.213)">
                <g id="Group_53239" data-name="Group 53239" transform="translate(0 0)">
                  <path id="Path_45303" data-name="Path 45303" d="M1.8,1.137A1.38,1.38,0,0,0,1.5.312.734.734,0,0,0,.862,0,.784.784,0,0,0,.239.349,1.416,1.416,0,0,0,0,1.21a1.247,1.247,0,0,0,.293.806.767.767,0,0,0,.66.33.726.726,0,0,0,.6-.366A1.3,1.3,0,0,0,1.8,1.137Z" fill="#fff"/>
                </g>
              </g>
            </g>
          </g>
          <g id="Group_53244" data-name="Group 53244" transform="translate(0 0.42)">
            <g id="Group_53243" data-name="Group 53243" transform="translate(0.086 -0.996)">
              <path id="Path_45304" data-name="Path 45304" d="M2.245,2.837l-.063.084-.231.252L1.026,4.5l-.168.315-.042.063-.021.042-.021.021-.126.294-.084.126L.017,6.788q-.042.042.021.042L.08,6.809.248,6.62l.084-.126.694-.862L2.875,3.783l.042-.021.042-.042.252-.189.042-.042L3.3,3.468,4.472,2.69l.084-.042.021-.021.5-.252.126-.042.021-.021.715-.273.105-.021L6.111,2l.042-.021L7.2,1.744h.105L7.562,1.7h.231l.126-.021h.841l.063.021h.168l.126.021h.126l.462.084h.063l.063.021.252.042.126.042.694.168,1.345.525.105.063.105.042.105.063.063.021.042.042a9.192,9.192,0,0,1,.8.462l.715.5.084.084.105.063.084.084h.021l.21.189a.618.618,0,0,1,.168.147l.315.252.063.084.063.063.084.063.441.483.126.105.8,1.072.021.063.084.105.021.063.042.042.063.105.042.105.063.084.168.336.042.126.126.231.042.021q.063,0,.021-.042l-.021-.4L17.1,5.906l-.126-.294-1.009-1.7-.63-.736-.021-.042H15.3V3.11l-.988-.946-.063-.042L14.2,2.1l-.757-.567L12.227.862,11.954.757,11.828.694,10.315.21,10.168.189,10.1.168h-.063L9.306.042H9.159L8.549,0,7.078.105,7.036.126H6.994L6.931.147,6.637.189,5.271.63,4.893.8,4.64.946,4.577.967l-.084.042-.673.42-.042.042-.063.042q-.126.105-.4.315l-.21.147Z" fill="#231915"/>
            </g>
          </g>
        </g>
        <g id="Group_53248" data-name="Group 53248" transform="translate(64.686 56.632) rotate(20.423)">
          <g id="Group_53247" data-name="Group 53247" transform="translate(0 0)">
            <g id="Group_53246" data-name="Group 53246">
              <path id="Path_45305" data-name="Path 45305" d="M10.626.067Q6.423-.437.37,2.841-.576,4.27.9,4.985L2.514,4.27A27.835,27.835,0,0,1,6.633,3.009q6.683-1.471,11.349,1.072Q14.262.509,10.626.067Z" fill="#1d0d0c"/>
            </g>
          </g>
        </g>
        <g id="Group_53251" data-name="Group 53251" transform="matrix(-0.996, 0.089, -0.089, -0.996, 47.338, 66.103)">
          <g id="Group_53250" data-name="Group 53250" transform="translate(0 0)">
            <g id="Group_53249" data-name="Group 53249">
              <path id="Path_45306" data-name="Path 45306" d="M10.625,4.918q-4.2.5-10.255-2.774Q-.576.715.9,0L2.514.715A27.834,27.834,0,0,0,6.633,1.975Q13.315,3.447,17.981.9,14.261,4.476,10.625,4.918Z" fill="#1d0d0c"/>
            </g>
          </g>
        </g>
        <g id="Group_53253" data-name="Group 53253" transform="translate(18.707 46.538)">
          <g id="Group_53252" data-name="Group 53252" transform="translate(0 0)">
            <path id="Path_45307" data-name="Path 45307" d="M.8,7.724A55.718,55.718,0,0,0,.054,18.455q.12,1.706.263,3.132.02.04,0,.061a.381.381,0,0,1,.02.121l.344,2.95a35.838,35.838,0,0,0,1.374,6.123,13.449,13.449,0,0,0,1.091,2.566.235.235,0,0,1,.04.061.058.058,0,0,1,.02.04.018.018,0,0,1,.02.02q.121.141.222.243A.657.657,0,0,0,4.015,34q.566-.1.546-1.172L4.136,22.294q-.1-3.739-.869-13.257Q2.52-.2,2.4,0,1.792.873.8,7.724m75.217,2.87q.465-6.891.04-7.881-.081-.222-2.728,8.649Q70.6,20.516,69.754,24.174L67.147,34.379q-.243,1.031.283,1.253a.727.727,0,0,0,.626-.1q.1-.081.242-.182a.071.071,0,0,0,.061-.061l.061-.061a13.488,13.488,0,0,0,1.6-2.284,37.625,37.625,0,0,0,2.607-5.7l.95-2.809.061-.182-.02.02q.445-1.371.93-3.031A55.682,55.682,0,0,0,76.019,10.594Z" fill="#1d0d0c"/>
          </g>
        </g>
        <g id="Group_53260" data-name="Group 53260" transform="translate(0 0)">
          <g id="Group_53255" data-name="Group 53255" transform="translate(0.254 0)">
            <g id="Group_53254" data-name="Group 53254" transform="translate(0)">
              <path id="Path_45308" data-name="Path 45308" d="M28.211,5.8a6.7,6.7,0,0,0-2.076,1.132,4.253,4.253,0,0,0-1.566,3.658,5.414,5.414,0,0,0,.985,3.011,7,7,0,0,0,2.339,2.081,7.58,7.58,0,0,0-3.676-1.051,9.092,9.092,0,0,0-3.676,1.213q-.422-3.132-3.975-3.5a5.443,5.443,0,0,0-2.621.3,2.293,2.293,0,0,0-1.53,1.293,2.534,2.534,0,0,0-3.36,0,1.173,1.173,0,0,0-.387.525,2.9,2.9,0,0,0,.844,3.759.753.753,0,0,0,.6.182,1.975,1.975,0,0,1,1.038.485,4.362,4.362,0,0,0,.457,1.617q2.164,4.244,6.438,3.961l.211,1.94a3.554,3.554,0,0,1-1.143-.707A4.273,4.273,0,0,0,14,24.373a6.058,6.058,0,0,0-5.611,3.5A3.8,3.8,0,0,0,6.91,26.778a2.662,2.662,0,0,0-2.427.162,4.114,4.114,0,0,0-2.04,4.446A5.355,5.355,0,0,0,3.9,34.559q2.058,2.162,4.186.243a6.093,6.093,0,0,0,.528.606,6.809,6.809,0,0,0,5.541,2.263,7.774,7.774,0,0,0-.95.424,8.918,8.918,0,0,0-2.832,2.364,13.845,13.845,0,0,0-1.829.364A5.3,5.3,0,0,0,4.94,43.592a6.737,6.737,0,0,0-.317,6.2,9.452,9.452,0,0,0-1.5.465,4.625,4.625,0,0,0-2.99,3.7A5.043,5.043,0,0,0,1.21,58.486a2.142,2.142,0,0,0-.827,2.081,2.3,2.3,0,0,0,1.231,1.94,1.319,1.319,0,0,0,1.3,0,2.132,2.132,0,0,0,.932-2.87l2.709-.626a9.785,9.785,0,0,0,.035,1.172A7.185,7.185,0,0,0,8.651,64.77,2.254,2.254,0,0,0,8,67.054a1.4,1.4,0,0,0,1.2,1.172q2.2.465,2.726-2l1.02-.02a6.277,6.277,0,0,0-1.126,6.305,3.4,3.4,0,0,0,.51.97,7.616,7.616,0,0,0,4.485,2.809,10.687,10.687,0,0,1-.616-5.173,1.948,1.948,0,0,0,.211.243,3.164,3.164,0,0,0,1.231.808,2.05,2.05,0,0,0,1.618-.182l3.272,6.2q-.422-1.859-1.055-7.659-.651-6.143-.862-7.74a4.373,4.373,0,0,0,.915-1.394,2.987,2.987,0,0,0,.193-1.455,5.588,5.588,0,0,0-1.935-3.658,3.76,3.76,0,0,0,.95-.2,1.417,1.417,0,0,0,.9-1.536,3.767,3.767,0,0,0-.475-1.657,5.468,5.468,0,0,0,4.573-1.213A7.823,7.823,0,0,0,28.668,46.2l2.762.465q-.018.4-.018.808a7.379,7.379,0,0,0,.563,2.95,3.712,3.712,0,0,0-1.618,1.8,5.1,5.1,0,0,0-.246,3.537,1.409,1.409,0,0,0-1.478-.162q-1.583.728-.862,2.607a1.513,1.513,0,0,0,1,1.01q2.04.647,2.392-1.778a3.646,3.646,0,0,0,1.354.869,3.71,3.71,0,0,0,3.782-.748,4.236,4.236,0,0,0,1.46-4.224l.633-.04A6.765,6.765,0,0,0,42.9,50l.493-2.284q.6.505,1.249.97a4.279,4.279,0,0,0,3.448.849l.176.647a14.572,14.572,0,0,0-1.777,1.091,1.988,1.988,0,0,0-.774,1.718Q45.7,55.9,48.088,56.2a1.816,1.816,0,0,0-.106.707q.123,2,1.865,2.1a1.549,1.549,0,0,0,1.319-.728,2.088,2.088,0,0,0-.352-3.213l.827-2.425a6.554,6.554,0,0,0,4.538-.667,3.327,3.327,0,0,0,1.829-2.526,6.693,6.693,0,0,0,3.624-1.536,11.724,11.724,0,0,0,1.3-1.314,4.828,4.828,0,0,0,1.108-3.759l.88-.121q.264.586.563,1.172a2.55,2.55,0,0,0,1.249,1.192,8.413,8.413,0,0,0,5.541.182l.792,1.213a7.463,7.463,0,0,0-.756.788,5.48,5.48,0,0,0-.9,1.5,6.3,6.3,0,0,0,.035,4.668,4.4,4.4,0,0,0,.51,1.01A7.349,7.349,0,0,0,74.1,56.626a3.361,3.361,0,0,0,4.433-.1q0,.364-.035.748a3.671,3.671,0,0,0,.756,2.688,4.494,4.494,0,0,0,3.764,1.879,2.2,2.2,0,0,0,1.231-.4,3.839,3.839,0,0,1,.9-.546q1,16.086,2.181,16.409.774.2,2.762-3.961,1-2.081,1.97-4.123a4.149,4.149,0,0,0,3.377.384,3.648,3.648,0,0,0,2.04-1.637l1.478,1.778.9-1.152a1.715,1.715,0,0,0,.281-.707,7.133,7.133,0,0,0-.932-4.709l.633-.445a4.911,4.911,0,0,0,1.2,1.435,4.394,4.394,0,0,0,1.97.95,3.827,3.827,0,0,0,4.134-2.526,4.071,4.071,0,0,0,.018-3.557q-1.372-2.95-4.222-2.587a4.965,4.965,0,0,0-.475-2.627,4.9,4.9,0,0,0-3.606-2.971,4.907,4.907,0,0,0,1.091-1.374,7.228,7.228,0,0,0,.809-2.849,4.9,4.9,0,0,0,1.39-.323,6.234,6.234,0,0,0,1.952-1.233,5.7,5.7,0,0,0,1.513.93,3.193,3.193,0,0,0,2.339.04,3.266,3.266,0,0,0,2.181,1.516,3.166,3.166,0,0,0,2.463-.869,2.9,2.9,0,0,0,.9-1.96q.176-2.526-2.093-2.789a4.809,4.809,0,0,0-.229-3.355,3.234,3.234,0,0,0-.809-1.172,4.5,4.5,0,0,0-5.541-.768q-.7-.909-1.46-1.718a1.824,1.824,0,0,0-.774-.465,8.088,8.088,0,0,0-5.822.768.918.918,0,0,0,.088-.97,1.78,1.78,0,0,0-.6-.808,6.535,6.535,0,0,0,3.043-.93,4.177,4.177,0,0,0,1.671-1.8,1.162,1.162,0,0,0,1.354-.02,1.61,1.61,0,0,0,.668-2.021,1.639,1.639,0,0,0-1.917-1.354,3.464,3.464,0,0,0-.9-1.233,4.571,4.571,0,0,0-5.084-.647A16.7,16.7,0,0,0,93.4,24.111a5.7,5.7,0,0,0-3.483-1.01,5.02,5.02,0,0,0,.053-2.728,3.027,3.027,0,0,0-.352-.808,3.474,3.474,0,0,0-3.36-1.738L87.4,16.411a3.187,3.187,0,0,0,2.005.829,3.9,3.9,0,0,0,2.639-.687A3.527,3.527,0,0,0,94.6,19.139q1.618.384,1.812-1.556a2.131,2.131,0,0,0-1.39-2.526,3.609,3.609,0,0,0-.739-3.011,5.115,5.115,0,0,0-5.893-2,6.446,6.446,0,0,0-4.4-4,6.312,6.312,0,0,0-6.42,1.94,8.035,8.035,0,0,0-5.646-1.213,8.3,8.3,0,0,0-1.425.364,4.639,4.639,0,0,0-2.392,2.445q-.3-.364-.6-.687a5.854,5.854,0,0,0-3.624-1.96,5.17,5.17,0,0,0,.51-3.476Q63.761.062,60.682,0q-3.465-.081-4.5,3.6-.58.04-1.161.1a7.072,7.072,0,0,0-5.752,3.819A5.375,5.375,0,0,0,47,5.7a8.119,8.119,0,0,0-2.2-.647,6.034,6.034,0,0,0-5.857,2.87A3.654,3.654,0,0,0,36.478,7.2a3.175,3.175,0,0,0-2.357,1.556,2.959,2.959,0,0,0-.493-.667,9.678,9.678,0,0,0-2.322-1.859A3.746,3.746,0,0,0,28.211,5.8Z" fill="#1d0d0c"/>
            </g>
          </g>
          <g id="Group_53257" data-name="Group 53257" transform="translate(2.907 13.643)">
            <g id="Group_53256" data-name="Group 53256" transform="translate(0 0)">
              <path id="Path_45309" data-name="Path 45309" d="M9.921,41.327a6.3,6.3,0,0,0-2.164,3.456q-.809,3.759.58,5.78A3.058,3.058,0,0,0,9.9,51.835a3.643,3.643,0,0,1,.334-1.334q-1.865-1.455-.967-4.486a18.373,18.373,0,0,1,4.2-6.649,9.9,9.9,0,0,0-3.553,1.96m4.222,21.26a12.121,12.121,0,0,1-.51-2.647,20.191,20.191,0,0,1-.053-3.84l-2.99-2.769a6.037,6.037,0,0,0-.018,5.113,8.754,8.754,0,0,0,3.571,4.143m3.606-24.392.158.707a7.206,7.206,0,0,1,.106,1.536q-.141,2.243-2.128,2.243.211.2.774.687a4.888,4.888,0,0,1,.932,1.5,6.848,6.848,0,0,1,.352,4.466,4.405,4.405,0,0,0,1.143-1.98q.686-2.4-1.548-4.547,1.5-.4,1.794-1.314a3.128,3.128,0,0,0-.264-2.041,3.272,3.272,0,0,0,2.674-.1A5.869,5.869,0,0,0,24.644,37a12.077,12.077,0,0,0,1.513-6.487l-.229-3.375q.229,5.416-1.741,8.286a7.384,7.384,0,0,1-2.392,2.385,5.937,5.937,0,0,1-4.046.384M15.6,22.654q3.412,2.041,5.7,1.253,2.252-.768,3.289-4.264-2.6,5.214-8.848,2.142-3.87,1.738-6.4.95a10.43,10.43,0,0,1-3.975-2.081Q1.952,22.573,0,18.733q.668,3.092,2.691,3.435A3.018,3.018,0,0,0,5.312,21.4,6.166,6.166,0,0,0,9.85,24.008,8.974,8.974,0,0,0,15.6,22.654M40.721,34.072A9.294,9.294,0,0,0,42.3,31.465q-.176.162-.915,1.051a3.529,3.529,0,0,1-1.055.93,5.87,5.87,0,0,1-2.392,4.183,5.2,5.2,0,0,1-3.325,1.253q-.387,5.941-5.277,5.5a2.891,2.891,0,0,0,2.287.566,5.123,5.123,0,0,0,3.061-1.677,6.621,6.621,0,0,0,.985-3.334,8.235,8.235,0,0,0,4.046-2.445,4.886,4.886,0,0,0,1-3.415M93.878,49.915q-1.865.384-2.938.505a11.849,11.849,0,0,0,2.674-.02,7.051,7.051,0,0,0,3.43-1.132,3.585,3.585,0,0,0,3.448,2.324,4.33,4.33,0,0,0,3.113-1.111,5.469,5.469,0,0,0,1.179-1.98,5.617,5.617,0,0,0,.176-1.415q-.088,2.1-3.342,2.95-3.36.849-4.661-2.668a4.719,4.719,0,0,1-3.078,2.546M69.287,31.829a4.251,4.251,0,0,0,2.058-1.394q-3.606,1.415-5.295,1.213-2.076-.263-3.395-2.93-.422.061-1.6.121a9.328,9.328,0,0,1-1.882,3.981,6.163,6.163,0,0,1-4.222,2.243,6.344,6.344,0,0,1-4.274,3.658,10.191,10.191,0,0,1-2.04.364l-.862.02,1.038.141a11.523,11.523,0,0,0,2.375-.04q3.553-.465,4.257-3.254A6.8,6.8,0,0,0,61.565,29.3q.018,0,.475-.121.281-.081.3,0a4.417,4.417,0,0,0,1.706,2.486,5.8,5.8,0,0,0,2.726.626,6.16,6.16,0,0,0,2.515-.465M85.822,0q-1,1.819-1.126,2.021a5.663,5.663,0,0,1-1.724,1.758q-2.6,1.556-7.37-1.091a5.866,5.866,0,0,1-1.249,2.95,8.736,8.736,0,0,1-2.867,1.7,14.911,14.911,0,0,0,2.762-.707,2.746,2.746,0,0,0,1.9-2.223,8.162,8.162,0,0,0,2.111.869,6.574,6.574,0,0,0,2.322.263Q84.837,5.093,85.822,0m12.3,33.162a7.629,7.629,0,0,0,1.583-.485,6.068,6.068,0,0,0,1.794-1.031,3.447,3.447,0,0,0,1.442.869,3.949,3.949,0,0,0,2.357.121q1.583,2.162,3.711,1.152a3.137,3.137,0,0,0,1.39-1.233,2.585,2.585,0,0,0,.44-1.738,4.661,4.661,0,0,1-2.515,2.041,2.694,2.694,0,0,1-2.515-1.152,2.966,2.966,0,0,1-2.674-.061,2.572,2.572,0,0,1-1.038-.808,2.7,2.7,0,0,1-.475-.889q.018.505-1.372,1.455a4.364,4.364,0,0,1-3.043.869A5.632,5.632,0,0,1,94.81,36.78q-2.181,1.455-6.684.445a10.479,10.479,0,0,0,5.031,1.152q4.292-.182,4.96-5.214m.246-16.046a.994.994,0,0,0,1.3,0,1.648,1.648,0,0,0,.51-.586,2.447,2.447,0,0,1-.633.222,1.648,1.648,0,0,1-1.266-.162,5.532,5.532,0,0,1-3.166,2.364,9.322,9.322,0,0,1-2.955-.081,5.437,5.437,0,0,1-1.566,2.607q-.9.566-3.166-.02a3.117,3.117,0,0,1-2.9,1.8,9.355,9.355,0,0,1-2.867-.93l.633.465a7.258,7.258,0,0,0,1.566.768,3.166,3.166,0,0,0,3.94-1.132,4.111,4.111,0,0,0,3.694-.121,3.307,3.307,0,0,0,1.337-2.668,3.752,3.752,0,0,0,3.272-.283A4.769,4.769,0,0,0,98.363,17.117Z" transform="translate(0 0)"/>
            </g>
          </g>
          <g id="Group_53259" data-name="Group 53259" transform="translate(0 5.593)">
            <g id="Group_53258" data-name="Group 53258" transform="translate(0 0)">
              <path id="Path_45310" data-name="Path 45310" d="M10.189,49.7l-1.372.768a3.817,3.817,0,0,0-1.653,1.778A10.293,10.293,0,0,0,6.6,54.994a6.182,6.182,0,0,0,.7,2.243q1.372,2.809,3.94,2.263a6.138,6.138,0,0,1-1.055-9.8M14.71,62.492a3.73,3.73,0,0,0,.58,1.778,13.73,13.73,0,0,0,1.266,1.516,2.852,2.852,0,0,0,1.935.93,4.367,4.367,0,0,0,1.741-.2q-4.82-1.8-3.817-4.729-3.87-.1-2.076-3.981-3.043-.566-.352-6.79l-.7.748a9.805,9.805,0,0,0-1.249,1.879q-1.5,3.031.756,5.032a3.079,3.079,0,0,0-.088,1.859,2.328,2.328,0,0,0,2.005,1.96M34.2,45.011a7.88,7.88,0,0,1-1.108-5.194q.58-2.769,4.292-5.962a7.887,7.887,0,0,0-4.89,3.638q-1.53,2.87-.211,7.4a5.311,5.311,0,0,0-1.618,1.617,5.012,5.012,0,0,0-.193,3.779,1.614,1.614,0,0,0-1.935-.081,1.347,1.347,0,0,0-.651,1.5,1.42,1.42,0,0,1,1.3-.909,7.744,7.744,0,0,1,2.2.586,5.79,5.79,0,0,1-.053-2.566,7.307,7.307,0,0,1,2.867-3.8m-16.183-13.8a11.866,11.866,0,0,0-2.92.505,8.033,8.033,0,0,0-4.626,3.092,5.676,5.676,0,0,0-5.224,2.769,6.682,6.682,0,0,0-.317,6.588A5.029,5.029,0,0,0,.55,47.194a4.558,4.558,0,0,0,.844,5.456,2.348,2.348,0,0,0-.7.748,1.886,1.886,0,0,0-.246,1.031,2.8,2.8,0,0,0,1.284,2.486,1.437,1.437,0,0,0,1.6-.121q-1.812-.141-2.04-1.6-.246-1.475,1.478-2.263a7.1,7.1,0,0,1-.932-3.759q.141-3.759,5.594-3.678a6.1,6.1,0,0,1-1.566-3.4,4.951,4.951,0,0,1,.58-3.052,4.33,4.33,0,0,1,2.111-1.94,3.754,3.754,0,0,1,2.885-.061q.106-2.95,6.579-5.84m1.97-9.4q-.88-2.243-4.96-3.031T8.659,22.216A3.886,3.886,0,0,0,6.53,20.983a2.883,2.883,0,0,0-2.093.4,3.567,3.567,0,0,0-1.319,1.394,4.748,4.748,0,0,0-.4,1.839Q4.138,22.2,6,22.458A4.9,4.9,0,0,1,8.729,24.1q2.41-3.84,6.086-3.739t5.171,1.455m8.76-11.095a22.136,22.136,0,0,1,7.616,4.345,13.058,13.058,0,0,0-6.631-5.78,9.069,9.069,0,0,0-7.828.525,3.367,3.367,0,0,0-1.038-1.819,6.179,6.179,0,0,0-2.287-1.576q-3.448-1.394-5.928,1.738Q12,7.1,10.382,7.645a2.54,2.54,0,0,0-1.741,2.708A3.949,3.949,0,0,1,9.925,8.939q1.513-.97,2.639,1.192,2.058-3.4,5.259-2.263a5.952,5.952,0,0,1,2.357,1.6,5.974,5.974,0,0,1,1.442,2.4,8.128,8.128,0,0,1,7.124-1.152M54.3,33.573q-2.9-.808-4.028.606-1.073,1.314-.827,5.032a2.519,2.519,0,0,0-.633.566,3.292,3.292,0,0,0-.756,1.516,5.086,5.086,0,0,0,.053,2.425,4.08,4.08,0,0,0,.422.93,4.227,4.227,0,0,0-2.005,1.091,2.6,2.6,0,0,0-.563,1.718,4.031,4.031,0,0,0,.545,2.3,2.3,2.3,0,0,0,1.741.99,2.088,2.088,0,0,0-.158.586,1.218,1.218,0,0,0,.018.566,2.393,2.393,0,0,0,1.214,1.455,2.261,2.261,0,0,0,1.653-.02q-1.618-.061-1.917-.93a3.472,3.472,0,0,1,.211-1.9q-2.48-1.374-1.513-3.537a3.373,3.373,0,0,1,1.161-1.415,2.344,2.344,0,0,1,1.513-.525,3.442,3.442,0,0,1-.686-3.739A5.666,5.666,0,0,1,50.435,40q.229-.323.387-.505a7.5,7.5,0,0,1-.211-3.052q.44-3.011,3.694-2.87M72.827,45.941a8.8,8.8,0,0,1,.809-4.082,4.025,4.025,0,0,1,2.111-2.364,5.4,5.4,0,0,0-3.518,1.879A5.091,5.091,0,0,0,70.91,45.5a7.422,7.422,0,0,0,2.92,5.355q2.586,1.96,4.8.141a6.2,6.2,0,0,0-.035.889,4.754,4.754,0,0,0,.633,2.587,5.288,5.288,0,0,0,1.689,1.314q3.025,1.677,4.872-1.152a5.456,5.456,0,0,1-3.325.505q-3.325-.546-3.307-6-.141-.061-.352.788a5.187,5.187,0,0,0-.158.97,5.264,5.264,0,0,1-4.433-1.233,5.4,5.4,0,0,1-1.39-3.718m28.039-23.806a1.243,1.243,0,0,1,1.759.3,3.142,3.142,0,0,1,.457,1.92,2.176,2.176,0,0,0,.193-2.1,1.636,1.636,0,0,0-1.847-1.152,3.726,3.726,0,0,0-2.111-2.061,4.75,4.75,0,0,0-3.923.222,5.311,5.311,0,0,0-4.011-1.778l-2.445.162q-.967-1.94-3.536-1.415A4.1,4.1,0,0,0,83.7,17a1.294,1.294,0,0,0-.633,1.152,3.48,3.48,0,0,0-3.694.3q-2.2,1.334-1.231,4,.281-2.546,1.882-3.294a3.33,3.33,0,0,1,3.465.707,3.361,3.361,0,0,1,.756-1.758,2.638,2.638,0,0,1,1.425-.889q1.97-.445,2.463,2.223a5.13,5.13,0,0,1,6.9,1.071,4.3,4.3,0,0,1,3.518-.647,3.6,3.6,0,0,1,2.322,2.263M69.432,2.411a9.066,9.066,0,0,0-1.671,3.274q-.246.849-1,4.042,2.04-5.376,4.362-6.568,2.427-1.213,7.388.829,1.952-2.87,4.644-2.324,2.551.525,5.048,3.9,1.284-1.01,3.8.323,2.674,1.415,2.41,3.84a2.063,2.063,0,0,1,1.618,1.435,2.534,2.534,0,0,1-.369,2.4q.915-.2,1.038-1.718A2.138,2.138,0,0,0,95.254,9.5q.563-2.263-1.935-4.082a4.717,4.717,0,0,0-4.644-.95A4.21,4.21,0,0,0,88.253,3.1a3.258,3.258,0,0,0-.862-1.091q-2.814-2.122-4.837-2Q80.76.128,77.981,2.27,71.983-.418,69.432,2.411Z" fill="#473432"/>
            </g>
          </g>
        </g>
        <g id="Group_53262" data-name="Group 53262" transform="translate(54.733 103.106)">
          <g id="Group_53261" data-name="Group 53261" transform="translate(0 0)">
            <path id="Path_45311" data-name="Path 45311" d="M2.425,1.819v.606h.606m-.606,0v.606M4.85,2.425,2.425,4.85,0,2.425,2.425,0Zm-3.031,0h.606" fill="none" stroke="rgba(0,0,0,0)" stroke-linecap="round" stroke-linejoin="round" stroke-width="0.082"/>
          </g>
        </g>
      </g>
      <g id="Group_53268" data-name="Group 53268" transform="matrix(-0.891, -0.454, 0.454, -0.891, 36.731, 101.596)">
        <g id="Group_53265" data-name="Group 53265" transform="matrix(1, 0.01, -0.01, 1, 0.187, 0)">
          <g id="Group_53264" data-name="Group 53264" transform="translate(0 0)">
            <path id="Path_45312" data-name="Path 45312" d="M8.976,15.594q-2.235-.741-3.149,0a3.864,3.864,0,0,0,2.217,2.87q4.084,1.591,5.082-.455l-4.15-2.415m-6.712.586q.94-1.952-1.078-3.218Q.665,12.877.124,14.128T1.4,16.844l.449-.039a2.942,2.942,0,0,0,.414-.625m.561-.255a.909.909,0,0,0-.147.478v.309a1.388,1.388,0,0,0,.233.733,6.76,6.76,0,0,0,.44.571,3.875,3.875,0,0,0,.569.656,1.443,1.443,0,0,0,.138.108,1.871,1.871,0,0,0,.336.185,2.608,2.608,0,0,0,1.044.208,3.521,3.521,0,0,0,1.76-.255,4.9,4.9,0,0,1-2.347-3.287,2.318,2.318,0,0,0-2.028.293M14.61,11.582q.82-1.443-.707-1.466-2.882-.409-4.668,4.66A23.92,23.92,0,0,0,14.179,17.4a6.583,6.583,0,0,0,4.97-2.284Q20.978,1.289,12.2,0C7.97.1.155,5.452.3,9.575s2.07,3.967,2.07,3.967L3.4,14.992q.44-.085.88-.154t.88-.108a16.353,16.353,0,0,1,3-.062q.544.031,1.07.108.707-4.305-4.392-3.356a5.52,5.52,0,0,0,1.009-.386,12.362,12.362,0,0,0,1.432-.856,9.4,9.4,0,0,0,3.348-4.1,4.078,4.078,0,0,1,1.536-3.364q-1.346,2.947,1.165,6.628,3.934-.039,1.51,3.534l2.166,2.122-3.477-1.667A17.431,17.431,0,0,0,14.61,11.582Z" fill="#a56b4e"/>
            <path id="Path_45313" data-name="Path 45313" d="M11.941,15.3a5.7,5.7,0,0,0,1.053-.61A23.921,23.921,0,0,1,8.05,12.068q-.526-.077-1.07-.108a16.353,16.353,0,0,0-3,.062q-.44.039-.88.108a1.848,1.848,0,0,1-.875.02C1.894,12.056,1.431,10.91.877,10.4S0,10.254,0,10.254q2.019,1.265,1.078,3.218a2.942,2.942,0,0,1-.414.625l-.449.039a1.25,1.25,0,0,1,.6.347,3.374,3.374,0,0,0,1.355.826,6.76,6.76,0,0,1-.44-.571A1.388,1.388,0,0,1,1.493,14V13.7a.909.909,0,0,1,.147-.478,2.318,2.318,0,0,1,2.028-.293,4.9,4.9,0,0,0,2.347,3.287,4.534,4.534,0,0,0,.846-.455,3.864,3.864,0,0,1-2.217-2.87q.915-.741,3.149,0l4.15,2.415m.777-7.893q1.527.023.707,1.466a17.431,17.431,0,0,1-1.078,1.744l3.477,1.667-2.166-2.122q2.424-3.572-1.51-3.534Q9.637,2.947,10.983,0A4.078,4.078,0,0,0,9.447,3.364,9.4,9.4,0,0,1,6.1,7.469a12.362,12.362,0,0,1-1.432.856,5.52,5.52,0,0,1-1.009.386q5.1-.949,4.392,3.356Q9.836,7,12.717,7.407Z" transform="translate(1.185 2.708)" fill="#84553e"/>
          </g>
        </g>
        <g id="Group_53267" data-name="Group 53267" transform="matrix(1, 0.01, -0.01, 1, 9.314, 2.779)">
          <g id="Group_53266" data-name="Group 53266" transform="translate(0 0)">
            <path id="Path_45314" data-name="Path 45314" d="M1.035.694V.926h.259m-.259,0v.231M2.071.926l-1.035.926L0,.926,1.035,0ZM.777.926h.259" fill="none" stroke="rgba(0,0,0,0)" stroke-linecap="round" stroke-linejoin="round" stroke-width="0.033"/>
          </g>
        </g>
      </g>
    </g>
  </g>
</svg>
