<svg xmlns="http://www.w3.org/2000/svg" xmlns:xlink="http://www.w3.org/1999/xlink" width="375" height="270" viewBox="0 0 375 270">
  <defs>
    <clipPath id="clip-path">
      <rect id="Rectangle_4016" data-name="Rectangle 4016" width="375" height="270" transform="translate(10616 -12380)" fill="#fff" stroke="#707070" stroke-width="1" opacity="0.59"/>
    </clipPath>
    <linearGradient id="linear-gradient" x1="0.119" y1="0.51" x2="1.54" y2="0.389" gradientUnits="objectBoundingBox">
      <stop offset="0" stop-color="#bec0c2"/>
      <stop offset="0.341" stop-color="#fff"/>
      <stop offset="1" stop-color="#bec0c2"/>
    </linearGradient>
    <linearGradient id="linear-gradient-2" x1="0.417" y1="0.502" x2="0.708" y2="0.495" gradientUnits="objectBoundingBox">
      <stop offset="0" stop-color="#d2d4d5"/>
      <stop offset="1" stop-color="#fff"/>
    </linearGradient>
  </defs>
  <g id="Mask_Group_16470" data-name="Mask Group 16470" transform="translate(-10616 12380)" clip-path="url(#clip-path)">
    <g id="todller_boy_DS_5" data-name="todller boy DS 5" transform="translate(10720.748 -12359.5)">
      <g id="Group_52964" data-name="Group 52964" transform="translate(34.54 123.394) rotate(8.098)">
        <g id="Group_52956" data-name="Group 52956" transform="translate(0 29.942)">
          <g id="Group_52955" data-name="Group 52955" transform="translate(0 0)">
            <path id="Path_45121" data-name="Path 45121" d="M1.522,6.178Q.907,7.451.411,8.523L.082,9.2q-.037.1-.082.226a27.525,27.525,0,0,0,5.183,5.266q.811.6,2.448,1.666Q9.76,17.754,10.943,18.4A14.964,14.964,0,0,0,14.5,19.815a3.087,3.087,0,0,1,.021,1.563,7.815,7.815,0,0,1-.494,1.44q-1.336,3.029-2.715,5.965a.287.287,0,0,1,.041-.041l1.131-1.584.72-1.07q1.266-1.875,2.139-3.271a1.194,1.194,0,0,0,.082-.123,31.716,31.716,0,0,0,1.707-2.941,85.905,85.905,0,0,0,3.147-8.845q.454-1.383-1.748-3.846a25.347,25.347,0,0,0-5.225-4.32A18.682,18.682,0,0,0,7.508.151q-2.833-.584-3.62,1.09Z" transform="translate(5.539 0)" fill="#84553e"/>
            <path id="Path_45122" data-name="Path 45122" d="M5.539,0q-.582,1.2-.946,2.057Q3.312,4.944,2.516,7.343A55.916,55.916,0,0,0,.171,15.879a15.271,15.271,0,0,0-.144,3.127,7.647,7.647,0,0,0,2.736,5.739A9.2,9.2,0,0,0,6.65,26.7,5.964,5.964,0,0,0,11.2,25.67a15,15,0,0,0,3.085-2.962q1.782-2.3,2.53-3.291h-.021q.031-.028.062-.062,1.379-2.936,2.715-5.965a7.815,7.815,0,0,0,.494-1.44,3.087,3.087,0,0,0-.021-1.563,14.964,14.964,0,0,1-3.558-1.419Q15.3,8.326,13.171,6.932q-1.637-1.064-2.448-1.666A27.525,27.525,0,0,1,5.539,0Z" transform="translate(0 9.428)" fill="#a56b4e"/>
          </g>
        </g>
        <g id="Group_52958" data-name="Group 52958" transform="translate(3.872 0.969)">
          <g id="Group_52957" data-name="Group 52957" transform="translate(0 0)">
            <path id="Path_45123" data-name="Path 45123" d="M18.616.429a13.191,13.191,0,0,0-4.834,2.365,16.377,16.377,0,0,0-3.394,3.517,26.12,26.12,0,0,0-3.127,6.85q-.669,2.217-1.769,7.24a54.477,54.477,0,0,1-1.851,6.932A17.779,17.779,0,0,1,.453,33.073,1.459,1.459,0,0,0,0,33.978a1.7,1.7,0,0,0,.411.884,23.229,23.229,0,0,0,2.1,2.3l.987.946q.892.822,1.707,1.563h.021a46.815,46.815,0,0,0,5.019,3.97,27.983,27.983,0,0,0,3.538,2.077,13.346,13.346,0,0,0,3.414.987,16.772,16.772,0,0,0,2.612.226,8.159,8.159,0,0,0,3.99-1.214q.253-2.156,1.358-7.22,1.106-5.043,1.666-9.05a103.025,103.025,0,0,0,.761-10.634,55.813,55.813,0,0,0-.823-12.177A21.7,21.7,0,0,0,26.1,3.8,16.689,16.689,0,0,0,26.062.347q-1.528-.733-7.446.082M8.825,10.035Q7.761,16.719,6.686,21.513,4.735,30.3,1.873,34.122a23.823,23.823,0,0,0,2.818,3.62l2.448,2.839Q1.13,35.817.618,33.957a20.5,20.5,0,0,1,1.358-2.139,14.81,14.81,0,0,0,2.139-4.052q.284-.871,2.057-7.919Q8.023,12.618,8.825,10.035Z" fill="#fc6"/>
            <path id="Path_45124" data-name="Path 45124" d="M6.068,11.478Q7.143,6.684,8.207,0q-.8,2.583-2.653,9.812Q3.781,16.859,3.5,17.731a14.81,14.81,0,0,1-2.139,4.052A20.5,20.5,0,0,0,0,23.922q.512,1.859,6.52,6.623L4.073,27.707a23.823,23.823,0,0,1-2.818-3.62Q4.118,20.265,6.068,11.478Z" transform="translate(0.618 10.035)" fill="#ffde9d"/>
          </g>
        </g>
        <g id="Group_52961" data-name="Group 52961" transform="translate(17.284 0)">
          <g id="Group_52960" data-name="Group 52960" transform="translate(0 0)">
            <g id="Group_52959" data-name="Group 52959">
              <path id="Path_45125" data-name="Path 45125" d="M11.766,0q.679,3.785,1.09,7.857.2,2.175.514,6.788a13.058,13.058,0,0,0-1.152-3.764,8.344,8.344,0,0,0-2.1-3q1.44,1.975,2.119,7.014a51.932,51.932,0,0,1,.267,10.49,68.708,68.708,0,0,1-2.448,12.362q-1.522,5.574-2.2,7.2a3.12,3.12,0,0,1-1.275,1.337,6.08,6.08,0,0,1-1.646.823A11.264,11.264,0,0,1,0,46.63q.993.285,12.506,3.332,4.079-1.628,3.456-6.191-.62-4.542-1.131-8.125a34.024,34.024,0,0,1-.267-6.623l2.9.8L21.474,15.16Z" fill="#d4a548"/>
            </g>
          </g>
        </g>
        <g id="Group_52963" data-name="Group 52963" transform="translate(22.159 6.13)">
          <g id="Group_52962" data-name="Group 52962" transform="translate(0 0)">
            <path id="Path_45126" data-name="Path 45126" d="M4.937,2.468,2.468,4.937,0,2.468,2.468,0Zm-1.851,0H2.468v.617m-.617-.617h.617V1.851" transform="translate(0 0)" fill="none" stroke="rgba(0,0,0,0)" stroke-linecap="round" stroke-linejoin="round" stroke-width="0.075"/>
          </g>
        </g>
      </g>
      <g id="Group_52969" data-name="Group 52969" transform="translate(64.743 106.953) rotate(-9.974)">
        <g id="Group_52966" data-name="Group 52966" transform="translate(0 0)">
          <g id="Group_52965" data-name="Group 52965">
            <path id="Path_45127" data-name="Path 45127" d="M18.882,2.243a22.936,22.936,0,0,1-4.958,1.44,21.378,21.378,0,0,1-3.621.185,20.688,20.688,0,0,1-3.786-.35A21.4,21.4,0,0,1,2.979,2.387,3.777,3.777,0,0,1,1.333,1.358a26.1,26.1,0,0,1,.062,3.374A29.1,29.1,0,0,1,1,7.982,8.267,8.267,0,0,1,.3,10.41q-.206.411-.247.514a.747.747,0,0,0-.021.514,1.536,1.536,0,0,0,.885.72,39.459,39.459,0,0,0,11.891,2.983,21.672,21.672,0,0,0,5.74-.123,11.281,11.281,0,0,0,4.156-1.584,4.328,4.328,0,0,0,1.769-1.975,5.284,5.284,0,0,0,.1-2.037l-.411-4.547q-.309-3.353-.288-4.732V0A45.39,45.39,0,0,1,18.882,2.243Z" transform="translate(2.911 17.322)" fill="#a56b4e"/>
            <path id="Path_45128" data-name="Path 45128" d="M28.48,8.434Q29.529,4.69,29.9,3.7q.309-.864-3.827-2.078A42.941,42.941,0,0,0,15.333.02,29.665,29.665,0,0,0,3.977,1.728a18.207,18.207,0,0,0-3,1.378q-1.049.638-.967.782Q.891,5.739,1.981,8.62A39.37,39.37,0,0,1,3.524,13.31a42.743,42.743,0,0,1,.72,5.37A3.777,3.777,0,0,0,5.89,19.709,21.4,21.4,0,0,0,9.429,20.84a20.688,20.688,0,0,0,3.786.35A21.378,21.378,0,0,0,16.835,21a22.936,22.936,0,0,0,4.958-1.44,45.39,45.39,0,0,0,5-2.243,24.442,24.442,0,0,1,.432-4.135Q27.43,12.117,28.48,8.434Z" fill="#84553e"/>
          </g>
        </g>
        <g id="Group_52968" data-name="Group 52968" transform="translate(12.515 27.938)">
          <g id="Group_52967" data-name="Group 52967" transform="translate(0 0)">
            <path id="Path_45129" data-name="Path 45129" d="M4.938,2.469,2.469,4.938,0,2.469,2.469,0Zm-1.852,0H2.469v.617m-.617-.617h.617V1.852" transform="translate(0)" fill="none" stroke="rgba(0,0,0,0)" stroke-linecap="round" stroke-linejoin="round" stroke-width="0.075"/>
          </g>
        </g>
      </g>
      <g id="Group_53002" data-name="Group 53002" transform="matrix(1, 0.009, -0.009, 1, 46.464, 125.367)">
        <g id="Group_52971" data-name="Group 52971" transform="translate(47.418 47.855)">
          <g id="Group_52970" data-name="Group 52970" transform="translate(0 0)">
            <path id="Path_45130" data-name="Path 45130" d="M24.219,10.215q-.062-1.437-.185-2.893A38.343,38.343,0,0,0,22.656,0q-.021.138-9.648,22.162c-6.9,15.811,3.287,17.413,10.881,17.565.151-1.417.118,2.182.31-7.606Q24.507,16.08,24.219,10.215Z" transform="translate(0)" fill="#2c3664"/>
          </g>
        </g>
        <g id="Group_52973" data-name="Group 52973" transform="translate(22.041 1.276)">
          <g id="Group_52972" data-name="Group 52972" transform="translate(0 0)">
            <path id="Path_45131" data-name="Path 45131" d="M14.586,4.577a25.162,25.162,0,0,0,3.58-.453A15.5,15.5,0,0,0,25.551.739a38.378,38.378,0,0,0-4.526-.59Q18-.068,13.6.031q-3.271.1-6.542.236L0,.562a11.033,11.033,0,0,0,1.09.945Q5.287,4.754,13.1,4.6Z" transform="translate(3.782 0)" fill="#a56b4e"/>
            <path id="Path_45132" data-name="Path 45132" d="M32.089.827A24.712,24.712,0,0,0,29.333.177a15.5,15.5,0,0,1-7.385,3.385,25.162,25.162,0,0,1-3.58.453l-1.481.02Q9.069,4.192,4.872.945A11.033,11.033,0,0,1,3.782,0L2.671.039A5.9,5.9,0,0,0,1.067.3,1.46,1.46,0,0,0,.017,1.417q-.144.768.905,1.771A20.338,20.338,0,0,0,6.395,7.007,25.107,25.107,0,0,0,11,8.542q1.687.394,4.793.886,1.769.276,2.654.374a17.5,17.5,0,0,0,7.673-.827,11.957,11.957,0,0,0,6.048-4.487q.35-.492.987-1.5a2.254,2.254,0,0,0,.411-.846.943.943,0,0,0-.494-.886A2.828,2.828,0,0,0,32.089.827Z" transform="translate(0 0.562)" fill="#84553e"/>
          </g>
        </g>
        <g id="Group_52976" data-name="Group 52976" transform="translate(0 1.465)">
          <g id="Group_52974" data-name="Group 52974" transform="translate(0 0)">
            <path id="Path_45133" data-name="Path 45133" d="M5.349,10.431q1.152-6.869,4.3-8.4Q2.942,3.444.864,5.078-.9,7.538.947,24.937q.535,2.283,1.317,5.216.864,3.129,1.234,4.527.267.984.453.63a3.431,3.431,0,0,0,.309-.669q.144-.433.391-1.2A5.035,5.035,0,0,0,4.814,32.1q-.679-14.446.535-21.67M66.243,2.893a39.593,39.593,0,0,0-2.736,12.459q-.665,7.773-.617,10.786-.1,2.3-.123,3.4-.021,1.968.453,2.342a4.7,4.7,0,0,1,1.111,1.437,6.959,6.959,0,0,1,.679,1.673q.35,1.4,1.317,12.557.845,10.016.946,8.739l.37-3.543q.8-7.617,2.325-17.064.761-4.724,1.378-7.932l.432-4.487.391-8.4q.247-8.68-.535-9.782a16.179,16.179,0,0,0-5.39-2.244v.059M52.994.354Q50.958.079,49.538,0q-.658,1.732-3.868,3.307A21.441,21.441,0,0,1,36.5,5.275H36a21.533,21.533,0,0,1-9.175-1.968Q23.617,1.732,22.959,0,21.313.079,18.8.433a71.309,71.309,0,0,0-.165,19.9q1.214,8.345,3.394,9.25,3.641,1.518,14.01,1.083,10.39-.419,11.541-1.5a4.673,4.673,0,0,0,1.09-3.641q-.058-2.542.741-11.356.817-8.8,3.58-13.817m-27.587,4.8a23.6,23.6,0,0,0,5,2.008A21.491,21.491,0,0,0,46.7,5.117,21.491,21.491,0,0,1,30.406,7.164a23.6,23.6,0,0,1-5-2.008,18.946,18.946,0,0,1-2.016-1.22A18.946,18.946,0,0,0,25.407,5.157Z" transform="translate(1.362 0)" fill="#fc6"/>
            <path id="Path_45134" data-name="Path 45134" d="M54.357,0V.02q-2.763,5.021-3.58,13.817-.8,8.814-.741,11.356a4.673,4.673,0,0,1-1.09,3.641Q47.8,29.91,37.405,30.33q-10.369.435-14.01-1.083Q21.215,28.342,20,20A71.308,71.308,0,0,1,20.166.1q-.247.059-9.134,1.594h-.021q-3.148,1.535-4.3,8.4Q5.5,17.32,6.177,31.766A5.035,5.035,0,0,1,6.012,33.1q-.247.768-.391,1.2a3.431,3.431,0,0,1-.309.669q-.185.354-.453-.63-.37-1.4-1.234-4.527Q2.844,26.885,2.309,24.6q.165,1.535.823,6.771.273,2.277.473,3.917-.1-.2-.453-.807L.437,30.251a.379.379,0,0,0-.185-.217.141.141,0,0,0-.144,0,.13.13,0,0,0-.1.079q-.021.039.041.157l2.263,4.507A8.822,8.822,0,0,1,2.8,35.9l.144.669a14.1,14.1,0,0,0,.576,1.516l.535,1.181.123.276q.749,5.412,1.6,10.707.206,1.319.411,2.618l31.661.59L68.531,82.191q.6-9.29,1.419-24.445a141.064,141.064,0,0,1,2.057-17.832A27.8,27.8,0,0,1,73.2,35.939q.1-.3,1.5-3.8a8.015,8.015,0,0,0-1.275,2.067q-1.029,1.968-1.563,3.228.082-.531.35-3.956l.494-6.062q-.617,3.208-1.378,7.932Q69.806,44.8,69,52.413l-.37,3.543q-.1,1.278-.946-8.739-.967-11.16-1.317-12.557a6.959,6.959,0,0,0-.679-1.673,4.7,4.7,0,0,0-1.111-1.437q-.473-.374-.453-2.342.021-1.1.123-3.4-.048-3.012.617-10.786A39.593,39.593,0,0,1,67.605,2.559V2.5q-.1-.236-.638-.276a4.722,4.722,0,0,1-.535-.02.238.238,0,0,1-.1-.02q-2-.492-4.485-.964-.411-.079-.843-.157-2.716-.492-4.9-.807Q55.18.118,54.357,0Z" transform="translate(0 0.335)" fill="#d4a548"/>
          </g>
          <g id="Group_52975" data-name="Group 52975" transform="translate(24.733 3.891)">
            <path id="Path_45135" data-name="Path 45135" d="M23.349,1.206h-.041L20.284,2.289l-.1.02-.082.039-.823.236-.1.02-.123.039-.206.039-.123.039-.8.177a15.308,15.308,0,0,1-2,.354l-.535.079h-.144l-.123.02-.8.059-.123.02L12.24,3.47,8.784,3.1H8.7l-.062-.02L7.715,2.9l-.123-.039-.144-.02L6.563,2.6l-.123-.02L5.246,2.23q-.8-.256-1.728-.63L.288.163.062.025Q0-.034,0,.045V.084L.062.124l1.214.964,2.3,1.378.638.3.1.059.123.039.679.315,3.148.984,1.728.3.062.02h.082l1.029.118,2.53.02.062-.02.514-.02L16.108,4.3a18.059,18.059,0,0,0,2.057-.512L20.9,2.7l2.428-1.437q.021,0,.021-.02A.024.024,0,0,0,23.349,1.206Z" transform="translate(0 0)" fill="#ffde9d"/>
          </g>
        </g>
        <g id="Group_52978" data-name="Group 52978" transform="translate(3.707 31.973)">
          <g id="Group_52977" data-name="Group 52977" transform="translate(0 0)">
            <path id="Path_45136" data-name="Path 45136" d="M15.594,6.769a5.644,5.644,0,0,0-.473-2.224q-.576-1.811.1-2.3.782-.571,5.884-1.1,2.53-.276,4.876-.492Q22.753.57,17.836.333,12.919.058,10.718.019A24.772,24.772,0,0,0,6.13.2a10.041,10.041,0,0,0-5.02,2.2A4.662,4.662,0,0,0,.226,3.423L0,3.856a17.886,17.886,0,0,0,.617,2.5,4.975,4.975,0,0,0,1.275,2.5q.843.492,6.892-.236,6.254-.768,6.809-1.85M61.284,35.013a6.072,6.072,0,0,1-.267.728,2.4,2.4,0,0,1-.6.61,1.839,1.839,0,0,0,1.337-.964,3.524,3.524,0,0,0,.494-1.083q-.082,1.771-.165,2.992-.185,2.3-.823,2.755.35-.079.885-1.1a13.373,13.373,0,0,0,.453-3.011,63.186,63.186,0,0,0,.206-8.7,50.221,50.221,0,0,1-.864,5.727q-.123.512-.658,2.047m-2.736-15.1V20q-.069,1.97-.226,5.806a37.594,37.594,0,0,0,.206,7.755,32.19,32.19,0,0,0,1.255,5.039q.494,1.24.638,1.043a11.251,11.251,0,0,1-.555-2.362q-.123-.787-.247-2.421-.021-.276-.041-.551v-.02a1.621,1.621,0,0,1-.062-.177l-.247-1.023a12.688,12.688,0,0,1-.247-1.476v-.02q-.3-4.813-.391-9.25,0-.151-.021-.315l-.041-1.771q0-.167-.021-.335M56.326,3.187a.165.165,0,0,1,.123.059q-.127-.177-.6-1a2.19,2.19,0,0,0-.761-.827A11.67,11.67,0,0,0,52.027.2Q50.854-.119,41.659.2L32.669.57q2.407.2,4.937.472,5.081.551,5.308.925a8.137,8.137,0,0,1,.514,2.48,4.81,4.81,0,0,0,.638,2.362q.658.748,5.863,1.456Q55.2,8.974,56.2,8.4q.329-.177,0-2.008a7.924,7.924,0,0,1-.185-2.775q.144-.453.309-.433M21.374,40.327q-.761-.138-2.284-.433-.247-.039-.267.1a15.178,15.178,0,0,0,1.687.61,20.367,20.367,0,0,0,4.114.925,10.251,10.251,0,0,0,3.127-.216v.02a.044.044,0,0,1,.021,0q.236-.062.453-.138a.757.757,0,0,0,.185-.059q.555-.2,1.07-.433a9.366,9.366,0,0,0,1.707-1.1,5.72,5.72,0,0,0-1.5.354l-1.481.531q-.2.057-.432.118a.044.044,0,0,0-.021,0,7.619,7.619,0,0,1-.823.118,14.108,14.108,0,0,1-3.271-.02q-.926-.1-2.284-.374M38.449,21.255q.021-3.917,0-5.413a12.345,12.345,0,0,0-.267-3.661q-.082.039-2.222,5.629-2.181,5.708-2.674,6.219a12.648,12.648,0,0,1-2.674,2.263,9.06,9.06,0,0,1-2.839,1.063.052.052,0,0,0-.021,0q-.283.057-.576.1-.278.041-.6.079-1.371.145-3.477.177a9.161,9.161,0,0,1-3-.315,6.4,6.4,0,0,1-1.6-.846q-.473-.354-1.44-1.142-1.625-1.456-2.016-1.87-.48-.5-.926-1.063a22.23,22.23,0,0,1-3.641-6.987,28.1,28.1,0,0,1-1.07-4,1.51,1.51,0,0,0-.206.768l-.309,5.019q-.144,2.441-.144,3.641a27.783,27.783,0,0,0,.823,6.416,16.237,16.237,0,0,0,3.456,6.849q3.95,4.586,12.364,4.724a9.235,9.235,0,0,0,2.366-.3v0h.062a13.656,13.656,0,0,0,2.777-1.142,14.085,14.085,0,0,0,6.665-7.814,20.645,20.645,0,0,0,.823-4.114q.041-.236.082-.453A34.331,34.331,0,0,0,38.449,21.255Z" transform="translate(4.28 0)" fill="#1c2449"/>
            <path id="Path_45137" data-name="Path 45137" d="M60.73,2.677a.165.165,0,0,0-.123-.059q-.165-.02-.309.433a7.924,7.924,0,0,0,.185,2.775q.329,1.83,0,2.008Q59.475,8.4,54.208,7.7,49,6.987,48.345,6.239a4.811,4.811,0,0,1-.638-2.362,8.136,8.136,0,0,0-.514-2.48q-.226-.374-5.308-.925Q39.355.2,36.948,0,34.315.1,32.9.1h-.864L30.262.079Q27.917.3,25.387.571q-5.1.531-5.884,1.1-.679.492-.1,2.3A5.644,5.644,0,0,1,19.874,6.2q-.555,1.082-6.809,1.85-6.048.728-6.892.236A4.975,4.975,0,0,1,4.9,5.786a17.886,17.886,0,0,1-.617-2.5,4.015,4.015,0,0,0-.288.531Q2.613,6.81,1.523,18.7.351,31.648.063,47.256c-.054,2.932.056,5.764.075,8.309.069.06,67.58-.695,67.577-.629.11-7.676-1.3-12.857-1.286-16.557q-.535,1.023-.885,1.1.638-.453.823-2.755.082-1.22.165-2.992a3.524,3.524,0,0,1-.494,1.083,1.839,1.839,0,0,1-1.337.964,2.4,2.4,0,0,0,.6-.61,6.07,6.07,0,0,0,.267-.728.846.846,0,0,1-.72.433q-.567,0-.987-1.142.02.275.041.551.123,1.634.247,2.421a11.252,11.252,0,0,0,.555,2.362q-.144.2-.638-1.043a32.191,32.191,0,0,1-1.255-5.039,37.594,37.594,0,0,1-.206-7.755q.158-3.836.226-5.806v-.1q-.136-3.2-.494-6.495-.247-2.4-.638-5.472-.37-3.8-.946-4.645a.2.2,0,0,1-.021-.039m-18,12.6q.021,1.5,0,5.413a34.332,34.332,0,0,1-.288,3.838q-.041.217-.082.453a20.646,20.646,0,0,1-.823,4.114A14.085,14.085,0,0,1,34.871,36.9a13.656,13.656,0,0,1-2.777,1.142h-.062v0a9.235,9.235,0,0,1-2.366.3Q21.252,38.2,17.3,33.617a16.237,16.237,0,0,1-3.456-6.849,27.783,27.783,0,0,1-.823-6.416q0-1.2.144-3.641l.309-5.019a1.51,1.51,0,0,1,.206-.768,28.1,28.1,0,0,0,1.07,4,22.23,22.23,0,0,0,3.641,6.987q.446.564.926,1.063.391.413,2.016,1.87.967.787,1.44,1.142a6.4,6.4,0,0,0,1.6.846,9.161,9.161,0,0,0,3,.315q2.105-.032,3.477-.177.318-.038.6-.079.293-.042.576-.1a.052.052,0,0,1,.021,0,9.06,9.06,0,0,0,2.839-1.063,12.648,12.648,0,0,0,2.674-2.263q.494-.512,2.674-6.219,2.14-5.59,2.222-5.629a12.345,12.345,0,0,1,.267,3.661m23.205,24.9a.867.867,0,0,1,.123-.551l-.021,3.188A5.442,5.442,0,0,1,66,43.6l-.082.689a12.666,12.666,0,0,0,0,1.5,1.8,1.8,0,0,1-.062.551,1.751,1.751,0,0,0-.144.374,1.59,1.59,0,0,0-.041-.59q-.041-.2-.123-.61a6.253,6.253,0,0,1,0-.728.847.847,0,0,1,.041-.354.822.822,0,0,1,.226-.256,1.009,1.009,0,0,0,.123-.59v-3.4m-42.564-.846q1.522.3,2.284.433,1.358.276,2.284.374a14.108,14.108,0,0,0,3.271.02,7.62,7.62,0,0,0,.823-.118.044.044,0,0,1,.021,0q.235-.062.432-.118l1.481-.531a5.72,5.72,0,0,1,1.5-.354,9.366,9.366,0,0,1-1.707,1.1q-.514.236-1.07.433a.757.757,0,0,1-.185.059q-.217.075-.453.138a.044.044,0,0,0-.021,0v-.02a10.251,10.251,0,0,1-3.127.216,20.368,20.368,0,0,1-4.114-.925,15.177,15.177,0,0,1-1.687-.61Q23.124,39.285,23.371,39.324Z" transform="translate(0 0.57)" fill="#2c3664"/>
          </g>
        </g>
        <g id="Group_52987" data-name="Group 52987" transform="translate(6.606 0)">
          <g id="Group_52980" data-name="Group 52980" transform="translate(0 0)">
            <g id="Group_52979" data-name="Group 52979">
              <path id="Path_45138" data-name="Path 45138" d="M9.527,0,8.355.315,7.943.433,6.729.787q-.867.247-1.625.453-2.5.713-3.826,1.063Q-.329,6.207.085,16.3q.116,2.842.391,6.16.011.138.021.276A124.375,124.375,0,0,1,2.018,5.491a4.674,4.674,0,0,1,.453-1.575A4.486,4.486,0,0,1,3.849,2.637,22.062,22.062,0,0,1,7.244.984Q8.631.411,9.527,0Z" transform="translate(0 0.52)" fill="#424d80"/>
              <path id="Path_45139" data-name="Path 45139" d="M13.763,1.209a1.9,1.9,0,0,0,.247.217.73.73,0,0,0,.267.039,1.636,1.636,0,0,0-.37-.531A4.446,4.446,0,0,0,12.672.087q-.626-.3-3.641.433-.9.411-2.284.984A22.062,22.062,0,0,0,3.353,3.157,4.486,4.486,0,0,0,1.975,4.437a4.674,4.674,0,0,0-.453,1.575A124.375,124.375,0,0,0,0,23.252,102.22,102.22,0,0,0,1.4,33.92q.967,4.92,1.934,5.786.391.354,6.213-.315,5.8-.669,5.822-1.043a19.717,19.717,0,0,1-1.193-4.133q-1.09-4.586-1.769-9.487-.2-1.428-.35-2.795.014.153.021.3a33.763,33.763,0,0,1-.946-3.681,26.987,26.987,0,0,1-.37-5.2A48.712,48.712,0,0,1,12.528.973a.412.412,0,0,1,.144-.217.145.145,0,0,1,.185-.02.093.093,0,0,1-.021.039.486.486,0,0,1,.226.02,1.867,1.867,0,0,1,.432.256Z" transform="translate(0.496 0)" fill="#2c3664"/>
              <path id="Path_45140" data-name="Path 45140" d="M3.583,1.049a.526.526,0,0,0-.062-.3A.73.73,0,0,1,3.254.714,1.9,1.9,0,0,1,3.007.5L2.74.34A1.867,1.867,0,0,0,2.308.084a.486.486,0,0,0-.226-.02A.093.093,0,0,0,2.1.025a.145.145,0,0,0-.185.02.412.412,0,0,0-.144.217A48.712,48.712,0,0,0,0,12.641a26.988,26.988,0,0,0,.37,5.2,33.763,33.763,0,0,0,.946,3.681q-.007-.143-.021-.3l-.288-3.051q-.019-.335-.041-.689a.212.212,0,0,0-.021-.039Q.3,7.407,2.514,1.226q.933-.167,1.049-.177Z" transform="translate(11.252 0.711)" fill="#1c2449"/>
            </g>
          </g>
          <g id="Group_52982" data-name="Group 52982" transform="translate(4.934 31.697)">
            <g id="Group_52981" data-name="Group 52981" transform="translate(0 0)">
              <path id="Path_45141" data-name="Path 45141" d="M6.013.805A3.606,3.606,0,0,0,5.087.372,6.688,6.688,0,0,0,3.935.018,5.05,5.05,0,0,0,1.549.55Q.026,1.2.006,1.534A3.712,3.712,0,0,0,.541,3.561,2.865,2.865,0,0,0,3.75,5,2.725,2.725,0,0,0,6.157,3.029,2.363,2.363,0,0,0,6.013.805Z" fill="#1c2449"/>
            </g>
          </g>
          <g id="Group_52984" data-name="Group 52984" transform="translate(4.648 34.983)">
            <g id="Group_52983" data-name="Group 52983" transform="translate(0 0)">
              <path id="Path_45142" data-name="Path 45142" d="M2.164,2.815a3.328,3.328,0,0,0,2.88-.2q1.049-.63.967-.925a2.275,2.275,0,0,1-.926.728A4.131,4.131,0,0,1,2.39,2.48,3.29,3.29,0,0,1,.724,1.22Q0,.3.066,0-.161.059.395,1.181A3.064,3.064,0,0,0,2.164,2.815Z" transform="translate(0 0)" fill="#1c2449"/>
            </g>
          </g>
          <g id="Group_52986" data-name="Group 52986" transform="translate(4.94 30.397)">
            <g id="Group_52985" data-name="Group 52985" transform="translate(0 0)">
              <path id="Path_45143" data-name="Path 45143" d="M.288,1.226A2.78,2.78,0,0,0,0,2.485,2.783,2.783,0,0,0,.905,4.572a3.041,3.041,0,0,0,2.181.866,3.041,3.041,0,0,0,2.181-.866,2.783,2.783,0,0,0,.905-2.086A2.767,2.767,0,0,0,5.493.635,2.613,2.613,0,0,1,5.719.95q-.4-.315-.494-.374A3.538,3.538,0,0,0,3.415.005a3.987,3.987,0,0,0-2.14.531,5.593,5.593,0,0,0-.987.689M1.522.989A2.185,2.185,0,0,1,3.086.36a2.185,2.185,0,0,1,1.563.63,1.961,1.961,0,0,1,.658,1.5,2,2,0,0,1-.658,1.5,2.222,2.222,0,0,1-1.563.61,2.222,2.222,0,0,1-1.563-.61,2,2,0,0,1-.658-1.5,1.961,1.961,0,0,1,.658-1.5M3.374,5.182A3.036,3.036,0,0,1,2.222,5.1a1.693,1.693,0,0,1-.679-.276.185.185,0,0,1-.062-.138q0-.079.123-.079a.281.281,0,0,1,.165.059,2.77,2.77,0,0,0,1.769.236l.329-.079.206-.1a6.39,6.39,0,0,0,1.152-.768q.062-.059.062.059l-.041.1-.7.551v.059l-.309.177a.542.542,0,0,1-.267.118l-.6.157M3.086.36a2.185,2.185,0,0,0-1.563.63,1.961,1.961,0,0,0-.658,1.5,2,2,0,0,0,.658,1.5,2.222,2.222,0,0,0,1.563.61,2.222,2.222,0,0,0,1.563-.61,2,2,0,0,0,.658-1.5,1.961,1.961,0,0,0-.658-1.5A2.185,2.185,0,0,0,3.086.36m.165.787q-.062,0-.062.039H2.654l-.37.138q-.021.039-.082,0a.063.063,0,0,1-.041-.059.214.214,0,0,1,.082-.138q.1-.079.1-.118L2.53.93a.789.789,0,0,1,.535-.02A.2.2,0,0,1,3.23.989a.131.131,0,0,1,.021.157m-1.481,1.1a.7.7,0,0,1,.473-.177.63.63,0,0,1,.453.177A.61.61,0,0,1,2.9,2.7a.551.551,0,0,1-.206.433.6.6,0,0,1-.453.2.665.665,0,0,1-.473-.2A.576.576,0,0,1,1.584,2.7a.641.641,0,0,1,.185-.453m1.666-.374A.7.7,0,0,1,3.909,1.7a.872.872,0,0,1,.267.039.922.922,0,0,1,.185.138.61.61,0,0,1,.206.453.551.551,0,0,1-.206.433.565.565,0,0,1-.123.1.554.554,0,0,1-.329.1.665.665,0,0,1-.473-.2.576.576,0,0,1-.185-.433A.641.641,0,0,1,3.436,1.875Z" transform="translate(0 0.467)" fill="#6a78b7"/>
              <path id="Path_45144" data-name="Path 45144" d="M1.954,5.57a3.036,3.036,0,0,0,1.152.079l.6-.157a.542.542,0,0,0,.267-.118L4.279,5.2V5.137l.7-.551.041-.1q0-.118-.062-.059A6.391,6.391,0,0,1,3.806,5.2l-.206.1-.329.079A2.77,2.77,0,0,1,1.5,5.137a.281.281,0,0,0-.165-.059q-.123,0-.123.079a.185.185,0,0,0,.062.138,1.693,1.693,0,0,0,.679.276m.967-3.917q0-.039.062-.039a.131.131,0,0,0-.021-.157A.2.2,0,0,0,2.8,1.378a.789.789,0,0,0-.535.02l-.185.079q0,.039-.1.118a.214.214,0,0,0-.082.138.063.063,0,0,0,.041.059q.062.039.082,0l.37-.138h.535M0,1.693H.021A5.593,5.593,0,0,1,1.008,1,3.987,3.987,0,0,1,3.148.472a3.538,3.538,0,0,1,1.81.571q.092.059.494.374A2.613,2.613,0,0,0,5.225,1.1L5.061.925,5.04.905,5,.866A3.041,3.041,0,0,0,2.818,0,3.041,3.041,0,0,0,.638.866l-.494.61Q.069,1.585,0,1.693Z" transform="translate(0.267 0)" fill="#929fd9"/>
              <path id="Path_45145" data-name="Path 45145" d="M2.325,0a.7.7,0,0,0-.473.177A.641.641,0,0,0,1.666.63a.576.576,0,0,0,.185.433.665.665,0,0,0,.473.2.554.554,0,0,0,.329-.1.565.565,0,0,0,.123-.1A.551.551,0,0,0,2.983.63.61.61,0,0,0,2.777.177.922.922,0,0,0,2.592.039.872.872,0,0,0,2.325,0M.658.374A.7.7,0,0,0,.185.551.641.641,0,0,0,0,1a.576.576,0,0,0,.185.433.665.665,0,0,0,.473.2.6.6,0,0,0,.453-.2A.551.551,0,0,0,1.317,1,.61.61,0,0,0,1.111.551.63.63,0,0,0,.658.374Z" transform="translate(1.584 2.165)" fill="#1c2449"/>
            </g>
            <path id="Path_45146" data-name="Path 45146" d="M4.444,2.126a2,2,0,0,1-.658,1.5,2.222,2.222,0,0,1-1.563.61,2.222,2.222,0,0,1-1.563-.61A2,2,0,0,1,0,2.126,1.961,1.961,0,0,1,.658.63,2.185,2.185,0,0,1,2.222,0,2.185,2.185,0,0,1,3.785.63,1.961,1.961,0,0,1,4.444,2.126Z" transform="translate(0.864 0.827)" fill="none" stroke="#4d5b9c" stroke-linecap="round" stroke-linejoin="round" stroke-width="1.459"/>
          </g>
        </g>
        <g id="Group_52994" data-name="Group 52994" transform="translate(67.173 39.687) rotate(180)">
          <g id="Group_52989" data-name="Group 52989" transform="translate(0 0)">
            <g id="Group_52988" data-name="Group 52988">
              <path id="Path_45147" data-name="Path 45147" d="M.617,28.952A4.476,4.476,0,0,1,.041,28.7Q.015,28.515,0,28.322q2.777-2.382,3.744-18.166Q4.076,4.77,4.032,0q1.241,13.781-.658,22.28Q2.242,27.417.617,28.952Z" transform="translate(0 7.085)" fill="#1c2449"/>
              <path id="Path_45148" data-name="Path 45148" d="M10.389,38.34a7.342,7.342,0,0,1-1.975.118q-.226,0-3.456-.157-.038,0-.082,0A20.066,20.066,0,0,1,.658,36.923,1.776,1.776,0,0,1,0,35.782a4.474,4.474,0,0,0,.576.256Q2.2,34.5,3.333,29.365q1.9-8.5.658-22.28Q3.981,6.541,3.97,6q-.1-5.117-.576-6Q4.732,0,8.311.394a29.735,29.735,0,0,1,6.254,1.1A59.652,59.652,0,0,1,15.7,18.658,79.7,79.7,0,0,1,12.755,33.4Q11.253,38.065,10.389,38.34Z" transform="translate(0.041 0)" fill="#2c3664"/>
              <path id="Path_45149" data-name="Path 45149" d="M3.538,19.8a7.342,7.342,0,0,0,1.975-.118q.864-.276,2.366-4.94A79.7,79.7,0,0,0,10.821,0q-.106,2.042-.309,4.212Q9.381,16.552,6.768,20.745q-.35.551-5.452-.768L0,19.642q.044,0,.082,0Q3.312,19.8,3.538,19.8Z" transform="translate(4.917 18.658)" fill="#424d80"/>
            </g>
          </g>
          <g id="Group_52991" data-name="Group 52991" transform="translate(6.312 1.282)">
            <g id="Group_52990" data-name="Group 52990" transform="translate(0 0)">
              <path id="Path_45150" data-name="Path 45150" d="M.066,3.048q-.226-.059.329-1.181A3.064,3.064,0,0,1,2.164.234a3.328,3.328,0,0,1,2.88.2q1.049.63.967.925A2.275,2.275,0,0,0,5.085.627,4.131,4.131,0,0,0,2.39.568,3.29,3.29,0,0,0,.724,1.828Q0,2.753.066,3.048M.58,4.17a4.828,4.828,0,0,1,.062-.905,2.365,2.365,0,0,1,.617-1.181A3,3,0,0,1,2.39,1.316a3.855,3.855,0,0,1,2.736.02,2.859,2.859,0,0,1,1.131.669,2.793,2.793,0,0,1,.8,2.342,2.622,2.622,0,0,1-.617,1.732,1.454,1.454,0,0,1-.905.512.96.96,0,0,1-.967-.335.739.739,0,0,1-.082-.846.555.555,0,0,1,.309-.3.427.427,0,0,1,.432.039,1.5,1.5,0,0,0,.206-1.5,2.114,2.114,0,0,0-.226-.413,1.145,1.145,0,0,0-.617-.335,2.791,2.791,0,0,0-.885-.177A1.567,1.567,0,0,0,2.6,3.088a1.148,1.148,0,0,0-.432,1.023,1.865,1.865,0,0,0,.823,1.22A1.292,1.292,0,0,1,3.48,5.9a.584.584,0,0,1-.062.453.7.7,0,0,1-.37.335A1.146,1.146,0,0,1,2.1,6.63a3.05,3.05,0,0,1-.761-.61A2.673,2.673,0,0,1,.683,4.957,3.834,3.834,0,0,1,.58,4.17Z" fill="#1c2449"/>
            </g>
          </g>
          <g id="Group_52993" data-name="Group 52993" transform="translate(7.056 2.854)">
            <g id="Group_52992" data-name="Group 52992" transform="translate(0 0)">
              <path id="Path_45151" data-name="Path 45151" d="M4.937,4.632q.082-.059.514-.394-.027.047-.062.1a1.691,1.691,0,0,1-.165.217l-.185.2-.062.059A3.041,3.041,0,0,1,2.8,5.675,3.041,3.041,0,0,1,.617,4.809L.123,4.2A2.195,2.195,0,0,1,0,4a5.969,5.969,0,0,0,.987.669,3.987,3.987,0,0,0,2.14.531,3.538,3.538,0,0,0,1.81-.571M3.682.184A.542.542,0,0,1,3.95.3l.309.177V.538l.7.551.041.1q0,.118-.062.059A6.391,6.391,0,0,0,3.785.479L3.58.381,3.25.3A2.77,2.77,0,0,0,1.481.538.281.281,0,0,1,1.317.6Q1.193.6,1.193.518A.185.185,0,0,1,1.255.381,1.693,1.693,0,0,1,1.934.1,3.036,3.036,0,0,1,3.086.026l.6.157M1.872,3.943a.063.063,0,0,1,.041-.059q.062-.039.082,0l.37.138H2.9q0,.039.062.039a.13.13,0,0,1-.021.157.2.2,0,0,1-.165.079.789.789,0,0,1-.535-.02L2.057,4.2q0-.039-.1-.118A.214.214,0,0,1,1.872,3.943Z" transform="translate(0.288 0.23)" fill="#929fd9"/>
              <path id="Path_45152" data-name="Path 45152" d="M6.172,2.952a2.776,2.776,0,0,1-.494,1.614q.034-.051.062-.1-.432.335-.514.394a3.538,3.538,0,0,1-1.81.571A3.987,3.987,0,0,1,1.275,4.9a5.969,5.969,0,0,1-.987-.669.076.076,0,0,0,0-.039v.02A2.756,2.756,0,0,1,0,2.952,2.783,2.783,0,0,1,.905.866,3.041,3.041,0,0,1,3.086,0,3.041,3.041,0,0,1,5.266.866a2.783,2.783,0,0,1,.905,2.086m-1.522,1.5a1.961,1.961,0,0,0,.658-1.5,2,2,0,0,0-.658-1.5A2.222,2.222,0,0,0,3.086.846a2.222,2.222,0,0,0-1.563.61,2,2,0,0,0-.658,1.5,1.961,1.961,0,0,0,.658,1.5,2.185,2.185,0,0,0,1.563.63,2.185,2.185,0,0,0,1.563-.63M4.238.531A.542.542,0,0,0,3.97.413l-.6-.157A3.036,3.036,0,0,0,2.222.335,1.693,1.693,0,0,0,1.543.61a.185.185,0,0,0-.062.138q0,.079.123.079A.281.281,0,0,0,1.769.768,2.77,2.77,0,0,1,3.538.531L3.868.61l.206.1a6.391,6.391,0,0,1,1.152.768q.062.059.062-.059l-.041-.1-.7-.551V.709L4.238.531m1.07,2.421a1.961,1.961,0,0,1-.658,1.5,2.185,2.185,0,0,1-1.563.63,2.185,2.185,0,0,1-1.563-.63,1.961,1.961,0,0,1-.658-1.5,2,2,0,0,1,.658-1.5A2.222,2.222,0,0,1,3.086.846a2.222,2.222,0,0,1,1.563.61,2,2,0,0,1,.658,1.5m-.946.61a.61.61,0,0,0,.206-.453.551.551,0,0,0-.206-.433l-.1-.1a.669.669,0,0,0-.823.1.576.576,0,0,0-.185.433.641.641,0,0,0,.185.453.7.7,0,0,0,.473.177.612.612,0,0,0,.267-.059.55.55,0,0,0,.185-.118M1.584,2.736a.641.641,0,0,0,.185.453.7.7,0,0,0,.473.177.63.63,0,0,0,.453-.177A.61.61,0,0,0,2.9,2.736.551.551,0,0,0,2.695,2.3a.6.6,0,0,0-.453-.2.665.665,0,0,0-.473.2.576.576,0,0,0-.185.433M2.2,4.114a.063.063,0,0,0-.041.059.214.214,0,0,0,.082.138q.1.079.1.118l.185.079a.789.789,0,0,0,.535.02.2.2,0,0,0,.165-.079.131.131,0,0,0,.021-.157q-.062,0-.062-.039H2.654l-.37-.138Q2.263,4.074,2.2,4.114Z" fill="#6a78b7"/>
              <path id="Path_45153" data-name="Path 45153" d="M.185,1.082A.641.641,0,0,1,0,.63.576.576,0,0,1,.185.2.665.665,0,0,1,.658,0a.6.6,0,0,1,.453.2A.551.551,0,0,1,1.317.63a.61.61,0,0,1-.206.453.63.63,0,0,1-.453.177.7.7,0,0,1-.473-.177M2.983,1a.61.61,0,0,1-.206.453.55.55,0,0,1-.185.118.612.612,0,0,1-.267.059.7.7,0,0,1-.473-.177A.641.641,0,0,1,1.666,1,.576.576,0,0,1,1.851.571a.669.669,0,0,1,.823-.1l.1.1A.551.551,0,0,1,2.983,1Z" transform="translate(1.584 2.106)" fill="#1c2449"/>
            </g>
            <path id="Path_45154" data-name="Path 45154" d="M4.444,2.106A2,2,0,0,0,3.785.61,2.222,2.222,0,0,0,2.222,0,2.222,2.222,0,0,0,.658.61,2,2,0,0,0,0,2.106,1.961,1.961,0,0,0,.658,3.6a2.185,2.185,0,0,0,1.563.63A2.185,2.185,0,0,0,3.785,3.6,1.961,1.961,0,0,0,4.444,2.106Z" transform="translate(0.864 0.846)" fill="none" stroke="#4d5b9c" stroke-linecap="round" stroke-linejoin="round" stroke-width="1.459"/>
          </g>
        </g>
        <g id="Group_53001" data-name="Group 53001" transform="translate(17.119 43.485)">
          <g id="Group_52998" data-name="Group 52998" transform="translate(0 0)">
            <g id="Group_52995" data-name="Group 52995">
              <path id="Path_45155" data-name="Path 45155" d="M30.469.039a33.432,33.432,0,0,1-7.845,2.008,68.521,68.521,0,0,1-7.243.709A79.689,79.689,0,0,1,4.857,1.4,21.761,21.761,0,0,1,.8.236Q.425.121.138,0-.017,7.105,0,7.912a30.67,30.67,0,0,0,1.282,8.621q2.893,8.975,13.068,9.939a1.477,1.477,0,0,0,.388.039,3.009,3.009,0,0,0,.563.02q.233,0,.6-.02a1.2,1.2,0,0,0,.35-.039q10.175-.964,13.068-9.939.108-.331.194-.689a31.528,31.528,0,0,0,1.087-7.932q.019-.8-.136-7.873M28.042,14.6q-.175.649-.388,1.26-2.563,7.7-8.7,9.29,6.136-1.594,8.7-9.29.214-.61.388-1.26a29.354,29.354,0,0,0,1.165-8.5,29.354,29.354,0,0,1-1.165,8.5M1.847,2.2a47.444,47.444,0,0,0,9.068,1.771Q21.44,5.137,28.7,2.106,21.44,5.137,10.915,3.976A47.444,47.444,0,0,1,1.847,2.2M1.381,6.1a29.354,29.354,0,0,0,1.165,8.5q2.466,8.837,9.088,10.549Q5.012,23.441,2.546,14.6A29.354,29.354,0,0,1,1.381,6.1Z" transform="translate(0 0)" fill="#6a78b7"/>
              <path id="Path_45156" data-name="Path 45156" d="M21.826,2.047A33.432,33.432,0,0,0,29.671.039q0-.021,0-.039-2.058.866-9.107,1.693a59.846,59.846,0,0,1-6.058.2,60.2,60.2,0,0,1-6.058-.2A53.3,53.3,0,0,1,0,.236,21.761,21.761,0,0,0,4.058,1.4,79.689,79.689,0,0,0,14.583,2.755,68.521,68.521,0,0,0,21.826,2.047Z" transform="translate(0.798 0)" fill="#929fd9"/>
            </g>
            <g id="Group_52996" data-name="Group 52996" transform="translate(1.793 2.051)">
              <path id="Path_45157" data-name="Path 45157" d="M26.91.075q.058,0,.019-.039,0-.059-.039-.02l-3.185,1-.893.2q-1.068.236-2.019.394-1.418.2-2.291.276l-2.447.138q-1.262.039-2.544,0Q12.249,2,10.987,1.905L8.54,1.669q-1.243-.118-2.291-.3L.054.114Q.016.075.016.134-.023.173.035.173L4.171,1.315l6.777.964q1.146.1,2.563.138,1.437.039,2.544-.02h.33l2.155-.157q1.126-.118,2.291-.335.932-.157,2.039-.433L24.56,1Z" transform="translate(0 0)" fill="#4d5b9c"/>
            </g>
            <g id="Group_52997" data-name="Group 52997" transform="translate(1.167 6.062)">
              <path id="Path_45158" data-name="Path 45158" d="M.194,0,.175.02,0,2.539.214,5.491q.117.866.33,1.968l.155.65.019.138L.8,8.5l.019.118.019.039V8.7l.99,2.952.058.118.019.059.641,1.338.078.118.058.118.369.59.019.059.544.807.039.039.5.63.039.059.311.335.078.1.194.177.039.059.039.039.1.079.175.177,1.5,1.161a2.5,2.5,0,0,0,.369.217l.524.3.913.394.388.118.136.059,1.5.315q.039.039.039-.02l-.019-.039L8.272,17.97l-.058-.059-.078-.039-.155-.1L6.66,16.749l-.078-.079-.175-.138-.388-.394-.078-.1-.427-.453-.039-.059-.738-.945L4.6,14.368l-.078-.1-.019-.059-.039-.039-.136-.217a.212.212,0,0,0-.078-.1l-.058-.118-.136-.217-.019-.059-.66-1.2-.039-.118-.233-.472-.1-.256-.039-.059L2.952,11.3l-.058-.118L1.9,8.384v-.02l-.019-.02v-.02l-.155-.492L1.709,7.7l-.155-.472L.893,4.448.233.039A.035.035,0,0,0,.194,0M28.059.02,28.021,0,28,.039,27.69,2.5,26.525,7.7l-.019.138-1.165,3.346-.447.964-.019.059-.039.059-.66,1.26-.078.1-.058.118-.7,1.043q-.621.807-1.2,1.437l-.951.866-.33.236a2.318,2.318,0,0,1-.311.236l-.291.217-1.573.886-.913.394q-.058,0-.019.039,0,.059.039.02l.757-.118.35-.1h.058l.33-.1,1.262-.492.99-.551.078-.059.524-.335.039-.039.563-.433a13.391,13.391,0,0,0,1.418-1.456l.893-1.2.058-.118.369-.59,1.146-2.4L27.69,7.459q.214-1.1.33-1.968l.117-.925.078-2.992Z" transform="translate(0 0)" fill="#4d5b9c"/>
            </g>
          </g>
          <g id="Group_53000" data-name="Group 53000" transform="translate(7.925 6.915)">
            <g id="Group_52999" data-name="Group 52999" transform="translate(0 0)">
              <path id="Path_45159" data-name="Path 45159" d="M10.68,8.485a4.395,4.395,0,0,0,.291-.433A6.28,6.28,0,0,1,9.36,9.45,3.275,3.275,0,0,1,6.389,9.9a4.408,4.408,0,0,0-.951-.413,2.257,2.257,0,0,0-1.573.276q-.5.236-.757.335a3.2,3.2,0,0,1-.757.256,3.364,3.364,0,0,1-2.33-.63H0a3.189,3.189,0,0,0,.272.236l.738.512a.055.055,0,0,0,.039.02.262.262,0,0,0,.058.039,3.527,3.527,0,0,0,1.223.374,3.325,3.325,0,0,0,1.534-.217,7.179,7.179,0,0,1,.971-.3,1.43,1.43,0,0,1,.544.079q.175.039.524.157a3.347,3.347,0,0,0,1.456.177,1.744,1.744,0,0,0,.291-.059A4.687,4.687,0,0,0,9.631,9.627L10.68,8.485M10.039.16Q9.813.091,9.573.042a3.939,3.939,0,0,0-1.146,0H8.408A6.728,6.728,0,0,0,6.039.987L5.9,1.065l-.447.3A3.455,3.455,0,0,0,5.2.652L5.126.495A3.072,3.072,0,0,0,4.8.022,5.427,5.427,0,0,1,5.243,1.3a5.592,5.592,0,0,1,.039,1.87,2.84,2.84,0,0,1,.427-1.063q.058-.079.447-.472A2.449,2.449,0,0,1,6.8,1.144,8.823,8.823,0,0,1,10.039.16Z" transform="translate(2.369 3.79)" fill="#7c0029"/>
              <path id="Path_45160" data-name="Path 45160" d="M14.583,4.212a3.611,3.611,0,0,0-.8-1.791,2.9,2.9,0,0,0-1.379-.827,8.823,8.823,0,0,0-3.243.984,2.449,2.449,0,0,0-.641.492q-.388.394-.447.472a2.84,2.84,0,0,0-.427,1.063,5.592,5.592,0,0,0-.039-1.87,5.427,5.427,0,0,0-.447-1.279,3.563,3.563,0,0,0-.7-.689A3.713,3.713,0,0,0,4.156,0,4.016,4.016,0,0,0,1.864.827,4.074,4.074,0,0,0,.427,2.835,9.433,9.433,0,0,0,0,5.787,8.556,8.556,0,0,0,.311,7.834a6.725,6.725,0,0,0,1.223,2.342,7.324,7.324,0,0,0,.854.984,3.364,3.364,0,0,0,2.33.63,3.2,3.2,0,0,0,.757-.256q.252-.1.757-.335a2.257,2.257,0,0,1,1.573-.276,4.408,4.408,0,0,1,.951.413,3.275,3.275,0,0,0,2.971-.453,6.28,6.28,0,0,0,1.612-1.4,4.394,4.394,0,0,1-.291.433,8.219,8.219,0,0,0,1.126-1.988,6.557,6.557,0,0,0,.408-3.72m-.563.512q.078-.079.194.61a4.531,4.531,0,0,1-.058,1.712,3.183,3.183,0,0,1-.408,1.043.705.705,0,0,1-.485.335,5.208,5.208,0,0,0,.718-2.086,3.762,3.762,0,0,0,.039-1.614m-.252-1.358a.255.255,0,0,1,.136.02.724.724,0,0,1,.194.531q0,.217-.1.256a3.381,3.381,0,0,1-.214-.394,2.263,2.263,0,0,1-.155-.374.335.335,0,0,1,.136-.039M1.34,3.209a8.722,8.722,0,0,0-.311,1.476A11.254,11.254,0,0,0,1.5,8.72,6.634,6.634,0,0,1,.718,4.055,5.389,5.389,0,0,1,1.4,2.165a2,2,0,0,1,.816-.905A5.143,5.143,0,0,0,1.34,3.209Z" transform="translate(0 2.355)" fill="#903"/>
              <path id="Path_45161" data-name="Path 45161" d="M.43,3.425A8.722,8.722,0,0,1,.741,1.949,5.143,5.143,0,0,1,1.615,0,2,2,0,0,0,.8.905a5.389,5.389,0,0,0-.68,1.889A6.634,6.634,0,0,0,.9,7.459,11.254,11.254,0,0,1,.43,3.425M13.3,2.126a.255.255,0,0,0-.136-.02.335.335,0,0,0-.136.039,2.263,2.263,0,0,0,.155.374,3.381,3.381,0,0,0,.214.394q.1-.039.1-.256a.724.724,0,0,0-.194-.531m.311,1.949q-.117-.689-.194-.61a3.762,3.762,0,0,1-.039,1.614,5.208,5.208,0,0,1-.718,2.086.705.705,0,0,0,.485-.335,3.183,3.183,0,0,0,.408-1.043A4.531,4.531,0,0,0,13.615,4.074Z" transform="translate(0.599 3.615)" fill="#c84b75"/>
              <path id="Path_45162" data-name="Path 45162" d="M1.1.768.811.886.791.905a2.553,2.553,0,0,0-.66.925A1.114,1.114,0,0,0,.015,2.5,11.816,11.816,0,0,1,3.956.886a6.291,6.291,0,0,0-2,1.083q-.757.61-.641.748a3.5,3.5,0,0,1,.913-.059,5.2,5.2,0,0,1,1.107.138,5.592,5.592,0,0,0,.5-.394A4.946,4.946,0,0,0,5.257.531Q5.374.2,5.238.079A.409.409,0,0,0,4.947,0,9.726,9.726,0,0,0,1.1.768Z" transform="translate(9.248 0.604)" fill="#365815"/>
              <path id="Path_45163" data-name="Path 45163" d="M.854.59Q.735.859.621,1.161.5,1.5.388,1.83.155,2.6.019,3.267q-.01.06-.019.1l.136-.079A6.728,6.728,0,0,1,2.5,2.342h.019a3.939,3.939,0,0,1,1.146,0q.377-.232.641-.433A5.2,5.2,0,0,0,3.2,1.771a3.5,3.5,0,0,0-.913.059q-.117-.138.641-.748A6.291,6.291,0,0,1,4.932,0,11.816,11.816,0,0,0,.99,1.614,1.114,1.114,0,0,1,1.107.945,2.553,2.553,0,0,1,1.767.02Z" transform="translate(8.272 1.489)" fill="#253e0d"/>
              <path id="Path_45164" data-name="Path 45164" d="M2.583.052A.254.254,0,0,0,2.35.013a.907.907,0,0,0-.388.315A10.927,10.927,0,0,0,.272,3.438Q.12,3.864,0,4.284l.078.157A3.455,3.455,0,0,1,.33,5.15l.447-.3q.009-.038.019-.1.136-.671.369-1.437.111-.327.233-.669.114-.3.233-.571A5.306,5.306,0,0,1,2.563.525.54.54,0,0,0,2.7.269.223.223,0,0,0,2.583.052Z" transform="translate(7.495 0)" fill="#1d0d0c"/>
            </g>
          </g>
        </g>
      </g>
      <g id="Group_53012" data-name="Group 53012" transform="translate(125.735 200.735) rotate(-164.645)">
        <g id="Group_53004" data-name="Group 53004" transform="translate(0 0)">
          <g id="Group_53003" data-name="Group 53003">
            <path id="Path_45165" data-name="Path 45165" d="M1.522,22.6Q.907,21.328.411,20.257l-.329-.679q-.037-.1-.082-.226a27.52,27.52,0,0,1,5.183-5.265q.811-.6,2.447-1.666,2.129-1.394,3.311-2.036A14.961,14.961,0,0,1,14.5,8.967,3.086,3.086,0,0,0,14.519,7.4a7.814,7.814,0,0,0-.494-1.44Q12.69,2.935,11.311,0a.287.287,0,0,0,.041.041l1.131,1.584.72,1.069q1.266,1.875,2.139,3.27a1.193,1.193,0,0,1,.082.123,31.71,31.71,0,0,1,1.707,2.941,85.891,85.891,0,0,1,3.147,8.843q.454,1.383-1.748,3.846a25.342,25.342,0,0,1-5.224,4.319,18.678,18.678,0,0,1-5.8,2.591q-2.833.584-3.62-1.09Z" transform="translate(5.538 7.444)" fill="#84553e"/>
            <path id="Path_45166" data-name="Path 45166" d="M5.538,26.8q-.582-1.2-.946-2.057-1.281-2.886-2.077-5.285A55.906,55.906,0,0,1,.171,10.919,15.268,15.268,0,0,1,.027,7.793,7.646,7.646,0,0,1,2.762,2.055,9.2,9.2,0,0,1,6.649.1,5.963,5.963,0,0,1,11.194,1.13a15,15,0,0,1,3.085,2.961q1.782,2.3,2.53,3.29h-.021q.031.028.062.062,1.379,2.935,2.715,5.964a7.813,7.813,0,0,1,.494,1.44,3.086,3.086,0,0,1-.021,1.563,14.961,14.961,0,0,0-3.558,1.419q-1.182.642-3.311,2.036-1.637,1.064-2.447,1.666A27.52,27.52,0,0,0,5.538,26.8Z" fill="#a56b4e"/>
          </g>
        </g>
        <g id="Group_53006" data-name="Group 53006" transform="translate(3.872 18.26)">
          <g id="Group_53005" data-name="Group 53005" transform="translate(0 0)">
            <path id="Path_45167" data-name="Path 45167" d="M18.613,46.5a13.188,13.188,0,0,1-4.833-2.365,16.374,16.374,0,0,1-3.393-3.517A26.115,26.115,0,0,1,7.26,33.77q-.668-2.217-1.769-7.239A54.467,54.467,0,0,0,3.641,19.6,17.776,17.776,0,0,0,.453,13.863a1.458,1.458,0,0,1-.452-.9,1.7,1.7,0,0,1,.411-.884,23.224,23.224,0,0,1,2.1-2.3L3.5,8.824Q4.389,8,5.2,7.261h.021a46.807,46.807,0,0,1,5.018-3.969A27.978,27.978,0,0,1,13.78,1.215,13.343,13.343,0,0,1,17.194.228,16.769,16.769,0,0,1,19.805,0,8.157,8.157,0,0,1,23.8,1.215q.253,2.155,1.357,7.218,1.105,5.042,1.666,9.049a103.005,103.005,0,0,1,.761,10.632,55.8,55.8,0,0,1-.823,12.175,21.7,21.7,0,0,1-.658,2.838,16.686,16.686,0,0,1-.041,3.455q-1.528.733-7.445-.082M8.823,36.9Q7.759,30.214,6.685,25.421q-1.95-8.786-4.812-12.607A23.819,23.819,0,0,1,4.69,9.194L7.137,6.356Q1.129,11.119.618,12.978a20.5,20.5,0,0,0,1.357,2.139,14.807,14.807,0,0,1,2.139,4.051q.284.871,2.057,7.918Q8.022,34.313,8.823,36.9Z" fill="#fc6"/>
            <path id="Path_45168" data-name="Path 45168" d="M6.067,19.064Q7.141,23.857,8.206,30.54q-.8-2.583-2.653-9.81Q3.78,13.684,3.5,12.812A14.807,14.807,0,0,0,1.357,8.761,20.5,20.5,0,0,1,0,6.622Q.512,4.763,6.519,0L4.072,2.838a23.819,23.819,0,0,0-2.817,3.62Q4.117,10.279,6.067,19.064Z" transform="translate(0.618 6.356)" fill="#ffde9d"/>
          </g>
        </g>
        <g id="Group_53009" data-name="Group 53009" transform="translate(17.281 16.205)">
          <g id="Group_53008" data-name="Group 53008" transform="translate(0 0)">
            <g id="Group_53007" data-name="Group 53007" transform="translate(0 0)">
              <path id="Path_45169" data-name="Path 45169" d="M11.763,49.954q.679-3.784,1.09-7.856.2-2.175.514-6.787a13.055,13.055,0,0,1-1.152,3.763,8.342,8.342,0,0,1-2.1,3q1.44-1.974,2.118-7.013A51.922,51.922,0,0,0,12.5,24.576a68.7,68.7,0,0,0-2.447-12.36q-1.522-5.573-2.2-7.2A3.119,3.119,0,0,0,6.581,3.681a6.079,6.079,0,0,0-1.645-.823A11.262,11.262,0,0,0,0,3.332Q.993,3.047,12.5,0q4.078,1.627,3.455,6.19-.62,4.541-1.131,8.123a34.018,34.018,0,0,0-.267,6.622l2.9-.8L21.47,34.8Z" fill="#d4a548"/>
            </g>
          </g>
        </g>
        <g id="Group_53011" data-name="Group 53011" transform="translate(22.155 55.094)">
          <g id="Group_53010" data-name="Group 53010" transform="translate(0 0)">
            <path id="Path_45170" data-name="Path 45170" d="M4.936,2.468,2.468,0,0,2.468,2.468,4.936Zm-1.851,0H2.468V1.851m-.617.617h.617v.617" fill="none" stroke="rgba(0,0,0,0)" stroke-linecap="round" stroke-linejoin="round" stroke-width="0.075"/>
          </g>
        </g>
      </g>
      <g id="Group_53032" data-name="Group 53032" transform="matrix(1, 0.006, -0.006, 1, 54.875, 124.837)">
        <g id="Group_53015" data-name="Group 53015" transform="translate(0 0)">
          <g id="Group_53014" data-name="Group 53014" transform="translate(0 0)">
            <g id="Group_53013" data-name="Group 53013">
              <path id="Path_45171" data-name="Path 45171" d="M32.1,1.388Q32.072.8,27.145.409q-4.5-.364-10.878-.4Q9.752-.044,5.273.283.23.635,0,1.325,1.126,7.931,2.892,21.117T5.785,40.9a61.991,61.991,0,0,0,10.226.728q7.018.087,10.341-.929Z" fill="#c3dbf3"/>
            </g>
          </g>
        </g>
        <g id="Group_53017" data-name="Group 53017" transform="translate(3.02 10.956)">
          <g id="Group_53016" data-name="Group 53016" transform="translate(0 0)">
            <path id="Path_45172" data-name="Path 45172" d="M22.179,27.038,26.134,0A64.814,64.814,0,0,1,0,0Q.531,3.762,1.139,8.3,2.788,20.6,3.878,27.164a71.636,71.636,0,0,0,9.138.553A40.176,40.176,0,0,0,22.179,27.038Z" transform="translate(0 1.697)" fill="rgba(102,204,255,0.5)"/>
            <path id="Path_45173" data-name="Path 45173" d="M26.134,1.7q-1.415-.378-2.854-.678A50.859,50.859,0,0,0,3.852.856Q1.935,1.208,0,1.7A64.814,64.814,0,0,0,26.134,1.7Z" transform="translate(0 0)" fill="rgba(65,174,228,0.5)"/>
          </g>
        </g>
        <g id="Group_53020" data-name="Group 53020" transform="translate(5.938 41.625)">
          <g id="Group_53019" data-name="Group 53019" transform="translate(0 0)">
            <g id="Group_53018" data-name="Group 53018">
              <path id="Path_45174" data-name="Path 45174" d="M14.232,3.83a8.416,8.416,0,0,0,3.6-.917q1.4-1.093,1.51-1.218A4.22,4.22,0,0,0,20.183,0q-2.88.917-10.1.967Q7.538.954,5.337.8A24.552,24.552,0,0,1,0,0Q.793,2.662,4.159,3.579a20.052,20.052,0,0,0,5.926.44A27.058,27.058,0,0,0,14.232,3.83Z" fill="url(#linear-gradient)"/>
            </g>
          </g>
        </g>
        <g id="Group_53023" data-name="Group 53023" transform="translate(5.67 40.155)">
          <g id="Group_53022" data-name="Group 53022" transform="translate(0 0)">
            <g id="Group_53021" data-name="Group 53021" transform="translate(0)">
              <path id="Path_45175" data-name="Path 45175" d="M19.287,1.909A3.814,3.814,0,0,0,20.5,1.482,4.726,4.726,0,0,0,20.682.59q.064-.553.077-.59a7.11,7.11,0,0,1-3.647,1.168,52.583,52.583,0,0,1-6.3.289q-4.492,0-6.629-.213A8.126,8.126,0,0,1,0,.013,11.547,11.547,0,0,0,.269,1.469q1.293.942,8.37,1.105A44.935,44.935,0,0,0,19.287,1.909Z" fill="#d2d4d5"/>
            </g>
          </g>
        </g>
        <g id="Group_53026" data-name="Group 53026" transform="translate(0 1.263)">
          <g id="Group_53025" data-name="Group 53025" transform="translate(0 0)">
            <g id="Group_53024" data-name="Group 53024" transform="translate(0 0)">
              <path id="Path_45176" data-name="Path 45176" d="M32.1,0h-.282A.025.025,0,0,1,31.8.013q-.258.421-4.275.779-4.684.414-11.454.414T4.62.791Q.605.422.333.013L.358,0H.013L0,.063Q0,.327.6.515a22.022,22.022,0,0,0,4.2.6q4.748.377,11.25.377t11.262-.377A21.954,21.954,0,0,0,31.5.515q.6-.188.6-.452Z" fill="#fff"/>
            </g>
          </g>
        </g>
        <g id="Group_53029" data-name="Group 53029" transform="translate(0.013 1.388)">
          <g id="Group_53028" data-name="Group 53028">
            <g id="Group_53027" data-name="Group 53027">
              <path id="Path_45177" data-name="Path 45177" d="M1.1.5A2.442,2.442,0,0,1,0,0L5.746,39.307l1.011.314Z" fill="url(#linear-gradient-2)"/>
            </g>
          </g>
        </g>
        <g id="Group_53031" data-name="Group 53031" transform="translate(2.918 3.46)">
          <g id="Group_53030" data-name="Group 53030" transform="translate(0 0)">
            <path id="Path_45178" data-name="Path 45178" d="M6.975.728Q1.358.711,0,0A303.381,303.381,0,0,0,4.787,36.03l3.775.163Q3.953,17.008,6.975.728Z" fill="rgba(255,255,255,0.3)"/>
          </g>
        </g>
      </g>
      <g id="Group_53101" data-name="Group 53101" transform="translate(0 30.26) rotate(-14.956)">
        <g id="Group_53034" data-name="Group 53034" transform="translate(13.199 82.032)">
          <g id="Group_53033" data-name="Group 53033" transform="translate(0 0)">
            <path id="Path_45179" data-name="Path 45179" d="M8,.207Q6.989.413,6.536.557A4.863,4.863,0,0,0,5.2,1.215,5.13,5.13,0,0,0,4.088,2.347a4.613,4.613,0,0,0-.72,1.193,4.478,4.478,0,0,0-.144,1.543v.35a2.775,2.775,0,0,0-1.481.247A2.867,2.867,0,0,0,.138,7.3,2.069,2.069,0,0,0,.056,8.519a2.471,2.471,0,0,0,.6,1.049,3.178,3.178,0,0,0,1.3.905,2.743,2.743,0,0,0,1.543.165A2.6,2.6,0,0,0,4.87,9.877,2.343,2.343,0,0,0,5.24,9.4q.265.18.617.391a8.451,8.451,0,0,0,1.358.72,4.181,4.181,0,0,0,1.337.288q.015.165.041.309a7.627,7.627,0,0,0,.185.741,2.78,2.78,0,0,0-1.193.967,2.93,2.93,0,0,0-.514,1.749v.267a2.072,2.072,0,0,0-.35.185,1.528,1.528,0,0,0-.72.987,1.607,1.607,0,0,0,.082.864,1.7,1.7,0,0,0,.37.6,1.6,1.6,0,0,0,.8.432,1.623,1.623,0,0,0,1.337-.226q.1.067.206.123a3.335,3.335,0,0,0,1.831.309,3.135,3.135,0,0,0,1.6-.432,2.429,2.429,0,0,0,.946-1.214q.057-.142.1-.288a3.086,3.086,0,0,0,1.4,1.852,4.256,4.256,0,0,0,2.325.679,3.605,3.605,0,0,0,1.872-.453,2.3,2.3,0,0,0,1.131-1.5,3.693,3.693,0,0,1,.144-.679,1.055,1.055,0,0,1,.309-.37q.247-.206.35-.309a2.019,2.019,0,0,0,.576-1.029,1.827,1.827,0,0,0-.123-1.152,1.712,1.712,0,0,0-.823-.823,1.559,1.559,0,0,0-1.131-.1L19,12.407q-.014-.117-.041-.247A1.8,1.8,0,0,0,17.707,10.8l-.062-.021a1.858,1.858,0,0,0-.206-.514L16.9,9.424a4.1,4.1,0,0,1-.288-.658q-.123-.35-.453-1.049l-.432-.885q-.761-1.584-1.3-2.551a3.844,3.844,0,0,0-.741-.946l-.309-.761q-.123-.309-.411-.987a2.259,2.259,0,0,0-.617-.8A3.062,3.062,0,0,0,11.248.31,6.837,6.837,0,0,0,9.7,0,8.89,8.89,0,0,0,8,.207Z" fill="#1d0d0c"/>
          </g>
        </g>
        <g id="Group_53036" data-name="Group 53036" transform="translate(74.184 86.366)">
          <g id="Group_53035" data-name="Group 53035" transform="translate(0 0)">
            <path id="Path_45180" data-name="Path 45180" d="M7.907,2.292A6.832,6.832,0,0,0,7,3.341,3.934,3.934,0,0,0,6.57,4.555a3.891,3.891,0,0,0-.021,1.317q-.123.329-.185.473a.848.848,0,0,1-.329.411,1.568,1.568,0,0,1-.843.082,2.55,2.55,0,0,0-1.152.185A.059.059,0,0,1,4,7.044a3.254,3.254,0,0,0-2.366.885A4.449,4.449,0,0,0,.4,9.43a3.71,3.71,0,0,0-.391,1.893,2.863,2.863,0,0,0,.761,1.769,2.453,2.453,0,0,0,1.625.885,2.542,2.542,0,0,0,2.057-.7,4.361,4.361,0,0,0,.946.473A5.484,5.484,0,0,0,6.755,14,5.72,5.72,0,0,0,8.3,14q.165-.041.309-.082a1.541,1.541,0,0,0,.72.35,1.826,1.826,0,0,0,1.111-.144,1.606,1.606,0,0,0,.823-.823,1.7,1.7,0,0,0,.123-1.111,1.091,1.091,0,0,0-.062-.226,2.877,2.877,0,0,0,.473-1.131q.062-.329.1-.741a4.735,4.735,0,0,0,1.09,0,5.7,5.7,0,0,0,.843-.144,1.209,1.209,0,0,0,.041.288,2.15,2.15,0,0,0,1.111,1.6,2.29,2.29,0,0,0,1.831.185A2.6,2.6,0,0,0,18.3,10.912a2.273,2.273,0,0,0,.453-1.461,3.449,3.449,0,0,0-.391-1.276,2.105,2.105,0,0,0-1.317-1.255,7.214,7.214,0,0,0,.206-.823,5.285,5.285,0,0,0-.041-2.078A5.367,5.367,0,0,0,14.881.646,3.251,3.251,0,0,0,13.3.008,4.229,4.229,0,0,0,12.1.132l-.37.082a5.329,5.329,0,0,0-1.049.062,3.548,3.548,0,0,0-2.14,1.131Z" fill="#1d0d0c"/>
          </g>
        </g>
        <g id="Group_53039" data-name="Group 53039" transform="translate(14.577 63.175) rotate(6.244)">
          <g id="Group_53038" data-name="Group 53038" transform="translate(0 0)">
            <g id="Group_53037" data-name="Group 53037">
              <path id="Path_45181" data-name="Path 45181" d="M9.013,5.143a8.534,8.534,0,0,1,.206-2.016q-.453-.6-.535-.679a6.831,6.831,0,0,0,.329,2.695m-1.5-3.621.041-.165-.247-.206A7.811,7.811,0,0,0,5.68.041.8.8,0,0,1,5.577,0a.519.519,0,0,0-.123.062Q4.919.37,3.767.905A7.138,7.138,0,0,0,2.224,1.934,5.55,5.55,0,0,0,1.2,3.436Q.949,3.97.517,5.184A8.141,8.141,0,0,0,0,7.386,8.172,8.172,0,0,0,.146,8.928q.165,1.029.288,1.728a22.957,22.957,0,0,0,3.909,6.336,7.4,7.4,0,0,0,1.214.8,3,3,0,0,0,1.275.391,1.365,1.365,0,0,0,1.214-.473,2.32,2.32,0,0,0,.473-1.275q.041-.288.082-.555a14.142,14.142,0,0,0-.288-1.913A7.8,7.8,0,0,0,8.026,13,11.274,11.274,0,0,0,6.112,9.546a2.709,2.709,0,0,0-.72-.679q-.123-.082-.35-.226A.4.4,0,0,1,4.9,8.455a3.124,3.124,0,0,0-1.44-.37.779.779,0,0,1-.309-.041q-.206-.082-.123-.267a.5.5,0,0,1,.226-.1,4.211,4.211,0,0,1,1.6.165q.226.082.411.165a2.168,2.168,0,0,1,1.893.8,10.58,10.58,0,0,1,1.481,1.79q-.082-.864-.226-1.728Q8.211,7.653,7.7,5.2A12.926,12.926,0,0,1,7.511,1.522Z" transform="translate(0.896 0.185)" fill="#a56b4e"/>
              <path id="Path_45182" data-name="Path 45182" d="M6.474.185A3.191,3.191,0,0,0,3.717.514,7.166,7.166,0,0,0,.549,4.238,4.959,4.959,0,0,0,.117,7.447a32.842,32.842,0,0,0,1.214,3.394q-.123-.7-.288-1.728A8.172,8.172,0,0,1,.9,7.571a8.141,8.141,0,0,1,.514-2.2q.432-1.214.679-1.749a5.55,5.55,0,0,1,1.029-1.5A7.138,7.138,0,0,1,4.663,1.09Q5.816.555,6.35.247A.519.519,0,0,1,6.474.185Z" fill="#b78871"/>
              <path id="Path_45183" data-name="Path 45183" d="M10.145,9.463,9.034,6.5a15.351,15.351,0,0,0-.926-2.078q-.123-.206-.638-.967-.247-.35-.576-.8l-.679-.885A8.534,8.534,0,0,0,6.01,3.785,6.831,6.831,0,0,1,5.681,1.09L5.66,1.07A10.924,10.924,0,0,0,4.549,0L4.508.165a12.926,12.926,0,0,0,.185,3.682q.514,2.448.72,3.662.144.864.226,1.728a10.58,10.58,0,0,0-1.481-1.79,2.168,2.168,0,0,0-1.893-.8q-.185-.082-.411-.165a4.211,4.211,0,0,0-1.6-.165.5.5,0,0,0-.226.1q-.082.185.123.267a.779.779,0,0,0,.309.041A3.124,3.124,0,0,1,1.9,7.1a.4.4,0,0,0,.144.185q.226.144.35.226a2.709,2.709,0,0,1,.72.679,11.274,11.274,0,0,1,1.913,3.456,7.8,7.8,0,0,1,.288.967A14.142,14.142,0,0,1,5.6,14.524q-.041.267-.082.555a2.32,2.32,0,0,1-.473,1.275,1.365,1.365,0,0,1-1.214.473,3,3,0,0,1-1.275-.391,7.4,7.4,0,0,1-1.214-.8,17.865,17.865,0,0,0,1.337,1.358.239.239,0,0,0,.062.041l2.119,1.687a3.388,3.388,0,0,1,.288.185,5.065,5.065,0,0,0,3,.885,5.6,5.6,0,0,0,1.769-.411,2.26,2.26,0,0,0,1.275-1.234,3.9,3.9,0,0,0,.206-1.234,18.033,18.033,0,0,0-.391-4.876A20.644,20.644,0,0,0,10.145,9.463Z" transform="translate(3.899 1.543)" fill="#84553e"/>
            </g>
          </g>
        </g>
        <g id="Group_53042" data-name="Group 53042" transform="translate(99.551 87.91) rotate(180)">
          <g id="Group_53041" data-name="Group 53041" transform="translate(0 0)">
            <g id="Group_53040" data-name="Group 53040">
              <path id="Path_45184" data-name="Path 45184" d="M9.013,13.046a8.534,8.534,0,0,0,.206,2.016q-.453.6-.535.679a6.831,6.831,0,0,1,.329-2.7m-1.5,3.621.041.165-.247.206A7.811,7.811,0,0,1,5.68,18.148a.8.8,0,0,0-.1.041.519.519,0,0,1-.123-.062q-.535-.309-1.687-.843a7.138,7.138,0,0,1-1.543-1.029,5.55,5.55,0,0,1-1.029-1.5Q.949,14.219.517,13A8.141,8.141,0,0,1,0,10.8,8.172,8.172,0,0,1,.146,9.261Q.311,8.232.434,7.533A22.957,22.957,0,0,1,4.343,1.2a7.4,7.4,0,0,1,1.214-.8A3,3,0,0,1,6.832,0,1.365,1.365,0,0,1,8.046.476a2.32,2.32,0,0,1,.473,1.276q.041.288.082.555A14.142,14.142,0,0,1,8.314,4.22a7.8,7.8,0,0,1-.288.967A11.274,11.274,0,0,1,6.112,8.644a2.709,2.709,0,0,1-.72.679q-.123.082-.35.226a.4.4,0,0,0-.144.185,3.124,3.124,0,0,1-1.44.37.779.779,0,0,0-.309.041q-.206.082-.123.267a.5.5,0,0,0,.226.1,4.211,4.211,0,0,0,1.6-.165q.226-.082.411-.165a2.168,2.168,0,0,0,1.893-.8,10.58,10.58,0,0,0,1.481-1.79q-.082.864-.226,1.728-.206,1.214-.72,3.662A12.927,12.927,0,0,0,7.511,16.667Z" transform="translate(0.896 2.973)" fill="#a56b4e"/>
              <path id="Path_45185" data-name="Path 45185" d="M6.474,10.657a3.191,3.191,0,0,1-2.757-.329A7.166,7.166,0,0,1,.549,6.6,4.959,4.959,0,0,1,.117,3.394,32.842,32.842,0,0,1,1.331,0q-.123.7-.288,1.728A8.172,8.172,0,0,0,.9,3.271a8.141,8.141,0,0,0,.514,2.2q.432,1.214.679,1.749a5.55,5.55,0,0,0,1.029,1.5A7.138,7.138,0,0,0,4.663,9.751q1.152.535,1.687.843A.519.519,0,0,0,6.474,10.657Z" transform="translate(0 10.505)" fill="#b78871"/>
              <path id="Path_45186" data-name="Path 45186" d="M10.145,10.341,9.034,13.3a15.351,15.351,0,0,1-.926,2.078q-.123.206-.638.967-.247.35-.576.8l-.679.885a8.534,8.534,0,0,1-.206-2.016,6.831,6.831,0,0,0-.329,2.7l-.021.021A10.925,10.925,0,0,1,4.549,19.8l-.041-.165a12.927,12.927,0,0,1,.185-3.682q.514-2.448.72-3.662.144-.864.226-1.728a10.58,10.58,0,0,1-1.481,1.79,2.168,2.168,0,0,1-1.893.8q-.185.082-.411.165a4.211,4.211,0,0,1-1.6.165.5.5,0,0,1-.226-.1q-.082-.185.123-.267a.779.779,0,0,1,.309-.041,3.124,3.124,0,0,0,1.44-.37.4.4,0,0,1,.144-.185q.226-.144.35-.226a2.709,2.709,0,0,0,.72-.679A11.274,11.274,0,0,0,5.023,8.16a7.8,7.8,0,0,0,.288-.967A14.142,14.142,0,0,0,5.6,5.28q-.041-.267-.082-.555a2.32,2.32,0,0,0-.473-1.276,1.365,1.365,0,0,0-1.214-.473,3,3,0,0,0-1.276.391,7.4,7.4,0,0,0-1.214.8A17.865,17.865,0,0,1,2.677,2.811a.239.239,0,0,1,.062-.041L4.858,1.083A3.388,3.388,0,0,0,5.146.9a5.066,5.066,0,0,1,3-.885A5.6,5.6,0,0,1,9.919.425a2.26,2.26,0,0,1,1.276,1.234A3.9,3.9,0,0,1,11.4,2.894a18.033,18.033,0,0,1-.391,4.876A20.645,20.645,0,0,1,10.145,10.341Z" transform="translate(3.899 0)" fill="#84553e"/>
            </g>
          </g>
        </g>
        <g id="Group_53048" data-name="Group 53048" transform="translate(1.375 1.264)">
          <g id="Group_53044" data-name="Group 53044" transform="translate(19.354 26.335)">
            <g id="Group_53043" data-name="Group 53043" transform="translate(0 0)">
              <path id="Path_45187" data-name="Path 45187" d="M9.8,16.828Q2.659,14.056,0,10.307A17.8,17.8,0,0,0,6.38,16.5q9.249,4.936,17.531,5.04.978.01,1.938-.041,8.607-.491,16.962-6.4Q48.87,10.823,53.441,0,47.5,10.871,40.762,14.833A50.78,50.78,0,0,1,33.84,18.31a24.968,24.968,0,0,1-7.7,1.337A41.191,41.191,0,0,1,9.8,16.828Z" transform="translate(9.796 62.5)" fill="#b78871"/>
              <path id="Path_45188" data-name="Path 45188" d="M69.233,13.557A17.668,17.668,0,0,0,63.127,6.81,34.534,34.534,0,0,0,54.846,3,55.043,55.043,0,0,0,37.9,0L35.561.082A58.9,58.9,0,0,0,18.327,3.971a39.872,39.872,0,0,0-8.621,4.3,20.868,20.868,0,0,0-6.683,7.2A22.734,22.734,0,0,0,.842,21.6a43.6,43.6,0,0,0-.777,6.563A73.316,73.316,0,0,0,.391,38.244q.155,1.661.35,3.312a.4.4,0,0,0,.016.165q.128,1.368.325,2.757.248,1.712.506,3.415.46,2.925,1.082,5.74,2.555,11.835,6.8,18.68l.114.206a1.342,1.342,0,0,0,.212.288q2.659,3.75,9.8,6.522a41.191,41.191,0,0,0,16.333,2.818,24.969,24.969,0,0,0,7.7-1.337,50.783,50.783,0,0,0,6.921-3.477Q57.292,73.371,63.237,62.5a95.637,95.637,0,0,0,3.946-11.562q.639-2.391,1.229-4.835a.187.187,0,0,1,.022-.082q.322-1.394.654-2.757.156-1,.373-2,.528-2.7.966-5.431a69.518,69.518,0,0,0,1-9.834,43.26,43.26,0,0,0-.4-6.46A20.508,20.508,0,0,0,69.233,13.557Z" fill="#a56b4e"/>
            </g>
          </g>
          <g id="Group_53047" data-name="Group 53047" transform="translate(0 0)">
            <g id="Group_53046" data-name="Group 53046">
              <g id="Group_53045" data-name="Group 53045">
                <path id="Path_45189" data-name="Path 45189" d="M15.343,12.592C14.5,12.88,28.3,26.677,27.679,26.842,26.073,27.171,6.24,41.86,5.347,43.369a6.612,6.612,0,0,0-.486,6.172,11.648,11.648,0,0,0-1.549.453A4.772,4.772,0,0,0,.177,53.676c-.42,1.742,5.387-6.334,6.458-5.072a2.162,2.162,0,0,0-.915,2.078,2.229,2.229,0,0,0,1.205,1.934,1.441,1.441,0,0,0,1.338,0,2.151,2.151,0,0,0,1.016-2.86l-2.71,8.96a8.32,8.32,0,0,0,.009,1.152c.111,1.81,4.952-1.393,6.156-.158a2.277,2.277,0,0,0-.721,2.284c.168.686,5.452,4.645,5.718,2.938.064.082.631,3.783.709,3.865.363.37.055,2.6.517,2.765.581.151-.314.327.2.053l1.432,6.851q-.24-5.717-.117-10.43a49.863,49.863,0,0,1,.311-5.575,4.387,4.387,0,0,0,.976-1.378A3.048,3.048,0,0,0,22,59.642,5.288,5.288,0,0,0,20.117,56a4.081,4.081,0,0,0,.984-.206,1.446,1.446,0,0,0,.94-1.522,3.53,3.53,0,0,0-.434-1.666,5.715,5.715,0,0,0,4.684-1.193,7.944,7.944,0,0,0,3.142-5.452l2.8.453q-.031.411-.042.823a6.919,6.919,0,0,0,.5,2.921,3.96,3.96,0,0,0-1.705,1.79,5.042,5.042,0,0,0-.335,3.518A1.507,1.507,0,0,0,29.14,55.3a1.821,1.821,0,0,0-.949,2.592A1.461,1.461,0,0,0,29.2,58.9q2.058.658,2.483-1.769A3.272,3.272,0,0,0,33.039,58a3.866,3.866,0,0,0,3.873-.741,4.228,4.228,0,0,0,1.591-4.2l.64-.041a7.083,7.083,0,0,0,4.68-3.271l.561-2.284q.6.514,1.251.967a4.313,4.313,0,0,0,3.491.843l.162.658A14.682,14.682,0,0,0,47.442,51a2.048,2.048,0,0,0-.825,1.708q-.1,2.9,2.329,3.209a2.059,2.059,0,0,0-.139.7q.086,2,1.86,2.1a1.622,1.622,0,0,0,1.358-.741q1.408-1.852-.273-3.189l.9-2.407a7.013,7.013,0,0,0,4.649-.658,3.443,3.443,0,0,0,1.925-2.53,6.978,6.978,0,0,0,3.734-1.522,11.323,11.323,0,0,0,1.353-1.3,4.916,4.916,0,0,0,1.239-3.744l.882-.123q.264.576.547,1.173a2.385,2.385,0,0,0,1.246,1.173,8.747,8.747,0,0,0,5.645.185l.766,1.214a6.319,6.319,0,0,0-.8.782,5.731,5.731,0,0,0-.938,1.481,6.182,6.182,0,0,0-.106,4.649,4.634,4.634,0,0,0,.492,1.008,7.126,7.126,0,0,0,2.137,2.16,3.491,3.491,0,0,0,4.514-.1,7.532,7.532,0,0,1-.061.761,3.534,3.534,0,0,0,.706,2.674,4.491,4.491,0,0,0,3.783,1.852,2.41,2.41,0,0,0,1.268-.391,3.971,3.971,0,0,1,.913-.555q.585,16.005,1.794,16.335.773.206,2.9-3.95,1.094-2.057,2.127-4.094a4.291,4.291,0,0,0,3.423.391,3.91,3.91,0,0,0,2.12-1.625l1.469,1.769.93-1.152a1.822,1.822,0,0,0,.318-.7,6.821,6.821,0,0,0-.831-4.691l.671-.453a4.773,4.773,0,0,0,1.179,1.44,4.354,4.354,0,0,0,1.971.946C106.534,64.977,16.164,12.277,15.343,12.592Z" fill="#84553e"/>
              </g>
            </g>
          </g>
        </g>
        <g id="Group_53050" data-name="Group 53050" transform="translate(18.031 44.69)">
          <g id="Group_53049" data-name="Group 53049" transform="translate(0 0)">
            <path id="Path_45190" data-name="Path 45190" d="M.923,7.863A56.982,56.982,0,0,0,.038,18.787q.123,1.736.247,3.168a.158.158,0,0,1,.021.062.456.456,0,0,0,.021.144l.329,3A35.429,35.429,0,0,0,1.993,31.4a13.893,13.893,0,0,0,1.09,2.613.239.239,0,0,0,.041.062.158.158,0,0,1,.021.062.018.018,0,0,1,.021.021q.123.123.226.247a.669.669,0,0,0,.576.226q.576-.1.555-1.193l-.37-10.7Q4.112,18.911,3.433,9.2,2.733-.2,2.61,0,1.952.91.923,7.863m76.53,8.7q.761-6.995.391-8-.062-.247-3.168,8.64-3.23,9.2-4.279,12.878L67.27,40.306q-.288,1.07.206,1.3a.81.81,0,0,0,.679-.062,1.075,1.075,0,0,1,.226-.165.158.158,0,0,1,.062-.021.026.026,0,0,1,0-.041.612.612,0,0,1,.082-.062,14.113,14.113,0,0,0,1.708-2.242,36.469,36.469,0,0,0,2.942-5.678l1.09-2.8q.021-.062.041-.144a.084.084,0,0,1,.021-.062v.021q.535-1.358,1.07-3.024A55.316,55.316,0,0,0,77.453,16.565Z" fill="#1d0d0c"/>
          </g>
        </g>
        <g id="Group_53063" data-name="Group 53063" transform="translate(43.879 95.816)">
          <g id="Group_53052" data-name="Group 53052" transform="translate(1.036 0.857)">
            <g id="Group_53051" data-name="Group 53051" transform="translate(0 0)">
              <path id="Path_45191" data-name="Path 45191" d="M10.826,1.614A17.982,17.982,0,0,1,0,1.679a11.869,11.869,0,0,0,2.573,4q2,2.221,6.344,1.306Q13.285,6.086,14.608,0A25.524,25.524,0,0,1,10.826,1.614Z" fill="#86303c"/>
            </g>
          </g>
          <g id="Group_53060" data-name="Group 53060" transform="translate(0 0.64)">
            <g id="Group_53059" data-name="Group 53059" transform="translate(0 0)">
              <path id="Path_45194" data-name="Path 45194" d="M0,1.086l.079.083.04.063L.278,1.4l.06.041.04.063.139.125.319.228.079.083.3.186,1.019.45.16.04.14.061,2.042.394.381.016q.481.036.762.032a2.435,2.435,0,0,0,.381.016l.381-.005a2.639,2.639,0,0,0,.4-.027l.4-.006a2.454,2.454,0,0,1,.381-.026l.1-.022h.1l3.031-.506.081-.043.542-.134,3.118-1.309.04-.043.06-.022L15.6.429l.444-.365q.08,0,.021-.064h-.04L14.861.375l-.1.044-2.773.756-.16,0-4.034.6-.08.022-.5.028a2.277,2.277,0,0,1-.361.026l-.762.053a2.277,2.277,0,0,1-.361.026l-.381.005A2.107,2.107,0,0,1,5,1.967L3.962,1.961,3.8,1.942l-.18,0Q3.2,1.908,3,1.911L1.319,1.6l-.06-.02-.04-.021-.3-.1-.16-.082-.08-.02L.54,1.29.46,1.27.4,1.229.14,1.085.1,1.043l-.04-.021Q.041,1,0,1.044Z" fill="#231915"/>
            </g>
          </g>
          <g id="Group_53062" data-name="Group 53062" transform="translate(14.668 0)">
            <g id="Group_53061" data-name="Group 53061" transform="translate(0 0)">
              <path id="Path_45195" data-name="Path 45195" d="M.261,0,.181.023h-.1L.04.046,0,.089.02.11.1.151H.14L.16.171.3.212.6.334.918.541l.04.042L1,.6l.02.021h.02l.238.271a.52.52,0,0,1,.118.231v.021l.02.042v.063l.02.063,0,.443q-.02,0-.021.085l-.083.381v.063L1.3,2.33v.042q-.04.043.02.042l.04-.022.1-.107.041-.064.122-.234.021-.064.082-.17.021-.064.043-.338V1.183L1.757.994A1.067,1.067,0,0,0,1.619.658L1.381.387,1.3.325,1.261.3,1.241.283,1.161.242,1.1.2.822.078.762.058H.7L.562.018h-.1L.342,0Z" transform="translate(0 0)" fill="#231915"/>
            </g>
          </g>
        </g>
        <g id="Group_53068" data-name="Group 53068" transform="translate(47.409 80.755) rotate(6.244)">
          <g id="Group_53065" data-name="Group 53065" transform="translate(0.704 1.056)">
            <g id="Group_53064" data-name="Group 53064" transform="translate(0 0)">
              <path id="Path_45196" data-name="Path 45196" d="M3.227.763H3.168L3.109.792H3.051L2.992.821h-.5V.851H2.347L1.965.968a1.9,1.9,0,0,0-.557.235l-.264.176a.862.862,0,0,0-.235.205L.792,1.7l-.205.264-.264.44-.176.469-.088.44L0,4.723l.029.088V4.9l.029.059V5.1l.029.147L.147,5.4l.059.293.352.792.5.645.352.352.557.381.528.235.792.205h.293a.052.052,0,0,0,.059-.059L2.9,7.48l-.088-.117L2.7,7.246,2.611,7.1,2.552,7.04l-.029-.059-.117-.147-.029-.088-.059-.088L2.288,6.6l-.059-.088L2.2,6.424l-.059-.059-.235-.7-.088-.411-.029-.088V5.075L1.76,4.957V4.605l-.029-.059.029-.968.029-.088V3.4l.088-.264V3.051l.088-.235.029-.059L2.053,2.7l.029-.088.088-.117.059-.059.029-.059.235-.205.147-.088.088-.029.059-.029V1.995h.029l.059-.029H2.9L3.2,1.819l.088-.059L3.4,1.7l.088-.059.176-.176.059-.029.029-.059.176-.264L3.989.939,4.019.909V.88L4.077.7V.587L4.107.44,4.077.352V.176L4.019.059,3.96,0,3.931.029,3.872.147,3.667.44A.717.717,0,0,1,3.344.7Z" fill="#b78871"/>
            </g>
          </g>
          <g id="Group_53067" data-name="Group 53067" transform="translate(0 0)">
            <g id="Group_53066" data-name="Group 53066" transform="translate(0 0)">
              <path id="Path_45197" data-name="Path 45197" d="M4.723.235,4.605.029,4.547,0,4.517.029,4.488.264V.381L4.459.5V.88L4.429.939,4.371,1v.029L4.195,1.2l-.059.029-.029.029-.059.029H4.019l-.029.029-.117.059-.088.029-.147.029-.088.029H3.461L3.315,1.5H3.168l-.029.029H2.816l-.059.029a2.446,2.446,0,0,0-.968.293l-.411.293-.352.323L.88,2.64l-.059.117-.088.088v.029H.7q.029,0,0,.029v.029l-.059.088-.059.117-.029.029-.088.176-.059.088-.176.44-.205.792v.117L0,4.987v.763L.029,5.9v.088L.059,6.1v.117l.117.557.264.645L.5,7.539l.059.088a2.875,2.875,0,0,0,.557.733l.088.088.088.059.176.147.059.029.029.029.088.059.411.205.088.059.059.029h.059l.7.235h.088l.616.088h.411l.205-.029L4.341,9.3,4.312,9.27l-.88-.44-.088-.059-.088-.029L3.2,8.683l-.088-.029-.088-.059-.059-.059-.088-.059-.059-.029-.147-.117L2.611,8.3l-.352-.323L2.229,7.92l-.235-.235L1.965,7.6l-.176-.264L1.76,7.275,1.672,7.04A2.574,2.574,0,0,1,1.5,6.453l-.088-.5.029-1,.029-.088V4.811L1.5,4.752V4.635l.029-.059L1.76,3.9l.029-.029V3.843l.029-.059L1.877,3.7l.029-.059.176-.264.411-.44.117-.088H2.64l.029-.029L2.9,2.7h.029l.029-.029h.059l.029-.029.323-.088H3.4l.059-.029.205-.059.117-.059.088-.059.117-.029L4.195,2.2l.381-.323.088-.088.059-.117.059-.088.029-.029V1.525l.029-.059a1.1,1.1,0,0,0,.117-.5V.88L4.811.44,4.752.323Z" fill="#84553e"/>
            </g>
          </g>
        </g>
        <g id="Group_53085" data-name="Group 53085" transform="translate(28.708 68.281) rotate(4.497)">
          <g id="Group_53074" data-name="Group 53074" transform="translate(35.911 2.674)">
            <g id="Group_53073" data-name="Group 53073" transform="matrix(0.999, 0.044, -0.044, 0.999, 0.433, 0)">
              <g id="Group_53070" data-name="Group 53070" transform="translate(0 0)">
                <g id="Group_53069" data-name="Group 53069">
                  <path id="Path_45198" data-name="Path 45198" d="M7.571,4.942A5.58,5.58,0,0,0,6.452,1.436,3.268,3.268,0,0,0,3.786,0,3.317,3.317,0,0,0,1.1,1.436,5.644,5.644,0,0,0,0,4.942,5.564,5.564,0,0,0,1.1,8.429,3.305,3.305,0,0,0,3.786,9.884,3.257,3.257,0,0,0,6.452,8.429,5.5,5.5,0,0,0,7.571,4.942Z" fill="#231915"/>
                </g>
              </g>
              <g id="Group_53072" data-name="Group 53072" transform="translate(4.046 4.795)">
                <g id="Group_53071" data-name="Group 53071" transform="translate(0 0)">
                  <path id="Path_45199" data-name="Path 45199" d="M1.829,1.434a1.368,1.368,0,0,0-.037-.9.69.69,0,0,0-.5-.5A.762.762,0,0,0,.579.166,1.422,1.422,0,0,0,.057.912a1.3,1.3,0,0,0,.037.876.782.782,0,0,0,.541.522.7.7,0,0,0,.69-.149A1.405,1.405,0,0,0,1.829,1.434Z" fill="#fff"/>
                </g>
              </g>
            </g>
          </g>
          <g id="Group_53076" data-name="Group 53076" transform="translate(32.604 0)">
            <g id="Group_53075" data-name="Group 53075" transform="translate(0 0)">
              <path id="Path_45200" data-name="Path 45200" d="M7.12.171,5.836.535,5.751.578,5.558.642l-1.626.9L2.884,2.4l-.77.813-.428.556-.6.92L.359,6.29.1,7.252.017,7.83q-.043.043.021.043l.043-.021L.958,6.418l.064-.128.727-.92.064-.064.043-.064.535-.578.064-.086.086-.064.3-.3.171-.128.15-.15.171-.128L3.44,3.7q.02,0,0,.021L3.5,3.658l.193-.15.043-.021.043-.043,1.07-.685.107-.043L5,2.674l.171-.064.086-.064.214-.107.792-.3.043-.021.77-.214.6-.107h.043l.064-.021,1.84-.043.963.15.107.043.128.021.043.021,1.177.406.107.064.214.086.086.064.214.107.193.128.107.043,1.818,1.391.214.214.086.064.128.15.15.128,2.118,2.4v.021h.064V7.188l-.792-1.861L16.661,5.2l-.086-.171-.043-.064-.043-.086-.963-1.433-.086-.086-.128-.193-.834-.877-1.027-.834-.235-.15-.107-.086L12.49.877,12.425.834,12.361.813,12.1.685,10.992.278l-.15-.021A5.311,5.311,0,0,0,9.666.043L9.067,0l-1.5.086L7.5.107H7.441L7.419.128Z" fill="#231915"/>
            </g>
          </g>
          <g id="Group_53082" data-name="Group 53082" transform="translate(5.045 2.717)">
            <g id="Group_53081" data-name="Group 53081" transform="translate(0 0)">
              <g id="Group_53078" data-name="Group 53078">
                <g id="Group_53077" data-name="Group 53077">
                  <path id="Path_45201" data-name="Path 45201" d="M7.571,4.942A5.58,5.58,0,0,0,6.453,1.436,3.268,3.268,0,0,0,3.786,0,3.317,3.317,0,0,0,1.1,1.436,5.644,5.644,0,0,0,0,4.942,5.564,5.564,0,0,0,1.1,8.429,3.305,3.305,0,0,0,3.786,9.884,3.257,3.257,0,0,0,6.453,8.429,5.5,5.5,0,0,0,7.571,4.942Z" fill="#231915"/>
                </g>
              </g>
              <g id="Group_53080" data-name="Group 53080" transform="translate(4.046 4.795)">
                <g id="Group_53079" data-name="Group 53079" transform="translate(0 0)">
                  <path id="Path_45202" data-name="Path 45202" d="M1.829,1.434a1.368,1.368,0,0,0-.037-.9.69.69,0,0,0-.5-.5A.762.762,0,0,0,.579.166,1.422,1.422,0,0,0,.057.912a1.3,1.3,0,0,0,.037.876.782.782,0,0,0,.541.522.7.7,0,0,0,.69-.149A1.405,1.405,0,0,0,1.829,1.434Z" fill="#fff"/>
                </g>
              </g>
            </g>
          </g>
          <g id="Group_53084" data-name="Group 53084" transform="translate(0 0.428)">
            <g id="Group_53083" data-name="Group 53083" transform="translate(0 0)">
              <path id="Path_45203" data-name="Path 45203" d="M2.285,2.888l-.064.086-.235.257L1.044,4.578.873,4.9.83,4.963l-.021.043-.021.021-.128.3-.086.128L.017,6.91q-.043.043.021.043l.043-.021.171-.193.086-.128.706-.877L2.927,3.851l.043-.021.043-.043.257-.193.043-.043.043-.021,1.2-.792L4.638,2.7l.021-.021.513-.257L5.3,2.375l.021-.021.727-.278.107-.021.064-.021.043-.021,1.07-.235h.107L7.7,1.733h.235l.128-.021h.856l.064.021h.171l.128.021h.128l.471.086h.064l.064.021.257.043.128.043.706.171,1.369.535.107.064.107.043.107.064.064.021.043.043a9.357,9.357,0,0,1,.813.471l.727.513.086.086.107.064.086.086h.021l.214.193a.629.629,0,0,1,.171.15l.321.257.064.086.064.064.086.064.449.492.128.107.813,1.091.021.064.086.107.021.064.043.043L17.282,7l.043.107.064.086.171.342.043.128.128.235.043.021q.064,0,.021-.043l-.021-.406L17.41,6.012l-.128-.3L16.255,3.979l-.642-.749-.021-.043H15.57V3.166L14.565,2.2,14.5,2.161l-.043-.021-.77-.578L12.447.877,12.169.77,12.04.706,10.5.214,10.35.193,10.286.171h-.064L9.473.043h-.15L8.7,0l-1.5.107L7.163.128H7.12L7.056.15l-.3.043L5.366.642,4.98.813l-.257.15L4.66.984l-.086.043-.685.428L3.847,1.5l-.064.043q-.128.107-.406.321l-.214.15Z" fill="#231915"/>
            </g>
          </g>
        </g>
        <g id="Group_53088" data-name="Group 53088" transform="matrix(0.828, 0.56, -0.56, 0.828, 67.368, 59.072)">
          <g id="Group_53087" data-name="Group 53087" transform="translate(0 0)">
            <g id="Group_53086" data-name="Group 53086">
              <path id="Path_45204" data-name="Path 45204" d="M10.817.068Q6.538-.445.377,2.892-.586,4.347.912,5.074l1.647-.727A28.334,28.334,0,0,1,6.752,3.063q6.8-1.5,11.552,1.091Q14.518.518,10.817.068Z" fill="#1d0d0c"/>
            </g>
          </g>
        </g>
        <g id="Group_53091" data-name="Group 53091" transform="translate(42.328 61.63) rotate(151.752)">
          <g id="Group_53090" data-name="Group 53090" transform="translate(0 0)">
            <g id="Group_53089" data-name="Group 53089">
              <path id="Path_45205" data-name="Path 45205" d="M10.816,5.006Q6.538,5.519.377,2.182-.586.727.912,0L2.559.727A28.334,28.334,0,0,0,6.752,2.011Q13.555,3.508,18.3.92,14.517,4.557,10.816,5.006Z" fill="#1d0d0c"/>
            </g>
          </g>
        </g>
        <g id="Group_53098" data-name="Group 53098" transform="translate(0 0)">
          <g id="Group_53093" data-name="Group 53093" transform="translate(0.142 0)">
            <g id="Group_53092" data-name="Group 53092" transform="translate(0)">
              <path id="Path_45206" data-name="Path 45206" d="M33.594,3.557a7.022,7.022,0,0,0-2.216,1,4.451,4.451,0,0,0-1.946,3.6,5.411,5.411,0,0,0,.7,3.127A6.873,6.873,0,0,0,32.3,13.561a7.552,7.552,0,0,0-3.626-1.333,9.43,9.43,0,0,0-3.848.964q-.121-3.209-3.69-3.836a5.571,5.571,0,0,0-2.688.117,2.416,2.416,0,0,0-1.679,1.2,2.573,2.573,0,0,0-3.408-.244,1.237,1.237,0,0,0-.444.505,2.925,2.925,0,0,0,.488,3.875.75.75,0,0,0,.589.228A1.95,1.95,0,0,1,15,15.607a4.37,4.37,0,0,0,.305,1.674q1.779,4.463,6.142,4.486l.024,1.984a3.494,3.494,0,0,1-1.09-.8,4.232,4.232,0,0,0-3.027-1.579,6.345,6.345,0,0,0-6.034,3.14A3.731,3.731,0,0,0,9.932,23.3a2.715,2.715,0,0,0-2.478-.012,4.3,4.3,0,0,0-2.505,4.363,5.318,5.318,0,0,0,1.17,3.325q1.876,2.343,4.223.55a5.98,5.98,0,0,0,.476.653,6.75,6.75,0,0,0,5.4,2.7,8.118,8.118,0,0,0-1.005.362,9.408,9.408,0,0,0-3.1,2.194,14.252,14.252,0,0,0-1.891.236,5.575,5.575,0,0,0-3.929,2.548,6.909,6.909,0,0,0-.929,6.272,9.8,9.8,0,0,0-1.562.363A4.87,4.87,0,0,0,.4,50.385a5.071,5.071,0,0,0,.645,4.671A2.237,2.237,0,0,0,0,57.108,2.274,2.274,0,0,0,1.06,59.166a1.339,1.339,0,0,0,1.32.094,2.216,2.216,0,0,0,1.227-2.844l2.809-.439a9.98,9.98,0,0,0-.079,1.192,7.14,7.14,0,0,0,1.638,4.8,2.343,2.343,0,0,0-.884,2.27,1.381,1.381,0,0,0,1.1,1.276q2.185.631,2.962-1.832l1.037.054a6.49,6.49,0,0,0-1.76,6.316,3.366,3.366,0,0,0,.422,1.021c1.067,1.6,2.118,2.913,3.9,3.426a11.909,11.909,0,0,1,.256-5.545,1.913,1.913,0,0,0,.19.261,3.11,3.11,0,0,0,1.17.91,2.1,2.1,0,0,0,1.659-.067L20.736,76.6q-.246-1.917-.32-7.848-.058-6.281-.116-7.916a4.612,4.612,0,0,0,1.064-1.349A3.082,3.082,0,0,0,21.7,58.02a5.536,5.536,0,0,0-1.6-3.852,3.875,3.875,0,0,0,.983-.136,1.486,1.486,0,0,0,1.06-1.493,3.774,3.774,0,0,0-.319-1.716,5.647,5.647,0,0,0,4.758-.9A8.219,8.219,0,0,0,30.1,44.581l2.756.672q-.057.409-.1.819a7.439,7.439,0,0,0,.282,3.035,3.918,3.918,0,0,0-1.818,1.708,5.243,5.243,0,0,0-.6,3.571,1.42,1.42,0,0,0-1.483-.271q-1.677.623-1.13,2.583a1.488,1.488,0,0,0,.918,1.1q2.006.8,2.6-1.631a3.584,3.584,0,0,0,1.289.98,3.815,3.815,0,0,0,3.909-.484,4.416,4.416,0,0,0,1.895-4.18l.646,0a7.113,7.113,0,0,0,4.89-3.016l.723-2.281q.557.556,1.172,1.075a4.275,4.275,0,0,0,3.414,1.111l.115.669a15.311,15.311,0,0,0-1.909.978,2.082,2.082,0,0,0-.953,1.687q-.3,2.951,2.094,3.433a1.876,1.876,0,0,0-.176.71q-.071,2.039,1.685,2.268a1.62,1.62,0,0,0,1.409-.642q1.538-1.79-.042-3.286l1.076-2.4a6.724,6.724,0,0,0,4.668-.347,3.5,3.5,0,0,0,2.1-2.43,6.978,6.978,0,0,0,3.826-1.3,12.385,12.385,0,0,0,1.449-1.238,5.026,5.026,0,0,0,1.492-3.734l.9-.059q.21.614.456,1.23a2.5,2.5,0,0,0,1.15,1.3,8.518,8.518,0,0,0,5.6.587l.684,1.288a7.887,7.887,0,0,0-.844.745A5.774,5.774,0,0,0,73.2,50.286a6.436,6.436,0,0,0-.422,4.739,4.352,4.352,0,0,0,.418,1.062,7.211,7.211,0,0,0,1.963,2.37,3.418,3.418,0,0,0,4.506.219q-.036.369-.109.756a3.68,3.68,0,0,0,.5,2.782,4.443,4.443,0,0,0,3.634,2.18,2.287,2.287,0,0,0,1.289-.321,4.031,4.031,0,0,1,.963-.489q-.56,16.395.6,16.809.765.261,3.189-3.819,1.221-2.039,2.4-4.04a4.18,4.18,0,0,0,3.388.635,3.842,3.842,0,0,0,2.23-1.513l1.324,1.912,1.023-1.1a1.8,1.8,0,0,0,.355-.7,7.189,7.189,0,0,0-.484-4.845l.686-.405a4.825,4.825,0,0,0,1.073,1.543,4.339,4.339,0,0,0,1.905,1.107,4,4,0,0,0,4.44-2.263,4.162,4.162,0,0,0,.366-3.608q-1.1-3.093-4.028-2.931a5.009,5.009,0,0,0-.224-2.7,4.818,4.818,0,0,0-3.366-3.276,5.182,5.182,0,0,0,1.241-1.315,7.528,7.528,0,0,0,1.1-2.833,5.057,5.057,0,0,0,1.441-.227,6.552,6.552,0,0,0,2.1-1.109,5.609,5.609,0,0,0,1.443,1.053,3.236,3.236,0,0,0,2.369.211,3.214,3.214,0,0,0,2.064,1.7,3.287,3.287,0,0,0,2.583-.7,3.035,3.035,0,0,0,1.1-1.924q.426-2.55-1.85-2.982a4.892,4.892,0,0,0,.1-3.42,3.186,3.186,0,0,0-.706-1.248,4.525,4.525,0,0,0-5.545-1.181q-.625-.974-1.313-1.849a1.8,1.8,0,0,0-.739-.528,8.284,8.284,0,0,0-5.981.357.944.944,0,0,0,.184-.978,1.752,1.752,0,0,0-.527-.864,6.773,6.773,0,0,0,3.178-.722,4.41,4.41,0,0,0,1.871-1.7,1.181,1.181,0,0,0,1.376.078,1.675,1.675,0,0,0,.876-2,1.622,1.622,0,0,0-1.812-1.513,3.409,3.409,0,0,0-.789-1.316A4.6,4.6,0,0,0,99.5,28.34a16.386,16.386,0,0,0-1.582-1.476,5.674,5.674,0,0,0-3.434-1.278,5.138,5.138,0,0,0,.321-2.764,3.007,3.007,0,0,0-.278-.846,3.436,3.436,0,0,0-3.237-2.007l1.3-1.352a3.156,3.156,0,0,0,1.953.986,4.032,4.032,0,0,0,2.744-.506,3.471,3.471,0,0,0,2.334,2.81q1.6.507,1.99-1.447a2.117,2.117,0,0,0-1.162-2.664,3.626,3.626,0,0,0-.454-3.109,5.1,5.1,0,0,0-5.781-2.458A6.338,6.338,0,0,0,90.145,7.85a6.528,6.528,0,0,0-6.7,1.5,8.037,8.037,0,0,0-5.608-1.64,8.576,8.576,0,0,0-1.481.266,4.893,4.893,0,0,0-2.666,2.308q-.268-.391-.539-.741a5.774,5.774,0,0,0-3.483-2.252,5.338,5.338,0,0,0,.858-3.49Q70.214.313,67.1.028q-3.507-.333-4.92,3.323-.593,0-1.187.018a7.419,7.419,0,0,0-6.209,3.458,5.277,5.277,0,0,0-2.123-2.01A8.078,8.078,0,0,0,50.491,4a6.294,6.294,0,0,0-6.222,2.487,3.639,3.639,0,0,0-2.427-.917A3.332,3.332,0,0,0,39.3,6.98a2.911,2.911,0,0,0-.434-.712,9.495,9.495,0,0,0-2.173-2.055A3.767,3.767,0,0,0,33.594,3.557Z" fill="#1d0d0c"/>
            </g>
          </g>
          <g id="Group_53095" data-name="Group 53095" transform="translate(5.207 15.885)">
            <g id="Group_53094" data-name="Group 53094" transform="translate(0 0)">
              <path id="Path_45207" data-name="Path 45207" d="M7.848,36.427a6.639,6.639,0,0,0-2.533,3.349q-1.189,3.755.022,5.907A3,3,0,0,0,6.8,47.088a3.786,3.786,0,0,1,.47-1.329q-1.749-1.612-.542-4.622A19.362,19.362,0,0,1,11.645,34.7a10.383,10.383,0,0,0-3.8,1.731m1.3,19.107c-.008-1.4.736-2.657.959-3.853L7.35,48.656a6.173,6.173,0,0,0-.519,5.187c.557,1.8.02,1.357,1.607,2.53m7.657-22.556.091.729a7.329,7.329,0,0,1-.043,1.566q-.363,2.266-2.379,2.122.194.22.718.753a4.821,4.821,0,0,1,.8,1.585,6.96,6.96,0,0,1-.081,4.557A4.638,4.638,0,0,0,16.554,43.2a4.393,4.393,0,0,0-1.124-4.726,2.433,2.433,0,0,0,1.949-1.2,3.171,3.171,0,0,0-.068-2.09,3.326,3.326,0,0,0,2.722.091,6.185,6.185,0,0,0,3.174-2.168,12.546,12.546,0,0,0,2.17-6.472l.1-3.441q-.3,5.512-2.578,8.281a7.8,7.8,0,0,1-2.66,2.246,6.071,6.071,0,0,1-4.141.1m-.654-15.924Q18.7,20.211,21.1,19.577q2.359-.616,3.754-4.088-3.152,5.1-9.184,1.532-4.1,1.483-6.587.5a10.279,10.279,0,0,1-3.828-2.4Q1.6,16.82,0,12.782q.375,3.186,2.393,3.681a3.123,3.123,0,0,0,2.734-.589,6.08,6.08,0,0,0,4.348,2.974,9.255,9.255,0,0,0,5.967-.957M39.8,31.3a9.794,9.794,0,0,0,1.861-2.53q-.194.151-1.031,1a3.724,3.724,0,0,1-1.162.867,6.171,6.171,0,0,1-2.836,4.071,5.405,5.405,0,0,1-3.495,1.03q-.975,6-5.891,5.195a2.886,2.886,0,0,0,2.264.74,5.369,5.369,0,0,0,3.269-1.48,6.9,6.9,0,0,0,1.326-3.312,8.647,8.647,0,0,0,4.343-2.188A5.088,5.088,0,0,0,39.8,31.3M92.165,51.233q-1.929.254-3.029.3a12.03,12.03,0,0,0,2.714.173,7.32,7.32,0,0,0,3.59-.9,3.537,3.537,0,0,0,3.269,2.608,4.5,4.5,0,0,0,3.267-.9,4.754,4.754,0,0,0,1.707-3.347q-.3,2.126-3.679,2.751-3.491.617-4.467-3.045a4.968,4.968,0,0,1-3.372,2.36M68.995,31.1a4.472,4.472,0,0,0,2.224-1.266q-3.8,1.174-5.489.846-2.08-.417-3.156-3.22-.434.031-1.635.007a9.793,9.793,0,0,1-2.3,3.9,6.449,6.449,0,0,1-4.5,1.97,6.681,6.681,0,0,1-4.694,3.4,10.477,10.477,0,0,1-2.105.221l-.876-.042,1.039.219a11.708,11.708,0,0,0,2.413.131q3.65-.214,4.637-2.993a7.146,7.146,0,0,0,6.86-6.3q.018,0,.494-.089.293-.062.3.022a4.353,4.353,0,0,0,1.487,2.646,5.789,5.789,0,0,0,2.7.833,6.332,6.332,0,0,0,2.6-.289M88.885,0q-1.2,1.773-1.34,1.969a5.981,5.981,0,0,1-1.921,1.659q-2.793,1.39-7.369-1.642a6.148,6.148,0,0,1-1.556,2.9A9.175,9.175,0,0,1,73.625,6.4a15.417,15.417,0,0,0,2.87-.517A2.891,2.891,0,0,0,78.64,3.768,8.074,8.074,0,0,0,80.7,4.8a6.619,6.619,0,0,0,2.329.435Q87.387,5.1,88.885,0m9.221,34.541a7.906,7.906,0,0,0,1.653-.377,6.368,6.368,0,0,0,1.921-.916,3.39,3.39,0,0,0,1.378.986,3.994,3.994,0,0,0,2.379.294q1.394,2.309,3.652,1.438a3.309,3.309,0,0,0,1.53-1.15,2.685,2.685,0,0,0,.616-1.732,4.909,4.909,0,0,1-2.751,1.889,2.67,2.67,0,0,1-2.438-1.351,3.009,3.009,0,0,1-2.706-.255,2.525,2.525,0,0,1-.973-.9,2.672,2.672,0,0,1-.395-.937q-.032.514-1.534,1.377a4.512,4.512,0,0,1-3.172.661,5.914,5.914,0,0,1-2.868,4.4q-2.355,1.318-6.823-.034a10.471,10.471,0,0,0,4.99,1.534q4.371.127,5.542-4.931m1.822-16.263a1.01,1.01,0,0,0,1.32.094,1.74,1.74,0,0,0,.575-.558,2.542,2.542,0,0,1-.664.18,1.656,1.656,0,0,1-1.269-.256,5.82,5.82,0,0,1-3.443,2.169,9.448,9.448,0,0,1-2.989-.3,5.728,5.728,0,0,1-1.843,2.532q-.965.509-3.21-.25a3.264,3.264,0,0,1-3.12,1.614,9.3,9.3,0,0,1-2.817-1.151l.6.518a7.16,7.16,0,0,0,1.513.893,3.27,3.27,0,0,0,4.107-.862,4.187,4.187,0,0,0,3.759.145,3.47,3.47,0,0,0,1.617-2.61,3.828,3.828,0,0,0,3.346-.05A5.033,5.033,0,0,0,99.929,18.278Z"/>
            </g>
          </g>
          <g id="Group_53097" data-name="Group 53097" transform="translate(0 7.276)">
            <g id="Group_53096" data-name="Group 53096" transform="translate(0 0)">
              <path id="Path_45208" data-name="Path 45208" d="M10.348,45.173l-1.467.68A4.029,4.029,0,0,0,7.03,47.537a10.665,10.665,0,0,0-.84,2.748,6.187,6.187,0,0,0,.494,2.327q1.116,2.95,3.775,2.582a6.317,6.317,0,0,1-2.582-5.078,6.654,6.654,0,0,1,2.472-4.944m3.332,13.308a3.729,3.729,0,0,0,.414,1.847,13.485,13.485,0,0,0,1.136,1.63A2.818,2.818,0,0,0,17.1,63.041a4.469,4.469,0,0,0,1.786-.079q-4.712-2.175-3.408-5.075-3.915-.383-1.715-4.19-3.031-.795.309-6.915l-.787.708a10.344,10.344,0,0,0-1.451,1.816q-1.814,2.967.274,5.161a3.16,3.16,0,0,0-.271,1.88,2.3,2.3,0,0,0,1.842,2.134M35.161,42.157a7.94,7.94,0,0,1-.615-5.35q.86-2.767,4.938-5.738a8.3,8.3,0,0,0-5.316,3.336q-1.833,2.8-.939,7.49a5.61,5.61,0,0,0-1.8,1.523,5.146,5.146,0,0,0-.567,3.82,1.635,1.635,0,0,0-1.955-.222,1.407,1.407,0,0,0-.807,1.47,1.489,1.489,0,0,1,1.409-.828,7.723,7.723,0,0,1,2.173.754,5.913,5.913,0,0,1,.2-2.608,7.706,7.706,0,0,1,3.281-3.647M20.1,26.978a12.192,12.192,0,0,0-3.011.3,8.444,8.444,0,0,0-5,2.8,5.932,5.932,0,0,0-5.57,2.43,6.853,6.853,0,0,0-.967,6.662,5.277,5.277,0,0,0-4.74,2.758,4.611,4.611,0,0,0,.322,5.6,2.48,2.48,0,0,0-.787.708A1.958,1.958,0,0,0,0,49.264a2.776,2.776,0,0,0,1.059,2.615,1.467,1.467,0,0,0,1.635-.007Q.871,51.6.781,50.1.676,48.59,2.5,47.915a7.131,7.131,0,0,1-.577-3.882q.511-3.8,6.034-3.326A6.061,6.061,0,0,1,6.7,37.149a5.126,5.126,0,0,1,.888-3.054,4.568,4.568,0,0,1,2.331-1.815,3.816,3.816,0,0,1,2.932.148q.4-2.986,7.245-5.449m2.919-9.392q-.672-2.34-4.734-3.436t-6.8,3.024a3.829,3.829,0,0,0-2.038-1.405,2.966,2.966,0,0,0-2.163.258,3.767,3.767,0,0,0-1.475,1.319,4.929,4.929,0,0,0-.591,1.837q1.683-2.357,3.548-1.955a4.83,4.83,0,0,1,2.605,1.859q2.821-3.721,6.54-3.352t5.1,1.852M32.991,6.964a21.8,21.8,0,0,1,7.3,4.961,12.823,12.823,0,0,0-6.16-6.346,9.248,9.248,0,0,0-7.991-.035,3.331,3.331,0,0,0-.874-1.921A6.071,6.071,0,0,0,23.1,1.859Q19.74.194,16.918,3.192q-.557-1.113-2.252-.677a2.665,2.665,0,0,0-2.032,2.621,4.171,4.171,0,0,1,1.441-1.342Q15.7,2.92,16.634,5.2q2.42-3.3,5.556-1.915a5.849,5.849,0,0,1,2.234,1.791,5.9,5.9,0,0,1,1.227,2.545,8.343,8.343,0,0,1,7.339-.652M56.675,32.01q-2.865-1.031-4.145.323-1.217,1.255-1.332,5.046a2.658,2.658,0,0,0-.7.528,3.459,3.459,0,0,0-.916,1.483,5.189,5.189,0,0,0-.184,2.464,4.051,4.051,0,0,0,.337.974,4.431,4.431,0,0,0-2.141.962,2.708,2.708,0,0,0-.739,1.7,4.049,4.049,0,0,0,.327,2.377A2.264,2.264,0,0,0,48.854,49a2.173,2.173,0,0,0-.218.583,1.241,1.241,0,0,0-.038.575,2.354,2.354,0,0,0,1.088,1.564,2.3,2.3,0,0,0,1.679.1q-1.635-.179-1.854-1.082a3.572,3.572,0,0,1,.4-1.912q-2.381-1.574-1.188-3.7a3.561,3.561,0,0,1,1.316-1.351,2.432,2.432,0,0,1,1.586-.423,3.475,3.475,0,0,1-.329-3.843,5.961,5.961,0,0,1,.823-1.263q.264-.311.442-.485a7.627,7.627,0,0,1,.085-3.112q.741-3.023,4.028-2.644M74.25,45.9a9.122,9.122,0,0,1,1.221-4.083,4.245,4.245,0,0,1,2.373-2.246,5.647,5.647,0,0,0-3.753,1.652,5.306,5.306,0,0,0-1.742,4.087,7.35,7.35,0,0,0,2.437,5.646q2.431,2.177,4.857.492a6.361,6.361,0,0,0-.123.9,4.772,4.772,0,0,0,.389,2.671,5.19,5.19,0,0,0,1.584,1.455,3.368,3.368,0,0,0,5.055-.815,5.6,5.6,0,0,1-3.422.271q-3.319-.795-2.766-6.33-.137-.072-.434.774a5.363,5.363,0,0,0-.256.973A5.245,5.245,0,0,1,75.3,49.777,5.383,5.383,0,0,1,74.25,45.9m30.773-22.121q1.215-.491,1.754.435a3.156,3.156,0,0,1,.276,1.981,2.238,2.238,0,0,0,.4-2.119,1.618,1.618,0,0,0-1.76-1.3,3.662,3.662,0,0,0-1.939-2.245,4.837,4.837,0,0,0-4-.059,5.254,5.254,0,0,0-3.894-2.1l-2.5-.013q-.791-2.039-3.448-1.692a4.279,4.279,0,0,0-1.806.655,1.357,1.357,0,0,0-.755,1.123,3.549,3.549,0,0,0-3.776.04,3.1,3.1,0,0,0-1.641,3.971q.535-2.563,2.232-3.206a3.34,3.34,0,0,1,3.445.969,3.522,3.522,0,0,1,.939-1.729,2.77,2.77,0,0,1,1.532-.8q2.042-.308,2.28,2.434a4.868,4.868,0,0,1,4.454-.363,4.674,4.674,0,0,1,2.435,1.95,4.415,4.415,0,0,1,3.632-.4,3.54,3.54,0,0,1,2.133,2.465M75.073,1.488a9.532,9.532,0,0,0-2.016,3.2q-.333.843-1.413,4.028,2.6-5.306,5.068-6.348,2.581-1.054,7.412,1.377,2.262-2.77,4.938-2.021Q91.6,2.443,93.8,6.049q1.4-.932,3.822.6,2.573,1.629,2.068,4.071a2.031,2.031,0,0,1,1.5,1.573,2.615,2.615,0,0,1-.61,2.413q.948-.139,1.221-1.668a2.12,2.12,0,0,0-1.233-2.483q.793-2.256-1.563-4.282a4.729,4.729,0,0,0-4.617-1.3A4.211,4.211,0,0,0,94.1,3.551a3.2,3.2,0,0,0-.767-1.17Q90.682.024,88.618,0q-1.832-.007-4.861,1.965Q77.937-1.2,75.073,1.488Z" fill="#473432"/>
            </g>
          </g>
        </g>
        <g id="Group_53100" data-name="Group 53100" transform="translate(53.536 104.128)">
          <g id="Group_53099" data-name="Group 53099" transform="translate(0 0)">
            <path id="Path_45209" data-name="Path 45209" d="M4.937,2.469,2.469,4.937,0,2.469,2.469,0Zm-1.852,0H2.469v.617m-.617-.617h.617V1.852" transform="translate(0)" fill="none" stroke="rgba(0,0,0,0)" stroke-linecap="round" stroke-linejoin="round" stroke-width="0.075"/>
          </g>
        </g>
      </g>
      <g id="Group_53106" data-name="Group 53106" transform="translate(30.431 196.151) rotate(-131.087)">
        <g id="Group_53103" data-name="Group 53103" transform="translate(0 0)">
          <g id="Group_53102" data-name="Group 53102">
            <path id="Path_45210" data-name="Path 45210" d="M5.965,47.02a47.929,47.929,0,0,1-2.448-8.454Q.761,26.143,0,21.35A109.481,109.481,0,0,0,1.872,34.72a47.848,47.848,0,0,0,4.093,12.3M11.827,0a22.945,22.945,0,0,1,3.312,5.842,48.365,48.365,0,0,1,2.283,9.523q.041.267.247,2.1-.041-3.332-.206-4.957Q16.435,2.715,11.827,0Z" transform="translate(0.323 0.93)" fill="#84553e"/>
            <path id="Path_45211" data-name="Path 45211" d="M7.687,0Q3.532.148,1.578,5.126-.561,10.515.2,20.9q.062.72.123,1.378Q1.084,27.073,3.84,39.5A47.929,47.929,0,0,0,6.288,47.95l.206.411a2.722,2.722,0,0,0,2.18,1.275,6.589,6.589,0,0,0,1.152-.021,4.124,4.124,0,0,0,3.394-1.851q2.3-3.949,3.764-14.768a101.8,101.8,0,0,0,1.008-14.6q-.206-1.831-.247-2.1a48.365,48.365,0,0,0-2.283-9.523A22.945,22.945,0,0,0,12.15.93a8.348,8.348,0,0,0-1.707-.6A10.426,10.426,0,0,0,7.687,0Z" fill="#a56b4e"/>
          </g>
        </g>
        <g id="Group_53105" data-name="Group 53105" transform="translate(7.872 6.718)">
          <g id="Group_53104" data-name="Group 53104" transform="translate(0 0)">
            <path id="Path_45212" data-name="Path 45212" d="M4.937,2.481,2.468,4.961,0,2.481,2.468,0Zm-1.851,0H2.468V3.1m-.617-.62h.617V1.86" fill="none" stroke="rgba(0,0,0,0)" stroke-linecap="round" stroke-linejoin="round" stroke-width="0.075"/>
          </g>
        </g>
      </g>
      <g id="Group_53111" data-name="Group 53111" transform="translate(61.596 163.698) rotate(-160.305)">
        <g id="Group_53108" data-name="Group 53108" transform="matrix(1, 0.01, -0.01, 1, 0.276, 0)">
          <g id="Group_53107" data-name="Group 53107" transform="translate(0 0)">
            <path id="Path_45213" data-name="Path 45213" d="M5.323,12.758A2.45,2.45,0,0,0,6.4,13.771L9.461,1.406,5.323,12.758M13.1,3.535a17.361,17.361,0,0,1-.615,1.878,30.837,30.837,0,0,1-1.862,4.03Q10.1,10.4,9.5,11.351q-.08.135-.167.267a2.071,2.071,0,0,0,.2-.055q.174-.055.369-.134l.123-.047.58-.9.562-1.006q.032-.055.061-.11.406-.7.764-1.414.4-.793.606-1.2a6.986,6.986,0,0,0,.448-1.147A5.01,5.01,0,0,0,13.1,3.535M0,12a3.15,3.15,0,0,0,1.089,0Q5.877,3.5,5.666,0A73.111,73.111,0,0,1,0,12Z" transform="translate(2.703 13.539)" fill="#84553e"/>
            <path id="Path_45214" data-name="Path 45214" d="M3.793,25.543a2.612,2.612,0,0,0,1.388,2.577q1.458.833,2.846-1.823l4.137-11.351L9.107,27.31q1.432.5,2.89-2.082l.035-.063v-.008q.087-.132.167-.267.6-.952,1.124-1.909a30.837,30.837,0,0,0,1.862-4.03,17.36,17.36,0,0,0,.615-1.878,5.01,5.01,0,0,1-.053,2.074A6.985,6.985,0,0,1,15.3,20.3q-.21.409-.606,1.2-.358.714-.764,1.414-.03.055-.061.11l-.562,1.006-.58.9-.026.039a4.627,4.627,0,0,0,.509-.369,3.576,3.576,0,0,0,.58-.518q.3-.265.562-.518a7.129,7.129,0,0,0,1.265-1.5q.6-1.021,1.1-2.058a3.876,3.876,0,0,0,.387-1.579,5.087,5.087,0,0,0-.369-2.035q-.234-.573-.817-2.475a.255.255,0,0,0-.009-.055,29.654,29.654,0,0,0-1.133-4.022,18.624,18.624,0,0,0-4.445-6.944Q7.017-.593,3.942.122-3.911,1.984,3.88,14.513a81.231,81.231,0,0,0-2.222,8.021Q1.1,25.2,2.7,25.543a73.111,73.111,0,0,0,5.666-12Q8.58,17.035,3.793,25.543Z" fill="#a56b4e"/>
          </g>
        </g>
        <g id="Group_53110" data-name="Group 53110" transform="matrix(1, 0.01, -0.01, 1, 3.979, 2.488)">
          <g id="Group_53109" data-name="Group 53109" transform="translate(0 0)">
            <path id="Path_45215" data-name="Path 45215" d="M2.108.943l-1.054.943L0,.943,1.054,0Zm-.791,0H1.054v.236M.791.943h.264V.707" fill="none" stroke="rgba(0,0,0,0)" stroke-linecap="round" stroke-linejoin="round" stroke-width="0.03"/>
          </g>
        </g>
      </g>
      <g id="Group_53116" data-name="Group 53116" transform="translate(78.872 179.713) rotate(-62.807)">
        <g id="Group_53113" data-name="Group 53113" transform="translate(0 0)">
          <g id="Group_53112" data-name="Group 53112">
            <path id="Path_45216" data-name="Path 45216" d="M5.965,0A47.928,47.928,0,0,0,3.517,8.454Q.761,20.877,0,25.669A109.477,109.477,0,0,1,1.872,12.3,47.847,47.847,0,0,1,5.965,0m5.862,47.019a22.944,22.944,0,0,0,3.311-5.841,48.363,48.363,0,0,0,2.283-9.523q.041-.267.247-2.1-.041,3.332-.206,4.957Q16.434,44.3,11.827,47.019Z" transform="translate(0.323 1.703)" fill="#84553e"/>
            <path id="Path_45217" data-name="Path 45217" d="M7.687,49.648Q3.532,49.5,1.578,44.526-.561,39.137.2,28.75q.062-.72.123-1.378Q1.084,22.58,3.84,10.157A47.928,47.928,0,0,1,6.288,1.7l.206-.411A2.722,2.722,0,0,1,8.674.016,6.587,6.587,0,0,1,9.826.037a4.124,4.124,0,0,1,3.394,1.851q2.3,3.949,3.764,14.768a101.8,101.8,0,0,1,1.008,14.6q-.206,1.831-.247,2.1a48.363,48.363,0,0,1-2.283,9.523,22.944,22.944,0,0,1-3.311,5.841,8.348,8.348,0,0,1-1.707.6A10.426,10.426,0,0,1,7.687,49.648Z" fill="#a56b4e"/>
          </g>
        </g>
        <g id="Group_53115" data-name="Group 53115" transform="translate(7.872 37.973)">
          <g id="Group_53114" data-name="Group 53114" transform="translate(0 0)">
            <path id="Path_45218" data-name="Path 45218" d="M4.936,2.481,2.468,0,0,2.481,2.468,4.961Zm-1.851,0H2.468V1.86m-.617.62h.617V3.1" fill="none" stroke="rgba(0,0,0,0)" stroke-linecap="round" stroke-linejoin="round" stroke-width="0.075"/>
          </g>
        </g>
      </g>
      <g id="Group_53121" data-name="Group 53121" transform="matrix(0.577, -0.817, 0.817, 0.577, 59.348, 169.391)">
        <g id="Group_53118" data-name="Group 53118" transform="translate(0 0)">
          <g id="Group_53117" data-name="Group 53117">
            <path id="Path_45219" data-name="Path 45219" d="M0,6.2l1.058-.691L2.51,13.337l-.124.061q-.062-.163-.56-2.257A24.172,24.172,0,0,0,0,6.2m9.854,6.607q.1.651.187,1.3a24.239,24.239,0,0,1-1.2-3.842L7.8,2.175a4.406,4.406,0,0,1-.124-.549A4.626,4.626,0,0,0,7.012,0a6.005,6.005,0,0,1,1.2,1.626l.56,1.281q.29.854.6,2.013-.062.854-.041,1.748a39.7,39.7,0,0,0,.519,6.14M5.746,14.9q-.145-.386-.29-.793A40.774,40.774,0,0,1,3.983,8.844a23.753,23.753,0,0,1-.477-6.628q0-.224.021-.468V1.667Q3.61.956,3.713.285a9.851,9.851,0,0,0-.041,1.382q.021.285.062.549l.581,4.493Z" transform="translate(0.83 0.984)" fill="#84553e"/>
            <path id="Path_45220" data-name="Path 45220" d="M14.459,25.278a7.463,7.463,0,0,1-7.136-1.565A19.739,19.739,0,0,1,2.7,18.143a21.084,21.084,0,0,1-1.431-3.009A21.268,21.268,0,0,1,0,8.648a1.512,1.512,0,0,1,.768-1.4V7.1a.319.319,0,0,0,.062.081,24.172,24.172,0,0,1,1.826,4.94q.5,2.094.56,2.257l.124-.061L1.888,6.493A7.149,7.149,0,0,1,2.324,3.5a2.764,2.764,0,0,1,.145-.285A1.67,1.67,0,0,1,3.4,2.712a2.072,2.072,0,0,1,.954.02q-.021.244-.021.468a23.753,23.753,0,0,0,.477,6.628,40.774,40.774,0,0,0,1.473,5.265q.145.407.29.793L5.145,7.693,4.564,3.2q-.041-.264-.062-.549a9.851,9.851,0,0,1,.041-1.382A2.828,2.828,0,0,1,4.813.8,1.672,1.672,0,0,1,5.477.252L5.83.09A1.592,1.592,0,0,1,7.842.984,4.626,4.626,0,0,1,8.506,2.61a4.405,4.405,0,0,0,.124.549l1.037,8.091a24.239,24.239,0,0,0,1.2,3.842q-.083-.651-.187-1.3a39.7,39.7,0,0,1-.519-6.14q-.021-.895.041-1.748A9.258,9.258,0,0,1,10.29,3.22,3.14,3.14,0,0,1,11.6,1.065q1.888-.59,2.966,1.565a2.433,2.433,0,0,1,.207,1.464q-1.016,10.511,3.63,10.47a5.179,5.179,0,0,0,2.821-1.87,4.387,4.387,0,0,1,1.763-1.057q3.921-1.362,4.17,2.358-3.4.427-5.643,4.554Q18.608,23.855,14.459,25.278Z" fill="#a56b4e"/>
          </g>
        </g>
        <g id="Group_53120" data-name="Group 53120" transform="matrix(1, -0.01, 0.01, 1, 10.566, 21.552)">
          <g id="Group_53119" data-name="Group 53119" transform="translate(0 0)">
            <path id="Path_45221" data-name="Path 45221" d="M2.126.932,1.063,0,0,.932l1.063.932Zm-.8,0H1.063V.7M.8.932h.266v.233" fill="none" stroke="rgba(0,0,0,0)" stroke-linecap="round" stroke-linejoin="round" stroke-width="0.03"/>
          </g>
        </g>
      </g>
      <g id="Group_58183" data-name="Group 58183" transform="matrix(0.995, -0.105, 0.105, 0.995, 71.333, 113.32)">
        <g id="Group_58182" data-name="Group 58182" transform="translate(0 0)">
          <g id="Group_58181" data-name="Group 58181" transform="translate(-0.242 0.056) rotate(-3)">
            <path id="Path_48193" data-name="Path 48193" d="M10.3,0A6.8,6.8,0,0,0,7.359.75,8.916,8.916,0,0,0,4.63,2.571q.157-.642-1.317-.9A6.836,6.836,0,0,0-.39,2.6,4.767,4.767,0,0,0,3.5,4.794,8.454,8.454,0,0,0,9.087,3.217C10.8,1.967,11.284.444,10.3,0Z" transform="translate(0 0)" fill="#e55763"/>
          </g>
        </g>
      </g>
    </g>
  </g>
</svg>
