<svg xmlns="http://www.w3.org/2000/svg" xmlns:xlink="http://www.w3.org/1999/xlink" width="375" height="270" viewBox="0 0 375 270">
  <defs>
    <clipPath id="clip-path">
      <rect id="Rectangle_8678" data-name="Rectangle 8678" width="375" height="270" transform="translate(15808 -12887)" fill="#fff" stroke="#707070" stroke-width="1" opacity="0.59"/>
    </clipPath>
    <clipPath id="clip-path-2">
      <rect id="Rectangle_8684" data-name="Rectangle 8684" width="189" height="223" transform="translate(88 111)" fill="#fff"/>
    </clipPath>
    <linearGradient id="linear-gradient" x1="0.543" y1="0.993" x2="0.511" y2="0.105" gradientUnits="objectBoundingBox">
      <stop offset="0" stop-color="#4d4343"/>
      <stop offset="1" stop-color="#252020"/>
    </linearGradient>
  </defs>
  <g id="Mask_Group_16639" data-name="Mask Group 16639" transform="translate(-15808 12887)" clip-path="url(#clip-path)">
    <g id="Mask_Group_16628" data-name="Mask Group 16628" transform="translate(15808 -12987)" clip-path="url(#clip-path-2)">
      <g id="male_teen_DS_4" data-name="male teen DS 4" transform="translate(116.308 129.429)">
        <g id="Group_105696" data-name="Group 105696" transform="translate(129.508 260.427) rotate(165.86)">
          <g id="Group_105689" data-name="Group 105689" transform="matrix(0.978, -0.208, 0.208, 0.978, 0, 7.785)">
            <g id="Group_105688" data-name="Group 105688" transform="translate(0 0)">
              <path id="Path_76221" data-name="Path 76221" d="M20.083,58.976a37.089,37.089,0,0,1-2.879,7.49L.008,61.7q-.025-1.936.025-3.872a361.7,361.7,0,0,1,3.516-42.8A122.017,122.017,0,0,0,4.772.051L16.975,0a124,124,0,0,0,.713,19.54q1.1,8.53,2.42,21.629T20.083,58.976Z" fill="#80553c"/>
            </g>
          </g>
          <g id="Group_105691" data-name="Group 105691" transform="translate(4.613 0)">
            <g id="Group_105690" data-name="Group 105690" transform="translate(0 0)">
              <path id="Path_76222" data-name="Path 76222" d="M12.235,6.118a5.893,5.893,0,0,1-1.794,4.324,5.893,5.893,0,0,1-4.324,1.794,5.893,5.893,0,0,1-4.324-1.794A5.893,5.893,0,0,1,0,6.118,5.893,5.893,0,0,1,1.794,1.794,5.893,5.893,0,0,1,6.118,0a5.893,5.893,0,0,1,4.324,1.794A5.893,5.893,0,0,1,12.235,6.118Z" transform="translate(0)" fill="#80553c"/>
            </g>
          </g>
          <g id="Group_105693" data-name="Group 105693" transform="translate(5.536 11.836)">
            <g id="Group_105692" data-name="Group 105692" transform="translate(0 0)">
              <path id="Path_76223" data-name="Path 76223" d="M6.313,50.162,6.619,52.4q.051.051-.025.051-.051.051-.051-.025L3.893,38.214l-1.6-11.872L.02.051Q-.031,0,.046,0L.1.025,6.236,49.6Q6.287,49.983,6.313,50.162Z" transform="translate(0 0)" fill="#684633"/>
            </g>
          </g>
          <g id="Group_105695" data-name="Group 105695" transform="translate(18.727 64.036)">
            <g id="Group_105694" data-name="Group 105694" transform="translate(0 0)">
              <path id="Path_76224" data-name="Path 76224" d="M3.057,3.821V3.057h.764m-.764,0V2.293m3.057.764L3.057,0,0,3.057,3.057,6.114Zm-3.821,0h.764" fill="none" stroke="rgba(0,0,0,0)" stroke-linecap="round" stroke-linejoin="round" stroke-width="0.079"/>
            </g>
          </g>
        </g>
        <g id="Group_105715" data-name="Group 105715" transform="matrix(-0.989, -0.15, 0.15, -0.989, 100.813, 211.243)">
          <g id="Group_105698" data-name="Group 105698" transform="translate(1.223 6.726)">
            <g id="Group_105697" data-name="Group 105697" transform="translate(0 0)">
              <path id="Path_76225" data-name="Path 76225" d="M17.707,0a213.07,213.07,0,0,1,6.624,32.433L5.045,36.306Q1.977,19.444,0,2.854Z" fill="#80553c"/>
            </g>
          </g>
          <g id="Group_105700" data-name="Group 105700" transform="translate(1.197 0)">
            <g id="Group_105699" data-name="Group 105699" transform="translate(0 0)">
              <path id="Path_76226" data-name="Path 76226" d="M18.038,9.019a8.714,8.714,0,0,1-2.65,6.395,8.673,8.673,0,0,1-6.37,2.624,8.757,8.757,0,0,1-6.395-2.624A8.757,8.757,0,0,1,0,9.019,8.672,8.672,0,0,1,2.624,2.65,8.714,8.714,0,0,1,9.019,0a8.631,8.631,0,0,1,6.37,2.65A8.631,8.631,0,0,1,18.038,9.019Z" fill="#80553c"/>
            </g>
          </g>
          <g id="Group_105703" data-name="Group 105703" transform="translate(4.892 31.712)">
            <g id="Group_105702" data-name="Group 105702" transform="translate(0 0)">
              <g id="Group_105701" data-name="Group 105701" transform="translate(0 0)">
                <path id="Path_76227" data-name="Path 76227" d="M1.605,14.505,0,4.034A29.914,29.914,0,0,1,19.694.34L21.4,10.021Z" fill="#684633"/>
              </g>
            </g>
          </g>
          <g id="Group_105705" data-name="Group 105705" transform="translate(16.153 60.026)">
            <g id="Group_105704" data-name="Group 105704" transform="translate(0 0)">
              <path id="Path_76228" data-name="Path 76228" d="M29.911,14.956a14.409,14.409,0,0,1-4.382,10.573,14.408,14.408,0,0,1-10.573,4.382A14.408,14.408,0,0,1,4.382,25.529,14.409,14.409,0,0,1,0,14.956,14.409,14.409,0,0,1,4.382,4.382,14.408,14.408,0,0,1,14.956,0,14.408,14.408,0,0,1,25.529,4.382,14.409,14.409,0,0,1,29.911,14.956Z" fill="#7a2230"/>
            </g>
          </g>
          <g id="Group_105707" data-name="Group 105707" transform="translate(0.051 33.793)">
            <g id="Group_105706" data-name="Group 105706" transform="translate(0 0)">
              <path id="Path_76229" data-name="Path 76229" d="M35.058,2.64q5.365,22.911,10.548,35.032L20.79,52.067Q12.026,44.347,0,8.449,12.127-4.723,35.058,2.64Z" transform="translate(0 0)" fill="#7a2230"/>
            </g>
          </g>
          <g id="Group_105710" data-name="Group 105710" transform="translate(0 33.825)">
            <g id="Group_105709" data-name="Group 105709" transform="translate(0 0)">
              <g id="Group_105708" data-name="Group 105708" transform="translate(0 0)">
                <path id="Path_76230" data-name="Path 76230" d="M11.057,37.08A250.483,250.483,0,0,1,0,8.366Q11.657-4.485,34.242,2.4,8.815.952,5.478,10.175,3.44,15.78,17.784,48.647A65.515,65.515,0,0,1,11.057,37.08Z" fill="#4b0f18"/>
              </g>
            </g>
          </g>
          <g id="Group_105712" data-name="Group 105712" transform="translate(37.458 46.013)">
            <g id="Group_105711" data-name="Group 105711" transform="translate(0 0)">
              <path id="Path_76231" data-name="Path 76231" d="M7.536,23.745l-.357-.51-.1-.178-.153-.2-.637-1.07-.076-.153-.1-.153-2.217-4.79L1.5,8.968.046.331.02.051Q-.031,0,.046,0L.1.025,4.4,15.338l2.242,6.089.051.178.586,1.35.1.178.229.586q.051.051-.025.051Q7.536,23.822,7.536,23.745Z" transform="translate(0 0)" fill="#4b0f18"/>
            </g>
          </g>
          <g id="Group_105714" data-name="Group 105714" transform="translate(28.051 71.924)">
            <g id="Group_105713" data-name="Group 105713" transform="translate(0 0)">
              <path id="Path_76232" data-name="Path 76232" d="M3.057,3.822V3.057h.764m-.764,0V2.293m3.057.764L3.057,0,0,3.057,3.057,6.115Zm-3.822,0h.764" transform="translate(0 0)" fill="none" stroke="rgba(0,0,0,0)" stroke-linecap="round" stroke-linejoin="round" stroke-width="0.079"/>
            </g>
          </g>
        </g>
        <g id="Group_105725" data-name="Group 105725" transform="matrix(0.99, -0.141, 0.141, 0.99, 2.134, 152.76)">
          <g id="Group_105717" data-name="Group 105717" transform="translate(0 32.002)">
            <g id="Group_105716" data-name="Group 105716" transform="translate(0 0)">
              <path id="Path_76233" data-name="Path 76233" d="M77.866,54.221A328.85,328.85,0,0,0,74.4,0L8.153,2.854A361.907,361.907,0,0,1,0,54.832Q36.61,68.889,77.866,54.221Z" fill="#ede6de"/>
            </g>
          </g>
          <g id="Group_105719" data-name="Group 105719" transform="translate(7.944 2.045)">
            <g id="Group_105718" data-name="Group 105718" transform="translate(0 0)">
              <path id="Path_76234" data-name="Path 76234" d="M0,33.5A32.279,32.279,0,0,0,9.8,57.188a32.278,32.278,0,0,0,23.692,9.8,32.278,32.278,0,0,0,23.692-9.8,32.278,32.278,0,0,0,9.8-23.692A32.278,32.278,0,0,0,57.188,9.8,32.278,32.278,0,0,0,33.5,0,32.278,32.278,0,0,0,9.8,9.8,32.278,32.278,0,0,0,0,33.5Z" transform="translate(0 0)" fill="#ede6de"/>
            </g>
          </g>
          <g id="Group_105722" data-name="Group 105722" transform="translate(0.051 0)">
            <g id="Group_105721" data-name="Group 105721" transform="translate(0 0)">
              <g id="Group_105720" data-name="Group 105720">
                <path id="Path_76235" data-name="Path 76235" d="M40.079,8.867q.79-.025,1.605-.025.815.1,1.631.229a4.385,4.385,0,0,1,.484-.025,36.215,36.215,0,0,1-.459-6.9A8.455,8.455,0,0,1,43.468.994a9.354,9.354,0,0,1,.2-.994l-.459,1.452A34.538,34.538,0,0,0,22.575,6.319l-6.65,6.93a55.063,55.063,0,0,0-5.86,10.115,47.274,47.274,0,0,0-2.013,9.861A415.33,415.33,0,0,1,0,87.013,43.4,43.4,0,0,0,6.829,89.23q4.195,1.044,6.6,1.758a35.116,35.116,0,0,0,5.988,1.172q3.586.465,7.415,1.172a37.479,37.479,0,0,0,7.746.662q3.949-.072,5.606-.127t6.778-.382a65.7,65.7,0,0,0,9.351-1.2q4.114-.714,7.058-1.478,2.973-.764,3.669-.968.691-.178,1.376-.382.688-.229,1.376-.433-.535.1-1.045.229-4.179.815-8.51,1.3-3.083.357-6.217.662a111.1,111.1,0,0,1-11.389.382,60.821,60.821,0,0,1-7.058-.561,57.607,57.607,0,0,1-9.937-2.268,22.342,22.342,0,0,1-6.956-3.847,13.4,13.4,0,0,1-4.586-7.16A35.828,35.828,0,0,1,13.1,71.98a86.709,86.709,0,0,1-.331-10.5q.127-3.949.382-7.95.153-2.726.433-5.453.334-3.058.586-7.287.272-4.229,1.1-9.249a30.441,30.441,0,0,1,3.185-9.377A20.42,20.42,0,0,1,25,14.957,41.912,41.912,0,0,1,31.06,11.44,27.584,27.584,0,0,1,40.079,8.867Z" fill="#dad0c5"/>
              </g>
            </g>
          </g>
          <g id="Group_105724" data-name="Group 105724" transform="translate(35.875 90.809)">
            <g id="Group_105723" data-name="Group 105723" transform="translate(0 0)">
              <path id="Path_76236" data-name="Path 76236" d="M3.058,2.293v.764h.764m-.764,0v.764m3.058-.764L3.058,6.115,0,3.058,3.058,0Zm-3.822,0h.764" transform="translate(0 0)" fill="none" stroke="rgba(0,0,0,0)" stroke-linecap="round" stroke-linejoin="round" stroke-width="0.079"/>
            </g>
          </g>
        </g>
        <g id="Group_105750" data-name="Group 105750" transform="matrix(0.951, 0.308, -0.308, 0.951, 27.12, 90.972)">
          <g id="Group_105727" data-name="Group 105727" transform="translate(28.919 0)">
            <g id="Group_105726" data-name="Group 105726" transform="translate(0 0)">
              <path id="Path_76237" data-name="Path 76237" d="M30.83,18.3,33.352,6.219a28.793,28.793,0,0,0-8.306-4.765A26.211,26.211,0,0,0,16.663,0,28.107,28.107,0,0,0,.586,4.843L0,18.3Z" fill="#80553c"/>
            </g>
          </g>
          <g id="Group_105729" data-name="Group 105729" transform="translate(8.026 2.983)">
            <g id="Group_105728" data-name="Group 105728" transform="translate(0 0)">
              <path id="Path_76238" data-name="Path 76238" d="M71.342,20.154a17.748,17.748,0,0,0-2.7-8.918q-2.458-3.89-8.408-6.268A51.853,51.853,0,0,1,52.08,1.147Q50,6.675,43.213,10.625,36.453,14.6,31.365,9.4,26.3,4.229,25.021,3.134A10.875,10.875,0,0,1,22.651,0,42.322,42.322,0,0,0,17.3,1.478Q12.817,2.886,8.332,4.357A53.19,53.19,0,0,0,0,7.95L6.727,78.068q2.65-3.618,5.554-7.007,2.6-3.032,5.453-5.886l1.07-1.07,1.07-1.019q2.064-1.885,4.281-3.593a42.926,42.926,0,0,1,8.536-5.019,27.1,27.1,0,0,1,8.383-2.14,25.648,25.648,0,0,1,8.281.739,31.231,31.231,0,0,1,8.128,3.567,37.756,37.756,0,0,1,5.07,3.72,54.178,54.178,0,0,1,4.484,4.331A67.422,67.422,0,0,1,73.3,72.463Z" fill="#ede6de"/>
            </g>
          </g>
          <g id="Group_105731" data-name="Group 105731" transform="translate(0.255 9.072)">
            <g id="Group_105730" data-name="Group 105730" transform="translate(0 0)">
              <path id="Path_76239" data-name="Path 76239" d="M29.913,14.956A14.409,14.409,0,0,0,25.53,4.382,14.409,14.409,0,0,0,14.956,0,14.409,14.409,0,0,0,4.382,4.382,14.409,14.409,0,0,0,0,14.956,14.409,14.409,0,0,0,4.382,25.53a14.409,14.409,0,0,0,10.574,4.382A14.409,14.409,0,0,0,25.53,25.53,14.409,14.409,0,0,0,29.913,14.956Z" transform="translate(0)" fill="#ede6de"/>
            </g>
          </g>
          <g id="Group_105734" data-name="Group 105734" transform="translate(10.523 36.157)">
            <g id="Group_105733" data-name="Group 105733" transform="translate(0 0)">
              <g id="Group_105732" data-name="Group 105732">
                <path id="Path_76240" data-name="Path 76240" d="M13.3,0Q.025,2.166,0,2.14L4.179,45.149l8.943-11.007Z" fill="#dad0c5"/>
              </g>
            </g>
          </g>
          <g id="Group_105739" data-name="Group 105739" transform="translate(0 3.365)">
            <g id="Group_105736" data-name="Group 105736" transform="translate(0 0)">
              <g id="Group_105735" data-name="Group 105735">
                <path id="Path_76241" data-name="Path 76241" d="M30.575,20.893A73.3,73.3,0,0,1,35.314,5.351L29.352,0a131.31,131.31,0,0,0-19.16,6.344Q.494,10.289,0,21.555q1.356,8.559,7.8,12.154l.484.255q.324.18.637.331.07.03.127.051l.433.178a13.8,13.8,0,0,0,4.2,1.019,15.209,15.209,0,0,0,1.529.076,14.409,14.409,0,0,0,10.574-4.382,14.061,14.061,0,0,0,1.07-1.2Q29.538,27.131,30.575,20.893Z" fill="#7a2230"/>
              </g>
            </g>
            <g id="Group_105738" data-name="Group 105738" transform="translate(58.551 1.019)">
              <g id="Group_105737" data-name="Group 105737" transform="translate(0 0)">
                <path id="Path_76242" data-name="Path 76242" d="M10.243,9.376q4.875,3.87,8.23,11.848,1.564,3.69,2.726,7.007a68.641,68.641,0,0,1-.1-8.051,20.439,20.439,0,0,0-.433-5.5q-.209-2.543-3.007-5.529a19.119,19.119,0,0,0-6.4-4.892A51.776,51.776,0,0,1,2.4,0L0,3.873A30.555,30.555,0,0,1,10.243,9.376Z" transform="translate(0)" fill="#7a2230"/>
              </g>
            </g>
          </g>
          <g id="Group_105741" data-name="Group 105741" transform="translate(44.181 4.027)">
            <g id="Group_105740" data-name="Group 105740" transform="translate(0 0)">
              <path id="Path_76243" data-name="Path 76243" d="M9.988,3.822,9.835,3.9,9.351,4.2,7.134,5.3,3.847,6.319l-.153.025L3.542,6.4.051,6.956H.025L0,7.007l.025.025.2.051,1.376.1.127.025L3.491,7.16l.331-.051H4l1.427-.255,1.5-.433a11.9,11.9,0,0,0,1.5-.586l.739-.382L11.44,3.924l1.987-2.013L14.294.688l.1-.127.178-.331.1-.153Q14.7.051,14.651,0H14.6l-.127.153L13.4,1.172l-.1.076-.306.28-.1.076-.2.2Z" fill="#684633"/>
            </g>
          </g>
          <g id="Group_105743" data-name="Group 105743" transform="translate(36.231 11.722)">
            <g id="Group_105742" data-name="Group 105742" transform="translate(0 0)">
              <path id="Path_76244" data-name="Path 76244" d="M16.281,1.605l-.561.229-.2.051a17.179,17.179,0,0,1-1.707.535q-.764.2-.892.229l-1.376.28h-.127l-.1.025-2.166.153-.127.025-.1-.025H8.2L6.8,2.981l-2.37-.51L1.86,1.529.917,1.07.713.994.561.892.076.662Q0,.586,0,.688V.739l1.554,1.35.127.076.561.408L4.51,3.745h.051L5.58,4.1l.127.025.1.051.255.051a10.668,10.668,0,0,0,2.013.357,13.087,13.087,0,0,0,2.14.025l.79-.076,2.268-.484.255-.076.1-.051.127-.025.484-.178a16.9,16.9,0,0,0,1.733-.739l1.452-.815a12.551,12.551,0,0,0,1.172-.79l1.58-1.3V0H20.1L18.625.662l-.076.025-.561.255-.153.051-.153.076-1.2.484Z" transform="translate(0)" fill="#dad0c5"/>
            </g>
          </g>
          <g id="Group_105745" data-name="Group 105745" transform="translate(27.925 1.835)">
            <g id="Group_105744" data-name="Group 105744" transform="translate(0 0)">
              <path id="Path_76245" data-name="Path 76245" d="M21.428,12.842a18.509,18.509,0,0,0,8.051-3.771A16.2,16.2,0,0,0,32.1,6.294a8.838,8.838,0,0,0,1.478-3.236q-.2-1.3-1.223-1.376a2.132,2.132,0,0,0-1.936,1.2,17.581,17.581,0,0,1-3.236,3.414A10.576,10.576,0,0,1,23.8,8.129,23.137,23.137,0,0,1,19.976,9a14.871,14.871,0,0,1-8.79-1.045A14.662,14.662,0,0,1,4.663,2.4,5.144,5.144,0,0,0,3.542.689,2.323,2.323,0,0,0,1.809,0Q.79,0,0,1.453A25,25,0,0,0,4.026,8.027a13.891,13.891,0,0,0,8.51,4.892A21.488,21.488,0,0,0,21.428,12.842Z" transform="translate(0 0)" fill="#7a2230"/>
            </g>
          </g>
          <g id="Group_105747" data-name="Group 105747" transform="translate(28.007 3.396)">
            <g id="Group_105746" data-name="Group 105746" transform="translate(0 0)">
              <path id="Path_76246" data-name="Path 76246" d="M18.8,11.741q.968-.1,2.319-.331l2.7-.713,1.529-.662.306-.178q.076,0,.025-.051,0-.076-.051-.025l-.1.025-.408.153-.2.051-.127.051-.408.1q-.306.1-1.452.357l-5.4.459L14.569,10.8l-2.37-.459-1.325-.408A18.888,18.888,0,0,1,8.352,8.811L7.206,8.123q-.637-.433-1.07-.79l-.153-.076-.1-.1-.255-.2L3.256,4.607.1.046Q.1-.031.046.02-.031.02.02.071L.53,1.294q.433.917.688,1.35L2.237,4.352a19.153,19.153,0,0,0,1.427,1.86l.892.943a11.449,11.449,0,0,0,.994.892,12.449,12.449,0,0,0,1.121.866l1.2.764L10.543,10.9a23.35,23.35,0,0,0,2.854.713l.688.1,3.44.127Z" fill="#4b0f18"/>
            </g>
          </g>
          <g id="Group_105749" data-name="Group 105749" transform="translate(45.073 77.127)">
            <g id="Group_105748" data-name="Group 105748" transform="translate(0 0)">
              <path id="Path_76247" data-name="Path 76247" d="M3.058,2.293v.764h.764m-.764,0v.764m3.058-.764L3.058,6.115,0,3.058,3.058,0Zm-3.822,0h.764" fill="none" stroke="rgba(0,0,0,0)" stroke-linecap="round" stroke-linejoin="round" stroke-width="0.079"/>
            </g>
          </g>
        </g>
        <g id="Group_105755" data-name="Group 105755" transform="matrix(0.947, 0.32, -0.32, 0.947, 71.564, 68.255)">
          <g id="Group_105752" data-name="Group 105752" transform="translate(0 0)">
            <g id="Group_105751" data-name="Group 105751">
              <path id="Path_76248" data-name="Path 76248" d="M20.459,23.517l.1-5.019a61.6,61.6,0,0,1-6.522-3.287A45,45,0,0,1,2.65,4.994,9.439,9.439,0,0,1,1.4,2.7Q1.223,2.268.433,0L0,23.211Z" transform="translate(0 17.223)" fill="#80553c"/>
              <path id="Path_76249" data-name="Path 76249" d="M19.695,9.045h-.127a9.341,9.341,0,0,0-2.828-6.191A9.376,9.376,0,0,0,9.86,0,9.49,9.49,0,0,0,2.93,2.854,9.448,9.448,0,0,0,.1,9.758q0,.28.025.561L0,17.223q.79,2.268.968,2.7a9.439,9.439,0,0,0,1.248,2.293A45,45,0,0,0,13.605,32.434a61.6,61.6,0,0,0,6.522,3.287Z" transform="translate(0.433 0)" fill="#684633"/>
            </g>
          </g>
          <g id="Group_105754" data-name="Group 105754" transform="translate(6.115 49.046)">
            <g id="Group_105753" data-name="Group 105753" transform="translate(0 0)">
              <path id="Path_76250" data-name="Path 76250" d="M3.057,2.293v.764h.764m-.764,0v.764m3.057-.764L3.057,6.115,0,3.057,3.057,0Zm-3.822,0h.764" fill="none" stroke="rgba(0,0,0,0)" stroke-linecap="round" stroke-linejoin="round" stroke-width="0.079"/>
            </g>
          </g>
        </g>
        <g id="Group_105774" data-name="Group 105774" transform="translate(0 113.717) rotate(-17.641)">
          <g id="Group_105757" data-name="Group 105757" transform="translate(1.223 46.906)">
            <g id="Group_105756" data-name="Group 105756" transform="translate(0 0)">
              <path id="Path_76251" data-name="Path 76251" d="M17.707,36.307A213.073,213.073,0,0,0,24.332,3.873L5.045,0Q1.977,16.863,0,33.453Z" transform="translate(0 0)" fill="#80553c"/>
            </g>
          </g>
          <g id="Group_105759" data-name="Group 105759" transform="translate(1.197 71.9)">
            <g id="Group_105758" data-name="Group 105758" transform="translate(0 0)">
              <path id="Path_76252" data-name="Path 76252" d="M18.039,9.019a8.714,8.714,0,0,0-2.65-6.4A8.673,8.673,0,0,0,9.019,0a8.757,8.757,0,0,0-6.4,2.624A8.757,8.757,0,0,0,0,9.019a8.673,8.673,0,0,0,2.624,6.37,8.714,8.714,0,0,0,6.4,2.65,8.631,8.631,0,0,0,6.37-2.65A8.631,8.631,0,0,0,18.039,9.019Z" transform="translate(0 0)" fill="#80553c"/>
            </g>
          </g>
          <g id="Group_105762" data-name="Group 105762" transform="translate(4.892 43.721)">
            <g id="Group_105761" data-name="Group 105761" transform="translate(0 0)">
              <g id="Group_105760" data-name="Group 105760">
                <path id="Path_76253" data-name="Path 76253" d="M1.605,0,0,10.472a29.915,29.915,0,0,0,19.695,3.694L21.4,4.484Z" fill="#684633"/>
              </g>
            </g>
          </g>
          <g id="Group_105764" data-name="Group 105764" transform="translate(16.153 0)">
            <g id="Group_105763" data-name="Group 105763" transform="translate(0 0)">
              <path id="Path_76254" data-name="Path 76254" d="M29.911,14.956A14.409,14.409,0,0,0,25.529,4.382,14.409,14.409,0,0,0,14.956,0,14.409,14.409,0,0,0,4.382,4.382,14.409,14.409,0,0,0,0,14.956,14.409,14.409,0,0,0,4.382,25.529a14.409,14.409,0,0,0,10.573,4.382,14.409,14.409,0,0,0,10.573-4.382A14.409,14.409,0,0,0,29.911,14.956Z" fill="#7a2230"/>
            </g>
          </g>
          <g id="Group_105766" data-name="Group 105766" transform="translate(0.051 4.077)">
            <g id="Group_105765" data-name="Group 105765" transform="translate(0 0)">
              <path id="Path_76255" data-name="Path 76255" d="M35.058,49.428Q40.423,26.516,45.606,14.4L20.79,0Q12.026,7.72,0,43.619,12.128,56.791,35.058,49.428Z" fill="#7a2230"/>
            </g>
          </g>
          <g id="Group_105769" data-name="Group 105769" transform="translate(0 7.465)">
            <g id="Group_105768" data-name="Group 105768" transform="translate(0 0)">
              <g id="Group_105767" data-name="Group 105767">
                <path id="Path_76256" data-name="Path 76256" d="M11.058,11.567A250.487,250.487,0,0,0,0,40.281q11.657,12.851,34.243,5.962Q8.815,47.7,5.478,38.472,3.44,32.867,17.784,0A65.516,65.516,0,0,0,11.058,11.567Z" fill="#4b0f18"/>
              </g>
            </g>
          </g>
          <g id="Group_105771" data-name="Group 105771" transform="translate(37.458 20.133)">
            <g id="Group_105770" data-name="Group 105770" transform="translate(0 0)">
              <path id="Path_76257" data-name="Path 76257" d="M7.536.046,7.18.555l-.1.178-.153.2-.637,1.07-.076.153-.1.153L3.893,7.1,1.5,14.823.046,23.46l-.025.28q-.051.051.025.051L.1,23.766,4.4,8.454,6.645,2.364,6.7,2.186,7.282.836l.1-.178L7.613.071Q7.664.02,7.587.02,7.536-.031,7.536.046Z" fill="#4b0f18"/>
            </g>
          </g>
          <g id="Group_105773" data-name="Group 105773" transform="translate(28.052 11.898)">
            <g id="Group_105772" data-name="Group 105772" transform="translate(0 0)">
              <path id="Path_76258" data-name="Path 76258" d="M3.057,2.293v.764h.764m-.764,0v.764m3.057-.764L3.057,6.115,0,3.057,3.057,0Zm-3.822,0h.764" transform="translate(0)" fill="none" stroke="rgba(0,0,0,0)" stroke-linecap="round" stroke-linejoin="round" stroke-width="0.079"/>
            </g>
          </g>
        </g>
        <g id="Group_105783" data-name="Group 105783" transform="translate(55.507 195.174) rotate(-175.345)">
          <g id="Group_105776" data-name="Group 105776" transform="matrix(0.978, 0.208, -0.208, 0.978, 13.819, 0)">
            <g id="Group_105775" data-name="Group 105775" transform="translate(0 0)">
              <path id="Path_76259" data-name="Path 76259" d="M20.085,7.491A37.093,37.093,0,0,0,17.206,0L.008,4.764Q-.017,6.7.034,8.637a361.733,361.733,0,0,0,3.516,42.8A122.028,122.028,0,0,1,4.773,66.422l12.2.051a124.015,124.015,0,0,1,.713-19.542q1.1-8.531,2.42-21.631T20.085,7.491Z" transform="translate(0)" fill="#80553c"/>
            </g>
          </g>
          <g id="Group_105778" data-name="Group 105778" transform="translate(4.614 60.569)">
            <g id="Group_105777" data-name="Group 105777" transform="translate(0 0)">
              <path id="Path_76260" data-name="Path 76260" d="M12.237,6.118a5.894,5.894,0,0,0-1.794-4.324A5.894,5.894,0,0,0,6.118,0,5.894,5.894,0,0,0,1.794,1.794,5.894,5.894,0,0,0,0,6.118a5.894,5.894,0,0,0,1.794,4.324,5.894,5.894,0,0,0,4.324,1.794,5.894,5.894,0,0,0,4.324-1.794A5.894,5.894,0,0,0,12.237,6.118Z" transform="translate(0 0)" fill="#80553c"/>
            </g>
          </g>
          <g id="Group_105780" data-name="Group 105780" transform="translate(5.536 8.488)">
            <g id="Group_105779" data-name="Group 105779" transform="translate(0 0)">
              <path id="Path_76261" data-name="Path 76261" d="M6.314,2.313,6.619.071Q6.67.02,6.594.02q-.051-.051-.051.025L3.893,14.263,2.288,26.136.02,52.429q-.051.051.025.051L.1,52.455,6.237,2.874Q6.288,2.492,6.314,2.313Z" fill="#684633"/>
            </g>
          </g>
          <g id="Group_105782" data-name="Group 105782" transform="translate(18.729 2.648)">
            <g id="Group_105781" data-name="Group 105781" transform="translate(0 0)">
              <path id="Path_76262" data-name="Path 76262" d="M3.057,2.293v.764h.764m-.764,0v.764m3.057-.764L3.057,6.115,0,3.057,3.057,0Zm-3.822,0h.764" transform="translate(0)" fill="none" stroke="rgba(0,0,0,0)" stroke-linecap="round" stroke-linejoin="round" stroke-width="0.079"/>
            </g>
          </g>
        </g>
        <g id="Group_105788" data-name="Group 105788" transform="matrix(-0.994, 0.113, -0.113, -0.994, 64.771, 130.001)">
          <g id="Group_105785" data-name="Group 105785" transform="translate(0 0)">
            <g id="Group_105784" data-name="Group 105784" transform="translate(0 0)">
              <path id="Path_76263" data-name="Path 76263" d="M3.732,33.924a.173.173,0,0,0,.022-.067H3.71l.022.067M17.085,20.751l.2-1.079-.2,3.1a10.438,10.438,0,0,1-1.619,4.181,1.617,1.617,0,0,1-.2.247,6.194,6.194,0,0,1-1.776,1.641A19.384,19.384,0,0,1,8.43,31.091a2.061,2.061,0,0,0-.27.112,14.674,14.674,0,0,0-4.406,2.765,2.927,2.927,0,0,0,3.057.9q.809-.18,1.619-.382A14.218,14.218,0,0,0,12.9,32.6a14.35,14.35,0,0,0,3.3-1.911A10.3,10.3,0,0,0,18.456,28.1l.157-.247q.09-.18.18-.337a2.938,2.938,0,0,0,.18-.315l.225-.45a11.386,11.386,0,0,0,.629-7.71l.18-.112a13.367,13.367,0,0,1,.832,8.789Q20.412,29.563,16.366,33t-1.821,5.642l.09.112a1.689,1.689,0,0,1,.18-.157,19.157,19.157,0,0,0,3.822-2.518q1.281-1.236,2.473-2.585a22.959,22.959,0,0,0,2.832-4.2q.225-.427.45-.877l.629-1.529a11.8,11.8,0,0,0,.809-4.9L24.413,15.85,22.66,10.433Q17.355-1.819,11.712.317,3.8,2.655,8.453,19.042a.878.878,0,0,0,.067.18L6.947,19.11a25.844,25.844,0,0,0-2.787-.247Q.945,18.48.36,19.6a2.368,2.368,0,0,0-.247,1.933q1.672.572,2.72,1.034l.719.292.18.045q.674.157-.022.022l.45.18,2.293.7a4.765,4.765,0,0,0,1.956,0l-.09.045a1.042,1.042,0,0,0,.2-.022,3.3,3.3,0,0,0,1.911-.18,3.157,3.157,0,0,0,.562-.4,8.377,8.377,0,0,1,.7-.629A8.713,8.713,0,0,0,13.2,19.874,20.589,20.589,0,0,1,14.387,17.2l.022.135a19.376,19.376,0,0,1-1.3,5.35,6.338,6.338,0,0,1-.944,1.394.02.02,0,0,0-.022.022l-.247.292q-2.922.652-5.822,1.529-2.63.832-5.193,1.888Q.5,27.967.113,28.1q0,.225-.022.584a2.311,2.311,0,0,0,.157.877,1.461,1.461,0,0,0,.719.787,8.2,8.2,0,0,0,2.27.045A21.944,21.944,0,0,1,6.2,30.3q1.124-.27,2.225-.562a3.412,3.412,0,0,1,.764-.135A10.121,10.121,0,0,0,14.208,27.2a6.648,6.648,0,0,0,1.259-1.8A17.324,17.324,0,0,0,17.085,20.751Z" fill="#80553c"/>
              <path id="Path_76264" data-name="Path 76264" d="M19.894,1.731l-.18.112a11.386,11.386,0,0,1-.629,7.71L18.86,10a2.938,2.938,0,0,1-.18.315q-.09.157-.18.337l-.157.247q-.214.365-.45.719A25.911,25.911,0,0,1,14.5,15.87q-3.3,3.349-.067,5.575-2.225-2.2,1.821-5.642t4.473-5.283a13.367,13.367,0,0,0-.832-8.789M14.3.135,14.274,0a20.589,20.589,0,0,0-1.191,2.675,8.713,8.713,0,0,1-1.506,2.742,8.376,8.376,0,0,0-.7.629,3.157,3.157,0,0,1-.562.4,3.3,3.3,0,0,1-1.911.18l-.157.045q-2.832.54-4,.809Q.854,8.52,0,10.79V10.9q.382-.135.764-.292Q3.327,9.554,5.957,8.722q2.9-.877,5.822-1.529l.247-.292a.02.02,0,0,1,.022-.022,6.339,6.339,0,0,0,.944-1.394A19.376,19.376,0,0,0,14.3.135m2.877,2.338-.2,1.079A17.324,17.324,0,0,1,15.353,8.2,6.648,6.648,0,0,1,14.095,10a10.121,10.121,0,0,1-5.013,2.405,3.412,3.412,0,0,0-.764.135q-1.1.292-2.225.562a4.078,4.078,0,0,0-2.608,3.462l.112.09h.045a.173.173,0,0,1-.022.067l.022.045A14.674,14.674,0,0,1,8.048,14a2.061,2.061,0,0,1,.27-.112,19.384,19.384,0,0,0,5.058-2.248A6.2,6.2,0,0,0,15.151,10a1.617,1.617,0,0,0,.2-.247,10.438,10.438,0,0,0,1.619-4.181Z" transform="translate(0.113 17.199)" fill="#684633"/>
            </g>
          </g>
          <g id="Group_105787" data-name="Group 105787" transform="translate(11.999 2.701)">
            <g id="Group_105786" data-name="Group 105786" transform="translate(0 0)">
              <path id="Path_76265" data-name="Path 76265" d="M3.057,2.293v.764h.764m-.764,0v.764m3.057-.764L3.057,6.115,0,3.057,3.057,0Zm-3.822,0h.764" fill="none" stroke="rgba(0,0,0,0)" stroke-linecap="round" stroke-linejoin="round" stroke-width="0.079"/>
            </g>
          </g>
        </g>
        <g id="Group_105881" data-name="Group 105881" transform="translate(70.776 0) rotate(17.28)">
          <g id="Group_105789" data-name="Group 105789" transform="translate(21.264 65.329)">
            <path id="Path_76266" data-name="Path 76266" d="M19.5,9.752a9.352,9.352,0,0,1-2.864,6.888A9.352,9.352,0,0,1,9.752,19.5a9.413,9.413,0,0,1-6.907-2.864A9.382,9.382,0,0,1,0,9.752,9.444,9.444,0,0,1,2.845,2.845,9.444,9.444,0,0,1,9.752,0a9.382,9.382,0,0,1,6.888,2.845A9.413,9.413,0,0,1,19.5,9.752Z" transform="translate(0 0)" fill="none" stroke="red" stroke-linecap="round" stroke-linejoin="round" stroke-width="0.079"/>
          </g>
          <g id="Group_105795" data-name="Group 105795" transform="translate(9.758 18.447)">
            <g id="Group_105791" data-name="Group 105791" transform="translate(0 0)">
              <g id="Group_105790" data-name="Group 105790" transform="translate(0 0)">
                <path id="Path_76267" data-name="Path 76267" d="M50.983,8.739A28.776,28.776,0,0,0,29.861,0,28.776,28.776,0,0,0,8.739,8.739,28.776,28.776,0,0,0,0,29.861,28.733,28.733,0,0,0,4.561,45.836l.025.127q10.73,15.01,25.988,16.994,18.042,1.773,28.154-12.23L59.391,34.7l-.153.637a30.261,30.261,0,0,0,.484-5.478A28.776,28.776,0,0,0,50.983,8.739Z" fill="#80553c"/>
              </g>
            </g>
            <g id="Group_105794" data-name="Group 105794" transform="translate(20.918 13.167)">
              <g id="Group_105793" data-name="Group 105793" transform="translate(0 0)">
                <g id="Group_105792" data-name="Group 105792" transform="translate(0)">
                  <path id="Path_76268" data-name="Path 76268" d="M23.976,9.331A4.672,4.672,0,0,0,27.39,7.114,6.737,6.737,0,0,0,28.307,5.2q.484,4.128,5.019,4.484a3.953,3.953,0,0,0,3.8-1.86,4.716,4.716,0,0,0,.943-3.312Q37.4,3.674,18.727,1.534,0-.632,0,.26A10.2,10.2,0,0,0,2.5,7.445a7.578,7.578,0,0,0,4.79,2.471,10.224,10.224,0,0,0,7.8-1.962A12.372,12.372,0,0,0,17.81,4.948a6.316,6.316,0,0,0,2.242,3.414A5.358,5.358,0,0,0,23.976,9.331Z" fill="#684633"/>
                </g>
              </g>
            </g>
          </g>
          <g id="Group_105800" data-name="Group 105800" transform="translate(19.287 62.525)">
            <g id="Group_105797" data-name="Group 105797" transform="translate(0 0)">
              <g id="Group_105796" data-name="Group 105796">
                <path id="Path_76269" data-name="Path 76269" d="M7.491,25.02q8.084,10.336,16.026,12.637t11.007.025q6.5-10.7,12.408-19.67Q52.845,9.07,48.461,0L0,1.1Q1.118,18.213,7.491,25.02Z" fill="#80553c"/>
              </g>
            </g>
            <g id="Group_105799" data-name="Group 105799" transform="translate(12.344 30.485)">
              <g id="Group_105798" data-name="Group 105798" transform="translate(0 0)">
                <path id="Path_76270" data-name="Path 76270" d="M26.078.879Q26.154.8,26.052.8H26L23.2,4.6l-.025.076-.025.051-.076.1q-.51.688-.662.866l-.713.713-.127.1-.051.051-.051.025-.357.28-.51.28-.535.178a2.782,2.782,0,0,1-.586.1H19.4l-.051.025h-.51l-5.4-.51-.076-.025h-.1l-2.8-.688L10.434,6.2h-.051l-.764-.255a12.371,12.371,0,0,1-1.3-.459l-.637-.255-.153-.076-.076-.025-.076-.051L5.924,4.344q-.917-.51-2.038-1.223L2.229,1.975.14.089.089.013Q.064-.013.013.013q-.025.051,0,.076L.064.166,1.44,1.618,3.682,3.427q1.2.841,2.013,1.325a12.72,12.72,0,0,0,1.147.662l.28.178.076.025,2.217.968.688.229.076.051h.051l.051.025,2.828.79h.051l.025.025h.025l.076.025,3.312.561q.51.051,1.478.153l1.478.051a4.178,4.178,0,0,0,1.5-.408l.637-.382.459-.408.076-.051.892-.968a7.839,7.839,0,0,0,.637-1.045l.153-.255.1-.229Z" fill="#9f7b67"/>
              </g>
            </g>
          </g>
          <g id="Group_105823" data-name="Group 105823" transform="translate(0 0)">
            <g id="Group_105802" data-name="Group 105802" transform="translate(8.688 38.31)">
              <g id="Group_105801" data-name="Group 105801" transform="translate(0 0)">
                <path id="Path_76271" data-name="Path 76271" d="M0,4.265q.229,4.714.713,8.459.255,1.936.535,3.465a7.772,7.772,0,0,1,6.166,2.5q3.465,3.287,4.535,9.427a119.21,119.21,0,0,0,.713-14.6A59.309,59.309,0,0,1,13.911.162Q12.383-.474,7.16,1.385,6.4,1.64,0,4.265Z" transform="translate(0 0)" fill="url(#linear-gradient)"/>
              </g>
            </g>
            <g id="Group_105804" data-name="Group 105804" transform="translate(0 0.185)">
              <g id="Group_105803" data-name="Group 105803" transform="translate(0 0)">
                <path id="Path_76272" data-name="Path 76272" d="M49.964,1.675a8.128,8.128,0,0,0-3.108-1.4,11.9,11.9,0,0,0-5.2.025,6.86,6.86,0,0,0-3.9,2.93Q37.148.376,34.524.733T30.4,4.351a2.121,2.121,0,0,0-1.223-.688,2.343,2.343,0,0,0-1.427.2,3.593,3.593,0,0,0-1.325.943,2.513,2.513,0,0,0-.586,1.478A3.647,3.647,0,0,0,23.9,4.427a4.567,4.567,0,0,0-4.153.178,6.245,6.245,0,0,0-2.93,2.6,5.059,5.059,0,0,0-.561,3.312,11.607,11.607,0,0,0-4.382.611,7.384,7.384,0,0,0-3.593,2.191,12.329,12.329,0,0,0-2.573,4.994,9.754,9.754,0,0,0,.051,5.045A7.123,7.123,0,0,0,2.7,26.211,16.4,16.4,0,0,0,.28,31.1a7.428,7.428,0,0,0,.841,5.886A41.151,41.151,0,0,0,4.051,41.4a7.161,7.161,0,0,0,1.4,5.249A9.81,9.81,0,0,0,9.3,50.238l.229-2.013a8.081,8.081,0,0,1,1.5-4.153,4.826,4.826,0,0,0,5.121,1.911,3.748,3.748,0,0,0,2.752-2.522,32.792,32.792,0,0,0,1.07-4.586,4.943,4.943,0,0,0,2.956,1.4,7.277,7.277,0,0,0,3.491-.433A10.076,10.076,0,0,0,30.676,36.1q.637-1.478.968-2.37-.051,2.344,2.93,4.561a13.055,13.055,0,0,0,5.07,2.293,11.532,11.532,0,0,0,5.656-.688A8.183,8.183,0,0,0,48.868,36.3a5.475,5.475,0,0,0,3.287,2.37,6.554,6.554,0,0,0,4.382.28,3.879,3.879,0,0,0,1.86-1.274,4.189,4.189,0,0,0,.688-1.962,4.74,4.74,0,0,0,2.8,4.153,10.327,10.327,0,0,0,3.159.561,4.742,4.742,0,0,0,2.038-.484,3.737,3.737,0,0,0,1.529-1.656A6.437,6.437,0,0,0,73.3,39.307a6.315,6.315,0,0,0,5.3-3.822,7.26,7.26,0,0,0,.357-6.242,6.748,6.748,0,0,0-3.032-3.363,4.226,4.226,0,0,0,1.121-3.032,4.691,4.691,0,0,0-.586-2.344q-1.682-2.777-5.478-2.573a6.277,6.277,0,0,0,2.65-2.191,4.834,4.834,0,0,0,.994-4.459q-.713-2.5-3.873-3.287a9.9,9.9,0,0,0-5.86.306,5.633,5.633,0,0,0-.357-2.6A4.156,4.156,0,0,0,62.27,3.765a6.386,6.386,0,0,0-3.542-.51A4.131,4.131,0,0,0,56.053,4.86a3.056,3.056,0,0,0-1.733-1.172A1.846,1.846,0,0,0,53,3.968a2.265,2.265,0,0,0-.917.866A4.985,4.985,0,0,0,49.964,1.675Z" fill="#140e0e"/>
              </g>
            </g>
            <g id="Group_105808" data-name="Group 105808" transform="translate(0)">
              <g id="Group_105805" data-name="Group 105805" transform="translate(37.046 0)">
                <path id="Path_76273" data-name="Path 76273" d="M11.873,36.613l.025.051,1.478,1.58.688.51.688.382.076.051.076.025.637.28.51.153.178.025.178.051h.1l.051.025h.025l.764.051a6.41,6.41,0,0,0,1.554-.2l.178-.051.357-.153.1-.025h.025v-.025h.025l.025-.025.1-.025.025-.025.051-.025.1-.025.739-.484.28-.255a4.01,4.01,0,0,0,.51-.586l.382-.611.127-.331.025-.025v-.025l.025-.025.051-.153v-.025l.025-.051.051-.153v-.051l.025-.051v-.076l.127-.611v-.127l.025-.076v-.739l-.025-.127V34.5l-.025-.1-.1-.611-.1-.306-.025-.127-.051-.1-.025-.1-.076-.153v-.051l-.1.025.025.051v.255l.025.127V34.4l-.025.127v.1l-.025.1v.127l-.051.229v.127l-.025.127-.025.051-.025.076-.051.229-.178.459v.025l-.025.025-.051.127v.025l-.025.051-.051.051-.025.076v.025l-.025.051-.484.713-.484.484-.433.306-.459.229-.025.025-.076.025-.051.025H19.16l-.076.025-.153.076-.153.051-.79.178-1.325.051-.025-.025h-.076L16.1,38.7l-.076-.025H15.95l-.153-.051-.153-.025-1.707-.713-1.834-1.2-.127-.1-.051-.025-.051.051m29.2-.306-.025.051-.255.255-.076.051-.076.1-.076.076-.331.28L40.1,37.2l-.561.408-.357.178-.076.051-.688.28a.615.615,0,0,1-.2.076l-.2.076-.1.051-.1.025-.127.051-.306.076L37.3,38.5l-.051.025-.229.051H37l-.025.025h-.076l-.229.051a5.085,5.085,0,0,1-.892.178l-.459.051-.051.025-1.019.025-.2-.025h-.178l-.382-.051-.1-.025H33.3l-.917-.2-.535-.178-.127-.025L31.7,38.4l-.051.076.051.025.255.255.28.2.561.306.153.1.178.076h.051l.051.025.484.178.433.1h.076l.051.025H34.4l.229.051h.229l.076.025H35.7l.051-.025h.127L36,39.8h.127l1.045-.2.051-.025h.051l.025-.025.229-.051.051-.025,1.248-.51.2-.127.1-.051.662-.459.459-.433a3.272,3.272,0,0,0,.433-.586l.1-.127.178-.331.127-.331.025-.127.025-.025-.076-.051M2.675,1.35l-.459.357-.1.1-.051.025L1.223,2.7,1.2,2.752l-.076.076-.28.408-.051.1-.051.076-.1.2-.051.076-.153.28L.051,5.07l-.025.153L0,5.274.076,5.3.1,5.249l.662-.892.051-.051.051-.076L.994,4.1,1.248,3.8,1.3,3.72l.51-.51.051-.025.357-.306L2.293,2.8,2.6,2.573l.051-.025L2.7,2.5l.51-.357.229-.127.127-.051.1-.076L3.8,1.86l.331-.178L4.2,1.656,4.561,1.5l.076-.025.229-.1.764-.255L7.083.79H7.21l.1-.025L7.771.713h.1l.1-.025h.2A2.589,2.589,0,0,1,8.586.662h1.452l.051.025.025-.1h-.051L9.937.51,9.784.459l-.1-.051L8.433.076,8,.025H7.873L7.771,0,6.217.025l-1.4.306L3.975.637,3.8.739,3.72.764,2.675,1.35M19.084,8.1l-.051.076-.025.051-.051.025.025.076.051-.025h.153l.051-.025h.051l.127-.025h.153l.1-.025h.637l.178.025.076.025h.051l.2.1h.025l.051.025.025.025.051.025.28.255.127.178.025.025.025.051.051.051.025.051.051.076.051.1.051.051v.025l.051.1a1.02,1.02,0,0,1,.153.357v.051l.025.025v.1l.025.076v.051l.025.051v.382l-.025.076v.127l-.025.051v.051l-.025.076v.051l-.025.076.051.025.051-.025.051-.051.076-.051.051-.025.025-.051.1-.1.051-.076.025-.025.025-.051a1.654,1.654,0,0,0,.2-.382l.025-.051v-.051l.051-.127.025-.28V9.58l-.025-.153V9.351L22.6,9.274l-.025-.153-.025-.051L22.5,8.918V8.867l-.025-.025-.051-.153-.076-.127-.025-.076-.025-.051-.051-.051V8.332h-.025V8.306h-.025l-.178-.255L21.759,7.8l-.127-.1-.076-.025-.153-.1-.255-.076a.73.73,0,0,0-.331-.076,2.408,2.408,0,0,0-.586.025l-.127.051-.127.025-.331.153-.229.153-.127.127-.1.076-.051.051Z" transform="translate(0 0)" fill="#493f3f"/>
              </g>
              <g id="Group_105806" data-name="Group 105806" transform="translate(0 10.497)">
                <path id="Path_76274" data-name="Path 76274" d="M8.943,31.492l.076.1.076.153.051.076.051.1.994,1.376,1.019,1.07.1.076.1.1.051.025.051.051.713.51.713.357h.025l.79.255.866.153,1.019-.025.535-.1.076-.025h.051l.127-.051h.051l.1-.051h.025l.025-.025.2-.076.051-.025.051-.051.127-.051.459-.357.076-.076.1-.076.2-.2.051-.076.127-.127.382-.459.051-.1.076-.076.076-.153.076-.1q.025-.025-.025-.076h-.051l-.229.178-.1.051-.076.076-.357.229-.127.1-.433.28-.1.051-.076.051-.357.178-.1.025-.076.051-.051.025h-.051l-.1.025-.025.025h-.051l-.076.025h-.025l-.1.025h-.127a3.03,3.03,0,0,1-.459.025h-.484l-.968-.153-.127-.051-.611-.178-.051-.025H13.3l-.025-.025-.561-.255L10.93,33.02l-.153-.153L10.6,32.74,9.733,32l-.051-.025-.255-.229-.1-.076-.076-.076-.127-.076-.1-.1q-.025-.025-.076.025v.051M2.956,15.8q.076-.076-.025-.076H2.879L1.733,17.147.994,18.421l-.229.51-.025.025L.178,20.842l-.025.025v.051l-.025.1-.025.2v.1l-.025.1L0,22.217.051,23.67l.076.611.1.408.025.2.127.484.051.1.1.382.051.076.025.1.994,2.013,1.07,1.529.1.1.076.1,1.274,1.3H4.2v-.076l-.586-.917-.1-.2-.255-.408-.076-.1L2.013,27.058l-.025-.076-.051-.076L1.2,24.485l-.025-.2L1.147,24.2v-.1l-.025-.178-.051-.178v-.2a3.785,3.785,0,0,1-.051-.739l-.025-.178v-.357l.025-.2v-.357l.025-.178v-.178l.025-.178.025-.1v-.076l.051-.357.051-.178.051-.331.2-.815.025-.076.025-.051V19.16l.306-.892L2.956,15.8M16.306.408A3.6,3.6,0,0,1,16.79.382l.943-.051A.045.045,0,0,0,17.784.28L17.759.255l-.535-.1L15.72,0,14.472.025,12.587.331,11.236.79l-.459.2-1.758,1.1-.331.255L7.363,3.669l-.484.637v.025H6.854l-.025.025L6.8,4.408l-.127.178v.025l-.025.025L5.962,5.784l-.2.484a3.726,3.726,0,0,0-.357.968l-.076.229-.051.255L5.2,7.949,5.172,8.2l-.025.051v.051l-.025.127v.127l-.076.586.1,1.733.255,1.1.051.153.076.153a4.875,4.875,0,0,0,.484.994l.535.815q.051.025.076,0v-.076L6.4,13.529l-.051-.178-.076-.178a6.373,6.373,0,0,1-.306-1.019L5.911,12l-.127-.841v-.178L5.758,10.8l.025-1.172.025-.1v-.1l.025-.1v-.1l.178-.841a5.324,5.324,0,0,1,.255-.866,8.352,8.352,0,0,1,.815-1.707l.051-.1.331-.484.051-.051.025-.051.076-.1.025-.051.025-.025V4.917h.025l.459-.586.076-.076a11.818,11.818,0,0,1,1.4-1.376l.764-.586.1-.051.28-.2L11.9,1.452l.1-.025.2-.1.611-.229.1-.025.1-.051L15.236.51h.1l.076-.025.611-.051H16.1l.076-.025h.127m18.166,18.37-.153-.1-.051-.051-.076-.025-.153-.1-.076.025v.051l.051.076.051.153.051.051.153.331.153.51v.051l.025.076.025.229v.51l-.051.28-.051.127v.076l-.025.025V21.1l-.025.076V21.2l-.025.025-.051.178v.025l-.025.025-.127.331-.306.433-.28.28-.459.28-.561.255-.1.025-.611.2h-.051l-.1.051-.076.025a.045.045,0,0,0-.051.051l.025.025.1.051.1.025h.051l.076.025.611.076a.331.331,0,0,0,.255,0h.153l.459-.076.51-.178.076-.051.076-.025.076-.051.1-.051.306-.255.382-.459.331-.637v-.051l.025-.051.051-.153V21.5l.025-.051.025-.1V21.3l.025-.051v-.1l.025-.178v-.561l-.025-.1V20.23l-.025-.1v-.051l-.025-.025-.1-.331-.051-.076-.025-.076-.025-.051-.127-.2-.051-.051-.025-.051-.1-.127Z" transform="translate(0 0)" fill="#493f3f"/>
              </g>
              <g id="Group_105807" data-name="Group 105807" transform="translate(33.428 7.618)">
                <path id="Path_76275" data-name="Path 76275" d="M1.656,0H1.3L.841.153l-.1.076L.306.637.051,1.1l-.025.1L0,1.248l.025.076H.076l.051-.051L.2,1.248l.357-.2L.79.968.866.917,1.045.892,1.07.866h.1L1.2.841l.178.025h.051l.051.025H1.5l.153.076.076.025.076.051.076.076.051.025.306.306.025.051.051.025.025.051.025.025.051.1.025.025.051.076.051.178.025.025v.1l.025.051v.1h.025v.408H2.6v.076L2.573,2.8v.025l-.025.051v.076l-.025.025-.229.408-.051.051.025.076h.1l.1-.025.1-.051.28-.178L2.9,3.236,2.93,3.21l.051-.025.127-.127.076-.1V2.93L3.21,2.9l.025-.076.076-.1.1-.306v-.1H3.44V2.166l.025-.1V1.911L3.44,1.834l-.051-.357-.051-.153-.051-.076-.025-.076L3.006.79,2.854.637A3.142,3.142,0,0,0,2.344.2L2.191.127Z" transform="translate(0 0)" fill="#493f3f"/>
              </g>
            </g>
            <g id="Group_105810" data-name="Group 105810" transform="translate(19.216 31.696)">
              <g id="Group_105809" data-name="Group 105809" transform="translate(0 0)">
                <path id="Path_76276" data-name="Path 76276" d="M12.378.025l-.051.229L12.25.841l-.28,1.147a.634.634,0,0,1-.076.28l-.28.892-.076.153-.051.153-.051.076-.051.153-.2.408a5.97,5.97,0,0,1-.79,1.274l-.484.586-.051.025-.561.51-.051.025-.1.1-.1.051-.408.306-.713.408-.076.051-.1.025-.178.1-.28.1-.1.051-.1.025-.1.051-.586.178L6.365,8H6.314l-1.478.255a5.826,5.826,0,0,1-1.452-.076l-.178-.025-.331-.1h-.1l-.025-.025H2.7L2.313,7.9l-.076-.051L2.11,7.8l-.51-.28-.076-.025L1.473,7.44l-.051-.025-.051-.051-.2-.153A5.619,5.619,0,0,1,.53,6.574L.1,5.911q0-.076-.051-.025-.076,0-.025.051L.148,6.4.3,6.726.352,6.8.4,6.9l.127.2.051.1.051.051.025.051.076.1.459.484.2.153.051.051.357.255.153.076.076.051.433.2.025.025h.051l.076.051.178.051.1.051.306.076a5.74,5.74,0,0,0,1.656.229l1.35-.127.331-.076.051-.025H6.67l.637-.2.127-.025.2-.1.1-.025.637-.306q.2-.1.815-.459l.178-.153.2-.127.076-.076.178-.127.051-.051.051-.025.331-.306.153-.178.1-.076V6.675l.025-.025.051-.025.153-.178L10.8,6.37l.357-.459a7.326,7.326,0,0,0,.764-1.478l.051-.2.076-.178V4.026l.025-.051.178-.611.025-.178.051-.178.1-.637.1-1.5L12.454.051A.045.045,0,0,0,12.4,0Z" fill="#493f3f"/>
              </g>
            </g>
            <g id="Group_105812" data-name="Group 105812" transform="translate(25.708 3.414)">
              <g id="Group_105811" data-name="Group 105811" transform="translate(0 0)">
                <path id="Path_76277" data-name="Path 76277" d="M2.9.025H2.828L2.65,0,2.471.025H2.319L2.14.051A2.855,2.855,0,0,0,1.5.28H1.478L1.427.306,1.376.357,1.3.382,1.223.433,1.147.51H1.121L1.1.535l-.1.076L.764.841.433,1.3l-.127.229-.178.459-.051.229-.025.051v.051l-.025.1L0,2.624v.688l.025.153v.1l.051.28L.127,4l.051.025L.2,3.975.357,3.21l.051-.153V2.981l.076-.255.229-.51A2.5,2.5,0,0,1,1.2,1.58L1.376,1.4l.051-.025L1.5,1.3l.127-.076h.025L1.707,1.2l.025-.025.1-.051H1.86L1.885,1.1l.2-.051h.025l.025-.025h.1L2.293.994h.331l.1.025a1.621,1.621,0,0,1,.433.1l.127.051h.051l.153.076.1.076h.051l.025.025.051.025.051.051h.051v.025h.025l.637.433.484.433.1.076.051.051.025.051.1.076.51.561.1.076L7.109,4.739l.051.051.051.076.408.51.1.1q0,.025.076.025V5.452l-.178-.51-.586-1.3a4.492,4.492,0,0,0-.484-.815l-.051-.1-.306-.433-.1-.1-.561-.662L4.612.739,4.357.586V.561q0,.025-.025,0L4.306.535,4.229.51,4.179.459H4.153L4.128.433H4.1L3.8.28,3.643.229,3.491.153,3.338.1h-.1L3.083.051H3.006Z" fill="#493f3f"/>
              </g>
            </g>
            <g id="Group_105814" data-name="Group 105814" transform="translate(3.952 41.401)">
              <g id="Group_105813" data-name="Group 105813" transform="translate(0 0)">
                <path id="Path_76278" data-name="Path 76278" d="M1.564,4.16,1.51,4.072.3.458.267.283.162,0,.087,0,.067.052.024.294l0,.1L0,.485l.025,1.88.2,1.049.035.105.015.122.156.439a4.354,4.354,0,0,0,.35.879L1.51,6.212,1.6,6.3l.017.053.036.036.163.2a5.717,5.717,0,0,0,.618.641l.146.143.75.557.092.054.055.054.277.128.11.072.646.276.036.036.039-.069-.036-.036L4.5,8.355l-.582-.571-.09-.124-.109-.107-.108-.142L3.5,7.3l-.559-.727-.073-.071-.628-.972L2.149,5.34l-.161-.265-.053-.123-.107-.177Z" transform="translate(0 0)" fill="#493f3f"/>
              </g>
            </g>
            <g id="Group_105816" data-name="Group 105816" transform="translate(51.954 3.694)">
              <g id="Group_105815" data-name="Group 105815" transform="translate(0 0)">
                <path id="Path_76279" data-name="Path 76279" d="M4.068.943,3.809.637,3.472.357,3.1.153,2.979.127,2.88.076,2.78.051H2.653L2.578.025h-.1L2.376,0h-.2l-.1.025h-.2L1.5.127,1.159.28.786.51.732.561.625.637l-.084.1-.109.1-.058.1-.14.178L.2,1.2a1.651,1.651,0,0,0-.143.229L.029,1.5,0,1.554l.047.051L.1,1.58l.08-.051.082-.076.053-.025.08-.051.055-.051.16-.1.211-.1.1-.025.211-.1.491-.1h.382l.049.025h.076l.075.025h.076l.049.025.075.025h.076l.1.051.075.025.1.051.047.051.049.025.217.178.283.331.046.076.047.051,0,.025.024.025.046.076.022.051h.025l0,.025.047.051.068.127.042.127.047.051.082.28.022.051.02.076.022.051.02.076,0,.025.024.025L4,3.363l.022.051-.012.178.009.229.018.1-.046.662.049.025.029-.051.056-.076.082-.076.062-.153.056-.076L4.357,4.1l.116-.2.094-.255L4.6,3.516l.005-.076.031-.076.036-.153L4.71,2.7l-.02-.076.007-.1-.039-.178.005-.076-.037-.2-.046-.076-.039-.178-.089-.178-.018-.1L4.411,1.5l0-.025-.024-.025-.046-.076-.044-.1L4.254,1.2l-.071-.076Z" transform="translate(0)" fill="#493f3f"/>
              </g>
            </g>
            <g id="Group_105818" data-name="Group 105818" transform="translate(59.001 30.957)">
              <g id="Group_105817" data-name="Group 105817" transform="translate(0 0)">
                <path id="Path_76280" data-name="Path 76280" d="M3.359.713l-.044-.1L3.27.535,2.938.178l-.1-.051L2.766.076,2.719.025,2.67,0,2.615.051l.044.1L2.654.229l.044.1.031.28.02.076L2.744.764l.039.178L2.758,1.3l-.076.357-.063.178-.029.051,0,.025H2.562l0,.051-.029.051-.252.331L2.2,2.42l-.084.1-.027.025H2.059L1.786,2.8l-.053.025-.027.025-.053.025,0,.025H1.626l-.08.051-.053.025-.027.025-.1.025-.08.051-.156.051h-.1l-.078.025-.18.025H.333L.156,3.159H.029L0,3.21l.049.025.022.051.142.153.315.229.1.025.2.1.126.025H1l.075.025h.408l.155-.025L1.717,3.8h.076l.158-.076H2l.027-.025.156-.051.055-.051.078-.025.214-.153.055-.051.08-.051.055-.051h.025l0-.025.136-.127.332-.382.031-.076.056-.076L3.337,2.5l.056-.076.062-.153.027-.025,0-.051.031-.076.074-.331L3.6,1.631l-.044-.459L3.47.943,3.45.866,3.428.815Z" fill="#493f3f"/>
              </g>
            </g>
            <g id="Group_105820" data-name="Group 105820" transform="translate(60.822 34.88)">
              <g id="Group_105819" data-name="Group 105819" transform="translate(0 0)">
                <path id="Path_76281" data-name="Path 76281" d="M.031,4.433,0,4.51l.049.025.386.306.124.051.047.051.2.1L.876,5.1H.9l.2.1.743.306.226.051.1.051.351.076a7.149,7.149,0,0,0,1.038.1h.561l.129-.025h.229l.078-.025.129-.025h.153l.078-.025h.051l.156-.051h.1l.053-.025L5.4,5.58l.678-.229.635-.331.135-.1.133-.076.463-.433.392-.51a4.575,4.575,0,0,0,.455-1.045l.034-.127,0-.051.029-.051L8.37,2.5,8.4,2.37l.06-.866L8.411.815,8.235.051l0-.051L8.16.025l0,.051L8.122.2,8.1.459,8.07.586l-.2,1.07-.007.1-.35.994-.289.484-.28.357-.029.051-.053.025-.029.051-.027.025H6.78l-.218.2-.053.025-.082.076a3.908,3.908,0,0,1-.871.433l-.469.153H5.036l-.078.025-.129.025-.053.025H4.7l-.491.1H4.081l-.233.051H3.593l-.053.025h-1.1l-.1-.025h-.1l-.959-.127-.175-.051-.528-.1L.457,4.535h-.1L.206,4.484.08,4.459Z" transform="translate(0)" fill="#493f3f"/>
              </g>
            </g>
            <g id="Group_105822" data-name="Group 105822" transform="translate(16.077 4.153)">
              <g id="Group_105821" data-name="Group 105821" transform="translate(0 0)">
                <path id="Path_76282" data-name="Path 76282" d="M5.911,0h-1.2L3.542.255l-.2.076L2.7.637,2.293.892l-.688.561L1.554,1.5l-.025.051-.178.178-.153.2q-.051.076-.153.2l-.153.2L.866,2.37V2.4l-.051.051-.484.968L.076,4.28l-.051.433L0,4.815v.637l.051.306v.153L.229,6.6l.051.1.051.025.025-.051.025-.1V6.421l.025-.076v-.1l.025-.1v-.1l.178-.866.1-.331L.79,4.688l.076-.28.051-.076.025-.076.051-.1.051-.076V4.026l.331-.586.051-.076.051-.1.051-.076.051-.051.025-.051.051-.076.051-.051V2.93L1.733,2.9l.611-.739L2.4,2.089l.076-.051L2.7,1.809l.1-.051.076-.076.484-.357L4.382.764,4.841.586,4.994.51l.28-.1L5.4.382,5.529.331,5.835.255,5.911.2,6.038.178,6.166.127,6.191.076,6.14.051Z" fill="#493f3f"/>
              </g>
            </g>
          </g>
          <g id="Group_105830" data-name="Group 105830" transform="translate(2.887 52.552)">
            <g id="Group_105825" data-name="Group 105825" transform="translate(0 4.118) rotate(-15.965)">
              <g id="Group_105824" data-name="Group 105824" transform="translate(0 0)">
                <path id="Path_76283" data-name="Path 76283" d="M12.3,3.193A6.689,6.689,0,0,0,7.563.059q-2.993-.475-5.4,2.879A13.079,13.079,0,0,0,.022,11.32a16.453,16.453,0,0,0,2.624,8.51A16.185,16.185,0,0,0,7.92,24.977a36.123,36.123,0,0,0,4.612,1.86q.254-1.307,1.58-5.35a22.583,22.583,0,0,0,.611-9.809Q14.03,5.875,12.3,3.193Z" fill="#80553c"/>
              </g>
            </g>
            <g id="Group_105827" data-name="Group 105827" transform="translate(5.547 6.227)">
              <g id="Group_105826" data-name="Group 105826" transform="translate(0 0)">
                <path id="Path_76284" data-name="Path 76284" d="M.076,1.147l.306-.1.1-.051L.611.968l.28-.1H.968L1.248.79,1.427.764l.1-.025h.1L2.038.688,2.5.713l.459.1a4.21,4.21,0,0,1,.917.382l.459.331.2.178.051.025.357.357.943,1.172L7.032,5.147l.051.127,1.223,2.4.051.076.178.382.076.1.076.178.076.127q0,.076.051.025.076,0,.025-.051l-.076-.586L8.459,6.675l-.943-2.6L6.344,2.14l-.917-.994a.276.276,0,0,1-.127-.1L4.892.739,4.179.331,4.026.28,3.873.2,3.72.153,3.108.025H2.956L2.8,0h-.28L1.605.153,1.452.229H1.4L1.3.28,1.1.357.28.841,0,1.07v.076Z" fill="#684633"/>
              </g>
            </g>
            <g id="Group_105829" data-name="Group 105829" transform="translate(3.603 1.871)">
              <g id="Group_105828" data-name="Group 105828" transform="translate(0 0)">
                <path id="Path_76285" data-name="Path 76285" d="M4.237,0,3.243.178,2.759.331,2.683.382,2.53.433,2.453.484,2.3.535,2.224.586,2.147.611l-.433.28L1.663.917,1.587.994l-.051.025-.025.025L1.052,1.4l-.535.637L.44,2.166l-.1.127-.306.561q-.076.076.025.076H.109L.7,2.4l.127-.076.1-.1.127-.076.127-.1.739-.433h.025l.076-.051h.025l.025-.025.484-.178.051-.025.153-.051.051-.025h.076L3.039,1.2H3.09l.076-.025h.076l.076-.025H3.37l.076-.025L3.6,1.1h.127l.306-.051h.28q.277,0,.764.051l1.2.229.28.076h.051l.025.025h.025l.739.28.739.408a1.262,1.262,0,0,1,.331.229l.1.051.076.051.076.076.1.051L8.9,2.65l.076.051.484.408.917.968.051.1.076.076,1.274,1.86V6.14l.025.025.025.051.178.255,1.707,3.006q0,.076.051.025.076,0,.025-.051L12.186,5.937l-.025-.025V5.886L11.065,4l-.127-.178-.051-.1L9.638,2.268l-.255-.229-.051-.025-.025-.025-.1-.076-.076-.076-.1-.076L8.95,1.682l-.357-.255A5.515,5.515,0,0,0,7.8.943L6.988.535,6.963.51H6.938L6.785.433l-.662-.2A6.357,6.357,0,0,0,5.2.051,6.06,6.06,0,0,0,4.288,0Z" transform="translate(0)" fill="#9f7b67"/>
              </g>
            </g>
          </g>
          <g id="Group_105857" data-name="Group 105857" transform="translate(30.035 50.789)">
            <g id="Group_105835" data-name="Group 105835" transform="translate(28.211 8.787)">
              <g id="Group_105832" data-name="Group 105832" transform="translate(0 0)">
                <g id="Group_105831" data-name="Group 105831" transform="translate(0)">
                  <path id="Path_76286" data-name="Path 76286" d="M5.452,3.715a4.319,4.319,0,0,0-.806-2.635A2.328,2.328,0,0,0,2.726,0,2.362,2.362,0,0,0,.792,1.079,4.37,4.37,0,0,0,0,3.715,4.308,4.308,0,0,0,.792,6.336,2.354,2.354,0,0,0,2.726,7.429a2.321,2.321,0,0,0,1.92-1.093A4.258,4.258,0,0,0,5.452,3.715Z" fill="#231915"/>
                </g>
              </g>
              <g id="Group_105834" data-name="Group 105834" transform="translate(3.007 1.765)">
                <g id="Group_105833" data-name="Group 105833" transform="translate(0 0)">
                  <path id="Path_76287" data-name="Path 76287" d="M1.317.87A1.085,1.085,0,0,0,1.1.239.53.53,0,0,0,.632,0,.57.57,0,0,0,.175.267,1.119,1.119,0,0,0,0,.926a.979.979,0,0,0,.215.617A.555.555,0,0,0,.7,1.795a.529.529,0,0,0,.443-.28A1.024,1.024,0,0,0,1.317.87Z" fill="#fff"/>
                </g>
              </g>
            </g>
            <g id="Group_105837" data-name="Group 105837" transform="translate(23.858 1.511)">
              <g id="Group_105836" data-name="Group 105836" transform="translate(0 0)">
                <path id="Path_76288" data-name="Path 76288" d="M10.673,3.946A15.707,15.707,0,0,0,3.983,0Q-1.32,2.251.437,8.016A7.745,7.745,0,0,1,5.062,6.074Q8.053,5.673,11.2,8.2,11.352,4.656,10.673,3.946Z" transform="translate(0)" fill="#80553c"/>
              </g>
            </g>
            <g id="Group_105839" data-name="Group 105839" transform="translate(24.388 12.242)">
              <g id="Group_105838" data-name="Group 105838" transform="translate(0 0)">
                <path id="Path_76289" data-name="Path 76289" d="M0,1.509.37,5.024a9.739,9.739,0,0,0,8.6-.123l.277-2.929Q5.414-1.725,0,1.509Z" transform="translate(0 0)" fill="#80553c"/>
              </g>
            </g>
            <g id="Group_105841" data-name="Group 105841" transform="translate(24.048 6.968)">
              <g id="Group_105840" data-name="Group 105840" transform="translate(0 0)">
                <path id="Path_76290" data-name="Path 76290" d="M10.113,2.158,9.989,2,8.756,1.048,8.479.894H8.448L8.417.863,8.294.8,8.2.74,7.954.617,7.8.586,7.554.462,7.43.432,7.276.37,7.153.339,7,.277,6.166.092,5.58.031A4.354,4.354,0,0,0,4.995,0H4.409L4.131.031H4.008V.062H3.823L2.744.308,2.621.37,2.5.4,2.251.493l-1.172.678-.308.247L.185,2,0,2.251l.031.092H.092L.339,2.22l.092-.062.123-.031.493-.247,1.295-.432.216-.031.216-.062H2.9l.092-.031h.123l.247-.062h.216L3.7,1.233h.432L4.193,1.2l.771.031a2.794,2.794,0,0,1,.493.031l1.017.123.247.062h.123l.709.185.123.062.339.092h.031v.031h.062L9.465,2.4l.154.092.154.062.462.308.062.062.216.154.092.092v.031H10.7V3.145l-.031-.154-.185-.339A2.562,2.562,0,0,0,10.113,2.158Z" fill="#231915"/>
              </g>
            </g>
            <g id="Group_105846" data-name="Group 105846" transform="translate(5.92 7.924)">
              <g id="Group_105843" data-name="Group 105843" transform="translate(0 0)">
                <g id="Group_105842" data-name="Group 105842" transform="translate(0)">
                  <path id="Path_76291" data-name="Path 76291" d="M6.208,4.052a4.575,4.575,0,0,0-.917-2.875A2.68,2.68,0,0,0,3.1,0,2.72,2.72,0,0,0,.9,1.177,4.628,4.628,0,0,0,0,4.052,4.562,4.562,0,0,0,.9,6.912,2.71,2.71,0,0,0,3.1,8.1,2.67,2.67,0,0,0,5.291,6.912,4.511,4.511,0,0,0,6.208,4.052Z" fill="#231915"/>
                </g>
              </g>
              <g id="Group_105845" data-name="Group 105845" transform="translate(3.424 1.926)">
                <g id="Group_105844" data-name="Group 105844" transform="translate(0 0)">
                  <path id="Path_76292" data-name="Path 76292" d="M1.5.949A1.152,1.152,0,0,0,1.255.261.613.613,0,0,0,.72,0,.655.655,0,0,0,.2.291,1.182,1.182,0,0,0,0,1.01a1.041,1.041,0,0,0,.245.673.64.64,0,0,0,.55.275.606.606,0,0,0,.5-.306A1.082,1.082,0,0,0,1.5.949Z" fill="#fff"/>
                </g>
              </g>
            </g>
            <g id="Group_105848" data-name="Group 105848" transform="translate(0.339 0)">
              <g id="Group_105847" data-name="Group 105847" transform="translate(0 0)">
                <path id="Path_76293" data-name="Path 76293" d="M11.9,4.347A67.433,67.433,0,0,0,5.58,0,16.328,16.328,0,0,0,3.823,1.017Q1.11,2.744,0,9.65A17.241,17.241,0,0,1,1.881,8.324,11.664,11.664,0,0,1,6.752,6.906a8.235,8.235,0,0,1,5.981,1.387Q13.011,5.18,11.9,4.347Z" fill="#80553c"/>
              </g>
            </g>
            <g id="Group_105850" data-name="Group 105850" transform="translate(0.154 12.692)">
              <g id="Group_105849" data-name="Group 105849" transform="translate(0 0)">
                <path id="Path_76294" data-name="Path 76294" d="M0,1.922.74,6.146a18.2,18.2,0,0,0,10.883-.123l1.017-4.378Q7.43-1.778,0,1.922Z" fill="#80553c"/>
              </g>
            </g>
            <g id="Group_105852" data-name="Group 105852" transform="translate(0 6.259)">
              <g id="Group_105851" data-name="Group 105851" transform="translate(0 0)">
                <path id="Path_76295" data-name="Path 76295" d="M12.733,2.1l.154.123.092.031.586.37.092.092.092.031.123.123q.031.031.092-.031V2.775l-.092-.154-.062-.062-.062-.092-.062-.123-.925-.925-.8-.524L10.483.308,10.3.277,10.144.216,9.434.092,8.91.062,8.725.031,7.276,0l-.37.031a9.444,9.444,0,0,0-1.48.216L5.241.277,5.056.339,4.871.37,4.81.4,3.7.832,3.546.925,3.391.987l-.062.062-.092.031-.123.092-.277.154L.37,3.145,0,3.515v.092H.092L3.3,2.158l.277-.092L3.7,1.973l.092-.031h.062l.432-.185.123-.031.154-.062.154-.031.308-.092.956-.185h.154l.185-.031L8.509,1.2l.185.031,1.418.062.74.123.123.031.154.062.123.031h.062l.062.031.247.062.493.185.092.062.123.031.092.062Z" fill="#231915"/>
              </g>
            </g>
            <g id="Group_105854" data-name="Group 105854" transform="translate(2.134 12.348)">
              <g id="Group_105853" data-name="Group 105853" transform="translate(0 0)">
                <path id="Path_76296" data-name="Path 76296" d="M10.446,1.8q.062.062.062-.031.062-.062-.031-.062L10.168,1.5,8.627.725,8.226.6Q7.486.355,7.332.324L6.345.108,5.328.015a8.4,8.4,0,0,0-1.017,0H3.94L3.817.046,3.324.108A6.136,6.136,0,0,0,2.4.293L2,.385.672.879.456,1l-.092.031-.092.062-.123.062-.092.062q-.092,0-.031.062,0,.092.062.031L2.923.694h.216L3.385.663,5.05.6,5.3.632a5.343,5.343,0,0,1,.987.092l.925.123L7.64.971h.123Z" fill="#231915"/>
              </g>
            </g>
            <g id="Group_105856" data-name="Group 105856" transform="translate(25.719 12.148)">
              <g id="Group_105855" data-name="Group 105855" transform="translate(0 0)">
                <path id="Path_76297" data-name="Path 76297" d="M.055.647q-.092,0-.031.062Q.025.8.086.74H.179L2.121.555,3.632.617l.8.123,2.035.617.154.092.863.4L7.7,2l.216.092.493.308q.031.031.092-.031V2.312l-.092-.062-.062-.092-.462-.432L6.838,1.017,5.389.339,4.526.123,3.478,0,2.09.062.826.339.333.524.271.555.148.586Z" transform="translate(0)" fill="#231915"/>
              </g>
            </g>
          </g>
          <g id="Group_105864" data-name="Group 105864" transform="translate(44.995 51.328)">
            <g id="Group_105859" data-name="Group 105859" transform="translate(0.088 0)">
              <g id="Group_105858" data-name="Group 105858" transform="translate(0)">
                <path id="Path_76298" data-name="Path 76298" d="M3.123,23.911q8.3,2.824,9.3-4.586l.1-1.529L9.543,14.611A36.452,36.452,0,0,1,8.652,1.006Q6.274-1.539,5.059,2.356L.575,19.376Q-1.34,23.2,3.123,23.911Z" fill="#80553c"/>
              </g>
            </g>
            <g id="Group_105861" data-name="Group 105861" transform="translate(7.454 1.057)">
              <g id="Group_105860" data-name="Group 105860" transform="translate(0 0)">
                <path id="Path_76299" data-name="Path 76299" d="M.012,8.918a31.528,31.528,0,0,0,.433,3.694q.339,1.756.382,1.834A16.312,16.312,0,0,1,3.12,16.689a5.07,5.07,0,0,1,.994,2.268q.243,1.325-1.248,3.516,2.517-2.253,2.7-4.051a2.644,2.644,0,0,0-1.452-2.726q-1.632-.945-2.522-1.529l.28-.535L1.719,13.4l-.611.025.662-.051L.751,8.077.827,4.229,1.286,0A21.665,21.665,0,0,0,.317,4.077,28.245,28.245,0,0,0,.012,8.918Z" transform="translate(0)" fill="#9f7b67"/>
              </g>
            </g>
            <g id="Group_105863" data-name="Group 105863" transform="translate(0 1.057)">
              <g id="Group_105862" data-name="Group 105862" transform="translate(0 0)">
                <path id="Path_76300" data-name="Path 76300" d="M8.306,3.694,8.281,8.306l.713,5.656a.428.428,0,0,0,.178.28v.025l.229.153,1.147,1.045,1.121,1.427.331.561.025.076a3.166,3.166,0,0,1,.306.637,2.872,2.872,0,0,1,.178.637l.025.459-.025.1v.051l-.025.025-.025.076v.076l-.025.076-.051.076-.076.229a3.7,3.7,0,0,1-.815,1.045l-.561.433-.051.051-.1.051-.076.051-.025.025-.051.025-.357.229-.1.025-.815.357-.764.229H8.51l-.178.051-.713.1h-.2l-.178.025H6.115A14.35,14.35,0,0,1,4.637,22.6a8.51,8.51,0,0,1-1.478-.2l-.178-.051L2.8,22.319l-.28-.076-.076-.051-.331-.1-.433-.2-.076-.025-.153-.1L1.3,21.682l-.382-.331A.68.68,0,0,1,.688,21.1a2.655,2.655,0,0,1-.331-.611L.28,19.772l.127-.739.255-.713q.051-.051-.025-.051-.051-.051-.051.025a3.815,3.815,0,0,0-.357.688l-.2.662L0,20.154l.025.408.306.764.255.331.611.535q.051.051.076.051l.076.051.076.076.917.433.662.2a11.419,11.419,0,0,0,1.529.331q.535.076,1.554.153l1.376.025.2-.025h.2l.79-.1.1-.025h.1l.79-.2.2-.076.025-.025h.051l.764-.331.076-.051.382-.2.025-.025.051-.025.153-.1h.025v-.025h.025l.051-.051a5.4,5.4,0,0,0,.662-.484l.586-.611a4.531,4.531,0,0,0,.459-.739l.1-.2.025-.1.051-.1.025-.1.051-.1.025-.127v-.051l.025-.051.025-.1v-.127l.025-.229-.025-.484a3.511,3.511,0,0,0-.255-.841l-.408-.841-.051-.076-.076-.178-.688-.994-1.07-1.2-.994-.841-.076-.051-.025-.025L9.325,10.4,8.79,4.357,8.816.025,8.79,0,8.739.025Z" fill="#684633"/>
              </g>
            </g>
          </g>
          <g id="Group_105872" data-name="Group 105872" transform="translate(37.498 78.243)">
            <g id="Group_105867" data-name="Group 105867" transform="translate(1.075 0)">
              <g id="Group_105865" data-name="Group 105865" transform="translate(0 0)">
                <path id="Path_76301" data-name="Path 76301" d="M12.971,3.868A16.115,16.115,0,0,0,17.2,5.424Q15.811,2.189,14.49,1.274A8.722,8.722,0,0,0,10.821.051,7.1,7.1,0,0,0,6.115,1.2Q3.8,2.674,0,4.683A24.08,24.08,0,0,1,5.744,3.053,11.937,11.937,0,0,1,12.971,3.868Z" fill="#684633"/>
              </g>
              <g id="Group_105866" data-name="Group 105866" transform="translate(3.891 5.432)">
                <path id="Path_76302" data-name="Path 76302" d="M.148.215.3.289.408.326.482.4l2.594,1,1.334.371,2.557.371,2.409-.074,1.112-.185.074-.037h.111l.185-.074.7-.185.074-.037.148-.037.148-.074q.111,0,.037-.074,0-.111-.074-.037h-.3l-.111.037-3.372.111L2.335.623,1.7.437,1.519.4.482.1H.371L.074.03Q0-.044,0,.067L.037.141Z" transform="translate(0 0)" fill="#684633"/>
              </g>
            </g>
            <g id="Group_105869" data-name="Group 105869" transform="translate(0.463 2.423)">
              <g id="Group_105868" data-name="Group 105868" transform="translate(0 0)">
                <path id="Path_76303" data-name="Path 76303" d="M10.432,1.186l.222.037h.222l1.816.334.222.074.741.185q.111.037.371.111l3.521,1.26.148.037.222.111.222.074q.074.074.074-.037.074-.074-.037-.074L18.03,3.15l-.852-.593L14.991,1.408,14.842,1.3,13.175.667,12.952.63,12.767.556,12.322.445,12.137.371l-2-.334H9.654L9.543,0H8.135L8.023.037H7.8L7.579.074H7.393L4.058.7q-.222.074-.7.222l-.667.222a8.868,8.868,0,0,0-1.149.519L1.427,1.7l-.741.408-.667.519q-.037.074,0,.111H.13l.556-.259.185-.037,1.112-.408,2.854-.593h.185l.185-.037,2.668-.259L8.1,1.112Z" transform="translate(0)" fill="#231915"/>
              </g>
            </g>
            <g id="Group_105871" data-name="Group 105871" transform="translate(0 3.534)">
              <g id="Group_105870" data-name="Group 105870" transform="translate(0 0)">
                <path id="Path_76304" data-name="Path 76304" d="M.408.111V.148L.3.3.222.371V.445L.185.482.148.593.074.741,0,1.038v.371l.074.371.148.334L.3,2.224l.185.185a.407.407,0,0,0,.259.148l.408.148H1.26l.185.037h.111l.111-.111-.074-.074L1.519,2.52,1.3,2.3H1.26l-.3-.334L.926,1.89.889,1.853V1.816L.7,1.334V1.186L.667,1.075V.185L.63.111V.074L.556,0,.445.111Z" fill="#684633"/>
              </g>
            </g>
          </g>
          <g id="Group_105875" data-name="Group 105875" transform="matrix(0.93, -0.369, 0.369, 0.93, 26.533, 52.508)">
            <g id="Group_105874" data-name="Group 105874" transform="translate(0 0)">
              <g id="Group_105873" data-name="Group 105873" transform="translate(0 0)">
                <path id="Path_76305" data-name="Path 76305" d="M8.557.739a24.269,24.269,0,0,0-6.326,1.35A13.733,13.733,0,0,1,3.881,0,9.844,9.844,0,0,0,2.017,1.452a10.357,10.357,0,0,0-.7.764L0,4.2,2.078,2.8A16.2,16.2,0,0,1,9.168,1.35a22.707,22.707,0,0,1,6.448.841q2.17.611,2.6.331a.99.99,0,0,0,.428-1.248l-.031.076a1.239,1.239,0,0,1-.428.611,1.456,1.456,0,0,1-.795.076,17.41,17.41,0,0,1-2.445-.662A17.41,17.41,0,0,0,8.557.739Z" transform="translate(0 1.376)"/>
                <path id="Path_76306" data-name="Path 76306" d="M0,3.465a24.269,24.269,0,0,1,6.326-1.35,17.41,17.41,0,0,1,6.387.637,17.409,17.409,0,0,0,2.445.662,1.456,1.456,0,0,0,.795-.076,1.239,1.239,0,0,0,.428-.611l.031-.076-.031-.076A2.19,2.19,0,0,0,15.189,1.4,16.37,16.37,0,0,0,10.818.229,16.7,16.7,0,0,0,3.392.637a9.844,9.844,0,0,0-1.742.739A13.733,13.733,0,0,0,0,3.465Z" transform="translate(2.231 0)" fill="#140e0e"/>
              </g>
            </g>
          </g>
          <g id="Group_105878" data-name="Group 105878" transform="matrix(-0.845, -0.535, 0.535, -0.845, 67.079, 58.186)">
            <g id="Group_105877" data-name="Group 105877" transform="translate(0 0)">
              <g id="Group_105876" data-name="Group 105876">
                <path id="Path_76307" data-name="Path 76307" d="M6.4,3.117A15.54,15.54,0,0,1,1.667,1.9,12.29,12.29,0,0,0,2.9,3.781,7.728,7.728,0,0,1,1.508,2.475q-.272-.322-.525-.687L0,0,1.553,1.26a10.4,10.4,0,0,0,5.3,1.306,14.3,14.3,0,0,0,4.82-.756q1.622-.55,1.942-.3a.986.986,0,0,1,.32,1.123l-.023-.069a1.13,1.13,0,0,0-.32-.55A.92.92,0,0,0,13,1.948a11.3,11.3,0,0,0-1.827.6A10.927,10.927,0,0,1,6.4,3.117Z"/>
                <path id="Path_76308" data-name="Path 76308" d="M0,0A15.54,15.54,0,0,0,4.728,1.215,10.927,10.927,0,0,0,9.5.642a11.3,11.3,0,0,1,1.827-.6.92.92,0,0,1,.594.069,1.13,1.13,0,0,1,.32.55l.023.069L12.243.8a1.835,1.835,0,0,1-.891,1.054A10.663,10.663,0,0,1,8.086,2.91a10.453,10.453,0,0,1-5.551-.367,6.755,6.755,0,0,1-1.3-.665A12.29,12.29,0,0,1,0,0Z" transform="translate(1.667 1.902)" fill="#140e0e"/>
              </g>
            </g>
          </g>
          <g id="Group_105880" data-name="Group 105880" transform="translate(27.95 72.028)">
            <g id="Group_105879" data-name="Group 105879" transform="translate(0 0)">
              <path id="Path_76309" data-name="Path 76309" d="M3.057,2.293v.764h.764m-.764,0v.764m3.057-.764L3.057,6.115,0,3.057,3.057,0Zm-3.822,0h.764" fill="none" stroke="rgba(0,0,0,0)" stroke-linecap="round" stroke-linejoin="round" stroke-width="0.079"/>
            </g>
          </g>
        </g>
        <g id="Group_105886" data-name="Group 105886" transform="matrix(-0.993, -0.118, 0.118, -0.993, 130.259, 298.622)">
          <g id="Group_105883" data-name="Group 105883" transform="translate(0 0)">
            <g id="Group_105882" data-name="Group 105882">
              <path id="Path_76310" data-name="Path 76310" d="M4.562,3.592q-.025-.076.2-1.732l.56.535A4.579,4.579,0,0,1,6.268,4.79q-.637,7.847-.535,16.28A58.032,58.032,0,0,1,4.562,3.592m7.057,18.725q-.153-.739-.306-1.452a61.517,61.517,0,0,1-.357-17.222q.2-1.809.56-3.643a4.458,4.458,0,0,1,1.605,3.032,4.247,4.247,0,0,1-.127.611,83.064,83.064,0,0,0-1.427,17.018q0,.841.051,1.656M0,12.993a16.424,16.424,0,0,0,.917-1.834Q.893,12.484.893,15.77a26.291,26.291,0,0,0,1.223,7.184A16.755,16.755,0,0,1,.944,19.515a14.508,14.508,0,0,0-.459-1.554A19.374,19.374,0,0,1,0,12.993Z" transform="translate(0.988 1.997)" fill="#684633"/>
              <path id="Path_76311" data-name="Path 76311" d="M16.835,43.677q-.408,0-.815-.025l-.076-.127q-.051-.025-.051-.051A9.393,9.393,0,0,1,9.218,38q-1.681-2.624-3.771-6.649-.459-.739-.968-1.452a6.909,6.909,0,0,1-.433-.739q-.739-1.1-1.3-2.064A20.294,20.294,0,0,1,.1,21.334Q-.31,19.525.989,14.99a19.374,19.374,0,0,0,.484,4.968,14.508,14.508,0,0,1,.459,1.554A16.755,16.755,0,0,0,3.1,24.952a26.291,26.291,0,0,1-1.223-7.184q0-3.286.025-4.611l.025-1.987q.1-.688.28-1.427.433-2.038.764-4.127l.076-.1Q4.5,2.761,5.753,3.857q-.229,1.656-.2,1.732A58.032,58.032,0,0,0,6.721,23.066q-.1-8.433.535-16.28.025-.611.076-1.2.229-2.14.713-4.79Q11.052-1.264,12.5,2q-.357,1.834-.56,3.643A61.517,61.517,0,0,0,12.3,22.862q.153.713.306,1.452-.051-.815-.051-1.656A83.064,83.064,0,0,1,13.982,5.64a4.246,4.246,0,0,0,.127-.611q.28-1.1.815-2.853,4.331.586,5.325,3.567a9.108,9.108,0,0,1-.153,4.739q-1.732,9.758-.025,13.961,1.656.408,1.452-4.2-.357-5.146,1.656-6.6a4.289,4.289,0,0,1,5.274-.1q-1.86,8.611-1.019,12.917.815,4.306.841,4.407-.408,1.045-.892,2.038a50.975,50.975,0,0,1-2.8,5.248q-.56.917-1.1,1.631a9.022,9.022,0,0,1-3.567,3.006,2.283,2.283,0,0,1-.408.2A5.457,5.457,0,0,1,16.835,43.677Z" fill="#80553c"/>
            </g>
          </g>
          <g id="Group_105885" data-name="Group 105885" transform="translate(14.593 34.582)">
            <g id="Group_105884" data-name="Group 105884" transform="translate(0 0)">
              <path id="Path_76312" data-name="Path 76312" d="M3.057,3.821V3.057h.764m-.764,0V2.293m3.057.764L3.057,0,0,3.057,3.057,6.114Zm-3.821,0h.764" transform="translate(0 0)" fill="none" stroke="rgba(0,0,0,0)" stroke-linecap="round" stroke-linejoin="round" stroke-width="0.079"/>
            </g>
          </g>
        </g>
      </g>
    </g>
  </g>
</svg>
