<svg xmlns="http://www.w3.org/2000/svg" xmlns:xlink="http://www.w3.org/1999/xlink" width="375" height="270" viewBox="0 0 375 270">
  <defs>
    <clipPath id="clip-path">
      <rect id="Rectangle_8674" data-name="Rectangle 8674" width="375" height="270" transform="translate(17840 -12887)" fill="#fff" stroke="#707070" stroke-width="1" opacity="0.59"/>
    </clipPath>
    <clipPath id="clip-path-2">
      <path id="Path_76683" data-name="Path 76683" d="M0,0H222V210H55.179L43.242,223.188H22.43L17.25,210H0Z" transform="translate(77 124)" fill="#fff"/>
    </clipPath>
    <linearGradient id="linear-gradient" x1="0.543" y1="0.993" x2="0.511" y2="0.105" gradientUnits="objectBoundingBox">
      <stop offset="0" stop-color="#4d4343"/>
      <stop offset="1" stop-color="#252020"/>
    </linearGradient>
  </defs>
  <g id="Mask_Group_16635" data-name="Mask Group 16635" transform="translate(-17840 12887)" clip-path="url(#clip-path)">
    <g id="Mask_Group_16632" data-name="Mask Group 16632" transform="translate(17840 -12987)" clip-path="url(#clip-path-2)">
      <g id="male_teen_DS_8" data-name="male teen DS 8" transform="translate(97 133.531)">
        <g id="Group_106512" data-name="Group 106512" transform="matrix(-0.728, 0.686, -0.686, -0.728, 194.152, 176.299)">
          <g id="Group_106495" data-name="Group 106495" transform="translate(1.32 7.262)">
            <g id="Group_106494" data-name="Group 106494" transform="translate(0 0)">
              <path id="Path_76592" data-name="Path 76592" d="M19.117,0a230.04,230.04,0,0,1,7.152,35.016L5.446,39.2Q2.135,20.992,0,3.081Z" fill="#80553c"/>
            </g>
          </g>
          <g id="Group_106497" data-name="Group 106497" transform="translate(1.293 0)">
            <g id="Group_106496" data-name="Group 106496" transform="translate(0 0)">
              <path id="Path_76593" data-name="Path 76593" d="M19.475,9.738a9.408,9.408,0,0,1-2.861,6.9,9.363,9.363,0,0,1-6.877,2.833,9.454,9.454,0,0,1-6.9-2.833A9.455,9.455,0,0,1,0,9.738,9.363,9.363,0,0,1,2.833,2.861,9.408,9.408,0,0,1,9.738,0a9.318,9.318,0,0,1,6.877,2.861A9.318,9.318,0,0,1,19.475,9.738Z" transform="translate(0)" fill="#80553c"/>
            </g>
          </g>
          <g id="Group_106500" data-name="Group 106500" transform="translate(5.281 34.237)">
            <g id="Group_106499" data-name="Group 106499" transform="translate(0 0)">
              <g id="Group_106498" data-name="Group 106498">
                <path id="Path_76594" data-name="Path 76594" d="M1.733,15.661,0,4.355A32.3,32.3,0,0,1,21.263.367l1.843,10.453Z" fill="#684633"/>
              </g>
            </g>
          </g>
          <g id="Group_106502" data-name="Group 106502" transform="translate(17.44 64.807)">
            <g id="Group_106501" data-name="Group 106501" transform="translate(0 0)">
              <path id="Path_76595" data-name="Path 76595" d="M32.293,16.147a15.556,15.556,0,0,1-4.731,11.415,15.556,15.556,0,0,1-11.415,4.731A15.556,15.556,0,0,1,4.731,27.562,15.556,15.556,0,0,1,0,16.147,15.556,15.556,0,0,1,4.731,4.731,15.556,15.556,0,0,1,16.147,0,15.556,15.556,0,0,1,27.562,4.731,15.556,15.556,0,0,1,32.293,16.147Z" transform="translate(0)" fill="#7a2230"/>
            </g>
          </g>
          <g id="Group_106504" data-name="Group 106504" transform="translate(0.055 36.485)">
            <g id="Group_106503" data-name="Group 106503" transform="translate(0 0)">
              <path id="Path_76596" data-name="Path 76596" d="M37.85,2.85q5.792,24.736,11.388,37.822L22.446,56.214Q12.983,47.879,0,9.122,13.093-5.1,37.85,2.85Z" fill="#7a2230"/>
            </g>
          </g>
          <g id="Group_106507" data-name="Group 106507" transform="translate(0 36.519)">
            <g id="Group_106506" data-name="Group 106506" transform="translate(0 0)">
              <g id="Group_106505" data-name="Group 106505" transform="translate(0 0)">
                <path id="Path_76597" data-name="Path 76597" d="M11.938,40.033A270.433,270.433,0,0,1,0,9.032Q12.585-4.842,36.969,2.6,9.517,1.028,5.914,10.985,3.713,17.037,19.2,52.521A70.733,70.733,0,0,1,11.938,40.033Z" fill="#4b0f18"/>
              </g>
            </g>
          </g>
          <g id="Group_106509" data-name="Group 106509" transform="translate(40.441 49.678)">
            <g id="Group_106508" data-name="Group 106508" transform="translate(0 0)">
              <path id="Path_76598" data-name="Path 76598" d="M8.137,25.637l-.385-.55-.11-.193-.165-.22-.688-1.155-.083-.165-.11-.165L4.2,18.017,1.617,9.682.05.358.022.055Q-.033,0,.05,0L.1.028,4.753,16.559l2.421,6.574.055.193.633,1.458.11.193.248.633q.055.055-.028.055Q8.137,25.719,8.137,25.637Z" transform="translate(0)" fill="#4b0f18"/>
            </g>
          </g>
          <g id="Group_106511" data-name="Group 106511" transform="translate(30.285 77.652)">
            <g id="Group_106510" data-name="Group 106510" transform="translate(0 0)">
              <path id="Path_76599" data-name="Path 76599" d="M3.3,4.126V3.3h.825M3.3,3.3V2.476M6.6,3.3,3.3,0,0,3.3,3.3,6.6Zm-4.126,0H3.3" transform="translate(0 0)" fill="none" stroke="rgba(0,0,0,0)" stroke-linecap="round" stroke-linejoin="round" stroke-width="0.086"/>
            </g>
          </g>
        </g>
        <g id="Group_106522" data-name="Group 106522" transform="translate(51.945 164.048)">
          <g id="Group_106514" data-name="Group 106514" transform="translate(0 34.554)">
            <g id="Group_106513" data-name="Group 106513">
              <path id="Path_76600" data-name="Path 76600" d="M57.321,159.38a355.066,355.066,0,0,0-3.742-58.544l-71.529,3.081a390.76,390.76,0,0,1-8.8,56.123Q12.777,175.218,57.321,159.38Z" transform="translate(26.752 -100.836)" fill="#ede6de"/>
            </g>
          </g>
          <g id="Group_106516" data-name="Group 106516" transform="translate(8.577 2.208)">
            <g id="Group_106515" data-name="Group 106515">
              <path id="Path_76601" data-name="Path 76601" d="M1716.939,746.586A36.14,36.14,0,1,0,1727.524,721,34.852,34.852,0,0,0,1716.939,746.586Z" transform="translate(-1716.939 -710.42)" fill="#ede6de"/>
            </g>
          </g>
          <g id="Group_106519" data-name="Group 106519" transform="translate(0.055 0)">
            <g id="Group_106518" data-name="Group 106518">
              <g id="Group_106517" data-name="Group 106517">
                <path id="Path_76602" data-name="Path 76602" d="M-87.572-306.311q.853-.028,1.733-.028.88.11,1.761.248a4.738,4.738,0,0,1,.523-.027,39.1,39.1,0,0,1-.5-7.455,9.128,9.128,0,0,1,.138-1.238,10.1,10.1,0,0,1,.22-1.073l-.5,1.568a37.292,37.292,0,0,0-22.284,5.255l-7.18,7.483a59.453,59.453,0,0,0-6.328,10.922,51.042,51.042,0,0,0-2.173,10.647,448.444,448.444,0,0,1-8.693,58.076,46.858,46.858,0,0,0,7.373,2.393q4.529,1.128,7.125,1.9a37.911,37.911,0,0,0,6.465,1.266q3.872.5,8.006,1.266a40.47,40.47,0,0,0,8.363.715q4.264-.078,6.052-.138t7.318-.413a70.945,70.945,0,0,0,10.1-1.293q4.442-.77,7.621-1.6,3.21-.825,3.962-1.045.746-.193,1.486-.413.743-.248,1.486-.468-.578.11-1.128.248-4.512.88-9.189,1.4-3.329.385-6.713.715a119.965,119.965,0,0,1-12.3.413,65.671,65.671,0,0,1-7.621-.605,62.205,62.205,0,0,1-10.729-2.448,24.123,24.123,0,0,1-7.511-4.154,14.467,14.467,0,0,1-4.952-7.731,38.686,38.686,0,0,1-1.073-6.245,93.622,93.622,0,0,1-.358-11.335q.138-4.264.413-8.583.165-2.944.468-5.887.361-3.3.633-7.868.294-4.566,1.183-9.987a32.868,32.868,0,0,1,3.439-10.124,22.048,22.048,0,0,1,7.07-7.786,45.254,45.254,0,0,1,6.548-3.8A29.781,29.781,0,0,1-87.572-306.311Z" transform="translate(130.847 315.885)" fill="#dad0c5"/>
              </g>
            </g>
          </g>
          <g id="Group_106521" data-name="Group 106521" transform="translate(38.736 98.049)">
            <g id="Group_106520" data-name="Group 106520" transform="translate(0 0)">
              <path id="Path_76603" data-name="Path 76603" d="M-6.988-7.813v.825h.825m-.825,0v.825m3.3-.825-3.3,3.3-3.3-3.3,3.3-3.3Zm-4.127,0h.825" transform="translate(10.289 10.289)" fill="none" stroke="rgba(0,0,0,0)" stroke-linecap="round" stroke-linejoin="round" stroke-width="0.086"/>
            </g>
          </g>
        </g>
        <g id="Group_106547" data-name="Group 106547" transform="translate(44.737 115.82)">
          <g id="Group_106524" data-name="Group 106524" transform="translate(31.225 0)">
            <g id="Group_106523" data-name="Group 106523" transform="translate(0)">
              <path id="Path_76604" data-name="Path 76604" d="M-31.363-250.09l2.724-13.04a31.087,31.087,0,0,0-8.969-5.145,28.3,28.3,0,0,0-9.051-1.568,30.348,30.348,0,0,0-17.359,5.227l-.633,14.526Z" transform="translate(64.652 269.845)" fill="#80553c"/>
            </g>
          </g>
          <g id="Group_106526" data-name="Group 106526" transform="translate(8.666 3.221)">
            <g id="Group_106525" data-name="Group 106525">
              <path id="Path_76605" data-name="Path 76605" d="M-57.932-238.046a19.163,19.163,0,0,0-2.916-9.629q-2.654-4.2-9.079-6.768a55.983,55.983,0,0,1-8.8-4.127q-2.245,5.97-9.574,10.234-7.3,4.292-12.793-1.321-5.472-5.585-6.85-6.768a11.742,11.742,0,0,1-2.559-3.384,45.685,45.685,0,0,0-5.777,1.6q-4.841,1.521-9.684,3.109a57.434,57.434,0,0,0-9,3.879l7.263,75.71q2.861-3.907,6-7.566,2.806-3.274,5.887-6.355l1.155-1.155,1.155-1.1q2.228-2.036,4.622-3.879a46.348,46.348,0,0,1,9.216-5.42,29.262,29.262,0,0,1,9.051-2.311,27.694,27.694,0,0,1,8.941.8A33.722,33.722,0,0,1-72.9-198.65a40.768,40.768,0,0,1,5.475,4.017,58.5,58.5,0,0,1,4.842,4.677,72.8,72.8,0,0,1,6.768,8.391Z" transform="translate(134.963 259.807)" fill="#ede6de"/>
            </g>
          </g>
          <g id="Group_106528" data-name="Group 106528" transform="translate(0.275 9.796)">
            <g id="Group_106527" data-name="Group 106527" transform="translate(0 0)">
              <path id="Path_76606" data-name="Path 76606" d="M1576.823,547a16.156,16.156,0,1,0-4.732,11.417A15.558,15.558,0,0,0,1576.823,547Z" transform="translate(-1544.525 -530.847)" fill="#ede6de"/>
            </g>
          </g>
          <g id="Group_106531" data-name="Group 106531" transform="translate(11.362 39.04)">
            <g id="Group_106530" data-name="Group 106530">
              <g id="Group_106529" data-name="Group 106529">
                <path id="Path_76607" data-name="Path 76607" d="M-112.2-148.167q-14.333,2.338-14.361,2.311l4.512,46.439,9.656-11.885Z" transform="translate(126.56 148.167)" fill="#dad0c5"/>
              </g>
            </g>
          </g>
          <g id="Group_106536" data-name="Group 106536" transform="translate(0 3.633)">
            <g id="Group_106533" data-name="Group 106533">
              <g id="Group_106532" data-name="Group 106532">
                <path id="Path_76608" data-name="Path 76608" d="M-128.959-235.962a79.137,79.137,0,0,1,5.117-16.782l-6.438-5.777a141.783,141.783,0,0,0-20.688,6.85q-10.471,4.26-11,16.424,1.464,9.241,8.418,13.123l.523.275q.35.195.688.358.075.033.138.055l.468.193a14.9,14.9,0,0,0,4.539,1.1,16.417,16.417,0,0,0,1.651.083,15.558,15.558,0,0,0,11.417-4.732,15.182,15.182,0,0,0,1.155-1.293Q-130.078-229.226-128.959-235.962Z" transform="translate(161.972 258.521)" fill="#7a2230"/>
              </g>
            </g>
            <g id="Group_106535" data-name="Group 106535" transform="translate(63.22 1.1)">
              <g id="Group_106534" data-name="Group 106534" transform="translate(0)">
                <path id="Path_76609" data-name="Path 76609" d="M46.129-244.967q5.264,4.179,8.886,12.793,1.689,3.984,2.944,7.566a74.114,74.114,0,0,1-.11-8.694,22.069,22.069,0,0,0-.468-5.942q-.225-2.746-3.246-5.97A20.643,20.643,0,0,0,47.23-250.5a55.908,55.908,0,0,1-9.574-4.594L35.07-250.91A32.991,32.991,0,0,1,46.129-244.967Z" transform="translate(-35.07 255.091)" fill="#7a2230"/>
              </g>
            </g>
          </g>
          <g id="Group_106538" data-name="Group 106538" transform="translate(47.704 4.349)">
            <g id="Group_106537" data-name="Group 106537">
              <path id="Path_76610" data-name="Path 76610" d="M108.534-139.239l-.165.083-.523.33-2.393,1.183-3.549,1.1-.165.027-.165.055-3.769.605h-.028l-.028.055.028.028.22.055,1.486.11.138.028,1.9-.055.358-.055h.193l1.541-.275,1.623-.468a12.854,12.854,0,0,0,1.623-.633l.8-.413,2.448-1.651,2.146-2.173.935-1.321.11-.138.193-.358.11-.165q.028-.028-.028-.083h-.055l-.138.165-1.155,1.1-.11.083-.33.3-.11.083-.22.22Z" transform="translate(-97.749 143.366)" fill="#684633"/>
            </g>
          </g>
          <g id="Group_106540" data-name="Group 106540" transform="translate(39.121 12.657)">
            <g id="Group_106539" data-name="Group 106539">
              <path id="Path_76611" data-name="Path 76611" d="M-22.463-228.664l-.605.248-.22.055a18.551,18.551,0,0,1-1.843.578q-.825.22-.963.248l-1.486.3h-.138l-.11.027-2.338.165-.138.028-.11-.028h-.77l-1.513-.138-2.559-.55-2.779-1.018-1.018-.5-.22-.083-.165-.11-.523-.248q-.083-.083-.083.027v.055l1.678,1.458.138.083.605.44,2.448,1.266h.055l1.1.385.138.028.11.055.275.055a11.52,11.52,0,0,0,2.173.385,14.131,14.131,0,0,0,2.311.028l.853-.083,2.448-.523.275-.083.11-.055.138-.027.523-.193a18.237,18.237,0,0,0,1.871-.8l1.568-.88a13.56,13.56,0,0,0,1.266-.853l1.706-1.4v-.083h-.083l-1.6.715-.083.027-.605.275-.165.055-.165.083-1.293.523Z" transform="translate(40.043 230.397)" fill="#dad0c5"/>
            </g>
          </g>
          <g id="Group_106542" data-name="Group 106542" transform="translate(30.152 1.982)">
            <g id="Group_106541" data-name="Group 106541">
              <path id="Path_76612" data-name="Path 76612" d="M-44.859-249.8a19.985,19.985,0,0,0,8.693-4.072,17.486,17.486,0,0,0,2.834-3,9.543,9.543,0,0,0,1.6-3.494q-.22-1.4-1.321-1.486a2.3,2.3,0,0,0-2.091,1.293,18.983,18.983,0,0,1-3.494,3.687,11.419,11.419,0,0,1-3.659,1.981,24.98,24.98,0,0,1-4.127.935,16.057,16.057,0,0,1-9.491-1.128,15.831,15.831,0,0,1-7.043-6,5.554,5.554,0,0,0-1.21-1.843,2.508,2.508,0,0,0-1.871-.743q-1.1,0-1.953,1.568a26.989,26.989,0,0,0,4.347,7.1,15,15,0,0,0,9.189,5.282A23.2,23.2,0,0,0-44.859-249.8Z" transform="translate(67.996 263.669)" fill="#7a2230"/>
            </g>
          </g>
          <g id="Group_106544" data-name="Group 106544" transform="translate(30.24 3.666)">
            <g id="Group_106543" data-name="Group 106543" transform="translate(0)">
              <path id="Path_76613" data-name="Path 76613" d="M-42.279-245.741q1.045-.11,2.5-.358l2.916-.77,1.651-.715.33-.193q.083,0,.028-.055,0-.083-.055-.028l-.11.028-.44.165-.22.055-.138.055-.44.11q-.33.11-1.568.385l-5.832.5-3.191-.193-2.559-.5-1.431-.44a20.392,20.392,0,0,1-2.724-1.21l-1.238-.743q-.688-.468-1.155-.853l-.165-.083-.11-.11-.275-.22-2.559-2.531-3.411-4.925q0-.083-.055-.027-.083,0-.028.055l.55,1.321q.468.99.743,1.458l1.1,1.843a20.684,20.684,0,0,0,1.541,2.008l.963,1.018a12.365,12.365,0,0,0,1.073.963,13.442,13.442,0,0,0,1.21.935l1.293.825,2.889,1.321a25.21,25.21,0,0,0,3.081.77l.743.11,3.714.138Z" transform="translate(62.577 258.418)" fill="#4b0f18"/>
            </g>
          </g>
          <g id="Group_106546" data-name="Group 106546" transform="translate(48.667 83.278)">
            <g id="Group_106545" data-name="Group 106545" transform="translate(0 0)">
              <path id="Path_76614" data-name="Path 76614" d="M-6.988-7.813v.825h.825m-.825,0v.825m3.3-.825-3.3,3.3-3.3-3.3,3.3-3.3Zm-4.127,0h.825" transform="translate(10.289 10.289)" fill="none" stroke="rgba(0,0,0,0)" stroke-linecap="round" stroke-linejoin="round" stroke-width="0.086"/>
            </g>
          </g>
        </g>
        <g id="Group_106556" data-name="Group 106556" transform="translate(103.363 170.569) rotate(-67.309)">
          <g id="Group_106549" data-name="Group 106549" transform="matrix(0.978, -0.208, 0.208, 0.978, 0, 8.405)">
            <g id="Group_106548" data-name="Group 106548" transform="translate(0 0)">
              <path id="Path_76615" data-name="Path 76615" d="M21.683,63.674a40.043,40.043,0,0,1-3.108,8.086L.009,66.617q-.028-2.09.028-4.181a390.5,390.5,0,0,1,3.8-46.208A131.733,131.733,0,0,0,5.153.055L18.327,0a133.879,133.879,0,0,0,.77,21.1q1.187,9.209,2.613,23.352T21.683,63.674Z" fill="#80553c"/>
            </g>
          </g>
          <g id="Group_106551" data-name="Group 106551" transform="translate(4.981 0)">
            <g id="Group_106550" data-name="Group 106550" transform="translate(0 0)">
              <path id="Path_76616" data-name="Path 76616" d="M13.21,6.6a6.362,6.362,0,0,1-1.937,4.668A6.362,6.362,0,0,1,6.6,13.21a6.362,6.362,0,0,1-4.668-1.937A6.362,6.362,0,0,1,0,6.6,6.362,6.362,0,0,1,1.937,1.937,6.362,6.362,0,0,1,6.6,0a6.362,6.362,0,0,1,4.668,1.937A6.362,6.362,0,0,1,13.21,6.6Z" transform="translate(0)" fill="#80553c"/>
            </g>
          </g>
          <g id="Group_106553" data-name="Group 106553" transform="translate(5.977 12.779)">
            <g id="Group_106552" data-name="Group 106552" transform="translate(0 0)">
              <path id="Path_76617" data-name="Path 76617" d="M6.816,54.157l.33,2.42q.055.055-.028.055-.055.055-.055-.028L4.2,41.257,2.47,28.44.022.055Q-.033,0,.05,0L.1.028,6.733,53.552Q6.788,53.965,6.816,54.157Z" transform="translate(0 0)" fill="#684633"/>
            </g>
          </g>
          <g id="Group_106555" data-name="Group 106555" transform="translate(20.219 69.137)">
            <g id="Group_106554" data-name="Group 106554" transform="translate(0 0)">
              <path id="Path_76618" data-name="Path 76618" d="M3.3,4.126V3.3h.825M3.3,3.3V2.475M6.6,3.3,3.3,0,0,3.3,3.3,6.6Zm-4.126,0H3.3" fill="none" stroke="rgba(0,0,0,0)" stroke-linecap="round" stroke-linejoin="round" stroke-width="0.086"/>
            </g>
          </g>
        </g>
        <g id="Group_106561" data-name="Group 106561" transform="translate(86.49 139.471) rotate(-6.189)">
          <g id="Group_106558" data-name="Group 106558" transform="translate(0 0)">
            <g id="Group_106557" data-name="Group 106557" transform="translate(0 0)">
              <path id="Path_76619" data-name="Path 76619" d="M5.453,9.635q-1.044-.243-.9-1.019A34.8,34.8,0,0,0,11.35.291,13.411,13.411,0,0,1,13.268,1.5L7.224,7.985,7.88,9.247a11.763,11.763,0,0,1-2.427.388M.04,7.6a.7.7,0,0,1,.121-.68Q1.982,4.66,3.705,2.281q.607-.9,1.238-1.8L5.137.049,5.186.1,6.569,0A54.381,54.381,0,0,0,.987,7.863a4.329,4.329,0,0,0,2.136,1.5.941.941,0,0,0,.121.049,1.8,1.8,0,0,0,.316.073l-.534.17L3.1,9.465A2.854,2.854,0,0,1,.04,7.6M20.5,2.209a4.167,4.167,0,0,1,.461,1.456L11.884,6.407l8.616-4.2M18.971,9.271q.7-.17,2.5-.825l1.092,6.383-3.422,4.053q1.359-3.762,1.6-4.66l-.922-3.616q-3.907.874-6.067-.34l-3.058-.582a9.316,9.316,0,0,0,1.845-.413,3.212,3.212,0,0,1-.655-2.864q2.281,4.1,7.087,2.864M18.631,30.8q-3.592-4.247.073-7.863Q17.127,28.25,21.786,30.6A14.774,14.774,0,0,1,18.631,30.8Z" transform="translate(3.266 1.104)" fill="#684633"/>
              <path id="Path_76620" data-name="Path 76620" d="M7.82,9.72q-.146.777.9,1.019a7.034,7.034,0,0,1-1.893-.146,1.8,1.8,0,0,1-.316-.073.941.941,0,0,1-.121-.049,4.329,4.329,0,0,1-2.136-1.5A54.381,54.381,0,0,1,9.835,1.1q.291-.34.582-.631,1.626-1.286,4.2.922A34.8,34.8,0,0,1,7.82,9.72m-4.466.437Q1.631,9.429,2.311,8.094a33.091,33.091,0,0,1,1.82-3.155A13.716,13.716,0,0,1,8.4,1.153l-.194.437q-.631.9-1.238,1.8Q5.248,5.764,3.427,8.021a.7.7,0,0,0-.121.68A2.854,2.854,0,0,0,6.364,10.57l-.073.194a6.256,6.256,0,0,1-2.937-.607M20.392,1.638a3.692,3.692,0,0,1,3.374,1.675l-8.616,4.2a3.212,3.212,0,0,0,.655,2.864,9.316,9.316,0,0,1-1.845.413,5,5,0,0,1-2.815-.437L10.49,9.089l6.043-6.48q.388-1.092,3.859-.971m1.578,22.4Q18.3,27.656,21.9,31.9q-6.019-.267-11.844-5.17A11.532,11.532,0,0,0,1.9,28.748Q-.237,26.976.03,25.18A4.964,4.964,0,0,1,1.607,22.2a5.525,5.525,0,0,1,3.3-1.432,9.208,9.208,0,0,1,4.32.68q5.242-1.189,6.213-5.485.534-2.306-1.48-5.17l3.058.582q2.16,1.213,6.067.34l.922,3.616q-.243.9-1.6,4.66l3.422-4.053L24.737,9.55q-1.8.655-2.5.825-4.805,1.238-7.087-2.864l9.077-2.743a9.018,9.018,0,0,1,3.738,1.165q2.961,5.849,4.49,8.543,1.5,2.718.413,10.436-1.092,7.694-7.815,6.8Q20.392,29.355,21.97,24.04Z" fill="#80553c"/>
            </g>
          </g>
          <g id="Group_106560" data-name="Group 106560" transform="translate(21.405 22.605)">
            <g id="Group_106559" data-name="Group 106559" transform="translate(0 0)">
              <path id="Path_76621" data-name="Path 76621" d="M3.3,4.126V3.3h.825M3.3,3.3V2.476M6.6,3.3,3.3,0,0,3.3,3.3,6.6Zm-4.126,0H3.3" fill="none" stroke="rgba(0,0,0,0)" stroke-linecap="round" stroke-linejoin="round" stroke-width="0.086"/>
            </g>
          </g>
        </g>
        <g id="Group_106580" data-name="Group 106580" transform="translate(35.902 114.391) rotate(21.652)">
          <g id="Group_106563" data-name="Group 106563" transform="translate(1.32 50.643)">
            <g id="Group_106562" data-name="Group 106562" transform="translate(0 0)">
              <path id="Path_76622" data-name="Path 76622" d="M19.118,39.2A230.05,230.05,0,0,0,26.27,4.181L5.447,0Q2.135,18.206,0,36.118Z" fill="#80553c"/>
            </g>
          </g>
          <g id="Group_106565" data-name="Group 106565" transform="translate(1.293 77.628)">
            <g id="Group_106564" data-name="Group 106564" transform="translate(0 0)">
              <path id="Path_76623" data-name="Path 76623" d="M19.476,9.738a9.409,9.409,0,0,0-2.861-6.9A9.364,9.364,0,0,0,9.738,0a9.455,9.455,0,0,0-6.9,2.833A9.455,9.455,0,0,0,0,9.738a9.363,9.363,0,0,0,2.833,6.877,9.409,9.409,0,0,0,6.9,2.861,9.318,9.318,0,0,0,6.877-2.861A9.318,9.318,0,0,0,19.476,9.738Z" fill="#80553c"/>
            </g>
          </g>
          <g id="Group_106568" data-name="Group 106568" transform="translate(5.282 47.204)">
            <g id="Group_106567" data-name="Group 106567" transform="translate(0 0)">
              <g id="Group_106566" data-name="Group 106566">
                <path id="Path_76624" data-name="Path 76624" d="M1.733,0,0,11.306a32.3,32.3,0,0,0,21.264,3.989L23.107,4.841Z" fill="#684633"/>
              </g>
            </g>
          </g>
          <g id="Group_106570" data-name="Group 106570" transform="translate(17.44 0)">
            <g id="Group_106569" data-name="Group 106569" transform="translate(0 0)">
              <path id="Path_76625" data-name="Path 76625" d="M32.295,16.147A15.557,15.557,0,0,0,27.563,4.731,15.557,15.557,0,0,0,16.147,0,15.557,15.557,0,0,0,4.731,4.731,15.557,15.557,0,0,0,0,16.147,15.557,15.557,0,0,0,4.731,27.563a15.557,15.557,0,0,0,11.416,4.731,15.557,15.557,0,0,0,11.416-4.731A15.557,15.557,0,0,0,32.295,16.147Z" transform="translate(0)" fill="#7a2230"/>
            </g>
          </g>
          <g id="Group_106572" data-name="Group 106572" transform="translate(0.055 4.401)">
            <g id="Group_106571" data-name="Group 106571" transform="translate(0 0)">
              <path id="Path_76626" data-name="Path 76626" d="M37.851,53.366Q43.644,28.629,49.24,15.542L22.447,0Q12.984,8.335,0,47.094,13.094,61.316,37.851,53.366Z" fill="#7a2230"/>
            </g>
          </g>
          <g id="Group_106575" data-name="Group 106575" transform="translate(0 8.06)">
            <g id="Group_106574" data-name="Group 106574" transform="translate(0 0)">
              <g id="Group_106573" data-name="Group 106573">
                <path id="Path_76627" data-name="Path 76627" d="M11.939,12.489A270.445,270.445,0,0,0,0,43.491q12.586,13.875,36.971,6.437Q9.518,51.5,5.914,41.538,3.714,35.486,19.2,0A70.736,70.736,0,0,0,11.939,12.489Z" fill="#4b0f18"/>
              </g>
            </g>
          </g>
          <g id="Group_106577" data-name="Group 106577" transform="translate(40.443 21.737)">
            <g id="Group_106576" data-name="Group 106576" transform="translate(0 0)">
              <path id="Path_76628" data-name="Path 76628" d="M8.137.05,7.752.6l-.11.193-.165.22L6.789,2.168l-.083.165L6.6,2.5,4.2,7.669,1.617,16,.05,25.33l-.028.3q-.055.055.028.055L.1,25.66,4.753,9.127,7.174,2.553l.055-.193L7.862.9,7.972.71,8.219.077Q8.275.022,8.192.022,8.137-.033,8.137.05Z" fill="#4b0f18"/>
            </g>
          </g>
          <g id="Group_106579" data-name="Group 106579" transform="translate(30.287 12.846)">
            <g id="Group_106578" data-name="Group 106578" transform="translate(0 0)">
              <path id="Path_76629" data-name="Path 76629" d="M3.3,2.476V3.3h.825M3.3,3.3v.825M6.6,3.3,3.3,6.6,0,3.3,3.3,0Zm-4.126,0H3.3" fill="none" stroke="rgba(0,0,0,0)" stroke-linecap="round" stroke-linejoin="round" stroke-width="0.086"/>
            </g>
          </g>
        </g>
        <g id="Group_106589" data-name="Group 106589" transform="translate(27.276 220.051) rotate(-137.749)">
          <g id="Group_106582" data-name="Group 106582" transform="matrix(0.978, 0.208, -0.208, 0.978, 14.92, 0)">
            <g id="Group_106581" data-name="Group 106581" transform="translate(0 0)">
              <path id="Path_76630" data-name="Path 76630" d="M21.685,8.087A40.047,40.047,0,0,0,18.577,0L.009,5.144Q-.018,7.234.037,9.325a390.542,390.542,0,0,0,3.8,46.213,131.746,131.746,0,0,1,1.32,16.174l13.176.055a133.892,133.892,0,0,1,.77-21.1q1.187-9.21,2.613-23.354T21.685,8.087Z" transform="translate(0)" fill="#80553c"/>
            </g>
          </g>
          <g id="Group_106584" data-name="Group 106584" transform="translate(4.981 65.394)">
            <g id="Group_106583" data-name="Group 106583" transform="translate(0 0)">
              <path id="Path_76631" data-name="Path 76631" d="M13.211,6.606a6.363,6.363,0,0,0-1.937-4.669A6.363,6.363,0,0,0,6.606,0,6.363,6.363,0,0,0,1.937,1.937,6.363,6.363,0,0,0,0,6.606a6.363,6.363,0,0,0,1.937,4.669,6.363,6.363,0,0,0,4.669,1.937,6.363,6.363,0,0,0,4.669-1.937A6.363,6.363,0,0,0,13.211,6.606Z" transform="translate(0)" fill="#80553c"/>
            </g>
          </g>
          <g id="Group_106586" data-name="Group 106586" transform="translate(5.977 9.164)">
            <g id="Group_106585" data-name="Group 106585" transform="translate(0 0)">
              <path id="Path_76632" data-name="Path 76632" d="M6.816,2.5,7.146.077Q7.2.022,7.119.022,7.064-.033,7.064.05L4.2,15.4,2.47,28.217.022,56.605q-.055.055.028.055L.1,56.633,6.734,3.1Q6.789,2.69,6.816,2.5Z" fill="#684633"/>
            </g>
          </g>
          <g id="Group_106588" data-name="Group 106588" transform="translate(20.221 2.859)">
            <g id="Group_106587" data-name="Group 106587" transform="translate(0 0)">
              <path id="Path_76633" data-name="Path 76633" d="M3.3,2.476V3.3h.825M3.3,3.3v.825M6.6,3.3,3.3,6.6,0,3.3,3.3,0Zm-4.126,0H3.3" fill="none" stroke="rgba(0,0,0,0)" stroke-linecap="round" stroke-linejoin="round" stroke-width="0.086"/>
            </g>
          </g>
        </g>
        <g id="Group_106594" data-name="Group 106594" transform="translate(89.46 171.231) rotate(-164.962)">
          <g id="Group_106591" data-name="Group 106591" transform="translate(0 0)">
            <g id="Group_106590" data-name="Group 106590" transform="translate(0 0)">
              <path id="Path_76634" data-name="Path 76634" d="M5.453,21.18q-1.044.243-.9,1.019a34.8,34.8,0,0,1,6.8,8.325,13.411,13.411,0,0,0,1.917-1.214L7.225,22.83l.655-1.262a11.762,11.762,0,0,0-2.427-.388M.04,23.218a.7.7,0,0,0,.121.68q1.82,2.257,3.544,4.636.607.9,1.238,1.8l.194.437.049-.049,1.383.1A54.381,54.381,0,0,1,.987,22.951a4.329,4.329,0,0,1,2.136-1.5.941.941,0,0,1,.121-.049,1.8,1.8,0,0,1,.316-.073l-.534-.17.073.194A2.854,2.854,0,0,0,.04,23.218M20.5,28.606a4.167,4.167,0,0,0,.461-1.456l-9.077-2.743,8.616,4.2m-1.529-7.063q.7.17,2.5.825l1.092-6.383-3.422-4.053q1.359,3.762,1.6,4.66l-.922,3.616q-3.908-.874-6.068.34l-3.058.582a9.316,9.316,0,0,1,1.845.413,3.212,3.212,0,0,0-.655,2.864q2.281-4.1,7.087-2.864M18.632.016Q15.04,4.263,18.7,7.879,17.127,2.564,21.787.21A14.775,14.775,0,0,0,18.632.016Z" transform="translate(3.266 0)" fill="#684633"/>
              <path id="Path_76635" data-name="Path 76635" d="M7.821,22.183q-.146-.777.9-1.019a7.034,7.034,0,0,0-1.893.146,1.8,1.8,0,0,0-.316.073.941.941,0,0,0-.121.049,4.329,4.329,0,0,0-2.136,1.5A54.382,54.382,0,0,0,9.835,30.8q.291.34.582.631,1.626,1.286,4.2-.922a34.8,34.8,0,0,0-6.8-8.325m-4.466-.437q-1.723.728-1.044,2.063a33.091,33.091,0,0,0,1.82,3.155A13.717,13.717,0,0,0,8.4,30.751l-.194-.437q-.631-.9-1.238-1.8-1.723-2.379-3.544-4.636a.7.7,0,0,1-.121-.68,2.854,2.854,0,0,1,3.058-1.869l-.073-.194a6.257,6.257,0,0,0-2.937.607m17.038,8.519a3.692,3.692,0,0,0,3.374-1.675l-8.616-4.2a3.212,3.212,0,0,1,.655-2.864,9.316,9.316,0,0,0-1.845-.413,5,5,0,0,0-2.815.437l-.655,1.262,6.043,6.48q.388,1.092,3.859.971m1.578-22.4Q18.305,4.247,21.9,0,15.878.267,10.053,5.17A11.532,11.532,0,0,1,1.9,3.155Q-.237,4.927.03,6.723A4.964,4.964,0,0,0,1.607,9.708a5.525,5.525,0,0,0,3.3,1.432,9.208,9.208,0,0,0,4.32-.68q5.242,1.189,6.213,5.485.534,2.306-1.481,5.17l3.058-.582q2.16-1.214,6.068-.34l.922-3.616q-.243-.9-1.6-4.66l3.422,4.053-1.092,6.383q-1.8-.655-2.5-.825-4.806-1.238-7.087,2.864l9.077,2.743a9.018,9.018,0,0,0,3.738-1.165q2.961-5.849,4.49-8.543,1.5-2.718.413-10.436Q31.776-.7,25.053.194,20.393,2.548,21.97,7.864Z" transform="translate(0 0.016)" fill="#80553c"/>
            </g>
          </g>
          <g id="Group_106593" data-name="Group 106593" transform="translate(21.406 2.711)">
            <g id="Group_106592" data-name="Group 106592" transform="translate(0 0)">
              <path id="Path_76636" data-name="Path 76636" d="M3.3,2.476V3.3h.825M3.3,3.3v.825M6.6,3.3,3.3,6.6,0,3.3,3.3,0Zm-4.126,0H3.3" fill="none" stroke="rgba(0,0,0,0)" stroke-linecap="round" stroke-linejoin="round" stroke-width="0.086"/>
            </g>
          </g>
        </g>
        <g id="Group_106599" data-name="Group 106599" transform="translate(81.767 70.511)">
          <g id="Group_106596" data-name="Group 106596" transform="translate(0 0)">
            <g id="Group_106595" data-name="Group 106595">
              <path id="Path_76637" data-name="Path 76637" d="M-9.466-93.038a15.89,15.89,0,0,1-2.586-1.045A37.4,37.4,0,0,1-17.2-97.357a45.089,45.089,0,0,1-4.649-4.044,25.071,25.071,0,0,1-3.824-4.952q-1.678-2.806-2.944-5.42a48.493,48.493,0,0,1-2.311-5.612l-.715,30.922,22.091.33Z" transform="translate(31.64 135.982)" fill="#80553c"/>
              <path id="Path_76638" data-name="Path 76638" d="M-8.144-165.582h-.138a10.086,10.086,0,0,0-3.054-6.685,10.124,10.124,0,0,0-7.428-3.081,10.247,10.247,0,0,0-7.483,3.081,10.2,10.2,0,0,0-3.054,7.455q0,.3.028.605l-.138,7.455a48.491,48.491,0,0,0,2.311,5.612q1.266,2.614,2.944,5.42a25.071,25.071,0,0,0,3.824,4.952,45.09,45.09,0,0,0,4.649,4.044,37.4,37.4,0,0,0,5.145,3.274A15.89,15.89,0,0,0-7.952-132.4Z" transform="translate(30.126 175.349)" fill="#684633"/>
            </g>
          </g>
          <g id="Group_106598" data-name="Group 106598" transform="translate(6.85 52.959)">
            <g id="Group_106597" data-name="Group 106597" transform="translate(0 0)">
              <path id="Path_76639" data-name="Path 76639" d="M-6.988-7.813v.825h.825m-.825,0v.825m3.3-.825-3.3,3.3-3.3-3.3,3.3-3.3Zm-4.127,0h.825" transform="translate(10.289 10.289)" fill="none" stroke="rgba(0,0,0,0)" stroke-linecap="round" stroke-linejoin="round" stroke-width="0.086"/>
            </g>
          </g>
        </g>
        <g id="Group_106690" data-name="Group 106690" transform="translate(59.621 0)">
          <g id="Group_106600" data-name="Group 106600" transform="translate(22.96 70.54)">
            <path id="Path_76640" data-name="Path 76640" d="M-11.713-22.3a10.1,10.1,0,0,1-3.092,7.438,10.1,10.1,0,0,1-7.438,3.092A10.164,10.164,0,0,1-29.7-14.859,10.131,10.131,0,0,1-32.773-22.3,10.2,10.2,0,0,1-29.7-29.755a10.2,10.2,0,0,1,7.458-3.072,10.131,10.131,0,0,1,7.438,3.072A10.164,10.164,0,0,1-11.713-22.3Z" transform="translate(32.773 32.828)" fill="none" stroke="red" stroke-linecap="round" stroke-linejoin="round" stroke-width="0.086"/>
          </g>
          <g id="Group_106606" data-name="Group 106606" transform="translate(10.537 19.918)">
            <g id="Group_106602" data-name="Group 106602">
              <g id="Group_106601" data-name="Group 106601">
                <path id="Path_76641" data-name="Path 76641" d="M16.293-148.335a31.072,31.072,0,0,0-22.807-9.436,31.072,31.072,0,0,0-22.807,9.436,31.071,31.071,0,0,0-9.436,22.807,31.025,31.025,0,0,0,4.924,17.249l.028.138q11.585,16.208,28.061,18.35Q13.737-87.877,24.656-103l.715-17.3-.165.688a32.676,32.676,0,0,0,.523-5.915A31.072,31.072,0,0,0,16.293-148.335Z" transform="translate(38.757 157.771)" fill="#80553c"/>
              </g>
            </g>
            <g id="Group_106605" data-name="Group 106605" transform="translate(22.587 14.217)">
              <g id="Group_106604" data-name="Group 106604">
                <g id="Group_106603" data-name="Group 106603">
                  <path id="Path_76642" data-name="Path 76642" d="M96.285,54.387a5.045,5.045,0,0,0,3.686-2.393,7.275,7.275,0,0,0,.99-2.063q.523,4.457,5.42,4.842a4.269,4.269,0,0,0,4.1-2.008,5.092,5.092,0,0,0,1.018-3.576q-.715-.908-20.881-3.219Q70.4,43.63,70.4,44.593a11.018,11.018,0,0,0,2.7,7.758,8.182,8.182,0,0,0,5.172,2.669A11.039,11.039,0,0,0,86.683,52.9a13.358,13.358,0,0,0,2.944-3.246,6.82,6.82,0,0,0,2.421,3.686A5.786,5.786,0,0,0,96.285,54.387Z" transform="translate(-70.397 -44.312)" fill="#684633"/>
                </g>
              </g>
            </g>
          </g>
          <g id="Group_106611" data-name="Group 106611" transform="translate(20.826 67.512)">
            <g id="Group_106608" data-name="Group 106608" transform="translate(0 0)">
              <g id="Group_106607" data-name="Group 106607" transform="translate(0 0)">
                <path id="Path_76643" data-name="Path 76643" d="M-4.945,23.843Q3.784,35,12.359,37.489t11.885.028q7.014-11.55,13.4-21.239,6.385-9.657,1.651-19.45L-13.033-1.99Q-11.826,16.493-4.945,23.843Z" transform="translate(13.033 3.173)" fill="#80553c"/>
              </g>
            </g>
            <g id="Group_106610" data-name="Group 106610" transform="translate(13.329 32.917)">
              <g id="Group_106609" data-name="Group 106609">
                <path id="Path_76644" data-name="Path 76644" d="M-15.53,102.428q.083-.083-.028-.083h-.055l-3.026,4.1-.028.083-.028.055-.083.11q-.55.743-.715.935l-.77.77-.138.11-.055.055-.055.027-.385.3-.55.3-.578.193a3,3,0,0,1-.633.11h-.083l-.055.028h-.55l-5.832-.55-.083-.028h-.11l-3.026-.743-.028-.028h-.055l-.825-.275a13.362,13.362,0,0,1-1.4-.5l-.688-.275-.165-.083-.083-.028-.083-.055-1.568-.8q-.99-.55-2.2-1.321l-1.788-1.238-2.256-2.036-.055-.083q-.028-.028-.083,0-.028.055,0,.083l.055.083,1.486,1.568,2.421,1.953q1.293.908,2.173,1.431a13.73,13.73,0,0,0,1.238.715l.3.193.083.028,2.393,1.045.743.248.083.055h.055l.055.028,3.054.853h.055l.028.028h.028l.083.028,3.576.605q.55.055,1.6.165l1.6.055a4.511,4.511,0,0,0,1.623-.44l.688-.413.5-.44.083-.055.963-1.045a8.464,8.464,0,0,0,.688-1.128l.165-.275.11-.248Z" transform="translate(43.687 -101.479)" fill="#9f7b67"/>
              </g>
            </g>
          </g>
          <g id="Group_106634" data-name="Group 106634" transform="translate(0 0)">
            <g id="Group_106613" data-name="Group 106613" transform="translate(9.381 41.366)">
              <g id="Group_106612" data-name="Group 106612">
                <path id="Path_76645" data-name="Path 76645" d="M54.877,127.188q.248,5.09.77,9.134.275,2.091.578,3.742,3.466-.33,6.658,2.7,3.742,3.549,4.9,10.179a128.72,128.72,0,0,0,.77-15.764A64.04,64.04,0,0,1,69.9,122.758q-1.651-.688-7.29,1.321Q61.782,124.354,54.877,127.188Z" transform="translate(-54.877 -122.583)" fill="url(#linear-gradient)"/>
              </g>
            </g>
            <g id="Group_106615" data-name="Group 106615" transform="translate(0 0.199)">
              <g id="Group_106614" data-name="Group 106614">
                <path id="Path_76646" data-name="Path 76646" d="M79.587-3.915a8.777,8.777,0,0,0-3.356-1.513,12.85,12.85,0,0,0-5.612.028,7.407,7.407,0,0,0-4.209,3.164q-.66-3.081-3.494-2.7T58.458-1.026a2.291,2.291,0,0,0-1.321-.743,2.53,2.53,0,0,0-1.541.22A3.879,3.879,0,0,0,54.167-.531a2.713,2.713,0,0,0-.633,1.6A3.938,3.938,0,0,0,51.443-.944a4.931,4.931,0,0,0-4.484.193A6.743,6.743,0,0,0,43.8,2.055a5.462,5.462,0,0,0-.605,3.576,12.532,12.532,0,0,0-4.732.66,7.973,7.973,0,0,0-3.879,2.366A13.313,13.313,0,0,0,31.8,14.05a10.532,10.532,0,0,0,.055,5.447q-1.458.468-3.3,3.081A17.712,17.712,0,0,0,25.94,27.86a8.021,8.021,0,0,0,.908,6.355,44.434,44.434,0,0,0,3.164,4.759,7.732,7.732,0,0,0,1.513,5.667,10.592,10.592,0,0,0,4.154,3.879l.248-2.173a8.725,8.725,0,0,1,1.623-4.484,5.211,5.211,0,0,0,5.53,2.063A4.047,4.047,0,0,0,46.051,41.2a35.407,35.407,0,0,0,1.155-4.952A5.338,5.338,0,0,0,50.4,37.764a7.857,7.857,0,0,0,3.769-.468,10.88,10.88,0,0,0,4.594-4.044q.688-1.6,1.045-2.559-.055,2.531,3.164,4.924a14.1,14.1,0,0,0,5.475,2.476,12.452,12.452,0,0,0,6.107-.743A8.835,8.835,0,0,0,78.4,33.473q.77,1.568,3.549,2.559a7.077,7.077,0,0,0,4.732.3,4.189,4.189,0,0,0,2.008-1.376,4.523,4.523,0,0,0,.743-2.118,5.118,5.118,0,0,0,3.026,4.484,11.151,11.151,0,0,0,3.411.605,5.121,5.121,0,0,0,2.2-.523,4.035,4.035,0,0,0,1.651-1.788,6.95,6.95,0,0,0,5.062,1.1,6.819,6.819,0,0,0,5.722-4.127,7.839,7.839,0,0,0,.385-6.74,7.286,7.286,0,0,0-3.274-3.631,4.563,4.563,0,0,0,1.21-3.274,5.065,5.065,0,0,0-.633-2.531q-1.816-3-5.915-2.779a6.778,6.778,0,0,0,2.861-2.366,5.22,5.22,0,0,0,1.073-4.814q-.77-2.7-4.182-3.549a10.692,10.692,0,0,0-6.328.33A6.083,6.083,0,0,0,95.323.432a4.488,4.488,0,0,0-2.448-2.091,6.9,6.9,0,0,0-3.824-.55A4.46,4.46,0,0,0,86.162-.476a3.3,3.3,0,0,0-1.871-1.266,1.993,1.993,0,0,0-1.431.3,2.445,2.445,0,0,0-.99.935A5.383,5.383,0,0,0,79.587-3.915Z" transform="translate(-25.638 5.724)" fill="#140e0e"/>
              </g>
            </g>
            <g id="Group_106619" data-name="Group 106619" transform="translate(0)">
              <g id="Group_106616" data-name="Group 106616" transform="translate(40.001)">
                <path id="Path_76647" data-name="Path 76647" d="M163.131,33.188l.027.055,1.6,1.706.743.55.743.413.083.055.083.028.688.3.55.165.193.028.193.055h.11l.055.028h.028l.825.055a6.922,6.922,0,0,0,1.678-.22l.193-.055.385-.165.11-.028h.028v-.028h.028l.027-.028.11-.028.028-.028.055-.028.11-.028.8-.523.3-.275a4.331,4.331,0,0,0,.55-.633l.413-.66.138-.358.028-.028v-.028l.028-.028.055-.165v-.028l.027-.055.055-.165V33l.028-.055v-.083l.138-.66V32.06l.027-.083v-.8l-.027-.138V30.9l-.028-.11-.11-.66-.11-.33-.028-.138-.055-.11-.028-.11-.083-.165v-.055l-.11.028.028.055v.275l.027.138v1.073l-.027.138v.11l-.028.11v.138l-.055.248v.138l-.027.138-.027.055-.028.083-.055.248-.193.5v.028l-.028.028-.055.138v.028l-.027.055-.055.055-.028.083v.028l-.027.055-.523.77-.523.523-.468.33-.5.248-.028.028-.083.028-.055.028H171l-.083.028-.165.083-.165.055-.853.193-1.431.055-.028-.028h-.083l-.5-.083-.083-.028h-.083l-.165-.055-.165-.028-1.843-.77-1.981-1.293-.138-.11-.055-.028-.055.055m31.528-.33-.027.055-.275.275-.083.055-.083.11-.083.083-.358.3-.138.083-.605.44-.385.193-.083.055-.743.3a.664.664,0,0,1-.22.083l-.22.083-.11.055-.11.028-.138.055-.33.083-.083.028-.055.028-.248.055h-.027l-.028.028h-.083l-.248.055a5.491,5.491,0,0,1-.963.193l-.5.055-.055.028-1.1.028-.22-.028h-.193l-.413-.055-.11-.028h-.083l-.99-.22-.578-.193-.138-.028-.028-.028-.055.083.055.028.275.275.3.22.605.33.165.11.193.083h.055l.055.028.523.193.468.11h.083l.055.028h.138l.248.055h.248l.083.028h.825l.055-.028h.138l.138-.028h.138l1.128-.22.055-.028h.055l.027-.028.248-.055.055-.028,1.348-.55.22-.138.11-.055.715-.5.5-.468a3.532,3.532,0,0,0,.468-.633l.11-.138.193-.358.138-.358.028-.138.027-.028-.083-.055M153.2-4.887l-.5.385-.11.11-.055.028-.908.935-.028.055-.083.083-.3.44-.055.11-.055.083-.11.22-.055.083-.165.3L150.366-.87l-.028.165-.028.055.083.028.027-.055.715-.963.055-.055.055-.083.138-.138.275-.33.055-.083.55-.55.055-.028.385-.33.083-.083.33-.248.055-.028.055-.055.55-.385.248-.138.138-.055.11-.083.138-.028.358-.193.083-.028.385-.165.083-.028.248-.11.825-.275,1.568-.358h.138l.11-.028.5-.055h.11l.11-.028h.22a2.8,2.8,0,0,1,.44-.028h1.568l.055.028.028-.11h-.055l-.138-.083-.165-.055-.11-.055-1.348-.358-.468-.055h-.138l-.11-.028-1.678.028-1.513.33-.908.33-.193.11-.083.028-1.128.633M170.917,2.4l-.055.083-.028.055-.055.028.028.083.055-.028h.165l.055-.028h.055l.138-.028h.165l.11-.028h.688l.193.028.083.028h.055l.22.11h.027l.055.028.028.028.055.028.3.275.138.193.028.028.028.055.055.055.028.055.055.083.055.11.055.055v.028l.055.11a1.1,1.1,0,0,1,.165.385v.055l.027.028v.11l.028.083v.055L174,4.6v.413l-.028.083v.138l-.028.055v.055l-.027.083v.055l-.028.083.055.028L174,5.567l.055-.055.083-.055.055-.028.028-.055.11-.11.055-.083.028-.028.027-.055a1.785,1.785,0,0,0,.22-.413l.027-.055V4.577l.055-.138.027-.3V4l-.027-.165V3.751l-.028-.083-.028-.165-.027-.055-.055-.165V3.229l-.028-.028-.055-.165-.083-.138-.027-.083-.028-.055-.055-.055V2.651H174.3V2.623h-.028l-.193-.275-.275-.275-.138-.11-.083-.028-.165-.11-.275-.083a.788.788,0,0,0-.358-.083,2.6,2.6,0,0,0-.633.028l-.138.055-.138.028-.358.165-.248.165-.138.138-.11.083-.055.055Z" transform="translate(-150.311 6.345)" fill="#493f3f"/>
              </g>
              <g id="Group_106617" data-name="Group 106617" transform="translate(0 11.335)">
                <path id="Path_76648" data-name="Path 76648" d="M35.294,62.985l.083.11.083.165.055.083.055.11,1.073,1.486,1.1,1.155.11.083.11.11.055.028.055.055.77.55.77.385h.028l.853.275.935.165,1.1-.028.578-.11.083-.028h.055l.138-.055h.055l.11-.055h.028l.028-.027.22-.083.055-.028.055-.055.138-.055.5-.385.083-.083.11-.083.22-.22.055-.083.138-.138.413-.5.055-.11.083-.083.083-.165.083-.11q.028-.028-.028-.083H45.8l-.248.193-.11.055-.083.083-.385.248-.138.11-.468.3-.11.055-.083.055-.385.193-.11.028-.083.055-.055.028h-.055l-.11.028-.028.028H43.3l-.083.028H43.19l-.11.028h-.138a3.273,3.273,0,0,1-.5.028h-.523l-1.045-.165-.138-.055-.66-.193-.055-.028H40l-.028-.028-.605-.275L37.44,64.636l-.165-.165-.193-.138-.935-.8-.055-.028-.275-.248-.11-.083-.083-.083-.138-.083-.11-.11q-.028-.028-.083.028v.055M28.829,46.039q.083-.083-.028-.083h-.055L27.509,47.5l-.8,1.376-.248.55-.028.028-.605,2.036-.028.028v.055l-.028.11-.028.22v.11l-.028.11-.083.853.055,1.568.083.66.11.44.028.22.138.523.055.11.11.413.055.083.028.11,1.073,2.173,1.155,1.651.11.11.083.11,1.376,1.4h.083v-.083l-.633-.99-.11-.22-.275-.44-.083-.11-1.266-2.5-.028-.083-.055-.083-.8-2.614L26.9,55.2l-.028-.083v-.11l-.028-.193-.055-.193V54.4a4.087,4.087,0,0,1-.055-.8l-.028-.193v-.385l.028-.22v-.385l.028-.193v-.193l.028-.193.028-.11v-.083l.055-.385.055-.193.055-.358.22-.88.028-.083.028-.055V49.67l.33-.963,1.238-2.669M43.245,29.422a3.886,3.886,0,0,1,.523-.028l1.018-.055a.049.049,0,0,0,.055-.055l-.028-.028-.578-.11-1.623-.165-1.348.028-2.036.33-1.458.5-.5.22-1.9,1.183-.358.275-1.431,1.431-.523.688v.028h-.028l-.028.028-.028.055-.138.193v.028l-.028.028-.743,1.238-.22.523a4.024,4.024,0,0,0-.385,1.045l-.083.248-.055.275-.083.248-.028.275-.028.055v.055l-.028.138v.138l-.083.633.11,1.871.275,1.183.055.165.083.165a5.264,5.264,0,0,0,.523,1.073l.578.88q.055.028.083,0v-.083l-.248-.523-.055-.193-.083-.193a6.882,6.882,0,0,1-.33-1.1l-.055-.165-.138-.908v-.193l-.028-.193.028-1.266.028-.11v-.11l.028-.11v-.11l.193-.908a5.749,5.749,0,0,1,.275-.935,9.018,9.018,0,0,1,.88-1.843l.055-.11.358-.523.055-.055.028-.055.083-.11.028-.055.028-.028v-.028h.028l.5-.633.083-.083a12.76,12.76,0,0,1,1.513-1.486l.825-.633.11-.055.3-.22,1.21-.633.11-.028.22-.11.66-.248.11-.028.11-.055,2.393-.55h.11l.083-.028.66-.055h.083l.083-.028h.138M62.86,49.257l-.165-.11-.055-.055-.083-.028-.165-.11-.083.028v.055l.055.083.055.165.055.055.165.358.165.55V50.3l.028.083.028.248v.55l-.055.3-.055.138v.083l-.028.028v.028l-.028.083v.028l-.028.028-.055.193v.028l-.028.028-.138.358-.33.468-.3.3-.5.3-.605.275-.11.028-.66.22h-.055l-.11.055-.083.028a.049.049,0,0,0-.055.055l.028.028.11.055.11.028h.055l.083.028.66.083a.358.358,0,0,0,.275,0h.165l.5-.083.55-.193.083-.055.083-.028.083-.055.11-.055.33-.275.413-.5.358-.688v-.055l.028-.055.055-.165V52.2l.028-.055.028-.11v-.055l.028-.055v-.11l.028-.193v-.605l-.028-.11v-.083l-.028-.11v-.055l-.028-.028-.11-.358-.055-.083-.028-.083-.028-.055-.138-.22-.055-.055-.028-.055-.11-.138Z" transform="translate(-25.638 -28.982)" fill="#493f3f"/>
              </g>
              <g id="Group_106618" data-name="Group 106618" transform="translate(36.095 8.226)">
                <path id="Path_76649" data-name="Path 76649" d="M139.923,19.293h-.385l-.5.165-.11.083-.468.44-.275.5-.027.11-.027.055.027.083h.055l.055-.055.083-.028.385-.22.248-.083.083-.055.193-.028.027-.028h.11l.028-.028.193.028h.055l.055.028h.028l.165.083.083.028.083.055.083.083.055.028.33.33.027.055.055.028.028.055.027.028.055.11.028.028.055.083.055.193.028.028v.11l.028.055v.11h.027v.44h-.027v.083l-.028.055v.028l-.028.055v.083l-.028.028-.248.44-.055.055.027.083h.11l.11-.028.11-.055.3-.193.055-.028.028-.028.055-.028.138-.138.083-.11v-.028l.027-.028.028-.083.083-.11.11-.33V21.8h.028v-.165l.028-.11v-.165l-.028-.083-.055-.385-.055-.165-.055-.083-.028-.083-.275-.413-.165-.165a3.392,3.392,0,0,0-.55-.468l-.165-.083Z" transform="translate(-138.135 -19.293)" fill="#493f3f"/>
              </g>
            </g>
            <g id="Group_106621" data-name="Group 106621" transform="translate(20.749 34.224)">
              <g id="Group_106620" data-name="Group 106620">
                <path id="Path_76650" data-name="Path 76650" d="M103.672,100.349l-.055.248-.083.633-.3,1.238a.685.685,0,0,1-.083.3l-.3.963-.083.165-.055.165-.055.083-.055.165-.22.44a6.447,6.447,0,0,1-.853,1.376l-.523.633-.055.028-.605.55-.055.028-.11.11-.11.055-.44.33-.77.44-.083.055-.11.028-.193.11-.3.11-.11.055-.11.028-.11.055-.633.193-.028.028h-.055l-1.6.275a6.291,6.291,0,0,1-1.568-.083l-.193-.028-.358-.11H93.3l-.027-.028h-.055l-.413-.138-.083-.055-.138-.055-.55-.3-.083-.028-.055-.055-.055-.027-.055-.055-.22-.165a6.066,6.066,0,0,1-.688-.688l-.468-.715q0-.083-.055-.028-.083,0-.028.055l.138.5.165.358.055.083.055.11.138.22.055.11.055.055.028.055.083.11.5.523.22.165.055.055.385.275.165.083.083.055.468.22.028.028h.055l.083.055.193.055.11.055.33.083a6.2,6.2,0,0,0,1.788.248l1.458-.138.358-.083.055-.028h.083l.688-.22.138-.028.22-.11.11-.028.688-.33q.22-.11.88-.5l.193-.165.22-.138.083-.083.193-.138.055-.055.055-.028.358-.33.165-.193.11-.083v-.028l.028-.028.055-.028.165-.193.055-.083.385-.5a7.911,7.911,0,0,0,.825-1.6l.055-.22.083-.193v-.027l.028-.055.193-.66.028-.193.055-.193.11-.688.11-1.623-.083-.88a.049.049,0,0,0-.055-.055Z" transform="translate(-90.307 -100.322)" fill="#493f3f"/>
              </g>
            </g>
            <g id="Group_106623" data-name="Group 106623" transform="translate(27.759 3.686)">
              <g id="Group_106622" data-name="Group 106622" transform="translate(0 0)">
                <path id="Path_76651" data-name="Path 76651" d="M115.291,5.172h-.083l-.193-.028-.193.028h-.165l-.193.028a3.083,3.083,0,0,0-.688.248h-.028l-.055.028-.055.055-.083.028-.083.055-.083.083h-.028l-.028.028-.11.083-.248.248-.358.5-.138.248-.193.5-.055.248-.028.055v.055l-.028.11-.028.22v.743l.028.165V9l.055.3.055.165.055.028.028-.055.165-.825.055-.165V8.363l.083-.275.248-.55a2.7,2.7,0,0,1,.523-.688l.193-.193.055-.028.083-.083.138-.083h.027L114,6.438l.028-.028.11-.055h.028l.028-.028.22-.055h.028l.028-.028h.11l.055-.028h.358l.11.028a1.751,1.751,0,0,1,.468.11l.138.055h.055l.165.083.11.083h.055l.028.028.055.028.055.055h.055v.028h.028l.688.468.523.468.11.083.055.055.028.055.11.083.55.605.11.083,1.348,1.651.055.055.055.083.44.55.11.11q0,.028.083.028v-.055l-.193-.55-.633-1.4a4.852,4.852,0,0,0-.523-.88l-.055-.11-.33-.468-.11-.11-.605-.715-.99-.853-.275-.165V5.75q0,.027-.028,0l-.028-.028-.083-.028-.055-.055h-.028l-.028-.028h-.028l-.33-.165-.165-.055-.165-.083-.165-.055h-.11l-.165-.055H115.4Z" transform="translate(-112.154 -5.145)" fill="#493f3f"/>
              </g>
            </g>
            <g id="Group_106625" data-name="Group 106625" transform="translate(4.268 44.704)">
              <g id="Group_106624" data-name="Group 106624">
                <path id="Path_76652" data-name="Path 76652" d="M40.628,137.477l-.058-.1-1.308-3.9-.035-.189-.113-.3-.081,0-.022.056-.047.262,0,.113-.023.093.027,2.03.212,1.133.037.114.017.132.169.474a4.7,4.7,0,0,0,.378.949l.791,1.353.1.1.019.057.039.039.176.211a6.167,6.167,0,0,0,.667.692l.157.154.81.6.1.059.059.058.3.139.119.078.7.3.039.039.042-.074-.039-.039-.058-.1-.629-.616-.1-.134-.118-.116-.117-.153-.118-.116-.6-.785-.079-.077-.678-1.05-.1-.209-.174-.286-.057-.133-.116-.191Z" transform="translate(-38.939 -132.985)" fill="#493f3f"/>
              </g>
            </g>
            <g id="Group_106627" data-name="Group 106627" transform="translate(56.098 3.989)">
              <g id="Group_106626" data-name="Group 106626" transform="translate(0)">
                <path id="Path_76653" data-name="Path 76653" d="M204.875,7.106l-.28-.33-.364-.3-.4-.22-.136-.028-.106-.055-.108-.028h-.138l-.081-.028h-.11l-.108-.028h-.22l-.112.028h-.22l-.393.11-.369.165-.4.248-.059.055-.116.083-.09.11-.118.11-.063.11-.151.193-.033.083a1.786,1.786,0,0,0-.155.248l-.033.083-.031.055.051.055.057-.028.086-.055.088-.083.057-.028.086-.055.059-.055.173-.11.228-.11.112-.028.228-.11.53-.11h.413l.053.028h.083l.081.028h.083l.053.028.081.028h.083l.106.055.081.028.106.055.051.055.053.028.234.193.305.358.049.083.051.055,0,.028.026.028.049.083.024.055h.027l0,.028.051.055.073.138.045.138.051.055.089.3.024.055.022.083.024.055.022.083,0,.028.026.028.054.413.024.055-.013.193.01.248.02.11-.05.715.053.028.031-.055.061-.083.088-.083.067-.165.061-.083.033-.083.125-.22.1-.275.037-.138.006-.083.033-.083.039-.165.038-.55-.022-.083.008-.11-.042-.193.006-.083-.04-.22-.049-.083-.042-.193-.1-.193-.02-.11-.026-.028,0-.028-.026-.028-.049-.083-.047-.11-.049-.083L205,7.3Z" transform="translate(-200.482 -6.088)" fill="#493f3f"/>
              </g>
            </g>
            <g id="Group_106629" data-name="Group 106629" transform="translate(63.707 33.426)">
              <g id="Group_106628" data-name="Group 106628" transform="translate(0)">
                <path id="Path_76654" data-name="Path 76654" d="M227.823,98.605l-.047-.11-.049-.083-.358-.385-.106-.055-.079-.055-.051-.055-.053-.028-.059.055.047.11-.006.083.047.11.034.3.022.083-.006.083.042.193-.027.385-.082.385-.068.193-.031.055,0,.027h-.027l0,.055-.031.055-.273.358-.088.083-.09.11-.029.028h-.028l-.294.275-.057.028-.029.027-.057.028,0,.028h-.027l-.086.055-.057.028-.029.028-.112.027-.086.055-.169.055h-.11l-.084.028-.195.028h-.468l-.191-.028h-.138l-.031.055.053.028.024.055.154.165.34.248.108.028.212.11.136.028h.055l.081.028h.44l.167-.028.084-.028h.083l.171-.083h.055l.029-.028.169-.055.059-.055.084-.028.232-.165.059-.055.086-.055.059-.055h.028l0-.028.147-.138.359-.413.033-.083.061-.083.033-.083.061-.083.067-.165.029-.028,0-.055.033-.083.08-.358.012-.165-.048-.5-.093-.248-.022-.083-.024-.055Z" transform="translate(-224.196 -97.835)" fill="#493f3f"/>
              </g>
            </g>
            <g id="Group_106631" data-name="Group 106631" transform="translate(65.674 37.663)">
              <g id="Group_106630" data-name="Group 106630">
                <path id="Path_76655" data-name="Path 76655" d="M230.359,115.827l-.033.083.053.028.417.33.134.055.051.055.212.11.079.055h.027l.212.11.8.33.244.055.106.055.379.083a7.721,7.721,0,0,0,1.12.11h.605l.139-.028h.248l.084-.028.139-.028h.165l.084-.027h.055l.169-.055h.11l.057-.028.139-.028.733-.248.685-.358.145-.11.143-.083.5-.468.424-.55a4.94,4.94,0,0,0,.491-1.128l.037-.138,0-.055.031-.055.01-.138.037-.138.065-.935-.058-.743-.19-.825,0-.055-.084.028,0,.055-.037.138-.019.275-.037.138-.218,1.155-.008.11-.377,1.073-.312.523-.3.385-.031.055-.057.028-.031.055-.029.028h-.027l-.235.22-.057.028-.088.083a4.219,4.219,0,0,1-.94.468l-.507.165h-.055l-.084.028-.139.028-.057.027H235.4l-.53.11h-.138l-.251.055h-.275l-.057.028h-1.183l-.108-.028h-.11l-1.036-.138-.189-.055-.57-.11-.134-.055h-.11l-.161-.055-.136-.028Z" transform="translate(-230.326 -111.04)" fill="#493f3f"/>
              </g>
            </g>
            <g id="Group_106633" data-name="Group 106633" transform="translate(17.359 4.484)">
              <g id="Group_106632" data-name="Group 106632">
                <path id="Path_76656" data-name="Path 76656" d="M86.125,7.631H84.832l-1.266.275-.22.083-.688.33-.44.275-.743.605-.055.055-.028.055L81.2,9.5l-.165.22q-.055.083-.165.22l-.165.22-.028.028v.028l-.055.055L80.1,11.318l-.275.935-.055.468-.027.11v.688l.055.33v.165l.193.743.055.11.055.028.028-.055.028-.11v-.165l.028-.083v-.11l.028-.11v-.11l.193-.935.11-.358.083-.165.083-.3.055-.083.028-.083.055-.11.055-.083v-.055l.358-.633.055-.083.055-.11.055-.083.055-.055.028-.055.055-.083.055-.055V10.8l.028-.028.66-.8.055-.083.083-.055.248-.248.11-.055.083-.083.523-.385,1.1-.605.5-.193.165-.083.3-.11.138-.028.138-.055.33-.083.083-.055.138-.028.138-.055.028-.055-.055-.028Z" transform="translate(-79.743 -7.631)" fill="#493f3f"/>
              </g>
            </g>
          </g>
          <g id="Group_106641" data-name="Group 106641" transform="translate(3.117 56.744)">
            <g id="Group_106636" data-name="Group 106636" transform="translate(0 4.447) rotate(-15.965)">
              <g id="Group_106635" data-name="Group 106635" transform="translate(0 0)">
                <path id="Path_76657" data-name="Path 76657" d="M13.283,3.447A7.222,7.222,0,0,0,8.166.064Q4.935-.449,2.334,3.172A14.122,14.122,0,0,0,.023,12.223a17.766,17.766,0,0,0,2.834,9.189,17.476,17.476,0,0,0,5.695,5.557,39,39,0,0,0,4.979,2.008q.275-1.411,1.706-5.777a24.385,24.385,0,0,0,.66-10.592Q15.149,6.343,13.283,3.447Z" fill="#80553c"/>
              </g>
            </g>
            <g id="Group_106638" data-name="Group 106638" transform="translate(5.989 6.724)">
              <g id="Group_106637" data-name="Group 106637">
                <path id="Path_76658" data-name="Path 76658" d="M-42.876-24.4l.33-.11.11-.055.138-.028.3-.11h.083l.3-.083.193-.028.11-.028h.11l.44-.055.5.028.5.11a4.546,4.546,0,0,1,.99.413l.5.358.22.193.055.028.385.385,1.018,1.266,1.238,2.036.055.138,1.321,2.586.055.083.193.413.083.11.083.193.083.138q0,.083.055.028.083,0,.028-.055l-.083-.633-.33-1.348-1.018-2.806-1.266-2.091L-37.1-24.4a.3.3,0,0,1-.138-.11l-.44-.33-.77-.44-.165-.055-.165-.083-.165-.055-.66-.138h-.165l-.165-.028h-.3l-.99.165-.165.083h-.055l-.11.055-.22.083-.88.523-.3.248v.083Z" transform="translate(42.958 25.638)" fill="#684633"/>
              </g>
            </g>
            <g id="Group_106640" data-name="Group 106640" transform="translate(3.891 2.02)">
              <g id="Group_106639" data-name="Group 106639">
                <path id="Path_76659" data-name="Path 76659" d="M-44.925-40.3-46-40.108l-.523.165-.083.055-.165.055-.083.055-.165.055-.083.055-.083.028-.468.3-.055.028-.083.083-.055.028-.028.028-.5.385-.578.688-.083.138-.11.138-.33.605q-.083.083.028.083h.055l.633-.578.138-.083.11-.11.138-.083.138-.11.8-.468h.028l.083-.055h.028l.028-.028.523-.193.055-.028.165-.055.055-.028h.083l.165-.055h.055l.083-.028H-46l.083-.028h.055l.083-.028.165-.028h.138l.33-.055h.3q.3,0,.825.055l1.293.248.3.083h.055l.028.028h.028l.8.3.8.44a1.363,1.363,0,0,1,.358.248l.11.055.083.055.083.083.11.055.083.083.083.055.523.44.99,1.045.055.11.083.083,1.376,2.008v.028l.028.028.028.055.193.275,1.843,3.246q0,.083.055.028.083,0,.028-.055l-1.733-3.8-.028-.028v-.028l-1.183-2.036-.138-.193-.055-.11-1.348-1.568-.275-.248-.055-.028-.028-.028-.11-.083-.083-.083-.11-.083-.083-.083-.385-.275a5.955,5.955,0,0,0-.853-.523l-.88-.44-.028-.028h-.028l-.165-.083-.715-.22a6.865,6.865,0,0,0-.99-.193,6.544,6.544,0,0,0-.99-.055Z" transform="translate(49.499 40.3)" fill="#9f7b67"/>
              </g>
            </g>
          </g>
          <g id="Group_106648" data-name="Group 106648" transform="translate(48.585 55.422)">
            <g id="Group_106643" data-name="Group 106643" transform="translate(0.095 0)">
              <g id="Group_106642" data-name="Group 106642">
                <path id="Path_76660" data-name="Path 76660" d="M-.449,22.177q8.961,3.049,10.042-4.952l.11-1.651L6.484,12.135A39.359,39.359,0,0,1,5.521-2.556Q2.954-5.3,1.642-1.1L-3.2,17.28Q-5.267,21.411-.449,22.177Z" transform="translate(3.821 3.642)" fill="#80553c"/>
              </g>
            </g>
            <g id="Group_106645" data-name="Group 106645" transform="translate(8.048 1.141)">
              <g id="Group_106644" data-name="Group 106644" transform="translate(0 0)">
                <path id="Path_76661" data-name="Path 76661" d="M20.981,9.543a34.043,34.043,0,0,0,.468,3.989q.366,1.9.413,1.981a17.613,17.613,0,0,1,2.476,2.421,5.475,5.475,0,0,1,1.073,2.448q.262,1.431-1.348,3.8,2.718-2.433,2.916-4.374a2.855,2.855,0,0,0-1.568-2.944q-1.762-1.021-2.724-1.651l.3-.578-.165-.248-.66.028.715-.055-1.1-5.722.083-4.154.5-4.567a23.393,23.393,0,0,0-1.045,4.4A30.5,30.5,0,0,0,20.981,9.543Z" transform="translate(-20.968 0.086)" fill="#9f7b67"/>
              </g>
            </g>
            <g id="Group_106647" data-name="Group 106647" transform="translate(0 1.141)">
              <g id="Group_106646" data-name="Group 106646" transform="translate(0 0)">
                <path id="Path_76662" data-name="Path 76662" d="M4.853,3.9l-.028,4.98L5.6,14.99a.462.462,0,0,0,.193.3v.028l.248.165,1.238,1.128,1.21,1.541.358.605.028.083a3.418,3.418,0,0,1,.33.688,3.1,3.1,0,0,1,.193.688l.028.5-.028.11v.055l-.028.028-.028.083v.083l-.028.083-.055.083-.083.248a4,4,0,0,1-.88,1.128l-.605.468-.055.055-.11.055-.083.055-.028.028-.055.028-.385.248-.11.028-.88.385-.825.248H5.073l-.193.055-.77.11H3.89L3.7,24.4H2.487a15.5,15.5,0,0,1-1.6-.083A9.189,9.189,0,0,1-.7,24.1L-.9,24.041l-.193-.028-.3-.083-.083-.055-.358-.11-.468-.22-.083-.028-.165-.11-.165-.083-.413-.358a.735.735,0,0,1-.248-.275,2.867,2.867,0,0,1-.358-.66l-.083-.77.138-.8.275-.77q.055-.055-.028-.055-.055-.055-.055.028a4.119,4.119,0,0,0-.385.743l-.22.715-.028.55.028.44.33.825.275.358.66.578q.055.055.083.055l.083.055.083.083.99.468.715.22a12.329,12.329,0,0,0,1.651.358q.578.083,1.678.165l1.486.028.22-.028h.22l.853-.11.11-.028h.11l.853-.22.22-.083.028-.028h.055l.825-.358.083-.055.413-.22.028-.028.055-.028.165-.11h.028v-.028h.028l.055-.055a5.835,5.835,0,0,0,.715-.523l.633-.66a4.893,4.893,0,0,0,.5-.8l.11-.22.028-.11.055-.11.028-.11.055-.11.028-.138V21.1l.028-.055.028-.11V20.8l.028-.248-.028-.523a3.792,3.792,0,0,0-.275-.908l-.44-.908-.055-.083-.083-.193L8.9,16.861,7.742,15.568,6.669,14.66l-.083-.055-.028-.028-.605-3.439-.578-6.52L5.4-.058,5.376-.086l-.055.028Z" transform="translate(4.116 0.086)" fill="#684633"/>
              </g>
            </g>
          </g>
          <g id="Group_106667" data-name="Group 106667" transform="translate(31.621 56.838)">
            <g id="Group_106653" data-name="Group 106653" transform="translate(28.408 3.962)">
              <g id="Group_106650" data-name="Group 106650" transform="translate(0)">
                <g id="Group_106649" data-name="Group 106649">
                  <path id="Path_76663" data-name="Path 76663" d="M6.7,4.375a4.94,4.94,0,0,0-.991-3.1A2.894,2.894,0,0,0,3.352,0,2.937,2.937,0,0,0,.974,1.271,5,5,0,0,0,0,4.375,4.926,4.926,0,0,0,.974,7.463,2.926,2.926,0,0,0,3.352,8.751,2.883,2.883,0,0,0,5.713,7.463,4.871,4.871,0,0,0,6.7,4.375Z" transform="translate(0)" fill="#231915"/>
                </g>
              </g>
              <g id="Group_106652" data-name="Group 106652" transform="translate(3.697 2.08)">
                <g id="Group_106651" data-name="Group 106651">
                  <path id="Path_76664" data-name="Path 76664" d="M13.143,7.506a1.244,1.244,0,0,0-.264-.743.662.662,0,0,0-.578-.281.707.707,0,0,0-.561.314,1.276,1.276,0,0,0-.215.776,1.124,1.124,0,0,0,.264.726.691.691,0,0,0,.594.3.654.654,0,0,0,.545-.33A1.168,1.168,0,0,0,13.143,7.506Z" transform="translate(-11.524 -6.481)" fill="#fff"/>
                </g>
              </g>
            </g>
            <g id="Group_106655" data-name="Group 106655" transform="translate(27.642 1.631)">
              <g id="Group_106654" data-name="Group 106654">
                <path id="Path_76665" data-name="Path 76665" d="M97.834-1.3A2.543,2.543,0,0,0,97.068-3a16.96,16.96,0,0,0-7.224-4.261,26.384,26.384,0,0,0-3.828,6.026,7.888,7.888,0,0,1,4.794-2.3A8.78,8.78,0,0,1,97.834-1.3Z" transform="translate(-86.016 7.263)" fill="#80553c"/>
              </g>
            </g>
            <g id="Group_106657" data-name="Group 106657" transform="translate(27.265 4.294)">
              <g id="Group_106656" data-name="Group 106656" transform="translate(0 0)">
                <path id="Path_76666" data-name="Path 76666" d="M95.471,3.7l.133.133.166.1.566.433.832.766h.1v-.1L97.135,4.7l-.067-.1-.133-.266L96.269,3.4l-.732-.8-.9-.666-.166-.1-.1-.033-.266-.166-.2-.067-.166-.1-.8-.266h-.1l-.233-.067h-.1L92.341,1.1h-.133l-.1-.033h-.4l-.2-.033h-.4l-.2.033h-.4l-1.2.233-1.132.4-1.365.832-.3.266-.067.033-.4.5-.067.067-.033.067-.1.133-.233.233-.1.133-.033.067-.067.067-.566.8q-.033.033.033.1h.067l.832-.566.133-.067.5-.4.067-.033.067-.067.5-.4L88.613,2.8l.166-.033.166-.067,1.531-.3h.333l.166-.033h.866l.166.033h.166l.2.033h.133l.1.033h.067l.5.1.133.067.166.033.8.333.9.5.233.166Z" transform="translate(-84.84 -1.038)" fill="#231915"/>
              </g>
            </g>
            <g id="Group_106662" data-name="Group 106662" transform="translate(2.608 3.962)">
              <g id="Group_106659" data-name="Group 106659" transform="translate(0)">
                <g id="Group_106658" data-name="Group 106658">
                  <path id="Path_76667" data-name="Path 76667" d="M6.7,4.375a4.94,4.94,0,0,0-.991-3.1A2.894,2.894,0,0,0,3.352,0,2.937,2.937,0,0,0,.974,1.271,5,5,0,0,0,0,4.375,4.926,4.926,0,0,0,.974,7.463,2.926,2.926,0,0,0,3.352,8.751,2.883,2.883,0,0,0,5.713,7.463,4.871,4.871,0,0,0,6.7,4.375Z" transform="translate(0)" fill="#231915"/>
                </g>
              </g>
              <g id="Group_106661" data-name="Group 106661" transform="translate(3.697 2.08)">
                <g id="Group_106660" data-name="Group 106660">
                  <path id="Path_76668" data-name="Path 76668" d="M13.143,7.506a1.244,1.244,0,0,0-.264-.743.662.662,0,0,0-.578-.281.707.707,0,0,0-.561.314,1.276,1.276,0,0,0-.215.776,1.124,1.124,0,0,0,.264.726.691.691,0,0,0,.594.3.654.654,0,0,0,.545-.33A1.168,1.168,0,0,0,13.143,7.506Z" transform="translate(-11.524 -6.481)" fill="#fff"/>
                </g>
              </g>
            </g>
            <g id="Group_106664" data-name="Group 106664" transform="translate(0.377 0)">
              <g id="Group_106663" data-name="Group 106663">
                <path id="Path_76669" data-name="Path 76669" d="M8.461-12.347a17.63,17.63,0,0,0-1.9,1.1A15.036,15.036,0,0,0,1.038-5.156q.932-.766,1.9-1.5a7.345,7.345,0,0,1,6.691-1.4A34.491,34.491,0,0,1,16.917-5.39a4.467,4.467,0,0,0-1.631-2.264A72.812,72.812,0,0,0,8.461-12.347Z" transform="translate(-1.038 12.347)" fill="#80553c"/>
              </g>
            </g>
            <g id="Group_106666" data-name="Group 106666" transform="translate(0 3.329)">
              <g id="Group_106665" data-name="Group 106665" transform="translate(0 0)">
                <path id="Path_76670" data-name="Path 76670" d="M5.532-1.838l-1.265.366-.133.067L4-1.372a7.789,7.789,0,0,0-.932.433l-.033.033-.067.033-.1.067L2.736-.74,2.2-.373,1.437.292,1.4.326V.359L1.2.592l-1.1,1.5-.067.166-.166.266q-.033.033.033.1h.033l.266-.2L.339,2.29l1.4-1.2L1.97.858,1.937.925l.8-.5.4-.2.1-.067L3.368.126l.1-.067H3.5l.266-.133h.067l.033-.033L4.1-.174l.033-.033H4.2L4.533-.34h.1L5.2-.507h.1L6.4-.673l.8-.033.133.033h.7l.433.067h.133l.1.033h.233l.233.033.233.067.433.067.466.133h.033l.067.033.1.033.233.033.866.3.433.2.233.067.1.067.1.033.866.433.2.133.2.1L15.752,2.49q.033.033.1-.033V2.39l-.3-.4L14.521.892,13.355-.074l-.4-.266-.133-.067-.3-.2-1.4-.7-.965-.266-.266-.1L8.362-1.938H8.129L8-1.971H7.1A6.389,6.389,0,0,0,6.032-1.9Z" transform="translate(0.138 1.971)" fill="#231915"/>
              </g>
            </g>
          </g>
          <g id="Group_106681" data-name="Group 106681" transform="translate(40.489 85.619)">
            <g id="Group_106669" data-name="Group 106669" transform="translate(0.88 1)">
              <g id="Group_106668" data-name="Group 106668">
                <path id="Path_76671" data-name="Path 76671" d="M-23.946-13.844Q-21.02-7.172-18.424-5.8q4.042,2.721,8.883-.32Q-9.82-8.762-5.5-11.763A22.844,22.844,0,0,1-23.946-13.844Z" transform="translate(23.946 13.844)" fill="#712024"/>
              </g>
            </g>
            <g id="Group_106671" data-name="Group 106671" transform="matrix(0.97, 0.241, -0.241, 0.97, 4.447, 5.127)">
              <g id="Group_106670" data-name="Group 106670" transform="translate(0 0)">
                <path id="Path_76672" data-name="Path 76672" d="M9.914,1.912q.508-.368-.923-1.085A9.91,9.91,0,0,0,5.21.013a9.52,9.52,0,0,0-3.9.518q-1.5.64-1.28,1.159.225.543,1.638,1.233a6.589,6.589,0,0,0,3.1.641A8.586,8.586,0,0,0,7.919,2.9,8.617,8.617,0,0,0,9.914,1.912Z" fill="#fdb4b8"/>
              </g>
            </g>
            <g id="Group_106674" data-name="Group 106674" transform="translate(1.401 0.6)">
              <g id="Group_106672" data-name="Group 106672">
                <path id="Path_76673" data-name="Path 76673" d="M-3-13.13q-2.061-.811-3.481-1.4a12.456,12.456,0,0,0-4.242-.56,24.566,24.566,0,0,0-5.682.72,10.888,10.888,0,0,1-5.922-.24Q-13.641-9.729-3-13.13Z" transform="translate(22.325 15.091)" fill="#684633"/>
              </g>
              <g id="Group_106673" data-name="Group 106673" transform="translate(2.781 9.404)">
                <path id="Path_76674" data-name="Path 76674" d="M-8.835,17.3l-.24-.12a7.011,7.011,0,0,1-1.04-.48l-.24-.16-.24-.12-.24-.16-.24-.12-.32-.24-.08-.08-.32-.2-.08-.08-.68-.52-.08-.04-.52-.48-.24-.16-.12-.12h-.12q-.04.08,0,.12l.2.28,1.2,1.321.12.08.36.36.12.08.2.2.44.32.28.16.12.12.4.24.28.12.12.08.44.2a4.155,4.155,0,0,0,1.281.36,3.4,3.4,0,0,0,1.361.04,3.767,3.767,0,0,0,1.281-.32l.12-.08.16-.04.12-.08.16-.08.84-.56.08-.12.2-.16.52-.52.36-.48.12-.12.24-.4.08-.08.08-.16.08-.12q.04-.04-.04-.12h-.08l-.88.88-.16.12-.16.16-.16.12-.16.16-.12.08-.08.04-.2.16-.08.08-.12.04-.44.28-.24.12-.24.08-.16.08-.24.08-.08.04h-.04l-.28.08-.56.08a6.211,6.211,0,0,1-1.16-.04l-.28-.08h-.16Z" transform="translate(13.657 -14.218)" fill="#684633"/>
              </g>
            </g>
            <g id="Group_106676" data-name="Group 106676" transform="translate(0.62 0.749)">
              <g id="Group_106675" data-name="Group 106675">
                <path id="Path_76675" data-name="Path 76675" d="M-15.733-11.775l-.12-.04-4.442-1.04-4.322-1.721q-.12-.12-.12.04a.05.05,0,0,0,0,.08l2.2,1.521,1.361.68,4.362,1.481h.12l.04.04h.08l.48.08.28.08,1.04.12h.24l.28.04h1.281l1.961-.24h.12l.12-.04,1.6-.32.2-.08,1.921-.6.16-.08.16-.04,1.761-.76.16-.12.28-.12.2-.12q.12,0,.04-.08,0-.12-.08-.04l-7,1.361h-.24l-.24.04h-.44l-.24.04h-.24a16.828,16.828,0,0,1-1.921-.04l-.92-.12Z" transform="translate(24.757 14.628)" fill="#231915"/>
              </g>
            </g>
            <g id="Group_106678" data-name="Group 106678" transform="translate(0.768 0.928)">
              <g id="Group_106677" data-name="Group 106677">
                <path id="Path_76676" data-name="Path 76676" d="M-24.263-13.956l.04.2,1.12,2.641,1.641,2.641q.72.88,1.2,1.361l1.441,1.2a9.748,9.748,0,0,0,1.681.84l.64.24,1.12.2h.88a5.52,5.52,0,0,0,.8-.04l1.481-.32,1.681-.68,1.08-.68q.16,0,.04-.12H-9.5l-1.921.72-1.6.36-.36.04-.16.04H-14.9l-.2-.04h-.2l-.8-.2a3.375,3.375,0,0,1-.76-.24,6.968,6.968,0,0,1-1.521-.8l-1.361-1.08-1.521-1.761-.12-.12-.36-.48-.12-.12L-24.143-14q0-.12-.08-.04Q-24.343-14.036-24.263-13.956Z" transform="translate(24.295 14.068)" fill="#231915"/>
              </g>
            </g>
            <g id="Group_106680" data-name="Group 106680" transform="translate(0 0)">
              <g id="Group_106679" data-name="Group 106679">
                <path id="Path_76677" data-name="Path 76677" d="M-26.53-16.2v.04h-.04v.08l-.04.04V-16l-.04.08-.04.24v.2l.04.2v.12l.04.08.04.16.08.2.04.16.08.16.12.12v.04l.12.12q0,.12.12,0v-.04l.04-.08v-1.08l.04-.12v-.12l.04-.12v-.04h.04v-.08l.4-.4h.04l.08-.08.32-.2.04-.04h.08l.24-.16.04-.04.08-.04.04-.08-.16-.08h-.04l-.16-.04h-.32l-.28.04-.16.08h-.08l-.08.04h.04q-.28.12-.36.16l-.2.16-.12.16Z" transform="translate(26.69 16.962)" fill="#684633"/>
              </g>
            </g>
          </g>
          <g id="Group_106684" data-name="Group 106684" transform="matrix(0.911, -0.412, 0.412, 0.911, 24.836, 54.053)">
            <g id="Group_106683" data-name="Group 106683" transform="translate(0 0)">
              <g id="Group_106682" data-name="Group 106682" transform="translate(0 0)">
                <path id="Path_76678" data-name="Path 76678" d="M9.24.8A26.2,26.2,0,0,0,2.409,2.256,14.829,14.829,0,0,1,4.191,0,10.629,10.629,0,0,0,2.178,1.568a11.183,11.183,0,0,0-.759.825L0,4.539,2.244,3.026A17.488,17.488,0,0,1,9.9,1.458a24.517,24.517,0,0,1,6.963.908q2.343.66,2.8.358a1.069,1.069,0,0,0,.462-1.348l-.033.083a1.338,1.338,0,0,1-.462.66,1.572,1.572,0,0,1-.858.083,18.8,18.8,0,0,1-2.64-.715A18.8,18.8,0,0,0,9.24.8Z" transform="translate(0 1.486)"/>
                <path id="Path_76679" data-name="Path 76679" d="M0,3.741A26.2,26.2,0,0,1,6.831,2.283a18.8,18.8,0,0,1,6.9.688,18.8,18.8,0,0,0,2.64.715,1.572,1.572,0,0,0,.858-.083,1.338,1.338,0,0,0,.462-.66l.033-.083-.033-.083A2.365,2.365,0,0,0,16.4,1.513,17.675,17.675,0,0,0,11.681.248a18.03,18.03,0,0,0-8.019.44,10.629,10.629,0,0,0-1.881.8A14.829,14.829,0,0,0,0,3.741Z" transform="translate(2.409 0)" fill="#140e0e"/>
              </g>
            </g>
          </g>
          <g id="Group_106687" data-name="Group 106687" transform="matrix(-0.904, -0.428, 0.428, -0.904, 74.525, 57.87)">
            <g id="Group_106686" data-name="Group 106686" transform="translate(0 0)">
              <g id="Group_106685" data-name="Group 106685">
                <path id="Path_76680" data-name="Path 76680" d="M6.906,3.365A16.78,16.78,0,0,1,1.8,2.054,13.27,13.27,0,0,0,3.132,4.083a8.345,8.345,0,0,1-1.5-1.41q-.294-.347-.567-.742L0,0,1.677,1.361A11.226,11.226,0,0,0,7.4,2.771a15.435,15.435,0,0,0,5.2-.817q1.751-.594,2.1-.322a1.065,1.065,0,0,1,.345,1.212l-.025-.074a1.22,1.22,0,0,0-.345-.594.994.994,0,0,0-.641-.074,12.2,12.2,0,0,0-1.973.643A11.8,11.8,0,0,1,6.906,3.365Z"/>
                <path id="Path_76681" data-name="Path 76681" d="M0,0A16.779,16.779,0,0,0,5.105,1.311,11.8,11.8,0,0,0,10.26.693,12.2,12.2,0,0,1,12.233.049a.994.994,0,0,1,.641.074,1.22,1.22,0,0,1,.345.594l.025.074L13.22.866A1.982,1.982,0,0,1,12.258,2,11.514,11.514,0,0,1,8.731,3.143a11.286,11.286,0,0,1-5.993-.4,7.294,7.294,0,0,1-1.406-.718A13.27,13.27,0,0,1,0,0Z" transform="translate(1.8 2.054)" fill="#140e0e"/>
              </g>
            </g>
          </g>
          <g id="Group_106689" data-name="Group 106689" transform="translate(30.18 77.774)">
            <g id="Group_106688" data-name="Group 106688" transform="translate(0 0)">
              <path id="Path_76682" data-name="Path 76682" d="M-6.988-7.813v.825h.825m-.825,0v.825m3.3-.825-3.3,3.3-3.3-3.3,3.3-3.3Zm-4.127,0h.825" transform="translate(10.289 10.289)" fill="none" stroke="rgba(0,0,0,0)" stroke-linecap="round" stroke-linejoin="round" stroke-width="0.086"/>
            </g>
          </g>
        </g>
      </g>
    </g>
  </g>
</svg>
