<svg xmlns="http://www.w3.org/2000/svg" xmlns:xlink="http://www.w3.org/1999/xlink" width="375" height="270" viewBox="0 0 375 270">
  <defs>
    <clipPath id="clip-path">
      <rect id="Rectangle_8679" data-name="Rectangle 8679" width="375" height="270" transform="translate(15300 -12887)" fill="#fff" stroke="#707070" stroke-width="1" opacity="0.59"/>
    </clipPath>
    <clipPath id="clip-path-2">
      <rect id="Rectangle_8683" data-name="Rectangle 8683" width="254" height="208" transform="translate(84 126)" fill="#fff"/>
    </clipPath>
    <linearGradient id="linear-gradient" x1="0.543" y1="0.993" x2="0.511" y2="0.105" gradientUnits="objectBoundingBox">
      <stop offset="0" stop-color="#4d4343"/>
      <stop offset="1" stop-color="#252020"/>
    </linearGradient>
  </defs>
  <g id="Mask_Group_16640" data-name="Mask Group 16640" transform="translate(-15300 12887)" clip-path="url(#clip-path)">
    <g id="Mask_Group_16627" data-name="Mask Group 16627" transform="translate(15300 -12987)" clip-path="url(#clip-path-2)">
      <g id="male_teen_DS_3" data-name="male teen DS 3" transform="translate(96 126.183)">
        <g id="Group_105510" data-name="Group 105510" transform="matrix(-0.824, 0.566, -0.566, -0.824, 173.206, 178.455)">
          <g id="Group_105493" data-name="Group 105493" transform="translate(1.197 6.583)">
            <g id="Group_105492" data-name="Group 105492" transform="translate(0 0)">
              <path id="Path_76132" data-name="Path 76132" d="M17.33,0a208.532,208.532,0,0,1,6.483,31.743L4.937,35.533q-3-16.5-4.937-32.74Z" fill="#80553c"/>
            </g>
          </g>
          <g id="Group_105495" data-name="Group 105495" transform="translate(1.172 0)">
            <g id="Group_105494" data-name="Group 105494" transform="translate(0 0)">
              <path id="Path_76133" data-name="Path 76133" d="M17.654,8.827a8.529,8.529,0,0,1-2.593,6.259,8.488,8.488,0,0,1-6.234,2.568,8.571,8.571,0,0,1-6.259-2.568A8.571,8.571,0,0,1,0,8.827,8.488,8.488,0,0,1,2.568,2.593,8.529,8.529,0,0,1,8.827,0a8.447,8.447,0,0,1,6.234,2.593A8.447,8.447,0,0,1,17.654,8.827Z" transform="translate(0)" fill="#80553c"/>
            </g>
          </g>
          <g id="Group_105498" data-name="Group 105498" transform="translate(4.788 31.036)">
            <g id="Group_105497" data-name="Group 105497" transform="translate(0 0)">
              <g id="Group_105496" data-name="Group 105496" transform="translate(0 0)">
                <path id="Path_76134" data-name="Path 76134" d="M1.571,14.2,0,3.948A29.277,29.277,0,0,1,19.275.332l1.671,9.475Z" fill="#684633"/>
              </g>
            </g>
          </g>
          <g id="Group_105500" data-name="Group 105500" transform="translate(15.809 58.748)">
            <g id="Group_105499" data-name="Group 105499" transform="translate(0 0)">
              <path id="Path_76135" data-name="Path 76135" d="M29.274,14.637a14.1,14.1,0,0,1-4.289,10.348,14.1,14.1,0,0,1-10.348,4.289A14.1,14.1,0,0,1,4.289,24.985,14.1,14.1,0,0,1,0,14.637,14.1,14.1,0,0,1,4.289,4.289,14.1,14.1,0,0,1,14.637,0,14.1,14.1,0,0,1,24.985,4.289,14.1,14.1,0,0,1,29.274,14.637Z" transform="translate(0)" fill="#7a2230"/>
            </g>
          </g>
          <g id="Group_105502" data-name="Group 105502" transform="translate(0.05 33.074)">
            <g id="Group_105501" data-name="Group 105501" transform="translate(0 0)">
              <path id="Path_76136" data-name="Path 76136" d="M34.311,2.584Q39.562,25.007,44.634,36.87L20.347,50.958Q11.769,43.4,0,8.269,11.869-4.622,34.311,2.584Z" transform="translate(0 0)" fill="#7a2230"/>
            </g>
          </g>
          <g id="Group_105505" data-name="Group 105505" transform="translate(0 33.105)">
            <g id="Group_105504" data-name="Group 105504" transform="translate(0 0)">
              <g id="Group_105503" data-name="Group 105503" transform="translate(0 0)">
                <path id="Path_76137" data-name="Path 76137" d="M10.822,36.29A245.149,245.149,0,0,1,0,8.188Q11.409-4.389,33.513,2.353,8.628.932,5.361,9.958,3.366,15.444,17.4,47.611A64.12,64.12,0,0,1,10.822,36.29Z" fill="#4b0f18"/>
              </g>
            </g>
          </g>
          <g id="Group_105507" data-name="Group 105507" transform="translate(36.66 45.033)">
            <g id="Group_105506" data-name="Group 105506" transform="translate(0 0)">
              <path id="Path_76138" data-name="Path 76138" d="M7.376,23.24l-.349-.5-.1-.175-.15-.2L6.154,21.32l-.075-.15-.1-.15L3.81,16.333,1.466,8.777.045.324.02.05Q-.03,0,.045,0l.05.025L4.309,15.011,6.5,20.971l.05.175.574,1.322.1.175.224.574q.05.05-.025.05Q7.376,23.315,7.376,23.24Z" transform="translate(0 0)" fill="#4b0f18"/>
            </g>
          </g>
          <g id="Group_105509" data-name="Group 105509" transform="translate(27.454 70.393)">
            <g id="Group_105508" data-name="Group 105508" transform="translate(0 0)">
              <path id="Path_76139" data-name="Path 76139" d="M2.992,3.74V2.992H3.74m-.748,0V2.244m2.992.748L2.992,0,0,2.992,2.992,5.984Zm-3.74,0h.748" transform="translate(0)" fill="none" stroke="rgba(0,0,0,0)" stroke-linecap="round" stroke-linejoin="round" stroke-width="0.091"/>
            </g>
          </g>
        </g>
        <g id="Group_105519" data-name="Group 105519" transform="translate(194.918 116.612) rotate(49.717)">
          <g id="Group_105512" data-name="Group 105512" transform="matrix(0.978, -0.208, 0.208, 0.978, 0, 8.031)">
            <g id="Group_105511" data-name="Group 105511" transform="translate(0 0)">
              <path id="Path_76140" data-name="Path 76140" d="M19.617,61.99,2.262,63.636A93.224,93.224,0,0,1,.093,49.6q-.619-7.582,2.893-24.861T6.651.05L18.6,0q-.649,10.683-.424,18.6t.7,17.455q.462,9.551.748,16.557A66.2,66.2,0,0,1,19.617,61.99Z" transform="translate(0)" fill="#80553c"/>
            </g>
          </g>
          <g id="Group_105514" data-name="Group 105514" transform="translate(6.452 0)">
            <g id="Group_105513" data-name="Group 105513" transform="translate(0 0)">
              <path id="Path_76141" data-name="Path 76141" d="M11.976,5.988A5.768,5.768,0,0,1,10.22,10.22a5.768,5.768,0,0,1-4.232,1.756A5.768,5.768,0,0,1,1.756,10.22,5.768,5.768,0,0,1,0,5.988,5.768,5.768,0,0,1,1.756,1.756,5.768,5.768,0,0,1,5.988,0,5.768,5.768,0,0,1,10.22,1.756,5.768,5.768,0,0,1,11.976,5.988Z" fill="#80553c"/>
            </g>
          </g>
          <g id="Group_105516" data-name="Group 105516" transform="translate(7.255 12.014)">
            <g id="Group_105515" data-name="Group 105515" transform="translate(0 0)">
              <path id="Path_76142" data-name="Path 76142" d="M4.558,48.719l-.15-.274-.673-1.671a20.324,20.324,0,0,1-.748-2.319L1.691,37.7q-.374-3.416-.449-4.139L.818,27.424.793,22.686l-.025-.15L.219,2.164.02.194V.07Q-.03.02.045.02q.05-.05.05.025l.05.15.349,1.92.848,9.251q.2,2.568.249,4.139L1.815,27.4l.848,12.119.549,3.765.05.175v.1l.15.8,1.222,4.339q.05.05-.025.05Q4.558,48.794,4.558,48.719Z" fill="#684633"/>
            </g>
          </g>
          <g id="Group_105518" data-name="Group 105518" transform="translate(20.267 62.679)">
            <g id="Group_105517" data-name="Group 105517" transform="translate(0 0)">
              <path id="Path_76143" data-name="Path 76143" d="M2.992,3.74V2.992H3.74m-.748,0V2.244m2.992.748L2.992,0,0,2.992,2.992,5.985Zm-3.74,0h.748" transform="translate(0 0)" fill="none" stroke="rgba(0,0,0,0)" stroke-linecap="round" stroke-linejoin="round" stroke-width="0.091"/>
            </g>
          </g>
        </g>
        <g id="Group_105522" data-name="Group 105522" transform="translate(172.249 146.463)">
          <g id="Group_105521" data-name="Group 105521" transform="translate(0)">
            <g id="Group_105520" data-name="Group 105520">
              <path id="Path_76144" data-name="Path 76144" d="M311.995-1187.473a4.808,4.808,0,0,0,2.506.026q1.664-.4,1.727-1.029-.612-.544-2.58-6.588-1.157-6.688-.747-7.186-.362-.359-2.041-.08a4.862,4.862,0,0,0-2.223,1.063q-1,.821.1,7.227,2.026,6.447,3.257,6.566m.137-10.249a21.679,21.679,0,0,1,1.213,5.145,7.029,7.029,0,0,1-2.911.658,11.289,11.289,0,0,1-1.223-5.182A4.574,4.574,0,0,1,312.132-1197.723Z" transform="translate(-308.161 1202.452)" fill="#f5d8d1"/>
              <path id="Path_76145" data-name="Path 76145" d="M316.123-1180.186a21.67,21.67,0,0,0-1.213-5.144,4.574,4.574,0,0,0-2.92.62,11.29,11.29,0,0,0,1.223,5.183A7.027,7.027,0,0,0,316.123-1180.186Z" transform="translate(-310.938 1190.06)" fill="#fff"/>
            </g>
          </g>
        </g>
        <g id="Group_105527" data-name="Group 105527" transform="matrix(0.019, 1, -1, 0.019, 233.421, 110.849)">
          <g id="Group_105524" data-name="Group 105524" transform="translate(0 0)">
            <g id="Group_105523" data-name="Group 105523" transform="translate(0 0)">
              <path id="Path_76146" data-name="Path 76146" d="M.374,22.842a13.648,13.648,0,0,0,.973-6.059l.7,2.893a8.964,8.964,0,0,0,.723,6.234A6.65,6.65,0,0,0,.374,22.842M13.49,13.491,11.87,11.122a17.932,17.932,0,0,1-.923-2.444A9.465,9.465,0,0,1,10.2,5.163a7.845,7.845,0,0,1,.449-1.9A5.55,5.55,0,0,0,11.022,1.9a.954.954,0,0,0-.075-.549l1.247,1.122.05.2.224.075.4,1.122-.05-.025a1.494,1.494,0,0,0-1.172.549,4.348,4.348,0,0,0-.224,2.568q.224,2.344,2.743,6.084l-.474,6.783a9.294,9.294,0,0,1-.2-6.334m-2.718,5.461a4.061,4.061,0,0,1,.948.549q.524.4-1.147.424Q.9,19.476,3.89,19.052q.823-.075,1.646-.125.224-5.037-.125-5.361Q3.017,5.312,0,2.744q1.4-.274,3.117,1.571a62.321,62.321,0,0,0,3.566,8.6V18.9q1.671-.025,3.341.075a7.592,7.592,0,0,1,.224-5.91A54.871,54.871,0,0,1,6.783,6.285,15.285,15.285,0,0,1,5.91,3.592q-.3-1.4-.4-1.87v-.2a4.746,4.746,0,0,1,.5-1.5,4.04,4.04,0,0,1-.7.05h.025A1.989,1.989,0,0,1,7.082.4l.1.175.424-.5-.075.15L7.406.45a3.69,3.69,0,0,0-.574,1.272,1.728,1.728,0,0,0-.075.5q-.05-.175-.125-.4a3.366,3.366,0,0,0,.15.549,1.854,1.854,0,0,0,.125.524.072.072,0,0,1,.025.05,34.384,34.384,0,0,0,2.519,7.182,12.935,12.935,0,0,0,2.319,3.042,6.033,6.033,0,0,0-1.022,2.543,11.172,11.172,0,0,0-.449,2.444.826.826,0,0,0,.474.8M5.286,36.707Q2.444,29.45,13.241,20.523,5.536,30.1,5.286,36.707Z" transform="translate(13.141 0)" fill="#684633"/>
              <path id="Path_76147" data-name="Path 76147" d="M23.166,18.951q-1.671-.1-3.341-.075V12.892a62.322,62.322,0,0,1-3.566-8.6Q16.383.549,17.63.125L18.453.05a4.04,4.04,0,0,0,.7-.05,4.746,4.746,0,0,0-.5,1.5v.2q.1.474.4,1.87a15.285,15.285,0,0,0,.873,2.693,54.871,54.871,0,0,0,3.466,6.783,7.592,7.592,0,0,0-.224,5.91m1.7.524a4.061,4.061,0,0,0-.948-.549.826.826,0,0,1-.474-.8,11.172,11.172,0,0,1,.449-2.444,6.033,6.033,0,0,1,1.022-2.543A12.935,12.935,0,0,1,22.592,10.1a34.384,34.384,0,0,1-2.519-7.182.072.072,0,0,0-.025-.05,1.854,1.854,0,0,1-.125-.524,3.365,3.365,0,0,1-.15-.549q.075.224.125.4a1.728,1.728,0,0,1,.075-.5A3.69,3.69,0,0,1,20.547.424L20.672.2,21.1.15a3.45,3.45,0,0,1,2.992,1.172.954.954,0,0,1,.075.549,5.55,5.55,0,0,1-.374,1.371,7.844,7.844,0,0,0-.449,1.9,9.465,9.465,0,0,0,.748,3.516,17.933,17.933,0,0,0,.923,2.444l1.621,2.369a9.294,9.294,0,0,0,.2,6.334l.474-6.783q-2.519-3.74-2.743-6.084a4.348,4.348,0,0,1,.224-2.568,1.494,1.494,0,0,1,1.172-.549l.05.025a1.959,1.959,0,0,1,1.521.349q1.247,2.319,2.494,4.788.1.374.224.748a13.994,13.994,0,0,1,.873,4.114v7.082Q26.457,39.972,18.926,41.269q-8.478-.9-10.6-10.049a21.357,21.357,0,0,0-3.217-7.531,13.354,13.354,0,0,0-2.294-2.519A11.834,11.834,0,0,0,0,19.35a6.917,6.917,0,0,1,1.7-2.394,4.206,4.206,0,0,1,1.122-.7,4.5,4.5,0,0,1,.948-.3,3.144,3.144,0,0,1,2.12.3A9.609,9.609,0,0,1,8,17.729a5.044,5.044,0,0,1,1.371,1.746,5.56,5.56,0,0,0,1.471,1.8,7.557,7.557,0,0,1,2.668,1.546,6.65,6.65,0,0,1,2.394,3.067,8.964,8.964,0,0,1-.723-6.234l-.7-2.893q-.05-.574-.125-1.172V12.293Q9.775,6.359,11.62,3.84a2.632,2.632,0,0,1,1.521-1.122q3.017,2.568,5.411,10.822.349.324.125,5.361-.823.05-1.646.125-2.992.424,6.683.873,1.671-.025,1.147-.424M26.382,20.5q-10.8,8.927-7.955,16.183Q18.677,30.073,26.382,20.5Z" transform="translate(0 0.026)" fill="#80553c"/>
            </g>
          </g>
          <g id="Group_105526" data-name="Group 105526" transform="translate(15.535 32.442)">
            <g id="Group_105525" data-name="Group 105525" transform="translate(0 0)">
              <path id="Path_76148" data-name="Path 76148" d="M2.992,3.74V2.992H3.74m-.748,0V2.244m2.992.748L2.992,0,0,2.992,2.992,5.985Zm-3.74,0h.748" transform="translate(0 0)" fill="none" stroke="rgba(0,0,0,0)" stroke-linecap="round" stroke-linejoin="round" stroke-width="0.091"/>
            </g>
          </g>
        </g>
        <g id="Group_105537" data-name="Group 105537" transform="translate(34.156 158.131) rotate(-8.147)">
          <g id="Group_105529" data-name="Group 105529" transform="translate(0 31.321)">
            <g id="Group_105528" data-name="Group 105528" transform="translate(0 0)">
              <path id="Path_76149" data-name="Path 76149" d="M76.209,53.067A321.85,321.85,0,0,0,72.817,0L7.98,2.793A354.206,354.206,0,0,1,0,53.665Q35.831,67.423,76.209,53.067Z" transform="translate(0 0)" fill="#ede6de"/>
            </g>
          </g>
          <g id="Group_105531" data-name="Group 105531" transform="translate(7.775 2.002)">
            <g id="Group_105530" data-name="Group 105530" transform="translate(0 0)">
              <path id="Path_76150" data-name="Path 76150" d="M0,32.783A31.592,31.592,0,0,0,9.6,55.971a31.592,31.592,0,0,0,23.188,9.6,31.592,31.592,0,0,0,23.188-9.6,31.592,31.592,0,0,0,9.6-23.188A31.592,31.592,0,0,0,55.971,9.6,31.592,31.592,0,0,0,32.783,0,31.592,31.592,0,0,0,9.6,9.6,31.592,31.592,0,0,0,0,32.783Z" transform="translate(0 0)" fill="#ede6de"/>
            </g>
          </g>
          <g id="Group_105534" data-name="Group 105534" transform="translate(0.05 0)">
            <g id="Group_105533" data-name="Group 105533" transform="translate(0 0)">
              <g id="Group_105532" data-name="Group 105532">
                <path id="Path_76151" data-name="Path 76151" d="M39.227,8.678Q40,8.653,40.8,8.653q.8.1,1.6.224a4.294,4.294,0,0,1,.474-.025,35.443,35.443,0,0,1-.449-6.758A8.276,8.276,0,0,1,42.543.973a9.153,9.153,0,0,1,.2-.973l-.449,1.421a33.8,33.8,0,0,0-20.2,4.763l-6.509,6.783a53.891,53.891,0,0,0-5.736,9.9,46.268,46.268,0,0,0-1.97,9.651A406.492,406.492,0,0,1,0,85.161a42.476,42.476,0,0,0,6.683,2.17q4.106,1.022,6.459,1.721A34.37,34.37,0,0,0,19,90.2q3.509.456,7.257,1.147a36.682,36.682,0,0,0,7.581.648q3.865-.071,5.486-.125T45.96,91.5a64.306,64.306,0,0,0,9.152-1.172q4.026-.7,6.908-1.446,2.909-.748,3.591-.948.676-.175,1.347-.374.673-.224,1.347-.424-.524.1-1.022.224-4.09.8-8.329,1.272-3.017.349-6.085.648a108.734,108.734,0,0,1-11.147.374,59.526,59.526,0,0,1-6.908-.549,56.38,56.38,0,0,1-9.726-2.219,21.866,21.866,0,0,1-6.808-3.766,13.114,13.114,0,0,1-4.489-7.007,35.066,35.066,0,0,1-.973-5.661,84.864,84.864,0,0,1-.324-10.274q.125-3.865.374-7.78.15-2.668.424-5.337.327-2.993.574-7.132.266-4.139,1.072-9.052A29.793,29.793,0,0,1,18.055,21.7a19.985,19.985,0,0,1,6.409-7.057A41.022,41.022,0,0,1,30.4,11.2,27,27,0,0,1,39.227,8.678Z" fill="#dad0c5"/>
              </g>
            </g>
          </g>
          <g id="Group_105536" data-name="Group 105536" transform="translate(35.112 88.877)">
            <g id="Group_105535" data-name="Group 105535" transform="translate(0 0)">
              <path id="Path_76152" data-name="Path 76152" d="M2.992,2.244v.748h.748m-.748,0v.748m2.992-.748L2.992,5.985,0,2.992,2.992,0Zm-3.741,0h.748" transform="translate(0 0)" fill="none" stroke="rgba(0,0,0,0)" stroke-linecap="round" stroke-linejoin="round" stroke-width="0.091"/>
            </g>
          </g>
        </g>
        <g id="Group_105562" data-name="Group 105562" transform="translate(49.769 100.143) rotate(12.178)">
          <g id="Group_105539" data-name="Group 105539" transform="translate(28.303 0)">
            <g id="Group_105538" data-name="Group 105538" transform="translate(0 0)">
              <path id="Path_76153" data-name="Path 76153" d="M30.173,17.906l2.469-11.82a28.18,28.18,0,0,0-8.129-4.663A25.653,25.653,0,0,0,16.309,0,27.508,27.508,0,0,0,.574,4.74L0,17.906Z" fill="#80553c"/>
            </g>
          </g>
          <g id="Group_105541" data-name="Group 105541" transform="translate(7.855 2.919)">
            <g id="Group_105540" data-name="Group 105540" transform="translate(0 0)">
              <path id="Path_76154" data-name="Path 76154" d="M69.823,19.725A17.37,17.37,0,0,0,67.179,11Q64.774,7.19,58.95,4.863a50.748,50.748,0,0,1-7.98-3.74Q48.936,6.533,42.293,10.4q-6.616,3.89-11.6-1.2-4.96-5.062-6.209-6.134A10.643,10.643,0,0,1,22.169,0a41.42,41.42,0,0,0-5.237,1.446Q12.544,2.825,8.154,4.264A52.059,52.059,0,0,0,0,7.78L6.583,76.406q2.593-3.541,5.436-6.858,2.544-2.967,5.336-5.76L18.4,62.741l1.047-1q2.02-1.845,4.189-3.516a42.011,42.011,0,0,1,8.354-4.913,26.523,26.523,0,0,1,8.2-2.095,25.1,25.1,0,0,1,8.1.723,30.565,30.565,0,0,1,7.955,3.491,36.951,36.951,0,0,1,4.962,3.641,53.024,53.024,0,0,1,4.389,4.239,65.986,65.986,0,0,1,6.134,7.606Z" fill="#ede6de"/>
            </g>
          </g>
          <g id="Group_105543" data-name="Group 105543" transform="translate(0.249 8.879)">
            <g id="Group_105542" data-name="Group 105542" transform="translate(0 0)">
              <path id="Path_76155" data-name="Path 76155" d="M29.276,14.638A14.1,14.1,0,0,0,24.987,4.289,14.1,14.1,0,0,0,14.638,0,14.1,14.1,0,0,0,4.289,4.289,14.1,14.1,0,0,0,0,14.638,14.1,14.1,0,0,0,4.289,24.987a14.1,14.1,0,0,0,10.349,4.289,14.1,14.1,0,0,0,10.349-4.289A14.1,14.1,0,0,0,29.276,14.638Z" transform="translate(0)" fill="#ede6de"/>
            </g>
          </g>
          <g id="Group_105546" data-name="Group 105546" transform="translate(10.299 35.387)">
            <g id="Group_105545" data-name="Group 105545" transform="translate(0 0)">
              <g id="Group_105544" data-name="Group 105544">
                <path id="Path_76156" data-name="Path 76156" d="M13.017,0Q.025,2.12,0,2.095L4.09,44.188l8.753-10.773Z" fill="#dad0c5"/>
              </g>
            </g>
          </g>
          <g id="Group_105551" data-name="Group 105551" transform="translate(0 3.293)">
            <g id="Group_105548" data-name="Group 105548" transform="translate(0 0)">
              <g id="Group_105547" data-name="Group 105547">
                <path id="Path_76157" data-name="Path 76157" d="M29.924,20.448A71.734,71.734,0,0,1,34.562,5.237L28.727,0A128.515,128.515,0,0,0,9.975,6.209Q.484,10.07,0,21.1q1.327,8.377,7.631,11.895l.474.249q.317.177.623.324.068.03.125.05l.424.175a13.5,13.5,0,0,0,4.115,1,14.887,14.887,0,0,0,1.5.075,14.1,14.1,0,0,0,10.349-4.289A13.765,13.765,0,0,0,26.283,29.4Q28.91,26.554,29.924,20.448Z" fill="#7a2230"/>
              </g>
            </g>
            <g id="Group_105550" data-name="Group 105550" transform="translate(57.305 0.997)">
              <g id="Group_105549" data-name="Group 105549" transform="translate(0 0)">
                <path id="Path_76158" data-name="Path 76158" d="M10.025,9.177q4.771,3.788,8.055,11.6,1.531,3.611,2.668,6.858a67.179,67.179,0,0,1-.1-7.88,20,20,0,0,0-.424-5.386q-.2-2.489-2.943-5.411a18.712,18.712,0,0,0-6.259-4.788A50.674,50.674,0,0,1,2.344,0L0,3.79A29.9,29.9,0,0,1,10.025,9.177Z" fill="#7a2230"/>
              </g>
            </g>
          </g>
          <g id="Group_105553" data-name="Group 105553" transform="translate(43.24 3.942)">
            <g id="Group_105552" data-name="Group 105552" transform="translate(0 0)">
              <path id="Path_76159" data-name="Path 76159" d="M9.775,3.741l-.15.075-.474.3L6.982,5.187l-3.217,1-.15.025-.15.05L.05,6.808H.025L0,6.858l.025.025.2.05,1.347.1.125.025,1.721-.05.324-.05h.175l1.4-.249,1.471-.424a11.648,11.648,0,0,0,1.471-.574l.723-.374L11.2,3.84l1.945-1.97.848-1.2.1-.125.175-.324.1-.15Q14.388.05,14.339,0h-.05l-.125.15-1.047,1-.1.075-.3.274-.1.075-.2.2Z" fill="#684633"/>
            </g>
          </g>
          <g id="Group_105555" data-name="Group 105555" transform="translate(35.46 11.473)">
            <g id="Group_105554" data-name="Group 105554" transform="translate(0 0)">
              <path id="Path_76160" data-name="Path 76160" d="M15.935,1.571l-.549.224-.2.05a16.811,16.811,0,0,1-1.671.524q-.748.2-.873.224L11.3,2.868h-.125l-.1.025-2.12.15-.125.025-.1-.025h-.7L6.658,2.918l-2.319-.5L1.82,1.5.9,1.047.7.973l-.15-.1L.075.648Q0,.574,0,.673v.05L1.521,2.045l.125.075.549.4L4.414,3.666h.05l1,.349.125.025.1.05.249.05a10.441,10.441,0,0,0,1.97.349A12.809,12.809,0,0,0,10,4.514l.773-.075,2.219-.474.249-.075.1-.05.125-.025.474-.175a16.538,16.538,0,0,0,1.7-.723l1.421-.8A12.284,12.284,0,0,0,18.2,1.347L19.75.075V0h-.075L18.229.648l-.075.025-.549.249-.15.05-.15.075-1.172.474Z" transform="translate(0)" fill="#dad0c5"/>
            </g>
          </g>
          <g id="Group_105557" data-name="Group 105557" transform="translate(27.331 1.796)">
            <g id="Group_105556" data-name="Group 105556" transform="translate(0 0)">
              <path id="Path_76161" data-name="Path 76161" d="M20.972,12.569a18.115,18.115,0,0,0,7.88-3.691A15.851,15.851,0,0,0,31.42,6.16a8.65,8.65,0,0,0,1.446-3.167q-.2-1.272-1.2-1.347a2.086,2.086,0,0,0-1.9,1.172A17.208,17.208,0,0,1,26.607,6.16a10.351,10.351,0,0,1-3.317,1.8A22.645,22.645,0,0,1,19.55,8.8a14.555,14.555,0,0,1-8.6-1.022A14.349,14.349,0,0,1,4.563,2.345,5.034,5.034,0,0,0,3.466.674,2.273,2.273,0,0,0,1.771,0Q.773,0,0,1.422A24.463,24.463,0,0,0,3.94,7.856a13.6,13.6,0,0,0,8.329,4.788A21.031,21.031,0,0,0,20.972,12.569Z" transform="translate(0 0)" fill="#7a2230"/>
            </g>
          </g>
          <g id="Group_105559" data-name="Group 105559" transform="translate(27.41 3.323)">
            <g id="Group_105558" data-name="Group 105558" transform="translate(0 0)">
              <path id="Path_76162" data-name="Path 76162" d="M18.4,11.491q.948-.1,2.269-.324l2.643-.7,1.5-.648.3-.175q.075,0,.025-.05,0-.075-.05-.025l-.1.025-.4.15-.2.05-.125.05-.4.1q-.3.1-1.421.349l-5.287.449-2.893-.175-2.319-.449-1.3-.4a18.485,18.485,0,0,1-2.469-1.1L7.052,7.95Q6.429,7.526,6,7.177L5.855,7.1l-.1-.1-.249-.2L3.187,4.509.095.045Q.095-.03.045.02-.03.02.02.07l.5,1.2q.424.9.673,1.322l1,1.671a18.746,18.746,0,0,0,1.4,1.82L4.459,7a11.2,11.2,0,0,0,.973.873,12.184,12.184,0,0,0,1.1.848L7.7,9.471l2.618,1.2a22.855,22.855,0,0,0,2.793.7l.673.1,3.366.125Z" fill="#4b0f18"/>
            </g>
          </g>
          <g id="Group_105561" data-name="Group 105561" transform="translate(44.113 75.485)">
            <g id="Group_105560" data-name="Group 105560" transform="translate(0 0)">
              <path id="Path_76163" data-name="Path 76163" d="M2.992,2.244v.748h.748m-.748,0v.748m2.992-.748L2.992,5.985,0,2.992,2.992,0Zm-3.741,0h.748" transform="translate(0 0)" fill="none" stroke="rgba(0,0,0,0)" stroke-linecap="round" stroke-linejoin="round" stroke-width="0.091"/>
            </g>
          </g>
        </g>
        <g id="Group_105581" data-name="Group 105581" transform="matrix(0.962, 0.275, -0.275, 0.962, 34.155, 103.878)">
          <g id="Group_105564" data-name="Group 105564" transform="translate(1.197 45.908)">
            <g id="Group_105563" data-name="Group 105563" transform="translate(0 0)">
              <path id="Path_76164" data-name="Path 76164" d="M17.331,35.534A208.54,208.54,0,0,0,23.814,3.79L4.937,0Q1.935,16.5,0,32.741Z" fill="#80553c"/>
            </g>
          </g>
          <g id="Group_105566" data-name="Group 105566" transform="translate(1.172 70.37)">
            <g id="Group_105565" data-name="Group 105565" transform="translate(0 0)">
              <path id="Path_76165" data-name="Path 76165" d="M17.655,8.827a8.529,8.529,0,0,0-2.593-6.259A8.488,8.488,0,0,0,8.827,0,8.571,8.571,0,0,0,2.568,2.568,8.571,8.571,0,0,0,0,8.827a8.488,8.488,0,0,0,2.568,6.234,8.529,8.529,0,0,0,6.259,2.593,8.447,8.447,0,0,0,6.234-2.593A8.447,8.447,0,0,0,17.655,8.827Z" transform="translate(0)" fill="#80553c"/>
            </g>
          </g>
          <g id="Group_105569" data-name="Group 105569" transform="translate(4.788 42.791)">
            <g id="Group_105568" data-name="Group 105568" transform="translate(0 0)">
              <g id="Group_105567" data-name="Group 105567">
                <path id="Path_76166" data-name="Path 76166" d="M1.571,0,0,10.249a29.279,29.279,0,0,0,19.276,3.616l1.671-9.476Z" fill="#684633"/>
              </g>
            </g>
          </g>
          <g id="Group_105571" data-name="Group 105571" transform="translate(15.81 0)">
            <g id="Group_105570" data-name="Group 105570" transform="translate(0 0)">
              <path id="Path_76167" data-name="Path 76167" d="M29.275,14.638A14.1,14.1,0,0,0,24.986,4.289,14.1,14.1,0,0,0,14.638,0,14.1,14.1,0,0,0,4.289,4.289,14.1,14.1,0,0,0,0,14.638,14.1,14.1,0,0,0,4.289,24.986a14.1,14.1,0,0,0,10.349,4.289,14.1,14.1,0,0,0,10.349-4.289A14.1,14.1,0,0,0,29.275,14.638Z" transform="translate(0)" fill="#7a2230"/>
            </g>
          </g>
          <g id="Group_105573" data-name="Group 105573" transform="translate(0.05 3.99)">
            <g id="Group_105572" data-name="Group 105572" transform="translate(0 0)">
              <path id="Path_76168" data-name="Path 76168" d="M34.312,48.377q5.251-22.424,10.324-34.287L20.348,0Q11.77,7.556,0,42.691,11.87,55.583,34.312,48.377Z" fill="#7a2230"/>
            </g>
          </g>
          <g id="Group_105576" data-name="Group 105576" transform="translate(0 7.306)">
            <g id="Group_105575" data-name="Group 105575" transform="translate(0 0)">
              <g id="Group_105574" data-name="Group 105574">
                <path id="Path_76169" data-name="Path 76169" d="M10.822,11.321A245.161,245.161,0,0,0,0,39.424Q11.409,52,33.514,45.259,8.628,46.681,5.361,37.654,3.366,32.168,17.406,0A64.122,64.122,0,0,0,10.822,11.321Z" fill="#4b0f18"/>
              </g>
            </g>
          </g>
          <g id="Group_105578" data-name="Group 105578" transform="translate(36.661 19.705)">
            <g id="Group_105577" data-name="Group 105577" transform="translate(0 0)">
              <path id="Path_76170" data-name="Path 76170" d="M7.376.045l-.349.5-.1.175-.15.2L6.154,1.965l-.075.15-.1.15L3.81,6.952,1.466,14.508.045,22.961l-.025.274q-.05.05.025.05l.05-.025L4.309,8.274,6.5,2.314l.05-.175L7.127.818l.1-.175L7.451.07Q7.5.02,7.426.02,7.376-.03,7.376.045Z" fill="#4b0f18"/>
            </g>
          </g>
          <g id="Group_105580" data-name="Group 105580" transform="translate(27.455 11.645)">
            <g id="Group_105579" data-name="Group 105579" transform="translate(0 0)">
              <path id="Path_76171" data-name="Path 76171" d="M2.992,2.244v.748H3.74m-.748,0V3.74m2.992-.748L2.992,5.985,0,2.992,2.992,0Zm-3.74,0h.748" transform="translate(0)" fill="none" stroke="rgba(0,0,0,0)" stroke-linecap="round" stroke-linejoin="round" stroke-width="0.091"/>
            </g>
          </g>
        </g>
        <g id="Group_105586" data-name="Group 105586" transform="translate(94.968 67.365) rotate(16.386)">
          <g id="Group_105583" data-name="Group 105583" transform="translate(0 0)">
            <g id="Group_105582" data-name="Group 105582">
              <path id="Path_76172" data-name="Path 76172" d="M20.1,22.069a14.4,14.4,0,0,1-2.344-.948,33.9,33.9,0,0,1-4.663-2.967,40.87,40.87,0,0,1-4.214-3.666A22.725,22.725,0,0,1,5.411,10Q3.89,7.456,2.743,5.087A43.956,43.956,0,0,1,.648,0L0,28.029l20.024.3Z" transform="translate(0 16.857)" fill="#80553c"/>
              <path id="Path_76173" data-name="Path 76173" d="M19.276,8.853h-.125a9.142,9.142,0,0,0-2.768-6.06A9.176,9.176,0,0,0,9.651,0,9.288,9.288,0,0,0,2.868,2.793,9.247,9.247,0,0,0,.1,9.551q0,.274.025.549L0,16.857a43.957,43.957,0,0,0,2.095,5.087q1.147,2.369,2.668,4.913a22.725,22.725,0,0,0,3.466,4.489,40.871,40.871,0,0,0,4.214,3.666,33.9,33.9,0,0,0,4.663,2.967,14.4,14.4,0,0,0,2.344.948Z" transform="translate(0.648 0)" fill="#684633"/>
            </g>
          </g>
          <g id="Group_105585" data-name="Group 105585" transform="translate(6.209 48.003)">
            <g id="Group_105584" data-name="Group 105584" transform="translate(0 0)">
              <path id="Path_76174" data-name="Path 76174" d="M2.992,2.244v.748h.748m-.748,0v.748m2.992-.748L2.992,5.985,0,2.992,2.992,0Zm-3.741,0h.748" fill="none" stroke="rgba(0,0,0,0)" stroke-linecap="round" stroke-linejoin="round" stroke-width="0.091"/>
            </g>
          </g>
        </g>
        <g id="Group_105673" data-name="Group 105673" transform="translate(104.128 0) rotate(23.88)">
          <g id="Group_105587" data-name="Group 105587" transform="translate(20.812 63.94)">
            <path id="Path_76175" data-name="Path 76175" d="M19.09,9.545a9.153,9.153,0,0,1-2.8,6.742,9.153,9.153,0,0,1-6.742,2.8,9.213,9.213,0,0,1-6.76-2.8A9.183,9.183,0,0,1,0,9.545a9.244,9.244,0,0,1,2.785-6.76A9.244,9.244,0,0,1,9.545,0a9.183,9.183,0,0,1,6.742,2.785A9.213,9.213,0,0,1,19.09,9.545Z" transform="translate(0 0)" fill="none" stroke="red" stroke-linecap="round" stroke-linejoin="round" stroke-width="0.091"/>
          </g>
          <g id="Group_105593" data-name="Group 105593" transform="translate(9.551 18.054)">
            <g id="Group_105589" data-name="Group 105589" transform="translate(0 0)">
              <g id="Group_105588" data-name="Group 105588">
                <path id="Path_76176" data-name="Path 76176" d="M49.9,8.553A28.164,28.164,0,0,0,29.226,0,28.164,28.164,0,0,0,8.553,8.553,28.164,28.164,0,0,0,0,29.226,28.122,28.122,0,0,0,4.464,44.862l.025.125q10.5,14.691,25.436,16.633Q47.583,63.354,57.48,49.65l.648-15.685-.15.623a29.618,29.618,0,0,0,.474-5.361A28.164,28.164,0,0,0,49.9,8.553Z" fill="#80553c"/>
              </g>
            </g>
            <g id="Group_105592" data-name="Group 105592" transform="translate(20.473 12.887)">
              <g id="Group_105591" data-name="Group 105591" transform="translate(0 0)">
                <g id="Group_105590" data-name="Group 105590" transform="translate(0)">
                  <path id="Path_76177" data-name="Path 76177" d="M23.466,9.132a4.573,4.573,0,0,0,3.342-2.17,6.594,6.594,0,0,0,.9-1.87q.474,4.04,4.913,4.389a3.869,3.869,0,0,0,3.716-1.82,4.616,4.616,0,0,0,.923-3.242Q36.608,3.6,18.329,1.5,0-.618,0,.255A9.987,9.987,0,0,0,2.444,7.287,7.417,7.417,0,0,0,7.132,9.706a10.007,10.007,0,0,0,7.631-1.92,12.109,12.109,0,0,0,2.668-2.943,6.182,6.182,0,0,0,2.194,3.342A5.244,5.244,0,0,0,23.466,9.132Z" fill="#684633"/>
                </g>
              </g>
            </g>
          </g>
          <g id="Group_105600" data-name="Group 105600" transform="translate(18.877 61.195)">
            <g id="Group_105595" data-name="Group 105595" transform="translate(0 0)">
              <g id="Group_105594" data-name="Group 105594" transform="translate(0)">
                <path id="Path_76178" data-name="Path 76178" d="M7.331,24.488Q15.244,34.6,23.017,36.857t10.773.025Q40.147,26.413,45.934,17.63,51.722,8.877,47.43,0L0,1.072Q1.094,17.826,7.331,24.488Z" fill="#80553c"/>
              </g>
            </g>
            <g id="Group_105597" data-name="Group 105597" transform="translate(0 0)">
              <g id="Group_105596" data-name="Group 105596" transform="translate(0)">
                <path id="Path_76179" data-name="Path 76179" d="M7.331,24.488Q15.244,34.6,23.017,36.857t10.773.025Q40.147,26.413,45.934,17.63,51.722,8.877,47.43,0L0,1.072Q1.094,17.826,7.331,24.488Z" fill="#80553c"/>
              </g>
            </g>
            <g id="Group_105599" data-name="Group 105599" transform="translate(12.082 29.837)">
              <g id="Group_105598" data-name="Group 105598" transform="translate(0 0)">
                <path id="Path_76180" data-name="Path 76180" d="M25.523.86Q25.6.786,25.5.786h-.05L22.705,4.5l-.025.075-.025.05-.075.1q-.5.673-.648.848l-.7.7-.125.1-.05.05-.05.025-.349.274-.5.274-.524.175a2.723,2.723,0,0,1-.574.1H18.99l-.05.025h-.5l-5.287-.5-.075-.025h-.1L10.237,6.1l-.025-.025h-.05l-.748-.249a12.109,12.109,0,0,1-1.272-.449l-.623-.249-.15-.075-.075-.025-.075-.05L5.8,4.252q-.9-.5-1.995-1.2L2.182,1.933.137.087.087.012Q.062-.012.012.012q-.025.05,0,.075l.05.075L1.409,1.584,3.6,3.354q1.172.823,1.97,1.3A12.448,12.448,0,0,0,6.7,5.3l.274.175.075.025,2.17.948.673.224.075.05h.05l.05.025,2.768.773h.05l.025.025h.025L13,7.568l3.242.549q.5.05,1.446.15l1.446.05a4.089,4.089,0,0,0,1.471-.4l.623-.374.449-.4.075-.05.873-.948a7.673,7.673,0,0,0,.623-1.022l.15-.249.1-.224Z" fill="#9f7b67"/>
              </g>
            </g>
          </g>
          <g id="Group_105623" data-name="Group 105623" transform="translate(0 0)">
            <g id="Group_105602" data-name="Group 105602" transform="translate(8.504 37.496)">
              <g id="Group_105601" data-name="Group 105601" transform="translate(0 0)">
                <path id="Path_76181" data-name="Path 76181" d="M0,4.174q.224,4.613.7,8.279.249,1.9.524,3.391a7.607,7.607,0,0,1,6.035,2.444q3.391,3.217,4.439,9.227a116.674,116.674,0,0,0,.7-14.289A58.048,58.048,0,0,1,13.616.159q-1.5-.623-6.608,1.2Q6.259,1.605,0,4.174Z" transform="translate(0 0)" fill="url(#linear-gradient)"/>
              </g>
            </g>
            <g id="Group_105604" data-name="Group 105604" transform="translate(0 0.181)">
              <g id="Group_105603" data-name="Group 105603" transform="translate(0 0)">
                <path id="Path_76182" data-name="Path 76182" d="M48.9,1.64A7.955,7.955,0,0,0,45.859.268a11.647,11.647,0,0,0-5.087.025,6.714,6.714,0,0,0-3.815,2.868Q36.358.368,33.79.717T29.75,4.258a2.076,2.076,0,0,0-1.2-.673,2.294,2.294,0,0,0-1.4.2,3.516,3.516,0,0,0-1.3.923,2.459,2.459,0,0,0-.574,1.446,3.569,3.569,0,0,0-1.9-1.82,4.47,4.47,0,0,0-4.065.175,6.112,6.112,0,0,0-2.868,2.544,4.951,4.951,0,0,0-.549,3.242,11.36,11.36,0,0,0-4.289.6A7.227,7.227,0,0,0,8.1,13.036a12.067,12.067,0,0,0-2.519,4.888,9.546,9.546,0,0,0,.05,4.938,6.972,6.972,0,0,0-2.992,2.793A16.055,16.055,0,0,0,.274,30.442,7.27,7.27,0,0,0,1.1,36.2a40.278,40.278,0,0,0,2.868,4.314,7.008,7.008,0,0,0,1.372,5.137A9.6,9.6,0,0,0,9.1,49.17l.224-1.97A7.909,7.909,0,0,1,10.8,43.135a4.724,4.724,0,0,0,5.012,1.87A3.669,3.669,0,0,0,18.5,42.536a32.1,32.1,0,0,0,1.047-4.489,4.838,4.838,0,0,0,2.893,1.372A7.122,7.122,0,0,0,25.86,39a9.862,9.862,0,0,0,4.164-3.666q.623-1.446.948-2.319-.05,2.294,2.868,4.464A12.777,12.777,0,0,0,38.8,39.719a11.287,11.287,0,0,0,5.536-.673,8.009,8.009,0,0,0,3.491-3.516,5.359,5.359,0,0,0,3.217,2.319,6.415,6.415,0,0,0,4.289.274,3.8,3.8,0,0,0,1.82-1.247,4.1,4.1,0,0,0,.673-1.92,4.639,4.639,0,0,0,2.743,4.065,10.108,10.108,0,0,0,3.092.549,4.641,4.641,0,0,0,1.995-.474,3.658,3.658,0,0,0,1.5-1.621,6.3,6.3,0,0,0,4.588,1,6.181,6.181,0,0,0,5.187-3.741,7.106,7.106,0,0,0,.349-6.11,6.6,6.6,0,0,0-2.968-3.292,4.136,4.136,0,0,0,1.1-2.968,4.591,4.591,0,0,0-.574-2.294Q73.19,17.35,69.475,17.55A6.144,6.144,0,0,0,72.068,15.4a4.731,4.731,0,0,0,.973-4.364q-.7-2.444-3.79-3.217a9.692,9.692,0,0,0-5.736.3,5.513,5.513,0,0,0-.349-2.544,4.068,4.068,0,0,0-2.219-1.9,6.25,6.25,0,0,0-3.466-.5,4.043,4.043,0,0,0-2.618,1.571,2.991,2.991,0,0,0-1.7-1.147,1.807,1.807,0,0,0-1.3.274,2.217,2.217,0,0,0-.9.848A4.879,4.879,0,0,0,48.9,1.64Z" fill="#140e0e"/>
              </g>
            </g>
            <g id="Group_105608" data-name="Group 105608" transform="translate(0 0)">
              <g id="Group_105605" data-name="Group 105605" transform="translate(36.258 0)">
                <path id="Path_76183" data-name="Path 76183" d="M11.621,35.835l.025.05,1.446,1.546.673.5.673.374.075.05.075.025.623.274.5.15.175.025.175.05h.1l.05.025h.025l.748.05a6.274,6.274,0,0,0,1.521-.2l.175-.05.349-.15.1-.025h.025V38.5h.025l.025-.025.1-.025.025-.025.05-.025.1-.025L20.2,37.9l.274-.249a3.926,3.926,0,0,0,.5-.574l.374-.6.125-.324.025-.025v-.025l.025-.025.05-.15v-.025l.025-.05.05-.15v-.05l.025-.05v-.075l.125-.6v-.125l.025-.075v-.723l-.025-.125v-.125l-.025-.1-.1-.6-.1-.3-.025-.125-.05-.1-.025-.1-.075-.15v-.05l-.1.025.025.05v.249l.025.125v.973l-.025.125v.1l-.025.1v.125l-.05.224v.125l-.025.125-.025.05-.025.075-.05.224-.175.449v.025l-.025.025-.05.125v.025l-.025.05-.05.05-.025.075v.025l-.025.05-.474.7-.474.474-.424.3-.449.224-.025.025-.075.025-.05.025h-.025l-.075.025-.15.075-.15.05-.773.175-1.3.05-.025-.025h-.075l-.449-.075-.075-.025h-.075l-.15-.05-.15-.025-1.671-.7-1.8-1.172-.125-.1-.05-.025-.05.05m28.578-.3-.025.05-.249.249-.075.05-.075.1-.075.075-.324.274-.125.075-.549.4-.349.175-.075.05-.673.274a.6.6,0,0,1-.2.075l-.2.075-.1.05-.1.025-.125.05-.3.075-.075.025-.05.025-.224.05h-.025l-.025.025h-.075l-.224.05a4.978,4.978,0,0,1-.873.175l-.449.05-.05.025-1,.025-.2-.025h-.175l-.374-.05-.1-.025h-.075l-.9-.2-.524-.175-.125-.025-.025-.025-.05.075.05.025.249.249.274.2.549.3.15.1.175.075h.05l.05.025.474.175.424.1h.075l.05.025h.125l.224.05h.224l.075.025h.748l.05-.025h.125l.125-.025h.125l1.022-.2.05-.025h.05l.025-.025.224-.05.05-.025,1.222-.5L38.2,38l.1-.05.648-.449.449-.424a3.2,3.2,0,0,0,.424-.574l.1-.125.175-.324.125-.324.025-.125.025-.025-.075-.05M2.618,1.322l-.449.349-.1.1L2.02,1.8,1.2,2.643l-.025.05L1.1,2.768l-.274.4-.05.1-.05.075-.1.2-.05.075-.15.274L.05,4.962l-.025.15L0,5.162l.075.025L.1,5.137l.648-.873.05-.05.05-.075.125-.125.249-.3.05-.075.5-.5.05-.025.349-.3.075-.075.3-.224.05-.025.05-.05.5-.349.224-.125.125-.05.1-.075.125-.025.324-.175.075-.025.349-.15.075-.025.224-.1L5.511,1.1,6.932.773h.125l.1-.025L7.606.7h.1l.1-.025H8A2.534,2.534,0,0,1,8.4.648H9.825l.05.025L9.9.574H9.85L9.725.5l-.15-.05L9.476.4,8.254.075,7.83.025H7.706L7.606,0,6.085.025l-1.372.3-.823.3-.175.1L3.641.748l-1.022.574M18.678,7.93,18.628,8l-.025.05-.05.025.025.075.05-.025h.15l.05-.025h.05L19,8.08h.15l.1-.025h.623l.175.025.075.025h.05l.2.1H20.4l.05.025.025.025.05.025.274.249.125.175.025.025.025.05.05.05.025.05.05.075.05.1.05.05v.025l.05.1a1,1,0,0,1,.15.349v.05l.025.025v.1l.025.075v.05l.025.05V10.3l-.025.075V10.5l-.025.05v.05l-.025.075v.05l-.025.075.05.025.05-.025.05-.05.075-.05.05-.025.025-.05.1-.1.05-.075.025-.025.025-.05a1.619,1.619,0,0,0,.2-.374l.025-.05V9.9l.05-.125.025-.274V9.376l-.025-.15V9.152l-.025-.075-.025-.15-.025-.05-.05-.15v-.05l-.025-.025-.05-.15-.075-.125L21.845,8.3l-.025-.05-.05-.05v-.05h-.025V8.129H21.72l-.175-.249L21.3,7.631l-.125-.1L21.1,7.506l-.15-.1L20.7,7.331a.715.715,0,0,0-.324-.075,2.357,2.357,0,0,0-.574.025l-.125.05-.125.025-.324.15L19,7.656l-.125.125-.1.075-.05.05Z" transform="translate(0 0)" fill="#493f3f"/>
              </g>
              <g id="Group_105606" data-name="Group 105606" transform="translate(0 10.274)">
                <path id="Path_76184" data-name="Path 76184" d="M8.753,30.822l.075.1.075.15.05.075.05.1.973,1.347,1,1.047.1.075.1.1.05.025.05.05.7.5.7.349h.025l.773.249.848.15,1-.025.524-.1.075-.025h.05l.125-.05h.05l.1-.05h.025l.025-.025.2-.075.05-.025.05-.05.125-.05.449-.349.075-.075.1-.075.2-.2.05-.075.125-.125.374-.449.05-.1.075-.075.075-.15.075-.1q.025-.025-.025-.075h-.05l-.224.175-.1.05-.075.075-.349.224-.125.1-.424.274-.1.05-.075.05-.349.175-.1.025-.075.05-.05.025h-.05l-.1.025-.025.025h-.05l-.075.025H15.91l-.1.025h-.125a2.966,2.966,0,0,1-.449.025h-.474l-.948-.15-.125-.05-.6-.175-.05-.025h-.025l-.025-.025-.549-.249L10.7,32.318l-.15-.15-.175-.125-.848-.723-.05-.025-.249-.224L9.127,31l-.075-.075-.125-.075-.1-.1q-.025-.025-.075.025v.05M2.893,15.461q.075-.075-.025-.075h-.05L1.7,16.783.973,18.029l-.224.5-.025.025L.175,20.4l-.025.025v.05l-.025.1-.025.2v.1l-.025.1L0,21.745l.05,1.421.075.6.1.4.025.2.125.474.05.1.1.374.05.075.025.1.973,1.97,1.047,1.5.1.1.075.1L4.04,30.423h.075v-.075l-.574-.9-.1-.2-.249-.4-.075-.1L1.97,26.483l-.025-.075-.05-.075-.723-2.369-.025-.2-.025-.075v-.1L1.1,23.416l-.05-.175v-.2A3.7,3.7,0,0,1,1,22.319l-.025-.175v-.349L1,21.6v-.349l.025-.175V20.9l.025-.175.025-.1v-.075l.05-.349.05-.175.05-.324.2-.8.025-.075.025-.05v-.025l.3-.873,1.122-2.419M15.96.4a3.522,3.522,0,0,1,.474-.025l.923-.05a.044.044,0,0,0,.05-.05L17.381.249l-.524-.1L15.386,0,14.164.025l-1.845.3L11,.773l-.449.2L8.828,2.045,8.5,2.294l-1.3,1.3-.474.623v.025H6.708l-.025.025-.025.05-.125.175v.025l-.025.025L5.835,5.661l-.2.474a3.647,3.647,0,0,0-.349.948l-.075.224-.05.249-.075.224-.025.249-.025.05v.05l-.025.125v.125l-.075.574.1,1.7.249,1.072.05.15.075.15a4.772,4.772,0,0,0,.474.973l.524.8q.05.025.075,0v-.075l-.224-.474-.05-.175-.075-.175a6.237,6.237,0,0,1-.3-1l-.05-.15-.125-.823v-.175l-.025-.175.025-1.147.025-.1v-.1l.025-.1v-.1L5.885,8.2a5.211,5.211,0,0,1,.249-.848,8.174,8.174,0,0,1,.8-1.671l.05-.1.324-.474.05-.05.025-.05.075-.1.025-.05.025-.025V4.813h.025l.449-.574.075-.075A11.566,11.566,0,0,1,9.426,2.818l.748-.574.1-.05.274-.2,1.1-.574.1-.025.2-.1.6-.224.1-.025.1-.05,2.17-.5h.1l.075-.025.6-.05h.075L15.835.4h.125m17.78,17.98-.15-.1-.05-.05-.075-.025-.15-.1-.075.025v.05l.05.075.05.15.05.05.15.324.15.5v.05l.025.075.025.224v.5l-.05.274-.05.125V20.6l-.025.025v.025l-.025.075v.025l-.025.025-.05.175v.025L33.49,21l-.125.324-.3.424-.274.274-.449.274-.549.249-.1.025-.6.2h-.05l-.1.05-.075.025a.044.044,0,0,0-.05.05l.025.025.1.05.1.025h.05l.075.025.6.075a.324.324,0,0,0,.249,0h.15l.449-.075.5-.175.075-.05.075-.025.075-.05.1-.05.3-.249.374-.449.324-.623V21.3l.025-.05.05-.15v-.05l.025-.05.025-.1v-.05l.025-.05v-.1l.025-.175v-.549l-.025-.1V19.8l-.025-.1v-.05l-.025-.025-.1-.324-.05-.075-.025-.075-.025-.05-.125-.2-.05-.05-.025-.05-.1-.125Z" transform="translate(0 0)" fill="#493f3f"/>
              </g>
              <g id="Group_105607" data-name="Group 105607" transform="translate(32.717 7.456)">
                <path id="Path_76185" data-name="Path 76185" d="M1.621,0H1.272L.823.15l-.1.075L.3.623.05,1.072l-.025.1L0,1.222.025,1.3h.05l.05-.05L.2,1.222l.349-.2L.773.948.848.9,1.022.873,1.047.848h.1L1.172.823l.175.025H1.4l.05.025h.025l.15.075L1.7.973l.075.05.075.075.05.025.3.3.025.05.05.025.025.05.025.025.05.1.025.025.05.075.05.175.025.025v.1l.025.05v.1h.025v.4H2.544v.075l-.025.05v.025l-.025.05v.075l-.025.025-.224.4-.05.05.025.075h.1l.1-.025.1-.05.274-.175.05-.025.025-.025.05-.025.125-.125.075-.1V2.868l.025-.025.025-.075.075-.1.1-.3v-.1h.025V2.12l.025-.1V1.87L3.367,1.8l-.05-.349-.05-.15-.05-.075-.025-.075L2.943.773l-.15-.15A3.075,3.075,0,0,0,2.294.2L2.145.125Z" transform="translate(0 0)" fill="#493f3f"/>
              </g>
            </g>
            <g id="Group_105610" data-name="Group 105610" transform="translate(18.808 31.022)">
              <g id="Group_105609" data-name="Group 105609" transform="translate(0 0)">
                <path id="Path_76186" data-name="Path 76186" d="M12.114.025l-.05.224L11.99.823l-.274,1.122a.621.621,0,0,1-.075.274l-.274.873-.075.15-.05.15-.05.075-.05.15-.2.4a5.843,5.843,0,0,1-.773,1.247L9.7,5.835l-.05.025-.549.5-.05.025-.1.1-.1.05-.4.3-.7.4-.075.05-.1.025-.175.1-.274.1-.1.05-.1.025-.1.05-.574.175-.025.025h-.05L4.733,8.08A5.7,5.7,0,0,1,3.312,8L3.137,7.98l-.324-.1h-.1l-.025-.025h-.05L2.264,7.73l-.075-.05-.125-.05-.5-.274-.075-.025-.05-.05-.05-.025-.05-.05-.2-.15a5.5,5.5,0,0,1-.623-.623L.095,5.785q0-.075-.05-.025-.075,0-.025.05l.125.449.15.324.05.075.05.1.125.2.05.1.05.05.025.05.075.1.449.474.2.15.05.05.349.249.15.075.075.05.424.2.025.025h.05l.075.05.175.05.1.05.3.075a5.618,5.618,0,0,0,1.621.224L6.08,8.853,6.4,8.778l.05-.025h.075l.623-.2.125-.025.2-.1.1-.025L8.2,8.1q.2-.1.8-.449l.175-.15.2-.125.075-.075.175-.125.05-.05.05-.025.324-.3.15-.175.1-.075V6.534l.025-.025.05-.025.15-.175.05-.075.349-.449a7.17,7.17,0,0,0,.748-1.446l.05-.2.075-.175V3.94l.025-.05.175-.6.025-.175.05-.175.1-.623.1-1.471-.075-.8a.044.044,0,0,0-.05-.05Z" transform="translate(0)" fill="#493f3f"/>
              </g>
            </g>
            <g id="Group_105612" data-name="Group 105612" transform="translate(25.161 3.342)">
              <g id="Group_105611" data-name="Group 105611" transform="translate(0 0)">
                <path id="Path_76187" data-name="Path 76187" d="M2.843.025H2.768L2.593,0,2.419.025h-.15L2.095.05a2.794,2.794,0,0,0-.623.224H1.446L1.4.3l-.05.05L1.272.374,1.2.424,1.122.5H1.1L1.072.524.973.6.748.823l-.324.449L.3,1.5l-.175.449-.05.224-.025.05v.05l-.025.1L0,2.569v.673l.025.15v.1l.05.274.05.15.05.025L.2,3.89l.15-.748.05-.15V2.918l.075-.249L.7,2.17a2.444,2.444,0,0,1,.474-.623l.175-.175.05-.025.075-.075L1.6,1.2h.025l.05-.025L1.7,1.147l.1-.05H1.82l.025-.025.2-.05H2.07L2.095,1h.1l.05-.025h.324l.1.025a1.587,1.587,0,0,1,.424.1l.125.05h.05l.15.075.1.075h.05l.025.025.05.025.05.05h.05v.025h.025l.623.424.474.424.1.075.05.05.025.05.1.075.5.549.1.075,1.222,1.5.05.05.05.075.4.5.1.1q0,.025.075.025v-.05l-.175-.5L6.883,3.566a4.4,4.4,0,0,0-.474-.8l-.05-.1-.3-.424-.1-.1L5.411,1.5l-.9-.773L4.264.574V.549q0,.024-.025,0L4.214.524,4.14.5,4.09.449H4.065L4.04.424H4.015l-.3-.15-.15-.05L3.416.15,3.267.1h-.1L3.017.05H2.943Z" fill="#493f3f"/>
              </g>
            </g>
            <g id="Group_105614" data-name="Group 105614" transform="translate(3.868 40.521)">
              <g id="Group_105613" data-name="Group 105613" transform="translate(0 0)">
                <path id="Path_76188" data-name="Path 76188" d="M1.531,4.072l-.053-.086L.293.448.261.277.159,0,.086,0,.066.051.023.288l0,.1L0,.475l.025,1.84L.217,3.342l.034.1.015.12.153.429a4.262,4.262,0,0,0,.343.86L1.478,6.08l.089.087.017.052.036.035.159.191a5.6,5.6,0,0,0,.6.628l.142.14.734.546.09.053.053.052.271.126.108.071.632.271.036.035L4.488,8.3l-.036-.035L4.4,8.177l-.57-.559L3.742,7.5l-.107-.1-.106-.139-.107-.1-.547-.711L2.8,6.367l-.614-.952L2.1,5.226l-.158-.259-.052-.12-.105-.173Z" transform="translate(0 0)" fill="#493f3f"/>
              </g>
            </g>
            <g id="Group_105616" data-name="Group 105616" transform="translate(50.85 3.616)">
              <g id="Group_105615" data-name="Group 105615" transform="translate(0 0)">
                <path id="Path_76189" data-name="Path 76189" d="M3.982.923l-.253-.3L3.4.349l-.36-.2L2.915.125l-.1-.05L2.721.05H2.6L2.523.025h-.1L2.326,0h-.2l-.1.025h-.2l-.356.1-.335.15L.77.5.716.549l-.1.075-.082.1-.107.1-.057.1L.229,1.1.2,1.172a1.616,1.616,0,0,0-.14.224l-.03.075L0,1.521l.046.05L.1,1.546.176,1.5l.08-.075L.308,1.4l.078-.05L.44,1.3.6,1.2.8,1.1l.1-.025.206-.1.481-.1h.374L2.014.9h.075l.073.025h.075l.048.025.073.025h.075l.1.05.073.025.1.05.046.05.048.025L3,1.347l.277.324.045.075.046.05,0,.025.023.025.045.075.021.05h.025l0,.025.046.05L3.6,2.17l.041.125.046.05.081.274.021.05.02.075.021.05.02.075,0,.025.023.025.049.374.021.05-.012.175.009.224.018.1-.045.648.048.025.028-.05.055-.075.08-.075.06-.15.055-.075.03-.075.114-.2.092-.249L4.5,3.441l.005-.075.03-.075.035-.15.035-.5-.02-.075.007-.1-.038-.175.005-.075-.036-.2-.045-.075-.038-.175L4.359,1.6l-.018-.1-.023-.025,0-.025L4.3,1.421l-.045-.075-.043-.1-.045-.075L4.094,1.1Z" fill="#493f3f"/>
              </g>
            </g>
            <g id="Group_105618" data-name="Group 105618" transform="translate(57.746 30.299)">
              <g id="Group_105617" data-name="Group 105617" transform="translate(0 0)">
                <path id="Path_76190" data-name="Path 76190" d="M3.288.7,3.245.6,3.2.524,2.875.175l-.1-.05L2.708.075,2.661.025,2.613,0,2.56.05,2.6.15,2.6.224l.043.1L2.671.6l.02.075L2.686.748l.038.175L2.7,1.272l-.074.349L2.563,1.8l-.028.05,0,.025H2.508l0,.05-.028.05-.247.324-.08.075-.082.1-.027.025H2.015l-.267.249L1.7,2.768l-.027.025-.052.025,0,.025H1.592l-.078.05-.052.025-.027.025-.1.025-.078.05-.153.05H1l-.077.025L.75,3.117H.326L.153,3.092H.028L0,3.142l.048.025.021.05.139.15.309.224.1.025.193.1.123.025h.05l.073.025h.4L1.6,3.741l.077-.025h.075l.155-.075h.05l.027-.025.153-.05.053-.05.077-.025.21-.15.053-.05.078-.05.053-.05H2.69l0-.025.133-.125.325-.374.03-.075.055-.075.03-.075.055-.075.06-.15.027-.025,0-.05.03-.075.072-.324.01-.15-.043-.449L3.4.923,3.377.848,3.355.8Z" transform="translate(0 0)" fill="#493f3f"/>
              </g>
            </g>
            <g id="Group_105620" data-name="Group 105620" transform="translate(59.529 34.139)">
              <g id="Group_105619" data-name="Group 105619" transform="translate(0 0)">
                <path id="Path_76191" data-name="Path 76191" d="M.03,4.339,0,4.414l.048.025.378.3.121.05.046.05.193.1.071.05H.883l.193.1.727.3.221.05.1.05.344.075a7,7,0,0,0,1.015.1h.549l.126-.025h.224l.077-.025.126-.025h.15l.077-.025h.05l.153-.05h.1l.052-.025.126-.025.664-.224.621-.324.132-.1.13-.075.453-.424.384-.5a4.478,4.478,0,0,0,.445-1.022l.034-.125,0-.05.028-.05.009-.125.034-.125.059-.848L8.232.8,8.06.05l0-.05L7.987.025l0,.05L7.95.2,7.932.449,7.9.574,7.7,1.621l-.007.1-.342.973-.282.474L6.8,3.516l-.028.05-.052.025-.028.05-.027.025H6.636l-.213.2-.052.025-.08.075a3.826,3.826,0,0,1-.852.424l-.459.15h-.05l-.077.025-.126.025-.052.025H4.6l-.481.1H3.994l-.228.05H3.517l-.052.025H2.393l-.1-.025H2.2l-.939-.125-.171-.05-.517-.1-.121-.05h-.1L.2,4.389.078,4.364Z" transform="translate(0)" fill="#493f3f"/>
              </g>
            </g>
            <g id="Group_105622" data-name="Group 105622" transform="translate(15.735 4.065)">
              <g id="Group_105621" data-name="Group 105621" transform="translate(0 0)">
                <path id="Path_76192" data-name="Path 76192" d="M5.785,0H4.613L3.466.249l-.2.075-.623.3-.4.249-.673.549-.05.05-.025.05L1.322,1.7l-.15.2q-.05.075-.15.2l-.15.2-.025.025v.025l-.05.05-.474.948-.249.848-.05.424L0,4.713v.623l.05.3v.15l.175.673.05.1.05.025.025-.05.025-.1v-.15L.4,6.209v-.1l.025-.1v-.1L.6,5.062l.1-.324.075-.15.075-.274L.9,4.239l.025-.075.05-.1.05-.075V3.94l.324-.574.05-.075.05-.1.05-.075.05-.05.025-.05.05-.075.05-.05V2.868L1.7,2.843l.6-.723.05-.075.075-.05.224-.224.1-.05.075-.075L3.292,1.3l1-.549L4.738.574,4.888.5,5.162.4,5.287.374l.125-.05.3-.075L5.785.2,5.91.175l.125-.05L6.06.075,6.01.05Z" fill="#493f3f"/>
              </g>
            </g>
          </g>
          <g id="Group_105630" data-name="Group 105630" transform="translate(2.825 51.435)">
            <g id="Group_105625" data-name="Group 105625" transform="translate(0 4.031) rotate(-15.965)">
              <g id="Group_105624" data-name="Group 105624" transform="translate(0 0)">
                <path id="Path_76193" data-name="Path 76193" d="M12.041,3.125A6.547,6.547,0,0,0,7.4.058Q4.473-.407,2.116,2.875a12.8,12.8,0,0,0-2.095,8.2A16.1,16.1,0,0,0,2.59,19.408a15.841,15.841,0,0,0,5.162,5.037,35.355,35.355,0,0,0,4.514,1.82q.249-1.279,1.546-5.237a22.1,22.1,0,0,0,.6-9.6Q13.731,5.75,12.041,3.125Z" fill="#80553c"/>
              </g>
            </g>
            <g id="Group_105627" data-name="Group 105627" transform="translate(5.429 6.095)">
              <g id="Group_105626" data-name="Group 105626" transform="translate(0 0)">
                <path id="Path_76194" data-name="Path 76194" d="M.075,1.122l.3-.1.1-.05L.6.948l.274-.1H.948L1.222.773,1.4.748,1.5.723h.1l.4-.05L2.444.7l.449.1a4.121,4.121,0,0,1,.9.374l.449.324.2.175.05.025.349.349L5.76,3.192,6.883,5.037l.05.125,1.2,2.344.05.075.175.374.075.1.075.175.075.125q0,.075.05.025.075,0,.025-.05l-.075-.574-.3-1.222L7.356,3.99l-1.147-1.9-.9-.973a.27.27,0,0,1-.125-.1l-.4-.3-.7-.4L3.94.274,3.79.2,3.641.15l-.6-.125h-.15L2.743,0H2.469l-.9.15-.15.075h-.05l-.1.05-.2.075-.8.474L0,1.047v.075Z" fill="#684633"/>
              </g>
            </g>
            <g id="Group_105629" data-name="Group 105629" transform="translate(3.527 1.831)">
              <g id="Group_105628" data-name="Group 105628" transform="translate(0 0)">
                <path id="Path_76195" data-name="Path 76195" d="M4.147,0,3.174.175,2.7.324l-.075.05-.15.05L2.4.474l-.15.05-.075.05L2.1.6,1.678.873,1.628.9,1.553.973,1.5,1l-.025.025-.449.349-.524.623L.431,2.12l-.1.125-.3.549q-.075.075.025.075h.05L.68,2.344l.125-.075.1-.1.125-.075.125-.1.723-.424H1.9l.075-.05H2L2.027,1.5,2.5,1.322l.05-.025.15-.05.05-.025h.075l.15-.05h.05L3.1,1.147h.075l.075-.025H3.3L3.374,1.1l.15-.025h.125l.3-.05h.274q.272,0,.748.05L6.142,1.3l.274.075h.05l.025.025h.025l.723.274.723.4a1.236,1.236,0,0,1,.324.224l.1.05.075.05.075.075.1.05.075.075.075.05.474.4.9.948.05.1.075.075,1.247,1.82V6.01l.025.025.025.05.175.249,1.671,2.943q0,.075.05.025.075,0,.025-.05L11.927,5.81,11.9,5.785V5.76L10.83,3.915l-.125-.175-.05-.1L9.433,2.219l-.249-.224-.05-.025-.025-.025-.1-.075L8.935,1.8l-.1-.075L8.76,1.646,8.411,1.4A5.4,5.4,0,0,0,7.638.923l-.8-.4L6.815.5H6.79L6.64.424l-.648-.2a6.222,6.222,0,0,0-.9-.175A5.932,5.932,0,0,0,4.2,0Z" transform="translate(0)" fill="#9f7b67"/>
              </g>
            </g>
          </g>
          <g id="Group_105637" data-name="Group 105637" transform="translate(44.039 50.236)">
            <g id="Group_105632" data-name="Group 105632" transform="translate(0.086 0)">
              <g id="Group_105631" data-name="Group 105631" transform="translate(0 0)">
                <path id="Path_76196" data-name="Path 76196" d="M3.056,23.4q8.123,2.764,9.1-4.489l.1-1.5L9.34,14.3A35.677,35.677,0,0,1,8.468.984Q6.141-1.507,4.952,2.306L.563,18.964Q-1.311,22.709,3.056,23.4Z" fill="#80553c"/>
              </g>
            </g>
            <g id="Group_105634" data-name="Group 105634" transform="translate(7.295 1.034)">
              <g id="Group_105633" data-name="Group 105633" transform="translate(0 0)">
                <path id="Path_76197" data-name="Path 76197" d="M.011,8.728a30.858,30.858,0,0,0,.424,3.616q.331,1.719.374,1.8a15.965,15.965,0,0,1,2.244,2.194,4.962,4.962,0,0,1,.973,2.219q.238,1.3-1.222,3.441,2.464-2.2,2.643-3.965a2.588,2.588,0,0,0-1.421-2.668q-1.6-.925-2.469-1.5l.274-.524-.15-.224-.6.025.648-.05-1-5.187L.809,4.14,1.258,0A21.2,21.2,0,0,0,.311,3.99,27.645,27.645,0,0,0,.011,8.728Z" fill="#9f7b67"/>
              </g>
            </g>
            <g id="Group_105636" data-name="Group 105636" transform="translate(0 1.034)">
              <g id="Group_105635" data-name="Group 105635" transform="translate(0 0)">
                <path id="Path_76198" data-name="Path 76198" d="M8.129,3.616,8.1,8.129l.7,5.536a.419.419,0,0,0,.175.274v.025l.224.15,1.122,1.022,1.1,1.4.324.549.025.075a3.1,3.1,0,0,1,.3.623,2.811,2.811,0,0,1,.175.623l.025.449-.025.1V19l-.025.025-.025.075v.075l-.025.075-.05.075-.075.224a3.624,3.624,0,0,1-.8,1.022L10.7,21l-.05.05-.1.05-.075.05-.025.025-.05.025-.349.224-.1.025-.8.349-.748.224H8.329l-.175.05-.7.1h-.2l-.175.025h-1.1a14.046,14.046,0,0,1-1.446-.075,8.33,8.33,0,0,1-1.446-.2l-.175-.05-.175-.025-.274-.075-.075-.05-.324-.1-.424-.2L1.571,21.4l-.15-.1-.15-.075L.9,20.9a.666.666,0,0,1-.224-.249,2.6,2.6,0,0,1-.324-.6l-.075-.7L.4,18.628l.249-.7q.05-.05-.025-.05-.05-.05-.05.025a3.734,3.734,0,0,0-.349.673l-.2.648-.025.5.025.4.3.748.249.324.6.524q.05.05.075.05l.075.05.075.075.9.424.648.2a11.176,11.176,0,0,0,1.5.324q.524.075,1.521.15l1.347.025.2-.025h.2l.773-.1.1-.025h.1l.773-.2.2-.075.025-.025h.05l.748-.324.075-.05.374-.2.025-.025.05-.025.15-.1h.025V21.82H11.2l.05-.05a5.29,5.29,0,0,0,.648-.474l.574-.6a4.435,4.435,0,0,0,.449-.723l.1-.2.025-.1.05-.1.025-.1.05-.1.025-.125V19.2l.025-.05.025-.1v-.125l.025-.224-.025-.474a3.437,3.437,0,0,0-.249-.823l-.4-.823-.05-.075-.075-.175-.673-.973-1.047-1.172-.973-.823-.075-.05-.025-.025-.549-3.117L8.6,4.264,8.628.025,8.6,0l-.05.025Z" fill="#684633"/>
              </g>
            </g>
          </g>
          <g id="Group_105656" data-name="Group 105656" transform="translate(28.582 51.52)">
            <g id="Group_105642" data-name="Group 105642" transform="translate(29.542 4.828)">
              <g id="Group_105639" data-name="Group 105639" transform="translate(0 0)">
                <g id="Group_105638" data-name="Group 105638" transform="translate(0)">
                  <path id="Path_76199" data-name="Path 76199" d="M6.076,3.966a4.478,4.478,0,0,0-.9-2.814A2.623,2.623,0,0,0,3.038,0,2.662,2.662,0,0,0,.883,1.152,4.529,4.529,0,0,0,0,3.966a4.465,4.465,0,0,0,.883,2.8A2.653,2.653,0,0,0,3.038,7.932a2.614,2.614,0,0,0,2.14-1.167A4.415,4.415,0,0,0,6.076,3.966Z" fill="#231915"/>
                </g>
              </g>
              <g id="Group_105641" data-name="Group 105641" transform="translate(3.262 5.267)">
                <g id="Group_105640" data-name="Group 105640" transform="translate(0 0)">
                  <path id="Path_76200" data-name="Path 76200" d="M1.468.929A1.127,1.127,0,0,0,1.228.255.6.6,0,0,0,.7,0,.641.641,0,0,0,.2.285,1.156,1.156,0,0,0,0,.989a1.018,1.018,0,0,0,.239.659.627.627,0,0,0,.539.269.593.593,0,0,0,.494-.3A1.059,1.059,0,0,0,1.468.929Z" fill="#fff"/>
                </g>
              </g>
            </g>
            <g id="Group_105644" data-name="Group 105644" transform="translate(24.654 1.479)">
              <g id="Group_105643" data-name="Group 105643" transform="translate(0 0)">
                <path id="Path_76201" data-name="Path 76201" d="M11.588,6.1A5.24,5.24,0,0,0,10.5,3.863,15.373,15.373,0,0,0,3.953,0,30.387,30.387,0,0,0,0,6.277q2.012-.109,5.039.03A40.079,40.079,0,0,0,11.588,6.1Z" fill="#80553c"/>
              </g>
            </g>
            <g id="Group_105646" data-name="Group 105646" transform="translate(24.684 7.484)">
              <g id="Group_105645" data-name="Group 105645" transform="translate(0 0)">
                <path id="Path_76202" data-name="Path 76202" d="M8.9,0,8.691.03,5.7,0A3.321,3.321,0,0,1,5.19.03H2.474L2.263.06H1.479l-.091.03H1.117L.543.151.422.181H.332L.06.241,0,.3l.03.03.121.06L.3.422l.754.211.181.03H1.3v.03l.091.03,1.72.332h.121l.121.03,3.168.121.241-.03h.272l1.026-.121h.121L10.984.3l.091-.06.272-.121.03-.06-.06-.03L11.2,0Z" transform="translate(0)" fill="#231915"/>
              </g>
            </g>
            <g id="Group_105651" data-name="Group 105651" transform="translate(6.156 4.828)">
              <g id="Group_105648" data-name="Group 105648" transform="translate(0 0)">
                <g id="Group_105647" data-name="Group 105647" transform="translate(0)">
                  <path id="Path_76203" data-name="Path 76203" d="M6.076,3.966a4.478,4.478,0,0,0-.9-2.814A2.623,2.623,0,0,0,3.038,0,2.662,2.662,0,0,0,.883,1.152,4.529,4.529,0,0,0,0,3.966a4.465,4.465,0,0,0,.883,2.8A2.653,2.653,0,0,0,3.038,7.932a2.614,2.614,0,0,0,2.14-1.167A4.415,4.415,0,0,0,6.076,3.966Z" fill="#231915"/>
                </g>
              </g>
              <g id="Group_105650" data-name="Group 105650" transform="translate(3.262 5.267)">
                <g id="Group_105649" data-name="Group 105649" transform="translate(0 0)">
                  <path id="Path_76204" data-name="Path 76204" d="M1.468.929A1.127,1.127,0,0,0,1.228.255.6.6,0,0,0,.7,0,.641.641,0,0,0,.2.285,1.156,1.156,0,0,0,0,.989a1.018,1.018,0,0,0,.239.659.627.627,0,0,0,.539.269.593.593,0,0,0,.494-.3A1.059,1.059,0,0,0,1.468.929Z" fill="#fff"/>
                </g>
              </g>
            </g>
            <g id="Group_105653" data-name="Group 105653" transform="translate(0 0)">
              <g id="Group_105652" data-name="Group 105652">
                <path id="Path_76205" data-name="Path 76205" d="M7.152,0a15.98,15.98,0,0,0-1.72,1A16.11,16.11,0,0,0,0,6.91a11.955,11.955,0,0,1,2.474.362,16.477,16.477,0,0,0,5.462-.03,34.957,34.957,0,0,1,6.85-.181,4.312,4.312,0,0,0-1.448-2.806A66,66,0,0,0,7.152,0Z" fill="#80553c"/>
              </g>
            </g>
            <g id="Group_105655" data-name="Group 105655" transform="translate(0.091 6.85)">
              <g id="Group_105654" data-name="Group 105654" transform="translate(0 0)">
                <path id="Path_76206" data-name="Path 76206" d="M13.971.392l.121-.06.362-.121.03-.06-.06-.03-.151-.03L12.161.06a2.982,2.982,0,0,0-.513-.03H10.5A4.876,4.876,0,0,0,9.867,0L4.285.03,4.134.06H3.953a3.87,3.87,0,0,0-.573.03H2.806a3.321,3.321,0,0,1-.513.03,2.735,2.735,0,0,0-.483.03H1.177L1,.181H.513L.392.211H.181L.03.241,0,.3l.03.03L.935.6l.181.03.211.06,3.229.422H9.264a4.876,4.876,0,0,0,.634-.03l.332-.03h.151l.151-.03.875-.091Z" fill="#231915"/>
              </g>
            </g>
          </g>
          <g id="Group_105664" data-name="Group 105664" transform="translate(36.701 76.58)">
            <g id="Group_105659" data-name="Group 105659" transform="translate(1.052 0)">
              <g id="Group_105657" data-name="Group 105657" transform="translate(0 0)">
                <path id="Path_76207" data-name="Path 76207" d="M12.7,3.786A15.772,15.772,0,0,0,16.83,5.309q-1.355-3.167-2.648-4.062A8.536,8.536,0,0,0,10.591.05,6.944,6.944,0,0,0,5.985,1.174Q3.723,2.617,0,4.584a23.568,23.568,0,0,1,5.622-1.6A11.683,11.683,0,0,1,12.7,3.786Z" fill="#684633"/>
              </g>
              <g id="Group_105658" data-name="Group 105658" transform="translate(3.809 5.316)">
                <path id="Path_76208" data-name="Path 76208" d="M.145.21.29.283.4.319.472.392l2.539.979,1.306.363,2.5.363,2.358-.073,1.088-.181.073-.036h.109l.181-.073.689-.181.073-.036.145-.036.145-.073q.109,0,.036-.073,0-.109-.073-.036h-.29l-.109.036-3.3.109L2.285.609,1.668.428,1.487.392.472.1H.363L.073.029Q0-.044,0,.065L.036.138Z" transform="translate(0 0)" fill="#684633"/>
              </g>
            </g>
            <g id="Group_105661" data-name="Group 105661" transform="translate(0.453 2.371)">
              <g id="Group_105660" data-name="Group 105660" transform="translate(0 0)">
                <path id="Path_76209" data-name="Path 76209" d="M10.21,1.161l.218.036h.218l1.777.326.218.073.725.181q.109.036.363.109l3.446,1.233.145.036.218.109.218.073q.073.073.073-.036.073-.073-.036-.073l-.145-.145-.834-.58-2.14-1.124-.145-.109L12.895.653,12.677.617,12.5.544,12.06.435,11.879.363,9.92.036H9.449L9.34,0H7.962L7.853.036H7.635L7.418.073H7.236L3.972.689q-.218.073-.689.218l-.653.218a8.679,8.679,0,0,0-1.124.508L1.4,1.668l-.725.4-.653.508q-.036.073,0,.109H.127L.671,2.43l.181-.036,1.088-.4,2.793-.58h.181L5.1,1.378l2.612-.254.218-.036Z" transform="translate(0)" fill="#231915"/>
              </g>
            </g>
            <g id="Group_105663" data-name="Group 105663" transform="translate(0 3.459)">
              <g id="Group_105662" data-name="Group 105662" transform="translate(0 0)">
                <path id="Path_76210" data-name="Path 76210" d="M.4.109V.145L.29.29.218.363V.435L.181.472.145.58.073.725,0,1.016v.363l.073.363.145.326.073.109.181.181A.4.4,0,0,0,.725,2.5l.4.145h.109l.181.036h.109l.109-.109L1.56,2.5l-.073-.036L1.27,2.249H1.233l-.29-.326L.907,1.85.871,1.814V1.777L.689,1.306V1.161L.653,1.052V.181L.617.109V.073L.544,0,.435.109Z" fill="#684633"/>
              </g>
            </g>
          </g>
          <g id="Group_105667" data-name="Group 105667" transform="matrix(0.906, -0.424, 0.424, 0.906, 22.435, 49.007)">
            <g id="Group_105666" data-name="Group 105666" transform="translate(0 0)">
              <g id="Group_105665" data-name="Group 105665">
                <path id="Path_76211" data-name="Path 76211" d="M12.772.224A16.343,16.343,0,0,0,5.5.623a9.634,9.634,0,0,0-1.7.723A9.634,9.634,0,0,0,1.974,2.768a10.137,10.137,0,0,0-.688.748L0,5.461,2.034,4.089A15.852,15.852,0,0,1,8.973,2.668a22.223,22.223,0,0,1,6.311.823q2.124.6,2.542.324a.969.969,0,0,0,.419-1.222l-.03-.075a2.144,2.144,0,0,0-1.167-1.147A16.021,16.021,0,0,0,12.772.224Z" fill="#140e0e"/>
              </g>
            </g>
          </g>
          <g id="Group_105670" data-name="Group 105670" transform="matrix(-0.996, 0.085, -0.085, -0.996, 67.683, 56.656)">
            <g id="Group_105669" data-name="Group 105669" transform="translate(0 0)">
              <g id="Group_105668" data-name="Group 105668">
                <path id="Path_76212" data-name="Path 76212" d="M9.546,4.71a10.23,10.23,0,0,1-5.432-.359A6.611,6.611,0,0,1,2.839,3.7,7.564,7.564,0,0,1,1.475,2.422q-.266-.315-.514-.673L0,0,1.52,1.234A10.176,10.176,0,0,0,6.707,2.512a13.99,13.99,0,0,0,4.717-.74q1.587-.538,1.9-.292a.965.965,0,0,1,.313,1.1l-.022.067a1.8,1.8,0,0,1-.872,1.032A10.436,10.436,0,0,1,9.546,4.71Z" fill="#140e0e"/>
              </g>
            </g>
          </g>
          <g id="Group_105672" data-name="Group 105672" transform="translate(27.356 70.497)">
            <g id="Group_105671" data-name="Group 105671" transform="translate(0 0)">
              <path id="Path_76213" data-name="Path 76213" d="M2.992,2.244v.748h.748m-.748,0v.748m2.992-.748L2.992,5.985,0,2.992,2.992,0Zm-3.741,0h.748" fill="none" stroke="rgba(0,0,0,0)" stroke-linecap="round" stroke-linejoin="round" stroke-width="0.091"/>
            </g>
          </g>
        </g>
        <g id="Group_105682" data-name="Group 105682" transform="matrix(0.976, -0.218, 0.218, 0.976, 0, 181.954)">
          <g id="Group_105675" data-name="Group 105675" transform="matrix(0.978, 0.208, -0.208, 0.978, 13.525, 0)">
            <g id="Group_105674" data-name="Group 105674" transform="translate(0 0)">
              <path id="Path_76214" data-name="Path 76214" d="M19.658,7.331A36.3,36.3,0,0,0,16.84,0L.008,4.663q-.025,1.9.025,3.79A354.038,354.038,0,0,0,3.474,50.347a119.433,119.433,0,0,1,1.2,14.663l11.945.05a121.377,121.377,0,0,1,.7-19.126q1.076-8.349,2.369-21.171T19.658,7.331Z" fill="#80553c"/>
            </g>
          </g>
          <g id="Group_105677" data-name="Group 105677" transform="translate(4.515 59.281)">
            <g id="Group_105676" data-name="Group 105676" transform="translate(0 0)">
              <path id="Path_76215" data-name="Path 76215" d="M11.976,5.988A5.768,5.768,0,0,0,10.22,1.756,5.768,5.768,0,0,0,5.988,0,5.768,5.768,0,0,0,1.756,1.756,5.768,5.768,0,0,0,0,5.988,5.768,5.768,0,0,0,1.756,10.22a5.768,5.768,0,0,0,4.232,1.756A5.768,5.768,0,0,0,10.22,10.22,5.768,5.768,0,0,0,11.976,5.988Z" transform="translate(0 0)" fill="#80553c"/>
            </g>
          </g>
          <g id="Group_105679" data-name="Group 105679" transform="translate(5.419 8.308)">
            <g id="Group_105678" data-name="Group 105678" transform="translate(0 0)">
              <path id="Path_76216" data-name="Path 76216" d="M6.179,2.264,6.479.07q.05-.05-.025-.05Q6.4-.03,6.4.045L3.81,13.959,2.239,25.58.02,51.314q-.05.05.025.05l.05-.025L6.1,2.813Q6.154,2.439,6.179,2.264Z" fill="#684633"/>
            </g>
          </g>
          <g id="Group_105681" data-name="Group 105681" transform="translate(18.331 2.592)">
            <g id="Group_105680" data-name="Group 105680" transform="translate(0 0)">
              <path id="Path_76217" data-name="Path 76217" d="M2.992,2.244v.748H3.74m-.748,0V3.74m2.992-.748L2.992,5.985,0,2.992,2.992,0Zm-3.74,0h.748" fill="none" stroke="rgba(0,0,0,0)" stroke-linecap="round" stroke-linejoin="round" stroke-width="0.091"/>
            </g>
          </g>
        </g>
        <g id="Group_105687" data-name="Group 105687" transform="translate(7.8 236.041) rotate(4.796)">
          <g id="Group_105684" data-name="Group 105684" transform="translate(0 0)">
            <g id="Group_105683" data-name="Group 105683" transform="translate(0 0)">
              <path id="Path_76218" data-name="Path 76218" d="M4.465,18.952q-.025.075.2,1.7l.549-.524a4.482,4.482,0,0,0,.923-2.344Q5.512,10.1,5.612,1.845A56.8,56.8,0,0,0,4.465,18.952M11.372.623q-.15.723-.3,1.421A60.214,60.214,0,0,0,10.724,18.9q.2,1.771.549,3.566A4.363,4.363,0,0,0,12.844,19.5a4.157,4.157,0,0,0-.125-.6,81.3,81.3,0,0,1-1.4-16.658q0-.823.05-1.621M0,9.75a16.076,16.076,0,0,1,.9,1.8q-.025-1.3-.025-4.514A25.734,25.734,0,0,1,2.071,0,16.4,16.4,0,0,0,.924,3.366,14.2,14.2,0,0,1,.475,4.888,18.963,18.963,0,0,0,0,9.75Z" transform="translate(0.967 18.328)" fill="#684633"/>
              <path id="Path_76219" data-name="Path 76219" d="M16.479,0q-.4,0-.8.025L15.606.15q-.05.025-.05.05A9.194,9.194,0,0,0,9.023,5.561Q7.377,8.129,5.332,12.069q-.449.723-.948,1.421a6.764,6.764,0,0,0-.424.723q-.723,1.072-1.272,2.02A19.864,19.864,0,0,0,.1,21.869q-.4,1.771.873,6.209a18.963,18.963,0,0,1,.474-4.863,14.2,14.2,0,0,0,.449-1.521,16.4,16.4,0,0,1,1.147-3.366,25.734,25.734,0,0,0-1.2,7.032q0,3.217.025,4.514l.025,1.945q.1.673.274,1.4.424,1.995.748,4.04l.075.1q1.421,2.693,2.643,1.621-.224-1.621-.2-1.7A56.8,56.8,0,0,1,6.579,20.174q-.1,8.254.524,15.935.025.6.075,1.172.224,2.095.7,4.688,2.943,2.02,4.364-1.172-.349-1.8-.549-3.566a60.214,60.214,0,0,1,.349-16.857q.15-.7.3-1.421-.05.8-.05,1.621a81.3,81.3,0,0,0,1.4,16.658,4.157,4.157,0,0,1,.125.6q.274,1.072.8,2.793,4.239-.574,5.212-3.491a8.915,8.915,0,0,0-.15-4.638q-1.7-9.551-.025-13.665,1.621-.4,1.421,4.115-.349,5.037,1.621,6.459a4.2,4.2,0,0,0,5.162.1q-1.82-8.429-1-12.643.8-4.214.823-4.314-.4-1.022-.873-1.995a49.9,49.9,0,0,0-2.743-5.137q-.549-.9-1.072-1.6A8.831,8.831,0,0,0,19.5.873a2.235,2.235,0,0,0-.4-.2A5.341,5.341,0,0,0,16.479,0Z" fill="#80553c"/>
            </g>
          </g>
          <g id="Group_105686" data-name="Group 105686" transform="translate(14.284 2.918)">
            <g id="Group_105685" data-name="Group 105685" transform="translate(0 0)">
              <path id="Path_76220" data-name="Path 76220" d="M2.992,2.244v.748H3.74m-.748,0V3.74m2.992-.748L2.992,5.985,0,2.992,2.992,0Zm-3.741,0h.748" transform="translate(0)" fill="none" stroke="rgba(0,0,0,0)" stroke-linecap="round" stroke-linejoin="round" stroke-width="0.091"/>
            </g>
          </g>
        </g>
      </g>
    </g>
  </g>
</svg>
