<svg xmlns="http://www.w3.org/2000/svg" xmlns:xlink="http://www.w3.org/1999/xlink" width="375" height="270" viewBox="0 0 375 270">
  <defs>
    <clipPath id="clip-path">
      <rect id="Rectangle_8676" data-name="Rectangle 8676" width="375" height="270" transform="translate(16824 -12887)" fill="#fff" stroke="#707070" stroke-width="1" opacity="0.59"/>
    </clipPath>
    <clipPath id="clip-path-2">
      <path id="Path_76497" data-name="Path 76497" d="M0,0H254V214H97.188l-5.654,39.937H36.08L28.357,214H0Z" transform="translate(42 120)" fill="#fff"/>
    </clipPath>
    <linearGradient id="linear-gradient" x1="0.543" y1="0.993" x2="0.511" y2="0.105" gradientUnits="objectBoundingBox">
      <stop offset="0" stop-color="#4d4343"/>
      <stop offset="1" stop-color="#252020"/>
    </linearGradient>
  </defs>
  <g id="Mask_Group_16637" data-name="Mask Group 16637" transform="translate(-16824 12887)" clip-path="url(#clip-path)">
    <g id="Mask_Group_16630" data-name="Mask Group 16630" transform="translate(16824 -12987)" clip-path="url(#clip-path-2)">
      <g id="male_teen_DS_6" data-name="male teen DS 6" transform="translate(56.953 123.874)">
        <g id="Group_106118" data-name="Group 106118" transform="matrix(-0.129, 0.992, -0.992, -0.129, 231.643, 119.396)">
          <g id="Group_106107" data-name="Group 106107" transform="translate(0.027 0)">
            <g id="Group_106106" data-name="Group 106106" transform="translate(0 0)">
              <path id="Path_76412" data-name="Path 76412" d="M30.231,42.928,9.124,47.545Q4.649,27.4.467,12.944H.495A10.26,10.26,0,0,1,0,9.729,9.355,9.355,0,0,1,2.831,2.858,9.4,9.4,0,0,1,9.729,0,9.31,9.31,0,0,1,16.6,2.858a9.452,9.452,0,0,1,2.281,3.49A185.286,185.286,0,0,1,30.231,42.928Z" transform="translate(0)" fill="#80553c"/>
            </g>
          </g>
          <g id="Group_106110" data-name="Group 106110" transform="translate(6.733 34.528)">
            <g id="Group_106109" data-name="Group 106109" transform="translate(0 0)">
              <g id="Group_106108" data-name="Group 106108" transform="translate(0 0)">
                <path id="Path_76413" data-name="Path 76413" d="M2.528,12.109,0,2.381Q12.3-1.63,22.013,1.116L23.992,9.8Z" fill="#684633"/>
              </g>
            </g>
          </g>
          <g id="Group_106112" data-name="Group 106112" transform="translate(0 36.357)">
            <g id="Group_106111" data-name="Group 106111" transform="translate(0 0)">
              <path id="Path_76414" data-name="Path 76414" d="M20.887,55.929a15.531,15.531,0,0,1-4.535-8.712h-.027Q12.624,29.443,0,8.494,11.872-5,36.607,2.943A110.87,110.87,0,0,1,48.2,41.748a17.037,17.037,0,0,1,.22,2.776A15.542,15.542,0,0,1,43.7,55.929a15.542,15.542,0,0,1-11.405,4.727A15.542,15.542,0,0,1,20.887,55.929Z" fill="#7a2230"/>
            </g>
          </g>
          <g id="Group_106115" data-name="Group 106115" transform="translate(0.742 36.341)">
            <g id="Group_106114" data-name="Group 106114" transform="translate(0 0)">
              <g id="Group_106113" data-name="Group 106113">
                <path id="Path_76415" data-name="Path 76415" d="M35.755,3.042q7.936,15.621,10.086,27.867t1.4,18.248Q42.708,15.052,32.842,6.23,23-2.62,0,7.769,11.623-4.861,35.755,3.042Z" fill="#4b0f18"/>
              </g>
            </g>
          </g>
          <g id="Group_106117" data-name="Group 106117" transform="translate(28.994 77.583)">
            <g id="Group_106116" data-name="Group 106116" transform="translate(0 0)">
              <path id="Path_76416" data-name="Path 76416" d="M3.3,4.122V3.3h.824M3.3,3.3V2.473M6.6,3.3,3.3,0,0,3.3,3.3,6.6Zm-4.122,0H3.3" fill="none" stroke="rgba(0,0,0,0)" stroke-linecap="round" stroke-linejoin="round" stroke-width="0.083"/>
            </g>
          </g>
        </g>
        <g id="Group_106127" data-name="Group 106127" transform="translate(206.534 53.12) rotate(7.349)">
          <g id="Group_106120" data-name="Group 106120" transform="matrix(0.978, -0.208, 0.208, 0.978, 0, 8.398)">
            <g id="Group_106119" data-name="Group 106119" transform="translate(0 0)">
              <path id="Path_76417" data-name="Path 76417" d="M21.665,63.621a40.01,40.01,0,0,1-3.105,8.08L.009,66.561q-.027-2.089.027-4.177a390.179,390.179,0,0,1,3.793-46.17A131.624,131.624,0,0,0,5.148.055L18.312,0a133.767,133.767,0,0,0,.769,21.079q1.186,9.2,2.611,23.332T21.665,63.621Z" transform="translate(0)" fill="#80553c"/>
            </g>
          </g>
          <g id="Group_106122" data-name="Group 106122" transform="translate(4.976 0)">
            <g id="Group_106121" data-name="Group 106121" transform="translate(0 0)">
              <path id="Path_76418" data-name="Path 76418" d="M13.2,6.6a6.357,6.357,0,0,1-1.935,4.664A6.357,6.357,0,0,1,6.6,13.2a6.357,6.357,0,0,1-4.664-1.935A6.357,6.357,0,0,1,0,6.6,6.357,6.357,0,0,1,1.935,1.935,6.357,6.357,0,0,1,6.6,0a6.357,6.357,0,0,1,4.664,1.935A6.357,6.357,0,0,1,13.2,6.6Z" fill="#80553c"/>
            </g>
          </g>
          <g id="Group_106124" data-name="Group 106124" transform="translate(5.972 12.768)">
            <g id="Group_106123" data-name="Group 106123" transform="translate(0 0)">
              <path id="Path_76419" data-name="Path 76419" d="M6.81,54.112l.33,2.418q.055.055-.027.055-.055.055-.055-.027L4.2,41.223,2.468,28.416.022.055Q-.033,0,.049,0L.1.027l6.623,53.48Q6.783,53.92,6.81,54.112Z" fill="#684633"/>
            </g>
          </g>
          <g id="Group_106126" data-name="Group 106126" transform="translate(20.202 69.079)">
            <g id="Group_106125" data-name="Group 106125" transform="translate(0 0)">
              <path id="Path_76420" data-name="Path 76420" d="M3.3,4.122V3.3h.824M3.3,3.3V2.473M6.6,3.3,3.3,0,0,3.3,3.3,6.6Zm-4.122,0H3.3" transform="translate(0 0)" fill="none" stroke="rgba(0,0,0,0)" stroke-linecap="round" stroke-linejoin="round" stroke-width="0.083"/>
            </g>
          </g>
        </g>
        <g id="Group_106132" data-name="Group 106132" transform="matrix(0.305, -0.952, 0.952, 0.305, 186.772, 65.28)">
          <g id="Group_106129" data-name="Group 106129" transform="translate(0 0)">
            <g id="Group_106128" data-name="Group 106128">
              <path id="Path_76421" data-name="Path 76421" d="M9.618.3a3.966,3.966,0,0,1-.055,4.946Q9.508,4.7,9.4,4.15A2.732,2.732,0,0,0,7.172,1.731L9.618.3M2.336,12.723a18.114,18.114,0,0,0-.247,4.782H2.006A15.266,15.266,0,0,0,.687,11.459l.6-1.649L0,8.794q2.528.467,2.748-3.71,1.869.22-.055,5.359a7.505,7.505,0,0,1-.357,2.281M21.49,1.044a6.171,6.171,0,0,0,.824.6q5.3,1.9,4.644,7.447-.027.165-.055.357l-2.226,6.128a37.683,37.683,0,0,0,.934-4.122,15.929,15.929,0,0,0,.55-3.655Q26.3,5.5,25.31,4.672a8.931,8.931,0,0,1-1.264-1.237l-.44,1.072-.22-.11a3.086,3.086,0,0,0-.495-1.7q-.385-.522-.769-.989-.055-.055-.44-.412-.275-.247-.714-.632.3.22.522.385M16.955.467a3.56,3.56,0,0,1,.495,3.6V4.04q-.495-.385-.55-.6A4.421,4.421,0,0,0,15,.962L16.571,0Q16.763.247,16.955.467Z" transform="translate(2.229 0.36)" fill="#684633"/>
              <path id="Path_76422" data-name="Path 76422" d="M19.679,4.427a3.56,3.56,0,0,0-.495-3.6Q18.992.608,18.8.36A4.26,4.26,0,0,1,23.719,1.4Q23.5,1.24,23.2,1.02q.44.385.714.632.385.357.44.412.385.467.769.989a3.086,3.086,0,0,1,.495,1.7l.22.11.44-1.072a8.931,8.931,0,0,0,1.264,1.237q.989.824.852,3.133a15.929,15.929,0,0,1-.55,3.655,37.682,37.682,0,0,1-.934,4.122l2.226-6.128a3.649,3.649,0,0,1,2.418,1.621,1.849,1.849,0,0,1,.3.385,1.473,1.473,0,0,1,.11,1.017l-2.83,8.024q-7.09,12.229-13.768,12.2-9.371-2.528-10.8-12.586a22.966,22.966,0,0,1-.247-2.611,18.114,18.114,0,0,1,.247-4.782A7.505,7.505,0,0,0,4.922,10.8q1.924-5.139.055-5.359-.22,4.177-2.748,3.71l1.292,1.017-.6,1.649a15.266,15.266,0,0,1,1.319,6.046Q.773,16.6.5,13.963.25,11.325.031,10.088a5.423,5.423,0,0,1,.824-3.16A4.527,4.527,0,0,1,1.1,6.543,7.456,7.456,0,0,1,3.356,4.318q.137-.165.275-.3A5.7,5.7,0,0,1,8.907,1.954a4.979,4.979,0,0,1,.495.137A2.732,2.732,0,0,1,11.627,4.51q.11.55.165,1.1A3.966,3.966,0,0,0,11.847.663l1.621-.22a4.422,4.422,0,0,1,3.765.879A4.421,4.421,0,0,1,19.13,3.8q.055.22.55.6Z" fill="#80553c"/>
            </g>
          </g>
          <g id="Group_106131" data-name="Group 106131" transform="translate(12.864 23.279)">
            <g id="Group_106130" data-name="Group 106130" transform="translate(0 0)">
              <path id="Path_76423" data-name="Path 76423" d="M3.3,4.122V3.3h.824M3.3,3.3V2.473M6.6,3.3,3.3,0,0,3.3,3.3,6.6Zm-4.122,0H3.3" fill="none" stroke="rgba(0,0,0,0)" stroke-linecap="round" stroke-linejoin="round" stroke-width="0.083"/>
            </g>
          </g>
        </g>
        <g id="Group_106142" data-name="Group 106142" transform="translate(94.783 162.211) rotate(5.091)">
          <g id="Group_106134" data-name="Group 106134" transform="translate(0 34.52)">
            <g id="Group_106133" data-name="Group 106133" transform="translate(0 0)">
              <path id="Path_76424" data-name="Path 76424" d="M83.992,58.486A354.718,354.718,0,0,0,80.254,0L8.795,3.078A390.378,390.378,0,0,1,0,59.146Q39.491,74.309,83.992,58.486Z" fill="#ede6de"/>
            </g>
          </g>
          <g id="Group_106136" data-name="Group 106136" transform="translate(8.569 2.206)">
            <g id="Group_106135" data-name="Group 106135" transform="translate(0 0)">
              <path id="Path_76425" data-name="Path 76425" d="M0,36.131A34.818,34.818,0,0,0,10.575,61.687,34.818,34.818,0,0,0,36.131,72.262,34.818,34.818,0,0,0,61.687,61.687,34.818,34.818,0,0,0,72.262,36.131,34.818,34.818,0,0,0,61.687,10.575,34.818,34.818,0,0,0,36.131,0,34.818,34.818,0,0,0,10.575,10.575,34.818,34.818,0,0,0,0,36.131Z" transform="translate(0)" fill="#ede6de"/>
            </g>
          </g>
          <g id="Group_106139" data-name="Group 106139" transform="translate(0.055 0)">
            <g id="Group_106138" data-name="Group 106138" transform="translate(0 0)">
              <g id="Group_106137" data-name="Group 106137">
                <path id="Path_76426" data-name="Path 76426" d="M43.233,9.565q.852-.028,1.732-.027.879.11,1.759.247a4.732,4.732,0,0,1,.522-.027,39.064,39.064,0,0,1-.495-7.448,9.121,9.121,0,0,1,.137-1.237A10.091,10.091,0,0,1,47.108,0l-.495,1.567A37.255,37.255,0,0,0,24.351,6.816l-7.173,7.476A59.4,59.4,0,0,0,10.856,25.2,50.993,50.993,0,0,0,8.685,35.839,448.006,448.006,0,0,1,0,93.858,46.811,46.811,0,0,0,7.366,96.25q4.525,1.127,7.118,1.9a37.876,37.876,0,0,0,6.459,1.264q3.868.5,8,1.264a40.428,40.428,0,0,0,8.355.715q4.26-.078,6.047-.137t7.311-.412A70.876,70.876,0,0,0,60.74,99.548q4.437-.77,7.613-1.594,3.206-.825,3.958-1.044.745-.193,1.484-.412.742-.247,1.484-.467-.577.11-1.127.247-4.507.88-9.18,1.4-3.326.385-6.706.715a119.839,119.839,0,0,1-12.285.412,65.6,65.6,0,0,1-7.613-.6,62.14,62.14,0,0,1-10.719-2.446,24.1,24.1,0,0,1-7.5-4.15A14.453,14.453,0,0,1,15.2,83.882a38.646,38.646,0,0,1-1.072-6.239,93.531,93.531,0,0,1-.357-11.323q.137-4.26.412-8.575.165-2.941.467-5.882.36-3.3.632-7.86.293-4.562,1.182-9.977A32.836,32.836,0,0,1,19.9,23.911a22.026,22.026,0,0,1,7.063-7.778A45.211,45.211,0,0,1,33.5,12.34,29.754,29.754,0,0,1,43.233,9.565Z" fill="#dad0c5"/>
              </g>
            </g>
          </g>
          <g id="Group_106141" data-name="Group 106141" transform="translate(38.698 97.954)">
            <g id="Group_106140" data-name="Group 106140" transform="translate(0 0)">
              <path id="Path_76427" data-name="Path 76427" d="M3.3,2.474V3.3h.825M3.3,3.3v.825M6.6,3.3,3.3,6.6,0,3.3,3.3,0Zm-4.123,0H3.3" transform="translate(0 0)" fill="none" stroke="rgba(0,0,0,0)" stroke-linecap="round" stroke-linejoin="round" stroke-width="0.083"/>
            </g>
          </g>
        </g>
        <g id="Group_106167" data-name="Group 106167" transform="translate(75.87 123.29) rotate(-5.564)">
          <g id="Group_106144" data-name="Group 106144" transform="translate(31.195 0)">
            <g id="Group_106143" data-name="Group 106143" transform="translate(0 0)">
              <path id="Path_76428" data-name="Path 76428" d="M33.256,19.736,35.977,6.708a31.059,31.059,0,0,0-8.96-5.14A28.274,28.274,0,0,0,17.975,0,30.318,30.318,0,0,0,.632,5.224L0,19.736Z" fill="#80553c"/>
            </g>
          </g>
          <g id="Group_106146" data-name="Group 106146" transform="translate(8.658 3.217)">
            <g id="Group_106145" data-name="Group 106145" transform="translate(0 0)">
              <path id="Path_76429" data-name="Path 76429" d="M76.956,21.74a19.144,19.144,0,0,0-2.913-9.62q-2.652-4.2-9.07-6.761a55.933,55.933,0,0,1-8.795-4.123Q53.936,7.2,46.613,11.461q-7.292,4.288-12.78-1.319Q28.367,4.562,26.99,3.381A11.731,11.731,0,0,1,24.434,0a45.652,45.652,0,0,0-5.772,1.594Q13.826,3.113,8.987,4.7A57.376,57.376,0,0,0,0,8.575L7.256,84.212q2.858-3.9,5.992-7.558,2.8-3.271,5.882-6.349l1.154-1.154,1.154-1.1q2.226-2.034,4.617-3.875a46.3,46.3,0,0,1,9.207-5.414A29.232,29.232,0,0,1,44.3,56.453a27.666,27.666,0,0,1,8.932.8A33.688,33.688,0,0,1,62,61.1a40.728,40.728,0,0,1,5.469,4.013,58.438,58.438,0,0,1,4.837,4.672,72.727,72.727,0,0,1,6.761,8.383Z" fill="#ede6de"/>
            </g>
          </g>
          <g id="Group_106148" data-name="Group 106148" transform="translate(0.275 9.786)">
            <g id="Group_106147" data-name="Group 106147" transform="translate(0 0)">
              <path id="Path_76430" data-name="Path 76430" d="M32.267,16.133A15.543,15.543,0,0,0,27.539,4.727,15.543,15.543,0,0,0,16.133,0,15.543,15.543,0,0,0,4.727,4.727,15.543,15.543,0,0,0,0,16.133,15.543,15.543,0,0,0,4.727,27.539a15.543,15.543,0,0,0,11.406,4.727,15.543,15.543,0,0,0,11.406-4.727A15.543,15.543,0,0,0,32.267,16.133Z" transform="translate(0 0)" fill="#ede6de"/>
            </g>
          </g>
          <g id="Group_106151" data-name="Group 106151" transform="translate(11.351 39.002)">
            <g id="Group_106150" data-name="Group 106150" transform="translate(0 0)">
              <g id="Group_106149" data-name="Group 106149">
                <path id="Path_76431" data-name="Path 76431" d="M14.347,0Q.027,2.336,0,2.309L4.507,48.7l9.647-11.873Z" fill="#dad0c5"/>
              </g>
            </g>
          </g>
          <g id="Group_106156" data-name="Group 106156" transform="translate(0 3.63)">
            <g id="Group_106153" data-name="Group 106153" transform="translate(0 0)">
              <g id="Group_106152" data-name="Group 106152">
                <path id="Path_76432" data-name="Path 76432" d="M32.981,22.537A79.063,79.063,0,0,1,38.093,5.772L31.662,0A141.644,141.644,0,0,0,10.994,6.844Q.533,11.1,0,23.252q1.463,9.232,8.41,13.11l.522.275q.35.195.687.357.075.033.137.055l.467.192a14.882,14.882,0,0,0,4.535,1.1,16.411,16.411,0,0,0,1.649.082A15.543,15.543,0,0,0,27.814,33.7,15.169,15.169,0,0,0,28.968,32.4Q31.863,29.267,32.981,22.537Z" fill="#7a2230"/>
              </g>
            </g>
            <g id="Group_106155" data-name="Group 106155" transform="translate(63.159 1.099)">
              <g id="Group_106154" data-name="Group 106154" transform="translate(0 0)">
                <path id="Path_76433" data-name="Path 76433" d="M11.049,10.114q5.259,4.175,8.877,12.78,1.687,3.98,2.941,7.558a74.042,74.042,0,0,1-.11-8.685,22.047,22.047,0,0,0-.467-5.937q-.225-2.744-3.243-5.964a20.623,20.623,0,0,0-6.9-5.277A55.851,55.851,0,0,1,2.584,0L0,4.178A32.959,32.959,0,0,1,11.049,10.114Z" fill="#7a2230"/>
              </g>
            </g>
          </g>
          <g id="Group_106158" data-name="Group 106158" transform="translate(47.658 4.344)">
            <g id="Group_106157" data-name="Group 106157" transform="translate(0 0)">
              <path id="Path_76434" data-name="Path 76434" d="M10.774,4.123l-.165.082-.522.33L7.7,5.717,4.15,6.816l-.165.027L3.82,6.9.055,7.5H.027L0,7.558l.027.027.22.055,1.484.11.137.027,1.9-.055.357-.055h.192l1.539-.275,1.622-.467A12.837,12.837,0,0,0,9.1,6.294l.8-.412L12.34,4.233l2.144-2.171L15.419.742,15.529.6l.192-.357.11-.165Q15.858.055,15.8,0h-.055l-.137.165-1.154,1.1-.11.082-.33.3-.11.082-.22.22Z" fill="#684633"/>
            </g>
          </g>
          <g id="Group_106160" data-name="Group 106160" transform="translate(39.083 12.645)">
            <g id="Group_106159" data-name="Group 106159" transform="translate(0 0)">
              <path id="Path_76435" data-name="Path 76435" d="M17.563,1.732l-.6.247-.22.055a18.532,18.532,0,0,1-1.841.577q-.825.22-.962.247l-1.484.3h-.137l-.11.027-2.336.165-.137.027-.11-.027H8.85L7.338,3.216l-2.556-.55L2.006,1.649.989,1.154.77,1.072.6.962.082.715Q0,.632,0,.742V.8L1.677,2.254l.137.082.6.44L4.865,4.04H4.92l1.1.385.137.027.11.055.275.055a11.508,11.508,0,0,0,2.171.385,14.118,14.118,0,0,0,2.309.027l.852-.082,2.446-.522.275-.082.11-.055.137-.027.522-.192a18.226,18.226,0,0,0,1.869-.8l1.567-.88a13.539,13.539,0,0,0,1.264-.852l1.7-1.4V0h-.082L20.091.715l-.082.027-.6.275-.165.055-.165.082-1.292.522Z" fill="#dad0c5"/>
            </g>
          </g>
          <g id="Group_106162" data-name="Group 106162" transform="translate(30.123 1.98)">
            <g id="Group_106161" data-name="Group 106161" transform="translate(0 0)">
              <path id="Path_76436" data-name="Path 76436" d="M23.114,13.853A19.965,19.965,0,0,0,31.8,9.785a17.47,17.47,0,0,0,2.831-3A9.534,9.534,0,0,0,36.224,3.3Q36,1.9,34.905,1.815a2.3,2.3,0,0,0-2.089,1.292A18.965,18.965,0,0,1,29.326,6.79,11.408,11.408,0,0,1,25.67,8.768a24.958,24.958,0,0,1-4.123.934,16.042,16.042,0,0,1-9.482-1.127A15.815,15.815,0,0,1,5.03,2.584,5.549,5.549,0,0,0,3.82.743,2.506,2.506,0,0,0,1.951,0Q.852,0,0,1.568A26.962,26.962,0,0,0,4.343,8.659a14.984,14.984,0,0,0,9.18,5.277A23.18,23.18,0,0,0,23.114,13.853Z" transform="translate(0 0)" fill="#7a2230"/>
            </g>
          </g>
          <g id="Group_106164" data-name="Group 106164" transform="translate(30.211 3.663)">
            <g id="Group_106163" data-name="Group 106163" transform="translate(0 0)">
              <path id="Path_76437" data-name="Path 76437" d="M20.278,12.665q1.044-.11,2.5-.357l2.913-.77,1.649-.715.33-.192q.082,0,.027-.055,0-.082-.055-.027l-.11.027-.44.165-.22.055-.137.055-.44.11q-.33.11-1.567.385L18.9,11.84l-3.188-.192-2.556-.495-1.429-.44A20.374,20.374,0,0,1,9.009,9.5L7.773,8.762q-.687-.467-1.154-.852l-.165-.082-.11-.11L6.069,7.5,3.512,4.969.1.049Q.1-.033.049.022q-.082,0-.027.055L.572,1.4q.467.989.742,1.457l1.1,1.841A20.66,20.66,0,0,0,3.952,6.7l.962,1.017a12.35,12.35,0,0,0,1.072.962A13.427,13.427,0,0,0,7.2,9.614l1.292.825,2.886,1.319a25.188,25.188,0,0,0,3.078.77l.742.11,3.71.137Z" fill="#4b0f18"/>
            </g>
          </g>
          <g id="Group_106166" data-name="Group 106166" transform="translate(48.62 83.197)">
            <g id="Group_106165" data-name="Group 106165" transform="translate(0 0)">
              <path id="Path_76438" data-name="Path 76438" d="M3.3,2.474V3.3h.825M3.3,3.3v.825M6.6,3.3,3.3,6.6,0,3.3,3.3,0Zm-4.123,0H3.3" fill="none" stroke="rgba(0,0,0,0)" stroke-linecap="round" stroke-linejoin="round" stroke-width="0.083"/>
            </g>
          </g>
        </g>
        <g id="Group_106186" data-name="Group 106186" transform="translate(88.37 109.655) rotate(55.09)">
          <g id="Group_106169" data-name="Group 106169" transform="translate(1.319 50.596)">
            <g id="Group_106168" data-name="Group 106168" transform="translate(0 0)">
              <path id="Path_76439" data-name="Path 76439" d="M19.1,39.163A229.837,229.837,0,0,0,26.246,4.177L5.442,0Q2.133,18.189,0,36.085Z" fill="#80553c"/>
            </g>
          </g>
          <g id="Group_106171" data-name="Group 106171" transform="translate(1.292 77.557)">
            <g id="Group_106170" data-name="Group 106170" transform="translate(0 0)">
              <path id="Path_76440" data-name="Path 76440" d="M19.458,9.729a9.4,9.4,0,0,0-2.858-6.9A9.355,9.355,0,0,0,9.729,0a9.446,9.446,0,0,0-6.9,2.831A9.446,9.446,0,0,0,0,9.729,9.355,9.355,0,0,0,2.831,16.6a9.4,9.4,0,0,0,6.9,2.858A9.31,9.31,0,0,0,16.6,16.6,9.31,9.31,0,0,0,19.458,9.729Z" transform="translate(0)" fill="#80553c"/>
            </g>
          </g>
          <g id="Group_106174" data-name="Group 106174" transform="translate(5.277 47.161)">
            <g id="Group_106173" data-name="Group 106173" transform="translate(0 0)">
              <g id="Group_106172" data-name="Group 106172">
                <path id="Path_76441" data-name="Path 76441" d="M1.731,0,0,11.3A32.269,32.269,0,0,0,21.244,15.28L23.086,4.837Z" fill="#684633"/>
              </g>
            </g>
          </g>
          <g id="Group_106176" data-name="Group 106176" transform="translate(17.424 0)">
            <g id="Group_106175" data-name="Group 106175" transform="translate(0 0)">
              <path id="Path_76442" data-name="Path 76442" d="M32.265,16.132A15.542,15.542,0,0,0,27.538,4.727,15.542,15.542,0,0,0,16.132,0,15.542,15.542,0,0,0,4.727,4.727,15.542,15.542,0,0,0,0,16.132,15.542,15.542,0,0,0,4.727,27.538a15.542,15.542,0,0,0,11.405,4.727,15.542,15.542,0,0,0,11.405-4.727A15.542,15.542,0,0,0,32.265,16.132Z" transform="translate(0)" fill="#7a2230"/>
            </g>
          </g>
          <g id="Group_106178" data-name="Group 106178" transform="translate(0.055 4.397)">
            <g id="Group_106177" data-name="Group 106177" transform="translate(0 0)">
              <path id="Path_76443" data-name="Path 76443" d="M37.816,53.317Q43.6,28.6,49.194,15.528L22.426,0Q12.972,8.327,0,47.051,13.082,61.259,37.816,53.317Z" fill="#7a2230"/>
            </g>
          </g>
          <g id="Group_106181" data-name="Group 106181" transform="translate(0 8.052)">
            <g id="Group_106180" data-name="Group 106180" transform="translate(0 0)">
              <g id="Group_106179" data-name="Group 106179">
                <path id="Path_76444" data-name="Path 76444" d="M11.928,12.477A270.194,270.194,0,0,0,0,43.45q12.574,13.862,36.937,6.431Q9.509,51.448,5.909,41.5,3.71,35.453,19.183,0A70.67,70.67,0,0,0,11.928,12.477Z" fill="#4b0f18"/>
              </g>
            </g>
          </g>
          <g id="Group_106183" data-name="Group 106183" transform="translate(40.405 21.717)">
            <g id="Group_106182" data-name="Group 106182" transform="translate(0 0)">
              <path id="Path_76445" data-name="Path 76445" d="M8.129.049,7.745.6l-.11.192-.165.22L6.783,2.166,6.7,2.331,6.59,2.5,4.2,7.662,1.616,15.99.049,25.306l-.027.3q-.055.055.027.055L.1,25.636,4.749,9.119,7.168,2.55l.055-.192L7.855.9l.11-.192L8.212.077Q8.267.022,8.184.022,8.129-.033,8.129.049Z" fill="#4b0f18"/>
            </g>
          </g>
          <g id="Group_106185" data-name="Group 106185" transform="translate(30.259 12.835)">
            <g id="Group_106184" data-name="Group 106184" transform="translate(0 0)">
              <path id="Path_76446" data-name="Path 76446" d="M3.3,2.473V3.3h.824M3.3,3.3v.824M6.6,3.3,3.3,6.6,0,3.3,3.3,0Zm-4.122,0H3.3" fill="none" stroke="rgba(0,0,0,0)" stroke-linecap="round" stroke-linejoin="round" stroke-width="0.083"/>
            </g>
          </g>
        </g>
        <g id="Group_106195" data-name="Group 106195" transform="translate(0 175.423) rotate(-28.136)">
          <g id="Group_106188" data-name="Group 106188" transform="matrix(0.978, 0.208, -0.208, 0.978, 14.906, 0)">
            <g id="Group_106187" data-name="Group 106187" transform="translate(0 0)">
              <path id="Path_76447" data-name="Path 76447" d="M21.666,8.08A40.011,40.011,0,0,0,18.56,0L.009,5.139Q-.018,7.228.037,9.317A390.194,390.194,0,0,0,3.829,55.488a131.629,131.629,0,0,1,1.319,16.16l13.164.055a133.773,133.773,0,0,1,.77-21.079q1.186-9.2,2.611-23.333T21.666,8.08Z" transform="translate(0)" fill="#80553c"/>
            </g>
          </g>
          <g id="Group_106190" data-name="Group 106190" transform="translate(4.977 65.335)">
            <g id="Group_106189" data-name="Group 106189" transform="translate(0 0)">
              <path id="Path_76448" data-name="Path 76448" d="M13.2,6.6a6.357,6.357,0,0,0-1.935-4.664A6.357,6.357,0,0,0,6.6,0,6.357,6.357,0,0,0,1.935,1.935,6.357,6.357,0,0,0,0,6.6a6.358,6.358,0,0,0,1.935,4.664A6.358,6.358,0,0,0,6.6,13.2a6.357,6.357,0,0,0,4.664-1.935A6.357,6.357,0,0,0,13.2,6.6Z" transform="translate(0 0)" fill="#80553c"/>
            </g>
          </g>
          <g id="Group_106192" data-name="Group 106192" transform="translate(5.972 9.156)">
            <g id="Group_106191" data-name="Group 106191" transform="translate(0 0)">
              <path id="Path_76449" data-name="Path 76449" d="M6.81,2.5,7.14.077Q7.2.022,7.113.022q-.055-.055-.055.027L4.2,15.385,2.468,28.192.022,56.555q-.055.055.027.055L.1,56.582,6.728,3.1Q6.783,2.688,6.81,2.5Z" fill="#684633"/>
            </g>
          </g>
          <g id="Group_106194" data-name="Group 106194" transform="translate(20.203 2.857)">
            <g id="Group_106193" data-name="Group 106193" transform="translate(0 0)">
              <path id="Path_76450" data-name="Path 76450" d="M3.3,2.473V3.3h.824M3.3,3.3v.824M6.6,3.3,3.3,6.6,0,3.3,3.3,0Zm-4.122,0H3.3" fill="none" stroke="rgba(0,0,0,0)" stroke-linecap="round" stroke-linejoin="round" stroke-width="0.083"/>
            </g>
          </g>
        </g>
        <g id="Group_106200" data-name="Group 106200" transform="translate(45.777 251.108) rotate(-116.889)">
          <g id="Group_106197" data-name="Group 106197" transform="translate(0 0)">
            <g id="Group_106196" data-name="Group 106196" transform="translate(0 0)">
              <path id="Path_76451" data-name="Path 76451" d="M3.419,17.6l.048.024L3.443,17.6H3.419M14.986,9v3.346Q5.626,14.161,0,11.955q2.449,4.2,14.67,1.867.412,3.08,1.382,3.734a37.727,37.727,0,0,1-12.367.1Q14.378,20,17.289,18.768q.485.242,2.3-.412.849-.315,1.528-.509a8.487,8.487,0,0,1-3.516-.582q-.994-.388-1.528-3.734,0-1.115.048-2.595a11.221,11.221,0,0,0-.582-3.565A15.594,15.594,0,0,0,10.281,0,25.9,25.9,0,0,1,12.44,3.468H9.19a10.946,10.946,0,0,1,5.262,4.171Q14.695,8.245,14.986,9Z" transform="translate(0.436 11.256)" fill="#684633"/>
              <path id="Path_76452" data-name="Path 76452" d="M16.489,28.812q-.97-.655-1.382-3.734Q2.886,27.405.436,23.21.218,24.253,0,25.32a5.277,5.277,0,0,0,3.856,3.54H3.88l.024.024a30.029,30.029,0,0,0,9.336,2.861A10.977,10.977,0,0,0,21.557,29.1q-.679.194-1.528.509-1.819.655-2.3.412-2.911,1.227-13.6-1.115a37.726,37.726,0,0,0,12.367-.1M15.422,23.6V20.252q-.291-.752-.533-1.358a10.946,10.946,0,0,0-5.262-4.171h3.249a25.9,25.9,0,0,0-2.158-3.468,15.594,15.594,0,0,1,5.262,7.372,11.221,11.221,0,0,1,.582,3.565q-.049,1.479-.048,2.595.533,3.346,1.528,3.734a8.487,8.487,0,0,0,3.516.582l.727-.145.145-.073a5.932,5.932,0,0,0,.606-.364.822.822,0,0,0,.412-.606,11.476,11.476,0,0,0-.412-3.08l-.946-4.268a27.848,27.848,0,0,1,.267-11.979q.994-4-1.115-6.28Q19.181.125,14.695,0,5.723-.311.436,23.21,6.062,25.417,15.422,23.6Z" fill="#80553c"/>
            </g>
          </g>
          <g id="Group_106199" data-name="Group 106199" transform="translate(13.306 3.183)">
            <g id="Group_106198" data-name="Group 106198" transform="translate(0 0)">
              <path id="Path_76453" data-name="Path 76453" d="M3.3,2.474V3.3h.825M3.3,3.3v.825M6.6,3.3,3.3,6.6,0,3.3,3.3,0Zm-4.123,0H3.3" fill="none" stroke="rgba(0,0,0,0)" stroke-linecap="round" stroke-linejoin="round" stroke-width="0.083"/>
            </g>
          </g>
        </g>
        <g id="Group_106205" data-name="Group 106205" transform="translate(113.749 73.433)">
          <g id="Group_106202" data-name="Group 106202" transform="translate(0 0)">
            <g id="Group_106201" data-name="Group 106201">
              <path id="Path_76454" data-name="Path 76454" d="M-8.512-82.239l.082-6.9a15.875,15.875,0,0,1-2.584-1.044,37.361,37.361,0,0,1-5.14-3.271,45.045,45.045,0,0,1-4.645-4.04,25.046,25.046,0,0,1-3.82-4.947q-1.677-2.8-2.941-5.415a48.447,48.447,0,0,1-2.309-5.607l-.715,30.893Z" transform="translate(30.583 132.042)" fill="#80553c"/>
              <path id="Path_76455" data-name="Path 76455" d="M-7.182-159.731h-.137a10.076,10.076,0,0,0-3.051-6.679,10.114,10.114,0,0,0-7.421-3.078,10.237,10.237,0,0,0-7.476,3.078,10.192,10.192,0,0,0-3.051,7.448q0,.3.027.6l-.137,7.448a48.448,48.448,0,0,0,2.309,5.607q1.264,2.611,2.941,5.415a25.046,25.046,0,0,0,3.82,4.947,45.045,45.045,0,0,0,4.645,4.04,37.36,37.36,0,0,0,5.14,3.271,15.875,15.875,0,0,0,2.584,1.044Z" transform="translate(29.142 169.489)" fill="#684633"/>
            </g>
          </g>
          <g id="Group_106204" data-name="Group 106204" transform="translate(6.844 52.908)">
            <g id="Group_106203" data-name="Group 106203" transform="translate(0 0)">
              <path id="Path_76456" data-name="Path 76456" d="M-6.647-7.472v.825h.825m-.825,0v.825m3.3-.825-3.3,3.3-3.3-3.3,3.3-3.3Zm-4.123,0h.825" transform="translate(9.946 9.946)" fill="none" stroke="rgba(0,0,0,0)" stroke-linecap="round" stroke-linejoin="round" stroke-width="0.083"/>
            </g>
          </g>
        </g>
        <g id="Group_106290" data-name="Group 106290" transform="matrix(0.995, 0.102, -0.102, 0.995, 100.062, 0)">
          <g id="Group_106206" data-name="Group 106206" transform="translate(22.939 70.473)">
            <path id="Path_76457" data-name="Path 76457" d="M21.041,10.52a10.088,10.088,0,0,1-3.089,7.431,10.088,10.088,0,0,1-7.431,3.089,10.154,10.154,0,0,1-7.451-3.089A10.121,10.121,0,0,1,0,10.52,10.188,10.188,0,0,1,3.069,3.069,10.188,10.188,0,0,1,10.52,0a10.121,10.121,0,0,1,7.431,3.069A10.154,10.154,0,0,1,21.041,10.52Z" transform="translate(0 0)" fill="none" stroke="red" stroke-linecap="round" stroke-linejoin="round" stroke-width="0.083"/>
          </g>
          <g id="Group_106212" data-name="Group 106212" transform="translate(10.527 19.899)">
            <g id="Group_106208" data-name="Group 106208" transform="translate(0 0)">
              <g id="Group_106207" data-name="Group 106207" transform="translate(0 0)">
                <path id="Path_76458" data-name="Path 76458" d="M55,9.427A31.042,31.042,0,0,0,32.212,0,31.042,31.042,0,0,0,9.427,9.427,31.042,31.042,0,0,0,0,32.212,31,31,0,0,0,4.92,49.445l.027.137Q16.522,65.775,32.982,67.915q19.462,1.912,30.371-13.193l.715-17.288-.165.687a32.646,32.646,0,0,0,.522-5.909A31.042,31.042,0,0,0,55,9.427Z" fill="#80553c"/>
              </g>
            </g>
            <g id="Group_106211" data-name="Group 106211" transform="translate(22.565 14.204)">
              <g id="Group_106210" data-name="Group 106210" transform="translate(0 0)">
                <g id="Group_106209" data-name="Group 106209" transform="translate(0 0)">
                  <path id="Path_76459" data-name="Path 76459" d="M25.863,10.065a5.04,5.04,0,0,0,3.683-2.391,7.267,7.267,0,0,0,.989-2.061q.522,4.453,5.415,4.837a4.264,4.264,0,0,0,4.1-2.006,5.087,5.087,0,0,0,1.017-3.573Q40.348,3.964,20.2,1.655,0-.681,0,.281A11.007,11.007,0,0,0,2.694,8.031,8.175,8.175,0,0,0,7.861,10.7a11.029,11.029,0,0,0,8.41-2.116,13.346,13.346,0,0,0,2.941-3.243,6.814,6.814,0,0,0,2.419,3.683A5.78,5.78,0,0,0,25.863,10.065Z" fill="#684633"/>
                </g>
              </g>
            </g>
          </g>
          <g id="Group_106217" data-name="Group 106217" transform="translate(20.806 67.448)">
            <g id="Group_106214" data-name="Group 106214" transform="translate(0 0)">
              <g id="Group_106213" data-name="Group 106213" transform="translate(0 0)">
                <path id="Path_76460" data-name="Path 76460" d="M8.081,26.99Q16.8,38.14,25.368,40.623t11.873.027q7.007-11.539,13.385-21.218Q57.006,9.784,52.276,0L0,1.182Q1.206,19.647,8.081,26.99Z" fill="#80553c"/>
              </g>
            </g>
            <g id="Group_106216" data-name="Group 106216" transform="translate(13.316 32.886)">
              <g id="Group_106215" data-name="Group 106215" transform="translate(0 0)">
                <path id="Path_76461" data-name="Path 76461" d="M28.131.948Q28.213.866,28.1.866h-.055l-3.023,4.1L25,5.043,24.97,5.1l-.082.11q-.55.742-.715.934l-.77.77-.137.11-.055.055-.055.027-.385.3-.55.3-.577.192a3,3,0,0,1-.632.11H20.93l-.055.027h-.55L14.5,7.49l-.082-.027h-.11L11.283,6.72l-.027-.027H11.2l-.825-.275a13.346,13.346,0,0,1-1.4-.495l-.687-.275-.165-.082-.082-.027-.082-.055-1.567-.8q-.989-.55-2.2-1.319L2.4,2.13.151.1.1.014Q.069-.014.014.014-.014.069.014.1L.069.179,1.553,1.745,3.972,3.7Q5.263,4.6,6.143,5.126a13.721,13.721,0,0,0,1.237.715l.3.192.082.027L10.156,7.1l.742.247.082.055h.055l.055.027,3.051.852H14.2l.027.027h.027l.082.027,3.573.6q.55.055,1.594.165l1.594.055a4.507,4.507,0,0,0,1.622-.44l.687-.412.495-.44.082-.055.962-1.044a8.456,8.456,0,0,0,.687-1.127l.165-.275.11-.247Z" fill="#9f7b67"/>
              </g>
            </g>
          </g>
          <g id="Group_106240" data-name="Group 106240" transform="translate(0 0)">
            <g id="Group_106219" data-name="Group 106219" transform="translate(9.372 41.327)">
              <g id="Group_106218" data-name="Group 106218" transform="translate(0 0)">
                <path id="Path_76462" data-name="Path 76462" d="M0,4.6q.247,5.085.77,9.125.275,2.089.577,3.738Q4.81,17.133,8,20.157,11.736,23.7,12.89,30.326a128.6,128.6,0,0,0,.77-15.749A63.979,63.979,0,0,1,15.007.175Q13.358-.512,7.723,1.495,6.9,1.769,0,4.6Z" fill="url(#linear-gradient)"/>
              </g>
            </g>
            <g id="Group_106221" data-name="Group 106221" transform="translate(0 0.199)">
              <g id="Group_106220" data-name="Group 106220" transform="translate(0 0)">
                <path id="Path_76463" data-name="Path 76463" d="M53.9,1.807A8.768,8.768,0,0,0,50.545.3a12.837,12.837,0,0,0-5.607.027,7.4,7.4,0,0,0-4.205,3.161Q40.073.406,37.242.79t-4.453,3.9a2.288,2.288,0,0,0-1.319-.742,2.528,2.528,0,0,0-1.539.22A3.876,3.876,0,0,0,28.5,5.188a2.711,2.711,0,0,0-.632,1.594,3.934,3.934,0,0,0-2.089-2.006,4.926,4.926,0,0,0-4.48.192,6.737,6.737,0,0,0-3.161,2.8,5.457,5.457,0,0,0-.6,3.573,12.52,12.52,0,0,0-4.727.66,7.965,7.965,0,0,0-3.875,2.364,13.3,13.3,0,0,0-2.776,5.387A10.522,10.522,0,0,0,6.212,25.2q-1.457.467-3.3,3.078A17.7,17.7,0,0,0,.3,33.552,8.013,8.013,0,0,0,1.209,39.9,44.392,44.392,0,0,0,4.37,44.656a7.724,7.724,0,0,0,1.512,5.662,10.582,10.582,0,0,0,4.15,3.875l.247-2.171a8.717,8.717,0,0,1,1.622-4.48A5.206,5.206,0,0,0,17.425,49.6a4.043,4.043,0,0,0,2.968-2.721,35.374,35.374,0,0,0,1.154-4.947,5.333,5.333,0,0,0,3.188,1.512A7.849,7.849,0,0,0,28.5,42.98a10.869,10.869,0,0,0,4.59-4.04q.687-1.594,1.044-2.556-.055,2.529,3.161,4.92a14.083,14.083,0,0,0,5.469,2.474,12.44,12.44,0,0,0,6.1-.742,8.827,8.827,0,0,0,3.848-3.875q.77,1.567,3.546,2.556a7.07,7.07,0,0,0,4.727.3A4.184,4.184,0,0,0,63,40.643a4.519,4.519,0,0,0,.742-2.116,5.113,5.113,0,0,0,3.023,4.48,11.14,11.14,0,0,0,3.408.6,5.116,5.116,0,0,0,2.2-.522A4.031,4.031,0,0,0,74.017,41.3a6.943,6.943,0,0,0,5.057,1.1,6.812,6.812,0,0,0,5.717-4.123,7.832,7.832,0,0,0,.385-6.734A7.28,7.28,0,0,0,81.9,27.918a4.559,4.559,0,0,0,1.209-3.271,5.06,5.06,0,0,0-.632-2.529q-1.814-3-5.909-2.776a6.771,6.771,0,0,0,2.858-2.364,5.215,5.215,0,0,0,1.072-4.81q-.77-2.694-4.178-3.546A10.682,10.682,0,0,0,70,8.953a6.077,6.077,0,0,0-.385-2.8,4.483,4.483,0,0,0-2.446-2.089,6.888,6.888,0,0,0-3.82-.55,4.456,4.456,0,0,0-2.886,1.732A3.3,3.3,0,0,0,58.6,3.979a1.991,1.991,0,0,0-1.429.3,2.443,2.443,0,0,0-.989.934A5.378,5.378,0,0,0,53.9,1.807Z" fill="#140e0e"/>
              </g>
            </g>
            <g id="Group_106225" data-name="Group 106225" transform="translate(0 0)">
              <g id="Group_106222" data-name="Group 106222" transform="translate(39.963 0)">
                <path id="Path_76464" data-name="Path 76464" d="M12.808,39.5l.027.055,1.594,1.7.742.55.742.412.082.055.082.027.687.3.55.165.192.027.192.055h.11l.055.027h.027l.825.055a6.916,6.916,0,0,0,1.677-.22l.192-.055.385-.165.11-.027h.027v-.027h.027l.027-.027.11-.027.027-.027.055-.027.11-.027.8-.522.3-.275a4.326,4.326,0,0,0,.55-.632l.412-.66.137-.357.027-.027V39.8l.027-.027.055-.165v-.027l.027-.055.055-.165V39.3l.027-.055v-.082l.137-.66v-.137l.027-.082v-.8l-.027-.137v-.137l-.027-.11-.11-.66-.11-.33-.027-.137-.055-.11-.027-.11-.082-.165v-.055l-.11.027.027.055V35.9l.027.137V37.1l-.027.137v.11l-.027.11V37.6l-.055.247v.137l-.027.137-.027.055-.027.082-.055.247L23.087,39v.027l-.027.027L23,39.193v.027l-.027.055-.055.055-.027.082v.027l-.027.055-.522.77-.522.522-.467.33-.495.247-.027.027-.082.027-.055.027h-.027l-.082.027-.165.082-.165.055L19.4,41.8l-1.429.055-.027-.027h-.082l-.495-.082-.082-.027h-.082l-.165-.055-.165-.027-1.841-.77-1.979-1.292-.137-.11-.055-.027-.055.055m31.5-.33-.027.055L44,39.5l-.082.055-.082.11-.082.082-.357.3-.137.082-.6.44-.385.192-.082.055-.742.3a.664.664,0,0,1-.22.082l-.22.082-.11.055-.11.027-.137.055-.33.082-.082.027-.055.027-.247.055h-.027l-.027.027H39.8l-.247.055a5.485,5.485,0,0,1-.962.192l-.495.055-.055.027L36.94,42l-.22-.027h-.192l-.412-.055-.11-.027h-.082l-.989-.22-.577-.192-.137-.027-.027-.027-.055.082.055.027.275.275.3.22.6.33.165.11.192.082h.055l.055.027.522.192.467.11h.082l.055.027H37.1l.247.055H37.6l.082.027h.825l.055-.027H38.7l.137-.027h.137l1.127-.22.055-.027h.055l.027-.027.247-.055.055-.027,1.347-.55.22-.137.11-.055.715-.495.495-.467a3.53,3.53,0,0,0,.467-.632L44,40.1l.192-.357.137-.357.027-.137.027-.027-.082-.055M2.886,1.457l-.495.385-.11.11-.055.027-.907.934-.027.055-.082.082-.3.44L.852,3.6.8,3.683l-.11.22-.055.082-.165.3L.055,5.469l-.027.165L0,5.689l.082.027L.11,5.662.825,4.7.88,4.645l.055-.082.137-.137.275-.33L1.4,4.013l.55-.55.055-.027.385-.33.082-.082.33-.247.055-.027.055-.055.55-.385.247-.137.137-.055.11-.082L4.1,2.006l.357-.192.082-.027.385-.165L5,1.594l.247-.11.825-.275L7.641.852h.137l.11-.027L8.383.77h.11L8.6.742h.22a2.793,2.793,0,0,1,.44-.027h1.567l.055.027.027-.11h-.055L10.719.55,10.554.495,10.444.44,9.1.082,8.63.027H8.493L8.383,0,6.706.027,5.195.357l-.907.33L4.1.8,4.013.825l-1.127.632m17.7,7.283-.055.082-.027.055-.055.027.027.082.055-.027H20.7l.055-.027h.055l.137-.027h.165l.11-.027h.687l.192.027.082.027h.055l.22.11h.027l.055.027.027.027.055.027.3.275.137.192.027.027.027.055.055.055.027.055.055.082.055.11.055.055v.027l.055.11a1.1,1.1,0,0,1,.165.385v.055l.027.027v.11l.027.082v.055l.027.055v.412l-.027.082v.137l-.027.055v.055l-.027.082v.055l-.027.082.055.027.055-.027.055-.055.082-.055.055-.027.027-.055.11-.11.055-.082.027-.027.027-.055a1.784,1.784,0,0,0,.22-.412l.027-.055v-.055l.055-.137.027-.3v-.137l-.027-.165v-.082L24.379,10l-.027-.165-.027-.055-.055-.165V9.565l-.027-.027-.055-.165L24.1,9.235l-.027-.082L24.049,9.1l-.055-.055V8.988h-.027V8.96h-.027l-.192-.275-.275-.275-.137-.11-.082-.027-.165-.11-.275-.082A.788.788,0,0,0,22.455,8a2.6,2.6,0,0,0-.632.027l-.137.055-.137.027-.357.165-.247.165-.137.137-.11.082-.055.055Z" transform="translate(0 0)" fill="#493f3f"/>
              </g>
              <g id="Group_106223" data-name="Group 106223" transform="translate(0 11.324)">
                <path id="Path_76465" data-name="Path 76465" d="M9.647,33.971l.082.11.082.165.055.082.055.11,1.072,1.484,1.1,1.154.11.082.11.11.055.027.055.055.77.55.77.385h.027l.852.275.934.165,1.1-.027.577-.11.082-.027h.055l.137-.055h.055l.11-.055h.027l.027-.027.22-.082.055-.027.055-.055.137-.055.495-.385.082-.082.11-.082.22-.22.055-.082.137-.137.412-.495.055-.11.082-.082.082-.165.082-.11q.027-.027-.027-.082h-.055l-.247.192-.11.055-.082.082-.385.247-.137.11-.467.3-.11.055-.082.055-.385.192-.11.027-.082.055-.055.027h-.055l-.11.027-.027.027h-.055l-.082.027h-.027l-.11.027h-.137a3.269,3.269,0,0,1-.495.027h-.522l-1.044-.165-.137-.055-.66-.192-.055-.027h-.027l-.027-.027-.6-.275L11.791,35.62l-.165-.165-.192-.137-.934-.8-.055-.027-.275-.247-.11-.082-.082-.082L9.84,34l-.11-.11q-.027-.027-.082.027v.055M3.188,17.041q.082-.082-.027-.082H3.106L1.869,18.5l-.8,1.374-.247.55L.8,20.449l-.6,2.034-.027.027v.055l-.027.11-.027.22V23l-.027.11L0,23.967l.055,1.567.082.66.11.44.027.22.137.522.055.11.11.412.055.082.027.11,1.072,2.171L2.886,31.91l.11.11.082.11,1.374,1.4h.082v-.082L3.9,32.46l-.11-.22-.275-.44-.082-.11-1.264-2.5-.027-.082-.055-.082-.8-2.611-.027-.22-.027-.082V26l-.027-.192-.055-.192V25.4a4.083,4.083,0,0,1-.055-.8l-.027-.192v-.385L1.1,23.8v-.385l.027-.192v-.192l.027-.192.027-.11v-.082l.055-.385.055-.192.055-.357.22-.88.027-.082.027-.055v-.027l.33-.962,1.237-2.666M17.59.44a3.882,3.882,0,0,1,.522-.027L19.129.357A.049.049,0,0,0,19.184.3L19.157.275,18.58.165,16.958,0,15.611.027l-2.034.33L12.121.852l-.495.22L9.73,2.254l-.357.275L7.943,3.958l-.522.687v.027H7.393L7.366,4.7l-.027.055L7.2,4.947v.027L7.174,5,6.431,6.239l-.22.522a4.02,4.02,0,0,0-.385,1.044l-.082.247-.055.275-.082.247-.027.275-.027.055V8.96L5.524,9.1v.137l-.082.632.11,1.869.275,1.182.055.165.082.165a5.259,5.259,0,0,0,.522,1.072l.577.88q.055.027.082,0v-.082L6.9,14.594,6.844,14.4l-.082-.192a6.875,6.875,0,0,1-.33-1.1l-.055-.165-.137-.907v-.192l-.027-.192.027-1.264.027-.11v-.11l.027-.11V9.95l.192-.907a5.744,5.744,0,0,1,.275-.934,9.01,9.01,0,0,1,.88-1.841l.055-.11.357-.522.055-.055.027-.055.082-.11.027-.055.027-.027V5.3H8.3L8.8,4.672l.082-.082a12.748,12.748,0,0,1,1.512-1.484l.825-.632.11-.055.3-.22,1.209-.632.11-.027.22-.11.66-.247.11-.027.11-.055L16.436.55h.11l.082-.027.66-.055h.082L17.453.44h.137m19.6,19.817-.165-.11-.055-.055-.082-.027-.165-.11-.082.027v.055l.055.082.055.165.055.055.165.357.165.55V21.3l.027.082.027.247v.55l-.055.3-.055.137V22.7l-.027.027v.027l-.027.082v.027l-.027.027-.055.192v.027l-.027.027-.137.357-.33.467-.3.3-.495.3-.6.275-.11.027-.66.22h-.055l-.11.055-.082.027a.049.049,0,0,0-.055.055l.027.027.11.055.11.027h.055l.082.027.66.082a.357.357,0,0,0,.275,0h.165l.495-.082.55-.192.082-.055.082-.027.082-.055.11-.055.33-.275.412-.495.357-.687v-.055l.027-.055.055-.165V23.2l.027-.055.027-.11v-.055l.027-.055v-.11l.027-.192v-.6l-.027-.11v-.082l-.027-.11v-.055l-.027-.027-.11-.357-.055-.082-.027-.082-.027-.055-.137-.22-.055-.055-.027-.055-.11-.137Z" transform="translate(0 0)" fill="#493f3f"/>
              </g>
              <g id="Group_106224" data-name="Group 106224" transform="translate(36.06 8.218)">
                <path id="Path_76466" data-name="Path 76466" d="M1.787,0H1.4L.907.165.8.247.33.687l-.275.495-.027.11L0,1.347l.027.082H.082l.055-.055L.22,1.347.6,1.127l.247-.082L.934.989,1.127.962,1.154.934h.11L1.292.907l.192.027h.055l.055.027h.027l.165.082.082.027.082.055.082.082.055.027.33.33.027.055.055.027.027.055.027.027.055.11.027.027.055.082.055.192.027.027v.11l.027.055v.11h.027v.44H2.8v.082l-.027.055v.027l-.027.055v.082l-.027.027-.247.44-.055.055.027.082h.11l.11-.027.11-.055.3-.192.055-.027.027-.027.055-.027L3.353,3.3l.082-.11V3.161l.027-.027.027-.082.082-.11.11-.33V2.5H3.71V2.336l.027-.11V2.061L3.71,1.979l-.055-.385L3.6,1.429l-.055-.082-.027-.082L3.243.852,3.078.687A3.39,3.39,0,0,0,2.529.22L2.364.137Z" transform="translate(0 0)" fill="#493f3f"/>
              </g>
            </g>
            <g id="Group_106227" data-name="Group 106227" transform="translate(20.729 34.191)">
              <g id="Group_106226" data-name="Group 106226" transform="translate(0 0)">
                <path id="Path_76467" data-name="Path 76467" d="M13.352.027,13.3.275l-.082.632-.3,1.237a.684.684,0,0,1-.082.3l-.3.962-.082.165-.055.165-.055.082-.055.165-.22.44A6.441,6.441,0,0,1,11.208,5.8l-.522.632-.055.027-.6.55-.055.027-.11.11-.11.055-.44.33-.77.44-.082.055-.11.027-.192.11-.3.11-.11.055-.11.027-.11.055L6.893,8.6l-.027.027H6.811l-1.594.275A6.285,6.285,0,0,1,3.65,8.823L3.458,8.8,3.1,8.685H2.99l-.027-.027H2.908L2.5,8.52l-.082-.055L2.276,8.41l-.55-.3-.082-.027-.055-.055L1.534,8l-.055-.055-.22-.165a6.061,6.061,0,0,1-.687-.687L.1,6.376q0-.082-.055-.027-.082,0-.027.055L.159,6.9l.165.357.055.082.055.11.137.22.055.11.055.055.027.055L.792,8l.495.522.22.165.055.055.385.275.165.082.082.055.467.22.027.027h.055l.082.055.192.055.11.055.33.082a6.192,6.192,0,0,0,1.787.247L6.7,9.757l.357-.082.055-.027H7.2l.687-.22L8.02,9.4l.22-.11.11-.027.687-.33q.22-.11.88-.495l.192-.165.22-.137.082-.082.192-.137.055-.055.055-.027.357-.33.165-.192.11-.082V7.2l.027-.027.055-.027.165-.192.055-.082.385-.495a7.9,7.9,0,0,0,.825-1.594l.055-.22.082-.192V4.343l.027-.055.192-.66.027-.192.055-.192.11-.687.11-1.622-.082-.88A.049.049,0,0,0,13.38,0Z" transform="translate(0)" fill="#493f3f"/>
              </g>
            </g>
            <g id="Group_106229" data-name="Group 106229" transform="translate(27.732 3.683)">
              <g id="Group_106228" data-name="Group 106228" transform="translate(0 0)">
                <path id="Path_76468" data-name="Path 76468" d="M3.133.027H3.051L2.858,0,2.666.027H2.5L2.309.055A3.08,3.08,0,0,0,1.622.3H1.594L1.539.33,1.484.385,1.4.412,1.319.467,1.237.55H1.209L1.182.577,1.072.66.825.907.467,1.4.33,1.649l-.192.495-.055.247-.027.055V2.5l-.027.11L0,2.831v.742l.027.165v.11l.055.3.055.165.055.027L.22,4.288l.165-.825L.44,3.3V3.216l.082-.275.247-.55A2.693,2.693,0,0,1,1.292,1.7l.192-.192.055-.027L1.622,1.4l.137-.082h.027l.055-.027.027-.027.11-.055h.027l.027-.027.22-.055h.027L2.309,1.1h.11l.055-.027h.357l.11.027a1.749,1.749,0,0,1,.467.11l.137.055H3.6l.165.082.11.082H3.93l.027.027.055.027.055.055h.055v.027H4.15l.687.467L5.36,2.5l.11.082.055.055.027.055.11.082.55.6.11.082L7.668,5.112l.055.055.055.082.44.55.11.11q0,.027.082.027V5.882l-.192-.55-.632-1.4a4.846,4.846,0,0,0-.522-.88l-.055-.11-.33-.467-.11-.11-.6-.715L4.975.8,4.7.632V.6q0,.027-.027,0L4.645.577,4.562.55,4.508.495H4.48L4.453.467H4.425L4.1.3,3.93.247,3.765.165,3.6.11h-.11L3.326.055H3.243Z" fill="#493f3f"/>
              </g>
            </g>
            <g id="Group_106231" data-name="Group 106231" transform="translate(4.264 44.661)">
              <g id="Group_106230" data-name="Group 106230" transform="translate(0 0)">
                <path id="Path_76469" data-name="Path 76469" d="M1.687,4.488l-.058-.1L.323.494.288.305.175,0,.094,0,.073.056.026.318l0,.113L0,.523.027,2.552.239,3.683.276,3.8l.017.132L.462,4.4a4.7,4.7,0,0,0,.378.948L1.629,6.7l.1.1.019.057.039.038.176.211a6.166,6.166,0,0,0,.666.692l.157.154.81.6.1.059.059.058.3.139.119.078.7.3L4.9,9.22l.042-.074-.039-.038-.058-.1L4.221,8.4l-.1-.134-.118-.115L3.89,7.995l-.118-.115-.6-.784L3.09,7.018,2.413,5.969l-.1-.209-.174-.286-.057-.133-.116-.191Z" transform="translate(0 0)" fill="#493f3f"/>
              </g>
            </g>
            <g id="Group_106233" data-name="Group 106233" transform="translate(56.045 3.985)">
              <g id="Group_106232" data-name="Group 106232" transform="translate(0 0)">
                <path id="Path_76470" data-name="Path 76470" d="M4.389,1.017,4.109.687l-.364-.3-.4-.22L3.213.137,3.107.082,3,.055H2.862L2.781.027h-.11L2.563,0h-.22L2.231.027h-.22l-.392.11L1.25.3.848.55.789.6.674.687.584.8.466.907.4,1.017l-.151.192-.033.082a1.783,1.783,0,0,0-.155.247l-.033.082L0,1.677l.051.055L.108,1.7l.086-.055.088-.082.057-.027.086-.055.059-.055.173-.11.228-.11L1,1.182l.228-.11.53-.11h.412l.053.027H2.3l.081.027h.082l.053.027.081.027h.082l.106.055.081.027.106.055.051.055.053.027.234.192.3.357.049.082.051.055,0,.027.026.027.049.082.024.055h.027l0,.027.051.055.073.137.045.137.051.055.089.3.024.055.022.082.024.055.022.082,0,.027.026.027.054.412.024.055-.013.192.01.247.02.11-.05.715.053.027.031-.055.061-.082.088-.082.066-.165.061-.082L4.7,4.425l.125-.22.1-.275.037-.137L4.97,3.71,5,3.628l.039-.165.038-.55-.022-.082.008-.11-.042-.192.006-.082-.04-.22-.049-.082L4.9,1.951l-.1-.192-.02-.11-.026-.027,0-.027-.026-.027-.049-.082-.047-.11-.049-.082-.077-.082Z" transform="translate(0 0)" fill="#493f3f"/>
              </g>
            </g>
            <g id="Group_106235" data-name="Group 106235" transform="translate(63.646 33.394)">
              <g id="Group_106234" data-name="Group 106234" transform="translate(0 0)">
                <path id="Path_76471" data-name="Path 76471" d="M3.624.77,3.576.66,3.527.577,3.169.192,3.063.137,2.984.082,2.933.027,2.88,0,2.821.055l.047.11L2.863.247l.047.11.034.3.022.082L2.96.825,3,1.017,2.975,1.4l-.082.385-.068.192-.031.055,0,.027H2.764l0,.055-.031.055-.272.357-.088.082-.09.11-.029.027H2.221l-.294.275-.057.027-.029.027-.057.027,0,.027H1.755l-.086.055-.057.027-.029.027-.112.027-.086.055-.169.055h-.11l-.084.027-.194.027H.359l-.19-.027H.031L0,3.463l.053.027.024.055L.23,3.71l.34.247.108.027L.89,4.1l.136.027h.055l.081.027H1.6l.167-.027L1.852,4.1h.082l.171-.082H2.16l.029-.027.169-.055.059-.055L2.5,3.848l.231-.165.059-.055.086-.055.059-.055h.027l0-.027.147-.137.359-.412.033-.082.061-.082L3.6,2.694l.061-.082.066-.165.029-.027,0-.055.033-.082.08-.357.012-.165-.048-.495-.093-.247L3.722.934,3.7.88Z" fill="#493f3f"/>
              </g>
            </g>
            <g id="Group_106237" data-name="Group 106237" transform="translate(65.611 37.627)">
              <g id="Group_106236" data-name="Group 106236" transform="translate(0 0)">
                <path id="Path_76472" data-name="Path 76472" d="M.033,4.782,0,4.865l.053.027.417.33L.6,5.277l.051.055.212.11L.945,5.5H.973l.212.11.8.33.244.055.106.055.379.082a7.713,7.713,0,0,0,1.119.11h.6l.139-.027h.247l.084-.027.139-.027h.165L5.3,6.129h.055l.169-.055h.11l.057-.027.139-.027.732-.247.685-.357L7.39,5.3l.143-.082.5-.467.423-.55a4.935,4.935,0,0,0,.491-1.127l.037-.137,0-.055.031-.055.01-.137.037-.137.065-.934L9.073.88,8.883.055l0-.055L8.8.027l0,.055L8.762.22,8.743.495,8.706.632,8.488,1.787,8.48,1.9,8.1,2.968l-.311.522-.3.385-.031.055L7.4,3.958l-.031.055-.029.027H7.314l-.235.22-.057.027-.088.082a4.216,4.216,0,0,1-.94.467L5.487,5H5.432l-.084.027-.139.027-.057.027H5.069l-.53.11H4.4l-.251.055H3.876l-.057.027H2.637L2.529,5.25h-.11L1.384,5.112,1.2,5.057l-.57-.11L.493,4.892H.383L.222,4.837.086,4.81Z" fill="#493f3f"/>
              </g>
            </g>
            <g id="Group_106239" data-name="Group 106239" transform="translate(17.343 4.48)">
              <g id="Group_106238" data-name="Group 106238" transform="translate(0 0)">
                <path id="Path_76473" data-name="Path 76473" d="M6.376,0H5.085L3.82.275,3.6.357l-.687.33-.44.275-.742.6-.055.055-.027.055-.192.192-.165.22q-.055.082-.165.22l-.165.22-.027.027v.027L.88,2.639.357,3.683l-.275.934-.055.467L0,5.195v.687l.055.33v.165l.192.742.055.11.055.027L.385,7.2l.027-.11V6.926L.44,6.844v-.11l.027-.11v-.11L.66,5.579l.11-.357.082-.165.082-.3.055-.082.027-.082.055-.11L1.127,4.4V4.343l.357-.632.055-.082.055-.11.055-.082L1.7,3.381l.027-.055.055-.082.055-.055V3.161l.027-.027.66-.8.055-.082L2.666,2.2l.247-.247.11-.055.082-.082.522-.385,1.1-.6L5.222.632,5.387.55l.3-.11L5.827.412,5.964.357l.33-.082L6.376.22,6.514.192,6.651.137,6.679.082,6.624.055Z" fill="#493f3f"/>
              </g>
            </g>
          </g>
          <g id="Group_106247" data-name="Group 106247" transform="translate(3.114 56.69)">
            <g id="Group_106242" data-name="Group 106242" transform="translate(0 4.443) rotate(-15.965)">
              <g id="Group_106241" data-name="Group 106241" transform="translate(0 0)">
                <path id="Path_76474" data-name="Path 76474" d="M13.271,3.444A7.215,7.215,0,0,0,8.159.064Q4.931-.449,2.332,3.169A14.109,14.109,0,0,0,.023,12.212a17.749,17.749,0,0,0,2.831,9.18,17.459,17.459,0,0,0,5.689,5.552,38.967,38.967,0,0,0,4.975,2.006q.274-1.41,1.7-5.772a24.362,24.362,0,0,0,.66-10.581Q15.134,6.337,13.271,3.444Z" fill="#80553c"/>
              </g>
            </g>
            <g id="Group_106244" data-name="Group 106244" transform="translate(5.984 6.718)">
              <g id="Group_106243" data-name="Group 106243" transform="translate(0 0)">
                <path id="Path_76475" data-name="Path 76475" d="M.082,1.237l.33-.11.11-.055L.66,1.044l.3-.11h.082l.3-.082L1.539.825,1.649.8h.11L2.2.742,2.694.77l.495.11a4.542,4.542,0,0,1,.989.412l.495.357.22.192.055.027.385.385L6.349,3.518,7.586,5.552l.055.137L8.96,8.273l.055.082.192.412.082.11.082.192.082.137q0,.082.055.027.082,0,.027-.055l-.082-.632L9.125,7.2,8.108,4.4,6.844,2.309,5.854,1.237a.3.3,0,0,1-.137-.11L5.277.8l-.77-.44L4.343.3,4.178.22,4.013.165,3.353.027H3.188L3.023,0h-.3L1.732.165,1.567.247H1.512L1.4.3l-.22.082L.3.907,0,1.154v.082Z" fill="#684633"/>
              </g>
            </g>
            <g id="Group_106246" data-name="Group 106246" transform="translate(3.887 2.018)">
              <g id="Group_106245" data-name="Group 106245" transform="translate(0 0)">
                <path id="Path_76476" data-name="Path 76476" d="M4.57,0,3.5.192,2.976.357,2.894.412,2.729.467,2.646.522,2.481.577,2.4.632,2.317.66l-.467.3L1.794.989l-.082.082L1.657,1.1l-.027.027-.495.385L.558,2.2l-.082.137-.11.137-.33.6q-.082.082.027.082H.118L.75,2.584.887,2.5,1,2.391l.137-.082.137-.11.8-.467H2.1l.082-.055h.027l.027-.027.522-.192.055-.027.165-.055.055-.027h.082l.165-.055h.055l.082-.027H3.5l.082-.027h.055l.082-.027.165-.027h.137l.33-.055h.3q.3,0,.825.055l1.292.247.3.082h.055l.027.027h.027l.8.3.8.44a1.362,1.362,0,0,1,.357.247l.11.055.082.055.082.082.11.055.082.082.082.055.522.44L11.194,4.4l.055.11.082.082L12.706,6.6v.027l.027.027.027.055.192.275,1.841,3.243q0,.082.055.027.082,0,.027-.055L13.146,6.4l-.027-.027V6.349L11.936,4.315,11.8,4.123l-.055-.11L10.4,2.446,10.122,2.2l-.055-.027-.027-.027-.11-.082-.082-.082L9.737,1.9l-.082-.082L9.27,1.539a5.95,5.95,0,0,0-.852-.522l-.88-.44L7.511.55H7.484L7.319.467,6.6.247A6.858,6.858,0,0,0,5.615.055,6.538,6.538,0,0,0,4.625,0Z" transform="translate(0)" fill="#9f7b67"/>
              </g>
            </g>
          </g>
          <g id="Group_106254" data-name="Group 106254" transform="translate(48.538 55.369)">
            <g id="Group_106249" data-name="Group 106249" transform="translate(0.095 0)">
              <g id="Group_106248" data-name="Group 106248" transform="translate(0 0)">
                <path id="Path_76477" data-name="Path 76477" d="M3.369,25.794Q12.321,28.84,13.4,20.846l.11-1.649-3.216-3.436A39.322,39.322,0,0,1,9.333,1.085Q6.768-1.66,5.457,2.542L.62,20.9Q-1.445,25.029,3.369,25.794Z" fill="#80553c"/>
              </g>
            </g>
            <g id="Group_106251" data-name="Group 106251" transform="translate(8.04 1.14)">
              <g id="Group_106250" data-name="Group 106250" transform="translate(0 0)">
                <path id="Path_76478" data-name="Path 76478" d="M.013,9.62A34.011,34.011,0,0,0,.48,13.6Q.845,15.5.892,15.584A17.6,17.6,0,0,1,3.366,18a5.469,5.469,0,0,1,1.072,2.446q.262,1.429-1.347,3.793Q5.806,21.811,6,19.872a2.852,2.852,0,0,0-1.567-2.941q-1.76-1.02-2.721-1.649l.3-.577-.165-.247-.66.027.715-.055L.81,8.713l.082-4.15L1.387,0A23.371,23.371,0,0,0,.342,4.4,30.469,30.469,0,0,0,.013,9.62Z" transform="translate(0)" fill="#9f7b67"/>
              </g>
            </g>
            <g id="Group_106253" data-name="Group 106253" transform="translate(0 1.14)">
              <g id="Group_106252" data-name="Group 106252" transform="translate(0 0)">
                <path id="Path_76479" data-name="Path 76479" d="M8.96,3.985,8.933,8.96l.77,6.1a.462.462,0,0,0,.192.3v.027l.247.165,1.237,1.127,1.209,1.539.357.6.027.082a3.415,3.415,0,0,1,.33.687,3.1,3.1,0,0,1,.192.687l.027.495-.027.11v.055l-.027.027-.027.082v.082l-.027.082-.055.082-.082.247a3.994,3.994,0,0,1-.88,1.127l-.6.467-.055.055-.11.055-.082.055-.027.027-.055.027-.385.247-.11.027-.88.385-.825.247H9.18l-.192.055-.77.11H8l-.192.027H6.6A15.481,15.481,0,0,1,5,24.379a9.181,9.181,0,0,1-1.594-.22L3.216,24.1l-.192-.027-.3-.082-.082-.055-.357-.11-.467-.22-.082-.027-.165-.11L1.4,23.39l-.412-.357a.734.734,0,0,1-.247-.275,2.864,2.864,0,0,1-.357-.66L.3,21.328l.137-.8.275-.77q.055-.055-.027-.055-.055-.055-.055.027a4.115,4.115,0,0,0-.385.742l-.22.715L0,21.74l.027.44L.357,23l.275.357.66.577q.055.055.082.055l.082.055.082.082.989.467.715.22a12.318,12.318,0,0,0,1.649.357q.577.082,1.677.165l1.484.027.22-.027h.22l.852-.11.11-.027h.11l.852-.22.22-.082.027-.027h.055l.825-.357.082-.055.412-.22.027-.027.055-.027.165-.11h.027v-.027h.027l.055-.055a5.829,5.829,0,0,0,.715-.522l.632-.66a4.888,4.888,0,0,0,.495-.8l.11-.22.027-.11.055-.11.027-.11.055-.11.027-.137v-.055l.027-.055.027-.11v-.137l.027-.247-.027-.522a3.788,3.788,0,0,0-.275-.907l-.44-.907-.055-.082L13.742,18,13,16.931l-1.154-1.292-1.072-.907-.082-.055-.027-.027-.6-3.436L9.482,4.7,9.51.027,9.482,0,9.427.027Z" fill="#684633"/>
              </g>
            </g>
          </g>
          <g id="Group_106273" data-name="Group 106273" transform="translate(31.502 56.784)">
            <g id="Group_106259" data-name="Group 106259" transform="translate(28.47 3.958)">
              <g id="Group_106256" data-name="Group 106256" transform="translate(0 0)">
                <g id="Group_106255" data-name="Group 106255" transform="translate(0 0)">
                  <path id="Path_76480" data-name="Path 76480" d="M6.7,4.371a4.936,4.936,0,0,0-.99-3.1A2.891,2.891,0,0,0,3.349,0,2.934,2.934,0,0,0,.973,1.27,4.992,4.992,0,0,0,0,4.371,4.922,4.922,0,0,0,.973,7.456,2.924,2.924,0,0,0,3.349,8.743,2.881,2.881,0,0,0,5.707,7.456,4.866,4.866,0,0,0,6.7,4.371Z" fill="#231915"/>
                </g>
              </g>
              <g id="Group_106258" data-name="Group 106258" transform="translate(3.958 3.991)">
                <g id="Group_106257" data-name="Group 106257" transform="translate(0 0)">
                  <path id="Path_76481" data-name="Path 76481" d="M1.618,1.024A1.242,1.242,0,0,0,1.354.281.661.661,0,0,0,.776,0,.706.706,0,0,0,.216.314,1.275,1.275,0,0,0,0,1.09a1.122,1.122,0,0,0,.264.726.691.691,0,0,0,.594.3.653.653,0,0,0,.544-.33A1.167,1.167,0,0,0,1.618,1.024Z" fill="#fff"/>
                </g>
              </g>
            </g>
            <g id="Group_106261" data-name="Group 106261" transform="translate(27.172 1.63)">
              <g id="Group_106260" data-name="Group 106260" transform="translate(0 0)">
                <path id="Path_76482" data-name="Path 76482" d="M12.771,6.718a5.775,5.775,0,0,0-1.2-2.461A16.944,16.944,0,0,0,4.357,0,33.491,33.491,0,0,0,0,6.918a7.851,7.851,0,0,1,5.554-.5A22.723,22.723,0,0,0,12.771,6.718Z" fill="#80553c"/>
              </g>
            </g>
            <g id="Group_106263" data-name="Group 106263" transform="translate(27.106 7.25)">
              <g id="Group_106262" data-name="Group 106262" transform="translate(0 0)">
                <path id="Path_76483" data-name="Path 76483" d="M12.206.266l.3-.133.033-.067L12.472.033,12.339,0H9.811L9.579.033,6.286,0a3.66,3.66,0,0,1-.565.033H2.727L2.494.067H1.63L1.53.1h-.3L.6.166.466.2h-.1l-.3.067L0,.333.033.366.166.432l1,.266.2.033H1.43V.765L1.53.8l1.9.366h.133l.133.033,3.492.133L7.45,1.3h.3L8.88,1.164h.133l.133-.033,2.96-.8Z" fill="#231915"/>
              </g>
            </g>
            <g id="Group_106268" data-name="Group 106268" transform="translate(2.694 3.958)">
              <g id="Group_106265" data-name="Group 106265" transform="translate(0 0)">
                <g id="Group_106264" data-name="Group 106264" transform="translate(0 0)">
                  <path id="Path_76484" data-name="Path 76484" d="M6.7,4.371a4.936,4.936,0,0,0-.99-3.1A2.891,2.891,0,0,0,3.349,0,2.934,2.934,0,0,0,.973,1.27,4.992,4.992,0,0,0,0,4.371,4.922,4.922,0,0,0,.973,7.456,2.924,2.924,0,0,0,3.349,8.743,2.881,2.881,0,0,0,5.707,7.456,4.866,4.866,0,0,0,6.7,4.371Z" fill="#231915"/>
                </g>
              </g>
              <g id="Group_106267" data-name="Group 106267" transform="translate(3.958 3.991)">
                <g id="Group_106266" data-name="Group 106266" transform="translate(0 0)">
                  <path id="Path_76485" data-name="Path 76485" d="M1.618,1.024A1.242,1.242,0,0,0,1.354.281.661.661,0,0,0,.776,0,.706.706,0,0,0,.216.314,1.275,1.275,0,0,0,0,1.09a1.122,1.122,0,0,0,.264.726.691.691,0,0,0,.594.3.653.653,0,0,0,.544-.33A1.167,1.167,0,0,0,1.618,1.024Z" fill="#fff"/>
                </g>
              </g>
            </g>
            <g id="Group_106270" data-name="Group 106270" transform="translate(0 0)">
              <g id="Group_106269" data-name="Group 106269">
                <path id="Path_76486" data-name="Path 76486" d="M7.882,0a17.613,17.613,0,0,0-1.9,1.1A17.756,17.756,0,0,0,0,7.616a11.6,11.6,0,0,1,2.827.333,24.747,24.747,0,0,0,6.02.166q3.81-.227,7.45-.333a4.753,4.753,0,0,0-1.6-3.093A72.742,72.742,0,0,0,7.882,0Z" fill="#80553c"/>
              </g>
            </g>
            <g id="Group_106272" data-name="Group 106272" transform="translate(0.067 7.217)">
              <g id="Group_106271" data-name="Group 106271" transform="translate(0 0)">
                <path id="Path_76487" data-name="Path 76487" d="M15.9.1,15.731.067,13.4.033A3.287,3.287,0,0,0,12.838,0H4.723L4.556.033h-.2a4.265,4.265,0,0,0-.632.033H3.093A3.66,3.66,0,0,1,2.528.1,3.014,3.014,0,0,0,2,.133H1.3L1.1.166H.565L.432.2H.2L.067.233,0,.3.033.333l1.9.5,4.191.432L10.21,1.2a5.374,5.374,0,0,0,.7-.033l.366-.033h.166l.166-.033.965-.1L15.4.4l.133-.067.4-.133.033-.067Z" fill="#231915"/>
              </g>
            </g>
          </g>
          <g id="Group_106281" data-name="Group 106281" transform="translate(40.89 86.018)">
            <g id="Group_106276" data-name="Group 106276" transform="translate(1.239 1.865)">
              <g id="Group_106274" data-name="Group 106274" transform="translate(0 0)">
                <path id="Path_76488" data-name="Path 76488" d="M18.19,2.852a7.014,7.014,0,0,0-2.559-2,11.363,11.363,0,0,0-4.318-.84,18.743,18.743,0,0,0-5.557.64A10,10,0,0,1,0,.453,20.809,20.809,0,0,0,18.19,2.852Z" fill="#684633"/>
              </g>
              <g id="Group_106275" data-name="Group 106275" transform="translate(5.157 4.959)">
                <path id="Path_76489" data-name="Path 76489" d="M10.954.971l.16-.24q.04-.04-.04-.12h-.08l-.48.44-.08.04-.04.08-1.079.72-.2.08-.04.04-.16.08-1.159.36h-.12l-.12.04h-.28l-.28.04h-.24a5.149,5.149,0,0,1-1.079-.12L4.557,2.17,2.6,1.411.48.251.36.211.12.051Q0-.069,0,.091v.08l.12.12.12.08L.4.531l1.119.88q.08.08.76.56l.48.24.12.08L3,2.33l.64.32.68.24a6.008,6.008,0,0,0,1.159.32,5.083,5.083,0,0,0,1.239.08h.32l.6-.08.8-.24.76-.36.12-.04.08-.08.2-.12.2-.16.84-.8.04-.08.04-.04.16-.24Z" transform="translate(0 0)" fill="#684633"/>
              </g>
            </g>
            <g id="Group_106278" data-name="Group 106278" transform="translate(0.42 1.788)">
              <g id="Group_106277" data-name="Group 106277" transform="translate(0 0)">
                <path id="Path_76490" data-name="Path 76490" d="M19.289,2.81q0-.12-.08-.04l-3.8.6h-.2l-.16.04-2.918.04-.24-.04-1.559-.12-.12-.04h-.12l-.2-.04-.919-.08L7.656,2.85l-.4-.12-.24-.04-.2-.08L2.938,1.371l-.16-.08-.16-.04-.28-.16L1.3.651,1.1.531.9.451.14.051Q.02-.069.02.091a.05.05,0,0,0,0,.08l.4.36.12.08L.7.771l.8.6.84.48.12.12,1.559.76a16.062,16.062,0,0,0,1.6.64h.04l.16.08,1.119.36,3,.64h.24l.72.08,1.879.04.24-.04h.44l3.478-.68.6-.24.28-.08,1-.4.44-.24Q19.369,2.89,19.289,2.81Z" fill="#231915"/>
              </g>
            </g>
            <g id="Group_106280" data-name="Group 106280" transform="translate(0 0)">
              <g id="Group_106279" data-name="Group 106279" transform="translate(0 0)">
                <path id="Path_76491" data-name="Path 76491" d="M2.079,0h-.32l-.24.12-.16.04L1.279.2,1.2.28.88.52.72.68H.68V.72L.56.84l-.12.24-.16.2L.04,2,0,2.239.04,3.2l.16.68.12.24v.04l.04.04.04.08.04.04.08.04.04-.08.04-.04v-.4l.04-.16v-.44l.04-.08v-.2l.04-.2v-.2l.04-.08v-.12l.08-.28L.88,2v-.12L1,1.6l.04-.04v-.04l.12-.24.04-.12.08-.08.08-.16.28-.4.4-.4Z" fill="#684633"/>
              </g>
            </g>
          </g>
          <g id="Group_106284" data-name="Group 106284" transform="matrix(0.906, -0.424, 0.424, 0.906, 24.728, 54.014)">
            <g id="Group_106283" data-name="Group 106283" transform="translate(0 0)">
              <g id="Group_106282" data-name="Group 106282">
                <path id="Path_76492" data-name="Path 76492" d="M9.231.8A26.179,26.179,0,0,0,2.407,2.254,14.814,14.814,0,0,1,4.187,0,10.619,10.619,0,0,0,2.176,1.567a11.172,11.172,0,0,0-.758.824L0,4.535,2.242,3.023A17.472,17.472,0,0,1,9.89,1.457a24.494,24.494,0,0,1,6.956.907q2.341.66,2.8.357a1.068,1.068,0,0,0,.462-1.347l-.033.082a1.337,1.337,0,0,1-.462.66,1.571,1.571,0,0,1-.857.082,18.78,18.78,0,0,1-2.637-.715A18.78,18.78,0,0,0,9.231.8Z" transform="translate(0 1.484)"/>
                <path id="Path_76493" data-name="Path 76493" d="M0,3.738A26.179,26.179,0,0,1,6.824,2.281a18.78,18.78,0,0,1,6.89.687,18.78,18.78,0,0,0,2.637.715,1.571,1.571,0,0,0,.857-.082,1.337,1.337,0,0,0,.462-.66l.033-.082-.033-.082a2.362,2.362,0,0,0-1.286-1.264A17.658,17.658,0,0,0,11.67.247a18.013,18.013,0,0,0-8.011.44,10.619,10.619,0,0,0-1.879.8A14.814,14.814,0,0,0,0,3.738Z" transform="translate(2.407)" fill="#140e0e"/>
              </g>
            </g>
          </g>
          <g id="Group_106287" data-name="Group 106287" transform="matrix(-1, -0.01, 0.01, -1, 74.59, 62.54)">
            <g id="Group_106286" data-name="Group 106286" transform="translate(0 0)">
              <g id="Group_106285" data-name="Group 106285">
                <path id="Path_76494" data-name="Path 76494" d="M6.9,3.362a16.762,16.762,0,0,1-5.1-1.31,13.257,13.257,0,0,0,1.33,2.027,8.336,8.336,0,0,1-1.5-1.409q-.294-.347-.567-.742L0,0,1.675,1.36A11.214,11.214,0,0,0,7.391,2.769a15.418,15.418,0,0,0,5.2-.816q1.749-.593,2.094-.321a1.064,1.064,0,0,1,.345,1.211L15,2.769a1.219,1.219,0,0,0-.345-.593.993.993,0,0,0-.641-.074,12.184,12.184,0,0,0-1.971.643A11.787,11.787,0,0,1,6.9,3.362Z"/>
                <path id="Path_76495" data-name="Path 76495" d="M0,0A16.762,16.762,0,0,0,5.1,1.31,11.787,11.787,0,0,0,10.25.692,12.184,12.184,0,0,1,12.221.049a.993.993,0,0,1,.641.074,1.219,1.219,0,0,1,.345.593l.025.074-.025.074A1.98,1.98,0,0,1,12.245,2,11.5,11.5,0,0,1,8.722,3.139a11.274,11.274,0,0,1-5.987-.4,7.286,7.286,0,0,1-1.4-.717A13.257,13.257,0,0,1,0,0Z" transform="translate(1.799 2.052)" fill="#140e0e"/>
              </g>
            </g>
          </g>
          <g id="Group_106289" data-name="Group 106289" transform="translate(30.151 77.7)">
            <g id="Group_106288" data-name="Group 106288" transform="translate(0 0)">
              <path id="Path_76496" data-name="Path 76496" d="M3.3,2.474V3.3h.825M3.3,3.3v.825M6.6,3.3,3.3,6.6,0,3.3,3.3,0Zm-4.123,0H3.3" transform="translate(0 0)" fill="none" stroke="rgba(0,0,0,0)" stroke-linecap="round" stroke-linejoin="round" stroke-width="0.083"/>
            </g>
          </g>
        </g>
      </g>
    </g>
  </g>
</svg>
