<svg xmlns="http://www.w3.org/2000/svg" xmlns:xlink="http://www.w3.org/1999/xlink" width="375" height="270" viewBox="0 0 375 270">
  <defs>
    <clipPath id="clip-path">
      <rect id="Rectangle_8677" data-name="Rectangle 8677" width="375" height="270" transform="translate(16316 -12887)" fill="#fff" stroke="#707070" stroke-width="1" opacity="0.59"/>
    </clipPath>
    <clipPath id="clip-path-2">
      <rect id="Rectangle_8685" data-name="Rectangle 8685" width="131" height="207" transform="translate(131 127)" fill="#fff"/>
    </clipPath>
    <linearGradient id="linear-gradient" x1="0.119" y1="0.51" x2="1.54" y2="0.389" gradientUnits="objectBoundingBox">
      <stop offset="0" stop-color="#bec0c2"/>
      <stop offset="0.341" stop-color="#fff"/>
      <stop offset="1" stop-color="#bec0c2"/>
    </linearGradient>
    <linearGradient id="linear-gradient-2" x1="0.417" y1="0.502" x2="0.708" y2="0.495" gradientUnits="objectBoundingBox">
      <stop offset="0" stop-color="#d2d4d5"/>
      <stop offset="1" stop-color="#fff"/>
    </linearGradient>
    <linearGradient id="linear-gradient-3" x1="0.543" y1="0.993" x2="0.511" y2="0.105" gradientUnits="objectBoundingBox">
      <stop offset="0" stop-color="#4d4343"/>
      <stop offset="1" stop-color="#252020"/>
    </linearGradient>
  </defs>
  <g id="Mask_Group_16638" data-name="Mask Group 16638" transform="translate(-16316 12887)" clip-path="url(#clip-path)">
    <g id="Mask_Group_16629" data-name="Mask Group 16629" transform="translate(16316 -12987)" clip-path="url(#clip-path-2)">
      <g id="male_teen_DS_5" data-name="male teen DS 5" transform="translate(115 130.943)">
        <g id="Group_105905" data-name="Group 105905" transform="translate(104.622 223.889) rotate(-170.868)">
          <g id="Group_105888" data-name="Group 105888" transform="translate(1.27 6.984)">
            <g id="Group_105887" data-name="Group 105887" transform="translate(0 0)">
              <path id="Path_76313" data-name="Path 76313" d="M18.386,0a221.24,221.24,0,0,1,6.878,33.677L5.238,37.7Q2.053,20.189,0,2.963Z" fill="#80553c"/>
            </g>
          </g>
          <g id="Group_105890" data-name="Group 105890" transform="translate(1.243 0)">
            <g id="Group_105889" data-name="Group 105889" transform="translate(0 0)">
              <path id="Path_76314" data-name="Path 76314" d="M18.73,9.365a9.048,9.048,0,0,1-2.751,6.64A9.005,9.005,0,0,1,9.365,18.73a9.093,9.093,0,0,1-6.64-2.725A9.093,9.093,0,0,1,0,9.365,9.005,9.005,0,0,1,2.725,2.751,9.048,9.048,0,0,1,9.365,0a8.961,8.961,0,0,1,6.614,2.751A8.961,8.961,0,0,1,18.73,9.365Z" fill="#80553c"/>
            </g>
          </g>
          <g id="Group_105893" data-name="Group 105893" transform="translate(5.079 32.928)">
            <g id="Group_105892" data-name="Group 105892" transform="translate(0 0)">
              <g id="Group_105891" data-name="Group 105891">
                <path id="Path_76315" data-name="Path 76315" d="M1.667,15.062,0,4.189A31.062,31.062,0,0,1,20.45.353l1.772,10.053Z" fill="#684633"/>
              </g>
            </g>
          </g>
          <g id="Group_105895" data-name="Group 105895" transform="translate(16.772 62.328)">
            <g id="Group_105894" data-name="Group 105894" transform="translate(0 0)">
              <path id="Path_76316" data-name="Path 76316" d="M31.058,15.529a14.961,14.961,0,0,1-4.55,10.979,14.961,14.961,0,0,1-10.979,4.55A14.961,14.961,0,0,1,4.55,26.508,14.961,14.961,0,0,1,0,15.529,14.961,14.961,0,0,1,4.55,4.55,14.961,14.961,0,0,1,15.529,0,14.961,14.961,0,0,1,26.508,4.55,14.961,14.961,0,0,1,31.058,15.529Z" transform="translate(0 0)" fill="#7a2230"/>
            </g>
          </g>
          <g id="Group_105897" data-name="Group 105897" transform="translate(0.053 35.089)">
            <g id="Group_105896" data-name="Group 105896" transform="translate(0 0)">
              <path id="Path_76317" data-name="Path 76317" d="M36.4,2.741q5.571,23.79,10.952,36.375L21.587,54.064Q12.487,46.048,0,8.773,12.592-4.9,36.4,2.741Z" transform="translate(0 0)" fill="#7a2230"/>
            </g>
          </g>
          <g id="Group_105900" data-name="Group 105900" transform="translate(0 35.122)">
            <g id="Group_105899" data-name="Group 105899" transform="translate(0 0)">
              <g id="Group_105898" data-name="Group 105898">
                <path id="Path_76318" data-name="Path 76318" d="M11.481,38.5A260.089,260.089,0,0,1,0,8.687Q12.1-4.657,35.555,2.5,9.153.989,5.688,10.565q-2.116,5.82,12.778,39.947A68.026,68.026,0,0,1,11.481,38.5Z" fill="#4b0f18"/>
              </g>
            </g>
          </g>
          <g id="Group_105902" data-name="Group 105902" transform="translate(38.894 47.777)">
            <g id="Group_105901" data-name="Group 105901" transform="translate(0 0)">
              <path id="Path_76319" data-name="Path 76319" d="M7.825,24.656l-.37-.529-.106-.185L7.19,23.73l-.661-1.111L6.45,22.46,6.344,22.3l-2.3-4.974L1.556,9.312.048.344.021.053Q-.032,0,.048,0L.1.026l4.471,15.9L6.9,22.249l.053.185.608,1.4.106.185.238.608q.053.053-.026.053Q7.825,24.735,7.825,24.656Z" transform="translate(0 0)" fill="#4b0f18"/>
            </g>
          </g>
          <g id="Group_105904" data-name="Group 105904" transform="translate(29.127 74.682)">
            <g id="Group_105903" data-name="Group 105903" transform="translate(0 0)">
              <path id="Path_76320" data-name="Path 76320" d="M3.175,3.968V3.175h.794m-.794,0V2.381m3.175.794L3.175,0,0,3.175,3.175,6.349Zm-3.968,0h.794" fill="none" stroke="rgba(0,0,0,0)" stroke-linecap="round" stroke-linejoin="round" stroke-width="0.075"/>
            </g>
          </g>
        </g>
        <g id="Group_105914" data-name="Group 105914" transform="translate(108.371 283.65) rotate(-175.881)">
          <g id="Group_105907" data-name="Group 105907" transform="translate(0.08 4.434)">
            <g id="Group_105906" data-name="Group 105906" transform="translate(0 0)">
              <path id="Path_76321" data-name="Path 76321" d="M7.646,62.381A380.028,380.028,0,0,1,1.984,18.148,132.169,132.169,0,0,0,0,2.672L12.381,0a126.652,126.652,0,0,0,4.974,19.683q2.91,8.439,7.09,21.429,4.18,13.016,3.81,18.1a37.328,37.328,0,0,1-1.323,8.254L8.466,66.323Q8.016,64.339,7.646,62.381Z" fill="#80553c"/>
            </g>
          </g>
          <g id="Group_105909" data-name="Group 105909" transform="translate(0 0)">
            <g id="Group_105908" data-name="Group 105908" transform="translate(0 0)">
              <path id="Path_76322" data-name="Path 76322" d="M12.706,6.353a6.12,6.12,0,0,1-1.863,4.49,6.12,6.12,0,0,1-4.49,1.863,6.119,6.119,0,0,1-4.49-1.863A6.119,6.119,0,0,1,0,6.353a6.12,6.12,0,0,1,1.863-4.49A6.12,6.12,0,0,1,6.353,0a6.12,6.12,0,0,1,4.49,1.863A6.12,6.12,0,0,1,12.706,6.353Z" fill="#80553c"/>
            </g>
          </g>
          <g id="Group_105911" data-name="Group 105911" transform="translate(0.958 12.291)">
            <g id="Group_105910" data-name="Group 105910" transform="translate(0 0)">
              <path id="Path_76323" data-name="Path 76323" d="M6.556,52.09l.317,2.328q.053.053-.026.053-.053.053-.053-.026L4.042,39.683,2.376,27.355.021.053Q-.032,0,.048,0L.1.026,6.476,51.508Q6.529,51.9,6.556,52.09Z" transform="translate(0 0)" fill="#684633"/>
            </g>
          </g>
          <g id="Group_105913" data-name="Group 105913" transform="translate(14.657 66.498)">
            <g id="Group_105912" data-name="Group 105912" transform="translate(0 0)">
              <path id="Path_76324" data-name="Path 76324" d="M3.175,3.968V3.175h.794m-.794,0V2.381m3.175.794L3.175,0,0,3.175,3.175,6.349Zm-3.968,0h.794" transform="translate(0 0)" fill="none" stroke="rgba(0,0,0,0)" stroke-linecap="round" stroke-linejoin="round" stroke-width="0.075"/>
            </g>
          </g>
        </g>
        <g id="Group_105919" data-name="Group 105919" transform="translate(122.284 315.058) rotate(177.84)">
          <g id="Group_105916" data-name="Group 105916" transform="translate(0 0)">
            <g id="Group_105915" data-name="Group 105915">
              <path id="Path_76325" data-name="Path 76325" d="M5.53,2.487a4.755,4.755,0,0,1,.979,2.487q-.661,8.148-.556,16.9A60.261,60.261,0,0,1,4.737,3.73q-.026-.079.212-1.8l.582.556m6.534,20.688q-.159-.767-.317-1.508a63.88,63.88,0,0,1-.37-17.884Q11.589,1.9,11.959,0a4.629,4.629,0,0,1,1.667,3.148,4.41,4.41,0,0,1-.132.635,86.255,86.255,0,0,0-1.481,17.672q0,.873.053,1.72M.954,11.587Q.927,12.963.927,16.376a27.3,27.3,0,0,0,1.27,7.46A17.4,17.4,0,0,1,.98,20.265,15.065,15.065,0,0,0,.5,18.651,20.118,20.118,0,0,1,0,13.492,17.055,17.055,0,0,0,.954,11.587Z" transform="translate(1.026 2.074)" fill="#684633"/>
              <path id="Path_76326" data-name="Path 76326" d="M17.482,45.354q-.423,0-.847-.026l-.079-.132q-.053-.026-.053-.053a9.754,9.754,0,0,1-6.931-5.688q-1.746-2.725-3.915-6.9-.476-.767-1.005-1.508a7.176,7.176,0,0,1-.45-.767q-.767-1.138-1.349-2.143A21.073,21.073,0,0,1,.1,22.153q-.423-1.878.926-6.587a20.118,20.118,0,0,0,.5,5.159,15.065,15.065,0,0,1,.476,1.614A17.4,17.4,0,0,0,3.223,25.91a27.3,27.3,0,0,1-1.27-7.46q0-3.413.026-4.788L2.006,11.6q.106-.714.291-1.481Q2.747,8,3.091,5.83l.079-.106q1.508-2.857,2.8-1.72-.238,1.72-.212,1.8A60.261,60.261,0,0,0,6.979,23.952q-.106-8.757.556-16.9.026-.635.079-1.243Q7.852,3.582,8.355.83q3.122-2.143,4.63,1.243-.37,1.9-.582,3.783a63.88,63.88,0,0,0,.37,17.884q.159.741.317,1.508-.053-.847-.053-1.72A86.255,86.255,0,0,1,14.519,5.857a4.41,4.41,0,0,0,.132-.635q.291-1.138.847-2.963,4.5.608,5.529,3.7a9.458,9.458,0,0,1-.159,4.921q-1.8,10.132-.026,14.5,1.72.423,1.508-4.365-.37-5.344,1.72-6.852a4.453,4.453,0,0,1,5.476-.106Q27.614,23,28.487,27.471q.847,4.471.873,4.577-.423,1.085-.926,2.116a52.937,52.937,0,0,1-2.91,5.45q-.582.952-1.138,1.693a9.369,9.369,0,0,1-3.7,3.122,2.37,2.37,0,0,1-.423.212A5.666,5.666,0,0,1,17.482,45.354Z" fill="#80553c"/>
            </g>
          </g>
          <g id="Group_105918" data-name="Group 105918" transform="translate(15.154 35.91)">
            <g id="Group_105917" data-name="Group 105917" transform="translate(0 0)">
              <path id="Path_76327" data-name="Path 76327" d="M3.175,3.968V3.175h.794m-.794,0V2.381m3.175.794L3.175,0,0,3.175,3.175,6.349Zm-3.968,0h.794" transform="translate(0 0)" fill="none" stroke="rgba(0,0,0,0)" stroke-linecap="round" stroke-linejoin="round" stroke-width="0.075"/>
            </g>
          </g>
        </g>
        <g id="Group_105929" data-name="Group 105929" transform="translate(15.632 169.637) rotate(-8.256)">
          <g id="Group_105921" data-name="Group 105921" transform="translate(0 33.23)">
            <g id="Group_105920" data-name="Group 105920" transform="translate(0 0)">
              <path id="Path_76328" data-name="Path 76328" d="M80.852,56.3A341.459,341.459,0,0,0,77.254,0L8.466,2.963A375.785,375.785,0,0,1,0,56.935Q38.014,71.531,80.852,56.3Z" fill="#ede6de"/>
            </g>
          </g>
          <g id="Group_105923" data-name="Group 105923" transform="translate(8.249 2.123)">
            <g id="Group_105922" data-name="Group 105922" transform="translate(0 0)">
              <path id="Path_76329" data-name="Path 76329" d="M0,34.78a33.516,33.516,0,0,0,10.18,24.6,33.516,33.516,0,0,0,24.6,10.18,33.516,33.516,0,0,0,24.6-10.18,33.516,33.516,0,0,0,10.18-24.6,33.516,33.516,0,0,0-10.18-24.6A33.516,33.516,0,0,0,34.78,0a33.516,33.516,0,0,0-24.6,10.18A33.516,33.516,0,0,0,0,34.78Z" fill="#ede6de"/>
            </g>
          </g>
          <g id="Group_105926" data-name="Group 105926" transform="translate(0.053 0)">
            <g id="Group_105925" data-name="Group 105925" transform="translate(0)">
              <g id="Group_105924" data-name="Group 105924">
                <path id="Path_76330" data-name="Path 76330" d="M41.616,9.207q.82-.026,1.667-.026.847.106,1.693.238a4.556,4.556,0,0,1,.5-.026A37.6,37.6,0,0,1,45,2.222a8.779,8.779,0,0,1,.132-1.191A9.712,9.712,0,0,1,45.347,0l-.476,1.508a35.862,35.862,0,0,0-21.43,5.053l-6.905,7.2a57.175,57.175,0,0,0-6.085,10.5A49.087,49.087,0,0,0,8.36,34.5,431.257,431.257,0,0,1,0,90.35a45.063,45.063,0,0,0,7.09,2.3q4.356,1.084,6.852,1.826a36.459,36.459,0,0,0,6.217,1.217q3.723.483,7.7,1.217A38.916,38.916,0,0,0,35.9,97.6q4.1-.075,5.82-.132t7.037-.4a68.222,68.222,0,0,0,9.71-1.243q4.271-.741,7.329-1.534,3.087-.794,3.81-1.005.717-.185,1.429-.4.714-.238,1.429-.45-.556.106-1.085.238-4.339.847-8.837,1.349-3.2.37-6.455.688a115.357,115.357,0,0,1-11.826.4,63.151,63.151,0,0,1-7.329-.582,59.816,59.816,0,0,1-10.318-2.355,23.2,23.2,0,0,1-7.223-3.995,13.913,13.913,0,0,1-4.762-7.434A37.2,37.2,0,0,1,13.6,74.74a90.033,90.033,0,0,1-.344-10.9q.132-4.1.4-8.254.159-2.831.45-5.662.347-3.175.609-7.567.282-4.391,1.138-9.6a31.608,31.608,0,0,1,3.307-9.736,21.2,21.2,0,0,1,6.8-7.487,43.52,43.52,0,0,1,6.3-3.651A28.641,28.641,0,0,1,41.616,9.207Z" fill="#dad0c5"/>
              </g>
            </g>
          </g>
          <g id="Group_105928" data-name="Group 105928" transform="translate(37.251 94.292)">
            <g id="Group_105927" data-name="Group 105927" transform="translate(0 0)">
              <path id="Path_76331" data-name="Path 76331" d="M3.175,2.381v.794h.794m-.794,0v.794M6.35,3.175,3.175,6.35,0,3.175,3.175,0Zm-3.969,0h.794" transform="translate(0 0)" fill="none" stroke="rgba(0,0,0,0)" stroke-linecap="round" stroke-linejoin="round" stroke-width="0.075"/>
            </g>
          </g>
        </g>
        <g id="Group_105954" data-name="Group 105954" transform="matrix(0.997, 0.08, -0.08, 0.997, 20.404, 112.956)">
          <g id="Group_105931" data-name="Group 105931" transform="translate(30.028 0)">
            <g id="Group_105930" data-name="Group 105930" transform="translate(0 0)">
              <path id="Path_76332" data-name="Path 76332" d="M32.013,19,34.632,6.457A29.9,29.9,0,0,0,26.007,1.51,27.217,27.217,0,0,0,17.3,0,29.185,29.185,0,0,0,.609,5.029L0,19Z" fill="#80553c"/>
            </g>
          </g>
          <g id="Group_105933" data-name="Group 105933" transform="translate(8.334 3.097)">
            <g id="Group_105932" data-name="Group 105932" transform="translate(0 0)">
              <path id="Path_76333" data-name="Path 76333" d="M74.079,20.927a18.429,18.429,0,0,0-2.8-9.26q-2.552-4.039-8.731-6.508a53.841,53.841,0,0,1-8.466-3.969q-2.159,5.741-9.207,9.842-7.019,4.127-12.3-1.27-5.262-5.371-6.588-6.508A11.292,11.292,0,0,1,23.52,0a43.947,43.947,0,0,0-5.556,1.534Q13.309,3,8.651,4.524A55.231,55.231,0,0,0,0,8.255L6.985,81.064q2.752-3.757,5.768-7.276,2.7-3.148,5.662-6.112l1.111-1.111,1.111-1.058q2.143-1.958,4.445-3.73a44.572,44.572,0,0,1,8.863-5.212,28.14,28.14,0,0,1,8.7-2.222,26.632,26.632,0,0,1,8.6.767,32.429,32.429,0,0,1,8.44,3.7,39.2,39.2,0,0,1,5.265,3.863,56.26,56.26,0,0,1,4.656,4.5,70.009,70.009,0,0,1,6.508,8.069Z" fill="#ede6de"/>
            </g>
          </g>
          <g id="Group_105935" data-name="Group 105935" transform="translate(0.265 9.42)">
            <g id="Group_105934" data-name="Group 105934" transform="translate(0 0)">
              <path id="Path_76334" data-name="Path 76334" d="M31.06,15.53A14.962,14.962,0,0,0,26.51,4.551,14.962,14.962,0,0,0,15.53,0,14.962,14.962,0,0,0,4.551,4.551,14.962,14.962,0,0,0,0,15.53,14.962,14.962,0,0,0,4.551,26.51,14.962,14.962,0,0,0,15.53,31.06,14.962,14.962,0,0,0,26.51,26.51,14.962,14.962,0,0,0,31.06,15.53Z" transform="translate(0 0)" fill="#ede6de"/>
            </g>
          </g>
          <g id="Group_105938" data-name="Group 105938" transform="translate(10.927 37.544)">
            <g id="Group_105937" data-name="Group 105937" transform="translate(0 0)">
              <g id="Group_105936" data-name="Group 105936">
                <path id="Path_76335" data-name="Path 76335" d="M13.81,0Q.026,2.249,0,2.222L4.339,46.881l9.286-11.429Z" fill="#dad0c5"/>
              </g>
            </g>
          </g>
          <g id="Group_105943" data-name="Group 105943" transform="translate(0 3.494)">
            <g id="Group_105940" data-name="Group 105940" transform="translate(0 0)">
              <g id="Group_105939" data-name="Group 105939">
                <path id="Path_76336" data-name="Path 76336" d="M31.748,21.695A76.106,76.106,0,0,1,36.669,5.556L30.478,0a136.349,136.349,0,0,0-19.9,6.588Q.513,10.684,0,22.382,1.408,31.27,8.1,35l.5.265q.337.187.661.344.072.031.132.053l.45.185a14.325,14.325,0,0,0,4.365,1.058,15.8,15.8,0,0,0,1.587.079,14.962,14.962,0,0,0,10.98-4.551,14.6,14.6,0,0,0,1.111-1.243Q30.672,28.172,31.748,21.695Z" fill="#7a2230"/>
              </g>
            </g>
            <g id="Group_105942" data-name="Group 105942" transform="translate(60.798 1.058)">
              <g id="Group_105941" data-name="Group 105941" transform="translate(0 0)">
                <path id="Path_76337" data-name="Path 76337" d="M10.636,9.736q5.062,4.019,8.546,12.3,1.624,3.831,2.831,7.276a71.274,71.274,0,0,1-.106-8.36,21.223,21.223,0,0,0-.45-5.715Q21.24,12.6,18.335,9.5a19.852,19.852,0,0,0-6.641-5.08A53.763,53.763,0,0,1,2.487,0L0,4.021A31.727,31.727,0,0,1,10.636,9.736Z" fill="#7a2230"/>
              </g>
            </g>
          </g>
          <g id="Group_105945" data-name="Group 105945" transform="translate(45.876 4.182)">
            <g id="Group_105944" data-name="Group 105944" transform="translate(0 0)">
              <path id="Path_76338" data-name="Path 76338" d="M10.371,3.969l-.159.079-.5.317L7.408,5.5,3.995,6.561l-.159.026-.159.053L.053,7.223H.026L0,7.276.026,7.3l.212.053,1.429.106.132.026,1.826-.053.344-.053h.185l1.482-.265L7.2,6.667a12.358,12.358,0,0,0,1.561-.609l.767-.4,2.355-1.587,2.064-2.09.9-1.27.106-.132.185-.344.106-.159Q15.266.053,15.213,0H15.16l-.132.159L13.916,1.217,13.81,1.3l-.317.291-.106.079-.212.212Z" transform="translate(0)" fill="#684633"/>
            </g>
          </g>
          <g id="Group_105947" data-name="Group 105947" transform="translate(37.622 12.172)">
            <g id="Group_105946" data-name="Group 105946" transform="translate(0 0)">
              <path id="Path_76339" data-name="Path 76339" d="M16.906,1.667l-.582.238-.212.053a17.838,17.838,0,0,1-1.773.556q-.794.212-.926.238l-1.429.291h-.132l-.106.026L9.5,3.228l-.132.026L9.26,3.228H8.519L7.064,3.1,4.6,2.566,1.931,1.587.952,1.111.741,1.032.582.926.079.688Q0,.609,0,.714V.767l1.614,1.4.132.079.582.423L4.683,3.889h.053l1.058.37.132.026.106.053.265.053a11.078,11.078,0,0,0,2.09.37,13.591,13.591,0,0,0,2.222.026l.82-.079,2.355-.5.265-.079.106-.053.132-.026.5-.185a17.545,17.545,0,0,0,1.8-.767L18.1,2.249a13.032,13.032,0,0,0,1.217-.82L20.954.079V0h-.079L19.34.688l-.079.026-.582.265-.159.053-.159.079-1.243.5Z" fill="#dad0c5"/>
            </g>
          </g>
          <g id="Group_105949" data-name="Group 105949" transform="translate(28.997 1.906)">
            <g id="Group_105948" data-name="Group 105948" transform="translate(0 0)">
              <path id="Path_76340" data-name="Path 76340" d="M22.25,13.335a19.219,19.219,0,0,0,8.36-3.916,16.817,16.817,0,0,0,2.725-2.884,9.177,9.177,0,0,0,1.534-3.36q-.212-1.349-1.27-1.429a2.213,2.213,0,0,0-2.011,1.243,18.256,18.256,0,0,1-3.36,3.545,10.981,10.981,0,0,1-3.519,1.9,24.025,24.025,0,0,1-3.969.9,15.442,15.442,0,0,1-9.128-1.085A15.224,15.224,0,0,1,4.842,2.488,5.341,5.341,0,0,0,3.677.715,2.412,2.412,0,0,0,1.878,0Q.82,0,0,1.509A25.954,25.954,0,0,0,4.18,8.335a14.424,14.424,0,0,0,8.837,5.08A22.313,22.313,0,0,0,22.25,13.335Z" fill="#7a2230"/>
            </g>
          </g>
          <g id="Group_105951" data-name="Group 105951" transform="translate(29.081 3.526)">
            <g id="Group_105950" data-name="Group 105950" transform="translate(0 0)">
              <path id="Path_76341" data-name="Path 76341" d="M19.52,12.191q1.005-.106,2.408-.344l2.8-.741,1.587-.688.317-.185q.079,0,.026-.053,0-.079-.053-.026l-.106.026-.423.159-.212.053-.132.053-.423.106q-.317.106-1.508.37L18.2,11.4l-3.069-.185-2.46-.476-1.376-.423A19.613,19.613,0,0,1,8.673,9.149L7.482,8.434q-.661-.45-1.111-.82l-.159-.079-.106-.106-.265-.212L3.381,4.783.1.048Q.1-.032.048.021q-.079,0-.026.053L.55,1.344q.45.952.714,1.4L2.323,4.519A19.889,19.889,0,0,0,3.8,6.45l.926.979a11.889,11.889,0,0,0,1.032.926,12.928,12.928,0,0,0,1.164.9l1.243.794,2.778,1.27a24.247,24.247,0,0,0,2.963.741l.714.106L18.2,12.3Z" fill="#4b0f18"/>
            </g>
          </g>
          <g id="Group_105953" data-name="Group 105953" transform="translate(46.802 80.087)">
            <g id="Group_105952" data-name="Group 105952" transform="translate(0 0)">
              <path id="Path_76342" data-name="Path 76342" d="M3.175,2.381v.794h.794m-.794,0v.794M6.35,3.175,3.175,6.35,0,3.175,3.175,0Zm-3.969,0h.794" fill="none" stroke="rgba(0,0,0,0)" stroke-linecap="round" stroke-linejoin="round" stroke-width="0.075"/>
            </g>
          </g>
        </g>
        <g id="Group_105973" data-name="Group 105973" transform="matrix(0.805, -0.593, 0.593, 0.805, 0, 147.226)">
          <g id="Group_105956" data-name="Group 105956" transform="translate(1.27 43.088)">
            <g id="Group_105955" data-name="Group 105955" transform="translate(0 0)">
              <path id="Path_76343" data-name="Path 76343" d="M18.385,33.352A176.144,176.144,0,0,0,25.263,3.558L5.238,0Q2.053,15.49,0,30.731Z" fill="#80553c"/>
            </g>
          </g>
          <g id="Group_105958" data-name="Group 105958" transform="translate(1.243 66.048)">
            <g id="Group_105957" data-name="Group 105957" transform="translate(0 0)">
              <path id="Path_76344" data-name="Path 76344" d="M18.729,8.285a7.572,7.572,0,0,0-2.751-5.875A9.631,9.631,0,0,0,9.365,0a9.729,9.729,0,0,0-6.64,2.411A7.6,7.6,0,0,0,0,8.285a7.532,7.532,0,0,0,2.725,5.851,9.674,9.674,0,0,0,6.64,2.434,9.577,9.577,0,0,0,6.613-2.434A7.5,7.5,0,0,0,18.729,8.285Z" fill="#80553c"/>
            </g>
          </g>
          <g id="Group_105961" data-name="Group 105961" transform="translate(5.079 40.163)">
            <g id="Group_105960" data-name="Group 105960" transform="translate(0 0)">
              <g id="Group_105959" data-name="Group 105959">
                <path id="Path_76345" data-name="Path 76345" d="M1.667,0,0,9.619a34.506,34.506,0,0,0,20.449,3.394l1.772-8.894Z" fill="#684633"/>
              </g>
            </g>
          </g>
          <g id="Group_105963" data-name="Group 105963" transform="translate(16.772 0)">
            <g id="Group_105962" data-name="Group 105962" transform="translate(0 0)">
              <path id="Path_76346" data-name="Path 76346" d="M31.057,13.739a12.52,12.52,0,0,0-4.55-9.713A16,16,0,0,0,15.528,0,16,16,0,0,0,4.55,4.026a12.642,12.642,0,0,0,0,19.426,16,16,0,0,0,10.978,4.026,16,16,0,0,0,10.978-4.026A12.52,12.52,0,0,0,31.057,13.739Z" fill="#7a2230"/>
            </g>
          </g>
          <g id="Group_105965" data-name="Group 105965" transform="translate(0.053 3.745)">
            <g id="Group_105964" data-name="Group 105964" transform="translate(0 0)">
              <path id="Path_76347" data-name="Path 76347" d="M36.4,45.405q5.57-21.047,10.952-32.182L21.586,0Q12.486,7.092,0,40.069,12.592,52.169,36.4,45.405Z" fill="#7a2230"/>
            </g>
          </g>
          <g id="Group_105968" data-name="Group 105968" transform="translate(0 6.858)">
            <g id="Group_105967" data-name="Group 105967" transform="translate(0 0)">
              <g id="Group_105966" data-name="Group 105966">
                <path id="Path_76348" data-name="Path 76348" d="M11.481,10.626A214.66,214.66,0,0,0,0,37Q12.1,48.808,35.554,42.48q-26.4,1.334-29.866-7.138Q3.571,30.192,18.465,0A59,59,0,0,0,11.481,10.626Z" fill="#4b0f18"/>
              </g>
            </g>
          </g>
          <g id="Group_105970" data-name="Group 105970" transform="translate(38.892 18.494)">
            <g id="Group_105969" data-name="Group 105969" transform="translate(0 0)">
              <path id="Path_76349" data-name="Path 76349" d="M7.825.042,7.455.51,7.349.674,7.19.861l-.661.983-.079.14-.106.14-2.3,4.4L1.555,13.617.048,21.551l-.026.257q-.053.047.026.047L.1,21.832,4.571,7.766,6.9,2.172l.053-.164L7.56.768,7.666.6,7.9.066Q7.957.019,7.878.019,7.825-.028,7.825.042Z" fill="#4b0f18"/>
            </g>
          </g>
          <g id="Group_105972" data-name="Group 105972" transform="translate(29.126 10.93)">
            <g id="Group_105971" data-name="Group 105971" transform="translate(0 0)">
              <path id="Path_76350" data-name="Path 76350" d="M3.174,2.106v.7h.794m-.794,0v.7m3.174-.7L3.174,5.617,0,2.809,3.174,0Zm-3.968,0h.794" transform="translate(0)" fill="none" stroke="rgba(0,0,0,0)" stroke-linecap="round" stroke-linejoin="round" stroke-width="0.071"/>
            </g>
          </g>
        </g>
        <g id="Group_105982" data-name="Group 105982" transform="matrix(-0.925, -0.381, 0.381, -0.925, 67.082, 209.426)">
          <g id="Group_105975" data-name="Group 105975" transform="translate(0.08 0.952)">
            <g id="Group_105974" data-name="Group 105974" transform="translate(0 0)">
              <path id="Path_76351" data-name="Path 76351" d="M7.645,5.079A380.011,380.011,0,0,0,1.984,49.31,132.163,132.163,0,0,1,0,64.786l12.38,2.672a126.646,126.646,0,0,1,4.973-19.682q2.91-8.439,7.09-21.428,4.18-13.015,3.809-18.094A37.327,37.327,0,0,0,26.93,0L8.465,1.138Q8.016,3.122,7.645,5.079Z" fill="#80553c"/>
            </g>
          </g>
          <g id="Group_105977" data-name="Group 105977" transform="translate(0 60.139)">
            <g id="Group_105976" data-name="Group 105976" transform="translate(0 0)">
              <path id="Path_76352" data-name="Path 76352" d="M12.705,6.353a6.119,6.119,0,0,0-1.863-4.49A6.119,6.119,0,0,0,6.353,0a6.119,6.119,0,0,0-4.49,1.863A6.119,6.119,0,0,0,0,6.353a6.119,6.119,0,0,0,1.863,4.49,6.119,6.119,0,0,0,4.49,1.863,6.119,6.119,0,0,0,4.49-1.863A6.119,6.119,0,0,0,12.705,6.353Z" transform="translate(0 0)" fill="#80553c"/>
            </g>
          </g>
          <g id="Group_105979" data-name="Group 105979" transform="translate(0.958 6.063)">
            <g id="Group_105978" data-name="Group 105978" transform="translate(0 0)">
              <path id="Path_76353" data-name="Path 76353" d="M6.555,2.4,6.873.074Q6.926.021,6.846.021q-.053-.053-.053.026L4.042,14.809,2.376,27.136.021,54.437q-.053.053.026.053L.1,54.463,6.476,2.984Q6.529,2.587,6.555,2.4Z" fill="#684633"/>
            </g>
          </g>
          <g id="Group_105981" data-name="Group 105981" transform="translate(14.656 0)">
            <g id="Group_105980" data-name="Group 105980" transform="translate(0 0)">
              <path id="Path_76354" data-name="Path 76354" d="M3.174,2.381v.794h.794m-.794,0v.794m3.174-.794L3.174,6.349,0,3.174,3.174,0Zm-3.968,0h.794" fill="none" stroke="rgba(0,0,0,0)" stroke-linecap="round" stroke-linejoin="round" stroke-width="0.075"/>
            </g>
          </g>
        </g>
        <g id="Group_106011" data-name="Group 106011" transform="translate(94.013 173.445) rotate(-117.089)">
          <g id="Group_105988" data-name="Group 105988" transform="translate(22.006 16.869)">
            <g id="Group_105984" data-name="Group 105984" transform="translate(5.364 0.661)">
              <g id="Group_105983" data-name="Group 105983" transform="translate(0 0)">
                <path id="Path_76355" data-name="Path 76355" d="M10.007,3.016,2.414,0a15.831,15.831,0,0,1-.926,8.016Q-.1,12.434.007,12.963q.767,4.074,2.725,4.18,1.931.106,2.487-3.333a21.922,21.922,0,0,1,1.8-5.635A41.062,41.062,0,0,1,10.007,3.016Z" transform="translate(0)" fill="#80553c"/>
              </g>
            </g>
            <g id="Group_105987" data-name="Group 105987" transform="translate(0 0)">
              <g id="Group_105986" data-name="Group 105986">
                <g id="Group_105985" data-name="Group 105985">
                  <path id="Path_76356" data-name="Path 76356" d="M10.662,0,6.138.106,0,13.36l7.778,4.6a4.92,4.92,0,0,1-1.005-1.931,4.469,4.469,0,0,1-.132-1.958q1.005-5.053,1.693-7.7Q9.577,1.508,10.662,0Z" fill="#684633"/>
                </g>
              </g>
            </g>
          </g>
          <g id="Group_106008" data-name="Group 106008" transform="matrix(-0.452, 0.892, -0.892, -0.452, 50.472, 25.119)">
            <g id="Group_105991" data-name="Group 105991" transform="translate(0 0)">
              <g id="Group_105990" data-name="Group 105990" transform="translate(0 0)">
                <g id="Group_105989" data-name="Group 105989">
                  <path id="Path_76357" data-name="Path 76357" d="M29.319,1.268Q29.3.729,24.795.373,20.68.041,14.858.006,8.908-.04,4.816.258.21.58,0,1.211,1.029,7.244,2.642,19.289T5.284,37.356a56.623,56.623,0,0,0,9.34.665,33.569,33.569,0,0,0,9.446-.849Z" fill="#c3dbf3"/>
                </g>
              </g>
            </g>
            <g id="Group_105993" data-name="Group 105993" transform="translate(2.759 10.007)">
              <g id="Group_105992" data-name="Group 105992" transform="translate(0 0)">
                <path id="Path_76358" data-name="Path 76358" d="M20.259,24.7,23.871,0A59.2,59.2,0,0,1,0,0Q.485,3.436,1.04,7.582q1.506,11.234,2.5,17.229a65.434,65.434,0,0,0,8.347.5A36.7,36.7,0,0,0,20.259,24.7Z" transform="translate(0 1.55)" fill="rgba(102,204,255,0.5)"/>
                <path id="Path_76359" data-name="Path 76359" d="M23.871,1.55Q22.579,1.2,21.264.931A46.456,46.456,0,0,0,3.519.782Q1.768,1.1,0,1.55A59.2,59.2,0,0,0,23.871,1.55Z" transform="translate(0 0)" fill="rgba(65,174,228,0.5)"/>
              </g>
            </g>
            <g id="Group_105996" data-name="Group 105996" transform="translate(5.424 38.021)">
              <g id="Group_105995" data-name="Group 105995" transform="translate(0 0)">
                <g id="Group_105994" data-name="Group 105994" transform="translate(0)">
                  <path id="Path_76360" data-name="Path 76360" d="M13,3.5a7.687,7.687,0,0,0,3.285-.837q1.274-1,1.379-1.113A3.854,3.854,0,0,0,18.435,0q-2.63.837-9.224.883Q6.885.872,4.875.734A22.426,22.426,0,0,1,0,0,4.9,4.9,0,0,0,3.8,3.269a18.316,18.316,0,0,0,5.413.4A24.715,24.715,0,0,0,13,3.5Z" fill="url(#linear-gradient)"/>
                </g>
              </g>
            </g>
            <g id="Group_105999" data-name="Group 105999" transform="translate(5.179 36.679)">
              <g id="Group_105998" data-name="Group 105998" transform="translate(0 0)">
                <g id="Group_105997" data-name="Group 105997" transform="translate(0)">
                  <path id="Path_76361" data-name="Path 76361" d="M17.617,1.744a3.484,3.484,0,0,0,1.111-.39,4.317,4.317,0,0,0,.164-.814q.058-.5.07-.539A6.5,6.5,0,0,1,15.63,1.067a48.03,48.03,0,0,1-5.752.264q-4.1,0-6.055-.2A7.422,7.422,0,0,1,0,.011,10.547,10.547,0,0,0,.245,1.342q1.181.86,7.645,1.009A41.045,41.045,0,0,0,17.617,1.744Z" fill="#d2d4d5"/>
                </g>
              </g>
            </g>
            <g id="Group_106002" data-name="Group 106002" transform="translate(0 1.153)">
              <g id="Group_106001" data-name="Group 106001" transform="translate(0 0)">
                <g id="Group_106000" data-name="Group 106000">
                  <path id="Path_76362" data-name="Path 76362" d="M29.319,0h-.257a.023.023,0,0,1-.012.011q-.236.385-3.9.711Q20.867,1.1,14.683,1.1T4.22.723Q.553.385.3.011L.327,0H.012L0,.057Q0,.3.549.47a20.115,20.115,0,0,0,3.834.551q4.337.344,10.276.344t10.287-.344A20.054,20.054,0,0,0,28.769.47q.549-.172.549-.413Z" fill="#fff"/>
                </g>
              </g>
            </g>
            <g id="Group_106005" data-name="Group 106005" transform="translate(0.012 1.268)">
              <g id="Group_106004" data-name="Group 106004">
                <g id="Group_106003" data-name="Group 106003">
                  <path id="Path_76363" data-name="Path 76363" d="M1.005.459A2.23,2.23,0,0,1,0,0L5.249,35.9l.924.287Z" fill="url(#linear-gradient-2)"/>
                </g>
              </g>
            </g>
            <g id="Group_106007" data-name="Group 106007" transform="translate(2.665 3.161)">
              <g id="Group_106006" data-name="Group 106006">
                <path id="Path_76364" data-name="Path 76364" d="M6.371.665Q1.24.649,0,0A277.116,277.116,0,0,0,4.372,32.91l3.449.149Q3.611,15.536,6.371.665Z" fill="rgba(255,255,255,0.3)"/>
              </g>
            </g>
          </g>
          <g id="Group_106010" data-name="Group 106010" transform="translate(4.386 0)">
            <g id="Group_106009" data-name="Group 106009" transform="translate(0 0)">
              <path id="Path_76365" data-name="Path 76365" d="M32.778,3.977q.026-.344.026-.688l-.053.688h.026m-22.593-2.3Q8.863,5.088,7.434,10.141A24.83,24.83,0,0,1,4.048,18a4.806,4.806,0,0,0,2.566-1.323l3.571-15m5.556,3.042A4.644,4.644,0,0,1,15.847,4,126.663,126.663,0,0,1,8.122,23.157a5.54,5.54,0,0,0,2.169-1.243A78.407,78.407,0,0,0,15.582,5.352l.159-.635M2.831,13.025q.132-.423.291-.873L6.64,2.522Q4.868,5.538,4.074,7.178a44.667,44.667,0,0,0-1.667,4.736l-.212.317a1.179,1.179,0,0,1-1.4.185,4.931,4.931,0,0,1-.608-.344H.132L0,11.993A3.881,3.881,0,0,0,1.4,13.21a2.194,2.194,0,0,0,1.429-.185M26.164.008A2.477,2.477,0,0,0,23.81,1.12a31.4,31.4,0,0,0-2.7,5.106,20.166,20.166,0,0,0-1.534,5.318Q19.26,14.109,19,16.675q-.265,2.646-.767,5.238a8.762,8.762,0,0,0,1.958-5.132,20.081,20.081,0,0,1,.767-4.894q.847-2.831,1.931-5.556,1.032-2.46,2.249-4.894L32.725,3.95q-.714-.794-1.4-1.534A7.748,7.748,0,0,0,26.164.008Z" transform="translate(0.291 16.648)" fill="#684633"/>
              <path id="Path_76366" data-name="Path 76366" d="M33.1,18.112a34.9,34.9,0,0,0-.185-3.677,24.063,24.063,0,0,0-1.984-8.281A11.076,11.076,0,0,0,24.5.175Q23.334-.46,17.566,1.207q-3.571.979-6.9,5.45-.132.159-.291.37Q7.2,11.683,4.18,16.63A30.147,30.147,0,0,0,0,27.689a3.3,3.3,0,0,0,.212.82q.026,0,.079.079a.472.472,0,0,0,.132.132H.476a4.931,4.931,0,0,0,.608.344,1.179,1.179,0,0,0,1.4-.185l.212-.317a44.667,44.667,0,0,1,1.667-4.736q.794-1.64,2.566-4.656L3.413,28.8q-.159.45-.291.873-.529,1.534-.873,2.672.661,2.407,2.09,2.3a24.83,24.83,0,0,0,3.386-7.857q1.429-5.053,2.751-8.466l-3.571,15Q5.318,37.4,6.164,39.065a1.73,1.73,0,0,0,.106.185,1.955,1.955,0,0,0,2.143.556,126.663,126.663,0,0,0,7.725-19.154,4.644,4.644,0,0,0-.106.714L15.873,22a62.334,62.334,0,0,0-1.217,16.455q.979,1.614,3.862.106.5-2.593.767-5.238.265-2.566.582-5.132A20.166,20.166,0,0,1,21.4,22.874a31.4,31.4,0,0,1,2.7-5.106,2.477,2.477,0,0,1,2.355-1.111,7.748,7.748,0,0,1,5.159,2.407q.688.741,1.4,1.534A19.284,19.284,0,0,0,33.1,18.112Z" fill="#80553c"/>
            </g>
          </g>
        </g>
        <g id="Group_106016" data-name="Group 106016" transform="translate(64.037 72.33) rotate(7.922)">
          <g id="Group_106013" data-name="Group 106013" transform="translate(0 0)">
            <g id="Group_106012" data-name="Group 106012">
              <path id="Path_76367" data-name="Path 76367" d="M21.244,30.054l.079-6.64a15.281,15.281,0,0,1-2.487-1.005,35.963,35.963,0,0,1-4.947-3.148,43.36,43.36,0,0,1-4.471-3.889,24.109,24.109,0,0,1-3.677-4.762Q4.127,7.91,2.91,5.4A46.635,46.635,0,0,1,.688,0L0,29.737Z" transform="translate(0 17.884)" fill="#80553c"/>
              <path id="Path_76368" data-name="Path 76368" d="M20.451,9.392h-.132a9.7,9.7,0,0,0-2.937-6.429A9.735,9.735,0,0,0,10.239,0a9.854,9.854,0,0,0-7.2,2.963,9.811,9.811,0,0,0-2.937,7.17q0,.291.026.582L0,17.884a46.635,46.635,0,0,0,2.222,5.4q1.217,2.513,2.831,5.212a24.109,24.109,0,0,0,3.677,4.762A43.359,43.359,0,0,0,13.2,37.144a35.963,35.963,0,0,0,4.947,3.148A15.282,15.282,0,0,0,20.636,41.3Z" transform="translate(0.688 0)" fill="#684633"/>
            </g>
          </g>
          <g id="Group_106015" data-name="Group 106015" transform="translate(6.588 50.928)">
            <g id="Group_106014" data-name="Group 106014" transform="translate(0 0)">
              <path id="Path_76369" data-name="Path 76369" d="M3.175,2.381v.794h.794m-.794,0v.794m3.175-.794L3.175,6.349,0,3.175,3.175,0Zm-3.968,0h.794" transform="translate(0 0)" fill="none" stroke="rgba(0,0,0,0)" stroke-linecap="round" stroke-linejoin="round" stroke-width="0.075"/>
            </g>
          </g>
        </g>
        <g id="Group_106105" data-name="Group 106105" transform="translate(64.916 0) rotate(16.671)">
          <g id="Group_106017" data-name="Group 106017" transform="translate(22.08 67.835)">
            <path id="Path_76370" data-name="Path 76370" d="M20.253,10.126a9.71,9.71,0,0,1-2.974,7.153,9.71,9.71,0,0,1-7.153,2.974,9.774,9.774,0,0,1-7.172-2.974A9.742,9.742,0,0,1,0,10.126,9.807,9.807,0,0,1,2.954,2.954,9.807,9.807,0,0,1,10.126,0a9.742,9.742,0,0,1,7.153,2.954A9.774,9.774,0,0,1,20.253,10.126Z" transform="translate(0 0)" fill="none" stroke="red" stroke-linecap="round" stroke-linejoin="round" stroke-width="0.075"/>
          </g>
          <g id="Group_106023" data-name="Group 106023" transform="translate(10.133 19.154)">
            <g id="Group_106019" data-name="Group 106019" transform="translate(0 0)">
              <g id="Group_106018" data-name="Group 106018" transform="translate(0)">
                <path id="Path_76371" data-name="Path 76371" d="M52.938,9.074A29.88,29.88,0,0,0,31.006,0,29.88,29.88,0,0,0,9.074,9.074,29.88,29.88,0,0,0,0,31.006,29.835,29.835,0,0,0,4.736,47.594l.026.132Q15.9,63.313,31.747,65.372q18.734,1.841,29.234-12.7l.688-16.641-.159.661a31.423,31.423,0,0,0,.5-5.688A29.88,29.88,0,0,0,52.938,9.074Z" fill="#80553c"/>
              </g>
            </g>
            <g id="Group_106022" data-name="Group 106022" transform="translate(21.72 13.672)">
              <g id="Group_106021" data-name="Group 106021" transform="translate(0 0)">
                <g id="Group_106020" data-name="Group 106020" transform="translate(0 0)">
                  <path id="Path_76372" data-name="Path 76372" d="M24.895,9.688a4.851,4.851,0,0,0,3.545-2.3A7,7,0,0,0,29.392,5.4q.5,4.286,5.212,4.656a4.1,4.1,0,0,0,3.942-1.931,4.9,4.9,0,0,0,.979-3.439q-.688-.873-20.08-3.1Q0-.656,0,.27A10.6,10.6,0,0,0,2.593,7.731,7.869,7.869,0,0,0,7.566,10.3a10.616,10.616,0,0,0,8.1-2.037,12.846,12.846,0,0,0,2.831-3.122,6.559,6.559,0,0,0,2.328,3.545A5.564,5.564,0,0,0,24.895,9.688Z" fill="#684633"/>
                </g>
              </g>
            </g>
          </g>
          <g id="Group_106028" data-name="Group 106028" transform="translate(20.027 64.923)">
            <g id="Group_106025" data-name="Group 106025" transform="translate(0 0)">
              <g id="Group_106024" data-name="Group 106024" transform="translate(0 0)">
                <path id="Path_76373" data-name="Path 76373" d="M0,1.138Q1.164,18.916,7.778,25.98,16.165,36.721,24.419,39.1t11.429.026q6.746-11.111,12.884-20.4Q54.869,9.418,50.319,0Z" fill="#80553c"/>
              </g>
            </g>
            <g id="Group_106027" data-name="Group 106027" transform="translate(12.818 31.654)">
              <g id="Group_106026" data-name="Group 106026" transform="translate(0 0)">
                <path id="Path_76374" data-name="Path 76374" d="M27.078.913q.079-.079-.026-.079H27l-2.91,3.942-.026.079-.026.053-.079.106q-.529.714-.688.9l-.741.741-.132.106-.053.053-.053.026-.37.291-.529.291-.556.185a2.888,2.888,0,0,1-.608.106h-.079l-.053.026h-.529l-5.609-.529-.079-.026H13.77l-2.91-.714-.026-.026h-.053l-.794-.265A12.847,12.847,0,0,1,8.638,5.7l-.661-.265-.159-.079-.079-.026-.079-.053L6.151,4.511Q5.2,3.982,4.035,3.241L2.315,2.05.146.093.093.013Q.066-.013.013.013q-.026.053,0,.079L.066.172,1.495,1.68,3.823,3.558q1.243.873,2.09,1.376A13.207,13.207,0,0,0,7.1,5.622l.291.185.079.026,2.3,1.005.714.238.079.053h.053l.053.026,2.937.82h.053L13.691,8h.026l.079.026,3.439.582q.529.053,1.534.159l1.534.053A4.338,4.338,0,0,0,21.866,8.4l.661-.4L23,7.58l.079-.053.926-1.005a8.14,8.14,0,0,0,.661-1.085l.159-.265.106-.238Z" fill="#9f7b67"/>
              </g>
            </g>
          </g>
          <g id="Group_106051" data-name="Group 106051" transform="translate(0 0)">
            <g id="Group_106030" data-name="Group 106030" transform="translate(9.021 39.78)">
              <g id="Group_106029" data-name="Group 106029" transform="translate(0 0)">
                <path id="Path_76375" data-name="Path 76375" d="M0,4.428q.238,4.894.741,8.783.265,2.011.556,3.6A8.07,8.07,0,0,1,7.7,19.4q3.6,3.413,4.709,9.789a123.781,123.781,0,0,0,.741-15.159A61.584,61.584,0,0,1,14.445.169q-1.587-.661-7.011,1.27Q6.64,1.7,0,4.428Z" fill="url(#linear-gradient-3)"/>
              </g>
            </g>
            <g id="Group_106032" data-name="Group 106032" transform="translate(0 0.192)">
              <g id="Group_106031" data-name="Group 106031" transform="translate(0 0)">
                <path id="Path_76376" data-name="Path 76376" d="M51.88,1.74A8.44,8.44,0,0,0,48.652.285a12.357,12.357,0,0,0-5.4.026,7.123,7.123,0,0,0-4.048,3.042Q38.573.39,35.848.761T31.562,4.517a2.2,2.2,0,0,0-1.27-.714,2.433,2.433,0,0,0-1.482.212,3.73,3.73,0,0,0-1.376.979,2.609,2.609,0,0,0-.608,1.534A3.787,3.787,0,0,0,24.816,4.6a4.742,4.742,0,0,0-4.312.185,6.484,6.484,0,0,0-3.042,2.7,5.253,5.253,0,0,0-.582,3.439,12.052,12.052,0,0,0-4.55.635A7.667,7.667,0,0,0,8.6,13.83a12.8,12.8,0,0,0-2.672,5.185,10.128,10.128,0,0,0,.053,5.238q-1.4.45-3.175,2.963A17.032,17.032,0,0,0,.291,32.3a7.713,7.713,0,0,0,.873,6.111,42.731,42.731,0,0,0,3.042,4.577,7.435,7.435,0,0,0,1.455,5.45,10.186,10.186,0,0,0,3.995,3.73l.238-2.09a8.391,8.391,0,0,1,1.561-4.312,5.011,5.011,0,0,0,5.318,1.984,3.892,3.892,0,0,0,2.857-2.619,34.05,34.05,0,0,0,1.111-4.762A5.133,5.133,0,0,0,23.81,41.82a7.556,7.556,0,0,0,3.624-.45,10.462,10.462,0,0,0,4.418-3.889q.661-1.534,1.005-2.46-.053,2.434,3.042,4.736a13.555,13.555,0,0,0,5.265,2.381,11.974,11.974,0,0,0,5.873-.714,8.5,8.5,0,0,0,3.7-3.73,5.685,5.685,0,0,0,3.413,2.46,6.805,6.805,0,0,0,4.55.291,4.028,4.028,0,0,0,1.931-1.323,4.35,4.35,0,0,0,.714-2.037,4.922,4.922,0,0,0,2.91,4.312,10.723,10.723,0,0,0,3.281.582,4.924,4.924,0,0,0,2.116-.5,3.88,3.88,0,0,0,1.587-1.72,6.683,6.683,0,0,0,4.868,1.058,6.557,6.557,0,0,0,5.5-3.968,7.538,7.538,0,0,0,.37-6.482,7.007,7.007,0,0,0-3.148-3.492A4.388,4.388,0,0,0,80,23.724a4.871,4.871,0,0,0-.608-2.434q-1.746-2.884-5.688-2.672a6.518,6.518,0,0,0,2.751-2.275,5.02,5.02,0,0,0,1.032-4.63Q76.749,9.121,73.468,8.3a10.282,10.282,0,0,0-6.085.317,5.849,5.849,0,0,0-.37-2.7,4.315,4.315,0,0,0-2.355-2.011,6.631,6.631,0,0,0-3.677-.529A4.289,4.289,0,0,0,58.2,5.047,3.173,3.173,0,0,0,56.4,3.83a1.917,1.917,0,0,0-1.376.291,2.352,2.352,0,0,0-.952.9A5.177,5.177,0,0,0,51.88,1.74Z" fill="#140e0e"/>
              </g>
            </g>
            <g id="Group_106036" data-name="Group 106036" transform="translate(0 0)">
              <g id="Group_106033" data-name="Group 106033" transform="translate(38.467 0)">
                <path id="Path_76377" data-name="Path 76377" d="M12.328,38.017l.026.053,1.534,1.64.714.529.714.4.079.053.079.026.661.291.529.159.185.026.185.053h.106l.053.026h.026l.794.053a6.657,6.657,0,0,0,1.614-.212l.185-.053.37-.159.106-.026h.026v-.026h.026l.026-.026.106-.026.026-.026.053-.026.106-.026.767-.5.291-.265a4.164,4.164,0,0,0,.529-.608l.4-.635.132-.344.026-.026v-.026l.026-.026.053-.159V38.1l.026-.053.053-.159v-.053l.026-.053V37.7l.132-.635v-.132l.026-.079v-.767l-.026-.132v-.132l-.026-.106-.106-.635-.106-.317-.026-.132-.053-.106-.026-.106L22.7,34.26v-.053l-.106.026.026.053v.265l.026.132v1.032l-.026.132v.106l-.026.106v.132l-.053.238v.132l-.026.132-.026.053-.026.079-.053.238-.185.476v.026l-.026.026-.053.132v.026l-.026.053-.053.053-.026.079v.026l-.026.053-.5.741-.5.5-.45.317-.476.238-.026.026-.079.026-.053.026h-.026l-.079.026L19.657,40l-.159.053-.82.185-1.376.053-.026-.026H17.2l-.476-.079-.079-.026h-.079l-.159-.053-.159-.026-1.773-.741-1.9-1.243-.132-.106-.053-.026-.053.053M42.647,37.7l-.026.053-.265.265-.079.053-.079.106-.079.079-.344.291-.132.079-.582.423-.37.185-.079.053-.714.291a.639.639,0,0,1-.212.079l-.212.079-.106.053-.106.026-.132.053-.317.079-.079.026L38.679,40l-.238.053h-.026l-.026.026h-.079l-.238.053a5.28,5.28,0,0,1-.926.185l-.476.053-.053.026-1.058.026-.212-.026H35.16l-.4-.053-.106-.026h-.079l-.952-.212-.556-.185-.132-.026-.026-.026-.053.079.053.026.265.265.291.212.582.317.159.106.185.079h.053l.053.026.5.185.45.106h.079l.053.026h.132l.238.053h.238l.079.026h.794l.053-.026h.132l.132-.026h.132l1.085-.212.053-.026H38.7l.026-.026.238-.053.053-.026,1.3-.529.212-.132.106-.053.688-.476.476-.45a3.4,3.4,0,0,0,.45-.608l.106-.132.185-.344.132-.344.026-.132.026-.026-.079-.053M2.778,1.4l-.476.37L2.2,1.878,2.143,1.9l-.873.9-.026.053-.079.079L.873,3.36.82,3.466l-.053.079-.106.212-.053.079L.45,4.127l-.4,1.138-.026.159L0,5.476.079,5.5.106,5.45l.688-.926.053-.053L.9,4.392l.132-.132L1.3,3.942l.053-.079.529-.529.053-.026L2.3,2.99l.079-.079L2.7,2.672l.053-.026L2.8,2.593l.529-.37.238-.132L3.7,2.037l.106-.079.132-.026.344-.185.079-.026.37-.159.079-.026.238-.106.794-.265L7.355.82h.132L7.593.794,8.069.741h.106L8.281.714h.212A2.688,2.688,0,0,1,8.916.688h1.508l.053.026L10.5.608H10.45L10.318.529,10.159.476,10.053.423,8.757.079,8.307.026H8.175L8.069,0,6.455.026,5,.344,4.127.661,3.942.767,3.863.794,2.778,1.4M19.815,8.413l-.053.079-.026.053-.053.026.026.079.053-.026h.159l.053-.026h.053l.132-.026h.159l.106-.026h.661l.185.026.079.026H21.4l.212.106h.026l.053.026.026.026.053.026.291.265.132.185.026.026.026.053.053.053.026.053.053.079.053.106.053.053v.026l.053.106a1.059,1.059,0,0,1,.159.37v.053l.026.026v.106l.026.079v.053l.026.053v.4l-.026.079v.132l-.026.053v.053l-.026.079v.053l-.026.079.053.026.053-.026.053-.053.079-.053.053-.026.026-.053.106-.106.053-.079.026-.026.026-.053a1.717,1.717,0,0,0,.212-.4l.026-.053V10.5l.053-.132.026-.291V9.947l-.026-.159V9.709l-.026-.079-.026-.159-.026-.053-.053-.159V9.207l-.026-.026-.053-.159L23.2,8.889l-.026-.079-.026-.053L23.1,8.7V8.651H23.07V8.625h-.026l-.185-.265L22.593,8.1l-.132-.106-.079-.026-.159-.106-.265-.079a.758.758,0,0,0-.344-.079,2.5,2.5,0,0,0-.608.026l-.132.053-.132.026-.344.159-.238.159-.132.132-.106.079-.053.053Z" transform="translate(0 0)" fill="#493f3f"/>
              </g>
              <g id="Group_106034" data-name="Group 106034" transform="translate(0 10.9)">
                <path id="Path_76378" data-name="Path 76378" d="M9.286,32.7l.079.106.079.159.053.079.053.106,1.032,1.429,1.058,1.111.106.079.106.106.053.026.053.053.741.529.741.37h.026l.82.265.9.159,1.058-.026.556-.106.079-.026h.053l.132-.053h.053l.106-.053h.026l.026-.026.212-.079.053-.026.053-.053.132-.053.476-.37.079-.079.106-.079.212-.212.053-.079.132-.132.4-.476.053-.106.079-.079L19.392,35l.079-.106q.026-.026-.026-.079h-.053L19.154,35l-.106.053-.079.079-.37.238-.132.106-.45.291-.106.053-.079.053-.37.185-.106.026-.079.053-.053.026H17.17l-.106.026-.026.026h-.053l-.079.026h-.026l-.106.026h-.132a3.146,3.146,0,0,1-.476.026h-.5l-1.005-.159-.132-.053-.635-.185-.053-.026H13.81l-.026-.026-.582-.265-1.852-1.3-.159-.159L11.006,34l-.9-.767-.053-.026-.265-.238-.106-.079L9.6,32.805l-.132-.079-.106-.106q-.026-.026-.079.026V32.7M3.069,16.4q.079-.079-.026-.079H2.99L1.8,17.8l-.767,1.323-.238.529-.026.026L.185,21.641l-.026.026v.053l-.026.106-.026.212v.106l-.026.106L0,23.07l.053,1.508.079.635.106.423.026.212.132.5.053.106.106.4.053.079.026.106,1.032,2.09,1.111,1.587.106.106.079.106,1.323,1.349h.079V32.2l-.608-.952-.106-.212-.265-.423L3.307,30.5,2.09,28.1l-.026-.079-.053-.079-.767-2.513-.026-.212-.026-.079v-.106l-.026-.185-.053-.185v-.212a3.93,3.93,0,0,1-.053-.767l-.026-.185v-.37l.026-.212v-.37l.026-.185V22.17l.026-.185.026-.106V21.8l.053-.37.053-.185L1.3,20.9l.212-.847.026-.079.026-.053v-.026l.317-.926L3.069,16.4M16.932.423a3.736,3.736,0,0,1,.5-.026l.979-.053a.047.047,0,0,0,.053-.053L18.44.265,17.884.159,16.323,0l-1.3.026L13.069.344l-1.4.476-.476.212L9.365,2.169l-.344.265L7.646,3.81l-.5.661V4.5H7.117l-.026.026-.026.053-.132.185v.026L6.9,4.815,6.191,6.005l-.212.5a3.869,3.869,0,0,0-.37,1.005l-.079.238-.053.265L5.4,8.254l-.026.265-.026.053v.053l-.026.132v.132L5.238,9.5l.106,1.8.265,1.138.053.159.079.159a5.062,5.062,0,0,0,.5,1.032l.556.847q.053.026.079,0v-.079l-.238-.5-.053-.185-.079-.185a6.617,6.617,0,0,1-.317-1.058l-.053-.159-.132-.873V11.4l-.026-.185L6.005,10l.026-.106V9.789l.026-.106V9.577L6.244,8.7a5.529,5.529,0,0,1,.265-.9,8.672,8.672,0,0,1,.847-1.773l.053-.106.344-.5L7.8,5.371l.026-.053.079-.106.026-.053.026-.026V5.106H7.99L8.466,4.5l.079-.079A12.271,12.271,0,0,1,10,2.99l.794-.608.106-.053.291-.212,1.164-.608.106-.026.212-.106.635-.238.106-.026.106-.053,2.3-.529h.106L16.006.5,16.641.45h.079L16.8.423h.132M35.795,19.5l-.159-.106-.053-.053-.079-.026-.159-.106-.079.026v.053l.053.079.053.159.053.053.159.344.159.529V20.5l.026.079.026.238v.529l-.053.291-.053.132v.079l-.026.026v.026l-.026.079v.026l-.026.026-.053.185v.026l-.026.026-.132.344-.317.45-.291.291-.476.291-.582.265-.106.026-.635.212h-.053l-.106.053-.079.026a.047.047,0,0,0-.053.053l.026.026.106.053.106.026h.053l.079.026.635.079a.344.344,0,0,0,.265,0h.159l.476-.079.529-.185.079-.053.079-.026.079-.053.106-.053.317-.265.4-.476.344-.661v-.053l.026-.053.053-.159v-.053l.026-.053.026-.106v-.053l.026-.053v-.106l.026-.185v-.582l-.026-.106v-.079l-.026-.106v-.053l-.026-.026-.106-.344-.053-.079-.026-.079-.026-.053-.132-.212L36.245,20l-.026-.053-.106-.132Z" transform="translate(0 0)" fill="#493f3f"/>
              </g>
              <g id="Group_106035" data-name="Group 106035" transform="translate(34.71 7.91)">
                <path id="Path_76379" data-name="Path 76379" d="M1.72,0h-.37L.873.159.767.238.317.661l-.265.476-.026.106L0,1.3l.026.079H.079l.053-.053L.212,1.3l.37-.212L.82,1.005.9.952,1.085.926,1.111.9h.106L1.243.873,1.429.9h.053l.053.026h.026l.159.079.079.026.079.053.079.079.053.026.317.317.026.053.053.026.026.053.026.026.053.106L2.54,1.8l.053.079.053.185.026.026V2.2l.026.053v.106h.026v.423H2.7v.079l-.026.053v.026l-.026.053v.079L2.619,3.1l-.238.423-.053.053.026.079H2.46l.106-.026.106-.053.291-.185.053-.026.026-.026L3.1,3.307l.132-.132.079-.106V3.042l.026-.026.026-.079.079-.106.106-.317V2.407h.026V2.249L3.6,2.143V1.984L3.572,1.9l-.053-.37-.053-.159L3.413,1.3l-.026-.079L3.122.82,2.963.661a3.263,3.263,0,0,0-.529-.45L2.275.132Z" transform="translate(0 0)" fill="#493f3f"/>
              </g>
            </g>
            <g id="Group_106038" data-name="Group 106038" transform="translate(19.953 32.911)">
              <g id="Group_106037" data-name="Group 106037" transform="translate(0 0)">
                <path id="Path_76380" data-name="Path 76380" d="M12.852.026,12.8.265,12.72.873l-.291,1.191a.659.659,0,0,1-.079.291l-.291.926-.079.159-.053.159-.053.079-.053.159-.212.423a6.2,6.2,0,0,1-.82,1.323l-.5.608-.053.026-.582.529L9.6,6.773l-.106.106-.106.053-.423.317-.741.423-.079.053-.106.026-.185.106-.291.106-.106.053-.106.026L7.244,8.1l-.608.185-.026.026H6.556l-1.534.265a6.05,6.05,0,0,1-1.508-.079l-.185-.026L2.984,8.36H2.878l-.026-.026H2.8L2.4,8.2l-.079-.053L2.191,8.1,1.661,7.8l-.079-.026-.053-.053L1.476,7.7l-.053-.053-.212-.159A5.834,5.834,0,0,1,.55,6.826L.1,6.138q0-.079-.053-.026-.079,0-.026.053l.132.476.159.344.053.079.053.106.132.212L.6,7.487l.053.053.026.053L.762,7.7l.476.5.212.159.053.053.37.265.159.079.079.053.45.212.026.026H2.64L2.72,9.1l.185.053.106.053.317.079a5.96,5.96,0,0,0,1.72.238l1.4-.132.344-.079.053-.026h.079l.661-.212.132-.026.212-.106.106-.026L8.7,8.6q.212-.106.847-.476l.185-.159.212-.132.079-.079.185-.132.053-.053.053-.026.344-.317.159-.185.106-.079V6.931l.026-.026L11,6.879l.159-.185.053-.079.37-.476A7.607,7.607,0,0,0,12.376,4.6l.053-.212.079-.185V4.18l.026-.053.185-.635.026-.185.053-.185.106-.661L13.011.9,12.932.053A.047.047,0,0,0,12.879,0Z" transform="translate(0)" fill="#493f3f"/>
              </g>
            </g>
            <g id="Group_106040" data-name="Group 106040" transform="translate(26.694 3.545)">
              <g id="Group_106039" data-name="Group 106039" transform="translate(0 0)">
                <path id="Path_76381" data-name="Path 76381" d="M3.016.026H2.937L2.751,0,2.566.026H2.407L2.222.053a2.965,2.965,0,0,0-.661.238H1.534L1.482.317,1.429.37,1.349.4,1.27.45,1.191.529H1.164L1.138.556,1.032.635.794.873.45,1.349l-.132.238-.185.476L.079,2.3l-.026.053v.053l-.026.106L0,2.725v.714L.026,3.6V3.7l.053.291.053.159.053.026.026-.053L.37,3.333l.053-.159V3.1L.5,2.831.741,2.3a2.593,2.593,0,0,1,.5-.661l.185-.185.053-.026.079-.079.132-.079H1.72l.053-.026L1.8,1.217,1.9,1.164h.026l.026-.026.212-.053H2.2l.026-.026h.106l.053-.026h.344l.106.026a1.684,1.684,0,0,1,.45.106l.132.053h.053l.159.079.106.079h.053L3.81,1.4l.053.026.053.053h.053v.026h.026l.661.45.5.45.106.079.053.053.026.053.106.079.529.582.106.079,1.3,1.587.053.053.053.079.423.529.106.106q0,.026.079.026V5.662L7.91,5.132,7.3,3.783a4.665,4.665,0,0,0-.5-.847l-.053-.106-.317-.45-.106-.106-.582-.688L4.789.767,4.524.608V.582q0,.026-.026,0L4.471.556,4.392.529,4.339.476H4.312L4.286.45H4.259L3.942.291,3.783.238,3.624.159,3.466.106H3.36L3.2.053H3.122Z" fill="#493f3f"/>
              </g>
            </g>
            <g id="Group_106042" data-name="Group 106042" transform="translate(4.104 42.989)">
              <g id="Group_106041" data-name="Group 106041" transform="translate(0 0)">
                <path id="Path_76382" data-name="Path 76382" d="M1.624,4.32l-.056-.092L.311.475.277.294.168,0,.091,0,.07.054.025.306l0,.108L0,.5.026,2.456l.2,1.089.036.109.016.127.162.456a4.521,4.521,0,0,0,.364.912l.76,1.3.094.093L1.68,6.6l.038.037.169.2a5.936,5.936,0,0,0,.641.666l.151.148.779.579.1.056.057.056.287.133.114.075.671.287.038.037L4.761,8.8l-.038-.037-.056-.092-.6-.593L3.97,7.954l-.113-.111L3.744,7.7l-.113-.111L3.05,6.829l-.076-.074L2.323,5.746l-.092-.2L2.064,5.27l-.055-.128L1.9,4.959Z" transform="translate(0 0)" fill="#493f3f"/>
              </g>
            </g>
            <g id="Group_106044" data-name="Group 106044" transform="translate(53.947 3.836)">
              <g id="Group_106043" data-name="Group 106043" transform="translate(0 0)">
                <path id="Path_76383" data-name="Path 76383" d="M4.224.979,3.955.661,3.605.37,3.223.159,3.093.132l-.1-.053-.1-.026H2.754L2.677.026H2.571L2.467,0H2.256L2.148.026H1.936L1.558.132,1.2.291.816.529.76.582.648.661.562.767.449.873.388.979l-.145.185-.032.079a1.714,1.714,0,0,0-.149.238L.03,1.561,0,1.614l.049.053L.1,1.64l.083-.053.085-.079.055-.026L.41,1.429l.057-.053L.632,1.27l.219-.106.108-.026.219-.106.51-.106h.4l.051.026h.079l.078.026h.079l.051.026.078.026H2.58l.1.053.078.026.1.053.049.053.051.026.225.185.293.344.047.079.049.053,0,.026.025.026.047.079.023.053H3.7l0,.026.049.053.07.132.044.132.049.053.086.291.023.053.021.079.023.053.021.079,0,.026L4.1,3.1l.052.4.023.053-.013.185.01.238.019.106-.048.688.051.026.03-.053.058-.079.085-.079.064-.159.058-.079.032-.079.121-.212.1-.265.036-.132.006-.079.032-.079.038-.159L4.891,2.8,4.87,2.725l.007-.106-.04-.185.006-.079L4.8,2.143l-.047-.079-.04-.185-.093-.185-.019-.106-.025-.026,0-.026-.025-.026L4.51,1.429l-.046-.106-.047-.079-.074-.079Z" fill="#493f3f"/>
              </g>
            </g>
            <g id="Group_106046" data-name="Group 106046" transform="translate(61.263 32.144)">
              <g id="Group_106045" data-name="Group 106045" transform="translate(0 0)">
                <path id="Path_76384" data-name="Path 76384" d="M3.488.741,3.442.635,3.395.556,3.05.185l-.1-.053L2.873.079,2.823.026,2.772,0,2.716.053l.046.106L2.756.238,2.8.344l.033.291.021.079L2.849.794l.04.185-.026.37-.079.37L2.719,1.9l-.03.053,0,.026H2.66l0,.053-.03.053-.262.344-.085.079-.087.106-.028.026H2.138l-.283.265L1.8,2.937l-.028.026-.055.026,0,.026H1.689l-.083.053L1.551,3.1l-.028.026-.108.026L1.332,3.2l-.162.053H1.064l-.081.026L.8,3.307H.346L.162,3.281H.03L0,3.333l.051.026.023.053.148.159.327.238.1.026.2.106.13.026H1.04l.078.026h.423L1.7,3.968l.081-.026h.079l.164-.079H2.08l.028-.026.162-.053.057-.053L2.408,3.7l.223-.159.057-.053.083-.053.057-.053h.026l0-.026L3,3.228l.345-.4.032-.079.058-.079.032-.079.058-.079.064-.159.028-.026,0-.053L3.651,2.2l.077-.344.011-.159-.046-.476L3.6.979,3.583.9,3.56.847Z" transform="translate(0)" fill="#493f3f"/>
              </g>
            </g>
            <g id="Group_106048" data-name="Group 106048" transform="translate(63.155 36.218)">
              <g id="Group_106047" data-name="Group 106047" transform="translate(0 0)">
                <path id="Path_76385" data-name="Path 76385" d="M.032,4.6,0,4.683l.051.026.4.317.129.053.049.053.2.106.076.053H.936l.2.106.772.317.234.053.1.053.365.079a7.424,7.424,0,0,0,1.077.106h.582l.134-.026h.238l.081-.026.134-.026h.159L5.1,5.9h.053l.162-.053h.106l.055-.026.134-.026.7-.238.659-.344.14-.106.138-.079.481-.45.407-.529a4.751,4.751,0,0,0,.473-1.085l.036-.132,0-.053.03-.053.009-.132.036-.132.063-.9L8.733.847,8.551.053l0-.053L8.473.026l0,.053L8.434.212,8.415.476,8.38.608,8.17,1.72l-.007.106L7.8,2.857l-.3.5-.29.37-.03.053-.055.026-.03.053-.028.026H7.04L6.813,4.1l-.055.026-.085.079a4.059,4.059,0,0,1-.9.45l-.487.159H5.229l-.081.026-.134.026-.055.026H4.88L4.37,5H4.237L4,5.053H3.731l-.055.026H2.539l-.1-.026H2.329l-1-.132-.181-.053L.6,4.762.474,4.709H.369L.213,4.656.083,4.63Z" transform="translate(0)" fill="#493f3f"/>
              </g>
            </g>
            <g id="Group_106050" data-name="Group 106050" transform="translate(16.694 4.312)">
              <g id="Group_106049" data-name="Group 106049" transform="translate(0 0)">
                <path id="Path_76386" data-name="Path 76386" d="M6.138,0H4.894L3.677.265,3.466.344,2.8.661,2.381.926l-.714.582-.053.053-.026.053L1.4,1.8l-.159.212q-.053.079-.159.212l-.159.212L.9,2.46v.026L.847,2.54l-.5,1.005-.265.9-.053.45L0,5v.661l.053.317v.159l.185.714.053.106.053.026L.37,6.931.4,6.826V6.667l.026-.079V6.482L.45,6.376V6.27l.185-.9.106-.344L.82,4.868.9,4.577.952,4.5l.026-.079.053-.106.053-.079V4.18l.344-.608.053-.079.053-.106.053-.079.053-.053L1.667,3.2l.053-.079.053-.053V3.042L1.8,3.016l.635-.767.053-.079.079-.053L2.8,1.878l.106-.053.079-.079.5-.37L4.55.794,5.027.608,5.185.529,5.476.423,5.609.4,5.741.344,6.058.265,6.138.212,6.27.185,6.4.132,6.429.079,6.376.053Z" fill="#493f3f"/>
              </g>
            </g>
          </g>
          <g id="Group_106058" data-name="Group 106058" transform="translate(2.997 54.567)">
            <g id="Group_106053" data-name="Group 106053" transform="translate(0 4.276) rotate(-15.965)">
              <g id="Group_106052" data-name="Group 106052" transform="translate(0 0)">
                <path id="Path_76387" data-name="Path 76387" d="M12.774,3.315A6.945,6.945,0,0,0,7.853.061Q4.746-.432,2.245,3.051a13.58,13.58,0,0,0-2.222,8.7A17.084,17.084,0,0,0,2.747,20.59a16.805,16.805,0,0,0,5.476,5.344,37.509,37.509,0,0,0,4.788,1.931q.264-1.357,1.64-5.556a23.449,23.449,0,0,0,.635-10.185Q14.568,6.1,12.774,3.315Z" fill="#80553c"/>
              </g>
            </g>
            <g id="Group_106055" data-name="Group 106055" transform="translate(5.76 6.466)">
              <g id="Group_106054" data-name="Group 106054" transform="translate(0 0)">
                <path id="Path_76388" data-name="Path 76388" d="M.079,1.191.4,1.085.5,1.032l.132-.026L.926.9h.079L1.3.82,1.482.794,1.587.767h.106L2.116.714l.476.026.476.106a4.372,4.372,0,0,1,.952.4l.476.344.212.185.053.026.37.37.979,1.217L7.3,5.344l.053.132,1.27,2.487.053.079.185.4.079.106.079.185.079.132q0,.079.053.026.079,0,.026-.053L9.1,8.228l-.317-1.3L7.8,4.233,6.588,2.222,5.635,1.191A.286.286,0,0,1,5.5,1.085L5.08.767,4.339.344,4.18.291,4.021.212,3.863.159,3.228.026H3.069L2.91,0H2.619L1.667.159,1.508.238H1.455L1.349.291,1.138.37l-.847.5L0,1.111v.079Z" fill="#684633"/>
              </g>
            </g>
            <g id="Group_106057" data-name="Group 106057" transform="translate(3.741 1.942)">
              <g id="Group_106056" data-name="Group 106056" transform="translate(0 0)">
                <path id="Path_76389" data-name="Path 76389" d="M4.4,0,3.367.185l-.5.159L2.785.4,2.627.45,2.547.5,2.389.556,2.309.608,2.23.635,1.78.926,1.727.952l-.079.079-.053.026-.026.026-.476.37-.556.661-.079.132-.106.132-.317.582q-.079.079.026.079H.113l.608-.556.132-.079L.96,2.3l.132-.079.132-.106.767-.45h.026L2.1,1.614h.026l.026-.026.5-.185.053-.026.159-.053L2.918,1.3H3l.159-.053h.053l.079-.026h.079l.079-.026H3.5l.079-.026.159-.026H3.87l.317-.053h.291q.288,0,.794.053l1.243.238.291.079H6.86l.026.026h.026l.767.291.767.423a1.311,1.311,0,0,1,.344.238l.106.053.079.053.079.079.106.053.079.079L9.32,2.8l.5.423.952,1.005.053.106.079.079L12.23,6.349v.026l.026.026.026.053.185.265,1.773,3.122q0,.079.053.026.079,0,.026-.053L12.653,6.164l-.026-.026V6.111L11.489,4.154l-.132-.185L11.3,3.863l-1.3-1.508-.265-.238L9.69,2.09l-.026-.026-.106-.079L9.479,1.9l-.106-.079-.079-.079-.37-.265a5.727,5.727,0,0,0-.82-.5L7.256.556,7.23.529H7.2L7.045.45,6.357.238A6.6,6.6,0,0,0,5.4.053,6.293,6.293,0,0,0,4.452,0Z" transform="translate(0)" fill="#9f7b67"/>
              </g>
            </g>
          </g>
          <g id="Group_106065" data-name="Group 106065" transform="translate(46.721 53.296)">
            <g id="Group_106060" data-name="Group 106060" transform="translate(0.091 0)">
              <g id="Group_106059" data-name="Group 106059" transform="translate(0 0)">
                <path id="Path_76390" data-name="Path 76390" d="M3.242,24.828Q11.86,27.76,12.9,20.066L13,18.479l-3.1-3.307A37.85,37.85,0,0,1,8.983,1.044Q6.515-1.6,5.253,2.446L.6,20.119Q-1.391,24.092,3.242,24.828Z" fill="#80553c"/>
              </g>
            </g>
            <g id="Group_106062" data-name="Group 106062" transform="translate(7.739 1.097)">
              <g id="Group_106061" data-name="Group 106061" transform="translate(0 0)">
                <path id="Path_76391" data-name="Path 76391" d="M.012,9.26A32.737,32.737,0,0,0,.462,13.1q.352,1.823.4,1.9A16.937,16.937,0,0,1,3.24,17.329a5.265,5.265,0,0,1,1.032,2.355q.252,1.376-1.3,3.651,2.614-2.339,2.8-4.206A2.746,2.746,0,0,0,4.272,16.3q-1.695-.982-2.619-1.587l.291-.556-.159-.238-.635.026.688-.053L.779,8.387.859,4.392,1.335,0A22.5,22.5,0,0,0,.33,4.233,29.328,29.328,0,0,0,.012,9.26Z" fill="#9f7b67"/>
              </g>
            </g>
            <g id="Group_106064" data-name="Group 106064" transform="translate(0 1.097)">
              <g id="Group_106063" data-name="Group 106063" transform="translate(0 0)">
                <path id="Path_76392" data-name="Path 76392" d="M8.625,3.836,8.6,8.625,9.339,14.5a.444.444,0,0,0,.185.291v.026l.238.159,1.191,1.085,1.164,1.482.344.582.026.079a3.287,3.287,0,0,1,.317.661,2.982,2.982,0,0,1,.185.661l.026.476-.026.106v.053l-.026.026-.026.079v.079l-.026.079-.053.079-.079.238a3.844,3.844,0,0,1-.847,1.085l-.582.45-.053.053-.106.053-.079.053-.026.026-.053.026-.37.238-.106.026-.847.37-.794.238H8.836l-.185.053-.741.106H7.7l-.185.026H6.349a14.9,14.9,0,0,1-1.534-.079,8.837,8.837,0,0,1-1.534-.212L3.1,23.2l-.185-.026L2.619,23.1l-.079-.053L2.2,22.937l-.45-.212L1.667,22.7l-.159-.106-.159-.079-.4-.344a.707.707,0,0,1-.238-.265,2.757,2.757,0,0,1-.344-.635L.291,20.53l.132-.767.265-.741q.053-.053-.026-.053Q.608,18.916.608,19a3.961,3.961,0,0,0-.37.714L.026,20.4,0,20.927l.026.423.317.794.265.344.635.556q.053.053.079.053l.079.053.079.079.952.45.688.212a11.857,11.857,0,0,0,1.587.344q.556.079,1.614.159l1.429.026.212-.026h.212L9,24.287,9.1,24.26h.106l.82-.212.212-.079.026-.026h.053l.794-.344.079-.053.4-.212.026-.026.053-.026.159-.106h.026v-.026h.026l.053-.053a5.611,5.611,0,0,0,.688-.5l.608-.635a4.7,4.7,0,0,0,.476-.767l.106-.212.026-.106.053-.106.026-.106.053-.106L14,20.424v-.053l.026-.053.026-.106V20.08l.026-.238-.026-.5a3.646,3.646,0,0,0-.265-.873l-.423-.873-.053-.079-.079-.185L12.514,16.3,11.4,15.053l-1.032-.873-.079-.053-.026-.026-.582-3.307-.556-6.27.026-4.5L9.127,0,9.074.026Z" fill="#684633"/>
              </g>
            </g>
          </g>
          <g id="Group_106088" data-name="Group 106088" transform="translate(30.323 54.658)">
            <g id="Group_106070" data-name="Group 106070" transform="translate(27.404 3.81)">
              <g id="Group_106067" data-name="Group 106067" transform="translate(0 0)">
                <g id="Group_106066" data-name="Group 106066" transform="translate(0)">
                  <path id="Path_76393" data-name="Path 76393" d="M6.446,4.208a4.751,4.751,0,0,0-.953-2.985A2.783,2.783,0,0,0,3.223,0,2.824,2.824,0,0,0,.937,1.223,4.805,4.805,0,0,0,0,4.208,4.737,4.737,0,0,0,.937,7.177,2.814,2.814,0,0,0,3.223,8.415,2.773,2.773,0,0,0,5.494,7.177,4.684,4.684,0,0,0,6.446,4.208Z" fill="#231915"/>
                </g>
              </g>
              <g id="Group_106069" data-name="Group 106069" transform="translate(3.556 2)">
                <g id="Group_106068" data-name="Group 106068" transform="translate(0 0)">
                  <path id="Path_76394" data-name="Path 76394" d="M1.557.985A1.2,1.2,0,0,0,1.3.271.636.636,0,0,0,.747,0a.68.68,0,0,0-.54.3A1.227,1.227,0,0,0,0,1.049a1.08,1.08,0,0,0,.254.7.665.665,0,0,0,.572.286.629.629,0,0,0,.524-.318A1.124,1.124,0,0,0,1.557.985Z" fill="#fff"/>
                </g>
              </g>
            </g>
            <g id="Group_106072" data-name="Group 106072" transform="translate(26.155 1.569)">
              <g id="Group_106071" data-name="Group 106071" transform="translate(0 0)">
                <path id="Path_76395" data-name="Path 76395" d="M12.293,6.467A5.559,5.559,0,0,0,11.141,4.1,16.31,16.31,0,0,0,4.194,0,32.237,32.237,0,0,0,0,6.659,9.047,9.047,0,0,0,5.186,8.644Q8.418,8.968,12.293,6.467Z" fill="#80553c"/>
              </g>
            </g>
            <g id="Group_106074" data-name="Group 106074" transform="translate(27.532 8.932)">
              <g id="Group_106073" data-name="Group 106073" transform="translate(0 0)">
                <path id="Path_76396" data-name="Path 76396" d="M0,.576l.384,3.65A10.153,10.153,0,0,0,9.316,4.1L10.18,0Z" transform="translate(0)" fill="#80553c"/>
              </g>
            </g>
            <g id="Group_106076" data-name="Group 106076" transform="translate(26.187 7.971)">
              <g id="Group_106075" data-name="Group 106075" transform="translate(0 0)">
                <path id="Path_76397" data-name="Path 76397" d="M8.836,1.633l-.1.032-2.273.384H5.218L4.162,1.921,4,1.889l-.1-.032H3.842L3.65,1.793l-.16-.032-.1-.032H3.329L2.145,1.281,1.185.736,1.152.7.512.384.352.352.1.224Q0,.128,0,.256V.32L.32.64l.1.128.416.384.128.16.9.8.192.1.16.128.192.1.064.064.1.032.384.192.1.032.1.064.16.064.992.288.416.064.1.032h.1l.224.032h.1l.1.032L6.755,3.3l.384-.064h.128l.1-.032.8-.16.768-.256.192-.1.1-.032.448-.224L9.7,2.4h.032V2.369h.032l.1-.032.1-.1h.064l1.409-1.12.544-.768.032-.1.032-.032V.16l.032-.1Q12.133,0,12.037,0h-.064V.032L11.845.16l-.1.064-.064.032-.128.128-1.12.64L9.6,1.377H9.54l-.032.032-.192.064L9.284,1.5H9.252l-.16.064L8.9,1.6Z" transform="translate(0 0)" fill="#231915"/>
              </g>
            </g>
            <g id="Group_106081" data-name="Group 106081" transform="translate(2.593 3.81)">
              <g id="Group_106078" data-name="Group 106078" transform="translate(0 0)">
                <g id="Group_106077" data-name="Group 106077" transform="translate(0)">
                  <path id="Path_76398" data-name="Path 76398" d="M6.446,4.208a4.751,4.751,0,0,0-.953-2.985A2.783,2.783,0,0,0,3.223,0,2.824,2.824,0,0,0,.937,1.223,4.805,4.805,0,0,0,0,4.208,4.737,4.737,0,0,0,.937,7.177,2.814,2.814,0,0,0,3.223,8.415,2.773,2.773,0,0,0,5.494,7.177,4.684,4.684,0,0,0,6.446,4.208Z" fill="#231915"/>
                </g>
              </g>
              <g id="Group_106080" data-name="Group 106080" transform="translate(3.556 2)">
                <g id="Group_106079" data-name="Group 106079" transform="translate(0 0)">
                  <path id="Path_76399" data-name="Path 76399" d="M1.557.985A1.2,1.2,0,0,0,1.3.271.636.636,0,0,0,.747,0a.68.68,0,0,0-.54.3A1.227,1.227,0,0,0,0,1.049a1.08,1.08,0,0,0,.254.7.665.665,0,0,0,.572.286.629.629,0,0,0,.524-.318A1.124,1.124,0,0,0,1.557.985Z" fill="#fff"/>
                </g>
              </g>
            </g>
            <g id="Group_106083" data-name="Group 106083" transform="translate(0 0)">
              <g id="Group_106082" data-name="Group 106082">
                <path id="Path_76400" data-name="Path 76400" d="M7.587,0A16.954,16.954,0,0,0,5.762,1.056,17.091,17.091,0,0,0,0,7.331q.311.262,2.5,1.6A9.054,9.054,0,0,0,8.42,9.86a18.7,18.7,0,0,0,7.267-2.369A4.575,4.575,0,0,0,14.15,4.514,70.019,70.019,0,0,0,7.587,0Z" fill="#80553c"/>
              </g>
            </g>
            <g id="Group_106085" data-name="Group 106085" transform="translate(0.864 8.356)">
              <g id="Group_106084" data-name="Group 106084" transform="translate(0 0)">
                <path id="Path_76401" data-name="Path 76401" d="M0,.128,1.056,4.9a19.032,19.032,0,0,0,11.3-.128L13.606,0Z" fill="#80553c"/>
              </g>
            </g>
            <g id="Group_106087" data-name="Group 106087" transform="translate(0.096 7.395)">
              <g id="Group_106086" data-name="Group 106086" transform="translate(0 0)">
                <path id="Path_76402" data-name="Path 76402" d="M15.367,0h-.1L11.749,1.6l-.1.032h-.032l-.032.032h-.032l-.32.128h-.064l-.064.032-.192.064-1.825.288H8.868l-.7.064L5.73,2.209,5.6,2.177H5.378l-.672-.1-.224-.064-.448-.064-.672-.192L2.081,1.249l-.1-.064-.32-.16L1.377.832.064.128Q0,.064,0,.16V.224L1.281,1.537,2.3,2.3l.448.256.256.1.448.224.128.032.128.064.256.064.224.1.512.128h.128l.384.1.256.032.128.032H5.73l.48.064h.384l.128.032H7.971l.256-.032a5.548,5.548,0,0,0,1.024-.1l1.985-.448.864-.416,1.761-1.152L15.367.1Z" transform="translate(0)" fill="#231915"/>
              </g>
            </g>
          </g>
          <g id="Group_106096" data-name="Group 106096" transform="translate(39.359 82.797)">
            <g id="Group_106091" data-name="Group 106091" transform="translate(1.193 1.795)">
              <g id="Group_106089" data-name="Group 106089" transform="translate(0 0)">
                <path id="Path_76403" data-name="Path 76403" d="M17.509,2.745A6.751,6.751,0,0,0,15.046.821,10.938,10.938,0,0,0,10.89.013,18.042,18.042,0,0,0,5.541.629,9.625,9.625,0,0,1,0,.436,20.03,20.03,0,0,0,17.509,2.745Z" transform="translate(0 0)" fill="#684633"/>
              </g>
              <g id="Group_106090" data-name="Group 106090" transform="translate(4.964 4.774)">
                <path id="Path_76404" data-name="Path 76404" d="M10.544.935,10.7.7q.038-.038-.038-.115h-.077l-.462.423-.077.038-.038.077L8.966,1.82,8.774,1.9l-.038.038-.154.077-1.116.346H7.35L7.234,2.4H6.965L6.7,2.435H6.465A4.956,4.956,0,0,1,5.426,2.32L4.387,2.089,2.5,1.358.462.242.346.2.115.049Q0-.066,0,.088V.165L.115.28.231.357.385.511l1.077.847q.077.077.731.539l.462.231.115.077.115.038.616.308.654.231a5.783,5.783,0,0,0,1.116.308,4.893,4.893,0,0,0,1.193.077h.308l.577-.077.77-.231.731-.346.115-.038L9.043,2.4l.192-.115.192-.154.808-.77.038-.077.038-.038.154-.231Z" transform="translate(0 0)" fill="#684633"/>
              </g>
            </g>
            <g id="Group_106093" data-name="Group 106093" transform="translate(0.404 1.721)">
              <g id="Group_106092" data-name="Group 106092" transform="translate(0 0)">
                <path id="Path_76405" data-name="Path 76405" d="M18.567,2.7q0-.115-.077-.038l-3.656.577h-.192l-.154.038-2.809.038-.231-.038-1.5-.115-.115-.038H9.716l-.192-.038-.885-.077-1.27-.269-.385-.115-.231-.038-.192-.077L2.828,1.319l-.154-.077L2.52,1.2,2.251,1.05l-1-.423L1.058.511.866.434.135.049Q.019-.066.019.088a.048.048,0,0,0,0,.077L.4.511.519.588.673.742l.77.577.808.462.115.115,1.5.731a15.461,15.461,0,0,0,1.539.616h.038L5.6,3.32l1.077.346,2.886.616h.231l.693.077,1.809.038.231-.038h.423L16.3,3.705l.577-.231.269-.077.962-.385.423-.231Q18.644,2.782,18.567,2.7Z" fill="#231915"/>
              </g>
            </g>
            <g id="Group_106095" data-name="Group 106095" transform="translate(0 0)">
              <g id="Group_106094" data-name="Group 106094" transform="translate(0 0)">
                <path id="Path_76406" data-name="Path 76406" d="M2,0H1.693L1.462.115,1.308.154,1.231.192,1.154.269.847.5.693.654H.654V.693L.539.808l-.115.231-.154.192-.231.693L0,2.155l.038.924.154.654.115.231V4l.038.038.038.077.038.038L.5,4.194l.038-.077.038-.038V3.694L.616,3.54V3.117L.654,3.04V2.848l.038-.192V2.463l.038-.077V2.27L.808,2l.038-.077V1.809l.115-.269L1,1.5V1.462l.115-.231.038-.115.077-.077L1.308.885,1.578.5,1.963.115Z" fill="#684633"/>
              </g>
            </g>
          </g>
          <g id="Group_106099" data-name="Group 106099" transform="matrix(0.959, -0.282, 0.282, 0.959, 24.471, 51.594)">
            <g id="Group_106098" data-name="Group 106098" transform="translate(0 0)">
              <g id="Group_106097" data-name="Group 106097" transform="translate(0)">
                <path id="Path_76407" data-name="Path 76407" d="M8.885.767a25.2,25.2,0,0,0-6.569,1.4A14.26,14.26,0,0,1,4.03,0,10.221,10.221,0,0,0,2.094,1.508a10.754,10.754,0,0,0-.73.794L0,4.365,2.158,2.91A16.818,16.818,0,0,1,9.52,1.4a23.577,23.577,0,0,1,6.7.873q2.253.635,2.7.344a1.028,1.028,0,0,0,.444-1.3l-.032.079a1.287,1.287,0,0,1-.444.635,1.512,1.512,0,0,1-.825.079,18.077,18.077,0,0,1-2.539-.688A18.077,18.077,0,0,0,8.885.767Z" transform="translate(0 1.429)"/>
                <path id="Path_76408" data-name="Path 76408" d="M0,3.6A25.2,25.2,0,0,1,6.569,2.2a18.077,18.077,0,0,1,6.632.661,18.077,18.077,0,0,0,2.539.688,1.512,1.512,0,0,0,.825-.079,1.287,1.287,0,0,0,.444-.635l.032-.079-.032-.079a2.274,2.274,0,0,0-1.238-1.217A17,17,0,0,0,11.234.238,17.339,17.339,0,0,0,3.522.661a10.221,10.221,0,0,0-1.809.767A14.26,14.26,0,0,0,0,3.6Z" transform="translate(2.317)" fill="#140e0e"/>
              </g>
            </g>
          </g>
          <g id="Group_106102" data-name="Group 106102" transform="matrix(-0.959, -0.282, 0.282, -0.959, 71.827, 55.59)">
            <g id="Group_106101" data-name="Group 106101" transform="translate(0 0)">
              <g id="Group_106100" data-name="Group 106100">
                <path id="Path_76409" data-name="Path 76409" d="M6.641,3.236a16.136,16.136,0,0,1-4.91-1.261A12.761,12.761,0,0,0,3.012,3.926,8.025,8.025,0,0,1,1.565,2.57q-.283-.334-.546-.714L0,0,1.613,1.309a10.8,10.8,0,0,0,5.5,1.356,14.843,14.843,0,0,0,5-.785q1.684-.571,2.016-.309a1.024,1.024,0,0,1,.332,1.166l-.024-.071a1.173,1.173,0,0,0-.332-.571.955.955,0,0,0-.617-.071,11.729,11.729,0,0,0-1.9.619A11.347,11.347,0,0,1,6.641,3.236Z"/>
                <path id="Path_76410" data-name="Path 76410" d="M0,0A16.136,16.136,0,0,0,4.91,1.261,11.347,11.347,0,0,0,9.867.666a11.729,11.729,0,0,1,1.9-.619.955.955,0,0,1,.617.071,1.173,1.173,0,0,1,.332.571l.024.071-.024.071a1.906,1.906,0,0,1-.925,1.095A11.072,11.072,0,0,1,8.4,3.022a10.854,10.854,0,0,1-5.763-.381,7.014,7.014,0,0,1-1.352-.69A12.761,12.761,0,0,1,0,0Z" transform="translate(1.731 1.975)" fill="#140e0e"/>
              </g>
            </g>
          </g>
          <g id="Group_106104" data-name="Group 106104" transform="translate(29.022 74.791)">
            <g id="Group_106103" data-name="Group 106103" transform="translate(0 0)">
              <path id="Path_76411" data-name="Path 76411" d="M3.175,2.381v.794h.794m-.794,0v.794m3.175-.794L3.175,6.349,0,3.175,3.175,0Zm-3.968,0h.794" fill="none" stroke="rgba(0,0,0,0)" stroke-linecap="round" stroke-linejoin="round" stroke-width="0.075"/>
            </g>
          </g>
        </g>
      </g>
    </g>
  </g>
</svg>
