<svg xmlns="http://www.w3.org/2000/svg" xmlns:xlink="http://www.w3.org/1999/xlink" width="375" height="270" viewBox="0 0 375 270">
  <defs>
    <clipPath id="clip-path">
      <rect id="Rectangle_8673" data-name="Rectangle 8673" width="375" height="270" transform="translate(18348 -12887)" fill="#fff" stroke="#707070" stroke-width="1" opacity="0.59"/>
    </clipPath>
    <linearGradient id="linear-gradient" x1="0.543" y1="0.007" x2="0.511" y2="0.895" gradientUnits="objectBoundingBox">
      <stop offset="0" stop-color="#4d4343"/>
      <stop offset="1" stop-color="#252020"/>
    </linearGradient>
  </defs>
  <g id="Mask_Group_16634" data-name="Mask Group 16634" transform="translate(-18348 12887)" clip-path="url(#clip-path)">
    <g id="male_teen_DS_10" data-name="male teen DS 10" transform="translate(18612.998 -12589.609) rotate(180)">
      <g id="Group_48037" data-name="Group 48037" transform="translate(120.644 150.263) rotate(-172.207)">
        <g id="Group_48020" data-name="Group 48020" transform="translate(1.317 50.526)">
          <g id="Group_48019" data-name="Group 48019" transform="translate(0 0)">
            <path id="Path_42197" data-name="Path 42197" d="M19.074,39.109A229.521,229.521,0,0,0,26.21,4.172L5.434,0Q2.13,18.164,0,36.035Z" fill="#80553c"/>
          </g>
        </g>
        <g id="Group_48022" data-name="Group 48022" transform="translate(1.29 77.45)">
          <g id="Group_48021" data-name="Group 48021" transform="translate(0 0)">
            <path id="Path_42198" data-name="Path 42198" d="M19.431,9.716a9.387,9.387,0,0,0-2.854-6.889A9.342,9.342,0,0,0,9.716,0,9.433,9.433,0,0,0,2.827,2.827,9.433,9.433,0,0,0,0,9.716a9.342,9.342,0,0,0,2.827,6.861,9.387,9.387,0,0,0,6.889,2.854,9.3,9.3,0,0,0,6.861-2.854A9.3,9.3,0,0,0,19.431,9.716Z" transform="translate(0)" fill="#80553c"/>
          </g>
        </g>
        <g id="Group_48025" data-name="Group 48025" transform="translate(5.269 47.096)">
          <g id="Group_48024" data-name="Group 48024" transform="translate(0 0)">
            <g id="Group_48023" data-name="Group 48023">
              <path id="Path_42199" data-name="Path 42199" d="M1.729,0,0,11.28a32.224,32.224,0,0,0,21.215,3.98L23.054,4.83Z" fill="#684633"/>
            </g>
          </g>
        </g>
        <g id="Group_48027" data-name="Group 48027" transform="translate(17.4 0)">
          <g id="Group_48026" data-name="Group 48026" transform="translate(0 0)">
            <path id="Path_42200" data-name="Path 42200" d="M32.22,16.11A15.521,15.521,0,0,0,27.5,4.721,15.521,15.521,0,0,0,16.11,0,15.521,15.521,0,0,0,4.721,4.721,15.521,15.521,0,0,0,0,16.11,15.521,15.521,0,0,0,4.721,27.5,15.521,15.521,0,0,0,16.11,32.22,15.521,15.521,0,0,0,27.5,27.5,15.521,15.521,0,0,0,32.22,16.11Z" transform="translate(0)" fill="#7a2230"/>
          </g>
        </g>
        <g id="Group_48029" data-name="Group 48029" transform="translate(0.055 4.391)">
          <g id="Group_48028" data-name="Group 48028" transform="translate(0 0)">
            <path id="Path_42201" data-name="Path 42201" d="M37.764,53.243q5.779-24.68,11.362-37.737L22.4,0Q12.954,8.316,0,46.986,13.064,61.175,37.764,53.243Z" fill="#7a2230"/>
          </g>
        </g>
        <g id="Group_48032" data-name="Group 48032" transform="translate(0 8.041)">
          <g id="Group_48031" data-name="Group 48031" transform="translate(0 0)">
            <g id="Group_48030" data-name="Group 48030">
              <path id="Path_42202" data-name="Path 42202" d="M11.911,12.46A269.823,269.823,0,0,0,0,43.391q12.557,13.843,36.886,6.422Q9.5,51.377,5.9,41.442,3.705,35.4,19.157,0A70.573,70.573,0,0,0,11.911,12.46Z" fill="#4b0f18"/>
            </g>
          </g>
        </g>
        <g id="Group_48034" data-name="Group 48034" transform="translate(40.35 21.687)">
          <g id="Group_48033" data-name="Group 48033" transform="translate(0 0)">
            <path id="Path_42203" data-name="Path 42203" d="M8.118.049,7.734.6,7.624.79l-.165.22L6.773,2.163l-.082.165-.11.165L4.194,7.652l-2.58,8.316-1.564,9.3-.027.3q-.055.055.027.055L.1,25.6,4.742,9.106,7.158,2.547l.055-.192L7.844.9l.11-.192L8.2.077Q8.255.022,8.173.022,8.118-.033,8.118.049Z" fill="#4b0f18"/>
          </g>
        </g>
        <g id="Group_48036" data-name="Group 48036" transform="translate(30.217 12.817)">
          <g id="Group_48035" data-name="Group 48035" transform="translate(0 0)">
            <path id="Path_42204" data-name="Path 42204" d="M3.293,2.47v.823h.823m-.823,0v.823m3.293-.823L3.293,6.587,0,3.293,3.293,0Zm-4.117,0h.823" fill="none" stroke="rgba(0,0,0,0)" stroke-linecap="round" stroke-linejoin="round" stroke-width="0.093"/>
          </g>
        </g>
      </g>
      <g id="Group_48047" data-name="Group 48047" transform="translate(41.744 0.141) rotate(-0.107)">
        <g id="Group_48041" data-name="Group 48041" transform="translate(0 46.547)">
          <g id="Group_48040" data-name="Group 48040" transform="translate(0 0)">
            <path id="Path_42206" data-name="Path 42206" d="M0,19.582C0,9.607,3.6,8.675,10.642,1.634S30.419,12.592,40.393,12.592s14.234-7,21.275.04,10.5-3.025,10.5,6.95A34.773,34.773,0,0,1,61.608,45.1,34.773,34.773,0,0,1,36.085,55.666,34.773,34.773,0,0,1,10.561,45.1,34.773,34.773,0,0,1,0,19.582Z" transform="translate(0 0)" fill="#ede6de"/>
          </g>
        </g>
        <g id="Group_48046" data-name="Group 48046" transform="translate(30.09 0)">
          <g id="Group_48045" data-name="Group 48045" transform="translate(0 0)">
            <path id="Path_42208" data-name="Path 42208" d="M3.294,4.117V3.294h.823m-.823,0V2.47m3.294.823L3.294,0,0,3.294,3.294,6.588Zm-4.117,0h.823" fill="none" stroke="rgba(0,0,0,0)" stroke-linecap="round" stroke-linejoin="round" stroke-width="0.093"/>
          </g>
        </g>
      </g>
      <g id="Group_48072" data-name="Group 48072" transform="translate(21.471 43.708) rotate(4.963)">
        <g id="Group_48049" data-name="Group 48049" transform="translate(37.437 84.399)">
          <g id="Group_48048" data-name="Group 48048" transform="translate(0 0)">
            <path id="Path_42209" data-name="Path 42209" d="M33.211,0l2.717,13.01a31.016,31.016,0,0,1-8.948,5.133,28.235,28.235,0,0,1-9.03,1.564A30.277,30.277,0,0,1,.631,14.492L0,0Z" fill="#80553c"/>
          </g>
        </g>
        <g id="Group_48051" data-name="Group 48051" transform="translate(14.931 16.797)">
          <g id="Group_48050" data-name="Group 48050" transform="translate(0 0)">
            <path id="Path_42210" data-name="Path 42210" d="M76.851,62.387a19.118,19.118,0,0,1-2.909,9.606q-2.648,4.19-9.057,6.752A55.857,55.857,0,0,0,56.1,82.862q-2.239-5.956-9.551-10.21-7.282-4.282-12.763,1.317-5.459,5.572-6.834,6.752A11.715,11.715,0,0,0,24.4,84.1,45.593,45.593,0,0,1,18.636,82.5q-4.83-1.517-9.661-3.1A57.3,57.3,0,0,1,0,75.534L7.246,0Q10.1,3.9,13.229,7.548q2.8,3.266,5.874,6.34l1.153,1.153,1.153,1.1q2.223,2.031,4.611,3.87a46.24,46.24,0,0,0,9.195,5.407,29.193,29.193,0,0,0,9.03,2.306,27.629,27.629,0,0,0,8.92-.8,33.642,33.642,0,0,0,8.756-3.843,40.67,40.67,0,0,0,5.462-4.007,58.357,58.357,0,0,0,4.831-4.666,72.628,72.628,0,0,0,6.752-8.371Z" fill="#ede6de"/>
          </g>
        </g>
        <g id="Group_48053" data-name="Group 48053" transform="translate(6.56 62.112)">
          <g id="Group_48052" data-name="Group 48052" transform="translate(0 0)">
            <path id="Path_42211" data-name="Path 42211" d="M32.222,16.111A15.522,15.522,0,0,1,27.5,27.5a15.522,15.522,0,0,1-11.39,4.721A15.522,15.522,0,0,1,4.721,27.5,15.522,15.522,0,0,1,0,16.111,15.522,15.522,0,0,1,4.721,4.721,15.522,15.522,0,0,1,16.111,0,15.522,15.522,0,0,1,27.5,4.721,15.522,15.522,0,0,1,32.222,16.111Z" transform="translate(0 0)" fill="#ede6de"/>
          </g>
        </g>
        <g id="Group_48056" data-name="Group 48056" transform="translate(6.724 0)">
          <g id="Group_48055" data-name="Group 48055" transform="translate(0 0)">
            <g id="Group_48054" data-name="Group 48054">
              <path id="Path_42212" data-name="Path 42212" d="M0,75.835,13.586,0,25.031,28.38l.192,36.779Q10.925,62.837,0,75.835Z" fill="#dad0c5"/>
            </g>
          </g>
        </g>
        <g id="Group_48061" data-name="Group 48061" transform="translate(0 62.112)">
          <g id="Group_48058" data-name="Group 48058" transform="translate(0 0)">
            <g id="Group_48057" data-name="Group 48057">
              <path id="Path_42213" data-name="Path 42213" d="M34.061,27.5a15.522,15.522,0,0,1-11.39,4.721A15.522,15.522,0,0,1,11.281,27.5,15.522,15.522,0,0,1,6.56,16.111a15.522,15.522,0,0,1,4.721-11.39,17.131,17.131,0,0,1,3.4-2.662l.521-.274q.349-.194.686-.357.075-.032.137-.055L16.5,1.18a14.861,14.861,0,0,1,4.529-1.1A16.384,16.384,0,0,1,22.671,0a15.522,15.522,0,0,1,11.39,4.721,15.149,15.149,0,0,1,1.153,1.29,15.358,15.358,0,0,1,3.568,10.1A15.522,15.522,0,0,1,34.061,27.5m-12.4,2.565c4.446,0,9.256.583,12.4-2.565a15.522,15.522,0,0,0,4.721-11.39,15.358,15.358,0,0,0-3.568-10.1q2.891,3.133,4.007,9.853a78.955,78.955,0,0,0,5.105,16.743l-6.285,7.246c-19-4.75-26.334-8.683-31-18.162,5.164-6.9,3.014-17.051,7.64-19.632a17.131,17.131,0,0,0-3.4,2.662A15.522,15.522,0,0,0,6.56,16.111,15.522,15.522,0,0,0,11.281,27.5C14.428,30.649,17.212,30.066,21.659,30.066Z" fill="#7a2230"/>
            </g>
          </g>
          <g id="Group_48060" data-name="Group 48060" transform="translate(69.358 0.048)">
            <g id="Group_48059" data-name="Group 48059" transform="translate(0 0)">
              <path id="Path_42214" data-name="Path 42214" d="M11.034,27.124q5.252-4.169,8.865-12.763,3.647-8.626,5.489-12.351C26.613-.473,31.495.4,31.495.4s-5.066,16.944-9.915,23.9c-.535.773-3.976,6.191-9.371,8.378S.059,40.8,0,33.053A32.914,32.914,0,0,0,11.034,27.124Z" fill="#7a2230"/>
            </g>
          </g>
        </g>
        <g id="Group_48063" data-name="Group 48063" transform="translate(53.878 92.002)">
          <g id="Group_48062" data-name="Group 48062" transform="translate(0 0)">
            <path id="Path_42215" data-name="Path 42215" d="M10.759,3.65l-.165-.082-.521-.329L7.685,2.059,4.144.961,3.98.933,3.815.878.055.274H.027L0,.22.027.192.247.137,1.729.027,1.866,0,3.76.055,4.117.11h.192L5.846.384,7.466.851a12.82,12.82,0,0,1,1.619.631l.8.412,2.443,1.647,2.141,2.168L15.4,7.026l.11.137.192.357.11.165q.027.027-.027.082h-.055L15.59,7.6,14.437,6.5l-.11-.082L14,6.121l-.11-.082-.22-.22Z" fill="#684633"/>
          </g>
        </g>
        <g id="Group_48065" data-name="Group 48065" transform="translate(45.315 86.477)">
          <g id="Group_48064" data-name="Group 48064" transform="translate(0 0)">
            <path id="Path_42216" data-name="Path 42216" d="M17.538,3.274l-.6-.247-.22-.055A18.505,18.505,0,0,0,14.876,2.4q-.823-.22-.961-.247l-1.482-.3H12.3l-.11-.027L9.853,1.655l-.137-.027-.11.027H8.838l-1.51.137-2.553.549L2,3.356.988,3.85l-.22.082L.6,4.043.082,4.29Q0,4.372,0,4.262V4.207L1.674,2.753l.137-.082.6-.439L4.858.968h.055l1.1-.384L6.148.557,6.258.5,6.532.447A11.492,11.492,0,0,1,8.7.063,14.1,14.1,0,0,1,11.006.035l.851.082L14.3.639l.274.082.11.055L14.821.8,15.343,1a18.2,18.2,0,0,1,1.866.8l1.564.878a13.519,13.519,0,0,1,1.263.851l1.7,1.4V5h-.082L20.064,4.29l-.082-.027-.6-.274-.165-.055-.165-.082-1.29-.521Z" fill="#dad0c5"/>
          </g>
        </g>
        <g id="Group_48067" data-name="Group 48067" transform="translate(36.367 87.753)">
          <g id="Group_48066" data-name="Group 48066" transform="translate(0 0)">
            <path id="Path_42217" data-name="Path 42217" d="M23.083.543a19.938,19.938,0,0,1,8.673,4.062A17.446,17.446,0,0,1,34.583,7.6a9.312,9.312,0,0,1,1.9,3.224A2.136,2.136,0,0,1,34.43,12.6c-.769.073-1.036-.391-1.658-1.325A18.939,18.939,0,0,0,29.286,7.6a11.392,11.392,0,0,0-3.65-1.976,24.924,24.924,0,0,0-4.117-.933,16.02,16.02,0,0,0-9.469,1.125A15.794,15.794,0,0,0,5.023,11.8a5.541,5.541,0,0,1-1.208,1.839,2.5,2.5,0,0,1-1.866.741q-1.1,0-1.949-1.564A26.926,26.926,0,0,1,4.337,5.73,14.964,14.964,0,0,1,13.5.461,23.148,23.148,0,0,1,23.083.543Z" transform="translate(0 0)" fill="#7a2230"/>
          </g>
        </g>
        <g id="Group_48069" data-name="Group 48069" transform="translate(36.455 87.692)">
          <g id="Group_48068" data-name="Group 48068" transform="translate(0 0)">
            <path id="Path_42218" data-name="Path 42218" d="M20.25.11q1.043.11,2.5.357l2.909.769,1.647.714.329.192q.082,0,.027.055,0,.082-.055.027L27.5,2.2l-.439-.165-.22-.055L26.7,1.921l-.439-.11q-.329-.11-1.564-.384L18.878.933l-3.184.192-2.553.494-1.427.439A20.346,20.346,0,0,0,9,3.266l-1.235.741q-.686.467-1.153.851l-.165.082-.11.11-.274.22L3.508,7.795.1,12.708q0,.082-.055.027-.082,0-.027-.055l.549-1.317q.467-.988.741-1.455l1.1-1.839a20.633,20.633,0,0,1,1.537-2L4.907,5.05a12.333,12.333,0,0,1,1.07-.961,13.41,13.41,0,0,1,1.208-.933l1.29-.823,2.882-1.317A25.154,25.154,0,0,1,14.432.247l.741-.11L18.878,0Z" transform="translate(0)" fill="#4b0f18"/>
          </g>
        </g>
        <g id="Group_48071" data-name="Group 48071" transform="translate(54.839 14.437)">
          <g id="Group_48070" data-name="Group 48070" transform="translate(0 0)">
            <path id="Path_42219" data-name="Path 42219" d="M3.294,4.117V3.294h.823m-.823,0V2.47m3.294.823L3.294,0,0,3.294,3.294,6.587Zm-4.117,0h.823" fill="none" stroke="rgba(0,0,0,0)" stroke-linecap="round" stroke-linejoin="round" stroke-width="0.093"/>
          </g>
        </g>
      </g>
      <g id="Group_48091" data-name="Group 48091" transform="matrix(0.937, 0.35, -0.35, 0.937, 33.904, 36.323)">
        <g id="Group_48074" data-name="Group 48074" transform="translate(1.317 7.246)">
          <g id="Group_48073" data-name="Group 48073" transform="translate(0 0)">
            <path id="Path_42220" data-name="Path 42220" d="M19.075,0a229.535,229.535,0,0,1,7.136,34.94L5.434,39.112Q2.13,20.946,0,3.074Z" fill="#80553c"/>
          </g>
        </g>
        <g id="Group_48076" data-name="Group 48076" transform="translate(1.29 0)">
          <g id="Group_48075" data-name="Group 48075" transform="translate(0)">
            <path id="Path_42221" data-name="Path 42221" d="M19.432,9.716a9.388,9.388,0,0,1-2.854,6.889,9.343,9.343,0,0,1-6.862,2.827,9.434,9.434,0,0,1-6.889-2.827A9.434,9.434,0,0,1,0,9.716,9.343,9.343,0,0,1,2.827,2.854,9.388,9.388,0,0,1,9.716,0a9.3,9.3,0,0,1,6.862,2.854A9.3,9.3,0,0,1,19.432,9.716Z" fill="#80553c"/>
          </g>
        </g>
        <g id="Group_48079" data-name="Group 48079" transform="translate(5.27 34.162)">
          <g id="Group_48078" data-name="Group 48078" transform="translate(0 0)">
            <g id="Group_48077" data-name="Group 48077" transform="translate(0 0)">
              <path id="Path_42222" data-name="Path 42222" d="M1.729,15.626,0,4.346A32.226,32.226,0,0,1,21.216.366L23.055,10.8Z" fill="#684633"/>
            </g>
          </g>
        </g>
        <g id="Group_48081" data-name="Group 48081" transform="translate(17.401 64.665)">
          <g id="Group_48080" data-name="Group 48080" transform="translate(0 0)">
            <path id="Path_42223" data-name="Path 42223" d="M32.222,16.111A15.522,15.522,0,0,1,27.5,27.5a15.522,15.522,0,0,1-11.39,4.721A15.522,15.522,0,0,1,4.721,27.5,15.522,15.522,0,0,1,0,16.111,15.522,15.522,0,0,1,4.721,4.721,15.522,15.522,0,0,1,16.111,0,15.522,15.522,0,0,1,27.5,4.721,15.522,15.522,0,0,1,32.222,16.111Z" transform="translate(0 0)" fill="#7a2230"/>
          </g>
        </g>
        <g id="Group_48083" data-name="Group 48083" transform="translate(0.055 36.405)">
          <g id="Group_48082" data-name="Group 48082" transform="translate(0 0)">
            <path id="Path_42224" data-name="Path 42224" d="M37.767,2.844q5.78,24.682,11.363,37.739L22.4,56.091Q12.955,47.774,0,9.1,13.065-5.088,37.767,2.844Z" fill="#7a2230"/>
          </g>
        </g>
        <g id="Group_48086" data-name="Group 48086" transform="translate(0 36.439)">
          <g id="Group_48085" data-name="Group 48085" transform="translate(0 0)">
            <g id="Group_48084" data-name="Group 48084">
              <path id="Path_42225" data-name="Path 42225" d="M11.912,39.945A269.839,269.839,0,0,1,0,9.013Q12.558-4.832,36.888,2.59,9.5,1.026,5.9,10.961,3.705,17,19.158,52.406A70.578,70.578,0,0,1,11.912,39.945Z" fill="#4b0f18"/>
            </g>
          </g>
        </g>
        <g id="Group_48088" data-name="Group 48088" transform="translate(40.352 49.569)">
          <g id="Group_48087" data-name="Group 48087" transform="translate(0 0)">
            <path id="Path_42226" data-name="Path 42226" d="M8.119,25.58l-.384-.549-.11-.192-.165-.22-.686-1.153L6.692,23.3l-.11-.165-2.388-5.16L1.614,9.661.049.357.022.055Q-.033,0,.049,0L.1.027l4.638,16.5,2.415,6.56.055.192.631,1.455.11.192.247.631q.055.055-.027.055Q8.119,25.663,8.119,25.58Z" transform="translate(0 0)" fill="#4b0f18"/>
          </g>
        </g>
        <g id="Group_48090" data-name="Group 48090" transform="translate(30.219 77.482)">
          <g id="Group_48089" data-name="Group 48089" transform="translate(0 0)">
            <path id="Path_42227" data-name="Path 42227" d="M3.294,4.117V3.294h.823m-.823,0V2.47m3.294.823L3.294,0,0,3.294,3.294,6.587Zm-4.117,0h.823" transform="translate(0 0)" fill="none" stroke="rgba(0,0,0,0)" stroke-linecap="round" stroke-linejoin="round" stroke-width="0.093"/>
          </g>
        </g>
      </g>
      <g id="Group_48100" data-name="Group 48100" transform="matrix(-0.509, 0.86, -0.86, -0.509, 115.819, 64.15)">
        <g id="Group_48093" data-name="Group 48093" transform="matrix(0.978, -0.208, 0.208, 0.978, 0, 8.84)">
          <g id="Group_48092" data-name="Group 48092" transform="translate(0 0)">
            <path id="Path_42228" data-name="Path 42228" d="M21.594,68.236,2.49,70.048A102.617,102.617,0,0,1,.1,54.594q-.682-8.346,3.184-27.366T7.321.055L20.469,0Q19.755,11.759,20,20.476t.769,19.214q.509,10.513.823,18.226A72.874,72.874,0,0,1,21.594,68.236Z" fill="#80553c"/>
          </g>
        </g>
        <g id="Group_48095" data-name="Group 48095" transform="translate(7.102 0)">
          <g id="Group_48094" data-name="Group 48094" transform="translate(0 0)">
            <path id="Path_42229" data-name="Path 42229" d="M13.183,6.591A6.349,6.349,0,0,1,11.25,11.25a6.349,6.349,0,0,1-4.659,1.933A6.349,6.349,0,0,1,1.933,11.25,6.349,6.349,0,0,1,0,6.591,6.349,6.349,0,0,1,1.933,1.933,6.35,6.35,0,0,1,6.591,0,6.349,6.349,0,0,1,11.25,1.933,6.349,6.349,0,0,1,13.183,6.591Z" transform="translate(0)" fill="#80553c"/>
          </g>
        </g>
        <g id="Group_48097" data-name="Group 48097" transform="translate(21.161 12.292)">
          <g id="Group_48096" data-name="Group 48096" transform="translate(0 0)">
            <path id="Path_42230" data-name="Path 42230" d="M14.1,58.843q0,.055-.055.027l-.027-.027v-.027l-.027-.165v-.192l-.137-.878L3.48,18.906.708,5.182.022.077Q-.033.022.049.022.1-.033.1.049L2.63,11.44,10.15,40.1q.6,2.223,1.263,4.968l1.537,6.423,1.18,7.164Z" fill="#9f7b67"/>
          </g>
        </g>
        <g id="Group_48099" data-name="Group 48099" transform="translate(6.778 6.308)">
          <g id="Group_48098" data-name="Group 48098" transform="translate(0 0)">
            <path id="Path_42231" data-name="Path 42231" d="M6.225,60.545,5.21,58.13a28.284,28.284,0,0,1-.851-2.91L3.206,49.154l-.8-7.521q-.165-1.757-.192-2.717l-.8-27.338-.027-.137v-.274L.022.077Q-.033.022.049.022.1-.033.1.049L.653,2.63q.522,2.553.576,2.937.467,2.47.686,3.87l.247,1.949v.137l.027.082v.22l.027.055v.082l.522,7.219q.137,1.784.3,5.517l.137,11.391.8,12.983.851,6.039q.274,1.455.686,2.91l.8,2.5q.055.055-.027.055Q6.225,60.627,6.225,60.545Z" fill="#684633"/>
          </g>
        </g>
      </g>
      <g id="Group_48107" data-name="Group 48107" transform="matrix(-0.879, 0.476, -0.476, -0.879, 133.346, 102.38)">
        <g id="Group_48102" data-name="Group 48102" transform="translate(0 0)">
          <g id="Group_48101" data-name="Group 48101" transform="translate(0 0)">
            <path id="Path_42232" data-name="Path 42232" d="M11.034,22.947a56.614,56.614,0,0,0-3.266-5.6q-1.455-2.223-3.047-4.309-.549-.714-1.125-1.427A21.165,21.165,0,0,0,0,8.043q.906-1.372,2.58.192A6.713,6.713,0,0,1,3.6,9.333a32.322,32.322,0,0,1,3.651,5.682Q8.7,17.842,9.991,20.669q.522,1.153,1.043,2.278m7.713-3.239q-.357-1.455-.741-2.882a56.462,56.462,0,0,0-2.114-6.67,33.187,33.187,0,0,0-1.345-3.074l-1.7-3.541a.639.639,0,0,1,.11-.165,1.254,1.254,0,0,1,1.125-.384h-.137q.247.494.823,1.4a21.946,21.946,0,0,1,1.372,2.69,34.243,34.243,0,0,1,1.757,5.27,28.294,28.294,0,0,1,.851,7.356m-2.8,2.333q-1.455-3.157-2.992-6.2-1.565-3.074-3.212-6.094Q8.976,8.4,8.207,7.082L5.654,2.5Q5,1.619,4.666,1.729A7.474,7.474,0,0,0,3.239,2.772,5.175,5.175,0,0,0,2.223,5.654Q2,2.525,3.459,1.071l.027-.027A3.894,3.894,0,0,1,5.353,0l.714,1.043L8.29,4.557,9.772,7.082q1.1,2.031,2.114,4.117,1.372,2.882,2.525,5.9,1.153,3.047,2.086,6.231Q16.195,22.7,15.948,22.041Z" transform="translate(0.796 0)" fill="#684633"/>
            <path id="Path_42233" data-name="Path 42233" d="M20.284,30.715l-.137,2.223a30.88,30.88,0,0,1-.686,4.529q-1.29,5.325-3.651,7a9.408,9.408,0,0,1-6.231,1.427q-6.423-.467-7.247-5.764-.769-4.886,2.059-16.195a8.143,8.143,0,0,0,.247-3.925q-.11-.659-.247-1.29a16.936,16.936,0,0,0-.851-2.772Q.6,13.642.137,11.364A5.142,5.142,0,0,1,.8,7.356a21.165,21.165,0,0,1,3.6,3.568q.576.714,1.125,1.427,1.592,2.086,3.047,4.309a56.613,56.613,0,0,1,3.266,5.6q-.522-1.125-1.043-2.278Q9.5,17.156,8.042,14.328A32.322,32.322,0,0,0,4.391,8.646a6.713,6.713,0,0,0-1.016-1.1,21.143,21.143,0,0,1-.357-2.58A5.175,5.175,0,0,1,4.035,2.086,7.474,7.474,0,0,1,5.462,1.043q.329-.11.988.769L9,6.4q.769,1.318,1.537,2.663,1.647,3.019,3.212,6.094,1.537,3.047,2.992,6.2.247.659.549,1.29-.933-3.184-2.086-6.231-1.153-3.019-2.525-5.9Q11.665,8.427,10.567,6.4L9.085,3.87A4.585,4.585,0,0,1,10.211.714,2.007,2.007,0,0,1,10.54.357.49.49,0,0,1,10.677.22,1.219,1.219,0,0,1,10.9.11,1.517,1.517,0,0,1,11.308,0a.43.43,0,0,1,.082.11l2.251,2.745,1.7,3.541A33.188,33.188,0,0,1,16.688,9.47,56.462,56.462,0,0,1,18.8,16.14q.384,1.427.741,2.882a28.294,28.294,0,0,0-.851-7.356A34.242,34.242,0,0,0,16.935,6.4a21.946,21.946,0,0,0-1.372-2.69q-.576-.906-.823-1.4h.247l.22-.027.823.192a2.4,2.4,0,0,1,.384.357A7.453,7.453,0,0,1,18.637,6.4a23.156,23.156,0,0,1,.851,2.553,61.487,61.487,0,0,1,1.318,6.972,33.216,33.216,0,0,1,.22,7.8l-.22,2.086Q20.559,28.245,20.284,30.715Z" transform="translate(0 0.686)" fill="#80553c"/>
          </g>
        </g>
        <g id="Group_48104" data-name="Group 48104" transform="translate(0.678 13.464)">
          <g id="Group_48103" data-name="Group 48103" transform="translate(0 0)">
            <path id="Path_42234" data-name="Path 42234" d="M2.121,29.055q.055.055-.027.055-.055.055-.055-.027l-.082-.137-.027-.082v-.055L1.9,28.78l-.027-.165-.11-.3-.22-1.153v-.082l-.027-.055v-.165l-.027-.137v-.165a10.612,10.612,0,0,1-.082-1.318L1.682,20,3.741,8.578l.027.082V8.5l-.027.082L3.412,6.986,2.643,4.927l-.027-.055L2.588,4.79,1.929,3.472,1.819,3.2.035.1Q-.047.014.063.014q0-.027.055,0l.961,1.18.165.247.384.467,1.4,2.168.055.137.165.247.027.082.329.6L4.619,7.892l.11.631.027.082-.027.082-.988,5.078L1.929,26.529l.11,2.059.027.137v.055l.027.027v.082Z" fill="#684633"/>
          </g>
        </g>
        <g id="Group_48106" data-name="Group 48106" transform="translate(9.167 37.193)">
          <g id="Group_48105" data-name="Group 48105" transform="translate(0 0)">
            <path id="Path_42235" data-name="Path 42235" d="M3.294,4.117V3.294h.823m-.823,0V2.47m3.294.823L3.294,0,0,3.294,3.294,6.588Zm-4.117,0h.823" fill="none" stroke="rgba(0,0,0,0)" stroke-linecap="round" stroke-linejoin="round" stroke-width="0.093"/>
          </g>
        </g>
      </g>
      <g id="Group_48116" data-name="Group 48116" transform="matrix(0.246, 0.969, -0.969, 0.246, 119.996, 36.662)">
        <g id="Group_48109" data-name="Group 48109" transform="matrix(0.978, 0.208, -0.208, 0.978, 14.561, 0)">
          <g id="Group_48108" data-name="Group 48108" transform="translate(0 0)">
            <path id="Path_42236" data-name="Path 42236" d="M21.592,1.811,2.49,0A102.608,102.608,0,0,0,.1,15.452Q-.579,23.8,3.286,42.815T7.32,69.986l13.146.055Q19.753,58.283,20,49.567t.768-19.212q.509-10.512.823-18.224A72.866,72.866,0,0,0,21.592,1.811Z" fill="#80553c"/>
          </g>
        </g>
        <g id="Group_48111" data-name="Group 48111" transform="translate(7.101 64.169)">
          <g id="Group_48110" data-name="Group 48110" transform="translate(0 0)">
            <path id="Path_42237" data-name="Path 42237" d="M13.181,6.591a6.349,6.349,0,0,0-1.933-4.658A6.349,6.349,0,0,0,6.591,0,6.349,6.349,0,0,0,1.933,1.933,6.349,6.349,0,0,0,0,6.591a6.349,6.349,0,0,0,1.933,4.658,6.349,6.349,0,0,0,4.658,1.933,6.349,6.349,0,0,0,4.658-1.933A6.349,6.349,0,0,0,13.181,6.591Z" transform="translate(0 0)" fill="#80553c"/>
          </g>
        </g>
        <g id="Group_48113" data-name="Group 48113" transform="translate(21.159 6.185)">
          <g id="Group_48112" data-name="Group 48112" transform="translate(0 0)">
            <path id="Path_42238" data-name="Path 42238" d="M14.1.037q0-.055-.055-.027l-.027.027V.064l-.027.165V.421l-.137.878L3.48,39.97.708,53.693.022,58.8q-.055.055.027.055.055.055.055-.027l2.525-11.39,7.52-28.653q.6-2.223,1.262-4.968l1.537-6.422L14.129.229Z" fill="#9f7b67"/>
          </g>
        </g>
        <g id="Group_48115" data-name="Group 48115" transform="translate(6.778 10.454)">
          <g id="Group_48114" data-name="Group 48114" transform="translate(0 0)">
            <path id="Path_42239" data-name="Path 42239" d="M6.225.049,5.209,2.465a28.282,28.282,0,0,0-.851,2.909L3.206,11.439l-.8,7.52q-.165,1.757-.192,2.717l-.8,27.336-.027.137v.274L.022,60.512q-.055.055.027.055Q.1,60.622.1,60.54l.549-2.58q.521-2.552.576-2.937.467-2.47.686-3.87L2.163,49.2v-.137l.027-.082v-.22l.027-.055v-.082l.521-7.218q.137-1.784.3-5.517L3.178,24.5l.8-12.982.851-6.038q.274-1.455.686-2.909l.8-2.5Q6.362.022,6.28.022,6.225-.033,6.225.049Z" fill="#684633"/>
          </g>
        </g>
      </g>
      <g id="Group_48123" data-name="Group 48123" transform="matrix(0.855, 0.519, -0.519, 0.855, 52.102, 58.129)">
        <g id="Group_48118" data-name="Group 48118" transform="translate(0.082 0)">
          <g id="Group_48117" data-name="Group 48117" transform="translate(0 0)">
            <path id="Path_42240" data-name="Path 42240" d="M0,18.992a4.3,4.3,0,0,0,1.537,0Q8.316,5.517,8.014,0A121.5,121.5,0,0,1,0,18.992m7.52,1.18a3.536,3.536,0,0,0,1.537,1.592L13.366,2.223,7.52,20.172m10.292-9.5a13.62,13.62,0,0,0,.631-1.784A9.5,9.5,0,0,0,18.5,5.6a26.755,26.755,0,0,1-.823,2.964,52.782,52.782,0,0,1-2.662,6.367q-.741,1.51-1.592,3.019-.11.22-.247.439l.329-.11a5.223,5.223,0,0,0,.494-.22q.082-.027.192-.055l.823-1.427.768-1.592a.693.693,0,0,0,.082-.165q.576-1.125,1.1-2.251Q17.51,11.335,17.812,10.676Z" transform="translate(3.829 21.406)" fill="#684633"/>
            <path id="Path_42241" data-name="Path 42241" d="M22.519,21.927A59.55,59.55,0,0,0,20.9,15.56,29.956,29.956,0,0,0,14.615,4.582Q9.922-.935,5.585.191-5.53,3.155,5.476,22.97q-2.086,7.246-3.1,12.652-.823,4.2,1.455,4.776a121.5,121.5,0,0,0,8.014-18.992q.3,5.517-6.477,18.992A4.3,4.3,0,0,0,7.314,44.46q2.058,1.317,4.034-2.882l5.846-17.949L12.886,43.17q2.031.768,4.089-3.293A.112.112,0,0,1,17,39.794q.137-.22.247-.439.851-1.509,1.592-3.019A52.782,52.782,0,0,0,21.5,29.969,26.755,26.755,0,0,0,22.327,27a9.5,9.5,0,0,1-.055,3.293,13.62,13.62,0,0,1-.631,1.784q-.3.659-.851,1.894-.521,1.125-1.1,2.251a.693.693,0,0,1-.082.165l-.768,1.592-.823,1.427-.055.055a4.858,4.858,0,0,0,.714-.576,5.642,5.642,0,0,0,.823-.823q.439-.439.8-.823a11.379,11.379,0,0,0,1.784-2.36q.851-1.619,1.564-3.266a6.45,6.45,0,0,0,.549-2.5,9.163,9.163,0,0,0-.521-3.211q-.329-.906-1.153-3.925Z" fill="#80553c"/>
          </g>
        </g>
        <g id="Group_48120" data-name="Group 48120" transform="translate(0 0.259)">
          <g id="Group_48119" data-name="Group 48119" transform="translate(0 0)">
            <path id="Path_42242" data-name="Path 42242" d="M1.057,2.841l-.027.082L.865,3.2A8.084,8.084,0,0,0,.288,4.734,15.871,15.871,0,0,0,.014,6.326q-.027.823,0,1.647.055,1.07.137,1.619l.055.192.082.6.055.192.027.192.055.192.027.192L1.935,15.74l2,4.336L5.5,22.821l-.055-.082v.055l-.082.549L3.884,28.749q-.055.055.027.055.055.055.055-.027l2.223-5.654.055-.357v-.22l-.027-.027-2.992-6.45L1.441,10.745l-.027-.192-.055-.192-.027-.192-.055-.192-.027-.192L1.194,9.62l-.027-.192Q1,8.385.974,7.891L.947,7.808V7.726L.919,7.534.892,6.765l.165-1.839.412-1.455A4.921,4.921,0,0,1,1.8,2.786l.082-.165.412-.631.768-.851L4.46.1A.024.024,0,0,0,4.487.069a.034.034,0,0,0,0-.055.034.034,0,0,0-.055,0L3.691.343,3.609.4,3.527.425l-1.153.823-.3.274-.8.961Z" fill="#684633"/>
          </g>
        </g>
        <g id="Group_48122" data-name="Group 48122" transform="translate(3.801 3.265)">
          <g id="Group_48121" data-name="Group 48121" transform="translate(0 0)">
            <path id="Path_42243" data-name="Path 42243" d="M3.293,2.47v.823h.823m-.823,0v.823m3.293-.823L3.293,6.587,0,3.293,3.293,0Zm-4.117,0h.823" fill="none" stroke="rgba(0,0,0,0)" stroke-linecap="round" stroke-linejoin="round" stroke-width="0.093"/>
          </g>
        </g>
      </g>
      <g id="Group_48128" data-name="Group 48128" transform="translate(57.792 138.525) rotate(-2.982)">
        <g id="Group_48125" data-name="Group 48125" transform="translate(0 9.69)">
          <g id="Group_48124" data-name="Group 48124" transform="translate(0 0)">
            <path id="Path_42244" data-name="Path 42244" d="M22.124,6.89a15.855,15.855,0,0,0-2.58,1.043A37.313,37.313,0,0,0,14.411,11.2a44.987,44.987,0,0,0-4.639,4.035,25.014,25.014,0,0,0-3.815,4.941q-1.674,2.8-2.937,5.408a48.385,48.385,0,0,0-2.306,5.6L0,.329,22.042,0Z" fill="#80553c"/>
            <path id="Path_42245" data-name="Path 42245" d="M21.218,33.1h-.137a10.063,10.063,0,0,1-3.047,6.67,10.1,10.1,0,0,1-7.411,3.074,10.224,10.224,0,0,1-7.466-3.074A10.179,10.179,0,0,1,.11,32.335q0-.3.027-.6L0,24.293a48.385,48.385,0,0,1,2.306-5.6q1.263-2.608,2.937-5.408A25.015,25.015,0,0,1,9.058,8.345,44.988,44.988,0,0,1,13.7,4.31,37.313,37.313,0,0,1,18.83,1.043,15.854,15.854,0,0,1,21.411,0Z" transform="translate(0.714 6.89)" fill="#684633"/>
          </g>
        </g>
        <g id="Group_48127" data-name="Group 48127" transform="translate(6.835 0)">
          <g id="Group_48126" data-name="Group 48126" transform="translate(0 0)">
            <path id="Path_42246" data-name="Path 42246" d="M3.294,4.117V3.294h.823m-.823,0V2.47m3.294.823L3.294,0,0,3.294,3.294,6.588Zm-4.117,0h.823" fill="none" stroke="rgba(0,0,0,0)" stroke-linecap="round" stroke-linejoin="round" stroke-width="0.093"/>
          </g>
        </g>
      </g>
      <g id="Group_48213" data-name="Group 48213" transform="translate(35.046 162.471) rotate(-6.811)">
        <g id="Group_48129" data-name="Group 48129" transform="translate(22.909 17.963)">
          <path id="Path_42247" data-name="Path 42247" d="M21.014,10.507a10.075,10.075,0,0,0-3.086-7.421A10.075,10.075,0,0,0,10.507,0,10.141,10.141,0,0,0,3.065,3.086,10.108,10.108,0,0,0,0,10.507a10.175,10.175,0,0,0,3.065,7.442,10.175,10.175,0,0,0,7.442,3.065,10.108,10.108,0,0,0,7.421-3.065A10.141,10.141,0,0,0,21.014,10.507Z" transform="translate(0 0)" fill="none" stroke="red" stroke-linecap="round" stroke-linejoin="round" stroke-width="0.093"/>
        </g>
        <g id="Group_48135" data-name="Group 48135" transform="translate(10.513 21.443)">
          <g id="Group_48131" data-name="Group 48131" transform="translate(0 0)">
            <g id="Group_48130" data-name="Group 48130" transform="translate(0 0)">
              <path id="Path_42248" data-name="Path 42248" d="M54.927,58.628a31,31,0,0,1-22.756,9.415A31,31,0,0,1,9.415,58.628,31,31,0,0,1,0,35.872,30.956,30.956,0,0,1,4.914,18.661l.027-.137Q16.5,2.352,32.94.215,52.377-1.7,63.272,13.39l.714,17.266-.165-.686a32.6,32.6,0,0,1,.522,5.9A31,31,0,0,1,54.927,58.628Z" fill="#80553c"/>
            </g>
          </g>
          <g id="Group_48134" data-name="Group 48134" transform="translate(22.536 43.072)">
            <g id="Group_48133" data-name="Group 48133" transform="translate(0 0)">
              <g id="Group_48132" data-name="Group 48132">
                <path id="Path_42249" data-name="Path 42249" d="M25.83.733a5.034,5.034,0,0,1,3.678,2.388A7.258,7.258,0,0,1,30.5,5.18Q31.018.733,35.9.349a4.259,4.259,0,0,1,4.09,2A5.081,5.081,0,0,1,41.01,5.921q-.714.906-20.834,3.212Q0,11.466,0,10.505A10.993,10.993,0,0,1,2.69,2.764,8.164,8.164,0,0,1,7.851.1a11.015,11.015,0,0,1,8.4,2.114,13.329,13.329,0,0,1,2.937,3.239A6.8,6.8,0,0,1,21.6,1.776,5.773,5.773,0,0,1,25.83.733Z" fill="#684633"/>
              </g>
            </g>
          </g>
        </g>
        <g id="Group_48140" data-name="Group 48140" transform="translate(20.779 0)">
          <g id="Group_48137" data-name="Group 48137" transform="translate(0 0.181)">
            <g id="Group_48136" data-name="Group 48136" transform="translate(0 0)">
              <path id="Path_42250" data-name="Path 42250" d="M8.07,14.861Q16.78,3.726,25.336,1.246t11.858-.027q7,11.524,13.368,21.191,6.371,9.636,1.647,19.407L0,40.637Q1.2,22.195,8.07,14.861Z" fill="#80553c"/>
            </g>
          </g>
          <g id="Group_48139" data-name="Group 48139" transform="translate(13.299)">
            <g id="Group_48138" data-name="Group 48138" transform="translate(0 0)">
              <path id="Path_42251" data-name="Path 42251" d="M28.095,8.207q.082.082-.027.082h-.055L24.993,4.2l-.027-.082-.027-.055-.082-.11q-.549-.741-.714-.933l-.769-.769-.137-.11-.055-.055-.055-.027-.384-.3-.549-.3-.576-.192a3,3,0,0,0-.631-.11H20.9l-.055-.027H20.3l-5.819.549L14.4,1.7h-.11l-3.019.741-.027.027h-.055l-.823.274a13.329,13.329,0,0,0-1.4.494l-.686.274L8.111,3.6l-.082.027-.082.055-1.565.8q-.988.549-2.2,1.318L2.4,7.027.151,9.058.1,9.141q-.027.027-.082,0-.027-.055,0-.082l.055-.082L1.551,7.411,3.966,5.462q1.29-.906,2.169-1.427A13.7,13.7,0,0,1,7.37,3.321l.3-.192L7.755,3.1l2.388-1.043.741-.247.082-.055h.055l.055-.027L14.123.878h.055l.027-.027h.027l.082-.027,3.568-.6q.549-.055,1.592-.165L21.068,0a4.5,4.5,0,0,1,1.62.439l.686.412.494.439.082.055.961,1.043A8.446,8.446,0,0,1,25.6,3.514l.165.274.11.247Z" fill="#9f7b67"/>
            </g>
          </g>
        </g>
        <g id="Group_48163" data-name="Group 48163" transform="translate(0 37.798)">
          <g id="Group_48142" data-name="Group 48142" transform="translate(9.36 0)">
            <g id="Group_48141" data-name="Group 48141" transform="translate(0 0)">
              <path id="Path_42252" data-name="Path 42252" d="M0,25.693q.247-5.078.769-9.113.274-2.086.576-3.733,3.459.329,6.643-2.69Q11.721,6.615,12.874,0a128.433,128.433,0,0,1,.769,15.729,63.9,63.9,0,0,0,1.345,14.384q-1.647.686-7.274-1.318Q6.89,28.52,0,25.693Z" fill="url(#linear-gradient)"/>
            </g>
          </g>
          <g id="Group_48144" data-name="Group 48144" transform="translate(0 17.238)">
            <g id="Group_48143" data-name="Group 48143" transform="translate(0 0)">
              <path id="Path_42253" data-name="Path 42253" d="M53.829,52.319a8.757,8.757,0,0,1-3.349,1.51,12.821,12.821,0,0,1-5.6-.027,7.39,7.39,0,0,1-4.2-3.157q-.659,3.074-3.486,2.69t-4.447-3.9a2.285,2.285,0,0,1-1.318.741,2.525,2.525,0,0,1-1.537-.22,3.87,3.87,0,0,1-1.427-1.016,2.707,2.707,0,0,1-.631-1.592,3.929,3.929,0,0,1-2.086,2,4.92,4.92,0,0,1-4.474-.192,6.728,6.728,0,0,1-3.157-2.8,5.45,5.45,0,0,1-.6-3.568,12.5,12.5,0,0,1-4.721-.659,7.955,7.955,0,0,1-3.87-2.361,13.283,13.283,0,0,1-2.772-5.38A10.508,10.508,0,0,1,6.2,28.959q-1.455-.467-3.294-3.074A17.672,17.672,0,0,1,.3,20.615a8,8,0,0,1,.906-6.341A44.336,44.336,0,0,1,4.365,9.525,7.714,7.714,0,0,1,5.874,3.87,10.569,10.569,0,0,1,10.019,0l.247,2.169a8.706,8.706,0,0,0,1.62,4.474A5.2,5.2,0,0,1,17.4,4.584,4.038,4.038,0,0,1,20.368,7.3a35.329,35.329,0,0,1,1.153,4.941,5.326,5.326,0,0,1,3.184-1.51,7.839,7.839,0,0,1,3.761.467,10.855,10.855,0,0,1,4.584,4.035q.686,1.592,1.043,2.553-.055-2.525,3.157-4.914a14.065,14.065,0,0,1,5.462-2.47,12.424,12.424,0,0,1,6.094.741,8.816,8.816,0,0,1,3.843,3.87q.769-1.565,3.541-2.553a7.061,7.061,0,0,1,4.721-.3,4.179,4.179,0,0,1,2,1.372,4.513,4.513,0,0,1,.741,2.114,5.107,5.107,0,0,1,3.019-4.474,11.126,11.126,0,0,1,3.4-.6,5.109,5.109,0,0,1,2.2.522,4.026,4.026,0,0,1,1.647,1.784,6.935,6.935,0,0,1,5.051-1.1,6.8,6.8,0,0,1,5.71,4.117,7.821,7.821,0,0,1,.384,6.725A7.27,7.27,0,0,1,81.8,26.242a4.553,4.553,0,0,1,1.208,3.267,5.054,5.054,0,0,1-.631,2.525q-1.812,2.992-5.9,2.772a6.763,6.763,0,0,1,2.855,2.361,5.208,5.208,0,0,1,1.071,4.8q-.769,2.69-4.172,3.541a10.668,10.668,0,0,1-6.313-.329,6.069,6.069,0,0,1-.384,2.8,4.478,4.478,0,0,1-2.443,2.086,6.88,6.88,0,0,1-3.816.549,4.45,4.45,0,0,1-2.882-1.729,3.293,3.293,0,0,1-1.867,1.263,1.989,1.989,0,0,1-1.427-.3,2.44,2.44,0,0,1-.988-.933A5.371,5.371,0,0,1,53.829,52.319Z" fill="#140e0e"/>
            </g>
          </g>
          <g id="Group_48148" data-name="Group 48148" transform="translate(0 21.575)">
            <g id="Group_48145" data-name="Group 48145" transform="translate(39.912 7.055)">
              <path id="Path_42254" data-name="Path 42254" d="M12.792,3.486l.027-.055,1.592-1.7.741-.549.741-.412.082-.055.082-.027.686-.3L17.293.22l.192-.027.192-.055h.11L17.842.11h.027l.823-.055a6.906,6.906,0,0,1,1.674.22l.192.055.384.165.11.027h.027V.549h.027l.027.027.11.027.027.027.055.027.11.027.8.522.3.274a4.321,4.321,0,0,1,.549.631l.412.659.137.357.027.027v.027l.027.027.055.165V3.4l.027.055.055.165v.055l.027.055v.082l.137.659v.137l.027.082v.8l-.027.137v.137l-.027.11-.11.659-.11.329L23.717,7l-.055.11-.027.11-.082.165v.055l-.11-.027.027-.055V7.082l.027-.137V5.874l-.027-.137v-.11l-.027-.11V5.38l-.055-.247V5l-.027-.137L23.332,4.8,23.3,4.721l-.055-.247-.192-.494V3.953l-.027-.027-.055-.137V3.761l-.027-.055-.055-.055-.027-.082V3.541l-.027-.055-.522-.769L21.8,2.2l-.467-.329-.494-.247-.027-.027-.082-.027-.055-.027h-.027L20.56,1.51,20.4,1.427l-.165-.055L19.38,1.18l-1.427-.055-.027.027h-.082l-.494.082-.082.027h-.082l-.165.055-.165.027-1.839.769L13.039,3.4l-.137.11-.055.027-.055-.055m31.457.329-.027-.055-.275-.274-.082-.055-.082-.11L43.7,3.239l-.357-.3-.137-.082-.6-.439-.384-.192-.082-.055-.741-.3a.663.663,0,0,0-.22-.082l-.22-.082-.11-.055-.11-.027L40.6,1.565l-.329-.082-.082-.027-.055-.027-.247-.055h-.027l-.027-.027h-.082L39.5,1.29a5.479,5.479,0,0,0-.961-.192l-.494-.055-.055-.027-1.1-.027-.22.027h-.192l-.412.055-.11.027h-.082l-.988.22-.576.192-.137.027-.027.027-.055-.082.055-.027.274-.274.3-.22.6-.329.165-.11.192-.082h.055l.055-.027L36.316.22l.467-.11h.082L36.92.082h.137L37.3.027h.247L37.634,0h.824l.055.027h.137l.137.027h.137l1.125.22L40.1.3h.055l.027.027.247.055.055.027,1.345.549.22.137.11.055.714.494.494.467a3.526,3.526,0,0,1,.467.631l.11.137.192.357.137.357.027.137.027.027-.082.055M2.882,41.477l-.494-.384-.11-.11-.055-.027-.906-.933-.027-.055-.082-.082-.3-.439-.055-.11L.8,39.253l-.11-.22-.055-.082-.165-.3-.412-1.18L.027,37.3,0,37.249l.082-.027.027.055.714.961.055.055.055.082.137.137.275.329.055.082.549.549L2,39.5l.384.329.082.082.329.247.055.027.055.055.549.384.247.137.137.055.11.082.137.027.357.192.082.027.384.165L5,41.339l.247.11.823.274,1.565.357h.137l.11.027.494.055h.11l.11.027h.22a2.79,2.79,0,0,0,.439.027h1.565l.055-.027.027.11h-.055l-.137.082-.165.055-.11.055-1.345.357-.467.055H8.482l-.11.027L6.7,42.9l-1.51-.329-.906-.329-.192-.11-.082-.027-1.125-.631M20.56,34.2,20.5,34.12l-.027-.055-.055-.027.027-.082.055.027h.165l.055.027h.055l.137.027h.165l.11.027h.686l.192-.027.082-.027h.055l.22-.11h.027l.055-.027.027-.027.055-.027.3-.274.137-.192.027-.027.027-.055.055-.055.027-.055.055-.082.055-.11.055-.055v-.027l.055-.11a1.1,1.1,0,0,0,.165-.384v-.055l.027-.027V32.2l.027-.082v-.055l.027-.055v-.412l-.027-.082v-.137l-.027-.055v-.055l-.027-.082v-.055l-.027-.082.055-.027.055.027.055.055.082.055.055.027.027.055.11.11.055.082.027.027.027.055a1.782,1.782,0,0,1,.22.412l.027.055v.055l.055.137.027.3v.137l-.027.165v.082l-.027.082-.027.165-.027.055-.055.165v.055l-.027.027-.055.165-.082.137-.027.082-.027.055-.055.055v.055h-.027v.027h-.027l-.192.274-.274.275-.137.11-.082.027-.165.11-.275.082a.787.787,0,0,1-.357.082,2.594,2.594,0,0,1-.631-.027l-.137-.055-.137-.027-.357-.165-.247-.165-.137-.137-.11-.082-.055-.055Z" transform="translate(0 0)" fill="#493f3f"/>
            </g>
            <g id="Group_48146" data-name="Group 48146" transform="translate(0 0)">
              <path id="Path_42255" data-name="Path 42255" d="M9.635,4.749l.082-.11L9.8,4.474l.055-.082.055-.11L10.98,2.8l1.1-1.153.11-.082.11-.11.055-.027.055-.055.769-.549.769-.384h.027l.851-.274L15.756,0l1.1.027.576.11.082.027h.055l.137.055h.055l.11.055H17.9L17.925.3l.22.082L18.2.412l.055.055.137.055.494.384.082.082.11.082.22.22.055.082.137.137L19.9,2l.055.11.082.082.082.165.082.11q.027.027-.027.082h-.055l-.247-.192-.11-.055-.082-.082L19.3,1.976l-.137-.11-.467-.3-.11-.055L18.5,1.455l-.384-.192-.11-.027-.082-.055-.055-.027h-.055l-.11-.027L17.678,1.1h-.055l-.082-.027h-.027l-.11-.027h-.137a3.264,3.264,0,0,0-.494-.027H16.25l-1.043.165-.137.055-.659.192-.055.027h-.027l-.027.027-.6.274L11.776,3.1l-.165.165-.192.137-.933.8-.055.027-.274.247-.11.082-.082.082-.137.082-.11.11q-.027.027-.082-.027V4.749M3.184,21.658q.082.082-.027.082H3.1L1.867,20.2l-.8-1.372-.247-.549L.8,18.254l-.6-2.031L.165,16.2V16.14l-.027-.11-.027-.22V15.7l-.027-.11L0,14.741l.055-1.565.082-.659.11-.439.027-.22.137-.522.055-.11.11-.412.055-.082.027-.11L1.729,8.455,2.882,6.808l.11-.11.082-.11,1.372-1.4h.082V5.27L3.9,6.259l-.11.22-.274.439-.082.11-1.263,2.5-.027.082-.055.082L1.29,12.3l-.027.22-.027.082v.11l-.027.192-.055.192v.22a4.078,4.078,0,0,0-.055.8l-.027.192v.384l.027.22v.384l.027.192v.192l.027.192.027.11v.082l.055.384.055.192.055.357.22.878.027.082.027.055v.027L1.949,19l1.235,2.663m14.384,16.58a3.878,3.878,0,0,0,.522.027l1.016.055a.049.049,0,0,1,.055.055l-.027.027-.576.11-1.62.165-1.345-.027L13.56,38.32l-1.455-.494-.494-.22-1.894-1.18-.357-.274L7.933,34.724l-.522-.686V34.01H7.384l-.027-.027-.027-.055-.137-.192v-.027l-.027-.027-.741-1.235-.22-.522a4.015,4.015,0,0,1-.384-1.043l-.082-.247-.055-.274L5.6,30.112l-.027-.274-.027-.055v-.055l-.027-.137v-.137l-.082-.631.11-1.867.274-1.18.055-.165.082-.165a5.252,5.252,0,0,1,.522-1.071l.576-.878q.055-.027.082,0v.082L6.89,24.1l-.055.192-.082.192a6.866,6.866,0,0,0-.329,1.1l-.055.165-.137.906v.192l-.027.192L6.231,28.3l.027.11v.11l.027.11v.11l.192.906a5.736,5.736,0,0,0,.274.933,9,9,0,0,0,.878,1.839l.055.11.357.522L8.1,33.1l.027.055.082.11.027.055.027.027v.027H8.29l.494.631.082.082a12.733,12.733,0,0,0,1.51,1.482l.823.631.11.055.3.22,1.208.631.11.027.22.11.659.247.11.027.11.055,2.388.549h.11l.082.027.659.055h.082l.082.027h.137M37.139,18.446l-.165.11-.055.055-.082.027-.165.11-.082-.027v-.055l.055-.082.055-.165.055-.055.165-.357.165-.549V17.4l.027-.082.027-.247v-.549l-.055-.3-.055-.137V16L37,15.976v-.027l-.027-.082v-.027l-.027-.027-.055-.192v-.027l-.027-.027-.137-.357-.329-.467-.3-.3-.494-.3-.6-.274-.11-.027-.659-.22h-.055l-.11-.055-.082-.027a.049.049,0,0,1-.055-.055l.027-.027.11-.055.11-.027h.055l.082-.027.659-.082a.357.357,0,0,1,.274,0h.165l.494.082.549.192.082.055.082.027.082.055.11.055.329.274.412.494.357.686v.055l.027.055.055.165v.055l.027.055.027.11v.055l.027.055v.11l.027.192v.6l-.027.11v.082l-.027.11v.055l-.027.027-.11.357-.055.082-.027.082-.027.055-.137.22-.055.055-.027.055-.11.137Z" fill="#493f3f"/>
            </g>
            <g id="Group_48147" data-name="Group 48147" transform="translate(36.014 37.99)">
              <path id="Path_42256" data-name="Path 42256" d="M1.784,3.788H1.4L.906,3.623.8,3.541.329,3.1.055,2.608.027,2.5,0,2.443l.027-.082H.082l.055.055.082.027.384.22.247.082L.933,2.8l.192.027.027.027h.11l.027.027.192-.027h.055l.055-.027H1.62l.165-.082.082-.027.082-.055.082-.082.055-.027.329-.329.027-.055L2.5,2.141l.027-.055.027-.027.055-.11.027-.027.055-.082.055-.192.027-.027V1.51L2.8,1.455v-.11h.027V.906H2.8V.823L2.772.769V.741L2.745.686V.6L2.718.576,2.47.137,2.416.082,2.443,0h.11l.11.027.11.055.3.192L3.129.3l.027.027.055.027.137.137L3.431.6V.631l.027.027.027.082.082.11.11.329v.11h.027v.165l.027.11v.165l-.027.082L3.651,2.2,3.6,2.361l-.055.082-.027.082-.274.412L3.074,3.1a3.386,3.386,0,0,1-.549.467l-.165.082Z" transform="translate(0 0)" fill="#493f3f"/>
            </g>
          </g>
          <g id="Group_48150" data-name="Group 48150" transform="translate(20.703 27.532)">
            <g id="Group_48149" data-name="Group 48149" transform="translate(0 0)">
              <path id="Path_42257" data-name="Path 42257" d="M13.335,9.854l-.055-.247L13.2,8.976l-.3-1.235a.683.683,0,0,0-.082-.3l-.3-.961-.082-.165-.055-.165-.055-.082L12.265,5.9l-.22-.439a6.432,6.432,0,0,0-.851-1.372l-.522-.631-.055-.027-.6-.549-.055-.027-.11-.11-.11-.055L9.3,2.361l-.769-.439-.082-.055-.11-.027-.192-.11-.3-.11-.11-.055-.11-.027-.11-.055L6.884,1.29l-.027-.027H6.8L5.21.988a6.277,6.277,0,0,0-1.565.082L3.453,1.1l-.357.11h-.11l-.027.027H2.9l-.412.137-.082.055-.137.055-.549.3-.082.027-.055.055-.055.027-.055.055-.22.165A6.054,6.054,0,0,0,.571,2.8L.1,3.514q0,.082-.055.027-.082,0-.027-.055l.137-.494.165-.357.055-.082.055-.11.137-.22.055-.11.055-.055L.708,2l.082-.11.494-.522.22-.165.055-.055L1.943.878,2.108.8,2.19.741l.467-.22L2.685.494h.055L2.822.439,3.014.384l.11-.055L3.453.247A6.184,6.184,0,0,1,5.237,0L6.692.137,7.049.22,7.1.247h.082l.686.22L8.01.494l.22.11.11.027.686.329q.22.11.878.494l.192.165.22.137.082.082.192.137.055.055.055.027.357.329.165.192.11.082V2.69l.027.027.055.027.165.192.055.082.384.494a7.893,7.893,0,0,1,.823,1.592l.055.22.082.192v.027l.027.055.192.659.027.192.055.192.11.686.11,1.62-.082.878a.049.049,0,0,1-.055.055Z" fill="#493f3f"/>
            </g>
          </g>
          <g id="Group_48152" data-name="Group 48152" transform="translate(27.697 61.954)">
            <g id="Group_48151" data-name="Group 48151" transform="translate(0 0)">
              <path id="Path_42258" data-name="Path 42258" d="M3.129,5.9H3.047l-.192.027L2.663,5.9H2.5l-.192-.027a3.076,3.076,0,0,1-.686-.247H1.592L1.537,5.6l-.055-.055L1.4,5.517l-.082-.055L1.235,5.38H1.208L1.18,5.353l-.11-.082L.823,5.023.467,4.529.329,4.282.137,3.788.082,3.541.055,3.486V3.431l-.027-.11L0,3.1V2.361L.027,2.2v-.11l.055-.3L.137,1.62l.055-.027.027.055.165.823.055.165v.082l.082.274.247.549a2.69,2.69,0,0,0,.522.686l.192.192.055.027.082.082.137.082h.027l.055.027.027.027.11.055H2l.027.027.22.055h.027l.027.027h.11l.055.027h.357l.11-.027a1.747,1.747,0,0,0,.467-.11l.137-.055H3.6l.165-.082L3.87,4.5h.055l.027-.027.055-.027.055-.055h.055V4.365h.027L4.831,3.9l.522-.467.11-.082.055-.055.027-.055.11-.082.549-.6.11-.082L7.658.823,7.713.769,7.768.686,8.207.137l.11-.11Q8.317,0,8.4,0V.055L8.207.6,7.576,2a4.84,4.84,0,0,1-.522.878L7,2.992l-.329.467-.11.11-.6.714-.988.851L4.694,5.3v.027q0-.027-.027,0l-.027.027-.082.027L4.5,5.435H4.474l-.027.027H4.419l-.329.165-.165.055-.165.082L3.6,5.819h-.11l-.165.055H3.239Z" transform="translate(0)" fill="#493f3f"/>
            </g>
          </g>
          <g id="Group_48154" data-name="Group 48154" transform="translate(4.258 17.749)">
            <g id="Group_48153" data-name="Group 48153" transform="translate(0 0)">
              <path id="Path_42259" data-name="Path 42259" d="M1.685,4.727l-.058.1L.322,8.716.287,8.9l-.113.3-.08,0L.073,9.153.026,8.891l0-.112L0,8.686.027,6.66.239,5.53l.037-.113.017-.132.168-.473a4.691,4.691,0,0,1,.377-.947l.789-1.35.1-.1.019-.057.039-.038.175-.21a6.159,6.159,0,0,1,.665-.691l.157-.154.808-.6.1-.059L3.747.553l.3-.138L4.163.336l.7-.3L4.9,0,4.94.074,4.9.112l-.058.1L4.216.823l-.1.134L4,1.071l-.117.153-.118.115-.6.783L3.086,2.2,2.41,3.247l-.1.209-.173.285-.057.133-.116.19Z" fill="#493f3f"/>
            </g>
          </g>
          <g id="Group_48156" data-name="Group 48156" transform="translate(55.973 62.613)">
            <g id="Group_48155" data-name="Group 48155" transform="translate(0 0)">
              <path id="Path_42260" data-name="Path 42260" d="M4.383,3.953,4.1,4.282l-.363.3-.4.22-.135.027L3.1,4.886,3,4.914H2.858l-.08.027h-.11l-.108.027H2.34l-.112-.027h-.22l-.392-.11-.368-.165-.4-.247L.788,4.365.673,4.282l-.09-.11-.117-.11L.4,3.953.252,3.761.219,3.678a1.778,1.778,0,0,1-.154-.247L.031,3.349,0,3.294l.051-.055.057.027.086.055L.282,3.4l.057.027.086.055.059.055.172.11.227.11L1,3.788l.227.11.529.11h.412l.053-.027H2.3l.08-.027h.082l.053-.027.08-.027h.082l.106-.055.08-.027.106-.055.051-.055.053-.027.234-.192.3-.357.049-.082.051-.055,0-.027.026-.027.049-.082L3.808,2.8h.027l0-.027.051-.055.073-.137L4,2.443l.051-.055.089-.3.024-.055.022-.082.024-.055.022-.082,0-.027.026-.027.054-.412.024-.055L4.321,1.1l.01-.247.02-.11L4.3.027,4.354,0l.031.055.061.082L4.534.22,4.6.384l.061.082.033.082.125.22.1.274.037.137.006.082L5,1.345l.039.165.038.549-.022.082.008.11-.041.192.006.082-.04.22-.049.082-.041.192-.1.192-.02.11-.026.027,0,.027L4.729,3.4l-.049.082-.047.11-.049.082-.077.082Z" fill="#493f3f"/>
            </g>
          </g>
          <g id="Group_48158" data-name="Group 48158" transform="translate(63.565 34.065)">
            <g id="Group_48157" data-name="Group 48157" transform="translate(0 0)">
              <path id="Path_42261" data-name="Path 42261" d="M3.619,3.376l-.047.11-.049.082-.357.384-.106.055-.079.055-.051.055-.053.027L2.818,4.09l.047-.11L2.859,3.9l.047-.11.034-.3L2.962,3.4l-.006-.082L3,3.129l-.027-.384-.082-.384-.068-.192L2.79,2.114l0-.027H2.76l0-.055-.031-.055L2.453,1.62l-.088-.082-.09-.11L2.246,1.4H2.218l-.294-.274L1.868,1.1l-.029-.027-.057-.027,0-.027H1.752L1.666.961,1.609.933,1.58.906,1.468.878,1.382.823,1.214.769H1.1L1.019.741.825.714H.359L.169.741H.031L0,.686.053.659.077.6.23.439.569.192.677.165.889.055,1.025.027h.055L1.16,0H1.6l.167.027L1.85.055h.082L2.1.137h.055l.029.027L2.356.22l.059.055L2.5.3,2.73.467l.059.055.086.055.059.055h.027l0,.027L3.109.8l.358.412L3.5,1.29l.061.082.033.082.061.082.066.165.029.027,0,.055.033.082.08.357.011.165-.048.494-.093.247-.022.082-.024.055Z" fill="#493f3f"/>
            </g>
          </g>
          <g id="Group_48160" data-name="Group 48160" transform="translate(65.527 27.752)">
            <g id="Group_48159" data-name="Group 48159" transform="translate(0 0)">
              <path id="Path_42262" data-name="Path 42262" d="M.033,1.455,0,1.372l.053-.027.416-.329L.6.961.654.906.866.8.944.741H.972l.212-.11L1.984.3,2.227.247,2.333.192,2.712.11A7.7,7.7,0,0,1,3.83,0h.6l.139.027H4.82L4.9.055l.139.027h.165L5.292.11h.055l.169.055h.11l.057.027L5.821.22l.731.247.684.357.145.11.143.082.5.467.423.549a4.929,4.929,0,0,1,.49,1.125l.037.137,0,.055.031.055.01.137.037.137.065.933-.058.741-.19.823,0,.055L8.792,6.2l0-.055-.037-.137-.019-.274L8.695,5.6,8.477,4.447l-.008-.11L8.093,3.267l-.311-.522-.3-.384-.031-.055-.057-.027-.031-.055L7.332,2.2H7.3l-.235-.22-.057-.027-.088-.082A4.211,4.211,0,0,0,5.986,1.4L5.48,1.235H5.425l-.084-.027L5.2,1.18l-.057-.027H5.063l-.529-.11H4.4L4.146.988H3.871L3.814.961H2.634L2.526.988h-.11l-1.034.137-.188.055-.569.11-.133.055H.382L.222,1.4l-.135.027Z" fill="#493f3f"/>
            </g>
          </g>
          <g id="Group_48162" data-name="Group 48162" transform="translate(17.321 59.84)">
            <g id="Group_48161" data-name="Group 48161" transform="translate(0 0)">
              <path id="Path_42263" data-name="Path 42263" d="M6.368,7.247H5.078L3.816,6.972,3.6,6.89,2.91,6.56,2.47,6.286l-.741-.6-.055-.055-.027-.055L1.455,5.38l-.165-.22q-.055-.082-.165-.22l-.165-.22L.933,4.694V4.666L.878,4.612.357,3.568.082,2.635.027,2.169,0,2.059V1.372l.055-.329V.878L.247.137.3.027.357,0,.384.055l.027.11V.329L.439.412v.11l.027.11v.11l.192.933.11.357L.851,2.2l.082.3.055.082.027.082.055.11.055.082V2.91l.357.631.055.082.055.11.055.082L1.7,3.87l.027.055.055.082.055.055V4.09l.027.027.659.8L2.58,5l.082.055L2.91,5.3l.11.055.082.082.522.384,1.1.6.494.192L5.38,6.7l.3.11.137.027.137.055.329.082.082.055.137.027.137.055.027.055-.055.027Z" fill="#493f3f"/>
            </g>
          </g>
        </g>
        <g id="Group_48170" data-name="Group 48170" transform="translate(3.11 20.508)">
          <g id="Group_48165" data-name="Group 48165" transform="translate(7.953 0) rotate(15.965)">
            <g id="Group_48164" data-name="Group 48164" transform="translate(0 0)">
              <path id="Path_42264" data-name="Path 42264" d="M13.254,25.473a7.206,7.206,0,0,1-5.106,3.376q-3.224.511-5.819-3.1A14.091,14.091,0,0,1,.023,16.717,17.726,17.726,0,0,1,2.851,7.549,17.437,17.437,0,0,1,8.533,2,38.917,38.917,0,0,1,13.5,0q.274,1.408,1.7,5.764a24.33,24.33,0,0,1,.659,10.568Q15.115,22.583,13.254,25.473Z" fill="#80553c"/>
            </g>
          </g>
          <g id="Group_48167" data-name="Group 48167" transform="translate(5.976 16.28)">
            <g id="Group_48166" data-name="Group 48166" transform="translate(0 0)">
              <path id="Path_42265" data-name="Path 42265" d="M.082,8.01l.329.11.11.055L.659,8.2l.3.11h.082l.3.082.192.027.11.027h.11L2.2,8.5l.494-.027.494-.11a4.536,4.536,0,0,0,.988-.412L4.666,7.6l.22-.192.055-.027.384-.384L6.341,5.732,7.576,3.7l.055-.137L8.949.983,9,.9,9.2.489l.082-.11L9.36.187,9.443.049q0-.082.055-.027.082,0,.027.055L9.443.708,9.113,2.053,8.1,4.853,6.835,6.939,5.847,8.01a.3.3,0,0,0-.137.11l-.439.329L4.5,8.888l-.165.055-.165.082-.165.055-.659.137H3.184l-.165.027h-.3L1.729,9.08,1.565,9H1.51L1.4,8.943l-.22-.082L.3,8.339,0,8.092V8.01Z" fill="#684633"/>
            </g>
          </g>
          <g id="Group_48169" data-name="Group 48169" transform="translate(3.882 19.958)">
            <g id="Group_48168" data-name="Group 48168" transform="translate(0 0)">
              <path id="Path_42266" data-name="Path 42266" d="M4.564,10.261l-1.071-.192L2.972,9.9,2.89,9.849l-.165-.055-.082-.055-.165-.055L2.4,9.629,2.314,9.6l-.467-.3-.055-.027L1.71,9.19l-.055-.027-.027-.027-.494-.384L.557,8.065.474,7.927.365,7.79l-.329-.6Q-.047,7.1.063,7.1H.118l.631.576.137.082.11.11.137.082.137.11.8.467h.027l.082.055H2.2l.027.027.522.192.055.027.165.055.055.027H3.11l.165.055h.055L3.412,9h.082l.082.027h.055l.082.027.165.027h.137l.329.055h.3q.3,0,.823-.055l1.29-.247.3-.082h.055l.027-.027h.027l.8-.3.8-.439a1.36,1.36,0,0,0,.357-.247l.11-.055.082-.055L9.4,7.543l.11-.055.082-.082.082-.055.522-.439.988-1.043.055-.11.082-.082,1.372-2V3.645l.027-.027.027-.055.192-.274L14.776.049q0-.082.055-.027.082,0,.027.055L13.129,3.865l-.027.027V3.92l-1.18,2.031-.137.192-.055.11L10.384,7.818l-.274.247-.055.027-.027.027-.11.082-.082.082-.11.082-.082.082-.384.274a5.942,5.942,0,0,1-.851.522l-.878.439L7.5,9.712H7.474l-.165.082-.714.22a6.849,6.849,0,0,1-.988.192,6.529,6.529,0,0,1-.988.055Z" fill="#9f7b67"/>
            </g>
          </g>
        </g>
        <g id="Group_48177" data-name="Group 48177" transform="translate(48.476 27.461)">
          <g id="Group_48172" data-name="Group 48172" transform="translate(0.094 0)">
            <g id="Group_48171" data-name="Group 48171" transform="translate(0)">
              <path id="Path_42267" data-name="Path 42267" d="M3.364.84Q12.305-2.2,13.383,5.781l.11,1.647-3.212,3.431a39.271,39.271,0,0,0-.961,14.658q-2.561,2.742-3.87-1.455L.619,5.726Q-1.443,1.6,3.364.84Z" fill="#80553c"/>
            </g>
          </g>
          <g id="Group_48174" data-name="Group 48174" transform="translate(8.03 1.251)">
            <g id="Group_48173" data-name="Group 48173" transform="translate(0 0)">
              <path id="Path_42268" data-name="Path 42268" d="M.013,14.6a33.967,33.967,0,0,1,.467-3.98Q.844,8.731.891,8.647a17.574,17.574,0,0,0,2.47-2.416A5.462,5.462,0,0,0,4.432,3.788Q4.694,2.361,3.087,0,5.8,2.427,6,4.365A2.849,2.849,0,0,1,4.432,7.3Q2.674,8.32,1.714,8.949l.3.576-.165.247-.659-.027.714.055-1.1,5.71.082,4.145.494,4.557A23.341,23.341,0,0,1,.342,19.819,30.43,30.43,0,0,1,.013,14.6Z" fill="#9f7b67"/>
            </g>
          </g>
          <g id="Group_48176" data-name="Group 48176" transform="translate(0 0.126)">
            <g id="Group_48175" data-name="Group 48175" transform="translate(0 0)">
              <path id="Path_42269" data-name="Path 42269" d="M8.949,21.356l-.027-4.968.769-6.094a.461.461,0,0,1,.192-.3V9.964l.247-.165,1.235-1.125,1.208-1.537.357-.6.027-.082a3.41,3.41,0,0,0,.329-.686,3.094,3.094,0,0,0,.192-.686l.027-.494-.027-.11V4.419l-.027-.027-.027-.082V4.227L13.4,4.145l-.055-.082-.082-.247A3.989,3.989,0,0,0,12.38,2.69l-.6-.467-.055-.055-.11-.055-.082-.055L11.5,2.031,11.447,2l-.384-.247-.11-.027-.878-.384L9.251,1.1H9.168l-.192-.055L8.207.933h-.22L7.8.906H6.588A15.462,15.462,0,0,0,5,.988a9.169,9.169,0,0,0-1.592.22l-.192.055-.192.027-.3.082-.082.055-.357.11-.467.22-.082.027-.165.11L1.4,1.976l-.412.357a.733.733,0,0,0-.247.274,2.86,2.86,0,0,0-.357.659L.3,4.035l.137.8L.714,5.6q.055.055-.027.055Q.631,5.71.631,5.627a4.11,4.11,0,0,1-.384-.741l-.22-.714L0,3.623l.027-.439.329-.823L.631,2l.659-.576q.055-.055.082-.055l.082-.055.082-.082L2.525.769l.714-.22A12.3,12.3,0,0,1,4.886.192Q5.462.11,6.56.027L8.043,0l.22.027h.22l.851.11.11.027h.11l.851.22.22.082.027.027h.055l.823.357.082.055.412.22.027.027.055.027.165.11H12.3v.027h.027l.055.055a5.822,5.822,0,0,1,.714.522l.631.659a4.882,4.882,0,0,1,.494.8l.11.22.027.11.055.11.027.11.055.11.027.137V4.2l.027.055.027.11V4.5l.027.247-.027.522a3.783,3.783,0,0,1-.274.906l-.439.906-.055.082-.082.192-.741,1.071-1.153,1.29-1.071.906-.082.055-.027.027-.6,3.431L9.47,20.642,9.5,25.309l-.027.027-.055-.027Z" fill="#684633"/>
            </g>
          </g>
        </g>
        <g id="Group_48196" data-name="Group 48196" transform="translate(31.55 39.964)">
          <g id="Group_48182" data-name="Group 48182" transform="translate(28.345 0)">
            <g id="Group_48179" data-name="Group 48179" transform="translate(0 0)">
              <g id="Group_48178" data-name="Group 48178" transform="translate(0)">
                <path id="Path_42270" data-name="Path 42270" d="M6.689,4.366a4.929,4.929,0,0,1-.988,3.1A2.887,2.887,0,0,1,3.344,8.731,2.93,2.93,0,0,1,.972,7.463,4.986,4.986,0,0,1,0,4.366,4.915,4.915,0,0,1,.972,1.285,2.92,2.92,0,0,1,3.344,0,2.877,2.877,0,0,1,5.7,1.285,4.86,4.86,0,0,1,6.689,4.366Z" fill="#231915"/>
              </g>
            </g>
            <g id="Group_48181" data-name="Group 48181" transform="translate(3.689 4.546)">
              <g id="Group_48180" data-name="Group 48180" transform="translate(0 0)">
                <path id="Path_42271" data-name="Path 42271" d="M1.616,1.088a1.241,1.241,0,0,1-.264.741.66.66,0,0,1-.577.28A.705.705,0,0,1,.215,1.8,1.273,1.273,0,0,1,0,1.022,1.121,1.121,0,0,1,.265.3.69.69,0,0,1,.858,0,.653.653,0,0,1,1.4.33,1.166,1.166,0,0,1,1.616,1.088Z" fill="#fff"/>
              </g>
            </g>
          </g>
          <g id="Group_48184" data-name="Group 48184" transform="translate(27.581 5.044)">
            <g id="Group_48183" data-name="Group 48183" transform="translate(0 0)">
              <path id="Path_42272" data-name="Path 42272" d="M11.792.066a2.537,2.537,0,0,1-.764,1.694A16.922,16.922,0,0,1,3.82,6.012,26.326,26.326,0,0,1,0,0,7.87,7.87,0,0,0,4.783,2.292,8.76,8.76,0,0,0,11.792.066Z" fill="#80553c"/>
            </g>
          </g>
          <g id="Group_48186" data-name="Group 48186" transform="translate(27.204 4.314)">
            <g id="Group_48185" data-name="Group 48185" transform="translate(0 0)">
              <path id="Path_42273" data-name="Path 42273" d="M10.607,1.428,10.74,1.3l.166-.1.565-.432L12.3,0h.1V.1l-.133.332-.066.1L12.069.8l-.664.93-.731.8-.9.664-.166.1-.1.033-.266.166-.2.066-.166.1-.8.266h-.1l-.233.066h-.1l-.166.033H7.352l-.1.033h-.4l-.2.033h-.4l-.2-.033h-.4l-1.2-.233-1.129-.4-1.362-.83-.3-.266-.066-.033-.4-.5L1.14,1.727l-.033-.066-.1-.133L.775,1.3l-.1-.133L.642,1.1.576,1.03.011.233Q-.022.2.044.133H.111L.941.7l.133.066.5.4.066.033.066.066.5.4,1.561.664.166.033.166.066,1.528.3h.332l.166.033h.864l.166-.033h.166l.2-.033h.133l.1-.033h.066l.5-.1.133-.066.166-.033.8-.332.9-.5.233-.166Z" fill="#231915"/>
            </g>
          </g>
          <g id="Group_48191" data-name="Group 48191" transform="translate(2.602 0)">
            <g id="Group_48188" data-name="Group 48188" transform="translate(0 0)">
              <g id="Group_48187" data-name="Group 48187" transform="translate(0)">
                <path id="Path_42274" data-name="Path 42274" d="M6.689,4.366a4.929,4.929,0,0,1-.988,3.1A2.887,2.887,0,0,1,3.344,8.731,2.93,2.93,0,0,1,.972,7.463,4.986,4.986,0,0,1,0,4.366,4.915,4.915,0,0,1,.972,1.285,2.92,2.92,0,0,1,3.344,0,2.877,2.877,0,0,1,5.7,1.285,4.86,4.86,0,0,1,6.689,4.366Z" fill="#231915"/>
              </g>
            </g>
            <g id="Group_48190" data-name="Group 48190" transform="translate(3.689 4.546)">
              <g id="Group_48189" data-name="Group 48189" transform="translate(0 0)">
                <path id="Path_42275" data-name="Path 42275" d="M1.616,1.088a1.241,1.241,0,0,1-.264.741.66.66,0,0,1-.577.28A.705.705,0,0,1,.215,1.8,1.273,1.273,0,0,1,0,1.022,1.121,1.121,0,0,1,.265.3.69.69,0,0,1,.858,0,.653.653,0,0,1,1.4.33,1.166,1.166,0,0,1,1.616,1.088Z" fill="#fff"/>
              </g>
            </g>
          </g>
          <g id="Group_48193" data-name="Group 48193" transform="translate(0.376 5.509)">
            <g id="Group_48192" data-name="Group 48192" transform="translate(0 0)">
              <path id="Path_42276" data-name="Path 42276" d="M7.407,7.175a17.59,17.59,0,0,1-1.893-1.1A15,15,0,0,1,0,0Q.93.764,1.893,1.495A7.329,7.329,0,0,0,8.57,2.89,34.414,34.414,0,0,0,15.844.233a4.457,4.457,0,0,1-1.628,2.259A72.649,72.649,0,0,1,7.407,7.175Z" fill="#80553c"/>
            </g>
          </g>
          <g id="Group_48195" data-name="Group 48195" transform="translate(0 4.779)">
            <g id="Group_48194" data-name="Group 48194" transform="translate(0 0)">
              <path id="Path_42277" data-name="Path 42277" d="M5.658,4.451,4.4,4.086l-.133-.066L4.13,3.986a7.772,7.772,0,0,1-.93-.432l-.033-.033L3.1,3.488,3,3.421l-.133-.066-.531-.365-.764-.664-.033-.033V2.259l-.2-.233L.244.531.177.365.011.1Q-.022.066.044,0H.078L.343.2.476.332l1.4,1.2L2.1,1.76,2.07,1.694l.8.5.4.2.1.066.133.033.1.066h.033l.266.133h.066L4,2.724l.233.066.033.033h.066l.332.133h.1l.565.166h.1l1.1.166.8.033.133-.033h.7l.432-.066h.133l.1-.033h.233l.233-.033.233-.066.432-.066.465-.133h.033l.066-.033.1-.033.233-.033.864-.3.432-.2.233-.066.1-.066.1-.033.864-.432.2-.133.2-.1L15.855.133q.033-.033.1.033V.233l-.3.4-1.03,1.1-1.163.963-.4.266-.133.066-.3.2-1.4.7-.963.266-.266.1-1.528.266H8.249l-.133.033h-.9a6.374,6.374,0,0,1-1.063-.066Z" fill="#231915"/>
            </g>
          </g>
        </g>
        <g id="Group_48204" data-name="Group 48204" transform="translate(40.838 13.341)">
          <g id="Group_48199" data-name="Group 48199" transform="translate(1.238 0)">
            <g id="Group_48197" data-name="Group 48197" transform="translate(0 4.327)">
              <path id="Path_42278" data-name="Path 42278" d="M18.167,1.073a7,7,0,0,1-2.555,2,11.348,11.348,0,0,1-4.312.838,18.72,18.72,0,0,1-5.55-.639A9.986,9.986,0,0,0,0,3.468,20.782,20.782,0,0,1,18.167,1.073Z" transform="translate(0 0)" fill="#684633"/>
            </g>
            <g id="Group_48198" data-name="Group 48198" transform="translate(5.151 0)">
              <path id="Path_42279" data-name="Path 42279" d="M10.94,2.326l.16.24q.04.04-.04.12h-.08L10.5,2.246l-.08-.04-.04-.08L9.3,1.407l-.2-.08-.04-.04-.16-.08L7.746.848h-.12l-.12-.04H7.227L6.947.769h-.24A5.143,5.143,0,0,0,5.63.888l-1.078.24L2.6,1.887.479,3.044l-.12.04-.24.16Q0,3.364,0,3.2v-.08L.12,3l.12-.08.16-.16,1.118-.878q.08-.08.759-.559l.479-.24.12-.08.12-.04L3.633.649l.679-.24A6,6,0,0,1,5.47.09,5.077,5.077,0,0,1,6.708.01h.319l.6.08.8.24.759.359.12.04.08.08.2.12.2.16.838.8.04.08.04.04.16.24Z" transform="translate(0)" fill="#684633"/>
            </g>
          </g>
          <g id="Group_48201" data-name="Group 48201" transform="translate(0.419 3.763)">
            <g id="Group_48200" data-name="Group 48200" transform="translate(0 0)">
              <path id="Path_42280" data-name="Path 42280" d="M19.265,1.757q0,.12-.08.04l-3.793-.6h-.2l-.16-.04-2.915-.04-.24.04-1.557.12-.12.04h-.12l-.2.04-.918.08-1.318.279-.4.12-.24.04-.2.08L2.935,3.194l-.16.08-.16.04-.279.16L1.3,3.913l-.2.12-.2.08-.759.4q-.12.12-.12-.04a.05.05,0,0,1,0-.08l.4-.359.12-.08.16-.16.8-.6.838-.479.12-.12,1.557-.759A16.041,16.041,0,0,1,5.61,1.2h.04l.16-.08L6.927.759,9.922.12h.24L10.88.04,12.757,0,13,.04h.439l3.474.679.6.24.279.08,1,.4.439.24Q19.344,1.677,19.265,1.757Z" fill="#231915"/>
            </g>
          </g>
          <g id="Group_48203" data-name="Group 48203" transform="translate(0 5.759)">
            <g id="Group_48202" data-name="Group 48202" transform="translate(0 0)">
              <path id="Path_42281" data-name="Path 42281" d="M2.076,4.352H1.757l-.24-.12-.16-.04-.08-.04-.08-.08-.319-.24-.16-.16H.679v-.04l-.12-.12-.12-.24-.16-.2L.04,2.356,0,2.116l.04-.958L.2.479.319.24V.2L.359.16.4.08.439.04.519,0l.04.08L.6.12v.4l.04.16v.439l.04.08v.2l.04.2v.2l.04.08V2l.08.279.04.08v.12L1,2.755l.04.04v.04l.12.24.04.12.08.08.08.16.279.4.4.4Z" fill="#684633"/>
            </g>
          </g>
        </g>
        <g id="Group_48207" data-name="Group 48207" transform="matrix(0.959, 0.282, -0.282, 0.959, 27.084, 50.059)">
          <g id="Group_48206" data-name="Group 48206" transform="translate(0 0)">
            <g id="Group_48205" data-name="Group 48205">
              <path id="Path_42282" data-name="Path 42282" d="M14.059,5.764a17.99,17.99,0,0,1-8-.439,10.605,10.605,0,0,1-1.877-.8A10.605,10.605,0,0,1,2.173,2.964a11.158,11.158,0,0,1-.757-.823L0,0,2.239,1.51A17.449,17.449,0,0,0,9.878,3.074a24.463,24.463,0,0,0,6.947-.906q2.338-.659,2.8-.357a1.067,1.067,0,0,1,.461,1.345l-.033.082A2.36,2.36,0,0,1,18.767,4.5,17.636,17.636,0,0,1,14.059,5.764Z" fill="#140e0e"/>
            </g>
          </g>
        </g>
        <g id="Group_48210" data-name="Group 48210" transform="matrix(-0.959, 0.282, -0.282, -0.959, 76.049, 56.869)">
          <g id="Group_48209" data-name="Group 48209" transform="translate(0 0)">
            <g id="Group_48208" data-name="Group 48208">
              <path id="Path_42283" data-name="Path 42283" d="M10.508.222a11.261,11.261,0,0,0-5.98.4,7.277,7.277,0,0,0-1.4.716,8.326,8.326,0,0,0-1.5,1.407q-.293.347-.566.741L0,5.407,1.673,4.049A11.2,11.2,0,0,1,7.383,2.642a15.4,15.4,0,0,1,5.192.815q1.747.593,2.092.321a1.062,1.062,0,0,0,.345-1.21l-.025-.074a1.977,1.977,0,0,0-.96-1.136A11.488,11.488,0,0,0,10.508.222Z" fill="#140e0e"/>
            </g>
          </g>
        </g>
        <g id="Group_48212" data-name="Group 48212" transform="translate(30.112 25.171)">
          <g id="Group_48211" data-name="Group 48211" transform="translate(0 0)">
            <path id="Path_42284" data-name="Path 42284" d="M3.294,4.117V3.294h.823m-.823,0V2.47m3.294.823L3.294,0,0,3.294,3.294,6.588Zm-4.117,0h.823" transform="translate(0 0)" fill="none" stroke="rgba(0,0,0,0)" stroke-linecap="round" stroke-linejoin="round" stroke-width="0.093"/>
          </g>
        </g>
      </g>
    </g>
  </g>
</svg>
