<svg xmlns="http://www.w3.org/2000/svg" xmlns:xlink="http://www.w3.org/1999/xlink" width="375" height="270" viewBox="0 0 375 270">
  <defs>
    <clipPath id="clip-path">
      <rect id="Rectangle_8675" data-name="Rectangle 8675" width="375" height="270" transform="translate(17332 -12887)" fill="#fff" stroke="#707070" stroke-width="1" opacity="0.59"/>
    </clipPath>
    <clipPath id="clip-path-2">
      <path id="Path_76591" data-name="Path 76591" d="M0,0H193V217H141.75l-3.322,12.212H112.536L109.719,217H0Z" transform="translate(107 117)" fill="#fff"/>
    </clipPath>
    <linearGradient id="linear-gradient" x1="0.543" y1="0.993" x2="0.511" y2="0.105" gradientUnits="objectBoundingBox">
      <stop offset="0" stop-color="#4d4343"/>
      <stop offset="1" stop-color="#252020"/>
    </linearGradient>
    <radialGradient id="radial-gradient" cx="0.501" cy="0.501" r="0.508" gradientTransform="translate(-0.111) scale(1.221 1)" gradientUnits="objectBoundingBox">
      <stop offset="0" stop-color="#6face7" stop-opacity="0.498"/>
      <stop offset="1" stop-color="#2281e0" stop-opacity="0.498"/>
    </radialGradient>
    <radialGradient id="radial-gradient-2" cx="0.383" cy="0.477" r="0.476" gradientTransform="matrix(1.234, 0.347, -0.504, 1.034, 0.25, -0.483)" gradientUnits="objectBoundingBox">
      <stop offset="0" stop-color="#fff" stop-opacity="0.498"/>
      <stop offset="1" stop-color="#fff" stop-opacity="0"/>
    </radialGradient>
    <radialGradient id="radial-gradient-3" cx="0.526" cy="0.51" r="0.57" gradientTransform="matrix(1.285, 0.285, -0.448, 1.123, 0.031, 0.046)" gradientUnits="objectBoundingBox">
      <stop offset="0" stop-color="#fff" stop-opacity="0.298"/>
      <stop offset="1" stop-color="#fff" stop-opacity="0"/>
    </radialGradient>
  </defs>
  <g id="Mask_Group_16636" data-name="Mask Group 16636" transform="translate(-17332 12887)" clip-path="url(#clip-path)">
    <g id="Mask_Group_16631" data-name="Mask Group 16631" transform="translate(17328 -12987)" clip-path="url(#clip-path-2)">
      <g id="male_teen_DS_7" data-name="male teen DS 7" transform="translate(122.5 130.404)">
        <g id="Group_106303" data-name="Group 106303" transform="translate(118.644 210.062) rotate(169.796)">
          <g id="Group_106292" data-name="Group 106292" transform="translate(0 0)">
            <g id="Group_106291" data-name="Group 106291" transform="translate(0 0)">
              <path id="Path_76498" data-name="Path 76498" d="M28.832,41.043,8.677,45.468Q4.411,26.2.423,12.366H.449A9.831,9.831,0,0,1-.022,9.29,8.967,8.967,0,0,1,2.683,2.715,8.973,8.973,0,0,1,9.271-.022,8.874,8.874,0,0,1,15.83,2.71a9.037,9.037,0,0,1,2.177,3.339A177.43,177.43,0,0,1,28.832,41.043Z" transform="translate(0)" fill="#80553c"/>
            </g>
          </g>
          <g id="Group_106295" data-name="Group 106295" transform="translate(6.376 33.042)">
            <g id="Group_106294" data-name="Group 106294" transform="translate(0 0)">
              <g id="Group_106293" data-name="Group 106293" transform="translate(0 0)">
                <path id="Path_76499" data-name="Path 76499" d="M2.405,11.559-.005,2.251Q11.74-1.591,21.015,1.034L22.9,9.342Z" fill="#684633"/>
              </g>
            </g>
          </g>
          <g id="Group_106297" data-name="Group 106297" transform="translate(-0.042 34.807)">
            <g id="Group_106296" data-name="Group 106296" transform="translate(0 0)">
              <path id="Path_76500" data-name="Path 76500" d="M19.908,53.466a14.857,14.857,0,0,1-4.327-8.334h-.026q-3.527-17-15.574-37.044Q11.322-4.827,34.937,2.763A106.172,106.172,0,0,1,46,39.888a16.329,16.329,0,0,1,.209,2.656A15.44,15.44,0,0,1,30.8,57.985,14.814,14.814,0,0,1,19.908,53.466Z" transform="translate(0 0)" fill="#7a2230"/>
            </g>
          </g>
          <g id="Group_106300" data-name="Group 106300" transform="translate(0.665 34.788)">
            <g id="Group_106299" data-name="Group 106299" transform="translate(0 0)">
              <g id="Group_106298" data-name="Group 106298">
                <path id="Path_76501" data-name="Path 76501" d="M34.125,2.86Q41.7,17.8,43.746,29.52T45.078,46.98Q40.76,14.349,31.342,5.912,21.951-2.552-.018,7.4,11.086-4.692,34.125,2.86Z" fill="#4b0f18"/>
              </g>
            </g>
          </g>
          <g id="Group_106302" data-name="Group 106302" transform="translate(27.619 74.208)">
            <g id="Group_106301" data-name="Group 106301" transform="translate(0 0)">
              <path id="Path_76502" data-name="Path 76502" d="M3.141,3.937V3.148h.787m-.787,0V2.359m3.149.788L3.143-.008-.008,3.149,3.14,6.3Zm-3.936,0h.787" transform="translate(0 0)" fill="none" stroke="rgba(0,0,0,0)" stroke-linecap="round" stroke-linejoin="round" stroke-width="0.089"/>
            </g>
          </g>
        </g>
        <g id="Group_106312" data-name="Group 106312" transform="matrix(0.86, 0.51, -0.51, 0.86, 123.569, 131.343)">
          <g id="Group_106305" data-name="Group 106305" transform="matrix(0.978, -0.208, 0.208, 0.978, 0.049, 8.073)">
            <g id="Group_106304" data-name="Group 106304" transform="translate(0 0)">
              <path id="Path_76503" data-name="Path 76503" d="M20.949,60.936a38.262,38.262,0,0,1-2.961,7.727L.271,63.735q-.028-2,.024-4A373.75,373.75,0,0,1,3.887,15.576,126.082,126.082,0,0,0,5.137.119L17.707.075a128.2,128.2,0,0,0,.748,20.164q1.138,8.8,2.508,22.321T20.949,60.936Z" transform="translate(0)" fill="#80553c"/>
            </g>
          </g>
          <g id="Group_106307" data-name="Group 106307" transform="translate(4.991 0.03)">
            <g id="Group_106306" data-name="Group 106306" transform="translate(0 0)">
              <path id="Path_76504" data-name="Path 76504" d="M12.647,6.355A6.071,6.071,0,0,1,10.8,10.814,6.058,6.058,0,0,1,6.349,12.66a6.081,6.081,0,0,1-4.457-1.855A6.094,6.094,0,0,1,.038,6.343,6.071,6.071,0,0,1,1.883,1.885,6.058,6.058,0,0,1,6.337.039a6.082,6.082,0,0,1,4.457,1.855A6.094,6.094,0,0,1,12.647,6.355Z" fill="#80553c"/>
            </g>
          </g>
          <g id="Group_106309" data-name="Group 106309" transform="translate(5.986 12.274)">
            <g id="Group_106308" data-name="Group 106308" transform="translate(0 0)">
              <path id="Path_76505" data-name="Path 76505" d="M6.555,51.752l.317,2.313q.053.053-.026.053-.052.053-.053-.026L4.049,39.424,2.383,27.176.021.053Q-.031,0,.047,0L.1.027,6.475,51.174Q6.528,51.568,6.555,51.752Z" transform="translate(0 0)" fill="#684633"/>
            </g>
          </g>
          <g id="Group_106311" data-name="Group 106311" transform="translate(19.615 66.119)">
            <g id="Group_106310" data-name="Group 106310" transform="translate(0 0)">
              <path id="Path_76506" data-name="Path 76506" d="M3.17,3.961V3.173h.788m-.788,0V2.384m3.151.791L3.167.019.019,3.17,3.173,6.326Zm-3.938,0H3.17" transform="translate(0 0)" fill="none" stroke="rgba(0,0,0,0)" stroke-linecap="round" stroke-linejoin="round" stroke-width="0.089"/>
            </g>
          </g>
        </g>
        <g id="Group_106322" data-name="Group 106322" transform="translate(0.293 168.639) rotate(-12.071)">
          <g id="Group_106314" data-name="Group 106314" transform="translate(-0.093 33.107)">
            <g id="Group_106313" data-name="Group 106313" transform="translate(0 0)">
              <path id="Path_76507" data-name="Path 76507" d="M80.051,55.744A340.011,340.011,0,0,0,76.507-.217L8.264,2.758A374.365,374.365,0,0,1-.158,56.41Q37.548,70.9,80.051,55.744Z" fill="#ede6de"/>
            </g>
          </g>
          <g id="Group_106316" data-name="Group 106316" transform="translate(8.052 2.082)">
            <g id="Group_106315" data-name="Group 106315" transform="translate(0 0)">
              <path id="Path_76508" data-name="Path 76508" d="M-.1,34.489A33.319,33.319,0,0,0,9.991,58.938a33.188,33.188,0,0,0,24.4,10.108A33.247,33.247,0,0,0,58.8,58.917a33.378,33.378,0,0,0,10.11-24.458A33.319,33.319,0,0,0,58.823,10.01,33.188,33.188,0,0,0,34.423-.1a33.246,33.246,0,0,0-24.41,10.129A33.378,33.378,0,0,0-.1,34.489Z" transform="translate(0)" fill="#ede6de"/>
            </g>
          </g>
          <g id="Group_106319" data-name="Group 106319" transform="translate(0.053 0)">
            <g id="Group_106318" data-name="Group 106318" transform="translate(0 0)">
              <g id="Group_106317" data-name="Group 106317" transform="translate(0)">
                <path id="Path_76509" data-name="Path 76509" d="M41.07,9.026Q41.883,9,42.723,9q.84.1,1.68.236a4.511,4.511,0,0,1,.5-.027,37.442,37.442,0,0,1-.469-7.127A8.746,8.746,0,0,1,44.564.9a9.676,9.676,0,0,1,.21-1.026l-.473,1.5A35.542,35.542,0,0,0,23.039,6.4L16.186,13.56A56.924,56.924,0,0,0,10.145,24,48.9,48.9,0,0,0,8.067,34.182,429.625,429.625,0,0,1-.252,89.7a44.609,44.609,0,0,0,7.033,2.285q4.321,1.076,6.8,1.812A36.089,36.089,0,0,0,19.746,95q3.693.479,7.637,1.206a38.521,38.521,0,0,0,7.979.68q4.068-.076,5.774-.134t6.982-.4a67.588,67.588,0,0,0,9.633-1.24q4.238-.738,7.271-1.529,3.062-.79,3.78-1,.712-.185,1.418-.4.709-.237,1.418-.448-.551.105-1.076.237-4.3.843-8.767,1.345-3.176.37-6.4.687a114.228,114.228,0,0,1-11.732.4,62.516,62.516,0,0,1-7.27-.575A59.209,59.209,0,0,1,26.151,91.5a22.976,22.976,0,0,1-7.164-3.968,13.816,13.816,0,0,1-4.721-7.388,37.029,37.029,0,0,1-1.021-5.969,89.663,89.663,0,0,1-.336-10.835q.133-4.076.4-8.205.159-2.814.449-5.628.345-3.156.607-7.522.282-4.365,1.133-9.547a31.486,31.486,0,0,1,3.285-9.679,21.088,21.088,0,0,1,6.749-7.445,43.2,43.2,0,0,1,6.248-3.632A28.391,28.391,0,0,1,41.07,9.026Z" fill="#dad0c5"/>
              </g>
            </g>
          </g>
          <g id="Group_106321" data-name="Group 106321" transform="translate(36.71 93.611)">
            <g id="Group_106320" data-name="Group 106320" transform="translate(0 0)">
              <path id="Path_76510" data-name="Path 76510" d="M3.141,2.358v.789h.787m-.787,0v.789m3.15-.79L3.139,6.3-.009,3.148,3.142-.009Zm-3.937,0h.787" transform="translate(0 0)" fill="none" stroke="rgba(0,0,0,0)" stroke-linecap="round" stroke-linejoin="round" stroke-width="0.089"/>
            </g>
          </g>
        </g>
        <g id="Group_106347" data-name="Group 106347" transform="translate(12.65 106.238) rotate(8.505)">
          <g id="Group_106324" data-name="Group 106324" transform="translate(29.801 0.061)">
            <g id="Group_106323" data-name="Group 106323" transform="translate(0 0)">
              <path id="Path_76511" data-name="Path 76511" d="M31.8,18.924,34.39,6.459a29.668,29.668,0,0,0-8.558-4.921A26.958,26.958,0,0,0,17.2.036,28.9,28.9,0,0,0,.637,5.028l-.6,13.886Z" fill="#80553c"/>
            </g>
          </g>
          <g id="Group_106326" data-name="Group 106326" transform="translate(8.298 3.122)">
            <g id="Group_106325" data-name="Group 106325" transform="translate(0 0)">
              <path id="Path_76512" data-name="Path 76512" d="M73.509,20.867a18.356,18.356,0,0,0-2.785-9.206q-2.533-4.016-8.663-6.473a53.4,53.4,0,0,1-8.4-3.948q-2.14,5.706-9.131,9.781-6.962,4.1-12.2-1.266Q27.1,4.414,25.789,3.283A11.233,11.233,0,0,1,23.347.047a43.5,43.5,0,0,0-5.511,1.524Q13.218,3.024,8.6,4.54A54.7,54.7,0,0,0,.017,8.246l6.952,72.38Q9.7,76.892,12.688,73.4q2.676-3.129,5.615-6.074l1.1-1.1,1.1-1.052q2.125-1.946,4.408-3.707a44.16,44.16,0,0,1,8.791-5.178,27.857,27.857,0,0,1,8.634-2.206,26.372,26.372,0,0,1,8.53.765,32.159,32.159,0,0,1,8.374,3.685,38.932,38.932,0,0,1,5.224,3.841,55.913,55.913,0,0,1,4.621,4.472,69.635,69.635,0,0,1,6.459,8.024Z" fill="#ede6de"/>
            </g>
          </g>
          <g id="Group_106328" data-name="Group 106328" transform="translate(0.283 9.418)">
            <g id="Group_106327" data-name="Group 106327" transform="translate(0 0)">
              <path id="Path_76513" data-name="Path 76513" d="M30.844,15.474A14.9,14.9,0,0,0,26.326,4.558,14.837,14.837,0,0,0,15.433.031,14.818,14.818,0,0,0,4.542,4.552,14.88,14.88,0,0,0,.031,15.465,14.9,14.9,0,0,0,4.549,26.381a14.837,14.837,0,0,0,10.894,4.527,14.818,14.818,0,0,0,10.891-4.52A14.88,14.88,0,0,0,30.844,15.474Z" transform="translate(0 0)" fill="#ede6de"/>
            </g>
          </g>
          <g id="Group_106331" data-name="Group 106331" transform="translate(10.891 37.382)">
            <g id="Group_106330" data-name="Group 106330" transform="translate(0 0)">
              <g id="Group_106329" data-name="Group 106329" transform="translate(0)">
                <path id="Path_76514" data-name="Path 76514" d="M13.7.028Q.031,2.259,0,2.233l4.318,44.4L13.532,35.27Z" fill="#dad0c5"/>
              </g>
            </g>
          </g>
          <g id="Group_106336" data-name="Group 106336" transform="translate(0.007 3.502)">
            <g id="Group_106333" data-name="Group 106333" transform="translate(0 0)">
              <g id="Group_106332" data-name="Group 106332">
                <path id="Path_76515" data-name="Path 76515" d="M31.54,21.628A75.733,75.733,0,0,1,36.417,5.587L30.273.062A134.992,134.992,0,0,0,10.538,6.6Q.55,10.673.045,22.3q1.4,8.835,8.035,12.548l.5.263q.334.186.656.342.072.031.131.053l.446.184a14.193,14.193,0,0,0,4.331,1.053,15.636,15.636,0,0,0,1.575.079A14.818,14.818,0,0,0,26.609,32.3a14.493,14.493,0,0,0,1.1-1.236Q30.474,28.067,31.54,21.628Z" fill="#7a2230"/>
              </g>
            </g>
            <g id="Group_106335" data-name="Group 106335" transform="translate(60.345 1.119)">
              <g id="Group_106334" data-name="Group 106334" transform="translate(0 0)">
                <path id="Path_76516" data-name="Path 76516" d="M10.561,9.686q5.023,4,8.481,12.232,1.613,3.809,2.811,7.233a71,71,0,0,1-.108-8.311A21.142,21.142,0,0,0,21.3,15.16q-.216-2.625-3.1-5.708A19.717,19.717,0,0,0,11.609,4.4,53.328,53.328,0,0,1,2.474.005L.008,4A31.478,31.478,0,0,1,10.561,9.686Z" transform="translate(0)" fill="#7a2230"/>
              </g>
            </g>
          </g>
          <g id="Group_106338" data-name="Group 106338" transform="translate(45.543 4.226)">
            <g id="Group_106337" data-name="Group 106337" transform="translate(0 0)">
              <path id="Path_76517" data-name="Path 76517" d="M10.3,3.974l-.157.079-.5.315L7.363,5.5,3.978,6.55l-.157.026-.157.053-3.6.577H.041l-.026.053.026.026.21.053,1.417.106.131.026L3.61,7.417l.341-.052h.184L5.6,7.1l1.548-.447a12.236,12.236,0,0,0,1.548-.6l.761-.394L11.8,4.08,13.845,2,14.737.741l.1-.131.184-.342.1-.158Q15.156.083,15.1.031h-.052L14.92.188l-1.1,1.052-.1.079-.315.289-.1.079-.21.21Z" transform="translate(0)" fill="#684633"/>
            </g>
          </g>
          <g id="Group_106340" data-name="Group 106340" transform="translate(37.368 12.156)">
            <g id="Group_106339" data-name="Group 106339" transform="translate(0 0)">
              <path id="Path_76518" data-name="Path 76518" d="M16.773,1.7l-.577.237-.21.053a17.662,17.662,0,0,1-1.758.552q-.787.21-.919.236l-1.417.289h-.131l-.1.026-2.231.157-.131.026-.1-.026H8.454L7.01,3.115,4.569,2.588,1.918,1.614.947,1.141l-.21-.079L.579.956.08.72Q0,.641,0,.746V.8L1.6,2.193l.131.079.578.421L4.648,3.9H4.7l1.05.369.131.026.105.053.262.053a10.972,10.972,0,0,0,2.074.369,13.453,13.453,0,0,0,2.2.027l.814-.079,2.336-.5.262-.079.1-.053.131-.026.5-.184a17.374,17.374,0,0,0,1.784-.762l1.5-.841a12.917,12.917,0,0,0,1.207-.815L20.788.121V.042h-.079L19.187.726l-.079.026-.577.263-.157.053-.157.079-1.233.5Z" transform="translate(0)" fill="#dad0c5"/>
            </g>
          </g>
          <g id="Group_106342" data-name="Group 106342" transform="translate(28.807 1.98)">
            <g id="Group_106341" data-name="Group 106341" transform="translate(0 0)">
              <path id="Path_76519" data-name="Path 76519" d="M22.08,13.267a19.035,19.035,0,0,0,8.293-3.89,16.688,16.688,0,0,0,2.7-2.866A9.126,9.126,0,0,0,34.6,3.171q-.21-1.341-1.26-1.421a2.194,2.194,0,0,0-1.994,1.235,18.116,18.116,0,0,1-3.332,3.523A10.879,10.879,0,0,1,24.519,8.4a23.782,23.782,0,0,1-3.937.893,15.293,15.293,0,0,1-9.055-1.081A15.125,15.125,0,0,1,4.806,2.478,5.315,5.315,0,0,0,3.651.715,2.392,2.392,0,0,0,1.866,0Q.816,0,0,1.5A25.832,25.832,0,0,0,4.152,8.29a14.314,14.314,0,0,0,8.768,5.052A22.09,22.09,0,0,0,22.08,13.267Z" transform="translate(0 0)" fill="#7a2230"/>
            </g>
          </g>
          <g id="Group_106344" data-name="Group 106344" transform="translate(28.894 3.594)">
            <g id="Group_106343" data-name="Group 106343" transform="translate(0 0)">
              <path id="Path_76520" data-name="Path 76520" d="M19.368,12.125q1-.1,2.388-.341l2.782-.736,1.575-.683.315-.184q.079,0,.026-.053,0-.079-.052-.026l-.1.026-.42.158-.21.053-.131.053-.42.105q-.315.105-1.5.368l-5.564.472-3.045-.185-2.441-.474-1.365-.421A19.45,19.45,0,0,1,8.606,9.1l-1.181-.71q-.656-.447-1.1-.816l-.158-.079L6.06,7.387,5.8,7.177,3.356,4.756.1.048Q.1-.031.047.021q-.079,0-.026.053L.546,1.336q.446.947.709,1.394l1.05,1.762a19.784,19.784,0,0,0,1.47,1.92l.919.973a11.813,11.813,0,0,0,1.024.921A12.84,12.84,0,0,0,6.874,9.2l1.234.789,2.756,1.263a24.023,24.023,0,0,0,2.94.737l.709.105,3.543.133Z" fill="#4b0f18"/>
            </g>
          </g>
          <g id="Group_106346" data-name="Group 106346" transform="translate(46.493 79.702)">
            <g id="Group_106345" data-name="Group 106345" transform="translate(0 0)">
              <path id="Path_76521" data-name="Path 76521" d="M3.156,2.373v.789h.787m-.787,0v.789m3.149-.788L3.157,6.318.006,3.161,3.155.006Zm-3.937,0h.787" transform="translate(0 0)" fill="none" stroke="rgba(0,0,0,0)" stroke-linecap="round" stroke-linejoin="round" stroke-width="0.089"/>
            </g>
          </g>
        </g>
        <g id="Group_106366" data-name="Group 106366" transform="matrix(0.238, -0.971, 0.971, 0.238, 2.096, 160.659)">
          <g id="Group_106349" data-name="Group 106349" transform="translate(1.198 48.245)">
            <g id="Group_106348" data-name="Group 106348" transform="translate(0 0)">
              <path id="Path_76522" data-name="Path 76522" d="M18.163,37.377A219.247,219.247,0,0,0,25.017,3.963L5.113-.016Q1.939,17.356-.111,34.446Z" transform="translate(0)" fill="#80553c"/>
            </g>
          </g>
          <g id="Group_106351" data-name="Group 106351" transform="translate(1.091 74.003)">
            <g id="Group_106350" data-name="Group 106350" transform="translate(0 0)">
              <path id="Path_76523" data-name="Path 76523" d="M18.587,9.257a8.959,8.959,0,0,0-2.731-6.586,8.951,8.951,0,0,0-6.572-2.7,9.056,9.056,0,0,0-6.6,2.707A9.021,9.021,0,0,0-.03,9.266a8.916,8.916,0,0,0,2.705,6.56,8.994,8.994,0,0,0,6.6,2.726,8.925,8.925,0,0,0,6.575-2.733A8.891,8.891,0,0,0,18.587,9.257Z" transform="translate(0)" fill="#80553c"/>
            </g>
          </g>
          <g id="Group_106354" data-name="Group 106354" transform="translate(4.922 44.953)">
            <g id="Group_106353" data-name="Group 106353" transform="translate(0 0)">
              <g id="Group_106352" data-name="Group 106352" transform="translate(0)">
                <path id="Path_76524" data-name="Path 76524" d="M1.627-.005-.035,10.782a30.908,30.908,0,0,0,20.324,3.8L22.057,4.6Z" fill="#684633"/>
              </g>
            </g>
          </g>
          <g id="Group_106356" data-name="Group 106356" transform="translate(16.58 -0.053)">
            <g id="Group_106355" data-name="Group 106355" transform="translate(0 0)">
              <path id="Path_76525" data-name="Path 76525" d="M30.822,15.349A14.813,14.813,0,0,0,26.3,4.46,14.87,14.87,0,0,0,15.394-.049,14.9,14.9,0,0,0,4.479,4.471,14.843,14.843,0,0,0-.049,15.365a14.813,14.813,0,0,0,4.517,10.89,14.87,14.87,0,0,0,10.91,4.509,14.9,14.9,0,0,0,10.915-4.52A14.843,14.843,0,0,0,30.822,15.349Z" transform="translate(0)" fill="#7a2230"/>
            </g>
          </g>
          <g id="Group_106358" data-name="Group 106358" transform="translate(0.039 4.171)">
            <g id="Group_106357" data-name="Group 106357" transform="translate(0 0)">
              <path id="Path_76526" data-name="Path 76526" d="M36.035,50.841q5.549-23.6,10.9-36.093L21.335-.068Q12.286,7.889-.144,44.875,12.366,58.437,36.035,50.841Z" transform="translate(0)" fill="#7a2230"/>
            </g>
          </g>
          <g id="Group_106361" data-name="Group 106361" transform="translate(-0.025 7.653)">
            <g id="Group_106360" data-name="Group 106360" transform="translate(0 0)">
              <g id="Group_106359" data-name="Group 106359">
                <path id="Path_76527" data-name="Path 76527" d="M11.294,11.861A257.984,257.984,0,0,0-.133,41.445Q11.891,54.677,35.2,47.569,8.961,49.078,5.521,39.579q-2.1-5.773,12.72-39.636A67.545,67.545,0,0,0,11.294,11.861Z" fill="#4b0f18"/>
              </g>
            </g>
          </g>
          <g id="Group_106363" data-name="Group 106363" transform="translate(38.582 20.655)">
            <g id="Group_106362" data-name="Group 106362" transform="translate(0 0)">
              <path id="Path_76528" data-name="Path 76528" d="M7.712.023,7.343.548,7.238.732,7.08.942l-.658,1.1L6.343,2.2l-.105.158L3.948,7.295,1.472,15.248l-1.5,8.9-.026.289q-.053.053.026.052l.053-.026L4.473,8.685,6.79,2.412l.053-.184L7.448.836,7.554.653l.237-.6Q7.843,0,7.764,0,7.712-.056,7.712.023Z" fill="#4b0f18"/>
            </g>
          </g>
          <g id="Group_106365" data-name="Group 106365" transform="translate(28.82 12.165)">
            <g id="Group_106364" data-name="Group 106364" transform="translate(0 0)">
              <path id="Path_76529" data-name="Path 76529" d="M3.146,2.352v.787h.789m-.789,0v.787M6.3,3.138,3.144,6.289-.01,3.141,3.147-.01Zm-3.944,0h.789" transform="translate(0)" fill="none" stroke="rgba(0,0,0,0)" stroke-linecap="round" stroke-linejoin="round" stroke-width="0.089"/>
            </g>
          </g>
        </g>
        <g id="Group_106375" data-name="Group 106375" transform="translate(108.326 172.357) rotate(170.162)">
          <g id="Group_106368" data-name="Group 106368" transform="matrix(0.978, 0.208, -0.208, 0.978, 14.073, -0.033)">
            <g id="Group_106367" data-name="Group 106367" transform="translate(0 0)">
              <path id="Path_76530" data-name="Path 76530" d="M20.688,7.74A38.338,38.338,0,0,0,17.723.009L.012,4.925q-.026,2,.027,4A374.133,374.133,0,0,0,3.663,53.1,126.211,126.211,0,0,1,4.924,68.56l12.568.054a128.263,128.263,0,0,1,.733-20.168q1.132-8.8,2.491-22.325T20.688,7.74Z" transform="translate(0 0)" fill="#80553c"/>
            </g>
          </g>
          <g id="Group_106370" data-name="Group 106370" transform="translate(4.582 62.499)">
            <g id="Group_106369" data-name="Group 106369" transform="translate(0 0)">
              <path id="Path_76531" data-name="Path 76531" d="M12.588,6.3a6.084,6.084,0,0,0-1.846-4.462A6.059,6.059,0,0,0,6.289-.015,6.068,6.068,0,0,0,1.835,1.838,6.093,6.093,0,0,0-.015,6.3a6.084,6.084,0,0,0,1.846,4.462,6.06,6.06,0,0,0,4.453,1.85,6.068,6.068,0,0,0,4.454-1.853A6.093,6.093,0,0,0,12.588,6.3Z" transform="translate(0 0)" fill="#80553c"/>
            </g>
          </g>
          <g id="Group_106372" data-name="Group 106372" transform="translate(5.646 8.751)">
            <g id="Group_106371" data-name="Group 106371" transform="translate(0 0)">
              <path id="Path_76532" data-name="Path 76532" d="M6.4,2.372,6.712.058Q6.764.005,6.686.005q-.052-.053-.052.026L3.9,14.7,2.241,26.958-.1,54.094q-.052.053.026.053l.052-.026L6.317,2.95Q6.37,2.556,6.4,2.372Z" fill="#684633"/>
            </g>
          </g>
          <g id="Group_106374" data-name="Group 106374" transform="translate(19.136 2.713)">
            <g id="Group_106373" data-name="Group 106373" transform="translate(0 0)">
              <path id="Path_76533" data-name="Path 76533" d="M3.142,2.359v.789h.787m-.787,0v.789m3.149-.79L3.14,6.3-.007,3.149,3.143-.007Zm-3.936,0h.787" transform="translate(0)" fill="none" stroke="rgba(0,0,0,0)" stroke-linecap="round" stroke-linejoin="round" stroke-width="0.089"/>
            </g>
          </g>
        </g>
        <g id="Group_106380" data-name="Group 106380" transform="matrix(0.978, 0.207, -0.207, 0.978, 57.211, 68.71)">
          <g id="Group_106377" data-name="Group 106377" transform="translate(0 0)">
            <g id="Group_106376" data-name="Group 106376">
              <path id="Path_76534" data-name="Path 76534" d="M21.158,29.886l.076-6.6a15.156,15.156,0,0,1-2.468-1,35.71,35.71,0,0,1-4.909-3.132A43.1,43.1,0,0,1,9.42,15.285a23.99,23.99,0,0,1-3.65-4.735q-1.6-2.683-2.811-5.182A46.45,46.45,0,0,1,.752,0L.082,29.561Z" transform="translate(0.049 17.802)" fill="#80553c"/>
              <path id="Path_76535" data-name="Path 76535" d="M20.334,9.369H20.2a9.659,9.659,0,0,0-2.916-6.392A9.657,9.657,0,0,0,10.2.029,9.757,9.757,0,0,0,3.061,2.971,9.753,9.753,0,0,0,.151,10.1q0,.289.026.579L.049,17.8a46.45,46.45,0,0,0,2.207,5.366q1.208,2.5,2.811,5.182a23.99,23.99,0,0,0,3.65,4.735,43.1,43.1,0,0,0,4.437,3.868,35.71,35.71,0,0,0,4.909,3.132,15.156,15.156,0,0,0,2.468,1Z" transform="translate(0.752 0.002)" fill="#684633"/>
            </g>
          </g>
          <g id="Group_106379" data-name="Group 106379" transform="translate(6.661 50.645)">
            <g id="Group_106378" data-name="Group 106378" transform="translate(0 0)">
              <path id="Path_76536" data-name="Path 76536" d="M3.158,2.376v.789h.787m-.787,0v.789m3.149-.788L3.16,6.32.009,3.163,3.157.009Zm-3.937,0h.787" transform="translate(0 0)" fill="none" stroke="rgba(0,0,0,0)" stroke-linecap="round" stroke-linejoin="round" stroke-width="0.089"/>
            </g>
          </g>
        </g>
        <g id="Group_106468" data-name="Group 106468" transform="matrix(0.997, -0.073, 0.073, 0.997, 28.414, 5.991)">
          <g id="Group_106381" data-name="Group 106381" transform="translate(21.873 67.402)">
            <path id="Path_76537" data-name="Path 76537" d="M20.081,10.055a9.666,9.666,0,0,1-2.951,7.111,9.625,9.625,0,0,1-7.1,2.957A9.683,9.683,0,0,1,2.92,17.168a9.692,9.692,0,0,1-2.93-7.11,9.762,9.762,0,0,1,2.932-7.13A9.721,9.721,0,0,1,10.037-.01a9.651,9.651,0,0,1,7.095,2.936A9.724,9.724,0,0,1,20.081,10.055Z" transform="translate(0 0)" fill="none" stroke="red" stroke-linecap="round" stroke-linejoin="round" stroke-width="0.089"/>
          </g>
          <g id="Group_106387" data-name="Group 106387" transform="translate(10.046 19.027)">
            <g id="Group_106383" data-name="Group 106383" transform="translate(0 0)">
              <g id="Group_106382" data-name="Group 106382" transform="translate(0 0)">
                <path id="Path_76538" data-name="Path 76538" d="M52.488,8.987A29.6,29.6,0,0,0,30.733-.031,29.618,29.618,0,0,0,8.975,8.993,29.745,29.745,0,0,0-.031,30.8a29.7,29.7,0,0,0,4.7,16.49l.026.131Q15.74,62.912,31.457,64.957q18.584,1.827,29-12.629l.685-16.543-.158.658a31.3,31.3,0,0,0,.5-5.655A29.727,29.727,0,0,0,52.488,8.987Z" fill="#80553c"/>
              </g>
            </g>
            <g id="Group_106386" data-name="Group 106386" transform="translate(21.519 13.564)">
              <g id="Group_106385" data-name="Group 106385" transform="translate(0 0)">
                <g id="Group_106384" data-name="Group 106384" transform="translate(0)">
                  <path id="Path_76539" data-name="Path 76539" d="M24.694,9.626a4.814,4.814,0,0,0,3.517-2.289,6.963,6.963,0,0,0,.945-1.973q.5,4.261,5.169,4.628a4.071,4.071,0,0,0,3.911-1.921,4.876,4.876,0,0,0,.972-3.419q-.682-.868-19.919-3.074Q0-.653,0,.267A10.544,10.544,0,0,0,2.571,7.683,7.8,7.8,0,0,0,7.5,10.234a10.517,10.517,0,0,0,8.031-2.026,12.767,12.767,0,0,0,2.809-3.1,6.518,6.518,0,0,0,2.309,3.524A5.509,5.509,0,0,0,24.694,9.626Z" fill="#684633"/>
                </g>
              </g>
            </g>
          </g>
          <g id="Group_106392" data-name="Group 106392" transform="translate(19.83 64.541)">
            <g id="Group_106389" data-name="Group 106389" transform="translate(0 0)">
              <g id="Group_106388" data-name="Group 106388" transform="translate(0 0)">
                <path id="Path_76540" data-name="Path 76540" d="M7.711,25.783q8.326,10.668,16.506,13.042t11.338.025q6.692-11.043,12.784-20.306Q54.431,9.311,49.916-.05L0,1.088Q1.148,18.758,7.711,25.783Z" fill="#80553c"/>
              </g>
            </g>
            <g id="Group_106391" data-name="Group 106391" transform="translate(12.71 31.424)">
              <g id="Group_106390" data-name="Group 106390" transform="translate(0 0)">
                <path id="Path_76541" data-name="Path 76541" d="M26.861.9q.079-.079-.026-.079h-.052L23.895,4.743l-.026.079-.026.053-.079.105q-.525.71-.682.894l-.735.737-.131.105-.052.053L22.11,6.8l-.367.289-.525.289-.551.184a2.86,2.86,0,0,1-.6.105h-.079l-.052.026h-.525l-5.564-.525-.079-.026h-.1l-2.887-.71L10.746,6.4h-.052L9.906,6.14a12.724,12.724,0,0,1-1.338-.473L7.912,5.4l-.157-.079L7.676,5.3,7.6,5.246,6.1,4.483Q5.156,3.957,4,3.221L2.3,2.038.144.092.092.013Q.066-.013.013.013q-.026.053,0,.079L.066.171l1.417,1.5L3.792,3.537Q5.025,4.4,5.865,4.9a13.089,13.089,0,0,0,1.181.684l.289.184.079.026L9.7,6.8l.709.237.079.053h.052l.052.026,2.913.815h.052l.026.026h.026l.079.026,3.412.578q.525.053,1.522.158l1.522.052a4.3,4.3,0,0,0,1.548-.421l.656-.395.472-.421.079-.053.919-1A8.1,8.1,0,0,0,24.472,5.4l.158-.263.105-.237Z" fill="#9f7b67"/>
              </g>
            </g>
          </g>
          <g id="Group_106415" data-name="Group 106415" transform="translate(0 0)">
            <g id="Group_106394" data-name="Group 106394" transform="translate(8.919 39.516)">
              <g id="Group_106393" data-name="Group 106393" transform="translate(0 0)">
                <path id="Path_76542" data-name="Path 76542" d="M0,4.391q.235,4.866.733,8.732.262,2,.551,3.577A7.994,7.994,0,0,1,7.63,19.276q3.569,3.392,4.67,9.73a123.321,123.321,0,0,0,.737-15.07A61.353,61.353,0,0,1,14.326.154Q12.751-.5,7.371,1.418,6.583,1.681,0,4.391Z" transform="translate(0 0)" fill="url(#linear-gradient)"/>
              </g>
            </g>
            <g id="Group_106396" data-name="Group 106396" transform="translate(0 0.19)">
              <g id="Group_106395" data-name="Group 106395" transform="translate(0 0)">
                <path id="Path_76543" data-name="Path 76543" d="M51.436,1.683a8.361,8.361,0,0,0-3.2-1.446,12.233,12.233,0,0,0-5.354.027,7.07,7.07,0,0,0-4.016,3.025Q38.236.343,35.532.712T31.28,4.447a2.183,2.183,0,0,0-1.26-.71,2.41,2.41,0,0,0-1.47.211,3.7,3.7,0,0,0-1.365.973,2.6,2.6,0,0,0-.6,1.526,3.759,3.759,0,0,0-1.994-1.92,4.7,4.7,0,0,0-4.278.185A6.44,6.44,0,0,0,17.292,7.4a5.232,5.232,0,0,0-.578,3.419,11.933,11.933,0,0,0-4.514.632,7.606,7.606,0,0,0-3.7,2.262,12.741,12.741,0,0,0-2.651,5.155A10.089,10.089,0,0,0,5.9,24.071q-1.391.447-3.15,2.946a16.953,16.953,0,0,0-2.494,5.05,7.681,7.681,0,0,0,.865,6.075,42.469,42.469,0,0,0,3.017,4.549A7.4,7.4,0,0,0,5.58,48.11a10.108,10.108,0,0,0,3.962,3.708l.237-2.078a8.355,8.355,0,0,1,1.549-4.287A4.965,4.965,0,0,0,16.6,47.424a3.865,3.865,0,0,0,2.835-2.6,33.917,33.917,0,0,0,1.1-4.734,5.086,5.086,0,0,0,3.044,1.446,7.481,7.481,0,0,0,3.6-.448,10.391,10.391,0,0,0,4.383-3.867q.656-1.526,1-2.446-.053,2.42,3.017,4.707A13.429,13.429,0,0,0,40.8,41.845a11.857,11.857,0,0,0,5.826-.711A8.442,8.442,0,0,0,50.3,37.425a5.639,5.639,0,0,0,3.385,2.445,6.737,6.737,0,0,0,4.514.289,4,4,0,0,0,1.916-1.315,4.331,4.331,0,0,0,.709-2.025A4.891,4.891,0,0,0,63.712,41.1a10.616,10.616,0,0,0,3.254.578,4.877,4.877,0,0,0,2.1-.5,3.856,3.856,0,0,0,1.575-1.71,6.618,6.618,0,0,0,4.829,1.051,6.508,6.508,0,0,0,5.459-3.946,7.509,7.509,0,0,0,.368-6.444,6.957,6.957,0,0,0-3.123-3.471,4.369,4.369,0,0,0,1.155-3.13,4.849,4.849,0,0,0-.6-2.42Q77,18.248,73.085,18.459a6.471,6.471,0,0,0,2.73-2.262,5,5,0,0,0,1.024-4.6Q76.1,9.017,72.851,8.2a10.179,10.179,0,0,0-6.036.317,5.825,5.825,0,0,0-.367-2.683,4.282,4.282,0,0,0-2.335-2,6.564,6.564,0,0,0-3.648-.525,4.255,4.255,0,0,0-2.756,1.657,3.146,3.146,0,0,0-1.784-1.21,1.9,1.9,0,0,0-1.365.29,2.336,2.336,0,0,0-.945.894A5.145,5.145,0,0,0,51.436,1.683Z" fill="#140e0e"/>
              </g>
            </g>
            <g id="Group_106400" data-name="Group 106400" transform="translate(0 0)">
              <g id="Group_106397" data-name="Group 106397" transform="translate(38.136 -0.038)">
                <path id="Path_76544" data-name="Path 76544" d="M12.219,37.785l.026.053,1.522,1.63.709.526.709.394.079.053.079.026.656.289.525.158.184.026.184.053H17l.052.026h.026l.787.052a6.591,6.591,0,0,0,1.6-.211l.184-.053.367-.158.1-.026h.026V40.6h.026l.026-.026.1-.026.026-.026.052-.026.1-.026.761-.5.289-.263a4.139,4.139,0,0,0,.525-.6l.394-.631.131-.342.026-.026v-.026l.026-.026.053-.158v-.026l.026-.053.053-.158V37.6l.026-.053v-.079l.131-.631V36.7l.026-.079v-.763l-.026-.131V35.6L22.9,35.5l-.1-.631-.1-.316-.026-.131-.052-.105-.026-.105-.079-.158V34l-.1.026.026.053v.263l.026.131V35.5l-.026.132v.105l-.026.105v.131l-.053.237v.132l-.026.132-.026.053-.026.079-.053.237-.184.473v.026l-.026.026-.053.132v.026l-.026.053-.052.053-.026.079v.026l-.026.053-.5.736-.5.5-.446.316-.472.237-.026.026-.079.026-.052.026h-.026l-.079.026-.157.079-.157.053-.814.184-1.365.053-.026-.026h-.079l-.472-.079-.079-.026h-.079l-.157-.053-.157-.026L14.345,39.1l-1.889-1.236-.131-.105-.052-.026-.052.053m30.076-.32-.026.053-.262.263-.079.053-.079.105-.079.079-.341.289-.131.079-.577.421-.367.184-.079.053-.709.289a.633.633,0,0,1-.21.079l-.21.079-.1.053-.1.026-.131.053-.315.079-.079.026-.053.026-.236.053H38.1l-.026.026h-.079l-.236.053a5.228,5.228,0,0,1-.919.184l-.472.053-.052.026-1.05.026-.21-.026h-.184l-.394-.053-.1-.026H34.29l-.945-.21-.551-.184-.131-.026-.026-.026-.053.079.052.026.262.263.289.21.577.316.157.105.184.079h.052l.053.026.5.184.446.105h.079l.052.026h.131l.236.053h.236l.079.026h.787l.052-.026h.131l.131-.026H37.2l1.076-.211.052-.026h.052l.026-.026.236-.053.052-.026,1.286-.526.21-.132.1-.053.682-.474.472-.447a3.378,3.378,0,0,0,.446-.6l.1-.132.184-.342.131-.342.026-.132.026-.026-.079-.053M2.751,1.387l-.472.368-.1.105-.052.026-.866.894-.026.053-.079.079-.289.421-.053.105-.052.079-.105.21L.6,3.807.441,4.1.047,5.227l-.026.158-.026.053.079.026L.1,5.411.782,4.49l.052-.053.052-.079.131-.132.262-.316.053-.079.525-.526.052-.026.367-.316.079-.079.315-.237.052-.026.052-.053L3.3,2.2l.236-.132.131-.053.1-.079.131-.026.341-.184L4.325,1.7l.367-.158.079-.026.236-.105L5.8,1.15l1.5-.342h.131l.1-.026L8,.728h.1L8.21.7h.21A2.661,2.661,0,0,1,8.84.676h1.5L10.388.7,10.414.6h-.052L10.231.518,10.073.465l-.1-.053L8.682.071,8.236.018H8.1L8-.008,6.4.019,4.956.334,4.089.65,3.906.755,3.827.782l-1.076.605m16.9,6.967-.052.079-.026.053-.052.026.026.079.052-.026h.157l.052-.026h.052l.131-.026h.157l.1-.026h.656l.184.026.079.026h.052l.21.105h.026l.052.026.026.026.052.026.289.263.131.184.026.026.026.053.052.053.026.053.052.079.052.105.052.053v.026l.052.105a1.053,1.053,0,0,1,.157.368v.053l.026.026v.105l.026.079V10.4l.026.053v.395l-.026.079v.132l-.026.053v.053l-.026.079V11.3l-.026.079.052.026.052-.026.052-.053.079-.053.052-.026.026-.053.1-.105.052-.079.026-.026.026-.053a1.709,1.709,0,0,0,.21-.395l.026-.053v-.053L23.3,10.3l.026-.289V9.878L23.3,9.721V9.642l-.026-.079-.026-.158-.026-.053-.052-.158V9.142l-.026-.026-.052-.158-.079-.131-.026-.079L22.958,8.7l-.052-.053V8.59h-.026V8.564h-.026L22.669,8.3l-.262-.263-.131-.105L22.2,7.906,22.039,7.8l-.262-.079a.751.751,0,0,0-.341-.079,2.475,2.475,0,0,0-.6.026l-.131.053-.131.026-.341.158-.236.158-.131.132-.1.079-.052.053Z" transform="translate(0 0)" fill="#493f3f"/>
              </g>
              <g id="Group_106398" data-name="Group 106398" transform="translate(-0.011 10.81)">
                <path id="Path_76545" data-name="Path 76545" d="M9.187,32.492l.079.105.079.158.052.079.052.105,1.023,1.42,1.05,1.1.1.079.1.105.052.026.052.053.735.526.735.368h.026l.814.263.892.158,1.05-.026.551-.105.079-.026h.052l.131-.053h.052l.1-.053h.026l.026-.026.21-.079.052-.026.052-.053.131-.053.472-.368.079-.079.1-.079.21-.21.053-.079.131-.132L19,35.12l.053-.105.079-.079.079-.158.079-.105q.026-.026-.026-.079h-.052l-.236.184-.1.053-.079.079-.367.237-.131.105-.446.289-.1.053-.079.053-.367.184-.1.026-.079.053-.052.026h-.052l-.1.026-.026.026h-.052l-.079.026h-.026l-.1.026h-.131a3.115,3.115,0,0,1-.472.026h-.5l-1-.158-.131-.053-.63-.184-.052-.026h-.026l-.026-.026-.577-.263L11.234,34.07l-.157-.158-.184-.131L10,33.018l-.052-.026-.262-.237-.1-.079L9.5,32.6l-.131-.079-.1-.105q-.026-.026-.079.026v.053m-6.165-16.2Q3.1,16.213,3,16.213H2.944L1.763,17.686,1,19l-.236.526-.026.026L.161,21.5l-.026.026v.053l-.026.105-.026.21V22L.056,22.1l-.079.815.052,1.5.079.631.1.421.026.21.131.5.052.105.1.394.052.079.026.105L1.63,28.943l1.1,1.578.1.105.079.105,1.312,1.341h.079v-.079l-.6-.947-.1-.21-.262-.421-.079-.105L2.05,27.917l-.026-.079-.052-.079-.761-2.5-.026-.21-.026-.079v-.105l-.026-.184L1.079,24.5v-.21a3.915,3.915,0,0,1-.052-.763L1,23.341v-.368l.026-.21v-.368l.026-.184v-.184l.026-.184.026-.105v-.079l.053-.368.053-.184.053-.342.21-.842.026-.079.026-.053v-.026l.315-.921,1.181-2.551M16.777.4a3.7,3.7,0,0,1,.5-.026l.971-.053A.046.046,0,0,0,18.3.273L18.273.246,17.722.141,16.174-.016,14.888.01,12.945.326,11.554.8l-.472.21L9.271,2.141,8.93,2.4,7.565,3.772l-.5.658v.026H7.04l-.026.026-.026.053-.131.184v.026l-.026.026L6.121,5.955l-.21.5a3.853,3.853,0,0,0-.368,1l-.079.237-.053.263-.079.237-.026.263-.026.053v.053l-.026.132v.132l-.079.6.1,1.788.262,1.131L5.6,12.5l.079.158a5.035,5.035,0,0,0,.5,1.026l.551.842q.052.026.079,0V14.45l-.236-.5-.052-.184-.079-.184a6.587,6.587,0,0,1-.315-1.052l-.052-.158L5.936,11.5v-.184l-.026-.184.026-1.21.026-.105V9.716l.026-.105V9.506l.184-.868a5.506,5.506,0,0,1,.263-.894,8.632,8.632,0,0,1,.84-1.762l.053-.105.341-.5.052-.053.026-.053.079-.105.026-.053.026-.026V5.061h.026l.472-.6.079-.079A12.191,12.191,0,0,1,9.9,2.957l.787-.605.1-.053.289-.21,1.155-.605.1-.026.21-.105.63-.237.1-.026.1-.053L15.675.51h.1l.079-.026.63-.053h.079L16.646.4h.131m18.709,18.96-.157-.105-.052-.053L35.2,19.18l-.157-.105-.079.026v.053l.052.079.052.158.052.053.157.342.157.526v.053l.026.079.026.237v.526l-.053.289-.053.132V21.7l-.026.026v.026l-.026.079v.026l-.026.026-.053.184V22.1l-.026.026-.131.342-.315.447-.289.289-.472.289-.577.263-.1.026-.63.21h-.052l-.1.053-.079.026a.046.046,0,0,0-.052.053l.026.026.1.053.1.026H32.7l.079.026.63.079a.341.341,0,0,0,.262,0h.157l.472-.079.525-.184.079-.053.079-.026.079-.053.1-.053.315-.263.394-.473.341-.658v-.053l.026-.053.053-.158v-.053l.026-.053.026-.105v-.053l.026-.053V21.81l.026-.184v-.579l-.026-.105v-.079l-.026-.105v-.053l-.026-.026-.1-.342-.052-.079-.026-.079-.026-.053-.131-.21-.052-.053-.026-.053-.1-.131Z" transform="translate(0 0)" fill="#493f3f"/>
              </g>
              <g id="Group_106399" data-name="Group 106399" transform="translate(34.404 7.82)">
                <path id="Path_76546" data-name="Path 76546" d="M1.7,0H1.337L.865.157.76.235.314.656.051,1.13l-.026.105L0,1.288l.026.079H.077L.13,1.314l.079-.026.367-.21L.812,1,.891.946,1.075.919,1.1.893h.1L1.232.867l.184.026h.052l.052.026h.026L1.7,1l.079.026.079.053.079.079.052.026.315.316.026.053.052.026.026.053.026.026.052.105.026.026.052.079.052.184.026.026v.105l.026.053v.105H2.7V2.76H2.675v.079l-.026.053v.026l-.026.053v.079L2.6,3.076,2.36,3.5l-.053.053.026.079h.1l.1-.026.1-.053.289-.184.052-.026.026-.026.052-.026L3.2,3.154l.079-.105V3.023L3.305,3l.026-.079.079-.105L3.515,2.5V2.392h.026V2.234l.026-.105V1.971l-.026-.079-.052-.368-.052-.158-.052-.079-.026-.079L3.1.814,2.938.656A3.237,3.237,0,0,0,2.413.209L2.256.13Z" transform="translate(0 0)" fill="#493f3f"/>
              </g>
            </g>
            <g id="Group_106402" data-name="Group 106402" transform="translate(19.765 32.686)">
              <g id="Group_106401" data-name="Group 106401" transform="translate(0 0)">
                <path id="Path_76547" data-name="Path 76547" d="M12.744.013,12.692.25l-.079.6-.289,1.184a.656.656,0,0,1-.079.289l-.289.921-.079.158-.053.158-.052.079L11.72,3.8l-.21.421A6.168,6.168,0,0,1,10.7,5.537l-.5.6-.052.026-.577.526-.052.026-.1.105-.1.053-.42.316-.735.421-.079.053-.1.026L7.783,7.8,7.494,7.9l-.1.053-.1.026-.1.053-.6.184-.026.026H6.5L4.975,8.51a5.988,5.988,0,0,1-1.5-.079L3.3,8.4,2.954,8.3h-.1l-.026-.026H2.77l-.394-.131L2.3,8.089l-.131-.053-.525-.289-.079-.026-.052-.053-.052-.026L1.406,7.59,1.2,7.432A5.791,5.791,0,0,1,.54,6.775L.094,6.091q0-.079-.052-.026-.079,0-.026.053l.131.473L.3,6.932l.052.079.052.105.131.21.052.105.052.053.026.053.079.105.472.5.21.158.052.053.367.263.157.079.079.053.446.21.026.026h.052l.079.053.184.053.1.053L3.3,9.22A5.9,5.9,0,0,0,5,9.456l1.391-.132.341-.079.052-.026h.079l.656-.211.131-.026.21-.105.1-.026.656-.316q.21-.105.84-.474L9.646,7.9l.21-.132.079-.079.184-.132.053-.053.052-.026.341-.316.157-.184.1-.079V6.878l.026-.026.052-.026.157-.184.052-.079.367-.473a7.571,7.571,0,0,0,.788-1.526l.053-.21.079-.184V4.143l.026-.053.184-.631.026-.184.053-.184.105-.658L12.9.881,12.823.04a.046.046,0,0,0-.052-.053Z" fill="#493f3f"/>
              </g>
            </g>
            <g id="Group_106404" data-name="Group 106404" transform="translate(26.454 3.483)">
              <g id="Group_106403" data-name="Group 106403" transform="translate(0 0)">
                <path id="Path_76548" data-name="Path 76548" d="M2.99.024H2.911L2.727,0,2.543.024H2.386L2.2.05a2.938,2.938,0,0,0-.656.237H1.52L1.467.313,1.415.366,1.336.392,1.257.445,1.179.524H1.152L1.126.55l-.1.079L.785.865l-.341.473-.131.237-.184.473-.053.237L.05,2.338v.053L.024,2.5,0,2.707v.71l.026.158V3.68l.052.289.052.158.052.026L.207,4.1l.158-.789.053-.158V3.075L.5,2.812l.236-.526a2.578,2.578,0,0,1,.5-.658l.184-.184.052-.026.079-.079.131-.079H1.7l.052-.026.026-.026.1-.053h.026l.026-.026.21-.053h.026L2.2,1.049h.1l.052-.026H2.7l.1.026a1.667,1.667,0,0,1,.446.105l.131.053h.052l.157.079.1.079H3.75l.026.026.052.026.052.053h.052V1.5H3.96l.656.447.5.447.1.079.052.053.026.053.1.079.525.579.1.079L7.319,4.888l.052.053.052.079.42.526.1.105q0,.026.079.026V5.625L7.844,5.1l-.6-1.341a4.637,4.637,0,0,0-.5-.842L6.69,2.811l-.315-.447-.1-.105-.577-.684L4.748.76,4.485.6V.576q0,.026-.026,0L4.433.549,4.354.523,4.3.47H4.275L4.249.444H4.223L3.908.286,3.751.234,3.593.155,3.436.1h-.1L3.173.05H3.095Z" transform="translate(0 0)" fill="#493f3f"/>
              </g>
            </g>
            <g id="Group_106406" data-name="Group 106406" transform="translate(4.037 42.697)">
              <g id="Group_106405" data-name="Group 106405" transform="translate(0 0)">
                <path id="Path_76549" data-name="Path 76549" d="M1.61,4.294,1.555,4.2.308.472.274.292.166,0,.09,0,.069.053.024.3l0,.108L0,.5.025,2.442l.2,1.083.036.109.016.126.161.453a4.5,4.5,0,0,0,.36.907l.754,1.293.094.092.018.054L1.7,6.6l.168.2a5.891,5.891,0,0,0,.636.662l.15.147.773.575.095.056.056.055.285.133.113.075.665.285.037.037.04-.071-.037-.037-.055-.091-.6-.589-.093-.128L3.824,7.8l-.111-.146L3.6,7.539l-.576-.75-.075-.074-.646-1-.091-.2-.166-.273-.054-.127-.111-.182Z" transform="translate(0 0)" fill="#493f3f"/>
              </g>
            </g>
            <g id="Group_106408" data-name="Group 106408" transform="translate(53.488 3.768)">
              <g id="Group_106407" data-name="Group 106407" transform="translate(0 0)">
                <path id="Path_76550" data-name="Path 76550" d="M4.189.971,3.922.655,3.575.366,3.2.155,3.067.129l-.1-.053L2.862.05H2.731L2.654.024h-.1L2.446,0h-.21L2.129.024h-.21L1.545.129,1.192.287.808.524.752.577.642.656.556.761.443.866.384.971.24,1.155l-.032.079a1.705,1.705,0,0,0-.148.237L.028,1.55,0,1.6l.049.053L.1,1.629l.082-.053L.268,1.5l.054-.026L.4,1.418l.056-.053L.626,1.26l.217-.105L.95,1.129l.217-.105L1.673.918h.394l.051.026H2.2l.077.026h.079L2.4,1l.077.026h.079l.1.053.077.026.1.053.049.053.051.026.223.184.291.342.047.079.049.053,0,.026.024.026.047.079.023.053h.026l0,.026.049.053.07.131.043.131.049.053.085.289.023.053L4,2.891l.023.053.021.079,0,.026.024.026.051.394.023.053-.013.184.01.237.019.105-.048.684.051.026.03-.053.058-.079.084-.079L4.4,4.39l.058-.079.032-.079.12-.21.1-.263.035-.132.006-.079.032-.079.037-.158.037-.526-.021-.079L4.836,2.6,4.8,2.417,4.8,2.338l-.038-.21-.047-.079-.04-.184-.092-.184-.019-.105-.024-.026,0-.026L4.52,1.5l-.047-.079-.045-.105-.047-.079-.073-.079Z" transform="translate(0 0)" fill="#493f3f"/>
              </g>
            </g>
            <g id="Group_106410" data-name="Group 106410" transform="translate(60.743 31.908)">
              <g id="Group_106409" data-name="Group 106409" transform="translate(0 0)">
                <path id="Path_76551" data-name="Path 76551" d="M3.457.734,3.412.628,3.365.549,3.023.181l-.1-.053L2.847.076,2.8.024,2.747,0,2.691.05l.045.105L2.731.234l.045.105.032.289.021.079L2.824.786l.04.184-.026.368-.078.368-.065.184-.03.053,0,.026H2.636l0,.053-.03.053-.26.342L2.258,2.5,2.172,2.6l-.028.026H2.118l-.281.263-.054.026-.028.026L1.7,2.969,1.7,3H1.672l-.082.053-.054.026L1.507,3.1,1.4,3.127l-.082.053-.161.053h-.1l-.081.026-.186.026H.34L.158,3.259H.027L0,3.312l.051.026L.07,3.39l.146.158.325.237.1.026.2.105.129.026h.052l.077.026h.42l.159-.026.081-.026h.079l.163-.079H2.06l.028-.026.161-.053L2.3,3.706l.081-.026.221-.158.056-.053.082-.053L2.8,3.364h.026l0-.026.14-.132.342-.395.032-.079L3.4,2.653l.032-.079L3.492,2.5l.064-.158.028-.026,0-.053.032-.079.076-.342.011-.158L3.66,1.207,3.572.97,3.551.891,3.528.839Z" transform="translate(0)" fill="#493f3f"/>
              </g>
            </g>
            <g id="Group_106412" data-name="Group 106412" transform="translate(62.62 35.963)">
              <g id="Group_106411" data-name="Group 106411" transform="translate(0 0)">
                <path id="Path_76552" data-name="Path 76552" d="M.027,4.569,0,4.648l.051.026.4.316.128.053.049.053.2.105L.9,5.253H.924l.2.105.765.315.233.053.1.053.362.079a7.348,7.348,0,0,0,1.069.105h.577l.133-.026H4.6l.081-.026.133-.026h.157l.081-.026h.052L5.268,5.8h.1l.054-.026.133-.026.7-.237.654-.342.139-.105.137-.079.477-.447.4-.526a4.73,4.73,0,0,0,.469-1.078l.035-.132,0-.053.03-.053.009-.132.035-.132.062-.894L8.66.833,8.478.044l0-.053L8.4.018,8.4.07,8.362.2,8.344.465,8.309.6,8.1,1.7l-.007.105-.36,1.026-.3.5L7.147,3.7l-.03.053-.054.026-.03.053-.028.026H6.979l-.225.21L6.7,4.095l-.084.079a4.024,4.024,0,0,1-.9.447l-.483.158H5.183L5.1,4.8l-.133.026-.054.026H4.836l-.506.105H4.2l-.24.053H3.7l-.054.026H2.514l-.1-.026h-.1l-.988-.131-.18-.053L.594,4.727.466,4.674h-.1L.207,4.622.078,4.6Z" transform="translate(0)" fill="#493f3f"/>
              </g>
            </g>
            <g id="Group_106414" data-name="Group 106414" transform="translate(16.535 4.249)">
              <g id="Group_106413" data-name="Group 106413" transform="translate(0 0)">
                <path id="Path_76553" data-name="Path 76553" d="M6.085-.005H4.851L3.644.258l-.21.079L2.778.653l-.42.263-.709.579L1.6,1.547,1.57,1.6l-.184.184-.157.21q-.053.079-.157.21l-.157.21-.026.026v.026l-.053.053-.5,1-.263.894-.053.447L0,4.967v.658l.052.316V6.1l.184.71.052.105.052.026.026-.053.026-.105V6.623l.026-.079V6.439l.026-.105V6.229l.184-.894L.73,4.993l.079-.158.079-.289L.94,4.467l.026-.079.053-.105L1.071,4.2V4.151l.341-.6.053-.079.053-.105.052-.079.052-.053.026-.053L1.7,3.1l.052-.053V3.02l.026-.026.63-.763.053-.079L2.541,2.1l.236-.237.1-.053.079-.079.5-.368L4.51.784,4.982.6,5.14.521,5.428.416,5.56.39,5.691.337,6.006.258,6.084.205,6.216.179,6.347.126,6.373.074,6.321.047Z" transform="translate(0)" fill="#493f3f"/>
              </g>
            </g>
          </g>
          <g id="Group_106422" data-name="Group 106422" transform="translate(2.986 54.172)">
            <g id="Group_106417" data-name="Group 106417" transform="translate(-0.004 4.3) rotate(-15.965)">
              <g id="Group_106416" data-name="Group 106416" transform="translate(0 0)">
                <path id="Path_76554" data-name="Path 76554" d="M12.633,3.26A6.878,6.878,0,0,0,7.752.029Q4.669-.459,2.185,3A13.527,13.527,0,0,0-.026,11.656a16.979,16.979,0,0,0,2.7,8.78A16.653,16.653,0,0,0,8.1,25.744a37.128,37.128,0,0,0,4.75,1.916q.263-1.349,1.631-5.523a23.349,23.349,0,0,0,.637-10.123Q14.41,6.026,12.633,3.26Z" fill="#80553c"/>
              </g>
            </g>
            <g id="Group_106419" data-name="Group 106419" transform="translate(5.664 6.464)">
              <g id="Group_106418" data-name="Group 106418" transform="translate(0 0)">
                <path id="Path_76555" data-name="Path 76555" d="M.078,1.181l.315-.105.1-.053L.629,1,.917.892H1L1.285.813,1.469.787l.1-.026h.1L2.1.708l.472.026.472.105a4.33,4.33,0,0,1,.945.394l.472.342.21.184.052.026.367.368.971,1.21L7.242,5.309l.052.131L8.553,7.913l.052.079.184.394.079.105.079.184.079.131q0,.079.052.026.079,0,.026-.053l-.079-.6L8.711,6.887,7.74,4.2l-1.207-2L5.589,1.18a.284.284,0,0,1-.131-.105L5.038.76,4.3.339,4.146.286,3.988.208,3.831.155,3.2.024H3.043L2.886,0H2.6L1.652.155,1.495.234H1.442l-.1.053-.21.079-.84.5L0,1.1v.079Z" transform="translate(0 0)" fill="#684633"/>
              </g>
            </g>
            <g id="Group_106421" data-name="Group 106421" transform="translate(3.664 1.969)">
              <g id="Group_106420" data-name="Group 106420" transform="translate(0 0)">
                <path id="Path_76556" data-name="Path 76556" d="M4.362,0,3.338.18l-.5.158L2.761.39,2.6.443,2.524.5,2.367.548,2.288.6,2.209.627,1.763.917,1.711.943l-.079.079-.052.026-.026.026-.472.368L.53,2.1l-.079.132-.1.132-.315.579q-.079.079.026.079H.109l.6-.552.131-.079.1-.105.131-.079L1.212,2.1l.761-.447H2L2.078,1.6H2.1l.026-.026.5-.184.052-.026.157-.053.052-.026H2.97l.157-.053H3.18l.079-.026h.079l.079-.026h.052l.079-.026.157-.026h.131l.315-.053H4.44q.286,0,.787.052l1.233.237.289.079H6.8l.026.026h.026l.761.289.761.421a1.3,1.3,0,0,1,.341.237l.1.053L8.9,2.52,8.98,2.6l.1.053.079.079.079.053.5.421.945,1,.052.105.079.079,1.312,1.92v.026l.026.026.026.053.184.263,1.758,3.1q0,.079.052.026.079,0,.026-.053L12.549,6.122,12.523,6.1V6.07L11.394,4.124l-.131-.184-.052-.105-1.286-1.5L9.663,2.1,9.61,2.073l-.026-.026-.1-.079L9.4,1.888,9.3,1.81l-.079-.079-.367-.263a5.677,5.677,0,0,0-.813-.5L7.2.547,7.17.521H7.143L6.986.442,6.3.232A6.535,6.535,0,0,0,5.359.048,6.229,6.229,0,0,0,4.414,0Z" fill="#9f7b67"/>
              </g>
            </g>
          </g>
          <g id="Group_106429" data-name="Group 106429" transform="translate(46.329 52.942)">
            <g id="Group_106424" data-name="Group 106424" transform="translate(0.09 0)">
              <g id="Group_106423" data-name="Group 106423" transform="translate(0 0)">
                <path id="Path_76557" data-name="Path 76557" d="M3.194,24.675q8.548,2.914,9.58-4.736l.105-1.578-3.07-3.287A37.7,37.7,0,0,1,8.893,1.031Q6.444-1.6,5.192,2.425L.571,19.994Q-1.4,23.944,3.194,24.675Z" fill="#80553c"/>
              </g>
            </g>
            <g id="Group_106426" data-name="Group 106426" transform="translate(7.666 1.084)">
              <g id="Group_106425" data-name="Group 106425" transform="translate(0 0)">
                <path id="Path_76558" data-name="Path 76558" d="M0,9.2a32.608,32.608,0,0,0,.446,3.813Q.8,14.83.842,14.911A16.811,16.811,0,0,1,3.2,17.225a5.237,5.237,0,0,1,1.023,2.341q.25,1.368-1.287,3.63,2.593-2.326,2.783-4.182a2.73,2.73,0,0,0-1.5-2.814q-1.681-.976-2.6-1.578l.289-.552-.157-.237-.63.026.682-.053L.765,8.336.844,4.365,1.317,0a22.408,22.408,0,0,0-1,4.208A29.219,29.219,0,0,0,0,9.2Z" transform="translate(0)" fill="#9f7b67"/>
              </g>
            </g>
            <g id="Group_106428" data-name="Group 106428" transform="translate(-0.001 1.092)">
              <g id="Group_106427" data-name="Group 106427" transform="translate(0 0)">
                <path id="Path_76559" data-name="Path 76559" d="M8.538,3.8l-.027,4.76L9.245,14.4a.442.442,0,0,0,.184.289v.026l.236.158,1.181,1.078L12,17.428l.341.579.026.079a3.269,3.269,0,0,1,.315.657,2.969,2.969,0,0,1,.184.657l.026.473-.026.105v.053l-.026.026-.026.079v.079l-.026.079-.052.079-.079.237a3.822,3.822,0,0,1-.84,1.078l-.577.447-.052.053-.1.053L11,22.293l-.026.026-.052.026-.367.237-.1.026-.84.368-.787.237H8.745l-.184.053-.735.105h-.21l-.184.026H6.278a14.751,14.751,0,0,1-1.522-.079,8.748,8.748,0,0,1-1.522-.21l-.184-.053-.184-.026-.289-.079L2.5,22.9l-.341-.105-.446-.21-.079-.026-.157-.105-.157-.079-.394-.342a.7.7,0,0,1-.236-.263,2.741,2.741,0,0,1-.341-.631L.268,20.4.4,19.639.662,18.9q.052-.053-.026-.053-.052-.053-.052.026a3.942,3.942,0,0,0-.368.71l-.21.684-.026.526.026.421.315.789.262.342.63.552q.052.053.079.053L1.37,23l.079.079.945.447.682.21a11.738,11.738,0,0,0,1.575.342q.551.079,1.6.158l1.417.026.21-.026h.21l.814-.105.1-.026h.1l.814-.211.21-.079.026-.026h.052L11,23.45l.079-.053.394-.21.026-.026.052-.026.157-.105h.026V23h.026l.052-.053a5.57,5.57,0,0,0,.682-.5l.6-.631a4.681,4.681,0,0,0,.473-.763l.105-.21.026-.105.053-.105.026-.105.053-.105.026-.132v-.053l.026-.053.026-.105v-.132l.026-.237-.026-.5a3.63,3.63,0,0,0-.262-.868l-.42-.868-.052-.079-.079-.184-.708-1.026-1.1-1.236-1.023-.868-.079-.053-.026-.026-.577-3.287-.55-6.233L9.063.017,9.037-.009,8.984.017Z" fill="#684633"/>
              </g>
            </g>
          </g>
          <g id="Group_106452" data-name="Group 106452" transform="translate(30.05 54.299)">
            <g id="Group_106434" data-name="Group 106434" transform="translate(27.181 3.779)">
              <g id="Group_106431" data-name="Group 106431" transform="translate(0 0)">
                <g id="Group_106430" data-name="Group 106430" transform="translate(0 0)">
                  <path id="Path_76560" data-name="Path 76560" d="M6.391,4.179a4.728,4.728,0,0,0-.945-2.967A2.758,2.758,0,0,0,3.194,0,2.8,2.8,0,0,0,.926,1.213,4.785,4.785,0,0,0,0,4.18,4.715,4.715,0,0,0,.925,7.132,2.789,2.789,0,0,0,3.193,8.363,2.75,2.75,0,0,0,5.445,7.131,4.665,4.665,0,0,0,6.391,4.179Z" fill="#231915"/>
                </g>
              </g>
              <g id="Group_106433" data-name="Group 106433" transform="translate(3.524 1.985)">
                <g id="Group_106432" data-name="Group 106432" transform="translate(0 0)">
                  <path id="Path_76561" data-name="Path 76561" d="M1.544.979a1.19,1.19,0,0,0-.252-.71A.63.63,0,0,0,.741,0,.674.674,0,0,0,.2.3a1.222,1.222,0,0,0-.2.742,1.075,1.075,0,0,0,.252.694.659.659,0,0,0,.567.284.624.624,0,0,0,.52-.316A1.119,1.119,0,0,0,1.544.979Z" fill="#fff"/>
                </g>
              </g>
            </g>
            <g id="Group_106436" data-name="Group 106436" transform="translate(25.945 1.553)">
              <g id="Group_106435" data-name="Group 106435" transform="translate(0 0)">
                <path id="Path_76562" data-name="Path 76562" d="M12.188,6.423a5.529,5.529,0,0,0-1.143-2.355A16.165,16.165,0,0,0,4.155,0,32.071,32.071,0,0,0-.007,6.616,8.961,8.961,0,0,0,5.138,8.589Q8.344,8.911,12.188,6.423Z" transform="translate(0)" fill="#80553c"/>
              </g>
            </g>
            <g id="Group_106438" data-name="Group 106438" transform="translate(27.305 8.877)">
              <g id="Group_106437" data-name="Group 106437" transform="translate(0 0)">
                <path id="Path_76563" data-name="Path 76563" d="M0,.564.38,4.192a10.053,10.053,0,0,0,8.86-.129L10.1-.01Z" transform="translate(0 0)" fill="#80553c"/>
              </g>
            </g>
            <g id="Group_106440" data-name="Group 106440" transform="translate(25.971 7.924)">
              <g id="Group_106439" data-name="Group 106439" transform="translate(0 0)">
                <path id="Path_76564" data-name="Path 76564" d="M8.765,1.612l-.1.032-2.255.382H5.176L4.128,1.9l-.159-.032-.1-.032H3.81L3.62,1.772,3.461,1.74l-.1-.032H3.3L2.127,1.263,1.175.722,1.143.69.508.372.349.34.1.213Q0,.117,0,.245V.308L.317.626l.1.127.413.382.127.159.889.8.191.1.159.127.191.1.064.064.1.032.381.191.1.032.1.064.159.064.984.286.413.064.1.032h.1l.222.032h.1l.1.032L6.7,3.267,7.081,3.2h.127l.1-.032L8.1,3.012l.762-.255.191-.1.1-.032.445-.223.032-.032h.032V2.343h.032l.1-.032.1-.1H9.94l1.4-1.114.54-.764.032-.1.032-.032V.147l.032-.1q.064-.064-.032-.064h-.064V.02L11.75.147l-.1.064-.064.032L11.464.37l-1.112.637-.826.35H9.463l-.032.032-.191.064-.032.032H9.178l-.159.064-.191.032Z" fill="#231915"/>
              </g>
            </g>
            <g id="Group_106445" data-name="Group 106445" transform="translate(2.569 3.783)">
              <g id="Group_106442" data-name="Group 106442" transform="translate(0 0)">
                <g id="Group_106441" data-name="Group 106441" transform="translate(0 0)">
                  <path id="Path_76565" data-name="Path 76565" d="M6.391,4.179a4.728,4.728,0,0,0-.945-2.967A2.758,2.758,0,0,0,3.194,0,2.8,2.8,0,0,0,.926,1.213,4.785,4.785,0,0,0,0,4.18,4.715,4.715,0,0,0,.925,7.132,2.789,2.789,0,0,0,3.193,8.363,2.75,2.75,0,0,0,5.445,7.131,4.665,4.665,0,0,0,6.391,4.179Z" fill="#231915"/>
                </g>
              </g>
              <g id="Group_106444" data-name="Group 106444" transform="translate(3.524 1.985)">
                <g id="Group_106443" data-name="Group 106443" transform="translate(0 0)">
                  <path id="Path_76566" data-name="Path 76566" d="M1.544.979a1.19,1.19,0,0,0-.252-.71A.63.63,0,0,0,.741,0,.674.674,0,0,0,.2.3a1.222,1.222,0,0,0-.2.742,1.075,1.075,0,0,0,.252.694.659.659,0,0,0,.567.284.624.624,0,0,0,.52-.316A1.119,1.119,0,0,0,1.544.979Z" fill="#fff"/>
                </g>
              </g>
            </g>
            <g id="Group_106447" data-name="Group 106447" transform="translate(0 0)">
              <g id="Group_106446" data-name="Group 106446" transform="translate(0 0)">
                <path id="Path_76567" data-name="Path 76567" d="M7.52-.008A16.816,16.816,0,0,0,5.71,1.043,16.985,16.985,0,0,0-.007,7.282Q.3,7.542,2.47,8.873a8.964,8.964,0,0,0,5.875.922,18.533,18.533,0,0,0,7.209-2.356,4.549,4.549,0,0,0-1.524-2.96A69.424,69.424,0,0,0,7.52-.008Z" fill="#80553c"/>
              </g>
            </g>
            <g id="Group_106449" data-name="Group 106449" transform="translate(0.85 8.311)">
              <g id="Group_106448" data-name="Group 106448" transform="translate(0 0)">
                <path id="Path_76568" data-name="Path 76568" d="M0,.116,1.047,4.858a18.841,18.841,0,0,0,11.21-.129L13.5-.014Z" transform="translate(0 0)" fill="#80553c"/>
              </g>
            </g>
            <g id="Group_106451" data-name="Group 106451" transform="translate(0.088 7.358)">
              <g id="Group_106450" data-name="Group 106450" transform="translate(0 0)">
                <path id="Path_76569" data-name="Path 76569" d="M15.244-.015h-.1L11.655,1.577l-.1.032h-.032L11.5,1.64h-.032l-.318.127h-.064L11.02,1.8l-.191.064-1.81.287H8.8l-.7.064L5.684,2.182,5.557,2.15H5.335l-.667-.1-.222-.064L4,1.928l-.667-.191-1.27-.509-.1-.064-.318-.159L1.365.814l-1.3-.7Q0,.051,0,.146V.21l1.27,1.3,1.016.764.445.255.254.1.445.223.127.032.127.064.254.064.222.1.508.127h.127l.381.1.254.032.127.032h.127l.476.064h.381l.127.032H7.907l.254-.032a5.492,5.492,0,0,0,1.016-.1l1.969-.446L12,2.5l1.747-1.146L15.244.08Z" transform="translate(0)" fill="#231915"/>
              </g>
            </g>
          </g>
          <g id="Group_106459" data-name="Group 106459" transform="translate(35.78 76.27)">
            <g id="Group_106454" data-name="Group 106454" transform="translate(6.774 9.29)">
              <g id="Group_106453" data-name="Group 106453" transform="translate(0 0)">
                <path id="Path_76570" data-name="Path 76570" d="M8.932.222,8.245.031Q2-.2,0,1.027a7.555,7.555,0,0,0,6.26.8Z" transform="translate(0)" fill="#684633"/>
              </g>
            </g>
            <g id="Group_106456" data-name="Group 106456" transform="translate(6.316 9.253)">
              <g id="Group_106455" data-name="Group 106455" transform="translate(0 0)">
                <path id="Path_76571" data-name="Path 76571" d="M5.84,1.178l-.8.153H4.809l-.191.038H4.2l-.229.038L2.71,1.369q-.229-.038-.725-.115l-.5-.115L1.412,1.1H1.336l-.153-.076L1.03.987.992.949.916.911.8.872.687.8.61.719.5.681.42.6.381.528.305.49.191.413.114.3H0V.413L.038.49.076.643.114.719.152.834.229.911l.038.115.115.115.076.115.115.115.038.077.229.115.153.115.076.076.267.153.191.076.267.153.344.115.42.076.229.076.267.038h.229l.229.038h.954l.229-.038h.229l.5-.077,1.26-.383L6.756,1.9l.115-.038.076-.038.382-.23.344-.153.305-.23.038-.077L8.092,1.1,8.665.488,8.818.182,8.894.106q.038-.038-.038-.115H8.78L8.4.221,8.245.336,8.016.45,7.863.489,7.749.565,6.794.948,6.6.986l-.076.038-.115.038H6.336L6.26,1.1l-.229.038-.076.038Z" transform="translate(0)" fill="#231915"/>
              </g>
            </g>
            <g id="Group_106458" data-name="Group 106458" transform="translate(0 0)">
              <g id="Group_106457" data-name="Group 106457">
                <path id="Path_76572" data-name="Path 76572" d="M5.439.945A5.252,5.252,0,0,0,4.6.371L3.8.027Q3.721-.05,3.721.065q-.076.077.038.077l.153.153.229.153.076.038.878.841.229.344.115.115L6.2,3.278l.038.191.076.153v.115L6.431,4,6.7,5.382V5.8l.038.23v.842l-.191,1.3v.077l-.076.23V8.6l-.076.23-.038.191-.535,1.416-.115.191-.038.115-.038.038L4.6,12.306l-.229.23-.038.077-.153.115-.115.153-.076.038L3.8,13.11l-.153.115L3.49,13.3l-.573.383-.305.153-.115.077-.153.038-.267.153-2.023.612q-.115,0-.038.077l.076.038.229.038H.588l1.374-.153.763-.191.153-.077.191-.038.84-.383.534-.344.076-.038.115-.077.42-.383.076-.038.764-.842a12.866,12.866,0,0,0,1.031-1.569L7,10.508l.076-.115.191-.574.115-.23.038-.115V9.36l.153-.5a13.9,13.9,0,0,0,.268-1.951L7.8,5.956,7.461,4.119l-.267-.689V3.393H7.156V3.316l-.114-.191-.153-.344-.114-.191L6.7,2.4,6.24,1.786,6.2,1.71l-.076-.038-.076-.153L5.9,1.4Z" fill="#684633"/>
              </g>
            </g>
          </g>
          <g id="Group_106462" data-name="Group 106462" transform="matrix(0.994, 0.114, -0.114, 0.994, 30.257, 50.538)">
            <g id="Group_106461" data-name="Group 106461" transform="translate(0 0)">
              <g id="Group_106460" data-name="Group 106460" transform="translate(0)">
                <path id="Path_76573" data-name="Path 76573" d="M8.816.765A24.949,24.949,0,0,0,2.3,2.159,14.168,14.168,0,0,1,4,0,10.14,10.14,0,0,0,2.08,1.5a10.679,10.679,0,0,0-.724.789L0,4.341l2.14-1.446a16.651,16.651,0,0,1,7.3-1.5,23.343,23.343,0,0,1,6.642.868q2.235.631,2.676.342A1.023,1.023,0,0,0,19.2,1.319l-.031.079a1.279,1.279,0,0,1-.441.631,1.5,1.5,0,0,1-.818.079A17.9,17.9,0,0,1,15.4,1.423,17.9,17.9,0,0,0,8.816.765Z" transform="translate(0.001 1.423)"/>
                <path id="Path_76574" data-name="Path 76574" d="M0,3.581A24.949,24.949,0,0,1,6.518,2.187a17.9,17.9,0,0,1,6.579.658,17.9,17.9,0,0,0,2.518.684,1.5,1.5,0,0,0,.818-.079,1.279,1.279,0,0,0,.441-.631l.031-.079-.031-.079a2.259,2.259,0,0,0-1.228-1.21,16.835,16.835,0,0,0-4.5-1.21A17.164,17.164,0,0,0,3.5.662,10.126,10.126,0,0,0,1.7,1.424,14.168,14.168,0,0,0,0,3.581Z" transform="translate(2.299 0.001)" fill="#140e0e"/>
              </g>
            </g>
          </g>
          <g id="Group_106465" data-name="Group 106465" transform="matrix(-0.977, 0.215, -0.214, -0.977, 71.24, 55.37)">
            <g id="Group_106464" data-name="Group 106464" transform="translate(0 0)">
              <g id="Group_106463" data-name="Group 106463">
                <path id="Path_76575" data-name="Path 76575" d="M6.587,3.213a15.972,15.972,0,0,1-4.87-1.251A12.665,12.665,0,0,0,2.986,3.9,7.954,7.954,0,0,1,1.552,2.553q-.28-.332-.541-.709L0,0,1.6,1.3A10.687,10.687,0,0,0,7.058,2.645a14.71,14.71,0,0,0,4.966-.783q1.671-.569,2-.309a1.018,1.018,0,0,1,.329,1.159l-.023-.071A1.165,1.165,0,0,0,14,2.073.946.946,0,0,0,13.388,2a11.633,11.633,0,0,0-1.883.616A11.243,11.243,0,0,1,6.587,3.213Z"/>
                <path id="Path_76576" data-name="Path 76576" d="M0,0A15.972,15.972,0,0,0,4.87,1.251,11.243,11.243,0,0,0,9.789.656,11.633,11.633,0,0,1,11.672.04a.946.946,0,0,1,.612.071,1.165,1.165,0,0,1,.329.567l.023.071L12.612.82a1.9,1.9,0,0,1-.918,1.088A10.983,10.983,0,0,1,8.328,3,10.747,10.747,0,0,1,2.61,2.624,6.944,6.944,0,0,1,1.27,1.939,12.665,12.665,0,0,1,0,0Z" transform="translate(1.717 1.962)" fill="#140e0e"/>
              </g>
            </g>
          </g>
          <g id="Group_106467" data-name="Group 106467" transform="translate(28.753 74.31)">
            <g id="Group_106466" data-name="Group 106466" transform="translate(0 0)">
              <path id="Path_76577" data-name="Path 76577" d="M3.146,2.364v.789h.787m-.787,0v.789M6.3,3.152,3.146,6.309,0,3.153,3.147,0Zm-3.937,0h.787" transform="translate(0 0)" fill="none" stroke="rgba(0,0,0,0)" stroke-linecap="round" stroke-linejoin="round" stroke-width="0.089"/>
            </g>
          </g>
        </g>
        <g id="Group_106473" data-name="Group 106473" transform="translate(147.106 103.975) rotate(51.499)">
          <g id="Group_106470" data-name="Group 106470" transform="translate(0 0)">
            <g id="Group_106469" data-name="Group 106469">
              <path id="Path_76578" data-name="Path 76578" d="M1.454,17.713l.739,3.047a9.443,9.443,0,0,0,.769,6.566A7.025,7.025,0,0,0,.436,24.093a14.354,14.354,0,0,0,1.018-6.381m12.793-3.453-1.711-2.5a18.922,18.922,0,0,1-.975-2.575,9.976,9.976,0,0,1-.792-3.7,8.247,8.247,0,0,1,.471-2,5.834,5.834,0,0,0,.393-1.444,1,1,0,0,0-.079-.578L12.868,2.65l.053.21.237.079.422,1.182-.053-.026a1.571,1.571,0,0,0-1.234.576,4.574,4.574,0,0,0-.234,2.7q.239,2.469,2.9,6.411l-.492,7.143a9.786,9.786,0,0,1-.217-6.671m-2.858,5.749a4.291,4.291,0,0,1,1,.579q.552.421-1.208.445-10.2-.483-7.043-.927.867-.078,1.734-.129.231-5.3-.137-5.647Q3.2,5.633.02,2.925q1.471-.287,3.286,1.658a65.766,65.766,0,0,0,3.767,9.065l.007,6.3q1.76-.024,3.521.082a7.99,7.99,0,0,1,.23-6.224,57.927,57.927,0,0,1-3.66-7.147,16.122,16.122,0,0,1-.923-2.837q-.317-1.471-.422-1.97v-.21A4.987,4.987,0,0,1,6.349.069a4.258,4.258,0,0,1-.736.052H5.64a2.1,2.1,0,0,1,1.84.343l.105.184L8.031.123,7.952.281,7.821.517a3.876,3.876,0,0,0-.6,1.339,1.817,1.817,0,0,0-.078.525q-.053-.184-.132-.42a3.549,3.549,0,0,0,.158.578A1.955,1.955,0,0,0,7.3,3.09a.076.076,0,0,1,.026.053,36.275,36.275,0,0,0,2.662,7.566,13.665,13.665,0,0,0,2.447,3.207,6.339,6.339,0,0,0-1.074,2.678,11.749,11.749,0,0,0-.47,2.573.872.872,0,0,0,.5.841M5.628,38.7q-3-7.646,8.364-17.036Q5.883,31.741,5.628,38.7Z" transform="translate(13.947 0.094)" fill="#684633"/>
              <path id="Path_76579" data-name="Path 76579" d="M24.548,20.1q-1.761-.107-3.521-.082l-.007-6.3A65.766,65.766,0,0,1,17.253,4.65Q17.38.711,18.694.266l.867-.078A4.258,4.258,0,0,0,20.3.136a4.987,4.987,0,0,0-.524,1.575q0,.131,0,.21.106.5.422,1.97a16.122,16.122,0,0,0,.923,2.837,57.926,57.926,0,0,0,3.66,7.147,7.99,7.99,0,0,0-.23,6.224m1.787.553a4.291,4.291,0,0,0-1-.579.872.872,0,0,1-.5-.841,11.749,11.749,0,0,1,.47-2.573,6.338,6.338,0,0,1,1.074-2.678,13.665,13.665,0,0,1-2.447-3.207A36.274,36.274,0,0,1,21.272,3.21a.076.076,0,0,0-.026-.053,1.955,1.955,0,0,1-.132-.552,3.549,3.549,0,0,1-.158-.578q.079.236.132.42a1.817,1.817,0,0,1,.078-.525,3.876,3.876,0,0,1,.6-1.339L21.9.348q.236-.026.447-.052A3.643,3.643,0,0,1,25.5,1.534a1,1,0,0,1,.079.578,5.834,5.834,0,0,1-.393,1.444,8.247,8.247,0,0,0-.471,2,9.976,9.976,0,0,0,.792,3.7,18.923,18.923,0,0,0,.975,2.575l1.711,2.5A9.786,9.786,0,0,0,28.411,21l.492-7.143q-2.658-3.942-2.9-6.411a4.574,4.574,0,0,1,.234-2.7,1.571,1.571,0,0,1,1.234-.576l.053.026a2.068,2.068,0,0,1,1.6.369Q30.446,7,31.762,9.6q.106.394.237.788a14.751,14.751,0,0,1,.924,4.334l.008,7.459Q28.039,42.244,20.105,43.6q-8.935-.955-11.178-10.6a22.539,22.539,0,0,0-3.4-7.935,14.111,14.111,0,0,0-2.42-2.655A12.506,12.506,0,0,0,.138,20.5a7.264,7.264,0,0,1,1.784-2.519A4.42,4.42,0,0,1,3.1,17.242a4.731,4.731,0,0,1,1-.314,3.317,3.317,0,0,1,2.234.317A10.155,10.155,0,0,1,8.571,18.8a5.328,5.328,0,0,1,1.447,1.84,5.874,5.874,0,0,0,1.552,1.893,7.985,7.985,0,0,1,2.813,1.631,7.025,7.025,0,0,1,2.526,3.233,9.443,9.443,0,0,1-.769-6.566L15.4,17.78q-.053-.6-.133-1.234l0-3.467q-4.841-6.256-2.9-8.906a2.765,2.765,0,0,1,1.6-1.18Q17.149,5.7,19.681,14.4q.368.342.137,5.647-.867.052-1.734.129-3.153.443,7.043.927,1.76-.024,1.208-.445m1.6,1.078q-11.367,9.39-8.364,17.036Q19.83,31.809,27.939,21.732Z" transform="translate(0 0.026)" fill="#80553c"/>
            </g>
          </g>
          <g id="Group_106472" data-name="Group 106472" transform="translate(16.504 34.282)">
            <g id="Group_106471" data-name="Group 106471" transform="translate(0 0)">
              <path id="Path_76580" data-name="Path 76580" d="M3.175,3.961V3.173h.788m-.788,0V2.385m3.154.791L3.171.021.021,3.17,3.178,6.324Zm-3.941,0h.788" transform="translate(0 0)" fill="none" stroke="rgba(0,0,0,0)" stroke-linecap="round" stroke-linejoin="round" stroke-width="0.089"/>
            </g>
          </g>
        </g>
        <g id="Group_106484" data-name="Group 106484" transform="translate(177.811 90.576) rotate(113.119)">
          <g id="Group_106475" data-name="Group 106475" transform="translate(30.208 74.279)">
            <g id="Group_106474" data-name="Group 106474" transform="translate(0 0)">
              <path id="Path_76581" data-name="Path 76581" d="M.482,7.139a4.163,4.163,0,0,1,2.967-.36Q2.244,4.413,3.022.236A2.888,2.888,0,0,0,.562.3,11.1,11.1,0,0,0,.482,7.139Z" fill="rgba(34,129,224,0.8)"/>
            </g>
          </g>
          <g id="Group_106477" data-name="Group 106477" transform="translate(0 0)">
            <g id="Group_106476" data-name="Group 106476">
              <path id="Path_76582" data-name="Path 76582" d="M60.762,36.127a28.917,28.917,0,0,0,.791-9.939A31.159,31.159,0,0,0,58.23,14.072a24.4,24.4,0,0,0-9.7-10.161q-7.4-4.23-18.322-4.058Q19.578,0,12.41,4.6A25.469,25.469,0,0,0,3.09,15.336a33.957,33.957,0,0,0-3.141,12.4,29.542,29.542,0,0,0,.73,9.751A69.748,69.748,0,0,0,6.066,51.125a71.123,71.123,0,0,0,7.819,12.091,43.336,43.336,0,0,0,9.022,8.65q4.836,3.309,9,3.328a14.184,14.184,0,0,0,8.255-3.029,36.024,36.024,0,0,0,7.969-8.329A73.261,73.261,0,0,0,55.2,51.414,105.362,105.362,0,0,0,60.762,36.127Z" fill="url(#radial-gradient)"/>
            </g>
          </g>
          <g id="Group_106479" data-name="Group 106479" transform="translate(6.77 10.626)">
            <g id="Group_106478" data-name="Group 106478" transform="translate(0 0)">
              <path id="Path_76583" data-name="Path 76583" d="M.376,22.737l7.409,1.952A53.634,53.634,0,0,1,18.738,4.127Q11.472.18,6.522-.032-1.844,11.044.376,22.737Z" transform="translate(0)" fill="url(#radial-gradient-2)"/>
            </g>
          </g>
          <g id="Group_106481" data-name="Group 106481" transform="translate(33.812 38.257)">
            <g id="Group_106480" data-name="Group 106480" transform="translate(0 0)">
              <path id="Path_76584" data-name="Path 76584" d="M6.006-.03a90.97,90.97,0,0,1-1.85,11.54A35.766,35.766,0,0,1,.294,21.719a2.251,2.251,0,0,0-.24,2.129,3.051,3.051,0,0,0,1.535,1.465,5.575,5.575,0,0,0,2.4.564,4.3,4.3,0,0,0,2.356-.56,24.208,24.208,0,0,0,9.1-9.565A35.964,35.964,0,0,0,19.253,1.665Z" fill="url(#radial-gradient-3)"/>
            </g>
          </g>
          <g id="Group_106483" data-name="Group 106483" transform="translate(29.826 36.594)">
            <g id="Group_106482" data-name="Group 106482" transform="translate(0 0)">
              <path id="Path_76585" data-name="Path 76585" d="M.89.666V.889h.224M.89.889v.223M1.785.888l-.9.894L0,.89.891,0ZM.667.889H.89" transform="translate(0 0)" fill="none" stroke="rgba(0,0,0,0)" stroke-linecap="round" stroke-linejoin="round" stroke-width="0.025"/>
            </g>
          </g>
        </g>
        <g id="Group_106493" data-name="Group 106493" transform="matrix(-0.818, -0.576, 0.576, -0.818, 89.27, 116.605)">
          <g id="Group_106486" data-name="Group 106486" transform="translate(0.207 0.226)">
            <g id="Group_106485" data-name="Group 106485" transform="translate(0 0)">
              <path id="Path_76586" data-name="Path 76586" d="M7.048,14.995l.21.237a2.837,2.837,0,0,0,1.049-1.024,5.324,5.324,0,0,0,.5-3.284,11.661,11.661,0,0,1-.549,2.233,3.735,3.735,0,0,1-1.206,1.838m-2.1-2.971q-.053-.368-.765-3.5.08,1.393.058,5.124-.049,3.7-4.086,9.56a1.651,1.651,0,0,0,.918-.577,6.439,6.439,0,0,0,.734-.919q.341-.551.734-1.26.6-1.077.97-1.786.445-.867.707-1.471.131-.341.209-.6l.288-.841a9.168,9.168,0,0,0,.233-3.731M16.433.684Q16.4.568,16.354.448a3.454,3.454,0,0,0-.105-.342l.5,3.469q.133,2.05.293,4.309a5.207,5.207,0,0,1-.653,3.336,3.478,3.478,0,0,1-1.705,1.365,3.922,3.922,0,0,0-.056-3.731,6.313,6.313,0,0,1-.443,3.547,6.886,6.886,0,0,1-1,1.365,7.746,7.746,0,0,0,2.2-1.049,5.222,5.222,0,0,0,1.862-2.074,6.955,6.955,0,0,0,.521-4.02q-.026-.158-.053-.342A33.613,33.613,0,0,0,16.433.684Z" transform="translate(6.471 16.322)" fill="#684633"/>
              <path id="Path_76587" data-name="Path 76587" d="M11.019.362q-.079.026.131-.289Q5.087,2.011,2.517,4.793a2.7,2.7,0,0,0-.288.341A9.184,9.184,0,0,0,.185,9.889,16.506,16.506,0,0,0,.8,16.432a36.948,36.948,0,0,0,2.632,6.2q.105.184.21.394.579,1.13,1.1,2.1.289.526.552,1l.869,2.76a9.564,9.564,0,0,1,.005,5.281q-1.283,3.7-.257,5.018a.762.762,0,0,0,.709.342q4.038-5.855,4.086-9.56.022-3.731-.058-5.124.712,3.127.765,3.5a9.168,9.168,0,0,1-.233,3.731,1.4,1.4,0,0,0,.709.132,3.011,3.011,0,0,0,1.627-.892,3.735,3.735,0,0,0,1.206-1.838,11.66,11.66,0,0,0,.549-2.233,5.324,5.324,0,0,1-.5,3.284,2.837,2.837,0,0,1-1.049,1.024,2.523,2.523,0,0,0,2.862.4,8.3,8.3,0,0,0,3.07-1.862,6.886,6.886,0,0,0,1-1.365,6.313,6.313,0,0,0,.443-3.547,3.922,3.922,0,0,1,.056,3.731,3.478,3.478,0,0,0,1.705-1.365,5.207,5.207,0,0,0,.653-3.336q-.16-2.26-.293-4.309l-.5-3.469a3.454,3.454,0,0,1,.105.342,28.941,28.941,0,0,0-1.264-3.548,24.391,24.391,0,0,0-1.42-2.445A61.72,61.72,0,0,0,15.908,5.2,35.014,35.014,0,0,0,12.018.914,3.22,3.22,0,0,0,11.019.362Z" transform="translate(0 0)" fill="#80553c"/>
            </g>
          </g>
          <g id="Group_106488" data-name="Group 106488" transform="translate(0 0)">
            <g id="Group_106487" data-name="Group 106487">
              <path id="Path_76588" data-name="Path 76588" d="M6.371,28.3l-.158-.289-.026-.079-.053-.053-.079-.131Q6,27.7,6,27.724q-.079,0-.026.053l.079.237.026.053.211.578.026.158.053.158.185.894L6.768,32.3v.289l-.942,3.389-.183,1.208-.026.6.053.631.079.394v.053l.053.158.132.289a.821.821,0,0,0,.21.289l.289.21.21.053h.079l.052-.026h.053l.315-.131.262-.184.315-.315.446-.6v-.079H8.088l-.21.236-.21.184a2.659,2.659,0,0,1-.42.367l-.236.157-.236.079H6.671L6.566,39.5a.4.4,0,0,1-.158-.132l-.131-.21-.132-.394v-.079l-.026-.053-.027-.263a3.182,3.182,0,0,1,0-.578l.052-.552,1.124-4.65-.053-.631V31.8L6.95,30.09,6.371,28.3M2.357,5.57l.131-.158q.052-.026,0-.079-.026-.026-.079,0L2.2,5.6l-.1.1-.21.263q-.367.5-.524.761l-.367.657L.941,7.54l-.157.289L.338,9.221l-.026.21L.234,9.72v.105l-.052.184v.105l-.026.105-.026.21v.21L.1,10.744v.315l-.026.21v.893l.026.21v.236l.634,3.522L2.135,20l1.684,3.26q0,.079.053.026.079,0,.026-.053L1.475,16.842.869,14.292Q.71,13.425.631,12.558L.6,12.348v-.21l-.026-.21V10.771L.6,10.666v-.184l.026-.21v-.184l.026-.21L.68,9.8V9.694L.733,9.51l.183-.893.655-1.76q.419-.709.472-.788l.079-.158a.284.284,0,0,0,.1-.131L2.3,5.676l.052-.105m9.264-4.51.079.079.578.447.079.105.105.079,2.313,2.315,4.784,5.733q.053.053.079,0V9.74L16.614,5.454,13.827,2.4q-.6-.552-.893-.763l-.21-.184L11.331.535,10.569.192,10.28.113,10.123.087Q10.07.034,10.07.113q-.052.052.026.053l.131.079.079.026.105.053.079.053.131.053L11.2.771l.315.237.105.053m2.158,30.508v.053l.079.079a.964.964,0,0,0,.184.158l.053.079.368.263.342.184.236.079.053.026.341.105a3.446,3.446,0,0,0,.709.027,2.4,2.4,0,0,0,.761-.131,3.821,3.821,0,0,0,.735-.262l1.259-.84.262-.236,1.233-1.391.026-.079.052-.052.1-.158q.026-.026-.026-.079H20.5l-.079.052-.656.6-.1.079-.184.184-.735.6L18.582,31l-.708.5-.052.026-.026.026-.079.026-.157.1-.157.079-.814.314-.158.026-.157.052-.788.025-.289-.053h-.053l-.079-.026-.053-.026h-.079l-.131-.053h-.026l-.026-.026H14.7l-.394-.184-.079-.053-.079-.026-.079-.053h-.026l-.026-.026-.158-.105Q13.831,31.516,13.778,31.568Z" fill="#684633"/>
            </g>
          </g>
          <g id="Group_106490" data-name="Group 106490" transform="translate(11.196 30.758)">
            <g id="Group_106489" data-name="Group 106489" transform="translate(0 0)">
              <path id="Path_76589" data-name="Path 76589" d="M3.474.023H3.421L3.342.1H3.316L3.29.128l-1,.761L2.214.915l-.367.236-.63.236-.289.052h-.5L.324,1.412H.245L.193,1.386H.062q-.053-.053-.052.026l.026.053.026.026.184.132.42.184H.692l.079.026H.929l.184.026L1.3,1.833H1.4l.289-.079A.85.85,0,0,0,2.084,1.6l.5-.315.131-.131L2.792,1.1l.052-.079L3.081.784,3.159.653l.157-.21.1-.184L3.448.233V.18L3.474.128,3.5.1Q3.526.075,3.474.023Z" fill="#684633"/>
            </g>
          </g>
          <g id="Group_106492" data-name="Group 106492" transform="translate(5.54 3.113)">
            <g id="Group_106491" data-name="Group 106491" transform="translate(0 0)">
              <path id="Path_76590" data-name="Path 76590" d="M3.171,2.385v.788h.788m-.788,0v.788m3.15-.785L3.175,6.327.021,3.171,3.168.021Zm-3.938,0h.788" transform="translate(0 0)" fill="none" stroke="rgba(0,0,0,0)" stroke-linecap="round" stroke-linejoin="round" stroke-width="0.089"/>
            </g>
          </g>
        </g>
      </g>
    </g>
  </g>
</svg>
