<svg xmlns="http://www.w3.org/2000/svg" xmlns:xlink="http://www.w3.org/1999/xlink" width="375" height="270" viewBox="0 0 375 270">
  <defs>
    <clipPath id="clip-path">
      <rect id="Rectangle_8680" data-name="Rectangle 8680" width="375" height="270" transform="translate(14792 -12887)" fill="#fff" stroke="#707070" stroke-width="1" opacity="0.59"/>
    </clipPath>
    <clipPath id="clip-path-2">
      <rect id="Rectangle_8682" data-name="Rectangle 8682" width="189" height="221" transform="translate(87 114)" fill="#fff"/>
    </clipPath>
    <linearGradient id="linear-gradient" x1="0.543" y1="0.993" x2="0.511" y2="0.105" gradientUnits="objectBoundingBox">
      <stop offset="0" stop-color="#4d4343"/>
      <stop offset="1" stop-color="#252020"/>
    </linearGradient>
  </defs>
  <g id="Mask_Group_16641" data-name="Mask Group 16641" transform="translate(-14792 12887)" clip-path="url(#clip-path)">
    <g id="Mask_Group_16626" data-name="Mask Group 16626" transform="translate(14792 -12987)" clip-path="url(#clip-path-2)">
      <g id="male_teen_DS_2" data-name="male teen DS 2" transform="translate(94 124.812)">
        <g id="Group_105317" data-name="Group 105317" transform="matrix(-0.83, 0.558, -0.558, -0.83, 168, 184.718)">
          <g id="Group_105306" data-name="Group 105306" transform="translate(0.026 0)">
            <g id="Group_105305" data-name="Group 105305" transform="translate(0 0)">
              <path id="Path_76048" data-name="Path 76048" d="M28.441,40.386,8.584,44.73Q4.374,25.777.44,12.178H.465A9.652,9.652,0,0,1,0,9.153,8.8,8.8,0,0,1,2.663,2.689,8.843,8.843,0,0,1,9.153,0a8.758,8.758,0,0,1,6.464,2.689,8.893,8.893,0,0,1,2.146,3.284A174.316,174.316,0,0,1,28.441,40.386Z" transform="translate(0)" fill="#80553c"/>
            </g>
          </g>
          <g id="Group_105309" data-name="Group 105309" transform="translate(6.335 32.484)">
            <g id="Group_105308" data-name="Group 105308" transform="translate(0 0)">
              <g id="Group_105307" data-name="Group 105307">
                <path id="Path_76049" data-name="Path 76049" d="M2.379,11.392,0,2.24Q11.571-1.534,20.71,1.05l1.862,8.17Z" fill="#684633"/>
              </g>
            </g>
          </g>
          <g id="Group_105311" data-name="Group 105311" transform="translate(0 34.205)">
            <g id="Group_105310" data-name="Group 105310" transform="translate(0 0)">
              <path id="Path_76050" data-name="Path 76050" d="M19.65,52.618a14.612,14.612,0,0,1-4.266-8.2h-.026Q11.877,27.7,0,7.991,11.169-4.7,34.439,2.769A104.306,104.306,0,0,1,45.35,39.276a16.028,16.028,0,0,1,.207,2.611,14.622,14.622,0,0,1-4.447,10.73,14.622,14.622,0,0,1-10.73,4.447A14.622,14.622,0,0,1,19.65,52.618Z" fill="#7a2230"/>
            </g>
          </g>
          <g id="Group_105314" data-name="Group 105314" transform="translate(0.698 34.189)">
            <g id="Group_105313" data-name="Group 105313" transform="translate(0 0)">
              <g id="Group_105312" data-name="Group 105312">
                <path id="Path_76051" data-name="Path 76051" d="M33.638,2.862q7.467,14.7,9.489,26.217t1.319,17.168Q40.179,14.16,30.9,5.861,21.641-2.465,0,7.309,10.935-4.573,33.638,2.862Z" fill="#4b0f18"/>
              </g>
            </g>
          </g>
          <g id="Group_105316" data-name="Group 105316" transform="translate(27.277 72.99)">
            <g id="Group_105315" data-name="Group 105315" transform="translate(0 0)">
              <path id="Path_76052" data-name="Path 76052" d="M3.1,3.878V3.1h.776M3.1,3.1V2.327m3.1.776L3.1,0,0,3.1l3.1,3.1Zm-3.878,0H3.1" fill="none" stroke="rgba(0,0,0,0)" stroke-linecap="round" stroke-linejoin="round" stroke-width="0.083"/>
            </g>
          </g>
        </g>
        <g id="Group_105326" data-name="Group 105326" transform="matrix(1, -0.031, 0.031, 1, 130.83, 114.725)">
          <g id="Group_105319" data-name="Group 105319" transform="matrix(0.978, -0.208, 0.208, 0.978, 0, 7.901)">
            <g id="Group_105318" data-name="Group 105318" transform="translate(0 0)">
              <path id="Path_76053" data-name="Path 76053" d="M20.384,59.858a37.643,37.643,0,0,1-2.922,7.6L.009,62.625q-.026-1.965.026-3.93A367.1,367.1,0,0,1,3.6,15.255,123.838,123.838,0,0,0,4.844.052L17.229,0a125.857,125.857,0,0,0,.724,19.832q1.116,8.658,2.456,21.952T20.384,59.858Z" fill="#80553c"/>
            </g>
          </g>
          <g id="Group_105321" data-name="Group 105321" transform="translate(4.682 0)">
            <g id="Group_105320" data-name="Group 105320" transform="translate(0 0)">
              <path id="Path_76054" data-name="Path 76054" d="M12.418,6.209A5.981,5.981,0,0,1,10.6,10.6a5.981,5.981,0,0,1-4.388,1.821A5.981,5.981,0,0,1,1.821,10.6,5.981,5.981,0,0,1,0,6.209,5.981,5.981,0,0,1,1.821,1.821,5.981,5.981,0,0,1,6.209,0,5.981,5.981,0,0,1,10.6,1.821,5.981,5.981,0,0,1,12.418,6.209Z" transform="translate(0)" fill="#80553c"/>
            </g>
          </g>
          <g id="Group_105323" data-name="Group 105323" transform="translate(5.619 12.013)">
            <g id="Group_105322" data-name="Group 105322" transform="translate(0 0)">
              <path id="Path_76055" data-name="Path 76055" d="M6.407,50.912l.31,2.275q.052.052-.026.052-.052.052-.052-.026L3.951,38.785,2.322,26.736.021.052Q-.031,0,.047,0L.1.026,6.33,50.343Q6.381,50.731,6.407,50.912Z" transform="translate(0 0)" fill="#684633"/>
            </g>
          </g>
          <g id="Group_105325" data-name="Group 105325" transform="translate(19.007 64.994)">
            <g id="Group_105324" data-name="Group 105324" transform="translate(0 0)">
              <path id="Path_76056" data-name="Path 76056" d="M3.1,3.878V3.1h.776M3.1,3.1V2.327m3.1.776L3.1,0,0,3.1l3.1,3.1Zm-3.878,0H3.1" transform="translate(0 0)" fill="none" stroke="rgba(0,0,0,0)" stroke-linecap="round" stroke-linejoin="round" stroke-width="0.083"/>
            </g>
          </g>
        </g>
        <g id="Group_105331" data-name="Group 105331" transform="translate(129.85 84.047) rotate(-2.104)">
          <g id="Group_105328" data-name="Group 105328" transform="translate(0 0)">
            <g id="Group_105327" data-name="Group 105327">
              <path id="Path_76057" data-name="Path 76057" d="M7.087,8.445a4.742,4.742,0,0,0-.479,1.711,7.164,7.164,0,0,0,.046,1.962q.182,1.3.73,4.129A13.589,13.589,0,0,1,.7,19.509Q.585,13.4.654,11.661q.046-.776.091-1.506L.836,8.878A10.05,10.05,0,0,1,1.5,5.844,36.825,36.825,0,0,1,4.007.94,1.624,1.624,0,0,1,5.6,0,2.451,2.451,0,0,1,7.36,1.122a4.95,4.95,0,0,1,.844,2.9A10.014,10.014,0,0,1,7.087,8.445m10.334,7.733A2.96,2.96,0,0,1,18.675,18q.182,2.715-1.027,3.764a15.7,15.7,0,0,0-6.821-7.14q3.1-1.437,6.593,1.551m2.03,14.691a3.53,3.53,0,0,0,.593.274l-.228.981q-2.874,11-11.475,9.672Q-2.335,41.705.654,21.562l6.958-3.353,3.171-1.528a13.8,13.8,0,0,1,5.635,5.749q-.684,5.338-9.946-1.049,5.954,9.9,4.061,16.356Q13.7,28.018,9.14,23.912a11.566,11.566,0,0,0,3.855,2.053q1.985,3.582,4.745,3.376l.456-.114-.182.114a3.87,3.87,0,0,0,1.437,1.528M24.7,26.238a.506.506,0,0,1-.023.16A11.9,11.9,0,0,1,23.6,28.109a5.837,5.837,0,0,1-1.665,1.506,2.6,2.6,0,0,1-1.072.342q-.3-.023-.57-.023a11.211,11.211,0,0,1-1.506-.433.723.723,0,0,1-.274-.205.338.338,0,0,1-.091-.16q.3-.137.593-.251a1.6,1.6,0,0,1,.228-.114,5.95,5.95,0,0,0,1.118-.57q.137-.114.251-.205A13.033,13.033,0,0,0,22.143,26.6a5.316,5.316,0,0,0,1.095-1.825,2.774,2.774,0,0,0,.137-.707A4.41,4.41,0,0,0,23.4,23.3a5.18,5.18,0,0,0-.114-1.072,2.5,2.5,0,0,1-.046-.3q0-.046-.365-.3a3.813,3.813,0,0,1,.046,1.665,6.29,6.29,0,0,1-.616,1.871,11.514,11.514,0,0,1-.684,1.118,7.315,7.315,0,0,1-.639.73,4.3,4.3,0,0,1-.707.5,2.886,2.886,0,0,1-.844.274,5.218,5.218,0,0,1-.821.16,4.5,4.5,0,0,1-1.323-.16A7.366,7.366,0,0,1,14.432,26.1a2.972,2.972,0,0,0,2.852-1.848l.251-.821.342-.137q2.1-1,.8-5.292,3.582,1.277,4.2,3.559.57.3.707.365a2.24,2.24,0,0,1,.388.274,2.351,2.351,0,0,0,.251.3q.16.319.274.616a.891.891,0,0,1,.068.182,4.449,4.449,0,0,1,.274,1.893Z" fill="#80553c"/>
              <path id="Path_76058" data-name="Path 76058" d="M6.73,1.62q.114.958.228,1.962L0,6.935Q.068,5.726.046,4.882A13.589,13.589,0,0,0,6.73,1.62m12.661,14.9a3.531,3.531,0,0,1-.593-.274,3.87,3.87,0,0,1-1.437-1.528l.182-.114-.456.114q-2.76.205-4.745-3.376A11.566,11.566,0,0,1,8.486,9.285q4.562,4.106,1.392,13.824,1.893-6.456-4.061-16.356Q15.079,13.14,15.763,7.8a13.8,13.8,0,0,0-5.635-5.749L6.958,3.582A7.252,7.252,0,0,1,10.174,0,15.7,15.7,0,0,1,17,7.14Q18.2,6.091,18.022,3.376q1.3,4.289-.8,5.292l-.342.137-.251.821a2.972,2.972,0,0,1-2.852,1.848,7.367,7.367,0,0,0,2.852,1.688,4.5,4.5,0,0,0,1.323.16,5.218,5.218,0,0,0,.821-.16,2.885,2.885,0,0,0,.844-.274,4.3,4.3,0,0,0,.707-.5,7.315,7.315,0,0,0,.639-.73,11.514,11.514,0,0,0,.684-1.118,6.29,6.29,0,0,0,.616-1.871A3.813,3.813,0,0,0,22.219,7q.365.251.365.3a2.5,2.5,0,0,0,.046.3,5.18,5.18,0,0,1,.114,1.072,4.41,4.41,0,0,1-.023.776,2.774,2.774,0,0,1-.137.707,5.316,5.316,0,0,1-1.095,1.825,13.032,13.032,0,0,1-1.528,1.392q-.114.091-.251.205a5.95,5.95,0,0,1-1.118.57,1.6,1.6,0,0,0-.228.114q-.3.114-.593.251a.338.338,0,0,0,.091.16.723.723,0,0,0,.274.205,11.209,11.209,0,0,0,1.506.433q.274,0,.57.023a2.6,2.6,0,0,0,1.072-.342,5.837,5.837,0,0,0,1.665-1.506,11.9,11.9,0,0,0,1.072-1.711,11.616,11.616,0,0,1-.433,1.665,4.474,4.474,0,0,1-1.072,1.779,5.567,5.567,0,0,1-2.372,1.506Z" transform="translate(0.654 14.627)" fill="#684633"/>
            </g>
          </g>
          <g id="Group_105330" data-name="Group 105330" transform="translate(8.267 32.692)">
            <g id="Group_105329" data-name="Group 105329" transform="translate(0 0)">
              <path id="Path_76059" data-name="Path 76059" d="M3.1,3.878V3.1h.776M3.1,3.1V2.327m3.1.776L3.1,0,0,3.1l3.1,3.1Zm-3.878,0H3.1" transform="translate(0 0)" fill="none" stroke="rgba(0,0,0,0)" stroke-linecap="round" stroke-linejoin="round" stroke-width="0.083"/>
            </g>
          </g>
        </g>
        <g id="Group_105341" data-name="Group 105341" transform="matrix(0.999, -0.045, 0.045, 0.999, 49.88, 164.868)">
          <g id="Group_105333" data-name="Group 105333" transform="translate(0 32.477)">
            <g id="Group_105332" data-name="Group 105332" transform="translate(0 0)">
              <path id="Path_76060" data-name="Path 76060" d="M79.021,55.025A333.726,333.726,0,0,0,75.5,0L8.274,2.9A367.273,367.273,0,0,1,0,55.645Q37.153,69.911,79.021,55.025Z" fill="#ede6de"/>
            </g>
          </g>
          <g id="Group_105335" data-name="Group 105335" transform="translate(8.062 2.075)">
            <g id="Group_105334" data-name="Group 105334" transform="translate(0 0)">
              <path id="Path_76061" data-name="Path 76061" d="M0,33.993A32.757,32.757,0,0,0,9.949,58.036a32.757,32.757,0,0,0,24.044,9.949,32.757,32.757,0,0,0,24.044-9.949,32.757,32.757,0,0,0,9.949-24.044A32.757,32.757,0,0,0,58.036,9.949,32.757,32.757,0,0,0,33.993,0,32.757,32.757,0,0,0,9.949,9.949,32.757,32.757,0,0,0,0,33.993Z" fill="#ede6de"/>
            </g>
          </g>
          <g id="Group_105338" data-name="Group 105338" transform="translate(0.052 0)">
            <g id="Group_105337" data-name="Group 105337" transform="translate(0 0)">
              <g id="Group_105336" data-name="Group 105336">
                <path id="Path_76062" data-name="Path 76062" d="M40.674,9q.8-.026,1.629-.026.827.1,1.655.233a4.451,4.451,0,0,1,.491-.026,36.752,36.752,0,0,1-.465-7.007,8.584,8.584,0,0,1,.129-1.164A9.492,9.492,0,0,1,44.32,0l-.465,1.474A35.05,35.05,0,0,0,22.91,6.413l-6.749,7.033a55.879,55.879,0,0,0-5.947,10.265A47.975,47.975,0,0,0,8.171,33.718,421.489,421.489,0,0,1,0,88.3a44.041,44.041,0,0,0,6.93,2.25q4.257,1.06,6.7,1.784A35.636,35.636,0,0,0,19.7,93.527q3.639.472,7.525,1.189a38.034,38.034,0,0,0,7.861.672q4.008-.073,5.689-.129t6.878-.388a66.678,66.678,0,0,0,9.49-1.215q4.175-.724,7.163-1.5,3.017-.776,3.723-.983.7-.181,1.4-.388.7-.233,1.4-.44-.543.1-1.06.233-4.241.827-8.636,1.319-3.129.362-6.309.672a112.744,112.744,0,0,1-11.558.388,61.721,61.721,0,0,1-7.163-.569,58.462,58.462,0,0,1-10.084-2.3,22.673,22.673,0,0,1-7.059-3.9A13.6,13.6,0,0,1,14.3,78.917a36.359,36.359,0,0,1-1.008-5.87,88,88,0,0,1-.336-10.653q.129-4.008.388-8.068.155-2.767.44-5.534.339-3.1.595-7.4.276-4.292,1.112-9.386A30.892,30.892,0,0,1,18.721,22.5a20.723,20.723,0,0,1,6.645-7.318A42.535,42.535,0,0,1,31.52,11.61,27.993,27.993,0,0,1,40.674,9Z" fill="#dad0c5"/>
              </g>
            </g>
          </g>
          <g id="Group_105340" data-name="Group 105340" transform="translate(36.407 92.156)">
            <g id="Group_105339" data-name="Group 105339" transform="translate(0 0)">
              <path id="Path_76063" data-name="Path 76063" d="M3.1,2.327V3.1h.776M3.1,3.1v.776m3.1-.776-3.1,3.1L0,3.1,3.1,0Zm-3.879,0H3.1" transform="translate(0 0)" fill="none" stroke="rgba(0,0,0,0)" stroke-linecap="round" stroke-linejoin="round" stroke-width="0.083"/>
            </g>
          </g>
        </g>
        <g id="Group_105366" data-name="Group 105366" transform="translate(32.446 126.114) rotate(-9)">
          <g id="Group_105343" data-name="Group 105343" transform="translate(29.347 0)">
            <g id="Group_105342" data-name="Group 105342" transform="translate(0 0)">
              <path id="Path_76064" data-name="Path 76064" d="M31.287,18.567l2.56-12.256a29.22,29.22,0,0,0-8.429-4.835A26.6,26.6,0,0,0,16.91,0,28.523,28.523,0,0,0,.595,4.914L0,18.567Z" fill="#80553c"/>
            </g>
          </g>
          <g id="Group_105345" data-name="Group 105345" transform="translate(8.145 3.027)">
            <g id="Group_105344" data-name="Group 105344" transform="translate(0 0)">
              <path id="Path_76065" data-name="Path 76065" d="M72.4,20.453a18.011,18.011,0,0,0-2.741-9.05q-2.495-3.947-8.533-6.361a52.62,52.62,0,0,1-8.274-3.879q-2.11,5.611-9,9.619-6.86,4.034-12.023-1.241Q26.687,4.292,25.391,3.18A11.036,11.036,0,0,1,22.987,0a42.95,42.95,0,0,0-5.43,1.5q-4.55,1.429-9.1,2.922A53.978,53.978,0,0,0,0,8.067L6.826,79.225q2.689-3.672,5.637-7.111Q15.1,69.037,18,66.141l1.086-1.086,1.086-1.034q2.094-1.913,4.344-3.646a43.561,43.561,0,0,1,8.662-5.094,27.5,27.5,0,0,1,8.507-2.172,26.028,26.028,0,0,1,8.4.75,31.694,31.694,0,0,1,8.248,3.62,38.315,38.315,0,0,1,5.145,3.775,54.982,54.982,0,0,1,4.551,4.4,68.42,68.42,0,0,1,6.361,7.886Z" transform="translate(0)" fill="#ede6de"/>
            </g>
          </g>
          <g id="Group_105347" data-name="Group 105347" transform="translate(0.259 9.207)">
            <g id="Group_105346" data-name="Group 105346" transform="translate(0 0)">
              <path id="Path_76066" data-name="Path 76066" d="M30.356,15.178A14.623,14.623,0,0,0,25.908,4.447,14.623,14.623,0,0,0,15.178,0,14.623,14.623,0,0,0,4.447,4.447,14.623,14.623,0,0,0,0,15.178,14.623,14.623,0,0,0,4.447,25.908a14.623,14.623,0,0,0,10.731,4.447,14.623,14.623,0,0,0,10.731-4.447A14.623,14.623,0,0,0,30.356,15.178Z" transform="translate(0 0)" fill="#ede6de"/>
            </g>
          </g>
          <g id="Group_105350" data-name="Group 105350" transform="translate(10.679 36.692)">
            <g id="Group_105349" data-name="Group 105349" transform="translate(0 0)">
              <g id="Group_105348" data-name="Group 105348" transform="translate(0)">
                <path id="Path_76067" data-name="Path 76067" d="M13.5,0Q.026,2.2,0,2.172L4.24,45.818l9.076-11.17Z" fill="#dad0c5"/>
              </g>
            </g>
          </g>
          <g id="Group_105355" data-name="Group 105355" transform="translate(0 3.415)">
            <g id="Group_105352" data-name="Group 105352" transform="translate(0 0)">
              <g id="Group_105351" data-name="Group 105351">
                <path id="Path_76068" data-name="Path 76068" d="M31.028,21.2A74.38,74.38,0,0,1,35.837,5.43L29.787,0A133.256,133.256,0,0,0,10.343,6.438Q.5,10.442,0,21.875,1.376,30.56,7.912,34.208l.491.259q.329.183.646.336.071.031.129.052l.44.181a14,14,0,0,0,4.266,1.034,15.434,15.434,0,0,0,1.551.078A14.623,14.623,0,0,0,26.167,31.7a14.272,14.272,0,0,0,1.086-1.215Q29.976,27.533,31.028,21.2Z" fill="#7a2230"/>
              </g>
            </g>
            <g id="Group_105354" data-name="Group 105354" transform="translate(59.419 1.034)">
              <g id="Group_105353" data-name="Group 105353" transform="translate(0 0)">
                <path id="Path_76069" data-name="Path 76069" d="M10.394,9.515q4.948,3.928,8.352,12.023,1.587,3.744,2.767,7.111a69.657,69.657,0,0,1-.1-8.171,20.741,20.741,0,0,0-.44-5.585q-.212-2.581-3.051-5.611a19.4,19.4,0,0,0-6.49-4.964A52.543,52.543,0,0,1,2.431,0L0,3.93A31.007,31.007,0,0,1,10.394,9.515Z" transform="translate(0)" fill="#7a2230"/>
              </g>
            </g>
          </g>
          <g id="Group_105357" data-name="Group 105357" transform="translate(44.835 4.087)">
            <g id="Group_105356" data-name="Group 105356" transform="translate(0 0)">
              <path id="Path_76070" data-name="Path 76070" d="M10.136,3.878l-.155.078-.491.31L7.24,5.378,3.9,6.412l-.155.026-.155.052L.052,7.059H.026L0,7.111l.026.026.207.052,1.4.1.129.026,1.784-.052.336-.052h.181l1.448-.259,1.526-.44a12.077,12.077,0,0,0,1.526-.595l.75-.388,2.3-1.551,2.017-2.043L14.506.7l.1-.129L14.79.233l.1-.155Q14.919.052,14.868,0h-.052l-.129.155L13.6,1.189l-.1.078-.31.284-.1.078-.207.207Z" transform="translate(0)" fill="#684633"/>
            </g>
          </g>
          <g id="Group_105359" data-name="Group 105359" transform="translate(36.768 11.896)">
            <g id="Group_105358" data-name="Group 105358" transform="translate(0 0)">
              <path id="Path_76071" data-name="Path 76071" d="M16.522,1.629l-.569.233-.207.052a17.433,17.433,0,0,1-1.732.543q-.776.207-.9.233l-1.4.284h-.129L11.48,3l-2.2.155-.129.026-.1-.026H8.326L6.9,3.025,4.5,2.508,1.888,1.551.931,1.086.724,1.008.569.9.078.672Q0,.595,0,.7V.75L1.577,2.12l.129.078.569.414L4.577,3.8h.052l1.034.362.129.026.1.052.259.052A10.826,10.826,0,0,0,8.2,4.654a13.282,13.282,0,0,0,2.172.026l.8-.078,2.3-.491.259-.078.1-.052.129-.026.491-.181a17.145,17.145,0,0,0,1.758-.75L17.686,2.2a12.737,12.737,0,0,0,1.189-.8l1.6-1.319V0H20.4L18.9.672,18.824.7l-.569.259-.155.052-.155.078-1.215.491Z" transform="translate(0 0)" fill="#dad0c5"/>
            </g>
          </g>
          <g id="Group_105361" data-name="Group 105361" transform="translate(28.339 1.862)">
            <g id="Group_105360" data-name="Group 105360" transform="translate(0 0)">
              <path id="Path_76072" data-name="Path 76072" d="M21.745,13.033a18.783,18.783,0,0,0,8.171-3.827,16.436,16.436,0,0,0,2.663-2.818,8.969,8.969,0,0,0,1.5-3.284q-.207-1.319-1.241-1.4a2.163,2.163,0,0,0-1.965,1.215,17.842,17.842,0,0,1-3.284,3.465A10.732,10.732,0,0,1,24.15,8.249a23.48,23.48,0,0,1-3.878.879,15.092,15.092,0,0,1-8.921-1.06A14.879,14.879,0,0,1,4.732,2.431,5.22,5.22,0,0,0,3.594.7,2.357,2.357,0,0,0,1.836,0Q.8,0,0,1.475A25.366,25.366,0,0,0,4.085,8.146a14.1,14.1,0,0,0,8.636,4.964A21.807,21.807,0,0,0,21.745,13.033Z" transform="translate(0 0)" fill="#7a2230"/>
            </g>
          </g>
          <g id="Group_105363" data-name="Group 105363" transform="translate(28.422 3.446)">
            <g id="Group_105362" data-name="Group 105362" transform="translate(0 0)">
              <path id="Path_76073" data-name="Path 76073" d="M19.077,11.915q.983-.1,2.353-.336l2.741-.724,1.551-.672.31-.181q.078,0,.026-.052,0-.078-.052-.026l-.1.026-.414.155-.207.052-.129.052-.414.1q-.31.1-1.474.362l-5.482.465-3-.181-2.4-.465-1.345-.414a19.166,19.166,0,0,1-2.56-1.138l-1.164-.7q-.646-.44-1.086-.8l-.155-.078-.1-.1-.259-.207L3.3,4.675.1.047Q.1-.031.047.021q-.078,0-.026.052L.538,1.314q.44.931.7,1.37L2.27,4.416A19.437,19.437,0,0,0,3.718,6.3l.9.957a11.62,11.62,0,0,0,1.008.9,12.633,12.633,0,0,0,1.138.879l1.215.776L10.7,11.061a23.7,23.7,0,0,0,2.9.724l.7.1,3.491.129Z" fill="#4b0f18"/>
            </g>
          </g>
          <g id="Group_105365" data-name="Group 105365" transform="translate(45.74 78.27)">
            <g id="Group_105364" data-name="Group 105364" transform="translate(0 0)">
              <path id="Path_76074" data-name="Path 76074" d="M3.1,2.327V3.1h.776M3.1,3.1v.776m3.1-.776-3.1,3.1L0,3.1,3.1,0Zm-3.878,0H3.1" transform="translate(0 0)" fill="none" stroke="rgba(0,0,0,0)" stroke-linecap="round" stroke-linejoin="round" stroke-width="0.083"/>
            </g>
          </g>
        </g>
        <g id="Group_105385" data-name="Group 105385" transform="translate(19.837 132.25) rotate(0.528)">
          <g id="Group_105368" data-name="Group 105368" transform="translate(1.241 47.601)">
            <g id="Group_105367" data-name="Group 105367" transform="translate(0 0)">
              <path id="Path_76075" data-name="Path 76075" d="M17.97,36.845A216.231,216.231,0,0,0,24.692,3.93L5.119,0Q2.007,17.113,0,33.949Z" transform="translate(0 0)" fill="#80553c"/>
            </g>
          </g>
          <g id="Group_105370" data-name="Group 105370" transform="translate(1.215 72.965)">
            <g id="Group_105369" data-name="Group 105369" transform="translate(0 0)">
              <path id="Path_76076" data-name="Path 76076" d="M18.306,9.153a8.843,8.843,0,0,0-2.689-6.49A8.8,8.8,0,0,0,9.153,0a8.887,8.887,0,0,0-6.49,2.663A8.887,8.887,0,0,0,0,9.153a8.8,8.8,0,0,0,2.663,6.464,8.844,8.844,0,0,0,6.49,2.689,8.758,8.758,0,0,0,6.464-2.689A8.758,8.758,0,0,0,18.306,9.153Z" transform="translate(0 0)" fill="#80553c"/>
            </g>
          </g>
          <g id="Group_105373" data-name="Group 105373" transform="translate(4.964 44.369)">
            <g id="Group_105372" data-name="Group 105372" transform="translate(0 0)">
              <g id="Group_105371" data-name="Group 105371" transform="translate(0 0)">
                <path id="Path_76077" data-name="Path 76077" d="M1.629,0,0,10.627a30.358,30.358,0,0,0,19.987,3.749l1.732-9.825Z" fill="#684633"/>
              </g>
            </g>
          </g>
          <g id="Group_105375" data-name="Group 105375" transform="translate(16.393 0)">
            <g id="Group_105374" data-name="Group 105374" transform="translate(0 0)">
              <path id="Path_76078" data-name="Path 76078" d="M30.355,15.177a14.622,14.622,0,0,0-4.447-10.73A14.622,14.622,0,0,0,15.177,0,14.622,14.622,0,0,0,4.447,4.447,14.622,14.622,0,0,0,0,15.177a14.622,14.622,0,0,0,4.447,10.73,14.622,14.622,0,0,0,10.73,4.447,14.622,14.622,0,0,0,10.73-4.447A14.622,14.622,0,0,0,30.355,15.177Z" transform="translate(0)" fill="#7a2230"/>
            </g>
          </g>
          <g id="Group_105377" data-name="Group 105377" transform="translate(0.052 4.137)">
            <g id="Group_105376" data-name="Group 105376" transform="translate(0 0)">
              <path id="Path_76079" data-name="Path 76079" d="M35.578,50.16q5.445-23.251,10.7-35.552L21.1,0Q12.2,7.834,0,44.265,12.307,57.633,35.578,50.16Z" transform="translate(0 0)" fill="#7a2230"/>
            </g>
          </g>
          <g id="Group_105380" data-name="Group 105380" transform="translate(0 7.576)">
            <g id="Group_105379" data-name="Group 105379" transform="translate(0 0)">
              <g id="Group_105378" data-name="Group 105378">
                <path id="Path_76080" data-name="Path 76080" d="M11.221,11.739A254.2,254.2,0,0,0,0,40.878q11.83,13.042,34.75,6.05Q8.946,48.4,5.559,39.042,3.491,33.354,18.047,0A66.487,66.487,0,0,0,11.221,11.739Z" fill="#4b0f18"/>
              </g>
            </g>
          </g>
          <g id="Group_105382" data-name="Group 105382" transform="translate(38.013 20.431)">
            <g id="Group_105381" data-name="Group 105381" transform="translate(0 0)">
              <path id="Path_76081" data-name="Path 76081" d="M7.648.047,7.286.564l-.1.181L7.028.951,6.381,2.037,6.3,2.193l-.1.155L3.951,7.209,1.52,15.043.047,23.808l-.026.284q-.052.052.026.052L.1,24.118,4.468,8.579,6.743,2.4l.052-.181L7.39.848l.1-.181L7.726.072Q7.777.021,7.7.021,7.648-.031,7.648.047Z" fill="#4b0f18"/>
            </g>
          </g>
          <g id="Group_105384" data-name="Group 105384" transform="translate(28.467 12.075)">
            <g id="Group_105383" data-name="Group 105383" transform="translate(0 0)">
              <path id="Path_76082" data-name="Path 76082" d="M3.1,2.327V3.1h.776M3.1,3.1v.776m3.1-.776-3.1,3.1L0,3.1,3.1,0Zm-3.878,0H3.1" transform="translate(0 0)" fill="none" stroke="rgba(0,0,0,0)" stroke-linecap="round" stroke-linejoin="round" stroke-width="0.083"/>
            </g>
          </g>
        </g>
        <g id="Group_105394" data-name="Group 105394" transform="translate(6.561 212.502) rotate(-9.82)">
          <g id="Group_105387" data-name="Group 105387" transform="matrix(0.978, 0.208, -0.208, 0.978, 14.025, 0)">
            <g id="Group_105386" data-name="Group 105386" transform="translate(0 0)">
              <path id="Path_76083" data-name="Path 76083" d="M20.385,7.6A37.645,37.645,0,0,0,17.463,0L.009,4.835Q-.017,6.8.034,8.766A367.12,367.12,0,0,0,3.6,52.207a123.846,123.846,0,0,1,1.241,15.2l12.386.052a125.863,125.863,0,0,1,.724-19.833q1.116-8.658,2.456-21.953T20.385,7.6Z" fill="#80553c"/>
            </g>
          </g>
          <g id="Group_105389" data-name="Group 105389" transform="translate(4.682 61.472)">
            <g id="Group_105388" data-name="Group 105388" transform="translate(0 0)">
              <path id="Path_76084" data-name="Path 76084" d="M12.419,6.209A5.981,5.981,0,0,0,10.6,1.821,5.981,5.981,0,0,0,6.209,0,5.982,5.982,0,0,0,1.821,1.821,5.981,5.981,0,0,0,0,6.209,5.982,5.982,0,0,0,1.821,10.6a5.982,5.982,0,0,0,4.389,1.821A5.982,5.982,0,0,0,10.6,10.6,5.981,5.981,0,0,0,12.419,6.209Z" transform="translate(0 0)" fill="#80553c"/>
            </g>
          </g>
          <g id="Group_105391" data-name="Group 105391" transform="translate(5.619 8.615)">
            <g id="Group_105390" data-name="Group 105390" transform="translate(0 0)">
              <path id="Path_76085" data-name="Path 76085" d="M6.408,2.348,6.718.072Q6.77.021,6.692.021,6.64-.031,6.64.047L3.951,14.475,2.322,26.525.021,53.21q-.052.052.026.052L.1,53.236,6.33,2.917Q6.382,2.529,6.408,2.348Z" fill="#684633"/>
            </g>
          </g>
          <g id="Group_105393" data-name="Group 105393" transform="translate(19.008 2.688)">
            <g id="Group_105392" data-name="Group 105392" transform="translate(0 0)">
              <path id="Path_76086" data-name="Path 76086" d="M3.1,2.327V3.1h.776M3.1,3.1v.776m3.1-.776-3.1,3.1L0,3.1,3.1,0Zm-3.879,0H3.1" fill="none" stroke="rgba(0,0,0,0)" stroke-linecap="round" stroke-linejoin="round" stroke-width="0.083"/>
            </g>
          </g>
        </g>
        <g id="Group_105399" data-name="Group 105399" transform="matrix(0.95, 0.311, -0.311, 0.95, 13.805, 265.693)">
          <g id="Group_105396" data-name="Group 105396" transform="translate(0 0)">
            <g id="Group_105395" data-name="Group 105395" transform="translate(0 0)">
              <path id="Path_76087" data-name="Path 76087" d="M4.63,19.653q-.026.078.207,1.758l.569-.543a4.648,4.648,0,0,0,.957-2.431Q5.716,10.473,5.82,1.914a58.905,58.905,0,0,0-1.19,17.74M11.793.646q-.155.75-.31,1.474A62.442,62.442,0,0,0,11.121,19.6q.207,1.836.569,3.7a4.525,4.525,0,0,0,1.629-3.077,4.311,4.311,0,0,0-.129-.621A84.313,84.313,0,0,1,11.742,2.327q0-.853.052-1.681M0,10.111a16.672,16.672,0,0,1,.931,1.862Q.906,10.628.906,7.292A26.687,26.687,0,0,1,2.148,0,17.007,17.007,0,0,0,.958,3.491,14.726,14.726,0,0,1,.493,5.069,19.665,19.665,0,0,0,0,10.111Z" transform="translate(1.003 19.007)" fill="#684633"/>
              <path id="Path_76088" data-name="Path 76088" d="M17.089,0q-.414,0-.828.026l-.078.129q-.052.026-.052.052a9.534,9.534,0,0,0-6.775,5.56Q7.65,8.43,5.529,12.516q-.465.75-.983,1.474a7.014,7.014,0,0,0-.44.75q-.75,1.112-1.319,2.095A20.6,20.6,0,0,0,.1,22.679Q-.315,24.515,1,29.118A19.665,19.665,0,0,1,1.5,24.075,14.726,14.726,0,0,0,1.961,22.5a17.007,17.007,0,0,1,1.19-3.491A26.687,26.687,0,0,0,1.909,26.3q0,3.336.026,4.681L1.961,33q.1.7.284,1.448.44,2.069.776,4.189l.078.1q1.474,2.793,2.741,1.681-.233-1.681-.207-1.758a58.905,58.905,0,0,1,1.19-17.74q-.1,8.56.543,16.524.026.621.078,1.215.233,2.172.724,4.862,3.051,2.095,4.525-1.215-.362-1.862-.569-3.7a62.442,62.442,0,0,1,.362-17.481q.155-.724.31-1.474-.052.828-.052,1.681a84.314,84.314,0,0,0,1.448,17.274,4.311,4.311,0,0,1,.129.621q.284,1.112.828,2.9,4.4-.595,5.4-3.62A9.245,9.245,0,0,0,20.4,33.7q-1.758-9.9-.026-14.171,1.681-.414,1.474,4.267-.362,5.224,1.681,6.7a4.353,4.353,0,0,0,5.353.1q-1.888-8.741-1.034-13.111.828-4.37.853-4.474-.414-1.06-.905-2.069A51.743,51.743,0,0,0,24.95,5.612q-.569-.931-1.112-1.655A9.158,9.158,0,0,0,20.218.905,2.317,2.317,0,0,0,19.8.7,5.539,5.539,0,0,0,17.089,0Z" fill="#80553c"/>
            </g>
          </g>
          <g id="Group_105398" data-name="Group 105398" transform="translate(14.813 3.026)">
            <g id="Group_105397" data-name="Group 105397" transform="translate(0 0)">
              <path id="Path_76089" data-name="Path 76089" d="M3.1,2.327V3.1h.776M3.1,3.1v.776m3.1-.776-3.1,3.1L0,3.1,3.1,0Zm-3.879,0H3.1" fill="none" stroke="rgba(0,0,0,0)" stroke-linecap="round" stroke-linejoin="round" stroke-width="0.083"/>
            </g>
          </g>
        </g>
        <g id="Group_105404" data-name="Group 105404" transform="translate(68.264 76.555) rotate(-1.593)">
          <g id="Group_105401" data-name="Group 105401" transform="translate(0 0)">
            <g id="Group_105400" data-name="Group 105400" transform="translate(0 0)">
              <path id="Path_76090" data-name="Path 76090" d="M20.842,22.885a14.935,14.935,0,0,1-2.431-.983,35.151,35.151,0,0,1-4.836-3.077,42.38,42.38,0,0,1-4.37-3.8,23.565,23.565,0,0,1-3.594-4.655Q4.034,7.732,2.844,5.275A45.581,45.581,0,0,1,.672,0L0,29.065l20.764.31Z" transform="translate(0 17.48)" fill="#80553c"/>
              <path id="Path_76091" data-name="Path 76091" d="M19.989,9.18h-.129A9.48,9.48,0,0,0,16.989,2.9,9.515,9.515,0,0,0,10.007,0,9.631,9.631,0,0,0,2.974,2.9,9.589,9.589,0,0,0,.1,9.9q0,.284.026.569L0,17.48a45.581,45.581,0,0,0,2.172,5.275q1.189,2.457,2.767,5.094A23.564,23.564,0,0,0,8.533,32.5a42.38,42.38,0,0,0,4.37,3.8,35.15,35.15,0,0,0,4.836,3.077,14.936,14.936,0,0,0,2.431.983Z" transform="translate(0.672 0)" fill="#684633"/>
            </g>
          </g>
          <g id="Group_105403" data-name="Group 105403" transform="translate(6.439 49.777)">
            <g id="Group_105402" data-name="Group 105402" transform="translate(0 0)">
              <path id="Path_76092" data-name="Path 76092" d="M3.1,2.327V3.1h.776M3.1,3.1v.776m3.1-.776-3.1,3.1L0,3.1,3.1,0Zm-3.879,0H3.1" transform="translate(0 0)" fill="none" stroke="rgba(0,0,0,0)" stroke-linecap="round" stroke-linejoin="round" stroke-width="0.083"/>
            </g>
          </g>
        </g>
        <g id="Group_105491" data-name="Group 105491" transform="translate(29.464 20.388) rotate(-14.636)">
          <g id="Group_105405" data-name="Group 105405" transform="translate(21.582 66.304)">
            <path id="Path_76093" data-name="Path 76093" d="M19.8,9.9a9.491,9.491,0,0,1-2.907,6.991A9.491,9.491,0,0,1,9.9,19.8a9.554,9.554,0,0,1-7.01-2.907A9.522,9.522,0,0,1,0,9.9a9.585,9.585,0,0,1,2.888-7.01A9.585,9.585,0,0,1,9.9,0a9.522,9.522,0,0,1,6.991,2.888A9.554,9.554,0,0,1,19.8,9.9Z" transform="translate(0 0)" fill="none" stroke="red" stroke-linecap="round" stroke-linejoin="round" stroke-width="0.083"/>
          </g>
          <g id="Group_105411" data-name="Group 105411" transform="translate(9.542 18.955)">
            <g id="Group_105407" data-name="Group 105407" transform="translate(0 0)">
              <g id="Group_105406" data-name="Group 105406" transform="translate(0 0)">
                <path id="Path_76094" data-name="Path 76094" d="M51.744,8.87A29.205,29.205,0,0,0,30.307,0,29.205,29.205,0,0,0,8.87,8.87,29.205,29.205,0,0,0,0,30.307,29.162,29.162,0,0,0,4.629,46.52l.026.129Q15.544,61.884,31.031,63.9,49.342,65.7,59.6,51.485l.672-16.265-.155.646a30.713,30.713,0,0,0,.491-5.56A29.205,29.205,0,0,0,51.744,8.87Z" fill="#80553c"/>
              </g>
            </g>
            <g id="Group_105410" data-name="Group 105410" transform="translate(21.23 13.364)">
              <g id="Group_105409" data-name="Group 105409" transform="translate(0 0)">
                <g id="Group_105408" data-name="Group 105408" transform="translate(0 0)">
                  <path id="Path_76095" data-name="Path 76095" d="M24.333,9.47A4.742,4.742,0,0,0,27.8,7.22a6.837,6.837,0,0,0,.931-1.939q.491,4.189,5.094,4.551a4.012,4.012,0,0,0,3.853-1.888,4.786,4.786,0,0,0,.957-3.362q-.672-.853-19.627-3.025Q0-.641,0,.264A10.356,10.356,0,0,0,2.534,7.556,7.691,7.691,0,0,0,7.4,10.064a10.376,10.376,0,0,0,7.913-1.991,12.556,12.556,0,0,0,2.767-3.051,6.411,6.411,0,0,0,2.276,3.465A5.438,5.438,0,0,0,24.333,9.47Z" fill="#684633"/>
                </g>
              </g>
            </g>
          </g>
          <g id="Group_105416" data-name="Group 105416" transform="translate(19.575 63.458)">
            <g id="Group_105413" data-name="Group 105413" transform="translate(0 0)">
              <g id="Group_105412" data-name="Group 105412" transform="translate(0 0)">
                <path id="Path_76096" data-name="Path 76096" d="M7.6,25.393q8.205,10.49,16.265,12.826t11.171.026q6.592-10.856,12.593-19.963,6-9.077,1.552-18.282L0,1.112Q1.134,18.485,7.6,25.393Z" fill="#80553c"/>
              </g>
            </g>
            <g id="Group_105415" data-name="Group 105415" transform="translate(12.529 30.94)">
              <g id="Group_105414" data-name="Group 105414" transform="translate(0 0)">
                <path id="Path_76097" data-name="Path 76097" d="M26.467.892q.078-.078-.026-.078h-.052L23.545,4.668l-.026.078-.026.052-.078.1q-.517.7-.672.879l-.724.724-.129.1-.052.052-.052.026-.362.284-.517.284-.543.181a2.823,2.823,0,0,1-.595.1h-.078l-.052.026h-.517l-5.482-.517-.078-.026h-.1l-2.844-.7L10.589,6.3h-.052l-.776-.259a12.556,12.556,0,0,1-1.319-.465L7.8,5.314l-.155-.078-.078-.026-.078-.052-1.474-.75q-.931-.517-2.069-1.241L2.263,2,.142.091.091.013Q.065-.013.013.013q-.026.052,0,.078L.065.168l1.4,1.474L3.737,3.478q1.215.853,2.043,1.345A12.91,12.91,0,0,0,6.943,5.5l.284.181.078.026,2.25.983.7.233.078.052h.052l.052.026,2.87.8h.052l.026.026h.026l.078.026,3.362.569q.517.052,1.5.155l1.5.052a4.24,4.24,0,0,0,1.526-.414l.646-.388.465-.414.078-.052.905-.983a7.956,7.956,0,0,0,.646-1.06l.155-.259.1-.233Z" fill="#9f7b67"/>
              </g>
            </g>
          </g>
          <g id="Group_105439" data-name="Group 105439" transform="translate(0 0)">
            <g id="Group_105418" data-name="Group 105418" transform="translate(8.818 38.882)">
              <g id="Group_105417" data-name="Group 105417" transform="translate(0 0)">
                <path id="Path_76098" data-name="Path 76098" d="M0,4.328q.233,4.784.724,8.585.259,1.965.543,3.517a7.888,7.888,0,0,1,6.258,2.534q3.517,3.336,4.6,9.568a120.989,120.989,0,0,0,.724-14.817A60.194,60.194,0,0,1,14.119.165Q12.567-.482,7.266,1.406,6.491,1.665,0,4.328Z" fill="url(#linear-gradient)"/>
              </g>
            </g>
            <g id="Group_105420" data-name="Group 105420" transform="translate(0 0.187)">
              <g id="Group_105419" data-name="Group 105419" transform="translate(0 0)">
                <path id="Path_76099" data-name="Path 76099" d="M50.709,1.7A8.25,8.25,0,0,0,47.554.278,12.078,12.078,0,0,0,42.279.3a6.962,6.962,0,0,0-3.956,2.974Q37.7.382,35.039.744T30.85,4.416a2.153,2.153,0,0,0-1.241-.7,2.378,2.378,0,0,0-1.448.207,3.646,3.646,0,0,0-1.345.957,2.55,2.55,0,0,0-.595,1.5,3.7,3.7,0,0,0-1.965-1.888,4.635,4.635,0,0,0-4.215.181,6.338,6.338,0,0,0-2.974,2.638,5.134,5.134,0,0,0-.569,3.362,11.78,11.78,0,0,0-4.448.621A7.494,7.494,0,0,0,8.4,13.518a12.513,12.513,0,0,0-2.612,5.068,9.9,9.9,0,0,0,.052,5.12q-1.371.44-3.1,2.9A16.648,16.648,0,0,0,.284,31.567a7.539,7.539,0,0,0,.853,5.973,41.766,41.766,0,0,0,2.974,4.474,7.267,7.267,0,0,0,1.422,5.327,9.956,9.956,0,0,0,3.9,3.646l.233-2.043A8.2,8.2,0,0,1,11.2,44.73a4.9,4.9,0,0,0,5.2,1.939,3.8,3.8,0,0,0,2.793-2.56,33.281,33.281,0,0,0,1.086-4.655,5.017,5.017,0,0,0,3,1.422,7.385,7.385,0,0,0,3.543-.44,10.226,10.226,0,0,0,4.318-3.8q.646-1.5.983-2.4-.052,2.379,2.974,4.629a13.25,13.25,0,0,0,5.146,2.327,11.7,11.7,0,0,0,5.741-.7,8.3,8.3,0,0,0,3.62-3.646,5.557,5.557,0,0,0,3.336,2.4,6.652,6.652,0,0,0,4.448.284,3.937,3.937,0,0,0,1.888-1.293,4.251,4.251,0,0,0,.7-1.991,4.811,4.811,0,0,0,2.844,4.215,10.481,10.481,0,0,0,3.207.569,4.813,4.813,0,0,0,2.069-.491,3.793,3.793,0,0,0,1.552-1.681A6.533,6.533,0,0,0,74.4,39.894a6.409,6.409,0,0,0,5.379-3.879,7.368,7.368,0,0,0,.362-6.335,6.849,6.849,0,0,0-3.077-3.413A4.289,4.289,0,0,0,78.2,23.189,4.761,4.761,0,0,0,77.6,20.81Q75.9,17.991,72.043,18.2a6.371,6.371,0,0,0,2.689-2.224,4.906,4.906,0,0,0,1.008-4.525q-.724-2.534-3.931-3.336a10.05,10.05,0,0,0-5.948.31A5.717,5.717,0,0,0,65.5,5.786a4.218,4.218,0,0,0-2.3-1.965A6.481,6.481,0,0,0,59.6,3.3,4.192,4.192,0,0,0,56.89,4.933a3.1,3.1,0,0,0-1.758-1.19,1.873,1.873,0,0,0-1.345.284,2.3,2.3,0,0,0-.931.879A5.06,5.06,0,0,0,50.709,1.7Z" fill="#140e0e"/>
              </g>
            </g>
            <g id="Group_105424" data-name="Group 105424">
              <g id="Group_105421" data-name="Group 105421" transform="translate(37.599 0)">
                <path id="Path_76100" data-name="Path 76100" d="M12.05,37.159l.026.052,1.5,1.6.7.517.7.388.078.052.078.026.646.284.517.155.181.026.181.052h.1l.052.026h.026l.776.052a6.506,6.506,0,0,0,1.577-.207l.181-.052.362-.155.1-.026h.026v-.026h.026l.026-.026.1-.026.026-.026.052-.026.1-.026.75-.491.284-.259a4.071,4.071,0,0,0,.517-.595l.388-.621.129-.336.026-.026v-.026l.026-.026.052-.155v-.026l.026-.052.052-.155v-.052l.026-.052v-.078l.129-.621V36.1l.026-.078v-.75l-.026-.129v-.129l-.026-.1-.1-.621-.1-.31-.026-.129-.052-.1-.026-.1-.078-.155v-.052l-.1.026.026.052v.259l.026.129v1.008l-.026.129v.1l-.026.1v.129l-.052.233v.129l-.026.129-.026.052L21.954,36l-.052.233-.181.465v.026l-.026.026-.052.129V36.9l-.026.052L21.566,37l-.026.078v.026l-.026.052-.491.724-.491.491-.44.31-.465.233-.026.026-.078.026L19.472,39h-.026l-.078.026-.155.078-.155.052-.8.181-1.345.052-.026-.026h-.078l-.465-.078-.078-.026h-.078l-.155-.052-.155-.026-1.733-.724-1.862-1.215-.129-.1-.052-.026-.052.052m29.634-.31-.026.052-.259.259-.078.052-.078.1-.078.078-.336.284-.129.078-.569.414-.362.181-.078.052-.7.284a.624.624,0,0,1-.207.078l-.207.078-.1.052-.1.026-.129.052-.31.078-.078.026-.052.026-.233.052h-.026l-.026.026h-.078l-.233.052a5.162,5.162,0,0,1-.905.181l-.465.052-.052.026-1.034.026-.207-.026h-.181l-.388-.052-.1-.026H33.8l-.931-.207-.543-.181L32.194,39l-.026-.026-.052.078.052.026.259.259.284.207.569.31.155.1.181.078h.052l.052.026.491.181.44.1h.078l.052.026h.129l.233.052h.233l.078.026h.776l.052-.026h.129l.129-.026h.129l1.06-.207.052-.026h.052l.026-.026.233-.052.052-.026,1.267-.517.207-.129.1-.052.672-.465.465-.44a3.321,3.321,0,0,0,.44-.595l.1-.129.181-.336.129-.336.026-.129.026-.026-.078-.052M2.715,1.371l-.465.362-.1.1-.052.026-.853.879-.026.052-.078.078-.284.414-.052.1L.75,3.465l-.1.207L.595,3.75.44,4.034.052,5.146.026,5.3,0,5.353l.078.026L.1,5.327l.672-.905L.827,4.37l.052-.078.129-.129.259-.31.052-.078.517-.517.052-.026.362-.31.078-.078.31-.233.052-.026.052-.052.517-.362.233-.129.129-.052.1-.078.129-.026.336-.181.078-.026.362-.155L4.706,1.5l.233-.1.776-.259L7.189.8h.129l.1-.026L7.887.724h.1L8.094.7H8.3A2.628,2.628,0,0,1,8.714.672h1.474L10.24.7l.026-.1h-.052L10.085.517,9.93.465l-.1-.052L8.559.078,8.12.026H7.99L7.887,0,6.31.026,4.887.336l-.853.31-.181.1L3.775.776l-1.06.595M19.368,8.223l-.052.078-.026.052-.052.026.026.078.052-.026h.155l.052-.026h.052l.129-.026h.155l.1-.026h.646l.181.026.078.026h.052l.207.1h.026l.052.026.026.026.052.026.284.259.129.181.026.026.026.052.052.052.026.052.052.078.052.1.052.052v.026l.052.1a1.035,1.035,0,0,1,.155.362v.052l.026.026v.1l.026.078v.052l.026.052v.388l-.026.078v.129l-.026.052v.052l-.026.078v.052l-.026.078.052.026.052-.026.052-.052.078-.052.052-.026.026-.052.1-.1.052-.078.026-.026.026-.052a1.678,1.678,0,0,0,.207-.388l.026-.052v-.052l.052-.129.026-.284V9.723l-.026-.155V9.49l-.026-.078-.026-.155-.026-.052-.052-.155V9l-.026-.026-.052-.155-.078-.129-.026-.078-.026-.052-.052-.052V8.456h-.026V8.43h-.026l-.181-.259-.259-.259-.129-.1-.078-.026-.155-.1L21.463,7.6a.741.741,0,0,0-.336-.078,2.444,2.444,0,0,0-.595.026L20.4,7.6l-.129.026-.336.155-.233.155-.129.129-.1.078L19.42,8.2Z" transform="translate(0 0)" fill="#493f3f"/>
              </g>
              <g id="Group_105422" data-name="Group 105422" transform="translate(0 10.654)">
                <path id="Path_76101" data-name="Path 76101" d="M9.076,31.962l.078.1.078.155.052.078.052.1,1.008,1.4,1.034,1.086.1.078.1.1.052.026.052.052.724.517.724.362h.026l.8.259.879.155,1.034-.026.543-.1.078-.026h.052l.129-.052h.052l.1-.052h.026l.026-.026.207-.078.052-.026L17.2,36l.129-.052.465-.362.078-.078.1-.078.207-.207.052-.078.129-.129.388-.465.052-.1.078-.078.078-.155.078-.1q.026-.026-.026-.078h-.052l-.233.181-.1.052-.078.078-.362.233-.129.1-.44.284-.1.052-.078.052-.362.181-.1.026-.078.052-.052.026h-.052l-.1.026-.026.026H16.6l-.078.026H16.5l-.1.026h-.129a3.076,3.076,0,0,1-.465.026h-.491l-.983-.155-.129-.052-.621-.181-.052-.026H13.5l-.026-.026L12.9,34.78l-1.81-1.267-.155-.155-.181-.129-.879-.75-.052-.026-.259-.233-.1-.078-.078-.078-.129-.078-.1-.1q-.026-.026-.078.026v.052M3,16.033q.078-.078-.026-.078H2.922L1.758,17.4,1.008,18.7l-.233.517-.026.026L.181,21.153l-.026.026v.052l-.026.1L.1,21.54v.1l-.026.1-.078.8.052,1.474.078.621.1.414.026.207.129.491.052.1.1.388.052.078.026.1,1.008,2.043,1.086,1.552.1.1.078.1,1.293,1.319h.078V31.47l-.595-.931-.1-.207-.259-.414-.078-.1-1.19-2.353-.026-.078-.052-.078-.75-2.457-.026-.207-.026-.078v-.1l-.026-.181L1.086,24.1v-.207a3.842,3.842,0,0,1-.052-.75l-.026-.181V22.6l.026-.207v-.362l.026-.181V21.67l.026-.181.026-.1v-.078l.052-.362.052-.181.052-.336.207-.827.026-.078.026-.052v-.026l.31-.905L3,16.033M16.55.414a3.652,3.652,0,0,1,.491-.026L18,.336a.046.046,0,0,0,.052-.052L18.024.259l-.543-.1L15.955,0,14.688.026l-1.914.31L11.4.8l-.465.207L9.154,2.12l-.336.259L7.473,3.724l-.491.646V4.4H6.956l-.026.026L6.9,4.474l-.129.181V4.68l-.026.026-.7,1.164-.207.491a3.782,3.782,0,0,0-.362.983L5.4,7.577l-.052.259-.078.233-.026.259-.026.052V8.43L5.2,8.559v.129l-.078.595.1,1.758.259,1.112.052.155.078.155A4.948,4.948,0,0,0,6.1,13.472l.543.827q.052.026.078,0v-.078l-.233-.491-.052-.181-.078-.181a6.468,6.468,0,0,1-.31-1.034L6,12.18l-.129-.853v-.181l-.026-.181.026-1.19.026-.1v-.1l.026-.1v-.1L6.1,8.508a5.4,5.4,0,0,1,.259-.879A8.476,8.476,0,0,1,7.189,5.9l.052-.1L7.577,5.3l.052-.052L7.654,5.2l.078-.1.026-.052.026-.026V4.991h.026L8.275,4.4l.078-.078a11.994,11.994,0,0,1,1.422-1.4l.776-.595.1-.052.284-.207,1.138-.595.1-.026.207-.1.621-.233.1-.026.1-.052,2.25-.517h.1l.078-.026L16.265.44h.078L16.42.414h.129M34.987,19.058l-.155-.1L34.78,18.9l-.078-.026-.155-.1-.078.026v.052l.052.078.052.155.052.052.155.336.155.517v.052l.026.078.026.233v.517l-.052.284-.052.129v.078l-.026.026v.026l-.026.078v.026l-.026.026-.052.181v.026l-.026.026-.129.336-.31.44L34,22.833l-.465.284-.569.259-.1.026-.621.207h-.052l-.1.052-.078.026a.046.046,0,0,0-.052.052l.026.026.1.052.1.026h.052l.078.026.621.078a.336.336,0,0,0,.259,0h.155l.465-.078.517-.181.078-.052.078-.026.078-.052.1-.052.31-.259.388-.465.336-.646v-.052l.026-.052.052-.155v-.052l.026-.052.026-.1v-.052l.026-.052v-.1l.026-.181v-.569l-.026-.1v-.078l-.026-.1v-.052l-.026-.026-.1-.336-.052-.078-.026-.078-.026-.052-.129-.207-.052-.052L35.4,19.5l-.1-.129Z" transform="translate(0 0)" fill="#493f3f"/>
              </g>
              <g id="Group_105423" data-name="Group 105423" transform="translate(33.927 7.732)">
                <path id="Path_76102" data-name="Path 76102" d="M1.681,0H1.319L.853.155.75.233.31.646l-.259.465-.026.1L0,1.267l.026.078H.078l.052-.052.078-.026L.569,1.06.8.983.879.931,1.06.905,1.086.879h.1L1.215.853,1.4.879h.052L1.5.905h.026l.155.078.078.026.078.052.078.078.052.026.31.31.026.052.052.026.026.052.026.026.052.1.026.026.052.078.052.181.026.026v.1l.026.052v.1h.026v.414H2.638v.078l-.026.052V2.87l-.026.052V3l-.026.026-.233.414-.052.052.026.078h.1l.1-.026.1-.052L2.9,3.31l.052-.026.026-.026.052-.026L3.155,3.1,3.232,3V2.974l.026-.026.026-.078.078-.1.1-.31v-.1h.026V2.2l.026-.1V1.939l-.026-.078L3.439,1.5l-.052-.155-.052-.078L3.31,1.19,3.051.8,2.9.646a3.189,3.189,0,0,0-.517-.44L2.224.129Z" transform="translate(0 0)" fill="#493f3f"/>
              </g>
            </g>
            <g id="Group_105426" data-name="Group 105426" transform="translate(19.503 32.168)">
              <g id="Group_105425" data-name="Group 105425" transform="translate(0 0)">
                <path id="Path_76103" data-name="Path 76103" d="M12.562.026l-.052.233-.078.595-.284,1.164a.644.644,0,0,1-.078.284l-.284.905-.078.155-.052.155-.052.078-.052.155-.207.414a6.06,6.06,0,0,1-.8,1.293l-.491.595L10,6.077l-.569.517-.052.026-.1.1-.1.052-.414.31L8.037,7.5l-.078.052-.1.026-.181.1-.284.1-.1.052-.1.026-.1.052-.595.181L6.46,8.12H6.408l-1.5.259A5.913,5.913,0,0,1,3.434,8.3l-.181-.026-.336-.1h-.1l-.026-.026H2.736l-.388-.129L2.27,7.965l-.129-.052-.517-.284L1.546,7.6l-.052-.052-.052-.026-.052-.052-.207-.155a5.7,5.7,0,0,1-.646-.646L.1,6q0-.078-.052-.026-.078,0-.026.052l.129.465.155.336L.357,6.9l.052.1.129.207.052.1.052.052.026.052.078.1.465.491.207.155.052.052.362.259.155.078.078.052.44.207.026.026h.052l.078.052.181.052.1.052.31.078a5.825,5.825,0,0,0,1.681.233L6.3,9.18,6.641,9.1l.052-.026H6.77l.646-.207.129-.026.207-.1.1-.026L8.5,8.4q.207-.1.827-.465l.181-.155.207-.129L9.8,7.577l.181-.129.052-.052.052-.026.336-.31.155-.181.1-.078V6.775l.026-.026.052-.026.155-.181.052-.078L11.321,6A7.435,7.435,0,0,0,12.1,4.5l.052-.207.078-.181V4.086l.026-.052.181-.621.026-.181.052-.181.1-.646.1-1.526L12.64.052A.046.046,0,0,0,12.588,0Z" fill="#493f3f"/>
              </g>
            </g>
            <g id="Group_105428" data-name="Group 105428" transform="translate(26.092 3.465)">
              <g id="Group_105427" data-name="Group 105427" transform="translate(0 0)">
                <path id="Path_76104" data-name="Path 76104" d="M2.948.026H2.87L2.689,0,2.508.026H2.353L2.172.052a2.9,2.9,0,0,0-.646.233H1.5L1.448.31,1.4.362,1.319.388,1.241.44,1.164.517H1.138L1.112.543l-.1.078L.776.853.44,1.319.31,1.552l-.181.465L.078,2.25.052,2.3v.052l-.026.1L0,2.663v.7l.026.155v.1L.078,3.9l.052.155.052.026.026-.052.155-.776L.414,3.1V3.025l.078-.259L.724,2.25A2.534,2.534,0,0,1,1.215,1.6L1.4,1.422,1.448,1.4l.078-.078.129-.078h.026l.052-.026.026-.026.1-.052h.026l.026-.026L2.12,1.06h.026l.026-.026h.1l.052-.026h.336l.1.026a1.646,1.646,0,0,1,.44.1l.129.052h.052l.155.078.1.078H3.7l.026.026.052.026.052.052h.052v.026H3.9l.646.44.491.44.1.078.052.052.026.052.1.078.517.569.1.078L7.215,4.81l.052.052.052.078.414.517.1.1q0,.026.078.026V5.534l-.181-.517L7.137,3.7a4.559,4.559,0,0,0-.491-.827l-.052-.1-.31-.44-.1-.1-.569-.672L4.68.75,4.422.595V.569q0,.025-.026,0L4.37.543,4.293.517,4.241.465H4.215L4.189.44H4.163L3.853.284,3.7.233,3.543.155,3.388.1h-.1L3.129.052H3.051Z" fill="#493f3f"/>
              </g>
            </g>
            <g id="Group_105430" data-name="Group 105430" transform="translate(4.011 42.019)">
              <g id="Group_105429" data-name="Group 105429" transform="translate(0 0)">
                <path id="Path_76105" data-name="Path 76105" d="M1.587,4.222l-.054-.09L.3.464.271.287.164,0,.089,0,.068.052.024.3.021.4,0,.492.026,2.4l.2,1.065.035.107L.275,3.7l.159.445a4.419,4.419,0,0,0,.355.892l.743,1.272.092.091.018.053.037.036.165.2a5.8,5.8,0,0,0,.627.651l.148.145.762.566.093.055.055.054.281.13.112.073.656.281.037.036.04-.07-.037-.036-.054-.09L3.972,7.9,3.88,7.774,3.77,7.666l-.11-.144-.111-.109-.568-.738L2.907,6.6,2.27,5.616l-.09-.2-.163-.269-.054-.125-.109-.179Z" transform="translate(0 0)" fill="#493f3f"/>
              </g>
            </g>
            <g id="Group_105432" data-name="Group 105432" transform="translate(52.729 3.75)">
              <g id="Group_105431" data-name="Group 105431" transform="translate(0 0)">
                <path id="Path_76106" data-name="Path 76106" d="M4.129.957,3.866.646,3.524.362,3.151.155,3.023.129l-.1-.052-.1-.026H2.692L2.617.026h-.1L2.411,0H2.2L2.1.026H1.893l-.369.1L1.176.284.8.517.743.569.634.646.549.75l-.111.1-.059.1-.142.181-.031.078a1.676,1.676,0,0,0-.146.233l-.031.078L0,1.577l.048.052L.1,1.6l.081-.052.083-.078.054-.026L.4,1.4l.055-.052.162-.1.214-.1.105-.026.214-.1.5-.1h.388l.05.026h.078l.076.026h.078l.05.026.076.026h.078l.1.052.076.026.1.052.048.052.05.026.22.181.287.336.046.078.048.052,0,.026.024.026.046.078.022.052h.026l0,.026.048.052.069.129.043.129.048.052.084.284.022.052.02.078.022.052.02.078,0,.026.024.026.051.388.022.052-.013.181.01.233.019.1-.047.672.05.026.029-.052.057-.078.083-.078.063-.155.057-.078.031-.078.118-.207.1-.259.035-.129.005-.078.031-.078.037-.155.036-.517-.02-.078.007-.1-.039-.181L4.733,2.3,4.7,2.095,4.65,2.017l-.039-.181L4.52,1.655l-.019-.1-.024-.026,0-.026-.024-.026L4.409,1.4l-.045-.1-.046-.078-.072-.078Z" transform="translate(0)" fill="#493f3f"/>
              </g>
            </g>
            <g id="Group_105434" data-name="Group 105434" transform="translate(59.881 31.419)">
              <g id="Group_105433" data-name="Group 105433" transform="translate(0 0)">
                <path id="Path_76107" data-name="Path 76107" d="M3.409.724l-.045-.1L3.318.543,2.982.181l-.1-.052L2.808.078,2.76.026,2.71,0,2.654.052l.045.1L2.694.233l.044.1L2.77.621,2.79.7,2.785.776l.039.181L2.8,1.319l-.077.362-.064.181-.029.052,0,.026H2.6l0,.052-.029.052-.256.336-.083.078-.085.1-.028.026H2.09l-.277.259L1.76,2.87,1.732,2.9l-.054.026,0,.026H1.651L1.57,3l-.054.026-.028.026-.105.026L1.3,3.129l-.159.052h-.1L.96,3.207l-.183.026H.338L.159,3.207H.029L0,3.258l.05.026.022.052.144.155.32.233.1.026.2.1.127.026h.052l.076.026h.414l.157-.026.079-.026H1.82l.161-.078h.052L2.06,3.75,2.219,3.7l.055-.052.079-.026.218-.155.055-.052.081-.052.055-.052h.026l0-.026.138-.129.337-.388L3.3,2.689l.057-.078.031-.078.057-.078L3.506,2.3l.028-.026,0-.052.031-.078.075-.336.011-.155L3.609,1.19,3.522.957,3.5.879,3.48.827Z" fill="#493f3f"/>
              </g>
            </g>
            <g id="Group_105436" data-name="Group 105436" transform="translate(61.73 35.401)">
              <g id="Group_105435" data-name="Group 105435" transform="translate(0 0)">
                <path id="Path_76108" data-name="Path 76108" d="M.031,4.5,0,4.577.05,4.6l.392.31.126.052.048.052.2.1.074.052H.915l.2.1.754.31.229.052.1.052.357.078a7.256,7.256,0,0,0,1.053.1h.569l.131-.026H4.54l.079-.026.131-.026h.155l.079-.026h.052L5.2,5.715h.1l.054-.026.131-.026.689-.233.644-.336.137-.1.135-.078.47-.44.4-.517A4.643,4.643,0,0,0,8.418,2.9l.035-.129,0-.052.029-.052.009-.129L8.53,2.4l.061-.879-.055-.7L8.358.052l0-.052L8.282.026l0,.052L8.244.207,8.225.465,8.191.595,7.986,1.681l-.007.1L7.624,2.793l-.293.491-.284.362L7.017,3.7l-.054.026-.029.052L6.907,3.8H6.881l-.221.207-.054.026-.083.078a3.967,3.967,0,0,1-.884.44l-.476.155H5.111l-.079.026L4.9,4.758l-.054.026H4.769l-.5.1H4.142l-.236.052H3.647l-.054.026H2.481l-.1-.026h-.1L1.3,4.81l-.177-.052-.536-.1L.464,4.6H.36L.209,4.551.081,4.525Z" fill="#493f3f"/>
              </g>
            </g>
            <g id="Group_105438" data-name="Group 105438" transform="translate(16.317 4.215)">
              <g id="Group_105437" data-name="Group 105437" transform="translate(0 0)">
                <path id="Path_76109" data-name="Path 76109" d="M6,0H4.784L3.594.259,3.388.336l-.646.31L2.327.905l-.7.569-.052.052-.026.052-.181.181-.155.207q-.052.078-.155.207l-.155.207L.879,2.4v.026l-.052.052-.491.983-.259.879-.052.44L0,4.887v.646l.052.31V6l.181.7.052.1.052.026.026-.052.026-.1V6.516l.026-.078v-.1l.026-.1v-.1l.181-.879.1-.336L.8,4.758l.078-.284L.931,4.4l.026-.078.052-.1.052-.078V4.086L1.4,3.491l.052-.078.052-.1.052-.078L1.6,3.181l.026-.052.052-.078L1.733,3V2.974l.026-.026.621-.75.052-.078.078-.052.233-.233.1-.052.078-.078.491-.362L4.448.776,4.913.595,5.068.517l.284-.1L5.482.388,5.611.336l.31-.078L6,.207,6.129.181,6.258.129,6.284.078,6.232.052Z" fill="#493f3f"/>
              </g>
            </g>
          </g>
          <g id="Group_105446" data-name="Group 105446" transform="translate(2.93 53.336)">
            <g id="Group_105441" data-name="Group 105441" transform="translate(0 4.18) rotate(-15.965)">
              <g id="Group_105440" data-name="Group 105440" transform="translate(0 0)">
                <path id="Path_76110" data-name="Path 76110" d="M12.486,3.24A6.789,6.789,0,0,0,7.676.06Q4.639-.422,2.194,2.982A13.274,13.274,0,0,0,.022,11.489a16.7,16.7,0,0,0,2.663,8.637,16.426,16.426,0,0,0,5.353,5.223,36.661,36.661,0,0,0,4.68,1.888q.258-1.326,1.6-5.43a22.92,22.92,0,0,0,.621-9.955Q14.239,5.962,12.486,3.24Z" fill="#80553c"/>
              </g>
            </g>
            <g id="Group_105443" data-name="Group 105443" transform="translate(5.63 6.32)">
              <g id="Group_105442" data-name="Group 105442" transform="translate(0 0)">
                <path id="Path_76111" data-name="Path 76111" d="M.078,1.164l.31-.1.1-.052L.621.983l.284-.1H.983L1.267.8,1.448.776l.1-.026h.1L2.069.7l.465.026L3,.827a4.273,4.273,0,0,1,.931.388l.465.336.207.181.052.026.362.362.957,1.19L7.137,5.223l.052.129L8.43,7.784l.052.078.181.388.078.1.078.181.078.129q0,.078.052.026.078,0,.026-.052L8.9,8.042l-.31-1.267L7.628,4.137,6.439,2.172,5.508,1.164a.28.28,0,0,1-.129-.1L4.965.75,4.241.336,4.086.284,3.931.207,3.775.155,3.155.026H3L2.844,0H2.56L1.629.155,1.474.233H1.422l-.1.052L1.112.362.284.853,0,1.086v.078Z" fill="#684633"/>
              </g>
            </g>
            <g id="Group_105445" data-name="Group 105445" transform="translate(3.657 1.899)">
              <g id="Group_105444" data-name="Group 105444" transform="translate(0 0)">
                <path id="Path_76112" data-name="Path 76112" d="M4.3,0,3.291.181,2.8.336,2.723.388,2.567.44,2.49.491,2.335.543,2.257.595,2.18.621,1.74.905,1.688.931l-.078.078-.052.026-.026.026-.465.362-.543.646L.447,2.2l-.1.129L.033,2.9q-.078.078.026.078H.111l.595-.543.129-.078.1-.1.129-.078.129-.1.75-.44h.026l.078-.052h.026L2.1,1.552l.491-.181.052-.026L2.8,1.293l.052-.026h.078l.155-.052h.052l.078-.026h.078l.078-.026h.052L3.5,1.138l.155-.026h.129l.31-.052h.284q.282,0,.776.052l1.215.233.284.078H6.7l.026.026h.026l.75.284.75.414a1.281,1.281,0,0,1,.336.233l.1.052.078.052.078.078.1.052.078.078.078.052.491.414.931.983.052.1.078.078,1.293,1.888v.026l.026.026.026.052.181.259L13.919,9.62q0,.078.052.026.078,0,.026-.052L12.368,6.025,12.342,6V5.973L11.23,4.06,11.1,3.879l-.052-.1L9.782,2.3l-.259-.233-.052-.026-.026-.026-.1-.078-.078-.078-.1-.078-.078-.078-.362-.259a5.6,5.6,0,0,0-.8-.491L7.093.543,7.067.517H7.041L6.886.44,6.214.233A6.452,6.452,0,0,0,5.283.052,6.151,6.151,0,0,0,4.352,0Z" fill="#9f7b67"/>
              </g>
            </g>
          </g>
          <g id="Group_105453" data-name="Group 105453" transform="translate(45.667 52.093)">
            <g id="Group_105448" data-name="Group 105448" transform="translate(0.089 0)">
              <g id="Group_105447" data-name="Group 105447" transform="translate(0 0)">
                <path id="Path_76113" data-name="Path 76113" d="M3.169,24.268q8.423,2.866,9.438-4.655l.1-1.552L9.686,14.829A37,37,0,0,1,8.781,1.021Q6.368-1.562,5.135,2.391L.583,19.665Q-1.36,23.548,3.169,24.268Z" fill="#80553c"/>
              </g>
            </g>
            <g id="Group_105450" data-name="Group 105450" transform="translate(7.565 1.072)">
              <g id="Group_105449" data-name="Group 105449" transform="translate(0 0)">
                <path id="Path_76114" data-name="Path 76114" d="M.012,9.051a32,32,0,0,0,.44,3.75Q.8,14.582.839,14.662a16.555,16.555,0,0,1,2.327,2.276,5.146,5.146,0,0,1,1.008,2.3q.246,1.345-1.267,3.569Q5.463,20.521,5.649,18.7a2.684,2.684,0,0,0-1.474-2.767q-1.656-.96-2.56-1.552l.284-.543L1.744,13.6l-.621.026.672-.052L.762,8.2l.078-3.9L1.3,0A21.988,21.988,0,0,0,.322,4.137,28.667,28.667,0,0,0,.012,9.051Z" transform="translate(0)" fill="#9f7b67"/>
              </g>
            </g>
            <g id="Group_105452" data-name="Group 105452" transform="translate(0 1.072)">
              <g id="Group_105451" data-name="Group 105451" transform="translate(0 0)">
                <path id="Path_76115" data-name="Path 76115" d="M8.43,3.75,8.4,8.43l.724,5.741a.434.434,0,0,0,.181.284v.026l.233.155,1.164,1.06,1.138,1.448.336.569.026.078a3.213,3.213,0,0,1,.31.646,2.914,2.914,0,0,1,.181.646l.026.465-.026.1V19.7l-.026.026-.026.078v.078l-.026.078-.052.078-.078.233a3.757,3.757,0,0,1-.827,1.06l-.569.44-.052.052-.1.052-.078.052-.026.026-.052.026-.362.233-.1.026L9.49,22.6l-.776.233H8.637l-.181.052-.724.1H7.525l-.181.026H6.206a14.566,14.566,0,0,1-1.5-.078,8.638,8.638,0,0,1-1.5-.207l-.181-.052-.181-.026-.284-.078-.078-.052-.336-.1-.44-.207-.078-.026-.155-.1-.155-.078L.931,21.67A.691.691,0,0,1,.7,21.411a2.694,2.694,0,0,1-.336-.621l-.078-.724.129-.75.259-.724q.052-.052-.026-.052-.052-.052-.052.026a3.872,3.872,0,0,0-.362.7l-.207.672L0,20.454l.026.414.31.776.259.336.621.543q.052.052.078.052l.078.052.078.078.931.44.672.207a11.589,11.589,0,0,0,1.552.336q.543.078,1.577.155l1.4.026.207-.026H7.99l.8-.1.1-.026H9l.8-.207.207-.078.026-.026h.052l.776-.336.078-.052.388-.207.026-.026.052-.026.155-.1h.026v-.026h.026l.052-.052a5.485,5.485,0,0,0,.672-.491l.595-.621a4.6,4.6,0,0,0,.465-.75l.1-.207.026-.1.052-.1.026-.1.052-.1.026-.129v-.052l.026-.052.026-.1v-.129l.026-.233-.026-.491a3.564,3.564,0,0,0-.259-.853l-.414-.853-.052-.078-.078-.181-.7-1.008-1.086-1.215-1.008-.853-.078-.052-.026-.026L9.464,10.55,8.921,4.422l.026-4.4L8.921,0,8.87.026Z" fill="#684633"/>
              </g>
            </g>
          </g>
          <g id="Group_105472" data-name="Group 105472" transform="translate(29.722 53.424)">
            <g id="Group_105458" data-name="Group 105458" transform="translate(30.394 2.785)">
              <g id="Group_105455" data-name="Group 105455" transform="translate(0 0)">
                <g id="Group_105454" data-name="Group 105454" transform="translate(0)">
                  <path id="Path_76116" data-name="Path 76116" d="M6.3,4.113A4.644,4.644,0,0,0,5.37,1.2,2.72,2.72,0,0,0,3.15,0,2.761,2.761,0,0,0,.916,1.2,4.7,4.7,0,0,0,0,4.113a4.631,4.631,0,0,0,.916,2.9A2.751,2.751,0,0,0,3.15,8.225,2.71,2.71,0,0,0,5.37,7.015,4.579,4.579,0,0,0,6.3,4.113Z" fill="#231915"/>
                </g>
              </g>
              <g id="Group_105457" data-name="Group 105457" transform="translate(1.132 3.289)">
                <g id="Group_105456" data-name="Group 105456" transform="translate(0 0)">
                  <path id="Path_76117" data-name="Path 76117" d="M1.522.963a1.169,1.169,0,0,0-.248-.7A.622.622,0,0,0,.73,0,.664.664,0,0,0,.2.3a1.2,1.2,0,0,0-.2.729,1.056,1.056,0,0,0,.248.683.65.65,0,0,0,.559.279.615.615,0,0,0,.512-.31A1.1,1.1,0,0,0,1.522.963Z" fill="#fff"/>
                </g>
              </g>
            </g>
            <g id="Group_105460" data-name="Group 105460" transform="translate(24.985 1.533)">
              <g id="Group_105459" data-name="Group 105459" transform="translate(0 0)">
                <path id="Path_76118" data-name="Path 76118" d="M12.857,2.128Q11.932.072,4.6,0-1.691,1.925.622,6.2A7.921,7.921,0,0,1,5.5,3.5a8.252,8.252,0,0,1,6.6,2.1A2.693,2.693,0,0,0,12.857,2.128Z" transform="translate(0)" fill="#80553c"/>
              </g>
            </g>
            <g id="Group_105462" data-name="Group 105462" transform="translate(25.628 4.037)">
              <g id="Group_105461" data-name="Group 105461" transform="translate(0 0)">
                <path id="Path_76119" data-name="Path 76119" d="M9.992,2.5l.125.125.156.094.532.407.782.72h.094V3.755l-.125-.313-.063-.094-.125-.25-.626-.876-.688-.751L9.21.845,9.054.751,8.96.72,8.709.563,8.522.5,8.365.407,7.614.156H7.52L7.3.094H7.207L7.051.063H6.926L6.832.031H6.456L6.269,0H5.893L5.705.031H5.33L4.2.25,3.14.626l-1.283.782-.282.25-.063.031-.375.469-.063.063-.031.063-.094.125L.73,2.628l-.094.125L.6,2.816l-.063.063L.01,3.63q-.031.031.031.094H.1l.782-.532.125-.063.469-.375.063-.031.063-.063.469-.375,1.471-.626L3.7,1.627l.156-.063L5.3,1.283h.313l.156-.031h.814l.156.031h.156l.188.031h.125l.094.031h.063l.469.094.125.063.156.031.751.313.845.469.219.156Z" fill="#231915"/>
              </g>
            </g>
            <g id="Group_105467" data-name="Group 105467" transform="translate(7.301 2.628)">
              <g id="Group_105464" data-name="Group 105464" transform="translate(0 0)">
                <g id="Group_105463" data-name="Group 105463">
                  <path id="Path_76120" data-name="Path 76120" d="M6.3,4.113A4.644,4.644,0,0,0,5.37,1.2,2.72,2.72,0,0,0,3.15,0,2.761,2.761,0,0,0,.916,1.2,4.7,4.7,0,0,0,0,4.113a4.631,4.631,0,0,0,.916,2.9A2.751,2.751,0,0,0,3.15,8.225,2.71,2.71,0,0,0,5.37,7.015,4.579,4.579,0,0,0,6.3,4.113Z" fill="#231915"/>
                </g>
              </g>
              <g id="Group_105466" data-name="Group 105466" transform="translate(1.132 3.289)">
                <g id="Group_105465" data-name="Group 105465" transform="translate(0 0)">
                  <path id="Path_76121" data-name="Path 76121" d="M1.522.963a1.169,1.169,0,0,0-.248-.7A.622.622,0,0,0,.73,0,.664.664,0,0,0,.2.3a1.2,1.2,0,0,0-.2.729,1.056,1.056,0,0,0,.248.683.65.65,0,0,0,.559.279.615.615,0,0,0,.512-.31A1.1,1.1,0,0,0,1.522.963Z" fill="#fff"/>
                </g>
              </g>
            </g>
            <g id="Group_105469" data-name="Group 105469" transform="translate(0.355 0)">
              <g id="Group_105468" data-name="Group 105468" transform="translate(0 0)">
                <path id="Path_76122" data-name="Path 76122" d="M6.978,0A16.571,16.571,0,0,0,5.194,1.033,14.133,14.133,0,0,0,0,6.759q.876-.72,1.784-1.408a6.9,6.9,0,0,1,6.29-1.314,32.42,32.42,0,0,1,6.853,2.5,4.2,4.2,0,0,0-1.533-2.128A68.439,68.439,0,0,0,6.978,0Z" fill="#80553c"/>
              </g>
            </g>
            <g id="Group_105471" data-name="Group 105471" transform="translate(0 3.129)">
              <g id="Group_105470" data-name="Group 105470" transform="translate(0 0)">
                <path id="Path_76123" data-name="Path 76123" d="M5.33.125,4.141.469,4.016.532,3.891.563A7.321,7.321,0,0,0,3.014.97L2.983,1l-.063.031L2.827,1.1,2.7,1.158,2.2,1.5l-.72.626-.031.031V2.19l-.188.219L.229,3.818l-.063.156-.156.25q-.031.031.031.094H.073l.25-.188.125-.125L1.763,2.879l.219-.219-.031.063L2.7,2.253l.375-.188L3.171,2,3.3,1.971l.094-.063h.031l.25-.125h.063l.031-.031.219-.063.031-.031h.063l.313-.125h.094l.532-.156h.094L6.144,1.22l.751-.031.125.031h.657l.407.063h.125l.094.031h.219l.219.031.219.063.407.063L9.8,1.6h.031l.063.031.094.031.219.031.814.282.407.188.219.063.094.063.094.031.814.407.188.125.188.094,1.909,1.252q.031.031.094-.031V4.1l-.282-.375-.97-1.033-1.1-.907-.375-.25-.125-.063L11.9,1.283,10.587.626,9.679.375,9.429.282,7.99.031H7.771L7.646,0H6.8a6,6,0,0,0-1,.063Z" fill="#231915"/>
              </g>
            </g>
          </g>
          <g id="Group_105482" data-name="Group 105482" transform="translate(46.92 80.534)">
            <g id="Group_105474" data-name="Group 105474" transform="translate(2.072 3.036)">
              <g id="Group_105473" data-name="Group 105473" transform="translate(0 0)">
                <path id="Path_76124" data-name="Path 76124" d="M.26,1.064Q-1.018,6.819,3.984,5.5A4.769,4.769,0,0,1,5.413,1.891Q3.645-1.419.26,1.064Z" fill="#712024"/>
              </g>
            </g>
            <g id="Group_105476" data-name="Group 105476" transform="translate(1.888 6.681)">
              <g id="Group_105475" data-name="Group 105475" transform="translate(0 0)">
                <path id="Path_76125" data-name="Path 76125" d="M3.554,1.9q.186-.2-.028-.729Q3.323.672,2.2.282A3.673,3.673,0,0,0,.53.024Q-.028.161,0,.486a1.472,1.472,0,0,0,.539.756,5.909,5.909,0,0,0,1,.708,1.922,1.922,0,0,0,1.2.253Q3.415,2.133,3.554,1.9Z" fill="#fdb4b8"/>
              </g>
            </g>
            <g id="Group_105479" data-name="Group 105479" transform="translate(0 0)">
              <g id="Group_105477" data-name="Group 105477" transform="translate(0.923 0)">
                <path id="Path_76126" data-name="Path 76126" d="M6.486,4.664A3.4,3.4,0,0,0,6.825,2.52,2.76,2.76,0,0,0,5.132.15,3.1,3.1,0,0,0,2.048.94,5.376,5.376,0,0,0,.167,3.611,3.4,3.4,0,0,0,.619,6.62Q3.4.892,6.486,4.664Z" transform="translate(0)" fill="#684633"/>
              </g>
              <g id="Group_105478" data-name="Group 105478" transform="translate(0 9.328)">
                <path id="Path_76127" data-name="Path 76127" d="M6.394,0,6.357.038,6.018,1.053,5.98,1.2l-.075.113-.113.3-.339.527-.226.226-.263.188-.3.15a2.065,2.065,0,0,1-.677.075L3.31,2.708l-.188-.075L2.934,2.6.3,1.429.188,1.392.113,1.354Q0,1.241,0,1.392v.075l.075.075L1.354,2.558l.978.564.6.226.188.038a4.106,4.106,0,0,0,.865.15,2.74,2.74,0,0,0,.94-.15l.414-.226.376-.3a2.442,2.442,0,0,0,.451-.715l.226-.677.038-.3.038-.15L6.507.15,6.469.075Z" transform="translate(0 0)" fill="#684633"/>
              </g>
            </g>
            <g id="Group_105481" data-name="Group 105481" transform="translate(1.392 2.708)">
              <g id="Group_105480" data-name="Group 105480" transform="translate(0 0)">
                <path id="Path_76128" data-name="Path 76128" d="M2.182.188,2.106.226,1.993.263,1.768.376,1.73.414H1.693L1.617.489H1.58L1.542.527,1.392.6H1.354V.639L1.316.677,1.241.715.94.94l-.226.226-.038.075-.15.15L.414,1.58l-.075.188-.075.075-.038.075-.038.113L.15,2.106.075,2.52l-.038.038L0,3.235l.038.188v.188l.15.715.075.15.038.15v.038L.339,4.7v.075l.3.639.113.15.527.527.6.3.527.075a2.735,2.735,0,0,0,.978-.113l.94-.3.15-.113.15-.075.038-.075q0-.113-.075-.038h-.15l-.188.038H4.137l-.15.038-.865.038L2.934,5.83H2.708L2.52,5.792l-.376-.15-.339-.263a2.137,2.137,0,0,1-.451-.752v-.15L1.316,4.4V4.325l-.038-.15L1.241,4.1V4.025l-.075-.263L1.128,3.5V2.934l.038-.113V2.67L1.2,2.558l.038-.075V2.407l.038-.038.038-.075V2.257l.15-.226.075-.075.038-.075.3-.3.075-.038L1.993,1.5l.226-.15.038-.038h.038V1.279L2.407,1.2l.15-.038.113-.075A2.615,2.615,0,0,1,3.611.9h.226L3.949.94H4.1V.978h.15l.075.038H4.4l.113.038.038.038h.075L4.89,1.2l.15.113.075.038.075.075a1.876,1.876,0,0,1,.451.451l.075.113.038.075.113.15.075.15q0,.113.075.038.113,0,.038-.075v-.15L5.943,1.73a1.806,1.806,0,0,0-.376-.677L5.491.978,5.416.865l-.6-.451L4.664.339,4.551.263H4.476L4.4.226,4.363.188H4.288l-.6-.15A4.473,4.473,0,0,0,3.009,0a2.419,2.419,0,0,0-.715.15Z" fill="#231915"/>
              </g>
            </g>
          </g>
          <g id="Group_105485" data-name="Group 105485" transform="matrix(0.896, -0.444, 0.444, 0.896, 23.432, 50.005)">
            <g id="Group_105484" data-name="Group 105484" transform="translate(0 0)">
              <g id="Group_105483" data-name="Group 105483" transform="translate(0 0)">
                <path id="Path_76129" data-name="Path 76129" d="M13.244.233A16.948,16.948,0,0,0,5.707.646a9.99,9.99,0,0,0-1.768.75A9.99,9.99,0,0,0,2.047,2.87a10.511,10.511,0,0,0-.713.776L0,5.663,2.109,4.241A16.438,16.438,0,0,1,9.3,2.767a23.045,23.045,0,0,1,6.545.853q2.2.621,2.636.336a1,1,0,0,0,.434-1.267l-.031-.078a2.223,2.223,0,0,0-1.21-1.189A16.614,16.614,0,0,0,13.244.233Z" fill="#140e0e"/>
              </g>
            </g>
          </g>
          <g id="Group_105488" data-name="Group 105488" transform="matrix(-0.833, -0.553, 0.553, -0.833, 69.896, 54.404)">
            <g id="Group_105487" data-name="Group 105487" transform="translate(0 0)">
              <g id="Group_105486" data-name="Group 105486">
                <path id="Path_76130" data-name="Path 76130" d="M9.9,4.884a10.608,10.608,0,0,1-5.633-.372,6.856,6.856,0,0,1-1.321-.674A7.844,7.844,0,0,1,1.53,2.512q-.276-.326-.533-.7L0,0,1.576,1.279A10.552,10.552,0,0,0,6.955,2.6a14.508,14.508,0,0,0,4.891-.768q1.646-.558,1.97-.3a1,1,0,0,1,.325,1.14l-.023.07a1.863,1.863,0,0,1-.9,1.07A10.822,10.822,0,0,1,9.9,4.884Z" fill="#140e0e"/>
              </g>
            </g>
          </g>
          <g id="Group_105490" data-name="Group 105490" transform="translate(28.367 73.103)">
            <g id="Group_105489" data-name="Group 105489" transform="translate(0 0)">
              <path id="Path_76131" data-name="Path 76131" d="M3.1,2.327V3.1h.776M3.1,3.1v.776m3.1-.776-3.1,3.1L0,3.1,3.1,0Zm-3.879,0H3.1" transform="translate(0)" fill="none" stroke="rgba(0,0,0,0)" stroke-linecap="round" stroke-linejoin="round" stroke-width="0.083"/>
            </g>
          </g>
        </g>
      </g>
    </g>
  </g>
</svg>
