<svg xmlns="http://www.w3.org/2000/svg" xmlns:xlink="http://www.w3.org/1999/xlink" width="375" height="270" viewBox="0 0 375 270">
  <defs>
    <clipPath id="clip-path">
      <rect id="Rectangle_8681" data-name="Rectangle 8681" width="375" height="270" transform="translate(14284 -12887)" fill="#fff" stroke="#707070" stroke-width="1" opacity="0.59"/>
    </clipPath>
    <clipPath id="clip-path-2">
      <path id="Path_76047" data-name="Path 76047" d="M3284.979-5455.688s7.61-.119,17.742-.589,24.106-1.093,24.106-1.093,3.246,4.188,9.729,2.291a24.528,24.528,0,0,0,6.33-3.022c1.514-.833,2.933-1.489,2.933-1.489s3.511.038,5.672,1.611a22.606,22.606,0,0,1,3.138,2.447c.011.015,1.719-.4,1.719-.4s-1.119,2.166,2.417,3.178a6.775,6.775,0,0,0,3.224-.551s.6,3.026,3.218,2.342,14.652-10.566,14.652-10.566a56.759,56.759,0,0,0,8.852,0,72.479,72.479,0,0,0,9.4-1.568s8.073.986,37.861,5.35c8.906,1.3,55.784,2.057,55.784,2.057l-27.295-94.436-37-34.59-139.172-5.135-32.2,31.043s-31.572,48.2-32.079,74.858c-.212,11.142,10.546,22.262,23.373,26.578C3264.654-5451.557,3284.979-5455.688,3284.979-5455.688Z" transform="translate(-3167 5797)" fill="#fff" stroke="#fff" stroke-linecap="round" stroke-width="0.5"/>
    </clipPath>
    <linearGradient id="linear-gradient" x1="0.543" y1="0.007" x2="0.511" y2="0.895" gradientUnits="objectBoundingBox">
      <stop offset="0" stop-color="#4d4343"/>
      <stop offset="1" stop-color="#252020"/>
    </linearGradient>
  </defs>
  <g id="Mask_Group_16642" data-name="Mask Group 16642" transform="translate(-14284 12887)" clip-path="url(#clip-path)">
    <g id="Mask_Group_16625" data-name="Mask Group 16625" transform="translate(14284 -12987)" clip-path="url(#clip-path-2)">
      <g id="male_teen_DS_1" data-name="male teen DS 1" transform="matrix(-0.999, 0.035, -0.035, -0.999, 325.202, 455.973)">
        <g id="Group_105143" data-name="Group 105143" transform="matrix(-0.284, -0.959, 0.959, -0.284, 141.112, 173.927)">
          <g id="Group_105132" data-name="Group 105132" transform="translate(0.031 56.202)">
            <g id="Group_105131" data-name="Group 105131" transform="translate(0 0)">
              <path id="Path_75967" data-name="Path 75967" d="M34.346,5.246,10.366,0Q5.282,22.887.531,39.31H.562A11.656,11.656,0,0,0,0,42.964a10.628,10.628,0,0,0,3.216,7.806,10.679,10.679,0,0,0,7.837,3.247,10.577,10.577,0,0,0,7.806-3.247A10.739,10.739,0,0,0,21.451,46.8,210.509,210.509,0,0,0,34.346,5.246Z" fill="#80553c"/>
            </g>
          </g>
          <g id="Group_105135" data-name="Group 105135" transform="translate(7.65 57.233)">
            <g id="Group_105134" data-name="Group 105134" transform="translate(0 0)">
              <g id="Group_105133" data-name="Group 105133" transform="translate(0 0)">
                <path id="Path_75968" data-name="Path 75968" d="M2.873,0,0,11.053q13.973,4.557,25.01,1.436l2.248-9.867Z" fill="#684633"/>
              </g>
            </g>
          </g>
          <g id="Group_105137" data-name="Group 105137" transform="translate(0 0)">
            <g id="Group_105136" data-name="Group 105136" transform="translate(0 0)">
              <path id="Path_75969" data-name="Path 75969" d="M23.73,5.37a17.646,17.646,0,0,0-5.152,9.9h-.031Q14.343,35.462,0,59.262q13.489,15.331,41.59,6.307A125.962,125.962,0,0,0,54.766,21.482a19.356,19.356,0,0,0,.25-3.154A17.658,17.658,0,0,0,49.645,5.37,17.658,17.658,0,0,0,36.688,0,17.658,17.658,0,0,0,23.73,5.37Z" fill="#7a2230"/>
            </g>
          </g>
          <g id="Group_105140" data-name="Group 105140" transform="translate(0.843 13.083)">
            <g id="Group_105139" data-name="Group 105139" transform="translate(0 0)">
              <g id="Group_105138" data-name="Group 105138" transform="translate(0 0)">
                <path id="Path_75970" data-name="Path 75970" d="M40.622,52.393q9.017-17.748,11.459-31.661T53.673,0Q48.521,38.748,37.312,48.771,26.134,58.825,0,47.023,13.206,61.372,40.622,52.393Z" fill="#4b0f18"/>
              </g>
            </g>
          </g>
          <g id="Group_105142" data-name="Group 105142" transform="translate(32.941 14.581)">
            <g id="Group_105141" data-name="Group 105141" transform="translate(0 0)">
              <path id="Path_75971" data-name="Path 75971" d="M3.747,2.81v.937h.937m-.937,0v.937m3.747-.937L3.747,7.494,0,3.747,3.747,0Zm-4.684,0h.937" fill="none" stroke="rgba(0,0,0,0)" stroke-linecap="round" stroke-linejoin="round" stroke-width="0.108"/>
            </g>
          </g>
        </g>
        <g id="Group_105146" data-name="Group 105146" transform="matrix(1, 0.014, -0.014, 1, 40.936, 0)">
          <g id="Group_105145" data-name="Group 105145" transform="translate(43.965 0)">
            <g id="Group_105144" data-name="Group 105144" transform="translate(0 0)">
              <path id="Path_75972" data-name="Path 75972" d="M3.747,4.684V3.747h.937m-.937,0V2.81m3.747.937L3.747,0,0,3.747,3.747,7.494Zm-4.684,0h.937" transform="translate(0)" fill="none" stroke="rgba(0,0,0,0)" stroke-linecap="round" stroke-linejoin="round" stroke-width="0.108"/>
            </g>
          </g>
        </g>
        <g id="Group_105151" data-name="Group 105151" transform="matrix(0.543, -0.84, 0.84, 0.543, 89.465, 153.242)">
          <g id="Group_105148" data-name="Group 105148" transform="translate(0 11.022)">
            <g id="Group_105147" data-name="Group 105147" transform="translate(0 0)">
              <path id="Path_75973" data-name="Path 75973" d="M25.072,0l.094,7.837A18.034,18.034,0,0,0,22.23,9.023a42.442,42.442,0,0,0-5.839,3.715,51.173,51.173,0,0,0-5.277,4.59,28.453,28.453,0,0,0-4.34,5.62q-1.9,3.185-3.341,6.151A55.037,55.037,0,0,0,.812,35.469L0,.375Z" transform="translate(0 0)" fill="#80553c"/>
              <path id="Path_75974" data-name="Path 75974" d="M24.135,37.654h-.156a11.447,11.447,0,0,1-3.466,7.587,11.489,11.489,0,0,1-8.43,3.5,11.629,11.629,0,0,1-8.493-3.5A11.578,11.578,0,0,1,.125,36.78q0-.343.031-.687L0,27.632a55.037,55.037,0,0,1,2.623-6.369Q4.059,18.3,5.964,15.112a28.453,28.453,0,0,1,4.34-5.62A51.172,51.172,0,0,1,15.58,4.9a42.443,42.443,0,0,1,5.839-3.715A18.034,18.034,0,0,1,24.354,0Z" transform="translate(0.812 7.837)" fill="#684633"/>
            </g>
          </g>
          <g id="Group_105150" data-name="Group 105150" transform="translate(7.774 0)">
            <g id="Group_105149" data-name="Group 105149" transform="translate(0 0)">
              <path id="Path_75975" data-name="Path 75975" d="M3.747,4.683V3.747h.937m-.937,0V2.81m3.747.937L3.747,0,0,3.747,3.747,7.493Zm-4.683,0h.937" fill="none" stroke="rgba(0,0,0,0)" stroke-linecap="round" stroke-linejoin="round" stroke-width="0.108"/>
            </g>
          </g>
        </g>
        <g id="Group_105174" data-name="Group 105174" transform="translate(36.297 99.101) rotate(-26.681)">
          <g id="Group_105153" data-name="Group 105153" transform="translate(9.836 2.685)">
            <g id="Group_105152" data-name="Group 105152" transform="translate(0 0)">
              <path id="Path_75976" data-name="Path 75976" d="M87.43,70.974A21.75,21.75,0,0,1,84.12,81.9q-3.012,4.767-10.3,7.681a63.545,63.545,0,0,0-9.992,4.684q-2.548-6.775-10.866-11.616-8.284-4.871-14.52,1.5-6.211,6.339-7.775,7.681a13.327,13.327,0,0,0-2.9,3.841A51.869,51.869,0,0,1,21.2,93.862q-5.494-1.726-10.991-3.528A65.185,65.185,0,0,1,0,85.931L8.243,0q3.247,4.434,6.807,8.587Q18.235,12.3,21.733,15.8l1.311,1.311,1.311,1.249q2.529,2.311,5.246,4.4a52.605,52.605,0,0,0,10.46,6.151,33.211,33.211,0,0,0,10.273,2.623,31.431,31.431,0,0,0,10.148-.906C64,29.653,83.777,40.891,86.109,37.518Z" fill="#ede6de"/>
            </g>
          </g>
          <g id="Group_105155" data-name="Group 105155" transform="translate(0.312 54.238)">
            <g id="Group_105154" data-name="Group 105154" transform="translate(0 0)">
              <path id="Path_75977" data-name="Path 75977" d="M36.658,18.329a17.659,17.659,0,0,1-5.371,12.958,17.659,17.659,0,0,1-12.958,5.371A17.659,17.659,0,0,1,5.371,31.287,17.659,17.659,0,0,1,0,18.329,17.659,17.659,0,0,1,5.371,5.371,17.659,17.659,0,0,1,18.329,0,17.659,17.659,0,0,1,31.287,5.371,17.658,17.658,0,0,1,36.658,18.329Z" transform="translate(0 0)" fill="#ede6de"/>
            </g>
          </g>
          <g id="Group_105158" data-name="Group 105158" transform="translate(12.896 2.373)">
            <g id="Group_105157" data-name="Group 105157" transform="translate(0 0)">
              <g id="Group_105156" data-name="Group 105156" transform="translate(0 0)">
                <path id="Path_75978" data-name="Path 75978" d="M16.3,55.331Q.031,52.677,0,52.708L5.121,0l10.96,13.489Z" fill="#dad0c5"/>
              </g>
            </g>
          </g>
          <g id="Group_105163" data-name="Group 105163" transform="translate(0 54.238)">
            <g id="Group_105160" data-name="Group 105160" transform="translate(0 0)">
              <g id="Group_105159" data-name="Group 105159" transform="translate(0 0)">
                <path id="Path_75979" data-name="Path 75979" d="M37.47,18.048A89.823,89.823,0,0,0,43.278,37.1l-7.307,6.557A160.923,160.923,0,0,1,12.49,35.878Q.605,31.043,0,17.236,1.662,6.747,9.555,2.342l.593-.312q.4-.221.781-.406.085-.037.156-.062l.531-.219A16.907,16.907,0,0,1,16.768.094,18.639,18.639,0,0,1,18.641,0,17.659,17.659,0,0,1,31.6,5.371a17.233,17.233,0,0,1,1.311,1.468Q36.2,10.4,37.47,18.048Z" fill="#7a2230"/>
              </g>
            </g>
            <g id="Group_105162" data-name="Group 105162" transform="translate(71.755 7.806)">
              <g id="Group_105161" data-name="Group 105161" transform="translate(0 0)">
                <path id="Path_75980" data-name="Path 75980" d="M12.552,23.106q5.975-4.743,10.086-14.52Q24.555,4.065,25.979,0a84.119,84.119,0,0,0-.125,9.867,25.048,25.048,0,0,1-.531,6.745q-.256,3.117-3.685,6.776a23.43,23.43,0,0,1-7.837,6A63.453,63.453,0,0,0,2.935,34.6L0,29.851A37.445,37.445,0,0,0,12.552,23.106Z" fill="#7a2230"/>
              </g>
            </g>
          </g>
          <g id="Group_105165" data-name="Group 105165" transform="translate(54.144 88.242)">
            <g id="Group_105164" data-name="Group 105164" transform="translate(0 0)">
              <path id="Path_75981" data-name="Path 75981" d="M12.24,4.153l-.187-.094-.593-.375L8.743,2.342,4.715,1.093l-.187-.031L4.34,1,.062.312H.031L0,.25.031.219.281.156,1.967.031,2.123,0,4.278.062l.406.062H4.9L6.651.437,8.493.968a14.585,14.585,0,0,1,1.842.718l.906.468L14.02,4.028l2.436,2.467,1.062,1.5.125.156.219.406.125.187q.031.031-.031.094h-.062l-.156-.187L16.424,7.4,16.3,7.307l-.375-.343L15.8,6.869l-.25-.25Z" fill="#684633"/>
            </g>
          </g>
          <g id="Group_105167" data-name="Group 105167" transform="translate(44.402 81.957)">
            <g id="Group_105166" data-name="Group 105166" transform="translate(0 0)">
              <path id="Path_75982" data-name="Path 75982" d="M19.953,3.725l-.687-.281-.25-.062a21.054,21.054,0,0,0-2.092-.656q-.937-.25-1.093-.281L14.145,2.1h-.156l-.125-.031L11.21,1.882l-.156-.031-.125.031h-.874l-1.717.156-2.9.624L2.279,3.818,1.124,4.38l-.25.094L.687,4.6.094,4.88Q0,4.974,0,4.849V4.786L1.9,3.131l.156-.094.687-.5L5.527,1.1h.062L6.838.665,6.994.633,7.119.571,7.432.509A13.074,13.074,0,0,1,9.9.071,16.039,16.039,0,0,1,12.521.04l.968.094,2.779.593.312.094.125.062.156.031.593.219a20.7,20.7,0,0,1,2.123.906l1.78,1a15.379,15.379,0,0,1,1.436.968L24.73,5.6v.094h-.094L22.825,4.88l-.094-.031-.687-.312-.187-.062L21.67,4.38,20.2,3.787Z" transform="translate(0)" fill="#dad0c5"/>
            </g>
          </g>
          <g id="Group_105169" data-name="Group 105169" transform="translate(34.223 83.409)">
            <g id="Group_105168" data-name="Group 105168" transform="translate(0 0)">
              <path id="Path_75983" data-name="Path 75983" d="M26.26.618a22.683,22.683,0,0,1,9.867,4.621,19.848,19.848,0,0,1,3.216,3.4,10.832,10.832,0,0,1,1.811,3.966q-.25,1.592-1.5,1.686a2.612,2.612,0,0,1-2.373-1.468,21.547,21.547,0,0,0-3.966-4.184,12.961,12.961,0,0,0-4.153-2.248A28.354,28.354,0,0,0,24.48,5.333a18.225,18.225,0,0,0-10.773,1.28A17.968,17.968,0,0,0,5.714,13.42,6.3,6.3,0,0,1,4.34,15.512a2.847,2.847,0,0,1-2.123.843q-1.249,0-2.217-1.78A30.632,30.632,0,0,1,4.934,6.519a17.023,17.023,0,0,1,10.429-6A26.334,26.334,0,0,1,26.26.618Z" transform="translate(0 0)" fill="#7a2230"/>
            </g>
          </g>
          <g id="Group_105171" data-name="Group 105171" transform="translate(34.322 83.339)">
            <g id="Group_105170" data-name="Group 105170" transform="translate(0 0)">
              <path id="Path_75984" data-name="Path 75984" d="M23.038.125q1.187.125,2.841.406l3.31.874,1.873.812.375.219q.094,0,.031.062,0,.094-.062.031L31.281,2.5l-.5-.187-.25-.062-.156-.062-.5-.125q-.375-.125-1.78-.437l-6.62-.562-3.622.219-2.9.562-1.624.5a23.146,23.146,0,0,0-3.091,1.374L8.83,4.559q-.781.531-1.311.968l-.187.094-.125.125L6.894,6l-2.9,2.873L.119,14.457q0,.094-.062.031-.094,0-.031-.062l.625-1.5q.531-1.124.843-1.655L2.742,9.18A23.473,23.473,0,0,1,4.49,6.9L5.583,5.745A14.031,14.031,0,0,1,6.8,4.653,15.256,15.256,0,0,1,8.175,3.591l1.468-.937,3.279-1.5a28.615,28.615,0,0,1,3.5-.874l.843-.125L21.477,0Z" fill="#4b0f18"/>
            </g>
          </g>
          <g id="Group_105173" data-name="Group 105173" transform="translate(55.237 0)">
            <g id="Group_105172" data-name="Group 105172" transform="translate(0 0)">
              <path id="Path_75985" data-name="Path 75985" d="M3.747,4.684V3.747h.937m-.937,0V2.81m3.747.937L3.747,0,0,3.747,3.747,7.494Zm-4.684,0h.937" transform="translate(0)" fill="none" stroke="rgba(0,0,0,0)" stroke-linecap="round" stroke-linejoin="round" stroke-width="0.108"/>
            </g>
          </g>
        </g>
        <g id="Group_105187" data-name="Group 105187" transform="translate(0 127.719) rotate(-49.083)">
          <g id="Group_105176" data-name="Group 105176" transform="translate(0.031 0)">
            <g id="Group_105175" data-name="Group 105175" transform="translate(0 0)">
              <path id="Path_75986" data-name="Path 75986" d="M34.344,48.768,10.366,54.014Q5.282,31.128.531,14.705H.562A11.656,11.656,0,0,1,0,11.052,10.628,10.628,0,0,1,3.216,3.247,10.679,10.679,0,0,1,11.052,0a10.576,10.576,0,0,1,7.805,3.247,10.738,10.738,0,0,1,2.591,3.965A210.5,210.5,0,0,1,34.344,48.768Z" transform="translate(0)" fill="#80553c"/>
            </g>
          </g>
          <g id="Group_105179" data-name="Group 105179" transform="translate(7.649 39.226)">
            <g id="Group_105178" data-name="Group 105178" transform="translate(0 0)">
              <g id="Group_105177" data-name="Group 105177">
                <path id="Path_75987" data-name="Path 75987" d="M2.872,13.757,0,2.7Q13.972-1.852,25.009,1.268l2.248,9.866Z" fill="#684633"/>
              </g>
            </g>
          </g>
          <g id="Group_105181" data-name="Group 105181" transform="translate(0 41.304)">
            <g id="Group_105180" data-name="Group 105180" transform="translate(0 0)">
              <path id="Path_75988" data-name="Path 75988" d="M23.728,63.539a17.645,17.645,0,0,1-5.152-9.9h-.031Q14.342,33.449,0,9.65,13.488-5.68,41.587,3.343A125.954,125.954,0,0,1,54.763,47.428a19.356,19.356,0,0,1,.25,3.153,17.657,17.657,0,0,1-5.37,12.957,17.657,17.657,0,0,1-12.957,5.37A17.657,17.657,0,0,1,23.728,63.539Z" fill="#7a2230"/>
            </g>
          </g>
          <g id="Group_105184" data-name="Group 105184" transform="translate(0.843 41.285)">
            <g id="Group_105183" data-name="Group 105183" transform="translate(0 0)">
              <g id="Group_105182" data-name="Group 105182">
                <path id="Path_75989" data-name="Path 75989" d="M40.619,3.456Q49.636,21.2,52.078,35.114T53.67,55.846Q48.519,17.1,37.31,7.077,26.133-2.976,0,8.826,13.2-5.523,40.619,3.456Z" fill="#4b0f18"/>
              </g>
            </g>
          </g>
          <g id="Group_105186" data-name="Group 105186" transform="translate(32.939 88.139)">
            <g id="Group_105185" data-name="Group 105185" transform="translate(0 0)">
              <path id="Path_75990" data-name="Path 75990" d="M3.747,4.683V3.747h.937m-.937,0V2.81m3.747.937L3.747,0,0,3.747,3.747,7.493Zm-4.683,0h.937" transform="translate(0)" fill="none" stroke="rgba(0,0,0,0)" stroke-linecap="round" stroke-linejoin="round" stroke-width="0.108"/>
            </g>
          </g>
        </g>
        <g id="Group_105196" data-name="Group 105196" transform="translate(100.512 128.352) rotate(105.509)">
          <g id="Group_105189" data-name="Group 105189" transform="translate(0.094 5.234)">
            <g id="Group_105188" data-name="Group 105188" transform="translate(0 0)">
              <path id="Path_75991" data-name="Path 75991" d="M9.024,73.627A448.536,448.536,0,0,1,2.342,21.42,156,156,0,0,0,0,3.154L14.613,0a149.483,149.483,0,0,0,5.87,23.231q3.435,9.961,8.368,25.292,4.933,15.362,4.5,21.357a44.058,44.058,0,0,1-1.561,9.742L9.992,78.279Q9.461,75.937,9.024,73.627Z" transform="translate(0)" fill="#80553c"/>
            </g>
          </g>
          <g id="Group_105191" data-name="Group 105191" transform="translate(0 0)">
            <g id="Group_105190" data-name="Group 105190" transform="translate(0 0)">
              <path id="Path_75992" data-name="Path 75992" d="M15,7.5a7.223,7.223,0,0,1-2.2,5.3A7.223,7.223,0,0,1,7.5,15a7.223,7.223,0,0,1-5.3-2.2A7.223,7.223,0,0,1,0,7.5,7.223,7.223,0,0,1,2.2,2.2,7.223,7.223,0,0,1,7.5,0a7.223,7.223,0,0,1,5.3,2.2A7.223,7.223,0,0,1,15,7.5Z" fill="#80553c"/>
            </g>
          </g>
          <g id="Group_105193" data-name="Group 105193" transform="translate(1.131 14.507)">
            <g id="Group_105192" data-name="Group 105192" transform="translate(0 0)">
              <path id="Path_75993" data-name="Path 75993" d="M7.737,61.48l.375,2.748q.062.062-.031.062-.062.062-.062-.031L4.771,46.836,2.8,32.286.025.062Q-.037,0,.056,0L.119.031,7.644,60.793Q7.706,61.262,7.737,61.48Z" transform="translate(0 0)" fill="#684633"/>
            </g>
          </g>
          <g id="Group_105195" data-name="Group 105195" transform="translate(17.299 78.486)">
            <g id="Group_105194" data-name="Group 105194" transform="translate(0 0)">
              <path id="Path_75994" data-name="Path 75994" d="M3.747,4.684V3.747h.937m-.937,0V2.81m3.747.937L3.747,0,0,3.747,3.747,7.494Zm-4.684,0h.937" transform="translate(0 0)" fill="none" stroke="rgba(0,0,0,0)" stroke-linecap="round" stroke-linejoin="round" stroke-width="0.108"/>
            </g>
          </g>
        </g>
        <g id="Group_105201" data-name="Group 105201" transform="translate(128.196 109.327) rotate(67.033)">
          <g id="Group_105198" data-name="Group 105198" transform="translate(0 0)">
            <g id="Group_105197" data-name="Group 105197">
              <path id="Path_75995" data-name="Path 75995" d="M0,3.154a4.9,4.9,0,0,1,1.749,0Q9.461,18.485,9.118,24.761A138.237,138.237,0,0,0,0,3.154M8.556,1.811A4.023,4.023,0,0,1,10.3,0l4.9,22.232L8.556,1.811m11.709,10.8a15.5,15.5,0,0,1,.718,2.03,10.8,10.8,0,0,1,.062,3.747,30.439,30.439,0,0,0-.937-3.372A60.052,60.052,0,0,0,17.08,7.775q-.843-1.717-1.811-3.435-.125-.25-.281-.5l.375.125a5.942,5.942,0,0,1,.562.25q.094.031.219.062L17.08,5.9l.874,1.811a.788.788,0,0,1,.094.187Q18.7,9.18,19.3,10.46,19.921,11.865,20.265,12.615Z" transform="translate(4.356 1.825)" fill="#684633"/>
              <path id="Path_75996" data-name="Path 75996" d="M25.339,16.47a15.5,15.5,0,0,0-.718-2.03q-.343-.749-.968-2.155-.593-1.28-1.249-2.56a.788.788,0,0,0-.094-.187l-.874-1.811L20.5,6.1l-.062-.062a5.527,5.527,0,0,1,.812.656,6.419,6.419,0,0,1,.937.937q.5.5.906.937a12.945,12.945,0,0,1,2.03,2.685q.968,1.842,1.78,3.716a7.338,7.338,0,0,1,.624,2.841,10.425,10.425,0,0,1-.593,3.653q-.375,1.03-1.311,4.465v.062a67.751,67.751,0,0,1-1.842,7.244,34.081,34.081,0,0,1-7.151,12.49q-5.339,6.276-10.273,5Q-6.292,47.351,6.23,24.807,3.856,16.564,2.7,10.412,1.764,5.635,4.356,4.979a138.236,138.236,0,0,1,9.118,21.608Q13.817,20.311,6.1,4.979A4.889,4.889,0,0,1,8.322.358q2.342-1.5,4.59,3.279l6.651,20.421L14.66,1.825q2.311-.874,4.653,3.747a.127.127,0,0,0,.031.094q.156.25.281.5.968,1.717,1.811,3.435a60.051,60.051,0,0,1,3.029,7.244,30.439,30.439,0,0,1,.937,3.372A10.8,10.8,0,0,0,25.339,16.47Z" fill="#80553c"/>
            </g>
          </g>
          <g id="Group_105200" data-name="Group 105200" transform="translate(4.231 39.733)">
            <g id="Group_105199" data-name="Group 105199" transform="translate(0 0)">
              <path id="Path_75997" data-name="Path 75997" d="M3.747,4.684V3.747h.937m-.937,0V2.81m3.747.937L3.747,0,0,3.747,3.747,7.494Zm-4.684,0h.937" fill="none" stroke="rgba(0,0,0,0)" stroke-linecap="round" stroke-linejoin="round" stroke-width="0.108"/>
            </g>
          </g>
        </g>
        <g id="Group_105290" data-name="Group 105290" transform="translate(92.004 179.529) rotate(-48.583)">
          <g id="Group_105202" data-name="Group 105202" transform="translate(26.06 20.433)">
            <path id="Path_75998" data-name="Path 75998" d="M23.9,11.952a11.46,11.46,0,0,0-3.51-8.442A11.46,11.46,0,0,0,11.952,0,11.536,11.536,0,0,0,3.487,3.51,11.5,11.5,0,0,0,0,11.952a11.574,11.574,0,0,0,3.487,8.465A11.574,11.574,0,0,0,11.952,23.9a11.5,11.5,0,0,0,8.442-3.487A11.536,11.536,0,0,0,23.9,11.952Z" transform="translate(0 0)" fill="none" stroke="red" stroke-linecap="round" stroke-linejoin="round" stroke-width="0.108"/>
          </g>
          <g id="Group_105208" data-name="Group 105208" transform="translate(11.959 24.392)">
            <g id="Group_105204" data-name="Group 105204" transform="translate(0 0)">
              <g id="Group_105203" data-name="Group 105203">
                <path id="Path_75999" data-name="Path 75999" d="M62.48,66.69A35.265,35.265,0,0,1,36.6,77.4,35.265,35.265,0,0,1,10.71,66.69,35.265,35.265,0,0,1,0,40.8,35.213,35.213,0,0,1,5.589,21.227l.031-.156Q18.77,2.675,37.469.244q22.11-2.172,34.5,14.988l.812,19.64-.187-.781A37.086,37.086,0,0,1,73.19,40.8,35.265,35.265,0,0,1,62.48,66.69Z" fill="#80553c"/>
              </g>
            </g>
            <g id="Group_105207" data-name="Group 105207" transform="translate(25.635 48.995)">
              <g id="Group_105206" data-name="Group 105206" transform="translate(0 0)">
                <g id="Group_105205" data-name="Group 105205">
                  <path id="Path_76000" data-name="Path 76000" d="M29.382.834A5.726,5.726,0,0,1,33.566,3.55,8.256,8.256,0,0,1,34.69,5.892Q35.284.834,40.842.4a4.845,4.845,0,0,1,4.652,2.279,5.779,5.779,0,0,1,1.155,4.059q-.812,1.03-23.7,3.653Q0,13.043,0,11.95.031,6.392,3.06,3.144A9.287,9.287,0,0,1,8.93.116a12.53,12.53,0,0,1,9.555,2.4A15.161,15.161,0,0,1,21.826,6.2,7.741,7.741,0,0,1,24.574,2.02,6.566,6.566,0,0,1,29.382.834Z" fill="#684633"/>
                </g>
              </g>
            </g>
          </g>
          <g id="Group_105213" data-name="Group 105213" transform="translate(23.637 0)">
            <g id="Group_105210" data-name="Group 105210" transform="translate(0 0.211)">
              <g id="Group_105209" data-name="Group 105209" transform="translate(0 0)">
                <path id="Path_76001" data-name="Path 76001" d="M0,46.22Q1.374,25.237,9.18,16.9q9.9-12.677,19.64-15.487t13.489-.031Q50.271,14.5,57.515,25.456q7.244,10.991,1.873,22.107Z" fill="#80553c"/>
              </g>
            </g>
            <g id="Group_105212" data-name="Group 105212" transform="translate(15.128 0)">
              <g id="Group_105211" data-name="Group 105211" transform="translate(0 0)">
                <path id="Path_76002" data-name="Path 76002" d="M31.958,9.336q.094.094-.031.094h-.062L28.43,4.777,28.4,4.684l-.031-.062L28.274,4.5q-.624-.843-.812-1.062l-.874-.874-.156-.125-.062-.062-.062-.031L25.869,2l-.624-.343-.656-.219a3.409,3.409,0,0,0-.718-.125h-.094l-.062-.031h-.624l-6.62.624-.094.031h-.125l-3.435.843-.031.031h-.062l-.937.312a15.162,15.162,0,0,0-1.592.562L9.414,4l-.187.094-.094.031-.094.062L7.26,5.09q-1.124.624-2.5,1.5L2.732,7.993.172,10.3.109,10.4q-.031.031-.094,0-.031-.062,0-.094l.062-.094,1.686-1.78L4.512,6.214Q5.979,5.183,6.979,4.59a15.588,15.588,0,0,1,1.405-.812l.343-.219.094-.031,2.717-1.187.843-.281L12.474,2h.062l.062-.031L16.065,1h.062l.031-.031h.031l.094-.031L20.343.25q.624-.062,1.811-.187L23.965,0a5.12,5.12,0,0,1,1.842.5l.781.468.562.5.094.062,1.093,1.187A9.607,9.607,0,0,1,29.117,4l.187.312.125.281Z" transform="translate(0)" fill="#9f7b67"/>
              </g>
            </g>
          </g>
          <g id="Group_105236" data-name="Group 105236" transform="translate(0 42.996)">
            <g id="Group_105215" data-name="Group 105215" transform="translate(10.648 0)">
              <g id="Group_105214" data-name="Group 105214" transform="translate(0 0)">
                <path id="Path_76003" data-name="Path 76003" d="M0,29.226Q.281,23.45.874,18.86q.312-2.373.656-4.247,3.934.375,7.556-3.06Q13.333,7.525,14.644,0a146.093,146.093,0,0,1,.874,17.892q.062,10.491,1.53,16.362-1.873.781-8.274-1.5Q7.837,32.442,0,29.226Z" transform="translate(0)" fill="url(#linear-gradient)"/>
              </g>
            </g>
            <g id="Group_105217" data-name="Group 105217" transform="translate(0 19.609)">
              <g id="Group_105216" data-name="Group 105216" transform="translate(0 0)">
                <path id="Path_76004" data-name="Path 76004" d="M61.231,59.514a9.961,9.961,0,0,1-3.809,1.717,14.584,14.584,0,0,1-6.37-.031q-2.467-.5-4.777-3.591-.749,3.5-3.966,3.06t-5.058-4.434a2.6,2.6,0,0,1-1.5.843A2.872,2.872,0,0,1,34,56.829a4.4,4.4,0,0,1-1.624-1.155,3.079,3.079,0,0,1-.718-1.811,4.469,4.469,0,0,1-2.373,2.279,5.6,5.6,0,0,1-5.09-.219,7.653,7.653,0,0,1-3.591-3.185,6.2,6.2,0,0,1-.687-4.059,14.224,14.224,0,0,1-5.371-.749,9.049,9.049,0,0,1-4.4-2.685,15.11,15.11,0,0,1-3.154-6.12,11.953,11.953,0,0,1,.062-6.182q-1.655-.531-3.747-3.5a20.1,20.1,0,0,1-2.966-6,9.1,9.1,0,0,1,1.03-7.213,50.433,50.433,0,0,1,3.591-5.4Q4.4,7.9,6.682,4.4A12.022,12.022,0,0,1,11.4,0l.281,2.467a9.9,9.9,0,0,0,1.842,5.09A5.915,5.915,0,0,1,19.8,5.214a4.594,4.594,0,0,1,3.372,3.091,40.188,40.188,0,0,1,1.311,5.62A6.058,6.058,0,0,1,28.1,12.209a8.918,8.918,0,0,1,4.278.531,12.348,12.348,0,0,1,5.214,4.59q.781,1.811,1.187,2.9-.062-2.873,3.591-5.589a16,16,0,0,1,6.214-2.81,14.133,14.133,0,0,1,6.932.843,10.028,10.028,0,0,1,4.371,4.4q.874-1.78,4.028-2.9a8.032,8.032,0,0,1,5.371-.343,4.754,4.754,0,0,1,2.279,1.561,5.134,5.134,0,0,1,.843,2.4,5.809,5.809,0,0,1,3.435-5.09,12.656,12.656,0,0,1,3.872-.687,5.812,5.812,0,0,1,2.5.593,4.58,4.58,0,0,1,1.873,2.03A7.888,7.888,0,0,1,89.833,13.4a7.739,7.739,0,0,1,6.495,4.684,8.9,8.9,0,0,1,.437,7.65,8.27,8.27,0,0,1-3.716,4.122,5.179,5.179,0,0,1,1.374,3.716,5.748,5.748,0,0,1-.718,2.873q-2.061,3.4-6.713,3.154a7.693,7.693,0,0,1,3.247,2.685,5.924,5.924,0,0,1,1.218,5.464q-.874,3.06-4.746,4.028a12.135,12.135,0,0,1-7.182-.375,6.9,6.9,0,0,1-.437,3.185,5.093,5.093,0,0,1-2.779,2.373,7.826,7.826,0,0,1-4.34.624,5.062,5.062,0,0,1-3.279-1.967,3.745,3.745,0,0,1-2.123,1.436,2.262,2.262,0,0,1-1.624-.343,2.776,2.776,0,0,1-1.124-1.062A6.11,6.11,0,0,1,61.231,59.514Z" transform="translate(0 0)" fill="#140e0e"/>
              </g>
            </g>
            <g id="Group_105221" data-name="Group 105221" transform="translate(0 24.542)">
              <g id="Group_105218" data-name="Group 105218" transform="translate(45.4 8.025)">
                <path id="Path_76005" data-name="Path 76005" d="M14.551,3.966l.031-.062,1.811-1.936.843-.624.843-.468.094-.062.094-.031.781-.343L19.671.25,19.89.219l.219-.062h.125L20.3.125h.031l.937-.062a7.856,7.856,0,0,1,1.9.25l.219.062.437.187.125.031h.031V.624h.031l.031.031.125.031L24.2.718l.062.031.125.031.906.593.343.312a4.915,4.915,0,0,1,.624.718l.468.749.156.406.031.031v.031l.031.031.062.187v.031l.031.062.062.187v.062l.031.062V4.34l.156.749v.156l.031.094v.906L27.29,6.4v.156l-.031.125-.125.749-.125.375-.031.156-.062.125-.031.125-.094.187v.062l-.125-.031.031-.062V8.056l.031-.156V6.682L26.7,6.526V6.4l-.031-.125V6.12L26.6,5.839V5.683l-.031-.156-.031-.062-.031-.094-.062-.281-.219-.562V4.5L26.2,4.465l-.062-.156V4.278L26.1,4.215l-.062-.062-.031-.094V4.028l-.031-.062-.593-.874L24.792,2.5l-.531-.375L23.7,1.842l-.031-.031-.094-.031-.062-.031h-.031l-.094-.031L23.2,1.624l-.187-.062-.968-.219L20.421,1.28l-.031.031H20.3l-.562.094-.094.031h-.094l-.187.062-.187.031L17.08,2.4,14.832,3.872,14.676,4l-.062.031-.062-.062m35.783.375L50.3,4.278l-.312-.312L49.9,3.9,49.8,3.778l-.094-.094L49.3,3.341l-.156-.094-.687-.5-.437-.219-.094-.062-.843-.343a.754.754,0,0,0-.25-.094l-.25-.094-.125-.062-.125-.031-.156-.062-.375-.094-.094-.031-.062-.031-.281-.062h-.031l-.031-.031h-.094l-.281-.062a6.232,6.232,0,0,0-1.093-.219l-.562-.062-.062-.031-1.249-.031-.25.031H41.5l-.468.062-.125.031H40.81l-1.124.25-.656.219-.156.031-.031.031-.062-.094.062-.031.312-.312.343-.25.687-.375.187-.125L40.592.5h.062l.062-.031L41.31.25l.531-.125h.094L42,.094h.156l.281-.062h.281L42.809,0h.937l.062.031h.156l.156.031h.156l1.28.25.062.031h.062l.031.031.281.062.062.031,1.53.624.25.156.125.062.812.562.562.531a4.012,4.012,0,0,1,.531.718l.125.156.219.406.156.406.031.156.031.031-.094.062M3.279,47.18l-.562-.437-.125-.125-.062-.031L1.5,45.525l-.031-.062-.094-.094-.343-.5-.062-.125-.062-.094L.781,44.4l-.062-.094-.187-.343L.062,42.621l-.031-.187L0,42.372l.094-.031.031.062L.937,43.5,1,43.558l.062.094.156.156.312.375.062.094.624.624.062.031.437.375.094.094.375.281.062.031.062.062.624.437.281.156.156.062.125.094.156.031.406.219.094.031.437.187.094.031.281.125.937.312,1.78.406h.156l.125.031.562.062h.125l.125.031h.25a3.174,3.174,0,0,0,.5.031H12.3l.062-.031.031.125h-.062l-.156.094-.187.062-.125.062-1.53.406L9.8,48.8H9.648l-.125.031-1.9-.031L5.9,48.429l-1.03-.375-.219-.125L4.559,47.9l-1.28-.718m20.109-8.274-.062-.094-.031-.062-.062-.031.031-.094.062.031h.187l.062.031h.062l.156.031h.187l.125.031h.781l.219-.031.094-.031h.062l.25-.125h.031l.062-.031.031-.031.062-.031.343-.312.156-.219.031-.031.031-.062.062-.062.031-.062.062-.094.062-.125.062-.062v-.031l.062-.125a1.25,1.25,0,0,0,.187-.437v-.062l.031-.031v-.125l.031-.094V36.47l.031-.062v-.468l-.031-.094V35.69l-.031-.062v-.062l-.031-.094v-.062l-.031-.094.062-.031.062.031.062.062.094.062.062.031.031.062.125.125.062.094.031.031.031.062a2.027,2.027,0,0,1,.25.468l.031.062v.062l.062.156.031.343v.156l-.031.187v.094l-.031.094-.031.187-.031.062-.062.187v.062L27.54,38l-.062.187-.094.156-.031.094-.031.062-.062.062v.062h-.031v.031H27.2l-.219.312-.312.312-.156.125-.094.031-.187.125-.312.094a.9.9,0,0,1-.406.094,2.951,2.951,0,0,1-.718-.031l-.156-.062-.156-.031-.406-.187-.281-.187-.156-.156L23.512,39l-.062-.062Z" transform="translate(0 0)" fill="#493f3f"/>
              </g>
              <g id="Group_105219" data-name="Group 105219" transform="translate(0 0)">
                <path id="Path_76006" data-name="Path 76006" d="M10.96,5.4l.094-.125.094-.187L11.21,5l.062-.125L12.49,3.185l1.249-1.311.125-.094.125-.125.062-.031.062-.062.874-.624L15.862.5h.031l.968-.312L17.923,0l1.249.031.656.125.094.031h.062L20.14.25H20.2l.125.062h.031l.031.031.25.094L20.7.468l.062.062.156.062.562.437.094.094.125.094.25.25.062.094.156.156.468.562L22.7,2.4l.094.094.094.187.094.125q.031.031-.031.094h-.062l-.281-.219-.125-.062-.094-.094-.437-.281-.156-.125-.531-.343-.125-.062-.094-.062-.437-.219-.125-.031-.094-.062-.062-.031h-.062L20.14,1.28l-.031-.031h-.062l-.094-.031h-.031L19.8,1.187H19.64a3.714,3.714,0,0,0-.562-.031h-.593L17.3,1.343l-.156.062-.749.219-.062.031H16.3l-.031.031L15.581,2,13.4,3.528l-.187.187-.219.156-1.062.906-.062.031-.312.281-.125.094-.094.094-.156.094-.125.125q-.031.031-.094-.031V5.4M3.622,24.636q.094.094-.031.094H3.528L2.123,22.981,1.218,21.42.937,20.8l-.031-.031L.219,18.454l-.031-.031V18.36l-.031-.125-.031-.25V17.86l-.031-.125L0,16.768l.062-1.78.094-.749.125-.5.031-.25L.468,12.9l.062-.125L.656,12.3l.062-.094.031-.125L1.967,9.617,3.279,7.744,3.4,7.619,3.5,7.494,5.058,5.9h.094V6L4.434,7.119l-.125.25L4,7.869,3.9,7.993,2.467,10.835l-.031.094-.062.094-.906,2.966-.031.25-.031.094v.125l-.031.219-.062.219v.25a4.639,4.639,0,0,0-.062.906l-.031.219v.437l.031.25v.437l.031.219v.219l.031.219.031.125v.094l.062.437.062.219.062.406.25,1,.031.094.031.062v.031l.375,1.093,1.405,3.029M19.984,43.5a4.41,4.41,0,0,0,.593.031l1.155.062a.055.055,0,0,1,.062.062l-.031.031-.656.125L19.266,44l-1.53-.031-2.311-.375-1.655-.562-.562-.25-2.154-1.343-.406-.312L9.024,39.5l-.593-.781v-.031H8.4l-.031-.031-.031-.062-.156-.219v-.031l-.031-.031-.843-1.405-.25-.593a4.567,4.567,0,0,1-.437-1.187l-.094-.281-.062-.312-.094-.281-.031-.312-.031-.062v-.062l-.031-.156V33.5l-.094-.718.125-2.123L6.62,29.32l.062-.187.094-.187a5.974,5.974,0,0,1,.593-1.218l.656-1q.062-.031.094,0v.094l-.281.593-.062.219-.094.219A7.81,7.81,0,0,0,7.307,29.1l-.062.187-.156,1.03v.219l-.031.219.031,1.436.031.125v.125l.031.125v.125l.219,1.03a6.525,6.525,0,0,0,.312,1.062,10.235,10.235,0,0,0,1,2.092L8.743,37l.406.593.062.062.031.062.094.125.031.062.031.031v.031H9.43l.562.718.094.094A14.483,14.483,0,0,0,11.8,40.467l.937.718.125.062.343.25,1.374.718.125.031.25.125.749.281.125.031.125.062,2.717.624H18.8l.094.031.749.062h.094l.094.031h.156M42.247,20.983l-.187.125L42,21.17,41.9,21.2l-.187.125-.094-.031v-.062l.062-.094.062-.187.062-.062L42,20.483l.187-.624V19.8l.031-.094.031-.281V18.8l-.062-.343-.062-.156V18.2l-.031-.031v-.031l-.031-.094v-.031l-.031-.031-.062-.219v-.031l-.031-.031-.156-.406-.375-.531-.343-.343-.562-.343-.687-.312-.125-.031-.749-.25h-.062l-.125-.062-.094-.031a.055.055,0,0,1-.062-.062l.031-.031.125-.062.125-.031h.062l.094-.031.749-.094a.406.406,0,0,1,.312,0h.187l.562.094.624.219.094.062.094.031.094.062.125.062.375.312.468.562.406.781v.062l.031.062.062.187v.062l.031.062.031.125v.062l.031.062v.125l.031.219v.687l-.031.125V19.2l-.031.125v.062l-.031.031-.125.406-.062.094-.031.094L43,20.077l-.156.25-.062.062-.031.062-.125.156Z" transform="translate(0 0)" fill="#493f3f"/>
              </g>
              <g id="Group_105220" data-name="Group 105220" transform="translate(40.967 43.215)">
                <path id="Path_76007" data-name="Path 76007" d="M2.03,4.309H1.592L1.03,4.122.906,4.028l-.531-.5L.062,2.966.031,2.841,0,2.779l.031-.094H.094l.062.062.094.031.437.25.281.094.094.062.219.031.031.031h.125l.031.031.219-.031h.062l.062-.031h.031l.187-.094.094-.031.094-.062.094-.094L2.373,2.9l.375-.375.031-.062.062-.031.031-.062L2.9,2.342l.062-.125L3,2.186l.062-.094.062-.219.031-.031V1.717l.031-.062V1.53h.031v-.5H3.185V.937L3.154.874V.843L3.122.781V.687L3.091.656,2.81.156,2.748.094,2.779,0H2.9l.125.031.125.062L3.5.312,3.56.343l.031.031.062.031.156.156L3.9.687V.718l.031.031.031.094.094.125.125.375v.125h.031v.187l.031.125v.187l-.031.094L4.153,2.5l-.062.187-.062.094L4,2.873l-.312.468L3.5,3.528a3.851,3.851,0,0,1-.624.531l-.187.094Z" transform="translate(0 0)" fill="#493f3f"/>
              </g>
            </g>
            <g id="Group_105223" data-name="Group 105223" transform="translate(23.55 31.318)">
              <g id="Group_105222" data-name="Group 105222" transform="translate(0 0)">
                <path id="Path_76008" data-name="Path 76008" d="M15.169,11.21l-.062-.281-.094-.718-.343-1.405a.777.777,0,0,0-.094-.343l-.343-1.093-.094-.187-.062-.187L14.014,6.9l-.062-.187-.25-.5a7.317,7.317,0,0,0-.968-1.561l-.593-.718L12.078,3.9l-.687-.624-.062-.031L11.2,3.122l-.125-.062-.5-.375-.874-.5-.094-.062-.125-.031-.219-.125-.343-.125L8.8,1.78l-.125-.031-.125-.062-.718-.219L7.8,1.436H7.737L5.926,1.124a7.14,7.14,0,0,0-1.78.094l-.219.031-.406.125H3.4l-.031.031H3.3l-.468.156-.094.062-.156.062-.624.343-.094.031L1.8,2.123l-.062.031-.062.062L1.43,2.4a6.886,6.886,0,0,0-.781.781L.119,4q0,.094-.062.031-.094,0-.031-.062L.181,3.4.368,3,.431,2.9l.062-.125.156-.25L.712,2.4l.062-.062.031-.062L.9,2.154l.562-.593.25-.187.062-.062L2.211,1,2.4.906,2.492.843l.531-.25L3.054.562h.062L3.21.5,3.428.437,3.553.375,3.928.281A7.034,7.034,0,0,1,5.958,0L7.613.156,8.018.25l.062.031h.094l.781.25.156.031.25.125.125.031.781.375q.25.125,1,.562l.219.187.25.156.094.094.219.156.062.062.062.031.406.375.187.219.125.094V3.06l.031.031.062.031.187.219.062.094L13.67,4a8.978,8.978,0,0,1,.937,1.811l.062.25.094.219v.031l.031.062.219.749.031.219.062.219.125.781.125,1.842-.094,1a.055.055,0,0,1-.062.062Z" transform="translate(0 0)" fill="#493f3f"/>
              </g>
            </g>
            <g id="Group_105225" data-name="Group 105225" transform="translate(31.505 70.474)">
              <g id="Group_105224" data-name="Group 105224" transform="translate(0 0)">
                <path id="Path_76009" data-name="Path 76009" d="M3.56,6.713H3.466l-.219.031-.219-.031H2.841l-.219-.031A3.5,3.5,0,0,1,1.842,6.4H1.811L1.749,6.37l-.062-.062-.094-.031L1.5,6.214,1.405,6.12H1.374l-.031-.031L1.218,6,.937,5.714.531,5.152.375,4.871.156,4.309.094,4.028.062,3.966V3.9L.031,3.778,0,3.528V2.685L.031,2.5V2.373L.094,2.03l.062-.187.062-.031.031.062.187.937L.5,3v.094L.593,3.4l.281.624a3.06,3.06,0,0,0,.593.781l.219.219.062.031.094.094L2,5.246H2.03l.062.031.031.031.125.062h.031l.031.031.25.062h.031l.031.031h.125l.062.031h.406L3.341,5.5a1.987,1.987,0,0,0,.531-.125l.156-.062H4.09l.187-.094L4.4,5.121h.062L4.5,5.09l.062-.031L4.621,5h.062V4.965h.031L5.5,4.434,6.089,3.9l.125-.094.062-.062.031-.062.125-.094L7.057,2.9l.125-.094L8.712.937,8.774.874,8.837.781l.5-.624L9.461.031Q9.461,0,9.555,0V.062L9.336.687,8.618,2.279a5.505,5.505,0,0,1-.593,1L7.962,3.4l-.375.531-.125.125-.687.812-1.124.968-.312.187v.031q0-.03-.031,0l-.031.031-.094.031-.062.062H5.09l-.031.031H5.027L4.652,6.4l-.187.062-.187.094L4.09,6.62H3.966l-.187.062H3.684Z" transform="translate(0)" fill="#493f3f"/>
              </g>
            </g>
            <g id="Group_105227" data-name="Group 105227" transform="translate(4.844 20.189)">
              <g id="Group_105226" data-name="Group 105226" transform="translate(0 0)">
                <path id="Path_76010" data-name="Path 76010" d="M1.917,5.377l-.066.108L.367,9.914l-.04.214L.2,10.473l-.091,0-.025-.063-.054-.3,0-.128L0,9.88l.031-2.3L.271,6.291l.042-.129.019-.15.192-.538A5.336,5.336,0,0,1,.953,4.4l.9-1.536.111-.109.021-.064.045-.044.2-.239a7.006,7.006,0,0,1,.757-.786l.178-.175.92-.683L4.195.694,4.262.628,4.6.471,4.735.383,5.527.044,5.572,0,5.62.084,5.575.128,5.509.236,4.8.936l-.11.152-.134.131-.133.174-.134.131L3.6,2.415,3.511,2.5,2.742,3.693l-.108.237-.2.325-.065.151-.132.216Z" transform="translate(0 0)" fill="#493f3f"/>
              </g>
            </g>
            <g id="Group_105229" data-name="Group 105229" transform="translate(63.67 71.223)">
              <g id="Group_105228" data-name="Group 105228" transform="translate(0 0)">
                <path id="Path_76011" data-name="Path 76011" d="M4.986,4.5l-.317.375-.413.343-.451.25L3.65,5.5l-.121.062-.123.031H3.251l-.091.031H3.035l-.123.031h-.25L2.535,5.62h-.25L1.839,5.5,1.42,5.308.964,5.027.9,4.965.765,4.871l-.1-.125L.529,4.621.458,4.5.287,4.278.249,4.184A2.024,2.024,0,0,1,.073,3.9L.036,3.809,0,3.747l.058-.062.065.031.1.062.1.094L.386,3.9l.1.062.067.062.2.125L1,4.278l.127.031.259.125.6.125h.468l.06-.031h.094L2.706,4.5H2.8l.06-.031.091-.031h.094l.121-.062.091-.031.121-.062.058-.062.06-.031.266-.219.346-.406.056-.094L4.223,3.4l0-.031.029-.031.056-.094.027-.062h.031l0-.031.058-.062L4.5,2.935l.052-.156.058-.062.1-.343.027-.062.025-.094.027-.062.025-.094,0-.031L4.843,2,4.9,1.53l.027-.062-.015-.219L4.927.968,4.949.843,4.893.031,4.953,0l.036.062.069.094.1.094.076.187L5.3.531,5.34.624l.142.25.115.312.042.156.007.094.038.094.044.187.044.624-.025.094.009.125-.047.219.007.094-.045.25-.056.094-.047.219-.11.219-.023.125-.029.031,0,.031-.029.031-.056.094L5.27,4.09l-.056.094-.087.094Z" transform="translate(0)" fill="#493f3f"/>
              </g>
            </g>
            <g id="Group_105231" data-name="Group 105231" transform="translate(72.306 38.75)">
              <g id="Group_105230" data-name="Group 105230" transform="translate(0 0)">
                <path id="Path_76012" data-name="Path 76012" d="M4.117,3.841l-.054.125-.056.094L3.6,4.5l-.121.062-.089.062-.058.062-.06.031-.067-.062.054-.125-.007-.094.054-.125.038-.343.025-.094-.007-.094L3.41,3.56l-.03-.437-.093-.437-.078-.219L3.173,2.4l0-.031H3.14l0-.062L3.1,2.248l-.309-.406-.1-.094-.1-.125-.033-.031H2.523L2.189,1.28l-.065-.031-.033-.031-.065-.031,0-.031H1.993l-.1-.062-.065-.031L1.8,1.03,1.67,1l-.1-.062L1.38.874H1.256L1.16.843.939.812H.408L.192.843H.036L0,.781.06.749.087.687.261.5.648.219.77.187,1.012.062,1.165.031h.062L1.319,0h.5l.19.031.1.031H2.2l.194.094h.062l.033.031L2.68.25l.067.062.1.031.263.187.067.062.1.062.067.062h.031l0,.031.167.156.407.468.038.094.069.094.038.094.069.094.076.187.033.031,0,.062.038.094.091.406.013.187-.054.562-.105.281-.025.094L4.2,3.716Z" transform="translate(0)" fill="#493f3f"/>
              </g>
            </g>
            <g id="Group_105233" data-name="Group 105233" transform="translate(74.538 31.568)">
              <g id="Group_105232" data-name="Group 105232" transform="translate(0 0)">
                <path id="Path_76013" data-name="Path 76013" d="M.038,1.655,0,1.561.06,1.53l.473-.375.152-.062L.744,1.03.985.906,1.074.843h.031L1.346.718,2.257.343,2.534.281,2.654.219,3.085.125A8.762,8.762,0,0,1,4.356,0h.687L5.2.031h.281l.1.031.158.031h.187l.1.031h.062l.192.062H6.4l.065.031L6.622.25l.831.281.778.406.165.125.163.094.568.531.481.624a5.606,5.606,0,0,1,.558,1.28l.042.156,0,.062.036.062.011.156.042.156.074,1.062-.066.843-.216.937,0,.062L10,7.057l0-.062-.042-.156-.022-.312L9.89,6.37,9.643,5.058l-.009-.125L9.205,3.716l-.354-.593-.343-.437-.036-.062-.065-.031-.036-.062L8.34,2.5H8.309l-.267-.25-.065-.031-.1-.094a4.79,4.79,0,0,0-1.067-.531l-.575-.187H6.172l-.1-.031-.158-.031-.065-.031H5.759l-.6-.125H5l-.285-.062H4.4l-.065-.031H3l-.123.031H2.748L1.573,1.28l-.214.062-.647.125L.56,1.53H.435l-.183.062L.1,1.624Z" transform="translate(0)" fill="#493f3f"/>
              </g>
            </g>
            <g id="Group_105235" data-name="Group 105235" transform="translate(19.703 68.069)">
              <g id="Group_105234" data-name="Group 105234" transform="translate(0 0)">
                <path id="Path_76014" data-name="Path 76014" d="M7.244,8.243H5.777L4.34,7.931l-.25-.094L3.31,7.463l-.5-.312-.843-.687L1.9,6.4l-.031-.062L1.655,6.12l-.187-.25q-.062-.094-.187-.25l-.187-.25-.031-.031V5.308L1,5.246.406,4.059.094,3,.031,2.467,0,2.342V1.561l.062-.375V1L.281.156.343.031.406,0,.437.062.468.187V.375L.5.468V.593L.531.718V.843L.749,1.9l.125.406L.968,2.5l.094.343.062.094.031.094.062.125.062.094V3.31l.406.718.062.094.062.125.062.094.062.062.031.062.062.094.062.062v.031l.031.031.749.906.062.094.094.062.281.281.125.062.094.094.593.437,1.249.687.562.219.187.094.343.125.156.031.156.062.375.094.094.062.156.031.156.062.031.062-.062.031Z" transform="translate(0 0)" fill="#493f3f"/>
              </g>
            </g>
          </g>
          <g id="Group_105243" data-name="Group 105243" transform="translate(3.538 23.328)">
            <g id="Group_105238" data-name="Group 105238" transform="translate(9.046 0) rotate(15.965)">
              <g id="Group_105237" data-name="Group 105237" transform="translate(0 0)">
                <path id="Path_76015" data-name="Path 76015" d="M15.076,28.976a8.2,8.2,0,0,1-5.808,3.841Q5.6,33.4,2.649,29.288A16.028,16.028,0,0,1,.026,19.015,20.164,20.164,0,0,1,3.243,8.587,19.835,19.835,0,0,1,9.706,2.279,44.269,44.269,0,0,1,15.357,0q.312,1.6,1.936,6.557a27.676,27.676,0,0,1,.749,12.021Q17.193,25.689,15.076,28.976Z" transform="translate(0)" fill="#80553c"/>
              </g>
            </g>
            <g id="Group_105240" data-name="Group 105240" transform="translate(6.798 18.519)">
              <g id="Group_105239" data-name="Group 105239" transform="translate(0 0)">
                <path id="Path_76016" data-name="Path 76016" d="M.094,9.111l.375.125L.593,9.3l.156.031.343.125h.094l.343.094.219.031.125.031H2l.5.062.562-.031.562-.125a5.16,5.16,0,0,0,1.124-.468l.562-.406.25-.219.062-.031.437-.437L7.213,6.52,8.618,4.209l.062-.156,1.5-2.935.062-.094L10.46.556l.094-.125.094-.219.094-.156q0-.094.062-.031.094,0,.031.062l-.094.718-.375,1.53L9.211,5.52,7.775,7.894,6.651,9.111a.338.338,0,0,0-.156.125L6,9.611l-.874.5-.187.062-.187.094-.187.062-.749.156H3.622l-.187.031H3.091l-1.124-.187-.187-.094H1.717l-.125-.062-.25-.094-1-.593L0,9.2V9.111Z" fill="#684633"/>
              </g>
            </g>
            <g id="Group_105242" data-name="Group 105242" transform="translate(4.416 22.703)">
              <g id="Group_105241" data-name="Group 105241" transform="translate(0 0)">
                <path id="Path_76017" data-name="Path 76017" d="M5.192,11.672l-1.218-.219-.593-.187L3.287,11.2,3.1,11.141l-.094-.062-.187-.062-.094-.062-.094-.031L2.1,10.579l-.062-.031-.094-.094-.062-.031-.031-.031-.562-.437L.633,9.174.54,9.018.415,8.862.04,8.175q-.094-.094.031-.094H.134l.718.656.156.094.125.125.156.094.156.125.906.531h.031l.094.062h.031l.031.031.593.219.062.031.187.062.062.031h.094l.187.062h.062l.094.031h.094l.094.031h.062l.094.031.187.031h.156l.375.062h.343q.34,0,.937-.062l1.468-.281.343-.094H8.1l.031-.031h.031l.906-.343.906-.5a1.547,1.547,0,0,0,.406-.281l.125-.062.094-.062.094-.094.125-.062.094-.094L11,8.362l.593-.5,1.124-1.187.062-.125.094-.094,1.561-2.279V4.147l.031-.031.031-.062.219-.312L16.808.056q0-.094.062-.031.094,0,.031.062L14.934,4.4l-.031.031v.031L13.56,6.769l-.156.219-.062.125-1.53,1.78-.312.281-.062.031-.031.031-.125.094-.094.094-.125.094-.094.094-.437.312a6.76,6.76,0,0,1-.968.593l-1,.5-.031.031H8.5l-.187.094-.812.25a7.791,7.791,0,0,1-1.124.219,7.427,7.427,0,0,1-1.124.062Z" fill="#9f7b67"/>
              </g>
            </g>
          </g>
          <g id="Group_105250" data-name="Group 105250" transform="translate(55.142 31.237)">
            <g id="Group_105245" data-name="Group 105245" transform="translate(0.107 0)">
              <g id="Group_105244" data-name="Group 105244" transform="translate(0)">
                <path id="Path_76018" data-name="Path 76018" d="M3.827.955Q14-2.506,15.224,6.575l.125,1.873-3.653,3.9A44.672,44.672,0,0,0,10.6,29.026q-2.914,3.119-4.4-1.655L.7,6.513Q-1.642,1.824,3.827.955Z" fill="#80553c"/>
              </g>
            </g>
            <g id="Group_105247" data-name="Group 105247" transform="translate(9.134 1.423)">
              <g id="Group_105246" data-name="Group 105246" transform="translate(0 0)">
                <path id="Path_76019" data-name="Path 76019" d="M.014,16.611a38.638,38.638,0,0,1,.531-4.528q.415-2.152.468-2.248a19.99,19.99,0,0,0,2.81-2.748A6.214,6.214,0,0,0,5.041,4.309Q5.339,2.685,3.511,0,6.6,2.761,6.821,4.965a3.241,3.241,0,0,1-1.78,3.341q-2,1.159-3.091,1.873l.343.656-.187.281-.749-.031.812.062L.92,17.642l.094,4.715.562,5.183a26.551,26.551,0,0,1-1.187-5A34.615,34.615,0,0,1,.014,16.611Z" transform="translate(0 0)" fill="#9f7b67"/>
              </g>
            </g>
            <g id="Group_105249" data-name="Group 105249" transform="translate(0 0.143)">
              <g id="Group_105248" data-name="Group 105248" transform="translate(0 0)">
                <path id="Path_76020" data-name="Path 76020" d="M10.179,24.293l-.031-5.652.874-6.932a.525.525,0,0,1,.219-.343v-.031l.281-.187,1.405-1.28L14.3,8.118l.406-.687.031-.094a3.879,3.879,0,0,0,.375-.781,3.519,3.519,0,0,0,.219-.781l.031-.562-.031-.125V5.027L15.3,5,15.269,4.9V4.809l-.031-.094-.062-.094-.094-.281a4.537,4.537,0,0,0-1-1.28L13.4,2.529l-.062-.062L13.208,2.4l-.094-.062-.031-.031-.062-.031L12.583,2l-.125-.031-1-.437-.937-.281h-.094l-.219-.062-.874-.125h-.25L8.868,1.03H7.494a17.588,17.588,0,0,0-1.811.094,10.43,10.43,0,0,0-1.811.25l-.219.062-.219.031-.343.094L3,1.624l-.406.125L2.061,2l-.094.031-.187.125-.187.094-.468.406a.834.834,0,0,0-.281.312,3.253,3.253,0,0,0-.406.749L.343,4.59.5,5.5l.312.874q.062.062-.031.062Q.718,6.495.718,6.4a4.675,4.675,0,0,1-.437-.843l-.25-.812L0,4.122l.031-.5.375-.937.312-.406.749-.656q.062-.062.094-.062L1.655,1.5l.094-.094L2.873.874l.812-.25A13.993,13.993,0,0,1,5.558.219q.656-.094,1.9-.187L9.149,0,9.4.031h.25l.968.125.125.031h.125l.968.25.25.094.031.031h.062l.937.406.094.062.468.25.031.031.062.031.187.125h.031V1.5h.031l.062.062a6.623,6.623,0,0,1,.812.593l.718.749a5.553,5.553,0,0,1,.562.906l.125.25.031.125.062.125.031.125.062.125.031.156v.062l.031.062.031.125v.156l.031.281L16.58,6a4.3,4.3,0,0,1-.312,1.03l-.5,1.03-.062.094-.094.219-.843,1.218-1.311,1.468-1.218,1.03-.094.062-.031.031-.687,3.9-.656,7.4.031,5.308-.031.031-.062-.031Z" fill="#684633"/>
              </g>
            </g>
          </g>
          <g id="Group_105273" data-name="Group 105273" transform="translate(35.788 43.211)">
            <g id="Group_105255" data-name="Group 105255" transform="translate(32.343 2.249)">
              <g id="Group_105252" data-name="Group 105252" transform="translate(0 0)">
                <g id="Group_105251" data-name="Group 105251" transform="translate(0)">
                  <path id="Path_76021" data-name="Path 76021" d="M7.608,4.966A5.607,5.607,0,0,1,6.484,8.489,3.284,3.284,0,0,1,3.8,9.932a3.333,3.333,0,0,1-2.7-1.443A5.671,5.671,0,0,1,0,4.966a5.591,5.591,0,0,1,1.106-3.5A3.321,3.321,0,0,1,3.8,0a3.273,3.273,0,0,1,2.68,1.462A5.529,5.529,0,0,1,7.608,4.966Z" fill="#231915"/>
                </g>
              </g>
              <g id="Group_105254" data-name="Group 105254" transform="translate(4.196 5.171)">
                <g id="Group_105253" data-name="Group 105253" transform="translate(0 0)">
                  <path id="Path_76022" data-name="Path 76022" d="M1.838,1.238a1.412,1.412,0,0,1-.3.843A.751.751,0,0,1,.882,2.4a.8.8,0,0,1-.637-.356A1.448,1.448,0,0,1,0,1.163,1.275,1.275,0,0,1,.3.338.785.785,0,0,1,.976,0a.742.742,0,0,1,.618.375A1.326,1.326,0,0,1,1.838,1.238Z" fill="#fff"/>
                </g>
              </g>
            </g>
            <g id="Group_105257" data-name="Group 105257" transform="translate(30.87 4.58)">
              <g id="Group_105256" data-name="Group 105256" transform="translate(0 0)">
                <path id="Path_76023" data-name="Path 76023" d="M14.509,2.613a6.561,6.561,0,0,1-1.36,2.8,19.249,19.249,0,0,1-8.2,4.836A38.048,38.048,0,0,1,0,2.387,10.678,10.678,0,0,1,6.121.044Q9.935-.339,14.509,2.613Z" transform="translate(0)" fill="#80553c"/>
              </g>
            </g>
            <g id="Group_105259" data-name="Group 105259" transform="translate(32.494 0)">
              <g id="Group_105258" data-name="Group 105258" transform="translate(0)">
                <path id="Path_76024" data-name="Path 76024" d="M0,5.456.453,1.148A11.983,11.983,0,0,1,11,1.3l1.02,4.836Z" transform="translate(0)" fill="#80553c"/>
              </g>
            </g>
            <g id="Group_105261" data-name="Group 105261" transform="translate(30.907 3.34)">
              <g id="Group_105260" data-name="Group 105260" transform="translate(0 0)">
                <path id="Path_76025" data-name="Path 76025" d="M10.428,2l-.113-.038L7.632,1.511H6.159l-1.247.151L4.723,1.7l-.113.038H4.534l-.227.076-.189.038-.113.038H3.93l-1.4.529L1.4,3.061,1.36,3.1.6,3.476l-.189.038-.3.151Q0,3.778,0,3.627V3.552l.378-.378.113-.151.491-.453.151-.189,1.058-.945.227-.113.189-.151.227-.113L2.909.982,3.023.945,3.476.718,3.589.68,3.7.6,3.892.529,5.063.189,5.554.113,5.668.076h.113L6.045.038h.113L6.272,0l1.7.038.453.076h.151L8.69.151,9.635.34l.907.3.227.113.113.038.529.264.038.038h.038v.038h.038l.113.038.113.113h.076l1.663,1.322.642.907.038.113.038.038v.076l.038.113q.076.076-.038.076h-.076V3.892l-.151-.151-.113-.076-.076-.038-.151-.151L12.318,2.72,11.335,2.3H11.26l-.038-.038L11,2.191l-.038-.038H10.92l-.189-.076L10.5,2.04Z" transform="translate(0)" fill="#231915"/>
              </g>
            </g>
            <g id="Group_105266" data-name="Group 105266" transform="translate(3.061 2.249)">
              <g id="Group_105263" data-name="Group 105263" transform="translate(0 0)">
                <g id="Group_105262" data-name="Group 105262" transform="translate(0)">
                  <path id="Path_76026" data-name="Path 76026" d="M7.608,4.966A5.607,5.607,0,0,1,6.484,8.489,3.284,3.284,0,0,1,3.8,9.932a3.333,3.333,0,0,1-2.7-1.443A5.671,5.671,0,0,1,0,4.966a5.591,5.591,0,0,1,1.106-3.5A3.321,3.321,0,0,1,3.8,0a3.273,3.273,0,0,1,2.68,1.462A5.529,5.529,0,0,1,7.608,4.966Z" fill="#231915"/>
                </g>
              </g>
              <g id="Group_105265" data-name="Group 105265" transform="translate(4.196 5.171)">
                <g id="Group_105264" data-name="Group 105264" transform="translate(0 0)">
                  <path id="Path_76027" data-name="Path 76027" d="M1.838,1.238a1.412,1.412,0,0,1-.3.843A.751.751,0,0,1,.882,2.4a.8.8,0,0,1-.637-.356A1.448,1.448,0,0,1,0,1.163,1.275,1.275,0,0,1,.3.338.785.785,0,0,1,.976,0a.742.742,0,0,1,.618.375A1.326,1.326,0,0,1,1.838,1.238Z" fill="#fff"/>
                </g>
              </g>
            </g>
            <g id="Group_105268" data-name="Group 105268" transform="translate(0 4.915)">
              <g id="Group_105267" data-name="Group 105267" transform="translate(0 0)">
                <path id="Path_76028" data-name="Path 76028" d="M8.955,11.763A20.01,20.01,0,0,1,6.8,10.516,20.172,20.172,0,0,1,0,3.11Q.367,2.8,2.947,1.221,5.528-.391,9.937.125a22.076,22.076,0,0,1,8.577,2.8A5.4,5.4,0,0,1,16.7,6.435,82.64,82.64,0,0,1,8.955,11.763Z" fill="#80553c"/>
              </g>
            </g>
            <g id="Group_105270" data-name="Group 105270" transform="translate(1.02 0.096)">
              <g id="Group_105269" data-name="Group 105269" transform="translate(0 0)">
                <path id="Path_76029" data-name="Path 76029" d="M0,6.569,1.247.939a22.462,22.462,0,0,1,13.338.151l1.474,5.63Z" transform="translate(0)" fill="#80553c"/>
              </g>
            </g>
            <g id="Group_105272" data-name="Group 105272" transform="translate(0.113 3.793)">
              <g id="Group_105271" data-name="Group 105271" transform="translate(0 0)">
                <path id="Path_76030" data-name="Path 76030" d="M18.136,4.156h-.113L13.867,2.267l-.113-.038h-.038l-.038-.038H13.64l-.378-.151h-.076L13.111,2l-.227-.076-2.154-.34h-.264l-.831-.076-2.872.038-.151.038H6.348L5.554,1.7l-.264.076-.529.076-.793.227-1.511.6-.113.076-.378.189-.34.227L.076,4.005Q0,4.081,0,3.967V3.892L1.511,2.343,2.72,1.436l.529-.3.3-.113L4.081.756,4.232.718,4.383.642l.3-.076L4.95.453,5.554.3h.151L6.159.189l.3-.038L6.612.113h.151L7.33.038h.453L7.935,0H9.408l.3.038A6.548,6.548,0,0,1,10.92.151L13.262.68l1.02.491,2.078,1.36,1.776,1.511Z" transform="translate(0)" fill="#231915"/>
              </g>
            </g>
          </g>
          <g id="Group_105281" data-name="Group 105281" transform="translate(46.454 15.175)">
            <g id="Group_105276" data-name="Group 105276" transform="translate(1.408 0)">
              <g id="Group_105274" data-name="Group 105274" transform="translate(0 4.922)">
                <path id="Path_76031" data-name="Path 76031" d="M20.665,1.22a7.968,7.968,0,0,1-2.907,2.271,12.909,12.909,0,0,1-4.905.954A21.294,21.294,0,0,1,6.54,3.718,11.36,11.36,0,0,0,0,3.945,23.64,23.64,0,0,1,20.665,1.22Z" transform="translate(0 0)" fill="#684633"/>
              </g>
              <g id="Group_105275" data-name="Group 105275" transform="translate(5.859 0)">
                <path id="Path_76032" data-name="Path 76032" d="M12.444,2.646l.182.273q.045.045-.045.136H12.49l-.545-.5-.091-.045-.045-.091L10.582,1.6l-.227-.091-.045-.045-.182-.091L8.811.965H8.675L8.538.92H8.22L7.9.874H7.63A5.85,5.85,0,0,0,6.4,1.011l-1.226.273-2.225.863L.545,3.463l-.136.045L.136,3.69Q0,3.826,0,3.645V3.554l.136-.136.136-.091.182-.182,1.272-1q.091-.091.863-.636l.545-.273.136-.091L3.406,1.1,4.133.738,4.905.466A6.825,6.825,0,0,1,6.222.1,5.775,5.775,0,0,1,7.63.011h.363L8.675.1l.908.273.863.409.136.045.091.091.227.136.227.182.954.908.045.091.045.045.182.273Z" transform="translate(0)" fill="#684633"/>
              </g>
            </g>
            <g id="Group_105278" data-name="Group 105278" transform="translate(0.477 4.281)">
              <g id="Group_105277" data-name="Group 105277" transform="translate(0 0)">
                <path id="Path_76033" data-name="Path 76033" d="M21.914,2q0,.136-.091.045l-4.315-.681h-.227L17.1,1.317l-3.315-.045-.273.045-1.771.136L11.6,1.5h-.136l-.227.045L10.2,1.635l-1.5.318-.454.136-.273.045-.227.091L3.338,3.633l-.182.091-.182.045-.318.182-1.181.5-.227.136-.227.091-.863.454q-.136.136-.136-.045A.057.057,0,0,1,.023,5l.454-.409L.613,4.5l.182-.182L1.7,3.633l.954-.545.136-.136,1.771-.863a18.247,18.247,0,0,1,1.817-.727h.045l.182-.091L7.88.863,11.286.136h.272l.818-.091L14.511,0l.273.045h.5l3.951.772.681.273.318.091,1.135.454.5.273Q22,1.908,21.914,2Z" transform="translate(0 0)" fill="#231915"/>
              </g>
            </g>
            <g id="Group_105280" data-name="Group 105280" transform="translate(0 6.551)">
              <g id="Group_105279" data-name="Group 105279" transform="translate(0 0)">
                <path id="Path_76034" data-name="Path 76034" d="M2.362,4.95H2l-.273-.136-.182-.045-.091-.045-.091-.091L1,4.36.818,4.178H.772V4.133L.636,4,.5,3.724.318,3.5.045,2.68,0,2.407l.045-1.09L.227.545.363.273V.227L.409.182.454.091.5.045.59,0,.636.091.681.136V.59L.727.772v.5l.045.091V1.59l.045.227v.227l.045.091v.136l.091.318L1,2.68v.136l.136.318.045.045v.045l.136.273.045.136.091.091.091.182.318.454.454.454Z" fill="#684633"/>
              </g>
            </g>
          </g>
          <g id="Group_105284" data-name="Group 105284" transform="matrix(0.959, 0.282, -0.282, 0.959, 30.808, 56.943)">
            <g id="Group_105283" data-name="Group 105283" transform="translate(0 0)">
              <g id="Group_105282" data-name="Group 105282">
                <path id="Path_76035" data-name="Path 76035" d="M4.157,3.466A12.063,12.063,0,0,1,2.022,2.56,16.83,16.83,0,0,1,0,0,29.742,29.742,0,0,0,7.753,1.655,21.336,21.336,0,0,0,15.58.874a21.335,21.335,0,0,1,3-.812,1.785,1.785,0,0,1,.974.094,1.519,1.519,0,0,1,.524.749L20.112,1q-.018.046-.037.094a2.684,2.684,0,0,1-1.461,1.436,20.061,20.061,0,0,1-5.356,1.436A20.464,20.464,0,0,1,4.157,3.466Z" transform="translate(2.734 2.592)" fill="#140e0e"/>
                <path id="Path_76036" data-name="Path 76036" d="M2.547,1.717A19.849,19.849,0,0,0,11.236,3.5a27.827,27.827,0,0,0,7.9-1.03q2.659-.749,3.183-.406a1.214,1.214,0,0,1,.524,1.53L22.809,3.5a1.519,1.519,0,0,0-.524-.749,1.785,1.785,0,0,0-.974-.094,21.335,21.335,0,0,0-3,.812,21.336,21.336,0,0,1-7.828.781A29.742,29.742,0,0,1,2.734,2.592a16.83,16.83,0,0,0,2.022,2.56,12.064,12.064,0,0,1-2.285-1.78,12.693,12.693,0,0,1-.861-.937L0,0Z"/>
              </g>
            </g>
          </g>
          <g id="Group_105287" data-name="Group 105287" transform="matrix(-0.959, 0.282, -0.282, -0.959, 86.507, 64.69)">
            <g id="Group_105286" data-name="Group 105286" transform="translate(0 0)">
              <g id="Group_105285" data-name="Group 105285" transform="translate(0)">
                <path id="Path_76037" data-name="Path 76037" d="M3.107.7a8.278,8.278,0,0,0-1.6.814A15.061,15.061,0,0,0,0,3.82,19.045,19.045,0,0,1,5.795,2.331a13.392,13.392,0,0,1,5.851.7,13.843,13.843,0,0,0,2.239.73,1.128,1.128,0,0,0,.728-.084A1.385,1.385,0,0,0,15,3.005l.028-.084L15,2.837a2.249,2.249,0,0,0-1.092-1.292,13.068,13.068,0,0,0-4-1.292A12.81,12.81,0,0,0,3.107.7Z" transform="translate(2.043 0)" fill="#140e0e"/>
                <path id="Path_76038" data-name="Path 76038" d="M1.9,3.089A12.742,12.742,0,0,1,8.4,1.488a17.518,17.518,0,0,1,5.907.927q1.988.674,2.379.365A1.209,1.209,0,0,0,17.076,1.4l-.028.084a1.385,1.385,0,0,1-.392.674,1.128,1.128,0,0,1-.728.084,13.843,13.843,0,0,1-2.239-.73,13.392,13.392,0,0,0-5.851-.7A19.045,19.045,0,0,0,2.043,2.3,15.061,15.061,0,0,1,3.555,0,9.471,9.471,0,0,0,1.848,1.6q-.334.394-.644.843L0,4.634Z" transform="translate(0 1.517)"/>
              </g>
            </g>
          </g>
          <g id="Group_105289" data-name="Group 105289" transform="translate(34.253 28.633)">
            <g id="Group_105288" data-name="Group 105288" transform="translate(0 0)">
              <path id="Path_76039" data-name="Path 76039" d="M3.747,4.684V3.747h.937m-.937,0V2.81m3.747.937L3.747,0,0,3.747,3.747,7.494Zm-4.684,0h.937" transform="translate(0)" fill="none" stroke="rgba(0,0,0,0)" stroke-linecap="round" stroke-linejoin="round" stroke-width="0.108"/>
            </g>
          </g>
        </g>
        <g id="Group_105299" data-name="Group 105299" transform="matrix(0.1, 0.995, -0.995, 0.1, 234.599, 113.822)">
          <g id="Group_105292" data-name="Group 105292" transform="translate(0.094 1.124)">
            <g id="Group_105291" data-name="Group 105291" transform="translate(0 0)">
              <path id="Path_76040" data-name="Path 76040" d="M9.023,5.995A448.519,448.519,0,0,0,2.342,58.2,155.989,155.989,0,0,1,0,76.465l14.612,3.154a149.478,149.478,0,0,1,5.87-23.23q3.435-9.96,8.368-25.291,4.933-15.362,4.5-21.357A44.056,44.056,0,0,0,31.785,0L9.991,1.343Q9.461,3.684,9.023,5.995Z" fill="#80553c"/>
            </g>
          </g>
          <g id="Group_105294" data-name="Group 105294" transform="translate(0 70.98)">
            <g id="Group_105293" data-name="Group 105293" transform="translate(0 0)">
              <path id="Path_76041" data-name="Path 76041" d="M15,7.5a7.223,7.223,0,0,0-2.2-5.3A7.222,7.222,0,0,0,7.5,0,7.222,7.222,0,0,0,2.2,2.2,7.222,7.222,0,0,0,0,7.5a7.223,7.223,0,0,0,2.2,5.3A7.223,7.223,0,0,0,7.5,15a7.223,7.223,0,0,0,5.3-2.2A7.223,7.223,0,0,0,15,7.5Z" transform="translate(0 0)" fill="#80553c"/>
            </g>
          </g>
          <g id="Group_105296" data-name="Group 105296" transform="translate(1.131 7.156)">
            <g id="Group_105295" data-name="Group 105295" transform="translate(0 0)">
              <path id="Path_76042" data-name="Path 76042" d="M7.737,2.835,8.112.087Q8.174.025,8.08.025q-.062-.062-.062.031L4.771,17.479,2.8,32.028.025,64.251q-.062.062.031.062l.062-.031L7.643,3.522Q7.706,3.054,7.737,2.835Z" fill="#684633"/>
            </g>
          </g>
          <g id="Group_105298" data-name="Group 105298" transform="translate(17.298 0)">
            <g id="Group_105297" data-name="Group 105297" transform="translate(0 0)">
              <path id="Path_76043" data-name="Path 76043" d="M3.747,2.81v.937h.937m-.937,0v.937m3.747-.937L3.747,7.494,0,3.747,3.747,0Zm-4.683,0h.937" fill="none" stroke="rgba(0,0,0,0)" stroke-linecap="round" stroke-linejoin="round" stroke-width="0.108"/>
            </g>
          </g>
        </g>
        <g id="Group_105304" data-name="Group 105304" transform="translate(163.062 116.706) rotate(85.141)">
          <g id="Group_105301" data-name="Group 105301" transform="translate(0 0)">
            <g id="Group_105300" data-name="Group 105300" transform="translate(0 0)">
              <path id="Path_76044" data-name="Path 76044" d="M3.685,45.385l.11.11.028-.028-.138-.083M21.371,13.952Q19.057,2.933,9.167.15A3.988,3.988,0,0,0,5.889.674Q-3.34,6.459,1.894,16.652q1.129,2.617,1.873,4.821a20.649,20.649,0,0,1,1.24,6.336,9.967,9.967,0,0,1-.441,2.948l-1.35,3.2-.165.606L2.721,35.8A14.9,14.9,0,0,0,1.233,39.93a2.829,2.829,0,0,0,.055,1.377v.083a3.553,3.553,0,0,0,.3.716,2.242,2.242,0,0,0,.771,1.047.692.692,0,0,0,.275.165,10.381,10.381,0,0,0,2.755-1.736,17.1,17.1,0,0,0,2.645-2.755,17.146,17.146,0,0,0,2.149-3.388,28.165,28.165,0,0,0,1.433-3.306q.468-1.46.744-2.452.386-1.433.689-3,.634-.826.744-.11a25.871,25.871,0,0,1-.11,2.92,23.141,23.141,0,0,1-2.672,8.871l-.606,1.047q-.248.386-.5.8-.275.413-.523.8H9.36a16.961,16.961,0,0,1-4.05,3.8,5.053,5.053,0,0,1-1.46.689H3.8l-.055.083A4.18,4.18,0,0,0,6.385,49.1l.275.11a12.768,12.768,0,0,0,3.416-2.039q.468-.441.964-.882A16.5,16.5,0,0,0,14.126,42q1.267-2.534,2.92-6.2a30.955,30.955,0,0,0,2.176-6.5q.579-2.81.689-3.444a9.056,9.056,0,0,1,.11,4.215V29.9a25.894,25.894,0,0,1-3.168,11.515,26.008,26.008,0,0,1-5.289,6.887l-.22.165L9.553,49.765q-.964.5-1.4.3a1.571,1.571,0,0,1-.275-.083l-1.736-.771.138.992q.386,2.4,1.68,2.479a6.592,6.592,0,0,0,1.791-.028,24.121,24.121,0,0,0,6.887-6.887A26.218,26.218,0,0,0,21.4,36.294a45.756,45.756,0,0,0,1.019-4.766,29.824,29.824,0,0,1-2.4,10.579q-1.873,3.8-1.9,5.289-.027,1.506,2.452,2.121l.028.028a.211.211,0,0,1,.083.028,34.312,34.312,0,0,0,3.388-9.807A41.629,41.629,0,0,0,24.7,28.773q-.138-1.846-.358-3.692A63.174,63.174,0,0,0,21.371,13.952Z" transform="translate(1.311 0)" fill="#80553c"/>
              <path id="Path_76045" data-name="Path 76045" d="M5.877,9.284a9.967,9.967,0,0,0,.441-2.948A20.649,20.649,0,0,0,5.078,0a10.738,10.738,0,0,1-.661,2.645A11.836,11.836,0,0,1,3.2,4.849,14.336,14.336,0,0,1,1.359,7.025L.009,8.182a5.159,5.159,0,0,0,.22,1.9,3.931,3.931,0,0,0,3.747,2.4h.551l1.35-3.2m17.851.771a45.758,45.758,0,0,1-1.019,4.766A26.219,26.219,0,0,1,17.943,24.3q0,3.168,1.763,3.444,1.708.214,2.176.3-2.479-.615-2.452-2.121.028-1.488,1.9-5.289a29.824,29.824,0,0,0,2.4-10.579m-2.4-1.625V8.6a9.056,9.056,0,0,0-.11-4.215q-.11.634-.689,3.444a30.955,30.955,0,0,1-2.176,6.5q-1.653,3.664-2.92,6.2a16.5,16.5,0,0,1-3.085,4.3q-.5.441-.964.882a12.768,12.768,0,0,1-3.416,2.039H7.447l1.736.771a1.571,1.571,0,0,0,.275.083q.441.193,1.4-.3L12.654,27l.22-.165a26.007,26.007,0,0,0,5.289-6.887A25.894,25.894,0,0,0,21.332,8.43M15.106,5.1q-.11-.716-.744.11-.3,1.57-.689,3-.275.992-.744,2.452A28.166,28.166,0,0,1,11.5,13.967a17.146,17.146,0,0,1-2.149,3.388A17.1,17.1,0,0,1,6.7,20.11a10.381,10.381,0,0,1-2.755,1.736.692.692,0,0,1-.275-.165A2.242,2.242,0,0,1,2.9,20.634a3.553,3.553,0,0,1-.3-.716q.089.382.193.744a9.97,9.97,0,0,0,2.094,3.361.349.349,0,0,0,.165.083l.055-.083L5,23.912l.138.083q.055-.138.083-.083h.22l-.275.11a5.053,5.053,0,0,0,1.46-.689,16.961,16.961,0,0,0,4.05-3.8H10.7q.248-.386.523-.8.248-.413.5-.8l.606-1.047A23.14,23.14,0,0,0,15,8.017,25.87,25.87,0,0,0,15.106,5.1Z" transform="translate(0 21.473)" fill="#684633"/>
            </g>
          </g>
          <g id="Group_105303" data-name="Group 105303" transform="translate(8.211 3.128)">
            <g id="Group_105302" data-name="Group 105302" transform="translate(0 0)">
              <path id="Path_76046" data-name="Path 76046" d="M3.747,2.81v.937h.937m-.937,0v.937m3.747-.937L3.747,7.494,0,3.747,3.747,0Zm-4.684,0h.937" transform="translate(0)" fill="none" stroke="rgba(0,0,0,0)" stroke-linecap="round" stroke-linejoin="round" stroke-width="0.108"/>
            </g>
          </g>
        </g>
      </g>
    </g>
  </g>
</svg>
