<svg xmlns="http://www.w3.org/2000/svg" xmlns:xlink="http://www.w3.org/1999/xlink" width="75" height="75" viewBox="0 0 75 75">
  <defs>
    <clipPath id="clip-path">
      <circle id="Ellipse_314" data-name="Ellipse 314" cx="37.5" cy="37.5" r="37.5" transform="translate(823.278 1568.256)" fill="#06f"/>
    </clipPath>
    <linearGradient id="linear-gradient" x1="0.543" y1="0.993" x2="0.511" y2="0.105" gradientUnits="objectBoundingBox">
      <stop offset="0" stop-color="#4d4343"/>
      <stop offset="1" stop-color="#252020"/>
    </linearGradient>
  </defs>
  <g id="Mask_Group_16261" data-name="Mask Group 16261" transform="translate(-823.278 -1568.256)" clip-path="url(#clip-path)">
    <circle id="Ellipse_314-2" data-name="Ellipse 314" cx="37.5" cy="37.5" r="37.5" transform="translate(823.278 1568.256)" fill="#f2f2f2"/>
    <g id="male_teen_DS_8" data-name="male teen DS 8" transform="translate(814.672 1575.984)">
      <g id="Group_64057" data-name="Group 64057" transform="matrix(-0.728, 0.686, -0.686, -0.728, 87.548, 79.497)">
        <g id="Group_64040" data-name="Group 64040" transform="translate(0.595 3.275)">
          <g id="Group_64039" data-name="Group 64039" transform="translate(0 0)">
            <path id="Path_51802" data-name="Path 51802" d="M8.62,0a103.73,103.73,0,0,1,3.225,15.79l-9.39,1.885Q.963,9.466,0,1.389Z" fill="#80553c"/>
          </g>
        </g>
        <g id="Group_64042" data-name="Group 64042" transform="translate(0.583 0)">
          <g id="Group_64041" data-name="Group 64041" transform="translate(0 0)">
            <path id="Path_51803" data-name="Path 51803" d="M8.782,4.391A4.242,4.242,0,0,1,7.492,7.5a4.222,4.222,0,0,1-3.1,1.278A4.263,4.263,0,0,1,1.278,7.5,4.263,4.263,0,0,1,0,4.391a4.222,4.222,0,0,1,1.278-3.1A4.242,4.242,0,0,1,4.391,0a4.2,4.2,0,0,1,3.1,1.29A4.2,4.2,0,0,1,8.782,4.391Z" transform="translate(0)" fill="#80553c"/>
          </g>
        </g>
        <g id="Group_64045" data-name="Group 64045" transform="translate(2.381 15.438)">
          <g id="Group_64044" data-name="Group 64044" transform="translate(0 0)">
            <g id="Group_64043" data-name="Group 64043">
              <path id="Path_51804" data-name="Path 51804" d="M.781,7.062,0,1.964A14.563,14.563,0,0,1,9.588.165l.831,4.713Z" fill="#684633"/>
            </g>
          </g>
        </g>
        <g id="Group_64047" data-name="Group 64047" transform="translate(7.864 29.223)">
          <g id="Group_64046" data-name="Group 64046" transform="translate(0 0)">
            <path id="Path_51805" data-name="Path 51805" d="M14.562,7.281a7.015,7.015,0,0,1-2.133,5.147,7.015,7.015,0,0,1-5.147,2.133,7.015,7.015,0,0,1-5.147-2.133A7.015,7.015,0,0,1,0,7.281,7.015,7.015,0,0,1,2.133,2.133,7.015,7.015,0,0,1,7.281,0a7.015,7.015,0,0,1,5.147,2.133A7.015,7.015,0,0,1,14.562,7.281Z" transform="translate(0)" fill="#7a2230"/>
          </g>
        </g>
        <g id="Group_64049" data-name="Group 64049" transform="translate(0.025 16.452)">
          <g id="Group_64048" data-name="Group 64048" transform="translate(0 0)">
            <path id="Path_51806" data-name="Path 51806" d="M17.067,1.285A108.9,108.9,0,0,0,22.2,18.34L10.121,25.348Q5.854,21.59,0,4.113,5.9-2.3,17.067,1.285Z" fill="#7a2230"/>
          </g>
        </g>
        <g id="Group_64052" data-name="Group 64052" transform="translate(0 16.467)">
          <g id="Group_64051" data-name="Group 64051" transform="translate(0 0)">
            <g id="Group_64050" data-name="Group 64050" transform="translate(0 0)">
              <path id="Path_51807" data-name="Path 51807" d="M5.383,18.052A121.944,121.944,0,0,1,0,4.073q5.675-6.256,16.67-2.9Q4.292.464,2.667,4.954,1.674,7.682,8.658,23.683A31.9,31.9,0,0,1,5.383,18.052Z" fill="#4b0f18"/>
            </g>
          </g>
        </g>
        <g id="Group_64054" data-name="Group 64054" transform="translate(18.236 22.401)">
          <g id="Group_64053" data-name="Group 64053" transform="translate(0 0)">
            <path id="Path_51808" data-name="Path 51808" d="M3.669,11.56,3.5,11.312l-.05-.087-.074-.1-.31-.521-.037-.074-.05-.074L1.9,8.124.729,4.366.022.161.01.025Q-.015,0,.022,0L.047.012l2.1,7.455,1.092,2.964.025.087.285.657.05.087.112.285q.025.025-.012.025Q3.669,11.6,3.669,11.56Z" transform="translate(0 0)" fill="#4b0f18"/>
          </g>
        </g>
        <g id="Group_64056" data-name="Group 64056" transform="translate(13.656 35.015)">
          <g id="Group_64055" data-name="Group 64055" transform="translate(0 0)">
            <path id="Path_51809" data-name="Path 51809" d="M1.488,1.861V1.488h.372m-.372,0V1.116m1.488.372L1.488,0,0,1.488,1.488,2.977Zm-1.861,0h.372" transform="translate(0 0)" fill="none" stroke="rgba(0,0,0,0)" stroke-linecap="round" stroke-linejoin="round" stroke-width="0.086"/>
          </g>
        </g>
      </g>
      <g id="Group_64067" data-name="Group 64067" transform="translate(23.424 73.973)">
        <g id="Group_64059" data-name="Group 64059" transform="translate(0 15.581)">
          <g id="Group_64058" data-name="Group 64058">
            <path id="Path_51810" data-name="Path 51810" d="M11.158,127.235a160.107,160.107,0,0,0-1.687-26.4l-32.254,1.389a176.2,176.2,0,0,1-3.97,25.307Q-8.928,134.376,11.158,127.235Z" transform="translate(26.752 -100.836)" fill="#ede6de"/>
          </g>
        </g>
        <g id="Group_64061" data-name="Group 64061" transform="translate(3.868 0.996)">
          <g id="Group_64060" data-name="Group 64060">
            <path id="Path_51811" data-name="Path 51811" d="M1716.939,726.728a16.3,16.3,0,1,0,4.773-11.535A15.715,15.715,0,0,0,1716.939,726.728Z" transform="translate(-1716.939 -710.42)" fill="#ede6de"/>
          </g>
        </g>
        <g id="Group_64064" data-name="Group 64064" transform="translate(0.025 0)">
          <g id="Group_64063" data-name="Group 64063">
            <g id="Group_64062" data-name="Group 64062">
              <path id="Path_51812" data-name="Path 51812" d="M-111.333-311.568q.385-.012.782-.012.4.05.794.112a2.144,2.144,0,0,1,.236-.012,17.631,17.631,0,0,1-.223-3.362,4.112,4.112,0,0,1,.062-.558,4.552,4.552,0,0,1,.1-.484l-.223.707a16.817,16.817,0,0,0-10.048,2.369l-3.238,3.374a26.809,26.809,0,0,0-2.853,4.925,23.017,23.017,0,0,0-.98,4.8,202.219,202.219,0,0,1-3.92,26.188,21.124,21.124,0,0,0,3.325,1.079q2.042.508,3.213.856a17.093,17.093,0,0,0,2.915.571q1.746.227,3.61.571a18.245,18.245,0,0,0,3.771.323q1.923-.035,2.729-.062t3.3-.186a31.98,31.98,0,0,0,4.553-.583q2-.347,3.436-.72t1.786-.471q.336-.087.67-.186t.67-.211q-.261.05-.509.112-2.034.4-4.143.633-1.5.174-3.027.323a54.09,54.09,0,0,1-5.545.186,29.625,29.625,0,0,1-3.436-.273,28.051,28.051,0,0,1-4.838-1.1,10.878,10.878,0,0,1-3.387-1.873,6.524,6.524,0,0,1-2.233-3.486,17.443,17.443,0,0,1-.484-2.816,42.219,42.219,0,0,1-.161-5.111q.062-1.923.186-3.871.074-1.327.211-2.655.163-1.489.285-3.548t.533-4.5a14.821,14.821,0,0,1,1.551-4.565,9.942,9.942,0,0,1,3.188-3.511,20.409,20.409,0,0,1,2.952-1.712A13.429,13.429,0,0,1-111.333-311.568Z" transform="translate(130.847 315.885)" fill="#dad0c5"/>
            </g>
          </g>
        </g>
        <g id="Group_64066" data-name="Group 64066" transform="translate(17.467 44.213)">
          <g id="Group_64065" data-name="Group 64065" transform="translate(0 0)">
            <path id="Path_51813" data-name="Path 51813" d="M-8.8-9.173V-8.8h.372m-.372,0v.372M-7.312-8.8-8.8-7.312-10.289-8.8-8.8-10.289Zm-1.861,0H-8.8" transform="translate(10.289 10.289)" fill="none" stroke="rgba(0,0,0,0)" stroke-linecap="round" stroke-linejoin="round" stroke-width="0.086"/>
          </g>
        </g>
      </g>
      <g id="Group_64092" data-name="Group 64092" transform="translate(20.173 52.226)">
        <g id="Group_64069" data-name="Group 64069" transform="translate(14.08 0)">
          <g id="Group_64068" data-name="Group 64068" transform="translate(0)">
            <path id="Path_51814" data-name="Path 51814" d="M-49.641-260.937l1.228-5.88a14.018,14.018,0,0,0-4.044-2.32,12.76,12.76,0,0,0-4.081-.707,13.685,13.685,0,0,0-7.828,2.357l-.285,6.55Z" transform="translate(64.652 269.845)" fill="#80553c"/>
          </g>
        </g>
        <g id="Group_64071" data-name="Group 64071" transform="translate(3.908 1.452)">
          <g id="Group_64070" data-name="Group 64070">
            <path id="Path_51815" data-name="Path 51815" d="M-100.228-249.995a8.641,8.641,0,0,0-1.315-4.342,8.255,8.255,0,0,0-4.094-3.052,25.245,25.245,0,0,1-3.97-1.861,9.3,9.3,0,0,1-4.317,4.615q-3.291,1.935-5.769-.6t-3.089-3.052a5.3,5.3,0,0,1-1.154-1.526,20.586,20.586,0,0,0-2.605.72q-2.183.686-4.367,1.4a25.9,25.9,0,0,0-4.057,1.749l3.275,34.14q1.29-1.762,2.7-3.411,1.265-1.476,2.655-2.866l.521-.521.521-.5q1-.918,2.084-1.749a20.9,20.9,0,0,1,4.156-2.444,13.2,13.2,0,0,1,4.081-1.042,12.488,12.488,0,0,1,4.032.36,15.2,15.2,0,0,1,3.957,1.737,18.382,18.382,0,0,1,2.469,1.811,26.37,26.37,0,0,1,2.183,2.109,32.823,32.823,0,0,1,3.052,3.784Z" transform="translate(134.963 259.807)" fill="#ede6de"/>
          </g>
        </g>
        <g id="Group_64073" data-name="Group 64073" transform="translate(0.124 4.417)">
          <g id="Group_64072" data-name="Group 64072" transform="translate(0 0)">
            <path id="Path_51816" data-name="Path 51816" d="M1559.089,538.129a7.285,7.285,0,1,0-2.134,5.148A7.015,7.015,0,0,0,1559.089,538.129Z" transform="translate(-1544.525 -530.847)" fill="#ede6de"/>
          </g>
        </g>
        <g id="Group_64076" data-name="Group 64076" transform="translate(5.123 17.604)">
          <g id="Group_64075" data-name="Group 64075">
            <g id="Group_64074" data-name="Group 64074">
              <path id="Path_51817" data-name="Path 51817" d="M-120.084-148.167q-6.463,1.054-6.476,1.042l2.034,20.94,4.354-5.359Z" transform="translate(126.56 148.167)" fill="#dad0c5"/>
            </g>
          </g>
        </g>
        <g id="Group_64081" data-name="Group 64081" transform="translate(0 1.638)">
          <g id="Group_64078" data-name="Group 64078">
            <g id="Group_64077" data-name="Group 64077">
              <path id="Path_51818" data-name="Path 51818" d="M-147.086-248.349a35.687,35.687,0,0,1,2.307-7.567l-2.9-2.605a63.93,63.93,0,0,0-9.329,3.089q-4.722,1.921-4.962,7.406a7.7,7.7,0,0,0,3.8,5.917l.236.124q.158.088.31.161l.062.025.211.087a6.715,6.715,0,0,0,2.047.5,7.392,7.392,0,0,0,.744.037,7.016,7.016,0,0,0,5.148-2.134,6.85,6.85,0,0,0,.521-.583A8.58,8.58,0,0,0-147.086-248.349Z" transform="translate(161.972 258.521)" fill="#7a2230"/>
            </g>
          </g>
          <g id="Group_64080" data-name="Group 64080" transform="translate(28.508 0.496)">
            <g id="Group_64079" data-name="Group 64079" transform="translate(0)">
              <path id="Path_51819" data-name="Path 51819" d="M40.057-250.526a14.22,14.22,0,0,1,4.007,5.769q.762,1.8,1.327,3.411a33.419,33.419,0,0,1-.05-3.92,9.951,9.951,0,0,0-.211-2.68,4.724,4.724,0,0,0-1.464-2.692,9.308,9.308,0,0,0-3.114-2.382,25.211,25.211,0,0,1-4.317-2.072l-1.166,1.886A14.877,14.877,0,0,1,40.057-250.526Z" transform="translate(-35.07 255.091)" fill="#7a2230"/>
            </g>
          </g>
        </g>
        <g id="Group_64083" data-name="Group 64083" transform="translate(21.511 1.961)">
          <g id="Group_64082" data-name="Group 64082">
            <path id="Path_51820" data-name="Path 51820" d="M102.612-141.5l-.074.037-.236.149-1.079.533-1.6.5-.074.012-.074.025-1.7.273h-.012l-.012.025.012.012.1.025.67.05.062.012.856-.025.161-.025H99.7l.695-.124.732-.211a5.8,5.8,0,0,0,.732-.285l.36-.186,1.1-.744.968-.98.422-.6.05-.062.087-.161.05-.074q.012-.012-.012-.037h-.025l-.062.074-.521.5-.05.037-.149.136-.05.037-.1.1Z" transform="translate(-97.749 143.366)" fill="#684633"/>
          </g>
        </g>
        <g id="Group_64085" data-name="Group 64085" transform="translate(17.64 5.707)">
          <g id="Group_64084" data-name="Group 64084">
            <path id="Path_51821" data-name="Path 51821" d="M-32.116-229.615l-.273.112-.1.025a8.362,8.362,0,0,1-.831.261q-.372.1-.434.112l-.67.136h-.062l-.05.012-1.054.074-.062.012-.05-.012h-.347l-.682-.062-1.154-.248-1.253-.459-.459-.223-.1-.037-.074-.05-.236-.112q-.037-.037-.037.012v.025l.757.658.062.037.273.2,1.1.571h.025l.5.174.062.012.05.025.124.025a5.2,5.2,0,0,0,.98.174,6.378,6.378,0,0,0,1.042.012l.385-.037,1.1-.236.124-.037.05-.025.062-.012.236-.087a8.221,8.221,0,0,0,.844-.36l.707-.4a6.117,6.117,0,0,0,.571-.385l.769-.633v-.037h-.037l-.72.323-.037.012-.273.124-.074.025-.074.037-.583.236Z" transform="translate(40.043 230.397)" fill="#dad0c5"/>
          </g>
        </g>
        <g id="Group_64087" data-name="Group 64087" transform="translate(13.596 0.894)">
          <g id="Group_64086" data-name="Group 64086">
            <path id="Path_51822" data-name="Path 51822" d="M-57.563-257.416a9.012,9.012,0,0,0,3.92-1.836,7.883,7.883,0,0,0,1.278-1.352,4.3,4.3,0,0,0,.72-1.576q-.1-.633-.6-.67a1.038,1.038,0,0,0-.943.583,8.562,8.562,0,0,1-1.575,1.662,5.15,5.15,0,0,1-1.65.893,11.269,11.269,0,0,1-1.861.422,7.24,7.24,0,0,1-4.28-.509,7.139,7.139,0,0,1-3.176-2.7,2.5,2.5,0,0,0-.546-.831,1.131,1.131,0,0,0-.844-.335q-.5,0-.881.707a12.17,12.17,0,0,0,1.96,3.2,6.763,6.763,0,0,0,4.143,2.382A10.463,10.463,0,0,0-57.563-257.416Z" transform="translate(67.996 263.669)" fill="#7a2230"/>
          </g>
        </g>
        <g id="Group_64089" data-name="Group 64089" transform="translate(13.636 1.653)">
          <g id="Group_64088" data-name="Group 64088" transform="translate(0)">
            <path id="Path_51823" data-name="Path 51823" d="M-53.424-252.7q.471-.05,1.129-.161l1.315-.347.744-.323.149-.087q.037,0,.012-.025,0-.037-.025-.012l-.05.012-.2.074-.1.025-.062.025-.2.05q-.149.05-.707.174l-2.63.223-1.439-.087-1.154-.223-.645-.2a9.2,9.2,0,0,1-1.228-.546l-.558-.335q-.31-.211-.521-.385l-.074-.037-.05-.05-.124-.1-1.154-1.141L-62.53-258.4q0-.037-.025-.012-.037,0-.012.025l.248.6q.211.447.335.658l.5.831a9.327,9.327,0,0,0,.695.906l.434.459a5.572,5.572,0,0,0,.484.434,6.06,6.06,0,0,0,.546.422l.583.372,1.3.6a11.358,11.358,0,0,0,1.389.347l.335.05,1.675.062Z" transform="translate(62.577 258.418)" fill="#4b0f18"/>
          </g>
        </g>
        <g id="Group_64091" data-name="Group 64091" transform="translate(21.945 37.552)">
          <g id="Group_64090" data-name="Group 64090" transform="translate(0 0)">
            <path id="Path_51824" data-name="Path 51824" d="M-8.8-9.173V-8.8h.372m-.372,0v.372M-7.312-8.8-8.8-7.312-10.289-8.8-8.8-10.289Zm-1.861,0H-8.8" transform="translate(10.289 10.289)" fill="none" stroke="rgba(0,0,0,0)" stroke-linecap="round" stroke-linejoin="round" stroke-width="0.086"/>
          </g>
        </g>
      </g>
      <g id="Group_64101" data-name="Group 64101" transform="translate(46.609 76.913) rotate(-67.309)">
        <g id="Group_64094" data-name="Group 64094" transform="matrix(0.978, -0.208, 0.208, 0.978, 0, 3.79)">
          <g id="Group_64093" data-name="Group 64093" transform="translate(0 0)">
            <path id="Path_51825" data-name="Path 51825" d="M9.777,28.712a18.056,18.056,0,0,1-1.4,3.646L0,30.039q-.012-.943.012-1.885A176.088,176.088,0,0,1,1.728,7.318a59.4,59.4,0,0,0,.6-7.293L8.264,0a60.37,60.37,0,0,0,.347,9.513q.535,4.153,1.178,10.53T9.777,28.712Z" fill="#80553c"/>
          </g>
        </g>
        <g id="Group_64096" data-name="Group 64096" transform="translate(2.246 0)">
          <g id="Group_64095" data-name="Group 64095" transform="translate(0 0)">
            <path id="Path_51826" data-name="Path 51826" d="M5.957,2.978a2.869,2.869,0,0,1-.873,2.1,2.869,2.869,0,0,1-2.1.873,2.869,2.869,0,0,1-2.1-.873A2.869,2.869,0,0,1,0,2.978,2.869,2.869,0,0,1,.873.873,2.869,2.869,0,0,1,2.978,0a2.869,2.869,0,0,1,2.1.873A2.869,2.869,0,0,1,5.957,2.978Z" transform="translate(0)" fill="#80553c"/>
          </g>
        </g>
        <g id="Group_64098" data-name="Group 64098" transform="translate(2.695 5.762)">
          <g id="Group_64097" data-name="Group 64097" transform="translate(0 0)">
            <path id="Path_51827" data-name="Path 51827" d="M3.073,24.421l.149,1.091q.025.025-.012.025-.025.025-.025-.012L1.9,18.6l-.781-5.78L.01.025Q-.015,0,.022,0L.047.012,3.036,24.148Q3.061,24.334,3.073,24.421Z" transform="translate(0 0)" fill="#684633"/>
          </g>
        </g>
        <g id="Group_64100" data-name="Group 64100" transform="translate(9.117 31.175)">
          <g id="Group_64099" data-name="Group 64099" transform="translate(0 0)">
            <path id="Path_51828" data-name="Path 51828" d="M1.488,1.86V1.488H1.86m-.372,0V1.116m1.488.372L1.488,0,0,1.488,1.488,2.977Zm-1.86,0h.372" fill="none" stroke="rgba(0,0,0,0)" stroke-linecap="round" stroke-linejoin="round" stroke-width="0.086"/>
          </g>
        </g>
      </g>
      <g id="Group_64120" data-name="Group 64120" transform="translate(16.189 51.582) rotate(21.652)">
        <g id="Group_64103" data-name="Group 64103" transform="translate(0.595 22.836)">
          <g id="Group_64102" data-name="Group 64102" transform="translate(0 0)">
            <path id="Path_51829" data-name="Path 51829" d="M8.621,17.676a103.735,103.735,0,0,0,3.225-15.79L2.456,0Q.963,8.21,0,16.287Z" fill="#80553c"/>
          </g>
        </g>
        <g id="Group_64105" data-name="Group 64105" transform="translate(0.583 35.004)">
          <g id="Group_64104" data-name="Group 64104" transform="translate(0 0)">
            <path id="Path_51830" data-name="Path 51830" d="M8.782,4.391a4.243,4.243,0,0,0-1.29-3.113A4.222,4.222,0,0,0,4.391,0,4.263,4.263,0,0,0,1.278,1.278,4.263,4.263,0,0,0,0,4.391a4.222,4.222,0,0,0,1.278,3.1,4.243,4.243,0,0,0,3.113,1.29,4.2,4.2,0,0,0,3.1-1.29A4.2,4.2,0,0,0,8.782,4.391Z" fill="#80553c"/>
          </g>
        </g>
        <g id="Group_64108" data-name="Group 64108" transform="translate(2.382 21.286)">
          <g id="Group_64107" data-name="Group 64107" transform="translate(0 0)">
            <g id="Group_64106" data-name="Group 64106">
              <path id="Path_51831" data-name="Path 51831" d="M.781,0,0,5.1A14.564,14.564,0,0,0,9.588,6.9l.831-4.714Z" fill="#684633"/>
            </g>
          </g>
        </g>
        <g id="Group_64110" data-name="Group 64110" transform="translate(7.864 0)">
          <g id="Group_64109" data-name="Group 64109" transform="translate(0 0)">
            <path id="Path_51832" data-name="Path 51832" d="M14.562,7.281a7.015,7.015,0,0,0-2.133-5.148A7.015,7.015,0,0,0,7.281,0,7.015,7.015,0,0,0,2.134,2.134,7.015,7.015,0,0,0,0,7.281a7.015,7.015,0,0,0,2.134,5.148,7.015,7.015,0,0,0,5.148,2.134,7.015,7.015,0,0,0,5.148-2.134A7.015,7.015,0,0,0,14.562,7.281Z" transform="translate(0)" fill="#7a2230"/>
          </g>
        </g>
        <g id="Group_64112" data-name="Group 64112" transform="translate(0.025 1.985)">
          <g id="Group_64111" data-name="Group 64111" transform="translate(0 0)">
            <path id="Path_51833" data-name="Path 51833" d="M17.068,24.064A108.906,108.906,0,0,1,22.2,7.008L10.122,0Q5.855,3.758,0,21.236,5.9,27.649,17.068,24.064Z" fill="#7a2230"/>
          </g>
        </g>
        <g id="Group_64115" data-name="Group 64115" transform="translate(0 3.634)">
          <g id="Group_64114" data-name="Group 64114" transform="translate(0 0)">
            <g id="Group_64113" data-name="Group 64113">
              <path id="Path_51834" data-name="Path 51834" d="M5.383,5.631A121.95,121.95,0,0,0,0,19.611q5.675,6.257,16.671,2.9-12.379.707-14-3.783Q1.675,16,8.658,0A31.9,31.9,0,0,0,5.383,5.631Z" fill="#4b0f18"/>
            </g>
          </g>
        </g>
        <g id="Group_64117" data-name="Group 64117" transform="translate(18.237 9.802)">
          <g id="Group_64116" data-name="Group 64116" transform="translate(0 0)">
            <path id="Path_51835" data-name="Path 51835" d="M3.669.022,3.5.27l-.05.087-.074.1-.31.521-.037.074-.05.074L1.9,3.458.729,7.217.022,11.422l-.012.136q-.025.025.012.025l.025-.012,2.1-7.455L3.235,1.151l.025-.087L3.545.407,3.595.32,3.706.035Q3.731.01,3.694.01,3.669-.015,3.669.022Z" fill="#4b0f18"/>
          </g>
        </g>
        <g id="Group_64119" data-name="Group 64119" transform="translate(13.657 5.793)">
          <g id="Group_64118" data-name="Group 64118" transform="translate(0 0)">
            <path id="Path_51836" data-name="Path 51836" d="M1.488,1.116v.372h.372m-.372,0v.372m1.488-.372L1.488,2.977,0,1.488,1.488,0Zm-1.861,0h.372" fill="none" stroke="rgba(0,0,0,0)" stroke-linecap="round" stroke-linejoin="round" stroke-width="0.086"/>
          </g>
        </g>
      </g>
      <g id="Group_64129" data-name="Group 64129" transform="translate(12.3 99.226) rotate(-137.749)">
        <g id="Group_64122" data-name="Group 64122" transform="matrix(0.978, 0.208, -0.208, 0.978, 6.728, 0)">
          <g id="Group_64121" data-name="Group 64121" transform="translate(0 0)">
            <path id="Path_51837" data-name="Path 51837" d="M9.778,3.647A18.058,18.058,0,0,0,8.377,0L0,2.32Q-.008,3.262.017,4.2A176.1,176.1,0,0,0,1.728,25.043a59.407,59.407,0,0,1,.6,7.293l5.941.025a60.375,60.375,0,0,1,.347-9.514q.535-4.153,1.178-10.531T9.778,3.647Z" transform="translate(0)" fill="#80553c"/>
          </g>
        </g>
        <g id="Group_64124" data-name="Group 64124" transform="translate(2.246 29.487)">
          <g id="Group_64123" data-name="Group 64123" transform="translate(0 0)">
            <path id="Path_51838" data-name="Path 51838" d="M5.957,2.979A2.869,2.869,0,0,0,5.084.873,2.869,2.869,0,0,0,2.979,0,2.869,2.869,0,0,0,.873.873,2.869,2.869,0,0,0,0,2.979,2.869,2.869,0,0,0,.873,5.084a2.869,2.869,0,0,0,2.105.873,2.869,2.869,0,0,0,2.105-.873A2.869,2.869,0,0,0,5.957,2.979Z" transform="translate(0)" fill="#80553c"/>
          </g>
        </g>
        <g id="Group_64126" data-name="Group 64126" transform="translate(2.695 4.132)">
          <g id="Group_64125" data-name="Group 64125" transform="translate(0 0)">
            <path id="Path_51839" data-name="Path 51839" d="M3.074,1.126,3.223.035Q3.247.01,3.21.01q-.025-.025-.025.012L1.9,6.944l-.781,5.78-1.1,12.8q-.025.025.012.025l.025-.012L3.036,1.4Q3.061,1.213,3.074,1.126Z" fill="#684633"/>
          </g>
        </g>
        <g id="Group_64128" data-name="Group 64128" transform="translate(9.118 1.289)">
          <g id="Group_64127" data-name="Group 64127" transform="translate(0 0)">
            <path id="Path_51840" data-name="Path 51840" d="M1.488,1.116v.372h.372m-.372,0v.372m1.488-.372L1.488,2.977,0,1.488,1.488,0Zm-1.861,0h.372" fill="none" stroke="rgba(0,0,0,0)" stroke-linecap="round" stroke-linejoin="round" stroke-width="0.086"/>
          </g>
        </g>
      </g>
      <g id="Group_64134" data-name="Group 64134" transform="translate(36.871 31.795)">
        <g id="Group_64131" data-name="Group 64131" transform="translate(0 0)">
          <g id="Group_64130" data-name="Group 64130">
            <path id="Path_51841" data-name="Path 51841" d="M-21.641-106.406a7.166,7.166,0,0,1-1.166-.471,16.863,16.863,0,0,1-2.32-1.476,20.334,20.334,0,0,1-2.1-1.824,11.305,11.305,0,0,1-1.724-2.233q-.757-1.265-1.327-2.444a21.868,21.868,0,0,1-1.042-2.531l-.323,13.944,9.962.149Z" transform="translate(31.64 125.771)" fill="#80553c"/>
            <path id="Path_51842" data-name="Path 51842" d="M-19.821-170.945h-.062a4.548,4.548,0,0,0-1.377-3.015,4.565,4.565,0,0,0-3.349-1.389,4.62,4.62,0,0,0-3.374,1.389,4.6,4.6,0,0,0-1.377,3.362q0,.136.012.273l-.062,3.362a21.864,21.864,0,0,0,1.042,2.531q.571,1.179,1.327,2.444a11.3,11.3,0,0,0,1.724,2.233,20.333,20.333,0,0,0,2.1,1.824,16.865,16.865,0,0,0,2.32,1.476,7.163,7.163,0,0,0,1.166.471Z" transform="translate(29.733 175.349)" fill="#684633"/>
          </g>
        </g>
        <g id="Group_64133" data-name="Group 64133" transform="translate(3.089 23.88)">
          <g id="Group_64132" data-name="Group 64132" transform="translate(0 0)">
            <path id="Path_51843" data-name="Path 51843" d="M-8.8-9.173V-8.8h.372m-.372,0v.372M-7.312-8.8-8.8-7.312-10.289-8.8-8.8-10.289Zm-1.861,0H-8.8" transform="translate(10.289 10.289)" fill="none" stroke="rgba(0,0,0,0)" stroke-linecap="round" stroke-linejoin="round" stroke-width="0.086"/>
          </g>
        </g>
      </g>
      <g id="Group_64225" data-name="Group 64225" transform="translate(26.885 0)">
        <g id="Group_64135" data-name="Group 64135" transform="translate(10.353 31.808)">
          <path id="Path_51844" data-name="Path 51844" d="M-23.277-28.079a4.553,4.553,0,0,1-1.394,3.354,4.553,4.553,0,0,1-3.354,1.394,4.583,4.583,0,0,1-3.363-1.394,4.568,4.568,0,0,1-1.385-3.354,4.6,4.6,0,0,1,1.385-3.363,4.6,4.6,0,0,1,3.363-1.385,4.568,4.568,0,0,1,3.354,1.385A4.583,4.583,0,0,1-23.277-28.079Z" transform="translate(32.773 32.828)" fill="none" stroke="red" stroke-linecap="round" stroke-linejoin="round" stroke-width="0.086"/>
        </g>
        <g id="Group_64141" data-name="Group 64141" transform="translate(4.751 8.981)">
          <g id="Group_64137" data-name="Group 64137">
            <g id="Group_64136" data-name="Group 64136">
              <path id="Path_51845" data-name="Path 51845" d="M-13.934-153.516a14.011,14.011,0,0,0-10.284-4.255A14.011,14.011,0,0,0-34.5-153.516a14.011,14.011,0,0,0-4.255,10.284,13.99,13.99,0,0,0,2.221,7.778l.012.062q5.224,7.308,12.653,8.274,8.784.863,13.708-5.955l.323-7.8-.074.31a14.734,14.734,0,0,0,.236-2.667A14.011,14.011,0,0,0-13.934-153.516Z" transform="translate(38.757 157.771)" fill="#80553c"/>
            </g>
          </g>
          <g id="Group_64140" data-name="Group 64140" transform="translate(10.185 6.411)">
            <g id="Group_64139" data-name="Group 64139">
              <g id="Group_64138" data-name="Group 64138">
                <path id="Path_51846" data-name="Path 51846" d="M82.07,48.855a2.275,2.275,0,0,0,1.662-1.079,3.28,3.28,0,0,0,.447-.93,2.335,2.335,0,0,0,2.444,2.183,1.925,1.925,0,0,0,1.848-.906,2.3,2.3,0,0,0,.459-1.613q-.323-.409-9.416-1.451Q70.4,44,70.4,44.439a4.968,4.968,0,0,0,1.216,3.5,3.69,3.69,0,0,0,2.332,1.2,4.978,4.978,0,0,0,3.8-.955,6.023,6.023,0,0,0,1.327-1.464,3.075,3.075,0,0,0,1.092,1.662A2.609,2.609,0,0,0,82.07,48.855Z" transform="translate(-70.397 -44.312)" fill="#684633"/>
              </g>
            </g>
          </g>
        </g>
        <g id="Group_64146" data-name="Group 64146" transform="translate(9.391 30.443)">
          <g id="Group_64143" data-name="Group 64143" transform="translate(0 0)">
            <g id="Group_64142" data-name="Group 64142" transform="translate(0 0)">
              <path id="Path_51847" data-name="Path 51847" d="M-9.386,9.01q3.936,5.032,7.8,6.153t5.359.012Q6.939,9.967,9.817,5.6a8.368,8.368,0,0,0,.744-8.771l-23.6.533Q-12.489,5.7-9.386,9.01Z" transform="translate(13.033 3.173)" fill="#80553c"/>
            </g>
          </g>
          <g id="Group_64145" data-name="Group 64145" transform="translate(6.01 14.843)">
            <g id="Group_64144" data-name="Group 64144">
              <path id="Path_51848" data-name="Path 51848" d="M-30.99,101.907q.037-.037-.012-.037h-.025l-1.365,1.848-.012.037-.012.025-.037.05q-.248.335-.323.422l-.347.347-.062.05-.025.025-.025.012-.174.136-.248.136-.261.087a1.355,1.355,0,0,1-.285.05h-.037l-.025.012h-.248l-2.63-.248-.037-.012h-.05l-1.365-.335-.012-.012h-.025l-.372-.124a6.023,6.023,0,0,1-.633-.223l-.31-.124-.074-.037-.037-.012-.037-.025-.707-.36q-.447-.248-.992-.6l-.806-.558-1.017-.918-.025-.037q-.012-.012-.037,0t0,.037l.025.037.67.707,1.092.881q.583.409.98.645a6.191,6.191,0,0,0,.558.323l.136.087.037.012,1.079.471.335.112.037.025h.025l.025.012,1.377.385h.025l.012.012h.012l.037.012,1.613.273.72.074.72.025a2.034,2.034,0,0,0,.732-.2l.31-.186.223-.2.037-.025.434-.471a3.817,3.817,0,0,0,.31-.509l.074-.124.05-.112Z" transform="translate(43.687 -101.479)" fill="#9f7b67"/>
            </g>
          </g>
        </g>
        <g id="Group_64169" data-name="Group 64169" transform="translate(0 0)">
          <g id="Group_64148" data-name="Group 64148" transform="translate(4.23 18.653)">
            <g id="Group_64147" data-name="Group 64147">
              <path id="Path_51849" data-name="Path 51849" d="M54.877,124.659q.112,2.295.347,4.119.124.943.261,1.687a3.784,3.784,0,0,1,3,1.216,8.013,8.013,0,0,1,2.208,4.59,58.045,58.045,0,0,0,.347-7.108,28.877,28.877,0,0,1,.608-6.5q-.744-.31-3.287.6Q57.991,123.382,54.877,124.659Z" transform="translate(-54.877 -122.583)" fill="url(#linear-gradient)"/>
            </g>
          </g>
          <g id="Group_64150" data-name="Group 64150" transform="translate(0 0.09)">
            <g id="Group_64149" data-name="Group 64149">
              <path id="Path_51850" data-name="Path 51850" d="M49.965-4.908a3.958,3.958,0,0,0-1.513-.682,5.794,5.794,0,0,0-2.531.012,3.34,3.34,0,0,0-1.9,1.427q-.3-1.389-1.575-1.216a2.666,2.666,0,0,0-2.01,1.762,1.033,1.033,0,0,0-.6-.335,1.141,1.141,0,0,0-.695.1,1.749,1.749,0,0,0-.645.459,1.223,1.223,0,0,0-.285.72,1.776,1.776,0,0,0-.943-.906,2.224,2.224,0,0,0-2.022.087,3.041,3.041,0,0,0-1.427,1.265A2.463,2.463,0,0,0,33.552-.6a5.651,5.651,0,0,0-2.134.3A3.6,3.6,0,0,0,29.669.761a6,6,0,0,0-1.253,2.431,4.749,4.749,0,0,0,.025,2.456,3.468,3.468,0,0,0-1.489,1.389A7.987,7.987,0,0,0,25.774,9.42a3.617,3.617,0,0,0,.409,2.866,20.036,20.036,0,0,0,1.427,2.146,3.486,3.486,0,0,0,.682,2.556,4.776,4.776,0,0,0,1.873,1.749l.112-.98a3.934,3.934,0,0,1,.732-2.022,2.35,2.35,0,0,0,2.493.93,1.825,1.825,0,0,0,1.34-1.228,15.967,15.967,0,0,0,.521-2.233,2.407,2.407,0,0,0,1.439.682,3.543,3.543,0,0,0,1.7-.211,4.906,4.906,0,0,0,2.072-1.824q.31-.72.471-1.154a2.842,2.842,0,0,0,1.427,2.221,6.356,6.356,0,0,0,2.469,1.116,5.615,5.615,0,0,0,2.754-.335,3.984,3.984,0,0,0,1.737-1.749,2.666,2.666,0,0,0,1.6,1.154,3.191,3.191,0,0,0,2.134.136,1.889,1.889,0,0,0,.906-.62,2.04,2.04,0,0,0,.335-.955,2.308,2.308,0,0,0,1.365,2.022,5.028,5.028,0,0,0,1.538.273,2.309,2.309,0,0,0,.992-.236,1.819,1.819,0,0,0,.744-.806,3.134,3.134,0,0,0,2.283.5,3.075,3.075,0,0,0,2.58-1.861,3.535,3.535,0,0,0,.174-3.039,3.286,3.286,0,0,0-1.476-1.638A2.058,2.058,0,0,0,63.152,5.4a2.284,2.284,0,0,0-.285-1.141A2.692,2.692,0,0,0,60.2,3.006a3.056,3.056,0,0,0,1.29-1.067,2.354,2.354,0,0,0,.484-2.171,2.343,2.343,0,0,0-1.886-1.6,4.821,4.821,0,0,0-2.853.149,2.743,2.743,0,0,0-.174-1.265,2.024,2.024,0,0,0-1.1-.943,3.109,3.109,0,0,0-1.724-.248,2.011,2.011,0,0,0-1.3.782,1.488,1.488,0,0,0-.844-.571.9.9,0,0,0-.645.136,1.1,1.1,0,0,0-.447.422A2.427,2.427,0,0,0,49.965-4.908Z" transform="translate(-25.638 5.724)" fill="#140e0e"/>
            </g>
          </g>
          <g id="Group_64154" data-name="Group 64154" transform="translate(0)">
            <g id="Group_64151" data-name="Group 64151" transform="translate(18.037)">
              <path id="Path_51851" data-name="Path 51851" d="M156.092,11.481l.012.025.72.769.335.248.335.186.037.025.037.012.31.136.248.074.087.012.087.025h.05l.025.012h.012l.372.025a3.121,3.121,0,0,0,.757-.1l.087-.025.174-.074.05-.012h.012v-.012h.012l.012-.012.05-.012.012-.012.025-.012.05-.012.36-.236.136-.124a1.954,1.954,0,0,0,.248-.285l.186-.3.062-.161L161,11.63v-.012l.012-.012.025-.074v-.012l.012-.025.025-.074v-.025l.012-.025v-.037l.062-.3v-.062l.012-.037v-.36l-.012-.062v-.062l-.012-.05-.05-.3-.05-.149-.012-.062L161,9.844l-.012-.05-.037-.074V9.7l-.05.012.012.025v.124l.012.062V10.4l-.012.062v.05l-.012.05v.062l-.025.112V10.8l-.012.062-.012.025-.012.037-.025.112-.087.223v.012l-.012.012-.025.062v.012l-.012.025-.025.025-.012.037v.012l-.012.025-.236.347-.236.236-.211.149-.223.112-.012.012-.037.012-.025.012h-.012l-.037.012-.074.037-.074.025-.385.087-.645.025-.012-.012h-.037l-.223-.037-.037-.012h-.037L158,12.461l-.074-.012L157.1,12.1l-.893-.583-.062-.05-.025-.012-.025.025m14.217-.149-.012.025-.124.124-.037.025-.037.05-.037.037-.161.136-.062.037-.273.2-.174.087-.037.025-.335.136a.3.3,0,0,1-.1.037l-.1.037-.05.025-.05.012-.062.025-.149.037-.037.012-.025.012-.112.025h-.012l-.012.012h-.037l-.112.025a2.476,2.476,0,0,1-.434.087l-.223.025-.025.012-.5.012-.1-.012H166.8l-.186-.025-.05-.012h-.037l-.447-.1-.261-.087-.062-.012-.012-.012-.025.037.025.012.124.124.136.1.273.149.074.05.087.037h.025l.025.012.236.087.211.05h.037l.025.012h.062l.112.025h.112l.037.012h.372l.025-.012h.062l.062-.012h.062l.509-.1.025-.012h.025l.012-.012.112-.025.025-.012.608-.248.1-.062.05-.025.323-.223.223-.211a1.6,1.6,0,0,0,.211-.285l.05-.062.087-.161.062-.161.012-.062.012-.012-.037-.025M151.614-5.688l-.223.174-.05.05-.025.012-.409.422-.012.025-.037.037-.136.2-.025.05-.025.037-.05.1-.025.037-.074.136-.186.533-.012.074-.012.025.037.012.012-.025.323-.434.025-.025.025-.037.062-.062.124-.149.025-.037.248-.248.025-.012.174-.149.037-.037.149-.112L151.6-5.1l.025-.025.248-.174.112-.062.062-.025.05-.037.062-.012.161-.087.037-.012.174-.074.037-.012.112-.05.372-.124.707-.161h.062l.05-.012L154.095-6h.05l.05-.012h.1a1.261,1.261,0,0,1,.2-.012h.707l.025.012.012-.05h-.025l-.062-.037-.074-.025-.05-.025-.608-.161-.211-.025h-.062l-.05-.012-.757.012-.682.149-.409.149-.087.05-.037.012-.509.285M159.6-2.4l-.025.037-.012.025-.025.012.012.037.025-.012h.074l.025-.012h.025l.062-.012h.074l.05-.012h.31l.087.012.037.012h.025l.1.05h.012l.025.012.012.012.025.012.136.124.062.087.012.012.012.025.025.025.012.025.025.037.025.05.025.025V-1.8l.025.05a.5.5,0,0,1,.074.174v.025l.012.012v.05l.012.037v.025l.012.025v.186l-.012.037v.062l-.012.025v.025l-.012.037v.025l-.012.037.025.012.025-.012L161.017-1l.037-.025.025-.012.012-.025.05-.05.025-.037.012-.012.012-.025a.8.8,0,0,0,.1-.186L161.3-1.4V-1.42l.025-.062.012-.136v-.062l-.012-.074v-.037l-.012-.037L161.3-1.9l-.012-.025L161.265-2v-.025l-.012-.012-.025-.074-.037-.062-.012-.037-.012-.025-.025-.025v-.025h-.012V-2.3h-.012l-.087-.124-.124-.124-.062-.05-.037-.012-.074-.05-.124-.037a.356.356,0,0,0-.161-.037,1.172,1.172,0,0,0-.285.012L160.1-2.7l-.062.012-.161.074-.112.074-.062.062-.05.037-.025.025Z" transform="translate(-150.311 6.345)" fill="#493f3f"/>
            </g>
            <g id="Group_64152" data-name="Group 64152" transform="translate(0 5.111)">
              <path id="Path_51852" data-name="Path 51852" d="M29.992,44.315l.037.05.037.074.025.037.025.05.484.67.5.521.05.037.05.05.025.012.025.025.347.248.347.174h.012l.385.124.422.074.5-.012.261-.05.037-.012h.025l.062-.025h.025l.05-.025h.012l.012-.012.1-.037.025-.012.025-.025.062-.025.223-.174.037-.037.05-.037.1-.1.025-.037.062-.062.186-.223.025-.05.037-.037.037-.074.037-.05q.012-.012-.012-.037h-.025l-.112.087-.05.025-.037.037-.174.112-.062.05-.211.136-.05.025L34,45.8l-.174.087-.05.012-.037.025-.025.012h-.025l-.05.012-.012.012H33.6l-.037.012h-.012l-.05.012h-.062a1.477,1.477,0,0,1-.223.012h-.236l-.471-.074-.062-.025-.3-.087-.025-.012h-.012l-.012-.012-.273-.124-.868-.608-.074-.074-.087-.062-.422-.36-.025-.012-.124-.112-.05-.037-.037-.037-.062-.037-.05-.05q-.012-.012-.037.012v.025m-2.915-7.642q.037-.037-.012-.037H27.04l-.558.695-.36.62-.112.248L26,38.211l-.273.918-.012.012v.025l-.012.05-.012.1v.05l-.012.05-.037.385.025.707.037.3.05.2.012.1.062.236.025.05.05.186.025.037.012.05.484.98.521.744.05.05.037.05.62.633h.037v-.037l-.285-.447-.05-.1-.124-.2-.037-.05-.571-1.129-.012-.037-.025-.037-.36-1.179-.012-.1-.012-.037v-.05l-.012-.087-.025-.087v-.1a1.843,1.843,0,0,1-.025-.36L26.122,40v-.174l.012-.1v-.174l.012-.087v-.087l.012-.087.012-.05V39.2l.025-.174.025-.087.025-.161.1-.4.012-.037.012-.025v-.012l.149-.434.558-1.2m6.5-7.493a1.752,1.752,0,0,1,.236-.012l.459-.025a.022.022,0,0,0,.025-.025l-.012-.012-.261-.05-.732-.074-.608.012-.918.149-.657.223-.223.1L30.029,30l-.161.124-.645.645-.236.31v.012h-.012l-.012.012-.012.025-.062.087v.012l-.012.012-.335.558-.1.236a1.814,1.814,0,0,0-.174.471l-.037.112-.025.124-.037.112-.012.124L28.144,33v.025l-.012.062v.062l-.037.285.05.844.124.533.025.074.037.074a2.373,2.373,0,0,0,.236.484l.261.4q.025.012.037,0V35.8l-.112-.236-.025-.087-.037-.087a3.1,3.1,0,0,1-.149-.5l-.025-.074-.062-.409v-.087l-.012-.087.012-.571.012-.05v-.05l.012-.05v-.05l.087-.409a2.593,2.593,0,0,1,.124-.422,4.066,4.066,0,0,1,.4-.831l.025-.05.161-.236L29.3,31.5l.012-.025.037-.05.012-.025.012-.012v-.012h.012l.223-.285.037-.037a5.754,5.754,0,0,1,.682-.67L30.7,30.1l.05-.025.136-.1.546-.285.05-.012.1-.05.3-.112.05-.012.05-.025,1.079-.248h.05l.037-.012.3-.025h.037l.037-.012h.062m8.845,8.944-.074-.05-.025-.025-.037-.012-.074-.05L42.174,38v.025l.025.037.025.074.025.025.074.161.074.248V38.6l.012.037.012.112v.248l-.025.136-.025.062v.037l-.012.012v.012l-.012.037V39.3l-.012.012-.025.087v.012l-.012.012-.062.161-.149.211-.136.136-.223.136-.273.124-.05.012-.3.1h-.025l-.05.025L41,40.345a.022.022,0,0,0-.025.025l.012.012.05.025.05.012h.025l.037.012.3.037a.161.161,0,0,0,.124,0h.074l.223-.037.248-.087.037-.025.037-.012.037-.025.05-.025.149-.124.186-.223.161-.31v-.025l.012-.025.025-.074v-.025l.012-.025.012-.05v-.025l.012-.025v-.05l.012-.087v-.273l-.012-.05v-.037l-.012-.05v-.025l-.012-.012-.05-.161-.025-.037-.012-.037-.012-.025-.062-.1-.025-.025-.012-.025-.05-.062Z" transform="translate(-25.638 -28.982)" fill="#493f3f"/>
            </g>
            <g id="Group_64153" data-name="Group 64153" transform="translate(16.276 3.709)">
              <path id="Path_51853" data-name="Path 51853" d="M138.942,19.293h-.174l-.223.074-.05.037-.211.2-.124.223-.012.05-.012.025.012.037h.025l.025-.025.037-.012.174-.1.112-.037.037-.025.087-.012.012-.012h.05l.012-.012.087.012h.025l.025.012h.012l.074.037.037.012.037.025.037.037.025.012.149.149.012.025.025.012.012.025.012.012.025.05.012.012.025.037.025.087.012.012v.05l.012.025v.05h.012v.2H139.4v.037l-.012.025v.012l-.012.025v.037l-.012.012-.112.2-.025.025.012.037h.05l.05-.012.05-.025.136-.087.025-.012.012-.012.025-.012.062-.062.037-.05v-.012l.012-.012.012-.037.037-.05.05-.149v-.05h.012v-.074l.012-.05v-.074l-.012-.037-.025-.174-.025-.074-.025-.037-.012-.037-.124-.186-.074-.074a1.531,1.531,0,0,0-.248-.211l-.074-.037Z" transform="translate(-138.135 -19.293)" fill="#493f3f"/>
            </g>
          </g>
          <g id="Group_64156" data-name="Group 64156" transform="translate(9.356 15.432)">
            <g id="Group_64155" data-name="Group 64155">
              <path id="Path_51854" data-name="Path 51854" d="M96.333,100.334l-.025.112-.037.285-.136.558a.309.309,0,0,1-.037.136l-.136.434-.037.074-.025.074-.025.037-.025.074-.1.2a2.907,2.907,0,0,1-.385.62l-.236.285-.025.012-.273.248-.025.012-.05.05-.05.025-.2.149-.347.2-.037.025-.05.012-.087.05-.136.05-.05.025-.05.012-.05.025-.285.087-.012.012h-.025l-.72.124a2.837,2.837,0,0,1-.707-.037l-.087-.012-.161-.05h-.05l-.012-.012h-.025l-.186-.062-.037-.025-.062-.025-.248-.136-.037-.012-.025-.025L91,103.932l-.025-.025-.1-.074a2.737,2.737,0,0,1-.31-.31l-.211-.323q0-.037-.025-.012-.037,0-.012.025l.062.223.074.161.025.037.025.05.062.1.025.05.025.025.012.025.037.05.223.236.1.074.025.025.174.124.074.037.037.025.211.1.012.012h.025l.037.025.087.025.05.025.149.037a2.794,2.794,0,0,0,.806.112l.658-.062.161-.037.025-.012h.037l.31-.1.062-.012.1-.05.05-.012.31-.149q.1-.05.4-.223l.087-.074.1-.062.037-.037.087-.062.025-.025.025-.012.161-.149.074-.087.05-.037v-.012l.012-.012.025-.012.074-.087.025-.037.174-.223a3.567,3.567,0,0,0,.372-.72l.025-.1.037-.087v-.012l.012-.025.087-.3.012-.087.025-.087.05-.31.05-.732-.037-.4a.022.022,0,0,0-.025-.025Z" transform="translate(-90.307 -100.322)" fill="#493f3f"/>
            </g>
          </g>
          <g id="Group_64158" data-name="Group 64158" transform="translate(12.517 1.662)">
            <g id="Group_64157" data-name="Group 64157" transform="translate(0 0)">
              <path id="Path_51855" data-name="Path 51855" d="M113.569,5.157h-.037l-.087-.012-.087.012h-.074l-.087.012a1.39,1.39,0,0,0-.31.112h-.012l-.025.012-.025.025-.037.012-.037.025-.037.037H112.7l-.012.012-.05.037-.112.112-.161.223-.062.112-.087.223-.025.112-.012.025v.025l-.012.05-.012.1v.335l.012.074v.05l.025.136.025.074.025.012.012-.025.074-.372.025-.074V6.6l.037-.124.112-.248a1.216,1.216,0,0,1,.236-.31l.087-.087.025-.012.037-.037.062-.037h.012l.025-.012L113,5.715l.05-.025h.012l.012-.012.1-.025h.012l.012-.012h.05l.025-.012h.161l.05.012a.789.789,0,0,1,.211.05l.062.025h.025l.074.037.05.037h.025l.012.012.025.012.025.025h.025v.012h.012l.31.211.236.211.05.037.025.025.012.025.05.037.248.273.05.037.608.744.025.025.025.037.2.248.05.05q0,.012.037.012V7.8l-.087-.248-.285-.633a2.189,2.189,0,0,0-.236-.4l-.025-.05-.149-.211-.05-.05-.273-.323L114.4,5.5l-.124-.074V5.418q0,.012-.012,0l-.012-.012-.037-.012-.025-.025h-.012l-.012-.012h-.012L114,5.281l-.074-.025-.074-.037-.074-.025h-.05l-.074-.025h-.037Z" transform="translate(-112.154 -5.145)" fill="#493f3f"/>
            </g>
          </g>
          <g id="Group_64160" data-name="Group 64160" transform="translate(1.924 20.158)">
            <g id="Group_64159" data-name="Group 64159">
              <path id="Path_51856" data-name="Path 51856" d="M39.7,135.011l-.026-.043-.59-1.76-.016-.085-.051-.137h-.036l-.01.025-.021.118v.051l-.01.042.012.915.1.511.017.051.008.059.076.214a2.121,2.121,0,0,0,.17.428l.356.61.044.043.008.026.018.017.079.1a2.78,2.78,0,0,0,.3.312l.071.069.365.271.045.026.027.026.135.063.054.035.314.135.018.017.019-.033-.018-.017-.026-.043-.283-.278-.044-.06-.053-.052-.053-.069-.053-.052-.272-.354-.035-.035-.306-.473-.043-.094-.078-.129-.026-.06-.052-.086Z" transform="translate(-38.939 -132.985)" fill="#493f3f"/>
            </g>
          </g>
          <g id="Group_64162" data-name="Group 64162" transform="translate(25.296 1.799)">
            <g id="Group_64161" data-name="Group 64161" transform="translate(0)">
              <path id="Path_51857" data-name="Path 51857" d="M202.463,6.547l-.126-.149-.164-.136-.179-.1-.061-.012-.048-.025-.049-.012h-.062l-.036-.012h-.05l-.049-.012h-.1l-.051.012h-.1l-.177.05-.166.074-.181.112-.027.025-.052.037-.041.05-.053.05-.028.05-.068.087-.015.037a.808.808,0,0,0-.07.112l-.015.037-.014.025.023.025.026-.012.039-.025.04-.037.026-.012.039-.025.027-.025.078-.05.1-.05.05-.012.1-.05.239-.05h.186l.024.012h.037l.036.012h.037l.024.012.036.012h.037l.048.025.036.012.048.025.023.025.024.012.106.087.138.161.022.037.023.025v.012l.012.012.022.037.011.025h.012V7.08l.023.025.033.062.02.062.023.025.04.136.011.025.01.037.011.025.01.037v.012l.012.012.024.186.011.025-.006.087,0,.112.009.05-.023.323.024.012.014-.025.027-.037.04-.037.03-.074.027-.037.015-.037.057-.1.046-.124.017-.062,0-.037.015-.037.018-.074.017-.248-.01-.037,0-.05-.019-.087,0-.037-.018-.1-.022-.037-.019-.087-.044-.087-.009-.05-.012-.012V6.807l-.012-.012-.022-.037-.021-.05-.022-.037-.035-.037Z" transform="translate(-200.482 -6.088)" fill="#493f3f"/>
            </g>
          </g>
          <g id="Group_64164" data-name="Group 64164" transform="translate(28.727 15.073)">
            <g id="Group_64163" data-name="Group 64163" transform="translate(0)">
              <path id="Path_51858" data-name="Path 51858" d="M225.831,98.182l-.021-.05-.022-.037-.162-.174-.048-.025-.036-.025-.023-.025-.024-.012-.027.025.021.05,0,.037.021.05.015.136.01.037,0,.037.019.087-.012.174-.037.174-.031.087-.014.025v.012h-.012l0,.025-.014.025-.123.161-.04.037-.041.05-.013.012H225.2l-.133.124-.026.012-.013.012-.026.012v.012h-.012l-.039.025-.026.012-.013.012-.05.012-.039.025-.076.025h-.05l-.038.012-.088.012h-.211l-.086-.012h-.062l-.014.025.024.012.011.025.069.074.153.112.049.012.1.05.061.012h.025l.036.012h.2l.075-.012.038-.012h.037l.077-.037h.025l.013-.012.076-.025.027-.025.038-.012.1-.074.027-.025.039-.025.027-.025h.012v-.012l.066-.062.162-.186.015-.037.027-.037.015-.037.027-.037.03-.074.013-.012,0-.025.015-.037.036-.161.005-.074-.022-.223-.042-.112-.01-.037-.011-.025Z" transform="translate(-224.196 -97.835)" fill="#493f3f"/>
            </g>
          </g>
          <g id="Group_64166" data-name="Group 64166" transform="translate(29.614 16.983)">
            <g id="Group_64165" data-name="Group 64165">
              <path id="Path_51859" data-name="Path 51859" d="M230.341,113.2l-.015.037.024.012.188.149.06.025.023.025.1.05.035.025h.012l.1.05.362.149.11.025.048.025.171.037a3.481,3.481,0,0,0,.505.05h.273l.063-.012h.112l.038-.012.063-.012h.074l.038-.012h.025l.076-.025h.05l.026-.012.063-.012.33-.112.309-.161.066-.05.065-.037.226-.211.191-.248a2.228,2.228,0,0,0,.222-.509l.017-.062,0-.025.014-.025,0-.062.017-.062.029-.422-.026-.335-.086-.372,0-.025-.038.012,0,.025-.017.062-.009.124-.017.062-.1.521,0,.05-.17.484-.141.236-.136.174-.014.025-.026.012-.014.025-.013.012h-.012l-.106.1-.026.012-.04.037a1.9,1.9,0,0,1-.424.211l-.228.074h-.025l-.038.012-.063.012-.026.012h-.037l-.239.05h-.062l-.113.025h-.124l-.026.012h-.533l-.049-.012h-.05l-.467-.062-.085-.025-.257-.05-.06-.025h-.05l-.073-.025-.061-.012Z" transform="translate(-230.326 -111.04)" fill="#493f3f"/>
            </g>
          </g>
          <g id="Group_64168" data-name="Group 64168" transform="translate(7.828 2.022)">
            <g id="Group_64167" data-name="Group 64167">
              <path id="Path_51860" data-name="Path 51860" d="M82.621,7.631h-.583l-.571.124-.1.037-.31.149-.2.124-.335.273-.025.025-.012.025-.087.087-.074.1q-.025.037-.074.1l-.074.1-.012.012V8.8l-.025.025-.236.471-.124.422-.025.211-.012.05v.31l.025.149v.074l.087.335.025.05.025.012.012-.025.012-.05v-.074l.012-.037v-.05l.012-.05v-.05l.087-.422.05-.161.037-.074.037-.136.025-.037L80.2,9.7l.025-.05.025-.037V9.591l.161-.285.025-.037.025-.05.025-.037.025-.025.012-.025.025-.037.025-.025V9.058l.012-.012.3-.36.025-.037.037-.025.112-.112.05-.025.037-.037.236-.174.5-.273.223-.087.074-.037.136-.05.062-.012.062-.025.149-.037.037-.025.062-.012.062-.025.012-.025-.025-.012Z" transform="translate(-79.743 -7.631)" fill="#493f3f"/>
            </g>
          </g>
        </g>
        <g id="Group_64176" data-name="Group 64176" transform="translate(1.405 25.587)">
          <g id="Group_64171" data-name="Group 64171" transform="translate(0 2.005) rotate(-15.965)">
            <g id="Group_64170" data-name="Group 64170" transform="translate(0 0)">
              <path id="Path_51861" data-name="Path 51861" d="M5.99,1.554A3.257,3.257,0,0,0,3.682.029a2.7,2.7,0,0,0-2.63,1.4A6.368,6.368,0,0,0,.011,5.512,8.011,8.011,0,0,0,1.288,9.655a7.88,7.88,0,0,0,2.568,2.506,17.588,17.588,0,0,0,2.245.906q.124-.636.769-2.605a11,11,0,0,0,.3-4.776A10.115,10.115,0,0,0,5.99,1.554Z" fill="#80553c"/>
            </g>
          </g>
          <g id="Group_64173" data-name="Group 64173" transform="translate(2.701 3.032)">
            <g id="Group_64172" data-name="Group 64172">
              <path id="Path_51862" data-name="Path 51862" d="M-42.921-25.08l.149-.05.05-.025.062-.012.136-.05h.037l.136-.037.087-.012.05-.012h.05l.2-.025.223.012.223.05a2.05,2.05,0,0,1,.447.186l.223.161.1.087.025.012.174.174.459.571.558.918.025.062.6,1.166.025.037.087.186.037.05.037.087.037.062q0,.037.025.012.037,0,.012-.025l-.037-.285-.149-.608-.459-1.265-.571-.943-.447-.484a.134.134,0,0,1-.062-.05l-.2-.149-.347-.2L-41-25.5l-.074-.037-.074-.025-.3-.062h-.074l-.074-.012h-.136l-.447.074-.074.037h-.025l-.05.025-.1.037-.4.236-.136.112v.037Z" transform="translate(42.958 25.638)" fill="#684633"/>
            </g>
          </g>
          <g id="Group_64175" data-name="Group 64175" transform="translate(1.754 0.911)">
            <g id="Group_64174" data-name="Group 64174">
              <path id="Path_51863" data-name="Path 51863" d="M-47.437-40.3l-.484.087-.236.074-.037.025-.074.025-.037.025-.074.025-.037.025-.037.012-.211.136-.025.012-.037.037-.025.012-.012.012-.223.174-.261.31-.037.062-.05.062-.149.273q-.037.037.012.037h.025l.285-.261.062-.037.05-.05.062-.037.062-.05.36-.211h.012l.037-.025h.012l.012-.012.236-.087.025-.012.074-.025.025-.012h.037l.074-.025h.025l.037-.012h.037l.037-.012h.025l.037-.012.074-.012h.062l.149-.025h.136q.135,0,.372.025l.583.112.136.037h.025l.012.012h.012l.36.136.36.2a.615.615,0,0,1,.161.112l.05.025.037.025.037.037.05.025.037.037.037.025.236.2.447.471.025.05.037.037.62.906v.012l.012.012.012.025.087.124.831,1.464q0,.037.025.012.037,0,.012-.025l-.782-1.712-.012-.012v-.012l-.533-.918-.062-.087-.025-.05-.608-.707-.124-.112-.025-.012-.012-.012-.05-.037-.037-.037-.05-.037-.037-.037-.174-.124a2.684,2.684,0,0,0-.385-.236l-.4-.2-.012-.012h-.012l-.074-.037-.323-.1a3.1,3.1,0,0,0-.447-.087,2.952,2.952,0,0,0-.447-.025Z" transform="translate(49.499 40.3)" fill="#9f7b67"/>
            </g>
          </g>
        </g>
        <g id="Group_64183" data-name="Group 64183" transform="translate(21.908 24.991)">
          <g id="Group_64178" data-name="Group 64178" transform="translate(0.043 0)">
            <g id="Group_64177" data-name="Group 64177">
              <path id="Path_51864" data-name="Path 51864" d="M-2.3,8Q1.74,9.376,2.228,5.768l.05-.744L.826,3.473A17.748,17.748,0,0,1,.392-3.152q-1.158-1.239-1.749.657L-3.541,5.792Q-4.473,7.655-2.3,8Z" transform="translate(3.821 3.642)" fill="#80553c"/>
            </g>
          </g>
          <g id="Group_64180" data-name="Group 64180" transform="translate(3.629 0.514)">
            <g id="Group_64179" data-name="Group 64179" transform="translate(0 0)">
              <path id="Path_51865" data-name="Path 51865" d="M20.974,4.256a15.35,15.35,0,0,0,.211,1.8q.165.855.186.893A7.942,7.942,0,0,1,22.487,8.04a2.469,2.469,0,0,1,.484,1.1,2.52,2.52,0,0,1-.608,1.712,3.423,3.423,0,0,0,1.315-1.972,1.287,1.287,0,0,0-.707-1.327q-.795-.46-1.228-.744l.136-.261-.074-.112-.3.012.323-.025-.5-2.58.037-1.873.223-2.059A10.549,10.549,0,0,0,21.123,1.9,13.751,13.751,0,0,0,20.974,4.256Z" transform="translate(-20.968 0.086)" fill="#9f7b67"/>
            </g>
          </g>
          <g id="Group_64182" data-name="Group 64182" transform="translate(0 0.514)">
            <g id="Group_64181" data-name="Group 64181" transform="translate(0 0)">
              <path id="Path_51866" data-name="Path 51866" d="M-.072,1.713-.084,3.958.263,6.712a.208.208,0,0,0,.087.136v.012l.112.074.558.509.546.695.161.273.012.037a1.541,1.541,0,0,1,.149.31,1.4,1.4,0,0,1,.087.31l.012.223-.012.05v.025l-.012.012-.012.037v.037l-.012.037-.025.037-.037.112a1.8,1.8,0,0,1-.4.509l-.273.211-.025.025-.05.025-.037.025-.012.012-.025.012-.174.112-.05.012-.4.174-.372.112H.028l-.087.025-.347.05h-.1l-.087.012h-.546a6.988,6.988,0,0,1-.72-.037,4.144,4.144,0,0,1-.72-.1l-.087-.025-.087-.012-.136-.037-.037-.025-.161-.05-.211-.1-.037-.012-.074-.05-.074-.037-.186-.161a.331.331,0,0,1-.112-.124,1.293,1.293,0,0,1-.161-.3l-.037-.347.062-.36.124-.347q.025-.025-.012-.025-.025-.025-.025.012A1.857,1.857,0,0,0-4,9.156l-.1.323-.012.248.012.2.149.372.124.161.3.261q.025.025.037.025l.037.025.037.037.447.211.323.1a5.559,5.559,0,0,0,.744.161q.261.037.757.074l.67.012.1-.012h.1L.1,11.3l.05-.012H.2l.385-.1.1-.037L.7,11.141H.722l.372-.161.037-.025.186-.1.012-.012.025-.012.074-.05h.012v-.012h.012l.025-.025a2.631,2.631,0,0,0,.323-.236l.285-.3a2.206,2.206,0,0,0,.223-.36l.05-.1.012-.05.025-.05.012-.05.025-.05.012-.062V9.466l.012-.025.012-.05V9.33l.012-.112-.012-.236a1.71,1.71,0,0,0-.124-.409l-.2-.409-.025-.037L2.087,8.04l-.335-.484-.521-.583L.747,6.564.71,6.539.7,6.526.425,4.976.164,2.036.177-.073.164-.086.139-.073Z" transform="translate(4.116 0.086)" fill="#684633"/>
            </g>
          </g>
        </g>
        <g id="Group_64202" data-name="Group 64202" transform="translate(14.259 25.63)">
          <g id="Group_64188" data-name="Group 64188" transform="translate(12.81 1.786)">
            <g id="Group_64185" data-name="Group 64185" transform="translate(0)">
              <g id="Group_64184" data-name="Group 64184">
                <path id="Path_51867" data-name="Path 51867" d="M3.023,1.973a2.228,2.228,0,0,0-.447-1.4A1.3,1.3,0,0,0,1.511,0,1.324,1.324,0,0,0,.439.573,2.253,2.253,0,0,0,0,1.973,2.221,2.221,0,0,0,.439,3.365a1.32,1.32,0,0,0,1.072.581,1.3,1.3,0,0,0,1.065-.581A2.2,2.2,0,0,0,3.023,1.973Z" transform="translate(0)" fill="#231915"/>
              </g>
            </g>
            <g id="Group_64187" data-name="Group 64187" transform="translate(1.667 0.938)">
              <g id="Group_64186" data-name="Group 64186">
                <path id="Path_51868" data-name="Path 51868" d="M12.254,6.943a.561.561,0,0,0-.119-.335.3.3,0,0,0-.261-.127.319.319,0,0,0-.253.141.575.575,0,0,0-.1.35.507.507,0,0,0,.119.328.312.312,0,0,0,.268.134.3.3,0,0,0,.246-.149A.527.527,0,0,0,12.254,6.943Z" transform="translate(-11.524 -6.481)" fill="#fff"/>
              </g>
            </g>
          </g>
          <g id="Group_64190" data-name="Group 64190" transform="translate(12.465 0.736)">
            <g id="Group_64189" data-name="Group 64189">
              <path id="Path_51869" data-name="Path 51869" d="M91.345-4.576A1.147,1.147,0,0,0,91-5.342a7.648,7.648,0,0,0-3.257-1.921,11.9,11.9,0,0,0-1.726,2.717,3.557,3.557,0,0,1,2.162-1.036A3.959,3.959,0,0,1,91.345-4.576Z" transform="translate(-86.016 7.263)" fill="#80553c"/>
            </g>
          </g>
          <g id="Group_64192" data-name="Group 64192" transform="translate(12.294 1.936)">
            <g id="Group_64191" data-name="Group 64191" transform="translate(0 0)">
              <path id="Path_51870" data-name="Path 51870" d="M89.633,2.239l.06.06.075.045.255.2.375.345h.045V2.839l-.06-.15-.03-.045-.06-.12-.3-.42-.33-.36-.405-.3L89.183,1.4l-.045-.015-.12-.075-.09-.03-.075-.045-.36-.12h-.045l-.105-.03H88.3l-.075-.015h-.06l-.045-.015h-.18l-.09-.015h-.18l-.09.015H87.4l-.54.105-.51.18-.615.375-.135.12-.03.015-.18.225-.03.03-.015.03-.045.06L85.19,2.3l-.045.06-.015.03-.03.03-.255.36q-.015.015.015.045h.03l.375-.255.06-.03.225-.18.03-.015.03-.03.225-.18.706-.3.075-.015.075-.03.691-.135h.15l.075-.015H88l.075.015h.075l.09.015h.06l.045.015h.03l.225.045.06.03.075.015.36.15.405.225.105.075Z" transform="translate(-84.84 -1.038)" fill="#231915"/>
            </g>
          </g>
          <g id="Group_64197" data-name="Group 64197" transform="translate(1.176 1.786)">
            <g id="Group_64194" data-name="Group 64194" transform="translate(0)">
              <g id="Group_64193" data-name="Group 64193">
                <path id="Path_51871" data-name="Path 51871" d="M3.023,1.973a2.228,2.228,0,0,0-.447-1.4A1.3,1.3,0,0,0,1.511,0,1.324,1.324,0,0,0,.439.573,2.253,2.253,0,0,0,0,1.973,2.221,2.221,0,0,0,.439,3.365a1.32,1.32,0,0,0,1.072.581,1.3,1.3,0,0,0,1.065-.581A2.2,2.2,0,0,0,3.023,1.973Z" transform="translate(0)" fill="#231915"/>
              </g>
            </g>
            <g id="Group_64196" data-name="Group 64196" transform="translate(1.667 0.938)">
              <g id="Group_64195" data-name="Group 64195">
                <path id="Path_51872" data-name="Path 51872" d="M12.254,6.943a.561.561,0,0,0-.119-.335.3.3,0,0,0-.261-.127.319.319,0,0,0-.253.141.575.575,0,0,0-.1.35.507.507,0,0,0,.119.328.312.312,0,0,0,.268.134.3.3,0,0,0,.246-.149A.527.527,0,0,0,12.254,6.943Z" transform="translate(-11.524 -6.481)" fill="#fff"/>
              </g>
            </g>
          </g>
          <g id="Group_64199" data-name="Group 64199" transform="translate(0.17 0)">
            <g id="Group_64198" data-name="Group 64198">
              <path id="Path_51873" data-name="Path 51873" d="M4.385-12.347a7.949,7.949,0,0,0-.856.5A6.78,6.78,0,0,0,1.038-9.1q.42-.345.856-.676a3.312,3.312,0,0,1,3.017-.63A15.553,15.553,0,0,1,8.2-9.21a2.014,2.014,0,0,0-.736-1.021A32.832,32.832,0,0,0,4.385-12.347Z" transform="translate(-1.038 12.347)" fill="#80553c"/>
            </g>
          </g>
          <g id="Group_64201" data-name="Group 64201" transform="translate(0 1.501)">
            <g id="Group_64200" data-name="Group 64200" transform="translate(0 0)">
              <path id="Path_51874" data-name="Path 51874" d="M2.419-1.911l-.57.165-.06.03-.06.015a3.512,3.512,0,0,0-.42.2l-.015.015-.03.015-.045.03-.06.03-.24.165-.345.3L.557-.936v.015l-.09.105-.5.676-.03.075-.075.12Q-.148.07-.118.1H-.1L.017.01l.06-.06.63-.54L.812-.7.8-.665l.36-.225.18-.09.045-.03.06-.015.045-.03H1.5l.12-.06h.03l.015-.015.105-.03.015-.015h.03l.15-.06h.045l.255-.075h.045l.5-.075.36-.015.06.015h.315l.2.03H3.8l.045.015H3.95l.105.015.105.03.2.03.21.06H4.58l.03.015.045.015.105.015.39.135.2.09.105.03.045.03.045.015.39.2.09.06.09.045.916.6q.015.015.045-.015V0l-.135-.18-.465-.5-.525-.435-.18-.12-.06-.03-.135-.09-.63-.315-.435-.12-.12-.045-.691-.12H3.59l-.06-.015H3.124a2.881,2.881,0,0,0-.48.03Z" transform="translate(0.138 1.971)" fill="#231915"/>
            </g>
          </g>
        </g>
        <g id="Group_64216" data-name="Group 64216" transform="translate(18.257 38.608)">
          <g id="Group_64204" data-name="Group 64204" transform="translate(0.397 0.451)">
            <g id="Group_64203" data-name="Group 64203">
              <path id="Path_51875" data-name="Path 51875" d="M-23.946-13.844q1.319,3.008,2.49,3.627a3.424,3.424,0,0,0,4.006-.144q-.126-1.191,1.822-2.544A10.3,10.3,0,0,1-23.946-13.844Z" transform="translate(23.946 13.844)" fill="#712024"/>
            </g>
          </g>
          <g id="Group_64206" data-name="Group 64206" transform="matrix(0.97, 0.241, -0.241, 0.97, 2.005, 2.312)">
            <g id="Group_64205" data-name="Group 64205" transform="translate(0 0)">
              <path id="Path_51876" data-name="Path 51876" d="M4.47.862Q4.7.7,4.054.373A4.469,4.469,0,0,0,2.349.006,4.293,4.293,0,0,0,.59.239Q-.087.528.013.762t.738.556a2.971,2.971,0,0,0,1.4.289,3.872,3.872,0,0,0,1.423-.3A3.885,3.885,0,0,0,4.47.862Z" fill="#fdb4b8"/>
            </g>
          </g>
          <g id="Group_64209" data-name="Group 64209" transform="translate(0.632 0.271)">
            <g id="Group_64207" data-name="Group 64207">
              <path id="Path_51877" data-name="Path 51877" d="M-13.609-14.207q-.929-.366-1.57-.632a5.617,5.617,0,0,0-1.913-.253,11.078,11.078,0,0,0-2.562.325,4.91,4.91,0,0,1-2.671-.108A10.538,10.538,0,0,0-13.609-14.207Z" transform="translate(22.325 15.091)" fill="#684633"/>
            </g>
            <g id="Group_64208" data-name="Group 64208" transform="translate(1.254 4.24)">
              <path id="Path_51878" data-name="Path 51878" d="M-11.482,15.607l-.108-.054a3.161,3.161,0,0,1-.469-.217l-.108-.072-.108-.054-.108-.072-.108-.054-.144-.108-.036-.036-.144-.09-.036-.036-.307-.235-.036-.018-.235-.217-.108-.072-.054-.054h-.054q-.018.036,0,.054l.09.126.541.6.054.036.162.162.054.036.09.09.2.144.126.072.054.054.18.108.126.054.054.036.2.09a1.874,1.874,0,0,0,.577.162,1.533,1.533,0,0,0,.613.018,1.7,1.7,0,0,0,.577-.144l.054-.036.072-.018.054-.036.072-.036.379-.253.036-.054.09-.072.235-.235.162-.217.054-.054.108-.18.036-.036.036-.072.036-.054q.018-.018-.018-.054h-.036l-.4.4-.072.054-.072.072-.072.054-.072.072-.054.036-.036.018-.09.072-.036.036-.054.018-.2.126-.108.054-.108.036-.072.036-.108.036-.036.018h-.018l-.126.036-.253.036a2.8,2.8,0,0,1-.523-.018l-.126-.036h-.072Z" transform="translate(13.657 -14.218)" fill="#684633"/>
            </g>
          </g>
          <g id="Group_64211" data-name="Group 64211" transform="translate(0.28 0.338)">
            <g id="Group_64210" data-name="Group 64210">
              <path id="Path_51879" data-name="Path 51879" d="M-20.688-13.341l-.054-.018-2-.469-1.949-.776q-.054-.054-.054.018a.023.023,0,0,0,0,.036l.992.686.613.307,1.967.668h.054l.018.018h.036l.217.036.126.036.469.054h.108l.126.018h.577l.884-.108h.054l.054-.018.722-.144.09-.036.866-.271.072-.036.072-.018.794-.343.072-.054.126-.054.09-.054q.054,0,.018-.036,0-.054-.036-.018l-3.158.613h-.108l-.108.018h-.2l-.108.018h-.108a7.589,7.589,0,0,1-.866-.018l-.415-.054Z" transform="translate(24.757 14.628)" fill="#231915"/>
            </g>
          </g>
          <g id="Group_64213" data-name="Group 64213" transform="translate(0.346 0.419)">
            <g id="Group_64212" data-name="Group 64212">
              <path id="Path_51880" data-name="Path 51880" d="M-24.281-14.018l.018.09.505,1.191.74,1.191q.325.4.541.613l.65.541a4.4,4.4,0,0,0,.758.379l.289.108.505.09h.4a2.489,2.489,0,0,0,.361-.018l.668-.144.758-.307.487-.307q.072,0,.018-.054h-.036l-.866.325-.722.162-.162.018-.072.018h-.613l-.09-.018h-.09l-.361-.09a1.522,1.522,0,0,1-.343-.108,3.142,3.142,0,0,1-.686-.361l-.613-.487-.686-.794-.054-.054-.162-.217L-23.2-12.3l-1.029-1.732q0-.054-.036-.018Q-24.317-14.054-24.281-14.018Z" transform="translate(24.295 14.068)" fill="#231915"/>
            </g>
          </g>
          <g id="Group_64215" data-name="Group 64215" transform="translate(0 0)">
            <g id="Group_64214" data-name="Group 64214">
              <path id="Path_51881" data-name="Path 51881" d="M-26.618-16.619v.018h-.018v.036l-.018.018v.018l-.018.036-.018.108v.09l.018.09v.054l.018.036.018.072.036.09.018.072.036.072.054.054v.018l.054.054q0,.054.054,0V-15.7l.018-.036v-.487l.018-.054v-.054l.018-.054V-16.4h.018v-.036l.18-.18h.018l.036-.036.144-.09.018-.018h.036l.108-.072.018-.018.036-.018.018-.036-.072-.036h-.018l-.072-.018H-26l-.126.018-.072.036h-.036l-.036.018h.018q-.126.054-.162.072l-.09.072-.054.072Z" transform="translate(26.69 16.962)" fill="#684633"/>
            </g>
          </g>
        </g>
        <g id="Group_64219" data-name="Group 64219" transform="matrix(0.911, -0.412, 0.412, 0.911, 11.199, 24.374)">
          <g id="Group_64218" data-name="Group 64218" transform="translate(0 0)">
            <g id="Group_64217" data-name="Group 64217">
              <path id="Path_51882" data-name="Path 51882" d="M4.166.36a11.816,11.816,0,0,0-3.08.657A6.687,6.687,0,0,1,1.89,0,4.793,4.793,0,0,0,.982.707a5.043,5.043,0,0,0-.342.372L0,2.047l1.012-.682A7.886,7.886,0,0,1,4.464.657a11.055,11.055,0,0,1,3.14.409q1.056.3,1.265.161A.482.482,0,0,0,9.077.62L9.062.657a.6.6,0,0,1-.208.3.709.709,0,0,1-.387.037A8.476,8.476,0,0,1,7.276.67,8.476,8.476,0,0,0,4.166.36Z" transform="translate(0 0.67)"/>
              <path id="Path_51883" data-name="Path 51883" d="M0,1.687A11.816,11.816,0,0,1,3.08,1.03a8.476,8.476,0,0,1,3.11.31,8.476,8.476,0,0,0,1.19.323.709.709,0,0,0,.387-.037.6.6,0,0,0,.208-.3L7.99,1.29l-.015-.037A1.066,1.066,0,0,0,7.4.682,7.97,7.97,0,0,0,5.267.112a8.13,8.13,0,0,0-3.616.2A4.793,4.793,0,0,0,.8.67,6.687,6.687,0,0,0,0,1.687Z" transform="translate(1.086 0)" fill="#140e0e"/>
            </g>
          </g>
        </g>
        <g id="Group_64222" data-name="Group 64222" transform="matrix(-0.904, -0.428, 0.428, -0.904, 33.605, 26.095)">
          <g id="Group_64221" data-name="Group 64221" transform="translate(0 0)">
            <g id="Group_64220" data-name="Group 64220">
              <path id="Path_51884" data-name="Path 51884" d="M3.114,1.517A7.566,7.566,0,0,1,.812.926a5.984,5.984,0,0,0,.6.915,3.763,3.763,0,0,1-.678-.636Q.6,1.048.478.87L0,0,.756.614a5.062,5.062,0,0,0,2.58.636A6.96,6.96,0,0,0,5.683.881q.79-.268.945-.145a.48.48,0,0,1,.156.547L6.773,1.25A.55.55,0,0,0,6.617.982.448.448,0,0,0,6.328.948a5.5,5.5,0,0,0-.89.29A5.32,5.32,0,0,1,3.114,1.517Z"/>
              <path id="Path_51885" data-name="Path 51885" d="M0,0A7.566,7.566,0,0,0,2.3.591,5.32,5.32,0,0,0,4.627.312a5.5,5.5,0,0,1,.89-.29.448.448,0,0,1,.289.033.55.55,0,0,1,.156.268l.011.033L5.961.391A.894.894,0,0,1,5.527.9a5.192,5.192,0,0,1-1.59.513,5.089,5.089,0,0,1-2.7-.179A3.289,3.289,0,0,1,.6.915,5.984,5.984,0,0,1,0,0Z" transform="translate(0.812 0.926)" fill="#140e0e"/>
            </g>
          </g>
        </g>
        <g id="Group_64224" data-name="Group 64224" transform="translate(13.609 35.07)">
          <g id="Group_64223" data-name="Group 64223" transform="translate(0 0)">
            <path id="Path_51886" data-name="Path 51886" d="M-8.8-9.173V-8.8h.372m-.372,0v.372M-7.312-8.8-8.8-7.312-10.289-8.8-8.8-10.289Zm-1.861,0H-8.8" transform="translate(10.289 10.289)" fill="none" stroke="rgba(0,0,0,0)" stroke-linecap="round" stroke-linejoin="round" stroke-width="0.086"/>
          </g>
        </g>
      </g>
    </g>
  </g>
</svg>
