<svg xmlns="http://www.w3.org/2000/svg" xmlns:xlink="http://www.w3.org/1999/xlink" width="375" height="270" viewBox="0 0 375 270">
  <defs>
    <clipPath id="clip-path">
      <rect id="Rectangle_3845" data-name="Rectangle 3845" width="375" height="270" transform="translate(5255 -7582)" fill="#fff" stroke="#707070" stroke-width="1" opacity="0.7"/>
    </clipPath>
  </defs>
  <g id="Mask_Group_16311" data-name="Mask Group 16311" transform="translate(-5255 7582)" clip-path="url(#clip-path)">
    <g id="baby_BOY_crawl_ds" data-name="baby BOY crawl ds" transform="translate(4828.882 -7506.928)">
      <g id="Group_18839" transform="translate(515.119 29.831)">
        <g id="Group_67496" data-name="Group 67496" transform="translate(50.508 91.222)">
          <g id="Group_67495" data-name="Group 67495" transform="translate(0 0)">
            <g id="Group_67494" data-name="Group 67494">
              <path id="Path_53625" data-name="Path 53625" d="M224.308,539.845l-6.655-11.091h-.048q.482.964,3.568,7.089a33.62,33.62,0,0,1,1.543,3.327q.193.482.723,2.218a4.66,4.66,0,0,0,.482,1.4q3.665-.048,13.984-7.04,5.16-3.472,9.6-6.944l-4.292-3.183q1.157,4.244-8.776,9.644A64.857,64.857,0,0,1,224.308,539.845Z" transform="translate(-217.605 -525.62)" fill="#104e93"/>
            </g>
          </g>
        </g>
        <g id="Group_67499" data-name="Group 67499" transform="translate(23.31 86.882)">
          <g id="Group_67498" data-name="Group 67498" transform="translate(0 0)">
            <g id="Group_67497" data-name="Group 67497">
              <path id="Path_53626" data-name="Path 53626" d="M115,506.914l-8.873,19q-4.629,14.515-4.822,15.335-.145.482-.53,5.015-.193,2.266-.386,4.436l2.508,1.929a30.225,30.225,0,0,1,.964-6.269,8.879,8.879,0,0,1,1.109-1.977,7.929,7.929,0,0,0,1.157-2.122q.868-3.81,1.4-5.642a18.118,18.118,0,0,1,2.074-5.16Q111.862,518.584,115,506.914Z" transform="translate(-100.385 -506.914)" fill="#d49c88"/>
            </g>
          </g>
        </g>
        <g id="Group_67502" data-name="Group 67502" transform="translate(6.808 63.128)">
          <g id="Group_67501" data-name="Group 67501">
            <g id="Group_67500" data-name="Group 67500">
              <path id="Path_53627" data-name="Path 53627" d="M581.651,549.8q-.487-.29-2.657-1.195a15.175,15.175,0,0,1-2.645-1.265q-3.817-2.738-10.464-1.636a59.816,59.816,0,0,1-11.195,1.926,1.571,1.571,0,0,0-.812.394q-.684.429-.777.476a11.292,11.292,0,0,0-3.561.87,7.2,7.2,0,0,0-2.854,2.169q1.5,2.459,3.48,5.162a4.8,4.8,0,0,1,.522,3.469q-.186,1.3-.522,3.527a1.084,1.084,0,0,0,0,.812,1.557,1.557,0,0,1,0,.777,2.235,2.235,0,0,1-.441.383.743.743,0,0,0-.244.534l-1.729,6.891q-1.879,8.156-2.9,14.664a57.413,57.413,0,0,0,.58,17.216l1.3,5.394a28.063,28.063,0,0,1,.731,4.78l.29,1.206-.1.336q-.278,3.515.244,4.629a10.675,10.675,0,0,0,1.357,1.972,14.572,14.572,0,0,1,.429,2.947,1.084,1.084,0,0,0-1.346.673,16.24,16.24,0,0,0-1.311,4.153,19.523,19.523,0,0,1,.534,4l.383,1.253q.626,1.148,2.03.383,4.049,1.392,4.432.29a2.326,2.326,0,0,0,1.74.534,2.273,2.273,0,0,0,1.543-.87l.151-.2,1.439.719a2.46,2.46,0,0,0,2.8-.917l2.506.974q2.807.336,4.246-2.7a19.24,19.24,0,0,0,.58-2.413,6.268,6.268,0,0,0-.139-3.179q-1.879-4.339-2.9-7.042-1.926-5.023-1.392-7.378.336-1.589,5.209-20.789a25.766,25.766,0,0,0,4.675-11.334l.336-.673q.58-2.459,1.056-5.731.2-.626,1.207-3.527a9.717,9.717,0,0,1,1.473-2.8,3.058,3.058,0,0,1,.267-1.636.76.76,0,0,0,.29-.824l1.392-3.62a4.761,4.761,0,0,0,.824-2.018,14.134,14.134,0,0,0-.046-2.506l-.244-1.265q1.253-1.833,1.253-1.879-.139-.673-.429-3.086A20.432,20.432,0,0,0,581.651,549.8Z" transform="translate(-544.46 -545.387)" fill="#83523b"/>
            </g>
          </g>
        </g>
        <g id="Group_67505" data-name="Group 67505" transform="translate(21.889 116.686)">
          <g id="Group_67504" data-name="Group 67504">
            <g id="Group_67503" data-name="Group 67503">
              <path id="Path_53628" data-name="Path 53628" d="M621.637,776.554a6.537,6.537,0,0,0-1.647.29q-.963,0-5.928,4.675-5.162,4.872-4.536,6.172a32.082,32.082,0,0,0,4.153,2.274,1.423,1.423,0,0,1,.974.267q.443.313,5.174.441a28.475,28.475,0,0,1,10.394,2.564,30.944,30.944,0,0,1,3.759.487q1.16-.093,1.682-.093a4.8,4.8,0,0,0,1.578-.348,6.489,6.489,0,0,0,1.868-.882,2.3,2.3,0,0,0,.754-1.624q.626.1,1.3,2.123,1.4,1.647,5.882-.093,2.216-.963-1.3-3.956a38.912,38.912,0,0,1-4.246-3.225,11.538,11.538,0,0,0-3.179-2.506,37.972,37.972,0,0,0-4.1-2.459,42.946,42.946,0,0,0-4.246-1.891q-3.863-1.485-4.339-1.682-.731-.429-1.16-.626a1.326,1.326,0,0,0-1.206-.151A7.946,7.946,0,0,1,621.637,776.554Z" transform="translate(-609.458 -776.223)" fill="#83523b"/>
            </g>
          </g>
        </g>
        <g id="Group_67508" data-name="Group 67508" transform="translate(9.079 136.02)">
          <g id="Group_67507" data-name="Group 67507" transform="translate(0)">
            <g id="Group_67506" data-name="Group 67506">
              <path id="Path_53629" data-name="Path 53629" d="M42,726.705a4.56,4.56,0,0,0-.434-2.99,18.78,18.78,0,0,1-1.447-5.015,25.407,25.407,0,0,1-.916,6.172,21.321,21.321,0,0,0,.386,7.33q.482-2.652,1.061-4.822A1.067,1.067,0,0,1,42,726.705Z" transform="translate(-39.049 -718.7)" fill="#68412f"/>
            </g>
          </g>
        </g>
        <g id="Group_67511" data-name="Group 67511" transform="translate(6.156 68.607)">
          <g id="Group_67510" data-name="Group 67510">
            <g id="Group_67509" data-name="Group 67509">
              <path id="Path_53630" data-name="Path 53630" d="M544.817,569q.475,1.914.9,3.654a41.006,41.006,0,0,1,.789,4.548,25.786,25.786,0,0,1-.2,9.4,52.95,52.95,0,0,1-2.123,5.928q-4.1,11.288-1.589,27.007a76.352,76.352,0,0,1,.336-13.016,59.908,59.908,0,0,1,1.787-9.211,86.254,86.254,0,0,1,3.179-8.445l.824-1.589q3.805-5.1,4.339-7.425-4.1,5.545-5.928,6.845a12.332,12.332,0,0,1,.429-1.636q.2-.58.441-1.636a33.146,33.146,0,0,0,.812-8.109Q548.344,572.515,544.817,569Z" transform="translate(-541.65 -569)" fill="#68412f"/>
            </g>
          </g>
        </g>
        <g id="Group_67514" data-name="Group 67514" transform="translate(4.375 36.569)">
          <g id="Group_67513" data-name="Group 67513">
            <g id="Group_67512" data-name="Group 67512">
              <path id="Path_53631" data-name="Path 53631" d="M569.016,454.231q-4.141-2.749-5.255-4.582-5.928-9.942-11.578-14.861a14.049,14.049,0,0,0-6.647-3.759,11.662,11.662,0,0,0-4.733.336,34.883,34.883,0,0,0-4.524,1.74,3.656,3.656,0,0,0-1.879,1.346,3.531,3.531,0,0,0-.394,2.123,84.59,84.59,0,0,0,5.162,27.576q-.116-.338,2.6-1.914a12.513,12.513,0,0,1,3.283-1.647l-3.909,5.023.348.383,6.8-2.947q1.438-.58,4.142-1.833a19.124,19.124,0,0,1,4.339-1.439,22.31,22.31,0,0,1,7.483-.1,25.736,25.736,0,0,1,5.928,1.357,5.033,5.033,0,0,1,3.515,4.385q.2,3.179-1.879,11.288-2.169,8.573-3.62,3.422a10.932,10.932,0,0,0-1.775-4.733l.383,7.193q.139,7.958-1.16,11.9-.093.394-.29,1.114-.719,2.03-4.385,10.6a70.106,70.106,0,0,0-3.759,10.858q-.058.186-.534,3.712a13.861,13.861,0,0,1-1.009,3.712,7.276,7.276,0,0,0-.824,4.768l.2,1.206q.568-4.965,1.833-.87.673,2.32,2.111,7.575.1.2.974,1.694a4.543,4.543,0,0,1,.719,1.775,15.09,15.09,0,0,1,.2,5.835,9.112,9.112,0,0,0,.522-6.172,10.823,10.823,0,0,0-1.206-2.645q-1.1-1.879-1.392-2.506a16.174,16.174,0,0,1-.963-4.49,38.692,38.692,0,0,0-.626-4.582q5.3.244,5.684.29a50.291,50.291,0,0,1,9.548,1.833q4.536,1.207,7.378,0a3.919,3.919,0,0,1,2.367-.58,4.785,4.785,0,0,1,1.16.673,5.807,5.807,0,0,0,3.712.534,3.663,3.663,0,0,0,2.8-1.879,12.6,12.6,0,0,1-5.742.963,2.127,2.127,0,0,1-.824-.336.769.769,0,0,1-.209-.824l.3-1.009-.928-.3-1.566-.232a11.911,11.911,0,0,1-1.114,1.647,3.857,3.857,0,0,1-3.132.916,21.516,21.516,0,0,1-7.575-1.694,31.245,31.245,0,0,0-3.562-1.206,8.147,8.147,0,0,0-3.77-.244q-.766.244-1.149.336a2.251,2.251,0,0,1-1.206.058q-1.357-.29-1.45-2.274a17.386,17.386,0,0,1,.824-7.088,6.56,6.56,0,0,1,4.049-3.515,11.418,11.418,0,0,1,2.552-.87,2.2,2.2,0,0,1,1.16.29q.824.336,1.114.429-.244-.093.093-.476a3.184,3.184,0,0,1,.626-.534,3.024,3.024,0,0,1,1.5-.046,8.375,8.375,0,0,0,1.589.093,9.813,9.813,0,0,0,3.283-1.346,53.314,53.314,0,0,0,8.724-7.285q1.833-1.833,2.413-2.506a9.062,9.062,0,0,0,1.729-2.947,53.537,53.537,0,0,0,1.114-6.462q.777-5.731.383-5.777a51.024,51.024,0,0,1-5.731-1.543,7.674,7.674,0,0,1-2.61-1.265,9.412,9.412,0,0,0-2.6-1.346,14.659,14.659,0,0,1-2.123-.824q-1.589-.719-1.647-1.195a5.808,5.808,0,0,0-.278-1.021,2.4,2.4,0,0,1-.151-1.056q.046-.673,1.5-5.94,1.114-4.142.476-5.777-1.926-5.313-1.926-5.5l-.093-.244Q572.926,456.829,569.016,454.231Z" transform="translate(-533.976 -430.917)" fill="#68412f"/>
            </g>
          </g>
        </g>
        <g id="Group_67517" data-name="Group 67517" transform="translate(0.797 2.447)">
          <g id="Group_67516" data-name="Group 67516">
            <g id="Group_67515" data-name="Group 67515">
              <path id="Path_53632" data-name="Path 53632" d="M569.851,284.326l-1.636.058.29-.534q-.151.29-4.443.429-4.814.151-5.058.2a62.884,62.884,0,0,0-10.661,2.506,62.05,62.05,0,0,0-19.234,10.267,29.5,29.5,0,0,0-9.118,11.531v.046l-.812,2.077v.046q-1.694,6.555,1.195,21.8.394,2.169,4.536,19.722l-.453,1.009a2.917,2.917,0,0,1,1.415.151,1.685,1.685,0,0,0,1.311.046l.186-.151a127.479,127.479,0,0,1,13.411-6.8q9.4-3.805,13.793-1.636,1.926.963,4.919,2.169a5.592,5.592,0,0,1,2.889,2.749q1.543,3.759-2.6,18.9a8.55,8.55,0,0,0,1.589.777,18.376,18.376,0,0,1,4.234,2.506q6.613,5.058,8.155,15.139,3.329,2.9,10.708-1.636a93.574,93.574,0,0,0,12.193-9.64,35.816,35.816,0,0,1-13.306-7,26.44,26.44,0,0,1-8.538-11.914,31.074,31.074,0,0,1-4.142-14.42v-.139a31.684,31.684,0,0,1-2.123-7.042l-.093.29.046-.58a28.962,28.962,0,0,1-.383-3.863,18.735,18.735,0,0,1,.046-3.132,93.335,93.335,0,0,1-1.16-11.23l-.046-.244-.151-1.694a73.082,73.082,0,0,1-.766-7.715,41.938,41.938,0,0,1,.476-8.144A46.1,46.1,0,0,1,569.851,284.326Z" transform="translate(-518.552 -283.85)" fill="#2b66ad"/>
            </g>
          </g>
        </g>
        <g id="Group_67520" data-name="Group 67520" transform="translate(36.812 2.638)">
          <g id="Group_67519" data-name="Group 67519" transform="translate(0)">
            <g id="Group_67518" data-name="Group 67518">
              <path id="Path_53633" data-name="Path 53633" d="M171.214,154.191l2.99-9.789a1.648,1.648,0,0,0-1.254-.579q-1.543,0-2.7,3.038a75.243,75.243,0,0,0-3.81,21.025,46.314,46.314,0,0,0,.386,7.523,39.149,39.149,0,0,0-5.594-4.678,22.26,22.26,0,0,1,5.353,7.523q.82,2.074,1.881,5.594a56.083,56.083,0,0,0-5.787-7.426l-4.1-4.581,2.7,4.822q4.629,7.185,5.112,8.053a30.549,30.549,0,0,1,3.52,8.825,12.264,12.264,0,0,1-.53,6.028,26,26,0,0,0-1.35,5.98,97.27,97.27,0,0,1-1.881,13.888q-1.736,9.307-2.122,8.632l-.916,1.543a4.061,4.061,0,0,1,1.977.386,19.527,19.527,0,0,0,2.556.82,1.014,1.014,0,0,0,.82-.048q.1-.1-1.206-1.832a19.622,19.622,0,0,1-1.35-1.929q2.074-9.548,3.327-14.563,2.363-9.259,3.761-6.9,2.122,6.462,4.436,12.152a58.327,58.327,0,0,0,5.738,11.429,23.747,23.747,0,0,0,6.414,6.317,15.852,15.852,0,0,0,8.391,2.363q1.784,0,2.074-.964l.241-.723a.878.878,0,0,1,.386-.289,8.589,8.589,0,0,1,1.206-.1q.723-.048.772-.482a56.174,56.174,0,0,0-11.814-4.87,6.957,6.957,0,0,1-1.495-.627,4.83,4.83,0,0,1-1.206-1.447l-5.594-8.825a43.033,43.033,0,0,1-2.411-4.244,46.905,46.905,0,0,1-2.99-8.969q-1.4-6.317-2.218-9.307L171.6,184.571Z" transform="translate(-158.58 -143.823)" fill="#104e93"/>
            </g>
          </g>
        </g>
        <g id="Group_67523" data-name="Group 67523" transform="translate(116.861 97.442)">
          <g id="Group_67522" data-name="Group 67522" transform="translate(0 0)">
            <g id="Group_67521" data-name="Group 67521">
              <path id="Path_53634" data-name="Path 53634" d="M515.789,558.844l-2.363-6.269-9.837-.145v.627q0,4.34.241,7.137a16.216,16.216,0,0,0,8.728.964,6.092,6.092,0,0,1,.675-.916A8,8,0,0,0,515.789,558.844Z" transform="translate(-503.589 -552.431)" fill="#68412f"/>
            </g>
          </g>
        </g>
        <g id="Group_67526" data-name="Group 67526" transform="translate(117.29 102.023)">
          <g id="Group_67525" data-name="Group 67525">
            <g id="Group_67524" data-name="Group 67524">
              <path id="Path_53635" data-name="Path 53635" d="M515.085,578.541q-.145.1-.193-1.543t-.241-1.591q-.193.193-.53-.482-.386-.627-.145-.723,7.185-2.025,2.122-2.025a43.208,43.208,0,0,0-10.561,1.4q-.289.048.241,5.16.241,2.6.579,5.69a41.057,41.057,0,0,0,1.64,6.365,28.553,28.553,0,0,1,1.495,5.835l.579,4.292q1.013,4.388,3.279,5.16l3.134,2.218q3.617,1.977,5.98.964a.632.632,0,0,0,.434-.675q.048-1.013-2.025-2.893l4.629,1.061a5.986,5.986,0,0,0-1.3-1.591,5.386,5.386,0,0,1-1.35-1.64q-.627-1.736-2.6-8.391a69.6,69.6,0,0,0-2.942-8.246,20.474,20.474,0,0,1-1.206-4.1A38.214,38.214,0,0,0,515.085,578.541Z" transform="translate(-505.435 -572.175)" fill="#83523b"/>
            </g>
          </g>
        </g>
        <g id="Group_67529" data-name="Group 67529" transform="translate(46.264)">
          <g id="Group_67528" data-name="Group 67528">
            <g id="Group_67527" data-name="Group 67527">
              <path id="Path_53636" data-name="Path 53636" d="M785.406,293.3q-8.631-1.114-11.091-1.636a60.951,60.951,0,0,1-8.828-2.749q-5.835-2.274-8.677-3.329l-15.139-5.255a142.455,142.455,0,0,1-13.654-5.789,13.907,13.907,0,0,0-3.33-1.114,5.94,5.94,0,0,0-3.666.394,5.681,5.681,0,0,0-2.691,2.459q-2.228,3.271-3.19,9.594a74.12,74.12,0,0,0-.383,15.522,200.169,200.169,0,0,0,2.7,20.835q-.58-3.573,2.552,10.8,5.116,18.515,12.343,29.026,3.77,5.452,11.961,6.323.487.046,6.9.429a28.224,28.224,0,0,1,6.462.916q2.824,2.032,12.251,3.7t15.429,2.285a30.245,30.245,0,0,0,16.346-10.9q.232-.29,4.234-5.835,2.03-2.8,3.329-3.318a2.449,2.449,0,0,1,1.021,0,1.815,1.815,0,0,0,1.009,0q2.552-1.114,6.079.719,3.271,1.74,5.835.244.232-.394,3.712-6.033a26.654,26.654,0,0,0,3.422-12.251,3.779,3.779,0,0,0-1.067-2.019,13.626,13.626,0,0,1-1.392-1.879,15.021,15.021,0,0,0-2.32-2.517q-2.935-3.225-9.35-6.311-6.276-3.086-9.211-6.508-1.5-1.74-.917-5.94a28.222,28.222,0,0,0,.336-6.647q-.093-.487,2.03-.928-2.409-3.411-.719-4.026l-4.524-3.063q-3.492-1.682-6.914-2.935A59.952,59.952,0,0,0,785.406,293.3Z" transform="translate(-714.516 -273.305)" fill="#eb7a23"/>
            </g>
          </g>
        </g>
        <g id="Group_67532" data-name="Group 67532" transform="translate(153.124 63.976)">
          <g id="Group_67531" data-name="Group 67531" transform="translate(0 0)">
            <g id="Group_67530" data-name="Group 67530">
              <path id="Path_53637" data-name="Path 53637" d="M659.882,412.1h.048l.048,2.17a20.7,20.7,0,0,1,.338,2.749v.579a17.957,17.957,0,0,1,.193,2.122v.338a103.983,103.983,0,0,0,7.86-11.863Q666.971,410.073,659.882,412.1Z" transform="translate(-659.882 -408.192)" fill="#be6228"/>
            </g>
          </g>
        </g>
        <g id="Group_67535" data-name="Group 67535" transform="translate(57.885 61.661)">
          <g id="Group_67534" data-name="Group 67534" transform="translate(0)">
            <g id="Group_67533" data-name="Group 67533">
              <path id="Path_53638" data-name="Path 53638" d="M256.782,413.6q3.327,5.256,10.9,11.959,8.2,7.378,22.375,11.284,15.672,4.388,27.583.627l.338-.1a19.158,19.158,0,0,1-2.122-8.2,6.924,6.924,0,0,1,.048-1.832l-1.157-.868q.048,2.508.53,7.185-.145,3.52-2.99,3.713a72.607,72.607,0,0,1-12.441,0q-2.411-.241-9.21-1.495-17.312-3.183-31.007-20.736a83.1,83.1,0,0,1-7.667-11.766l-2.556-5.16Q255.963,412.3,256.782,413.6Z" transform="translate(-249.404 -398.216)" fill="#be6228"/>
            </g>
          </g>
        </g>
        <g id="Group_67538" data-name="Group 67538" transform="translate(69.7 55.875)">
          <g id="Group_67537" data-name="Group 67537" transform="translate(0 0)">
            <g id="Group_67536" data-name="Group 67536">
              <path id="Path_53639" data-name="Path 53639" d="M314.357,394.059q-3.086-4.1-5.015-7.04l-9.018-13.743q3.713,7.716,7.619,14.129a94.87,94.87,0,0,0,7.619,10.9,39.25,39.25,0,0,0,4.629,4.629q.338.241,2.7,1.64a12.114,12.114,0,0,1,2.315,1.736q-3.616-3.91-5.449-5.931Q316.527,396.856,314.357,394.059Z" transform="translate(-300.324 -373.275)" fill="#be6228"/>
            </g>
          </g>
        </g>
        <g id="Group_67541" data-name="Group 67541" transform="translate(23.648 147.973)">
          <g id="Group_67540" data-name="Group 67540" transform="translate(0 0)">
            <g id="Group_67539" data-name="Group 67539">
              <path id="Path_53640" data-name="Path 53640" d="M102.66,775.77l.772-3.81a.511.511,0,0,0,0-.434,1.379,1.379,0,0,0-.53-1.013,1.57,1.57,0,0,0-1.061-.289q1.109.579,1.061,3.376A13.654,13.654,0,0,1,102.66,775.77Z" transform="translate(-101.84 -770.218)" fill="#68412f"/>
            </g>
          </g>
        </g>
        <g id="Group_67544" data-name="Group 67544" transform="translate(19.79 148.461)">
          <g id="Group_67543" data-name="Group 67543">
            <g id="Group_67542" data-name="Group 67542">
              <path id="Path_53641" data-name="Path 53641" d="M85.454,777.868a15.755,15.755,0,0,0,1.109-4v-.193a1.309,1.309,0,0,0-.386-.964,1.418,1.418,0,0,0-.964-.386q1.109.53.772,3.086A11.918,11.918,0,0,1,85.454,777.868Z" transform="translate(-85.213 -772.322)" fill="#68412f"/>
            </g>
          </g>
        </g>
        <g id="Group_67547" data-name="Group 67547" transform="translate(16.125 149.081)">
          <g id="Group_67546" data-name="Group 67546" transform="translate(0)">
            <g id="Group_67545" data-name="Group 67545">
              <path id="Path_53642" data-name="Path 53642" d="M70.382,777.991q-.051.636-.145,1.254l.579-2.749a.511.511,0,0,0,0-.434,1.164,1.164,0,0,0-.482-.82,1.28,1.28,0,0,0-.916-.241Q70.527,775.532,70.382,777.991Z" transform="translate(-69.418 -774.994)" fill="#68412f"/>
            </g>
          </g>
        </g>
        <g id="Group_67550" data-name="Group 67550" transform="translate(12.557 149.667)">
          <g id="Group_67549" data-name="Group 67549" transform="translate(0)">
            <g id="Group_67548" data-name="Group 67548">
              <path id="Path_53643" data-name="Path 53643" d="M54.038,782.148l1.64-3.665a.752.752,0,0,0,0-.53.631.631,0,0,0-.868-.386.609.609,0,0,0-.386.868A5.131,5.131,0,0,1,54.038,782.148Z" transform="translate(-54.038 -777.518)" fill="#68412f"/>
            </g>
          </g>
        </g>
        <g id="Group_67553" data-name="Group 67553" transform="translate(132.525 41.414)">
          <g id="Group_67552" data-name="Group 67552">
            <g id="Group_67551" data-name="Group 67551">
              <path id="Path_53644" data-name="Path 53644" d="M1110.662,461.313q-4.9-2.877-11.253-6.369l-5.383-2.923v-.22H1086.3a12.569,12.569,0,0,0,3.237,6.114,48.1,48.1,0,0,0,5.453,5.023q2.8,2.216,2.656,2.691-1.067,3.376-6.415,0-2.61-1.636-2.7-1.682-.777-.29.337,1.682a34.3,34.3,0,0,0,6.508,8.156q6.079,5.592,8.782,5.545a9.3,9.3,0,0,1,2.6.916,24.524,24.524,0,0,0,2.993-1.45,55.034,55.034,0,0,1,10.464-4.872,41.739,41.739,0,0,1-11.624-5.348,41.121,41.121,0,0,1-9.4-8.678,20.829,20.829,0,0,0,4.629,4,44.524,44.524,0,0,0,17.6,6.021Q1126.323,470.489,1110.662,461.313Z" transform="translate(-1086.3 -451.8)" fill="#83523b"/>
            </g>
          </g>
        </g>
        <g id="Group_67556" data-name="Group 67556" transform="translate(143.721 46.761)">
          <g id="Group_67555" data-name="Group 67555" transform="translate(0 0)">
            <g id="Group_67554" data-name="Group 67554">
              <path id="Path_53645" data-name="Path 53645" d="M640.91,351.161l8.439-2.266.048-.048-1.109-.1A26.225,26.225,0,0,1,631.7,344.6a48.877,48.877,0,0,1-6.414-4.34l-5.931-6.269q3.424,7.282,11.959,12.924A29.213,29.213,0,0,0,640.91,351.161Z" transform="translate(-619.354 -333.994)" fill="#68412f"/>
            </g>
          </g>
        </g>
        <g id="Group_67559" data-name="Group 67559" transform="translate(123.895 90.45)">
          <g id="Group_67558" data-name="Group 67558">
            <g id="Group_67557" data-name="Group 67557">
              <path id="Path_53646" data-name="Path 53646" d="M580.4,581.849q-.579-.723-6.317-2.99-5.353-2.122-5.594-3.231-1.254-5.69-1.543-8-.193-1.881-.482-8.15a112.919,112.919,0,0,0-2.218-15.865q0-.1-1.206-3.424a7.427,7.427,0,0,1-.675-3.52,27.9,27.9,0,0,0-1.109-13.5v-.1q-4.436.144-13.647-.289-10.609-.482-13.647-.482a40.05,40.05,0,0,0,1.929,14.66q.1.289,2.266,7.523a67.168,67.168,0,0,0,2.459,7.378q1.495,3.52,2.6,6.9,2.218,6.751,2.315,6.992a2.748,2.748,0,0,0,.434.868,3.65,3.65,0,0,1,.434.868q5.015,15.913,7.812,18.083,1.4,1.109,1.784-1.013.82,1.254,4.1.723,1.736-.289,4.533-1.013,9.21-1.591,10.85-1.929Z" transform="translate(-533.904 -522.294)" fill="#83523b"/>
            </g>
          </g>
        </g>
        <g id="Group_67562" data-name="Group 67562" transform="translate(121.728 65.465)">
          <g id="Group_67561" data-name="Group 67561" transform="translate(0)">
            <g id="Group_67560" data-name="Group 67560">
              <path id="Path_53647" data-name="Path 53647" d="M553.645,430.817a63.162,63.162,0,0,0-9.5-9.5q-10.8-8.921-17.456-5.98l-1.447,7.33q-1.254,8-.193,11.236a15.709,15.709,0,0,1,1.447,6.414l.145.241q.193,10.416,4.533,24.449,2.508,8,8.1,23.822a83.157,83.157,0,0,0,3.761,10.03,9.316,9.316,0,0,0,2.315,3.231q3.617,2.8,4.919,2.122-3.906-1.784-6.414-7.04a62.231,62.231,0,0,1-3.665-11.429q-8.68-20.253-11.815-33.611a68.514,68.514,0,0,1-1.4-7.378q-.145-2.411-.145-2.6-.482-1.061,1.447-1.061.53,0,5.738.434a62.412,62.412,0,0,0,20.06-1.157Z" transform="translate(-524.563 -414.609)" fill="#68412f"/>
            </g>
          </g>
        </g>
        <g id="Group_67565" data-name="Group 67565" transform="translate(145.312 151.596)">
          <g id="Group_67564" data-name="Group 67564" transform="translate(0 0)">
            <g id="Group_67563" data-name="Group 67563">
              <path id="Path_53648" data-name="Path 53648" d="M628.672,791.136q-.82-.916-.386-5.3a3.549,3.549,0,0,0-2.074,3.134q.145,6.028,12.682,5.594Q630.264,792.92,628.672,791.136Z" transform="translate(-626.213 -785.832)" fill="#68412f"/>
            </g>
          </g>
        </g>
        <g id="Group_67568" data-name="Group 67568" transform="translate(146.56 145.124)">
          <g id="Group_67567" data-name="Group 67567">
            <g id="Group_67566" data-name="Group 67566">
              <path id="Path_53649" data-name="Path 53649" d="M1183.3,906.564a11.655,11.655,0,0,0-1.787-1.694q-.87-.58-2.7-1.636a6.689,6.689,0,0,0-2.169-.87,14.752,14.752,0,0,0-2.506-.336q.963,0-.626-.046l-3.956-1.009q-10.65-3.527-14.026-1.357a7.99,7.99,0,0,0-1.937,2.169,4.024,4.024,0,0,1-1.926,1.694,15.983,15.983,0,0,0-4.049,1.786q-2.32,5.058,1.879,6.752a48.215,48.215,0,0,0,8.677,1.972,70.755,70.755,0,0,0,8.446-.824q5.928,2.75,10.986,4.687,3.724,1.3,4.78.046a44.587,44.587,0,0,0-15.719-9.165q5.116.916,16.056,8.144a5.238,5.238,0,0,0,4.246-.429q1.636-1.056-1.74-3.237l-15.279-7.471,17.111,6.845q1.206-1.149-2.077-3.318l-2.889-1.984a59.974,59.974,0,0,0-5.3-3.039,24.351,24.351,0,0,0-2.552-1.148,10.5,10.5,0,0,1,3.028.719l1.323.986a24.02,24.02,0,0,0,6.16,3.689l.046.046-.383-.626Z" transform="translate(-1146.791 -898.789)" fill="#83523b"/>
            </g>
          </g>
        </g>
        <g id="Group_67571" data-name="Group 67571" transform="translate(125.879 89.338)">
          <g id="Group_67570" data-name="Group 67570" transform="translate(0 0)">
            <g id="Group_67569" data-name="Group 67569">
              <path id="Path_53650" data-name="Path 53650" d="M543.516,517.553q-.965-.289-1.061,1.061Z" transform="translate(-542.455 -517.502)" fill="#68412f"/>
            </g>
          </g>
        </g>
        <g id="Group_67574" data-name="Group 67574" transform="translate(126.94 88.197)">
          <g id="Group_67573" data-name="Group 67573" transform="translate(0 0)">
            <g id="Group_67572" data-name="Group 67572">
              <path id="Path_53651" data-name="Path 53651" d="M547.027,513.776a12.561,12.561,0,0,1,1.254.53q.627,0,.482-1.4-.048-.531-.579-.193A10.663,10.663,0,0,0,547.027,513.776Z" transform="translate(-547.027 -512.584)" fill="#68412f"/>
            </g>
          </g>
        </g>
        <g id="Group_67577" data-name="Group 67577" transform="translate(0 29.546)">
          <g id="Group_67576" data-name="Group 67576">
            <g id="Group_67575" data-name="Group 67575">
              <path id="Path_53652" data-name="Path 53652" d="M515.961,417.042a18.561,18.561,0,0,0,.673,2.993l4.722,21.694q-.841,2.7,3.19,1.647l-.244.046a1.532,1.532,0,0,1-1.3-.2,1.656,1.656,0,0,1-.731-1.056q-4.142-17.552-4.536-19.722-2.889-15.244-1.195-21.8A30.725,30.725,0,0,0,515.961,417.042Z" transform="translate(-515.119 -400.65)" fill="#2b66ad"/>
            </g>
          </g>
        </g>
        <g id="Group_67580" data-name="Group 67580" transform="translate(126.891 132.045)">
          <g id="Group_67579" data-name="Group 67579">
            <g id="Group_67578" data-name="Group 67578">
              <path id="Path_53653" data-name="Path 53653" d="M553.474,706.265q2.459,1.977-1.977-2.315-1.109-.723-2.266-1.35-2.315-1.3-2.411-.964Z" transform="translate(-546.819 -701.566)" fill="#68412f"/>
            </g>
          </g>
        </g>
        <g id="Group_67583" data-name="Group 67583" transform="translate(29.917 90.217)">
          <g id="Group_67582" data-name="Group 67582" transform="translate(0 0)">
            <g id="Group_67581" data-name="Group 67581">
              <path id="Path_53654" data-name="Path 53654" d="M146.894,524.8l-2.266-1.543q-4.822-3.376-5.353-.964a95.662,95.662,0,0,1-10.416,27.2,29.451,29.451,0,0,1,11.718-2.122q1.3,0,4.726-2.893,3.472-3.135,4.244-3.665,3.52-2.411,3.761-4.533.193-1.543-1.736-6.172A12.668,12.668,0,0,0,146.894,524.8Z" transform="translate(-128.859 -521.29)" fill="#83523b"/>
            </g>
          </g>
        </g>
        <g id="Group_67586" data-name="Group 67586" transform="translate(93.377 61.324)">
          <g id="Group_67585" data-name="Group 67585">
            <g id="Group_67584" data-name="Group 67584">
              <path id="Path_53655" data-name="Path 53655" d="M426.291,425.5a35.881,35.881,0,0,0,6.365,1.109l-.627-5.5a59.832,59.832,0,0,1-8.246-2.7q-7.812-2.942-15.383-12.586l-6.028-9.066q5.3,9.066,5.353,9.162a42.308,42.308,0,0,0,6.655,8.2,30.208,30.208,0,0,0,3.713,2.652,16.376,16.376,0,0,1,3.472,2.8q-1.35.772-4.051-.386-2.942-1.495-3.954-1.929l-5.063-2.074a61.245,61.245,0,0,1,6.655,4.533,25.215,25.215,0,0,0,11.139,5.787m5.642-5.112.1.723a1.413,1.413,0,0,0,.53.048Q433.042,421.065,431.933,420.39Z" transform="translate(-402.372 -396.761)" fill="#be6228"/>
            </g>
          </g>
        </g>
        <g id="Group_67589" data-name="Group 67589" transform="translate(51.231 57.997)">
          <g id="Group_67588" data-name="Group 67588" transform="translate(0)">
            <g id="Group_67587" data-name="Group 67587">
              <path id="Path_53656" data-name="Path 53656" d="M221.109,382.42h-.386a96.792,96.792,0,0,0,6.9,20.109q5.015,9.982,12.441,14.852a16.355,16.355,0,0,0,7.378,2.556,90.167,90.167,0,0,0,9.162-.1,42.275,42.275,0,0,0-4.292-.723,37.493,37.493,0,0,1-4.292-.772l-3.472-.723a8.449,8.449,0,0,1-3.279-1.3q-3.472-2.266-5.015-3.424a16.054,16.054,0,0,1-4.147-4.581A128.526,128.526,0,0,1,221.109,382.42Z" transform="translate(-220.723 -382.42)" fill="#be6228"/>
            </g>
          </g>
        </g>
        <g id="Group_67592" data-name="Group 67592" transform="translate(49.081 1.399)">
          <g id="Group_67591" data-name="Group 67591" transform="translate(0 0)">
            <g id="Group_67590" data-name="Group 67590">
              <path id="Path_53657" data-name="Path 53657" d="M225.372,142.956q-1.3-1.591-5.931-4.292-1.254-.627-2.652.964-2.845,3.231-3.665,14.611a43.271,43.271,0,0,0-1.591,14.515q.048,1.495.145,1.254.048-.193.193-1.977.579-6.028,1.157-9.741,2.6-16.588,8.15-15.045a21.623,21.623,0,0,0-3.424,7.089,22.04,22.04,0,0,0-.82,7.812,32.851,32.851,0,0,1,1.736-7.282q2.6-7.185,7.089-6.848Q226.047,143.776,225.372,142.956Z" transform="translate(-211.456 -138.487)" fill="#f39941"/>
            </g>
          </g>
        </g>
        <g id="Group_67595" data-name="Group 67595" transform="translate(68.253 8.472)">
          <g id="Group_67594" data-name="Group 67594" transform="translate(0)">
            <g id="Group_67593" data-name="Group 67593">
              <path id="Path_53658" data-name="Path 53658" d="M311.787,177.555q9.452,3.665,11.959,3.858,3.376.289,8.632,1.013-9.162-1.64-12.49-3.376-2.122-1.109-14.66-5.883l-11.139-4.2a30.882,30.882,0,0,1,6.365,3.424Q302.384,173.89,311.787,177.555Z" transform="translate(-294.089 -168.971)" fill="#f39941"/>
            </g>
          </g>
        </g>
        <g id="Group_67598" data-name="Group 67598" transform="translate(103.6 53.174)">
          <g id="Group_67597" data-name="Group 67597">
            <g id="Group_67596" data-name="Group 67596">
              <path id="Path_53659" data-name="Path 53659" d="M447.736,361.636a28.78,28.78,0,0,0,1.977,8.15q.579,1.591,2.17,5.112l-5.449-6.172,5.208,7.619a65.185,65.185,0,0,1,7.571,15.817,29.66,29.66,0,0,1,.868,4.147q.338-3.231-2.749-12.2-1.543-4.678-3.472-9.018h.048a62.942,62.942,0,0,1-3.52-10.416l.1,1.109q.338,2.363.772,4.292l.289,1.254-1.35-2.315A34.3,34.3,0,0,1,447.736,361.636Z" transform="translate(-446.434 -361.636)" fill="#bf5f01"/>
            </g>
          </g>
        </g>
        <g id="Group_67601" data-name="Group 67601" transform="translate(43.371 47.195)">
          <g id="Group_67600" data-name="Group 67600" transform="translate(0 0)">
            <g id="Group_67599" data-name="Group 67599">
              <path id="Path_53660" data-name="Path 53660" d="M188.678,338.613q.1-.145.627.53a10.341,10.341,0,0,1,1.495,3.134l1.881,5.353a27.327,27.327,0,0,0-1.881-7.33,11.853,11.853,0,0,0-3.954-4.436,30.6,30.6,0,0,1,1.64,3.906l.82,2.942Z" transform="translate(-186.845 -335.865)" fill="#104e93"/>
            </g>
          </g>
        </g>
        <g id="Group_67604" data-name="Group 67604" transform="translate(49.398 130.794)">
          <g id="Group_67603" data-name="Group 67603" transform="translate(0)">
            <g id="Group_67602" data-name="Group 67602">
              <path id="Path_53661" data-name="Path 53661" d="M215.911,696.29a2.7,2.7,0,0,0-3.086,1.061l1.109-.482a7.929,7.929,0,0,1,3.713.241A6.171,6.171,0,0,0,215.911,696.29Z" transform="translate(-212.825 -696.175)" fill="#68412f"/>
            </g>
          </g>
        </g>
        <g id="Group_67607" data-name="Group 67607" transform="translate(6.098 68.85)">
          <g id="Group_67606" data-name="Group 67606">
            <g id="Group_67605" data-name="Group 67605">
              <path id="Path_53662" data-name="Path 53662" d="M541.4,573.043a8.813,8.813,0,0,0,3.376,2.552,3.3,3.3,0,0,0,1.392.29l-.476-2.842,5.255-2.993a23.974,23.974,0,0,1-4.78,1.926Z" transform="translate(-541.4 -570.05)" fill="#104e93"/>
            </g>
          </g>
        </g>
        <g id="Group_67610" data-name="Group 67610" transform="translate(3.291 12.584)">
          <g id="Group_67609" data-name="Group 67609" transform="translate(0)">
            <g id="Group_67608" data-name="Group 67608">
              <path id="Path_53663" data-name="Path 53663" d="M28.624,190.153q4.051-3.086,7.523-2.315a8.419,8.419,0,0,1,1.736-.386,9.134,9.134,0,0,0-2.363-.675,6.786,6.786,0,0,0-4.774,1.013,32.478,32.478,0,0,0-13.6,13.02q-4.967,9.066-1.832,18.035a35.521,35.521,0,0,1-.482-4.678,26.45,26.45,0,0,1,.675-5.835q1.013-5.015,5.98-10.9l1.3-1.543A45.988,45.988,0,0,1,28.624,190.153Z" transform="translate(-14.102 -186.694)" fill="#7898cc"/>
            </g>
          </g>
        </g>
        <g id="Group_67613" data-name="Group 67613" transform="translate(155.321 143.784)">
          <g id="Group_67612" data-name="Group 67612" transform="translate(0 0)">
            <g id="Group_67611" data-name="Group 67611">
              <path id="Path_53664" data-name="Path 53664" d="M670.866,757.129q2.315-2.7,1.64-4.967l-.579,2.218a8.776,8.776,0,0,1-2.073,3.568q-.868.82-.241.386A8.337,8.337,0,0,0,670.866,757.129Z" transform="translate(-669.349 -752.162)" fill="#68412f"/>
            </g>
          </g>
        </g>
        <g id="Group_67616" data-name="Group 67616" transform="translate(149.315 101.787)">
          <g id="Group_67615" data-name="Group 67615" transform="translate(0 0)">
            <g id="Group_67614" data-name="Group 67614">
              <path id="Path_53665" data-name="Path 53665" d="M643.463,579.447q2.363-1.591,3.086-5.883a10.451,10.451,0,0,0,.145-2.073q-.048-.868-.145.53a13.287,13.287,0,0,1-1.639,4.87A20.119,20.119,0,0,1,643.463,579.447Z" transform="translate(-643.463 -571.158)" fill="#68412f"/>
            </g>
          </g>
        </g>
        <g id="Group_67619" data-name="Group 67619" transform="translate(121.465 122.325)">
          <g id="Group_67618" data-name="Group 67618" transform="translate(0 0)">
            <g id="Group_67617" data-name="Group 67617">
              <path id="Path_53666" data-name="Path 53666" d="M524.808,659.675q-1.784,2.17-1.254,6.51a11.453,11.453,0,0,0,.386,2.074q.289.82,0-.579a13.086,13.086,0,0,1,.193-5.16Z" transform="translate(-523.433 -659.675)" fill="#68412f"/>
            </g>
          </g>
        </g>
        <g id="Group_67622" data-name="Group 67622" transform="translate(9.505 131.969)">
          <g id="Group_67621" data-name="Group 67621" transform="translate(0)">
            <g id="Group_67620" data-name="Group 67620">
              <path id="Path_53667" data-name="Path 53667" d="M41.621,701.242q-1.4,2.459-.145,6.655a11.886,11.886,0,0,0,.82,1.929q.434.723-.1-.53a13.557,13.557,0,0,1-.772-5.112Z" transform="translate(-40.883 -701.242)" fill="#68412f"/>
            </g>
          </g>
        </g>
        <g id="Group_67625" data-name="Group 67625" transform="translate(63.093 56.164)">
          <g id="Group_67624" data-name="Group 67624" transform="translate(0 0)">
            <g id="Group_67623" data-name="Group 67623">
              <path id="Path_53668" data-name="Path 53668" d="M271.851,374.522l.772,2.508q.338.482,8.053,11.959,7.86,11.477,9.307,12.538l-.386-.772q-.964-.723-5.835-8.15-5.835-9.162-8.246-12.924a21.812,21.812,0,0,1-1.736-3.327Z" transform="translate(-271.851 -374.522)" fill="#ff9d3c"/>
            </g>
          </g>
        </g>
        <g id="Group_67628" data-name="Group 67628" transform="translate(117.086 102.409)">
          <g id="Group_67627" data-name="Group 67627" transform="translate(0 0)">
            <g id="Group_67626" data-name="Group 67626">
              <path id="Path_53669" data-name="Path 53669" d="M505.537,587a35.157,35.157,0,0,0,2.17,8.246q.193.434.772,2.122.53,1.495.723,1.543.338.1,0-2.7-2.218-2.942-3.617-12.924l-1.013-9.452A68.468,68.468,0,0,0,505.537,587Z" transform="translate(-504.556 -573.838)" fill="#68412f"/>
            </g>
          </g>
        </g>
        <g id="Group_67631" data-name="Group 67631" transform="translate(166.434 149.426)">
          <g id="Group_67630" data-name="Group 67630" transform="translate(0)">
            <g id="Group_67629" data-name="Group 67629">
              <path id="Path_53670" data-name="Path 53670" d="M732.966,791.235a1.674,1.674,0,0,0,.337-.964q-10.946-7.233-16.058-8.15a127.786,127.786,0,0,1,15.72,9.114m2.845-4.629a3.777,3.777,0,0,0,1.833-.627l-17.119-6.847,15.286,7.474m-8.439-8.969a58.885,58.885,0,0,1,5.3,3.038l2.8,1.929-.1-.627-.048-.1-7.474-4.678a10.7,10.7,0,0,0-2.99-.723Z" transform="translate(-717.246 -776.479)" fill="#68412f"/>
            </g>
          </g>
        </g>
      </g>
      <g id="Layer_4" transform="translate(629.722 20.45)">
        <g id="Layer_1" transform="translate(14.712 8.96) rotate(30.739)">
          <g id="Group_67634" data-name="Group 67634" transform="translate(0 0)">
            <g id="Group_67633" data-name="Group 67633">
              <g id="Group_67632" data-name="Group 67632">
                <path id="Path_53671" data-name="Path 53671" d="M17.265,1.663a2.545,2.545,0,0,0-.106-.611A2.666,2.666,0,0,0,16.442.016q-.159-.159-2.2,1.222a8.594,8.594,0,0,1-2.284,1.328,2.307,2.307,0,0,0-1.3-.239l-.717.212a7.139,7.139,0,0,1-.77.266,3.877,3.877,0,0,0-.717.345,3.476,3.476,0,0,0-.664.691,3.211,3.211,0,0,0-.5.85,1.712,1.712,0,0,0-.106.4,6.308,6.308,0,0,0-1.248.744,3.681,3.681,0,0,0-.531.531,2.155,2.155,0,0,0-.292.584q-.126-.056-.266-.106A4.379,4.379,0,0,0,2.47,6.79a2.613,2.613,0,0,0-.558.159A3.734,3.734,0,0,0,1.62,6.63a1.268,1.268,0,0,0-.637-.345.655.655,0,0,0-.637.186A1.232,1.232,0,0,0,.08,7L0,7.4a.988.988,0,0,0,.425.717,1.065,1.065,0,0,0,.77.212,2.561,2.561,0,0,0,.531,1.727,1.934,1.934,0,0,0,.85.637,1.715,1.715,0,0,0,1.062.133,4.885,4.885,0,0,0,.85-.345,6.51,6.51,0,0,0,.744-.345.354.354,0,0,0,.027.08,1.567,1.567,0,0,0,.372.5,1.659,1.659,0,0,0,1.036.531q.425-.027.611-.027a1.748,1.748,0,0,1,.531.106,2.327,2.327,0,0,0,1.567-.292,3.316,3.316,0,0,0,.531-.345q.022.241.053.478a6.39,6.39,0,0,0,.319,1.116l.053.106a2.115,2.115,0,0,0-.345.133,2.917,2.917,0,0,0-.637.5,1.721,1.721,0,0,0-.425.478l-.5.956A1.885,1.885,0,0,0,8.287,15l-.027.425a3.007,3.007,0,0,0,.4,1.036,4.179,4.179,0,0,0,.372.584,1.417,1.417,0,0,0-.239.558,2.465,2.465,0,0,0,.027.8,1.774,1.774,0,0,0,.133.478,1.082,1.082,0,0,0,.664.452,1.246,1.246,0,0,0,.85-.027,2.013,2.013,0,0,0,.584-.691,4.4,4.4,0,0,0,.266-.717.922.922,0,0,0-.027-.4l.372-.08a3.657,3.657,0,0,0,.717-.452,2.909,2.909,0,0,0,.717-.691l.452-.93a1.333,1.333,0,0,0,.212-.611,1.536,1.536,0,0,0-.027-.744l-.053-.186a1.215,1.215,0,0,0,.212-.027q.07.229.159.452a2.2,2.2,0,0,0,.266.452q-.114.193-.212.372a6.676,6.676,0,0,0-.478,1.009,4.668,4.668,0,0,0-.159,2.523,5.456,5.456,0,0,0,1.089,2.311,4.581,4.581,0,0,0,.452.531,3.783,3.783,0,0,0-.478.425,3.586,3.586,0,0,0-.425.584,5.383,5.383,0,0,0-.292.637,4.151,4.151,0,0,0-.133,1.222,6.079,6.079,0,0,0,.053.93,2.608,2.608,0,0,0,1.3,1.806,1.843,1.843,0,0,0,.877.292h.08a2.239,2.239,0,0,0,.239.611,1.166,1.166,0,0,0,.319.4,1.048,1.048,0,0,0,.531.212,1.642,1.642,0,0,0,.823-.08.781.781,0,0,0,.5-.637,1.27,1.27,0,0,0-.133-.611,1.751,1.751,0,0,0-.319-.558,4.037,4.037,0,0,0,.531-.4,4.1,4.1,0,0,0,.823-.956,2.534,2.534,0,0,0,.319-1.541,2.62,2.62,0,0,0-.584-1.461l-.186-.186a1.567,1.567,0,0,0,.77-.983.351.351,0,0,0,0-.106,2.381,2.381,0,0,0,.478-.345,4.476,4.476,0,0,0,.77-1.036,8.624,8.624,0,0,1,1.62-1.169q1.381-.877,1.461-1.248a6.748,6.748,0,0,0,0-2.1q0-.133.372-.531.345-.372.292-.5a3.173,3.173,0,0,0-.372-.691,3.517,3.517,0,0,0,.5-1.381,6.8,6.8,0,0,0,.08-1.222,5.57,5.57,0,0,0-.106-1.142,6.374,6.374,0,0,0-.345-.85,6.62,6.62,0,0,0-.452-.823,3,3,0,0,0-1.673-1.248A3.933,3.933,0,0,0,20.851,6.6q-.478.027-1.275-1.036-.717-1.009-1.169-.77a2.631,2.631,0,0,0-1.567-.664l.133-.239a2.543,2.543,0,0,0,.266-.584,4.054,4.054,0,0,0,.08-.8l-.053-.85M60.216,18.132a2.96,2.96,0,0,0,.611,1.514,4.292,4.292,0,0,0-.9,1.089,3.454,3.454,0,0,0-.372.85,6.2,6.2,0,0,0-.159.877l-.08.93a2.48,2.48,0,0,0,.186.8,2.155,2.155,0,0,0,.292.637,1.786,1.786,0,0,0,1.062.744L62,25.835a.858.858,0,0,0-.053.319,1.526,1.526,0,0,0,.292.877,1.413,1.413,0,0,0,1.062.531,1.851,1.851,0,0,0,.531-.027,2.328,2.328,0,0,0,.053.345,1.277,1.277,0,0,0,.4.584,1.34,1.34,0,0,0,.9.319,1.315,1.315,0,0,0,.9-.372,1.4,1.4,0,0,0,.133-1.806,1.209,1.209,0,0,0-.664-.452.9.9,0,0,0-.053-.637,3.34,3.34,0,0,0,.425-.08,3.215,3.215,0,0,0,1.116-.5l.5-.345a3.23,3.23,0,0,0,.956-1.408,2.4,2.4,0,0,0,.186-.9,6.71,6.71,0,0,0,1.567.133h.266a4.8,4.8,0,0,0,.133.478,2.607,2.607,0,0,0,.717,1.089,1.944,1.944,0,0,0,.5.345,1.5,1.5,0,0,0,.5,1.408,1.57,1.57,0,0,0,1.408.452,1.552,1.552,0,0,0,.877-.584,1.1,1.1,0,0,0,.213-.664,1.321,1.321,0,0,0-.372-1.062,2.176,2.176,0,0,0,.85-1.2l-.027-1.647a1.937,1.937,0,0,0-.664-1.142,2.643,2.643,0,0,0-.292-.239h0a2.811,2.811,0,0,0-.08-2.523q-.1-.168-.717-.983.022.015.027,0a2.138,2.138,0,0,0,.212-.186,3.893,3.893,0,0,0,.372-.452,3.472,3.472,0,0,0,.372.212,4.109,4.109,0,0,0,1.7.345,2.5,2.5,0,0,0,.983-.08,2.1,2.1,0,0,0,.452-.212.937.937,0,0,0,.08.372,1.686,1.686,0,0,0,1.169,1.142,1.544,1.544,0,0,0,1.089-.027,1.576,1.576,0,0,0,.691-.584,1.625,1.625,0,0,0,.239-.85A1.4,1.4,0,0,0,80.35,14.6a1.712,1.712,0,0,0-1.009-.319,1.1,1.1,0,0,0-.425.027,2.2,2.2,0,0,0,.186-1.939,2.6,2.6,0,0,0-.239-.531q-.345-.478-.4-.558a2.969,2.969,0,0,0-2.178-.877,5.553,5.553,0,0,0-1.009.08,5.07,5.07,0,0,0-.983-1.541,4.443,4.443,0,0,0-2.9-1.514,5.329,5.329,0,0,0-1.487.053,7.919,7.919,0,0,0-3.559,1.7,4.023,4.023,0,0,0-1.036,1.2,3.248,3.248,0,0,0-.345,2.55,4.591,4.591,0,0,0-2.576.159,3.147,3.147,0,0,0-.983.8,5.142,5.142,0,0,0-1.222,3.267Z" fill="#24110f"/>
              </g>
            </g>
          </g>
        </g>
        <g id="CenterMarker" transform="translate(68.157 0) rotate(30.739)">
          <g id="Layer_1-2" data-name="Layer_1" transform="translate(0 0)">
            <g id="Group_67636" data-name="Group 67636">
              <g id="Group_67635" data-name="Group 67635">
                <path id="Path_53672" data-name="Path 53672" d="M6.375,3.187,3.187,6.375,0,3.187,3.187,0Zm-2.391,0h-.8v.8m-.8-.8h.8v-.8" fill="none" stroke="rgba(0,0,0,0)" stroke-linecap="round" stroke-linejoin="round" stroke-width="0.114"/>
              </g>
            </g>
          </g>
        </g>
      </g>
      <g id="Layer_2" transform="translate(619.847 -43.726)">
        <g id="face" transform="translate(57.578 35.436) rotate(28.576)">
          <g id="Group_67639" data-name="Group 67639" transform="translate(0 0)">
            <g id="Group_67638" data-name="Group 67638">
              <g id="Group_67637" data-name="Group 67637">
                <path id="Path_53673" data-name="Path 53673" d="M9.281,65.041A5.47,5.47,0,0,1,9.756,62.8l.422-.712q-.844-.316-3.718-4.377a32.522,32.522,0,0,0-3.85-4.878Q6.117,66.966,13.711,75.8L13,74.692Q9.15,69.1,9.281,65.041M38.919.282A47.385,47.385,0,0,0,30.059.15a27.7,27.7,0,0,0-7.752,1.872,25.063,25.063,0,0,0-4.641,2.5A43.649,43.649,0,0,0,7.2,15.285,44.29,44.29,0,0,0,.105,31.818a39.482,39.482,0,0,0,0,5.775A106.019,106.019,0,0,0,2,50.222q8,2.889,8.279,9.176,3.7-5.461,2.162-19.037,6.536-.709,8.543-6.223t-.738-7.067q-2.715-1.556,1.846-5.326a16.747,16.747,0,0,1,7.251-3.639q2.795-.554,12.34-.527A95.959,95.959,0,0,1,61.806,19.4a10.788,10.788,0,0,1,7.673,7.62,34.919,34.919,0,0,1,1.872,11.022q1.052-11-1.9-18.378A29.048,29.048,0,0,0,62.069,8.72,32.365,32.365,0,0,0,47.8,1.627Q42.988.671,38.919.282Z" fill="#68412f"/>
                <path id="Path_53674" data-name="Path 53674" d="M17.561,4.245A25.063,25.063,0,0,1,22.2,1.74,29.446,29.446,0,0,0,5.3,14.66,35.937,35.937,0,0,0,.633,26.869,37.516,37.516,0,0,0,0,31.536,44.29,44.29,0,0,1,7.093,15,43.649,43.649,0,0,1,17.561,4.245M69.532,50.626q0,.026.817,2.953.158.765.264,1.529a25.417,25.417,0,0,1,.132,5.775q-1.081,11.655-12.63,18.8a45.6,45.6,0,0,1-9.835,4.931A50.415,50.415,0,0,1,34.568,86.3a21.748,21.748,0,0,1-6.2-.976l-1.635-.554,1.4.5a43.935,43.935,0,0,0,4.878,1.239,37.147,37.147,0,0,0,15.267-.053,32.594,32.594,0,0,0,12.736-6.486A29.909,29.909,0,0,0,69.426,70.3a23.047,23.047,0,0,0,2.584-9.967,16.863,16.863,0,0,0-.817-5.221q-.264-.791-.554-1.635-.765-1.9-1.107-2.848M38.813,0Q42.882.389,47.7,1.345A44.64,44.64,0,0,0,38.813,0Z" transform="translate(0.105 0.282)" fill="#9b7458"/>
                <path id="Path_53675" data-name="Path 53675" d="M39.683,0q-9.545-.026-12.34.527a16.747,16.747,0,0,0-7.251,3.639q-4.56,3.77-1.846,5.326,2.744,1.552.738,7.067t-8.543,6.223Q11.981,36.359,8.279,41.82,8,35.533,0,32.644q.289,1.335.606,2.61a32.522,32.522,0,0,1,3.85,4.878Q7.33,44.193,8.174,44.51l-.422.712a5.47,5.47,0,0,0-.475,2.241Q7.146,51.524,11,57.114l.712,1.107q.58.686,1.213,1.345A31.788,31.788,0,0,0,21.2,66a15.7,15.7,0,0,0,3.639,1.477l1.635.554a21.747,21.747,0,0,0,6.2.976,50.415,50.415,0,0,0,13.711-1.688,45.6,45.6,0,0,0,9.835-4.931q11.549-7.146,12.63-18.8a25.418,25.418,0,0,0-.132-5.775q-.105-.765-.264-1.529-.817-2.927-.817-2.953a3.584,3.584,0,0,1-.316-.923,86.364,86.364,0,0,0,2.03-11.945A34.918,34.918,0,0,0,67.475,9.441,10.788,10.788,0,0,0,59.8,1.821,95.959,95.959,0,0,0,39.683,0Z" transform="translate(2.004 17.578)" fill="#83523b"/>
              </g>
            </g>
          </g>
        </g>
        <g id="hair_top" transform="translate(47.329 0) rotate(28.576)">
          <g id="color" transform="translate(0 0)">
            <g id="Group_67642" data-name="Group 67642" transform="translate(0 0)">
              <g id="Group_67641" data-name="Group 67641">
                <g id="Group_67640" data-name="Group 67640">
                  <path id="Path_53676" data-name="Path 53676" d="M53.847.369a.482.482,0,0,0-.316.369,1.3,1.3,0,0,0,1.16,1.819q-.211.237-.4.475a3.226,3.226,0,0,0-.448.844,4.953,4.953,0,0,0-1.134-.132,14.831,14.831,0,0,0-4.192.633A8.034,8.034,0,0,0,46.2,5.405a7.678,7.678,0,0,0-2.426,3.032,12.341,12.341,0,0,1-.791,1.9q-.9-.211-1.714-.369a2.5,2.5,0,0,0-.738-.105q-3.217.237-4.43,2.4a4.213,4.213,0,0,0-.58,2.136,3.766,3.766,0,0,0-.817-1.107,4.406,4.406,0,0,0-1.846-.949A12.745,12.745,0,0,0,28.93,12.1a8.4,8.4,0,0,0-4.641,2.057,4.6,4.6,0,0,0-2.215-.554,5.177,5.177,0,0,0-4.192,1.9,4.139,4.139,0,0,0-.844,2.426,3.133,3.133,0,0,0,1.556,3.19,4.656,4.656,0,0,0,3.375.765l.316.5q-.211.132-.4.264A4.74,4.74,0,0,0,20.149,25a3.667,3.667,0,0,0,.527,3.639,5.337,5.337,0,0,0-1.107.791,4.3,4.3,0,0,0-2.215-.475,7.071,7.071,0,0,0-3.006.686,8.325,8.325,0,0,0-2.769,1.9,6.57,6.57,0,0,0-1.9,5.01,11.076,11.076,0,0,0,.29,1.635,2.823,2.823,0,0,0,1.187,1.925.907.907,0,0,1,.475.976l-.4.5a3.636,3.636,0,0,0-.659,3.428,4.2,4.2,0,0,0-.738.5,8.55,8.55,0,0,0-3.032,4.14,10.764,10.764,0,0,0-3.454.4A4.3,4.3,0,0,0,0,54.37a3.392,3.392,0,0,0,.527,1.978,3.7,3.7,0,0,0,1.767,1.5,4.771,4.771,0,0,0,2.479.237,5.015,5.015,0,0,0,3.955-2.821l1.4.712q-.5.343-.976.712a5.639,5.639,0,0,0-1.793,2.479,4.709,4.709,0,0,0-.4,1.582A4.492,4.492,0,0,0,9.18,64.812a5.565,5.565,0,0,0,2.953.58l1.134,1.266a5.652,5.652,0,0,0-2.61,1.872,4.557,4.557,0,0,0-.949,3.032,8.678,8.678,0,0,0,.475,2.4,4.152,4.152,0,0,0,1.846,2.294q1.028.633,2.03,1.266a4.768,4.768,0,0,0,1.424.606,9.109,9.109,0,0,0-3.032.949,3.937,3.937,0,0,0-1.107.817,5.363,5.363,0,0,0-1.477,2.32,6.893,6.893,0,0,0,.105,3.27,6.178,6.178,0,0,0,1.055,2.241,4.975,4.975,0,0,0,2.109,1.714,5.867,5.867,0,0,0,3.718.264l.105.211A4.737,4.737,0,0,0,20.1,92.841a5.42,5.42,0,0,0,1.925,5.168,4.23,4.23,0,0,0,3.639.712,4.507,4.507,0,0,0,1.5-.765,8.657,8.657,0,0,0,2.373-2.98,2.34,2.34,0,0,0,.237-.817q.132-1.819,4.746-18.115a.892.892,0,0,0,.316.158,3.662,3.662,0,0,0,.527.237,1.284,1.284,0,0,0,.765-.316,3.784,3.784,0,0,0-.026-2.452q.422-.422.817-.9a3.721,3.721,0,0,0,.923-2.4,3.1,3.1,0,0,0-1.187-2.558l1.213-3.744a5.339,5.339,0,0,0,3.8-.791,11.067,11.067,0,0,0,3.718-3.823,5.235,5.235,0,0,0,.738-2.268,3.671,3.671,0,0,0-1.74-3.718l.343-.448a9.775,9.775,0,0,0,6.012-.87,4.158,4.158,0,0,0,.791.4,8.691,8.691,0,0,0,6.486.343l.053,1.055a3.3,3.3,0,0,0,.923,2.083,4.651,4.651,0,0,0,1.187.791,8.48,8.48,0,0,0,5.564.448A3.1,3.1,0,0,0,66.9,60.7a1.641,1.641,0,0,0,.554.316,5.071,5.071,0,0,0,4.535-.58,2.659,2.659,0,0,0,1.16-1.5,2.743,2.743,0,0,0-.026-1.872,1.8,1.8,0,0,0-.369-.606,4.664,4.664,0,0,0-3.217-1.661q.158-.264.316-.554a4.106,4.106,0,0,0,.475-2.5q-.026-.316-.079-.633a2.83,2.83,0,0,0-.765-1.45A6.7,6.7,0,0,0,68.3,48.7a2.661,2.661,0,0,1-1.081-1.055l.765-1.239q.58.316,1.187.606a4.079,4.079,0,0,0,1.872.5,7.388,7.388,0,0,0,3.322-.712,16.163,16.163,0,0,0,1.767-1.055A23.669,23.669,0,0,1,79,44.166a5.1,5.1,0,0,0,.343,2.558A4.69,4.69,0,0,0,81.56,49.1a6.113,6.113,0,0,0,5.221.343q.949-.369,1.872-.817a11.486,11.486,0,0,0,1.556-.765,4.107,4.107,0,0,1,1.819-.5,5.7,5.7,0,0,1,2.347.29,7,7,0,0,1,2.03,1.239q2.663,11.549-1.187,27.264a63.728,63.728,0,0,1,2.109,6.038,13.9,13.9,0,0,1,.686,4.535q-.105,2.294-.105,2.373a32.945,32.945,0,0,1-.817,3.929,5.461,5.461,0,0,0,1.608.606,2.521,2.521,0,0,0,1.635-.554q.316-.29.606-.58a5.181,5.181,0,0,0,.554-.712,8.414,8.414,0,0,0,1.371-4.192,3.115,3.115,0,0,0,2.9.817,1.991,1.991,0,0,1,.633.105,3.631,3.631,0,0,0,1.371-.053,1.234,1.234,0,0,0,.712-.58,3.8,3.8,0,0,0,.58-2.373,1.628,1.628,0,0,0-.738-1.239,7.445,7.445,0,0,0-2.215-1.16q-.4-.132-.765-.264a1.143,1.143,0,0,1-.87-.264,3.42,3.42,0,0,1,.185-.448,4.3,4.3,0,0,0,.369-2.558.17.17,0,0,1,0-.132.076.076,0,0,1,.053-.026,5.681,5.681,0,0,0,3.744-2.083,3.832,3.832,0,0,0,2.531,1.345,4.926,4.926,0,0,0,4.061-1.608,2.712,2.712,0,0,0,.527-.817,10.516,10.516,0,0,0,.422-1.028,2.652,2.652,0,0,0-.211-2.294,3.821,3.821,0,0,0-1.9-1.74,4.619,4.619,0,0,0,.817-2.109,4.669,4.669,0,0,0-.158-2.109,4.373,4.373,0,0,0-1.846-2.426,5.694,5.694,0,0,0-4.746-.738,6.973,6.973,0,0,0-1.846-2.347,4.931,4.931,0,0,0,6.17-.343,10.01,10.01,0,0,0,1.266-1.767,4.325,4.325,0,0,0-.527-5.115,4.3,4.3,0,0,1-.448-.58,2.151,2.151,0,0,0-.87-.659,7.09,7.09,0,0,0-3.138-.606,3.227,3.227,0,0,0,.132-1.345,3.509,3.509,0,0,0-.211-.844,4.258,4.258,0,0,0,1.45-2.795q.026-.237.053-.448a4.2,4.2,0,0,0,2.927.659,3.549,3.549,0,0,0,1.846,1.028,2.242,2.242,0,0,0,1.978-.29,1.8,1.8,0,0,0,.4-.422,2.212,2.212,0,0,0,.29-2.294,3.656,3.656,0,0,0-.606-.976,5.41,5.41,0,0,1-.712-.9,4.291,4.291,0,0,0-.026-.475,5.3,5.3,0,0,0-1-2.637,3.276,3.276,0,0,0-1.239-1.028,4.754,4.754,0,0,0-4.219-.132,6.6,6.6,0,0,0-1.213-5.906,1.488,1.488,0,0,0,1.266.185,1.829,1.829,0,0,0,1.16-.765,2.524,2.524,0,0,0,.343-1.714,2.191,2.191,0,0,0-1.266-1.714,3.247,3.247,0,0,0-1.978-.4l.29-.475q.58.079,1.16.185a7.785,7.785,0,0,0,1.266-.158,5.505,5.505,0,0,0,2.874-1.424,6.342,6.342,0,0,0,.923-1.028,2.868,2.868,0,0,0,.475-1.055,3.068,3.068,0,0,0-.527-2.637,6.963,6.963,0,0,0-1.582-1.635,2.921,2.921,0,0,0-2.426-.554,10.609,10.609,0,0,0-3.507,1.345,10.367,10.367,0,0,0-6.434-2.162A1.875,1.875,0,0,0,99.2,17.9a2.456,2.456,0,0,0-2.162.4,3.54,3.54,0,0,0-.343-3.164,8,8,0,0,0-1.45-1.661,4.823,4.823,0,0,0-2.531-1.266,7.588,7.588,0,0,0-5.01,1.134,4.468,4.468,0,0,0-1.055-2.584,3.709,3.709,0,0,0-1.582-1.4A5.859,5.859,0,0,0,83.458,8.6a4.068,4.068,0,0,0-3.059.316,4.508,4.508,0,0,0-.87.527,7.9,7.9,0,0,0-1.371.87,14.122,14.122,0,0,0-1.187,1.028l-.87-.949a3.445,3.445,0,0,0,1.45-1.266,3.4,3.4,0,0,0,.606-2.109A2.166,2.166,0,0,0,77.71,5.8a5.141,5.141,0,0,0-4.693-1.846,7.093,7.093,0,0,0-2.162.765A3.311,3.311,0,0,0,69.22,6.776a2.341,2.341,0,0,0,.554,2.4,2.624,2.624,0,0,0-.4.079A3.79,3.79,0,0,0,68.4,9.7a1.175,1.175,0,0,1-1.081.264A32.421,32.421,0,0,0,63.893,8.78a12.051,12.051,0,0,0-4.061-.475,10.361,10.361,0,0,0-1.9.264,4.431,4.431,0,0,0-.343-1.4,4.213,4.213,0,0,0,1.793-.791,2.422,2.422,0,0,0,1-1.872A1.9,1.9,0,0,0,60.1,3.3a3.505,3.505,0,0,0-3.718-1.608A.992.992,0,0,0,56.168.87,2.078,2.078,0,0,0,54.638,0l-.264.105A1.489,1.489,0,0,0,53.847.369Z" fill="#24110f"/>
                </g>
              </g>
            </g>
          </g>
          <g id="shade" transform="translate(0.071 25.128)">
            <g id="Group_67645" data-name="Group 67645" transform="translate(0 0)">
              <g id="Group_67644" data-name="Group 67644">
                <g id="Group_67643" data-name="Group 67643">
                  <path id="Path_53677" data-name="Path 53677" d="M61.766,12.894q.765,1.767,1.767,3.639,2.03,3.744,3.27,4.351,3.507,1.688,5.643,1.424,2.162-.237,5.247-2.769-6.276,1.925-10.6-1.187a18.762,18.762,0,0,1-3.006-2.9q-1.9-2.189-2.32-2.558M82.754,24.865q1.4.316,5.854-1.556-9.438-.166-9.07-9.229a8.556,8.556,0,0,0-.976,3.771q-.316,3.111.817,4.3,2.4,2.5,3.375,2.716M13.671,41.555a5.8,5.8,0,0,0-3.111,2,4.774,4.774,0,0,0-1,3.19q.158,4.166,5.432,6.3a5.809,5.809,0,0,0-3.4,10.178A6.963,6.963,0,0,0,16.7,64.785a5.723,5.723,0,0,0,1.345,1.925,2.692,2.692,0,0,0,1.688.949q.158.606.448,2.558a4.128,4.128,0,0,0,.9,2.215,4.693,4.693,0,0,0,4.72,1.16,9.253,9.253,0,0,0,4.272-3.428q-2.8,2.736-5.7,1a4.493,4.493,0,0,1-1.872-2.32,10.149,10.149,0,0,1-.475-2.9q-2.03.633-2.874-.448a3.052,3.052,0,0,1-.264-2.9,5.918,5.918,0,0,1-3.929-1.16,2.727,2.727,0,0,1-.923-2.663,5.667,5.667,0,0,1,1.714-3.111,10.576,10.576,0,0,1,4.008-2.531q-4.931-2.452-6.513-4.272-2.848-3.3.422-7.3m-2.5-34.832a5.439,5.439,0,0,0-1.608,4.087q.237,4.219,3.4,5.564a6.737,6.737,0,0,0,6.012-.448q-5.775.158-6.987-3.744a9.134,9.134,0,0,1,.949-6.935L11.166,6.724M.645,27.422A3.991,3.991,0,0,0,.2,30.771,3.186,3.186,0,0,0,2.28,32.643a4.962,4.962,0,0,0,3.27,0,6.223,6.223,0,0,0,3.19-2.32,8.753,8.753,0,0,0,5.274.686q4.535-1.055,4.087-9.334-1.5,4.9-3.138,6.249-2.373,1.925-6.381-1.292a11.191,11.191,0,0,0-.9,1.187,10.9,10.9,0,0,1-2.03,2.136Q2.412,32.327.645,27.422m31.931,2.742q-.105-.053-.211.9a11.074,11.074,0,0,0-.026,2.294q.343,3.481,2.5,4.667,2.98,1.635,4.957,1.081a9.7,9.7,0,0,0,3.691-2.558q-5.247,2-8.2-.475a8.52,8.52,0,0,1-2.716-5.906m20.039-3.481q-2.531-.817-3.322-4.4-.264,4.061,2.215,5.353,2.057,1.055,6.381.343a4,4,0,0,0,2,3.8,6.181,6.181,0,0,0,5.59.5q.053,3.006,2.162,3.955,2.162.976,4.535-1.134-3.3.791-4.693-1.107a4.513,4.513,0,0,1-.527-3.982q-5.511,2.4-6.671-1.107a6.563,6.563,0,0,1-.237-2.637l.185-1.345q-4.8,2.637-7.62,1.767M19.973,0A3.948,3.948,0,0,0,20.5,3.164a4.782,4.782,0,0,0,2.531,1.925q3.955,1.345,6.961-2.03l-1.187.475a10.064,10.064,0,0,1-2.848.554Q21.608,4.272,19.973,0Z"/>
                </g>
              </g>
            </g>
          </g>
          <g id="light" transform="translate(33.781 19.562)">
            <g id="Group_67648" data-name="Group 67648" transform="translate(0 0)">
              <g id="Group_67647" data-name="Group 67647">
                <g id="Group_67646" data-name="Group 67646">
                  <path id="Path_53678" data-name="Path 53678" d="M0,54.531a4.691,4.691,0,0,0,2.821-.791A3.383,3.383,0,0,0,4.14,50.919,3.189,3.189,0,0,0,2.9,48.229q.264-.606-.527-1.9Q1.608,45.013.923,44.8a6.3,6.3,0,0,1,.844,1.74q.158,1.107-1.292,2.426,2.61.5,2.03,2.637A4.488,4.488,0,0,1,0,54.531M12.525,36.153q-.5-2.057-4.113-4.008a43.384,43.384,0,0,0-6.355-2.637q9.505,4.807,9.15,11a5.36,5.36,0,0,0,.949-1.4,4.408,4.408,0,0,0,.369-2.953M28.451,25.342q3.665,1.45,2.98,4.667,2.821-.791,3.639,1.371a5.772,5.772,0,0,1-.4,4.351,9.736,9.736,0,0,1,2.742.9,3.942,3.942,0,0,1,1.556,3.665q1.107-1.978.29-3.243-.738-1.187-3.375-1.951,1.371-1.16.58-3.639a4.641,4.641,0,0,0-2.821-3.19,8.188,8.188,0,0,0-4.14-4.14q-3.4-1.529-8.016.343a16.041,16.041,0,0,1,6.961.87M70.8,62.969a8.413,8.413,0,0,0,.132-5.036q-.817-3.823-3.85-4.878l.58.738a10.663,10.663,0,0,1,1.107,2.136,12.476,12.476,0,0,1,.29,7.989,5.823,5.823,0,0,1,2.189.422,6.2,6.2,0,0,1,2.215,1.213q2.057,1.925-2.821,3.375a6.848,6.848,0,0,0,3.164.132q1.424-.527,1.582-2.9.079-1.16-1.846-2.215a7.1,7.1,0,0,0-2.742-.976m-.738-21.121a5.856,5.856,0,0,1,3.56,4.351q3.771-.9,5.353,1.9a4.075,4.075,0,0,1,.554,2.215,1.83,1.83,0,0,1-.686,1.582q3.27,3.006,1.371,5.168A8.077,8.077,0,0,1,78.5,58.381q-.976.58-1,.738,4.351-.079,5.115-3.243a3.853,3.853,0,0,0-.211-2.5A3.749,3.749,0,0,0,80.711,51.5q1.608-3.612-.448-5.722-1.872-1.9-5.564-1.714a7.5,7.5,0,0,0-2.268-2.69,3.684,3.684,0,0,0-4.878.053l.738.026a5.494,5.494,0,0,1,1.767.4m5.353-8.991a6.518,6.518,0,0,0-3.85,1.107,7.922,7.922,0,0,1,5.115.606q3.929,1.714,2.5,6.618a5.894,5.894,0,0,0,1.635-4.272,3.949,3.949,0,0,0-1.767-2.927,6.517,6.517,0,0,0-3.639-1.134M74.172,16.219a13.689,13.689,0,0,1-.316,6.539q4.194-1.992,6.381-.765,2.187,1.253,2.373,2.821a4.425,4.425,0,0,0-1.767-4.535,4.485,4.485,0,0,0-4.562-.316,10.372,10.372,0,0,0-.105-3.9q-1.081-3.428-5.722-4.667a12.371,12.371,0,0,0,1.556,1.081,5.833,5.833,0,0,1,2.162,3.744m-1.292-12q3.27-3.006,6.249-.949a6.93,6.93,0,0,1,2.32,2.663A2.186,2.186,0,0,0,81.582,4.3a4.6,4.6,0,0,0-1-2.268Q78.338-.6,73.434,2.086A9.61,9.61,0,0,0,69.373.24a8.979,8.979,0,0,0-6.065.686Q70.632.8,72.88,4.222M39.13,2.086a9.844,9.844,0,0,1,7.383,1q3.593,1.961,1.5,8.807,9.22-1.82,4.3,6.75,6.813,1.051,5.985,4.4a13.441,13.441,0,0,1-2.347,5.274q2.66-.231,3.8-4.219,1.163-3.988-4.377-6.618,1.266-4.034-.87-5.88A7.074,7.074,0,0,0,50.89,9.97q.132-5.564-3.823-7.647A9.464,9.464,0,0,0,39.13,2.086Z" fill="#4f403f"/>
                </g>
              </g>
            </g>
          </g>
        </g>
        <g id="mouth" transform="translate(59.497 112.616) rotate(28.576)">
          <g id="Layer_1-3" data-name="Layer_1" transform="translate(0 0)">
            <g id="Group_67650" data-name="Group 67650" transform="translate(0 0)">
              <g id="Group_67649" data-name="Group 67649">
                <path id="Path_53679" data-name="Path 53679" d="M10.547.817l-.4.105H10.1l-.026.026L5.906,2.373,5.722,2.4l-.158.053L5.221,2.5l-.053.026H5.036l-.105.026H4.852l-.158.026-.9.053L2.584,2.5,2.4,2.452l-.633-.237a2.669,2.669,0,0,1-.554-.4l-.079-.053-.053-.053L1,1.661.949,1.582.923,1.556H.9L.844,1.477.686,1.318V1.292H.659L.633,1.213.527,1.055.211.4.105.026.053,0,.026.053,0,.132.026.237V.422l.053.4.105.4L.264,1.4l.053.079v.053l.053.053.079.158L.5,1.819l.026.053L.554,1.9l.132.185.026.026.026.053.053.079a3.762,3.762,0,0,0,.633.554,2.889,2.889,0,0,0,.738.369l.791.264,1.582.132h.211l.211-.026h.29L5.3,3.507h.053l.4-.053L5.933,3.4l.211-.026.369-.105.211-.026.185-.053,3.533-1.4-.053.026.079-.026h-.026l.132-.026.185-.026.343-.105.527-.079h1.239l.369.053.158.053.185.026,1.187.475.949.606.158.132h.079V2.821l-.369-.448-.738-.659-.686-.422-.105-.026-.079-.053-.58-.237L12.788.817,12.182.738A2.389,2.389,0,0,0,11.76.712h-.185l-.211.026a2.389,2.389,0,0,0-.422.026Z" fill="#003"/>
              </g>
            </g>
          </g>
        </g>
        <g id="nose" transform="translate(70.659 105.244) rotate(28.576)">
          <g id="Layer_2-2" data-name="Layer_2" transform="translate(0.201 0.181)">
            <g id="Group_67653" data-name="Group 67653" transform="translate(0 0)">
              <g id="Group_67652" data-name="Group 67652">
                <g id="Group_67651" data-name="Group 67651">
                  <path id="Path_53680" data-name="Path 53680" d="M2.779.267a6.932,6.932,0,0,0-1.9.87A2.086,2.086,0,0,0,.01,2.956,1.982,1.982,0,0,0,1.3,4.539a5.421,5.421,0,0,0,2.109.316L4.1,4.829a4.645,4.645,0,0,0,1.925-.844,2.884,2.884,0,0,0,.659-.554,1.607,1.607,0,0,0,.29-1.688A2.312,2.312,0,0,0,5.943.557,3.071,3.071,0,0,0,3.807.03,4.346,4.346,0,0,0,2.779.267Z" fill="#83523b"/>
                </g>
              </g>
            </g>
          </g>
          <g id="Layer_1-4" data-name="Layer_1" transform="translate(0 0)">
            <g id="Group_67655" data-name="Group 67655" transform="translate(0 0)">
              <g id="Group_67654" data-name="Group 67654">
                <path id="Path_53681" data-name="Path 53681" d="M5.274.026H5.168L4.983,0H4.509L4.034.079a.047.047,0,0,0-.053.053l.026.026.185.053L4.614.29q.527.158.659.211l.448.211L5.8.765l.105.053L5.985.9a.992.992,0,0,1,.316.29l.079.105.079.079.29.659.053.264v.185l.026.053L6.8,2.637v.158l-.026.053v.079L6.75,2.98l-.026.079-.053.105-.132.185a2.815,2.815,0,0,1-.87.606l-.58.211-.158.026-.053.026H4.852L4.8,4.245l-.606.132H4.113L4.061,4.4l-.316.053H3.639l-.158.026H2.663L2.5,4.456H2.373l-.5-.105L1.767,4.3H1.714l-.053-.026-.132-.026L1.5,4.219H1.477L1.318,4.14l-.105-.026-.079-.053-.105-.053L.949,3.955.791,3.823.738,3.8.712,3.771.633,3.718.422,3.454V3.428L.4,3.4.369,3.322.316,3.27.237,2.98V2.927L.211,2.874V2.795L.185,2.637.132,2.584.105,2.61l-.026.053-.053.211V2.98L0,3.032V3.19l.026.079v.105l.026.053v.105l.026.026v.053l.053.105L.158,3.8l.105.211.079.105H.369V4.14l.211.237.105.079.105.105L1,4.72l.053.026.053.053.105.053h.026L1.5,5.01l.712.264h.079l.079.026.817.132,1-.026.079-.026h.079l.686-.132h.053l.026-.026h.026l.079-.026.158-.026L6.065,4.9a4.119,4.119,0,0,0,.686-.343l.026-.053.053-.026.079-.053L7.067,4.3a1.253,1.253,0,0,0,.264-.316,1.857,1.857,0,0,0,.4-.738V3.138l.053-.211v-.29l-.026-.185V2.373L7.7,2.189V2.083L7.673,2l-.026-.026V1.925l-.079-.158a2.814,2.814,0,0,0-.316-.606,1.646,1.646,0,0,0-.422-.5L6.2.264,6.091.211,5.959.185,5.827.132A1.419,1.419,0,0,0,5.379.053Z" fill="#68412f"/>
              </g>
            </g>
          </g>
        </g>
        <g id="ear" transform="translate(33.863 72.145) rotate(28.576)">
          <g id="Layer_1-5" data-name="Layer_1" transform="translate(0 0)">
            <g id="Group_67659" data-name="Group 67659" transform="translate(0 0)">
              <g id="Group_67657" data-name="Group 67657">
                <g id="Group_67656" data-name="Group 67656">
                  <path id="Path_53682" data-name="Path 53682" d="M9.574,3.52A6.848,6.848,0,0,0,6.017.243,4.58,4.58,0,0,0,2.2.66Q.078,1.817,0,6.123A10.11,10.11,0,0,1,1.41,2.974,3.432,3.432,0,0,1,3.343,1.431a5.147,5.147,0,0,1,3.208.225q2.571,1.157,4.876,5.591A36.664,36.664,0,0,0,9.574,3.52Z" transform="translate(0.016 0)" fill="#9b7458"/>
                  <path id="Path_53683" data-name="Path 53683" d="M13.151,11.492a30.706,30.706,0,0,0-1.707-5.527Q9.138,1.531,6.567.374A5.147,5.147,0,0,0,3.359.149,3.432,3.432,0,0,0,1.425,1.692,10.11,10.11,0,0,0,.016,4.841.413.413,0,0,0,0,5a21.842,21.842,0,0,0,1.682,8.515q.393.964.829,1.8a13.444,13.444,0,0,0,2.2,3.149,5.979,5.979,0,0,0,2.925,1.96,5.237,5.237,0,0,0,3.382-.578,4.937,4.937,0,0,0,1.629-1.06q1.6-2.089.5-7.294M2.342,5.58a3.823,3.823,0,0,1,.966-1.767,1.9,1.9,0,0,1,1.9-.675q2.741.643,4.6,9.7-1.858-9.061-4.6-9.7a1.9,1.9,0,0,0-1.9.675A3.823,3.823,0,0,0,2.342,5.58Z" transform="translate(0 1.282)" fill="#83523b"/>
                </g>
              </g>
              <g id="Group_67658" data-name="Group 67658" transform="translate(2.269 3.809)">
                <path id="Path_53684" data-name="Path 53684" d="M3,.032H2.838L2.73,0H2.387L2.076.064l-.81.418L.975.8.924.835l-.262.353-.23.418-.071.1-.045.1-.2.514-.04.161-.067.482.005.064q-.048.064.032.064L.1,3.053.123,3.02l.042-.129.048-.064.045-.1L.4,2.506l.674-.8.148-.129h.026l0-.032h.026l.1-.064L1.4,1.446l.275-.193.206-.064.1-.064.208-.032a.708.708,0,0,1,.422,0h.105l.055.032H2.82l.029.032h.105l.055.032h.026l0,.032h.026l.055.032h.026l.029.032h.053l.055.032.311.257.055.032.145.161.113.1a7.2,7.2,0,0,1,.72,1.093l.181.289.223.482.092.161.289.643L7.244,9.64l.076.289.095.193.068.193.055.032.021-.064.011-.193L7.438,8.772,6.674,5.141l-.1-.257-.008-.1L5.5,2.281l-.449-.675a.381.381,0,0,0-.118-.161L4.75,1.189l-.084-.064L4.547.964,4.321.771,4.263.707,3.926.45,3.594.257,3.431.193,3.375.161H3.349L3.241.129,3.186.1H3.159L3.078.064H3Z" transform="translate(0 0)" fill="#68412f"/>
              </g>
            </g>
          </g>
        </g>
        <g id="eyes" transform="translate(60.432 91.109) rotate(28.576)">
          <g id="pupil" transform="translate(0.633 0.007)">
            <g id="Layer_1-6" data-name="Layer_1" transform="translate(0 0)">
              <g id="Group_67662" data-name="Group 67662" transform="translate(0 0)">
                <g id="Group_67661" data-name="Group 67661">
                  <g id="Group_67660" data-name="Group 67660">
                    <path id="Path_53685" data-name="Path 53685" d="M5.432,1.055A2.872,2.872,0,0,0,3.19,0,2.95,2.95,0,0,0,.923,1.055,3.813,3.813,0,0,0,0,3.612,3.714,3.714,0,0,0,.923,6.144,2.95,2.95,0,0,0,3.19,7.2,2.872,2.872,0,0,0,5.432,6.144a3.653,3.653,0,0,0,.949-2.531A3.75,3.75,0,0,0,5.432,1.055Z" fill="#03012e"/>
                  </g>
                </g>
              </g>
            </g>
            <g id="Layer_2-3" data-name="Layer_2" transform="translate(3.982 1.714)">
              <g id="Group_67665" data-name="Group 67665" transform="translate(0 0)">
                <g id="Group_67664" data-name="Group 67664">
                  <g id="Group_67663" data-name="Group 67663">
                    <path id="Path_53686" data-name="Path 53686" d="M1,.554a.537.537,0,0,0-.158-.4A.425.425,0,0,0,.5,0,.425.425,0,0,0,.158.158.537.537,0,0,0,0,.554a.537.537,0,0,0,.158.4A.425.425,0,0,0,.5,1.107.425.425,0,0,0,.844.949.537.537,0,0,0,1,.554Z" fill="#fff"/>
                  </g>
                </g>
              </g>
            </g>
          </g>
          <g id="eyelid" transform="translate(0 6.335)">
            <g id="Group_67667" data-name="Group 67667" transform="translate(0 0)">
              <g id="Group_67666" data-name="Group 67666" transform="translate(0 0)">
                <path id="Path_53687" data-name="Path 53687" d="M4.034.237,3.823.158,3.006,0h-.87L2,.026H1.846L1.714.053H1.661L1.582.079l-.9.237-.5.237L.158.58.079.633.026.686,0,.738.053.765,2.162.738l.132.026h.369l.791.079.369.079H3.9l1.239.316a.4.4,0,0,1,.158.053l.132.026.105.053h.079l.053.026q.079.053.079-.026V1.318L5.59,1.16l-.026-.053-.4-.316L5.01.686,4.9.633,4.8.554,4.588.448l-.5-.185Z" fill="#03012e"/>
              </g>
            </g>
          </g>
          <g id="pupil_copy" transform="translate(25.761 0)">
            <g id="Layer_1-7" data-name="Layer_1" transform="translate(0 0)">
              <g id="Group_67670" data-name="Group 67670">
                <g id="Group_67669" data-name="Group 67669">
                  <g id="Group_67668" data-name="Group 67668">
                    <path id="Path_53688" data-name="Path 53688" d="M5.162,1a2.73,2.73,0,0,0-2.13-1A2.8,2.8,0,0,0,.877,1,3.624,3.624,0,0,0,0,3.433,3.53,3.53,0,0,0,.877,5.839a2.8,2.8,0,0,0,2.155,1,2.73,2.73,0,0,0,2.13-1,3.472,3.472,0,0,0,.9-2.406A3.564,3.564,0,0,0,5.162,1Z" fill="#03012e"/>
                  </g>
                </g>
              </g>
            </g>
            <g id="Layer_2-4" data-name="Layer_2" transform="translate(3.784 1.629)">
              <g id="Group_67673" data-name="Group 67673" transform="translate(0 0)">
                <g id="Group_67672" data-name="Group 67672" transform="translate(0)">
                  <g id="Group_67671" data-name="Group 67671">
                    <path id="Path_53689" data-name="Path 53689" d="M.952.526A.51.51,0,0,0,.8.15.4.4,0,0,0,.476,0,.4.4,0,0,0,.15.15.51.51,0,0,0,0,.526.51.51,0,0,0,.15.9a.4.4,0,0,0,.326.15A.4.4,0,0,0,.8.9.51.51,0,0,0,.952.526Z" fill="#fff"/>
                  </g>
                </g>
              </g>
            </g>
          </g>
          <g id="eyelid_copy" transform="translate(27.422 5.966)">
            <g id="Group_67675" data-name="Group 67675" transform="translate(0 0)">
              <g id="Group_67674" data-name="Group 67674" transform="translate(0 0)">
                <path id="Path_53690" data-name="Path 53690" d="M3.85.185,3.217.026,2.98,0h-.5L1.74.105,1.635.132,1.4.237,1.292.264.976.422.9.475.791.527.712.58.633.659.475.765.422.817.316.949.105,1.16l-.026.053-.053.053L0,1.318.026,1.4H.079l.053-.026H.185L.29,1.318,1.239,1h.079L1.371.976h.053L1.5.949A1.794,1.794,0,0,1,1.925.87L2.531.765h.316L2.953.738H4.219l.475.026A.047.047,0,0,0,4.746.712L4.72.686,4.693.633,4.614.58,4.588.554,4.535.527,4.192.316Z" fill="#03012e"/>
              </g>
            </g>
          </g>
        </g>
        <g id="brow_l" transform="translate(59.879 79.887) rotate(28.576)">
          <g id="Layer_1-8" data-name="Layer_1" transform="translate(0 0)">
            <g id="Group_67677" data-name="Group 67677" transform="translate(0 0)">
              <g id="Group_67676" data-name="Group 67676">
                <path id="Path_53691" data-name="Path 53691" d="M4.324.211,4.3.237H4.245L4.166.264,4.034.29l-.9.316-.58.316L2.479.949,2.426,1l-.158.079-.791.686-.053.079-.316.343L.58,3.032l-.29.738-.026.053L.237,3.9l-.079.369V4.4l-.079.343L0,5.405V6.2l.026.132v.105l.053.316A.047.047,0,0,0,.132,6.8l.026-.026.079-.422L.29,6.223l.053-.264L.712,4.8.765,4.72l.053-.105.026-.105.633-1.187.158-.211.079-.079L1.74,2.98l.053-.053.079-.105.369-.369.211-.158.079-.105.343-.237L2.98,1.9l.053-.053.185-.079.105-.079.237-.105.079-.053.422-.185.264-.079.105-.053h.079l.026-.026h.026l.132-.053H4.8V1.107h.026l.264-.079L7.014.712h.105L7.225.686h.4L7.8.659l1.16.026q.053.053.053-.026L8.991.606,8.86.527,8.7.475,8.6.422,8.464.4,8.042.237H7.937L7.673.158,7.251.079H7.146L7.014.053,6.276,0,4.614.158H4.588L4.562.185H4.456Z" fill="#03012e"/>
              </g>
            </g>
          </g>
        </g>
      </g>
      <g id="Layer_3" transform="translate(625.445 62.897)">
        <g id="Group_67681" data-name="Group 67681" transform="translate(0 0)">
          <g id="Group_67680" data-name="Group 67680" transform="translate(0)">
            <g id="Group_67679" data-name="Group 67679">
              <path id="Path_53692" data-name="Path 53692" d="M518.173,289.724a22.106,22.106,0,0,0-.772-2.749,15.554,15.554,0,0,0-4.244-5.835,34.415,34.415,0,0,0-6.317-4.244,14.465,14.465,0,0,0-5.16-1.784l-2.17-.145q-.53,0-1.591.1-5.594.627-10.271,5.738a42.842,42.842,0,0,0-6.655,10.175q-7.33,14.756-5.015,34a5,5,0,0,0,1.543,3.327,8.243,8.243,0,0,0,3.568,1.4,136.083,136.083,0,0,0,15.431,2.266q5.208.482,15.624,1.206a8.506,8.506,0,0,0,3.81-.289q1.688-.723,2.074-3.376.1-.868.048-4.292-.1-4.292-.1-6.414-.048-3.713.145-6.414.627-7.571.723-11.332A51.225,51.225,0,0,0,518.173,289.724Z" transform="translate(-475.423 -274.968)" fill="#eb7a23"/>
            </g>
          </g>
        </g>
        <g id="Group_67684" data-name="Group 67684" transform="translate(6.549 2.218)">
          <g id="Group_67683" data-name="Group 67683" transform="translate(0 0)">
            <g id="Group_67682" data-name="Group 67682">
              <path id="Path_53693" data-name="Path 53693" d="M512.892,289.11q-.337-1.109,6.172-4.581a17.051,17.051,0,0,0-8.391,3.52q-8.15,6.124-6.848,19,.516,5.119.627,7.185-.032-1.225.048-3.279.482-12.827,5.208-16.878Q513.423,290.894,512.892,289.11Z" transform="translate(-503.647 -284.529)" fill="#f39941"/>
            </g>
          </g>
        </g>
      </g>
    </g>
  </g>
</svg>
